<?xml version="1.0" encoding="UTF-8" standalone="no"?>
<!DOCTYPE svg PUBLIC "-//W3C//DTD SVG 1.1//EN"
 "http://www.w3.org/Graphics/SVG/1.1/DTD/svg11.dtd">
<!-- Generated by graphviz version 2.43.0 (0)
 -->
<!-- Title: /home/runner/work/thorin2/thorin2/dialects/mem/passes/rw/alloc2malloc.h Pages: 1 -->
<svg width="1451pt" height="565pt"
 viewBox="0.00 0.00 1450.50 565.00" xmlns="http://www.w3.org/2000/svg" xmlns:xlink="http://www.w3.org/1999/xlink">
<g id="graph0" class="graph" transform="scale(1 1) rotate(0) translate(4 561)">
<title>/home/runner/work/thorin2/thorin2/dialects/mem/passes/rw/alloc2malloc.h</title>
<!-- Node1 -->
<g id="node1" class="node">
<title>Node1</title>
<g id="a_node1"><a xlink:title=" ">
<polygon fill="#bfbfbf" stroke="black" points="531,-515.5 531,-556.5 692,-556.5 692,-515.5 531,-515.5"/>
<text text-anchor="start" x="539" y="-544.5" font-family="Helvetica,sans-Serif" font-size="10.00">/home/runner/work/thorin2</text>
<text text-anchor="start" x="539" y="-533.5" font-family="Helvetica,sans-Serif" font-size="10.00">/thorin2/dialects/mem/passes</text>
<text text-anchor="middle" x="611.5" y="-522.5" font-family="Helvetica,sans-Serif" font-size="10.00">/rw/alloc2malloc.h</text>
</a>
</g>
</g>
<!-- Node2 -->
<g id="node2" class="node">
<title>Node2</title>
<g id="a_node2"><a xlink:href="pass_8h.html" target="_top" xlink:title=" ">
<polygon fill="none" stroke="black" points="559,-459.5 559,-478.5 664,-478.5 664,-459.5 559,-459.5"/>
<text text-anchor="middle" x="611.5" y="-466.5" font-family="Helvetica,sans-Serif" font-size="10.00">thorin/pass/pass.h</text>
</a>
</g>
</g>
<!-- Node1&#45;&gt;Node2 -->
<g id="edge1" class="edge">
<title>Node1&#45;&gt;Node2</title>
<path fill="none" stroke="midnightblue" d="M611.5,-515.5C611.5,-507.07 611.5,-497.24 611.5,-488.87"/>
<polygon fill="midnightblue" stroke="midnightblue" points="615,-488.65 611.5,-478.65 608,-488.65 615,-488.65"/>
</g>
<!-- Node3 -->
<g id="node3" class="node">
<title>Node3</title>
<g id="a_node3"><a xlink:title=" ">
<polygon fill="none" stroke="#bfbfbf" points="52,-118 52,-137 95,-137 95,-118 52,-118"/>
<text text-anchor="middle" x="73.5" y="-125" font-family="Helvetica,sans-Serif" font-size="10.00">stack</text>
</a>
</g>
</g>
<!-- Node2&#45;&gt;Node3 -->
<g id="edge2" class="edge">
<title>Node2&#45;&gt;Node3</title>
<path fill="none" stroke="midnightblue" d="M558.85,-467.28C431.92,-464.12 119.5,-447.28 119.5,-358 119.5,-358 119.5,-358 119.5,-244 119.5,-206.77 98.62,-167.28 84.99,-145.47"/>
<polygon fill="midnightblue" stroke="midnightblue" points="87.89,-143.51 79.51,-137.02 82.02,-147.31 87.89,-143.51"/>
</g>
<!-- Node4 -->
<g id="node4" class="node">
<title>Node4</title>
<g id="a_node4"><a xlink:href="world_8h.html" target="_top" xlink:title=" ">
<polygon fill="none" stroke="black" points="1047.5,-403.5 1047.5,-422.5 1131.5,-422.5 1131.5,-403.5 1047.5,-403.5"/>
<text text-anchor="middle" x="1089.5" y="-410.5" font-family="Helvetica,sans-Serif" font-size="10.00">thorin/world.h</text>
</a>
</g>
</g>
<!-- Node2&#45;&gt;Node4 -->
<g id="edge3" class="edge">
<title>Node2&#45;&gt;Node4</title>
<path fill="none" stroke="midnightblue" d="M664.02,-462.07C756.03,-451.67 945.29,-430.29 1037.17,-419.91"/>
<polygon fill="midnightblue" stroke="midnightblue" points="1037.8,-423.36 1047.34,-418.76 1037.01,-416.41 1037.8,-423.36"/>
</g>
<!-- Node5 -->
<g id="node5" class="node">
<title>Node5</title>
<g id="a_node5"><a xlink:title=" ">
<polygon fill="none" stroke="#bfbfbf" points="1368.5,-56.5 1368.5,-75.5 1424.5,-75.5 1424.5,-56.5 1368.5,-56.5"/>
<text text-anchor="middle" x="1396.5" y="-63.5" font-family="Helvetica,sans-Serif" font-size="10.00">sstream</text>
</a>
</g>
</g>
<!-- Node4&#45;&gt;Node5 -->
<g id="edge4" class="edge">
<title>Node4&#45;&gt;Node5</title>
<path fill="none" stroke="midnightblue" d="M1131.67,-410.63C1185.02,-407.61 1278.82,-397.93 1352.5,-367 1397.99,-347.9 1442.5,-351.34 1442.5,-302 1442.5,-302 1442.5,-302 1442.5,-188 1442.5,-148.87 1421.22,-106.99 1407.61,-84.21"/>
<polygon fill="midnightblue" stroke="midnightblue" points="1410.56,-82.33 1402.33,-75.67 1404.61,-86.02 1410.56,-82.33"/>
</g>
<!-- Node6 -->
<g id="node6" class="node">
<title>Node6</title>
<g id="a_node6"><a xlink:title=" ">
<polygon fill="none" stroke="#bfbfbf" points="1306.5,-56.5 1306.5,-75.5 1350.5,-75.5 1350.5,-56.5 1306.5,-56.5"/>
<text text-anchor="middle" x="1328.5" y="-63.5" font-family="Helvetica,sans-Serif" font-size="10.00">string</text>
</a>
</g>
</g>
<!-- Node4&#45;&gt;Node6 -->
<g id="edge5" class="edge">
<title>Node4&#45;&gt;Node6</title>
<path fill="none" stroke="midnightblue" d="M1131.66,-406.31C1217.49,-393.53 1404.5,-359.13 1404.5,-302 1404.5,-302 1404.5,-302 1404.5,-188 1404.5,-144.48 1368.8,-103.77 1346.34,-82.47"/>
<polygon fill="midnightblue" stroke="midnightblue" points="1348.49,-79.7 1338.75,-75.53 1343.77,-84.86 1348.49,-79.7"/>
</g>
<!-- Node7 -->
<g id="node7" class="node">
<title>Node7</title>
<g id="a_node7"><a xlink:href="axiom_8h.html" target="_top" xlink:title=" ">
<polygon fill="none" stroke="black" points="1081.5,-347.5 1081.5,-366.5 1169.5,-366.5 1169.5,-347.5 1081.5,-347.5"/>
<text text-anchor="middle" x="1125.5" y="-354.5" font-family="Helvetica,sans-Serif" font-size="10.00">thorin/axiom.h</text>
</a>
</g>
</g>
<!-- Node4&#45;&gt;Node7 -->
<g id="edge6" class="edge">
<title>Node4&#45;&gt;Node7</title>
<path fill="none" stroke="midnightblue" d="M1095.44,-403.08C1100.48,-395.53 1107.84,-384.49 1114.01,-375.23"/>
<polygon fill="midnightblue" stroke="midnightblue" points="1117.03,-377.01 1119.67,-366.75 1111.21,-373.13 1117.03,-377.01"/>
</g>
<!-- Node13 -->
<g id="node13" class="node">
<title>Node13</title>
<g id="a_node13"><a xlink:href="debug_8h.html" target="_top" xlink:title=" ">
<polygon fill="none" stroke="black" points="1047,-179.5 1047,-198.5 1134,-198.5 1134,-179.5 1047,-179.5"/>
<text text-anchor="middle" x="1090.5" y="-186.5" font-family="Helvetica,sans-Serif" font-size="10.00">thorin/debug.h</text>
</a>
</g>
</g>
<!-- Node4&#45;&gt;Node13 -->
<g id="edge60" class="edge">
<title>Node4&#45;&gt;Node13</title>
<path fill="none" stroke="midnightblue" d="M1085.13,-403.31C1080.94,-394.44 1074.9,-380.14 1072.5,-367 1062.03,-309.65 1076.78,-240.65 1085.26,-208.35"/>
<polygon fill="midnightblue" stroke="midnightblue" points="1088.68,-209.11 1087.94,-198.54 1081.93,-207.26 1088.68,-209.11"/>
</g>
<!-- Node42 -->
<g id="node42" class="node">
<title>Node42</title>
<g id="a_node42"><a xlink:href="hash_8h.html" target="_top" xlink:title=" ">
<polygon fill="none" stroke="black" points="232,-118 232,-137 331,-137 331,-118 232,-118"/>
<text text-anchor="middle" x="281.5" y="-125" font-family="Helvetica,sans-Serif" font-size="10.00">thorin/util/hash.h</text>
</a>
</g>
</g>
<!-- Node4&#45;&gt;Node42 -->
<g id="edge70" class="edge">
<title>Node4&#45;&gt;Node42</title>
<path fill="none" stroke="midnightblue" d="M1047.25,-410.14C891.36,-402.73 357.5,-372.24 357.5,-302 357.5,-302 357.5,-302 357.5,-244 357.5,-202.31 322.52,-164.03 300.02,-143.72"/>
<polygon fill="midnightblue" stroke="midnightblue" points="302.23,-141 292.39,-137.08 297.64,-146.28 302.23,-141"/>
</g>
<!-- Node43 -->
<g id="node43" class="node">
<title>Node43</title>
<g id="a_node43"><a xlink:title=" ">
<polygon fill="none" stroke="#bfbfbf" points="1187.5,-347.5 1187.5,-366.5 1273.5,-366.5 1273.5,-347.5 1187.5,-347.5"/>
<text text-anchor="middle" x="1230.5" y="-354.5" font-family="Helvetica,sans-Serif" font-size="10.00">thorin/config.h</text>
</a>
</g>
</g>
<!-- Node4&#45;&gt;Node43 -->
<g id="edge59" class="edge">
<title>Node4&#45;&gt;Node43</title>
<path fill="none" stroke="midnightblue" d="M1111.84,-403.44C1135.25,-394.48 1172.24,-380.31 1198.69,-370.18"/>
<polygon fill="midnightblue" stroke="midnightblue" points="1200.18,-373.36 1208.26,-366.52 1197.67,-366.82 1200.18,-373.36"/>
</g>
<!-- Node44 -->
<g id="node44" class="node">
<title>Node44</title>
<g id="a_node44"><a xlink:href="error_8h.html" target="_top" xlink:title=" ">
<polygon fill="none" stroke="black" points="1268.5,-235.5 1268.5,-254.5 1348.5,-254.5 1348.5,-235.5 1268.5,-235.5"/>
<text text-anchor="middle" x="1308.5" y="-242.5" font-family="Helvetica,sans-Serif" font-size="10.00">thorin/error.h</text>
</a>
</g>
</g>
<!-- Node4&#45;&gt;Node44 -->
<g id="edge61" class="edge">
<title>Node4&#45;&gt;Node44</title>
<path fill="none" stroke="midnightblue" d="M1131.5,-407.46C1181.77,-401.16 1261.76,-388.1 1282.5,-367 1309.39,-339.63 1311.42,-291.57 1310.18,-265"/>
<polygon fill="midnightblue" stroke="midnightblue" points="1313.66,-264.49 1309.49,-254.75 1306.67,-264.97 1313.66,-264.49"/>
</g>
<!-- Node46 -->
<g id="node46" class="node">
<title>Node46</title>
<g id="a_node46"><a xlink:href="lattice_8h.html" target="_top" xlink:title=" ">
<polygon fill="none" stroke="black" points="830.5,-291.5 830.5,-310.5 918.5,-310.5 918.5,-291.5 830.5,-291.5"/>
<text text-anchor="middle" x="874.5" y="-298.5" font-family="Helvetica,sans-Serif" font-size="10.00">thorin/lattice.h</text>
</a>
</g>
</g>
<!-- Node4&#45;&gt;Node46 -->
<g id="edge66" class="edge">
<title>Node4&#45;&gt;Node46</title>
<path fill="none" stroke="midnightblue" d="M1072.63,-403.37C1035.19,-384.21 944.93,-338.04 900.33,-315.22"/>
<polygon fill="midnightblue" stroke="midnightblue" points="901.79,-312.03 891.29,-310.59 898.6,-318.26 901.79,-312.03"/>
</g>
<!-- Node47 -->
<g id="node47" class="node">
<title>Node47</title>
<g id="a_node47"><a xlink:href="tuple_8h.html" target="_top" xlink:title=" ">
<polygon fill="none" stroke="black" points="940.5,-291.5 940.5,-310.5 1022.5,-310.5 1022.5,-291.5 940.5,-291.5"/>
<text text-anchor="middle" x="981.5" y="-298.5" font-family="Helvetica,sans-Serif" font-size="10.00">thorin/tuple.h</text>
</a>
</g>
</g>
<!-- Node4&#45;&gt;Node47 -->
<g id="edge68" class="edge">
<title>Node4&#45;&gt;Node47</title>
<path fill="none" stroke="midnightblue" d="M1079.24,-403.35C1068.92,-394.51 1052.68,-380.24 1039.5,-367 1023.74,-351.18 1006.87,-331.98 995.41,-318.57"/>
<polygon fill="midnightblue" stroke="midnightblue" points="997.86,-316.05 988.72,-310.68 992.52,-320.58 997.86,-316.05"/>
</g>
<!-- Node8 -->
<g id="node8" class="node">
<title>Node8</title>
<g id="a_node8"><a xlink:href="lam_8h.html" target="_top" xlink:title=" ">
<polygon fill="none" stroke="black" points="1084.5,-291.5 1084.5,-310.5 1160.5,-310.5 1160.5,-291.5 1084.5,-291.5"/>
<text text-anchor="middle" x="1122.5" y="-298.5" font-family="Helvetica,sans-Serif" font-size="10.00">thorin/lam.h</text>
</a>
</g>
</g>
<!-- Node7&#45;&gt;Node8 -->
<g id="edge7" class="edge">
<title>Node7&#45;&gt;Node8</title>
<path fill="none" stroke="midnightblue" d="M1125,-347.08C1124.61,-340.01 1124.05,-329.86 1123.55,-320.99"/>
<polygon fill="midnightblue" stroke="midnightblue" points="1127.04,-320.54 1122.99,-310.75 1120.05,-320.93 1127.04,-320.54"/>
</g>
<!-- Node22 -->
<g id="node22" class="node">
<title>Node22</title>
<g id="a_node22"><a xlink:href="assert_8h.html" target="_top" xlink:title=" ">
<polygon fill="none" stroke="black" points="1182.5,-56.5 1182.5,-75.5 1288.5,-75.5 1288.5,-56.5 1182.5,-56.5"/>
<text text-anchor="middle" x="1235.5" y="-63.5" font-family="Helvetica,sans-Serif" font-size="10.00">thorin/util/assert.h</text>
</a>
</g>
</g>
<!-- Node7&#45;&gt;Node22 -->
<g id="edge58" class="edge">
<title>Node7&#45;&gt;Node22</title>
<path fill="none" stroke="midnightblue" d="M1134.69,-347.4C1162.57,-320.54 1245.89,-234.53 1271.5,-143 1275.21,-129.73 1276.06,-125 1271.5,-112 1267.71,-101.21 1260.13,-91.08 1252.9,-83.18"/>
<polygon fill="midnightblue" stroke="midnightblue" points="1255.17,-80.49 1245.66,-75.81 1250.17,-85.4 1255.17,-80.49"/>
</g>
<!-- Node9 -->
<g id="node9" class="node">
<title>Node9</title>
<g id="a_node9"><a xlink:title=" ">
<polygon fill="none" stroke="#bfbfbf" points="1097,-235.5 1097,-254.5 1148,-254.5 1148,-235.5 1097,-235.5"/>
<text text-anchor="middle" x="1122.5" y="-242.5" font-family="Helvetica,sans-Serif" font-size="10.00">variant</text>
</a>
</g>
</g>
<!-- Node8&#45;&gt;Node9 -->
<g id="edge8" class="edge">
<title>Node8&#45;&gt;Node9</title>
<path fill="none" stroke="midnightblue" d="M1122.5,-291.08C1122.5,-284.01 1122.5,-273.86 1122.5,-264.99"/>
<polygon fill="midnightblue" stroke="midnightblue" points="1126,-264.75 1122.5,-254.75 1119,-264.75 1126,-264.75"/>
</g>
<!-- Node10 -->
<g id="node10" class="node">
<title>Node10</title>
<g id="a_node10"><a xlink:href="def_8h.html" target="_top" xlink:title=" ">
<polygon fill="none" stroke="black" points="837.5,-235.5 837.5,-254.5 909.5,-254.5 909.5,-235.5 837.5,-235.5"/>
<text text-anchor="middle" x="873.5" y="-242.5" font-family="Helvetica,sans-Serif" font-size="10.00">thorin/def.h</text>
</a>
</g>
</g>
<!-- Node8&#45;&gt;Node10 -->
<g id="edge9" class="edge">
<title>Node8&#45;&gt;Node10</title>
<path fill="none" stroke="midnightblue" d="M1084.41,-291.74C1040.12,-282.13 967.02,-266.28 919.57,-255.99"/>
<polygon fill="midnightblue" stroke="midnightblue" points="920.08,-252.52 909.56,-253.82 918.59,-259.36 920.08,-252.52"/>
</g>
<!-- Node11 -->
<g id="node11" class="node">
<title>Node11</title>
<g id="a_node11"><a xlink:title=" ">
<polygon fill="none" stroke="#bfbfbf" points="461.5,-179.5 461.5,-198.5 517.5,-198.5 517.5,-179.5 461.5,-179.5"/>
<text text-anchor="middle" x="489.5" y="-186.5" font-family="Helvetica,sans-Serif" font-size="10.00">optional</text>
</a>
</g>
</g>
<!-- Node10&#45;&gt;Node11 -->
<g id="edge10" class="edge">
<title>Node10&#45;&gt;Node11</title>
<path fill="none" stroke="midnightblue" d="M837.41,-240.22C774.88,-233.44 642.45,-218.15 531.5,-199 530.26,-198.79 529,-198.56 527.73,-198.33"/>
<polygon fill="midnightblue" stroke="midnightblue" points="528.39,-194.89 517.91,-196.41 527.05,-201.76 528.39,-194.89"/>
</g>
<!-- Node12 -->
<g id="node12" class="node">
<title>Node12</title>
<g id="a_node12"><a xlink:title=" ">
<polygon fill="none" stroke="#bfbfbf" points="0,-56.5 0,-75.5 47,-75.5 47,-56.5 0,-56.5"/>
<text text-anchor="middle" x="23.5" y="-63.5" font-family="Helvetica,sans-Serif" font-size="10.00">vector</text>
</a>
</g>
</g>
<!-- Node10&#45;&gt;Node12 -->
<g id="edge11" class="edge">
<title>Node10&#45;&gt;Node12</title>
<path fill="none" stroke="midnightblue" d="M837.31,-242.08C685.05,-233.7 101.55,-198.14 42.5,-143 26.84,-128.38 23.26,-102.98 22.82,-85.6"/>
<polygon fill="midnightblue" stroke="midnightblue" points="26.32,-85.56 22.89,-75.53 19.32,-85.51 26.32,-85.56"/>
</g>
<!-- Node10&#45;&gt;Node13 -->
<g id="edge12" class="edge">
<title>Node10&#45;&gt;Node13</title>
<path fill="none" stroke="midnightblue" d="M907.88,-235.44C945.42,-226.1 1005.63,-211.12 1046.57,-200.93"/>
<polygon fill="midnightblue" stroke="midnightblue" points="1047.42,-204.33 1056.28,-198.52 1045.73,-197.53 1047.42,-204.33"/>
</g>
<!-- Node16 -->
<g id="node16" class="node">
<title>Node16</title>
<g id="a_node16"><a xlink:href="tables_8h.html" target="_top" xlink:title=" ">
<polygon fill="none" stroke="black" points="830,-179.5 830,-198.5 917,-198.5 917,-179.5 830,-179.5"/>
<text text-anchor="middle" x="873.5" y="-186.5" font-family="Helvetica,sans-Serif" font-size="10.00">thorin/tables.h</text>
</a>
</g>
</g>
<!-- Node10&#45;&gt;Node16 -->
<g id="edge16" class="edge">
<title>Node10&#45;&gt;Node16</title>
<path fill="none" stroke="midnightblue" d="M873.5,-235.08C873.5,-228.01 873.5,-217.86 873.5,-208.99"/>
<polygon fill="midnightblue" stroke="midnightblue" points="877,-208.75 873.5,-198.75 870,-208.75 877,-208.75"/>
</g>
<!-- Node18 -->
<g id="node18" class="node">
<title>Node18</title>
<g id="a_node18"><a xlink:href="print_8h.html" target="_top" xlink:title=" ">
<polygon fill="none" stroke="black" points="1164.5,-118 1164.5,-137 1262.5,-137 1262.5,-118 1164.5,-118"/>
<text text-anchor="middle" x="1213.5" y="-125" font-family="Helvetica,sans-Serif" font-size="10.00">thorin/util/print.h</text>
</a>
</g>
</g>
<!-- Node10&#45;&gt;Node18 -->
<g id="edge57" class="edge">
<title>Node10&#45;&gt;Node18</title>
<path fill="none" stroke="midnightblue" d="M893.21,-235.46C923.77,-222.39 984.59,-197.03 1037.5,-179 1082.14,-163.79 1134.15,-149.25 1169.99,-139.71"/>
<polygon fill="midnightblue" stroke="midnightblue" points="1171.34,-142.97 1180.11,-137.04 1169.55,-136.21 1171.34,-142.97"/>
</g>
<!-- Node30 -->
<g id="node30" class="node">
<title>Node30</title>
<g id="a_node30"><a xlink:href="array_8h.html" target="_top" xlink:title=" ">
<polygon fill="none" stroke="black" points="113.5,-118 113.5,-137 213.5,-137 213.5,-118 113.5,-118"/>
<text text-anchor="middle" x="163.5" y="-125" font-family="Helvetica,sans-Serif" font-size="10.00">thorin/util/array.h</text>
</a>
</g>
</g>
<!-- Node10&#45;&gt;Node30 -->
<g id="edge33" class="edge">
<title>Node10&#45;&gt;Node30</title>
<path fill="none" stroke="midnightblue" d="M837.23,-241.75C764.06,-236.85 593.71,-223.63 452.5,-199 348.86,-180.93 324.7,-168 222.5,-143 217.82,-141.85 212.92,-140.66 208.05,-139.46"/>
<polygon fill="midnightblue" stroke="midnightblue" points="208.67,-136.01 198.13,-137.02 207,-142.81 208.67,-136.01"/>
</g>
<!-- Node37 -->
<g id="node37" class="node">
<title>Node37</title>
<g id="a_node37"><a xlink:href="cast_8h.html" target="_top" xlink:title=" ">
<polygon fill="none" stroke="black" points="928.5,-118 928.5,-137 1024.5,-137 1024.5,-118 928.5,-118"/>
<text text-anchor="middle" x="976.5" y="-125" font-family="Helvetica,sans-Serif" font-size="10.00">thorin/util/cast.h</text>
</a>
</g>
</g>
<!-- Node10&#45;&gt;Node37 -->
<g id="edge44" class="edge">
<title>Node10&#45;&gt;Node37</title>
<path fill="none" stroke="midnightblue" d="M884.92,-235.38C895.93,-226.79 912.75,-212.91 925.5,-199 940.91,-182.19 955.87,-160.69 965.57,-145.88"/>
<polygon fill="midnightblue" stroke="midnightblue" points="968.66,-147.54 971.12,-137.23 962.77,-143.75 968.66,-147.54"/>
</g>
<!-- Node38 -->
<g id="node38" class="node">
<title>Node38</title>
<g id="a_node38"><a xlink:href="container_8h.html" target="_top" xlink:title=" ">
<polygon fill="none" stroke="black" points="574,-179.5 574,-198.5 695,-198.5 695,-179.5 574,-179.5"/>
<text text-anchor="middle" x="634.5" y="-186.5" font-family="Helvetica,sans-Serif" font-size="10.00">thorin/util/container.h</text>
</a>
</g>
</g>
<!-- Node10&#45;&gt;Node38 -->
<g id="edge47" class="edge">
<title>Node10&#45;&gt;Node38</title>
<path fill="none" stroke="midnightblue" d="M837.46,-235.86C796.12,-226.52 728.16,-211.16 682.4,-200.82"/>
<polygon fill="midnightblue" stroke="midnightblue" points="682.94,-197.36 672.42,-198.57 681.4,-204.18 682.94,-197.36"/>
</g>
<!-- Node10&#45;&gt;Node42 -->
<g id="edge56" class="edge">
<title>Node10&#45;&gt;Node42</title>
<path fill="none" stroke="midnightblue" d="M837.39,-242.7C778.77,-239.71 659.87,-230.03 564.5,-199 546.35,-193.1 544.51,-185.32 526.5,-179 446.63,-150.99 422.14,-161.27 339.5,-143 334.5,-141.89 329.27,-140.68 324.08,-139.43"/>
<polygon fill="midnightblue" stroke="midnightblue" points="324.79,-136 314.25,-137.02 323.13,-142.8 324.79,-136"/>
</g>
<!-- Node13&#45;&gt;Node6 -->
<g id="edge13" class="edge">
<title>Node13&#45;&gt;Node6</title>
<path fill="none" stroke="midnightblue" d="M1134.01,-185.38C1172.88,-181.24 1229.94,-170.56 1271.5,-143 1293.56,-128.37 1310.37,-102.21 1319.83,-84.73"/>
<polygon fill="midnightblue" stroke="midnightblue" points="1323.07,-86.09 1324.54,-75.59 1316.85,-82.88 1323.07,-86.09"/>
</g>
<!-- Node14 -->
<g id="node14" class="node">
<title>Node14</title>
<g id="a_node14"><a xlink:title=" ">
<polygon fill="none" stroke="#bfbfbf" points="1042.5,-112.5 1042.5,-142.5 1146.5,-142.5 1146.5,-112.5 1042.5,-112.5"/>
<text text-anchor="start" x="1050.5" y="-130.5" font-family="Helvetica,sans-Serif" font-size="10.00">absl/container/flat</text>
<text text-anchor="middle" x="1094.5" y="-119.5" font-family="Helvetica,sans-Serif" font-size="10.00">_hash_map.h</text>
</a>
</g>
</g>
<!-- Node13&#45;&gt;Node14 -->
<g id="edge14" class="edge">
<title>Node13&#45;&gt;Node14</title>
<path fill="none" stroke="midnightblue" d="M1091.07,-179.48C1091.54,-172.47 1092.23,-162.19 1092.87,-152.7"/>
<polygon fill="midnightblue" stroke="midnightblue" points="1096.38,-152.74 1093.56,-142.52 1089.39,-152.27 1096.38,-152.74"/>
</g>
<!-- Node15 -->
<g id="node15" class="node">
<title>Node15</title>
<g id="a_node15"><a xlink:title=" ">
<polygon fill="none" stroke="#bfbfbf" points="676.5,-112.5 676.5,-142.5 780.5,-142.5 780.5,-112.5 676.5,-112.5"/>
<text text-anchor="start" x="684.5" y="-130.5" font-family="Helvetica,sans-Serif" font-size="10.00">absl/container/flat</text>
<text text-anchor="middle" x="728.5" y="-119.5" font-family="Helvetica,sans-Serif" font-size="10.00">_hash_set.h</text>
</a>
</g>
</g>
<!-- Node13&#45;&gt;Node15 -->
<g id="edge15" class="edge">
<title>Node13&#45;&gt;Node15</title>
<path fill="none" stroke="midnightblue" d="M1046.83,-180.82C982.9,-170.31 863.49,-150.69 790.49,-138.69"/>
<polygon fill="midnightblue" stroke="midnightblue" points="790.94,-135.22 780.5,-137.05 789.8,-142.12 790.94,-135.22"/>
</g>
<!-- Node17 -->
<g id="node17" class="node">
<title>Node17</title>
<g id="a_node17"><a xlink:title=" ">
<polygon fill="none" stroke="#bfbfbf" points="837,-118 837,-137 910,-137 910,-118 837,-118"/>
<text text-anchor="middle" x="873.5" y="-125" font-family="Helvetica,sans-Serif" font-size="10.00">string_view</text>
</a>
</g>
</g>
<!-- Node16&#45;&gt;Node17 -->
<g id="edge17" class="edge">
<title>Node16&#45;&gt;Node17</title>
<path fill="none" stroke="midnightblue" d="M873.5,-179.48C873.5,-171.08 873.5,-157.98 873.5,-147.16"/>
<polygon fill="midnightblue" stroke="midnightblue" points="877,-147.01 873.5,-137.01 870,-147.01 877,-147.01"/>
</g>
<!-- Node16&#45;&gt;Node18 -->
<g id="edge18" class="edge">
<title>Node16&#45;&gt;Node18</title>
<path fill="none" stroke="midnightblue" d="M917.19,-182.23C972.8,-174.6 1071.71,-160.13 1155.5,-143 1160.64,-141.95 1166.02,-140.75 1171.33,-139.5"/>
<polygon fill="midnightblue" stroke="midnightblue" points="1172.51,-142.81 1181.4,-137.05 1170.86,-136.01 1172.51,-142.81"/>
</g>
<!-- Node24 -->
<g id="node24" class="node">
<title>Node24</title>
<g id="a_node24"><a xlink:href="types_8h.html" target="_top" xlink:title=" ">
<polygon fill="none" stroke="black" points="537,-56.5 537,-75.5 640,-75.5 640,-56.5 537,-56.5"/>
<text text-anchor="middle" x="588.5" y="-63.5" font-family="Helvetica,sans-Serif" font-size="10.00">thorin/util/types.h</text>
</a>
</g>
</g>
<!-- Node16&#45;&gt;Node24 -->
<g id="edge26" class="edge">
<title>Node16&#45;&gt;Node24</title>
<path fill="none" stroke="midnightblue" d="M864.45,-179.33C844.59,-160.37 798.23,-116.52 789.5,-112 745.94,-89.44 691.34,-78.14 650.05,-72.5"/>
<polygon fill="midnightblue" stroke="midnightblue" points="650.48,-69.03 640.12,-71.22 649.59,-75.97 650.48,-69.03"/>
</g>
<!-- Node18&#45;&gt;Node5 -->
<g id="edge22" class="edge">
<title>Node18&#45;&gt;Node5</title>
<path fill="none" stroke="midnightblue" d="M1239.72,-117.98C1271.52,-107.64 1325.27,-90.16 1360.82,-78.6"/>
<polygon fill="midnightblue" stroke="midnightblue" points="1361.9,-81.93 1370.33,-75.51 1359.74,-75.27 1361.9,-81.93"/>
</g>
<!-- Node18&#45;&gt;Node6 -->
<g id="edge23" class="edge">
<title>Node18&#45;&gt;Node6</title>
<path fill="none" stroke="midnightblue" d="M1229.98,-117.98C1249.11,-108.08 1280.87,-91.64 1303.15,-80.12"/>
<polygon fill="midnightblue" stroke="midnightblue" points="1304.78,-83.21 1312.05,-75.51 1301.56,-77 1304.78,-83.21"/>
</g>
<!-- Node19 -->
<g id="node19" class="node">
<title>Node19</title>
<g id="a_node19"><a xlink:title=" ">
<polygon fill="none" stroke="#bfbfbf" points="1104.5,-56.5 1104.5,-75.5 1164.5,-75.5 1164.5,-56.5 1104.5,-56.5"/>
<text text-anchor="middle" x="1134.5" y="-63.5" font-family="Helvetica,sans-Serif" font-size="10.00">iostream</text>
</a>
</g>
</g>
<!-- Node18&#45;&gt;Node19 -->
<g id="edge19" class="edge">
<title>Node18&#45;&gt;Node19</title>
<path fill="none" stroke="midnightblue" d="M1202.18,-117.98C1189.63,-108.52 1169.15,-93.1 1154,-81.69"/>
<polygon fill="midnightblue" stroke="midnightblue" points="1155.89,-78.73 1145.8,-75.51 1151.68,-84.32 1155.89,-78.73"/>
</g>
<!-- Node20 -->
<g id="node20" class="node">
<title>Node20</title>
<g id="a_node20"><a xlink:title=" ">
<polygon fill="none" stroke="#bfbfbf" points="822,-0.5 822,-19.5 879,-19.5 879,-0.5 822,-0.5"/>
<text text-anchor="middle" x="850.5" y="-7.5" font-family="Helvetica,sans-Serif" font-size="10.00">ostream</text>
</a>
</g>
</g>
<!-- Node18&#45;&gt;Node20 -->
<g id="edge20" class="edge">
<title>Node18&#45;&gt;Node20</title>
<path fill="none" stroke="midnightblue" d="M1191.95,-117.89C1168.12,-108.22 1128.7,-91.81 1095.5,-76 1078.27,-67.79 1075.43,-62.53 1057.5,-56 1000.8,-35.35 931.73,-22.68 889.46,-16.25"/>
<polygon fill="midnightblue" stroke="midnightblue" points="889.71,-12.75 879.31,-14.75 888.69,-19.67 889.71,-12.75"/>
</g>
<!-- Node21 -->
<g id="node21" class="node">
<title>Node21</title>
<g id="a_node21"><a xlink:title=" ">
<polygon fill="none" stroke="#bfbfbf" points="998.5,-56.5 998.5,-75.5 1048.5,-75.5 1048.5,-56.5 998.5,-56.5"/>
<text text-anchor="middle" x="1023.5" y="-63.5" font-family="Helvetica,sans-Serif" font-size="10.00">ranges</text>
</a>
</g>
</g>
<!-- Node18&#45;&gt;Node21 -->
<g id="edge21" class="edge">
<title>Node18&#45;&gt;Node21</title>
<path fill="none" stroke="midnightblue" d="M1186.28,-117.98C1152.61,-107.43 1095.23,-89.46 1058.37,-77.92"/>
<polygon fill="midnightblue" stroke="midnightblue" points="1059.14,-74.49 1048.55,-74.85 1057.05,-81.17 1059.14,-74.49"/>
</g>
<!-- Node18&#45;&gt;Node22 -->
<g id="edge24" class="edge">
<title>Node18&#45;&gt;Node22</title>
<path fill="none" stroke="midnightblue" d="M1216.65,-117.98C1219.82,-109.4 1224.8,-95.93 1228.85,-84.98"/>
<polygon fill="midnightblue" stroke="midnightblue" points="1232.17,-86.1 1232.35,-75.51 1225.6,-83.67 1232.17,-86.1"/>
</g>
<!-- Node23 -->
<g id="node23" class="node">
<title>Node23</title>
<g id="a_node23"><a xlink:title=" ">
<polygon fill="none" stroke="#bfbfbf" points="944.5,-0.5 944.5,-19.5 996.5,-19.5 996.5,-0.5 944.5,-0.5"/>
<text text-anchor="middle" x="970.5" y="-7.5" font-family="Helvetica,sans-Serif" font-size="10.00">cassert</text>
</a>
</g>
</g>
<!-- Node22&#45;&gt;Node23 -->
<g id="edge25" class="edge">
<title>Node22&#45;&gt;Node23</title>
<path fill="none" stroke="midnightblue" d="M1193.51,-56.44C1141.98,-45.94 1055.46,-28.31 1006.72,-18.38"/>
<polygon fill="midnightblue" stroke="midnightblue" points="1007.13,-14.89 996.63,-16.32 1005.73,-21.75 1007.13,-14.89"/>
</g>
<!-- Node24&#45;&gt;Node20 -->
<g id="edge29" class="edge">
<title>Node24&#45;&gt;Node20</title>
<path fill="none" stroke="midnightblue" d="M630.01,-56.44C679.99,-46.14 763.25,-28.98 811.9,-18.96"/>
<polygon fill="midnightblue" stroke="midnightblue" points="812.64,-22.38 821.72,-16.93 811.22,-15.52 812.64,-22.38"/>
</g>
<!-- Node25 -->
<g id="node25" class="node">
<title>Node25</title>
<g id="a_node25"><a xlink:title=" ">
<polygon fill="none" stroke="#bfbfbf" points="457.5,-0.5 457.5,-19.5 507.5,-19.5 507.5,-0.5 457.5,-0.5"/>
<text text-anchor="middle" x="482.5" y="-7.5" font-family="Helvetica,sans-Serif" font-size="10.00">cstdint</text>
</a>
</g>
</g>
<!-- Node24&#45;&gt;Node25 -->
<g id="edge27" class="edge">
<title>Node24&#45;&gt;Node25</title>
<path fill="none" stroke="midnightblue" d="M571.47,-56.32C554.47,-47.66 528.12,-34.24 508.51,-24.25"/>
<polygon fill="midnightblue" stroke="midnightblue" points="509.99,-21.08 499.49,-19.65 506.81,-27.31 509.99,-21.08"/>
</g>
<!-- Node26 -->
<g id="node26" class="node">
<title>Node26</title>
<g id="a_node26"><a xlink:title=" ">
<polygon fill="none" stroke="#bfbfbf" points="525.5,-0.5 525.5,-19.5 569.5,-19.5 569.5,-0.5 525.5,-0.5"/>
<text text-anchor="middle" x="547.5" y="-7.5" font-family="Helvetica,sans-Serif" font-size="10.00">limits</text>
</a>
</g>
</g>
<!-- Node24&#45;&gt;Node26 -->
<g id="edge28" class="edge">
<title>Node24&#45;&gt;Node26</title>
<path fill="none" stroke="midnightblue" d="M581.73,-56.08C575.94,-48.46 567.44,-37.26 560.36,-27.94"/>
<polygon fill="midnightblue" stroke="midnightblue" points="562.98,-25.6 554.14,-19.75 557.4,-29.83 562.98,-25.6"/>
</g>
<!-- Node27 -->
<g id="node27" class="node">
<title>Node27</title>
<g id="a_node27"><a xlink:title=" ">
<polygon fill="none" stroke="#bfbfbf" points="135,-0.5 135,-19.5 204,-19.5 204,-0.5 135,-0.5"/>
<text text-anchor="middle" x="169.5" y="-7.5" font-family="Helvetica,sans-Serif" font-size="10.00">type_traits</text>
</a>
</g>
</g>
<!-- Node24&#45;&gt;Node27 -->
<g id="edge30" class="edge">
<title>Node24&#45;&gt;Node27</title>
<path fill="none" stroke="midnightblue" d="M536.7,-58.32C453.72,-47.63 292.4,-26.84 214.17,-16.76"/>
<polygon fill="midnightblue" stroke="midnightblue" points="214.52,-13.27 204.15,-15.47 213.62,-20.22 214.52,-13.27"/>
</g>
<!-- Node28 -->
<g id="node28" class="node">
<title>Node28</title>
<g id="a_node28"><a xlink:title=" ">
<polygon fill="none" stroke="#bfbfbf" points="588,-0.5 588,-19.5 635,-19.5 635,-0.5 588,-0.5"/>
<text text-anchor="middle" x="611.5" y="-7.5" font-family="Helvetica,sans-Serif" font-size="10.00">cmath</text>
</a>
</g>
</g>
<!-- Node24&#45;&gt;Node28 -->
<g id="edge31" class="edge">
<title>Node24&#45;&gt;Node28</title>
<path fill="none" stroke="midnightblue" d="M592.3,-56.08C595.41,-48.77 599.92,-38.18 603.79,-29.1"/>
<polygon fill="midnightblue" stroke="midnightblue" points="607.07,-30.32 607.77,-19.75 600.63,-27.58 607.07,-30.32"/>
</g>
<!-- Node29 -->
<g id="node29" class="node">
<title>Node29</title>
<g id="a_node29"><a xlink:title=" ">
<polygon fill="none" stroke="#bfbfbf" points="653.5,-0.5 653.5,-19.5 709.5,-19.5 709.5,-0.5 653.5,-0.5"/>
<text text-anchor="middle" x="681.5" y="-7.5" font-family="Helvetica,sans-Serif" font-size="10.00">half.hpp</text>
</a>
</g>
</g>
<!-- Node24&#45;&gt;Node29 -->
<g id="edge32" class="edge">
<title>Node24&#45;&gt;Node29</title>
<path fill="none" stroke="midnightblue" d="M603.44,-56.32C618.09,-47.82 640.63,-34.73 657.74,-24.8"/>
<polygon fill="midnightblue" stroke="midnightblue" points="659.7,-27.7 666.6,-19.65 656.19,-21.65 659.7,-27.7"/>
</g>
<!-- Node30&#45;&gt;Node12 -->
<g id="edge43" class="edge">
<title>Node30&#45;&gt;Node12</title>
<path fill="none" stroke="midnightblue" d="M143.44,-117.98C119.74,-107.9 80.09,-91.05 52.92,-79.5"/>
<polygon fill="midnightblue" stroke="midnightblue" points="54.09,-76.2 43.52,-75.51 51.36,-82.64 54.09,-76.2"/>
</g>
<!-- Node30&#45;&gt;Node21 -->
<g id="edge41" class="edge">
<title>Node30&#45;&gt;Node21</title>
<path fill="none" stroke="midnightblue" d="M193.6,-117.93C202.8,-115.63 213,-113.39 222.5,-112 539.96,-65.5 623.71,-101.95 943.5,-76 958.15,-74.81 974.27,-73.08 988.18,-71.45"/>
<polygon fill="midnightblue" stroke="midnightblue" points="988.8,-74.9 998.32,-70.24 987.97,-67.95 988.8,-74.9"/>
</g>
<!-- Node30&#45;&gt;Node23 -->
<g id="edge34" class="edge">
<title>Node30&#45;&gt;Node23</title>
<path fill="none" stroke="midnightblue" d="M194.24,-117.98C203.28,-115.74 213.24,-113.52 222.5,-112 410,-81.23 460.4,-102.84 648.5,-76 753.16,-61.07 875.08,-33.68 934.39,-19.7"/>
<polygon fill="midnightblue" stroke="midnightblue" points="935.46,-23.05 944.38,-17.34 933.84,-16.24 935.46,-23.05"/>
</g>
<!-- Node30&#45;&gt;Node27 -->
<g id="edge42" class="edge">
<title>Node30&#45;&gt;Node27</title>
<path fill="none" stroke="midnightblue" d="M143.15,-117.83C117.83,-105.72 79.65,-82.23 94.5,-56 102.85,-41.26 118.16,-30.82 132.79,-23.73"/>
<polygon fill="midnightblue" stroke="midnightblue" points="134.5,-26.8 142.22,-19.55 131.66,-20.4 134.5,-26.8"/>
</g>
<!-- Node31 -->
<g id="node31" class="node">
<title>Node31</title>
<g id="a_node31"><a xlink:title=" ">
<polygon fill="none" stroke="#bfbfbf" points="104,-56.5 104,-75.5 157,-75.5 157,-56.5 104,-56.5"/>
<text text-anchor="middle" x="130.5" y="-63.5" font-family="Helvetica,sans-Serif" font-size="10.00">cstddef</text>
</a>
</g>
</g>
<!-- Node30&#45;&gt;Node31 -->
<g id="edge35" class="edge">
<title>Node30&#45;&gt;Node31</title>
<path fill="none" stroke="midnightblue" d="M158.77,-117.98C153.92,-109.23 146.23,-95.37 140.1,-84.31"/>
<polygon fill="midnightblue" stroke="midnightblue" points="143.13,-82.56 135.22,-75.51 137.01,-85.95 143.13,-82.56"/>
</g>
<!-- Node32 -->
<g id="node32" class="node">
<title>Node32</title>
<g id="a_node32"><a xlink:title=" ">
<polygon fill="none" stroke="#bfbfbf" points="884.5,-56.5 884.5,-75.5 934.5,-75.5 934.5,-56.5 884.5,-56.5"/>
<text text-anchor="middle" x="909.5" y="-63.5" font-family="Helvetica,sans-Serif" font-size="10.00">cstring</text>
</a>
</g>
</g>
<!-- Node30&#45;&gt;Node32 -->
<g id="edge36" class="edge">
<title>Node30&#45;&gt;Node32</title>
<path fill="none" stroke="midnightblue" d="M193.6,-117.97C202.81,-115.67 213.01,-113.42 222.5,-112 500.73,-70.25 574.84,-106.76 854.5,-76 860.94,-75.29 867.77,-74.34 874.35,-73.32"/>
<polygon fill="midnightblue" stroke="midnightblue" points="875.08,-76.74 884.39,-71.68 873.95,-69.84 875.08,-76.74"/>
</g>
<!-- Node33 -->
<g id="node33" class="node">
<title>Node33</title>
<g id="a_node33"><a xlink:title=" ">
<polygon fill="none" stroke="#bfbfbf" points="175.5,-56.5 175.5,-75.5 239.5,-75.5 239.5,-56.5 175.5,-56.5"/>
<text text-anchor="middle" x="207.5" y="-63.5" font-family="Helvetica,sans-Serif" font-size="10.00">algorithm</text>
</a>
</g>
</g>
<!-- Node30&#45;&gt;Node33 -->
<g id="edge37" class="edge">
<title>Node30&#45;&gt;Node33</title>
<path fill="none" stroke="midnightblue" d="M169.8,-117.98C176.4,-109.05 186.94,-94.81 195.19,-83.64"/>
<polygon fill="midnightblue" stroke="midnightblue" points="198.08,-85.63 201.21,-75.51 192.45,-81.47 198.08,-85.63"/>
</g>
<!-- Node34 -->
<g id="node34" class="node">
<title>Node34</title>
<g id="a_node34"><a xlink:title=" ">
<polygon fill="none" stroke="#bfbfbf" points="258,-56.5 258,-75.5 323,-75.5 323,-56.5 258,-56.5"/>
<text text-anchor="middle" x="290.5" y="-63.5" font-family="Helvetica,sans-Serif" font-size="10.00">functional</text>
</a>
</g>
</g>
<!-- Node30&#45;&gt;Node34 -->
<g id="edge38" class="edge">
<title>Node30&#45;&gt;Node34</title>
<path fill="none" stroke="midnightblue" d="M181.7,-117.98C203.01,-107.99 238.53,-91.35 263.16,-79.81"/>
<polygon fill="midnightblue" stroke="midnightblue" points="264.77,-82.92 272.34,-75.51 261.8,-76.58 264.77,-82.92"/>
</g>
<!-- Node35 -->
<g id="node35" class="node">
<title>Node35</title>
<g id="a_node35"><a xlink:title=" ">
<polygon fill="none" stroke="#bfbfbf" points="341,-56.5 341,-75.5 424,-75.5 424,-56.5 341,-56.5"/>
<text text-anchor="middle" x="382.5" y="-63.5" font-family="Helvetica,sans-Serif" font-size="10.00">initializer_list</text>
</a>
</g>
</g>
<!-- Node30&#45;&gt;Node35 -->
<g id="edge39" class="edge">
<title>Node30&#45;&gt;Node35</title>
<path fill="none" stroke="midnightblue" d="M194.88,-117.98C233.42,-107.5 298.91,-89.71 341.42,-78.16"/>
<polygon fill="midnightblue" stroke="midnightblue" points="342.45,-81.51 351.18,-75.51 340.61,-74.75 342.45,-81.51"/>
</g>
<!-- Node36 -->
<g id="node36" class="node">
<title>Node36</title>
<g id="a_node36"><a xlink:title=" ">
<polygon fill="none" stroke="#bfbfbf" points="442,-56.5 442,-75.5 495,-75.5 495,-56.5 442,-56.5"/>
<text text-anchor="middle" x="468.5" y="-63.5" font-family="Helvetica,sans-Serif" font-size="10.00">iterator</text>
</a>
</g>
</g>
<!-- Node30&#45;&gt;Node36 -->
<g id="edge40" class="edge">
<title>Node30&#45;&gt;Node36</title>
<path fill="none" stroke="midnightblue" d="M196.48,-117.95C204.94,-115.89 214.03,-113.76 222.5,-112 312.13,-93.33 338.12,-95.34 431.91,-75.98"/>
<polygon fill="midnightblue" stroke="midnightblue" points="432.74,-79.38 441.82,-73.91 431.31,-72.53 432.74,-79.38"/>
</g>
<!-- Node37&#45;&gt;Node23 -->
<g id="edge45" class="edge">
<title>Node37&#45;&gt;Node23</title>
<path fill="none" stroke="midnightblue" d="M976.05,-117.82C975.08,-99.26 972.8,-55.34 971.49,-29.97"/>
<polygon fill="midnightblue" stroke="midnightblue" points="974.97,-29.59 970.96,-19.78 967.98,-29.95 974.97,-29.59"/>
</g>
<!-- Node37&#45;&gt;Node32 -->
<g id="edge46" class="edge">
<title>Node37&#45;&gt;Node32</title>
<path fill="none" stroke="midnightblue" d="M966.9,-117.98C956.45,-108.7 939.53,-93.67 926.76,-82.33"/>
<polygon fill="midnightblue" stroke="midnightblue" points="928.88,-79.53 919.08,-75.51 924.23,-84.77 928.88,-79.53"/>
</g>
<!-- Node38&#45;&gt;Node3 -->
<g id="edge49" class="edge">
<title>Node38&#45;&gt;Node3</title>
<path fill="none" stroke="midnightblue" d="M573.82,-182.92C435.27,-171.3 107.31,-143.75 104.5,-143 102.56,-142.48 100.6,-141.85 98.65,-141.14"/>
<polygon fill="midnightblue" stroke="midnightblue" points="99.76,-137.81 89.18,-137.14 97.03,-144.26 99.76,-137.81"/>
</g>
<!-- Node38&#45;&gt;Node14 -->
<g id="edge50" class="edge">
<title>Node38&#45;&gt;Node14</title>
<path fill="none" stroke="midnightblue" d="M695.32,-183.44C771.77,-177.21 907.15,-164.47 1032.21,-143.09"/>
<polygon fill="midnightblue" stroke="midnightblue" points="1033.09,-146.49 1042.34,-141.34 1031.89,-139.59 1033.09,-146.49"/>
</g>
<!-- Node38&#45;&gt;Node15 -->
<g id="edge51" class="edge">
<title>Node38&#45;&gt;Node15</title>
<path fill="none" stroke="midnightblue" d="M647.97,-179.48C660.94,-171.27 681.01,-158.56 697.88,-147.88"/>
<polygon fill="midnightblue" stroke="midnightblue" points="699.77,-150.83 706.35,-142.52 696.02,-144.91 699.77,-150.83"/>
</g>
<!-- Node39 -->
<g id="node39" class="node">
<title>Node39</title>
<g id="a_node39"><a xlink:title=" ">
<polygon fill="none" stroke="#bfbfbf" points="611,-118 611,-137 658,-137 658,-118 611,-118"/>
<text text-anchor="middle" x="634.5" y="-125" font-family="Helvetica,sans-Serif" font-size="10.00">queue</text>
</a>
</g>
</g>
<!-- Node38&#45;&gt;Node39 -->
<g id="edge48" class="edge">
<title>Node38&#45;&gt;Node39</title>
<path fill="none" stroke="midnightblue" d="M634.5,-179.48C634.5,-171.08 634.5,-157.98 634.5,-147.16"/>
<polygon fill="midnightblue" stroke="midnightblue" points="638,-147.01 634.5,-137.01 631,-147.01 638,-147.01"/>
</g>
<!-- Node40 -->
<g id="node40" class="node">
<title>Node40</title>
<g id="a_node40"><a xlink:title=" ">
<polygon fill="none" stroke="#bfbfbf" points="349,-112.5 349,-142.5 462,-142.5 462,-112.5 349,-112.5"/>
<text text-anchor="start" x="357" y="-130.5" font-family="Helvetica,sans-Serif" font-size="10.00">absl/container/node</text>
<text text-anchor="middle" x="405.5" y="-119.5" font-family="Helvetica,sans-Serif" font-size="10.00">_hash_map.h</text>
</a>
</g>
</g>
<!-- Node38&#45;&gt;Node40 -->
<g id="edge52" class="edge">
<title>Node38&#45;&gt;Node40</title>
<path fill="none" stroke="midnightblue" d="M601.69,-179.48C567.27,-170.53 512.3,-156.25 469.29,-145.07"/>
<polygon fill="midnightblue" stroke="midnightblue" points="470.03,-141.65 459.47,-142.52 468.27,-148.43 470.03,-141.65"/>
</g>
<!-- Node41 -->
<g id="node41" class="node">
<title>Node41</title>
<g id="a_node41"><a xlink:title=" ">
<polygon fill="none" stroke="#bfbfbf" points="480,-112.5 480,-142.5 593,-142.5 593,-112.5 480,-112.5"/>
<text text-anchor="start" x="488" y="-130.5" font-family="Helvetica,sans-Serif" font-size="10.00">absl/container/node</text>
<text text-anchor="middle" x="536.5" y="-119.5" font-family="Helvetica,sans-Serif" font-size="10.00">_hash_set.h</text>
</a>
</g>
</g>
<!-- Node38&#45;&gt;Node41 -->
<g id="edge53" class="edge">
<title>Node38&#45;&gt;Node41</title>
<path fill="none" stroke="midnightblue" d="M620.46,-179.48C606.94,-171.27 586.01,-158.56 568.43,-147.88"/>
<polygon fill="midnightblue" stroke="midnightblue" points="569.96,-144.72 559.6,-142.52 566.33,-150.7 569.96,-144.72"/>
</g>
<!-- Node38&#45;&gt;Node42 -->
<g id="edge54" class="edge">
<title>Node38&#45;&gt;Node42</title>
<path fill="none" stroke="midnightblue" d="M573.76,-180.43C513.91,-172.56 420.01,-159.17 339.5,-143 334.16,-141.93 328.57,-140.68 323.05,-139.39"/>
<polygon fill="midnightblue" stroke="midnightblue" points="323.83,-135.97 313.29,-137.02 322.18,-142.78 323.83,-135.97"/>
</g>
<!-- Node42&#45;&gt;Node24 -->
<g id="edge55" class="edge">
<title>Node42&#45;&gt;Node24</title>
<path fill="none" stroke="midnightblue" d="M313.93,-117.99C322.24,-115.92 331.18,-113.79 339.5,-112 402.98,-98.34 476.17,-85.46 526.69,-77"/>
<polygon fill="midnightblue" stroke="midnightblue" points="527.51,-80.41 536.8,-75.32 526.36,-73.51 527.51,-80.41"/>
</g>
<!-- Node44&#45;&gt;Node5 -->
<g id="edge62" class="edge">
<title>Node44&#45;&gt;Node5</title>
<path fill="none" stroke="midnightblue" d="M1317.61,-235.44C1326.27,-226.9 1339.18,-213.05 1347.5,-199 1369.74,-161.46 1384.79,-112.09 1391.86,-85.65"/>
<polygon fill="midnightblue" stroke="midnightblue" points="1395.29,-86.37 1394.4,-75.82 1388.51,-84.62 1395.29,-86.37"/>
</g>
<!-- Node44&#45;&gt;Node13 -->
<g id="edge64" class="edge">
<title>Node44&#45;&gt;Node13</title>
<path fill="none" stroke="midnightblue" d="M1273.96,-235.44C1236.25,-226.1 1175.76,-211.12 1134.64,-200.93"/>
<polygon fill="midnightblue" stroke="midnightblue" points="1135.43,-197.52 1124.88,-198.52 1133.75,-204.32 1135.43,-197.52"/>
</g>
<!-- Node44&#45;&gt;Node18 -->
<g id="edge65" class="edge">
<title>Node44&#45;&gt;Node18</title>
<path fill="none" stroke="midnightblue" d="M1299.33,-235.4C1290.14,-226.6 1275.77,-212.37 1264.5,-199 1249.81,-181.56 1234.71,-160.18 1224.8,-145.57"/>
<polygon fill="midnightblue" stroke="midnightblue" points="1227.56,-143.4 1219.08,-137.05 1221.75,-147.3 1227.56,-143.4"/>
</g>
<!-- Node45 -->
<g id="node45" class="node">
<title>Node45</title>
<g id="a_node45"><a xlink:title=" ">
<polygon fill="none" stroke="#bfbfbf" points="1273,-179.5 1273,-198.5 1338,-198.5 1338,-179.5 1273,-179.5"/>
<text text-anchor="middle" x="1305.5" y="-186.5" font-family="Helvetica,sans-Serif" font-size="10.00">stdexcept</text>
</a>
</g>
</g>
<!-- Node44&#45;&gt;Node45 -->
<g id="edge63" class="edge">
<title>Node44&#45;&gt;Node45</title>
<path fill="none" stroke="midnightblue" d="M1308,-235.08C1307.61,-228.01 1307.05,-217.86 1306.55,-208.99"/>
<polygon fill="midnightblue" stroke="midnightblue" points="1310.04,-208.54 1305.99,-198.75 1303.05,-208.93 1310.04,-208.54"/>
</g>
<!-- Node46&#45;&gt;Node10 -->
<g id="edge67" class="edge">
<title>Node46&#45;&gt;Node10</title>
<path fill="none" stroke="midnightblue" d="M874.33,-291.08C874.2,-284.01 874.02,-273.86 873.85,-264.99"/>
<polygon fill="midnightblue" stroke="midnightblue" points="877.35,-264.68 873.66,-254.75 870.35,-264.81 877.35,-264.68"/>
</g>
<!-- Node47&#45;&gt;Node10 -->
<g id="edge69" class="edge">
<title>Node47&#45;&gt;Node10</title>
<path fill="none" stroke="midnightblue" d="M964.15,-291.32C946.83,-282.66 919.98,-269.24 900,-259.25"/>
<polygon fill="midnightblue" stroke="midnightblue" points="901.32,-256 890.81,-254.65 898.19,-262.26 901.32,-256"/>
</g>
</g>
</svg>
