<?xml version="1.0" encoding="UTF-8" standalone="no"?>
<!DOCTYPE svg PUBLIC "-//W3C//DTD SVG 1.1//EN"
 "http://www.w3.org/Graphics/SVG/1.1/DTD/svg11.dtd">
<!-- Generated by graphviz version 2.43.0 (0)
 -->
<!-- Title: thorin/fe/ast.cpp Pages: 1 -->
<svg width="2026pt" height="489pt"
 viewBox="0.00 0.00 2025.93 489.00" xmlns="http://www.w3.org/2000/svg" xmlns:xlink="http://www.w3.org/1999/xlink">
<g id="graph0" class="graph" transform="scale(1 1) rotate(0) translate(4 485)">
<title>thorin/fe/ast.cpp</title>
<!-- Node1 -->
<g id="node1" class="node">
<title>Node1</title>
<g id="a_node1"><a xlink:title=" ">
<polygon fill="#999999" stroke="#666666" points="352.5,-481 256.5,-481 256.5,-462 352.5,-462 352.5,-481"/>
<text text-anchor="middle" x="304.5" y="-469" font-family="Helvetica,sans-Serif" font-size="10.00">thorin/fe/ast.cpp</text>
</a>
</g>
</g>
<!-- Node2 -->
<g id="node2" class="node">
<title>Node2</title>
<g id="a_node2"><a xlink:href="ast_8h.html" target="_top" xlink:title=" ">
<polygon fill="white" stroke="#666666" points="85,-310.5 0,-310.5 0,-291.5 85,-291.5 85,-310.5"/>
<text text-anchor="middle" x="42.5" y="-298.5" font-family="Helvetica,sans-Serif" font-size="10.00">thorin/fe/ast.h</text>
</a>
</g>
</g>
<!-- Node1&#45;&gt;Node2 -->
<g id="edge1" class="edge">
<title>Node1&#45;&gt;Node2</title>
<path fill="none" stroke="#63b8ff" d="M291.15,-461.91C248.75,-434.64 116.89,-349.84 64.39,-316.08"/>
<polygon fill="#63b8ff" stroke="#63b8ff" points="66.13,-313.04 55.83,-310.57 62.34,-318.92 66.13,-313.04"/>
</g>
<!-- Node5 -->
<g id="node5" class="node">
<title>Node5</title>
<g id="a_node5"><a xlink:href="def_8h.html" target="_top" xlink:title=" ">
<polygon fill="white" stroke="#666666" points="854.5,-250 782.5,-250 782.5,-231 854.5,-231 854.5,-250"/>
<text text-anchor="middle" x="818.5" y="-238" font-family="Helvetica,sans-Serif" font-size="10.00">thorin/def.h</text>
</a>
</g>
</g>
<!-- Node1&#45;&gt;Node5 -->
<g id="edge54" class="edge">
<title>Node1&#45;&gt;Node5</title>
<path fill="none" stroke="#63b8ff" d="M305.93,-461.62C311.37,-431.11 333.76,-330.04 397.5,-286 457.3,-244.68 676.01,-240.65 772.38,-240.95"/>
<polygon fill="#63b8ff" stroke="#63b8ff" points="772.39,-244.45 782.41,-241 772.43,-237.45 772.39,-244.45"/>
</g>
<!-- Node44 -->
<g id="node36" class="node">
<title>Node44</title>
<g id="a_node36"><a xlink:href="check_8h.html" target="_top" xlink:title=" ">
<polygon fill="white" stroke="#666666" points="311.5,-310.5 225.5,-310.5 225.5,-291.5 311.5,-291.5 311.5,-310.5"/>
<text text-anchor="middle" x="268.5" y="-298.5" font-family="Helvetica,sans-Serif" font-size="10.00">thorin/check.h</text>
</a>
</g>
</g>
<!-- Node1&#45;&gt;Node44 -->
<g id="edge51" class="edge">
<title>Node1&#45;&gt;Node44</title>
<path fill="none" stroke="#63b8ff" d="M302.67,-461.91C297.11,-435.89 280.35,-357.47 272.56,-321.01"/>
<polygon fill="#63b8ff" stroke="#63b8ff" points="275.89,-319.82 270.37,-310.77 269.04,-321.28 275.89,-319.82"/>
</g>
<!-- Node45 -->
<g id="node37" class="node">
<title>Node45</title>
<g id="a_node37"><a xlink:href="rewrite_8h.html" target="_top" xlink:title=" ">
<polygon fill="white" stroke="#666666" points="936.5,-426 844.5,-426 844.5,-407 936.5,-407 936.5,-426"/>
<text text-anchor="middle" x="890.5" y="-414" font-family="Helvetica,sans-Serif" font-size="10.00">thorin/rewrite.h</text>
</a>
</g>
</g>
<!-- Node1&#45;&gt;Node45 -->
<g id="edge55" class="edge">
<title>Node1&#45;&gt;Node45</title>
<path fill="none" stroke="#63b8ff" d="M352.7,-466.14C460.34,-456.41 719.75,-432.94 834.4,-422.57"/>
<polygon fill="#63b8ff" stroke="#63b8ff" points="834.74,-426.06 844.38,-421.67 834.11,-419.09 834.74,-426.06"/>
</g>
<!-- Node46 -->
<g id="node38" class="node">
<title>Node46</title>
<g id="a_node38"><a xlink:href="world_8h.html" target="_top" xlink:title=" ">
<polygon fill="white" stroke="#666666" points="932.5,-371 848.5,-371 848.5,-352 932.5,-352 932.5,-371"/>
<text text-anchor="middle" x="890.5" y="-359" font-family="Helvetica,sans-Serif" font-size="10.00">thorin/world.h</text>
</a>
</g>
</g>
<!-- Node1&#45;&gt;Node46 -->
<g id="edge84" class="edge">
<title>Node1&#45;&gt;Node46</title>
<path fill="none" stroke="#63b8ff" d="M350.97,-461.94C458.73,-442.07 725.06,-392.99 838.25,-372.13"/>
<polygon fill="#63b8ff" stroke="#63b8ff" points="839.2,-375.51 848.4,-370.26 837.93,-368.63 839.2,-375.51"/>
</g>
<!-- Node61 -->
<g id="node50" class="node">
<title>Node61</title>
<g id="a_node50"><a xlink:href="scopes_8h.html" target="_top" xlink:title=" ">
<polygon fill="white" stroke="#666666" points="207.5,-310.5 103.5,-310.5 103.5,-291.5 207.5,-291.5 207.5,-310.5"/>
<text text-anchor="middle" x="155.5" y="-298.5" font-family="Helvetica,sans-Serif" font-size="10.00">thorin/fe/scopes.h</text>
</a>
</g>
</g>
<!-- Node1&#45;&gt;Node61 -->
<g id="edge85" class="edge">
<title>Node1&#45;&gt;Node61</title>
<path fill="none" stroke="#63b8ff" d="M296.91,-461.91C273.4,-435.33 201.53,-354.05 170.27,-318.71"/>
<polygon fill="#63b8ff" stroke="#63b8ff" points="172.5,-315.95 163.26,-310.77 167.26,-320.58 172.5,-315.95"/>
</g>
<!-- Node3 -->
<g id="node3" class="node">
<title>Node3</title>
<g id="a_node3"><a xlink:title=" ">
<polygon fill="#e0e0e0" stroke="#999999" points="179,-250 132,-250 132,-231 179,-231 179,-250"/>
<text text-anchor="middle" x="155.5" y="-238" font-family="Helvetica,sans-Serif" font-size="10.00">deque</text>
</a>
</g>
</g>
<!-- Node2&#45;&gt;Node3 -->
<g id="edge2" class="edge">
<title>Node2&#45;&gt;Node3</title>
<path fill="none" stroke="#63b8ff" d="M59.17,-291.37C77.78,-281.73 108.12,-266.03 129.78,-254.81"/>
<polygon fill="#63b8ff" stroke="#63b8ff" points="131.49,-257.87 138.76,-250.17 128.27,-251.66 131.49,-257.87"/>
</g>
<!-- Node4 -->
<g id="node4" class="node">
<title>Node4</title>
<g id="a_node4"><a xlink:title=" ">
<polygon fill="#e0e0e0" stroke="#999999" points="71.5,-250 13.5,-250 13.5,-231 71.5,-231 71.5,-250"/>
<text text-anchor="middle" x="42.5" y="-238" font-family="Helvetica,sans-Serif" font-size="10.00">memory</text>
</a>
</g>
</g>
<!-- Node2&#45;&gt;Node4 -->
<g id="edge3" class="edge">
<title>Node2&#45;&gt;Node4</title>
<path fill="none" stroke="#63b8ff" d="M42.5,-291.37C42.5,-283.25 42.5,-270.81 42.5,-260.39"/>
<polygon fill="#63b8ff" stroke="#63b8ff" points="46,-260.17 42.5,-250.17 39,-260.17 46,-260.17"/>
</g>
<!-- Node2&#45;&gt;Node5 -->
<g id="edge4" class="edge">
<title>Node2&#45;&gt;Node5</title>
<path fill="none" stroke="#63b8ff" d="M70.07,-291.47C77.9,-289.35 86.47,-287.31 94.5,-286 347.89,-244.54 656.89,-240.89 772.21,-241.13"/>
<polygon fill="#63b8ff" stroke="#63b8ff" points="772.42,-244.63 782.43,-241.16 772.44,-237.63 772.42,-244.63"/>
</g>
<!-- Node43 -->
<g id="node35" class="node">
<title>Node43</title>
<g id="a_node35"><a xlink:href="tok_8h.html" target="_top" xlink:title=" ">
<polygon fill="white" stroke="#666666" points="421.5,-250 335.5,-250 335.5,-231 421.5,-231 421.5,-250"/>
<text text-anchor="middle" x="378.5" y="-238" font-family="Helvetica,sans-Serif" font-size="10.00">thorin/fe/tok.h</text>
</a>
</g>
</g>
<!-- Node2&#45;&gt;Node43 -->
<g id="edge47" class="edge">
<title>Node2&#45;&gt;Node43</title>
<path fill="none" stroke="#63b8ff" d="M72.07,-291.45C79.36,-289.5 87.18,-287.55 94.5,-286 174.24,-269.07 267.84,-255.63 325.15,-248.12"/>
<polygon fill="#63b8ff" stroke="#63b8ff" points="325.95,-251.54 335.42,-246.78 325.05,-244.6 325.95,-251.54"/>
</g>
<!-- Node6 -->
<g id="node6" class="node">
<title>Node6</title>
<g id="a_node6"><a xlink:title=" ">
<polygon fill="#e0e0e0" stroke="#999999" points="1061.5,-134.5 1005.5,-134.5 1005.5,-115.5 1061.5,-115.5 1061.5,-134.5"/>
<text text-anchor="middle" x="1033.5" y="-122.5" font-family="Helvetica,sans-Serif" font-size="10.00">optional</text>
</a>
</g>
</g>
<!-- Node5&#45;&gt;Node6 -->
<g id="edge5" class="edge">
<title>Node5&#45;&gt;Node6</title>
<path fill="none" stroke="#63b8ff" d="M854.79,-238.52C893.11,-235.75 953.54,-226.27 994.5,-195 1011.21,-182.25 1021.86,-160.15 1027.74,-144.39"/>
<polygon fill="#63b8ff" stroke="#63b8ff" points="1031.13,-145.29 1031.06,-134.7 1024.51,-143.02 1031.13,-145.29"/>
</g>
<!-- Node7 -->
<g id="node7" class="node">
<title>Node7</title>
<g id="a_node7"><a xlink:title=" ">
<polygon fill="#e0e0e0" stroke="#999999" points="1988,-74 1941,-74 1941,-55 1988,-55 1988,-74"/>
<text text-anchor="middle" x="1964.5" y="-62" font-family="Helvetica,sans-Serif" font-size="10.00">vector</text>
</a>
</g>
</g>
<!-- Node5&#45;&gt;Node7 -->
<g id="edge6" class="edge">
<title>Node5&#45;&gt;Node7</title>
<path fill="none" stroke="#63b8ff" d="M854.88,-236.43C916.56,-230.83 1045.43,-217.42 1152.5,-195 1182.38,-188.75 1188.45,-181.38 1218.5,-176 1431.7,-137.84 1491.27,-178.03 1704.5,-140 1787.58,-125.18 1882.15,-94.45 1931.13,-77.46"/>
<polygon fill="#63b8ff" stroke="#63b8ff" points="1932.59,-80.65 1940.87,-74.05 1930.27,-74.05 1932.59,-80.65"/>
</g>
<!-- Node8 -->
<g id="node8" class="node">
<title>Node8</title>
<g id="a_node8"><a xlink:title=" ">
<polygon fill="#e0e0e0" stroke="#999999" points="455.5,-74 387.5,-74 387.5,-55 455.5,-55 455.5,-74"/>
<text text-anchor="middle" x="421.5" y="-62" font-family="Helvetica,sans-Serif" font-size="10.00">fe/assert.h</text>
</a>
</g>
</g>
<!-- Node5&#45;&gt;Node8 -->
<g id="edge7" class="edge">
<title>Node5&#45;&gt;Node8</title>
<path fill="none" stroke="#63b8ff" d="M782.23,-236.91C710.74,-231.38 554.3,-217.12 505.5,-195 471.34,-179.52 461.47,-171.74 441.5,-140 430.83,-123.03 425.8,-100.44 423.46,-84.6"/>
<polygon fill="#63b8ff" stroke="#63b8ff" points="426.9,-83.93 422.19,-74.44 419.96,-84.79 426.9,-83.93"/>
</g>
<!-- Node9 -->
<g id="node9" class="node">
<title>Node9</title>
<g id="a_node9"><a xlink:title=" ">
<polygon fill="#e0e0e0" stroke="#999999" points="848,-195 789,-195 789,-176 848,-176 848,-195"/>
<text text-anchor="middle" x="818.5" y="-183" font-family="Helvetica,sans-Serif" font-size="10.00">fe/cast.h</text>
</a>
</g>
</g>
<!-- Node5&#45;&gt;Node9 -->
<g id="edge8" class="edge">
<title>Node5&#45;&gt;Node9</title>
<path fill="none" stroke="#63b8ff" d="M818.5,-230.75C818.5,-223.8 818.5,-213.85 818.5,-205.13"/>
<polygon fill="#63b8ff" stroke="#63b8ff" points="822,-205.09 818.5,-195.09 815,-205.09 822,-205.09"/>
</g>
<!-- Node10 -->
<g id="node10" class="node">
<title>Node10</title>
<g id="a_node10"><a xlink:href="config_8h.html" target="_top" xlink:title=" ">
<polygon fill="white" stroke="#666666" points="1313.5,-195 1227.5,-195 1227.5,-176 1313.5,-176 1313.5,-195"/>
<text text-anchor="middle" x="1270.5" y="-183" font-family="Helvetica,sans-Serif" font-size="10.00">thorin/config.h</text>
</a>
</g>
</g>
<!-- Node5&#45;&gt;Node10 -->
<g id="edge9" class="edge">
<title>Node5&#45;&gt;Node10</title>
<path fill="none" stroke="#63b8ff" d="M854.77,-235.85C924.4,-228.76 1081.61,-212.26 1213.5,-195 1214.76,-194.84 1216.03,-194.67 1217.31,-194.49"/>
<polygon fill="#63b8ff" stroke="#63b8ff" points="1217.84,-197.95 1227.26,-193.11 1216.88,-191.02 1217.84,-197.95"/>
</g>
<!-- Node11 -->
<g id="node11" class="node">
<title>Node11</title>
<g id="a_node11"><a xlink:href="array_8h.html" target="_top" xlink:title=" ">
<polygon fill="white" stroke="#666666" points="1695.5,-134.5 1595.5,-134.5 1595.5,-115.5 1695.5,-115.5 1695.5,-134.5"/>
<text text-anchor="middle" x="1645.5" y="-122.5" font-family="Helvetica,sans-Serif" font-size="10.00">thorin/util/array.h</text>
</a>
</g>
</g>
<!-- Node5&#45;&gt;Node11 -->
<g id="edge10" class="edge">
<title>Node5&#45;&gt;Node11</title>
<path fill="none" stroke="#63b8ff" d="M854.79,-234.03C907.16,-226.04 1006.94,-210.43 1091.5,-195 1133.43,-187.35 1143.38,-182.53 1185.5,-176 1328.1,-153.89 1497.07,-138.19 1585.19,-130.79"/>
<polygon fill="#63b8ff" stroke="#63b8ff" points="1585.6,-134.27 1595.27,-129.95 1585.02,-127.29 1585.6,-134.27"/>
</g>
<!-- Node21 -->
<g id="node21" class="node">
<title>Node21</title>
<g id="a_node21"><a xlink:href="dbg_8h.html" target="_top" xlink:title=" ">
<polygon fill="white" stroke="#666666" points="608.5,-195 514.5,-195 514.5,-176 608.5,-176 608.5,-195"/>
<text text-anchor="middle" x="561.5" y="-183" font-family="Helvetica,sans-Serif" font-size="10.00">thorin/util/dbg.h</text>
</a>
</g>
</g>
<!-- Node5&#45;&gt;Node21 -->
<g id="edge21" class="edge">
<title>Node5&#45;&gt;Node21</title>
<path fill="none" stroke="#63b8ff" d="M782.49,-232.07C738.29,-222.96 663.03,-207.44 612.79,-197.08"/>
<polygon fill="#63b8ff" stroke="#63b8ff" points="613.29,-193.61 602.79,-195.01 611.87,-200.46 613.29,-193.61"/>
</g>
<!-- Node27 -->
<g id="node27" class="node">
<title>Node27</title>
<g id="a_node27"><a xlink:href="print_8h.html" target="_top" xlink:title=" ">
<polygon fill="white" stroke="#666666" points="1295.5,-134.5 1197.5,-134.5 1197.5,-115.5 1295.5,-115.5 1295.5,-134.5"/>
<text text-anchor="middle" x="1246.5" y="-122.5" font-family="Helvetica,sans-Serif" font-size="10.00">thorin/util/print.h</text>
</a>
</g>
</g>
<!-- Node5&#45;&gt;Node27 -->
<g id="edge39" class="edge">
<title>Node5&#45;&gt;Node27</title>
<path fill="none" stroke="#63b8ff" d="M854.56,-234.12C899.98,-226.97 980.23,-213.1 1047.5,-195 1107.95,-178.73 1176.55,-153.36 1215.36,-138.34"/>
<polygon fill="#63b8ff" stroke="#63b8ff" points="1216.98,-141.47 1225.02,-134.58 1214.44,-134.95 1216.98,-141.47"/>
</g>
<!-- Node32 -->
<g id="node32" class="node">
<title>Node32</title>
<g id="a_node32"><a xlink:href="hash_8h.html" target="_top" xlink:title=" ">
<polygon fill="white" stroke="#666666" points="1179,-134.5 1080,-134.5 1080,-115.5 1179,-115.5 1179,-134.5"/>
<text text-anchor="middle" x="1129.5" y="-122.5" font-family="Helvetica,sans-Serif" font-size="10.00">thorin/util/hash.h</text>
</a>
</g>
</g>
<!-- Node5&#45;&gt;Node32 -->
<g id="edge35" class="edge">
<title>Node5&#45;&gt;Node32</title>
<path fill="none" stroke="#63b8ff" d="M854.61,-235C895.13,-229.14 962.29,-216.95 1016.5,-195 1051.55,-180.81 1088.21,-156.37 1109.94,-140.71"/>
<polygon fill="#63b8ff" stroke="#63b8ff" points="1112.3,-143.32 1118.3,-134.59 1108.16,-137.67 1112.3,-143.32"/>
</g>
<!-- Node38 -->
<g id="node34" class="node">
<title>Node38</title>
<g id="a_node34"><a xlink:href="util_8h.html" target="_top" xlink:title=" ">
<polygon fill="#fff0f0" stroke="red" points="985.5,-195 893.5,-195 893.5,-176 985.5,-176 985.5,-195"/>
<text text-anchor="middle" x="939.5" y="-183" font-family="Helvetica,sans-Serif" font-size="10.00">thorin/util/util.h</text>
</a>
</g>
</g>
<!-- Node5&#45;&gt;Node38 -->
<g id="edge40" class="edge">
<title>Node5&#45;&gt;Node38</title>
<path fill="none" stroke="#63b8ff" d="M837.94,-230.98C857.49,-222.42 887.88,-209.11 910.32,-199.28"/>
<polygon fill="#63b8ff" stroke="#63b8ff" points="911.95,-202.39 919.71,-195.17 909.14,-195.98 911.95,-202.39"/>
</g>
<!-- Node11&#45;&gt;Node7 -->
<g id="edge20" class="edge">
<title>Node11&#45;&gt;Node7</title>
<path fill="none" stroke="#63b8ff" d="M1682.99,-115.43C1691.68,-113.55 1700.9,-111.63 1709.5,-110 1804.95,-91.87 1832.55,-94.7 1930.75,-74.2"/>
<polygon fill="#63b8ff" stroke="#63b8ff" points="1931.74,-77.57 1940.8,-72.08 1930.29,-70.72 1931.74,-77.57"/>
</g>
<!-- Node12 -->
<g id="node12" class="node">
<title>Node12</title>
<g id="a_node12"><a xlink:title=" ">
<polygon fill="#e0e0e0" stroke="#999999" points="1599.5,-74 1547.5,-74 1547.5,-55 1599.5,-55 1599.5,-74"/>
<text text-anchor="middle" x="1573.5" y="-62" font-family="Helvetica,sans-Serif" font-size="10.00">cassert</text>
</a>
</g>
</g>
<!-- Node11&#45;&gt;Node12 -->
<g id="edge11" class="edge">
<title>Node11&#45;&gt;Node12</title>
<path fill="none" stroke="#63b8ff" d="M1634.88,-115.37C1623.6,-106.21 1605.58,-91.56 1591.97,-80.51"/>
<polygon fill="#63b8ff" stroke="#63b8ff" points="1594.14,-77.76 1584.17,-74.17 1589.72,-83.19 1594.14,-77.76"/>
</g>
<!-- Node13 -->
<g id="node13" class="node">
<title>Node13</title>
<g id="a_node13"><a xlink:title=" ">
<polygon fill="#e0e0e0" stroke="#999999" points="1671,-74 1618,-74 1618,-55 1671,-55 1671,-74"/>
<text text-anchor="middle" x="1644.5" y="-62" font-family="Helvetica,sans-Serif" font-size="10.00">cstddef</text>
</a>
</g>
</g>
<!-- Node11&#45;&gt;Node13 -->
<g id="edge12" class="edge">
<title>Node11&#45;&gt;Node13</title>
<path fill="none" stroke="#63b8ff" d="M1645.35,-115.37C1645.21,-107.25 1645,-94.81 1644.82,-84.39"/>
<polygon fill="#63b8ff" stroke="#63b8ff" points="1648.32,-84.11 1644.65,-74.17 1641.32,-84.23 1648.32,-84.11"/>
</g>
<!-- Node14 -->
<g id="node14" class="node">
<title>Node14</title>
<g id="a_node14"><a xlink:title=" ">
<polygon fill="#e0e0e0" stroke="#999999" points="1739.5,-74 1689.5,-74 1689.5,-55 1739.5,-55 1739.5,-74"/>
<text text-anchor="middle" x="1714.5" y="-62" font-family="Helvetica,sans-Serif" font-size="10.00">cstring</text>
</a>
</g>
</g>
<!-- Node11&#45;&gt;Node14 -->
<g id="edge13" class="edge">
<title>Node11&#45;&gt;Node14</title>
<path fill="none" stroke="#63b8ff" d="M1655.68,-115.37C1666.38,-106.3 1683.44,-91.84 1696.43,-80.82"/>
<polygon fill="#63b8ff" stroke="#63b8ff" points="1698.91,-83.3 1704.28,-74.17 1694.39,-77.96 1698.91,-83.3"/>
</g>
<!-- Node15 -->
<g id="node15" class="node">
<title>Node15</title>
<g id="a_node15"><a xlink:title=" ">
<polygon fill="#e0e0e0" stroke="#999999" points="1821.5,-74 1757.5,-74 1757.5,-55 1821.5,-55 1821.5,-74"/>
<text text-anchor="middle" x="1789.5" y="-62" font-family="Helvetica,sans-Serif" font-size="10.00">algorithm</text>
</a>
</g>
</g>
<!-- Node11&#45;&gt;Node15 -->
<g id="edge14" class="edge">
<title>Node11&#45;&gt;Node15</title>
<path fill="none" stroke="#63b8ff" d="M1666.44,-115.49C1690.86,-105.57 1731.43,-89.09 1759.27,-77.78"/>
<polygon fill="#63b8ff" stroke="#63b8ff" points="1760.59,-81.02 1768.54,-74.02 1757.95,-74.54 1760.59,-81.02"/>
</g>
<!-- Node16 -->
<g id="node16" class="node">
<title>Node16</title>
<g id="a_node16"><a xlink:title=" ">
<polygon fill="#e0e0e0" stroke="#999999" points="1420,-74 1355,-74 1355,-55 1420,-55 1420,-74"/>
<text text-anchor="middle" x="1387.5" y="-62" font-family="Helvetica,sans-Serif" font-size="10.00">functional</text>
</a>
</g>
</g>
<!-- Node11&#45;&gt;Node16 -->
<g id="edge15" class="edge">
<title>Node11&#45;&gt;Node16</title>
<path fill="none" stroke="#63b8ff" d="M1607.98,-115.49C1560.65,-104.76 1479.47,-86.35 1429.93,-75.12"/>
<polygon fill="#63b8ff" stroke="#63b8ff" points="1430.68,-71.7 1420.16,-72.9 1429.14,-78.53 1430.68,-71.7"/>
</g>
<!-- Node17 -->
<g id="node17" class="node">
<title>Node17</title>
<g id="a_node17"><a xlink:title=" ">
<polygon fill="#e0e0e0" stroke="#999999" points="1923,-74 1840,-74 1840,-55 1923,-55 1923,-74"/>
<text text-anchor="middle" x="1881.5" y="-62" font-family="Helvetica,sans-Serif" font-size="10.00">initializer_list</text>
</a>
</g>
</g>
<!-- Node11&#45;&gt;Node17 -->
<g id="edge16" class="edge">
<title>Node11&#45;&gt;Node17</title>
<path fill="none" stroke="#63b8ff" d="M1679.82,-115.49C1721.41,-105.18 1791.6,-87.78 1837.23,-76.47"/>
<polygon fill="#63b8ff" stroke="#63b8ff" points="1838.28,-79.82 1847.14,-74.02 1836.59,-73.03 1838.28,-79.82"/>
</g>
<!-- Node18 -->
<g id="node18" class="node">
<title>Node18</title>
<g id="a_node18"><a xlink:title=" ">
<polygon fill="#e0e0e0" stroke="#999999" points="1491,-74 1438,-74 1438,-55 1491,-55 1491,-74"/>
<text text-anchor="middle" x="1464.5" y="-62" font-family="Helvetica,sans-Serif" font-size="10.00">iterator</text>
</a>
</g>
</g>
<!-- Node11&#45;&gt;Node18 -->
<g id="edge17" class="edge">
<title>Node11&#45;&gt;Node18</title>
<path fill="none" stroke="#63b8ff" d="M1619.18,-115.49C1587.95,-105.4 1535.7,-88.51 1500.68,-77.19"/>
<polygon fill="#63b8ff" stroke="#63b8ff" points="1501.44,-73.76 1490.85,-74.02 1499.29,-80.42 1501.44,-73.76"/>
</g>
<!-- Node19 -->
<g id="node19" class="node">
<title>Node19</title>
<g id="a_node19"><a xlink:title=" ">
<polygon fill="#e0e0e0" stroke="#999999" points="1336.5,-74 1286.5,-74 1286.5,-55 1336.5,-55 1336.5,-74"/>
<text text-anchor="middle" x="1311.5" y="-62" font-family="Helvetica,sans-Serif" font-size="10.00">ranges</text>
</a>
</g>
</g>
<!-- Node11&#45;&gt;Node19 -->
<g id="edge18" class="edge">
<title>Node11&#45;&gt;Node19</title>
<path fill="none" stroke="#63b8ff" d="M1608.35,-115.46C1599.57,-113.55 1590.22,-111.62 1581.5,-110 1477.61,-90.7 1450.16,-94.49 1346.5,-74 1346.4,-73.98 1346.3,-73.96 1346.2,-73.94"/>
<polygon fill="#63b8ff" stroke="#63b8ff" points="1347.19,-70.57 1336.68,-71.89 1345.72,-77.42 1347.19,-70.57"/>
</g>
<!-- Node20 -->
<g id="node20" class="node">
<title>Node20</title>
<g id="a_node20"><a xlink:title=" ">
<polygon fill="#e0e0e0" stroke="#999999" points="1283,-19 1214,-19 1214,0 1283,0 1283,-19"/>
<text text-anchor="middle" x="1248.5" y="-7" font-family="Helvetica,sans-Serif" font-size="10.00">type_traits</text>
</a>
</g>
</g>
<!-- Node11&#45;&gt;Node20 -->
<g id="edge19" class="edge">
<title>Node11&#45;&gt;Node20</title>
<path fill="none" stroke="#63b8ff" d="M1626.87,-115.48C1605.47,-105.64 1569.33,-88.91 1538.5,-74 1521.5,-65.78 1518.43,-60.93 1500.5,-55 1430.06,-31.72 1344.28,-19.87 1293.16,-14.45"/>
<polygon fill="#63b8ff" stroke="#63b8ff" points="1293.41,-10.96 1283.1,-13.42 1292.69,-17.92 1293.41,-10.96"/>
</g>
<!-- Node22 -->
<g id="node22" class="node">
<title>Node22</title>
<g id="a_node22"><a xlink:title=" ">
<polygon fill="#e0e0e0" stroke="#999999" points="595.5,-134.5 527.5,-134.5 527.5,-115.5 595.5,-115.5 595.5,-134.5"/>
<text text-anchor="middle" x="561.5" y="-122.5" font-family="Helvetica,sans-Serif" font-size="10.00">filesystem</text>
</a>
</g>
</g>
<!-- Node21&#45;&gt;Node22 -->
<g id="edge22" class="edge">
<title>Node21&#45;&gt;Node22</title>
<path fill="none" stroke="#63b8ff" d="M561.5,-175.87C561.5,-167.75 561.5,-155.31 561.5,-144.89"/>
<polygon fill="#63b8ff" stroke="#63b8ff" points="565,-144.67 561.5,-134.67 558,-144.67 565,-144.67"/>
</g>
<!-- Node23 -->
<g id="node23" class="node">
<title>Node23</title>
<g id="a_node23"><a xlink:title=" ">
<polygon fill="#e0e0e0" stroke="#999999" points="667,-134.5 614,-134.5 614,-115.5 667,-115.5 667,-134.5"/>
<text text-anchor="middle" x="640.5" y="-122.5" font-family="Helvetica,sans-Serif" font-size="10.00">fe/loc.h</text>
</a>
</g>
</g>
<!-- Node21&#45;&gt;Node23 -->
<g id="edge23" class="edge">
<title>Node21&#45;&gt;Node23</title>
<path fill="none" stroke="#63b8ff" d="M573.16,-175.87C585.64,-166.62 605.68,-151.78 620.66,-140.69"/>
<polygon fill="#63b8ff" stroke="#63b8ff" points="622.84,-143.43 628.8,-134.67 618.68,-137.81 622.84,-143.43"/>
</g>
<!-- Node24 -->
<g id="node24" class="node">
<title>Node24</title>
<g id="a_node24"><a xlink:title=" ">
<polygon fill="#e0e0e0" stroke="#999999" points="509,-134.5 450,-134.5 450,-115.5 509,-115.5 509,-134.5"/>
<text text-anchor="middle" x="479.5" y="-122.5" font-family="Helvetica,sans-Serif" font-size="10.00">fe/sym.h</text>
</a>
</g>
</g>
<!-- Node21&#45;&gt;Node24 -->
<g id="edge24" class="edge">
<title>Node21&#45;&gt;Node24</title>
<path fill="none" stroke="#63b8ff" d="M549.4,-175.87C536.44,-166.62 515.64,-151.78 500.1,-140.69"/>
<polygon fill="#63b8ff" stroke="#63b8ff" points="501.82,-137.63 491.65,-134.67 497.76,-143.32 501.82,-137.63"/>
</g>
<!-- Node25 -->
<g id="node25" class="node">
<title>Node25</title>
<g id="a_node25"><a xlink:title=" ">
<polygon fill="#e0e0e0" stroke="#999999" points="911.5,-140 807.5,-140 807.5,-110 911.5,-110 911.5,-140"/>
<text text-anchor="start" x="815.5" y="-128" font-family="Helvetica,sans-Serif" font-size="10.00">absl/container/flat</text>
<text text-anchor="middle" x="859.5" y="-117" font-family="Helvetica,sans-Serif" font-size="10.00">_hash_map.h</text>
</a>
</g>
</g>
<!-- Node21&#45;&gt;Node25 -->
<g id="edge25" class="edge">
<title>Node21&#45;&gt;Node25</title>
<path fill="none" stroke="#63b8ff" d="M608.82,-176.19C654.59,-168.02 726.14,-154.92 797.26,-140.21"/>
<polygon fill="#63b8ff" stroke="#63b8ff" points="798.21,-143.59 807.29,-138.13 796.78,-136.74 798.21,-143.59"/>
</g>
<!-- Node26 -->
<g id="node26" class="node">
<title>Node26</title>
<g id="a_node26"><a xlink:title=" ">
<polygon fill="#e0e0e0" stroke="#999999" points="789.5,-140 685.5,-140 685.5,-110 789.5,-110 789.5,-140"/>
<text text-anchor="start" x="693.5" y="-128" font-family="Helvetica,sans-Serif" font-size="10.00">absl/container/flat</text>
<text text-anchor="middle" x="737.5" y="-117" font-family="Helvetica,sans-Serif" font-size="10.00">_hash_set.h</text>
</a>
</g>
</g>
<!-- Node21&#45;&gt;Node26 -->
<g id="edge26" class="edge">
<title>Node21&#45;&gt;Node26</title>
<path fill="none" stroke="#63b8ff" d="M587.09,-175.99C612.75,-167.46 653,-154.09 685.41,-143.32"/>
<polygon fill="#63b8ff" stroke="#63b8ff" points="686.8,-146.54 695.19,-140.06 684.59,-139.9 686.8,-146.54"/>
</g>
<!-- Node21&#45;&gt;Node27 -->
<g id="edge27" class="edge">
<title>Node21&#45;&gt;Node27</title>
<path fill="none" stroke="#63b8ff" d="M608.89,-182.16C735,-175.77 1076.75,-157.33 1188.5,-140 1194,-139.15 1199.75,-138.03 1205.4,-136.81"/>
<polygon fill="#63b8ff" stroke="#63b8ff" points="1206.42,-140.17 1215.38,-134.52 1204.86,-133.34 1206.42,-140.17"/>
</g>
<!-- Node27&#45;&gt;Node8 -->
<g id="edge34" class="edge">
<title>Node27&#45;&gt;Node8</title>
<path fill="none" stroke="#63b8ff" d="M1215.7,-115.48C1206.97,-113.36 1197.41,-111.32 1188.5,-110 1047.56,-89.07 607.63,-72.08 465.95,-67.03"/>
<polygon fill="#63b8ff" stroke="#63b8ff" points="466,-63.53 455.88,-66.68 465.75,-70.53 466,-63.53"/>
</g>
<!-- Node27&#45;&gt;Node16 -->
<g id="edge28" class="edge">
<title>Node27&#45;&gt;Node16</title>
<path fill="none" stroke="#63b8ff" d="M1267,-115.49C1290.81,-105.62 1330.29,-89.23 1357.54,-77.93"/>
<polygon fill="#63b8ff" stroke="#63b8ff" points="1359.08,-81.08 1366.97,-74.02 1356.39,-74.62 1359.08,-81.08"/>
</g>
<!-- Node27&#45;&gt;Node19 -->
<g id="edge31" class="edge">
<title>Node27&#45;&gt;Node19</title>
<path fill="none" stroke="#63b8ff" d="M1256.09,-115.37C1266.08,-106.38 1281.93,-92.11 1294.13,-81.14"/>
<polygon fill="#63b8ff" stroke="#63b8ff" points="1296.78,-83.46 1301.87,-74.17 1292.1,-78.26 1296.78,-83.46"/>
</g>
<!-- Node28 -->
<g id="node28" class="node">
<title>Node28</title>
<g id="a_node28"><a xlink:title=" ">
<polygon fill="#e0e0e0" stroke="#999999" points="1132.5,-74 1072.5,-74 1072.5,-55 1132.5,-55 1132.5,-74"/>
<text text-anchor="middle" x="1102.5" y="-62" font-family="Helvetica,sans-Serif" font-size="10.00">iostream</text>
</a>
</g>
</g>
<!-- Node27&#45;&gt;Node28 -->
<g id="edge29" class="edge">
<title>Node27&#45;&gt;Node28</title>
<path fill="none" stroke="#63b8ff" d="M1225.56,-115.49C1201.14,-105.57 1160.57,-89.09 1132.73,-77.78"/>
<polygon fill="#63b8ff" stroke="#63b8ff" points="1134.05,-74.54 1123.46,-74.02 1131.41,-81.02 1134.05,-74.54"/>
</g>
<!-- Node29 -->
<g id="node29" class="node">
<title>Node29</title>
<g id="a_node29"><a xlink:title=" ">
<polygon fill="#e0e0e0" stroke="#999999" points="888,-19 831,-19 831,0 888,0 888,-19"/>
<text text-anchor="middle" x="859.5" y="-7" font-family="Helvetica,sans-Serif" font-size="10.00">ostream</text>
</a>
</g>
</g>
<!-- Node27&#45;&gt;Node29 -->
<g id="edge30" class="edge">
<title>Node27&#45;&gt;Node29</title>
<path fill="none" stroke="#63b8ff" d="M1214.01,-115.49C1177.35,-105.8 1115.98,-89.33 1063.5,-74 1004.42,-56.74 936.22,-35.18 895.54,-22.14"/>
<polygon fill="#63b8ff" stroke="#63b8ff" points="896.41,-18.74 885.82,-19.02 894.27,-25.41 896.41,-18.74"/>
</g>
<!-- Node30 -->
<g id="node30" class="node">
<title>Node30</title>
<g id="a_node30"><a xlink:title=" ">
<polygon fill="#e0e0e0" stroke="#999999" points="1206.5,-74 1150.5,-74 1150.5,-55 1206.5,-55 1206.5,-74"/>
<text text-anchor="middle" x="1178.5" y="-62" font-family="Helvetica,sans-Serif" font-size="10.00">sstream</text>
</a>
</g>
</g>
<!-- Node27&#45;&gt;Node30 -->
<g id="edge32" class="edge">
<title>Node27&#45;&gt;Node30</title>
<path fill="none" stroke="#63b8ff" d="M1236.47,-115.37C1225.92,-106.3 1209.11,-91.84 1196.31,-80.82"/>
<polygon fill="#63b8ff" stroke="#63b8ff" points="1198.44,-78.04 1188.57,-74.17 1193.87,-83.34 1198.44,-78.04"/>
</g>
<!-- Node31 -->
<g id="node31" class="node">
<title>Node31</title>
<g id="a_node31"><a xlink:title=" ">
<polygon fill="#e0e0e0" stroke="#999999" points="1268.5,-74 1224.5,-74 1224.5,-55 1268.5,-55 1268.5,-74"/>
<text text-anchor="middle" x="1246.5" y="-62" font-family="Helvetica,sans-Serif" font-size="10.00">string</text>
</a>
</g>
</g>
<!-- Node27&#45;&gt;Node31 -->
<g id="edge33" class="edge">
<title>Node27&#45;&gt;Node31</title>
<path fill="none" stroke="#63b8ff" d="M1246.5,-115.37C1246.5,-107.25 1246.5,-94.81 1246.5,-84.39"/>
<polygon fill="#63b8ff" stroke="#63b8ff" points="1250,-84.17 1246.5,-74.17 1243,-84.17 1250,-84.17"/>
</g>
<!-- Node33 -->
<g id="node33" class="node">
<title>Node33</title>
<g id="a_node33"><a xlink:href="types_8h.html" target="_top" xlink:title=" ">
<polygon fill="#fff0f0" stroke="red" points="911,-74 808,-74 808,-55 911,-55 911,-74"/>
<text text-anchor="middle" x="859.5" y="-62" font-family="Helvetica,sans-Serif" font-size="10.00">thorin/util/types.h</text>
</a>
</g>
</g>
<!-- Node32&#45;&gt;Node33 -->
<g id="edge36" class="edge">
<title>Node32&#45;&gt;Node33</title>
<path fill="none" stroke="#63b8ff" d="M1094.28,-115.49C1086.46,-113.64 1078.2,-111.73 1070.5,-110 1016.39,-97.88 954.25,-84.88 911.5,-76.09"/>
<polygon fill="#63b8ff" stroke="#63b8ff" points="912.1,-72.64 901.6,-74.06 910.69,-79.5 912.1,-72.64"/>
</g>
<!-- Node33&#45;&gt;Node20 -->
<g id="edge38" class="edge">
<title>Node33&#45;&gt;Node20</title>
<path fill="none" stroke="#63b8ff" d="M911.16,-56.46C987.98,-46 1131.07,-26.5 1203.71,-16.6"/>
<polygon fill="#63b8ff" stroke="#63b8ff" points="1204.46,-20.03 1213.9,-15.21 1203.52,-13.1 1204.46,-20.03"/>
</g>
<!-- Node33&#45;&gt;Node29 -->
<g id="edge37" class="edge">
<title>Node33&#45;&gt;Node29</title>
<path fill="none" stroke="#63b8ff" d="M859.5,-54.75C859.5,-47.8 859.5,-37.85 859.5,-29.13"/>
<polygon fill="#63b8ff" stroke="#63b8ff" points="863,-29.09 859.5,-19.09 856,-29.09 863,-29.09"/>
</g>
<!-- Node38&#45;&gt;Node6 -->
<g id="edge41" class="edge">
<title>Node38&#45;&gt;Node6</title>
<path fill="none" stroke="#63b8ff" d="M953.37,-175.87C968.5,-166.45 992.96,-151.23 1010.88,-140.08"/>
<polygon fill="#63b8ff" stroke="#63b8ff" points="1012.93,-142.92 1019.57,-134.67 1009.23,-136.98 1012.93,-142.92"/>
</g>
<!-- Node38&#45;&gt;Node8 -->
<g id="edge45" class="edge">
<title>Node38&#45;&gt;Node8</title>
<path fill="none" stroke="#63b8ff" d="M940.19,-175.97C940.95,-160.21 940.02,-126.61 920.5,-110 886.25,-80.86 581.73,-69.76 465.92,-66.57"/>
<polygon fill="#63b8ff" stroke="#63b8ff" points="465.73,-63.06 455.64,-66.29 465.55,-70.06 465.73,-63.06"/>
</g>
<!-- Node38&#45;&gt;Node20 -->
<g id="edge42" class="edge">
<title>Node38&#45;&gt;Node20</title>
<path fill="none" stroke="#63b8ff" d="M944.61,-175.94C959.46,-151.96 1005.26,-83.98 1063.5,-55 1108.43,-32.64 1165.19,-21.15 1203.91,-15.5"/>
<polygon fill="#63b8ff" stroke="#63b8ff" points="1204.41,-18.96 1213.84,-14.12 1203.45,-12.03 1204.41,-18.96"/>
</g>
<!-- Node38&#45;&gt;Node25 -->
<g id="edge43" class="edge">
<title>Node38&#45;&gt;Node25</title>
<path fill="none" stroke="#63b8ff" d="M927.7,-175.87C917.04,-168.08 900.96,-156.32 887.09,-146.17"/>
<polygon fill="#63b8ff" stroke="#63b8ff" points="888.94,-143.19 878.8,-140.11 884.81,-148.84 888.94,-143.19"/>
</g>
<!-- Node38&#45;&gt;Node26 -->
<g id="edge44" class="edge">
<title>Node38&#45;&gt;Node26</title>
<path fill="none" stroke="#63b8ff" d="M910.13,-175.99C880.29,-167.35 833.29,-153.74 795.85,-142.9"/>
<polygon fill="#63b8ff" stroke="#63b8ff" points="796.64,-139.48 786.06,-140.06 794.7,-146.21 796.64,-139.48"/>
</g>
<!-- Node38&#45;&gt;Node32 -->
<g id="edge46" class="edge">
<title>Node38&#45;&gt;Node32</title>
<path fill="none" stroke="#63b8ff" d="M967.13,-175.99C1000.05,-165.86 1055.23,-148.87 1091.99,-137.55"/>
<polygon fill="#63b8ff" stroke="#63b8ff" points="1093.31,-140.8 1101.84,-134.52 1091.25,-134.11 1093.31,-140.8"/>
</g>
<!-- Node43&#45;&gt;Node8 -->
<g id="edge48" class="edge">
<title>Node43&#45;&gt;Node8</title>
<path fill="none" stroke="#63b8ff" d="M375.16,-230.81C367.4,-209.2 350.27,-151.76 369.5,-110 375.25,-97.52 386.41,-87.24 396.92,-79.71"/>
<polygon fill="#63b8ff" stroke="#63b8ff" points="399.07,-82.49 405.47,-74.05 395.2,-76.65 399.07,-82.49"/>
</g>
<!-- Node43&#45;&gt;Node21 -->
<g id="edge49" class="edge">
<title>Node43&#45;&gt;Node21</title>
<path fill="none" stroke="#63b8ff" d="M407.9,-230.98C438.89,-222.01 487.88,-207.82 522.17,-197.89"/>
<polygon fill="#63b8ff" stroke="#63b8ff" points="523.24,-201.23 531.87,-195.08 521.29,-194.5 523.24,-201.23"/>
</g>
<!-- Node43&#45;&gt;Node33 -->
<g id="edge50" class="edge">
<title>Node43&#45;&gt;Node33</title>
<path fill="none" stroke="#63b8ff" d="M379.82,-230.7C383.95,-206.69 398.94,-139.88 441.5,-110 497.44,-70.73 695.31,-65.1 797.46,-64.91"/>
<polygon fill="#63b8ff" stroke="#63b8ff" points="797.64,-68.41 807.64,-64.91 797.64,-61.41 797.64,-68.41"/>
</g>
<!-- Node44&#45;&gt;Node3 -->
<g id="edge52" class="edge">
<title>Node44&#45;&gt;Node3</title>
<path fill="none" stroke="#63b8ff" d="M251.83,-291.37C233.22,-281.73 202.88,-266.03 181.22,-254.81"/>
<polygon fill="#63b8ff" stroke="#63b8ff" points="182.73,-251.66 172.24,-250.17 179.51,-257.87 182.73,-251.66"/>
</g>
<!-- Node44&#45;&gt;Node5 -->
<g id="edge53" class="edge">
<title>Node44&#45;&gt;Node5</title>
<path fill="none" stroke="#63b8ff" d="M299.68,-291.44C308.02,-289.4 317.06,-287.41 325.5,-286 488.41,-258.8 684.57,-247.36 772.24,-243.35"/>
<polygon fill="#63b8ff" stroke="#63b8ff" points="772.55,-246.84 782.39,-242.89 772.24,-239.84 772.55,-246.84"/>
</g>
<!-- Node45&#45;&gt;Node46 -->
<g id="edge56" class="edge">
<title>Node45&#45;&gt;Node46</title>
<path fill="none" stroke="#63b8ff" d="M890.5,-406.75C890.5,-399.8 890.5,-389.85 890.5,-381.13"/>
<polygon fill="#63b8ff" stroke="#63b8ff" points="894,-381.09 890.5,-371.09 887,-381.09 894,-381.09"/>
</g>
<!-- Node60 -->
<g id="node49" class="node">
<title>Node60</title>
<g id="a_node49"><a xlink:href="scope_8h.html" target="_top" xlink:title=" ">
<polygon fill="white" stroke="#666666" points="1501.5,-310.5 1369.5,-310.5 1369.5,-291.5 1501.5,-291.5 1501.5,-310.5"/>
<text text-anchor="middle" x="1435.5" y="-298.5" font-family="Helvetica,sans-Serif" font-size="10.00">thorin/analyses/scope.h</text>
</a>
</g>
</g>
<!-- Node45&#45;&gt;Node60 -->
<g id="edge81" class="edge">
<title>Node45&#45;&gt;Node60</title>
<path fill="none" stroke="#63b8ff" d="M931.46,-406.97C1029.43,-386.57 1277.07,-334.99 1384.49,-312.62"/>
<polygon fill="#63b8ff" stroke="#63b8ff" points="1385.36,-316.02 1394.43,-310.55 1383.93,-309.16 1385.36,-316.02"/>
</g>
<!-- Node46&#45;&gt;Node20 -->
<g id="edge60" class="edge">
<title>Node46&#45;&gt;Node20</title>
<path fill="none" stroke="#63b8ff" d="M932.59,-360.56C1137,-360.29 2016.5,-352.69 2016.5,-241.5 2016.5,-241.5 2016.5,-241.5 2016.5,-124 2016.5,-92.19 2022.22,-75.02 1997.5,-55 1942.82,-10.72 1446.9,-9.48 1293.5,-10.18"/>
<polygon fill="#63b8ff" stroke="#63b8ff" points="1293.04,-6.68 1283.06,-10.23 1293.08,-13.68 1293.04,-6.68"/>
</g>
<!-- Node46&#45;&gt;Node21 -->
<g id="edge75" class="edge">
<title>Node46&#45;&gt;Node21</title>
<path fill="none" stroke="#63b8ff" d="M848.32,-358.15C760.45,-352.82 564.3,-338.51 544.5,-316 516.89,-284.61 537.86,-231.27 551.76,-203.87"/>
<polygon fill="#63b8ff" stroke="#63b8ff" points="554.86,-205.52 556.46,-195.04 548.68,-202.23 554.86,-205.52"/>
</g>
<!-- Node46&#45;&gt;Node30 -->
<g id="edge57" class="edge">
<title>Node46&#45;&gt;Node30</title>
<path fill="none" stroke="#63b8ff" d="M932.9,-360.28C1065.54,-359.2 1466.36,-352.9 1510.5,-316 1536.72,-294.08 1529.5,-275.67 1529.5,-241.5 1529.5,-241.5 1529.5,-241.5 1529.5,-184.5 1529.5,-151.74 1307.37,-95.79 1216.53,-74.28"/>
<polygon fill="#63b8ff" stroke="#63b8ff" points="1217.17,-70.84 1206.63,-71.95 1215.56,-77.65 1217.17,-70.84"/>
</g>
<!-- Node46&#45;&gt;Node31 -->
<g id="edge58" class="edge">
<title>Node46&#45;&gt;Node31</title>
<path fill="none" stroke="#63b8ff" d="M932.77,-360.05C1068.03,-358.28 1484.29,-350.09 1533.5,-316 1563.42,-295.27 1567.5,-277.9 1567.5,-241.5 1567.5,-241.5 1567.5,-241.5 1567.5,-184.5 1567.5,-49.8 1418.09,-106.47 1278.53,-74.07"/>
<polygon fill="#63b8ff" stroke="#63b8ff" points="1279.05,-70.6 1268.5,-71.58 1277.36,-77.39 1279.05,-70.6"/>
</g>
<!-- Node46&#45;&gt;Node32 -->
<g id="edge76" class="edge">
<title>Node46&#45;&gt;Node32</title>
<path fill="none" stroke="#63b8ff" d="M932.86,-358.59C1032.18,-353.73 1273.82,-339.61 1301.5,-316 1349.37,-275.17 1361.01,-225.76 1322.5,-176 1320.18,-173.01 1230.85,-150.74 1174.55,-136.95"/>
<polygon fill="#63b8ff" stroke="#63b8ff" points="1175.34,-133.54 1164.79,-134.57 1173.67,-140.34 1175.34,-133.54"/>
</g>
<!-- Node46&#45;&gt;Node44 -->
<g id="edge66" class="edge">
<title>Node46&#45;&gt;Node44</title>
<path fill="none" stroke="#63b8ff" d="M848.4,-357.84C758.95,-351.98 543.41,-336.83 363.5,-316 350.04,-314.44 335.55,-312.46 322.04,-310.48"/>
<polygon fill="#63b8ff" stroke="#63b8ff" points="322.34,-306.99 311.94,-308.98 321.31,-313.91 322.34,-306.99"/>
</g>
<!-- Node47 -->
<g id="node39" class="node">
<title>Node47</title>
<g id="a_node39"><a xlink:title=" ">
<polygon fill="#e0e0e0" stroke="#999999" points="927,-310.5 854,-310.5 854,-291.5 927,-291.5 927,-310.5"/>
<text text-anchor="middle" x="890.5" y="-298.5" font-family="Helvetica,sans-Serif" font-size="10.00">string_view</text>
</a>
</g>
</g>
<!-- Node46&#45;&gt;Node47 -->
<g id="edge59" class="edge">
<title>Node46&#45;&gt;Node47</title>
<path fill="none" stroke="#63b8ff" d="M890.5,-351.87C890.5,-343.75 890.5,-331.31 890.5,-320.89"/>
<polygon fill="#63b8ff" stroke="#63b8ff" points="894,-320.67 890.5,-310.67 887,-320.67 894,-320.67"/>
</g>
<!-- Node48 -->
<g id="node40" class="node">
<title>Node48</title>
<g id="a_node40"><a xlink:title=" ">
<polygon fill="#e0e0e0" stroke="#999999" points="1059.5,-316 945.5,-316 945.5,-286 1059.5,-286 1059.5,-316"/>
<text text-anchor="start" x="953.5" y="-304" font-family="Helvetica,sans-Serif" font-size="10.00">absl/container/btree</text>
<text text-anchor="middle" x="1002.5" y="-293" font-family="Helvetica,sans-Serif" font-size="10.00">_map.h</text>
</a>
</g>
</g>
<!-- Node46&#45;&gt;Node48 -->
<g id="edge61" class="edge">
<title>Node46&#45;&gt;Node48</title>
<path fill="none" stroke="#63b8ff" d="M907.03,-351.87C922.65,-343.71 946.6,-331.2 966.61,-320.75"/>
<polygon fill="#63b8ff" stroke="#63b8ff" points="968.23,-323.85 975.48,-316.11 964.99,-317.64 968.23,-323.85"/>
</g>
<!-- Node49 -->
<g id="node41" class="node">
<title>Node49</title>
<g id="a_node41"><a xlink:title=" ">
<polygon fill="#e0e0e0" stroke="#999999" points="1191.5,-316 1077.5,-316 1077.5,-286 1191.5,-286 1191.5,-316"/>
<text text-anchor="start" x="1085.5" y="-304" font-family="Helvetica,sans-Serif" font-size="10.00">absl/container/btree</text>
<text text-anchor="middle" x="1134.5" y="-293" font-family="Helvetica,sans-Serif" font-size="10.00">_set.h</text>
</a>
</g>
</g>
<!-- Node46&#45;&gt;Node49 -->
<g id="edge62" class="edge">
<title>Node46&#45;&gt;Node49</title>
<path fill="none" stroke="#63b8ff" d="M925.98,-351.99C962.92,-343.14 1021.67,-329.05 1067.41,-318.09"/>
<polygon fill="#63b8ff" stroke="#63b8ff" points="1068.34,-321.46 1077.25,-315.73 1066.71,-314.65 1068.34,-321.46"/>
</g>
<!-- Node50 -->
<g id="node42" class="node">
<title>Node50</title>
<g id="a_node42"><a xlink:title=" ">
<polygon fill="#e0e0e0" stroke="#999999" points="1275.5,-310.5 1209.5,-310.5 1209.5,-291.5 1275.5,-291.5 1275.5,-310.5"/>
<text text-anchor="middle" x="1242.5" y="-298.5" font-family="Helvetica,sans-Serif" font-size="10.00">fe/arena.h</text>
</a>
</g>
</g>
<!-- Node46&#45;&gt;Node50 -->
<g id="edge63" class="edge">
<title>Node46&#45;&gt;Node50</title>
<path fill="none" stroke="#63b8ff" d="M932.56,-356.87C992.6,-351.16 1106.05,-338.33 1200.5,-316 1203.47,-315.3 1206.53,-314.48 1209.58,-313.59"/>
<polygon fill="#63b8ff" stroke="#63b8ff" points="1210.66,-316.92 1219.17,-310.6 1208.58,-310.24 1210.66,-316.92"/>
</g>
<!-- Node51 -->
<g id="node43" class="node">
<title>Node51</title>
<g id="a_node43"><a xlink:href="axiom_8h.html" target="_top" xlink:title=" ">
<polygon fill="#fff0f0" stroke="red" points="279.5,-195 191.5,-195 191.5,-176 279.5,-176 279.5,-195"/>
<text text-anchor="middle" x="235.5" y="-183" font-family="Helvetica,sans-Serif" font-size="10.00">thorin/axiom.h</text>
</a>
</g>
</g>
<!-- Node46&#45;&gt;Node51 -->
<g id="edge64" class="edge">
<title>Node46&#45;&gt;Node51</title>
<path fill="none" stroke="#63b8ff" d="M848.39,-359.24C744.92,-355.75 480.59,-344.25 397.5,-316 345.67,-298.38 335.44,-285.19 293.5,-250 276.61,-235.83 259.91,-216.88 248.8,-203.38"/>
<polygon fill="#63b8ff" stroke="#63b8ff" points="251.36,-200.98 242.36,-195.4 245.91,-205.38 251.36,-200.98"/>
</g>
<!-- Node53 -->
<g id="node44" class="node">
<title>Node53</title>
<g id="a_node44"><a xlink:href="flags_8h.html" target="_top" xlink:title=" ">
<polygon fill="#fff0f0" stroke="red" points="1310.5,-250 1230.5,-250 1230.5,-231 1310.5,-231 1310.5,-250"/>
<text text-anchor="middle" x="1270.5" y="-238" font-family="Helvetica,sans-Serif" font-size="10.00">thorin/flags.h</text>
</a>
</g>
</g>
<!-- Node46&#45;&gt;Node53 -->
<g id="edge67" class="edge">
<title>Node46&#45;&gt;Node53</title>
<path fill="none" stroke="#63b8ff" d="M932.61,-358.86C1029.42,-354.64 1261.34,-341.92 1284.5,-316 1298.43,-300.41 1289.68,-275.49 1281.04,-258.82"/>
<polygon fill="#63b8ff" stroke="#63b8ff" points="1284.08,-257.09 1276.13,-250.08 1277.98,-260.52 1284.08,-257.09"/>
</g>
<!-- Node54 -->
<g id="node45" class="node">
<title>Node54</title>
<g id="a_node45"><a xlink:href="lam_8h.html" target="_top" xlink:title=" ">
<polygon fill="#fff0f0" stroke="red" points="729.5,-310.5 653.5,-310.5 653.5,-291.5 729.5,-291.5 729.5,-310.5"/>
<text text-anchor="middle" x="691.5" y="-298.5" font-family="Helvetica,sans-Serif" font-size="10.00">thorin/lam.h</text>
</a>
</g>
</g>
<!-- Node46&#45;&gt;Node54 -->
<g id="edge69" class="edge">
<title>Node46&#45;&gt;Node54</title>
<path fill="none" stroke="#63b8ff" d="M861.06,-351.93C830.44,-343 781.09,-328.58 738.5,-316 735.74,-315.19 732.9,-314.34 730.03,-313.49"/>
<polygon fill="#63b8ff" stroke="#63b8ff" points="730.91,-310.1 720.33,-310.61 728.92,-316.81 730.91,-310.1"/>
</g>
<!-- Node56 -->
<g id="node46" class="node">
<title>Node56</title>
<g id="a_node46"><a xlink:href="lattice_8h.html" target="_top" xlink:title=" ">
<polygon fill="white" stroke="#666666" points="835.5,-310.5 747.5,-310.5 747.5,-291.5 835.5,-291.5 835.5,-310.5"/>
<text text-anchor="middle" x="791.5" y="-298.5" font-family="Helvetica,sans-Serif" font-size="10.00">thorin/lattice.h</text>
</a>
</g>
</g>
<!-- Node46&#45;&gt;Node56 -->
<g id="edge71" class="edge">
<title>Node46&#45;&gt;Node56</title>
<path fill="none" stroke="#63b8ff" d="M875.89,-351.87C859.81,-342.36 833.72,-326.95 814.8,-315.77"/>
<polygon fill="#63b8ff" stroke="#63b8ff" points="816.56,-312.74 806.17,-310.67 813,-318.77 816.56,-312.74"/>
</g>
<!-- Node57 -->
<g id="node47" class="node">
<title>Node57</title>
<g id="a_node47"><a xlink:href="tuple_8h.html" target="_top" xlink:title=" ">
<polygon fill="white" stroke="#666666" points="635.5,-310.5 553.5,-310.5 553.5,-291.5 635.5,-291.5 635.5,-310.5"/>
<text text-anchor="middle" x="594.5" y="-298.5" font-family="Helvetica,sans-Serif" font-size="10.00">thorin/tuple.h</text>
</a>
</g>
</g>
<!-- Node46&#45;&gt;Node57 -->
<g id="edge73" class="edge">
<title>Node46&#45;&gt;Node57</title>
<path fill="none" stroke="#63b8ff" d="M848.47,-354.13C799.3,-346.4 715.56,-332.34 644.5,-316 640.81,-315.15 636.99,-314.21 633.18,-313.22"/>
<polygon fill="#63b8ff" stroke="#63b8ff" points="633.77,-309.75 623.2,-310.53 631.95,-316.51 633.77,-309.75"/>
</g>
<!-- Node58 -->
<g id="node48" class="node">
<title>Node58</title>
<g id="a_node48"><a xlink:href="log_8h.html" target="_top" xlink:title=" ">
<polygon fill="#fff0f0" stroke="red" points="497,-310.5 406,-310.5 406,-291.5 497,-291.5 497,-310.5"/>
<text text-anchor="middle" x="451.5" y="-298.5" font-family="Helvetica,sans-Serif" font-size="10.00">thorin/util/log.h</text>
</a>
</g>
</g>
<!-- Node46&#45;&gt;Node58 -->
<g id="edge77" class="edge">
<title>Node46&#45;&gt;Node58</title>
<path fill="none" stroke="#63b8ff" d="M848.5,-357.12C778.34,-351.13 633.05,-337.25 511.5,-316 506.1,-315.06 500.46,-313.93 494.89,-312.73"/>
<polygon fill="#63b8ff" stroke="#63b8ff" points="495.52,-309.29 485,-310.52 494,-316.12 495.52,-309.29"/>
</g>
<!-- Node51&#45;&gt;Node8 -->
<g id="edge65" class="edge">
<title>Node51&#45;&gt;Node8</title>
<path fill="none" stroke="#63b8ff" d="M245.11,-175.98C261.87,-161.36 297.89,-131.05 331.5,-110 350.82,-97.9 373.89,-86.55 391.83,-78.34"/>
<polygon fill="#63b8ff" stroke="#63b8ff" points="393.54,-81.41 401.22,-74.12 390.66,-75.03 393.54,-81.41"/>
</g>
<!-- Node53&#45;&gt;Node10 -->
<g id="edge68" class="edge">
<title>Node53&#45;&gt;Node10</title>
<path fill="none" stroke="#63b8ff" d="M1270.5,-230.75C1270.5,-223.8 1270.5,-213.85 1270.5,-205.13"/>
<polygon fill="#63b8ff" stroke="#63b8ff" points="1274,-205.09 1270.5,-195.09 1267,-205.09 1274,-205.09"/>
</g>
<!-- Node54&#45;&gt;Node5 -->
<g id="edge70" class="edge">
<title>Node54&#45;&gt;Node5</title>
<path fill="none" stroke="#63b8ff" d="M709.97,-291.49C731.22,-281.7 766.35,-265.52 790.87,-254.23"/>
<polygon fill="#63b8ff" stroke="#63b8ff" points="792.39,-257.38 800.01,-250.02 789.46,-251.02 792.39,-257.38"/>
</g>
<!-- Node56&#45;&gt;Node5 -->
<g id="edge72" class="edge">
<title>Node56&#45;&gt;Node5</title>
<path fill="none" stroke="#63b8ff" d="M795.48,-291.37C799.35,-282.99 805.34,-270.01 810.24,-259.39"/>
<polygon fill="#63b8ff" stroke="#63b8ff" points="813.49,-260.71 814.5,-250.17 807.13,-257.78 813.49,-260.71"/>
</g>
<!-- Node57&#45;&gt;Node5 -->
<g id="edge74" class="edge">
<title>Node57&#45;&gt;Node5</title>
<path fill="none" stroke="#63b8ff" d="M624.61,-291.45C631.16,-289.62 638.06,-287.73 644.5,-286 688.5,-274.22 738.94,-261.39 774.15,-252.55"/>
<polygon fill="#63b8ff" stroke="#63b8ff" points="775.26,-255.88 784.1,-250.05 773.55,-249.09 775.26,-255.88"/>
</g>
<!-- Node58&#45;&gt;Node21 -->
<g id="edge80" class="edge">
<title>Node58&#45;&gt;Node21</title>
<path fill="none" stroke="#63b8ff" d="M458.55,-291.19C469.43,-277.75 491.19,-251.55 511.5,-231 521.61,-220.77 533.63,-210.03 543.35,-201.67"/>
<polygon fill="#63b8ff" stroke="#63b8ff" points="545.84,-204.15 551.19,-195 541.31,-198.81 545.84,-204.15"/>
</g>
<!-- Node58&#45;&gt;Node29 -->
<g id="edge78" class="edge">
<title>Node58&#45;&gt;Node29</title>
<path fill="none" stroke="#63b8ff" d="M405.97,-292.04C379.41,-285.16 347.16,-272.6 326.5,-250 306.63,-228.26 307.5,-215.96 307.5,-186.5 307.5,-186.5 307.5,-186.5 307.5,-124 307.5,-80 338.53,-73.41 378.5,-55 456.95,-18.86 720.59,-12.07 820.59,-10.79"/>
<polygon fill="#63b8ff" stroke="#63b8ff" points="820.9,-14.29 830.85,-10.68 820.81,-7.29 820.9,-14.29"/>
</g>
<!-- Node58&#45;&gt;Node53 -->
<g id="edge79" class="edge">
<title>Node58&#45;&gt;Node53</title>
<path fill="none" stroke="#63b8ff" d="M497.28,-292.29C512.29,-289.98 529.07,-287.63 544.5,-286 797.44,-259.26 1101.79,-247.05 1220.06,-243.06"/>
<polygon fill="#63b8ff" stroke="#63b8ff" points="1220.38,-246.55 1230.26,-242.72 1220.15,-239.55 1220.38,-246.55"/>
</g>
<!-- Node60&#45;&gt;Node5 -->
<g id="edge82" class="edge">
<title>Node60&#45;&gt;Node5</title>
<path fill="none" stroke="#63b8ff" d="M1369.47,-293.74C1243.73,-281.82 972.83,-256.13 864.57,-245.87"/>
<polygon fill="#63b8ff" stroke="#63b8ff" points="864.9,-242.38 854.62,-244.92 864.24,-249.35 864.9,-242.38"/>
</g>
<!-- Node60&#45;&gt;Node27 -->
<g id="edge83" class="edge">
<title>Node60&#45;&gt;Node27</title>
<path fill="none" stroke="#63b8ff" d="M1431.97,-291.29C1422.62,-269.22 1395.19,-210.39 1355.5,-176 1335.35,-158.54 1308.09,-146.04 1285.87,-137.9"/>
<polygon fill="#63b8ff" stroke="#63b8ff" points="1286.97,-134.58 1276.37,-134.57 1284.65,-141.19 1286.97,-134.58"/>
</g>
<!-- Node61&#45;&gt;Node3 -->
<g id="edge86" class="edge">
<title>Node61&#45;&gt;Node3</title>
<path fill="none" stroke="#63b8ff" d="M155.5,-291.37C155.5,-283.25 155.5,-270.81 155.5,-260.39"/>
<polygon fill="#63b8ff" stroke="#63b8ff" points="159,-260.17 155.5,-250.17 152,-260.17 159,-260.17"/>
</g>
<!-- Node61&#45;&gt;Node21 -->
<g id="edge87" class="edge">
<title>Node61&#45;&gt;Node21</title>
<path fill="none" stroke="#63b8ff" d="M191.23,-291.43C199.51,-289.55 208.29,-287.63 216.5,-286 311.1,-267.2 338.62,-279.33 430.5,-250 470,-237.39 512.67,-214.87 538.22,-200.31"/>
<polygon fill="#63b8ff" stroke="#63b8ff" points="540.23,-203.2 547.14,-195.16 536.73,-197.13 540.23,-203.2"/>
</g>
</g>
</svg>
