<?xml version="1.0" encoding="UTF-8" standalone="no"?>
<!DOCTYPE svg PUBLIC "-//W3C//DTD SVG 1.1//EN"
 "http://www.w3.org/Graphics/SVG/1.1/DTD/svg11.dtd">
<!-- Generated by graphviz version 2.43.0 (0)
 -->
<!-- Title: dialects/autodiff/auxiliary/autodiff_rewrite_inner.cpp Pages: 1 -->
<svg width="1501pt" height="566pt"
 viewBox="0.00 0.00 1500.50 566.00" xmlns="http://www.w3.org/2000/svg" xmlns:xlink="http://www.w3.org/1999/xlink">
<g id="graph0" class="graph" transform="scale(1 1) rotate(0) translate(4 562)">
<title>dialects/autodiff/auxiliary/autodiff_rewrite_inner.cpp</title>
<!-- Node1 -->
<g id="node1" class="node">
<title>Node1</title>
<g id="a_node1"><a xlink:title=" ">
<polygon fill="#999999" stroke="#666666" points="500,-558 354,-558 354,-528 500,-528 500,-558"/>
<text text-anchor="start" x="362" y="-546" font-family="Helvetica,sans-Serif" font-size="10.00">dialects/autodiff/auxiliary</text>
<text text-anchor="middle" x="427" y="-535" font-family="Helvetica,sans-Serif" font-size="10.00">/autodiff_rewrite_inner.cpp</text>
</a>
</g>
</g>
<!-- Node2 -->
<g id="node2" class="node">
<title>Node2</title>
<g id="a_node2"><a xlink:title=" ">
<polygon fill="#e0e0e0" stroke="#999999" points="244,-74 180,-74 180,-55 244,-55 244,-74"/>
<text text-anchor="middle" x="212" y="-62" font-family="Helvetica,sans-Serif" font-size="10.00">algorithm</text>
</a>
</g>
</g>
<!-- Node1&#45;&gt;Node2 -->
<g id="edge1" class="edge">
<title>Node1&#45;&gt;Node2</title>
<path fill="none" stroke="#63b8ff" d="M353.83,-533.72C241.15,-518.9 38,-483.09 38,-417.5 38,-417.5 38,-417.5 38,-300 38,-198.8 143.81,-112.83 190.41,-79.88"/>
<polygon fill="#63b8ff" stroke="#63b8ff" points="192.41,-82.75 198.64,-74.18 188.42,-77 192.41,-82.75"/>
</g>
<!-- Node3 -->
<g id="node3" class="node">
<title>Node3</title>
<g id="a_node3"><a xlink:title=" ">
<polygon fill="#e0e0e0" stroke="#999999" points="117,-19 73,-19 73,0 117,0 117,-19"/>
<text text-anchor="middle" x="95" y="-7" font-family="Helvetica,sans-Serif" font-size="10.00">string</text>
</a>
</g>
</g>
<!-- Node1&#45;&gt;Node3 -->
<g id="edge2" class="edge">
<title>Node1&#45;&gt;Node3</title>
<path fill="none" stroke="#63b8ff" d="M353.91,-537.05C265.5,-530.13 122.6,-515.68 75,-492 32.93,-471.08 0,-464.48 0,-417.5 0,-417.5 0,-417.5 0,-118.5 0,-75.91 42.16,-42.14 70.31,-24.33"/>
<polygon fill="#63b8ff" stroke="#63b8ff" points="72.16,-27.31 78.88,-19.12 68.52,-21.32 72.16,-27.31"/>
</g>
<!-- Node4 -->
<g id="node4" class="node">
<title>Node4</title>
<g id="a_node4"><a xlink:href="tuple_8h.html" target="_top" xlink:title=" ">
<polygon fill="white" stroke="#666666" points="406,-310.5 324,-310.5 324,-291.5 406,-291.5 406,-310.5"/>
<text text-anchor="middle" x="365" y="-298.5" font-family="Helvetica,sans-Serif" font-size="10.00">thorin/tuple.h</text>
</a>
</g>
</g>
<!-- Node1&#45;&gt;Node4 -->
<g id="edge3" class="edge">
<title>Node1&#45;&gt;Node4</title>
<path fill="none" stroke="#63b8ff" d="M451.27,-527.95C503.19,-496.14 616.34,-416.4 566,-352 556.68,-340.07 472.65,-322.2 416.23,-311.37"/>
<polygon fill="#63b8ff" stroke="#63b8ff" points="416.87,-307.93 406.39,-309.5 415.56,-314.8 416.87,-307.93"/>
</g>
<!-- Node41 -->
<g id="node28" class="node">
<title>Node41</title>
<g id="a_node28"><a xlink:href="autodiff_8h.html" target="_top" xlink:title=" ">
<polygon fill="white" stroke="#666666" points="499.5,-426 354.5,-426 354.5,-407 499.5,-407 499.5,-426"/>
<text text-anchor="middle" x="427" y="-414" font-family="Helvetica,sans-Serif" font-size="10.00">dialects/autodiff/autodiff.h</text>
</a>
</g>
</g>
<!-- Node1&#45;&gt;Node41 -->
<g id="edge38" class="edge">
<title>Node1&#45;&gt;Node41</title>
<path fill="none" stroke="#63b8ff" d="M427,-527.72C427,-505.12 427,-461.12 427,-436.09"/>
<polygon fill="#63b8ff" stroke="#63b8ff" points="430.5,-436.07 427,-426.07 423.5,-436.07 430.5,-436.07"/>
</g>
<!-- Node59 -->
<g id="node42" class="node">
<title>Node59</title>
<g id="a_node42"><a xlink:href="autodiff__eval_8h.html" target="_top" xlink:title=" ">
<polygon fill="white" stroke="#666666" points="1419.5,-492 1298.5,-492 1298.5,-462 1419.5,-462 1419.5,-492"/>
<text text-anchor="start" x="1306.5" y="-480" font-family="Helvetica,sans-Serif" font-size="10.00">dialects/autodiff/pass</text>
<text text-anchor="middle" x="1359" y="-469" font-family="Helvetica,sans-Serif" font-size="10.00">/autodiff_eval.h</text>
</a>
</g>
</g>
<!-- Node1&#45;&gt;Node59 -->
<g id="edge72" class="edge">
<title>Node1&#45;&gt;Node59</title>
<path fill="none" stroke="#63b8ff" d="M500.13,-536.98C675.06,-524.97 1115.85,-494.7 1288.29,-482.86"/>
<polygon fill="#63b8ff" stroke="#63b8ff" points="1288.53,-486.35 1298.27,-482.17 1288.05,-479.36 1288.53,-486.35"/>
</g>
<!-- Node62 -->
<g id="node45" class="node">
<title>Node62</title>
<g id="a_node45"><a xlink:href="core_8h.html" target="_top" xlink:title=" ">
<polygon fill="white" stroke="#666666" points="300,-426 188,-426 188,-407 300,-407 300,-426"/>
<text text-anchor="middle" x="244" y="-414" font-family="Helvetica,sans-Serif" font-size="10.00">dialects/core/core.h</text>
</a>
</g>
</g>
<!-- Node1&#45;&gt;Node62 -->
<g id="edge78" class="edge">
<title>Node1&#45;&gt;Node62</title>
<path fill="none" stroke="#63b8ff" d="M406.36,-527.96C371.35,-504.14 300.68,-456.06 265.26,-431.96"/>
<polygon fill="#63b8ff" stroke="#63b8ff" points="266.89,-428.84 256.66,-426.11 262.95,-434.63 266.89,-428.84"/>
</g>
<!-- Node64 -->
<g id="node47" class="node">
<title>Node64</title>
<g id="a_node47"><a xlink:href="direct_8h.html" target="_top" xlink:title=" ">
<polygon fill="white" stroke="#666666" points="738.5,-486.5 613.5,-486.5 613.5,-467.5 738.5,-467.5 738.5,-486.5"/>
<text text-anchor="middle" x="676" y="-474.5" font-family="Helvetica,sans-Serif" font-size="10.00">dialects/direct/direct.h</text>
</a>
</g>
</g>
<!-- Node1&#45;&gt;Node64 -->
<g id="edge84" class="edge">
<title>Node1&#45;&gt;Node64</title>
<path fill="none" stroke="#63b8ff" d="M481.64,-527.95C527.14,-516.26 591.04,-499.84 632.96,-489.06"/>
<polygon fill="#63b8ff" stroke="#63b8ff" points="634.05,-492.4 642.86,-486.52 632.31,-485.62 634.05,-492.4"/>
</g>
<!-- Node5 -->
<g id="node5" class="node">
<title>Node5</title>
<g id="a_node5"><a xlink:href="def_8h.html" target="_top" xlink:title=" ">
<polygon fill="white" stroke="#666666" points="715,-189.5 643,-189.5 643,-170.5 715,-170.5 715,-189.5"/>
<text text-anchor="middle" x="679" y="-177.5" font-family="Helvetica,sans-Serif" font-size="10.00">thorin/def.h</text>
</a>
</g>
</g>
<!-- Node4&#45;&gt;Node5 -->
<g id="edge4" class="edge">
<title>Node4&#45;&gt;Node5</title>
<path fill="none" stroke="#63b8ff" d="M369.74,-291.14C378.25,-276.14 397.65,-245.93 423,-231 488.66,-192.32 578.62,-182.89 632.55,-180.96"/>
<polygon fill="#63b8ff" stroke="#63b8ff" points="632.95,-184.46 642.84,-180.67 632.75,-177.46 632.95,-184.46"/>
</g>
<!-- Node6 -->
<g id="node6" class="node">
<title>Node6</title>
<g id="a_node6"><a xlink:title=" ">
<polygon fill="#e0e0e0" stroke="#999999" points="969,-74 913,-74 913,-55 969,-55 969,-74"/>
<text text-anchor="middle" x="941" y="-62" font-family="Helvetica,sans-Serif" font-size="10.00">optional</text>
</a>
</g>
</g>
<!-- Node5&#45;&gt;Node6 -->
<g id="edge5" class="edge">
<title>Node5&#45;&gt;Node6</title>
<path fill="none" stroke="#63b8ff" d="M698.69,-170.47C744.4,-150.67 857.9,-101.5 911.75,-78.17"/>
<polygon fill="#63b8ff" stroke="#63b8ff" points="913.29,-81.32 921.08,-74.13 910.51,-74.89 913.29,-81.32"/>
</g>
<!-- Node7 -->
<g id="node7" class="node">
<title>Node7</title>
<g id="a_node7"><a xlink:title=" ">
<polygon fill="#e0e0e0" stroke="#999999" points="347.5,-74 300.5,-74 300.5,-55 347.5,-55 347.5,-74"/>
<text text-anchor="middle" x="324" y="-62" font-family="Helvetica,sans-Serif" font-size="10.00">vector</text>
</a>
</g>
</g>
<!-- Node5&#45;&gt;Node7 -->
<g id="edge6" class="edge">
<title>Node5&#45;&gt;Node7</title>
<path fill="none" stroke="#63b8ff" d="M651.69,-170.49C619.99,-160.6 566.17,-143.74 520,-129 462.76,-110.73 396.24,-89.09 357.27,-76.38"/>
<polygon fill="#63b8ff" stroke="#63b8ff" points="358.1,-72.97 347.51,-73.19 355.93,-79.62 358.1,-72.97"/>
</g>
<!-- Node8 -->
<g id="node8" class="node">
<title>Node8</title>
<g id="a_node8"><a xlink:title=" ">
<polygon fill="#e0e0e0" stroke="#999999" points="511,-19 443,-19 443,0 511,0 511,-19"/>
<text text-anchor="middle" x="477" y="-7" font-family="Helvetica,sans-Serif" font-size="10.00">fe/assert.h</text>
</a>
</g>
</g>
<!-- Node5&#45;&gt;Node8 -->
<g id="edge7" class="edge">
<title>Node5&#45;&gt;Node8</title>
<path fill="none" stroke="#63b8ff" d="M642.8,-171.87C550.51,-153.33 312.17,-103.04 291,-74 253.99,-23.22 366.47,-12.64 432.52,-10.7"/>
<polygon fill="#63b8ff" stroke="#63b8ff" points="432.78,-14.19 442.69,-10.46 432.61,-7.2 432.78,-14.19"/>
</g>
<!-- Node9 -->
<g id="node9" class="node">
<title>Node9</title>
<g id="a_node9"><a xlink:title=" ">
<polygon fill="#e0e0e0" stroke="#999999" points="587.5,-129 528.5,-129 528.5,-110 587.5,-110 587.5,-129"/>
<text text-anchor="middle" x="558" y="-117" font-family="Helvetica,sans-Serif" font-size="10.00">fe/cast.h</text>
</a>
</g>
</g>
<!-- Node5&#45;&gt;Node9 -->
<g id="edge8" class="edge">
<title>Node5&#45;&gt;Node9</title>
<path fill="none" stroke="#63b8ff" d="M661.41,-170.49C641.24,-160.75 607.98,-144.66 584.64,-133.38"/>
<polygon fill="#63b8ff" stroke="#63b8ff" points="586.14,-130.22 575.62,-129.02 583.1,-136.52 586.14,-130.22"/>
</g>
<!-- Node10 -->
<g id="node10" class="node">
<title>Node10</title>
<g id="a_node10"><a xlink:href="config_8h.html" target="_top" xlink:title=" ">
<polygon fill="white" stroke="#666666" points="342,-129 256,-129 256,-110 342,-110 342,-129"/>
<text text-anchor="middle" x="299" y="-117" font-family="Helvetica,sans-Serif" font-size="10.00">thorin/config.h</text>
</a>
</g>
</g>
<!-- Node5&#45;&gt;Node10 -->
<g id="edge9" class="edge">
<title>Node5&#45;&gt;Node10</title>
<path fill="none" stroke="#63b8ff" d="M642.91,-173.44C575.62,-163.09 430.74,-140.78 352.21,-128.69"/>
<polygon fill="#63b8ff" stroke="#63b8ff" points="352.47,-125.19 342.05,-127.13 351.4,-132.11 352.47,-125.19"/>
</g>
<!-- Node11 -->
<g id="node11" class="node">
<title>Node11</title>
<g id="a_node11"><a xlink:href="array_8h.html" target="_top" xlink:title=" ">
<polygon fill="white" stroke="#666666" points="706,-129 606,-129 606,-110 706,-110 706,-129"/>
<text text-anchor="middle" x="656" y="-117" font-family="Helvetica,sans-Serif" font-size="10.00">thorin/util/array.h</text>
</a>
</g>
</g>
<!-- Node5&#45;&gt;Node11 -->
<g id="edge10" class="edge">
<title>Node5&#45;&gt;Node11</title>
<path fill="none" stroke="#63b8ff" d="M675.61,-170.37C672.34,-162.07 667.31,-149.28 663.16,-138.72"/>
<polygon fill="#63b8ff" stroke="#63b8ff" points="666.32,-137.19 659.41,-129.17 659.81,-139.75 666.32,-137.19"/>
</g>
<!-- Node20 -->
<g id="node20" class="node">
<title>Node20</title>
<g id="a_node20"><a xlink:href="dbg_8h.html" target="_top" xlink:title=" ">
<polygon fill="#fff0f0" stroke="red" points="1240,-129 1146,-129 1146,-110 1240,-110 1240,-129"/>
<text text-anchor="middle" x="1193" y="-117" font-family="Helvetica,sans-Serif" font-size="10.00">thorin/util/dbg.h</text>
</a>
</g>
</g>
<!-- Node5&#45;&gt;Node20 -->
<g id="edge21" class="edge">
<title>Node5&#45;&gt;Node20</title>
<path fill="none" stroke="#63b8ff" d="M715.15,-175.36C791.98,-167.56 977.13,-148.33 1132,-129 1133.25,-128.84 1134.52,-128.68 1135.8,-128.52"/>
<polygon fill="#63b8ff" stroke="#63b8ff" points="1136.27,-131.99 1145.73,-127.22 1135.36,-125.05 1136.27,-131.99"/>
</g>
<!-- Node26 -->
<g id="node23" class="node">
<title>Node26</title>
<g id="a_node23"><a xlink:href="print_8h.html" target="_top" xlink:title=" ">
<polygon fill="#fff0f0" stroke="red" points="1389,-74 1291,-74 1291,-55 1389,-55 1389,-74"/>
<text text-anchor="middle" x="1340" y="-62" font-family="Helvetica,sans-Serif" font-size="10.00">thorin/util/print.h</text>
</a>
</g>
</g>
<!-- Node5&#45;&gt;Node26 -->
<g id="edge31" class="edge">
<title>Node5&#45;&gt;Node26</title>
<path fill="none" stroke="#63b8ff" d="M715.03,-175.08C781.22,-167.67 926.55,-150.4 1048,-129 1059.99,-126.89 1211.41,-93.73 1291.32,-76.19"/>
<polygon fill="#63b8ff" stroke="#63b8ff" points="1292.15,-79.59 1301.17,-74.03 1290.65,-72.76 1292.15,-79.59"/>
</g>
<!-- Node30 -->
<g id="node25" class="node">
<title>Node30</title>
<g id="a_node25"><a xlink:href="hash_8h.html" target="_top" xlink:title=" ">
<polygon fill="#fff0f0" stroke="red" points="1124.5,-74 1025.5,-74 1025.5,-55 1124.5,-55 1124.5,-74"/>
<text text-anchor="middle" x="1075" y="-62" font-family="Helvetica,sans-Serif" font-size="10.00">thorin/util/hash.h</text>
</a>
</g>
</g>
<!-- Node5&#45;&gt;Node30 -->
<g id="edge30" class="edge">
<title>Node5&#45;&gt;Node30</title>
<path fill="none" stroke="#63b8ff" d="M715.08,-177.04C792.3,-172.34 970.79,-158.51 1023,-129 1041.93,-118.3 1056.76,-97.8 1065.66,-82.98"/>
<polygon fill="#63b8ff" stroke="#63b8ff" points="1068.74,-84.65 1070.64,-74.22 1062.66,-81.19 1068.74,-84.65"/>
</g>
<!-- Node36 -->
<g id="node26" class="node">
<title>Node36</title>
<g id="a_node26"><a xlink:href="util_8h.html" target="_top" xlink:title=" ">
<polygon fill="#fff0f0" stroke="red" points="1014,-129 922,-129 922,-110 1014,-110 1014,-129"/>
<text text-anchor="middle" x="968" y="-117" font-family="Helvetica,sans-Serif" font-size="10.00">thorin/util/util.h</text>
</a>
</g>
</g>
<!-- Node5&#45;&gt;Node36 -->
<g id="edge32" class="edge">
<title>Node5&#45;&gt;Node36</title>
<path fill="none" stroke="#63b8ff" d="M715.02,-171.71C765.55,-161.48 857.79,-142.81 915.83,-131.06"/>
<polygon fill="#63b8ff" stroke="#63b8ff" points="916.79,-134.44 925.9,-129.02 915.4,-127.58 916.79,-134.44"/>
</g>
<!-- Node11&#45;&gt;Node2 -->
<g id="edge14" class="edge">
<title>Node11&#45;&gt;Node2</title>
<path fill="none" stroke="#63b8ff" d="M605.8,-111.17C602.82,-110.77 599.87,-110.37 597,-110 531.5,-101.5 340.06,-79.87 254.35,-70.24"/>
<polygon fill="#63b8ff" stroke="#63b8ff" points="254.52,-66.74 244.19,-69.1 253.74,-73.7 254.52,-66.74"/>
</g>
<!-- Node11&#45;&gt;Node7 -->
<g id="edge20" class="edge">
<title>Node11&#45;&gt;Node7</title>
<path fill="none" stroke="#63b8ff" d="M605.82,-111.17C531.85,-100.35 398.59,-80.78 357.6,-73.74"/>
<polygon fill="#63b8ff" stroke="#63b8ff" points="358.19,-70.29 347.72,-71.93 356.93,-77.18 358.19,-70.29"/>
</g>
<!-- Node12 -->
<g id="node12" class="node">
<title>Node12</title>
<g id="a_node12"><a xlink:title=" ">
<polygon fill="#e0e0e0" stroke="#999999" points="659,-74 607,-74 607,-55 659,-55 659,-74"/>
<text text-anchor="middle" x="633" y="-62" font-family="Helvetica,sans-Serif" font-size="10.00">cassert</text>
</a>
</g>
</g>
<!-- Node11&#45;&gt;Node12 -->
<g id="edge11" class="edge">
<title>Node11&#45;&gt;Node12</title>
<path fill="none" stroke="#63b8ff" d="M652.2,-109.75C649.09,-102.57 644.58,-92.18 640.71,-83.27"/>
<polygon fill="#63b8ff" stroke="#63b8ff" points="643.92,-81.87 636.73,-74.09 637.5,-84.66 643.92,-81.87"/>
</g>
<!-- Node13 -->
<g id="node13" class="node">
<title>Node13</title>
<g id="a_node13"><a xlink:title=" ">
<polygon fill="#e0e0e0" stroke="#999999" points="730.5,-74 677.5,-74 677.5,-55 730.5,-55 730.5,-74"/>
<text text-anchor="middle" x="704" y="-62" font-family="Helvetica,sans-Serif" font-size="10.00">cstddef</text>
</a>
</g>
</g>
<!-- Node11&#45;&gt;Node13 -->
<g id="edge12" class="edge">
<title>Node11&#45;&gt;Node13</title>
<path fill="none" stroke="#63b8ff" d="M663.93,-109.75C670.85,-102.11 681.07,-90.82 689.45,-81.56"/>
<polygon fill="#63b8ff" stroke="#63b8ff" points="692.1,-83.85 696.22,-74.09 686.91,-79.15 692.1,-83.85"/>
</g>
<!-- Node14 -->
<g id="node14" class="node">
<title>Node14</title>
<g id="a_node14"><a xlink:title=" ">
<polygon fill="#e0e0e0" stroke="#999999" points="416,-74 366,-74 366,-55 416,-55 416,-74"/>
<text text-anchor="middle" x="391" y="-62" font-family="Helvetica,sans-Serif" font-size="10.00">cstring</text>
</a>
</g>
</g>
<!-- Node11&#45;&gt;Node14 -->
<g id="edge13" class="edge">
<title>Node11&#45;&gt;Node14</title>
<path fill="none" stroke="#63b8ff" d="M608.29,-109.95C561.68,-101.43 488.79,-87.69 426,-74 425.9,-73.98 425.8,-73.96 425.7,-73.93"/>
<polygon fill="#63b8ff" stroke="#63b8ff" points="426.73,-70.58 416.2,-71.77 425.17,-77.4 426.73,-70.58"/>
</g>
<!-- Node15 -->
<g id="node15" class="node">
<title>Node15</title>
<g id="a_node15"><a xlink:title=" ">
<polygon fill="#e0e0e0" stroke="#999999" points="1154.5,-19 1089.5,-19 1089.5,0 1154.5,0 1154.5,-19"/>
<text text-anchor="middle" x="1122" y="-7" font-family="Helvetica,sans-Serif" font-size="10.00">functional</text>
</a>
</g>
</g>
<!-- Node11&#45;&gt;Node15 -->
<g id="edge15" class="edge">
<title>Node11&#45;&gt;Node15</title>
<path fill="none" stroke="#63b8ff" d="M681.29,-109.95C705.95,-101.44 744.4,-87.7 777,-74 795.14,-66.37 798.16,-60.71 817,-55 907.83,-27.48 1019.19,-16.74 1079.04,-12.73"/>
<polygon fill="#63b8ff" stroke="#63b8ff" points="1079.5,-16.21 1089.25,-12.08 1079.05,-9.22 1079.5,-16.21"/>
</g>
<!-- Node16 -->
<g id="node16" class="node">
<title>Node16</title>
<g id="a_node16"><a xlink:title=" ">
<polygon fill="#e0e0e0" stroke="#999999" points="588.5,-74 505.5,-74 505.5,-55 588.5,-55 588.5,-74"/>
<text text-anchor="middle" x="547" y="-62" font-family="Helvetica,sans-Serif" font-size="10.00">initializer_list</text>
</a>
</g>
</g>
<!-- Node11&#45;&gt;Node16 -->
<g id="edge16" class="edge">
<title>Node11&#45;&gt;Node16</title>
<path fill="none" stroke="#63b8ff" d="M638.49,-109.98C621.03,-101.5 593.99,-88.35 573.83,-78.54"/>
<polygon fill="#63b8ff" stroke="#63b8ff" points="575.36,-75.4 564.83,-74.17 572.29,-81.69 575.36,-75.4"/>
</g>
<!-- Node17 -->
<g id="node17" class="node">
<title>Node17</title>
<g id="a_node17"><a xlink:title=" ">
<polygon fill="#e0e0e0" stroke="#999999" points="487.5,-74 434.5,-74 434.5,-55 487.5,-55 487.5,-74"/>
<text text-anchor="middle" x="461" y="-62" font-family="Helvetica,sans-Serif" font-size="10.00">iterator</text>
</a>
</g>
</g>
<!-- Node11&#45;&gt;Node17 -->
<g id="edge17" class="edge">
<title>Node11&#45;&gt;Node17</title>
<path fill="none" stroke="#63b8ff" d="M624.67,-109.98C589.93,-100.54 533.98,-85.33 497.34,-75.38"/>
<polygon fill="#63b8ff" stroke="#63b8ff" points="498.12,-71.96 487.55,-72.72 496.29,-78.72 498.12,-71.96"/>
</g>
<!-- Node18 -->
<g id="node18" class="node">
<title>Node18</title>
<g id="a_node18"><a xlink:title=" ">
<polygon fill="#e0e0e0" stroke="#999999" points="927,-19 877,-19 877,0 927,0 927,-19"/>
<text text-anchor="middle" x="902" y="-7" font-family="Helvetica,sans-Serif" font-size="10.00">ranges</text>
</a>
</g>
</g>
<!-- Node11&#45;&gt;Node18 -->
<g id="edge18" class="edge">
<title>Node11&#45;&gt;Node18</title>
<path fill="none" stroke="#63b8ff" d="M671.78,-109.93C695.54,-97.18 742.09,-72.82 783,-55 810.78,-42.9 843.01,-30.97 866.92,-22.52"/>
<polygon fill="#63b8ff" stroke="#63b8ff" points="868.34,-25.73 876.62,-19.11 866.02,-19.12 868.34,-25.73"/>
</g>
<!-- Node19 -->
<g id="node19" class="node">
<title>Node19</title>
<g id="a_node19"><a xlink:title=" ">
<polygon fill="#e0e0e0" stroke="#999999" points="894.5,-74 825.5,-74 825.5,-55 894.5,-55 894.5,-74"/>
<text text-anchor="middle" x="860" y="-62" font-family="Helvetica,sans-Serif" font-size="10.00">type_traits</text>
</a>
</g>
</g>
<!-- Node11&#45;&gt;Node19 -->
<g id="edge19" class="edge">
<title>Node11&#45;&gt;Node19</title>
<path fill="none" stroke="#63b8ff" d="M688.78,-109.98C723.62,-100.93 778.87,-86.58 817.14,-76.64"/>
<polygon fill="#63b8ff" stroke="#63b8ff" points="818.17,-79.98 826.97,-74.08 816.41,-73.21 818.17,-79.98"/>
</g>
<!-- Node21 -->
<g id="node21" class="node">
<title>Node21</title>
<g id="a_node21"><a xlink:title=" ">
<polygon fill="#e0e0e0" stroke="#999999" points="1211,-74 1143,-74 1143,-55 1211,-55 1211,-74"/>
<text text-anchor="middle" x="1177" y="-62" font-family="Helvetica,sans-Serif" font-size="10.00">filesystem</text>
</a>
</g>
</g>
<!-- Node20&#45;&gt;Node21 -->
<g id="edge22" class="edge">
<title>Node20&#45;&gt;Node21</title>
<path fill="none" stroke="#63b8ff" d="M1190.36,-109.75C1188.24,-102.72 1185.19,-92.62 1182.54,-83.84"/>
<polygon fill="#63b8ff" stroke="#63b8ff" points="1185.83,-82.65 1179.59,-74.09 1179.13,-84.67 1185.83,-82.65"/>
</g>
<!-- Node22 -->
<g id="node22" class="node">
<title>Node22</title>
<g id="a_node22"><a xlink:title=" ">
<polygon fill="#e0e0e0" stroke="#999999" points="1460.5,-74 1407.5,-74 1407.5,-55 1460.5,-55 1460.5,-74"/>
<text text-anchor="middle" x="1434" y="-62" font-family="Helvetica,sans-Serif" font-size="10.00">fe/loc.h</text>
</a>
</g>
</g>
<!-- Node20&#45;&gt;Node22 -->
<g id="edge23" class="edge">
<title>Node20&#45;&gt;Node22</title>
<path fill="none" stroke="#63b8ff" d="M1233.5,-109.93C1272.79,-101.58 1334.34,-88.35 1397.18,-74.15"/>
<polygon fill="#63b8ff" stroke="#63b8ff" points="1398.3,-77.49 1407.28,-71.87 1396.75,-70.66 1398.3,-77.49"/>
</g>
<!-- Node20&#45;&gt;Node26 -->
<g id="edge24" class="edge">
<title>Node20&#45;&gt;Node26</title>
<path fill="none" stroke="#63b8ff" d="M1216.62,-109.98C1240.9,-101.23 1278.95,-87.51 1306.37,-77.62"/>
<polygon fill="#63b8ff" stroke="#63b8ff" points="1307.73,-80.85 1315.95,-74.17 1305.36,-74.27 1307.73,-80.85"/>
</g>
<!-- Node26&#45;&gt;Node3 -->
<g id="edge28" class="edge">
<title>Node26&#45;&gt;Node3</title>
<path fill="none" stroke="#63b8ff" d="M1291,-55.94C1287.96,-55.59 1284.94,-55.27 1282,-55 1048.4,-33.57 292.54,-15.08 127.16,-11.23"/>
<polygon fill="#63b8ff" stroke="#63b8ff" points="127.21,-7.73 117.14,-11 127.05,-14.73 127.21,-7.73"/>
</g>
<!-- Node26&#45;&gt;Node8 -->
<g id="edge29" class="edge">
<title>Node26&#45;&gt;Node8</title>
<path fill="none" stroke="#63b8ff" d="M1290.99,-56C1287.95,-55.63 1284.94,-55.3 1282,-55 992.75,-25.87 642.97,-14.72 521.27,-11.54"/>
<polygon fill="#63b8ff" stroke="#63b8ff" points="521.3,-8.04 511.22,-11.29 521.12,-15.04 521.3,-8.04"/>
</g>
<!-- Node26&#45;&gt;Node15 -->
<g id="edge25" class="edge">
<title>Node26&#45;&gt;Node15</title>
<path fill="none" stroke="#63b8ff" d="M1304.97,-54.98C1266.81,-45.71 1205.72,-30.85 1164.76,-20.89"/>
<polygon fill="#63b8ff" stroke="#63b8ff" points="1165.34,-17.44 1154.8,-18.47 1163.69,-24.24 1165.34,-17.44"/>
</g>
<!-- Node26&#45;&gt;Node18 -->
<g id="edge26" class="edge">
<title>Node26&#45;&gt;Node18</title>
<path fill="none" stroke="#63b8ff" d="M1290.97,-56.21C1287.93,-55.79 1284.93,-55.39 1282,-55 1155.42,-38.32 1004.69,-21.6 937.44,-14.3"/>
<polygon fill="#63b8ff" stroke="#63b8ff" points="937.7,-10.81 927.38,-13.22 936.95,-17.77 937.7,-10.81"/>
</g>
<!-- Node29 -->
<g id="node24" class="node">
<title>Node29</title>
<g id="a_node24"><a xlink:title=" ">
<polygon fill="#e0e0e0" stroke="#999999" points="1442,-19 1386,-19 1386,0 1442,0 1442,-19"/>
<text text-anchor="middle" x="1414" y="-7" font-family="Helvetica,sans-Serif" font-size="10.00">sstream</text>
</a>
</g>
</g>
<!-- Node26&#45;&gt;Node29 -->
<g id="edge27" class="edge">
<title>Node26&#45;&gt;Node29</title>
<path fill="none" stroke="#63b8ff" d="M1351.89,-54.98C1363.15,-46.92 1380.29,-34.65 1393.71,-25.03"/>
<polygon fill="#63b8ff" stroke="#63b8ff" points="1395.8,-27.84 1401.89,-19.17 1391.73,-22.15 1395.8,-27.84"/>
</g>
<!-- Node36&#45;&gt;Node6 -->
<g id="edge33" class="edge">
<title>Node36&#45;&gt;Node6</title>
<path fill="none" stroke="#63b8ff" d="M963.54,-109.75C959.88,-102.57 954.59,-92.18 950.05,-83.27"/>
<polygon fill="#63b8ff" stroke="#63b8ff" points="953.03,-81.41 945.38,-74.09 946.8,-84.59 953.03,-81.41"/>
</g>
<!-- Node36&#45;&gt;Node8 -->
<g id="edge36" class="edge">
<title>Node36&#45;&gt;Node8</title>
<path fill="none" stroke="#63b8ff" d="M973.22,-109.85C980.63,-96.33 991.86,-70.15 978,-55 947.46,-21.62 638.02,-13.12 521.27,-11.1"/>
<polygon fill="#63b8ff" stroke="#63b8ff" points="521.29,-7.6 511.24,-10.93 521.18,-14.59 521.29,-7.6"/>
</g>
<!-- Node36&#45;&gt;Node19 -->
<g id="edge35" class="edge">
<title>Node36&#45;&gt;Node19</title>
<path fill="none" stroke="#63b8ff" d="M950.65,-109.98C933.43,-101.54 906.8,-88.47 886.85,-78.68"/>
<polygon fill="#63b8ff" stroke="#63b8ff" points="888.19,-75.43 877.67,-74.17 885.1,-81.72 888.19,-75.43"/>
</g>
<!-- Node36&#45;&gt;Node30 -->
<g id="edge37" class="edge">
<title>Node36&#45;&gt;Node30</title>
<path fill="none" stroke="#63b8ff" d="M985.19,-109.98C1002.25,-101.54 1028.63,-88.47 1048.4,-78.68"/>
<polygon fill="#63b8ff" stroke="#63b8ff" points="1050.09,-81.75 1057.5,-74.17 1046.98,-75.47 1050.09,-81.75"/>
</g>
<!-- Node38 -->
<g id="node27" class="node">
<title>Node38</title>
<g id="a_node27"><a xlink:title=" ">
<polygon fill="#e0e0e0" stroke="#999999" points="1272.5,-74 1229.5,-74 1229.5,-55 1272.5,-55 1272.5,-74"/>
<text text-anchor="middle" x="1251" y="-62" font-family="Helvetica,sans-Serif" font-size="10.00">stack</text>
</a>
</g>
</g>
<!-- Node36&#45;&gt;Node38 -->
<g id="edge34" class="edge">
<title>Node36&#45;&gt;Node38</title>
<path fill="none" stroke="#63b8ff" d="M1014.24,-111.65C1062.9,-104.16 1141.89,-91.16 1219.44,-73.93"/>
<polygon fill="#63b8ff" stroke="#63b8ff" points="1220.39,-77.31 1229.38,-71.7 1218.86,-70.48 1220.39,-77.31"/>
</g>
<!-- Node42 -->
<g id="node29" class="node">
<title>Node42</title>
<g id="a_node29"><a xlink:href="world_8h.html" target="_top" xlink:title=" ">
<polygon fill="white" stroke="#666666" points="709,-371 625,-371 625,-352 709,-352 709,-371"/>
<text text-anchor="middle" x="667" y="-359" font-family="Helvetica,sans-Serif" font-size="10.00">thorin/world.h</text>
</a>
</g>
</g>
<!-- Node41&#45;&gt;Node42 -->
<g id="edge39" class="edge">
<title>Node41&#45;&gt;Node42</title>
<path fill="none" stroke="#63b8ff" d="M465.56,-406.98C507.07,-397.82 573.21,-383.21 618.29,-373.26"/>
<polygon fill="#63b8ff" stroke="#63b8ff" points="619.13,-376.66 628.14,-371.08 617.62,-369.82 619.13,-376.66"/>
</g>
<!-- Node58 -->
<g id="node41" class="node">
<title>Node58</title>
<g id="a_node41"><a xlink:href="autodiff_2autogen_8h.html" target="_top" xlink:title=" ">
<polygon fill="white" stroke="#666666" points="401.5,-371 254.5,-371 254.5,-352 401.5,-352 401.5,-371"/>
<text text-anchor="middle" x="328" y="-359" font-family="Helvetica,sans-Serif" font-size="10.00">dialects/autodiff/autogen.h</text>
</a>
</g>
</g>
<!-- Node41&#45;&gt;Node58 -->
<g id="edge69" class="edge">
<title>Node41&#45;&gt;Node58</title>
<path fill="none" stroke="#63b8ff" d="M411.09,-406.98C395.45,-398.61 371.34,-385.7 353.12,-375.95"/>
<polygon fill="#63b8ff" stroke="#63b8ff" points="354.66,-372.8 344.2,-371.17 351.36,-378.98 354.66,-372.8"/>
</g>
<!-- Node42&#45;&gt;Node3 -->
<g id="edge41" class="edge">
<title>Node42&#45;&gt;Node3</title>
<path fill="none" stroke="#63b8ff" d="M624.85,-356.84C544.49,-349.6 372.3,-332.67 315,-316 248.95,-296.78 220.69,-301.43 175,-250 116.2,-183.81 100.39,-73 96.33,-29.17"/>
<polygon fill="#63b8ff" stroke="#63b8ff" points="99.81,-28.78 95.5,-19.1 92.83,-29.35 99.81,-28.78"/>
</g>
<!-- Node42&#45;&gt;Node4 -->
<g id="edge63" class="edge">
<title>Node42&#45;&gt;Node4</title>
<path fill="none" stroke="#63b8ff" d="M624.86,-353.84C575.55,-345.84 491.54,-331.53 420,-316 415.66,-315.06 411.14,-314.01 406.64,-312.93"/>
<polygon fill="#63b8ff" stroke="#63b8ff" points="407.45,-309.53 396.9,-310.53 405.77,-316.32 407.45,-309.53"/>
</g>
<!-- Node42&#45;&gt;Node19 -->
<g id="edge43" class="edge">
<title>Node42&#45;&gt;Node19</title>
<path fill="none" stroke="#63b8ff" d="M709.04,-358.32C798.75,-353.23 1002.49,-339.23 1023,-316 1031.82,-306 1027.17,-298.66 1023,-286 1015.18,-262.27 910.54,-129.13 873.16,-82.02"/>
<polygon fill="#63b8ff" stroke="#63b8ff" points="875.77,-79.69 866.81,-74.04 870.29,-84.04 875.77,-79.69"/>
</g>
<!-- Node42&#45;&gt;Node20 -->
<g id="edge64" class="edge">
<title>Node42&#45;&gt;Node20</title>
<path fill="none" stroke="#63b8ff" d="M709.12,-361.1C804.26,-361.68 1032.3,-358.48 1094,-316 1156.31,-273.1 1181.55,-178.9 1189.72,-138.97"/>
<polygon fill="#63b8ff" stroke="#63b8ff" points="1193.18,-139.51 1191.62,-129.04 1186.3,-138.2 1193.18,-139.51"/>
</g>
<!-- Node42&#45;&gt;Node29 -->
<g id="edge40" class="edge">
<title>Node42&#45;&gt;Node29</title>
<path fill="none" stroke="#63b8ff" d="M709.27,-359.45C790.34,-356.76 972.94,-347.44 1123,-316 1215.44,-296.63 1246.98,-303.23 1325,-250 1408.72,-192.88 1435.77,-169.39 1470,-74 1472.85,-66.05 1473.67,-62.61 1470,-55 1463.78,-42.12 1451.82,-31.82 1440.54,-24.38"/>
<polygon fill="#63b8ff" stroke="#63b8ff" points="1442.13,-21.25 1431.77,-19.04 1438.49,-27.23 1442.13,-21.25"/>
</g>
<!-- Node42&#45;&gt;Node30 -->
<g id="edge65" class="edge">
<title>Node42&#45;&gt;Node30</title>
<path fill="none" stroke="#63b8ff" d="M709.03,-360.2C794.71,-358.85 985.95,-351.78 1039,-316 1070.33,-294.87 1080,-279.29 1080,-241.5 1080,-241.5 1080,-241.5 1080,-179 1080,-145.58 1077.81,-106.67 1076.33,-84.18"/>
<polygon fill="#63b8ff" stroke="#63b8ff" points="1079.81,-83.77 1075.63,-74.04 1072.82,-84.25 1079.81,-83.77"/>
</g>
<!-- Node43 -->
<g id="node30" class="node">
<title>Node43</title>
<g id="a_node30"><a xlink:title=" ">
<polygon fill="#e0e0e0" stroke="#999999" points="797.5,-310.5 724.5,-310.5 724.5,-291.5 797.5,-291.5 797.5,-310.5"/>
<text text-anchor="middle" x="761" y="-298.5" font-family="Helvetica,sans-Serif" font-size="10.00">string_view</text>
</a>
</g>
</g>
<!-- Node42&#45;&gt;Node43 -->
<g id="edge42" class="edge">
<title>Node42&#45;&gt;Node43</title>
<path fill="none" stroke="#63b8ff" d="M680.87,-351.87C696,-342.45 720.46,-327.23 738.38,-316.08"/>
<polygon fill="#63b8ff" stroke="#63b8ff" points="740.43,-318.92 747.07,-310.67 736.73,-312.98 740.43,-318.92"/>
</g>
<!-- Node44 -->
<g id="node31" class="node">
<title>Node44</title>
<g id="a_node31"><a xlink:title=" ">
<polygon fill="#e0e0e0" stroke="#999999" points="434,-195 320,-195 320,-165 434,-165 434,-195"/>
<text text-anchor="start" x="328" y="-183" font-family="Helvetica,sans-Serif" font-size="10.00">absl/container/btree</text>
<text text-anchor="middle" x="377" y="-172" font-family="Helvetica,sans-Serif" font-size="10.00">_map.h</text>
</a>
</g>
</g>
<!-- Node42&#45;&gt;Node44 -->
<g id="edge44" class="edge">
<title>Node42&#45;&gt;Node44</title>
<path fill="none" stroke="#63b8ff" d="M624.9,-356.1C587.75,-350.81 533.11,-339.5 491,-316 443.66,-289.58 407.36,-235.31 389.41,-204.22"/>
<polygon fill="#63b8ff" stroke="#63b8ff" points="392.39,-202.38 384.44,-195.38 386.29,-205.81 392.39,-202.38"/>
</g>
<!-- Node45 -->
<g id="node32" class="node">
<title>Node45</title>
<g id="a_node32"><a xlink:title=" ">
<polygon fill="#e0e0e0" stroke="#999999" points="930,-316 816,-316 816,-286 930,-286 930,-316"/>
<text text-anchor="start" x="824" y="-304" font-family="Helvetica,sans-Serif" font-size="10.00">absl/container/btree</text>
<text text-anchor="middle" x="873" y="-293" font-family="Helvetica,sans-Serif" font-size="10.00">_set.h</text>
</a>
</g>
</g>
<!-- Node42&#45;&gt;Node45 -->
<g id="edge45" class="edge">
<title>Node42&#45;&gt;Node45</title>
<path fill="none" stroke="#63b8ff" d="M696.95,-351.99C727.38,-343.35 775.32,-329.74 813.49,-318.9"/>
<polygon fill="#63b8ff" stroke="#63b8ff" points="814.81,-322.16 823.47,-316.06 812.9,-315.43 814.81,-322.16"/>
</g>
<!-- Node46 -->
<g id="node33" class="node">
<title>Node46</title>
<g id="a_node33"><a xlink:title=" ">
<polygon fill="#e0e0e0" stroke="#999999" points="1014,-310.5 948,-310.5 948,-291.5 1014,-291.5 1014,-310.5"/>
<text text-anchor="middle" x="981" y="-298.5" font-family="Helvetica,sans-Serif" font-size="10.00">fe/arena.h</text>
</a>
</g>
</g>
<!-- Node42&#45;&gt;Node46 -->
<g id="edge46" class="edge">
<title>Node42&#45;&gt;Node46</title>
<path fill="none" stroke="#63b8ff" d="M709.36,-355.7C763.22,-349.11 858.86,-335.78 939,-316 941.96,-315.27 945.02,-314.43 948.07,-313.53"/>
<polygon fill="#63b8ff" stroke="#63b8ff" points="949.16,-316.85 957.65,-310.52 947.06,-310.18 949.16,-316.85"/>
</g>
<!-- Node47 -->
<g id="node34" class="node">
<title>Node47</title>
<g id="a_node34"><a xlink:href="axiom_8h.html" target="_top" xlink:title=" ">
<polygon fill="white" stroke="#666666" points="192,-310.5 104,-310.5 104,-291.5 192,-291.5 192,-310.5"/>
<text text-anchor="middle" x="148" y="-298.5" font-family="Helvetica,sans-Serif" font-size="10.00">thorin/axiom.h</text>
</a>
</g>
</g>
<!-- Node42&#45;&gt;Node47 -->
<g id="edge47" class="edge">
<title>Node42&#45;&gt;Node47</title>
<path fill="none" stroke="#63b8ff" d="M624.97,-355.76C531.43,-345.22 306.17,-319.83 202.23,-308.11"/>
<polygon fill="#63b8ff" stroke="#63b8ff" points="202.59,-304.63 192.26,-306.99 201.8,-311.59 202.59,-304.63"/>
</g>
<!-- Node50 -->
<g id="node36" class="node">
<title>Node50</title>
<g id="a_node36"><a xlink:href="check_8h.html" target="_top" xlink:title=" ">
<polygon fill="#fff0f0" stroke="red" points="722,-250 636,-250 636,-231 722,-231 722,-250"/>
<text text-anchor="middle" x="679" y="-238" font-family="Helvetica,sans-Serif" font-size="10.00">thorin/check.h</text>
</a>
</g>
</g>
<!-- Node42&#45;&gt;Node50 -->
<g id="edge55" class="edge">
<title>Node42&#45;&gt;Node50</title>
<path fill="none" stroke="#63b8ff" d="M667.86,-351.94C669.78,-332.91 674.44,-286.69 677.09,-260.47"/>
<polygon fill="#63b8ff" stroke="#63b8ff" points="680.59,-260.6 678.11,-250.3 673.63,-259.9 680.59,-260.6"/>
</g>
<!-- Node52 -->
<g id="node37" class="node">
<title>Node52</title>
<g id="a_node37"><a xlink:href="flags_8h.html" target="_top" xlink:title=" ">
<polygon fill="#fff0f0" stroke="red" points="512,-250 432,-250 432,-231 512,-231 512,-250"/>
<text text-anchor="middle" x="472" y="-238" font-family="Helvetica,sans-Serif" font-size="10.00">thorin/flags.h</text>
</a>
</g>
</g>
<!-- Node42&#45;&gt;Node52 -->
<g id="edge57" class="edge">
<title>Node42&#45;&gt;Node52</title>
<path fill="none" stroke="#63b8ff" d="M624.83,-355.47C593.63,-350.01 551.44,-338.78 521,-316 501.5,-301.41 487.46,-276.61 479.53,-259.66"/>
<polygon fill="#63b8ff" stroke="#63b8ff" points="482.64,-258.02 475.4,-250.29 476.23,-260.85 482.64,-258.02"/>
</g>
<!-- Node53 -->
<g id="node38" class="node">
<title>Node53</title>
<g id="a_node38"><a xlink:href="lam_8h.html" target="_top" xlink:title=" ">
<polygon fill="#fff0f0" stroke="red" points="816,-250 740,-250 740,-231 816,-231 816,-250"/>
<text text-anchor="middle" x="778" y="-238" font-family="Helvetica,sans-Serif" font-size="10.00">thorin/lam.h</text>
</a>
</g>
</g>
<!-- Node42&#45;&gt;Node53 -->
<g id="edge59" class="edge">
<title>Node42&#45;&gt;Node53</title>
<path fill="none" stroke="#63b8ff" d="M671.27,-351.97C678.87,-337.33 695.84,-306.99 716,-286 727.26,-274.27 741.97,-263.56 754.24,-255.59"/>
<polygon fill="#63b8ff" stroke="#63b8ff" points="756.44,-258.34 763.05,-250.05 752.72,-252.41 756.44,-258.34"/>
</g>
<!-- Node55 -->
<g id="node39" class="node">
<title>Node55</title>
<g id="a_node39"><a xlink:href="lattice_8h.html" target="_top" xlink:title=" ">
<polygon fill="white" stroke="#666666" points="618,-250 530,-250 530,-231 618,-231 618,-250"/>
<text text-anchor="middle" x="574" y="-238" font-family="Helvetica,sans-Serif" font-size="10.00">thorin/lattice.h</text>
</a>
</g>
</g>
<!-- Node42&#45;&gt;Node55 -->
<g id="edge61" class="edge">
<title>Node42&#45;&gt;Node55</title>
<path fill="none" stroke="#63b8ff" d="M624.82,-352.43C588.9,-344.6 541.36,-331.63 530,-316 515.76,-296.4 536.93,-271.92 554.54,-256.5"/>
<polygon fill="#63b8ff" stroke="#63b8ff" points="556.79,-259.18 562.25,-250.09 552.32,-253.79 556.79,-259.18"/>
</g>
<!-- Node56 -->
<g id="node40" class="node">
<title>Node56</title>
<g id="a_node40"><a xlink:href="log_8h.html" target="_top" xlink:title=" ">
<polygon fill="#fff0f0" stroke="red" points="629.5,-310.5 538.5,-310.5 538.5,-291.5 629.5,-291.5 629.5,-310.5"/>
<text text-anchor="middle" x="584" y="-298.5" font-family="Helvetica,sans-Serif" font-size="10.00">thorin/util/log.h</text>
</a>
</g>
</g>
<!-- Node42&#45;&gt;Node56 -->
<g id="edge66" class="edge">
<title>Node42&#45;&gt;Node56</title>
<path fill="none" stroke="#63b8ff" d="M654.75,-351.87C641.64,-342.62 620.58,-327.78 604.85,-316.69"/>
<polygon fill="#63b8ff" stroke="#63b8ff" points="606.49,-313.57 596.3,-310.67 602.45,-319.29 606.49,-313.57"/>
</g>
<!-- Node47&#45;&gt;Node8 -->
<g id="edge48" class="edge">
<title>Node47&#45;&gt;Node8</title>
<path fill="none" stroke="#63b8ff" d="M145.52,-291.35C136.07,-256.3 105.96,-123.44 171,-55 206.01,-18.16 356.63,-11.47 432.69,-10.49"/>
<polygon fill="#63b8ff" stroke="#63b8ff" points="432.94,-13.98 442.91,-10.38 432.87,-6.99 432.94,-13.98"/>
</g>
<!-- Node48 -->
<g id="node35" class="node">
<title>Node48</title>
<g id="a_node35"><a xlink:href="plugin_8h.html" target="_top" xlink:title=" ">
<polygon fill="#fff0f0" stroke="red" points="271.5,-250 184.5,-250 184.5,-231 271.5,-231 271.5,-250"/>
<text text-anchor="middle" x="228" y="-238" font-family="Helvetica,sans-Serif" font-size="10.00">thorin/plugin.h</text>
</a>
</g>
</g>
<!-- Node47&#45;&gt;Node48 -->
<g id="edge49" class="edge">
<title>Node47&#45;&gt;Node48</title>
<path fill="none" stroke="#63b8ff" d="M159.8,-291.37C172.45,-282.12 192.74,-267.28 207.91,-256.19"/>
<polygon fill="#63b8ff" stroke="#63b8ff" points="210.14,-258.9 216.15,-250.17 206.01,-253.24 210.14,-258.9"/>
</g>
<!-- Node48&#45;&gt;Node3 -->
<g id="edge50" class="edge">
<title>Node48&#45;&gt;Node3</title>
<path fill="none" stroke="#63b8ff" d="M222.95,-230.8C203.32,-197.01 131.89,-74.02 105.18,-28.02"/>
<polygon fill="#63b8ff" stroke="#63b8ff" points="108.11,-26.1 100.06,-19.21 102.05,-29.61 108.11,-26.1"/>
</g>
<!-- Node48&#45;&gt;Node5 -->
<g id="edge54" class="edge">
<title>Node48&#45;&gt;Node5</title>
<path fill="none" stroke="#63b8ff" d="M271.65,-233.84C357.05,-222.76 545.47,-198.32 632.84,-186.99"/>
<polygon fill="#63b8ff" stroke="#63b8ff" points="633.51,-190.43 642.98,-185.67 632.61,-183.49 633.51,-190.43"/>
</g>
<!-- Node48&#45;&gt;Node7 -->
<g id="edge51" class="edge">
<title>Node48&#45;&gt;Node7</title>
<path fill="none" stroke="#63b8ff" d="M226.85,-230.72C224.39,-208.4 220.84,-148.55 247,-110 257.41,-94.66 275,-83.92 290.73,-76.84"/>
<polygon fill="#63b8ff" stroke="#63b8ff" points="292.33,-79.97 300.22,-72.9 289.64,-73.5 292.33,-79.97"/>
</g>
<!-- Node48&#45;&gt;Node10 -->
<g id="edge53" class="edge">
<title>Node48&#45;&gt;Node10</title>
<path fill="none" stroke="#63b8ff" d="M233.11,-230.94C244.67,-211.57 273.03,-164.02 288.51,-138.08"/>
<polygon fill="#63b8ff" stroke="#63b8ff" points="291.63,-139.68 293.75,-129.3 285.62,-136.1 291.63,-139.68"/>
</g>
<!-- Node48&#45;&gt;Node44 -->
<g id="edge52" class="edge">
<title>Node48&#45;&gt;Node44</title>
<path fill="none" stroke="#63b8ff" d="M249.67,-230.99C271.11,-222.57 304.58,-209.43 331.83,-198.73"/>
<polygon fill="#63b8ff" stroke="#63b8ff" points="333.15,-201.98 341.18,-195.06 330.59,-195.46 333.15,-201.98"/>
</g>
<!-- Node50&#45;&gt;Node5 -->
<g id="edge56" class="edge">
<title>Node50&#45;&gt;Node5</title>
<path fill="none" stroke="#63b8ff" d="M679,-230.87C679,-222.75 679,-210.31 679,-199.89"/>
<polygon fill="#63b8ff" stroke="#63b8ff" points="682.5,-199.67 679,-189.67 675.5,-199.67 682.5,-199.67"/>
</g>
<!-- Node52&#45;&gt;Node10 -->
<g id="edge58" class="edge">
<title>Node52&#45;&gt;Node10</title>
<path fill="none" stroke="#63b8ff" d="M471.06,-230.78C468.93,-215.3 462.3,-182.97 443,-165 429.26,-152.21 385.67,-139.77 350.02,-131.32"/>
<polygon fill="#63b8ff" stroke="#63b8ff" points="350.74,-127.89 340.2,-129.04 349.15,-134.71 350.74,-127.89"/>
</g>
<!-- Node53&#45;&gt;Node5 -->
<g id="edge60" class="edge">
<title>Node53&#45;&gt;Node5</title>
<path fill="none" stroke="#63b8ff" d="M763.39,-230.87C747.31,-221.36 721.22,-205.95 702.3,-194.77"/>
<polygon fill="#63b8ff" stroke="#63b8ff" points="704.06,-191.74 693.67,-189.67 700.5,-197.77 704.06,-191.74"/>
</g>
<!-- Node55&#45;&gt;Node5 -->
<g id="edge62" class="edge">
<title>Node55&#45;&gt;Node5</title>
<path fill="none" stroke="#63b8ff" d="M589.49,-230.87C606.63,-221.32 634.47,-205.81 654.56,-194.62"/>
<polygon fill="#63b8ff" stroke="#63b8ff" points="656.41,-197.59 663.44,-189.67 653,-191.48 656.41,-197.59"/>
</g>
<!-- Node56&#45;&gt;Node20 -->
<g id="edge68" class="edge">
<title>Node56&#45;&gt;Node20</title>
<path fill="none" stroke="#63b8ff" d="M629.74,-292.39C678.54,-283.84 757.9,-268.68 825,-250 952.32,-214.56 1099.36,-157.91 1162.08,-132.97"/>
<polygon fill="#63b8ff" stroke="#63b8ff" points="1163.76,-136.07 1171.75,-129.11 1161.17,-129.57 1163.76,-136.07"/>
</g>
<!-- Node56&#45;&gt;Node52 -->
<g id="edge67" class="edge">
<title>Node56&#45;&gt;Node52</title>
<path fill="none" stroke="#63b8ff" d="M567.47,-291.37C549.03,-281.73 518.96,-266.03 497.49,-254.81"/>
<polygon fill="#63b8ff" stroke="#63b8ff" points="499.08,-251.69 488.59,-250.17 495.84,-257.9 499.08,-251.69"/>
</g>
<!-- Node58&#45;&gt;Node47 -->
<g id="edge70" class="edge">
<title>Node58&#45;&gt;Node47</title>
<path fill="none" stroke="#63b8ff" d="M301.83,-351.99C270.77,-341.9 218.81,-325.01 183.98,-313.69"/>
<polygon fill="#63b8ff" stroke="#63b8ff" points="184.8,-310.28 174.21,-310.52 182.63,-316.94 184.8,-310.28"/>
</g>
<!-- Node58&#45;&gt;Node48 -->
<g id="edge71" class="edge">
<title>Node58&#45;&gt;Node48</title>
<path fill="none" stroke="#63b8ff" d="M298.45,-351.98C280.07,-345.17 257.44,-333.77 244,-316 231.93,-300.04 228.54,-276.93 227.78,-260.69"/>
<polygon fill="#63b8ff" stroke="#63b8ff" points="231.27,-260.22 227.61,-250.28 224.27,-260.33 231.27,-260.22"/>
</g>
<!-- Node59&#45;&gt;Node5 -->
<g id="edge73" class="edge">
<title>Node59&#45;&gt;Node5</title>
<path fill="none" stroke="#63b8ff" d="M1362.33,-461.71C1371.29,-419.27 1390.98,-293.1 1325,-231 1281.55,-190.1 866.31,-182.65 725.46,-181.3"/>
<polygon fill="#63b8ff" stroke="#63b8ff" points="725.45,-177.8 715.42,-181.21 725.38,-184.8 725.45,-177.8"/>
</g>
<!-- Node60 -->
<g id="node43" class="node">
<title>Node60</title>
<g id="a_node43"><a xlink:href="pass_8h.html" target="_top" xlink:title=" ">
<polygon fill="white" stroke="#666666" points="1492.5,-426 1387.5,-426 1387.5,-407 1492.5,-407 1492.5,-426"/>
<text text-anchor="middle" x="1440" y="-414" font-family="Helvetica,sans-Serif" font-size="10.00">thorin/pass/pass.h</text>
</a>
</g>
</g>
<!-- Node59&#45;&gt;Node60 -->
<g id="edge74" class="edge">
<title>Node59&#45;&gt;Node60</title>
<path fill="none" stroke="#63b8ff" d="M1378.61,-461.84C1390.97,-452.91 1406.9,-441.41 1419.43,-432.35"/>
<polygon fill="#63b8ff" stroke="#63b8ff" points="1421.8,-434.96 1427.86,-426.27 1417.71,-429.28 1421.8,-434.96"/>
</g>
<!-- Node60&#45;&gt;Node38 -->
<g id="edge75" class="edge">
<title>Node60&#45;&gt;Node38</title>
<path fill="none" stroke="#63b8ff" d="M1445.53,-406.77C1456.72,-388.24 1481,-343.27 1481,-302 1481,-302 1481,-302 1481,-239.5 1481,-188.88 1337.54,-109.69 1277.22,-78.62"/>
<polygon fill="#63b8ff" stroke="#63b8ff" points="1278.79,-75.49 1268.29,-74.06 1275.6,-81.73 1278.79,-75.49"/>
</g>
<!-- Node60&#45;&gt;Node42 -->
<g id="edge77" class="edge">
<title>Node60&#45;&gt;Node42</title>
<path fill="none" stroke="#63b8ff" d="M1387.48,-411.9C1246.42,-402.23 860.49,-375.77 719.48,-366.1"/>
<polygon fill="#63b8ff" stroke="#63b8ff" points="719.58,-362.6 709.36,-365.4 719.1,-369.58 719.58,-362.6"/>
</g>
<!-- Node61 -->
<g id="node44" class="node">
<title>Node61</title>
<g id="a_node44"><a xlink:title=" ">
<polygon fill="#e0e0e0" stroke="#999999" points="1452.5,-371 1387.5,-371 1387.5,-352 1452.5,-352 1452.5,-371"/>
<text text-anchor="middle" x="1420" y="-359" font-family="Helvetica,sans-Serif" font-size="10.00">typeindex</text>
</a>
</g>
</g>
<!-- Node60&#45;&gt;Node61 -->
<g id="edge76" class="edge">
<title>Node60&#45;&gt;Node61</title>
<path fill="none" stroke="#63b8ff" d="M1436.7,-406.75C1434.02,-399.65 1430.15,-389.4 1426.81,-380.56"/>
<polygon fill="#63b8ff" stroke="#63b8ff" points="1430.05,-379.21 1423.24,-371.09 1423.5,-381.68 1430.05,-379.21"/>
</g>
<!-- Node62&#45;&gt;Node42 -->
<g id="edge80" class="edge">
<title>Node62&#45;&gt;Node42</title>
<path fill="none" stroke="#63b8ff" d="M300.17,-408.46C382.44,-398.15 534.58,-379.09 614.63,-369.06"/>
<polygon fill="#63b8ff" stroke="#63b8ff" points="615.48,-372.48 624.97,-367.77 614.61,-365.54 615.48,-372.48"/>
</g>
<!-- Node62&#45;&gt;Node47 -->
<g id="edge79" class="edge">
<title>Node62&#45;&gt;Node47</title>
<path fill="none" stroke="#63b8ff" d="M239.88,-406.71C233.62,-393.9 220.89,-369.7 206,-352 194.84,-338.74 180.01,-326.02 168.14,-316.72"/>
<polygon fill="#63b8ff" stroke="#63b8ff" points="170.18,-313.88 160.11,-310.61 165.94,-319.45 170.18,-313.88"/>
</g>
<!-- Node63 -->
<g id="node46" class="node">
<title>Node63</title>
<g id="a_node46"><a xlink:href="core_2autogen_8h.html" target="_top" xlink:title=" ">
<polygon fill="white" stroke="#666666" points="197.5,-371 66.5,-371 66.5,-352 197.5,-352 197.5,-371"/>
<text text-anchor="middle" x="132" y="-359" font-family="Helvetica,sans-Serif" font-size="10.00">dialects/core/autogen.h</text>
</a>
</g>
</g>
<!-- Node62&#45;&gt;Node63 -->
<g id="edge81" class="edge">
<title>Node62&#45;&gt;Node63</title>
<path fill="none" stroke="#63b8ff" d="M226.01,-406.98C208.07,-398.5 180.28,-385.35 159.57,-375.54"/>
<polygon fill="#63b8ff" stroke="#63b8ff" points="160.86,-372.28 150.32,-371.17 157.86,-378.61 160.86,-372.28"/>
</g>
<!-- Node63&#45;&gt;Node47 -->
<g id="edge82" class="edge">
<title>Node63&#45;&gt;Node47</title>
<path fill="none" stroke="#63b8ff" d="M134.36,-351.87C136.61,-343.66 140.06,-331.04 142.93,-320.55"/>
<polygon fill="#63b8ff" stroke="#63b8ff" points="146.37,-321.24 145.63,-310.67 139.62,-319.39 146.37,-321.24"/>
</g>
<!-- Node63&#45;&gt;Node48 -->
<g id="edge83" class="edge">
<title>Node63&#45;&gt;Node48</title>
<path fill="none" stroke="#63b8ff" d="M121.95,-351.96C106.24,-337.57 79.22,-307.92 95,-286 112.99,-261.01 145.67,-249.85 174.12,-244.95"/>
<polygon fill="#63b8ff" stroke="#63b8ff" points="175.01,-248.36 184.38,-243.42 173.98,-241.44 175.01,-248.36"/>
</g>
<!-- Node65 -->
<g id="node48" class="node">
<title>Node65</title>
<g id="a_node48"><a xlink:href="scope_8h.html" target="_top" xlink:title=" ">
<polygon fill="white" stroke="#666666" points="1316,-250 1184,-250 1184,-231 1316,-231 1316,-250"/>
<text text-anchor="middle" x="1250" y="-238" font-family="Helvetica,sans-Serif" font-size="10.00">thorin/analyses/scope.h</text>
</a>
</g>
</g>
<!-- Node64&#45;&gt;Node65 -->
<g id="edge85" class="edge">
<title>Node64&#45;&gt;Node65</title>
<path fill="none" stroke="#63b8ff" d="M738.54,-472.46C845.35,-463.34 1064.78,-430.92 1203,-316 1221.5,-300.62 1235.02,-276 1242.68,-259.31"/>
<polygon fill="#63b8ff" stroke="#63b8ff" points="1245.91,-260.66 1246.69,-250.1 1239.49,-257.87 1245.91,-260.66"/>
</g>
<!-- Node66 -->
<g id="node49" class="node">
<title>Node66</title>
<g id="a_node49"><a xlink:href="rewrite_8h.html" target="_top" xlink:title=" ">
<polygon fill="white" stroke="#666666" points="722,-426 630,-426 630,-407 722,-407 722,-426"/>
<text text-anchor="middle" x="676" y="-414" font-family="Helvetica,sans-Serif" font-size="10.00">thorin/rewrite.h</text>
</a>
</g>
</g>
<!-- Node64&#45;&gt;Node66 -->
<g id="edge88" class="edge">
<title>Node64&#45;&gt;Node66</title>
<path fill="none" stroke="#63b8ff" d="M676,-467.37C676,-459.25 676,-446.81 676,-436.39"/>
<polygon fill="#63b8ff" stroke="#63b8ff" points="679.5,-436.17 676,-426.17 672.5,-436.17 679.5,-436.17"/>
</g>
<!-- Node67 -->
<g id="node50" class="node">
<title>Node67</title>
<g id="a_node50"><a xlink:href="direct_2autogen_8h.html" target="_top" xlink:title=" ">
<polygon fill="white" stroke="#666666" points="556.5,-371 419.5,-371 419.5,-352 556.5,-352 556.5,-371"/>
<text text-anchor="middle" x="488" y="-359" font-family="Helvetica,sans-Serif" font-size="10.00">dialects/direct/autogen.h</text>
</a>
</g>
</g>
<!-- Node64&#45;&gt;Node67 -->
<g id="edge91" class="edge">
<title>Node64&#45;&gt;Node67</title>
<path fill="none" stroke="#63b8ff" d="M661.87,-467.47C629.61,-448 550.32,-400.13 510.95,-376.36"/>
<polygon fill="#63b8ff" stroke="#63b8ff" points="512.66,-373.3 502.29,-371.13 509.05,-379.29 512.66,-373.3"/>
</g>
<!-- Node65&#45;&gt;Node5 -->
<g id="edge86" class="edge">
<title>Node65&#45;&gt;Node5</title>
<path fill="none" stroke="#63b8ff" d="M1183.94,-232.73C1066.98,-220.75 826.31,-196.09 725.27,-185.74"/>
<polygon fill="#63b8ff" stroke="#63b8ff" points="725.38,-182.23 715.08,-184.7 724.67,-189.2 725.38,-182.23"/>
</g>
<!-- Node65&#45;&gt;Node26 -->
<g id="edge87" class="edge">
<title>Node65&#45;&gt;Node26</title>
<path fill="none" stroke="#63b8ff" d="M1254.59,-230.63C1268.73,-203.29 1311.86,-119.9 1330.86,-83.18"/>
<polygon fill="#63b8ff" stroke="#63b8ff" points="1334.04,-84.63 1335.53,-74.14 1327.83,-81.42 1334.04,-84.63"/>
</g>
<!-- Node66&#45;&gt;Node42 -->
<g id="edge89" class="edge">
<title>Node66&#45;&gt;Node42</title>
<path fill="none" stroke="#63b8ff" d="M674.51,-406.75C673.33,-399.8 671.64,-389.85 670.16,-381.13"/>
<polygon fill="#63b8ff" stroke="#63b8ff" points="673.58,-380.36 668.46,-371.09 666.68,-381.53 673.58,-380.36"/>
</g>
<!-- Node66&#45;&gt;Node65 -->
<g id="edge90" class="edge">
<title>Node66&#45;&gt;Node65</title>
<path fill="none" stroke="#63b8ff" d="M722.32,-414.46C813.17,-410.69 1019.01,-393.51 1170,-316 1197.61,-301.83 1222.58,-275.37 1237.03,-258.1"/>
<polygon fill="#63b8ff" stroke="#63b8ff" points="1240,-259.99 1243.58,-250.02 1234.56,-255.58 1240,-259.99"/>
</g>
<!-- Node67&#45;&gt;Node47 -->
<g id="edge92" class="edge">
<title>Node67&#45;&gt;Node47</title>
<path fill="none" stroke="#63b8ff" d="M438.56,-351.99C375.62,-341.16 267.27,-322.52 202.16,-311.32"/>
<polygon fill="#63b8ff" stroke="#63b8ff" points="202.54,-307.83 192.09,-309.59 201.35,-314.73 202.54,-307.83"/>
</g>
<!-- Node67&#45;&gt;Node48 -->
<g id="edge93" class="edge">
<title>Node67&#45;&gt;Node48</title>
<path fill="none" stroke="#63b8ff" d="M427.91,-352C393.46,-345.45 350.21,-334.33 315,-316 286.2,-301.01 258.75,-274.83 242.64,-257.84"/>
<polygon fill="#63b8ff" stroke="#63b8ff" points="245.04,-255.29 235.68,-250.32 239.91,-260.04 245.04,-255.29"/>
</g>
</g>
</svg>
