<?xml version="1.0" encoding="UTF-8" standalone="no"?>
<!DOCTYPE svg PUBLIC "-//W3C//DTD SVG 1.1//EN"
 "http://www.w3.org/Graphics/SVG/1.1/DTD/svg11.dtd">
<!-- Generated by graphviz version 2.50.0 (20220203.2022)
 -->
<!-- Title: thorin/axiom.h Pages: 1 -->
<svg width="3624pt" height="285pt"
 viewBox="0.00 0.00 3623.50 285.00" xmlns="http://www.w3.org/2000/svg" xmlns:xlink="http://www.w3.org/1999/xlink">
<g id="graph0" class="graph" transform="scale(1 1) rotate(0) translate(4 281)">
<title>thorin/axiom.h</title>
<!-- Node1 -->
<g id="node1" class="node">
<title>Node1</title>
<g id="a_node1"><a xlink:title=" ">
<polygon fill="#bfbfbf" stroke="black" points="2196.5,-257.5 2196.5,-276.5 2273.5,-276.5 2273.5,-257.5 2196.5,-257.5"/>
<text text-anchor="middle" x="2235" y="-264.5" font-family="Helvetica,sans-Serif" font-size="10.00">thorin/axiom.h</text>
</a>
</g>
</g>
<!-- Node2 -->
<g id="node2" class="node">
<title>Node2</title>
<g id="a_node2"><a xlink:href="axiom_8cpp.html" target="_top" xlink:title=" ">
<polygon fill="none" stroke="black" points="2142.5,-201.5 2142.5,-220.5 2229.5,-220.5 2229.5,-201.5 2142.5,-201.5"/>
<text text-anchor="middle" x="2186" y="-208.5" font-family="Helvetica,sans-Serif" font-size="10.00">thorin/axiom.cpp</text>
</a>
</g>
</g>
<!-- Node1&#45;&gt;Node2 -->
<g id="edge1" class="edge">
<title>Node1&#45;&gt;Node2</title>
<path fill="none" stroke="midnightblue" d="M2219.97,-249.43C2211.38,-239.97 2200.96,-228.48 2193.94,-220.75"/>
<polygon fill="midnightblue" stroke="midnightblue" points="2217.6,-252.03 2226.91,-257.08 2222.78,-247.33 2217.6,-252.03"/>
</g>
<!-- Node3 -->
<g id="node3" class="node">
<title>Node3</title>
<g id="a_node3"><a xlink:href="world_8h.html" target="_top" xlink:title=" ">
<polygon fill="none" stroke="black" points="2248,-201.5 2248,-220.5 2322,-220.5 2322,-201.5 2248,-201.5"/>
<text text-anchor="middle" x="2285" y="-208.5" font-family="Helvetica,sans-Serif" font-size="10.00">thorin/world.h</text>
</a>
</g>
</g>
<!-- Node1&#45;&gt;Node3 -->
<g id="edge2" class="edge">
<title>Node1&#45;&gt;Node3</title>
<path fill="none" stroke="midnightblue" d="M2250.08,-249.72C2258.89,-240.2 2269.67,-228.56 2276.9,-220.75"/>
<polygon fill="midnightblue" stroke="midnightblue" points="2247.48,-247.37 2243.26,-257.08 2252.62,-252.12 2247.48,-247.37"/>
</g>
<!-- Node4 -->
<g id="node4" class="node">
<title>Node4</title>
<g id="a_node4"><a xlink:href="cfg_8cpp.html" target="_top" xlink:title=" ">
<polygon fill="none" stroke="black" points="589,-140 589,-159 705,-159 705,-140 589,-140"/>
<text text-anchor="middle" x="647" y="-147" font-family="Helvetica,sans-Serif" font-size="10.00">thorin/analyses/cfg.cpp</text>
</a>
</g>
</g>
<!-- Node3&#45;&gt;Node4 -->
<g id="edge3" class="edge">
<title>Node3&#45;&gt;Node4</title>
<path fill="none" stroke="midnightblue" d="M2237.91,-201.25C1562.56,-130.17 1383.5,-244.62 714,-165 703.01,-163.69 691.16,-161.42 680.53,-159.06"/>
<polygon fill="midnightblue" stroke="midnightblue" points="2237.57,-204.73 2247.88,-202.3 2238.31,-197.77 2237.57,-204.73"/>
</g>
<!-- Node5 -->
<g id="node5" class="node">
<title>Node5</title>
<g id="a_node5"><a xlink:href="deptree_8cpp.html" target="_top" xlink:title=" ">
<polygon fill="none" stroke="black" points="723.5,-140 723.5,-159 858.5,-159 858.5,-140 723.5,-140"/>
<text text-anchor="middle" x="791" y="-147" font-family="Helvetica,sans-Serif" font-size="10.00">thorin/analyses/deptree.cpp</text>
</a>
</g>
</g>
<!-- Node3&#45;&gt;Node5 -->
<g id="edge4" class="edge">
<title>Node3&#45;&gt;Node5</title>
<path fill="none" stroke="midnightblue" d="M2237.56,-201.2C1630.64,-136.56 1470.27,-229.2 868,-165 855.42,-163.66 841.82,-161.38 829.6,-159.02"/>
<polygon fill="midnightblue" stroke="midnightblue" points="2237.57,-204.72 2247.88,-202.31 2238.32,-197.76 2237.57,-204.72"/>
</g>
<!-- Node6 -->
<g id="node6" class="node">
<title>Node6</title>
<g id="a_node6"><a xlink:href="schedule_8cpp.html" target="_top" xlink:title=" ">
<polygon fill="none" stroke="black" points="877,-140 877,-159 1019,-159 1019,-140 877,-140"/>
<text text-anchor="middle" x="948" y="-147" font-family="Helvetica,sans-Serif" font-size="10.00">thorin/analyses/schedule.cpp</text>
</a>
</g>
</g>
<!-- Node3&#45;&gt;Node6 -->
<g id="edge5" class="edge">
<title>Node3&#45;&gt;Node6</title>
<path fill="none" stroke="midnightblue" d="M2237.56,-201.2C1701.41,-143.22 1559.68,-220.78 1028,-165 1015.08,-163.65 1001.12,-161.39 988.53,-159.06"/>
<polygon fill="midnightblue" stroke="midnightblue" points="2237.56,-204.72 2247.88,-202.33 2238.32,-197.76 2237.56,-204.72"/>
</g>
<!-- Node7 -->
<g id="node7" class="node">
<title>Node7</title>
<g id="a_node7"><a xlink:href="scope_8cpp.html" target="_top" xlink:title=" ">
<polygon fill="none" stroke="black" points="1813.5,-73 1813.5,-92 1942.5,-92 1942.5,-73 1813.5,-73"/>
<text text-anchor="middle" x="1878" y="-80" font-family="Helvetica,sans-Serif" font-size="10.00">thorin/analyses/scope.cpp</text>
</a>
</g>
</g>
<!-- Node3&#45;&gt;Node7 -->
<g id="edge6" class="edge">
<title>Node3&#45;&gt;Node7</title>
<path fill="none" stroke="midnightblue" d="M2237.79,-201.09C2129.22,-184.04 2094.84,-203.45 1997,-165 1951.55,-147.14 1906.3,-109.2 1887.31,-92.14"/>
<polygon fill="midnightblue" stroke="midnightblue" points="2237.39,-204.57 2247.83,-202.74 2238.52,-197.66 2237.39,-204.57"/>
</g>
<!-- Node8 -->
<g id="node8" class="node">
<title>Node8</title>
<g id="a_node8"><a xlink:href="emitter_8h.html" target="_top" xlink:title=" ">
<polygon fill="none" stroke="black" points="2237.5,-140 2237.5,-159 2332.5,-159 2332.5,-140 2237.5,-140"/>
<text text-anchor="middle" x="2285" y="-147" font-family="Helvetica,sans-Serif" font-size="10.00">thorin/be/emitter.h</text>
</a>
</g>
</g>
<!-- Node3&#45;&gt;Node8 -->
<g id="edge7" class="edge">
<title>Node3&#45;&gt;Node8</title>
<path fill="none" stroke="midnightblue" d="M2285,-191.32C2285,-180.5 2285,-167.4 2285,-159.01"/>
<polygon fill="midnightblue" stroke="midnightblue" points="2281.5,-191.48 2285,-201.48 2288.5,-191.48 2281.5,-191.48"/>
</g>
<!-- Node10 -->
<g id="node10" class="node">
<title>Node10</title>
<g id="a_node10"><a xlink:href="check_8cpp.html" target="_top" xlink:title=" ">
<polygon fill="none" stroke="black" points="2351,-140 2351,-159 2439,-159 2439,-140 2351,-140"/>
<text text-anchor="middle" x="2395" y="-147" font-family="Helvetica,sans-Serif" font-size="10.00">thorin/check.cpp</text>
</a>
</g>
</g>
<!-- Node3&#45;&gt;Node10 -->
<g id="edge9" class="edge">
<title>Node3&#45;&gt;Node10</title>
<path fill="none" stroke="midnightblue" d="M2309.57,-196.71C2330.87,-185.19 2361.07,-168.86 2379.27,-159.01"/>
<polygon fill="midnightblue" stroke="midnightblue" points="2307.89,-193.64 2300.76,-201.48 2311.22,-199.8 2307.89,-193.64"/>
</g>
<!-- Node11 -->
<g id="node11" class="node">
<title>Node11</title>
<g id="a_node11"><a xlink:href="debug_8cpp.html" target="_top" xlink:title=" ">
<polygon fill="none" stroke="black" points="2457,-140 2457,-159 2545,-159 2545,-140 2457,-140"/>
<text text-anchor="middle" x="2501" y="-147" font-family="Helvetica,sans-Serif" font-size="10.00">thorin/debug.cpp</text>
</a>
</g>
</g>
<!-- Node3&#45;&gt;Node11 -->
<g id="edge10" class="edge">
<title>Node3&#45;&gt;Node11</title>
<path fill="none" stroke="midnightblue" d="M2325.84,-198.75C2367.81,-187.19 2432.2,-169.45 2470.11,-159.01"/>
<polygon fill="midnightblue" stroke="midnightblue" points="2324.66,-195.44 2315.95,-201.48 2326.52,-202.19 2324.66,-195.44"/>
</g>
<!-- Node12 -->
<g id="node12" class="node">
<title>Node12</title>
<g id="a_node12"><a xlink:href="def_8cpp.html" target="_top" xlink:title=" ">
<polygon fill="none" stroke="black" points="1960.5,-73 1960.5,-92 2035.5,-92 2035.5,-73 1960.5,-73"/>
<text text-anchor="middle" x="1998" y="-80" font-family="Helvetica,sans-Serif" font-size="10.00">thorin/def.cpp</text>
</a>
</g>
</g>
<!-- Node3&#45;&gt;Node12 -->
<g id="edge11" class="edge">
<title>Node3&#45;&gt;Node12</title>
<path fill="none" stroke="midnightblue" d="M2237.86,-201.26C2174.67,-192.93 2050.41,-197.52 2016,-165 1995.57,-145.69 1995.77,-108.84 1997.06,-92.13"/>
<polygon fill="midnightblue" stroke="midnightblue" points="2237.4,-204.73 2247.82,-202.78 2238.46,-197.81 2237.4,-204.73"/>
</g>
<!-- Node13 -->
<g id="node13" class="node">
<title>Node13</title>
<g id="a_node13"><a xlink:href="lexer_8cpp.html" target="_top" xlink:title=" ">
<polygon fill="none" stroke="black" points="2562.5,-140 2562.5,-159 2655.5,-159 2655.5,-140 2562.5,-140"/>
<text text-anchor="middle" x="2609" y="-147" font-family="Helvetica,sans-Serif" font-size="10.00">thorin/fe/lexer.cpp</text>
</a>
</g>
</g>
<!-- Node3&#45;&gt;Node13 -->
<g id="edge12" class="edge">
<title>Node3&#45;&gt;Node13</title>
<path fill="none" stroke="midnightblue" d="M2332.14,-203.46C2386.04,-195.66 2476.81,-181.6 2554,-165 2562.01,-163.28 2570.61,-161.15 2578.57,-159.06"/>
<polygon fill="midnightblue" stroke="midnightblue" points="2331.59,-200 2322.19,-204.88 2332.59,-206.93 2331.59,-200"/>
</g>
<!-- Node14 -->
<g id="node14" class="node">
<title>Node14</title>
<g id="a_node14"><a xlink:href="parser_8h.html" target="_top" xlink:title=" ">
<polygon fill="none" stroke="black" points="1575.5,-140 1575.5,-159 1664.5,-159 1664.5,-140 1575.5,-140"/>
<text text-anchor="middle" x="1620" y="-147" font-family="Helvetica,sans-Serif" font-size="10.00">thorin/fe/parser.h</text>
</a>
</g>
</g>
<!-- Node3&#45;&gt;Node14 -->
<g id="edge13" class="edge">
<title>Node3&#45;&gt;Node14</title>
<path fill="none" stroke="midnightblue" d="M2237.69,-201.13C2016.64,-171.47 1765.28,-157.35 1664.77,-152.5"/>
<polygon fill="midnightblue" stroke="midnightblue" points="2237.48,-204.63 2247.86,-202.51 2238.42,-197.69 2237.48,-204.63"/>
</g>
<!-- Node17 -->
<g id="node17" class="node">
<title>Node17</title>
<g id="a_node17"><a xlink:href="lam_8cpp.html" target="_top" xlink:title=" ">
<polygon fill="none" stroke="black" points="2673.5,-140 2673.5,-159 2750.5,-159 2750.5,-140 2673.5,-140"/>
<text text-anchor="middle" x="2712" y="-147" font-family="Helvetica,sans-Serif" font-size="10.00">thorin/lam.cpp</text>
</a>
</g>
</g>
<!-- Node3&#45;&gt;Node17 -->
<g id="edge16" class="edge">
<title>Node3&#45;&gt;Node17</title>
<path fill="none" stroke="midnightblue" d="M2332.19,-207.17C2404.48,-202.22 2546.68,-190.04 2665,-165 2672.35,-163.44 2680.2,-161.24 2687.34,-159.03"/>
<polygon fill="midnightblue" stroke="midnightblue" points="2331.79,-203.69 2322.04,-207.85 2332.26,-210.68 2331.79,-203.69"/>
</g>
<!-- Node18 -->
<g id="node18" class="node">
<title>Node18</title>
<g id="a_node18"><a xlink:href="lattice_8cpp.html" target="_top" xlink:title=" ">
<polygon fill="none" stroke="black" points="2769,-140 2769,-159 2857,-159 2857,-140 2769,-140"/>
<text text-anchor="middle" x="2813" y="-147" font-family="Helvetica,sans-Serif" font-size="10.00">thorin/lattice.cpp</text>
</a>
</g>
</g>
<!-- Node3&#45;&gt;Node18 -->
<g id="edge17" class="edge">
<title>Node3&#45;&gt;Node18</title>
<path fill="none" stroke="midnightblue" d="M2332.47,-208.22C2418.38,-204.39 2605.12,-193.3 2760,-165 2768.35,-163.47 2777.3,-161.26 2785.43,-159.01"/>
<polygon fill="midnightblue" stroke="midnightblue" points="2332.09,-204.73 2322.25,-208.66 2332.39,-211.72 2332.09,-204.73"/>
</g>
<!-- Node19 -->
<g id="node19" class="node">
<title>Node19</title>
<g id="a_node19"><a xlink:href="normalize_8cpp.html" target="_top" xlink:title=" ">
<polygon fill="none" stroke="black" points="2875.5,-140 2875.5,-159 2978.5,-159 2978.5,-140 2875.5,-140"/>
<text text-anchor="middle" x="2927" y="-147" font-family="Helvetica,sans-Serif" font-size="10.00">thorin/normalize.cpp</text>
</a>
</g>
</g>
<!-- Node3&#45;&gt;Node19 -->
<g id="edge18" class="edge">
<title>Node3&#45;&gt;Node19</title>
<path fill="none" stroke="midnightblue" d="M2332.3,-208.83C2431.7,-205.84 2669.31,-195.8 2866,-165 2875.57,-163.5 2885.86,-161.29 2895.21,-159.05"/>
<polygon fill="midnightblue" stroke="midnightblue" points="2332.17,-205.34 2322.28,-209.13 2332.38,-212.33 2332.17,-205.34"/>
</g>
<!-- Node20 -->
<g id="node20" class="node">
<title>Node20</title>
<g id="a_node20"><a xlink:href="pass_8h.html" target="_top" xlink:title=" ">
<polygon fill="none" stroke="black" points="1037,-140 1037,-159 1133,-159 1133,-140 1037,-140"/>
<text text-anchor="middle" x="1085" y="-147" font-family="Helvetica,sans-Serif" font-size="10.00">thorin/pass/pass.h</text>
</a>
</g>
</g>
<!-- Node3&#45;&gt;Node20 -->
<g id="edge19" class="edge">
<title>Node3&#45;&gt;Node20</title>
<path fill="none" stroke="midnightblue" d="M2237.86,-201.3C2089.01,-186.66 1332.18,-159.25 1133.03,-152.19"/>
<polygon fill="midnightblue" stroke="midnightblue" points="2237.56,-204.79 2247.88,-202.37 2238.31,-197.83 2237.56,-204.79"/>
</g>
<!-- Node47 -->
<g id="node41" class="node">
<title>Node47</title>
<g id="a_node41"><a xlink:href="rewrite_8cpp.html" target="_top" xlink:title=" ">
<polygon fill="none" stroke="black" points="2168.5,-73 2168.5,-92 2259.5,-92 2259.5,-73 2168.5,-73"/>
<text text-anchor="middle" x="2214" y="-80" font-family="Helvetica,sans-Serif" font-size="10.00">thorin/rewrite.cpp</text>
</a>
</g>
</g>
<!-- Node3&#45;&gt;Node47 -->
<g id="edge59" class="edge">
<title>Node3&#45;&gt;Node47</title>
<path fill="none" stroke="midnightblue" d="M2238.05,-200.49C2218.48,-193.96 2197.63,-183.06 2186,-165 2170.61,-141.1 2193.49,-107.78 2206.31,-92.19"/>
<polygon fill="midnightblue" stroke="midnightblue" points="2237.23,-203.9 2247.81,-203.44 2239.25,-197.2 2237.23,-203.9"/>
</g>
<!-- Node48 -->
<g id="node42" class="node">
<title>Node48</title>
<g id="a_node42"><a xlink:href="rewrite_8h.html" target="_top" xlink:title=" ">
<polygon fill="none" stroke="black" points="2025,-140 2025,-159 2105,-159 2105,-140 2025,-140"/>
<text text-anchor="middle" x="2065" y="-147" font-family="Helvetica,sans-Serif" font-size="10.00">thorin/rewrite.h</text>
</a>
</g>
</g>
<!-- Node3&#45;&gt;Node48 -->
<g id="edge60" class="edge">
<title>Node3&#45;&gt;Node48</title>
<path fill="none" stroke="midnightblue" d="M2243.67,-198.82C2200.94,-187.26 2135.15,-169.47 2096.46,-159.01"/>
<polygon fill="midnightblue" stroke="midnightblue" points="2242.91,-202.24 2253.48,-201.48 2244.74,-195.49 2242.91,-202.24"/>
</g>
<!-- Node49 -->
<g id="node43" class="node">
<title>Node49</title>
<g id="a_node43"><a xlink:href="cleanup__world_8cpp.html" target="_top" xlink:title=" ">
<polygon fill="none" stroke="black" points="2278,-67.5 2278,-97.5 2400,-97.5 2400,-67.5 2278,-67.5"/>
<text text-anchor="start" x="2286" y="-85.5" font-family="Helvetica,sans-Serif" font-size="10.00">thorin/transform/cleanup</text>
<text text-anchor="middle" x="2339" y="-74.5" font-family="Helvetica,sans-Serif" font-size="10.00">_world.cpp</text>
</a>
</g>
</g>
<!-- Node3&#45;&gt;Node49 -->
<g id="edge71" class="edge">
<title>Node3&#45;&gt;Node49</title>
<path fill="none" stroke="midnightblue" d="M2238.22,-197.85C2221.62,-191.04 2204.67,-180.65 2195,-165 2187.76,-153.28 2187.03,-145.24 2195,-134 2205.15,-119.68 2243.37,-106.66 2277.88,-97.42"/>
<polygon fill="midnightblue" stroke="midnightblue" points="2237.31,-201.24 2247.9,-201.46 2239.75,-194.68 2237.31,-201.24"/>
</g>
<!-- Node50 -->
<g id="node44" class="node">
<title>Node50</title>
<g id="a_node44"><a xlink:href="world_8cpp.html" target="_top" xlink:title=" ">
<polygon fill="none" stroke="black" points="2418.5,-73 2418.5,-92 2503.5,-92 2503.5,-73 2418.5,-73"/>
<text text-anchor="middle" x="2461" y="-80" font-family="Helvetica,sans-Serif" font-size="10.00">thorin/world.cpp</text>
</a>
</g>
</g>
<!-- Node3&#45;&gt;Node50 -->
<g id="edge77" class="edge">
<title>Node3&#45;&gt;Node50</title>
<path fill="none" stroke="midnightblue" d="M2258.33,-196.22C2246.75,-188.7 2234.4,-178.2 2228,-165 2221.99,-152.6 2219.26,-144.65 2228,-134 2280.03,-70.6 2329.22,-117.03 2409,-98 2416.48,-96.22 2424.5,-94.09 2431.95,-92.02"/>
<polygon fill="midnightblue" stroke="midnightblue" points="2256.55,-199.23 2266.92,-201.39 2260.16,-193.23 2256.55,-199.23"/>
</g>
<!-- Node51 -->
<g id="node45" class="node">
<title>Node51</title>
<g id="a_node45"><a xlink:href="stream_8cpp.html" target="_top" xlink:title=" ">
<polygon fill="none" stroke="black" points="2997,-140 2997,-159 3089,-159 3089,-140 2997,-140"/>
<text text-anchor="middle" x="3043" y="-147" font-family="Helvetica,sans-Serif" font-size="10.00">thorin/stream.cpp</text>
</a>
</g>
</g>
<!-- Node3&#45;&gt;Node51 -->
<g id="edge70" class="edge">
<title>Node3&#45;&gt;Node51</title>
<path fill="none" stroke="midnightblue" d="M2332.36,-210.12C2446.16,-209.73 2743.63,-204.65 2988,-165 2996.87,-163.56 3006.38,-161.31 3014.96,-159.01"/>
<polygon fill="midnightblue" stroke="midnightblue" points="2332.24,-206.62 2322.25,-210.15 2332.26,-213.62 2332.24,-206.62"/>
</g>
<!-- Node52 -->
<g id="node46" class="node">
<title>Node52</title>
<g id="a_node46"><a xlink:href="closure__conv_8h.html" target="_top" xlink:title=" ">
<polygon fill="none" stroke="black" points="3107.5,-134.5 3107.5,-164.5 3226.5,-164.5 3226.5,-134.5 3107.5,-134.5"/>
<text text-anchor="start" x="3115.5" y="-152.5" font-family="Helvetica,sans-Serif" font-size="10.00">thorin/transform/closure</text>
<text text-anchor="middle" x="3167" y="-141.5" font-family="Helvetica,sans-Serif" font-size="10.00">_conv.h</text>
</a>
</g>
</g>
<!-- Node3&#45;&gt;Node52 -->
<g id="edge72" class="edge">
<title>Node3&#45;&gt;Node52</title>
<path fill="none" stroke="midnightblue" d="M2332.07,-209.89C2457.27,-209.05 2808.67,-203.18 3098,-165 3101.03,-164.6 3104.13,-164.14 3107.26,-163.63"/>
<polygon fill="midnightblue" stroke="midnightblue" points="2332.03,-206.39 2322.06,-209.95 2332.08,-213.39 2332.03,-206.39"/>
</g>
<!-- Node54 -->
<g id="node48" class="node">
<title>Node54</title>
<g id="a_node48"><a xlink:href="mangle_8cpp.html" target="_top" xlink:title=" ">
<polygon fill="none" stroke="black" points="3244.5,-140 3244.5,-159 3381.5,-159 3381.5,-140 3244.5,-140"/>
<text text-anchor="middle" x="3313" y="-147" font-family="Helvetica,sans-Serif" font-size="10.00">thorin/transform/mangle.cpp</text>
</a>
</g>
</g>
<!-- Node3&#45;&gt;Node54 -->
<g id="edge74" class="edge">
<title>Node3&#45;&gt;Node54</title>
<path fill="none" stroke="midnightblue" d="M2332.63,-210.08C2472.05,-209.81 2891.21,-205.42 3236,-165 3248.29,-163.56 3261.58,-161.31 3273.59,-159.01"/>
<polygon fill="midnightblue" stroke="midnightblue" points="2332.31,-206.58 2322.31,-210.09 2332.32,-213.58 2332.31,-206.58"/>
</g>
<!-- Node55 -->
<g id="node49" class="node">
<title>Node55</title>
<g id="a_node49"><a xlink:href="partial__evaluation_8cpp.html" target="_top" xlink:title=" ">
<polygon fill="none" stroke="black" points="3400,-134.5 3400,-164.5 3514,-164.5 3514,-134.5 3400,-134.5"/>
<text text-anchor="start" x="3408" y="-152.5" font-family="Helvetica,sans-Serif" font-size="10.00">thorin/transform/partial</text>
<text text-anchor="middle" x="3457" y="-141.5" font-family="Helvetica,sans-Serif" font-size="10.00">_evaluation.cpp</text>
</a>
</g>
</g>
<!-- Node3&#45;&gt;Node55 -->
<g id="edge75" class="edge">
<title>Node3&#45;&gt;Node55</title>
<path fill="none" stroke="midnightblue" d="M2332.38,-209.18C2516.09,-205.83 3181.49,-192.06 3391,-165 3393.91,-164.62 3396.88,-164.18 3399.87,-163.69"/>
<polygon fill="midnightblue" stroke="midnightblue" points="2332.17,-205.68 2322.24,-209.36 2332.3,-212.68 2332.17,-205.68"/>
</g>
<!-- Node56 -->
<g id="node50" class="node">
<title>Node56</title>
<g id="a_node50"><a xlink:href="tuple_8cpp.html" target="_top" xlink:title=" ">
<polygon fill="none" stroke="black" points="3532.5,-140 3532.5,-159 3615.5,-159 3615.5,-140 3532.5,-140"/>
<text text-anchor="middle" x="3574" y="-147" font-family="Helvetica,sans-Serif" font-size="10.00">thorin/tuple.cpp</text>
</a>
</g>
</g>
<!-- Node3&#45;&gt;Node56 -->
<g id="edge76" class="edge">
<title>Node3&#45;&gt;Node56</title>
<path fill="none" stroke="midnightblue" d="M2332.16,-209.8C2529.18,-208.74 3287.16,-202.25 3523,-165 3531.46,-163.66 3540.5,-161.39 3548.59,-159.02"/>
<polygon fill="midnightblue" stroke="midnightblue" points="2332.11,-206.3 2322.13,-209.85 2332.15,-213.3 2332.11,-206.3"/>
</g>
<!-- Node9 -->
<g id="node9" class="node">
<title>Node9</title>
<g id="a_node9"><a xlink:href="ll_8cpp.html" target="_top" xlink:title=" ">
<polygon fill="none" stroke="black" points="2521.5,-73 2521.5,-92 2608.5,-92 2608.5,-73 2521.5,-73"/>
<text text-anchor="middle" x="2565" y="-80" font-family="Helvetica,sans-Serif" font-size="10.00">thorin/be/ll/ll.cpp</text>
</a>
</g>
</g>
<!-- Node8&#45;&gt;Node9 -->
<g id="edge8" class="edge">
<title>Node8&#45;&gt;Node9</title>
<path fill="none" stroke="midnightblue" d="M2327.44,-137.5C2332.34,-136.29 2337.28,-135.1 2342,-134 2417.65,-116.42 2437.55,-116.44 2513,-98 2520.37,-96.2 2528.29,-94.08 2535.66,-92.04"/>
<polygon fill="midnightblue" stroke="midnightblue" points="2326.35,-134.16 2317.5,-139.98 2328.05,-140.95 2326.35,-134.16"/>
</g>
<!-- Node15 -->
<g id="node15" class="node">
<title>Node15</title>
<g id="a_node15"><a xlink:href="main_8cpp.html" target="_top" xlink:title=" ">
<polygon fill="none" stroke="black" points="1468.5,-73 1468.5,-92 1551.5,-92 1551.5,-73 1468.5,-73"/>
<text text-anchor="middle" x="1510" y="-80" font-family="Helvetica,sans-Serif" font-size="10.00">driver/main.cpp</text>
</a>
</g>
</g>
<!-- Node14&#45;&gt;Node15 -->
<g id="edge14" class="edge">
<title>Node14&#45;&gt;Node15</title>
<path fill="none" stroke="midnightblue" d="M1596.5,-134.62C1574.71,-121.74 1542.96,-102.98 1524.6,-92.13"/>
<polygon fill="midnightblue" stroke="midnightblue" points="1594.78,-137.66 1605.16,-139.73 1598.34,-131.63 1594.78,-137.66"/>
</g>
<!-- Node16 -->
<g id="node16" class="node">
<title>Node16</title>
<g id="a_node16"><a xlink:href="parser_8cpp.html" target="_top" xlink:title=" ">
<polygon fill="none" stroke="black" points="1570,-73 1570,-92 1670,-92 1670,-73 1570,-73"/>
<text text-anchor="middle" x="1620" y="-80" font-family="Helvetica,sans-Serif" font-size="10.00">thorin/fe/parser.cpp</text>
</a>
</g>
</g>
<!-- Node14&#45;&gt;Node16 -->
<g id="edge15" class="edge">
<title>Node14&#45;&gt;Node16</title>
<path fill="none" stroke="midnightblue" d="M1620,-129.54C1620,-117.17 1620,-101.62 1620,-92.13"/>
<polygon fill="midnightblue" stroke="midnightblue" points="1616.5,-129.73 1620,-139.73 1623.5,-129.73 1616.5,-129.73"/>
</g>
<!-- Node20&#45;&gt;Node15 -->
<g id="edge20" class="edge">
<title>Node20&#45;&gt;Node15</title>
<path fill="none" stroke="midnightblue" d="M1143.24,-143.24C1217.18,-135.96 1348.43,-121.06 1459,-98 1466.75,-96.38 1475.05,-94.22 1482.65,-92.05"/>
<polygon fill="midnightblue" stroke="midnightblue" points="1142.81,-139.76 1133.19,-144.21 1143.49,-146.73 1142.81,-139.76"/>
</g>
<!-- Node21 -->
<g id="node21" class="node">
<title>Node21</title>
<g id="a_node21"><a xlink:href="beta__red_8h.html" target="_top" xlink:title=" ">
<polygon fill="none" stroke="black" points="971,-67.5 971,-97.5 1069,-97.5 1069,-67.5 971,-67.5"/>
<text text-anchor="start" x="979" y="-85.5" font-family="Helvetica,sans-Serif" font-size="10.00">thorin/pass/fp/beta</text>
<text text-anchor="middle" x="1020" y="-74.5" font-family="Helvetica,sans-Serif" font-size="10.00">_red.h</text>
</a>
</g>
</g>
<!-- Node20&#45;&gt;Node21 -->
<g id="edge21" class="edge">
<title>Node20&#45;&gt;Node21</title>
<path fill="none" stroke="midnightblue" d="M1069.12,-132.62C1058.41,-121.91 1044.4,-107.9 1034.09,-97.59"/>
<polygon fill="midnightblue" stroke="midnightblue" points="1066.69,-135.14 1076.23,-139.73 1071.64,-130.19 1066.69,-135.14"/>
</g>
<!-- Node27 -->
<g id="node27" class="node">
<title>Node27</title>
<g id="a_node27"><a xlink:href="copy__prop_8h.html" target="_top" xlink:title=" ">
<polygon fill="none" stroke="black" points="853.5,-67.5 853.5,-97.5 952.5,-97.5 952.5,-67.5 853.5,-67.5"/>
<text text-anchor="start" x="861.5" y="-85.5" font-family="Helvetica,sans-Serif" font-size="10.00">thorin/pass/fp/copy</text>
<text text-anchor="middle" x="903" y="-74.5" font-family="Helvetica,sans-Serif" font-size="10.00">_prop.h</text>
</a>
</g>
</g>
<!-- Node20&#45;&gt;Node27 -->
<g id="edge27" class="edge">
<title>Node20&#45;&gt;Node27</title>
<path fill="none" stroke="midnightblue" d="M1051.37,-136.49C1020.52,-125.47 974.8,-109.14 942.28,-97.53"/>
<polygon fill="midnightblue" stroke="midnightblue" points="1050.24,-139.8 1060.83,-139.87 1052.59,-133.21 1050.24,-139.8"/>
</g>
<!-- Node28 -->
<g id="node28" class="node">
<title>Node28</title>
<g id="a_node28"><a xlink:href="dce_8h.html" target="_top" xlink:title=" ">
<polygon fill="none" stroke="black" points="733,-73 733,-92 835,-92 835,-73 733,-73"/>
<text text-anchor="middle" x="784" y="-80" font-family="Helvetica,sans-Serif" font-size="10.00">thorin/pass/fp/dce.h</text>
</a>
</g>
</g>
<!-- Node20&#45;&gt;Node28 -->
<g id="edge30" class="edge">
<title>Node20&#45;&gt;Node28</title>
<path fill="none" stroke="midnightblue" d="M1042.76,-137.47C1037.79,-136.26 1032.79,-135.08 1028,-134 946.7,-115.72 925.41,-115.79 844,-98 835.62,-96.17 826.62,-94.07 818.21,-92.04"/>
<polygon fill="midnightblue" stroke="midnightblue" points="1042.27,-140.96 1052.82,-139.98 1043.96,-134.17 1042.27,-140.96"/>
</g>
<!-- Node29 -->
<g id="node29" class="node">
<title>Node29</title>
<g id="a_node29"><a xlink:href="eta__exp_8h.html" target="_top" xlink:title=" ">
<polygon fill="none" stroke="red" points="1233,-67.5 1233,-97.5 1325,-97.5 1325,-67.5 1233,-67.5"/>
<text text-anchor="start" x="1241" y="-85.5" font-family="Helvetica,sans-Serif" font-size="10.00">thorin/pass/fp/eta</text>
<text text-anchor="middle" x="1279" y="-74.5" font-family="Helvetica,sans-Serif" font-size="10.00">_exp.h</text>
</a>
</g>
</g>
<!-- Node20&#45;&gt;Node29 -->
<g id="edge33" class="edge">
<title>Node20&#45;&gt;Node29</title>
<path fill="none" stroke="midnightblue" d="M1120.42,-136.63C1153.31,-125.61 1202.32,-109.19 1237.13,-97.53"/>
<polygon fill="midnightblue" stroke="midnightblue" points="1119.13,-133.37 1110.76,-139.87 1121.36,-140.01 1119.13,-133.37"/>
</g>
<!-- Node33 -->
<g id="node31" class="node">
<title>Node33</title>
<g id="a_node31"><a xlink:href="eta__red_8h.html" target="_top" xlink:title=" ">
<polygon fill="none" stroke="red" points="110,-67.5 110,-97.5 202,-97.5 202,-67.5 110,-67.5"/>
<text text-anchor="start" x="118" y="-85.5" font-family="Helvetica,sans-Serif" font-size="10.00">thorin/pass/fp/eta</text>
<text text-anchor="middle" x="156" y="-74.5" font-family="Helvetica,sans-Serif" font-size="10.00">_red.h</text>
</a>
</g>
</g>
<!-- Node20&#45;&gt;Node33 -->
<g id="edge38" class="edge">
<title>Node20&#45;&gt;Node33</title>
<path fill="none" stroke="midnightblue" d="M1046.26,-137.51C1040.19,-136.12 1033.95,-134.88 1028,-134 668.43,-80.92 570.33,-152.64 211,-98 208.07,-97.55 205.07,-97.01 202.06,-96.41"/>
<polygon fill="midnightblue" stroke="midnightblue" points="1045.69,-140.98 1056.24,-139.96 1047.36,-134.18 1045.69,-140.98"/>
</g>
<!-- Node35 -->
<g id="node32" class="node">
<title>Node35</title>
<g id="a_node32"><a xlink:href="ssa__constr_8h.html" target="_top" xlink:title=" ">
<polygon fill="none" stroke="red" points="330.5,-67.5 330.5,-97.5 425.5,-97.5 425.5,-67.5 330.5,-67.5"/>
<text text-anchor="start" x="338.5" y="-85.5" font-family="Helvetica,sans-Serif" font-size="10.00">thorin/pass/fp/ssa</text>
<text text-anchor="middle" x="378" y="-74.5" font-family="Helvetica,sans-Serif" font-size="10.00">_constr.h</text>
</a>
</g>
</g>
<!-- Node20&#45;&gt;Node35 -->
<g id="edge41" class="edge">
<title>Node20&#45;&gt;Node35</title>
<path fill="none" stroke="midnightblue" d="M1046.04,-137.56C1040.04,-136.17 1033.88,-134.92 1028,-134 766.68,-93.22 695.23,-139.34 434,-98 431.22,-97.56 428.38,-97.04 425.53,-96.47"/>
<polygon fill="midnightblue" stroke="midnightblue" points="1045.38,-141 1055.93,-139.98 1047.05,-134.2 1045.38,-141"/>
</g>
<!-- Node36 -->
<g id="node33" class="node">
<title>Node36</title>
<g id="a_node33"><a xlink:href="tail__rec__elim_8h.html" target="_top" xlink:title=" ">
<polygon fill="none" stroke="black" points="0,-67.5 0,-97.5 92,-97.5 92,-67.5 0,-67.5"/>
<text text-anchor="start" x="8" y="-85.5" font-family="Helvetica,sans-Serif" font-size="10.00">thorin/pass/fp/tail</text>
<text text-anchor="middle" x="46" y="-74.5" font-family="Helvetica,sans-Serif" font-size="10.00">_rec_elim.h</text>
</a>
</g>
</g>
<!-- Node20&#45;&gt;Node36 -->
<g id="edge43" class="edge">
<title>Node20&#45;&gt;Node36</title>
<path fill="none" stroke="midnightblue" d="M1046.26,-137.49C1040.19,-136.1 1033.96,-134.86 1028,-134 619.95,-74.85 508.79,-158.92 101,-98 98.07,-97.56 95.07,-97.03 92.06,-96.43"/>
<polygon fill="midnightblue" stroke="midnightblue" points="1045.69,-140.95 1056.24,-139.93 1047.36,-134.15 1045.69,-140.95"/>
</g>
<!-- Node37 -->
<g id="node34" class="node">
<title>Node37</title>
<g id="a_node34"><a xlink:href="pass_8cpp.html" target="_top" xlink:title=" ">
<polygon fill="none" stroke="black" points="1688.5,-73 1688.5,-92 1795.5,-92 1795.5,-73 1688.5,-73"/>
<text text-anchor="middle" x="1742" y="-80" font-family="Helvetica,sans-Serif" font-size="10.00">thorin/pass/pass.cpp</text>
</a>
</g>
</g>
<!-- Node20&#45;&gt;Node37 -->
<g id="edge46" class="edge">
<title>Node20&#45;&gt;Node37</title>
<path fill="none" stroke="midnightblue" d="M1143.25,-146.28C1250.03,-141.61 1484.06,-128.56 1679,-98 1688.76,-96.47 1699.25,-94.28 1708.82,-92.06"/>
<polygon fill="midnightblue" stroke="midnightblue" points="1142.85,-142.8 1133.01,-146.72 1143.15,-149.79 1142.85,-142.8"/>
</g>
<!-- Node38 -->
<g id="node35" class="node">
<title>Node38</title>
<g id="a_node35"><a xlink:href="alloc2malloc_8h.html" target="_top" xlink:title=" ">
<polygon fill="none" stroke="red" points="443.5,-73 443.5,-92 586.5,-92 586.5,-73 443.5,-73"/>
<text text-anchor="middle" x="515" y="-80" font-family="Helvetica,sans-Serif" font-size="10.00">thorin/pass/rw/alloc2malloc.h</text>
</a>
</g>
</g>
<!-- Node20&#45;&gt;Node38 -->
<g id="edge47" class="edge">
<title>Node20&#45;&gt;Node38</title>
<path fill="none" stroke="midnightblue" d="M1045.2,-137.48C1039.46,-136.15 1033.6,-134.94 1028,-134 837.55,-102.09 786.45,-123.25 595,-98 582.83,-96.39 569.69,-94.21 557.64,-92.02"/>
<polygon fill="midnightblue" stroke="midnightblue" points="1044.77,-140.98 1055.32,-139.96 1046.44,-134.18 1044.77,-140.98"/>
</g>
<!-- Node40 -->
<g id="node36" class="node">
<title>Node40</title>
<g id="a_node36"><a xlink:href="partial__eval_8h.html" target="_top" xlink:title=" ">
<polygon fill="none" stroke="black" points="1343.5,-67.5 1343.5,-97.5 1450.5,-97.5 1450.5,-67.5 1343.5,-67.5"/>
<text text-anchor="start" x="1351.5" y="-85.5" font-family="Helvetica,sans-Serif" font-size="10.00">thorin/pass/rw/partial</text>
<text text-anchor="middle" x="1397" y="-74.5" font-family="Helvetica,sans-Serif" font-size="10.00">_eval.h</text>
</a>
</g>
</g>
<!-- Node20&#45;&gt;Node40 -->
<g id="edge49" class="edge">
<title>Node20&#45;&gt;Node40</title>
<path fill="none" stroke="midnightblue" d="M1138.74,-138.02C1189.23,-128.08 1266.85,-112.54 1334,-98 1337.07,-97.34 1340.22,-96.64 1343.41,-95.94"/>
<polygon fill="midnightblue" stroke="midnightblue" points="1137.84,-134.63 1128.7,-140 1139.19,-141.5 1137.84,-134.63"/>
</g>
<!-- Node42 -->
<g id="node38" class="node">
<title>Node42</title>
<g id="a_node38"><a xlink:href="remem__elim_8h.html" target="_top" xlink:title=" ">
<polygon fill="none" stroke="red" points="604.5,-67.5 604.5,-97.5 715.5,-97.5 715.5,-67.5 604.5,-67.5"/>
<text text-anchor="start" x="612.5" y="-85.5" font-family="Helvetica,sans-Serif" font-size="10.00">thorin/pass/rw/remem</text>
<text text-anchor="middle" x="660" y="-74.5" font-family="Helvetica,sans-Serif" font-size="10.00">_elim.h</text>
</a>
</g>
</g>
<!-- Node20&#45;&gt;Node42 -->
<g id="edge52" class="edge">
<title>Node20&#45;&gt;Node42</title>
<path fill="none" stroke="midnightblue" d="M1044.59,-137.52C1039.04,-136.22 1033.4,-135 1028,-134 894.23,-109.18 858.09,-121.06 724,-98 721.31,-97.54 718.55,-97.03 715.78,-96.5"/>
<polygon fill="midnightblue" stroke="midnightblue" points="1043.85,-140.95 1054.4,-139.93 1045.52,-134.15 1043.85,-140.95"/>
</g>
<!-- Node44 -->
<g id="node39" class="node">
<title>Node44</title>
<g id="a_node39"><a xlink:href="ret__wrap_8h.html" target="_top" xlink:title=" ">
<polygon fill="none" stroke="red" points="220,-67.5 220,-97.5 312,-97.5 312,-67.5 220,-67.5"/>
<text text-anchor="start" x="228" y="-85.5" font-family="Helvetica,sans-Serif" font-size="10.00">thorin/pass/rw/ret</text>
<text text-anchor="middle" x="266" y="-74.5" font-family="Helvetica,sans-Serif" font-size="10.00">_wrap.h</text>
</a>
</g>
</g>
<!-- Node20&#45;&gt;Node44 -->
<g id="edge54" class="edge">
<title>Node20&#45;&gt;Node44</title>
<path fill="none" stroke="midnightblue" d="M1046.05,-137.5C1040.05,-136.13 1033.89,-134.89 1028,-134 716.9,-86.99 631.89,-146.36 321,-98 318.07,-97.54 315.08,-97 312.07,-96.38"/>
<polygon fill="midnightblue" stroke="midnightblue" points="1045.39,-140.95 1055.94,-139.92 1047.06,-134.15 1045.39,-140.95"/>
</g>
<!-- Node46 -->
<g id="node40" class="node">
<title>Node46</title>
<g id="a_node40"><a xlink:href="scalarize_8h.html" target="_top" xlink:title=" ">
<polygon fill="none" stroke="black" points="1087.5,-73 1087.5,-92 1214.5,-92 1214.5,-73 1087.5,-73"/>
<text text-anchor="middle" x="1151" y="-80" font-family="Helvetica,sans-Serif" font-size="10.00">thorin/pass/rw/scalarize.h</text>
</a>
</g>
</g>
<!-- Node20&#45;&gt;Node46 -->
<g id="edge56" class="edge">
<title>Node20&#45;&gt;Node46</title>
<path fill="none" stroke="midnightblue" d="M1101.25,-132.5C1114.19,-119.75 1131.81,-102.39 1142.24,-92.13"/>
<polygon fill="midnightblue" stroke="midnightblue" points="1098.57,-130.22 1093.9,-139.73 1103.48,-135.21 1098.57,-130.22"/>
</g>
<!-- Node22 -->
<g id="node22" class="node">
<title>Node22</title>
<g id="a_node22"><a xlink:href="beta__red_8cpp.html" target="_top" xlink:title=" ">
<polygon fill="none" stroke="black" points="1091,-0.5 1091,-30.5 1189,-30.5 1189,-0.5 1091,-0.5"/>
<text text-anchor="start" x="1099" y="-18.5" font-family="Helvetica,sans-Serif" font-size="10.00">thorin/pass/fp/beta</text>
<text text-anchor="middle" x="1140" y="-7.5" font-family="Helvetica,sans-Serif" font-size="10.00">_red.cpp</text>
</a>
</g>
</g>
<!-- Node21&#45;&gt;Node22 -->
<g id="edge22" class="edge">
<title>Node21&#45;&gt;Node22</title>
<path fill="none" stroke="midnightblue" d="M1054.94,-62.57C1073.82,-52.35 1096.73,-39.94 1114.01,-30.58"/>
<polygon fill="midnightblue" stroke="midnightblue" points="1053.16,-59.56 1046.04,-67.4 1056.5,-65.71 1053.16,-59.56"/>
</g>
<!-- Node23 -->
<g id="node23" class="node">
<title>Node23</title>
<g id="a_node23"><a xlink:href="copy__prop_8cpp.html" target="_top" xlink:title=" ">
<polygon fill="none" stroke="black" points="971.5,-0.5 971.5,-30.5 1070.5,-30.5 1070.5,-0.5 971.5,-0.5"/>
<text text-anchor="start" x="979.5" y="-18.5" font-family="Helvetica,sans-Serif" font-size="10.00">thorin/pass/fp/copy</text>
<text text-anchor="middle" x="1021" y="-7.5" font-family="Helvetica,sans-Serif" font-size="10.00">_prop.cpp</text>
</a>
</g>
</g>
<!-- Node21&#45;&gt;Node23 -->
<g id="edge23" class="edge">
<title>Node21&#45;&gt;Node23</title>
<path fill="none" stroke="midnightblue" d="M1020.38,-57.11C1020.51,-48.15 1020.66,-38.32 1020.78,-30.58"/>
<polygon fill="midnightblue" stroke="midnightblue" points="1016.87,-57.34 1020.22,-67.4 1023.87,-57.45 1016.87,-57.34"/>
</g>
<!-- Node24 -->
<g id="node24" class="node">
<title>Node24</title>
<g id="a_node24"><a xlink:href="dce_8cpp.html" target="_top" xlink:title=" ">
<polygon fill="none" stroke="black" points="840.5,-6 840.5,-25 953.5,-25 953.5,-6 840.5,-6"/>
<text text-anchor="middle" x="897" y="-13" font-family="Helvetica,sans-Serif" font-size="10.00">thorin/pass/fp/dce.cpp</text>
</a>
</g>
</g>
<!-- Node21&#45;&gt;Node24 -->
<g id="edge24" class="edge">
<title>Node21&#45;&gt;Node24</title>
<path fill="none" stroke="midnightblue" d="M984.31,-62.64C960.78,-50.2 931.09,-34.51 913.1,-25.01"/>
<polygon fill="midnightblue" stroke="midnightblue" points="982.83,-65.82 993.31,-67.4 986.1,-59.63 982.83,-65.82"/>
</g>
<!-- Node25 -->
<g id="node25" class="node">
<title>Node25</title>
<g id="a_node25"><a xlink:href="tail__rec__elim_8cpp.html" target="_top" xlink:title=" ">
<polygon fill="none" stroke="black" points="110,-0.5 110,-30.5 202,-30.5 202,-0.5 110,-0.5"/>
<text text-anchor="start" x="118" y="-18.5" font-family="Helvetica,sans-Serif" font-size="10.00">thorin/pass/fp/tail</text>
<text text-anchor="middle" x="156" y="-7.5" font-family="Helvetica,sans-Serif" font-size="10.00">_rec_elim.cpp</text>
</a>
</g>
</g>
<!-- Node21&#45;&gt;Node25 -->
<g id="edge25" class="edge">
<title>Node21&#45;&gt;Node25</title>
<path fill="none" stroke="midnightblue" d="M961.3,-67.05C961.2,-67.03 961.1,-67.02 961,-67 674.81,-23.21 325.83,-17.21 202.14,-16.53"/>
<polygon fill="midnightblue" stroke="midnightblue" points="960.42,-70.45 970.88,-68.73 961.63,-63.55 960.42,-70.45"/>
</g>
<!-- Node26 -->
<g id="node26" class="node">
<title>Node26</title>
<g id="a_node26"><a xlink:href="optimize_8cpp.html" target="_top" xlink:title=" ">
<polygon fill="none" stroke="black" points="649,-6 649,-25 771,-25 771,-6 649,-6"/>
<text text-anchor="middle" x="710" y="-13" font-family="Helvetica,sans-Serif" font-size="10.00">thorin/pass/optimize.cpp</text>
</a>
</g>
</g>
<!-- Node21&#45;&gt;Node26 -->
<g id="edge26" class="edge">
<title>Node21&#45;&gt;Node26</title>
<path fill="none" stroke="midnightblue" d="M961.3,-67.07C961.2,-67.04 961.1,-67.02 961,-67 889.42,-51.01 805.84,-34.65 755.47,-25.05"/>
<polygon fill="midnightblue" stroke="midnightblue" points="960.25,-70.42 970.78,-69.24 961.81,-63.59 960.25,-70.42"/>
</g>
<!-- Node27&#45;&gt;Node23 -->
<g id="edge28" class="edge">
<title>Node27&#45;&gt;Node23</title>
<path fill="none" stroke="midnightblue" d="M937.61,-62.44C956.12,-52.24 978.52,-39.9 995.45,-30.58"/>
<polygon fill="midnightblue" stroke="midnightblue" points="935.67,-59.51 928.6,-67.4 939.05,-65.64 935.67,-59.51"/>
</g>
<!-- Node27&#45;&gt;Node26 -->
<g id="edge29" class="edge">
<title>Node27&#45;&gt;Node26</title>
<path fill="none" stroke="midnightblue" d="M851.36,-64.11C813.81,-51.46 764.61,-34.89 735.26,-25.01"/>
<polygon fill="midnightblue" stroke="midnightblue" points="850.53,-67.52 861.12,-67.4 852.76,-60.89 850.53,-67.52"/>
</g>
<!-- Node28&#45;&gt;Node24 -->
<g id="edge31" class="edge">
<title>Node28&#45;&gt;Node24</title>
<path fill="none" stroke="midnightblue" d="M808.14,-67.62C830.53,-54.74 863.14,-35.98 882,-25.13"/>
<polygon fill="midnightblue" stroke="midnightblue" points="806.16,-64.71 799.24,-72.73 809.65,-70.78 806.16,-64.71"/>
</g>
<!-- Node28&#45;&gt;Node26 -->
<g id="edge32" class="edge">
<title>Node28&#45;&gt;Node26</title>
<path fill="none" stroke="midnightblue" d="M766.19,-65.86C751.64,-53.08 731.62,-35.49 719.82,-25.13"/>
<polygon fill="midnightblue" stroke="midnightblue" points="764.2,-68.76 774.02,-72.73 768.82,-63.5 764.2,-68.76"/>
</g>
<!-- Node29&#45;&gt;Node23 -->
<g id="edge34" class="edge">
<title>Node29&#45;&gt;Node23</title>
<path fill="none" stroke="midnightblue" d="M1223.3,-67.08C1223.2,-67.05 1223.1,-67.03 1223,-67 1171.15,-53.81 1111.74,-38.99 1070.84,-28.84"/>
<polygon fill="midnightblue" stroke="midnightblue" points="1222.31,-70.44 1232.86,-69.52 1224.04,-63.65 1222.31,-70.44"/>
</g>
<!-- Node29&#45;&gt;Node24 -->
<g id="edge35" class="edge">
<title>Node29&#45;&gt;Node24</title>
<path fill="none" stroke="midnightblue" d="M1223.31,-67.06C1223.2,-67.04 1223.1,-67.02 1223,-67 1108.13,-44.29 1077.24,-51.77 962,-31 952.44,-29.28 942.16,-27.12 932.65,-25.01"/>
<polygon fill="midnightblue" stroke="midnightblue" points="1222.44,-70.45 1232.95,-69.12 1223.91,-63.61 1222.44,-70.45"/>
</g>
<!-- Node29&#45;&gt;Node26 -->
<g id="edge36" class="edge">
<title>Node29&#45;&gt;Node26</title>
<path fill="none" stroke="midnightblue" d="M1223.31,-67.05C1223.2,-67.04 1223.1,-67.02 1223,-67 1050.64,-36.97 1004.98,-49.41 831,-31 811.54,-28.94 790.34,-26.48 771.21,-24.17"/>
<polygon fill="midnightblue" stroke="midnightblue" points="1222.5,-70.46 1232.98,-68.96 1223.85,-63.59 1222.5,-70.46"/>
</g>
<!-- Node32 -->
<g id="node30" class="node">
<title>Node32</title>
<g id="a_node30"><a xlink:href="scalarize_8cpp.html" target="_top" xlink:title=" ">
<polygon fill="none" stroke="black" points="1210.5,-6 1210.5,-25 1347.5,-25 1347.5,-6 1210.5,-6"/>
<text text-anchor="middle" x="1279" y="-13" font-family="Helvetica,sans-Serif" font-size="10.00">thorin/pass/rw/scalarize.cpp</text>
</a>
</g>
</g>
<!-- Node29&#45;&gt;Node32 -->
<g id="edge37" class="edge">
<title>Node29&#45;&gt;Node32</title>
<path fill="none" stroke="midnightblue" d="M1279,-57.25C1279,-46.02 1279,-33.38 1279,-25.19"/>
<polygon fill="midnightblue" stroke="midnightblue" points="1275.5,-57.4 1279,-67.4 1282.5,-57.4 1275.5,-57.4"/>
</g>
<!-- Node33&#45;&gt;Node25 -->
<g id="edge39" class="edge">
<title>Node33&#45;&gt;Node25</title>
<path fill="none" stroke="midnightblue" d="M156,-57.11C156,-48.15 156,-38.32 156,-30.58"/>
<polygon fill="midnightblue" stroke="midnightblue" points="152.5,-57.4 156,-67.4 159.5,-57.4 152.5,-57.4"/>
</g>
<!-- Node33&#45;&gt;Node26 -->
<g id="edge40" class="edge">
<title>Node33&#45;&gt;Node26</title>
<path fill="none" stroke="midnightblue" d="M212.29,-66.95C374.99,-38.1 556.32,-24.95 648.89,-19.59"/>
<polygon fill="midnightblue" stroke="midnightblue" points="211.32,-63.57 202.1,-68.79 212.56,-70.46 211.32,-63.57"/>
</g>
<!-- Node35&#45;&gt;Node26 -->
<g id="edge42" class="edge">
<title>Node35&#45;&gt;Node26</title>
<path fill="none" stroke="midnightblue" d="M435.4,-66.77C518,-48.78 603.52,-33.89 657.12,-25.01"/>
<polygon fill="midnightblue" stroke="midnightblue" points="434.62,-63.36 425.6,-68.92 436.12,-70.2 434.62,-63.36"/>
</g>
<!-- Node36&#45;&gt;Node25 -->
<g id="edge44" class="edge">
<title>Node36&#45;&gt;Node25</title>
<path fill="none" stroke="midnightblue" d="M78.5,-62.3C95.71,-52.12 116.48,-39.85 132.18,-30.58"/>
<polygon fill="midnightblue" stroke="midnightblue" points="76.7,-59.3 69.87,-67.4 80.26,-65.32 76.7,-59.3"/>
</g>
<!-- Node36&#45;&gt;Node26 -->
<g id="edge45" class="edge">
<title>Node36&#45;&gt;Node26</title>
<path fill="none" stroke="midnightblue" d="M102.13,-67.01C307.06,-32.53 540.05,-21.54 648.61,-18.04"/>
<polygon fill="midnightblue" stroke="midnightblue" points="101.35,-63.59 92.08,-68.72 102.53,-70.49 101.35,-63.59"/>
</g>
<!-- Node38&#45;&gt;Node26 -->
<g id="edge48" class="edge">
<title>Node38&#45;&gt;Node26</title>
<path fill="none" stroke="midnightblue" d="M550.7,-69.6C589.36,-56.71 650.08,-36.47 684.31,-25.06"/>
<polygon fill="midnightblue" stroke="midnightblue" points="549.27,-66.39 540.89,-72.87 551.49,-73.03 549.27,-66.39"/>
</g>
<!-- Node40&#45;&gt;Node26 -->
<g id="edge50" class="edge">
<title>Node40&#45;&gt;Node26</title>
<path fill="none" stroke="midnightblue" d="M1333.44,-67.09C1110.61,-34.3 1050.84,-52.03 831,-31 811.52,-29.14 790.32,-26.73 771.18,-24.41"/>
<polygon fill="midnightblue" stroke="midnightblue" points="1333.09,-70.58 1343.49,-68.59 1334.12,-63.66 1333.09,-70.58"/>
</g>
<!-- Node41 -->
<g id="node37" class="node">
<title>Node41</title>
<g id="a_node37"><a xlink:href="partial__eval_8cpp.html" target="_top" xlink:title=" ">
<polygon fill="none" stroke="black" points="1725.5,-0.5 1725.5,-30.5 1832.5,-30.5 1832.5,-0.5 1725.5,-0.5"/>
<text text-anchor="start" x="1733.5" y="-18.5" font-family="Helvetica,sans-Serif" font-size="10.00">thorin/pass/rw/partial</text>
<text text-anchor="middle" x="1779" y="-7.5" font-family="Helvetica,sans-Serif" font-size="10.00">_eval.cpp</text>
</a>
</g>
</g>
<!-- Node40&#45;&gt;Node41 -->
<g id="edge51" class="edge">
<title>Node40&#45;&gt;Node41</title>
<path fill="none" stroke="midnightblue" d="M1460.55,-66.77C1559.15,-47.75 1663.59,-32.35 1725.28,-23.75"/>
<polygon fill="midnightblue" stroke="midnightblue" points="1459.86,-63.34 1450.72,-68.68 1461.2,-70.21 1459.86,-63.34"/>
</g>
<!-- Node42&#45;&gt;Node26 -->
<g id="edge53" class="edge">
<title>Node42&#45;&gt;Node26</title>
<path fill="none" stroke="midnightblue" d="M677.06,-59.32C686.08,-47.6 696.63,-33.88 703.31,-25.19"/>
<polygon fill="midnightblue" stroke="midnightblue" points="674.17,-57.34 670.85,-67.4 679.72,-61.6 674.17,-57.34"/>
</g>
<!-- Node44&#45;&gt;Node26 -->
<g id="edge55" class="edge">
<title>Node44&#45;&gt;Node26</title>
<path fill="none" stroke="midnightblue" d="M321.93,-66.97C443.09,-43.69 574.07,-29.23 648.97,-21.97"/>
<polygon fill="midnightblue" stroke="midnightblue" points="321.26,-63.54 312.11,-68.88 322.6,-70.41 321.26,-63.54"/>
</g>
<!-- Node46&#45;&gt;Node26 -->
<g id="edge57" class="edge">
<title>Node46&#45;&gt;Node26</title>
<path fill="none" stroke="midnightblue" d="M1100.17,-71C1092.74,-69.58 1085.18,-68.21 1078,-67 970.36,-48.94 844.2,-32.69 771.05,-23.75"/>
<polygon fill="midnightblue" stroke="midnightblue" points="1099.67,-74.47 1110.15,-72.94 1101,-67.6 1099.67,-74.47"/>
</g>
<!-- Node46&#45;&gt;Node32 -->
<g id="edge58" class="edge">
<title>Node46&#45;&gt;Node32</title>
<path fill="none" stroke="midnightblue" d="M1177.05,-68.27C1202.4,-55.4 1240.19,-36.21 1261.93,-25.17"/>
<polygon fill="midnightblue" stroke="midnightblue" points="1175.33,-65.22 1168,-72.87 1178.5,-71.46 1175.33,-65.22"/>
</g>
<!-- Node48&#45;&gt;Node7 -->
<g id="edge61" class="edge">
<title>Node48&#45;&gt;Node7</title>
<path fill="none" stroke="midnightblue" d="M2030.29,-136.44C1993.2,-123.54 1935.32,-103.42 1902.64,-92.06"/>
<polygon fill="midnightblue" stroke="midnightblue" points="2029.57,-139.89 2040.17,-139.87 2031.87,-133.28 2029.57,-139.89"/>
</g>
<!-- Node48&#45;&gt;Node12 -->
<g id="edge62" class="edge">
<title>Node48&#45;&gt;Node12</title>
<path fill="none" stroke="midnightblue" d="M2048.5,-132.5C2035.36,-119.75 2017.48,-102.39 2006.89,-92.13"/>
<polygon fill="midnightblue" stroke="midnightblue" points="2046.35,-135.28 2055.96,-139.73 2051.22,-130.26 2046.35,-135.28"/>
</g>
<!-- Node48&#45;&gt;Node22 -->
<g id="edge63" class="edge">
<title>Node48&#45;&gt;Node22</title>
<path fill="none" stroke="midnightblue" d="M2066.03,-129.72C2065.93,-110.66 2062.42,-81.92 2044,-67 1971.14,-8 1293.86,-43.9 1201,-31 1197.12,-30.46 1193.12,-29.79 1189.12,-29.03"/>
<polygon fill="midnightblue" stroke="midnightblue" points="2062.52,-129.79 2065.76,-139.88 2069.52,-129.97 2062.52,-129.79"/>
</g>
<!-- Node48&#45;&gt;Node32 -->
<g id="edge66" class="edge">
<title>Node48&#45;&gt;Node32</title>
<path fill="none" stroke="midnightblue" d="M2075.26,-130.74C2084.36,-112.36 2093.97,-84.01 2078,-67 2053.16,-40.54 1536.94,-23.64 1347.73,-18.31"/>
<polygon fill="midnightblue" stroke="midnightblue" points="2072.05,-129.32 2070.41,-139.78 2078.22,-132.62 2072.05,-129.32"/>
</g>
<!-- Node48&#45;&gt;Node37 -->
<g id="edge64" class="edge">
<title>Node48&#45;&gt;Node37</title>
<path fill="none" stroke="midnightblue" d="M2014.57,-139.34C1961.92,-129.64 1876.99,-113.59 1804,-98 1795.35,-96.15 1786.05,-94.04 1777.36,-92.02"/>
<polygon fill="midnightblue" stroke="midnightblue" points="2014.19,-142.83 2024.66,-141.19 2015.46,-135.94 2014.19,-142.83"/>
</g>
<!-- Node48&#45;&gt;Node41 -->
<g id="edge65" class="edge">
<title>Node48&#45;&gt;Node41</title>
<path fill="none" stroke="midnightblue" d="M2085.52,-133.68C2106.7,-116.62 2134.27,-88.21 2116,-67 2080.09,-25.31 1918.46,-17.54 1832.76,-16.41"/>
<polygon fill="midnightblue" stroke="midnightblue" points="2083.33,-130.95 2077.55,-139.83 2087.6,-136.5 2083.33,-130.95"/>
</g>
<!-- Node48&#45;&gt;Node47 -->
<g id="edge67" class="edge">
<title>Node48&#45;&gt;Node47</title>
<path fill="none" stroke="midnightblue" d="M2094.16,-135.78C2123.66,-122.91 2168.49,-103.35 2194.13,-92.17"/>
<polygon fill="midnightblue" stroke="midnightblue" points="2092.55,-132.66 2084.79,-139.87 2095.35,-139.08 2092.55,-132.66"/>
</g>
<!-- Node48&#45;&gt;Node49 -->
<g id="edge68" class="edge">
<title>Node48&#45;&gt;Node49</title>
<path fill="none" stroke="midnightblue" d="M2110.88,-137.62C2157.24,-126.62 2229.08,-109.58 2279.74,-97.56"/>
<polygon fill="midnightblue" stroke="midnightblue" points="2110.02,-134.22 2101.1,-139.94 2111.64,-141.03 2110.02,-134.22"/>
</g>
<!-- Node48&#45;&gt;Node50 -->
<g id="edge69" class="edge">
<title>Node48&#45;&gt;Node50</title>
<path fill="none" stroke="midnightblue" d="M2115.34,-143.13C2182.67,-135.48 2305.58,-119.92 2409,-98 2416.79,-96.35 2425.14,-94.19 2432.82,-92.06"/>
<polygon fill="midnightblue" stroke="midnightblue" points="2114.56,-139.69 2105.02,-144.29 2115.35,-146.65 2114.56,-139.69"/>
</g>
<!-- Node53 -->
<g id="node47" class="node">
<title>Node53</title>
<g id="a_node47"><a xlink:href="closure__conv_8cpp.html" target="_top" xlink:title=" ">
<polygon fill="none" stroke="black" points="3107.5,-67.5 3107.5,-97.5 3226.5,-97.5 3226.5,-67.5 3107.5,-67.5"/>
<text text-anchor="start" x="3115.5" y="-85.5" font-family="Helvetica,sans-Serif" font-size="10.00">thorin/transform/closure</text>
<text text-anchor="middle" x="3167" y="-74.5" font-family="Helvetica,sans-Serif" font-size="10.00">_conv.cpp</text>
</a>
</g>
</g>
<!-- Node52&#45;&gt;Node53 -->
<g id="edge73" class="edge">
<title>Node52&#45;&gt;Node53</title>
<path fill="none" stroke="midnightblue" d="M3167,-124.11C3167,-115.15 3167,-105.32 3167,-97.58"/>
<polygon fill="midnightblue" stroke="midnightblue" points="3163.5,-124.4 3167,-134.4 3170.5,-124.4 3163.5,-124.4"/>
</g>
</g>
</svg>
