<?xml version="1.0" encoding="UTF-8" standalone="no"?>
<!DOCTYPE svg PUBLIC "-//W3C//DTD SVG 1.1//EN"
 "http://www.w3.org/Graphics/SVG/1.1/DTD/svg11.dtd">
<!-- Generated by graphviz version 2.43.0 (0)
 -->
<!-- Title: /home/runner/work/thorin2/thorin2/thorin/axiom.cpp Pages: 1 -->
<svg width="1417pt" height="442pt"
 viewBox="0.00 0.00 1417.00 442.00" xmlns="http://www.w3.org/2000/svg" xmlns:xlink="http://www.w3.org/1999/xlink">
<g id="graph0" class="graph" transform="scale(1 1) rotate(0) translate(4 438)">
<title>/home/runner/work/thorin2/thorin2/thorin/axiom.cpp</title>
<!-- Node1 -->
<g id="node1" class="node">
<title>Node1</title>
<g id="a_node1"><a xlink:title=" ">
<polygon fill="#bfbfbf" stroke="black" points="1076,-403.5 1076,-433.5 1222,-433.5 1222,-403.5 1076,-403.5"/>
<text text-anchor="start" x="1084" y="-421.5" font-family="Helvetica,sans-Serif" font-size="10.00">/home/runner/work/thorin2</text>
<text text-anchor="middle" x="1149" y="-410.5" font-family="Helvetica,sans-Serif" font-size="10.00">/thorin2/thorin/axiom.cpp</text>
</a>
</g>
</g>
<!-- Node2 -->
<g id="node2" class="node">
<title>Node2</title>
<g id="a_node2"><a xlink:href="axiom_8h.html" target="_top" xlink:title=" ">
<polygon fill="none" stroke="black" points="1105,-347.5 1105,-366.5 1193,-366.5 1193,-347.5 1105,-347.5"/>
<text text-anchor="middle" x="1149" y="-354.5" font-family="Helvetica,sans-Serif" font-size="10.00">thorin/axiom.h</text>
</a>
</g>
</g>
<!-- Node1&#45;&gt;Node2 -->
<g id="edge1" class="edge">
<title>Node1&#45;&gt;Node2</title>
<path fill="none" stroke="midnightblue" d="M1149,-403.4C1149,-395.47 1149,-385.46 1149,-376.86"/>
<polygon fill="midnightblue" stroke="midnightblue" points="1152.5,-376.66 1149,-366.66 1145.5,-376.66 1152.5,-376.66"/>
</g>
<!-- Node3 -->
<g id="node3" class="node">
<title>Node3</title>
<g id="a_node3"><a xlink:href="lam_8h.html" target="_top" xlink:title=" ">
<polygon fill="none" stroke="black" points="902,-291.5 902,-310.5 978,-310.5 978,-291.5 902,-291.5"/>
<text text-anchor="middle" x="940" y="-298.5" font-family="Helvetica,sans-Serif" font-size="10.00">thorin/lam.h</text>
</a>
</g>
</g>
<!-- Node2&#45;&gt;Node3 -->
<g id="edge2" class="edge">
<title>Node2&#45;&gt;Node3</title>
<path fill="none" stroke="midnightblue" d="M1115.88,-347.44C1079.88,-338.14 1022.23,-323.25 982.81,-313.06"/>
<polygon fill="midnightblue" stroke="midnightblue" points="983.52,-309.63 972.96,-310.52 981.77,-316.41 983.52,-309.63"/>
</g>
<!-- Node19 -->
<g id="node19" class="node">
<title>Node19</title>
<g id="a_node19"><a xlink:href="assert_8h.html" target="_top" xlink:title=" ">
<polygon fill="none" stroke="black" points="992,-56.5 992,-75.5 1098,-75.5 1098,-56.5 992,-56.5"/>
<text text-anchor="middle" x="1045" y="-63.5" font-family="Helvetica,sans-Serif" font-size="10.00">thorin/util/assert.h</text>
</a>
</g>
</g>
<!-- Node2&#45;&gt;Node19 -->
<g id="edge53" class="edge">
<title>Node2&#45;&gt;Node19</title>
<path fill="none" stroke="midnightblue" d="M1193.06,-349.15C1246.92,-337.97 1331,-310.24 1331,-246 1331,-246 1331,-246 1331,-188 1331,-153.18 1337.56,-135.64 1312,-112 1297.21,-98.32 1182.49,-82.78 1108.31,-74.01"/>
<polygon fill="midnightblue" stroke="midnightblue" points="1108.47,-70.5 1098.13,-72.82 1107.65,-77.46 1108.47,-70.5"/>
</g>
<!-- Node4 -->
<g id="node4" class="node">
<title>Node4</title>
<g id="a_node4"><a xlink:title=" ">
<polygon fill="none" stroke="#bfbfbf" points="834.5,-235.5 834.5,-254.5 885.5,-254.5 885.5,-235.5 834.5,-235.5"/>
<text text-anchor="middle" x="860" y="-242.5" font-family="Helvetica,sans-Serif" font-size="10.00">variant</text>
</a>
</g>
</g>
<!-- Node3&#45;&gt;Node4 -->
<g id="edge3" class="edge">
<title>Node3&#45;&gt;Node4</title>
<path fill="none" stroke="midnightblue" d="M927.15,-291.32C914.78,-282.98 895.87,-270.21 881.26,-260.35"/>
<polygon fill="midnightblue" stroke="midnightblue" points="883.07,-257.35 872.82,-254.65 879.15,-263.15 883.07,-257.35"/>
</g>
<!-- Node5 -->
<g id="node5" class="node">
<title>Node5</title>
<g id="a_node5"><a xlink:href="def_8h.html" target="_top" xlink:title=" ">
<polygon fill="none" stroke="black" points="904,-235.5 904,-254.5 976,-254.5 976,-235.5 904,-235.5"/>
<text text-anchor="middle" x="940" y="-242.5" font-family="Helvetica,sans-Serif" font-size="10.00">thorin/def.h</text>
</a>
</g>
</g>
<!-- Node3&#45;&gt;Node5 -->
<g id="edge4" class="edge">
<title>Node3&#45;&gt;Node5</title>
<path fill="none" stroke="midnightblue" d="M940,-291.08C940,-284.01 940,-273.86 940,-264.99"/>
<polygon fill="midnightblue" stroke="midnightblue" points="943.5,-264.75 940,-254.75 936.5,-264.75 943.5,-264.75"/>
</g>
<!-- Node6 -->
<g id="node6" class="node">
<title>Node6</title>
<g id="a_node6"><a xlink:title=" ">
<polygon fill="none" stroke="#bfbfbf" points="884,-179.5 884,-198.5 940,-198.5 940,-179.5 884,-179.5"/>
<text text-anchor="middle" x="912" y="-186.5" font-family="Helvetica,sans-Serif" font-size="10.00">optional</text>
</a>
</g>
</g>
<!-- Node5&#45;&gt;Node6 -->
<g id="edge5" class="edge">
<title>Node5&#45;&gt;Node6</title>
<path fill="none" stroke="midnightblue" d="M935.38,-235.08C931.54,-227.69 925.98,-216.95 921.24,-207.81"/>
<polygon fill="midnightblue" stroke="midnightblue" points="924.25,-206.02 916.54,-198.75 918.03,-209.24 924.25,-206.02"/>
</g>
<!-- Node7 -->
<g id="node7" class="node">
<title>Node7</title>
<g id="a_node7"><a xlink:title=" ">
<polygon fill="none" stroke="#bfbfbf" points="615.5,-56.5 615.5,-75.5 662.5,-75.5 662.5,-56.5 615.5,-56.5"/>
<text text-anchor="middle" x="639" y="-63.5" font-family="Helvetica,sans-Serif" font-size="10.00">vector</text>
</a>
</g>
</g>
<!-- Node5&#45;&gt;Node7 -->
<g id="edge6" class="edge">
<title>Node5&#45;&gt;Node7</title>
<path fill="none" stroke="midnightblue" d="M944.3,-235.28C955.07,-212.03 980.23,-147.85 949,-112 910.69,-68.02 746.6,-85.17 689,-76 683.75,-75.16 678.19,-74.22 672.77,-73.27"/>
<polygon fill="midnightblue" stroke="midnightblue" points="673.08,-69.77 662.62,-71.45 671.85,-76.66 673.08,-69.77"/>
</g>
<!-- Node8 -->
<g id="node8" class="node">
<title>Node8</title>
<g id="a_node8"><a xlink:href="debug_8h.html" target="_top" xlink:title=" ">
<polygon fill="none" stroke="black" points="412.5,-179.5 412.5,-198.5 499.5,-198.5 499.5,-179.5 412.5,-179.5"/>
<text text-anchor="middle" x="456" y="-186.5" font-family="Helvetica,sans-Serif" font-size="10.00">thorin/debug.h</text>
</a>
</g>
</g>
<!-- Node5&#45;&gt;Node8 -->
<g id="edge7" class="edge">
<title>Node5&#45;&gt;Node8</title>
<path fill="none" stroke="midnightblue" d="M903.7,-236.43C900.76,-235.91 897.84,-235.43 895,-235 756.97,-214.17 593.03,-200.2 509.99,-193.87"/>
<polygon fill="midnightblue" stroke="midnightblue" points="510.03,-190.36 499.79,-193.1 509.5,-197.34 510.03,-190.36"/>
</g>
<!-- Node12 -->
<g id="node12" class="node">
<title>Node12</title>
<g id="a_node12"><a xlink:href="tables_8h.html" target="_top" xlink:title=" ">
<polygon fill="none" stroke="black" points="1178.5,-179.5 1178.5,-198.5 1265.5,-198.5 1265.5,-179.5 1178.5,-179.5"/>
<text text-anchor="middle" x="1222" y="-186.5" font-family="Helvetica,sans-Serif" font-size="10.00">thorin/tables.h</text>
</a>
</g>
</g>
<!-- Node5&#45;&gt;Node12 -->
<g id="edge11" class="edge">
<title>Node5&#45;&gt;Node12</title>
<path fill="none" stroke="midnightblue" d="M976,-237.11C1024.65,-227.79 1111.76,-211.11 1168.19,-200.3"/>
<polygon fill="midnightblue" stroke="midnightblue" points="1169.19,-203.68 1178.36,-198.36 1167.88,-196.8 1169.19,-203.68"/>
</g>
<!-- Node14 -->
<g id="node14" class="node">
<title>Node14</title>
<g id="a_node14"><a xlink:href="print_8h.html" target="_top" xlink:title=" ">
<polygon fill="none" stroke="black" points="996,-118 996,-137 1094,-137 1094,-118 996,-118"/>
<text text-anchor="middle" x="1045" y="-125" font-family="Helvetica,sans-Serif" font-size="10.00">thorin/util/print.h</text>
</a>
</g>
</g>
<!-- Node5&#45;&gt;Node14 -->
<g id="edge52" class="edge">
<title>Node5&#45;&gt;Node14</title>
<path fill="none" stroke="midnightblue" d="M948.11,-235.42C956.61,-226.41 970.33,-211.78 982,-199 998.84,-180.56 1017.92,-159.14 1030.62,-144.79"/>
<polygon fill="midnightblue" stroke="midnightblue" points="1033.3,-147.05 1037.3,-137.24 1028.05,-142.41 1033.3,-147.05"/>
</g>
<!-- Node27 -->
<g id="node27" class="node">
<title>Node27</title>
<g id="a_node27"><a xlink:href="array_8h.html" target="_top" xlink:title=" ">
<polygon fill="none" stroke="black" points="169,-118 169,-137 269,-137 269,-118 169,-118"/>
<text text-anchor="middle" x="219" y="-125" font-family="Helvetica,sans-Serif" font-size="10.00">thorin/util/array.h</text>
</a>
</g>
</g>
<!-- Node5&#45;&gt;Node27 -->
<g id="edge28" class="edge">
<title>Node5&#45;&gt;Node27</title>
<path fill="none" stroke="midnightblue" d="M903.72,-236.34C900.77,-235.84 897.84,-235.39 895,-235 677.75,-205.44 616.99,-246.73 403,-199 344.71,-186 280.35,-157.94 245.31,-141.41"/>
<polygon fill="midnightblue" stroke="midnightblue" points="246.76,-138.23 236.23,-137.08 243.74,-144.54 246.76,-138.23"/>
</g>
<!-- Node34 -->
<g id="node34" class="node">
<title>Node34</title>
<g id="a_node34"><a xlink:href="cast_8h.html" target="_top" xlink:title=" ">
<polygon fill="none" stroke="black" points="0,-118 0,-137 96,-137 96,-118 0,-118"/>
<text text-anchor="middle" x="48" y="-125" font-family="Helvetica,sans-Serif" font-size="10.00">thorin/util/cast.h</text>
</a>
</g>
</g>
<!-- Node5&#45;&gt;Node34 -->
<g id="edge39" class="edge">
<title>Node5&#45;&gt;Node34</title>
<path fill="none" stroke="midnightblue" d="M903.72,-236.31C900.78,-235.82 897.84,-235.37 895,-235 646.4,-202.34 579.78,-237.36 332,-199 242.15,-185.09 139.13,-156.17 85.26,-140.03"/>
<polygon fill="midnightblue" stroke="midnightblue" points="86.06,-136.62 75.48,-137.08 84.04,-143.32 86.06,-136.62"/>
</g>
<!-- Node35 -->
<g id="node35" class="node">
<title>Node35</title>
<g id="a_node35"><a xlink:href="container_8h.html" target="_top" xlink:title=" ">
<polygon fill="none" stroke="black" points="685.5,-179.5 685.5,-198.5 806.5,-198.5 806.5,-179.5 685.5,-179.5"/>
<text text-anchor="middle" x="746" y="-186.5" font-family="Helvetica,sans-Serif" font-size="10.00">thorin/util/container.h</text>
</a>
</g>
</g>
<!-- Node5&#45;&gt;Node35 -->
<g id="edge42" class="edge">
<title>Node5&#45;&gt;Node35</title>
<path fill="none" stroke="midnightblue" d="M909.26,-235.44C876.06,-226.2 823.01,-211.44 786.44,-201.26"/>
<polygon fill="midnightblue" stroke="midnightblue" points="787.17,-197.83 776.6,-198.52 785.29,-204.57 787.17,-197.83"/>
</g>
<!-- Node40 -->
<g id="node40" class="node">
<title>Node40</title>
<g id="a_node40"><a xlink:href="hash_8h.html" target="_top" xlink:title=" ">
<polygon fill="none" stroke="black" points="1112.5,-118 1112.5,-137 1211.5,-137 1211.5,-118 1112.5,-118"/>
<text text-anchor="middle" x="1162" y="-125" font-family="Helvetica,sans-Serif" font-size="10.00">thorin/util/hash.h</text>
</a>
</g>
</g>
<!-- Node5&#45;&gt;Node40 -->
<g id="edge51" class="edge">
<title>Node5&#45;&gt;Node40</title>
<path fill="none" stroke="midnightblue" d="M956.69,-235.32C995.19,-215.29 1090.46,-165.72 1136.4,-141.82"/>
<polygon fill="midnightblue" stroke="midnightblue" points="1138.17,-144.84 1145.42,-137.12 1134.94,-138.64 1138.17,-144.84"/>
</g>
<!-- Node9 -->
<g id="node9" class="node">
<title>Node9</title>
<g id="a_node9"><a xlink:title=" ">
<polygon fill="none" stroke="#bfbfbf" points="774,-56.5 774,-75.5 818,-75.5 818,-56.5 774,-56.5"/>
<text text-anchor="middle" x="796" y="-63.5" font-family="Helvetica,sans-Serif" font-size="10.00">string</text>
</a>
</g>
</g>
<!-- Node8&#45;&gt;Node9 -->
<g id="edge8" class="edge">
<title>Node8&#45;&gt;Node9</title>
<path fill="none" stroke="midnightblue" d="M412.07,-180.49C359.78,-169.78 283.39,-147.38 316,-112 349.32,-75.85 708.42,-83.55 757,-76 759.23,-75.65 761.53,-75.25 763.83,-74.81"/>
<polygon fill="midnightblue" stroke="midnightblue" points="764.77,-78.19 773.83,-72.7 763.33,-71.34 764.77,-78.19"/>
</g>
<!-- Node10 -->
<g id="node10" class="node">
<title>Node10</title>
<g id="a_node10"><a xlink:title=" ">
<polygon fill="none" stroke="#bfbfbf" points="447,-112.5 447,-142.5 551,-142.5 551,-112.5 447,-112.5"/>
<text text-anchor="start" x="455" y="-130.5" font-family="Helvetica,sans-Serif" font-size="10.00">absl/container/flat</text>
<text text-anchor="middle" x="499" y="-119.5" font-family="Helvetica,sans-Serif" font-size="10.00">_hash_map.h</text>
</a>
</g>
</g>
<!-- Node8&#45;&gt;Node10 -->
<g id="edge9" class="edge">
<title>Node8&#45;&gt;Node10</title>
<path fill="none" stroke="midnightblue" d="M462.16,-179.48C467.55,-172.02 475.62,-160.85 482.83,-150.87"/>
<polygon fill="midnightblue" stroke="midnightblue" points="485.85,-152.68 488.87,-142.52 480.17,-148.58 485.85,-152.68"/>
</g>
<!-- Node11 -->
<g id="node11" class="node">
<title>Node11</title>
<g id="a_node11"><a xlink:title=" ">
<polygon fill="none" stroke="#bfbfbf" points="325,-112.5 325,-142.5 429,-142.5 429,-112.5 325,-112.5"/>
<text text-anchor="start" x="333" y="-130.5" font-family="Helvetica,sans-Serif" font-size="10.00">absl/container/flat</text>
<text text-anchor="middle" x="377" y="-119.5" font-family="Helvetica,sans-Serif" font-size="10.00">_hash_set.h</text>
</a>
</g>
</g>
<!-- Node8&#45;&gt;Node11 -->
<g id="edge10" class="edge">
<title>Node8&#45;&gt;Node11</title>
<path fill="none" stroke="midnightblue" d="M444.68,-179.48C434.08,-171.49 417.83,-159.25 403.91,-148.77"/>
<polygon fill="midnightblue" stroke="midnightblue" points="405.71,-145.74 395.62,-142.52 401.5,-151.33 405.71,-145.74"/>
</g>
<!-- Node13 -->
<g id="node13" class="node">
<title>Node13</title>
<g id="a_node13"><a xlink:title=" ">
<polygon fill="none" stroke="#bfbfbf" points="1229.5,-118 1229.5,-137 1302.5,-137 1302.5,-118 1229.5,-118"/>
<text text-anchor="middle" x="1266" y="-125" font-family="Helvetica,sans-Serif" font-size="10.00">string_view</text>
</a>
</g>
</g>
<!-- Node12&#45;&gt;Node13 -->
<g id="edge12" class="edge">
<title>Node12&#45;&gt;Node13</title>
<path fill="none" stroke="midnightblue" d="M1228.3,-179.48C1234.9,-170.55 1245.44,-156.31 1253.69,-145.14"/>
<polygon fill="midnightblue" stroke="midnightblue" points="1256.58,-147.13 1259.71,-137.01 1250.95,-142.97 1256.58,-147.13"/>
</g>
<!-- Node12&#45;&gt;Node14 -->
<g id="edge13" class="edge">
<title>Node12&#45;&gt;Node14</title>
<path fill="none" stroke="midnightblue" d="M1196.64,-179.48C1166.02,-169.18 1114.34,-151.81 1079.95,-140.25"/>
<polygon fill="midnightblue" stroke="midnightblue" points="1080.91,-136.88 1070.31,-137.01 1078.68,-143.51 1080.91,-136.88"/>
</g>
<!-- Node21 -->
<g id="node21" class="node">
<title>Node21</title>
<g id="a_node21"><a xlink:href="types_8h.html" target="_top" xlink:title=" ">
<polygon fill="none" stroke="black" points="1184.5,-56.5 1184.5,-75.5 1287.5,-75.5 1287.5,-56.5 1184.5,-56.5"/>
<text text-anchor="middle" x="1236" y="-63.5" font-family="Helvetica,sans-Serif" font-size="10.00">thorin/util/types.h</text>
</a>
</g>
</g>
<!-- Node12&#45;&gt;Node21 -->
<g id="edge21" class="edge">
<title>Node12&#45;&gt;Node21</title>
<path fill="none" stroke="midnightblue" d="M1259.1,-179.46C1278.44,-172.92 1300.43,-161.72 1312,-143 1319.24,-131.28 1318.82,-123.97 1312,-112 1303.59,-97.25 1288.23,-86.84 1273.52,-79.77"/>
<polygon fill="midnightblue" stroke="midnightblue" points="1274.58,-76.42 1264.02,-75.6 1271.76,-82.83 1274.58,-76.42"/>
</g>
<!-- Node14&#45;&gt;Node9 -->
<g id="edge18" class="edge">
<title>Node14&#45;&gt;Node9</title>
<path fill="none" stroke="midnightblue" d="M1007.83,-117.97C965.11,-108.1 892.9,-91.26 831,-76 830.09,-75.78 829.17,-75.55 828.25,-75.32"/>
<polygon fill="midnightblue" stroke="midnightblue" points="828.75,-71.84 818.2,-72.78 827.04,-78.62 828.75,-71.84"/>
</g>
<!-- Node15 -->
<g id="node15" class="node">
<title>Node15</title>
<g id="a_node15"><a xlink:title=" ">
<polygon fill="none" stroke="#bfbfbf" points="840,-56.5 840,-75.5 900,-75.5 900,-56.5 840,-56.5"/>
<text text-anchor="middle" x="870" y="-63.5" font-family="Helvetica,sans-Serif" font-size="10.00">iostream</text>
</a>
</g>
</g>
<!-- Node14&#45;&gt;Node15 -->
<g id="edge14" class="edge">
<title>Node14&#45;&gt;Node15</title>
<path fill="none" stroke="midnightblue" d="M1019.93,-117.98C989.65,-107.68 938.56,-90.31 904.56,-78.75"/>
<polygon fill="midnightblue" stroke="midnightblue" points="905.62,-75.41 895.03,-75.51 903.37,-82.04 905.62,-75.41"/>
</g>
<!-- Node16 -->
<g id="node16" class="node">
<title>Node16</title>
<g id="a_node16"><a xlink:title=" ">
<polygon fill="none" stroke="#bfbfbf" points="1082.5,-0.5 1082.5,-19.5 1139.5,-19.5 1139.5,-0.5 1082.5,-0.5"/>
<text text-anchor="middle" x="1111" y="-7.5" font-family="Helvetica,sans-Serif" font-size="10.00">ostream</text>
</a>
</g>
</g>
<!-- Node14&#45;&gt;Node16 -->
<g id="edge15" class="edge">
<title>Node14&#45;&gt;Node16</title>
<path fill="none" stroke="midnightblue" d="M1062.03,-117.9C1076.78,-109.43 1097.23,-95.02 1107,-76 1114.34,-61.7 1114.76,-43.23 1113.69,-29.64"/>
<polygon fill="midnightblue" stroke="midnightblue" points="1117.15,-29.11 1112.55,-19.57 1110.19,-29.9 1117.15,-29.11"/>
</g>
<!-- Node17 -->
<g id="node17" class="node">
<title>Node17</title>
<g id="a_node17"><a xlink:title=" ">
<polygon fill="none" stroke="#bfbfbf" points="698,-56.5 698,-75.5 748,-75.5 748,-56.5 698,-56.5"/>
<text text-anchor="middle" x="723" y="-63.5" font-family="Helvetica,sans-Serif" font-size="10.00">ranges</text>
</a>
</g>
</g>
<!-- Node14&#45;&gt;Node17 -->
<g id="edge16" class="edge">
<title>Node14&#45;&gt;Node17</title>
<path fill="none" stroke="midnightblue" d="M1009.76,-117.99C1000.74,-115.92 991.03,-113.79 982,-112 886.1,-93.03 861.04,-94.25 765,-76 762.8,-75.58 760.53,-75.14 758.25,-74.68"/>
<polygon fill="midnightblue" stroke="midnightblue" points="758.78,-71.21 748.28,-72.62 757.36,-78.07 758.78,-71.21"/>
</g>
<!-- Node18 -->
<g id="node18" class="node">
<title>Node18</title>
<g id="a_node18"><a xlink:title=" ">
<polygon fill="none" stroke="#bfbfbf" points="918,-56.5 918,-75.5 974,-75.5 974,-56.5 918,-56.5"/>
<text text-anchor="middle" x="946" y="-63.5" font-family="Helvetica,sans-Serif" font-size="10.00">sstream</text>
</a>
</g>
</g>
<!-- Node14&#45;&gt;Node18 -->
<g id="edge17" class="edge">
<title>Node14&#45;&gt;Node18</title>
<path fill="none" stroke="midnightblue" d="M1030.82,-117.98C1014.64,-108.25 987.97,-92.23 968.86,-80.74"/>
<polygon fill="midnightblue" stroke="midnightblue" points="970.53,-77.66 960.16,-75.51 966.93,-83.66 970.53,-77.66"/>
</g>
<!-- Node14&#45;&gt;Node19 -->
<g id="edge19" class="edge">
<title>Node14&#45;&gt;Node19</title>
<path fill="none" stroke="midnightblue" d="M1045,-117.98C1045,-109.58 1045,-96.48 1045,-85.66"/>
<polygon fill="midnightblue" stroke="midnightblue" points="1048.5,-85.51 1045,-75.51 1041.5,-85.51 1048.5,-85.51"/>
</g>
<!-- Node20 -->
<g id="node20" class="node">
<title>Node20</title>
<g id="a_node20"><a xlink:title=" ">
<polygon fill="none" stroke="#bfbfbf" points="319,-0.5 319,-19.5 371,-19.5 371,-0.5 319,-0.5"/>
<text text-anchor="middle" x="345" y="-7.5" font-family="Helvetica,sans-Serif" font-size="10.00">cassert</text>
</a>
</g>
</g>
<!-- Node19&#45;&gt;Node20 -->
<g id="edge20" class="edge">
<title>Node19&#45;&gt;Node20</title>
<path fill="none" stroke="midnightblue" d="M991.93,-57.03C988.91,-56.66 985.92,-56.31 983,-56 754.75,-31.42 479.04,-17.19 381.41,-12.63"/>
<polygon fill="midnightblue" stroke="midnightblue" points="381.34,-9.12 371.19,-12.15 381.02,-16.11 381.34,-9.12"/>
</g>
<!-- Node21&#45;&gt;Node16 -->
<g id="edge24" class="edge">
<title>Node21&#45;&gt;Node16</title>
<path fill="none" stroke="midnightblue" d="M1216.19,-56.44C1195.71,-47.6 1163.52,-33.69 1140.14,-23.59"/>
<polygon fill="midnightblue" stroke="midnightblue" points="1141.28,-20.27 1130.71,-19.52 1138.51,-26.7 1141.28,-20.27"/>
</g>
<!-- Node22 -->
<g id="node22" class="node">
<title>Node22</title>
<g id="a_node22"><a xlink:title=" ">
<polygon fill="none" stroke="#bfbfbf" points="1297,-0.5 1297,-19.5 1347,-19.5 1347,-0.5 1297,-0.5"/>
<text text-anchor="middle" x="1322" y="-7.5" font-family="Helvetica,sans-Serif" font-size="10.00">cstdint</text>
</a>
</g>
</g>
<!-- Node21&#45;&gt;Node22 -->
<g id="edge22" class="edge">
<title>Node21&#45;&gt;Node22</title>
<path fill="none" stroke="midnightblue" d="M1249.82,-56.32C1263.23,-47.9 1283.82,-34.97 1299.59,-25.07"/>
<polygon fill="midnightblue" stroke="midnightblue" points="1301.61,-27.94 1308.22,-19.65 1297.89,-22.01 1301.61,-27.94"/>
</g>
<!-- Node23 -->
<g id="node23" class="node">
<title>Node23</title>
<g id="a_node23"><a xlink:title=" ">
<polygon fill="none" stroke="#bfbfbf" points="1365,-0.5 1365,-19.5 1409,-19.5 1409,-0.5 1365,-0.5"/>
<text text-anchor="middle" x="1387" y="-7.5" font-family="Helvetica,sans-Serif" font-size="10.00">limits</text>
</a>
</g>
</g>
<!-- Node21&#45;&gt;Node23 -->
<g id="edge23" class="edge">
<title>Node21&#45;&gt;Node23</title>
<path fill="none" stroke="midnightblue" d="M1259.93,-56.44C1285.67,-47.24 1326.72,-32.56 1355.17,-22.38"/>
<polygon fill="midnightblue" stroke="midnightblue" points="1356.42,-25.65 1364.66,-18.99 1354.07,-19.06 1356.42,-25.65"/>
</g>
<!-- Node24 -->
<g id="node24" class="node">
<title>Node24</title>
<g id="a_node24"><a xlink:title=" ">
<polygon fill="none" stroke="#bfbfbf" points="757.5,-0.5 757.5,-19.5 826.5,-19.5 826.5,-0.5 757.5,-0.5"/>
<text text-anchor="middle" x="792" y="-7.5" font-family="Helvetica,sans-Serif" font-size="10.00">type_traits</text>
</a>
</g>
</g>
<!-- Node21&#45;&gt;Node24 -->
<g id="edge25" class="edge">
<title>Node21&#45;&gt;Node24</title>
<path fill="none" stroke="midnightblue" d="M1184.2,-58.7C1096.34,-48.01 919.6,-26.52 836.76,-16.44"/>
<polygon fill="midnightblue" stroke="midnightblue" points="837.01,-12.95 826.66,-15.22 836.17,-19.9 837.01,-12.95"/>
</g>
<!-- Node25 -->
<g id="node25" class="node">
<title>Node25</title>
<g id="a_node25"><a xlink:title=" ">
<polygon fill="none" stroke="#bfbfbf" points="1157.5,-0.5 1157.5,-19.5 1204.5,-19.5 1204.5,-0.5 1157.5,-0.5"/>
<text text-anchor="middle" x="1181" y="-7.5" font-family="Helvetica,sans-Serif" font-size="10.00">cmath</text>
</a>
</g>
</g>
<!-- Node21&#45;&gt;Node25 -->
<g id="edge26" class="edge">
<title>Node21&#45;&gt;Node25</title>
<path fill="none" stroke="midnightblue" d="M1226.92,-56.08C1218.83,-48.14 1206.8,-36.34 1197.09,-26.8"/>
<polygon fill="midnightblue" stroke="midnightblue" points="1199.5,-24.26 1189.91,-19.75 1194.6,-29.25 1199.5,-24.26"/>
</g>
<!-- Node26 -->
<g id="node26" class="node">
<title>Node26</title>
<g id="a_node26"><a xlink:title=" ">
<polygon fill="none" stroke="#bfbfbf" points="1223,-0.5 1223,-19.5 1279,-19.5 1279,-0.5 1223,-0.5"/>
<text text-anchor="middle" x="1251" y="-7.5" font-family="Helvetica,sans-Serif" font-size="10.00">half.hpp</text>
</a>
</g>
</g>
<!-- Node21&#45;&gt;Node26 -->
<g id="edge27" class="edge">
<title>Node21&#45;&gt;Node26</title>
<path fill="none" stroke="midnightblue" d="M1238.48,-56.08C1240.49,-48.85 1243.39,-38.41 1245.89,-29.4"/>
<polygon fill="midnightblue" stroke="midnightblue" points="1249.26,-30.32 1248.57,-19.75 1242.52,-28.45 1249.26,-30.32"/>
</g>
<!-- Node27&#45;&gt;Node7 -->
<g id="edge38" class="edge">
<title>Node27&#45;&gt;Node7</title>
<path fill="none" stroke="midnightblue" d="M253.75,-117.98C263.2,-115.84 273.46,-113.68 283,-112 408.74,-89.87 441.34,-92.03 568,-76 580.2,-74.46 593.59,-72.76 605.41,-71.26"/>
<polygon fill="midnightblue" stroke="midnightblue" points="605.85,-74.73 615.33,-70 604.97,-67.79 605.85,-74.73"/>
</g>
<!-- Node27&#45;&gt;Node17 -->
<g id="edge36" class="edge">
<title>Node27&#45;&gt;Node17</title>
<path fill="none" stroke="midnightblue" d="M252.72,-117.99C262.44,-115.78 273.1,-113.57 283,-112 454.48,-84.76 499.92,-99.11 672,-76 677.16,-75.31 682.59,-74.47 687.91,-73.58"/>
<polygon fill="midnightblue" stroke="midnightblue" points="688.65,-77.01 697.9,-71.85 687.45,-70.11 688.65,-77.01"/>
</g>
<!-- Node27&#45;&gt;Node20 -->
<g id="edge29" class="edge">
<title>Node27&#45;&gt;Node20</title>
<path fill="none" stroke="midnightblue" d="M253.58,-117.93C276.82,-110.49 306.48,-97.44 325,-76 336.2,-63.03 341.13,-43.86 343.3,-29.7"/>
<polygon fill="midnightblue" stroke="midnightblue" points="346.79,-29.98 344.51,-19.63 339.84,-29.14 346.79,-29.98"/>
</g>
<!-- Node27&#45;&gt;Node24 -->
<g id="edge37" class="edge">
<title>Node27&#45;&gt;Node24</title>
<path fill="none" stroke="midnightblue" d="M269.01,-118C280.81,-116.01 293.35,-113.92 305,-112 404.49,-95.62 430.31,-96.7 529,-76 563.6,-68.74 571.7,-64.6 606,-56 654.16,-43.92 709.48,-30.61 747.19,-21.62"/>
<polygon fill="midnightblue" stroke="midnightblue" points="748.42,-24.92 757.33,-19.2 746.8,-18.12 748.42,-24.92"/>
</g>
<!-- Node28 -->
<g id="node28" class="node">
<title>Node28</title>
<g id="a_node28"><a xlink:title=" ">
<polygon fill="none" stroke="#bfbfbf" points="263.5,-56.5 263.5,-75.5 316.5,-75.5 316.5,-56.5 263.5,-56.5"/>
<text text-anchor="middle" x="290" y="-63.5" font-family="Helvetica,sans-Serif" font-size="10.00">cstddef</text>
</a>
</g>
</g>
<!-- Node27&#45;&gt;Node28 -->
<g id="edge30" class="edge">
<title>Node27&#45;&gt;Node28</title>
<path fill="none" stroke="midnightblue" d="M229.17,-117.98C240.35,-108.61 258.52,-93.38 272.09,-82.01"/>
<polygon fill="midnightblue" stroke="midnightblue" points="274.43,-84.61 279.85,-75.51 269.93,-79.25 274.43,-84.61"/>
</g>
<!-- Node29 -->
<g id="node29" class="node">
<title>Node29</title>
<g id="a_node29"><a xlink:title=" ">
<polygon fill="none" stroke="#bfbfbf" points="23,-56.5 23,-75.5 73,-75.5 73,-56.5 23,-56.5"/>
<text text-anchor="middle" x="48" y="-63.5" font-family="Helvetica,sans-Serif" font-size="10.00">cstring</text>
</a>
</g>
</g>
<!-- Node27&#45;&gt;Node29 -->
<g id="edge31" class="edge">
<title>Node27&#45;&gt;Node29</title>
<path fill="none" stroke="midnightblue" d="M194.5,-117.98C165.04,-107.72 115.42,-90.46 82.2,-78.9"/>
<polygon fill="midnightblue" stroke="midnightblue" points="83.05,-75.49 72.45,-75.51 80.75,-82.1 83.05,-75.49"/>
</g>
<!-- Node30 -->
<g id="node30" class="node">
<title>Node30</title>
<g id="a_node30"><a xlink:title=" ">
<polygon fill="none" stroke="#bfbfbf" points="373,-56.5 373,-75.5 437,-75.5 437,-56.5 373,-56.5"/>
<text text-anchor="middle" x="405" y="-63.5" font-family="Helvetica,sans-Serif" font-size="10.00">algorithm</text>
</a>
</g>
</g>
<!-- Node27&#45;&gt;Node30 -->
<g id="edge32" class="edge">
<title>Node27&#45;&gt;Node30</title>
<path fill="none" stroke="midnightblue" d="M245.65,-117.98C277.97,-107.64 332.6,-90.16 368.73,-78.6"/>
<polygon fill="midnightblue" stroke="midnightblue" points="369.94,-81.89 378.4,-75.51 367.81,-75.22 369.94,-81.89"/>
</g>
<!-- Node31 -->
<g id="node31" class="node">
<title>Node31</title>
<g id="a_node31"><a xlink:title=" ">
<polygon fill="none" stroke="#bfbfbf" points="455.5,-56.5 455.5,-75.5 520.5,-75.5 520.5,-56.5 455.5,-56.5"/>
<text text-anchor="middle" x="488" y="-63.5" font-family="Helvetica,sans-Serif" font-size="10.00">functional</text>
</a>
</g>
</g>
<!-- Node27&#45;&gt;Node31 -->
<g id="edge33" class="edge">
<title>Node27&#45;&gt;Node31</title>
<path fill="none" stroke="midnightblue" d="M256.55,-117.95C265.24,-115.98 274.44,-113.91 283,-112 339.06,-99.5 403.81,-85.33 445.3,-76.29"/>
<polygon fill="midnightblue" stroke="midnightblue" points="446.29,-79.65 455.32,-74.1 444.8,-72.81 446.29,-79.65"/>
</g>
<!-- Node32 -->
<g id="node32" class="node">
<title>Node32</title>
<g id="a_node32"><a xlink:title=" ">
<polygon fill="none" stroke="#bfbfbf" points="91.5,-56.5 91.5,-75.5 174.5,-75.5 174.5,-56.5 91.5,-56.5"/>
<text text-anchor="middle" x="133" y="-63.5" font-family="Helvetica,sans-Serif" font-size="10.00">initializer_list</text>
</a>
</g>
</g>
<!-- Node27&#45;&gt;Node32 -->
<g id="edge34" class="edge">
<title>Node27&#45;&gt;Node32</title>
<path fill="none" stroke="midnightblue" d="M206.68,-117.98C192.88,-108.43 170.3,-92.81 153.77,-81.37"/>
<polygon fill="midnightblue" stroke="midnightblue" points="155.51,-78.32 145.3,-75.51 151.53,-84.08 155.51,-78.32"/>
</g>
<!-- Node33 -->
<g id="node33" class="node">
<title>Node33</title>
<g id="a_node33"><a xlink:title=" ">
<polygon fill="none" stroke="#bfbfbf" points="192.5,-56.5 192.5,-75.5 245.5,-75.5 245.5,-56.5 192.5,-56.5"/>
<text text-anchor="middle" x="219" y="-63.5" font-family="Helvetica,sans-Serif" font-size="10.00">iterator</text>
</a>
</g>
</g>
<!-- Node27&#45;&gt;Node33 -->
<g id="edge35" class="edge">
<title>Node27&#45;&gt;Node33</title>
<path fill="none" stroke="midnightblue" d="M219,-117.98C219,-109.58 219,-96.48 219,-85.66"/>
<polygon fill="midnightblue" stroke="midnightblue" points="222.5,-85.51 219,-75.51 215.5,-85.51 222.5,-85.51"/>
</g>
<!-- Node34&#45;&gt;Node20 -->
<g id="edge40" class="edge">
<title>Node34&#45;&gt;Node20</title>
<path fill="none" stroke="midnightblue" d="M38.03,-117.84C22.86,-103.63 -2.62,-75.04 14,-56 51.94,-12.56 230.72,-9.46 308.6,-10.23"/>
<polygon fill="midnightblue" stroke="midnightblue" points="308.85,-13.74 318.89,-10.37 308.94,-6.74 308.85,-13.74"/>
</g>
<!-- Node34&#45;&gt;Node29 -->
<g id="edge41" class="edge">
<title>Node34&#45;&gt;Node29</title>
<path fill="none" stroke="midnightblue" d="M48,-117.98C48,-109.58 48,-96.48 48,-85.66"/>
<polygon fill="midnightblue" stroke="midnightblue" points="51.5,-85.51 48,-75.51 44.5,-85.51 51.5,-85.51"/>
</g>
<!-- Node35&#45;&gt;Node10 -->
<g id="edge45" class="edge">
<title>Node35&#45;&gt;Node10</title>
<path fill="none" stroke="midnightblue" d="M710.61,-179.48C671.63,-170.09 608.22,-154.81 560.96,-143.42"/>
<polygon fill="midnightblue" stroke="midnightblue" points="561.67,-140 551.13,-141.06 560.03,-146.8 561.67,-140"/>
</g>
<!-- Node35&#45;&gt;Node11 -->
<g id="edge46" class="edge">
<title>Node35&#45;&gt;Node11</title>
<path fill="none" stroke="midnightblue" d="M685.25,-180.73C625.12,-173.18 530.28,-160.29 439.13,-143.12"/>
<polygon fill="midnightblue" stroke="midnightblue" points="439.66,-139.66 429.18,-141.22 438.35,-146.53 439.66,-139.66"/>
</g>
<!-- Node36 -->
<g id="node36" class="node">
<title>Node36</title>
<g id="a_node36"><a xlink:title=" ">
<polygon fill="none" stroke="#bfbfbf" points="892.5,-118 892.5,-137 939.5,-137 939.5,-118 892.5,-118"/>
<text text-anchor="middle" x="916" y="-125" font-family="Helvetica,sans-Serif" font-size="10.00">queue</text>
</a>
</g>
</g>
<!-- Node35&#45;&gt;Node36 -->
<g id="edge43" class="edge">
<title>Node35&#45;&gt;Node36</title>
<path fill="none" stroke="midnightblue" d="M775.4,-179.44C803.57,-171 847.12,-157.32 884,-143 885.42,-142.45 886.87,-141.87 888.33,-141.26"/>
<polygon fill="midnightblue" stroke="midnightblue" points="890.09,-144.32 897.87,-137.13 887.3,-137.89 890.09,-144.32"/>
</g>
<!-- Node37 -->
<g id="node37" class="node">
<title>Node37</title>
<g id="a_node37"><a xlink:title=" ">
<polygon fill="none" stroke="#bfbfbf" points="569.5,-118 569.5,-137 612.5,-137 612.5,-118 569.5,-118"/>
<text text-anchor="middle" x="591" y="-125" font-family="Helvetica,sans-Serif" font-size="10.00">stack</text>
</a>
</g>
</g>
<!-- Node35&#45;&gt;Node37 -->
<g id="edge44" class="edge">
<title>Node35&#45;&gt;Node37</title>
<path fill="none" stroke="midnightblue" d="M720.09,-179.35C694.83,-170.75 655.43,-156.85 622,-143 620.63,-142.43 619.23,-141.84 617.82,-141.22"/>
<polygon fill="midnightblue" stroke="midnightblue" points="619.14,-137.98 608.58,-137.06 616.26,-144.36 619.14,-137.98"/>
</g>
<!-- Node38 -->
<g id="node38" class="node">
<title>Node38</title>
<g id="a_node38"><a xlink:title=" ">
<polygon fill="none" stroke="#bfbfbf" points="630.5,-112.5 630.5,-142.5 743.5,-142.5 743.5,-112.5 630.5,-112.5"/>
<text text-anchor="start" x="638.5" y="-130.5" font-family="Helvetica,sans-Serif" font-size="10.00">absl/container/node</text>
<text text-anchor="middle" x="687" y="-119.5" font-family="Helvetica,sans-Serif" font-size="10.00">_hash_map.h</text>
</a>
</g>
</g>
<!-- Node35&#45;&gt;Node38 -->
<g id="edge47" class="edge">
<title>Node35&#45;&gt;Node38</title>
<path fill="none" stroke="midnightblue" d="M737.55,-179.48C729.85,-171.72 718.18,-159.94 707.99,-149.66"/>
<polygon fill="midnightblue" stroke="midnightblue" points="710.43,-147.16 700.91,-142.52 705.46,-152.09 710.43,-147.16"/>
</g>
<!-- Node39 -->
<g id="node39" class="node">
<title>Node39</title>
<g id="a_node39"><a xlink:title=" ">
<polygon fill="none" stroke="#bfbfbf" points="761.5,-112.5 761.5,-142.5 874.5,-142.5 874.5,-112.5 761.5,-112.5"/>
<text text-anchor="start" x="769.5" y="-130.5" font-family="Helvetica,sans-Serif" font-size="10.00">absl/container/node</text>
<text text-anchor="middle" x="818" y="-119.5" font-family="Helvetica,sans-Serif" font-size="10.00">_hash_set.h</text>
</a>
</g>
</g>
<!-- Node35&#45;&gt;Node39 -->
<g id="edge48" class="edge">
<title>Node35&#45;&gt;Node39</title>
<path fill="none" stroke="midnightblue" d="M756.32,-179.48C765.88,-171.57 780.51,-159.48 793.11,-149.07"/>
<polygon fill="midnightblue" stroke="midnightblue" points="795.55,-151.59 801.03,-142.52 791.09,-146.2 795.55,-151.59"/>
</g>
<!-- Node35&#45;&gt;Node40 -->
<g id="edge49" class="edge">
<title>Node35&#45;&gt;Node40</title>
<path fill="none" stroke="midnightblue" d="M806.65,-182.51C877.95,-175.56 999.65,-162.15 1103,-143 1108.57,-141.97 1114.41,-140.73 1120.15,-139.42"/>
<polygon fill="midnightblue" stroke="midnightblue" points="1121.38,-142.72 1130.3,-137 1119.76,-135.91 1121.38,-142.72"/>
</g>
<!-- Node40&#45;&gt;Node21 -->
<g id="edge50" class="edge">
<title>Node40&#45;&gt;Node21</title>
<path fill="none" stroke="midnightblue" d="M1172.6,-117.98C1184.25,-108.61 1203.19,-93.38 1217.33,-82.01"/>
<polygon fill="midnightblue" stroke="midnightblue" points="1219.82,-84.5 1225.42,-75.51 1215.43,-79.05 1219.82,-84.5"/>
</g>
</g>
</svg>
