<?xml version="1.0" encoding="UTF-8" standalone="no"?>
<!DOCTYPE svg PUBLIC "-//W3C//DTD SVG 1.1//EN"
 "http://www.w3.org/Graphics/SVG/1.1/DTD/svg11.dtd">
<!-- Generated by graphviz version 2.50.0 (20220203.2022)
 -->
<!-- Title: thorin/pass/fp/beta_red.cpp Pages: 1 -->
<svg width="1925pt" height="666pt"
 viewBox="0.00 0.00 1925.00 666.00" xmlns="http://www.w3.org/2000/svg" xmlns:xlink="http://www.w3.org/1999/xlink">
<g id="graph0" class="graph" transform="scale(1 1) rotate(0) translate(4 662)">
<title>thorin/pass/fp/beta_red.cpp</title>
<!-- Node1 -->
<g id="node1" class="node">
<title>Node1</title>
<g id="a_node1"><a xlink:title=" ">
<polygon fill="#bfbfbf" stroke="black" points="896,-627.5 896,-657.5 994,-657.5 994,-627.5 896,-627.5"/>
<text text-anchor="start" x="904" y="-645.5" font-family="Helvetica,sans-Serif" font-size="10.00">thorin/pass/fp/beta</text>
<text text-anchor="middle" x="945" y="-634.5" font-family="Helvetica,sans-Serif" font-size="10.00">_red.cpp</text>
</a>
</g>
</g>
<!-- Node2 -->
<g id="node2" class="node">
<title>Node2</title>
<g id="a_node2"><a xlink:href="beta__red_8h.html" target="_top" xlink:title=" ">
<polygon fill="none" stroke="black" points="858,-560.5 858,-590.5 956,-590.5 956,-560.5 858,-560.5"/>
<text text-anchor="start" x="866" y="-578.5" font-family="Helvetica,sans-Serif" font-size="10.00">thorin/pass/fp/beta</text>
<text text-anchor="middle" x="907" y="-567.5" font-family="Helvetica,sans-Serif" font-size="10.00">_red.h</text>
</a>
</g>
</g>
<!-- Node1&#45;&gt;Node2 -->
<g id="edge1" class="edge">
<title>Node1&#45;&gt;Node2</title>
<path fill="none" stroke="midnightblue" d="M936.75,-627.4C931.97,-619.22 925.84,-608.73 920.38,-599.39"/>
<polygon fill="midnightblue" stroke="midnightblue" points="923.3,-597.44 915.23,-590.58 917.25,-600.98 923.3,-597.44"/>
</g>
<!-- Node49 -->
<g id="node49" class="node">
<title>Node49</title>
<g id="a_node49"><a xlink:href="rewrite_8h.html" target="_top" xlink:title=" ">
<polygon fill="none" stroke="black" points="959,-504.5 959,-523.5 1039,-523.5 1039,-504.5 959,-504.5"/>
<text text-anchor="middle" x="999" y="-511.5" font-family="Helvetica,sans-Serif" font-size="10.00">thorin/rewrite.h</text>
</a>
</g>
</g>
<!-- Node1&#45;&gt;Node49 -->
<g id="edge85" class="edge">
<title>Node1&#45;&gt;Node49</title>
<path fill="none" stroke="midnightblue" d="M950.99,-627.48C960.83,-604.41 980.44,-558.48 991.3,-533.03"/>
<polygon fill="midnightblue" stroke="midnightblue" points="994.54,-534.36 995.25,-523.79 988.1,-531.61 994.54,-534.36"/>
</g>
<!-- Node3 -->
<g id="node3" class="node">
<title>Node3</title>
<g id="a_node3"><a xlink:href="pass_8h.html" target="_top" xlink:title=" ">
<polygon fill="none" stroke="black" points="845,-504.5 845,-523.5 941,-523.5 941,-504.5 845,-504.5"/>
<text text-anchor="middle" x="893" y="-511.5" font-family="Helvetica,sans-Serif" font-size="10.00">thorin/pass/pass.h</text>
</a>
</g>
</g>
<!-- Node2&#45;&gt;Node3 -->
<g id="edge2" class="edge">
<title>Node2&#45;&gt;Node3</title>
<path fill="none" stroke="midnightblue" d="M903.68,-560.4C901.79,-552.38 899.41,-542.23 897.37,-533.57"/>
<polygon fill="midnightblue" stroke="midnightblue" points="900.73,-532.59 895.04,-523.66 893.92,-534.19 900.73,-532.59"/>
</g>
<!-- Node4 -->
<g id="node4" class="node">
<title>Node4</title>
<g id="a_node4"><a xlink:title=" ">
<polygon fill="none" stroke="#bfbfbf" points="823.5,-448.5 823.5,-467.5 864.5,-467.5 864.5,-448.5 823.5,-448.5"/>
<text text-anchor="middle" x="844" y="-455.5" font-family="Helvetica,sans-Serif" font-size="10.00">stack</text>
</a>
</g>
</g>
<!-- Node3&#45;&gt;Node4 -->
<g id="edge3" class="edge">
<title>Node3&#45;&gt;Node4</title>
<path fill="none" stroke="midnightblue" d="M884.91,-504.08C877.84,-496.3 867.41,-484.8 858.85,-475.37"/>
<polygon fill="midnightblue" stroke="midnightblue" points="861.25,-472.8 851.94,-467.75 856.07,-477.51 861.25,-472.8"/>
</g>
<!-- Node5 -->
<g id="node5" class="node">
<title>Node5</title>
<g id="a_node5"><a xlink:href="world_8h.html" target="_top" xlink:title=" ">
<polygon fill="none" stroke="black" points="1143,-448.5 1143,-467.5 1217,-467.5 1217,-448.5 1143,-448.5"/>
<text text-anchor="middle" x="1180" y="-455.5" font-family="Helvetica,sans-Serif" font-size="10.00">thorin/world.h</text>
</a>
</g>
</g>
<!-- Node3&#45;&gt;Node5 -->
<g id="edge4" class="edge">
<title>Node3&#45;&gt;Node5</title>
<path fill="none" stroke="midnightblue" d="M938.48,-504.44C991.64,-494.44 1079.17,-477.97 1132.98,-467.85"/>
<polygon fill="midnightblue" stroke="midnightblue" points="1133.77,-471.26 1142.95,-465.97 1132.48,-464.38 1133.77,-471.26"/>
</g>
<!-- Node48 -->
<g id="node48" class="node">
<title>Node48</title>
<g id="a_node48"><a xlink:href="scope_8h.html" target="_top" xlink:title=" ">
<polygon fill="none" stroke="black" points="833.5,-336.5 833.5,-355.5 952.5,-355.5 952.5,-336.5 833.5,-336.5"/>
<text text-anchor="middle" x="893" y="-343.5" font-family="Helvetica,sans-Serif" font-size="10.00">thorin/analyses/scope.h</text>
</a>
</g>
</g>
<!-- Node3&#45;&gt;Node48 -->
<g id="edge82" class="edge">
<title>Node3&#45;&gt;Node48</title>
<path fill="none" stroke="midnightblue" d="M893,-504.08C893,-477.95 893,-401.21 893,-365.58"/>
<polygon fill="midnightblue" stroke="midnightblue" points="896.5,-365.57 893,-355.57 889.5,-365.57 896.5,-365.57"/>
</g>
<!-- Node6 -->
<g id="node6" class="node">
<title>Node6</title>
<g id="a_node6"><a xlink:title=" ">
<polygon fill="none" stroke="#bfbfbf" points="1310.5,-0.5 1310.5,-19.5 1359.5,-19.5 1359.5,-0.5 1310.5,-0.5"/>
<text text-anchor="middle" x="1335" y="-7.5" font-family="Helvetica,sans-Serif" font-size="10.00">cassert</text>
</a>
</g>
</g>
<!-- Node5&#45;&gt;Node6 -->
<g id="edge5" class="edge">
<title>Node5&#45;&gt;Node6</title>
<path fill="none" stroke="midnightblue" d="M1217.32,-456.56C1334.83,-454.81 1695.93,-446.69 1807,-412 1861.2,-395.07 1917,-403.79 1917,-347 1917,-347 1917,-347 1917,-121 1917,-32.59 1815.21,-75.58 1729,-56 1598.67,-26.4 1439.46,-15.82 1370.09,-12.43"/>
<polygon fill="midnightblue" stroke="midnightblue" points="1369.9,-8.92 1359.75,-11.95 1369.58,-15.91 1369.9,-8.92"/>
</g>
<!-- Node7 -->
<g id="node7" class="node">
<title>Node7</title>
<g id="a_node7"><a xlink:title=" ">
<polygon fill="none" stroke="#bfbfbf" points="1445.5,-112.5 1445.5,-131.5 1504.5,-131.5 1504.5,-112.5 1445.5,-112.5"/>
<text text-anchor="middle" x="1475" y="-119.5" font-family="Helvetica,sans-Serif" font-size="10.00">functional</text>
</a>
</g>
</g>
<!-- Node5&#45;&gt;Node7 -->
<g id="edge6" class="edge">
<title>Node5&#45;&gt;Node7</title>
<path fill="none" stroke="midnightblue" d="M1217.22,-455.66C1323.54,-450.85 1621,-429.95 1621,-347 1621,-347 1621,-347 1621,-233 1621,-179.41 1557.49,-148.66 1514.24,-133.93"/>
<polygon fill="midnightblue" stroke="midnightblue" points="1515.14,-130.55 1504.55,-130.78 1512.97,-137.2 1515.14,-130.55"/>
</g>
<!-- Node8 -->
<g id="node8" class="node">
<title>Node8</title>
<g id="a_node8"><a xlink:title=" ">
<polygon fill="none" stroke="#bfbfbf" points="1523,-112.5 1523,-131.5 1595,-131.5 1595,-112.5 1523,-112.5"/>
<text text-anchor="middle" x="1559" y="-119.5" font-family="Helvetica,sans-Serif" font-size="10.00">initializer_list</text>
</a>
</g>
</g>
<!-- Node5&#45;&gt;Node8 -->
<g id="edge7" class="edge">
<title>Node5&#45;&gt;Node8</title>
<path fill="none" stroke="midnightblue" d="M1217.18,-457.02C1335.72,-456.09 1697,-445.19 1697,-347 1697,-347 1697,-347 1697,-233 1697,-181.66 1637.87,-150.4 1597.03,-134.93"/>
<polygon fill="midnightblue" stroke="midnightblue" points="1598.19,-131.63 1587.59,-131.51 1595.8,-138.21 1598.19,-131.63"/>
</g>
<!-- Node9 -->
<g id="node9" class="node">
<title>Node9</title>
<g id="a_node9"><a xlink:title=" ">
<polygon fill="none" stroke="#bfbfbf" points="847,-56.5 847,-75.5 901,-75.5 901,-56.5 847,-56.5"/>
<text text-anchor="middle" x="874" y="-63.5" font-family="Helvetica,sans-Serif" font-size="10.00">iostream</text>
</a>
</g>
</g>
<!-- Node5&#45;&gt;Node9 -->
<g id="edge8" class="edge">
<title>Node5&#45;&gt;Node9</title>
<path fill="none" stroke="midnightblue" d="M1182,-448.36C1191.53,-404.65 1227.96,-206.42 1128,-112 1120.14,-104.58 979.64,-82.75 911.06,-72.47"/>
<polygon fill="midnightblue" stroke="midnightblue" points="911.5,-69 901.09,-70.98 910.46,-75.92 911.5,-69"/>
</g>
<!-- Node10 -->
<g id="node10" class="node">
<title>Node10</title>
<g id="a_node10"><a xlink:title=" ">
<polygon fill="none" stroke="#bfbfbf" points="1602.5,-56.5 1602.5,-75.5 1643.5,-75.5 1643.5,-56.5 1602.5,-56.5"/>
<text text-anchor="middle" x="1623" y="-63.5" font-family="Helvetica,sans-Serif" font-size="10.00">string</text>
</a>
</g>
</g>
<!-- Node5&#45;&gt;Node10 -->
<g id="edge9" class="edge">
<title>Node5&#45;&gt;Node10</title>
<path fill="none" stroke="midnightblue" d="M1217.13,-455.57C1324.38,-451.19 1633.18,-436.73 1731,-412 1800.65,-394.39 1879,-418.84 1879,-347 1879,-347 1879,-347 1879,-177 1879,-79.89 1721.56,-67.44 1653.62,-66.59"/>
<polygon fill="midnightblue" stroke="midnightblue" points="1653.53,-63.09 1643.52,-66.54 1653.5,-70.09 1653.53,-63.09"/>
</g>
<!-- Node11 -->
<g id="node11" class="node">
<title>Node11</title>
<g id="a_node11"><a xlink:href="axiom_8h.html" target="_top" xlink:title=" ">
<polygon fill="none" stroke="black" points="1055.5,-392.5 1055.5,-411.5 1132.5,-411.5 1132.5,-392.5 1055.5,-392.5"/>
<text text-anchor="middle" x="1094" y="-399.5" font-family="Helvetica,sans-Serif" font-size="10.00">thorin/axiom.h</text>
</a>
</g>
</g>
<!-- Node5&#45;&gt;Node11 -->
<g id="edge10" class="edge">
<title>Node5&#45;&gt;Node11</title>
<path fill="none" stroke="midnightblue" d="M1166.18,-448.32C1152.77,-439.9 1132.18,-426.97 1116.41,-417.07"/>
<polygon fill="midnightblue" stroke="midnightblue" points="1118.11,-414.01 1107.78,-411.65 1114.39,-419.94 1118.11,-414.01"/>
</g>
<!-- Node16 -->
<g id="node16" class="node">
<title>Node16</title>
<g id="a_node16"><a xlink:title=" ">
<polygon fill="none" stroke="#bfbfbf" points="1403.5,-56.5 1403.5,-75.5 1480.5,-75.5 1480.5,-56.5 1403.5,-56.5"/>
<text text-anchor="middle" x="1442" y="-63.5" font-family="Helvetica,sans-Serif" font-size="10.00">thorin/config.h</text>
</a>
</g>
</g>
<!-- Node5&#45;&gt;Node16 -->
<g id="edge76" class="edge">
<title>Node5&#45;&gt;Node16</title>
<path fill="none" stroke="midnightblue" d="M1217.04,-457.47C1297.92,-457.63 1495.85,-453.34 1655,-412 1724.53,-393.94 1803,-418.84 1803,-347 1803,-347 1803,-347 1803,-177 1803,-146.9 1806.85,-131.59 1784,-112 1762.13,-93.26 1579.99,-77.27 1490.81,-70.48"/>
<polygon fill="midnightblue" stroke="midnightblue" points="1490.91,-66.98 1480.67,-69.72 1490.38,-73.96 1490.91,-66.98"/>
</g>
<!-- Node19 -->
<g id="node19" class="node">
<title>Node19</title>
<g id="a_node19"><a xlink:href="hash_8h.html" target="_top" xlink:title=" ">
<polygon fill="none" stroke="black" points="627,-168.5 627,-187.5 715,-187.5 715,-168.5 627,-168.5"/>
<text text-anchor="middle" x="671" y="-175.5" font-family="Helvetica,sans-Serif" font-size="10.00">thorin/util/hash.h</text>
</a>
</g>
</g>
<!-- Node5&#45;&gt;Node19 -->
<g id="edge81" class="edge">
<title>Node5&#45;&gt;Node19</title>
<path fill="none" stroke="midnightblue" d="M1142.67,-454.35C1008.84,-444.34 561,-406.42 561,-347 561,-347 561,-347 561,-289 561,-242.91 609.88,-209.39 642.47,-192.16"/>
<polygon fill="midnightblue" stroke="midnightblue" points="644.25,-195.18 651.59,-187.54 641.09,-188.94 644.25,-195.18"/>
</g>
<!-- Node46 -->
<g id="node46" class="node">
<title>Node46</title>
<g id="a_node46"><a xlink:href="lattice_8h.html" target="_top" xlink:title=" ">
<polygon fill="none" stroke="black" points="1094.5,-336.5 1094.5,-355.5 1171.5,-355.5 1171.5,-336.5 1094.5,-336.5"/>
<text text-anchor="middle" x="1133" y="-343.5" font-family="Helvetica,sans-Serif" font-size="10.00">thorin/lattice.h</text>
</a>
</g>
</g>
<!-- Node5&#45;&gt;Node46 -->
<g id="edge77" class="edge">
<title>Node5&#45;&gt;Node46</title>
<path fill="none" stroke="midnightblue" d="M1176.31,-448.37C1168.66,-430.46 1150.91,-388.92 1140.67,-364.95"/>
<polygon fill="midnightblue" stroke="midnightblue" points="1143.82,-363.41 1136.67,-355.59 1137.38,-366.16 1143.82,-363.41"/>
</g>
<!-- Node47 -->
<g id="node47" class="node">
<title>Node47</title>
<g id="a_node47"><a xlink:href="tuple_8h.html" target="_top" xlink:title=" ">
<polygon fill="none" stroke="black" points="964,-392.5 964,-411.5 1036,-411.5 1036,-392.5 964,-392.5"/>
<text text-anchor="middle" x="1000" y="-399.5" font-family="Helvetica,sans-Serif" font-size="10.00">thorin/tuple.h</text>
</a>
</g>
</g>
<!-- Node5&#45;&gt;Node47 -->
<g id="edge79" class="edge">
<title>Node5&#45;&gt;Node47</title>
<path fill="none" stroke="midnightblue" d="M1151.48,-448.44C1120.93,-439.28 1072.29,-424.69 1038.4,-414.52"/>
<polygon fill="midnightblue" stroke="midnightblue" points="1038.97,-411.04 1028.39,-411.52 1036.96,-417.74 1038.97,-411.04"/>
</g>
<!-- Node12 -->
<g id="node12" class="node">
<title>Node12</title>
<g id="a_node12"><a xlink:href="lam_8h.html" target="_top" xlink:title=" ">
<polygon fill="none" stroke="black" points="1009.5,-336.5 1009.5,-355.5 1076.5,-355.5 1076.5,-336.5 1009.5,-336.5"/>
<text text-anchor="middle" x="1043" y="-343.5" font-family="Helvetica,sans-Serif" font-size="10.00">thorin/lam.h</text>
</a>
</g>
</g>
<!-- Node11&#45;&gt;Node12 -->
<g id="edge11" class="edge">
<title>Node11&#45;&gt;Node12</title>
<path fill="none" stroke="midnightblue" d="M1085.58,-392.08C1078.15,-384.22 1067.15,-372.57 1058.19,-363.08"/>
<polygon fill="midnightblue" stroke="midnightblue" points="1060.68,-360.62 1051.26,-355.75 1055.59,-365.42 1060.68,-360.62"/>
</g>
<!-- Node13 -->
<g id="node13" class="node">
<title>Node13</title>
<g id="a_node13"><a xlink:href="def_8h.html" target="_top" xlink:title=" ">
<polygon fill="none" stroke="black" points="948.5,-280.5 948.5,-299.5 1013.5,-299.5 1013.5,-280.5 948.5,-280.5"/>
<text text-anchor="middle" x="981" y="-287.5" font-family="Helvetica,sans-Serif" font-size="10.00">thorin/def.h</text>
</a>
</g>
</g>
<!-- Node12&#45;&gt;Node13 -->
<g id="edge12" class="edge">
<title>Node12&#45;&gt;Node13</title>
<path fill="none" stroke="midnightblue" d="M1033.04,-336.32C1023.87,-328.34 1010.06,-316.31 998.97,-306.65"/>
<polygon fill="midnightblue" stroke="midnightblue" points="1000.98,-303.76 991.14,-299.83 996.38,-309.04 1000.98,-303.76"/>
</g>
<!-- Node14 -->
<g id="node14" class="node">
<title>Node14</title>
<g id="a_node14"><a xlink:title=" ">
<polygon fill="none" stroke="#bfbfbf" points="206,-112.5 206,-131.5 256,-131.5 256,-112.5 206,-112.5"/>
<text text-anchor="middle" x="231" y="-119.5" font-family="Helvetica,sans-Serif" font-size="10.00">optional</text>
</a>
</g>
</g>
<!-- Node13&#45;&gt;Node14 -->
<g id="edge13" class="edge">
<title>Node13&#45;&gt;Node14</title>
<path fill="none" stroke="midnightblue" d="M948.12,-283.83C899.74,-276.07 806.58,-260.54 728,-244 553.41,-207.26 346.75,-153.66 265.89,-132.29"/>
<polygon fill="midnightblue" stroke="midnightblue" points="266.78,-128.91 256.22,-129.73 264.99,-135.68 266.78,-128.91"/>
</g>
<!-- Node15 -->
<g id="node15" class="node">
<title>Node15</title>
<g id="a_node15"><a xlink:title=" ">
<polygon fill="none" stroke="#bfbfbf" points="1175,-112.5 1175,-131.5 1219,-131.5 1219,-112.5 1175,-112.5"/>
<text text-anchor="middle" x="1197" y="-119.5" font-family="Helvetica,sans-Serif" font-size="10.00">vector</text>
</a>
</g>
</g>
<!-- Node13&#45;&gt;Node15 -->
<g id="edge14" class="edge">
<title>Node13&#45;&gt;Node15</title>
<path fill="none" stroke="midnightblue" d="M992.31,-280.31C1027.23,-253.47 1133.64,-171.69 1177.64,-137.88"/>
<polygon fill="midnightblue" stroke="midnightblue" points="1180.01,-140.47 1185.8,-131.61 1175.74,-134.92 1180.01,-140.47"/>
</g>
<!-- Node13&#45;&gt;Node16 -->
<g id="edge15" class="edge">
<title>Node13&#45;&gt;Node16</title>
<path fill="none" stroke="midnightblue" d="M1013.57,-285.95C1130.96,-274.21 1529.35,-227.79 1604,-132 1636.42,-90.4 1549.87,-75.32 1491.14,-69.93"/>
<polygon fill="midnightblue" stroke="midnightblue" points="1491.16,-66.42 1480.89,-69.06 1490.56,-73.39 1491.16,-66.42"/>
</g>
<!-- Node17 -->
<g id="node17" class="node">
<title>Node17</title>
<g id="a_node17"><a xlink:href="debug_8h.html" target="_top" xlink:title=" ">
<polygon fill="none" stroke="black" points="814.5,-224.5 814.5,-243.5 891.5,-243.5 891.5,-224.5 814.5,-224.5"/>
<text text-anchor="middle" x="853" y="-231.5" font-family="Helvetica,sans-Serif" font-size="10.00">thorin/debug.h</text>
</a>
</g>
</g>
<!-- Node13&#45;&gt;Node17 -->
<g id="edge16" class="edge">
<title>Node13&#45;&gt;Node17</title>
<path fill="none" stroke="midnightblue" d="M960.72,-280.44C939.65,-271.56 906.48,-257.56 882.51,-247.45"/>
<polygon fill="midnightblue" stroke="midnightblue" points="883.76,-244.18 873.19,-243.52 881.04,-250.63 883.76,-244.18"/>
</g>
<!-- Node13&#45;&gt;Node19 -->
<g id="edge71" class="edge">
<title>Node13&#45;&gt;Node19</title>
<path fill="none" stroke="midnightblue" d="M948.43,-285.84C906,-280.88 830.14,-269.11 770,-244 739.4,-231.22 708.06,-208.74 689.06,-193.86"/>
<polygon fill="midnightblue" stroke="midnightblue" points="691.24,-191.12 681.24,-187.62 686.87,-196.59 691.24,-191.12"/>
</g>
<!-- Node29 -->
<g id="node29" class="node">
<title>Node29</title>
<g id="a_node29"><a xlink:href="stream_8h.html" target="_top" xlink:title=" ">
<polygon fill="none" stroke="black" points="871.5,-112.5 871.5,-131.5 968.5,-131.5 968.5,-112.5 871.5,-112.5"/>
<text text-anchor="middle" x="920" y="-119.5" font-family="Helvetica,sans-Serif" font-size="10.00">thorin/util/stream.h</text>
</a>
</g>
</g>
<!-- Node13&#45;&gt;Node29 -->
<g id="edge75" class="edge">
<title>Node13&#45;&gt;Node29</title>
<path fill="none" stroke="midnightblue" d="M977.72,-280.08C968.08,-253.83 939.68,-176.55 926.66,-141.12"/>
<polygon fill="midnightblue" stroke="midnightblue" points="929.88,-139.75 923.15,-131.57 923.31,-142.16 929.88,-139.75"/>
</g>
<!-- Node39 -->
<g id="node39" class="node">
<title>Node39</title>
<g id="a_node39"><a xlink:href="tables_8h.html" target="_top" xlink:title=" ">
<polygon fill="none" stroke="black" points="193.5,-168.5 193.5,-187.5 270.5,-187.5 270.5,-168.5 193.5,-168.5"/>
<text text-anchor="middle" x="232" y="-175.5" font-family="Helvetica,sans-Serif" font-size="10.00">thorin/tables.h</text>
</a>
</g>
</g>
<!-- Node13&#45;&gt;Node39 -->
<g id="edge53" class="edge">
<title>Node13&#45;&gt;Node39</title>
<path fill="none" stroke="midnightblue" d="M948.3,-286.05C880.42,-279.77 719.31,-263.97 585,-244 475.66,-227.74 348.35,-202.8 280.48,-189.02"/>
<polygon fill="midnightblue" stroke="midnightblue" points="281.01,-185.56 270.51,-186.99 279.61,-192.42 281.01,-185.56"/>
</g>
<!-- Node41 -->
<g id="node41" class="node">
<title>Node41</title>
<g id="a_node41"><a xlink:href="array_8h.html" target="_top" xlink:title=" ">
<polygon fill="none" stroke="black" points="1241,-168.5 1241,-187.5 1329,-187.5 1329,-168.5 1241,-168.5"/>
<text text-anchor="middle" x="1285" y="-175.5" font-family="Helvetica,sans-Serif" font-size="10.00">thorin/util/array.h</text>
</a>
</g>
</g>
<!-- Node13&#45;&gt;Node41 -->
<g id="edge57" class="edge">
<title>Node13&#45;&gt;Node41</title>
<path fill="none" stroke="midnightblue" d="M1004.6,-280.46C1058.25,-261.05 1189.51,-213.55 1251.52,-191.12"/>
<polygon fill="midnightblue" stroke="midnightblue" points="1252.99,-194.3 1261.2,-187.61 1250.61,-187.72 1252.99,-194.3"/>
</g>
<!-- Node44 -->
<g id="node44" class="node">
<title>Node44</title>
<g id="a_node44"><a xlink:href="cast_8h.html" target="_top" xlink:title=" ">
<polygon fill="none" stroke="black" points="1689,-112.5 1689,-131.5 1775,-131.5 1775,-112.5 1689,-112.5"/>
<text text-anchor="middle" x="1732" y="-119.5" font-family="Helvetica,sans-Serif" font-size="10.00">thorin/util/cast.h</text>
</a>
</g>
</g>
<!-- Node13&#45;&gt;Node44 -->
<g id="edge68" class="edge">
<title>Node13&#45;&gt;Node44</title>
<path fill="none" stroke="midnightblue" d="M1013.85,-288.99C1125.36,-288.57 1488.5,-284.1 1597,-244 1652.41,-223.52 1699.14,-168.03 1720.13,-139.88"/>
<polygon fill="midnightblue" stroke="midnightblue" points="1722.97,-141.92 1726.02,-131.77 1717.31,-137.8 1722.97,-141.92"/>
</g>
<!-- Node45 -->
<g id="node45" class="node">
<title>Node45</title>
<g id="a_node45"><a xlink:href="ptr_8h.html" target="_top" xlink:title=" ">
<polygon fill="none" stroke="black" points="737,-112.5 737,-131.5 815,-131.5 815,-112.5 737,-112.5"/>
<text text-anchor="middle" x="776" y="-119.5" font-family="Helvetica,sans-Serif" font-size="10.00">thorin/util/ptr.h</text>
</a>
</g>
</g>
<!-- Node13&#45;&gt;Node45 -->
<g id="edge72" class="edge">
<title>Node13&#45;&gt;Node45</title>
<path fill="none" stroke="midnightblue" d="M948.39,-284.65C903.45,-278 825.77,-263.94 806,-244 778.79,-216.55 774.94,-168.52 775.11,-141.98"/>
<polygon fill="midnightblue" stroke="midnightblue" points="778.61,-141.83 775.38,-131.74 771.61,-141.65 778.61,-141.83"/>
</g>
<!-- Node17&#45;&gt;Node10 -->
<g id="edge17" class="edge">
<title>Node17&#45;&gt;Node10</title>
<path fill="none" stroke="midnightblue" d="M891.73,-233.43C1030.33,-234.14 1499.02,-229.2 1604,-132 1616.66,-120.28 1621.05,-100.63 1622.49,-86"/>
<polygon fill="midnightblue" stroke="midnightblue" points="1626.01,-85.78 1623.11,-75.59 1619.02,-85.36 1626.01,-85.78"/>
</g>
<!-- Node18 -->
<g id="node18" class="node">
<title>Node18</title>
<g id="a_node18"><a xlink:title=" ">
<polygon fill="none" stroke="#bfbfbf" points="854,-168.5 854,-187.5 892,-187.5 892,-168.5 854,-168.5"/>
<text text-anchor="middle" x="873" y="-175.5" font-family="Helvetica,sans-Serif" font-size="10.00">tuple</text>
</a>
</g>
</g>
<!-- Node17&#45;&gt;Node18 -->
<g id="edge18" class="edge">
<title>Node17&#45;&gt;Node18</title>
<path fill="none" stroke="midnightblue" d="M856.3,-224.08C858.98,-216.85 862.85,-206.41 866.19,-197.4"/>
<polygon fill="midnightblue" stroke="midnightblue" points="869.57,-198.34 869.76,-187.75 863,-195.91 869.57,-198.34"/>
</g>
<!-- Node17&#45;&gt;Node19 -->
<g id="edge19" class="edge">
<title>Node17&#45;&gt;Node19</title>
<path fill="none" stroke="midnightblue" d="M824.16,-224.44C793.14,-215.24 743.67,-200.56 709.38,-190.39"/>
<polygon fill="midnightblue" stroke="midnightblue" points="710.29,-187.01 699.7,-187.52 708.29,-193.72 710.29,-187.01"/>
</g>
<!-- Node17&#45;&gt;Node29 -->
<g id="edge52" class="edge">
<title>Node17&#45;&gt;Node29</title>
<path fill="none" stroke="midnightblue" d="M848.83,-224.36C843.15,-211.26 834.8,-186.01 845,-168 853.35,-153.26 868.66,-142.82 883.29,-135.73"/>
<polygon fill="midnightblue" stroke="midnightblue" points="885,-138.8 892.72,-131.55 882.16,-132.4 885,-138.8"/>
</g>
<!-- Node19&#45;&gt;Node6 -->
<g id="edge20" class="edge">
<title>Node19&#45;&gt;Node6</title>
<path fill="none" stroke="midnightblue" d="M626.99,-170.12C622.27,-169.4 617.54,-168.68 613,-168 501.98,-151.39 459.89,-188.7 363,-132 329.5,-112.4 293.17,-84.04 320,-56 354.6,-19.83 1125.88,-12.42 1300.2,-11.21"/>
<polygon fill="midnightblue" stroke="midnightblue" points="1300.38,-14.71 1310.35,-11.14 1300.33,-7.71 1300.38,-14.71"/>
</g>
<!-- Node19&#45;&gt;Node9 -->
<g id="edge27" class="edge">
<title>Node19&#45;&gt;Node9</title>
<path fill="none" stroke="midnightblue" d="M715.02,-171.52C747.42,-165.79 791.34,-154.37 824,-132 841.75,-119.84 855.97,-99.39 864.64,-84.67"/>
<polygon fill="midnightblue" stroke="midnightblue" points="867.9,-86 869.73,-75.57 861.79,-82.58 867.9,-86"/>
</g>
<!-- Node19&#45;&gt;Node14 -->
<g id="edge29" class="edge">
<title>Node19&#45;&gt;Node14</title>
<path fill="none" stroke="midnightblue" d="M626.7,-169.9C622.08,-169.22 617.45,-168.58 613,-168 461,-148.24 421.18,-157.28 270,-132 268.73,-131.79 267.44,-131.56 266.13,-131.32"/>
<polygon fill="midnightblue" stroke="midnightblue" points="266.58,-127.84 256.08,-129.26 265.18,-134.69 266.58,-127.84"/>
</g>
<!-- Node19&#45;&gt;Node16 -->
<g id="edge32" class="edge">
<title>Node19&#45;&gt;Node16</title>
<path fill="none" stroke="midnightblue" d="M715.14,-175.72C781.22,-172.8 909.2,-163.24 1013,-132 1032.41,-126.16 1034.54,-117.69 1054,-112 1116.53,-93.7 1303.77,-77.52 1393.29,-70.59"/>
<polygon fill="midnightblue" stroke="midnightblue" points="1393.75,-74.06 1403.45,-69.81 1393.21,-67.08 1393.75,-74.06"/>
</g>
<!-- Node20 -->
<g id="node20" class="node">
<title>Node20</title>
<g id="a_node20"><a xlink:title=" ">
<polygon fill="none" stroke="#bfbfbf" points="388,-112.5 388,-131.5 444,-131.5 444,-112.5 388,-112.5"/>
<text text-anchor="middle" x="416" y="-119.5" font-family="Helvetica,sans-Serif" font-size="10.00">cinttypes</text>
</a>
</g>
</g>
<!-- Node19&#45;&gt;Node20 -->
<g id="edge21" class="edge">
<title>Node19&#45;&gt;Node20</title>
<path fill="none" stroke="midnightblue" d="M627.47,-168.48C585.55,-160.17 520.11,-146.93 454.38,-132.25"/>
<polygon fill="midnightblue" stroke="midnightblue" points="454.78,-128.76 444.26,-129.98 453.25,-135.59 454.78,-128.76"/>
</g>
<!-- Node21 -->
<g id="node21" class="node">
<title>Node21</title>
<g id="a_node21"><a xlink:title=" ">
<polygon fill="none" stroke="#bfbfbf" points="601,-56.5 601,-75.5 647,-75.5 647,-56.5 601,-56.5"/>
<text text-anchor="middle" x="624" y="-63.5" font-family="Helvetica,sans-Serif" font-size="10.00">cstdint</text>
</a>
</g>
</g>
<!-- Node19&#45;&gt;Node21 -->
<g id="edge22" class="edge">
<title>Node19&#45;&gt;Node21</title>
<path fill="none" stroke="midnightblue" d="M667.31,-168.37C659.66,-150.46 641.91,-108.92 631.67,-84.95"/>
<polygon fill="midnightblue" stroke="midnightblue" points="634.82,-83.41 627.67,-75.59 628.38,-86.16 634.82,-83.41"/>
</g>
<!-- Node22 -->
<g id="node22" class="node">
<title>Node22</title>
<g id="a_node22"><a xlink:title=" ">
<polygon fill="none" stroke="#bfbfbf" points="1243,-56.5 1243,-75.5 1289,-75.5 1289,-56.5 1243,-56.5"/>
<text text-anchor="middle" x="1266" y="-63.5" font-family="Helvetica,sans-Serif" font-size="10.00">cstring</text>
</a>
</g>
</g>
<!-- Node19&#45;&gt;Node22 -->
<g id="edge23" class="edge">
<title>Node19&#45;&gt;Node22</title>
<path fill="none" stroke="midnightblue" d="M715.08,-174.55C775.49,-170.3 886.9,-159.23 978,-132 998.19,-125.96 1000.92,-118.4 1021,-112 1059.98,-99.58 1175.19,-80.93 1232.64,-72.05"/>
<polygon fill="midnightblue" stroke="midnightblue" points="1233.32,-75.49 1242.67,-70.51 1232.25,-68.57 1233.32,-75.49"/>
</g>
<!-- Node23 -->
<g id="node23" class="node">
<title>Node23</title>
<g id="a_node23"><a xlink:title=" ">
<polygon fill="none" stroke="#bfbfbf" points="1063,-112.5 1063,-131.5 1119,-131.5 1119,-112.5 1063,-112.5"/>
<text text-anchor="middle" x="1091" y="-119.5" font-family="Helvetica,sans-Serif" font-size="10.00">algorithm</text>
</a>
</g>
</g>
<!-- Node19&#45;&gt;Node23 -->
<g id="edge24" class="edge">
<title>Node19&#45;&gt;Node23</title>
<path fill="none" stroke="midnightblue" d="M715.13,-173.08C785.86,-166.51 928.88,-151.98 1049,-132 1050.24,-131.79 1051.5,-131.58 1052.77,-131.35"/>
<polygon fill="midnightblue" stroke="midnightblue" points="1053.44,-134.78 1062.6,-129.46 1052.12,-127.91 1053.44,-134.78"/>
</g>
<!-- Node24 -->
<g id="node24" class="node">
<title>Node24</title>
<g id="a_node24"><a xlink:title=" ">
<polygon fill="none" stroke="#bfbfbf" points="462,-112.5 462,-131.5 500,-131.5 500,-112.5 462,-112.5"/>
<text text-anchor="middle" x="481" y="-119.5" font-family="Helvetica,sans-Serif" font-size="10.00">array</text>
</a>
</g>
</g>
<!-- Node19&#45;&gt;Node24 -->
<g id="edge25" class="edge">
<title>Node19&#45;&gt;Node24</title>
<path fill="none" stroke="midnightblue" d="M638.92,-168.5C608.15,-160.25 560.14,-147.15 509.97,-132.21"/>
<polygon fill="midnightblue" stroke="midnightblue" points="510.83,-128.81 500.25,-129.3 508.82,-135.52 510.83,-128.81"/>
</g>
<!-- Node25 -->
<g id="node25" class="node">
<title>Node25</title>
<g id="a_node25"><a xlink:title=" ">
<polygon fill="none" stroke="#bfbfbf" points="518.5,-112.5 518.5,-131.5 547.5,-131.5 547.5,-112.5 518.5,-112.5"/>
<text text-anchor="middle" x="533" y="-119.5" font-family="Helvetica,sans-Serif" font-size="10.00">bit</text>
</a>
</g>
</g>
<!-- Node19&#45;&gt;Node25 -->
<g id="edge26" class="edge">
<title>Node19&#45;&gt;Node25</title>
<path fill="none" stroke="midnightblue" d="M649.13,-168.44C624.04,-158.62 583.02,-142.57 557.04,-132.41"/>
<polygon fill="midnightblue" stroke="midnightblue" points="558.16,-129.09 547.57,-128.7 555.6,-135.6 558.16,-129.09"/>
</g>
<!-- Node26 -->
<g id="node26" class="node">
<title>Node26</title>
<g id="a_node26"><a xlink:title=" ">
<polygon fill="none" stroke="#bfbfbf" points="777.5,-56.5 777.5,-75.5 828.5,-75.5 828.5,-56.5 777.5,-56.5"/>
<text text-anchor="middle" x="803" y="-63.5" font-family="Helvetica,sans-Serif" font-size="10.00">memory</text>
</a>
</g>
</g>
<!-- Node19&#45;&gt;Node26 -->
<g id="edge28" class="edge">
<title>Node19&#45;&gt;Node26</title>
<path fill="none" stroke="midnightblue" d="M677.28,-168.23C687.07,-154.97 707.03,-129.51 728,-112 742.73,-99.71 761.18,-88.59 776.1,-80.48"/>
<polygon fill="midnightblue" stroke="midnightblue" points="778.12,-83.37 785.32,-75.6 774.84,-77.18 778.12,-83.37"/>
</g>
<!-- Node27 -->
<g id="node27" class="node">
<title>Node27</title>
<g id="a_node27"><a xlink:title=" ">
<polygon fill="none" stroke="#bfbfbf" points="329,-56.5 329,-75.5 391,-75.5 391,-56.5 329,-56.5"/>
<text text-anchor="middle" x="360" y="-63.5" font-family="Helvetica,sans-Serif" font-size="10.00">type_traits</text>
</a>
</g>
</g>
<!-- Node19&#45;&gt;Node27 -->
<g id="edge30" class="edge">
<title>Node19&#45;&gt;Node27</title>
<path fill="none" stroke="midnightblue" d="M626.98,-170.16C622.26,-169.43 617.53,-168.7 613,-168 561.01,-159.97 418.57,-166.67 379,-132 365.89,-120.52 361.59,-100.54 360.3,-85.76"/>
<polygon fill="midnightblue" stroke="midnightblue" points="363.79,-85.5 359.8,-75.69 356.8,-85.85 363.79,-85.5"/>
</g>
<!-- Node28 -->
<g id="node28" class="node">
<title>Node28</title>
<g id="a_node28"><a xlink:title=" ">
<polygon fill="none" stroke="#bfbfbf" points="565.5,-112.5 565.5,-131.5 604.5,-131.5 604.5,-112.5 565.5,-112.5"/>
<text text-anchor="middle" x="585" y="-119.5" font-family="Helvetica,sans-Serif" font-size="10.00">utility</text>
</a>
</g>
</g>
<!-- Node19&#45;&gt;Node28 -->
<g id="edge31" class="edge">
<title>Node19&#45;&gt;Node28</title>
<path fill="none" stroke="midnightblue" d="M657.18,-168.32C643.77,-159.9 623.18,-146.97 607.41,-137.07"/>
<polygon fill="midnightblue" stroke="midnightblue" points="609.11,-134.01 598.78,-131.65 605.39,-139.94 609.11,-134.01"/>
</g>
<!-- Node19&#45;&gt;Node29 -->
<g id="edge33" class="edge">
<title>Node19&#45;&gt;Node29</title>
<path fill="none" stroke="midnightblue" d="M710.45,-168.44C753.89,-159.02 823.79,-143.87 870.78,-133.68"/>
<polygon fill="midnightblue" stroke="midnightblue" points="871.7,-137.06 880.73,-131.52 870.22,-130.22 871.7,-137.06"/>
</g>
<!-- Node34 -->
<g id="node34" class="node">
<title>Node34</title>
<g id="a_node34"><a xlink:href="types_8h.html" target="_top" xlink:title=" ">
<polygon fill="none" stroke="black" points="98,-112.5 98,-131.5 188,-131.5 188,-112.5 98,-112.5"/>
<text text-anchor="middle" x="143" y="-119.5" font-family="Helvetica,sans-Serif" font-size="10.00">thorin/util/types.h</text>
</a>
</g>
</g>
<!-- Node19&#45;&gt;Node34 -->
<g id="edge45" class="edge">
<title>Node19&#45;&gt;Node34</title>
<path fill="none" stroke="midnightblue" d="M626.77,-173.85C544.52,-167.76 362.25,-153.2 198.32,-132.09"/>
<polygon fill="midnightblue" stroke="midnightblue" points="198.41,-128.57 188.05,-130.75 197.51,-135.51 198.41,-128.57"/>
</g>
<!-- Node29&#45;&gt;Node6 -->
<g id="edge34" class="edge">
<title>Node29&#45;&gt;Node6</title>
<path fill="none" stroke="midnightblue" d="M921.02,-112.14C923.19,-97.78 929.67,-69.65 948,-56 1003.28,-14.85 1215.78,-10.7 1300.17,-10.72"/>
<polygon fill="midnightblue" stroke="midnightblue" points="1300.26,-14.22 1310.27,-10.74 1300.28,-7.22 1300.26,-14.22"/>
</g>
<!-- Node29&#45;&gt;Node9 -->
<g id="edge37" class="edge">
<title>Node29&#45;&gt;Node9</title>
<path fill="none" stroke="midnightblue" d="M912.4,-112.08C905.77,-104.3 895.98,-92.8 887.94,-83.37"/>
<polygon fill="midnightblue" stroke="midnightblue" points="890.6,-81.09 881.45,-75.75 885.27,-85.63 890.6,-81.09"/>
</g>
<!-- Node29&#45;&gt;Node10 -->
<g id="edge41" class="edge">
<title>Node29&#45;&gt;Node10</title>
<path fill="none" stroke="midnightblue" d="M968.6,-117.27C1103.8,-106.88 1481.66,-77.86 1592.23,-69.36"/>
<polygon fill="midnightblue" stroke="midnightblue" points="1592.67,-72.84 1602.37,-68.58 1592.13,-65.86 1592.67,-72.84"/>
</g>
<!-- Node29&#45;&gt;Node16 -->
<g id="edge42" class="edge">
<title>Node29&#45;&gt;Node16</title>
<path fill="none" stroke="midnightblue" d="M968.64,-115.97C1068.13,-105.68 1293.87,-82.32 1393.36,-72.03"/>
<polygon fill="midnightblue" stroke="midnightblue" points="1393.85,-75.5 1403.44,-70.99 1393.13,-68.54 1393.85,-75.5"/>
</g>
<!-- Node29&#45;&gt;Node22 -->
<g id="edge35" class="edge">
<title>Node29&#45;&gt;Node22</title>
<path fill="none" stroke="midnightblue" d="M968.84,-113.38C1040.33,-102.22 1171.62,-81.73 1232.88,-72.17"/>
<polygon fill="midnightblue" stroke="midnightblue" points="1233.45,-75.62 1242.79,-70.62 1232.37,-68.71 1233.45,-75.62"/>
</g>
<!-- Node29&#45;&gt;Node26 -->
<g id="edge38" class="edge">
<title>Node29&#45;&gt;Node26</title>
<path fill="none" stroke="midnightblue" d="M901.46,-112.44C882.38,-103.64 852.43,-89.81 830.56,-79.72"/>
<polygon fill="midnightblue" stroke="midnightblue" points="832,-76.53 821.45,-75.52 829.07,-82.88 832,-76.53"/>
</g>
<!-- Node30 -->
<g id="node30" class="node">
<title>Node30</title>
<g id="a_node30"><a xlink:title=" ">
<polygon fill="none" stroke="#bfbfbf" points="957,-56.5 957,-75.5 1007,-75.5 1007,-56.5 957,-56.5"/>
<text text-anchor="middle" x="982" y="-63.5" font-family="Helvetica,sans-Serif" font-size="10.00">fstream</text>
</a>
</g>
</g>
<!-- Node29&#45;&gt;Node30 -->
<g id="edge36" class="edge">
<title>Node29&#45;&gt;Node30</title>
<path fill="none" stroke="midnightblue" d="M929.96,-112.32C939.13,-104.34 952.94,-92.31 964.03,-82.65"/>
<polygon fill="midnightblue" stroke="midnightblue" points="966.62,-85.04 971.86,-75.83 962.02,-79.76 966.62,-85.04"/>
</g>
<!-- Node31 -->
<g id="node31" class="node">
<title>Node31</title>
<g id="a_node31"><a xlink:title=" ">
<polygon fill="none" stroke="#bfbfbf" points="1151,-56.5 1151,-75.5 1197,-75.5 1197,-56.5 1151,-56.5"/>
<text text-anchor="middle" x="1174" y="-63.5" font-family="Helvetica,sans-Serif" font-size="10.00">ranges</text>
</a>
</g>
</g>
<!-- Node29&#45;&gt;Node31 -->
<g id="edge39" class="edge">
<title>Node29&#45;&gt;Node31</title>
<path fill="none" stroke="midnightblue" d="M960.25,-112.44C1010.19,-101.83 1094.41,-83.92 1140.82,-74.05"/>
<polygon fill="midnightblue" stroke="midnightblue" points="1141.62,-77.46 1150.67,-71.96 1140.16,-70.62 1141.62,-77.46"/>
</g>
<!-- Node32 -->
<g id="node32" class="node">
<title>Node32</title>
<g id="a_node32"><a xlink:title=" ">
<polygon fill="none" stroke="#bfbfbf" points="1025,-56.5 1025,-75.5 1077,-75.5 1077,-56.5 1025,-56.5"/>
<text text-anchor="middle" x="1051" y="-63.5" font-family="Helvetica,sans-Serif" font-size="10.00">sstream</text>
</a>
</g>
</g>
<!-- Node29&#45;&gt;Node32 -->
<g id="edge40" class="edge">
<title>Node29&#45;&gt;Node32</title>
<path fill="none" stroke="midnightblue" d="M940.76,-112.44C962.32,-103.56 996.26,-89.56 1020.79,-79.45"/>
<polygon fill="midnightblue" stroke="midnightblue" points="1022.43,-82.56 1030.34,-75.52 1019.76,-76.09 1022.43,-82.56"/>
</g>
<!-- Node33 -->
<g id="node33" class="node">
<title>Node33</title>
<g id="a_node33"><a xlink:href="assert_8h.html" target="_top" xlink:title=" ">
<polygon fill="none" stroke="black" points="665,-56.5 665,-75.5 759,-75.5 759,-56.5 665,-56.5"/>
<text text-anchor="middle" x="712" y="-63.5" font-family="Helvetica,sans-Serif" font-size="10.00">thorin/util/assert.h</text>
</a>
</g>
</g>
<!-- Node29&#45;&gt;Node33 -->
<g id="edge43" class="edge">
<title>Node29&#45;&gt;Node33</title>
<path fill="none" stroke="midnightblue" d="M887.04,-112.44C851.21,-103.14 793.84,-88.25 754.61,-78.06"/>
<polygon fill="midnightblue" stroke="midnightblue" points="755.36,-74.64 744.8,-75.52 753.6,-81.42 755.36,-74.64"/>
</g>
<!-- Node33&#45;&gt;Node6 -->
<g id="edge44" class="edge">
<title>Node33&#45;&gt;Node6</title>
<path fill="none" stroke="midnightblue" d="M759.24,-57.25C762.54,-56.8 765.82,-56.38 769,-56 969.59,-32.23 1211.71,-17.68 1300.35,-12.82"/>
<polygon fill="midnightblue" stroke="midnightblue" points="1300.59,-16.31 1310.38,-12.28 1300.21,-9.32 1300.59,-16.31"/>
</g>
<!-- Node34&#45;&gt;Node21 -->
<g id="edge47" class="edge">
<title>Node34&#45;&gt;Node21</title>
<path fill="none" stroke="midnightblue" d="M188.05,-113.28C191.08,-112.83 194.08,-112.4 197,-112 343.13,-92.14 518.43,-76.1 590.53,-69.84"/>
<polygon fill="midnightblue" stroke="midnightblue" points="591.14,-73.3 600.8,-68.95 590.53,-66.32 591.14,-73.3"/>
</g>
<!-- Node34&#45;&gt;Node27 -->
<g id="edge50" class="edge">
<title>Node34&#45;&gt;Node27</title>
<path fill="none" stroke="midnightblue" d="M177.38,-112.44C215.83,-102.88 278.07,-87.39 319.02,-77.2"/>
<polygon fill="midnightblue" stroke="midnightblue" points="320.08,-80.54 328.94,-74.73 318.39,-73.75 320.08,-80.54"/>
</g>
<!-- Node35 -->
<g id="node35" class="node">
<title>Node35</title>
<g id="a_node35"><a xlink:title=" ">
<polygon fill="none" stroke="#bfbfbf" points="138,-56.5 138,-75.5 182,-75.5 182,-56.5 138,-56.5"/>
<text text-anchor="middle" x="160" y="-63.5" font-family="Helvetica,sans-Serif" font-size="10.00">cmath</text>
</a>
</g>
</g>
<!-- Node34&#45;&gt;Node35 -->
<g id="edge46" class="edge">
<title>Node34&#45;&gt;Node35</title>
<path fill="none" stroke="midnightblue" d="M145.81,-112.08C148.08,-104.85 151.37,-94.41 154.21,-85.4"/>
<polygon fill="midnightblue" stroke="midnightblue" points="157.58,-86.34 157.25,-75.75 150.9,-84.24 157.58,-86.34"/>
</g>
<!-- Node36 -->
<g id="node36" class="node">
<title>Node36</title>
<g id="a_node36"><a xlink:title=" ">
<polygon fill="none" stroke="#bfbfbf" points="200,-56.5 200,-75.5 240,-75.5 240,-56.5 200,-56.5"/>
<text text-anchor="middle" x="220" y="-63.5" font-family="Helvetica,sans-Serif" font-size="10.00">limits</text>
</a>
</g>
</g>
<!-- Node34&#45;&gt;Node36 -->
<g id="edge48" class="edge">
<title>Node34&#45;&gt;Node36</title>
<path fill="none" stroke="midnightblue" d="M155.37,-112.32C167.16,-104.06 185.13,-91.45 199.14,-81.63"/>
<polygon fill="midnightblue" stroke="midnightblue" points="201.48,-84.26 207.66,-75.65 197.46,-78.53 201.48,-84.26"/>
</g>
<!-- Node37 -->
<g id="node37" class="node">
<title>Node37</title>
<g id="a_node37"><a xlink:title=" ">
<polygon fill="none" stroke="#bfbfbf" points="0,-56.5 0,-75.5 52,-75.5 52,-56.5 0,-56.5"/>
<text text-anchor="middle" x="26" y="-63.5" font-family="Helvetica,sans-Serif" font-size="10.00">ostream</text>
</a>
</g>
</g>
<!-- Node34&#45;&gt;Node37 -->
<g id="edge49" class="edge">
<title>Node34&#45;&gt;Node37</title>
<path fill="none" stroke="midnightblue" d="M124.46,-112.44C105.38,-103.64 75.43,-89.81 53.56,-79.72"/>
<polygon fill="midnightblue" stroke="midnightblue" points="55,-76.53 44.45,-75.52 52.07,-82.88 55,-76.53"/>
</g>
<!-- Node38 -->
<g id="node38" class="node">
<title>Node38</title>
<g id="a_node38"><a xlink:title=" ">
<polygon fill="none" stroke="#bfbfbf" points="70,-56.5 70,-75.5 120,-75.5 120,-56.5 70,-56.5"/>
<text text-anchor="middle" x="95" y="-63.5" font-family="Helvetica,sans-Serif" font-size="10.00">half.hpp</text>
</a>
</g>
</g>
<!-- Node34&#45;&gt;Node38 -->
<g id="edge51" class="edge">
<title>Node34&#45;&gt;Node38</title>
<path fill="none" stroke="midnightblue" d="M135.07,-112.08C128.15,-104.3 117.93,-92.8 109.55,-83.37"/>
<polygon fill="midnightblue" stroke="midnightblue" points="112.04,-80.9 102.78,-75.75 106.81,-85.55 112.04,-80.9"/>
</g>
<!-- Node39&#45;&gt;Node33 -->
<g id="edge55" class="edge">
<title>Node39&#45;&gt;Node33</title>
<path fill="none" stroke="midnightblue" d="M247.33,-168.44C273.47,-154.26 328.75,-126.06 379,-112 495.4,-79.44 531.26,-93.08 654.73,-76.11"/>
<polygon fill="midnightblue" stroke="midnightblue" points="655.55,-79.53 664.96,-74.67 654.57,-72.6 655.55,-79.53"/>
</g>
<!-- Node39&#45;&gt;Node34 -->
<g id="edge56" class="edge">
<title>Node39&#45;&gt;Node34</title>
<path fill="none" stroke="midnightblue" d="M217.7,-168.32C203.82,-159.9 182.51,-146.97 166.2,-137.07"/>
<polygon fill="midnightblue" stroke="midnightblue" points="167.63,-133.85 157.26,-131.65 164,-139.83 167.63,-133.85"/>
</g>
<!-- Node40 -->
<g id="node40" class="node">
<title>Node40</title>
<g id="a_node40"><a xlink:title=" ">
<polygon fill="none" stroke="#bfbfbf" points="14,-112.5 14,-131.5 80,-131.5 80,-112.5 14,-112.5"/>
<text text-anchor="middle" x="47" y="-119.5" font-family="Helvetica,sans-Serif" font-size="10.00">string_view</text>
</a>
</g>
</g>
<!-- Node39&#45;&gt;Node40 -->
<g id="edge54" class="edge">
<title>Node39&#45;&gt;Node40</title>
<path fill="none" stroke="midnightblue" d="M202.69,-168.44C171.16,-159.24 120.87,-144.56 86.01,-134.39"/>
<polygon fill="midnightblue" stroke="midnightblue" points="86.76,-130.96 76.18,-131.52 84.8,-137.68 86.76,-130.96"/>
</g>
<!-- Node41&#45;&gt;Node6 -->
<g id="edge58" class="edge">
<title>Node41&#45;&gt;Node6</title>
<path fill="none" stroke="midnightblue" d="M1329.09,-176.35C1445.37,-174.16 1753.6,-165.27 1784,-132 1835.3,-75.86 1836.68,-106.49 1682,-56 1572,-20.09 1433.58,-12.71 1369.94,-11.28"/>
<polygon fill="midnightblue" stroke="midnightblue" points="1369.73,-7.77 1359.66,-11.09 1369.6,-14.77 1369.73,-7.77"/>
</g>
<!-- Node41&#45;&gt;Node7 -->
<g id="edge62" class="edge">
<title>Node41&#45;&gt;Node7</title>
<path fill="none" stroke="midnightblue" d="M1315.11,-168.44C1347.72,-159.17 1399.88,-144.35 1435.71,-134.17"/>
<polygon fill="midnightblue" stroke="midnightblue" points="1436.69,-137.53 1445.35,-131.43 1434.77,-130.79 1436.69,-137.53"/>
</g>
<!-- Node41&#45;&gt;Node8 -->
<g id="edge63" class="edge">
<title>Node41&#45;&gt;Node8</title>
<path fill="none" stroke="midnightblue" d="M1328.91,-168.42C1372.94,-159.8 1442.97,-146.07 1512.8,-132.23"/>
<polygon fill="midnightblue" stroke="midnightblue" points="1513.52,-135.66 1522.65,-130.28 1512.16,-128.79 1513.52,-135.66"/>
</g>
<!-- Node41&#45;&gt;Node15 -->
<g id="edge67" class="edge">
<title>Node41&#45;&gt;Node15</title>
<path fill="none" stroke="midnightblue" d="M1270.86,-168.32C1257.13,-159.9 1236.06,-146.97 1219.94,-137.07"/>
<polygon fill="midnightblue" stroke="midnightblue" points="1221.46,-133.9 1211.1,-131.65 1217.8,-139.87 1221.46,-133.9"/>
</g>
<!-- Node41&#45;&gt;Node22 -->
<g id="edge60" class="edge">
<title>Node41&#45;&gt;Node22</title>
<path fill="none" stroke="midnightblue" d="M1283.51,-168.37C1280.44,-150.62 1273.37,-109.67 1269.21,-85.6"/>
<polygon fill="midnightblue" stroke="midnightblue" points="1272.64,-84.85 1267.48,-75.59 1265.74,-86.04 1272.64,-84.85"/>
</g>
<!-- Node41&#45;&gt;Node23 -->
<g id="edge61" class="edge">
<title>Node41&#45;&gt;Node23</title>
<path fill="none" stroke="midnightblue" d="M1254.26,-168.44C1220.27,-158.98 1165.5,-143.74 1128.89,-133.55"/>
<polygon fill="midnightblue" stroke="midnightblue" points="1129.65,-130.12 1119.08,-130.82 1127.77,-136.87 1129.65,-130.12"/>
</g>
<!-- Node41&#45;&gt;Node27 -->
<g id="edge66" class="edge">
<title>Node41&#45;&gt;Node27</title>
<path fill="none" stroke="midnightblue" d="M1240.81,-174.85C1146.38,-169.94 918.05,-156.41 728,-132 719.88,-130.96 495.6,-91.12 401.23,-74.33"/>
<polygon fill="midnightblue" stroke="midnightblue" points="401.64,-70.85 391.18,-72.55 400.41,-77.74 401.64,-70.85"/>
</g>
<!-- Node41&#45;&gt;Node31 -->
<g id="edge65" class="edge">
<title>Node41&#45;&gt;Node31</title>
<path fill="none" stroke="midnightblue" d="M1278.03,-168.2C1267.66,-155.33 1247.34,-130.86 1228,-112 1217.22,-101.48 1204.28,-90.65 1193.77,-82.24"/>
<polygon fill="midnightblue" stroke="midnightblue" points="1195.63,-79.26 1185.61,-75.82 1191.3,-84.76 1195.63,-79.26"/>
</g>
<!-- Node42 -->
<g id="node42" class="node">
<title>Node42</title>
<g id="a_node42"><a xlink:title=" ">
<polygon fill="none" stroke="#bfbfbf" points="1378.5,-112.5 1378.5,-131.5 1427.5,-131.5 1427.5,-112.5 1378.5,-112.5"/>
<text text-anchor="middle" x="1403" y="-119.5" font-family="Helvetica,sans-Serif" font-size="10.00">cstddef</text>
</a>
</g>
</g>
<!-- Node41&#45;&gt;Node42 -->
<g id="edge59" class="edge">
<title>Node41&#45;&gt;Node42</title>
<path fill="none" stroke="midnightblue" d="M1303.7,-168.44C1322.94,-159.64 1353.15,-145.81 1375.2,-135.72"/>
<polygon fill="midnightblue" stroke="midnightblue" points="1376.75,-138.86 1384.39,-131.52 1373.84,-132.5 1376.75,-138.86"/>
</g>
<!-- Node43 -->
<g id="node43" class="node">
<title>Node43</title>
<g id="a_node43"><a xlink:title=" ">
<polygon fill="none" stroke="#bfbfbf" points="1313.5,-112.5 1313.5,-131.5 1360.5,-131.5 1360.5,-112.5 1313.5,-112.5"/>
<text text-anchor="middle" x="1337" y="-119.5" font-family="Helvetica,sans-Serif" font-size="10.00">iterator</text>
</a>
</g>
</g>
<!-- Node41&#45;&gt;Node43 -->
<g id="edge64" class="edge">
<title>Node41&#45;&gt;Node43</title>
<path fill="none" stroke="midnightblue" d="M1293.59,-168.08C1301.16,-160.22 1312.38,-148.57 1321.51,-139.08"/>
<polygon fill="midnightblue" stroke="midnightblue" points="1324.16,-141.38 1328.57,-131.75 1319.12,-136.53 1324.16,-141.38"/>
</g>
<!-- Node44&#45;&gt;Node6 -->
<g id="edge69" class="edge">
<title>Node44&#45;&gt;Node6</title>
<path fill="none" stroke="midnightblue" d="M1724.29,-112.06C1711.24,-97.59 1683.24,-69.31 1653,-56 1602.76,-33.89 1441.69,-19.17 1369.99,-13.55"/>
<polygon fill="midnightblue" stroke="midnightblue" points="1369.92,-10.04 1359.69,-12.76 1369.39,-17.02 1369.92,-10.04"/>
</g>
<!-- Node44&#45;&gt;Node22 -->
<g id="edge70" class="edge">
<title>Node44&#45;&gt;Node22</title>
<path fill="none" stroke="midnightblue" d="M1689,-116.02C1596.82,-105.34 1381.92,-80.43 1299.24,-70.85"/>
<polygon fill="midnightblue" stroke="midnightblue" points="1299.49,-67.36 1289.15,-69.68 1298.68,-74.31 1299.49,-67.36"/>
</g>
<!-- Node45&#45;&gt;Node21 -->
<g id="edge73" class="edge">
<title>Node45&#45;&gt;Node21</title>
<path fill="none" stroke="midnightblue" d="M751.92,-112.44C726.31,-103.35 685.63,-88.9 657.04,-78.74"/>
<polygon fill="midnightblue" stroke="midnightblue" points="658.07,-75.39 647.47,-75.34 655.72,-81.98 658.07,-75.39"/>
</g>
<!-- Node45&#45;&gt;Node26 -->
<g id="edge74" class="edge">
<title>Node45&#45;&gt;Node26</title>
<path fill="none" stroke="midnightblue" d="M780.46,-112.08C784.15,-104.69 789.52,-93.95 794.09,-84.81"/>
<polygon fill="midnightblue" stroke="midnightblue" points="797.28,-86.26 798.62,-75.75 791.02,-83.13 797.28,-86.26"/>
</g>
<!-- Node46&#45;&gt;Node13 -->
<g id="edge78" class="edge">
<title>Node46&#45;&gt;Node13</title>
<path fill="none" stroke="midnightblue" d="M1108.92,-336.44C1083.46,-327.4 1043.11,-313.06 1014.54,-302.92"/>
<polygon fill="midnightblue" stroke="midnightblue" points="1015.57,-299.57 1004.97,-299.52 1013.22,-306.16 1015.57,-299.57"/>
</g>
<!-- Node47&#45;&gt;Node13 -->
<g id="edge80" class="edge">
<title>Node47&#45;&gt;Node13</title>
<path fill="none" stroke="midnightblue" d="M998.51,-392.37C995.44,-374.62 988.37,-333.67 984.21,-309.6"/>
<polygon fill="midnightblue" stroke="midnightblue" points="987.64,-308.85 982.48,-299.59 980.74,-310.04 987.64,-308.85"/>
</g>
<!-- Node48&#45;&gt;Node13 -->
<g id="edge83" class="edge">
<title>Node48&#45;&gt;Node13</title>
<path fill="none" stroke="midnightblue" d="M907.14,-336.32C920.87,-327.9 941.94,-314.97 958.06,-305.07"/>
<polygon fill="midnightblue" stroke="midnightblue" points="960.2,-307.87 966.9,-299.65 956.54,-301.9 960.2,-307.87"/>
</g>
<!-- Node48&#45;&gt;Node29 -->
<g id="edge84" class="edge">
<title>Node48&#45;&gt;Node29</title>
<path fill="none" stroke="midnightblue" d="M894.06,-336.3C898.03,-303.63 912.11,-187.87 917.69,-141.96"/>
<polygon fill="midnightblue" stroke="midnightblue" points="921.19,-142.23 918.92,-131.88 914.24,-141.39 921.19,-142.23"/>
</g>
<!-- Node49&#45;&gt;Node5 -->
<g id="edge86" class="edge">
<title>Node49&#45;&gt;Node5</title>
<path fill="none" stroke="midnightblue" d="M1027.68,-504.44C1058.53,-495.24 1107.73,-480.56 1141.83,-470.39"/>
<polygon fill="midnightblue" stroke="midnightblue" points="1142.87,-473.73 1151.45,-467.52 1140.87,-467.02 1142.87,-473.73"/>
</g>
<!-- Node49&#45;&gt;Node48 -->
<g id="edge87" class="edge">
<title>Node49&#45;&gt;Node48</title>
<path fill="none" stroke="midnightblue" d="M993.3,-504.08C976.4,-477.61 926.34,-399.21 903.99,-364.21"/>
<polygon fill="midnightblue" stroke="midnightblue" points="906.8,-362.11 898.47,-355.57 900.9,-365.88 906.8,-362.11"/>
</g>
</g>
</svg>
