<?xml version="1.0" encoding="UTF-8" standalone="no"?>
<!DOCTYPE svg PUBLIC "-//W3C//DTD SVG 1.1//EN"
 "http://www.w3.org/Graphics/SVG/1.1/DTD/svg11.dtd">
<!-- Generated by graphviz version 2.50.0 (20220203.2022)
 -->
<!-- Title: thorin/pass/fp/beta_red.cpp Pages: 1 -->
<svg width="1502pt" height="621pt"
 viewBox="0.00 0.00 1501.87 621.00" xmlns="http://www.w3.org/2000/svg" xmlns:xlink="http://www.w3.org/1999/xlink">
<g id="graph0" class="graph" transform="scale(1 1) rotate(0) translate(4 617)">
<title>thorin/pass/fp/beta_red.cpp</title>
<!-- Node1 -->
<g id="node1" class="node">
<title>Node1</title>
<g id="a_node1"><a xlink:title=" ">
<polygon fill="#bfbfbf" stroke="black" points="1010,-582.5 1010,-612.5 1108,-612.5 1108,-582.5 1010,-582.5"/>
<text text-anchor="start" x="1018" y="-600.5" font-family="Helvetica,sans-Serif" font-size="10.00">thorin/pass/fp/beta</text>
<text text-anchor="middle" x="1059" y="-589.5" font-family="Helvetica,sans-Serif" font-size="10.00">_red.cpp</text>
</a>
</g>
</g>
<!-- Node2 -->
<g id="node2" class="node">
<title>Node2</title>
<g id="a_node2"><a xlink:href="beta__red_8h.html" target="_top" xlink:title=" ">
<polygon fill="none" stroke="black" points="1056,-515.5 1056,-545.5 1154,-545.5 1154,-515.5 1056,-515.5"/>
<text text-anchor="start" x="1064" y="-533.5" font-family="Helvetica,sans-Serif" font-size="10.00">thorin/pass/fp/beta</text>
<text text-anchor="middle" x="1105" y="-522.5" font-family="Helvetica,sans-Serif" font-size="10.00">_red.h</text>
</a>
</g>
</g>
<!-- Node1&#45;&gt;Node2 -->
<g id="edge1" class="edge">
<title>Node1&#45;&gt;Node2</title>
<path fill="none" stroke="midnightblue" d="M1068.98,-582.4C1074.89,-574.05 1082.5,-563.29 1089.21,-553.81"/>
<polygon fill="midnightblue" stroke="midnightblue" points="1092.12,-555.76 1095.04,-545.58 1086.4,-551.72 1092.12,-555.76"/>
</g>
<!-- Node47 -->
<g id="node47" class="node">
<title>Node47</title>
<g id="a_node47"><a xlink:href="rewrite_8h.html" target="_top" xlink:title=" ">
<polygon fill="none" stroke="black" points="967,-459.5 967,-478.5 1047,-478.5 1047,-459.5 967,-459.5"/>
<text text-anchor="middle" x="1007" y="-466.5" font-family="Helvetica,sans-Serif" font-size="10.00">thorin/rewrite.h</text>
</a>
</g>
</g>
<!-- Node1&#45;&gt;Node47 -->
<g id="edge65" class="edge">
<title>Node1&#45;&gt;Node47</title>
<path fill="none" stroke="midnightblue" d="M1053.24,-582.48C1043.8,-559.51 1025.04,-513.89 1014.55,-488.37"/>
<polygon fill="midnightblue" stroke="midnightblue" points="1017.65,-486.71 1010.61,-478.79 1011.18,-489.37 1017.65,-486.71"/>
</g>
<!-- Node3 -->
<g id="node3" class="node">
<title>Node3</title>
<g id="a_node3"><a xlink:href="pass_8h.html" target="_top" xlink:title=" ">
<polygon fill="none" stroke="black" points="1065,-459.5 1065,-478.5 1161,-478.5 1161,-459.5 1065,-459.5"/>
<text text-anchor="middle" x="1113" y="-466.5" font-family="Helvetica,sans-Serif" font-size="10.00">thorin/pass/pass.h</text>
</a>
</g>
</g>
<!-- Node2&#45;&gt;Node3 -->
<g id="edge2" class="edge">
<title>Node2&#45;&gt;Node3</title>
<path fill="none" stroke="midnightblue" d="M1106.9,-515.4C1107.97,-507.38 1109.34,-497.23 1110.5,-488.57"/>
<polygon fill="midnightblue" stroke="midnightblue" points="1113.97,-489.04 1111.84,-478.66 1107.03,-488.1 1113.97,-489.04"/>
</g>
<!-- Node4 -->
<g id="node4" class="node">
<title>Node4</title>
<g id="a_node4"><a xlink:title=" ">
<polygon fill="none" stroke="#bfbfbf" points="1159.5,-118 1159.5,-137 1200.5,-137 1200.5,-118 1159.5,-118"/>
<text text-anchor="middle" x="1180" y="-125" font-family="Helvetica,sans-Serif" font-size="10.00">stack</text>
</a>
</g>
</g>
<!-- Node3&#45;&gt;Node4 -->
<g id="edge3" class="edge">
<title>Node3&#45;&gt;Node4</title>
<path fill="none" stroke="midnightblue" d="M1118.7,-459.29C1129.97,-441.2 1154,-397.95 1154,-358 1154,-358 1154,-358 1154,-244 1154,-208.85 1165.6,-169.12 1173.31,-146.61"/>
<polygon fill="midnightblue" stroke="midnightblue" points="1176.66,-147.64 1176.71,-137.04 1170.06,-145.3 1176.66,-147.64"/>
</g>
<!-- Node5 -->
<g id="node5" class="node">
<title>Node5</title>
<g id="a_node5"><a xlink:href="world_8h.html" target="_top" xlink:title=" ">
<polygon fill="none" stroke="black" points="902,-403.5 902,-422.5 976,-422.5 976,-403.5 902,-403.5"/>
<text text-anchor="middle" x="939" y="-410.5" font-family="Helvetica,sans-Serif" font-size="10.00">thorin/world.h</text>
</a>
</g>
</g>
<!-- Node3&#45;&gt;Node5 -->
<g id="edge4" class="edge">
<title>Node3&#45;&gt;Node5</title>
<path fill="none" stroke="midnightblue" d="M1085.43,-459.44C1055.9,-450.28 1008.88,-435.69 976.12,-425.52"/>
<polygon fill="midnightblue" stroke="midnightblue" points="977.03,-422.14 966.44,-422.52 974.96,-428.82 977.03,-422.14"/>
</g>
<!-- Node6 -->
<g id="node6" class="node">
<title>Node6</title>
<g id="a_node6"><a xlink:title=" ">
<polygon fill="none" stroke="#bfbfbf" points="940,-347.5 940,-366.5 992,-366.5 992,-347.5 940,-347.5"/>
<text text-anchor="middle" x="966" y="-354.5" font-family="Helvetica,sans-Serif" font-size="10.00">sstream</text>
</a>
</g>
</g>
<!-- Node5&#45;&gt;Node6 -->
<g id="edge5" class="edge">
<title>Node5&#45;&gt;Node6</title>
<path fill="none" stroke="midnightblue" d="M943.46,-403.08C947.15,-395.69 952.52,-384.95 957.09,-375.81"/>
<polygon fill="midnightblue" stroke="midnightblue" points="960.28,-377.26 961.62,-366.75 954.02,-374.13 960.28,-377.26"/>
</g>
<!-- Node7 -->
<g id="node7" class="node">
<title>Node7</title>
<g id="a_node7"><a xlink:title=" ">
<polygon fill="none" stroke="#bfbfbf" points="1350.5,-56.5 1350.5,-75.5 1391.5,-75.5 1391.5,-56.5 1350.5,-56.5"/>
<text text-anchor="middle" x="1371" y="-63.5" font-family="Helvetica,sans-Serif" font-size="10.00">string</text>
</a>
</g>
</g>
<!-- Node5&#45;&gt;Node7 -->
<g id="edge6" class="edge">
<title>Node5&#45;&gt;Node7</title>
<path fill="none" stroke="midnightblue" d="M976.21,-412.55C1100.42,-413.38 1493,-407.66 1493,-302 1493,-302 1493,-302 1493,-188 1493,-153.18 1496.48,-138.59 1474,-112 1455.64,-90.29 1424.82,-78.72 1401.67,-72.77"/>
<polygon fill="midnightblue" stroke="midnightblue" points="1402.18,-69.3 1391.64,-70.42 1400.58,-76.11 1402.18,-69.3"/>
</g>
<!-- Node8 -->
<g id="node8" class="node">
<title>Node8</title>
<g id="a_node8"><a xlink:href="axiom_8h.html" target="_top" xlink:title=" ">
<polygon fill="none" stroke="black" points="639.5,-347.5 639.5,-366.5 716.5,-366.5 716.5,-347.5 639.5,-347.5"/>
<text text-anchor="middle" x="678" y="-354.5" font-family="Helvetica,sans-Serif" font-size="10.00">thorin/axiom.h</text>
</a>
</g>
</g>
<!-- Node5&#45;&gt;Node8 -->
<g id="edge7" class="edge">
<title>Node5&#45;&gt;Node8</title>
<path fill="none" stroke="midnightblue" d="M901.88,-404.32C855.93,-394.81 777.54,-378.59 726.77,-368.09"/>
<polygon fill="midnightblue" stroke="midnightblue" points="727.19,-364.6 716.69,-366.01 725.77,-371.46 727.19,-364.6"/>
</g>
<!-- Node14 -->
<g id="node14" class="node">
<title>Node14</title>
<g id="a_node14"><a xlink:href="debug_8h.html" target="_top" xlink:title=" ">
<polygon fill="none" stroke="black" points="945.5,-179.5 945.5,-198.5 1022.5,-198.5 1022.5,-179.5 945.5,-179.5"/>
<text text-anchor="middle" x="984" y="-186.5" font-family="Helvetica,sans-Serif" font-size="10.00">thorin/debug.h</text>
</a>
</g>
</g>
<!-- Node5&#45;&gt;Node14 -->
<g id="edge59" class="edge">
<title>Node5&#45;&gt;Node14</title>
<path fill="none" stroke="midnightblue" d="M936.31,-403.14C932.87,-390.59 927.72,-366.97 931,-347 939.56,-294.89 963.09,-236.8 975.72,-208.09"/>
<polygon fill="midnightblue" stroke="midnightblue" points="979.08,-209.15 979.98,-198.6 972.69,-206.29 979.08,-209.15"/>
</g>
<!-- Node43 -->
<g id="node43" class="node">
<title>Node43</title>
<g id="a_node43"><a xlink:href="hash_8h.html" target="_top" xlink:title=" ">
<polygon fill="none" stroke="black" points="532,-118 532,-137 620,-137 620,-118 532,-118"/>
<text text-anchor="middle" x="576" y="-125" font-family="Helvetica,sans-Serif" font-size="10.00">thorin/util/hash.h</text>
</a>
</g>
</g>
<!-- Node5&#45;&gt;Node43 -->
<g id="edge64" class="edge">
<title>Node5&#45;&gt;Node43</title>
<path fill="none" stroke="midnightblue" d="M901.79,-410.75C829.43,-407.65 673.06,-397.53 630,-367 603.4,-348.14 596,-334.6 596,-302 596,-302 596,-302 596,-244 596,-209.36 587.16,-169.71 581.23,-147.04"/>
<polygon fill="midnightblue" stroke="midnightblue" points="584.53,-145.84 578.53,-137.11 577.78,-147.67 584.53,-145.84"/>
</g>
<!-- Node44 -->
<g id="node44" class="node">
<title>Node44</title>
<g id="a_node44"><a xlink:title=" ">
<polygon fill="none" stroke="#bfbfbf" points="1010.5,-347.5 1010.5,-366.5 1087.5,-366.5 1087.5,-347.5 1010.5,-347.5"/>
<text text-anchor="middle" x="1049" y="-354.5" font-family="Helvetica,sans-Serif" font-size="10.00">thorin/config.h</text>
</a>
</g>
</g>
<!-- Node5&#45;&gt;Node44 -->
<g id="edge58" class="edge">
<title>Node5&#45;&gt;Node44</title>
<path fill="none" stroke="midnightblue" d="M956.67,-403.32C974.39,-394.62 1001.9,-381.12 1022.29,-371.11"/>
<polygon fill="midnightblue" stroke="midnightblue" points="1023.94,-374.2 1031.37,-366.65 1020.85,-367.92 1023.94,-374.2"/>
</g>
<!-- Node45 -->
<g id="node45" class="node">
<title>Node45</title>
<g id="a_node45"><a xlink:href="lattice_8h.html" target="_top" xlink:title=" ">
<polygon fill="none" stroke="black" points="722.5,-291.5 722.5,-310.5 799.5,-310.5 799.5,-291.5 722.5,-291.5"/>
<text text-anchor="middle" x="761" y="-298.5" font-family="Helvetica,sans-Serif" font-size="10.00">thorin/lattice.h</text>
</a>
</g>
</g>
<!-- Node5&#45;&gt;Node45 -->
<g id="edge60" class="edge">
<title>Node5&#45;&gt;Node45</title>
<path fill="none" stroke="midnightblue" d="M925.03,-403.37C894.36,-384.41 820.87,-339 783.56,-315.94"/>
<polygon fill="midnightblue" stroke="midnightblue" points="785.25,-312.87 774.9,-310.59 781.57,-318.83 785.25,-312.87"/>
</g>
<!-- Node46 -->
<g id="node46" class="node">
<title>Node46</title>
<g id="a_node46"><a xlink:href="tuple_8h.html" target="_top" xlink:title=" ">
<polygon fill="none" stroke="black" points="818,-291.5 818,-310.5 890,-310.5 890,-291.5 818,-291.5"/>
<text text-anchor="middle" x="854" y="-298.5" font-family="Helvetica,sans-Serif" font-size="10.00">thorin/tuple.h</text>
</a>
</g>
</g>
<!-- Node5&#45;&gt;Node46 -->
<g id="edge62" class="edge">
<title>Node5&#45;&gt;Node46</title>
<path fill="none" stroke="midnightblue" d="M930.44,-403.37C921.86,-394.54 908.46,-380.29 898,-367 885.79,-351.49 873.31,-332.72 864.78,-319.35"/>
<polygon fill="midnightblue" stroke="midnightblue" points="867.61,-317.28 859.32,-310.69 861.69,-321.02 867.61,-317.28"/>
</g>
<!-- Node9 -->
<g id="node9" class="node">
<title>Node9</title>
<g id="a_node9"><a xlink:href="lam_8h.html" target="_top" xlink:title=" ">
<polygon fill="none" stroke="black" points="637.5,-291.5 637.5,-310.5 704.5,-310.5 704.5,-291.5 637.5,-291.5"/>
<text text-anchor="middle" x="671" y="-298.5" font-family="Helvetica,sans-Serif" font-size="10.00">thorin/lam.h</text>
</a>
</g>
</g>
<!-- Node8&#45;&gt;Node9 -->
<g id="edge8" class="edge">
<title>Node8&#45;&gt;Node9</title>
<path fill="none" stroke="midnightblue" d="M676.84,-347.08C675.92,-339.93 674.58,-329.64 673.42,-320.69"/>
<polygon fill="midnightblue" stroke="midnightblue" points="676.89,-320.22 672.13,-310.75 669.95,-321.12 676.89,-320.22"/>
</g>
<!-- Node10 -->
<g id="node10" class="node">
<title>Node10</title>
<g id="a_node10"><a xlink:title=" ">
<polygon fill="none" stroke="#bfbfbf" points="648,-235.5 648,-254.5 694,-254.5 694,-235.5 648,-235.5"/>
<text text-anchor="middle" x="671" y="-242.5" font-family="Helvetica,sans-Serif" font-size="10.00">variant</text>
</a>
</g>
</g>
<!-- Node9&#45;&gt;Node10 -->
<g id="edge9" class="edge">
<title>Node9&#45;&gt;Node10</title>
<path fill="none" stroke="midnightblue" d="M671,-291.08C671,-284.01 671,-273.86 671,-264.99"/>
<polygon fill="midnightblue" stroke="midnightblue" points="674.5,-264.75 671,-254.75 667.5,-264.75 674.5,-264.75"/>
</g>
<!-- Node11 -->
<g id="node11" class="node">
<title>Node11</title>
<g id="a_node11"><a xlink:href="def_8h.html" target="_top" xlink:title=" ">
<polygon fill="none" stroke="black" points="728.5,-235.5 728.5,-254.5 793.5,-254.5 793.5,-235.5 728.5,-235.5"/>
<text text-anchor="middle" x="761" y="-242.5" font-family="Helvetica,sans-Serif" font-size="10.00">thorin/def.h</text>
</a>
</g>
</g>
<!-- Node9&#45;&gt;Node11 -->
<g id="edge10" class="edge">
<title>Node9&#45;&gt;Node11</title>
<path fill="none" stroke="midnightblue" d="M685.46,-291.32C699.5,-282.9 721.05,-269.97 737.54,-260.07"/>
<polygon fill="midnightblue" stroke="midnightblue" points="739.8,-262.8 746.58,-254.65 736.2,-256.8 739.8,-262.8"/>
</g>
<!-- Node12 -->
<g id="node12" class="node">
<title>Node12</title>
<g id="a_node12"><a xlink:title=" ">
<polygon fill="none" stroke="#bfbfbf" points="444,-179.5 444,-198.5 494,-198.5 494,-179.5 444,-179.5"/>
<text text-anchor="middle" x="469" y="-186.5" font-family="Helvetica,sans-Serif" font-size="10.00">optional</text>
</a>
</g>
</g>
<!-- Node11&#45;&gt;Node12 -->
<g id="edge11" class="edge">
<title>Node11&#45;&gt;Node12</title>
<path fill="none" stroke="midnightblue" d="M728.15,-238.7C679.8,-230.79 586.68,-215.06 508,-199 506.74,-198.74 505.45,-198.47 504.15,-198.2"/>
<polygon fill="midnightblue" stroke="midnightblue" points="504.65,-194.73 494.13,-196 503.15,-201.56 504.65,-194.73"/>
</g>
<!-- Node13 -->
<g id="node13" class="node">
<title>Node13</title>
<g id="a_node13"><a xlink:title=" ">
<polygon fill="none" stroke="#bfbfbf" points="554,-56.5 554,-75.5 598,-75.5 598,-56.5 554,-56.5"/>
<text text-anchor="middle" x="576" y="-63.5" font-family="Helvetica,sans-Serif" font-size="10.00">vector</text>
</a>
</g>
</g>
<!-- Node11&#45;&gt;Node13 -->
<g id="edge12" class="edge">
<title>Node11&#45;&gt;Node13</title>
<path fill="none" stroke="midnightblue" d="M730.1,-235.49C671.3,-218.6 546.98,-179.34 523,-143 515.41,-131.5 517.21,-124.5 523,-112 528.92,-99.21 540.47,-88.72 551.28,-81.1"/>
<polygon fill="midnightblue" stroke="midnightblue" points="553.21,-84.02 559.67,-75.61 549.38,-78.16 553.21,-84.02"/>
</g>
<!-- Node11&#45;&gt;Node14 -->
<g id="edge13" class="edge">
<title>Node11&#45;&gt;Node14</title>
<path fill="none" stroke="midnightblue" d="M793.9,-236.03C832.26,-226.74 895.88,-211.34 938.84,-200.94"/>
<polygon fill="midnightblue" stroke="midnightblue" points="939.85,-204.29 948.75,-198.54 938.21,-197.49 939.85,-204.29"/>
</g>
<!-- Node17 -->
<g id="node17" class="node">
<title>Node17</title>
<g id="a_node17"><a xlink:href="tables_8h.html" target="_top" xlink:title=" ">
<polygon fill="none" stroke="black" points="1220.5,-179.5 1220.5,-198.5 1297.5,-198.5 1297.5,-179.5 1220.5,-179.5"/>
<text text-anchor="middle" x="1259" y="-186.5" font-family="Helvetica,sans-Serif" font-size="10.00">thorin/tables.h</text>
</a>
</g>
</g>
<!-- Node11&#45;&gt;Node17 -->
<g id="edge17" class="edge">
<title>Node11&#45;&gt;Node17</title>
<path fill="none" stroke="midnightblue" d="M793.75,-241.45C867.53,-235.54 1052.29,-219.8 1206,-199 1207.3,-198.82 1208.62,-198.64 1209.95,-198.45"/>
<polygon fill="midnightblue" stroke="midnightblue" points="1210.9,-201.85 1220.26,-196.89 1209.85,-194.93 1210.9,-201.85"/>
</g>
<!-- Node19 -->
<g id="node19" class="node">
<title>Node19</title>
<g id="a_node19"><a xlink:href="print_8h.html" target="_top" xlink:title=" ">
<polygon fill="none" stroke="black" points="1257,-118 1257,-137 1343,-137 1343,-118 1257,-118"/>
<text text-anchor="middle" x="1300" y="-125" font-family="Helvetica,sans-Serif" font-size="10.00">thorin/util/print.h</text>
</a>
</g>
</g>
<!-- Node11&#45;&gt;Node19 -->
<g id="edge57" class="edge">
<title>Node11&#45;&gt;Node19</title>
<path fill="none" stroke="midnightblue" d="M793.72,-239.57C844.85,-232.41 946.66,-217.27 1032,-199 1114.25,-181.39 1209.17,-154.95 1261.08,-139.95"/>
<polygon fill="midnightblue" stroke="midnightblue" points="1262.24,-143.26 1270.87,-137.11 1260.29,-136.54 1262.24,-143.26"/>
</g>
<!-- Node31 -->
<g id="node31" class="node">
<title>Node31</title>
<g id="a_node31"><a xlink:href="array_8h.html" target="_top" xlink:title=" ">
<polygon fill="none" stroke="black" points="284,-118 284,-137 372,-137 372,-118 284,-118"/>
<text text-anchor="middle" x="328" y="-125" font-family="Helvetica,sans-Serif" font-size="10.00">thorin/util/array.h</text>
</a>
</g>
</g>
<!-- Node11&#45;&gt;Node31 -->
<g id="edge33" class="edge">
<title>Node11&#45;&gt;Node31</title>
<path fill="none" stroke="midnightblue" d="M728.2,-238.76C719.98,-237.48 711.17,-236.16 703,-235 578.33,-217.35 538.67,-246.34 422,-199 391.14,-186.48 361.4,-161.25 343.91,-144.62"/>
<polygon fill="midnightblue" stroke="midnightblue" points="345.96,-141.72 336.36,-137.24 341.07,-146.73 345.96,-141.72"/>
</g>
<!-- Node38 -->
<g id="node38" class="node">
<title>Node38</title>
<g id="a_node38"><a xlink:href="cast_8h.html" target="_top" xlink:title=" ">
<polygon fill="none" stroke="black" points="390,-118 390,-137 476,-137 476,-118 390,-118"/>
<text text-anchor="middle" x="433" y="-125" font-family="Helvetica,sans-Serif" font-size="10.00">thorin/util/cast.h</text>
</a>
</g>
</g>
<!-- Node11&#45;&gt;Node38 -->
<g id="edge44" class="edge">
<title>Node11&#45;&gt;Node38</title>
<path fill="none" stroke="midnightblue" d="M728.2,-238.79C719.97,-237.52 711.17,-236.18 703,-235 643.53,-226.39 475.2,-243.66 435,-199 422.49,-185.1 424.2,-162.69 427.61,-146.87"/>
<polygon fill="midnightblue" stroke="midnightblue" points="431,-147.71 430.09,-137.16 424.22,-145.98 431,-147.71"/>
</g>
<!-- Node39 -->
<g id="node39" class="node">
<title>Node39</title>
<g id="a_node39"><a xlink:href="container_8h.html" target="_top" xlink:title=" ">
<polygon fill="none" stroke="black" points="787.5,-179.5 787.5,-198.5 894.5,-198.5 894.5,-179.5 787.5,-179.5"/>
<text text-anchor="middle" x="841" y="-186.5" font-family="Helvetica,sans-Serif" font-size="10.00">thorin/util/container.h</text>
</a>
</g>
</g>
<!-- Node11&#45;&gt;Node39 -->
<g id="edge47" class="edge">
<title>Node11&#45;&gt;Node39</title>
<path fill="none" stroke="midnightblue" d="M773.85,-235.32C786.22,-226.98 805.13,-214.21 819.74,-204.35"/>
<polygon fill="midnightblue" stroke="midnightblue" points="821.85,-207.15 828.18,-198.65 817.93,-201.35 821.85,-207.15"/>
</g>
<!-- Node11&#45;&gt;Node43 -->
<g id="edge56" class="edge">
<title>Node11&#45;&gt;Node43</title>
<path fill="none" stroke="midnightblue" d="M747.09,-235.32C715.35,-215.5 637.33,-166.79 598.58,-142.6"/>
<polygon fill="midnightblue" stroke="midnightblue" points="600.4,-139.61 590.07,-137.28 596.7,-145.55 600.4,-139.61"/>
</g>
<!-- Node14&#45;&gt;Node7 -->
<g id="edge14" class="edge">
<title>Node14&#45;&gt;Node7</title>
<path fill="none" stroke="midnightblue" d="M1022.63,-185.73C1112.07,-180.14 1327.61,-164.55 1352,-143 1368.05,-128.82 1371.54,-103.32 1371.85,-85.8"/>
<polygon fill="midnightblue" stroke="midnightblue" points="1375.35,-85.58 1371.7,-75.63 1368.35,-85.68 1375.35,-85.58"/>
</g>
<!-- Node15 -->
<g id="node15" class="node">
<title>Node15</title>
<g id="a_node15"><a xlink:title=" ">
<polygon fill="none" stroke="#bfbfbf" points="1048.5,-112.5 1048.5,-142.5 1141.5,-142.5 1141.5,-112.5 1048.5,-112.5"/>
<text text-anchor="start" x="1056.5" y="-130.5" font-family="Helvetica,sans-Serif" font-size="10.00">absl/container/flat</text>
<text text-anchor="middle" x="1095" y="-119.5" font-family="Helvetica,sans-Serif" font-size="10.00">_hash_map.h</text>
</a>
</g>
</g>
<!-- Node14&#45;&gt;Node15 -->
<g id="edge15" class="edge">
<title>Node14&#45;&gt;Node15</title>
<path fill="none" stroke="midnightblue" d="M999.9,-179.48C1015.5,-171.12 1039.8,-158.09 1059.93,-147.3"/>
<polygon fill="midnightblue" stroke="midnightblue" points="1061.68,-150.33 1068.84,-142.52 1058.37,-144.16 1061.68,-150.33"/>
</g>
<!-- Node16 -->
<g id="node16" class="node">
<title>Node16</title>
<g id="a_node16"><a xlink:title=" ">
<polygon fill="none" stroke="#bfbfbf" points="937.5,-112.5 937.5,-142.5 1030.5,-142.5 1030.5,-112.5 937.5,-112.5"/>
<text text-anchor="start" x="945.5" y="-130.5" font-family="Helvetica,sans-Serif" font-size="10.00">absl/container/flat</text>
<text text-anchor="middle" x="984" y="-119.5" font-family="Helvetica,sans-Serif" font-size="10.00">_hash_set.h</text>
</a>
</g>
</g>
<!-- Node14&#45;&gt;Node16 -->
<g id="edge16" class="edge">
<title>Node14&#45;&gt;Node16</title>
<path fill="none" stroke="midnightblue" d="M984,-179.48C984,-172.47 984,-162.19 984,-152.7"/>
<polygon fill="midnightblue" stroke="midnightblue" points="987.5,-152.52 984,-142.52 980.5,-152.52 987.5,-152.52"/>
</g>
<!-- Node18 -->
<g id="node18" class="node">
<title>Node18</title>
<g id="a_node18"><a xlink:title=" ">
<polygon fill="none" stroke="#bfbfbf" points="1399,-118 1399,-137 1465,-137 1465,-118 1399,-118"/>
<text text-anchor="middle" x="1432" y="-125" font-family="Helvetica,sans-Serif" font-size="10.00">string_view</text>
</a>
</g>
</g>
<!-- Node17&#45;&gt;Node18 -->
<g id="edge18" class="edge">
<title>Node17&#45;&gt;Node18</title>
<path fill="none" stroke="midnightblue" d="M1283.79,-179.48C1313.59,-169.22 1363.79,-151.96 1397.4,-140.4"/>
<polygon fill="midnightblue" stroke="midnightblue" points="1398.94,-143.57 1407.26,-137.01 1396.66,-136.95 1398.94,-143.57"/>
</g>
<!-- Node17&#45;&gt;Node19 -->
<g id="edge19" class="edge">
<title>Node17&#45;&gt;Node19</title>
<path fill="none" stroke="midnightblue" d="M1264.87,-179.48C1270.96,-170.64 1280.64,-156.59 1288.3,-145.48"/>
<polygon fill="midnightblue" stroke="midnightblue" points="1291.34,-147.23 1294.14,-137.01 1285.58,-143.26 1291.34,-147.23"/>
</g>
<!-- Node25 -->
<g id="node25" class="node">
<title>Node25</title>
<g id="a_node25"><a xlink:href="types_8h.html" target="_top" xlink:title=" ">
<polygon fill="none" stroke="black" points="1003,-56.5 1003,-75.5 1093,-75.5 1093,-56.5 1003,-56.5"/>
<text text-anchor="middle" x="1048" y="-63.5" font-family="Helvetica,sans-Serif" font-size="10.00">thorin/util/types.h</text>
</a>
</g>
</g>
<!-- Node17&#45;&gt;Node25 -->
<g id="edge26" class="edge">
<title>Node17&#45;&gt;Node25</title>
<path fill="none" stroke="midnightblue" d="M1255.9,-179.48C1249.7,-163.68 1234.27,-129.87 1210,-112 1178.9,-89.1 1136.67,-77.86 1103.13,-72.33"/>
<polygon fill="midnightblue" stroke="midnightblue" points="1103.43,-68.84 1093.02,-70.79 1102.38,-75.76 1103.43,-68.84"/>
</g>
<!-- Node19&#45;&gt;Node7 -->
<g id="edge23" class="edge">
<title>Node19&#45;&gt;Node7</title>
<path fill="none" stroke="midnightblue" d="M1310.17,-117.98C1321.35,-108.61 1339.52,-93.38 1353.09,-82.01"/>
<polygon fill="midnightblue" stroke="midnightblue" points="1355.43,-84.61 1360.85,-75.51 1350.93,-79.25 1355.43,-84.61"/>
</g>
<!-- Node20 -->
<g id="node20" class="node">
<title>Node20</title>
<g id="a_node20"><a xlink:title=" ">
<polygon fill="none" stroke="#bfbfbf" points="1273,-56.5 1273,-75.5 1327,-75.5 1327,-56.5 1273,-56.5"/>
<text text-anchor="middle" x="1300" y="-63.5" font-family="Helvetica,sans-Serif" font-size="10.00">iostream</text>
</a>
</g>
</g>
<!-- Node19&#45;&gt;Node20 -->
<g id="edge20" class="edge">
<title>Node19&#45;&gt;Node20</title>
<path fill="none" stroke="midnightblue" d="M1300,-117.98C1300,-109.58 1300,-96.48 1300,-85.66"/>
<polygon fill="midnightblue" stroke="midnightblue" points="1303.5,-85.51 1300,-75.51 1296.5,-85.51 1303.5,-85.51"/>
</g>
<!-- Node21 -->
<g id="node21" class="node">
<title>Node21</title>
<g id="a_node21"><a xlink:title=" ">
<polygon fill="none" stroke="#bfbfbf" points="1176,-0.5 1176,-19.5 1228,-19.5 1228,-0.5 1176,-0.5"/>
<text text-anchor="middle" x="1202" y="-7.5" font-family="Helvetica,sans-Serif" font-size="10.00">ostream</text>
</a>
</g>
</g>
<!-- Node19&#45;&gt;Node21 -->
<g id="edge21" class="edge">
<title>Node19&#45;&gt;Node21</title>
<path fill="none" stroke="midnightblue" d="M1292.63,-117.82C1276.39,-98.67 1237.25,-52.54 1216.11,-27.63"/>
<polygon fill="midnightblue" stroke="midnightblue" points="1218.59,-25.14 1209.45,-19.78 1213.25,-29.67 1218.59,-25.14"/>
</g>
<!-- Node22 -->
<g id="node22" class="node">
<title>Node22</title>
<g id="a_node22"><a xlink:title=" ">
<polygon fill="none" stroke="#bfbfbf" points="621,-56.5 621,-75.5 667,-75.5 667,-56.5 621,-56.5"/>
<text text-anchor="middle" x="644" y="-63.5" font-family="Helvetica,sans-Serif" font-size="10.00">ranges</text>
</a>
</g>
</g>
<!-- Node19&#45;&gt;Node22 -->
<g id="edge22" class="edge">
<title>Node19&#45;&gt;Node22</title>
<path fill="none" stroke="midnightblue" d="M1256.61,-118.79C1241.85,-116.36 1225.24,-113.83 1210,-112 1008.47,-87.79 764.96,-73.41 677.38,-68.71"/>
<polygon fill="midnightblue" stroke="midnightblue" points="677.42,-65.21 667.25,-68.18 677.05,-72.2 677.42,-65.21"/>
</g>
<!-- Node23 -->
<g id="node23" class="node">
<title>Node23</title>
<g id="a_node23"><a xlink:href="assert_8h.html" target="_top" xlink:title=" ">
<polygon fill="none" stroke="black" points="822,-56.5 822,-75.5 916,-75.5 916,-56.5 822,-56.5"/>
<text text-anchor="middle" x="869" y="-63.5" font-family="Helvetica,sans-Serif" font-size="10.00">thorin/util/assert.h</text>
</a>
</g>
</g>
<!-- Node19&#45;&gt;Node23 -->
<g id="edge24" class="edge">
<title>Node19&#45;&gt;Node23</title>
<path fill="none" stroke="midnightblue" d="M1256.55,-119.24C1241.79,-116.85 1225.19,-114.23 1210,-112 1110.39,-97.41 994.08,-82.52 926.27,-74.05"/>
<polygon fill="midnightblue" stroke="midnightblue" points="926.58,-70.56 916.22,-72.8 925.71,-77.51 926.58,-70.56"/>
</g>
<!-- Node24 -->
<g id="node24" class="node">
<title>Node24</title>
<g id="a_node24"><a xlink:title=" ">
<polygon fill="none" stroke="#bfbfbf" points="501.5,-0.5 501.5,-19.5 550.5,-19.5 550.5,-0.5 501.5,-0.5"/>
<text text-anchor="middle" x="526" y="-7.5" font-family="Helvetica,sans-Serif" font-size="10.00">cassert</text>
</a>
</g>
</g>
<!-- Node23&#45;&gt;Node24 -->
<g id="edge25" class="edge">
<title>Node23&#45;&gt;Node24</title>
<path fill="none" stroke="midnightblue" d="M821.67,-57.55C751.83,-46.55 622.78,-26.24 560.89,-16.49"/>
<polygon fill="midnightblue" stroke="midnightblue" points="561.27,-13.01 550.85,-14.91 560.18,-19.92 561.27,-13.01"/>
</g>
<!-- Node25&#45;&gt;Node21 -->
<g id="edge29" class="edge">
<title>Node25&#45;&gt;Node21</title>
<path fill="none" stroke="midnightblue" d="M1072.4,-56.44C1098.2,-47.4 1139.08,-33.06 1168.02,-22.92"/>
<polygon fill="midnightblue" stroke="midnightblue" points="1169.43,-26.13 1177.71,-19.52 1167.12,-19.52 1169.43,-26.13"/>
</g>
<!-- Node26 -->
<g id="node26" class="node">
<title>Node26</title>
<g id="a_node26"><a xlink:title=" ">
<polygon fill="none" stroke="#bfbfbf" points="1095,-0.5 1095,-19.5 1141,-19.5 1141,-0.5 1095,-0.5"/>
<text text-anchor="middle" x="1118" y="-7.5" font-family="Helvetica,sans-Serif" font-size="10.00">cstdint</text>
</a>
</g>
</g>
<!-- Node25&#45;&gt;Node26 -->
<g id="edge27" class="edge">
<title>Node25&#45;&gt;Node26</title>
<path fill="none" stroke="midnightblue" d="M1059.25,-56.32C1069.8,-48.18 1085.8,-35.84 1098.44,-26.09"/>
<polygon fill="midnightblue" stroke="midnightblue" points="1100.77,-28.71 1106.55,-19.83 1096.49,-23.17 1100.77,-28.71"/>
</g>
<!-- Node27 -->
<g id="node27" class="node">
<title>Node27</title>
<g id="a_node27"><a xlink:title=" ">
<polygon fill="none" stroke="#bfbfbf" points="907,-0.5 907,-19.5 947,-19.5 947,-0.5 907,-0.5"/>
<text text-anchor="middle" x="927" y="-7.5" font-family="Helvetica,sans-Serif" font-size="10.00">limits</text>
</a>
</g>
</g>
<!-- Node25&#45;&gt;Node27 -->
<g id="edge28" class="edge">
<title>Node25&#45;&gt;Node27</title>
<path fill="none" stroke="midnightblue" d="M1028.83,-56.44C1009.09,-47.64 978.11,-33.81 955.51,-23.72"/>
<polygon fill="midnightblue" stroke="midnightblue" points="956.64,-20.4 946.08,-19.52 953.79,-26.79 956.64,-20.4"/>
</g>
<!-- Node28 -->
<g id="node28" class="node">
<title>Node28</title>
<g id="a_node28"><a xlink:title=" ">
<polygon fill="none" stroke="#bfbfbf" points="278,-0.5 278,-19.5 340,-19.5 340,-0.5 278,-0.5"/>
<text text-anchor="middle" x="309" y="-7.5" font-family="Helvetica,sans-Serif" font-size="10.00">type_traits</text>
</a>
</g>
</g>
<!-- Node25&#45;&gt;Node28 -->
<g id="edge30" class="edge">
<title>Node25&#45;&gt;Node28</title>
<path fill="none" stroke="midnightblue" d="M1002.73,-61.69C979.49,-59.99 950.73,-57.88 925,-56 708.57,-40.18 449.37,-21.25 350.27,-14.01"/>
<polygon fill="midnightblue" stroke="midnightblue" points="350.32,-10.51 340.09,-13.27 349.81,-17.49 350.32,-10.51"/>
</g>
<!-- Node29 -->
<g id="node29" class="node">
<title>Node29</title>
<g id="a_node29"><a xlink:title=" ">
<polygon fill="none" stroke="#bfbfbf" points="965,-0.5 965,-19.5 1009,-19.5 1009,-0.5 965,-0.5"/>
<text text-anchor="middle" x="987" y="-7.5" font-family="Helvetica,sans-Serif" font-size="10.00">cmath</text>
</a>
</g>
</g>
<!-- Node25&#45;&gt;Node29 -->
<g id="edge31" class="edge">
<title>Node25&#45;&gt;Node29</title>
<path fill="none" stroke="midnightblue" d="M1038.2,-56.32C1029.18,-48.34 1015.59,-36.31 1004.68,-26.65"/>
<polygon fill="midnightblue" stroke="midnightblue" points="1006.79,-23.84 996.98,-19.83 1002.15,-29.08 1006.79,-23.84"/>
</g>
<!-- Node30 -->
<g id="node30" class="node">
<title>Node30</title>
<g id="a_node30"><a xlink:title=" ">
<polygon fill="none" stroke="#bfbfbf" points="1027,-0.5 1027,-19.5 1077,-19.5 1077,-0.5 1027,-0.5"/>
<text text-anchor="middle" x="1052" y="-7.5" font-family="Helvetica,sans-Serif" font-size="10.00">half.hpp</text>
</a>
</g>
</g>
<!-- Node25&#45;&gt;Node30 -->
<g id="edge32" class="edge">
<title>Node25&#45;&gt;Node30</title>
<path fill="none" stroke="midnightblue" d="M1048.66,-56.08C1049.18,-49.01 1049.94,-38.86 1050.59,-29.99"/>
<polygon fill="midnightblue" stroke="midnightblue" points="1054.1,-29.98 1051.35,-19.75 1047.12,-29.47 1054.1,-29.98"/>
</g>
<!-- Node31&#45;&gt;Node13 -->
<g id="edge43" class="edge">
<title>Node31&#45;&gt;Node13</title>
<path fill="none" stroke="midnightblue" d="M358.49,-117.93C365.85,-115.93 373.69,-113.84 381,-112 438.12,-97.6 505.12,-82.53 543.85,-74"/>
<polygon fill="midnightblue" stroke="midnightblue" points="544.98,-77.34 554,-71.77 543.48,-70.5 544.98,-77.34"/>
</g>
<!-- Node31&#45;&gt;Node22 -->
<g id="edge41" class="edge">
<title>Node31&#45;&gt;Node22</title>
<path fill="none" stroke="midnightblue" d="M357.02,-117.95C364.77,-115.83 373.17,-113.69 381,-112 480.42,-90.55 507.28,-96.04 607,-76 608.28,-75.74 609.57,-75.47 610.88,-75.19"/>
<polygon fill="midnightblue" stroke="midnightblue" points="611.99,-78.53 620.97,-72.91 610.44,-71.7 611.99,-78.53"/>
</g>
<!-- Node31&#45;&gt;Node24 -->
<g id="edge34" class="edge">
<title>Node31&#45;&gt;Node24</title>
<path fill="none" stroke="midnightblue" d="M341.67,-117.8C363.07,-104.24 405.88,-77.42 443,-56 462.11,-44.97 484.06,-33.1 500.59,-24.32"/>
<polygon fill="midnightblue" stroke="midnightblue" points="502.43,-27.31 509.64,-19.54 499.16,-21.12 502.43,-27.31"/>
</g>
<!-- Node31&#45;&gt;Node28 -->
<g id="edge42" class="edge">
<title>Node31&#45;&gt;Node28</title>
<path fill="none" stroke="midnightblue" d="M283.78,-123.92C250.59,-119.39 207.2,-107.38 185,-76 161.23,-42.4 223.14,-24.81 267.8,-16.75"/>
<polygon fill="midnightblue" stroke="midnightblue" points="268.6,-20.17 277.87,-15.04 267.42,-13.27 268.6,-20.17"/>
</g>
<!-- Node32 -->
<g id="node32" class="node">
<title>Node32</title>
<g id="a_node32"><a xlink:title=" ">
<polygon fill="none" stroke="#bfbfbf" points="194.5,-56.5 194.5,-75.5 243.5,-75.5 243.5,-56.5 194.5,-56.5"/>
<text text-anchor="middle" x="219" y="-63.5" font-family="Helvetica,sans-Serif" font-size="10.00">cstddef</text>
</a>
</g>
</g>
<!-- Node31&#45;&gt;Node32 -->
<g id="edge35" class="edge">
<title>Node31&#45;&gt;Node32</title>
<path fill="none" stroke="midnightblue" d="M312.38,-117.98C294.41,-108.17 264.68,-91.93 243.59,-80.42"/>
<polygon fill="midnightblue" stroke="midnightblue" points="245.04,-77.23 234.59,-75.51 241.69,-83.37 245.04,-77.23"/>
</g>
<!-- Node33 -->
<g id="node33" class="node">
<title>Node33</title>
<g id="a_node33"><a xlink:title=" ">
<polygon fill="none" stroke="#bfbfbf" points="452,-56.5 452,-75.5 498,-75.5 498,-56.5 452,-56.5"/>
<text text-anchor="middle" x="475" y="-63.5" font-family="Helvetica,sans-Serif" font-size="10.00">cstring</text>
</a>
</g>
</g>
<!-- Node31&#45;&gt;Node33 -->
<g id="edge36" class="edge">
<title>Node31&#45;&gt;Node33</title>
<path fill="none" stroke="midnightblue" d="M349.06,-117.98C374.06,-107.86 415.94,-90.9 444.49,-79.35"/>
<polygon fill="midnightblue" stroke="midnightblue" points="446.02,-82.51 453.98,-75.51 443.39,-76.02 446.02,-82.51"/>
</g>
<!-- Node34 -->
<g id="node34" class="node">
<title>Node34</title>
<g id="a_node34"><a xlink:title=" ">
<polygon fill="none" stroke="#bfbfbf" points="262,-56.5 262,-75.5 318,-75.5 318,-56.5 262,-56.5"/>
<text text-anchor="middle" x="290" y="-63.5" font-family="Helvetica,sans-Serif" font-size="10.00">algorithm</text>
</a>
</g>
</g>
<!-- Node31&#45;&gt;Node34 -->
<g id="edge37" class="edge">
<title>Node31&#45;&gt;Node34</title>
<path fill="none" stroke="midnightblue" d="M322.56,-117.98C316.91,-109.14 307.94,-95.09 300.84,-83.98"/>
<polygon fill="midnightblue" stroke="midnightblue" points="303.77,-82.05 295.43,-75.51 297.87,-85.82 303.77,-82.05"/>
</g>
<!-- Node35 -->
<g id="node35" class="node">
<title>Node35</title>
<g id="a_node35"><a xlink:title=" ">
<polygon fill="none" stroke="#bfbfbf" points="336.5,-56.5 336.5,-75.5 395.5,-75.5 395.5,-56.5 336.5,-56.5"/>
<text text-anchor="middle" x="366" y="-63.5" font-family="Helvetica,sans-Serif" font-size="10.00">functional</text>
</a>
</g>
</g>
<!-- Node31&#45;&gt;Node35 -->
<g id="edge38" class="edge">
<title>Node31&#45;&gt;Node35</title>
<path fill="none" stroke="midnightblue" d="M333.44,-117.98C339.09,-109.14 348.06,-95.09 355.16,-83.98"/>
<polygon fill="midnightblue" stroke="midnightblue" points="358.13,-85.82 360.57,-75.51 352.23,-82.05 358.13,-85.82"/>
</g>
<!-- Node36 -->
<g id="node36" class="node">
<title>Node36</title>
<g id="a_node36"><a xlink:title=" ">
<polygon fill="none" stroke="#bfbfbf" points="0,-56.5 0,-75.5 72,-75.5 72,-56.5 0,-56.5"/>
<text text-anchor="middle" x="36" y="-63.5" font-family="Helvetica,sans-Serif" font-size="10.00">initializer_list</text>
</a>
</g>
</g>
<!-- Node31&#45;&gt;Node36 -->
<g id="edge39" class="edge">
<title>Node31&#45;&gt;Node36</title>
<path fill="none" stroke="midnightblue" d="M286.16,-117.98C232.13,-106.96 138.36,-87.86 82.26,-76.43"/>
<polygon fill="midnightblue" stroke="midnightblue" points="82.73,-72.95 72.24,-74.38 81.34,-79.81 82.73,-72.95"/>
</g>
<!-- Node37 -->
<g id="node37" class="node">
<title>Node37</title>
<g id="a_node37"><a xlink:title=" ">
<polygon fill="none" stroke="#bfbfbf" points="90.5,-56.5 90.5,-75.5 137.5,-75.5 137.5,-56.5 90.5,-56.5"/>
<text text-anchor="middle" x="114" y="-63.5" font-family="Helvetica,sans-Serif" font-size="10.00">iterator</text>
</a>
</g>
</g>
<!-- Node31&#45;&gt;Node37 -->
<g id="edge40" class="edge">
<title>Node31&#45;&gt;Node37</title>
<path fill="none" stroke="midnightblue" d="M297.34,-117.98C257.6,-106.93 188.54,-87.73 147.47,-76.31"/>
<polygon fill="midnightblue" stroke="midnightblue" points="148.24,-72.89 137.67,-73.58 146.37,-79.63 148.24,-72.89"/>
</g>
<!-- Node38&#45;&gt;Node24 -->
<g id="edge45" class="edge">
<title>Node38&#45;&gt;Node24</title>
<path fill="none" stroke="midnightblue" d="M452.51,-117.9C469.31,-109.53 493.02,-95.25 507,-76 516.82,-62.47 521.6,-43.92 523.9,-30.1"/>
<polygon fill="midnightblue" stroke="midnightblue" points="527.42,-30.2 525.31,-19.81 520.48,-29.25 527.42,-30.2"/>
</g>
<!-- Node38&#45;&gt;Node33 -->
<g id="edge46" class="edge">
<title>Node38&#45;&gt;Node33</title>
<path fill="none" stroke="midnightblue" d="M439.02,-117.98C445.26,-109.14 455.17,-95.09 463.02,-83.98"/>
<polygon fill="midnightblue" stroke="midnightblue" points="466.09,-85.7 468.99,-75.51 460.37,-81.66 466.09,-85.7"/>
</g>
<!-- Node39&#45;&gt;Node4 -->
<g id="edge49" class="edge">
<title>Node39&#45;&gt;Node4</title>
<path fill="none" stroke="midnightblue" d="M894.71,-182.29C970.38,-173.9 1104.36,-157.63 1151,-143 1152.62,-142.49 1154.27,-141.9 1155.91,-141.25"/>
<polygon fill="midnightblue" stroke="midnightblue" points="1157.36,-144.44 1165.03,-137.12 1154.48,-138.06 1157.36,-144.44"/>
</g>
<!-- Node39&#45;&gt;Node15 -->
<g id="edge50" class="edge">
<title>Node39&#45;&gt;Node15</title>
<path fill="none" stroke="midnightblue" d="M880.74,-179.45C918.86,-171.15 978.27,-157.96 1038.21,-143.4"/>
<polygon fill="midnightblue" stroke="midnightblue" points="1039.34,-146.72 1048.22,-140.95 1037.68,-139.92 1039.34,-146.72"/>
</g>
<!-- Node39&#45;&gt;Node16 -->
<g id="edge51" class="edge">
<title>Node39&#45;&gt;Node16</title>
<path fill="none" stroke="midnightblue" d="M861.49,-179.48C882.12,-170.89 914.58,-157.38 940.91,-146.43"/>
<polygon fill="midnightblue" stroke="midnightblue" points="942.41,-149.6 950.3,-142.52 939.72,-143.13 942.41,-149.6"/>
</g>
<!-- Node40 -->
<g id="node40" class="node">
<title>Node40</title>
<g id="a_node40"><a xlink:title=" ">
<polygon fill="none" stroke="#bfbfbf" points="876.5,-118 876.5,-137 919.5,-137 919.5,-118 876.5,-118"/>
<text text-anchor="middle" x="898" y="-125" font-family="Helvetica,sans-Serif" font-size="10.00">queue</text>
</a>
</g>
</g>
<!-- Node39&#45;&gt;Node40 -->
<g id="edge48" class="edge">
<title>Node39&#45;&gt;Node40</title>
<path fill="none" stroke="midnightblue" d="M849.17,-179.48C857.89,-170.37 871.9,-155.74 882.69,-144.48"/>
<polygon fill="midnightblue" stroke="midnightblue" points="885.46,-146.65 889.85,-137.01 880.4,-141.81 885.46,-146.65"/>
</g>
<!-- Node41 -->
<g id="node41" class="node">
<title>Node41</title>
<g id="a_node41"><a xlink:title=" ">
<polygon fill="none" stroke="#bfbfbf" points="638.5,-112.5 638.5,-142.5 739.5,-142.5 739.5,-112.5 638.5,-112.5"/>
<text text-anchor="start" x="646.5" y="-130.5" font-family="Helvetica,sans-Serif" font-size="10.00">absl/container/node</text>
<text text-anchor="middle" x="689" y="-119.5" font-family="Helvetica,sans-Serif" font-size="10.00">_hash_map.h</text>
</a>
</g>
</g>
<!-- Node39&#45;&gt;Node41 -->
<g id="edge52" class="edge">
<title>Node39&#45;&gt;Node41</title>
<path fill="none" stroke="midnightblue" d="M819.22,-179.48C797.19,-170.85 762.48,-157.26 734.43,-146.29"/>
<polygon fill="midnightblue" stroke="midnightblue" points="735.41,-142.91 724.82,-142.52 732.86,-149.43 735.41,-142.91"/>
</g>
<!-- Node42 -->
<g id="node42" class="node">
<title>Node42</title>
<g id="a_node42"><a xlink:title=" ">
<polygon fill="none" stroke="#bfbfbf" points="757.5,-112.5 757.5,-142.5 858.5,-142.5 858.5,-112.5 757.5,-112.5"/>
<text text-anchor="start" x="765.5" y="-130.5" font-family="Helvetica,sans-Serif" font-size="10.00">absl/container/node</text>
<text text-anchor="middle" x="808" y="-119.5" font-family="Helvetica,sans-Serif" font-size="10.00">_hash_set.h</text>
</a>
</g>
</g>
<!-- Node39&#45;&gt;Node42 -->
<g id="edge53" class="edge">
<title>Node39&#45;&gt;Node42</title>
<path fill="none" stroke="midnightblue" d="M836.27,-179.48C832.22,-172.17 826.19,-161.3 820.74,-151.47"/>
<polygon fill="midnightblue" stroke="midnightblue" points="823.69,-149.57 815.78,-142.52 817.57,-152.97 823.69,-149.57"/>
</g>
<!-- Node39&#45;&gt;Node43 -->
<g id="edge54" class="edge">
<title>Node39&#45;&gt;Node43</title>
<path fill="none" stroke="midnightblue" d="M796.98,-179.43C753.99,-170.88 686.77,-157.02 629,-143 624.66,-141.95 620.13,-140.79 615.63,-139.61"/>
<polygon fill="midnightblue" stroke="midnightblue" points="616.48,-136.21 605.91,-137.01 614.67,-142.98 616.48,-136.21"/>
</g>
<!-- Node43&#45;&gt;Node25 -->
<g id="edge55" class="edge">
<title>Node43&#45;&gt;Node25</title>
<path fill="none" stroke="midnightblue" d="M603.86,-117.98C611.91,-115.76 620.75,-113.56 629,-112 697.32,-99.07 895.17,-80.53 992.54,-71.84"/>
<polygon fill="midnightblue" stroke="midnightblue" points="993.12,-75.31 1002.77,-70.93 992.5,-68.33 993.12,-75.31"/>
</g>
<!-- Node45&#45;&gt;Node11 -->
<g id="edge61" class="edge">
<title>Node45&#45;&gt;Node11</title>
<path fill="none" stroke="midnightblue" d="M761,-291.08C761,-284.01 761,-273.86 761,-264.99"/>
<polygon fill="midnightblue" stroke="midnightblue" points="764.5,-264.75 761,-254.75 757.5,-264.75 764.5,-264.75"/>
</g>
<!-- Node46&#45;&gt;Node11 -->
<g id="edge63" class="edge">
<title>Node46&#45;&gt;Node11</title>
<path fill="none" stroke="midnightblue" d="M839.06,-291.32C824.41,-282.82 801.87,-269.73 784.76,-259.8"/>
<polygon fill="midnightblue" stroke="midnightblue" points="786.31,-256.65 775.9,-254.65 782.8,-262.7 786.31,-256.65"/>
</g>
<!-- Node47&#45;&gt;Node5 -->
<g id="edge66" class="edge">
<title>Node47&#45;&gt;Node5</title>
<path fill="none" stroke="midnightblue" d="M996.07,-459.32C985.83,-451.18 970.28,-438.84 958,-429.09"/>
<polygon fill="midnightblue" stroke="midnightblue" points="960.13,-426.31 950.12,-422.83 955.78,-431.79 960.13,-426.31"/>
</g>
<!-- Node48 -->
<g id="node48" class="node">
<title>Node48</title>
<g id="a_node48"><a xlink:href="scope_8h.html" target="_top" xlink:title=" ">
<polygon fill="none" stroke="black" points="1006.5,-291.5 1006.5,-310.5 1125.5,-310.5 1125.5,-291.5 1006.5,-291.5"/>
<text text-anchor="middle" x="1066" y="-298.5" font-family="Helvetica,sans-Serif" font-size="10.00">thorin/analyses/scope.h</text>
</a>
</g>
</g>
<!-- Node47&#45;&gt;Node48 -->
<g id="edge67" class="edge">
<title>Node47&#45;&gt;Node48</title>
<path fill="none" stroke="midnightblue" d="M1019.02,-459.39C1039.67,-443.76 1081.2,-408.48 1097,-367 1103.5,-349.94 1092.5,-331.2 1081.85,-318.24"/>
<polygon fill="midnightblue" stroke="midnightblue" points="1084.35,-315.78 1075.09,-310.63 1079.12,-320.43 1084.35,-315.78"/>
</g>
<!-- Node48&#45;&gt;Node11 -->
<g id="edge68" class="edge">
<title>Node48&#45;&gt;Node11</title>
<path fill="none" stroke="midnightblue" d="M1017.67,-291.44C958.69,-281 859.88,-263.51 803.62,-253.55"/>
<polygon fill="midnightblue" stroke="midnightblue" points="804.08,-250.07 793.63,-251.78 802.86,-256.97 804.08,-250.07"/>
</g>
<!-- Node48&#45;&gt;Node19 -->
<g id="edge69" class="edge">
<title>Node48&#45;&gt;Node19</title>
<path fill="none" stroke="midnightblue" d="M1125.56,-293.49C1182.97,-283.7 1266.86,-259.34 1307,-199 1317.29,-183.52 1313,-161.75 1307.75,-146.51"/>
<polygon fill="midnightblue" stroke="midnightblue" points="1311,-145.22 1304.13,-137.16 1304.47,-147.75 1311,-145.22"/>
</g>
</g>
</svg>
