<?xml version="1.0" encoding="UTF-8" standalone="no"?>
<!DOCTYPE svg PUBLIC "-//W3C//DTD SVG 1.1//EN"
 "http://www.w3.org/Graphics/SVG/1.1/DTD/svg11.dtd">
<!-- Generated by graphviz version 2.43.0 (0)
 -->
<!-- Title: /home/runner/work/thorin2/thorin2/thorin/fe/binder.cpp Pages: 1 -->
<svg width="1516pt" height="509pt"
 viewBox="0.00 0.00 1515.50 509.00" xmlns="http://www.w3.org/2000/svg" xmlns:xlink="http://www.w3.org/1999/xlink">
<g id="graph0" class="graph" transform="scale(1 1) rotate(0) translate(4 505)">
<title>/home/runner/work/thorin2/thorin2/thorin/fe/binder.cpp</title>
<!-- Node1 -->
<g id="node1" class="node">
<title>Node1</title>
<g id="a_node1"><a xlink:title=" ">
<polygon fill="#bfbfbf" stroke="black" points="747.5,-470.5 747.5,-500.5 899.5,-500.5 899.5,-470.5 747.5,-470.5"/>
<text text-anchor="start" x="755.5" y="-488.5" font-family="Helvetica,sans-Serif" font-size="10.00">/home/runner/work/thorin2</text>
<text text-anchor="middle" x="823.5" y="-477.5" font-family="Helvetica,sans-Serif" font-size="10.00">/thorin2/thorin/fe/binder.cpp</text>
</a>
</g>
</g>
<!-- Node2 -->
<g id="node2" class="node">
<title>Node2</title>
<g id="a_node2"><a xlink:href="binder_8h.html" target="_top" xlink:title=" ">
<polygon fill="none" stroke="black" points="625.5,-414.5 625.5,-433.5 725.5,-433.5 725.5,-414.5 625.5,-414.5"/>
<text text-anchor="middle" x="675.5" y="-421.5" font-family="Helvetica,sans-Serif" font-size="10.00">thorin/fe/binder.h</text>
</a>
</g>
</g>
<!-- Node1&#45;&gt;Node2 -->
<g id="edge1" class="edge">
<title>Node1&#45;&gt;Node2</title>
<path fill="none" stroke="midnightblue" d="M788.43,-470.4C763.48,-460.37 730.29,-447.03 706.36,-437.4"/>
<polygon fill="midnightblue" stroke="midnightblue" points="707.62,-434.14 697.04,-433.66 705.01,-440.64 707.62,-434.14"/>
</g>
<!-- Node8 -->
<g id="node8" class="node">
<title>Node8</title>
<g id="a_node8"><a xlink:href="world_8h.html" target="_top" xlink:title=" ">
<polygon fill="none" stroke="black" points="964.5,-414.5 964.5,-433.5 1048.5,-433.5 1048.5,-414.5 964.5,-414.5"/>
<text text-anchor="middle" x="1006.5" y="-421.5" font-family="Helvetica,sans-Serif" font-size="10.00">thorin/world.h</text>
</a>
</g>
</g>
<!-- Node1&#45;&gt;Node8 -->
<g id="edge7" class="edge">
<title>Node1&#45;&gt;Node8</title>
<path fill="none" stroke="midnightblue" d="M866.87,-470.4C898.49,-460.12 940.83,-446.35 970.57,-436.68"/>
<polygon fill="midnightblue" stroke="midnightblue" points="971.71,-439.99 980.14,-433.57 969.55,-433.33 971.71,-439.99"/>
</g>
<!-- Node3 -->
<g id="node3" class="node">
<title>Node3</title>
<g id="a_node3"><a xlink:title=" ">
<polygon fill="none" stroke="#bfbfbf" points="600,-353 600,-372 647,-372 647,-353 600,-353"/>
<text text-anchor="middle" x="623.5" y="-360" font-family="Helvetica,sans-Serif" font-size="10.00">deque</text>
</a>
</g>
</g>
<!-- Node2&#45;&gt;Node3 -->
<g id="edge2" class="edge">
<title>Node2&#45;&gt;Node3</title>
<path fill="none" stroke="midnightblue" d="M668.05,-414.48C660.17,-405.46 647.56,-391.02 637.76,-379.81"/>
<polygon fill="midnightblue" stroke="midnightblue" points="640.15,-377.24 630.94,-372.01 634.88,-381.84 640.15,-377.24"/>
</g>
<!-- Node4 -->
<g id="node4" class="node">
<title>Node4</title>
<g id="a_node4"><a xlink:href="debug_8h.html" target="_top" xlink:title=" ">
<polygon fill="none" stroke="black" points="896,-179.5 896,-198.5 983,-198.5 983,-179.5 896,-179.5"/>
<text text-anchor="middle" x="939.5" y="-186.5" font-family="Helvetica,sans-Serif" font-size="10.00">thorin/debug.h</text>
</a>
</g>
</g>
<!-- Node2&#45;&gt;Node4 -->
<g id="edge3" class="edge">
<title>Node2&#45;&gt;Node4</title>
<path fill="none" stroke="midnightblue" d="M677.14,-414.31C683.25,-384.38 707.56,-284.72 768.5,-235 786.45,-220.36 842.65,-207.34 885.78,-199.12"/>
<polygon fill="midnightblue" stroke="midnightblue" points="886.68,-202.51 895.87,-197.24 885.4,-195.63 886.68,-202.51"/>
</g>
<!-- Node5 -->
<g id="node5" class="node">
<title>Node5</title>
<g id="a_node5"><a xlink:title=" ">
<polygon fill="none" stroke="#bfbfbf" points="1141.5,-56.5 1141.5,-75.5 1185.5,-75.5 1185.5,-56.5 1141.5,-56.5"/>
<text text-anchor="middle" x="1163.5" y="-63.5" font-family="Helvetica,sans-Serif" font-size="10.00">string</text>
</a>
</g>
</g>
<!-- Node4&#45;&gt;Node5 -->
<g id="edge4" class="edge">
<title>Node4&#45;&gt;Node5</title>
<path fill="none" stroke="midnightblue" d="M983.26,-188.12C1024.95,-186 1087.28,-176.78 1128.5,-143 1146.2,-128.5 1155.37,-103.07 1159.8,-85.66"/>
<polygon fill="midnightblue" stroke="midnightblue" points="1163.29,-86.09 1162.08,-75.56 1156.46,-84.55 1163.29,-86.09"/>
</g>
<!-- Node6 -->
<g id="node6" class="node">
<title>Node6</title>
<g id="a_node6"><a xlink:title=" ">
<polygon fill="none" stroke="#bfbfbf" points="777.5,-112.5 777.5,-142.5 881.5,-142.5 881.5,-112.5 777.5,-112.5"/>
<text text-anchor="start" x="785.5" y="-130.5" font-family="Helvetica,sans-Serif" font-size="10.00">absl/container/flat</text>
<text text-anchor="middle" x="829.5" y="-119.5" font-family="Helvetica,sans-Serif" font-size="10.00">_hash_map.h</text>
</a>
</g>
</g>
<!-- Node4&#45;&gt;Node6 -->
<g id="edge5" class="edge">
<title>Node4&#45;&gt;Node6</title>
<path fill="none" stroke="midnightblue" d="M923.74,-179.48C908.28,-171.12 884.2,-158.09 864.25,-147.3"/>
<polygon fill="midnightblue" stroke="midnightblue" points="865.89,-144.2 855.42,-142.52 862.56,-150.36 865.89,-144.2"/>
</g>
<!-- Node7 -->
<g id="node7" class="node">
<title>Node7</title>
<g id="a_node7"><a xlink:title=" ">
<polygon fill="none" stroke="#bfbfbf" points="899.5,-112.5 899.5,-142.5 1003.5,-142.5 1003.5,-112.5 899.5,-112.5"/>
<text text-anchor="start" x="907.5" y="-130.5" font-family="Helvetica,sans-Serif" font-size="10.00">absl/container/flat</text>
<text text-anchor="middle" x="951.5" y="-119.5" font-family="Helvetica,sans-Serif" font-size="10.00">_hash_set.h</text>
</a>
</g>
</g>
<!-- Node4&#45;&gt;Node7 -->
<g id="edge6" class="edge">
<title>Node4&#45;&gt;Node7</title>
<path fill="none" stroke="midnightblue" d="M941.22,-179.48C942.65,-172.4 944.75,-161.97 946.68,-152.39"/>
<polygon fill="midnightblue" stroke="midnightblue" points="950.13,-153.02 948.67,-142.52 943.26,-151.63 950.13,-153.02"/>
</g>
<!-- Node8&#45;&gt;Node4 -->
<g id="edge63" class="edge">
<title>Node8&#45;&gt;Node4</title>
<path fill="none" stroke="midnightblue" d="M1000.97,-414.36C985.94,-390.31 944.54,-320.09 930.5,-255 927.16,-239.51 930.1,-221.67 933.49,-208.6"/>
<polygon fill="midnightblue" stroke="midnightblue" points="936.88,-209.48 936.31,-198.9 930.16,-207.53 936.88,-209.48"/>
</g>
<!-- Node8&#45;&gt;Node5 -->
<g id="edge9" class="edge">
<title>Node8&#45;&gt;Node5</title>
<path fill="none" stroke="midnightblue" d="M1048.77,-421.45C1153.82,-417.21 1420.48,-403.99 1450.5,-378 1476.83,-355.21 1469.5,-336.82 1469.5,-302 1469.5,-302 1469.5,-302 1469.5,-244 1469.5,-118.56 1274.45,-80.6 1195.8,-70.39"/>
<polygon fill="midnightblue" stroke="midnightblue" points="1195.86,-66.87 1185.51,-69.12 1195.01,-73.82 1195.86,-66.87"/>
</g>
<!-- Node9 -->
<g id="node9" class="node">
<title>Node9</title>
<g id="a_node9"><a xlink:title=" ">
<polygon fill="none" stroke="#bfbfbf" points="1403.5,-56.5 1403.5,-75.5 1459.5,-75.5 1459.5,-56.5 1403.5,-56.5"/>
<text text-anchor="middle" x="1431.5" y="-63.5" font-family="Helvetica,sans-Serif" font-size="10.00">sstream</text>
</a>
</g>
</g>
<!-- Node8&#45;&gt;Node9 -->
<g id="edge8" class="edge">
<title>Node8&#45;&gt;Node9</title>
<path fill="none" stroke="midnightblue" d="M1048.69,-421.34C1157.12,-416.74 1439.39,-402.51 1473.5,-378 1503.55,-356.41 1507.5,-339 1507.5,-302 1507.5,-302 1507.5,-302 1507.5,-188 1507.5,-144.48 1471.8,-103.77 1449.34,-82.47"/>
<polygon fill="midnightblue" stroke="midnightblue" points="1451.49,-79.7 1441.75,-75.53 1446.77,-84.86 1451.49,-79.7"/>
</g>
<!-- Node10 -->
<g id="node10" class="node">
<title>Node10</title>
<g id="a_node10"><a xlink:title=" ">
<polygon fill="none" stroke="#bfbfbf" points="1176,-118 1176,-137 1249,-137 1249,-118 1176,-118"/>
<text text-anchor="middle" x="1212.5" y="-125" font-family="Helvetica,sans-Serif" font-size="10.00">string_view</text>
</a>
</g>
</g>
<!-- Node8&#45;&gt;Node10 -->
<g id="edge10" class="edge">
<title>Node8&#45;&gt;Node10</title>
<path fill="none" stroke="midnightblue" d="M1015.44,-414.37C1024.4,-405.54 1038.43,-391.28 1049.5,-378 1111.44,-303.64 1124.41,-282.41 1173.5,-199 1183.89,-181.35 1195.16,-160.82 1202.9,-146.48"/>
<polygon fill="midnightblue" stroke="midnightblue" points="1206.2,-147.73 1207.84,-137.27 1200.03,-144.42 1206.2,-147.73"/>
</g>
<!-- Node11 -->
<g id="node11" class="node">
<title>Node11</title>
<g id="a_node11"><a xlink:title=" ">
<polygon fill="none" stroke="#bfbfbf" points="1091.5,-347.5 1091.5,-377.5 1205.5,-377.5 1205.5,-347.5 1091.5,-347.5"/>
<text text-anchor="start" x="1099.5" y="-365.5" font-family="Helvetica,sans-Serif" font-size="10.00">absl/container/btree</text>
<text text-anchor="middle" x="1148.5" y="-354.5" font-family="Helvetica,sans-Serif" font-size="10.00">_map.h</text>
</a>
</g>
</g>
<!-- Node8&#45;&gt;Node11 -->
<g id="edge11" class="edge">
<title>Node8&#45;&gt;Node11</title>
<path fill="none" stroke="midnightblue" d="M1026.85,-414.48C1047.34,-405.89 1079.57,-392.38 1105.71,-381.43"/>
<polygon fill="midnightblue" stroke="midnightblue" points="1107.16,-384.62 1115.03,-377.52 1104.46,-378.16 1107.16,-384.62"/>
</g>
<!-- Node12 -->
<g id="node12" class="node">
<title>Node12</title>
<g id="a_node12"><a xlink:title=" ">
<polygon fill="none" stroke="#bfbfbf" points="1223.5,-347.5 1223.5,-377.5 1337.5,-377.5 1337.5,-347.5 1223.5,-347.5"/>
<text text-anchor="start" x="1231.5" y="-365.5" font-family="Helvetica,sans-Serif" font-size="10.00">absl/container/btree</text>
<text text-anchor="middle" x="1280.5" y="-354.5" font-family="Helvetica,sans-Serif" font-size="10.00">_set.h</text>
</a>
</g>
</g>
<!-- Node8&#45;&gt;Node12 -->
<g id="edge12" class="edge">
<title>Node8&#45;&gt;Node12</title>
<path fill="none" stroke="midnightblue" d="M1046,-414.49C1085.8,-405.91 1149.26,-392.21 1213.39,-378.24"/>
<polygon fill="midnightblue" stroke="midnightblue" points="1214.24,-381.64 1223.27,-376.09 1212.75,-374.8 1214.24,-381.64"/>
</g>
<!-- Node13 -->
<g id="node13" class="node">
<title>Node13</title>
<g id="a_node13"><a xlink:href="axiom_8h.html" target="_top" xlink:title=" ">
<polygon fill="none" stroke="black" points="817.5,-353 817.5,-372 905.5,-372 905.5,-353 817.5,-353"/>
<text text-anchor="middle" x="861.5" y="-360" font-family="Helvetica,sans-Serif" font-size="10.00">thorin/axiom.h</text>
</a>
</g>
</g>
<!-- Node8&#45;&gt;Node13 -->
<g id="edge13" class="edge">
<title>Node8&#45;&gt;Node13</title>
<path fill="none" stroke="midnightblue" d="M985.73,-414.48C961.07,-404.36 919.75,-387.4 891.6,-375.85"/>
<polygon fill="midnightblue" stroke="midnightblue" points="892.82,-372.57 882.24,-372.01 890.16,-379.04 892.82,-372.57"/>
</g>
<!-- Node45 -->
<g id="node44" class="node">
<title>Node45</title>
<g id="a_node44"><a xlink:href="hash_8h.html" target="_top" xlink:title=" ">
<polygon fill="none" stroke="black" points="251,-118 251,-137 350,-137 350,-118 251,-118"/>
<text text-anchor="middle" x="300.5" y="-125" font-family="Helvetica,sans-Serif" font-size="10.00">thorin/util/hash.h</text>
</a>
</g>
</g>
<!-- Node8&#45;&gt;Node45 -->
<g id="edge73" class="edge">
<title>Node8&#45;&gt;Node45</title>
<path fill="none" stroke="midnightblue" d="M964.19,-419.45C908.9,-414.07 809.47,-401.86 727.5,-378 694.05,-368.26 688.79,-357.28 655.5,-347 575.46,-322.3 543.75,-351.64 470.5,-311 395.42,-269.35 334.66,-182.73 311.08,-145.8"/>
<polygon fill="midnightblue" stroke="midnightblue" points="313.94,-143.77 305.66,-137.15 308.01,-147.48 313.94,-143.77"/>
</g>
<!-- Node46 -->
<g id="node45" class="node">
<title>Node46</title>
<g id="a_node45"><a xlink:title=" ">
<polygon fill="none" stroke="#bfbfbf" points="1355.5,-353 1355.5,-372 1441.5,-372 1441.5,-353 1355.5,-353"/>
<text text-anchor="middle" x="1398.5" y="-360" font-family="Helvetica,sans-Serif" font-size="10.00">thorin/config.h</text>
</a>
</g>
</g>
<!-- Node8&#45;&gt;Node46 -->
<g id="edge62" class="edge">
<title>Node8&#45;&gt;Node46</title>
<path fill="none" stroke="midnightblue" d="M1048.69,-419.34C1113.27,-413.3 1240.33,-399.72 1346.5,-378 1351.19,-377.04 1356.08,-375.89 1360.9,-374.66"/>
<polygon fill="midnightblue" stroke="midnightblue" points="1361.86,-378.02 1370.61,-372.05 1360.04,-371.26 1361.86,-378.02"/>
</g>
<!-- Node47 -->
<g id="node46" class="node">
<title>Node47</title>
<g id="a_node46"><a xlink:href="error_8h.html" target="_top" xlink:title=" ">
<polygon fill="none" stroke="black" points="1049.5,-235.5 1049.5,-254.5 1129.5,-254.5 1129.5,-235.5 1049.5,-235.5"/>
<text text-anchor="middle" x="1089.5" y="-242.5" font-family="Helvetica,sans-Serif" font-size="10.00">thorin/error.h</text>
</a>
</g>
</g>
<!-- Node8&#45;&gt;Node47 -->
<g id="edge64" class="edge">
<title>Node8&#45;&gt;Node47</title>
<path fill="none" stroke="midnightblue" d="M1010.5,-414.46C1023.29,-387.19 1063.34,-301.78 1081,-264.13"/>
<polygon fill="midnightblue" stroke="midnightblue" points="1084.26,-265.41 1085.34,-254.87 1077.93,-262.44 1084.26,-265.41"/>
</g>
<!-- Node49 -->
<g id="node48" class="node">
<title>Node49</title>
<g id="a_node48"><a xlink:href="lattice_8h.html" target="_top" xlink:title=" ">
<polygon fill="none" stroke="black" points="579.5,-291.5 579.5,-310.5 667.5,-310.5 667.5,-291.5 579.5,-291.5"/>
<text text-anchor="middle" x="623.5" y="-298.5" font-family="Helvetica,sans-Serif" font-size="10.00">thorin/lattice.h</text>
</a>
</g>
</g>
<!-- Node8&#45;&gt;Node49 -->
<g id="edge69" class="edge">
<title>Node8&#45;&gt;Node49</title>
<path fill="none" stroke="midnightblue" d="M964.38,-418.39C923.19,-412.76 859.42,-400.99 808.5,-378 787.03,-368.31 786.55,-357.58 765.5,-347 735.66,-332 699.79,-320.68 671.57,-313.15"/>
<polygon fill="midnightblue" stroke="midnightblue" points="672.1,-309.67 661.54,-310.55 670.34,-316.45 672.1,-309.67"/>
</g>
<!-- Node50 -->
<g id="node49" class="node">
<title>Node50</title>
<g id="a_node49"><a xlink:href="tuple_8h.html" target="_top" xlink:title=" ">
<polygon fill="none" stroke="black" points="479.5,-291.5 479.5,-310.5 561.5,-310.5 561.5,-291.5 479.5,-291.5"/>
<text text-anchor="middle" x="520.5" y="-298.5" font-family="Helvetica,sans-Serif" font-size="10.00">thorin/tuple.h</text>
</a>
</g>
</g>
<!-- Node8&#45;&gt;Node50 -->
<g id="edge71" class="edge">
<title>Node8&#45;&gt;Node50</title>
<path fill="none" stroke="midnightblue" d="M964.08,-421.4C914.38,-418.13 830.56,-408.19 765.5,-378 745.73,-368.83 747.13,-356.46 727.5,-347 713.55,-340.28 628.39,-322.93 571.74,-311.84"/>
<polygon fill="midnightblue" stroke="midnightblue" points="572.35,-308.39 561.86,-309.92 571.01,-315.27 572.35,-308.39"/>
</g>
<!-- Node51 -->
<g id="node50" class="node">
<title>Node51</title>
<g id="a_node50"><a xlink:href="log_8h.html" target="_top" xlink:title=" ">
<polygon fill="none" stroke="black" points="940,-235.5 940,-254.5 1031,-254.5 1031,-235.5 940,-235.5"/>
<text text-anchor="middle" x="985.5" y="-242.5" font-family="Helvetica,sans-Serif" font-size="10.00">thorin/util/log.h</text>
</a>
</g>
</g>
<!-- Node8&#45;&gt;Node51 -->
<g id="edge74" class="edge">
<title>Node8&#45;&gt;Node51</title>
<path fill="none" stroke="midnightblue" d="M1005.49,-414.46C1002.28,-387.43 992.29,-303.24 987.77,-265.11"/>
<polygon fill="midnightblue" stroke="midnightblue" points="991.21,-264.39 986.55,-254.87 984.25,-265.21 991.21,-264.39"/>
</g>
<!-- Node14 -->
<g id="node14" class="node">
<title>Node14</title>
<g id="a_node14"><a xlink:href="lam_8h.html" target="_top" xlink:title=" ">
<polygon fill="none" stroke="black" points="765.5,-291.5 765.5,-310.5 841.5,-310.5 841.5,-291.5 765.5,-291.5"/>
<text text-anchor="middle" x="803.5" y="-298.5" font-family="Helvetica,sans-Serif" font-size="10.00">thorin/lam.h</text>
</a>
</g>
</g>
<!-- Node13&#45;&gt;Node14 -->
<g id="edge14" class="edge">
<title>Node13&#45;&gt;Node14</title>
<path fill="none" stroke="midnightblue" d="M853.19,-352.98C844.32,-343.87 830.05,-329.24 819.08,-317.98"/>
<polygon fill="midnightblue" stroke="midnightblue" points="821.28,-315.23 811.79,-310.51 816.27,-320.11 821.28,-315.23"/>
</g>
<!-- Node24 -->
<g id="node24" class="node">
<title>Node24</title>
<g id="a_node24"><a xlink:href="assert_8h.html" target="_top" xlink:title=" ">
<polygon fill="none" stroke="black" points="1017.5,-56.5 1017.5,-75.5 1123.5,-75.5 1123.5,-56.5 1017.5,-56.5"/>
<text text-anchor="middle" x="1070.5" y="-63.5" font-family="Helvetica,sans-Serif" font-size="10.00">thorin/util/assert.h</text>
</a>
</g>
</g>
<!-- Node13&#45;&gt;Node24 -->
<g id="edge61" class="edge">
<title>Node13&#45;&gt;Node24</title>
<path fill="none" stroke="midnightblue" d="M905.54,-354.62C995.45,-337.78 1196.81,-284.96 1258.5,-143 1263.99,-130.36 1267.03,-122.82 1258.5,-112 1250.36,-101.69 1181.86,-87.16 1129.88,-77.43"/>
<polygon fill="midnightblue" stroke="midnightblue" points="1130.19,-73.92 1119.72,-75.55 1128.92,-80.81 1130.19,-73.92"/>
</g>
<!-- Node15 -->
<g id="node15" class="node">
<title>Node15</title>
<g id="a_node15"><a xlink:title=" ">
<polygon fill="none" stroke="#bfbfbf" points="778,-235.5 778,-254.5 829,-254.5 829,-235.5 778,-235.5"/>
<text text-anchor="middle" x="803.5" y="-242.5" font-family="Helvetica,sans-Serif" font-size="10.00">variant</text>
</a>
</g>
</g>
<!-- Node14&#45;&gt;Node15 -->
<g id="edge15" class="edge">
<title>Node14&#45;&gt;Node15</title>
<path fill="none" stroke="midnightblue" d="M803.5,-291.08C803.5,-284.01 803.5,-273.86 803.5,-264.99"/>
<polygon fill="midnightblue" stroke="midnightblue" points="807,-264.75 803.5,-254.75 800,-264.75 807,-264.75"/>
</g>
<!-- Node16 -->
<g id="node16" class="node">
<title>Node16</title>
<g id="a_node16"><a xlink:href="def_8h.html" target="_top" xlink:title=" ">
<polygon fill="none" stroke="black" points="587.5,-235.5 587.5,-254.5 659.5,-254.5 659.5,-235.5 587.5,-235.5"/>
<text text-anchor="middle" x="623.5" y="-242.5" font-family="Helvetica,sans-Serif" font-size="10.00">thorin/def.h</text>
</a>
</g>
</g>
<!-- Node14&#45;&gt;Node16 -->
<g id="edge16" class="edge">
<title>Node14&#45;&gt;Node16</title>
<path fill="none" stroke="midnightblue" d="M774.98,-291.44C744.43,-282.28 695.79,-267.69 661.9,-257.52"/>
<polygon fill="midnightblue" stroke="midnightblue" points="662.47,-254.04 651.89,-254.52 660.46,-260.74 662.47,-254.04"/>
</g>
<!-- Node16&#45;&gt;Node4 -->
<g id="edge19" class="edge">
<title>Node16&#45;&gt;Node4</title>
<path fill="none" stroke="midnightblue" d="M659.75,-237.81C715.22,-228.33 821.51,-210.16 885.9,-199.16"/>
<polygon fill="midnightblue" stroke="midnightblue" points="886.6,-202.59 895.86,-197.46 885.42,-195.69 886.6,-202.59"/>
</g>
<!-- Node17 -->
<g id="node17" class="node">
<title>Node17</title>
<g id="a_node17"><a xlink:title=" ">
<polygon fill="none" stroke="#bfbfbf" points="488.5,-179.5 488.5,-198.5 544.5,-198.5 544.5,-179.5 488.5,-179.5"/>
<text text-anchor="middle" x="516.5" y="-186.5" font-family="Helvetica,sans-Serif" font-size="10.00">optional</text>
</a>
</g>
</g>
<!-- Node16&#45;&gt;Node17 -->
<g id="edge17" class="edge">
<title>Node16&#45;&gt;Node17</title>
<path fill="none" stroke="midnightblue" d="M606.31,-235.32C589.15,-226.66 562.55,-213.24 542.75,-203.25"/>
<polygon fill="midnightblue" stroke="midnightblue" points="544.15,-200.04 533.65,-198.65 541,-206.28 544.15,-200.04"/>
</g>
<!-- Node18 -->
<g id="node18" class="node">
<title>Node18</title>
<g id="a_node18"><a xlink:title=" ">
<polygon fill="none" stroke="#bfbfbf" points="0,-56.5 0,-75.5 47,-75.5 47,-56.5 0,-56.5"/>
<text text-anchor="middle" x="23.5" y="-63.5" font-family="Helvetica,sans-Serif" font-size="10.00">vector</text>
</a>
</g>
</g>
<!-- Node16&#45;&gt;Node18 -->
<g id="edge18" class="edge">
<title>Node16&#45;&gt;Node18</title>
<path fill="none" stroke="midnightblue" d="M587.44,-242.56C502.57,-237.95 285.18,-219.03 123.5,-143 90.5,-127.48 57.93,-99.8 39.32,-82.47"/>
<polygon fill="midnightblue" stroke="midnightblue" points="41.68,-79.89 32.02,-75.53 36.86,-84.96 41.68,-79.89"/>
</g>
<!-- Node19 -->
<g id="node19" class="node">
<title>Node19</title>
<g id="a_node19"><a xlink:href="tables_8h.html" target="_top" xlink:title=" ">
<polygon fill="none" stroke="black" points="743,-179.5 743,-198.5 830,-198.5 830,-179.5 743,-179.5"/>
<text text-anchor="middle" x="786.5" y="-186.5" font-family="Helvetica,sans-Serif" font-size="10.00">thorin/tables.h</text>
</a>
</g>
</g>
<!-- Node16&#45;&gt;Node19 -->
<g id="edge20" class="edge">
<title>Node16&#45;&gt;Node19</title>
<path fill="none" stroke="midnightblue" d="M649.33,-235.44C676.75,-226.36 720.28,-211.94 750.93,-201.78"/>
<polygon fill="midnightblue" stroke="midnightblue" points="752.4,-204.98 760.79,-198.52 750.2,-198.34 752.4,-204.98"/>
</g>
<!-- Node20 -->
<g id="node20" class="node">
<title>Node20</title>
<g id="a_node20"><a xlink:href="print_8h.html" target="_top" xlink:title=" ">
<polygon fill="none" stroke="black" points="1021.5,-118 1021.5,-137 1119.5,-137 1119.5,-118 1021.5,-118"/>
<text text-anchor="middle" x="1070.5" y="-125" font-family="Helvetica,sans-Serif" font-size="10.00">thorin/util/print.h</text>
</a>
</g>
</g>
<!-- Node16&#45;&gt;Node20 -->
<g id="edge60" class="edge">
<title>Node16&#45;&gt;Node20</title>
<path fill="none" stroke="midnightblue" d="M659.79,-238.55C702.96,-231.58 776.94,-218.08 838.5,-199 860.58,-192.16 864.65,-186.52 886.5,-179 912.42,-170.08 981.71,-151.59 1027.48,-139.63"/>
<polygon fill="midnightblue" stroke="midnightblue" points="1028.64,-142.95 1037.43,-137.04 1026.87,-136.17 1028.64,-142.95"/>
</g>
<!-- Node32 -->
<g id="node32" class="node">
<title>Node32</title>
<g id="a_node32"><a xlink:href="array_8h.html" target="_top" xlink:title=" ">
<polygon fill="none" stroke="black" points="132.5,-118 132.5,-137 232.5,-137 232.5,-118 132.5,-118"/>
<text text-anchor="middle" x="182.5" y="-125" font-family="Helvetica,sans-Serif" font-size="10.00">thorin/util/array.h</text>
</a>
</g>
</g>
<!-- Node16&#45;&gt;Node32 -->
<g id="edge37" class="edge">
<title>Node16&#45;&gt;Node32</title>
<path fill="none" stroke="midnightblue" d="M587.21,-235.66C549.47,-226.89 488.71,-212.52 436.5,-199 360.24,-179.25 271.69,-154.18 221.86,-139.88"/>
<polygon fill="midnightblue" stroke="midnightblue" points="222.71,-136.48 212.13,-137.08 220.77,-143.21 222.71,-136.48"/>
</g>
<!-- Node39 -->
<g id="node39" class="node">
<title>Node39</title>
<g id="a_node39"><a xlink:href="cast_8h.html" target="_top" xlink:title=" ">
<polygon fill="none" stroke="black" points="663.5,-118 663.5,-137 759.5,-137 759.5,-118 663.5,-118"/>
<text text-anchor="middle" x="711.5" y="-125" font-family="Helvetica,sans-Serif" font-size="10.00">thorin/util/cast.h</text>
</a>
</g>
</g>
<!-- Node16&#45;&gt;Node39 -->
<g id="edge48" class="edge">
<title>Node16&#45;&gt;Node39</title>
<path fill="none" stroke="midnightblue" d="M644.29,-235.42C659.8,-227.99 680.32,-215.78 692.5,-199 703.54,-183.8 708.17,-162.57 710.1,-147.38"/>
<polygon fill="midnightblue" stroke="midnightblue" points="713.61,-147.45 711.12,-137.15 706.65,-146.76 713.61,-147.45"/>
</g>
<!-- Node40 -->
<g id="node40" class="node">
<title>Node40</title>
<g id="a_node40"><a xlink:href="container_8h.html" target="_top" xlink:title=" ">
<polygon fill="none" stroke="red" points="563,-179.5 563,-198.5 684,-198.5 684,-179.5 563,-179.5"/>
<text text-anchor="middle" x="623.5" y="-186.5" font-family="Helvetica,sans-Serif" font-size="10.00">thorin/util/container.h</text>
</a>
</g>
</g>
<!-- Node16&#45;&gt;Node40 -->
<g id="edge51" class="edge">
<title>Node16&#45;&gt;Node40</title>
<path fill="none" stroke="midnightblue" d="M623.5,-235.08C623.5,-228.01 623.5,-217.86 623.5,-208.99"/>
<polygon fill="midnightblue" stroke="midnightblue" points="627,-208.75 623.5,-198.75 620,-208.75 627,-208.75"/>
</g>
<!-- Node16&#45;&gt;Node45 -->
<g id="edge59" class="edge">
<title>Node16&#45;&gt;Node45</title>
<path fill="none" stroke="midnightblue" d="M591.91,-235.43C562.46,-227.14 517.49,-213.69 479.5,-199 459.84,-191.4 455.95,-187.12 436.5,-179 402.34,-164.74 362.59,-150.21 334.91,-140.42"/>
<polygon fill="midnightblue" stroke="midnightblue" points="335.89,-137.06 325.3,-137.04 333.57,-143.66 335.89,-137.06"/>
</g>
<!-- Node19&#45;&gt;Node10 -->
<g id="edge21" class="edge">
<title>Node19&#45;&gt;Node10</title>
<path fill="none" stroke="midnightblue" d="M830.04,-182.84C895.1,-175 1021.48,-159.27 1128.5,-143 1140.62,-141.16 1153.68,-138.99 1165.82,-136.9"/>
<polygon fill="midnightblue" stroke="midnightblue" points="1166.5,-140.33 1175.75,-135.17 1165.3,-133.44 1166.5,-140.33"/>
</g>
<!-- Node19&#45;&gt;Node20 -->
<g id="edge22" class="edge">
<title>Node19&#45;&gt;Node20</title>
<path fill="none" stroke="midnightblue" d="M830.38,-179.91C876.01,-171.35 949.46,-157.15 1012.5,-143 1017.44,-141.89 1022.6,-140.68 1027.72,-139.44"/>
<polygon fill="midnightblue" stroke="midnightblue" points="1028.56,-142.84 1037.44,-137.06 1026.89,-136.04 1028.56,-142.84"/>
</g>
<!-- Node26 -->
<g id="node26" class="node">
<title>Node26</title>
<g id="a_node26"><a xlink:href="types_8h.html" target="_top" xlink:title=" ">
<polygon fill="none" stroke="black" points="516,-56.5 516,-75.5 619,-75.5 619,-56.5 516,-56.5"/>
<text text-anchor="middle" x="567.5" y="-63.5" font-family="Helvetica,sans-Serif" font-size="10.00">thorin/util/types.h</text>
</a>
</g>
</g>
<!-- Node19&#45;&gt;Node26 -->
<g id="edge30" class="edge">
<title>Node19&#45;&gt;Node26</title>
<path fill="none" stroke="midnightblue" d="M749.29,-179.47C721.9,-172.23 684.38,-160.24 654.5,-143 639.39,-134.28 604.66,-102.34 583.94,-82.74"/>
<polygon fill="midnightblue" stroke="midnightblue" points="586.17,-80.03 576.51,-75.68 581.34,-85.1 586.17,-80.03"/>
</g>
<!-- Node20&#45;&gt;Node5 -->
<g id="edge27" class="edge">
<title>Node20&#45;&gt;Node5</title>
<path fill="none" stroke="midnightblue" d="M1083.82,-117.98C1098.88,-108.34 1123.62,-92.52 1141.54,-81.05"/>
<polygon fill="midnightblue" stroke="midnightblue" points="1143.66,-83.85 1150.2,-75.51 1139.89,-77.95 1143.66,-83.85"/>
</g>
<!-- Node20&#45;&gt;Node9 -->
<g id="edge26" class="edge">
<title>Node20&#45;&gt;Node9</title>
<path fill="none" stroke="midnightblue" d="M1119.56,-118.41C1192.39,-106.41 1327.58,-84.13 1393.45,-73.27"/>
<polygon fill="midnightblue" stroke="midnightblue" points="1394.11,-76.71 1403.4,-71.63 1392.97,-69.8 1394.11,-76.71"/>
</g>
<!-- Node21 -->
<g id="node21" class="node">
<title>Node21</title>
<g id="a_node21"><a xlink:title=" ">
<polygon fill="none" stroke="#bfbfbf" points="939.5,-56.5 939.5,-75.5 999.5,-75.5 999.5,-56.5 939.5,-56.5"/>
<text text-anchor="middle" x="969.5" y="-63.5" font-family="Helvetica,sans-Serif" font-size="10.00">iostream</text>
</a>
</g>
</g>
<!-- Node20&#45;&gt;Node21 -->
<g id="edge23" class="edge">
<title>Node20&#45;&gt;Node21</title>
<path fill="none" stroke="midnightblue" d="M1056.03,-117.98C1039.53,-108.25 1012.32,-92.23 992.82,-80.74"/>
<polygon fill="midnightblue" stroke="midnightblue" points="994.34,-77.57 983.94,-75.51 990.78,-83.6 994.34,-77.57"/>
</g>
<!-- Node22 -->
<g id="node22" class="node">
<title>Node22</title>
<g id="a_node22"><a xlink:title=" ">
<polygon fill="none" stroke="#bfbfbf" points="736,-0.5 736,-19.5 793,-19.5 793,-0.5 736,-0.5"/>
<text text-anchor="middle" x="764.5" y="-7.5" font-family="Helvetica,sans-Serif" font-size="10.00">ostream</text>
</a>
</g>
</g>
<!-- Node20&#45;&gt;Node22 -->
<g id="edge24" class="edge">
<title>Node20&#45;&gt;Node22</title>
<path fill="none" stroke="midnightblue" d="M1046.15,-117.94C1018.16,-108.05 970.89,-91.19 930.5,-76 883.24,-58.23 828.81,-36.71 795.53,-23.44"/>
<polygon fill="midnightblue" stroke="midnightblue" points="796.5,-20.06 785.92,-19.6 793.91,-26.56 796.5,-20.06"/>
</g>
<!-- Node23 -->
<g id="node23" class="node">
<title>Node23</title>
<g id="a_node23"><a xlink:title=" ">
<polygon fill="none" stroke="#bfbfbf" points="754.5,-56.5 754.5,-75.5 804.5,-75.5 804.5,-56.5 754.5,-56.5"/>
<text text-anchor="middle" x="779.5" y="-63.5" font-family="Helvetica,sans-Serif" font-size="10.00">ranges</text>
</a>
</g>
</g>
<!-- Node20&#45;&gt;Node23 -->
<g id="edge25" class="edge">
<title>Node20&#45;&gt;Node23</title>
<path fill="none" stroke="midnightblue" d="M1037.75,-117.98C1029.53,-115.94 1020.71,-113.82 1012.5,-112 942.72,-96.55 860.51,-81.37 814.76,-73.2"/>
<polygon fill="midnightblue" stroke="midnightblue" points="815.22,-69.72 804.76,-71.42 813.99,-76.61 815.22,-69.72"/>
</g>
<!-- Node20&#45;&gt;Node24 -->
<g id="edge28" class="edge">
<title>Node20&#45;&gt;Node24</title>
<path fill="none" stroke="midnightblue" d="M1070.5,-117.98C1070.5,-109.58 1070.5,-96.48 1070.5,-85.66"/>
<polygon fill="midnightblue" stroke="midnightblue" points="1074,-85.51 1070.5,-75.51 1067,-85.51 1074,-85.51"/>
</g>
<!-- Node25 -->
<g id="node25" class="node">
<title>Node25</title>
<g id="a_node25"><a xlink:title=" ">
<polygon fill="none" stroke="#bfbfbf" points="811.5,-0.5 811.5,-19.5 863.5,-19.5 863.5,-0.5 811.5,-0.5"/>
<text text-anchor="middle" x="837.5" y="-7.5" font-family="Helvetica,sans-Serif" font-size="10.00">cassert</text>
</a>
</g>
</g>
<!-- Node24&#45;&gt;Node25 -->
<g id="edge29" class="edge">
<title>Node24&#45;&gt;Node25</title>
<path fill="none" stroke="midnightblue" d="M1033.58,-56.44C989.74,-46.28 917.11,-29.45 873.63,-19.37"/>
<polygon fill="midnightblue" stroke="midnightblue" points="874.29,-15.93 863.76,-17.09 872.71,-22.75 874.29,-15.93"/>
</g>
<!-- Node26&#45;&gt;Node22 -->
<g id="edge33" class="edge">
<title>Node26&#45;&gt;Node22</title>
<path fill="none" stroke="midnightblue" d="M598.72,-56.44C633.23,-46.98 688.85,-31.74 726.02,-21.55"/>
<polygon fill="midnightblue" stroke="midnightblue" points="727.27,-24.83 735.99,-18.82 725.42,-18.08 727.27,-24.83"/>
</g>
<!-- Node27 -->
<g id="node27" class="node">
<title>Node27</title>
<g id="a_node27"><a xlink:title=" ">
<polygon fill="none" stroke="#bfbfbf" points="605.5,-0.5 605.5,-19.5 655.5,-19.5 655.5,-0.5 605.5,-0.5"/>
<text text-anchor="middle" x="630.5" y="-7.5" font-family="Helvetica,sans-Serif" font-size="10.00">cstdint</text>
</a>
</g>
</g>
<!-- Node26&#45;&gt;Node27 -->
<g id="edge31" class="edge">
<title>Node26&#45;&gt;Node27</title>
<path fill="none" stroke="midnightblue" d="M577.62,-56.32C587.03,-48.26 601.24,-36.08 612.57,-26.37"/>
<polygon fill="midnightblue" stroke="midnightblue" points="614.88,-29 620.19,-19.83 610.32,-23.68 614.88,-29"/>
</g>
<!-- Node28 -->
<g id="node28" class="node">
<title>Node28</title>
<g id="a_node28"><a xlink:title=" ">
<polygon fill="none" stroke="#bfbfbf" points="673.5,-0.5 673.5,-19.5 717.5,-19.5 717.5,-0.5 673.5,-0.5"/>
<text text-anchor="middle" x="695.5" y="-7.5" font-family="Helvetica,sans-Serif" font-size="10.00">limits</text>
</a>
</g>
</g>
<!-- Node26&#45;&gt;Node28 -->
<g id="edge32" class="edge">
<title>Node26&#45;&gt;Node28</title>
<path fill="none" stroke="midnightblue" d="M587.78,-56.44C608.85,-47.56 642.02,-33.56 665.99,-23.45"/>
<polygon fill="midnightblue" stroke="midnightblue" points="667.46,-26.63 675.31,-19.52 664.74,-20.18 667.46,-26.63"/>
</g>
<!-- Node29 -->
<g id="node29" class="node">
<title>Node29</title>
<g id="a_node29"><a xlink:title=" ">
<polygon fill="none" stroke="#bfbfbf" points="379,-0.5 379,-19.5 448,-19.5 448,-0.5 379,-0.5"/>
<text text-anchor="middle" x="413.5" y="-7.5" font-family="Helvetica,sans-Serif" font-size="10.00">type_traits</text>
</a>
</g>
</g>
<!-- Node26&#45;&gt;Node29 -->
<g id="edge34" class="edge">
<title>Node26&#45;&gt;Node29</title>
<path fill="none" stroke="midnightblue" d="M543.1,-56.44C517.3,-47.4 476.42,-33.06 447.48,-22.92"/>
<polygon fill="midnightblue" stroke="midnightblue" points="448.38,-19.52 437.79,-19.52 446.07,-26.13 448.38,-19.52"/>
</g>
<!-- Node30 -->
<g id="node30" class="node">
<title>Node30</title>
<g id="a_node30"><a xlink:title=" ">
<polygon fill="none" stroke="#bfbfbf" points="466,-0.5 466,-19.5 513,-19.5 513,-0.5 466,-0.5"/>
<text text-anchor="middle" x="489.5" y="-7.5" font-family="Helvetica,sans-Serif" font-size="10.00">cmath</text>
</a>
</g>
</g>
<!-- Node26&#45;&gt;Node30 -->
<g id="edge35" class="edge">
<title>Node26&#45;&gt;Node30</title>
<path fill="none" stroke="midnightblue" d="M554.97,-56.32C542.91,-47.98 524.47,-35.21 510.23,-25.35"/>
<polygon fill="midnightblue" stroke="midnightblue" points="512.22,-22.47 502,-19.65 508.23,-28.22 512.22,-22.47"/>
</g>
<!-- Node31 -->
<g id="node31" class="node">
<title>Node31</title>
<g id="a_node31"><a xlink:title=" ">
<polygon fill="none" stroke="#bfbfbf" points="531.5,-0.5 531.5,-19.5 587.5,-19.5 587.5,-0.5 531.5,-0.5"/>
<text text-anchor="middle" x="559.5" y="-7.5" font-family="Helvetica,sans-Serif" font-size="10.00">half.hpp</text>
</a>
</g>
</g>
<!-- Node26&#45;&gt;Node31 -->
<g id="edge36" class="edge">
<title>Node26&#45;&gt;Node31</title>
<path fill="none" stroke="midnightblue" d="M566.18,-56.08C565.12,-48.93 563.59,-38.64 562.27,-29.69"/>
<polygon fill="midnightblue" stroke="midnightblue" points="565.72,-29.13 560.8,-19.75 558.8,-30.16 565.72,-29.13"/>
</g>
<!-- Node32&#45;&gt;Node18 -->
<g id="edge47" class="edge">
<title>Node32&#45;&gt;Node18</title>
<path fill="none" stroke="midnightblue" d="M159.72,-117.98C132.45,-107.77 86.59,-90.61 55.7,-79.05"/>
<polygon fill="midnightblue" stroke="midnightblue" points="56.83,-75.74 46.24,-75.51 54.38,-82.29 56.83,-75.74"/>
</g>
<!-- Node32&#45;&gt;Node23 -->
<g id="edge45" class="edge">
<title>Node32&#45;&gt;Node23</title>
<path fill="none" stroke="midnightblue" d="M212.92,-117.98C222.05,-115.71 232.12,-113.48 241.5,-112 462.46,-77.18 522.61,-111.26 743.5,-76 743.83,-75.95 744.17,-75.89 744.51,-75.84"/>
<polygon fill="midnightblue" stroke="midnightblue" points="745.32,-79.24 754.44,-73.86 743.95,-72.38 745.32,-79.24"/>
</g>
<!-- Node32&#45;&gt;Node25 -->
<g id="edge38" class="edge">
<title>Node32&#45;&gt;Node25</title>
<path fill="none" stroke="midnightblue" d="M213.55,-117.96C222.52,-115.74 232.35,-113.54 241.5,-112 411.4,-83.36 460.3,-117.61 627.5,-76 649.93,-70.42 653.66,-63.55 675.5,-56 698.71,-47.98 761.38,-31.06 801.62,-20.41"/>
<polygon fill="midnightblue" stroke="midnightblue" points="802.56,-23.78 811.33,-17.85 800.77,-17.02 802.56,-23.78"/>
</g>
<!-- Node32&#45;&gt;Node29 -->
<g id="edge46" class="edge">
<title>Node32&#45;&gt;Node29</title>
<path fill="none" stroke="midnightblue" d="M217.12,-117.94C225.12,-115.98 233.6,-113.91 241.5,-112 308.99,-95.72 342.82,-123.45 393.5,-76 406.15,-64.16 410.87,-44.53 412.59,-29.94"/>
<polygon fill="midnightblue" stroke="midnightblue" points="416.11,-29.8 413.43,-19.56 409.14,-29.24 416.11,-29.8"/>
</g>
<!-- Node33 -->
<g id="node33" class="node">
<title>Node33</title>
<g id="a_node33"><a xlink:title=" ">
<polygon fill="none" stroke="#bfbfbf" points="442,-56.5 442,-75.5 495,-75.5 495,-56.5 442,-56.5"/>
<text text-anchor="middle" x="468.5" y="-63.5" font-family="Helvetica,sans-Serif" font-size="10.00">cstddef</text>
</a>
</g>
</g>
<!-- Node32&#45;&gt;Node33 -->
<g id="edge39" class="edge">
<title>Node32&#45;&gt;Node33</title>
<path fill="none" stroke="midnightblue" d="M216.13,-117.93C224.41,-115.9 233.26,-113.81 241.5,-112 323.74,-93.95 345.04,-93.03 427.5,-76 428.78,-75.73 430.09,-75.46 431.41,-75.18"/>
<polygon fill="midnightblue" stroke="midnightblue" points="432.57,-78.52 441.61,-73 431.1,-71.67 432.57,-78.52"/>
</g>
<!-- Node34 -->
<g id="node34" class="node">
<title>Node34</title>
<g id="a_node34"><a xlink:title=" ">
<polygon fill="none" stroke="#bfbfbf" points="684.5,-56.5 684.5,-75.5 734.5,-75.5 734.5,-56.5 684.5,-56.5"/>
<text text-anchor="middle" x="709.5" y="-63.5" font-family="Helvetica,sans-Serif" font-size="10.00">cstring</text>
</a>
</g>
</g>
<!-- Node32&#45;&gt;Node34 -->
<g id="edge40" class="edge">
<title>Node32&#45;&gt;Node34</title>
<path fill="none" stroke="midnightblue" d="M213.24,-117.98C222.28,-115.74 232.24,-113.52 241.5,-112 429,-81.23 479.56,-103.96 667.5,-76 669.72,-75.67 671.99,-75.29 674.28,-74.89"/>
<polygon fill="midnightblue" stroke="midnightblue" points="675.13,-78.29 684.28,-72.95 673.79,-71.42 675.13,-78.29"/>
</g>
<!-- Node35 -->
<g id="node35" class="node">
<title>Node35</title>
<g id="a_node35"><a xlink:title=" ">
<polygon fill="none" stroke="#bfbfbf" points="65.5,-56.5 65.5,-75.5 129.5,-75.5 129.5,-56.5 65.5,-56.5"/>
<text text-anchor="middle" x="97.5" y="-63.5" font-family="Helvetica,sans-Serif" font-size="10.00">algorithm</text>
</a>
</g>
</g>
<!-- Node32&#45;&gt;Node35 -->
<g id="edge41" class="edge">
<title>Node32&#45;&gt;Node35</title>
<path fill="none" stroke="midnightblue" d="M170.32,-117.98C156.69,-108.43 134.37,-92.81 118.03,-81.37"/>
<polygon fill="midnightblue" stroke="midnightblue" points="119.86,-78.38 109.66,-75.51 115.84,-84.11 119.86,-78.38"/>
</g>
<!-- Node36 -->
<g id="node36" class="node">
<title>Node36</title>
<g id="a_node36"><a xlink:title=" ">
<polygon fill="none" stroke="#bfbfbf" points="148,-56.5 148,-75.5 213,-75.5 213,-56.5 148,-56.5"/>
<text text-anchor="middle" x="180.5" y="-63.5" font-family="Helvetica,sans-Serif" font-size="10.00">functional</text>
</a>
</g>
</g>
<!-- Node32&#45;&gt;Node36 -->
<g id="edge42" class="edge">
<title>Node32&#45;&gt;Node36</title>
<path fill="none" stroke="midnightblue" d="M182.21,-117.98C181.93,-109.58 181.49,-96.48 181.13,-85.66"/>
<polygon fill="midnightblue" stroke="midnightblue" points="184.62,-85.39 180.79,-75.51 177.62,-85.62 184.62,-85.39"/>
</g>
<!-- Node37 -->
<g id="node37" class="node">
<title>Node37</title>
<g id="a_node37"><a xlink:title=" ">
<polygon fill="none" stroke="#bfbfbf" points="231,-56.5 231,-75.5 314,-75.5 314,-56.5 231,-56.5"/>
<text text-anchor="middle" x="272.5" y="-63.5" font-family="Helvetica,sans-Serif" font-size="10.00">initializer_list</text>
</a>
</g>
</g>
<!-- Node32&#45;&gt;Node37 -->
<g id="edge43" class="edge">
<title>Node32&#45;&gt;Node37</title>
<path fill="none" stroke="midnightblue" d="M195.39,-117.98C209.96,-108.34 233.9,-92.52 251.25,-81.05"/>
<polygon fill="midnightblue" stroke="midnightblue" points="253.22,-83.94 259.63,-75.51 249.36,-78.1 253.22,-83.94"/>
</g>
<!-- Node38 -->
<g id="node38" class="node">
<title>Node38</title>
<g id="a_node38"><a xlink:title=" ">
<polygon fill="none" stroke="#bfbfbf" points="332,-56.5 332,-75.5 385,-75.5 385,-56.5 332,-56.5"/>
<text text-anchor="middle" x="358.5" y="-63.5" font-family="Helvetica,sans-Serif" font-size="10.00">iterator</text>
</a>
</g>
</g>
<!-- Node32&#45;&gt;Node38 -->
<g id="edge44" class="edge">
<title>Node32&#45;&gt;Node38</title>
<path fill="none" stroke="midnightblue" d="M207.72,-117.98C238.17,-107.68 289.55,-90.31 323.74,-78.75"/>
<polygon fill="midnightblue" stroke="midnightblue" points="324.98,-82.03 333.33,-75.51 322.74,-75.4 324.98,-82.03"/>
</g>
<!-- Node39&#45;&gt;Node25 -->
<g id="edge49" class="edge">
<title>Node39&#45;&gt;Node25</title>
<path fill="none" stroke="midnightblue" d="M742.53,-117.95C764.99,-110.31 794.61,-97.01 813.5,-76 825.18,-63.01 831.33,-43.85 834.47,-29.69"/>
<polygon fill="midnightblue" stroke="midnightblue" points="837.95,-30.11 836.38,-19.63 831.07,-28.8 837.95,-30.11"/>
</g>
<!-- Node39&#45;&gt;Node34 -->
<g id="edge50" class="edge">
<title>Node39&#45;&gt;Node34</title>
<path fill="none" stroke="midnightblue" d="M711.21,-117.98C710.93,-109.58 710.49,-96.48 710.13,-85.66"/>
<polygon fill="midnightblue" stroke="midnightblue" points="713.62,-85.39 709.79,-75.51 706.62,-85.62 713.62,-85.39"/>
</g>
<!-- Node40&#45;&gt;Node6 -->
<g id="edge54" class="edge">
<title>Node40&#45;&gt;Node6</title>
<path fill="none" stroke="midnightblue" d="M653.01,-179.48C683.65,-170.63 732.39,-156.55 770.89,-145.43"/>
<polygon fill="midnightblue" stroke="midnightblue" points="772.31,-148.66 780.95,-142.52 770.37,-141.94 772.31,-148.66"/>
</g>
<!-- Node40&#45;&gt;Node7 -->
<g id="edge55" class="edge">
<title>Node40&#45;&gt;Node7</title>
<path fill="none" stroke="midnightblue" d="M680.74,-179.48C732.72,-171.49 811.71,-158.71 889.35,-143.16"/>
<polygon fill="midnightblue" stroke="midnightblue" points="890.2,-146.56 899.31,-141.15 888.81,-139.7 890.2,-146.56"/>
</g>
<!-- Node41 -->
<g id="node41" class="node">
<title>Node41</title>
<g id="a_node41"><a xlink:title=" ">
<polygon fill="none" stroke="#bfbfbf" points="499,-118 499,-137 546,-137 546,-118 499,-118"/>
<text text-anchor="middle" x="522.5" y="-125" font-family="Helvetica,sans-Serif" font-size="10.00">queue</text>
</a>
</g>
</g>
<!-- Node40&#45;&gt;Node41 -->
<g id="edge52" class="edge">
<title>Node40&#45;&gt;Node41</title>
<path fill="none" stroke="midnightblue" d="M609.03,-179.48C592.53,-169.75 565.32,-153.73 545.82,-142.24"/>
<polygon fill="midnightblue" stroke="midnightblue" points="547.34,-139.07 536.94,-137.01 543.78,-145.1 547.34,-139.07"/>
</g>
<!-- Node42 -->
<g id="node42" class="node">
<title>Node42</title>
<g id="a_node42"><a xlink:title=" ">
<polygon fill="none" stroke="#bfbfbf" points="564,-118 564,-137 607,-137 607,-118 564,-118"/>
<text text-anchor="middle" x="585.5" y="-125" font-family="Helvetica,sans-Serif" font-size="10.00">stack</text>
</a>
</g>
</g>
<!-- Node40&#45;&gt;Node42 -->
<g id="edge53" class="edge">
<title>Node40&#45;&gt;Node42</title>
<path fill="none" stroke="midnightblue" d="M618.06,-179.48C612.41,-170.64 603.44,-156.59 596.34,-145.48"/>
<polygon fill="midnightblue" stroke="midnightblue" points="599.27,-143.55 590.93,-137.01 593.37,-147.32 599.27,-143.55"/>
</g>
<!-- Node43 -->
<g id="node43" class="node">
<title>Node43</title>
<g id="a_node43"><a xlink:title=" ">
<polygon fill="none" stroke="#bfbfbf" points="368,-112.5 368,-142.5 481,-142.5 481,-112.5 368,-112.5"/>
<text text-anchor="start" x="376" y="-130.5" font-family="Helvetica,sans-Serif" font-size="10.00">absl/container/node</text>
<text text-anchor="middle" x="424.5" y="-119.5" font-family="Helvetica,sans-Serif" font-size="10.00">_hash_map.h</text>
</a>
</g>
</g>
<!-- Node40&#45;&gt;Node43 -->
<g id="edge56" class="edge">
<title>Node40&#45;&gt;Node43</title>
<path fill="none" stroke="midnightblue" d="M594.99,-179.48C565.39,-170.63 518.31,-156.55 481.12,-145.43"/>
<polygon fill="midnightblue" stroke="midnightblue" points="481.98,-142.03 471.4,-142.52 479.98,-148.74 481.98,-142.03"/>
</g>
<!-- Node40&#45;&gt;Node45 -->
<g id="edge57" class="edge">
<title>Node40&#45;&gt;Node45</title>
<path fill="none" stroke="midnightblue" d="M565.62,-179.48C511.77,-171.25 429.41,-157.86 358.5,-143 353.42,-141.94 348.12,-140.74 342.87,-139.49"/>
<polygon fill="midnightblue" stroke="midnightblue" points="343.46,-136.03 332.91,-137.07 341.8,-142.83 343.46,-136.03"/>
</g>
<!-- Node45&#45;&gt;Node26 -->
<g id="edge58" class="edge">
<title>Node45&#45;&gt;Node26</title>
<path fill="none" stroke="midnightblue" d="M333.89,-117.95C341.93,-115.95 350.51,-113.86 358.5,-112 412.05,-99.55 473.6,-86.44 515.97,-77.6"/>
<polygon fill="midnightblue" stroke="midnightblue" points="516.7,-81.03 525.77,-75.56 515.27,-74.17 516.7,-81.03"/>
</g>
<!-- Node47&#45;&gt;Node4 -->
<g id="edge67" class="edge">
<title>Node47&#45;&gt;Node4</title>
<path fill="none" stroke="midnightblue" d="M1065.73,-235.44C1040.61,-226.4 1000.79,-212.06 972.6,-201.92"/>
<polygon fill="midnightblue" stroke="midnightblue" points="973.75,-198.61 963.16,-198.52 971.38,-205.2 973.75,-198.61"/>
</g>
<!-- Node47&#45;&gt;Node9 -->
<g id="edge65" class="edge">
<title>Node47&#45;&gt;Node9</title>
<path fill="none" stroke="midnightblue" d="M1106,-235.46C1161.06,-206.96 1338.85,-114.95 1405.73,-80.34"/>
<polygon fill="midnightblue" stroke="midnightblue" points="1407.5,-83.36 1414.77,-75.66 1404.28,-77.15 1407.5,-83.36"/>
</g>
<!-- Node47&#45;&gt;Node20 -->
<g id="edge68" class="edge">
<title>Node47&#45;&gt;Node20</title>
<path fill="none" stroke="midnightblue" d="M1088.07,-235.32C1085.02,-216.76 1077.79,-172.84 1073.62,-147.47"/>
<polygon fill="midnightblue" stroke="midnightblue" points="1077.02,-146.58 1071.94,-137.28 1070.11,-147.72 1077.02,-146.58"/>
</g>
<!-- Node48 -->
<g id="node47" class="node">
<title>Node48</title>
<g id="a_node47"><a xlink:title=" ">
<polygon fill="none" stroke="#bfbfbf" points="1099,-179.5 1099,-198.5 1164,-198.5 1164,-179.5 1099,-179.5"/>
<text text-anchor="middle" x="1131.5" y="-186.5" font-family="Helvetica,sans-Serif" font-size="10.00">stdexcept</text>
</a>
</g>
</g>
<!-- Node47&#45;&gt;Node48 -->
<g id="edge66" class="edge">
<title>Node47&#45;&gt;Node48</title>
<path fill="none" stroke="midnightblue" d="M1096.44,-235.08C1102.43,-227.38 1111.25,-216.03 1118.55,-206.65"/>
<polygon fill="midnightblue" stroke="midnightblue" points="1121.32,-208.79 1124.69,-198.75 1115.79,-204.5 1121.32,-208.79"/>
</g>
<!-- Node49&#45;&gt;Node16 -->
<g id="edge70" class="edge">
<title>Node49&#45;&gt;Node16</title>
<path fill="none" stroke="midnightblue" d="M623.5,-291.08C623.5,-284.01 623.5,-273.86 623.5,-264.99"/>
<polygon fill="midnightblue" stroke="midnightblue" points="627,-264.75 623.5,-254.75 620,-264.75 627,-264.75"/>
</g>
<!-- Node50&#45;&gt;Node16 -->
<g id="edge72" class="edge">
<title>Node50&#45;&gt;Node16</title>
<path fill="none" stroke="midnightblue" d="M537.05,-291.32C553.49,-282.7 578.93,-269.36 597.97,-259.39"/>
<polygon fill="midnightblue" stroke="midnightblue" points="599.76,-262.4 606.99,-254.65 596.51,-256.2 599.76,-262.4"/>
</g>
<!-- Node51&#45;&gt;Node4 -->
<g id="edge75" class="edge">
<title>Node51&#45;&gt;Node4</title>
<path fill="none" stroke="midnightblue" d="M977.9,-235.08C971.27,-227.3 961.48,-215.8 953.44,-206.37"/>
<polygon fill="midnightblue" stroke="midnightblue" points="956.1,-204.09 946.95,-198.75 950.77,-208.63 956.1,-204.09"/>
</g>
<!-- Node51&#45;&gt;Node20 -->
<g id="edge76" class="edge">
<title>Node51&#45;&gt;Node20</title>
<path fill="none" stroke="midnightblue" d="M991.89,-235.32C1005.92,-216.26 1039.63,-170.45 1058.02,-145.46"/>
<polygon fill="midnightblue" stroke="midnightblue" points="1060.93,-147.41 1064.04,-137.28 1055.29,-143.26 1060.93,-147.41"/>
</g>
</g>
</svg>
