<?xml version="1.0" encoding="UTF-8" standalone="no"?>
<!DOCTYPE svg PUBLIC "-//W3C//DTD SVG 1.1//EN"
 "http://www.w3.org/Graphics/SVG/1.1/DTD/svg11.dtd">
<!-- Generated by graphviz version 2.43.0 (0)
 -->
<!-- Title: thorin/be/h/bootstrapper.cpp Pages: 1 -->
<svg width="1995pt" height="431pt"
 viewBox="0.00 0.00 1994.50 431.00" xmlns="http://www.w3.org/2000/svg" xmlns:xlink="http://www.w3.org/1999/xlink">
<g id="graph0" class="graph" transform="scale(1 1) rotate(0) translate(4 427)">
<title>thorin/be/h/bootstrapper.cpp</title>
<!-- Node1 -->
<g id="node1" class="node">
<title>Node1</title>
<g id="a_node1"><a xlink:title=" ">
<polygon fill="#bfbfbf" stroke="black" points="1505.5,-403.5 1505.5,-422.5 1659.5,-422.5 1659.5,-403.5 1505.5,-403.5"/>
<text text-anchor="middle" x="1582.5" y="-410.5" font-family="Helvetica,sans-Serif" font-size="10.00">thorin/be/h/bootstrapper.cpp</text>
</a>
</g>
</g>
<!-- Node2 -->
<g id="node2" class="node">
<title>Node2</title>
<g id="a_node2"><a xlink:href="bootstrapper_8h.html" target="_top" xlink:title=" ">
<polygon fill="none" stroke="black" points="1511,-235.5 1511,-254.5 1654,-254.5 1654,-235.5 1511,-235.5"/>
<text text-anchor="middle" x="1582.5" y="-242.5" font-family="Helvetica,sans-Serif" font-size="10.00">thorin/be/h/bootstrapper.h</text>
</a>
</g>
</g>
<!-- Node1&#45;&gt;Node2 -->
<g id="edge1" class="edge">
<title>Node1&#45;&gt;Node2</title>
<path fill="none" stroke="midnightblue" d="M1582.5,-403.08C1582.5,-376.95 1582.5,-300.21 1582.5,-264.58"/>
<polygon fill="midnightblue" stroke="midnightblue" points="1586,-264.57 1582.5,-254.57 1579,-264.57 1586,-264.57"/>
</g>
<!-- Node10 -->
<g id="node10" class="node">
<title>Node10</title>
<g id="a_node10"><a xlink:title=" ">
<polygon fill="none" stroke="#bfbfbf" points="1162.5,-118 1162.5,-137 1212.5,-137 1212.5,-118 1162.5,-118"/>
<text text-anchor="middle" x="1187.5" y="-125" font-family="Helvetica,sans-Serif" font-size="10.00">ranges</text>
</a>
</g>
</g>
<!-- Node1&#45;&gt;Node10 -->
<g id="edge23" class="edge">
<title>Node1&#45;&gt;Node10</title>
<path fill="none" stroke="midnightblue" d="M1563.24,-403.39C1508.02,-378.07 1346.23,-299.25 1238.5,-199 1221.63,-183.3 1206.75,-161.27 1197.48,-146.03"/>
<polygon fill="midnightblue" stroke="midnightblue" points="1200.33,-143.97 1192.24,-137.14 1194.3,-147.53 1200.33,-143.97"/>
</g>
<!-- Node11 -->
<g id="node11" class="node">
<title>Node11</title>
<g id="a_node11"><a xlink:title=" ">
<polygon fill="none" stroke="#bfbfbf" points="1920.5,-118 1920.5,-137 1976.5,-137 1976.5,-118 1920.5,-118"/>
<text text-anchor="middle" x="1948.5" y="-125" font-family="Helvetica,sans-Serif" font-size="10.00">sstream</text>
</a>
</g>
</g>
<!-- Node1&#45;&gt;Node11 -->
<g id="edge24" class="edge">
<title>Node1&#45;&gt;Node11</title>
<path fill="none" stroke="midnightblue" d="M1659.92,-406.7C1777.23,-396.52 1986.5,-368.97 1986.5,-302 1986.5,-302 1986.5,-302 1986.5,-244 1986.5,-207.75 1969.41,-168.17 1958.15,-146.03"/>
<polygon fill="midnightblue" stroke="midnightblue" points="1961.23,-144.37 1953.47,-137.16 1955.04,-147.64 1961.23,-144.37"/>
</g>
<!-- Node21 -->
<g id="node21" class="node">
<title>Node21</title>
<g id="a_node21"><a xlink:href="axiom_8h.html" target="_top" xlink:title=" ">
<polygon fill="none" stroke="black" points="1285.5,-347.5 1285.5,-366.5 1373.5,-366.5 1373.5,-347.5 1285.5,-347.5"/>
<text text-anchor="middle" x="1329.5" y="-354.5" font-family="Helvetica,sans-Serif" font-size="10.00">thorin/axiom.h</text>
</a>
</g>
</g>
<!-- Node1&#45;&gt;Node21 -->
<g id="edge25" class="edge">
<title>Node1&#45;&gt;Node21</title>
<path fill="none" stroke="midnightblue" d="M1542.41,-403.44C1498.18,-394 1426.96,-378.8 1379.22,-368.61"/>
<polygon fill="midnightblue" stroke="midnightblue" points="1379.91,-365.18 1369.4,-366.52 1378.45,-372.03 1379.91,-365.18"/>
</g>
<!-- Node42 -->
<g id="node42" class="node">
<title>Node42</title>
<g id="a_node42"><a xlink:href="error_8h.html" target="_top" xlink:title=" ">
<polygon fill="none" stroke="black" points="1710.5,-235.5 1710.5,-254.5 1790.5,-254.5 1790.5,-235.5 1710.5,-235.5"/>
<text text-anchor="middle" x="1750.5" y="-242.5" font-family="Helvetica,sans-Serif" font-size="10.00">thorin/error.h</text>
</a>
</g>
</g>
<!-- Node1&#45;&gt;Node42 -->
<g id="edge61" class="edge">
<title>Node1&#45;&gt;Node42</title>
<path fill="none" stroke="midnightblue" d="M1591.53,-403.08C1618.66,-376.27 1699.71,-296.19 1734.42,-261.89"/>
<polygon fill="midnightblue" stroke="midnightblue" points="1737.18,-264.09 1741.83,-254.57 1732.26,-259.11 1737.18,-264.09"/>
</g>
<!-- Node3 -->
<g id="node3" class="node">
<title>Node3</title>
<g id="a_node3"><a xlink:title=" ">
<polygon fill="none" stroke="#bfbfbf" points="1559,-179.5 1559,-198.5 1606,-198.5 1606,-179.5 1559,-179.5"/>
<text text-anchor="middle" x="1582.5" y="-186.5" font-family="Helvetica,sans-Serif" font-size="10.00">deque</text>
</a>
</g>
</g>
<!-- Node2&#45;&gt;Node3 -->
<g id="edge2" class="edge">
<title>Node2&#45;&gt;Node3</title>
<path fill="none" stroke="midnightblue" d="M1582.5,-235.08C1582.5,-228.01 1582.5,-217.86 1582.5,-208.99"/>
<polygon fill="midnightblue" stroke="midnightblue" points="1586,-208.75 1582.5,-198.75 1579,-208.75 1586,-208.75"/>
</g>
<!-- Node4 -->
<g id="node4" class="node">
<title>Node4</title>
<g id="a_node4"><a xlink:title=" ">
<polygon fill="none" stroke="#bfbfbf" points="1796,-0.5 1796,-19.5 1853,-19.5 1853,-0.5 1796,-0.5"/>
<text text-anchor="middle" x="1824.5" y="-7.5" font-family="Helvetica,sans-Serif" font-size="10.00">ostream</text>
</a>
</g>
</g>
<!-- Node2&#45;&gt;Node4 -->
<g id="edge3" class="edge">
<title>Node2&#45;&gt;Node4</title>
<path fill="none" stroke="midnightblue" d="M1653.9,-235.46C1685.26,-229.12 1721.28,-218.11 1749.5,-199 1802.32,-163.23 1808.93,-138.11 1823.5,-76 1827.09,-60.7 1827.07,-42.82 1826.31,-29.69"/>
<polygon fill="midnightblue" stroke="midnightblue" points="1829.78,-29.25 1825.51,-19.56 1822.8,-29.8 1829.78,-29.25"/>
</g>
<!-- Node5 -->
<g id="node5" class="node">
<title>Node5</title>
<g id="a_node5"><a xlink:title=" ">
<polygon fill="none" stroke="#bfbfbf" points="1714.5,-118 1714.5,-137 1758.5,-137 1758.5,-118 1714.5,-118"/>
<text text-anchor="middle" x="1736.5" y="-125" font-family="Helvetica,sans-Serif" font-size="10.00">string</text>
</a>
</g>
</g>
<!-- Node2&#45;&gt;Node5 -->
<g id="edge4" class="edge">
<title>Node2&#45;&gt;Node5</title>
<path fill="none" stroke="midnightblue" d="M1654.12,-239.52C1682.55,-233.9 1712.86,-222.33 1731.5,-199 1742.96,-184.65 1742.73,-162.98 1740.56,-147.46"/>
<polygon fill="midnightblue" stroke="midnightblue" points="1743.98,-146.66 1738.78,-137.43 1737.08,-147.89 1743.98,-146.66"/>
</g>
<!-- Node6 -->
<g id="node6" class="node">
<title>Node6</title>
<g id="a_node6"><a xlink:title=" ">
<polygon fill="none" stroke="#bfbfbf" points="1468,-179.5 1468,-198.5 1541,-198.5 1541,-179.5 1468,-179.5"/>
<text text-anchor="middle" x="1504.5" y="-186.5" font-family="Helvetica,sans-Serif" font-size="10.00">string_view</text>
</a>
</g>
</g>
<!-- Node2&#45;&gt;Node6 -->
<g id="edge5" class="edge">
<title>Node2&#45;&gt;Node6</title>
<path fill="none" stroke="midnightblue" d="M1569.97,-235.32C1557.91,-226.98 1539.47,-214.21 1525.23,-204.35"/>
<polygon fill="midnightblue" stroke="midnightblue" points="1527.22,-201.47 1517,-198.65 1523.23,-207.22 1527.22,-201.47"/>
</g>
<!-- Node7 -->
<g id="node7" class="node">
<title>Node7</title>
<g id="a_node7"><a xlink:href="print_8h.html" target="_top" xlink:title=" ">
<polygon fill="none" stroke="black" points="1624.5,-179.5 1624.5,-198.5 1722.5,-198.5 1722.5,-179.5 1624.5,-179.5"/>
<text text-anchor="middle" x="1673.5" y="-186.5" font-family="Helvetica,sans-Serif" font-size="10.00">thorin/util/print.h</text>
</a>
</g>
</g>
<!-- Node2&#45;&gt;Node7 -->
<g id="edge6" class="edge">
<title>Node2&#45;&gt;Node7</title>
<path fill="none" stroke="midnightblue" d="M1597.12,-235.32C1611.45,-226.82 1633.51,-213.73 1650.25,-203.8"/>
<polygon fill="midnightblue" stroke="midnightblue" points="1652.1,-206.77 1658.92,-198.65 1648.53,-200.75 1652.1,-206.77"/>
</g>
<!-- Node14 -->
<g id="node14" class="node">
<title>Node14</title>
<g id="a_node14"><a xlink:href="types_8h.html" target="_top" xlink:title=" ">
<polygon fill="none" stroke="black" points="1557,-56.5 1557,-75.5 1660,-75.5 1660,-56.5 1557,-56.5"/>
<text text-anchor="middle" x="1608.5" y="-63.5" font-family="Helvetica,sans-Serif" font-size="10.00">thorin/util/types.h</text>
</a>
</g>
</g>
<!-- Node2&#45;&gt;Node14 -->
<g id="edge15" class="edge">
<title>Node2&#45;&gt;Node14</title>
<path fill="none" stroke="midnightblue" d="M1528.32,-235.44C1485.29,-226.24 1435.81,-208.77 1458.5,-179 1495.1,-130.98 1547.3,-186.19 1589.5,-143 1604.25,-127.9 1608.1,-103.18 1608.84,-86.05"/>
<polygon fill="midnightblue" stroke="midnightblue" points="1612.35,-85.66 1608.96,-75.62 1605.35,-85.58 1612.35,-85.66"/>
</g>
<!-- Node20 -->
<g id="node20" class="node">
<title>Node20</title>
<g id="a_node20"><a xlink:title=" ">
<polygon fill="none" stroke="#bfbfbf" points="1352.5,-112.5 1352.5,-142.5 1456.5,-142.5 1456.5,-112.5 1352.5,-112.5"/>
<text text-anchor="start" x="1360.5" y="-130.5" font-family="Helvetica,sans-Serif" font-size="10.00">absl/container/flat</text>
<text text-anchor="middle" x="1404.5" y="-119.5" font-family="Helvetica,sans-Serif" font-size="10.00">_hash_map.h</text>
</a>
</g>
</g>
<!-- Node2&#45;&gt;Node20 -->
<g id="edge22" class="edge">
<title>Node2&#45;&gt;Node20</title>
<path fill="none" stroke="midnightblue" d="M1510.78,-238.51C1480.94,-232.74 1448.07,-221.34 1425.5,-199 1413.3,-186.93 1408.12,-168.1 1405.96,-152.94"/>
<polygon fill="midnightblue" stroke="midnightblue" points="1409.4,-152.27 1404.85,-142.7 1402.44,-153.02 1409.4,-152.27"/>
</g>
<!-- Node7&#45;&gt;Node4 -->
<g id="edge9" class="edge">
<title>Node7&#45;&gt;Node4</title>
<path fill="none" stroke="midnightblue" d="M1704.41,-179.45C1724.6,-172.5 1750.32,-160.86 1767.5,-143 1798.98,-110.27 1814.51,-57.39 1820.85,-29.54"/>
<polygon fill="midnightblue" stroke="midnightblue" points="1824.32,-30.07 1822.97,-19.56 1817.47,-28.62 1824.32,-30.07"/>
</g>
<!-- Node7&#45;&gt;Node5 -->
<g id="edge12" class="edge">
<title>Node7&#45;&gt;Node5</title>
<path fill="none" stroke="midnightblue" d="M1682.53,-179.48C1692.26,-170.28 1707.96,-155.46 1719.92,-144.16"/>
<polygon fill="midnightblue" stroke="midnightblue" points="1722.62,-146.42 1727.49,-137.01 1717.82,-141.33 1722.62,-146.42"/>
</g>
<!-- Node8 -->
<g id="node8" class="node">
<title>Node8</title>
<g id="a_node8"><a xlink:title=" ">
<polygon fill="none" stroke="#bfbfbf" points="700,-118 700,-137 765,-137 765,-118 700,-118"/>
<text text-anchor="middle" x="732.5" y="-125" font-family="Helvetica,sans-Serif" font-size="10.00">functional</text>
</a>
</g>
</g>
<!-- Node7&#45;&gt;Node8 -->
<g id="edge7" class="edge">
<title>Node7&#45;&gt;Node8</title>
<path fill="none" stroke="midnightblue" d="M1624.29,-180.09C1620.98,-179.68 1617.7,-179.31 1614.5,-179 1242.14,-142.74 1140.79,-214.15 773.5,-143 769.98,-142.32 766.36,-141.39 762.8,-140.33"/>
<polygon fill="midnightblue" stroke="midnightblue" points="763.62,-136.92 753.02,-137.1 761.42,-143.57 763.62,-136.92"/>
</g>
<!-- Node9 -->
<g id="node9" class="node">
<title>Node9</title>
<g id="a_node9"><a xlink:title=" ">
<polygon fill="none" stroke="#bfbfbf" points="1636.5,-118 1636.5,-137 1696.5,-137 1696.5,-118 1636.5,-118"/>
<text text-anchor="middle" x="1666.5" y="-125" font-family="Helvetica,sans-Serif" font-size="10.00">iostream</text>
</a>
</g>
</g>
<!-- Node7&#45;&gt;Node9 -->
<g id="edge8" class="edge">
<title>Node7&#45;&gt;Node9</title>
<path fill="none" stroke="midnightblue" d="M1672.5,-179.48C1671.51,-171.08 1669.97,-157.98 1668.7,-147.16"/>
<polygon fill="midnightblue" stroke="midnightblue" points="1672.15,-146.53 1667.5,-137.01 1665.19,-147.35 1672.15,-146.53"/>
</g>
<!-- Node7&#45;&gt;Node10 -->
<g id="edge10" class="edge">
<title>Node7&#45;&gt;Node10</title>
<path fill="none" stroke="midnightblue" d="M1624.27,-180.27C1620.97,-179.82 1617.69,-179.39 1614.5,-179 1440.39,-157.77 1391.56,-185.92 1221.5,-143 1219.14,-142.4 1216.73,-141.67 1214.34,-140.84"/>
<polygon fill="midnightblue" stroke="midnightblue" points="1215.37,-137.49 1204.78,-137.1 1212.82,-144.01 1215.37,-137.49"/>
</g>
<!-- Node7&#45;&gt;Node11 -->
<g id="edge11" class="edge">
<title>Node7&#45;&gt;Node11</title>
<path fill="none" stroke="midnightblue" d="M1712.9,-179.48C1765.67,-168.06 1858.66,-147.94 1910.64,-136.69"/>
<polygon fill="midnightblue" stroke="midnightblue" points="1911.43,-140.1 1920.46,-134.57 1909.95,-133.26 1911.43,-140.1"/>
</g>
<!-- Node12 -->
<g id="node12" class="node">
<title>Node12</title>
<g id="a_node12"><a xlink:href="assert_8h.html" target="_top" xlink:title=" ">
<polygon fill="none" stroke="black" points="1474.5,-118 1474.5,-137 1580.5,-137 1580.5,-118 1474.5,-118"/>
<text text-anchor="middle" x="1527.5" y="-125" font-family="Helvetica,sans-Serif" font-size="10.00">thorin/util/assert.h</text>
</a>
</g>
</g>
<!-- Node7&#45;&gt;Node12 -->
<g id="edge13" class="edge">
<title>Node7&#45;&gt;Node12</title>
<path fill="none" stroke="midnightblue" d="M1652.58,-179.48C1627.75,-169.36 1586.16,-152.4 1557.81,-140.85"/>
<polygon fill="midnightblue" stroke="midnightblue" points="1558.96,-137.54 1548.38,-137.01 1556.32,-144.02 1558.96,-137.54"/>
</g>
<!-- Node13 -->
<g id="node13" class="node">
<title>Node13</title>
<g id="a_node13"><a xlink:title=" ">
<polygon fill="none" stroke="#bfbfbf" points="519.5,-56.5 519.5,-75.5 571.5,-75.5 571.5,-56.5 519.5,-56.5"/>
<text text-anchor="middle" x="545.5" y="-63.5" font-family="Helvetica,sans-Serif" font-size="10.00">cassert</text>
</a>
</g>
</g>
<!-- Node12&#45;&gt;Node13 -->
<g id="edge14" class="edge">
<title>Node12&#45;&gt;Node13</title>
<path fill="none" stroke="midnightblue" d="M1495.85,-117.93C1486.18,-115.63 1475.46,-113.4 1465.5,-112 1290.34,-87.44 730.93,-71.72 582.14,-67.91"/>
<polygon fill="midnightblue" stroke="midnightblue" points="581.84,-64.4 571.75,-67.64 581.66,-71.4 581.84,-64.4"/>
</g>
<!-- Node14&#45;&gt;Node4 -->
<g id="edge18" class="edge">
<title>Node14&#45;&gt;Node4</title>
<path fill="none" stroke="midnightblue" d="M1642.73,-56.44C1681.77,-46.68 1745.44,-30.76 1786.13,-20.59"/>
<polygon fill="midnightblue" stroke="midnightblue" points="1787.1,-23.96 1795.95,-18.14 1785.4,-17.17 1787.1,-23.96"/>
</g>
<!-- Node15 -->
<g id="node15" class="node">
<title>Node15</title>
<g id="a_node15"><a xlink:title=" ">
<polygon fill="none" stroke="#bfbfbf" points="1550.5,-0.5 1550.5,-19.5 1600.5,-19.5 1600.5,-0.5 1550.5,-0.5"/>
<text text-anchor="middle" x="1575.5" y="-7.5" font-family="Helvetica,sans-Serif" font-size="10.00">cstdint</text>
</a>
</g>
</g>
<!-- Node14&#45;&gt;Node15 -->
<g id="edge16" class="edge">
<title>Node14&#45;&gt;Node15</title>
<path fill="none" stroke="midnightblue" d="M1603.05,-56.08C1598.49,-48.61 1591.83,-37.72 1586.21,-28.52"/>
<polygon fill="midnightblue" stroke="midnightblue" points="1589.05,-26.46 1580.85,-19.75 1583.08,-30.11 1589.05,-26.46"/>
</g>
<!-- Node16 -->
<g id="node16" class="node">
<title>Node16</title>
<g id="a_node16"><a xlink:title=" ">
<polygon fill="none" stroke="#bfbfbf" points="1618.5,-0.5 1618.5,-19.5 1662.5,-19.5 1662.5,-0.5 1618.5,-0.5"/>
<text text-anchor="middle" x="1640.5" y="-7.5" font-family="Helvetica,sans-Serif" font-size="10.00">limits</text>
</a>
</g>
</g>
<!-- Node14&#45;&gt;Node16 -->
<g id="edge17" class="edge">
<title>Node14&#45;&gt;Node16</title>
<path fill="none" stroke="midnightblue" d="M1613.78,-56.08C1618.21,-48.61 1624.66,-37.72 1630.12,-28.52"/>
<polygon fill="midnightblue" stroke="midnightblue" points="1633.23,-30.14 1635.31,-19.75 1627.21,-26.57 1633.23,-30.14"/>
</g>
<!-- Node17 -->
<g id="node17" class="node">
<title>Node17</title>
<g id="a_node17"><a xlink:title=" ">
<polygon fill="none" stroke="#bfbfbf" points="734,-0.5 734,-19.5 803,-19.5 803,-0.5 734,-0.5"/>
<text text-anchor="middle" x="768.5" y="-7.5" font-family="Helvetica,sans-Serif" font-size="10.00">type_traits</text>
</a>
</g>
</g>
<!-- Node14&#45;&gt;Node17 -->
<g id="edge19" class="edge">
<title>Node14&#45;&gt;Node17</title>
<path fill="none" stroke="midnightblue" d="M1556.9,-61.68C1404.38,-51.88 957.3,-23.14 813.56,-13.9"/>
<polygon fill="midnightblue" stroke="midnightblue" points="813.55,-10.39 803.35,-13.24 813.1,-17.37 813.55,-10.39"/>
</g>
<!-- Node18 -->
<g id="node18" class="node">
<title>Node18</title>
<g id="a_node18"><a xlink:title=" ">
<polygon fill="none" stroke="#bfbfbf" points="1681,-0.5 1681,-19.5 1728,-19.5 1728,-0.5 1681,-0.5"/>
<text text-anchor="middle" x="1704.5" y="-7.5" font-family="Helvetica,sans-Serif" font-size="10.00">cmath</text>
</a>
</g>
</g>
<!-- Node14&#45;&gt;Node18 -->
<g id="edge20" class="edge">
<title>Node14&#45;&gt;Node18</title>
<path fill="none" stroke="midnightblue" d="M1623.92,-56.32C1639.04,-47.82 1662.32,-34.73 1679.97,-24.8"/>
<polygon fill="midnightblue" stroke="midnightblue" points="1682.11,-27.61 1689.11,-19.65 1678.68,-21.51 1682.11,-27.61"/>
</g>
<!-- Node19 -->
<g id="node19" class="node">
<title>Node19</title>
<g id="a_node19"><a xlink:title=" ">
<polygon fill="none" stroke="#bfbfbf" points="1476.5,-0.5 1476.5,-19.5 1532.5,-19.5 1532.5,-0.5 1476.5,-0.5"/>
<text text-anchor="middle" x="1504.5" y="-7.5" font-family="Helvetica,sans-Serif" font-size="10.00">half.hpp</text>
</a>
</g>
</g>
<!-- Node14&#45;&gt;Node19 -->
<g id="edge21" class="edge">
<title>Node14&#45;&gt;Node19</title>
<path fill="none" stroke="midnightblue" d="M1591.79,-56.32C1575.19,-47.7 1549.5,-34.36 1530.28,-24.39"/>
<polygon fill="midnightblue" stroke="midnightblue" points="1531.66,-21.16 1521.17,-19.65 1528.43,-27.37 1531.66,-21.16"/>
</g>
<!-- Node21&#45;&gt;Node12 -->
<g id="edge60" class="edge">
<title>Node21&#45;&gt;Node12</title>
<path fill="none" stroke="midnightblue" d="M1333.74,-347.38C1347.44,-320.12 1392.99,-234.32 1449.5,-179 1464.82,-164 1485.26,-150.96 1501.37,-141.89"/>
<polygon fill="midnightblue" stroke="midnightblue" points="1503.18,-144.89 1510.29,-137.03 1499.83,-138.75 1503.18,-144.89"/>
</g>
<!-- Node22 -->
<g id="node22" class="node">
<title>Node22</title>
<g id="a_node22"><a xlink:href="lam_8h.html" target="_top" xlink:title=" ">
<polygon fill="none" stroke="black" points="1097.5,-291.5 1097.5,-310.5 1173.5,-310.5 1173.5,-291.5 1097.5,-291.5"/>
<text text-anchor="middle" x="1135.5" y="-298.5" font-family="Helvetica,sans-Serif" font-size="10.00">thorin/lam.h</text>
</a>
</g>
</g>
<!-- Node21&#45;&gt;Node22 -->
<g id="edge26" class="edge">
<title>Node21&#45;&gt;Node22</title>
<path fill="none" stroke="midnightblue" d="M1298.76,-347.44C1265.56,-338.2 1212.51,-323.44 1175.94,-313.26"/>
<polygon fill="midnightblue" stroke="midnightblue" points="1176.67,-309.83 1166.1,-310.52 1174.79,-316.57 1176.67,-309.83"/>
</g>
<!-- Node23 -->
<g id="node23" class="node">
<title>Node23</title>
<g id="a_node23"><a xlink:title=" ">
<polygon fill="none" stroke="#bfbfbf" points="1110,-235.5 1110,-254.5 1161,-254.5 1161,-235.5 1110,-235.5"/>
<text text-anchor="middle" x="1135.5" y="-242.5" font-family="Helvetica,sans-Serif" font-size="10.00">variant</text>
</a>
</g>
</g>
<!-- Node22&#45;&gt;Node23 -->
<g id="edge27" class="edge">
<title>Node22&#45;&gt;Node23</title>
<path fill="none" stroke="midnightblue" d="M1135.5,-291.08C1135.5,-284.01 1135.5,-273.86 1135.5,-264.99"/>
<polygon fill="midnightblue" stroke="midnightblue" points="1139,-264.75 1135.5,-254.75 1132,-264.75 1139,-264.75"/>
</g>
<!-- Node24 -->
<g id="node24" class="node">
<title>Node24</title>
<g id="a_node24"><a xlink:href="def_8h.html" target="_top" xlink:title=" ">
<polygon fill="none" stroke="black" points="934.5,-235.5 934.5,-254.5 1006.5,-254.5 1006.5,-235.5 934.5,-235.5"/>
<text text-anchor="middle" x="970.5" y="-242.5" font-family="Helvetica,sans-Serif" font-size="10.00">thorin/def.h</text>
</a>
</g>
</g>
<!-- Node22&#45;&gt;Node24 -->
<g id="edge28" class="edge">
<title>Node22&#45;&gt;Node24</title>
<path fill="none" stroke="midnightblue" d="M1109.36,-291.44C1081.48,-282.32 1037.15,-267.81 1006.1,-257.65"/>
<polygon fill="midnightblue" stroke="midnightblue" points="1007.12,-254.3 996.52,-254.52 1004.94,-260.95 1007.12,-254.3"/>
</g>
<!-- Node24&#45;&gt;Node7 -->
<g id="edge59" class="edge">
<title>Node24&#45;&gt;Node7</title>
<path fill="none" stroke="midnightblue" d="M1006.95,-241.47C1132.56,-232.76 1543.15,-204.27 1614.25,-198.67"/>
<polygon fill="midnightblue" stroke="midnightblue" points="1614.62,-202.15 1624.28,-197.81 1614.02,-195.18 1614.62,-202.15"/>
</g>
<!-- Node25 -->
<g id="node25" class="node">
<title>Node25</title>
<g id="a_node25"><a xlink:title=" ">
<polygon fill="none" stroke="#bfbfbf" points="657.5,-179.5 657.5,-198.5 713.5,-198.5 713.5,-179.5 657.5,-179.5"/>
<text text-anchor="middle" x="685.5" y="-186.5" font-family="Helvetica,sans-Serif" font-size="10.00">optional</text>
</a>
</g>
</g>
<!-- Node24&#45;&gt;Node25 -->
<g id="edge29" class="edge">
<title>Node24&#45;&gt;Node25</title>
<path fill="none" stroke="midnightblue" d="M934.23,-238.11C887.69,-230.4 804.25,-216.07 723.57,-199.13"/>
<polygon fill="midnightblue" stroke="midnightblue" points="724.25,-195.7 713.74,-197.05 722.8,-202.55 724.25,-195.7"/>
</g>
<!-- Node26 -->
<g id="node26" class="node">
<title>Node26</title>
<g id="a_node26"><a xlink:title=" ">
<polygon fill="none" stroke="#bfbfbf" points="402,-118 402,-137 449,-137 449,-118 402,-118"/>
<text text-anchor="middle" x="425.5" y="-125" font-family="Helvetica,sans-Serif" font-size="10.00">vector</text>
</a>
</g>
</g>
<!-- Node24&#45;&gt;Node26 -->
<g id="edge30" class="edge">
<title>Node24&#45;&gt;Node26</title>
<path fill="none" stroke="midnightblue" d="M934.46,-240.72C874.6,-234.88 751.12,-221.17 648.5,-199 562.45,-180.41 541.19,-173.21 458.5,-143 456.84,-142.39 455.15,-141.75 453.45,-141.07"/>
<polygon fill="midnightblue" stroke="midnightblue" points="454.41,-137.68 443.83,-137.05 451.71,-144.14 454.41,-137.68"/>
</g>
<!-- Node27 -->
<g id="node27" class="node">
<title>Node27</title>
<g id="a_node27"><a xlink:href="debug_8h.html" target="_top" xlink:title=" ">
<polygon fill="none" stroke="black" points="1248,-179.5 1248,-198.5 1335,-198.5 1335,-179.5 1248,-179.5"/>
<text text-anchor="middle" x="1291.5" y="-186.5" font-family="Helvetica,sans-Serif" font-size="10.00">thorin/debug.h</text>
</a>
</g>
</g>
<!-- Node24&#45;&gt;Node27 -->
<g id="edge31" class="edge">
<title>Node24&#45;&gt;Node27</title>
<path fill="none" stroke="midnightblue" d="M1006.7,-237.91C1063.04,-228.43 1172.03,-210.1 1237.63,-199.06"/>
<polygon fill="midnightblue" stroke="midnightblue" points="1238.49,-202.47 1247.77,-197.36 1237.33,-195.56 1238.49,-202.47"/>
</g>
<!-- Node29 -->
<g id="node29" class="node">
<title>Node29</title>
<g id="a_node29"><a xlink:href="array_8h.html" target="_top" xlink:title=" ">
<polygon fill="none" stroke="black" points="307.5,-179.5 307.5,-198.5 407.5,-198.5 407.5,-179.5 307.5,-179.5"/>
<text text-anchor="middle" x="357.5" y="-186.5" font-family="Helvetica,sans-Serif" font-size="10.00">thorin/util/array.h</text>
</a>
</g>
</g>
<!-- Node24&#45;&gt;Node29 -->
<g id="edge35" class="edge">
<title>Node24&#45;&gt;Node29</title>
<path fill="none" stroke="midnightblue" d="M934.44,-240.82C832.97,-231.88 544.16,-206.44 417.86,-195.32"/>
<polygon fill="midnightblue" stroke="midnightblue" points="417.87,-191.8 407.6,-194.41 417.26,-198.78 417.87,-191.8"/>
</g>
<!-- Node35 -->
<g id="node35" class="node">
<title>Node35</title>
<g id="a_node35"><a xlink:href="cast_8h.html" target="_top" xlink:title=" ">
<polygon fill="none" stroke="black" points="731.5,-179.5 731.5,-198.5 827.5,-198.5 827.5,-179.5 731.5,-179.5"/>
<text text-anchor="middle" x="779.5" y="-186.5" font-family="Helvetica,sans-Serif" font-size="10.00">thorin/util/cast.h</text>
</a>
</g>
</g>
<!-- Node24&#45;&gt;Node35 -->
<g id="edge46" class="edge">
<title>Node24&#45;&gt;Node35</title>
<path fill="none" stroke="midnightblue" d="M940.24,-235.44C907.54,-226.2 855.32,-211.44 819.32,-201.26"/>
<polygon fill="midnightblue" stroke="midnightblue" points="820.2,-197.87 809.62,-198.52 818.29,-204.61 820.2,-197.87"/>
</g>
<!-- Node36 -->
<g id="node36" class="node">
<title>Node36</title>
<g id="a_node36"><a xlink:href="container_8h.html" target="_top" xlink:title=" ">
<polygon fill="none" stroke="black" points="910,-179.5 910,-198.5 1031,-198.5 1031,-179.5 910,-179.5"/>
<text text-anchor="middle" x="970.5" y="-186.5" font-family="Helvetica,sans-Serif" font-size="10.00">thorin/util/container.h</text>
</a>
</g>
</g>
<!-- Node24&#45;&gt;Node36 -->
<g id="edge49" class="edge">
<title>Node24&#45;&gt;Node36</title>
<path fill="none" stroke="midnightblue" d="M970.5,-235.08C970.5,-228.01 970.5,-217.86 970.5,-208.99"/>
<polygon fill="midnightblue" stroke="midnightblue" points="974,-208.75 970.5,-198.75 967,-208.75 974,-208.75"/>
</g>
<!-- Node41 -->
<g id="node41" class="node">
<title>Node41</title>
<g id="a_node41"><a xlink:href="hash_8h.html" target="_top" xlink:title=" ">
<polygon fill="none" stroke="black" points="1045,-118 1045,-137 1144,-137 1144,-118 1045,-118"/>
<text text-anchor="middle" x="1094.5" y="-125" font-family="Helvetica,sans-Serif" font-size="10.00">thorin/util/hash.h</text>
</a>
</g>
</g>
<!-- Node24&#45;&gt;Node41 -->
<g id="edge58" class="edge">
<title>Node24&#45;&gt;Node41</title>
<path fill="none" stroke="midnightblue" d="M986.91,-235.36C1001.61,-227.16 1023.28,-213.9 1039.5,-199 1057.11,-182.82 1073.44,-160.59 1083.65,-145.45"/>
<polygon fill="midnightblue" stroke="midnightblue" points="1086.61,-147.33 1089.18,-137.05 1080.76,-143.48 1086.61,-147.33"/>
</g>
<!-- Node27&#45;&gt;Node5 -->
<g id="edge32" class="edge">
<title>Node27&#45;&gt;Node5</title>
<path fill="none" stroke="midnightblue" d="M1335.01,-185.09C1426.61,-178.66 1636.57,-162.29 1705.5,-143 1707.43,-142.46 1709.39,-141.81 1711.34,-141.09"/>
<polygon fill="midnightblue" stroke="midnightblue" points="1712.96,-144.2 1720.8,-137.07 1710.22,-137.76 1712.96,-144.2"/>
</g>
<!-- Node27&#45;&gt;Node20 -->
<g id="edge33" class="edge">
<title>Node27&#45;&gt;Node20</title>
<path fill="none" stroke="midnightblue" d="M1307.69,-179.48C1323.57,-171.12 1348.3,-158.09 1368.8,-147.3"/>
<polygon fill="midnightblue" stroke="midnightblue" points="1370.65,-150.28 1377.87,-142.52 1367.39,-144.09 1370.65,-150.28"/>
</g>
<!-- Node28 -->
<g id="node28" class="node">
<title>Node28</title>
<g id="a_node28"><a xlink:title=" ">
<polygon fill="none" stroke="#bfbfbf" points="1230.5,-112.5 1230.5,-142.5 1334.5,-142.5 1334.5,-112.5 1230.5,-112.5"/>
<text text-anchor="start" x="1238.5" y="-130.5" font-family="Helvetica,sans-Serif" font-size="10.00">absl/container/flat</text>
<text text-anchor="middle" x="1282.5" y="-119.5" font-family="Helvetica,sans-Serif" font-size="10.00">_hash_set.h</text>
</a>
</g>
</g>
<!-- Node27&#45;&gt;Node28 -->
<g id="edge34" class="edge">
<title>Node27&#45;&gt;Node28</title>
<path fill="none" stroke="midnightblue" d="M1290.21,-179.48C1289.15,-172.47 1287.6,-162.19 1286.16,-152.7"/>
<polygon fill="midnightblue" stroke="midnightblue" points="1289.58,-151.89 1284.62,-142.52 1282.66,-152.93 1289.58,-151.89"/>
</g>
<!-- Node29&#45;&gt;Node8 -->
<g id="edge40" class="edge">
<title>Node29&#45;&gt;Node8</title>
<path fill="none" stroke="midnightblue" d="M407.71,-184.33C473.4,-178.83 591.74,-166.47 690.5,-143 693.91,-142.19 697.42,-141.21 700.91,-140.15"/>
<polygon fill="midnightblue" stroke="midnightblue" points="702.09,-143.45 710.51,-137.01 699.92,-136.79 702.09,-143.45"/>
</g>
<!-- Node29&#45;&gt;Node10 -->
<g id="edge43" class="edge">
<title>Node29&#45;&gt;Node10</title>
<path fill="none" stroke="midnightblue" d="M407.71,-186.14C570.93,-179.95 1080.23,-159.51 1152.5,-143 1155.17,-142.39 1157.9,-141.59 1160.6,-140.69"/>
<polygon fill="midnightblue" stroke="midnightblue" points="1161.98,-143.91 1170.07,-137.07 1159.48,-137.37 1161.98,-143.91"/>
</g>
<!-- Node29&#45;&gt;Node13 -->
<g id="edge36" class="edge">
<title>Node29&#45;&gt;Node13</title>
<path fill="none" stroke="midnightblue" d="M309.42,-179.45C258.87,-168.42 190.49,-146.46 220.5,-112 257.62,-69.39 432.44,-65.8 509.2,-66.34"/>
<polygon fill="midnightblue" stroke="midnightblue" points="509.32,-69.84 519.36,-66.44 509.39,-62.84 509.32,-69.84"/>
</g>
<!-- Node29&#45;&gt;Node17 -->
<g id="edge44" class="edge">
<title>Node29&#45;&gt;Node17</title>
<path fill="none" stroke="midnightblue" d="M307.48,-188.83C217.3,-188.68 42.02,-179.99 100.5,-112 181.66,-17.65 587.32,-10.32 723.7,-10.57"/>
<polygon fill="midnightblue" stroke="midnightblue" points="723.78,-14.07 733.8,-10.61 723.81,-7.07 723.78,-14.07"/>
</g>
<!-- Node29&#45;&gt;Node26 -->
<g id="edge45" class="edge">
<title>Node29&#45;&gt;Node26</title>
<path fill="none" stroke="midnightblue" d="M367.24,-179.48C377.85,-170.2 395.02,-155.17 407.98,-143.83"/>
<polygon fill="midnightblue" stroke="midnightblue" points="410.55,-146.23 415.78,-137.01 405.94,-140.96 410.55,-146.23"/>
</g>
<!-- Node30 -->
<g id="node30" class="node">
<title>Node30</title>
<g id="a_node30"><a xlink:title=" ">
<polygon fill="none" stroke="#bfbfbf" points="0,-118 0,-137 53,-137 53,-118 0,-118"/>
<text text-anchor="middle" x="26.5" y="-125" font-family="Helvetica,sans-Serif" font-size="10.00">cstddef</text>
</a>
</g>
</g>
<!-- Node29&#45;&gt;Node30 -->
<g id="edge37" class="edge">
<title>Node29&#45;&gt;Node30</title>
<path fill="none" stroke="midnightblue" d="M307.42,-183.09C249.16,-176.73 150.38,-163.89 67.5,-143 64.45,-142.23 61.31,-141.33 58.18,-140.36"/>
<polygon fill="midnightblue" stroke="midnightblue" points="58.99,-136.94 48.4,-137.09 56.78,-143.58 58.99,-136.94"/>
</g>
<!-- Node31 -->
<g id="node31" class="node">
<title>Node31</title>
<g id="a_node31"><a xlink:title=" ">
<polygon fill="none" stroke="#bfbfbf" points="467.5,-118 467.5,-137 517.5,-137 517.5,-118 467.5,-118"/>
<text text-anchor="middle" x="492.5" y="-125" font-family="Helvetica,sans-Serif" font-size="10.00">cstring</text>
</a>
</g>
</g>
<!-- Node29&#45;&gt;Node31 -->
<g id="edge38" class="edge">
<title>Node29&#45;&gt;Node31</title>
<path fill="none" stroke="midnightblue" d="M376.84,-179.48C399.6,-169.45 437.59,-152.7 463.79,-141.15"/>
<polygon fill="midnightblue" stroke="midnightblue" points="465.45,-144.24 473.19,-137.01 462.63,-137.84 465.45,-144.24"/>
</g>
<!-- Node32 -->
<g id="node32" class="node">
<title>Node32</title>
<g id="a_node32"><a xlink:title=" ">
<polygon fill="none" stroke="#bfbfbf" points="109.5,-118 109.5,-137 173.5,-137 173.5,-118 109.5,-118"/>
<text text-anchor="middle" x="141.5" y="-125" font-family="Helvetica,sans-Serif" font-size="10.00">algorithm</text>
</a>
</g>
</g>
<!-- Node29&#45;&gt;Node32 -->
<g id="edge39" class="edge">
<title>Node29&#45;&gt;Node32</title>
<path fill="none" stroke="midnightblue" d="M323.5,-179.5C289.09,-170.78 234.42,-156.6 187.5,-143 184.36,-142.09 181.11,-141.12 177.86,-140.13"/>
<polygon fill="midnightblue" stroke="midnightblue" points="178.78,-136.75 168.19,-137.15 176.71,-143.44 178.78,-136.75"/>
</g>
<!-- Node33 -->
<g id="node33" class="node">
<title>Node33</title>
<g id="a_node33"><a xlink:title=" ">
<polygon fill="none" stroke="#bfbfbf" points="230,-118 230,-137 313,-137 313,-118 230,-118"/>
<text text-anchor="middle" x="271.5" y="-125" font-family="Helvetica,sans-Serif" font-size="10.00">initializer_list</text>
</a>
</g>
</g>
<!-- Node29&#45;&gt;Node33 -->
<g id="edge41" class="edge">
<title>Node29&#45;&gt;Node33</title>
<path fill="none" stroke="midnightblue" d="M345.18,-179.48C331.38,-169.93 308.8,-154.31 292.27,-142.87"/>
<polygon fill="midnightblue" stroke="midnightblue" points="294.01,-139.82 283.8,-137.01 290.03,-145.58 294.01,-139.82"/>
</g>
<!-- Node34 -->
<g id="node34" class="node">
<title>Node34</title>
<g id="a_node34"><a xlink:title=" ">
<polygon fill="none" stroke="#bfbfbf" points="331,-118 331,-137 384,-137 384,-118 331,-118"/>
<text text-anchor="middle" x="357.5" y="-125" font-family="Helvetica,sans-Serif" font-size="10.00">iterator</text>
</a>
</g>
</g>
<!-- Node29&#45;&gt;Node34 -->
<g id="edge42" class="edge">
<title>Node29&#45;&gt;Node34</title>
<path fill="none" stroke="midnightblue" d="M357.5,-179.48C357.5,-171.08 357.5,-157.98 357.5,-147.16"/>
<polygon fill="midnightblue" stroke="midnightblue" points="361,-147.01 357.5,-137.01 354,-147.01 361,-147.01"/>
</g>
<!-- Node35&#45;&gt;Node13 -->
<g id="edge47" class="edge">
<title>Node35&#45;&gt;Node13</title>
<path fill="none" stroke="midnightblue" d="M732.45,-179.46C671.03,-168.12 570.58,-148.85 564.5,-143 549.14,-128.23 545.47,-103.07 544.93,-85.77"/>
<polygon fill="midnightblue" stroke="midnightblue" points="548.43,-85.73 544.93,-75.73 541.43,-85.73 548.43,-85.73"/>
</g>
<!-- Node35&#45;&gt;Node31 -->
<g id="edge48" class="edge">
<title>Node35&#45;&gt;Node31</title>
<path fill="none" stroke="midnightblue" d="M731.29,-180.29C670.17,-170.34 568.32,-153.1 531.5,-143 528.69,-142.23 525.8,-141.34 522.92,-140.39"/>
<polygon fill="midnightblue" stroke="midnightblue" points="523.92,-137.04 513.33,-137.02 521.6,-143.64 523.92,-137.04"/>
</g>
<!-- Node36&#45;&gt;Node20 -->
<g id="edge52" class="edge">
<title>Node36&#45;&gt;Node20</title>
<path fill="none" stroke="midnightblue" d="M1031.22,-182.81C1103.2,-176.17 1226.93,-163.28 1342.27,-143.09"/>
<polygon fill="midnightblue" stroke="midnightblue" points="1343.1,-146.5 1352.34,-141.31 1341.88,-139.61 1343.1,-146.5"/>
</g>
<!-- Node36&#45;&gt;Node28 -->
<g id="edge53" class="edge">
<title>Node36&#45;&gt;Node28</title>
<path fill="none" stroke="midnightblue" d="M1023.07,-179.46C1071.78,-171.34 1146.48,-158.39 1220.36,-143.17"/>
<polygon fill="midnightblue" stroke="midnightblue" points="1221.22,-146.57 1230.3,-141.11 1219.8,-139.72 1221.22,-146.57"/>
</g>
<!-- Node37 -->
<g id="node37" class="node">
<title>Node37</title>
<g id="a_node37"><a xlink:title=" ">
<polygon fill="none" stroke="#bfbfbf" points="574,-118 574,-137 621,-137 621,-118 574,-118"/>
<text text-anchor="middle" x="597.5" y="-125" font-family="Helvetica,sans-Serif" font-size="10.00">queue</text>
</a>
</g>
</g>
<!-- Node36&#45;&gt;Node37 -->
<g id="edge50" class="edge">
<title>Node36&#45;&gt;Node37</title>
<path fill="none" stroke="midnightblue" d="M909.76,-182.15C826.31,-173.74 680.74,-157.64 629.5,-143 627.56,-142.45 625.6,-141.8 623.64,-141.08"/>
<polygon fill="midnightblue" stroke="midnightblue" points="624.67,-137.72 614.09,-137.13 621.99,-144.19 624.67,-137.72"/>
</g>
<!-- Node38 -->
<g id="node38" class="node">
<title>Node38</title>
<g id="a_node38"><a xlink:title=" ">
<polygon fill="none" stroke="#bfbfbf" points="639,-118 639,-137 682,-137 682,-118 639,-118"/>
<text text-anchor="middle" x="660.5" y="-125" font-family="Helvetica,sans-Serif" font-size="10.00">stack</text>
</a>
</g>
</g>
<!-- Node36&#45;&gt;Node38 -->
<g id="edge51" class="edge">
<title>Node36&#45;&gt;Node38</title>
<path fill="none" stroke="midnightblue" d="M909.8,-183.37C852.28,-177.79 764,-166.12 690.5,-143 688.83,-142.47 687.14,-141.87 685.45,-141.22"/>
<polygon fill="midnightblue" stroke="midnightblue" points="686.59,-137.89 676.03,-137.06 683.77,-144.3 686.59,-137.89"/>
</g>
<!-- Node39 -->
<g id="node39" class="node">
<title>Node39</title>
<g id="a_node39"><a xlink:title=" ">
<polygon fill="none" stroke="#bfbfbf" points="783,-112.5 783,-142.5 896,-142.5 896,-112.5 783,-112.5"/>
<text text-anchor="start" x="791" y="-130.5" font-family="Helvetica,sans-Serif" font-size="10.00">absl/container/node</text>
<text text-anchor="middle" x="839.5" y="-119.5" font-family="Helvetica,sans-Serif" font-size="10.00">_hash_map.h</text>
</a>
</g>
</g>
<!-- Node36&#45;&gt;Node39 -->
<g id="edge54" class="edge">
<title>Node36&#45;&gt;Node39</title>
<path fill="none" stroke="midnightblue" d="M951.73,-179.48C932.99,-170.96 903.61,-157.62 879.61,-146.72"/>
<polygon fill="midnightblue" stroke="midnightblue" points="880.93,-143.47 870.37,-142.52 878.03,-149.85 880.93,-143.47"/>
</g>
<!-- Node40 -->
<g id="node40" class="node">
<title>Node40</title>
<g id="a_node40"><a xlink:title=" ">
<polygon fill="none" stroke="#bfbfbf" points="914,-112.5 914,-142.5 1027,-142.5 1027,-112.5 914,-112.5"/>
<text text-anchor="start" x="922" y="-130.5" font-family="Helvetica,sans-Serif" font-size="10.00">absl/container/node</text>
<text text-anchor="middle" x="970.5" y="-119.5" font-family="Helvetica,sans-Serif" font-size="10.00">_hash_set.h</text>
</a>
</g>
</g>
<!-- Node36&#45;&gt;Node40 -->
<g id="edge55" class="edge">
<title>Node36&#45;&gt;Node40</title>
<path fill="none" stroke="midnightblue" d="M970.5,-179.48C970.5,-172.47 970.5,-162.19 970.5,-152.7"/>
<polygon fill="midnightblue" stroke="midnightblue" points="974,-152.52 970.5,-142.52 967,-152.52 974,-152.52"/>
</g>
<!-- Node36&#45;&gt;Node41 -->
<g id="edge56" class="edge">
<title>Node36&#45;&gt;Node41</title>
<path fill="none" stroke="midnightblue" d="M988.27,-179.48C1008.98,-169.53 1043.45,-152.99 1067.49,-141.46"/>
<polygon fill="midnightblue" stroke="midnightblue" points="1069.27,-144.49 1076.77,-137.01 1066.24,-138.18 1069.27,-144.49"/>
</g>
<!-- Node41&#45;&gt;Node14 -->
<g id="edge57" class="edge">
<title>Node41&#45;&gt;Node14</title>
<path fill="none" stroke="midnightblue" d="M1125.56,-117.99C1134.52,-115.77 1144.35,-113.57 1153.5,-112 1292.91,-88.1 1458.7,-75.67 1546.59,-70.32"/>
<polygon fill="midnightblue" stroke="midnightblue" points="1546.89,-73.81 1556.66,-69.72 1546.47,-66.82 1546.89,-73.81"/>
</g>
<!-- Node42&#45;&gt;Node7 -->
<g id="edge65" class="edge">
<title>Node42&#45;&gt;Node7</title>
<path fill="none" stroke="midnightblue" d="M1738.13,-235.32C1726.34,-227.06 1708.37,-214.45 1694.36,-204.63"/>
<polygon fill="midnightblue" stroke="midnightblue" points="1696.04,-201.53 1685.84,-198.65 1692.02,-207.26 1696.04,-201.53"/>
</g>
<!-- Node42&#45;&gt;Node11 -->
<g id="edge62" class="edge">
<title>Node42&#45;&gt;Node11</title>
<path fill="none" stroke="midnightblue" d="M1790.54,-238.7C1837.09,-231.75 1910.02,-218.15 1929.5,-199 1943.17,-185.56 1947.32,-163.38 1948.43,-147.49"/>
<polygon fill="midnightblue" stroke="midnightblue" points="1951.93,-147.36 1948.79,-137.24 1944.94,-147.11 1951.93,-147.36"/>
</g>
<!-- Node42&#45;&gt;Node14 -->
<g id="edge66" class="edge">
<title>Node42&#45;&gt;Node14</title>
<path fill="none" stroke="midnightblue" d="M1755.48,-235.21C1767.71,-212.3 1796.21,-149.96 1767.5,-112 1755.46,-96.07 1709.5,-84.16 1670.07,-76.61"/>
<polygon fill="midnightblue" stroke="midnightblue" points="1670.68,-73.16 1660.21,-74.78 1669.4,-80.05 1670.68,-73.16"/>
</g>
<!-- Node42&#45;&gt;Node27 -->
<g id="edge64" class="edge">
<title>Node42&#45;&gt;Node27</title>
<path fill="none" stroke="midnightblue" d="M1710.17,-239.26C1627.41,-229.52 1438.37,-207.28 1345.29,-196.33"/>
<polygon fill="midnightblue" stroke="midnightblue" points="1345.58,-192.84 1335.24,-195.15 1344.77,-199.79 1345.58,-192.84"/>
</g>
<!-- Node43 -->
<g id="node43" class="node">
<title>Node43</title>
<g id="a_node43"><a xlink:title=" ">
<polygon fill="none" stroke="#bfbfbf" points="1855,-179.5 1855,-198.5 1920,-198.5 1920,-179.5 1855,-179.5"/>
<text text-anchor="middle" x="1887.5" y="-186.5" font-family="Helvetica,sans-Serif" font-size="10.00">stdexcept</text>
</a>
</g>
</g>
<!-- Node42&#45;&gt;Node43 -->
<g id="edge63" class="edge">
<title>Node42&#45;&gt;Node43</title>
<path fill="none" stroke="midnightblue" d="M1772.21,-235.44C1794.85,-226.52 1830.57,-212.44 1856.25,-202.32"/>
<polygon fill="midnightblue" stroke="midnightblue" points="1857.87,-205.44 1865.89,-198.52 1855.31,-198.93 1857.87,-205.44"/>
</g>
</g>
</svg>
