<?xml version="1.0" encoding="UTF-8" standalone="no"?>
<!DOCTYPE svg PUBLIC "-//W3C//DTD SVG 1.1//EN"
 "http://www.w3.org/Graphics/SVG/1.1/DTD/svg11.dtd">
<!-- Generated by graphviz version 2.43.0 (0)
 -->
<!-- Title: thorin/be/h/bootstrapper.cpp Pages: 1 -->
<svg width="2104pt" height="431pt"
 viewBox="0.00 0.00 2104.00 431.00" xmlns="http://www.w3.org/2000/svg" xmlns:xlink="http://www.w3.org/1999/xlink">
<g id="graph0" class="graph" transform="scale(1 1) rotate(0) translate(4 427)">
<title>thorin/be/h/bootstrapper.cpp</title>
<!-- Node1 -->
<g id="node1" class="node">
<title>Node1</title>
<g id="a_node1"><a xlink:title=" ">
<polygon fill="#bfbfbf" stroke="black" points="1174,-403.5 1174,-422.5 1328,-422.5 1328,-403.5 1174,-403.5"/>
<text text-anchor="middle" x="1251" y="-410.5" font-family="Helvetica,sans-Serif" font-size="10.00">thorin/be/h/bootstrapper.cpp</text>
</a>
</g>
</g>
<!-- Node2 -->
<g id="node2" class="node">
<title>Node2</title>
<g id="a_node2"><a xlink:href="bootstrapper_8h.html" target="_top" xlink:title=" ">
<polygon fill="none" stroke="black" points="768.5,-235.5 768.5,-254.5 911.5,-254.5 911.5,-235.5 768.5,-235.5"/>
<text text-anchor="middle" x="840" y="-242.5" font-family="Helvetica,sans-Serif" font-size="10.00">thorin/be/h/bootstrapper.h</text>
</a>
</g>
</g>
<!-- Node1&#45;&gt;Node2 -->
<g id="edge1" class="edge">
<title>Node1&#45;&gt;Node2</title>
<path fill="none" stroke="midnightblue" d="M1226.77,-403.48C1179.5,-386.72 1071.86,-347.89 983,-311 942.22,-294.07 895.82,-272.55 867.23,-259.03"/>
<polygon fill="midnightblue" stroke="midnightblue" points="868.43,-255.72 857.89,-254.59 865.42,-262.05 868.43,-255.72"/>
</g>
<!-- Node10 -->
<g id="node10" class="node">
<title>Node10</title>
<g id="a_node10"><a xlink:title=" ">
<polygon fill="none" stroke="#bfbfbf" points="1236,-118 1236,-137 1286,-137 1286,-118 1236,-118"/>
<text text-anchor="middle" x="1261" y="-125" font-family="Helvetica,sans-Serif" font-size="10.00">ranges</text>
</a>
</g>
</g>
<!-- Node1&#45;&gt;Node10 -->
<g id="edge23" class="edge">
<title>Node1&#45;&gt;Node10</title>
<path fill="none" stroke="midnightblue" d="M1236.81,-403.37C1224.8,-395.37 1207.99,-382.39 1198,-367 1181.62,-341.75 1179,-332.1 1179,-302 1179,-302 1179,-302 1179,-244 1179,-213.9 1181.26,-204.01 1198,-179 1207.94,-164.14 1223.62,-151.55 1236.85,-142.66"/>
<polygon fill="midnightblue" stroke="midnightblue" points="1238.98,-145.45 1245.51,-137.11 1235.2,-139.55 1238.98,-145.45"/>
</g>
<!-- Node11 -->
<g id="node11" class="node">
<title>Node11</title>
<g id="a_node11"><a xlink:title=" ">
<polygon fill="none" stroke="#bfbfbf" points="2040,-118 2040,-137 2096,-137 2096,-118 2040,-118"/>
<text text-anchor="middle" x="2068" y="-125" font-family="Helvetica,sans-Serif" font-size="10.00">sstream</text>
</a>
</g>
</g>
<!-- Node1&#45;&gt;Node11 -->
<g id="edge24" class="edge">
<title>Node1&#45;&gt;Node11</title>
<path fill="none" stroke="midnightblue" d="M1328.25,-407.86C1510.3,-397.06 1951,-364.47 1951,-302 1951,-302 1951,-302 1951,-244 1951,-194.69 2004.28,-159.33 2038.93,-141.55"/>
<polygon fill="midnightblue" stroke="midnightblue" points="2040.73,-144.57 2048.15,-137.01 2037.64,-138.29 2040.73,-144.57"/>
</g>
<!-- Node21 -->
<g id="node21" class="node">
<title>Node21</title>
<g id="a_node21"><a xlink:href="axiom_8h.html" target="_top" xlink:title=" ">
<polygon fill="none" stroke="black" points="1207,-347.5 1207,-366.5 1295,-366.5 1295,-347.5 1207,-347.5"/>
<text text-anchor="middle" x="1251" y="-354.5" font-family="Helvetica,sans-Serif" font-size="10.00">thorin/axiom.h</text>
</a>
</g>
</g>
<!-- Node1&#45;&gt;Node21 -->
<g id="edge25" class="edge">
<title>Node1&#45;&gt;Node21</title>
<path fill="none" stroke="midnightblue" d="M1251,-403.08C1251,-396.01 1251,-385.86 1251,-376.99"/>
<polygon fill="midnightblue" stroke="midnightblue" points="1254.5,-376.75 1251,-366.75 1247.5,-376.75 1254.5,-376.75"/>
</g>
<!-- Node42 -->
<g id="node42" class="node">
<title>Node42</title>
<g id="a_node42"><a xlink:href="error_8h.html" target="_top" xlink:title=" ">
<polygon fill="none" stroke="black" points="1404,-235.5 1404,-254.5 1484,-254.5 1484,-235.5 1404,-235.5"/>
<text text-anchor="middle" x="1444" y="-242.5" font-family="Helvetica,sans-Serif" font-size="10.00">thorin/error.h</text>
</a>
</g>
</g>
<!-- Node1&#45;&gt;Node42 -->
<g id="edge61" class="edge">
<title>Node1&#45;&gt;Node42</title>
<path fill="none" stroke="midnightblue" d="M1261.18,-403.4C1271.87,-394.36 1289.15,-379.72 1304,-367 1348.25,-329.09 1400.07,-284.16 1426.53,-261.19"/>
<polygon fill="midnightblue" stroke="midnightblue" points="1428.93,-263.74 1434.18,-254.54 1424.34,-258.45 1428.93,-263.74"/>
</g>
<!-- Node3 -->
<g id="node3" class="node">
<title>Node3</title>
<g id="a_node3"><a xlink:title=" ">
<polygon fill="none" stroke="#bfbfbf" points="273.5,-179.5 273.5,-198.5 320.5,-198.5 320.5,-179.5 273.5,-179.5"/>
<text text-anchor="middle" x="297" y="-186.5" font-family="Helvetica,sans-Serif" font-size="10.00">deque</text>
</a>
</g>
</g>
<!-- Node2&#45;&gt;Node3 -->
<g id="edge2" class="edge">
<title>Node2&#45;&gt;Node3</title>
<path fill="none" stroke="midnightblue" d="M768.09,-240.85C669.78,-235.8 488.14,-223.83 335,-199 333.54,-198.76 332.04,-198.5 330.54,-198.22"/>
<polygon fill="midnightblue" stroke="midnightblue" points="331.12,-194.76 320.61,-196.15 329.69,-201.62 331.12,-194.76"/>
</g>
<!-- Node4 -->
<g id="node4" class="node">
<title>Node4</title>
<g id="a_node4"><a xlink:title=" ">
<polygon fill="none" stroke="#bfbfbf" points="270.5,-0.5 270.5,-19.5 327.5,-19.5 327.5,-0.5 270.5,-0.5"/>
<text text-anchor="middle" x="299" y="-7.5" font-family="Helvetica,sans-Serif" font-size="10.00">ostream</text>
</a>
</g>
</g>
<!-- Node2&#45;&gt;Node4 -->
<g id="edge3" class="edge">
<title>Node2&#45;&gt;Node4</title>
<path fill="none" stroke="midnightblue" d="M768.42,-237.02C618.91,-221.7 284.66,-183.26 253,-143 225.11,-107.54 261.98,-53.98 284.26,-27.3"/>
<polygon fill="midnightblue" stroke="midnightblue" points="286.99,-29.5 290.88,-19.64 281.7,-24.92 286.99,-29.5"/>
</g>
<!-- Node5 -->
<g id="node5" class="node">
<title>Node5</title>
<g id="a_node5"><a xlink:title=" ">
<polygon fill="none" stroke="#bfbfbf" points="1136,-118 1136,-137 1180,-137 1180,-118 1136,-118"/>
<text text-anchor="middle" x="1158" y="-125" font-family="Helvetica,sans-Serif" font-size="10.00">string</text>
</a>
</g>
</g>
<!-- Node2&#45;&gt;Node5 -->
<g id="edge4" class="edge">
<title>Node2&#45;&gt;Node5</title>
<path fill="none" stroke="midnightblue" d="M867.24,-235.41C918.62,-219 1033.12,-181.37 1127,-143 1128.38,-142.44 1129.78,-141.85 1131.19,-141.24"/>
<polygon fill="midnightblue" stroke="midnightblue" points="1132.74,-144.38 1140.43,-137.09 1129.87,-137.99 1132.74,-144.38"/>
</g>
<!-- Node6 -->
<g id="node6" class="node">
<title>Node6</title>
<g id="a_node6"><a xlink:title=" ">
<polygon fill="none" stroke="#bfbfbf" points="182.5,-179.5 182.5,-198.5 255.5,-198.5 255.5,-179.5 182.5,-179.5"/>
<text text-anchor="middle" x="219" y="-186.5" font-family="Helvetica,sans-Serif" font-size="10.00">string_view</text>
</a>
</g>
</g>
<!-- Node2&#45;&gt;Node6 -->
<g id="edge5" class="edge">
<title>Node2&#45;&gt;Node6</title>
<path fill="none" stroke="midnightblue" d="M768.32,-241.15C661,-236.28 452.09,-224.45 265.76,-199.1"/>
<polygon fill="midnightblue" stroke="midnightblue" points="266.16,-195.62 255.78,-197.73 265.21,-202.56 266.16,-195.62"/>
</g>
<!-- Node7 -->
<g id="node7" class="node">
<title>Node7</title>
<g id="a_node7"><a xlink:href="print_8h.html" target="_top" xlink:title=" ">
<polygon fill="none" stroke="black" points="1395,-179.5 1395,-198.5 1493,-198.5 1493,-179.5 1395,-179.5"/>
<text text-anchor="middle" x="1444" y="-186.5" font-family="Helvetica,sans-Serif" font-size="10.00">thorin/util/print.h</text>
</a>
</g>
</g>
<!-- Node2&#45;&gt;Node7 -->
<g id="edge6" class="edge">
<title>Node2&#45;&gt;Node7</title>
<path fill="none" stroke="midnightblue" d="M911.71,-239.73C1014.3,-233.27 1209.06,-219.63 1385.03,-199.03"/>
<polygon fill="midnightblue" stroke="midnightblue" points="1385.47,-202.51 1394.99,-197.86 1384.64,-195.56 1385.47,-202.51"/>
</g>
<!-- Node14 -->
<g id="node14" class="node">
<title>Node14</title>
<g id="a_node14"><a xlink:href="types_8h.html" target="_top" xlink:title=" ">
<polygon fill="none" stroke="black" points="102.5,-56.5 102.5,-75.5 205.5,-75.5 205.5,-56.5 102.5,-56.5"/>
<text text-anchor="middle" x="154" y="-63.5" font-family="Helvetica,sans-Serif" font-size="10.00">thorin/util/types.h</text>
</a>
</g>
</g>
<!-- Node2&#45;&gt;Node14 -->
<g id="edge15" class="edge">
<title>Node2&#45;&gt;Node14</title>
<path fill="none" stroke="midnightblue" d="M768.31,-244.16C604.97,-243.81 215.9,-238.77 173,-199 141.82,-170.1 145.6,-114.74 150.22,-85.75"/>
<polygon fill="midnightblue" stroke="midnightblue" points="153.7,-86.19 152.03,-75.73 146.81,-84.95 153.7,-86.19"/>
</g>
<!-- Node20 -->
<g id="node20" class="node">
<title>Node20</title>
<g id="a_node20"><a xlink:title=" ">
<polygon fill="none" stroke="#bfbfbf" points="890,-112.5 890,-142.5 994,-142.5 994,-112.5 890,-112.5"/>
<text text-anchor="start" x="898" y="-130.5" font-family="Helvetica,sans-Serif" font-size="10.00">absl/container/flat</text>
<text text-anchor="middle" x="942" y="-119.5" font-family="Helvetica,sans-Serif" font-size="10.00">_hash_map.h</text>
</a>
</g>
</g>
<!-- Node2&#45;&gt;Node20 -->
<g id="edge22" class="edge">
<title>Node2&#45;&gt;Node20</title>
<path fill="none" stroke="midnightblue" d="M847.67,-235.32C863.47,-217.42 900.08,-175.97 922.77,-150.28"/>
<polygon fill="midnightblue" stroke="midnightblue" points="925.6,-152.36 929.6,-142.55 920.35,-147.72 925.6,-152.36"/>
</g>
<!-- Node7&#45;&gt;Node4 -->
<g id="edge9" class="edge">
<title>Node7&#45;&gt;Node4</title>
<path fill="none" stroke="midnightblue" d="M1446.6,-179.38C1450.66,-164.03 1456.53,-131.71 1441,-112 1384.4,-40.17 1333.26,-70.72 1243,-56 1064.5,-26.89 493.36,-14.55 338.21,-11.68"/>
<polygon fill="midnightblue" stroke="midnightblue" points="337.83,-8.17 327.77,-11.49 337.71,-15.17 337.83,-8.17"/>
</g>
<!-- Node7&#45;&gt;Node5 -->
<g id="edge12" class="edge">
<title>Node7&#45;&gt;Node5</title>
<path fill="none" stroke="midnightblue" d="M1402.8,-179.49C1359.14,-170.46 1288.2,-155.78 1227,-143 1214.98,-140.49 1201.79,-137.72 1190.19,-135.28"/>
<polygon fill="midnightblue" stroke="midnightblue" points="1190.57,-131.79 1180.06,-133.15 1189.12,-138.64 1190.57,-131.79"/>
</g>
<!-- Node8 -->
<g id="node8" class="node">
<title>Node8</title>
<g id="a_node8"><a xlink:title=" ">
<polygon fill="none" stroke="#bfbfbf" points="1488.5,-118 1488.5,-137 1553.5,-137 1553.5,-118 1488.5,-118"/>
<text text-anchor="middle" x="1521" y="-125" font-family="Helvetica,sans-Serif" font-size="10.00">functional</text>
</a>
</g>
</g>
<!-- Node7&#45;&gt;Node8 -->
<g id="edge7" class="edge">
<title>Node7&#45;&gt;Node8</title>
<path fill="none" stroke="midnightblue" d="M1455.03,-179.48C1467.27,-170.02 1487.23,-154.6 1501.99,-143.19"/>
<polygon fill="midnightblue" stroke="midnightblue" points="1504.22,-145.89 1509.99,-137.01 1499.94,-140.35 1504.22,-145.89"/>
</g>
<!-- Node9 -->
<g id="node9" class="node">
<title>Node9</title>
<g id="a_node9"><a xlink:title=" ">
<polygon fill="none" stroke="#bfbfbf" points="1372,-118 1372,-137 1432,-137 1432,-118 1372,-118"/>
<text text-anchor="middle" x="1402" y="-125" font-family="Helvetica,sans-Serif" font-size="10.00">iostream</text>
</a>
</g>
</g>
<!-- Node7&#45;&gt;Node9 -->
<g id="edge8" class="edge">
<title>Node7&#45;&gt;Node9</title>
<path fill="none" stroke="midnightblue" d="M1437.98,-179.48C1431.74,-170.64 1421.83,-156.59 1413.98,-145.48"/>
<polygon fill="midnightblue" stroke="midnightblue" points="1416.63,-143.16 1408.01,-137.01 1410.91,-147.2 1416.63,-143.16"/>
</g>
<!-- Node7&#45;&gt;Node10 -->
<g id="edge10" class="edge">
<title>Node7&#45;&gt;Node10</title>
<path fill="none" stroke="midnightblue" d="M1411.99,-179.43C1381.59,-171.03 1334.75,-157.43 1295,-143 1293.15,-142.33 1291.25,-141.61 1289.34,-140.86"/>
<polygon fill="midnightblue" stroke="midnightblue" points="1290.5,-137.55 1279.91,-137 1287.84,-144.03 1290.5,-137.55"/>
</g>
<!-- Node7&#45;&gt;Node11 -->
<g id="edge11" class="edge">
<title>Node7&#45;&gt;Node11</title>
<path fill="none" stroke="midnightblue" d="M1493.34,-184.65C1609.39,-176.66 1897.07,-156.16 1993,-143 2005.09,-141.34 2018.18,-139 2029.99,-136.68"/>
<polygon fill="midnightblue" stroke="midnightblue" points="2030.87,-140.08 2039.98,-134.67 2029.49,-133.21 2030.87,-140.08"/>
</g>
<!-- Node12 -->
<g id="node12" class="node">
<title>Node12</title>
<g id="a_node12"><a xlink:href="assert_8h.html" target="_top" xlink:title=" ">
<polygon fill="none" stroke="black" points="1012,-118 1012,-137 1118,-137 1118,-118 1012,-118"/>
<text text-anchor="middle" x="1065" y="-125" font-family="Helvetica,sans-Serif" font-size="10.00">thorin/util/assert.h</text>
</a>
</g>
</g>
<!-- Node7&#45;&gt;Node12 -->
<g id="edge13" class="edge">
<title>Node7&#45;&gt;Node12</title>
<path fill="none" stroke="midnightblue" d="M1394.96,-180.33C1391.93,-179.88 1388.92,-179.43 1386,-179 1271.02,-162.09 1241.26,-164.26 1127,-143 1121.15,-141.91 1115.02,-140.64 1108.99,-139.31"/>
<polygon fill="midnightblue" stroke="midnightblue" points="1109.52,-135.84 1098.99,-137.04 1107.97,-142.67 1109.52,-135.84"/>
</g>
<!-- Node13 -->
<g id="node13" class="node">
<title>Node13</title>
<g id="a_node13"><a xlink:title=" ">
<polygon fill="none" stroke="#bfbfbf" points="1182,-56.5 1182,-75.5 1234,-75.5 1234,-56.5 1182,-56.5"/>
<text text-anchor="middle" x="1208" y="-63.5" font-family="Helvetica,sans-Serif" font-size="10.00">cassert</text>
</a>
</g>
</g>
<!-- Node12&#45;&gt;Node13 -->
<g id="edge14" class="edge">
<title>Node12&#45;&gt;Node13</title>
<path fill="none" stroke="midnightblue" d="M1085.49,-117.98C1109.81,-107.86 1150.55,-90.9 1178.32,-79.35"/>
<polygon fill="midnightblue" stroke="midnightblue" points="1179.66,-82.58 1187.55,-75.51 1176.97,-76.12 1179.66,-82.58"/>
</g>
<!-- Node14&#45;&gt;Node4 -->
<g id="edge18" class="edge">
<title>Node14&#45;&gt;Node4</title>
<path fill="none" stroke="midnightblue" d="M176.98,-56.44C201.16,-47.44 239.42,-33.19 266.65,-23.05"/>
<polygon fill="midnightblue" stroke="midnightblue" points="267.98,-26.29 276.13,-19.52 265.54,-19.73 267.98,-26.29"/>
</g>
<!-- Node15 -->
<g id="node15" class="node">
<title>Node15</title>
<g id="a_node15"><a xlink:title=" ">
<polygon fill="none" stroke="#bfbfbf" points="0,-0.5 0,-19.5 50,-19.5 50,-0.5 0,-0.5"/>
<text text-anchor="middle" x="25" y="-7.5" font-family="Helvetica,sans-Serif" font-size="10.00">cstdint</text>
</a>
</g>
</g>
<!-- Node14&#45;&gt;Node15 -->
<g id="edge16" class="edge">
<title>Node14&#45;&gt;Node15</title>
<path fill="none" stroke="midnightblue" d="M133.56,-56.44C112.33,-47.56 78.9,-33.56 54.75,-23.45"/>
<polygon fill="midnightblue" stroke="midnightblue" points="55.92,-20.15 45.34,-19.52 53.22,-26.61 55.92,-20.15"/>
</g>
<!-- Node16 -->
<g id="node16" class="node">
<title>Node16</title>
<g id="a_node16"><a xlink:title=" ">
<polygon fill="none" stroke="#bfbfbf" points="68,-0.5 68,-19.5 112,-19.5 112,-0.5 68,-0.5"/>
<text text-anchor="middle" x="90" y="-7.5" font-family="Helvetica,sans-Serif" font-size="10.00">limits</text>
</a>
</g>
</g>
<!-- Node14&#45;&gt;Node16 -->
<g id="edge17" class="edge">
<title>Node14&#45;&gt;Node16</title>
<path fill="none" stroke="midnightblue" d="M143.72,-56.32C134.16,-48.26 119.72,-36.08 108.22,-26.37"/>
<polygon fill="midnightblue" stroke="midnightblue" points="110.37,-23.61 100.47,-19.83 105.86,-28.96 110.37,-23.61"/>
</g>
<!-- Node17 -->
<g id="node17" class="node">
<title>Node17</title>
<g id="a_node17"><a xlink:title=" ">
<polygon fill="none" stroke="#bfbfbf" points="1161.5,-0.5 1161.5,-19.5 1230.5,-19.5 1230.5,-0.5 1161.5,-0.5"/>
<text text-anchor="middle" x="1196" y="-7.5" font-family="Helvetica,sans-Serif" font-size="10.00">type_traits</text>
</a>
</g>
</g>
<!-- Node14&#45;&gt;Node17 -->
<g id="edge19" class="edge">
<title>Node14&#45;&gt;Node17</title>
<path fill="none" stroke="midnightblue" d="M205.67,-62.32C385.57,-53 982.63,-22.06 1151.28,-13.32"/>
<polygon fill="midnightblue" stroke="midnightblue" points="1151.5,-16.81 1161.3,-12.8 1151.13,-9.82 1151.5,-16.81"/>
</g>
<!-- Node18 -->
<g id="node18" class="node">
<title>Node18</title>
<g id="a_node18"><a xlink:title=" ">
<polygon fill="none" stroke="#bfbfbf" points="130.5,-0.5 130.5,-19.5 177.5,-19.5 177.5,-0.5 130.5,-0.5"/>
<text text-anchor="middle" x="154" y="-7.5" font-family="Helvetica,sans-Serif" font-size="10.00">cmath</text>
</a>
</g>
</g>
<!-- Node14&#45;&gt;Node18 -->
<g id="edge20" class="edge">
<title>Node14&#45;&gt;Node18</title>
<path fill="none" stroke="midnightblue" d="M154,-56.08C154,-49.01 154,-38.86 154,-29.99"/>
<polygon fill="midnightblue" stroke="midnightblue" points="157.5,-29.75 154,-19.75 150.5,-29.75 157.5,-29.75"/>
</g>
<!-- Node19 -->
<g id="node19" class="node">
<title>Node19</title>
<g id="a_node19"><a xlink:title=" ">
<polygon fill="none" stroke="#bfbfbf" points="196,-0.5 196,-19.5 252,-19.5 252,-0.5 196,-0.5"/>
<text text-anchor="middle" x="224" y="-7.5" font-family="Helvetica,sans-Serif" font-size="10.00">half.hpp</text>
</a>
</g>
</g>
<!-- Node14&#45;&gt;Node19 -->
<g id="edge21" class="edge">
<title>Node14&#45;&gt;Node19</title>
<path fill="none" stroke="midnightblue" d="M165.25,-56.32C175.8,-48.18 191.8,-35.84 204.44,-26.09"/>
<polygon fill="midnightblue" stroke="midnightblue" points="206.77,-28.71 212.55,-19.83 202.49,-23.17 206.77,-28.71"/>
</g>
<!-- Node21&#45;&gt;Node12 -->
<g id="edge60" class="edge">
<title>Node21&#45;&gt;Node12</title>
<path fill="none" stroke="midnightblue" d="M1231.03,-347.49C1188.88,-328.27 1091.58,-277.01 1054,-199 1046.04,-182.48 1050.97,-161.48 1056.54,-146.72"/>
<polygon fill="midnightblue" stroke="midnightblue" points="1059.88,-147.8 1060.53,-137.22 1053.43,-145.08 1059.88,-147.8"/>
</g>
<!-- Node22 -->
<g id="node22" class="node">
<title>Node22</title>
<g id="a_node22"><a xlink:href="lam_8h.html" target="_top" xlink:title=" ">
<polygon fill="none" stroke="black" points="1213,-291.5 1213,-310.5 1289,-310.5 1289,-291.5 1213,-291.5"/>
<text text-anchor="middle" x="1251" y="-298.5" font-family="Helvetica,sans-Serif" font-size="10.00">thorin/lam.h</text>
</a>
</g>
</g>
<!-- Node21&#45;&gt;Node22 -->
<g id="edge26" class="edge">
<title>Node21&#45;&gt;Node22</title>
<path fill="none" stroke="midnightblue" d="M1251,-347.08C1251,-340.01 1251,-329.86 1251,-320.99"/>
<polygon fill="midnightblue" stroke="midnightblue" points="1254.5,-320.75 1251,-310.75 1247.5,-320.75 1254.5,-320.75"/>
</g>
<!-- Node23 -->
<g id="node23" class="node">
<title>Node23</title>
<g id="a_node23"><a xlink:title=" ">
<polygon fill="none" stroke="#bfbfbf" points="1301.5,-235.5 1301.5,-254.5 1352.5,-254.5 1352.5,-235.5 1301.5,-235.5"/>
<text text-anchor="middle" x="1327" y="-242.5" font-family="Helvetica,sans-Serif" font-size="10.00">variant</text>
</a>
</g>
</g>
<!-- Node22&#45;&gt;Node23 -->
<g id="edge27" class="edge">
<title>Node22&#45;&gt;Node23</title>
<path fill="none" stroke="midnightblue" d="M1263.21,-291.32C1274.78,-283.11 1292.38,-270.6 1306.16,-260.81"/>
<polygon fill="midnightblue" stroke="midnightblue" points="1308.44,-263.48 1314.57,-254.83 1304.39,-257.77 1308.44,-263.48"/>
</g>
<!-- Node24 -->
<g id="node24" class="node">
<title>Node24</title>
<g id="a_node24"><a xlink:href="def_8h.html" target="_top" xlink:title=" ">
<polygon fill="none" stroke="black" points="1211,-235.5 1211,-254.5 1283,-254.5 1283,-235.5 1211,-235.5"/>
<text text-anchor="middle" x="1247" y="-242.5" font-family="Helvetica,sans-Serif" font-size="10.00">thorin/def.h</text>
</a>
</g>
</g>
<!-- Node22&#45;&gt;Node24 -->
<g id="edge28" class="edge">
<title>Node22&#45;&gt;Node24</title>
<path fill="none" stroke="midnightblue" d="M1250.34,-291.08C1249.82,-284.01 1249.06,-273.86 1248.41,-264.99"/>
<polygon fill="midnightblue" stroke="midnightblue" points="1251.88,-264.47 1247.65,-254.75 1244.9,-264.98 1251.88,-264.47"/>
</g>
<!-- Node24&#45;&gt;Node7 -->
<g id="edge59" class="edge">
<title>Node24&#45;&gt;Node7</title>
<path fill="none" stroke="midnightblue" d="M1278.22,-235.44C1311.93,-226.2 1365.8,-211.44 1402.93,-201.26"/>
<polygon fill="midnightblue" stroke="midnightblue" points="1404.21,-204.54 1412.93,-198.52 1402.36,-197.78 1404.21,-204.54"/>
</g>
<!-- Node25 -->
<g id="node25" class="node">
<title>Node25</title>
<g id="a_node25"><a xlink:title=" ">
<polygon fill="none" stroke="#bfbfbf" points="1207,-179.5 1207,-198.5 1263,-198.5 1263,-179.5 1207,-179.5"/>
<text text-anchor="middle" x="1235" y="-186.5" font-family="Helvetica,sans-Serif" font-size="10.00">optional</text>
</a>
</g>
</g>
<!-- Node24&#45;&gt;Node25 -->
<g id="edge29" class="edge">
<title>Node24&#45;&gt;Node25</title>
<path fill="none" stroke="midnightblue" d="M1245.02,-235.08C1243.43,-227.93 1241.14,-217.64 1239.15,-208.69"/>
<polygon fill="midnightblue" stroke="midnightblue" points="1242.53,-207.75 1236.94,-198.75 1235.7,-209.27 1242.53,-207.75"/>
</g>
<!-- Node26 -->
<g id="node26" class="node">
<title>Node26</title>
<g id="a_node26"><a xlink:title=" ">
<polygon fill="none" stroke="#bfbfbf" points="1571.5,-118 1571.5,-137 1618.5,-137 1618.5,-118 1571.5,-118"/>
<text text-anchor="middle" x="1595" y="-125" font-family="Helvetica,sans-Serif" font-size="10.00">vector</text>
</a>
</g>
</g>
<!-- Node24&#45;&gt;Node26 -->
<g id="edge30" class="edge">
<title>Node24&#45;&gt;Node26</title>
<path fill="none" stroke="midnightblue" d="M1283.33,-236.64C1286.26,-236.08 1289.18,-235.52 1292,-235 1385.1,-217.71 1415.12,-236.68 1502,-199 1532.35,-185.84 1561.82,-160.79 1579.18,-144.36"/>
<polygon fill="midnightblue" stroke="midnightblue" points="1581.94,-146.56 1586.69,-137.09 1577.07,-141.54 1581.94,-146.56"/>
</g>
<!-- Node27 -->
<g id="node27" class="node">
<title>Node27</title>
<g id="a_node27"><a xlink:href="debug_8h.html" target="_top" xlink:title=" ">
<polygon fill="none" stroke="black" points="1063.5,-179.5 1063.5,-198.5 1150.5,-198.5 1150.5,-179.5 1063.5,-179.5"/>
<text text-anchor="middle" x="1107" y="-186.5" font-family="Helvetica,sans-Serif" font-size="10.00">thorin/debug.h</text>
</a>
</g>
</g>
<!-- Node24&#45;&gt;Node27 -->
<g id="edge31" class="edge">
<title>Node24&#45;&gt;Node27</title>
<path fill="none" stroke="midnightblue" d="M1224.82,-235.44C1201.57,-226.48 1164.85,-212.31 1138.58,-202.18"/>
<polygon fill="midnightblue" stroke="midnightblue" points="1139.67,-198.85 1129.08,-198.52 1137.15,-205.38 1139.67,-198.85"/>
</g>
<!-- Node29 -->
<g id="node29" class="node">
<title>Node29</title>
<g id="a_node29"><a xlink:href="array_8h.html" target="_top" xlink:title=" ">
<polygon fill="none" stroke="black" points="1585,-179.5 1585,-198.5 1685,-198.5 1685,-179.5 1585,-179.5"/>
<text text-anchor="middle" x="1635" y="-186.5" font-family="Helvetica,sans-Serif" font-size="10.00">thorin/util/array.h</text>
</a>
</g>
</g>
<!-- Node24&#45;&gt;Node29 -->
<g id="edge35" class="edge">
<title>Node24&#45;&gt;Node29</title>
<path fill="none" stroke="midnightblue" d="M1283.31,-236.52C1286.25,-235.98 1289.17,-235.47 1292,-235 1344.97,-226.24 1491.26,-207.77 1574.68,-197.42"/>
<polygon fill="midnightblue" stroke="midnightblue" points="1575.28,-200.87 1584.78,-196.17 1574.42,-193.92 1575.28,-200.87"/>
</g>
<!-- Node35 -->
<g id="node35" class="node">
<title>Node35</title>
<g id="a_node35"><a xlink:href="cast_8h.html" target="_top" xlink:title=" ">
<polygon fill="none" stroke="black" points="1281,-179.5 1281,-198.5 1377,-198.5 1377,-179.5 1281,-179.5"/>
<text text-anchor="middle" x="1329" y="-186.5" font-family="Helvetica,sans-Serif" font-size="10.00">thorin/util/cast.h</text>
</a>
</g>
</g>
<!-- Node24&#45;&gt;Node35 -->
<g id="edge46" class="edge">
<title>Node24&#45;&gt;Node35</title>
<path fill="none" stroke="midnightblue" d="M1260.17,-235.32C1272.85,-226.98 1292.23,-214.21 1307.21,-204.35"/>
<polygon fill="midnightblue" stroke="midnightblue" points="1309.43,-207.08 1315.86,-198.65 1305.58,-201.23 1309.43,-207.08"/>
</g>
<!-- Node36 -->
<g id="node36" class="node">
<title>Node36</title>
<g id="a_node36"><a xlink:href="container_8h.html" target="_top" xlink:title=" ">
<polygon fill="none" stroke="black" points="584.5,-179.5 584.5,-198.5 705.5,-198.5 705.5,-179.5 584.5,-179.5"/>
<text text-anchor="middle" x="645" y="-186.5" font-family="Helvetica,sans-Serif" font-size="10.00">thorin/util/container.h</text>
</a>
</g>
</g>
<!-- Node24&#45;&gt;Node36 -->
<g id="edge49" class="edge">
<title>Node24&#45;&gt;Node36</title>
<path fill="none" stroke="midnightblue" d="M1210.7,-240.74C1113.31,-232.01 844.91,-207.93 715.97,-196.37"/>
<polygon fill="midnightblue" stroke="midnightblue" points="716.08,-192.86 705.81,-195.45 715.45,-199.83 716.08,-192.86"/>
</g>
<!-- Node41 -->
<g id="node41" class="node">
<title>Node41</title>
<g id="a_node41"><a xlink:href="hash_8h.html" target="_top" xlink:title=" ">
<polygon fill="none" stroke="black" points="262.5,-118 262.5,-137 361.5,-137 361.5,-118 262.5,-118"/>
<text text-anchor="middle" x="312" y="-125" font-family="Helvetica,sans-Serif" font-size="10.00">thorin/util/hash.h</text>
</a>
</g>
</g>
<!-- Node24&#45;&gt;Node41 -->
<g id="edge58" class="edge">
<title>Node24&#45;&gt;Node41</title>
<path fill="none" stroke="midnightblue" d="M1210.66,-244.05C1109.31,-243.64 815.22,-238.85 575,-199 491.89,-185.21 397.03,-156.45 347.06,-140.25"/>
<polygon fill="midnightblue" stroke="midnightblue" points="347.99,-136.87 337.39,-137.09 345.81,-143.52 347.99,-136.87"/>
</g>
<!-- Node27&#45;&gt;Node5 -->
<g id="edge32" class="edge">
<title>Node27&#45;&gt;Node5</title>
<path fill="none" stroke="midnightblue" d="M1114.31,-179.48C1122.03,-170.46 1134.41,-156.02 1144.02,-144.81"/>
<polygon fill="midnightblue" stroke="midnightblue" points="1146.86,-146.88 1150.71,-137.01 1141.54,-142.32 1146.86,-146.88"/>
</g>
<!-- Node27&#45;&gt;Node20 -->
<g id="edge33" class="edge">
<title>Node27&#45;&gt;Node20</title>
<path fill="none" stroke="midnightblue" d="M1083.36,-179.48C1059.24,-170.78 1021.11,-157.03 990.52,-146"/>
<polygon fill="midnightblue" stroke="midnightblue" points="991.48,-142.62 980.89,-142.52 989.11,-149.21 991.48,-142.62"/>
</g>
<!-- Node28 -->
<g id="node28" class="node">
<title>Node28</title>
<g id="a_node28"><a xlink:title=" ">
<polygon fill="none" stroke="#bfbfbf" points="768,-112.5 768,-142.5 872,-142.5 872,-112.5 768,-112.5"/>
<text text-anchor="start" x="776" y="-130.5" font-family="Helvetica,sans-Serif" font-size="10.00">absl/container/flat</text>
<text text-anchor="middle" x="820" y="-119.5" font-family="Helvetica,sans-Serif" font-size="10.00">_hash_set.h</text>
</a>
</g>
</g>
<!-- Node27&#45;&gt;Node28 -->
<g id="edge34" class="edge">
<title>Node27&#45;&gt;Node28</title>
<path fill="none" stroke="midnightblue" d="M1063.15,-179.77C1019.68,-171.49 950.95,-158.11 882.33,-143.25"/>
<polygon fill="midnightblue" stroke="midnightblue" points="882.73,-139.75 872.21,-141.05 881.24,-146.59 882.73,-139.75"/>
</g>
<!-- Node29&#45;&gt;Node8 -->
<g id="edge40" class="edge">
<title>Node29&#45;&gt;Node8</title>
<path fill="none" stroke="midnightblue" d="M1618.67,-179.48C1599.79,-169.62 1568.49,-153.29 1546.42,-141.77"/>
<polygon fill="midnightblue" stroke="midnightblue" points="1547.79,-138.53 1537.3,-137.01 1544.55,-144.74 1547.79,-138.53"/>
</g>
<!-- Node29&#45;&gt;Node10 -->
<g id="edge43" class="edge">
<title>Node29&#45;&gt;Node10</title>
<path fill="none" stroke="midnightblue" d="M1584.9,-185.62C1517.83,-181.48 1395.64,-170.57 1295,-143 1292.7,-142.37 1290.36,-141.62 1288.02,-140.79"/>
<polygon fill="midnightblue" stroke="midnightblue" points="1289.26,-137.52 1278.67,-137.11 1286.69,-144.03 1289.26,-137.52"/>
</g>
<!-- Node29&#45;&gt;Node13 -->
<g id="edge36" class="edge">
<title>Node29&#45;&gt;Node13</title>
<path fill="none" stroke="midnightblue" d="M1637.31,-179.28C1640.92,-163.46 1645.76,-130.03 1628,-112 1601.27,-84.87 1341.42,-72.14 1244.34,-68.3"/>
<polygon fill="midnightblue" stroke="midnightblue" points="1244.26,-64.8 1234.13,-67.91 1243.99,-71.79 1244.26,-64.8"/>
</g>
<!-- Node29&#45;&gt;Node17 -->
<g id="edge44" class="edge">
<title>Node29&#45;&gt;Node17</title>
<path fill="none" stroke="midnightblue" d="M1685.05,-179.71C1686.72,-179.47 1688.37,-179.23 1690,-179 1826.57,-159.72 2084.19,-215.47 1993,-112 1942.81,-55.04 1401.52,-21.91 1240.77,-13.28"/>
<polygon fill="midnightblue" stroke="midnightblue" points="1240.91,-9.78 1230.74,-12.75 1240.54,-16.77 1240.91,-9.78"/>
</g>
<!-- Node29&#45;&gt;Node26 -->
<g id="edge45" class="edge">
<title>Node29&#45;&gt;Node26</title>
<path fill="none" stroke="midnightblue" d="M1629.27,-179.48C1623.33,-170.64 1613.88,-156.59 1606.41,-145.48"/>
<polygon fill="midnightblue" stroke="midnightblue" points="1609.2,-143.36 1600.72,-137.01 1603.39,-147.26 1609.2,-143.36"/>
</g>
<!-- Node30 -->
<g id="node30" class="node">
<title>Node30</title>
<g id="a_node30"><a xlink:title=" ">
<polygon fill="none" stroke="#bfbfbf" points="1675.5,-118 1675.5,-137 1728.5,-137 1728.5,-118 1675.5,-118"/>
<text text-anchor="middle" x="1702" y="-125" font-family="Helvetica,sans-Serif" font-size="10.00">cstddef</text>
</a>
</g>
</g>
<!-- Node29&#45;&gt;Node30 -->
<g id="edge37" class="edge">
<title>Node29&#45;&gt;Node30</title>
<path fill="none" stroke="midnightblue" d="M1644.6,-179.48C1655.05,-170.2 1671.97,-155.17 1684.74,-143.83"/>
<polygon fill="midnightblue" stroke="midnightblue" points="1687.27,-146.27 1692.42,-137.01 1682.62,-141.03 1687.27,-146.27"/>
</g>
<!-- Node31 -->
<g id="node31" class="node">
<title>Node31</title>
<g id="a_node31"><a xlink:title=" ">
<polygon fill="none" stroke="#bfbfbf" points="1304,-118 1304,-137 1354,-137 1354,-118 1304,-118"/>
<text text-anchor="middle" x="1329" y="-125" font-family="Helvetica,sans-Serif" font-size="10.00">cstring</text>
</a>
</g>
</g>
<!-- Node29&#45;&gt;Node31 -->
<g id="edge38" class="edge">
<title>Node29&#45;&gt;Node31</title>
<path fill="none" stroke="midnightblue" d="M1584.82,-183.33C1529.62,-177.36 1438.71,-165.06 1363,-143 1360.85,-142.37 1358.65,-141.65 1356.46,-140.86"/>
<polygon fill="midnightblue" stroke="midnightblue" points="1357.64,-137.57 1347.06,-137.15 1355.07,-144.08 1357.64,-137.57"/>
</g>
<!-- Node32 -->
<g id="node32" class="node">
<title>Node32</title>
<g id="a_node32"><a xlink:title=" ">
<polygon fill="none" stroke="#bfbfbf" points="1747,-118 1747,-137 1811,-137 1811,-118 1747,-118"/>
<text text-anchor="middle" x="1779" y="-125" font-family="Helvetica,sans-Serif" font-size="10.00">algorithm</text>
</a>
</g>
</g>
<!-- Node29&#45;&gt;Node32 -->
<g id="edge39" class="edge">
<title>Node29&#45;&gt;Node32</title>
<path fill="none" stroke="midnightblue" d="M1655.63,-179.48C1680.12,-169.36 1721.15,-152.4 1749.11,-140.85"/>
<polygon fill="midnightblue" stroke="midnightblue" points="1750.5,-144.06 1758.41,-137.01 1747.83,-137.59 1750.5,-144.06"/>
</g>
<!-- Node33 -->
<g id="node33" class="node">
<title>Node33</title>
<g id="a_node33"><a xlink:title=" ">
<polygon fill="none" stroke="#bfbfbf" points="1829.5,-118 1829.5,-137 1912.5,-137 1912.5,-118 1829.5,-118"/>
<text text-anchor="middle" x="1871" y="-125" font-family="Helvetica,sans-Serif" font-size="10.00">initializer_list</text>
</a>
</g>
</g>
<!-- Node29&#45;&gt;Node33 -->
<g id="edge41" class="edge">
<title>Node29&#45;&gt;Node33</title>
<path fill="none" stroke="midnightblue" d="M1671.96,-179.45C1709.38,-170.69 1768.86,-156.48 1820,-143 1823.85,-141.99 1827.85,-140.9 1831.84,-139.8"/>
<polygon fill="midnightblue" stroke="midnightblue" points="1832.97,-143.12 1841.66,-137.05 1831.08,-136.38 1832.97,-143.12"/>
</g>
<!-- Node34 -->
<g id="node34" class="node">
<title>Node34</title>
<g id="a_node34"><a xlink:title=" ">
<polygon fill="none" stroke="#bfbfbf" points="1930.5,-118 1930.5,-137 1983.5,-137 1983.5,-118 1930.5,-118"/>
<text text-anchor="middle" x="1957" y="-125" font-family="Helvetica,sans-Serif" font-size="10.00">iterator</text>
</a>
</g>
</g>
<!-- Node29&#45;&gt;Node34 -->
<g id="edge42" class="edge">
<title>Node29&#45;&gt;Node34</title>
<path fill="none" stroke="midnightblue" d="M1685.04,-180.81C1761.17,-169.78 1899.67,-149.28 1922,-143 1924.44,-142.31 1926.93,-141.51 1929.42,-140.63"/>
<polygon fill="midnightblue" stroke="midnightblue" points="1930.7,-143.89 1938.76,-137.01 1928.17,-137.36 1930.7,-143.89"/>
</g>
<!-- Node35&#45;&gt;Node13 -->
<g id="edge47" class="edge">
<title>Node35&#45;&gt;Node13</title>
<path fill="none" stroke="midnightblue" d="M1289.21,-179.48C1267.87,-172.93 1242.78,-161.72 1227,-143 1213.47,-126.94 1209.35,-102.62 1208.21,-85.83"/>
<polygon fill="midnightblue" stroke="midnightblue" points="1211.7,-85.47 1207.82,-75.61 1204.7,-85.74 1211.7,-85.47"/>
</g>
<!-- Node35&#45;&gt;Node31 -->
<g id="edge48" class="edge">
<title>Node35&#45;&gt;Node31</title>
<path fill="none" stroke="midnightblue" d="M1329,-179.48C1329,-171.08 1329,-157.98 1329,-147.16"/>
<polygon fill="midnightblue" stroke="midnightblue" points="1332.5,-147.01 1329,-137.01 1325.5,-147.01 1332.5,-147.01"/>
</g>
<!-- Node36&#45;&gt;Node20 -->
<g id="edge52" class="edge">
<title>Node36&#45;&gt;Node20</title>
<path fill="none" stroke="midnightblue" d="M693.04,-179.49C738.67,-171.27 809.44,-158.13 879.86,-143.19"/>
<polygon fill="midnightblue" stroke="midnightblue" points="880.74,-146.58 889.79,-141.07 879.28,-139.74 880.74,-146.58"/>
</g>
<!-- Node36&#45;&gt;Node28 -->
<g id="edge53" class="edge">
<title>Node36&#45;&gt;Node28</title>
<path fill="none" stroke="midnightblue" d="M670.07,-179.48C695.77,-170.74 736.45,-156.91 768.96,-145.86"/>
<polygon fill="midnightblue" stroke="midnightblue" points="770.41,-149.06 778.76,-142.52 768.16,-142.43 770.41,-149.06"/>
</g>
<!-- Node37 -->
<g id="node37" class="node">
<title>Node37</title>
<g id="a_node37"><a xlink:title=" ">
<polygon fill="none" stroke="#bfbfbf" points="510.5,-118 510.5,-137 557.5,-137 557.5,-118 510.5,-118"/>
<text text-anchor="middle" x="534" y="-125" font-family="Helvetica,sans-Serif" font-size="10.00">queue</text>
</a>
</g>
</g>
<!-- Node36&#45;&gt;Node37 -->
<g id="edge50" class="edge">
<title>Node36&#45;&gt;Node37</title>
<path fill="none" stroke="midnightblue" d="M629.1,-179.48C610.72,-169.62 580.24,-153.29 558.76,-141.77"/>
<polygon fill="midnightblue" stroke="midnightblue" points="560.34,-138.65 549.87,-137.01 557.03,-144.82 560.34,-138.65"/>
</g>
<!-- Node38 -->
<g id="node38" class="node">
<title>Node38</title>
<g id="a_node38"><a xlink:title=" ">
<polygon fill="none" stroke="#bfbfbf" points="575.5,-118 575.5,-137 618.5,-137 618.5,-118 575.5,-118"/>
<text text-anchor="middle" x="597" y="-125" font-family="Helvetica,sans-Serif" font-size="10.00">stack</text>
</a>
</g>
</g>
<!-- Node36&#45;&gt;Node38 -->
<g id="edge51" class="edge">
<title>Node36&#45;&gt;Node38</title>
<path fill="none" stroke="midnightblue" d="M638.12,-179.48C630.85,-170.46 619.2,-156.02 610.16,-144.81"/>
<polygon fill="midnightblue" stroke="midnightblue" points="612.87,-142.59 603.86,-137.01 607.42,-146.99 612.87,-142.59"/>
</g>
<!-- Node39 -->
<g id="node39" class="node">
<title>Node39</title>
<g id="a_node39"><a xlink:title=" ">
<polygon fill="none" stroke="#bfbfbf" points="636.5,-112.5 636.5,-142.5 749.5,-142.5 749.5,-112.5 636.5,-112.5"/>
<text text-anchor="start" x="644.5" y="-130.5" font-family="Helvetica,sans-Serif" font-size="10.00">absl/container/node</text>
<text text-anchor="middle" x="693" y="-119.5" font-family="Helvetica,sans-Serif" font-size="10.00">_hash_map.h</text>
</a>
</g>
</g>
<!-- Node36&#45;&gt;Node39 -->
<g id="edge54" class="edge">
<title>Node36&#45;&gt;Node39</title>
<path fill="none" stroke="midnightblue" d="M651.88,-179.48C657.95,-171.94 667.08,-160.63 675.2,-150.57"/>
<polygon fill="midnightblue" stroke="midnightblue" points="678.13,-152.5 681.69,-142.52 672.68,-148.11 678.13,-152.5"/>
</g>
<!-- Node40 -->
<g id="node40" class="node">
<title>Node40</title>
<g id="a_node40"><a xlink:title=" ">
<polygon fill="none" stroke="#bfbfbf" points="379.5,-112.5 379.5,-142.5 492.5,-142.5 492.5,-112.5 379.5,-112.5"/>
<text text-anchor="start" x="387.5" y="-130.5" font-family="Helvetica,sans-Serif" font-size="10.00">absl/container/node</text>
<text text-anchor="middle" x="436" y="-119.5" font-family="Helvetica,sans-Serif" font-size="10.00">_hash_set.h</text>
</a>
</g>
</g>
<!-- Node36&#45;&gt;Node40 -->
<g id="edge55" class="edge">
<title>Node36&#45;&gt;Node40</title>
<path fill="none" stroke="midnightblue" d="M615.06,-179.48C583.84,-170.59 534.1,-156.43 494.96,-145.29"/>
<polygon fill="midnightblue" stroke="midnightblue" points="495.83,-141.89 485.26,-142.52 493.92,-148.63 495.83,-141.89"/>
</g>
<!-- Node36&#45;&gt;Node41 -->
<g id="edge56" class="edge">
<title>Node36&#45;&gt;Node41</title>
<path fill="none" stroke="midnightblue" d="M584.38,-179.55C528.48,-171.42 443.32,-158.14 370,-143 364.86,-141.94 359.49,-140.73 354.17,-139.48"/>
<polygon fill="midnightblue" stroke="midnightblue" points="354.65,-135.99 344.1,-137.03 352.99,-142.79 354.65,-135.99"/>
</g>
<!-- Node41&#45;&gt;Node14 -->
<g id="edge57" class="edge">
<title>Node41&#45;&gt;Node14</title>
<path fill="none" stroke="midnightblue" d="M289.36,-117.98C262.26,-107.77 216.69,-90.61 186,-79.05"/>
<polygon fill="midnightblue" stroke="midnightblue" points="187.19,-75.76 176.6,-75.51 184.72,-82.31 187.19,-75.76"/>
</g>
<!-- Node42&#45;&gt;Node7 -->
<g id="edge65" class="edge">
<title>Node42&#45;&gt;Node7</title>
<path fill="none" stroke="midnightblue" d="M1444,-235.08C1444,-228.01 1444,-217.86 1444,-208.99"/>
<polygon fill="midnightblue" stroke="midnightblue" points="1447.5,-208.75 1444,-198.75 1440.5,-208.75 1447.5,-208.75"/>
</g>
<!-- Node42&#45;&gt;Node11 -->
<g id="edge62" class="edge">
<title>Node42&#45;&gt;Node11</title>
<path fill="none" stroke="midnightblue" d="M1484.31,-240.44C1534.5,-235.18 1622.35,-223.22 1694,-199 1712.45,-192.76 1714.38,-184.72 1733,-179 1858.42,-140.47 1898.17,-172.57 2026,-143 2029.41,-142.21 2032.93,-141.25 2036.42,-140.19"/>
<polygon fill="midnightblue" stroke="midnightblue" points="2037.6,-143.49 2046.02,-137.06 2035.43,-136.83 2037.6,-143.49"/>
</g>
<!-- Node42&#45;&gt;Node27 -->
<g id="edge64" class="edge">
<title>Node42&#45;&gt;Node27</title>
<path fill="none" stroke="midnightblue" d="M1403.68,-237.54C1343.03,-227.82 1228.22,-209.42 1160.59,-198.59"/>
<polygon fill="midnightblue" stroke="midnightblue" points="1160.98,-195.11 1150.56,-196.98 1159.88,-202.02 1160.98,-195.11"/>
</g>
<!-- Node43 -->
<g id="node43" class="node">
<title>Node43</title>
<g id="a_node43"><a xlink:title=" ">
<polygon fill="none" stroke="#bfbfbf" points="1741.5,-179.5 1741.5,-198.5 1806.5,-198.5 1806.5,-179.5 1741.5,-179.5"/>
<text text-anchor="middle" x="1774" y="-186.5" font-family="Helvetica,sans-Serif" font-size="10.00">stdexcept</text>
</a>
</g>
</g>
<!-- Node42&#45;&gt;Node43 -->
<g id="edge63" class="edge">
<title>Node42&#45;&gt;Node43</title>
<path fill="none" stroke="midnightblue" d="M1484.37,-237.99C1539.34,-229.71 1640.76,-214.11 1727,-199 1728.46,-198.74 1729.94,-198.48 1731.44,-198.21"/>
<polygon fill="midnightblue" stroke="midnightblue" points="1732.21,-201.63 1741.41,-196.38 1730.94,-194.74 1732.21,-201.63"/>
</g>
</g>
</svg>
