<?xml version="1.0" encoding="UTF-8" standalone="no"?>
<!DOCTYPE svg PUBLIC "-//W3C//DTD SVG 1.1//EN"
 "http://www.w3.org/Graphics/SVG/1.1/DTD/svg11.dtd">
<!-- Generated by graphviz version 2.43.0 (0)
 -->
<!-- Title: include/mim/analyses/cfg.h Pages: 1 -->
<!--zoomable 236 -->

<svg id="main" version="1.1" xmlns="http://www.w3.org/2000/svg" xmlns:xlink="http://www.w3.org/1999/xlink" xml:space="preserve" onload="init(evt)">

<style type="text/css"><![CDATA[
.node, .edge {opacity: 0.7;}
.node.selected, .edge.selected {opacity: 1;}
.edge:hover path { stroke: red; }
.edge:hover polygon { stroke: red; fill: red; }
]]></style>

<defs>
  <circle id="rim" cx="0" cy="0" r="7"/>
  <circle id="rim2" cx="0" cy="0" r="3.5"/>
  <g id="zoomPlus">
    <use xlink:href="#rim" fill="#404040"><set attributeName="fill" to="#808080" begin="zoomplus.mouseover" end="zoomplus.mouseout"/></use>
    <path d="M-4,0h8M0,-4v8" fill="none" stroke="white" stroke-width="1.5" pointer-events="none"/>
  </g>
  <g id="zoomMin">
    <use xlink:href="#rim" fill="#404040"><set attributeName="fill" to="#808080" begin="zoomminus.mouseover" end="zoomminus.mouseout"/></use>
    <path d="M-4,0h8" fill="none" stroke="white" stroke-width="1.5" pointer-events="none"/>
  </g>
  <g id="arrowUp" transform="translate(30 24)">
    <use xlink:href="#rim"/>
    <path pointer-events="none" fill="none" stroke="white" stroke-width="1.5" d="M0,-3.0v7 M-2.5,-0.5L0,-3.0L2.5,-0.5"/>
  </g>
  <g id="arrowRight" transform="rotate(90) translate(36 -43)">
    <use xlink:href="#rim"/>
    <path pointer-events="none" fill="none" stroke="white" stroke-width="1.5" d="M0,-3.0v7 M-2.5,-0.5L0,-3.0L2.5,-0.5"/>
  </g>
  <g id="arrowDown" transform="rotate(180) translate(-30 -48)">
    <use xlink:href="#rim"/>
    <path pointer-events="none" fill="none" stroke="white" stroke-width="1.5" d="M0,-3.0v7 M-2.5,-0.5L0,-3.0L2.5,-0.5"/>
  </g>
  <g id="arrowLeft" transform="rotate(270) translate(-36 17)">
    <use xlink:href="#rim"/>
    <path pointer-events="none" fill="none" stroke="white" stroke-width="1.5" d="M0,-3.0v7 M-2.5,-0.5L0,-3.0L2.5,-0.5"/>
  </g>
  <g id="resetDef">
    <use xlink:href="#rim2" fill="#404040"><set attributeName="fill" to="#808080" begin="reset.mouseover" end="reset.mouseout"/></use>
  </g>
</defs>
<script type="application/ecmascript">
var viewWidth = 1370;
var viewHeight = 236;
var sectionId = 'dynsection-1';
</script>
<script type="application/ecmascript" xlink:href="svg.min.js"/>
<svg id="graph" class="graph">
<g id="viewport">
<title>include/mim/analyses/cfg.h</title>
<!-- Node1 -->
<g id="Node000001" class="node">
<title>Node1</title>
<g id="a_Node000001"><a xlink:title=" ">
<polygon fill="#999999" stroke="#666666" points="602.5,-228 478.5,-228 478.5,-198 602.5,-198 602.5,-228"/>
<text text-anchor="start" x="486.5" y="-216" font-family="Helvetica,sans-Serif" font-size="10.00">include/mim/analyses</text>
<text text-anchor="middle" x="540.5" y="-205" font-family="Helvetica,sans-Serif" font-size="10.00">/cfg.h</text>
</a>
</g>
</g>
<!-- Node2 -->
<g id="Node000002" class="node">
<title>Node2</title>
<g id="a_Node000002"><a xlink:href="domfrontier_8h.html" target="_top" xlink:title=" ">
<polygon fill="white" stroke="#666666" points="329.5,-162 205.5,-162 205.5,-132 329.5,-132 329.5,-162"/>
<text text-anchor="start" x="213.5" y="-150" font-family="Helvetica,sans-Serif" font-size="10.00">include/mim/analyses</text>
<text text-anchor="middle" x="267.5" y="-139" font-family="Helvetica,sans-Serif" font-size="10.00">/domfrontier.h</text>
</a>
</g>
</g>
<!-- Node1&#45;&gt;Node2 -->
<g id="edge1_Node000001_Node000002" class="edge">
<title>Node1&#45;&gt;Node2</title>
<g id="a_edge1_Node000001_Node000002"><a xlink:title=" ">
<path fill="none" stroke="#63b8ff" d="M470.75,-195.65C426.39,-185.25 369.56,-171.93 327.27,-162.01"/>
<polygon fill="#63b8ff" stroke="#63b8ff" points="470.05,-199.08 480.59,-197.95 471.65,-192.26 470.05,-199.08"/>
</a>
</g>
</g>
<!-- Node3 -->
<g id="Node000003" class="node">
<title>Node3</title>
<g id="a_Node000003"><a xlink:href="cfg_8cpp.html" target="_top" xlink:title=" ">
<polygon fill="white" stroke="#666666" points="342,-90.5 201,-90.5 201,-71.5 342,-71.5 342,-90.5"/>
<text text-anchor="middle" x="271.5" y="-78.5" font-family="Helvetica,sans-Serif" font-size="10.00">src/mim/analyses/cfg.cpp</text>
</a>
</g>
</g>
<!-- Node1&#45;&gt;Node3 -->
<g id="edge21_Node000001_Node000003" class="edge">
<title>Node1&#45;&gt;Node3</title>
<g id="a_edge21_Node000001_Node000003"><a xlink:title=" ">
<path fill="none" stroke="#63b8ff" d="M468.58,-196.29C439.07,-188.28 405.17,-177 376.5,-162 357.43,-152.02 355.57,-145.1 338.5,-132 319.39,-117.33 296.89,-100.66 283.43,-90.75"/>
<polygon fill="#63b8ff" stroke="#63b8ff" points="467.84,-199.72 478.4,-198.88 469.63,-192.95 467.84,-199.72"/>
</a>
</g>
</g>
<!-- Node5 -->
<g id="Node000005" class="node">
<title>Node5</title>
<g id="a_Node000005"><a xlink:href="domtree_8h.html" target="_top" xlink:title=" ">
<polygon fill="white" stroke="#666666" points="509.5,-162 385.5,-162 385.5,-132 509.5,-132 509.5,-162"/>
<text text-anchor="start" x="393.5" y="-150" font-family="Helvetica,sans-Serif" font-size="10.00">include/mim/analyses</text>
<text text-anchor="middle" x="447.5" y="-139" font-family="Helvetica,sans-Serif" font-size="10.00">/domtree.h</text>
</a>
</g>
</g>
<!-- Node1&#45;&gt;Node5 -->
<g id="edge4_Node000001_Node000005" class="edge">
<title>Node1&#45;&gt;Node5</title>
<g id="a_edge4_Node000001_Node000005"><a xlink:title=" ">
<path fill="none" stroke="#63b8ff" d="M511.48,-192.03C497.41,-182.34 480.83,-170.94 468.08,-162.16"/>
<polygon fill="#63b8ff" stroke="#63b8ff" points="509.64,-195.01 519.86,-197.8 513.61,-189.24 509.64,-195.01"/>
</a>
</g>
</g>
<!-- Node7 -->
<g id="Node000007" class="node">
<title>Node7</title>
<g id="a_Node000007"><a xlink:href="schedule_8cpp.html" target="_top" xlink:title=" ">
<polygon fill="white" stroke="#666666" points="715.5,-90.5 545.5,-90.5 545.5,-71.5 715.5,-71.5 715.5,-90.5"/>
<text text-anchor="middle" x="630.5" y="-78.5" font-family="Helvetica,sans-Serif" font-size="10.00">src/mim/analyses/schedule.cpp</text>
</a>
</g>
</g>
<!-- Node1&#45;&gt;Node7 -->
<g id="edge23_Node000001_Node000007" class="edge">
<title>Node1&#45;&gt;Node7</title>
<g id="a_edge23_Node000001_Node000007"><a xlink:title=" ">
<path fill="none" stroke="#63b8ff" d="M541.79,-187.6C543.7,-170.75 548.34,-148.48 559.5,-132 572.35,-113.02 594.97,-98.96 611.23,-90.66"/>
<polygon fill="#63b8ff" stroke="#63b8ff" points="538.28,-187.51 540.89,-197.78 545.26,-188.13 538.28,-187.51"/>
</a>
</g>
</g>
<!-- Node8 -->
<g id="Node000008" class="node">
<title>Node8</title>
<g id="a_Node000008"><a xlink:href="looptree_8h.html" target="_top" xlink:title=" ">
<polygon fill="white" stroke="#666666" points="692.5,-162 568.5,-162 568.5,-132 692.5,-132 692.5,-162"/>
<text text-anchor="start" x="576.5" y="-150" font-family="Helvetica,sans-Serif" font-size="10.00">include/mim/analyses</text>
<text text-anchor="middle" x="630.5" y="-139" font-family="Helvetica,sans-Serif" font-size="10.00">/looptree.h</text>
</a>
</g>
</g>
<!-- Node1&#45;&gt;Node8 -->
<g id="edge9_Node000001_Node000008" class="edge">
<title>Node1&#45;&gt;Node8</title>
<g id="a_edge9_Node000001_Node000008"><a xlink:title=" ">
<path fill="none" stroke="#63b8ff" d="M568.97,-191.75C582.51,-182.13 598.36,-170.86 610.58,-162.16"/>
<polygon fill="#63b8ff" stroke="#63b8ff" points="566.6,-189.15 560.47,-197.8 570.65,-194.85 566.6,-189.15"/>
</a>
</g>
</g>
<!-- Node9 -->
<g id="Node000009" class="node">
<title>Node9</title>
<g id="a_Node000009"><a xlink:href="looptree_8cpp.html" target="_top" xlink:title=" ">
<polygon fill="white" stroke="#666666" points="901,-90.5 734,-90.5 734,-71.5 901,-71.5 901,-90.5"/>
<text text-anchor="middle" x="817.5" y="-78.5" font-family="Helvetica,sans-Serif" font-size="10.00">src/mim/analyses/looptree.cpp</text>
</a>
</g>
</g>
<!-- Node1&#45;&gt;Node9 -->
<g id="edge22_Node000001_Node000009" class="edge">
<title>Node1&#45;&gt;Node9</title>
<g id="a_edge22_Node000001_Node000009"><a xlink:title=" ">
<path fill="none" stroke="#63b8ff" d="M610.28,-195.31C639.26,-187.11 672.77,-175.97 701.5,-162 743.74,-141.47 787.87,-106.73 807.3,-90.65"/>
<polygon fill="#63b8ff" stroke="#63b8ff" points="609.35,-191.93 600.64,-197.97 611.21,-198.68 609.35,-191.93"/>
</a>
</g>
</g>
<!-- Node10 -->
<g id="Node000010" class="node">
<title>Node10</title>
<g id="a_Node000010"><a xlink:href="schedule_8h.html" target="_top" xlink:title=" ">
<polygon fill="white" stroke="#666666" points="1051.5,-162 927.5,-162 927.5,-132 1051.5,-132 1051.5,-162"/>
<text text-anchor="start" x="935.5" y="-150" font-family="Helvetica,sans-Serif" font-size="10.00">include/mim/analyses</text>
<text text-anchor="middle" x="989.5" y="-139" font-family="Helvetica,sans-Serif" font-size="10.00">/schedule.h</text>
</a>
</g>
</g>
<!-- Node1&#45;&gt;Node10 -->
<g id="edge13_Node000001_Node000010" class="edge">
<title>Node1&#45;&gt;Node10</title>
<g id="a_edge13_Node000001_Node000010"><a xlink:title=" ">
<path fill="none" stroke="#63b8ff" d="M613,-201.67C700.16,-189.24 844.92,-168.61 927.24,-156.87"/>
<polygon fill="#63b8ff" stroke="#63b8ff" points="612.34,-198.22 602.93,-203.1 613.33,-205.15 612.34,-198.22"/>
</a>
</g>
</g>
<!-- Node2&#45;&gt;Node3 -->
<g id="edge2_Node000002_Node000003" class="edge">
<title>Node2&#45;&gt;Node3</title>
<g id="a_edge2_Node000002_Node000003"><a xlink:title=" ">
<path fill="none" stroke="#63b8ff" d="M269.02,-121.6C269.7,-110.8 270.45,-98.78 270.95,-90.84"/>
<polygon fill="#63b8ff" stroke="#63b8ff" points="265.52,-121.6 268.39,-131.8 272.5,-122.03 265.52,-121.6"/>
</a>
</g>
</g>
<!-- Node4 -->
<g id="Node000004" class="node">
<title>Node4</title>
<g id="a_Node000004"><a xlink:href="domfrontier_8cpp.html" target="_top" xlink:title=" ">
<polygon fill="white" stroke="#666666" points="183,-90.5 0,-90.5 0,-71.5 183,-71.5 183,-90.5"/>
<text text-anchor="middle" x="91.5" y="-78.5" font-family="Helvetica,sans-Serif" font-size="10.00">src/mim/analyses/domfrontier.cpp</text>
</a>
</g>
</g>
<!-- Node2&#45;&gt;Node4 -->
<g id="edge3_Node000002_Node000004" class="edge">
<title>Node2&#45;&gt;Node4</title>
<g id="a_edge3_Node000002_Node000004"><a xlink:title=" ">
<path fill="none" stroke="#63b8ff" d="M219.15,-128.42C185.24,-116.09 141.4,-100.15 114.92,-90.52"/>
<polygon fill="#63b8ff" stroke="#63b8ff" points="218.28,-131.83 228.88,-131.95 220.67,-125.25 218.28,-131.83"/>
</a>
</g>
</g>
<!-- Node5&#45;&gt;Node3 -->
<g id="edge5_Node000005_Node000003" class="edge">
<title>Node5&#45;&gt;Node3</title>
<g id="a_edge5_Node000005_Node000003"><a xlink:title=" ">
<path fill="none" stroke="#63b8ff" d="M399.15,-128.42C365.24,-116.09 321.4,-100.15 294.92,-90.52"/>
<polygon fill="#63b8ff" stroke="#63b8ff" points="398.28,-131.83 408.88,-131.95 400.67,-125.25 398.28,-131.83"/>
</a>
</g>
</g>
<!-- Node5&#45;&gt;Node4 -->
<g id="edge6_Node000005_Node000004" class="edge">
<title>Node5&#45;&gt;Node4</title>
<g id="a_edge6_Node000005_Node000004"><a xlink:title=" ">
<path fill="none" stroke="#63b8ff" d="M375.34,-133.03C304.79,-120.34 199.41,-101.4 138.87,-90.52"/>
<polygon fill="#63b8ff" stroke="#63b8ff" points="375.03,-136.53 385.49,-134.85 376.27,-129.64 375.03,-136.53"/>
</a>
</g>
</g>
<!-- Node6 -->
<g id="Node000006" class="node">
<title>Node6</title>
<g id="a_Node000006"><a xlink:href="domtree_8cpp.html" target="_top" xlink:title=" ">
<polygon fill="white" stroke="#666666" points="527,-90.5 360,-90.5 360,-71.5 527,-71.5 527,-90.5"/>
<text text-anchor="middle" x="443.5" y="-78.5" font-family="Helvetica,sans-Serif" font-size="10.00">src/mim/analyses/domtree.cpp</text>
</a>
</g>
</g>
<!-- Node5&#45;&gt;Node6 -->
<g id="edge7_Node000005_Node000006" class="edge">
<title>Node5&#45;&gt;Node6</title>
<g id="a_edge7_Node000005_Node000006"><a xlink:title=" ">
<path fill="none" stroke="#63b8ff" d="M445.98,-121.6C445.3,-110.8 444.55,-98.78 444.05,-90.84"/>
<polygon fill="#63b8ff" stroke="#63b8ff" points="442.5,-122.03 446.61,-131.8 449.48,-121.6 442.5,-122.03"/>
</a>
</g>
</g>
<!-- Node5&#45;&gt;Node7 -->
<g id="edge8_Node000005_Node000007" class="edge">
<title>Node5&#45;&gt;Node7</title>
<g id="a_edge8_Node000005_Node000007"><a xlink:title=" ">
<path fill="none" stroke="#63b8ff" d="M497.32,-128.58C532.64,-116.23 578.49,-100.19 606.15,-90.52"/>
<polygon fill="#63b8ff" stroke="#63b8ff" points="495.94,-125.35 487.66,-131.95 498.25,-131.96 495.94,-125.35"/>
</a>
</g>
</g>
<!-- Node8&#45;&gt;Node3 -->
<g id="edge10_Node000008_Node000003" class="edge">
<title>Node8&#45;&gt;Node3</title>
<g id="a_edge10_Node000008_Node000003"><a xlink:title=" ">
<path fill="none" stroke="#63b8ff" d="M558.15,-133.1C487.05,-120.43 380.57,-101.44 319.39,-90.54"/>
<polygon fill="#63b8ff" stroke="#63b8ff" points="557.92,-136.62 568.38,-134.93 559.15,-129.72 557.92,-136.62"/>
</a>
</g>
</g>
<!-- Node8&#45;&gt;Node7 -->
<g id="edge12_Node000008_Node000007" class="edge">
<title>Node8&#45;&gt;Node7</title>
<g id="a_edge12_Node000008_Node000007"><a xlink:title=" ">
<path fill="none" stroke="#63b8ff" d="M630.5,-121.6C630.5,-110.8 630.5,-98.78 630.5,-90.84"/>
<polygon fill="#63b8ff" stroke="#63b8ff" points="627,-121.8 630.5,-131.8 634,-121.8 627,-121.8"/>
</a>
</g>
</g>
<!-- Node8&#45;&gt;Node9 -->
<g id="edge11_Node000008_Node000009" class="edge">
<title>Node8&#45;&gt;Node9</title>
<g id="a_edge11_Node000008_Node000009"><a xlink:title=" ">
<path fill="none" stroke="#63b8ff" d="M681.41,-128.58C717.5,-116.23 764.36,-100.19 792.61,-90.52"/>
<polygon fill="#63b8ff" stroke="#63b8ff" points="679.87,-125.41 671.54,-131.95 682.13,-132.03 679.87,-125.41"/>
</a>
</g>
</g>
<!-- Node10&#45;&gt;Node7 -->
<g id="edge19_Node000010_Node000007" class="edge">
<title>Node10&#45;&gt;Node7</title>
<g id="a_edge19_Node000010_Node000007"><a xlink:title=" ">
<path fill="none" stroke="#63b8ff" d="M917.15,-133.1C846.05,-120.43 739.57,-101.44 678.39,-90.54"/>
<polygon fill="#63b8ff" stroke="#63b8ff" points="916.92,-136.62 927.38,-134.93 918.15,-129.72 916.92,-136.62"/>
</a>
</g>
</g>
<!-- Node11 -->
<g id="Node000011" class="node">
<title>Node11</title>
<g id="a_Node000011"><a xlink:href="emitter_8h.html" target="_top" xlink:title=" ">
<polygon fill="white" stroke="#666666" points="1059.5,-90.5 919.5,-90.5 919.5,-71.5 1059.5,-71.5 1059.5,-90.5"/>
<text text-anchor="middle" x="989.5" y="-78.5" font-family="Helvetica,sans-Serif" font-size="10.00">include/mim/be/emitter.h</text>
</a>
</g>
</g>
<!-- Node10&#45;&gt;Node11 -->
<g id="edge14_Node000010_Node000011" class="edge">
<title>Node10&#45;&gt;Node11</title>
<g id="a_edge14_Node000010_Node000011"><a xlink:title=" ">
<path fill="none" stroke="#63b8ff" d="M989.5,-121.6C989.5,-110.8 989.5,-98.78 989.5,-90.84"/>
<polygon fill="#63b8ff" stroke="#63b8ff" points="986,-121.8 989.5,-131.8 993,-121.8 986,-121.8"/>
</a>
</g>
</g>
<!-- Node13 -->
<g id="Node000013" class="node">
<title>Node13</title>
<g id="a_Node000013"><a xlink:href="add__mem_8h.html" target="_top" xlink:title=" ">
<polygon fill="white" stroke="#666666" points="1207.5,-96 1077.5,-96 1077.5,-66 1207.5,-66 1207.5,-96"/>
<text text-anchor="start" x="1085.5" y="-84" font-family="Helvetica,sans-Serif" font-size="10.00">include/mim/plug/mem</text>
<text text-anchor="middle" x="1142.5" y="-73" font-family="Helvetica,sans-Serif" font-size="10.00">/phase/add_mem.h</text>
</a>
</g>
</g>
<!-- Node10&#45;&gt;Node13 -->
<g id="edge16_Node000010_Node000013" class="edge">
<title>Node10&#45;&gt;Node13</title>
<g id="a_edge16_Node000010_Node000013"><a xlink:title=" ">
<path fill="none" stroke="#63b8ff" d="M1032.4,-128.05C1056.64,-117.91 1086.5,-105.43 1109,-96.01"/>
<polygon fill="#63b8ff" stroke="#63b8ff" points="1030.95,-124.87 1023.08,-131.95 1033.65,-131.32 1030.95,-124.87"/>
</a>
</g>
</g>
<!-- Node15 -->
<g id="Node000015" class="node">
<title>Node15</title>
<g id="a_Node000015"><a xlink:href="add__mem_8cpp.html" target="_top" xlink:title=" ">
<polygon fill="white" stroke="#666666" points="1362,-30 1221,-30 1221,0 1362,0 1362,-30"/>
<text text-anchor="start" x="1229" y="-18" font-family="Helvetica,sans-Serif" font-size="10.00">src/mim/plug/mem/phase</text>
<text text-anchor="middle" x="1291.5" y="-7" font-family="Helvetica,sans-Serif" font-size="10.00">/add_mem.cpp</text>
</a>
</g>
</g>
<!-- Node10&#45;&gt;Node15 -->
<g id="edge20_Node000010_Node000015" class="edge">
<title>Node10&#45;&gt;Node15</title>
<g id="a_edge20_Node000010_Node000015"><a xlink:title=" ">
<path fill="none" stroke="#63b8ff" d="M1061.87,-141.11C1108.53,-135.39 1169.12,-122.96 1216.5,-96 1245.46,-79.53 1269.87,-48.19 1282.42,-30.01"/>
<polygon fill="#63b8ff" stroke="#63b8ff" points="1061.37,-137.65 1051.84,-142.27 1062.17,-144.6 1061.37,-137.65"/>
</a>
</g>
</g>
<!-- Node12 -->
<g id="Node000012" class="node">
<title>Node12</title>
<g id="a_Node000012"><a xlink:href="ll_8cpp.html" target="_top" xlink:title=" ">
<polygon fill="white" stroke="#666666" points="1026,-30 907,-30 907,0 1026,0 1026,-30"/>
<text text-anchor="start" x="915" y="-18" font-family="Helvetica,sans-Serif" font-size="10.00">src/mim/plug/core/be</text>
<text text-anchor="middle" x="966.5" y="-7" font-family="Helvetica,sans-Serif" font-size="10.00">/ll.cpp</text>
</a>
</g>
</g>
<!-- Node11&#45;&gt;Node12 -->
<g id="edge15_Node000011_Node000012" class="edge">
<title>Node11&#45;&gt;Node12</title>
<g id="a_edge15_Node000011_Node000012"><a xlink:title=" ">
<path fill="none" stroke="#63b8ff" d="M982.91,-61.67C979.34,-51.72 974.99,-39.61 971.66,-30.36"/>
<polygon fill="#63b8ff" stroke="#63b8ff" points="979.72,-63.14 986.4,-71.37 986.31,-60.77 979.72,-63.14"/>
</a>
</g>
</g>
<!-- Node14 -->
<g id="Node000014" class="node">
<title>Node14</title>
<g id="a_Node000014"><a xlink:href="mem_8cpp.html" target="_top" xlink:title=" ">
<polygon fill="white" stroke="#666666" points="1202.5,-24.5 1044.5,-24.5 1044.5,-5.5 1202.5,-5.5 1202.5,-24.5"/>
<text text-anchor="middle" x="1123.5" y="-12.5" font-family="Helvetica,sans-Serif" font-size="10.00">src/mim/plug/mem/mem.cpp</text>
</a>
</g>
</g>
<!-- Node13&#45;&gt;Node14 -->
<g id="edge17_Node000013_Node000014" class="edge">
<title>Node13&#45;&gt;Node14</title>
<g id="a_edge17_Node000013_Node000014"><a xlink:title=" ">
<path fill="none" stroke="#63b8ff" d="M1135.36,-55.94C1132.13,-45.06 1128.51,-32.86 1126.13,-24.84"/>
<polygon fill="#63b8ff" stroke="#63b8ff" points="1132.08,-57.21 1138.28,-65.8 1138.79,-55.21 1132.08,-57.21"/>
</a>
</g>
</g>
<!-- Node13&#45;&gt;Node15 -->
<g id="edge18_Node000013_Node000015" class="edge">
<title>Node13&#45;&gt;Node15</title>
<g id="a_edge18_Node000013_Node000015"><a xlink:title=" ">
<path fill="none" stroke="#63b8ff" d="M1184.59,-61.92C1208.14,-51.8 1237.06,-39.38 1258.88,-30.01"/>
<polygon fill="#63b8ff" stroke="#63b8ff" points="1183.01,-58.79 1175.2,-65.95 1185.77,-65.22 1183.01,-58.79"/>
</a>
</g>
</g>
</g>
</svg>

<g id="navigator" transform="translate(0 0)" fill="#404254">
  <rect fill="#f2f5e9" fill-opacity="0.5" stroke="#606060" stroke-width=".5" x="0" y="0" width="60" height="60"/>
  <use id="zoomplus" xlink:href="#zoomPlus" x="17" y="9" onmousedown="handleZoom(evt,'in')"/>
  <use id="zoomminus" xlink:href="#zoomMin" x="42" y="9" onmousedown="handleZoom(evt,'out')"/>
  <use id="reset" xlink:href="#resetDef" x="30" y="36" onmousedown="handleReset()"/>
   <use id="arrowup" xlink:href="#arrowUp" x="0" y="0" onmousedown="handlePan(0,-1)"/>
  <use id="arrowright" xlink:href="#arrowRight" x="0" y="0" onmousedown="handlePan(1,0)"/>
  <use id="arrowdown" xlink:href="#arrowDown" x="0" y="0" onmousedown="handlePan(0,1)"/>
  <use id="arrowleft" xlink:href="#arrowLeft" x="0" y="0" onmousedown="handlePan(-1,0)"/>
</g>
<svg viewBox="0 0 15 15" width="100%" height="30px" preserveAspectRatio="xMaxYMin meet">
 <g id="arrow_out" transform="scale(0.3 0.3)">
  <a xlink:href="cfg_8h__dep__incl_org.svg" target="_base">
   <rect id="button" ry="5" rx="5" y="6" x="6" height="38" width="38"
        fill="#f2f5e9" fill-opacity="0.5" stroke="#606060" stroke-width="1.0"/>
   <path id="arrow"
     d="M 11.500037,31.436501 C 11.940474,20.09759 22.043105,11.32322 32.158766,21.979434 L 37.068811,17.246167 C 37.068811,17.246167 37.088388,32 37.088388,32 L 22.160133,31.978069 C 22.160133,31.978069 26.997745,27.140456 26.997745,27.140456 C 18.528582,18.264221 13.291696,25.230495 11.500037,31.436501 z"
     style="fill:#404040;"/>
  </a>
 </g>
</svg>

<style type='text/css'>
<![CDATA[
[data-mouse-over-selected='false'] { opacity: 0.7; }
[data-mouse-over-selected='true']  { opacity: 1.0; }
]]>
</style>
<script type="application/ecmascript"><![CDATA[
document.addEventListener('DOMContentLoaded', (event) => {
  highlightEdges();
  highlightAdjacentNodes();
});
]]></script>
</svg>
