<?xml version="1.0" encoding="UTF-8" standalone="no"?>
<!DOCTYPE svg PUBLIC "-//W3C//DTD SVG 1.1//EN"
 "http://www.w3.org/Graphics/SVG/1.1/DTD/svg11.dtd">
<!-- Generated by graphviz version 2.43.0 (0)
 -->
<!-- Title: thorin/check.cpp Pages: 1 -->
<svg width="1645pt" height="498pt"
 viewBox="0.00 0.00 1645.37 498.00" xmlns="http://www.w3.org/2000/svg" xmlns:xlink="http://www.w3.org/1999/xlink">
<g id="graph0" class="graph" transform="scale(1 1) rotate(0) translate(4 494)">
<title>thorin/check.cpp</title>
<!-- Node1 -->
<g id="node1" class="node">
<title>Node1</title>
<g id="a_node1"><a xlink:title=" ">
<polygon fill="#bfbfbf" stroke="black" points="213.37,-470.5 213.37,-489.5 310.37,-489.5 310.37,-470.5 213.37,-470.5"/>
<text text-anchor="middle" x="261.87" y="-477.5" font-family="Helvetica,sans-Serif" font-size="10.00">thorin/check.cpp</text>
</a>
</g>
</g>
<!-- Node2 -->
<g id="node2" class="node">
<title>Node2</title>
<g id="a_node2"><a xlink:href="check_8h.html" target="_top" xlink:title=" ">
<polygon fill="none" stroke="black" points="218.87,-414.5 218.87,-433.5 304.87,-433.5 304.87,-414.5 218.87,-414.5"/>
<text text-anchor="middle" x="261.87" y="-421.5" font-family="Helvetica,sans-Serif" font-size="10.00">thorin/check.h</text>
</a>
</g>
</g>
<!-- Node1&#45;&gt;Node2 -->
<g id="edge1" class="edge">
<title>Node1&#45;&gt;Node2</title>
<path fill="none" stroke="midnightblue" d="M261.87,-470.08C261.87,-463.01 261.87,-452.86 261.87,-443.99"/>
<polygon fill="midnightblue" stroke="midnightblue" points="265.37,-443.75 261.87,-433.75 258.37,-443.75 265.37,-443.75"/>
</g>
<!-- Node40 -->
<g id="node38" class="node">
<title>Node40</title>
<g id="a_node38"><a xlink:href="error_8h.html" target="_top" xlink:title=" ">
<polygon fill="none" stroke="black" points="203.87,-235.5 203.87,-254.5 283.87,-254.5 283.87,-235.5 203.87,-235.5"/>
<text text-anchor="middle" x="243.87" y="-242.5" font-family="Helvetica,sans-Serif" font-size="10.00">thorin/error.h</text>
</a>
</g>
</g>
<!-- Node1&#45;&gt;Node40 -->
<g id="edge51" class="edge">
<title>Node1&#45;&gt;Node40</title>
<path fill="none" stroke="midnightblue" d="M213.21,-475.23C153.72,-467.72 55.36,-445.24 9.87,-378 -39.49,-305.03 111.35,-267.88 193.86,-253.42"/>
<polygon fill="midnightblue" stroke="midnightblue" points="194.53,-256.85 203.8,-251.72 193.36,-249.95 194.53,-256.85"/>
</g>
<!-- Node42 -->
<g id="node40" class="node">
<title>Node42</title>
<g id="a_node40"><a xlink:href="world_8h.html" target="_top" xlink:title=" ">
<polygon fill="none" stroke="black" points="543.87,-414.5 543.87,-433.5 627.87,-433.5 627.87,-414.5 543.87,-414.5"/>
<text text-anchor="middle" x="585.87" y="-421.5" font-family="Helvetica,sans-Serif" font-size="10.00">thorin/world.h</text>
</a>
</g>
</g>
<!-- Node1&#45;&gt;Node42 -->
<g id="edge56" class="edge">
<title>Node1&#45;&gt;Node42</title>
<path fill="none" stroke="midnightblue" d="M310.38,-470.92C370.41,-460.91 472.23,-443.94 533.85,-433.67"/>
<polygon fill="midnightblue" stroke="midnightblue" points="534.46,-437.12 543.75,-432.02 533.31,-430.21 534.46,-437.12"/>
</g>
<!-- Node3 -->
<g id="node3" class="node">
<title>Node3</title>
<g id="a_node3"><a xlink:title=" ">
<polygon fill="none" stroke="#bfbfbf" points="19.37,-353 19.37,-372 66.37,-372 66.37,-353 19.37,-353"/>
<text text-anchor="middle" x="42.87" y="-360" font-family="Helvetica,sans-Serif" font-size="10.00">deque</text>
</a>
</g>
</g>
<!-- Node2&#45;&gt;Node3 -->
<g id="edge2" class="edge">
<title>Node2&#45;&gt;Node3</title>
<path fill="none" stroke="midnightblue" d="M221.58,-414.45C184.65,-406.27 128.6,-392.98 80.87,-378 78.45,-377.24 75.97,-376.41 73.48,-375.54"/>
<polygon fill="midnightblue" stroke="midnightblue" points="74.61,-372.23 64.02,-372.09 72.21,-378.8 74.61,-372.23"/>
</g>
<!-- Node4 -->
<g id="node4" class="node">
<title>Node4</title>
<g id="a_node4"><a xlink:href="def_8h.html" target="_top" xlink:title=" ">
<polygon fill="none" stroke="black" points="856.87,-235.5 856.87,-254.5 928.87,-254.5 928.87,-235.5 856.87,-235.5"/>
<text text-anchor="middle" x="892.87" y="-242.5" font-family="Helvetica,sans-Serif" font-size="10.00">thorin/def.h</text>
</a>
</g>
</g>
<!-- Node2&#45;&gt;Node4 -->
<g id="edge3" class="edge">
<title>Node2&#45;&gt;Node4</title>
<path fill="none" stroke="midnightblue" d="M303.55,-414.5C340.76,-406.48 396.52,-393.42 443.87,-378 478.56,-366.7 485.31,-358.68 519.87,-347 635.73,-307.85 775.71,-273.25 846.72,-256.56"/>
<polygon fill="midnightblue" stroke="midnightblue" points="847.74,-259.92 856.68,-254.23 846.15,-253.1 847.74,-259.92"/>
</g>
<!-- Node5 -->
<g id="node5" class="node">
<title>Node5</title>
<g id="a_node5"><a xlink:title=" ">
<polygon fill="none" stroke="#bfbfbf" points="989.87,-179.5 989.87,-198.5 1045.87,-198.5 1045.87,-179.5 989.87,-179.5"/>
<text text-anchor="middle" x="1017.87" y="-186.5" font-family="Helvetica,sans-Serif" font-size="10.00">optional</text>
</a>
</g>
</g>
<!-- Node4&#45;&gt;Node5 -->
<g id="edge4" class="edge">
<title>Node4&#45;&gt;Node5</title>
<path fill="none" stroke="midnightblue" d="M912.68,-235.44C933.16,-226.6 965.35,-212.69 988.73,-202.59"/>
<polygon fill="midnightblue" stroke="midnightblue" points="990.36,-205.7 998.16,-198.52 987.59,-199.27 990.36,-205.7"/>
</g>
<!-- Node6 -->
<g id="node6" class="node">
<title>Node6</title>
<g id="a_node6"><a xlink:title=" ">
<polygon fill="none" stroke="#bfbfbf" points="1078.37,-56.5 1078.37,-75.5 1125.37,-75.5 1125.37,-56.5 1078.37,-56.5"/>
<text text-anchor="middle" x="1101.87" y="-63.5" font-family="Helvetica,sans-Serif" font-size="10.00">vector</text>
</a>
</g>
</g>
<!-- Node4&#45;&gt;Node6 -->
<g id="edge5" class="edge">
<title>Node4&#45;&gt;Node6</title>
<path fill="none" stroke="midnightblue" d="M899.48,-235.4C917.03,-212.96 967.02,-151.64 1018.87,-112 1035.52,-99.27 1056.26,-88.02 1072.83,-79.96"/>
<polygon fill="midnightblue" stroke="midnightblue" points="1074.51,-83.04 1082.05,-75.59 1071.51,-76.71 1074.51,-83.04"/>
</g>
<!-- Node7 -->
<g id="node7" class="node">
<title>Node7</title>
<g id="a_node7"><a xlink:href="debug_8h.html" target="_top" xlink:title=" ">
<polygon fill="none" stroke="black" points="595.37,-179.5 595.37,-198.5 682.37,-198.5 682.37,-179.5 595.37,-179.5"/>
<text text-anchor="middle" x="638.87" y="-186.5" font-family="Helvetica,sans-Serif" font-size="10.00">thorin/debug.h</text>
</a>
</g>
</g>
<!-- Node4&#45;&gt;Node7 -->
<g id="edge6" class="edge">
<title>Node4&#45;&gt;Node7</title>
<path fill="none" stroke="midnightblue" d="M856.75,-236.32C812.8,-226.98 738.35,-211.15 688.91,-200.64"/>
<polygon fill="midnightblue" stroke="midnightblue" points="689.57,-197.2 679.06,-198.54 688.11,-204.05 689.57,-197.2"/>
</g>
<!-- Node11 -->
<g id="node11" class="node">
<title>Node11</title>
<g id="a_node11"><a xlink:href="tables_8h.html" target="_top" xlink:title=" ">
<polygon fill="none" stroke="black" points="739.37,-179.5 739.37,-198.5 826.37,-198.5 826.37,-179.5 739.37,-179.5"/>
<text text-anchor="middle" x="782.87" y="-186.5" font-family="Helvetica,sans-Serif" font-size="10.00">thorin/tables.h</text>
</a>
</g>
</g>
<!-- Node4&#45;&gt;Node11 -->
<g id="edge10" class="edge">
<title>Node4&#45;&gt;Node11</title>
<path fill="none" stroke="midnightblue" d="M875.2,-235.32C857.48,-226.62 829.97,-213.12 809.58,-203.11"/>
<polygon fill="midnightblue" stroke="midnightblue" points="811.02,-199.92 800.5,-198.65 807.93,-206.2 811.02,-199.92"/>
</g>
<!-- Node13 -->
<g id="node13" class="node">
<title>Node13</title>
<g id="a_node13"><a xlink:href="print_8h.html" target="_top" xlink:title=" ">
<polygon fill="none" stroke="black" points="389.87,-118 389.87,-137 487.87,-137 487.87,-118 389.87,-118"/>
<text text-anchor="middle" x="438.87" y="-125" font-family="Helvetica,sans-Serif" font-size="10.00">thorin/util/print.h</text>
</a>
</g>
</g>
<!-- Node4&#45;&gt;Node13 -->
<g id="edge50" class="edge">
<title>Node4&#45;&gt;Node13</title>
<path fill="none" stroke="midnightblue" d="M856.8,-236.2C823.51,-228.49 773.01,-215.46 730.87,-199 712.73,-191.91 710.31,-185.29 691.87,-179 608.87,-150.69 583.6,-161.47 497.87,-143 492.78,-141.9 487.46,-140.69 482.19,-139.45"/>
<polygon fill="midnightblue" stroke="midnightblue" points="482.72,-135.98 472.18,-137.04 481.08,-142.78 482.72,-135.98"/>
</g>
<!-- Node27 -->
<g id="node25" class="node">
<title>Node27</title>
<g id="a_node25"><a xlink:href="array_8h.html" target="_top" xlink:title=" ">
<polygon fill="none" stroke="black" points="719.87,-118 719.87,-137 819.87,-137 819.87,-118 719.87,-118"/>
<text text-anchor="middle" x="769.87" y="-125" font-family="Helvetica,sans-Serif" font-size="10.00">thorin/util/array.h</text>
</a>
</g>
</g>
<!-- Node4&#45;&gt;Node27 -->
<g id="edge26" class="edge">
<title>Node4&#45;&gt;Node27</title>
<path fill="none" stroke="midnightblue" d="M886,-235.09C875.77,-222.09 855.6,-197.45 835.87,-179 821.83,-165.87 804.52,-152.72 791.16,-143.14"/>
<polygon fill="midnightblue" stroke="midnightblue" points="792.81,-140.02 782.62,-137.12 788.77,-145.74 792.81,-140.02"/>
</g>
<!-- Node33 -->
<g id="node31" class="node">
<title>Node33</title>
<g id="a_node31"><a xlink:href="cast_8h.html" target="_top" xlink:title=" ">
<polygon fill="none" stroke="black" points="837.87,-118 837.87,-137 933.87,-137 933.87,-118 837.87,-118"/>
<text text-anchor="middle" x="885.87" y="-125" font-family="Helvetica,sans-Serif" font-size="10.00">thorin/util/cast.h</text>
</a>
</g>
</g>
<!-- Node4&#45;&gt;Node33 -->
<g id="edge37" class="edge">
<title>Node4&#45;&gt;Node33</title>
<path fill="none" stroke="midnightblue" d="M892.34,-235.32C891.22,-216.76 888.56,-172.84 887.02,-147.47"/>
<polygon fill="midnightblue" stroke="midnightblue" points="890.5,-147.05 886.4,-137.28 883.51,-147.48 890.5,-147.05"/>
</g>
<!-- Node34 -->
<g id="node32" class="node">
<title>Node34</title>
<g id="a_node32"><a xlink:href="container_8h.html" target="_top" xlink:title=" ">
<polygon fill="none" stroke="black" points="1178.37,-179.5 1178.37,-198.5 1299.37,-198.5 1299.37,-179.5 1178.37,-179.5"/>
<text text-anchor="middle" x="1238.87" y="-186.5" font-family="Helvetica,sans-Serif" font-size="10.00">thorin/util/container.h</text>
</a>
</g>
</g>
<!-- Node4&#45;&gt;Node34 -->
<g id="edge40" class="edge">
<title>Node4&#45;&gt;Node34</title>
<path fill="none" stroke="midnightblue" d="M928.92,-238.37C986.94,-229.32 1101.86,-211.38 1174.29,-200.08"/>
<polygon fill="midnightblue" stroke="midnightblue" points="1174.88,-203.53 1184.22,-198.53 1173.8,-196.61 1174.88,-203.53"/>
</g>
<!-- Node39 -->
<g id="node37" class="node">
<title>Node39</title>
<g id="a_node37"><a xlink:href="hash_8h.html" target="_top" xlink:title=" ">
<polygon fill="none" stroke="black" points="1538.37,-118 1538.37,-137 1637.37,-137 1637.37,-118 1538.37,-118"/>
<text text-anchor="middle" x="1587.87" y="-125" font-family="Helvetica,sans-Serif" font-size="10.00">thorin/util/hash.h</text>
</a>
</g>
</g>
<!-- Node4&#45;&gt;Node39 -->
<g id="edge49" class="edge">
<title>Node4&#45;&gt;Node39</title>
<path fill="none" stroke="midnightblue" d="M929,-241.8C1001.49,-237 1169.62,-224 1308.87,-199 1396.18,-183.33 1496.59,-155.48 1549.93,-139.89"/>
<polygon fill="midnightblue" stroke="midnightblue" points="1551.03,-143.21 1559.64,-137.03 1549.06,-136.49 1551.03,-143.21"/>
</g>
<!-- Node8 -->
<g id="node8" class="node">
<title>Node8</title>
<g id="a_node8"><a xlink:title=" ">
<polygon fill="none" stroke="#bfbfbf" points="153.87,-56.5 153.87,-75.5 197.87,-75.5 197.87,-56.5 153.87,-56.5"/>
<text text-anchor="middle" x="175.87" y="-63.5" font-family="Helvetica,sans-Serif" font-size="10.00">string</text>
</a>
</g>
</g>
<!-- Node7&#45;&gt;Node8 -->
<g id="edge7" class="edge">
<title>Node7&#45;&gt;Node8</title>
<path fill="none" stroke="midnightblue" d="M594.97,-182.83C543.2,-176.15 454.83,-162.98 380.87,-143 316.35,-125.57 243.6,-96.16 204.47,-79.5"/>
<polygon fill="midnightblue" stroke="midnightblue" points="205.84,-76.28 195.27,-75.55 203.08,-82.71 205.84,-76.28"/>
</g>
<!-- Node9 -->
<g id="node9" class="node">
<title>Node9</title>
<g id="a_node9"><a xlink:title=" ">
<polygon fill="none" stroke="#bfbfbf" points="1027.87,-112.5 1027.87,-142.5 1131.87,-142.5 1131.87,-112.5 1027.87,-112.5"/>
<text text-anchor="start" x="1035.87" y="-130.5" font-family="Helvetica,sans-Serif" font-size="10.00">absl/container/flat</text>
<text text-anchor="middle" x="1079.87" y="-119.5" font-family="Helvetica,sans-Serif" font-size="10.00">_hash_map.h</text>
</a>
</g>
</g>
<!-- Node7&#45;&gt;Node9 -->
<g id="edge8" class="edge">
<title>Node7&#45;&gt;Node9</title>
<path fill="none" stroke="midnightblue" d="M682.77,-182.08C761.54,-171.45 927.09,-149.11 1017.57,-136.91"/>
<polygon fill="midnightblue" stroke="midnightblue" points="1018.25,-140.35 1027.69,-135.54 1017.31,-133.41 1018.25,-140.35"/>
</g>
<!-- Node10 -->
<g id="node10" class="node">
<title>Node10</title>
<g id="a_node10"><a xlink:title=" ">
<polygon fill="none" stroke="#bfbfbf" points="597.87,-112.5 597.87,-142.5 701.87,-142.5 701.87,-112.5 597.87,-112.5"/>
<text text-anchor="start" x="605.87" y="-130.5" font-family="Helvetica,sans-Serif" font-size="10.00">absl/container/flat</text>
<text text-anchor="middle" x="649.87" y="-119.5" font-family="Helvetica,sans-Serif" font-size="10.00">_hash_set.h</text>
</a>
</g>
</g>
<!-- Node7&#45;&gt;Node10 -->
<g id="edge9" class="edge">
<title>Node7&#45;&gt;Node10</title>
<path fill="none" stroke="midnightblue" d="M640.45,-179.48C641.76,-172.4 643.68,-161.97 645.45,-152.39"/>
<polygon fill="midnightblue" stroke="midnightblue" points="648.9,-152.99 647.28,-142.52 642.02,-151.72 648.9,-152.99"/>
</g>
<!-- Node12 -->
<g id="node12" class="node">
<title>Node12</title>
<g id="a_node12"><a xlink:title=" ">
<polygon fill="none" stroke="#bfbfbf" points="506.37,-118 506.37,-137 579.37,-137 579.37,-118 506.37,-118"/>
<text text-anchor="middle" x="542.87" y="-125" font-family="Helvetica,sans-Serif" font-size="10.00">string_view</text>
</a>
</g>
</g>
<!-- Node11&#45;&gt;Node12 -->
<g id="edge11" class="edge">
<title>Node11&#45;&gt;Node12</title>
<path fill="none" stroke="midnightblue" d="M741.76,-179.43C702.34,-170.99 641.23,-157.3 588.87,-143 585.54,-142.09 582.09,-141.1 578.64,-140.07"/>
<polygon fill="midnightblue" stroke="midnightblue" points="579.62,-136.71 569.04,-137.13 577.58,-143.41 579.62,-136.71"/>
</g>
<!-- Node11&#45;&gt;Node13 -->
<g id="edge12" class="edge">
<title>Node11&#45;&gt;Node13</title>
<path fill="none" stroke="midnightblue" d="M739.35,-181.23C662.47,-169.25 509.59,-145.36 497.87,-143 492.51,-141.92 486.89,-140.68 481.35,-139.39"/>
<polygon fill="midnightblue" stroke="midnightblue" points="482.07,-135.97 471.53,-137.05 480.44,-142.77 482.07,-135.97"/>
</g>
<!-- Node21 -->
<g id="node21" class="node">
<title>Node21</title>
<g id="a_node21"><a xlink:href="types_8h.html" target="_top" xlink:title=" ">
<polygon fill="none" stroke="red" points="1182.37,-56.5 1182.37,-75.5 1285.37,-75.5 1285.37,-56.5 1182.37,-56.5"/>
<text text-anchor="middle" x="1233.87" y="-63.5" font-family="Helvetica,sans-Serif" font-size="10.00">thorin/util/types.h</text>
</a>
</g>
</g>
<!-- Node11&#45;&gt;Node21 -->
<g id="edge21" class="edge">
<title>Node11&#45;&gt;Node21</title>
<path fill="none" stroke="midnightblue" d="M817.55,-179.46C850.19,-171.13 900.3,-157.62 942.87,-143 977.37,-131.15 983.99,-122.67 1018.87,-112 1069.51,-96.51 1128.48,-84.59 1171.83,-76.91"/>
<polygon fill="midnightblue" stroke="midnightblue" points="1172.7,-80.32 1181.95,-75.15 1171.5,-73.42 1172.7,-80.32"/>
</g>
<!-- Node13&#45;&gt;Node8 -->
<g id="edge18" class="edge">
<title>Node13&#45;&gt;Node8</title>
<path fill="none" stroke="midnightblue" d="M402.25,-117.96C393.6,-115.98 384.42,-113.89 375.87,-112 303.97,-96.07 283.05,-94.8 208.09,-76.17"/>
<polygon fill="midnightblue" stroke="midnightblue" points="208.72,-72.72 198.17,-73.68 207.02,-79.51 208.72,-72.72"/>
</g>
<!-- Node14 -->
<g id="node14" class="node">
<title>Node14</title>
<g id="a_node14"><a xlink:title=" ">
<polygon fill="none" stroke="#bfbfbf" points="524.37,-56.5 524.37,-75.5 589.37,-75.5 589.37,-56.5 524.37,-56.5"/>
<text text-anchor="middle" x="556.87" y="-63.5" font-family="Helvetica,sans-Serif" font-size="10.00">functional</text>
</a>
</g>
</g>
<!-- Node13&#45;&gt;Node14 -->
<g id="edge13" class="edge">
<title>Node13&#45;&gt;Node14</title>
<path fill="none" stroke="midnightblue" d="M455.78,-117.98C475.4,-108.08 508,-91.64 530.86,-80.12"/>
<polygon fill="midnightblue" stroke="midnightblue" points="532.64,-83.14 540,-75.51 529.49,-76.89 532.64,-83.14"/>
</g>
<!-- Node15 -->
<g id="node15" class="node">
<title>Node15</title>
<g id="a_node15"><a xlink:title=" ">
<polygon fill="none" stroke="#bfbfbf" points="339.87,-56.5 339.87,-75.5 399.87,-75.5 399.87,-56.5 339.87,-56.5"/>
<text text-anchor="middle" x="369.87" y="-63.5" font-family="Helvetica,sans-Serif" font-size="10.00">iostream</text>
</a>
</g>
</g>
<!-- Node13&#45;&gt;Node15 -->
<g id="edge14" class="edge">
<title>Node13&#45;&gt;Node15</title>
<path fill="none" stroke="midnightblue" d="M428.98,-117.98C418.22,-108.7 400.8,-93.67 387.65,-82.33"/>
<polygon fill="midnightblue" stroke="midnightblue" points="389.6,-79.39 379.74,-75.51 385.03,-84.69 389.6,-79.39"/>
</g>
<!-- Node16 -->
<g id="node16" class="node">
<title>Node16</title>
<g id="a_node16"><a xlink:title=" ">
<polygon fill="none" stroke="#bfbfbf" points="800.37,-0.5 800.37,-19.5 857.37,-19.5 857.37,-0.5 800.37,-0.5"/>
<text text-anchor="middle" x="828.87" y="-7.5" font-family="Helvetica,sans-Serif" font-size="10.00">ostream</text>
</a>
</g>
</g>
<!-- Node13&#45;&gt;Node16 -->
<g id="edge15" class="edge">
<title>Node13&#45;&gt;Node16</title>
<path fill="none" stroke="midnightblue" d="M436.81,-117.69C433.88,-102.74 430.53,-72.41 446.87,-56 470.83,-31.94 697.89,-17.7 790.17,-12.87"/>
<polygon fill="midnightblue" stroke="midnightblue" points="790.41,-16.36 800.21,-12.35 790.05,-9.37 790.41,-16.36"/>
</g>
<!-- Node17 -->
<g id="node17" class="node">
<title>Node17</title>
<g id="a_node17"><a xlink:title=" ">
<polygon fill="none" stroke="#bfbfbf" points="455.87,-56.5 455.87,-75.5 505.87,-75.5 505.87,-56.5 455.87,-56.5"/>
<text text-anchor="middle" x="480.87" y="-63.5" font-family="Helvetica,sans-Serif" font-size="10.00">ranges</text>
</a>
</g>
</g>
<!-- Node13&#45;&gt;Node17 -->
<g id="edge16" class="edge">
<title>Node13&#45;&gt;Node17</title>
<path fill="none" stroke="midnightblue" d="M444.89,-117.98C451.13,-109.14 461.04,-95.09 468.89,-83.98"/>
<polygon fill="midnightblue" stroke="midnightblue" points="471.96,-85.7 474.86,-75.51 466.24,-81.66 471.96,-85.7"/>
</g>
<!-- Node18 -->
<g id="node18" class="node">
<title>Node18</title>
<g id="a_node18"><a xlink:title=" ">
<polygon fill="none" stroke="#bfbfbf" points="79.87,-56.5 79.87,-75.5 135.87,-75.5 135.87,-56.5 79.87,-56.5"/>
<text text-anchor="middle" x="107.87" y="-63.5" font-family="Helvetica,sans-Serif" font-size="10.00">sstream</text>
</a>
</g>
</g>
<!-- Node13&#45;&gt;Node18 -->
<g id="edge17" class="edge">
<title>Node13&#45;&gt;Node18</title>
<path fill="none" stroke="midnightblue" d="M389.78,-119.12C333.31,-110.4 237.6,-94.9 146.09,-76.14"/>
<polygon fill="midnightblue" stroke="midnightblue" points="146.61,-72.68 136.11,-74.08 145.19,-79.53 146.61,-72.68"/>
</g>
<!-- Node19 -->
<g id="node19" class="node">
<title>Node19</title>
<g id="a_node19"><a xlink:href="assert_8h.html" target="_top" xlink:title=" ">
<polygon fill="none" stroke="black" points="215.87,-56.5 215.87,-75.5 321.87,-75.5 321.87,-56.5 215.87,-56.5"/>
<text text-anchor="middle" x="268.87" y="-63.5" font-family="Helvetica,sans-Serif" font-size="10.00">thorin/util/assert.h</text>
</a>
</g>
</g>
<!-- Node13&#45;&gt;Node19 -->
<g id="edge19" class="edge">
<title>Node13&#45;&gt;Node19</title>
<path fill="none" stroke="midnightblue" d="M414.51,-117.98C385.23,-107.72 335.9,-90.46 302.87,-78.9"/>
<polygon fill="midnightblue" stroke="midnightblue" points="303.78,-75.51 293.18,-75.51 301.46,-82.12 303.78,-75.51"/>
</g>
<!-- Node20 -->
<g id="node20" class="node">
<title>Node20</title>
<g id="a_node20"><a xlink:title=" ">
<polygon fill="none" stroke="#bfbfbf" points="591.87,-0.5 591.87,-19.5 643.87,-19.5 643.87,-0.5 591.87,-0.5"/>
<text text-anchor="middle" x="617.87" y="-7.5" font-family="Helvetica,sans-Serif" font-size="10.00">cassert</text>
</a>
</g>
</g>
<!-- Node19&#45;&gt;Node20 -->
<g id="edge20" class="edge">
<title>Node19&#45;&gt;Node20</title>
<path fill="none" stroke="midnightblue" d="M321.88,-56.8C393.62,-45.7 519.75,-26.18 581.6,-16.61"/>
<polygon fill="midnightblue" stroke="midnightblue" points="582.32,-20.04 591.67,-15.05 581.25,-13.12 582.32,-20.04"/>
</g>
<!-- Node21&#45;&gt;Node16 -->
<g id="edge24" class="edge">
<title>Node21&#45;&gt;Node16</title>
<path fill="none" stroke="midnightblue" d="M1182.35,-57.96C1177.46,-57.29 1172.57,-56.63 1167.87,-56 1059.13,-41.37 930.72,-24.41 867.71,-16.11"/>
<polygon fill="midnightblue" stroke="midnightblue" points="867.82,-12.59 857.45,-14.76 866.91,-19.53 867.82,-12.59"/>
</g>
<!-- Node22 -->
<g id="node22" class="node">
<title>Node22</title>
<g id="a_node22"><a xlink:title=" ">
<polygon fill="none" stroke="#bfbfbf" points="1175.87,-0.5 1175.87,-19.5 1225.87,-19.5 1225.87,-0.5 1175.87,-0.5"/>
<text text-anchor="middle" x="1200.87" y="-7.5" font-family="Helvetica,sans-Serif" font-size="10.00">cstdint</text>
</a>
</g>
</g>
<!-- Node21&#45;&gt;Node22 -->
<g id="edge22" class="edge">
<title>Node21&#45;&gt;Node22</title>
<path fill="none" stroke="midnightblue" d="M1228.42,-56.08C1223.86,-48.61 1217.2,-37.72 1211.58,-28.52"/>
<polygon fill="midnightblue" stroke="midnightblue" points="1214.42,-26.46 1206.22,-19.75 1208.45,-30.11 1214.42,-26.46"/>
</g>
<!-- Node23 -->
<g id="node23" class="node">
<title>Node23</title>
<g id="a_node23"><a xlink:title=" ">
<polygon fill="none" stroke="#bfbfbf" points="1243.87,-0.5 1243.87,-19.5 1287.87,-19.5 1287.87,-0.5 1243.87,-0.5"/>
<text text-anchor="middle" x="1265.87" y="-7.5" font-family="Helvetica,sans-Serif" font-size="10.00">limits</text>
</a>
</g>
</g>
<!-- Node21&#45;&gt;Node23 -->
<g id="edge23" class="edge">
<title>Node21&#45;&gt;Node23</title>
<path fill="none" stroke="midnightblue" d="M1239.15,-56.08C1243.58,-48.61 1250.03,-37.72 1255.49,-28.52"/>
<polygon fill="midnightblue" stroke="midnightblue" points="1258.6,-30.14 1260.68,-19.75 1252.58,-26.57 1258.6,-30.14"/>
</g>
<!-- Node24 -->
<g id="node24" class="node">
<title>Node24</title>
<g id="a_node24"><a xlink:title=" ">
<polygon fill="none" stroke="#bfbfbf" points="1034.37,-0.5 1034.37,-19.5 1103.37,-19.5 1103.37,-0.5 1034.37,-0.5"/>
<text text-anchor="middle" x="1068.87" y="-7.5" font-family="Helvetica,sans-Serif" font-size="10.00">type_traits</text>
</a>
</g>
</g>
<!-- Node21&#45;&gt;Node24 -->
<g id="edge25" class="edge">
<title>Node21&#45;&gt;Node24</title>
<path fill="none" stroke="midnightblue" d="M1207.73,-56.44C1179.85,-47.32 1135.52,-32.81 1104.47,-22.65"/>
<polygon fill="midnightblue" stroke="midnightblue" points="1105.49,-19.3 1094.89,-19.52 1103.31,-25.95 1105.49,-19.3"/>
</g>
<!-- Node27&#45;&gt;Node6 -->
<g id="edge36" class="edge">
<title>Node27&#45;&gt;Node6</title>
<path fill="none" stroke="midnightblue" d="M802.21,-117.98C810.84,-115.87 820.18,-113.72 828.87,-112 931.59,-91.72 961.58,-97.83 1068.28,-75.89"/>
<polygon fill="midnightblue" stroke="midnightblue" points="1069.09,-79.3 1078.16,-73.82 1067.65,-72.45 1069.09,-79.3"/>
</g>
<!-- Node27&#45;&gt;Node14 -->
<g id="edge31" class="edge">
<title>Node27&#45;&gt;Node14</title>
<path fill="none" stroke="midnightblue" d="M739.35,-117.98C701.95,-107.53 638.44,-89.79 597.08,-78.23"/>
<polygon fill="midnightblue" stroke="midnightblue" points="597.9,-74.83 587.33,-75.51 596.02,-81.57 597.9,-74.83"/>
</g>
<!-- Node27&#45;&gt;Node17 -->
<g id="edge34" class="edge">
<title>Node27&#45;&gt;Node17</title>
<path fill="none" stroke="midnightblue" d="M736.56,-117.95C728.2,-115.91 719.22,-113.8 710.87,-112 624.71,-93.48 601.93,-94.99 515.87,-76 515.77,-75.98 515.67,-75.96 515.57,-75.93"/>
<polygon fill="midnightblue" stroke="midnightblue" points="516.59,-72.58 506.06,-73.7 514.99,-79.39 516.59,-72.58"/>
</g>
<!-- Node27&#45;&gt;Node20 -->
<g id="edge27" class="edge">
<title>Node27&#45;&gt;Node20</title>
<path fill="none" stroke="midnightblue" d="M737.9,-117.92C703.2,-108.02 650.87,-91.14 636.87,-76 625.28,-63.47 620.73,-44.24 618.96,-29.95"/>
<polygon fill="midnightblue" stroke="midnightblue" points="622.42,-29.41 618.05,-19.76 615.45,-30.03 622.42,-29.41"/>
</g>
<!-- Node27&#45;&gt;Node24 -->
<g id="edge35" class="edge">
<title>Node27&#45;&gt;Node24</title>
<path fill="none" stroke="midnightblue" d="M804.87,-117.93C856.44,-105.22 948.33,-82.2 962.87,-76 979.85,-68.76 1021.44,-42.19 1047.19,-25.35"/>
<polygon fill="midnightblue" stroke="midnightblue" points="1049.45,-28.05 1055.88,-19.63 1045.6,-22.2 1049.45,-28.05"/>
</g>
<!-- Node28 -->
<g id="node26" class="node">
<title>Node28</title>
<g id="a_node26"><a xlink:title=" ">
<polygon fill="none" stroke="#bfbfbf" points="900.37,-56.5 900.37,-75.5 953.37,-75.5 953.37,-56.5 900.37,-56.5"/>
<text text-anchor="middle" x="926.87" y="-63.5" font-family="Helvetica,sans-Serif" font-size="10.00">cstddef</text>
</a>
</g>
</g>
<!-- Node27&#45;&gt;Node28 -->
<g id="edge28" class="edge">
<title>Node27&#45;&gt;Node28</title>
<path fill="none" stroke="midnightblue" d="M792.36,-117.98C819.18,-107.81 864.19,-90.76 894.68,-79.2"/>
<polygon fill="midnightblue" stroke="midnightblue" points="896.31,-82.33 904.42,-75.51 893.83,-75.78 896.31,-82.33"/>
</g>
<!-- Node29 -->
<g id="node27" class="node">
<title>Node29</title>
<g id="a_node27"><a xlink:title=" ">
<polygon fill="none" stroke="#bfbfbf" points="1009.87,-56.5 1009.87,-75.5 1059.87,-75.5 1059.87,-56.5 1009.87,-56.5"/>
<text text-anchor="middle" x="1034.87" y="-63.5" font-family="Helvetica,sans-Serif" font-size="10.00">cstring</text>
</a>
</g>
</g>
<!-- Node27&#45;&gt;Node29 -->
<g id="edge29" class="edge">
<title>Node27&#45;&gt;Node29</title>
<path fill="none" stroke="midnightblue" d="M803.84,-117.98C812.02,-115.97 820.75,-113.87 828.87,-112 902.86,-94.94 921.77,-92.54 995.87,-76 997.13,-75.72 998.41,-75.43 999.7,-75.14"/>
<polygon fill="midnightblue" stroke="midnightblue" points="1000.73,-78.5 1009.71,-72.86 999.18,-71.67 1000.73,-78.5"/>
</g>
<!-- Node30 -->
<g id="node28" class="node">
<title>Node30</title>
<g id="a_node28"><a xlink:title=" ">
<polygon fill="none" stroke="#bfbfbf" points="645.87,-56.5 645.87,-75.5 709.87,-75.5 709.87,-56.5 645.87,-56.5"/>
<text text-anchor="middle" x="677.87" y="-63.5" font-family="Helvetica,sans-Serif" font-size="10.00">algorithm</text>
</a>
</g>
</g>
<!-- Node27&#45;&gt;Node30 -->
<g id="edge30" class="edge">
<title>Node27&#45;&gt;Node30</title>
<path fill="none" stroke="midnightblue" d="M756.69,-117.98C741.8,-108.34 717.33,-92.52 699.6,-81.05"/>
<polygon fill="midnightblue" stroke="midnightblue" points="701.32,-78 691.03,-75.51 697.52,-83.88 701.32,-78"/>
</g>
<!-- Node31 -->
<g id="node29" class="node">
<title>Node31</title>
<g id="a_node29"><a xlink:title=" ">
<polygon fill="none" stroke="#bfbfbf" points="728.37,-56.5 728.37,-75.5 811.37,-75.5 811.37,-56.5 728.37,-56.5"/>
<text text-anchor="middle" x="769.87" y="-63.5" font-family="Helvetica,sans-Serif" font-size="10.00">initializer_list</text>
</a>
</g>
</g>
<!-- Node27&#45;&gt;Node31 -->
<g id="edge32" class="edge">
<title>Node27&#45;&gt;Node31</title>
<path fill="none" stroke="midnightblue" d="M769.87,-117.98C769.87,-109.58 769.87,-96.48 769.87,-85.66"/>
<polygon fill="midnightblue" stroke="midnightblue" points="773.37,-85.51 769.87,-75.51 766.37,-85.51 773.37,-85.51"/>
</g>
<!-- Node32 -->
<g id="node30" class="node">
<title>Node32</title>
<g id="a_node30"><a xlink:title=" ">
<polygon fill="none" stroke="#bfbfbf" points="829.37,-56.5 829.37,-75.5 882.37,-75.5 882.37,-56.5 829.37,-56.5"/>
<text text-anchor="middle" x="855.87" y="-63.5" font-family="Helvetica,sans-Serif" font-size="10.00">iterator</text>
</a>
</g>
</g>
<!-- Node27&#45;&gt;Node32 -->
<g id="edge33" class="edge">
<title>Node27&#45;&gt;Node32</title>
<path fill="none" stroke="midnightblue" d="M782.19,-117.98C795.99,-108.43 818.57,-92.81 835.1,-81.37"/>
<polygon fill="midnightblue" stroke="midnightblue" points="837.34,-84.08 843.57,-75.51 833.36,-78.32 837.34,-84.08"/>
</g>
<!-- Node33&#45;&gt;Node20 -->
<g id="edge38" class="edge">
<title>Node33&#45;&gt;Node20</title>
<path fill="none" stroke="midnightblue" d="M934.09,-118.33C1004.67,-106.14 1128.5,-83.79 1134.87,-76 1140.5,-69.12 1140.88,-62.55 1134.87,-56 1118.6,-38.25 768.82,-18.76 654.02,-12.82"/>
<polygon fill="midnightblue" stroke="midnightblue" points="654.14,-9.32 643.97,-12.3 653.78,-16.31 654.14,-9.32"/>
</g>
<!-- Node33&#45;&gt;Node29 -->
<g id="edge39" class="edge">
<title>Node33&#45;&gt;Node29</title>
<path fill="none" stroke="midnightblue" d="M907.22,-117.98C932.56,-107.86 975.01,-90.9 1003.94,-79.35"/>
<polygon fill="midnightblue" stroke="midnightblue" points="1005.57,-82.47 1013.56,-75.51 1002.98,-75.97 1005.57,-82.47"/>
</g>
<!-- Node34&#45;&gt;Node9 -->
<g id="edge43" class="edge">
<title>Node34&#45;&gt;Node9</title>
<path fill="none" stroke="midnightblue" d="M1216.09,-179.48C1192.95,-170.81 1156.42,-157.15 1127.01,-146.14"/>
<polygon fill="midnightblue" stroke="midnightblue" points="1127.94,-142.75 1117.34,-142.52 1125.48,-149.31 1127.94,-142.75"/>
</g>
<!-- Node34&#45;&gt;Node10 -->
<g id="edge44" class="edge">
<title>Node34&#45;&gt;Node10</title>
<path fill="none" stroke="midnightblue" d="M1178.31,-183.97C1063.26,-176.15 816.05,-158.41 711.93,-142.97"/>
<polygon fill="midnightblue" stroke="midnightblue" points="712.43,-139.5 702.01,-141.43 711.36,-146.42 712.43,-139.5"/>
</g>
<!-- Node35 -->
<g id="node33" class="node">
<title>Node35</title>
<g id="a_node33"><a xlink:title=" ">
<polygon fill="none" stroke="#bfbfbf" points="1412.37,-118 1412.37,-137 1459.37,-137 1459.37,-118 1412.37,-118"/>
<text text-anchor="middle" x="1435.87" y="-125" font-family="Helvetica,sans-Serif" font-size="10.00">queue</text>
</a>
</g>
</g>
<!-- Node34&#45;&gt;Node35 -->
<g id="edge41" class="edge">
<title>Node34&#45;&gt;Node35</title>
<path fill="none" stroke="midnightblue" d="M1276.75,-179.49C1310.54,-171.47 1361.13,-158.4 1403.87,-143 1405.49,-142.42 1407.14,-141.79 1408.79,-141.13"/>
<polygon fill="midnightblue" stroke="midnightblue" points="1410.31,-144.28 1418.14,-137.14 1407.57,-137.84 1410.31,-144.28"/>
</g>
<!-- Node36 -->
<g id="node34" class="node">
<title>Node36</title>
<g id="a_node34"><a xlink:title=" ">
<polygon fill="none" stroke="#bfbfbf" points="1477.37,-118 1477.37,-137 1520.37,-137 1520.37,-118 1477.37,-118"/>
<text text-anchor="middle" x="1498.87" y="-125" font-family="Helvetica,sans-Serif" font-size="10.00">stack</text>
</a>
</g>
</g>
<!-- Node34&#45;&gt;Node36 -->
<g id="edge42" class="edge">
<title>Node34&#45;&gt;Node36</title>
<path fill="none" stroke="midnightblue" d="M1299.53,-180.48C1346.55,-173.61 1412.9,-161.65 1468.87,-143 1470.49,-142.46 1472.14,-141.85 1473.79,-141.2"/>
<polygon fill="midnightblue" stroke="midnightblue" points="1475.27,-144.36 1483,-137.11 1472.44,-137.97 1475.27,-144.36"/>
</g>
<!-- Node37 -->
<g id="node35" class="node">
<title>Node37</title>
<g id="a_node35"><a xlink:title=" ">
<polygon fill="none" stroke="#bfbfbf" points="1150.37,-112.5 1150.37,-142.5 1263.37,-142.5 1263.37,-112.5 1150.37,-112.5"/>
<text text-anchor="start" x="1158.37" y="-130.5" font-family="Helvetica,sans-Serif" font-size="10.00">absl/container/node</text>
<text text-anchor="middle" x="1206.87" y="-119.5" font-family="Helvetica,sans-Serif" font-size="10.00">_hash_map.h</text>
</a>
</g>
</g>
<!-- Node34&#45;&gt;Node37 -->
<g id="edge45" class="edge">
<title>Node34&#45;&gt;Node37</title>
<path fill="none" stroke="midnightblue" d="M1234.29,-179.48C1230.36,-172.17 1224.51,-161.3 1219.23,-151.47"/>
<polygon fill="midnightblue" stroke="midnightblue" points="1222.23,-149.67 1214.41,-142.52 1216.07,-152.99 1222.23,-149.67"/>
</g>
<!-- Node38 -->
<g id="node36" class="node">
<title>Node38</title>
<g id="a_node36"><a xlink:title=" ">
<polygon fill="none" stroke="#bfbfbf" points="1281.37,-112.5 1281.37,-142.5 1394.37,-142.5 1394.37,-112.5 1281.37,-112.5"/>
<text text-anchor="start" x="1289.37" y="-130.5" font-family="Helvetica,sans-Serif" font-size="10.00">absl/container/node</text>
<text text-anchor="middle" x="1337.87" y="-119.5" font-family="Helvetica,sans-Serif" font-size="10.00">_hash_set.h</text>
</a>
</g>
</g>
<!-- Node34&#45;&gt;Node38 -->
<g id="edge46" class="edge">
<title>Node34&#45;&gt;Node38</title>
<path fill="none" stroke="midnightblue" d="M1253.05,-179.48C1266.71,-171.27 1287.86,-158.56 1305.62,-147.88"/>
<polygon fill="midnightblue" stroke="midnightblue" points="1307.77,-150.67 1314.54,-142.52 1304.16,-144.67 1307.77,-150.67"/>
</g>
<!-- Node34&#45;&gt;Node39 -->
<g id="edge47" class="edge">
<title>Node34&#45;&gt;Node39</title>
<path fill="none" stroke="midnightblue" d="M1299.63,-180.25C1358.7,-172.34 1450.82,-158.96 1529.87,-143 1535.21,-141.92 1540.8,-140.68 1546.31,-139.38"/>
<polygon fill="midnightblue" stroke="midnightblue" points="1547.19,-142.77 1556.08,-137 1545.54,-135.96 1547.19,-142.77"/>
</g>
<!-- Node39&#45;&gt;Node21 -->
<g id="edge48" class="edge">
<title>Node39&#45;&gt;Node21</title>
<path fill="none" stroke="midnightblue" d="M1556.08,-117.98C1547.6,-115.86 1538.42,-113.71 1529.87,-112 1449.41,-95.86 1355.62,-82.52 1295.54,-74.65"/>
<polygon fill="midnightblue" stroke="midnightblue" points="1295.83,-71.16 1285.46,-73.35 1294.93,-78.1 1295.83,-71.16"/>
</g>
<!-- Node40&#45;&gt;Node7 -->
<g id="edge54" class="edge">
<title>Node40&#45;&gt;Node7</title>
<path fill="none" stroke="midnightblue" d="M283.92,-238.53C355.39,-228.75 504.94,-208.31 585.21,-197.34"/>
<polygon fill="midnightblue" stroke="midnightblue" points="585.69,-200.8 595.12,-195.98 584.74,-193.87 585.69,-200.8"/>
</g>
<!-- Node40&#45;&gt;Node13 -->
<g id="edge55" class="edge">
<title>Node40&#45;&gt;Node13</title>
<path fill="none" stroke="midnightblue" d="M251.67,-235.4C264.28,-221.91 290.42,-195.59 316.87,-179 343.45,-162.34 376.47,-149.06 401.45,-140.31"/>
<polygon fill="midnightblue" stroke="midnightblue" points="402.61,-143.61 410.94,-137.07 400.35,-136.99 402.61,-143.61"/>
</g>
<!-- Node40&#45;&gt;Node18 -->
<g id="edge52" class="edge">
<title>Node40&#45;&gt;Node18</title>
<path fill="none" stroke="midnightblue" d="M231.31,-235.34C219.68,-226.93 202.37,-213.36 189.87,-199 157.82,-162.16 130.11,-111.44 116.61,-84.87"/>
<polygon fill="midnightblue" stroke="midnightblue" points="119.61,-83.05 112.01,-75.66 113.35,-86.17 119.61,-83.05"/>
</g>
<!-- Node41 -->
<g id="node39" class="node">
<title>Node41</title>
<g id="a_node39"><a xlink:title=" ">
<polygon fill="none" stroke="#bfbfbf" points="199.37,-179.5 199.37,-198.5 264.37,-198.5 264.37,-179.5 199.37,-179.5"/>
<text text-anchor="middle" x="231.87" y="-186.5" font-family="Helvetica,sans-Serif" font-size="10.00">stdexcept</text>
</a>
</g>
</g>
<!-- Node40&#45;&gt;Node41 -->
<g id="edge53" class="edge">
<title>Node40&#45;&gt;Node41</title>
<path fill="none" stroke="midnightblue" d="M241.89,-235.08C240.3,-227.93 238.01,-217.64 236.02,-208.69"/>
<polygon fill="midnightblue" stroke="midnightblue" points="239.4,-207.75 233.81,-198.75 232.57,-209.27 239.4,-207.75"/>
</g>
<!-- Node42&#45;&gt;Node7 -->
<g id="edge68" class="edge">
<title>Node42&#45;&gt;Node7</title>
<path fill="none" stroke="midnightblue" d="M627.89,-421.38C725.73,-417.18 962.29,-404.38 985.87,-378 1057.87,-297.45 981.96,-365.25 849.87,-311 776.05,-280.68 696.23,-229.18 659.5,-204.3"/>
<polygon fill="midnightblue" stroke="midnightblue" points="661.35,-201.33 651.12,-198.58 657.41,-207.11 661.35,-201.33"/>
</g>
<!-- Node42&#45;&gt;Node8 -->
<g id="edge58" class="edge">
<title>Node42&#45;&gt;Node8</title>
<path fill="none" stroke="midnightblue" d="M543.66,-420.74C431.2,-413.56 132.87,-386.56 132.87,-302 132.87,-302 132.87,-302 132.87,-188 132.87,-149.35 152.59,-107.56 165.32,-84.61"/>
<polygon fill="midnightblue" stroke="midnightblue" points="168.47,-86.14 170.42,-75.73 162.41,-82.65 168.47,-86.14"/>
</g>
<!-- Node42&#45;&gt;Node12 -->
<g id="edge59" class="edge">
<title>Node42&#45;&gt;Node12</title>
<path fill="none" stroke="midnightblue" d="M543.66,-421.63C479.87,-418.58 363.6,-408.82 337.87,-378 263.06,-288.4 445.54,-179.51 516.28,-141.97"/>
<polygon fill="midnightblue" stroke="midnightblue" points="518.24,-144.9 525.48,-137.16 515,-138.69 518.24,-144.9"/>
</g>
<!-- Node42&#45;&gt;Node18 -->
<g id="edge57" class="edge">
<title>Node42&#45;&gt;Node18</title>
<path fill="none" stroke="midnightblue" d="M543.67,-422.09C451.12,-419.52 233.31,-410.13 167.87,-378 125.83,-357.36 94.87,-348.84 94.87,-302 94.87,-302 94.87,-302 94.87,-188 94.87,-151.69 100.73,-109.59 104.58,-85.85"/>
<polygon fill="midnightblue" stroke="midnightblue" points="108.07,-86.21 106.28,-75.77 101.17,-85.05 108.07,-86.21"/>
</g>
<!-- Node42&#45;&gt;Node39 -->
<g id="edge75" class="edge">
<title>Node42&#45;&gt;Node39</title>
<path fill="none" stroke="midnightblue" d="M628.17,-422.24C814.87,-418.35 1555.87,-396.93 1555.87,-302 1555.87,-302 1555.87,-302 1555.87,-244 1555.87,-208.43 1570.14,-168.87 1579.62,-146.5"/>
<polygon fill="midnightblue" stroke="midnightblue" points="1582.86,-147.82 1583.69,-137.26 1576.46,-145 1582.86,-147.82"/>
</g>
<!-- Node42&#45;&gt;Node40 -->
<g id="edge69" class="edge">
<title>Node42&#45;&gt;Node40</title>
<path fill="none" stroke="midnightblue" d="M543.66,-421.03C474.66,-417.05 341.69,-405.9 304.87,-378 267.92,-350.01 252.59,-294.26 246.88,-264.97"/>
<polygon fill="midnightblue" stroke="midnightblue" points="250.28,-264.07 245.09,-254.84 243.38,-265.29 250.28,-264.07"/>
</g>
<!-- Node43 -->
<g id="node41" class="node">
<title>Node43</title>
<g id="a_node41"><a xlink:title=" ">
<polygon fill="none" stroke="#bfbfbf" points="528.87,-347.5 528.87,-377.5 642.87,-377.5 642.87,-347.5 528.87,-347.5"/>
<text text-anchor="start" x="536.87" y="-365.5" font-family="Helvetica,sans-Serif" font-size="10.00">absl/container/btree</text>
<text text-anchor="middle" x="585.87" y="-354.5" font-family="Helvetica,sans-Serif" font-size="10.00">_map.h</text>
</a>
</g>
</g>
<!-- Node42&#45;&gt;Node43 -->
<g id="edge60" class="edge">
<title>Node42&#45;&gt;Node43</title>
<path fill="none" stroke="midnightblue" d="M585.87,-414.48C585.87,-407.47 585.87,-397.19 585.87,-387.7"/>
<polygon fill="midnightblue" stroke="midnightblue" points="589.37,-387.52 585.87,-377.52 582.37,-387.52 589.37,-387.52"/>
</g>
<!-- Node44 -->
<g id="node42" class="node">
<title>Node44</title>
<g id="a_node42"><a xlink:title=" ">
<polygon fill="none" stroke="#bfbfbf" points="660.87,-347.5 660.87,-377.5 774.87,-377.5 774.87,-347.5 660.87,-347.5"/>
<text text-anchor="start" x="668.87" y="-365.5" font-family="Helvetica,sans-Serif" font-size="10.00">absl/container/btree</text>
<text text-anchor="middle" x="717.87" y="-354.5" font-family="Helvetica,sans-Serif" font-size="10.00">_set.h</text>
</a>
</g>
</g>
<!-- Node42&#45;&gt;Node44 -->
<g id="edge61" class="edge">
<title>Node42&#45;&gt;Node44</title>
<path fill="none" stroke="midnightblue" d="M604.78,-414.48C623.66,-405.96 653.27,-392.62 677.45,-381.72"/>
<polygon fill="midnightblue" stroke="midnightblue" points="679.08,-384.82 686.76,-377.52 676.21,-378.44 679.08,-384.82"/>
</g>
<!-- Node45 -->
<g id="node43" class="node">
<title>Node45</title>
<g id="a_node43"><a xlink:href="axiom_8h.html" target="_top" xlink:title=" ">
<polygon fill="none" stroke="black" points="346.87,-353 346.87,-372 434.87,-372 434.87,-353 346.87,-353"/>
<text text-anchor="middle" x="390.87" y="-360" font-family="Helvetica,sans-Serif" font-size="10.00">thorin/axiom.h</text>
</a>
</g>
</g>
<!-- Node42&#45;&gt;Node45 -->
<g id="edge62" class="edge">
<title>Node42&#45;&gt;Node45</title>
<path fill="none" stroke="midnightblue" d="M557.93,-414.48C523.9,-404.09 466.29,-386.51 428.41,-374.95"/>
<polygon fill="midnightblue" stroke="midnightblue" points="429.34,-371.58 418.76,-372.01 427.3,-378.28 429.34,-371.58"/>
</g>
<!-- Node48 -->
<g id="node46" class="node">
<title>Node48</title>
<g id="a_node46"><a xlink:title=" ">
<polygon fill="none" stroke="#bfbfbf" points="792.87,-353 792.87,-372 878.87,-372 878.87,-353 792.87,-353"/>
<text text-anchor="middle" x="835.87" y="-360" font-family="Helvetica,sans-Serif" font-size="10.00">thorin/config.h</text>
</a>
</g>
</g>
<!-- Node42&#45;&gt;Node48 -->
<g id="edge67" class="edge">
<title>Node42&#45;&gt;Node48</title>
<path fill="none" stroke="midnightblue" d="M626.2,-414.43C666.31,-405.77 729.53,-391.74 783.87,-378 787.96,-376.97 792.22,-375.85 796.46,-374.71"/>
<polygon fill="midnightblue" stroke="midnightblue" points="797.52,-378.05 806.24,-372.03 795.67,-371.29 797.52,-378.05"/>
</g>
<!-- Node49 -->
<g id="node47" class="node">
<title>Node49</title>
<g id="a_node47"><a xlink:href="flags_8h.html" target="_top" xlink:title=" ">
<polygon fill="none" stroke="black" points="896.87,-353 896.87,-372 976.87,-372 976.87,-353 896.87,-353"/>
<text text-anchor="middle" x="936.87" y="-360" font-family="Helvetica,sans-Serif" font-size="10.00">thorin/flags.h</text>
</a>
</g>
</g>
<!-- Node42&#45;&gt;Node49 -->
<g id="edge70" class="edge">
<title>Node42&#45;&gt;Node49</title>
<path fill="none" stroke="midnightblue" d="M628.23,-418.58C686.96,-412.03 796.26,-398.28 887.87,-378 892.06,-377.07 896.42,-375.98 900.73,-374.81"/>
<polygon fill="midnightblue" stroke="midnightblue" points="901.94,-378.11 910.6,-372.01 900.02,-371.37 901.94,-378.11"/>
</g>
<!-- Node50 -->
<g id="node48" class="node">
<title>Node50</title>
<g id="a_node48"><a xlink:href="lattice_8h.html" target="_top" xlink:title=" ">
<polygon fill="none" stroke="black" points="1010.87,-291.5 1010.87,-310.5 1098.87,-310.5 1098.87,-291.5 1010.87,-291.5"/>
<text text-anchor="middle" x="1054.87" y="-298.5" font-family="Helvetica,sans-Serif" font-size="10.00">thorin/lattice.h</text>
</a>
</g>
</g>
<!-- Node42&#45;&gt;Node50 -->
<g id="edge71" class="edge">
<title>Node42&#45;&gt;Node50</title>
<path fill="none" stroke="midnightblue" d="M627.93,-421.52C733.86,-417.4 1005.35,-404.38 1035.87,-378 1052.08,-363.99 1055.53,-338.45 1055.79,-320.87"/>
<polygon fill="midnightblue" stroke="midnightblue" points="1059.29,-320.61 1055.61,-310.67 1052.29,-320.74 1059.29,-320.61"/>
</g>
<!-- Node51 -->
<g id="node49" class="node">
<title>Node51</title>
<g id="a_node49"><a xlink:href="tuple_8h.html" target="_top" xlink:title=" ">
<polygon fill="none" stroke="black" points="858.87,-291.5 858.87,-310.5 940.87,-310.5 940.87,-291.5 858.87,-291.5"/>
<text text-anchor="middle" x="899.87" y="-298.5" font-family="Helvetica,sans-Serif" font-size="10.00">thorin/tuple.h</text>
</a>
</g>
</g>
<!-- Node42&#45;&gt;Node51 -->
<g id="edge73" class="edge">
<title>Node42&#45;&gt;Node51</title>
<path fill="none" stroke="midnightblue" d="M628.25,-421.75C732.15,-418.26 993,-406.7 1018.87,-378 1028.1,-367.77 1026.7,-358.34 1018.87,-347 1003.59,-324.88 975.93,-313.62 951.13,-307.9"/>
<polygon fill="midnightblue" stroke="midnightblue" points="951.57,-304.42 941.08,-305.83 950.17,-311.27 951.57,-304.42"/>
</g>
<!-- Node52 -->
<g id="node50" class="node">
<title>Node52</title>
<g id="a_node50"><a xlink:href="log_8h.html" target="_top" xlink:title=" ">
<polygon fill="none" stroke="black" points="472.37,-235.5 472.37,-254.5 563.37,-254.5 563.37,-235.5 472.37,-235.5"/>
<text text-anchor="middle" x="517.87" y="-242.5" font-family="Helvetica,sans-Serif" font-size="10.00">thorin/util/log.h</text>
</a>
</g>
</g>
<!-- Node42&#45;&gt;Node52 -->
<g id="edge76" class="edge">
<title>Node42&#45;&gt;Node52</title>
<path fill="none" stroke="midnightblue" d="M563.82,-414.49C548.49,-407.29 529.2,-395.34 519.87,-378 500.39,-341.8 507.22,-291.52 513.06,-264.67"/>
<polygon fill="midnightblue" stroke="midnightblue" points="516.53,-265.24 515.43,-254.7 509.71,-263.63 516.53,-265.24"/>
</g>
<!-- Node45&#45;&gt;Node19 -->
<g id="edge66" class="edge">
<title>Node45&#45;&gt;Node19</title>
<path fill="none" stroke="midnightblue" d="M387.22,-352.69C370.35,-311.96 299.76,-141.56 276.41,-85.19"/>
<polygon fill="midnightblue" stroke="midnightblue" points="279.57,-83.68 272.51,-75.78 273.1,-86.36 279.57,-83.68"/>
</g>
<!-- Node46 -->
<g id="node44" class="node">
<title>Node46</title>
<g id="a_node44"><a xlink:href="lam_8h.html" target="_top" xlink:title=" ">
<polygon fill="none" stroke="black" points="396.87,-291.5 396.87,-310.5 472.87,-310.5 472.87,-291.5 396.87,-291.5"/>
<text text-anchor="middle" x="434.87" y="-298.5" font-family="Helvetica,sans-Serif" font-size="10.00">thorin/lam.h</text>
</a>
</g>
</g>
<!-- Node45&#45;&gt;Node46 -->
<g id="edge63" class="edge">
<title>Node45&#45;&gt;Node46</title>
<path fill="none" stroke="midnightblue" d="M397.17,-352.98C403.77,-344.05 414.31,-329.81 422.56,-318.64"/>
<polygon fill="midnightblue" stroke="midnightblue" points="425.45,-320.63 428.58,-310.51 419.82,-316.47 425.45,-320.63"/>
</g>
<!-- Node46&#45;&gt;Node4 -->
<g id="edge65" class="edge">
<title>Node46&#45;&gt;Node4</title>
<path fill="none" stroke="midnightblue" d="M473.13,-295.49C556.87,-285.62 756.11,-262.13 846.66,-251.45"/>
<polygon fill="midnightblue" stroke="midnightblue" points="847.11,-254.92 856.63,-250.27 846.29,-247.97 847.11,-254.92"/>
</g>
<!-- Node47 -->
<g id="node45" class="node">
<title>Node47</title>
<g id="a_node45"><a xlink:title=" ">
<polygon fill="none" stroke="#bfbfbf" points="403.37,-235.5 403.37,-254.5 454.37,-254.5 454.37,-235.5 403.37,-235.5"/>
<text text-anchor="middle" x="428.87" y="-242.5" font-family="Helvetica,sans-Serif" font-size="10.00">variant</text>
</a>
</g>
</g>
<!-- Node46&#45;&gt;Node47 -->
<g id="edge64" class="edge">
<title>Node46&#45;&gt;Node47</title>
<path fill="none" stroke="midnightblue" d="M433.88,-291.08C433.08,-283.93 431.94,-273.64 430.95,-264.69"/>
<polygon fill="midnightblue" stroke="midnightblue" points="434.43,-264.3 429.84,-254.75 427.47,-265.08 434.43,-264.3"/>
</g>
<!-- Node50&#45;&gt;Node4 -->
<g id="edge72" class="edge">
<title>Node50&#45;&gt;Node4</title>
<path fill="none" stroke="midnightblue" d="M1029.2,-291.44C1001.95,-282.36 958.69,-267.94 928.22,-257.78"/>
<polygon fill="midnightblue" stroke="midnightblue" points="929.01,-254.36 918.42,-254.52 926.8,-261 929.01,-254.36"/>
</g>
<!-- Node51&#45;&gt;Node4 -->
<g id="edge74" class="edge">
<title>Node51&#45;&gt;Node4</title>
<path fill="none" stroke="midnightblue" d="M898.71,-291.08C897.79,-283.93 896.45,-273.64 895.29,-264.69"/>
<polygon fill="midnightblue" stroke="midnightblue" points="898.76,-264.22 894,-254.75 891.82,-265.12 898.76,-264.22"/>
</g>
<!-- Node52&#45;&gt;Node7 -->
<g id="edge77" class="edge">
<title>Node52&#45;&gt;Node7</title>
<path fill="none" stroke="midnightblue" d="M537.04,-235.44C556.78,-226.64 587.76,-212.81 610.36,-202.72"/>
<polygon fill="midnightblue" stroke="midnightblue" points="612.08,-205.79 619.79,-198.52 609.23,-199.4 612.08,-205.79"/>
</g>
<!-- Node52&#45;&gt;Node13 -->
<g id="edge78" class="edge">
<title>Node52&#45;&gt;Node13</title>
<path fill="none" stroke="midnightblue" d="M511.93,-235.32C498.95,-216.34 467.84,-170.85 450.7,-145.79"/>
<polygon fill="midnightblue" stroke="midnightblue" points="453.41,-143.56 444.88,-137.28 447.63,-147.51 453.41,-143.56"/>
</g>
</g>
</svg>
