<?xml version="1.0" encoding="UTF-8" standalone="no"?>
<!DOCTYPE svg PUBLIC "-//W3C//DTD SVG 1.1//EN"
 "http://www.w3.org/Graphics/SVG/1.1/DTD/svg11.dtd">
<!-- Generated by graphviz version 2.43.0 (0)
 -->
<!-- Title: /home/runner/work/thorin2/thorin2/thorin/check.h Pages: 1 -->
<svg width="1170pt" height="195pt"
 viewBox="0.00 0.00 1169.50 195.00" xmlns="http://www.w3.org/2000/svg" xmlns:xlink="http://www.w3.org/1999/xlink">
<g id="graph0" class="graph" transform="scale(1 1) rotate(0) translate(4 191)">
<title>/home/runner/work/thorin2/thorin2/thorin/check.h</title>
<!-- Node1 -->
<g id="node1" class="node">
<title>Node1</title>
<g id="a_node1"><a xlink:title=" ">
<polygon fill="#bfbfbf" stroke="black" points="517.5,-156.5 517.5,-186.5 663.5,-186.5 663.5,-156.5 517.5,-156.5"/>
<text text-anchor="start" x="525.5" y="-174.5" font-family="Helvetica,sans-Serif" font-size="10.00">/home/runner/work/thorin2</text>
<text text-anchor="middle" x="590.5" y="-163.5" font-family="Helvetica,sans-Serif" font-size="10.00">/thorin2/thorin/check.h</text>
</a>
</g>
</g>
<!-- Node2 -->
<g id="node2" class="node">
<title>Node2</title>
<g id="a_node2"><a xlink:href="branch__clos__elim_8h.html" target="_top" xlink:title=" ">
<polygon fill="none" stroke="black" points="5.5,-78.5 5.5,-119.5 159.5,-119.5 159.5,-78.5 5.5,-78.5"/>
<text text-anchor="start" x="13.5" y="-107.5" font-family="Helvetica,sans-Serif" font-size="10.00">/home/runner/work/thorin2</text>
<text text-anchor="start" x="13.5" y="-96.5" font-family="Helvetica,sans-Serif" font-size="10.00">/thorin2/dialects/clos</text>
<text text-anchor="middle" x="82.5" y="-85.5" font-family="Helvetica,sans-Serif" font-size="10.00">/pass/rw/branch_clos_elim.h</text>
</a>
</g>
</g>
<!-- Node1&#45;&gt;Node2 -->
<g id="edge1" class="edge">
<title>Node1&#45;&gt;Node2</title>
<path fill="none" stroke="midnightblue" d="M507.18,-163.24C421.77,-155.17 285.3,-140.51 168.5,-120 165.63,-119.5 162.71,-118.96 159.77,-118.39"/>
<polygon fill="midnightblue" stroke="midnightblue" points="507.05,-166.75 517.34,-164.19 507.71,-159.78 507.05,-166.75"/>
</g>
<!-- Node4 -->
<g id="node4" class="node">
<title>Node4</title>
<g id="a_node4"><a xlink:href="clos__conv_8cpp.html" target="_top" xlink:title=" ">
<polygon fill="none" stroke="black" points="177.5,-78.5 177.5,-119.5 323.5,-119.5 323.5,-78.5 177.5,-78.5"/>
<text text-anchor="start" x="185.5" y="-107.5" font-family="Helvetica,sans-Serif" font-size="10.00">/home/runner/work/thorin2</text>
<text text-anchor="start" x="185.5" y="-96.5" font-family="Helvetica,sans-Serif" font-size="10.00">/thorin2/dialects/clos</text>
<text text-anchor="middle" x="250.5" y="-85.5" font-family="Helvetica,sans-Serif" font-size="10.00">/phase/clos_conv.cpp</text>
</a>
</g>
</g>
<!-- Node1&#45;&gt;Node4 -->
<g id="edge3" class="edge">
<title>Node1&#45;&gt;Node4</title>
<path fill="none" stroke="midnightblue" d="M507.61,-155.14C457.17,-145.56 391.49,-132.68 333.5,-120 330.31,-119.3 327.06,-118.58 323.78,-117.84"/>
<polygon fill="midnightblue" stroke="midnightblue" points="507.02,-158.59 517.49,-157.01 508.32,-151.71 507.02,-158.59"/>
</g>
<!-- Node5 -->
<g id="node5" class="node">
<title>Node5</title>
<g id="a_node5"><a xlink:href="lower__typed__clos_8cpp.html" target="_top" xlink:title=" ">
<polygon fill="none" stroke="black" points="342,-78.5 342,-119.5 499,-119.5 499,-78.5 342,-78.5"/>
<text text-anchor="start" x="350" y="-107.5" font-family="Helvetica,sans-Serif" font-size="10.00">/home/runner/work/thorin2</text>
<text text-anchor="start" x="350" y="-96.5" font-family="Helvetica,sans-Serif" font-size="10.00">/thorin2/dialects/clos</text>
<text text-anchor="middle" x="420.5" y="-85.5" font-family="Helvetica,sans-Serif" font-size="10.00">/phase/lower_typed_clos.cpp</text>
</a>
</g>
</g>
<!-- Node1&#45;&gt;Node5 -->
<g id="edge4" class="edge">
<title>Node1&#45;&gt;Node5</title>
<path fill="none" stroke="midnightblue" d="M547.17,-152.53C522.87,-142.45 492.53,-129.87 467.63,-119.55"/>
<polygon fill="midnightblue" stroke="midnightblue" points="545.93,-155.8 556.51,-156.4 548.61,-149.34 545.93,-155.8"/>
</g>
<!-- Node6 -->
<g id="node6" class="node">
<title>Node6</title>
<g id="a_node6"><a xlink:href="check_8cpp.html" target="_top" xlink:title=" ">
<polygon fill="none" stroke="black" points="517.5,-84 517.5,-114 663.5,-114 663.5,-84 517.5,-84"/>
<text text-anchor="start" x="525.5" y="-102" font-family="Helvetica,sans-Serif" font-size="10.00">/home/runner/work/thorin2</text>
<text text-anchor="middle" x="590.5" y="-91" font-family="Helvetica,sans-Serif" font-size="10.00">/thorin2/thorin/check.cpp</text>
</a>
</g>
</g>
<!-- Node1&#45;&gt;Node6 -->
<g id="edge5" class="edge">
<title>Node1&#45;&gt;Node6</title>
<path fill="none" stroke="midnightblue" d="M590.5,-146.23C590.5,-135.57 590.5,-123.41 590.5,-114.25"/>
<polygon fill="midnightblue" stroke="midnightblue" points="587,-146.23 590.5,-156.23 594,-146.23 587,-146.23"/>
</g>
<!-- Node7 -->
<g id="node7" class="node">
<title>Node7</title>
<g id="a_node7"><a xlink:href="ast_8cpp.html" target="_top" xlink:title=" ">
<polygon fill="none" stroke="black" points="681.5,-84 681.5,-114 827.5,-114 827.5,-84 681.5,-84"/>
<text text-anchor="start" x="689.5" y="-102" font-family="Helvetica,sans-Serif" font-size="10.00">/home/runner/work/thorin2</text>
<text text-anchor="middle" x="754.5" y="-91" font-family="Helvetica,sans-Serif" font-size="10.00">/thorin2/thorin/fe/ast.cpp</text>
</a>
</g>
</g>
<!-- Node1&#45;&gt;Node7 -->
<g id="edge6" class="edge">
<title>Node1&#45;&gt;Node7</title>
<path fill="none" stroke="midnightblue" d="M632.74,-152.34C660.46,-140.42 696.19,-125.07 721.76,-114.07"/>
<polygon fill="midnightblue" stroke="midnightblue" points="631.1,-149.24 623.29,-156.4 633.86,-155.67 631.1,-149.24"/>
</g>
<!-- Node8 -->
<g id="node8" class="node">
<title>Node8</title>
<g id="a_node8"><a xlink:href="parser_8cpp.html" target="_top" xlink:title=" ">
<polygon fill="none" stroke="black" points="845.5,-84 845.5,-114 997.5,-114 997.5,-84 845.5,-84"/>
<text text-anchor="start" x="853.5" y="-102" font-family="Helvetica,sans-Serif" font-size="10.00">/home/runner/work/thorin2</text>
<text text-anchor="middle" x="921.5" y="-91" font-family="Helvetica,sans-Serif" font-size="10.00">/thorin2/thorin/fe/parser.cpp</text>
</a>
</g>
</g>
<!-- Node1&#45;&gt;Node8 -->
<g id="edge7" class="edge">
<title>Node1&#45;&gt;Node8</title>
<path fill="none" stroke="midnightblue" d="M671.69,-154.44C719.7,-144.79 781.64,-132.08 836.5,-120 844.94,-118.14 853.83,-116.12 862.56,-114.1"/>
<polygon fill="midnightblue" stroke="midnightblue" points="670.78,-151.05 661.66,-156.45 672.16,-157.92 670.78,-151.05"/>
</g>
<!-- Node9 -->
<g id="node9" class="node">
<title>Node9</title>
<g id="a_node9"><a xlink:href="world_8cpp.html" target="_top" xlink:title=" ">
<polygon fill="none" stroke="black" points="1015.5,-84 1015.5,-114 1161.5,-114 1161.5,-84 1015.5,-84"/>
<text text-anchor="start" x="1023.5" y="-102" font-family="Helvetica,sans-Serif" font-size="10.00">/home/runner/work/thorin2</text>
<text text-anchor="middle" x="1088.5" y="-91" font-family="Helvetica,sans-Serif" font-size="10.00">/thorin2/thorin/world.cpp</text>
</a>
</g>
</g>
<!-- Node1&#45;&gt;Node9 -->
<g id="edge8" class="edge">
<title>Node1&#45;&gt;Node9</title>
<path fill="none" stroke="midnightblue" d="M673.82,-163.31C758.11,-155.36 891.98,-140.84 1006.5,-120 1015.73,-118.32 1025.46,-116.23 1034.88,-114.04"/>
<polygon fill="midnightblue" stroke="midnightblue" points="673.42,-159.84 663.79,-164.25 674.07,-166.81 673.42,-159.84"/>
</g>
<!-- Node3 -->
<g id="node3" class="node">
<title>Node3</title>
<g id="a_node3"><a xlink:href="branch__clos__elim_8cpp.html" target="_top" xlink:title=" ">
<polygon fill="none" stroke="black" points="0,-0.5 0,-41.5 165,-41.5 165,-0.5 0,-0.5"/>
<text text-anchor="start" x="8" y="-29.5" font-family="Helvetica,sans-Serif" font-size="10.00">/home/runner/work/thorin2</text>
<text text-anchor="start" x="8" y="-18.5" font-family="Helvetica,sans-Serif" font-size="10.00">/thorin2/dialects/clos</text>
<text text-anchor="middle" x="82.5" y="-7.5" font-family="Helvetica,sans-Serif" font-size="10.00">/pass/rw/branch_clos_elim.cpp</text>
</a>
</g>
</g>
<!-- Node2&#45;&gt;Node3 -->
<g id="edge2" class="edge">
<title>Node2&#45;&gt;Node3</title>
<path fill="none" stroke="midnightblue" d="M82.5,-68.3C82.5,-59.3 82.5,-49.65 82.5,-41.51"/>
<polygon fill="midnightblue" stroke="midnightblue" points="79,-68.43 82.5,-78.43 86,-68.43 79,-68.43"/>
</g>
</g>
</svg>
