<?xml version="1.0" encoding="UTF-8" standalone="no"?>
<!DOCTYPE svg PUBLIC "-//W3C//DTD SVG 1.1//EN"
 "http://www.w3.org/Graphics/SVG/1.1/DTD/svg11.dtd">
<!-- Generated by graphviz version 2.43.0 (0)
 -->
<!-- Title: mim::RWPhase Pages: 1 -->
<!--zoomable 298 -->

<svg id="main" version="1.1" xmlns="http://www.w3.org/2000/svg" xmlns:xlink="http://www.w3.org/1999/xlink" xml:space="preserve" onload="init(evt)">

<style type="text/css"><![CDATA[
.node, .edge {opacity: 0.7;}
.node.selected, .edge.selected {opacity: 1;}
.edge:hover path { stroke: red; }
.edge:hover polygon { stroke: red; fill: red; }
]]></style>

<defs>
  <circle id="rim" cx="0" cy="0" r="7"/>
  <circle id="rim2" cx="0" cy="0" r="3.5"/>
  <g id="zoomPlus">
    <use xlink:href="#rim" fill="#404040"><set attributeName="fill" to="#808080" begin="zoomplus.mouseover" end="zoomplus.mouseout"/></use>
    <path d="M-4,0h8M0,-4v8" fill="none" stroke="white" stroke-width="1.5" pointer-events="none"/>
  </g>
  <g id="zoomMin">
    <use xlink:href="#rim" fill="#404040"><set attributeName="fill" to="#808080" begin="zoomminus.mouseover" end="zoomminus.mouseout"/></use>
    <path d="M-4,0h8" fill="none" stroke="white" stroke-width="1.5" pointer-events="none"/>
  </g>
  <g id="arrowUp" transform="translate(30 24)">
    <use xlink:href="#rim"/>
    <path pointer-events="none" fill="none" stroke="white" stroke-width="1.5" d="M0,-3.0v7 M-2.5,-0.5L0,-3.0L2.5,-0.5"/>
  </g>
  <g id="arrowRight" transform="rotate(90) translate(36 -43)">
    <use xlink:href="#rim"/>
    <path pointer-events="none" fill="none" stroke="white" stroke-width="1.5" d="M0,-3.0v7 M-2.5,-0.5L0,-3.0L2.5,-0.5"/>
  </g>
  <g id="arrowDown" transform="rotate(180) translate(-30 -48)">
    <use xlink:href="#rim"/>
    <path pointer-events="none" fill="none" stroke="white" stroke-width="1.5" d="M0,-3.0v7 M-2.5,-0.5L0,-3.0L2.5,-0.5"/>
  </g>
  <g id="arrowLeft" transform="rotate(270) translate(-36 17)">
    <use xlink:href="#rim"/>
    <path pointer-events="none" fill="none" stroke="white" stroke-width="1.5" d="M0,-3.0v7 M-2.5,-0.5L0,-3.0L2.5,-0.5"/>
  </g>
  <g id="resetDef">
    <use xlink:href="#rim2" fill="#404040"><set attributeName="fill" to="#808080" begin="reset.mouseover" end="reset.mouseout"/></use>
  </g>
</defs>
<script type="application/ecmascript">
var viewWidth = 706;
var viewHeight = 298;
var sectionId = 'dynsection-0';
</script>
<script type="application/ecmascript" xlink:href="svg.min.js"/>
<svg id="graph" class="graph">
<g id="viewport">
<title>mim::RWPhase</title>
<!-- Node1 -->
<g id="Node000001" class="node">
<title>Node1</title>
<g id="a_Node000001"><a xlink:title="Rewrites the RWPhase::old_world into the RWPhase::new_world and swaps them afterwards.">
<polygon fill="#999999" stroke="#666666" points="504,-159.5 413,-159.5 413,-140.5 504,-140.5 504,-159.5"/>
<text text-anchor="middle" x="458.5" y="-147.5" font-family="Helvetica,sans-Serif" font-size="10.00">mim::RWPhase</text>
</a>
</g>
</g>
<!-- Node6 -->
<g id="Node000006" class="node">
<title>Node6</title>
<g id="a_Node000006"><a xlink:href="classmim_1_1BetaRedPhase.html" target="_top" xlink:title="Inlines in post&#45;order all Lams that occur exactly once in the program.">
<polygon fill="white" stroke="#666666" points="677,-289.5 561,-289.5 561,-270.5 677,-270.5 677,-289.5"/>
<text text-anchor="middle" x="619" y="-277.5" font-family="Helvetica,sans-Serif" font-size="10.00">mim::BetaRedPhase</text>
</a>
</g>
</g>
<!-- Node1&#45;&gt;Node6 -->
<g id="edge5_Node000001_Node000006" class="edge">
<title>Node1&#45;&gt;Node6</title>
<g id="a_edge5_Node000001_Node000006"><a xlink:title=" ">
<path fill="none" stroke="#63b8ff" d="M467.76,-168.85C479.84,-194.14 504.78,-238.56 540,-262 546.25,-266.16 553.33,-269.36 560.62,-271.83"/>
<polygon fill="#63b8ff" stroke="#63b8ff" points="470.86,-167.22 463.5,-159.6 464.5,-170.14 470.86,-167.22"/>
</a>
</g>
</g>
<!-- Node7 -->
<g id="Node000007" class="node">
<title>Node7</title>
<g id="a_Node000007"><a xlink:href="classmim_1_1BranchNormalizePhase.html" target="_top" xlink:title="Inlines in post&#45;order all Lams that occur exactly once in the program.">
<polygon fill="white" stroke="#666666" points="698,-252.5 540,-252.5 540,-233.5 698,-233.5 698,-252.5"/>
<text text-anchor="middle" x="619" y="-240.5" font-family="Helvetica,sans-Serif" font-size="10.00">mim::BranchNormalizePhase</text>
</a>
</g>
</g>
<!-- Node1&#45;&gt;Node7 -->
<g id="edge6_Node000001_Node000007" class="edge">
<title>Node1&#45;&gt;Node7</title>
<g id="a_edge6_Node000001_Node000007"><a xlink:title=" ">
<path fill="none" stroke="#63b8ff" d="M473.79,-167.93C488.55,-185.19 513.14,-210.73 540,-225 546.38,-228.39 553.39,-231.15 560.5,-233.39"/>
<polygon fill="#63b8ff" stroke="#63b8ff" points="476.1,-165.22 467.02,-159.76 470.71,-169.69 476.1,-165.22"/>
</a>
</g>
</g>
<!-- Node8 -->
<g id="Node000008" class="node">
<title>Node8</title>
<g id="a_Node000008"><a xlink:href="classmim_1_1Cleanup.html" target="_top" xlink:title="Removes unreachable and dead code by rebuilding the whole World into a new one and swapping them afte...">
<polygon fill="white" stroke="#666666" points="661.5,-215.5 576.5,-215.5 576.5,-196.5 661.5,-196.5 661.5,-215.5"/>
<text text-anchor="middle" x="619" y="-203.5" font-family="Helvetica,sans-Serif" font-size="10.00">mim::Cleanup</text>
</a>
</g>
</g>
<!-- Node1&#45;&gt;Node8 -->
<g id="edge7_Node000001_Node000008" class="edge">
<title>Node1&#45;&gt;Node8</title>
<g id="a_edge7_Node000001_Node000008"><a xlink:title=" ">
<path fill="none" stroke="#63b8ff" d="M485.9,-164.22C501.33,-172.09 521.38,-181.54 540,-188 551.55,-192.01 564.38,-195.39 576.24,-198.1"/>
<polygon fill="#63b8ff" stroke="#63b8ff" points="487.43,-161.08 476.95,-159.58 484.21,-167.29 487.43,-161.08"/>
</a>
</g>
</g>
<!-- Node9 -->
<g id="Node000009" class="node">
<title>Node9</title>
<g id="a_Node000009"><a xlink:href="classmim_1_1EtaExpPhase.html" target="_top" xlink:title="Inlines in post&#45;order all Lams that occur exactly once in the program.">
<polygon fill="white" stroke="#666666" points="673,-178.5 565,-178.5 565,-159.5 673,-159.5 673,-178.5"/>
<text text-anchor="middle" x="619" y="-166.5" font-family="Helvetica,sans-Serif" font-size="10.00">mim::EtaExpPhase</text>
</a>
</g>
</g>
<!-- Node1&#45;&gt;Node9 -->
<g id="edge8_Node000001_Node000009" class="edge">
<title>Node1&#45;&gt;Node9</title>
<g id="a_edge8_Node000001_Node000009"><a xlink:title=" ">
<path fill="none" stroke="#63b8ff" d="M514.06,-156.54C530.47,-158.51 548.45,-160.66 564.77,-162.62"/>
<polygon fill="#63b8ff" stroke="#63b8ff" points="514.42,-153.06 504.07,-155.34 513.59,-160.01 514.42,-153.06"/>
</a>
</g>
</g>
<!-- Node10 -->
<g id="Node000010" class="node">
<title>Node10</title>
<g id="a_Node000010"><a xlink:href="classmim_1_1EtaRedPhase.html" target="_top" xlink:title="Inlines in post&#45;order all Lams that occur exactly once in the program.">
<polygon fill="white" stroke="#666666" points="673.5,-141.5 564.5,-141.5 564.5,-122.5 673.5,-122.5 673.5,-141.5"/>
<text text-anchor="middle" x="619" y="-129.5" font-family="Helvetica,sans-Serif" font-size="10.00">mim::EtaRedPhase</text>
</a>
</g>
</g>
<!-- Node1&#45;&gt;Node10 -->
<g id="edge9_Node000001_Node000010" class="edge">
<title>Node1&#45;&gt;Node10</title>
<g id="a_edge9_Node000001_Node000010"><a xlink:title=" ">
<path fill="none" stroke="#63b8ff" d="M514.01,-143.81C530.34,-141.96 548.22,-139.92 564.49,-138.08"/>
<polygon fill="#63b8ff" stroke="#63b8ff" points="513.61,-140.33 504.07,-144.94 514.4,-147.29 513.61,-140.33"/>
</a>
</g>
</g>
<!-- Node11 -->
<g id="Node000011" class="node">
<title>Node11</title>
<g id="a_Node000011"><a xlink:href="classmim_1_1PrefixCleanup.html" target="_top" xlink:title=" ">
<polygon fill="white" stroke="#666666" points="675.5,-104.5 562.5,-104.5 562.5,-85.5 675.5,-85.5 675.5,-104.5"/>
<text text-anchor="middle" x="619" y="-92.5" font-family="Helvetica,sans-Serif" font-size="10.00">mim::PrefixCleanup</text>
</a>
</g>
</g>
<!-- Node1&#45;&gt;Node11 -->
<g id="edge10_Node000001_Node000011" class="edge">
<title>Node1&#45;&gt;Node11</title>
<g id="a_edge10_Node000001_Node000011"><a xlink:title=" ">
<path fill="none" stroke="#63b8ff" d="M486.55,-135.89C501.91,-128.3 521.68,-119.25 540,-113 549.47,-109.77 559.78,-106.93 569.72,-104.52"/>
<polygon fill="#63b8ff" stroke="#63b8ff" points="484.97,-132.76 477.61,-140.38 488.11,-139.02 484.97,-132.76"/>
</a>
</g>
</g>
<!-- Node12 -->
<g id="Node000012" class="node">
<title>Node12</title>
<g id="a_Node000012"><a xlink:href="classmim_1_1RetWrap.html" target="_top" xlink:title=" ">
<polygon fill="white" stroke="#666666" points="662.5,-67.5 575.5,-67.5 575.5,-48.5 662.5,-48.5 662.5,-67.5"/>
<text text-anchor="middle" x="619" y="-55.5" font-family="Helvetica,sans-Serif" font-size="10.00">mim::RetWrap</text>
</a>
</g>
</g>
<!-- Node1&#45;&gt;Node12 -->
<g id="edge11_Node000001_Node000012" class="edge">
<title>Node1&#45;&gt;Node12</title>
<g id="a_edge11_Node000001_Node000012"><a xlink:title=" ">
<path fill="none" stroke="#63b8ff" d="M473.85,-132.32C488.64,-115.29 513.26,-90.1 540,-76 550.82,-70.3 563.42,-66.39 575.29,-63.71"/>
<polygon fill="#63b8ff" stroke="#63b8ff" points="470.82,-130.48 467.05,-140.38 476.17,-134.99 470.82,-130.48"/>
</a>
</g>
</g>
<!-- Node13 -->
<g id="Node000013" class="node">
<title>Node13</title>
<g id="a_Node000013"><a xlink:href="classmim_1_1plug_1_1matrix_1_1LowerMatrixLowLevel.html" target="_top" xlink:title="In this phase, we lower all matrix operations and types to the low&#45;level representation using pointer...">
<polygon fill="white" stroke="#666666" points="680.5,-30 557.5,-30 557.5,0 680.5,0 680.5,-30"/>
<text text-anchor="start" x="565.5" y="-18" font-family="Helvetica,sans-Serif" font-size="10.00">mim::plug::matrix::</text>
<text text-anchor="middle" x="619" y="-7" font-family="Helvetica,sans-Serif" font-size="10.00">LowerMatrixLowLevel</text>
</a>
</g>
</g>
<!-- Node1&#45;&gt;Node13 -->
<g id="edge12_Node000001_Node000013" class="edge">
<title>Node1&#45;&gt;Node13</title>
<g id="a_edge12_Node000001_Node000013"><a xlink:title=" ">
<path fill="none" stroke="#63b8ff" d="M468.23,-131.3C480.72,-106.59 505.97,-63.34 540,-39 545.3,-35.21 551.22,-32 557.35,-29.3"/>
<polygon fill="#63b8ff" stroke="#63b8ff" points="465.05,-129.84 463.81,-140.37 471.34,-132.91 465.05,-129.84"/>
</a>
</g>
</g>
<!-- Node2 -->
<g id="Node000002" class="node">
<title>Node2</title>
<g id="a_Node000002"><a xlink:href="classmim_1_1Phase.html" target="_top" xlink:title="As opposed to a Pass, a Phase does one thing at a time and does not mix with other Phases.">
<polygon fill="white" stroke="#666666" points="371,-178.5 297,-178.5 297,-159.5 371,-159.5 371,-178.5"/>
<text text-anchor="middle" x="334" y="-166.5" font-family="Helvetica,sans-Serif" font-size="10.00">mim::Phase</text>
</a>
</g>
</g>
<!-- Node2&#45;&gt;Node1 -->
<g id="edge1_Node000001_Node000002" class="edge">
<title>Node2&#45;&gt;Node1</title>
<g id="a_edge1_Node000001_Node000002"><a xlink:title=" ">
<path fill="none" stroke="#63b8ff" d="M381.24,-161.83C391.64,-160.22 402.65,-158.51 412.98,-156.9"/>
<polygon fill="#63b8ff" stroke="#63b8ff" points="380.44,-158.41 371.09,-163.4 381.51,-165.33 380.44,-158.41"/>
</a>
</g>
</g>
<!-- Node3 -->
<g id="Node000003" class="node">
<title>Node3</title>
<g id="a_Node000003"><a xlink:href="classmim_1_1Stage.html" target="_top" xlink:title="Common base for Phase and Pass.">
<polygon fill="white" stroke="#666666" points="255,-178.5 182,-178.5 182,-159.5 255,-159.5 255,-178.5"/>
<text text-anchor="middle" x="218.5" y="-166.5" font-family="Helvetica,sans-Serif" font-size="10.00">mim::Stage</text>
</a>
</g>
</g>
<!-- Node3&#45;&gt;Node2 -->
<g id="edge2_Node000002_Node000003" class="edge">
<title>Node3&#45;&gt;Node2</title>
<g id="a_edge2_Node000002_Node000003"><a xlink:title=" ">
<path fill="none" stroke="#63b8ff" d="M265.33,-169C275.78,-169 286.75,-169 296.74,-169"/>
<polygon fill="#63b8ff" stroke="#63b8ff" points="265.1,-165.5 255.1,-169 265.1,-172.5 265.1,-165.5"/>
</a>
</g>
</g>
<!-- Node4 -->
<g id="Node000004" class="node">
<title>Node4</title>
<g id="a_Node000004"><a xlink:title=" ">
<polygon fill="white" stroke="#666666" points="146,-178.5 0,-178.5 0,-159.5 146,-159.5 146,-178.5"/>
<text text-anchor="middle" x="73" y="-166.5" font-family="Helvetica,sans-Serif" font-size="10.00">fe::RuntimeCast&lt; Stage &gt;</text>
</a>
</g>
</g>
<!-- Node4&#45;&gt;Node3 -->
<g id="edge3_Node000003_Node000004" class="edge">
<title>Node4&#45;&gt;Node3</title>
<g id="a_edge3_Node000003_Node000004"><a xlink:title=" ">
<path fill="none" stroke="#63b8ff" d="M156.33,-169C165.27,-169 173.98,-169 181.9,-169"/>
<polygon fill="#63b8ff" stroke="#63b8ff" points="156.17,-165.5 146.17,-169 156.17,-172.5 156.17,-165.5"/>
</a>
</g>
</g>
<!-- Node5 -->
<g id="Node000005" class="node">
<title>Node5</title>
<g id="a_Node000005"><a xlink:href="classmim_1_1Rewriter.html" target="_top" xlink:title="Recurseivly rebuilds part of a program into the provided World w.r.t. Rewriter::map.">
<polygon fill="white" stroke="#666666" points="377,-141.5 291,-141.5 291,-122.5 377,-122.5 377,-141.5"/>
<text text-anchor="middle" x="334" y="-129.5" font-family="Helvetica,sans-Serif" font-size="10.00">mim::Rewriter</text>
</a>
</g>
</g>
<!-- Node5&#45;&gt;Node1 -->
<g id="edge4_Node000001_Node000005" class="edge">
<title>Node5&#45;&gt;Node1</title>
<g id="a_edge4_Node000001_Node000005"><a xlink:title=" ">
<path fill="none" stroke="#63b8ff" d="M387.33,-139.69C395.79,-140.93 404.49,-142.21 412.76,-143.43"/>
<polygon fill="#63b8ff" stroke="#63b8ff" points="387.56,-136.19 377.16,-138.19 386.54,-143.11 387.56,-136.19"/>
</a>
</g>
</g>
</g>
</svg>

<g id="navigator" transform="translate(0 0)" fill="#404254">
  <rect fill="#f2f5e9" fill-opacity="0.5" stroke="#606060" stroke-width=".5" x="0" y="0" width="60" height="60"/>
  <use id="zoomplus" xlink:href="#zoomPlus" x="17" y="9" onmousedown="handleZoom(evt,'in')"/>
  <use id="zoomminus" xlink:href="#zoomMin" x="42" y="9" onmousedown="handleZoom(evt,'out')"/>
  <use id="reset" xlink:href="#resetDef" x="30" y="36" onmousedown="handleReset()"/>
   <use id="arrowup" xlink:href="#arrowUp" x="0" y="0" onmousedown="handlePan(0,-1)"/>
  <use id="arrowright" xlink:href="#arrowRight" x="0" y="0" onmousedown="handlePan(1,0)"/>
  <use id="arrowdown" xlink:href="#arrowDown" x="0" y="0" onmousedown="handlePan(0,1)"/>
  <use id="arrowleft" xlink:href="#arrowLeft" x="0" y="0" onmousedown="handlePan(-1,0)"/>
</g>
<svg viewBox="0 0 15 15" width="100%" height="30px" preserveAspectRatio="xMaxYMin meet">
 <g id="arrow_out" transform="scale(0.3 0.3)">
  <a xlink:href="classmim_1_1RWPhase__inherit__graph_org.svg" target="_base">
   <rect id="button" ry="5" rx="5" y="6" x="6" height="38" width="38"
        fill="#f2f5e9" fill-opacity="0.5" stroke="#606060" stroke-width="1.0"/>
   <path id="arrow"
     d="M 11.500037,31.436501 C 11.940474,20.09759 22.043105,11.32322 32.158766,21.979434 L 37.068811,17.246167 C 37.068811,17.246167 37.088388,32 37.088388,32 L 22.160133,31.978069 C 22.160133,31.978069 26.997745,27.140456 26.997745,27.140456 C 18.528582,18.264221 13.291696,25.230495 11.500037,31.436501 z"
     style="fill:#404040;"/>
  </a>
 </g>
</svg>

<style type='text/css'>
<![CDATA[
[data-mouse-over-selected='false'] { opacity: 0.7; }
[data-mouse-over-selected='true']  { opacity: 1.0; }
]]>
</style>
<script type="application/ecmascript"><![CDATA[
document.addEventListener('DOMContentLoaded', (event) => {
  highlightEdges();
  highlightAdjacentNodes();
});
]]></script>
</svg>
