<?xml version="1.0" encoding="UTF-8" standalone="no"?>
<!DOCTYPE svg PUBLIC "-//W3C//DTD SVG 1.1//EN"
 "http://www.w3.org/Graphics/SVG/1.1/DTD/svg11.dtd">
<!-- Generated by graphviz version 2.43.0 (0)
 -->
<!-- Title: mim::NestPhase&lt; M &gt; Pages: 1 -->
<svg width="1733pt" height="102pt"
 viewBox="0.00 0.00 1733.00 102.00" xmlns="http://www.w3.org/2000/svg" xmlns:xlink="http://www.w3.org/1999/xlink">
<g id="graph0" class="graph" transform="scale(1 1) rotate(0) translate(4 98)">
<title>mim::NestPhase&lt; M &gt;</title>
<!-- Node1 -->
<g id="Node000001" class="node">
<title>Node1</title>
<g id="a_Node000001"><a xlink:title="Like ClosedMutPhase but computes a Nest for each NestPhase::visit.">
<polygon fill="#999999" stroke="#666666" points="932,-62 804,-62 804,-43 932,-43 932,-62"/>
<text text-anchor="middle" x="868" y="-50" font-family="Helvetica,sans-Serif" font-size="10.00">mim::NestPhase&lt; M &gt;</text>
</a>
</g>
</g>
<!-- Node7 -->
<g id="Node000007" class="node">
<title>Node7</title>
<g id="a_Node000007"><a xlink:href="classmim_1_1NestPhase.html" target="_top" xlink:title=" ">
<polygon fill="white" stroke="#666666" points="1155,-62 1015,-62 1015,-43 1155,-43 1155,-62"/>
<text text-anchor="middle" x="1085" y="-50" font-family="Helvetica,sans-Serif" font-size="10.00">mim::NestPhase&lt; Lam &gt;</text>
</a>
</g>
</g>
<!-- Node1&#45;&gt;Node7 -->
<g id="edge7_Node000001_Node000007" class="edge">
<title>Node1&#45;&gt;Node7</title>
<g id="a_edge7_Node000001_Node000007"><a xlink:title=" ">
<path fill="none" stroke="orange" stroke-dasharray="5,2" d="M942.31,-52.5C965.81,-52.5 991.74,-52.5 1014.93,-52.5"/>
<polygon fill="orange" stroke="orange" points="942.05,-49 932.05,-52.5 942.05,-56 942.05,-49"/>
</a>
</g>
<text text-anchor="middle" x="973.5" y="-55.5" font-family="Helvetica,sans-Serif" font-size="10.00" fill="grey"> &lt; Lam &gt;</text>
</g>
<!-- Node2 -->
<g id="Node000002" class="node">
<title>Node2</title>
<g id="a_Node000002"><a xlink:href="classmim_1_1ClosedMutPhase.html" target="_top" xlink:title=" ">
<polygon fill="white" stroke="#666666" points="767,-67.5 641,-67.5 641,-37.5 767,-37.5 767,-67.5"/>
<text text-anchor="start" x="649" y="-55.5" font-family="Helvetica,sans-Serif" font-size="10.00">mim::ClosedMutPhase</text>
<text text-anchor="middle" x="704" y="-44.5" font-family="Helvetica,sans-Serif" font-size="10.00">&lt; Def &gt;</text>
</a>
</g>
</g>
<!-- Node2&#45;&gt;Node1 -->
<g id="edge1_Node000001_Node000002" class="edge">
<title>Node2&#45;&gt;Node1</title>
<g id="a_edge1_Node000001_Node000002"><a xlink:title=" ">
<path fill="none" stroke="#63b8ff" d="M777.45,-52.5C786.28,-52.5 795.25,-52.5 803.92,-52.5"/>
<polygon fill="#63b8ff" stroke="#63b8ff" points="777.17,-49 767.17,-52.5 777.17,-56 777.17,-49"/>
</a>
</g>
</g>
<!-- Node3 -->
<g id="Node000003" class="node">
<title>Node3</title>
<g id="a_Node000003"><a xlink:href="classmim_1_1Phase.html" target="_top" xlink:title="As opposed to a Pass, a Phase does one thing at a time and does not mix with other Phases.">
<polygon fill="white" stroke="#666666" points="367,-62 293,-62 293,-43 367,-43 367,-62"/>
<text text-anchor="middle" x="330" y="-50" font-family="Helvetica,sans-Serif" font-size="10.00">mim::Phase</text>
</a>
</g>
</g>
<!-- Node3&#45;&gt;Node2 -->
<g id="edge2_Node000002_Node000003" class="edge">
<title>Node3&#45;&gt;Node2</title>
<g id="a_edge2_Node000002_Node000003"><a xlink:title=" ">
<path fill="none" stroke="#63b8ff" d="M377.32,-57.07C379.92,-57.24 382.49,-57.38 385,-57.5 490.67,-62.38 517.27,-60.8 623,-57.5 628.7,-57.32 634.63,-57.07 640.57,-56.78"/>
<polygon fill="#63b8ff" stroke="#63b8ff" points="377.51,-53.57 367.28,-56.32 376.99,-60.55 377.51,-53.57"/>
</a>
</g>
</g>
<!-- Node6 -->
<g id="Node000006" class="node">
<title>Node6</title>
<g id="a_Node000006"><a xlink:href="classmim_1_1ClosedMutPhase.html" target="_top" xlink:title="Transitively visits all reachable, closed mutables in the World.">
<polygon fill="white" stroke="#666666" points="562,-43 404,-43 404,-24 562,-24 562,-43"/>
<text text-anchor="middle" x="483" y="-31" font-family="Helvetica,sans-Serif" font-size="10.00">mim::ClosedMutPhase&lt; M &gt;</text>
</a>
</g>
</g>
<!-- Node3&#45;&gt;Node6 -->
<g id="edge6_Node000006_Node000003" class="edge">
<title>Node3&#45;&gt;Node6</title>
<g id="a_edge6_Node000006_Node000003"><a xlink:title=" ">
<path fill="none" stroke="#63b8ff" d="M377.27,-46.68C386.51,-45.52 396.44,-44.27 406.37,-43.02"/>
<polygon fill="#63b8ff" stroke="#63b8ff" points="376.65,-43.23 367.17,-47.95 377.53,-50.17 376.65,-43.23"/>
</a>
</g>
</g>
<!-- Node4 -->
<g id="Node000004" class="node">
<title>Node4</title>
<g id="a_Node000004"><a xlink:href="classmim_1_1Stage.html" target="_top" xlink:title="Common base for Phase and Pass.">
<polygon fill="white" stroke="#666666" points="256,-62 183,-62 183,-43 256,-43 256,-62"/>
<text text-anchor="middle" x="219.5" y="-50" font-family="Helvetica,sans-Serif" font-size="10.00">mim::Stage</text>
</a>
</g>
</g>
<!-- Node4&#45;&gt;Node3 -->
<g id="edge3_Node000003_Node000004" class="edge">
<title>Node4&#45;&gt;Node3</title>
<g id="a_edge3_Node000003_Node000004"><a xlink:title=" ">
<path fill="none" stroke="#63b8ff" d="M266.19,-52.5C275.02,-52.5 284.17,-52.5 292.65,-52.5"/>
<polygon fill="#63b8ff" stroke="#63b8ff" points="266.03,-49 256.03,-52.5 266.03,-56 266.03,-49"/>
</a>
</g>
</g>
<!-- Node5 -->
<g id="Node000005" class="node">
<title>Node5</title>
<g id="a_Node000005"><a xlink:title=" ">
<polygon fill="white" stroke="#666666" points="146,-62 0,-62 0,-43 146,-43 146,-62"/>
<text text-anchor="middle" x="73" y="-50" font-family="Helvetica,sans-Serif" font-size="10.00">fe::RuntimeCast&lt; Stage &gt;</text>
</a>
</g>
</g>
<!-- Node5&#45;&gt;Node4 -->
<g id="edge4_Node000004_Node000005" class="edge">
<title>Node5&#45;&gt;Node4</title>
<g id="a_edge4_Node000004_Node000005"><a xlink:title=" ">
<path fill="none" stroke="#63b8ff" d="M156.34,-52.5C165.59,-52.5 174.61,-52.5 182.78,-52.5"/>
<polygon fill="#63b8ff" stroke="#63b8ff" points="156.25,-49 146.25,-52.5 156.25,-56 156.25,-49"/>
</a>
</g>
</g>
<!-- Node6&#45;&gt;Node2 -->
<g id="edge5_Node000002_Node000006" class="edge">
<title>Node6&#45;&gt;Node2</title>
<g id="a_edge5_Node000002_Node000006"><a xlink:title=" ">
<path fill="none" stroke="orange" stroke-dasharray="5,2" d="M572.23,-41.15C595.17,-43.15 619.42,-45.25 640.71,-47.1"/>
<polygon fill="orange" stroke="orange" points="572.4,-37.66 562.14,-40.28 571.8,-44.63 572.4,-37.66"/>
</a>
</g>
<text text-anchor="middle" x="601.5" y="-48.5" font-family="Helvetica,sans-Serif" font-size="10.00" fill="grey"> &lt; Def &gt;</text>
</g>
<!-- Node8 -->
<g id="Node000008" class="node">
<title>Node8</title>
<g id="a_Node000008"><a xlink:href="classmim_1_1Emitter.html" target="_top" xlink:title=" ">
<polygon fill="white" stroke="#666666" points="1595,-94 1482,-94 1482,-53 1595,-53 1595,-94"/>
<text text-anchor="start" x="1490" y="-82" font-family="Helvetica,sans-Serif" font-size="10.00">mim::Emitter&lt; std::</text>
<text text-anchor="start" x="1490" y="-71" font-family="Helvetica,sans-Serif" font-size="10.00">string, std::string,</text>
<text text-anchor="middle" x="1538.5" y="-60" font-family="Helvetica,sans-Serif" font-size="10.00"> BB, Emitter &gt;</text>
</a>
</g>
</g>
<!-- Node7&#45;&gt;Node8 -->
<g id="edge8_Node000007_Node000008" class="edge">
<title>Node7&#45;&gt;Node8</title>
<g id="a_edge8_Node000007_Node000008"><a xlink:title=" ">
<path fill="none" stroke="#63b8ff" d="M1130.35,-64.54C1149.21,-69.14 1171.53,-73.9 1192,-76.5 1311.94,-91.75 1343.27,-88.05 1464,-81.5 1469.77,-81.19 1475.78,-80.74 1481.77,-80.21"/>
<polygon fill="#63b8ff" stroke="#63b8ff" points="1131.1,-61.12 1120.55,-62.09 1129.4,-67.91 1131.1,-61.12"/>
</a>
</g>
</g>
<!-- Node10 -->
<g id="Node000010" class="node">
<title>Node10</title>
<g id="a_Node000010"><a xlink:href="classmim_1_1Emitter.html" target="_top" xlink:title=" ">
<polygon fill="white" stroke="#666666" points="1326.5,-67.5 1204.5,-67.5 1204.5,-37.5 1326.5,-37.5 1326.5,-67.5"/>
<text text-anchor="start" x="1212.5" y="-55.5" font-family="Helvetica,sans-Serif" font-size="10.00">mim::Emitter&lt; Value,</text>
<text text-anchor="middle" x="1265.5" y="-44.5" font-family="Helvetica,sans-Serif" font-size="10.00"> Type, BB, Child &gt;</text>
</a>
</g>
</g>
<!-- Node7&#45;&gt;Node10 -->
<g id="edge10_Node000007_Node000010" class="edge">
<title>Node7&#45;&gt;Node10</title>
<g id="a_edge10_Node000007_Node000010"><a xlink:title=" ">
<path fill="none" stroke="#63b8ff" d="M1165.03,-52.5C1178.24,-52.5 1191.75,-52.5 1204.39,-52.5"/>
<polygon fill="#63b8ff" stroke="#63b8ff" points="1165.01,-49 1155.01,-52.5 1165.01,-56 1165.01,-49"/>
</a>
</g>
</g>
<!-- Node11 -->
<g id="Node000011" class="node">
<title>Node11</title>
<g id="a_Node000011"><a xlink:href="classmim_1_1plug_1_1mem_1_1AddMem.html" target="_top" xlink:title="This phase adds mems to all lambdas and continuations.">
<polygon fill="white" stroke="#666666" points="1339,-19 1192,-19 1192,0 1339,0 1339,-19"/>
<text text-anchor="middle" x="1265.5" y="-7" font-family="Helvetica,sans-Serif" font-size="10.00">mim::plug::mem::AddMem</text>
</a>
</g>
</g>
<!-- Node7&#45;&gt;Node11 -->
<g id="edge12_Node000007_Node000011" class="edge">
<title>Node7&#45;&gt;Node11</title>
<g id="a_edge12_Node000007_Node000011"><a xlink:title=" ">
<path fill="none" stroke="#63b8ff" d="M1135.68,-40.53C1163.87,-33.74 1198.67,-25.36 1225,-19.02"/>
<polygon fill="#63b8ff" stroke="#63b8ff" points="1134.52,-37.21 1125.61,-42.96 1136.16,-44.02 1134.52,-37.21"/>
</a>
</g>
</g>
<!-- Node9 -->
<g id="Node000009" class="node">
<title>Node9</title>
<g id="a_Node000009"><a xlink:href="classmim_1_1ll_1_1Emitter.html" target="_top" xlink:title=" ">
<polygon fill="white" stroke="#666666" points="1725,-83 1632,-83 1632,-64 1725,-64 1725,-83"/>
<text text-anchor="middle" x="1678.5" y="-71" font-family="Helvetica,sans-Serif" font-size="10.00">mim::ll::Emitter</text>
</a>
</g>
</g>
<!-- Node8&#45;&gt;Node9 -->
<g id="edge9_Node000008_Node000009" class="edge">
<title>Node8&#45;&gt;Node9</title>
<g id="a_edge9_Node000008_Node000009"><a xlink:title=" ">
<path fill="none" stroke="#63b8ff" d="M1605.27,-73.5C1614.21,-73.5 1623.23,-73.5 1631.72,-73.5"/>
<polygon fill="#63b8ff" stroke="#63b8ff" points="1605.23,-70 1595.23,-73.5 1605.23,-77 1605.23,-70"/>
</a>
</g>
</g>
<!-- Node10&#45;&gt;Node8 -->
<g id="edge11_Node000010_Node000008" class="edge">
<title>Node10&#45;&gt;Node8</title>
<g id="a_edge11_Node000010_Node000008"><a xlink:title=" ">
<path fill="none" stroke="orange" stroke-dasharray="5,2" d="M1337.13,-52.39C1374.88,-52.99 1422.08,-54.79 1464,-59.5 1469.81,-60.15 1475.85,-61.01 1481.85,-61.98"/>
<polygon fill="orange" stroke="orange" points="1336.79,-48.89 1326.75,-52.25 1336.7,-55.89 1336.79,-48.89"/>
</a>
</g>
<text text-anchor="start" x="1357" y="-73.5" font-family="Helvetica,sans-Serif" font-size="10.00" fill="grey"> &lt; std::string, std</text>
<text text-anchor="middle" x="1410.5" y="-62.5" font-family="Helvetica,sans-Serif" font-size="10.00" fill="grey">::string, BB, Emitter &gt;</text>
</g>
</g>
</svg>
