<?xml version="1.0" encoding="UTF-8" standalone="no"?>
<!DOCTYPE svg PUBLIC "-//W3C//DTD SVG 1.1//EN"
 "http://www.w3.org/Graphics/SVG/1.1/DTD/svg11.dtd">
<!-- Generated by graphviz version 2.43.0 (0)
 -->
<!-- Title: thorin::Ext Pages: 1 -->
<svg width="151pt" height="272pt"
 viewBox="0.00 0.00 151.00 272.00" xmlns="http://www.w3.org/2000/svg" xmlns:xlink="http://www.w3.org/1999/xlink">
<g id="graph0" class="graph" transform="scale(1 1) rotate(0) translate(4 268)">
<title>thorin::Ext</title>
<!-- Node1 -->
<g id="node1" class="node">
<title>Node1</title>
<g id="a_node1"><a xlink:title="Common base for TExtremum.">
<polygon fill="#999999" stroke="#666666" points="105,-75 38,-75 38,-56 105,-56 105,-75"/>
<text text-anchor="middle" x="71.5" y="-63" font-family="Helvetica,sans-Serif" font-size="10.00">thorin::Ext</text>
</a>
</g>
</g>
<!-- Node5 -->
<g id="node5" class="node">
<title>Node5</title>
<g id="a_node5"><a xlink:href="classthorin_1_1TExt.html" target="_top" xlink:title="Extremum. Either Top (up) or Bottom.">
<polygon fill="white" stroke="#666666" points="125,-19 18,-19 18,0 125,0 125,-19"/>
<text text-anchor="middle" x="71.5" y="-7" font-family="Helvetica,sans-Serif" font-size="10.00">thorin::TExt&lt; up &gt;</text>
</a>
</g>
</g>
<!-- Node1&#45;&gt;Node5 -->
<g id="edge4" class="edge">
<title>Node1&#45;&gt;Node5</title>
<path fill="none" stroke="#63b8ff" d="M71.5,-45.3C71.5,-36.41 71.5,-26.28 71.5,-19.25"/>
<polygon fill="#63b8ff" stroke="#63b8ff" points="68,-45.58 71.5,-55.58 75,-45.58 68,-45.58"/>
</g>
<!-- Node2 -->
<g id="node2" class="node">
<title>Node2</title>
<g id="a_node2"><a xlink:href="classthorin_1_1Def.html" target="_top" xlink:title="Base class for all Defs.">
<polygon fill="white" stroke="#666666" points="105.5,-131 37.5,-131 37.5,-112 105.5,-112 105.5,-131"/>
<text text-anchor="middle" x="71.5" y="-119" font-family="Helvetica,sans-Serif" font-size="10.00">thorin::Def</text>
</a>
</g>
</g>
<!-- Node2&#45;&gt;Node1 -->
<g id="edge1" class="edge">
<title>Node2&#45;&gt;Node1</title>
<path fill="none" stroke="#63b8ff" d="M71.5,-101.3C71.5,-92.41 71.5,-82.28 71.5,-75.25"/>
<polygon fill="#63b8ff" stroke="#63b8ff" points="68,-101.58 71.5,-111.58 75,-101.58 68,-101.58"/>
</g>
<!-- Node3 -->
<g id="node3" class="node">
<title>Node3</title>
<g id="a_node3"><a xlink:href="classthorin_1_1RuntimeCast.html" target="_top" xlink:title=" ">
<polygon fill="white" stroke="#666666" points="128.5,-198 14.5,-198 14.5,-168 128.5,-168 128.5,-198"/>
<text text-anchor="start" x="22.5" y="-186" font-family="Helvetica,sans-Serif" font-size="10.00">thorin::RuntimeCast</text>
<text text-anchor="middle" x="71.5" y="-175" font-family="Helvetica,sans-Serif" font-size="10.00">&lt; Def &gt;</text>
</a>
</g>
</g>
<!-- Node3&#45;&gt;Node2 -->
<g id="edge2" class="edge">
<title>Node3&#45;&gt;Node2</title>
<path fill="none" stroke="#63b8ff" d="M71.5,-157.79C71.5,-148.36 71.5,-138.15 71.5,-131.16"/>
<polygon fill="#63b8ff" stroke="#63b8ff" points="68,-157.9 71.5,-167.9 75,-157.9 68,-157.9"/>
</g>
<!-- Node4 -->
<g id="node4" class="node">
<title>Node4</title>
<g id="a_node4"><a xlink:href="classthorin_1_1RuntimeCast.html" target="_top" xlink:title="Inherit from this class using CRTP, for some nice dynamic_cast&#45;style wrappers.">
<polygon fill="white" stroke="#666666" points="143,-264 0,-264 0,-245 143,-245 143,-264"/>
<text text-anchor="middle" x="71.5" y="-252" font-family="Helvetica,sans-Serif" font-size="10.00">thorin::RuntimeCast&lt; B &gt;</text>
</a>
</g>
</g>
<!-- Node4&#45;&gt;Node3 -->
<g id="edge3" class="edge">
<title>Node4&#45;&gt;Node3</title>
<path fill="none" stroke="orange" stroke-dasharray="5,2" d="M71.5,-234.71C71.5,-223.19 71.5,-208.68 71.5,-198.14"/>
<polygon fill="orange" stroke="orange" points="68,-234.98 71.5,-244.98 75,-234.98 68,-234.98"/>
<text text-anchor="middle" x="93" y="-219" font-family="Helvetica,sans-Serif" font-size="10.00"> &lt; Def &gt;</text>
</g>
</g>
</svg>
