<?xml version="1.0" encoding="UTF-8" standalone="no"?>
<!DOCTYPE svg PUBLIC "-//W3C//DTD SVG 1.1//EN"
 "http://www.w3.org/Graphics/SVG/1.1/DTD/svg11.dtd">
<!-- Generated by graphviz version 2.43.0 (0)
 -->
<!-- Title: mim::plug::mem::phase::AddMem Pages: 1 -->
<svg width="278pt" height="473pt"
 viewBox="0.00 0.00 278.00 473.00" xmlns="http://www.w3.org/2000/svg" xmlns:xlink="http://www.w3.org/1999/xlink">
<g id="graph0" class="graph" transform="scale(1 1) rotate(0) translate(4 469)">
<title>mim::plug::mem::phase::AddMem</title>
<!-- Node1 -->
<g id="Node000001" class="node">
<title>Node1</title>
<g id="a_Node000001"><a xlink:title="This phase adds mems to all lambdas and continuations.">
<polygon fill="#999999" stroke="#666666" points="171.5,-30 38.5,-30 38.5,0 171.5,0 171.5,-30"/>
<text text-anchor="start" x="46.5" y="-18" font-family="Helvetica,sans-Serif" font-size="10.00">mim::plug::mem::phase</text>
<text text-anchor="middle" x="105" y="-7" font-family="Helvetica,sans-Serif" font-size="10.00">::AddMem</text>
</a>
</g>
</g>
<!-- Node2 -->
<g id="Node000002" class="node">
<title>Node2</title>
<g id="a_Node000002"><a xlink:href="classmim_1_1NestPhase.html" target="_top" xlink:title=" ">
<polygon fill="white" stroke="#666666" points="175,-86 35,-86 35,-67 175,-67 175,-86"/>
<text text-anchor="middle" x="105" y="-74" font-family="Helvetica,sans-Serif" font-size="10.00">mim::NestPhase&lt; Lam &gt;</text>
</a>
</g>
</g>
<!-- Node2&#45;&gt;Node1 -->
<g id="edge1_Node000001_Node000002" class="edge">
<title>Node2&#45;&gt;Node1</title>
<g id="a_edge1_Node000001_Node000002"><a xlink:title=" ">
<path fill="none" stroke="#63b8ff" d="M105,-56.73C105,-48.09 105,-38 105,-30.02"/>
<polygon fill="#63b8ff" stroke="#63b8ff" points="101.5,-56.98 105,-66.98 108.5,-56.98 101.5,-56.98"/>
</a>
</g>
</g>
<!-- Node3 -->
<g id="Node000003" class="node">
<title>Node3</title>
<g id="a_Node000003"><a xlink:href="classmim_1_1ClosedMutPhase.html" target="_top" xlink:title=" ">
<polygon fill="white" stroke="#666666" points="126,-225 0,-225 0,-195 126,-195 126,-225"/>
<text text-anchor="start" x="8" y="-213" font-family="Helvetica,sans-Serif" font-size="10.00">mim::ClosedMutPhase</text>
<text text-anchor="middle" x="63" y="-202" font-family="Helvetica,sans-Serif" font-size="10.00">&lt; Lam &gt;</text>
</a>
</g>
</g>
<!-- Node3&#45;&gt;Node2 -->
<g id="edge2_Node000002_Node000003" class="edge">
<title>Node3&#45;&gt;Node2</title>
<g id="a_edge2_Node000002_Node000003"><a xlink:title=" ">
<path fill="none" stroke="#63b8ff" d="M70.57,-185.3C80.08,-155.51 95.93,-105.89 102.26,-86.06"/>
<polygon fill="#63b8ff" stroke="#63b8ff" points="67.2,-184.34 67.49,-194.93 73.87,-186.47 67.2,-184.34"/>
</a>
</g>
</g>
<!-- Node4 -->
<g id="Node000004" class="node">
<title>Node4</title>
<g id="a_Node000004"><a xlink:href="classmim_1_1Phase.html" target="_top" xlink:title="As opposed to a Pass, a Phase does one thing at a time and does not mix with other Phases.">
<polygon fill="white" stroke="#666666" points="190,-353 116,-353 116,-334 190,-334 190,-353"/>
<text text-anchor="middle" x="153" y="-341" font-family="Helvetica,sans-Serif" font-size="10.00">mim::Phase</text>
</a>
</g>
</g>
<!-- Node4&#45;&gt;Node3 -->
<g id="edge3_Node000003_Node000004" class="edge">
<title>Node4&#45;&gt;Node3</title>
<g id="a_edge3_Node000003_Node000004"><a xlink:title=" ">
<path fill="none" stroke="#63b8ff" d="M108.56,-330.23C91.99,-323.28 74.83,-312.73 65,-297 51.23,-274.96 55.26,-243.15 59.25,-225.03"/>
<polygon fill="#63b8ff" stroke="#63b8ff" points="107.6,-333.61 118.2,-333.91 110.11,-327.07 107.6,-333.61"/>
</a>
</g>
</g>
<!-- Node7 -->
<g id="Node000007" class="node">
<title>Node7</title>
<g id="a_Node000007"><a xlink:href="classmim_1_1ClosedMutPhase.html" target="_top" xlink:title="Transitively visits all reachable, closed mutables in the World.">
<polygon fill="white" stroke="#666666" points="232,-297 74,-297 74,-278 232,-278 232,-297"/>
<text text-anchor="middle" x="153" y="-285" font-family="Helvetica,sans-Serif" font-size="10.00">mim::ClosedMutPhase&lt; M &gt;</text>
</a>
</g>
</g>
<!-- Node4&#45;&gt;Node7 -->
<g id="edge7_Node000007_Node000004" class="edge">
<title>Node4&#45;&gt;Node7</title>
<g id="a_edge7_Node000007_Node000004"><a xlink:title=" ">
<path fill="none" stroke="#63b8ff" d="M153,-323.3C153,-314.41 153,-304.28 153,-297.25"/>
<polygon fill="#63b8ff" stroke="#63b8ff" points="149.5,-323.58 153,-333.58 156.5,-323.58 149.5,-323.58"/>
</a>
</g>
</g>
<!-- Node9 -->
<g id="Node000009" class="node">
<title>Node9</title>
<g id="a_Node000009"><a xlink:href="classmim_1_1ClosedMutPhase.html" target="_top" xlink:title=" ">
<polygon fill="white" stroke="#666666" points="270,-225 144,-225 144,-195 270,-195 270,-225"/>
<text text-anchor="start" x="152" y="-213" font-family="Helvetica,sans-Serif" font-size="10.00">mim::ClosedMutPhase</text>
<text text-anchor="middle" x="207" y="-202" font-family="Helvetica,sans-Serif" font-size="10.00">&lt; Def &gt;</text>
</a>
</g>
</g>
<!-- Node4&#45;&gt;Node9 -->
<g id="edge10_Node000009_Node000004" class="edge">
<title>Node4&#45;&gt;Node9</title>
<g id="a_edge10_Node000009_Node000004"><a xlink:title=" ">
<path fill="none" stroke="#63b8ff" d="M198.01,-330.18C214.49,-323.25 231.43,-312.72 241,-297 247.48,-286.36 235.18,-245.45 234,-243 230.91,-236.58 226.23,-230.39 221.62,-225.19"/>
<polygon fill="#63b8ff" stroke="#63b8ff" points="196.5,-327.01 188.41,-333.85 199.01,-333.54 196.5,-327.01"/>
</a>
</g>
</g>
<!-- Node5 -->
<g id="Node000005" class="node">
<title>Node5</title>
<g id="a_Node000005"><a xlink:href="classmim_1_1Stage.html" target="_top" xlink:title="Common base for Phase and Pass.">
<polygon fill="white" stroke="#666666" points="189.5,-409 116.5,-409 116.5,-390 189.5,-390 189.5,-409"/>
<text text-anchor="middle" x="153" y="-397" font-family="Helvetica,sans-Serif" font-size="10.00">mim::Stage</text>
</a>
</g>
</g>
<!-- Node5&#45;&gt;Node4 -->
<g id="edge4_Node000004_Node000005" class="edge">
<title>Node5&#45;&gt;Node4</title>
<g id="a_edge4_Node000004_Node000005"><a xlink:title=" ">
<path fill="none" stroke="#63b8ff" d="M153,-379.3C153,-370.41 153,-360.28 153,-353.25"/>
<polygon fill="#63b8ff" stroke="#63b8ff" points="149.5,-379.58 153,-389.58 156.5,-379.58 149.5,-379.58"/>
</a>
</g>
</g>
<!-- Node6 -->
<g id="Node000006" class="node">
<title>Node6</title>
<g id="a_Node000006"><a xlink:title=" ">
<polygon fill="white" stroke="#666666" points="226,-465 80,-465 80,-446 226,-446 226,-465"/>
<text text-anchor="middle" x="153" y="-453" font-family="Helvetica,sans-Serif" font-size="10.00">fe::RuntimeCast&lt; Stage &gt;</text>
</a>
</g>
</g>
<!-- Node6&#45;&gt;Node5 -->
<g id="edge5_Node000005_Node000006" class="edge">
<title>Node6&#45;&gt;Node5</title>
<g id="a_edge5_Node000005_Node000006"><a xlink:title=" ">
<path fill="none" stroke="#63b8ff" d="M153,-435.3C153,-426.41 153,-416.28 153,-409.25"/>
<polygon fill="#63b8ff" stroke="#63b8ff" points="149.5,-435.58 153,-445.58 156.5,-435.58 149.5,-435.58"/>
</a>
</g>
</g>
<!-- Node7&#45;&gt;Node3 -->
<g id="edge6_Node000003_Node000007" class="edge">
<title>Node7&#45;&gt;Node3</title>
<g id="a_edge6_Node000003_Node000007"><a xlink:title=" ">
<path fill="none" stroke="orange" stroke-dasharray="5,2" d="M133.43,-271.55C128.67,-267.83 123.62,-263.81 119,-260 105.26,-248.65 90.06,-235.29 78.96,-225.4"/>
<polygon fill="orange" stroke="orange" points="131.49,-274.48 141.54,-277.83 135.77,-268.94 131.49,-274.48"/>
</a>
</g>
<text text-anchor="start" x="122" y="-248.5" font-family="Helvetica,sans-Serif" font-size="10.00" fill="grey">&lt; Lam &gt;</text>
</g>
<!-- Node7&#45;&gt;Node9 -->
<g id="edge11_Node000009_Node000007" class="edge">
<title>Node7&#45;&gt;Node9</title>
<g id="a_edge11_Node000009_Node000007"><a xlink:title=" ">
<path fill="none" stroke="orange" stroke-dasharray="5,2" d="M165.13,-269.53C174.68,-256.18 187.84,-237.79 196.84,-225.21"/>
<polygon fill="orange" stroke="orange" points="162.17,-267.67 159.19,-277.84 167.86,-271.74 162.17,-267.67"/>
</a>
</g>
<text text-anchor="start" x="187" y="-248.5" font-family="Helvetica,sans-Serif" font-size="10.00" fill="grey">&lt; Def &gt;</text>
</g>
<!-- Node8 -->
<g id="Node000008" class="node">
<title>Node8</title>
<g id="a_Node000008"><a xlink:href="classmim_1_1NestPhase.html" target="_top" xlink:title="Like ClosedMutPhase but computes a Nest for each NestPhase::visit.">
<polygon fill="white" stroke="#666666" points="258,-158 130,-158 130,-139 258,-139 258,-158"/>
<text text-anchor="middle" x="194" y="-146" font-family="Helvetica,sans-Serif" font-size="10.00">mim::NestPhase&lt; M &gt;</text>
</a>
</g>
</g>
<!-- Node8&#45;&gt;Node2 -->
<g id="edge8_Node000002_Node000008" class="edge">
<title>Node8&#45;&gt;Node2</title>
<g id="a_edge8_Node000002_Node000008"><a xlink:title=" ">
<path fill="none" stroke="orange" stroke-dasharray="5,2" d="M175.03,-132.58C157.07,-118.46 130.73,-97.74 116,-86.15"/>
<polygon fill="orange" stroke="orange" points="173.06,-135.49 183.09,-138.92 177.39,-129.98 173.06,-135.49"/>
</a>
</g>
<text text-anchor="start" x="164" y="-109.5" font-family="Helvetica,sans-Serif" font-size="10.00" fill="grey">&lt; Lam &gt;</text>
</g>
<!-- Node9&#45;&gt;Node8 -->
<g id="edge9_Node000008_Node000009" class="edge">
<title>Node9&#45;&gt;Node8</title>
<g id="a_edge9_Node000008_Node000009"><a xlink:title=" ">
<path fill="none" stroke="#63b8ff" d="M201.78,-185.09C199.7,-175.58 197.44,-165.23 195.89,-158.16"/>
<polygon fill="#63b8ff" stroke="#63b8ff" points="198.37,-185.88 203.92,-194.9 205.2,-184.38 198.37,-185.88"/>
</a>
</g>
</g>
</g>
</svg>
