<?xml version="1.0" encoding="UTF-8" standalone="no"?>
<!DOCTYPE svg PUBLIC "-//W3C//DTD SVG 1.1//EN"
 "http://www.w3.org/Graphics/SVG/1.1/DTD/svg11.dtd">
<!-- Generated by graphviz version 2.50.0 (20220203.2022)
 -->
<!-- Title: thorin::RWPass&lt; N &gt; Pages: 1 -->
<svg width="590pt" height="180pt"
 viewBox="0.00 0.00 590.00 180.00" xmlns="http://www.w3.org/2000/svg" xmlns:xlink="http://www.w3.org/1999/xlink">
<g id="graph0" class="graph" transform="scale(1 1) rotate(0) translate(4 176)">
<title>thorin::RWPass&lt; N &gt;</title>
<!-- Node1 -->
<g id="node1" class="node">
<title>Node1</title>
<g id="a_node1"><a xlink:title=" ">
<polygon fill="#bfbfbf" stroke="black" points="143,-95.5 143,-114.5 250,-114.5 250,-95.5 143,-95.5"/>
<text text-anchor="middle" x="196.5" y="-102.5" font-family="Helvetica,sans-Serif" font-size="10.00">thorin::RWPass&lt; N &gt;</text>
</a>
</g>
</g>
<!-- Node3 -->
<g id="node3" class="node">
<title>Node3</title>
<g id="a_node3"><a xlink:href="classthorin_1_1PartialEval.html" target="_top" xlink:title=" ">
<polygon fill="none" stroke="black" points="332.5,-114.5 332.5,-133.5 436.5,-133.5 436.5,-114.5 332.5,-114.5"/>
<text text-anchor="middle" x="384.5" y="-121.5" font-family="Helvetica,sans-Serif" font-size="10.00">thorin::PartialEval&lt;&gt;</text>
</a>
</g>
</g>
<!-- Node1&#45;&gt;Node3 -->
<g id="edge2" class="edge">
<title>Node1&#45;&gt;Node3</title>
<path fill="none" stroke="midnightblue" d="M260.5,-111.44C283.95,-113.83 310.25,-116.52 332.49,-118.79"/>
<polygon fill="midnightblue" stroke="midnightblue" points="260.61,-107.93 250.3,-110.39 259.9,-114.89 260.61,-107.93"/>
</g>
<!-- Node4 -->
<g id="node4" class="node">
<title>Node4</title>
<g id="a_node4"><a xlink:href="classthorin_1_1RWPass.html" target="_top" xlink:title=" ">
<polygon fill="none" stroke="black" points="325,-76.5 325,-95.5 444,-95.5 444,-76.5 325,-76.5"/>
<text text-anchor="middle" x="384.5" y="-83.5" font-family="Helvetica,sans-Serif" font-size="10.00">thorin::RWPass&lt; Lam &gt;</text>
</a>
</g>
</g>
<!-- Node1&#45;&gt;Node4 -->
<g id="edge3" class="edge">
<title>Node1&#45;&gt;Node4</title>
<path fill="none" stroke="orange" stroke-dasharray="5,2" d="M260.32,-97.81C262.91,-97.54 265.48,-97.26 268,-97 286.43,-95.08 306.53,-93.12 324.72,-91.39"/>
<polygon fill="orange" stroke="orange" points="259.79,-94.35 250.23,-98.91 260.55,-101.31 259.79,-94.35"/>
<text text-anchor="middle" x="287.5" y="-100" font-family="Helvetica,sans-Serif" font-size="10.00"> &lt; Lam &gt;</text>
</g>
<!-- Node2 -->
<g id="node2" class="node">
<title>Node2</title>
<g id="a_node2"><a xlink:href="classthorin_1_1RWPassBase.html" target="_top" xlink:title="All Passes that want to be registered in the PassMan must implement this interface.">
<polygon fill="none" stroke="black" points="0,-95.5 0,-114.5 106,-114.5 106,-95.5 0,-95.5"/>
<text text-anchor="middle" x="53" y="-102.5" font-family="Helvetica,sans-Serif" font-size="10.00">thorin::RWPassBase</text>
</a>
</g>
</g>
<!-- Node2&#45;&gt;Node1 -->
<g id="edge1" class="edge">
<title>Node2&#45;&gt;Node1</title>
<path fill="none" stroke="midnightblue" d="M116.53,-105C125.35,-105 134.35,-105 142.96,-105"/>
<polygon fill="midnightblue" stroke="midnightblue" points="116.29,-101.5 106.29,-105 116.29,-108.5 116.29,-101.5"/>
</g>
<!-- Node5 -->
<g id="node5" class="node">
<title>Node5</title>
<g id="a_node5"><a xlink:href="classthorin_1_1Alloc2Malloc.html" target="_top" xlink:title=" ">
<polygon fill="none" stroke="black" points="481,-152.5 481,-171.5 582,-171.5 582,-152.5 481,-152.5"/>
<text text-anchor="middle" x="531.5" y="-159.5" font-family="Helvetica,sans-Serif" font-size="10.00">thorin::Alloc2Malloc</text>
</a>
</g>
</g>
<!-- Node4&#45;&gt;Node5 -->
<g id="edge4" class="edge">
<title>Node4&#45;&gt;Node5</title>
<path fill="none" stroke="midnightblue" d="M433.43,-99.39C437.11,-101.07 440.68,-102.93 444,-105 464.02,-117.45 461.32,-130.03 481,-143 486.61,-146.7 493.05,-149.83 499.38,-152.42"/>
<polygon fill="midnightblue" stroke="midnightblue" points="434.72,-96.14 424.14,-95.6 432.08,-102.62 434.72,-96.14"/>
</g>
<!-- Node6 -->
<g id="node6" class="node">
<title>Node6</title>
<g id="a_node6"><a xlink:href="classthorin_1_1LamSpec.html" target="_top" xlink:title=" ">
<polygon fill="none" stroke="black" points="488,-114.5 488,-133.5 575,-133.5 575,-114.5 488,-114.5"/>
<text text-anchor="middle" x="531.5" y="-121.5" font-family="Helvetica,sans-Serif" font-size="10.00">thorin::LamSpec</text>
</a>
</g>
</g>
<!-- Node4&#45;&gt;Node6 -->
<g id="edge5" class="edge">
<title>Node4&#45;&gt;Node6</title>
<path fill="none" stroke="midnightblue" d="M431.99,-98.18C452.12,-103.46 475.34,-109.54 494.17,-114.48"/>
<polygon fill="midnightblue" stroke="midnightblue" points="432.65,-94.74 422.09,-95.59 430.88,-101.51 432.65,-94.74"/>
</g>
<!-- Node7 -->
<g id="node7" class="node">
<title>Node7</title>
<g id="a_node7"><a xlink:href="classthorin_1_1RememElim.html" target="_top" xlink:title=" ">
<polygon fill="none" stroke="black" points="482.5,-76.5 482.5,-95.5 580.5,-95.5 580.5,-76.5 482.5,-76.5"/>
<text text-anchor="middle" x="531.5" y="-83.5" font-family="Helvetica,sans-Serif" font-size="10.00">thorin::RememElim</text>
</a>
</g>
</g>
<!-- Node4&#45;&gt;Node7 -->
<g id="edge6" class="edge">
<title>Node4&#45;&gt;Node7</title>
<path fill="none" stroke="midnightblue" d="M454.3,-86C463.8,-86 473.38,-86 482.39,-86"/>
<polygon fill="midnightblue" stroke="midnightblue" points="454.06,-82.5 444.06,-86 454.06,-89.5 454.06,-82.5"/>
</g>
<!-- Node8 -->
<g id="node8" class="node">
<title>Node8</title>
<g id="a_node8"><a xlink:href="classthorin_1_1RetWrap.html" target="_top" xlink:title=" ">
<polygon fill="none" stroke="black" points="490,-38.5 490,-57.5 573,-57.5 573,-38.5 490,-38.5"/>
<text text-anchor="middle" x="531.5" y="-45.5" font-family="Helvetica,sans-Serif" font-size="10.00">thorin::RetWrap</text>
</a>
</g>
</g>
<!-- Node4&#45;&gt;Node8 -->
<g id="edge7" class="edge">
<title>Node4&#45;&gt;Node8</title>
<path fill="none" stroke="midnightblue" d="M431.99,-73.82C452.12,-68.54 475.34,-62.46 494.17,-57.52"/>
<polygon fill="midnightblue" stroke="midnightblue" points="430.88,-70.49 422.09,-76.41 432.65,-77.26 430.88,-70.49"/>
</g>
<!-- Node9 -->
<g id="node9" class="node">
<title>Node9</title>
<g id="a_node9"><a xlink:href="classthorin_1_1Scalerize.html" target="_top" xlink:title="Perform Scalarization (= Argument simplification), i.e.">
<polygon fill="none" stroke="black" points="489,-0.5 489,-19.5 574,-19.5 574,-0.5 489,-0.5"/>
<text text-anchor="middle" x="531.5" y="-7.5" font-family="Helvetica,sans-Serif" font-size="10.00">thorin::Scalerize</text>
</a>
</g>
</g>
<!-- Node4&#45;&gt;Node9 -->
<g id="edge8" class="edge">
<title>Node4&#45;&gt;Node9</title>
<path fill="none" stroke="midnightblue" d="M408.5,-70.75C427.46,-58.55 455.33,-41.47 481,-29 488.04,-25.58 495.86,-22.34 503.17,-19.53"/>
<polygon fill="midnightblue" stroke="midnightblue" points="406.43,-67.92 399.95,-76.3 410.24,-73.79 406.43,-67.92"/>
</g>
</g>
</svg>
