<?xml version="1.0" encoding="UTF-8" standalone="no"?>
<!DOCTYPE svg PUBLIC "-//W3C//DTD SVG 1.1//EN"
 "http://www.w3.org/Graphics/SVG/1.1/DTD/svg11.dtd">
<!-- Generated by graphviz version 2.43.0 (0)
 -->
<!-- Title: mim::plug::clos::BranchClosElim Pages: 1 -->
<svg width="277pt" height="334pt"
 viewBox="0.00 0.00 277.00 334.00" xmlns="http://www.w3.org/2000/svg" xmlns:xlink="http://www.w3.org/1999/xlink">

<svg id="main" version="1.1" xmlns="http://www.w3.org/2000/svg" xmlns:xlink="http://www.w3.org/1999/xlink" xml:space="preserve">

<style type="text/css"><![CDATA[
.node, .edge {opacity: 0.7;}
.node.selected, .edge.selected {opacity: 1;}
.edge:hover path { stroke: red; }
.edge:hover polygon { stroke: red; fill: red; }
]]></style>
<script type="application/ecmascript" xlink:href="svg.min.js"/>
<svg id="graph" class="graph">
<g id="graph0" class="graph" transform="scale(1 1) rotate(0) translate(4 330)">
<title>mim::plug::clos::BranchClosElim</title>
<!-- Node1 -->
<g id="Node000001" class="node">
<title>Node1</title>
<g id="a_Node000001"><a xlink:title=" ">
<polygon fill="#999999" stroke="#666666" points="174,-19 0,-19 0,0 174,0 174,-19"/>
<text text-anchor="middle" x="87" y="-7" font-family="Helvetica,sans-Serif" font-size="10.00">mim::plug::clos::BranchClosElim</text>
</a>
</g>
</g>
<!-- Node2 -->
<g id="Node000002" class="node">
<title>Node2</title>
<g id="a_Node000002"><a xlink:href="classmim_1_1RWPass.html" target="_top" xlink:title=" ">
<polygon fill="white" stroke="#666666" points="174,-86 0,-86 0,-56 174,-56 174,-86"/>
<text text-anchor="start" x="8" y="-74" font-family="Helvetica,sans-Serif" font-size="10.00">mim::RWPass&lt; BranchClosElim,</text>
<text text-anchor="middle" x="87" y="-63" font-family="Helvetica,sans-Serif" font-size="10.00"> Lam &gt;</text>
</a>
</g>
</g>
<!-- Node2&#45;&gt;Node1 -->
<g id="edge1_Node000001_Node000002" class="edge">
<title>Node2&#45;&gt;Node1</title>
<g id="a_edge1_Node000001_Node000002"><a xlink:title=" ">
<path fill="none" stroke="#63b8ff" d="M87,-45.79C87,-36.36 87,-26.15 87,-19.16"/>
<polygon fill="#63b8ff" stroke="#63b8ff" points="83.5,-45.9 87,-55.9 90.5,-45.9 83.5,-45.9"/>
</a>
</g>
</g>
<!-- Node3 -->
<g id="Node000003" class="node">
<title>Node3</title>
<g id="a_Node000003"><a xlink:href="classmim_1_1Pass.html" target="_top" xlink:title="All Passes that want to be registered in the PassMan must implement this interface.">
<polygon fill="white" stroke="#666666" points="116.5,-214 49.5,-214 49.5,-195 116.5,-195 116.5,-214"/>
<text text-anchor="middle" x="83" y="-202" font-family="Helvetica,sans-Serif" font-size="10.00">mim::Pass</text>
</a>
</g>
</g>
<!-- Node3&#45;&gt;Node2 -->
<g id="edge2_Node000002_Node000003" class="edge">
<title>Node3&#45;&gt;Node2</title>
<g id="a_edge2_Node000002_Node000003"><a xlink:title=" ">
<path fill="none" stroke="#63b8ff" d="M83.57,-184.6C84.38,-157.99 85.84,-110.05 86.57,-86.23"/>
<polygon fill="#63b8ff" stroke="#63b8ff" points="80.07,-184.77 83.26,-194.87 87.06,-184.98 80.07,-184.77"/>
</a>
</g>
</g>
<!-- Node6 -->
<g id="Node000006" class="node">
<title>Node6</title>
<g id="a_Node000006"><a xlink:href="classmim_1_1RWPass.html" target="_top" xlink:title="Inherit from this class using CRTP, if your Pass does not need state and a fixed&#45;point iteration.">
<polygon fill="white" stroke="#666666" points="226.5,-158 99.5,-158 99.5,-139 226.5,-139 226.5,-158"/>
<text text-anchor="middle" x="163" y="-146" font-family="Helvetica,sans-Serif" font-size="10.00">mim::RWPass&lt; P, M &gt;</text>
</a>
</g>
</g>
<!-- Node3&#45;&gt;Node6 -->
<g id="edge6_Node000006_Node000003" class="edge">
<title>Node3&#45;&gt;Node6</title>
<g id="a_edge6_Node000006_Node000003"><a xlink:title=" ">
<path fill="none" stroke="#63b8ff" d="M104.3,-189.12C118.92,-179.26 137.83,-166.49 150.18,-158.15"/>
<polygon fill="#63b8ff" stroke="#63b8ff" points="102.18,-186.33 95.85,-194.82 106.1,-192.13 102.18,-186.33"/>
</a>
</g>
</g>
<!-- Node4 -->
<g id="Node000004" class="node">
<title>Node4</title>
<g id="a_Node000004"><a xlink:href="classmim_1_1Stage.html" target="_top" xlink:title="Common base for Phase and Pass.">
<polygon fill="white" stroke="#666666" points="119.5,-270 46.5,-270 46.5,-251 119.5,-251 119.5,-270"/>
<text text-anchor="middle" x="83" y="-258" font-family="Helvetica,sans-Serif" font-size="10.00">mim::Stage</text>
</a>
</g>
</g>
<!-- Node4&#45;&gt;Node3 -->
<g id="edge3_Node000003_Node000004" class="edge">
<title>Node4&#45;&gt;Node3</title>
<g id="a_edge3_Node000003_Node000004"><a xlink:title=" ">
<path fill="none" stroke="#63b8ff" d="M83,-240.3C83,-231.41 83,-221.28 83,-214.25"/>
<polygon fill="#63b8ff" stroke="#63b8ff" points="79.5,-240.58 83,-250.58 86.5,-240.58 79.5,-240.58"/>
</a>
</g>
</g>
<!-- Node5 -->
<g id="Node000005" class="node">
<title>Node5</title>
<g id="a_Node000005"><a xlink:title=" ">
<polygon fill="white" stroke="#666666" points="156,-326 10,-326 10,-307 156,-307 156,-326"/>
<text text-anchor="middle" x="83" y="-314" font-family="Helvetica,sans-Serif" font-size="10.00">fe::RuntimeCast&lt; Stage &gt;</text>
</a>
</g>
</g>
<!-- Node5&#45;&gt;Node4 -->
<g id="edge4_Node000004_Node000005" class="edge">
<title>Node5&#45;&gt;Node4</title>
<g id="a_edge4_Node000004_Node000005"><a xlink:title=" ">
<path fill="none" stroke="#63b8ff" d="M83,-296.3C83,-287.41 83,-277.28 83,-270.25"/>
<polygon fill="#63b8ff" stroke="#63b8ff" points="79.5,-296.58 83,-306.58 86.5,-296.58 79.5,-296.58"/>
</a>
</g>
</g>
<!-- Node6&#45;&gt;Node2 -->
<g id="edge5_Node000002_Node000006" class="edge">
<title>Node6&#45;&gt;Node2</title>
<g id="a_edge5_Node000002_Node000006"><a xlink:title=" ">
<path fill="none" stroke="orange" stroke-dasharray="5,2" d="M147.07,-131.68C133.55,-118.25 114.33,-99.15 101.3,-86.21"/>
<polygon fill="orange" stroke="orange" points="144.72,-134.27 154.28,-138.84 149.65,-129.31 144.72,-134.27"/>
</a>
</g>
<text text-anchor="start" x="139.5" y="-109.5" font-family="Helvetica,sans-Serif" font-size="10.00" fill="grey">&lt; BranchClosElim, Lam &gt;</text>
</g>
</g>
</svg>
</svg>

<style type='text/css'>
<![CDATA[
[data-mouse-over-selected='false'] { opacity: 0.7; }
[data-mouse-over-selected='true']  { opacity: 1.0; }
]]>
</style>
<script type="application/ecmascript"><![CDATA[
document.addEventListener('DOMContentLoaded', (event) => {
  highlightEdges();
  highlightAdjacentNodes();
});
]]></script>
</svg>
