<?xml version="1.0" encoding="UTF-8" standalone="no"?>
<!DOCTYPE svg PUBLIC "-//W3C//DTD SVG 1.1//EN"
 "http://www.w3.org/Graphics/SVG/1.1/DTD/svg11.dtd">
<!-- Generated by graphviz version 2.43.0 (0)
 -->
<!-- Title: mim::Arr Pages: 1 -->
<svg width="323pt" height="229pt"
 viewBox="0.00 0.00 322.50 229.00" xmlns="http://www.w3.org/2000/svg" xmlns:xlink="http://www.w3.org/1999/xlink">
<g id="graph0" class="graph" transform="scale(1 1) rotate(0) translate(4 225)">
<title>mim::Arr</title>
<!-- Node1 -->
<g id="Node000001" class="node">
<title>Node1</title>
<g id="a_Node000001"><a xlink:title="A (possibly paramterized) Array.">
<polygon fill="#999999" stroke="#666666" points="241,-19 182,-19 182,0 241,0 241,-19"/>
<text text-anchor="middle" x="211.5" y="-7" font-family="Helvetica,sans-Serif" font-size="10.00">mim::Arr</text>
</a>
</g>
</g>
<!-- Node2 -->
<g id="Node000002" class="node">
<title>Node2</title>
<g id="a_Node000002"><a xlink:href="classmim_1_1Seq.html" target="_top" xlink:title="Base class for Arr and Pack.">
<polygon fill="white" stroke="#666666" points="208,-75 145,-75 145,-56 208,-56 208,-75"/>
<text text-anchor="middle" x="176.5" y="-63" font-family="Helvetica,sans-Serif" font-size="10.00">mim::Seq</text>
</a>
</g>
</g>
<!-- Node2&#45;&gt;Node1 -->
<g id="edge1_Node000001_Node000002" class="edge">
<title>Node2&#45;&gt;Node1</title>
<g id="a_edge1_Node000001_Node000002"><a xlink:title=" ">
<path fill="none" stroke="#63b8ff" d="M187.8,-47.07C193.82,-37.77 200.97,-26.75 205.83,-19.25"/>
<polygon fill="#63b8ff" stroke="#63b8ff" points="184.78,-45.29 182.28,-55.58 190.66,-49.1 184.78,-45.29"/>
</a>
</g>
</g>
<!-- Node3 -->
<g id="Node000003" class="node">
<title>Node3</title>
<g id="a_Node000003"><a xlink:href="classmim_1_1Def.html" target="_top" xlink:title="Base class for all Defs.">
<polygon fill="white" stroke="#666666" points="98.5,-149 36.5,-149 36.5,-130 98.5,-130 98.5,-149"/>
<text text-anchor="middle" x="67.5" y="-137" font-family="Helvetica,sans-Serif" font-size="10.00">mim::Def</text>
</a>
</g>
</g>
<!-- Node3&#45;&gt;Node2 -->
<g id="edge2_Node000002_Node000003" class="edge">
<title>Node3&#45;&gt;Node2</title>
<g id="a_edge2_Node000002_Node000003"><a xlink:title=" ">
<path fill="none" stroke="#63b8ff" d="M88.87,-124.38C111.09,-109.7 145.16,-87.2 163.59,-75.03"/>
<polygon fill="#63b8ff" stroke="#63b8ff" points="86.85,-121.53 80.43,-129.96 90.7,-127.37 86.85,-121.53"/>
</a>
</g>
</g>
<!-- Node4 -->
<g id="Node000004" class="node">
<title>Node4</title>
<g id="a_Node000004"><a xlink:title=" ">
<polygon fill="white" stroke="#666666" points="135,-221 0,-221 0,-202 135,-202 135,-221"/>
<text text-anchor="middle" x="67.5" y="-209" font-family="Helvetica,sans-Serif" font-size="10.00">fe::RuntimeCast&lt; Def &gt;</text>
</a>
</g>
</g>
<!-- Node4&#45;&gt;Node3 -->
<g id="edge3_Node000003_Node000004" class="edge">
<title>Node4&#45;&gt;Node3</title>
<g id="a_edge3_Node000003_Node000004"><a xlink:title=" ">
<path fill="none" stroke="#63b8ff" d="M67.5,-191.58C67.5,-177.76 67.5,-159.68 67.5,-149.15"/>
<polygon fill="#63b8ff" stroke="#63b8ff" points="64,-191.92 67.5,-201.92 71,-191.92 64,-191.92"/>
</a>
</g>
</g>
<!-- Node5 -->
<g id="Node000005" class="node">
<title>Node5</title>
<g id="a_Node000005"><a xlink:href="classmim_1_1Setters.html" target="_top" xlink:title=" ">
<polygon fill="white" stroke="#666666" points="236.5,-149 116.5,-149 116.5,-130 236.5,-130 236.5,-149"/>
<text text-anchor="middle" x="176.5" y="-137" font-family="Helvetica,sans-Serif" font-size="10.00">mim::Setters&lt; Seq &gt;</text>
</a>
</g>
</g>
<!-- Node5&#45;&gt;Node2 -->
<g id="edge4_Node000002_Node000005" class="edge">
<title>Node5&#45;&gt;Node2</title>
<g id="a_edge4_Node000002_Node000005"><a xlink:title=" ">
<path fill="none" stroke="#63b8ff" d="M176.5,-119.66C176.5,-105.21 176.5,-85.96 176.5,-75.03"/>
<polygon fill="#63b8ff" stroke="#63b8ff" points="173,-119.96 176.5,-129.96 180,-119.96 173,-119.96"/>
</a>
</g>
</g>
<!-- Node6 -->
<g id="Node000006" class="node">
<title>Node6</title>
<g id="a_Node000006"><a xlink:href="classmim_1_1Setters.html" target="_top" xlink:title="CRTP&#45;based mixin to declare setters for Def::loc &amp; Def::name using a covariant return type.">
<polygon fill="white" stroke="#666666" points="300.5,-221 178.5,-221 178.5,-202 300.5,-202 300.5,-221"/>
<text text-anchor="middle" x="239.5" y="-209" font-family="Helvetica,sans-Serif" font-size="10.00">mim::Setters&lt; P, D &gt;</text>
</a>
</g>
</g>
<!-- Node6&#45;&gt;Node5 -->
<g id="edge5_Node000005_Node000006" class="edge">
<title>Node6&#45;&gt;Node5</title>
<g id="a_edge5_Node000005_Node000006"><a xlink:title=" ">
<path fill="none" stroke="orange" stroke-dasharray="5,2" d="M210.89,-196.81C205.29,-193.21 199.82,-188.93 195.5,-184 186.48,-173.72 181.17,-158.48 178.55,-149.04"/>
<polygon fill="orange" stroke="orange" points="209.25,-199.9 219.65,-201.9 212.76,-193.85 209.25,-199.9"/>
</a>
</g>
<text text-anchor="start" x="199" y="-172.5" font-family="Helvetica,sans-Serif" font-size="10.00" fill="grey">&lt; Seq &gt;</text>
</g>
<!-- Node7 -->
<g id="Node000007" class="node">
<title>Node7</title>
<g id="a_Node000007"><a xlink:href="classmim_1_1Setters.html" target="_top" xlink:title=" ">
<polygon fill="white" stroke="#666666" points="314.5,-112 198.5,-112 198.5,-93 314.5,-93 314.5,-112"/>
<text text-anchor="middle" x="256.5" y="-100" font-family="Helvetica,sans-Serif" font-size="10.00">mim::Setters&lt; Arr &gt;</text>
</a>
</g>
</g>
<!-- Node6&#45;&gt;Node7 -->
<g id="edge7_Node000007_Node000006" class="edge">
<title>Node6&#45;&gt;Node7</title>
<g id="a_edge7_Node000007_Node000006"><a xlink:title=" ">
<path fill="none" stroke="orange" stroke-dasharray="5,2" d="M242.49,-191.66C246.21,-168.24 252.41,-129.26 255.14,-112.08"/>
<polygon fill="orange" stroke="orange" points="239,-191.32 240.89,-201.74 245.92,-192.42 239,-191.32"/>
</a>
</g>
<text text-anchor="start" x="249" y="-172.5" font-family="Helvetica,sans-Serif" font-size="10.00" fill="grey">&lt; Arr &gt;</text>
</g>
<!-- Node7&#45;&gt;Node1 -->
<g id="edge6_Node000001_Node000007" class="edge">
<title>Node7&#45;&gt;Node1</title>
<g id="a_edge6_Node000001_Node000007"><a xlink:title=" ">
<path fill="none" stroke="#63b8ff" d="M247.71,-83.73C238.08,-64.25 223.02,-33.8 215.74,-19.07"/>
<polygon fill="#63b8ff" stroke="#63b8ff" points="244.62,-85.36 252.19,-92.77 250.89,-82.26 244.62,-85.36"/>
</a>
</g>
</g>
</g>
</svg>
