<?xml version="1.0" encoding="UTF-8" standalone="no"?>
<!DOCTYPE svg PUBLIC "-//W3C//DTD SVG 1.1//EN"
 "http://www.w3.org/Graphics/SVG/1.1/DTD/svg11.dtd">
<!-- Generated by graphviz version 2.43.0 (0)
 -->
<!-- Title: thorin::matrix::LowerMatrixLowLevel Pages: 1 -->
<svg width="198pt" height="148pt"
 viewBox="0.00 0.00 198.00 148.00" xmlns="http://www.w3.org/2000/svg" xmlns:xlink="http://www.w3.org/1999/xlink">
<g id="graph0" class="graph" transform="scale(1 1) rotate(0) translate(4 144)">
<title>thorin::matrix::LowerMatrixLowLevel</title>
<!-- Node1 -->
<g id="node1" class="node">
<title>Node1</title>
<g id="a_node1"><a xlink:title="In this phase, we lower all matrix operations and types to the low&#45;level representation using pointer...">
<polygon fill="#999999" stroke="#666666" points="167,-30 17,-30 17,0 167,0 167,-30"/>
<text text-anchor="start" x="25" y="-18" font-family="Helvetica,sans-Serif" font-size="10.00">thorin::matrix::LowerMatrix</text>
<text text-anchor="middle" x="92" y="-7" font-family="Helvetica,sans-Serif" font-size="10.00">LowLevel</text>
</a>
</g>
</g>
<!-- Node2 -->
<g id="node2" class="node">
<title>Node2</title>
<g id="a_node2"><a xlink:href="classthorin_1_1RWPhase.html" target="_top" xlink:title="Visits the current Phase::world and constructs a new RWPhase::world along the way.">
<polygon fill="white" stroke="#666666" points="140.5,-85 43.5,-85 43.5,-66 140.5,-66 140.5,-85"/>
<text text-anchor="middle" x="92" y="-73" font-family="Helvetica,sans-Serif" font-size="10.00">thorin::RWPhase</text>
</a>
</g>
</g>
<!-- Node2&#45;&gt;Node1 -->
<g id="edge1" class="edge">
<title>Node2&#45;&gt;Node1</title>
<path fill="none" stroke="#63b8ff" d="M92,-55.65C92,-47.36 92,-37.78 92,-30.11"/>
<polygon fill="#63b8ff" stroke="#63b8ff" points="88.5,-55.87 92,-65.87 95.5,-55.87 88.5,-55.87"/>
</g>
<!-- Node3 -->
<g id="node3" class="node">
<title>Node3</title>
<g id="a_node3"><a xlink:href="classthorin_1_1Phase.html" target="_top" xlink:title="As opposed to a Pass, a Phase does one thing at a time and does not mix with other Phases.">
<polygon fill="white" stroke="#666666" points="80,-140 0,-140 0,-121 80,-121 80,-140"/>
<text text-anchor="middle" x="40" y="-128" font-family="Helvetica,sans-Serif" font-size="10.00">thorin::Phase</text>
</a>
</g>
</g>
<!-- Node3&#45;&gt;Node2 -->
<g id="edge2" class="edge">
<title>Node3&#45;&gt;Node2</title>
<path fill="none" stroke="#63b8ff" d="M55.68,-113.52C64.84,-104.18 76.05,-92.75 83.57,-85.09"/>
<polygon fill="#63b8ff" stroke="#63b8ff" points="53.09,-111.16 48.59,-120.75 58.09,-116.06 53.09,-111.16"/>
</g>
<!-- Node4 -->
<g id="node4" class="node">
<title>Node4</title>
<g id="a_node4"><a xlink:href="classthorin_1_1Rewriter.html" target="_top" xlink:title="Recurseivly rewrites part of a program into the provided World.">
<polygon fill="white" stroke="#666666" points="190,-140 98,-140 98,-121 190,-121 190,-140"/>
<text text-anchor="middle" x="144" y="-128" font-family="Helvetica,sans-Serif" font-size="10.00">thorin::Rewriter</text>
</a>
</g>
</g>
<!-- Node4&#45;&gt;Node2 -->
<g id="edge3" class="edge">
<title>Node4&#45;&gt;Node2</title>
<path fill="none" stroke="#63b8ff" d="M128.32,-113.52C119.16,-104.18 107.95,-92.75 100.43,-85.09"/>
<polygon fill="#63b8ff" stroke="#63b8ff" points="125.91,-116.06 135.41,-120.75 130.91,-111.16 125.91,-116.06"/>
</g>
</g>
</svg>
