<?xml version="1.0" encoding="UTF-8" standalone="no"?>
<!DOCTYPE svg PUBLIC "-//W3C//DTD SVG 1.1//EN"
 "http://www.w3.org/Graphics/SVG/1.1/DTD/svg11.dtd">
<!-- Generated by graphviz version 2.43.0 (0)
 -->
<!-- Title: thorin::Int Pages: 1 -->
<svg width="122pt" height="231pt"
 viewBox="0.00 0.00 122.00 231.00" xmlns="http://www.w3.org/2000/svg" xmlns:xlink="http://www.w3.org/1999/xlink">
<g id="graph0" class="graph" transform="scale(1 1) rotate(0) translate(4 227)">
<title>thorin::Int</title>
<!-- Node1 -->
<g id="node1" class="node">
<title>Node1</title>
<g id="a_node1"><a xlink:title=" ">
<polygon fill="#bfbfbf" stroke="black" points="25,-0.5 25,-19.5 89,-19.5 89,-0.5 25,-0.5"/>
<text text-anchor="middle" x="57" y="-7.5" font-family="Helvetica,sans-Serif" font-size="10.00">thorin::Int</text>
</a>
</g>
</g>
<!-- Node2 -->
<g id="node2" class="node">
<title>Node2</title>
<g id="a_node2"><a xlink:href="classthorin_1_1Def.html" target="_top" xlink:title="Base class for all Defs.">
<polygon fill="none" stroke="black" points="23,-57.5 23,-76.5 91,-76.5 91,-57.5 23,-57.5"/>
<text text-anchor="middle" x="57" y="-64.5" font-family="Helvetica,sans-Serif" font-size="10.00">thorin::Def</text>
</a>
</g>
</g>
<!-- Node2&#45;&gt;Node1 -->
<g id="edge1" class="edge">
<title>Node2&#45;&gt;Node1</title>
<path fill="none" stroke="midnightblue" d="M57,-47.12C57,-37.82 57,-27.06 57,-19.71"/>
<polygon fill="midnightblue" stroke="midnightblue" points="53.5,-47.41 57,-57.41 60.5,-47.41 53.5,-47.41"/>
</g>
<!-- Node3 -->
<g id="node3" class="node">
<title>Node3</title>
<g id="a_node3"><a xlink:href="classthorin_1_1RuntimeCast.html" target="_top" xlink:title=" ">
<polygon fill="none" stroke="black" points="0,-114.5 0,-144.5 114,-144.5 114,-114.5 0,-114.5"/>
<text text-anchor="start" x="8" y="-132.5" font-family="Helvetica,sans-Serif" font-size="10.00">thorin::RuntimeCast</text>
<text text-anchor="middle" x="57" y="-121.5" font-family="Helvetica,sans-Serif" font-size="10.00">&lt; Def &gt;</text>
</a>
</g>
</g>
<!-- Node3&#45;&gt;Node2 -->
<g id="edge2" class="edge">
<title>Node3&#45;&gt;Node2</title>
<path fill="none" stroke="midnightblue" d="M57,-104.35C57,-94.51 57,-83.78 57,-76.54"/>
<polygon fill="midnightblue" stroke="midnightblue" points="53.5,-104.47 57,-114.47 60.5,-104.47 53.5,-104.47"/>
</g>
<!-- Node4 -->
<g id="node4" class="node">
<title>Node4</title>
<g id="a_node4"><a xlink:href="classthorin_1_1RuntimeCast.html" target="_top" xlink:title="Provides a dynamic_cast &#45;like feature without resorting to RTTI.">
<polygon fill="none" stroke="black" points="0,-192.5 0,-222.5 114,-222.5 114,-192.5 0,-192.5"/>
<text text-anchor="start" x="8" y="-210.5" font-family="Helvetica,sans-Serif" font-size="10.00">thorin::RuntimeCast</text>
<text text-anchor="middle" x="57" y="-199.5" font-family="Helvetica,sans-Serif" font-size="10.00">&lt; Base &gt;</text>
</a>
</g>
</g>
<!-- Node4&#45;&gt;Node3 -->
<g id="edge3" class="edge">
<title>Node4&#45;&gt;Node3</title>
<path fill="none" stroke="orange" stroke-dasharray="5,2" d="M57,-182.09C57,-169.76 57,-155.22 57,-144.73"/>
<polygon fill="orange" stroke="orange" points="53.5,-182.2 57,-192.2 60.5,-182.21 53.5,-182.2"/>
<text text-anchor="middle" x="78.5" y="-166" font-family="Helvetica,sans-Serif" font-size="10.00"> &lt; Def &gt;</text>
</g>
</g>
</svg>
