<?xml version="1.0" encoding="UTF-8" standalone="no"?>
<!DOCTYPE svg PUBLIC "-//W3C//DTD SVG 1.1//EN"
 "http://www.w3.org/Graphics/SVG/1.1/DTD/svg11.dtd">
<!-- Generated by graphviz version 2.43.0 (0)
 -->
<!-- Title: mim::Rewriter Pages: 1 -->
<svg width="426pt" height="298pt"
 viewBox="0.00 0.00 426.00 297.50" xmlns="http://www.w3.org/2000/svg" xmlns:xlink="http://www.w3.org/1999/xlink">

<svg id="main" version="1.1" xmlns="http://www.w3.org/2000/svg" xmlns:xlink="http://www.w3.org/1999/xlink" xml:space="preserve">

<style type="text/css"><![CDATA[
.node, .edge {opacity: 0.7;}
.node.selected, .edge.selected {opacity: 1;}
.edge:hover path { stroke: red; }
.edge:hover polygon { stroke: red; fill: red; }
]]></style>
<script type="application/ecmascript" xlink:href="svg.min.js"/>
<svg id="graph" class="graph">
<g id="graph0" class="graph" transform="scale(1 1) rotate(0) translate(4 293.5)">
<title>mim::Rewriter</title>
<!-- Node1 -->
<g id="Node000001" class="node">
<title>Node1</title>
<g id="a_Node000001"><a xlink:title="Recurseivly rebuilds part of a program into the provided World w.r.t. Rewriter::map.">
<polygon fill="#999999" stroke="#666666" points="86,-140.5 0,-140.5 0,-121.5 86,-121.5 86,-140.5"/>
<text text-anchor="middle" x="43" y="-128.5" font-family="Helvetica,sans-Serif" font-size="10.00">mim::Rewriter</text>
</a>
</g>
</g>
<!-- Node2 -->
<g id="Node000002" class="node">
<title>Node2</title>
<g id="a_Node000002"><a xlink:href="classmim_1_1RWPhase.html" target="_top" xlink:title="Rewrites the RWPhase::old_world into the RWPhase::new_world and swaps them afterwards.">
<polygon fill="white" stroke="#666666" points="218.5,-159.5 127.5,-159.5 127.5,-140.5 218.5,-140.5 218.5,-159.5"/>
<text text-anchor="middle" x="173" y="-147.5" font-family="Helvetica,sans-Serif" font-size="10.00">mim::RWPhase</text>
</a>
</g>
</g>
<!-- Node1&#45;&gt;Node2 -->
<g id="edge1_Node000001_Node000002" class="edge">
<title>Node1&#45;&gt;Node2</title>
<g id="a_edge1_Node000001_Node000002"><a xlink:title=" ">
<path fill="none" stroke="#63b8ff" d="M96.32,-138.77C106.54,-140.28 117.18,-141.86 127.14,-143.34"/>
<polygon fill="#63b8ff" stroke="#63b8ff" points="96.67,-135.28 86.27,-137.27 95.64,-142.2 96.67,-135.28"/>
</a>
</g>
</g>
<!-- Node11 -->
<g id="Node000011" class="node">
<title>Node11</title>
<g id="a_Node000011"><a xlink:href="classmim_1_1VarRewriter.html" target="_top" xlink:title=" ">
<polygon fill="white" stroke="#666666" points="224,-122.5 122,-122.5 122,-103.5 224,-103.5 224,-122.5"/>
<text text-anchor="middle" x="173" y="-110.5" font-family="Helvetica,sans-Serif" font-size="10.00">mim::VarRewriter</text>
</a>
</g>
</g>
<!-- Node1&#45;&gt;Node11 -->
<g id="edge10_Node000001_Node000011" class="edge">
<title>Node1&#45;&gt;Node11</title>
<g id="a_edge10_Node000001_Node000011"><a xlink:title=" ">
<path fill="none" stroke="#63b8ff" d="M96.34,-123.64C104.74,-122.46 113.42,-121.24 121.77,-120.06"/>
<polygon fill="#63b8ff" stroke="#63b8ff" points="95.68,-120.2 86.27,-125.06 96.66,-127.13 95.68,-120.2"/>
</a>
</g>
</g>
<!-- Node3 -->
<g id="Node000003" class="node">
<title>Node3</title>
<g id="a_Node000003"><a xlink:href="classmim_1_1BetaRedPhase.html" target="_top" xlink:title="Inlines in post&#45;order all Lams that occur exactly once in the program.">
<polygon fill="white" stroke="#666666" points="397,-289.5 281,-289.5 281,-270.5 397,-270.5 397,-289.5"/>
<text text-anchor="middle" x="339" y="-277.5" font-family="Helvetica,sans-Serif" font-size="10.00">mim::BetaRedPhase</text>
</a>
</g>
</g>
<!-- Node2&#45;&gt;Node3 -->
<g id="edge2_Node000002_Node000003" class="edge">
<title>Node2&#45;&gt;Node3</title>
<g id="a_edge2_Node000002_Node000003"><a xlink:title=" ">
<path fill="none" stroke="#63b8ff" d="M182.99,-168.52C196.22,-193.75 223.41,-238.47 260,-262 266.31,-266.06 273.43,-269.21 280.74,-271.65"/>
<polygon fill="#63b8ff" stroke="#63b8ff" points="186.11,-166.93 178.46,-159.6 179.86,-170.1 186.11,-166.93"/>
</a>
</g>
</g>
<!-- Node4 -->
<g id="Node000004" class="node">
<title>Node4</title>
<g id="a_Node000004"><a xlink:href="classmim_1_1BranchNormalizePhase.html" target="_top" xlink:title="Inlines in post&#45;order all Lams that occur exactly once in the program.">
<polygon fill="white" stroke="#666666" points="418,-252.5 260,-252.5 260,-233.5 418,-233.5 418,-252.5"/>
<text text-anchor="middle" x="339" y="-240.5" font-family="Helvetica,sans-Serif" font-size="10.00">mim::BranchNormalizePhase</text>
</a>
</g>
</g>
<!-- Node2&#45;&gt;Node4 -->
<g id="edge3_Node000002_Node000004" class="edge">
<title>Node2&#45;&gt;Node4</title>
<g id="a_edge3_Node000002_Node000004"><a xlink:title=" ">
<path fill="none" stroke="#63b8ff" d="M189.09,-167.42C205,-184.67 231.64,-210.53 260,-225 266.68,-228.41 274.02,-231.19 281.43,-233.44"/>
<polygon fill="#63b8ff" stroke="#63b8ff" points="191.47,-164.84 182.18,-159.74 186.26,-169.51 191.47,-164.84"/>
</a>
</g>
</g>
<!-- Node5 -->
<g id="Node000005" class="node">
<title>Node5</title>
<g id="a_Node000005"><a xlink:href="classmim_1_1Cleanup.html" target="_top" xlink:title="Removes unreachable and dead code by rebuilding the whole World into a new one and swapping them afte...">
<polygon fill="white" stroke="#666666" points="381.5,-215.5 296.5,-215.5 296.5,-196.5 381.5,-196.5 381.5,-215.5"/>
<text text-anchor="middle" x="339" y="-203.5" font-family="Helvetica,sans-Serif" font-size="10.00">mim::Cleanup</text>
</a>
</g>
</g>
<!-- Node2&#45;&gt;Node5 -->
<g id="edge4_Node000002_Node000005" class="edge">
<title>Node2&#45;&gt;Node5</title>
<g id="a_edge4_Node000002_Node000005"><a xlink:title=" ">
<path fill="none" stroke="#63b8ff" d="M201.85,-163.91C218.43,-171.79 240.06,-181.36 260,-188 271.6,-191.86 284.45,-195.2 296.31,-197.91"/>
<polygon fill="#63b8ff" stroke="#63b8ff" points="203.25,-160.7 192.72,-159.51 200.2,-167.01 203.25,-160.7"/>
</a>
</g>
</g>
<!-- Node6 -->
<g id="Node000006" class="node">
<title>Node6</title>
<g id="a_Node000006"><a xlink:href="classmim_1_1EtaExpPhase.html" target="_top" xlink:title="Inlines in post&#45;order all Lams that occur exactly once in the program.">
<polygon fill="white" stroke="#666666" points="393,-178.5 285,-178.5 285,-159.5 393,-159.5 393,-178.5"/>
<text text-anchor="middle" x="339" y="-166.5" font-family="Helvetica,sans-Serif" font-size="10.00">mim::EtaExpPhase</text>
</a>
</g>
</g>
<!-- Node2&#45;&gt;Node6 -->
<g id="edge5_Node000002_Node000006" class="edge">
<title>Node2&#45;&gt;Node6</title>
<g id="a_edge5_Node000002_Node000006"><a xlink:title=" ">
<path fill="none" stroke="#63b8ff" d="M228.88,-156.36C246.91,-158.45 266.9,-160.76 284.8,-162.84"/>
<polygon fill="#63b8ff" stroke="#63b8ff" points="229.15,-152.87 218.81,-155.19 228.34,-159.82 229.15,-152.87"/>
</a>
</g>
</g>
<!-- Node7 -->
<g id="Node000007" class="node">
<title>Node7</title>
<g id="a_Node000007"><a xlink:href="classmim_1_1EtaRedPhase.html" target="_top" xlink:title="Inlines in post&#45;order all Lams that occur exactly once in the program.">
<polygon fill="white" stroke="#666666" points="393.5,-141.5 284.5,-141.5 284.5,-122.5 393.5,-122.5 393.5,-141.5"/>
<text text-anchor="middle" x="339" y="-129.5" font-family="Helvetica,sans-Serif" font-size="10.00">mim::EtaRedPhase</text>
</a>
</g>
</g>
<!-- Node2&#45;&gt;Node7 -->
<g id="edge6_Node000002_Node000007" class="edge">
<title>Node2&#45;&gt;Node7</title>
<g id="a_edge6_Node000002_Node000007"><a xlink:title=" ">
<path fill="none" stroke="#63b8ff" d="M228.83,-143.98C246.77,-142.01 266.66,-139.83 284.5,-137.87"/>
<polygon fill="#63b8ff" stroke="#63b8ff" points="228.37,-140.51 218.81,-145.08 229.14,-147.47 228.37,-140.51"/>
</a>
</g>
</g>
<!-- Node8 -->
<g id="Node000008" class="node">
<title>Node8</title>
<g id="a_Node000008"><a xlink:href="classmim_1_1PrefixCleanup.html" target="_top" xlink:title=" ">
<polygon fill="white" stroke="#666666" points="395.5,-104.5 282.5,-104.5 282.5,-85.5 395.5,-85.5 395.5,-104.5"/>
<text text-anchor="middle" x="339" y="-92.5" font-family="Helvetica,sans-Serif" font-size="10.00">mim::PrefixCleanup</text>
</a>
</g>
</g>
<!-- Node2&#45;&gt;Node8 -->
<g id="edge7_Node000002_Node000008" class="edge">
<title>Node2&#45;&gt;Node8</title>
<g id="a_edge7_Node000002_Node000008"><a xlink:title=" ">
<path fill="none" stroke="#63b8ff" d="M211.83,-136.92C215.96,-135.33 220.09,-133.68 224,-132 240.44,-124.96 243.2,-120.16 260,-114 269.95,-110.35 280.86,-107.2 291.29,-104.56"/>
<polygon fill="#63b8ff" stroke="#63b8ff" points="210.41,-133.71 202.26,-140.48 212.85,-140.27 210.41,-133.71"/>
</a>
</g>
</g>
<!-- Node9 -->
<g id="Node000009" class="node">
<title>Node9</title>
<g id="a_Node000009"><a xlink:href="classmim_1_1RetWrap.html" target="_top" xlink:title=" ">
<polygon fill="white" stroke="#666666" points="382.5,-67.5 295.5,-67.5 295.5,-48.5 382.5,-48.5 382.5,-67.5"/>
<text text-anchor="middle" x="339" y="-55.5" font-family="Helvetica,sans-Serif" font-size="10.00">mim::RetWrap</text>
</a>
</g>
</g>
<!-- Node2&#45;&gt;Node9 -->
<g id="edge8_Node000002_Node000009" class="edge">
<title>Node2&#45;&gt;Node9</title>
<g id="a_edge8_Node000002_Node000009"><a xlink:title=" ">
<path fill="none" stroke="#63b8ff" d="M218.93,-135.55C220.7,-134.45 222.4,-133.27 224,-132 246.93,-113.89 236.14,-93.86 260,-77 270.36,-69.68 283.21,-65.17 295.47,-62.38"/>
<polygon fill="#63b8ff" stroke="#63b8ff" points="216.89,-132.67 209.67,-140.42 220.15,-138.86 216.89,-132.67"/>
</a>
</g>
</g>
<!-- Node10 -->
<g id="Node000010" class="node">
<title>Node10</title>
<g id="a_Node000010"><a xlink:href="classmim_1_1plug_1_1matrix_1_1LowerMatrixLowLevel.html" target="_top" xlink:title="In this phase, we lower all matrix operations and types to the low&#45;level representation using pointer...">
<polygon fill="white" stroke="#666666" points="400.5,-30 277.5,-30 277.5,0 400.5,0 400.5,-30"/>
<text text-anchor="start" x="285.5" y="-18" font-family="Helvetica,sans-Serif" font-size="10.00">mim::plug::matrix::</text>
<text text-anchor="middle" x="339" y="-7" font-family="Helvetica,sans-Serif" font-size="10.00">LowerMatrixLowLevel</text>
</a>
</g>
</g>
<!-- Node2&#45;&gt;Node10 -->
<g id="edge9_Node000002_Node000010" class="edge">
<title>Node2&#45;&gt;Node10</title>
<g id="a_edge9_Node000002_Node000010"><a xlink:title=" ">
<path fill="none" stroke="#63b8ff" d="M220.52,-135.01C221.74,-134.07 222.9,-133.07 224,-132 255.47,-101.38 227.99,-70.06 260,-40 265.08,-35.23 271.07,-31.37 277.44,-28.25"/>
<polygon fill="#63b8ff" stroke="#63b8ff" points="218.48,-132.16 211.85,-140.43 222.18,-138.1 218.48,-132.16"/>
</a>
</g>
</g>
</g>
</svg>
</svg>

<style type='text/css'>
<![CDATA[
[data-mouse-over-selected='false'] { opacity: 0.7; }
[data-mouse-over-selected='true']  { opacity: 1.0; }
]]>
</style>
<script type="application/ecmascript"><![CDATA[
document.addEventListener('DOMContentLoaded', (event) => {
  highlightEdges();
  highlightAdjacentNodes();
});
]]></script>
</svg>
