<?xml version="1.0" encoding="UTF-8" standalone="no"?>
<!DOCTYPE svg PUBLIC "-//W3C//DTD SVG 1.1//EN"
 "http://www.w3.org/Graphics/SVG/1.1/DTD/svg11.dtd">
<!-- Generated by graphviz version 2.43.0 (0)
 -->
<!-- Title: thorin::ScopePhase Pages: 1 -->
<!--zoomable 110 -->
<svg id="main" version="1.1" xmlns="http://www.w3.org/2000/svg" xmlns:xlink="http://www.w3.org/1999/xlink" xml:space="preserve" onload="init(evt)">
<style type="text/css"><![CDATA[
.edge:hover path { stroke: red; }
.edge:hover polygon { stroke: red; fill: red; }
]]></style>
<script type="text/javascript"><![CDATA[
var edges = document.getElementsByTagName('g');
if (edges && edges.length) {
  for (var i=0;i<edges.length;i++) {
    if (edges[i].id.substr(0,4)=='edge') {
      edges[i].setAttribute('class','edge');
    }
  }
}
]]></script>
        <defs>
                <circle id="rim" cx="0" cy="0" r="7"/>
                <circle id="rim2" cx="0" cy="0" r="3.5"/>
                <g id="zoomPlus">
                        <use xlink:href="#rim" fill="#404040">
                                <set attributeName="fill" to="#808080" begin="zoomplus.mouseover" end="zoomplus.mouseout"/>
                        </use>
                        <path d="M-4,0h8M0,-4v8" fill="none" stroke="white" stroke-width="1.5" pointer-events="none"/>
                </g>
                <g id="zoomMin">
                        <use xlink:href="#rim" fill="#404040">
                                <set attributeName="fill" to="#808080" begin="zoomminus.mouseover" end="zoomminus.mouseout"/>
                        </use>
                        <path d="M-4,0h8" fill="none" stroke="white" stroke-width="1.5" pointer-events="none"/>
                </g>
                <g id="dirArrow">
                        <path fill="none" stroke="white" stroke-width="1.5" d="M0,-3.0v7 M-2.5,-0.5L0,-3.0L2.5,-0.5"/>
                </g>
               <g id="resetDef">
                       <use xlink:href="#rim2" fill="#404040">
                               <set attributeName="fill" to="#808080" begin="reset.mouseover" end="reset.mouseout"/>
                       </use>
               </g>
        </defs>

<script type="text/javascript">
var viewWidth = 802;
var viewHeight = 110;
var sectionId = 'dynsection-0';
</script>
<script xlink:href="svgpan.js"/>
<svg id="graph" class="graph">
<g id="viewport">
<title>thorin::ScopePhase</title>
<!-- Node1 -->
<g id="node1" class="node">
<title>Node1</title>
<g id="a_node1"><a xlink:title="Transitively visits all reachable Scopes in World that do not have free variables.">
<polygon fill="#999999" stroke="#666666" points="227,-62 117,-62 117,-43 227,-43 227,-62"/>
<text text-anchor="middle" x="172" y="-50" font-family="Helvetica,sans-Serif" font-size="10.00">thorin::ScopePhase</text>
</a>
</g>
</g>
<!-- Node3 -->
<g id="node3" class="node">
<title>Node3</title>
<g id="a_node3"><a xlink:href="classthorin_1_1Emitter.html" target="_top" xlink:title=" ">
<polygon fill="white" stroke="#666666" points="648,-94 535,-94 535,-53 648,-53 648,-94"/>
<text text-anchor="start" x="543" y="-82" font-family="Helvetica,sans-Serif" font-size="10.00">thorin::Emitter&lt; std</text>
<text text-anchor="start" x="543" y="-71" font-family="Helvetica,sans-Serif" font-size="10.00">::string, std::string,</text>
<text text-anchor="middle" x="591.5" y="-60" font-family="Helvetica,sans-Serif" font-size="10.00"> BB, Emitter &gt;</text>
</a>
</g>
</g>
<!-- Node1&#45;&gt;Node3 -->
<g id="edge2" class="edge">
<title>Node1&#45;&gt;Node3</title>
<path fill="none" stroke="#63b8ff" d="M212.55,-64.99C228.38,-69.45 246.89,-73.98 264,-76.5 375.27,-92.87 404.7,-87.59 517,-81.5 522.77,-81.19 528.78,-80.74 534.77,-80.21"/>
<polygon fill="#63b8ff" stroke="#63b8ff" points="213.15,-61.52 202.57,-62.09 211.2,-68.24 213.15,-61.52"/>
</g>
<!-- Node6 -->
<g id="node6" class="node">
<title>Node6</title>
<g id="a_node6"><a xlink:href="classthorin_1_1Emitter.html" target="_top" xlink:title=" ">
<polygon fill="white" stroke="#666666" points="392,-67.5 264,-67.5 264,-37.5 392,-37.5 392,-67.5"/>
<text text-anchor="start" x="272" y="-55.5" font-family="Helvetica,sans-Serif" font-size="10.00">thorin::Emitter&lt; Value,</text>
<text text-anchor="middle" x="328" y="-44.5" font-family="Helvetica,sans-Serif" font-size="10.00"> Type, BB, Child &gt;</text>
</a>
</g>
</g>
<!-- Node1&#45;&gt;Node6 -->
<g id="edge5" class="edge">
<title>Node1&#45;&gt;Node6</title>
<path fill="none" stroke="#63b8ff" d="M237.46,-52.5C246.24,-52.5 255.24,-52.5 263.98,-52.5"/>
<polygon fill="#63b8ff" stroke="#63b8ff" points="237.29,-49 227.29,-52.5 237.29,-56 237.29,-49"/>
</g>
<!-- Node7 -->
<g id="node7" class="node">
<title>Node7</title>
<g id="a_node7"><a xlink:href="classthorin_1_1mem_1_1AddMem.html" target="_top" xlink:title="This phase adds mems to all lambdas and continuations.">
<polygon fill="white" stroke="#666666" points="391,-19 265,-19 265,0 391,0 391,-19"/>
<text text-anchor="middle" x="328" y="-7" font-family="Helvetica,sans-Serif" font-size="10.00">thorin::mem::AddMem</text>
</a>
</g>
</g>
<!-- Node1&#45;&gt;Node7 -->
<g id="edge7" class="edge">
<title>Node1&#45;&gt;Node7</title>
<path fill="none" stroke="#63b8ff" d="M216.82,-40.26C240.97,-33.52 270.51,-25.27 292.92,-19.02"/>
<polygon fill="#63b8ff" stroke="#63b8ff" points="215.87,-36.9 207.18,-42.96 217.75,-43.64 215.87,-36.9"/>
</g>
<!-- Node2 -->
<g id="node2" class="node">
<title>Node2</title>
<g id="a_node2"><a xlink:href="classthorin_1_1Phase.html" target="_top" xlink:title="As opposed to a Pass, a Phase does one thing at a time and does not mix with other Phases.">
<polygon fill="white" stroke="#666666" points="80,-62 0,-62 0,-43 80,-43 80,-62"/>
<text text-anchor="middle" x="40" y="-50" font-family="Helvetica,sans-Serif" font-size="10.00">thorin::Phase</text>
</a>
</g>
</g>
<!-- Node2&#45;&gt;Node1 -->
<g id="edge1" class="edge">
<title>Node2&#45;&gt;Node1</title>
<path fill="none" stroke="#63b8ff" d="M90.27,-52.5C98.89,-52.5 107.9,-52.5 116.64,-52.5"/>
<polygon fill="#63b8ff" stroke="#63b8ff" points="90,-49 80,-52.5 90,-56 90,-49"/>
</g>
<!-- Node4 -->
<g id="node4" class="node">
<title>Node4</title>
<g id="a_node4"><a xlink:href="classthorin_1_1dot_1_1Emitter.html" target="_top" xlink:title=" ">
<polygon fill="white" stroke="#666666" points="794,-102 685,-102 685,-83 794,-83 794,-102"/>
<text text-anchor="middle" x="739.5" y="-90" font-family="Helvetica,sans-Serif" font-size="10.00">thorin::dot::Emitter</text>
</a>
</g>
</g>
<!-- Node3&#45;&gt;Node4 -->
<g id="edge3" class="edge">
<title>Node3&#45;&gt;Node4</title>
<path fill="none" stroke="#63b8ff" d="M658.15,-82.04C667.12,-83.21 676.25,-84.4 684.97,-85.53"/>
<polygon fill="#63b8ff" stroke="#63b8ff" points="658.48,-78.56 648.11,-80.74 657.58,-85.5 658.48,-78.56"/>
</g>
<!-- Node5 -->
<g id="node5" class="node">
<title>Node5</title>
<g id="a_node5"><a xlink:href="classthorin_1_1ll_1_1Emitter.html" target="_top" xlink:title=" ">
<polygon fill="white" stroke="#666666" points="789,-65 690,-65 690,-46 789,-46 789,-65"/>
<text text-anchor="middle" x="739.5" y="-53" font-family="Helvetica,sans-Serif" font-size="10.00">thorin::ll::Emitter</text>
</a>
</g>
</g>
<!-- Node3&#45;&gt;Node5 -->
<g id="edge4" class="edge">
<title>Node3&#45;&gt;Node5</title>
<path fill="none" stroke="#63b8ff" d="M658.19,-65.4C668.8,-64.09 679.61,-62.76 689.73,-61.51"/>
<polygon fill="#63b8ff" stroke="#63b8ff" points="657.61,-61.95 648.11,-66.64 658.47,-68.89 657.61,-61.95"/>
</g>
<!-- Node6&#45;&gt;Node3 -->
<g id="edge6" class="edge">
<title>Node6&#45;&gt;Node3</title>
<path fill="none" stroke="orange" stroke-dasharray="5,2" d="M402.36,-52.67C437.19,-53.4 479.34,-55.24 517,-59.5 522.81,-60.16 528.85,-61.02 534.85,-61.99"/>
<polygon fill="orange" stroke="orange" points="402.34,-49.17 392.27,-52.48 402.21,-56.16 402.34,-49.17"/>
<text text-anchor="start" x="410" y="-73.5" font-family="Helvetica,sans-Serif" font-size="10.00"> &lt; std::string, std</text>
<text text-anchor="middle" x="463.5" y="-62.5" font-family="Helvetica,sans-Serif" font-size="10.00">::string, BB, Emitter &gt;</text>
</g>
</g>
</svg>
        <g id="navigator" transform="translate(0 0)" fill="#404254">
                <rect fill="#f2f5e9" fill-opacity="0.5" stroke="#606060" stroke-width=".5" x="0" y="0" width="60" height="60"/>
                <use id="zoomplus" xlink:href="#zoomPlus" x="17" y="9" onmousedown="handleZoom(evt,'in')"/>
                <use id="zoomminus" xlink:href="#zoomMin" x="42" y="9" onmousedown="handleZoom(evt,'out')"/>
                <use id="reset" xlink:href="#resetDef" x="30" y="36" onmousedown="handleReset()"/>
                <g id="arrowUp" xlink:href="#dirArrow" transform="translate(30 24)" onmousedown="handlePan(0,-1)">
                  <use xlink:href="#rim" fill="#404040">
                        <set attributeName="fill" to="#808080" begin="arrowUp.mouseover" end="arrowUp.mouseout"/>
                  </use>
                  <path fill="none" stroke="white" stroke-width="1.5" d="M0,-3.0v7 M-2.5,-0.5L0,-3.0L2.5,-0.5"/>
                </g>
                <g id="arrowRight" xlink:href="#dirArrow" transform="rotate(90) translate(36 -43)" onmousedown="handlePan(1,0)">
                  <use xlink:href="#rim" fill="#404040">
                        <set attributeName="fill" to="#808080" begin="arrowRight.mouseover" end="arrowRight.mouseout"/>
                  </use>
                  <path fill="none" stroke="white" stroke-width="1.5" d="M0,-3.0v7 M-2.5,-0.5L0,-3.0L2.5,-0.5"/>
                </g>
                <g id="arrowDown" xlink:href="#dirArrow" transform="rotate(180) translate(-30 -48)" onmousedown="handlePan(0,1)">
                  <use xlink:href="#rim" fill="#404040">
                        <set attributeName="fill" to="#808080" begin="arrowDown.mouseover" end="arrowDown.mouseout"/>
                  </use>
                  <path fill="none" stroke="white" stroke-width="1.5" d="M0,-3.0v7 M-2.5,-0.5L0,-3.0L2.5,-0.5"/>
                </g>
                <g id="arrowLeft" xlink:href="#dirArrow" transform="rotate(270) translate(-36 17)" onmousedown="handlePan(-1,0)">
                  <use xlink:href="#rim" fill="#404040">
                        <set attributeName="fill" to="#808080" begin="arrowLeft.mouseover" end="arrowLeft.mouseout"/>
                  </use>
                  <path fill="none" stroke="white" stroke-width="1.5" d="M0,-3.0v7 M-2.5,-0.5L0,-3.0L2.5,-0.5"/>
                </g>
        </g>
        <svg viewBox="0 0 15 15" width="100%" height="30px" preserveAspectRatio="xMaxYMin meet">
         <g id="arrow_out" transform="scale(0.3 0.3)">
          <a xlink:href="classthorin_1_1ScopePhase__inherit__graph_org.svg" target="_base">
           <rect id="button" ry="5" rx="5" y="6" x="6" height="38" width="38"
                fill="#f2f5e9" fill-opacity="0.5" stroke="#606060" stroke-width="1.0"/>
           <path id="arrow"
             d="M 11.500037,31.436501 C 11.940474,20.09759 22.043105,11.32322 32.158766,21.979434 L 37.068811,17.246167 C 37.068811,17.246167 37.088388,32 37.088388,32 L 22.160133,31.978069 C 22.160133,31.978069 26.997745,27.140456 26.997745,27.140456 C 18.528582,18.264221 13.291696,25.230495 11.500037,31.436501 z"
             style="fill:#404040;"/>
          </a>
         </g>
        </svg>
</svg>
