<?xml version="1.0" encoding="UTF-8" standalone="no"?>
<!DOCTYPE svg PUBLIC "-//W3C//DTD SVG 1.1//EN"
 "http://www.w3.org/Graphics/SVG/1.1/DTD/svg11.dtd">
<!-- Generated by graphviz version 2.43.0 (0)
 -->
<!-- Title: thorin::RWPass&lt; N &gt; Pages: 1 -->
<svg width="1172pt" height="580pt"
 viewBox="0.00 0.00 1172.00 580.00" xmlns="http://www.w3.org/2000/svg" xmlns:xlink="http://www.w3.org/1999/xlink">
<g id="graph0" class="graph" transform="scale(1 1) rotate(0) translate(4 576)">
<title>thorin::RWPass&lt; N &gt;</title>
<!-- Node1 -->
<g id="node1" class="node">
<title>Node1</title>
<g id="a_node1"><a xlink:title="Inherit from this class if your Pass does not need state and a fixed&#45;point iteration.">
<polygon fill="#bfbfbf" stroke="black" points="223,-119.5 223,-138.5 342,-138.5 342,-119.5 223,-119.5"/>
<text text-anchor="middle" x="282.5" y="-126.5" font-family="Helvetica,sans-Serif" font-size="10.00">thorin::RWPass&lt; N &gt;</text>
</a>
</g>
</g>
<!-- Node4 -->
<g id="node4" class="node">
<title>Node4</title>
<g id="a_node4"><a xlink:href="classthorin_1_1PartialEval.html" target="_top" xlink:title=" ">
<polygon fill="none" stroke="black" points="426,-158.5 426,-177.5 545,-177.5 545,-158.5 426,-158.5"/>
<text text-anchor="middle" x="485.5" y="-165.5" font-family="Helvetica,sans-Serif" font-size="10.00">thorin::PartialEval&lt;&gt;</text>
</a>
</g>
</g>
<!-- Node1&#45;&gt;Node4 -->
<g id="edge3" class="edge">
<title>Node1&#45;&gt;Node4</title>
<path fill="none" stroke="midnightblue" d="M342.84,-140.51C372.34,-146.24 407.55,-153.07 435.49,-158.49"/>
<polygon fill="midnightblue" stroke="midnightblue" points="343.15,-137.01 332.67,-138.54 341.82,-143.88 343.15,-137.01"/>
</g>
<!-- Node5 -->
<g id="node5" class="node">
<title>Node5</title>
<g id="a_node5"><a xlink:href="classthorin_1_1RWPass.html" target="_top" xlink:title=" ">
<polygon fill="none" stroke="black" points="587,-362.5 587,-381.5 720,-381.5 720,-362.5 587,-362.5"/>
<text text-anchor="middle" x="653.5" y="-369.5" font-family="Helvetica,sans-Serif" font-size="10.00">thorin::RWPass&lt; Lam &gt;</text>
</a>
</g>
</g>
<!-- Node1&#45;&gt;Node5 -->
<g id="edge4" class="edge">
<title>Node1&#45;&gt;Node5</title>
<path fill="none" stroke="orange" stroke-dasharray="5,2" d="M352.43,-123.23C420.56,-118.94 518.98,-116.96 550,-138 630.58,-192.63 648.33,-325.61 651.76,-362.42"/>
<polygon fill="orange" stroke="orange" points="351.94,-119.76 342.19,-123.91 352.4,-126.74 351.94,-119.76"/>
<text text-anchor="middle" x="485.5" y="-141" font-family="Helvetica,sans-Serif" font-size="10.00"> &lt; Lam &gt;</text>
</g>
<!-- Node21 -->
<g id="node21" class="node">
<title>Node21</title>
<g id="a_node21"><a xlink:href="classthorin_1_1RWPass.html" target="_top" xlink:title=" ">
<polygon fill="none" stroke="black" points="421,-47.5 421,-66.5 550,-66.5 550,-47.5 421,-47.5"/>
<text text-anchor="middle" x="485.5" y="-54.5" font-family="Helvetica,sans-Serif" font-size="10.00">thorin::RWPass&lt; Def &gt;</text>
</a>
</g>
</g>
<!-- Node1&#45;&gt;Node21 -->
<g id="edge20" class="edge">
<title>Node1&#45;&gt;Node21</title>
<path fill="none" stroke="orange" stroke-dasharray="5,2" d="M319.76,-116.01C359.46,-101.79 422.2,-79.32 457.7,-66.6"/>
<polygon fill="orange" stroke="orange" points="318.43,-112.77 310.19,-119.44 320.79,-119.36 318.43,-112.77"/>
<text text-anchor="middle" x="381.5" y="-105" font-family="Helvetica,sans-Serif" font-size="10.00"> &lt; Def &gt;</text>
</g>
<!-- Node2 -->
<g id="node2" class="node">
<title>Node2</title>
<g id="a_node2"><a xlink:href="classthorin_1_1Pass.html" target="_top" xlink:title="All Passes that want to be registered in the PassMan must implement this interface.">
<polygon fill="none" stroke="black" points="113,-119.5 113,-138.5 186,-138.5 186,-119.5 113,-119.5"/>
<text text-anchor="middle" x="149.5" y="-126.5" font-family="Helvetica,sans-Serif" font-size="10.00">thorin::Pass</text>
</a>
</g>
</g>
<!-- Node2&#45;&gt;Node1 -->
<g id="edge1" class="edge">
<title>Node2&#45;&gt;Node1</title>
<path fill="none" stroke="midnightblue" d="M196.41,-129C204.94,-129 213.96,-129 222.81,-129"/>
<polygon fill="midnightblue" stroke="midnightblue" points="196.3,-125.5 186.3,-129 196.3,-132.5 196.3,-125.5"/>
</g>
<!-- Node3 -->
<g id="node3" class="node">
<title>Node3</title>
<g id="a_node3"><a xlink:href="classthorin_1_1IPass.html" target="_top" xlink:title="This is a minimalistic base interface to work with when dynamically loading a Pass.">
<polygon fill="none" stroke="black" points="0,-119.5 0,-138.5 76,-138.5 76,-119.5 0,-119.5"/>
<text text-anchor="middle" x="38" y="-126.5" font-family="Helvetica,sans-Serif" font-size="10.00">thorin::IPass</text>
</a>
</g>
</g>
<!-- Node3&#45;&gt;Node2 -->
<g id="edge2" class="edge">
<title>Node3&#45;&gt;Node2</title>
<path fill="none" stroke="midnightblue" d="M86.36,-129C95.28,-129 104.47,-129 112.95,-129"/>
<polygon fill="midnightblue" stroke="midnightblue" points="86.07,-125.5 76.07,-129 86.07,-132.5 86.07,-125.5"/>
</g>
<!-- Node6 -->
<g id="node6" class="node">
<title>Node6</title>
<g id="a_node6"><a xlink:href="classthorin_1_1FPPass.html" target="_top" xlink:title=" ">
<polygon fill="none" stroke="black" points="869.5,-226 869.5,-256 1015.5,-256 1015.5,-226 869.5,-226"/>
<text text-anchor="start" x="877.5" y="-244" font-family="Helvetica,sans-Serif" font-size="10.00">thorin::FPPass&lt; CopyProp,</text>
<text text-anchor="middle" x="942.5" y="-233" font-family="Helvetica,sans-Serif" font-size="10.00"> Lam &gt;</text>
</a>
</g>
</g>
<!-- Node5&#45;&gt;Node6 -->
<g id="edge5" class="edge">
<title>Node5&#45;&gt;Node6</title>
<path fill="none" stroke="midnightblue" d="M677.18,-356.71C693.51,-346.28 716.38,-332.8 738,-324 784.33,-305.14 807.12,-326.19 847,-296 859.7,-286.38 852.56,-274.95 865,-265 869.35,-261.52 874.21,-258.55 879.31,-256"/>
<polygon fill="midnightblue" stroke="midnightblue" points="674.85,-354.05 668.38,-362.45 678.67,-359.92 674.85,-354.05"/>
</g>
<!-- Node8 -->
<g id="node8" class="node">
<title>Node8</title>
<g id="a_node8"><a xlink:href="classthorin_1_1FPPass.html" target="_top" xlink:title=" ">
<polygon fill="none" stroke="black" points="876,-275 876,-305 1009,-305 1009,-275 876,-275"/>
<text text-anchor="start" x="884" y="-293" font-family="Helvetica,sans-Serif" font-size="10.00">thorin::FPPass&lt; EtaExp,</text>
<text text-anchor="middle" x="942.5" y="-282" font-family="Helvetica,sans-Serif" font-size="10.00"> Lam &gt;</text>
</a>
</g>
</g>
<!-- Node5&#45;&gt;Node8 -->
<g id="edge7" class="edge">
<title>Node5&#45;&gt;Node8</title>
<path fill="none" stroke="midnightblue" d="M698.5,-359.73C711.23,-356.22 725.16,-352.42 738,-349 786.33,-336.14 799.02,-335.14 847,-321 855.09,-318.62 856.99,-317.64 865,-315 874.82,-311.76 885.35,-308.3 895.37,-305.03"/>
<polygon fill="midnightblue" stroke="midnightblue" points="697.3,-356.43 688.59,-362.47 699.16,-363.18 697.3,-356.43"/>
</g>
<!-- Node10 -->
<g id="node10" class="node">
<title>Node10</title>
<g id="a_node10"><a xlink:href="classthorin_1_1FPPass.html" target="_top" xlink:title=" ">
<polygon fill="none" stroke="black" points="867.5,-128 867.5,-158 1017.5,-158 1017.5,-128 867.5,-128"/>
<text text-anchor="start" x="875.5" y="-146" font-family="Helvetica,sans-Serif" font-size="10.00">thorin::FPPass&lt; SSAConstr,</text>
<text text-anchor="middle" x="942.5" y="-135" font-family="Helvetica,sans-Serif" font-size="10.00"> Lam &gt;</text>
</a>
</g>
</g>
<!-- Node5&#45;&gt;Node10 -->
<g id="edge9" class="edge">
<title>Node5&#45;&gt;Node10</title>
<path fill="none" stroke="midnightblue" d="M658.72,-352.47C667.3,-317.57 690.17,-244.53 738,-206 776.95,-174.62 800.93,-197.48 847,-178 855.64,-174.35 856.46,-170.88 865,-167 872.22,-163.72 880.02,-160.71 887.78,-158.01"/>
<polygon fill="midnightblue" stroke="midnightblue" points="655.27,-351.84 656.42,-362.37 662.09,-353.42 655.27,-351.84"/>
</g>
<!-- Node12 -->
<g id="node12" class="node">
<title>Node12</title>
<g id="a_node12"><a xlink:href="classthorin_1_1FPPass.html" target="_top" xlink:title=" ">
<polygon fill="none" stroke="black" points="865,-177 865,-207 1020,-207 1020,-177 865,-177"/>
<text text-anchor="start" x="873" y="-195" font-family="Helvetica,sans-Serif" font-size="10.00">thorin::FPPass&lt; TailRecElim,</text>
<text text-anchor="middle" x="942.5" y="-184" font-family="Helvetica,sans-Serif" font-size="10.00"> Lam &gt;</text>
</a>
</g>
</g>
<!-- Node5&#45;&gt;Node12 -->
<g id="edge11" class="edge">
<title>Node5&#45;&gt;Node12</title>
<path fill="none" stroke="midnightblue" d="M663.95,-353.39C677.18,-329.25 703.52,-287.58 738,-265 779.84,-237.6 804.54,-263.43 847,-237 857.44,-230.5 854.74,-222.77 865,-216 870.23,-212.55 875.98,-209.57 881.92,-207.01"/>
<polygon fill="midnightblue" stroke="midnightblue" points="660.83,-351.79 659.24,-362.27 667.02,-355.07 660.83,-351.79"/>
</g>
<!-- Node14 -->
<g id="node14" class="node">
<title>Node14</title>
<g id="a_node14"><a xlink:href="classthorin_1_1Alloc2Malloc.html" target="_top" xlink:title=" ">
<polygon fill="none" stroke="black" points="886,-514.5 886,-533.5 999,-533.5 999,-514.5 886,-514.5"/>
<text text-anchor="middle" x="942.5" y="-521.5" font-family="Helvetica,sans-Serif" font-size="10.00">thorin::Alloc2Malloc</text>
</a>
</g>
</g>
<!-- Node5&#45;&gt;Node14 -->
<g id="edge13" class="edge">
<title>Node5&#45;&gt;Node14</title>
<path fill="none" stroke="midnightblue" d="M665.9,-389.96C680.25,-411.12 706.81,-445.95 738,-466 782.97,-494.9 842.56,-509.68 885.62,-517.06"/>
<polygon fill="midnightblue" stroke="midnightblue" points="668.79,-387.97 660.36,-381.55 662.94,-391.82 668.79,-387.97"/>
</g>
<!-- Node15 -->
<g id="node15" class="node">
<title>Node15</title>
<g id="a_node15"><a xlink:href="classthorin_1_1Foo.html" target="_top" xlink:title=" ">
<polygon fill="none" stroke="black" points="908.5,-476.5 908.5,-495.5 976.5,-495.5 976.5,-476.5 908.5,-476.5"/>
<text text-anchor="middle" x="942.5" y="-483.5" font-family="Helvetica,sans-Serif" font-size="10.00">thorin::Foo</text>
</a>
</g>
</g>
<!-- Node5&#45;&gt;Node15 -->
<g id="edge14" class="edge">
<title>Node5&#45;&gt;Node15</title>
<path fill="none" stroke="midnightblue" d="M672.25,-388.4C688.31,-402.4 713.18,-422.12 738,-434 794.57,-461.08 866.99,-475.25 908.42,-481.63"/>
<polygon fill="midnightblue" stroke="midnightblue" points="674.5,-385.71 664.71,-381.67 669.84,-390.93 674.5,-385.71"/>
</g>
<!-- Node16 -->
<g id="node16" class="node">
<title>Node16</title>
<g id="a_node16"><a xlink:href="classthorin_1_1LamSpec.html" target="_top" xlink:title=" ">
<polygon fill="none" stroke="black" points="895,-438.5 895,-457.5 990,-457.5 990,-438.5 895,-438.5"/>
<text text-anchor="middle" x="942.5" y="-445.5" font-family="Helvetica,sans-Serif" font-size="10.00">thorin::LamSpec</text>
</a>
</g>
</g>
<!-- Node5&#45;&gt;Node16 -->
<g id="edge15" class="edge">
<title>Node5&#45;&gt;Node16</title>
<path fill="none" stroke="midnightblue" d="M683.58,-385.86C699.39,-392.97 719.46,-401.31 738,-407 790.71,-423.18 853.11,-434.67 894.78,-441.29"/>
<polygon fill="midnightblue" stroke="midnightblue" points="684.88,-382.61 674.33,-381.63 681.97,-388.98 684.88,-382.61"/>
</g>
<!-- Node17 -->
<g id="node17" class="node">
<title>Node17</title>
<g id="a_node17"><a xlink:href="classthorin_1_1RememElim.html" target="_top" xlink:title=" ">
<polygon fill="none" stroke="black" points="887,-400.5 887,-419.5 998,-419.5 998,-400.5 887,-400.5"/>
<text text-anchor="middle" x="942.5" y="-407.5" font-family="Helvetica,sans-Serif" font-size="10.00">thorin::RememElim</text>
</a>
</g>
</g>
<!-- Node5&#45;&gt;Node17 -->
<g id="edge16" class="edge">
<title>Node5&#45;&gt;Node17</title>
<path fill="none" stroke="midnightblue" d="M719.18,-383.16C725.53,-384.16 731.89,-385.13 738,-386 788.36,-393.19 845.96,-399.83 886.99,-404.3"/>
<polygon fill="midnightblue" stroke="midnightblue" points="719.67,-379.7 709.24,-381.57 718.56,-386.61 719.67,-379.7"/>
</g>
<!-- Node18 -->
<g id="node18" class="node">
<title>Node18</title>
<g id="a_node18"><a xlink:href="classthorin_1_1RetWrap.html" target="_top" xlink:title=" ">
<polygon fill="none" stroke="black" points="896,-362.5 896,-381.5 989,-381.5 989,-362.5 896,-362.5"/>
<text text-anchor="middle" x="942.5" y="-369.5" font-family="Helvetica,sans-Serif" font-size="10.00">thorin::RetWrap</text>
</a>
</g>
</g>
<!-- Node5&#45;&gt;Node18 -->
<g id="edge17" class="edge">
<title>Node5&#45;&gt;Node18</title>
<path fill="none" stroke="midnightblue" d="M730.63,-372C783.15,-372 851.24,-372 895.63,-372"/>
<polygon fill="midnightblue" stroke="midnightblue" points="730.34,-368.5 720.34,-372 730.34,-375.5 730.34,-368.5"/>
</g>
<!-- Node19 -->
<g id="node19" class="node">
<title>Node19</title>
<g id="a_node19"><a xlink:href="classthorin_1_1Scalerize.html" target="_top" xlink:title="Perform Scalarization (= Argument simplification), i.e.">
<polygon fill="none" stroke="black" points="895,-324.5 895,-343.5 990,-343.5 990,-324.5 895,-324.5"/>
<text text-anchor="middle" x="942.5" y="-331.5" font-family="Helvetica,sans-Serif" font-size="10.00">thorin::Scalerize</text>
</a>
</g>
</g>
<!-- Node5&#45;&gt;Node19 -->
<g id="edge18" class="edge">
<title>Node5&#45;&gt;Node19</title>
<path fill="none" stroke="midnightblue" d="M730.56,-361.93C782.75,-355.02 850.33,-346.07 894.75,-340.19"/>
<polygon fill="midnightblue" stroke="midnightblue" points="729.8,-358.5 720.34,-363.28 730.72,-365.44 729.8,-358.5"/>
</g>
<!-- Node20 -->
<g id="node20" class="node">
<title>Node20</title>
<g id="a_node20"><a xlink:href="classthorin_1_1affine_1_1LowerFor.html" target="_top" xlink:title="Lowers the for axiom to actual control flow in CPS style Requires CopyProp to cleanup afterwards.">
<polygon fill="none" stroke="black" points="878,-552.5 878,-571.5 1007,-571.5 1007,-552.5 878,-552.5"/>
<text text-anchor="middle" x="942.5" y="-559.5" font-family="Helvetica,sans-Serif" font-size="10.00">thorin::affine::LowerFor</text>
</a>
</g>
</g>
<!-- Node5&#45;&gt;Node20 -->
<g id="edge19" class="edge">
<title>Node5&#45;&gt;Node20</title>
<path fill="none" stroke="midnightblue" d="M661.92,-391.36C673.75,-419.72 699.55,-472.4 738,-502 778.42,-533.12 834.67,-548.13 877.79,-555.35"/>
<polygon fill="midnightblue" stroke="midnightblue" points="665.04,-389.76 658.07,-381.78 658.55,-392.36 665.04,-389.76"/>
</g>
<!-- Node7 -->
<g id="node7" class="node">
<title>Node7</title>
<g id="a_node7"><a xlink:href="classthorin_1_1CopyProp.html" target="_top" xlink:title="This FPPass is similar to sparse conditional constant propagation (SCCP).">
<polygon fill="none" stroke="black" points="1061.5,-231.5 1061.5,-250.5 1159.5,-250.5 1159.5,-231.5 1061.5,-231.5"/>
<text text-anchor="middle" x="1110.5" y="-238.5" font-family="Helvetica,sans-Serif" font-size="10.00">thorin::CopyProp</text>
</a>
</g>
</g>
<!-- Node6&#45;&gt;Node7 -->
<g id="edge6" class="edge">
<title>Node6&#45;&gt;Node7</title>
<path fill="none" stroke="midnightblue" d="M1025.97,-241C1038.07,-241 1050.19,-241 1061.29,-241"/>
<polygon fill="midnightblue" stroke="midnightblue" points="1025.83,-237.5 1015.83,-241 1025.83,-244.5 1025.83,-237.5"/>
</g>
<!-- Node9 -->
<g id="node9" class="node">
<title>Node9</title>
<g id="a_node9"><a xlink:href="classthorin_1_1EtaExp.html" target="_top" xlink:title="Performs η&#45;expansion: f &#45;&gt; λx.f x, if f is a Lam with more than one user and does not appear in calle...">
<polygon fill="none" stroke="black" points="1068,-280.5 1068,-299.5 1153,-299.5 1153,-280.5 1068,-280.5"/>
<text text-anchor="middle" x="1110.5" y="-287.5" font-family="Helvetica,sans-Serif" font-size="10.00">thorin::EtaExp</text>
</a>
</g>
</g>
<!-- Node8&#45;&gt;Node9 -->
<g id="edge8" class="edge">
<title>Node8&#45;&gt;Node9</title>
<path fill="none" stroke="midnightblue" d="M1019.39,-290C1036.03,-290 1053.05,-290 1067.75,-290"/>
<polygon fill="midnightblue" stroke="midnightblue" points="1019.11,-286.5 1009.11,-290 1019.11,-293.5 1019.11,-286.5"/>
</g>
<!-- Node11 -->
<g id="node11" class="node">
<title>Node11</title>
<g id="a_node11"><a xlink:href="classthorin_1_1SSAConstr.html" target="_top" xlink:title="SSA construction algorithm that promotes Tag::Slots, Tag::Loads, and Tag::Stores to SSA values.">
<polygon fill="none" stroke="black" points="1059.5,-133.5 1059.5,-152.5 1161.5,-152.5 1161.5,-133.5 1059.5,-133.5"/>
<text text-anchor="middle" x="1110.5" y="-140.5" font-family="Helvetica,sans-Serif" font-size="10.00">thorin::SSAConstr</text>
</a>
</g>
</g>
<!-- Node10&#45;&gt;Node11 -->
<g id="edge10" class="edge">
<title>Node10&#45;&gt;Node11</title>
<path fill="none" stroke="midnightblue" d="M1027.96,-143C1038.61,-143 1049.22,-143 1059.11,-143"/>
<polygon fill="midnightblue" stroke="midnightblue" points="1027.76,-139.5 1017.76,-143 1027.76,-146.5 1027.76,-139.5"/>
</g>
<!-- Node13 -->
<g id="node13" class="node">
<title>Node13</title>
<g id="a_node13"><a xlink:href="classthorin_1_1TailRecElim.html" target="_top" xlink:title=" ">
<polygon fill="none" stroke="black" points="1057,-182.5 1057,-201.5 1164,-201.5 1164,-182.5 1057,-182.5"/>
<text text-anchor="middle" x="1110.5" y="-189.5" font-family="Helvetica,sans-Serif" font-size="10.00">thorin::TailRecElim</text>
</a>
</g>
</g>
<!-- Node12&#45;&gt;Node13 -->
<g id="edge12" class="edge">
<title>Node12&#45;&gt;Node13</title>
<path fill="none" stroke="midnightblue" d="M1030.38,-192C1039.4,-192 1048.37,-192 1056.84,-192"/>
<polygon fill="midnightblue" stroke="midnightblue" points="1030.18,-188.5 1020.18,-192 1030.18,-195.5 1030.18,-188.5"/>
</g>
<!-- Node22 -->
<g id="node22" class="node">
<title>Node22</title>
<g id="a_node22"><a xlink:href="classthorin_1_1FPPass.html" target="_top" xlink:title=" ">
<polygon fill="none" stroke="black" points="868,-0.5 868,-19.5 1017,-19.5 1017,-0.5 868,-0.5"/>
<text text-anchor="middle" x="942.5" y="-7.5" font-family="Helvetica,sans-Serif" font-size="10.00">thorin::FPPass&lt; BetaRed &gt;</text>
</a>
</g>
</g>
<!-- Node21&#45;&gt;Node22 -->
<g id="edge21" class="edge">
<title>Node21&#45;&gt;Node22</title>
<path fill="none" stroke="midnightblue" d="M526.68,-44.7C544.92,-39.61 566.87,-34.17 587,-31 683.23,-15.85 795.71,-11.4 867.73,-10.22"/>
<polygon fill="midnightblue" stroke="midnightblue" points="525.62,-41.36 516.97,-47.47 527.54,-48.09 525.62,-41.36"/>
</g>
<!-- Node24 -->
<g id="node24" class="node">
<title>Node24</title>
<g id="a_node24"><a xlink:href="classthorin_1_1FPPass.html" target="_top" xlink:title=" ">
<polygon fill="none" stroke="black" points="871.5,-71.5 871.5,-90.5 1013.5,-90.5 1013.5,-71.5 871.5,-71.5"/>
<text text-anchor="middle" x="942.5" y="-78.5" font-family="Helvetica,sans-Serif" font-size="10.00">thorin::FPPass&lt; EtaRed &gt;</text>
</a>
</g>
</g>
<!-- Node21&#45;&gt;Node24 -->
<g id="edge23" class="edge">
<title>Node21&#45;&gt;Node24</title>
<path fill="none" stroke="midnightblue" d="M554.49,-46.14C627.45,-36.48 746.42,-26.49 847,-45 874.28,-50.02 903.88,-62.56 922.55,-71.42"/>
<polygon fill="midnightblue" stroke="midnightblue" points="553.94,-42.68 544.51,-47.5 554.89,-49.62 553.94,-42.68"/>
</g>
<!-- Node26 -->
<g id="node26" class="node">
<title>Node26</title>
<g id="a_node26"><a xlink:href="classthorin_1_1FPPass.html" target="_top" xlink:title="Inherit from this class using CRTP, if you do need a Pass with a state and a fixed&#45;point.">
<polygon fill="none" stroke="black" points="590,-122.5 590,-141.5 717,-141.5 717,-122.5 590,-122.5"/>
<text text-anchor="middle" x="653.5" y="-129.5" font-family="Helvetica,sans-Serif" font-size="10.00">thorin::FPPass&lt; P, N &gt;</text>
</a>
</g>
</g>
<!-- Node21&#45;&gt;Node26 -->
<g id="edge25" class="edge">
<title>Node21&#45;&gt;Node26</title>
<path fill="none" stroke="midnightblue" d="M517.09,-70.82C550.23,-85.79 602.25,-109.3 631.22,-122.39"/>
<polygon fill="midnightblue" stroke="midnightblue" points="518.42,-67.58 507.86,-66.65 515.53,-73.96 518.42,-67.58"/>
</g>
<!-- Node23 -->
<g id="node23" class="node">
<title>Node23</title>
<g id="a_node23"><a xlink:href="classthorin_1_1BetaRed.html" target="_top" xlink:title="Optimistically performs β&#45;reduction (aka inlining).">
<polygon fill="none" stroke="black" points="1064.5,-0.5 1064.5,-19.5 1156.5,-19.5 1156.5,-0.5 1064.5,-0.5"/>
<text text-anchor="middle" x="1110.5" y="-7.5" font-family="Helvetica,sans-Serif" font-size="10.00">thorin::BetaRed</text>
</a>
</g>
</g>
<!-- Node22&#45;&gt;Node23 -->
<g id="edge22" class="edge">
<title>Node22&#45;&gt;Node23</title>
<path fill="none" stroke="midnightblue" d="M1027.4,-10C1040.04,-10 1052.65,-10 1064.06,-10"/>
<polygon fill="midnightblue" stroke="midnightblue" points="1027.28,-6.5 1017.28,-10 1027.28,-13.5 1027.28,-6.5"/>
</g>
<!-- Node25 -->
<g id="node25" class="node">
<title>Node25</title>
<g id="a_node25"><a xlink:href="classthorin_1_1EtaRed.html" target="_top" xlink:title="Performs η&#45;reduction.">
<polygon fill="none" stroke="black" points="1067.5,-71.5 1067.5,-90.5 1153.5,-90.5 1153.5,-71.5 1067.5,-71.5"/>
<text text-anchor="middle" x="1110.5" y="-78.5" font-family="Helvetica,sans-Serif" font-size="10.00">thorin::EtaRed</text>
</a>
</g>
</g>
<!-- Node24&#45;&gt;Node25 -->
<g id="edge24" class="edge">
<title>Node24&#45;&gt;Node25</title>
<path fill="none" stroke="midnightblue" d="M1024.2,-81C1039.14,-81 1054.18,-81 1067.38,-81"/>
<polygon fill="midnightblue" stroke="midnightblue" points="1023.9,-77.5 1013.9,-81 1023.9,-84.5 1023.9,-77.5"/>
</g>
<!-- Node26&#45;&gt;Node6 -->
<g id="edge27" class="edge">
<title>Node26&#45;&gt;Node6</title>
<path fill="none" stroke="orange" stroke-dasharray="5,2" d="M674.76,-147.67C691.06,-159.63 714.98,-175.75 738,-186 779.96,-204.69 829.68,-218.27 869.48,-227.26"/>
<polygon fill="orange" stroke="orange" points="676.64,-144.71 666.54,-141.52 672.45,-150.31 676.64,-144.71"/>
<text text-anchor="middle" x="792.5" y="-225" font-family="Helvetica,sans-Serif" font-size="10.00"> &lt; CopyProp, Lam &gt;</text>
</g>
<!-- Node26&#45;&gt;Node8 -->
<g id="edge28" class="edge">
<title>Node26&#45;&gt;Node8</title>
<path fill="none" stroke="orange" stroke-dasharray="5,2" d="M664.23,-150.56C677.63,-174.27 704.01,-214.88 738,-237 779.31,-263.88 833.64,-277.15 875.78,-283.69"/>
<polygon fill="orange" stroke="orange" points="667.16,-148.64 659.3,-141.54 661.02,-151.99 667.16,-148.64"/>
<text text-anchor="middle" x="792.5" y="-281" font-family="Helvetica,sans-Serif" font-size="10.00"> &lt; EtaExp, Lam &gt;</text>
</g>
<!-- Node26&#45;&gt;Node10 -->
<g id="edge30" class="edge">
<title>Node26&#45;&gt;Node10</title>
<path fill="none" stroke="orange" stroke-dasharray="5,2" d="M727.8,-130.66C763.75,-130.44 807.67,-130.82 847,-133 853.59,-133.36 860.43,-133.86 867.27,-134.44"/>
<polygon fill="orange" stroke="orange" points="727.38,-127.16 717.4,-130.74 727.43,-134.16 727.38,-127.16"/>
<text text-anchor="middle" x="792.5" y="-136" font-family="Helvetica,sans-Serif" font-size="10.00"> &lt; SSAConstr, Lam &gt;</text>
</g>
<!-- Node26&#45;&gt;Node12 -->
<g id="edge31" class="edge">
<title>Node26&#45;&gt;Node12</title>
<path fill="none" stroke="orange" stroke-dasharray="5,2" d="M709.95,-143.59C755.46,-153.11 820.21,-166.64 869.68,-176.99"/>
<polygon fill="orange" stroke="orange" points="710.48,-140.13 699.98,-141.51 709.05,-146.98 710.48,-140.13"/>
<text text-anchor="middle" x="792.5" y="-174" font-family="Helvetica,sans-Serif" font-size="10.00"> &lt; TailRecElim, Lam &gt;</text>
</g>
<!-- Node26&#45;&gt;Node22 -->
<g id="edge26" class="edge">
<title>Node26&#45;&gt;Node22</title>
<path fill="none" stroke="orange" stroke-dasharray="5,2" d="M677.7,-116.8C694.12,-106.45 716.87,-92.88 738,-83 796.48,-55.64 868.24,-32.09 909.04,-19.59"/>
<polygon fill="orange" stroke="orange" points="675.37,-114.14 668.83,-122.47 679.14,-120.03 675.37,-114.14"/>
<text text-anchor="middle" x="792.5" y="-86" font-family="Helvetica,sans-Serif" font-size="10.00"> &lt; BetaRed &gt;</text>
</g>
<!-- Node26&#45;&gt;Node24 -->
<g id="edge29" class="edge">
<title>Node26&#45;&gt;Node24</title>
<path fill="none" stroke="orange" stroke-dasharray="5,2" d="M713.44,-120.56C721.68,-119 730.05,-117.45 738,-116 787.38,-107.02 843.61,-97.4 884.43,-90.52"/>
<polygon fill="orange" stroke="orange" points="712.65,-117.15 703.48,-122.45 713.96,-124.03 712.65,-117.15"/>
<text text-anchor="middle" x="792.5" y="-119" font-family="Helvetica,sans-Serif" font-size="10.00"> &lt; EtaRed &gt;</text>
</g>
</g>
</svg>
