<?xml version="1.0" encoding="UTF-8" standalone="no"?>
<!DOCTYPE svg PUBLIC "-//W3C//DTD SVG 1.1//EN"
 "http://www.w3.org/Graphics/SVG/1.1/DTD/svg11.dtd">
<!-- Generated by graphviz version 2.50.0 (20220203.2022)
 -->
<!-- Title: thorin::Emitter&lt; Value, Type, BB, Child &gt; Pages: 1 -->
<svg width="939pt" height="521pt"
 viewBox="0.00 0.00 939.00 520.50" xmlns="http://www.w3.org/2000/svg" xmlns:xlink="http://www.w3.org/1999/xlink">
<g id="graph0" class="graph" transform="scale(1 1) rotate(0) translate(4 516.5)">
<title>thorin::Emitter&lt; Value, Type, BB, Child &gt;</title>
<!-- Node1 -->
<g id="node1" class="node">
<title>Node1</title>
<g id="a_node1"><a xlink:title=" ">
<polygon fill="#bfbfbf" stroke="black" points="819,-142 819,-172 931,-172 931,-142 819,-142"/>
<text text-anchor="start" x="827" y="-160" font-family="Helvetica,sans-Serif" font-size="10.00">thorin::Emitter&lt; Value,</text>
<text text-anchor="middle" x="875" y="-149" font-family="Helvetica,sans-Serif" font-size="10.00"> Type, BB, Child &gt;</text>
</a>
</g>
</g>
<!-- Node2 -->
<g id="node2" class="node">
<title>Node2</title>
<g id="a_node2"><a xlink:href="classthorin_1_1_world.html" target="_top" xlink:title=" ">
<polygon fill="none" stroke="black" points="195.5,-223.5 195.5,-242.5 265.5,-242.5 265.5,-223.5 195.5,-223.5"/>
<text text-anchor="middle" x="230.5" y="-230.5" font-family="Helvetica,sans-Serif" font-size="10.00">thorin::World</text>
</a>
</g>
</g>
<!-- Node2&#45;&gt;Node1 -->
<g id="edge1" class="edge">
<title>Node2&#45;&gt;Node1</title>
<path fill="none" stroke="#9a32cd" stroke-dasharray="5,2" d="M275.64,-234.78C363.38,-237.56 565.7,-240.17 733,-214 764,-209.15 771.81,-206.53 801,-195 817.21,-188.6 834.55,-179.67 848.26,-172.07"/>
<polygon fill="#9a32cd" stroke="#9a32cd" points="275.63,-231.28 265.52,-234.44 275.39,-238.27 275.63,-231.28"/>
<text text-anchor="middle" x="571.5" y="-234" font-family="Helvetica,sans-Serif" font-size="10.00"> world_</text>
</g>
<!-- Node13 -->
<g id="node13" class="node">
<title>Node13</title>
<g id="a_node13"><a xlink:href="classthorin_1_1_def.html" target="_top" xlink:title=" ">
<polygon fill="none" stroke="black" points="444.5,-324.5 444.5,-343.5 504.5,-343.5 504.5,-324.5 444.5,-324.5"/>
<text text-anchor="middle" x="474.5" y="-331.5" font-family="Helvetica,sans-Serif" font-size="10.00">thorin::Def</text>
</a>
</g>
</g>
<!-- Node2&#45;&gt;Node13 -->
<g id="edge20" class="edge">
<title>Node2&#45;&gt;Node13</title>
<path fill="none" stroke="#9a32cd" stroke-dasharray="5,2" d="M275.35,-243.66C308.47,-252.46 354.62,-266.36 393,-284 418.11,-295.54 444.93,-313.47 460.41,-324.43"/>
<polygon fill="#9a32cd" stroke="#9a32cd" points="276.07,-240.23 265.51,-241.09 274.3,-247 276.07,-240.23"/>
<text text-anchor="middle" x="352" y="-287" font-family="Helvetica,sans-Serif" font-size="10.00"> world_</text>
</g>
<!-- Node3 -->
<g id="node3" class="node">
<title>Node3</title>
<g id="a_node3"><a xlink:href="classthorin_1_1_streamable.html" target="_top" xlink:title=" ">
<polygon fill="none" stroke="black" points="18,-217 18,-247 113,-247 113,-217 18,-217"/>
<text text-anchor="start" x="26" y="-235" font-family="Helvetica,sans-Serif" font-size="10.00">thorin::Streamable</text>
<text text-anchor="middle" x="65.5" y="-224" font-family="Helvetica,sans-Serif" font-size="10.00">&lt; World &gt;</text>
</a>
</g>
</g>
<!-- Node3&#45;&gt;Node2 -->
<g id="edge2" class="edge">
<title>Node3&#45;&gt;Node2</title>
<path fill="none" stroke="midnightblue" d="M123.3,-232.35C147.37,-232.5 174.61,-232.66 195.48,-232.79"/>
<polygon fill="midnightblue" stroke="midnightblue" points="123.23,-228.85 113.21,-232.29 123.19,-235.85 123.23,-228.85"/>
</g>
<!-- Node4 -->
<g id="node4" class="node">
<title>Node4</title>
<g id="a_node4"><a xlink:href="classthorin_1_1_stream.html" target="_top" xlink:title=" ">
<polygon fill="none" stroke="black" points="630.5,-185.5 630.5,-204.5 707.5,-204.5 707.5,-185.5 630.5,-185.5"/>
<text text-anchor="middle" x="669" y="-192.5" font-family="Helvetica,sans-Serif" font-size="10.00">thorin::Stream</text>
</a>
</g>
</g>
<!-- Node4&#45;&gt;Node1 -->
<g id="edge3" class="edge">
<title>Node4&#45;&gt;Node1</title>
<path fill="none" stroke="#9a32cd" stroke-dasharray="5,2" d="M717.52,-187C742.42,-182.72 773.39,-177.26 801,-172 806.72,-170.91 812.68,-169.74 818.63,-168.55"/>
<polygon fill="#9a32cd" stroke="#9a32cd" points="716.87,-183.56 707.6,-188.69 718.05,-190.46 716.87,-183.56"/>
<text text-anchor="middle" x="776" y="-183" font-family="Helvetica,sans-Serif" font-size="10.00"> stream_</text>
</g>
<!-- Node5 -->
<g id="node5" class="node">
<title>Node5</title>
<g id="a_node5"><a xlink:href="classthorin_1_1_scheduler.html" target="_top" xlink:title=" ">
<polygon fill="none" stroke="black" points="624.5,-147.5 624.5,-166.5 713.5,-166.5 713.5,-147.5 624.5,-147.5"/>
<text text-anchor="middle" x="669" y="-154.5" font-family="Helvetica,sans-Serif" font-size="10.00">thorin::Scheduler</text>
</a>
</g>
</g>
<!-- Node5&#45;&gt;Node1 -->
<g id="edge4" class="edge">
<title>Node5&#45;&gt;Node1</title>
<path fill="none" stroke="#9a32cd" stroke-dasharray="5,2" d="M723.59,-157C752.95,-157 789.28,-157 818.88,-157"/>
<polygon fill="#9a32cd" stroke="#9a32cd" points="723.51,-153.5 713.51,-157 723.51,-160.5 723.51,-153.5"/>
<text text-anchor="middle" x="776" y="-160" font-family="Helvetica,sans-Serif" font-size="10.00"> scheduler_</text>
</g>
<!-- Node6 -->
<g id="node6" class="node">
<title>Node6</title>
<g id="a_node6"><a xlink:href="classthorin_1_1_hash_map.html" target="_top" xlink:title=" ">
<polygon fill="none" stroke="black" points="605,-109.5 605,-128.5 733,-128.5 733,-109.5 605,-109.5"/>
<text text-anchor="middle" x="669" y="-116.5" font-family="Helvetica,sans-Serif" font-size="10.00">thorin::HashMap&lt; Value &gt;</text>
</a>
</g>
</g>
<!-- Node6&#45;&gt;Node1 -->
<g id="edge5" class="edge">
<title>Node6&#45;&gt;Node1</title>
<path fill="none" stroke="#9a32cd" stroke-dasharray="5,2" d="M736.45,-130.28C757.15,-133.9 780.04,-138.01 801,-142 806.72,-143.09 812.68,-144.26 818.63,-145.45"/>
<polygon fill="#9a32cd" stroke="#9a32cd" points="736.94,-126.82 726.49,-128.55 735.74,-133.71 736.94,-126.82"/>
<text text-anchor="middle" x="776" y="-145" font-family="Helvetica,sans-Serif" font-size="10.00"> defs_</text>
</g>
<!-- Node7 -->
<g id="node7" class="node">
<title>Node7</title>
<g id="a_node7"><a xlink:href="classthorin_1_1detail_1_1_hash_table.html" target="_top" xlink:title=" ">
<polygon fill="none" stroke="black" points="411,-120.5 411,-161.5 538,-161.5 538,-120.5 411,-120.5"/>
<text text-anchor="start" x="419" y="-149.5" font-family="Helvetica,sans-Serif" font-size="10.00">thorin::detail::HashTable</text>
<text text-anchor="start" x="419" y="-138.5" font-family="Helvetica,sans-Serif" font-size="10.00">&lt; Value, T, typename Key</text>
<text text-anchor="middle" x="474.5" y="-127.5" font-family="Helvetica,sans-Serif" font-size="10.00">::Hash, 4 &gt;</text>
</a>
</g>
</g>
<!-- Node7&#45;&gt;Node6 -->
<g id="edge6" class="edge">
<title>Node7&#45;&gt;Node6</title>
<path fill="none" stroke="midnightblue" d="M548.2,-132.69C566.89,-130.56 586.84,-128.28 604.99,-126.2"/>
<polygon fill="midnightblue" stroke="midnightblue" points="547.8,-129.21 538.27,-133.83 548.6,-136.17 547.8,-129.21"/>
</g>
<!-- Node8 -->
<g id="node8" class="node">
<title>Node8</title>
<g id="a_node8"><a xlink:href="classthorin_1_1_hash_map.html" target="_top" xlink:title=" ">
<polygon fill="none" stroke="black" points="606.5,-71.5 606.5,-90.5 731.5,-90.5 731.5,-71.5 606.5,-71.5"/>
<text text-anchor="middle" x="669" y="-78.5" font-family="Helvetica,sans-Serif" font-size="10.00">thorin::HashMap&lt; Type &gt;</text>
</a>
</g>
</g>
<!-- Node8&#45;&gt;Node1 -->
<g id="edge7" class="edge">
<title>Node8&#45;&gt;Node1</title>
<path fill="none" stroke="#9a32cd" stroke-dasharray="5,2" d="M722.14,-92.97C746.5,-99.26 775.66,-107.79 801,-118 817.53,-124.66 835.17,-134.02 848.97,-141.9"/>
<polygon fill="#9a32cd" stroke="#9a32cd" points="722.91,-89.56 712.36,-90.5 721.2,-96.34 722.91,-89.56"/>
<text text-anchor="middle" x="776" y="-121" font-family="Helvetica,sans-Serif" font-size="10.00"> types_</text>
</g>
<!-- Node9 -->
<g id="node9" class="node">
<title>Node9</title>
<g id="a_node9"><a xlink:href="classthorin_1_1detail_1_1_hash_table.html" target="_top" xlink:title=" ">
<polygon fill="none" stroke="black" points="413,-60.5 413,-101.5 536,-101.5 536,-60.5 413,-60.5"/>
<text text-anchor="start" x="421" y="-89.5" font-family="Helvetica,sans-Serif" font-size="10.00">thorin::detail::HashTable</text>
<text text-anchor="start" x="421" y="-78.5" font-family="Helvetica,sans-Serif" font-size="10.00">&lt; Type, T, typename Key</text>
<text text-anchor="middle" x="474.5" y="-67.5" font-family="Helvetica,sans-Serif" font-size="10.00">::Hash, 4 &gt;</text>
</a>
</g>
</g>
<!-- Node9&#45;&gt;Node8 -->
<g id="edge8" class="edge">
<title>Node9&#45;&gt;Node8</title>
<path fill="none" stroke="midnightblue" d="M546.28,-81C565.98,-81 587.21,-81 606.34,-81"/>
<polygon fill="midnightblue" stroke="midnightblue" points="546.14,-77.5 536.14,-81 546.14,-84.5 546.14,-77.5"/>
</g>
<!-- Node10 -->
<g id="node10" class="node">
<title>Node10</title>
<g id="a_node10"><a xlink:href="classthorin_1_1_hash_map.html" target="_top" xlink:title=" ">
<polygon fill="none" stroke="black" points="610.5,-22.5 610.5,-41.5 727.5,-41.5 727.5,-22.5 610.5,-22.5"/>
<text text-anchor="middle" x="669" y="-29.5" font-family="Helvetica,sans-Serif" font-size="10.00">thorin::HashMap&lt; BB &gt;</text>
</a>
</g>
</g>
<!-- Node10&#45;&gt;Node1 -->
<g id="edge9" class="edge">
<title>Node10&#45;&gt;Node1</title>
<path fill="none" stroke="#9a32cd" stroke-dasharray="5,2" d="M712.19,-44.79C738.9,-53.98 773.47,-67.92 801,-86 825.08,-101.82 848.09,-126.28 861.63,-141.96"/>
<polygon fill="#9a32cd" stroke="#9a32cd" points="712.96,-41.36 702.37,-41.51 710.74,-48 712.96,-41.36"/>
<text text-anchor="middle" x="776" y="-89" font-family="Helvetica,sans-Serif" font-size="10.00"> lam2bb_</text>
</g>
<!-- Node11 -->
<g id="node11" class="node">
<title>Node11</title>
<g id="a_node11"><a xlink:href="classthorin_1_1detail_1_1_hash_table.html" target="_top" xlink:title=" ">
<polygon fill="none" stroke="black" points="414.5,-0.5 414.5,-41.5 534.5,-41.5 534.5,-0.5 414.5,-0.5"/>
<text text-anchor="start" x="422.5" y="-29.5" font-family="Helvetica,sans-Serif" font-size="10.00">thorin::detail::HashTable</text>
<text text-anchor="start" x="422.5" y="-18.5" font-family="Helvetica,sans-Serif" font-size="10.00">&lt; BB, T, typename Key::</text>
<text text-anchor="middle" x="474.5" y="-7.5" font-family="Helvetica,sans-Serif" font-size="10.00">Hash, 4 &gt;</text>
</a>
</g>
</g>
<!-- Node11&#45;&gt;Node10 -->
<g id="edge10" class="edge">
<title>Node11&#45;&gt;Node10</title>
<path fill="none" stroke="midnightblue" d="M544.63,-24.95C566.18,-26.18 589.7,-27.53 610.37,-28.71"/>
<polygon fill="midnightblue" stroke="midnightblue" points="544.75,-21.45 534.56,-24.38 544.35,-28.44 544.75,-21.45"/>
</g>
<!-- Node12 -->
<g id="node12" class="node">
<title>Node12</title>
<g id="a_node12"><a xlink:href="classthorin_1_1_lam.html" target="_top" xlink:title=" ">
<polygon fill="none" stroke="black" points="636.5,-292.5 636.5,-311.5 701.5,-311.5 701.5,-292.5 636.5,-292.5"/>
<text text-anchor="middle" x="669" y="-299.5" font-family="Helvetica,sans-Serif" font-size="10.00">thorin::Lam</text>
</a>
</g>
</g>
<!-- Node12&#45;&gt;Node1 -->
<g id="edge11" class="edge">
<title>Node12&#45;&gt;Node1</title>
<path fill="none" stroke="#9a32cd" stroke-dasharray="5,2" d="M711.21,-290.08C738.44,-280.89 773.96,-266.3 801,-246 828.81,-225.13 852.54,-191.51 864.89,-172.12"/>
<polygon fill="#9a32cd" stroke="#9a32cd" points="710,-286.79 701.58,-293.22 712.17,-293.44 710,-286.79"/>
<text text-anchor="middle" x="776" y="-276" font-family="Helvetica,sans-Serif" font-size="10.00"> entry_</text>
</g>
<!-- Node13&#45;&gt;Node12 -->
<g id="edge12" class="edge">
<title>Node13&#45;&gt;Node12</title>
<path fill="none" stroke="midnightblue" d="M514.84,-327.46C550.69,-321.5 602.98,-312.81 636.24,-307.28"/>
<polygon fill="midnightblue" stroke="midnightblue" points="514.03,-324.05 504.74,-329.14 515.18,-330.95 514.03,-324.05"/>
</g>
<!-- Node13&#45;&gt;Node13 -->
<g id="edge19" class="edge">
<title>Node13&#45;&gt;Node13</title>
<path fill="none" stroke="#9a32cd" stroke-dasharray="5,2" d="M456.72,-353.4C457.91,-358.31 463.84,-362 474.5,-362 491.56,-362 496.49,-352.57 489.3,-343.76"/>
<polygon fill="#9a32cd" stroke="#9a32cd" points="460.09,-354.34 459.7,-343.76 453.41,-352.28 460.09,-354.34"/>
<text text-anchor="middle" x="474.5" y="-387" font-family="Helvetica,sans-Serif" font-size="10.00"> dbg_</text>
<text text-anchor="middle" x="474.5" y="-376" font-family="Helvetica,sans-Serif" font-size="10.00">substitute_</text>
<text text-anchor="middle" x="474.5" y="-365" font-family="Helvetica,sans-Serif" font-size="10.00">type_</text>
</g>
<!-- Node14 -->
<g id="node14" class="node">
<title>Node14</title>
<g id="a_node14"><a xlink:href="classthorin_1_1_runtime_cast.html" target="_top" xlink:title=" ">
<polygon fill="none" stroke="black" points="180,-482 180,-512 281,-512 281,-482 180,-482"/>
<text text-anchor="start" x="188" y="-500" font-family="Helvetica,sans-Serif" font-size="10.00">thorin::RuntimeCast</text>
<text text-anchor="middle" x="230.5" y="-489" font-family="Helvetica,sans-Serif" font-size="10.00">&lt; Def &gt;</text>
</a>
</g>
</g>
<!-- Node14&#45;&gt;Node13 -->
<g id="edge13" class="edge">
<title>Node14&#45;&gt;Node13</title>
<path fill="none" stroke="midnightblue" d="M281.94,-477.98C285.71,-476.35 289.43,-474.69 293,-473 339.06,-451.24 352.62,-448.05 393,-417 422.92,-393.99 452.31,-360.02 465.81,-343.59"/>
<polygon fill="midnightblue" stroke="midnightblue" points="280.41,-474.82 272.53,-481.9 283.1,-481.28 280.41,-474.82"/>
</g>
<!-- Node15 -->
<g id="node15" class="node">
<title>Node15</title>
<g id="a_node15"><a xlink:href="classthorin_1_1_streamable.html" target="_top" xlink:title=" ">
<polygon fill="none" stroke="black" points="183,-433 183,-463 278,-463 278,-433 183,-433"/>
<text text-anchor="start" x="191" y="-451" font-family="Helvetica,sans-Serif" font-size="10.00">thorin::Streamable</text>
<text text-anchor="middle" x="230.5" y="-440" font-family="Helvetica,sans-Serif" font-size="10.00">&lt; Def &gt;</text>
</a>
</g>
</g>
<!-- Node15&#45;&gt;Node13 -->
<g id="edge14" class="edge">
<title>Node15&#45;&gt;Node13</title>
<path fill="none" stroke="midnightblue" d="M287.8,-430.17C319.45,-419.31 359.25,-404.22 393,-387 418.34,-374.07 445.52,-354.94 460.93,-343.55"/>
<polygon fill="midnightblue" stroke="midnightblue" points="286.61,-426.88 278.26,-433.4 288.85,-433.51 286.61,-426.88"/>
</g>
<!-- Node16 -->
<g id="node16" class="node">
<title>Node16</title>
<g id="a_node16"><a xlink:href="classthorin_1_1_tagged_ptr.html" target="_top" xlink:title=" ">
<polygon fill="none" stroke="black" points="168,-373.5 168,-414.5 293,-414.5 293,-373.5 168,-373.5"/>
<text text-anchor="start" x="176" y="-402.5" font-family="Helvetica,sans-Serif" font-size="10.00">thorin::TaggedPtr&lt;</text>
<text text-anchor="start" x="176" y="-391.5" font-family="Helvetica,sans-Serif" font-size="10.00"> std::remove_pointer</text>
<text text-anchor="middle" x="230.5" y="-380.5" font-family="Helvetica,sans-Serif" font-size="10.00">_t&lt; NormalizeFn &gt;, u16 &gt;</text>
</a>
</g>
</g>
<!-- Node16&#45;&gt;Node13 -->
<g id="edge15" class="edge">
<title>Node16&#45;&gt;Node13</title>
<path fill="none" stroke="#9a32cd" stroke-dasharray="5,2" d="M303.06,-376.26C350.2,-364.57 409.43,-349.89 444.21,-341.26"/>
<polygon fill="#9a32cd" stroke="#9a32cd" points="302.06,-372.9 293.19,-378.7 303.74,-379.69 302.06,-372.9"/>
<text text-anchor="middle" x="352" y="-375" font-family="Helvetica,sans-Serif" font-size="10.00"> normalizer_depth_</text>
</g>
<!-- Node17 -->
<g id="node17" class="node">
<title>Node17</title>
<g id="a_node17"><a xlink:href="classthorin_1_1_tagged_ptr.html" target="_top" xlink:title=" ">
<polygon fill="none" stroke="black" points="178.5,-313.5 178.5,-354.5 282.5,-354.5 282.5,-313.5 178.5,-313.5"/>
<text text-anchor="start" x="186.5" y="-342.5" font-family="Helvetica,sans-Serif" font-size="10.00">thorin::TaggedPtr&lt;</text>
<text text-anchor="start" x="186.5" y="-331.5" font-family="Helvetica,sans-Serif" font-size="10.00"> const thorin::Axiom,</text>
<text text-anchor="middle" x="230.5" y="-320.5" font-family="Helvetica,sans-Serif" font-size="10.00"> u16 &gt;</text>
</a>
</g>
</g>
<!-- Node17&#45;&gt;Node13 -->
<g id="edge16" class="edge">
<title>Node17&#45;&gt;Node13</title>
<path fill="none" stroke="#9a32cd" stroke-dasharray="5,2" d="M292.6,-334C341.1,-334 406.78,-334 444.19,-334"/>
<polygon fill="#9a32cd" stroke="#9a32cd" points="292.53,-330.5 282.53,-334 292.53,-337.5 292.53,-330.5"/>
<text text-anchor="middle" x="352" y="-337" font-family="Helvetica,sans-Serif" font-size="10.00"> axiom_depth_</text>
</g>
<!-- Node18 -->
<g id="node18" class="node">
<title>Node18</title>
<g id="a_node18"><a xlink:href="classthorin_1_1_hash_set.html" target="_top" xlink:title=" ">
<polygon fill="none" stroke="black" points="174,-265 174,-295 287,-295 287,-265 174,-265"/>
<text text-anchor="start" x="182" y="-283" font-family="Helvetica,sans-Serif" font-size="10.00">thorin::HashSet&lt; Use,</text>
<text text-anchor="middle" x="230.5" y="-272" font-family="Helvetica,sans-Serif" font-size="10.00"> UseHash &gt;</text>
</a>
</g>
</g>
<!-- Node18&#45;&gt;Node13 -->
<g id="edge17" class="edge">
<title>Node18&#45;&gt;Node13</title>
<path fill="none" stroke="#9a32cd" stroke-dasharray="5,2" d="M297.03,-294.62C345.09,-305.35 408.04,-319.39 444.31,-327.49"/>
<polygon fill="#9a32cd" stroke="#9a32cd" points="297.54,-291.15 287.02,-292.39 296.02,-297.98 297.54,-291.15"/>
<text text-anchor="middle" x="352" y="-317" font-family="Helvetica,sans-Serif" font-size="10.00"> uses_</text>
</g>
<!-- Node19 -->
<g id="node19" class="node">
<title>Node19</title>
<g id="a_node19"><a xlink:href="classthorin_1_1detail_1_1_hash_table.html" target="_top" xlink:title=" ">
<polygon fill="none" stroke="black" points="0,-266 0,-296 131,-296 131,-266 0,-266"/>
<text text-anchor="start" x="8" y="-284" font-family="Helvetica,sans-Serif" font-size="10.00">thorin::detail::HashTable</text>
<text text-anchor="middle" x="65.5" y="-273" font-family="Helvetica,sans-Serif" font-size="10.00">&lt; Use, void, UseHash, 4 &gt;</text>
</a>
</g>
</g>
<!-- Node19&#45;&gt;Node18 -->
<g id="edge18" class="edge">
<title>Node19&#45;&gt;Node18</title>
<path fill="none" stroke="midnightblue" d="M141.68,-280.54C152.48,-280.47 163.43,-280.41 173.77,-280.34"/>
<polygon fill="midnightblue" stroke="midnightblue" points="141.37,-277.04 131.39,-280.6 141.41,-284.04 141.37,-277.04"/>
</g>
</g>
</svg>
