<?xml version="1.0" encoding="UTF-8" standalone="no"?>
<!DOCTYPE svg PUBLIC "-//W3C//DTD SVG 1.1//EN"
 "http://www.w3.org/Graphics/SVG/1.1/DTD/svg11.dtd">
<!-- Generated by graphviz version 2.43.0 (0)
 -->
<!-- Title: thorin::fe::Lexer Pages: 1 -->
<svg width="139pt" height="160pt"
 viewBox="0.00 0.00 139.00 160.00" xmlns="http://www.w3.org/2000/svg" xmlns:xlink="http://www.w3.org/1999/xlink">
<g id="graph0" class="graph" transform="scale(1 1) rotate(0) translate(4 156)">
<title>thorin::fe::Lexer</title>
<!-- Node1 -->
<g id="node1" class="node">
<title>Node1</title>
<g id="a_node1"><a xlink:title=" ">
<polygon fill="#999999" stroke="#666666" points="112,-19 19,-19 19,0 112,0 112,-19"/>
<text text-anchor="middle" x="65.5" y="-7" font-family="Helvetica,sans-Serif" font-size="10.00">thorin::fe::Lexer</text>
</a>
</g>
</g>
<!-- Node2 -->
<g id="node2" class="node">
<title>Node2</title>
<g id="a_node2"><a xlink:href="classthorin_1_1utf8_1_1Lexer.html" target="_top" xlink:title=" ">
<polygon fill="white" stroke="#666666" points="131,-75 0,-75 0,-56 131,-56 131,-75"/>
<text text-anchor="middle" x="65.5" y="-63" font-family="Helvetica,sans-Serif" font-size="10.00">thorin::utf8::Lexer&lt; 3 &gt;</text>
</a>
</g>
</g>
<!-- Node2&#45;&gt;Node1 -->
<g id="edge1" class="edge">
<title>Node2&#45;&gt;Node1</title>
<path fill="none" stroke="#63b8ff" d="M65.5,-45.3C65.5,-36.41 65.5,-26.28 65.5,-19.25"/>
<polygon fill="#63b8ff" stroke="#63b8ff" points="62,-45.58 65.5,-55.58 69,-45.58 62,-45.58"/>
</g>
<!-- Node3 -->
<g id="node3" class="node">
<title>Node3</title>
<g id="a_node3"><a xlink:href="classthorin_1_1utf8_1_1Lexer.html" target="_top" xlink:title=" ">
<polygon fill="white" stroke="#666666" points="117,-152 14,-152 14,-122 117,-122 117,-152"/>
<text text-anchor="start" x="22" y="-140" font-family="Helvetica,sans-Serif" font-size="10.00">thorin::utf8::Lexer</text>
<text text-anchor="middle" x="65.5" y="-129" font-family="Helvetica,sans-Serif" font-size="10.00">&lt; Max_Ahead &gt;</text>
</a>
</g>
</g>
<!-- Node3&#45;&gt;Node2 -->
<g id="edge2" class="edge">
<title>Node3&#45;&gt;Node2</title>
<path fill="none" stroke="orange" stroke-dasharray="5,2" d="M65.5,-111.56C65.5,-98.95 65.5,-84.35 65.5,-75.27"/>
<polygon fill="orange" stroke="orange" points="62,-111.94 65.5,-121.94 69,-111.94 62,-111.94"/>
<text text-anchor="middle" x="81.5" y="-96" font-family="Helvetica,sans-Serif" font-size="10.00"> &lt; 3 &gt;</text>
</g>
</g>
</svg>
