<?xml version="1.0" encoding="UTF-8" standalone="no"?>
<!DOCTYPE svg PUBLIC "-//W3C//DTD SVG 1.1//EN"
 "http://www.w3.org/Graphics/SVG/1.1/DTD/svg11.dtd">
<!-- Generated by graphviz version 2.50.0 (20220203.2022)
 -->
<!-- Title: thorin::LoopTree&lt; forward &gt;::Head Pages: 1 -->
<svg width="250pt" height="173pt"
 viewBox="0.00 0.00 250.00 173.00" xmlns="http://www.w3.org/2000/svg" xmlns:xlink="http://www.w3.org/1999/xlink">
<g id="graph0" class="graph" transform="scale(1 1) rotate(0) translate(4 169)">
<title>thorin::LoopTree&lt; forward &gt;::Head</title>
<!-- Node1 -->
<g id="node1" class="node">
<title>Node1</title>
<g id="a_node1"><a xlink:title="A Head owns further nodes as children.">
<polygon fill="#bfbfbf" stroke="black" points="52,-0.5 52,-30.5 179,-30.5 179,-0.5 52,-0.5"/>
<text text-anchor="start" x="60" y="-18.5" font-family="Helvetica,sans-Serif" font-size="10.00">thorin::LoopTree&lt; forward</text>
<text text-anchor="middle" x="115.5" y="-7.5" font-family="Helvetica,sans-Serif" font-size="10.00"> &gt;::Head</text>
</a>
</g>
</g>
<!-- Node2 -->
<g id="node2" class="node">
<title>Node2</title>
<g id="a_node2"><a xlink:href="classthorin_1_1_loop_tree_1_1_base.html" target="_top" xlink:title=" ">
<polygon fill="none" stroke="black" points="52,-67.5 52,-97.5 179,-97.5 179,-67.5 52,-67.5"/>
<text text-anchor="start" x="60" y="-85.5" font-family="Helvetica,sans-Serif" font-size="10.00">thorin::LoopTree&lt; forward</text>
<text text-anchor="middle" x="115.5" y="-74.5" font-family="Helvetica,sans-Serif" font-size="10.00"> &gt;::Base</text>
</a>
</g>
</g>
<!-- Node2&#45;&gt;Node1 -->
<g id="edge1" class="edge">
<title>Node2&#45;&gt;Node1</title>
<path fill="none" stroke="midnightblue" d="M115.5,-57.11C115.5,-48.15 115.5,-38.32 115.5,-30.58"/>
<polygon fill="midnightblue" stroke="midnightblue" points="112,-57.4 115.5,-67.4 119,-57.4 112,-57.4"/>
</g>
<!-- Node3 -->
<g id="node3" class="node">
<title>Node3</title>
<g id="a_node3"><a xlink:href="classthorin_1_1_runtime_cast.html" target="_top" xlink:title="Provides a dynamic_cast &#45;like feature without resorting to RTTI.">
<polygon fill="none" stroke="black" points="0,-134.5 0,-164.5 101,-164.5 101,-134.5 0,-134.5"/>
<text text-anchor="start" x="8" y="-152.5" font-family="Helvetica,sans-Serif" font-size="10.00">thorin::RuntimeCast</text>
<text text-anchor="middle" x="50.5" y="-141.5" font-family="Helvetica,sans-Serif" font-size="10.00">&lt; Base &gt;</text>
</a>
</g>
</g>
<!-- Node3&#45;&gt;Node2 -->
<g id="edge2" class="edge">
<title>Node3&#45;&gt;Node2</title>
<path fill="none" stroke="midnightblue" d="M71.69,-127.31C81.44,-117.56 92.74,-106.26 101.42,-97.58"/>
<polygon fill="midnightblue" stroke="midnightblue" points="69.2,-124.85 64.6,-134.4 74.15,-129.8 69.2,-124.85"/>
</g>
<!-- Node4 -->
<g id="node4" class="node">
<title>Node4</title>
<g id="a_node4"><a xlink:href="classthorin_1_1_streamable.html" target="_top" xlink:title=" ">
<polygon fill="none" stroke="black" points="119,-134.5 119,-164.5 242,-164.5 242,-134.5 119,-134.5"/>
<text text-anchor="start" x="127" y="-152.5" font-family="Helvetica,sans-Serif" font-size="10.00">thorin::Streamable</text>
<text text-anchor="middle" x="180.5" y="-141.5" font-family="Helvetica,sans-Serif" font-size="10.00">&lt; LoopTree&lt; forward &gt; &gt;</text>
</a>
</g>
</g>
<!-- Node4&#45;&gt;Node2 -->
<g id="edge3" class="edge">
<title>Node4&#45;&gt;Node2</title>
<path fill="none" stroke="midnightblue" d="M159.31,-127.31C149.56,-117.56 138.26,-106.26 129.58,-97.58"/>
<polygon fill="midnightblue" stroke="midnightblue" points="156.85,-129.8 166.4,-134.4 161.8,-124.85 156.85,-129.8"/>
</g>
</g>
</svg>
