<?xml version="1.0" encoding="UTF-8" standalone="no"?>
<!DOCTYPE svg PUBLIC "-//W3C//DTD SVG 1.1//EN"
 "http://www.w3.org/Graphics/SVG/1.1/DTD/svg11.dtd">
<!-- Generated by graphviz version 2.43.0 (0)
 -->
<!-- Title: mim::plug::mem::pass::CopyProp Pages: 1 -->
<!--zoomable 484 -->

<svg id="main" version="1.1" xmlns="http://www.w3.org/2000/svg" xmlns:xlink="http://www.w3.org/1999/xlink" xml:space="preserve" onload="init(evt)">

<style type="text/css"><![CDATA[
.node, .edge {opacity: 0.7;}
.node.selected, .edge.selected {opacity: 1;}
.edge:hover path { stroke: red; }
.edge:hover polygon { stroke: red; fill: red; }
]]></style>

<defs>
  <circle id="rim" cx="0" cy="0" r="7"/>
  <circle id="rim2" cx="0" cy="0" r="3.5"/>
  <g id="zoomPlus">
    <use xlink:href="#rim" fill="#404040"><set attributeName="fill" to="#808080" begin="zoomplus.mouseover" end="zoomplus.mouseout"/></use>
    <path d="M-4,0h8M0,-4v8" fill="none" stroke="white" stroke-width="1.5" pointer-events="none"/>
  </g>
  <g id="zoomMin">
    <use xlink:href="#rim" fill="#404040"><set attributeName="fill" to="#808080" begin="zoomminus.mouseover" end="zoomminus.mouseout"/></use>
    <path d="M-4,0h8" fill="none" stroke="white" stroke-width="1.5" pointer-events="none"/>
  </g>
  <g id="arrowUp" transform="translate(30 24)">
    <use xlink:href="#rim"/>
    <path pointer-events="none" fill="none" stroke="white" stroke-width="1.5" d="M0,-3.0v7 M-2.5,-0.5L0,-3.0L2.5,-0.5"/>
  </g>
  <g id="arrowRight" transform="rotate(90) translate(36 -43)">
    <use xlink:href="#rim"/>
    <path pointer-events="none" fill="none" stroke="white" stroke-width="1.5" d="M0,-3.0v7 M-2.5,-0.5L0,-3.0L2.5,-0.5"/>
  </g>
  <g id="arrowDown" transform="rotate(180) translate(-30 -48)">
    <use xlink:href="#rim"/>
    <path pointer-events="none" fill="none" stroke="white" stroke-width="1.5" d="M0,-3.0v7 M-2.5,-0.5L0,-3.0L2.5,-0.5"/>
  </g>
  <g id="arrowLeft" transform="rotate(270) translate(-36 17)">
    <use xlink:href="#rim"/>
    <path pointer-events="none" fill="none" stroke="white" stroke-width="1.5" d="M0,-3.0v7 M-2.5,-0.5L0,-3.0L2.5,-0.5"/>
  </g>
  <g id="resetDef">
    <use xlink:href="#rim2" fill="#404040"><set attributeName="fill" to="#808080" begin="reset.mouseover" end="reset.mouseout"/></use>
  </g>
</defs>
<script type="application/ecmascript">
var viewWidth = 306;
var viewHeight = 484;
var sectionId = 'dynsection-0';
</script>
<script type="application/ecmascript" xlink:href="svg.min.js"/>
<svg id="graph" class="graph">
<g id="viewport">
<title>mim::plug::mem::pass::CopyProp</title>
<!-- Node1 -->
<g id="Node000001" class="node">
<title>Node1</title>
<g id="a_Node000001"><a xlink:title="This FPPass is similar to sparse conditional constant propagation (SCCP).">
<polygon fill="#999999" stroke="#666666" points="185,-30 59,-30 59,0 185,0 185,-30"/>
<text text-anchor="start" x="67" y="-18" font-family="Helvetica,sans-Serif" font-size="10.00">mim::plug::mem::pass</text>
<text text-anchor="middle" x="122" y="-7" font-family="Helvetica,sans-Serif" font-size="10.00">::CopyProp</text>
</a>
</g>
</g>
<!-- Node2 -->
<g id="Node000002" class="node">
<title>Node2</title>
<g id="a_Node000002"><a xlink:href="classmim_1_1FPPass.html" target="_top" xlink:title=" ">
<polygon fill="white" stroke="#666666" points="192,-97 52,-97 52,-67 192,-67 192,-97"/>
<text text-anchor="start" x="60" y="-85" font-family="Helvetica,sans-Serif" font-size="10.00">mim::FPPass&lt; CopyProp,</text>
<text text-anchor="middle" x="122" y="-74" font-family="Helvetica,sans-Serif" font-size="10.00"> Lam &gt;</text>
</a>
</g>
</g>
<!-- Node2&#45;&gt;Node1 -->
<g id="edge1_Node000001_Node000002" class="edge">
<title>Node2&#45;&gt;Node1</title>
<g id="a_edge1_Node000001_Node000002"><a xlink:title=" ">
<path fill="none" stroke="#63b8ff" d="M122,-56.61C122,-47.65 122,-37.82 122,-30.08"/>
<polygon fill="#63b8ff" stroke="#63b8ff" points="118.5,-56.9 122,-66.9 125.5,-56.9 118.5,-56.9"/>
</a>
</g>
</g>
<!-- Node3 -->
<g id="Node000003" class="node">
<title>Node3</title>
<g id="a_Node000003"><a xlink:href="classmim_1_1RWPass.html" target="_top" xlink:title=" ">
<polygon fill="white" stroke="#666666" points="144,-236 0,-236 0,-206 144,-206 144,-236"/>
<text text-anchor="start" x="8" y="-224" font-family="Helvetica,sans-Serif" font-size="10.00">mim::RWPass&lt; CopyProp,</text>
<text text-anchor="middle" x="72" y="-213" font-family="Helvetica,sans-Serif" font-size="10.00"> Lam &gt;</text>
</a>
</g>
</g>
<!-- Node3&#45;&gt;Node2 -->
<g id="edge2_Node000002_Node000003" class="edge">
<title>Node3&#45;&gt;Node2</title>
<g id="a_edge2_Node000002_Node000003"><a xlink:title=" ">
<path fill="none" stroke="#63b8ff" d="M80.67,-196.25C91.08,-167.71 108.23,-120.74 116.79,-97.27"/>
<polygon fill="#63b8ff" stroke="#63b8ff" points="77.3,-195.26 77.16,-205.85 83.88,-197.66 77.3,-195.26"/>
</a>
</g>
</g>
<!-- Node4 -->
<g id="Node000004" class="node">
<title>Node4</title>
<g id="a_Node000004"><a xlink:href="classmim_1_1Pass.html" target="_top" xlink:title="All Passes that want to be registered in the PassMan must implement this interface.">
<polygon fill="white" stroke="#666666" points="204.5,-364 137.5,-364 137.5,-345 204.5,-345 204.5,-364"/>
<text text-anchor="middle" x="171" y="-352" font-family="Helvetica,sans-Serif" font-size="10.00">mim::Pass</text>
</a>
</g>
</g>
<!-- Node4&#45;&gt;Node3 -->
<g id="edge3_Node000003_Node000004" class="edge">
<title>Node4&#45;&gt;Node3</title>
<g id="a_edge3_Node000003_Node000004"><a xlink:title=" ">
<path fill="none" stroke="#63b8ff" d="M144.05,-340.13C129.43,-332.07 111.61,-320.88 98,-308 83.4,-294.19 78.06,-290.16 72,-271 68.41,-259.64 68.75,-246.05 69.79,-236.07"/>
<polygon fill="#63b8ff" stroke="#63b8ff" points="142.65,-343.35 153.12,-344.96 145.94,-337.17 142.65,-343.35"/>
</a>
</g>
</g>
<!-- Node7 -->
<g id="Node000007" class="node">
<title>Node7</title>
<g id="a_Node000007"><a xlink:href="classmim_1_1RWPass.html" target="_top" xlink:title="Inherit from this class using CRTP, if your Pass does not need state and a fixed&#45;point iteration.">
<polygon fill="white" stroke="#666666" points="234.5,-308 107.5,-308 107.5,-289 234.5,-289 234.5,-308"/>
<text text-anchor="middle" x="171" y="-296" font-family="Helvetica,sans-Serif" font-size="10.00">mim::RWPass&lt; P, M &gt;</text>
</a>
</g>
</g>
<!-- Node4&#45;&gt;Node7 -->
<g id="edge7_Node000007_Node000004" class="edge">
<title>Node4&#45;&gt;Node7</title>
<g id="a_edge7_Node000007_Node000004"><a xlink:title=" ">
<path fill="none" stroke="#63b8ff" d="M171,-334.3C171,-325.41 171,-315.28 171,-308.25"/>
<polygon fill="#63b8ff" stroke="#63b8ff" points="167.5,-334.58 171,-344.58 174.5,-334.58 167.5,-334.58"/>
</a>
</g>
</g>
<!-- Node9 -->
<g id="Node000009" class="node">
<title>Node9</title>
<g id="a_Node000009"><a xlink:href="classmim_1_1RWPass.html" target="_top" xlink:title=" ">
<polygon fill="white" stroke="#666666" points="297.5,-230.5 162.5,-230.5 162.5,-211.5 297.5,-211.5 297.5,-230.5"/>
<text text-anchor="middle" x="230" y="-218.5" font-family="Helvetica,sans-Serif" font-size="10.00">mim::RWPass&lt; P, Def &gt;</text>
</a>
</g>
</g>
<!-- Node4&#45;&gt;Node9 -->
<g id="edge10_Node000009_Node000004" class="edge">
<title>Node4&#45;&gt;Node9</title>
<g id="a_edge10_Node000009_Node000004"><a xlink:title=" ">
<path fill="none" stroke="#63b8ff" d="M200.01,-340.22C224.73,-326.87 257.69,-303.6 267,-271 269.07,-263.73 270.14,-260.87 267,-254 262.48,-244.11 253.23,-236.11 245.11,-230.59"/>
<polygon fill="#63b8ff" stroke="#63b8ff" points="198.3,-337.16 191.01,-344.85 201.5,-343.39 198.3,-337.16"/>
</a>
</g>
</g>
<!-- Node5 -->
<g id="Node000005" class="node">
<title>Node5</title>
<g id="a_Node000005"><a xlink:href="classmim_1_1Stage.html" target="_top" xlink:title="Common base for Phase and Pass.">
<polygon fill="white" stroke="#666666" points="207.5,-420 134.5,-420 134.5,-401 207.5,-401 207.5,-420"/>
<text text-anchor="middle" x="171" y="-408" font-family="Helvetica,sans-Serif" font-size="10.00">mim::Stage</text>
</a>
</g>
</g>
<!-- Node5&#45;&gt;Node4 -->
<g id="edge4_Node000004_Node000005" class="edge">
<title>Node5&#45;&gt;Node4</title>
<g id="a_edge4_Node000004_Node000005"><a xlink:title=" ">
<path fill="none" stroke="#63b8ff" d="M171,-390.3C171,-381.41 171,-371.28 171,-364.25"/>
<polygon fill="#63b8ff" stroke="#63b8ff" points="167.5,-390.58 171,-400.58 174.5,-390.58 167.5,-390.58"/>
</a>
</g>
</g>
<!-- Node6 -->
<g id="Node000006" class="node">
<title>Node6</title>
<g id="a_Node000006"><a xlink:title=" ">
<polygon fill="white" stroke="#666666" points="244,-476 98,-476 98,-457 244,-457 244,-476"/>
<text text-anchor="middle" x="171" y="-464" font-family="Helvetica,sans-Serif" font-size="10.00">fe::RuntimeCast&lt; Stage &gt;</text>
</a>
</g>
</g>
<!-- Node6&#45;&gt;Node5 -->
<g id="edge5_Node000005_Node000006" class="edge">
<title>Node6&#45;&gt;Node5</title>
<g id="a_edge5_Node000005_Node000006"><a xlink:title=" ">
<path fill="none" stroke="#63b8ff" d="M171,-446.3C171,-437.41 171,-427.28 171,-420.25"/>
<polygon fill="#63b8ff" stroke="#63b8ff" points="167.5,-446.58 171,-456.58 174.5,-446.58 167.5,-446.58"/>
</a>
</g>
</g>
<!-- Node7&#45;&gt;Node3 -->
<g id="edge6_Node000003_Node000007" class="edge">
<title>Node7&#45;&gt;Node3</title>
<g id="a_edge6_Node000003_Node000007"><a xlink:title=" ">
<path fill="none" stroke="orange" stroke-dasharray="5,2" d="M104.64,-284.86C97.34,-281.31 90.56,-276.78 85,-271 76.1,-261.74 73.12,-247.1 72.21,-236.23"/>
<polygon fill="orange" stroke="orange" points="103.53,-288.19 114.11,-288.84 106.25,-281.73 103.53,-288.19"/>
</a>
</g>
<text text-anchor="start" x="88.5" y="-259.5" font-family="Helvetica,sans-Serif" font-size="10.00" fill="grey">&lt; CopyProp, Lam &gt;</text>
</g>
<!-- Node7&#45;&gt;Node9 -->
<g id="edge11_Node000009_Node000007" class="edge">
<title>Node7&#45;&gt;Node9</title>
<g id="a_edge11_Node000009_Node000007"><a xlink:title=" ">
<path fill="none" stroke="orange" stroke-dasharray="5,2" d="M184.36,-280.7C186.9,-277.48 189.54,-274.14 192,-271 203.03,-256.94 215.73,-240.51 223.3,-230.7"/>
<polygon fill="orange" stroke="orange" points="181.5,-278.68 178.02,-288.68 186.98,-283.03 181.5,-278.68"/>
</a>
</g>
<text text-anchor="start" x="208" y="-259.5" font-family="Helvetica,sans-Serif" font-size="10.00" fill="grey">&lt; P, Def &gt;</text>
</g>
<!-- Node8 -->
<g id="Node000008" class="node">
<title>Node8</title>
<g id="a_Node000008"><a xlink:href="classmim_1_1FPPass.html" target="_top" xlink:title="Inherit from this class using CRTP, if you do need a Pass with a state and a fixed&#45;point.">
<polygon fill="white" stroke="#666666" points="273,-169 151,-169 151,-150 273,-150 273,-169"/>
<text text-anchor="middle" x="212" y="-157" font-family="Helvetica,sans-Serif" font-size="10.00">mim::FPPass&lt; P, M &gt;</text>
</a>
</g>
</g>
<!-- Node8&#45;&gt;Node2 -->
<g id="edge8_Node000002_Node000008" class="edge">
<title>Node8&#45;&gt;Node2</title>
<g id="a_edge8_Node000002_Node000008"><a xlink:title=" ">
<path fill="none" stroke="orange" stroke-dasharray="5,2" d="M193.58,-143.05C177.56,-129.61 154.51,-110.27 138.93,-97.21"/>
<polygon fill="orange" stroke="orange" points="191.77,-146.09 201.68,-149.84 196.26,-140.73 191.77,-146.09"/>
</a>
</g>
<text text-anchor="start" x="184.5" y="-120.5" font-family="Helvetica,sans-Serif" font-size="10.00" fill="grey">&lt; CopyProp, Lam &gt;</text>
</g>
<!-- Node9&#45;&gt;Node8 -->
<g id="edge9_Node000008_Node000009" class="edge">
<title>Node9&#45;&gt;Node8</title>
<g id="a_edge9_Node000008_Node000009"><a xlink:title=" ">
<path fill="none" stroke="#63b8ff" d="M224.45,-201.66C221.16,-190.77 217.14,-177.49 214.57,-169.01"/>
<polygon fill="#63b8ff" stroke="#63b8ff" points="221.18,-202.92 227.42,-211.48 227.88,-200.89 221.18,-202.92"/>
</a>
</g>
</g>
</g>
</svg>

<g id="navigator" transform="translate(0 0)" fill="#404254">
  <rect fill="#f2f5e9" fill-opacity="0.5" stroke="#606060" stroke-width=".5" x="0" y="0" width="60" height="60"/>
  <use id="zoomplus" xlink:href="#zoomPlus" x="17" y="9" onmousedown="handleZoom(evt,'in')"/>
  <use id="zoomminus" xlink:href="#zoomMin" x="42" y="9" onmousedown="handleZoom(evt,'out')"/>
  <use id="reset" xlink:href="#resetDef" x="30" y="36" onmousedown="handleReset()"/>
   <use id="arrowup" xlink:href="#arrowUp" x="0" y="0" onmousedown="handlePan(0,-1)"/>
  <use id="arrowright" xlink:href="#arrowRight" x="0" y="0" onmousedown="handlePan(1,0)"/>
  <use id="arrowdown" xlink:href="#arrowDown" x="0" y="0" onmousedown="handlePan(0,1)"/>
  <use id="arrowleft" xlink:href="#arrowLeft" x="0" y="0" onmousedown="handlePan(-1,0)"/>
</g>
<svg viewBox="0 0 15 15" width="100%" height="30px" preserveAspectRatio="xMaxYMin meet">
 <g id="arrow_out" transform="scale(0.3 0.3)">
  <a xlink:href="classmim_1_1plug_1_1mem_1_1pass_1_1CopyProp__inherit__graph_org.svg" target="_base">
   <rect id="button" ry="5" rx="5" y="6" x="6" height="38" width="38"
        fill="#f2f5e9" fill-opacity="0.5" stroke="#606060" stroke-width="1.0"/>
   <path id="arrow"
     d="M 11.500037,31.436501 C 11.940474,20.09759 22.043105,11.32322 32.158766,21.979434 L 37.068811,17.246167 C 37.068811,17.246167 37.088388,32 37.088388,32 L 22.160133,31.978069 C 22.160133,31.978069 26.997745,27.140456 26.997745,27.140456 C 18.528582,18.264221 13.291696,25.230495 11.500037,31.436501 z"
     style="fill:#404040;"/>
  </a>
 </g>
</svg>

<style type='text/css'>
<![CDATA[
[data-mouse-over-selected='false'] { opacity: 0.7; }
[data-mouse-over-selected='true']  { opacity: 1.0; }
]]>
</style>
<script type="application/ecmascript"><![CDATA[
document.addEventListener('DOMContentLoaded', (event) => {
  highlightEdges();
  highlightAdjacentNodes();
});
]]></script>
</svg>
