<?xml version="1.0" encoding="UTF-8" standalone="no"?>
<!DOCTYPE svg PUBLIC "-//W3C//DTD SVG 1.1//EN"
 "http://www.w3.org/Graphics/SVG/1.1/DTD/svg11.dtd">
<!-- Generated by graphviz version 2.43.0 (0)
 -->
<!-- Title: mim::BetaRed Pages: 1 -->
<!--zoomable 473 -->

<svg id="main" version="1.1" xmlns="http://www.w3.org/2000/svg" xmlns:xlink="http://www.w3.org/1999/xlink" xml:space="preserve" onload="init(evt)">

<style type="text/css"><![CDATA[
.node, .edge {opacity: 0.7;}
.node.selected, .edge.selected {opacity: 1;}
.edge:hover path { stroke: red; }
.edge:hover polygon { stroke: red; fill: red; }
]]></style>

<defs>
  <circle id="rim" cx="0" cy="0" r="7"/>
  <circle id="rim2" cx="0" cy="0" r="3.5"/>
  <g id="zoomPlus">
    <use xlink:href="#rim" fill="#404040"><set attributeName="fill" to="#808080" begin="zoomplus.mouseover" end="zoomplus.mouseout"/></use>
    <path d="M-4,0h8M0,-4v8" fill="none" stroke="white" stroke-width="1.5" pointer-events="none"/>
  </g>
  <g id="zoomMin">
    <use xlink:href="#rim" fill="#404040"><set attributeName="fill" to="#808080" begin="zoomminus.mouseover" end="zoomminus.mouseout"/></use>
    <path d="M-4,0h8" fill="none" stroke="white" stroke-width="1.5" pointer-events="none"/>
  </g>
  <g id="arrowUp" transform="translate(30 24)">
    <use xlink:href="#rim"/>
    <path pointer-events="none" fill="none" stroke="white" stroke-width="1.5" d="M0,-3.0v7 M-2.5,-0.5L0,-3.0L2.5,-0.5"/>
  </g>
  <g id="arrowRight" transform="rotate(90) translate(36 -43)">
    <use xlink:href="#rim"/>
    <path pointer-events="none" fill="none" stroke="white" stroke-width="1.5" d="M0,-3.0v7 M-2.5,-0.5L0,-3.0L2.5,-0.5"/>
  </g>
  <g id="arrowDown" transform="rotate(180) translate(-30 -48)">
    <use xlink:href="#rim"/>
    <path pointer-events="none" fill="none" stroke="white" stroke-width="1.5" d="M0,-3.0v7 M-2.5,-0.5L0,-3.0L2.5,-0.5"/>
  </g>
  <g id="arrowLeft" transform="rotate(270) translate(-36 17)">
    <use xlink:href="#rim"/>
    <path pointer-events="none" fill="none" stroke="white" stroke-width="1.5" d="M0,-3.0v7 M-2.5,-0.5L0,-3.0L2.5,-0.5"/>
  </g>
  <g id="resetDef">
    <use xlink:href="#rim2" fill="#404040"><set attributeName="fill" to="#808080" begin="reset.mouseover" end="reset.mouseout"/></use>
  </g>
</defs>
<script type="application/ecmascript">
var viewWidth = 300;
var viewHeight = 473;
var sectionId = 'dynsection-0';
</script>
<script type="application/ecmascript" xlink:href="svg.min.js"/>
<svg id="graph" class="graph">
<g id="viewport">
<title>mim::BetaRed</title>
<!-- Node1 -->
<g id="Node000001" class="node">
<title>Node1</title>
<g id="a_Node000001"><a xlink:title="Optimistically performs β&#45;reduction (aka inlining).">
<polygon fill="#999999" stroke="#666666" points="161.5,-19 75.5,-19 75.5,0 161.5,0 161.5,-19"/>
<text text-anchor="middle" x="118.5" y="-7" font-family="Helvetica,sans-Serif" font-size="10.00">mim::BetaRed</text>
</a>
</g>
</g>
<!-- Node2 -->
<g id="Node000002" class="node">
<title>Node2</title>
<g id="a_Node000002"><a xlink:href="classmim_1_1FPPass.html" target="_top" xlink:title=" ">
<polygon fill="white" stroke="#666666" points="185.5,-86 51.5,-86 51.5,-56 185.5,-56 185.5,-86"/>
<text text-anchor="start" x="59.5" y="-74" font-family="Helvetica,sans-Serif" font-size="10.00">mim::FPPass&lt; BetaRed,</text>
<text text-anchor="middle" x="118.5" y="-63" font-family="Helvetica,sans-Serif" font-size="10.00"> Def &gt;</text>
</a>
</g>
</g>
<!-- Node2&#45;&gt;Node1 -->
<g id="edge1_Node000001_Node000002" class="edge">
<title>Node2&#45;&gt;Node1</title>
<g id="a_edge1_Node000001_Node000002"><a xlink:title=" ">
<path fill="none" stroke="#63b8ff" d="M118.5,-45.79C118.5,-36.36 118.5,-26.15 118.5,-19.16"/>
<polygon fill="#63b8ff" stroke="#63b8ff" points="115,-45.9 118.5,-55.9 122,-45.9 115,-45.9"/>
</a>
</g>
</g>
<!-- Node3 -->
<g id="Node000003" class="node">
<title>Node3</title>
<g id="a_Node000003"><a xlink:href="classmim_1_1RWPass.html" target="_top" xlink:title=" ">
<polygon fill="white" stroke="#666666" points="139,-225 0,-225 0,-195 139,-195 139,-225"/>
<text text-anchor="start" x="8" y="-213" font-family="Helvetica,sans-Serif" font-size="10.00">mim::RWPass&lt; BetaRed,</text>
<text text-anchor="middle" x="69.5" y="-202" font-family="Helvetica,sans-Serif" font-size="10.00"> Def &gt;</text>
</a>
</g>
</g>
<!-- Node3&#45;&gt;Node2 -->
<g id="edge2_Node000002_Node000003" class="edge">
<title>Node3&#45;&gt;Node2</title>
<g id="a_edge2_Node000002_Node000003"><a xlink:title=" ">
<path fill="none" stroke="#63b8ff" d="M77.99,-185.25C88.2,-156.71 105,-109.74 113.39,-86.27"/>
<polygon fill="#63b8ff" stroke="#63b8ff" points="74.63,-184.26 74.56,-194.85 81.22,-186.62 74.63,-184.26"/>
</a>
</g>
</g>
<!-- Node4 -->
<g id="Node000004" class="node">
<title>Node4</title>
<g id="a_Node000004"><a xlink:href="classmim_1_1Pass.html" target="_top" xlink:title="All Passes that want to be registered in the PassMan must implement this interface.">
<polygon fill="white" stroke="#666666" points="198,-353 131,-353 131,-334 198,-334 198,-353"/>
<text text-anchor="middle" x="164.5" y="-341" font-family="Helvetica,sans-Serif" font-size="10.00">mim::Pass</text>
</a>
</g>
</g>
<!-- Node4&#45;&gt;Node3 -->
<g id="edge3_Node000003_Node000004" class="edge">
<title>Node4&#45;&gt;Node3</title>
<g id="a_edge3_Node000003_Node000004"><a xlink:title=" ">
<path fill="none" stroke="#63b8ff" d="M135.12,-329.28C120.52,-321.54 103.48,-310.61 91.5,-297 73.67,-276.76 69.94,-244 69.36,-225.3"/>
<polygon fill="#63b8ff" stroke="#63b8ff" points="133.78,-332.52 144.28,-333.89 136.93,-326.27 133.78,-332.52"/>
</a>
</g>
</g>
<!-- Node7 -->
<g id="Node000007" class="node">
<title>Node7</title>
<g id="a_Node000007"><a xlink:href="classmim_1_1RWPass.html" target="_top" xlink:title="Inherit from this class using CRTP, if your Pass does not need state and a fixed&#45;point iteration.">
<polygon fill="white" stroke="#666666" points="228,-297 101,-297 101,-278 228,-278 228,-297"/>
<text text-anchor="middle" x="164.5" y="-285" font-family="Helvetica,sans-Serif" font-size="10.00">mim::RWPass&lt; P, M &gt;</text>
</a>
</g>
</g>
<!-- Node4&#45;&gt;Node7 -->
<g id="edge7_Node000007_Node000004" class="edge">
<title>Node4&#45;&gt;Node7</title>
<g id="a_edge7_Node000007_Node000004"><a xlink:title=" ">
<path fill="none" stroke="#63b8ff" d="M164.5,-323.3C164.5,-314.41 164.5,-304.28 164.5,-297.25"/>
<polygon fill="#63b8ff" stroke="#63b8ff" points="161,-323.58 164.5,-333.58 168,-323.58 161,-323.58"/>
</a>
</g>
</g>
<!-- Node9 -->
<g id="Node000009" class="node">
<title>Node9</title>
<g id="a_Node000009"><a xlink:href="classmim_1_1RWPass.html" target="_top" xlink:title=" ">
<polygon fill="white" stroke="#666666" points="292,-219.5 157,-219.5 157,-200.5 292,-200.5 292,-219.5"/>
<text text-anchor="middle" x="224.5" y="-207.5" font-family="Helvetica,sans-Serif" font-size="10.00">mim::RWPass&lt; P, Def &gt;</text>
</a>
</g>
</g>
<!-- Node4&#45;&gt;Node9 -->
<g id="edge10_Node000009_Node000004" class="edge">
<title>Node4&#45;&gt;Node9</title>
<g id="a_edge10_Node000009_Node000004"><a xlink:title=" ">
<path fill="none" stroke="#63b8ff" d="M193.51,-329.22C218.23,-315.87 251.19,-292.6 260.5,-260 262.57,-252.73 263.6,-249.89 260.5,-243 256.12,-233.24 247.12,-225.24 239.21,-219.68"/>
<polygon fill="#63b8ff" stroke="#63b8ff" points="191.8,-326.16 184.51,-333.85 195,-332.39 191.8,-326.16"/>
</a>
</g>
</g>
<!-- Node5 -->
<g id="Node000005" class="node">
<title>Node5</title>
<g id="a_Node000005"><a xlink:href="classmim_1_1Stage.html" target="_top" xlink:title="Common base for Phase and Pass.">
<polygon fill="white" stroke="#666666" points="201,-409 128,-409 128,-390 201,-390 201,-409"/>
<text text-anchor="middle" x="164.5" y="-397" font-family="Helvetica,sans-Serif" font-size="10.00">mim::Stage</text>
</a>
</g>
</g>
<!-- Node5&#45;&gt;Node4 -->
<g id="edge4_Node000004_Node000005" class="edge">
<title>Node5&#45;&gt;Node4</title>
<g id="a_edge4_Node000004_Node000005"><a xlink:title=" ">
<path fill="none" stroke="#63b8ff" d="M164.5,-379.3C164.5,-370.41 164.5,-360.28 164.5,-353.25"/>
<polygon fill="#63b8ff" stroke="#63b8ff" points="161,-379.58 164.5,-389.58 168,-379.58 161,-379.58"/>
</a>
</g>
</g>
<!-- Node6 -->
<g id="Node000006" class="node">
<title>Node6</title>
<g id="a_Node000006"><a xlink:title=" ">
<polygon fill="white" stroke="#666666" points="237.5,-465 91.5,-465 91.5,-446 237.5,-446 237.5,-465"/>
<text text-anchor="middle" x="164.5" y="-453" font-family="Helvetica,sans-Serif" font-size="10.00">fe::RuntimeCast&lt; Stage &gt;</text>
</a>
</g>
</g>
<!-- Node6&#45;&gt;Node5 -->
<g id="edge5_Node000005_Node000006" class="edge">
<title>Node6&#45;&gt;Node5</title>
<g id="a_edge5_Node000005_Node000006"><a xlink:title=" ">
<path fill="none" stroke="#63b8ff" d="M164.5,-435.3C164.5,-426.41 164.5,-416.28 164.5,-409.25"/>
<polygon fill="#63b8ff" stroke="#63b8ff" points="161,-435.58 164.5,-445.58 168,-435.58 161,-435.58"/>
</a>
</g>
</g>
<!-- Node7&#45;&gt;Node3 -->
<g id="edge6_Node000003_Node000007" class="edge">
<title>Node7&#45;&gt;Node3</title>
<g id="a_edge6_Node000003_Node000007"><a xlink:title=" ">
<path fill="none" stroke="orange" stroke-dasharray="5,2" d="M110.1,-274.12C102.18,-270.54 94.64,-265.93 88.5,-260 78.92,-250.74 74.09,-236.11 71.7,-225.24"/>
<polygon fill="orange" stroke="orange" points="108.92,-277.42 119.51,-277.87 111.51,-270.92 108.92,-277.42"/>
</a>
</g>
<text text-anchor="start" x="91.5" y="-248.5" font-family="Helvetica,sans-Serif" font-size="10.00" fill="grey">&lt; BetaRed, Def &gt;</text>
</g>
<!-- Node7&#45;&gt;Node9 -->
<g id="edge11_Node000009_Node000007" class="edge">
<title>Node7&#45;&gt;Node9</title>
<g id="a_edge11_Node000009_Node000007"><a xlink:title=" ">
<path fill="none" stroke="orange" stroke-dasharray="5,2" d="M177.92,-269.62C190.26,-254.08 208.07,-231.68 217.7,-219.56"/>
<polygon fill="orange" stroke="orange" points="174.86,-267.83 171.38,-277.84 180.34,-272.19 174.86,-267.83"/>
</a>
</g>
<text text-anchor="start" x="201.5" y="-248.5" font-family="Helvetica,sans-Serif" font-size="10.00" fill="grey">&lt; P, Def &gt;</text>
</g>
<!-- Node8 -->
<g id="Node000008" class="node">
<title>Node8</title>
<g id="a_Node000008"><a xlink:href="classmim_1_1FPPass.html" target="_top" xlink:title="Inherit from this class using CRTP, if you do need a Pass with a state and a fixed&#45;point.">
<polygon fill="white" stroke="#666666" points="268.5,-158 146.5,-158 146.5,-139 268.5,-139 268.5,-158"/>
<text text-anchor="middle" x="207.5" y="-146" font-family="Helvetica,sans-Serif" font-size="10.00">mim::FPPass&lt; P, M &gt;</text>
</a>
</g>
</g>
<!-- Node8&#45;&gt;Node2 -->
<g id="edge8_Node000002_Node000008" class="edge">
<title>Node8&#45;&gt;Node2</title>
<g id="a_edge8_Node000002_Node000008"><a xlink:title=" ">
<path fill="none" stroke="orange" stroke-dasharray="5,2" d="M189.29,-132.05C173.44,-118.61 150.65,-99.27 135.25,-86.21"/>
<polygon fill="orange" stroke="orange" points="187.4,-135.04 197.29,-138.84 191.93,-129.7 187.4,-135.04"/>
</a>
</g>
<text text-anchor="start" x="179.5" y="-109.5" font-family="Helvetica,sans-Serif" font-size="10.00" fill="grey">&lt; BetaRed, Def &gt;</text>
</g>
<!-- Node9&#45;&gt;Node8 -->
<g id="edge9_Node000008_Node000009" class="edge">
<title>Node9&#45;&gt;Node8</title>
<g id="a_edge9_Node000008_Node000009"><a xlink:title=" ">
<path fill="none" stroke="#63b8ff" d="M219.26,-190.66C216.15,-179.77 212.35,-166.49 209.93,-158.01"/>
<polygon fill="#63b8ff" stroke="#63b8ff" points="215.95,-191.82 222.06,-200.48 222.68,-189.9 215.95,-191.82"/>
</a>
</g>
</g>
</g>
</svg>

<g id="navigator" transform="translate(0 0)" fill="#404254">
  <rect fill="#f2f5e9" fill-opacity="0.5" stroke="#606060" stroke-width=".5" x="0" y="0" width="60" height="60"/>
  <use id="zoomplus" xlink:href="#zoomPlus" x="17" y="9" onmousedown="handleZoom(evt,'in')"/>
  <use id="zoomminus" xlink:href="#zoomMin" x="42" y="9" onmousedown="handleZoom(evt,'out')"/>
  <use id="reset" xlink:href="#resetDef" x="30" y="36" onmousedown="handleReset()"/>
   <use id="arrowup" xlink:href="#arrowUp" x="0" y="0" onmousedown="handlePan(0,-1)"/>
  <use id="arrowright" xlink:href="#arrowRight" x="0" y="0" onmousedown="handlePan(1,0)"/>
  <use id="arrowdown" xlink:href="#arrowDown" x="0" y="0" onmousedown="handlePan(0,1)"/>
  <use id="arrowleft" xlink:href="#arrowLeft" x="0" y="0" onmousedown="handlePan(-1,0)"/>
</g>
<svg viewBox="0 0 15 15" width="100%" height="30px" preserveAspectRatio="xMaxYMin meet">
 <g id="arrow_out" transform="scale(0.3 0.3)">
  <a xlink:href="classmim_1_1BetaRed__inherit__graph_org.svg" target="_base">
   <rect id="button" ry="5" rx="5" y="6" x="6" height="38" width="38"
        fill="#f2f5e9" fill-opacity="0.5" stroke="#606060" stroke-width="1.0"/>
   <path id="arrow"
     d="M 11.500037,31.436501 C 11.940474,20.09759 22.043105,11.32322 32.158766,21.979434 L 37.068811,17.246167 C 37.068811,17.246167 37.088388,32 37.088388,32 L 22.160133,31.978069 C 22.160133,31.978069 26.997745,27.140456 26.997745,27.140456 C 18.528582,18.264221 13.291696,25.230495 11.500037,31.436501 z"
     style="fill:#404040;"/>
  </a>
 </g>
</svg>

<style type='text/css'>
<![CDATA[
[data-mouse-over-selected='false'] { opacity: 0.7; }
[data-mouse-over-selected='true']  { opacity: 1.0; }
]]>
</style>
<script type="application/ecmascript"><![CDATA[
document.addEventListener('DOMContentLoaded', (event) => {
  highlightEdges();
  highlightAdjacentNodes();
});
]]></script>
</svg>
