<?xml version="1.0" encoding="UTF-8" standalone="no"?>
<!DOCTYPE svg PUBLIC "-//W3C//DTD SVG 1.1//EN"
 "http://www.w3.org/Graphics/SVG/1.1/DTD/svg11.dtd">
<!-- Generated by graphviz version 2.50.0 (20220203.2022)
 -->
<!-- Title: thorin::CopyProp Pages: 1 -->
<svg width="203pt" height="334pt"
 viewBox="0.00 0.00 203.00 334.00" xmlns="http://www.w3.org/2000/svg" xmlns:xlink="http://www.w3.org/1999/xlink">
<g id="graph0" class="graph" transform="scale(1 1) rotate(0) translate(4 330)">
<title>thorin::CopyProp</title>
<!-- Node1 -->
<g id="node1" class="node">
<title>Node1</title>
<g id="a_node1"><a xlink:title="This FPPass is similar to sparse conditional constant propagation (SCCP).">
<polygon fill="#bfbfbf" stroke="black" points="23.5,-0.5 23.5,-19.5 110.5,-19.5 110.5,-0.5 23.5,-0.5"/>
<text text-anchor="middle" x="67" y="-7.5" font-family="Helvetica,sans-Serif" font-size="10.00">thorin::CopyProp</text>
</a>
</g>
</g>
<!-- Node2 -->
<g id="node2" class="node">
<title>Node2</title>
<g id="a_node2"><a xlink:href="classthorin_1_1FPPass.html" target="_top" xlink:title=" ">
<polygon fill="none" stroke="black" points="0,-57.5 0,-87.5 134,-87.5 134,-57.5 0,-57.5"/>
<text text-anchor="start" x="8" y="-75.5" font-family="Helvetica,sans-Serif" font-size="10.00">thorin::FPPass&lt; CopyProp,</text>
<text text-anchor="middle" x="67" y="-64.5" font-family="Helvetica,sans-Serif" font-size="10.00"> Lam &gt;</text>
</a>
</g>
</g>
<!-- Node2&#45;&gt;Node1 -->
<g id="edge1" class="edge">
<title>Node2&#45;&gt;Node1</title>
<path fill="none" stroke="midnightblue" d="M67,-47.35C67,-37.51 67,-26.78 67,-19.54"/>
<polygon fill="midnightblue" stroke="midnightblue" points="63.5,-47.47 67,-57.47 70.5,-47.47 63.5,-47.47"/>
</g>
<!-- Node3 -->
<g id="node3" class="node">
<title>Node3</title>
<g id="a_node3"><a xlink:href="classthorin_1_1FPPassBase.html" target="_top" xlink:title="Base class for all FPPasses.">
<polygon fill="none" stroke="black" points="11.5,-192.5 11.5,-211.5 114.5,-211.5 114.5,-192.5 11.5,-192.5"/>
<text text-anchor="middle" x="63" y="-199.5" font-family="Helvetica,sans-Serif" font-size="10.00">thorin::FPPassBase</text>
</a>
</g>
</g>
<!-- Node3&#45;&gt;Node2 -->
<g id="edge2" class="edge">
<title>Node3&#45;&gt;Node2</title>
<path fill="none" stroke="midnightblue" d="M63.6,-181.9C64.41,-156.05 65.84,-110.54 66.56,-87.59"/>
<polygon fill="midnightblue" stroke="midnightblue" points="60.09,-182.13 63.27,-192.24 67.09,-182.35 60.09,-182.13"/>
</g>
<!-- Node6 -->
<g id="node6" class="node">
<title>Node6</title>
<g id="a_node6"><a xlink:href="classthorin_1_1FPPass.html" target="_top" xlink:title="Inherit from this class using CRTP if you do need a Pass with a state.">
<polygon fill="none" stroke="black" points="79,-135.5 79,-154.5 195,-154.5 195,-135.5 79,-135.5"/>
<text text-anchor="middle" x="137" y="-142.5" font-family="Helvetica,sans-Serif" font-size="10.00">thorin::FPPass&lt; P, N &gt;</text>
</a>
</g>
</g>
<!-- Node3&#45;&gt;Node6 -->
<g id="edge6" class="edge">
<title>Node3&#45;&gt;Node6</title>
<path fill="none" stroke="midnightblue" d="M82.8,-186.29C96.35,-176.21 113.88,-163.19 125.27,-154.71"/>
<polygon fill="midnightblue" stroke="midnightblue" points="80.5,-183.63 74.56,-192.41 84.68,-189.25 80.5,-183.63"/>
</g>
<!-- Node4 -->
<g id="node4" class="node">
<title>Node4</title>
<g id="a_node4"><a xlink:href="classthorin_1_1RWPassBase.html" target="_top" xlink:title="All Passes that want to be registered in the PassMan must implement this interface.">
<polygon fill="none" stroke="black" points="10,-249.5 10,-268.5 116,-268.5 116,-249.5 10,-249.5"/>
<text text-anchor="middle" x="63" y="-256.5" font-family="Helvetica,sans-Serif" font-size="10.00">thorin::RWPassBase</text>
</a>
</g>
</g>
<!-- Node4&#45;&gt;Node3 -->
<g id="edge3" class="edge">
<title>Node4&#45;&gt;Node3</title>
<path fill="none" stroke="midnightblue" d="M63,-239.12C63,-229.82 63,-219.06 63,-211.71"/>
<polygon fill="midnightblue" stroke="midnightblue" points="59.5,-239.41 63,-249.41 66.5,-239.41 59.5,-239.41"/>
</g>
<!-- Node5 -->
<g id="node5" class="node">
<title>Node5</title>
<g id="a_node5"><a xlink:href="classthorin_1_1IPass.html" target="_top" xlink:title=" ">
<polygon fill="none" stroke="black" points="27.5,-306.5 27.5,-325.5 98.5,-325.5 98.5,-306.5 27.5,-306.5"/>
<text text-anchor="middle" x="63" y="-313.5" font-family="Helvetica,sans-Serif" font-size="10.00">thorin::IPass</text>
</a>
</g>
</g>
<!-- Node5&#45;&gt;Node4 -->
<g id="edge4" class="edge">
<title>Node5&#45;&gt;Node4</title>
<path fill="none" stroke="midnightblue" d="M63,-296.12C63,-286.82 63,-276.06 63,-268.71"/>
<polygon fill="midnightblue" stroke="midnightblue" points="59.5,-296.41 63,-306.41 66.5,-296.41 59.5,-296.41"/>
</g>
<!-- Node6&#45;&gt;Node2 -->
<g id="edge5" class="edge">
<title>Node6&#45;&gt;Node2</title>
<path fill="none" stroke="orange" stroke-dasharray="5,2" d="M121.21,-128.09C109.11,-115.91 92.59,-99.27 80.98,-87.58"/>
<polygon fill="orange" stroke="orange" points="118.89,-130.73 128.42,-135.36 123.85,-125.79 118.89,-130.73"/>
<text text-anchor="middle" x="151" y="-109" font-family="Helvetica,sans-Serif" font-size="10.00"> &lt; CopyProp, Lam &gt;</text>
</g>
</g>
</svg>
