<?xml version="1.0" encoding="UTF-8" standalone="no"?>
<!DOCTYPE svg PUBLIC "-//W3C//DTD SVG 1.1//EN"
 "http://www.w3.org/Graphics/SVG/1.1/DTD/svg11.dtd">
<!-- Generated by graphviz version 2.43.0 (0)
 -->
<!-- Title: mim::ast::ValDecl Pages: 1 -->
<svg width="479pt" height="302pt"
 viewBox="0.00 0.00 478.50 302.00" xmlns="http://www.w3.org/2000/svg" xmlns:xlink="http://www.w3.org/1999/xlink">
<g id="graph0" class="graph" transform="scale(1 1) rotate(0) translate(4 298)">
<title>mim::ast::ValDecl</title>
<!-- Node1 -->
<g id="Node000001" class="node">
<title>Node1</title>
<g id="a_Node000001"><a xlink:title=" ">
<polygon fill="#999999" stroke="#666666" points="285.5,-129 182.5,-129 182.5,-110 285.5,-110 285.5,-129"/>
<text text-anchor="middle" x="234" y="-117" font-family="Helvetica,sans-Serif" font-size="10.00">mim::ast::ValDecl</text>
</a>
</g>
</g>
<!-- Node5 -->
<g id="Node000005" class="node">
<title>Node5</title>
<g id="a_Node000005"><a xlink:href="classmim_1_1ast_1_1AxmDecl.html" target="_top" xlink:title="axm ptrn: type = value;">
<polygon fill="white" stroke="#666666" points="110,-74 0,-74 0,-55 110,-55 110,-74"/>
<text text-anchor="middle" x="55" y="-62" font-family="Helvetica,sans-Serif" font-size="10.00">mim::ast::AxmDecl</text>
</a>
</g>
</g>
<!-- Node1&#45;&gt;Node5 -->
<g id="edge4_Node000001_Node000005" class="edge">
<title>Node1&#45;&gt;Node5</title>
<g id="a_edge4_Node000001_Node000005"><a xlink:title=" ">
<path fill="none" stroke="#63b8ff" d="M195.35,-107.06C161.89,-97.15 114.25,-83.04 83.98,-74.08"/>
<polygon fill="#63b8ff" stroke="#63b8ff" points="194.66,-110.5 205.24,-109.98 196.65,-103.79 194.66,-110.5"/>
</a>
</g>
</g>
<!-- Node6 -->
<g id="Node000006" class="node">
<title>Node6</title>
<g id="a_Node000006"><a xlink:href="classmim_1_1ast_1_1CDecl.html" target="_top" xlink:title="cfun dbg dom &#45;&gt; codom">
<polygon fill="white" stroke="#666666" points="223.5,-74 128.5,-74 128.5,-55 223.5,-55 223.5,-74"/>
<text text-anchor="middle" x="176" y="-62" font-family="Helvetica,sans-Serif" font-size="10.00">mim::ast::CDecl</text>
</a>
</g>
</g>
<!-- Node1&#45;&gt;Node6 -->
<g id="edge5_Node000001_Node000006" class="edge">
<title>Node1&#45;&gt;Node6</title>
<g id="a_edge5_Node000001_Node000006"><a xlink:title=" ">
<path fill="none" stroke="#63b8ff" d="M217.09,-103.04C206.8,-93.64 194.03,-81.98 185.49,-74.17"/>
<polygon fill="#63b8ff" stroke="#63b8ff" points="214.94,-105.82 224.68,-109.98 219.66,-100.66 214.94,-105.82"/>
</a>
</g>
</g>
<!-- Node7 -->
<g id="Node000007" class="node">
<title>Node7</title>
<g id="a_Node000007"><a xlink:href="classmim_1_1ast_1_1LetDecl.html" target="_top" xlink:title="let ptrn: type = value;">
<polygon fill="white" stroke="#666666" points="344.5,-74 241.5,-74 241.5,-55 344.5,-55 344.5,-74"/>
<text text-anchor="middle" x="293" y="-62" font-family="Helvetica,sans-Serif" font-size="10.00">mim::ast::LetDecl</text>
</a>
</g>
</g>
<!-- Node1&#45;&gt;Node7 -->
<g id="edge6_Node000001_Node000007" class="edge">
<title>Node1&#45;&gt;Node7</title>
<g id="a_edge6_Node000001_Node000007"><a xlink:title=" ">
<path fill="none" stroke="#63b8ff" d="M251.2,-103.04C261.67,-93.64 274.65,-81.98 283.35,-74.17"/>
<polygon fill="#63b8ff" stroke="#63b8ff" points="248.58,-100.7 243.48,-109.98 253.26,-105.91 248.58,-100.7"/>
</a>
</g>
</g>
<!-- Node8 -->
<g id="Node000008" class="node">
<title>Node8</title>
<g id="a_Node000008"><a xlink:href="classmim_1_1ast_1_1RecDecl.html" target="_top" xlink:title=".rec dbg: type = body">
<polygon fill="white" stroke="#666666" points="469,-74 363,-74 363,-55 469,-55 469,-74"/>
<text text-anchor="middle" x="416" y="-62" font-family="Helvetica,sans-Serif" font-size="10.00">mim::ast::RecDecl</text>
</a>
</g>
</g>
<!-- Node1&#45;&gt;Node8 -->
<g id="edge7_Node000001_Node000008" class="edge">
<title>Node1&#45;&gt;Node8</title>
<g id="a_edge7_Node000001_Node000008"><a xlink:title=" ">
<path fill="none" stroke="#63b8ff" d="M272.86,-107.18C306.9,-97.27 355.62,-83.08 386.53,-74.08"/>
<polygon fill="#63b8ff" stroke="#63b8ff" points="271.86,-103.83 263.24,-109.98 273.82,-110.55 271.86,-103.83"/>
</a>
</g>
</g>
<!-- Node2 -->
<g id="Node000002" class="node">
<title>Node2</title>
<g id="a_Node000002"><a xlink:href="classmim_1_1ast_1_1Decl.html" target="_top" xlink:title=" ">
<polygon fill="white" stroke="#666666" points="278,-184 190,-184 190,-165 278,-165 278,-184"/>
<text text-anchor="middle" x="234" y="-172" font-family="Helvetica,sans-Serif" font-size="10.00">mim::ast::Decl</text>
</a>
</g>
</g>
<!-- Node2&#45;&gt;Node1 -->
<g id="edge1_Node000001_Node000002" class="edge">
<title>Node2&#45;&gt;Node1</title>
<g id="a_edge1_Node000001_Node000002"><a xlink:title=" ">
<path fill="none" stroke="#63b8ff" d="M234,-154.66C234,-145.93 234,-135.99 234,-129.09"/>
<polygon fill="#63b8ff" stroke="#63b8ff" points="230.5,-154.75 234,-164.75 237.5,-154.75 230.5,-154.75"/>
</a>
</g>
</g>
<!-- Node3 -->
<g id="Node000003" class="node">
<title>Node3</title>
<g id="a_Node000003"><a xlink:href="classmim_1_1ast_1_1Node.html" target="_top" xlink:title=" ">
<polygon fill="white" stroke="#666666" points="280,-239 188,-239 188,-220 280,-220 280,-239"/>
<text text-anchor="middle" x="234" y="-227" font-family="Helvetica,sans-Serif" font-size="10.00">mim::ast::Node</text>
</a>
</g>
</g>
<!-- Node3&#45;&gt;Node2 -->
<g id="edge2_Node000002_Node000003" class="edge">
<title>Node3&#45;&gt;Node2</title>
<g id="a_edge2_Node000002_Node000003"><a xlink:title=" ">
<path fill="none" stroke="#63b8ff" d="M234,-209.66C234,-200.93 234,-190.99 234,-184.09"/>
<polygon fill="#63b8ff" stroke="#63b8ff" points="230.5,-209.75 234,-219.75 237.5,-209.75 230.5,-209.75"/>
</a>
</g>
</g>
<!-- Node4 -->
<g id="Node000004" class="node">
<title>Node4</title>
<g id="a_Node000004"><a xlink:title=" ">
<polygon fill="white" stroke="#666666" points="305.5,-294 162.5,-294 162.5,-275 305.5,-275 305.5,-294"/>
<text text-anchor="middle" x="234" y="-282" font-family="Helvetica,sans-Serif" font-size="10.00">fe::RuntimeCast&lt; Node &gt;</text>
</a>
</g>
</g>
<!-- Node4&#45;&gt;Node3 -->
<g id="edge3_Node000003_Node000004" class="edge">
<title>Node4&#45;&gt;Node3</title>
<g id="a_edge3_Node000003_Node000004"><a xlink:title=" ">
<path fill="none" stroke="#63b8ff" d="M234,-264.66C234,-255.93 234,-245.99 234,-239.09"/>
<polygon fill="#63b8ff" stroke="#63b8ff" points="230.5,-264.75 234,-274.75 237.5,-264.75 230.5,-264.75"/>
</a>
</g>
</g>
<!-- Node9 -->
<g id="Node000009" class="node">
<title>Node9</title>
<g id="a_Node000009"><a xlink:href="classmim_1_1ast_1_1LamDecl.html" target="_top" xlink:title="One of:">
<polygon fill="white" stroke="#666666" points="470.5,-19 361.5,-19 361.5,0 470.5,0 470.5,-19"/>
<text text-anchor="middle" x="416" y="-7" font-family="Helvetica,sans-Serif" font-size="10.00">mim::ast::LamDecl</text>
</a>
</g>
</g>
<!-- Node8&#45;&gt;Node9 -->
<g id="edge8_Node000008_Node000009" class="edge">
<title>Node8&#45;&gt;Node9</title>
<g id="a_edge8_Node000008_Node000009"><a xlink:title=" ">
<path fill="none" stroke="#63b8ff" d="M416,-44.66C416,-35.93 416,-25.99 416,-19.09"/>
<polygon fill="#63b8ff" stroke="#63b8ff" points="412.5,-44.75 416,-54.75 419.5,-44.75 412.5,-44.75"/>
</a>
</g>
</g>
</g>
</svg>
