<?xml version="1.0" encoding="UTF-8" standalone="no"?>
<!DOCTYPE svg PUBLIC "-//W3C//DTD SVG 1.1//EN"
 "http://www.w3.org/Graphics/SVG/1.1/DTD/svg11.dtd">
<!-- Generated by graphviz version 2.43.0 (0)
 -->
<!-- Title: mim::plug::mem::pass::SSA Pages: 1 -->
<svg width="314pt" height="439pt"
 viewBox="0.00 0.00 313.50 439.00" xmlns="http://www.w3.org/2000/svg" xmlns:xlink="http://www.w3.org/1999/xlink">
<g id="graph0" class="graph" transform="scale(1 1) rotate(0) translate(4 435)">
<title>mim::plug::mem::pass::SSA</title>
<!-- Node1 -->
<g id="Node000001" class="node">
<title>Node1</title>
<g id="a_Node000001"><a xlink:title="SSA construction algorithm that promotes slots, loads, and stores to SSA values.">
<polygon fill="#999999" stroke="#666666" points="204,-19 52,-19 52,0 204,0 204,-19"/>
<text text-anchor="middle" x="128" y="-7" font-family="Helvetica,sans-Serif" font-size="10.00">mim::plug::mem::pass::SSA</text>
</a>
</g>
</g>
<!-- Node2 -->
<g id="Node000002" class="node">
<title>Node2</title>
<g id="a_Node000002"><a xlink:href="classmim_1_1FPPass.html" target="_top" xlink:title=" ">
<polygon fill="white" stroke="#666666" points="202,-75 54,-75 54,-56 202,-56 202,-75"/>
<text text-anchor="middle" x="128" y="-63" font-family="Helvetica,sans-Serif" font-size="10.00">mim::FPPass&lt; SSA, Lam &gt;</text>
</a>
</g>
</g>
<!-- Node2&#45;&gt;Node1 -->
<g id="edge1_Node000001_Node000002" class="edge">
<title>Node2&#45;&gt;Node1</title>
<g id="a_edge1_Node000001_Node000002"><a xlink:title=" ">
<path fill="none" stroke="#63b8ff" d="M128,-45.3C128,-36.41 128,-26.28 128,-19.25"/>
<polygon fill="#63b8ff" stroke="#63b8ff" points="124.5,-45.58 128,-55.58 131.5,-45.58 124.5,-45.58"/>
</a>
</g>
</g>
<!-- Node3 -->
<g id="Node000003" class="node">
<title>Node3</title>
<g id="a_Node000003"><a xlink:href="classmim_1_1RWPass.html" target="_top" xlink:title=" ">
<polygon fill="white" stroke="#666666" points="152,-197 0,-197 0,-178 152,-178 152,-197"/>
<text text-anchor="middle" x="76" y="-185" font-family="Helvetica,sans-Serif" font-size="10.00">mim::RWPass&lt; SSA, Lam &gt;</text>
</a>
</g>
</g>
<!-- Node3&#45;&gt;Node2 -->
<g id="edge2_Node000002_Node000003" class="edge">
<title>Node3&#45;&gt;Node2</title>
<g id="a_edge2_Node000002_Node000003"><a xlink:title=" ">
<path fill="none" stroke="#63b8ff" d="M83.86,-168.35C95.25,-142.07 115.89,-94.44 124.29,-75.05"/>
<polygon fill="#63b8ff" stroke="#63b8ff" points="80.5,-167.3 79.74,-177.87 86.93,-170.09 80.5,-167.3"/>
</a>
</g>
</g>
<!-- Node4 -->
<g id="Node000004" class="node">
<title>Node4</title>
<g id="a_Node000004"><a xlink:href="classmim_1_1Pass.html" target="_top" xlink:title="All Passes that want to be registered in the PassMan must implement this interface.">
<polygon fill="white" stroke="#666666" points="192.5,-319 125.5,-319 125.5,-300 192.5,-300 192.5,-319"/>
<text text-anchor="middle" x="159" y="-307" font-family="Helvetica,sans-Serif" font-size="10.00">mim::Pass</text>
</a>
</g>
</g>
<!-- Node4&#45;&gt;Node3 -->
<g id="edge3_Node000003_Node000004" class="edge">
<title>Node4&#45;&gt;Node3</title>
<g id="a_edge3_Node000003_Node000004"><a xlink:title=" ">
<path fill="none" stroke="#63b8ff" d="M125.69,-295.55C111.18,-288.2 95.37,-277.51 86,-263 72.69,-242.39 73.54,-211.87 74.92,-197.11"/>
<polygon fill="#63b8ff" stroke="#63b8ff" points="124.42,-298.82 134.96,-299.91 127.4,-292.49 124.42,-298.82"/>
</a>
</g>
</g>
<!-- Node7 -->
<g id="Node000007" class="node">
<title>Node7</title>
<g id="a_Node000007"><a xlink:href="classmim_1_1RWPass.html" target="_top" xlink:title="Inherit from this class using CRTP, if your Pass does not need state and a fixed&#45;point iteration.">
<polygon fill="white" stroke="#666666" points="222.5,-263 95.5,-263 95.5,-244 222.5,-244 222.5,-263"/>
<text text-anchor="middle" x="159" y="-251" font-family="Helvetica,sans-Serif" font-size="10.00">mim::RWPass&lt; P, M &gt;</text>
</a>
</g>
</g>
<!-- Node4&#45;&gt;Node7 -->
<g id="edge7_Node000007_Node000004" class="edge">
<title>Node4&#45;&gt;Node7</title>
<g id="a_edge7_Node000007_Node000004"><a xlink:title=" ">
<path fill="none" stroke="#63b8ff" d="M159,-289.3C159,-280.41 159,-270.28 159,-263.25"/>
<polygon fill="#63b8ff" stroke="#63b8ff" points="155.5,-289.58 159,-299.58 162.5,-289.58 155.5,-289.58"/>
</a>
</g>
</g>
<!-- Node9 -->
<g id="Node000009" class="node">
<title>Node9</title>
<g id="a_Node000009"><a xlink:href="classmim_1_1RWPass.html" target="_top" xlink:title=" ">
<polygon fill="white" stroke="#666666" points="305.5,-197 170.5,-197 170.5,-178 305.5,-178 305.5,-197"/>
<text text-anchor="middle" x="238" y="-185" font-family="Helvetica,sans-Serif" font-size="10.00">mim::RWPass&lt; P, Def &gt;</text>
</a>
</g>
</g>
<!-- Node4&#45;&gt;Node9 -->
<g id="edge10_Node000009_Node000004" class="edge">
<title>Node4&#45;&gt;Node9</title>
<g id="a_edge10_Node000009_Node000004"><a xlink:title=" ">
<path fill="none" stroke="#63b8ff" d="M189.51,-295.41C204.12,-287.81 220.81,-276.96 232,-263 245.82,-245.75 247.85,-236.92 245,-215 244.22,-208.96 242.47,-202.33 240.91,-197.22"/>
<polygon fill="#63b8ff" stroke="#63b8ff" points="187.73,-292.39 180.3,-299.94 190.82,-298.67 187.73,-292.39"/>
</a>
</g>
</g>
<!-- Node5 -->
<g id="Node000005" class="node">
<title>Node5</title>
<g id="a_Node000005"><a xlink:href="classmim_1_1Stage.html" target="_top" xlink:title="Common base for Phase and Pass.">
<polygon fill="white" stroke="#666666" points="195.5,-375 122.5,-375 122.5,-356 195.5,-356 195.5,-375"/>
<text text-anchor="middle" x="159" y="-363" font-family="Helvetica,sans-Serif" font-size="10.00">mim::Stage</text>
</a>
</g>
</g>
<!-- Node5&#45;&gt;Node4 -->
<g id="edge4_Node000004_Node000005" class="edge">
<title>Node5&#45;&gt;Node4</title>
<g id="a_edge4_Node000004_Node000005"><a xlink:title=" ">
<path fill="none" stroke="#63b8ff" d="M159,-345.3C159,-336.41 159,-326.28 159,-319.25"/>
<polygon fill="#63b8ff" stroke="#63b8ff" points="155.5,-345.58 159,-355.58 162.5,-345.58 155.5,-345.58"/>
</a>
</g>
</g>
<!-- Node6 -->
<g id="Node000006" class="node">
<title>Node6</title>
<g id="a_Node000006"><a xlink:title=" ">
<polygon fill="white" stroke="#666666" points="232,-431 86,-431 86,-412 232,-412 232,-431"/>
<text text-anchor="middle" x="159" y="-419" font-family="Helvetica,sans-Serif" font-size="10.00">fe::RuntimeCast&lt; Stage &gt;</text>
</a>
</g>
</g>
<!-- Node6&#45;&gt;Node5 -->
<g id="edge5_Node000005_Node000006" class="edge">
<title>Node6&#45;&gt;Node5</title>
<g id="a_edge5_Node000005_Node000006"><a xlink:title=" ">
<path fill="none" stroke="#63b8ff" d="M159,-401.3C159,-392.41 159,-382.28 159,-375.25"/>
<polygon fill="#63b8ff" stroke="#63b8ff" points="155.5,-401.58 159,-411.58 162.5,-401.58 155.5,-401.58"/>
</a>
</g>
</g>
<!-- Node7&#45;&gt;Node3 -->
<g id="edge6_Node000003_Node000007" class="edge">
<title>Node7&#45;&gt;Node3</title>
<g id="a_edge6_Node000003_Node000007"><a xlink:title=" ">
<path fill="none" stroke="orange" stroke-dasharray="5,2" d="M125.05,-239.8C117.35,-236.03 109.52,-231.43 103,-226 93.26,-217.89 85.26,-205.51 80.56,-197.21"/>
<polygon fill="orange" stroke="orange" points="123.73,-243.05 134.28,-243.98 126.62,-236.67 123.73,-243.05"/>
</a>
</g>
<text text-anchor="middle" x="139.5" y="-218" font-family="Helvetica,sans-Serif" font-size="10.00" fill="grey"> &lt; SSA, Lam &gt;</text>
</g>
<!-- Node7&#45;&gt;Node9 -->
<g id="edge11_Node000009_Node000007" class="edge">
<title>Node7&#45;&gt;Node9</title>
<g id="a_edge11_Node000009_Node000007"><a xlink:title=" ">
<path fill="none" stroke="orange" stroke-dasharray="5,2" d="M170.61,-235.81C175.98,-228.84 182.78,-220.99 190,-215 198.65,-207.83 209.52,-201.64 218.73,-197.05"/>
<polygon fill="orange" stroke="orange" points="167.72,-233.83 164.63,-243.97 173.37,-237.97 167.72,-233.83"/>
</a>
</g>
<text text-anchor="middle" x="217.5" y="-218" font-family="Helvetica,sans-Serif" font-size="10.00" fill="grey"> &lt; P, Def &gt;</text>
</g>
<!-- Node8 -->
<g id="Node000008" class="node">
<title>Node8</title>
<g id="a_Node000008"><a xlink:href="classmim_1_1FPPass.html" target="_top" xlink:title="Inherit from this class using CRTP, if you do need a Pass with a state and a fixed&#45;point.">
<polygon fill="white" stroke="#666666" points="280,-141 158,-141 158,-122 280,-122 280,-141"/>
<text text-anchor="middle" x="219" y="-129" font-family="Helvetica,sans-Serif" font-size="10.00">mim::FPPass&lt; P, M &gt;</text>
</a>
</g>
</g>
<!-- Node8&#45;&gt;Node2 -->
<g id="edge8_Node000002_Node000008" class="edge">
<title>Node8&#45;&gt;Node2</title>
<g id="a_edge8_Node000002_Node000008"><a xlink:title=" ">
<path fill="none" stroke="orange" stroke-dasharray="5,2" d="M198.15,-115.83C180.3,-103.28 155.2,-85.63 140.37,-75.2"/>
<polygon fill="orange" stroke="orange" points="196.53,-118.98 206.73,-121.87 200.56,-113.25 196.53,-118.98"/>
</a>
</g>
<text text-anchor="middle" x="215.5" y="-96" font-family="Helvetica,sans-Serif" font-size="10.00" fill="grey"> &lt; SSA, Lam &gt;</text>
</g>
<!-- Node9&#45;&gt;Node8 -->
<g id="edge9_Node000008_Node000009" class="edge">
<title>Node9&#45;&gt;Node8</title>
<g id="a_edge9_Node000008_Node000009"><a xlink:title=" ">
<path fill="none" stroke="#63b8ff" d="M231.45,-167.9C228.28,-158.86 224.61,-148.44 222.08,-141.25"/>
<polygon fill="#63b8ff" stroke="#63b8ff" points="228.24,-169.31 234.86,-177.58 234.85,-166.99 228.24,-169.31"/>
</a>
</g>
</g>
</g>
</svg>
