<?xml version="1.0" encoding="UTF-8" standalone="no"?>
<!DOCTYPE svg PUBLIC "-//W3C//DTD SVG 1.1//EN"
 "http://www.w3.org/Graphics/SVG/1.1/DTD/svg11.dtd">
<!-- Generated by graphviz version 2.43.0 (0)
 -->
<!-- Title: mim::Phase Pages: 1 -->
<!--zoomable 522 -->

<svg id="main" version="1.1" xmlns="http://www.w3.org/2000/svg" xmlns:xlink="http://www.w3.org/1999/xlink" xml:space="preserve" onload="init(evt)">

<style type="text/css"><![CDATA[
.node, .edge {opacity: 0.7;}
.node.selected, .edge.selected {opacity: 1;}
.edge:hover path { stroke: red; }
.edge:hover polygon { stroke: red; fill: red; }
]]></style>

<defs>
  <circle id="rim" cx="0" cy="0" r="7"/>
  <circle id="rim2" cx="0" cy="0" r="3.5"/>
  <g id="zoomPlus">
    <use xlink:href="#rim" fill="#404040"><set attributeName="fill" to="#808080" begin="zoomplus.mouseover" end="zoomplus.mouseout"/></use>
    <path d="M-4,0h8M0,-4v8" fill="none" stroke="white" stroke-width="1.5" pointer-events="none"/>
  </g>
  <g id="zoomMin">
    <use xlink:href="#rim" fill="#404040"><set attributeName="fill" to="#808080" begin="zoomminus.mouseover" end="zoomminus.mouseout"/></use>
    <path d="M-4,0h8" fill="none" stroke="white" stroke-width="1.5" pointer-events="none"/>
  </g>
  <g id="arrowUp" transform="translate(30 24)">
    <use xlink:href="#rim"/>
    <path pointer-events="none" fill="none" stroke="white" stroke-width="1.5" d="M0,-3.0v7 M-2.5,-0.5L0,-3.0L2.5,-0.5"/>
  </g>
  <g id="arrowRight" transform="rotate(90) translate(36 -43)">
    <use xlink:href="#rim"/>
    <path pointer-events="none" fill="none" stroke="white" stroke-width="1.5" d="M0,-3.0v7 M-2.5,-0.5L0,-3.0L2.5,-0.5"/>
  </g>
  <g id="arrowDown" transform="rotate(180) translate(-30 -48)">
    <use xlink:href="#rim"/>
    <path pointer-events="none" fill="none" stroke="white" stroke-width="1.5" d="M0,-3.0v7 M-2.5,-0.5L0,-3.0L2.5,-0.5"/>
  </g>
  <g id="arrowLeft" transform="rotate(270) translate(-36 17)">
    <use xlink:href="#rim"/>
    <path pointer-events="none" fill="none" stroke="white" stroke-width="1.5" d="M0,-3.0v7 M-2.5,-0.5L0,-3.0L2.5,-0.5"/>
  </g>
  <g id="resetDef">
    <use xlink:href="#rim2" fill="#404040"><set attributeName="fill" to="#808080" begin="reset.mouseover" end="reset.mouseout"/></use>
  </g>
</defs>
<script type="application/ecmascript">
var viewWidth = 1773;
var viewHeight = 522;
var sectionId = 'dynsection-0';
</script>
<script type="application/ecmascript" xlink:href="svg.min.js"/>
<svg id="graph" class="graph">
<g id="viewport">
<title>mim::Phase</title>
<!-- Node1 -->
<g id="Node000001" class="node">
<title>Node1</title>
<g id="a_Node000001"><a xlink:title="As opposed to a Pass, a Phase does one thing at a time and does not mix with other Phases.">
<polygon fill="#999999" stroke="#666666" points="367,-343.5 293,-343.5 293,-324.5 367,-324.5 367,-343.5"/>
<text text-anchor="middle" x="330" y="-331.5" font-family="Helvetica,sans-Serif" font-size="10.00">mim::Phase</text>
</a>
</g>
</g>
<!-- Node4 -->
<g id="Node000004" class="node">
<title>Node4</title>
<g id="a_Node000004"><a xlink:href="classmim_1_1ClosedMutPhase.html" target="_top" xlink:title=" ">
<polygon fill="white" stroke="#666666" points="805,-508 679,-508 679,-478 805,-478 805,-508"/>
<text text-anchor="start" x="687" y="-496" font-family="Helvetica,sans-Serif" font-size="10.00">mim::ClosedMutPhase</text>
<text text-anchor="middle" x="742" y="-485" font-family="Helvetica,sans-Serif" font-size="10.00">&lt; Lam &gt;</text>
</a>
</g>
</g>
<!-- Node1&#45;&gt;Node4 -->
<g id="edge3_Node000001_Node000004" class="edge">
<title>Node1&#45;&gt;Node4</title>
<g id="a_edge3_Node000001_Node000004"><a xlink:title=" ">
<path fill="none" stroke="#63b8ff" d="M335.11,-353.77C342.69,-384.63 362.1,-443.35 404,-469 488.04,-520.45 606.91,-514.71 678.71,-504.68"/>
<polygon fill="#63b8ff" stroke="#63b8ff" points="338.46,-352.75 332.83,-343.78 331.64,-354.31 338.46,-352.75"/>
</a>
</g>
</g>
<!-- Node10 -->
<g id="Node000010" class="node">
<title>Node10</title>
<g id="a_Node000010"><a xlink:href="classmim_1_1ClosedMutPhase.html" target="_top" xlink:title=" ">
<polygon fill="white" stroke="#666666" points="805,-460 679,-460 679,-430 805,-430 805,-460"/>
<text text-anchor="start" x="687" y="-448" font-family="Helvetica,sans-Serif" font-size="10.00">mim::ClosedMutPhase</text>
<text text-anchor="middle" x="742" y="-437" font-family="Helvetica,sans-Serif" font-size="10.00">&lt; Def &gt;</text>
</a>
</g>
</g>
<!-- Node1&#45;&gt;Node10 -->
<g id="edge10_Node000001_Node000010" class="edge">
<title>Node1&#45;&gt;Node10</title>
<g id="a_edge10_Node000001_Node000010"><a xlink:title=" ">
<path fill="none" stroke="#63b8ff" d="M347.68,-350.71C361.54,-363.57 382.43,-380.67 404,-390 452.29,-410.88 595.63,-429.25 678.99,-438.55"/>
<polygon fill="#63b8ff" stroke="#63b8ff" points="350.02,-348.11 340.37,-343.72 345.18,-353.16 350.02,-348.11"/>
</a>
</g>
</g>
<!-- Node12 -->
<g id="Node000012" class="node">
<title>Node12</title>
<g id="a_Node000012"><a xlink:href="classmim_1_1Analysis.html" target="_top" xlink:title="This Phase will recursively Rewriter::rewrite.">
<polygon fill="white" stroke="#666666" points="535,-380.5 449,-380.5 449,-361.5 535,-361.5 535,-380.5"/>
<text text-anchor="middle" x="492" y="-368.5" font-family="Helvetica,sans-Serif" font-size="10.00">mim::Analysis</text>
</a>
</g>
</g>
<!-- Node1&#45;&gt;Node12 -->
<g id="edge13_Node000001_Node000012" class="edge">
<title>Node1&#45;&gt;Node12</title>
<g id="a_edge13_Node000001_Node000012"><a xlink:title=" ">
<path fill="none" stroke="#63b8ff" d="M376.9,-346.03C379.64,-346.71 382.35,-347.37 385,-348 405.98,-352.99 429.39,-358.12 448.87,-362.26"/>
<polygon fill="#63b8ff" stroke="#63b8ff" points="377.52,-342.58 366.97,-343.54 375.81,-349.37 377.52,-342.58"/>
</a>
</g>
</g>
<!-- Node13 -->
<g id="Node000013" class="node">
<title>Node13</title>
<g id="a_Node000013"><a xlink:href="classmim_1_1ClosedMutPhase.html" target="_top" xlink:title="Transitively visits all reachable, closed mutables in the World.">
<polygon fill="white" stroke="#666666" points="571,-459.5 413,-459.5 413,-440.5 571,-440.5 571,-459.5"/>
<text text-anchor="middle" x="492" y="-447.5" font-family="Helvetica,sans-Serif" font-size="10.00">mim::ClosedMutPhase&lt; M &gt;</text>
</a>
</g>
</g>
<!-- Node1&#45;&gt;Node13 -->
<g id="edge14_Node000001_Node000013" class="edge">
<title>Node1&#45;&gt;Node13</title>
<g id="a_edge14_Node000001_Node000013"><a xlink:title=" ">
<path fill="none" stroke="#63b8ff" d="M337.01,-353.08C344.69,-374.23 360.06,-407.76 385,-426 393.61,-432.29 403.58,-436.98 413.89,-440.46"/>
<polygon fill="#63b8ff" stroke="#63b8ff" points="340.31,-351.89 333.77,-343.55 333.68,-354.14 340.31,-351.89"/>
</a>
</g>
</g>
<!-- Node14 -->
<g id="Node000014" class="node">
<title>Node14</title>
<g id="a_Node000014"><a xlink:href="classmim_1_1PassManPhase.html" target="_top" xlink:title="Wraps a PassMan pipeline as a Phase.">
<polygon fill="white" stroke="#666666" points="550.5,-343.5 433.5,-343.5 433.5,-324.5 550.5,-324.5 550.5,-343.5"/>
<text text-anchor="middle" x="492" y="-331.5" font-family="Helvetica,sans-Serif" font-size="10.00">mim::PassManPhase</text>
</a>
</g>
</g>
<!-- Node1&#45;&gt;Node14 -->
<g id="edge17_Node000001_Node000014" class="edge">
<title>Node1&#45;&gt;Node14</title>
<g id="a_edge17_Node000001_Node000014"><a xlink:title=" ">
<path fill="none" stroke="#63b8ff" d="M377.79,-334C395.22,-334 415.21,-334 433.5,-334"/>
<polygon fill="#63b8ff" stroke="#63b8ff" points="377.31,-330.5 367.31,-334 377.31,-337.5 377.31,-330.5"/>
</a>
</g>
</g>
<!-- Node15 -->
<g id="Node000015" class="node">
<title>Node15</title>
<g id="a_Node000015"><a xlink:href="classmim_1_1PhaseMan.html" target="_top" xlink:title="Organizes several Phases in a a pipeline.">
<polygon fill="white" stroke="#666666" points="539.5,-306.5 444.5,-306.5 444.5,-287.5 539.5,-287.5 539.5,-306.5"/>
<text text-anchor="middle" x="492" y="-294.5" font-family="Helvetica,sans-Serif" font-size="10.00">mim::PhaseMan</text>
</a>
</g>
</g>
<!-- Node1&#45;&gt;Node15 -->
<g id="edge18_Node000001_Node000015" class="edge">
<title>Node1&#45;&gt;Node15</title>
<g id="a_edge18_Node000001_Node000015"><a xlink:title=" ">
<path fill="none" stroke="#63b8ff" d="M375.99,-321.91C385.23,-319.53 394.92,-317.12 404,-315 417.07,-311.95 431.3,-308.89 444.4,-306.19"/>
<polygon fill="#63b8ff" stroke="#63b8ff" points="374.98,-318.55 366.18,-324.46 376.74,-325.33 374.98,-318.55"/>
</a>
</g>
</g>
<!-- Node16 -->
<g id="Node000016" class="node">
<title>Node16</title>
<g id="a_Node000016"><a xlink:href="classmim_1_1RWPhase.html" target="_top" xlink:title="Rewrites the RWPhase::old_world into the RWPhase::new_world and swaps them afterwards.">
<polygon fill="white" stroke="#666666" points="537.5,-265.5 446.5,-265.5 446.5,-246.5 537.5,-246.5 537.5,-265.5"/>
<text text-anchor="middle" x="492" y="-253.5" font-family="Helvetica,sans-Serif" font-size="10.00">mim::RWPhase</text>
</a>
</g>
</g>
<!-- Node1&#45;&gt;Node16 -->
<g id="edge19_Node000001_Node000016" class="edge">
<title>Node1&#45;&gt;Node16</title>
<g id="a_edge19_Node000001_Node000016"><a xlink:title=" ">
<path fill="none" stroke="#63b8ff" d="M348.38,-317.36C362.37,-304.82 383.09,-288.13 404,-278 417.18,-271.62 432.41,-266.95 446.41,-263.61"/>
<polygon fill="#63b8ff" stroke="#63b8ff" points="345.96,-314.83 340.97,-324.17 350.7,-319.98 345.96,-314.83"/>
</a>
</g>
</g>
<!-- Node28 -->
<g id="Node000028" class="node">
<title>Node28</title>
<g id="a_Node000028"><a xlink:href="classmim_1_1plug_1_1clos_1_1ClosConv.html" target="_top" xlink:title="Performs typed closure conversion.">
<polygon fill="white" stroke="#666666" points="563.5,-228.5 420.5,-228.5 420.5,-209.5 563.5,-209.5 563.5,-228.5"/>
<text text-anchor="middle" x="492" y="-216.5" font-family="Helvetica,sans-Serif" font-size="10.00">mim::plug::clos::ClosConv</text>
</a>
</g>
</g>
<!-- Node1&#45;&gt;Node28 -->
<g id="edge31_Node000001_Node000028" class="edge">
<title>Node1&#45;&gt;Node28</title>
<g id="a_edge31_Node000001_Node000028"><a xlink:title=" ">
<path fill="none" stroke="#63b8ff" d="M339.76,-315.34C351.26,-293.02 373.59,-256.27 404,-237 409.34,-233.61 415.2,-230.85 421.28,-228.6"/>
<polygon fill="#63b8ff" stroke="#63b8ff" points="336.55,-313.94 335.26,-324.46 342.82,-317.04 336.55,-313.94"/>
</a>
</g>
</g>
<!-- Node29 -->
<g id="Node000029" class="node">
<title>Node29</title>
<g id="a_Node000029"><a xlink:href="classmim_1_1plug_1_1clos_1_1LowerTypedClos.html" target="_top" xlink:title="This pass lowers typed closures to untyped closures.">
<polygon fill="white" stroke="#666666" points="580,-191.5 404,-191.5 404,-172.5 580,-172.5 580,-191.5"/>
<text text-anchor="middle" x="492" y="-179.5" font-family="Helvetica,sans-Serif" font-size="10.00">mim::plug::clos::LowerTypedClos</text>
</a>
</g>
</g>
<!-- Node1&#45;&gt;Node29 -->
<g id="edge32_Node000001_Node000029" class="edge">
<title>Node1&#45;&gt;Node29</title>
<g id="a_edge32_Node000001_Node000029"><a xlink:title=" ">
<path fill="none" stroke="#63b8ff" d="M335.97,-314.41C344.56,-284.74 365.13,-228.82 404,-200 408.58,-196.6 413.66,-193.81 418.99,-191.52"/>
<polygon fill="#63b8ff" stroke="#63b8ff" points="332.5,-313.81 333.25,-324.38 339.26,-315.65 332.5,-313.81"/>
</a>
</g>
</g>
<!-- Node2 -->
<g id="Node000002" class="node">
<title>Node2</title>
<g id="a_Node000002"><a xlink:href="classmim_1_1Stage.html" target="_top" xlink:title="Common base for Phase and Pass.">
<polygon fill="white" stroke="#666666" points="256,-343.5 183,-343.5 183,-324.5 256,-324.5 256,-343.5"/>
<text text-anchor="middle" x="219.5" y="-331.5" font-family="Helvetica,sans-Serif" font-size="10.00">mim::Stage</text>
</a>
</g>
</g>
<!-- Node2&#45;&gt;Node1 -->
<g id="edge1_Node000001_Node000002" class="edge">
<title>Node2&#45;&gt;Node1</title>
<g id="a_edge1_Node000001_Node000002"><a xlink:title=" ">
<path fill="none" stroke="#63b8ff" d="M266.19,-334C275.02,-334 284.17,-334 292.65,-334"/>
<polygon fill="#63b8ff" stroke="#63b8ff" points="266.03,-330.5 256.03,-334 266.03,-337.5 266.03,-330.5"/>
</a>
</g>
</g>
<!-- Node3 -->
<g id="Node000003" class="node">
<title>Node3</title>
<g id="a_Node000003"><a xlink:title=" ">
<polygon fill="white" stroke="#666666" points="146,-343.5 0,-343.5 0,-324.5 146,-324.5 146,-343.5"/>
<text text-anchor="middle" x="73" y="-331.5" font-family="Helvetica,sans-Serif" font-size="10.00">fe::RuntimeCast&lt; Stage &gt;</text>
</a>
</g>
</g>
<!-- Node3&#45;&gt;Node2 -->
<g id="edge2_Node000002_Node000003" class="edge">
<title>Node3&#45;&gt;Node2</title>
<g id="a_edge2_Node000002_Node000003"><a xlink:title=" ">
<path fill="none" stroke="#63b8ff" d="M156.34,-334C165.59,-334 174.61,-334 182.78,-334"/>
<polygon fill="#63b8ff" stroke="#63b8ff" points="156.25,-330.5 146.25,-334 156.25,-337.5 156.25,-330.5"/>
</a>
</g>
</g>
<!-- Node5 -->
<g id="Node000005" class="node">
<title>Node5</title>
<g id="a_Node000005"><a xlink:href="classmim_1_1NestPhase.html" target="_top" xlink:title=" ">
<polygon fill="white" stroke="#666666" points="1209,-481.5 1069,-481.5 1069,-462.5 1209,-462.5 1209,-481.5"/>
<text text-anchor="middle" x="1139" y="-469.5" font-family="Helvetica,sans-Serif" font-size="10.00">mim::NestPhase&lt; Lam &gt;</text>
</a>
</g>
</g>
<!-- Node4&#45;&gt;Node5 -->
<g id="edge4_Node000004_Node000005" class="edge">
<title>Node4&#45;&gt;Node5</title>
<g id="a_edge4_Node000004_Node000005"><a xlink:title=" ">
<path fill="none" stroke="#63b8ff" d="M815.38,-489.35C877.8,-486.18 970.35,-481.41 1051,-477 1056.74,-476.69 1062.69,-476.35 1068.67,-476.02"/>
<polygon fill="#63b8ff" stroke="#63b8ff" points="815.05,-485.86 805.24,-489.87 815.41,-492.86 815.05,-485.86"/>
</a>
</g>
</g>
<!-- Node6 -->
<g id="Node000006" class="node">
<title>Node6</title>
<g id="a_Node000006"><a xlink:href="classmim_1_1Emitter.html" target="_top" xlink:title=" ">
<polygon fill="white" stroke="#666666" points="1635,-513.5 1522,-513.5 1522,-472.5 1635,-472.5 1635,-513.5"/>
<text text-anchor="start" x="1530" y="-501.5" font-family="Helvetica,sans-Serif" font-size="10.00">mim::Emitter&lt; std::</text>
<text text-anchor="start" x="1530" y="-490.5" font-family="Helvetica,sans-Serif" font-size="10.00">string, std::string,</text>
<text text-anchor="middle" x="1578.5" y="-479.5" font-family="Helvetica,sans-Serif" font-size="10.00"> BB, Emitter &gt;</text>
</a>
</g>
</g>
<!-- Node5&#45;&gt;Node6 -->
<g id="edge5_Node000005_Node000006" class="edge">
<title>Node5&#45;&gt;Node6</title>
<g id="a_edge5_Node000005_Node000006"><a xlink:title=" ">
<path fill="none" stroke="#63b8ff" d="M1184.36,-484.01C1203.21,-488.61 1225.54,-493.37 1246,-496 1359.75,-510.63 1389.48,-507.21 1504,-501 1509.77,-500.69 1515.78,-500.24 1521.77,-499.71"/>
<polygon fill="#63b8ff" stroke="#63b8ff" points="1185.1,-480.59 1174.55,-481.57 1183.41,-487.39 1185.1,-480.59"/>
</a>
</g>
</g>
<!-- Node8 -->
<g id="Node000008" class="node">
<title>Node8</title>
<g id="a_Node000008"><a xlink:href="classmim_1_1Emitter.html" target="_top" xlink:title=" ">
<polygon fill="white" stroke="#666666" points="1373.5,-487 1251.5,-487 1251.5,-457 1373.5,-457 1373.5,-487"/>
<text text-anchor="start" x="1259.5" y="-475" font-family="Helvetica,sans-Serif" font-size="10.00">mim::Emitter&lt; Value,</text>
<text text-anchor="middle" x="1312.5" y="-464" font-family="Helvetica,sans-Serif" font-size="10.00"> Type, BB, Child &gt;</text>
</a>
</g>
</g>
<!-- Node5&#45;&gt;Node8 -->
<g id="edge7_Node000005_Node000008" class="edge">
<title>Node5&#45;&gt;Node8</title>
<g id="a_edge7_Node000005_Node000008"><a xlink:title=" ">
<path fill="none" stroke="#63b8ff" d="M1219.48,-472C1230.2,-472 1241.05,-472 1251.36,-472"/>
<polygon fill="#63b8ff" stroke="#63b8ff" points="1219.26,-468.5 1209.26,-472 1219.26,-475.5 1219.26,-468.5"/>
</a>
</g>
</g>
<!-- Node9 -->
<g id="Node000009" class="node">
<title>Node9</title>
<g id="a_Node000009"><a xlink:href="classmim_1_1plug_1_1mem_1_1phase_1_1AddMem.html" target="_top" xlink:title="This phase adds mems to all lambdas and continuations.">
<polygon fill="white" stroke="#666666" points="1379,-439 1246,-439 1246,-409 1379,-409 1379,-439"/>
<text text-anchor="start" x="1254" y="-427" font-family="Helvetica,sans-Serif" font-size="10.00">mim::plug::mem::phase</text>
<text text-anchor="middle" x="1312.5" y="-416" font-family="Helvetica,sans-Serif" font-size="10.00">::AddMem</text>
</a>
</g>
</g>
<!-- Node5&#45;&gt;Node9 -->
<g id="edge9_Node000005_Node000009" class="edge">
<title>Node5&#45;&gt;Node9</title>
<g id="a_edge9_Node000005_Node000009"><a xlink:title=" ">
<path fill="none" stroke="#63b8ff" d="M1184.21,-459.63C1206.63,-453.35 1234.04,-445.68 1257.68,-439.06"/>
<polygon fill="#63b8ff" stroke="#63b8ff" points="1182.98,-456.34 1174.29,-462.4 1184.87,-463.08 1182.98,-456.34"/>
</a>
</g>
</g>
<!-- Node7 -->
<g id="Node000007" class="node">
<title>Node7</title>
<g id="a_Node000007"><a xlink:href="classmim_1_1ll_1_1Emitter.html" target="_top" xlink:title=" ">
<polygon fill="white" stroke="#666666" points="1765,-502.5 1672,-502.5 1672,-483.5 1765,-483.5 1765,-502.5"/>
<text text-anchor="middle" x="1718.5" y="-490.5" font-family="Helvetica,sans-Serif" font-size="10.00">mim::ll::Emitter</text>
</a>
</g>
</g>
<!-- Node6&#45;&gt;Node7 -->
<g id="edge6_Node000006_Node000007" class="edge">
<title>Node6&#45;&gt;Node7</title>
<g id="a_edge6_Node000006_Node000007"><a xlink:title=" ">
<path fill="none" stroke="#63b8ff" d="M1645.27,-493C1654.21,-493 1663.23,-493 1671.72,-493"/>
<polygon fill="#63b8ff" stroke="#63b8ff" points="1645.23,-489.5 1635.23,-493 1645.23,-496.5 1645.23,-489.5"/>
</a>
</g>
</g>
<!-- Node8&#45;&gt;Node6 -->
<g id="edge8_Node000008_Node000006" class="edge">
<title>Node8&#45;&gt;Node6</title>
<g id="a_edge8_Node000008_Node000006"><a xlink:title=" ">
<path fill="none" stroke="orange" stroke-dasharray="5,2" d="M1384.13,-472.05C1420.11,-472.72 1464.49,-474.54 1504,-479 1509.81,-479.66 1515.85,-480.51 1521.85,-481.48"/>
<polygon fill="orange" stroke="orange" points="1383.79,-468.55 1373.73,-471.88 1383.68,-475.54 1383.79,-468.55"/>
</a>
</g>
<text text-anchor="start" x="1397" y="-493" font-family="Helvetica,sans-Serif" font-size="10.00" fill="grey"> &lt; std::string, std</text>
<text text-anchor="middle" x="1450.5" y="-482" font-family="Helvetica,sans-Serif" font-size="10.00" fill="grey">::string, BB, Emitter &gt;</text>
</g>
<!-- Node11 -->
<g id="Node000011" class="node">
<title>Node11</title>
<g id="a_Node000011"><a xlink:href="classmim_1_1NestPhase.html" target="_top" xlink:title="Like ClosedMutPhase but computes a Nest for each NestPhase::visit.">
<polygon fill="white" stroke="#666666" points="986,-461.5 858,-461.5 858,-442.5 986,-442.5 986,-461.5"/>
<text text-anchor="middle" x="922" y="-449.5" font-family="Helvetica,sans-Serif" font-size="10.00">mim::NestPhase&lt; M &gt;</text>
</a>
</g>
</g>
<!-- Node10&#45;&gt;Node11 -->
<g id="edge11_Node000010_Node000011" class="edge">
<title>Node10&#45;&gt;Node11</title>
<g id="a_edge11_Node000010_Node000011"><a xlink:title=" ">
<path fill="none" stroke="#63b8ff" d="M815.39,-447.85C829.47,-448.4 844.12,-448.98 857.88,-449.52"/>
<polygon fill="#63b8ff" stroke="#63b8ff" points="815.39,-444.34 805.26,-447.45 815.11,-451.34 815.39,-444.34"/>
</a>
</g>
</g>
<!-- Node11&#45;&gt;Node5 -->
<g id="edge12_Node000011_Node000005" class="edge">
<title>Node11&#45;&gt;Node5</title>
<g id="a_edge12_Node000011_Node000005"><a xlink:title=" ">
<path fill="none" stroke="orange" stroke-dasharray="5,2" d="M996.31,-458.82C1019.81,-461.01 1045.74,-463.42 1068.93,-465.57"/>
<polygon fill="orange" stroke="orange" points="996.34,-455.31 986.05,-457.87 995.69,-462.28 996.34,-455.31"/>
</a>
</g>
<text text-anchor="middle" x="1027.5" y="-466" font-family="Helvetica,sans-Serif" font-size="10.00" fill="grey"> &lt; Lam &gt;</text>
</g>
<!-- Node13&#45;&gt;Node4 -->
<g id="edge15_Node000013_Node000004" class="edge">
<title>Node13&#45;&gt;Node4</title>
<g id="a_edge15_Node000013_Node000004"><a xlink:title=" ">
<path fill="none" stroke="orange" stroke-dasharray="5,2" d="M558.28,-461.32C595.53,-467.78 641.96,-475.83 678.69,-482.2"/>
<polygon fill="orange" stroke="orange" points="558.49,-457.8 548.04,-459.54 557.29,-464.7 558.49,-457.8"/>
</a>
</g>
<text text-anchor="middle" x="621.5" y="-478" font-family="Helvetica,sans-Serif" font-size="10.00" fill="grey"> &lt; Lam &gt;</text>
</g>
<!-- Node13&#45;&gt;Node10 -->
<g id="edge16_Node000013_Node000010" class="edge">
<title>Node13&#45;&gt;Node10</title>
<g id="a_edge16_Node000013_Node000010"><a xlink:title=" ">
<path fill="none" stroke="orange" stroke-dasharray="5,2" d="M581.4,-446.44C587.02,-446.27 592.59,-446.12 598,-446 624.43,-445.4 653.62,-445.13 678.7,-445.02"/>
<polygon fill="orange" stroke="orange" points="581.14,-442.94 571.26,-446.75 581.36,-449.94 581.14,-442.94"/>
</a>
</g>
<text text-anchor="middle" x="621.5" y="-449" font-family="Helvetica,sans-Serif" font-size="10.00" fill="grey"> &lt; Def &gt;</text>
</g>
<!-- Node17 -->
<g id="Node000017" class="node">
<title>Node17</title>
<g id="a_Node000017"><a xlink:href="classmim_1_1BetaRedPhase.html" target="_top" xlink:title="Inlines in post&#45;order all Lams that occur exactly once in the program.">
<polygon fill="white" stroke="#666666" points="800,-411.5 684,-411.5 684,-392.5 800,-392.5 800,-411.5"/>
<text text-anchor="middle" x="742" y="-399.5" font-family="Helvetica,sans-Serif" font-size="10.00">mim::BetaRedPhase</text>
</a>
</g>
</g>
<!-- Node16&#45;&gt;Node17 -->
<g id="edge20_Node000016_Node000017" class="edge">
<title>Node16&#45;&gt;Node17</title>
<g id="a_edge20_Node000016_Node000017"><a xlink:title=" ">
<path fill="none" stroke="#63b8ff" d="M547.6,-260.76C559.5,-264.09 571.16,-269.46 580,-278 600.64,-297.93 581.12,-316.8 598,-340 618.53,-368.21 631.02,-370.06 663,-384 670.77,-387.39 679.27,-390.18 687.7,-392.47"/>
<polygon fill="#63b8ff" stroke="#63b8ff" points="548.15,-257.29 537.61,-258.41 546.54,-264.1 548.15,-257.29"/>
</a>
</g>
</g>
<!-- Node18 -->
<g id="Node000018" class="node">
<title>Node18</title>
<g id="a_Node000018"><a xlink:href="classmim_1_1BranchNormalizePhase.html" target="_top" xlink:title="Inlines in post&#45;order all Lams that occur exactly once in the program.">
<polygon fill="white" stroke="#666666" points="821,-374.5 663,-374.5 663,-355.5 821,-355.5 821,-374.5"/>
<text text-anchor="middle" x="742" y="-362.5" font-family="Helvetica,sans-Serif" font-size="10.00">mim::BranchNormalizePhase</text>
</a>
</g>
</g>
<!-- Node16&#45;&gt;Node18 -->
<g id="edge21_Node000016_Node000018" class="edge">
<title>Node16&#45;&gt;Node18</title>
<g id="a_edge21_Node000016_Node000018"><a xlink:title=" ">
<path fill="none" stroke="#63b8ff" d="M547.76,-262.6C559.24,-265.88 570.67,-270.76 580,-278 593.2,-288.24 586.15,-299.22 598,-311 621.26,-334.14 632.37,-334.24 663,-346 672.63,-349.7 683.21,-352.84 693.39,-355.45"/>
<polygon fill="#63b8ff" stroke="#63b8ff" points="548.27,-259.12 537.72,-260.1 546.59,-265.91 548.27,-259.12"/>
</a>
</g>
</g>
<!-- Node19 -->
<g id="Node000019" class="node">
<title>Node19</title>
<g id="a_Node000019"><a xlink:href="classmim_1_1Cleanup.html" target="_top" xlink:title="Removes unreachable and dead code by rebuilding the whole World into a new one and swapping them afte...">
<polygon fill="white" stroke="#666666" points="784.5,-337.5 699.5,-337.5 699.5,-318.5 784.5,-318.5 784.5,-337.5"/>
<text text-anchor="middle" x="742" y="-325.5" font-family="Helvetica,sans-Serif" font-size="10.00">mim::Cleanup</text>
</a>
</g>
</g>
<!-- Node16&#45;&gt;Node19 -->
<g id="edge22_Node000016_Node000019" class="edge">
<title>Node16&#45;&gt;Node19</title>
<g id="a_edge22_Node000016_Node000019"><a xlink:title=" ">
<path fill="none" stroke="#63b8ff" d="M547.57,-267.12C558.51,-270.09 569.77,-273.7 580,-278 588.64,-281.63 589.45,-285.15 598,-289 625.55,-301.42 633.86,-300.98 663,-309 674.96,-312.29 688.03,-315.59 700,-318.5"/>
<polygon fill="#63b8ff" stroke="#63b8ff" points="548.21,-263.67 537.65,-264.57 546.47,-270.45 548.21,-263.67"/>
</a>
</g>
</g>
<!-- Node20 -->
<g id="Node000020" class="node">
<title>Node20</title>
<g id="a_Node000020"><a xlink:href="classmim_1_1EtaExpPhase.html" target="_top" xlink:title="This phase takes care that Lamdas appear either only in callee position (Known) or not (Unknown).">
<polygon fill="white" stroke="#666666" points="796,-300.5 688,-300.5 688,-281.5 796,-281.5 796,-300.5"/>
<text text-anchor="middle" x="742" y="-288.5" font-family="Helvetica,sans-Serif" font-size="10.00">mim::EtaExpPhase</text>
</a>
</g>
</g>
<!-- Node16&#45;&gt;Node20 -->
<g id="edge23_Node000016_Node000020" class="edge">
<title>Node16&#45;&gt;Node20</title>
<g id="a_edge23_Node000016_Node000020"><a xlink:title=" ">
<path fill="none" stroke="#63b8ff" d="M547.6,-263.71C589.26,-269.58 646.34,-277.64 687.68,-283.47"/>
<polygon fill="#63b8ff" stroke="#63b8ff" points="548.01,-260.23 537.62,-262.3 547.04,-267.16 548.01,-260.23"/>
</a>
</g>
</g>
<!-- Node21 -->
<g id="Node000021" class="node">
<title>Node21</title>
<g id="a_Node000021"><a xlink:href="classmim_1_1EtaRedPhase.html" target="_top" xlink:title="Inlines in post&#45;order all Lams that occur exactly once in the program.">
<polygon fill="white" stroke="#666666" points="796.5,-263.5 687.5,-263.5 687.5,-244.5 796.5,-244.5 796.5,-263.5"/>
<text text-anchor="middle" x="742" y="-251.5" font-family="Helvetica,sans-Serif" font-size="10.00">mim::EtaRedPhase</text>
</a>
</g>
</g>
<!-- Node16&#45;&gt;Node21 -->
<g id="edge24_Node000016_Node000021" class="edge">
<title>Node16&#45;&gt;Node21</title>
<g id="a_edge24_Node000016_Node000021"><a xlink:title=" ">
<path fill="none" stroke="#63b8ff" d="M547.83,-255.56C589.32,-255.22 646.01,-254.77 687.23,-254.43"/>
<polygon fill="#63b8ff" stroke="#63b8ff" points="547.6,-252.06 537.62,-255.64 547.65,-259.06 547.6,-252.06"/>
</a>
</g>
</g>
<!-- Node22 -->
<g id="Node000022" class="node">
<title>Node22</title>
<g id="a_Node000022"><a xlink:href="classmim_1_1PrefixCleanup.html" target="_top" xlink:title=" ">
<polygon fill="white" stroke="#666666" points="798.5,-226.5 685.5,-226.5 685.5,-207.5 798.5,-207.5 798.5,-226.5"/>
<text text-anchor="middle" x="742" y="-214.5" font-family="Helvetica,sans-Serif" font-size="10.00">mim::PrefixCleanup</text>
</a>
</g>
</g>
<!-- Node16&#45;&gt;Node22 -->
<g id="edge25_Node000016_Node000022" class="edge">
<title>Node16&#45;&gt;Node22</title>
<g id="a_edge25_Node000016_Node000022"><a xlink:title=" ">
<path fill="none" stroke="#63b8ff" d="M547.69,-247.4C588.59,-240.97 644.33,-232.2 685.44,-225.74"/>
<polygon fill="#63b8ff" stroke="#63b8ff" points="546.96,-243.97 537.62,-248.98 548.05,-250.89 546.96,-243.97"/>
</a>
</g>
</g>
<!-- Node23 -->
<g id="Node000023" class="node">
<title>Node23</title>
<g id="a_Node000023"><a xlink:href="classmim_1_1ReplManPhase.html" target="_top" xlink:title=" ">
<polygon fill="white" stroke="#666666" points="800.5,-189.5 683.5,-189.5 683.5,-170.5 800.5,-170.5 800.5,-189.5"/>
<text text-anchor="middle" x="742" y="-177.5" font-family="Helvetica,sans-Serif" font-size="10.00">mim::ReplManPhase</text>
</a>
</g>
</g>
<!-- Node16&#45;&gt;Node23 -->
<g id="edge26_Node000016_Node000023" class="edge">
<title>Node16&#45;&gt;Node23</title>
<g id="a_edge26_Node000016_Node000023"><a xlink:title=" ">
<path fill="none" stroke="#63b8ff" d="M547.61,-246.04C558.46,-243.51 569.69,-240.5 580,-237 618.6,-223.9 624.48,-211.32 663,-198 672.33,-194.77 682.48,-191.95 692.28,-189.56"/>
<polygon fill="#63b8ff" stroke="#63b8ff" points="546.79,-242.64 537.78,-248.23 548.31,-249.47 546.79,-242.64"/>
</a>
</g>
</g>
<!-- Node24 -->
<g id="Node000024" class="node">
<title>Node24</title>
<g id="a_Node000024"><a xlink:href="classmim_1_1RetWrap.html" target="_top" xlink:title=" ">
<polygon fill="white" stroke="#666666" points="785.5,-152.5 698.5,-152.5 698.5,-133.5 785.5,-133.5 785.5,-152.5"/>
<text text-anchor="middle" x="742" y="-140.5" font-family="Helvetica,sans-Serif" font-size="10.00">mim::RetWrap</text>
</a>
</g>
</g>
<!-- Node16&#45;&gt;Node24 -->
<g id="edge27_Node000016_Node000024" class="edge">
<title>Node16&#45;&gt;Node24</title>
<g id="a_edge27_Node000016_Node000024"><a xlink:title=" ">
<path fill="none" stroke="#63b8ff" d="M547.83,-251.63C559.29,-248.72 570.71,-244.14 580,-237 593.87,-226.34 586.19,-214.9 598,-202 621.07,-176.81 631.47,-174.14 663,-161 674.16,-156.35 686.74,-152.78 698.49,-150.1"/>
<polygon fill="#63b8ff" stroke="#63b8ff" points="546.83,-248.26 537.79,-253.77 548.3,-255.11 546.83,-248.26"/>
</a>
</g>
</g>
<!-- Node25 -->
<g id="Node000025" class="node">
<title>Node25</title>
<g id="a_Node000025"><a xlink:href="classmim_1_1SCCP.html" target="_top" xlink:title="Sparse Conditional Constant Propagation.">
<polygon fill="white" stroke="#666666" points="777.5,-115.5 706.5,-115.5 706.5,-96.5 777.5,-96.5 777.5,-115.5"/>
<text text-anchor="middle" x="742" y="-103.5" font-family="Helvetica,sans-Serif" font-size="10.00">mim::SCCP</text>
</a>
</g>
</g>
<!-- Node16&#45;&gt;Node25 -->
<g id="edge28_Node000016_Node000025" class="edge">
<title>Node16&#45;&gt;Node25</title>
<g id="a_edge28_Node000016_Node000025"><a xlink:title=" ">
<path fill="none" stroke="#63b8ff" d="M547.73,-253.5C559.62,-250.56 571.25,-245.5 580,-237 603.67,-214.03 578.66,-191.72 598,-165 623.19,-130.19 672.76,-115.85 706.38,-109.98"/>
<polygon fill="#63b8ff" stroke="#63b8ff" points="546.86,-250.11 537.74,-255.5 548.23,-256.97 546.86,-250.11"/>
</a>
</g>
</g>
<!-- Node26 -->
<g id="Node000026" class="node">
<title>Node26</title>
<g id="a_Node000026"><a xlink:href="classmim_1_1plug_1_1affine_1_1phase_1_1LowerFor.html" target="_top" xlink:title="Lowers the for axm to actual control flow in CPS.">
<polygon fill="white" stroke="#666666" points="795,-78 689,-78 689,-48 795,-48 795,-78"/>
<text text-anchor="start" x="697" y="-66" font-family="Helvetica,sans-Serif" font-size="10.00">mim::plug::affine::</text>
<text text-anchor="middle" x="742" y="-55" font-family="Helvetica,sans-Serif" font-size="10.00">phase::LowerFor</text>
</a>
</g>
</g>
<!-- Node16&#45;&gt;Node26 -->
<g id="edge29_Node000016_Node000026" class="edge">
<title>Node16&#45;&gt;Node26</title>
<g id="a_edge29_Node000016_Node000026"><a xlink:title=" ">
<path fill="none" stroke="#63b8ff" d="M547.9,-254.1C559.9,-251.16 571.53,-245.94 580,-237 614.37,-200.71 569.96,-167.37 598,-126 618.47,-95.79 656.9,-79.94 688.77,-71.69"/>
<polygon fill="#63b8ff" stroke="#63b8ff" points="546.94,-250.73 537.8,-256.07 548.28,-257.6 546.94,-250.73"/>
</a>
</g>
</g>
<!-- Node27 -->
<g id="Node000027" class="node">
<title>Node27</title>
<g id="a_Node000027"><a xlink:href="classmim_1_1plug_1_1matrix_1_1LowerMatrixLowLevel.html" target="_top" xlink:title="In this phase, we lower all matrix operations and types to the low&#45;level representation using pointer...">
<polygon fill="white" stroke="#666666" points="803.5,-30 680.5,-30 680.5,0 803.5,0 803.5,-30"/>
<text text-anchor="start" x="688.5" y="-18" font-family="Helvetica,sans-Serif" font-size="10.00">mim::plug::matrix::</text>
<text text-anchor="middle" x="742" y="-7" font-family="Helvetica,sans-Serif" font-size="10.00">LowerMatrixLowLevel</text>
</a>
</g>
</g>
<!-- Node16&#45;&gt;Node27 -->
<g id="edge30_Node000016_Node000027" class="edge">
<title>Node16&#45;&gt;Node27</title>
<g id="a_edge30_Node000016_Node000027"><a xlink:title=" ">
<path fill="none" stroke="#63b8ff" d="M547.46,-254.53C559.71,-251.62 571.56,-246.31 580,-237 625.71,-186.62 563.23,-143.47 598,-85 615.59,-55.42 649.89,-38.05 680.49,-28.02"/>
<polygon fill="#63b8ff" stroke="#63b8ff" points="546.79,-251.1 537.62,-256.39 548.09,-257.98 546.79,-251.1"/>
</a>
</g>
</g>
</g>
</svg>

<g id="navigator" transform="translate(0 0)" fill="#404254">
  <rect fill="#f2f5e9" fill-opacity="0.5" stroke="#606060" stroke-width=".5" x="0" y="0" width="60" height="60"/>
  <use id="zoomplus" xlink:href="#zoomPlus" x="17" y="9" onmousedown="handleZoom(evt,'in')"/>
  <use id="zoomminus" xlink:href="#zoomMin" x="42" y="9" onmousedown="handleZoom(evt,'out')"/>
  <use id="reset" xlink:href="#resetDef" x="30" y="36" onmousedown="handleReset()"/>
   <use id="arrowup" xlink:href="#arrowUp" x="0" y="0" onmousedown="handlePan(0,-1)"/>
  <use id="arrowright" xlink:href="#arrowRight" x="0" y="0" onmousedown="handlePan(1,0)"/>
  <use id="arrowdown" xlink:href="#arrowDown" x="0" y="0" onmousedown="handlePan(0,1)"/>
  <use id="arrowleft" xlink:href="#arrowLeft" x="0" y="0" onmousedown="handlePan(-1,0)"/>
</g>
<svg viewBox="0 0 15 15" width="100%" height="30px" preserveAspectRatio="xMaxYMin meet">
 <g id="arrow_out" transform="scale(0.3 0.3)">
  <a xlink:href="classmim_1_1Phase__inherit__graph_org.svg" target="_base">
   <rect id="button" ry="5" rx="5" y="6" x="6" height="38" width="38"
        fill="#f2f5e9" fill-opacity="0.5" stroke="#606060" stroke-width="1.0"/>
   <path id="arrow"
     d="M 11.500037,31.436501 C 11.940474,20.09759 22.043105,11.32322 32.158766,21.979434 L 37.068811,17.246167 C 37.068811,17.246167 37.088388,32 37.088388,32 L 22.160133,31.978069 C 22.160133,31.978069 26.997745,27.140456 26.997745,27.140456 C 18.528582,18.264221 13.291696,25.230495 11.500037,31.436501 z"
     style="fill:#404040;"/>
  </a>
 </g>
</svg>

<style type='text/css'>
<![CDATA[
[data-mouse-over-selected='false'] { opacity: 0.7; }
[data-mouse-over-selected='true']  { opacity: 1.0; }
]]>
</style>
<script type="application/ecmascript"><![CDATA[
document.addEventListener('DOMContentLoaded', (event) => {
  highlightEdges();
  highlightAdjacentNodes();
});
]]></script>
</svg>
