<?xml version="1.0" encoding="UTF-8" standalone="no"?>
<!DOCTYPE svg PUBLIC "-//W3C//DTD SVG 1.1//EN"
 "http://www.w3.org/Graphics/SVG/1.1/DTD/svg11.dtd">
<!-- Generated by graphviz version 2.43.0 (0)
 -->
<!-- Title: thorin::RWPhase Pages: 1 -->
<svg width="210pt" height="140pt"
 viewBox="0.00 0.00 209.50 140.00" xmlns="http://www.w3.org/2000/svg" xmlns:xlink="http://www.w3.org/1999/xlink">
<g id="graph0" class="graph" transform="scale(1 1) rotate(0) translate(4 136)">
<title>thorin::RWPhase</title>
<!-- Node1 -->
<g id="node1" class="node">
<title>Node1</title>
<g id="a_node1"><a xlink:title="Visits the current Phase::world and constructs a new RWPhase::world along the way.">
<polygon fill="#bfbfbf" stroke="black" points="52,-56.5 52,-75.5 149,-75.5 149,-56.5 52,-56.5"/>
<text text-anchor="middle" x="100.5" y="-63.5" font-family="Helvetica,sans-Serif" font-size="10.00">thorin::RWPhase</text>
</a>
</g>
</g>
<!-- Node4 -->
<g id="node4" class="node">
<title>Node4</title>
<g id="a_node4"><a xlink:href="classthorin_1_1Cleanup.html" target="_top" xlink:title="Removes unreachable and dead code by rebuilding the whole World into a new one and swapping afterward...">
<polygon fill="none" stroke="black" points="0,-0.5 0,-19.5 91,-19.5 91,-0.5 0,-0.5"/>
<text text-anchor="middle" x="45.5" y="-7.5" font-family="Helvetica,sans-Serif" font-size="10.00">thorin::Cleanup</text>
</a>
</g>
</g>
<!-- Node1&#45;&gt;Node4 -->
<g id="edge3" class="edge">
<title>Node1&#45;&gt;Node4</title>
<path fill="none" stroke="midnightblue" d="M84.21,-49C74.46,-39.43 62.45,-27.64 54.41,-19.75"/>
<polygon fill="midnightblue" stroke="midnightblue" points="81.83,-51.57 91.42,-56.08 86.73,-46.58 81.83,-51.57"/>
</g>
<!-- Node5 -->
<g id="node5" class="node">
<title>Node5</title>
<g id="a_node5"><a xlink:href="classthorin_1_1FPPhase.html" target="_top" xlink:title="Like a RWPhase but starts with a fixed&#45;point loop of FPPhase::analyze beforehand.">
<polygon fill="none" stroke="black" points="109.5,-0.5 109.5,-19.5 201.5,-19.5 201.5,-0.5 109.5,-0.5"/>
<text text-anchor="middle" x="155.5" y="-7.5" font-family="Helvetica,sans-Serif" font-size="10.00">thorin::FPPhase</text>
</a>
</g>
</g>
<!-- Node1&#45;&gt;Node5 -->
<g id="edge4" class="edge">
<title>Node1&#45;&gt;Node5</title>
<path fill="none" stroke="midnightblue" d="M116.79,-49C126.54,-39.43 138.55,-27.64 146.59,-19.75"/>
<polygon fill="midnightblue" stroke="midnightblue" points="114.27,-46.58 109.58,-56.08 119.17,-51.57 114.27,-46.58"/>
</g>
<!-- Node2 -->
<g id="node2" class="node">
<title>Node2</title>
<g id="a_node2"><a xlink:href="classthorin_1_1Phase.html" target="_top" xlink:title="As opposed to a Pass, a Phase does one thing at a time and does not mix with other Phases.">
<polygon fill="none" stroke="black" points="8.5,-112.5 8.5,-131.5 88.5,-131.5 88.5,-112.5 8.5,-112.5"/>
<text text-anchor="middle" x="48.5" y="-119.5" font-family="Helvetica,sans-Serif" font-size="10.00">thorin::Phase</text>
</a>
</g>
</g>
<!-- Node2&#45;&gt;Node1 -->
<g id="edge1" class="edge">
<title>Node2&#45;&gt;Node1</title>
<path fill="none" stroke="midnightblue" d="M64.18,-104.72C73.34,-95.2 84.55,-83.56 92.07,-75.75"/>
<polygon fill="midnightblue" stroke="midnightblue" points="61.5,-102.45 57.09,-112.08 66.54,-107.31 61.5,-102.45"/>
</g>
<!-- Node3 -->
<g id="node3" class="node">
<title>Node3</title>
<g id="a_node3"><a xlink:href="classthorin_1_1Rewriter.html" target="_top" xlink:title="Recurseivly rewrites part of a program into the provided World.">
<polygon fill="none" stroke="black" points="106.5,-112.5 106.5,-131.5 198.5,-131.5 198.5,-112.5 106.5,-112.5"/>
<text text-anchor="middle" x="152.5" y="-119.5" font-family="Helvetica,sans-Serif" font-size="10.00">thorin::Rewriter</text>
</a>
</g>
</g>
<!-- Node3&#45;&gt;Node1 -->
<g id="edge2" class="edge">
<title>Node3&#45;&gt;Node1</title>
<path fill="none" stroke="midnightblue" d="M136.82,-104.72C127.66,-95.2 116.45,-83.56 108.93,-75.75"/>
<polygon fill="midnightblue" stroke="midnightblue" points="134.46,-107.31 143.91,-112.08 139.5,-102.45 134.46,-107.31"/>
</g>
</g>
</svg>
