<?xml version="1.0" encoding="UTF-8" standalone="no"?>
<!DOCTYPE svg PUBLIC "-//W3C//DTD SVG 1.1//EN"
 "http://www.w3.org/Graphics/SVG/1.1/DTD/svg11.dtd">
<!-- Generated by graphviz version 2.43.0 (0)
 -->
<!-- Title: mim::EtaRed Pages: 1 -->
<svg width="294pt" height="473pt"
 viewBox="0.00 0.00 293.50 473.00" xmlns="http://www.w3.org/2000/svg" xmlns:xlink="http://www.w3.org/1999/xlink">
<g id="graph0" class="graph" transform="scale(1 1) rotate(0) translate(4 469)">
<title>mim::EtaRed</title>
<!-- Node1 -->
<g id="Node000001" class="node">
<title>Node1</title>
<g id="a_Node000001"><a xlink:title="Performs η&#45;reduction.">
<polygon fill="#999999" stroke="#666666" points="153,-19 73,-19 73,0 153,0 153,-19"/>
<text text-anchor="middle" x="113" y="-7" font-family="Helvetica,sans-Serif" font-size="10.00">mim::EtaRed</text>
</a>
</g>
</g>
<!-- Node2 -->
<g id="Node000002" class="node">
<title>Node2</title>
<g id="a_Node000002"><a xlink:href="classmim_1_1FPPass.html" target="_top" xlink:title=" ">
<polygon fill="white" stroke="#666666" points="177,-86 49,-86 49,-56 177,-56 177,-86"/>
<text text-anchor="start" x="57" y="-74" font-family="Helvetica,sans-Serif" font-size="10.00">mim::FPPass&lt; EtaRed,</text>
<text text-anchor="middle" x="113" y="-63" font-family="Helvetica,sans-Serif" font-size="10.00"> Def &gt;</text>
</a>
</g>
</g>
<!-- Node2&#45;&gt;Node1 -->
<g id="edge1_Node000001_Node000002" class="edge">
<title>Node2&#45;&gt;Node1</title>
<g id="a_edge1_Node000001_Node000002"><a xlink:title=" ">
<path fill="none" stroke="#63b8ff" d="M113,-45.79C113,-36.36 113,-26.15 113,-19.16"/>
<polygon fill="#63b8ff" stroke="#63b8ff" points="109.5,-45.9 113,-55.9 116.5,-45.9 109.5,-45.9"/>
</a>
</g>
</g>
<!-- Node3 -->
<g id="Node000003" class="node">
<title>Node3</title>
<g id="a_Node000003"><a xlink:href="classmim_1_1RWPass.html" target="_top" xlink:title=" ">
<polygon fill="white" stroke="#666666" points="132,-225 0,-225 0,-195 132,-195 132,-225"/>
<text text-anchor="start" x="8" y="-213" font-family="Helvetica,sans-Serif" font-size="10.00">mim::RWPass&lt; EtaRed,</text>
<text text-anchor="middle" x="66" y="-202" font-family="Helvetica,sans-Serif" font-size="10.00"> Def &gt;</text>
</a>
</g>
</g>
<!-- Node3&#45;&gt;Node2 -->
<g id="edge2_Node000002_Node000003" class="edge">
<title>Node3&#45;&gt;Node2</title>
<g id="a_edge2_Node000002_Node000003"><a xlink:title=" ">
<path fill="none" stroke="#63b8ff" d="M74.15,-185.25C83.94,-156.71 100.05,-109.74 108.1,-86.27"/>
<polygon fill="#63b8ff" stroke="#63b8ff" points="70.79,-184.26 70.85,-194.85 77.41,-186.53 70.79,-184.26"/>
</a>
</g>
</g>
<!-- Node4 -->
<g id="Node000004" class="node">
<title>Node4</title>
<g id="a_Node000004"><a xlink:href="classmim_1_1Pass.html" target="_top" xlink:title="All Passes that want to be registered in the PassMan must implement this interface.">
<polygon fill="white" stroke="#666666" points="191.5,-353 124.5,-353 124.5,-334 191.5,-334 191.5,-353"/>
<text text-anchor="middle" x="158" y="-341" font-family="Helvetica,sans-Serif" font-size="10.00">mim::Pass</text>
</a>
</g>
</g>
<!-- Node4&#45;&gt;Node3 -->
<g id="edge3_Node000003_Node000004" class="edge">
<title>Node4&#45;&gt;Node3</title>
<g id="a_edge3_Node000003_Node000004"><a xlink:title=" ">
<path fill="none" stroke="#63b8ff" d="M127.04,-329.37C112.47,-321.81 95.94,-310.99 85,-297 68.52,-275.92 65.69,-243.47 65.55,-225.05"/>
<polygon fill="#63b8ff" stroke="#63b8ff" points="125.73,-332.63 136.25,-333.88 128.81,-326.34 125.73,-332.63"/>
</a>
</g>
</g>
<!-- Node7 -->
<g id="Node000007" class="node">
<title>Node7</title>
<g id="a_Node000007"><a xlink:href="classmim_1_1RWPass.html" target="_top" xlink:title="Inherit from this class using CRTP, if your Pass does not need state and a fixed&#45;point iteration.">
<polygon fill="white" stroke="#666666" points="221.5,-297 94.5,-297 94.5,-278 221.5,-278 221.5,-297"/>
<text text-anchor="middle" x="158" y="-285" font-family="Helvetica,sans-Serif" font-size="10.00">mim::RWPass&lt; P, M &gt;</text>
</a>
</g>
</g>
<!-- Node4&#45;&gt;Node7 -->
<g id="edge7_Node000007_Node000004" class="edge">
<title>Node4&#45;&gt;Node7</title>
<g id="a_edge7_Node000007_Node000004"><a xlink:title=" ">
<path fill="none" stroke="#63b8ff" d="M158,-323.3C158,-314.41 158,-304.28 158,-297.25"/>
<polygon fill="#63b8ff" stroke="#63b8ff" points="154.5,-323.58 158,-333.58 161.5,-323.58 154.5,-323.58"/>
</a>
</g>
</g>
<!-- Node9 -->
<g id="Node000009" class="node">
<title>Node9</title>
<g id="a_Node000009"><a xlink:href="classmim_1_1RWPass.html" target="_top" xlink:title=" ">
<polygon fill="white" stroke="#666666" points="285.5,-219.5 150.5,-219.5 150.5,-200.5 285.5,-200.5 285.5,-219.5"/>
<text text-anchor="middle" x="218" y="-207.5" font-family="Helvetica,sans-Serif" font-size="10.00">mim::RWPass&lt; P, Def &gt;</text>
</a>
</g>
</g>
<!-- Node4&#45;&gt;Node9 -->
<g id="edge10_Node000009_Node000004" class="edge">
<title>Node4&#45;&gt;Node9</title>
<g id="a_edge10_Node000009_Node000004"><a xlink:title=" ">
<path fill="none" stroke="#63b8ff" d="M186.32,-329.16C200.92,-321.28 218.28,-310.26 231,-297 244.09,-283.36 247.17,-278.28 252,-260 253.93,-252.69 255,-249.94 252,-243 247.82,-233.33 239.12,-225.23 231.56,-219.59"/>
<polygon fill="#63b8ff" stroke="#63b8ff" points="184.48,-326.17 177.2,-333.87 187.7,-332.39 184.48,-326.17"/>
</a>
</g>
</g>
<!-- Node5 -->
<g id="Node000005" class="node">
<title>Node5</title>
<g id="a_Node000005"><a xlink:href="classmim_1_1Stage.html" target="_top" xlink:title="Common base for Phase and Pass.">
<polygon fill="white" stroke="#666666" points="194.5,-409 121.5,-409 121.5,-390 194.5,-390 194.5,-409"/>
<text text-anchor="middle" x="158" y="-397" font-family="Helvetica,sans-Serif" font-size="10.00">mim::Stage</text>
</a>
</g>
</g>
<!-- Node5&#45;&gt;Node4 -->
<g id="edge4_Node000004_Node000005" class="edge">
<title>Node5&#45;&gt;Node4</title>
<g id="a_edge4_Node000004_Node000005"><a xlink:title=" ">
<path fill="none" stroke="#63b8ff" d="M158,-379.3C158,-370.41 158,-360.28 158,-353.25"/>
<polygon fill="#63b8ff" stroke="#63b8ff" points="154.5,-379.58 158,-389.58 161.5,-379.58 154.5,-379.58"/>
</a>
</g>
</g>
<!-- Node6 -->
<g id="Node000006" class="node">
<title>Node6</title>
<g id="a_Node000006"><a xlink:title=" ">
<polygon fill="white" stroke="#666666" points="231,-465 85,-465 85,-446 231,-446 231,-465"/>
<text text-anchor="middle" x="158" y="-453" font-family="Helvetica,sans-Serif" font-size="10.00">fe::RuntimeCast&lt; Stage &gt;</text>
</a>
</g>
</g>
<!-- Node6&#45;&gt;Node5 -->
<g id="edge5_Node000005_Node000006" class="edge">
<title>Node6&#45;&gt;Node5</title>
<g id="a_edge5_Node000005_Node000006"><a xlink:title=" ">
<path fill="none" stroke="#63b8ff" d="M158,-435.3C158,-426.41 158,-416.28 158,-409.25"/>
<polygon fill="#63b8ff" stroke="#63b8ff" points="154.5,-435.58 158,-445.58 161.5,-435.58 154.5,-435.58"/>
</a>
</g>
</g>
<!-- Node7&#45;&gt;Node3 -->
<g id="edge6_Node000003_Node000007" class="edge">
<title>Node7&#45;&gt;Node3</title>
<g id="a_edge6_Node000003_Node000007"><a xlink:title=" ">
<path fill="none" stroke="orange" stroke-dasharray="5,2" d="M111.2,-274.16C103.15,-270.54 95.35,-265.91 89,-260 78.95,-250.65 72.89,-236.03 69.53,-225.19"/>
<polygon fill="orange" stroke="orange" points="110.1,-277.49 120.69,-277.97 112.71,-271 110.1,-277.49"/>
</a>
</g>
<text text-anchor="start" x="92.5" y="-248.5" font-family="Helvetica,sans-Serif" font-size="10.00" fill="grey">&lt; EtaRed, Def &gt;</text>
</g>
<!-- Node7&#45;&gt;Node9 -->
<g id="edge11_Node000009_Node000007" class="edge">
<title>Node7&#45;&gt;Node9</title>
<g id="a_edge11_Node000009_Node000007"><a xlink:title=" ">
<path fill="none" stroke="orange" stroke-dasharray="5,2" d="M171.42,-269.62C183.76,-254.08 201.57,-231.68 211.2,-219.56"/>
<polygon fill="orange" stroke="orange" points="168.36,-267.83 164.88,-277.84 173.84,-272.19 168.36,-267.83"/>
</a>
</g>
<text text-anchor="start" x="195" y="-248.5" font-family="Helvetica,sans-Serif" font-size="10.00" fill="grey">&lt; P, Def &gt;</text>
</g>
<!-- Node8 -->
<g id="Node000008" class="node">
<title>Node8</title>
<g id="a_Node000008"><a xlink:href="classmim_1_1FPPass.html" target="_top" xlink:title="Inherit from this class using CRTP, if you do need a Pass with a state and a fixed&#45;point.">
<polygon fill="white" stroke="#666666" points="263,-158 141,-158 141,-139 263,-139 263,-158"/>
<text text-anchor="middle" x="202" y="-146" font-family="Helvetica,sans-Serif" font-size="10.00">mim::FPPass&lt; P, M &gt;</text>
</a>
</g>
</g>
<!-- Node8&#45;&gt;Node2 -->
<g id="edge8_Node000002_Node000008" class="edge">
<title>Node8&#45;&gt;Node2</title>
<g id="a_edge8_Node000002_Node000008"><a xlink:title=" ">
<path fill="none" stroke="orange" stroke-dasharray="5,2" d="M183.79,-132.05C167.94,-118.61 145.15,-99.27 129.75,-86.21"/>
<polygon fill="orange" stroke="orange" points="181.9,-135.04 191.79,-138.84 186.43,-129.7 181.9,-135.04"/>
</a>
</g>
<text text-anchor="start" x="174.5" y="-109.5" font-family="Helvetica,sans-Serif" font-size="10.00" fill="grey">&lt; EtaRed, Def &gt;</text>
</g>
<!-- Node9&#45;&gt;Node8 -->
<g id="edge9_Node000008_Node000009" class="edge">
<title>Node9&#45;&gt;Node8</title>
<g id="a_edge9_Node000008_Node000009"><a xlink:title=" ">
<path fill="none" stroke="#63b8ff" d="M213.07,-190.66C210.14,-179.77 206.57,-166.49 204.29,-158.01"/>
<polygon fill="#63b8ff" stroke="#63b8ff" points="209.73,-191.73 215.71,-200.48 216.49,-189.91 209.73,-191.73"/>
</a>
</g>
</g>
</g>
</svg>
