<?xml version="1.0" encoding="UTF-8" standalone="no"?>
<!DOCTYPE svg PUBLIC "-//W3C//DTD SVG 1.1//EN"
 "http://www.w3.org/Graphics/SVG/1.1/DTD/svg11.dtd">
<!-- Generated by graphviz version 2.43.0 (0)
 -->
<!-- Title: mim::FPPass&lt; P, M &gt; Pages: 1 -->
<svg width="1139pt" height="326pt"
 viewBox="0.00 0.00 1139.00 326.00" xmlns="http://www.w3.org/2000/svg" xmlns:xlink="http://www.w3.org/1999/xlink">
<g id="graph0" class="graph" transform="scale(1 1) rotate(0) translate(4 322)">
<title>mim::FPPass&lt; P, M &gt;</title>
<!-- Node1 -->
<g id="Node000001" class="node">
<title>Node1</title>
<g id="a_Node000001"><a xlink:title="Inherit from this class using CRTP, if you do need a Pass with a state and a fixed&#45;point.">
<polygon fill="#999999" stroke="#666666" points="616,-168.5 494,-168.5 494,-149.5 616,-149.5 616,-168.5"/>
<text text-anchor="middle" x="555" y="-156.5" font-family="Helvetica,sans-Serif" font-size="10.00">mim::FPPass&lt; P, M &gt;</text>
</a>
</g>
</g>
<!-- Node5 -->
<g id="Node000005" class="node">
<title>Node5</title>
<g id="a_Node000005"><a xlink:href="classmim_1_1FPPass.html" target="_top" xlink:title=" ">
<polygon fill="white" stroke="#666666" points="921.5,-318 787.5,-318 787.5,-288 921.5,-288 921.5,-318"/>
<text text-anchor="start" x="795.5" y="-306" font-family="Helvetica,sans-Serif" font-size="10.00">mim::FPPass&lt; BetaRed,</text>
<text text-anchor="middle" x="854.5" y="-295" font-family="Helvetica,sans-Serif" font-size="10.00"> Def &gt;</text>
</a>
</g>
</g>
<!-- Node1&#45;&gt;Node5 -->
<g id="edge5_Node000001_Node000005" class="edge">
<title>Node1&#45;&gt;Node5</title>
<g id="a_edge5_Node000001_Node000005"><a xlink:title=" ">
<path fill="none" stroke="orange" stroke-dasharray="5,2" d="M566.04,-177.54C578.85,-199.35 603.11,-235 634,-254 680.39,-282.54 741.4,-294.53 787.32,-299.52"/>
<polygon fill="orange" stroke="orange" points="568.95,-175.57 560.97,-168.6 562.86,-179.02 568.95,-175.57"/>
</a>
</g>
<text text-anchor="middle" x="693" y="-296" font-family="Helvetica,sans-Serif" font-size="10.00" fill="grey"> &lt; BetaRed, Def &gt;</text>
</g>
<!-- Node7 -->
<g id="Node000007" class="node">
<title>Node7</title>
<g id="a_Node000007"><a xlink:href="classmim_1_1FPPass.html" target="_top" xlink:title=" ">
<polygon fill="white" stroke="#666666" points="918,-270 791,-270 791,-240 918,-240 918,-270"/>
<text text-anchor="start" x="799" y="-258" font-family="Helvetica,sans-Serif" font-size="10.00">mim::FPPass&lt; EtaExp,</text>
<text text-anchor="middle" x="854.5" y="-247" font-family="Helvetica,sans-Serif" font-size="10.00"> Lam &gt;</text>
</a>
</g>
</g>
<!-- Node1&#45;&gt;Node7 -->
<g id="edge7_Node000001_Node000007" class="edge">
<title>Node1&#45;&gt;Node7</title>
<g id="a_edge7_Node000001_Node000007"><a xlink:title=" ">
<path fill="none" stroke="orange" stroke-dasharray="5,2" d="M577.43,-174.51C592.57,-184.81 613.7,-197.87 634,-206 684.93,-226.4 746.07,-239.17 790.87,-246.53"/>
<polygon fill="orange" stroke="orange" points="579.05,-171.37 568.84,-168.53 575.05,-177.12 579.05,-171.37"/>
</a>
</g>
<text text-anchor="middle" x="693" y="-242" font-family="Helvetica,sans-Serif" font-size="10.00" fill="grey"> &lt; EtaExp, Lam &gt;</text>
</g>
<!-- Node9 -->
<g id="Node000009" class="node">
<title>Node9</title>
<g id="a_Node000009"><a xlink:href="classmim_1_1FPPass.html" target="_top" xlink:title=" ">
<polygon fill="white" stroke="#666666" points="918.5,-222 790.5,-222 790.5,-192 918.5,-192 918.5,-222"/>
<text text-anchor="start" x="798.5" y="-210" font-family="Helvetica,sans-Serif" font-size="10.00">mim::FPPass&lt; EtaRed,</text>
<text text-anchor="middle" x="854.5" y="-199" font-family="Helvetica,sans-Serif" font-size="10.00"> Def &gt;</text>
</a>
</g>
</g>
<!-- Node1&#45;&gt;Node9 -->
<g id="edge9_Node000001_Node000009" class="edge">
<title>Node1&#45;&gt;Node9</title>
<g id="a_edge9_Node000001_Node000009"><a xlink:title=" ">
<path fill="none" stroke="orange" stroke-dasharray="5,2" d="M613.72,-170.37C620.55,-171.64 627.42,-172.87 634,-174 686.61,-183.01 746.54,-191.93 790.47,-198.22"/>
<polygon fill="orange" stroke="orange" points="614.27,-166.92 603.79,-168.51 612.98,-173.79 614.27,-166.92"/>
</a>
</g>
<text text-anchor="middle" x="693" y="-194" font-family="Helvetica,sans-Serif" font-size="10.00" fill="grey"> &lt; EtaRed, Def &gt;</text>
</g>
<!-- Node11 -->
<g id="Node000011" class="node">
<title>Node11</title>
<g id="a_Node000011"><a xlink:href="classmim_1_1FPPass.html" target="_top" xlink:title=" ">
<polygon fill="white" stroke="#666666" points="929,-174 780,-174 780,-144 929,-144 929,-174"/>
<text text-anchor="start" x="788" y="-162" font-family="Helvetica,sans-Serif" font-size="10.00">mim::FPPass&lt; TailRecElim,</text>
<text text-anchor="middle" x="854.5" y="-151" font-family="Helvetica,sans-Serif" font-size="10.00"> Lam &gt;</text>
</a>
</g>
</g>
<!-- Node1&#45;&gt;Node11 -->
<g id="edge11_Node000001_Node000011" class="edge">
<title>Node1&#45;&gt;Node11</title>
<g id="a_edge11_Node000001_Node000011"><a xlink:title=" ">
<path fill="none" stroke="orange" stroke-dasharray="5,2" d="M626.44,-159C672.7,-159 733.09,-159 779.96,-159"/>
<polygon fill="orange" stroke="orange" points="626.2,-155.5 616.2,-159 626.2,-162.5 626.2,-155.5"/>
</a>
</g>
<text text-anchor="middle" x="693" y="-162" font-family="Helvetica,sans-Serif" font-size="10.00" fill="grey"> &lt; TailRecElim, Lam &gt;</text>
</g>
<!-- Node13 -->
<g id="Node000013" class="node">
<title>Node13</title>
<g id="a_Node000013"><a xlink:href="classmim_1_1FPPass.html" target="_top" xlink:title=" ">
<polygon fill="white" stroke="#666666" points="939,-126 770,-126 770,-96 939,-96 939,-126"/>
<text text-anchor="start" x="778" y="-114" font-family="Helvetica,sans-Serif" font-size="10.00">mim::FPPass&lt; LowerTypedClos</text>
<text text-anchor="middle" x="854.5" y="-103" font-family="Helvetica,sans-Serif" font-size="10.00">Prep, Lam &gt;</text>
</a>
</g>
</g>
<!-- Node1&#45;&gt;Node13 -->
<g id="edge13_Node000001_Node000013" class="edge">
<title>Node1&#45;&gt;Node13</title>
<g id="a_edge13_Node000001_Node000013"><a xlink:title=" ">
<path fill="none" stroke="orange" stroke-dasharray="5,2" d="M589.63,-145.97C603.22,-141.19 619.17,-136.17 634,-133 678.38,-123.5 728.7,-118.08 769.96,-115"/>
<polygon fill="orange" stroke="orange" points="588.42,-142.69 580.2,-149.38 590.8,-149.27 588.42,-142.69"/>
</a>
</g>
<text text-anchor="start" x="634" y="-147" font-family="Helvetica,sans-Serif" font-size="10.00" fill="grey"> &lt; LowerTypedClosPrep,</text>
<text text-anchor="middle" x="693" y="-136" font-family="Helvetica,sans-Serif" font-size="10.00" fill="grey"> Lam &gt;</text>
</g>
<!-- Node15 -->
<g id="Node000015" class="node">
<title>Node15</title>
<g id="a_Node000015"><a xlink:href="classmim_1_1FPPass.html" target="_top" xlink:title=" ">
<polygon fill="white" stroke="#666666" points="924.5,-78 784.5,-78 784.5,-48 924.5,-48 924.5,-78"/>
<text text-anchor="start" x="792.5" y="-66" font-family="Helvetica,sans-Serif" font-size="10.00">mim::FPPass&lt; CopyProp,</text>
<text text-anchor="middle" x="854.5" y="-55" font-family="Helvetica,sans-Serif" font-size="10.00"> Lam &gt;</text>
</a>
</g>
</g>
<!-- Node1&#45;&gt;Node15 -->
<g id="edge15_Node000001_Node000015" class="edge">
<title>Node1&#45;&gt;Node15</title>
<g id="a_edge15_Node000001_Node000015"><a xlink:title=" ">
<path fill="none" stroke="orange" stroke-dasharray="5,2" d="M573.59,-142.46C588.52,-129.39 611.09,-111.78 634,-102 681.88,-81.56 740.04,-71.83 784.46,-67.2"/>
<polygon fill="orange" stroke="orange" points="571.23,-139.88 566.14,-149.18 575.91,-145.08 571.23,-139.88"/>
</a>
</g>
<text text-anchor="middle" x="693" y="-105" font-family="Helvetica,sans-Serif" font-size="10.00" fill="grey"> &lt; CopyProp, Lam &gt;</text>
</g>
<!-- Node17 -->
<g id="Node000017" class="node">
<title>Node17</title>
<g id="a_Node000017"><a xlink:href="classmim_1_1FPPass.html" target="_top" xlink:title=" ">
<polygon fill="white" stroke="#666666" points="926.5,-30 782.5,-30 782.5,0 926.5,0 926.5,-30"/>
<text text-anchor="start" x="790.5" y="-18" font-family="Helvetica,sans-Serif" font-size="10.00">mim::FPPass&lt; SSAConstr,</text>
<text text-anchor="middle" x="854.5" y="-7" font-family="Helvetica,sans-Serif" font-size="10.00"> Lam &gt;</text>
</a>
</g>
</g>
<!-- Node1&#45;&gt;Node17 -->
<g id="edge17_Node000001_Node000017" class="edge">
<title>Node1&#45;&gt;Node17</title>
<g id="a_edge17_Node000001_Node000017"><a xlink:title=" ">
<path fill="none" stroke="orange" stroke-dasharray="5,2" d="M564.88,-140.28C577.04,-116.84 601.14,-77.3 634,-57 678.48,-29.52 736.95,-19.33 782.35,-15.84"/>
<polygon fill="orange" stroke="orange" points="561.75,-138.73 560.41,-149.24 568.01,-141.85 561.75,-138.73"/>
</a>
</g>
<text text-anchor="middle" x="693" y="-60" font-family="Helvetica,sans-Serif" font-size="10.00" fill="grey"> &lt; SSAConstr, Lam &gt;</text>
</g>
<!-- Node2 -->
<g id="Node000002" class="node">
<title>Node2</title>
<g id="a_Node000002"><a xlink:href="classmim_1_1RWPass.html" target="_top" xlink:title=" ">
<polygon fill="white" stroke="#666666" points="457,-168.5 322,-168.5 322,-149.5 457,-149.5 457,-168.5"/>
<text text-anchor="middle" x="389.5" y="-156.5" font-family="Helvetica,sans-Serif" font-size="10.00">mim::RWPass&lt; P, Def &gt;</text>
</a>
</g>
</g>
<!-- Node2&#45;&gt;Node1 -->
<g id="edge1_Node000001_Node000002" class="edge">
<title>Node2&#45;&gt;Node1</title>
<g id="a_edge1_Node000001_Node000002"><a xlink:title=" ">
<path fill="none" stroke="#63b8ff" d="M467.09,-159C476.08,-159 485.15,-159 493.87,-159"/>
<polygon fill="#63b8ff" stroke="#63b8ff" points="467,-155.5 457,-159 467,-162.5 467,-155.5"/>
</a>
</g>
</g>
<!-- Node3 -->
<g id="Node000003" class="node">
<title>Node3</title>
<g id="a_Node000003"><a xlink:href="classmim_1_1Pass.html" target="_top" xlink:title="All Passes that want to be registered in the PassMan must implement this interface.">
<polygon fill="white" stroke="#666666" points="67,-165.5 0,-165.5 0,-146.5 67,-146.5 67,-165.5"/>
<text text-anchor="middle" x="33.5" y="-153.5" font-family="Helvetica,sans-Serif" font-size="10.00">mim::Pass</text>
</a>
</g>
</g>
<!-- Node3&#45;&gt;Node2 -->
<g id="edge2_Node000002_Node000003" class="edge">
<title>Node3&#45;&gt;Node2</title>
<g id="a_edge2_Node000002_Node000003"><a xlink:title=" ">
<path fill="none" stroke="#63b8ff" d="M77.22,-160.53C79.85,-160.71 82.46,-160.87 85,-161 182.21,-165.8 206.67,-162.15 304,-161 309.72,-160.93 315.66,-160.84 321.62,-160.73"/>
<polygon fill="#63b8ff" stroke="#63b8ff" points="77.31,-157.02 67.06,-159.7 76.75,-164 77.31,-157.02"/>
</a>
</g>
</g>
<!-- Node4 -->
<g id="Node000004" class="node">
<title>Node4</title>
<g id="a_Node000004"><a xlink:href="classmim_1_1RWPass.html" target="_top" xlink:title="Inherit from this class using CRTP, if your Pass does not need state and a fixed&#45;point iteration.">
<polygon fill="white" stroke="#666666" points="231,-146.5 104,-146.5 104,-127.5 231,-127.5 231,-146.5"/>
<text text-anchor="middle" x="167.5" y="-134.5" font-family="Helvetica,sans-Serif" font-size="10.00">mim::RWPass&lt; P, M &gt;</text>
</a>
</g>
</g>
<!-- Node3&#45;&gt;Node4 -->
<g id="edge4_Node000004_Node000003" class="edge">
<title>Node3&#45;&gt;Node4</title>
<g id="a_edge4_Node000004_Node000003"><a xlink:title=" ">
<path fill="none" stroke="#63b8ff" d="M77.18,-149.86C85.7,-148.63 94.82,-147.32 103.85,-146.02"/>
<polygon fill="#63b8ff" stroke="#63b8ff" points="76.53,-146.41 67.13,-151.3 77.53,-153.34 76.53,-146.41"/>
</a>
</g>
</g>
<!-- Node4&#45;&gt;Node2 -->
<g id="edge3_Node000002_Node000004" class="edge">
<title>Node4&#45;&gt;Node2</title>
<g id="a_edge3_Node000002_Node000004"><a xlink:title=" ">
<path fill="none" stroke="orange" stroke-dasharray="5,2" d="M241.37,-143.85C261.65,-145.79 283.68,-147.94 304,-150 309.72,-150.58 315.67,-151.19 321.63,-151.81"/>
<polygon fill="orange" stroke="orange" points="241.54,-140.35 231.25,-142.88 240.87,-147.32 241.54,-140.35"/>
</a>
</g>
<text text-anchor="middle" x="276.5" y="-153" font-family="Helvetica,sans-Serif" font-size="10.00" fill="grey"> &lt; P, Def &gt;</text>
</g>
<!-- Node6 -->
<g id="Node000006" class="node">
<title>Node6</title>
<g id="a_Node000006"><a xlink:href="classmim_1_1BetaRed.html" target="_top" xlink:title="Optimistically performs β&#45;reduction (aka inlining).">
<polygon fill="white" stroke="#666666" points="1096.5,-312.5 1010.5,-312.5 1010.5,-293.5 1096.5,-293.5 1096.5,-312.5"/>
<text text-anchor="middle" x="1053.5" y="-300.5" font-family="Helvetica,sans-Serif" font-size="10.00">mim::BetaRed</text>
</a>
</g>
</g>
<!-- Node5&#45;&gt;Node6 -->
<g id="edge6_Node000005_Node000006" class="edge">
<title>Node5&#45;&gt;Node6</title>
<g id="a_edge6_Node000005_Node000006"><a xlink:title=" ">
<path fill="none" stroke="#63b8ff" d="M931.75,-303C958.44,-303 987.43,-303 1010.32,-303"/>
<polygon fill="#63b8ff" stroke="#63b8ff" points="931.65,-299.5 921.65,-303 931.65,-306.5 931.65,-299.5"/>
</a>
</g>
</g>
<!-- Node8 -->
<g id="Node000008" class="node">
<title>Node8</title>
<g id="a_Node000008"><a xlink:href="classmim_1_1EtaExp.html" target="_top" xlink:title="Performs η&#45;expansion: f &#45;&gt; λx.f x, if f is a Lam with more than one user and does not appear in calle...">
<polygon fill="white" stroke="#666666" points="1093,-264.5 1014,-264.5 1014,-245.5 1093,-245.5 1093,-264.5"/>
<text text-anchor="middle" x="1053.5" y="-252.5" font-family="Helvetica,sans-Serif" font-size="10.00">mim::EtaExp</text>
</a>
</g>
</g>
<!-- Node7&#45;&gt;Node8 -->
<g id="edge8_Node000007_Node000008" class="edge">
<title>Node7&#45;&gt;Node8</title>
<g id="a_edge8_Node000007_Node000008"><a xlink:title=" ">
<path fill="none" stroke="#63b8ff" d="M928.22,-255C957.25,-255 989.49,-255 1013.86,-255"/>
<polygon fill="#63b8ff" stroke="#63b8ff" points="928.1,-251.5 918.1,-255 928.1,-258.5 928.1,-251.5"/>
</a>
</g>
</g>
<!-- Node10 -->
<g id="Node000010" class="node">
<title>Node10</title>
<g id="a_Node000010"><a xlink:href="classmim_1_1EtaRed.html" target="_top" xlink:title="Performs η&#45;reduction.">
<polygon fill="white" stroke="#666666" points="1093.5,-216.5 1013.5,-216.5 1013.5,-197.5 1093.5,-197.5 1093.5,-216.5"/>
<text text-anchor="middle" x="1053.5" y="-204.5" font-family="Helvetica,sans-Serif" font-size="10.00">mim::EtaRed</text>
</a>
</g>
</g>
<!-- Node9&#45;&gt;Node10 -->
<g id="edge10_Node000009_Node000010" class="edge">
<title>Node9&#45;&gt;Node10</title>
<g id="a_edge10_Node000009_Node000010"><a xlink:title=" ">
<path fill="none" stroke="#63b8ff" d="M928.67,-207C957.44,-207 989.29,-207 1013.49,-207"/>
<polygon fill="#63b8ff" stroke="#63b8ff" points="928.64,-203.5 918.64,-207 928.64,-210.5 928.64,-203.5"/>
</a>
</g>
</g>
<!-- Node12 -->
<g id="Node000012" class="node">
<title>Node12</title>
<g id="a_Node000012"><a xlink:href="classmim_1_1TailRecElim.html" target="_top" xlink:title=" ">
<polygon fill="white" stroke="#666666" points="1104,-168.5 1003,-168.5 1003,-149.5 1104,-149.5 1104,-168.5"/>
<text text-anchor="middle" x="1053.5" y="-156.5" font-family="Helvetica,sans-Serif" font-size="10.00">mim::TailRecElim</text>
</a>
</g>
</g>
<!-- Node11&#45;&gt;Node12 -->
<g id="edge12_Node000011_Node000012" class="edge">
<title>Node11&#45;&gt;Node12</title>
<g id="a_edge12_Node000011_Node000012"><a xlink:title=" ">
<path fill="none" stroke="#63b8ff" d="M939.33,-159C960.97,-159 983.58,-159 1002.85,-159"/>
<polygon fill="#63b8ff" stroke="#63b8ff" points="939.14,-155.5 929.14,-159 939.14,-162.5 939.14,-155.5"/>
</a>
</g>
</g>
<!-- Node14 -->
<g id="Node000014" class="node">
<title>Node14</title>
<g id="a_Node000014"><a xlink:href="classmim_1_1plug_1_1clos_1_1LowerTypedClosPrep.html" target="_top" xlink:title=" ">
<polygon fill="white" stroke="#666666" points="1131,-126 976,-126 976,-96 1131,-96 1131,-126"/>
<text text-anchor="start" x="984" y="-114" font-family="Helvetica,sans-Serif" font-size="10.00">mim::plug::clos::LowerTyped</text>
<text text-anchor="middle" x="1053.5" y="-103" font-family="Helvetica,sans-Serif" font-size="10.00">ClosPrep</text>
</a>
</g>
</g>
<!-- Node13&#45;&gt;Node14 -->
<g id="edge14_Node000013_Node000014" class="edge">
<title>Node13&#45;&gt;Node14</title>
<g id="a_edge14_Node000013_Node000014"><a xlink:title=" ">
<path fill="none" stroke="#63b8ff" d="M949.08,-111C958,-111 966.97,-111 975.71,-111"/>
<polygon fill="#63b8ff" stroke="#63b8ff" points="949.05,-107.5 939.05,-111 949.05,-114.5 949.05,-107.5"/>
</a>
</g>
</g>
<!-- Node16 -->
<g id="Node000016" class="node">
<title>Node16</title>
<g id="a_Node000016"><a xlink:href="classmim_1_1plug_1_1mem_1_1CopyProp.html" target="_top" xlink:title="This FPPass is similar to sparse conditional constant propagation (SCCP).">
<polygon fill="white" stroke="#666666" points="1128.5,-72.5 978.5,-72.5 978.5,-53.5 1128.5,-53.5 1128.5,-72.5"/>
<text text-anchor="middle" x="1053.5" y="-60.5" font-family="Helvetica,sans-Serif" font-size="10.00">mim::plug::mem::CopyProp</text>
</a>
</g>
</g>
<!-- Node15&#45;&gt;Node16 -->
<g id="edge16_Node000015_Node000016" class="edge">
<title>Node15&#45;&gt;Node16</title>
<g id="a_edge16_Node000015_Node000016"><a xlink:title=" ">
<path fill="none" stroke="#63b8ff" d="M935.01,-63C949.37,-63 964.28,-63 978.47,-63"/>
<polygon fill="#63b8ff" stroke="#63b8ff" points="934.68,-59.5 924.68,-63 934.68,-66.5 934.68,-59.5"/>
</a>
</g>
</g>
<!-- Node18 -->
<g id="Node000018" class="node">
<title>Node18</title>
<g id="a_Node000018"><a xlink:href="classmim_1_1plug_1_1mem_1_1SSAConstr.html" target="_top" xlink:title="SSA construction algorithm that promotes slots, loads, and stores to SSA values.">
<polygon fill="white" stroke="#666666" points="1131,-24.5 976,-24.5 976,-5.5 1131,-5.5 1131,-24.5"/>
<text text-anchor="middle" x="1053.5" y="-12.5" font-family="Helvetica,sans-Serif" font-size="10.00">mim::plug::mem::SSAConstr</text>
</a>
</g>
</g>
<!-- Node17&#45;&gt;Node18 -->
<g id="edge18_Node000017_Node000018" class="edge">
<title>Node17&#45;&gt;Node18</title>
<g id="a_edge18_Node000017_Node000018"><a xlink:title=" ">
<path fill="none" stroke="#63b8ff" d="M936.86,-15C949.75,-15 963.04,-15 975.82,-15"/>
<polygon fill="#63b8ff" stroke="#63b8ff" points="936.62,-11.5 926.62,-15 936.62,-18.5 936.62,-11.5"/>
</a>
</g>
</g>
</g>
</svg>
