<?xml version="1.0" encoding="UTF-8" standalone="no"?>
<!DOCTYPE svg PUBLIC "-//W3C//DTD SVG 1.1//EN"
 "http://www.w3.org/Graphics/SVG/1.1/DTD/svg11.dtd">
<!-- Generated by graphviz version 2.43.0 (0)
 -->
<!-- Title: thorin::Pass Pages: 1 -->
<svg width="1208pt" height="753pt"
 viewBox="0.00 0.00 1208.00 753.00" xmlns="http://www.w3.org/2000/svg" xmlns:xlink="http://www.w3.org/1999/xlink">
<g id="graph0" class="graph" transform="scale(1 1) rotate(0) translate(4 749)">
<title>thorin::Pass</title>
<!-- Node1 -->
<g id="node1" class="node">
<title>Node1</title>
<g id="a_node1"><a xlink:title="All Passes that want to be registered in the PassMan must implement this interface.">
<polygon fill="#bfbfbf" stroke="black" points="113,-421.5 113,-440.5 186,-440.5 186,-421.5 113,-421.5"/>
<text text-anchor="middle" x="149.5" y="-428.5" font-family="Helvetica,sans-Serif" font-size="10.00">thorin::Pass</text>
</a>
</g>
</g>
<!-- Node3 -->
<g id="node3" class="node">
<title>Node3</title>
<g id="a_node3"><a xlink:href="classthorin_1_1RWPass.html" target="_top" xlink:title=" ">
<polygon fill="none" stroke="black" points="421,-563.5 421,-582.5 550,-582.5 550,-563.5 421,-563.5"/>
<text text-anchor="middle" x="485.5" y="-570.5" font-family="Helvetica,sans-Serif" font-size="10.00">thorin::RWPass&lt; Def &gt;</text>
</a>
</g>
</g>
<!-- Node1&#45;&gt;Node3 -->
<g id="edge2" class="edge">
<title>Node1&#45;&gt;Node3</title>
<path fill="none" stroke="midnightblue" d="M182.15,-444.46C249.06,-472.9 403.49,-538.56 461.72,-563.32"/>
<polygon fill="midnightblue" stroke="midnightblue" points="183.51,-441.23 172.93,-440.54 180.77,-447.67 183.51,-441.23"/>
</g>
<!-- Node19 -->
<g id="node19" class="node">
<title>Node19</title>
<g id="a_node19"><a xlink:href="classthorin_1_1RWPass.html" target="_top" xlink:title=" ">
<polygon fill="none" stroke="black" points="587,-278.5 587,-297.5 720,-297.5 720,-278.5 587,-278.5"/>
<text text-anchor="middle" x="653.5" y="-285.5" font-family="Helvetica,sans-Serif" font-size="10.00">thorin::RWPass&lt; Lam &gt;</text>
</a>
</g>
</g>
<!-- Node1&#45;&gt;Node19 -->
<g id="edge20" class="edge">
<title>Node1&#45;&gt;Node19</title>
<path fill="none" stroke="midnightblue" d="M179.65,-416.97C228.44,-394.05 330.27,-348.67 421,-324 475.95,-309.06 540.03,-299.69 586.83,-294.27"/>
<polygon fill="midnightblue" stroke="midnightblue" points="177.88,-413.93 170.34,-421.37 180.87,-420.26 177.88,-413.93"/>
</g>
<!-- Node30 -->
<g id="node30" class="node">
<title>Node30</title>
<g id="a_node30"><a xlink:href="classthorin_1_1RWPass.html" target="_top" xlink:title="Inherit from this class if your Pass does not need state and a fixed&#45;point iteration.">
<polygon fill="none" stroke="black" points="223,-421.5 223,-440.5 342,-440.5 342,-421.5 223,-421.5"/>
<text text-anchor="middle" x="282.5" y="-428.5" font-family="Helvetica,sans-Serif" font-size="10.00">thorin::RWPass&lt; N &gt;</text>
</a>
</g>
</g>
<!-- Node1&#45;&gt;Node30 -->
<g id="edge36" class="edge">
<title>Node1&#45;&gt;Node30</title>
<path fill="none" stroke="midnightblue" d="M196.41,-431C204.94,-431 213.96,-431 222.81,-431"/>
<polygon fill="midnightblue" stroke="midnightblue" points="196.3,-427.5 186.3,-431 196.3,-434.5 196.3,-427.5"/>
</g>
<!-- Node2 -->
<g id="node2" class="node">
<title>Node2</title>
<g id="a_node2"><a xlink:href="classthorin_1_1IPass.html" target="_top" xlink:title="This is a minimalistic base interface to work with when dynamically loading a Pass.">
<polygon fill="none" stroke="black" points="0,-421.5 0,-440.5 76,-440.5 76,-421.5 0,-421.5"/>
<text text-anchor="middle" x="38" y="-428.5" font-family="Helvetica,sans-Serif" font-size="10.00">thorin::IPass</text>
</a>
</g>
</g>
<!-- Node2&#45;&gt;Node1 -->
<g id="edge1" class="edge">
<title>Node2&#45;&gt;Node1</title>
<path fill="none" stroke="midnightblue" d="M86.36,-431C95.28,-431 104.47,-431 112.95,-431"/>
<polygon fill="midnightblue" stroke="midnightblue" points="86.07,-427.5 76.07,-431 86.07,-434.5 86.07,-427.5"/>
</g>
<!-- Node4 -->
<g id="node4" class="node">
<title>Node4</title>
<g id="a_node4"><a xlink:href="classthorin_1_1FPPass.html" target="_top" xlink:title=" ">
<polygon fill="none" stroke="black" points="877,-657.5 877,-676.5 1026,-676.5 1026,-657.5 877,-657.5"/>
<text text-anchor="middle" x="951.5" y="-664.5" font-family="Helvetica,sans-Serif" font-size="10.00">thorin::FPPass&lt; BetaRed &gt;</text>
</a>
</g>
</g>
<!-- Node3&#45;&gt;Node4 -->
<g id="edge3" class="edge">
<title>Node3&#45;&gt;Node4</title>
<path fill="none" stroke="midnightblue" d="M508.46,-588.35C550.58,-616.75 646.68,-676.56 738,-698 789.06,-709.99 804.21,-706.28 856,-698 881.4,-693.94 909.25,-684.1 928.09,-676.59"/>
<polygon fill="midnightblue" stroke="midnightblue" points="510.31,-585.38 500.08,-582.63 506.37,-591.16 510.31,-585.38"/>
</g>
<!-- Node6 -->
<g id="node6" class="node">
<title>Node6</title>
<g id="a_node6"><a xlink:href="classthorin_1_1FPPass.html" target="_top" xlink:title=" ">
<polygon fill="none" stroke="black" points="880.5,-725.5 880.5,-744.5 1022.5,-744.5 1022.5,-725.5 880.5,-725.5"/>
<text text-anchor="middle" x="951.5" y="-732.5" font-family="Helvetica,sans-Serif" font-size="10.00">thorin::FPPass&lt; EtaRed &gt;</text>
</a>
</g>
</g>
<!-- Node3&#45;&gt;Node6 -->
<g id="edge5" class="edge">
<title>Node3&#45;&gt;Node6</title>
<path fill="none" stroke="midnightblue" d="M498.57,-591.18C515.45,-615.12 548.41,-656.75 587,-679 678.41,-731.71 803.27,-739.7 880.31,-738.75"/>
<polygon fill="midnightblue" stroke="midnightblue" points="501.27,-588.93 492.73,-582.68 495.51,-592.9 501.27,-588.93"/>
</g>
<!-- Node8 -->
<g id="node8" class="node">
<title>Node8</title>
<g id="a_node8"><a xlink:href="classthorin_1_1FPPass.html" target="_top" xlink:title="Inherit from this class using CRTP, if you do need a Pass with a state and a fixed&#45;point.">
<polygon fill="none" stroke="black" points="590,-563.5 590,-582.5 717,-582.5 717,-563.5 590,-563.5"/>
<text text-anchor="middle" x="653.5" y="-570.5" font-family="Helvetica,sans-Serif" font-size="10.00">thorin::FPPass&lt; P, N &gt;</text>
</a>
</g>
</g>
<!-- Node3&#45;&gt;Node8 -->
<g id="edge7" class="edge">
<title>Node3&#45;&gt;Node8</title>
<path fill="none" stroke="midnightblue" d="M560.36,-573C570.18,-573 580.18,-573 589.79,-573"/>
<polygon fill="midnightblue" stroke="midnightblue" points="560.21,-569.5 550.21,-573 560.21,-576.5 560.21,-569.5"/>
</g>
<!-- Node5 -->
<g id="node5" class="node">
<title>Node5</title>
<g id="a_node5"><a xlink:href="classthorin_1_1BetaRed.html" target="_top" xlink:title="Optimistically performs β&#45;reduction (aka inlining).">
<polygon fill="none" stroke="black" points="1087,-657.5 1087,-676.5 1179,-676.5 1179,-657.5 1087,-657.5"/>
<text text-anchor="middle" x="1133" y="-664.5" font-family="Helvetica,sans-Serif" font-size="10.00">thorin::BetaRed</text>
</a>
</g>
</g>
<!-- Node4&#45;&gt;Node5 -->
<g id="edge4" class="edge">
<title>Node4&#45;&gt;Node5</title>
<path fill="none" stroke="midnightblue" d="M1036.25,-667C1053.71,-667 1071.48,-667 1086.89,-667"/>
<polygon fill="midnightblue" stroke="midnightblue" points="1036.03,-663.5 1026.03,-667 1036.03,-670.5 1036.03,-663.5"/>
</g>
<!-- Node7 -->
<g id="node7" class="node">
<title>Node7</title>
<g id="a_node7"><a xlink:href="classthorin_1_1EtaRed.html" target="_top" xlink:title="Performs η&#45;reduction.">
<polygon fill="none" stroke="black" points="1090,-725.5 1090,-744.5 1176,-744.5 1176,-725.5 1090,-725.5"/>
<text text-anchor="middle" x="1133" y="-732.5" font-family="Helvetica,sans-Serif" font-size="10.00">thorin::EtaRed</text>
</a>
</g>
</g>
<!-- Node6&#45;&gt;Node7 -->
<g id="edge6" class="edge">
<title>Node6&#45;&gt;Node7</title>
<path fill="none" stroke="midnightblue" d="M1032.88,-735C1052.55,-735 1072.83,-735 1089.88,-735"/>
<polygon fill="midnightblue" stroke="midnightblue" points="1032.67,-731.5 1022.67,-735 1032.67,-738.5 1032.67,-731.5"/>
</g>
<!-- Node8&#45;&gt;Node4 -->
<g id="edge8" class="edge">
<title>Node8&#45;&gt;Node4</title>
<path fill="none" stroke="orange" stroke-dasharray="5,2" d="M677.43,-588.36C693.72,-598.64 716.44,-611.76 738,-620 785.29,-638.08 841.3,-650.11 883.94,-657.47"/>
<polygon fill="orange" stroke="orange" points="678.94,-585.17 668.64,-582.69 675.15,-591.05 678.94,-585.17"/>
<text text-anchor="middle" x="797" y="-654" font-family="Helvetica,sans-Serif" font-size="10.00"> &lt; BetaRed &gt;</text>
</g>
<!-- Node8&#45;&gt;Node6 -->
<g id="edge11" class="edge">
<title>Node8&#45;&gt;Node6</title>
<path fill="none" stroke="orange" stroke-dasharray="5,2" d="M666.77,-591.15C681.46,-611.58 707.89,-644.47 738,-664 787.93,-696.39 854.08,-715.42 899.23,-725.5"/>
<polygon fill="orange" stroke="orange" points="669.48,-588.91 660.87,-582.73 663.74,-592.93 669.48,-588.91"/>
<text text-anchor="middle" x="797" y="-717" font-family="Helvetica,sans-Serif" font-size="10.00"> &lt; EtaRed &gt;</text>
</g>
<!-- Node9 -->
<g id="node9" class="node">
<title>Node9</title>
<g id="a_node9"><a xlink:href="classthorin_1_1FPPass.html" target="_top" xlink:title=" ">
<polygon fill="none" stroke="black" points="885,-540 885,-570 1018,-570 1018,-540 885,-540"/>
<text text-anchor="start" x="893" y="-558" font-family="Helvetica,sans-Serif" font-size="10.00">thorin::FPPass&lt; EtaExp,</text>
<text text-anchor="middle" x="951.5" y="-547" font-family="Helvetica,sans-Serif" font-size="10.00"> Lam &gt;</text>
</a>
</g>
</g>
<!-- Node8&#45;&gt;Node9 -->
<g id="edge9" class="edge">
<title>Node8&#45;&gt;Node9</title>
<path fill="none" stroke="orange" stroke-dasharray="5,2" d="M727.34,-568.57C775.58,-565.64 838.33,-561.82 885,-558.98"/>
<polygon fill="orange" stroke="orange" points="727.04,-565.08 717.27,-569.18 727.47,-572.07 727.04,-565.08"/>
<text text-anchor="middle" x="797" y="-570" font-family="Helvetica,sans-Serif" font-size="10.00"> &lt; EtaExp, Lam &gt;</text>
</g>
<!-- Node11 -->
<g id="node11" class="node">
<title>Node11</title>
<g id="a_node11"><a xlink:href="classthorin_1_1FPPass.html" target="_top" xlink:title=" ">
<polygon fill="none" stroke="black" points="874,-490 874,-520 1029,-520 1029,-490 874,-490"/>
<text text-anchor="start" x="882" y="-508" font-family="Helvetica,sans-Serif" font-size="10.00">thorin::FPPass&lt; TailRecElim,</text>
<text text-anchor="middle" x="951.5" y="-497" font-family="Helvetica,sans-Serif" font-size="10.00"> Lam &gt;</text>
</a>
</g>
</g>
<!-- Node8&#45;&gt;Node11 -->
<g id="edge12" class="edge">
<title>Node8&#45;&gt;Node11</title>
<path fill="none" stroke="orange" stroke-dasharray="5,2" d="M689.91,-559.93C704.64,-554.8 722.01,-549.16 738,-545 782.5,-533.41 833.07,-523.75 873.71,-516.83"/>
<polygon fill="orange" stroke="orange" points="688.44,-556.74 680.18,-563.37 690.77,-563.33 688.44,-556.74"/>
<text text-anchor="middle" x="797" y="-548" font-family="Helvetica,sans-Serif" font-size="10.00"> &lt; TailRecElim, Lam &gt;</text>
</g>
<!-- Node13 -->
<g id="node13" class="node">
<title>Node13</title>
<g id="a_node13"><a xlink:href="classthorin_1_1FPPass.html" target="_top" xlink:title=" ">
<polygon fill="none" stroke="black" points="874.5,-590 874.5,-620 1028.5,-620 1028.5,-590 874.5,-590"/>
<text text-anchor="start" x="882.5" y="-608" font-family="Helvetica,sans-Serif" font-size="10.00">thorin::FPPass&lt; LowerTyped</text>
<text text-anchor="middle" x="951.5" y="-597" font-family="Helvetica,sans-Serif" font-size="10.00">ClosPrep, Lam &gt;</text>
</a>
</g>
</g>
<!-- Node8&#45;&gt;Node13 -->
<g id="edge14" class="edge">
<title>Node8&#45;&gt;Node13</title>
<path fill="none" stroke="orange" stroke-dasharray="5,2" d="M727.47,-580.89C772.14,-585.72 829.2,-591.89 874.42,-596.78"/>
<polygon fill="orange" stroke="orange" points="727.59,-577.38 717.27,-579.79 726.84,-584.34 727.59,-577.38"/>
<text text-anchor="start" x="738" y="-608" font-family="Helvetica,sans-Serif" font-size="10.00"> &lt; LowerTypedClosPrep,</text>
<text text-anchor="middle" x="797" y="-597" font-family="Helvetica,sans-Serif" font-size="10.00"> Lam &gt;</text>
</g>
<!-- Node15 -->
<g id="node15" class="node">
<title>Node15</title>
<g id="a_node15"><a xlink:href="classthorin_1_1FPPass.html" target="_top" xlink:title=" ">
<polygon fill="none" stroke="black" points="878.5,-435 878.5,-465 1024.5,-465 1024.5,-435 878.5,-435"/>
<text text-anchor="start" x="886.5" y="-453" font-family="Helvetica,sans-Serif" font-size="10.00">thorin::FPPass&lt; CopyProp,</text>
<text text-anchor="middle" x="951.5" y="-442" font-family="Helvetica,sans-Serif" font-size="10.00"> Lam &gt;</text>
</a>
</g>
</g>
<!-- Node8&#45;&gt;Node15 -->
<g id="edge16" class="edge">
<title>Node8&#45;&gt;Node15</title>
<path fill="none" stroke="orange" stroke-dasharray="5,2" d="M671.17,-555.7C686.99,-540.25 712.15,-518.08 738,-505 782.04,-482.72 835.9,-468.91 878.37,-460.7"/>
<polygon fill="orange" stroke="orange" points="668.38,-553.54 663.79,-563.09 673.33,-558.49 668.38,-553.54"/>
<text text-anchor="middle" x="797" y="-508" font-family="Helvetica,sans-Serif" font-size="10.00"> &lt; CopyProp, Lam &gt;</text>
</g>
<!-- Node17 -->
<g id="node17" class="node">
<title>Node17</title>
<g id="a_node17"><a xlink:href="classthorin_1_1FPPass.html" target="_top" xlink:title=" ">
<polygon fill="none" stroke="black" points="876.5,-381 876.5,-411 1026.5,-411 1026.5,-381 876.5,-381"/>
<text text-anchor="start" x="884.5" y="-399" font-family="Helvetica,sans-Serif" font-size="10.00">thorin::FPPass&lt; SSAConstr,</text>
<text text-anchor="middle" x="951.5" y="-388" font-family="Helvetica,sans-Serif" font-size="10.00"> Lam &gt;</text>
</a>
</g>
</g>
<!-- Node8&#45;&gt;Node17 -->
<g id="edge18" class="edge">
<title>Node8&#45;&gt;Node17</title>
<path fill="none" stroke="orange" stroke-dasharray="5,2" d="M662.37,-553.79C674.49,-526.64 700.35,-477.42 738,-451 778.63,-422.49 832.92,-408.75 876.46,-402.14"/>
<polygon fill="orange" stroke="orange" points="659,-552.76 658.27,-563.33 665.43,-555.52 659,-552.76"/>
<text text-anchor="middle" x="797" y="-454" font-family="Helvetica,sans-Serif" font-size="10.00"> &lt; SSAConstr, Lam &gt;</text>
</g>
<!-- Node10 -->
<g id="node10" class="node">
<title>Node10</title>
<g id="a_node10"><a xlink:href="classthorin_1_1EtaExp.html" target="_top" xlink:title="Performs η&#45;expansion: f &#45;&gt; λx.f x, if f is a Lam with more than one user and does not appear in calle...">
<polygon fill="none" stroke="black" points="1090.5,-545.5 1090.5,-564.5 1175.5,-564.5 1175.5,-545.5 1090.5,-545.5"/>
<text text-anchor="middle" x="1133" y="-552.5" font-family="Helvetica,sans-Serif" font-size="10.00">thorin::EtaExp</text>
</a>
</g>
</g>
<!-- Node9&#45;&gt;Node10 -->
<g id="edge10" class="edge">
<title>Node9&#45;&gt;Node10</title>
<path fill="none" stroke="midnightblue" d="M1028.09,-555C1049.39,-555 1071.79,-555 1090.32,-555"/>
<polygon fill="midnightblue" stroke="midnightblue" points="1028.07,-551.5 1018.07,-555 1028.07,-558.5 1028.07,-551.5"/>
</g>
<!-- Node12 -->
<g id="node12" class="node">
<title>Node12</title>
<g id="a_node12"><a xlink:href="classthorin_1_1TailRecElim.html" target="_top" xlink:title=" ">
<polygon fill="none" stroke="black" points="1079.5,-495.5 1079.5,-514.5 1186.5,-514.5 1186.5,-495.5 1079.5,-495.5"/>
<text text-anchor="middle" x="1133" y="-502.5" font-family="Helvetica,sans-Serif" font-size="10.00">thorin::TailRecElim</text>
</a>
</g>
</g>
<!-- Node11&#45;&gt;Node12 -->
<g id="edge13" class="edge">
<title>Node11&#45;&gt;Node12</title>
<path fill="none" stroke="midnightblue" d="M1039.54,-505C1053.18,-505 1066.9,-505 1079.45,-505"/>
<polygon fill="midnightblue" stroke="midnightblue" points="1039.14,-501.5 1029.14,-505 1039.14,-508.5 1039.14,-501.5"/>
</g>
<!-- Node14 -->
<g id="node14" class="node">
<title>Node14</title>
<g id="a_node14"><a xlink:href="classthorin_1_1clos_1_1LowerTypedClosPrep.html" target="_top" xlink:title=" ">
<polygon fill="none" stroke="black" points="1066,-590 1066,-620 1200,-620 1200,-590 1066,-590"/>
<text text-anchor="start" x="1074" y="-608" font-family="Helvetica,sans-Serif" font-size="10.00">thorin::clos::LowerTyped</text>
<text text-anchor="middle" x="1133" y="-597" font-family="Helvetica,sans-Serif" font-size="10.00">ClosPrep</text>
</a>
</g>
</g>
<!-- Node13&#45;&gt;Node14 -->
<g id="edge15" class="edge">
<title>Node13&#45;&gt;Node14</title>
<path fill="none" stroke="midnightblue" d="M1038.87,-605C1047.99,-605 1057.15,-605 1065.98,-605"/>
<polygon fill="midnightblue" stroke="midnightblue" points="1038.62,-601.5 1028.62,-605 1038.62,-608.5 1038.62,-601.5"/>
</g>
<!-- Node16 -->
<g id="node16" class="node">
<title>Node16</title>
<g id="a_node16"><a xlink:href="classthorin_1_1mem_1_1CopyProp.html" target="_top" xlink:title="This FPPass is similar to sparse conditional constant propagation (SCCP).">
<polygon fill="none" stroke="black" points="1068.5,-440.5 1068.5,-459.5 1197.5,-459.5 1197.5,-440.5 1068.5,-440.5"/>
<text text-anchor="middle" x="1133" y="-447.5" font-family="Helvetica,sans-Serif" font-size="10.00">thorin::mem::CopyProp</text>
</a>
</g>
</g>
<!-- Node15&#45;&gt;Node16 -->
<g id="edge17" class="edge">
<title>Node15&#45;&gt;Node16</title>
<path fill="none" stroke="midnightblue" d="M1034.95,-450C1046.15,-450 1057.5,-450 1068.3,-450"/>
<polygon fill="midnightblue" stroke="midnightblue" points="1034.73,-446.5 1024.73,-450 1034.73,-453.5 1034.73,-446.5"/>
</g>
<!-- Node18 -->
<g id="node18" class="node">
<title>Node18</title>
<g id="a_node18"><a xlink:href="classthorin_1_1mem_1_1SSAConstr.html" target="_top" xlink:title="SSA construction algorithm that promotes slots, loads, and stores to SSA values.">
<polygon fill="none" stroke="black" points="1066,-386.5 1066,-405.5 1200,-405.5 1200,-386.5 1066,-386.5"/>
<text text-anchor="middle" x="1133" y="-393.5" font-family="Helvetica,sans-Serif" font-size="10.00">thorin::mem::SSAConstr</text>
</a>
</g>
</g>
<!-- Node17&#45;&gt;Node18 -->
<g id="edge19" class="edge">
<title>Node17&#45;&gt;Node18</title>
<path fill="none" stroke="midnightblue" d="M1036.7,-396C1046.49,-396 1056.38,-396 1065.88,-396"/>
<polygon fill="midnightblue" stroke="midnightblue" points="1036.55,-392.5 1026.55,-396 1036.55,-399.5 1036.55,-392.5"/>
</g>
<!-- Node19&#45;&gt;Node9 -->
<g id="edge21" class="edge">
<title>Node19&#45;&gt;Node9</title>
<path fill="none" stroke="midnightblue" d="M658.62,-307.36C667.23,-343.44 690.43,-421.42 738,-467 779.01,-506.28 806.93,-487.42 856,-516 864.76,-521.1 865.05,-525.24 874,-530 881.03,-533.74 888.73,-537.05 896.44,-539.94"/>
<polygon fill="midnightblue" stroke="midnightblue" points="662.03,-306.57 656.4,-297.59 655.2,-308.12 662.03,-306.57"/>
</g>
<!-- Node19&#45;&gt;Node11 -->
<g id="edge22" class="edge">
<title>Node19&#45;&gt;Node11</title>
<path fill="none" stroke="midnightblue" d="M663.5,-306.81C676.67,-332.62 703.44,-379.12 738,-408 782.26,-444.98 805.62,-433.92 856,-462 864.4,-466.68 865.5,-469.5 874,-474 885.02,-479.83 897.39,-485.28 908.91,-489.93"/>
<polygon fill="midnightblue" stroke="midnightblue" points="666.56,-305.11 658.99,-297.71 660.29,-308.22 666.56,-305.11"/>
</g>
<!-- Node19&#45;&gt;Node13 -->
<g id="edge23" class="edge">
<title>Node19&#45;&gt;Node13</title>
<path fill="none" stroke="midnightblue" d="M655.42,-308.03C658.63,-353.78 673.08,-466.59 738,-526 777.92,-562.53 810.98,-525.98 856,-556 867.09,-563.4 863.16,-572.24 874,-580 879.34,-583.82 885.3,-587.09 891.46,-589.87"/>
<polygon fill="midnightblue" stroke="midnightblue" points="658.9,-307.69 654.82,-297.92 651.92,-308.1 658.9,-307.69"/>
</g>
<!-- Node19&#45;&gt;Node15 -->
<g id="edge24" class="edge">
<title>Node19&#45;&gt;Node15</title>
<path fill="none" stroke="midnightblue" d="M672.24,-304.25C688.29,-318.1 713.15,-337.54 738,-349 786.95,-371.57 814.9,-342.13 856,-377 871.8,-390.4 859.18,-405.52 874,-420 880.22,-426.08 887.82,-430.97 895.79,-434.89"/>
<polygon fill="midnightblue" stroke="midnightblue" points="674.51,-301.58 664.7,-297.58 669.87,-306.83 674.51,-301.58"/>
</g>
<!-- Node19&#45;&gt;Node17 -->
<g id="edge25" class="edge">
<title>Node19&#45;&gt;Node17</title>
<path fill="none" stroke="midnightblue" d="M683.3,-301.89C699.18,-309.17 719.39,-317.83 738,-324 789.16,-340.96 809.3,-325.09 856,-352 866.08,-357.81 864.17,-364.78 874,-371 880.02,-374.81 886.68,-378.09 893.48,-380.91"/>
<polygon fill="midnightblue" stroke="midnightblue" points="684.57,-298.62 674.03,-297.57 681.62,-304.97 684.57,-298.62"/>
</g>
<!-- Node20 -->
<g id="node20" class="node">
<title>Node20</title>
<g id="a_node20"><a xlink:href="classthorin_1_1LamSpec.html" target="_top" xlink:title=" ">
<polygon fill="none" stroke="black" points="904,-342.5 904,-361.5 999,-361.5 999,-342.5 904,-342.5"/>
<text text-anchor="middle" x="951.5" y="-349.5" font-family="Helvetica,sans-Serif" font-size="10.00">thorin::LamSpec</text>
</a>
</g>
</g>
<!-- Node19&#45;&gt;Node20 -->
<g id="edge26" class="edge">
<title>Node19&#45;&gt;Node20</title>
<path fill="none" stroke="midnightblue" d="M725.09,-299.34C763.99,-306.16 812.97,-315.72 856,-327 864.16,-329.14 865.9,-330.65 874,-333 885.43,-336.32 897.93,-339.58 909.45,-342.43"/>
<polygon fill="midnightblue" stroke="midnightblue" points="725.37,-295.83 714.92,-297.57 724.17,-302.73 725.37,-295.83"/>
</g>
<!-- Node21 -->
<g id="node21" class="node">
<title>Node21</title>
<g id="a_node21"><a xlink:href="classthorin_1_1RetWrap.html" target="_top" xlink:title=" ">
<polygon fill="none" stroke="black" points="905,-304.5 905,-323.5 998,-323.5 998,-304.5 905,-304.5"/>
<text text-anchor="middle" x="951.5" y="-311.5" font-family="Helvetica,sans-Serif" font-size="10.00">thorin::RetWrap</text>
</a>
</g>
</g>
<!-- Node19&#45;&gt;Node21 -->
<g id="edge27" class="edge">
<title>Node19&#45;&gt;Node21</title>
<path fill="none" stroke="midnightblue" d="M730.78,-292.27C768.5,-294.65 814.69,-297.95 856,-302 871.97,-303.57 889.4,-305.67 904.9,-307.68"/>
<polygon fill="midnightblue" stroke="midnightblue" points="730.57,-288.75 720.37,-291.63 730.14,-295.74 730.57,-288.75"/>
</g>
<!-- Node22 -->
<g id="node22" class="node">
<title>Node22</title>
<g id="a_node22"><a xlink:href="classthorin_1_1Scalerize.html" target="_top" xlink:title="Perform Scalarization (= Argument simplification), i.e.">
<polygon fill="none" stroke="black" points="904,-266.5 904,-285.5 999,-285.5 999,-266.5 904,-266.5"/>
<text text-anchor="middle" x="951.5" y="-273.5" font-family="Helvetica,sans-Serif" font-size="10.00">thorin::Scalerize</text>
</a>
</g>
</g>
<!-- Node19&#45;&gt;Node22 -->
<g id="edge28" class="edge">
<title>Node19&#45;&gt;Node22</title>
<path fill="none" stroke="midnightblue" d="M730.24,-277.6C732.85,-277.37 735.45,-277.17 738,-277 794.87,-273.14 860.49,-273.57 903.59,-274.52"/>
<polygon fill="midnightblue" stroke="midnightblue" points="729.68,-274.14 720.06,-278.57 730.35,-281.1 729.68,-274.14"/>
</g>
<!-- Node23 -->
<g id="node23" class="node">
<title>Node23</title>
<g id="a_node23"><a xlink:href="classthorin_1_1affine_1_1LowerFor.html" target="_top" xlink:title="Lowers the for axiom to actual control flow in CPS style.">
<polygon fill="none" stroke="black" points="887,-228.5 887,-247.5 1016,-247.5 1016,-228.5 887,-228.5"/>
<text text-anchor="middle" x="951.5" y="-235.5" font-family="Helvetica,sans-Serif" font-size="10.00">thorin::affine::LowerFor</text>
</a>
</g>
</g>
<!-- Node19&#45;&gt;Node23 -->
<g id="edge29" class="edge">
<title>Node19&#45;&gt;Node23</title>
<path fill="none" stroke="midnightblue" d="M706.3,-276.3C716.77,-274.09 727.72,-271.88 738,-270 787.73,-260.91 844.35,-252.47 886.63,-246.55"/>
<polygon fill="midnightblue" stroke="midnightblue" points="705.49,-272.9 696.45,-278.42 706.96,-279.74 705.49,-272.9"/>
</g>
<!-- Node24 -->
<g id="node24" class="node">
<title>Node24</title>
<g id="a_node24"><a xlink:href="classthorin_1_1clos_1_1BranchClosElim.html" target="_top" xlink:title=" ">
<polygon fill="none" stroke="black" points="875,-190.5 875,-209.5 1028,-209.5 1028,-190.5 875,-190.5"/>
<text text-anchor="middle" x="951.5" y="-197.5" font-family="Helvetica,sans-Serif" font-size="10.00">thorin::clos::BranchClosElim</text>
</a>
</g>
</g>
<!-- Node19&#45;&gt;Node24 -->
<g id="edge30" class="edge">
<title>Node19&#45;&gt;Node24</title>
<path fill="none" stroke="midnightblue" d="M680.47,-273.69C696.63,-265.26 718.07,-254.92 738,-248 788.91,-230.31 848.99,-217.44 892.25,-209.51"/>
<polygon fill="midnightblue" stroke="midnightblue" points="678.8,-270.62 671.61,-278.4 682.08,-276.8 678.8,-270.62"/>
</g>
<!-- Node25 -->
<g id="node25" class="node">
<title>Node25</title>
<g id="a_node25"><a xlink:href="classthorin_1_1clos_1_1Clos2SJLJ.html" target="_top" xlink:title=" ">
<polygon fill="none" stroke="black" points="891,-152.5 891,-171.5 1012,-171.5 1012,-152.5 891,-152.5"/>
<text text-anchor="middle" x="951.5" y="-159.5" font-family="Helvetica,sans-Serif" font-size="10.00">thorin::clos::Clos2SJLJ</text>
</a>
</g>
</g>
<!-- Node19&#45;&gt;Node25 -->
<g id="edge31" class="edge">
<title>Node19&#45;&gt;Node25</title>
<path fill="none" stroke="midnightblue" d="M669.14,-270.88C684.57,-253.92 710.43,-228.45 738,-214 786.11,-188.8 846.78,-175.52 890.96,-168.72"/>
<polygon fill="midnightblue" stroke="midnightblue" points="666.45,-268.63 662.44,-278.43 671.69,-273.27 666.45,-268.63"/>
</g>
<!-- Node26 -->
<g id="node26" class="node">
<title>Node26</title>
<g id="a_node26"><a xlink:href="classthorin_1_1clos_1_1ClosConvPrep.html" target="_top" xlink:title=" ">
<polygon fill="none" stroke="black" points="879.5,-114.5 879.5,-133.5 1023.5,-133.5 1023.5,-114.5 879.5,-114.5"/>
<text text-anchor="middle" x="951.5" y="-121.5" font-family="Helvetica,sans-Serif" font-size="10.00">thorin::clos::ClosConvPrep</text>
</a>
</g>
</g>
<!-- Node19&#45;&gt;Node26 -->
<g id="edge32" class="edge">
<title>Node19&#45;&gt;Node26</title>
<path fill="none" stroke="midnightblue" d="M662.7,-269.19C675.09,-243.1 701.1,-196.42 738,-172 779.79,-144.35 835.25,-132.46 879.03,-127.43"/>
<polygon fill="midnightblue" stroke="midnightblue" points="659.47,-267.84 658.5,-278.39 665.84,-270.75 659.47,-267.84"/>
</g>
<!-- Node27 -->
<g id="node27" class="node">
<title>Node27</title>
<g id="a_node27"><a xlink:href="classthorin_1_1direct_1_1DS2CPS.html" target="_top" xlink:title="This pass converts a direct style functions (abbreviated as ds) into CPS.">
<polygon fill="none" stroke="black" points="890,-76.5 890,-95.5 1013,-95.5 1013,-76.5 890,-76.5"/>
<text text-anchor="middle" x="951.5" y="-83.5" font-family="Helvetica,sans-Serif" font-size="10.00">thorin::direct::DS2CPS</text>
</a>
</g>
</g>
<!-- Node19&#45;&gt;Node27 -->
<g id="edge33" class="edge">
<title>Node19&#45;&gt;Node27</title>
<path fill="none" stroke="midnightblue" d="M658.85,-268.42C667.55,-234.15 690.46,-163.57 738,-128 781.66,-95.33 844.03,-86.19 889.92,-84.41"/>
<polygon fill="midnightblue" stroke="midnightblue" points="655.44,-267.64 656.52,-278.18 662.25,-269.27 655.44,-267.64"/>
</g>
<!-- Node28 -->
<g id="node28" class="node">
<title>Node28</title>
<g id="a_node28"><a xlink:href="classthorin_1_1mem_1_1Alloc2Malloc.html" target="_top" xlink:title=" ">
<polygon fill="none" stroke="black" points="879,-0.5 879,-19.5 1024,-19.5 1024,-0.5 879,-0.5"/>
<text text-anchor="middle" x="951.5" y="-7.5" font-family="Helvetica,sans-Serif" font-size="10.00">thorin::mem::Alloc2Malloc</text>
</a>
</g>
</g>
<!-- Node19&#45;&gt;Node28 -->
<g id="edge34" class="edge">
<title>Node19&#45;&gt;Node28</title>
<path fill="none" stroke="midnightblue" d="M654.68,-268.03C656.29,-220.41 667.49,-99.77 738,-41 776.66,-8.77 833.64,-1.92 878.87,-2.63"/>
<polygon fill="midnightblue" stroke="midnightblue" points="651.18,-268.17 654.45,-278.25 658.18,-268.33 651.18,-268.17"/>
</g>
<!-- Node29 -->
<g id="node29" class="node">
<title>Node29</title>
<g id="a_node29"><a xlink:href="classthorin_1_1mem_1_1RememElim.html" target="_top" xlink:title=" ">
<polygon fill="none" stroke="black" points="880,-38.5 880,-57.5 1023,-57.5 1023,-38.5 880,-38.5"/>
<text text-anchor="middle" x="951.5" y="-45.5" font-family="Helvetica,sans-Serif" font-size="10.00">thorin::mem::RememElim</text>
</a>
</g>
</g>
<!-- Node19&#45;&gt;Node29 -->
<g id="edge35" class="edge">
<title>Node19&#45;&gt;Node29</title>
<path fill="none" stroke="midnightblue" d="M656.35,-268.27C661.35,-226.94 679.01,-131.22 738,-84 777.58,-52.31 834.8,-44.09 879.89,-43.36"/>
<polygon fill="midnightblue" stroke="midnightblue" points="652.85,-268.08 655.25,-278.4 659.81,-268.83 652.85,-268.08"/>
</g>
<!-- Node30&#45;&gt;Node3 -->
<g id="edge38" class="edge">
<title>Node30&#45;&gt;Node3</title>
<path fill="none" stroke="orange" stroke-dasharray="5,2" d="M330.46,-443.6C353.64,-451.22 381.22,-462.51 403,-478 437.35,-502.43 466.44,-544.39 478.52,-563.28"/>
<polygon fill="orange" stroke="orange" points="331.41,-440.23 320.82,-440.55 329.3,-446.9 331.41,-440.23"/>
<text text-anchor="middle" x="381.5" y="-481" font-family="Helvetica,sans-Serif" font-size="10.00"> &lt; Def &gt;</text>
</g>
<!-- Node30&#45;&gt;Node19 -->
<g id="edge39" class="edge">
<title>Node30&#45;&gt;Node19</title>
<path fill="none" stroke="orange" stroke-dasharray="5,2" d="M318.04,-417.62C391.91,-388.99 563.74,-322.4 627.82,-297.56"/>
<polygon fill="orange" stroke="orange" points="316.34,-414.52 308.28,-421.4 318.87,-421.05 316.34,-414.52"/>
<text text-anchor="middle" x="485.5" y="-381" font-family="Helvetica,sans-Serif" font-size="10.00"> &lt; Lam &gt;</text>
</g>
<!-- Node31 -->
<g id="node31" class="node">
<title>Node31</title>
<g id="a_node31"><a xlink:href="classthorin_1_1PartialEval.html" target="_top" xlink:title=" ">
<polygon fill="none" stroke="black" points="426,-421.5 426,-440.5 545,-440.5 545,-421.5 426,-421.5"/>
<text text-anchor="middle" x="485.5" y="-428.5" font-family="Helvetica,sans-Serif" font-size="10.00">thorin::PartialEval&lt;&gt;</text>
</a>
</g>
</g>
<!-- Node30&#45;&gt;Node31 -->
<g id="edge37" class="edge">
<title>Node30&#45;&gt;Node31</title>
<path fill="none" stroke="midnightblue" d="M352.24,-431C376.15,-431 402.73,-431 425.75,-431"/>
<polygon fill="midnightblue" stroke="midnightblue" points="352.18,-427.5 342.18,-431 352.18,-434.5 352.18,-427.5"/>
</g>
</g>
</svg>
