<?xml version="1.0" encoding="UTF-8" standalone="no"?>
<!DOCTYPE svg PUBLIC "-//W3C//DTD SVG 1.1//EN"
 "http://www.w3.org/Graphics/SVG/1.1/DTD/svg11.dtd">
<!-- Generated by graphviz version 2.50.0 (20220203.2022)
 -->
<!-- Title: thorin::HashSet&lt; Key, H, StackCapacity &gt; Pages: 1 -->
<svg width="836pt" height="466pt"
 viewBox="0.00 0.00 836.00 465.50" xmlns="http://www.w3.org/2000/svg" xmlns:xlink="http://www.w3.org/1999/xlink">
<g id="graph0" class="graph" transform="scale(1 1) rotate(0) translate(4 461.5)">
<title>thorin::HashSet&lt; Key, H, StackCapacity &gt;</title>
<!-- Node1 -->
<g id="node1" class="node">
<title>Node1</title>
<g id="a_node1"><a xlink:title="This container is for the most part compatible with std::unordered_set.">
<polygon fill="#bfbfbf" stroke="black" points="444,-210.5 444,-240.5 555,-240.5 555,-210.5 444,-210.5"/>
<text text-anchor="start" x="452" y="-228.5" font-family="Helvetica,sans-Serif" font-size="10.00">thorin::HashSet&lt; Key,</text>
<text text-anchor="middle" x="499.5" y="-217.5" font-family="Helvetica,sans-Serif" font-size="10.00"> H, StackCapacity &gt;</text>
</a>
</g>
</g>
<!-- Node4 -->
<g id="node4" class="node">
<title>Node4</title>
<g id="a_node4"><a xlink:href="classthorin_1_1HashSet.html" target="_top" xlink:title=" ">
<polygon fill="none" stroke="black" points="703,-432 703,-451 828,-451 828,-432 703,-432"/>
<text text-anchor="middle" x="765.5" y="-439" font-family="Helvetica,sans-Serif" font-size="10.00">thorin::HashSet&lt; Lam * &gt;</text>
</a>
</g>
</g>
<!-- Node1&#45;&gt;Node4 -->
<g id="edge3" class="edge">
<title>Node1&#45;&gt;Node4</title>
<path fill="none" stroke="orange" stroke-dasharray="5,2" d="M502.37,-250.64C506.87,-291.75 522.07,-372.82 573,-413.5 609.1,-442.33 661.66,-448.27 702.59,-447.59"/>
<polygon fill="orange" stroke="orange" points="505.85,-250.26 501.4,-240.64 498.88,-250.93 505.85,-250.26"/>
<text text-anchor="middle" x="629" y="-449.5" font-family="Helvetica,sans-Serif" font-size="10.00"> &lt; Lam * &gt;</text>
</g>
<!-- Node5 -->
<g id="node5" class="node">
<title>Node5</title>
<g id="a_node5"><a xlink:href="classthorin_1_1HashSet.html" target="_top" xlink:title=" ">
<polygon fill="none" stroke="black" points="707.5,-382.5 707.5,-412.5 823.5,-412.5 823.5,-382.5 707.5,-382.5"/>
<text text-anchor="start" x="715.5" y="-400.5" font-family="Helvetica,sans-Serif" font-size="10.00">thorin::HashSet&lt; const</text>
<text text-anchor="middle" x="765.5" y="-389.5" font-family="Helvetica,sans-Serif" font-size="10.00"> CFNode * &gt;</text>
</a>
</g>
</g>
<!-- Node1&#45;&gt;Node5 -->
<g id="edge4" class="edge">
<title>Node1&#45;&gt;Node5</title>
<path fill="none" stroke="orange" stroke-dasharray="5,2" d="M506.44,-250.68C515.29,-282.31 535.12,-335.8 573,-363.5 611.7,-391.8 666.39,-399.17 707.42,-400.12"/>
<polygon fill="orange" stroke="orange" points="509.79,-249.63 503.85,-240.86 503.02,-251.42 509.79,-249.63"/>
<text text-anchor="middle" x="629" y="-401.5" font-family="Helvetica,sans-Serif" font-size="10.00"> &lt; const CFNode * &gt;</text>
</g>
<!-- Node6 -->
<g id="node6" class="node">
<title>Node6</title>
<g id="a_node6"><a xlink:href="classthorin_1_1HashSet.html" target="_top" xlink:title=" ">
<polygon fill="none" stroke="black" points="703,-333.5 703,-363.5 828,-363.5 828,-333.5 703,-333.5"/>
<text text-anchor="start" x="711" y="-351.5" font-family="Helvetica,sans-Serif" font-size="10.00">thorin::HashSet&lt; DefDef,</text>
<text text-anchor="middle" x="765.5" y="-340.5" font-family="Helvetica,sans-Serif" font-size="10.00"> thorin::DefDefHash &gt;</text>
</a>
</g>
</g>
<!-- Node1&#45;&gt;Node6 -->
<g id="edge5" class="edge">
<title>Node1&#45;&gt;Node6</title>
<path fill="none" stroke="orange" stroke-dasharray="5,2" d="M517.6,-248.79C530.93,-265.31 550.84,-286.72 573,-299.5 612.84,-322.47 663.44,-334.82 702.62,-341.37"/>
<polygon fill="orange" stroke="orange" points="520.18,-246.4 511.26,-240.67 514.66,-250.71 520.18,-246.4"/>
<text text-anchor="start" x="576.5" y="-351.5" font-family="Helvetica,sans-Serif" font-size="10.00"> &lt; DefDef, thorin::DefDef</text>
<text text-anchor="middle" x="629" y="-340.5" font-family="Helvetica,sans-Serif" font-size="10.00">Hash &gt;</text>
</g>
<!-- Node7 -->
<g id="node7" class="node">
<title>Node7</title>
<g id="a_node7"><a xlink:href="classthorin_1_1HashSet.html" target="_top" xlink:title=" ">
<polygon fill="none" stroke="black" points="707.5,-284.5 707.5,-314.5 823.5,-314.5 823.5,-284.5 707.5,-284.5"/>
<text text-anchor="start" x="715.5" y="-302.5" font-family="Helvetica,sans-Serif" font-size="10.00">thorin::HashSet&lt; const</text>
<text text-anchor="middle" x="765.5" y="-291.5" font-family="Helvetica,sans-Serif" font-size="10.00"> Def * &gt;</text>
</a>
</g>
</g>
<!-- Node1&#45;&gt;Node7 -->
<g id="edge6" class="edge">
<title>Node1&#45;&gt;Node7</title>
<path fill="none" stroke="orange" stroke-dasharray="5,2" d="M540.33,-244.78C550.79,-249.38 562.19,-253.97 573,-257.5 617.16,-271.93 668.67,-282.91 707.14,-290.02"/>
<polygon fill="orange" stroke="orange" points="541.57,-241.51 531.01,-240.59 538.7,-247.89 541.57,-241.51"/>
<text text-anchor="middle" x="629" y="-287.5" font-family="Helvetica,sans-Serif" font-size="10.00"> &lt; const Def * &gt;</text>
</g>
<!-- Node8 -->
<g id="node8" class="node">
<title>Node8</title>
<g id="a_node8"><a xlink:href="classthorin_1_1HashSet.html" target="_top" xlink:title=" ">
<polygon fill="none" stroke="black" points="709,-235.5 709,-265.5 822,-265.5 822,-235.5 709,-235.5"/>
<text text-anchor="start" x="717" y="-253.5" font-family="Helvetica,sans-Serif" font-size="10.00">thorin::HashSet&lt; Use,</text>
<text text-anchor="middle" x="765.5" y="-242.5" font-family="Helvetica,sans-Serif" font-size="10.00"> UseHash &gt;</text>
</a>
</g>
</g>
<!-- Node1&#45;&gt;Node8 -->
<g id="edge7" class="edge">
<title>Node1&#45;&gt;Node8</title>
<path fill="none" stroke="orange" stroke-dasharray="5,2" d="M565.23,-231.63C609.29,-235.8 667,-241.27 708.96,-245.24"/>
<polygon fill="orange" stroke="orange" points="565.49,-228.14 555.2,-230.68 564.83,-235.11 565.49,-228.14"/>
<text text-anchor="middle" x="629" y="-245.5" font-family="Helvetica,sans-Serif" font-size="10.00"> &lt; Use, UseHash &gt;</text>
</g>
<!-- Node9 -->
<g id="node9" class="node">
<title>Node9</title>
<g id="a_node9"><a xlink:href="classthorin_1_1HashSet.html" target="_top" xlink:title=" ">
<polygon fill="none" stroke="black" points="707.5,-186.5 707.5,-216.5 823.5,-216.5 823.5,-186.5 707.5,-186.5"/>
<text text-anchor="start" x="715.5" y="-204.5" font-family="Helvetica,sans-Serif" font-size="10.00">thorin::HashSet&lt; const</text>
<text text-anchor="middle" x="765.5" y="-193.5" font-family="Helvetica,sans-Serif" font-size="10.00"> thorin::Proxy * &gt;</text>
</a>
</g>
</g>
<!-- Node1&#45;&gt;Node9 -->
<g id="edge8" class="edge">
<title>Node1&#45;&gt;Node9</title>
<path fill="none" stroke="orange" stroke-dasharray="5,2" d="M565.27,-218.27C567.88,-218 570.46,-217.75 573,-217.5 618.16,-213.12 669.38,-208.88 707.48,-205.87"/>
<polygon fill="orange" stroke="orange" points="564.7,-214.81 555.11,-219.32 565.42,-221.77 564.7,-214.81"/>
<text text-anchor="middle" x="629" y="-220.5" font-family="Helvetica,sans-Serif" font-size="10.00"> &lt; const thorin::Proxy * &gt;</text>
</g>
<!-- Node10 -->
<g id="node10" class="node">
<title>Node10</title>
<g id="a_node10"><a xlink:href="classthorin_1_1HashSet.html" target="_top" xlink:title=" ">
<polygon fill="none" stroke="black" points="707.5,-137.5 707.5,-167.5 823.5,-167.5 823.5,-137.5 707.5,-137.5"/>
<text text-anchor="start" x="715.5" y="-155.5" font-family="Helvetica,sans-Serif" font-size="10.00">thorin::HashSet&lt; const</text>
<text text-anchor="middle" x="765.5" y="-144.5" font-family="Helvetica,sans-Serif" font-size="10.00"> Var * &gt;</text>
</a>
</g>
</g>
<!-- Node1&#45;&gt;Node10 -->
<g id="edge9" class="edge">
<title>Node1&#45;&gt;Node10</title>
<path fill="none" stroke="orange" stroke-dasharray="5,2" d="M540.31,-206.18C550.78,-201.59 562.18,-197.01 573,-193.5 617.15,-179.2 668.66,-168.49 707.13,-161.61"/>
<polygon fill="orange" stroke="orange" points="538.68,-203.07 531,-210.37 541.56,-209.46 538.68,-203.07"/>
<text text-anchor="middle" x="629" y="-196.5" font-family="Helvetica,sans-Serif" font-size="10.00"> &lt; const Var * &gt;</text>
</g>
<!-- Node11 -->
<g id="node11" class="node">
<title>Node11</title>
<g id="a_node11"><a xlink:href="classthorin_1_1HashSet.html" target="_top" xlink:title=" ">
<polygon fill="none" stroke="black" points="705,-99 705,-118 826,-118 826,-99 705,-99"/>
<text text-anchor="middle" x="765.5" y="-106" font-family="Helvetica,sans-Serif" font-size="10.00">thorin::HashSet&lt; Def * &gt;</text>
</a>
</g>
</g>
<!-- Node1&#45;&gt;Node11 -->
<g id="edge10" class="edge">
<title>Node1&#45;&gt;Node11</title>
<path fill="none" stroke="orange" stroke-dasharray="5,2" d="M517.58,-202.37C530.89,-186 550.8,-164.84 573,-152.5 613.7,-129.88 665.44,-118.87 704.88,-113.52"/>
<polygon fill="orange" stroke="orange" points="514.68,-200.4 511.24,-210.42 520.18,-204.73 514.68,-200.4"/>
<text text-anchor="middle" x="629" y="-155.5" font-family="Helvetica,sans-Serif" font-size="10.00"> &lt; Def * &gt;</text>
</g>
<!-- Node12 -->
<g id="node12" class="node">
<title>Node12</title>
<g id="a_node12"><a xlink:href="classthorin_1_1HashSet.html" target="_top" xlink:title=" ">
<polygon fill="none" stroke="black" points="707.5,-49.5 707.5,-79.5 823.5,-79.5 823.5,-49.5 707.5,-49.5"/>
<text text-anchor="start" x="715.5" y="-67.5" font-family="Helvetica,sans-Serif" font-size="10.00">thorin::HashSet&lt; const</text>
<text text-anchor="middle" x="765.5" y="-56.5" font-family="Helvetica,sans-Serif" font-size="10.00"> Def *, SeaHash &gt;</text>
</a>
</g>
</g>
<!-- Node1&#45;&gt;Node12 -->
<g id="edge11" class="edge">
<title>Node1&#45;&gt;Node12</title>
<path fill="none" stroke="orange" stroke-dasharray="5,2" d="M508.21,-200.6C518.35,-172.22 538.97,-126.64 573,-102.5 612.12,-74.75 666.5,-66.07 707.32,-63.85"/>
<polygon fill="orange" stroke="orange" points="504.85,-199.61 504.95,-210.21 511.48,-201.86 504.85,-199.61"/>
<text text-anchor="middle" x="629" y="-105.5" font-family="Helvetica,sans-Serif" font-size="10.00"> &lt; const Def *, SeaHash &gt;</text>
</g>
<!-- Node13 -->
<g id="node13" class="node">
<title>Node13</title>
<g id="a_node13"><a xlink:href="classthorin_1_1HashSet.html" target="_top" xlink:title=" ">
<polygon fill="none" stroke="black" points="710.5,-0.5 710.5,-30.5 820.5,-30.5 820.5,-0.5 710.5,-0.5"/>
<text text-anchor="start" x="718.5" y="-18.5" font-family="Helvetica,sans-Serif" font-size="10.00">thorin::HashSet&lt; u32,</text>
<text text-anchor="middle" x="765.5" y="-7.5" font-family="Helvetica,sans-Serif" font-size="10.00"> BreakHash &gt;</text>
</a>
</g>
</g>
<!-- Node1&#45;&gt;Node13 -->
<g id="edge12" class="edge">
<title>Node1&#45;&gt;Node13</title>
<path fill="none" stroke="orange" stroke-dasharray="5,2" d="M503.52,-200C509.51,-161.51 526.6,-89.09 573,-51.5 611.51,-20.3 668.66,-13.02 710.5,-12.5"/>
<polygon fill="orange" stroke="orange" points="500,-199.94 502.06,-210.34 506.93,-200.93 500,-199.94"/>
<text text-anchor="middle" x="629" y="-54.5" font-family="Helvetica,sans-Serif" font-size="10.00"> &lt; u32, BreakHash &gt;</text>
</g>
<!-- Node2 -->
<g id="node2" class="node">
<title>Node2</title>
<g id="a_node2"><a xlink:href="classthorin_1_1detail_1_1HashTable.html" target="_top" xlink:title=" ">
<polygon fill="none" stroke="black" points="276,-205 276,-246 407,-246 407,-205 276,-205"/>
<text text-anchor="start" x="284" y="-234" font-family="Helvetica,sans-Serif" font-size="10.00">thorin::detail::HashTable</text>
<text text-anchor="start" x="284" y="-223" font-family="Helvetica,sans-Serif" font-size="10.00">&lt; Key, void, typename Key</text>
<text text-anchor="middle" x="341.5" y="-212" font-family="Helvetica,sans-Serif" font-size="10.00">::Hash, 4 &gt;</text>
</a>
</g>
</g>
<!-- Node2&#45;&gt;Node1 -->
<g id="edge1" class="edge">
<title>Node2&#45;&gt;Node1</title>
<path fill="none" stroke="midnightblue" d="M417.55,-225.5C426.32,-225.5 435.14,-225.5 443.57,-225.5"/>
<polygon fill="midnightblue" stroke="midnightblue" points="417.3,-222 407.3,-225.5 417.3,-229 417.3,-222"/>
</g>
<!-- Node3 -->
<g id="node3" class="node">
<title>Node3</title>
<g id="a_node3"><a xlink:href="classthorin_1_1detail_1_1HashTable.html" target="_top" xlink:title="Used internally for HashSet and HashMap.">
<polygon fill="none" stroke="black" points="0,-210.5 0,-240.5 142,-240.5 142,-210.5 0,-210.5"/>
<text text-anchor="start" x="8" y="-228.5" font-family="Helvetica,sans-Serif" font-size="10.00">thorin::detail::HashTable</text>
<text text-anchor="middle" x="71" y="-217.5" font-family="Helvetica,sans-Serif" font-size="10.00">&lt; Key, T, H, StackCapacity &gt;</text>
</a>
</g>
</g>
<!-- Node3&#45;&gt;Node2 -->
<g id="edge2" class="edge">
<title>Node3&#45;&gt;Node2</title>
<path fill="none" stroke="orange" stroke-dasharray="5,2" d="M152.32,-225.5C191.76,-225.5 238.67,-225.5 275.78,-225.5"/>
<polygon fill="orange" stroke="orange" points="152.19,-222 142.19,-225.5 152.19,-229 152.19,-222"/>
<text text-anchor="start" x="160" y="-239.5" font-family="Helvetica,sans-Serif" font-size="10.00"> &lt; Key, void, typename</text>
<text text-anchor="middle" x="209" y="-228.5" font-family="Helvetica,sans-Serif" font-size="10.00"> Key::Hash, 4 &gt;</text>
</g>
</g>
</svg>
