<?xml version="1.0" encoding="UTF-8" standalone="no"?>
<!DOCTYPE svg PUBLIC "-//W3C//DTD SVG 1.1//EN"
 "http://www.w3.org/Graphics/SVG/1.1/DTD/svg11.dtd">
<!-- Generated by graphviz version 2.50.0 (20220203.2022)
 -->
<!-- Title: thorin/transform/closure_conv.cpp Pages: 1 -->
<svg width="1676pt" height="554pt"
 viewBox="0.00 0.00 1676.00 554.00" xmlns="http://www.w3.org/2000/svg" xmlns:xlink="http://www.w3.org/1999/xlink">
<g id="graph0" class="graph" transform="scale(1 1) rotate(0) translate(4 550)">
<title>thorin/transform/closure_conv.cpp</title>
<!-- Node1 -->
<g id="node1" class="node">
<title>Node1</title>
<g id="a_node1"><a xlink:title=" ">
<polygon fill="#bfbfbf" stroke="black" points="1085,-515.5 1085,-545.5 1204,-545.5 1204,-515.5 1085,-515.5"/>
<text text-anchor="start" x="1093" y="-533.5" font-family="Helvetica,sans-Serif" font-size="10.00">thorin/transform/closure</text>
<text text-anchor="middle" x="1144.5" y="-522.5" font-family="Helvetica,sans-Serif" font-size="10.00">_conv.cpp</text>
</a>
</g>
</g>
<!-- Node2 -->
<g id="node2" class="node">
<title>Node2</title>
<g id="a_node2"><a xlink:href="closure__conv_8h.html" target="_top" xlink:title=" ">
<polygon fill="none" stroke="black" points="711,-448.5 711,-478.5 830,-478.5 830,-448.5 711,-448.5"/>
<text text-anchor="start" x="719" y="-466.5" font-family="Helvetica,sans-Serif" font-size="10.00">thorin/transform/closure</text>
<text text-anchor="middle" x="770.5" y="-455.5" font-family="Helvetica,sans-Serif" font-size="10.00">_conv.h</text>
</a>
</g>
</g>
<!-- Node1&#45;&gt;Node2 -->
<g id="edge1" class="edge">
<title>Node1&#45;&gt;Node2</title>
<path fill="none" stroke="midnightblue" d="M1084.83,-519.13C1018.29,-507.56 910.79,-488.88 840.38,-476.65"/>
<polygon fill="midnightblue" stroke="midnightblue" points="840.72,-473.15 830.27,-474.89 839.52,-480.05 840.72,-473.15"/>
</g>
<!-- Node48 -->
<g id="node48" class="node">
<title>Node48</title>
<g id="a_node48"><a xlink:href="scope_8h.html" target="_top" xlink:title=" ">
<polygon fill="none" stroke="black" points="1549,-280.5 1549,-299.5 1668,-299.5 1668,-280.5 1549,-280.5"/>
<text text-anchor="middle" x="1608.5" y="-287.5" font-family="Helvetica,sans-Serif" font-size="10.00">thorin/analyses/scope.h</text>
</a>
</g>
</g>
<!-- Node1&#45;&gt;Node48 -->
<g id="edge83" class="edge">
<title>Node1&#45;&gt;Node48</title>
<path fill="none" stroke="midnightblue" d="M1204.2,-516.24C1290.87,-494.62 1453.21,-444.99 1563.5,-356 1579.47,-343.11 1592.13,-323.11 1599.91,-308.7"/>
<polygon fill="midnightblue" stroke="midnightblue" points="1603.04,-310.26 1604.49,-299.77 1596.81,-307.07 1603.04,-310.26"/>
</g>
<!-- Node3 -->
<g id="node3" class="node">
<title>Node3</title>
<g id="a_node3"><a xlink:title=" ">
<polygon fill="none" stroke="#bfbfbf" points="0,-392.5 0,-411.5 43,-411.5 43,-392.5 0,-392.5"/>
<text text-anchor="middle" x="21.5" y="-399.5" font-family="Helvetica,sans-Serif" font-size="10.00">queue</text>
</a>
</g>
</g>
<!-- Node2&#45;&gt;Node3 -->
<g id="edge2" class="edge">
<title>Node2&#45;&gt;Node3</title>
<path fill="none" stroke="midnightblue" d="M710.94,-461.78C588.04,-459.52 297.7,-450.23 57.5,-412 56.03,-411.77 54.53,-411.5 53.02,-411.21"/>
<polygon fill="midnightblue" stroke="midnightblue" points="53.59,-407.75 43.08,-409.04 52.1,-414.59 53.59,-407.75"/>
</g>
<!-- Node4 -->
<g id="node4" class="node">
<title>Node4</title>
<g id="a_node4"><a xlink:title=" ">
<polygon fill="none" stroke="#bfbfbf" points="61.5,-112.5 61.5,-131.5 105.5,-131.5 105.5,-112.5 61.5,-112.5"/>
<text text-anchor="middle" x="83.5" y="-119.5" font-family="Helvetica,sans-Serif" font-size="10.00">vector</text>
</a>
</g>
</g>
<!-- Node2&#45;&gt;Node4 -->
<g id="edge3" class="edge">
<title>Node2&#45;&gt;Node4</title>
<path fill="none" stroke="midnightblue" d="M710.9,-458.91C541.87,-447.93 71.5,-411.57 71.5,-347 71.5,-347 71.5,-347 71.5,-233 71.5,-200.76 76.66,-163.51 80.21,-141.68"/>
<polygon fill="midnightblue" stroke="midnightblue" points="83.71,-141.97 81.93,-131.52 76.81,-140.8 83.71,-141.97"/>
</g>
<!-- Node5 -->
<g id="node5" class="node">
<title>Node5</title>
<g id="a_node5"><a xlink:title=" ">
<polygon fill="none" stroke="#bfbfbf" points="790.5,-392.5 790.5,-411.5 820.5,-411.5 820.5,-392.5 790.5,-392.5"/>
<text text-anchor="middle" x="805.5" y="-399.5" font-family="Helvetica,sans-Serif" font-size="10.00">set</text>
</a>
</g>
</g>
<!-- Node2&#45;&gt;Node5 -->
<g id="edge4" class="edge">
<title>Node2&#45;&gt;Node5</title>
<path fill="none" stroke="midnightblue" d="M778.79,-448.4C783.72,-440.02 790.01,-429.33 795.25,-420.42"/>
<polygon fill="midnightblue" stroke="midnightblue" points="798.35,-422.05 800.41,-411.66 792.32,-418.5 798.35,-422.05"/>
</g>
<!-- Node6 -->
<g id="node6" class="node">
<title>Node6</title>
<g id="a_node6"><a xlink:href="world_8h.html" target="_top" xlink:title=" ">
<polygon fill="none" stroke="black" points="698.5,-392.5 698.5,-411.5 772.5,-411.5 772.5,-392.5 698.5,-392.5"/>
<text text-anchor="middle" x="735.5" y="-399.5" font-family="Helvetica,sans-Serif" font-size="10.00">thorin/world.h</text>
</a>
</g>
</g>
<!-- Node2&#45;&gt;Node6 -->
<g id="edge5" class="edge">
<title>Node2&#45;&gt;Node6</title>
<path fill="none" stroke="midnightblue" d="M762.21,-448.4C757.28,-440.02 750.99,-429.33 745.75,-420.42"/>
<polygon fill="midnightblue" stroke="midnightblue" points="748.68,-418.5 740.59,-411.66 742.65,-422.05 748.68,-418.5"/>
</g>
<!-- Node2&#45;&gt;Node48 -->
<g id="edge80" class="edge">
<title>Node2&#45;&gt;Node48</title>
<path fill="none" stroke="midnightblue" d="M830.19,-458.61C987.25,-447.69 1408.56,-413.7 1534.5,-356 1558.9,-344.82 1581.19,-322.92 1594.79,-307.65"/>
<polygon fill="midnightblue" stroke="midnightblue" points="1597.54,-309.81 1601.41,-299.95 1592.24,-305.25 1597.54,-309.81"/>
</g>
<!-- Node7 -->
<g id="node7" class="node">
<title>Node7</title>
<g id="a_node7"><a xlink:title=" ">
<polygon fill="none" stroke="#bfbfbf" points="228,-0.5 228,-19.5 277,-19.5 277,-0.5 228,-0.5"/>
<text text-anchor="middle" x="252.5" y="-7.5" font-family="Helvetica,sans-Serif" font-size="10.00">cassert</text>
</a>
</g>
</g>
<!-- Node6&#45;&gt;Node7 -->
<g id="edge6" class="edge">
<title>Node6&#45;&gt;Node7</title>
<path fill="none" stroke="midnightblue" d="M698.31,-400.12C605.78,-397.46 367.46,-387.64 295.5,-356 161.04,-296.87 107.47,-268.21 52.5,-132 23.08,-59.1 152.7,-27.24 217.52,-16.06"/>
<polygon fill="midnightblue" stroke="midnightblue" points="218.41,-19.46 227.7,-14.38 217.27,-12.55 218.41,-19.46"/>
</g>
<!-- Node8 -->
<g id="node8" class="node">
<title>Node8</title>
<g id="a_node8"><a xlink:title=" ">
<polygon fill="none" stroke="#bfbfbf" points="252,-112.5 252,-131.5 311,-131.5 311,-112.5 252,-112.5"/>
<text text-anchor="middle" x="281.5" y="-119.5" font-family="Helvetica,sans-Serif" font-size="10.00">functional</text>
</a>
</g>
</g>
<!-- Node6&#45;&gt;Node8 -->
<g id="edge7" class="edge">
<title>Node6&#45;&gt;Node8</title>
<path fill="none" stroke="midnightblue" d="M698.22,-399.11C596.11,-392.92 319.5,-368.97 319.5,-291 319.5,-291 319.5,-291 319.5,-233 319.5,-198.81 302.9,-161.76 291.64,-140.57"/>
<polygon fill="midnightblue" stroke="midnightblue" points="294.68,-138.83 286.78,-131.77 288.55,-142.22 294.68,-138.83"/>
</g>
<!-- Node9 -->
<g id="node9" class="node">
<title>Node9</title>
<g id="a_node9"><a xlink:title=" ">
<polygon fill="none" stroke="#bfbfbf" points="161.5,-112.5 161.5,-131.5 233.5,-131.5 233.5,-112.5 161.5,-112.5"/>
<text text-anchor="middle" x="197.5" y="-119.5" font-family="Helvetica,sans-Serif" font-size="10.00">initializer_list</text>
</a>
</g>
</g>
<!-- Node6&#45;&gt;Node9 -->
<g id="edge8" class="edge">
<title>Node6&#45;&gt;Node9</title>
<path fill="none" stroke="midnightblue" d="M698.47,-400.36C586.39,-397.44 258.5,-381.19 258.5,-291 258.5,-291 258.5,-291 258.5,-233 258.5,-195.57 231.16,-158.96 213.09,-138.84"/>
<polygon fill="midnightblue" stroke="midnightblue" points="215.62,-136.43 206.24,-131.51 210.51,-141.21 215.62,-136.43"/>
</g>
<!-- Node10 -->
<g id="node10" class="node">
<title>Node10</title>
<g id="a_node10"><a xlink:title=" ">
<polygon fill="none" stroke="#bfbfbf" points="1536.5,-0.5 1536.5,-19.5 1590.5,-19.5 1590.5,-0.5 1536.5,-0.5"/>
<text text-anchor="middle" x="1563.5" y="-7.5" font-family="Helvetica,sans-Serif" font-size="10.00">iostream</text>
</a>
</g>
</g>
<!-- Node6&#45;&gt;Node10 -->
<g id="edge9" class="edge">
<title>Node6&#45;&gt;Node10</title>
<path fill="none" stroke="midnightblue" d="M770.67,-392.47C869.2,-367.92 1155.26,-292.1 1376.5,-188 1463.13,-147.24 1511.68,-158.36 1560.5,-76 1568.69,-62.18 1568.71,-43.66 1567.1,-29.93"/>
<polygon fill="midnightblue" stroke="midnightblue" points="1570.51,-29.07 1565.52,-19.72 1563.6,-30.14 1570.51,-29.07"/>
</g>
<!-- Node11 -->
<g id="node11" class="node">
<title>Node11</title>
<g id="a_node11"><a xlink:title=" ">
<polygon fill="none" stroke="#bfbfbf" points="1614,-0.5 1614,-19.5 1655,-19.5 1655,-0.5 1614,-0.5"/>
<text text-anchor="middle" x="1634.5" y="-7.5" font-family="Helvetica,sans-Serif" font-size="10.00">string</text>
</a>
</g>
</g>
<!-- Node6&#45;&gt;Node11 -->
<g id="edge10" class="edge">
<title>Node6&#45;&gt;Node11</title>
<path fill="none" stroke="midnightblue" d="M772.85,-393.58C830.92,-382 938.04,-360.5 955.5,-356 1223.47,-286.87 1313.08,-295.32 1536.5,-132 1576.17,-103 1608.91,-54.18 1624.57,-28.3"/>
<polygon fill="midnightblue" stroke="midnightblue" points="1627.64,-29.99 1629.71,-19.6 1621.61,-26.43 1627.64,-29.99"/>
</g>
<!-- Node12 -->
<g id="node12" class="node">
<title>Node12</title>
<g id="a_node12"><a xlink:href="axiom_8h.html" target="_top" xlink:title=" ">
<polygon fill="none" stroke="black" points="649,-336.5 649,-355.5 726,-355.5 726,-336.5 649,-336.5"/>
<text text-anchor="middle" x="687.5" y="-343.5" font-family="Helvetica,sans-Serif" font-size="10.00">thorin/axiom.h</text>
</a>
</g>
</g>
<!-- Node6&#45;&gt;Node12 -->
<g id="edge11" class="edge">
<title>Node6&#45;&gt;Node12</title>
<path fill="none" stroke="midnightblue" d="M727.57,-392.08C720.65,-384.3 710.43,-372.8 702.05,-363.37"/>
<polygon fill="midnightblue" stroke="midnightblue" points="704.54,-360.9 695.28,-355.75 699.31,-365.55 704.54,-360.9"/>
</g>
<!-- Node18 -->
<g id="node18" class="node">
<title>Node18</title>
<g id="a_node18"><a xlink:href="hash_8h.html" target="_top" xlink:title=" ">
<polygon fill="none" stroke="black" points="954.5,-112.5 954.5,-131.5 1042.5,-131.5 1042.5,-112.5 954.5,-112.5"/>
<text text-anchor="middle" x="998.5" y="-119.5" font-family="Helvetica,sans-Serif" font-size="10.00">thorin/util/hash.h</text>
</a>
</g>
</g>
<!-- Node6&#45;&gt;Node18 -->
<g id="edge79" class="edge">
<title>Node6&#45;&gt;Node18</title>
<path fill="none" stroke="midnightblue" d="M762.74,-392.43C817.88,-374.27 937.5,-330.33 937.5,-291 937.5,-291 937.5,-291 937.5,-233 937.5,-195.57 964.84,-158.96 982.91,-138.84"/>
<polygon fill="midnightblue" stroke="midnightblue" points="985.49,-141.21 989.76,-131.51 980.38,-136.43 985.49,-141.21"/>
</g>
<!-- Node28 -->
<g id="node28" class="node">
<title>Node28</title>
<g id="a_node28"><a xlink:title=" ">
<polygon fill="none" stroke="#bfbfbf" points="444,-56.5 444,-75.5 521,-75.5 521,-56.5 444,-56.5"/>
<text text-anchor="middle" x="482.5" y="-63.5" font-family="Helvetica,sans-Serif" font-size="10.00">thorin/config.h</text>
</a>
</g>
</g>
<!-- Node6&#45;&gt;Node28 -->
<g id="edge74" class="edge">
<title>Node6&#45;&gt;Node28</title>
<path fill="none" stroke="midnightblue" d="M702.06,-392.41C658.13,-378.88 586.5,-348.07 586.5,-291 586.5,-291 586.5,-291 586.5,-177 586.5,-132.22 540.44,-98.32 509.62,-80.66"/>
<polygon fill="midnightblue" stroke="midnightblue" points="511.06,-77.46 500.62,-75.7 507.69,-83.59 511.06,-77.46"/>
</g>
<!-- Node46 -->
<g id="node46" class="node">
<title>Node46</title>
<g id="a_node46"><a xlink:href="lattice_8h.html" target="_top" xlink:title=" ">
<polygon fill="none" stroke="black" points="744,-336.5 744,-355.5 821,-355.5 821,-336.5 744,-336.5"/>
<text text-anchor="middle" x="782.5" y="-343.5" font-family="Helvetica,sans-Serif" font-size="10.00">thorin/lattice.h</text>
</a>
</g>
</g>
<!-- Node6&#45;&gt;Node46 -->
<g id="edge75" class="edge">
<title>Node6&#45;&gt;Node46</title>
<path fill="none" stroke="midnightblue" d="M743.26,-392.08C750.04,-384.3 760.04,-372.8 768.26,-363.37"/>
<polygon fill="midnightblue" stroke="midnightblue" points="770.96,-365.59 774.88,-355.75 765.68,-361 770.96,-365.59"/>
</g>
<!-- Node47 -->
<g id="node47" class="node">
<title>Node47</title>
<g id="a_node47"><a xlink:href="tuple_8h.html" target="_top" xlink:title=" ">
<polygon fill="none" stroke="black" points="812.5,-280.5 812.5,-299.5 884.5,-299.5 884.5,-280.5 812.5,-280.5"/>
<text text-anchor="middle" x="848.5" y="-287.5" font-family="Helvetica,sans-Serif" font-size="10.00">thorin/tuple.h</text>
</a>
</g>
</g>
<!-- Node6&#45;&gt;Node47 -->
<g id="edge77" class="edge">
<title>Node6&#45;&gt;Node47</title>
<path fill="none" stroke="midnightblue" d="M770.32,-392.38C790.6,-385.65 815.11,-374.3 830.5,-356 841.44,-342.99 845.76,-323.83 847.45,-309.68"/>
<polygon fill="midnightblue" stroke="midnightblue" points="850.95,-309.88 848.32,-299.62 843.97,-309.28 850.95,-309.88"/>
</g>
<!-- Node13 -->
<g id="node13" class="node">
<title>Node13</title>
<g id="a_node13"><a xlink:href="lam_8h.html" target="_top" xlink:title=" ">
<polygon fill="none" stroke="black" points="670,-280.5 670,-299.5 737,-299.5 737,-280.5 670,-280.5"/>
<text text-anchor="middle" x="703.5" y="-287.5" font-family="Helvetica,sans-Serif" font-size="10.00">thorin/lam.h</text>
</a>
</g>
</g>
<!-- Node12&#45;&gt;Node13 -->
<g id="edge12" class="edge">
<title>Node12&#45;&gt;Node13</title>
<path fill="none" stroke="midnightblue" d="M690.14,-336.08C692.29,-328.85 695.38,-318.41 698.05,-309.4"/>
<polygon fill="midnightblue" stroke="midnightblue" points="701.42,-310.33 700.91,-299.75 694.71,-308.34 701.42,-310.33"/>
</g>
<!-- Node14 -->
<g id="node14" class="node">
<title>Node14</title>
<g id="a_node14"><a xlink:href="def_8h.html" target="_top" xlink:title=" ">
<polygon fill="none" stroke="black" points="764,-224.5 764,-243.5 829,-243.5 829,-224.5 764,-224.5"/>
<text text-anchor="middle" x="796.5" y="-231.5" font-family="Helvetica,sans-Serif" font-size="10.00">thorin/def.h</text>
</a>
</g>
</g>
<!-- Node13&#45;&gt;Node14 -->
<g id="edge13" class="edge">
<title>Node13&#45;&gt;Node14</title>
<path fill="none" stroke="midnightblue" d="M718.44,-280.32C733.09,-271.82 755.63,-258.73 772.74,-248.8"/>
<polygon fill="midnightblue" stroke="midnightblue" points="774.7,-251.7 781.6,-243.65 771.19,-245.65 774.7,-251.7"/>
</g>
<!-- Node14&#45;&gt;Node4 -->
<g id="edge15" class="edge">
<title>Node14&#45;&gt;Node4</title>
<path fill="none" stroke="midnightblue" d="M763.74,-232.35C637.86,-229.63 189.38,-217.91 133.5,-188 114.14,-177.64 99.96,-156.17 91.75,-140.74"/>
<polygon fill="midnightblue" stroke="midnightblue" points="94.81,-139.04 87.21,-131.65 88.54,-142.16 94.81,-139.04"/>
</g>
<!-- Node15 -->
<g id="node15" class="node">
<title>Node15</title>
<g id="a_node15"><a xlink:title=" ">
<polygon fill="none" stroke="#bfbfbf" points="735.5,-56.5 735.5,-75.5 785.5,-75.5 785.5,-56.5 735.5,-56.5"/>
<text text-anchor="middle" x="760.5" y="-63.5" font-family="Helvetica,sans-Serif" font-size="10.00">optional</text>
</a>
</g>
</g>
<!-- Node14&#45;&gt;Node15 -->
<g id="edge14" class="edge">
<title>Node14&#45;&gt;Node15</title>
<path fill="none" stroke="midnightblue" d="M795.76,-224.37C793.91,-204.35 788.43,-153.32 777.5,-112 775.13,-103.02 771.6,-93.34 768.38,-85.28"/>
<polygon fill="midnightblue" stroke="midnightblue" points="771.51,-83.68 764.44,-75.79 765.04,-86.37 771.51,-83.68"/>
</g>
<!-- Node16 -->
<g id="node16" class="node">
<title>Node16</title>
<g id="a_node16"><a xlink:href="debug_8h.html" target="_top" xlink:title=" ">
<polygon fill="none" stroke="black" points="1260,-168.5 1260,-187.5 1337,-187.5 1337,-168.5 1260,-168.5"/>
<text text-anchor="middle" x="1298.5" y="-175.5" font-family="Helvetica,sans-Serif" font-size="10.00">thorin/debug.h</text>
</a>
</g>
</g>
<!-- Node14&#45;&gt;Node16 -->
<g id="edge16" class="edge">
<title>Node14&#45;&gt;Node16</title>
<path fill="none" stroke="midnightblue" d="M829.24,-229.83C901.28,-222.8 1078.96,-205.17 1227.5,-188 1234.71,-187.17 1242.33,-186.24 1249.8,-185.32"/>
<polygon fill="midnightblue" stroke="midnightblue" points="1250.34,-188.78 1259.83,-184.06 1249.47,-181.83 1250.34,-188.78"/>
</g>
<!-- Node14&#45;&gt;Node18 -->
<g id="edge69" class="edge">
<title>Node14&#45;&gt;Node18</title>
<path fill="none" stroke="midnightblue" d="M812.35,-224.37C847.38,-205.29 931.62,-159.42 973.7,-136.51"/>
<polygon fill="midnightblue" stroke="midnightblue" points="975.61,-139.45 982.72,-131.59 972.27,-133.3 975.61,-139.45"/>
</g>
<!-- Node29 -->
<g id="node29" class="node">
<title>Node29</title>
<g id="a_node29"><a xlink:href="stream_8h.html" target="_top" xlink:title=" ">
<polygon fill="none" stroke="black" points="1433,-56.5 1433,-75.5 1530,-75.5 1530,-56.5 1433,-56.5"/>
<text text-anchor="middle" x="1481.5" y="-63.5" font-family="Helvetica,sans-Serif" font-size="10.00">thorin/util/stream.h</text>
</a>
</g>
</g>
<!-- Node14&#45;&gt;Node29 -->
<g id="edge73" class="edge">
<title>Node14&#45;&gt;Node29</title>
<path fill="none" stroke="midnightblue" d="M829.17,-233.03C932.76,-232.72 1252.55,-228.41 1346.5,-188 1400.27,-164.87 1447.16,-111.49 1468.79,-84.02"/>
<polygon fill="midnightblue" stroke="midnightblue" points="1471.81,-85.83 1475.13,-75.77 1466.26,-81.57 1471.81,-85.83"/>
</g>
<!-- Node38 -->
<g id="node38" class="node">
<title>Node38</title>
<g id="a_node38"><a xlink:href="tables_8h.html" target="_top" xlink:title=" ">
<polygon fill="none" stroke="black" points="691,-112.5 691,-131.5 768,-131.5 768,-112.5 691,-112.5"/>
<text text-anchor="middle" x="729.5" y="-119.5" font-family="Helvetica,sans-Serif" font-size="10.00">thorin/tables.h</text>
</a>
</g>
</g>
<!-- Node14&#45;&gt;Node38 -->
<g id="edge50" class="edge">
<title>Node14&#45;&gt;Node38</title>
<path fill="none" stroke="midnightblue" d="M791.24,-224.37C780.23,-206.3 754.58,-164.18 740.04,-140.31"/>
<polygon fill="midnightblue" stroke="midnightblue" points="742.92,-138.31 734.73,-131.59 736.95,-141.95 742.92,-138.31"/>
</g>
<!-- Node41 -->
<g id="node41" class="node">
<title>Node41</title>
<g id="a_node41"><a xlink:href="array_8h.html" target="_top" xlink:title=" ">
<polygon fill="none" stroke="black" points="386.5,-168.5 386.5,-187.5 474.5,-187.5 474.5,-168.5 386.5,-168.5"/>
<text text-anchor="middle" x="430.5" y="-175.5" font-family="Helvetica,sans-Serif" font-size="10.00">thorin/util/array.h</text>
</a>
</g>
</g>
<!-- Node14&#45;&gt;Node41 -->
<g id="edge55" class="edge">
<title>Node14&#45;&gt;Node41</title>
<path fill="none" stroke="midnightblue" d="M763.7,-228.16C700.56,-218.84 561.59,-198.34 484.56,-186.98"/>
<polygon fill="midnightblue" stroke="midnightblue" points="484.98,-183.5 474.57,-185.5 483.96,-190.42 484.98,-183.5"/>
</g>
<!-- Node44 -->
<g id="node44" class="node">
<title>Node44</title>
<g id="a_node44"><a xlink:href="cast_8h.html" target="_top" xlink:title=" ">
<polygon fill="none" stroke="black" points="263.5,-56.5 263.5,-75.5 349.5,-75.5 349.5,-56.5 263.5,-56.5"/>
<text text-anchor="middle" x="306.5" y="-63.5" font-family="Helvetica,sans-Serif" font-size="10.00">thorin/util/cast.h</text>
</a>
</g>
</g>
<!-- Node14&#45;&gt;Node44 -->
<g id="edge66" class="edge">
<title>Node14&#45;&gt;Node44</title>
<path fill="none" stroke="midnightblue" d="M763.99,-233.4C643.95,-234.12 228.64,-229.41 152.5,-132 147.03,-125 147.17,-119.11 152.5,-112 159.09,-103.21 216.1,-88.15 258.85,-77.89"/>
<polygon fill="midnightblue" stroke="midnightblue" points="259.9,-81.24 268.82,-75.53 258.29,-74.43 259.9,-81.24"/>
</g>
<!-- Node45 -->
<g id="node45" class="node">
<title>Node45</title>
<g id="a_node45"><a xlink:href="ptr_8h.html" target="_top" xlink:title=" ">
<polygon fill="none" stroke="black" points="1336.5,-56.5 1336.5,-75.5 1414.5,-75.5 1414.5,-56.5 1336.5,-56.5"/>
<text text-anchor="middle" x="1375.5" y="-63.5" font-family="Helvetica,sans-Serif" font-size="10.00">thorin/util/ptr.h</text>
</a>
</g>
</g>
<!-- Node14&#45;&gt;Node45 -->
<g id="edge70" class="edge">
<title>Node14&#45;&gt;Node45</title>
<path fill="none" stroke="midnightblue" d="M826.41,-224.42C923.08,-196.71 1227.15,-109.53 1336.14,-78.28"/>
<polygon fill="midnightblue" stroke="midnightblue" points="1337.12,-81.64 1345.77,-75.52 1335.19,-74.92 1337.12,-81.64"/>
</g>
<!-- Node16&#45;&gt;Node11 -->
<g id="edge17" class="edge">
<title>Node16&#45;&gt;Node11</title>
<path fill="none" stroke="midnightblue" d="M1331.23,-168.43C1382.54,-154.13 1483.97,-122.32 1560.5,-76 1583.21,-62.25 1605.59,-41.27 1619.69,-26.89"/>
<polygon fill="midnightblue" stroke="midnightblue" points="1622.22,-29.31 1626.62,-19.67 1617.17,-24.46 1622.22,-29.31"/>
</g>
<!-- Node17 -->
<g id="node17" class="node">
<title>Node17</title>
<g id="a_node17"><a xlink:title=" ">
<polygon fill="none" stroke="#bfbfbf" points="1326.5,-112.5 1326.5,-131.5 1364.5,-131.5 1364.5,-112.5 1326.5,-112.5"/>
<text text-anchor="middle" x="1345.5" y="-119.5" font-family="Helvetica,sans-Serif" font-size="10.00">tuple</text>
</a>
</g>
</g>
<!-- Node16&#45;&gt;Node17 -->
<g id="edge18" class="edge">
<title>Node16&#45;&gt;Node17</title>
<path fill="none" stroke="midnightblue" d="M1306.26,-168.08C1313.04,-160.3 1323.04,-148.8 1331.26,-139.37"/>
<polygon fill="midnightblue" stroke="midnightblue" points="1333.96,-141.59 1337.88,-131.75 1328.68,-137 1333.96,-141.59"/>
</g>
<!-- Node16&#45;&gt;Node18 -->
<g id="edge19" class="edge">
<title>Node16&#45;&gt;Node18</title>
<path fill="none" stroke="midnightblue" d="M1259.89,-170.05C1207.24,-160.57 1112.62,-143.54 1052.82,-132.78"/>
<polygon fill="midnightblue" stroke="midnightblue" points="1053.27,-129.3 1042.81,-130.98 1052.03,-136.19 1053.27,-129.3"/>
</g>
<!-- Node16&#45;&gt;Node29 -->
<g id="edge49" class="edge">
<title>Node16&#45;&gt;Node29</title>
<path fill="none" stroke="midnightblue" d="M1298.5,-168.07C1299.01,-154.11 1302.08,-127.17 1317.5,-112 1332.57,-97.18 1382.09,-84.86 1422.81,-76.88"/>
<polygon fill="midnightblue" stroke="midnightblue" points="1423.51,-80.31 1432.68,-74.99 1422.2,-73.43 1423.51,-80.31"/>
</g>
<!-- Node18&#45;&gt;Node7 -->
<g id="edge23" class="edge">
<title>Node18&#45;&gt;Node7</title>
<path fill="none" stroke="midnightblue" d="M954.49,-113.06C919.26,-105.84 869.04,-93.62 827.5,-76 811.71,-69.3 810.81,-61.29 794.5,-56 699.52,-25.17 391.49,-14.57 287.31,-11.81"/>
<polygon fill="midnightblue" stroke="midnightblue" points="287.12,-8.31 277.03,-11.55 286.94,-15.3 287.12,-8.31"/>
</g>
<!-- Node18&#45;&gt;Node10 -->
<g id="edge27" class="edge">
<title>Node18&#45;&gt;Node10</title>
<path fill="none" stroke="midnightblue" d="M1042.55,-120.02C1164.52,-116.94 1500.3,-105.8 1539.5,-76 1553.69,-65.21 1559.5,-45.12 1561.87,-30.13"/>
<polygon fill="midnightblue" stroke="midnightblue" points="1565.38,-30.23 1563.09,-19.88 1558.43,-29.4 1565.38,-30.23"/>
</g>
<!-- Node18&#45;&gt;Node15 -->
<g id="edge29" class="edge">
<title>Node18&#45;&gt;Node15</title>
<path fill="none" stroke="midnightblue" d="M960.34,-112.42C920.27,-103.41 855.44,-88.78 799.5,-76 798.24,-75.71 796.96,-75.42 795.67,-75.12"/>
<polygon fill="midnightblue" stroke="midnightblue" points="796.2,-71.65 785.67,-72.83 794.63,-78.48 796.2,-71.65"/>
</g>
<!-- Node19 -->
<g id="node19" class="node">
<title>Node19</title>
<g id="a_node19"><a xlink:title=" ">
<polygon fill="none" stroke="#bfbfbf" points="661.5,-56.5 661.5,-75.5 717.5,-75.5 717.5,-56.5 661.5,-56.5"/>
<text text-anchor="middle" x="689.5" y="-63.5" font-family="Helvetica,sans-Serif" font-size="10.00">algorithm</text>
</a>
</g>
</g>
<!-- Node18&#45;&gt;Node19 -->
<g id="edge20" class="edge">
<title>Node18&#45;&gt;Node19</title>
<path fill="none" stroke="midnightblue" d="M954.03,-114.68C902.02,-107.07 813.13,-93.34 727.6,-76.1"/>
<polygon fill="midnightblue" stroke="midnightblue" points="728.23,-72.66 717.73,-74.1 726.83,-79.52 728.23,-72.66"/>
</g>
<!-- Node20 -->
<g id="node20" class="node">
<title>Node20</title>
<g id="a_node20"><a xlink:title=" ">
<polygon fill="none" stroke="#bfbfbf" points="1083.5,-56.5 1083.5,-75.5 1121.5,-75.5 1121.5,-56.5 1083.5,-56.5"/>
<text text-anchor="middle" x="1102.5" y="-63.5" font-family="Helvetica,sans-Serif" font-size="10.00">array</text>
</a>
</g>
</g>
<!-- Node18&#45;&gt;Node20 -->
<g id="edge21" class="edge">
<title>Node18&#45;&gt;Node20</title>
<path fill="none" stroke="midnightblue" d="M1015.21,-112.32C1031.81,-103.7 1057.5,-90.36 1076.72,-80.39"/>
<polygon fill="midnightblue" stroke="midnightblue" points="1078.57,-83.37 1085.83,-75.65 1075.34,-77.16 1078.57,-83.37"/>
</g>
<!-- Node21 -->
<g id="node21" class="node">
<title>Node21</title>
<g id="a_node21"><a xlink:title=" ">
<polygon fill="none" stroke="#bfbfbf" points="1178,-56.5 1178,-75.5 1207,-75.5 1207,-56.5 1178,-56.5"/>
<text text-anchor="middle" x="1192.5" y="-63.5" font-family="Helvetica,sans-Serif" font-size="10.00">bit</text>
</a>
</g>
</g>
<!-- Node18&#45;&gt;Node21 -->
<g id="edge22" class="edge">
<title>Node18&#45;&gt;Node21</title>
<path fill="none" stroke="midnightblue" d="M1031.15,-112.45C1064.51,-103.64 1117.75,-89.33 1163.5,-76 1164.96,-75.58 1166.45,-75.13 1167.95,-74.68"/>
<polygon fill="midnightblue" stroke="midnightblue" points="1169.24,-77.95 1177.78,-71.68 1167.19,-71.26 1169.24,-77.95"/>
</g>
<!-- Node22 -->
<g id="node22" class="node">
<title>Node22</title>
<g id="a_node22"><a xlink:title=" ">
<polygon fill="none" stroke="#bfbfbf" points="1224.5,-56.5 1224.5,-75.5 1280.5,-75.5 1280.5,-56.5 1224.5,-56.5"/>
<text text-anchor="middle" x="1252.5" y="-63.5" font-family="Helvetica,sans-Serif" font-size="10.00">cinttypes</text>
</a>
</g>
</g>
<!-- Node18&#45;&gt;Node22 -->
<g id="edge24" class="edge">
<title>Node18&#45;&gt;Node22</title>
<path fill="none" stroke="midnightblue" d="M1042.46,-112.48C1084.42,-104.23 1149.65,-91.07 1214.28,-76.45"/>
<polygon fill="midnightblue" stroke="midnightblue" points="1215.25,-79.82 1224.23,-74.19 1213.7,-72.99 1215.25,-79.82"/>
</g>
<!-- Node23 -->
<g id="node23" class="node">
<title>Node23</title>
<g id="a_node23"><a xlink:title=" ">
<polygon fill="none" stroke="#bfbfbf" points="1170.5,-0.5 1170.5,-19.5 1216.5,-19.5 1216.5,-0.5 1170.5,-0.5"/>
<text text-anchor="middle" x="1193.5" y="-7.5" font-family="Helvetica,sans-Serif" font-size="10.00">cstdint</text>
</a>
</g>
</g>
<!-- Node18&#45;&gt;Node23 -->
<g id="edge25" class="edge">
<title>Node18&#45;&gt;Node23</title>
<path fill="none" stroke="midnightblue" d="M1039.09,-112.45C1066.39,-105.48 1102.38,-93.82 1130.5,-76 1150.73,-63.18 1169.2,-42.6 1180.83,-28.03"/>
<polygon fill="midnightblue" stroke="midnightblue" points="1183.8,-29.91 1187.15,-19.86 1178.26,-25.63 1183.8,-29.91"/>
</g>
<!-- Node24 -->
<g id="node24" class="node">
<title>Node24</title>
<g id="a_node24"><a xlink:title=" ">
<polygon fill="none" stroke="#bfbfbf" points="545.5,-0.5 545.5,-19.5 591.5,-19.5 591.5,-0.5 545.5,-0.5"/>
<text text-anchor="middle" x="568.5" y="-7.5" font-family="Helvetica,sans-Serif" font-size="10.00">cstring</text>
</a>
</g>
</g>
<!-- Node18&#45;&gt;Node24 -->
<g id="edge26" class="edge">
<title>Node18&#45;&gt;Node24</title>
<path fill="none" stroke="midnightblue" d="M971.74,-112.44C945.65,-103.89 904.97,-90.04 870.5,-76 850.98,-68.05 847.61,-62.3 827.5,-56 748.79,-31.33 652.12,-19.07 602.08,-13.99"/>
<polygon fill="midnightblue" stroke="midnightblue" points="602.14,-10.47 591.85,-12.98 601.46,-17.44 602.14,-10.47"/>
</g>
<!-- Node25 -->
<g id="node25" class="node">
<title>Node25</title>
<g id="a_node25"><a xlink:title=" ">
<polygon fill="none" stroke="#bfbfbf" points="1329,-0.5 1329,-19.5 1380,-19.5 1380,-0.5 1329,-0.5"/>
<text text-anchor="middle" x="1354.5" y="-7.5" font-family="Helvetica,sans-Serif" font-size="10.00">memory</text>
</a>
</g>
</g>
<!-- Node18&#45;&gt;Node25 -->
<g id="edge28" class="edge">
<title>Node18&#45;&gt;Node25</title>
<path fill="none" stroke="midnightblue" d="M1042.65,-117.55C1113.06,-111.48 1247.16,-97.48 1289.5,-76 1311.63,-64.78 1330.86,-43.21 1342.54,-28"/>
<polygon fill="midnightblue" stroke="midnightblue" points="1345.39,-30.03 1348.52,-19.91 1339.76,-25.88 1345.39,-30.03"/>
</g>
<!-- Node26 -->
<g id="node26" class="node">
<title>Node26</title>
<g id="a_node26"><a xlink:title=" ">
<polygon fill="none" stroke="#bfbfbf" points="768.5,-0.5 768.5,-19.5 830.5,-19.5 830.5,-0.5 768.5,-0.5"/>
<text text-anchor="middle" x="799.5" y="-7.5" font-family="Helvetica,sans-Serif" font-size="10.00">type_traits</text>
</a>
</g>
</g>
<!-- Node18&#45;&gt;Node26 -->
<g id="edge30" class="edge">
<title>Node18&#45;&gt;Node26</title>
<path fill="none" stroke="midnightblue" d="M980.37,-112.42C962.05,-103.64 933.02,-89.42 908.5,-76 877.89,-59.25 843.44,-38.35 821.61,-24.84"/>
<polygon fill="midnightblue" stroke="midnightblue" points="823.42,-21.84 813.08,-19.54 819.72,-27.79 823.42,-21.84"/>
</g>
<!-- Node27 -->
<g id="node27" class="node">
<title>Node27</title>
<g id="a_node27"><a xlink:title=" ">
<polygon fill="none" stroke="#bfbfbf" points="1026,-56.5 1026,-75.5 1065,-75.5 1065,-56.5 1026,-56.5"/>
<text text-anchor="middle" x="1045.5" y="-63.5" font-family="Helvetica,sans-Serif" font-size="10.00">utility</text>
</a>
</g>
</g>
<!-- Node18&#45;&gt;Node27 -->
<g id="edge31" class="edge">
<title>Node18&#45;&gt;Node27</title>
<path fill="none" stroke="midnightblue" d="M1006.26,-112.08C1013.04,-104.3 1023.04,-92.8 1031.26,-83.37"/>
<polygon fill="midnightblue" stroke="midnightblue" points="1033.96,-85.59 1037.88,-75.75 1028.68,-81 1033.96,-85.59"/>
</g>
<!-- Node18&#45;&gt;Node28 -->
<g id="edge32" class="edge">
<title>Node18&#45;&gt;Node28</title>
<path fill="none" stroke="midnightblue" d="M954.06,-116.35C857.97,-106.29 631.47,-82.59 531.44,-72.12"/>
<polygon fill="midnightblue" stroke="midnightblue" points="531.62,-68.62 521.31,-71.06 530.89,-75.58 531.62,-68.62"/>
</g>
<!-- Node18&#45;&gt;Node29 -->
<g id="edge33" class="edge">
<title>Node18&#45;&gt;Node29</title>
<path fill="none" stroke="midnightblue" d="M1042.63,-117.04C1118.2,-110.1 1277.45,-94.8 1422.79,-76.03"/>
<polygon fill="midnightblue" stroke="midnightblue" points="1423.32,-79.49 1432.79,-74.73 1422.42,-72.55 1423.32,-79.49"/>
</g>
<!-- Node33 -->
<g id="node33" class="node">
<title>Node33</title>
<g id="a_node33"><a xlink:href="types_8h.html" target="_top" xlink:title=" ">
<polygon fill="none" stroke="black" points="917.5,-56.5 917.5,-75.5 1007.5,-75.5 1007.5,-56.5 917.5,-56.5"/>
<text text-anchor="middle" x="962.5" y="-63.5" font-family="Helvetica,sans-Serif" font-size="10.00">thorin/util/types.h</text>
</a>
</g>
</g>
<!-- Node18&#45;&gt;Node33 -->
<g id="edge42" class="edge">
<title>Node18&#45;&gt;Node33</title>
<path fill="none" stroke="midnightblue" d="M992.56,-112.08C987.52,-104.53 980.16,-93.49 973.99,-84.23"/>
<polygon fill="midnightblue" stroke="midnightblue" points="976.79,-82.13 968.33,-75.75 970.97,-86.01 976.79,-82.13"/>
</g>
<!-- Node29&#45;&gt;Node7 -->
<g id="edge34" class="edge">
<title>Node29&#45;&gt;Node7</title>
<path fill="none" stroke="midnightblue" d="M1432.82,-57.03C1429.67,-56.64 1426.54,-56.29 1423.5,-56 1308.03,-44.86 468.8,-17.85 287.12,-12.09"/>
<polygon fill="midnightblue" stroke="midnightblue" points="287.17,-8.59 277.06,-11.77 286.94,-15.59 287.17,-8.59"/>
</g>
<!-- Node29&#45;&gt;Node10 -->
<g id="edge37" class="edge">
<title>Node29&#45;&gt;Node10</title>
<path fill="none" stroke="midnightblue" d="M1494.67,-56.32C1507.35,-47.98 1526.73,-35.21 1541.71,-25.35"/>
<polygon fill="midnightblue" stroke="midnightblue" points="1543.93,-28.08 1550.36,-19.65 1540.08,-22.23 1543.93,-28.08"/>
</g>
<!-- Node29&#45;&gt;Node11 -->
<g id="edge41" class="edge">
<title>Node29&#45;&gt;Node11</title>
<path fill="none" stroke="midnightblue" d="M1505.74,-56.44C1532.43,-47.03 1575.36,-31.87 1604.23,-21.68"/>
<polygon fill="midnightblue" stroke="midnightblue" points="1605.54,-24.93 1613.8,-18.3 1603.21,-18.33 1605.54,-24.93"/>
</g>
<!-- Node29&#45;&gt;Node24 -->
<g id="edge35" class="edge">
<title>Node29&#45;&gt;Node24</title>
<path fill="none" stroke="midnightblue" d="M1432.81,-57.08C1429.67,-56.68 1426.54,-56.32 1423.5,-56 1340.83,-47.43 750.03,-19.49 602.04,-12.56"/>
<polygon fill="midnightblue" stroke="midnightblue" points="601.93,-9.05 591.78,-12.08 601.61,-16.05 601.93,-9.05"/>
</g>
<!-- Node29&#45;&gt;Node25 -->
<g id="edge38" class="edge">
<title>Node29&#45;&gt;Node25</title>
<path fill="none" stroke="midnightblue" d="M1461.38,-56.44C1440.48,-47.56 1407.57,-33.56 1383.78,-23.45"/>
<polygon fill="midnightblue" stroke="midnightblue" points="1385.1,-20.21 1374.53,-19.52 1382.36,-26.65 1385.1,-20.21"/>
</g>
<!-- Node30 -->
<g id="node30" class="node">
<title>Node30</title>
<g id="a_node30"><a xlink:title=" ">
<polygon fill="none" stroke="#bfbfbf" points="1468.5,-0.5 1468.5,-19.5 1518.5,-19.5 1518.5,-0.5 1468.5,-0.5"/>
<text text-anchor="middle" x="1493.5" y="-7.5" font-family="Helvetica,sans-Serif" font-size="10.00">fstream</text>
</a>
</g>
</g>
<!-- Node29&#45;&gt;Node30 -->
<g id="edge36" class="edge">
<title>Node29&#45;&gt;Node30</title>
<path fill="none" stroke="midnightblue" d="M1483.48,-56.08C1485.07,-48.93 1487.36,-38.64 1489.35,-29.69"/>
<polygon fill="midnightblue" stroke="midnightblue" points="1492.8,-30.27 1491.56,-19.75 1485.97,-28.75 1492.8,-30.27"/>
</g>
<!-- Node31 -->
<g id="node31" class="node">
<title>Node31</title>
<g id="a_node31"><a xlink:title=" ">
<polygon fill="none" stroke="#bfbfbf" points="1106.5,-0.5 1106.5,-19.5 1152.5,-19.5 1152.5,-0.5 1106.5,-0.5"/>
<text text-anchor="middle" x="1129.5" y="-7.5" font-family="Helvetica,sans-Serif" font-size="10.00">ranges</text>
</a>
</g>
</g>
<!-- Node29&#45;&gt;Node31 -->
<g id="edge39" class="edge">
<title>Node29&#45;&gt;Node31</title>
<path fill="none" stroke="midnightblue" d="M1432.78,-57.38C1429.64,-56.9 1426.52,-56.44 1423.5,-56 1310.38,-39.45 1278.31,-43.71 1162.77,-20.03"/>
<polygon fill="midnightblue" stroke="midnightblue" points="1163.33,-16.57 1152.83,-17.96 1161.91,-23.42 1163.33,-16.57"/>
</g>
<!-- Node32 -->
<g id="node32" class="node">
<title>Node32</title>
<g id="a_node32"><a xlink:title=" ">
<polygon fill="none" stroke="#bfbfbf" points="1398.5,-0.5 1398.5,-19.5 1450.5,-19.5 1450.5,-0.5 1398.5,-0.5"/>
<text text-anchor="middle" x="1424.5" y="-7.5" font-family="Helvetica,sans-Serif" font-size="10.00">sstream</text>
</a>
</g>
</g>
<!-- Node29&#45;&gt;Node32 -->
<g id="edge40" class="edge">
<title>Node29&#45;&gt;Node32</title>
<path fill="none" stroke="midnightblue" d="M1472.34,-56.32C1464,-48.42 1451.47,-36.55 1441.32,-26.94"/>
<polygon fill="midnightblue" stroke="midnightblue" points="1443.49,-24.17 1433.82,-19.83 1438.68,-29.25 1443.49,-24.17"/>
</g>
<!-- Node33&#45;&gt;Node23 -->
<g id="edge44" class="edge">
<title>Node33&#45;&gt;Node23</title>
<path fill="none" stroke="midnightblue" d="M1003.05,-56.47C1041.24,-48.3 1100.27,-35.3 1160.41,-20.18"/>
<polygon fill="midnightblue" stroke="midnightblue" points="1161.63,-23.48 1170.47,-17.63 1159.91,-16.69 1161.63,-23.48"/>
</g>
<!-- Node33&#45;&gt;Node26 -->
<g id="edge47" class="edge">
<title>Node33&#45;&gt;Node26</title>
<path fill="none" stroke="midnightblue" d="M936.67,-56.44C909.25,-47.36 865.72,-32.94 835.07,-22.78"/>
<polygon fill="midnightblue" stroke="midnightblue" points="835.8,-19.34 825.21,-19.52 833.6,-25.98 835.8,-19.34"/>
</g>
<!-- Node34 -->
<g id="node34" class="node">
<title>Node34</title>
<g id="a_node34"><a xlink:title=" ">
<polygon fill="none" stroke="#bfbfbf" points="848.5,-0.5 848.5,-19.5 892.5,-19.5 892.5,-0.5 848.5,-0.5"/>
<text text-anchor="middle" x="870.5" y="-7.5" font-family="Helvetica,sans-Serif" font-size="10.00">cmath</text>
</a>
</g>
</g>
<!-- Node33&#45;&gt;Node34 -->
<g id="edge43" class="edge">
<title>Node33&#45;&gt;Node34</title>
<path fill="none" stroke="midnightblue" d="M947.72,-56.32C933.23,-47.82 910.93,-34.73 894.01,-24.8"/>
<polygon fill="midnightblue" stroke="midnightblue" points="895.64,-21.7 885.24,-19.65 892.1,-27.74 895.64,-21.7"/>
</g>
<!-- Node35 -->
<g id="node35" class="node">
<title>Node35</title>
<g id="a_node35"><a xlink:title=" ">
<polygon fill="none" stroke="#bfbfbf" points="910.5,-0.5 910.5,-19.5 950.5,-19.5 950.5,-0.5 910.5,-0.5"/>
<text text-anchor="middle" x="930.5" y="-7.5" font-family="Helvetica,sans-Serif" font-size="10.00">limits</text>
</a>
</g>
</g>
<!-- Node33&#45;&gt;Node35 -->
<g id="edge45" class="edge">
<title>Node33&#45;&gt;Node35</title>
<path fill="none" stroke="midnightblue" d="M957.22,-56.08C952.79,-48.61 946.34,-37.72 940.88,-28.52"/>
<polygon fill="midnightblue" stroke="midnightblue" points="943.79,-26.57 935.69,-19.75 937.77,-30.14 943.79,-26.57"/>
</g>
<!-- Node36 -->
<g id="node36" class="node">
<title>Node36</title>
<g id="a_node36"><a xlink:title=" ">
<polygon fill="none" stroke="#bfbfbf" points="968.5,-0.5 968.5,-19.5 1020.5,-19.5 1020.5,-0.5 968.5,-0.5"/>
<text text-anchor="middle" x="994.5" y="-7.5" font-family="Helvetica,sans-Serif" font-size="10.00">ostream</text>
</a>
</g>
</g>
<!-- Node33&#45;&gt;Node36 -->
<g id="edge46" class="edge">
<title>Node33&#45;&gt;Node36</title>
<path fill="none" stroke="midnightblue" d="M967.78,-56.08C972.21,-48.61 978.66,-37.72 984.12,-28.52"/>
<polygon fill="midnightblue" stroke="midnightblue" points="987.23,-30.14 989.31,-19.75 981.21,-26.57 987.23,-30.14"/>
</g>
<!-- Node37 -->
<g id="node37" class="node">
<title>Node37</title>
<g id="a_node37"><a xlink:title=" ">
<polygon fill="none" stroke="#bfbfbf" points="1038.5,-0.5 1038.5,-19.5 1088.5,-19.5 1088.5,-0.5 1038.5,-0.5"/>
<text text-anchor="middle" x="1063.5" y="-7.5" font-family="Helvetica,sans-Serif" font-size="10.00">half.hpp</text>
</a>
</g>
</g>
<!-- Node33&#45;&gt;Node37 -->
<g id="edge48" class="edge">
<title>Node33&#45;&gt;Node37</title>
<path fill="none" stroke="midnightblue" d="M978.73,-56.32C994.85,-47.7 1019.8,-34.36 1038.46,-24.39"/>
<polygon fill="midnightblue" stroke="midnightblue" points="1040.14,-27.46 1047.31,-19.65 1036.84,-21.28 1040.14,-27.46"/>
</g>
<!-- Node38&#45;&gt;Node33 -->
<g id="edge54" class="edge">
<title>Node38&#45;&gt;Node33</title>
<path fill="none" stroke="midnightblue" d="M766.42,-112.44C806.9,-103.06 871.92,-87.99 915.88,-77.8"/>
<polygon fill="midnightblue" stroke="midnightblue" points="916.8,-81.18 925.75,-75.52 915.22,-74.36 916.8,-81.18"/>
</g>
<!-- Node39 -->
<g id="node39" class="node">
<title>Node39</title>
<g id="a_node39"><a xlink:title=" ">
<polygon fill="none" stroke="#bfbfbf" points="577.5,-56.5 577.5,-75.5 643.5,-75.5 643.5,-56.5 577.5,-56.5"/>
<text text-anchor="middle" x="610.5" y="-63.5" font-family="Helvetica,sans-Serif" font-size="10.00">string_view</text>
</a>
</g>
</g>
<!-- Node38&#45;&gt;Node39 -->
<g id="edge51" class="edge">
<title>Node38&#45;&gt;Node39</title>
<path fill="none" stroke="midnightblue" d="M710.64,-112.44C691.23,-103.64 660.77,-89.81 638.54,-79.72"/>
<polygon fill="midnightblue" stroke="midnightblue" points="639.82,-76.46 629.27,-75.52 636.93,-82.84 639.82,-76.46"/>
</g>
<!-- Node40 -->
<g id="node40" class="node">
<title>Node40</title>
<g id="a_node40"><a xlink:href="assert_8h.html" target="_top" xlink:title=" ">
<polygon fill="none" stroke="black" points="151.5,-56.5 151.5,-75.5 245.5,-75.5 245.5,-56.5 151.5,-56.5"/>
<text text-anchor="middle" x="198.5" y="-63.5" font-family="Helvetica,sans-Serif" font-size="10.00">thorin/util/assert.h</text>
</a>
</g>
</g>
<!-- Node38&#45;&gt;Node40 -->
<g id="edge52" class="edge">
<title>Node38&#45;&gt;Node40</title>
<path fill="none" stroke="midnightblue" d="M690.92,-118.2C611.49,-112.25 423.69,-97.23 255.55,-76.06"/>
<polygon fill="midnightblue" stroke="midnightblue" points="255.88,-72.57 245.52,-74.78 255,-79.52 255.88,-72.57"/>
</g>
<!-- Node40&#45;&gt;Node7 -->
<g id="edge53" class="edge">
<title>Node40&#45;&gt;Node7</title>
<path fill="none" stroke="midnightblue" d="M207.42,-56.08C215.28,-48.22 226.93,-36.57 236.42,-27.08"/>
<polygon fill="midnightblue" stroke="midnightblue" points="239.15,-29.3 243.75,-19.75 234.2,-24.35 239.15,-29.3"/>
</g>
<!-- Node41&#45;&gt;Node4 -->
<g id="edge65" class="edge">
<title>Node41&#45;&gt;Node4</title>
<path fill="none" stroke="midnightblue" d="M386.2,-170.11C315.39,-159.09 178.33,-137.76 115.89,-128.04"/>
<polygon fill="midnightblue" stroke="midnightblue" points="116.25,-124.56 105.83,-126.48 115.18,-131.47 116.25,-124.56"/>
</g>
<!-- Node41&#45;&gt;Node7 -->
<g id="edge56" class="edge">
<title>Node41&#45;&gt;Node7</title>
<path fill="none" stroke="midnightblue" d="M418.84,-168.41C399.31,-154.43 358.3,-126.83 319.5,-112 244.52,-83.33 193.29,-138.16 142.5,-76 118.18,-46.23 177.2,-26.98 217.87,-17.65"/>
<polygon fill="midnightblue" stroke="midnightblue" points="218.73,-21.04 227.75,-15.49 217.24,-14.2 218.73,-21.04"/>
</g>
<!-- Node41&#45;&gt;Node8 -->
<g id="edge60" class="edge">
<title>Node41&#45;&gt;Node8</title>
<path fill="none" stroke="midnightblue" d="M406.89,-168.44C382.04,-159.44 342.73,-145.19 314.75,-135.05"/>
<polygon fill="midnightblue" stroke="midnightblue" points="315.59,-131.63 305,-131.52 313.21,-138.21 315.59,-131.63"/>
</g>
<!-- Node41&#45;&gt;Node9 -->
<g id="edge61" class="edge">
<title>Node41&#45;&gt;Node9</title>
<path fill="none" stroke="midnightblue" d="M393.58,-168.44C352.99,-159.04 287.7,-143.9 243.73,-133.71"/>
<polygon fill="midnightblue" stroke="midnightblue" points="244.4,-130.28 233.86,-131.43 242.81,-137.09 244.4,-130.28"/>
</g>
<!-- Node41&#45;&gt;Node19 -->
<g id="edge59" class="edge">
<title>Node41&#45;&gt;Node19</title>
<path fill="none" stroke="midnightblue" d="M474.76,-176.02C519.24,-173.16 588.24,-163.46 638.5,-132 657.05,-120.39 671.61,-99.53 680.34,-84.57"/>
<polygon fill="midnightblue" stroke="midnightblue" points="683.44,-86.19 685.22,-75.75 677.31,-82.8 683.44,-86.19"/>
</g>
<!-- Node41&#45;&gt;Node24 -->
<g id="edge58" class="edge">
<title>Node41&#45;&gt;Node24</title>
<path fill="none" stroke="midnightblue" d="M421.21,-168.39C412.92,-160.02 401.36,-146.48 396.5,-132 390.49,-114.06 392.05,-67.26 401.5,-56 418.53,-35.71 491.42,-22.01 535.08,-15.46"/>
<polygon fill="midnightblue" stroke="midnightblue" points="535.84,-18.88 545.23,-13.98 534.83,-11.96 535.84,-18.88"/>
</g>
<!-- Node41&#45;&gt;Node26 -->
<g id="edge64" class="edge">
<title>Node41&#45;&gt;Node26</title>
<path fill="none" stroke="midnightblue" d="M461.81,-168.46C482.73,-161.46 509.74,-149.77 528.5,-132 556.21,-105.75 537.87,-78.78 568.5,-56 598.04,-34.04 700.43,-20.7 758.49,-14.72"/>
<polygon fill="midnightblue" stroke="midnightblue" points="758.84,-18.21 768.44,-13.73 758.14,-11.24 758.84,-18.21"/>
</g>
<!-- Node41&#45;&gt;Node31 -->
<g id="edge63" class="edge">
<title>Node41&#45;&gt;Node31</title>
<path fill="none" stroke="midnightblue" d="M467.05,-168.45C502.2,-158.39 547.42,-139.5 528.5,-112 503.15,-75.14 459.85,-112.86 434.5,-76 429.46,-68.68 428.39,-62.45 434.5,-56 483.5,-4.27 988.41,-30.13 1096.29,-19.46"/>
<polygon fill="midnightblue" stroke="midnightblue" points="1096.74,-22.93 1106.22,-18.19 1095.85,-15.99 1096.74,-22.93"/>
</g>
<!-- Node42 -->
<g id="node42" class="node">
<title>Node42</title>
<g id="a_node42"><a xlink:title=" ">
<polygon fill="none" stroke="#bfbfbf" points="406,-112.5 406,-131.5 455,-131.5 455,-112.5 406,-112.5"/>
<text text-anchor="middle" x="430.5" y="-119.5" font-family="Helvetica,sans-Serif" font-size="10.00">cstddef</text>
</a>
</g>
</g>
<!-- Node41&#45;&gt;Node42 -->
<g id="edge57" class="edge">
<title>Node41&#45;&gt;Node42</title>
<path fill="none" stroke="midnightblue" d="M430.5,-168.08C430.5,-161.01 430.5,-150.86 430.5,-141.99"/>
<polygon fill="midnightblue" stroke="midnightblue" points="434,-141.75 430.5,-131.75 427,-141.75 434,-141.75"/>
</g>
<!-- Node43 -->
<g id="node43" class="node">
<title>Node43</title>
<g id="a_node43"><a xlink:title=" ">
<polygon fill="none" stroke="#bfbfbf" points="473,-112.5 473,-131.5 520,-131.5 520,-112.5 473,-112.5"/>
<text text-anchor="middle" x="496.5" y="-119.5" font-family="Helvetica,sans-Serif" font-size="10.00">iterator</text>
</a>
</g>
</g>
<!-- Node41&#45;&gt;Node43 -->
<g id="edge62" class="edge">
<title>Node41&#45;&gt;Node43</title>
<path fill="none" stroke="midnightblue" d="M441.1,-168.32C450.96,-160.26 465.85,-148.08 477.72,-138.37"/>
<polygon fill="midnightblue" stroke="midnightblue" points="480.18,-140.88 485.7,-131.83 475.75,-135.46 480.18,-140.88"/>
</g>
<!-- Node44&#45;&gt;Node7 -->
<g id="edge67" class="edge">
<title>Node44&#45;&gt;Node7</title>
<path fill="none" stroke="midnightblue" d="M297.58,-56.08C289.72,-48.22 278.07,-36.57 268.58,-27.08"/>
<polygon fill="midnightblue" stroke="midnightblue" points="270.8,-24.35 261.25,-19.75 265.85,-29.3 270.8,-24.35"/>
</g>
<!-- Node44&#45;&gt;Node24 -->
<g id="edge68" class="edge">
<title>Node44&#45;&gt;Node24</title>
<path fill="none" stroke="midnightblue" d="M348.01,-56.44C399.93,-45.74 487.76,-27.64 535.39,-17.82"/>
<polygon fill="midnightblue" stroke="midnightblue" points="536.39,-21.19 545.48,-15.75 534.98,-14.34 536.39,-21.19"/>
</g>
<!-- Node45&#45;&gt;Node23 -->
<g id="edge71" class="edge">
<title>Node45&#45;&gt;Node23</title>
<path fill="none" stroke="midnightblue" d="M1346.66,-56.44C1314.05,-46.77 1261.04,-31.04 1226.72,-20.86"/>
<polygon fill="midnightblue" stroke="midnightblue" points="1227.3,-17.38 1216.72,-17.89 1225.31,-24.09 1227.3,-17.38"/>
</g>
<!-- Node45&#45;&gt;Node25 -->
<g id="edge72" class="edge">
<title>Node45&#45;&gt;Node25</title>
<path fill="none" stroke="midnightblue" d="M1372.03,-56.08C1369.19,-48.77 1365.07,-38.18 1361.54,-29.1"/>
<polygon fill="midnightblue" stroke="midnightblue" points="1364.79,-27.8 1357.9,-19.75 1358.27,-30.34 1364.79,-27.8"/>
</g>
<!-- Node46&#45;&gt;Node14 -->
<g id="edge76" class="edge">
<title>Node46&#45;&gt;Node14</title>
<path fill="none" stroke="midnightblue" d="M783.6,-336.37C785.86,-318.62 791.07,-277.67 794.13,-253.6"/>
<polygon fill="midnightblue" stroke="midnightblue" points="797.62,-253.95 795.41,-243.59 790.67,-253.07 797.62,-253.95"/>
</g>
<!-- Node47&#45;&gt;Node14 -->
<g id="edge78" class="edge">
<title>Node47&#45;&gt;Node14</title>
<path fill="none" stroke="midnightblue" d="M839.91,-280.08C832.34,-272.22 821.12,-260.57 811.99,-251.08"/>
<polygon fill="midnightblue" stroke="midnightblue" points="814.38,-248.53 804.93,-243.75 809.34,-253.38 814.38,-248.53"/>
</g>
<!-- Node48&#45;&gt;Node14 -->
<g id="edge81" class="edge">
<title>Node48&#45;&gt;Node14</title>
<path fill="none" stroke="midnightblue" d="M1548.79,-285.03C1392.6,-274.64 974.7,-246.85 839.41,-237.85"/>
<polygon fill="midnightblue" stroke="midnightblue" points="839.26,-234.34 829.05,-237.16 838.79,-241.32 839.26,-234.34"/>
</g>
<!-- Node48&#45;&gt;Node29 -->
<g id="edge82" class="edge">
<title>Node48&#45;&gt;Node29</title>
<path fill="none" stroke="midnightblue" d="M1603.52,-280.3C1584.68,-247.36 1517.48,-129.9 1491.69,-84.81"/>
<polygon fill="midnightblue" stroke="midnightblue" points="1494.59,-82.83 1486.58,-75.88 1488.51,-86.3 1494.59,-82.83"/>
</g>
</g>
</svg>
