<?xml version="1.0" encoding="UTF-8" standalone="no"?>
<!DOCTYPE svg PUBLIC "-//W3C//DTD SVG 1.1//EN"
 "http://www.w3.org/Graphics/SVG/1.1/DTD/svg11.dtd">
<!-- Generated by graphviz version 2.43.0 (0)
 -->
<!-- Title: dialects/clos/normalizers.cpp Pages: 1 -->
<svg width="1502pt" height="555pt"
 viewBox="0.00 0.00 1502.00 555.00" xmlns="http://www.w3.org/2000/svg" xmlns:xlink="http://www.w3.org/1999/xlink">
<g id="graph0" class="graph" transform="scale(1 1) rotate(0) translate(4 551)">
<title>dialects/clos/normalizers.cpp</title>
<!-- Node1 -->
<g id="node1" class="node">
<title>Node1</title>
<g id="a_node1"><a xlink:title=" ">
<polygon fill="#999999" stroke="#666666" points="1104,-547 946,-547 946,-528 1104,-528 1104,-547"/>
<text text-anchor="middle" x="1025" y="-535" font-family="Helvetica,sans-Serif" font-size="10.00">dialects/clos/normalizers.cpp</text>
</a>
</g>
</g>
<!-- Node2 -->
<g id="node2" class="node">
<title>Node2</title>
<g id="a_node2"><a xlink:href="clos_8h.html" target="_top" xlink:title=" ">
<polygon fill="white" stroke="#666666" points="1079.5,-492 970.5,-492 970.5,-473 1079.5,-473 1079.5,-492"/>
<text text-anchor="middle" x="1025" y="-480" font-family="Helvetica,sans-Serif" font-size="10.00">dialects/clos/clos.h</text>
</a>
</g>
</g>
<!-- Node1&#45;&gt;Node2 -->
<g id="edge1" class="edge">
<title>Node1&#45;&gt;Node2</title>
<path fill="none" stroke="#63b8ff" d="M1025,-527.75C1025,-520.8 1025,-510.85 1025,-502.13"/>
<polygon fill="#63b8ff" stroke="#63b8ff" points="1028.5,-502.09 1025,-492.09 1021.5,-502.09 1028.5,-502.09"/>
</g>
<!-- Node3 -->
<g id="node3" class="node">
<title>Node3</title>
<g id="a_node3"><a xlink:href="world_8h.html" target="_top" xlink:title=" ">
<polygon fill="white" stroke="#666666" points="705,-437 621,-437 621,-418 705,-418 705,-437"/>
<text text-anchor="middle" x="663" y="-425" font-family="Helvetica,sans-Serif" font-size="10.00">thorin/world.h</text>
</a>
</g>
</g>
<!-- Node2&#45;&gt;Node3 -->
<g id="edge2" class="edge">
<title>Node2&#45;&gt;Node3</title>
<path fill="none" stroke="#63b8ff" d="M970.41,-473.51C901.28,-463.39 782.99,-446.07 715.07,-436.12"/>
<polygon fill="#63b8ff" stroke="#63b8ff" points="715.43,-432.64 705.02,-434.65 714.41,-439.56 715.43,-432.64"/>
</g>
<!-- Node52 -->
<g id="node48" class="node">
<title>Node52</title>
<g id="a_node48"><a xlink:href="clos_2autogen_8h.html" target="_top" xlink:title=" ">
<polygon fill="white" stroke="#666666" points="1442.5,-437 1313.5,-437 1313.5,-418 1442.5,-418 1442.5,-437"/>
<text text-anchor="middle" x="1378" y="-425" font-family="Helvetica,sans-Serif" font-size="10.00">dialects/clos/autogen.h</text>
</a>
</g>
</g>
<!-- Node2&#45;&gt;Node52 -->
<g id="edge75" class="edge">
<title>Node2&#45;&gt;Node52</title>
<path fill="none" stroke="#63b8ff" d="M1079.77,-473.28C1142.21,-463.9 1244.29,-448.58 1311.31,-438.51"/>
<polygon fill="#63b8ff" stroke="#63b8ff" points="1311.98,-441.95 1321.35,-437.01 1310.94,-435.03 1311.98,-441.95"/>
</g>
<!-- Node4 -->
<g id="node4" class="node">
<title>Node4</title>
<g id="a_node4"><a xlink:title=" ">
<polygon fill="#e0e0e0" stroke="#999999" points="1169,-79.5 1113,-79.5 1113,-60.5 1169,-60.5 1169,-79.5"/>
<text text-anchor="middle" x="1141" y="-67.5" font-family="Helvetica,sans-Serif" font-size="10.00">sstream</text>
</a>
</g>
</g>
<!-- Node3&#45;&gt;Node4 -->
<g id="edge3" class="edge">
<title>Node3&#45;&gt;Node4</title>
<path fill="none" stroke="#63b8ff" d="M705.23,-423.28C828.73,-413.19 1186.6,-379.09 1283,-316 1357.34,-267.35 1381.95,-190.81 1327,-121 1284.86,-67.47 1243.1,-105.09 1178,-85 1176.08,-84.41 1174.12,-83.77 1172.14,-83.1"/>
<polygon fill="#63b8ff" stroke="#63b8ff" points="1172.96,-79.67 1162.36,-79.6 1170.6,-86.26 1172.96,-79.67"/>
</g>
<!-- Node5 -->
<g id="node5" class="node">
<title>Node5</title>
<g id="a_node5"><a xlink:title=" ">
<polygon fill="#e0e0e0" stroke="#999999" points="1095,-79.5 1051,-79.5 1051,-60.5 1095,-60.5 1095,-79.5"/>
<text text-anchor="middle" x="1073" y="-67.5" font-family="Helvetica,sans-Serif" font-size="10.00">string</text>
</a>
</g>
</g>
<!-- Node3&#45;&gt;Node5 -->
<g id="edge4" class="edge">
<title>Node3&#45;&gt;Node5</title>
<path fill="none" stroke="#63b8ff" d="M705.09,-423.58C853,-412.78 1340,-372.28 1340,-307.5 1340,-307.5 1340,-307.5 1340,-184.5 1340,-151.61 1329.04,-139.73 1302,-121 1228.47,-70.08 1189.39,-111.61 1104,-85 1102.56,-84.55 1101.09,-84.05 1099.62,-83.51"/>
<polygon fill="#63b8ff" stroke="#63b8ff" points="1100.67,-80.16 1090.09,-79.61 1098.02,-86.64 1100.67,-80.16"/>
</g>
<!-- Node6 -->
<g id="node6" class="node">
<title>Node6</title>
<g id="a_node6"><a xlink:title=" ">
<polygon fill="#e0e0e0" stroke="#999999" points="935.5,-376.5 862.5,-376.5 862.5,-357.5 935.5,-357.5 935.5,-376.5"/>
<text text-anchor="middle" x="899" y="-364.5" font-family="Helvetica,sans-Serif" font-size="10.00">string_view</text>
</a>
</g>
</g>
<!-- Node3&#45;&gt;Node6 -->
<g id="edge5" class="edge">
<title>Node3&#45;&gt;Node6</title>
<path fill="none" stroke="#63b8ff" d="M702.85,-417.96C741.43,-409.51 801.47,-395.86 853,-382 855.97,-381.2 859.03,-380.34 862.11,-379.46"/>
<polygon fill="#63b8ff" stroke="#63b8ff" points="863.24,-382.77 871.84,-376.59 861.26,-376.06 863.24,-382.77"/>
</g>
<!-- Node7 -->
<g id="node7" class="node">
<title>Node7</title>
<g id="a_node7"><a xlink:title=" ">
<polygon fill="#e0e0e0" stroke="#999999" points="686,-261 572,-261 572,-231 686,-231 686,-261"/>
<text text-anchor="start" x="580" y="-249" font-family="Helvetica,sans-Serif" font-size="10.00">absl/container/btree</text>
<text text-anchor="middle" x="629" y="-238" font-family="Helvetica,sans-Serif" font-size="10.00">_map.h</text>
</a>
</g>
</g>
<!-- Node3&#45;&gt;Node7 -->
<g id="edge6" class="edge">
<title>Node3&#45;&gt;Node7</title>
<path fill="none" stroke="#63b8ff" d="M646.97,-417.95C634.59,-410.35 618.35,-397.97 611,-382 594.27,-345.66 607.52,-298.37 618.43,-270.49"/>
<polygon fill="#63b8ff" stroke="#63b8ff" points="621.7,-271.73 622.28,-261.16 615.23,-269.06 621.7,-271.73"/>
</g>
<!-- Node8 -->
<g id="node8" class="node">
<title>Node8</title>
<g id="a_node8"><a xlink:title=" ">
<polygon fill="#e0e0e0" stroke="#999999" points="114,-382 0,-382 0,-352 114,-352 114,-382"/>
<text text-anchor="start" x="8" y="-370" font-family="Helvetica,sans-Serif" font-size="10.00">absl/container/btree</text>
<text text-anchor="middle" x="57" y="-359" font-family="Helvetica,sans-Serif" font-size="10.00">_set.h</text>
</a>
</g>
</g>
<!-- Node3&#45;&gt;Node8 -->
<g id="edge7" class="edge">
<title>Node3&#45;&gt;Node8</title>
<path fill="none" stroke="#63b8ff" d="M620.86,-424.6C530.3,-420.16 310.53,-407.51 128,-382 126.74,-381.82 125.47,-381.64 124.19,-381.45"/>
<polygon fill="#63b8ff" stroke="#63b8ff" points="124.69,-377.98 114.26,-379.86 123.58,-384.9 124.69,-377.98"/>
</g>
<!-- Node9 -->
<g id="node9" class="node">
<title>Node9</title>
<g id="a_node9"><a xlink:href="axiom_8h.html" target="_top" xlink:title=" ">
<polygon fill="white" stroke="#666666" points="1494,-376.5 1406,-376.5 1406,-357.5 1494,-357.5 1494,-376.5"/>
<text text-anchor="middle" x="1450" y="-364.5" font-family="Helvetica,sans-Serif" font-size="10.00">thorin/axiom.h</text>
</a>
</g>
</g>
<!-- Node3&#45;&gt;Node9 -->
<g id="edge8" class="edge">
<title>Node3&#45;&gt;Node9</title>
<path fill="none" stroke="#63b8ff" d="M705.16,-424.97C813.24,-420.78 1108.91,-407.72 1354,-382 1367.48,-380.59 1381.98,-378.68 1395.51,-376.72"/>
<polygon fill="#63b8ff" stroke="#63b8ff" points="1396.26,-380.15 1405.64,-375.23 1395.24,-373.23 1396.26,-380.15"/>
</g>
<!-- Node15 -->
<g id="node15" class="node">
<title>Node15</title>
<g id="a_node15"><a xlink:href="config_8h.html" target="_top" xlink:title=" ">
<polygon fill="white" stroke="#666666" points="119,-195 33,-195 33,-176 119,-176 119,-195"/>
<text text-anchor="middle" x="76" y="-183" font-family="Helvetica,sans-Serif" font-size="10.00">thorin/config.h</text>
</a>
</g>
</g>
<!-- Node3&#45;&gt;Node15 -->
<g id="edge63" class="edge">
<title>Node3&#45;&gt;Node15</title>
<path fill="none" stroke="#63b8ff" d="M620.99,-424.87C535.22,-421.02 343.09,-409.5 284,-382 193.32,-339.79 116.34,-242.63 87.82,-203.39"/>
<polygon fill="#63b8ff" stroke="#63b8ff" points="90.58,-201.23 81.91,-195.13 84.88,-205.3 90.58,-201.23"/>
</g>
<!-- Node34 -->
<g id="node30" class="node">
<title>Node34</title>
<g id="a_node30"><a xlink:href="hash_8h.html" target="_top" xlink:title=" ">
<polygon fill="white" stroke="#666666" points="582.5,-140 483.5,-140 483.5,-121 582.5,-121 582.5,-140"/>
<text text-anchor="middle" x="533" y="-128" font-family="Helvetica,sans-Serif" font-size="10.00">thorin/util/hash.h</text>
</a>
</g>
</g>
<!-- Node3&#45;&gt;Node34 -->
<g id="edge70" class="edge">
<title>Node3&#45;&gt;Node34</title>
<path fill="none" stroke="#63b8ff" d="M643.35,-417.92C609.55,-401.67 544,-363.01 544,-307.5 544,-307.5 544,-307.5 544,-245 544,-211.45 539.18,-172.58 535.92,-150.14"/>
<polygon fill="#63b8ff" stroke="#63b8ff" points="539.35,-149.38 534.39,-140.02 532.42,-150.43 539.35,-149.38"/>
</g>
<!-- Node45 -->
<g id="node41" class="node">
<title>Node45</title>
<g id="a_node41"><a xlink:href="sym_8h.html" target="_top" xlink:title=" ">
<polygon fill="white" stroke="#666666" points="388.5,-140 291.5,-140 291.5,-121 388.5,-121 388.5,-140"/>
<text text-anchor="middle" x="340" y="-128" font-family="Helvetica,sans-Serif" font-size="10.00">thorin/util/sym.h</text>
</a>
</g>
</g>
<!-- Node3&#45;&gt;Node45 -->
<g id="edge74" class="edge">
<title>Node3&#45;&gt;Node45</title>
<path fill="none" stroke="#63b8ff" d="M620.91,-420.61C530.94,-406.85 328,-368.99 328,-307.5 328,-307.5 328,-307.5 328,-245 328,-211.42 333.26,-172.56 336.81,-150.13"/>
<polygon fill="#63b8ff" stroke="#63b8ff" points="340.31,-150.45 338.48,-140.01 333.4,-149.31 340.31,-150.45"/>
</g>
<!-- Node46 -->
<g id="node42" class="node">
<title>Node46</title>
<g id="a_node42"><a xlink:href="check_8h.html" target="_top" xlink:title=" ">
<polygon fill="white" stroke="#666666" points="706,-376.5 620,-376.5 620,-357.5 706,-357.5 706,-376.5"/>
<text text-anchor="middle" x="663" y="-364.5" font-family="Helvetica,sans-Serif" font-size="10.00">thorin/check.h</text>
</a>
</g>
</g>
<!-- Node3&#45;&gt;Node46 -->
<g id="edge60" class="edge">
<title>Node3&#45;&gt;Node46</title>
<path fill="none" stroke="#63b8ff" d="M663,-417.87C663,-409.75 663,-397.31 663,-386.89"/>
<polygon fill="#63b8ff" stroke="#63b8ff" points="666.5,-386.67 663,-376.67 659.5,-386.67 666.5,-386.67"/>
</g>
<!-- Node48 -->
<g id="node44" class="node">
<title>Node48</title>
<g id="a_node44"><a xlink:href="flags_8h.html" target="_top" xlink:title=" ">
<polygon fill="white" stroke="#666666" points="134,-316 54,-316 54,-297 134,-297 134,-316"/>
<text text-anchor="middle" x="94" y="-304" font-family="Helvetica,sans-Serif" font-size="10.00">thorin/flags.h</text>
</a>
</g>
</g>
<!-- Node3&#45;&gt;Node48 -->
<g id="edge64" class="edge">
<title>Node3&#45;&gt;Node48</title>
<path fill="none" stroke="#63b8ff" d="M620.84,-426.46C515.96,-425.78 246.02,-420.25 166,-382 139.47,-369.32 117.46,-342.45 105.01,-324.68"/>
<polygon fill="#63b8ff" stroke="#63b8ff" points="107.89,-322.69 99.41,-316.35 102.09,-326.6 107.89,-322.69"/>
</g>
<!-- Node49 -->
<g id="node45" class="node">
<title>Node49</title>
<g id="a_node45"><a xlink:href="lattice_8h.html" target="_top" xlink:title=" ">
<polygon fill="white" stroke="#666666" points="812,-316 724,-316 724,-297 812,-297 812,-316"/>
<text text-anchor="middle" x="768" y="-304" font-family="Helvetica,sans-Serif" font-size="10.00">thorin/lattice.h</text>
</a>
</g>
</g>
<!-- Node3&#45;&gt;Node49 -->
<g id="edge66" class="edge">
<title>Node3&#45;&gt;Node49</title>
<path fill="none" stroke="#63b8ff" d="M674.88,-417.7C685.92,-409.21 702.49,-395.68 715,-382 731.5,-363.96 747.33,-340.65 757.32,-324.95"/>
<polygon fill="#63b8ff" stroke="#63b8ff" points="760.42,-326.61 762.75,-316.28 754.48,-322.9 760.42,-326.61"/>
</g>
<!-- Node50 -->
<g id="node46" class="node">
<title>Node50</title>
<g id="a_node46"><a xlink:href="tuple_8h.html" target="_top" xlink:title=" ">
<polygon fill="white" stroke="#666666" points="844,-376.5 762,-376.5 762,-357.5 844,-357.5 844,-376.5"/>
<text text-anchor="middle" x="803" y="-364.5" font-family="Helvetica,sans-Serif" font-size="10.00">thorin/tuple.h</text>
</a>
</g>
</g>
<!-- Node3&#45;&gt;Node50 -->
<g id="edge68" class="edge">
<title>Node3&#45;&gt;Node50</title>
<path fill="none" stroke="#63b8ff" d="M683.36,-417.99C707,-408.12 746.2,-391.73 773.25,-380.43"/>
<polygon fill="#63b8ff" stroke="#63b8ff" points="774.74,-383.6 782.62,-376.52 772.04,-377.14 774.74,-383.6"/>
</g>
<!-- Node51 -->
<g id="node47" class="node">
<title>Node51</title>
<g id="a_node47"><a xlink:href="log_8h.html" target="_top" xlink:title=" ">
<polygon fill="white" stroke="#666666" points="299.5,-255.5 208.5,-255.5 208.5,-236.5 299.5,-236.5 299.5,-255.5"/>
<text text-anchor="middle" x="254" y="-243.5" font-family="Helvetica,sans-Serif" font-size="10.00">thorin/util/log.h</text>
</a>
</g>
</g>
<!-- Node3&#45;&gt;Node51 -->
<g id="edge71" class="edge">
<title>Node3&#45;&gt;Node51</title>
<path fill="none" stroke="#63b8ff" d="M620.82,-426.17C538.81,-424.74 361.72,-417.51 314,-382 275.87,-353.63 261.5,-295.58 256.47,-265.7"/>
<polygon fill="#63b8ff" stroke="#63b8ff" points="259.93,-265.11 254.98,-255.74 253,-266.15 259.93,-265.11"/>
</g>
<!-- Node10 -->
<g id="node10" class="node">
<title>Node10</title>
<g id="a_node10"><a xlink:href="lam_8h.html" target="_top" xlink:title=" ">
<polygon fill="white" stroke="#666666" points="1274,-316 1198,-316 1198,-297 1274,-297 1274,-316"/>
<text text-anchor="middle" x="1236" y="-304" font-family="Helvetica,sans-Serif" font-size="10.00">thorin/lam.h</text>
</a>
</g>
</g>
<!-- Node9&#45;&gt;Node10 -->
<g id="edge9" class="edge">
<title>Node9&#45;&gt;Node10</title>
<path fill="none" stroke="#63b8ff" d="M1418.88,-357.49C1381.4,-347.25 1318.32,-330 1276.93,-318.69"/>
<polygon fill="#63b8ff" stroke="#63b8ff" points="1277.72,-315.28 1267.15,-316.02 1275.88,-322.03 1277.72,-315.28"/>
</g>
<!-- Node44 -->
<g id="node40" class="node">
<title>Node44</title>
<g id="a_node40"><a xlink:href="assert_8h.html" target="_top" xlink:title=" ">
<polygon fill="white" stroke="#666666" points="1293,-79.5 1187,-79.5 1187,-60.5 1293,-60.5 1293,-79.5"/>
<text text-anchor="middle" x="1240" y="-67.5" font-family="Helvetica,sans-Serif" font-size="10.00">thorin/util/assert.h</text>
</a>
</g>
</g>
<!-- Node9&#45;&gt;Node44 -->
<g id="edge59" class="edge">
<title>Node9&#45;&gt;Node44</title>
<path fill="none" stroke="#63b8ff" d="M1450.49,-357.34C1451.56,-337.72 1454,-288.34 1454,-247 1454,-247 1454,-247 1454,-184.5 1454,-115.54 1366.2,-88.35 1303.08,-77.72"/>
<polygon fill="#63b8ff" stroke="#63b8ff" points="1303.6,-74.26 1293.17,-76.15 1302.5,-81.17 1303.6,-74.26"/>
</g>
<!-- Node11 -->
<g id="node11" class="node">
<title>Node11</title>
<g id="a_node11"><a xlink:title=" ">
<polygon fill="#e0e0e0" stroke="#999999" points="1311.5,-255.5 1260.5,-255.5 1260.5,-236.5 1311.5,-236.5 1311.5,-255.5"/>
<text text-anchor="middle" x="1286" y="-243.5" font-family="Helvetica,sans-Serif" font-size="10.00">variant</text>
</a>
</g>
</g>
<!-- Node10&#45;&gt;Node11 -->
<g id="edge10" class="edge">
<title>Node10&#45;&gt;Node11</title>
<path fill="none" stroke="#63b8ff" d="M1243.38,-296.87C1250.91,-288.05 1262.79,-274.16 1272.09,-263.27"/>
<polygon fill="#63b8ff" stroke="#63b8ff" points="1274.76,-265.54 1278.59,-255.67 1269.43,-261 1274.76,-265.54"/>
</g>
<!-- Node12 -->
<g id="node12" class="node">
<title>Node12</title>
<g id="a_node12"><a xlink:href="def_8h.html" target="_top" xlink:title=" ">
<polygon fill="white" stroke="#666666" points="814,-255.5 742,-255.5 742,-236.5 814,-236.5 814,-255.5"/>
<text text-anchor="middle" x="778" y="-243.5" font-family="Helvetica,sans-Serif" font-size="10.00">thorin/def.h</text>
</a>
</g>
</g>
<!-- Node10&#45;&gt;Node12 -->
<g id="edge11" class="edge">
<title>Node10&#45;&gt;Node12</title>
<path fill="none" stroke="#63b8ff" d="M1197.94,-300.12C1190.34,-299.07 1182.42,-297.98 1175,-297 1048.06,-280.16 898.1,-261.65 824.08,-252.6"/>
<polygon fill="#63b8ff" stroke="#63b8ff" points="824.5,-249.13 814.15,-251.39 823.65,-256.08 824.5,-249.13"/>
</g>
<!-- Node13 -->
<g id="node13" class="node">
<title>Node13</title>
<g id="a_node13"><a xlink:title=" ">
<polygon fill="#e0e0e0" stroke="#999999" points="750,-195 694,-195 694,-176 750,-176 750,-195"/>
<text text-anchor="middle" x="722" y="-183" font-family="Helvetica,sans-Serif" font-size="10.00">optional</text>
</a>
</g>
</g>
<!-- Node12&#45;&gt;Node13 -->
<g id="edge12" class="edge">
<title>Node12&#45;&gt;Node13</title>
<path fill="none" stroke="#63b8ff" d="M769.74,-236.37C761.22,-227.47 747.74,-213.39 737.27,-202.45"/>
<polygon fill="#63b8ff" stroke="#63b8ff" points="739.74,-199.97 730.3,-195.17 734.68,-204.81 739.74,-199.97"/>
</g>
<!-- Node14 -->
<g id="node14" class="node">
<title>Node14</title>
<g id="a_node14"><a xlink:title=" ">
<polygon fill="#e0e0e0" stroke="#999999" points="1205.5,-140 1158.5,-140 1158.5,-121 1205.5,-121 1205.5,-140"/>
<text text-anchor="middle" x="1182" y="-128" font-family="Helvetica,sans-Serif" font-size="10.00">vector</text>
</a>
</g>
</g>
<!-- Node12&#45;&gt;Node14 -->
<g id="edge13" class="edge">
<title>Node12&#45;&gt;Node14</title>
<path fill="none" stroke="#63b8ff" d="M814.26,-241.18C866.45,-235.02 965.33,-220.9 1046,-195 1086.88,-181.88 1131.47,-159.34 1158.07,-144.95"/>
<polygon fill="#63b8ff" stroke="#63b8ff" points="1159.93,-147.92 1167.01,-140.04 1156.56,-141.78 1159.93,-147.92"/>
</g>
<!-- Node12&#45;&gt;Node15 -->
<g id="edge14" class="edge">
<title>Node12&#45;&gt;Node15</title>
<path fill="none" stroke="#63b8ff" d="M741.75,-238.11C727.25,-235.56 710.38,-232.85 695,-231 667.12,-227.65 274.06,-200.24 129.15,-190.18"/>
<polygon fill="#63b8ff" stroke="#63b8ff" points="129.37,-186.69 119.16,-189.49 128.89,-193.67 129.37,-186.69"/>
</g>
<!-- Node16 -->
<g id="node16" class="node">
<title>Node16</title>
<g id="a_node16"><a xlink:href="array_8h.html" target="_top" xlink:title=" ">
<polygon fill="#fff0f0" stroke="red" points="1037,-195 937,-195 937,-176 1037,-176 1037,-195"/>
<text text-anchor="middle" x="987" y="-183" font-family="Helvetica,sans-Serif" font-size="10.00">thorin/util/array.h</text>
</a>
</g>
</g>
<!-- Node12&#45;&gt;Node16 -->
<g id="edge15" class="edge">
<title>Node12&#45;&gt;Node16</title>
<path fill="none" stroke="#63b8ff" d="M808.39,-236.49C844.92,-226.27 906.34,-209.08 946.77,-197.76"/>
<polygon fill="#63b8ff" stroke="#63b8ff" points="947.89,-201.08 956.57,-195.02 946,-194.34 947.89,-201.08"/>
</g>
<!-- Node26 -->
<g id="node25" class="node">
<title>Node26</title>
<g id="a_node25"><a xlink:href="cast_8h.html" target="_top" xlink:title=" ">
<polygon fill="white" stroke="#666666" points="1274,-195 1178,-195 1178,-176 1274,-176 1274,-195"/>
<text text-anchor="middle" x="1226" y="-183" font-family="Helvetica,sans-Serif" font-size="10.00">thorin/util/cast.h</text>
</a>
</g>
</g>
<!-- Node12&#45;&gt;Node26 -->
<g id="edge25" class="edge">
<title>Node12&#45;&gt;Node26</title>
<path fill="none" stroke="#63b8ff" d="M814.28,-240.26C891.68,-230.16 1073.58,-206.4 1167.54,-194.13"/>
<polygon fill="#63b8ff" stroke="#63b8ff" points="1168.26,-197.57 1177.73,-192.8 1167.36,-190.63 1168.26,-197.57"/>
</g>
<!-- Node27 -->
<g id="node26" class="node">
<title>Node27</title>
<g id="a_node26"><a xlink:href="container_8h.html" target="_top" xlink:title=" ">
<polygon fill="#fff0f0" stroke="red" points="515.5,-195 394.5,-195 394.5,-176 515.5,-176 515.5,-195"/>
<text text-anchor="middle" x="455" y="-183" font-family="Helvetica,sans-Serif" font-size="10.00">thorin/util/container.h</text>
</a>
</g>
</g>
<!-- Node12&#45;&gt;Node27 -->
<g id="edge28" class="edge">
<title>Node12&#45;&gt;Node27</title>
<path fill="none" stroke="#63b8ff" d="M749.58,-236.45C742.57,-234.5 735.04,-232.55 728,-231 659.8,-215.94 580.97,-203.63 525.61,-195.8"/>
<polygon fill="#63b8ff" stroke="#63b8ff" points="525.94,-192.32 515.55,-194.4 524.97,-199.25 525.94,-192.32"/>
</g>
<!-- Node12&#45;&gt;Node34 -->
<g id="edge40" class="edge">
<title>Node12&#45;&gt;Node34</title>
<path fill="none" stroke="#63b8ff" d="M759.59,-236.47C717.02,-216.75 611.59,-167.91 560.98,-144.46"/>
<polygon fill="#63b8ff" stroke="#63b8ff" points="562.17,-141.16 551.63,-140.13 559.23,-147.51 562.17,-141.16"/>
</g>
<!-- Node41 -->
<g id="node37" class="node">
<title>Node41</title>
<g id="a_node37"><a xlink:href="loc_8h.html" target="_top" xlink:title=" ">
<polygon fill="white" stroke="#666666" points="300,-195 210,-195 210,-176 300,-176 300,-195"/>
<text text-anchor="middle" x="255" y="-183" font-family="Helvetica,sans-Serif" font-size="10.00">thorin/util/loc.h</text>
</a>
</g>
</g>
<!-- Node12&#45;&gt;Node41 -->
<g id="edge41" class="edge">
<title>Node12&#45;&gt;Node41</title>
<path fill="none" stroke="#63b8ff" d="M741.72,-238.34C727.22,-235.82 710.35,-233.07 695,-231 556.95,-212.4 393.57,-197.81 310.11,-190.89"/>
<polygon fill="#63b8ff" stroke="#63b8ff" points="310.34,-187.4 300.09,-190.07 309.77,-194.38 310.34,-187.4"/>
</g>
<!-- Node42 -->
<g id="node38" class="node">
<title>Node42</title>
<g id="a_node38"><a xlink:href="print_8h.html" target="_top" xlink:title=" ">
<polygon fill="#fff0f0" stroke="red" points="699,-140 601,-140 601,-121 699,-121 699,-140"/>
<text text-anchor="middle" x="650" y="-128" font-family="Helvetica,sans-Serif" font-size="10.00">thorin/util/print.h</text>
</a>
</g>
</g>
<!-- Node12&#45;&gt;Node42 -->
<g id="edge58" class="edge">
<title>Node12&#45;&gt;Node42</title>
<path fill="none" stroke="#63b8ff" d="M777.96,-236.22C777.42,-221.88 774.34,-193.28 759,-176 744.9,-160.11 724.28,-149.79 704.76,-143.13"/>
<polygon fill="#63b8ff" stroke="#63b8ff" points="705.58,-139.72 695,-140.06 703.49,-146.4 705.58,-139.72"/>
</g>
<!-- Node16&#45;&gt;Node14 -->
<g id="edge24" class="edge">
<title>Node16&#45;&gt;Node14</title>
<path fill="none" stroke="#63b8ff" d="M1018.33,-175.98C1054.05,-166.28 1112.21,-150.47 1148.73,-140.54"/>
<polygon fill="#63b8ff" stroke="#63b8ff" points="1149.68,-143.91 1158.41,-137.91 1147.85,-137.16 1149.68,-143.91"/>
</g>
<!-- Node17 -->
<g id="node17" class="node">
<title>Node17</title>
<g id="a_node17"><a xlink:title=" ">
<polygon fill="#e0e0e0" stroke="#999999" points="1347,-19 1295,-19 1295,0 1347,0 1347,-19"/>
<text text-anchor="middle" x="1321" y="-7" font-family="Helvetica,sans-Serif" font-size="10.00">cassert</text>
</a>
</g>
</g>
<!-- Node16&#45;&gt;Node17 -->
<g id="edge16" class="edge">
<title>Node16&#45;&gt;Node17</title>
<path fill="none" stroke="#63b8ff" d="M1006.26,-175.99C1036.44,-162.88 1096.94,-137.53 1150,-121 1216.28,-100.35 1252.49,-133.67 1302,-85 1316.7,-70.55 1320.58,-46.44 1321.34,-29.57"/>
<polygon fill="#63b8ff" stroke="#63b8ff" points="1324.85,-29.3 1321.47,-19.26 1317.85,-29.21 1324.85,-29.3"/>
</g>
<!-- Node18 -->
<g id="node18" class="node">
<title>Node18</title>
<g id="a_node18"><a xlink:title=" ">
<polygon fill="#e0e0e0" stroke="#999999" points="1063.5,-140 1010.5,-140 1010.5,-121 1063.5,-121 1063.5,-140"/>
<text text-anchor="middle" x="1037" y="-128" font-family="Helvetica,sans-Serif" font-size="10.00">cstddef</text>
</a>
</g>
</g>
<!-- Node16&#45;&gt;Node18 -->
<g id="edge17" class="edge">
<title>Node16&#45;&gt;Node18</title>
<path fill="none" stroke="#63b8ff" d="M995.26,-175.75C1002.46,-168.11 1013.11,-156.82 1021.85,-147.56"/>
<polygon fill="#63b8ff" stroke="#63b8ff" points="1024.58,-149.76 1028.9,-140.09 1019.49,-144.96 1024.58,-149.76"/>
</g>
<!-- Node19 -->
<g id="node19" class="node">
<title>Node19</title>
<g id="a_node19"><a xlink:title=" ">
<polygon fill="#e0e0e0" stroke="#999999" points="1274,-140 1224,-140 1224,-121 1274,-121 1274,-140"/>
<text text-anchor="middle" x="1249" y="-128" font-family="Helvetica,sans-Serif" font-size="10.00">cstring</text>
</a>
</g>
</g>
<!-- Node16&#45;&gt;Node19 -->
<g id="edge18" class="edge">
<title>Node16&#45;&gt;Node19</title>
<path fill="none" stroke="#63b8ff" d="M1034.75,-175.93C1078.82,-167.85 1146.3,-155.06 1213.82,-140.17"/>
<polygon fill="#63b8ff" stroke="#63b8ff" points="1214.78,-143.54 1223.78,-137.96 1213.26,-136.71 1214.78,-143.54"/>
</g>
<!-- Node20 -->
<g id="node20" class="node">
<title>Node20</title>
<g id="a_node20"><a xlink:title=" ">
<polygon fill="#e0e0e0" stroke="#999999" points="781,-140 717,-140 717,-121 781,-121 781,-140"/>
<text text-anchor="middle" x="749" y="-128" font-family="Helvetica,sans-Serif" font-size="10.00">algorithm</text>
</a>
</g>
</g>
<!-- Node16&#45;&gt;Node20 -->
<g id="edge19" class="edge">
<title>Node16&#45;&gt;Node20</title>
<path fill="none" stroke="#63b8ff" d="M948.76,-175.98C905.61,-166.37 835.62,-150.79 790.99,-140.85"/>
<polygon fill="#63b8ff" stroke="#63b8ff" points="791.56,-137.39 781.04,-138.63 790.04,-144.22 791.56,-137.39"/>
</g>
<!-- Node21 -->
<g id="node21" class="node">
<title>Node21</title>
<g id="a_node21"><a xlink:title=" ">
<polygon fill="#e0e0e0" stroke="#999999" points="923.5,-79.5 858.5,-79.5 858.5,-60.5 923.5,-60.5 923.5,-79.5"/>
<text text-anchor="middle" x="891" y="-67.5" font-family="Helvetica,sans-Serif" font-size="10.00">functional</text>
</a>
</g>
</g>
<!-- Node16&#45;&gt;Node21 -->
<g id="edge20" class="edge">
<title>Node16&#45;&gt;Node21</title>
<path fill="none" stroke="#63b8ff" d="M985.45,-175.89C982.76,-162.87 976.19,-137.91 963,-121 950.98,-105.6 932.92,-93.07 917.89,-84.41"/>
<polygon fill="#63b8ff" stroke="#63b8ff" points="919.45,-81.27 909,-79.52 916.08,-87.41 919.45,-81.27"/>
</g>
<!-- Node22 -->
<g id="node22" class="node">
<title>Node22</title>
<g id="a_node22"><a xlink:title=" ">
<polygon fill="#e0e0e0" stroke="#999999" points="882.5,-140 799.5,-140 799.5,-121 882.5,-121 882.5,-140"/>
<text text-anchor="middle" x="841" y="-128" font-family="Helvetica,sans-Serif" font-size="10.00">initializer_list</text>
</a>
</g>
</g>
<!-- Node16&#45;&gt;Node22 -->
<g id="edge21" class="edge">
<title>Node16&#45;&gt;Node22</title>
<path fill="none" stroke="#63b8ff" d="M963.54,-175.98C939.42,-167.23 901.63,-153.51 874.4,-143.62"/>
<polygon fill="#63b8ff" stroke="#63b8ff" points="875.48,-140.29 864.88,-140.17 873.09,-146.87 875.48,-140.29"/>
</g>
<!-- Node23 -->
<g id="node23" class="node">
<title>Node23</title>
<g id="a_node23"><a xlink:title=" ">
<polygon fill="#e0e0e0" stroke="#999999" points="953.5,-140 900.5,-140 900.5,-121 953.5,-121 953.5,-140"/>
<text text-anchor="middle" x="927" y="-128" font-family="Helvetica,sans-Serif" font-size="10.00">iterator</text>
</a>
</g>
</g>
<!-- Node16&#45;&gt;Node23 -->
<g id="edge22" class="edge">
<title>Node16&#45;&gt;Node23</title>
<path fill="none" stroke="#63b8ff" d="M977.36,-175.98C968.49,-168.15 955.13,-156.34 944.39,-146.86"/>
<polygon fill="#63b8ff" stroke="#63b8ff" points="946.63,-144.17 936.82,-140.17 941.99,-149.41 946.63,-144.17"/>
</g>
<!-- Node25 -->
<g id="node24" class="node">
<title>Node25</title>
<g id="a_node24"><a xlink:title=" ">
<polygon fill="#e0e0e0" stroke="#999999" points="1028.5,-19 959.5,-19 959.5,0 1028.5,0 1028.5,-19"/>
<text text-anchor="middle" x="994" y="-7" font-family="Helvetica,sans-Serif" font-size="10.00">type_traits</text>
</a>
</g>
</g>
<!-- Node16&#45;&gt;Node25 -->
<g id="edge23" class="edge">
<title>Node16&#45;&gt;Node25</title>
<path fill="none" stroke="#63b8ff" d="M1022.05,-175.88C1040.65,-169.33 1061.9,-158.24 1073,-140 1077.39,-132.79 1075.94,-128.92 1073,-121 1065.65,-101.21 1054.64,-101.92 1042,-85 1027.95,-66.19 1013.6,-43.34 1004.29,-27.94"/>
<polygon fill="#63b8ff" stroke="#63b8ff" points="1007.1,-25.81 998.96,-19.02 1001.09,-29.4 1007.1,-25.81"/>
</g>
<!-- Node26&#45;&gt;Node17 -->
<g id="edge26" class="edge">
<title>Node26&#45;&gt;Node17</title>
<path fill="none" stroke="#63b8ff" d="M1242.46,-175.95C1268.36,-161.39 1317.48,-129.04 1335,-85 1342.35,-66.52 1336.15,-43.9 1329.83,-28.46"/>
<polygon fill="#63b8ff" stroke="#63b8ff" points="1332.89,-26.75 1325.6,-19.06 1326.51,-29.62 1332.89,-26.75"/>
</g>
<!-- Node26&#45;&gt;Node19 -->
<g id="edge27" class="edge">
<title>Node26&#45;&gt;Node19</title>
<path fill="none" stroke="#63b8ff" d="M1229.8,-175.75C1232.91,-168.57 1237.42,-158.18 1241.29,-149.27"/>
<polygon fill="#63b8ff" stroke="#63b8ff" points="1244.5,-150.66 1245.27,-140.09 1238.08,-147.87 1244.5,-150.66"/>
</g>
<!-- Node30 -->
<g id="node27" class="node">
<title>Node30</title>
<g id="a_node27"><a xlink:title=" ">
<polygon fill="#e0e0e0" stroke="#999999" points="380,-85 276,-85 276,-55 380,-55 380,-85"/>
<text text-anchor="start" x="284" y="-73" font-family="Helvetica,sans-Serif" font-size="10.00">absl/container/flat</text>
<text text-anchor="middle" x="328" y="-62" font-family="Helvetica,sans-Serif" font-size="10.00">_hash_map.h</text>
</a>
</g>
</g>
<!-- Node27&#45;&gt;Node30 -->
<g id="edge29" class="edge">
<title>Node27&#45;&gt;Node30</title>
<path fill="none" stroke="#63b8ff" d="M448.17,-175.73C437.98,-162.95 417.87,-138.78 398,-121 385.88,-110.16 371.41,-99.5 358.78,-90.82"/>
<polygon fill="#63b8ff" stroke="#63b8ff" points="360.63,-87.84 350.38,-85.15 356.71,-93.65 360.63,-87.84"/>
</g>
<!-- Node31 -->
<g id="node28" class="node">
<title>Node31</title>
<g id="a_node28"><a xlink:title=" ">
<polygon fill="#e0e0e0" stroke="#999999" points="258,-85 154,-85 154,-55 258,-55 258,-85"/>
<text text-anchor="start" x="162" y="-73" font-family="Helvetica,sans-Serif" font-size="10.00">absl/container/flat</text>
<text text-anchor="middle" x="206" y="-62" font-family="Helvetica,sans-Serif" font-size="10.00">_hash_set.h</text>
</a>
</g>
</g>
<!-- Node27&#45;&gt;Node31 -->
<g id="edge30" class="edge">
<title>Node27&#45;&gt;Node31</title>
<path fill="none" stroke="#63b8ff" d="M394.29,-176.08C360.13,-169.6 317.53,-158.5 283,-140 260.5,-127.94 239.24,-107.99 224.78,-92.63"/>
<polygon fill="#63b8ff" stroke="#63b8ff" points="227.2,-90.1 217.87,-85.09 222.04,-94.83 227.2,-90.1"/>
</g>
<!-- Node33 -->
<g id="node29" class="node">
<title>Node33</title>
<g id="a_node29"><a xlink:title=" ">
<polygon fill="#e0e0e0" stroke="#999999" points="511.5,-85 398.5,-85 398.5,-55 511.5,-55 511.5,-85"/>
<text text-anchor="start" x="406.5" y="-73" font-family="Helvetica,sans-Serif" font-size="10.00">absl/container/node</text>
<text text-anchor="middle" x="455" y="-62" font-family="Helvetica,sans-Serif" font-size="10.00">_hash_set.h</text>
</a>
</g>
</g>
<!-- Node27&#45;&gt;Node33 -->
<g id="edge31" class="edge">
<title>Node27&#45;&gt;Node33</title>
<path fill="none" stroke="#63b8ff" d="M455,-175.97C455,-159.08 455,-120.85 455,-95.48"/>
<polygon fill="#63b8ff" stroke="#63b8ff" points="458.5,-95.18 455,-85.18 451.5,-95.18 458.5,-95.18"/>
</g>
<!-- Node27&#45;&gt;Node34 -->
<g id="edge32" class="edge">
<title>Node27&#45;&gt;Node34</title>
<path fill="none" stroke="#63b8ff" d="M467.53,-175.98C479.4,-167.92 497.46,-155.65 511.61,-146.03"/>
<polygon fill="#63b8ff" stroke="#63b8ff" points="513.94,-148.69 520.24,-140.17 510,-142.9 513.94,-148.69"/>
</g>
<!-- Node35 -->
<g id="node31" class="node">
<title>Node35</title>
<g id="a_node31"><a xlink:href="types_8h.html" target="_top" xlink:title=" ">
<polygon fill="white" stroke="#666666" points="801.5,-79.5 698.5,-79.5 698.5,-60.5 801.5,-60.5 801.5,-79.5"/>
<text text-anchor="middle" x="750" y="-67.5" font-family="Helvetica,sans-Serif" font-size="10.00">thorin/util/types.h</text>
</a>
</g>
</g>
<!-- Node34&#45;&gt;Node35 -->
<g id="edge33" class="edge">
<title>Node34&#45;&gt;Node35</title>
<path fill="none" stroke="#63b8ff" d="M564.55,-120.99C602.56,-110.75 666.52,-93.5 708.5,-82.19"/>
<polygon fill="#63b8ff" stroke="#63b8ff" points="709.66,-85.5 718.41,-79.52 707.84,-78.74 709.66,-85.5"/>
</g>
<!-- Node35&#45;&gt;Node25 -->
<g id="edge37" class="edge">
<title>Node35&#45;&gt;Node25</title>
<path fill="none" stroke="#63b8ff" d="M785.48,-60.49C828.82,-50.1 902.19,-32.51 949.34,-21.21"/>
<polygon fill="#63b8ff" stroke="#63b8ff" points="950.36,-24.56 959.27,-18.83 948.73,-17.76 950.36,-24.56"/>
</g>
<!-- Node36 -->
<g id="node32" class="node">
<title>Node36</title>
<g id="a_node32"><a xlink:title=" ">
<polygon fill="#e0e0e0" stroke="#999999" points="710,-19 660,-19 660,0 710,0 710,-19"/>
<text text-anchor="middle" x="685" y="-7" font-family="Helvetica,sans-Serif" font-size="10.00">cstdint</text>
</a>
</g>
</g>
<!-- Node35&#45;&gt;Node36 -->
<g id="edge34" class="edge">
<title>Node35&#45;&gt;Node36</title>
<path fill="none" stroke="#63b8ff" d="M740.41,-60.37C730.42,-51.38 714.57,-37.11 702.37,-26.14"/>
<polygon fill="#63b8ff" stroke="#63b8ff" points="704.4,-23.26 694.63,-19.17 699.72,-28.46 704.4,-23.26"/>
</g>
<!-- Node37 -->
<g id="node33" class="node">
<title>Node37</title>
<g id="a_node33"><a xlink:title=" ">
<polygon fill="#e0e0e0" stroke="#999999" points="772,-19 728,-19 728,0 772,0 772,-19"/>
<text text-anchor="middle" x="750" y="-7" font-family="Helvetica,sans-Serif" font-size="10.00">limits</text>
</a>
</g>
</g>
<!-- Node35&#45;&gt;Node37 -->
<g id="edge35" class="edge">
<title>Node35&#45;&gt;Node37</title>
<path fill="none" stroke="#63b8ff" d="M750,-60.37C750,-52.25 750,-39.81 750,-29.39"/>
<polygon fill="#63b8ff" stroke="#63b8ff" points="753.5,-29.17 750,-19.17 746.5,-29.17 753.5,-29.17"/>
</g>
<!-- Node38 -->
<g id="node34" class="node">
<title>Node38</title>
<g id="a_node34"><a xlink:title=" ">
<polygon fill="#e0e0e0" stroke="#999999" points="641.5,-19 584.5,-19 584.5,0 641.5,0 641.5,-19"/>
<text text-anchor="middle" x="613" y="-7" font-family="Helvetica,sans-Serif" font-size="10.00">ostream</text>
</a>
</g>
</g>
<!-- Node35&#45;&gt;Node38 -->
<g id="edge36" class="edge">
<title>Node35&#45;&gt;Node38</title>
<path fill="none" stroke="#63b8ff" d="M730.08,-60.49C707.05,-50.66 668.92,-34.38 642.46,-23.08"/>
<polygon fill="#63b8ff" stroke="#63b8ff" points="643.52,-19.72 632.95,-19.02 640.77,-26.16 643.52,-19.72"/>
</g>
<!-- Node39 -->
<g id="node35" class="node">
<title>Node39</title>
<g id="a_node35"><a xlink:title=" ">
<polygon fill="#e0e0e0" stroke="#999999" points="837.5,-19 790.5,-19 790.5,0 837.5,0 837.5,-19"/>
<text text-anchor="middle" x="814" y="-7" font-family="Helvetica,sans-Serif" font-size="10.00">cmath</text>
</a>
</g>
</g>
<!-- Node35&#45;&gt;Node39 -->
<g id="edge38" class="edge">
<title>Node35&#45;&gt;Node39</title>
<path fill="none" stroke="#63b8ff" d="M759.44,-60.37C769.27,-51.38 784.89,-37.11 796.89,-26.14"/>
<polygon fill="#63b8ff" stroke="#63b8ff" points="799.5,-28.5 804.52,-19.17 794.78,-23.33 799.5,-28.5"/>
</g>
<!-- Node40 -->
<g id="node36" class="node">
<title>Node40</title>
<g id="a_node36"><a xlink:title=" ">
<polygon fill="#e0e0e0" stroke="#999999" points="912,-19 856,-19 856,0 912,0 912,-19"/>
<text text-anchor="middle" x="884" y="-7" font-family="Helvetica,sans-Serif" font-size="10.00">half.hpp</text>
</a>
</g>
</g>
<!-- Node35&#45;&gt;Node40 -->
<g id="edge39" class="edge">
<title>Node35&#45;&gt;Node40</title>
<path fill="none" stroke="#63b8ff" d="M769.48,-60.49C792.01,-50.66 829.31,-34.38 855.19,-23.08"/>
<polygon fill="#63b8ff" stroke="#63b8ff" points="856.73,-26.23 864.49,-19.02 853.93,-19.81 856.73,-26.23"/>
</g>
<!-- Node41&#45;&gt;Node30 -->
<g id="edge42" class="edge">
<title>Node41&#45;&gt;Node30</title>
<path fill="none" stroke="#63b8ff" d="M251.19,-175.65C246.26,-162.76 239.39,-138.46 249,-121 256.25,-107.83 268.6,-97.64 281.4,-90.01"/>
<polygon fill="#63b8ff" stroke="#63b8ff" points="283.21,-93.01 290.28,-85.12 279.83,-86.88 283.21,-93.01"/>
</g>
<!-- Node41&#45;&gt;Node31 -->
<g id="edge43" class="edge">
<title>Node41&#45;&gt;Node31</title>
<path fill="none" stroke="#63b8ff" d="M222.79,-175.92C204.75,-169.29 183.77,-158.09 173,-140 163.92,-124.74 173.33,-106.59 184.4,-92.74"/>
<polygon fill="#63b8ff" stroke="#63b8ff" points="187.08,-94.98 190.98,-85.13 181.79,-90.4 187.08,-94.98"/>
</g>
<!-- Node41&#45;&gt;Node42 -->
<g id="edge44" class="edge">
<title>Node41&#45;&gt;Node42</title>
<path fill="none" stroke="#63b8ff" d="M300.27,-178.73C363.09,-170.68 480.53,-155.46 590.98,-140.13"/>
<polygon fill="#63b8ff" stroke="#63b8ff" points="591.54,-143.58 600.96,-138.74 590.57,-136.65 591.54,-143.58"/>
</g>
<!-- Node41&#45;&gt;Node45 -->
<g id="edge52" class="edge">
<title>Node41&#45;&gt;Node45</title>
<path fill="none" stroke="#63b8ff" d="M268.66,-175.98C281.84,-167.77 302.03,-155.18 317.57,-145.49"/>
<polygon fill="#63b8ff" stroke="#63b8ff" points="319.46,-148.43 326.09,-140.17 315.76,-142.49 319.46,-148.43"/>
</g>
<!-- Node42&#45;&gt;Node4 -->
<g id="edge48" class="edge">
<title>Node42&#45;&gt;Node4</title>
<path fill="none" stroke="#63b8ff" d="M699.02,-122.12C702.06,-121.73 705.07,-121.35 708,-121 883.5,-100.18 931.78,-124.63 1104,-85 1106.52,-84.42 1109.1,-83.71 1111.66,-82.92"/>
<polygon fill="#63b8ff" stroke="#63b8ff" points="1113.03,-86.15 1121.34,-79.57 1110.74,-79.53 1113.03,-86.15"/>
</g>
<!-- Node42&#45;&gt;Node5 -->
<g id="edge49" class="edge">
<title>Node42&#45;&gt;Node5</title>
<path fill="none" stroke="#63b8ff" d="M699.04,-122.28C702.07,-121.84 705.08,-121.41 708,-121 830.72,-103.6 976.8,-83.89 1040.55,-75.34"/>
<polygon fill="#63b8ff" stroke="#63b8ff" points="1041.32,-78.77 1050.77,-73.97 1040.39,-71.83 1041.32,-78.77"/>
</g>
<!-- Node42&#45;&gt;Node21 -->
<g id="edge45" class="edge">
<title>Node42&#45;&gt;Node21</title>
<path fill="none" stroke="#63b8ff" d="M685.04,-120.99C728.34,-110.48 801.97,-92.61 848.46,-81.33"/>
<polygon fill="#63b8ff" stroke="#63b8ff" points="849.34,-84.71 858.24,-78.95 847.69,-77.91 849.34,-84.71"/>
</g>
<!-- Node42&#45;&gt;Node38 -->
<g id="edge47" class="edge">
<title>Node42&#45;&gt;Node38</title>
<path fill="none" stroke="#63b8ff" d="M647.34,-120.94C641.39,-101.82 626.92,-55.27 618.79,-29.12"/>
<polygon fill="#63b8ff" stroke="#63b8ff" points="622.05,-27.81 615.74,-19.3 615.36,-29.89 622.05,-27.81"/>
</g>
<!-- Node43 -->
<g id="node39" class="node">
<title>Node43</title>
<g id="a_node39"><a xlink:title=" ">
<polygon fill="#e0e0e0" stroke="#999999" points="606,-79.5 546,-79.5 546,-60.5 606,-60.5 606,-79.5"/>
<text text-anchor="middle" x="576" y="-67.5" font-family="Helvetica,sans-Serif" font-size="10.00">iostream</text>
</a>
</g>
</g>
<!-- Node42&#45;&gt;Node43 -->
<g id="edge46" class="edge">
<title>Node42&#45;&gt;Node43</title>
<path fill="none" stroke="#63b8ff" d="M639.08,-120.87C627.49,-111.71 608.97,-97.06 594.98,-86.01"/>
<polygon fill="#63b8ff" stroke="#63b8ff" points="596.98,-83.12 586.96,-79.67 592.64,-88.61 596.98,-83.12"/>
</g>
<!-- Node42&#45;&gt;Node44 -->
<g id="edge50" class="edge">
<title>Node42&#45;&gt;Node44</title>
<path fill="none" stroke="#63b8ff" d="M699.02,-122.07C702.05,-121.69 705.07,-121.33 708,-121 916.21,-97.8 970.83,-116.15 1178,-85 1183.94,-84.11 1190.16,-82.96 1196.27,-81.71"/>
<polygon fill="#63b8ff" stroke="#63b8ff" points="1197.34,-85.06 1206.38,-79.53 1195.87,-78.21 1197.34,-85.06"/>
</g>
<!-- Node44&#45;&gt;Node17 -->
<g id="edge51" class="edge">
<title>Node44&#45;&gt;Node17</title>
<path fill="none" stroke="#63b8ff" d="M1251.95,-60.37C1264.75,-51.12 1285.3,-36.28 1300.65,-25.19"/>
<polygon fill="#63b8ff" stroke="#63b8ff" points="1302.94,-27.86 1309,-19.17 1298.84,-22.18 1302.94,-27.86"/>
</g>
<!-- Node45&#45;&gt;Node5 -->
<g id="edge54" class="edge">
<title>Node45&#45;&gt;Node5</title>
<path fill="none" stroke="#63b8ff" d="M388.85,-126.25C490.29,-119.4 731.16,-102.66 933,-85 969.9,-81.77 1012.2,-77.46 1040.56,-74.47"/>
<polygon fill="#63b8ff" stroke="#63b8ff" points="1041.13,-77.93 1050.71,-73.4 1040.4,-70.97 1041.13,-77.93"/>
</g>
<!-- Node45&#45;&gt;Node30 -->
<g id="edge55" class="edge">
<title>Node45&#45;&gt;Node30</title>
<path fill="none" stroke="#63b8ff" d="M338.23,-120.87C336.83,-114.03 334.8,-104.14 332.92,-94.97"/>
<polygon fill="#63b8ff" stroke="#63b8ff" points="336.33,-94.21 330.9,-85.11 329.48,-95.61 336.33,-94.21"/>
</g>
<!-- Node45&#45;&gt;Node31 -->
<g id="edge56" class="edge">
<title>Node45&#45;&gt;Node31</title>
<path fill="none" stroke="#63b8ff" d="M320.52,-120.99C301.48,-112.68 271.91,-99.78 247.59,-89.16"/>
<polygon fill="#63b8ff" stroke="#63b8ff" points="248.78,-85.86 238.22,-85.06 245.98,-92.27 248.78,-85.86"/>
</g>
<!-- Node45&#45;&gt;Node33 -->
<g id="edge57" class="edge">
<title>Node45&#45;&gt;Node33</title>
<path fill="none" stroke="#63b8ff" d="M356.97,-120.87C373.01,-112.71 397.6,-100.2 418.15,-89.75"/>
<polygon fill="#63b8ff" stroke="#63b8ff" points="419.93,-92.77 427.25,-85.11 416.75,-86.53 419.93,-92.77"/>
</g>
<!-- Node45&#45;&gt;Node43 -->
<g id="edge53" class="edge">
<title>Node45&#45;&gt;Node43</title>
<path fill="none" stroke="#63b8ff" d="M375.06,-120.97C411.54,-112.07 470.3,-97.68 521,-85 525.77,-83.81 530.76,-82.55 535.72,-81.29"/>
<polygon fill="#63b8ff" stroke="#63b8ff" points="536.92,-84.6 545.75,-78.75 535.2,-77.81 536.92,-84.6"/>
</g>
<!-- Node46&#45;&gt;Node12 -->
<g id="edge62" class="edge">
<title>Node46&#45;&gt;Node12</title>
<path fill="none" stroke="#63b8ff" d="M668.45,-357.39C677.3,-343.76 695.73,-316.76 715,-297 727.83,-283.84 744.12,-271 756.92,-261.62"/>
<polygon fill="#63b8ff" stroke="#63b8ff" points="759.06,-264.4 765.14,-255.72 754.98,-258.71 759.06,-264.4"/>
</g>
<!-- Node47 -->
<g id="node43" class="node">
<title>Node47</title>
<g id="a_node43"><a xlink:title=" ">
<polygon fill="#e0e0e0" stroke="#999999" points="667.5,-316 620.5,-316 620.5,-297 667.5,-297 667.5,-316"/>
<text text-anchor="middle" x="644" y="-304" font-family="Helvetica,sans-Serif" font-size="10.00">deque</text>
</a>
</g>
</g>
<!-- Node46&#45;&gt;Node47 -->
<g id="edge61" class="edge">
<title>Node46&#45;&gt;Node47</title>
<path fill="none" stroke="#63b8ff" d="M660.2,-357.37C657.5,-349.07 653.35,-336.28 649.92,-325.72"/>
<polygon fill="#63b8ff" stroke="#63b8ff" points="653.23,-324.6 646.82,-316.17 646.58,-326.76 653.23,-324.6"/>
</g>
<!-- Node48&#45;&gt;Node15 -->
<g id="edge65" class="edge">
<title>Node48&#45;&gt;Node15</title>
<path fill="none" stroke="#63b8ff" d="M92.71,-296.94C89.83,-277.91 82.84,-231.69 78.87,-205.47"/>
<polygon fill="#63b8ff" stroke="#63b8ff" points="82.29,-204.67 77.33,-195.3 75.37,-205.71 82.29,-204.67"/>
</g>
<!-- Node49&#45;&gt;Node12 -->
<g id="edge67" class="edge">
<title>Node49&#45;&gt;Node12</title>
<path fill="none" stroke="#63b8ff" d="M769.48,-296.87C770.88,-288.66 773.04,-276.04 774.83,-265.55"/>
<polygon fill="#63b8ff" stroke="#63b8ff" points="778.28,-266.11 776.52,-255.67 771.38,-264.93 778.28,-266.11"/>
</g>
<!-- Node50&#45;&gt;Node12 -->
<g id="edge69" class="edge">
<title>Node50&#45;&gt;Node12</title>
<path fill="none" stroke="#63b8ff" d="M808.61,-357.33C816.43,-344.09 828.83,-318.13 821,-297 816.02,-283.58 805.66,-271.35 796.35,-262.34"/>
<polygon fill="#63b8ff" stroke="#63b8ff" points="798.67,-259.72 788.92,-255.57 793.96,-264.89 798.67,-259.72"/>
</g>
<!-- Node51&#45;&gt;Node38 -->
<g id="edge72" class="edge">
<title>Node51&#45;&gt;Node38</title>
<path fill="none" stroke="#63b8ff" d="M242.01,-236.4C203.73,-207.96 90.12,-115.35 145,-55 173.7,-23.44 467.58,-13.75 574.43,-11.26"/>
<polygon fill="#63b8ff" stroke="#63b8ff" points="574.55,-14.76 584.47,-11.03 574.39,-7.76 574.55,-14.76"/>
</g>
<!-- Node51&#45;&gt;Node41 -->
<g id="edge73" class="edge">
<title>Node51&#45;&gt;Node41</title>
<path fill="none" stroke="#63b8ff" d="M254.15,-236.37C254.29,-228.25 254.5,-215.81 254.68,-205.39"/>
<polygon fill="#63b8ff" stroke="#63b8ff" points="258.18,-205.23 254.85,-195.17 251.18,-205.11 258.18,-205.23"/>
</g>
<!-- Node52&#45;&gt;Node9 -->
<g id="edge76" class="edge">
<title>Node52&#45;&gt;Node9</title>
<path fill="none" stroke="#63b8ff" d="M1388.62,-417.87C1399.9,-408.71 1417.92,-394.06 1431.53,-383.01"/>
<polygon fill="#63b8ff" stroke="#63b8ff" points="1433.78,-385.69 1439.33,-376.67 1429.36,-380.26 1433.78,-385.69"/>
</g>
<!-- Node53 -->
<g id="node49" class="node">
<title>Node53</title>
<g id="a_node49"><a xlink:href="dialects_8h.html" target="_top" xlink:title=" ">
<polygon fill="white" stroke="#666666" points="1165.5,-316 1070.5,-316 1070.5,-297 1165.5,-297 1165.5,-316"/>
<text text-anchor="middle" x="1118" y="-304" font-family="Helvetica,sans-Serif" font-size="10.00">thorin/dialects.h</text>
</a>
</g>
</g>
<!-- Node52&#45;&gt;Node53 -->
<g id="edge77" class="edge">
<title>Node52&#45;&gt;Node53</title>
<path fill="none" stroke="#63b8ff" d="M1359.3,-417.94C1314.25,-397.32 1199.49,-344.8 1146.1,-320.36"/>
<polygon fill="#63b8ff" stroke="#63b8ff" points="1147.43,-317.12 1136.88,-316.14 1144.51,-323.48 1147.43,-317.12"/>
</g>
<!-- Node53&#45;&gt;Node5 -->
<g id="edge79" class="edge">
<title>Node53&#45;&gt;Node5</title>
<path fill="none" stroke="#63b8ff" d="M1122.39,-296.78C1130.61,-281.3 1149.81,-248.97 1175,-231 1216.19,-201.61 1253.42,-236.05 1283,-195 1302.23,-168.32 1303.84,-146.45 1283,-121 1231.59,-58.22 1181.25,-109.86 1104,-85 1102.56,-84.54 1101.1,-84.03 1099.63,-83.48"/>
<polygon fill="#63b8ff" stroke="#63b8ff" points="1100.69,-80.13 1090.11,-79.56 1098.02,-86.6 1100.69,-80.13"/>
</g>
<!-- Node53&#45;&gt;Node7 -->
<g id="edge81" class="edge">
<title>Node53&#45;&gt;Node7</title>
<path fill="none" stroke="#63b8ff" d="M1070.5,-301.82C992.77,-295.5 833.67,-281.25 700,-261 698.74,-260.81 697.47,-260.61 696.19,-260.41"/>
<polygon fill="#63b8ff" stroke="#63b8ff" points="696.72,-256.95 686.27,-258.75 695.56,-263.85 696.72,-256.95"/>
</g>
<!-- Node53&#45;&gt;Node12 -->
<g id="edge83" class="edge">
<title>Node53&#45;&gt;Node12</title>
<path fill="none" stroke="#63b8ff" d="M1070.37,-297.3C1005.14,-286.08 888.78,-266.06 824.27,-254.96"/>
<polygon fill="#63b8ff" stroke="#63b8ff" points="824.83,-251.51 814.38,-253.26 823.64,-258.4 824.83,-251.51"/>
</g>
<!-- Node53&#45;&gt;Node14 -->
<g id="edge80" class="edge">
<title>Node53&#45;&gt;Node14</title>
<path fill="none" stroke="#63b8ff" d="M1120.61,-296.72C1124.82,-282.71 1133.5,-254.51 1142,-231 1152.41,-202.21 1165.95,-169.35 1174.31,-149.53"/>
<polygon fill="#63b8ff" stroke="#63b8ff" points="1177.58,-150.78 1178.26,-140.2 1171.13,-148.04 1177.58,-150.78"/>
</g>
<!-- Node53&#45;&gt;Node30 -->
<g id="edge82" class="edge">
<title>Node53&#45;&gt;Node30</title>
<path fill="none" stroke="#63b8ff" d="M1070.43,-303.24C981.36,-298.49 793.01,-285.79 733,-261 713.11,-252.79 714.88,-239.22 695,-231 567.23,-178.16 517.95,-236.28 386,-195 336.47,-179.5 309.69,-184.51 283,-140 273.1,-123.5 286.04,-105.28 300.54,-91.71"/>
<polygon fill="#63b8ff" stroke="#63b8ff" points="302.92,-94.28 308.16,-85.07 298.32,-89.01 302.92,-94.28"/>
</g>
<!-- Node54 -->
<g id="node50" class="node">
<title>Node54</title>
<g id="a_node50"><a xlink:title=" ">
<polygon fill="#e0e0e0" stroke="#999999" points="1242,-255.5 1184,-255.5 1184,-236.5 1242,-236.5 1242,-255.5"/>
<text text-anchor="middle" x="1213" y="-243.5" font-family="Helvetica,sans-Serif" font-size="10.00">memory</text>
</a>
</g>
</g>
<!-- Node53&#45;&gt;Node54 -->
<g id="edge78" class="edge">
<title>Node53&#45;&gt;Node54</title>
<path fill="none" stroke="#63b8ff" d="M1132.02,-296.87C1147.31,-287.45 1172.03,-272.23 1190.14,-261.08"/>
<polygon fill="#63b8ff" stroke="#63b8ff" points="1192.25,-263.89 1198.92,-255.67 1188.57,-257.93 1192.25,-263.89"/>
</g>
</g>
</svg>
