<?xml version="1.0" encoding="UTF-8" standalone="no"?>
<!DOCTYPE svg PUBLIC "-//W3C//DTD SVG 1.1//EN"
 "http://www.w3.org/Graphics/SVG/1.1/DTD/svg11.dtd">
<!-- Generated by graphviz version 2.43.0 (0)
 -->
<!-- Title: dialects/mem/passes/fp/copy_prop.h Pages: 1 -->
<svg width="1735pt" height="565pt"
 viewBox="0.00 0.00 1734.50 565.00" xmlns="http://www.w3.org/2000/svg" xmlns:xlink="http://www.w3.org/1999/xlink">
<g id="graph0" class="graph" transform="scale(1 1) rotate(0) translate(4 561)">
<title>dialects/mem/passes/fp/copy_prop.h</title>
<!-- Node1 -->
<g id="node1" class="node">
<title>Node1</title>
<g id="a_node1"><a xlink:title=" ">
<polygon fill="#bfbfbf" stroke="black" points="1019.5,-526.5 1019.5,-556.5 1139.5,-556.5 1139.5,-526.5 1019.5,-526.5"/>
<text text-anchor="start" x="1027.5" y="-544.5" font-family="Helvetica,sans-Serif" font-size="10.00">dialects/mem/passes</text>
<text text-anchor="middle" x="1079.5" y="-533.5" font-family="Helvetica,sans-Serif" font-size="10.00">/fp/copy_prop.h</text>
</a>
</g>
</g>
<!-- Node2 -->
<g id="node2" class="node">
<title>Node2</title>
<g id="a_node2"><a xlink:href="pass_8h.html" target="_top" xlink:title=" ">
<polygon fill="none" stroke="black" points="1027,-470.5 1027,-489.5 1132,-489.5 1132,-470.5 1027,-470.5"/>
<text text-anchor="middle" x="1079.5" y="-477.5" font-family="Helvetica,sans-Serif" font-size="10.00">thorin/pass/pass.h</text>
</a>
</g>
</g>
<!-- Node1&#45;&gt;Node2 -->
<g id="edge1" class="edge">
<title>Node1&#45;&gt;Node2</title>
<path fill="none" stroke="midnightblue" d="M1079.5,-526.4C1079.5,-518.47 1079.5,-508.46 1079.5,-499.86"/>
<polygon fill="midnightblue" stroke="midnightblue" points="1083,-499.66 1079.5,-489.66 1076,-499.66 1083,-499.66"/>
</g>
<!-- Node3 -->
<g id="node3" class="node">
<title>Node3</title>
<g id="a_node3"><a xlink:title=" ">
<polygon fill="none" stroke="#bfbfbf" points="0,-118 0,-137 43,-137 43,-118 0,-118"/>
<text text-anchor="middle" x="21.5" y="-125" font-family="Helvetica,sans-Serif" font-size="10.00">stack</text>
</a>
</g>
</g>
<!-- Node2&#45;&gt;Node3 -->
<g id="edge2" class="edge">
<title>Node2&#45;&gt;Node3</title>
<path fill="none" stroke="midnightblue" d="M1026.96,-478.65C817.78,-476.59 55.5,-462.29 55.5,-363.5 55.5,-363.5 55.5,-363.5 55.5,-244 55.5,-208.27 40.34,-168.76 30.27,-146.45"/>
<polygon fill="midnightblue" stroke="midnightblue" points="33.36,-144.8 25.94,-137.23 27.02,-147.77 33.36,-144.8"/>
</g>
<!-- Node4 -->
<g id="node4" class="node">
<title>Node4</title>
<g id="a_node4"><a xlink:title=" ">
<polygon fill="none" stroke="#bfbfbf" points="1140,-414.5 1140,-433.5 1205,-433.5 1205,-414.5 1140,-414.5"/>
<text text-anchor="middle" x="1172.5" y="-421.5" font-family="Helvetica,sans-Serif" font-size="10.00">typeindex</text>
</a>
</g>
</g>
<!-- Node2&#45;&gt;Node4 -->
<g id="edge3" class="edge">
<title>Node2&#45;&gt;Node4</title>
<path fill="none" stroke="midnightblue" d="M1094.44,-470.32C1109.09,-461.82 1131.63,-448.73 1148.74,-438.8"/>
<polygon fill="midnightblue" stroke="midnightblue" points="1150.7,-441.7 1157.6,-433.65 1147.19,-435.65 1150.7,-441.7"/>
</g>
<!-- Node5 -->
<g id="node5" class="node">
<title>Node5</title>
<g id="a_node5"><a xlink:href="world_8h.html" target="_top" xlink:title=" ">
<polygon fill="none" stroke="black" points="1037.5,-414.5 1037.5,-433.5 1121.5,-433.5 1121.5,-414.5 1037.5,-414.5"/>
<text text-anchor="middle" x="1079.5" y="-421.5" font-family="Helvetica,sans-Serif" font-size="10.00">thorin/world.h</text>
</a>
</g>
</g>
<!-- Node2&#45;&gt;Node5 -->
<g id="edge4" class="edge">
<title>Node2&#45;&gt;Node5</title>
<path fill="none" stroke="midnightblue" d="M1079.5,-470.08C1079.5,-463.01 1079.5,-452.86 1079.5,-443.99"/>
<polygon fill="midnightblue" stroke="midnightblue" points="1083,-443.75 1079.5,-433.75 1076,-443.75 1083,-443.75"/>
</g>
<!-- Node6 -->
<g id="node6" class="node">
<title>Node6</title>
<g id="a_node6"><a xlink:title=" ">
<polygon fill="none" stroke="#bfbfbf" points="1660.5,-118 1660.5,-137 1716.5,-137 1716.5,-118 1660.5,-118"/>
<text text-anchor="middle" x="1688.5" y="-125" font-family="Helvetica,sans-Serif" font-size="10.00">sstream</text>
</a>
</g>
</g>
<!-- Node5&#45;&gt;Node6 -->
<g id="edge5" class="edge">
<title>Node5&#45;&gt;Node6</title>
<path fill="none" stroke="midnightblue" d="M1121.73,-415.31C1125.03,-414.82 1128.32,-414.38 1131.5,-414 1252.46,-399.59 1573.8,-440.28 1678.5,-378 1712.84,-357.58 1726.5,-341.95 1726.5,-302 1726.5,-302 1726.5,-302 1726.5,-244 1726.5,-207.75 1709.41,-168.17 1698.15,-146.03"/>
<polygon fill="midnightblue" stroke="midnightblue" points="1701.23,-144.37 1693.47,-137.16 1695.04,-147.64 1701.23,-144.37"/>
</g>
<!-- Node7 -->
<g id="node7" class="node">
<title>Node7</title>
<g id="a_node7"><a xlink:title=" ">
<polygon fill="none" stroke="#bfbfbf" points="1469.5,-118 1469.5,-137 1513.5,-137 1513.5,-118 1469.5,-118"/>
<text text-anchor="middle" x="1491.5" y="-125" font-family="Helvetica,sans-Serif" font-size="10.00">string</text>
</a>
</g>
</g>
<!-- Node5&#45;&gt;Node7 -->
<g id="edge6" class="edge">
<title>Node5&#45;&gt;Node7</title>
<path fill="none" stroke="midnightblue" d="M1121.73,-415.32C1125.03,-414.83 1128.32,-414.38 1131.5,-414 1189.55,-407 1616.59,-420.74 1656.5,-378 1730.5,-298.75 1574.05,-182.82 1513.82,-142.74"/>
<polygon fill="midnightblue" stroke="midnightblue" points="1515.63,-139.75 1505.35,-137.19 1511.79,-145.6 1515.63,-139.75"/>
</g>
<!-- Node8 -->
<g id="node8" class="node">
<title>Node8</title>
<g id="a_node8"><a xlink:title=" ">
<polygon fill="none" stroke="#bfbfbf" points="1108,-353 1108,-372 1181,-372 1181,-353 1108,-353"/>
<text text-anchor="middle" x="1144.5" y="-360" font-family="Helvetica,sans-Serif" font-size="10.00">string_view</text>
</a>
</g>
</g>
<!-- Node5&#45;&gt;Node8 -->
<g id="edge7" class="edge">
<title>Node5&#45;&gt;Node8</title>
<path fill="none" stroke="midnightblue" d="M1088.81,-414.48C1098.95,-405.2 1115.36,-390.17 1127.75,-378.83"/>
<polygon fill="midnightblue" stroke="midnightblue" points="1130.19,-381.34 1135.2,-372.01 1125.46,-376.18 1130.19,-381.34"/>
</g>
<!-- Node9 -->
<g id="node9" class="node">
<title>Node9</title>
<g id="a_node9"><a xlink:title=" ">
<polygon fill="none" stroke="#bfbfbf" points="1199.5,-347.5 1199.5,-377.5 1313.5,-377.5 1313.5,-347.5 1199.5,-347.5"/>
<text text-anchor="start" x="1207.5" y="-365.5" font-family="Helvetica,sans-Serif" font-size="10.00">absl/container/btree</text>
<text text-anchor="middle" x="1256.5" y="-354.5" font-family="Helvetica,sans-Serif" font-size="10.00">_map.h</text>
</a>
</g>
</g>
<!-- Node5&#45;&gt;Node9 -->
<g id="edge8" class="edge">
<title>Node5&#45;&gt;Node9</title>
<path fill="none" stroke="midnightblue" d="M1104.86,-414.48C1130.96,-405.7 1172.35,-391.79 1205.3,-380.71"/>
<polygon fill="midnightblue" stroke="midnightblue" points="1206.42,-384.03 1214.78,-377.52 1204.19,-377.39 1206.42,-384.03"/>
</g>
<!-- Node10 -->
<g id="node10" class="node">
<title>Node10</title>
<g id="a_node10"><a xlink:title=" ">
<polygon fill="none" stroke="#bfbfbf" points="1331.5,-347.5 1331.5,-377.5 1445.5,-377.5 1445.5,-347.5 1331.5,-347.5"/>
<text text-anchor="start" x="1339.5" y="-365.5" font-family="Helvetica,sans-Serif" font-size="10.00">absl/container/btree</text>
<text text-anchor="middle" x="1388.5" y="-354.5" font-family="Helvetica,sans-Serif" font-size="10.00">_set.h</text>
</a>
</g>
</g>
<!-- Node5&#45;&gt;Node10 -->
<g id="edge9" class="edge">
<title>Node5&#45;&gt;Node10</title>
<path fill="none" stroke="midnightblue" d="M1121.73,-415.62C1168.18,-407.4 1245.29,-393.47 1321.09,-378.25"/>
<polygon fill="midnightblue" stroke="midnightblue" points="1322.18,-381.6 1331.29,-376.19 1320.79,-374.74 1322.18,-381.6"/>
</g>
<!-- Node11 -->
<g id="node11" class="node">
<title>Node11</title>
<g id="a_node11"><a xlink:href="axiom_8h.html" target="_top" xlink:title=" ">
<polygon fill="none" stroke="black" points="887.5,-353 887.5,-372 975.5,-372 975.5,-353 887.5,-353"/>
<text text-anchor="middle" x="931.5" y="-360" font-family="Helvetica,sans-Serif" font-size="10.00">thorin/axiom.h</text>
</a>
</g>
</g>
<!-- Node5&#45;&gt;Node11 -->
<g id="edge10" class="edge">
<title>Node5&#45;&gt;Node11</title>
<path fill="none" stroke="midnightblue" d="M1058.3,-414.48C1033.13,-404.36 990.96,-387.4 962.22,-375.85"/>
<polygon fill="midnightblue" stroke="midnightblue" points="963.25,-372.49 952.67,-372.01 960.64,-378.99 963.25,-372.49"/>
</g>
<!-- Node17 -->
<g id="node17" class="node">
<title>Node17</title>
<g id="a_node17"><a xlink:href="thorin_2debug_8h.html" target="_top" xlink:title=" ">
<polygon fill="none" stroke="black" points="994,-179.5 994,-198.5 1081,-198.5 1081,-179.5 994,-179.5"/>
<text text-anchor="middle" x="1037.5" y="-186.5" font-family="Helvetica,sans-Serif" font-size="10.00">thorin/debug.h</text>
</a>
</g>
</g>
<!-- Node5&#45;&gt;Node17 -->
<g id="edge60" class="edge">
<title>Node5&#45;&gt;Node17</title>
<path fill="none" stroke="midnightblue" d="M1074.62,-414.25C1069.79,-405.34 1062.43,-391.01 1057.5,-378 1037.4,-324.96 1031.12,-311.2 1023.5,-255 1022.31,-246.19 1022.16,-243.79 1023.5,-235 1024.87,-226 1027.69,-216.33 1030.45,-208.26"/>
<polygon fill="midnightblue" stroke="midnightblue" points="1033.77,-209.37 1033.9,-198.78 1027.19,-206.98 1033.77,-209.37"/>
</g>
<!-- Node35 -->
<g id="node34" class="node">
<title>Node35</title>
<g id="a_node34"><a xlink:href="hash_8h.html" target="_top" xlink:title=" ">
<polygon fill="none" stroke="black" points="61,-118 61,-137 160,-137 160,-118 61,-118"/>
<text text-anchor="middle" x="110.5" y="-125" font-family="Helvetica,sans-Serif" font-size="10.00">thorin/util/hash.h</text>
</a>
</g>
</g>
<!-- Node5&#45;&gt;Node35 -->
<g id="edge71" class="edge">
<title>Node5&#45;&gt;Node35</title>
<path fill="none" stroke="midnightblue" d="M1037.32,-422.15C852.89,-417.89 126.5,-395.19 126.5,-302 126.5,-302 126.5,-302 126.5,-244 126.5,-209.54 119.42,-169.83 114.68,-147.1"/>
<polygon fill="midnightblue" stroke="midnightblue" points="118.06,-146.17 112.53,-137.14 111.22,-147.65 118.06,-146.17"/>
</g>
<!-- Node45 -->
<g id="node44" class="node">
<title>Node45</title>
<g id="a_node44"><a xlink:title=" ">
<polygon fill="none" stroke="#bfbfbf" points="1463.5,-353 1463.5,-372 1549.5,-372 1549.5,-353 1463.5,-353"/>
<text text-anchor="middle" x="1506.5" y="-360" font-family="Helvetica,sans-Serif" font-size="10.00">thorin/config.h</text>
</a>
</g>
</g>
<!-- Node5&#45;&gt;Node45 -->
<g id="edge59" class="edge">
<title>Node5&#45;&gt;Node45</title>
<path fill="none" stroke="midnightblue" d="M1121.75,-415.47C1125.05,-414.95 1128.33,-414.45 1131.5,-414 1274.51,-393.67 1312.7,-405.49 1454.5,-378 1459.31,-377.07 1464.32,-375.91 1469.25,-374.66"/>
<polygon fill="midnightblue" stroke="midnightblue" points="1470.41,-377.98 1479.17,-372.01 1468.61,-371.21 1470.41,-377.98"/>
</g>
<!-- Node46 -->
<g id="node45" class="node">
<title>Node46</title>
<g id="a_node45"><a xlink:href="error_8h.html" target="_top" xlink:title=" ">
<polygon fill="none" stroke="black" points="1287.5,-235.5 1287.5,-254.5 1367.5,-254.5 1367.5,-235.5 1287.5,-235.5"/>
<text text-anchor="middle" x="1327.5" y="-242.5" font-family="Helvetica,sans-Serif" font-size="10.00">thorin/error.h</text>
</a>
</g>
</g>
<!-- Node5&#45;&gt;Node46 -->
<g id="edge61" class="edge">
<title>Node5&#45;&gt;Node46</title>
<path fill="none" stroke="midnightblue" d="M1079.45,-414.39C1079.82,-399.04 1082.69,-366.73 1099.5,-347 1145.3,-293.24 1225.3,-266.98 1277.33,-255.01"/>
<polygon fill="midnightblue" stroke="midnightblue" points="1278.33,-258.37 1287.34,-252.8 1276.82,-251.53 1278.33,-258.37"/>
</g>
<!-- Node48 -->
<g id="node47" class="node">
<title>Node48</title>
<g id="a_node47"><a xlink:href="flags_8h.html" target="_top" xlink:title=" ">
<polygon fill="none" stroke="black" points="1567.5,-353 1567.5,-372 1647.5,-372 1647.5,-353 1567.5,-353"/>
<text text-anchor="middle" x="1607.5" y="-360" font-family="Helvetica,sans-Serif" font-size="10.00">thorin/flags.h</text>
</a>
</g>
</g>
<!-- Node5&#45;&gt;Node48 -->
<g id="edge66" class="edge">
<title>Node5&#45;&gt;Node48</title>
<path fill="none" stroke="midnightblue" d="M1121.74,-415.37C1125.04,-414.87 1128.32,-414.41 1131.5,-414 1320.4,-389.74 1371.33,-413.2 1558.5,-378 1563.04,-377.15 1567.75,-376.04 1572.39,-374.82"/>
<polygon fill="midnightblue" stroke="midnightblue" points="1573.64,-378.11 1582.31,-372.02 1571.73,-371.37 1573.64,-378.11"/>
</g>
<!-- Node49 -->
<g id="node48" class="node">
<title>Node49</title>
<g id="a_node48"><a xlink:href="lattice_8h.html" target="_top" xlink:title=" ">
<polygon fill="none" stroke="black" points="655.5,-291.5 655.5,-310.5 743.5,-310.5 743.5,-291.5 655.5,-291.5"/>
<text text-anchor="middle" x="699.5" y="-298.5" font-family="Helvetica,sans-Serif" font-size="10.00">thorin/lattice.h</text>
</a>
</g>
</g>
<!-- Node5&#45;&gt;Node49 -->
<g id="edge67" class="edge">
<title>Node5&#45;&gt;Node49</title>
<path fill="none" stroke="midnightblue" d="M1037.15,-419.34C987.79,-414.13 904.34,-402.36 836.5,-378 792.73,-362.28 746.3,-333.65 720.3,-316.37"/>
<polygon fill="midnightblue" stroke="midnightblue" points="721.94,-313.25 711.69,-310.57 718.03,-319.06 721.94,-313.25"/>
</g>
<!-- Node50 -->
<g id="node49" class="node">
<title>Node50</title>
<g id="a_node49"><a xlink:href="tuple_8h.html" target="_top" xlink:title=" ">
<polygon fill="none" stroke="black" points="761.5,-291.5 761.5,-310.5 843.5,-310.5 843.5,-291.5 761.5,-291.5"/>
<text text-anchor="middle" x="802.5" y="-298.5" font-family="Helvetica,sans-Serif" font-size="10.00">thorin/tuple.h</text>
</a>
</g>
</g>
<!-- Node5&#45;&gt;Node50 -->
<g id="edge69" class="edge">
<title>Node5&#45;&gt;Node50</title>
<path fill="none" stroke="midnightblue" d="M1037.45,-420.43C995.03,-416.32 928.79,-405.66 878.5,-378 851.77,-363.3 828.18,-336.37 814.63,-318.84"/>
<polygon fill="midnightblue" stroke="midnightblue" points="817.28,-316.55 808.49,-310.64 811.68,-320.74 817.28,-316.55"/>
</g>
<!-- Node51 -->
<g id="node50" class="node">
<title>Node51</title>
<g id="a_node50"><a xlink:href="log_8h.html" target="_top" xlink:title=" ">
<polygon fill="none" stroke="black" points="1032,-235.5 1032,-254.5 1123,-254.5 1123,-235.5 1032,-235.5"/>
<text text-anchor="middle" x="1077.5" y="-242.5" font-family="Helvetica,sans-Serif" font-size="10.00">thorin/util/log.h</text>
</a>
</g>
</g>
<!-- Node5&#45;&gt;Node51 -->
<g id="edge72" class="edge">
<title>Node5&#45;&gt;Node51</title>
<path fill="none" stroke="midnightblue" d="M1075.9,-414.22C1072.44,-405.28 1067.47,-390.94 1065.5,-378 1059.69,-339.77 1060.48,-329.34 1065.5,-291 1066.66,-282.18 1069.03,-272.63 1071.37,-264.61"/>
<polygon fill="midnightblue" stroke="midnightblue" points="1074.79,-265.42 1074.41,-254.83 1068.1,-263.34 1074.79,-265.42"/>
</g>
<!-- Node12 -->
<g id="node12" class="node">
<title>Node12</title>
<g id="a_node12"><a xlink:href="lam_8h.html" target="_top" xlink:title=" ">
<polygon fill="none" stroke="black" points="861.5,-291.5 861.5,-310.5 937.5,-310.5 937.5,-291.5 861.5,-291.5"/>
<text text-anchor="middle" x="899.5" y="-298.5" font-family="Helvetica,sans-Serif" font-size="10.00">thorin/lam.h</text>
</a>
</g>
</g>
<!-- Node11&#45;&gt;Node12 -->
<g id="edge11" class="edge">
<title>Node11&#45;&gt;Node12</title>
<path fill="none" stroke="midnightblue" d="M926.92,-352.98C922.26,-344.32 914.91,-330.65 908.99,-319.65"/>
<polygon fill="midnightblue" stroke="midnightblue" points="911.9,-317.66 904.08,-310.51 905.73,-320.97 911.9,-317.66"/>
</g>
<!-- Node44 -->
<g id="node43" class="node">
<title>Node44</title>
<g id="a_node43"><a xlink:href="assert_8h.html" target="_top" xlink:title=" ">
<polygon fill="none" stroke="black" points="1345.5,-118 1345.5,-137 1451.5,-137 1451.5,-118 1345.5,-118"/>
<text text-anchor="middle" x="1398.5" y="-125" font-family="Helvetica,sans-Serif" font-size="10.00">thorin/util/assert.h</text>
</a>
</g>
</g>
<!-- Node11&#45;&gt;Node44 -->
<g id="edge58" class="edge">
<title>Node11&#45;&gt;Node44</title>
<path fill="none" stroke="midnightblue" d="M934.07,-352.93C937.07,-342.89 942.19,-325.75 946.5,-311 963.64,-252.41 937.75,-218.26 984.5,-179 1042,-130.7 1246.2,-153.87 1320.5,-143 1328.64,-141.81 1337.23,-140.39 1345.61,-138.9"/>
<polygon fill="midnightblue" stroke="midnightblue" points="1346.47,-142.3 1355.69,-137.07 1345.22,-135.41 1346.47,-142.3"/>
</g>
<!-- Node13 -->
<g id="node13" class="node">
<title>Node13</title>
<g id="a_node13"><a xlink:title=" ">
<polygon fill="none" stroke="#bfbfbf" points="874,-235.5 874,-254.5 925,-254.5 925,-235.5 874,-235.5"/>
<text text-anchor="middle" x="899.5" y="-242.5" font-family="Helvetica,sans-Serif" font-size="10.00">variant</text>
</a>
</g>
</g>
<!-- Node12&#45;&gt;Node13 -->
<g id="edge12" class="edge">
<title>Node12&#45;&gt;Node13</title>
<path fill="none" stroke="midnightblue" d="M899.5,-291.08C899.5,-284.01 899.5,-273.86 899.5,-264.99"/>
<polygon fill="midnightblue" stroke="midnightblue" points="903,-264.75 899.5,-254.75 896,-264.75 903,-264.75"/>
</g>
<!-- Node14 -->
<g id="node14" class="node">
<title>Node14</title>
<g id="a_node14"><a xlink:href="def_8h.html" target="_top" xlink:title=" ">
<polygon fill="none" stroke="black" points="766.5,-235.5 766.5,-254.5 838.5,-254.5 838.5,-235.5 766.5,-235.5"/>
<text text-anchor="middle" x="802.5" y="-242.5" font-family="Helvetica,sans-Serif" font-size="10.00">thorin/def.h</text>
</a>
</g>
</g>
<!-- Node12&#45;&gt;Node14 -->
<g id="edge13" class="edge">
<title>Node12&#45;&gt;Node14</title>
<path fill="none" stroke="midnightblue" d="M883.92,-291.32C868.5,-282.74 844.69,-269.49 826.79,-259.52"/>
<polygon fill="midnightblue" stroke="midnightblue" points="828.49,-256.46 818.05,-254.65 825.08,-262.58 828.49,-256.46"/>
</g>
<!-- Node15 -->
<g id="node15" class="node">
<title>Node15</title>
<g id="a_node15"><a xlink:title=" ">
<polygon fill="none" stroke="#bfbfbf" points="729.5,-179.5 729.5,-198.5 785.5,-198.5 785.5,-179.5 729.5,-179.5"/>
<text text-anchor="middle" x="757.5" y="-186.5" font-family="Helvetica,sans-Serif" font-size="10.00">optional</text>
</a>
</g>
</g>
<!-- Node14&#45;&gt;Node15 -->
<g id="edge14" class="edge">
<title>Node14&#45;&gt;Node15</title>
<path fill="none" stroke="midnightblue" d="M795.07,-235.08C788.65,-227.38 779.19,-216.03 771.38,-206.65"/>
<polygon fill="midnightblue" stroke="midnightblue" points="773.88,-204.19 764.79,-198.75 768.51,-208.67 773.88,-204.19"/>
</g>
<!-- Node16 -->
<g id="node16" class="node">
<title>Node16</title>
<g id="a_node16"><a xlink:title=" ">
<polygon fill="none" stroke="#bfbfbf" points="778,-118 778,-137 825,-137 825,-118 778,-118"/>
<text text-anchor="middle" x="801.5" y="-125" font-family="Helvetica,sans-Serif" font-size="10.00">vector</text>
</a>
</g>
</g>
<!-- Node14&#45;&gt;Node16 -->
<g id="edge15" class="edge">
<title>Node14&#45;&gt;Node16</title>
<path fill="none" stroke="midnightblue" d="M802.42,-235.32C802.26,-216.76 801.88,-172.84 801.66,-147.47"/>
<polygon fill="midnightblue" stroke="midnightblue" points="805.16,-147.25 801.58,-137.28 798.16,-147.31 805.16,-147.25"/>
</g>
<!-- Node14&#45;&gt;Node17 -->
<g id="edge16" class="edge">
<title>Node14&#45;&gt;Node17</title>
<path fill="none" stroke="midnightblue" d="M838.7,-235.68C879.52,-226.3 946.01,-211.02 990.73,-200.75"/>
<polygon fill="midnightblue" stroke="midnightblue" points="991.52,-204.16 1000.48,-198.51 989.95,-197.34 991.52,-204.16"/>
</g>
<!-- Node20 -->
<g id="node20" class="node">
<title>Node20</title>
<g id="a_node20"><a xlink:href="array_8h.html" target="_top" xlink:title=" ">
<polygon fill="none" stroke="black" points="611.5,-179.5 611.5,-198.5 711.5,-198.5 711.5,-179.5 611.5,-179.5"/>
<text text-anchor="middle" x="661.5" y="-186.5" font-family="Helvetica,sans-Serif" font-size="10.00">thorin/util/array.h</text>
</a>
</g>
</g>
<!-- Node14&#45;&gt;Node20 -->
<g id="edge20" class="edge">
<title>Node14&#45;&gt;Node20</title>
<path fill="none" stroke="midnightblue" d="M780.16,-235.44C756.75,-226.48 719.76,-212.31 693.31,-202.18"/>
<polygon fill="midnightblue" stroke="midnightblue" points="694.33,-198.82 683.74,-198.52 691.82,-205.36 694.33,-198.82"/>
</g>
<!-- Node30 -->
<g id="node30" class="node">
<title>Node30</title>
<g id="a_node30"><a xlink:href="cast_8h.html" target="_top" xlink:title=" ">
<polygon fill="none" stroke="black" points="841.5,-179.5 841.5,-198.5 937.5,-198.5 937.5,-179.5 841.5,-179.5"/>
<text text-anchor="middle" x="889.5" y="-186.5" font-family="Helvetica,sans-Serif" font-size="10.00">thorin/util/cast.h</text>
</a>
</g>
</g>
<!-- Node14&#45;&gt;Node30 -->
<g id="edge31" class="edge">
<title>Node14&#45;&gt;Node30</title>
<path fill="none" stroke="midnightblue" d="M816.48,-235.32C830.05,-226.9 850.88,-213.97 866.82,-204.07"/>
<polygon fill="midnightblue" stroke="midnightblue" points="868.91,-206.9 875.56,-198.65 865.21,-200.95 868.91,-206.9"/>
</g>
<!-- Node31 -->
<g id="node31" class="node">
<title>Node31</title>
<g id="a_node31"><a xlink:href="container_8h.html" target="_top" xlink:title=" ">
<polygon fill="none" stroke="red" points="239,-179.5 239,-198.5 360,-198.5 360,-179.5 239,-179.5"/>
<text text-anchor="middle" x="299.5" y="-186.5" font-family="Helvetica,sans-Serif" font-size="10.00">thorin/util/container.h</text>
</a>
</g>
</g>
<!-- Node14&#45;&gt;Node31 -->
<g id="edge34" class="edge">
<title>Node14&#45;&gt;Node31</title>
<path fill="none" stroke="midnightblue" d="M766.33,-240.12C683.62,-231.24 479.47,-209.32 370.59,-197.63"/>
<polygon fill="midnightblue" stroke="midnightblue" points="370.67,-194.12 360.35,-196.53 369.92,-201.08 370.67,-194.12"/>
</g>
<!-- Node14&#45;&gt;Node35 -->
<g id="edge48" class="edge">
<title>Node14&#45;&gt;Node35</title>
<path fill="none" stroke="midnightblue" d="M766.47,-243.3C657.12,-240.83 330.34,-230.92 229.5,-199 190.9,-186.78 151.52,-160.07 129.14,-143.26"/>
<polygon fill="midnightblue" stroke="midnightblue" points="131.23,-140.46 121.16,-137.15 126.97,-146.01 131.23,-140.46"/>
</g>
<!-- Node42 -->
<g id="node41" class="node">
<title>Node42</title>
<g id="a_node41"><a xlink:href="print_8h.html" target="_top" xlink:title=" ">
<polygon fill="none" stroke="black" points="1278.5,-179.5 1278.5,-198.5 1376.5,-198.5 1376.5,-179.5 1278.5,-179.5"/>
<text text-anchor="middle" x="1327.5" y="-186.5" font-family="Helvetica,sans-Serif" font-size="10.00">thorin/util/print.h</text>
</a>
</g>
</g>
<!-- Node14&#45;&gt;Node42 -->
<g id="edge49" class="edge">
<title>Node14&#45;&gt;Node42</title>
<path fill="none" stroke="midnightblue" d="M838.52,-238.48C847.03,-237.25 856.08,-236.02 864.5,-235 1009.3,-217.46 1180.22,-202.27 1268.35,-194.85"/>
<polygon fill="midnightblue" stroke="midnightblue" points="1268.75,-198.33 1278.42,-194 1268.16,-191.35 1268.75,-198.33"/>
</g>
<!-- Node17&#45;&gt;Node7 -->
<g id="edge17" class="edge">
<title>Node17&#45;&gt;Node7</title>
<path fill="none" stroke="midnightblue" d="M1081.01,-188.07C1158.68,-187.17 1325.69,-180.56 1460.5,-143 1462.43,-142.46 1464.39,-141.81 1466.34,-141.09"/>
<polygon fill="midnightblue" stroke="midnightblue" points="1467.96,-144.21 1475.8,-137.07 1465.23,-137.76 1467.96,-144.21"/>
</g>
<!-- Node18 -->
<g id="node18" class="node">
<title>Node18</title>
<g id="a_node18"><a xlink:title=" ">
<polygon fill="none" stroke="#bfbfbf" points="843.5,-112.5 843.5,-142.5 947.5,-142.5 947.5,-112.5 843.5,-112.5"/>
<text text-anchor="start" x="851.5" y="-130.5" font-family="Helvetica,sans-Serif" font-size="10.00">absl/container/flat</text>
<text text-anchor="middle" x="895.5" y="-119.5" font-family="Helvetica,sans-Serif" font-size="10.00">_hash_map.h</text>
</a>
</g>
</g>
<!-- Node17&#45;&gt;Node18 -->
<g id="edge18" class="edge">
<title>Node17&#45;&gt;Node18</title>
<path fill="none" stroke="midnightblue" d="M1017.15,-179.48C996.66,-170.89 964.43,-157.38 938.29,-146.43"/>
<polygon fill="midnightblue" stroke="midnightblue" points="939.54,-143.16 928.97,-142.52 936.84,-149.62 939.54,-143.16"/>
</g>
<!-- Node19 -->
<g id="node19" class="node">
<title>Node19</title>
<g id="a_node19"><a xlink:title=" ">
<polygon fill="none" stroke="#bfbfbf" points="965.5,-112.5 965.5,-142.5 1069.5,-142.5 1069.5,-112.5 965.5,-112.5"/>
<text text-anchor="start" x="973.5" y="-130.5" font-family="Helvetica,sans-Serif" font-size="10.00">absl/container/flat</text>
<text text-anchor="middle" x="1017.5" y="-119.5" font-family="Helvetica,sans-Serif" font-size="10.00">_hash_set.h</text>
</a>
</g>
</g>
<!-- Node17&#45;&gt;Node19 -->
<g id="edge19" class="edge">
<title>Node17&#45;&gt;Node19</title>
<path fill="none" stroke="midnightblue" d="M1034.63,-179.48C1032.23,-172.32 1028.68,-161.75 1025.43,-152.08"/>
<polygon fill="midnightblue" stroke="midnightblue" points="1028.72,-150.89 1022.21,-142.52 1022.08,-153.12 1028.72,-150.89"/>
</g>
<!-- Node20&#45;&gt;Node16 -->
<g id="edge30" class="edge">
<title>Node20&#45;&gt;Node16</title>
<path fill="none" stroke="midnightblue" d="M681.56,-179.48C705.26,-169.4 744.91,-152.55 772.08,-141"/>
<polygon fill="midnightblue" stroke="midnightblue" points="773.64,-144.14 781.48,-137.01 770.91,-137.7 773.64,-144.14"/>
</g>
<!-- Node21 -->
<g id="node21" class="node">
<title>Node21</title>
<g id="a_node21"><a xlink:title=" ">
<polygon fill="none" stroke="#bfbfbf" points="1291.5,-56.5 1291.5,-75.5 1343.5,-75.5 1343.5,-56.5 1291.5,-56.5"/>
<text text-anchor="middle" x="1317.5" y="-63.5" font-family="Helvetica,sans-Serif" font-size="10.00">cassert</text>
</a>
</g>
</g>
<!-- Node20&#45;&gt;Node21 -->
<g id="edge21" class="edge">
<title>Node20&#45;&gt;Node21</title>
<path fill="none" stroke="midnightblue" d="M675.28,-179.38C689.19,-170.56 711.17,-156.31 729.5,-143 747.42,-129.99 747.91,-120.14 768.5,-112 862.21,-74.93 1173.73,-68.4 1280.91,-67.25"/>
<polygon fill="midnightblue" stroke="midnightblue" points="1281.24,-70.74 1291.21,-67.15 1281.18,-63.74 1281.24,-70.74"/>
</g>
<!-- Node22 -->
<g id="node22" class="node">
<title>Node22</title>
<g id="a_node22"><a xlink:title=" ">
<polygon fill="none" stroke="#bfbfbf" points="484,-118 484,-137 537,-137 537,-118 484,-118"/>
<text text-anchor="middle" x="510.5" y="-125" font-family="Helvetica,sans-Serif" font-size="10.00">cstddef</text>
</a>
</g>
</g>
<!-- Node20&#45;&gt;Node22 -->
<g id="edge22" class="edge">
<title>Node20&#45;&gt;Node22</title>
<path fill="none" stroke="midnightblue" d="M639.43,-179.44C616.26,-170.43 578.78,-155.82 546.5,-143 544.86,-142.35 543.19,-141.68 541.49,-141.01"/>
<polygon fill="midnightblue" stroke="midnightblue" points="542.39,-137.6 531.81,-137.12 539.79,-144.09 542.39,-137.6"/>
</g>
<!-- Node23 -->
<g id="node23" class="node">
<title>Node23</title>
<g id="a_node23"><a xlink:title=" ">
<polygon fill="none" stroke="#bfbfbf" points="1087.5,-118 1087.5,-137 1137.5,-137 1137.5,-118 1087.5,-118"/>
<text text-anchor="middle" x="1112.5" y="-125" font-family="Helvetica,sans-Serif" font-size="10.00">cstring</text>
</a>
</g>
</g>
<!-- Node20&#45;&gt;Node23 -->
<g id="edge23" class="edge">
<title>Node20&#45;&gt;Node23</title>
<path fill="none" stroke="midnightblue" d="M711.69,-180.17C714.67,-179.76 717.62,-179.36 720.5,-179 879.15,-158.94 923.62,-182.82 1078.5,-143 1080.86,-142.39 1083.27,-141.65 1085.66,-140.82"/>
<polygon fill="midnightblue" stroke="midnightblue" points="1087.18,-143.98 1095.21,-137.07 1084.62,-137.46 1087.18,-143.98"/>
</g>
<!-- Node24 -->
<g id="node24" class="node">
<title>Node24</title>
<g id="a_node24"><a xlink:title=" ">
<polygon fill="none" stroke="#bfbfbf" points="555.5,-118 555.5,-137 619.5,-137 619.5,-118 555.5,-118"/>
<text text-anchor="middle" x="587.5" y="-125" font-family="Helvetica,sans-Serif" font-size="10.00">algorithm</text>
</a>
</g>
</g>
<!-- Node20&#45;&gt;Node24 -->
<g id="edge24" class="edge">
<title>Node20&#45;&gt;Node24</title>
<path fill="none" stroke="midnightblue" d="M650.9,-179.48C639.25,-170.11 620.31,-154.88 606.17,-143.51"/>
<polygon fill="midnightblue" stroke="midnightblue" points="608.07,-140.55 598.08,-137.01 603.68,-146 608.07,-140.55"/>
</g>
<!-- Node25 -->
<g id="node25" class="node">
<title>Node25</title>
<g id="a_node25"><a xlink:title=" ">
<polygon fill="none" stroke="#bfbfbf" points="1224,-118 1224,-137 1289,-137 1289,-118 1224,-118"/>
<text text-anchor="middle" x="1256.5" y="-125" font-family="Helvetica,sans-Serif" font-size="10.00">functional</text>
</a>
</g>
</g>
<!-- Node20&#45;&gt;Node25 -->
<g id="edge25" class="edge">
<title>Node20&#45;&gt;Node25</title>
<path fill="none" stroke="midnightblue" d="M711.68,-180.07C714.66,-179.69 717.62,-179.32 720.5,-179 939.26,-154.38 998.86,-187.29 1214.5,-143 1218.01,-142.28 1221.62,-141.34 1225.19,-140.29"/>
<polygon fill="midnightblue" stroke="midnightblue" points="1226.56,-143.53 1235,-137.12 1224.41,-136.87 1226.56,-143.53"/>
</g>
<!-- Node26 -->
<g id="node26" class="node">
<title>Node26</title>
<g id="a_node26"><a xlink:title=" ">
<polygon fill="none" stroke="#bfbfbf" points="638,-118 638,-137 721,-137 721,-118 638,-118"/>
<text text-anchor="middle" x="679.5" y="-125" font-family="Helvetica,sans-Serif" font-size="10.00">initializer_list</text>
</a>
</g>
</g>
<!-- Node20&#45;&gt;Node26 -->
<g id="edge26" class="edge">
<title>Node20&#45;&gt;Node26</title>
<path fill="none" stroke="midnightblue" d="M664.08,-179.48C666.65,-170.99 670.67,-157.7 673.96,-146.82"/>
<polygon fill="midnightblue" stroke="midnightblue" points="677.38,-147.59 676.93,-137.01 670.68,-145.57 677.38,-147.59"/>
</g>
<!-- Node27 -->
<g id="node27" class="node">
<title>Node27</title>
<g id="a_node27"><a xlink:title=" ">
<polygon fill="none" stroke="#bfbfbf" points="374,-118 374,-137 427,-137 427,-118 374,-118"/>
<text text-anchor="middle" x="400.5" y="-125" font-family="Helvetica,sans-Serif" font-size="10.00">iterator</text>
</a>
</g>
</g>
<!-- Node20&#45;&gt;Node27 -->
<g id="edge27" class="edge">
<title>Node20&#45;&gt;Node27</title>
<path fill="none" stroke="midnightblue" d="M611.23,-179.76C566.33,-171.92 498.97,-158.96 441.5,-143 438.54,-142.18 435.49,-141.25 432.44,-140.27"/>
<polygon fill="midnightblue" stroke="midnightblue" points="433.47,-136.93 422.88,-137.04 431.23,-143.56 433.47,-136.93"/>
</g>
<!-- Node28 -->
<g id="node28" class="node">
<title>Node28</title>
<g id="a_node28"><a xlink:title=" ">
<polygon fill="none" stroke="#bfbfbf" points="1155.5,-118 1155.5,-137 1205.5,-137 1205.5,-118 1155.5,-118"/>
<text text-anchor="middle" x="1180.5" y="-125" font-family="Helvetica,sans-Serif" font-size="10.00">ranges</text>
</a>
</g>
</g>
<!-- Node20&#45;&gt;Node28 -->
<g id="edge28" class="edge">
<title>Node20&#45;&gt;Node28</title>
<path fill="none" stroke="midnightblue" d="M711.68,-180.11C714.66,-179.72 717.62,-179.34 720.5,-179 909.19,-156.66 962.11,-188.85 1146.5,-143 1148.86,-142.41 1151.28,-141.68 1153.67,-140.86"/>
<polygon fill="midnightblue" stroke="midnightblue" points="1155.18,-144.02 1163.22,-137.13 1152.63,-137.5 1155.18,-144.02"/>
</g>
<!-- Node29 -->
<g id="node29" class="node">
<title>Node29</title>
<g id="a_node29"><a xlink:title=" ">
<polygon fill="none" stroke="#bfbfbf" points="421,-0.5 421,-19.5 490,-19.5 490,-0.5 421,-0.5"/>
<text text-anchor="middle" x="455.5" y="-7.5" font-family="Helvetica,sans-Serif" font-size="10.00">type_traits</text>
</a>
</g>
</g>
<!-- Node20&#45;&gt;Node29 -->
<g id="edge29" class="edge">
<title>Node20&#45;&gt;Node29</title>
<path fill="none" stroke="midnightblue" d="M611.29,-182.28C562.33,-175.63 492.66,-162.93 474.5,-143 446.13,-111.86 448.49,-58.31 452.23,-29.93"/>
<polygon fill="midnightblue" stroke="midnightblue" points="455.73,-30.18 453.77,-19.76 448.81,-29.12 455.73,-30.18"/>
</g>
<!-- Node30&#45;&gt;Node21 -->
<g id="edge32" class="edge">
<title>Node30&#45;&gt;Node21</title>
<path fill="none" stroke="midnightblue" d="M937.54,-180.83C942.25,-180.19 946.97,-179.56 951.5,-179 1028.43,-169.43 1239.94,-193.8 1298.5,-143 1314.68,-128.96 1318.14,-103.43 1318.41,-85.86"/>
<polygon fill="midnightblue" stroke="midnightblue" points="1321.91,-85.6 1318.23,-75.67 1314.91,-85.73 1321.91,-85.6"/>
</g>
<!-- Node30&#45;&gt;Node23 -->
<g id="edge33" class="edge">
<title>Node30&#45;&gt;Node23</title>
<path fill="none" stroke="midnightblue" d="M934.78,-179.47C973.44,-171.65 1030.29,-158.89 1078.5,-143 1080.42,-142.37 1082.38,-141.67 1084.35,-140.94"/>
<polygon fill="midnightblue" stroke="midnightblue" points="1086.04,-144.03 1094.01,-137.06 1083.43,-137.53 1086.04,-144.03"/>
</g>
<!-- Node31&#45;&gt;Node3 -->
<g id="edge36" class="edge">
<title>Node31&#45;&gt;Node3</title>
<path fill="none" stroke="midnightblue" d="M239,-181.67C188.08,-175.24 113.81,-163.29 51.5,-143 49.84,-142.46 48.15,-141.84 46.46,-141.18"/>
<polygon fill="midnightblue" stroke="midnightblue" points="47.61,-137.86 37.05,-137 44.77,-144.26 47.61,-137.86"/>
</g>
<!-- Node31&#45;&gt;Node18 -->
<g id="edge37" class="edge">
<title>Node31&#45;&gt;Node18</title>
<path fill="none" stroke="midnightblue" d="M360.31,-185.76C457.93,-181.53 655.75,-170.36 833.14,-142.88"/>
<polygon fill="midnightblue" stroke="midnightblue" points="833.84,-146.31 843.18,-141.3 832.75,-139.4 833.84,-146.31"/>
</g>
<!-- Node31&#45;&gt;Node19 -->
<g id="edge38" class="edge">
<title>Node31&#45;&gt;Node19</title>
<path fill="none" stroke="midnightblue" d="M360.1,-187.18C474.68,-184.91 730.98,-176.38 955.38,-143"/>
<polygon fill="midnightblue" stroke="midnightblue" points="956,-146.44 965.37,-141.49 954.96,-139.52 956,-146.44"/>
</g>
<!-- Node32 -->
<g id="node32" class="node">
<title>Node32</title>
<g id="a_node32"><a xlink:title=" ">
<polygon fill="none" stroke="#bfbfbf" points="178,-118 178,-137 225,-137 225,-118 178,-118"/>
<text text-anchor="middle" x="201.5" y="-125" font-family="Helvetica,sans-Serif" font-size="10.00">queue</text>
</a>
</g>
</g>
<!-- Node31&#45;&gt;Node32 -->
<g id="edge35" class="edge">
<title>Node31&#45;&gt;Node32</title>
<path fill="none" stroke="midnightblue" d="M285.46,-179.48C269.45,-169.75 243.05,-153.73 224.13,-142.24"/>
<polygon fill="midnightblue" stroke="midnightblue" points="225.88,-139.21 215.51,-137.01 222.25,-145.19 225.88,-139.21"/>
</g>
<!-- Node33 -->
<g id="node33" class="node">
<title>Node33</title>
<g id="a_node33"><a xlink:title=" ">
<polygon fill="none" stroke="#bfbfbf" points="243,-112.5 243,-142.5 356,-142.5 356,-112.5 243,-112.5"/>
<text text-anchor="start" x="251" y="-130.5" font-family="Helvetica,sans-Serif" font-size="10.00">absl/container/node</text>
<text text-anchor="middle" x="299.5" y="-119.5" font-family="Helvetica,sans-Serif" font-size="10.00">_hash_map.h</text>
</a>
</g>
</g>
<!-- Node31&#45;&gt;Node33 -->
<g id="edge39" class="edge">
<title>Node31&#45;&gt;Node33</title>
<path fill="none" stroke="midnightblue" d="M299.5,-179.48C299.5,-172.47 299.5,-162.19 299.5,-152.7"/>
<polygon fill="midnightblue" stroke="midnightblue" points="303,-152.52 299.5,-142.52 296,-152.52 303,-152.52"/>
</g>
<!-- Node31&#45;&gt;Node35 -->
<g id="edge40" class="edge">
<title>Node31&#45;&gt;Node35</title>
<path fill="none" stroke="midnightblue" d="M272.42,-179.48C239.58,-169.14 184.07,-151.66 147.35,-140.1"/>
<polygon fill="midnightblue" stroke="midnightblue" points="148.12,-136.67 137.53,-137.01 146.02,-143.35 148.12,-136.67"/>
</g>
<!-- Node36 -->
<g id="node35" class="node">
<title>Node36</title>
<g id="a_node35"><a xlink:href="types_8h.html" target="_top" xlink:title=" ">
<polygon fill="none" stroke="black" points="253,-56.5 253,-75.5 356,-75.5 356,-56.5 253,-56.5"/>
<text text-anchor="middle" x="304.5" y="-63.5" font-family="Helvetica,sans-Serif" font-size="10.00">thorin/util/types.h</text>
</a>
</g>
</g>
<!-- Node35&#45;&gt;Node36 -->
<g id="edge41" class="edge">
<title>Node35&#45;&gt;Node36</title>
<path fill="none" stroke="midnightblue" d="M138.3,-117.98C172.15,-107.59 229.47,-90.01 267.15,-78.45"/>
<polygon fill="midnightblue" stroke="midnightblue" points="268.22,-81.79 276.76,-75.51 266.17,-75.1 268.22,-81.79"/>
</g>
<!-- Node36&#45;&gt;Node29 -->
<g id="edge45" class="edge">
<title>Node36&#45;&gt;Node29</title>
<path fill="none" stroke="midnightblue" d="M328.43,-56.44C353.72,-47.4 393.8,-33.06 422.18,-22.92"/>
<polygon fill="midnightblue" stroke="midnightblue" points="423.45,-26.18 431.69,-19.52 421.09,-19.59 423.45,-26.18"/>
</g>
<!-- Node37 -->
<g id="node36" class="node">
<title>Node37</title>
<g id="a_node36"><a xlink:title=" ">
<polygon fill="none" stroke="#bfbfbf" points="150.5,-0.5 150.5,-19.5 200.5,-19.5 200.5,-0.5 150.5,-0.5"/>
<text text-anchor="middle" x="175.5" y="-7.5" font-family="Helvetica,sans-Serif" font-size="10.00">cstdint</text>
</a>
</g>
</g>
<!-- Node36&#45;&gt;Node37 -->
<g id="edge42" class="edge">
<title>Node36&#45;&gt;Node37</title>
<path fill="none" stroke="midnightblue" d="M284.06,-56.44C262.83,-47.56 229.4,-33.56 205.25,-23.45"/>
<polygon fill="midnightblue" stroke="midnightblue" points="206.42,-20.15 195.84,-19.52 203.72,-26.61 206.42,-20.15"/>
</g>
<!-- Node38 -->
<g id="node37" class="node">
<title>Node38</title>
<g id="a_node37"><a xlink:title=" ">
<polygon fill="none" stroke="#bfbfbf" points="218.5,-0.5 218.5,-19.5 262.5,-19.5 262.5,-0.5 218.5,-0.5"/>
<text text-anchor="middle" x="240.5" y="-7.5" font-family="Helvetica,sans-Serif" font-size="10.00">limits</text>
</a>
</g>
</g>
<!-- Node36&#45;&gt;Node38 -->
<g id="edge43" class="edge">
<title>Node36&#45;&gt;Node38</title>
<path fill="none" stroke="midnightblue" d="M294.22,-56.32C284.66,-48.26 270.22,-36.08 258.72,-26.37"/>
<polygon fill="midnightblue" stroke="midnightblue" points="260.87,-23.61 250.97,-19.83 256.36,-28.96 260.87,-23.61"/>
</g>
<!-- Node39 -->
<g id="node38" class="node">
<title>Node39</title>
<g id="a_node38"><a xlink:title=" ">
<polygon fill="none" stroke="#bfbfbf" points="1011,-0.5 1011,-19.5 1068,-19.5 1068,-0.5 1011,-0.5"/>
<text text-anchor="middle" x="1039.5" y="-7.5" font-family="Helvetica,sans-Serif" font-size="10.00">ostream</text>
</a>
</g>
</g>
<!-- Node36&#45;&gt;Node39 -->
<g id="edge44" class="edge">
<title>Node36&#45;&gt;Node39</title>
<path fill="none" stroke="midnightblue" d="M356.18,-61.2C495.73,-50.95 877.87,-22.87 1000.84,-13.84"/>
<polygon fill="midnightblue" stroke="midnightblue" points="1001.2,-17.32 1010.92,-13.1 1000.69,-10.34 1001.2,-17.32"/>
</g>
<!-- Node40 -->
<g id="node39" class="node">
<title>Node40</title>
<g id="a_node39"><a xlink:title=" ">
<polygon fill="none" stroke="#bfbfbf" points="281,-0.5 281,-19.5 328,-19.5 328,-0.5 281,-0.5"/>
<text text-anchor="middle" x="304.5" y="-7.5" font-family="Helvetica,sans-Serif" font-size="10.00">cmath</text>
</a>
</g>
</g>
<!-- Node36&#45;&gt;Node40 -->
<g id="edge46" class="edge">
<title>Node36&#45;&gt;Node40</title>
<path fill="none" stroke="midnightblue" d="M304.5,-56.08C304.5,-49.01 304.5,-38.86 304.5,-29.99"/>
<polygon fill="midnightblue" stroke="midnightblue" points="308,-29.75 304.5,-19.75 301,-29.75 308,-29.75"/>
</g>
<!-- Node41 -->
<g id="node40" class="node">
<title>Node41</title>
<g id="a_node40"><a xlink:title=" ">
<polygon fill="none" stroke="#bfbfbf" points="346.5,-0.5 346.5,-19.5 402.5,-19.5 402.5,-0.5 346.5,-0.5"/>
<text text-anchor="middle" x="374.5" y="-7.5" font-family="Helvetica,sans-Serif" font-size="10.00">half.hpp</text>
</a>
</g>
</g>
<!-- Node36&#45;&gt;Node41 -->
<g id="edge47" class="edge">
<title>Node36&#45;&gt;Node41</title>
<path fill="none" stroke="midnightblue" d="M315.75,-56.32C326.3,-48.18 342.3,-35.84 354.94,-26.09"/>
<polygon fill="midnightblue" stroke="midnightblue" points="357.27,-28.71 363.05,-19.83 352.99,-23.17 357.27,-28.71"/>
</g>
<!-- Node42&#45;&gt;Node6 -->
<g id="edge54" class="edge">
<title>Node42&#45;&gt;Node6</title>
<path fill="none" stroke="midnightblue" d="M1376.75,-180.45C1380.05,-179.96 1383.32,-179.47 1386.5,-179 1498.42,-162.47 1527.9,-166.81 1638.5,-143 1642.89,-142.05 1647.47,-140.93 1651.98,-139.73"/>
<polygon fill="midnightblue" stroke="midnightblue" points="1653,-143.08 1661.69,-137.03 1651.12,-136.34 1653,-143.08"/>
</g>
<!-- Node42&#45;&gt;Node7 -->
<g id="edge55" class="edge">
<title>Node42&#45;&gt;Node7</title>
<path fill="none" stroke="midnightblue" d="M1355.59,-179.5C1382.74,-171.04 1424.87,-157.31 1460.5,-143 1461.88,-142.45 1463.28,-141.86 1464.7,-141.26"/>
<polygon fill="midnightblue" stroke="midnightblue" points="1466.24,-144.4 1473.94,-137.13 1463.39,-138.01 1466.24,-144.4"/>
</g>
<!-- Node42&#45;&gt;Node25 -->
<g id="edge50" class="edge">
<title>Node42&#45;&gt;Node25</title>
<path fill="none" stroke="midnightblue" d="M1317.33,-179.48C1306.15,-170.11 1287.98,-154.88 1274.41,-143.51"/>
<polygon fill="midnightblue" stroke="midnightblue" points="1276.57,-140.75 1266.65,-137.01 1272.07,-146.11 1276.57,-140.75"/>
</g>
<!-- Node42&#45;&gt;Node28 -->
<g id="edge53" class="edge">
<title>Node42&#45;&gt;Node28</title>
<path fill="none" stroke="midnightblue" d="M1306,-179.44C1283.43,-170.44 1246.93,-155.82 1215.5,-143 1213.91,-142.35 1212.28,-141.68 1210.63,-141.01"/>
<polygon fill="midnightblue" stroke="midnightblue" points="1211.79,-137.7 1201.21,-137.12 1209.12,-144.17 1211.79,-137.7"/>
</g>
<!-- Node42&#45;&gt;Node39 -->
<g id="edge52" class="edge">
<title>Node42&#45;&gt;Node39</title>
<path fill="none" stroke="midnightblue" d="M1376.59,-179.92C1431.31,-170.42 1513.36,-154.49 1522.5,-143 1531.08,-132.22 1530.58,-123.16 1522.5,-112 1470.25,-39.78 1183.78,-18.23 1078.41,-12.7"/>
<polygon fill="midnightblue" stroke="midnightblue" points="1078.37,-9.19 1068.21,-12.18 1078.02,-16.18 1078.37,-9.19"/>
</g>
<!-- Node43 -->
<g id="node42" class="node">
<title>Node43</title>
<g id="a_node42"><a xlink:title=" ">
<polygon fill="none" stroke="#bfbfbf" points="1569.5,-118 1569.5,-137 1629.5,-137 1629.5,-118 1569.5,-118"/>
<text text-anchor="middle" x="1599.5" y="-125" font-family="Helvetica,sans-Serif" font-size="10.00">iostream</text>
</a>
</g>
</g>
<!-- Node42&#45;&gt;Node43 -->
<g id="edge51" class="edge">
<title>Node42&#45;&gt;Node43</title>
<path fill="none" stroke="midnightblue" d="M1376.82,-180.08C1423.27,-172.19 1494.62,-158.97 1555.5,-143 1558.87,-142.12 1562.36,-141.12 1565.83,-140.06"/>
<polygon fill="midnightblue" stroke="midnightblue" points="1566.98,-143.37 1575.45,-137.02 1564.86,-136.7 1566.98,-143.37"/>
</g>
<!-- Node42&#45;&gt;Node44 -->
<g id="edge56" class="edge">
<title>Node42&#45;&gt;Node44</title>
<path fill="none" stroke="midnightblue" d="M1337.67,-179.48C1348.85,-170.11 1367.02,-154.88 1380.59,-143.51"/>
<polygon fill="midnightblue" stroke="midnightblue" points="1382.93,-146.11 1388.35,-137.01 1378.43,-140.75 1382.93,-146.11"/>
</g>
<!-- Node44&#45;&gt;Node21 -->
<g id="edge57" class="edge">
<title>Node44&#45;&gt;Node21</title>
<path fill="none" stroke="midnightblue" d="M1386.89,-117.98C1374.02,-108.52 1353.03,-93.1 1337.49,-81.69"/>
<polygon fill="midnightblue" stroke="midnightblue" points="1339.22,-78.61 1329.08,-75.51 1335.07,-84.25 1339.22,-78.61"/>
</g>
<!-- Node46&#45;&gt;Node6 -->
<g id="edge62" class="edge">
<title>Node46&#45;&gt;Node6</title>
<path fill="none" stroke="midnightblue" d="M1354.47,-235.49C1383.04,-226.47 1429.47,-211.79 1469.5,-199 1534.1,-178.37 1609.33,-154.09 1652.69,-140.08"/>
<polygon fill="midnightblue" stroke="midnightblue" points="1653.78,-143.41 1662.22,-137 1651.63,-136.75 1653.78,-143.41"/>
</g>
<!-- Node46&#45;&gt;Node17 -->
<g id="edge64" class="edge">
<title>Node46&#45;&gt;Node17</title>
<path fill="none" stroke="midnightblue" d="M1287.48,-236.55C1236.47,-227.05 1148.1,-210.59 1091.25,-200.01"/>
<polygon fill="midnightblue" stroke="midnightblue" points="1091.84,-196.56 1081.37,-198.17 1090.56,-203.44 1091.84,-196.56"/>
</g>
<!-- Node46&#45;&gt;Node42 -->
<g id="edge65" class="edge">
<title>Node46&#45;&gt;Node42</title>
<path fill="none" stroke="midnightblue" d="M1327.5,-235.08C1327.5,-228.01 1327.5,-217.86 1327.5,-208.99"/>
<polygon fill="midnightblue" stroke="midnightblue" points="1331,-208.75 1327.5,-198.75 1324,-208.75 1331,-208.75"/>
</g>
<!-- Node47 -->
<g id="node46" class="node">
<title>Node47</title>
<g id="a_node46"><a xlink:title=" ">
<polygon fill="none" stroke="#bfbfbf" points="1395,-179.5 1395,-198.5 1460,-198.5 1460,-179.5 1395,-179.5"/>
<text text-anchor="middle" x="1427.5" y="-186.5" font-family="Helvetica,sans-Serif" font-size="10.00">stdexcept</text>
</a>
</g>
</g>
<!-- Node46&#45;&gt;Node47 -->
<g id="edge63" class="edge">
<title>Node46&#45;&gt;Node47</title>
<path fill="none" stroke="midnightblue" d="M1343.57,-235.32C1359.46,-226.74 1384.01,-213.49 1402.46,-203.52"/>
<polygon fill="midnightblue" stroke="midnightblue" points="1404.34,-206.49 1411.47,-198.65 1401.01,-200.33 1404.34,-206.49"/>
</g>
<!-- Node49&#45;&gt;Node14 -->
<g id="edge68" class="edge">
<title>Node49&#45;&gt;Node14</title>
<path fill="none" stroke="midnightblue" d="M716.05,-291.32C732.49,-282.7 757.93,-269.36 776.97,-259.39"/>
<polygon fill="midnightblue" stroke="midnightblue" points="778.76,-262.4 785.99,-254.65 775.51,-256.2 778.76,-262.4"/>
</g>
<!-- Node50&#45;&gt;Node14 -->
<g id="edge70" class="edge">
<title>Node50&#45;&gt;Node14</title>
<path fill="none" stroke="midnightblue" d="M802.5,-291.08C802.5,-284.01 802.5,-273.86 802.5,-264.99"/>
<polygon fill="midnightblue" stroke="midnightblue" points="806,-264.75 802.5,-254.75 799,-264.75 806,-264.75"/>
</g>
<!-- Node51&#45;&gt;Node17 -->
<g id="edge73" class="edge">
<title>Node51&#45;&gt;Node17</title>
<path fill="none" stroke="midnightblue" d="M1070.89,-235.08C1065.24,-227.46 1056.96,-216.26 1050.05,-206.94"/>
<polygon fill="midnightblue" stroke="midnightblue" points="1052.75,-204.7 1043.98,-198.75 1047.12,-208.87 1052.75,-204.7"/>
</g>
<!-- Node51&#45;&gt;Node42 -->
<g id="edge74" class="edge">
<title>Node51&#45;&gt;Node42</title>
<path fill="none" stroke="midnightblue" d="M1117.11,-235.44C1160.73,-226.02 1230.9,-210.87 1278.08,-200.68"/>
<polygon fill="midnightblue" stroke="midnightblue" points="1279.04,-204.05 1288.07,-198.52 1277.56,-197.21 1279.04,-204.05"/>
</g>
</g>
</svg>
