<?xml version="1.0" encoding="UTF-8" standalone="no"?>
<!DOCTYPE svg PUBLIC "-//W3C//DTD SVG 1.1//EN"
 "http://www.w3.org/Graphics/SVG/1.1/DTD/svg11.dtd">
<!-- Generated by graphviz version 2.43.0 (0)
 -->
<!-- Title: dialects/core/normalizers.cpp Pages: 1 -->
<svg width="1310pt" height="819pt"
 viewBox="0.00 0.00 1310.00 819.00" xmlns="http://www.w3.org/2000/svg" xmlns:xlink="http://www.w3.org/1999/xlink">
<g id="graph0" class="graph" transform="scale(1 1) rotate(0) translate(4 815)">
<title>dialects/core/normalizers.cpp</title>
<!-- Node1 -->
<g id="node1" class="node">
<title>Node1</title>
<g id="a_node1"><a xlink:title=" ">
<polygon fill="#999999" stroke="#666666" points="422,-811 262,-811 262,-792 422,-792 422,-811"/>
<text text-anchor="middle" x="342" y="-799" font-family="Helvetica,sans-Serif" font-size="10.00">dialects/core/normalizers.cpp</text>
</a>
</g>
</g>
<!-- Node2 -->
<g id="node2" class="node">
<title>Node2</title>
<g id="a_node2"><a xlink:href="core_8h.html" target="_top" xlink:title=" ">
<polygon fill="white" stroke="#666666" points="487,-701 375,-701 375,-682 487,-682 487,-701"/>
<text text-anchor="middle" x="431" y="-689" font-family="Helvetica,sans-Serif" font-size="10.00">dialects/core/core.h</text>
</a>
</g>
</g>
<!-- Node1&#45;&gt;Node2 -->
<g id="edge1" class="edge">
<title>Node1&#45;&gt;Node2</title>
<path fill="none" stroke="#63b8ff" d="M362.6,-791.93C377.99,-784.53 398.47,-772.43 411,-756 420.97,-742.93 426.03,-724.79 428.57,-711.24"/>
<polygon fill="#63b8ff" stroke="#63b8ff" points="432.06,-711.58 430.15,-701.16 425.14,-710.49 432.06,-711.58"/>
</g>
<!-- Node67 -->
<g id="node47" class="node">
<title>Node67</title>
<g id="a_node47"><a xlink:href="math_8h.html" target="_top" xlink:title=" ">
<polygon fill="white" stroke="#666666" points="160.5,-701 39.5,-701 39.5,-682 160.5,-682 160.5,-701"/>
<text text-anchor="middle" x="100" y="-689" font-family="Helvetica,sans-Serif" font-size="10.00">dialects/math/math.h</text>
</a>
</g>
</g>
<!-- Node1&#45;&gt;Node67 -->
<g id="edge77" class="edge">
<title>Node1&#45;&gt;Node67</title>
<path fill="none" stroke="#63b8ff" d="M322.61,-791.84C280.02,-772.84 178.18,-727.39 128.38,-705.17"/>
<polygon fill="#63b8ff" stroke="#63b8ff" points="129.71,-701.93 119.15,-701.05 126.86,-708.32 129.71,-701.93"/>
</g>
<!-- Node69 -->
<g id="node49" class="node">
<title>Node69</title>
<g id="a_node49"><a xlink:href="mem_8h.html" target="_top" xlink:title=" ">
<polygon fill="white" stroke="#666666" points="402.5,-756 281.5,-756 281.5,-737 402.5,-737 402.5,-756"/>
<text text-anchor="middle" x="342" y="-744" font-family="Helvetica,sans-Serif" font-size="10.00">dialects/mem/mem.h</text>
</a>
</g>
</g>
<!-- Node1&#45;&gt;Node69 -->
<g id="edge83" class="edge">
<title>Node1&#45;&gt;Node69</title>
<path fill="none" stroke="#63b8ff" d="M342,-791.75C342,-784.8 342,-774.85 342,-766.13"/>
<polygon fill="#63b8ff" stroke="#63b8ff" points="345.5,-766.09 342,-756.09 338.5,-766.09 345.5,-766.09"/>
</g>
<!-- Node3 -->
<g id="node3" class="node">
<title>Node3</title>
<g id="a_node3"><a xlink:href="axiom_8h.html" target="_top" xlink:title=" ">
<polygon fill="white" stroke="#666666" points="308,-365.5 220,-365.5 220,-346.5 308,-346.5 308,-365.5"/>
<text text-anchor="middle" x="264" y="-353.5" font-family="Helvetica,sans-Serif" font-size="10.00">thorin/axiom.h</text>
</a>
</g>
</g>
<!-- Node2&#45;&gt;Node3 -->
<g id="edge2" class="edge">
<title>Node2&#45;&gt;Node3</title>
<path fill="none" stroke="#63b8ff" d="M425.12,-681.81C419.24,-672.97 410.07,-658.78 403,-646 347.78,-546.1 291.85,-420.84 271.77,-374.93"/>
<polygon fill="#63b8ff" stroke="#63b8ff" points="274.95,-373.46 267.75,-365.69 268.53,-376.26 274.95,-373.46"/>
</g>
<!-- Node40 -->
<g id="node29" class="node">
<title>Node40</title>
<g id="a_node29"><a xlink:href="world_8h.html" target="_top" xlink:title=" ">
<polygon fill="white" stroke="#666666" points="799,-426 715,-426 715,-407 799,-407 799,-426"/>
<text text-anchor="middle" x="757" y="-414" font-family="Helvetica,sans-Serif" font-size="10.00">thorin/world.h</text>
</a>
</g>
</g>
<!-- Node2&#45;&gt;Node40 -->
<g id="edge41" class="edge">
<title>Node2&#45;&gt;Node40</title>
<path fill="none" stroke="#63b8ff" d="M487.23,-688.73C608.81,-684.43 888.01,-671.83 922,-646 946.02,-627.74 946,-612.67 946,-582.5 946,-582.5 946,-582.5 946,-525.5 946,-495.33 944.35,-482.26 922,-462 891.39,-434.25 845.26,-423.52 809.55,-419.51"/>
<polygon fill="#63b8ff" stroke="#63b8ff" points="809.6,-416 799.3,-418.51 808.92,-422.96 809.6,-416"/>
</g>
<!-- Node51 -->
<g id="node40" class="node">
<title>Node51</title>
<g id="a_node40"><a xlink:href="core_2autogen_8h.html" target="_top" xlink:title=" ">
<polygon fill="white" stroke="#666666" points="543.5,-646 412.5,-646 412.5,-627 543.5,-627 543.5,-646"/>
<text text-anchor="middle" x="478" y="-634" font-family="Helvetica,sans-Serif" font-size="10.00">dialects/core/autogen.h</text>
</a>
</g>
</g>
<!-- Node2&#45;&gt;Node51 -->
<g id="edge62" class="edge">
<title>Node2&#45;&gt;Node51</title>
<path fill="none" stroke="#63b8ff" d="M438.76,-681.75C445.47,-674.18 455.34,-663.05 463.51,-653.84"/>
<polygon fill="#63b8ff" stroke="#63b8ff" points="466.37,-655.89 470.38,-646.09 461.13,-651.25 466.37,-655.89"/>
</g>
<!-- Node4 -->
<g id="node4" class="node">
<title>Node4</title>
<g id="a_node4"><a xlink:href="lam_8h.html" target="_top" xlink:title=" ">
<polygon fill="white" stroke="#666666" points="898,-305 822,-305 822,-286 898,-286 898,-305"/>
<text text-anchor="middle" x="860" y="-293" font-family="Helvetica,sans-Serif" font-size="10.00">thorin/lam.h</text>
</a>
</g>
</g>
<!-- Node3&#45;&gt;Node4 -->
<g id="edge3" class="edge">
<title>Node3&#45;&gt;Node4</title>
<path fill="none" stroke="#63b8ff" d="M308.27,-352.3C400.18,-346.4 618.54,-330.89 811.77,-305.05"/>
<polygon fill="#63b8ff" stroke="#63b8ff" points="812.38,-308.5 821.83,-303.69 811.45,-301.56 812.38,-308.5"/>
</g>
<!-- Node19 -->
<g id="node19" class="node">
<title>Node19</title>
<g id="a_node19"><a xlink:href="assert_8h.html" target="_top" xlink:title=" ">
<polygon fill="white" stroke="#666666" points="566,-74 460,-74 460,-55 566,-55 566,-74"/>
<text text-anchor="middle" x="513" y="-62" font-family="Helvetica,sans-Serif" font-size="10.00">thorin/util/assert.h</text>
</a>
</g>
</g>
<!-- Node3&#45;&gt;Node19 -->
<g id="edge40" class="edge">
<title>Node3&#45;&gt;Node19</title>
<path fill="none" stroke="#63b8ff" d="M263.12,-346.34C260.06,-311.23 253.57,-178.18 322,-110 339.9,-92.16 401.26,-80.05 449.66,-73.02"/>
<polygon fill="#63b8ff" stroke="#63b8ff" points="450.36,-76.46 459.77,-71.6 449.38,-69.52 450.36,-76.46"/>
</g>
<!-- Node5 -->
<g id="node5" class="node">
<title>Node5</title>
<g id="a_node5"><a xlink:title=" ">
<polygon fill="#e0e0e0" stroke="#999999" points="885.5,-250 834.5,-250 834.5,-231 885.5,-231 885.5,-250"/>
<text text-anchor="middle" x="860" y="-238" font-family="Helvetica,sans-Serif" font-size="10.00">variant</text>
</a>
</g>
</g>
<!-- Node4&#45;&gt;Node5 -->
<g id="edge4" class="edge">
<title>Node4&#45;&gt;Node5</title>
<path fill="none" stroke="#63b8ff" d="M860,-285.75C860,-278.8 860,-268.85 860,-260.13"/>
<polygon fill="#63b8ff" stroke="#63b8ff" points="863.5,-260.09 860,-250.09 856.5,-260.09 863.5,-260.09"/>
</g>
<!-- Node6 -->
<g id="node6" class="node">
<title>Node6</title>
<g id="a_node6"><a xlink:href="def_8h.html" target="_top" xlink:title=" ">
<polygon fill="white" stroke="#666666" points="796,-250 724,-250 724,-231 796,-231 796,-250"/>
<text text-anchor="middle" x="760" y="-238" font-family="Helvetica,sans-Serif" font-size="10.00">thorin/def.h</text>
</a>
</g>
</g>
<!-- Node4&#45;&gt;Node6 -->
<g id="edge5" class="edge">
<title>Node4&#45;&gt;Node6</title>
<path fill="none" stroke="#63b8ff" d="M843.93,-285.98C828.14,-277.61 803.78,-264.7 785.37,-254.95"/>
<polygon fill="#63b8ff" stroke="#63b8ff" points="786.83,-251.76 776.36,-250.17 783.56,-257.95 786.83,-251.76"/>
</g>
<!-- Node7 -->
<g id="node7" class="node">
<title>Node7</title>
<g id="a_node7"><a xlink:title=" ">
<polygon fill="#e0e0e0" stroke="#999999" points="788,-195 732,-195 732,-176 788,-176 788,-195"/>
<text text-anchor="middle" x="760" y="-183" font-family="Helvetica,sans-Serif" font-size="10.00">optional</text>
</a>
</g>
</g>
<!-- Node6&#45;&gt;Node7 -->
<g id="edge6" class="edge">
<title>Node6&#45;&gt;Node7</title>
<path fill="none" stroke="#63b8ff" d="M760,-230.75C760,-223.8 760,-213.85 760,-205.13"/>
<polygon fill="#63b8ff" stroke="#63b8ff" points="763.5,-205.09 760,-195.09 756.5,-205.09 763.5,-205.09"/>
</g>
<!-- Node8 -->
<g id="node8" class="node">
<title>Node8</title>
<g id="a_node8"><a xlink:title=" ">
<polygon fill="#e0e0e0" stroke="#999999" points="1087.5,-74 1040.5,-74 1040.5,-55 1087.5,-55 1087.5,-74"/>
<text text-anchor="middle" x="1064" y="-62" font-family="Helvetica,sans-Serif" font-size="10.00">vector</text>
</a>
</g>
</g>
<!-- Node6&#45;&gt;Node8 -->
<g id="edge7" class="edge">
<title>Node6&#45;&gt;Node8</title>
<path fill="none" stroke="#63b8ff" d="M796.38,-235.37C852.11,-227.14 958.58,-203.64 1020,-140 1036.09,-123.33 1048.76,-99.71 1056.29,-83.56"/>
<polygon fill="#63b8ff" stroke="#63b8ff" points="1059.6,-84.73 1060.49,-74.18 1053.21,-81.88 1059.6,-84.73"/>
</g>
<!-- Node9 -->
<g id="node9" class="node">
<title>Node9</title>
<g id="a_node9"><a xlink:href="debug_8h.html" target="_top" xlink:title=" ">
<polygon fill="white" stroke="#666666" points="497.5,-195 410.5,-195 410.5,-176 497.5,-176 497.5,-195"/>
<text text-anchor="middle" x="454" y="-183" font-family="Helvetica,sans-Serif" font-size="10.00">thorin/debug.h</text>
</a>
</g>
</g>
<!-- Node6&#45;&gt;Node9 -->
<g id="edge8" class="edge">
<title>Node6&#45;&gt;Node9</title>
<path fill="none" stroke="#63b8ff" d="M724,-233.26C670.57,-224.01 569.93,-206.58 507.76,-195.81"/>
<polygon fill="#63b8ff" stroke="#63b8ff" points="508.2,-192.33 497.75,-194.08 507,-199.23 508.2,-192.33"/>
</g>
<!-- Node13 -->
<g id="node13" class="node">
<title>Node13</title>
<g id="a_node13"><a xlink:href="print_8h.html" target="_top" xlink:title=" ">
<polygon fill="white" stroke="#666666" points="744,-134.5 646,-134.5 646,-115.5 744,-115.5 744,-134.5"/>
<text text-anchor="middle" x="695" y="-122.5" font-family="Helvetica,sans-Serif" font-size="10.00">thorin/util/print.h</text>
</a>
</g>
</g>
<!-- Node6&#45;&gt;Node13 -->
<g id="edge39" class="edge">
<title>Node6&#45;&gt;Node13</title>
<path fill="none" stroke="#63b8ff" d="M751.47,-230.92C743.34,-222.38 731.16,-208.62 723,-195 713.37,-178.91 705.66,-158.91 700.79,-144.59"/>
<polygon fill="#63b8ff" stroke="#63b8ff" points="704.06,-143.33 697.64,-134.9 697.41,-145.5 704.06,-143.33"/>
</g>
<!-- Node21 -->
<g id="node21" class="node">
<title>Node21</title>
<g id="a_node21"><a xlink:href="array_8h.html" target="_top" xlink:title=" ">
<polygon fill="#fff0f0" stroke="red" points="1011,-134.5 911,-134.5 911,-115.5 1011,-115.5 1011,-134.5"/>
<text text-anchor="middle" x="961" y="-122.5" font-family="Helvetica,sans-Serif" font-size="10.00">thorin/util/array.h</text>
</a>
</g>
</g>
<!-- Node6&#45;&gt;Node21 -->
<g id="edge21" class="edge">
<title>Node6&#45;&gt;Node21</title>
<path fill="none" stroke="#63b8ff" d="M796.13,-235.55C828.66,-230.53 876.52,-219.37 911,-195 929.63,-181.83 943.96,-159.49 952.41,-143.8"/>
<polygon fill="#63b8ff" stroke="#63b8ff" points="955.67,-145.12 957.1,-134.62 949.43,-141.94 955.67,-145.12"/>
</g>
<!-- Node28 -->
<g id="node23" class="node">
<title>Node28</title>
<g id="a_node23"><a xlink:href="cast_8h.html" target="_top" xlink:title=" ">
<polygon fill="#fff0f0" stroke="red" points="902,-195 806,-195 806,-176 902,-176 902,-195"/>
<text text-anchor="middle" x="854" y="-183" font-family="Helvetica,sans-Serif" font-size="10.00">thorin/util/cast.h</text>
</a>
</g>
</g>
<!-- Node6&#45;&gt;Node28 -->
<g id="edge27" class="edge">
<title>Node6&#45;&gt;Node28</title>
<path fill="none" stroke="#63b8ff" d="M775.1,-230.98C789.82,-222.69 812.42,-209.94 829.67,-200.22"/>
<polygon fill="#63b8ff" stroke="#63b8ff" points="831.63,-203.13 838.62,-195.17 828.19,-197.03 831.63,-203.13"/>
</g>
<!-- Node29 -->
<g id="node24" class="node">
<title>Node29</title>
<g id="a_node24"><a xlink:href="container_8h.html" target="_top" xlink:title=" ">
<polygon fill="#fff0f0" stroke="red" points="675.5,-195 554.5,-195 554.5,-176 675.5,-176 675.5,-195"/>
<text text-anchor="middle" x="615" y="-183" font-family="Helvetica,sans-Serif" font-size="10.00">thorin/util/container.h</text>
</a>
</g>
</g>
<!-- Node6&#45;&gt;Node29 -->
<g id="edge29" class="edge">
<title>Node6&#45;&gt;Node29</title>
<path fill="none" stroke="#63b8ff" d="M736.7,-230.98C712.75,-222.23 675.22,-208.51 648.17,-198.62"/>
<polygon fill="#63b8ff" stroke="#63b8ff" points="649.31,-195.32 638.72,-195.17 646.91,-201.89 649.31,-195.32"/>
</g>
<!-- Node34 -->
<g id="node25" class="node">
<title>Node34</title>
<g id="a_node25"><a xlink:href="hash_8h.html" target="_top" xlink:title=" ">
<polygon fill="white" stroke="#666666" points="1192.5,-134.5 1093.5,-134.5 1093.5,-115.5 1192.5,-115.5 1192.5,-134.5"/>
<text text-anchor="middle" x="1143" y="-122.5" font-family="Helvetica,sans-Serif" font-size="10.00">thorin/util/hash.h</text>
</a>
</g>
</g>
<!-- Node6&#45;&gt;Node34 -->
<g id="edge38" class="edge">
<title>Node6&#45;&gt;Node34</title>
<path fill="none" stroke="#63b8ff" d="M796.24,-234.78C874.43,-224.5 1052.9,-200.62 1065,-195 1091.53,-182.68 1115.68,-158.37 1129.87,-142.15"/>
<polygon fill="#63b8ff" stroke="#63b8ff" points="1132.54,-144.4 1136.33,-134.51 1127.2,-139.88 1132.54,-144.4"/>
</g>
<!-- Node10 -->
<g id="node10" class="node">
<title>Node10</title>
<g id="a_node10"><a xlink:title=" ">
<polygon fill="#e0e0e0" stroke="#999999" points="339,-74 295,-74 295,-55 339,-55 339,-74"/>
<text text-anchor="middle" x="317" y="-62" font-family="Helvetica,sans-Serif" font-size="10.00">string</text>
</a>
</g>
</g>
<!-- Node9&#45;&gt;Node10 -->
<g id="edge9" class="edge">
<title>Node9&#45;&gt;Node10</title>
<path fill="none" stroke="#63b8ff" d="M440.97,-175.81C428.34,-167.2 408.8,-153.39 393,-140 370.67,-121.08 346.88,-97.06 331.98,-81.48"/>
<polygon fill="#63b8ff" stroke="#63b8ff" points="334.48,-79.03 325.06,-74.18 329.4,-83.85 334.48,-79.03"/>
</g>
<!-- Node11 -->
<g id="node11" class="node">
<title>Node11</title>
<g id="a_node11"><a xlink:title=" ">
<polygon fill="#e0e0e0" stroke="#999999" points="506,-140 402,-140 402,-110 506,-110 506,-140"/>
<text text-anchor="start" x="410" y="-128" font-family="Helvetica,sans-Serif" font-size="10.00">absl/container/flat</text>
<text text-anchor="middle" x="454" y="-117" font-family="Helvetica,sans-Serif" font-size="10.00">_hash_map.h</text>
</a>
</g>
</g>
<!-- Node9&#45;&gt;Node11 -->
<g id="edge10" class="edge">
<title>Node9&#45;&gt;Node11</title>
<path fill="none" stroke="#63b8ff" d="M454,-175.87C454,-169.11 454,-159.35 454,-150.26"/>
<polygon fill="#63b8ff" stroke="#63b8ff" points="457.5,-150.11 454,-140.11 450.5,-150.11 457.5,-150.11"/>
</g>
<!-- Node12 -->
<g id="node12" class="node">
<title>Node12</title>
<g id="a_node12"><a xlink:title=" ">
<polygon fill="#e0e0e0" stroke="#999999" points="628,-140 524,-140 524,-110 628,-110 628,-140"/>
<text text-anchor="start" x="532" y="-128" font-family="Helvetica,sans-Serif" font-size="10.00">absl/container/flat</text>
<text text-anchor="middle" x="576" y="-117" font-family="Helvetica,sans-Serif" font-size="10.00">_hash_set.h</text>
</a>
</g>
</g>
<!-- Node9&#45;&gt;Node12 -->
<g id="edge11" class="edge">
<title>Node9&#45;&gt;Node12</title>
<path fill="none" stroke="#63b8ff" d="M471.74,-175.99C488.86,-167.79 515.34,-155.09 537.32,-144.55"/>
<polygon fill="#63b8ff" stroke="#63b8ff" points="538.93,-147.66 546.43,-140.18 535.9,-141.35 538.93,-147.66"/>
</g>
<!-- Node9&#45;&gt;Node13 -->
<g id="edge12" class="edge">
<title>Node9&#45;&gt;Node13</title>
<path fill="none" stroke="#63b8ff" d="M489.04,-175.99C531.61,-165.66 603.49,-148.21 650.09,-136.9"/>
<polygon fill="#63b8ff" stroke="#63b8ff" points="651.02,-140.28 659.91,-134.52 649.37,-133.47 651.02,-140.28"/>
</g>
<!-- Node13&#45;&gt;Node10 -->
<g id="edge18" class="edge">
<title>Node13&#45;&gt;Node10</title>
<path fill="none" stroke="#63b8ff" d="M662,-115.44C653.86,-113.49 645.14,-111.54 637,-110 532.47,-90.17 407.15,-75.29 349.24,-68.92"/>
<polygon fill="#63b8ff" stroke="#63b8ff" points="349.56,-65.43 339.24,-67.83 348.8,-72.39 349.56,-65.43"/>
</g>
<!-- Node14 -->
<g id="node14" class="node">
<title>Node14</title>
<g id="a_node14"><a xlink:title=" ">
<polygon fill="#e0e0e0" stroke="#999999" points="945.5,-74 880.5,-74 880.5,-55 945.5,-55 945.5,-74"/>
<text text-anchor="middle" x="913" y="-62" font-family="Helvetica,sans-Serif" font-size="10.00">functional</text>
</a>
</g>
</g>
<!-- Node13&#45;&gt;Node14 -->
<g id="edge13" class="edge">
<title>Node13&#45;&gt;Node14</title>
<path fill="none" stroke="#63b8ff" d="M726.7,-115.49C764.96,-105.23 829.41,-87.93 871.58,-76.62"/>
<polygon fill="#63b8ff" stroke="#63b8ff" points="872.51,-79.99 881.26,-74.02 870.7,-73.23 872.51,-79.99"/>
</g>
<!-- Node15 -->
<g id="node15" class="node">
<title>Node15</title>
<g id="a_node15"><a xlink:title=" ">
<polygon fill="#e0e0e0" stroke="#999999" points="718,-74 658,-74 658,-55 718,-55 718,-74"/>
<text text-anchor="middle" x="688" y="-62" font-family="Helvetica,sans-Serif" font-size="10.00">iostream</text>
</a>
</g>
</g>
<!-- Node13&#45;&gt;Node15 -->
<g id="edge14" class="edge">
<title>Node13&#45;&gt;Node15</title>
<path fill="none" stroke="#63b8ff" d="M693.97,-115.37C693,-107.25 691.51,-94.81 690.26,-84.39"/>
<polygon fill="#63b8ff" stroke="#63b8ff" points="693.7,-83.68 689.04,-74.17 686.75,-84.51 693.7,-83.68"/>
</g>
<!-- Node16 -->
<g id="node16" class="node">
<title>Node16</title>
<g id="a_node16"><a xlink:title=" ">
<polygon fill="#e0e0e0" stroke="#999999" points="921.5,-19 864.5,-19 864.5,0 921.5,0 921.5,-19"/>
<text text-anchor="middle" x="893" y="-7" font-family="Helvetica,sans-Serif" font-size="10.00">ostream</text>
</a>
</g>
</g>
<!-- Node13&#45;&gt;Node16 -->
<g id="edge15" class="edge">
<title>Node13&#45;&gt;Node16</title>
<path fill="none" stroke="#63b8ff" d="M707.36,-115.47C727.15,-101.97 767.35,-75.12 803,-55 823.24,-43.58 846.8,-31.98 864.74,-23.5"/>
<polygon fill="#63b8ff" stroke="#63b8ff" points="866.51,-26.53 874.07,-19.12 863.53,-20.2 866.51,-26.53"/>
</g>
<!-- Node17 -->
<g id="node17" class="node">
<title>Node17</title>
<g id="a_node17"><a xlink:title=" ">
<polygon fill="#e0e0e0" stroke="#999999" points="862,-74 812,-74 812,-55 862,-55 862,-74"/>
<text text-anchor="middle" x="837" y="-62" font-family="Helvetica,sans-Serif" font-size="10.00">ranges</text>
</a>
</g>
</g>
<!-- Node13&#45;&gt;Node17 -->
<g id="edge16" class="edge">
<title>Node13&#45;&gt;Node17</title>
<path fill="none" stroke="#63b8ff" d="M715.65,-115.49C739.63,-105.62 779.39,-89.23 806.83,-77.93"/>
<polygon fill="#63b8ff" stroke="#63b8ff" points="808.41,-81.06 816.33,-74.02 805.75,-74.59 808.41,-81.06"/>
</g>
<!-- Node18 -->
<g id="node18" class="node">
<title>Node18</title>
<g id="a_node18"><a xlink:title=" ">
<polygon fill="#e0e0e0" stroke="#999999" points="640,-74 584,-74 584,-55 640,-55 640,-74"/>
<text text-anchor="middle" x="612" y="-62" font-family="Helvetica,sans-Serif" font-size="10.00">sstream</text>
</a>
</g>
</g>
<!-- Node13&#45;&gt;Node18 -->
<g id="edge17" class="edge">
<title>Node13&#45;&gt;Node18</title>
<path fill="none" stroke="#63b8ff" d="M682.75,-115.37C669.64,-106.12 648.58,-91.28 632.85,-80.19"/>
<polygon fill="#63b8ff" stroke="#63b8ff" points="634.49,-77.07 624.3,-74.17 630.45,-82.79 634.49,-77.07"/>
</g>
<!-- Node13&#45;&gt;Node19 -->
<g id="edge19" class="edge">
<title>Node13&#45;&gt;Node19</title>
<path fill="none" stroke="#63b8ff" d="M668.54,-115.49C637.13,-105.4 584.6,-88.51 549.38,-77.19"/>
<polygon fill="#63b8ff" stroke="#63b8ff" points="550.09,-73.74 539.5,-74.02 547.95,-80.41 550.09,-73.74"/>
</g>
<!-- Node20 -->
<g id="node20" class="node">
<title>Node20</title>
<g id="a_node20"><a xlink:title=" ">
<polygon fill="#e0e0e0" stroke="#999999" points="772,-19 720,-19 720,0 772,0 772,-19"/>
<text text-anchor="middle" x="746" y="-7" font-family="Helvetica,sans-Serif" font-size="10.00">cassert</text>
</a>
</g>
</g>
<!-- Node19&#45;&gt;Node20 -->
<g id="edge20" class="edge">
<title>Node19&#45;&gt;Node20</title>
<path fill="none" stroke="#63b8ff" d="M550.44,-54.98C594.38,-44.99 666.74,-28.53 710.04,-18.68"/>
<polygon fill="#63b8ff" stroke="#63b8ff" points="710.89,-22.08 719.86,-16.45 709.34,-15.25 710.89,-22.08"/>
</g>
<!-- Node21&#45;&gt;Node8 -->
<g id="edge26" class="edge">
<title>Node21&#45;&gt;Node8</title>
<path fill="none" stroke="#63b8ff" d="M976.2,-115.37C993.01,-105.82 1020.32,-90.31 1040.02,-79.12"/>
<polygon fill="#63b8ff" stroke="#63b8ff" points="1041.77,-82.15 1048.74,-74.17 1038.32,-76.06 1041.77,-82.15"/>
</g>
<!-- Node21&#45;&gt;Node14 -->
<g id="edge23" class="edge">
<title>Node21&#45;&gt;Node14</title>
<path fill="none" stroke="#63b8ff" d="M953.92,-115.37C946.76,-106.64 935.51,-92.93 926.61,-82.09"/>
<polygon fill="#63b8ff" stroke="#63b8ff" points="929.16,-79.68 920.11,-74.17 923.75,-84.12 929.16,-79.68"/>
</g>
<!-- Node21&#45;&gt;Node17 -->
<g id="edge24" class="edge">
<title>Node21&#45;&gt;Node17</title>
<path fill="none" stroke="#63b8ff" d="M942.97,-115.49C922.31,-105.75 888.22,-89.66 864.3,-78.38"/>
<polygon fill="#63b8ff" stroke="#63b8ff" points="865.59,-75.12 855.05,-74.02 862.6,-81.45 865.59,-75.12"/>
</g>
<!-- Node21&#45;&gt;Node20 -->
<g id="edge22" class="edge">
<title>Node21&#45;&gt;Node20</title>
<path fill="none" stroke="#63b8ff" d="M963.22,-115.1C966.27,-100.59 969.81,-71.76 955,-55 932.6,-29.66 836.08,-17.84 782.39,-13.14"/>
<polygon fill="#63b8ff" stroke="#63b8ff" points="782.51,-9.64 772.25,-12.29 781.93,-16.61 782.51,-9.64"/>
</g>
<!-- Node27 -->
<g id="node22" class="node">
<title>Node27</title>
<g id="a_node22"><a xlink:title=" ">
<polygon fill="#e0e0e0" stroke="#999999" points="1064.5,-19 995.5,-19 995.5,0 1064.5,0 1064.5,-19"/>
<text text-anchor="middle" x="1030" y="-7" font-family="Helvetica,sans-Serif" font-size="10.00">type_traits</text>
</a>
</g>
</g>
<!-- Node21&#45;&gt;Node27 -->
<g id="edge25" class="edge">
<title>Node21&#45;&gt;Node27</title>
<path fill="none" stroke="#63b8ff" d="M966.19,-115.47C977.47,-96.9 1004.46,-52.51 1019.47,-27.82"/>
<polygon fill="#63b8ff" stroke="#63b8ff" points="1022.55,-29.49 1024.75,-19.13 1016.57,-25.86 1022.55,-29.49"/>
</g>
<!-- Node28&#45;&gt;Node20 -->
<g id="edge28" class="edge">
<title>Node28&#45;&gt;Node20</title>
<path fill="none" stroke="#63b8ff" d="M848.5,-175.63C831.45,-148.17 779.32,-64.18 756.68,-27.71"/>
<polygon fill="#63b8ff" stroke="#63b8ff" points="759.61,-25.79 751.36,-19.14 753.66,-29.49 759.61,-25.79"/>
</g>
<!-- Node29&#45;&gt;Node11 -->
<g id="edge30" class="edge">
<title>Node29&#45;&gt;Node11</title>
<path fill="none" stroke="#63b8ff" d="M591.59,-175.99C568.32,-167.54 531.93,-154.32 502.42,-143.59"/>
<polygon fill="#63b8ff" stroke="#63b8ff" points="503.3,-140.19 492.71,-140.06 500.91,-146.77 503.3,-140.19"/>
</g>
<!-- Node29&#45;&gt;Node12 -->
<g id="edge31" class="edge">
<title>Node29&#45;&gt;Node12</title>
<path fill="none" stroke="#63b8ff" d="M609.25,-175.87C604.44,-168.67 597.38,-158.07 591,-148.49"/>
<polygon fill="#63b8ff" stroke="#63b8ff" points="593.87,-146.49 585.41,-140.11 588.04,-150.38 593.87,-146.49"/>
</g>
<!-- Node29&#45;&gt;Node34 -->
<g id="edge32" class="edge">
<title>Node29&#45;&gt;Node34</title>
<path fill="none" stroke="#63b8ff" d="M675.73,-177.9C754.95,-169.28 897.86,-153.66 1020,-140 1040.65,-137.69 1063.24,-135.13 1083.36,-132.84"/>
<polygon fill="#63b8ff" stroke="#63b8ff" points="1083.79,-136.31 1093.33,-131.7 1083,-129.35 1083.79,-136.31"/>
</g>
<!-- Node35 -->
<g id="node26" class="node">
<title>Node35</title>
<g id="a_node26"><a xlink:href="types_8h.html" target="_top" xlink:title=" ">
<polygon fill="#fff0f0" stroke="red" points="1208.5,-74 1105.5,-74 1105.5,-55 1208.5,-55 1208.5,-74"/>
<text text-anchor="middle" x="1157" y="-62" font-family="Helvetica,sans-Serif" font-size="10.00">thorin/util/types.h</text>
</a>
</g>
</g>
<!-- Node34&#45;&gt;Node35 -->
<g id="edge33" class="edge">
<title>Node34&#45;&gt;Node35</title>
<path fill="none" stroke="#63b8ff" d="M1145.07,-115.37C1147.03,-107.16 1150.05,-94.54 1152.56,-84.05"/>
<polygon fill="#63b8ff" stroke="#63b8ff" points="1156,-84.71 1154.93,-74.17 1149.19,-83.08 1156,-84.71"/>
</g>
<!-- Node35&#45;&gt;Node16 -->
<g id="edge36" class="edge">
<title>Node35&#45;&gt;Node16</title>
<path fill="none" stroke="#63b8ff" d="M1114.58,-54.98C1064.1,-44.85 980.51,-28.07 931.72,-18.27"/>
<polygon fill="#63b8ff" stroke="#63b8ff" points="932.35,-14.83 921.86,-16.29 930.97,-21.69 932.35,-14.83"/>
</g>
<!-- Node35&#45;&gt;Node27 -->
<g id="edge37" class="edge">
<title>Node35&#45;&gt;Node27</title>
<path fill="none" stroke="#63b8ff" d="M1136.6,-54.98C1115.98,-46.38 1083.89,-32.99 1060.31,-23.15"/>
<polygon fill="#63b8ff" stroke="#63b8ff" points="1061.35,-19.79 1050.78,-19.17 1058.66,-26.25 1061.35,-19.79"/>
</g>
<!-- Node36 -->
<g id="node27" class="node">
<title>Node36</title>
<g id="a_node27"><a xlink:title=" ">
<polygon fill="#e0e0e0" stroke="#999999" points="1214,-19 1164,-19 1164,0 1214,0 1214,-19"/>
<text text-anchor="middle" x="1189" y="-7" font-family="Helvetica,sans-Serif" font-size="10.00">cstdint</text>
</a>
</g>
</g>
<!-- Node35&#45;&gt;Node36 -->
<g id="edge34" class="edge">
<title>Node35&#45;&gt;Node36</title>
<path fill="none" stroke="#63b8ff" d="M1162.28,-54.75C1166.71,-47.42 1173.16,-36.73 1178.62,-27.7"/>
<polygon fill="#63b8ff" stroke="#63b8ff" points="1181.64,-29.46 1183.81,-19.09 1175.65,-25.84 1181.64,-29.46"/>
</g>
<!-- Node37 -->
<g id="node28" class="node">
<title>Node37</title>
<g id="a_node28"><a xlink:title=" ">
<polygon fill="#e0e0e0" stroke="#999999" points="1146,-19 1102,-19 1102,0 1146,0 1146,-19"/>
<text text-anchor="middle" x="1124" y="-7" font-family="Helvetica,sans-Serif" font-size="10.00">limits</text>
</a>
</g>
</g>
<!-- Node35&#45;&gt;Node37 -->
<g id="edge35" class="edge">
<title>Node35&#45;&gt;Node37</title>
<path fill="none" stroke="#63b8ff" d="M1151.55,-54.75C1146.99,-47.42 1140.33,-36.73 1134.71,-27.7"/>
<polygon fill="#63b8ff" stroke="#63b8ff" points="1137.6,-25.73 1129.35,-19.09 1131.66,-29.43 1137.6,-25.73"/>
</g>
<!-- Node40&#45;&gt;Node3 -->
<g id="edge47" class="edge">
<title>Node40&#45;&gt;Node3</title>
<path fill="none" stroke="#63b8ff" d="M714.75,-413.08C636.72,-408.18 464.92,-395.44 322,-371 316.84,-370.12 311.45,-369.04 306.13,-367.87"/>
<polygon fill="#63b8ff" stroke="#63b8ff" points="306.58,-364.38 296.05,-365.55 305.01,-371.21 306.58,-364.38"/>
</g>
<!-- Node40&#45;&gt;Node9 -->
<g id="edge52" class="edge">
<title>Node40&#45;&gt;Node9</title>
<path fill="none" stroke="#63b8ff" d="M714.86,-414.38C643.77,-411.64 504.18,-402.31 468,-371 419.34,-328.88 415.79,-293.54 431,-231 433.31,-221.51 438.02,-211.78 442.58,-203.85"/>
<polygon fill="#63b8ff" stroke="#63b8ff" points="445.64,-205.55 447.9,-195.2 439.68,-201.89 445.64,-205.55"/>
</g>
<!-- Node40&#45;&gt;Node10 -->
<g id="edge43" class="edge">
<title>Node40&#45;&gt;Node10</title>
<path fill="none" stroke="#63b8ff" d="M714.97,-414.81C632.71,-412.71 454.15,-404.35 404,-371 307.11,-306.56 310.83,-140.82 315.14,-84.53"/>
<polygon fill="#63b8ff" stroke="#63b8ff" points="318.65,-84.52 316.03,-74.26 311.68,-83.92 318.65,-84.52"/>
</g>
<!-- Node40&#45;&gt;Node18 -->
<g id="edge42" class="edge">
<title>Node40&#45;&gt;Node18</title>
<path fill="none" stroke="#63b8ff" d="M714.84,-415.27C637.51,-413.97 477.23,-406.89 437,-371 349.22,-292.69 318.32,-200.89 393,-110 443.35,-48.72 490.63,-87.97 573.7,-74"/>
<polygon fill="#63b8ff" stroke="#63b8ff" points="574.57,-77.4 583.74,-72.09 573.26,-70.53 574.57,-77.4"/>
</g>
<!-- Node40&#45;&gt;Node34 -->
<g id="edge58" class="edge">
<title>Node40&#45;&gt;Node34</title>
<path fill="none" stroke="#63b8ff" d="M799.24,-416.02C894.68,-416.44 1123.5,-412.91 1186,-371 1217.21,-350.07 1226,-334.08 1226,-296.5 1226,-296.5 1226,-296.5 1226,-239.5 1226,-197.35 1188.25,-160.43 1163.67,-140.86"/>
<polygon fill="#63b8ff" stroke="#63b8ff" points="1165.67,-137.98 1155.61,-134.68 1161.41,-143.54 1165.67,-137.98"/>
</g>
<!-- Node41 -->
<g id="node30" class="node">
<title>Node41</title>
<g id="a_node30"><a xlink:title=" ">
<polygon fill="#e0e0e0" stroke="#999999" points="693.5,-365.5 620.5,-365.5 620.5,-346.5 693.5,-346.5 693.5,-365.5"/>
<text text-anchor="middle" x="657" y="-353.5" font-family="Helvetica,sans-Serif" font-size="10.00">string_view</text>
</a>
</g>
</g>
<!-- Node40&#45;&gt;Node41 -->
<g id="edge44" class="edge">
<title>Node40&#45;&gt;Node41</title>
<path fill="none" stroke="#63b8ff" d="M742.24,-406.87C726,-397.36 699.65,-381.95 680.54,-370.77"/>
<polygon fill="#63b8ff" stroke="#63b8ff" points="682.21,-367.7 671.82,-365.67 678.68,-373.74 682.21,-367.7"/>
</g>
<!-- Node42 -->
<g id="node31" class="node">
<title>Node42</title>
<g id="a_node31"><a xlink:title=" ">
<polygon fill="#e0e0e0" stroke="#999999" points="826,-371 712,-371 712,-341 826,-341 826,-371"/>
<text text-anchor="start" x="720" y="-359" font-family="Helvetica,sans-Serif" font-size="10.00">absl/container/btree</text>
<text text-anchor="middle" x="769" y="-348" font-family="Helvetica,sans-Serif" font-size="10.00">_map.h</text>
</a>
</g>
</g>
<!-- Node40&#45;&gt;Node42 -->
<g id="edge45" class="edge">
<title>Node40&#45;&gt;Node42</title>
<path fill="none" stroke="#63b8ff" d="M758.77,-406.87C760.17,-400.03 762.2,-390.14 764.08,-380.97"/>
<polygon fill="#63b8ff" stroke="#63b8ff" points="767.52,-381.61 766.1,-371.11 760.67,-380.21 767.52,-381.61"/>
</g>
<!-- Node43 -->
<g id="node32" class="node">
<title>Node43</title>
<g id="a_node32"><a xlink:title=" ">
<polygon fill="#e0e0e0" stroke="#999999" points="958,-371 844,-371 844,-341 958,-341 958,-371"/>
<text text-anchor="start" x="852" y="-359" font-family="Helvetica,sans-Serif" font-size="10.00">absl/container/btree</text>
<text text-anchor="middle" x="901" y="-348" font-family="Helvetica,sans-Serif" font-size="10.00">_set.h</text>
</a>
</g>
</g>
<!-- Node40&#45;&gt;Node43 -->
<g id="edge46" class="edge">
<title>Node40&#45;&gt;Node43</title>
<path fill="none" stroke="#63b8ff" d="M777.94,-406.99C798.57,-398.61 830.73,-385.55 857,-374.87"/>
<polygon fill="#63b8ff" stroke="#63b8ff" points="858.43,-378.07 866.38,-371.06 855.8,-371.59 858.43,-378.07"/>
</g>
<!-- Node44 -->
<g id="node33" class="node">
<title>Node44</title>
<g id="a_node33"><a xlink:href="check_8h.html" target="_top" xlink:title=" ">
<polygon fill="white" stroke="#666666" points="602,-365.5 516,-365.5 516,-346.5 602,-346.5 602,-365.5"/>
<text text-anchor="middle" x="559" y="-353.5" font-family="Helvetica,sans-Serif" font-size="10.00">thorin/check.h</text>
</a>
</g>
</g>
<!-- Node40&#45;&gt;Node44 -->
<g id="edge48" class="edge">
<title>Node40&#45;&gt;Node44</title>
<path fill="none" stroke="#63b8ff" d="M728.21,-406.99C693.75,-396.81 635.91,-379.72 597.6,-368.4"/>
<polygon fill="#63b8ff" stroke="#63b8ff" points="598.41,-364.99 587.83,-365.52 596.42,-371.71 598.41,-364.99"/>
</g>
<!-- Node46 -->
<g id="node35" class="node">
<title>Node46</title>
<g id="a_node35"><a xlink:title=" ">
<polygon fill="#e0e0e0" stroke="#999999" points="1062,-365.5 976,-365.5 976,-346.5 1062,-346.5 1062,-365.5"/>
<text text-anchor="middle" x="1019" y="-353.5" font-family="Helvetica,sans-Serif" font-size="10.00">thorin/config.h</text>
</a>
</g>
</g>
<!-- Node40&#45;&gt;Node46 -->
<g id="edge51" class="edge">
<title>Node40&#45;&gt;Node46</title>
<path fill="none" stroke="#63b8ff" d="M799.39,-407.22C841.91,-398.75 909.2,-384.89 967,-371 970.67,-370.12 974.48,-369.17 978.28,-368.19"/>
<polygon fill="#63b8ff" stroke="#63b8ff" points="979.49,-371.49 988.27,-365.57 977.71,-364.72 979.49,-371.49"/>
</g>
<!-- Node47 -->
<g id="node36" class="node">
<title>Node47</title>
<g id="a_node36"><a xlink:href="flags_8h.html" target="_top" xlink:title=" ">
<polygon fill="white" stroke="#666666" points="1160,-365.5 1080,-365.5 1080,-346.5 1160,-346.5 1160,-365.5"/>
<text text-anchor="middle" x="1120" y="-353.5" font-family="Helvetica,sans-Serif" font-size="10.00">thorin/flags.h</text>
</a>
</g>
</g>
<!-- Node40&#45;&gt;Node47 -->
<g id="edge53" class="edge">
<title>Node40&#45;&gt;Node47</title>
<path fill="none" stroke="#63b8ff" d="M799.22,-411.38C859.81,-405.05 974.74,-391.47 1071,-371 1074.88,-370.17 1078.91,-369.21 1082.9,-368.18"/>
<polygon fill="#63b8ff" stroke="#63b8ff" points="1083.96,-371.52 1092.7,-365.52 1082.13,-364.76 1083.96,-371.52"/>
</g>
<!-- Node48 -->
<g id="node37" class="node">
<title>Node48</title>
<g id="a_node37"><a xlink:href="lattice_8h.html" target="_top" xlink:title=" ">
<polygon fill="white" stroke="#666666" points="804,-305 716,-305 716,-286 804,-286 804,-305"/>
<text text-anchor="middle" x="760" y="-293" font-family="Helvetica,sans-Serif" font-size="10.00">thorin/lattice.h</text>
</a>
</g>
</g>
<!-- Node40&#45;&gt;Node48 -->
<g id="edge54" class="edge">
<title>Node40&#45;&gt;Node48</title>
<path fill="none" stroke="#63b8ff" d="M799.16,-414.08C899.23,-410.26 1144.58,-398.2 1169,-371 1177.91,-361.08 1177.94,-350.89 1169,-341 1143.8,-313.12 883.34,-310.38 814.21,-304.79"/>
<polygon fill="#63b8ff" stroke="#63b8ff" points="814.52,-301.31 804.22,-303.79 813.82,-308.27 814.52,-301.31"/>
</g>
<!-- Node49 -->
<g id="node38" class="node">
<title>Node49</title>
<g id="a_node38"><a xlink:href="tuple_8h.html" target="_top" xlink:title=" ">
<polygon fill="white" stroke="#666666" points="560,-305 478,-305 478,-286 560,-286 560,-305"/>
<text text-anchor="middle" x="519" y="-293" font-family="Helvetica,sans-Serif" font-size="10.00">thorin/tuple.h</text>
</a>
</g>
</g>
<!-- Node40&#45;&gt;Node49 -->
<g id="edge56" class="edge">
<title>Node40&#45;&gt;Node49</title>
<path fill="none" stroke="#63b8ff" d="M714.98,-414.3C650.8,-411.48 533.05,-402.09 507,-371 493.9,-355.36 501.17,-331.19 508.88,-314.65"/>
<polygon fill="#63b8ff" stroke="#63b8ff" points="512.13,-315.98 513.56,-305.48 505.9,-312.8 512.13,-315.98"/>
</g>
<!-- Node50 -->
<g id="node39" class="node">
<title>Node50</title>
<g id="a_node39"><a xlink:href="log_8h.html" target="_top" xlink:title=" ">
<polygon fill="white" stroke="#666666" points="531.5,-250 440.5,-250 440.5,-231 531.5,-231 531.5,-250"/>
<text text-anchor="middle" x="486" y="-238" font-family="Helvetica,sans-Serif" font-size="10.00">thorin/util/log.h</text>
</a>
</g>
</g>
<!-- Node40&#45;&gt;Node50 -->
<g id="edge59" class="edge">
<title>Node40&#45;&gt;Node50</title>
<path fill="none" stroke="#63b8ff" d="M714.77,-413.21C649.72,-408.9 529.04,-397.48 496,-371 465.07,-346.21 461.81,-324.98 469,-286 470.67,-276.95 474.1,-267.36 477.44,-259.41"/>
<polygon fill="#63b8ff" stroke="#63b8ff" points="480.73,-260.65 481.63,-250.09 474.34,-257.78 480.73,-260.65"/>
</g>
<!-- Node44&#45;&gt;Node6 -->
<g id="edge50" class="edge">
<title>Node44&#45;&gt;Node6</title>
<path fill="none" stroke="#63b8ff" d="M574.11,-346.47C608.74,-326.91 694.08,-278.72 735.99,-255.06"/>
<polygon fill="#63b8ff" stroke="#63b8ff" points="737.73,-258.09 744.72,-250.13 734.29,-252 737.73,-258.09"/>
</g>
<!-- Node45 -->
<g id="node34" class="node">
<title>Node45</title>
<g id="a_node34"><a xlink:title=" ">
<polygon fill="#e0e0e0" stroke="#999999" points="625.5,-305 578.5,-305 578.5,-286 625.5,-286 625.5,-305"/>
<text text-anchor="middle" x="602" y="-293" font-family="Helvetica,sans-Serif" font-size="10.00">deque</text>
</a>
</g>
</g>
<!-- Node44&#45;&gt;Node45 -->
<g id="edge49" class="edge">
<title>Node44&#45;&gt;Node45</title>
<path fill="none" stroke="#63b8ff" d="M565.34,-346.37C571.7,-337.73 581.64,-324.2 589.57,-313.42"/>
<polygon fill="#63b8ff" stroke="#63b8ff" points="592.53,-315.3 595.63,-305.17 586.89,-311.15 592.53,-315.3"/>
</g>
<!-- Node48&#45;&gt;Node6 -->
<g id="edge55" class="edge">
<title>Node48&#45;&gt;Node6</title>
<path fill="none" stroke="#63b8ff" d="M760,-285.75C760,-278.8 760,-268.85 760,-260.13"/>
<polygon fill="#63b8ff" stroke="#63b8ff" points="763.5,-260.09 760,-250.09 756.5,-260.09 763.5,-260.09"/>
</g>
<!-- Node49&#45;&gt;Node6 -->
<g id="edge57" class="edge">
<title>Node49&#45;&gt;Node6</title>
<path fill="none" stroke="#63b8ff" d="M557.72,-285.98C600.27,-276.63 668.59,-261.6 713.88,-251.64"/>
<polygon fill="#63b8ff" stroke="#63b8ff" points="714.73,-255.04 723.74,-249.47 713.22,-248.2 714.73,-255.04"/>
</g>
<!-- Node50&#45;&gt;Node9 -->
<g id="edge60" class="edge">
<title>Node50&#45;&gt;Node9</title>
<path fill="none" stroke="#63b8ff" d="M480.72,-230.75C476.29,-223.42 469.84,-212.73 464.38,-203.7"/>
<polygon fill="#63b8ff" stroke="#63b8ff" points="467.35,-201.84 459.19,-195.09 461.36,-205.46 467.35,-201.84"/>
</g>
<!-- Node50&#45;&gt;Node13 -->
<g id="edge61" class="edge">
<title>Node50&#45;&gt;Node13</title>
<path fill="none" stroke="#63b8ff" d="M491.85,-230.81C501.42,-217.23 521.72,-190.99 545,-176 563.17,-164.3 615.72,-148.08 653.49,-137.33"/>
<polygon fill="#63b8ff" stroke="#63b8ff" points="654.56,-140.66 663.23,-134.58 652.66,-133.93 654.56,-140.66"/>
</g>
<!-- Node51&#45;&gt;Node3 -->
<g id="edge63" class="edge">
<title>Node51&#45;&gt;Node3</title>
<path fill="none" stroke="#63b8ff" d="M468.35,-626.85C459.54,-618.48 446.76,-605.02 439,-591 424.74,-565.22 420,-556.96 420,-527.5 420,-527.5 420,-527.5 420,-470.5 420,-414.96 354.54,-383.75 308.43,-368.65"/>
<polygon fill="#63b8ff" stroke="#63b8ff" points="309.21,-365.23 298.62,-365.59 307.12,-371.91 309.21,-365.23"/>
</g>
<!-- Node52 -->
<g id="node41" class="node">
<title>Node52</title>
<g id="a_node41"><a xlink:href="dialects_8h.html" target="_top" xlink:title=" ">
<polygon fill="white" stroke="#666666" points="543.5,-591 448.5,-591 448.5,-572 543.5,-572 543.5,-591"/>
<text text-anchor="middle" x="496" y="-579" font-family="Helvetica,sans-Serif" font-size="10.00">thorin/dialects.h</text>
</a>
</g>
</g>
<!-- Node51&#45;&gt;Node52 -->
<g id="edge64" class="edge">
<title>Node51&#45;&gt;Node52</title>
<path fill="none" stroke="#63b8ff" d="M480.97,-626.75C483.36,-619.72 486.79,-609.62 489.77,-600.84"/>
<polygon fill="#63b8ff" stroke="#63b8ff" points="493.18,-601.68 493.08,-591.09 486.55,-599.43 493.18,-601.68"/>
</g>
<!-- Node52&#45;&gt;Node8 -->
<g id="edge68" class="edge">
<title>Node52&#45;&gt;Node8</title>
<path fill="none" stroke="#63b8ff" d="M543.56,-578.32C609.41,-574.37 731.6,-563.7 832,-536 1058,-473.64 1302,-530.95 1302,-296.5 1302,-296.5 1302,-296.5 1302,-184.5 1302,-129.08 1251.26,-135.4 1202,-110 1183.62,-100.52 1132,-84.88 1097.37,-74.89"/>
<polygon fill="#63b8ff" stroke="#63b8ff" points="1098.24,-71.5 1087.66,-72.11 1096.31,-78.23 1098.24,-71.5"/>
</g>
<!-- Node52&#45;&gt;Node10 -->
<g id="edge67" class="edge">
<title>Node52&#45;&gt;Node10</title>
<path fill="none" stroke="#63b8ff" d="M448.45,-572.33C354.47,-553.18 154,-496.02 154,-357 154,-357 154,-357 154,-184.5 154,-120.36 237.35,-87.1 284.85,-73.35"/>
<polygon fill="#63b8ff" stroke="#63b8ff" points="285.97,-76.68 294.68,-70.64 284.11,-69.93 285.97,-76.68"/>
</g>
<!-- Node52&#45;&gt;Node11 -->
<g id="edge76" class="edge">
<title>Node52&#45;&gt;Node11</title>
<path fill="none" stroke="#63b8ff" d="M472.5,-571.92C414.96,-549.44 267.56,-482.78 211,-371 158.58,-267.42 324.76,-180.27 408.63,-144.03"/>
<polygon fill="#63b8ff" stroke="#63b8ff" points="410.11,-147.2 417.94,-140.06 407.37,-140.76 410.11,-147.2"/>
</g>
<!-- Node53 -->
<g id="node42" class="node">
<title>Node53</title>
<g id="a_node42"><a xlink:title=" ">
<polygon fill="#e0e0e0" stroke="#999999" points="516,-536 448,-536 448,-517 516,-517 516,-536"/>
<text text-anchor="middle" x="482" y="-524" font-family="Helvetica,sans-Serif" font-size="10.00">filesystem</text>
</a>
</g>
</g>
<!-- Node52&#45;&gt;Node53 -->
<g id="edge65" class="edge">
<title>Node52&#45;&gt;Node53</title>
<path fill="none" stroke="#63b8ff" d="M493.69,-571.75C491.83,-564.72 489.16,-554.62 486.85,-545.84"/>
<polygon fill="#63b8ff" stroke="#63b8ff" points="490.21,-544.86 484.27,-536.09 483.44,-546.65 490.21,-544.86"/>
</g>
<!-- Node54 -->
<g id="node43" class="node">
<title>Node54</title>
<g id="a_node43"><a xlink:title=" ">
<polygon fill="#e0e0e0" stroke="#999999" points="592,-536 534,-536 534,-517 592,-517 592,-536"/>
<text text-anchor="middle" x="563" y="-524" font-family="Helvetica,sans-Serif" font-size="10.00">memory</text>
</a>
</g>
</g>
<!-- Node52&#45;&gt;Node54 -->
<g id="edge66" class="edge">
<title>Node52&#45;&gt;Node54</title>
<path fill="none" stroke="#63b8ff" d="M506.76,-571.98C516.77,-564.07 531.89,-552.11 543.93,-542.58"/>
<polygon fill="#63b8ff" stroke="#63b8ff" points="546.37,-545.12 552.04,-536.17 542.03,-539.63 546.37,-545.12"/>
</g>
<!-- Node55 -->
<g id="node44" class="node">
<title>Node55</title>
<g id="a_node44"><a xlink:href="emitter_8h.html" target="_top" xlink:title=" ">
<polygon fill="#fff0f0" stroke="red" points="879.5,-481 772.5,-481 772.5,-462 879.5,-462 879.5,-481"/>
<text text-anchor="middle" x="826" y="-469" font-family="Helvetica,sans-Serif" font-size="10.00">thorin/be/emitter.h</text>
</a>
</g>
</g>
<!-- Node52&#45;&gt;Node55 -->
<g id="edge69" class="edge">
<title>Node52&#45;&gt;Node55</title>
<path fill="none" stroke="#63b8ff" d="M543.79,-580.31C622.63,-578.96 775.03,-571.67 813,-536 824.91,-524.81 827.49,-505.89 827.49,-491.61"/>
<polygon fill="#63b8ff" stroke="#63b8ff" points="830.98,-491.23 827.07,-481.38 823.99,-491.51 830.98,-491.23"/>
</g>
<!-- Node63 -->
<g id="node45" class="node">
<title>Node63</title>
<g id="a_node45"><a xlink:href="pass_8h.html" target="_top" xlink:title=" ">
<polygon fill="#fff0f0" stroke="red" points="715.5,-481 610.5,-481 610.5,-462 715.5,-462 715.5,-481"/>
<text text-anchor="middle" x="663" y="-469" font-family="Helvetica,sans-Serif" font-size="10.00">thorin/pass/pass.h</text>
</a>
</g>
</g>
<!-- Node52&#45;&gt;Node63 -->
<g id="edge71" class="edge">
<title>Node52&#45;&gt;Node63</title>
<path fill="none" stroke="#63b8ff" d="M524.28,-571.94C546.33,-564.48 577.13,-552.3 601,-536 620.18,-522.9 638.26,-503.22 649.9,-489.24"/>
<polygon fill="#63b8ff" stroke="#63b8ff" points="652.69,-491.36 656.26,-481.39 647.25,-486.96 652.69,-491.36"/>
</g>
<!-- Node65 -->
<g id="node46" class="node">
<title>Node65</title>
<g id="a_node46"><a xlink:href="pipelinebuilder_8h.html" target="_top" xlink:title=" ">
<polygon fill="#fff0f0" stroke="red" points="803.5,-536 648.5,-536 648.5,-517 803.5,-517 803.5,-536"/>
<text text-anchor="middle" x="726" y="-524" font-family="Helvetica,sans-Serif" font-size="10.00">thorin/pass/pipelinebuilder.h</text>
</a>
</g>
</g>
<!-- Node52&#45;&gt;Node65 -->
<g id="edge73" class="edge">
<title>Node52&#45;&gt;Node65</title>
<path fill="none" stroke="#63b8ff" d="M532.95,-571.98C572.57,-562.86 635.59,-548.33 678.77,-538.38"/>
<polygon fill="#63b8ff" stroke="#63b8ff" points="679.8,-541.74 688.76,-536.08 678.23,-534.92 679.8,-541.74"/>
</g>
<!-- Node55&#45;&gt;Node40 -->
<g id="edge70" class="edge">
<title>Node55&#45;&gt;Node40</title>
<path fill="none" stroke="#63b8ff" d="M814.91,-461.98C804.51,-454 788.74,-441.88 776.28,-432.31"/>
<polygon fill="#63b8ff" stroke="#63b8ff" points="778.35,-429.49 768.29,-426.17 774.09,-435.04 778.35,-429.49"/>
</g>
<!-- Node63&#45;&gt;Node40 -->
<g id="edge72" class="edge">
<title>Node63&#45;&gt;Node40</title>
<path fill="none" stroke="#63b8ff" d="M678.1,-461.98C692.82,-453.69 715.42,-440.94 732.67,-431.22"/>
<polygon fill="#63b8ff" stroke="#63b8ff" points="734.63,-434.13 741.62,-426.17 731.19,-428.03 734.63,-434.13"/>
</g>
<!-- Node65&#45;&gt;Node40 -->
<g id="edge74" class="edge">
<title>Node65&#45;&gt;Node40</title>
<path fill="none" stroke="#63b8ff" d="M728.54,-516.66C733.58,-499.09 744.96,-459.45 751.7,-435.95"/>
<polygon fill="#63b8ff" stroke="#63b8ff" points="755.12,-436.74 754.51,-426.16 748.39,-434.8 755.12,-436.74"/>
</g>
<!-- Node65&#45;&gt;Node63 -->
<g id="edge75" class="edge">
<title>Node65&#45;&gt;Node63</title>
<path fill="none" stroke="#63b8ff" d="M715.88,-516.98C706.56,-509.15 692.53,-497.34 681.26,-487.86"/>
<polygon fill="#63b8ff" stroke="#63b8ff" points="683.21,-484.93 673.31,-481.17 678.71,-490.29 683.21,-484.93"/>
</g>
<!-- Node67&#45;&gt;Node3 -->
<g id="edge78" class="edge">
<title>Node67&#45;&gt;Node3</title>
<path fill="none" stroke="#63b8ff" d="M73.49,-681.98C55.69,-674.98 33.02,-663.35 19,-646 0.49,-623.09 0,-611.96 0,-582.5 0,-582.5 0,-582.5 0,-470.5 0,-380.02 132.49,-360.78 209.76,-357.24"/>
<polygon fill="#63b8ff" stroke="#63b8ff" points="209.95,-360.74 219.81,-356.86 209.69,-353.74 209.95,-360.74"/>
</g>
<!-- Node67&#45;&gt;Node40 -->
<g id="edge79" class="edge">
<title>Node67&#45;&gt;Node40</title>
<path fill="none" stroke="#63b8ff" d="M160.73,-688.76C348.64,-682.58 908,-657.86 908,-582.5 908,-582.5 908,-582.5 908,-525.5 908,-496.04 909.47,-483.19 889,-462 868.14,-440.41 836.47,-429.29 809.38,-423.57"/>
<polygon fill="#63b8ff" stroke="#63b8ff" points="809.74,-420.08 799.26,-421.63 808.42,-426.95 809.74,-420.08"/>
</g>
<!-- Node68 -->
<g id="node48" class="node">
<title>Node68</title>
<g id="a_node48"><a xlink:href="math_2autogen_8h.html" target="_top" xlink:title=" ">
<polygon fill="white" stroke="#666666" points="163.5,-646 28.5,-646 28.5,-627 163.5,-627 163.5,-646"/>
<text text-anchor="middle" x="96" y="-634" font-family="Helvetica,sans-Serif" font-size="10.00">dialects/math/autogen.h</text>
</a>
</g>
</g>
<!-- Node67&#45;&gt;Node68 -->
<g id="edge80" class="edge">
<title>Node67&#45;&gt;Node68</title>
<path fill="none" stroke="#63b8ff" d="M99.34,-681.75C98.82,-674.8 98.06,-664.85 97.41,-656.13"/>
<polygon fill="#63b8ff" stroke="#63b8ff" points="100.89,-655.8 96.65,-646.09 93.91,-656.32 100.89,-655.8"/>
</g>
<!-- Node68&#45;&gt;Node3 -->
<g id="edge81" class="edge">
<title>Node68&#45;&gt;Node3</title>
<path fill="none" stroke="#63b8ff" d="M97.35,-626.85C100.08,-608.55 106,-564.6 106,-527.5 106,-527.5 106,-527.5 106,-470.5 106,-414.53 172.2,-383.46 218.9,-368.51"/>
<polygon fill="#63b8ff" stroke="#63b8ff" points="220,-371.83 228.54,-365.56 217.96,-365.14 220,-371.83"/>
</g>
<!-- Node68&#45;&gt;Node52 -->
<g id="edge82" class="edge">
<title>Node68&#45;&gt;Node52</title>
<path fill="none" stroke="#63b8ff" d="M160.27,-626.98C237.04,-616.81 364.34,-599.94 438.16,-590.16"/>
<polygon fill="#63b8ff" stroke="#63b8ff" points="438.76,-593.62 448.21,-588.83 437.84,-586.68 438.76,-593.62"/>
</g>
<!-- Node69&#45;&gt;Node2 -->
<g id="edge87" class="edge">
<title>Node69&#45;&gt;Node2</title>
<path fill="none" stroke="#63b8ff" d="M356.3,-736.98C370.1,-728.77 391.24,-716.18 407.51,-706.49"/>
<polygon fill="#63b8ff" stroke="#63b8ff" points="409.64,-709.29 416.44,-701.17 406.06,-703.28 409.64,-709.29"/>
</g>
<!-- Node69&#45;&gt;Node3 -->
<g id="edge84" class="edge">
<title>Node69&#45;&gt;Node3</title>
<path fill="none" stroke="#63b8ff" d="M307.21,-737C262.9,-723.85 192,-693.98 192,-637.5 192,-637.5 192,-637.5 192,-525.5 192,-465.79 230.7,-403.06 251.36,-373.84"/>
<polygon fill="#63b8ff" stroke="#63b8ff" points="254.31,-375.72 257.36,-365.57 248.65,-371.61 254.31,-375.72"/>
</g>
<!-- Node69&#45;&gt;Node4 -->
<g id="edge85" class="edge">
<title>Node69&#45;&gt;Node4</title>
<path fill="none" stroke="#63b8ff" d="M402.85,-744.78C608.37,-741.56 1264,-724.48 1264,-637.5 1264,-637.5 1264,-637.5 1264,-415.5 1264,-367.56 1229.19,-361.81 1186,-341 1137.98,-317.86 986.73,-304.81 908.27,-299.44"/>
<polygon fill="#63b8ff" stroke="#63b8ff" points="908.37,-295.93 898.16,-298.76 907.91,-302.92 908.37,-295.93"/>
</g>
<!-- Node69&#45;&gt;Node40 -->
<g id="edge86" class="edge">
<title>Node69&#45;&gt;Node40</title>
<path fill="none" stroke="#63b8ff" d="M402.69,-741.63C562.72,-730.63 984,-696.1 984,-637.5 984,-637.5 984,-637.5 984,-525.5 984,-448.5 876.17,-426.33 809.14,-420"/>
<polygon fill="#63b8ff" stroke="#63b8ff" points="809.43,-416.51 799.16,-419.14 808.83,-423.48 809.43,-416.51"/>
</g>
<!-- Node70 -->
<g id="node50" class="node">
<title>Node70</title>
<g id="a_node50"><a xlink:href="mem_2autogen_8h.html" target="_top" xlink:title=" ">
<polygon fill="white" stroke="#666666" points="355.5,-646 220.5,-646 220.5,-627 355.5,-627 355.5,-646"/>
<text text-anchor="middle" x="288" y="-634" font-family="Helvetica,sans-Serif" font-size="10.00">dialects/mem/autogen.h</text>
</a>
</g>
</g>
<!-- Node69&#45;&gt;Node70 -->
<g id="edge88" class="edge">
<title>Node69&#45;&gt;Node70</title>
<path fill="none" stroke="#63b8ff" d="M337.58,-736.66C328.72,-718.93 308.61,-678.73 296.91,-655.32"/>
<polygon fill="#63b8ff" stroke="#63b8ff" points="299.93,-653.54 292.33,-646.16 293.67,-656.67 299.93,-653.54"/>
</g>
<!-- Node70&#45;&gt;Node3 -->
<g id="edge89" class="edge">
<title>Node70&#45;&gt;Node3</title>
<path fill="none" stroke="#63b8ff" d="M285.3,-626.92C279.84,-608.77 268,-565.07 268,-527.5 268,-527.5 268,-527.5 268,-470.5 268,-437.09 266.25,-398.18 265.06,-375.69"/>
<polygon fill="#63b8ff" stroke="#63b8ff" points="268.55,-375.33 264.51,-365.54 261.56,-375.72 268.55,-375.33"/>
</g>
<!-- Node70&#45;&gt;Node52 -->
<g id="edge90" class="edge">
<title>Node70&#45;&gt;Node52</title>
<path fill="none" stroke="#63b8ff" d="M321.42,-626.98C356.94,-617.93 413.27,-603.58 452.3,-593.64"/>
<polygon fill="#63b8ff" stroke="#63b8ff" points="453.49,-596.94 462.32,-591.08 451.76,-590.16 453.49,-596.94"/>
</g>
</g>
</svg>
