<?xml version="1.0" encoding="UTF-8" standalone="no"?>
<!DOCTYPE svg PUBLIC "-//W3C//DTD SVG 1.1//EN"
 "http://www.w3.org/Graphics/SVG/1.1/DTD/svg11.dtd">
<!-- Generated by graphviz version 2.43.0 (0)
 -->
<!-- Title: build/include/mim/plug/core/autogen.h Pages: 1 -->
<svg width="3905pt" height="313pt"
 viewBox="0.00 0.00 3904.94 313.00" xmlns="http://www.w3.org/2000/svg" xmlns:xlink="http://www.w3.org/1999/xlink">
<g id="graph0" class="graph" transform="scale(1 1) rotate(0) translate(4 309)">
<title>build/include/mim/plug/core/autogen.h</title>
<!-- Node1 -->
<g id="Node000001" class="node">
<title>Node1</title>
<g id="a_Node000001"><a xlink:title=" ">
<polygon fill="#999999" stroke="#666666" points="1876.44,-305 1748.44,-305 1748.44,-275 1876.44,-275 1876.44,-305"/>
<text text-anchor="start" x="1756.44" y="-293" font-family="Helvetica,sans-Serif" font-size="10.00">build/include/mim/plug</text>
<text text-anchor="middle" x="1812.44" y="-282" font-family="Helvetica,sans-Serif" font-size="10.00">/core/autogen.h</text>
</a>
</g>
</g>
<!-- Node2 -->
<g id="Node000002" class="node">
<title>Node2</title>
<g id="a_Node000002"><a xlink:href="core_8h.html" target="_top" xlink:title=" ">
<polygon fill="white" stroke="#666666" points="1874.94,-239 1749.94,-239 1749.94,-209 1874.94,-209 1874.94,-239"/>
<text text-anchor="start" x="1757.94" y="-227" font-family="Helvetica,sans-Serif" font-size="10.00">include/mim/plug/core</text>
<text text-anchor="middle" x="1812.44" y="-216" font-family="Helvetica,sans-Serif" font-size="10.00">/core.h</text>
</a>
</g>
</g>
<!-- Node1&#45;&gt;Node2 -->
<g id="edge1_Node000001_Node000002" class="edge">
<title>Node1&#45;&gt;Node2</title>
<g id="a_edge1_Node000001_Node000002"><a xlink:title=" ">
<path fill="none" stroke="#63b8ff" d="M1812.44,-264.54C1812.44,-255.96 1812.44,-246.61 1812.44,-239.16"/>
<polygon fill="#63b8ff" stroke="#63b8ff" points="1808.94,-264.8 1812.44,-274.8 1815.94,-264.8 1808.94,-264.8"/>
</a>
</g>
</g>
<!-- Node3 -->
<g id="Node000003" class="node">
<title>Node3</title>
<g id="a_Node000003"><a xlink:href="mem_8h.html" target="_top" xlink:title=" ">
<polygon fill="white" stroke="#666666" points="1877.44,-167.5 1747.44,-167.5 1747.44,-137.5 1877.44,-137.5 1877.44,-167.5"/>
<text text-anchor="start" x="1755.44" y="-155.5" font-family="Helvetica,sans-Serif" font-size="10.00">include/mim/plug/mem</text>
<text text-anchor="middle" x="1812.44" y="-144.5" font-family="Helvetica,sans-Serif" font-size="10.00">/mem.h</text>
</a>
</g>
</g>
<!-- Node2&#45;&gt;Node3 -->
<g id="edge2_Node000002_Node000003" class="edge">
<title>Node2&#45;&gt;Node3</title>
<g id="a_edge2_Node000002_Node000003"><a xlink:title=" ">
<path fill="none" stroke="#63b8ff" d="M1812.44,-198.75C1812.44,-188.31 1812.44,-176.49 1812.44,-167.54"/>
<polygon fill="#63b8ff" stroke="#63b8ff" points="1808.94,-198.94 1812.44,-208.94 1815.94,-198.94 1808.94,-198.94"/>
</a>
</g>
</g>
<!-- Node6 -->
<g id="Node000006" class="node">
<title>Node6</title>
<g id="a_Node000006"><a xlink:href="clos2sjlj_8cpp.html" target="_top" xlink:title=" ">
<polygon fill="white" stroke="#666666" points="1262.44,-30 1134.44,-30 1134.44,0 1262.44,0 1262.44,-30"/>
<text text-anchor="start" x="1142.44" y="-18" font-family="Helvetica,sans-Serif" font-size="10.00">src/mim/plug/clos/pass</text>
<text text-anchor="middle" x="1198.44" y="-7" font-family="Helvetica,sans-Serif" font-size="10.00">/clos2sjlj.cpp</text>
</a>
</g>
</g>
<!-- Node2&#45;&gt;Node6 -->
<g id="edge38_Node000002_Node000006" class="edge">
<title>Node2&#45;&gt;Node6</title>
<g id="a_edge38_Node000002_Node000006"><a xlink:title=" ">
<path fill="none" stroke="#63b8ff" d="M1739.88,-222.04C1448.67,-217.98 373.3,-201.23 223.44,-173 122.87,-154.05 65.48,-179.59 6.44,-96 -1.25,-85.11 -2.79,-75.62 6.44,-66 45.73,-25.03 892.05,-17.56 1134.23,-16.26"/>
<polygon fill="#63b8ff" stroke="#63b8ff" points="1739.86,-225.54 1749.9,-222.17 1739.95,-218.54 1739.86,-225.54"/>
</a>
</g>
</g>
<!-- Node13 -->
<g id="Node000013" class="node">
<title>Node13</title>
<g id="a_Node000013"><a xlink:href="autodiff__eval_8cpp.html" target="_top" xlink:title=" ">
<polygon fill="white" stroke="#666666" points="144.94,-96 15.94,-96 15.94,-66 144.94,-66 144.94,-96"/>
<text text-anchor="start" x="23.94" y="-84" font-family="Helvetica,sans-Serif" font-size="10.00">src/mim/plug/autodiff</text>
<text text-anchor="middle" x="80.44" y="-73" font-family="Helvetica,sans-Serif" font-size="10.00">/pass/autodiff_eval.cpp</text>
</a>
</g>
</g>
<!-- Node2&#45;&gt;Node13 -->
<g id="edge35_Node000002_Node000013" class="edge">
<title>Node2&#45;&gt;Node13</title>
<g id="a_edge35_Node000002_Node000013"><a xlink:title=" ">
<path fill="none" stroke="#63b8ff" d="M1739.59,-222.87C1487.28,-222.06 651.77,-216.1 387.44,-173 287.31,-156.67 173.92,-117.38 117.07,-96.16"/>
<polygon fill="#63b8ff" stroke="#63b8ff" points="1739.73,-226.37 1749.74,-222.91 1739.75,-219.38 1739.73,-226.37"/>
</a>
</g>
</g>
<!-- Node14 -->
<g id="Node000014" class="node">
<title>Node14</title>
<g id="a_Node000014"><a xlink:href="autodiff__zero_8cpp.html" target="_top" xlink:title=" ">
<polygon fill="white" stroke="#666666" points="291.94,-96 162.94,-96 162.94,-66 291.94,-66 291.94,-96"/>
<text text-anchor="start" x="170.94" y="-84" font-family="Helvetica,sans-Serif" font-size="10.00">src/mim/plug/autodiff</text>
<text text-anchor="middle" x="227.44" y="-73" font-family="Helvetica,sans-Serif" font-size="10.00">/pass/autodiff_zero.cpp</text>
</a>
</g>
</g>
<!-- Node2&#45;&gt;Node14 -->
<g id="edge36_Node000002_Node000014" class="edge">
<title>Node2&#45;&gt;Node14</title>
<g id="a_edge36_Node000002_Node000014"><a xlink:title=" ">
<path fill="none" stroke="#63b8ff" d="M1739.39,-222.17C1508.65,-219.21 797.23,-207.46 569.44,-173 458.57,-156.23 331.97,-117.12 268.41,-96.05"/>
<polygon fill="#63b8ff" stroke="#63b8ff" points="1739.64,-225.67 1749.68,-222.3 1739.73,-218.67 1739.64,-225.67"/>
</a>
</g>
</g>
<!-- Node15 -->
<g id="Node000015" class="node">
<title>Node15</title>
<g id="a_Node000015"><a xlink:href="autodiff__zero__cleanup_8cpp.html" target="_top" xlink:title=" ">
<polygon fill="white" stroke="#666666" points="482.94,-96 309.94,-96 309.94,-66 482.94,-66 482.94,-96"/>
<text text-anchor="start" x="317.94" y="-84" font-family="Helvetica,sans-Serif" font-size="10.00">src/mim/plug/autodiff</text>
<text text-anchor="middle" x="396.44" y="-73" font-family="Helvetica,sans-Serif" font-size="10.00">/pass/autodiff_zero_cleanup.cpp</text>
</a>
</g>
</g>
<!-- Node2&#45;&gt;Node15 -->
<g id="edge37_Node000002_Node000015" class="edge">
<title>Node2&#45;&gt;Node15</title>
<g id="a_edge37_Node000002_Node000015"><a xlink:title=" ">
<path fill="none" stroke="#63b8ff" d="M1739.63,-221.35C1534.54,-216.42 954.75,-200.4 766.44,-173 647.3,-155.67 510.55,-116.99 441.45,-96.07"/>
<polygon fill="#63b8ff" stroke="#63b8ff" points="1739.61,-224.85 1749.69,-221.59 1739.78,-217.86 1739.61,-224.85"/>
</a>
</g>
</g>
<!-- Node17 -->
<g id="Node000017" class="node">
<title>Node17</title>
<g id="a_Node000017"><a xlink:href="ll_8cpp.html" target="_top" xlink:title=" ">
<polygon fill="white" stroke="#666666" points="619.94,-96 500.94,-96 500.94,-66 619.94,-66 619.94,-96"/>
<text text-anchor="start" x="508.94" y="-84" font-family="Helvetica,sans-Serif" font-size="10.00">src/mim/plug/core/be</text>
<text text-anchor="middle" x="560.44" y="-73" font-family="Helvetica,sans-Serif" font-size="10.00">/ll.cpp</text>
</a>
</g>
</g>
<!-- Node2&#45;&gt;Node17 -->
<g id="edge39_Node000002_Node000017" class="edge">
<title>Node2&#45;&gt;Node17</title>
<g id="a_edge39_Node000002_Node000017"><a xlink:title=" ">
<path fill="none" stroke="#63b8ff" d="M1739.38,-222.04C1596.34,-219.38 1269.53,-209.48 997.44,-173 858.42,-154.36 697.53,-116.59 615.19,-96.06"/>
<polygon fill="#63b8ff" stroke="#63b8ff" points="1739.71,-225.55 1749.77,-222.23 1739.84,-218.55 1739.71,-225.55"/>
</a>
</g>
</g>
<!-- Node18 -->
<g id="Node000018" class="node">
<title>Node18</title>
<g id="a_Node000018"><a xlink:href="core_2normalizers_8cpp.html" target="_top" xlink:title=" ">
<polygon fill="white" stroke="#666666" points="822.94,-90.5 637.94,-90.5 637.94,-71.5 822.94,-71.5 822.94,-90.5"/>
<text text-anchor="middle" x="730.44" y="-78.5" font-family="Helvetica,sans-Serif" font-size="10.00">src/mim/plug/core/normalizers.cpp</text>
</a>
</g>
</g>
<!-- Node2&#45;&gt;Node18 -->
<g id="edge41_Node000002_Node000018" class="edge">
<title>Node2&#45;&gt;Node18</title>
<g id="a_edge41_Node000002_Node000018"><a xlink:title=" ">
<path fill="none" stroke="#63b8ff" d="M1739.49,-218.18C1634.12,-210.81 1433.35,-195.21 1263.44,-173 1080.3,-149.06 863.84,-108.17 773.45,-90.52"/>
<polygon fill="#63b8ff" stroke="#63b8ff" points="1739.47,-221.69 1749.69,-218.89 1739.96,-214.71 1739.47,-221.69"/>
</a>
</g>
</g>
<!-- Node19 -->
<g id="Node000019" class="node">
<title>Node19</title>
<g id="a_Node000019"><a xlink:href="lower__matrix__highlevel_8cpp.html" target="_top" xlink:title=" ">
<polygon fill="white" stroke="#666666" points="1021.44,-96 841.44,-96 841.44,-66 1021.44,-66 1021.44,-96"/>
<text text-anchor="start" x="849.44" y="-84" font-family="Helvetica,sans-Serif" font-size="10.00">src/mim/plug/matrix</text>
<text text-anchor="middle" x="931.44" y="-73" font-family="Helvetica,sans-Serif" font-size="10.00">/pass/lower_matrix_highlevel.cpp</text>
</a>
</g>
</g>
<!-- Node2&#45;&gt;Node19 -->
<g id="edge42_Node000002_Node000019" class="edge">
<title>Node2&#45;&gt;Node19</title>
<g id="a_edge42_Node000002_Node000019"><a xlink:title=" ">
<path fill="none" stroke="#63b8ff" d="M1739.51,-211.33C1578.46,-185.55 1193.02,-123.86 1019.15,-96.04"/>
<polygon fill="#63b8ff" stroke="#63b8ff" points="1739.36,-214.85 1749.79,-212.97 1740.47,-207.94 1739.36,-214.85"/>
</a>
</g>
</g>
<!-- Node20 -->
<g id="Node000020" class="node">
<title>Node20</title>
<g id="a_Node000020"><a xlink:href="lower__matrix__lowlevel_8cpp.html" target="_top" xlink:title=" ">
<polygon fill="white" stroke="#666666" points="3406.44,-96 3230.44,-96 3230.44,-66 3406.44,-66 3406.44,-96"/>
<text text-anchor="start" x="3238.44" y="-84" font-family="Helvetica,sans-Serif" font-size="10.00">src/mim/plug/matrix</text>
<text text-anchor="middle" x="3318.44" y="-73" font-family="Helvetica,sans-Serif" font-size="10.00">/pass/lower_matrix_lowlevel.cpp</text>
</a>
</g>
</g>
<!-- Node2&#45;&gt;Node20 -->
<g id="edge43_Node000002_Node000020" class="edge">
<title>Node2&#45;&gt;Node20</title>
<g id="a_edge43_Node000002_Node000020"><a xlink:title=" ">
<path fill="none" stroke="#63b8ff" d="M1843.96,-203.38C1857.42,-194.58 1873.07,-183.77 1886.44,-173 1907.01,-156.44 1905.07,-142.15 1929.44,-132 2062.01,-76.77 3078.36,-108.28 3221.44,-96 3224.32,-95.75 3227.25,-95.48 3230.2,-95.18"/>
<polygon fill="#63b8ff" stroke="#63b8ff" points="1841.99,-200.48 1835.48,-208.85 1845.78,-206.37 1841.99,-200.48"/>
</a>
</g>
</g>
<!-- Node21 -->
<g id="Node000021" class="node">
<title>Node21</title>
<g id="a_Node000021"><a xlink:href="lower__matrix__mediumlevel_8cpp.html" target="_top" xlink:title=" ">
<polygon fill="white" stroke="#666666" points="3624.44,-96 3424.44,-96 3424.44,-66 3624.44,-66 3624.44,-96"/>
<text text-anchor="start" x="3432.44" y="-84" font-family="Helvetica,sans-Serif" font-size="10.00">src/mim/plug/matrix</text>
<text text-anchor="middle" x="3524.44" y="-73" font-family="Helvetica,sans-Serif" font-size="10.00">/pass/lower_matrix_mediumlevel.cpp</text>
</a>
</g>
</g>
<!-- Node2&#45;&gt;Node21 -->
<g id="edge44_Node000002_Node000021" class="edge">
<title>Node2&#45;&gt;Node21</title>
<g id="a_edge44_Node000002_Node000021"><a xlink:title=" ">
<path fill="none" stroke="#63b8ff" d="M1860.13,-205.17C1880.13,-196.73 1903.16,-185.71 1922.44,-173 1945.03,-158.11 1942.33,-142.08 1967.44,-132 2116.79,-72.02 3254.97,-108.27 3415.44,-96 3418.39,-95.77 3421.38,-95.53 3424.4,-95.26"/>
<polygon fill="#63b8ff" stroke="#63b8ff" points="1858.8,-201.93 1850.88,-208.98 1861.46,-208.4 1858.8,-201.93"/>
</a>
</g>
</g>
<!-- Node30 -->
<g id="Node000030" class="node">
<title>Node30</title>
<g id="a_Node000030"><a xlink:href="dfa2matcher_8cpp.html" target="_top" xlink:title=" ">
<polygon fill="white" stroke="#666666" points="3753.94,-96 3642.94,-96 3642.94,-66 3753.94,-66 3753.94,-96"/>
<text text-anchor="start" x="3650.94" y="-84" font-family="Helvetica,sans-Serif" font-size="10.00">src/mim/plug/regex</text>
<text text-anchor="middle" x="3698.44" y="-73" font-family="Helvetica,sans-Serif" font-size="10.00">/dfa2matcher.cpp</text>
</a>
</g>
</g>
<!-- Node2&#45;&gt;Node30 -->
<g id="edge45_Node000002_Node000030" class="edge">
<title>Node2&#45;&gt;Node30</title>
<g id="a_edge45_Node000002_Node000030"><a xlink:title=" ">
<path fill="none" stroke="#63b8ff" d="M1880.62,-206.03C1906.32,-198.06 1935.18,-187.15 1959.44,-173 1983.1,-159.2 1979.96,-142.03 2005.44,-132 2173.8,-65.72 3453.75,-117.14 3633.44,-96 3636.54,-95.64 3639.7,-95.19 3642.89,-94.69"/>
<polygon fill="#63b8ff" stroke="#63b8ff" points="1879.51,-202.71 1870.94,-208.94 1881.52,-209.41 1879.51,-202.71"/>
</a>
</g>
</g>
<!-- Node31 -->
<g id="Node000031" class="node">
<title>Node31</title>
<g id="a_Node000031"><a xlink:href="lower__regex_8cpp.html" target="_top" xlink:title=" ">
<polygon fill="white" stroke="#666666" points="3896.94,-96 3771.94,-96 3771.94,-66 3896.94,-66 3896.94,-96"/>
<text text-anchor="start" x="3779.94" y="-84" font-family="Helvetica,sans-Serif" font-size="10.00">src/mim/plug/regex</text>
<text text-anchor="middle" x="3834.44" y="-73" font-family="Helvetica,sans-Serif" font-size="10.00">/pass/lower_regex.cpp</text>
</a>
</g>
</g>
<!-- Node2&#45;&gt;Node31 -->
<g id="edge46_Node000002_Node000031" class="edge">
<title>Node2&#45;&gt;Node31</title>
<g id="a_edge46_Node000002_Node000031"><a xlink:title=" ">
<path fill="none" stroke="#63b8ff" d="M1885.25,-211.86C1920.44,-204.37 1962.32,-192.24 1996.44,-173 2019.44,-160.03 2015.03,-142.07 2039.44,-132 2128,-95.47 3668.2,-106.31 3763.44,-96 3766.19,-95.7 3768.99,-95.35 3771.81,-94.96"/>
<polygon fill="#63b8ff" stroke="#63b8ff" points="1884.14,-208.52 1875.04,-213.95 1885.54,-215.38 1884.14,-208.52"/>
</a>
</g>
</g>
<!-- Node32 -->
<g id="Node000032" class="node">
<title>Node32</title>
<g id="a_Node000032"><a xlink:href="autodiff__rewrite__inner_8cpp.html" target="_top" xlink:title=" ">
<polygon fill="white" stroke="#666666" points="2190.94,-173 2047.94,-173 2047.94,-132 2190.94,-132 2190.94,-173"/>
<text text-anchor="start" x="2055.94" y="-161" font-family="Helvetica,sans-Serif" font-size="10.00">src/mim/plug/autodiff</text>
<text text-anchor="start" x="2055.94" y="-150" font-family="Helvetica,sans-Serif" font-size="10.00">/auxiliary/autodiff_rewrite</text>
<text text-anchor="middle" x="2119.44" y="-139" font-family="Helvetica,sans-Serif" font-size="10.00">_inner.cpp</text>
</a>
</g>
</g>
<!-- Node2&#45;&gt;Node32 -->
<g id="edge33_Node000002_Node000032" class="edge">
<title>Node2&#45;&gt;Node32</title>
<g id="a_edge33_Node000002_Node000032"><a xlink:title=" ">
<path fill="none" stroke="#63b8ff" d="M1884.22,-206.77C1927.46,-196.99 1983.61,-184.29 2033.44,-173 2038.07,-171.95 2042.84,-170.87 2047.65,-169.78"/>
<polygon fill="#63b8ff" stroke="#63b8ff" points="1883.34,-203.38 1874.36,-209 1884.89,-210.21 1883.34,-203.38"/>
</a>
</g>
</g>
<!-- Node33 -->
<g id="Node000033" class="node">
<title>Node33</title>
<g id="a_Node000033"><a xlink:href="autodiff_2normalizers_8cpp.html" target="_top" xlink:title=" ">
<polygon fill="white" stroke="#666666" points="2329.94,-167.5 2208.94,-167.5 2208.94,-137.5 2329.94,-137.5 2329.94,-167.5"/>
<text text-anchor="start" x="2216.94" y="-155.5" font-family="Helvetica,sans-Serif" font-size="10.00">src/mim/plug/autodiff</text>
<text text-anchor="middle" x="2269.44" y="-144.5" font-family="Helvetica,sans-Serif" font-size="10.00">/normalizers.cpp</text>
</a>
</g>
</g>
<!-- Node2&#45;&gt;Node33 -->
<g id="edge34_Node000002_Node000033" class="edge">
<title>Node2&#45;&gt;Node33</title>
<g id="a_edge34_Node000002_Node000033"><a xlink:title=" ">
<path fill="none" stroke="#63b8ff" d="M1885.32,-216.84C1963.69,-209.46 2091.71,-195.24 2200.44,-173 2207.88,-171.48 2215.69,-169.57 2223.28,-167.56"/>
<polygon fill="#63b8ff" stroke="#63b8ff" points="1884.7,-213.38 1875.07,-217.79 1885.35,-220.35 1884.7,-213.38"/>
</a>
</g>
</g>
<!-- Node34 -->
<g id="Node000034" class="node">
<title>Node34</title>
<g id="a_Node000034"><a xlink:href="core_8cpp.html" target="_top" xlink:title=" ">
<polygon fill="white" stroke="#666666" points="2496.94,-162 2347.94,-162 2347.94,-143 2496.94,-143 2496.94,-162"/>
<text text-anchor="middle" x="2422.44" y="-150" font-family="Helvetica,sans-Serif" font-size="10.00">src/mim/plug/core/core.cpp</text>
</a>
</g>
</g>
<!-- Node2&#45;&gt;Node34 -->
<g id="edge40_Node000002_Node000034" class="edge">
<title>Node2&#45;&gt;Node34</title>
<g id="a_edge40_Node000002_Node000034"><a xlink:title=" ">
<path fill="none" stroke="#63b8ff" d="M1885.46,-219.22C1987.56,-213.23 2178.55,-199.41 2339.44,-173 2356.53,-170.2 2375.34,-165.88 2390.72,-162.02"/>
<polygon fill="#63b8ff" stroke="#63b8ff" points="1885.04,-215.74 1875.26,-219.81 1885.45,-222.73 1885.04,-215.74"/>
</a>
</g>
</g>
<!-- Node4 -->
<g id="Node000004" class="node">
<title>Node4</title>
<g id="a_Node000004"><a xlink:href="clos2sjlj_8h.html" target="_top" xlink:title=" ">
<polygon fill="white" stroke="#666666" points="2637.44,-96 2513.44,-96 2513.44,-66 2637.44,-66 2637.44,-96"/>
<text text-anchor="start" x="2521.44" y="-84" font-family="Helvetica,sans-Serif" font-size="10.00">include/mim/plug/clos</text>
<text text-anchor="middle" x="2575.44" y="-73" font-family="Helvetica,sans-Serif" font-size="10.00">/pass/clos2sjlj.h</text>
</a>
</g>
</g>
<!-- Node3&#45;&gt;Node4 -->
<g id="edge3_Node000003_Node000004" class="edge">
<title>Node3&#45;&gt;Node4</title>
<g id="a_edge3_Node000003_Node000004"><a xlink:title=" ">
<path fill="none" stroke="#63b8ff" d="M1873.62,-135.23C1879.61,-133.99 1885.62,-132.88 1891.44,-132 2161.28,-91.13 2233.71,-130.48 2504.44,-96 2507.31,-95.63 2510.23,-95.22 2513.18,-94.77"/>
<polygon fill="#63b8ff" stroke="#63b8ff" points="1872.61,-131.87 1863.59,-137.43 1874.1,-138.71 1872.61,-131.87"/>
</a>
</g>
</g>
<!-- Node7 -->
<g id="Node000007" class="node">
<title>Node7</title>
<g id="a_Node000007"><a xlink:href="clos__conv_8h.html" target="_top" xlink:title=" ">
<polygon fill="white" stroke="#666666" points="2779.44,-96 2655.44,-96 2655.44,-66 2779.44,-66 2779.44,-96"/>
<text text-anchor="start" x="2663.44" y="-84" font-family="Helvetica,sans-Serif" font-size="10.00">include/mim/plug/clos</text>
<text text-anchor="middle" x="2717.44" y="-73" font-family="Helvetica,sans-Serif" font-size="10.00">/phase/clos_conv.h</text>
</a>
</g>
</g>
<!-- Node3&#45;&gt;Node7 -->
<g id="edge6_Node000003_Node000007" class="edge">
<title>Node3&#45;&gt;Node7</title>
<g id="a_edge6_Node000003_Node000007"><a xlink:title=" ">
<path fill="none" stroke="#63b8ff" d="M1873.33,-135.22C1879.42,-133.97 1885.53,-132.86 1891.44,-132 2223.86,-83.52 2312.97,-136.6 2646.44,-96 2649.31,-95.65 2652.24,-95.25 2655.19,-94.81"/>
<polygon fill="#63b8ff" stroke="#63b8ff" points="1872.17,-131.89 1863.15,-137.44 1873.67,-138.73 1872.17,-131.89"/>
</a>
</g>
</g>
<!-- Node9 -->
<g id="Node000009" class="node">
<title>Node9</title>
<g id="a_Node000009"><a xlink:href="lower__typed__clos_8h.html" target="_top" xlink:title=" ">
<polygon fill="white" stroke="#666666" points="2943.44,-96 2797.44,-96 2797.44,-66 2943.44,-66 2943.44,-96"/>
<text text-anchor="start" x="2805.44" y="-84" font-family="Helvetica,sans-Serif" font-size="10.00">include/mim/plug/clos</text>
<text text-anchor="middle" x="2870.44" y="-73" font-family="Helvetica,sans-Serif" font-size="10.00">/phase/lower_typed_clos.h</text>
</a>
</g>
</g>
<!-- Node3&#45;&gt;Node9 -->
<g id="edge9_Node000003_Node000009" class="edge">
<title>Node3&#45;&gt;Node9</title>
<g id="a_edge9_Node000003_Node000009"><a xlink:title=" ">
<path fill="none" stroke="#63b8ff" d="M1872.59,-135.33C1878.92,-134.02 1885.29,-132.87 1891.44,-132 2286.47,-75.91 2391.63,-137.66 2788.44,-96 2791.31,-95.7 2794.24,-95.36 2797.19,-94.99"/>
<polygon fill="#63b8ff" stroke="#63b8ff" points="1871.74,-131.93 1862.72,-137.48 1873.23,-138.77 1871.74,-131.93"/>
</a>
</g>
</g>
<!-- Node11 -->
<g id="Node000011" class="node">
<title>Node11</title>
<g id="a_Node000011"><a xlink:href="lower__for_8cpp.html" target="_top" xlink:title=" ">
<polygon fill="white" stroke="#666666" points="3072.94,-96 2961.94,-96 2961.94,-66 3072.94,-66 3072.94,-96"/>
<text text-anchor="start" x="2969.94" y="-84" font-family="Helvetica,sans-Serif" font-size="10.00">src/mim/plug/affine</text>
<text text-anchor="middle" x="3017.44" y="-73" font-family="Helvetica,sans-Serif" font-size="10.00">/pass/lower_for.cpp</text>
</a>
</g>
</g>
<!-- Node3&#45;&gt;Node11 -->
<g id="edge12_Node000003_Node000011" class="edge">
<title>Node3&#45;&gt;Node11</title>
<g id="a_edge12_Node000003_Node000011"><a xlink:title=" ">
<path fill="none" stroke="#63b8ff" d="M1872.59,-135.29C1878.92,-133.99 1885.29,-132.85 1891.44,-132 2358.79,-67.11 2484.18,-153.9 2952.44,-96 2955.53,-95.62 2958.7,-95.16 2961.88,-94.65"/>
<polygon fill="#63b8ff" stroke="#63b8ff" points="1871.74,-131.89 1862.71,-137.44 1873.23,-138.73 1871.74,-131.89"/>
</a>
</g>
</g>
<!-- Node12 -->
<g id="Node000012" class="node">
<title>Node12</title>
<g id="a_Node000012"><a xlink:href="autodiff_8cpp.html" target="_top" xlink:title=" ">
<polygon fill="white" stroke="#666666" points="3211.94,-96 3090.94,-96 3090.94,-66 3211.94,-66 3211.94,-96"/>
<text text-anchor="start" x="3098.94" y="-84" font-family="Helvetica,sans-Serif" font-size="10.00">src/mim/plug/autodiff</text>
<text text-anchor="middle" x="3151.44" y="-73" font-family="Helvetica,sans-Serif" font-size="10.00">/autodiff.cpp</text>
</a>
</g>
</g>
<!-- Node3&#45;&gt;Node12 -->
<g id="edge13_Node000003_Node000012" class="edge">
<title>Node3&#45;&gt;Node12</title>
<g id="a_edge13_Node000003_Node000012"><a xlink:title=" ">
<path fill="none" stroke="#63b8ff" d="M1872.59,-135.26C1878.92,-133.97 1885.29,-132.84 1891.44,-132 2416.12,-60.14 2556.38,-156.87 3082.44,-96 3085.11,-95.69 3087.83,-95.33 3090.58,-94.93"/>
<polygon fill="#63b8ff" stroke="#63b8ff" points="1871.74,-131.87 1862.71,-137.41 1873.22,-138.71 1871.74,-131.87"/>
</a>
</g>
</g>
<!-- Node3&#45;&gt;Node13 -->
<g id="edge14_Node000003_Node000013" class="edge">
<title>Node3&#45;&gt;Node13</title>
<g id="a_edge14_Node000003_Node000013"><a xlink:title=" ">
<path fill="none" stroke="#63b8ff" d="M1736.89,-150.54C1455.23,-146.72 466.57,-131.05 153.44,-96 150.75,-95.7 148.01,-95.35 145.24,-94.97"/>
<polygon fill="#63b8ff" stroke="#63b8ff" points="1736.95,-154.04 1747,-150.68 1737.05,-147.04 1736.95,-154.04"/>
</a>
</g>
</g>
<!-- Node3&#45;&gt;Node14 -->
<g id="edge15_Node000003_Node000014" class="edge">
<title>Node3&#45;&gt;Node14</title>
<g id="a_edge15_Node000003_Node000014"><a xlink:title=" ">
<path fill="none" stroke="#63b8ff" d="M1737.04,-150.26C1471.92,-145.65 583.43,-128.14 300.44,-96 297.75,-95.69 295.01,-95.34 292.24,-94.96"/>
<polygon fill="#63b8ff" stroke="#63b8ff" points="1737.27,-153.76 1747.33,-150.44 1737.39,-146.76 1737.27,-153.76"/>
</a>
</g>
</g>
<!-- Node3&#45;&gt;Node15 -->
<g id="edge16_Node000003_Node000015" class="edge">
<title>Node3&#45;&gt;Node15</title>
<g id="a_edge16_Node000003_Node000015"><a xlink:title=" ">
<path fill="none" stroke="#63b8ff" d="M1737.13,-151.08C1535.01,-149.37 963.99,-140.62 491.44,-96 488.7,-95.74 485.92,-95.46 483.12,-95.15"/>
<polygon fill="#63b8ff" stroke="#63b8ff" points="1737.3,-154.58 1747.33,-151.17 1737.36,-147.58 1737.3,-154.58"/>
</a>
</g>
</g>
<!-- Node16 -->
<g id="Node000016" class="node">
<title>Node16</title>
<g id="a_Node000016"><a xlink:href="lower__typed__clos__prep_8cpp.html" target="_top" xlink:title=" ">
<polygon fill="white" stroke="#666666" points="1191.44,-96 1039.44,-96 1039.44,-66 1191.44,-66 1191.44,-96"/>
<text text-anchor="start" x="1047.44" y="-84" font-family="Helvetica,sans-Serif" font-size="10.00">src/mim/plug/clos/pass</text>
<text text-anchor="middle" x="1115.44" y="-73" font-family="Helvetica,sans-Serif" font-size="10.00">/lower_typed_clos_prep.cpp</text>
</a>
</g>
</g>
<!-- Node3&#45;&gt;Node16 -->
<g id="edge17_Node000003_Node000016" class="edge">
<title>Node3&#45;&gt;Node16</title>
<g id="a_edge17_Node000003_Node000016"><a xlink:title=" ">
<path fill="none" stroke="#63b8ff" d="M1736.89,-146.43C1621.13,-138.25 1393.06,-120.56 1200.44,-96 1197.62,-95.64 1194.75,-95.26 1191.86,-94.86"/>
<polygon fill="#63b8ff" stroke="#63b8ff" points="1736.84,-149.93 1747.06,-147.14 1737.33,-142.95 1736.84,-149.93"/>
</a>
</g>
</g>
<!-- Node3&#45;&gt;Node17 -->
<g id="edge18_Node000003_Node000017" class="edge">
<title>Node3&#45;&gt;Node17</title>
<g id="a_edge18_Node000003_Node000017"><a xlink:title=" ">
<path fill="none" stroke="#63b8ff" d="M1737.28,-152.04C1549.49,-152.5 1044.96,-148.31 628.44,-96 625.69,-95.65 622.89,-95.26 620.06,-94.82"/>
<polygon fill="#63b8ff" stroke="#63b8ff" points="1737.33,-155.54 1747.32,-152.01 1737.31,-148.54 1737.33,-155.54"/>
</a>
</g>
</g>
<!-- Node3&#45;&gt;Node18 -->
<g id="edge19_Node000003_Node000018" class="edge">
<title>Node3&#45;&gt;Node18</title>
<g id="a_edge19_Node000003_Node000018"><a xlink:title=" ">
<path fill="none" stroke="#63b8ff" d="M1737.21,-149.29C1572.77,-144 1169.08,-128.58 832.44,-96 817.5,-94.55 801.38,-92.55 786.46,-90.51"/>
<polygon fill="#63b8ff" stroke="#63b8ff" points="1737.12,-152.79 1747.22,-149.61 1737.34,-145.79 1737.12,-152.79"/>
</a>
</g>
</g>
<!-- Node3&#45;&gt;Node19 -->
<g id="edge20_Node000003_Node000019" class="edge">
<title>Node3&#45;&gt;Node19</title>
<g id="a_edge20_Node000003_Node000019"><a xlink:title=" ">
<path fill="none" stroke="#63b8ff" d="M1737.27,-147.91C1597.71,-140.86 1289.24,-123.45 1030.44,-96 1027.51,-95.69 1024.53,-95.36 1021.52,-95.01"/>
<polygon fill="#63b8ff" stroke="#63b8ff" points="1737.26,-151.41 1747.42,-148.42 1737.61,-144.42 1737.26,-151.41"/>
</a>
</g>
</g>
<!-- Node3&#45;&gt;Node20 -->
<g id="edge21_Node000003_Node000020" class="edge">
<title>Node3&#45;&gt;Node20</title>
<g id="a_edge21_Node000003_Node000020"><a xlink:title=" ">
<path fill="none" stroke="#63b8ff" d="M1872.3,-135.3C1878.72,-133.99 1885.19,-132.85 1891.44,-132 2477.43,-52.69 2632.26,-146.32 3221.44,-96 3224.32,-95.75 3227.25,-95.48 3230.2,-95.18"/>
<polygon fill="#63b8ff" stroke="#63b8ff" points="1871.31,-131.93 1862.28,-137.48 1872.79,-138.77 1871.31,-131.93"/>
</a>
</g>
</g>
<!-- Node3&#45;&gt;Node21 -->
<g id="edge22_Node000003_Node000021" class="edge">
<title>Node3&#45;&gt;Node21</title>
<g id="a_edge22_Node000003_Node000021"><a xlink:title=" ">
<path fill="none" stroke="#63b8ff" d="M1887.52,-137.38C1901.41,-135.23 1915.83,-133.29 1929.44,-132 2587.12,-69.54 2756.71,-146.15 3415.44,-96 3418.39,-95.78 3421.38,-95.53 3424.4,-95.26"/>
<polygon fill="#63b8ff" stroke="#63b8ff" points="1886.83,-133.95 1877.51,-138.98 1887.94,-140.86 1886.83,-133.95"/>
</a>
</g>
</g>
<!-- Node22 -->
<g id="Node000022" class="node">
<title>Node22</title>
<g id="a_Node000022"><a xlink:href="mem_8cpp.html" target="_top" xlink:title=" ">
<polygon fill="white" stroke="#666666" points="1367.44,-90.5 1209.44,-90.5 1209.44,-71.5 1367.44,-71.5 1367.44,-90.5"/>
<text text-anchor="middle" x="1288.44" y="-78.5" font-family="Helvetica,sans-Serif" font-size="10.00">src/mim/plug/mem/mem.cpp</text>
</a>
</g>
</g>
<!-- Node3&#45;&gt;Node22 -->
<g id="edge23_Node000003_Node000022" class="edge">
<title>Node3&#45;&gt;Node22</title>
<g id="a_edge23_Node000003_Node000022"><a xlink:title=" ">
<path fill="none" stroke="#63b8ff" d="M1737.31,-142.66C1650.35,-132.26 1502.87,-114.1 1376.44,-96 1364.8,-94.33 1352.32,-92.42 1340.52,-90.56"/>
<polygon fill="#63b8ff" stroke="#63b8ff" points="1737.01,-146.15 1747.35,-143.86 1737.84,-139.2 1737.01,-146.15"/>
</a>
</g>
</g>
<!-- Node23 -->
<g id="Node000023" class="node">
<title>Node23</title>
<g id="a_Node000023"><a xlink:href="mem_2normalizers_8cpp.html" target="_top" xlink:title=" ">
<polygon fill="white" stroke="#666666" points="1575.44,-90.5 1385.44,-90.5 1385.44,-71.5 1575.44,-71.5 1575.44,-90.5"/>
<text text-anchor="middle" x="1480.44" y="-78.5" font-family="Helvetica,sans-Serif" font-size="10.00">src/mim/plug/mem/normalizers.cpp</text>
</a>
</g>
</g>
<!-- Node3&#45;&gt;Node23 -->
<g id="edge24_Node000003_Node000023" class="edge">
<title>Node3&#45;&gt;Node23</title>
<g id="a_edge24_Node000003_Node000023"><a xlink:title=" ">
<path fill="none" stroke="#63b8ff" d="M1737.18,-135.75C1670.32,-121.75 1575.11,-101.82 1521.41,-90.58"/>
<polygon fill="#63b8ff" stroke="#63b8ff" points="1736.74,-139.23 1747.24,-137.85 1738.17,-132.38 1736.74,-139.23"/>
</a>
</g>
</g>
<!-- Node24 -->
<g id="Node000024" class="node">
<title>Node24</title>
<g id="a_Node000024"><a xlink:href="alloc2malloc_8cpp.html" target="_top" xlink:title=" ">
<polygon fill="white" stroke="#666666" points="1727.44,-96 1593.44,-96 1593.44,-66 1727.44,-66 1727.44,-96"/>
<text text-anchor="start" x="1601.44" y="-84" font-family="Helvetica,sans-Serif" font-size="10.00">src/mim/plug/mem/pass</text>
<text text-anchor="middle" x="1660.44" y="-73" font-family="Helvetica,sans-Serif" font-size="10.00">/alloc2malloc.cpp</text>
</a>
</g>
</g>
<!-- Node3&#45;&gt;Node24 -->
<g id="edge25_Node000003_Node000024" class="edge">
<title>Node3&#45;&gt;Node24</title>
<g id="a_edge25_Node000003_Node000024"><a xlink:title=" ">
<path fill="none" stroke="#63b8ff" d="M1772.31,-133.15C1746.89,-121.53 1714.53,-106.73 1691.15,-96.04"/>
<polygon fill="#63b8ff" stroke="#63b8ff" points="1771.13,-136.46 1781.68,-137.44 1774.04,-130.09 1771.13,-136.46"/>
</a>
</g>
</g>
<!-- Node25 -->
<g id="Node000025" class="node">
<title>Node25</title>
<g id="a_Node000025"><a xlink:href="copy__prop_8cpp.html" target="_top" xlink:title=" ">
<polygon fill="white" stroke="#666666" points="1879.44,-96 1745.44,-96 1745.44,-66 1879.44,-66 1879.44,-96"/>
<text text-anchor="start" x="1753.44" y="-84" font-family="Helvetica,sans-Serif" font-size="10.00">src/mim/plug/mem/pass</text>
<text text-anchor="middle" x="1812.44" y="-73" font-family="Helvetica,sans-Serif" font-size="10.00">/copy_prop.cpp</text>
</a>
</g>
</g>
<!-- Node3&#45;&gt;Node25 -->
<g id="edge26_Node000003_Node000025" class="edge">
<title>Node3&#45;&gt;Node25</title>
<g id="a_edge26_Node000003_Node000025"><a xlink:title=" ">
<path fill="none" stroke="#63b8ff" d="M1812.44,-127.25C1812.44,-116.81 1812.44,-104.99 1812.44,-96.04"/>
<polygon fill="#63b8ff" stroke="#63b8ff" points="1808.94,-127.44 1812.44,-137.44 1815.94,-127.44 1808.94,-127.44"/>
</a>
</g>
</g>
<!-- Node26 -->
<g id="Node000026" class="node">
<title>Node26</title>
<g id="a_Node000026"><a xlink:href="plug_2mem_2pass_2remem__elim_8cpp.html" target="_top" xlink:title=" ">
<polygon fill="white" stroke="#666666" points="2031.44,-96 1897.44,-96 1897.44,-66 2031.44,-66 2031.44,-96"/>
<text text-anchor="start" x="1905.44" y="-84" font-family="Helvetica,sans-Serif" font-size="10.00">src/mim/plug/mem/pass</text>
<text text-anchor="middle" x="1964.44" y="-73" font-family="Helvetica,sans-Serif" font-size="10.00">/remem_elim.cpp</text>
</a>
</g>
</g>
<!-- Node3&#45;&gt;Node26 -->
<g id="edge27_Node000003_Node000026" class="edge">
<title>Node3&#45;&gt;Node26</title>
<g id="a_edge27_Node000003_Node000026"><a xlink:title=" ">
<path fill="none" stroke="#63b8ff" d="M1852.57,-133.15C1877.99,-121.53 1910.36,-106.73 1933.73,-96.04"/>
<polygon fill="#63b8ff" stroke="#63b8ff" points="1850.84,-130.09 1843.2,-137.44 1853.75,-136.46 1850.84,-130.09"/>
</a>
</g>
</g>
<!-- Node27 -->
<g id="Node000027" class="node">
<title>Node27</title>
<g id="a_Node000027"><a xlink:href="reshape_8cpp.html" target="_top" xlink:title=" ">
<polygon fill="white" stroke="#666666" points="2183.44,-96 2049.44,-96 2049.44,-66 2183.44,-66 2183.44,-96"/>
<text text-anchor="start" x="2057.44" y="-84" font-family="Helvetica,sans-Serif" font-size="10.00">src/mim/plug/mem/pass</text>
<text text-anchor="middle" x="2116.44" y="-73" font-family="Helvetica,sans-Serif" font-size="10.00">/reshape.cpp</text>
</a>
</g>
</g>
<!-- Node3&#45;&gt;Node27 -->
<g id="edge28_Node000003_Node000027" class="edge">
<title>Node3&#45;&gt;Node27</title>
<g id="a_edge28_Node000003_Node000027"><a xlink:title=" ">
<path fill="none" stroke="#63b8ff" d="M1878.27,-135.13C1882.73,-134.06 1887.15,-133.01 1891.44,-132 1945.2,-119.39 2006.39,-105.85 2051.37,-96.04"/>
<polygon fill="#63b8ff" stroke="#63b8ff" points="1877.4,-131.74 1868.51,-137.49 1879.05,-138.54 1877.4,-131.74"/>
</a>
</g>
</g>
<!-- Node28 -->
<g id="Node000028" class="node">
<title>Node28</title>
<g id="a_Node000028"><a xlink:href="ssa__constr_8cpp.html" target="_top" xlink:title=" ">
<polygon fill="white" stroke="#666666" points="2335.44,-96 2201.44,-96 2201.44,-66 2335.44,-66 2335.44,-96"/>
<text text-anchor="start" x="2209.44" y="-84" font-family="Helvetica,sans-Serif" font-size="10.00">src/mim/plug/mem/pass</text>
<text text-anchor="middle" x="2268.44" y="-73" font-family="Helvetica,sans-Serif" font-size="10.00">/ssa_constr.cpp</text>
</a>
</g>
</g>
<!-- Node3&#45;&gt;Node28 -->
<g id="edge29_Node000003_Node000028" class="edge">
<title>Node3&#45;&gt;Node28</title>
<g id="a_edge29_Node000003_Node000028"><a xlink:title=" ">
<path fill="none" stroke="#63b8ff" d="M1875.19,-135.27C1880.67,-134.08 1886.14,-132.97 1891.44,-132 2023.98,-107.81 2059.23,-116.21 2192.44,-96 2195.36,-95.56 2198.34,-95.09 2201.34,-94.6"/>
<polygon fill="#63b8ff" stroke="#63b8ff" points="1874.35,-131.87 1865.37,-137.49 1875.89,-138.7 1874.35,-131.87"/>
</a>
</g>
</g>
<!-- Node29 -->
<g id="Node000029" class="node">
<title>Node29</title>
<g id="a_Node000029"><a xlink:href="add__mem_8cpp.html" target="_top" xlink:title=" ">
<polygon fill="white" stroke="#666666" points="2494.94,-96 2353.94,-96 2353.94,-66 2494.94,-66 2494.94,-96"/>
<text text-anchor="start" x="2361.94" y="-84" font-family="Helvetica,sans-Serif" font-size="10.00">src/mim/plug/mem/phase</text>
<text text-anchor="middle" x="2424.44" y="-73" font-family="Helvetica,sans-Serif" font-size="10.00">/add_mem.cpp</text>
</a>
</g>
</g>
<!-- Node3&#45;&gt;Node29 -->
<g id="edge30_Node000003_Node000029" class="edge">
<title>Node3&#45;&gt;Node29</title>
<g id="a_edge30_Node000003_Node000029"><a xlink:title=" ">
<path fill="none" stroke="#63b8ff" d="M1873.91,-135.3C1879.81,-134.06 1885.72,-132.93 1891.44,-132 2090.81,-99.69 2144.08,-121.44 2344.44,-96 2347.52,-95.61 2350.66,-95.18 2353.83,-94.73"/>
<polygon fill="#63b8ff" stroke="#63b8ff" points="1873.04,-131.91 1864.04,-137.49 1874.56,-138.74 1873.04,-131.91"/>
</a>
</g>
</g>
<!-- Node3&#45;&gt;Node30 -->
<g id="edge31_Node000003_Node000030" class="edge">
<title>Node3&#45;&gt;Node30</title>
<g id="a_edge31_Node000003_Node000030"><a xlink:title=" ">
<path fill="none" stroke="#63b8ff" d="M1887.44,-140.48C1912.79,-137.17 1941.29,-133.92 1967.44,-132 2706.07,-77.7 2897.88,-182.36 3633.44,-96 3636.54,-95.64 3639.7,-95.19 3642.89,-94.69"/>
<polygon fill="#63b8ff" stroke="#63b8ff" points="1886.98,-137.01 1877.53,-141.79 1887.9,-143.95 1886.98,-137.01"/>
</a>
</g>
</g>
<!-- Node3&#45;&gt;Node31 -->
<g id="edge32_Node000003_Node000031" class="edge">
<title>Node3&#45;&gt;Node31</title>
<g id="a_edge32_Node000003_Node000031"><a xlink:title=" ">
<path fill="none" stroke="#63b8ff" d="M1887.86,-142.46C1923.47,-138.56 1966.58,-134.36 2005.44,-132 2395.47,-108.34 3374.95,-137.96 3763.44,-96 3766.19,-95.7 3768.99,-95.35 3771.81,-94.96"/>
<polygon fill="#63b8ff" stroke="#63b8ff" points="1887.1,-139.03 1877.55,-143.61 1887.88,-145.98 1887.1,-139.03"/>
</a>
</g>
</g>
<!-- Node5 -->
<g id="Node000005" class="node">
<title>Node5</title>
<g id="a_Node000005"><a xlink:href="clos_8cpp.html" target="_top" xlink:title=" ">
<polygon fill="white" stroke="#666666" points="2790.44,-24.5 2644.44,-24.5 2644.44,-5.5 2790.44,-5.5 2790.44,-24.5"/>
<text text-anchor="middle" x="2717.44" y="-12.5" font-family="Helvetica,sans-Serif" font-size="10.00">src/mim/plug/clos/clos.cpp</text>
</a>
</g>
</g>
<!-- Node4&#45;&gt;Node5 -->
<g id="edge4_Node000004_Node000005" class="edge">
<title>Node4&#45;&gt;Node5</title>
<g id="a_edge4_Node000004_Node000005"><a xlink:title=" ">
<path fill="none" stroke="#63b8ff" d="M2615.87,-61.78C2643.02,-49.54 2677.54,-33.98 2698.54,-24.52"/>
<polygon fill="#63b8ff" stroke="#63b8ff" points="2614.28,-58.65 2606.6,-65.95 2617.16,-65.04 2614.28,-58.65"/>
</a>
</g>
</g>
<!-- Node4&#45;&gt;Node6 -->
<g id="edge5_Node000004_Node000006" class="edge">
<title>Node4&#45;&gt;Node6</title>
<g id="a_edge5_Node000004_Node000006"><a xlink:title=" ">
<path fill="none" stroke="#63b8ff" d="M2502.9,-65.98C2239.59,-36.95 1487.66,-21.28 1262.72,-17.13"/>
<polygon fill="#63b8ff" stroke="#63b8ff" points="2502.86,-69.5 2513.19,-67.15 2503.65,-62.55 2502.86,-69.5"/>
</a>
</g>
</g>
<!-- Node7&#45;&gt;Node5 -->
<g id="edge7_Node000007_Node000005" class="edge">
<title>Node7&#45;&gt;Node5</title>
<g id="a_edge7_Node000007_Node000005"><a xlink:title=" ">
<path fill="none" stroke="#63b8ff" d="M2717.44,-55.6C2717.44,-44.8 2717.44,-32.78 2717.44,-24.84"/>
<polygon fill="#63b8ff" stroke="#63b8ff" points="2713.94,-55.8 2717.44,-65.8 2720.94,-55.8 2713.94,-55.8"/>
</a>
</g>
</g>
<!-- Node8 -->
<g id="Node000008" class="node">
<title>Node8</title>
<g id="a_Node000008"><a xlink:href="clos__conv_8cpp.html" target="_top" xlink:title=" ">
<polygon fill="white" stroke="#666666" points="2625.94,-30 2490.94,-30 2490.94,0 2625.94,0 2625.94,-30"/>
<text text-anchor="start" x="2498.94" y="-18" font-family="Helvetica,sans-Serif" font-size="10.00">src/mim/plug/clos/phase</text>
<text text-anchor="middle" x="2558.44" y="-7" font-family="Helvetica,sans-Serif" font-size="10.00">/clos_conv.cpp</text>
</a>
</g>
</g>
<!-- Node7&#45;&gt;Node8 -->
<g id="edge8_Node000007_Node000008" class="edge">
<title>Node7&#45;&gt;Node8</title>
<g id="a_edge8_Node000007_Node000008"><a xlink:title=" ">
<path fill="none" stroke="#63b8ff" d="M2673.19,-62.19C2647.94,-52.02 2616.74,-39.47 2593.25,-30.01"/>
<polygon fill="#63b8ff" stroke="#63b8ff" points="2671.96,-65.47 2682.55,-65.95 2674.58,-58.97 2671.96,-65.47"/>
</a>
</g>
</g>
<!-- Node9&#45;&gt;Node5 -->
<g id="edge10_Node000009_Node000005" class="edge">
<title>Node9&#45;&gt;Node5</title>
<g id="a_edge10_Node000009_Node000005"><a xlink:title=" ">
<path fill="none" stroke="#63b8ff" d="M2827.27,-61.94C2797.96,-49.68 2760.53,-34.02 2737.8,-24.52"/>
<polygon fill="#63b8ff" stroke="#63b8ff" points="2826.29,-65.32 2836.86,-65.95 2828.99,-58.87 2826.29,-65.32"/>
</a>
</g>
</g>
<!-- Node10 -->
<g id="Node000010" class="node">
<title>Node10</title>
<g id="a_Node000010"><a xlink:href="lower__typed__clos_8cpp.html" target="_top" xlink:title=" ">
<polygon fill="white" stroke="#666666" points="2943.94,-30 2808.94,-30 2808.94,0 2943.94,0 2943.94,-30"/>
<text text-anchor="start" x="2816.94" y="-18" font-family="Helvetica,sans-Serif" font-size="10.00">src/mim/plug/clos/phase</text>
<text text-anchor="middle" x="2876.44" y="-7" font-family="Helvetica,sans-Serif" font-size="10.00">/lower_typed_clos.cpp</text>
</a>
</g>
</g>
<!-- Node9&#45;&gt;Node10 -->
<g id="edge11_Node000009_Node000010" class="edge">
<title>Node9&#45;&gt;Node10</title>
<g id="a_edge11_Node000009_Node000010"><a xlink:title=" ">
<path fill="none" stroke="#63b8ff" d="M2872.71,-55.83C2873.52,-47.17 2874.41,-37.7 2875.11,-30.16"/>
<polygon fill="#63b8ff" stroke="#63b8ff" points="2869.22,-55.51 2871.77,-65.8 2876.19,-56.17 2869.22,-55.51"/>
</a>
</g>
</g>
</g>
</svg>
