<?xml version="1.0" encoding="UTF-8" standalone="no"?>
<!DOCTYPE svg PUBLIC "-//W3C//DTD SVG 1.1//EN"
 "http://www.w3.org/Graphics/SVG/1.1/DTD/svg11.dtd">
<!-- Generated by graphviz version 2.43.0 (0)
 -->
<!-- Title: build/include/dialects/core/autogen.h Pages: 1 -->
<!--zoomable 302 -->
<svg id="main" version="1.1" xmlns="http://www.w3.org/2000/svg" xmlns:xlink="http://www.w3.org/1999/xlink" xml:space="preserve" onload="init(evt)">
<style type="text/css"><![CDATA[
.edge:hover path { stroke: red; }
.edge:hover polygon { stroke: red; fill: red; }
]]></style>
<script type="text/javascript"><![CDATA[
var edges = document.getElementsByTagName('g');
if (edges && edges.length) {
  for (var i=0;i<edges.length;i++) {
    if (edges[i].id.substr(0,4)=='edge') {
      edges[i].setAttribute('class','edge');
    }
  }
}
]]></script>
        <defs>
                <circle id="rim" cx="0" cy="0" r="7"/>
                <circle id="rim2" cx="0" cy="0" r="3.5"/>
                <g id="zoomPlus">
                        <use xlink:href="#rim" fill="#404040">
                                <set attributeName="fill" to="#808080" begin="zoomplus.mouseover" end="zoomplus.mouseout"/>
                        </use>
                        <path d="M-4,0h8M0,-4v8" fill="none" stroke="white" stroke-width="1.5" pointer-events="none"/>
                </g>
                <g id="zoomMin">
                        <use xlink:href="#rim" fill="#404040">
                                <set attributeName="fill" to="#808080" begin="zoomminus.mouseover" end="zoomminus.mouseout"/>
                        </use>
                        <path d="M-4,0h8" fill="none" stroke="white" stroke-width="1.5" pointer-events="none"/>
                </g>
                <g id="dirArrow">
                        <path fill="none" stroke="white" stroke-width="1.5" d="M0,-3.0v7 M-2.5,-0.5L0,-3.0L2.5,-0.5"/>
                </g>
               <g id="resetDef">
                       <use xlink:href="#rim2" fill="#404040">
                               <set attributeName="fill" to="#808080" begin="reset.mouseover" end="reset.mouseout"/>
                       </use>
               </g>
        </defs>

<script type="text/javascript">
var viewWidth = 3618;
var viewHeight = 302;
var sectionId = 'dynsection-1';
</script>
<script xlink:href="svgpan.js"/>
<svg id="graph" class="graph">
<g id="viewport">
<title>build/include/dialects/core/autogen.h</title>
<!-- Node1 -->
<g id="node1" class="node">
<title>Node1</title>
<g id="a_node1"><a xlink:title=" ">
<polygon fill="#999999" stroke="#666666" points="2317,-294 2197,-294 2197,-264 2317,-264 2317,-294"/>
<text text-anchor="start" x="2205" y="-282" font-family="Helvetica,sans-Serif" font-size="10.00">build/include/dialects</text>
<text text-anchor="middle" x="2257" y="-271" font-family="Helvetica,sans-Serif" font-size="10.00">/core/autogen.h</text>
</a>
</g>
</g>
<!-- Node2 -->
<g id="node2" class="node">
<title>Node2</title>
<g id="a_node2"><a xlink:href="core_8h.html" target="_top" xlink:title=" ">
<polygon fill="white" stroke="#666666" points="983,-228 871,-228 871,-209 983,-209 983,-228"/>
<text text-anchor="middle" x="927" y="-216" font-family="Helvetica,sans-Serif" font-size="10.00">dialects/core/core.h</text>
</a>
</g>
</g>
<!-- Node1&#45;&gt;Node2 -->
<g id="edge1" class="edge">
<title>Node1&#45;&gt;Node2</title>
<path fill="none" stroke="#63b8ff" d="M2186.7,-274.91C1951.62,-264.57 1195.8,-231.32 983.14,-221.97"/>
<polygon fill="#63b8ff" stroke="#63b8ff" points="2186.69,-278.41 2196.83,-275.35 2187,-271.42 2186.69,-278.41"/>
</g>
<!-- Node13 -->
<g id="node13" class="node">
<title>Node13</title>
<g id="a_node13"><a xlink:href="lower__matrix__lowlevel_8cpp.html" target="_top" xlink:title=" ">
<polygon fill="white" stroke="#666666" points="3507.5,-30 3356.5,-30 3356.5,0 3507.5,0 3507.5,-30"/>
<text text-anchor="start" x="3364.5" y="-18" font-family="Helvetica,sans-Serif" font-size="10.00">dialects/matrix/pass</text>
<text text-anchor="middle" x="3432" y="-7" font-family="Helvetica,sans-Serif" font-size="10.00">/lower_matrix_lowlevel.cpp</text>
</a>
</g>
</g>
<!-- Node1&#45;&gt;Node13 -->
<g id="edge51" class="edge">
<title>Node1&#45;&gt;Node13</title>
<path fill="none" stroke="#63b8ff" d="M2327.29,-277.94C2591.16,-277 3512.1,-266.97 3599,-173 3616.37,-154.21 3611.67,-95.74 3586,-66 3566.35,-43.23 3536.22,-30.76 3507.81,-23.96"/>
<polygon fill="#63b8ff" stroke="#63b8ff" points="2327.06,-274.44 2317.07,-277.97 2327.08,-281.44 2327.06,-274.44"/>
</g>
<!-- Node3 -->
<g id="node3" class="node">
<title>Node3</title>
<g id="a_node3"><a xlink:href="autodiff__rewrite__inner_8cpp.html" target="_top" xlink:title=" ">
<polygon fill="white" stroke="#666666" points="949,-173 803,-173 803,-143 949,-143 949,-173"/>
<text text-anchor="start" x="811" y="-161" font-family="Helvetica,sans-Serif" font-size="10.00">dialects/autodiff/auxiliary</text>
<text text-anchor="middle" x="876" y="-150" font-family="Helvetica,sans-Serif" font-size="10.00">/autodiff_rewrite_inner.cpp</text>
</a>
</g>
</g>
<!-- Node2&#45;&gt;Node3 -->
<g id="edge2" class="edge">
<title>Node2&#45;&gt;Node3</title>
<path fill="none" stroke="#63b8ff" d="M912.75,-201.15C905.06,-192.34 895.67,-181.56 888.31,-173.11"/>
<polygon fill="#63b8ff" stroke="#63b8ff" points="910.27,-203.63 919.47,-208.87 915.54,-199.03 910.27,-203.63"/>
</g>
<!-- Node4 -->
<g id="node4" class="node">
<title>Node4</title>
<g id="a_node4"><a xlink:href="autodiff_2normalizers_8cpp.html" target="_top" xlink:title=" ">
<polygon fill="white" stroke="#666666" points="176,-167.5 0,-167.5 0,-148.5 176,-148.5 176,-167.5"/>
<text text-anchor="middle" x="88" y="-155.5" font-family="Helvetica,sans-Serif" font-size="10.00">dialects/autodiff/normalizers.cpp</text>
</a>
</g>
</g>
<!-- Node2&#45;&gt;Node4 -->
<g id="edge3" class="edge">
<title>Node2&#45;&gt;Node4</title>
<path fill="none" stroke="#63b8ff" d="M860.82,-215.19C731.62,-210.32 436.85,-197.36 190,-173 175.15,-171.53 159.13,-169.54 144.29,-167.51"/>
<polygon fill="#63b8ff" stroke="#63b8ff" points="860.83,-218.7 870.95,-215.57 861.09,-211.7 860.83,-218.7"/>
</g>
<!-- Node5 -->
<g id="node5" class="node">
<title>Node5</title>
<g id="a_node5"><a xlink:href="autodiff__eval_8cpp.html" target="_top" xlink:title=" ">
<polygon fill="white" stroke="#666666" points="391.5,-101.5 270.5,-101.5 270.5,-71.5 391.5,-71.5 391.5,-101.5"/>
<text text-anchor="start" x="278.5" y="-89.5" font-family="Helvetica,sans-Serif" font-size="10.00">dialects/autodiff/pass</text>
<text text-anchor="middle" x="331" y="-78.5" font-family="Helvetica,sans-Serif" font-size="10.00">/autodiff_eval.cpp</text>
</a>
</g>
</g>
<!-- Node2&#45;&gt;Node5 -->
<g id="edge4" class="edge">
<title>Node2&#45;&gt;Node5</title>
<path fill="none" stroke="#63b8ff" d="M860.54,-211.02C796.82,-204.11 698.15,-191.58 614,-173 525.79,-153.52 425.11,-120.42 370.8,-101.62"/>
<polygon fill="#63b8ff" stroke="#63b8ff" points="860.53,-214.54 870.85,-212.12 861.28,-207.58 860.53,-214.54"/>
</g>
<!-- Node6 -->
<g id="node6" class="node">
<title>Node6</title>
<g id="a_node6"><a xlink:href="autodiff__zero_8cpp.html" target="_top" xlink:title=" ">
<polygon fill="white" stroke="#666666" points="530.5,-101.5 409.5,-101.5 409.5,-71.5 530.5,-71.5 530.5,-101.5"/>
<text text-anchor="start" x="417.5" y="-89.5" font-family="Helvetica,sans-Serif" font-size="10.00">dialects/autodiff/pass</text>
<text text-anchor="middle" x="470" y="-78.5" font-family="Helvetica,sans-Serif" font-size="10.00">/autodiff_zero.cpp</text>
</a>
</g>
</g>
<!-- Node2&#45;&gt;Node6 -->
<g id="edge5" class="edge">
<title>Node2&#45;&gt;Node6</title>
<path fill="none" stroke="#63b8ff" d="M866.04,-207.16C822.71,-199.26 763.33,-187.31 712,-173 637.1,-152.12 551.87,-119.98 505.19,-101.63"/>
<polygon fill="#63b8ff" stroke="#63b8ff" points="865.68,-210.65 876.14,-208.98 866.92,-203.76 865.68,-210.65"/>
</g>
<!-- Node7 -->
<g id="node7" class="node">
<title>Node7</title>
<g id="a_node7"><a xlink:href="autodiff__zero__cleanup_8cpp.html" target="_top" xlink:title=" ">
<polygon fill="white" stroke="#666666" points="695.5,-101.5 548.5,-101.5 548.5,-71.5 695.5,-71.5 695.5,-101.5"/>
<text text-anchor="start" x="556.5" y="-89.5" font-family="Helvetica,sans-Serif" font-size="10.00">dialects/autodiff/pass</text>
<text text-anchor="middle" x="622" y="-78.5" font-family="Helvetica,sans-Serif" font-size="10.00">/autodiff_zero_cleanup.cpp</text>
</a>
</g>
</g>
<!-- Node2&#45;&gt;Node7 -->
<g id="edge6" class="edge">
<title>Node2&#45;&gt;Node7</title>
<path fill="none" stroke="#63b8ff" d="M880.03,-206.51C849.75,-198.73 809.86,-187.18 776,-173 726.64,-152.32 672.8,-119.96 643.67,-101.55"/>
<polygon fill="#63b8ff" stroke="#63b8ff" points="879.36,-209.95 889.91,-209 881.07,-203.16 879.36,-209.95"/>
</g>
<!-- Node8 -->
<g id="node8" class="node">
<title>Node8</title>
<g id="a_node8"><a xlink:href="clos2sjlj_8cpp.html" target="_top" xlink:title=" ">
<polygon fill="white" stroke="#666666" points="631.5,-30 528.5,-30 528.5,0 631.5,0 631.5,-30"/>
<text text-anchor="start" x="536.5" y="-18" font-family="Helvetica,sans-Serif" font-size="10.00">dialects/clos/pass</text>
<text text-anchor="middle" x="580" y="-7" font-family="Helvetica,sans-Serif" font-size="10.00">/rw/clos2sjlj.cpp</text>
</a>
</g>
</g>
<!-- Node2&#45;&gt;Node8 -->
<g id="edge7" class="edge">
<title>Node2&#45;&gt;Node8</title>
<path fill="none" stroke="#63b8ff" d="M860.8,-218.28C722.23,-219.02 406.4,-215.79 309,-173 269.85,-155.8 255.94,-146.26 239,-107 231.78,-90.27 227.09,-79.79 239,-66 275.77,-23.44 442.44,-16.43 528.39,-15.7"/>
<polygon fill="#63b8ff" stroke="#63b8ff" points="860.89,-221.78 870.87,-218.22 860.84,-214.78 860.89,-221.78"/>
</g>
<!-- Node9 -->
<g id="node9" class="node">
<title>Node9</title>
<g id="a_node9"><a xlink:href="ll_8cpp.html" target="_top" xlink:title=" ">
<polygon fill="white" stroke="#666666" points="836.5,-96 713.5,-96 713.5,-77 836.5,-77 836.5,-96"/>
<text text-anchor="middle" x="775" y="-84" font-family="Helvetica,sans-Serif" font-size="10.00">dialects/core/be/ll.cpp</text>
</a>
</g>
</g>
<!-- Node2&#45;&gt;Node9 -->
<g id="edge8" class="edge">
<title>Node2&#45;&gt;Node9</title>
<path fill="none" stroke="#63b8ff" d="M860.95,-209.23C836.79,-202.99 811.19,-192.08 794,-173 774.26,-151.08 773.52,-113.28 774.33,-96.26"/>
<polygon fill="#63b8ff" stroke="#63b8ff" points="860.3,-212.67 870.83,-211.55 861.9,-205.85 860.3,-212.67"/>
</g>
<!-- Node10 -->
<g id="node10" class="node">
<title>Node10</title>
<g id="a_node10"><a xlink:href="core_8cpp.html" target="_top" xlink:title=" ">
<polygon fill="white" stroke="#666666" points="3571.5,-167.5 3448.5,-167.5 3448.5,-148.5 3571.5,-148.5 3571.5,-167.5"/>
<text text-anchor="middle" x="3510" y="-155.5" font-family="Helvetica,sans-Serif" font-size="10.00">dialects/core/core.cpp</text>
</a>
</g>
</g>
<!-- Node2&#45;&gt;Node10 -->
<g id="edge9" class="edge">
<title>Node2&#45;&gt;Node10</title>
<path fill="none" stroke="#63b8ff" d="M993.22,-217.8C1339.04,-219.13 2940.47,-222.5 3434,-173 3446.01,-171.8 3458.97,-169.71 3470.73,-167.51"/>
<polygon fill="#63b8ff" stroke="#63b8ff" points="993.13,-214.3 983.12,-217.76 993.11,-221.3 993.13,-214.3"/>
</g>
<!-- Node11 -->
<g id="node11" class="node">
<title>Node11</title>
<g id="a_node11"><a xlink:href="core_2normalizers_8cpp.html" target="_top" xlink:title=" ">
<polygon fill="white" stroke="#666666" points="1015,-96 855,-96 855,-77 1015,-77 1015,-96"/>
<text text-anchor="middle" x="935" y="-84" font-family="Helvetica,sans-Serif" font-size="10.00">dialects/core/normalizers.cpp</text>
</a>
</g>
</g>
<!-- Node2&#45;&gt;Node11 -->
<g id="edge10" class="edge">
<title>Node2&#45;&gt;Node11</title>
<path fill="none" stroke="#63b8ff" d="M941.97,-201.18C948.22,-193.28 954.77,-183.29 958,-173 966.75,-145.14 949.84,-111.54 940.54,-96.06"/>
<polygon fill="#63b8ff" stroke="#63b8ff" points="939.27,-198.96 935.48,-208.85 944.61,-203.48 939.27,-198.96"/>
</g>
<!-- Node12 -->
<g id="node12" class="node">
<title>Node12</title>
<g id="a_node12"><a xlink:href="lower__matrix__highlevel_8cpp.html" target="_top" xlink:title=" ">
<polygon fill="white" stroke="#666666" points="1318.5,-30 1163.5,-30 1163.5,0 1318.5,0 1318.5,-30"/>
<text text-anchor="start" x="1171.5" y="-18" font-family="Helvetica,sans-Serif" font-size="10.00">dialects/matrix/pass</text>
<text text-anchor="middle" x="1241" y="-7" font-family="Helvetica,sans-Serif" font-size="10.00">/lower_matrix_highlevel.cpp</text>
</a>
</g>
</g>
<!-- Node2&#45;&gt;Node12 -->
<g id="edge11" class="edge">
<title>Node2&#45;&gt;Node12</title>
<path fill="none" stroke="#63b8ff" d="M860.75,-214C776.38,-208.78 626.38,-196.86 500,-173 385.64,-151.4 180.38,-149.94 261,-66 295.39,-30.19 1104.6,-34.95 1154,-30 1157.04,-29.69 1160.14,-29.35 1163.27,-28.98"/>
<polygon fill="#63b8ff" stroke="#63b8ff" points="860.77,-217.51 870.96,-214.62 861.19,-210.52 860.77,-217.51"/>
</g>
<!-- Node2&#45;&gt;Node13 -->
<g id="edge12" class="edge">
<title>Node2&#45;&gt;Node13</title>
<path fill="none" stroke="#63b8ff" d="M993.31,-217.66C1399.36,-218.49 3534.22,-220.57 3581,-173 3601.79,-151.86 3586.11,-94.2 3561,-66 3545.66,-48.78 3523.69,-37.44 3502.21,-30"/>
<polygon fill="#63b8ff" stroke="#63b8ff" points="993.21,-214.16 983.2,-217.64 993.19,-221.16 993.21,-214.16"/>
</g>
<!-- Node14 -->
<g id="node14" class="node">
<title>Node14</title>
<g id="a_node14"><a xlink:href="lower__matrix__mediumlevel_8cpp.html" target="_top" xlink:title=" ">
<polygon fill="white" stroke="#666666" points="3036,-30 2862,-30 2862,0 3036,0 3036,-30"/>
<text text-anchor="start" x="2870" y="-18" font-family="Helvetica,sans-Serif" font-size="10.00">dialects/matrix/pass</text>
<text text-anchor="middle" x="2949" y="-7" font-family="Helvetica,sans-Serif" font-size="10.00">/lower_matrix_mediumlevel.cpp</text>
</a>
</g>
</g>
<!-- Node2&#45;&gt;Node14 -->
<g id="edge13" class="edge">
<title>Node2&#45;&gt;Node14</title>
<path fill="none" stroke="#63b8ff" d="M993.41,-217.33C1392.19,-215.97 3454.69,-204.26 3543,-107 3555.25,-93.51 3555.33,-79.41 3543,-66 3526.1,-47.62 3197.07,-28.53 3036.15,-20.25"/>
<polygon fill="#63b8ff" stroke="#63b8ff" points="993.18,-213.83 983.2,-217.36 993.21,-220.83 993.18,-213.83"/>
</g>
<!-- Node15 -->
<g id="node15" class="node">
<title>Node15</title>
<g id="a_node15"><a xlink:href="mem_8h.html" target="_top" xlink:title=" ">
<polygon fill="white" stroke="#666666" points="1990.5,-167.5 1869.5,-167.5 1869.5,-148.5 1990.5,-148.5 1990.5,-167.5"/>
<text text-anchor="middle" x="1930" y="-155.5" font-family="Helvetica,sans-Serif" font-size="10.00">dialects/mem/mem.h</text>
</a>
</g>
</g>
<!-- Node2&#45;&gt;Node15 -->
<g id="edge14" class="edge">
<title>Node2&#45;&gt;Node15</title>
<path fill="none" stroke="#63b8ff" d="M993.14,-213.64C1176.98,-202.92 1692.17,-172.87 1869.29,-162.54"/>
<polygon fill="#63b8ff" stroke="#63b8ff" points="992.85,-210.15 983.07,-214.23 993.26,-217.14 992.85,-210.15"/>
</g>
<!-- Node35 -->
<g id="node35" class="node">
<title>Node35</title>
<g id="a_node35"><a xlink:href="dfa2matcher_8cpp.html" target="_top" xlink:title=" ">
<polygon fill="white" stroke="#666666" points="3404.5,-101.5 3293.5,-101.5 3293.5,-71.5 3404.5,-71.5 3404.5,-101.5"/>
<text text-anchor="start" x="3301.5" y="-89.5" font-family="Helvetica,sans-Serif" font-size="10.00">dialects/regex/pass</text>
<text text-anchor="middle" x="3349" y="-78.5" font-family="Helvetica,sans-Serif" font-size="10.00">/dfa2matcher.cpp</text>
</a>
</g>
</g>
<!-- Node2&#45;&gt;Node35 -->
<g id="edge49" class="edge">
<title>Node2&#45;&gt;Node35</title>
<path fill="none" stroke="#63b8ff" d="M993.27,-214.98C1161.42,-208.54 1618.32,-190.72 1999,-173 2568.03,-146.52 2716.78,-198.65 3279,-107 3287.22,-105.66 3295.85,-103.72 3304.14,-101.57"/>
<polygon fill="#63b8ff" stroke="#63b8ff" points="992.95,-211.49 983.09,-215.37 993.22,-218.48 992.95,-211.49"/>
</g>
<!-- Node36 -->
<g id="node36" class="node">
<title>Node36</title>
<g id="a_node36"><a xlink:href="lower__regex_8cpp.html" target="_top" xlink:title=" ">
<polygon fill="white" stroke="#666666" points="3533.5,-101.5 3422.5,-101.5 3422.5,-71.5 3533.5,-71.5 3533.5,-101.5"/>
<text text-anchor="start" x="3430.5" y="-89.5" font-family="Helvetica,sans-Serif" font-size="10.00">dialects/regex/pass</text>
<text text-anchor="middle" x="3478" y="-78.5" font-family="Helvetica,sans-Serif" font-size="10.00">/lower_regex.cpp</text>
</a>
</g>
</g>
<!-- Node2&#45;&gt;Node36 -->
<g id="edge50" class="edge">
<title>Node2&#45;&gt;Node36</title>
<path fill="none" stroke="#63b8ff" d="M993.09,-216.73C1211.12,-213.97 1927.44,-203.06 2519,-173 2917.34,-152.76 3021.92,-180.24 3414,-107 3421.42,-105.61 3429.2,-103.67 3436.68,-101.55"/>
<polygon fill="#63b8ff" stroke="#63b8ff" points="993.04,-213.23 983.08,-216.86 993.13,-220.23 993.04,-213.23"/>
</g>
<!-- Node15&#45;&gt;Node5 -->
<g id="edge17" class="edge">
<title>Node15&#45;&gt;Node5</title>
<path fill="none" stroke="#63b8ff" d="M1859.29,-155.7C1577.78,-150.38 544.95,-129.51 400,-107 391.64,-105.7 382.85,-103.72 374.45,-101.5"/>
<polygon fill="#63b8ff" stroke="#63b8ff" points="1859.31,-159.2 1869.38,-155.89 1859.45,-152.2 1859.31,-159.2"/>
</g>
<!-- Node15&#45;&gt;Node6 -->
<g id="edge18" class="edge">
<title>Node15&#45;&gt;Node6</title>
<path fill="none" stroke="#63b8ff" d="M1858.96,-156.69C1612.79,-155.27 797.29,-147.54 539,-107 530.76,-105.71 522.11,-103.75 513.82,-101.58"/>
<polygon fill="#63b8ff" stroke="#63b8ff" points="1859.19,-160.19 1869.21,-156.75 1859.23,-153.19 1859.19,-160.19"/>
</g>
<!-- Node15&#45;&gt;Node7 -->
<g id="edge19" class="edge">
<title>Node15&#45;&gt;Node7</title>
<path fill="none" stroke="#63b8ff" d="M1859.16,-155.9C1632.93,-152.13 929.5,-138.11 704,-107 694.29,-105.66 684.04,-103.69 674.21,-101.5"/>
<polygon fill="#63b8ff" stroke="#63b8ff" points="1859.19,-159.41 1869.25,-156.07 1859.31,-152.41 1859.19,-159.41"/>
</g>
<!-- Node15&#45;&gt;Node9 -->
<g id="edge28" class="edge">
<title>Node15&#45;&gt;Node9</title>
<path fill="none" stroke="#63b8ff" d="M1858.94,-155.78C1650.35,-151.87 1042.14,-138.06 846,-107 830.72,-104.58 814.03,-100.09 800.66,-96.03"/>
<polygon fill="#63b8ff" stroke="#63b8ff" points="1859.1,-159.28 1869.16,-155.97 1859.23,-152.28 1859.1,-159.28"/>
</g>
<!-- Node15&#45;&gt;Node11 -->
<g id="edge29" class="edge">
<title>Node15&#45;&gt;Node11</title>
<path fill="none" stroke="#63b8ff" d="M1859.04,-156.95C1705.83,-155.99 1332.98,-149.1 1024,-107 1005.35,-104.46 984.81,-100.07 968.16,-96.09"/>
<polygon fill="#63b8ff" stroke="#63b8ff" points="1859.23,-160.45 1869.25,-157 1859.27,-153.45 1859.23,-160.45"/>
</g>
<!-- Node15&#45;&gt;Node12 -->
<g id="edge36" class="edge">
<title>Node15&#45;&gt;Node12</title>
<path fill="none" stroke="#63b8ff" d="M1859.39,-157.62C1682.19,-158.43 1229.53,-155.68 1184,-107 1171.55,-93.69 1176.48,-82.6 1184,-66 1190.79,-51.01 1204.54,-38.74 1216.83,-30.1"/>
<polygon fill="#63b8ff" stroke="#63b8ff" points="1859.41,-161.12 1869.4,-157.57 1859.38,-154.12 1859.41,-161.12"/>
</g>
<!-- Node15&#45;&gt;Node13 -->
<g id="edge37" class="edge">
<title>Node15&#45;&gt;Node13</title>
<path fill="none" stroke="#63b8ff" d="M2000.79,-154.15C2072.06,-151.28 2185.16,-146.77 2283,-143 2390,-138.88 3148.4,-151.04 3246,-107 3268.92,-96.66 3263.81,-79.55 3285,-66 3310.66,-49.58 3342.31,-37.92 3369.66,-30.01"/>
<polygon fill="#63b8ff" stroke="#63b8ff" points="2000.44,-150.66 1990.59,-154.56 2000.72,-157.65 2000.44,-150.66"/>
</g>
<!-- Node15&#45;&gt;Node14 -->
<g id="edge38" class="edge">
<title>Node15&#45;&gt;Node14</title>
<path fill="none" stroke="#63b8ff" d="M2000.86,-154.02C2227.45,-144.42 2920.13,-114.5 2929,-107 2951.23,-88.19 2952.09,-50.84 2950.64,-30.33"/>
<polygon fill="#63b8ff" stroke="#63b8ff" points="2000.59,-150.53 1990.75,-154.45 2000.89,-157.52 2000.59,-150.53"/>
</g>
<!-- Node16 -->
<g id="node16" class="node">
<title>Node16</title>
<g id="a_node16"><a xlink:href="lower__for_8cpp.html" target="_top" xlink:title=" ">
<polygon fill="white" stroke="#666666" points="2610.5,-101.5 2499.5,-101.5 2499.5,-71.5 2610.5,-71.5 2610.5,-101.5"/>
<text text-anchor="start" x="2507.5" y="-89.5" font-family="Helvetica,sans-Serif" font-size="10.00">dialects/affine/pass</text>
<text text-anchor="middle" x="2555" y="-78.5" font-family="Helvetica,sans-Serif" font-size="10.00">/lower_for.cpp</text>
</a>
</g>
</g>
<!-- Node15&#45;&gt;Node16 -->
<g id="edge15" class="edge">
<title>Node15&#45;&gt;Node16</title>
<path fill="none" stroke="#63b8ff" d="M2000.66,-155.27C2107.49,-151.62 2316.13,-140.48 2490,-107 2497.4,-105.57 2505.17,-103.64 2512.65,-101.55"/>
<polygon fill="#63b8ff" stroke="#63b8ff" points="2000.52,-151.77 1990.64,-155.6 2000.75,-158.77 2000.52,-151.77"/>
</g>
<!-- Node17 -->
<g id="node17" class="node">
<title>Node17</title>
<g id="a_node17"><a xlink:href="autodiff_8cpp.html" target="_top" xlink:title=" ">
<polygon fill="white" stroke="#666666" points="2785,-96 2629,-96 2629,-77 2785,-77 2785,-96"/>
<text text-anchor="middle" x="2707" y="-84" font-family="Helvetica,sans-Serif" font-size="10.00">dialects/autodiff/autodiff.cpp</text>
</a>
</g>
</g>
<!-- Node15&#45;&gt;Node17 -->
<g id="edge16" class="edge">
<title>Node15&#45;&gt;Node17</title>
<path fill="none" stroke="#63b8ff" d="M2000.91,-155.26C2126.23,-151.42 2394.79,-139.8 2619,-107 2637.27,-104.33 2657.39,-99.98 2673.78,-96.06"/>
<polygon fill="#63b8ff" stroke="#63b8ff" points="2000.58,-151.76 1990.69,-155.56 2000.79,-158.76 2000.58,-151.76"/>
</g>
<!-- Node18 -->
<g id="node18" class="node">
<title>Node18</title>
<g id="a_node18"><a xlink:href="lower__typed__clos__prep_8cpp.html" target="_top" xlink:title=" ">
<polygon fill="white" stroke="#666666" points="2920.5,-107 2803.5,-107 2803.5,-66 2920.5,-66 2920.5,-107"/>
<text text-anchor="start" x="2811.5" y="-95" font-family="Helvetica,sans-Serif" font-size="10.00">dialects/clos/pass</text>
<text text-anchor="start" x="2811.5" y="-84" font-family="Helvetica,sans-Serif" font-size="10.00">/fp/lower_typed_clos</text>
<text text-anchor="middle" x="2862" y="-73" font-family="Helvetica,sans-Serif" font-size="10.00">_prep.cpp</text>
</a>
</g>
</g>
<!-- Node15&#45;&gt;Node18 -->
<g id="edge20" class="edge">
<title>Node15&#45;&gt;Node18</title>
<path fill="none" stroke="#63b8ff" d="M2000.51,-153.82C2192.75,-145.02 2716.83,-120.13 2794,-107 2797.03,-106.48 2800.11,-105.88 2803.21,-105.22"/>
<polygon fill="#63b8ff" stroke="#63b8ff" points="2000.34,-150.32 1990.51,-154.28 2000.66,-157.31 2000.34,-150.32"/>
</g>
<!-- Node19 -->
<g id="node19" class="node">
<title>Node19</title>
<g id="a_node19"><a xlink:href="clos2sjlj_8h.html" target="_top" xlink:title=" ">
<polygon fill="white" stroke="#666666" points="1136.5,-101.5 1033.5,-101.5 1033.5,-71.5 1136.5,-71.5 1136.5,-101.5"/>
<text text-anchor="start" x="1041.5" y="-89.5" font-family="Helvetica,sans-Serif" font-size="10.00">dialects/clos/pass</text>
<text text-anchor="middle" x="1085" y="-78.5" font-family="Helvetica,sans-Serif" font-size="10.00">/rw/clos2sjlj.h</text>
</a>
</g>
</g>
<!-- Node15&#45;&gt;Node19 -->
<g id="edge21" class="edge">
<title>Node15&#45;&gt;Node19</title>
<path fill="none" stroke="#63b8ff" d="M1858.94,-157.71C1721.22,-157.93 1408.82,-152.77 1151,-107 1143.24,-105.62 1135.09,-103.66 1127.27,-101.5"/>
<polygon fill="#63b8ff" stroke="#63b8ff" points="1859.35,-161.21 1869.34,-157.68 1859.33,-154.21 1859.35,-161.21"/>
</g>
<!-- Node21 -->
<g id="node21" class="node">
<title>Node21</title>
<g id="a_node21"><a xlink:href="clos__conv_8cpp.html" target="_top" xlink:title=" ">
<polygon fill="white" stroke="#666666" points="3087,-101.5 2977,-101.5 2977,-71.5 3087,-71.5 3087,-101.5"/>
<text text-anchor="start" x="2985" y="-89.5" font-family="Helvetica,sans-Serif" font-size="10.00">dialects/clos/phase</text>
<text text-anchor="middle" x="3032" y="-78.5" font-family="Helvetica,sans-Serif" font-size="10.00">/clos_conv.cpp</text>
</a>
</g>
</g>
<!-- Node15&#45;&gt;Node21 -->
<g id="edge24" class="edge">
<title>Node15&#45;&gt;Node21</title>
<path fill="none" stroke="#63b8ff" d="M2000.58,-154.02C2225.84,-144.47 2915.61,-114.74 2963,-107 2971.11,-105.68 2979.62,-103.74 2987.79,-101.59"/>
<polygon fill="#63b8ff" stroke="#63b8ff" points="2000.37,-150.53 1990.53,-154.45 2000.67,-157.52 2000.37,-150.53"/>
</g>
<!-- Node22 -->
<g id="node22" class="node">
<title>Node22</title>
<g id="a_node22"><a xlink:href="lower__typed__clos_8h.html" target="_top" xlink:title=" ">
<polygon fill="white" stroke="#666666" points="2328.5,-101.5 2215.5,-101.5 2215.5,-71.5 2328.5,-71.5 2328.5,-101.5"/>
<text text-anchor="start" x="2223.5" y="-89.5" font-family="Helvetica,sans-Serif" font-size="10.00">dialects/clos/phase</text>
<text text-anchor="middle" x="2272" y="-78.5" font-family="Helvetica,sans-Serif" font-size="10.00">/lower_typed_clos.h</text>
</a>
</g>
</g>
<!-- Node15&#45;&gt;Node22 -->
<g id="edge25" class="edge">
<title>Node15&#45;&gt;Node22</title>
<path fill="none" stroke="#63b8ff" d="M1997.37,-146.88C2053.52,-137.95 2135.42,-123.77 2206,-107 2212.74,-105.4 2219.82,-103.52 2226.73,-101.58"/>
<polygon fill="#63b8ff" stroke="#63b8ff" points="1996.53,-143.47 1987.2,-148.49 1997.62,-150.39 1996.53,-143.47"/>
</g>
<!-- Node24 -->
<g id="node24" class="node">
<title>Node24</title>
<g id="a_node24"><a xlink:href="matrix_8h.html" target="_top" xlink:title=" ">
<polygon fill="white" stroke="#666666" points="2481,-96 2347,-96 2347,-77 2481,-77 2481,-96"/>
<text text-anchor="middle" x="2414" y="-84" font-family="Helvetica,sans-Serif" font-size="10.00">dialects/matrix/matrix.h</text>
</a>
</g>
</g>
<!-- Node15&#45;&gt;Node24 -->
<g id="edge30" class="edge">
<title>Node15&#45;&gt;Node24</title>
<path fill="none" stroke="#63b8ff" d="M2000.85,-151.02C2082.38,-143.51 2220.07,-128.9 2337,-107 2352.59,-104.08 2369.71,-99.85 2383.84,-96.07"/>
<polygon fill="#63b8ff" stroke="#63b8ff" points="2000.34,-147.55 1990.7,-151.95 2000.98,-154.52 2000.34,-147.55"/>
</g>
<!-- Node27 -->
<g id="node27" class="node">
<title>Node27</title>
<g id="a_node27"><a xlink:href="mem_8cpp.html" target="_top" xlink:title=" ">
<polygon fill="white" stroke="#666666" points="3237,-96 3105,-96 3105,-77 3237,-77 3237,-96"/>
<text text-anchor="middle" x="3171" y="-84" font-family="Helvetica,sans-Serif" font-size="10.00">dialects/mem/mem.cpp</text>
</a>
</g>
</g>
<!-- Node15&#45;&gt;Node27 -->
<g id="edge39" class="edge">
<title>Node15&#45;&gt;Node27</title>
<path fill="none" stroke="#63b8ff" d="M2000.65,-154.17C2249.05,-144.2 3068.81,-111.07 3096,-107 3112.1,-104.59 3129.74,-100.1 3143.86,-96.04"/>
<polygon fill="#63b8ff" stroke="#63b8ff" points="2000.5,-150.67 1990.65,-154.57 2000.79,-157.67 2000.5,-150.67"/>
</g>
<!-- Node28 -->
<g id="node28" class="node">
<title>Node28</title>
<g id="a_node28"><a xlink:href="mem_2normalizers_8cpp.html" target="_top" xlink:title=" ">
<polygon fill="white" stroke="#666666" points="1357,-96 1193,-96 1193,-77 1357,-77 1357,-96"/>
<text text-anchor="middle" x="1275" y="-84" font-family="Helvetica,sans-Serif" font-size="10.00">dialects/mem/normalizers.cpp</text>
</a>
</g>
</g>
<!-- Node15&#45;&gt;Node28 -->
<g id="edge40" class="edge">
<title>Node15&#45;&gt;Node28</title>
<path fill="none" stroke="#63b8ff" d="M1859.15,-153.51C1751.95,-147.61 1542.32,-133.6 1366,-107 1347.31,-104.18 1326.69,-99.86 1309.82,-96.01"/>
<polygon fill="#63b8ff" stroke="#63b8ff" points="1859.02,-157.01 1869.2,-154.06 1859.4,-150.02 1859.02,-157.01"/>
</g>
<!-- Node29 -->
<g id="node29" class="node">
<title>Node29</title>
<g id="a_node29"><a xlink:href="copy__prop_8cpp.html" target="_top" xlink:title=" ">
<polygon fill="white" stroke="#666666" points="1497,-101.5 1375,-101.5 1375,-71.5 1497,-71.5 1497,-101.5"/>
<text text-anchor="start" x="1383" y="-89.5" font-family="Helvetica,sans-Serif" font-size="10.00">dialects/mem/pass/fp</text>
<text text-anchor="middle" x="1436" y="-78.5" font-family="Helvetica,sans-Serif" font-size="10.00">/copy_prop.cpp</text>
</a>
</g>
</g>
<!-- Node15&#45;&gt;Node29 -->
<g id="edge41" class="edge">
<title>Node15&#45;&gt;Node29</title>
<path fill="none" stroke="#63b8ff" d="M1859.15,-152.01C1774.53,-145.27 1628.99,-131.23 1506,-107 1498.33,-105.49 1490.26,-103.56 1482.45,-101.52"/>
<polygon fill="#63b8ff" stroke="#63b8ff" points="1858.91,-155.5 1869.16,-152.79 1859.46,-148.52 1858.91,-155.5"/>
</g>
<!-- Node30 -->
<g id="node30" class="node">
<title>Node30</title>
<g id="a_node30"><a xlink:href="ssa__constr_8cpp.html" target="_top" xlink:title=" ">
<polygon fill="white" stroke="#666666" points="1637,-101.5 1515,-101.5 1515,-71.5 1637,-71.5 1637,-101.5"/>
<text text-anchor="start" x="1523" y="-89.5" font-family="Helvetica,sans-Serif" font-size="10.00">dialects/mem/pass/fp</text>
<text text-anchor="middle" x="1576" y="-78.5" font-family="Helvetica,sans-Serif" font-size="10.00">/ssa_constr.cpp</text>
</a>
</g>
</g>
<!-- Node15&#45;&gt;Node30 -->
<g id="edge42" class="edge">
<title>Node15&#45;&gt;Node30</title>
<path fill="none" stroke="#63b8ff" d="M1861.91,-146.92C1804.15,-137.92 1719.23,-123.61 1646,-107 1638.86,-105.38 1631.37,-103.5 1624.04,-101.55"/>
<polygon fill="#63b8ff" stroke="#63b8ff" points="1861.6,-150.41 1872.01,-148.49 1862.67,-143.5 1861.6,-150.41"/>
</g>
<!-- Node31 -->
<g id="node31" class="node">
<title>Node31</title>
<g id="a_node31"><a xlink:href="alloc2malloc_8cpp.html" target="_top" xlink:title=" ">
<polygon fill="white" stroke="#666666" points="1779,-101.5 1655,-101.5 1655,-71.5 1779,-71.5 1779,-101.5"/>
<text text-anchor="start" x="1663" y="-89.5" font-family="Helvetica,sans-Serif" font-size="10.00">dialects/mem/pass/rw</text>
<text text-anchor="middle" x="1717" y="-78.5" font-family="Helvetica,sans-Serif" font-size="10.00">/alloc2malloc.cpp</text>
</a>
</g>
</g>
<!-- Node15&#45;&gt;Node31 -->
<g id="edge43" class="edge">
<title>Node15&#45;&gt;Node31</title>
<path fill="none" stroke="#63b8ff" d="M1894.02,-145.26C1856.99,-133.18 1799.31,-114.36 1759.93,-101.51"/>
<polygon fill="#63b8ff" stroke="#63b8ff" points="1893.29,-148.7 1903.88,-148.48 1895.46,-142.05 1893.29,-148.7"/>
</g>
<!-- Node32 -->
<g id="node32" class="node">
<title>Node32</title>
<g id="a_node32"><a xlink:href="dialects_2mem_2pass_2rw_2remem__elim_8cpp.html" target="_top" xlink:title=" ">
<polygon fill="white" stroke="#666666" points="1921,-101.5 1797,-101.5 1797,-71.5 1921,-71.5 1921,-101.5"/>
<text text-anchor="start" x="1805" y="-89.5" font-family="Helvetica,sans-Serif" font-size="10.00">dialects/mem/pass/rw</text>
<text text-anchor="middle" x="1859" y="-78.5" font-family="Helvetica,sans-Serif" font-size="10.00">/remem_elim.cpp</text>
</a>
</g>
</g>
<!-- Node15&#45;&gt;Node32 -->
<g id="edge44" class="edge">
<title>Node15&#45;&gt;Node32</title>
<path fill="none" stroke="#63b8ff" d="M1914.03,-141.37C1901.85,-129.45 1885.22,-113.17 1873.44,-101.64"/>
<polygon fill="#63b8ff" stroke="#63b8ff" points="1911.7,-143.98 1921.29,-148.48 1916.6,-138.98 1911.7,-143.98"/>
</g>
<!-- Node33 -->
<g id="node33" class="node">
<title>Node33</title>
<g id="a_node33"><a xlink:href="reshape_8cpp.html" target="_top" xlink:title=" ">
<polygon fill="white" stroke="#666666" points="2063,-101.5 1939,-101.5 1939,-71.5 2063,-71.5 2063,-101.5"/>
<text text-anchor="start" x="1947" y="-89.5" font-family="Helvetica,sans-Serif" font-size="10.00">dialects/mem/pass/rw</text>
<text text-anchor="middle" x="2001" y="-78.5" font-family="Helvetica,sans-Serif" font-size="10.00">/reshape.cpp</text>
</a>
</g>
</g>
<!-- Node15&#45;&gt;Node33 -->
<g id="edge45" class="edge">
<title>Node15&#45;&gt;Node33</title>
<path fill="none" stroke="#63b8ff" d="M1945.97,-141.37C1958.15,-129.45 1974.78,-113.17 1986.56,-101.64"/>
<polygon fill="#63b8ff" stroke="#63b8ff" points="1943.4,-138.98 1938.71,-148.48 1948.3,-143.98 1943.4,-138.98"/>
</g>
<!-- Node34 -->
<g id="node34" class="node">
<title>Node34</title>
<g id="a_node34"><a xlink:href="add__mem_8cpp.html" target="_top" xlink:title=" ">
<polygon fill="white" stroke="#666666" points="2197,-101.5 2081,-101.5 2081,-71.5 2197,-71.5 2197,-101.5"/>
<text text-anchor="start" x="2089" y="-89.5" font-family="Helvetica,sans-Serif" font-size="10.00">dialects/mem/phase</text>
<text text-anchor="middle" x="2139" y="-78.5" font-family="Helvetica,sans-Serif" font-size="10.00">/add_mem.cpp</text>
</a>
</g>
</g>
<!-- Node15&#45;&gt;Node34 -->
<g id="edge46" class="edge">
<title>Node15&#45;&gt;Node34</title>
<path fill="none" stroke="#63b8ff" d="M1965.31,-145.26C2001.64,-133.18 2058.23,-114.36 2096.88,-101.51"/>
<polygon fill="#63b8ff" stroke="#63b8ff" points="1964.01,-142 1955.63,-148.48 1966.22,-148.64 1964.01,-142"/>
</g>
<!-- Node15&#45;&gt;Node35 -->
<g id="edge47" class="edge">
<title>Node15&#45;&gt;Node35</title>
<path fill="none" stroke="#63b8ff" d="M2000.79,-154.12C2072.06,-151.24 2185.15,-146.71 2283,-143 2504.32,-134.61 3060.14,-140.95 3279,-107 3287.35,-105.7 3296.13,-103.75 3304.53,-101.57"/>
<polygon fill="#63b8ff" stroke="#63b8ff" points="2000.44,-150.63 1990.59,-154.53 2000.72,-157.62 2000.44,-150.63"/>
</g>
<!-- Node15&#45;&gt;Node36 -->
<g id="edge48" class="edge">
<title>Node15&#45;&gt;Node36</title>
<path fill="none" stroke="#63b8ff" d="M2001.01,-157.07C2257.74,-156.93 3137.16,-153.02 3414,-107 3421.79,-105.7 3429.96,-103.72 3437.75,-101.51"/>
<polygon fill="#63b8ff" stroke="#63b8ff" points="2000.7,-153.57 1990.7,-157.07 2000.7,-160.57 2000.7,-153.57"/>
</g>
<!-- Node19&#45;&gt;Node8 -->
<g id="edge23" class="edge">
<title>Node19&#45;&gt;Node8</title>
<path fill="none" stroke="#63b8ff" d="M1035.1,-68.68C1031.37,-67.69 1027.64,-66.78 1024,-66 884.05,-36.06 715.21,-23.3 631.81,-18.52"/>
<polygon fill="#63b8ff" stroke="#63b8ff" points="1034.37,-72.11 1044.94,-71.46 1036.27,-65.37 1034.37,-72.11"/>
</g>
<!-- Node20 -->
<g id="node20" class="node">
<title>Node20</title>
<g id="a_node20"><a xlink:href="clos_8cpp.html" target="_top" xlink:title=" ">
<polygon fill="white" stroke="#666666" points="1145,-24.5 1025,-24.5 1025,-5.5 1145,-5.5 1145,-24.5"/>
<text text-anchor="middle" x="1085" y="-12.5" font-family="Helvetica,sans-Serif" font-size="10.00">dialects/clos/clos.cpp</text>
</a>
</g>
</g>
<!-- Node19&#45;&gt;Node20 -->
<g id="edge22" class="edge">
<title>Node19&#45;&gt;Node20</title>
<path fill="none" stroke="#63b8ff" d="M1085,-61.06C1085,-48.45 1085,-33.85 1085,-24.77"/>
<polygon fill="#63b8ff" stroke="#63b8ff" points="1081.5,-61.44 1085,-71.44 1088.5,-61.44 1081.5,-61.44"/>
</g>
<!-- Node22&#45;&gt;Node20 -->
<g id="edge26" class="edge">
<title>Node22&#45;&gt;Node20</title>
<path fill="none" stroke="#63b8ff" d="M2220.33,-68.89C2215.52,-67.76 2210.69,-66.76 2206,-66 1744.2,8.88 1618.62,-84.7 1154,-30 1143.32,-28.74 1131.83,-26.69 1121.34,-24.55"/>
<polygon fill="#63b8ff" stroke="#63b8ff" points="2219.56,-72.31 2230.12,-71.4 2221.3,-65.53 2219.56,-72.31"/>
</g>
<!-- Node23 -->
<g id="node23" class="node">
<title>Node23</title>
<g id="a_node23"><a xlink:href="lower__typed__clos_8cpp.html" target="_top" xlink:title=" ">
<polygon fill="white" stroke="#666666" points="2310.5,-30 2185.5,-30 2185.5,0 2310.5,0 2310.5,-30"/>
<text text-anchor="start" x="2193.5" y="-18" font-family="Helvetica,sans-Serif" font-size="10.00">dialects/clos/phase</text>
<text text-anchor="middle" x="2248" y="-7" font-family="Helvetica,sans-Serif" font-size="10.00">/lower_typed_clos.cpp</text>
</a>
</g>
</g>
<!-- Node22&#45;&gt;Node23 -->
<g id="edge27" class="edge">
<title>Node22&#45;&gt;Node23</title>
<path fill="none" stroke="#63b8ff" d="M2263.85,-61.9C2260.19,-51.31 2256,-39.18 2252.85,-30.04"/>
<polygon fill="#63b8ff" stroke="#63b8ff" points="2260.57,-63.13 2267.14,-71.44 2267.19,-60.84 2260.57,-63.13"/>
</g>
<!-- Node24&#45;&gt;Node12 -->
<g id="edge33" class="edge">
<title>Node24&#45;&gt;Node12</title>
<path fill="none" stroke="#63b8ff" d="M2376.13,-74.29C2363.77,-71.06 2349.9,-67.91 2337,-66 2140.21,-36.9 1534.92,-22 1318.74,-17.5"/>
<polygon fill="#63b8ff" stroke="#63b8ff" points="2375.55,-77.76 2386.12,-76.99 2377.38,-71 2375.55,-77.76"/>
</g>
<!-- Node24&#45;&gt;Node13 -->
<g id="edge34" class="edge">
<title>Node24&#45;&gt;Node13</title>
<path fill="none" stroke="#63b8ff" d="M2451.68,-74.26C2463.81,-71.07 2477.38,-67.93 2490,-66 2574.48,-53.05 3147.55,-27.97 3356.21,-19.16"/>
<polygon fill="#63b8ff" stroke="#63b8ff" points="2450.6,-70.93 2441.88,-76.93 2452.45,-77.68 2450.6,-70.93"/>
</g>
<!-- Node24&#45;&gt;Node14 -->
<g id="edge35" class="edge">
<title>Node24&#45;&gt;Node14</title>
<path fill="none" stroke="#63b8ff" d="M2453.32,-74.27C2465.04,-71.23 2477.98,-68.19 2490,-66 2618.35,-42.67 2769.02,-28.79 2861.75,-21.78"/>
<polygon fill="#63b8ff" stroke="#63b8ff" points="2452.14,-70.96 2443.38,-76.92 2453.94,-77.73 2452.14,-70.96"/>
</g>
<!-- Node25 -->
<g id="node25" class="node">
<title>Node25</title>
<g id="a_node25"><a xlink:href="matrix_8cpp.html" target="_top" xlink:title=" ">
<polygon fill="white" stroke="#666666" points="2664,-24.5 2518,-24.5 2518,-5.5 2664,-5.5 2664,-24.5"/>
<text text-anchor="middle" x="2591" y="-12.5" font-family="Helvetica,sans-Serif" font-size="10.00">dialects/matrix/matrix.cpp</text>
</a>
</g>
</g>
<!-- Node24&#45;&gt;Node25 -->
<g id="edge31" class="edge">
<title>Node24&#45;&gt;Node25</title>
<path fill="none" stroke="#63b8ff" d="M2445.12,-73.28C2480.68,-59.32 2537.97,-36.82 2569.12,-24.59"/>
<polygon fill="#63b8ff" stroke="#63b8ff" points="2443.73,-70.07 2435.7,-76.98 2446.29,-76.58 2443.73,-70.07"/>
</g>
<!-- Node26 -->
<g id="node26" class="node">
<title>Node26</title>
<g id="a_node26"><a xlink:href="matrix_2normalizers_8cpp.html" target="_top" xlink:title=" ">
<polygon fill="white" stroke="#666666" points="2499.5,-24.5 2328.5,-24.5 2328.5,-5.5 2499.5,-5.5 2499.5,-24.5"/>
<text text-anchor="middle" x="2414" y="-12.5" font-family="Helvetica,sans-Serif" font-size="10.00">dialects/matrix/normalizers.cpp</text>
</a>
</g>
</g>
<!-- Node24&#45;&gt;Node26 -->
<g id="edge32" class="edge">
<title>Node24&#45;&gt;Node26</title>
<path fill="none" stroke="#63b8ff" d="M2414,-66.71C2414,-53 2414,-35.05 2414,-24.59"/>
<polygon fill="#63b8ff" stroke="#63b8ff" points="2410.5,-66.98 2414,-76.98 2417.5,-66.98 2410.5,-66.98"/>
</g>
</g>
</svg>
        <g id="navigator" transform="translate(0 0)" fill="#404254">
                <rect fill="#f2f5e9" fill-opacity="0.5" stroke="#606060" stroke-width=".5" x="0" y="0" width="60" height="60"/>
                <use id="zoomplus" xlink:href="#zoomPlus" x="17" y="9" onmousedown="handleZoom(evt,'in')"/>
                <use id="zoomminus" xlink:href="#zoomMin" x="42" y="9" onmousedown="handleZoom(evt,'out')"/>
                <use id="reset" xlink:href="#resetDef" x="30" y="36" onmousedown="handleReset()"/>
                <g id="arrowUp" xlink:href="#dirArrow" transform="translate(30 24)" onmousedown="handlePan(0,-1)">
                  <use xlink:href="#rim" fill="#404040">
                        <set attributeName="fill" to="#808080" begin="arrowUp.mouseover" end="arrowUp.mouseout"/>
                  </use>
                  <path fill="none" stroke="white" stroke-width="1.5" d="M0,-3.0v7 M-2.5,-0.5L0,-3.0L2.5,-0.5"/>
                </g>
                <g id="arrowRight" xlink:href="#dirArrow" transform="rotate(90) translate(36 -43)" onmousedown="handlePan(1,0)">
                  <use xlink:href="#rim" fill="#404040">
                        <set attributeName="fill" to="#808080" begin="arrowRight.mouseover" end="arrowRight.mouseout"/>
                  </use>
                  <path fill="none" stroke="white" stroke-width="1.5" d="M0,-3.0v7 M-2.5,-0.5L0,-3.0L2.5,-0.5"/>
                </g>
                <g id="arrowDown" xlink:href="#dirArrow" transform="rotate(180) translate(-30 -48)" onmousedown="handlePan(0,1)">
                  <use xlink:href="#rim" fill="#404040">
                        <set attributeName="fill" to="#808080" begin="arrowDown.mouseover" end="arrowDown.mouseout"/>
                  </use>
                  <path fill="none" stroke="white" stroke-width="1.5" d="M0,-3.0v7 M-2.5,-0.5L0,-3.0L2.5,-0.5"/>
                </g>
                <g id="arrowLeft" xlink:href="#dirArrow" transform="rotate(270) translate(-36 17)" onmousedown="handlePan(-1,0)">
                  <use xlink:href="#rim" fill="#404040">
                        <set attributeName="fill" to="#808080" begin="arrowLeft.mouseover" end="arrowLeft.mouseout"/>
                  </use>
                  <path fill="none" stroke="white" stroke-width="1.5" d="M0,-3.0v7 M-2.5,-0.5L0,-3.0L2.5,-0.5"/>
                </g>
        </g>
        <svg viewBox="0 0 15 15" width="100%" height="30px" preserveAspectRatio="xMaxYMin meet">
         <g id="arrow_out" transform="scale(0.3 0.3)">
          <a xlink:href="core_2autogen_8h__dep__incl_org.svg" target="_base">
           <rect id="button" ry="5" rx="5" y="6" x="6" height="38" width="38"
                fill="#f2f5e9" fill-opacity="0.5" stroke="#606060" stroke-width="1.0"/>
           <path id="arrow"
             d="M 11.500037,31.436501 C 11.940474,20.09759 22.043105,11.32322 32.158766,21.979434 L 37.068811,17.246167 C 37.068811,17.246167 37.088388,32 37.088388,32 L 22.160133,31.978069 C 22.160133,31.978069 26.997745,27.140456 26.997745,27.140456 C 18.528582,18.264221 13.291696,25.230495 11.500037,31.436501 z"
             style="fill:#404040;"/>
          </a>
         </g>
        </svg>
</svg>
