<?xml version="1.0" encoding="UTF-8" standalone="no"?>
<!DOCTYPE svg PUBLIC "-//W3C//DTD SVG 1.1//EN"
 "http://www.w3.org/Graphics/SVG/1.1/DTD/svg11.dtd">
<!-- Generated by graphviz version 2.50.0 (20220203.2022)
 -->
<!-- Title: thorin/pass/fp/dce.cpp Pages: 1 -->
<svg width="1941pt" height="599pt"
 viewBox="0.00 0.00 1941.00 599.00" xmlns="http://www.w3.org/2000/svg" xmlns:xlink="http://www.w3.org/1999/xlink">
<g id="graph0" class="graph" transform="scale(1 1) rotate(0) translate(4 595)">
<title>thorin/pass/fp/dce.cpp</title>
<!-- Node1 -->
<g id="node1" class="node">
<title>Node1</title>
<g id="a_node1"><a xlink:title=" ">
<polygon fill="#bfbfbf" stroke="black" points="1330.5,-571.5 1330.5,-590.5 1443.5,-590.5 1443.5,-571.5 1330.5,-571.5"/>
<text text-anchor="middle" x="1387" y="-578.5" font-family="Helvetica,sans-Serif" font-size="10.00">thorin/pass/fp/dce.cpp</text>
</a>
</g>
</g>
<!-- Node2 -->
<g id="node2" class="node">
<title>Node2</title>
<g id="a_node2"><a xlink:href="dce_8h.html" target="_top" xlink:title=" ">
<polygon fill="none" stroke="black" points="1221,-510 1221,-529 1323,-529 1323,-510 1221,-510"/>
<text text-anchor="middle" x="1272" y="-517" font-family="Helvetica,sans-Serif" font-size="10.00">thorin/pass/fp/dce.h</text>
</a>
</g>
</g>
<!-- Node1&#45;&gt;Node2 -->
<g id="edge1" class="edge">
<title>Node1&#45;&gt;Node2</title>
<path fill="none" stroke="midnightblue" d="M1370.52,-571.48C1351.39,-561.58 1319.63,-545.14 1297.35,-533.62"/>
<polygon fill="midnightblue" stroke="midnightblue" points="1298.94,-530.5 1288.45,-529.01 1295.72,-536.71 1298.94,-530.5"/>
</g>
<!-- Node50 -->
<g id="node49" class="node">
<title>Node50</title>
<g id="a_node49"><a xlink:href="beta__red_8h.html" target="_top" xlink:title=" ">
<polygon fill="none" stroke="black" points="1451,-504.5 1451,-534.5 1549,-534.5 1549,-504.5 1451,-504.5"/>
<text text-anchor="start" x="1459" y="-522.5" font-family="Helvetica,sans-Serif" font-size="10.00">thorin/pass/fp/beta</text>
<text text-anchor="middle" x="1500" y="-511.5" font-family="Helvetica,sans-Serif" font-size="10.00">_red.h</text>
</a>
</g>
</g>
<!-- Node1&#45;&gt;Node50 -->
<g id="edge86" class="edge">
<title>Node1&#45;&gt;Node50</title>
<path fill="none" stroke="midnightblue" d="M1403.19,-571.48C1419.07,-563.12 1443.8,-550.09 1464.3,-539.3"/>
<polygon fill="midnightblue" stroke="midnightblue" points="1466.15,-542.28 1473.37,-534.52 1462.89,-536.09 1466.15,-542.28"/>
</g>
<!-- Node51 -->
<g id="node50" class="node">
<title>Node51</title>
<g id="a_node50"><a xlink:href="eta__exp_8h.html" target="_top" xlink:title=" ">
<polygon fill="none" stroke="black" points="1341,-504.5 1341,-534.5 1433,-534.5 1433,-504.5 1341,-504.5"/>
<text text-anchor="start" x="1349" y="-522.5" font-family="Helvetica,sans-Serif" font-size="10.00">thorin/pass/fp/eta</text>
<text text-anchor="middle" x="1387" y="-511.5" font-family="Helvetica,sans-Serif" font-size="10.00">_exp.h</text>
</a>
</g>
</g>
<!-- Node1&#45;&gt;Node51 -->
<g id="edge88" class="edge">
<title>Node1&#45;&gt;Node51</title>
<path fill="none" stroke="midnightblue" d="M1387,-571.48C1387,-564.47 1387,-554.19 1387,-544.7"/>
<polygon fill="midnightblue" stroke="midnightblue" points="1390.5,-544.52 1387,-534.52 1383.5,-544.52 1390.5,-544.52"/>
</g>
<!-- Node3 -->
<g id="node3" class="node">
<title>Node3</title>
<g id="a_node3"><a xlink:href="pass_8h.html" target="_top" xlink:title=" ">
<polygon fill="none" stroke="black" points="1396,-448.5 1396,-467.5 1492,-467.5 1492,-448.5 1396,-448.5"/>
<text text-anchor="middle" x="1444" y="-455.5" font-family="Helvetica,sans-Serif" font-size="10.00">thorin/pass/pass.h</text>
</a>
</g>
</g>
<!-- Node2&#45;&gt;Node3 -->
<g id="edge2" class="edge">
<title>Node2&#45;&gt;Node3</title>
<path fill="none" stroke="midnightblue" d="M1296.64,-509.98C1326.28,-499.72 1376.18,-482.46 1409.6,-470.9"/>
<polygon fill="midnightblue" stroke="midnightblue" points="1411.1,-474.09 1419.4,-467.51 1408.81,-467.47 1411.1,-474.09"/>
</g>
<!-- Node49 -->
<g id="node48" class="node">
<title>Node49</title>
<g id="a_node48"><a xlink:href="bitset_8h.html" target="_top" xlink:title=" ">
<polygon fill="none" stroke="black" points="328.5,-112.5 328.5,-131.5 419.5,-131.5 419.5,-112.5 328.5,-112.5"/>
<text text-anchor="middle" x="374" y="-119.5" font-family="Helvetica,sans-Serif" font-size="10.00">thorin/util/bitset.h</text>
</a>
</g>
</g>
<!-- Node2&#45;&gt;Node49 -->
<g id="edge81" class="edge">
<title>Node2&#45;&gt;Node49</title>
<path fill="none" stroke="midnightblue" d="M1220.88,-517.21C1033.07,-511.8 392,-487.17 392,-403 392,-403 392,-403 392,-233 392,-200.54 384.27,-163.38 378.94,-141.63"/>
<polygon fill="midnightblue" stroke="midnightblue" points="382.29,-140.59 376.43,-131.76 375.51,-142.32 382.29,-140.59"/>
</g>
<!-- Node4 -->
<g id="node4" class="node">
<title>Node4</title>
<g id="a_node4"><a xlink:title=" ">
<polygon fill="none" stroke="#bfbfbf" points="1687.5,-392.5 1687.5,-411.5 1728.5,-411.5 1728.5,-392.5 1687.5,-392.5"/>
<text text-anchor="middle" x="1708" y="-399.5" font-family="Helvetica,sans-Serif" font-size="10.00">stack</text>
</a>
</g>
</g>
<!-- Node3&#45;&gt;Node4 -->
<g id="edge3" class="edge">
<title>Node3&#45;&gt;Node4</title>
<path fill="none" stroke="midnightblue" d="M1491.53,-448.49C1537.97,-439.97 1610.57,-426.15 1673,-412 1674.45,-411.67 1675.94,-411.32 1677.44,-410.97"/>
<polygon fill="midnightblue" stroke="midnightblue" points="1678.45,-414.32 1687.32,-408.53 1676.77,-407.53 1678.45,-414.32"/>
</g>
<!-- Node5 -->
<g id="node5" class="node">
<title>Node5</title>
<g id="a_node5"><a xlink:href="world_8h.html" target="_top" xlink:title=" ">
<polygon fill="none" stroke="black" points="1190,-392.5 1190,-411.5 1264,-411.5 1264,-392.5 1190,-392.5"/>
<text text-anchor="middle" x="1227" y="-399.5" font-family="Helvetica,sans-Serif" font-size="10.00">thorin/world.h</text>
</a>
</g>
</g>
<!-- Node3&#45;&gt;Node5 -->
<g id="edge4" class="edge">
<title>Node3&#45;&gt;Node5</title>
<path fill="none" stroke="midnightblue" d="M1409.62,-448.44C1372.08,-439.1 1311.87,-424.12 1270.93,-413.93"/>
<polygon fill="midnightblue" stroke="midnightblue" points="1271.77,-410.53 1261.22,-411.52 1270.08,-417.33 1271.77,-410.53"/>
</g>
<!-- Node48 -->
<g id="node47" class="node">
<title>Node48</title>
<g id="a_node47"><a xlink:href="scope_8h.html" target="_top" xlink:title=" ">
<polygon fill="none" stroke="black" points="1536.5,-280.5 1536.5,-299.5 1655.5,-299.5 1655.5,-280.5 1536.5,-280.5"/>
<text text-anchor="middle" x="1596" y="-287.5" font-family="Helvetica,sans-Serif" font-size="10.00">thorin/analyses/scope.h</text>
</a>
</g>
</g>
<!-- Node3&#45;&gt;Node48 -->
<g id="edge78" class="edge">
<title>Node3&#45;&gt;Node48</title>
<path fill="none" stroke="midnightblue" d="M1452.17,-448.08C1476.62,-421.38 1549.42,-341.87 1581.05,-307.32"/>
<polygon fill="midnightblue" stroke="midnightblue" points="1583.98,-309.31 1588.15,-299.57 1578.82,-304.58 1583.98,-309.31"/>
</g>
<!-- Node6 -->
<g id="node6" class="node">
<title>Node6</title>
<g id="a_node6"><a xlink:title=" ">
<polygon fill="none" stroke="#bfbfbf" points="932.5,-0.5 932.5,-19.5 981.5,-19.5 981.5,-0.5 932.5,-0.5"/>
<text text-anchor="middle" x="957" y="-7.5" font-family="Helvetica,sans-Serif" font-size="10.00">cassert</text>
</a>
</g>
</g>
<!-- Node5&#45;&gt;Node6 -->
<g id="edge5" class="edge">
<title>Node5&#45;&gt;Node6</title>
<path fill="none" stroke="midnightblue" d="M1189.95,-399.73C1035.14,-393.92 448,-366.89 448,-291 448,-291 448,-291 448,-121 448,-90.9 443.77,-75.14 467,-56 502.02,-27.15 816.39,-15.19 922.33,-11.96"/>
<polygon fill="midnightblue" stroke="midnightblue" points="922.6,-15.45 932.49,-11.66 922.39,-8.46 922.6,-15.45"/>
</g>
<!-- Node7 -->
<g id="node7" class="node">
<title>Node7</title>
<g id="a_node7"><a xlink:title=" ">
<polygon fill="none" stroke="#bfbfbf" points="1696,-0.5 1696,-19.5 1750,-19.5 1750,-0.5 1696,-0.5"/>
<text text-anchor="middle" x="1723" y="-7.5" font-family="Helvetica,sans-Serif" font-size="10.00">iostream</text>
</a>
</g>
</g>
<!-- Node5&#45;&gt;Node7 -->
<g id="edge6" class="edge">
<title>Node5&#45;&gt;Node7</title>
<path fill="none" stroke="midnightblue" d="M1264.35,-398.83C1405.02,-390.18 1895,-355.42 1895,-291 1895,-291 1895,-291 1895,-121 1895,-90.9 1897.26,-77.3 1876,-56 1871.78,-51.77 1803.73,-32.8 1759.82,-20.88"/>
<polygon fill="midnightblue" stroke="midnightblue" points="1760.61,-17.47 1750.04,-18.23 1758.78,-24.22 1760.61,-17.47"/>
</g>
<!-- Node8 -->
<g id="node8" class="node">
<title>Node8</title>
<g id="a_node8"><a xlink:title=" ">
<polygon fill="none" stroke="#bfbfbf" points="794.5,-56.5 794.5,-75.5 853.5,-75.5 853.5,-56.5 794.5,-56.5"/>
<text text-anchor="middle" x="824" y="-63.5" font-family="Helvetica,sans-Serif" font-size="10.00">functional</text>
</a>
</g>
</g>
<!-- Node5&#45;&gt;Node8 -->
<g id="edge7" class="edge">
<title>Node5&#45;&gt;Node8</title>
<path fill="none" stroke="midnightblue" d="M1221.9,-392.34C1205.46,-364.95 1151.3,-278.83 1089,-224 1013.01,-157.12 904.5,-103.3 853.12,-79.8"/>
<polygon fill="midnightblue" stroke="midnightblue" points="854.47,-76.57 843.92,-75.64 851.59,-82.95 854.47,-76.57"/>
</g>
<!-- Node9 -->
<g id="node9" class="node">
<title>Node9</title>
<g id="a_node9"><a xlink:title=" ">
<polygon fill="none" stroke="#bfbfbf" points="872,-56.5 872,-75.5 944,-75.5 944,-56.5 872,-56.5"/>
<text text-anchor="middle" x="908" y="-63.5" font-family="Helvetica,sans-Serif" font-size="10.00">initializer_list</text>
</a>
</g>
</g>
<!-- Node5&#45;&gt;Node9 -->
<g id="edge8" class="edge">
<title>Node5&#45;&gt;Node9</title>
<path fill="none" stroke="midnightblue" d="M1227,-392.44C1227,-373.94 1227,-328.81 1227,-291 1227,-291 1227,-291 1227,-177 1227,-94.64 1007.81,-81.39 954.42,-76.24"/>
<polygon fill="midnightblue" stroke="midnightblue" points="954.56,-72.73 944.21,-74.98 953.71,-79.68 954.56,-72.73"/>
</g>
<!-- Node10 -->
<g id="node10" class="node">
<title>Node10</title>
<g id="a_node10"><a xlink:title=" ">
<polygon fill="none" stroke="#bfbfbf" points="1768.5,-0.5 1768.5,-19.5 1809.5,-19.5 1809.5,-0.5 1768.5,-0.5"/>
<text text-anchor="middle" x="1789" y="-7.5" font-family="Helvetica,sans-Serif" font-size="10.00">string</text>
</a>
</g>
</g>
<!-- Node5&#45;&gt;Node10 -->
<g id="edge9" class="edge">
<title>Node5&#45;&gt;Node10</title>
<path fill="none" stroke="midnightblue" d="M1264.13,-401.68C1352.88,-402.49 1583.77,-399.81 1770,-356 1845.92,-338.14 1933,-368.99 1933,-291 1933,-291 1933,-291 1933,-121 1933,-87.98 1921.61,-78.02 1897,-56 1874.98,-36.3 1843.11,-24.46 1819.7,-17.9"/>
<polygon fill="midnightblue" stroke="midnightblue" points="1820.48,-14.49 1809.92,-15.33 1818.7,-21.26 1820.48,-14.49"/>
</g>
<!-- Node11 -->
<g id="node11" class="node">
<title>Node11</title>
<g id="a_node11"><a xlink:href="axiom_8h.html" target="_top" xlink:title=" ">
<polygon fill="none" stroke="black" points="988.5,-336.5 988.5,-355.5 1065.5,-355.5 1065.5,-336.5 988.5,-336.5"/>
<text text-anchor="middle" x="1027" y="-343.5" font-family="Helvetica,sans-Serif" font-size="10.00">thorin/axiom.h</text>
</a>
</g>
</g>
<!-- Node5&#45;&gt;Node11 -->
<g id="edge10" class="edge">
<title>Node5&#45;&gt;Node11</title>
<path fill="none" stroke="midnightblue" d="M1195.31,-392.44C1160.93,-383.16 1105.92,-368.31 1068.21,-358.13"/>
<polygon fill="midnightblue" stroke="midnightblue" points="1069.11,-354.74 1058.54,-355.52 1067.28,-361.5 1069.11,-354.74"/>
</g>
<!-- Node18 -->
<g id="node18" class="node">
<title>Node18</title>
<g id="a_node18"><a xlink:href="hash_8h.html" target="_top" xlink:title=" ">
<polygon fill="none" stroke="black" points="1259,-112.5 1259,-131.5 1347,-131.5 1347,-112.5 1259,-112.5"/>
<text text-anchor="middle" x="1303" y="-119.5" font-family="Helvetica,sans-Serif" font-size="10.00">thorin/util/hash.h</text>
</a>
</g>
</g>
<!-- Node5&#45;&gt;Node18 -->
<g id="edge76" class="edge">
<title>Node5&#45;&gt;Node18</title>
<path fill="none" stroke="midnightblue" d="M1235.45,-392.44C1251.77,-374.96 1286,-333.26 1286,-291 1286,-291 1286,-291 1286,-233 1286,-200.58 1293.3,-163.42 1298.33,-141.64"/>
<polygon fill="midnightblue" stroke="midnightblue" points="1301.77,-142.31 1300.71,-131.77 1294.97,-140.67 1301.77,-142.31"/>
</g>
<!-- Node28 -->
<g id="node28" class="node">
<title>Node28</title>
<g id="a_node28"><a xlink:title=" ">
<polygon fill="none" stroke="#bfbfbf" points="1789.5,-56.5 1789.5,-75.5 1866.5,-75.5 1866.5,-56.5 1789.5,-56.5"/>
<text text-anchor="middle" x="1828" y="-63.5" font-family="Helvetica,sans-Serif" font-size="10.00">thorin/config.h</text>
</a>
</g>
</g>
<!-- Node5&#45;&gt;Node28 -->
<g id="edge77" class="edge">
<title>Node5&#45;&gt;Node28</title>
<path fill="none" stroke="midnightblue" d="M1264.25,-397.22C1359.15,-386.87 1606.62,-355.1 1665,-300 1686.89,-279.34 1684,-265.1 1684,-235 1684,-235 1684,-235 1684,-177 1684,-124.76 1744.59,-94.01 1787.17,-78.85"/>
<polygon fill="midnightblue" stroke="midnightblue" points="1788.41,-82.12 1796.75,-75.58 1786.16,-75.49 1788.41,-82.12"/>
</g>
<!-- Node46 -->
<g id="node45" class="node">
<title>Node46</title>
<g id="a_node45"><a xlink:href="lattice_8h.html" target="_top" xlink:title=" ">
<polygon fill="none" stroke="black" points="1083.5,-336.5 1083.5,-355.5 1160.5,-355.5 1160.5,-336.5 1083.5,-336.5"/>
<text text-anchor="middle" x="1122" y="-343.5" font-family="Helvetica,sans-Serif" font-size="10.00">thorin/lattice.h</text>
</a>
</g>
</g>
<!-- Node5&#45;&gt;Node46 -->
<g id="edge72" class="edge">
<title>Node5&#45;&gt;Node46</title>
<path fill="none" stroke="midnightblue" d="M1210.13,-392.32C1193.29,-383.66 1167.19,-370.24 1147.76,-360.25"/>
<polygon fill="midnightblue" stroke="midnightblue" points="1149.32,-357.12 1138.83,-355.65 1146.12,-363.34 1149.32,-357.12"/>
</g>
<!-- Node47 -->
<g id="node46" class="node">
<title>Node47</title>
<g id="a_node46"><a xlink:href="tuple_8h.html" target="_top" xlink:title=" ">
<polygon fill="none" stroke="black" points="924,-280.5 924,-299.5 996,-299.5 996,-280.5 924,-280.5"/>
<text text-anchor="middle" x="960" y="-287.5" font-family="Helvetica,sans-Serif" font-size="10.00">thorin/tuple.h</text>
</a>
</g>
</g>
<!-- Node5&#45;&gt;Node47 -->
<g id="edge74" class="edge">
<title>Node5&#45;&gt;Node47</title>
<path fill="none" stroke="midnightblue" d="M1189.78,-398.95C1128.35,-394.83 1009.49,-383.45 979,-356 966.05,-344.34 961.73,-324.39 960.38,-309.66"/>
<polygon fill="midnightblue" stroke="midnightblue" points="963.87,-309.44 959.84,-299.64 956.88,-309.81 963.87,-309.44"/>
</g>
<!-- Node12 -->
<g id="node12" class="node">
<title>Node12</title>
<g id="a_node12"><a xlink:href="lam_8h.html" target="_top" xlink:title=" ">
<polygon fill="none" stroke="black" points="1014.5,-280.5 1014.5,-299.5 1081.5,-299.5 1081.5,-280.5 1014.5,-280.5"/>
<text text-anchor="middle" x="1048" y="-287.5" font-family="Helvetica,sans-Serif" font-size="10.00">thorin/lam.h</text>
</a>
</g>
</g>
<!-- Node11&#45;&gt;Node12 -->
<g id="edge11" class="edge">
<title>Node11&#45;&gt;Node12</title>
<path fill="none" stroke="midnightblue" d="M1030.47,-336.08C1033.31,-328.77 1037.43,-318.18 1040.96,-309.1"/>
<polygon fill="midnightblue" stroke="midnightblue" points="1044.23,-310.34 1044.6,-299.75 1037.71,-307.8 1044.23,-310.34"/>
</g>
<!-- Node13 -->
<g id="node13" class="node">
<title>Node13</title>
<g id="a_node13"><a xlink:href="def_8h.html" target="_top" xlink:title=" ">
<polygon fill="none" stroke="black" points="1015.5,-224.5 1015.5,-243.5 1080.5,-243.5 1080.5,-224.5 1015.5,-224.5"/>
<text text-anchor="middle" x="1048" y="-231.5" font-family="Helvetica,sans-Serif" font-size="10.00">thorin/def.h</text>
</a>
</g>
</g>
<!-- Node12&#45;&gt;Node13 -->
<g id="edge12" class="edge">
<title>Node12&#45;&gt;Node13</title>
<path fill="none" stroke="midnightblue" d="M1048,-280.08C1048,-273.01 1048,-262.86 1048,-253.99"/>
<polygon fill="midnightblue" stroke="midnightblue" points="1051.5,-253.75 1048,-243.75 1044.5,-253.75 1051.5,-253.75"/>
</g>
<!-- Node14 -->
<g id="node14" class="node">
<title>Node14</title>
<g id="a_node14"><a xlink:title=" ">
<polygon fill="none" stroke="#bfbfbf" points="1104,-56.5 1104,-75.5 1154,-75.5 1154,-56.5 1104,-56.5"/>
<text text-anchor="middle" x="1129" y="-63.5" font-family="Helvetica,sans-Serif" font-size="10.00">optional</text>
</a>
</g>
</g>
<!-- Node13&#45;&gt;Node14 -->
<g id="edge13" class="edge">
<title>Node13&#45;&gt;Node14</title>
<path fill="none" stroke="midnightblue" d="M1052.35,-224.08C1065.22,-197.72 1103.2,-119.88 1120.38,-84.66"/>
<polygon fill="midnightblue" stroke="midnightblue" points="1123.58,-86.09 1124.82,-75.57 1117.29,-83.02 1123.58,-86.09"/>
</g>
<!-- Node15 -->
<g id="node15" class="node">
<title>Node15</title>
<g id="a_node15"><a xlink:title=" ">
<polygon fill="none" stroke="#bfbfbf" points="476,-56.5 476,-75.5 520,-75.5 520,-56.5 476,-56.5"/>
<text text-anchor="middle" x="498" y="-63.5" font-family="Helvetica,sans-Serif" font-size="10.00">vector</text>
</a>
</g>
</g>
<!-- Node13&#45;&gt;Node15 -->
<g id="edge14" class="edge">
<title>Node13&#45;&gt;Node15</title>
<path fill="none" stroke="midnightblue" d="M1015.46,-225.18C980.38,-216.62 923,-202.21 874,-188 856.8,-183.01 617.13,-105.54 529.66,-77.24"/>
<polygon fill="midnightblue" stroke="midnightblue" points="530.6,-73.87 520.01,-74.12 528.44,-80.53 530.6,-73.87"/>
</g>
<!-- Node16 -->
<g id="node16" class="node">
<title>Node16</title>
<g id="a_node16"><a xlink:href="debug_8h.html" target="_top" xlink:title=" ">
<polygon fill="none" stroke="black" points="1399.5,-168.5 1399.5,-187.5 1476.5,-187.5 1476.5,-168.5 1399.5,-168.5"/>
<text text-anchor="middle" x="1438" y="-175.5" font-family="Helvetica,sans-Serif" font-size="10.00">thorin/debug.h</text>
</a>
</g>
</g>
<!-- Node13&#45;&gt;Node16 -->
<g id="edge15" class="edge">
<title>Node13&#45;&gt;Node16</title>
<path fill="none" stroke="midnightblue" d="M1080.58,-228.49C1149.14,-219 1308.61,-196.91 1389.34,-185.74"/>
<polygon fill="midnightblue" stroke="midnightblue" points="1389.82,-189.2 1399.25,-184.37 1388.86,-182.27 1389.82,-189.2"/>
</g>
<!-- Node13&#45;&gt;Node18 -->
<g id="edge67" class="edge">
<title>Node13&#45;&gt;Node18</title>
<path fill="none" stroke="midnightblue" d="M1071.96,-224.37C1095.75,-215.66 1133.18,-201.59 1165,-188 1204.43,-171.16 1249.19,-149.62 1276.76,-136.06"/>
<polygon fill="midnightblue" stroke="midnightblue" points="1278.34,-139.18 1285.76,-131.62 1275.24,-132.91 1278.34,-139.18"/>
</g>
<!-- Node29 -->
<g id="node29" class="node">
<title>Node29</title>
<g id="a_node29"><a xlink:href="stream_8h.html" target="_top" xlink:title=" ">
<polygon fill="none" stroke="black" points="1597.5,-56.5 1597.5,-75.5 1694.5,-75.5 1694.5,-56.5 1597.5,-56.5"/>
<text text-anchor="middle" x="1646" y="-63.5" font-family="Helvetica,sans-Serif" font-size="10.00">thorin/util/stream.h</text>
</a>
</g>
</g>
<!-- Node13&#45;&gt;Node29 -->
<g id="edge71" class="edge">
<title>Node13&#45;&gt;Node29</title>
<path fill="none" stroke="midnightblue" d="M1080.62,-231.92C1169.11,-228.62 1412.02,-217.11 1486,-188 1546.79,-164.07 1604.41,-110.24 1630.85,-83.18"/>
<polygon fill="midnightblue" stroke="midnightblue" points="1633.63,-85.34 1638.03,-75.7 1628.58,-80.49 1633.63,-85.34"/>
</g>
<!-- Node38 -->
<g id="node38" class="node">
<title>Node38</title>
<g id="a_node38"><a xlink:href="tables_8h.html" target="_top" xlink:title=" ">
<polygon fill="none" stroke="black" points="145.5,-112.5 145.5,-131.5 222.5,-131.5 222.5,-112.5 145.5,-112.5"/>
<text text-anchor="middle" x="184" y="-119.5" font-family="Helvetica,sans-Serif" font-size="10.00">thorin/tables.h</text>
</a>
</g>
</g>
<!-- Node13&#45;&gt;Node38 -->
<g id="edge49" class="edge">
<title>Node13&#45;&gt;Node38</title>
<path fill="none" stroke="midnightblue" d="M1015.44,-230.22C942.53,-223.87 760.62,-207.35 609,-188 472.24,-170.54 311.58,-144.44 232.71,-131.25"/>
<polygon fill="midnightblue" stroke="midnightblue" points="233.03,-127.76 222.59,-129.56 231.87,-134.66 233.03,-127.76"/>
</g>
<!-- Node41 -->
<g id="node41" class="node">
<title>Node41</title>
<g id="a_node41"><a xlink:href="array_8h.html" target="_top" xlink:title=" ">
<polygon fill="none" stroke="red" points="714,-112.5 714,-131.5 802,-131.5 802,-112.5 714,-112.5"/>
<text text-anchor="middle" x="758" y="-119.5" font-family="Helvetica,sans-Serif" font-size="10.00">thorin/util/array.h</text>
</a>
</g>
</g>
<!-- Node13&#45;&gt;Node41 -->
<g id="edge54" class="edge">
<title>Node13&#45;&gt;Node41</title>
<path fill="none" stroke="midnightblue" d="M1025.24,-224.37C974,-204.93 849.41,-157.67 790.24,-135.23"/>
<polygon fill="midnightblue" stroke="midnightblue" points="791.24,-131.87 780.65,-131.59 788.76,-138.41 791.24,-131.87"/>
</g>
<!-- Node44 -->
<g id="node43" class="node">
<title>Node44</title>
<g id="a_node43"><a xlink:href="cast_8h.html" target="_top" xlink:title=" ">
<polygon fill="none" stroke="black" points="1000,-56.5 1000,-75.5 1086,-75.5 1086,-56.5 1000,-56.5"/>
<text text-anchor="middle" x="1043" y="-63.5" font-family="Helvetica,sans-Serif" font-size="10.00">thorin/util/cast.h</text>
</a>
</g>
</g>
<!-- Node13&#45;&gt;Node44 -->
<g id="edge64" class="edge">
<title>Node13&#45;&gt;Node44</title>
<path fill="none" stroke="midnightblue" d="M1047.73,-224.08C1046.94,-197.95 1044.63,-121.21 1043.56,-85.58"/>
<polygon fill="midnightblue" stroke="midnightblue" points="1047.06,-85.46 1043.26,-75.57 1040.06,-85.67 1047.06,-85.46"/>
</g>
<!-- Node45 -->
<g id="node44" class="node">
<title>Node45</title>
<g id="a_node44"><a xlink:href="ptr_8h.html" target="_top" xlink:title=" ">
<polygon fill="none" stroke="black" points="342,-56.5 342,-75.5 420,-75.5 420,-56.5 342,-56.5"/>
<text text-anchor="middle" x="381" y="-63.5" font-family="Helvetica,sans-Serif" font-size="10.00">thorin/util/ptr.h</text>
</a>
</g>
</g>
<!-- Node13&#45;&gt;Node45 -->
<g id="edge68" class="edge">
<title>Node13&#45;&gt;Node45</title>
<path fill="none" stroke="midnightblue" d="M1015.37,-227.68C969.65,-220.03 884.07,-204.95 812,-188 664.78,-153.37 492.34,-101.47 418.08,-78.57"/>
<polygon fill="midnightblue" stroke="midnightblue" points="418.86,-75.14 408.27,-75.53 416.79,-81.83 418.86,-75.14"/>
</g>
<!-- Node16&#45;&gt;Node10 -->
<g id="edge16" class="edge">
<title>Node16&#45;&gt;Node10</title>
<path fill="none" stroke="midnightblue" d="M1476.97,-169.05C1534.39,-156.11 1643.59,-126.68 1724,-76 1744.57,-63.03 1763.68,-42.47 1775.78,-27.95"/>
<polygon fill="midnightblue" stroke="midnightblue" points="1778.8,-29.79 1782.36,-19.82 1773.35,-25.39 1778.8,-29.79"/>
</g>
<!-- Node17 -->
<g id="node17" class="node">
<title>Node17</title>
<g id="a_node17"><a xlink:title=" ">
<polygon fill="none" stroke="#bfbfbf" points="1419,-112.5 1419,-131.5 1457,-131.5 1457,-112.5 1419,-112.5"/>
<text text-anchor="middle" x="1438" y="-119.5" font-family="Helvetica,sans-Serif" font-size="10.00">tuple</text>
</a>
</g>
</g>
<!-- Node16&#45;&gt;Node17 -->
<g id="edge17" class="edge">
<title>Node16&#45;&gt;Node17</title>
<path fill="none" stroke="midnightblue" d="M1438,-168.08C1438,-161.01 1438,-150.86 1438,-141.99"/>
<polygon fill="midnightblue" stroke="midnightblue" points="1441.5,-141.75 1438,-131.75 1434.5,-141.75 1441.5,-141.75"/>
</g>
<!-- Node16&#45;&gt;Node18 -->
<g id="edge18" class="edge">
<title>Node16&#45;&gt;Node18</title>
<path fill="none" stroke="midnightblue" d="M1416.61,-168.44C1394.29,-159.52 1359.1,-145.44 1333.79,-135.32"/>
<polygon fill="midnightblue" stroke="midnightblue" points="1334.88,-131.98 1324.29,-131.52 1332.28,-138.48 1334.88,-131.98"/>
</g>
<!-- Node16&#45;&gt;Node29 -->
<g id="edge48" class="edge">
<title>Node16&#45;&gt;Node29</title>
<path fill="none" stroke="midnightblue" d="M1451.78,-168.36C1472.53,-155.47 1513.19,-130.74 1549,-112 1571.37,-100.29 1597.36,-88.32 1616.8,-79.67"/>
<polygon fill="midnightblue" stroke="midnightblue" points="1618.31,-82.83 1626.04,-75.59 1615.48,-76.43 1618.31,-82.83"/>
</g>
<!-- Node18&#45;&gt;Node6 -->
<g id="edge22" class="edge">
<title>Node18&#45;&gt;Node6</title>
<path fill="none" stroke="midnightblue" d="M1291.84,-112.32C1273.13,-98.23 1233.75,-70.47 1196,-56 1126.36,-29.31 1039.03,-18.03 991.59,-13.6"/>
<polygon fill="midnightblue" stroke="midnightblue" points="991.8,-10.1 981.53,-12.71 991.18,-17.08 991.8,-10.1"/>
</g>
<!-- Node18&#45;&gt;Node7 -->
<g id="edge26" class="edge">
<title>Node18&#45;&gt;Node7</title>
<path fill="none" stroke="midnightblue" d="M1347.19,-117.36C1448.62,-108.82 1690.46,-87.38 1704,-76 1717.34,-64.79 1721.6,-44.77 1722.83,-29.9"/>
<polygon fill="midnightblue" stroke="midnightblue" points="1726.33,-29.91 1723.27,-19.77 1719.33,-29.6 1726.33,-29.91"/>
</g>
<!-- Node18&#45;&gt;Node14 -->
<g id="edge28" class="edge">
<title>Node18&#45;&gt;Node14</title>
<path fill="none" stroke="midnightblue" d="M1275.43,-112.44C1245.21,-103.06 1196.66,-88 1163.83,-77.81"/>
<polygon fill="midnightblue" stroke="midnightblue" points="1164.77,-74.44 1154.18,-74.82 1162.7,-81.12 1164.77,-74.44"/>
</g>
<!-- Node19 -->
<g id="node19" class="node">
<title>Node19</title>
<g id="a_node19"><a xlink:title=" ">
<polygon fill="none" stroke="#bfbfbf" points="538,-56.5 538,-75.5 594,-75.5 594,-56.5 538,-56.5"/>
<text text-anchor="middle" x="566" y="-63.5" font-family="Helvetica,sans-Serif" font-size="10.00">algorithm</text>
</a>
</g>
</g>
<!-- Node18&#45;&gt;Node19 -->
<g id="edge19" class="edge">
<title>Node18&#45;&gt;Node19</title>
<path fill="none" stroke="midnightblue" d="M1258.89,-120.83C1149.47,-119.83 856.74,-113.68 604.28,-75.92"/>
<polygon fill="midnightblue" stroke="midnightblue" points="604.59,-72.43 594.18,-74.39 603.54,-79.35 604.59,-72.43"/>
</g>
<!-- Node20 -->
<g id="node20" class="node">
<title>Node20</title>
<g id="a_node20"><a xlink:title=" ">
<polygon fill="none" stroke="#bfbfbf" points="1382,-56.5 1382,-75.5 1420,-75.5 1420,-56.5 1382,-56.5"/>
<text text-anchor="middle" x="1401" y="-63.5" font-family="Helvetica,sans-Serif" font-size="10.00">array</text>
</a>
</g>
</g>
<!-- Node18&#45;&gt;Node20 -->
<g id="edge20" class="edge">
<title>Node18&#45;&gt;Node20</title>
<path fill="none" stroke="midnightblue" d="M1318.75,-112.32C1334.32,-103.74 1358.38,-90.49 1376.46,-80.52"/>
<polygon fill="midnightblue" stroke="midnightblue" points="1378.22,-83.55 1385.29,-75.65 1374.85,-77.42 1378.22,-83.55"/>
</g>
<!-- Node21 -->
<g id="node21" class="node">
<title>Node21</title>
<g id="a_node21"><a xlink:title=" ">
<polygon fill="none" stroke="#bfbfbf" points="1438.5,-56.5 1438.5,-75.5 1467.5,-75.5 1467.5,-56.5 1438.5,-56.5"/>
<text text-anchor="middle" x="1453" y="-63.5" font-family="Helvetica,sans-Serif" font-size="10.00">bit</text>
</a>
</g>
</g>
<!-- Node18&#45;&gt;Node21 -->
<g id="edge21" class="edge">
<title>Node18&#45;&gt;Node21</title>
<path fill="none" stroke="midnightblue" d="M1327.2,-112.49C1350.76,-104.17 1387.81,-91.01 1428.68,-76.08"/>
<polygon fill="midnightblue" stroke="midnightblue" points="1430.1,-79.28 1438.29,-72.56 1427.7,-72.71 1430.1,-79.28"/>
</g>
<!-- Node22 -->
<g id="node22" class="node">
<title>Node22</title>
<g id="a_node22"><a xlink:title=" ">
<polygon fill="none" stroke="#bfbfbf" points="1485,-56.5 1485,-75.5 1541,-75.5 1541,-56.5 1485,-56.5"/>
<text text-anchor="middle" x="1513" y="-63.5" font-family="Helvetica,sans-Serif" font-size="10.00">cinttypes</text>
</a>
</g>
</g>
<!-- Node18&#45;&gt;Node22 -->
<g id="edge23" class="edge">
<title>Node18&#45;&gt;Node22</title>
<path fill="none" stroke="midnightblue" d="M1336.28,-112.44C1374.04,-102.73 1435.53,-86.92 1475.11,-76.74"/>
<polygon fill="midnightblue" stroke="midnightblue" points="1476.11,-80.1 1484.92,-74.22 1474.36,-73.32 1476.11,-80.1"/>
</g>
<!-- Node23 -->
<g id="node23" class="node">
<title>Node23</title>
<g id="a_node23"><a xlink:title=" ">
<polygon fill="none" stroke="#bfbfbf" points="307,-0.5 307,-19.5 353,-19.5 353,-0.5 307,-0.5"/>
<text text-anchor="middle" x="330" y="-7.5" font-family="Helvetica,sans-Serif" font-size="10.00">cstdint</text>
</a>
</g>
</g>
<!-- Node18&#45;&gt;Node23 -->
<g id="edge24" class="edge">
<title>Node18&#45;&gt;Node23</title>
<path fill="none" stroke="midnightblue" d="M1258.97,-114.6C1252.93,-113.73 1246.81,-112.84 1241,-112 1129.9,-95.94 1097.78,-110.65 991,-76 972.85,-70.11 971.35,-61.24 953,-56 840.63,-23.89 475.82,-13.95 363.33,-11.61"/>
<polygon fill="midnightblue" stroke="midnightblue" points="363.32,-8.11 353.25,-11.41 363.18,-15.11 363.32,-8.11"/>
</g>
<!-- Node24 -->
<g id="node24" class="node">
<title>Node24</title>
<g id="a_node24"><a xlink:title=" ">
<polygon fill="none" stroke="#bfbfbf" points="1106,-0.5 1106,-19.5 1152,-19.5 1152,-0.5 1106,-0.5"/>
<text text-anchor="middle" x="1129" y="-7.5" font-family="Helvetica,sans-Serif" font-size="10.00">cstring</text>
</a>
</g>
</g>
<!-- Node18&#45;&gt;Node24 -->
<g id="edge25" class="edge">
<title>Node18&#45;&gt;Node24</title>
<path fill="none" stroke="midnightblue" d="M1301.25,-112.5C1297.96,-98.65 1289.55,-71.25 1272,-56 1240.93,-29.01 1193.69,-18.19 1162.1,-13.87"/>
<polygon fill="midnightblue" stroke="midnightblue" points="1162.39,-10.38 1152.04,-12.64 1161.54,-17.32 1162.39,-10.38"/>
</g>
<!-- Node25 -->
<g id="node25" class="node">
<title>Node25</title>
<g id="a_node25"><a xlink:title=" ">
<polygon fill="none" stroke="#bfbfbf" points="1424.5,-0.5 1424.5,-19.5 1475.5,-19.5 1475.5,-0.5 1424.5,-0.5"/>
<text text-anchor="middle" x="1450" y="-7.5" font-family="Helvetica,sans-Serif" font-size="10.00">memory</text>
</a>
</g>
</g>
<!-- Node18&#45;&gt;Node25 -->
<g id="edge27" class="edge">
<title>Node18&#45;&gt;Node25</title>
<path fill="none" stroke="midnightblue" d="M1347.03,-116.04C1414.51,-108 1537.12,-91.44 1550,-76 1555.69,-69.17 1554.83,-63.46 1550,-56 1542.44,-44.3 1510.86,-31.28 1485.18,-22.26"/>
<polygon fill="midnightblue" stroke="midnightblue" points="1486.29,-18.94 1475.69,-19.02 1484.02,-25.57 1486.29,-18.94"/>
</g>
<!-- Node26 -->
<g id="node26" class="node">
<title>Node26</title>
<g id="a_node26"><a xlink:title=" ">
<polygon fill="none" stroke="#bfbfbf" points="659,-0.5 659,-19.5 721,-19.5 721,-0.5 659,-0.5"/>
<text text-anchor="middle" x="690" y="-7.5" font-family="Helvetica,sans-Serif" font-size="10.00">type_traits</text>
</a>
</g>
</g>
<!-- Node18&#45;&gt;Node26 -->
<g id="edge29" class="edge">
<title>Node18&#45;&gt;Node26</title>
<path fill="none" stroke="midnightblue" d="M1280.02,-112.46C1258.05,-104.04 1224.19,-90.37 1196,-76 1180.72,-68.21 1179.28,-61.39 1163,-56 1083.21,-29.57 830.72,-16.7 731.04,-12.55"/>
<polygon fill="midnightblue" stroke="midnightblue" points="731.18,-9.06 721.05,-12.15 730.9,-16.05 731.18,-9.06"/>
</g>
<!-- Node27 -->
<g id="node27" class="node">
<title>Node27</title>
<g id="a_node27"><a xlink:title=" ">
<polygon fill="none" stroke="#bfbfbf" points="1324.5,-56.5 1324.5,-75.5 1363.5,-75.5 1363.5,-56.5 1324.5,-56.5"/>
<text text-anchor="middle" x="1344" y="-63.5" font-family="Helvetica,sans-Serif" font-size="10.00">utility</text>
</a>
</g>
</g>
<!-- Node18&#45;&gt;Node27 -->
<g id="edge30" class="edge">
<title>Node18&#45;&gt;Node27</title>
<path fill="none" stroke="midnightblue" d="M1309.77,-112.08C1315.56,-104.46 1324.06,-93.26 1331.14,-83.94"/>
<polygon fill="midnightblue" stroke="midnightblue" points="1334.1,-85.83 1337.36,-75.75 1328.52,-81.6 1334.1,-85.83"/>
</g>
<!-- Node18&#45;&gt;Node28 -->
<g id="edge31" class="edge">
<title>Node18&#45;&gt;Node28</title>
<path fill="none" stroke="midnightblue" d="M1347.31,-116.44C1444.94,-106.4 1677.96,-82.43 1779.42,-72"/>
<polygon fill="midnightblue" stroke="midnightblue" points="1779.8,-75.48 1789.39,-70.97 1779.09,-68.51 1779.8,-75.48"/>
</g>
<!-- Node18&#45;&gt;Node29 -->
<g id="edge32" class="edge">
<title>Node18&#45;&gt;Node29</title>
<path fill="none" stroke="midnightblue" d="M1347.14,-114.05C1408.32,-104.42 1519.04,-86.99 1587.19,-76.26"/>
<polygon fill="midnightblue" stroke="midnightblue" points="1588,-79.67 1597.33,-74.66 1586.91,-72.76 1588,-79.67"/>
</g>
<!-- Node33 -->
<g id="node33" class="node">
<title>Node33</title>
<g id="a_node33"><a xlink:href="types_8h.html" target="_top" xlink:title=" ">
<polygon fill="none" stroke="black" points="84,-56.5 84,-75.5 174,-75.5 174,-56.5 84,-56.5"/>
<text text-anchor="middle" x="129" y="-63.5" font-family="Helvetica,sans-Serif" font-size="10.00">thorin/util/types.h</text>
</a>
</g>
</g>
<!-- Node18&#45;&gt;Node33 -->
<g id="edge41" class="edge">
<title>Node18&#45;&gt;Node33</title>
<path fill="none" stroke="midnightblue" d="M1258.83,-119.96C1081.12,-115.68 417.12,-98.58 184.13,-75.95"/>
<polygon fill="midnightblue" stroke="midnightblue" points="184.32,-72.45 174.02,-74.94 183.63,-79.42 184.32,-72.45"/>
</g>
<!-- Node29&#45;&gt;Node6 -->
<g id="edge33" class="edge">
<title>Node29&#45;&gt;Node6</title>
<path fill="none" stroke="midnightblue" d="M1597.18,-60.25C1582.06,-58.83 1565.35,-57.3 1550,-56 1337.98,-38.02 1083.01,-19.82 991.65,-13.41"/>
<polygon fill="midnightblue" stroke="midnightblue" points="991.8,-9.92 981.58,-12.71 991.32,-16.9 991.8,-9.92"/>
</g>
<!-- Node29&#45;&gt;Node7 -->
<g id="edge36" class="edge">
<title>Node29&#45;&gt;Node7</title>
<path fill="none" stroke="midnightblue" d="M1658.37,-56.32C1670.16,-48.06 1688.13,-35.45 1702.14,-25.63"/>
<polygon fill="midnightblue" stroke="midnightblue" points="1704.48,-28.26 1710.66,-19.65 1700.46,-22.53 1704.48,-28.26"/>
</g>
<!-- Node29&#45;&gt;Node10 -->
<g id="edge40" class="edge">
<title>Node29&#45;&gt;Node10</title>
<path fill="none" stroke="midnightblue" d="M1668.66,-56.44C1692.96,-47.27 1731.68,-32.64 1758.61,-22.47"/>
<polygon fill="midnightblue" stroke="midnightblue" points="1760.19,-25.62 1768.3,-18.82 1757.71,-19.07 1760.19,-25.62"/>
</g>
<!-- Node29&#45;&gt;Node24 -->
<g id="edge34" class="edge">
<title>Node29&#45;&gt;Node24</title>
<path fill="none" stroke="midnightblue" d="M1597.36,-59.92C1493.13,-49.03 1250.54,-23.7 1162.06,-14.45"/>
<polygon fill="midnightblue" stroke="midnightblue" points="1162.36,-10.97 1152.05,-13.41 1161.63,-17.93 1162.36,-10.97"/>
</g>
<!-- Node29&#45;&gt;Node25 -->
<g id="edge37" class="edge">
<title>Node29&#45;&gt;Node25</title>
<path fill="none" stroke="midnightblue" d="M1614.94,-56.44C1579.72,-46.74 1522.39,-30.95 1485.45,-20.77"/>
<polygon fill="midnightblue" stroke="midnightblue" points="1486.17,-17.34 1475.6,-18.05 1484.31,-24.08 1486.17,-17.34"/>
</g>
<!-- Node30 -->
<g id="node30" class="node">
<title>Node30</title>
<g id="a_node30"><a xlink:title=" ">
<polygon fill="none" stroke="#bfbfbf" points="1628,-0.5 1628,-19.5 1678,-19.5 1678,-0.5 1628,-0.5"/>
<text text-anchor="middle" x="1653" y="-7.5" font-family="Helvetica,sans-Serif" font-size="10.00">fstream</text>
</a>
</g>
</g>
<!-- Node29&#45;&gt;Node30 -->
<g id="edge35" class="edge">
<title>Node29&#45;&gt;Node30</title>
<path fill="none" stroke="midnightblue" d="M1647.16,-56.08C1648.08,-48.93 1649.42,-38.64 1650.58,-29.69"/>
<polygon fill="midnightblue" stroke="midnightblue" points="1654.05,-30.12 1651.87,-19.75 1647.11,-29.22 1654.05,-30.12"/>
</g>
<!-- Node31 -->
<g id="node31" class="node">
<title>Node31</title>
<g id="a_node31"><a xlink:title=" ">
<polygon fill="none" stroke="#bfbfbf" points="1494,-0.5 1494,-19.5 1540,-19.5 1540,-0.5 1494,-0.5"/>
<text text-anchor="middle" x="1517" y="-7.5" font-family="Helvetica,sans-Serif" font-size="10.00">ranges</text>
</a>
</g>
</g>
<!-- Node29&#45;&gt;Node31 -->
<g id="edge38" class="edge">
<title>Node29&#45;&gt;Node31</title>
<path fill="none" stroke="midnightblue" d="M1625.56,-56.44C1604.33,-47.56 1570.9,-33.56 1546.75,-23.45"/>
<polygon fill="midnightblue" stroke="midnightblue" points="1547.92,-20.15 1537.34,-19.52 1545.22,-26.61 1547.92,-20.15"/>
</g>
<!-- Node32 -->
<g id="node32" class="node">
<title>Node32</title>
<g id="a_node32"><a xlink:title=" ">
<polygon fill="none" stroke="#bfbfbf" points="1558,-0.5 1558,-19.5 1610,-19.5 1610,-0.5 1558,-0.5"/>
<text text-anchor="middle" x="1584" y="-7.5" font-family="Helvetica,sans-Serif" font-size="10.00">sstream</text>
</a>
</g>
</g>
<!-- Node29&#45;&gt;Node32 -->
<g id="edge39" class="edge">
<title>Node29&#45;&gt;Node32</title>
<path fill="none" stroke="midnightblue" d="M1636.04,-56.32C1626.87,-48.34 1613.06,-36.31 1601.97,-26.65"/>
<polygon fill="midnightblue" stroke="midnightblue" points="1603.98,-23.76 1594.14,-19.83 1599.38,-29.04 1603.98,-23.76"/>
</g>
<!-- Node33&#45;&gt;Node23 -->
<g id="edge43" class="edge">
<title>Node33&#45;&gt;Node23</title>
<path fill="none" stroke="midnightblue" d="M160.85,-56.44C197.98,-46.47 259.07,-30.06 296.78,-19.92"/>
<polygon fill="midnightblue" stroke="midnightblue" points="298.01,-23.22 306.76,-17.24 296.19,-16.46 298.01,-23.22"/>
</g>
<!-- Node33&#45;&gt;Node26 -->
<g id="edge46" class="edge">
<title>Node33&#45;&gt;Node26</title>
<path fill="none" stroke="midnightblue" d="M174.04,-57.23C177.07,-56.79 180.08,-56.37 183,-56 355.29,-34.03 561.89,-19.27 648.55,-13.6"/>
<polygon fill="midnightblue" stroke="midnightblue" points="649,-17.08 658.76,-12.94 648.55,-10.09 649,-17.08"/>
</g>
<!-- Node34 -->
<g id="node34" class="node">
<title>Node34</title>
<g id="a_node34"><a xlink:title=" ">
<polygon fill="none" stroke="#bfbfbf" points="155,-0.5 155,-19.5 199,-19.5 199,-0.5 155,-0.5"/>
<text text-anchor="middle" x="177" y="-7.5" font-family="Helvetica,sans-Serif" font-size="10.00">cmath</text>
</a>
</g>
</g>
<!-- Node33&#45;&gt;Node34 -->
<g id="edge42" class="edge">
<title>Node33&#45;&gt;Node34</title>
<path fill="none" stroke="midnightblue" d="M136.93,-56.08C143.85,-48.3 154.07,-36.8 162.45,-27.37"/>
<polygon fill="midnightblue" stroke="midnightblue" points="165.19,-29.55 169.22,-19.75 159.96,-24.9 165.19,-29.55"/>
</g>
<!-- Node35 -->
<g id="node35" class="node">
<title>Node35</title>
<g id="a_node35"><a xlink:title=" ">
<polygon fill="none" stroke="#bfbfbf" points="217,-0.5 217,-19.5 257,-19.5 257,-0.5 217,-0.5"/>
<text text-anchor="middle" x="237" y="-7.5" font-family="Helvetica,sans-Serif" font-size="10.00">limits</text>
</a>
</g>
</g>
<!-- Node33&#45;&gt;Node35 -->
<g id="edge44" class="edge">
<title>Node33&#45;&gt;Node35</title>
<path fill="none" stroke="midnightblue" d="M146.35,-56.32C163.67,-47.66 190.52,-34.24 210.5,-24.25"/>
<polygon fill="midnightblue" stroke="midnightblue" points="212.31,-27.26 219.69,-19.65 209.18,-21 212.31,-27.26"/>
</g>
<!-- Node36 -->
<g id="node36" class="node">
<title>Node36</title>
<g id="a_node36"><a xlink:title=" ">
<polygon fill="none" stroke="#bfbfbf" points="17,-0.5 17,-19.5 69,-19.5 69,-0.5 17,-0.5"/>
<text text-anchor="middle" x="43" y="-7.5" font-family="Helvetica,sans-Serif" font-size="10.00">ostream</text>
</a>
</g>
</g>
<!-- Node33&#45;&gt;Node36 -->
<g id="edge45" class="edge">
<title>Node33&#45;&gt;Node36</title>
<path fill="none" stroke="midnightblue" d="M115.18,-56.32C101.77,-47.9 81.18,-34.97 65.41,-25.07"/>
<polygon fill="midnightblue" stroke="midnightblue" points="67.11,-22.01 56.78,-19.65 63.39,-27.94 67.11,-22.01"/>
</g>
<!-- Node37 -->
<g id="node37" class="node">
<title>Node37</title>
<g id="a_node37"><a xlink:title=" ">
<polygon fill="none" stroke="#bfbfbf" points="87,-0.5 87,-19.5 137,-19.5 137,-0.5 87,-0.5"/>
<text text-anchor="middle" x="112" y="-7.5" font-family="Helvetica,sans-Serif" font-size="10.00">half.hpp</text>
</a>
</g>
</g>
<!-- Node33&#45;&gt;Node37 -->
<g id="edge47" class="edge">
<title>Node33&#45;&gt;Node37</title>
<path fill="none" stroke="midnightblue" d="M126.19,-56.08C123.92,-48.85 120.63,-38.41 117.79,-29.4"/>
<polygon fill="midnightblue" stroke="midnightblue" points="121.1,-28.24 114.75,-19.75 114.42,-30.34 121.1,-28.24"/>
</g>
<!-- Node38&#45;&gt;Node33 -->
<g id="edge53" class="edge">
<title>Node38&#45;&gt;Node33</title>
<path fill="none" stroke="midnightblue" d="M174.92,-112.08C166.83,-104.14 154.8,-92.34 145.09,-82.8"/>
<polygon fill="midnightblue" stroke="midnightblue" points="147.5,-80.26 137.91,-75.75 142.6,-85.25 147.5,-80.26"/>
</g>
<!-- Node39 -->
<g id="node39" class="node">
<title>Node39</title>
<g id="a_node39"><a xlink:title=" ">
<polygon fill="none" stroke="#bfbfbf" points="0,-56.5 0,-75.5 66,-75.5 66,-56.5 0,-56.5"/>
<text text-anchor="middle" x="33" y="-63.5" font-family="Helvetica,sans-Serif" font-size="10.00">string_view</text>
</a>
</g>
</g>
<!-- Node38&#45;&gt;Node39 -->
<g id="edge50" class="edge">
<title>Node38&#45;&gt;Node39</title>
<path fill="none" stroke="midnightblue" d="M160.07,-112.44C134.78,-103.4 94.7,-89.06 66.32,-78.92"/>
<polygon fill="midnightblue" stroke="midnightblue" points="67.41,-75.59 56.81,-75.52 65.05,-82.18 67.41,-75.59"/>
</g>
<!-- Node40 -->
<g id="node40" class="node">
<title>Node40</title>
<g id="a_node40"><a xlink:href="assert_8h.html" target="_top" xlink:title=" ">
<polygon fill="none" stroke="black" points="192,-56.5 192,-75.5 286,-75.5 286,-56.5 192,-56.5"/>
<text text-anchor="middle" x="239" y="-63.5" font-family="Helvetica,sans-Serif" font-size="10.00">thorin/util/assert.h</text>
</a>
</g>
</g>
<!-- Node38&#45;&gt;Node40 -->
<g id="edge51" class="edge">
<title>Node38&#45;&gt;Node40</title>
<path fill="none" stroke="midnightblue" d="M193.08,-112.08C201.17,-104.14 213.2,-92.34 222.91,-82.8"/>
<polygon fill="midnightblue" stroke="midnightblue" points="225.4,-85.25 230.09,-75.75 220.5,-80.26 225.4,-85.25"/>
</g>
<!-- Node40&#45;&gt;Node6 -->
<g id="edge52" class="edge">
<title>Node40&#45;&gt;Node6</title>
<path fill="none" stroke="midnightblue" d="M286.32,-60.25C301.25,-58.81 317.81,-57.27 333,-56 557.33,-37.17 827.44,-19.34 922.15,-13.23"/>
<polygon fill="midnightblue" stroke="midnightblue" points="922.56,-16.71 932.31,-12.57 922.11,-9.72 922.56,-16.71"/>
</g>
<!-- Node41&#45;&gt;Node6 -->
<g id="edge55" class="edge">
<title>Node41&#45;&gt;Node6</title>
<path fill="none" stroke="midnightblue" d="M753.74,-112.32C747.75,-98.72 738.93,-72.25 752,-56 772.94,-29.97 869.06,-18.14 921.91,-13.53"/>
<polygon fill="midnightblue" stroke="midnightblue" points="922.51,-16.99 932.18,-12.67 921.93,-10.01 922.51,-16.99"/>
</g>
<!-- Node41&#45;&gt;Node8 -->
<g id="edge59" class="edge">
<title>Node41&#45;&gt;Node8</title>
<path fill="none" stroke="midnightblue" d="M768.6,-112.32C778.46,-104.26 793.35,-92.08 805.22,-82.37"/>
<polygon fill="midnightblue" stroke="midnightblue" points="807.68,-84.88 813.2,-75.83 803.25,-79.46 807.68,-84.88"/>
</g>
<!-- Node41&#45;&gt;Node9 -->
<g id="edge60" class="edge">
<title>Node41&#45;&gt;Node9</title>
<path fill="none" stroke="midnightblue" d="M781.77,-112.44C806.89,-103.4 846.71,-89.06 874.9,-78.92"/>
<polygon fill="midnightblue" stroke="midnightblue" points="876.12,-82.2 884.34,-75.52 873.75,-75.61 876.12,-82.2"/>
</g>
<!-- Node41&#45;&gt;Node15 -->
<g id="edge63" class="edge">
<title>Node41&#45;&gt;Node15</title>
<path fill="none" stroke="midnightblue" d="M713.85,-113.52C669.62,-105.76 599.44,-92.73 530.07,-76.1"/>
<polygon fill="midnightblue" stroke="midnightblue" points="530.83,-72.68 520.29,-73.73 529.18,-79.48 530.83,-72.68"/>
</g>
<!-- Node41&#45;&gt;Node19 -->
<g id="edge58" class="edge">
<title>Node41&#45;&gt;Node19</title>
<path fill="none" stroke="midnightblue" d="M727.58,-112.44C694.04,-103.01 640.05,-87.83 603.81,-77.63"/>
<polygon fill="midnightblue" stroke="midnightblue" points="604.67,-74.24 594.09,-74.9 602.77,-80.98 604.67,-74.24"/>
</g>
<!-- Node41&#45;&gt;Node24 -->
<g id="edge57" class="edge">
<title>Node41&#45;&gt;Node24</title>
<path fill="none" stroke="midnightblue" d="M758.9,-112.18C760.88,-97.87 766.96,-69.82 785,-56 809.43,-37.29 1014,-19.78 1095.6,-13.47"/>
<polygon fill="midnightblue" stroke="midnightblue" points="1096.11,-16.94 1105.82,-12.69 1095.58,-9.96 1096.11,-16.94"/>
</g>
<!-- Node41&#45;&gt;Node26 -->
<g id="edge62" class="edge">
<title>Node41&#45;&gt;Node26</title>
<path fill="none" stroke="midnightblue" d="M747.27,-112.36C737.46,-103.96 723.11,-90.41 714,-76 704.86,-61.54 698.47,-43.09 694.59,-29.55"/>
<polygon fill="midnightblue" stroke="midnightblue" points="697.88,-28.28 691.92,-19.52 691.11,-30.08 697.88,-28.28"/>
</g>
<!-- Node41&#45;&gt;Node31 -->
<g id="edge61" class="edge">
<title>Node41&#45;&gt;Node31</title>
<path fill="none" stroke="midnightblue" d="M802.31,-117.49C915.1,-108 1222.02,-78.65 1483.92,-20.05"/>
<polygon fill="midnightblue" stroke="midnightblue" points="1485.02,-23.39 1494,-17.77 1483.47,-16.56 1485.02,-23.39"/>
</g>
<!-- Node42 -->
<g id="node42" class="node">
<title>Node42</title>
<g id="a_node42"><a xlink:title=" ">
<polygon fill="none" stroke="#bfbfbf" points="612.5,-56.5 612.5,-75.5 661.5,-75.5 661.5,-56.5 612.5,-56.5"/>
<text text-anchor="middle" x="637" y="-63.5" font-family="Helvetica,sans-Serif" font-size="10.00">cstddef</text>
</a>
</g>
</g>
<!-- Node41&#45;&gt;Node42 -->
<g id="edge56" class="edge">
<title>Node41&#45;&gt;Node42</title>
<path fill="none" stroke="midnightblue" d="M738.83,-112.44C719.09,-103.64 688.11,-89.81 665.51,-79.72"/>
<polygon fill="midnightblue" stroke="midnightblue" points="666.64,-76.4 656.08,-75.52 663.79,-82.79 666.64,-76.4"/>
</g>
<!-- Node44&#45;&gt;Node6 -->
<g id="edge65" class="edge">
<title>Node44&#45;&gt;Node6</title>
<path fill="none" stroke="midnightblue" d="M1029.18,-56.32C1015.77,-47.9 995.18,-34.97 979.41,-25.07"/>
<polygon fill="midnightblue" stroke="midnightblue" points="981.11,-22.01 970.78,-19.65 977.39,-27.94 981.11,-22.01"/>
</g>
<!-- Node44&#45;&gt;Node24 -->
<g id="edge66" class="edge">
<title>Node44&#45;&gt;Node24</title>
<path fill="none" stroke="midnightblue" d="M1056.82,-56.32C1070.23,-47.9 1090.82,-34.97 1106.59,-25.07"/>
<polygon fill="midnightblue" stroke="midnightblue" points="1108.61,-27.94 1115.22,-19.65 1104.89,-22.01 1108.61,-27.94"/>
</g>
<!-- Node45&#45;&gt;Node23 -->
<g id="edge69" class="edge">
<title>Node45&#45;&gt;Node23</title>
<path fill="none" stroke="midnightblue" d="M372.58,-56.08C365.15,-48.22 354.15,-36.57 345.19,-27.08"/>
<polygon fill="midnightblue" stroke="midnightblue" points="347.68,-24.62 338.26,-19.75 342.59,-29.42 347.68,-24.62"/>
</g>
<!-- Node45&#45;&gt;Node25 -->
<g id="edge70" class="edge">
<title>Node45&#45;&gt;Node25</title>
<path fill="none" stroke="midnightblue" d="M420.34,-60.39C434.98,-58.81 451.73,-57.15 467,-56 656.66,-41.75 1260.01,-18.25 1413.97,-12.37"/>
<polygon fill="midnightblue" stroke="midnightblue" points="1414.4,-15.85 1424.26,-11.97 1414.14,-8.86 1414.4,-15.85"/>
</g>
<!-- Node46&#45;&gt;Node13 -->
<g id="edge73" class="edge">
<title>Node46&#45;&gt;Node13</title>
<path fill="none" stroke="midnightblue" d="M1118.61,-336.14C1113.46,-323.2 1102.86,-298.63 1090,-280 1082.73,-269.47 1073.07,-258.95 1064.85,-250.73"/>
<polygon fill="midnightblue" stroke="midnightblue" points="1067.15,-248.08 1057.54,-243.63 1062.27,-253.1 1067.15,-248.08"/>
</g>
<!-- Node47&#45;&gt;Node13 -->
<g id="edge75" class="edge">
<title>Node47&#45;&gt;Node13</title>
<path fill="none" stroke="midnightblue" d="M974.14,-280.32C987.87,-271.9 1008.94,-258.97 1025.06,-249.07"/>
<polygon fill="midnightblue" stroke="midnightblue" points="1027.2,-251.87 1033.9,-243.65 1023.54,-245.9 1027.2,-251.87"/>
</g>
<!-- Node48&#45;&gt;Node13 -->
<g id="edge79" class="edge">
<title>Node48&#45;&gt;Node13</title>
<path fill="none" stroke="midnightblue" d="M1536.31,-283.12C1424.84,-272.13 1187.53,-248.75 1090.59,-239.2"/>
<polygon fill="midnightblue" stroke="midnightblue" points="1090.86,-235.71 1080.57,-238.21 1090.18,-242.67 1090.86,-235.71"/>
</g>
<!-- Node48&#45;&gt;Node29 -->
<g id="edge80" class="edge">
<title>Node48&#45;&gt;Node29</title>
<path fill="none" stroke="midnightblue" d="M1597.96,-280.3C1605.33,-247.56 1631.5,-131.38 1641.8,-85.67"/>
<polygon fill="midnightblue" stroke="midnightblue" points="1645.22,-86.41 1644,-75.88 1638.39,-84.87 1645.22,-86.41"/>
</g>
<!-- Node49&#45;&gt;Node19 -->
<g id="edge83" class="edge">
<title>Node49&#45;&gt;Node19</title>
<path fill="none" stroke="midnightblue" d="M404.42,-112.44C437.96,-103.01 491.95,-87.83 528.19,-77.63"/>
<polygon fill="midnightblue" stroke="midnightblue" points="529.23,-80.98 537.91,-74.9 527.33,-74.24 529.23,-80.98"/>
</g>
<!-- Node49&#45;&gt;Node23 -->
<g id="edge82" class="edge">
<title>Node49&#45;&gt;Node23</title>
<path fill="none" stroke="midnightblue" d="M362.63,-112.42C352.8,-104.27 339.23,-91.04 333,-76 326.98,-61.47 326.62,-43.52 327.55,-30.17"/>
<polygon fill="midnightblue" stroke="midnightblue" points="331.07,-30.12 328.58,-19.82 324.1,-29.42 331.07,-30.12"/>
</g>
<!-- Node49&#45;&gt;Node33 -->
<g id="edge85" class="edge">
<title>Node49&#45;&gt;Node33</title>
<path fill="none" stroke="midnightblue" d="M335.18,-112.44C292.44,-103.02 223.67,-87.87 177.43,-77.68"/>
<polygon fill="midnightblue" stroke="midnightblue" points="178.16,-74.25 167.64,-75.52 176.65,-81.09 178.16,-74.25"/>
</g>
<!-- Node49&#45;&gt;Node45 -->
<g id="edge84" class="edge">
<title>Node49&#45;&gt;Node45</title>
<path fill="none" stroke="midnightblue" d="M375.16,-112.08C376.08,-104.93 377.42,-94.64 378.58,-85.69"/>
<polygon fill="midnightblue" stroke="midnightblue" points="382.05,-86.12 379.87,-75.75 375.11,-85.22 382.05,-86.12"/>
</g>
<!-- Node50&#45;&gt;Node3 -->
<g id="edge87" class="edge">
<title>Node50&#45;&gt;Node3</title>
<path fill="none" stroke="midnightblue" d="M1486.73,-504.4C1478.42,-495.58 1467.7,-484.18 1459.08,-475.02"/>
<polygon fill="midnightblue" stroke="midnightblue" points="1461.55,-472.54 1452.15,-467.66 1456.45,-477.34 1461.55,-472.54"/>
</g>
<!-- Node51&#45;&gt;Node3 -->
<g id="edge89" class="edge">
<title>Node51&#45;&gt;Node3</title>
<path fill="none" stroke="midnightblue" d="M1400.51,-504.4C1408.96,-495.58 1419.88,-484.18 1428.66,-475.02"/>
<polygon fill="midnightblue" stroke="midnightblue" points="1431.32,-477.3 1435.71,-467.66 1426.26,-472.46 1431.32,-477.3"/>
</g>
</g>
</svg>
