<?xml version="1.0" encoding="UTF-8" standalone="no"?>
<!DOCTYPE svg PUBLIC "-//W3C//DTD SVG 1.1//EN"
 "http://www.w3.org/Graphics/SVG/1.1/DTD/svg11.dtd">
<!-- Generated by graphviz version 2.43.0 (0)
 -->
<!-- Title: /home/runner/work/thorin2/thorin2/thorin/debug.cpp Pages: 1 -->
<svg width="1788pt" height="498pt"
 viewBox="0.00 0.00 1788.07 498.00" xmlns="http://www.w3.org/2000/svg" xmlns:xlink="http://www.w3.org/1999/xlink">
<g id="graph0" class="graph" transform="scale(1 1) rotate(0) translate(4 494)">
<title>/home/runner/work/thorin2/thorin2/thorin/debug.cpp</title>
<!-- Node1 -->
<g id="node1" class="node">
<title>Node1</title>
<g id="a_node1"><a xlink:title=" ">
<polygon fill="#bfbfbf" stroke="black" points="345.57,-459.5 345.57,-489.5 491.57,-489.5 491.57,-459.5 345.57,-459.5"/>
<text text-anchor="start" x="353.57" y="-477.5" font-family="Helvetica,sans-Serif" font-size="10.00">/home/runner/work/thorin2</text>
<text text-anchor="middle" x="418.57" y="-466.5" font-family="Helvetica,sans-Serif" font-size="10.00">/thorin2/thorin/debug.cpp</text>
</a>
</g>
</g>
<!-- Node2 -->
<g id="node2" class="node">
<title>Node2</title>
<g id="a_node2"><a xlink:href="debug_8h.html" target="_top" xlink:title=" ">
<polygon fill="none" stroke="black" points="166.07,-179.5 166.07,-198.5 253.07,-198.5 253.07,-179.5 166.07,-179.5"/>
<text text-anchor="middle" x="209.57" y="-186.5" font-family="Helvetica,sans-Serif" font-size="10.00">thorin/debug.h</text>
</a>
</g>
</g>
<!-- Node1&#45;&gt;Node2 -->
<g id="edge1" class="edge">
<title>Node1&#45;&gt;Node2</title>
<path fill="none" stroke="midnightblue" d="M374.97,-459.37C332.59,-442.58 274.57,-410.08 274.57,-358 274.57,-358 274.57,-358 274.57,-300 274.57,-262.18 245.74,-225.94 226.48,-205.96"/>
<polygon fill="midnightblue" stroke="midnightblue" points="228.71,-203.24 219.16,-198.66 223.77,-208.2 228.71,-203.24"/>
</g>
<!-- Node6 -->
<g id="node6" class="node">
<title>Node6</title>
<g id="a_node6"><a xlink:href="world_8h.html" target="_top" xlink:title=" ">
<polygon fill="none" stroke="black" points="569.57,-403.5 569.57,-422.5 653.57,-422.5 653.57,-403.5 569.57,-403.5"/>
<text text-anchor="middle" x="611.57" y="-410.5" font-family="Helvetica,sans-Serif" font-size="10.00">thorin/world.h</text>
</a>
</g>
</g>
<!-- Node1&#45;&gt;Node6 -->
<g id="edge5" class="edge">
<title>Node1&#45;&gt;Node6</title>
<path fill="none" stroke="midnightblue" d="M464.31,-459.4C497.8,-449.07 542.7,-435.23 574.09,-425.56"/>
<polygon fill="midnightblue" stroke="midnightblue" points="575.24,-428.86 583.77,-422.57 573.18,-422.17 575.24,-428.86"/>
</g>
<!-- Node3 -->
<g id="node3" class="node">
<title>Node3</title>
<g id="a_node3"><a xlink:title=" ">
<polygon fill="none" stroke="#bfbfbf" points="771.57,-56.5 771.57,-75.5 815.57,-75.5 815.57,-56.5 771.57,-56.5"/>
<text text-anchor="middle" x="793.57" y="-63.5" font-family="Helvetica,sans-Serif" font-size="10.00">string</text>
</a>
</g>
</g>
<!-- Node2&#45;&gt;Node3 -->
<g id="edge2" class="edge">
<title>Node2&#45;&gt;Node3</title>
<path fill="none" stroke="midnightblue" d="M165.9,-185.5C93.79,-179.91 -37.66,-162.59 10.57,-112 66.49,-53.34 642.36,-87.46 761.31,-75.44"/>
<polygon fill="midnightblue" stroke="midnightblue" points="761.9,-78.89 771.36,-74.12 760.99,-71.95 761.9,-78.89"/>
</g>
<!-- Node4 -->
<g id="node4" class="node">
<title>Node4</title>
<g id="a_node4"><a xlink:title=" ">
<polygon fill="none" stroke="#bfbfbf" points="141.57,-112.5 141.57,-142.5 245.57,-142.5 245.57,-112.5 141.57,-112.5"/>
<text text-anchor="start" x="149.57" y="-130.5" font-family="Helvetica,sans-Serif" font-size="10.00">absl/container/flat</text>
<text text-anchor="middle" x="193.57" y="-119.5" font-family="Helvetica,sans-Serif" font-size="10.00">_hash_map.h</text>
</a>
</g>
</g>
<!-- Node2&#45;&gt;Node4 -->
<g id="edge3" class="edge">
<title>Node2&#45;&gt;Node4</title>
<path fill="none" stroke="midnightblue" d="M207.28,-179.48C205.37,-172.4 202.57,-161.97 199.99,-152.39"/>
<polygon fill="midnightblue" stroke="midnightblue" points="203.32,-151.27 197.34,-142.52 196.56,-153.09 203.32,-151.27"/>
</g>
<!-- Node5 -->
<g id="node5" class="node">
<title>Node5</title>
<g id="a_node5"><a xlink:title=" ">
<polygon fill="none" stroke="#bfbfbf" points="19.57,-112.5 19.57,-142.5 123.57,-142.5 123.57,-112.5 19.57,-112.5"/>
<text text-anchor="start" x="27.57" y="-130.5" font-family="Helvetica,sans-Serif" font-size="10.00">absl/container/flat</text>
<text text-anchor="middle" x="71.57" y="-119.5" font-family="Helvetica,sans-Serif" font-size="10.00">_hash_set.h</text>
</a>
</g>
</g>
<!-- Node2&#45;&gt;Node5 -->
<g id="edge4" class="edge">
<title>Node2&#45;&gt;Node5</title>
<path fill="none" stroke="midnightblue" d="M189.8,-179.48C169.97,-170.93 138.83,-157.5 113.49,-146.57"/>
<polygon fill="midnightblue" stroke="midnightblue" points="114.66,-143.27 104.09,-142.52 111.89,-149.7 114.66,-143.27"/>
</g>
<!-- Node6&#45;&gt;Node2 -->
<g id="edge57" class="edge">
<title>Node6&#45;&gt;Node2</title>
<path fill="none" stroke="midnightblue" d="M627.9,-403.39C640.53,-395.72 657.07,-383.21 664.57,-367 683.7,-325.65 701.05,-291.91 633.57,-235 572.62,-183.59 355.76,-208.31 276.57,-199 272.19,-198.49 267.65,-197.93 263.1,-197.35"/>
<polygon fill="midnightblue" stroke="midnightblue" points="263.52,-193.88 253.15,-196.07 262.62,-200.82 263.52,-193.88"/>
</g>
<!-- Node6&#45;&gt;Node3 -->
<g id="edge7" class="edge">
<title>Node6&#45;&gt;Node3</title>
<path fill="none" stroke="midnightblue" d="M653.63,-405.51C735.78,-391.63 909.57,-355.91 909.57,-302 909.57,-302 909.57,-302 909.57,-188 909.57,-153.18 912.75,-138.84 890.57,-112 874.13,-92.11 846.95,-80.55 825.54,-74.14"/>
<polygon fill="midnightblue" stroke="midnightblue" points="826.43,-70.76 815.86,-71.47 824.57,-77.51 826.43,-70.76"/>
</g>
<!-- Node7 -->
<g id="node7" class="node">
<title>Node7</title>
<g id="a_node7"><a xlink:title=" ">
<polygon fill="none" stroke="#bfbfbf" points="351.57,-347.5 351.57,-366.5 407.57,-366.5 407.57,-347.5 351.57,-347.5"/>
<text text-anchor="middle" x="379.57" y="-354.5" font-family="Helvetica,sans-Serif" font-size="10.00">sstream</text>
</a>
</g>
</g>
<!-- Node6&#45;&gt;Node7 -->
<g id="edge6" class="edge">
<title>Node6&#45;&gt;Node7</title>
<path fill="none" stroke="midnightblue" d="M574.81,-403.44C531.87,-393.45 461.19,-377 417.68,-366.87"/>
<polygon fill="midnightblue" stroke="midnightblue" points="418.3,-363.42 407.77,-364.56 416.71,-370.24 418.3,-363.42"/>
</g>
<!-- Node8 -->
<g id="node8" class="node">
<title>Node8</title>
<g id="a_node8"><a xlink:href="axiom_8h.html" target="_top" xlink:title=" ">
<polygon fill="none" stroke="black" points="567.57,-347.5 567.57,-366.5 655.57,-366.5 655.57,-347.5 567.57,-347.5"/>
<text text-anchor="middle" x="611.57" y="-354.5" font-family="Helvetica,sans-Serif" font-size="10.00">thorin/axiom.h</text>
</a>
</g>
</g>
<!-- Node6&#45;&gt;Node8 -->
<g id="edge8" class="edge">
<title>Node6&#45;&gt;Node8</title>
<path fill="none" stroke="midnightblue" d="M611.57,-403.08C611.57,-396.01 611.57,-385.86 611.57,-376.99"/>
<polygon fill="midnightblue" stroke="midnightblue" points="615.07,-376.75 611.57,-366.75 608.07,-376.75 615.07,-376.75"/>
</g>
<!-- Node41 -->
<g id="node41" class="node">
<title>Node41</title>
<g id="a_node41"><a xlink:href="hash_8h.html" target="_top" xlink:title=" ">
<polygon fill="none" stroke="black" points="652.07,-118 652.07,-137 751.07,-137 751.07,-118 652.07,-118"/>
<text text-anchor="middle" x="701.57" y="-125" font-family="Helvetica,sans-Serif" font-size="10.00">thorin/util/hash.h</text>
</a>
</g>
</g>
<!-- Node6&#45;&gt;Node41 -->
<g id="edge62" class="edge">
<title>Node6&#45;&gt;Node41</title>
<path fill="none" stroke="midnightblue" d="M569.32,-410.74C534.09,-407.43 484.92,-397.2 454.57,-367 433.23,-345.77 435.57,-332.1 435.57,-302 435.57,-302 435.57,-302 435.57,-244 435.57,-219.24 592.68,-164.32 665.42,-140.22"/>
<polygon fill="midnightblue" stroke="midnightblue" points="666.69,-143.48 675.09,-137.03 664.5,-136.84 666.69,-143.48"/>
</g>
<!-- Node42 -->
<g id="node42" class="node">
<title>Node42</title>
<g id="a_node42"><a xlink:title=" ">
<polygon fill="none" stroke="#bfbfbf" points="463.57,-347.5 463.57,-366.5 549.57,-366.5 549.57,-347.5 463.57,-347.5"/>
<text text-anchor="middle" x="506.57" y="-354.5" font-family="Helvetica,sans-Serif" font-size="10.00">thorin/config.h</text>
</a>
</g>
</g>
<!-- Node6&#45;&gt;Node42 -->
<g id="edge56" class="edge">
<title>Node6&#45;&gt;Node42</title>
<path fill="none" stroke="midnightblue" d="M594.7,-403.32C577.86,-394.66 551.76,-381.24 532.33,-371.25"/>
<polygon fill="midnightblue" stroke="midnightblue" points="533.89,-368.12 523.4,-366.65 530.69,-374.34 533.89,-368.12"/>
</g>
<!-- Node43 -->
<g id="node43" class="node">
<title>Node43</title>
<g id="a_node43"><a xlink:href="lattice_8h.html" target="_top" xlink:title=" ">
<polygon fill="none" stroke="black" points="793.57,-291.5 793.57,-310.5 881.57,-310.5 881.57,-291.5 793.57,-291.5"/>
<text text-anchor="middle" x="837.57" y="-298.5" font-family="Helvetica,sans-Serif" font-size="10.00">thorin/lattice.h</text>
</a>
</g>
</g>
<!-- Node6&#45;&gt;Node43 -->
<g id="edge58" class="edge">
<title>Node6&#45;&gt;Node43</title>
<path fill="none" stroke="midnightblue" d="M634,-403.34C655.85,-394.72 689.89,-380.82 718.57,-367 752.46,-350.67 790.4,-329.4 814.14,-315.72"/>
<polygon fill="midnightblue" stroke="midnightblue" points="815.9,-318.75 822.8,-310.71 812.39,-312.69 815.9,-318.75"/>
</g>
<!-- Node44 -->
<g id="node44" class="node">
<title>Node44</title>
<g id="a_node44"><a xlink:href="tuple_8h.html" target="_top" xlink:title=" ">
<polygon fill="none" stroke="black" points="693.57,-291.5 693.57,-310.5 775.57,-310.5 775.57,-291.5 693.57,-291.5"/>
<text text-anchor="middle" x="734.57" y="-298.5" font-family="Helvetica,sans-Serif" font-size="10.00">thorin/tuple.h</text>
</a>
</g>
</g>
<!-- Node6&#45;&gt;Node44 -->
<g id="edge60" class="edge">
<title>Node6&#45;&gt;Node44</title>
<path fill="none" stroke="midnightblue" d="M636.52,-403.37C655.08,-395.98 680.11,-383.85 697.57,-367 711.27,-353.78 721.41,-334.38 727.58,-320.22"/>
<polygon fill="midnightblue" stroke="midnightblue" points="730.97,-321.18 731.52,-310.6 724.49,-318.53 730.97,-321.18"/>
</g>
<!-- Node9 -->
<g id="node9" class="node">
<title>Node9</title>
<g id="a_node9"><a xlink:href="lam_8h.html" target="_top" xlink:title=" ">
<polygon fill="none" stroke="black" points="561.57,-291.5 561.57,-310.5 637.57,-310.5 637.57,-291.5 561.57,-291.5"/>
<text text-anchor="middle" x="599.57" y="-298.5" font-family="Helvetica,sans-Serif" font-size="10.00">thorin/lam.h</text>
</a>
</g>
</g>
<!-- Node8&#45;&gt;Node9 -->
<g id="edge9" class="edge">
<title>Node8&#45;&gt;Node9</title>
<path fill="none" stroke="midnightblue" d="M609.59,-347.08C608,-339.93 605.71,-329.64 603.72,-320.69"/>
<polygon fill="midnightblue" stroke="midnightblue" points="607.1,-319.75 601.51,-310.75 600.27,-321.27 607.1,-319.75"/>
</g>
<!-- Node10 -->
<g id="node10" class="node">
<title>Node10</title>
<g id="a_node10"><a xlink:title=" ">
<polygon fill="none" stroke="#bfbfbf" points="574.07,-235.5 574.07,-254.5 625.07,-254.5 625.07,-235.5 574.07,-235.5"/>
<text text-anchor="middle" x="599.57" y="-242.5" font-family="Helvetica,sans-Serif" font-size="10.00">variant</text>
</a>
</g>
</g>
<!-- Node9&#45;&gt;Node10 -->
<g id="edge10" class="edge">
<title>Node9&#45;&gt;Node10</title>
<path fill="none" stroke="midnightblue" d="M599.57,-291.08C599.57,-284.01 599.57,-273.86 599.57,-264.99"/>
<polygon fill="midnightblue" stroke="midnightblue" points="603.07,-264.75 599.57,-254.75 596.07,-264.75 603.07,-264.75"/>
</g>
<!-- Node11 -->
<g id="node11" class="node">
<title>Node11</title>
<g id="a_node11"><a xlink:href="def_8h.html" target="_top" xlink:title=" ">
<polygon fill="none" stroke="black" points="765.57,-235.5 765.57,-254.5 837.57,-254.5 837.57,-235.5 765.57,-235.5"/>
<text text-anchor="middle" x="801.57" y="-242.5" font-family="Helvetica,sans-Serif" font-size="10.00">thorin/def.h</text>
</a>
</g>
</g>
<!-- Node9&#45;&gt;Node11 -->
<g id="edge11" class="edge">
<title>Node9&#45;&gt;Node11</title>
<path fill="none" stroke="midnightblue" d="M631.58,-291.44C666.3,-282.16 721.86,-267.31 759.95,-257.13"/>
<polygon fill="midnightblue" stroke="midnightblue" points="760.96,-260.48 769.71,-254.52 759.15,-253.72 760.96,-260.48"/>
</g>
<!-- Node11&#45;&gt;Node2 -->
<g id="edge14" class="edge">
<title>Node11&#45;&gt;Node2</title>
<path fill="none" stroke="midnightblue" d="M765.33,-241.12C662.77,-232.94 371.82,-209.47 276.57,-199 272.19,-198.52 267.65,-197.98 263.09,-197.42"/>
<polygon fill="midnightblue" stroke="midnightblue" points="263.5,-193.95 253.14,-196.16 262.62,-200.89 263.5,-193.95"/>
</g>
<!-- Node12 -->
<g id="node12" class="node">
<title>Node12</title>
<g id="a_node12"><a xlink:title=" ">
<polygon fill="none" stroke="#bfbfbf" points="681.57,-179.5 681.57,-198.5 737.57,-198.5 737.57,-179.5 681.57,-179.5"/>
<text text-anchor="middle" x="709.57" y="-186.5" font-family="Helvetica,sans-Serif" font-size="10.00">optional</text>
</a>
</g>
</g>
<!-- Node11&#45;&gt;Node12 -->
<g id="edge12" class="edge">
<title>Node11&#45;&gt;Node12</title>
<path fill="none" stroke="midnightblue" d="M786.79,-235.32C772.3,-226.82 750,-213.73 733.08,-203.8"/>
<polygon fill="midnightblue" stroke="midnightblue" points="734.71,-200.7 724.31,-198.65 731.17,-206.74 734.71,-200.7"/>
</g>
<!-- Node13 -->
<g id="node13" class="node">
<title>Node13</title>
<g id="a_node13"><a xlink:title=" ">
<polygon fill="none" stroke="#bfbfbf" points="1733.07,-56.5 1733.07,-75.5 1780.07,-75.5 1780.07,-56.5 1733.07,-56.5"/>
<text text-anchor="middle" x="1756.57" y="-63.5" font-family="Helvetica,sans-Serif" font-size="10.00">vector</text>
</a>
</g>
</g>
<!-- Node11&#45;&gt;Node13 -->
<g id="edge13" class="edge">
<title>Node11&#45;&gt;Node13</title>
<path fill="none" stroke="midnightblue" d="M837.58,-238.64C893.33,-230.33 1003.86,-213.73 1097.57,-199 1251.03,-174.88 1290.24,-173.42 1442.57,-143 1565.69,-118.42 1598.24,-108.82 1722.9,-76.38"/>
<polygon fill="midnightblue" stroke="midnightblue" points="1724.04,-79.7 1732.83,-73.79 1722.27,-72.92 1724.04,-79.7"/>
</g>
<!-- Node14 -->
<g id="node14" class="node">
<title>Node14</title>
<g id="a_node14"><a xlink:href="tables_8h.html" target="_top" xlink:title=" ">
<polygon fill="none" stroke="black" points="794.07,-179.5 794.07,-198.5 881.07,-198.5 881.07,-179.5 794.07,-179.5"/>
<text text-anchor="middle" x="837.57" y="-186.5" font-family="Helvetica,sans-Serif" font-size="10.00">thorin/tables.h</text>
</a>
</g>
</g>
<!-- Node11&#45;&gt;Node14 -->
<g id="edge15" class="edge">
<title>Node11&#45;&gt;Node14</title>
<path fill="none" stroke="midnightblue" d="M807.51,-235.08C812.55,-227.53 819.91,-216.49 826.08,-207.23"/>
<polygon fill="midnightblue" stroke="midnightblue" points="829.1,-209.01 831.74,-198.75 823.28,-205.13 829.1,-209.01"/>
</g>
<!-- Node16 -->
<g id="node16" class="node">
<title>Node16</title>
<g id="a_node16"><a xlink:href="print_8h.html" target="_top" xlink:title=" ">
<polygon fill="none" stroke="black" points="937.57,-118 937.57,-137 1035.57,-137 1035.57,-118 937.57,-118"/>
<text text-anchor="middle" x="986.57" y="-125" font-family="Helvetica,sans-Serif" font-size="10.00">thorin/util/print.h</text>
</a>
</g>
</g>
<!-- Node11&#45;&gt;Node16 -->
<g id="edge55" class="edge">
<title>Node11&#45;&gt;Node16</title>
<path fill="none" stroke="midnightblue" d="M820.81,-235.4C839.18,-226.93 867.41,-213.23 890.57,-199 918.71,-181.72 949.1,-158.56 967.99,-143.58"/>
<polygon fill="midnightblue" stroke="midnightblue" points="970.42,-146.12 976.04,-137.14 966.04,-140.66 970.42,-146.12"/>
</g>
<!-- Node28 -->
<g id="node28" class="node">
<title>Node28</title>
<g id="a_node28"><a xlink:href="array_8h.html" target="_top" xlink:title=" ">
<polygon fill="none" stroke="black" points="1333.57,-118 1333.57,-137 1433.57,-137 1433.57,-118 1333.57,-118"/>
<text text-anchor="middle" x="1383.57" y="-125" font-family="Helvetica,sans-Serif" font-size="10.00">thorin/util/array.h</text>
</a>
</g>
</g>
<!-- Node11&#45;&gt;Node28 -->
<g id="edge31" class="edge">
<title>Node11&#45;&gt;Node28</title>
<path fill="none" stroke="midnightblue" d="M837.98,-236.77C937.38,-217.05 1213.76,-162.2 1330.47,-139.04"/>
<polygon fill="midnightblue" stroke="midnightblue" points="1331.47,-142.41 1340.6,-137.03 1330.11,-135.54 1331.47,-142.41"/>
</g>
<!-- Node35 -->
<g id="node35" class="node">
<title>Node35</title>
<g id="a_node35"><a xlink:href="cast_8h.html" target="_top" xlink:title=" ">
<polygon fill="none" stroke="black" points="1053.57,-118 1053.57,-137 1149.57,-137 1149.57,-118 1053.57,-118"/>
<text text-anchor="middle" x="1101.57" y="-125" font-family="Helvetica,sans-Serif" font-size="10.00">thorin/util/cast.h</text>
</a>
</g>
</g>
<!-- Node11&#45;&gt;Node35 -->
<g id="edge42" class="edge">
<title>Node11&#45;&gt;Node35</title>
<path fill="none" stroke="midnightblue" d="M824.21,-235.41C847.97,-226.38 886.42,-211.74 919.57,-199 972.48,-178.66 1033.95,-154.8 1070.2,-140.71"/>
<polygon fill="midnightblue" stroke="midnightblue" points="1071.68,-143.89 1079.73,-137 1069.14,-137.36 1071.68,-143.89"/>
</g>
<!-- Node36 -->
<g id="node36" class="node">
<title>Node36</title>
<g id="a_node36"><a xlink:href="container_8h.html" target="_top" xlink:title=" ">
<polygon fill="none" stroke="black" points="286.07,-179.5 286.07,-198.5 407.07,-198.5 407.07,-179.5 286.07,-179.5"/>
<text text-anchor="middle" x="346.57" y="-186.5" font-family="Helvetica,sans-Serif" font-size="10.00">thorin/util/container.h</text>
</a>
</g>
</g>
<!-- Node11&#45;&gt;Node36 -->
<g id="edge45" class="edge">
<title>Node11&#45;&gt;Node36</title>
<path fill="none" stroke="midnightblue" d="M765.49,-239.72C690.37,-230.8 516.04,-210.11 417.58,-198.43"/>
<polygon fill="midnightblue" stroke="midnightblue" points="417.76,-194.92 407.42,-197.22 416.94,-201.88 417.76,-194.92"/>
</g>
<!-- Node11&#45;&gt;Node41 -->
<g id="edge54" class="edge">
<title>Node11&#45;&gt;Node41</title>
<path fill="none" stroke="midnightblue" d="M794.17,-235.11C783.67,-222.53 763.82,-198.87 746.57,-179 736.46,-167.36 724.89,-154.38 716.01,-144.5"/>
<polygon fill="midnightblue" stroke="midnightblue" points="718.57,-142.11 709.28,-137.02 713.37,-146.79 718.57,-142.11"/>
</g>
<!-- Node15 -->
<g id="node15" class="node">
<title>Node15</title>
<g id="a_node15"><a xlink:title=" ">
<polygon fill="none" stroke="#bfbfbf" points="808.07,-118 808.07,-137 881.07,-137 881.07,-118 808.07,-118"/>
<text text-anchor="middle" x="844.57" y="-125" font-family="Helvetica,sans-Serif" font-size="10.00">string_view</text>
</a>
</g>
</g>
<!-- Node14&#45;&gt;Node15 -->
<g id="edge16" class="edge">
<title>Node14&#45;&gt;Node15</title>
<path fill="none" stroke="midnightblue" d="M838.57,-179.48C839.56,-171.08 841.1,-157.98 842.37,-147.16"/>
<polygon fill="midnightblue" stroke="midnightblue" points="845.88,-147.35 843.57,-137.01 838.92,-146.53 845.88,-147.35"/>
</g>
<!-- Node14&#45;&gt;Node16 -->
<g id="edge17" class="edge">
<title>Node14&#45;&gt;Node16</title>
<path fill="none" stroke="midnightblue" d="M858.92,-179.48C884.26,-169.36 926.71,-152.4 955.64,-140.85"/>
<polygon fill="midnightblue" stroke="midnightblue" points="957.27,-143.97 965.26,-137.01 954.68,-137.47 957.27,-143.97"/>
</g>
<!-- Node22 -->
<g id="node22" class="node">
<title>Node22</title>
<g id="a_node22"><a xlink:href="types_8h.html" target="_top" xlink:title=" ">
<polygon fill="none" stroke="black" points="650.07,-56.5 650.07,-75.5 753.07,-75.5 753.07,-56.5 650.07,-56.5"/>
<text text-anchor="middle" x="701.57" y="-63.5" font-family="Helvetica,sans-Serif" font-size="10.00">thorin/util/types.h</text>
</a>
</g>
</g>
<!-- Node14&#45;&gt;Node22 -->
<g id="edge24" class="edge">
<title>Node14&#45;&gt;Node22</title>
<path fill="none" stroke="midnightblue" d="M829.36,-179.2C815.64,-164.65 786.95,-134.91 760.57,-112 748.17,-101.23 733.49,-90.02 721.87,-81.49"/>
<polygon fill="midnightblue" stroke="midnightblue" points="723.82,-78.58 713.67,-75.54 719.71,-84.24 723.82,-78.58"/>
</g>
<!-- Node16&#45;&gt;Node3 -->
<g id="edge21" class="edge">
<title>Node16&#45;&gt;Node3</title>
<path fill="none" stroke="midnightblue" d="M958.92,-117.98C923.67,-107.11 862.84,-88.36 825.61,-76.88"/>
<polygon fill="midnightblue" stroke="midnightblue" points="826.36,-73.45 815.77,-73.84 824.3,-80.14 826.36,-73.45"/>
</g>
<!-- Node17 -->
<g id="node17" class="node">
<title>Node17</title>
<g id="a_node17"><a xlink:title=" ">
<polygon fill="none" stroke="#bfbfbf" points="871.57,-56.5 871.57,-75.5 931.57,-75.5 931.57,-56.5 871.57,-56.5"/>
<text text-anchor="middle" x="901.57" y="-63.5" font-family="Helvetica,sans-Serif" font-size="10.00">iostream</text>
</a>
</g>
</g>
<!-- Node16&#45;&gt;Node17 -->
<g id="edge18" class="edge">
<title>Node16&#45;&gt;Node17</title>
<path fill="none" stroke="midnightblue" d="M974.39,-117.98C960.76,-108.43 938.44,-92.81 922.1,-81.37"/>
<polygon fill="midnightblue" stroke="midnightblue" points="923.93,-78.38 913.73,-75.51 919.91,-84.11 923.93,-78.38"/>
</g>
<!-- Node18 -->
<g id="node18" class="node">
<title>Node18</title>
<g id="a_node18"><a xlink:title=" ">
<polygon fill="none" stroke="#bfbfbf" points="813.07,-0.5 813.07,-19.5 870.07,-19.5 870.07,-0.5 813.07,-0.5"/>
<text text-anchor="middle" x="841.57" y="-7.5" font-family="Helvetica,sans-Serif" font-size="10.00">ostream</text>
</a>
</g>
</g>
<!-- Node16&#45;&gt;Node18 -->
<g id="edge19" class="edge">
<title>Node16&#45;&gt;Node18</title>
<path fill="none" stroke="midnightblue" d="M957.97,-117.95C925.69,-107.79 875.93,-90.39 862.57,-76 850.86,-63.38 845.67,-44.17 843.38,-29.9"/>
<polygon fill="midnightblue" stroke="midnightblue" points="846.82,-29.22 842.1,-19.74 839.88,-30.1 846.82,-29.22"/>
</g>
<!-- Node19 -->
<g id="node19" class="node">
<title>Node19</title>
<g id="a_node19"><a xlink:title=" ">
<polygon fill="none" stroke="#bfbfbf" points="1111.57,-56.5 1111.57,-75.5 1161.57,-75.5 1161.57,-56.5 1111.57,-56.5"/>
<text text-anchor="middle" x="1136.57" y="-63.5" font-family="Helvetica,sans-Serif" font-size="10.00">ranges</text>
</a>
</g>
</g>
<!-- Node16&#45;&gt;Node19 -->
<g id="edge20" class="edge">
<title>Node16&#45;&gt;Node19</title>
<path fill="none" stroke="midnightblue" d="M1008.06,-117.98C1033.68,-107.81 1076.68,-90.76 1105.81,-79.2"/>
<polygon fill="midnightblue" stroke="midnightblue" points="1107.11,-82.45 1115.12,-75.51 1104.53,-75.94 1107.11,-82.45"/>
</g>
<!-- Node20 -->
<g id="node20" class="node">
<title>Node20</title>
<g id="a_node20"><a xlink:href="assert_8h.html" target="_top" xlink:title=" ">
<polygon fill="none" stroke="black" points="949.57,-56.5 949.57,-75.5 1055.57,-75.5 1055.57,-56.5 949.57,-56.5"/>
<text text-anchor="middle" x="1002.57" y="-63.5" font-family="Helvetica,sans-Serif" font-size="10.00">thorin/util/assert.h</text>
</a>
</g>
</g>
<!-- Node16&#45;&gt;Node20 -->
<g id="edge22" class="edge">
<title>Node16&#45;&gt;Node20</title>
<path fill="none" stroke="midnightblue" d="M988.86,-117.98C991.14,-109.49 994.72,-96.2 997.64,-85.32"/>
<polygon fill="midnightblue" stroke="midnightblue" points="1001.07,-86.07 1000.28,-75.51 994.31,-84.26 1001.07,-86.07"/>
</g>
<!-- Node21 -->
<g id="node21" class="node">
<title>Node21</title>
<g id="a_node21"><a xlink:title=" ">
<polygon fill="none" stroke="#bfbfbf" points="1057.57,-0.5 1057.57,-19.5 1109.57,-19.5 1109.57,-0.5 1057.57,-0.5"/>
<text text-anchor="middle" x="1083.57" y="-7.5" font-family="Helvetica,sans-Serif" font-size="10.00">cassert</text>
</a>
</g>
</g>
<!-- Node20&#45;&gt;Node21 -->
<g id="edge23" class="edge">
<title>Node20&#45;&gt;Node21</title>
<path fill="none" stroke="midnightblue" d="M1015.58,-56.32C1028.1,-47.98 1047.25,-35.21 1062.04,-25.35"/>
<polygon fill="midnightblue" stroke="midnightblue" points="1064.21,-28.11 1070.59,-19.65 1060.33,-22.29 1064.21,-28.11"/>
</g>
<!-- Node22&#45;&gt;Node18 -->
<g id="edge27" class="edge">
<title>Node22&#45;&gt;Node18</title>
<path fill="none" stroke="midnightblue" d="M723.75,-56.44C747,-47.48 783.72,-33.31 809.99,-23.18"/>
<polygon fill="midnightblue" stroke="midnightblue" points="811.42,-26.38 819.49,-19.52 808.9,-19.85 811.42,-26.38"/>
</g>
<!-- Node23 -->
<g id="node23" class="node">
<title>Node23</title>
<g id="a_node23"><a xlink:title=" ">
<polygon fill="none" stroke="#bfbfbf" points="678.57,-0.5 678.57,-19.5 728.57,-19.5 728.57,-0.5 678.57,-0.5"/>
<text text-anchor="middle" x="703.57" y="-7.5" font-family="Helvetica,sans-Serif" font-size="10.00">cstdint</text>
</a>
</g>
</g>
<!-- Node22&#45;&gt;Node23 -->
<g id="edge25" class="edge">
<title>Node22&#45;&gt;Node23</title>
<path fill="none" stroke="midnightblue" d="M701.9,-56.08C702.16,-49.01 702.54,-38.86 702.87,-29.99"/>
<polygon fill="midnightblue" stroke="midnightblue" points="706.37,-29.87 703.25,-19.75 699.38,-29.61 706.37,-29.87"/>
</g>
<!-- Node24 -->
<g id="node24" class="node">
<title>Node24</title>
<g id="a_node24"><a xlink:title=" ">
<polygon fill="none" stroke="#bfbfbf" points="746.57,-0.5 746.57,-19.5 790.57,-19.5 790.57,-0.5 746.57,-0.5"/>
<text text-anchor="middle" x="768.57" y="-7.5" font-family="Helvetica,sans-Serif" font-size="10.00">limits</text>
</a>
</g>
</g>
<!-- Node22&#45;&gt;Node24 -->
<g id="edge26" class="edge">
<title>Node22&#45;&gt;Node24</title>
<path fill="none" stroke="midnightblue" d="M712.33,-56.32C722.34,-48.26 737.46,-36.08 749.5,-26.37"/>
<polygon fill="midnightblue" stroke="midnightblue" points="752.02,-28.83 757.61,-19.83 747.63,-23.38 752.02,-28.83"/>
</g>
<!-- Node25 -->
<g id="node25" class="node">
<title>Node25</title>
<g id="a_node25"><a xlink:title=" ">
<polygon fill="none" stroke="#bfbfbf" points="930.07,-0.5 930.07,-19.5 999.07,-19.5 999.07,-0.5 930.07,-0.5"/>
<text text-anchor="middle" x="964.57" y="-7.5" font-family="Helvetica,sans-Serif" font-size="10.00">type_traits</text>
</a>
</g>
</g>
<!-- Node22&#45;&gt;Node25 -->
<g id="edge28" class="edge">
<title>Node22&#45;&gt;Node25</title>
<path fill="none" stroke="midnightblue" d="M743.24,-56.44C791.38,-46.56 870.29,-30.36 919.73,-20.21"/>
<polygon fill="midnightblue" stroke="midnightblue" points="920.72,-23.58 929.81,-18.14 919.31,-16.72 920.72,-23.58"/>
</g>
<!-- Node26 -->
<g id="node26" class="node">
<title>Node26</title>
<g id="a_node26"><a xlink:title=" ">
<polygon fill="none" stroke="#bfbfbf" points="539.07,-0.5 539.07,-19.5 586.07,-19.5 586.07,-0.5 539.07,-0.5"/>
<text text-anchor="middle" x="562.57" y="-7.5" font-family="Helvetica,sans-Serif" font-size="10.00">cmath</text>
</a>
</g>
</g>
<!-- Node22&#45;&gt;Node26 -->
<g id="edge29" class="edge">
<title>Node22&#45;&gt;Node26</title>
<path fill="none" stroke="midnightblue" d="M679.55,-56.44C656.47,-47.48 620.01,-33.31 593.93,-23.18"/>
<polygon fill="midnightblue" stroke="midnightblue" points="595.08,-19.88 584.49,-19.52 592.55,-26.4 595.08,-19.88"/>
</g>
<!-- Node27 -->
<g id="node27" class="node">
<title>Node27</title>
<g id="a_node27"><a xlink:title=" ">
<polygon fill="none" stroke="#bfbfbf" points="604.57,-0.5 604.57,-19.5 660.57,-19.5 660.57,-0.5 604.57,-0.5"/>
<text text-anchor="middle" x="632.57" y="-7.5" font-family="Helvetica,sans-Serif" font-size="10.00">half.hpp</text>
</a>
</g>
</g>
<!-- Node22&#45;&gt;Node27 -->
<g id="edge30" class="edge">
<title>Node22&#45;&gt;Node27</title>
<path fill="none" stroke="midnightblue" d="M690.48,-56.32C680.08,-48.18 664.31,-35.84 651.85,-26.09"/>
<polygon fill="midnightblue" stroke="midnightblue" points="653.89,-23.24 643.86,-19.83 649.58,-28.75 653.89,-23.24"/>
</g>
<!-- Node28&#45;&gt;Node13 -->
<g id="edge41" class="edge">
<title>Node28&#45;&gt;Node13</title>
<path fill="none" stroke="midnightblue" d="M1433.62,-121.11C1498.39,-113.68 1614.83,-98.83 1722.8,-76.17"/>
<polygon fill="midnightblue" stroke="midnightblue" points="1723.84,-79.53 1732.89,-74.02 1722.38,-72.68 1723.84,-79.53"/>
</g>
<!-- Node28&#45;&gt;Node19 -->
<g id="edge39" class="edge">
<title>Node28&#45;&gt;Node19</title>
<path fill="none" stroke="midnightblue" d="M1346.18,-117.94C1305.58,-108.59 1238.6,-92.95 1171.67,-76.23"/>
<polygon fill="midnightblue" stroke="midnightblue" points="1172.35,-72.79 1161.8,-73.76 1170.65,-79.58 1172.35,-72.79"/>
</g>
<!-- Node28&#45;&gt;Node21 -->
<g id="edge32" class="edge">
<title>Node28&#45;&gt;Node21</title>
<path fill="none" stroke="midnightblue" d="M1365.11,-117.9C1343.9,-107.98 1308.09,-91.09 1277.57,-76 1260.11,-67.37 1256.67,-63.19 1238.57,-56 1198.74,-40.17 1151.18,-27.2 1119.34,-19.31"/>
<polygon fill="midnightblue" stroke="midnightblue" points="1120.13,-15.9 1109.58,-16.93 1118.47,-22.7 1120.13,-15.9"/>
</g>
<!-- Node28&#45;&gt;Node25 -->
<g id="edge40" class="edge">
<title>Node28&#45;&gt;Node25</title>
<path fill="none" stroke="midnightblue" d="M1424.28,-117.97C1468.39,-106.99 1529.02,-85.71 1501.57,-56 1467.31,-18.91 1098.84,-24.69 1048.57,-20 1035.91,-18.82 1022.18,-17.4 1009.57,-16.05"/>
<polygon fill="midnightblue" stroke="midnightblue" points="1009.61,-12.54 999.29,-14.94 1008.85,-19.49 1009.61,-12.54"/>
</g>
<!-- Node29 -->
<g id="node29" class="node">
<title>Node29</title>
<g id="a_node29"><a xlink:title=" ">
<polygon fill="none" stroke="#bfbfbf" points="1357.07,-56.5 1357.07,-75.5 1410.07,-75.5 1410.07,-56.5 1357.07,-56.5"/>
<text text-anchor="middle" x="1383.57" y="-63.5" font-family="Helvetica,sans-Serif" font-size="10.00">cstddef</text>
</a>
</g>
</g>
<!-- Node28&#45;&gt;Node29 -->
<g id="edge33" class="edge">
<title>Node28&#45;&gt;Node29</title>
<path fill="none" stroke="midnightblue" d="M1383.57,-117.98C1383.57,-109.58 1383.57,-96.48 1383.57,-85.66"/>
<polygon fill="midnightblue" stroke="midnightblue" points="1387.07,-85.51 1383.57,-75.51 1380.07,-85.51 1387.07,-85.51"/>
</g>
<!-- Node30 -->
<g id="node30" class="node">
<title>Node30</title>
<g id="a_node30"><a xlink:title=" ">
<polygon fill="none" stroke="#bfbfbf" points="1179.57,-56.5 1179.57,-75.5 1229.57,-75.5 1229.57,-56.5 1179.57,-56.5"/>
<text text-anchor="middle" x="1204.57" y="-63.5" font-family="Helvetica,sans-Serif" font-size="10.00">cstring</text>
</a>
</g>
</g>
<!-- Node28&#45;&gt;Node30 -->
<g id="edge34" class="edge">
<title>Node28&#45;&gt;Node30</title>
<path fill="none" stroke="midnightblue" d="M1357.92,-117.98C1326.78,-107.62 1274.1,-90.11 1239.33,-78.55"/>
<polygon fill="midnightblue" stroke="midnightblue" points="1240.19,-75.15 1229.59,-75.32 1237.98,-81.79 1240.19,-75.15"/>
</g>
<!-- Node31 -->
<g id="node31" class="node">
<title>Node31</title>
<g id="a_node31"><a xlink:title=" ">
<polygon fill="none" stroke="#bfbfbf" points="1428.57,-56.5 1428.57,-75.5 1492.57,-75.5 1492.57,-56.5 1428.57,-56.5"/>
<text text-anchor="middle" x="1460.57" y="-63.5" font-family="Helvetica,sans-Serif" font-size="10.00">algorithm</text>
</a>
</g>
</g>
<!-- Node28&#45;&gt;Node31 -->
<g id="edge35" class="edge">
<title>Node28&#45;&gt;Node31</title>
<path fill="none" stroke="midnightblue" d="M1394.6,-117.98C1406.84,-108.52 1426.8,-93.1 1441.56,-81.69"/>
<polygon fill="midnightblue" stroke="midnightblue" points="1443.79,-84.39 1449.56,-75.51 1439.51,-78.85 1443.79,-84.39"/>
</g>
<!-- Node32 -->
<g id="node32" class="node">
<title>Node32</title>
<g id="a_node32"><a xlink:title=" ">
<polygon fill="none" stroke="#bfbfbf" points="1549.07,-56.5 1549.07,-75.5 1614.07,-75.5 1614.07,-56.5 1549.07,-56.5"/>
<text text-anchor="middle" x="1581.57" y="-63.5" font-family="Helvetica,sans-Serif" font-size="10.00">functional</text>
</a>
</g>
</g>
<!-- Node28&#45;&gt;Node32 -->
<g id="edge36" class="edge">
<title>Node28&#45;&gt;Node32</title>
<path fill="none" stroke="midnightblue" d="M1411.94,-117.98C1446.49,-107.59 1504.99,-90.01 1543.45,-78.45"/>
<polygon fill="midnightblue" stroke="midnightblue" points="1544.68,-81.74 1553.25,-75.51 1542.67,-75.04 1544.68,-81.74"/>
</g>
<!-- Node33 -->
<g id="node33" class="node">
<title>Node33</title>
<g id="a_node33"><a xlink:title=" ">
<polygon fill="none" stroke="#bfbfbf" points="1632.07,-56.5 1632.07,-75.5 1715.07,-75.5 1715.07,-56.5 1632.07,-56.5"/>
<text text-anchor="middle" x="1673.57" y="-63.5" font-family="Helvetica,sans-Serif" font-size="10.00">initializer_list</text>
</a>
</g>
</g>
<!-- Node28&#45;&gt;Node33 -->
<g id="edge37" class="edge">
<title>Node28&#45;&gt;Node33</title>
<path fill="none" stroke="midnightblue" d="M1425.12,-117.98C1477.02,-107.33 1565.81,-89.11 1622,-77.58"/>
<polygon fill="midnightblue" stroke="midnightblue" points="1623,-80.95 1632.1,-75.51 1621.6,-74.09 1623,-80.95"/>
</g>
<!-- Node34 -->
<g id="node34" class="node">
<title>Node34</title>
<g id="a_node34"><a xlink:title=" ">
<polygon fill="none" stroke="#bfbfbf" points="1286.07,-56.5 1286.07,-75.5 1339.07,-75.5 1339.07,-56.5 1286.07,-56.5"/>
<text text-anchor="middle" x="1312.57" y="-63.5" font-family="Helvetica,sans-Serif" font-size="10.00">iterator</text>
</a>
</g>
</g>
<!-- Node28&#45;&gt;Node34 -->
<g id="edge38" class="edge">
<title>Node28&#45;&gt;Node34</title>
<path fill="none" stroke="midnightblue" d="M1373.4,-117.98C1362.22,-108.61 1344.05,-93.38 1330.48,-82.01"/>
<polygon fill="midnightblue" stroke="midnightblue" points="1332.64,-79.25 1322.72,-75.51 1328.14,-84.61 1332.64,-79.25"/>
</g>
<!-- Node35&#45;&gt;Node21 -->
<g id="edge43" class="edge">
<title>Node35&#45;&gt;Node21</title>
<path fill="none" stroke="midnightblue" d="M1100.22,-117.82C1097.32,-99.26 1090.48,-55.34 1086.53,-29.97"/>
<polygon fill="midnightblue" stroke="midnightblue" points="1089.94,-29.12 1084.94,-19.78 1083.02,-30.2 1089.94,-29.12"/>
</g>
<!-- Node35&#45;&gt;Node30 -->
<g id="edge44" class="edge">
<title>Node35&#45;&gt;Node30</title>
<path fill="none" stroke="midnightblue" d="M1116.33,-117.98C1133.23,-108.21 1161.15,-92.08 1181.06,-80.58"/>
<polygon fill="midnightblue" stroke="midnightblue" points="1182.93,-83.54 1189.84,-75.51 1179.43,-77.48 1182.93,-83.54"/>
</g>
<!-- Node36&#45;&gt;Node4 -->
<g id="edge48" class="edge">
<title>Node36&#45;&gt;Node4</title>
<path fill="none" stroke="midnightblue" d="M324.65,-179.48C302.47,-170.85 267.54,-157.26 239.3,-146.29"/>
<polygon fill="midnightblue" stroke="midnightblue" points="240.22,-142.89 229.63,-142.52 237.68,-149.41 240.22,-142.89"/>
</g>
<!-- Node36&#45;&gt;Node5 -->
<g id="edge49" class="edge">
<title>Node36&#45;&gt;Node5</title>
<path fill="none" stroke="midnightblue" d="M304.27,-179.44C263.16,-171.05 198.71,-157.7 133.79,-143.24"/>
<polygon fill="midnightblue" stroke="midnightblue" points="134.32,-139.77 123.79,-141.01 132.79,-146.61 134.32,-139.77"/>
</g>
<!-- Node37 -->
<g id="node37" class="node">
<title>Node37</title>
<g id="a_node37"><a xlink:title=" ">
<polygon fill="none" stroke="#bfbfbf" points="587.07,-118 587.07,-137 634.07,-137 634.07,-118 587.07,-118"/>
<text text-anchor="middle" x="610.57" y="-125" font-family="Helvetica,sans-Serif" font-size="10.00">queue</text>
</a>
</g>
</g>
<!-- Node36&#45;&gt;Node37 -->
<g id="edge46" class="edge">
<title>Node36&#45;&gt;Node37</title>
<path fill="none" stroke="midnightblue" d="M407.31,-179.93C454.43,-172.78 521.03,-160.69 577.57,-143 579.5,-142.4 581.46,-141.72 583.42,-140.99"/>
<polygon fill="midnightblue" stroke="midnightblue" points="585.1,-144.08 593.04,-137.06 582.45,-137.6 585.1,-144.08"/>
</g>
<!-- Node38 -->
<g id="node38" class="node">
<title>Node38</title>
<g id="a_node38"><a xlink:title=" ">
<polygon fill="none" stroke="#bfbfbf" points="264.07,-118 264.07,-137 307.07,-137 307.07,-118 264.07,-118"/>
<text text-anchor="middle" x="285.57" y="-125" font-family="Helvetica,sans-Serif" font-size="10.00">stack</text>
</a>
</g>
</g>
<!-- Node36&#45;&gt;Node38 -->
<g id="edge47" class="edge">
<title>Node36&#45;&gt;Node38</title>
<path fill="none" stroke="midnightblue" d="M337.83,-179.48C328.41,-170.28 313.21,-155.46 301.62,-144.16"/>
<polygon fill="midnightblue" stroke="midnightblue" points="303.9,-141.49 294.29,-137.01 299.01,-146.5 303.9,-141.49"/>
</g>
<!-- Node39 -->
<g id="node39" class="node">
<title>Node39</title>
<g id="a_node39"><a xlink:title=" ">
<polygon fill="none" stroke="#bfbfbf" points="325.07,-112.5 325.07,-142.5 438.07,-142.5 438.07,-112.5 325.07,-112.5"/>
<text text-anchor="start" x="333.07" y="-130.5" font-family="Helvetica,sans-Serif" font-size="10.00">absl/container/node</text>
<text text-anchor="middle" x="381.57" y="-119.5" font-family="Helvetica,sans-Serif" font-size="10.00">_hash_map.h</text>
</a>
</g>
</g>
<!-- Node36&#45;&gt;Node39 -->
<g id="edge50" class="edge">
<title>Node36&#45;&gt;Node39</title>
<path fill="none" stroke="midnightblue" d="M351.58,-179.48C355.93,-172.09 362.41,-161.08 368.23,-151.17"/>
<polygon fill="midnightblue" stroke="midnightblue" points="371.27,-152.92 373.32,-142.52 365.23,-149.37 371.27,-152.92"/>
</g>
<!-- Node40 -->
<g id="node40" class="node">
<title>Node40</title>
<g id="a_node40"><a xlink:title=" ">
<polygon fill="none" stroke="#bfbfbf" points="456.07,-112.5 456.07,-142.5 569.07,-142.5 569.07,-112.5 456.07,-112.5"/>
<text text-anchor="start" x="464.07" y="-130.5" font-family="Helvetica,sans-Serif" font-size="10.00">absl/container/node</text>
<text text-anchor="middle" x="512.57" y="-119.5" font-family="Helvetica,sans-Serif" font-size="10.00">_hash_set.h</text>
</a>
</g>
</g>
<!-- Node36&#45;&gt;Node40 -->
<g id="edge51" class="edge">
<title>Node36&#45;&gt;Node40</title>
<path fill="none" stroke="midnightblue" d="M370.35,-179.48C394.62,-170.78 432.98,-157.03 463.75,-146"/>
<polygon fill="midnightblue" stroke="midnightblue" points="465.21,-149.19 473.45,-142.52 462.85,-142.6 465.21,-149.19"/>
</g>
<!-- Node36&#45;&gt;Node41 -->
<g id="edge52" class="edge">
<title>Node36&#45;&gt;Node41</title>
<path fill="none" stroke="midnightblue" d="M407.22,-180.41C467.25,-172.51 561.63,-159.06 642.57,-143 648,-141.92 653.69,-140.68 659.29,-139.38"/>
<polygon fill="midnightblue" stroke="midnightblue" points="660.31,-142.73 669.23,-137.01 658.69,-135.92 660.31,-142.73"/>
</g>
<!-- Node41&#45;&gt;Node22 -->
<g id="edge53" class="edge">
<title>Node41&#45;&gt;Node22</title>
<path fill="none" stroke="midnightblue" d="M701.57,-117.98C701.57,-109.58 701.57,-96.48 701.57,-85.66"/>
<polygon fill="midnightblue" stroke="midnightblue" points="705.07,-85.51 701.57,-75.51 698.07,-85.51 705.07,-85.51"/>
</g>
<!-- Node43&#45;&gt;Node11 -->
<g id="edge59" class="edge">
<title>Node43&#45;&gt;Node11</title>
<path fill="none" stroke="midnightblue" d="M831.63,-291.08C826.59,-283.53 819.23,-272.49 813.06,-263.23"/>
<polygon fill="midnightblue" stroke="midnightblue" points="815.86,-261.13 807.4,-254.75 810.04,-265.01 815.86,-261.13"/>
</g>
<!-- Node44&#45;&gt;Node11 -->
<g id="edge61" class="edge">
<title>Node44&#45;&gt;Node11</title>
<path fill="none" stroke="midnightblue" d="M745.33,-291.32C755.34,-283.26 770.46,-271.08 782.5,-261.37"/>
<polygon fill="midnightblue" stroke="midnightblue" points="785.02,-263.83 790.61,-254.83 780.63,-258.38 785.02,-263.83"/>
</g>
</g>
</svg>
