<?xml version="1.0" encoding="UTF-8" standalone="no"?>
<!DOCTYPE svg PUBLIC "-//W3C//DTD SVG 1.1//EN"
 "http://www.w3.org/Graphics/SVG/1.1/DTD/svg11.dtd">
<!-- Generated by graphviz version 2.43.0 (0)
 -->
<!-- Title: dialects/demo/demo.h Pages: 1 -->
<svg width="1382pt" height="778pt"
 viewBox="0.00 0.00 1381.50 778.00" xmlns="http://www.w3.org/2000/svg" xmlns:xlink="http://www.w3.org/1999/xlink">
<g id="graph0" class="graph" transform="scale(1 1) rotate(0) translate(4 774)">
<title>dialects/demo/demo.h</title>
<!-- Node1 -->
<g id="node1" class="node">
<title>Node1</title>
<g id="a_node1"><a xlink:title=" ">
<polygon fill="#bfbfbf" stroke="black" points="54,-750.5 54,-769.5 179,-769.5 179,-750.5 54,-750.5"/>
<text text-anchor="middle" x="116.5" y="-757.5" font-family="Helvetica,sans-Serif" font-size="10.00">dialects/demo/demo.h</text>
</a>
</g>
</g>
<!-- Node2 -->
<g id="node2" class="node">
<title>Node2</title>
<g id="a_node2"><a xlink:href="world_8h.html" target="_top" xlink:title=" ">
<polygon fill="none" stroke="black" points="690.5,-414.5 690.5,-433.5 774.5,-433.5 774.5,-414.5 690.5,-414.5"/>
<text text-anchor="middle" x="732.5" y="-421.5" font-family="Helvetica,sans-Serif" font-size="10.00">thorin/world.h</text>
</a>
</g>
</g>
<!-- Node1&#45;&gt;Node2 -->
<g id="edge1" class="edge">
<title>Node1&#45;&gt;Node2</title>
<path fill="none" stroke="midnightblue" d="M123.31,-750.46C136.78,-732.69 165.5,-689.98 165.5,-649 165.5,-649 165.5,-649 165.5,-535 165.5,-430.69 539.97,-423.27 680.26,-424.15"/>
<polygon fill="midnightblue" stroke="midnightblue" points="680.32,-427.65 690.35,-424.23 680.37,-420.65 680.32,-427.65"/>
</g>
<!-- Node50 -->
<g id="node42" class="node">
<title>Node50</title>
<g id="a_node42"><a xlink:href="demo_2autogen_8h.html" target="_top" xlink:title=" ">
<polygon fill="none" stroke="black" points="0,-694.5 0,-713.5 137,-713.5 137,-694.5 0,-694.5"/>
<text text-anchor="middle" x="68.5" y="-701.5" font-family="Helvetica,sans-Serif" font-size="10.00">dialects/demo/autogen.h</text>
</a>
</g>
</g>
<!-- Node1&#45;&gt;Node50 -->
<g id="edge65" class="edge">
<title>Node1&#45;&gt;Node50</title>
<path fill="none" stroke="midnightblue" d="M108.57,-750.08C101.65,-742.3 91.43,-730.8 83.05,-721.37"/>
<polygon fill="midnightblue" stroke="midnightblue" points="85.54,-718.9 76.28,-713.75 80.31,-723.55 85.54,-718.9"/>
</g>
<!-- Node3 -->
<g id="node3" class="node">
<title>Node3</title>
<g id="a_node3"><a xlink:title=" ">
<polygon fill="none" stroke="#bfbfbf" points="1193.5,-118 1193.5,-137 1249.5,-137 1249.5,-118 1193.5,-118"/>
<text text-anchor="middle" x="1221.5" y="-125" font-family="Helvetica,sans-Serif" font-size="10.00">sstream</text>
</a>
</g>
</g>
<!-- Node2&#45;&gt;Node3 -->
<g id="edge2" class="edge">
<title>Node2&#45;&gt;Node3</title>
<path fill="none" stroke="midnightblue" d="M774.77,-422.92C865.72,-422.03 1076.53,-415.81 1135.5,-378 1209.64,-330.46 1211.35,-286.59 1220.5,-199 1222.33,-181.52 1222.42,-161.46 1222.15,-147.22"/>
<polygon fill="midnightblue" stroke="midnightblue" points="1225.65,-147.11 1221.88,-137.21 1218.65,-147.3 1225.65,-147.11"/>
</g>
<!-- Node4 -->
<g id="node4" class="node">
<title>Node4</title>
<g id="a_node4"><a xlink:title=" ">
<polygon fill="none" stroke="#bfbfbf" points="1290.5,-118 1290.5,-137 1334.5,-137 1334.5,-118 1290.5,-118"/>
<text text-anchor="middle" x="1312.5" y="-125" font-family="Helvetica,sans-Serif" font-size="10.00">string</text>
</a>
</g>
</g>
<!-- Node2&#45;&gt;Node4 -->
<g id="edge3" class="edge">
<title>Node2&#45;&gt;Node4</title>
<path fill="none" stroke="midnightblue" d="M774.59,-422.93C870.33,-422.08 1101.25,-416.04 1167.5,-378 1257.2,-326.5 1296.52,-195.8 1308.39,-147.14"/>
<polygon fill="midnightblue" stroke="midnightblue" points="1311.87,-147.63 1310.72,-137.1 1305.05,-146.04 1311.87,-147.63"/>
</g>
<!-- Node5 -->
<g id="node5" class="node">
<title>Node5</title>
<g id="a_node5"><a xlink:title=" ">
<polygon fill="none" stroke="#bfbfbf" points="452,-353 452,-372 525,-372 525,-353 452,-353"/>
<text text-anchor="middle" x="488.5" y="-360" font-family="Helvetica,sans-Serif" font-size="10.00">string_view</text>
</a>
</g>
</g>
<!-- Node2&#45;&gt;Node5 -->
<g id="edge4" class="edge">
<title>Node2&#45;&gt;Node5</title>
<path fill="none" stroke="midnightblue" d="M690.15,-414.42C649.89,-406.03 587.75,-392.42 534.5,-378 531.08,-377.07 527.54,-376.06 524,-375.01"/>
<polygon fill="midnightblue" stroke="midnightblue" points="524.77,-371.58 514.18,-372 522.72,-378.28 524.77,-371.58"/>
</g>
<!-- Node6 -->
<g id="node6" class="node">
<title>Node6</title>
<g id="a_node6"><a xlink:title=" ">
<polygon fill="none" stroke="#bfbfbf" points="543.5,-347.5 543.5,-377.5 657.5,-377.5 657.5,-347.5 543.5,-347.5"/>
<text text-anchor="start" x="551.5" y="-365.5" font-family="Helvetica,sans-Serif" font-size="10.00">absl/container/btree</text>
<text text-anchor="middle" x="600.5" y="-354.5" font-family="Helvetica,sans-Serif" font-size="10.00">_map.h</text>
</a>
</g>
</g>
<!-- Node2&#45;&gt;Node6 -->
<g id="edge5" class="edge">
<title>Node2&#45;&gt;Node6</title>
<path fill="none" stroke="midnightblue" d="M713.59,-414.48C694.71,-405.96 665.1,-392.62 640.92,-381.72"/>
<polygon fill="midnightblue" stroke="midnightblue" points="642.16,-378.44 631.61,-377.52 639.29,-384.82 642.16,-378.44"/>
</g>
<!-- Node7 -->
<g id="node7" class="node">
<title>Node7</title>
<g id="a_node7"><a xlink:title=" ">
<polygon fill="none" stroke="#bfbfbf" points="675.5,-347.5 675.5,-377.5 789.5,-377.5 789.5,-347.5 675.5,-347.5"/>
<text text-anchor="start" x="683.5" y="-365.5" font-family="Helvetica,sans-Serif" font-size="10.00">absl/container/btree</text>
<text text-anchor="middle" x="732.5" y="-354.5" font-family="Helvetica,sans-Serif" font-size="10.00">_set.h</text>
</a>
</g>
</g>
<!-- Node2&#45;&gt;Node7 -->
<g id="edge6" class="edge">
<title>Node2&#45;&gt;Node7</title>
<path fill="none" stroke="midnightblue" d="M732.5,-414.48C732.5,-407.47 732.5,-397.19 732.5,-387.7"/>
<polygon fill="midnightblue" stroke="midnightblue" points="736,-387.52 732.5,-377.52 729,-387.52 736,-387.52"/>
</g>
<!-- Node8 -->
<g id="node8" class="node">
<title>Node8</title>
<g id="a_node8"><a xlink:href="axiom_8h.html" target="_top" xlink:title=" ">
<polygon fill="none" stroke="black" points="269.5,-353 269.5,-372 357.5,-372 357.5,-353 269.5,-353"/>
<text text-anchor="middle" x="313.5" y="-360" font-family="Helvetica,sans-Serif" font-size="10.00">thorin/axiom.h</text>
</a>
</g>
</g>
<!-- Node2&#45;&gt;Node8 -->
<g id="edge7" class="edge">
<title>Node2&#45;&gt;Node8</title>
<path fill="none" stroke="midnightblue" d="M690.28,-419.41C622.62,-413.28 485.89,-399.35 371.5,-378 366.02,-376.98 360.28,-375.74 354.63,-374.43"/>
<polygon fill="midnightblue" stroke="midnightblue" points="355.19,-370.97 344.65,-372.02 353.55,-377.77 355.19,-370.97"/>
</g>
<!-- Node14 -->
<g id="node14" class="node">
<title>Node14</title>
<g id="a_node14"><a xlink:href="debug_8h.html" target="_top" xlink:title=" ">
<polygon fill="none" stroke="black" points="984,-179.5 984,-198.5 1071,-198.5 1071,-179.5 984,-179.5"/>
<text text-anchor="middle" x="1027.5" y="-186.5" font-family="Helvetica,sans-Serif" font-size="10.00">thorin/debug.h</text>
</a>
</g>
</g>
<!-- Node2&#45;&gt;Node14 -->
<g id="edge49" class="edge">
<title>Node2&#45;&gt;Node14</title>
<path fill="none" stroke="midnightblue" d="M774.5,-423.06C852.37,-422.25 1014.73,-415.93 1053.5,-378 1099.37,-333.12 1098.38,-294.15 1073.5,-235 1068.47,-223.05 1058.56,-212.69 1049.21,-204.93"/>
<polygon fill="midnightblue" stroke="midnightblue" points="1051.34,-202.15 1041.29,-198.81 1047.06,-207.69 1051.34,-202.15"/>
</g>
<!-- Node33 -->
<g id="node25" class="node">
<title>Node33</title>
<g id="a_node25"><a xlink:href="hash_8h.html" target="_top" xlink:title=" ">
<polygon fill="none" stroke="black" points="662,-118 662,-137 761,-137 761,-118 662,-118"/>
<text text-anchor="middle" x="711.5" y="-125" font-family="Helvetica,sans-Serif" font-size="10.00">thorin/util/hash.h</text>
</a>
</g>
</g>
<!-- Node2&#45;&gt;Node33 -->
<g id="edge61" class="edge">
<title>Node2&#45;&gt;Node33</title>
<path fill="none" stroke="midnightblue" d="M774.75,-422.28C842.83,-420.12 972.08,-411.59 1000.5,-378 1039.05,-332.44 1000.87,-301.17 819.5,-179 795.87,-163.08 766.43,-149.69 744.26,-140.7"/>
<polygon fill="midnightblue" stroke="midnightblue" points="745.52,-137.43 734.94,-137 742.95,-143.94 745.52,-137.43"/>
</g>
<!-- Node43 -->
<g id="node35" class="node">
<title>Node43</title>
<g id="a_node35"><a xlink:title=" ">
<polygon fill="none" stroke="#bfbfbf" points="807.5,-353 807.5,-372 893.5,-372 893.5,-353 807.5,-353"/>
<text text-anchor="middle" x="850.5" y="-360" font-family="Helvetica,sans-Serif" font-size="10.00">thorin/config.h</text>
</a>
</g>
</g>
<!-- Node2&#45;&gt;Node43 -->
<g id="edge48" class="edge">
<title>Node2&#45;&gt;Node43</title>
<path fill="none" stroke="midnightblue" d="M749.41,-414.48C769.03,-404.58 801.63,-388.14 824.49,-376.62"/>
<polygon fill="midnightblue" stroke="midnightblue" points="826.27,-379.64 833.62,-372.01 823.12,-373.39 826.27,-379.64"/>
</g>
<!-- Node44 -->
<g id="node36" class="node">
<title>Node44</title>
<g id="a_node36"><a xlink:href="error_8h.html" target="_top" xlink:title=" ">
<polygon fill="none" stroke="black" points="1120.5,-235.5 1120.5,-254.5 1200.5,-254.5 1200.5,-235.5 1120.5,-235.5"/>
<text text-anchor="middle" x="1160.5" y="-242.5" font-family="Helvetica,sans-Serif" font-size="10.00">thorin/error.h</text>
</a>
</g>
</g>
<!-- Node2&#45;&gt;Node44 -->
<g id="edge50" class="edge">
<title>Node2&#45;&gt;Node44</title>
<path fill="none" stroke="midnightblue" d="M774.51,-423.28C861.62,-423.03 1058.1,-417.93 1109.5,-378 1145.3,-350.19 1155.99,-293.9 1159.16,-264.63"/>
<polygon fill="midnightblue" stroke="midnightblue" points="1162.66,-264.8 1160.07,-254.53 1155.69,-264.17 1162.66,-264.8"/>
</g>
<!-- Node46 -->
<g id="node38" class="node">
<title>Node46</title>
<g id="a_node38"><a xlink:href="flags_8h.html" target="_top" xlink:title=" ">
<polygon fill="none" stroke="black" points="911.5,-353 911.5,-372 991.5,-372 991.5,-353 911.5,-353"/>
<text text-anchor="middle" x="951.5" y="-360" font-family="Helvetica,sans-Serif" font-size="10.00">thorin/flags.h</text>
</a>
</g>
</g>
<!-- Node2&#45;&gt;Node46 -->
<g id="edge56" class="edge">
<title>Node2&#45;&gt;Node46</title>
<path fill="none" stroke="midnightblue" d="M765.8,-414.49C800.13,-405.64 855.17,-391.26 902.5,-378 906.04,-377.01 909.72,-375.96 913.4,-374.89"/>
<polygon fill="midnightblue" stroke="midnightblue" points="914.42,-378.24 923.04,-372.07 912.46,-371.52 914.42,-378.24"/>
</g>
<!-- Node47 -->
<g id="node39" class="node">
<title>Node47</title>
<g id="a_node39"><a xlink:href="lattice_8h.html" target="_top" xlink:title=" ">
<polygon fill="none" stroke="black" points="557.5,-291.5 557.5,-310.5 645.5,-310.5 645.5,-291.5 557.5,-291.5"/>
<text text-anchor="middle" x="601.5" y="-298.5" font-family="Helvetica,sans-Serif" font-size="10.00">thorin/lattice.h</text>
</a>
</g>
</g>
<!-- Node2&#45;&gt;Node47 -->
<g id="edge57" class="edge">
<title>Node2&#45;&gt;Node47</title>
<path fill="none" stroke="midnightblue" d="M690.45,-423.67C611.23,-423.94 444.58,-419.44 408.5,-378 399.45,-367.61 399.93,-357.79 408.5,-347 412.95,-341.39 493.38,-324.02 548.99,-312.57"/>
<polygon fill="midnightblue" stroke="midnightblue" points="549.96,-315.94 559.06,-310.51 548.56,-309.09 549.96,-315.94"/>
</g>
<!-- Node48 -->
<g id="node40" class="node">
<title>Node48</title>
<g id="a_node40"><a xlink:href="tuple_8h.html" target="_top" xlink:title=" ">
<polygon fill="none" stroke="black" points="663.5,-291.5 663.5,-310.5 745.5,-310.5 745.5,-291.5 663.5,-291.5"/>
<text text-anchor="middle" x="704.5" y="-298.5" font-family="Helvetica,sans-Serif" font-size="10.00">thorin/tuple.h</text>
</a>
</g>
</g>
<!-- Node2&#45;&gt;Node48 -->
<g id="edge59" class="edge">
<title>Node2&#45;&gt;Node48</title>
<path fill="none" stroke="midnightblue" d="M690.32,-422.89C617.72,-421.7 473.91,-414.66 442.5,-378 341.15,-259.71 243.59,-381.16 653.22,-311.19"/>
<polygon fill="midnightblue" stroke="midnightblue" points="654.05,-314.6 663.31,-309.45 652.85,-307.7 654.05,-314.6"/>
</g>
<!-- Node49 -->
<g id="node41" class="node">
<title>Node49</title>
<g id="a_node41"><a xlink:href="log_8h.html" target="_top" xlink:title=" ">
<polygon fill="none" stroke="black" points="973,-235.5 973,-254.5 1064,-254.5 1064,-235.5 973,-235.5"/>
<text text-anchor="middle" x="1018.5" y="-242.5" font-family="Helvetica,sans-Serif" font-size="10.00">thorin/util/log.h</text>
</a>
</g>
</g>
<!-- Node2&#45;&gt;Node49 -->
<g id="edge62" class="edge">
<title>Node2&#45;&gt;Node49</title>
<path fill="none" stroke="midnightblue" d="M774.78,-423.16C849.62,-422.45 1000.61,-416.18 1033.5,-378 1061.26,-345.79 1041.26,-291.51 1027.89,-263.66"/>
<polygon fill="midnightblue" stroke="midnightblue" points="1030.99,-262.04 1023.36,-254.68 1024.74,-265.19 1030.99,-262.04"/>
</g>
<!-- Node9 -->
<g id="node9" class="node">
<title>Node9</title>
<g id="a_node9"><a xlink:href="lam_8h.html" target="_top" xlink:title=" ">
<polygon fill="none" stroke="black" points="463.5,-291.5 463.5,-310.5 539.5,-310.5 539.5,-291.5 463.5,-291.5"/>
<text text-anchor="middle" x="501.5" y="-298.5" font-family="Helvetica,sans-Serif" font-size="10.00">thorin/lam.h</text>
</a>
</g>
</g>
<!-- Node8&#45;&gt;Node9 -->
<g id="edge8" class="edge">
<title>Node8&#45;&gt;Node9</title>
<path fill="none" stroke="midnightblue" d="M340.44,-352.98C373.1,-342.64 428.32,-325.16 464.84,-313.6"/>
<polygon fill="midnightblue" stroke="midnightblue" points="466.14,-316.86 474.61,-310.51 464.02,-310.19 466.14,-316.86"/>
</g>
<!-- Node42 -->
<g id="node34" class="node">
<title>Node42</title>
<g id="a_node34"><a xlink:href="assert_8h.html" target="_top" xlink:title=" ">
<polygon fill="none" stroke="black" points="499.5,-118 499.5,-137 605.5,-137 605.5,-118 499.5,-118"/>
<text text-anchor="middle" x="552.5" y="-125" font-family="Helvetica,sans-Serif" font-size="10.00">thorin/util/assert.h</text>
</a>
</g>
</g>
<!-- Node8&#45;&gt;Node42 -->
<g id="edge47" class="edge">
<title>Node8&#45;&gt;Node42</title>
<path fill="none" stroke="midnightblue" d="M318.32,-352.8C334.37,-324.52 388.66,-233.83 454.5,-179 474.09,-162.69 499.83,-149.68 520.01,-140.95"/>
<polygon fill="midnightblue" stroke="midnightblue" points="521.54,-144.1 529.42,-137.01 518.84,-137.64 521.54,-144.1"/>
</g>
<!-- Node10 -->
<g id="node10" class="node">
<title>Node10</title>
<g id="a_node10"><a xlink:title=" ">
<polygon fill="none" stroke="#bfbfbf" points="476,-235.5 476,-254.5 527,-254.5 527,-235.5 476,-235.5"/>
<text text-anchor="middle" x="501.5" y="-242.5" font-family="Helvetica,sans-Serif" font-size="10.00">variant</text>
</a>
</g>
</g>
<!-- Node9&#45;&gt;Node10 -->
<g id="edge9" class="edge">
<title>Node9&#45;&gt;Node10</title>
<path fill="none" stroke="midnightblue" d="M501.5,-291.08C501.5,-284.01 501.5,-273.86 501.5,-264.99"/>
<polygon fill="midnightblue" stroke="midnightblue" points="505,-264.75 501.5,-254.75 498,-264.75 505,-264.75"/>
</g>
<!-- Node11 -->
<g id="node11" class="node">
<title>Node11</title>
<g id="a_node11"><a xlink:href="def_8h.html" target="_top" xlink:title=" ">
<polygon fill="none" stroke="black" points="595.5,-235.5 595.5,-254.5 667.5,-254.5 667.5,-235.5 595.5,-235.5"/>
<text text-anchor="middle" x="631.5" y="-242.5" font-family="Helvetica,sans-Serif" font-size="10.00">thorin/def.h</text>
</a>
</g>
</g>
<!-- Node9&#45;&gt;Node11 -->
<g id="edge10" class="edge">
<title>Node9&#45;&gt;Node11</title>
<path fill="none" stroke="midnightblue" d="M522.1,-291.44C543.49,-282.56 577.18,-268.56 601.52,-258.45"/>
<polygon fill="midnightblue" stroke="midnightblue" points="603.11,-261.58 611,-254.52 600.42,-255.12 603.11,-261.58"/>
</g>
<!-- Node12 -->
<g id="node12" class="node">
<title>Node12</title>
<g id="a_node12"><a xlink:title=" ">
<polygon fill="none" stroke="#bfbfbf" points="463.5,-179.5 463.5,-198.5 519.5,-198.5 519.5,-179.5 463.5,-179.5"/>
<text text-anchor="middle" x="491.5" y="-186.5" font-family="Helvetica,sans-Serif" font-size="10.00">optional</text>
</a>
</g>
</g>
<!-- Node11&#45;&gt;Node12 -->
<g id="edge11" class="edge">
<title>Node11&#45;&gt;Node12</title>
<path fill="none" stroke="midnightblue" d="M609.32,-235.44C586.07,-226.48 549.35,-212.31 523.08,-202.18"/>
<polygon fill="midnightblue" stroke="midnightblue" points="524.17,-198.85 513.58,-198.52 521.65,-205.38 524.17,-198.85"/>
</g>
<!-- Node13 -->
<g id="node13" class="node">
<title>Node13</title>
<g id="a_node13"><a xlink:title=" ">
<polygon fill="none" stroke="#bfbfbf" points="143,-118 143,-137 190,-137 190,-118 143,-118"/>
<text text-anchor="middle" x="166.5" y="-125" font-family="Helvetica,sans-Serif" font-size="10.00">vector</text>
</a>
</g>
</g>
<!-- Node11&#45;&gt;Node13 -->
<g id="edge12" class="edge">
<title>Node11&#45;&gt;Node13</title>
<path fill="none" stroke="midnightblue" d="M595.28,-240.68C508.03,-232.54 291.17,-211.32 260.5,-199 229.59,-186.58 199.87,-161.32 182.4,-144.66"/>
<polygon fill="midnightblue" stroke="midnightblue" points="184.44,-141.76 174.85,-137.26 179.54,-146.76 184.44,-141.76"/>
</g>
<!-- Node11&#45;&gt;Node14 -->
<g id="edge13" class="edge">
<title>Node11&#45;&gt;Node14</title>
<path fill="none" stroke="midnightblue" d="M667.61,-239.72C728.49,-232.4 855.64,-216.69 973.9,-199.04"/>
<polygon fill="midnightblue" stroke="midnightblue" points="974.48,-202.49 983.85,-197.55 973.44,-195.57 974.48,-202.49"/>
</g>
<!-- Node17 -->
<g id="node17" class="node">
<title>Node17</title>
<g id="a_node17"><a xlink:href="array_8h.html" target="_top" xlink:title=" ">
<polygon fill="none" stroke="red" points="269.5,-179.5 269.5,-198.5 369.5,-198.5 369.5,-179.5 269.5,-179.5"/>
<text text-anchor="middle" x="319.5" y="-186.5" font-family="Helvetica,sans-Serif" font-size="10.00">thorin/util/array.h</text>
</a>
</g>
</g>
<!-- Node11&#45;&gt;Node17 -->
<g id="edge17" class="edge">
<title>Node11&#45;&gt;Node17</title>
<path fill="none" stroke="midnightblue" d="M595.4,-237.75C542.34,-228.57 442.67,-211.32 378.77,-200.26"/>
<polygon fill="midnightblue" stroke="midnightblue" points="379.29,-196.8 368.84,-198.54 378.09,-203.69 379.29,-196.8"/>
</g>
<!-- Node27 -->
<g id="node22" class="node">
<title>Node27</title>
<g id="a_node22"><a xlink:href="cast_8h.html" target="_top" xlink:title=" ">
<polygon fill="none" stroke="red" points="537.5,-179.5 537.5,-198.5 633.5,-198.5 633.5,-179.5 537.5,-179.5"/>
<text text-anchor="middle" x="585.5" y="-186.5" font-family="Helvetica,sans-Serif" font-size="10.00">thorin/util/cast.h</text>
</a>
</g>
</g>
<!-- Node11&#45;&gt;Node27 -->
<g id="edge23" class="edge">
<title>Node11&#45;&gt;Node27</title>
<path fill="none" stroke="midnightblue" d="M623.9,-235.08C617.27,-227.3 607.48,-215.8 599.44,-206.37"/>
<polygon fill="midnightblue" stroke="midnightblue" points="602.1,-204.09 592.95,-198.75 596.77,-208.63 602.1,-204.09"/>
</g>
<!-- Node28 -->
<g id="node23" class="node">
<title>Node28</title>
<g id="a_node23"><a xlink:href="container_8h.html" target="_top" xlink:title=" ">
<polygon fill="none" stroke="red" points="690,-179.5 690,-198.5 811,-198.5 811,-179.5 690,-179.5"/>
<text text-anchor="middle" x="750.5" y="-186.5" font-family="Helvetica,sans-Serif" font-size="10.00">thorin/util/container.h</text>
</a>
</g>
</g>
<!-- Node11&#45;&gt;Node28 -->
<g id="edge25" class="edge">
<title>Node11&#45;&gt;Node28</title>
<path fill="none" stroke="midnightblue" d="M650.36,-235.44C669.77,-226.64 700.23,-212.81 722.46,-202.72"/>
<polygon fill="midnightblue" stroke="midnightblue" points="724.07,-205.84 731.73,-198.52 721.18,-199.46 724.07,-205.84"/>
</g>
<!-- Node11&#45;&gt;Node33 -->
<g id="edge37" class="edge">
<title>Node11&#45;&gt;Node33</title>
<path fill="none" stroke="midnightblue" d="M637.51,-235.32C650.66,-216.34 682.17,-170.85 699.53,-145.79"/>
<polygon fill="midnightblue" stroke="midnightblue" points="702.6,-147.5 705.42,-137.28 696.85,-143.51 702.6,-147.5"/>
</g>
<!-- Node40 -->
<g id="node32" class="node">
<title>Node40</title>
<g id="a_node32"><a xlink:href="print_8h.html" target="_top" xlink:title=" ">
<polygon fill="none" stroke="black" points="867.5,-179.5 867.5,-198.5 965.5,-198.5 965.5,-179.5 867.5,-179.5"/>
<text text-anchor="middle" x="916.5" y="-186.5" font-family="Helvetica,sans-Serif" font-size="10.00">thorin/util/print.h</text>
</a>
</g>
</g>
<!-- Node11&#45;&gt;Node40 -->
<g id="edge38" class="edge">
<title>Node11&#45;&gt;Node40</title>
<path fill="none" stroke="midnightblue" d="M667.6,-237.16C716.49,-227.9 804.2,-211.28 861.36,-200.45"/>
<polygon fill="midnightblue" stroke="midnightblue" points="862.14,-203.86 871.32,-198.56 860.84,-196.98 862.14,-203.86"/>
</g>
<!-- Node14&#45;&gt;Node4 -->
<g id="edge14" class="edge">
<title>Node14&#45;&gt;Node4</title>
<path fill="none" stroke="midnightblue" d="M1071.12,-180.44C1117.71,-172.15 1193.62,-158.01 1258.5,-143 1265.55,-141.37 1273.08,-139.46 1280.21,-137.57"/>
<polygon fill="midnightblue" stroke="midnightblue" points="1281.52,-140.84 1290.26,-134.85 1279.69,-134.08 1281.52,-140.84"/>
</g>
<!-- Node15 -->
<g id="node15" class="node">
<title>Node15</title>
<g id="a_node15"><a xlink:title=" ">
<polygon fill="none" stroke="#bfbfbf" points="1017.5,-112.5 1017.5,-142.5 1121.5,-142.5 1121.5,-112.5 1017.5,-112.5"/>
<text text-anchor="start" x="1025.5" y="-130.5" font-family="Helvetica,sans-Serif" font-size="10.00">absl/container/flat</text>
<text text-anchor="middle" x="1069.5" y="-119.5" font-family="Helvetica,sans-Serif" font-size="10.00">_hash_map.h</text>
</a>
</g>
</g>
<!-- Node14&#45;&gt;Node15 -->
<g id="edge15" class="edge">
<title>Node14&#45;&gt;Node15</title>
<path fill="none" stroke="midnightblue" d="M1033.52,-179.48C1038.78,-172.02 1046.66,-160.85 1053.71,-150.87"/>
<polygon fill="midnightblue" stroke="midnightblue" points="1056.69,-152.71 1059.6,-142.52 1050.98,-148.67 1056.69,-152.71"/>
</g>
<!-- Node16 -->
<g id="node16" class="node">
<title>Node16</title>
<g id="a_node16"><a xlink:title=" ">
<polygon fill="none" stroke="#bfbfbf" points="895.5,-112.5 895.5,-142.5 999.5,-142.5 999.5,-112.5 895.5,-112.5"/>
<text text-anchor="start" x="903.5" y="-130.5" font-family="Helvetica,sans-Serif" font-size="10.00">absl/container/flat</text>
<text text-anchor="middle" x="947.5" y="-119.5" font-family="Helvetica,sans-Serif" font-size="10.00">_hash_set.h</text>
</a>
</g>
</g>
<!-- Node14&#45;&gt;Node16 -->
<g id="edge16" class="edge">
<title>Node14&#45;&gt;Node16</title>
<path fill="none" stroke="midnightblue" d="M1016.04,-179.48C1005.3,-171.49 988.85,-159.25 974.75,-148.77"/>
<polygon fill="midnightblue" stroke="midnightblue" points="976.47,-145.68 966.35,-142.52 972.29,-151.3 976.47,-145.68"/>
</g>
<!-- Node17&#45;&gt;Node13 -->
<g id="edge22" class="edge">
<title>Node17&#45;&gt;Node13</title>
<path fill="none" stroke="midnightblue" d="M297.58,-179.48C271.45,-169.31 227.59,-152.26 197.87,-140.7"/>
<polygon fill="midnightblue" stroke="midnightblue" points="198.97,-137.37 188.38,-137.01 196.43,-143.9 198.97,-137.37"/>
</g>
<!-- Node18 -->
<g id="node18" class="node">
<title>Node18</title>
<g id="a_node18"><a xlink:title=" ">
<polygon fill="none" stroke="#bfbfbf" points="526.5,-56.5 526.5,-75.5 578.5,-75.5 578.5,-56.5 526.5,-56.5"/>
<text text-anchor="middle" x="552.5" y="-63.5" font-family="Helvetica,sans-Serif" font-size="10.00">cassert</text>
</a>
</g>
</g>
<!-- Node17&#45;&gt;Node18 -->
<g id="edge18" class="edge">
<title>Node17&#45;&gt;Node18</title>
<path fill="none" stroke="midnightblue" d="M318.93,-179.27C318.42,-163.46 319.79,-130.02 338.5,-112 363.5,-87.93 461.92,-75.29 516.16,-70.03"/>
<polygon fill="midnightblue" stroke="midnightblue" points="516.75,-73.49 526.38,-69.07 516.1,-66.52 516.75,-73.49"/>
</g>
<!-- Node22 -->
<g id="node19" class="node">
<title>Node22</title>
<g id="a_node19"><a xlink:title=" ">
<polygon fill="none" stroke="#bfbfbf" points="348,-118 348,-137 413,-137 413,-118 348,-118"/>
<text text-anchor="middle" x="380.5" y="-125" font-family="Helvetica,sans-Serif" font-size="10.00">functional</text>
</a>
</g>
</g>
<!-- Node17&#45;&gt;Node22 -->
<g id="edge19" class="edge">
<title>Node17&#45;&gt;Node22</title>
<path fill="none" stroke="midnightblue" d="M328.24,-179.48C337.66,-170.28 352.86,-155.46 364.45,-144.16"/>
<polygon fill="midnightblue" stroke="midnightblue" points="367.06,-146.5 371.78,-137.01 362.17,-141.49 367.06,-146.5"/>
</g>
<!-- Node25 -->
<g id="node20" class="node">
<title>Node25</title>
<g id="a_node20"><a xlink:title=" ">
<polygon fill="none" stroke="#bfbfbf" points="431.5,-118 431.5,-137 481.5,-137 481.5,-118 431.5,-118"/>
<text text-anchor="middle" x="456.5" y="-125" font-family="Helvetica,sans-Serif" font-size="10.00">ranges</text>
</a>
</g>
</g>
<!-- Node17&#45;&gt;Node25 -->
<g id="edge20" class="edge">
<title>Node17&#45;&gt;Node25</title>
<path fill="none" stroke="midnightblue" d="M339.13,-179.48C362.32,-169.4 401.12,-152.55 427.71,-141"/>
<polygon fill="midnightblue" stroke="midnightblue" points="429.13,-144.2 436.91,-137.01 426.34,-137.78 429.13,-144.2"/>
</g>
<!-- Node26 -->
<g id="node21" class="node">
<title>Node26</title>
<g id="a_node21"><a xlink:title=" ">
<polygon fill="none" stroke="#bfbfbf" points="320,-0.5 320,-19.5 389,-19.5 389,-0.5 320,-0.5"/>
<text text-anchor="middle" x="354.5" y="-7.5" font-family="Helvetica,sans-Serif" font-size="10.00">type_traits</text>
</a>
</g>
</g>
<!-- Node17&#45;&gt;Node26 -->
<g id="edge21" class="edge">
<title>Node17&#45;&gt;Node26</title>
<path fill="none" stroke="midnightblue" d="M288.48,-179.44C270.47,-172.69 249.27,-161.3 238.5,-143 231.51,-131.13 232.79,-124.54 238.5,-112 256.89,-71.61 300.3,-41.09 328.49,-24.65"/>
<polygon fill="midnightblue" stroke="midnightblue" points="330.41,-27.58 337.4,-19.62 326.97,-21.49 330.41,-27.58"/>
</g>
<!-- Node27&#45;&gt;Node18 -->
<g id="edge24" class="edge">
<title>Node27&#45;&gt;Node18</title>
<path fill="none" stroke="midnightblue" d="M593.5,-179.31C605.72,-164.92 626.43,-135.4 614.5,-112 607.5,-98.27 594.13,-87.75 581.6,-80.35"/>
<polygon fill="midnightblue" stroke="midnightblue" points="583.18,-77.22 572.72,-75.51 579.83,-83.37 583.18,-77.22"/>
</g>
<!-- Node28&#45;&gt;Node15 -->
<g id="edge27" class="edge">
<title>Node28&#45;&gt;Node15</title>
<path fill="none" stroke="midnightblue" d="M805.04,-179.47C855.14,-171.42 931.66,-158.56 1007.14,-143.21"/>
<polygon fill="midnightblue" stroke="midnightblue" points="1008.21,-146.56 1017.3,-141.13 1006.8,-139.71 1008.21,-146.56"/>
</g>
<!-- Node28&#45;&gt;Node16 -->
<g id="edge28" class="edge">
<title>Node28&#45;&gt;Node16</title>
<path fill="none" stroke="midnightblue" d="M778.73,-179.48C808.02,-170.63 854.63,-156.55 891.45,-145.43"/>
<polygon fill="midnightblue" stroke="midnightblue" points="892.51,-148.76 901.07,-142.52 890.49,-142.06 892.51,-148.76"/>
</g>
<!-- Node30 -->
<g id="node24" class="node">
<title>Node30</title>
<g id="a_node24"><a xlink:title=" ">
<polygon fill="none" stroke="#bfbfbf" points="248,-118 248,-137 291,-137 291,-118 248,-118"/>
<text text-anchor="middle" x="269.5" y="-125" font-family="Helvetica,sans-Serif" font-size="10.00">stack</text>
</a>
</g>
</g>
<!-- Node28&#45;&gt;Node30 -->
<g id="edge26" class="edge">
<title>Node28&#45;&gt;Node30</title>
<path fill="none" stroke="midnightblue" d="M689.76,-182.11C592.13,-172.51 404.58,-153.53 338.5,-143 326.16,-141.03 312.69,-138.33 300.95,-135.79"/>
<polygon fill="midnightblue" stroke="midnightblue" points="301.67,-132.36 291.15,-133.62 300.16,-139.2 301.67,-132.36"/>
</g>
<!-- Node28&#45;&gt;Node33 -->
<g id="edge29" class="edge">
<title>Node28&#45;&gt;Node33</title>
<path fill="none" stroke="midnightblue" d="M744.91,-179.48C739.12,-170.64 729.91,-156.59 722.63,-145.48"/>
<polygon fill="midnightblue" stroke="midnightblue" points="725.49,-143.45 717.08,-137.01 719.63,-147.29 725.49,-143.45"/>
</g>
<!-- Node34 -->
<g id="node26" class="node">
<title>Node34</title>
<g id="a_node26"><a xlink:href="types_8h.html" target="_top" xlink:title=" ">
<polygon fill="none" stroke="black" points="665,-56.5 665,-75.5 768,-75.5 768,-56.5 665,-56.5"/>
<text text-anchor="middle" x="716.5" y="-63.5" font-family="Helvetica,sans-Serif" font-size="10.00">thorin/util/types.h</text>
</a>
</g>
</g>
<!-- Node33&#45;&gt;Node34 -->
<g id="edge30" class="edge">
<title>Node33&#45;&gt;Node34</title>
<path fill="none" stroke="midnightblue" d="M712.22,-117.98C712.92,-109.58 714.02,-96.48 714.93,-85.66"/>
<polygon fill="midnightblue" stroke="midnightblue" points="718.44,-85.77 715.78,-75.51 711.46,-85.18 718.44,-85.77"/>
</g>
<!-- Node34&#45;&gt;Node26 -->
<g id="edge34" class="edge">
<title>Node34&#45;&gt;Node26</title>
<path fill="none" stroke="midnightblue" d="M664.63,-57.26C593.47,-46.65 466.72,-27.74 399.41,-17.7"/>
<polygon fill="midnightblue" stroke="midnightblue" points="399.54,-14.18 389.13,-16.17 398.51,-21.1 399.54,-14.18"/>
</g>
<!-- Node35 -->
<g id="node27" class="node">
<title>Node35</title>
<g id="a_node27"><a xlink:title=" ">
<polygon fill="none" stroke="#bfbfbf" points="694.5,-0.5 694.5,-19.5 744.5,-19.5 744.5,-0.5 694.5,-0.5"/>
<text text-anchor="middle" x="719.5" y="-7.5" font-family="Helvetica,sans-Serif" font-size="10.00">cstdint</text>
</a>
</g>
</g>
<!-- Node34&#45;&gt;Node35 -->
<g id="edge31" class="edge">
<title>Node34&#45;&gt;Node35</title>
<path fill="none" stroke="midnightblue" d="M717,-56.08C717.39,-49.01 717.95,-38.86 718.45,-29.99"/>
<polygon fill="midnightblue" stroke="midnightblue" points="721.95,-29.93 719.01,-19.75 714.96,-29.54 721.95,-29.93"/>
</g>
<!-- Node36 -->
<g id="node28" class="node">
<title>Node36</title>
<g id="a_node28"><a xlink:title=" ">
<polygon fill="none" stroke="#bfbfbf" points="762.5,-0.5 762.5,-19.5 806.5,-19.5 806.5,-0.5 762.5,-0.5"/>
<text text-anchor="middle" x="784.5" y="-7.5" font-family="Helvetica,sans-Serif" font-size="10.00">limits</text>
</a>
</g>
</g>
<!-- Node34&#45;&gt;Node36 -->
<g id="edge32" class="edge">
<title>Node34&#45;&gt;Node36</title>
<path fill="none" stroke="midnightblue" d="M727.43,-56.32C737.67,-48.18 753.22,-35.84 765.5,-26.09"/>
<polygon fill="midnightblue" stroke="midnightblue" points="767.72,-28.79 773.38,-19.83 763.37,-23.31 767.72,-28.79"/>
</g>
<!-- Node37 -->
<g id="node29" class="node">
<title>Node37</title>
<g id="a_node29"><a xlink:title=" ">
<polygon fill="none" stroke="#bfbfbf" points="836,-0.5 836,-19.5 893,-19.5 893,-0.5 836,-0.5"/>
<text text-anchor="middle" x="864.5" y="-7.5" font-family="Helvetica,sans-Serif" font-size="10.00">ostream</text>
</a>
</g>
</g>
<!-- Node34&#45;&gt;Node37 -->
<g id="edge33" class="edge">
<title>Node34&#45;&gt;Node37</title>
<path fill="none" stroke="midnightblue" d="M739.95,-56.44C764.63,-47.44 803.69,-33.19 831.48,-23.05"/>
<polygon fill="midnightblue" stroke="midnightblue" points="832.96,-26.23 841.16,-19.52 830.56,-19.66 832.96,-26.23"/>
</g>
<!-- Node38 -->
<g id="node30" class="node">
<title>Node38</title>
<g id="a_node30"><a xlink:title=" ">
<polygon fill="none" stroke="#bfbfbf" points="555,-0.5 555,-19.5 602,-19.5 602,-0.5 555,-0.5"/>
<text text-anchor="middle" x="578.5" y="-7.5" font-family="Helvetica,sans-Serif" font-size="10.00">cmath</text>
</a>
</g>
</g>
<!-- Node34&#45;&gt;Node38 -->
<g id="edge35" class="edge">
<title>Node34&#45;&gt;Node38</title>
<path fill="none" stroke="midnightblue" d="M694.63,-56.44C671.72,-47.48 635.52,-33.31 609.63,-23.18"/>
<polygon fill="midnightblue" stroke="midnightblue" points="610.85,-19.9 600.26,-19.52 608.3,-26.42 610.85,-19.9"/>
</g>
<!-- Node39 -->
<g id="node31" class="node">
<title>Node39</title>
<g id="a_node31"><a xlink:title=" ">
<polygon fill="none" stroke="#bfbfbf" points="620.5,-0.5 620.5,-19.5 676.5,-19.5 676.5,-0.5 620.5,-0.5"/>
<text text-anchor="middle" x="648.5" y="-7.5" font-family="Helvetica,sans-Serif" font-size="10.00">half.hpp</text>
</a>
</g>
</g>
<!-- Node34&#45;&gt;Node39 -->
<g id="edge36" class="edge">
<title>Node34&#45;&gt;Node39</title>
<path fill="none" stroke="midnightblue" d="M705.57,-56.32C695.33,-48.18 679.78,-35.84 667.5,-26.09"/>
<polygon fill="midnightblue" stroke="midnightblue" points="669.63,-23.31 659.62,-19.83 665.28,-28.79 669.63,-23.31"/>
</g>
<!-- Node40&#45;&gt;Node3 -->
<g id="edge43" class="edge">
<title>Node40&#45;&gt;Node3</title>
<path fill="none" stroke="midnightblue" d="M960.2,-179.48C1020.05,-167.8 1126.57,-147.02 1183.36,-135.94"/>
<polygon fill="midnightblue" stroke="midnightblue" points="1184.22,-139.34 1193.37,-133.99 1182.88,-132.47 1184.22,-139.34"/>
</g>
<!-- Node40&#45;&gt;Node4 -->
<g id="edge44" class="edge">
<title>Node40&#45;&gt;Node4</title>
<path fill="none" stroke="midnightblue" d="M965.74,-180.39C969.04,-179.91 972.32,-179.44 975.5,-179 1101.07,-161.44 1134.1,-167.5 1258.5,-143 1265.6,-141.6 1273.15,-139.79 1280.28,-137.92"/>
<polygon fill="midnightblue" stroke="midnightblue" points="1281.6,-141.19 1290.33,-135.18 1279.76,-134.43 1281.6,-141.19"/>
</g>
<!-- Node40&#45;&gt;Node22 -->
<g id="edge39" class="edge">
<title>Node40&#45;&gt;Node22</title>
<path fill="none" stroke="midnightblue" d="M867.16,-183.4C851.88,-181.98 834.99,-180.42 819.5,-179 643.07,-162.82 595.72,-180.18 422.5,-143 419,-142.25 415.39,-141.29 411.82,-140.23"/>
<polygon fill="midnightblue" stroke="midnightblue" points="412.61,-136.81 402.01,-137.05 410.44,-143.46 412.61,-136.81"/>
</g>
<!-- Node40&#45;&gt;Node25 -->
<g id="edge42" class="edge">
<title>Node40&#45;&gt;Node25</title>
<path fill="none" stroke="midnightblue" d="M867.25,-183.19C759.01,-172.57 508.52,-147.68 490.5,-143 488.14,-142.39 485.74,-141.64 483.35,-140.8"/>
<polygon fill="midnightblue" stroke="midnightblue" points="484.38,-137.45 473.8,-137.05 481.82,-143.97 484.38,-137.45"/>
</g>
<!-- Node40&#45;&gt;Node37 -->
<g id="edge41" class="edge">
<title>Node40&#45;&gt;Node37</title>
<path fill="none" stroke="midnightblue" d="M909.08,-179.33C902.1,-170.7 891.96,-156.8 886.5,-143 871.32,-104.61 866.61,-55.91 865.15,-29.72"/>
<polygon fill="midnightblue" stroke="midnightblue" points="868.65,-29.5 864.7,-19.67 861.66,-29.82 868.65,-29.5"/>
</g>
<!-- Node41 -->
<g id="node33" class="node">
<title>Node41</title>
<g id="a_node33"><a xlink:title=" ">
<polygon fill="none" stroke="#bfbfbf" points="779.5,-118 779.5,-137 839.5,-137 839.5,-118 779.5,-118"/>
<text text-anchor="middle" x="809.5" y="-125" font-family="Helvetica,sans-Serif" font-size="10.00">iostream</text>
</a>
</g>
</g>
<!-- Node40&#45;&gt;Node41 -->
<g id="edge40" class="edge">
<title>Node40&#45;&gt;Node41</title>
<path fill="none" stroke="midnightblue" d="M901.17,-179.48C883.53,-169.67 854.34,-153.43 833.64,-141.92"/>
<polygon fill="midnightblue" stroke="midnightblue" points="835.24,-138.81 824.8,-137.01 831.84,-144.93 835.24,-138.81"/>
</g>
<!-- Node40&#45;&gt;Node42 -->
<g id="edge45" class="edge">
<title>Node40&#45;&gt;Node42</title>
<path fill="none" stroke="midnightblue" d="M867.41,-179.98C802.03,-169.29 686.32,-150.38 614.84,-138.69"/>
<polygon fill="midnightblue" stroke="midnightblue" points="615.06,-135.18 604.63,-137.02 613.93,-142.09 615.06,-135.18"/>
</g>
<!-- Node42&#45;&gt;Node18 -->
<g id="edge46" class="edge">
<title>Node42&#45;&gt;Node18</title>
<path fill="none" stroke="midnightblue" d="M552.5,-117.98C552.5,-109.58 552.5,-96.48 552.5,-85.66"/>
<polygon fill="midnightblue" stroke="midnightblue" points="556,-85.51 552.5,-75.51 549,-85.51 556,-85.51"/>
</g>
<!-- Node44&#45;&gt;Node3 -->
<g id="edge51" class="edge">
<title>Node44&#45;&gt;Node3</title>
<path fill="none" stroke="midnightblue" d="M1171.01,-235.44C1180.58,-227.1 1194.4,-213.57 1202.5,-199 1211.53,-182.75 1216.45,-161.99 1219,-147.21"/>
<polygon fill="midnightblue" stroke="midnightblue" points="1222.47,-147.67 1220.52,-137.25 1215.55,-146.61 1222.47,-147.67"/>
</g>
<!-- Node44&#45;&gt;Node14 -->
<g id="edge53" class="edge">
<title>Node44&#45;&gt;Node14</title>
<path fill="none" stroke="midnightblue" d="M1139.43,-235.44C1117.44,-226.52 1082.77,-212.44 1057.84,-202.32"/>
<polygon fill="midnightblue" stroke="midnightblue" points="1059.06,-199.04 1048.48,-198.52 1056.42,-205.52 1059.06,-199.04"/>
</g>
<!-- Node44&#45;&gt;Node34 -->
<g id="edge55" class="edge">
<title>Node44&#45;&gt;Node34</title>
<path fill="none" stroke="midnightblue" d="M1148.96,-235.49C1139.02,-227.38 1125.38,-214.18 1119.5,-199 1105.43,-162.66 1156.53,-141.01 1130.5,-112 1107.44,-86.29 888.14,-73.89 778.41,-69.25"/>
<polygon fill="midnightblue" stroke="midnightblue" points="778.28,-65.75 768.14,-68.83 777.99,-72.74 778.28,-65.75"/>
</g>
<!-- Node44&#45;&gt;Node40 -->
<g id="edge54" class="edge">
<title>Node44&#45;&gt;Node40</title>
<path fill="none" stroke="midnightblue" d="M1121.84,-235.44C1079.36,-226.04 1011.07,-210.93 965.03,-200.74"/>
<polygon fill="midnightblue" stroke="midnightblue" points="965.5,-197.26 954.98,-198.52 963.99,-204.09 965.5,-197.26"/>
</g>
<!-- Node45 -->
<g id="node37" class="node">
<title>Node45</title>
<g id="a_node37"><a xlink:title=" ">
<polygon fill="none" stroke="#bfbfbf" points="1128,-179.5 1128,-198.5 1193,-198.5 1193,-179.5 1128,-179.5"/>
<text text-anchor="middle" x="1160.5" y="-186.5" font-family="Helvetica,sans-Serif" font-size="10.00">stdexcept</text>
</a>
</g>
</g>
<!-- Node44&#45;&gt;Node45 -->
<g id="edge52" class="edge">
<title>Node44&#45;&gt;Node45</title>
<path fill="none" stroke="midnightblue" d="M1160.5,-235.08C1160.5,-228.01 1160.5,-217.86 1160.5,-208.99"/>
<polygon fill="midnightblue" stroke="midnightblue" points="1164,-208.75 1160.5,-198.75 1157,-208.75 1164,-208.75"/>
</g>
<!-- Node47&#45;&gt;Node11 -->
<g id="edge58" class="edge">
<title>Node47&#45;&gt;Node11</title>
<path fill="none" stroke="midnightblue" d="M606.45,-291.08C610.6,-283.61 616.65,-272.72 621.77,-263.52"/>
<polygon fill="midnightblue" stroke="midnightblue" points="624.84,-265.19 626.64,-254.75 618.72,-261.79 624.84,-265.19"/>
</g>
<!-- Node48&#45;&gt;Node11 -->
<g id="edge60" class="edge">
<title>Node48&#45;&gt;Node11</title>
<path fill="none" stroke="midnightblue" d="M692.77,-291.32C681.66,-283.11 664.76,-270.6 651.52,-260.81"/>
<polygon fill="midnightblue" stroke="midnightblue" points="653.56,-257.97 643.44,-254.83 649.4,-263.59 653.56,-257.97"/>
</g>
<!-- Node49&#45;&gt;Node14 -->
<g id="edge63" class="edge">
<title>Node49&#45;&gt;Node14</title>
<path fill="none" stroke="midnightblue" d="M1019.99,-235.08C1021.18,-227.93 1022.89,-217.64 1024.38,-208.69"/>
<polygon fill="midnightblue" stroke="midnightblue" points="1027.85,-209.19 1026.04,-198.75 1020.95,-208.04 1027.85,-209.19"/>
</g>
<!-- Node49&#45;&gt;Node40 -->
<g id="edge64" class="edge">
<title>Node49&#45;&gt;Node40</title>
<path fill="none" stroke="midnightblue" d="M1002.11,-235.32C985.83,-226.7 960.63,-213.36 941.78,-203.39"/>
<polygon fill="midnightblue" stroke="midnightblue" points="943.32,-200.24 932.85,-198.65 940.05,-206.43 943.32,-200.24"/>
</g>
<!-- Node50&#45;&gt;Node8 -->
<g id="edge66" class="edge">
<title>Node50&#45;&gt;Node8</title>
<path fill="none" stroke="midnightblue" d="M76.95,-694.44C93.27,-676.96 127.5,-635.26 127.5,-593 127.5,-593 127.5,-593 127.5,-479 127.5,-416.38 204.53,-386.52 259.45,-373.19"/>
<polygon fill="midnightblue" stroke="midnightblue" points="260.46,-376.55 269.42,-370.89 258.89,-369.73 260.46,-376.55"/>
</g>
<!-- Node51 -->
<g id="node43" class="node">
<title>Node51</title>
<g id="a_node43"><a xlink:href="dialects_8h.html" target="_top" xlink:title=" ">
<polygon fill="none" stroke="black" points="527,-638.5 527,-657.5 622,-657.5 622,-638.5 527,-638.5"/>
<text text-anchor="middle" x="574.5" y="-645.5" font-family="Helvetica,sans-Serif" font-size="10.00">thorin/dialects.h</text>
</a>
</g>
</g>
<!-- Node50&#45;&gt;Node51 -->
<g id="edge67" class="edge">
<title>Node50&#45;&gt;Node51</title>
<path fill="none" stroke="midnightblue" d="M137,-695.69C237.45,-684.97 422.93,-665.18 516.82,-655.16"/>
<polygon fill="midnightblue" stroke="midnightblue" points="517.42,-658.61 526.99,-654.07 516.67,-651.65 517.42,-658.61"/>
</g>
<!-- Node51&#45;&gt;Node4 -->
<g id="edge70" class="edge">
<title>Node51&#45;&gt;Node4</title>
<path fill="none" stroke="midnightblue" d="M622.09,-645.49C794.1,-639.42 1373.5,-613.31 1373.5,-537 1373.5,-537 1373.5,-537 1373.5,-244 1373.5,-204.94 1345.88,-166.15 1327.81,-144.95"/>
<polygon fill="midnightblue" stroke="midnightblue" points="1330.23,-142.4 1320.98,-137.24 1324.99,-147.04 1330.23,-142.4"/>
</g>
<!-- Node51&#45;&gt;Node13 -->
<g id="edge71" class="edge">
<title>Node51&#45;&gt;Node13</title>
<path fill="none" stroke="midnightblue" d="M526.67,-646.75C404.31,-643.33 89.5,-615.99 89.5,-425 89.5,-425 89.5,-425 89.5,-244 89.5,-202.15 124.94,-163.92 147.73,-143.67"/>
<polygon fill="midnightblue" stroke="midnightblue" points="150.15,-146.21 155.47,-137.04 145.6,-140.89 150.15,-146.21"/>
</g>
<!-- Node51&#45;&gt;Node15 -->
<g id="edge85" class="edge">
<title>Node51&#45;&gt;Node15</title>
<path fill="none" stroke="midnightblue" d="M622.25,-644.66C781.67,-636.24 1285.5,-604.29 1285.5,-537 1285.5,-537 1285.5,-537 1285.5,-361.5 1285.5,-272.39 1267.49,-239.96 1202.5,-179 1182.86,-160.58 1155.82,-148.69 1131.26,-141.11"/>
<polygon fill="midnightblue" stroke="midnightblue" points="1132.21,-137.74 1121.63,-138.31 1130.25,-144.46 1132.21,-137.74"/>
</g>
<!-- Node52 -->
<g id="node44" class="node">
<title>Node52</title>
<g id="a_node44"><a xlink:title=" ">
<polygon fill="none" stroke="#bfbfbf" points="646.5,-582.5 646.5,-601.5 714.5,-601.5 714.5,-582.5 646.5,-582.5"/>
<text text-anchor="middle" x="680.5" y="-589.5" font-family="Helvetica,sans-Serif" font-size="10.00">filesystem</text>
</a>
</g>
</g>
<!-- Node51&#45;&gt;Node52 -->
<g id="edge68" class="edge">
<title>Node51&#45;&gt;Node52</title>
<path fill="none" stroke="midnightblue" d="M591.53,-638.32C608.53,-629.66 634.88,-616.24 654.49,-606.25"/>
<polygon fill="midnightblue" stroke="midnightblue" points="656.19,-609.31 663.51,-601.65 653.01,-603.08 656.19,-609.31"/>
</g>
<!-- Node53 -->
<g id="node45" class="node">
<title>Node53</title>
<g id="a_node45"><a xlink:title=" ">
<polygon fill="none" stroke="#bfbfbf" points="732.5,-582.5 732.5,-601.5 790.5,-601.5 790.5,-582.5 732.5,-582.5"/>
<text text-anchor="middle" x="761.5" y="-589.5" font-family="Helvetica,sans-Serif" font-size="10.00">memory</text>
</a>
</g>
</g>
<!-- Node51&#45;&gt;Node53 -->
<g id="edge69" class="edge">
<title>Node51&#45;&gt;Node53</title>
<path fill="none" stroke="midnightblue" d="M604.13,-638.44C636.09,-629.21 687.13,-614.48 722.37,-604.3"/>
<polygon fill="midnightblue" stroke="midnightblue" points="723.68,-607.56 732.32,-601.43 721.74,-600.84 723.68,-607.56"/>
</g>
<!-- Node54 -->
<g id="node46" class="node">
<title>Node54</title>
<g id="a_node46"><a xlink:href="emitter_8h.html" target="_top" xlink:title=" ">
<polygon fill="none" stroke="black" points="521,-582.5 521,-601.5 628,-601.5 628,-582.5 521,-582.5"/>
<text text-anchor="middle" x="574.5" y="-589.5" font-family="Helvetica,sans-Serif" font-size="10.00">thorin/be/emitter.h</text>
</a>
</g>
</g>
<!-- Node51&#45;&gt;Node54 -->
<g id="edge72" class="edge">
<title>Node51&#45;&gt;Node54</title>
<path fill="none" stroke="midnightblue" d="M574.5,-638.08C574.5,-631.01 574.5,-620.86 574.5,-611.99"/>
<polygon fill="midnightblue" stroke="midnightblue" points="578,-611.75 574.5,-601.75 571,-611.75 578,-611.75"/>
</g>
<!-- Node62 -->
<g id="node49" class="node">
<title>Node62</title>
<g id="a_node49"><a xlink:href="pass_8h.html" target="_top" xlink:title=" ">
<polygon fill="none" stroke="red" points="434,-470.5 434,-489.5 539,-489.5 539,-470.5 434,-470.5"/>
<text text-anchor="middle" x="486.5" y="-477.5" font-family="Helvetica,sans-Serif" font-size="10.00">thorin/pass/pass.h</text>
</a>
</g>
</g>
<!-- Node51&#45;&gt;Node62 -->
<g id="edge80" class="edge">
<title>Node51&#45;&gt;Node62</title>
<path fill="none" stroke="midnightblue" d="M555.83,-638.48C541.45,-630.94 522.28,-618.56 511.5,-602 490.9,-570.35 486.81,-525.01 486.26,-499.78"/>
<polygon fill="midnightblue" stroke="midnightblue" points="489.76,-499.7 486.22,-489.72 482.76,-499.74 489.76,-499.7"/>
</g>
<!-- Node64 -->
<g id="node50" class="node">
<title>Node64</title>
<g id="a_node50"><a xlink:href="pipelinebuilder_8h.html" target="_top" xlink:title=" ">
<polygon fill="none" stroke="red" points="268,-526.5 268,-545.5 423,-545.5 423,-526.5 268,-526.5"/>
<text text-anchor="middle" x="345.5" y="-533.5" font-family="Helvetica,sans-Serif" font-size="10.00">thorin/pass/pipelinebuilder.h</text>
</a>
</g>
</g>
<!-- Node51&#45;&gt;Node64 -->
<g id="edge81" class="edge">
<title>Node51&#45;&gt;Node64</title>
<path fill="none" stroke="midnightblue" d="M554.02,-638.38C533.32,-629.56 500.46,-615.31 472.5,-602 436.61,-584.91 395.8,-563.7 370.35,-550.26"/>
<polygon fill="midnightblue" stroke="midnightblue" points="371.87,-547.1 361.39,-545.51 368.59,-553.28 371.87,-547.1"/>
</g>
<!-- Node54&#45;&gt;Node2 -->
<g id="edge73" class="edge">
<title>Node54&#45;&gt;Node2</title>
<path fill="none" stroke="midnightblue" d="M590.74,-582.4C605.28,-574.23 626.67,-560.99 642.5,-546 676.58,-513.75 707.05,-467.35 722.26,-442.42"/>
<polygon fill="midnightblue" stroke="midnightblue" points="725.34,-444.09 727.49,-433.71 719.34,-440.49 725.34,-444.09"/>
</g>
<!-- Node55 -->
<g id="node47" class="node">
<title>Node55</title>
<g id="a_node47"><a xlink:href="schedule_8h.html" target="_top" xlink:title=" ">
<polygon fill="none" stroke="red" points="691,-526.5 691,-545.5 838,-545.5 838,-526.5 691,-526.5"/>
<text text-anchor="middle" x="764.5" y="-533.5" font-family="Helvetica,sans-Serif" font-size="10.00">thorin/analyses/schedule.h</text>
</a>
</g>
</g>
<!-- Node54&#45;&gt;Node55 -->
<g id="edge74" class="edge">
<title>Node54&#45;&gt;Node55</title>
<path fill="none" stroke="midnightblue" d="M604.61,-582.44C637.13,-573.2 689.08,-558.44 724.89,-548.26"/>
<polygon fill="midnightblue" stroke="midnightblue" points="725.87,-551.62 734.53,-545.52 723.96,-544.88 725.87,-551.62"/>
</g>
<!-- Node60 -->
<g id="node48" class="node">
<title>Node60</title>
<g id="a_node48"><a xlink:href="phase_8h.html" target="_top" xlink:title=" ">
<polygon fill="none" stroke="red" points="515,-526.5 515,-545.5 634,-545.5 634,-526.5 515,-526.5"/>
<text text-anchor="middle" x="574.5" y="-533.5" font-family="Helvetica,sans-Serif" font-size="10.00">thorin/phase/phase.h</text>
</a>
</g>
</g>
<!-- Node54&#45;&gt;Node60 -->
<g id="edge75" class="edge">
<title>Node54&#45;&gt;Node60</title>
<path fill="none" stroke="midnightblue" d="M574.5,-582.08C574.5,-575.01 574.5,-564.86 574.5,-555.99"/>
<polygon fill="midnightblue" stroke="midnightblue" points="578,-555.75 574.5,-545.75 571,-555.75 578,-555.75"/>
</g>
<!-- Node60&#45;&gt;Node11 -->
<g id="edge76" class="edge">
<title>Node60&#45;&gt;Node11</title>
<path fill="none" stroke="midnightblue" d="M614.04,-526.44C710.71,-504.64 954.46,-444.03 1000.5,-378 1080.5,-263.26 794.04,-247.68 678.11,-245.99"/>
<polygon fill="midnightblue" stroke="midnightblue" points="677.81,-242.49 667.77,-245.87 677.72,-249.49 677.81,-242.49"/>
</g>
<!-- Node60&#45;&gt;Node62 -->
<g id="edge77" class="edge">
<title>Node60&#45;&gt;Node62</title>
<path fill="none" stroke="midnightblue" d="M560.36,-526.32C546.63,-517.9 525.56,-504.97 509.44,-495.07"/>
<polygon fill="midnightblue" stroke="midnightblue" points="510.96,-491.9 500.6,-489.65 507.3,-497.87 510.96,-491.9"/>
</g>
<!-- Node62&#45;&gt;Node2 -->
<g id="edge79" class="edge">
<title>Node62&#45;&gt;Node2</title>
<path fill="none" stroke="midnightblue" d="M525.48,-470.44C568.39,-461.02 637.45,-445.87 683.87,-435.68"/>
<polygon fill="midnightblue" stroke="midnightblue" points="684.69,-439.08 693.7,-433.52 683.19,-432.24 684.69,-439.08"/>
</g>
<!-- Node62&#45;&gt;Node30 -->
<g id="edge78" class="edge">
<title>Node62&#45;&gt;Node30</title>
<path fill="none" stroke="midnightblue" d="M433.93,-470.58C352.09,-454.14 203.5,-409.5 203.5,-302 203.5,-302 203.5,-302 203.5,-244 203.5,-204.04 233.65,-165.33 253.2,-144.44"/>
<polygon fill="midnightblue" stroke="midnightblue" points="255.87,-146.71 260.32,-137.1 250.85,-141.84 255.87,-146.71"/>
</g>
<!-- Node64&#45;&gt;Node13 -->
<g id="edge83" class="edge">
<title>Node64&#45;&gt;Node13</title>
<path fill="none" stroke="midnightblue" d="M331.38,-526.32C288.94,-499.04 165.5,-410.37 165.5,-302 165.5,-302 165.5,-302 165.5,-244 165.5,-209.86 165.94,-170.05 166.24,-147.21"/>
<polygon fill="midnightblue" stroke="midnightblue" points="169.74,-147.24 166.37,-137.19 162.74,-147.15 169.74,-147.24"/>
</g>
<!-- Node64&#45;&gt;Node22 -->
<g id="edge82" class="edge">
<title>Node64&#45;&gt;Node22</title>
<path fill="none" stroke="midnightblue" d="M336.23,-526.23C309.47,-499.8 235.54,-418.34 260.5,-347 288.28,-267.59 349.6,-278 378.5,-199 384.61,-182.3 384.43,-161.87 383.13,-147.31"/>
<polygon fill="midnightblue" stroke="midnightblue" points="386.58,-146.6 381.95,-137.07 379.62,-147.41 386.58,-146.6"/>
</g>
<!-- Node64&#45;&gt;Node62 -->
<g id="edge84" class="edge">
<title>Node64&#45;&gt;Node62</title>
<path fill="none" stroke="midnightblue" d="M367.84,-526.44C391.25,-517.48 428.24,-503.31 454.69,-493.18"/>
<polygon fill="midnightblue" stroke="midnightblue" points="456.18,-496.36 464.26,-489.52 453.67,-489.82 456.18,-496.36"/>
</g>
</g>
</svg>
