<?xml version="1.0" encoding="UTF-8" standalone="no"?>
<!DOCTYPE svg PUBLIC "-//W3C//DTD SVG 1.1//EN"
 "http://www.w3.org/Graphics/SVG/1.1/DTD/svg11.dtd">
<!-- Generated by graphviz version 2.50.0 (20220203.2022)
 -->
<!-- Title: thorin/analyses/deptree.h Pages: 1 -->
<svg width="1786pt" height="308pt"
 viewBox="0.00 0.00 1785.50 308.00" xmlns="http://www.w3.org/2000/svg" xmlns:xlink="http://www.w3.org/1999/xlink">
<g id="graph0" class="graph" transform="scale(1 1) rotate(0) translate(4 304)">
<title>thorin/analyses/deptree.h</title>
<!-- Node1 -->
<g id="node1" class="node">
<title>Node1</title>
<g id="a_node1"><a xlink:title=" ">
<polygon fill="#bfbfbf" stroke="black" points="839.5,-280.5 839.5,-299.5 964.5,-299.5 964.5,-280.5 839.5,-280.5"/>
<text text-anchor="middle" x="902" y="-287.5" font-family="Helvetica,sans-Serif" font-size="10.00">thorin/analyses/deptree.h</text>
</a>
</g>
</g>
<!-- Node2 -->
<g id="node2" class="node">
<title>Node2</title>
<g id="a_node2"><a xlink:title=" ">
<polygon fill="none" stroke="#bfbfbf" points="844.5,-224.5 844.5,-243.5 887.5,-243.5 887.5,-224.5 844.5,-224.5"/>
<text text-anchor="middle" x="866" y="-231.5" font-family="Helvetica,sans-Serif" font-size="10.00">deque</text>
</a>
</g>
</g>
<!-- Node1&#45;&gt;Node2 -->
<g id="edge1" class="edge">
<title>Node1&#45;&gt;Node2</title>
<path fill="none" stroke="midnightblue" d="M896.06,-280.08C891.02,-272.53 883.66,-261.49 877.49,-252.23"/>
<polygon fill="midnightblue" stroke="midnightblue" points="880.29,-250.13 871.83,-243.75 874.47,-254.01 880.29,-250.13"/>
</g>
<!-- Node3 -->
<g id="node3" class="node">
<title>Node3</title>
<g id="a_node3"><a xlink:href="def_8h.html" target="_top" xlink:title=" ">
<polygon fill="none" stroke="black" points="905.5,-224.5 905.5,-243.5 970.5,-243.5 970.5,-224.5 905.5,-224.5"/>
<text text-anchor="middle" x="938" y="-231.5" font-family="Helvetica,sans-Serif" font-size="10.00">thorin/def.h</text>
</a>
</g>
</g>
<!-- Node1&#45;&gt;Node3 -->
<g id="edge2" class="edge">
<title>Node1&#45;&gt;Node3</title>
<path fill="none" stroke="midnightblue" d="M907.94,-280.08C912.98,-272.53 920.34,-261.49 926.51,-252.23"/>
<polygon fill="midnightblue" stroke="midnightblue" points="929.53,-254.01 932.17,-243.75 923.71,-250.13 929.53,-254.01"/>
</g>
<!-- Node4 -->
<g id="node4" class="node">
<title>Node4</title>
<g id="a_node4"><a xlink:title=" ">
<polygon fill="none" stroke="#bfbfbf" points="913,-56.5 913,-75.5 963,-75.5 963,-56.5 913,-56.5"/>
<text text-anchor="middle" x="938" y="-63.5" font-family="Helvetica,sans-Serif" font-size="10.00">optional</text>
</a>
</g>
</g>
<!-- Node3&#45;&gt;Node4 -->
<g id="edge3" class="edge">
<title>Node3&#45;&gt;Node4</title>
<path fill="none" stroke="midnightblue" d="M938,-224.08C938,-197.95 938,-121.21 938,-85.58"/>
<polygon fill="midnightblue" stroke="midnightblue" points="941.5,-85.57 938,-75.57 934.5,-85.57 941.5,-85.57"/>
</g>
<!-- Node5 -->
<g id="node5" class="node">
<title>Node5</title>
<g id="a_node5"><a xlink:title=" ">
<polygon fill="none" stroke="#bfbfbf" points="0,-56.5 0,-75.5 44,-75.5 44,-56.5 0,-56.5"/>
<text text-anchor="middle" x="22" y="-63.5" font-family="Helvetica,sans-Serif" font-size="10.00">vector</text>
</a>
</g>
</g>
<!-- Node3&#45;&gt;Node5 -->
<g id="edge4" class="edge">
<title>Node3&#45;&gt;Node5</title>
<path fill="none" stroke="midnightblue" d="M905.5,-225.72C902.3,-225.1 899.09,-224.51 896,-224 760.02,-201.54 724.44,-207.43 588,-188 439.42,-166.84 401.51,-164.54 255,-132 182.35,-115.87 98.64,-90.93 53.99,-77.1"/>
<polygon fill="midnightblue" stroke="midnightblue" points="54.88,-73.71 44.29,-74.08 52.8,-80.39 54.88,-73.71"/>
</g>
<!-- Node6 -->
<g id="node6" class="node">
<title>Node6</title>
<g id="a_node6"><a xlink:href="debug_8h.html" target="_top" xlink:title=" ">
<polygon fill="none" stroke="black" points="1508.5,-168.5 1508.5,-187.5 1585.5,-187.5 1585.5,-168.5 1508.5,-168.5"/>
<text text-anchor="middle" x="1547" y="-175.5" font-family="Helvetica,sans-Serif" font-size="10.00">thorin/debug.h</text>
</a>
</g>
</g>
<!-- Node3&#45;&gt;Node6 -->
<g id="edge5" class="edge">
<title>Node3&#45;&gt;Node6</title>
<path fill="none" stroke="midnightblue" d="M970.74,-230.1C1071.69,-221.15 1378.51,-193.94 1498.33,-183.32"/>
<polygon fill="midnightblue" stroke="midnightblue" points="1498.67,-186.8 1508.32,-182.43 1498.05,-179.83 1498.67,-186.8"/>
</g>
<!-- Node9 -->
<g id="node9" class="node">
<title>Node9</title>
<g id="a_node9"><a xlink:href="hash_8h.html" target="_top" xlink:title=" ">
<polygon fill="none" stroke="black" points="1138,-112.5 1138,-131.5 1226,-131.5 1226,-112.5 1138,-112.5"/>
<text text-anchor="middle" x="1182" y="-119.5" font-family="Helvetica,sans-Serif" font-size="10.00">thorin/util/hash.h</text>
</a>
</g>
</g>
<!-- Node3&#45;&gt;Node9 -->
<g id="edge56" class="edge">
<title>Node3&#45;&gt;Node9</title>
<path fill="none" stroke="midnightblue" d="M957.15,-224.37C999.91,-205.09 1103.36,-158.45 1153.63,-135.79"/>
<polygon fill="midnightblue" stroke="midnightblue" points="1155.26,-138.89 1162.94,-131.59 1152.39,-132.51 1155.26,-138.89"/>
</g>
<!-- Node22 -->
<g id="node22" class="node">
<title>Node22</title>
<g id="a_node22"><a xlink:href="stream_8h.html" target="_top" xlink:title=" ">
<polygon fill="none" stroke="black" points="1597.5,-56.5 1597.5,-75.5 1694.5,-75.5 1694.5,-56.5 1597.5,-56.5"/>
<text text-anchor="middle" x="1646" y="-63.5" font-family="Helvetica,sans-Serif" font-size="10.00">thorin/util/stream.h</text>
</a>
</g>
</g>
<!-- Node3&#45;&gt;Node22 -->
<g id="edge60" class="edge">
<title>Node3&#45;&gt;Node22</title>
<path fill="none" stroke="midnightblue" d="M970.66,-232.67C1096.16,-231.13 1542.98,-223.2 1595,-188 1629.35,-164.75 1640.63,-113.44 1644.29,-85.69"/>
<polygon fill="midnightblue" stroke="midnightblue" points="1647.77,-86.02 1645.41,-75.7 1640.82,-85.24 1647.77,-86.02"/>
</g>
<!-- Node31 -->
<g id="node31" class="node">
<title>Node31</title>
<g id="a_node31"><a xlink:href="tables_8h.html" target="_top" xlink:title=" ">
<polygon fill="none" stroke="black" points="773.5,-112.5 773.5,-131.5 850.5,-131.5 850.5,-112.5 773.5,-112.5"/>
<text text-anchor="middle" x="812" y="-119.5" font-family="Helvetica,sans-Serif" font-size="10.00">thorin/tables.h</text>
</a>
</g>
</g>
<!-- Node3&#45;&gt;Node31 -->
<g id="edge39" class="edge">
<title>Node3&#45;&gt;Node31</title>
<path fill="none" stroke="midnightblue" d="M928.11,-224.37C906.86,-205.81 856.57,-161.91 829.68,-138.44"/>
<polygon fill="midnightblue" stroke="midnightblue" points="831.68,-135.53 821.84,-131.59 827.07,-140.8 831.68,-135.53"/>
</g>
<!-- Node33 -->
<g id="node33" class="node">
<title>Node33</title>
<g id="a_node33"><a xlink:href="array_8h.html" target="_top" xlink:title=" ">
<polygon fill="none" stroke="black" points="264,-112.5 264,-131.5 352,-131.5 352,-112.5 264,-112.5"/>
<text text-anchor="middle" x="308" y="-119.5" font-family="Helvetica,sans-Serif" font-size="10.00">thorin/util/array.h</text>
</a>
</g>
</g>
<!-- Node3&#45;&gt;Node33 -->
<g id="edge43" class="edge">
<title>Node3&#45;&gt;Node33</title>
<path fill="none" stroke="midnightblue" d="M905.47,-225.89C902.27,-225.23 899.08,-224.59 896,-224 699.89,-186.16 465.6,-148.02 361.92,-131.5"/>
<polygon fill="midnightblue" stroke="midnightblue" points="362.43,-128.04 352,-129.93 361.33,-134.95 362.43,-128.04"/>
</g>
<!-- Node38 -->
<g id="node38" class="node">
<title>Node38</title>
<g id="a_node38"><a xlink:href="cast_8h.html" target="_top" xlink:title=" ">
<polygon fill="none" stroke="black" points="663,-56.5 663,-75.5 749,-75.5 749,-56.5 663,-56.5"/>
<text text-anchor="middle" x="706" y="-63.5" font-family="Helvetica,sans-Serif" font-size="10.00">thorin/util/cast.h</text>
</a>
</g>
</g>
<!-- Node3&#45;&gt;Node38 -->
<g id="edge53" class="edge">
<title>Node3&#45;&gt;Node38</title>
<path fill="none" stroke="midnightblue" d="M918.99,-224.45C885.6,-208.92 815.12,-173.77 764,-132 746.52,-117.71 729.7,-97.98 718.72,-84.02"/>
<polygon fill="midnightblue" stroke="midnightblue" points="721.26,-81.59 712.39,-75.79 715.71,-85.85 721.26,-81.59"/>
</g>
<!-- Node39 -->
<g id="node39" class="node">
<title>Node39</title>
<g id="a_node39"><a xlink:href="ptr_8h.html" target="_top" xlink:title=" ">
<polygon fill="none" stroke="black" points="1501,-56.5 1501,-75.5 1579,-75.5 1579,-56.5 1501,-56.5"/>
<text text-anchor="middle" x="1540" y="-63.5" font-family="Helvetica,sans-Serif" font-size="10.00">thorin/util/ptr.h</text>
</a>
</g>
</g>
<!-- Node3&#45;&gt;Node39 -->
<g id="edge57" class="edge">
<title>Node3&#45;&gt;Node39</title>
<path fill="none" stroke="midnightblue" d="M969.1,-224.42C1069.71,-196.68 1386.4,-109.36 1499.42,-78.19"/>
<polygon fill="midnightblue" stroke="midnightblue" points="1500.38,-81.56 1509.09,-75.52 1498.52,-74.81 1500.38,-81.56"/>
</g>
<!-- Node7 -->
<g id="node7" class="node">
<title>Node7</title>
<g id="a_node7"><a xlink:title=" ">
<polygon fill="none" stroke="#bfbfbf" points="1736.5,-0.5 1736.5,-19.5 1777.5,-19.5 1777.5,-0.5 1736.5,-0.5"/>
<text text-anchor="middle" x="1757" y="-7.5" font-family="Helvetica,sans-Serif" font-size="10.00">string</text>
</a>
</g>
</g>
<!-- Node6&#45;&gt;Node7 -->
<g id="edge6" class="edge">
<title>Node6&#45;&gt;Node7</title>
<path fill="none" stroke="midnightblue" d="M1564.36,-168.38C1594.81,-152.74 1658.89,-117.44 1704,-76 1719.86,-61.43 1735.08,-42.01 1745.11,-28.2"/>
<polygon fill="midnightblue" stroke="midnightblue" points="1748.23,-29.84 1751.17,-19.66 1742.53,-25.79 1748.23,-29.84"/>
</g>
<!-- Node8 -->
<g id="node8" class="node">
<title>Node8</title>
<g id="a_node8"><a xlink:title=" ">
<polygon fill="none" stroke="#bfbfbf" points="1575,-112.5 1575,-131.5 1613,-131.5 1613,-112.5 1575,-112.5"/>
<text text-anchor="middle" x="1594" y="-119.5" font-family="Helvetica,sans-Serif" font-size="10.00">tuple</text>
</a>
</g>
</g>
<!-- Node6&#45;&gt;Node8 -->
<g id="edge7" class="edge">
<title>Node6&#45;&gt;Node8</title>
<path fill="none" stroke="midnightblue" d="M1554.76,-168.08C1561.54,-160.3 1571.54,-148.8 1579.76,-139.37"/>
<polygon fill="midnightblue" stroke="midnightblue" points="1582.46,-141.59 1586.38,-131.75 1577.18,-137 1582.46,-141.59"/>
</g>
<!-- Node6&#45;&gt;Node9 -->
<g id="edge8" class="edge">
<title>Node6&#45;&gt;Node9</title>
<path fill="none" stroke="midnightblue" d="M1508.28,-171.27C1443.01,-161.62 1310.91,-142.07 1236.37,-131.04"/>
<polygon fill="midnightblue" stroke="midnightblue" points="1236.65,-127.55 1226.25,-129.55 1235.63,-134.47 1236.65,-127.55"/>
</g>
<!-- Node6&#45;&gt;Node22 -->
<g id="edge38" class="edge">
<title>Node6&#45;&gt;Node22</title>
<path fill="none" stroke="midnightblue" d="M1547.47,-168.49C1548.61,-155.11 1552.54,-128.94 1566,-112 1577.49,-97.53 1594.98,-86.94 1610.68,-79.68"/>
<polygon fill="midnightblue" stroke="midnightblue" points="1612.37,-82.77 1620.16,-75.59 1609.59,-76.34 1612.37,-82.77"/>
</g>
<!-- Node9&#45;&gt;Node4 -->
<g id="edge18" class="edge">
<title>Node9&#45;&gt;Node4</title>
<path fill="none" stroke="midnightblue" d="M1142.67,-112.5C1101.38,-103.54 1034.59,-88.96 977,-76 975.74,-75.72 974.46,-75.43 973.17,-75.13"/>
<polygon fill="midnightblue" stroke="midnightblue" points="973.69,-71.66 963.17,-72.85 972.14,-78.49 973.69,-71.66"/>
</g>
<!-- Node10 -->
<g id="node10" class="node">
<title>Node10</title>
<g id="a_node10"><a xlink:title=" ">
<polygon fill="none" stroke="#bfbfbf" points="439,-56.5 439,-75.5 495,-75.5 495,-56.5 439,-56.5"/>
<text text-anchor="middle" x="467" y="-63.5" font-family="Helvetica,sans-Serif" font-size="10.00">algorithm</text>
</a>
</g>
</g>
<!-- Node9&#45;&gt;Node10 -->
<g id="edge9" class="edge">
<title>Node9&#45;&gt;Node10</title>
<path fill="none" stroke="midnightblue" d="M1137.69,-120.69C1030.53,-119.39 748.83,-112.6 505.29,-75.93"/>
<polygon fill="midnightblue" stroke="midnightblue" points="505.6,-72.43 495.18,-74.39 504.54,-79.35 505.6,-72.43"/>
</g>
<!-- Node11 -->
<g id="node11" class="node">
<title>Node11</title>
<g id="a_node11"><a xlink:title=" ">
<polygon fill="none" stroke="#bfbfbf" points="1286,-56.5 1286,-75.5 1324,-75.5 1324,-56.5 1286,-56.5"/>
<text text-anchor="middle" x="1305" y="-63.5" font-family="Helvetica,sans-Serif" font-size="10.00">array</text>
</a>
</g>
</g>
<!-- Node9&#45;&gt;Node11 -->
<g id="edge10" class="edge">
<title>Node9&#45;&gt;Node11</title>
<path fill="none" stroke="midnightblue" d="M1201.49,-112.44C1221.64,-103.6 1253.32,-89.69 1276.33,-79.59"/>
<polygon fill="midnightblue" stroke="midnightblue" points="1277.85,-82.74 1285.6,-75.52 1275.04,-76.33 1277.85,-82.74"/>
</g>
<!-- Node12 -->
<g id="node12" class="node">
<title>Node12</title>
<g id="a_node12"><a xlink:title=" ">
<polygon fill="none" stroke="#bfbfbf" points="1342.5,-56.5 1342.5,-75.5 1371.5,-75.5 1371.5,-56.5 1342.5,-56.5"/>
<text text-anchor="middle" x="1357" y="-63.5" font-family="Helvetica,sans-Serif" font-size="10.00">bit</text>
</a>
</g>
</g>
<!-- Node9&#45;&gt;Node12 -->
<g id="edge11" class="edge">
<title>Node9&#45;&gt;Node12</title>
<path fill="none" stroke="midnightblue" d="M1212.85,-112.48C1241.53,-104.41 1285.62,-91.64 1332.59,-75.96"/>
<polygon fill="midnightblue" stroke="midnightblue" points="1333.97,-79.19 1342.33,-72.68 1331.74,-72.56 1333.97,-79.19"/>
</g>
<!-- Node13 -->
<g id="node13" class="node">
<title>Node13</title>
<g id="a_node13"><a xlink:title=" ">
<polygon fill="none" stroke="#bfbfbf" points="598.5,-0.5 598.5,-19.5 647.5,-19.5 647.5,-0.5 598.5,-0.5"/>
<text text-anchor="middle" x="623" y="-7.5" font-family="Helvetica,sans-Serif" font-size="10.00">cassert</text>
</a>
</g>
</g>
<!-- Node9&#45;&gt;Node13 -->
<g id="edge12" class="edge">
<title>Node9&#45;&gt;Node13</title>
<path fill="none" stroke="midnightblue" d="M1137.85,-119.73C1018.09,-115.95 693.38,-103.26 654,-76 638.61,-65.35 630.62,-44.94 626.64,-29.81"/>
<polygon fill="midnightblue" stroke="midnightblue" points="630.03,-28.93 624.4,-19.95 623.2,-30.48 630.03,-28.93"/>
</g>
<!-- Node14 -->
<g id="node14" class="node">
<title>Node14</title>
<g id="a_node14"><a xlink:title=" ">
<polygon fill="none" stroke="#bfbfbf" points="1389,-56.5 1389,-75.5 1445,-75.5 1445,-56.5 1389,-56.5"/>
<text text-anchor="middle" x="1417" y="-63.5" font-family="Helvetica,sans-Serif" font-size="10.00">cinttypes</text>
</a>
</g>
</g>
<!-- Node9&#45;&gt;Node14 -->
<g id="edge13" class="edge">
<title>Node9&#45;&gt;Node14</title>
<path fill="none" stroke="midnightblue" d="M1220.95,-112.46C1259,-104.07 1318.8,-90.71 1378.71,-76.51"/>
<polygon fill="midnightblue" stroke="midnightblue" points="1379.8,-79.85 1388.72,-74.14 1378.18,-73.04 1379.8,-79.85"/>
</g>
<!-- Node15 -->
<g id="node15" class="node">
<title>Node15</title>
<g id="a_node15"><a xlink:title=" ">
<polygon fill="none" stroke="#bfbfbf" points="1197,-0.5 1197,-19.5 1243,-19.5 1243,-0.5 1197,-0.5"/>
<text text-anchor="middle" x="1220" y="-7.5" font-family="Helvetica,sans-Serif" font-size="10.00">cstdint</text>
</a>
</g>
</g>
<!-- Node9&#45;&gt;Node15 -->
<g id="edge14" class="edge">
<title>Node9&#45;&gt;Node15</title>
<path fill="none" stroke="midnightblue" d="M1184.98,-112.37C1191.14,-94.54 1205.39,-53.3 1213.69,-29.27"/>
<polygon fill="midnightblue" stroke="midnightblue" points="1217.07,-30.19 1217.03,-19.59 1210.46,-27.9 1217.07,-30.19"/>
</g>
<!-- Node16 -->
<g id="node16" class="node">
<title>Node16</title>
<g id="a_node16"><a xlink:title=" ">
<polygon fill="none" stroke="#bfbfbf" points="666,-0.5 666,-19.5 712,-19.5 712,-0.5 666,-0.5"/>
<text text-anchor="middle" x="689" y="-7.5" font-family="Helvetica,sans-Serif" font-size="10.00">cstring</text>
</a>
</g>
</g>
<!-- Node9&#45;&gt;Node16 -->
<g id="edge15" class="edge">
<title>Node9&#45;&gt;Node16</title>
<path fill="none" stroke="midnightblue" d="M1139.39,-112.48C1104.3,-104.83 1053.57,-92.3 1011,-76 992.81,-69.04 990.56,-61.91 972,-56 867.65,-22.79 833.21,-42.13 722.23,-19.99"/>
<polygon fill="midnightblue" stroke="midnightblue" points="722.83,-16.54 712.33,-17.94 721.42,-23.39 722.83,-16.54"/>
</g>
<!-- Node17 -->
<g id="node17" class="node">
<title>Node17</title>
<g id="a_node17"><a xlink:title=" ">
<polygon fill="none" stroke="#bfbfbf" points="1335,-0.5 1335,-19.5 1389,-19.5 1389,-0.5 1335,-0.5"/>
<text text-anchor="middle" x="1362" y="-7.5" font-family="Helvetica,sans-Serif" font-size="10.00">iostream</text>
</a>
</g>
</g>
<!-- Node9&#45;&gt;Node17 -->
<g id="edge16" class="edge">
<title>Node9&#45;&gt;Node17</title>
<path fill="none" stroke="midnightblue" d="M1193.71,-112.35C1211.37,-99.45 1246.04,-74.7 1277,-56 1296,-44.52 1318.18,-32.83 1335.12,-24.25"/>
<polygon fill="midnightblue" stroke="midnightblue" points="1337.06,-27.19 1344.42,-19.57 1333.92,-20.93 1337.06,-27.19"/>
</g>
<!-- Node18 -->
<g id="node18" class="node">
<title>Node18</title>
<g id="a_node18"><a xlink:title=" ">
<polygon fill="none" stroke="#bfbfbf" points="1464.5,-0.5 1464.5,-19.5 1515.5,-19.5 1515.5,-0.5 1464.5,-0.5"/>
<text text-anchor="middle" x="1490" y="-7.5" font-family="Helvetica,sans-Serif" font-size="10.00">memory</text>
</a>
</g>
</g>
<!-- Node9&#45;&gt;Node18 -->
<g id="edge17" class="edge">
<title>Node9&#45;&gt;Node18</title>
<path fill="none" stroke="midnightblue" d="M1226.18,-118.33C1293.58,-113.49 1418.07,-101.35 1454,-76 1469.78,-64.87 1479.41,-44.53 1484.69,-29.56"/>
<polygon fill="midnightblue" stroke="midnightblue" points="1488.1,-30.41 1487.79,-19.82 1481.43,-28.29 1488.1,-30.41"/>
</g>
<!-- Node19 -->
<g id="node19" class="node">
<title>Node19</title>
<g id="a_node19"><a xlink:title=" ">
<polygon fill="none" stroke="#bfbfbf" points="988,-0.5 988,-19.5 1050,-19.5 1050,-0.5 988,-0.5"/>
<text text-anchor="middle" x="1019" y="-7.5" font-family="Helvetica,sans-Serif" font-size="10.00">type_traits</text>
</a>
</g>
</g>
<!-- Node9&#45;&gt;Node19 -->
<g id="edge19" class="edge">
<title>Node9&#45;&gt;Node19</title>
<path fill="none" stroke="midnightblue" d="M1181.93,-112.13C1181.34,-98.26 1178.15,-71.44 1163,-56 1135.93,-28.42 1092.23,-17.69 1060.07,-13.54"/>
<polygon fill="midnightblue" stroke="midnightblue" points="1060.39,-10.05 1050.06,-12.41 1059.61,-17.01 1060.39,-10.05"/>
</g>
<!-- Node20 -->
<g id="node20" class="node">
<title>Node20</title>
<g id="a_node20"><a xlink:title=" ">
<polygon fill="none" stroke="#bfbfbf" points="1019.5,-56.5 1019.5,-75.5 1058.5,-75.5 1058.5,-56.5 1019.5,-56.5"/>
<text text-anchor="middle" x="1039" y="-63.5" font-family="Helvetica,sans-Serif" font-size="10.00">utility</text>
</a>
</g>
</g>
<!-- Node9&#45;&gt;Node20 -->
<g id="edge20" class="edge">
<title>Node9&#45;&gt;Node20</title>
<path fill="none" stroke="midnightblue" d="M1159.34,-112.44C1134.76,-103.16 1095.43,-88.31 1068.46,-78.13"/>
<polygon fill="midnightblue" stroke="midnightblue" points="1069.38,-74.73 1058.79,-74.47 1066.91,-81.28 1069.38,-74.73"/>
</g>
<!-- Node21 -->
<g id="node21" class="node">
<title>Node21</title>
<g id="a_node21"><a xlink:title=" ">
<polygon fill="none" stroke="#bfbfbf" points="1076.5,-56.5 1076.5,-75.5 1153.5,-75.5 1153.5,-56.5 1076.5,-56.5"/>
<text text-anchor="middle" x="1115" y="-63.5" font-family="Helvetica,sans-Serif" font-size="10.00">thorin/config.h</text>
</a>
</g>
</g>
<!-- Node9&#45;&gt;Node21 -->
<g id="edge21" class="edge">
<title>Node9&#45;&gt;Node21</title>
<path fill="none" stroke="midnightblue" d="M1171.24,-112.32C1161.23,-104.26 1146.11,-92.08 1134.07,-82.37"/>
<polygon fill="midnightblue" stroke="midnightblue" points="1135.94,-79.38 1125.96,-75.83 1131.55,-84.83 1135.94,-79.38"/>
</g>
<!-- Node9&#45;&gt;Node22 -->
<g id="edge22" class="edge">
<title>Node9&#45;&gt;Node22</title>
<path fill="none" stroke="midnightblue" d="M1226.23,-116.73C1299.09,-109.57 1449.16,-94.23 1586.97,-76.08"/>
<polygon fill="midnightblue" stroke="midnightblue" points="1587.83,-79.5 1597.29,-74.72 1586.91,-72.56 1587.83,-79.5"/>
</g>
<!-- Node26 -->
<g id="node26" class="node">
<title>Node26</title>
<g id="a_node26"><a xlink:href="types_8h.html" target="_top" xlink:title=" ">
<polygon fill="none" stroke="black" points="767,-56.5 767,-75.5 857,-75.5 857,-56.5 767,-56.5"/>
<text text-anchor="middle" x="812" y="-63.5" font-family="Helvetica,sans-Serif" font-size="10.00">thorin/util/types.h</text>
</a>
</g>
</g>
<!-- Node9&#45;&gt;Node26 -->
<g id="edge31" class="edge">
<title>Node9&#45;&gt;Node26</title>
<path fill="none" stroke="midnightblue" d="M1137.74,-114.54C1070.04,-104.66 940.92,-85.81 867.2,-75.06"/>
<polygon fill="midnightblue" stroke="midnightblue" points="867.58,-71.57 857.18,-73.59 866.57,-78.5 867.58,-71.57"/>
</g>
<!-- Node22&#45;&gt;Node7 -->
<g id="edge30" class="edge">
<title>Node22&#45;&gt;Node7</title>
<path fill="none" stroke="midnightblue" d="M1663.83,-56.32C1681.72,-47.62 1709.48,-34.12 1730.05,-24.11"/>
<polygon fill="midnightblue" stroke="midnightblue" points="1731.75,-27.18 1739.21,-19.65 1728.69,-20.88 1731.75,-27.18"/>
</g>
<!-- Node22&#45;&gt;Node13 -->
<g id="edge23" class="edge">
<title>Node22&#45;&gt;Node13</title>
<path fill="none" stroke="midnightblue" d="M1597.32,-57.03C1594.17,-56.64 1591.04,-56.29 1588,-56 1179.15,-16.51 1068.3,-80.31 657.81,-19.73"/>
<polygon fill="midnightblue" stroke="midnightblue" points="658.16,-16.24 647.75,-18.23 657.12,-23.16 658.16,-16.24"/>
</g>
<!-- Node22&#45;&gt;Node16 -->
<g id="edge24" class="edge">
<title>Node22&#45;&gt;Node16</title>
<path fill="none" stroke="midnightblue" d="M1597.32,-57.04C1594.17,-56.65 1591.04,-56.3 1588,-56 1207.45,-18.69 1103.64,-79.56 722.2,-19.8"/>
<polygon fill="midnightblue" stroke="midnightblue" points="722.7,-16.33 712.28,-18.22 721.61,-23.24 722.7,-16.33"/>
</g>
<!-- Node22&#45;&gt;Node17 -->
<g id="edge26" class="edge">
<title>Node22&#45;&gt;Node17</title>
<path fill="none" stroke="midnightblue" d="M1601,-56.44C1545.25,-45.84 1451.29,-27.98 1399.34,-18.1"/>
<polygon fill="midnightblue" stroke="midnightblue" points="1399.71,-14.61 1389.23,-16.18 1398.4,-21.48 1399.71,-14.61"/>
</g>
<!-- Node22&#45;&gt;Node18 -->
<g id="edge27" class="edge">
<title>Node22&#45;&gt;Node18</title>
<path fill="none" stroke="midnightblue" d="M1621.28,-56.44C1595.15,-47.4 1553.74,-33.06 1524.42,-22.92"/>
<polygon fill="midnightblue" stroke="midnightblue" points="1525.2,-19.48 1514.6,-19.52 1522.91,-26.1 1525.2,-19.48"/>
</g>
<!-- Node23 -->
<g id="node23" class="node">
<title>Node23</title>
<g id="a_node23"><a xlink:title=" ">
<polygon fill="none" stroke="#bfbfbf" points="1604,-0.5 1604,-19.5 1654,-19.5 1654,-0.5 1604,-0.5"/>
<text text-anchor="middle" x="1629" y="-7.5" font-family="Helvetica,sans-Serif" font-size="10.00">fstream</text>
</a>
</g>
</g>
<!-- Node22&#45;&gt;Node23 -->
<g id="edge25" class="edge">
<title>Node22&#45;&gt;Node23</title>
<path fill="none" stroke="midnightblue" d="M1643.19,-56.08C1640.92,-48.85 1637.63,-38.41 1634.79,-29.4"/>
<polygon fill="midnightblue" stroke="midnightblue" points="1638.1,-28.24 1631.75,-19.75 1631.42,-30.34 1638.1,-28.24"/>
</g>
<!-- Node24 -->
<g id="node24" class="node">
<title>Node24</title>
<g id="a_node24"><a xlink:title=" ">
<polygon fill="none" stroke="#bfbfbf" points="1672,-0.5 1672,-19.5 1718,-19.5 1718,-0.5 1672,-0.5"/>
<text text-anchor="middle" x="1695" y="-7.5" font-family="Helvetica,sans-Serif" font-size="10.00">ranges</text>
</a>
</g>
</g>
<!-- Node22&#45;&gt;Node24 -->
<g id="edge28" class="edge">
<title>Node22&#45;&gt;Node24</title>
<path fill="none" stroke="midnightblue" d="M1654.09,-56.08C1661.16,-48.3 1671.59,-36.8 1680.15,-27.37"/>
<polygon fill="midnightblue" stroke="midnightblue" points="1682.93,-29.51 1687.06,-19.75 1677.75,-24.8 1682.93,-29.51"/>
</g>
<!-- Node25 -->
<g id="node25" class="node">
<title>Node25</title>
<g id="a_node25"><a xlink:title=" ">
<polygon fill="none" stroke="#bfbfbf" points="1534,-0.5 1534,-19.5 1586,-19.5 1586,-0.5 1534,-0.5"/>
<text text-anchor="middle" x="1560" y="-7.5" font-family="Helvetica,sans-Serif" font-size="10.00">sstream</text>
</a>
</g>
</g>
<!-- Node22&#45;&gt;Node25 -->
<g id="edge29" class="edge">
<title>Node22&#45;&gt;Node25</title>
<path fill="none" stroke="midnightblue" d="M1632.18,-56.32C1618.77,-47.9 1598.18,-34.97 1582.41,-25.07"/>
<polygon fill="midnightblue" stroke="midnightblue" points="1584.11,-22.01 1573.78,-19.65 1580.39,-27.94 1584.11,-22.01"/>
</g>
<!-- Node26&#45;&gt;Node15 -->
<g id="edge33" class="edge">
<title>Node26&#45;&gt;Node15</title>
<path fill="none" stroke="midnightblue" d="M857.22,-59.01C939.88,-48.07 1113.56,-25.09 1186.56,-15.43"/>
<polygon fill="midnightblue" stroke="midnightblue" points="1187.12,-18.88 1196.58,-14.1 1186.2,-11.94 1187.12,-18.88"/>
</g>
<!-- Node26&#45;&gt;Node19 -->
<g id="edge36" class="edge">
<title>Node26&#45;&gt;Node19</title>
<path fill="none" stroke="midnightblue" d="M844.8,-56.44C880.8,-47.05 938.66,-31.96 977.72,-21.77"/>
<polygon fill="midnightblue" stroke="midnightblue" points="978.92,-25.07 987.71,-19.16 977.15,-18.3 978.92,-25.07"/>
</g>
<!-- Node27 -->
<g id="node27" class="node">
<title>Node27</title>
<g id="a_node27"><a xlink:title=" ">
<polygon fill="none" stroke="#bfbfbf" points="868,-0.5 868,-19.5 912,-19.5 912,-0.5 868,-0.5"/>
<text text-anchor="middle" x="890" y="-7.5" font-family="Helvetica,sans-Serif" font-size="10.00">cmath</text>
</a>
</g>
</g>
<!-- Node26&#45;&gt;Node27 -->
<g id="edge32" class="edge">
<title>Node26&#45;&gt;Node27</title>
<path fill="none" stroke="midnightblue" d="M824.53,-56.32C836.59,-47.98 855.03,-35.21 869.27,-25.35"/>
<polygon fill="midnightblue" stroke="midnightblue" points="871.27,-28.22 877.5,-19.65 867.28,-22.47 871.27,-28.22"/>
</g>
<!-- Node28 -->
<g id="node28" class="node">
<title>Node28</title>
<g id="a_node28"><a xlink:title=" ">
<polygon fill="none" stroke="#bfbfbf" points="930,-0.5 930,-19.5 970,-19.5 970,-0.5 930,-0.5"/>
<text text-anchor="middle" x="950" y="-7.5" font-family="Helvetica,sans-Serif" font-size="10.00">limits</text>
</a>
</g>
</g>
<!-- Node26&#45;&gt;Node28 -->
<g id="edge34" class="edge">
<title>Node26&#45;&gt;Node28</title>
<path fill="none" stroke="midnightblue" d="M833.87,-56.44C857.18,-47.32 894.26,-32.81 920.23,-22.65"/>
<polygon fill="midnightblue" stroke="midnightblue" points="921.55,-25.89 929.59,-18.99 919,-19.37 921.55,-25.89"/>
</g>
<!-- Node29 -->
<g id="node29" class="node">
<title>Node29</title>
<g id="a_node29"><a xlink:title=" ">
<polygon fill="none" stroke="#bfbfbf" points="730,-0.5 730,-19.5 782,-19.5 782,-0.5 730,-0.5"/>
<text text-anchor="middle" x="756" y="-7.5" font-family="Helvetica,sans-Serif" font-size="10.00">ostream</text>
</a>
</g>
</g>
<!-- Node26&#45;&gt;Node29 -->
<g id="edge35" class="edge">
<title>Node26&#45;&gt;Node29</title>
<path fill="none" stroke="midnightblue" d="M803,-56.32C794.81,-48.42 782.49,-36.55 772.53,-26.94"/>
<polygon fill="midnightblue" stroke="midnightblue" points="774.79,-24.26 765.16,-19.83 769.93,-29.29 774.79,-24.26"/>
</g>
<!-- Node30 -->
<g id="node30" class="node">
<title>Node30</title>
<g id="a_node30"><a xlink:title=" ">
<polygon fill="none" stroke="#bfbfbf" points="800,-0.5 800,-19.5 850,-19.5 850,-0.5 800,-0.5"/>
<text text-anchor="middle" x="825" y="-7.5" font-family="Helvetica,sans-Serif" font-size="10.00">half.hpp</text>
</a>
</g>
</g>
<!-- Node26&#45;&gt;Node30 -->
<g id="edge37" class="edge">
<title>Node26&#45;&gt;Node30</title>
<path fill="none" stroke="midnightblue" d="M814.15,-56.08C815.87,-48.93 818.35,-38.64 820.5,-29.69"/>
<polygon fill="midnightblue" stroke="midnightblue" points="823.96,-30.29 822.89,-19.75 817.15,-28.65 823.96,-30.29"/>
</g>
<!-- Node31&#45;&gt;Node26 -->
<g id="edge42" class="edge">
<title>Node31&#45;&gt;Node26</title>
<path fill="none" stroke="midnightblue" d="M812,-112.08C812,-105.01 812,-94.86 812,-85.99"/>
<polygon fill="midnightblue" stroke="midnightblue" points="815.5,-85.75 812,-75.75 808.5,-85.75 815.5,-85.75"/>
</g>
<!-- Node32 -->
<g id="node32" class="node">
<title>Node32</title>
<g id="a_node32"><a xlink:href="assert_8h.html" target="_top" xlink:title=" ">
<polygon fill="none" stroke="black" points="513,-56.5 513,-75.5 607,-75.5 607,-56.5 513,-56.5"/>
<text text-anchor="middle" x="560" y="-63.5" font-family="Helvetica,sans-Serif" font-size="10.00">thorin/util/assert.h</text>
</a>
</g>
</g>
<!-- Node31&#45;&gt;Node32 -->
<g id="edge40" class="edge">
<title>Node31&#45;&gt;Node32</title>
<path fill="none" stroke="midnightblue" d="M773.45,-112.74C729.56,-103.33 657.73,-87.94 609.67,-77.64"/>
<polygon fill="midnightblue" stroke="midnightblue" points="610.3,-74.2 599.79,-75.53 608.84,-81.04 610.3,-74.2"/>
</g>
<!-- Node32&#45;&gt;Node13 -->
<g id="edge41" class="edge">
<title>Node32&#45;&gt;Node13</title>
<path fill="none" stroke="midnightblue" d="M570.12,-56.32C579.53,-48.26 593.74,-36.08 605.07,-26.37"/>
<polygon fill="midnightblue" stroke="midnightblue" points="607.38,-29 612.69,-19.83 602.82,-23.68 607.38,-29"/>
</g>
<!-- Node33&#45;&gt;Node5 -->
<g id="edge51" class="edge">
<title>Node33&#45;&gt;Node5</title>
<path fill="none" stroke="midnightblue" d="M263.94,-114.7C214.97,-107.38 133.38,-94.2 54.39,-76.13"/>
<polygon fill="midnightblue" stroke="midnightblue" points="54.81,-72.63 44.28,-73.78 53.23,-79.45 54.81,-72.63"/>
</g>
<!-- Node33&#45;&gt;Node10 -->
<g id="edge44" class="edge">
<title>Node33&#45;&gt;Node10</title>
<path fill="none" stroke="midnightblue" d="M333.19,-112.44C359.94,-103.36 402.4,-88.94 432.31,-78.78"/>
<polygon fill="midnightblue" stroke="midnightblue" points="433.58,-82.05 441.92,-75.52 431.33,-75.42 433.58,-82.05"/>
</g>
<!-- Node33&#45;&gt;Node13 -->
<g id="edge45" class="edge">
<title>Node33&#45;&gt;Node13</title>
<path fill="none" stroke="midnightblue" d="M284.48,-112.31C255.98,-100.51 214.09,-78.34 234,-56 257.41,-29.73 497.42,-16.52 588.34,-12.42"/>
<polygon fill="midnightblue" stroke="midnightblue" points="588.58,-15.92 598.42,-11.98 588.27,-8.92 588.58,-15.92"/>
</g>
<!-- Node33&#45;&gt;Node16 -->
<g id="edge47" class="edge">
<title>Node33&#45;&gt;Node16</title>
<path fill="none" stroke="midnightblue" d="M324.23,-112.31C357.11,-94.71 428.6,-56.47 430,-56 526.43,-23.64 556.57,-41.41 656,-20 656.1,-19.98 656.2,-19.96 656.31,-19.93"/>
<polygon fill="midnightblue" stroke="midnightblue" points="657.09,-23.35 666,-17.61 655.46,-16.54 657.09,-23.35"/>
</g>
<!-- Node33&#45;&gt;Node19 -->
<g id="edge52" class="edge">
<title>Node33&#45;&gt;Node19</title>
<path fill="none" stroke="midnightblue" d="M352.12,-119.73C466.39,-116.07 769.75,-103.94 866,-76 884.33,-70.68 886.64,-63.93 904,-56 930.84,-43.73 962.06,-31.65 985.19,-23.1"/>
<polygon fill="midnightblue" stroke="midnightblue" points="986.7,-26.27 994.89,-19.54 984.3,-19.7 986.7,-26.27"/>
</g>
<!-- Node34 -->
<g id="node34" class="node">
<title>Node34</title>
<g id="a_node34"><a xlink:title=" ">
<polygon fill="none" stroke="#bfbfbf" points="243.5,-56.5 243.5,-75.5 292.5,-75.5 292.5,-56.5 243.5,-56.5"/>
<text text-anchor="middle" x="268" y="-63.5" font-family="Helvetica,sans-Serif" font-size="10.00">cstddef</text>
</a>
</g>
</g>
<!-- Node33&#45;&gt;Node34 -->
<g id="edge46" class="edge">
<title>Node33&#45;&gt;Node34</title>
<path fill="none" stroke="midnightblue" d="M301.39,-112.08C295.74,-104.46 287.46,-93.26 280.55,-83.94"/>
<polygon fill="midnightblue" stroke="midnightblue" points="283.25,-81.7 274.48,-75.75 277.62,-85.87 283.25,-81.7"/>
</g>
<!-- Node35 -->
<g id="node35" class="node">
<title>Node35</title>
<g id="a_node35"><a xlink:title=" ">
<polygon fill="none" stroke="#bfbfbf" points="311,-56.5 311,-75.5 383,-75.5 383,-56.5 311,-56.5"/>
<text text-anchor="middle" x="347" y="-63.5" font-family="Helvetica,sans-Serif" font-size="10.00">initializer_list</text>
</a>
</g>
</g>
<!-- Node33&#45;&gt;Node35 -->
<g id="edge48" class="edge">
<title>Node33&#45;&gt;Node35</title>
<path fill="none" stroke="midnightblue" d="M314.44,-112.08C319.95,-104.46 328.03,-93.26 334.76,-83.94"/>
<polygon fill="midnightblue" stroke="midnightblue" points="337.66,-85.91 340.68,-75.75 331.99,-81.81 337.66,-85.91"/>
</g>
<!-- Node36 -->
<g id="node36" class="node">
<title>Node36</title>
<g id="a_node36"><a xlink:title=" ">
<polygon fill="none" stroke="#bfbfbf" points="62.5,-56.5 62.5,-75.5 109.5,-75.5 109.5,-56.5 62.5,-56.5"/>
<text text-anchor="middle" x="86" y="-63.5" font-family="Helvetica,sans-Serif" font-size="10.00">iterator</text>
</a>
</g>
</g>
<!-- Node33&#45;&gt;Node36 -->
<g id="edge49" class="edge">
<title>Node33&#45;&gt;Node36</title>
<path fill="none" stroke="midnightblue" d="M270.03,-112.5C233.7,-104.25 177.12,-91.13 119.71,-76.37"/>
<polygon fill="midnightblue" stroke="midnightblue" points="120.29,-72.91 109.74,-73.79 118.54,-79.69 120.29,-72.91"/>
</g>
<!-- Node37 -->
<g id="node37" class="node">
<title>Node37</title>
<g id="a_node37"><a xlink:title=" ">
<polygon fill="none" stroke="#bfbfbf" points="127.5,-56.5 127.5,-75.5 186.5,-75.5 186.5,-56.5 127.5,-56.5"/>
<text text-anchor="middle" x="157" y="-63.5" font-family="Helvetica,sans-Serif" font-size="10.00">functional</text>
</a>
</g>
</g>
<!-- Node33&#45;&gt;Node37 -->
<g id="edge50" class="edge">
<title>Node33&#45;&gt;Node37</title>
<path fill="none" stroke="midnightblue" d="M284.07,-112.44C258.78,-103.4 218.7,-89.06 190.32,-78.92"/>
<polygon fill="midnightblue" stroke="midnightblue" points="191.41,-75.59 180.81,-75.52 189.05,-82.18 191.41,-75.59"/>
</g>
<!-- Node38&#45;&gt;Node13 -->
<g id="edge54" class="edge">
<title>Node38&#45;&gt;Node13</title>
<path fill="none" stroke="midnightblue" d="M692.66,-56.32C679.84,-47.98 660.22,-35.21 645.06,-25.35"/>
<polygon fill="midnightblue" stroke="midnightblue" points="646.59,-22.17 636.3,-19.65 642.78,-28.04 646.59,-22.17"/>
</g>
<!-- Node38&#45;&gt;Node16 -->
<g id="edge55" class="edge">
<title>Node38&#45;&gt;Node16</title>
<path fill="none" stroke="midnightblue" d="M703.19,-56.08C700.92,-48.85 697.63,-38.41 694.79,-29.4"/>
<polygon fill="midnightblue" stroke="midnightblue" points="698.1,-28.24 691.75,-19.75 691.42,-30.34 698.1,-28.24"/>
</g>
<!-- Node39&#45;&gt;Node15 -->
<g id="edge58" class="edge">
<title>Node39&#45;&gt;Node15</title>
<path fill="none" stroke="midnightblue" d="M1500.76,-58.38C1437.16,-47.65 1312.68,-26.64 1253.19,-16.6"/>
<polygon fill="midnightblue" stroke="midnightblue" points="1253.65,-13.13 1243.21,-14.92 1252.48,-20.03 1253.65,-13.13"/>
</g>
<!-- Node39&#45;&gt;Node18 -->
<g id="edge59" class="edge">
<title>Node39&#45;&gt;Node18</title>
<path fill="none" stroke="midnightblue" d="M1531.74,-56.08C1524.54,-48.3 1513.89,-36.8 1505.15,-27.37"/>
<polygon fill="midnightblue" stroke="midnightblue" points="1507.47,-24.71 1498.1,-19.75 1502.33,-29.47 1507.47,-24.71"/>
</g>
</g>
</svg>
