<?xml version="1.0" encoding="UTF-8" standalone="no"?>
<!DOCTYPE svg PUBLIC "-//W3C//DTD SVG 1.1//EN"
 "http://www.w3.org/Graphics/SVG/1.1/DTD/svg11.dtd">
<!-- Generated by graphviz version 2.50.0 (20220203.2022)
 -->
<!-- Title: thorin/analyses/deptree.cpp Pages: 1 -->
<svg width="1999pt" height="487pt"
 viewBox="0.00 0.00 1998.93 487.00" xmlns="http://www.w3.org/2000/svg" xmlns:xlink="http://www.w3.org/1999/xlink">
<g id="graph0" class="graph" transform="scale(1 1) rotate(0) translate(4 483)">
<title>thorin/analyses/deptree.cpp</title>
<!-- Node1 -->
<g id="node1" class="node">
<title>Node1</title>
<g id="a_node1"><a xlink:title=" ">
<polygon fill="#bfbfbf" stroke="black" points="812.5,-459.5 812.5,-478.5 947.5,-478.5 947.5,-459.5 812.5,-459.5"/>
<text text-anchor="middle" x="880" y="-466.5" font-family="Helvetica,sans-Serif" font-size="10.00">thorin/analyses/deptree.cpp</text>
</a>
</g>
</g>
<!-- Node2 -->
<g id="node2" class="node">
<title>Node2</title>
<g id="a_node2"><a xlink:href="deptree_8h.html" target="_top" xlink:title=" ">
<polygon fill="none" stroke="black" points="731.5,-403.5 731.5,-422.5 856.5,-422.5 856.5,-403.5 731.5,-403.5"/>
<text text-anchor="middle" x="794" y="-410.5" font-family="Helvetica,sans-Serif" font-size="10.00">thorin/analyses/deptree.h</text>
</a>
</g>
</g>
<!-- Node1&#45;&gt;Node2 -->
<g id="edge1" class="edge">
<title>Node1&#45;&gt;Node2</title>
<path fill="none" stroke="midnightblue" d="M866.18,-459.32C852.77,-450.9 832.18,-437.97 816.41,-428.07"/>
<polygon fill="midnightblue" stroke="midnightblue" points="818.11,-425.01 807.78,-422.65 814.39,-430.94 818.11,-425.01"/>
</g>
<!-- Node42 -->
<g id="node42" class="node">
<title>Node42</title>
<g id="a_node42"><a xlink:href="world_8h.html" target="_top" xlink:title=" ">
<polygon fill="none" stroke="black" points="966,-403.5 966,-422.5 1040,-422.5 1040,-403.5 966,-403.5"/>
<text text-anchor="middle" x="1003" y="-410.5" font-family="Helvetica,sans-Serif" font-size="10.00">thorin/world.h</text>
</a>
</g>
</g>
<!-- Node1&#45;&gt;Node42 -->
<g id="edge55" class="edge">
<title>Node1&#45;&gt;Node42</title>
<path fill="none" stroke="midnightblue" d="M899.49,-459.44C919.64,-450.6 951.32,-436.69 974.33,-426.59"/>
<polygon fill="midnightblue" stroke="midnightblue" points="975.85,-429.74 983.6,-422.52 973.04,-423.33 975.85,-429.74"/>
</g>
<!-- Node3 -->
<g id="node3" class="node">
<title>Node3</title>
<g id="a_node3"><a xlink:title=" ">
<polygon fill="none" stroke="#bfbfbf" points="209.5,-347.5 209.5,-366.5 252.5,-366.5 252.5,-347.5 209.5,-347.5"/>
<text text-anchor="middle" x="231" y="-354.5" font-family="Helvetica,sans-Serif" font-size="10.00">deque</text>
</a>
</g>
</g>
<!-- Node2&#45;&gt;Node3 -->
<g id="edge2" class="edge">
<title>Node2&#45;&gt;Node3</title>
<path fill="none" stroke="midnightblue" d="M731.13,-409.88C631.91,-405.8 433.21,-394.69 267,-367 265.53,-366.76 264.03,-366.48 262.52,-366.19"/>
<polygon fill="midnightblue" stroke="midnightblue" points="263.1,-362.73 252.58,-363.99 261.59,-369.56 263.1,-362.73"/>
</g>
<!-- Node4 -->
<g id="node4" class="node">
<title>Node4</title>
<g id="a_node4"><a xlink:href="def_8h.html" target="_top" xlink:title=" ">
<polygon fill="none" stroke="black" points="765.5,-235.5 765.5,-254.5 830.5,-254.5 830.5,-235.5 765.5,-235.5"/>
<text text-anchor="middle" x="798" y="-242.5" font-family="Helvetica,sans-Serif" font-size="10.00">thorin/def.h</text>
</a>
</g>
</g>
<!-- Node2&#45;&gt;Node4 -->
<g id="edge3" class="edge">
<title>Node2&#45;&gt;Node4</title>
<path fill="none" stroke="midnightblue" d="M794.22,-403.08C794.84,-376.95 796.69,-300.21 797.55,-264.58"/>
<polygon fill="midnightblue" stroke="midnightblue" points="801.05,-264.65 797.79,-254.57 794.05,-264.48 801.05,-264.65"/>
</g>
<!-- Node5 -->
<g id="node5" class="node">
<title>Node5</title>
<g id="a_node5"><a xlink:title=" ">
<polygon fill="none" stroke="#bfbfbf" points="309,-179.5 309,-198.5 359,-198.5 359,-179.5 309,-179.5"/>
<text text-anchor="middle" x="334" y="-186.5" font-family="Helvetica,sans-Serif" font-size="10.00">optional</text>
</a>
</g>
</g>
<!-- Node4&#45;&gt;Node5 -->
<g id="edge4" class="edge">
<title>Node4&#45;&gt;Node5</title>
<path fill="none" stroke="midnightblue" d="M765.05,-236.56C762,-235.98 758.95,-235.45 756,-235 587.01,-209.04 541.78,-226.28 373,-199 371.73,-198.79 370.43,-198.57 369.13,-198.33"/>
<polygon fill="midnightblue" stroke="midnightblue" points="369.57,-194.85 359.08,-196.3 368.19,-201.71 369.57,-194.85"/>
</g>
<!-- Node6 -->
<g id="node6" class="node">
<title>Node6</title>
<g id="a_node6"><a xlink:title=" ">
<polygon fill="none" stroke="#bfbfbf" points="1465,-118 1465,-137 1509,-137 1509,-118 1465,-118"/>
<text text-anchor="middle" x="1487" y="-125" font-family="Helvetica,sans-Serif" font-size="10.00">vector</text>
</a>
</g>
</g>
<!-- Node4&#45;&gt;Node6 -->
<g id="edge5" class="edge">
<title>Node4&#45;&gt;Node6</title>
<path fill="none" stroke="midnightblue" d="M830.71,-241.84C901.39,-236.88 1073.52,-223.2 1216,-199 1323.99,-180.66 1352.5,-178.84 1456,-143 1457.62,-142.44 1459.27,-141.82 1460.92,-141.16"/>
<polygon fill="midnightblue" stroke="midnightblue" points="1462.43,-144.32 1470.21,-137.13 1459.64,-137.9 1462.43,-144.32"/>
</g>
<!-- Node7 -->
<g id="node7" class="node">
<title>Node7</title>
<g id="a_node7"><a xlink:href="debug_8h.html" target="_top" xlink:title=" ">
<polygon fill="none" stroke="black" points="604.5,-179.5 604.5,-198.5 681.5,-198.5 681.5,-179.5 604.5,-179.5"/>
<text text-anchor="middle" x="643" y="-186.5" font-family="Helvetica,sans-Serif" font-size="10.00">thorin/debug.h</text>
</a>
</g>
</g>
<!-- Node4&#45;&gt;Node7 -->
<g id="edge6" class="edge">
<title>Node4&#45;&gt;Node7</title>
<path fill="none" stroke="midnightblue" d="M773.44,-235.44C747.48,-226.4 706.33,-212.06 677.2,-201.92"/>
<polygon fill="midnightblue" stroke="midnightblue" points="678.04,-198.5 667.45,-198.52 675.74,-205.11 678.04,-198.5"/>
</g>
<!-- Node11 -->
<g id="node11" class="node">
<title>Node11</title>
<g id="a_node11"><a xlink:href="tables_8h.html" target="_top" xlink:title=" ">
<polygon fill="none" stroke="black" points="719.5,-179.5 719.5,-198.5 796.5,-198.5 796.5,-179.5 719.5,-179.5"/>
<text text-anchor="middle" x="758" y="-186.5" font-family="Helvetica,sans-Serif" font-size="10.00">thorin/tables.h</text>
</a>
</g>
</g>
<!-- Node4&#45;&gt;Node11 -->
<g id="edge10" class="edge">
<title>Node4&#45;&gt;Node11</title>
<path fill="none" stroke="midnightblue" d="M791.39,-235.08C785.74,-227.46 777.46,-216.26 770.55,-206.94"/>
<polygon fill="midnightblue" stroke="midnightblue" points="773.25,-204.7 764.48,-198.75 767.62,-208.87 773.25,-204.7"/>
</g>
<!-- Node22 -->
<g id="node22" class="node">
<title>Node22</title>
<g id="a_node22"><a xlink:href="array_8h.html" target="_top" xlink:title=" ">
<polygon fill="none" stroke="black" points="1546,-179.5 1546,-198.5 1634,-198.5 1634,-179.5 1546,-179.5"/>
<text text-anchor="middle" x="1590" y="-186.5" font-family="Helvetica,sans-Serif" font-size="10.00">thorin/util/array.h</text>
</a>
</g>
</g>
<!-- Node4&#45;&gt;Node22 -->
<g id="edge21" class="edge">
<title>Node4&#45;&gt;Node22</title>
<path fill="none" stroke="midnightblue" d="M830.52,-241.78C952.45,-233.47 1383.21,-204.1 1535.87,-193.69"/>
<polygon fill="midnightblue" stroke="midnightblue" points="1536.2,-197.18 1545.94,-193 1535.73,-190.19 1536.2,-197.18"/>
</g>
<!-- Node30 -->
<g id="node30" class="node">
<title>Node30</title>
<g id="a_node30"><a xlink:href="cast_8h.html" target="_top" xlink:title=" ">
<polygon fill="none" stroke="black" points="815,-179.5 815,-198.5 901,-198.5 901,-179.5 815,-179.5"/>
<text text-anchor="middle" x="858" y="-186.5" font-family="Helvetica,sans-Serif" font-size="10.00">thorin/util/cast.h</text>
</a>
</g>
</g>
<!-- Node4&#45;&gt;Node30 -->
<g id="edge32" class="edge">
<title>Node4&#45;&gt;Node30</title>
<path fill="none" stroke="midnightblue" d="M807.64,-235.32C816.51,-227.34 829.87,-215.31 840.61,-205.65"/>
<polygon fill="midnightblue" stroke="midnightblue" points="843.09,-208.13 848.18,-198.83 838.41,-202.92 843.09,-208.13"/>
</g>
<!-- Node31 -->
<g id="node31" class="node">
<title>Node31</title>
<g id="a_node31"><a xlink:href="container_8h.html" target="_top" xlink:title=" ">
<polygon fill="none" stroke="black" points="415.5,-179.5 415.5,-198.5 522.5,-198.5 522.5,-179.5 415.5,-179.5"/>
<text text-anchor="middle" x="469" y="-186.5" font-family="Helvetica,sans-Serif" font-size="10.00">thorin/util/container.h</text>
</a>
</g>
</g>
<!-- Node4&#45;&gt;Node31 -->
<g id="edge35" class="edge">
<title>Node4&#45;&gt;Node31</title>
<path fill="none" stroke="midnightblue" d="M765.48,-236.84C762.28,-236.2 759.08,-235.57 756,-235 679.51,-220.82 591.01,-207.39 532.74,-198.96"/>
<polygon fill="midnightblue" stroke="midnightblue" points="532.97,-195.45 522.58,-197.49 531.97,-202.38 532.97,-195.45"/>
</g>
<!-- Node36 -->
<g id="node36" class="node">
<title>Node36</title>
<g id="a_node36"><a xlink:href="hash_8h.html" target="_top" xlink:title=" ">
<polygon fill="none" stroke="black" points="0,-118 0,-137 88,-137 88,-118 0,-118"/>
<text text-anchor="middle" x="44" y="-125" font-family="Helvetica,sans-Serif" font-size="10.00">thorin/util/hash.h</text>
</a>
</g>
</g>
<!-- Node4&#45;&gt;Node36 -->
<g id="edge44" class="edge">
<title>Node4&#45;&gt;Node36</title>
<path fill="none" stroke="midnightblue" d="M765.05,-236.59C762,-236.01 758.95,-235.47 756,-235 601.54,-210.58 555.69,-244.24 406,-199 387.73,-193.48 386.19,-184.79 368,-179 252.23,-142.13 216.09,-167.09 97,-143 92.23,-142.03 87.25,-140.88 82.34,-139.64"/>
<polygon fill="midnightblue" stroke="midnightblue" points="83,-136.2 72.44,-137.04 81.22,-142.97 83,-136.2"/>
</g>
<!-- Node37 -->
<g id="node37" class="node">
<title>Node37</title>
<g id="a_node37"><a xlink:href="stream_8h.html" target="_top" xlink:title=" ">
<polygon fill="none" stroke="black" points="1109.5,-179.5 1109.5,-198.5 1206.5,-198.5 1206.5,-179.5 1109.5,-179.5"/>
<text text-anchor="middle" x="1158" y="-186.5" font-family="Helvetica,sans-Serif" font-size="10.00">thorin/util/stream.h</text>
</a>
</g>
</g>
<!-- Node4&#45;&gt;Node37 -->
<g id="edge45" class="edge">
<title>Node4&#45;&gt;Node37</title>
<path fill="none" stroke="midnightblue" d="M830.58,-239.11C891.37,-229.99 1022.84,-210.27 1099.41,-198.79"/>
<polygon fill="midnightblue" stroke="midnightblue" points="1100.01,-202.24 1109.38,-197.29 1098.97,-195.32 1100.01,-202.24"/>
</g>
<!-- Node8 -->
<g id="node8" class="node">
<title>Node8</title>
<g id="a_node8"><a xlink:title=" ">
<polygon fill="none" stroke="#bfbfbf" points="847.5,-118 847.5,-137 888.5,-137 888.5,-118 847.5,-118"/>
<text text-anchor="middle" x="868" y="-125" font-family="Helvetica,sans-Serif" font-size="10.00">string</text>
</a>
</g>
</g>
<!-- Node7&#45;&gt;Node8 -->
<g id="edge7" class="edge">
<title>Node7&#45;&gt;Node8</title>
<path fill="none" stroke="midnightblue" d="M675.24,-179.48C718.57,-168.02 795.05,-147.79 837.48,-136.57"/>
<polygon fill="midnightblue" stroke="midnightblue" points="838.47,-139.93 847.25,-133.99 836.68,-133.16 838.47,-139.93"/>
</g>
<!-- Node9 -->
<g id="node9" class="node">
<title>Node9</title>
<g id="a_node9"><a xlink:title=" ">
<polygon fill="none" stroke="#bfbfbf" points="464.5,-112.5 464.5,-142.5 557.5,-142.5 557.5,-112.5 464.5,-112.5"/>
<text text-anchor="start" x="472.5" y="-130.5" font-family="Helvetica,sans-Serif" font-size="10.00">absl/container/flat</text>
<text text-anchor="middle" x="511" y="-119.5" font-family="Helvetica,sans-Serif" font-size="10.00">_hash_map.h</text>
</a>
</g>
</g>
<!-- Node7&#45;&gt;Node9 -->
<g id="edge8" class="edge">
<title>Node7&#45;&gt;Node9</title>
<path fill="none" stroke="midnightblue" d="M624.09,-179.48C605.21,-170.96 575.6,-157.62 551.42,-146.72"/>
<polygon fill="midnightblue" stroke="midnightblue" points="552.66,-143.44 542.11,-142.52 549.79,-149.82 552.66,-143.44"/>
</g>
<!-- Node10 -->
<g id="node10" class="node">
<title>Node10</title>
<g id="a_node10"><a xlink:title=" ">
<polygon fill="none" stroke="#bfbfbf" points="575.5,-112.5 575.5,-142.5 668.5,-142.5 668.5,-112.5 575.5,-112.5"/>
<text text-anchor="start" x="583.5" y="-130.5" font-family="Helvetica,sans-Serif" font-size="10.00">absl/container/flat</text>
<text text-anchor="middle" x="622" y="-119.5" font-family="Helvetica,sans-Serif" font-size="10.00">_hash_set.h</text>
</a>
</g>
</g>
<!-- Node7&#45;&gt;Node10 -->
<g id="edge9" class="edge">
<title>Node7&#45;&gt;Node10</title>
<path fill="none" stroke="midnightblue" d="M639.99,-179.48C637.47,-172.32 633.73,-161.75 630.32,-152.08"/>
<polygon fill="midnightblue" stroke="midnightblue" points="633.58,-150.79 626.95,-142.52 626.98,-153.12 633.58,-150.79"/>
</g>
<!-- Node12 -->
<g id="node12" class="node">
<title>Node12</title>
<g id="a_node12"><a xlink:title=" ">
<polygon fill="none" stroke="#bfbfbf" points="725,-118 725,-137 791,-137 791,-118 725,-118"/>
<text text-anchor="middle" x="758" y="-125" font-family="Helvetica,sans-Serif" font-size="10.00">string_view</text>
</a>
</g>
</g>
<!-- Node11&#45;&gt;Node12 -->
<g id="edge11" class="edge">
<title>Node11&#45;&gt;Node12</title>
<path fill="none" stroke="midnightblue" d="M758,-179.48C758,-171.08 758,-157.98 758,-147.16"/>
<polygon fill="midnightblue" stroke="midnightblue" points="761.5,-147.01 758,-137.01 754.5,-147.01 761.5,-147.01"/>
</g>
<!-- Node13 -->
<g id="node13" class="node">
<title>Node13</title>
<g id="a_node13"><a xlink:href="assert_8h.html" target="_top" xlink:title=" ">
<polygon fill="none" stroke="black" points="907,-118 907,-137 1001,-137 1001,-118 907,-118"/>
<text text-anchor="middle" x="954" y="-125" font-family="Helvetica,sans-Serif" font-size="10.00">thorin/util/assert.h</text>
</a>
</g>
</g>
<!-- Node11&#45;&gt;Node13 -->
<g id="edge12" class="edge">
<title>Node11&#45;&gt;Node13</title>
<path fill="none" stroke="midnightblue" d="M786.08,-179.48C820.29,-169.09 878.2,-151.51 916.27,-139.95"/>
<polygon fill="midnightblue" stroke="midnightblue" points="917.42,-143.26 925.97,-137.01 915.38,-136.56 917.42,-143.26"/>
</g>
<!-- Node15 -->
<g id="node15" class="node">
<title>Node15</title>
<g id="a_node15"><a xlink:href="types_8h.html" target="_top" xlink:title=" ">
<polygon fill="none" stroke="black" points="652,-56.5 652,-75.5 742,-75.5 742,-56.5 652,-56.5"/>
<text text-anchor="middle" x="697" y="-63.5" font-family="Helvetica,sans-Serif" font-size="10.00">thorin/util/types.h</text>
</a>
</g>
</g>
<!-- Node11&#45;&gt;Node15 -->
<g id="edge14" class="edge">
<title>Node11&#45;&gt;Node15</title>
<path fill="none" stroke="midnightblue" d="M747.43,-179.47C737.82,-171.15 723.96,-157.65 716,-143 706.28,-125.12 701.43,-102.17 699.08,-86.19"/>
<polygon fill="midnightblue" stroke="midnightblue" points="702.51,-85.43 697.77,-75.95 695.57,-86.32 702.51,-85.43"/>
</g>
<!-- Node14 -->
<g id="node14" class="node">
<title>Node14</title>
<g id="a_node14"><a xlink:title=" ">
<polygon fill="none" stroke="#bfbfbf" points="1276.5,-56.5 1276.5,-75.5 1325.5,-75.5 1325.5,-56.5 1276.5,-56.5"/>
<text text-anchor="middle" x="1301" y="-63.5" font-family="Helvetica,sans-Serif" font-size="10.00">cassert</text>
</a>
</g>
</g>
<!-- Node13&#45;&gt;Node14 -->
<g id="edge13" class="edge">
<title>Node13&#45;&gt;Node14</title>
<path fill="none" stroke="midnightblue" d="M984.68,-117.97C992.87,-115.85 1001.74,-113.7 1010,-112 1101.76,-93.07 1211.29,-78.18 1266.11,-71.25"/>
<polygon fill="midnightblue" stroke="midnightblue" points="1266.84,-74.69 1276.32,-69.97 1265.97,-67.74 1266.84,-74.69"/>
</g>
<!-- Node16 -->
<g id="node16" class="node">
<title>Node16</title>
<g id="a_node16"><a xlink:title=" ">
<polygon fill="none" stroke="#bfbfbf" points="674,-0.5 674,-19.5 720,-19.5 720,-0.5 674,-0.5"/>
<text text-anchor="middle" x="697" y="-7.5" font-family="Helvetica,sans-Serif" font-size="10.00">cstdint</text>
</a>
</g>
</g>
<!-- Node15&#45;&gt;Node16 -->
<g id="edge15" class="edge">
<title>Node15&#45;&gt;Node16</title>
<path fill="none" stroke="midnightblue" d="M697,-56.08C697,-49.01 697,-38.86 697,-29.99"/>
<polygon fill="midnightblue" stroke="midnightblue" points="700.5,-29.75 697,-19.75 693.5,-29.75 700.5,-29.75"/>
</g>
<!-- Node17 -->
<g id="node17" class="node">
<title>Node17</title>
<g id="a_node17"><a xlink:title=" ">
<polygon fill="none" stroke="#bfbfbf" points="738,-0.5 738,-19.5 778,-19.5 778,-0.5 738,-0.5"/>
<text text-anchor="middle" x="758" y="-7.5" font-family="Helvetica,sans-Serif" font-size="10.00">limits</text>
</a>
</g>
</g>
<!-- Node15&#45;&gt;Node17 -->
<g id="edge16" class="edge">
<title>Node15&#45;&gt;Node17</title>
<path fill="none" stroke="midnightblue" d="M706.8,-56.32C715.82,-48.34 729.41,-36.31 740.32,-26.65"/>
<polygon fill="midnightblue" stroke="midnightblue" points="742.85,-29.08 748.02,-19.83 738.21,-23.84 742.85,-29.08"/>
</g>
<!-- Node18 -->
<g id="node18" class="node">
<title>Node18</title>
<g id="a_node18"><a xlink:title=" ">
<polygon fill="none" stroke="#bfbfbf" points="796,-0.5 796,-19.5 848,-19.5 848,-0.5 796,-0.5"/>
<text text-anchor="middle" x="822" y="-7.5" font-family="Helvetica,sans-Serif" font-size="10.00">ostream</text>
</a>
</g>
</g>
<!-- Node15&#45;&gt;Node18 -->
<g id="edge17" class="edge">
<title>Node15&#45;&gt;Node18</title>
<path fill="none" stroke="midnightblue" d="M716.81,-56.44C737.29,-47.6 769.48,-33.69 792.86,-23.59"/>
<polygon fill="midnightblue" stroke="midnightblue" points="794.49,-26.7 802.29,-19.52 791.72,-20.27 794.49,-26.7"/>
</g>
<!-- Node19 -->
<g id="node19" class="node">
<title>Node19</title>
<g id="a_node19"><a xlink:title=" ">
<polygon fill="none" stroke="#bfbfbf" points="1309,-0.5 1309,-19.5 1371,-19.5 1371,-0.5 1309,-0.5"/>
<text text-anchor="middle" x="1340" y="-7.5" font-family="Helvetica,sans-Serif" font-size="10.00">type_traits</text>
</a>
</g>
</g>
<!-- Node15&#45;&gt;Node19 -->
<g id="edge18" class="edge">
<title>Node15&#45;&gt;Node19</title>
<path fill="none" stroke="midnightblue" d="M742.21,-61.2C861.55,-51.18 1183.7,-24.13 1298.59,-14.48"/>
<polygon fill="midnightblue" stroke="midnightblue" points="1299.06,-17.95 1308.74,-13.63 1298.48,-10.97 1299.06,-17.95"/>
</g>
<!-- Node20 -->
<g id="node20" class="node">
<title>Node20</title>
<g id="a_node20"><a xlink:title=" ">
<polygon fill="none" stroke="#bfbfbf" points="544,-0.5 544,-19.5 588,-19.5 588,-0.5 544,-0.5"/>
<text text-anchor="middle" x="566" y="-7.5" font-family="Helvetica,sans-Serif" font-size="10.00">cmath</text>
</a>
</g>
</g>
<!-- Node15&#45;&gt;Node20 -->
<g id="edge19" class="edge">
<title>Node15&#45;&gt;Node20</title>
<path fill="none" stroke="midnightblue" d="M676.24,-56.44C654.68,-47.56 620.74,-33.56 596.21,-23.45"/>
<polygon fill="midnightblue" stroke="midnightblue" points="597.24,-20.09 586.66,-19.52 594.57,-26.56 597.24,-20.09"/>
</g>
<!-- Node21 -->
<g id="node21" class="node">
<title>Node21</title>
<g id="a_node21"><a xlink:title=" ">
<polygon fill="none" stroke="#bfbfbf" points="606,-0.5 606,-19.5 656,-19.5 656,-0.5 606,-0.5"/>
<text text-anchor="middle" x="631" y="-7.5" font-family="Helvetica,sans-Serif" font-size="10.00">half.hpp</text>
</a>
</g>
</g>
<!-- Node15&#45;&gt;Node21 -->
<g id="edge20" class="edge">
<title>Node15&#45;&gt;Node21</title>
<path fill="none" stroke="midnightblue" d="M686.4,-56.32C676.54,-48.26 661.65,-36.08 649.78,-26.37"/>
<polygon fill="midnightblue" stroke="midnightblue" points="651.75,-23.46 641.8,-19.83 647.32,-28.88 651.75,-23.46"/>
</g>
<!-- Node22&#45;&gt;Node6 -->
<g id="edge31" class="edge">
<title>Node22&#45;&gt;Node6</title>
<path fill="none" stroke="midnightblue" d="M1575.24,-179.48C1558.34,-169.71 1530.42,-153.58 1510.51,-142.08"/>
<polygon fill="midnightblue" stroke="midnightblue" points="1512.14,-138.98 1501.73,-137.01 1508.64,-145.04 1512.14,-138.98"/>
</g>
<!-- Node22&#45;&gt;Node14 -->
<g id="edge22" class="edge">
<title>Node22&#45;&gt;Node14</title>
<path fill="none" stroke="midnightblue" d="M1584.47,-179.31C1573.74,-163.24 1548.48,-128.99 1518,-112 1459.66,-79.49 1380.67,-70.38 1335.85,-67.88"/>
<polygon fill="midnightblue" stroke="midnightblue" points="1335.92,-64.38 1325.76,-67.4 1335.58,-71.37 1335.92,-64.38"/>
</g>
<!-- Node22&#45;&gt;Node19 -->
<g id="edge30" class="edge">
<title>Node22&#45;&gt;Node19</title>
<path fill="none" stroke="midnightblue" d="M1634.01,-184.48C1696.98,-177.73 1801.29,-159.21 1764,-112 1716.43,-51.77 1478.01,-23.57 1381.08,-14.46"/>
<polygon fill="midnightblue" stroke="midnightblue" points="1381.34,-10.97 1371.06,-13.54 1380.7,-17.94 1381.34,-10.97"/>
</g>
<!-- Node23 -->
<g id="node23" class="node">
<title>Node23</title>
<g id="a_node23"><a xlink:title=" ">
<polygon fill="none" stroke="#bfbfbf" points="1565.5,-118 1565.5,-137 1614.5,-137 1614.5,-118 1565.5,-118"/>
<text text-anchor="middle" x="1590" y="-125" font-family="Helvetica,sans-Serif" font-size="10.00">cstddef</text>
</a>
</g>
</g>
<!-- Node22&#45;&gt;Node23 -->
<g id="edge23" class="edge">
<title>Node22&#45;&gt;Node23</title>
<path fill="none" stroke="midnightblue" d="M1590,-179.48C1590,-171.08 1590,-157.98 1590,-147.16"/>
<polygon fill="midnightblue" stroke="midnightblue" points="1593.5,-147.01 1590,-137.01 1586.5,-147.01 1593.5,-147.01"/>
</g>
<!-- Node24 -->
<g id="node24" class="node">
<title>Node24</title>
<g id="a_node24"><a xlink:title=" ">
<polygon fill="none" stroke="#bfbfbf" points="1019,-118 1019,-137 1065,-137 1065,-118 1019,-118"/>
<text text-anchor="middle" x="1042" y="-125" font-family="Helvetica,sans-Serif" font-size="10.00">cstring</text>
</a>
</g>
</g>
<!-- Node22&#45;&gt;Node24 -->
<g id="edge24" class="edge">
<title>Node22&#45;&gt;Node24</title>
<path fill="none" stroke="midnightblue" d="M1545.76,-186.06C1437.71,-181.02 1162.73,-166.24 1074,-143 1071.84,-142.43 1069.65,-141.74 1067.47,-140.95"/>
<polygon fill="midnightblue" stroke="midnightblue" points="1068.8,-137.71 1058.22,-137.13 1066.12,-144.18 1068.8,-137.71"/>
</g>
<!-- Node25 -->
<g id="node25" class="node">
<title>Node25</title>
<g id="a_node25"><a xlink:title=" ">
<polygon fill="none" stroke="#bfbfbf" points="1633,-118 1633,-137 1689,-137 1689,-118 1633,-118"/>
<text text-anchor="middle" x="1661" y="-125" font-family="Helvetica,sans-Serif" font-size="10.00">algorithm</text>
</a>
</g>
</g>
<!-- Node22&#45;&gt;Node25 -->
<g id="edge25" class="edge">
<title>Node22&#45;&gt;Node25</title>
<path fill="none" stroke="midnightblue" d="M1600.17,-179.48C1611.35,-170.11 1629.52,-154.88 1643.09,-143.51"/>
<polygon fill="midnightblue" stroke="midnightblue" points="1645.43,-146.11 1650.85,-137.01 1640.93,-140.75 1645.43,-146.11"/>
</g>
<!-- Node26 -->
<g id="node26" class="node">
<title>Node26</title>
<g id="a_node26"><a xlink:title=" ">
<polygon fill="none" stroke="#bfbfbf" points="1811.5,-118 1811.5,-137 1870.5,-137 1870.5,-118 1811.5,-118"/>
<text text-anchor="middle" x="1841" y="-125" font-family="Helvetica,sans-Serif" font-size="10.00">functional</text>
</a>
</g>
</g>
<!-- Node22&#45;&gt;Node26 -->
<g id="edge26" class="edge">
<title>Node22&#45;&gt;Node26</title>
<path fill="none" stroke="midnightblue" d="M1634.34,-179.75C1676.47,-171.59 1741.47,-158.14 1797,-143 1800.18,-142.13 1803.47,-141.17 1806.76,-140.17"/>
<polygon fill="midnightblue" stroke="midnightblue" points="1808,-143.45 1816.47,-137.09 1805.88,-136.77 1808,-143.45"/>
</g>
<!-- Node27 -->
<g id="node27" class="node">
<title>Node27</title>
<g id="a_node27"><a xlink:title=" ">
<polygon fill="none" stroke="#bfbfbf" points="1889,-118 1889,-137 1961,-137 1961,-118 1889,-118"/>
<text text-anchor="middle" x="1925" y="-125" font-family="Helvetica,sans-Serif" font-size="10.00">initializer_list</text>
</a>
</g>
</g>
<!-- Node22&#45;&gt;Node27 -->
<g id="edge27" class="edge">
<title>Node22&#45;&gt;Node27</title>
<path fill="none" stroke="midnightblue" d="M1634.14,-183.35C1691.36,-176.82 1793.99,-163.4 1880,-143 1883.65,-142.13 1887.43,-141.12 1891.18,-140.03"/>
<polygon fill="midnightblue" stroke="midnightblue" points="1892.38,-143.32 1900.91,-137.04 1890.32,-136.63 1892.38,-143.32"/>
</g>
<!-- Node28 -->
<g id="node28" class="node">
<title>Node28</title>
<g id="a_node28"><a xlink:title=" ">
<polygon fill="none" stroke="#bfbfbf" points="1707.5,-118 1707.5,-137 1754.5,-137 1754.5,-118 1707.5,-118"/>
<text text-anchor="middle" x="1731" y="-125" font-family="Helvetica,sans-Serif" font-size="10.00">iterator</text>
</a>
</g>
</g>
<!-- Node22&#45;&gt;Node28 -->
<g id="edge28" class="edge">
<title>Node22&#45;&gt;Node28</title>
<path fill="none" stroke="midnightblue" d="M1610.75,-179.49C1632.53,-170.53 1667.75,-155.95 1698,-143 1699.37,-142.42 1700.76,-141.81 1702.17,-141.2"/>
<polygon fill="midnightblue" stroke="midnightblue" points="1703.71,-144.35 1711.48,-137.15 1700.92,-137.93 1703.71,-144.35"/>
</g>
<!-- Node29 -->
<g id="node29" class="node">
<title>Node29</title>
<g id="a_node29"><a xlink:title=" ">
<polygon fill="none" stroke="#bfbfbf" points="1401,-118 1401,-137 1447,-137 1447,-118 1401,-118"/>
<text text-anchor="middle" x="1424" y="-125" font-family="Helvetica,sans-Serif" font-size="10.00">ranges</text>
</a>
</g>
</g>
<!-- Node22&#45;&gt;Node29 -->
<g id="edge29" class="edge">
<title>Node22&#45;&gt;Node29</title>
<path fill="none" stroke="midnightblue" d="M1561.73,-179.42C1534.4,-170.92 1491.97,-157.15 1456,-143 1454.58,-142.44 1453.13,-141.85 1451.68,-141.25"/>
<polygon fill="midnightblue" stroke="midnightblue" points="1452.71,-137.88 1442.14,-137.1 1449.92,-144.3 1452.71,-137.88"/>
</g>
<!-- Node30&#45;&gt;Node14 -->
<g id="edge33" class="edge">
<title>Node30&#45;&gt;Node14</title>
<path fill="none" stroke="midnightblue" d="M851.22,-179.28C840.03,-163.76 820.58,-131.2 838,-112 866.67,-80.41 1163.36,-70.31 1266.16,-67.75"/>
<polygon fill="midnightblue" stroke="midnightblue" points="1266.42,-71.24 1276.33,-67.5 1266.25,-64.25 1266.42,-71.24"/>
</g>
<!-- Node30&#45;&gt;Node24 -->
<g id="edge34" class="edge">
<title>Node30&#45;&gt;Node24</title>
<path fill="none" stroke="midnightblue" d="M891.64,-179.47C922.74,-171.25 970.03,-157.89 1010,-143 1011.61,-142.4 1013.26,-141.76 1014.91,-141.09"/>
<polygon fill="midnightblue" stroke="midnightblue" points="1016.44,-144.24 1024.24,-137.07 1013.67,-137.81 1016.44,-144.24"/>
</g>
<!-- Node31&#45;&gt;Node9 -->
<g id="edge38" class="edge">
<title>Node31&#45;&gt;Node9</title>
<path fill="none" stroke="midnightblue" d="M475.02,-179.48C480.28,-172.02 488.16,-160.85 495.21,-150.87"/>
<polygon fill="midnightblue" stroke="midnightblue" points="498.19,-152.71 501.1,-142.52 492.48,-148.67 498.19,-152.71"/>
</g>
<!-- Node31&#45;&gt;Node10 -->
<g id="edge39" class="edge">
<title>Node31&#45;&gt;Node10</title>
<path fill="none" stroke="midnightblue" d="M490.92,-179.48C513.1,-170.85 548.04,-157.26 576.27,-146.29"/>
<polygon fill="midnightblue" stroke="midnightblue" points="577.89,-149.41 585.94,-142.52 575.35,-142.89 577.89,-149.41"/>
</g>
<!-- Node32 -->
<g id="node32" class="node">
<title>Node32</title>
<g id="a_node32"><a xlink:title=" ">
<polygon fill="none" stroke="#bfbfbf" points="344.5,-118 344.5,-137 387.5,-137 387.5,-118 344.5,-118"/>
<text text-anchor="middle" x="366" y="-125" font-family="Helvetica,sans-Serif" font-size="10.00">queue</text>
</a>
</g>
</g>
<!-- Node31&#45;&gt;Node32 -->
<g id="edge36" class="edge">
<title>Node31&#45;&gt;Node32</title>
<path fill="none" stroke="midnightblue" d="M454.24,-179.48C437.34,-169.71 409.42,-153.58 389.51,-142.08"/>
<polygon fill="midnightblue" stroke="midnightblue" points="391.14,-138.98 380.73,-137.01 387.64,-145.04 391.14,-138.98"/>
</g>
<!-- Node33 -->
<g id="node33" class="node">
<title>Node33</title>
<g id="a_node33"><a xlink:title=" ">
<polygon fill="none" stroke="#bfbfbf" points="405.5,-118 405.5,-137 446.5,-137 446.5,-118 405.5,-118"/>
<text text-anchor="middle" x="426" y="-125" font-family="Helvetica,sans-Serif" font-size="10.00">stack</text>
</a>
</g>
</g>
<!-- Node31&#45;&gt;Node33 -->
<g id="edge37" class="edge">
<title>Node31&#45;&gt;Node33</title>
<path fill="none" stroke="midnightblue" d="M462.84,-179.48C456.39,-170.55 446.1,-156.31 438.03,-145.14"/>
<polygon fill="midnightblue" stroke="midnightblue" points="440.84,-143.06 432.15,-137.01 435.17,-147.16 440.84,-143.06"/>
</g>
<!-- Node34 -->
<g id="node34" class="node">
<title>Node34</title>
<g id="a_node34"><a xlink:title=" ">
<polygon fill="none" stroke="#bfbfbf" points="106.5,-112.5 106.5,-142.5 207.5,-142.5 207.5,-112.5 106.5,-112.5"/>
<text text-anchor="start" x="114.5" y="-130.5" font-family="Helvetica,sans-Serif" font-size="10.00">absl/container/node</text>
<text text-anchor="middle" x="157" y="-119.5" font-family="Helvetica,sans-Serif" font-size="10.00">_hash_map.h</text>
</a>
</g>
</g>
<!-- Node31&#45;&gt;Node34 -->
<g id="edge40" class="edge">
<title>Node31&#45;&gt;Node34</title>
<path fill="none" stroke="midnightblue" d="M415.5,-179.52C366.36,-171.5 291.32,-158.66 217.7,-143.29"/>
<polygon fill="midnightblue" stroke="midnightblue" points="218.31,-139.84 207.8,-141.21 216.87,-146.69 218.31,-139.84"/>
</g>
<!-- Node35 -->
<g id="node35" class="node">
<title>Node35</title>
<g id="a_node35"><a xlink:title=" ">
<polygon fill="none" stroke="#bfbfbf" points="225.5,-112.5 225.5,-142.5 326.5,-142.5 326.5,-112.5 225.5,-112.5"/>
<text text-anchor="start" x="233.5" y="-130.5" font-family="Helvetica,sans-Serif" font-size="10.00">absl/container/node</text>
<text text-anchor="middle" x="276" y="-119.5" font-family="Helvetica,sans-Serif" font-size="10.00">_hash_set.h</text>
</a>
</g>
</g>
<!-- Node31&#45;&gt;Node35 -->
<g id="edge41" class="edge">
<title>Node31&#45;&gt;Node35</title>
<path fill="none" stroke="midnightblue" d="M441.35,-179.48C412.77,-170.66 367.37,-156.67 331.37,-145.57"/>
<polygon fill="midnightblue" stroke="midnightblue" points="332.07,-142.12 321.49,-142.52 330.01,-148.81 332.07,-142.12"/>
</g>
<!-- Node31&#45;&gt;Node36 -->
<g id="edge42" class="edge">
<title>Node31&#45;&gt;Node36</title>
<path fill="none" stroke="midnightblue" d="M415.19,-180.81C410.39,-180.19 405.61,-179.58 401,-179 266,-162.07 230.54,-169.02 97,-143 92.16,-142.06 87.12,-140.9 82.15,-139.67"/>
<polygon fill="midnightblue" stroke="midnightblue" points="82.71,-136.19 72.15,-137.04 80.93,-142.96 82.71,-136.19"/>
</g>
<!-- Node36&#45;&gt;Node15 -->
<g id="edge43" class="edge">
<title>Node36&#45;&gt;Node15</title>
<path fill="none" stroke="midnightblue" d="M71.28,-117.96C79.48,-115.69 88.54,-113.46 97,-112 295.49,-77.73 535.38,-69.56 641.69,-67.61"/>
<polygon fill="midnightblue" stroke="midnightblue" points="641.92,-71.1 651.85,-67.43 641.8,-64.11 641.92,-71.1"/>
</g>
<!-- Node37&#45;&gt;Node8 -->
<g id="edge53" class="edge">
<title>Node37&#45;&gt;Node8</title>
<path fill="none" stroke="midnightblue" d="M1109.49,-181.25C1045.5,-172.07 936.49,-155.36 898,-143 896.33,-142.46 894.64,-141.85 892.96,-141.19"/>
<polygon fill="midnightblue" stroke="midnightblue" points="894.1,-137.87 883.54,-137.03 891.27,-144.27 894.1,-137.87"/>
</g>
<!-- Node37&#45;&gt;Node13 -->
<g id="edge54" class="edge">
<title>Node37&#45;&gt;Node13</title>
<path fill="none" stroke="midnightblue" d="M1128.77,-179.48C1093.1,-169.07 1032.64,-151.44 993.02,-139.88"/>
<polygon fill="midnightblue" stroke="midnightblue" points="993.75,-136.45 983.17,-137.01 991.79,-143.17 993.75,-136.45"/>
</g>
<!-- Node37&#45;&gt;Node14 -->
<g id="edge46" class="edge">
<title>Node37&#45;&gt;Node14</title>
<path fill="none" stroke="midnightblue" d="M1206.5,-181.55C1232.33,-175.66 1262.67,-164.43 1282,-143 1296.06,-127.41 1300.07,-102.98 1301.04,-86.05"/>
<polygon fill="midnightblue" stroke="midnightblue" points="1304.55,-85.81 1301.31,-75.72 1297.55,-85.63 1304.55,-85.81"/>
</g>
<!-- Node37&#45;&gt;Node24 -->
<g id="edge47" class="edge">
<title>Node37&#45;&gt;Node24</title>
<path fill="none" stroke="midnightblue" d="M1141.38,-179.48C1122.08,-169.58 1090.04,-153.14 1067.57,-141.62"/>
<polygon fill="midnightblue" stroke="midnightblue" points="1069.08,-138.46 1058.59,-137.01 1065.89,-144.69 1069.08,-138.46"/>
</g>
<!-- Node37&#45;&gt;Node29 -->
<g id="edge51" class="edge">
<title>Node37&#45;&gt;Node29</title>
<path fill="none" stroke="midnightblue" d="M1206.78,-182.03C1254.7,-175.38 1329.51,-162.86 1392,-143 1393.87,-142.4 1395.78,-141.73 1397.69,-141"/>
<polygon fill="midnightblue" stroke="midnightblue" points="1399.15,-144.18 1407.02,-137.09 1396.45,-137.73 1399.15,-144.18"/>
</g>
<!-- Node38 -->
<g id="node38" class="node">
<title>Node38</title>
<g id="a_node38"><a xlink:title=" ">
<polygon fill="none" stroke="#bfbfbf" points="1153,-118 1153,-137 1203,-137 1203,-118 1153,-118"/>
<text text-anchor="middle" x="1178" y="-125" font-family="Helvetica,sans-Serif" font-size="10.00">fstream</text>
</a>
</g>
</g>
<!-- Node37&#45;&gt;Node38 -->
<g id="edge48" class="edge">
<title>Node37&#45;&gt;Node38</title>
<path fill="none" stroke="midnightblue" d="M1160.87,-179.48C1163.72,-170.99 1168.18,-157.7 1171.84,-146.82"/>
<polygon fill="midnightblue" stroke="midnightblue" points="1175.27,-147.6 1175.14,-137.01 1168.64,-145.37 1175.27,-147.6"/>
</g>
<!-- Node39 -->
<g id="node39" class="node">
<title>Node39</title>
<g id="a_node39"><a xlink:title=" ">
<polygon fill="none" stroke="#bfbfbf" points="1329,-118 1329,-137 1383,-137 1383,-118 1329,-118"/>
<text text-anchor="middle" x="1356" y="-125" font-family="Helvetica,sans-Serif" font-size="10.00">iostream</text>
</a>
</g>
</g>
<!-- Node37&#45;&gt;Node39 -->
<g id="edge49" class="edge">
<title>Node37&#45;&gt;Node39</title>
<path fill="none" stroke="midnightblue" d="M1190.04,-179.43C1221.89,-170.77 1272.06,-156.73 1315,-143 1317.61,-142.17 1320.3,-141.28 1323,-140.37"/>
<polygon fill="midnightblue" stroke="midnightblue" points="1324.36,-143.6 1332.67,-137.03 1322.07,-136.98 1324.36,-143.6"/>
</g>
<!-- Node40 -->
<g id="node40" class="node">
<title>Node40</title>
<g id="a_node40"><a xlink:title=" ">
<polygon fill="none" stroke="#bfbfbf" points="1221.5,-118 1221.5,-137 1272.5,-137 1272.5,-118 1221.5,-118"/>
<text text-anchor="middle" x="1247" y="-125" font-family="Helvetica,sans-Serif" font-size="10.00">memory</text>
</a>
</g>
</g>
<!-- Node37&#45;&gt;Node40 -->
<g id="edge50" class="edge">
<title>Node37&#45;&gt;Node40</title>
<path fill="none" stroke="midnightblue" d="M1170.75,-179.48C1185.03,-169.93 1208.4,-154.31 1225.51,-142.87"/>
<polygon fill="midnightblue" stroke="midnightblue" points="1227.9,-145.48 1234.27,-137.01 1224.01,-139.66 1227.9,-145.48"/>
</g>
<!-- Node41 -->
<g id="node41" class="node">
<title>Node41</title>
<g id="a_node41"><a xlink:title=" ">
<polygon fill="none" stroke="#bfbfbf" points="1083,-118 1083,-137 1135,-137 1135,-118 1083,-118"/>
<text text-anchor="middle" x="1109" y="-125" font-family="Helvetica,sans-Serif" font-size="10.00">sstream</text>
</a>
</g>
</g>
<!-- Node37&#45;&gt;Node41 -->
<g id="edge52" class="edge">
<title>Node37&#45;&gt;Node41</title>
<path fill="none" stroke="midnightblue" d="M1150.98,-179.48C1143.56,-170.46 1131.67,-156.02 1122.43,-144.81"/>
<polygon fill="midnightblue" stroke="midnightblue" points="1125.07,-142.5 1116.01,-137.01 1119.66,-146.95 1125.07,-142.5"/>
</g>
<!-- Node42&#45;&gt;Node8 -->
<g id="edge60" class="edge">
<title>Node42&#45;&gt;Node8</title>
<path fill="none" stroke="midnightblue" d="M1015.4,-403.4C1026.29,-395.23 1041.79,-381.99 1051,-367 1066.76,-341.36 1070,-332.1 1070,-302 1070,-302 1070,-302 1070,-244 1070,-233.97 948.46,-170.01 893.93,-141.81"/>
<polygon fill="midnightblue" stroke="midnightblue" points="895.37,-138.62 884.87,-137.14 892.16,-144.84 895.37,-138.62"/>
</g>
<!-- Node42&#45;&gt;Node14 -->
<g id="edge56" class="edge">
<title>Node42&#45;&gt;Node14</title>
<path fill="none" stroke="midnightblue" d="M1040.15,-411.83C1219.7,-410.55 1989,-399.37 1989,-302 1989,-302 1989,-302 1989,-188 1989,-153.18 1996.71,-134.34 1970,-112 1921.14,-71.14 1466.91,-67.25 1336.09,-66.99"/>
<polygon fill="midnightblue" stroke="midnightblue" points="1335.85,-63.49 1325.84,-66.97 1335.84,-70.49 1335.85,-63.49"/>
</g>
<!-- Node42&#45;&gt;Node26 -->
<g id="edge57" class="edge">
<title>Node42&#45;&gt;Node26</title>
<path fill="none" stroke="midnightblue" d="M1040.43,-410.23C1187.55,-402.81 1718,-371.23 1718,-302 1718,-302 1718,-302 1718,-244 1718,-193.58 1773.6,-158.75 1810.04,-141.34"/>
<polygon fill="midnightblue" stroke="midnightblue" points="1811.67,-144.44 1819.29,-137.09 1808.74,-138.08 1811.67,-144.44"/>
</g>
<!-- Node42&#45;&gt;Node27 -->
<g id="edge58" class="edge">
<title>Node42&#45;&gt;Node27</title>
<path fill="none" stroke="midnightblue" d="M1040.17,-411.25C1205.73,-407.41 1868,-386.77 1868,-302 1868,-302 1868,-302 1868,-244 1868,-205.28 1894.07,-166.1 1910.95,-144.8"/>
<polygon fill="midnightblue" stroke="midnightblue" points="1913.67,-147.01 1917.31,-137.06 1908.26,-142.56 1913.67,-147.01"/>
</g>
<!-- Node42&#45;&gt;Node36 -->
<g id="edge70" class="edge">
<title>Node42&#45;&gt;Node36</title>
<path fill="none" stroke="midnightblue" d="M965.95,-408.33C818.47,-393.49 281,-337.01 281,-302 281,-302 281,-302 281,-244 281,-221.52 141.48,-165.55 76.54,-140.71"/>
<polygon fill="midnightblue" stroke="midnightblue" points="77.75,-137.42 67.16,-137.13 75.26,-143.96 77.75,-137.42"/>
</g>
<!-- Node42&#45;&gt;Node39 -->
<g id="edge59" class="edge">
<title>Node42&#45;&gt;Node39</title>
<path fill="none" stroke="midnightblue" d="M1040.03,-407.88C1127.57,-397.11 1340,-364.54 1340,-302 1340,-302 1340,-302 1340,-244 1340,-209.54 1347.08,-169.83 1351.82,-147.1"/>
<polygon fill="midnightblue" stroke="midnightblue" points="1355.28,-147.65 1353.97,-137.14 1348.44,-146.17 1355.28,-147.65"/>
</g>
<!-- Node43 -->
<g id="node43" class="node">
<title>Node43</title>
<g id="a_node43"><a xlink:href="axiom_8h.html" target="_top" xlink:title=" ">
<polygon fill="none" stroke="black" points="688.5,-347.5 688.5,-366.5 765.5,-366.5 765.5,-347.5 688.5,-347.5"/>
<text text-anchor="middle" x="727" y="-354.5" font-family="Helvetica,sans-Serif" font-size="10.00">thorin/axiom.h</text>
</a>
</g>
</g>
<!-- Node42&#45;&gt;Node43 -->
<g id="edge61" class="edge">
<title>Node42&#45;&gt;Node43</title>
<path fill="none" stroke="midnightblue" d="M965.78,-404.72C916.71,-395.12 830.25,-378.2 775.93,-367.57"/>
<polygon fill="midnightblue" stroke="midnightblue" points="776.34,-364.09 765.85,-365.6 774.99,-370.96 776.34,-364.09"/>
</g>
<!-- Node46 -->
<g id="node46" class="node">
<title>Node46</title>
<g id="a_node46"><a xlink:title=" ">
<polygon fill="none" stroke="#bfbfbf" points="964.5,-347.5 964.5,-366.5 1041.5,-366.5 1041.5,-347.5 964.5,-347.5"/>
<text text-anchor="middle" x="1003" y="-354.5" font-family="Helvetica,sans-Serif" font-size="10.00">thorin/config.h</text>
</a>
</g>
</g>
<!-- Node42&#45;&gt;Node46 -->
<g id="edge65" class="edge">
<title>Node42&#45;&gt;Node46</title>
<path fill="none" stroke="midnightblue" d="M1003,-403.08C1003,-396.01 1003,-385.86 1003,-376.99"/>
<polygon fill="midnightblue" stroke="midnightblue" points="1006.5,-376.75 1003,-366.75 999.5,-376.75 1006.5,-376.75"/>
</g>
<!-- Node47 -->
<g id="node47" class="node">
<title>Node47</title>
<g id="a_node47"><a xlink:href="lattice_8h.html" target="_top" xlink:title=" ">
<polygon fill="none" stroke="black" points="822.5,-291.5 822.5,-310.5 899.5,-310.5 899.5,-291.5 822.5,-291.5"/>
<text text-anchor="middle" x="861" y="-298.5" font-family="Helvetica,sans-Serif" font-size="10.00">thorin/lattice.h</text>
</a>
</g>
</g>
<!-- Node42&#45;&gt;Node47 -->
<g id="edge66" class="edge">
<title>Node42&#45;&gt;Node47</title>
<path fill="none" stroke="midnightblue" d="M991.86,-403.37C967.7,-384.65 910.25,-340.15 880.15,-316.83"/>
<polygon fill="midnightblue" stroke="midnightblue" points="882.14,-313.95 872.09,-310.59 877.85,-319.48 882.14,-313.95"/>
</g>
<!-- Node48 -->
<g id="node48" class="node">
<title>Node48</title>
<g id="a_node48"><a xlink:href="tuple_8h.html" target="_top" xlink:title=" ">
<polygon fill="none" stroke="black" points="918,-291.5 918,-310.5 990,-310.5 990,-291.5 918,-291.5"/>
<text text-anchor="middle" x="954" y="-298.5" font-family="Helvetica,sans-Serif" font-size="10.00">thorin/tuple.h</text>
</a>
</g>
</g>
<!-- Node42&#45;&gt;Node48 -->
<g id="edge68" class="edge">
<title>Node42&#45;&gt;Node48</title>
<path fill="none" stroke="midnightblue" d="M989.04,-403.21C977.84,-395.27 962.89,-382.48 956,-367 949.54,-352.5 949.57,-334.31 950.92,-320.87"/>
<polygon fill="midnightblue" stroke="midnightblue" points="954.4,-321.25 952.24,-310.88 947.46,-320.33 954.4,-321.25"/>
</g>
<!-- Node44 -->
<g id="node44" class="node">
<title>Node44</title>
<g id="a_node44"><a xlink:href="lam_8h.html" target="_top" xlink:title=" ">
<polygon fill="none" stroke="black" points="693.5,-291.5 693.5,-310.5 760.5,-310.5 760.5,-291.5 693.5,-291.5"/>
<text text-anchor="middle" x="727" y="-298.5" font-family="Helvetica,sans-Serif" font-size="10.00">thorin/lam.h</text>
</a>
</g>
</g>
<!-- Node43&#45;&gt;Node44 -->
<g id="edge62" class="edge">
<title>Node43&#45;&gt;Node44</title>
<path fill="none" stroke="midnightblue" d="M727,-347.08C727,-340.01 727,-329.86 727,-320.99"/>
<polygon fill="midnightblue" stroke="midnightblue" points="730.5,-320.75 727,-310.75 723.5,-320.75 730.5,-320.75"/>
</g>
<!-- Node44&#45;&gt;Node4 -->
<g id="edge64" class="edge">
<title>Node44&#45;&gt;Node4</title>
<path fill="none" stroke="midnightblue" d="M738.41,-291.32C749.11,-283.18 765.34,-270.84 778.16,-261.09"/>
<polygon fill="midnightblue" stroke="midnightblue" points="780.54,-263.67 786.39,-254.83 776.31,-258.1 780.54,-263.67"/>
</g>
<!-- Node45 -->
<g id="node45" class="node">
<title>Node45</title>
<g id="a_node45"><a xlink:title=" ">
<polygon fill="none" stroke="#bfbfbf" points="701,-235.5 701,-254.5 747,-254.5 747,-235.5 701,-235.5"/>
<text text-anchor="middle" x="724" y="-242.5" font-family="Helvetica,sans-Serif" font-size="10.00">variant</text>
</a>
</g>
</g>
<!-- Node44&#45;&gt;Node45 -->
<g id="edge63" class="edge">
<title>Node44&#45;&gt;Node45</title>
<path fill="none" stroke="midnightblue" d="M726.5,-291.08C726.11,-284.01 725.55,-273.86 725.05,-264.99"/>
<polygon fill="midnightblue" stroke="midnightblue" points="728.54,-264.54 724.49,-254.75 721.55,-264.93 728.54,-264.54"/>
</g>
<!-- Node47&#45;&gt;Node4 -->
<g id="edge67" class="edge">
<title>Node47&#45;&gt;Node4</title>
<path fill="none" stroke="midnightblue" d="M850.88,-291.32C841.47,-283.26 827.26,-271.08 815.93,-261.37"/>
<polygon fill="midnightblue" stroke="midnightblue" points="818.18,-258.68 808.31,-254.83 813.62,-264 818.18,-258.68"/>
</g>
<!-- Node48&#45;&gt;Node4 -->
<g id="edge69" class="edge">
<title>Node48&#45;&gt;Node4</title>
<path fill="none" stroke="midnightblue" d="M929.28,-291.44C903.15,-282.4 861.74,-268.06 832.42,-257.92"/>
<polygon fill="midnightblue" stroke="midnightblue" points="833.2,-254.48 822.6,-254.52 830.91,-261.1 833.2,-254.48"/>
</g>
</g>
</svg>
