<?xml version="1.0" encoding="UTF-8" standalone="no"?>
<!DOCTYPE svg PUBLIC "-//W3C//DTD SVG 1.1//EN"
 "http://www.w3.org/Graphics/SVG/1.1/DTD/svg11.dtd">
<!-- Generated by graphviz version 2.49.3 (20211215.1918)
 -->
<!-- Title: src/thorin/analyses/deptree.h Pages: 1 -->
<svg width="232pt" height="106pt"
 viewBox="0.00 0.00 232.00 106.00" xmlns="http://www.w3.org/2000/svg" xmlns:xlink="http://www.w3.org/1999/xlink">
<g id="graph0" class="graph" transform="scale(1 1) rotate(0) translate(4 102)">
<title>src/thorin/analyses/deptree.h</title>
<!-- Node1 -->
<g id="node1" class="node">
<title>Node1</title>
<g id="a_node1"><a xlink:title=" ">
<polygon fill="#bfbfbf" stroke="black" points="60,-67.5 60,-97.5 158,-97.5 158,-67.5 60,-67.5"/>
<text text-anchor="start" x="68" y="-85.5" font-family="Helvetica,sans-Serif" font-size="10.00">src/thorin/analyses</text>
<text text-anchor="middle" x="109" y="-74.5" font-family="Helvetica,sans-Serif" font-size="10.00">/deptree.h</text>
</a>
</g>
</g>
<!-- Node2 -->
<g id="node2" class="node">
<title>Node2</title>
<g id="a_node2"><a xlink:href="deptree_8cpp.html" target="_top" xlink:title=" ">
<polygon fill="none" stroke="black" points="0,-0.5 0,-30.5 98,-30.5 98,-0.5 0,-0.5"/>
<text text-anchor="start" x="8" y="-18.5" font-family="Helvetica,sans-Serif" font-size="10.00">src/thorin/analyses</text>
<text text-anchor="middle" x="49" y="-7.5" font-family="Helvetica,sans-Serif" font-size="10.00">/deptree.cpp</text>
</a>
</g>
</g>
<!-- Node1&#45;&gt;Node2 -->
<g id="edge1" class="edge">
<title>Node1&#45;&gt;Node2</title>
<path fill="none" stroke="midnightblue" d="M89.18,-60.02C80.24,-50.34 69.93,-39.17 61.99,-30.58"/>
<polygon fill="midnightblue" stroke="midnightblue" points="86.63,-62.42 95.98,-67.4 91.77,-57.67 86.63,-62.42"/>
</g>
<!-- Node3 -->
<g id="node3" class="node">
<title>Node3</title>
<g id="a_node3"><a xlink:href="stream_8cpp.html" target="_top" xlink:title=" ">
<polygon fill="none" stroke="black" points="116,-6 116,-25 224,-25 224,-6 116,-6"/>
<text text-anchor="middle" x="170" y="-13" font-family="Helvetica,sans-Serif" font-size="10.00">src/thorin/stream.cpp</text>
</a>
</g>
</g>
<!-- Node1&#45;&gt;Node3 -->
<g id="edge2" class="edge">
<title>Node1&#45;&gt;Node3</title>
<path fill="none" stroke="midnightblue" d="M129.18,-60C140.31,-48.13 153.53,-34.05 161.84,-25.19"/>
<polygon fill="midnightblue" stroke="midnightblue" points="126.53,-57.71 122.24,-67.4 131.63,-62.5 126.53,-57.71"/>
</g>
</g>
</svg>
