<?xml version="1.0" encoding="UTF-8" standalone="no"?>
<!DOCTYPE svg PUBLIC "-//W3C//DTD SVG 1.1//EN"
 "http://www.w3.org/Graphics/SVG/1.1/DTD/svg11.dtd">
<!-- Generated by graphviz version 2.43.0 (0)
 -->
<!-- Title: dialects/mem/passes/rw/remem_elim.cpp Pages: 1 -->
<svg width="1481pt" height="786pt"
 viewBox="0.00 0.00 1481.00 786.00" xmlns="http://www.w3.org/2000/svg" xmlns:xlink="http://www.w3.org/1999/xlink">
<g id="graph0" class="graph" transform="scale(1 1) rotate(0) translate(4 782)">
<title>dialects/mem/passes/rw/remem_elim.cpp</title>
<!-- Node1 -->
<g id="node1" class="node">
<title>Node1</title>
<g id="a_node1"><a xlink:title=" ">
<polygon fill="#999999" stroke="#666666" points="656,-778 536,-778 536,-748 656,-748 656,-778"/>
<text text-anchor="start" x="544" y="-766" font-family="Helvetica,sans-Serif" font-size="10.00">dialects/mem/passes</text>
<text text-anchor="middle" x="596" y="-755" font-family="Helvetica,sans-Serif" font-size="10.00">/rw/remem_elim.cpp</text>
</a>
</g>
</g>
<!-- Node2 -->
<g id="node2" class="node">
<title>Node2</title>
<g id="a_node2"><a xlink:href="remem__elim_8h.html" target="_top" xlink:title=" ">
<polygon fill="white" stroke="#666666" points="430,-657 310,-657 310,-627 430,-627 430,-657"/>
<text text-anchor="start" x="318" y="-645" font-family="Helvetica,sans-Serif" font-size="10.00">dialects/mem/passes</text>
<text text-anchor="middle" x="370" y="-634" font-family="Helvetica,sans-Serif" font-size="10.00">/rw/remem_elim.h</text>
</a>
</g>
</g>
<!-- Node1&#45;&gt;Node2 -->
<g id="edge1" class="edge">
<title>Node1&#45;&gt;Node2</title>
<path fill="none" stroke="#63b8ff" d="M569.19,-747.88C528.5,-726.46 451.09,-685.7 405.68,-661.79"/>
<polygon fill="#63b8ff" stroke="#63b8ff" points="407.26,-658.66 396.78,-657.1 404,-664.86 407.26,-658.66"/>
</g>
<!-- Node53 -->
<g id="node42" class="node">
<title>Node53</title>
<g id="a_node42"><a xlink:href="mem_8h.html" target="_top" xlink:title=" ">
<polygon fill="white" stroke="#666666" points="719.5,-712 598.5,-712 598.5,-693 719.5,-693 719.5,-712"/>
<text text-anchor="middle" x="659" y="-700" font-family="Helvetica,sans-Serif" font-size="10.00">dialects/mem/mem.h</text>
</a>
</g>
</g>
<!-- Node1&#45;&gt;Node53 -->
<g id="edge64" class="edge">
<title>Node1&#45;&gt;Node53</title>
<path fill="none" stroke="#63b8ff" d="M611.25,-747.84C620.58,-739.17 632.53,-728.08 642.15,-719.15"/>
<polygon fill="#63b8ff" stroke="#63b8ff" points="644.61,-721.64 649.56,-712.27 639.85,-716.51 644.61,-721.64"/>
</g>
<!-- Node3 -->
<g id="node3" class="node">
<title>Node3</title>
<g id="a_node3"><a xlink:href="pass_8h.html" target="_top" xlink:title=" ">
<polygon fill="white" stroke="#666666" points="372.5,-426 267.5,-426 267.5,-407 372.5,-407 372.5,-426"/>
<text text-anchor="middle" x="320" y="-414" font-family="Helvetica,sans-Serif" font-size="10.00">thorin/pass/pass.h</text>
</a>
</g>
</g>
<!-- Node2&#45;&gt;Node3 -->
<g id="edge2" class="edge">
<title>Node2&#45;&gt;Node3</title>
<path fill="none" stroke="#63b8ff" d="M366.8,-626.68C358.07,-587.68 333.89,-479.61 324.15,-436.05"/>
<polygon fill="#63b8ff" stroke="#63b8ff" points="327.55,-435.23 321.95,-426.23 320.72,-436.75 327.55,-435.23"/>
</g>
<!-- Node4 -->
<g id="node4" class="node">
<title>Node4</title>
<g id="a_node4"><a xlink:title=" ">
<polygon fill="#e0e0e0" stroke="#999999" points="832.5,-79.5 789.5,-79.5 789.5,-60.5 832.5,-60.5 832.5,-79.5"/>
<text text-anchor="middle" x="811" y="-67.5" font-family="Helvetica,sans-Serif" font-size="10.00">stack</text>
</a>
</g>
</g>
<!-- Node3&#45;&gt;Node4 -->
<g id="edge3" class="edge">
<title>Node3&#45;&gt;Node4</title>
<path fill="none" stroke="#63b8ff" d="M314.16,-406.76C308.75,-398.1 301.1,-384.26 298,-371 296.08,-362.78 296.57,-360.32 298,-352 318.72,-231.84 336.91,-175.47 446,-121 568.12,-60.03 616.55,-108.54 751,-85 760.34,-83.36 770.4,-81.18 779.57,-79.03"/>
<polygon fill="#63b8ff" stroke="#63b8ff" points="780.56,-82.39 789.46,-76.64 778.92,-75.59 780.56,-82.39"/>
</g>
<!-- Node5 -->
<g id="node5" class="node">
<title>Node5</title>
<g id="a_node5"><a xlink:title=" ">
<polygon fill="#e0e0e0" stroke="#999999" points="372.5,-371 307.5,-371 307.5,-352 372.5,-352 372.5,-371"/>
<text text-anchor="middle" x="340" y="-359" font-family="Helvetica,sans-Serif" font-size="10.00">typeindex</text>
</a>
</g>
</g>
<!-- Node3&#45;&gt;Node5 -->
<g id="edge4" class="edge">
<title>Node3&#45;&gt;Node5</title>
<path fill="none" stroke="#63b8ff" d="M323.3,-406.75C325.98,-399.65 329.85,-389.4 333.19,-380.56"/>
<polygon fill="#63b8ff" stroke="#63b8ff" points="336.5,-381.68 336.76,-371.09 329.95,-379.21 336.5,-381.68"/>
</g>
<!-- Node6 -->
<g id="node6" class="node">
<title>Node6</title>
<g id="a_node6"><a xlink:href="world_8h.html" target="_top" xlink:title=" ">
<polygon fill="white" stroke="#666666" points="937,-371 853,-371 853,-352 937,-352 937,-371"/>
<text text-anchor="middle" x="895" y="-359" font-family="Helvetica,sans-Serif" font-size="10.00">thorin/world.h</text>
</a>
</g>
</g>
<!-- Node3&#45;&gt;Node6 -->
<g id="edge5" class="edge">
<title>Node3&#45;&gt;Node6</title>
<path fill="none" stroke="#63b8ff" d="M372.55,-410.66C482,-400.57 733.26,-377.41 842.58,-367.33"/>
<polygon fill="#63b8ff" stroke="#63b8ff" points="843.07,-370.8 852.71,-366.4 842.43,-363.83 843.07,-370.8"/>
</g>
<!-- Node7 -->
<g id="node7" class="node">
<title>Node7</title>
<g id="a_node7"><a xlink:title=" ">
<polygon fill="#e0e0e0" stroke="#999999" points="1473,-79.5 1417,-79.5 1417,-60.5 1473,-60.5 1473,-79.5"/>
<text text-anchor="middle" x="1445" y="-67.5" font-family="Helvetica,sans-Serif" font-size="10.00">sstream</text>
</a>
</g>
</g>
<!-- Node6&#45;&gt;Node7 -->
<g id="edge6" class="edge">
<title>Node6&#45;&gt;Node7</title>
<path fill="none" stroke="#63b8ff" d="M937.04,-360.57C1032.08,-360.03 1260.22,-354.63 1325,-316 1406.31,-267.51 1417.09,-230.47 1445,-140 1450.07,-123.56 1449.45,-103.85 1447.93,-89.71"/>
<polygon fill="#63b8ff" stroke="#63b8ff" points="1451.39,-89.19 1446.61,-79.74 1444.45,-90.11 1451.39,-89.19"/>
</g>
<!-- Node8 -->
<g id="node8" class="node">
<title>Node8</title>
<g id="a_node8"><a xlink:title=" ">
<polygon fill="#e0e0e0" stroke="#999999" points="909,-79.5 865,-79.5 865,-60.5 909,-60.5 909,-79.5"/>
<text text-anchor="middle" x="887" y="-67.5" font-family="Helvetica,sans-Serif" font-size="10.00">string</text>
</a>
</g>
</g>
<!-- Node6&#45;&gt;Node8 -->
<g id="edge7" class="edge">
<title>Node6&#45;&gt;Node8</title>
<path fill="none" stroke="#63b8ff" d="M937.02,-360.59C1010.57,-359.76 1157.86,-353.35 1190,-316 1198.7,-305.89 1196.6,-297.59 1190,-286 1127.09,-175.51 1040.58,-222.68 944,-140 926.01,-124.6 909.25,-103.09 898.62,-88.2"/>
<polygon fill="#63b8ff" stroke="#63b8ff" points="901.42,-86.1 892.84,-79.89 895.68,-90.1 901.42,-86.1"/>
</g>
<!-- Node9 -->
<g id="node9" class="node">
<title>Node9</title>
<g id="a_node9"><a xlink:title=" ">
<polygon fill="#e0e0e0" stroke="#999999" points="714.5,-310.5 641.5,-310.5 641.5,-291.5 714.5,-291.5 714.5,-310.5"/>
<text text-anchor="middle" x="678" y="-298.5" font-family="Helvetica,sans-Serif" font-size="10.00">string_view</text>
</a>
</g>
</g>
<!-- Node6&#45;&gt;Node9 -->
<g id="edge8" class="edge">
<title>Node6&#45;&gt;Node9</title>
<path fill="none" stroke="#63b8ff" d="M860.5,-351.96C825.88,-343.29 771.09,-329.29 724,-316 721.21,-315.21 718.34,-314.38 715.45,-313.54"/>
<polygon fill="#63b8ff" stroke="#63b8ff" points="716.26,-310.13 705.68,-310.62 714.26,-316.83 716.26,-310.13"/>
</g>
<!-- Node10 -->
<g id="node10" class="node">
<title>Node10</title>
<g id="a_node10"><a xlink:title=" ">
<polygon fill="#e0e0e0" stroke="#999999" points="847,-316 733,-316 733,-286 847,-286 847,-316"/>
<text text-anchor="start" x="741" y="-304" font-family="Helvetica,sans-Serif" font-size="10.00">absl/container/btree</text>
<text text-anchor="middle" x="790" y="-293" font-family="Helvetica,sans-Serif" font-size="10.00">_map.h</text>
</a>
</g>
</g>
<!-- Node6&#45;&gt;Node10 -->
<g id="edge9" class="edge">
<title>Node6&#45;&gt;Node10</title>
<path fill="none" stroke="#63b8ff" d="M879.51,-351.87C865,-343.78 842.81,-331.42 824.16,-321.03"/>
<polygon fill="#63b8ff" stroke="#63b8ff" points="825.77,-317.92 815.33,-316.11 822.37,-324.04 825.77,-317.92"/>
</g>
<!-- Node11 -->
<g id="node11" class="node">
<title>Node11</title>
<g id="a_node11"><a xlink:title=" ">
<polygon fill="#e0e0e0" stroke="#999999" points="979,-316 865,-316 865,-286 979,-286 979,-316"/>
<text text-anchor="start" x="873" y="-304" font-family="Helvetica,sans-Serif" font-size="10.00">absl/container/btree</text>
<text text-anchor="middle" x="922" y="-293" font-family="Helvetica,sans-Serif" font-size="10.00">_set.h</text>
</a>
</g>
</g>
<!-- Node6&#45;&gt;Node11 -->
<g id="edge10" class="edge">
<title>Node6&#45;&gt;Node11</title>
<path fill="none" stroke="#63b8ff" d="M898.98,-351.87C902.21,-344.89 906.9,-334.71 911.21,-325.38"/>
<polygon fill="#63b8ff" stroke="#63b8ff" points="914.47,-326.66 915.49,-316.11 908.12,-323.73 914.47,-326.66"/>
</g>
<!-- Node12 -->
<g id="node12" class="node">
<title>Node12</title>
<g id="a_node12"><a xlink:href="axiom_8h.html" target="_top" xlink:title=" ">
<polygon fill="white" stroke="#666666" points="471,-310.5 383,-310.5 383,-291.5 471,-291.5 471,-310.5"/>
<text text-anchor="middle" x="427" y="-298.5" font-family="Helvetica,sans-Serif" font-size="10.00">thorin/axiom.h</text>
</a>
</g>
</g>
<!-- Node6&#45;&gt;Node12 -->
<g id="edge11" class="edge">
<title>Node6&#45;&gt;Node12</title>
<path fill="none" stroke="#63b8ff" d="M852.84,-355.81C783.82,-348.06 642.45,-331.85 523,-316 509.56,-314.22 495.08,-312.17 481.55,-310.2"/>
<polygon fill="#63b8ff" stroke="#63b8ff" points="481.82,-306.71 471.42,-308.72 480.8,-313.63 481.82,-306.71"/>
</g>
<!-- Node18 -->
<g id="node18" class="node">
<title>Node18</title>
<g id="a_node18"><a xlink:href="debug_8h.html" target="_top" xlink:title=" ">
<polygon fill="white" stroke="#666666" points="1218.5,-140 1131.5,-140 1131.5,-121 1218.5,-121 1218.5,-140"/>
<text text-anchor="middle" x="1175" y="-128" font-family="Helvetica,sans-Serif" font-size="10.00">thorin/debug.h</text>
</a>
</g>
</g>
<!-- Node6&#45;&gt;Node18 -->
<g id="edge48" class="edge">
<title>Node6&#45;&gt;Node18</title>
<path fill="none" stroke="#63b8ff" d="M937.25,-361.32C1017.31,-361.88 1186.38,-357.93 1223,-316 1244.98,-290.84 1202.44,-190.61 1183.47,-149.37"/>
<polygon fill="#63b8ff" stroke="#63b8ff" points="1186.61,-147.82 1179.21,-140.24 1180.27,-150.78 1186.61,-147.82"/>
</g>
<!-- Node36 -->
<g id="node31" class="node">
<title>Node36</title>
<g id="a_node31"><a xlink:href="hash_8h.html" target="_top" xlink:title=" ">
<polygon fill="white" stroke="#666666" points="1172.5,-79.5 1073.5,-79.5 1073.5,-60.5 1172.5,-60.5 1172.5,-79.5"/>
<text text-anchor="middle" x="1123" y="-67.5" font-family="Helvetica,sans-Serif" font-size="10.00">thorin/util/hash.h</text>
</a>
</g>
</g>
<!-- Node6&#45;&gt;Node36 -->
<g id="edge60" class="edge">
<title>Node6&#45;&gt;Node36</title>
<path fill="none" stroke="#63b8ff" d="M937.06,-358.14C1024.67,-352.79 1220.26,-338.45 1240,-316 1254.56,-299.44 1299.8,-226.07 1228,-121 1215.12,-102.15 1193.13,-90.19 1172.59,-82.72"/>
<polygon fill="#63b8ff" stroke="#63b8ff" points="1173.57,-79.36 1162.98,-79.5 1171.35,-86 1173.57,-79.36"/>
</g>
<!-- Node46 -->
<g id="node35" class="node">
<title>Node46</title>
<g id="a_node35"><a xlink:title=" ">
<polygon fill="#e0e0e0" stroke="#999999" points="1083,-310.5 997,-310.5 997,-291.5 1083,-291.5 1083,-310.5"/>
<text text-anchor="middle" x="1040" y="-298.5" font-family="Helvetica,sans-Serif" font-size="10.00">thorin/config.h</text>
</a>
</g>
</g>
<!-- Node6&#45;&gt;Node46 -->
<g id="edge47" class="edge">
<title>Node6&#45;&gt;Node46</title>
<path fill="none" stroke="#63b8ff" d="M916.08,-351.99C940.68,-342.07 981.53,-325.59 1009.56,-314.28"/>
<polygon fill="#63b8ff" stroke="#63b8ff" points="1010.93,-317.5 1018.89,-310.52 1008.31,-311.01 1010.93,-317.5"/>
</g>
<!-- Node47 -->
<g id="node36" class="node">
<title>Node47</title>
<g id="a_node36"><a xlink:href="error_8h.html" target="_top" xlink:title=" ">
<polygon fill="white" stroke="#666666" points="1393,-195 1313,-195 1313,-176 1393,-176 1393,-195"/>
<text text-anchor="middle" x="1353" y="-183" font-family="Helvetica,sans-Serif" font-size="10.00">thorin/error.h</text>
</a>
</g>
</g>
<!-- Node6&#45;&gt;Node47 -->
<g id="edge49" class="edge">
<title>Node6&#45;&gt;Node47</title>
<path fill="none" stroke="#63b8ff" d="M937.12,-361.12C1028.78,-361.65 1242.66,-358.19 1299,-316 1334.8,-289.19 1347.03,-234.21 1351.08,-205.27"/>
<polygon fill="#63b8ff" stroke="#63b8ff" points="1354.56,-205.6 1352.29,-195.25 1347.61,-204.75 1354.56,-205.6"/>
</g>
<!-- Node49 -->
<g id="node38" class="node">
<title>Node49</title>
<g id="a_node38"><a xlink:href="flags_8h.html" target="_top" xlink:title=" ">
<polygon fill="white" stroke="#666666" points="1181,-310.5 1101,-310.5 1101,-291.5 1181,-291.5 1181,-310.5"/>
<text text-anchor="middle" x="1141" y="-298.5" font-family="Helvetica,sans-Serif" font-size="10.00">thorin/flags.h</text>
</a>
</g>
</g>
<!-- Node6&#45;&gt;Node49 -->
<g id="edge55" class="edge">
<title>Node6&#45;&gt;Node49</title>
<path fill="none" stroke="#63b8ff" d="M935.91,-351.96C975.86,-343.45 1038.33,-329.72 1092,-316 1095.36,-315.14 1098.84,-314.22 1102.32,-313.27"/>
<polygon fill="#63b8ff" stroke="#63b8ff" points="1103.36,-316.61 1112.05,-310.56 1101.48,-309.87 1103.36,-316.61"/>
</g>
<!-- Node50 -->
<g id="node39" class="node">
<title>Node50</title>
<g id="a_node39"><a xlink:href="lattice_8h.html" target="_top" xlink:title=" ">
<polygon fill="white" stroke="#666666" points="703,-250 615,-250 615,-231 703,-231 703,-250"/>
<text text-anchor="middle" x="659" y="-238" font-family="Helvetica,sans-Serif" font-size="10.00">thorin/lattice.h</text>
</a>
</g>
</g>
<!-- Node6&#45;&gt;Node50 -->
<g id="edge56" class="edge">
<title>Node6&#45;&gt;Node50</title>
<path fill="none" stroke="#63b8ff" d="M852.77,-355.61C772.97,-346.18 607.22,-325.55 599,-316 590.3,-305.9 593.01,-297.91 599,-286 605.69,-272.71 618.44,-262.39 630.47,-255.05"/>
<polygon fill="#63b8ff" stroke="#63b8ff" points="632.42,-257.97 639.42,-250.02 628.99,-251.87 632.42,-257.97"/>
</g>
<!-- Node51 -->
<g id="node40" class="node">
<title>Node51</title>
<g id="a_node40"><a xlink:href="tuple_8h.html" target="_top" xlink:title=" ">
<polygon fill="white" stroke="#666666" points="597,-250 515,-250 515,-231 597,-231 597,-250"/>
<text text-anchor="middle" x="556" y="-238" font-family="Helvetica,sans-Serif" font-size="10.00">thorin/tuple.h</text>
</a>
</g>
</g>
<!-- Node6&#45;&gt;Node51 -->
<g id="edge58" class="edge">
<title>Node6&#45;&gt;Node51</title>
<path fill="none" stroke="#63b8ff" d="M852.77,-355.42C771.5,-345.49 600.42,-323.82 590,-316 572.09,-302.56 563.35,-277.46 559.27,-260.13"/>
<polygon fill="#63b8ff" stroke="#63b8ff" points="562.65,-259.17 557.22,-250.07 555.79,-260.57 562.65,-259.17"/>
</g>
<!-- Node52 -->
<g id="node41" class="node">
<title>Node52</title>
<g id="a_node41"><a xlink:href="log_8h.html" target="_top" xlink:title=" ">
<polygon fill="white" stroke="#666666" points="835.5,-195 744.5,-195 744.5,-176 835.5,-176 835.5,-195"/>
<text text-anchor="middle" x="790" y="-183" font-family="Helvetica,sans-Serif" font-size="10.00">thorin/util/log.h</text>
</a>
</g>
</g>
<!-- Node6&#45;&gt;Node52 -->
<g id="edge61" class="edge">
<title>Node6&#45;&gt;Node52</title>
<path fill="none" stroke="#63b8ff" d="M852.99,-354.83C780.53,-344.84 639.1,-324.4 632,-316 623.39,-305.82 624.76,-297.2 632,-286 653.17,-253.26 678.82,-270.48 712,-250 734.82,-235.91 758.33,-215.88 773.49,-202.1"/>
<polygon fill="#63b8ff" stroke="#63b8ff" points="776.02,-204.52 780.99,-195.17 771.27,-199.38 776.02,-204.52"/>
</g>
<!-- Node13 -->
<g id="node13" class="node">
<title>Node13</title>
<g id="a_node13"><a xlink:href="lam_8h.html" target="_top" xlink:title=" ">
<polygon fill="white" stroke="#666666" points="497,-250 421,-250 421,-231 497,-231 497,-250"/>
<text text-anchor="middle" x="459" y="-238" font-family="Helvetica,sans-Serif" font-size="10.00">thorin/lam.h</text>
</a>
</g>
</g>
<!-- Node12&#45;&gt;Node13 -->
<g id="edge12" class="edge">
<title>Node12&#45;&gt;Node13</title>
<path fill="none" stroke="#63b8ff" d="M431.72,-291.37C436.35,-282.9 443.55,-269.74 449.39,-259.07"/>
<polygon fill="#63b8ff" stroke="#63b8ff" points="452.53,-260.62 454.26,-250.17 446.39,-257.26 452.53,-260.62"/>
</g>
<!-- Node45 -->
<g id="node34" class="node">
<title>Node45</title>
<g id="a_node34"><a xlink:href="assert_8h.html" target="_top" xlink:title=" ">
<polygon fill="white" stroke="#666666" points="742,-79.5 636,-79.5 636,-60.5 742,-60.5 742,-79.5"/>
<text text-anchor="middle" x="689" y="-67.5" font-family="Helvetica,sans-Serif" font-size="10.00">thorin/util/assert.h</text>
</a>
</g>
</g>
<!-- Node12&#45;&gt;Node45 -->
<g id="edge46" class="edge">
<title>Node12&#45;&gt;Node45</title>
<path fill="none" stroke="#63b8ff" d="M421.57,-291.09C414.07,-277.54 402.46,-251.17 412,-231 453.89,-142.42 569.62,-99.94 637.51,-82.09"/>
<polygon fill="#63b8ff" stroke="#63b8ff" points="638.74,-85.39 647.57,-79.53 637.01,-78.6 638.74,-85.39"/>
</g>
<!-- Node14 -->
<g id="node14" class="node">
<title>Node14</title>
<g id="a_node14"><a xlink:title=" ">
<polygon fill="#e0e0e0" stroke="#999999" points="539.5,-195 488.5,-195 488.5,-176 539.5,-176 539.5,-195"/>
<text text-anchor="middle" x="514" y="-183" font-family="Helvetica,sans-Serif" font-size="10.00">variant</text>
</a>
</g>
</g>
<!-- Node13&#45;&gt;Node14 -->
<g id="edge13" class="edge">
<title>Node13&#45;&gt;Node14</title>
<path fill="none" stroke="#63b8ff" d="M468.08,-230.75C476.09,-223.03 487.96,-211.6 497.62,-202.28"/>
<polygon fill="#63b8ff" stroke="#63b8ff" points="500.31,-204.55 505.09,-195.09 495.46,-199.51 500.31,-204.55"/>
</g>
<!-- Node15 -->
<g id="node15" class="node">
<title>Node15</title>
<g id="a_node15"><a xlink:href="def_8h.html" target="_top" xlink:title=" ">
<polygon fill="white" stroke="#666666" points="658,-195 586,-195 586,-176 658,-176 658,-195"/>
<text text-anchor="middle" x="622" y="-183" font-family="Helvetica,sans-Serif" font-size="10.00">thorin/def.h</text>
</a>
</g>
</g>
<!-- Node13&#45;&gt;Node15 -->
<g id="edge14" class="edge">
<title>Node13&#45;&gt;Node15</title>
<path fill="none" stroke="#63b8ff" d="M485.19,-230.98C512.44,-222.13 555.3,-208.19 585.78,-198.28"/>
<polygon fill="#63b8ff" stroke="#63b8ff" points="587.18,-201.5 595.61,-195.08 585.01,-194.85 587.18,-201.5"/>
</g>
<!-- Node16 -->
<g id="node16" class="node">
<title>Node16</title>
<g id="a_node16"><a xlink:title=" ">
<polygon fill="#e0e0e0" stroke="#999999" points="650,-140 594,-140 594,-121 650,-121 650,-140"/>
<text text-anchor="middle" x="622" y="-128" font-family="Helvetica,sans-Serif" font-size="10.00">optional</text>
</a>
</g>
</g>
<!-- Node15&#45;&gt;Node16 -->
<g id="edge15" class="edge">
<title>Node15&#45;&gt;Node16</title>
<path fill="none" stroke="#63b8ff" d="M622,-175.75C622,-168.8 622,-158.85 622,-150.13"/>
<polygon fill="#63b8ff" stroke="#63b8ff" points="625.5,-150.09 622,-140.09 618.5,-150.09 625.5,-150.09"/>
</g>
<!-- Node17 -->
<g id="node17" class="node">
<title>Node17</title>
<g id="a_node17"><a xlink:title=" ">
<polygon fill="#e0e0e0" stroke="#999999" points="62.5,-79.5 15.5,-79.5 15.5,-60.5 62.5,-60.5 62.5,-79.5"/>
<text text-anchor="middle" x="39" y="-67.5" font-family="Helvetica,sans-Serif" font-size="10.00">vector</text>
</a>
</g>
</g>
<!-- Node15&#45;&gt;Node17 -->
<g id="edge16" class="edge">
<title>Node15&#45;&gt;Node17</title>
<path fill="none" stroke="#63b8ff" d="M585.89,-180.1C573.85,-178.7 560.36,-177.2 548,-176 447.49,-166.24 184.38,-187 95,-140 73.52,-128.7 57.29,-105.23 47.97,-88.81"/>
<polygon fill="#63b8ff" stroke="#63b8ff" points="50.88,-86.84 43.07,-79.67 44.71,-90.14 50.88,-86.84"/>
</g>
<!-- Node15&#45;&gt;Node18 -->
<g id="edge17" class="edge">
<title>Node15&#45;&gt;Node18</title>
<path fill="none" stroke="#63b8ff" d="M658.28,-181.5C756.8,-173.32 1027.88,-150.53 1117,-140 1118.45,-139.83 1119.93,-139.65 1121.41,-139.46"/>
<polygon fill="#63b8ff" stroke="#63b8ff" points="1121.87,-142.93 1131.33,-138.17 1120.96,-135.99 1121.87,-142.93"/>
</g>
<!-- Node21 -->
<g id="node21" class="node">
<title>Node21</title>
<g id="a_node21"><a xlink:href="array_8h.html" target="_top" xlink:title=" ">
<polygon fill="#fff0f0" stroke="red" points="318,-140 218,-140 218,-121 318,-121 318,-140"/>
<text text-anchor="middle" x="268" y="-128" font-family="Helvetica,sans-Serif" font-size="10.00">thorin/util/array.h</text>
</a>
</g>
</g>
<!-- Node15&#45;&gt;Node21 -->
<g id="edge21" class="edge">
<title>Node15&#45;&gt;Node21</title>
<path fill="none" stroke="#63b8ff" d="M585.78,-179.08C525.02,-169.98 401.99,-151.56 328.11,-140.5"/>
<polygon fill="#63b8ff" stroke="#63b8ff" points="328.43,-137.01 318.02,-138.99 327.39,-143.93 328.43,-137.01"/>
</g>
<!-- Node31 -->
<g id="node29" class="node">
<title>Node31</title>
<g id="a_node29"><a xlink:href="cast_8h.html" target="_top" xlink:title=" ">
<polygon fill="white" stroke="#666666" points="200,-140 104,-140 104,-121 200,-121 200,-140"/>
<text text-anchor="middle" x="152" y="-128" font-family="Helvetica,sans-Serif" font-size="10.00">thorin/util/cast.h</text>
</a>
</g>
</g>
<!-- Node15&#45;&gt;Node31 -->
<g id="edge30" class="edge">
<title>Node15&#45;&gt;Node31</title>
<path fill="none" stroke="#63b8ff" d="M585.87,-180.29C573.83,-178.9 560.34,-177.36 548,-176 400.64,-159.71 360.98,-159.19 210.27,-140.12"/>
<polygon fill="#63b8ff" stroke="#63b8ff" points="210.54,-136.62 200.18,-138.83 209.66,-143.57 210.54,-136.62"/>
</g>
<!-- Node32 -->
<g id="node30" class="node">
<title>Node32</title>
<g id="a_node30"><a xlink:href="container_8h.html" target="_top" xlink:title=" ">
<polygon fill="#fff0f0" stroke="red" points="1074.5,-140 953.5,-140 953.5,-121 1074.5,-121 1074.5,-140"/>
<text text-anchor="middle" x="1014" y="-128" font-family="Helvetica,sans-Serif" font-size="10.00">thorin/util/container.h</text>
</a>
</g>
</g>
<!-- Node15&#45;&gt;Node32 -->
<g id="edge33" class="edge">
<title>Node15&#45;&gt;Node32</title>
<path fill="none" stroke="#63b8ff" d="M658.18,-179.61C722.92,-170.85 859.67,-152.37 943.52,-141.03"/>
<polygon fill="#63b8ff" stroke="#63b8ff" points="944.03,-144.49 953.48,-139.68 943.1,-137.55 944.03,-144.49"/>
</g>
<!-- Node15&#45;&gt;Node36 -->
<g id="edge39" class="edge">
<title>Node15&#45;&gt;Node36</title>
<path fill="none" stroke="#63b8ff" d="M658.14,-181.45C765.23,-172.37 1074.06,-145.74 1083,-140 1100.99,-128.45 1111.83,-105.74 1117.6,-89.53"/>
<polygon fill="#63b8ff" stroke="#63b8ff" points="1121.07,-90.15 1120.81,-79.56 1114.41,-88 1121.07,-90.15"/>
</g>
<!-- Node43 -->
<g id="node33" class="node">
<title>Node43</title>
<g id="a_node33"><a xlink:href="print_8h.html" target="_top" xlink:title=" ">
<polygon fill="#fff0f0" stroke="red" points="839,-140 741,-140 741,-121 839,-121 839,-140"/>
<text text-anchor="middle" x="790" y="-128" font-family="Helvetica,sans-Serif" font-size="10.00">thorin/util/print.h</text>
</a>
</g>
</g>
<!-- Node15&#45;&gt;Node43 -->
<g id="edge40" class="edge">
<title>Node15&#45;&gt;Node43</title>
<path fill="none" stroke="#63b8ff" d="M648.99,-175.98C677.2,-167.09 721.64,-153.07 753.08,-143.15"/>
<polygon fill="#63b8ff" stroke="#63b8ff" points="754.31,-146.43 762.8,-140.08 752.21,-139.75 754.31,-146.43"/>
</g>
<!-- Node18&#45;&gt;Node8 -->
<g id="edge18" class="edge">
<title>Node18&#45;&gt;Node8</title>
<path fill="none" stroke="#63b8ff" d="M1131.47,-122C1084.54,-113.72 1007.73,-99.63 942,-85 934.53,-83.34 926.53,-81.39 919,-79.49"/>
<polygon fill="#63b8ff" stroke="#63b8ff" points="919.69,-76.06 909.14,-76.96 917.95,-82.84 919.69,-76.06"/>
</g>
<!-- Node19 -->
<g id="node19" class="node">
<title>Node19</title>
<g id="a_node19"><a xlink:title=" ">
<polygon fill="#e0e0e0" stroke="#999999" points="1295,-85 1191,-85 1191,-55 1295,-55 1295,-85"/>
<text text-anchor="start" x="1199" y="-73" font-family="Helvetica,sans-Serif" font-size="10.00">absl/container/flat</text>
<text text-anchor="middle" x="1243" y="-62" font-family="Helvetica,sans-Serif" font-size="10.00">_hash_map.h</text>
</a>
</g>
</g>
<!-- Node18&#45;&gt;Node19 -->
<g id="edge19" class="edge">
<title>Node18&#45;&gt;Node19</title>
<path fill="none" stroke="#63b8ff" d="M1185.03,-120.87C1193.92,-113.22 1207.25,-101.76 1218.88,-91.75"/>
<polygon fill="#63b8ff" stroke="#63b8ff" points="1221.3,-94.29 1226.59,-85.11 1216.73,-88.98 1221.3,-94.29"/>
</g>
<!-- Node20 -->
<g id="node20" class="node">
<title>Node20</title>
<g id="a_node20"><a xlink:title=" ">
<polygon fill="#e0e0e0" stroke="#999999" points="1055,-85 951,-85 951,-55 1055,-55 1055,-85"/>
<text text-anchor="start" x="959" y="-73" font-family="Helvetica,sans-Serif" font-size="10.00">absl/container/flat</text>
<text text-anchor="middle" x="1003" y="-62" font-family="Helvetica,sans-Serif" font-size="10.00">_hash_set.h</text>
</a>
</g>
</g>
<!-- Node18&#45;&gt;Node20 -->
<g id="edge20" class="edge">
<title>Node18&#45;&gt;Node20</title>
<path fill="none" stroke="#63b8ff" d="M1149.99,-120.99C1124.91,-112.46 1085.58,-99.09 1053.91,-88.32"/>
<polygon fill="#63b8ff" stroke="#63b8ff" points="1054.95,-84.97 1044.35,-85.06 1052.69,-91.6 1054.95,-84.97"/>
</g>
<!-- Node21&#45;&gt;Node17 -->
<g id="edge29" class="edge">
<title>Node21&#45;&gt;Node17</title>
<path fill="none" stroke="#63b8ff" d="M234.7,-120.99C191.29,-109.9 115.8,-90.62 72.36,-79.52"/>
<polygon fill="#63b8ff" stroke="#63b8ff" points="73.12,-76.1 62.56,-77.02 71.39,-82.89 73.12,-76.1"/>
</g>
<!-- Node22 -->
<g id="node22" class="node">
<title>Node22</title>
<g id="a_node22"><a xlink:title=" ">
<polygon fill="#e0e0e0" stroke="#999999" points="224,-19 172,-19 172,0 224,0 224,-19"/>
<text text-anchor="middle" x="198" y="-7" font-family="Helvetica,sans-Serif" font-size="10.00">cassert</text>
</a>
</g>
</g>
<!-- Node21&#45;&gt;Node22 -->
<g id="edge22" class="edge">
<title>Node21&#45;&gt;Node22</title>
<path fill="none" stroke="#63b8ff" d="M254.22,-120.97C242.58,-113.05 226.36,-100.21 217,-85 206.53,-67.98 201.81,-45.4 199.69,-29.57"/>
<polygon fill="#63b8ff" stroke="#63b8ff" points="203.15,-28.97 198.57,-19.42 196.19,-29.75 203.15,-28.97"/>
</g>
<!-- Node23 -->
<g id="node23" class="node">
<title>Node23</title>
<g id="a_node23"><a xlink:title=" ">
<polygon fill="#e0e0e0" stroke="#999999" points="451.5,-79.5 398.5,-79.5 398.5,-60.5 451.5,-60.5 451.5,-79.5"/>
<text text-anchor="middle" x="425" y="-67.5" font-family="Helvetica,sans-Serif" font-size="10.00">cstddef</text>
</a>
</g>
</g>
<!-- Node21&#45;&gt;Node23 -->
<g id="edge23" class="edge">
<title>Node21&#45;&gt;Node23</title>
<path fill="none" stroke="#63b8ff" d="M291.7,-120.93C316.13,-112.06 355.3,-97.75 389,-85 390.6,-84.4 392.23,-83.77 393.88,-83.14"/>
<polygon fill="#63b8ff" stroke="#63b8ff" points="395.25,-86.37 403.32,-79.5 392.73,-79.83 395.25,-86.37"/>
</g>
<!-- Node24 -->
<g id="node24" class="node">
<title>Node24</title>
<g id="a_node24"><a xlink:title=" ">
<polygon fill="#e0e0e0" stroke="#999999" points="170,-79.5 120,-79.5 120,-60.5 170,-60.5 170,-79.5"/>
<text text-anchor="middle" x="145" y="-67.5" font-family="Helvetica,sans-Serif" font-size="10.00">cstring</text>
</a>
</g>
</g>
<!-- Node21&#45;&gt;Node24 -->
<g id="edge24" class="edge">
<title>Node21&#45;&gt;Node24</title>
<path fill="none" stroke="#63b8ff" d="M250.11,-120.99C229.62,-111.25 195.81,-95.16 172.08,-83.88"/>
<polygon fill="#63b8ff" stroke="#63b8ff" points="173.44,-80.65 162.91,-79.52 170.43,-86.97 173.44,-80.65"/>
</g>
<!-- Node25 -->
<g id="node25" class="node">
<title>Node25</title>
<g id="a_node25"><a xlink:title=" ">
<polygon fill="#e0e0e0" stroke="#999999" points="534,-79.5 470,-79.5 470,-60.5 534,-60.5 534,-79.5"/>
<text text-anchor="middle" x="502" y="-67.5" font-family="Helvetica,sans-Serif" font-size="10.00">algorithm</text>
</a>
</g>
</g>
<!-- Node21&#45;&gt;Node25 -->
<g id="edge25" class="edge">
<title>Node21&#45;&gt;Node25</title>
<path fill="none" stroke="#63b8ff" d="M309.86,-120.98C348.95,-112.75 408.79,-99.44 460,-85 462.61,-84.26 465.31,-83.46 468.01,-82.63"/>
<polygon fill="#63b8ff" stroke="#63b8ff" points="469.23,-85.91 477.69,-79.53 467.1,-79.25 469.23,-85.91"/>
</g>
<!-- Node26 -->
<g id="node26" class="node">
<title>Node26</title>
<g id="a_node26"><a xlink:title=" ">
<polygon fill="#e0e0e0" stroke="#999999" points="617.5,-79.5 552.5,-79.5 552.5,-60.5 617.5,-60.5 617.5,-79.5"/>
<text text-anchor="middle" x="585" y="-67.5" font-family="Helvetica,sans-Serif" font-size="10.00">functional</text>
</a>
</g>
</g>
<!-- Node21&#45;&gt;Node26 -->
<g id="edge26" class="edge">
<title>Node21&#45;&gt;Node26</title>
<path fill="none" stroke="#63b8ff" d="M318.24,-122.36C385.56,-112.63 501.38,-95.23 543,-85 545.96,-84.27 549.02,-83.43 552.07,-82.53"/>
<polygon fill="#63b8ff" stroke="#63b8ff" points="553.16,-85.86 561.65,-79.53 551.06,-79.18 553.16,-85.86"/>
</g>
<!-- Node27 -->
<g id="node27" class="node">
<title>Node27</title>
<g id="a_node27"><a xlink:title=" ">
<polygon fill="#e0e0e0" stroke="#999999" points="309.5,-79.5 226.5,-79.5 226.5,-60.5 309.5,-60.5 309.5,-79.5"/>
<text text-anchor="middle" x="268" y="-67.5" font-family="Helvetica,sans-Serif" font-size="10.00">initializer_list</text>
</a>
</g>
</g>
<!-- Node21&#45;&gt;Node27 -->
<g id="edge27" class="edge">
<title>Node21&#45;&gt;Node27</title>
<path fill="none" stroke="#63b8ff" d="M268,-120.87C268,-112.75 268,-100.31 268,-89.89"/>
<polygon fill="#63b8ff" stroke="#63b8ff" points="271.5,-89.67 268,-79.67 264.5,-89.67 271.5,-89.67"/>
</g>
<!-- Node28 -->
<g id="node28" class="node">
<title>Node28</title>
<g id="a_node28"><a xlink:title=" ">
<polygon fill="#e0e0e0" stroke="#999999" points="380.5,-79.5 327.5,-79.5 327.5,-60.5 380.5,-60.5 380.5,-79.5"/>
<text text-anchor="middle" x="354" y="-67.5" font-family="Helvetica,sans-Serif" font-size="10.00">iterator</text>
</a>
</g>
</g>
<!-- Node21&#45;&gt;Node28 -->
<g id="edge28" class="edge">
<title>Node21&#45;&gt;Node28</title>
<path fill="none" stroke="#63b8ff" d="M280.69,-120.87C294.41,-111.54 316.5,-96.51 332.85,-85.38"/>
<polygon fill="#63b8ff" stroke="#63b8ff" points="334.96,-88.19 341.26,-79.67 331.02,-82.4 334.96,-88.19"/>
</g>
<!-- Node31&#45;&gt;Node22 -->
<g id="edge31" class="edge">
<title>Node31&#45;&gt;Node22</title>
<path fill="none" stroke="#63b8ff" d="M141,-120.86C124.51,-106.83 96.75,-78.3 111,-55 122.11,-36.84 143.22,-25.8 161.87,-19.25"/>
<polygon fill="#63b8ff" stroke="#63b8ff" points="163.15,-22.52 171.61,-16.14 161.02,-15.85 163.15,-22.52"/>
</g>
<!-- Node31&#45;&gt;Node24 -->
<g id="edge32" class="edge">
<title>Node31&#45;&gt;Node24</title>
<path fill="none" stroke="#63b8ff" d="M150.97,-120.87C150,-112.75 148.51,-100.31 147.26,-89.89"/>
<polygon fill="#63b8ff" stroke="#63b8ff" points="150.7,-89.18 146.04,-79.67 143.75,-90.01 150.7,-89.18"/>
</g>
<!-- Node32&#45;&gt;Node4 -->
<g id="edge34" class="edge">
<title>Node32&#45;&gt;Node4</title>
<path fill="none" stroke="#63b8ff" d="M982.75,-120.97C950.82,-112.19 899.85,-97.99 856,-85 851.65,-83.71 847.07,-82.32 842.56,-80.94"/>
<polygon fill="#63b8ff" stroke="#63b8ff" points="843.52,-77.57 832.94,-77.96 841.45,-84.26 843.52,-77.57"/>
</g>
<!-- Node32&#45;&gt;Node19 -->
<g id="edge35" class="edge">
<title>Node32&#45;&gt;Node19</title>
<path fill="none" stroke="#63b8ff" d="M1047.3,-120.99C1082.17,-112.09 1137.74,-97.89 1180.77,-86.9"/>
<polygon fill="#63b8ff" stroke="#63b8ff" points="1181.76,-90.26 1190.58,-84.39 1180.03,-83.47 1181.76,-90.26"/>
</g>
<!-- Node32&#45;&gt;Node20 -->
<g id="edge36" class="edge">
<title>Node32&#45;&gt;Node20</title>
<path fill="none" stroke="#63b8ff" d="M1012.38,-120.87C1011.09,-114.03 1009.23,-104.14 1007.51,-94.97"/>
<polygon fill="#63b8ff" stroke="#63b8ff" points="1010.94,-94.3 1005.65,-85.11 1004.06,-95.59 1010.94,-94.3"/>
</g>
<!-- Node32&#45;&gt;Node36 -->
<g id="edge37" class="edge">
<title>Node32&#45;&gt;Node36</title>
<path fill="none" stroke="#63b8ff" d="M1030.08,-120.87C1047.95,-111.28 1077.04,-95.67 1097.91,-84.47"/>
<polygon fill="#63b8ff" stroke="#63b8ff" points="1099.69,-87.48 1106.85,-79.67 1096.38,-81.31 1099.69,-87.48"/>
</g>
<!-- Node37 -->
<g id="node32" class="node">
<title>Node37</title>
<g id="a_node32"><a xlink:href="types_8h.html" target="_top" xlink:title=" ">
<polygon fill="#fff0f0" stroke="red" points="1274.5,-19 1171.5,-19 1171.5,0 1274.5,0 1274.5,-19"/>
<text text-anchor="middle" x="1223" y="-7" font-family="Helvetica,sans-Serif" font-size="10.00">thorin/util/types.h</text>
</a>
</g>
</g>
<!-- Node36&#45;&gt;Node37 -->
<g id="edge38" class="edge">
<title>Node36&#45;&gt;Node37</title>
<path fill="none" stroke="#63b8ff" d="M1137.76,-60.37C1154,-50.86 1180.35,-35.45 1199.46,-24.27"/>
<polygon fill="#63b8ff" stroke="#63b8ff" points="1201.32,-27.24 1208.18,-19.17 1197.79,-21.2 1201.32,-27.24"/>
</g>
<!-- Node43&#45;&gt;Node7 -->
<g id="edge42" class="edge">
<title>Node43&#45;&gt;Node7</title>
<path fill="none" stroke="#63b8ff" d="M839.28,-125.44C930.85,-117.85 1133.43,-100.85 1304,-85 1338.75,-81.77 1378.29,-77.82 1406.64,-74.94"/>
<polygon fill="#63b8ff" stroke="#63b8ff" points="1407.33,-78.39 1416.92,-73.89 1406.62,-71.42 1407.33,-78.39"/>
</g>
<!-- Node43&#45;&gt;Node8 -->
<g id="edge43" class="edge">
<title>Node43&#45;&gt;Node8</title>
<path fill="none" stroke="#63b8ff" d="M804.31,-120.87C820,-111.41 845.4,-96.09 863.91,-84.92"/>
<polygon fill="#63b8ff" stroke="#63b8ff" points="865.87,-87.83 872.63,-79.67 862.26,-81.83 865.87,-87.83"/>
</g>
<!-- Node43&#45;&gt;Node26 -->
<g id="edge41" class="edge">
<title>Node43&#45;&gt;Node26</title>
<path fill="none" stroke="#63b8ff" d="M756.75,-121C723.71,-112.41 671.64,-98.52 627,-85 624.55,-84.26 622.04,-83.47 619.5,-82.67"/>
<polygon fill="#63b8ff" stroke="#63b8ff" points="620.39,-79.28 609.8,-79.52 618.23,-85.94 620.39,-79.28"/>
</g>
<!-- Node43&#45;&gt;Node45 -->
<g id="edge44" class="edge">
<title>Node43&#45;&gt;Node45</title>
<path fill="none" stroke="#63b8ff" d="M775.1,-120.87C758.69,-111.36 732.07,-95.95 712.77,-84.77"/>
<polygon fill="#63b8ff" stroke="#63b8ff" points="714.37,-81.65 703.96,-79.67 710.86,-87.71 714.37,-81.65"/>
</g>
<!-- Node45&#45;&gt;Node22 -->
<g id="edge45" class="edge">
<title>Node45&#45;&gt;Node22</title>
<path fill="none" stroke="#63b8ff" d="M653.82,-60.43C644.79,-58.44 635.07,-56.47 626,-55 481.92,-31.58 308.45,-17.99 234.38,-12.86"/>
<polygon fill="#63b8ff" stroke="#63b8ff" points="234.41,-9.36 224.19,-12.17 233.93,-16.34 234.41,-9.36"/>
</g>
<!-- Node47&#45;&gt;Node7 -->
<g id="edge50" class="edge">
<title>Node47&#45;&gt;Node7</title>
<path fill="none" stroke="#63b8ff" d="M1375.99,-175.9C1392.24,-168.68 1413.31,-156.83 1426,-140 1437.09,-125.3 1441.7,-104.49 1443.63,-89.57"/>
<polygon fill="#63b8ff" stroke="#63b8ff" points="1447.12,-89.82 1444.64,-79.52 1440.16,-89.12 1447.12,-89.82"/>
</g>
<!-- Node47&#45;&gt;Node18 -->
<g id="edge52" class="edge">
<title>Node47&#45;&gt;Node18</title>
<path fill="none" stroke="#63b8ff" d="M1324.4,-175.98C1294.39,-167.05 1247.02,-152.94 1213.68,-143.02"/>
<polygon fill="#63b8ff" stroke="#63b8ff" points="1214.41,-139.58 1203.82,-140.08 1212.41,-146.29 1214.41,-139.58"/>
</g>
<!-- Node47&#45;&gt;Node37 -->
<g id="edge54" class="edge">
<title>Node47&#45;&gt;Node37</title>
<path fill="none" stroke="#63b8ff" d="M1350.53,-175.68C1343.13,-149.71 1320.63,-74.15 1304,-55 1291.72,-40.85 1273.79,-30.35 1257.92,-23.12"/>
<polygon fill="#63b8ff" stroke="#63b8ff" points="1258.94,-19.75 1248.37,-19.03 1256.19,-26.18 1258.94,-19.75"/>
</g>
<!-- Node47&#45;&gt;Node43 -->
<g id="edge53" class="edge">
<title>Node47&#45;&gt;Node43</title>
<path fill="none" stroke="#63b8ff" d="M1312.96,-180.73C1215.3,-171.54 964.43,-147.92 849.33,-137.09"/>
<polygon fill="#63b8ff" stroke="#63b8ff" points="849.57,-133.59 839.29,-136.14 848.92,-140.56 849.57,-133.59"/>
</g>
<!-- Node48 -->
<g id="node37" class="node">
<title>Node48</title>
<g id="a_node37"><a xlink:title=" ">
<polygon fill="#e0e0e0" stroke="#999999" points="1416.5,-140 1351.5,-140 1351.5,-121 1416.5,-121 1416.5,-140"/>
<text text-anchor="middle" x="1384" y="-128" font-family="Helvetica,sans-Serif" font-size="10.00">stdexcept</text>
</a>
</g>
</g>
<!-- Node47&#45;&gt;Node48 -->
<g id="edge51" class="edge">
<title>Node47&#45;&gt;Node48</title>
<path fill="none" stroke="#63b8ff" d="M1358.12,-175.75C1362.36,-168.49 1368.53,-157.95 1373.78,-148.98"/>
<polygon fill="#63b8ff" stroke="#63b8ff" points="1376.95,-150.49 1378.98,-140.09 1370.91,-146.95 1376.95,-150.49"/>
</g>
<!-- Node50&#45;&gt;Node15 -->
<g id="edge57" class="edge">
<title>Node50&#45;&gt;Node15</title>
<path fill="none" stroke="#63b8ff" d="M652.89,-230.75C647.72,-223.34 640.15,-212.5 633.81,-203.41"/>
<polygon fill="#63b8ff" stroke="#63b8ff" points="636.59,-201.29 628,-195.09 630.85,-205.29 636.59,-201.29"/>
</g>
<!-- Node51&#45;&gt;Node15 -->
<g id="edge59" class="edge">
<title>Node51&#45;&gt;Node15</title>
<path fill="none" stroke="#63b8ff" d="M566.6,-230.98C576.46,-223.07 591.35,-211.11 603.22,-201.58"/>
<polygon fill="#63b8ff" stroke="#63b8ff" points="605.6,-204.16 611.2,-195.17 601.21,-198.7 605.6,-204.16"/>
</g>
<!-- Node52&#45;&gt;Node18 -->
<g id="edge62" class="edge">
<title>Node52&#45;&gt;Node18</title>
<path fill="none" stroke="#63b8ff" d="M835.51,-178.46C898.71,-170.03 1016.59,-154.19 1117,-140 1118.45,-139.8 1119.92,-139.59 1121.4,-139.38"/>
<polygon fill="#63b8ff" stroke="#63b8ff" points="1121.9,-142.84 1131.3,-137.95 1120.91,-135.91 1121.9,-142.84"/>
</g>
<!-- Node52&#45;&gt;Node43 -->
<g id="edge63" class="edge">
<title>Node52&#45;&gt;Node43</title>
<path fill="none" stroke="#63b8ff" d="M790,-175.75C790,-168.8 790,-158.85 790,-150.13"/>
<polygon fill="#63b8ff" stroke="#63b8ff" points="793.5,-150.09 790,-140.09 786.5,-150.09 793.5,-150.09"/>
</g>
<!-- Node53&#45;&gt;Node6 -->
<g id="edge67" class="edge">
<title>Node53&#45;&gt;Node6</title>
<path fill="none" stroke="#63b8ff" d="M719.54,-696.78C779.31,-690.93 865.23,-678.93 890,-657 916.04,-633.94 914,-617.29 914,-582.5 914,-582.5 914,-582.5 914,-470.5 914,-438.56 905.84,-402.1 900.22,-380.77"/>
<polygon fill="#63b8ff" stroke="#63b8ff" points="903.58,-379.81 897.56,-371.09 896.83,-381.66 903.58,-379.81"/>
</g>
<!-- Node53&#45;&gt;Node12 -->
<g id="edge65" class="edge">
<title>Node53&#45;&gt;Node12</title>
<path fill="none" stroke="#63b8ff" d="M655.99,-692.76C649.81,-674.27 635.83,-629.69 631,-591 620.78,-509.04 701.66,-476.48 657,-407 634.96,-372.71 523.81,-332.9 464.47,-313.63"/>
<polygon fill="#63b8ff" stroke="#63b8ff" points="465.31,-310.23 454.72,-310.5 463.17,-316.89 465.31,-310.23"/>
</g>
<!-- Node53&#45;&gt;Node13 -->
<g id="edge66" class="edge">
<title>Node53&#45;&gt;Node13</title>
<path fill="none" stroke="#63b8ff" d="M713.45,-692.95C753.02,-685.5 801.7,-673.32 814,-657 881.62,-567.23 819.87,-510.47 776,-407 764.4,-379.65 762.77,-368.41 738,-352 672.17,-308.39 636.41,-347.52 564,-316 529.75,-301.09 495.47,-273.9 475.79,-256.81"/>
<polygon fill="#63b8ff" stroke="#63b8ff" points="478.11,-254.18 468.3,-250.17 473.47,-259.42 478.11,-254.18"/>
</g>
<!-- Node54 -->
<g id="node43" class="node">
<title>Node54</title>
<g id="a_node43"><a xlink:href="core_8h.html" target="_top" xlink:title=" ">
<polygon fill="white" stroke="#666666" points="805,-651.5 693,-651.5 693,-632.5 805,-632.5 805,-651.5"/>
<text text-anchor="middle" x="749" y="-639.5" font-family="Helvetica,sans-Serif" font-size="10.00">dialects/core/core.h</text>
</a>
</g>
</g>
<!-- Node53&#45;&gt;Node54 -->
<g id="edge68" class="edge">
<title>Node53&#45;&gt;Node54</title>
<path fill="none" stroke="#63b8ff" d="M672.28,-692.87C686.64,-683.54 709.76,-668.51 726.87,-657.38"/>
<polygon fill="#63b8ff" stroke="#63b8ff" points="729.19,-660.05 735.67,-651.67 725.37,-654.18 729.19,-660.05"/>
</g>
<!-- Node69 -->
<g id="node50" class="node">
<title>Node69</title>
<g id="a_node50"><a xlink:href="mem_2autogen_8h.html" target="_top" xlink:title=" ">
<polygon fill="white" stroke="#666666" points="568.5,-591 433.5,-591 433.5,-572 568.5,-572 568.5,-591"/>
<text text-anchor="middle" x="501" y="-579" font-family="Helvetica,sans-Serif" font-size="10.00">dialects/mem/autogen.h</text>
</a>
</g>
</g>
<!-- Node53&#45;&gt;Node69 -->
<g id="edge86" class="edge">
<title>Node53&#45;&gt;Node69</title>
<path fill="none" stroke="#63b8ff" d="M646.78,-692.72C634.42,-683.81 614.79,-669.57 598,-657 570.73,-636.59 539.54,-612.5 520.06,-597.36"/>
<polygon fill="#63b8ff" stroke="#63b8ff" points="522.03,-594.46 511.99,-591.08 517.73,-599.98 522.03,-594.46"/>
</g>
<!-- Node54&#45;&gt;Node6 -->
<g id="edge70" class="edge">
<title>Node54&#45;&gt;Node6</title>
<path fill="none" stroke="#63b8ff" d="M764.75,-632.47C779.4,-623.8 800.87,-609.09 814,-591 863.27,-523.13 884.91,-422.47 892.09,-381.19"/>
<polygon fill="#63b8ff" stroke="#63b8ff" points="895.56,-381.64 893.74,-371.2 888.66,-380.5 895.56,-381.64"/>
</g>
<!-- Node54&#45;&gt;Node12 -->
<g id="edge69" class="edge">
<title>Node54&#45;&gt;Node12</title>
<path fill="none" stroke="#63b8ff" d="M756.64,-632.16C764.26,-622.71 775.47,-606.91 780,-591 782.31,-582.88 781.23,-580.35 780,-572 765.18,-471 790.91,-419.13 714,-352 675.19,-318.12 535.52,-326.05 485,-316 480.23,-315.05 475.27,-313.98 470.33,-312.86"/>
<polygon fill="#63b8ff" stroke="#63b8ff" points="470.86,-309.39 460.33,-310.53 469.27,-316.21 470.86,-309.39"/>
</g>
<!-- Node55 -->
<g id="node44" class="node">
<title>Node55</title>
<g id="a_node44"><a xlink:href="core_2autogen_8h.html" target="_top" xlink:title=" ">
<polygon fill="white" stroke="#666666" points="771.5,-591 640.5,-591 640.5,-572 771.5,-572 771.5,-591"/>
<text text-anchor="middle" x="706" y="-579" font-family="Helvetica,sans-Serif" font-size="10.00">dialects/core/autogen.h</text>
</a>
</g>
</g>
<!-- Node54&#45;&gt;Node55 -->
<g id="edge71" class="edge">
<title>Node54&#45;&gt;Node55</title>
<path fill="none" stroke="#63b8ff" d="M742.66,-632.37C736.3,-623.73 726.36,-610.2 718.43,-599.42"/>
<polygon fill="#63b8ff" stroke="#63b8ff" points="721.11,-597.15 712.37,-591.17 715.47,-601.3 721.11,-597.15"/>
</g>
<!-- Node55&#45;&gt;Node12 -->
<g id="edge72" class="edge">
<title>Node55&#45;&gt;Node12</title>
<path fill="none" stroke="#63b8ff" d="M707.21,-571.84C709.67,-553.54 715,-509.57 715,-472.5 715,-472.5 715,-472.5 715,-415.5 715,-385.33 714.25,-371.23 691,-352 619.39,-292.75 576,-334.91 485,-316 480.3,-315.02 475.41,-313.94 470.54,-312.83"/>
<polygon fill="#63b8ff" stroke="#63b8ff" points="471.19,-309.38 460.65,-310.51 469.59,-316.2 471.19,-309.38"/>
</g>
<!-- Node56 -->
<g id="node45" class="node">
<title>Node56</title>
<g id="a_node45"><a xlink:href="dialects_8h.html" target="_top" xlink:title=" ">
<polygon fill="white" stroke="#666666" points="548.5,-536 453.5,-536 453.5,-517 548.5,-517 548.5,-536"/>
<text text-anchor="middle" x="501" y="-524" font-family="Helvetica,sans-Serif" font-size="10.00">thorin/dialects.h</text>
</a>
</g>
</g>
<!-- Node55&#45;&gt;Node56 -->
<g id="edge73" class="edge">
<title>Node55&#45;&gt;Node56</title>
<path fill="none" stroke="#63b8ff" d="M673.06,-571.98C638.05,-562.93 582.53,-548.58 544.07,-538.64"/>
<polygon fill="#63b8ff" stroke="#63b8ff" points="544.75,-535.2 534.19,-536.08 543,-541.97 544.75,-535.2"/>
</g>
<!-- Node56&#45;&gt;Node3 -->
<g id="edge80" class="edge">
<title>Node56&#45;&gt;Node3</title>
<path fill="none" stroke="#63b8ff" d="M486.11,-516.86C470.76,-507.94 446.15,-493.59 425,-481 396.61,-464.11 364.09,-444.38 342.86,-431.45"/>
<polygon fill="#63b8ff" stroke="#63b8ff" points="344.59,-428.41 334.23,-426.19 340.95,-434.38 344.59,-428.41"/>
</g>
<!-- Node56&#45;&gt;Node8 -->
<g id="edge76" class="edge">
<title>Node56&#45;&gt;Node8</title>
<path fill="none" stroke="#63b8ff" d="M490.9,-516.68C481.57,-508.18 467.73,-494.64 458,-481 410.22,-414.01 393.2,-396.02 374,-316 364.35,-275.76 383.97,-261.45 412,-231 473.71,-163.96 498.2,-148.72 585,-121 694.45,-86.04 728.81,-109.8 841,-85 845.52,-84 850.25,-82.78 854.87,-81.47"/>
<polygon fill="#63b8ff" stroke="#63b8ff" points="856.14,-84.75 864.72,-78.54 854.14,-78.04 856.14,-84.75"/>
</g>
<!-- Node56&#45;&gt;Node17 -->
<g id="edge77" class="edge">
<title>Node56&#45;&gt;Node17</title>
<path fill="none" stroke="#63b8ff" d="M453.42,-525.27C328.36,-523.4 0,-509.7 0,-417.5 0,-417.5 0,-417.5 0,-184.5 0,-149.07 17.21,-110.62 28.77,-88.8"/>
<polygon fill="#63b8ff" stroke="#63b8ff" points="31.98,-90.21 33.74,-79.77 25.85,-86.84 31.98,-90.21"/>
</g>
<!-- Node56&#45;&gt;Node19 -->
<g id="edge85" class="edge">
<title>Node56&#45;&gt;Node19</title>
<path fill="none" stroke="#63b8ff" d="M548.73,-519.23C700.17,-498.35 1165.61,-426.15 1262,-316 1317.21,-252.9 1276.46,-142.3 1254.54,-94.31"/>
<polygon fill="#63b8ff" stroke="#63b8ff" points="1257.61,-92.62 1250.19,-85.06 1251.28,-95.6 1257.61,-92.62"/>
</g>
<!-- Node57 -->
<g id="node46" class="node">
<title>Node57</title>
<g id="a_node46"><a xlink:title=" ">
<polygon fill="#e0e0e0" stroke="#999999" points="535,-481 467,-481 467,-462 535,-462 535,-481"/>
<text text-anchor="middle" x="501" y="-469" font-family="Helvetica,sans-Serif" font-size="10.00">filesystem</text>
</a>
</g>
</g>
<!-- Node56&#45;&gt;Node57 -->
<g id="edge74" class="edge">
<title>Node56&#45;&gt;Node57</title>
<path fill="none" stroke="#63b8ff" d="M501,-516.75C501,-509.8 501,-499.85 501,-491.13"/>
<polygon fill="#63b8ff" stroke="#63b8ff" points="504.5,-491.09 501,-481.09 497.5,-491.09 504.5,-491.09"/>
</g>
<!-- Node58 -->
<g id="node47" class="node">
<title>Node58</title>
<g id="a_node47"><a xlink:title=" ">
<polygon fill="#e0e0e0" stroke="#999999" points="611,-481 553,-481 553,-462 611,-462 611,-481"/>
<text text-anchor="middle" x="582" y="-469" font-family="Helvetica,sans-Serif" font-size="10.00">memory</text>
</a>
</g>
</g>
<!-- Node56&#45;&gt;Node58 -->
<g id="edge75" class="edge">
<title>Node56&#45;&gt;Node58</title>
<path fill="none" stroke="#63b8ff" d="M514.01,-516.98C526.46,-508.84 545.46,-496.41 560.21,-486.76"/>
<polygon fill="#63b8ff" stroke="#63b8ff" points="562.3,-489.57 568.75,-481.17 558.46,-483.72 562.3,-489.57"/>
</g>
<!-- Node59 -->
<g id="node48" class="node">
<title>Node59</title>
<g id="a_node48"><a xlink:href="emitter_8h.html" target="_top" xlink:title=" ">
<polygon fill="#fff0f0" stroke="red" points="648.5,-426 541.5,-426 541.5,-407 648.5,-407 648.5,-426"/>
<text text-anchor="middle" x="595" y="-414" font-family="Helvetica,sans-Serif" font-size="10.00">thorin/be/emitter.h</text>
</a>
</g>
</g>
<!-- Node56&#45;&gt;Node59 -->
<g id="edge78" class="edge">
<title>Node56&#45;&gt;Node59</title>
<path fill="none" stroke="#63b8ff" d="M548.73,-520.59C574.39,-515.24 603.97,-504.11 620,-481 629.97,-466.63 620.12,-447.71 610,-434.27"/>
<polygon fill="#63b8ff" stroke="#63b8ff" points="612.55,-431.86 603.52,-426.33 607.13,-436.29 612.55,-431.86"/>
</g>
<!-- Node67 -->
<g id="node49" class="node">
<title>Node67</title>
<g id="a_node49"><a xlink:href="pipelinebuilder_8h.html" target="_top" xlink:title=" ">
<polygon fill="#fff0f0" stroke="red" points="296.5,-481 141.5,-481 141.5,-462 296.5,-462 296.5,-481"/>
<text text-anchor="middle" x="219" y="-469" font-family="Helvetica,sans-Serif" font-size="10.00">thorin/pass/pipelinebuilder.h</text>
</a>
</g>
</g>
<!-- Node56&#45;&gt;Node67 -->
<g id="edge81" class="edge">
<title>Node56&#45;&gt;Node67</title>
<path fill="none" stroke="#63b8ff" d="M455.69,-516.98C406.4,-507.72 327.57,-492.9 274.57,-482.94"/>
<polygon fill="#63b8ff" stroke="#63b8ff" points="275.14,-479.49 264.66,-481.08 273.84,-486.37 275.14,-479.49"/>
</g>
<!-- Node59&#45;&gt;Node6 -->
<g id="edge79" class="edge">
<title>Node59&#45;&gt;Node6</title>
<path fill="none" stroke="#63b8ff" d="M643.2,-406.98C697.77,-397.34 786.39,-381.69 842.63,-371.75"/>
<polygon fill="#63b8ff" stroke="#63b8ff" points="843.5,-375.15 852.74,-369.97 842.28,-368.26 843.5,-375.15"/>
</g>
<!-- Node67&#45;&gt;Node3 -->
<g id="edge84" class="edge">
<title>Node67&#45;&gt;Node3</title>
<path fill="none" stroke="#63b8ff" d="M235.23,-461.98C251.18,-453.61 275.78,-440.7 294.38,-430.95"/>
<polygon fill="#63b8ff" stroke="#63b8ff" points="296.25,-433.92 303.48,-426.17 293,-427.72 296.25,-433.92"/>
</g>
<!-- Node67&#45;&gt;Node17 -->
<g id="edge83" class="edge">
<title>Node67&#45;&gt;Node17</title>
<path fill="none" stroke="#63b8ff" d="M165.67,-461.93C112.28,-449.96 38,-422.51 38,-362.5 38,-362.5 38,-362.5 38,-184.5 38,-151.11 38.44,-112.19 38.73,-89.69"/>
<polygon fill="#63b8ff" stroke="#63b8ff" points="42.24,-89.59 38.87,-79.54 35.24,-89.49 42.24,-89.59"/>
</g>
<!-- Node67&#45;&gt;Node26 -->
<g id="edge82" class="edge">
<title>Node67&#45;&gt;Node26</title>
<path fill="none" stroke="#63b8ff" d="M221.73,-461.79C232.44,-428.66 274.32,-308.44 341,-231 402.97,-159.02 505.06,-106.65 555.25,-83.78"/>
<polygon fill="#63b8ff" stroke="#63b8ff" points="556.88,-86.88 564.57,-79.6 554.01,-80.5 556.88,-86.88"/>
</g>
<!-- Node69&#45;&gt;Node12 -->
<g id="edge87" class="edge">
<title>Node69&#45;&gt;Node12</title>
<path fill="none" stroke="#63b8ff" d="M485.66,-571.97C472.87,-564.14 455.02,-551.43 444,-536 428.97,-514.96 429.28,-506.51 425,-481 415.29,-423.15 420.98,-353.3 424.65,-320.59"/>
<polygon fill="#63b8ff" stroke="#63b8ff" points="428.12,-321 425.83,-310.65 421.17,-320.17 428.12,-321"/>
</g>
<!-- Node69&#45;&gt;Node56 -->
<g id="edge88" class="edge">
<title>Node69&#45;&gt;Node56</title>
<path fill="none" stroke="#63b8ff" d="M501,-571.75C501,-564.8 501,-554.85 501,-546.13"/>
<polygon fill="#63b8ff" stroke="#63b8ff" points="504.5,-546.09 501,-536.09 497.5,-546.09 504.5,-546.09"/>
</g>
</g>
</svg>
