<?xml version="1.0" encoding="UTF-8" standalone="no"?>
<!DOCTYPE svg PUBLIC "-//W3C//DTD SVG 1.1//EN"
 "http://www.w3.org/Graphics/SVG/1.1/DTD/svg11.dtd">
<!-- Generated by graphviz version 2.43.0 (0)
 -->
<!-- Title: /home/runner/work/thorin2/thorin2/thorin/dialects.h Pages: 1 -->
<svg width="1885pt" height="273pt"
 viewBox="0.00 0.00 1885.00 273.00" xmlns="http://www.w3.org/2000/svg" xmlns:xlink="http://www.w3.org/1999/xlink">
<g id="graph0" class="graph" transform="scale(1 1) rotate(0) translate(4 269)">
<title>/home/runner/work/thorin2/thorin2/thorin/dialects.h</title>
<!-- Node1 -->
<g id="node1" class="node">
<title>Node1</title>
<g id="a_node1"><a xlink:title=" ">
<polygon fill="#bfbfbf" stroke="black" points="1247,-234.5 1247,-264.5 1393,-264.5 1393,-234.5 1247,-234.5"/>
<text text-anchor="start" x="1255" y="-252.5" font-family="Helvetica,sans-Serif" font-size="10.00">/home/runner/work/thorin2</text>
<text text-anchor="middle" x="1320" y="-241.5" font-family="Helvetica,sans-Serif" font-size="10.00">/thorin2/thorin/dialects.h</text>
</a>
</g>
</g>
<!-- Node2 -->
<g id="node2" class="node">
<title>Node2</title>
<g id="a_node2"><a xlink:href="build_2dialects_2affine_8h.html" target="_top" xlink:title=" ">
<polygon fill="none" stroke="black" points="271,-156.5 271,-197.5 417,-197.5 417,-156.5 271,-156.5"/>
<text text-anchor="start" x="279" y="-185.5" font-family="Helvetica,sans-Serif" font-size="10.00">/home/runner/work/thorin2</text>
<text text-anchor="start" x="279" y="-174.5" font-family="Helvetica,sans-Serif" font-size="10.00">/thorin2/build/dialects</text>
<text text-anchor="middle" x="344" y="-163.5" font-family="Helvetica,sans-Serif" font-size="10.00">/affine.h</text>
</a>
</g>
</g>
<!-- Node1&#45;&gt;Node2 -->
<g id="edge1" class="edge">
<title>Node1&#45;&gt;Node2</title>
<path fill="none" stroke="midnightblue" d="M1236.9,-245.59C1086.99,-239.86 761.43,-225.25 488,-198 464.89,-195.7 439.8,-192.47 417.13,-189.27"/>
<polygon fill="midnightblue" stroke="midnightblue" points="1236.83,-249.09 1246.95,-245.97 1237.09,-242.09 1236.83,-249.09"/>
</g>
<!-- Node3 -->
<g id="node3" class="node">
<title>Node3</title>
<g id="a_node3"><a xlink:href="affine_8cpp.html" target="_top" xlink:title=" ">
<polygon fill="none" stroke="black" points="0,-78.5 0,-119.5 146,-119.5 146,-78.5 0,-78.5"/>
<text text-anchor="start" x="8" y="-107.5" font-family="Helvetica,sans-Serif" font-size="10.00">/home/runner/work/thorin2</text>
<text text-anchor="start" x="8" y="-96.5" font-family="Helvetica,sans-Serif" font-size="10.00">/thorin2/dialects/affine</text>
<text text-anchor="middle" x="73" y="-85.5" font-family="Helvetica,sans-Serif" font-size="10.00">/affine.cpp</text>
</a>
</g>
</g>
<!-- Node1&#45;&gt;Node3 -->
<g id="edge22" class="edge">
<title>Node1&#45;&gt;Node3</title>
<path fill="none" stroke="midnightblue" d="M1236.72,-249.1C1020.47,-249.95 445.2,-247.33 262,-198 200.79,-181.52 136.77,-143.14 101.18,-119.6"/>
<polygon fill="midnightblue" stroke="midnightblue" points="1236.76,-252.6 1246.74,-249.06 1236.73,-245.6 1236.76,-252.6"/>
</g>
<!-- Node6 -->
<g id="node6" class="node">
<title>Node6</title>
<g id="a_node6"><a xlink:href="build_2dialects_2core_8h.html" target="_top" xlink:title=" ">
<polygon fill="none" stroke="black" points="1348.5,-162 1348.5,-192 1503.5,-192 1503.5,-162 1348.5,-162"/>
<text text-anchor="start" x="1356.5" y="-180" font-family="Helvetica,sans-Serif" font-size="10.00">/home/runner/work/thorin2</text>
<text text-anchor="middle" x="1426" y="-169" font-family="Helvetica,sans-Serif" font-size="10.00">/thorin2/build/dialects/core.h</text>
</a>
</g>
</g>
<!-- Node1&#45;&gt;Node6 -->
<g id="edge5" class="edge">
<title>Node1&#45;&gt;Node6</title>
<path fill="none" stroke="midnightblue" d="M1349.92,-228.6C1367.42,-216.96 1389.11,-202.54 1404.84,-192.07"/>
<polygon fill="midnightblue" stroke="midnightblue" points="1347.58,-225.95 1341.2,-234.4 1351.46,-231.78 1347.58,-225.95"/>
</g>
<!-- Node8 -->
<g id="node8" class="node">
<title>Node8</title>
<g id="a_node8"><a xlink:href="core_8cpp.html" target="_top" xlink:title=" ">
<polygon fill="none" stroke="black" points="1353,-78.5 1353,-119.5 1499,-119.5 1499,-78.5 1353,-78.5"/>
<text text-anchor="start" x="1361" y="-107.5" font-family="Helvetica,sans-Serif" font-size="10.00">/home/runner/work/thorin2</text>
<text text-anchor="start" x="1361" y="-96.5" font-family="Helvetica,sans-Serif" font-size="10.00">/thorin2/dialects/core</text>
<text text-anchor="middle" x="1426" y="-85.5" font-family="Helvetica,sans-Serif" font-size="10.00">/core.cpp</text>
</a>
</g>
</g>
<!-- Node1&#45;&gt;Node8 -->
<g id="edge23" class="edge">
<title>Node1&#45;&gt;Node8</title>
<path fill="none" stroke="midnightblue" d="M1319.94,-224.23C1321,-204.31 1325.16,-176.2 1339,-156 1349.46,-140.74 1365.58,-128.69 1381.12,-119.74"/>
<polygon fill="midnightblue" stroke="midnightblue" points="1316.44,-224.25 1319.63,-234.35 1323.43,-224.46 1316.44,-224.25"/>
</g>
<!-- Node11 -->
<g id="node11" class="node">
<title>Node11</title>
<g id="a_node11"><a xlink:href="build_2dialects_2mem_8h.html" target="_top" xlink:title=" ">
<polygon fill="none" stroke="black" points="972,-162 972,-192 1132,-192 1132,-162 972,-162"/>
<text text-anchor="start" x="980" y="-180" font-family="Helvetica,sans-Serif" font-size="10.00">/home/runner/work/thorin2</text>
<text text-anchor="middle" x="1052" y="-169" font-family="Helvetica,sans-Serif" font-size="10.00">/thorin2/build/dialects/mem.h</text>
</a>
</g>
</g>
<!-- Node1&#45;&gt;Node11 -->
<g id="edge11" class="edge">
<title>Node1&#45;&gt;Node11</title>
<path fill="none" stroke="midnightblue" d="M1256.87,-231.89C1210.88,-219.79 1149.24,-203.58 1105.63,-192.11"/>
<polygon fill="midnightblue" stroke="midnightblue" points="1256.17,-235.33 1266.73,-234.49 1257.95,-228.56 1256.17,-235.33"/>
</g>
<!-- Node12 -->
<g id="node12" class="node">
<title>Node12</title>
<g id="a_node12"><a xlink:href="mem_8cpp.html" target="_top" xlink:title=" ">
<polygon fill="none" stroke="black" points="601.5,-6 601.5,-36 774.5,-36 774.5,-6 601.5,-6"/>
<text text-anchor="start" x="609.5" y="-24" font-family="Helvetica,sans-Serif" font-size="10.00">/home/runner/work/thorin2</text>
<text text-anchor="middle" x="688" y="-13" font-family="Helvetica,sans-Serif" font-size="10.00">/thorin2/dialects/mem/mem.cpp</text>
</a>
</g>
</g>
<!-- Node1&#45;&gt;Node12 -->
<g id="edge24" class="edge">
<title>Node1&#45;&gt;Node12</title>
<path fill="none" stroke="midnightblue" d="M1236.62,-248.22C1050.73,-245.62 611.57,-227.95 521,-120 509,-105.7 510.1,-93.15 521,-78 539.66,-52.06 570.91,-37.97 601.37,-30.37"/>
<polygon fill="midnightblue" stroke="midnightblue" points="1236.84,-251.72 1246.88,-248.35 1236.93,-244.72 1236.84,-251.72"/>
</g>
<!-- Node19 -->
<g id="node19" class="node">
<title>Node19</title>
<g id="a_node19"><a xlink:href="dialects_8cpp.html" target="_top" xlink:title=" ">
<polygon fill="none" stroke="black" points="1521.5,-162 1521.5,-192 1668.5,-192 1668.5,-162 1521.5,-162"/>
<text text-anchor="start" x="1529.5" y="-180" font-family="Helvetica,sans-Serif" font-size="10.00">/home/runner/work/thorin2</text>
<text text-anchor="middle" x="1595" y="-169" font-family="Helvetica,sans-Serif" font-size="10.00">/thorin2/thorin/dialects.cpp</text>
</a>
</g>
</g>
<!-- Node1&#45;&gt;Node19 -->
<g id="edge25" class="edge">
<title>Node1&#45;&gt;Node19</title>
<path fill="none" stroke="midnightblue" d="M1384.48,-231.97C1431.71,-219.86 1495.12,-203.6 1539.97,-192.11"/>
<polygon fill="midnightblue" stroke="midnightblue" points="1383.48,-228.61 1374.66,-234.49 1385.22,-235.39 1383.48,-228.61"/>
</g>
<!-- Node20 -->
<g id="node20" class="node">
<title>Node20</title>
<g id="a_node20"><a xlink:href="parser_8cpp.html" target="_top" xlink:title=" ">
<polygon fill="none" stroke="black" points="1725,-84 1725,-114 1877,-114 1877,-84 1725,-84"/>
<text text-anchor="start" x="1733" y="-102" font-family="Helvetica,sans-Serif" font-size="10.00">/home/runner/work/thorin2</text>
<text text-anchor="middle" x="1801" y="-91" font-family="Helvetica,sans-Serif" font-size="10.00">/thorin2/thorin/fe/parser.cpp</text>
</a>
</g>
</g>
<!-- Node1&#45;&gt;Node20 -->
<g id="edge26" class="edge">
<title>Node1&#45;&gt;Node20</title>
<path fill="none" stroke="midnightblue" d="M1403.22,-242.95C1493.35,-235.84 1630.49,-221.56 1677,-198 1700.27,-186.21 1697.97,-172.72 1718,-156 1736.95,-140.18 1760.42,-124.68 1777.56,-114.02"/>
<polygon fill="midnightblue" stroke="midnightblue" points="1402.72,-239.47 1393.02,-243.73 1403.26,-246.45 1402.72,-239.47"/>
</g>
<!-- Node21 -->
<g id="node21" class="node">
<title>Node21</title>
<g id="a_node21"><a xlink:href="parser_8h.html" target="_top" xlink:title=" ">
<polygon fill="none" stroke="black" points="1727,-162 1727,-192 1873,-192 1873,-162 1727,-162"/>
<text text-anchor="start" x="1735" y="-180" font-family="Helvetica,sans-Serif" font-size="10.00">/home/runner/work/thorin2</text>
<text text-anchor="middle" x="1800" y="-169" font-family="Helvetica,sans-Serif" font-size="10.00">/thorin2/thorin/fe/parser.h</text>
</a>
</g>
</g>
<!-- Node1&#45;&gt;Node21 -->
<g id="edge27" class="edge">
<title>Node1&#45;&gt;Node21</title>
<path fill="none" stroke="midnightblue" d="M1403.26,-240.1C1482.85,-231.53 1606.07,-216.82 1712,-198 1721.72,-196.27 1731.98,-194.19 1741.94,-192.02"/>
<polygon fill="midnightblue" stroke="midnightblue" points="1402.86,-236.63 1393.29,-241.17 1403.6,-243.59 1402.86,-236.63"/>
</g>
<!-- Node2&#45;&gt;Node3 -->
<g id="edge2" class="edge">
<title>Node2&#45;&gt;Node3</title>
<path fill="none" stroke="midnightblue" d="M264.55,-153.72C225.88,-142.87 179.82,-129.96 142.55,-119.51"/>
<polygon fill="midnightblue" stroke="midnightblue" points="263.64,-157.1 274.21,-156.43 265.53,-150.36 263.64,-157.1"/>
</g>
<!-- Node4 -->
<g id="node4" class="node">
<title>Node4</title>
<g id="a_node4"><a xlink:href="dialects_2affine_2affine_8h.html" target="_top" xlink:title=" ">
<polygon fill="none" stroke="black" points="164,-78.5 164,-119.5 310,-119.5 310,-78.5 164,-78.5"/>
<text text-anchor="start" x="172" y="-107.5" font-family="Helvetica,sans-Serif" font-size="10.00">/home/runner/work/thorin2</text>
<text text-anchor="start" x="172" y="-96.5" font-family="Helvetica,sans-Serif" font-size="10.00">/thorin2/dialects/affine</text>
<text text-anchor="middle" x="237" y="-85.5" font-family="Helvetica,sans-Serif" font-size="10.00">/affine.h</text>
</a>
</g>
</g>
<!-- Node2&#45;&gt;Node4 -->
<g id="edge3" class="edge">
<title>Node2&#45;&gt;Node4</title>
<path fill="none" stroke="midnightblue" d="M308.29,-150.64C294,-140.49 277.8,-128.98 264.46,-119.51"/>
<polygon fill="midnightblue" stroke="midnightblue" points="306.27,-153.49 316.44,-156.43 310.32,-147.78 306.27,-153.49"/>
</g>
<!-- Node5 -->
<g id="node5" class="node">
<title>Node5</title>
<g id="a_node5"><a xlink:href="lower__for_8cpp.html" target="_top" xlink:title=" ">
<polygon fill="none" stroke="black" points="328,-78.5 328,-119.5 474,-119.5 474,-78.5 328,-78.5"/>
<text text-anchor="start" x="336" y="-107.5" font-family="Helvetica,sans-Serif" font-size="10.00">/home/runner/work/thorin2</text>
<text text-anchor="start" x="336" y="-96.5" font-family="Helvetica,sans-Serif" font-size="10.00">/thorin2/dialects/affine</text>
<text text-anchor="middle" x="401" y="-85.5" font-family="Helvetica,sans-Serif" font-size="10.00">/passes/lower_for.cpp</text>
</a>
</g>
</g>
<!-- Node2&#45;&gt;Node5 -->
<g id="edge4" class="edge">
<title>Node2&#45;&gt;Node5</title>
<path fill="none" stroke="midnightblue" d="M364.75,-148.34C371.92,-138.78 379.8,-128.27 386.37,-119.51"/>
<polygon fill="midnightblue" stroke="midnightblue" points="361.88,-146.33 358.68,-156.43 367.48,-150.53 361.88,-146.33"/>
</g>
<!-- Node7 -->
<g id="node7" class="node">
<title>Node7</title>
<g id="a_node7"><a xlink:href="ll_8cpp.html" target="_top" xlink:title=" ">
<polygon fill="none" stroke="black" points="1189,-78.5 1189,-119.5 1335,-119.5 1335,-78.5 1189,-78.5"/>
<text text-anchor="start" x="1197" y="-107.5" font-family="Helvetica,sans-Serif" font-size="10.00">/home/runner/work/thorin2</text>
<text text-anchor="start" x="1197" y="-96.5" font-family="Helvetica,sans-Serif" font-size="10.00">/thorin2/dialects/core</text>
<text text-anchor="middle" x="1262" y="-85.5" font-family="Helvetica,sans-Serif" font-size="10.00">/be/ll/ll.cpp</text>
</a>
</g>
</g>
<!-- Node6&#45;&gt;Node7 -->
<g id="edge6" class="edge">
<title>Node6&#45;&gt;Node7</title>
<path fill="none" stroke="midnightblue" d="M1386.41,-157.65C1361.61,-146.16 1329.66,-131.36 1304.35,-119.63"/>
<polygon fill="midnightblue" stroke="midnightblue" points="1384.99,-160.85 1395.54,-161.88 1387.94,-154.5 1384.99,-160.85"/>
</g>
<!-- Node6&#45;&gt;Node8 -->
<g id="edge7" class="edge">
<title>Node6&#45;&gt;Node8</title>
<path fill="none" stroke="midnightblue" d="M1426,-151.66C1426,-141.33 1426,-129.44 1426,-119.68"/>
<polygon fill="midnightblue" stroke="midnightblue" points="1422.5,-151.7 1426,-161.7 1429.5,-151.71 1422.5,-151.7"/>
</g>
<!-- Node9 -->
<g id="node9" class="node">
<title>Node9</title>
<g id="a_node9"><a xlink:href="dialects_2core_2core_8h.html" target="_top" xlink:title=" ">
<polygon fill="none" stroke="black" points="1555,-84 1555,-114 1707,-114 1707,-84 1555,-84"/>
<text text-anchor="start" x="1563" y="-102" font-family="Helvetica,sans-Serif" font-size="10.00">/home/runner/work/thorin2</text>
<text text-anchor="middle" x="1631" y="-91" font-family="Helvetica,sans-Serif" font-size="10.00">/thorin2/dialects/core/core.h</text>
</a>
</g>
</g>
<!-- Node6&#45;&gt;Node9 -->
<g id="edge8" class="edge">
<title>Node6&#45;&gt;Node9</title>
<path fill="none" stroke="midnightblue" d="M1473.5,-158.39C1509.87,-144.9 1559.39,-126.55 1593.13,-114.04"/>
<polygon fill="midnightblue" stroke="midnightblue" points="1472.24,-155.13 1464.08,-161.88 1474.67,-161.69 1472.24,-155.13"/>
</g>
<!-- Node10 -->
<g id="node10" class="node">
<title>Node10</title>
<g id="a_node10"><a xlink:href="core_2normalizers_8cpp.html" target="_top" xlink:title=" ">
<polygon fill="none" stroke="black" points="1506,-0.5 1506,-41.5 1652,-41.5 1652,-0.5 1506,-0.5"/>
<text text-anchor="start" x="1514" y="-29.5" font-family="Helvetica,sans-Serif" font-size="10.00">/home/runner/work/thorin2</text>
<text text-anchor="start" x="1514" y="-18.5" font-family="Helvetica,sans-Serif" font-size="10.00">/thorin2/dialects/core</text>
<text text-anchor="middle" x="1579" y="-7.5" font-family="Helvetica,sans-Serif" font-size="10.00">/normalizers.cpp</text>
</a>
</g>
</g>
<!-- Node6&#45;&gt;Node10 -->
<g id="edge10" class="edge">
<title>Node6&#45;&gt;Node10</title>
<path fill="none" stroke="midnightblue" d="M1460.15,-156.42C1475.68,-146.61 1493.74,-133.87 1508,-120 1532.7,-95.98 1554.89,-62.51 1567.65,-41.57"/>
<polygon fill="midnightblue" stroke="midnightblue" points="1458.01,-153.62 1451.33,-161.85 1461.68,-159.58 1458.01,-153.62"/>
</g>
<!-- Node9&#45;&gt;Node10 -->
<g id="edge9" class="edge">
<title>Node9&#45;&gt;Node10</title>
<path fill="none" stroke="midnightblue" d="M1615.45,-75.27C1608.14,-64.58 1599.5,-51.96 1592.47,-41.68"/>
<polygon fill="midnightblue" stroke="midnightblue" points="1612.68,-77.43 1621.22,-83.7 1618.46,-73.48 1612.68,-77.43"/>
</g>
<!-- Node11&#45;&gt;Node7 -->
<g id="edge12" class="edge">
<title>Node11&#45;&gt;Node7</title>
<path fill="none" stroke="midnightblue" d="M1100.61,-158.41C1132.65,-146.81 1174.64,-131.61 1207.77,-119.63"/>
<polygon fill="midnightblue" stroke="midnightblue" points="1099.22,-155.19 1091.01,-161.88 1101.6,-161.77 1099.22,-155.19"/>
</g>
<!-- Node11&#45;&gt;Node12 -->
<g id="edge13" class="edge">
<title>Node11&#45;&gt;Node12</title>
<path fill="none" stroke="midnightblue" d="M1016.03,-156.59C998.94,-146.63 978.65,-133.73 962,-120 942.35,-103.79 945,-90.84 923,-78 915.45,-73.59 818.03,-51.17 751.02,-36.07"/>
<polygon fill="midnightblue" stroke="midnightblue" points="1014.73,-159.88 1025.15,-161.8 1018.21,-153.8 1014.73,-159.88"/>
</g>
<!-- Node13 -->
<g id="node13" class="node">
<title>Node13</title>
<g id="a_node13"><a xlink:href="dialects_2mem_2mem_8h.html" target="_top" xlink:title=" ">
<polygon fill="none" stroke="black" points="971.5,-84 971.5,-114 1132.5,-114 1132.5,-84 971.5,-84"/>
<text text-anchor="start" x="979.5" y="-102" font-family="Helvetica,sans-Serif" font-size="10.00">/home/runner/work/thorin2</text>
<text text-anchor="middle" x="1052" y="-91" font-family="Helvetica,sans-Serif" font-size="10.00">/thorin2/dialects/mem/mem.h</text>
</a>
</g>
</g>
<!-- Node11&#45;&gt;Node13 -->
<g id="edge14" class="edge">
<title>Node11&#45;&gt;Node13</title>
<path fill="none" stroke="midnightblue" d="M1052,-151.59C1052,-139.26 1052,-124.72 1052,-114.23"/>
<polygon fill="midnightblue" stroke="midnightblue" points="1048.5,-151.7 1052,-161.7 1055.5,-151.71 1048.5,-151.7"/>
</g>
<!-- Node15 -->
<g id="node15" class="node">
<title>Node15</title>
<g id="a_node15"><a xlink:href="ssa__constr_8cpp.html" target="_top" xlink:title=" ">
<polygon fill="none" stroke="black" points="1150.5,-0.5 1150.5,-41.5 1311.5,-41.5 1311.5,-0.5 1150.5,-0.5"/>
<text text-anchor="start" x="1158.5" y="-29.5" font-family="Helvetica,sans-Serif" font-size="10.00">/home/runner/work/thorin2</text>
<text text-anchor="start" x="1158.5" y="-18.5" font-family="Helvetica,sans-Serif" font-size="10.00">/thorin2/dialects/mem/passes</text>
<text text-anchor="middle" x="1231" y="-7.5" font-family="Helvetica,sans-Serif" font-size="10.00">/fp/ssa_constr.cpp</text>
</a>
</g>
</g>
<!-- Node11&#45;&gt;Node15 -->
<g id="edge20" class="edge">
<title>Node11&#45;&gt;Node15</title>
<path fill="none" stroke="midnightblue" d="M1087.59,-156.57C1104.5,-146.61 1124.55,-133.71 1141,-120 1143.01,-118.33 1187.17,-70.03 1212.87,-41.87"/>
<polygon fill="midnightblue" stroke="midnightblue" points="1085.47,-153.75 1078.56,-161.78 1088.97,-159.81 1085.47,-153.75"/>
</g>
<!-- Node17 -->
<g id="node17" class="node">
<title>Node17</title>
<g id="a_node17"><a xlink:href="mem_2normalizers_8cpp.html" target="_top" xlink:title=" ">
<polygon fill="none" stroke="black" points="530.5,-84 530.5,-114 735.5,-114 735.5,-84 530.5,-84"/>
<text text-anchor="start" x="538.5" y="-102" font-family="Helvetica,sans-Serif" font-size="10.00">/home/runner/work/thorin2</text>
<text text-anchor="middle" x="633" y="-91" font-family="Helvetica,sans-Serif" font-size="10.00">/thorin2/dialects/mem/normalizers.cpp</text>
</a>
</g>
</g>
<!-- Node11&#45;&gt;Node17 -->
<g id="edge19" class="edge">
<title>Node11&#45;&gt;Node17</title>
<path fill="none" stroke="midnightblue" d="M964.75,-160.17C889.64,-146.55 782.29,-127.08 710.24,-114.01"/>
<polygon fill="midnightblue" stroke="midnightblue" points="964.2,-163.63 974.66,-161.97 965.45,-156.74 964.2,-163.63"/>
</g>
<!-- Node18 -->
<g id="node18" class="node">
<title>Node18</title>
<g id="a_node18"><a xlink:href="remem__elim_8cpp.html" target="_top" xlink:title=" ">
<polygon fill="none" stroke="black" points="753.5,-78.5 753.5,-119.5 914.5,-119.5 914.5,-78.5 753.5,-78.5"/>
<text text-anchor="start" x="761.5" y="-107.5" font-family="Helvetica,sans-Serif" font-size="10.00">/home/runner/work/thorin2</text>
<text text-anchor="start" x="761.5" y="-96.5" font-family="Helvetica,sans-Serif" font-size="10.00">/thorin2/dialects/mem/passes</text>
<text text-anchor="middle" x="834" y="-85.5" font-family="Helvetica,sans-Serif" font-size="10.00">/rw/remem_elim.cpp</text>
</a>
</g>
</g>
<!-- Node11&#45;&gt;Node18 -->
<g id="edge21" class="edge">
<title>Node11&#45;&gt;Node18</title>
<path fill="none" stroke="midnightblue" d="M1002.19,-158.64C968.76,-146.98 924.67,-131.61 890.02,-119.53"/>
<polygon fill="midnightblue" stroke="midnightblue" points="1001.17,-161.98 1011.76,-161.97 1003.47,-155.37 1001.17,-161.98"/>
</g>
<!-- Node13&#45;&gt;Node12 -->
<g id="edge15" class="edge">
<title>Node13&#45;&gt;Node12</title>
<path fill="none" stroke="midnightblue" d="M975.65,-81.9C969.34,-80.58 963.06,-79.27 957,-78 879.69,-61.87 860.31,-58.13 783,-42 773.76,-40.07 764.02,-38.03 754.43,-36.02"/>
<polygon fill="midnightblue" stroke="midnightblue" points="975.06,-85.35 985.57,-83.98 976.5,-78.5 975.06,-85.35"/>
</g>
<!-- Node14 -->
<g id="node14" class="node">
<title>Node14</title>
<g id="a_node14"><a xlink:href="copy__prop_8cpp.html" target="_top" xlink:title=" ">
<polygon fill="none" stroke="black" points="792.5,-0.5 792.5,-41.5 953.5,-41.5 953.5,-0.5 792.5,-0.5"/>
<text text-anchor="start" x="800.5" y="-29.5" font-family="Helvetica,sans-Serif" font-size="10.00">/home/runner/work/thorin2</text>
<text text-anchor="start" x="800.5" y="-18.5" font-family="Helvetica,sans-Serif" font-size="10.00">/thorin2/dialects/mem/passes</text>
<text text-anchor="middle" x="873" y="-7.5" font-family="Helvetica,sans-Serif" font-size="10.00">/fp/copy_prop.cpp</text>
</a>
</g>
</g>
<!-- Node13&#45;&gt;Node14 -->
<g id="edge16" class="edge">
<title>Node13&#45;&gt;Node14</title>
<path fill="none" stroke="midnightblue" d="M1009.5,-79.96C982.33,-68.42 947.1,-53.46 919.23,-41.63"/>
<polygon fill="midnightblue" stroke="midnightblue" points="1008.18,-83.2 1018.75,-83.88 1010.91,-76.75 1008.18,-83.2"/>
</g>
<!-- Node13&#45;&gt;Node15 -->
<g id="edge17" class="edge">
<title>Node13&#45;&gt;Node15</title>
<path fill="none" stroke="midnightblue" d="M1094.5,-79.96C1121.67,-68.42 1156.9,-53.46 1184.77,-41.63"/>
<polygon fill="midnightblue" stroke="midnightblue" points="1093.09,-76.75 1085.25,-83.88 1095.82,-83.2 1093.09,-76.75"/>
</g>
<!-- Node16 -->
<g id="node16" class="node">
<title>Node16</title>
<g id="a_node16"><a xlink:href="alloc2malloc_8cpp.html" target="_top" xlink:title=" ">
<polygon fill="none" stroke="black" points="971.5,-0.5 971.5,-41.5 1132.5,-41.5 1132.5,-0.5 971.5,-0.5"/>
<text text-anchor="start" x="979.5" y="-29.5" font-family="Helvetica,sans-Serif" font-size="10.00">/home/runner/work/thorin2</text>
<text text-anchor="start" x="979.5" y="-18.5" font-family="Helvetica,sans-Serif" font-size="10.00">/thorin2/dialects/mem/passes</text>
<text text-anchor="middle" x="1052" y="-7.5" font-family="Helvetica,sans-Serif" font-size="10.00">/rw/alloc2malloc.cpp</text>
</a>
</g>
</g>
<!-- Node13&#45;&gt;Node16 -->
<g id="edge18" class="edge">
<title>Node13&#45;&gt;Node16</title>
<path fill="none" stroke="midnightblue" d="M1052,-73.66C1052,-63.33 1052,-51.44 1052,-41.68"/>
<polygon fill="midnightblue" stroke="midnightblue" points="1048.5,-73.7 1052,-83.7 1055.5,-73.71 1048.5,-73.7"/>
</g>
<!-- Node21&#45;&gt;Node20 -->
<g id="edge28" class="edge">
<title>Node21&#45;&gt;Node20</title>
<path fill="none" stroke="midnightblue" d="M1800.32,-151.59C1800.48,-139.26 1800.67,-124.72 1800.81,-114.23"/>
<polygon fill="midnightblue" stroke="midnightblue" points="1796.82,-151.66 1800.19,-161.7 1803.82,-151.75 1796.82,-151.66"/>
</g>
</g>
</svg>
