<?xml version="1.0" encoding="UTF-8" standalone="no"?>
<!DOCTYPE svg PUBLIC "-//W3C//DTD SVG 1.1//EN"
 "http://www.w3.org/Graphics/SVG/1.1/DTD/svg11.dtd">
<!-- Generated by graphviz version 2.43.0 (0)
 -->
<!-- Title: thorin Pages: 1 -->
<svg width="272pt" height="508pt"
 viewBox="0.00 0.00 271.50 508.00" xmlns="http://www.w3.org/2000/svg" xmlns:xlink="http://www.w3.org/1999/xlink">
<g id="graph0" class="graph" transform="scale(1 1) rotate(0) translate(4 504)">
<title>thorin</title>
<g id="clust1" class="cluster">
<title>clusterdir_c4168c80b7484587a21dc92c326c695e</title>
<g id="a_clust1"><a xlink:href="dir_c4168c80b7484587a21dc92c326c695e.html" target="_top">
<polygon fill="#edf0f7" stroke="#404040" stroke-width="2" points="8,-8 8,-492 198,-492 198,-8 8,-8"/>
</a>
</g>
</g>
<!-- dir_c4168c80b7484587a21dc92c326c695e -->
<g id="node1" class="node">
<title>dir_c4168c80b7484587a21dc92c326c695e</title>
<text text-anchor="middle" x="109" y="-463.5" font-family="Helvetica,sans-Serif" font-size="10.00">thorin</text>
</g>
<!-- dir_91cc3e6bd7c42aaa24383bdfa6f52de6 -->
<g id="node2" class="node">
<title>dir_91cc3e6bd7c42aaa24383bdfa6f52de6</title>
<g id="a_node2"><a xlink:href="dir_91cc3e6bd7c42aaa24383bdfa6f52de6.html" target="_top" xlink:title="analyses">
<polygon fill="#a2b4d6" stroke="#404040" points="96,-124 36,-124 36,-88 96,-88 96,-124"/>
<text text-anchor="middle" x="66" y="-103.5" font-family="Helvetica,sans-Serif" font-size="10.00">analyses</text>
</a>
</g>
</g>
<!-- dir_c4168c80b7484587a21dc92c326c695e&#45;&gt;dir_91cc3e6bd7c42aaa24383bdfa6f52de6 -->
<g id="edge2" class="edge">
<title>dir_c4168c80b7484587a21dc92c326c695e&#45;&gt;dir_91cc3e6bd7c42aaa24383bdfa6f52de6</title>
<path fill="none" stroke="black" d="M103.22,-447.84C91.78,-413.91 67.34,-341.36 67,-340 51.43,-277.61 53.89,-260.3 53,-196 52.78,-180 51.08,-175.88 53,-160 54.02,-151.53 55.93,-142.47 57.98,-134.28"/>
<polygon fill="black" stroke="black" points="61.4,-135.03 60.59,-124.47 54.64,-133.23 61.4,-135.03"/>
<g id="a_edge2&#45;headlabel"><a xlink:href="dir_000037_000002.html" target="_top" xlink:title="7">
<text text-anchor="middle" x="63.22" y="-136.74" font-family="Helvetica,sans-Serif" font-size="10.00">7</text>
</a>
</g>
</g>
<!-- dir_e925b2e9311ea88d6ed8c8d868701100 -->
<g id="node3" class="node">
<title>dir_e925b2e9311ea88d6ed8c8d868701100</title>
<g id="a_node3"><a xlink:href="dir_e925b2e9311ea88d6ed8c8d868701100.html" target="_top" xlink:title="be">
<polygon fill="#a2b4d6" stroke="#404040" points="130,-340 76,-340 76,-304 130,-304 130,-340"/>
<text text-anchor="middle" x="103" y="-319.5" font-family="Helvetica,sans-Serif" font-size="10.00">be</text>
</a>
</g>
</g>
<!-- dir_c4168c80b7484587a21dc92c326c695e&#45;&gt;dir_e925b2e9311ea88d6ed8c8d868701100 -->
<g id="edge5" class="edge">
<title>dir_c4168c80b7484587a21dc92c326c695e&#45;&gt;dir_e925b2e9311ea88d6ed8c8d868701100</title>
<path fill="none" stroke="black" d="M108.28,-447.87C107.25,-423.67 105.38,-379.21 104.16,-350.39"/>
<polygon fill="black" stroke="black" points="107.65,-350.03 103.73,-340.19 100.65,-350.33 107.65,-350.03"/>
<g id="a_edge5&#45;headlabel"><a xlink:href="dir_000037_000004.html" target="_top" xlink:title="2">
<text text-anchor="middle" x="110.63" y="-351" font-family="Helvetica,sans-Serif" font-size="10.00">2</text>
</a>
</g>
</g>
<!-- dir_bdc7e8131cbf0032850c465464da8867 -->
<g id="node4" class="node">
<title>dir_bdc7e8131cbf0032850c465464da8867</title>
<g id="a_node4"><a xlink:href="dir_bdc7e8131cbf0032850c465464da8867.html" target="_top" xlink:title="fe">
<polygon fill="#a2b4d6" stroke="#404040" points="70,-412 16,-412 16,-376 70,-376 70,-412"/>
<text text-anchor="middle" x="43" y="-391.5" font-family="Helvetica,sans-Serif" font-size="10.00">fe</text>
</a>
</g>
</g>
<!-- dir_c4168c80b7484587a21dc92c326c695e&#45;&gt;dir_bdc7e8131cbf0032850c465464da8867 -->
<g id="edge4" class="edge">
<title>dir_c4168c80b7484587a21dc92c326c695e&#45;&gt;dir_bdc7e8131cbf0032850c465464da8867</title>
<path fill="none" stroke="black" d="M92.69,-447.7C84.69,-439.22 74.93,-428.86 66.18,-419.58"/>
<polygon fill="black" stroke="black" points="68.53,-416.98 59.13,-412.1 63.44,-421.78 68.53,-416.98"/>
<g id="a_edge4&#45;headlabel"><a xlink:href="dir_000037_000018.html" target="_top" xlink:title="1">
<text text-anchor="middle" x="73.07" y="-415.15" font-family="Helvetica,sans-Serif" font-size="10.00">1</text>
</a>
</g>
</g>
<!-- dir_02386abad8cd81366000917a379dc307 -->
<g id="node5" class="node">
<title>dir_02386abad8cd81366000917a379dc307</title>
<g id="a_node5"><a xlink:href="dir_02386abad8cd81366000917a379dc307.html" target="_top" xlink:title="pass">
<polygon fill="#a2b4d6" stroke="#404040" points="130,-196 76,-196 76,-160 130,-160 130,-196"/>
<text text-anchor="middle" x="103" y="-175.5" font-family="Helvetica,sans-Serif" font-size="10.00">pass</text>
</a>
</g>
</g>
<!-- dir_c4168c80b7484587a21dc92c326c695e&#45;&gt;dir_02386abad8cd81366000917a379dc307 -->
<g id="edge1" class="edge">
<title>dir_c4168c80b7484587a21dc92c326c695e&#45;&gt;dir_02386abad8cd81366000917a379dc307</title>
<path fill="none" stroke="black" d="M116.01,-447.92C131.02,-408.81 163.04,-310.16 139,-232 135.99,-222.22 130.49,-212.62 124.68,-204.33"/>
<polygon fill="black" stroke="black" points="127.41,-202.13 118.61,-196.23 121.81,-206.33 127.41,-202.13"/>
<g id="a_edge1&#45;headlabel"><a xlink:href="dir_000037_000028.html" target="_top" xlink:title="18">
<text text-anchor="middle" x="131.83" y="-200.8" font-family="Helvetica,sans-Serif" font-size="10.00">18</text>
</a>
</g>
</g>
<!-- dir_af13e0a143b7ca68f7428894b6ff07d9 -->
<g id="node7" class="node">
<title>dir_af13e0a143b7ca68f7428894b6ff07d9</title>
<g id="a_node7"><a xlink:href="dir_af13e0a143b7ca68f7428894b6ff07d9.html" target="_top" xlink:title="util">
<polygon fill="#a2b4d6" stroke="#404040" points="142,-52 88,-52 88,-16 142,-16 142,-52"/>
<text text-anchor="middle" x="115" y="-31.5" font-family="Helvetica,sans-Serif" font-size="10.00">util</text>
</a>
</g>
</g>
<!-- dir_c4168c80b7484587a21dc92c326c695e&#45;&gt;dir_af13e0a143b7ca68f7428894b6ff07d9 -->
<g id="edge3" class="edge">
<title>dir_c4168c80b7484587a21dc92c326c695e&#45;&gt;dir_af13e0a143b7ca68f7428894b6ff07d9</title>
<path fill="none" stroke="black" d="M126.36,-447.93C149.89,-422.89 189,-373.65 189,-323 189,-323 189,-323 189,-177 189,-131.9 159.29,-86.94 137.52,-60.05"/>
<polygon fill="black" stroke="black" points="140.15,-57.74 131.06,-52.31 134.77,-62.23 140.15,-57.74"/>
<g id="a_edge3&#45;headlabel"><a xlink:href="dir_000037_000038.html" target="_top" xlink:title="38">
<text text-anchor="middle" x="144.63" y="-56.19" font-family="Helvetica,sans-Serif" font-size="10.00">38</text>
</a>
</g>
</g>
<!-- dir_91cc3e6bd7c42aaa24383bdfa6f52de6&#45;&gt;dir_af13e0a143b7ca68f7428894b6ff07d9 -->
<g id="edge6" class="edge">
<title>dir_91cc3e6bd7c42aaa24383bdfa6f52de6&#45;&gt;dir_af13e0a143b7ca68f7428894b6ff07d9</title>
<path fill="none" stroke="black" d="M78.11,-87.7C83.87,-79.47 90.86,-69.48 97.21,-60.42"/>
<polygon fill="black" stroke="black" points="100.16,-62.3 103.03,-52.1 94.42,-58.29 100.16,-62.3"/>
<g id="a_edge6&#45;headlabel"><a xlink:href="dir_000002_000038.html" target="_top" xlink:title="9">
<text text-anchor="middle" x="100.42" y="-64.38" font-family="Helvetica,sans-Serif" font-size="10.00">9</text>
</a>
</g>
</g>
<!-- dir_e925b2e9311ea88d6ed8c8d868701100&#45;&gt;dir_91cc3e6bd7c42aaa24383bdfa6f52de6 -->
<g id="edge8" class="edge">
<title>dir_e925b2e9311ea88d6ed8c8d868701100&#45;&gt;dir_91cc3e6bd7c42aaa24383bdfa6f52de6</title>
<path fill="none" stroke="black" d="M87.42,-303.76C79.67,-294.02 71.09,-281.17 67,-268 52.98,-222.92 57.03,-167.24 61.4,-134.57"/>
<polygon fill="black" stroke="black" points="64.9,-134.82 62.87,-124.42 57.97,-133.82 64.9,-134.82"/>
<g id="a_edge8&#45;headlabel"><a xlink:href="dir_000004_000002.html" target="_top" xlink:title="1">
<text text-anchor="middle" x="67.2" y="-136.29" font-family="Helvetica,sans-Serif" font-size="10.00">1</text>
</a>
</g>
</g>
<!-- dir_5e1a14d2df38e6ee42ace67cdb12bbb6 -->
<g id="node6" class="node">
<title>dir_5e1a14d2df38e6ee42ace67cdb12bbb6</title>
<g id="a_node6"><a xlink:href="dir_5e1a14d2df38e6ee42ace67cdb12bbb6.html" target="_top" xlink:title="phase">
<polygon fill="#a2b4d6" stroke="#404040" points="130,-268 76,-268 76,-232 130,-232 130,-268"/>
<text text-anchor="middle" x="103" y="-247.5" font-family="Helvetica,sans-Serif" font-size="10.00">phase</text>
</a>
</g>
</g>
<!-- dir_e925b2e9311ea88d6ed8c8d868701100&#45;&gt;dir_5e1a14d2df38e6ee42ace67cdb12bbb6 -->
<g id="edge7" class="edge">
<title>dir_e925b2e9311ea88d6ed8c8d868701100&#45;&gt;dir_5e1a14d2df38e6ee42ace67cdb12bbb6</title>
<path fill="none" stroke="black" d="M103,-303.7C103,-295.98 103,-286.71 103,-278.11"/>
<polygon fill="black" stroke="black" points="106.5,-278.1 103,-268.1 99.5,-278.1 106.5,-278.1"/>
<g id="a_edge7&#45;headlabel"><a xlink:href="dir_000004_000033.html" target="_top" xlink:title="1">
<text text-anchor="middle" x="109.34" y="-279.2" font-family="Helvetica,sans-Serif" font-size="10.00">1</text>
</a>
</g>
</g>
<!-- dir_e925b2e9311ea88d6ed8c8d868701100&#45;&gt;dir_af13e0a143b7ca68f7428894b6ff07d9 -->
<g id="edge9" class="edge">
<title>dir_e925b2e9311ea88d6ed8c8d868701100&#45;&gt;dir_af13e0a143b7ca68f7428894b6ff07d9</title>
<path fill="none" stroke="black" d="M118.61,-303.77C126.37,-294.03 134.95,-281.18 139,-268 161.19,-195.85 138.58,-105.83 124.48,-61.79"/>
<polygon fill="black" stroke="black" points="127.74,-60.51 121.27,-52.12 121.09,-62.71 127.74,-60.51"/>
<g id="a_edge9&#45;headlabel"><a xlink:href="dir_000004_000038.html" target="_top" xlink:title="2">
<text text-anchor="middle" x="131.56" y="-60.53" font-family="Helvetica,sans-Serif" font-size="10.00">2</text>
</a>
</g>
</g>
<!-- dir_bdc7e8131cbf0032850c465464da8867&#45;&gt;dir_e925b2e9311ea88d6ed8c8d868701100 -->
<g id="edge11" class="edge">
<title>dir_bdc7e8131cbf0032850c465464da8867&#45;&gt;dir_e925b2e9311ea88d6ed8c8d868701100</title>
<path fill="none" stroke="black" d="M57.83,-375.7C65.02,-367.3 73.8,-357.07 81.69,-347.86"/>
<polygon fill="black" stroke="black" points="84.49,-349.97 88.34,-340.1 79.17,-345.42 84.49,-349.97"/>
<g id="a_edge11&#45;headlabel"><a xlink:href="dir_000018_000004.html" target="_top" xlink:title="1">
<text text-anchor="middle" x="84.31" y="-352.05" font-family="Helvetica,sans-Serif" font-size="10.00">1</text>
</a>
</g>
</g>
<!-- dir_bdc7e8131cbf0032850c465464da8867&#45;&gt;dir_af13e0a143b7ca68f7428894b6ff07d9 -->
<g id="edge10" class="edge">
<title>dir_bdc7e8131cbf0032850c465464da8867&#45;&gt;dir_af13e0a143b7ca68f7428894b6ff07d9</title>
<path fill="none" stroke="black" d="M37.74,-375.7C30.14,-349.14 17,-296.61 17,-251 17,-251 17,-251 17,-177 17,-137.2 5.51,-121.5 27,-88 38.89,-69.46 59.78,-56.48 78.23,-48"/>
<polygon fill="black" stroke="black" points="79.79,-51.14 87.59,-43.97 77.02,-44.71 79.79,-51.14"/>
<g id="a_edge10&#45;headlabel"><a xlink:href="dir_000018_000038.html" target="_top" xlink:title="6">
<text text-anchor="middle" x="77.61" y="-52.67" font-family="Helvetica,sans-Serif" font-size="10.00">6</text>
</a>
</g>
</g>
<!-- dir_02386abad8cd81366000917a379dc307&#45;&gt;dir_91cc3e6bd7c42aaa24383bdfa6f52de6 -->
<g id="edge15" class="edge">
<title>dir_02386abad8cd81366000917a379dc307&#45;&gt;dir_91cc3e6bd7c42aaa24383bdfa6f52de6</title>
<path fill="none" stroke="black" d="M93.85,-159.7C89.6,-151.64 84.44,-141.89 79.73,-132.98"/>
<polygon fill="black" stroke="black" points="82.81,-131.31 75.04,-124.1 76.62,-134.58 82.81,-131.31"/>
<g id="a_edge15&#45;headlabel"><a xlink:href="dir_000028_000002.html" target="_top" xlink:title="1">
<text text-anchor="middle" x="87" y="-130.66" font-family="Helvetica,sans-Serif" font-size="10.00">1</text>
</a>
</g>
</g>
<!-- dir_02386abad8cd81366000917a379dc307&#45;&gt;dir_5e1a14d2df38e6ee42ace67cdb12bbb6 -->
<g id="edge12" class="edge">
<title>dir_02386abad8cd81366000917a379dc307&#45;&gt;dir_5e1a14d2df38e6ee42ace67cdb12bbb6</title>
<path fill="none" stroke="black" d="M108.9,-196.1C109.7,-203.79 109.94,-213.05 109.6,-221.67"/>
<polygon fill="black" stroke="black" points="106.11,-221.48 108.92,-231.7 113.09,-221.96 106.11,-221.48"/>
<g id="a_edge12&#45;headlabel"><a xlink:href="dir_000028_000033.html" target="_top" xlink:title="2">
<text text-anchor="middle" x="103.52" y="-215.2" font-family="Helvetica,sans-Serif" font-size="10.00">2</text>
</a>
</g>
</g>
<!-- dir_02386abad8cd81366000917a379dc307&#45;&gt;dir_af13e0a143b7ca68f7428894b6ff07d9 -->
<g id="edge13" class="edge">
<title>dir_02386abad8cd81366000917a379dc307&#45;&gt;dir_af13e0a143b7ca68f7428894b6ff07d9</title>
<path fill="none" stroke="black" d="M104.45,-159.87C106.49,-135.67 110.25,-91.21 112.69,-62.39"/>
<polygon fill="black" stroke="black" points="116.19,-62.45 113.55,-52.19 109.22,-61.86 116.19,-62.45"/>
<g id="a_edge13&#45;headlabel"><a xlink:href="dir_000028_000038.html" target="_top" xlink:title="2">
<text text-anchor="middle" x="118.72" y="-63.77" font-family="Helvetica,sans-Serif" font-size="10.00">2</text>
</a>
</g>
</g>
<!-- dir_dc7f769b3d5332bd9f89fd345831c3ed -->
<g id="node8" class="node">
<title>dir_dc7f769b3d5332bd9f89fd345831c3ed</title>
<g id="a_node8"><a xlink:href="dir_dc7f769b3d5332bd9f89fd345831c3ed.html" target="_top" xlink:title="dialects">
<polygon fill="none" stroke="red" points="263.5,-124 208.5,-124 208.5,-88 263.5,-88 263.5,-124"/>
<text text-anchor="middle" x="236" y="-103.5" font-family="Helvetica,sans-Serif" font-size="10.00">dialects</text>
</a>
</g>
</g>
<!-- dir_02386abad8cd81366000917a379dc307&#45;&gt;dir_dc7f769b3d5332bd9f89fd345831c3ed -->
<g id="edge14" class="edge">
<title>dir_02386abad8cd81366000917a379dc307&#45;&gt;dir_dc7f769b3d5332bd9f89fd345831c3ed</title>
<path fill="none" stroke="black" d="M130.24,-162.67C150.18,-152.17 177.48,-137.8 199.34,-126.29"/>
<polygon fill="black" stroke="black" points="201.12,-129.31 208.34,-121.56 197.86,-123.12 201.12,-129.31"/>
<g id="a_edge14&#45;headlabel"><a xlink:href="dir_000028_000012.html" target="_top" xlink:title="4">
<text text-anchor="middle" x="199.27" y="-131" font-family="Helvetica,sans-Serif" font-size="10.00">4</text>
</a>
</g>
</g>
<!-- dir_5e1a14d2df38e6ee42ace67cdb12bbb6&#45;&gt;dir_02386abad8cd81366000917a379dc307 -->
<g id="edge16" class="edge">
<title>dir_5e1a14d2df38e6ee42ace67cdb12bbb6&#45;&gt;dir_02386abad8cd81366000917a379dc307</title>
<path fill="none" stroke="black" d="M97.08,-231.7C96.29,-223.98 96.06,-214.71 96.4,-206.11"/>
<polygon fill="black" stroke="black" points="99.9,-206.32 97.1,-196.1 92.92,-205.84 99.9,-206.32"/>
<g id="a_edge16&#45;headlabel"><a xlink:href="dir_000033_000028.html" target="_top" xlink:title="1">
<text text-anchor="middle" x="102.48" y="-207.61" font-family="Helvetica,sans-Serif" font-size="10.00">1</text>
</a>
</g>
</g>
</g>
</svg>
