<?xml version="1.0" encoding="UTF-8" standalone="no"?>
<!DOCTYPE svg PUBLIC "-//W3C//DTD SVG 1.1//EN"
 "http://www.w3.org/Graphics/SVG/1.1/DTD/svg11.dtd">
<!-- Generated by graphviz version 2.43.0 (0)
 -->
<!-- Title: dialects/regex/pass Pages: 1 -->
<svg width="292pt" height="117pt"
 viewBox="0.00 0.00 291.50 117.00" xmlns="http://www.w3.org/2000/svg" xmlns:xlink="http://www.w3.org/1999/xlink">
<g id="graph0" class="graph" transform="scale(1 1) rotate(0) translate(4 113)">
<title>dialects/regex/pass</title>
<g id="clust1" class="cluster">
<title>clusterdir_8913a235bb4f43697549ba55f049b2aa</title>
<g id="a_clust1"><a xlink:href="dir_8913a235bb4f43697549ba55f049b2aa.html" target="_top" xlink:title="regex">
<polygon fill="#daedff" stroke="#7f7f7f" stroke-dasharray="5,2" points="116.5,-47 116.5,-101 172.5,-101 172.5,-47 116.5,-47"/>
<text text-anchor="middle" x="144.5" y="-89" font-family="Helvetica,sans-Serif" font-size="10.00">regex</text>
</a>
</g>
</g>
<!-- dir_4445345e4c7b77181edc0813f2ff9576 -->
<g id="node1" class="node">
<title>dir_4445345e4c7b77181edc0813f2ff9576</title>
<g id="a_node1"><a xlink:href="dir_4445345e4c7b77181edc0813f2ff9576.html" target="_top" xlink:title="pass">
<polygon fill="#daedff" stroke="#404040" stroke-width="2" points="164,-74 125,-74 125,-55 164,-55 164,-74"/>
<text text-anchor="middle" x="144.5" y="-62" font-family="Helvetica,sans-Serif" font-size="10.00">pass</text>
</a>
</g>
</g>
<!-- dir_4fef79e7177ba769987a8da36c892c5f -->
<g id="node2" class="node">
<title>dir_4fef79e7177ba769987a8da36c892c5f</title>
<g id="a_node2"><a xlink:href="dir_4fef79e7177ba769987a8da36c892c5f.html" target="_top" xlink:title="build">
<polygon fill="#daedff" stroke="red" points="41,-19 0,-19 0,0 41,0 41,-19"/>
<text text-anchor="middle" x="20.5" y="-7" font-family="Helvetica,sans-Serif" font-size="10.00">build</text>
</a>
</g>
</g>
<!-- dir_4445345e4c7b77181edc0813f2ff9576&#45;&gt;dir_4fef79e7177ba769987a8da36c892c5f -->
<g id="edge1" class="edge">
<title>dir_4445345e4c7b77181edc0813f2ff9576&#45;&gt;dir_4fef79e7177ba769987a8da36c892c5f</title>
<path fill="none" stroke="#63b8ff" d="M124.85,-55.1C104.65,-46.47 72.97,-32.93 49.81,-23.03"/>
<polygon fill="#63b8ff" stroke="#63b8ff" points="51.04,-19.75 40.47,-19.03 48.29,-26.18 51.04,-19.75"/>
<g id="a_edge1&#45;headlabel"><a xlink:href="dir_000048_000008.html" target="_top" xlink:title="1">
<text text-anchor="middle" x="55.46" y="-16.05" font-family="Helvetica,sans-Serif" font-size="10.00" fill="#63b8ff">1</text>
</a>
</g>
</g>
<!-- dir_b377f326e5c4fac904997f328f2dc43f -->
<g id="node3" class="node">
<title>dir_b377f326e5c4fac904997f328f2dc43f</title>
<g id="a_node3"><a xlink:href="dir_b377f326e5c4fac904997f328f2dc43f.html" target="_top" xlink:title="direct">
<polygon fill="#daedff" stroke="red" stroke-dasharray="5,2" points="103.5,-19 59.5,-19 59.5,0 103.5,0 103.5,-19"/>
<text text-anchor="middle" x="81.5" y="-7" font-family="Helvetica,sans-Serif" font-size="10.00">direct</text>
</a>
</g>
</g>
<!-- dir_4445345e4c7b77181edc0813f2ff9576&#45;&gt;dir_b377f326e5c4fac904997f328f2dc43f -->
<g id="edge2" class="edge">
<title>dir_4445345e4c7b77181edc0813f2ff9576&#45;&gt;dir_b377f326e5c4fac904997f328f2dc43f</title>
<path fill="none" stroke="#63b8ff" d="M134.38,-54.98C125.06,-47.15 111.03,-35.34 99.76,-25.86"/>
<polygon fill="#63b8ff" stroke="#63b8ff" points="101.71,-22.93 91.81,-19.17 97.21,-28.29 101.71,-22.93"/>
<g id="a_edge2&#45;headlabel"><a xlink:href="dir_000048_000022.html" target="_top" xlink:title="1">
<text text-anchor="middle" x="106.29" y="-20.57" font-family="Helvetica,sans-Serif" font-size="10.00" fill="#63b8ff">1</text>
</a>
</g>
</g>
<!-- dir_c4168c80b7484587a21dc92c326c695e -->
<g id="node4" class="node">
<title>dir_c4168c80b7484587a21dc92c326c695e</title>
<g id="a_node4"><a xlink:href="dir_c4168c80b7484587a21dc92c326c695e.html" target="_top" xlink:title="thorin">
<polygon fill="#daedff" stroke="red" points="167,-19 122,-19 122,0 167,0 167,-19"/>
<text text-anchor="middle" x="144.5" y="-7" font-family="Helvetica,sans-Serif" font-size="10.00">thorin</text>
</a>
</g>
</g>
<!-- dir_4445345e4c7b77181edc0813f2ff9576&#45;&gt;dir_c4168c80b7484587a21dc92c326c695e -->
<g id="edge3" class="edge">
<title>dir_4445345e4c7b77181edc0813f2ff9576&#45;&gt;dir_c4168c80b7484587a21dc92c326c695e</title>
<path fill="none" stroke="#63b8ff" d="M144.5,-54.75C144.5,-47.8 144.5,-37.85 144.5,-29.13"/>
<polygon fill="#63b8ff" stroke="#63b8ff" points="148,-29.09 144.5,-19.09 141,-29.09 148,-29.09"/>
<g id="a_edge3&#45;headlabel"><a xlink:href="dir_000048_000061.html" target="_top" xlink:title="9">
<text text-anchor="middle" x="150.84" y="-30.18" font-family="Helvetica,sans-Serif" font-size="10.00" fill="#63b8ff">9</text>
</a>
</g>
</g>
<!-- dir_c418730755777f3d7ae8c6bca9740a18 -->
<g id="node5" class="node">
<title>dir_c418730755777f3d7ae8c6bca9740a18</title>
<g id="a_node5"><a xlink:href="dir_c418730755777f3d7ae8c6bca9740a18.html" target="_top" xlink:title="core">
<polygon fill="#daedff" stroke="red" stroke-dasharray="5,2" points="223.5,-19 185.5,-19 185.5,0 223.5,0 223.5,-19"/>
<text text-anchor="middle" x="204.5" y="-7" font-family="Helvetica,sans-Serif" font-size="10.00">core</text>
</a>
</g>
</g>
<!-- dir_4445345e4c7b77181edc0813f2ff9576&#45;&gt;dir_c418730755777f3d7ae8c6bca9740a18 -->
<g id="edge4" class="edge">
<title>dir_4445345e4c7b77181edc0813f2ff9576&#45;&gt;dir_c418730755777f3d7ae8c6bca9740a18</title>
<path fill="none" stroke="#63b8ff" d="M154.14,-54.98C163.01,-47.15 176.37,-35.34 187.11,-25.86"/>
<polygon fill="#63b8ff" stroke="#63b8ff" points="189.51,-28.41 194.68,-19.17 184.87,-23.17 189.51,-28.41"/>
<g id="a_edge4&#45;headlabel"><a xlink:href="dir_000048_000015.html" target="_top" xlink:title="2">
<text text-anchor="middle" x="188.69" y="-30.42" font-family="Helvetica,sans-Serif" font-size="10.00" fill="#63b8ff">2</text>
</a>
</g>
</g>
<!-- dir_f4f507027349df35d55005177e6b6800 -->
<g id="node6" class="node">
<title>dir_f4f507027349df35d55005177e6b6800</title>
<g id="a_node6"><a xlink:href="dir_f4f507027349df35d55005177e6b6800.html" target="_top" xlink:title="mem">
<polygon fill="#daedff" stroke="red" stroke-dasharray="5,2" points="283.5,-19 241.5,-19 241.5,0 283.5,0 283.5,-19"/>
<text text-anchor="middle" x="262.5" y="-7" font-family="Helvetica,sans-Serif" font-size="10.00">mem</text>
</a>
</g>
</g>
<!-- dir_4445345e4c7b77181edc0813f2ff9576&#45;&gt;dir_f4f507027349df35d55005177e6b6800 -->
<g id="edge5" class="edge">
<title>dir_4445345e4c7b77181edc0813f2ff9576&#45;&gt;dir_f4f507027349df35d55005177e6b6800</title>
<path fill="none" stroke="#63b8ff" d="M163.46,-54.98C182.53,-46.42 212.16,-33.11 234.05,-23.28"/>
<polygon fill="#63b8ff" stroke="#63b8ff" points="235.51,-26.46 243.2,-19.17 232.64,-20.07 235.51,-26.46"/>
<g id="a_edge5&#45;headlabel"><a xlink:href="dir_000048_000037.html" target="_top" xlink:title="2">
<text text-anchor="middle" x="233.39" y="-28.02" font-family="Helvetica,sans-Serif" font-size="10.00" fill="#63b8ff">2</text>
</a>
</g>
</g>
</g>
</svg>
