<?xml version="1.0" encoding="UTF-8" standalone="no"?>
<!DOCTYPE svg PUBLIC "-//W3C//DTD SVG 1.1//EN"
 "http://www.w3.org/Graphics/SVG/1.1/DTD/svg11.dtd">
<!-- Generated by graphviz version 2.43.0 (0)
 -->
<!-- Title: src/mim/plug Pages: 1 -->
<svg width="892pt" height="126pt"
 viewBox="0.00 0.00 892.00 125.87" xmlns="http://www.w3.org/2000/svg" xmlns:xlink="http://www.w3.org/1999/xlink">
<g id="graph0" class="graph" transform="scale(1 1) rotate(0) translate(4 121.87)">
<title>src/mim/plug</title>
<g id="clust1" class="cluster">
<title>clusterdir_3f6d0e947440f9d0b42426d30577ffdc</title>
<g id="a_clust1"><a xlink:href="dir_3f6d0e947440f9d0b42426d30577ffdc.html" target="_top" xlink:title="mim">
<polygon fill="#daedff" stroke="#7f7f7f" stroke-dasharray="5,2" points="8,-39.87 8,-109.87 876,-109.87 876,-39.87 8,-39.87"/>
<text text-anchor="middle" x="442" y="-97.87" font-family="Helvetica,sans-Serif" font-size="10.00">mim</text>
</a>
</g>
</g>
<g id="clust2" class="cluster">
<title>clusterdir_07110a8747d2517ee97007224f1d2994</title>
<g id="a_clust2"><a xlink:href="dir_07110a8747d2517ee97007224f1d2994.html" target="_top">
<polygon fill="#daedff" stroke="#404040" stroke-width="2" points="16,-47.87 16,-82.87 868,-82.87 868,-47.87 16,-47.87"/>
</a>
</g>
</g>
<!-- dir_07110a8747d2517ee97007224f1d2994 -->
<g id="node1" class="node">
<title>dir_07110a8747d2517ee97007224f1d2994</title>
<text text-anchor="middle" x="841" y="-62.87" font-family="Helvetica,sans-Serif" font-size="10.00">plug</text>
</g>
<!-- dir_8c34c88b1970410abbbfcce932012c82 -->
<g id="node2" class="node">
<title>dir_8c34c88b1970410abbbfcce932012c82</title>
<g id="a_node2"><a xlink:href="dir_8c34c88b1970410abbbfcce932012c82.html" target="_top" xlink:title="affine">
<polygon fill="#4ea9ff" stroke="#404040" points="686,-74.87 642,-74.87 642,-55.87 686,-55.87 686,-74.87"/>
<text text-anchor="middle" x="664" y="-62.87" font-family="Helvetica,sans-Serif" font-size="10.00">affine</text>
</a>
</g>
</g>
<!-- dir_4fef79e7177ba769987a8da36c892c5f -->
<g id="node15" class="node">
<title>dir_4fef79e7177ba769987a8da36c892c5f</title>
<g id="a_node15"><a xlink:href="dir_4fef79e7177ba769987a8da36c892c5f.html" target="_top" xlink:title="build">
<polygon fill="#daedff" stroke="red" points="366.5,-19.87 325.5,-19.87 325.5,-0.87 366.5,-0.87 366.5,-19.87"/>
<text text-anchor="middle" x="346" y="-7.87" font-family="Helvetica,sans-Serif" font-size="10.00">build</text>
</a>
</g>
</g>
<!-- dir_8c34c88b1970410abbbfcce932012c82&#45;&gt;dir_4fef79e7177ba769987a8da36c892c5f -->
<g id="edge1" class="edge">
<title>dir_8c34c88b1970410abbbfcce932012c82&#45;&gt;dir_4fef79e7177ba769987a8da36c892c5f</title>
<g id="a_edge1"><a xlink:href="dir_000002_000016.html" target="_top">
<path fill="none" stroke="#63b8ff" d="M655.93,-55.76C650.13,-50.18 641.81,-43.33 633,-39.87 529.34,0.72 490.96,-37.73 376.72,-19.51"/>
<polygon fill="#63b8ff" stroke="#63b8ff" points="376.98,-16.01 366.53,-17.77 375.8,-22.91 376.98,-16.01"/>
</a>
</g>
<g id="a_edge1&#45;headlabel"><a xlink:href="dir_000002_000016.html" target="_top" xlink:title="1">
<text text-anchor="middle" x="381" y="-11.31" font-family="Helvetica,sans-Serif" font-size="10.00" fill="#63b8ff">1</text>
</a>
</g>
</g>
<!-- dir_d44c64559bbebec7f509842c48db8b23 -->
<g id="node16" class="node">
<title>dir_d44c64559bbebec7f509842c48db8b23</title>
<g id="a_node16"><a xlink:href="dir_d44c64559bbebec7f509842c48db8b23.html" target="_top" xlink:title="include">
<polygon fill="#daedff" stroke="red" points="437,-19.87 385,-19.87 385,-0.87 437,-0.87 437,-19.87"/>
<text text-anchor="middle" x="411" y="-7.87" font-family="Helvetica,sans-Serif" font-size="10.00">include</text>
</a>
</g>
</g>
<!-- dir_8c34c88b1970410abbbfcce932012c82&#45;&gt;dir_d44c64559bbebec7f509842c48db8b23 -->
<g id="edge2" class="edge">
<title>dir_8c34c88b1970410abbbfcce932012c82&#45;&gt;dir_d44c64559bbebec7f509842c48db8b23</title>
<g id="a_edge2"><a xlink:href="dir_000002_000036.html" target="_top">
<path fill="none" stroke="#63b8ff" d="M655.62,-55.66C649.81,-50.18 641.6,-43.49 633,-39.87 600.34,-26.14 501.58,-17.51 447.45,-13.68"/>
<polygon fill="#63b8ff" stroke="#63b8ff" points="447.47,-10.18 437.25,-12.98 446.99,-17.16 447.47,-10.18"/>
</a>
</g>
<g id="a_edge2&#45;headlabel"><a xlink:href="dir_000002_000036.html" target="_top" xlink:title="11">
<text text-anchor="middle" x="451.25" y="-5.09" font-family="Helvetica,sans-Serif" font-size="10.00" fill="#63b8ff">11</text>
</a>
</g>
</g>
<!-- dir_5846563cd8698f55b6851f31365c1d54 -->
<g id="node3" class="node">
<title>dir_5846563cd8698f55b6851f31365c1d54</title>
<g id="a_node3"><a xlink:href="dir_5846563cd8698f55b6851f31365c1d54.html" target="_top" xlink:title="autodiff">
<polygon fill="#4ea9ff" stroke="#404040" points="624,-74.87 570,-74.87 570,-55.87 624,-55.87 624,-74.87"/>
<text text-anchor="middle" x="597" y="-62.87" font-family="Helvetica,sans-Serif" font-size="10.00">autodiff</text>
</a>
</g>
</g>
<!-- dir_5846563cd8698f55b6851f31365c1d54&#45;&gt;dir_4fef79e7177ba769987a8da36c892c5f -->
<g id="edge3" class="edge">
<title>dir_5846563cd8698f55b6851f31365c1d54&#45;&gt;dir_4fef79e7177ba769987a8da36c892c5f</title>
<g id="a_edge3"><a xlink:href="dir_000009_000016.html" target="_top">
<path fill="none" stroke="#63b8ff" d="M587.35,-55.85C580.49,-50.32 570.79,-43.48 561,-39.87 486.34,-12.4 459.25,-33.87 376.63,-19.56"/>
<polygon fill="#63b8ff" stroke="#63b8ff" points="377.02,-16.07 366.55,-17.69 375.74,-22.96 377.02,-16.07"/>
</a>
</g>
<g id="a_edge3&#45;headlabel"><a xlink:href="dir_000009_000016.html" target="_top" xlink:title="1">
<text text-anchor="middle" x="381.07" y="-11.44" font-family="Helvetica,sans-Serif" font-size="10.00" fill="#63b8ff">1</text>
</a>
</g>
</g>
<!-- dir_5846563cd8698f55b6851f31365c1d54&#45;&gt;dir_d44c64559bbebec7f509842c48db8b23 -->
<g id="edge4" class="edge">
<title>dir_5846563cd8698f55b6851f31365c1d54&#45;&gt;dir_d44c64559bbebec7f509842c48db8b23</title>
<g id="a_edge4"><a xlink:href="dir_000009_000036.html" target="_top">
<path fill="none" stroke="#63b8ff" d="M586.95,-55.86C580.07,-50.48 570.5,-43.81 561,-39.87 523.93,-24.52 478.24,-17.36 447.1,-14.07"/>
<polygon fill="#63b8ff" stroke="#63b8ff" points="447.42,-10.58 437.13,-13.1 446.74,-17.55 447.42,-10.58"/>
</a>
</g>
<g id="a_edge4&#45;headlabel"><a xlink:href="dir_000009_000036.html" target="_top" xlink:title="37">
<text text-anchor="middle" x="451.28" y="-5.61" font-family="Helvetica,sans-Serif" font-size="10.00" fill="#63b8ff">37</text>
</a>
</g>
</g>
<!-- dir_a5f6124a4b526271d12e46c048dc5e78 -->
<g id="node4" class="node">
<title>dir_a5f6124a4b526271d12e46c048dc5e78</title>
<g id="a_node4"><a xlink:href="dir_a5f6124a4b526271d12e46c048dc5e78.html" target="_top" xlink:title="clos">
<polygon fill="#4ea9ff" stroke="#404040" points="552,-74.87 516,-74.87 516,-55.87 552,-55.87 552,-74.87"/>
<text text-anchor="middle" x="534" y="-62.87" font-family="Helvetica,sans-Serif" font-size="10.00">clos</text>
</a>
</g>
</g>
<!-- dir_a5f6124a4b526271d12e46c048dc5e78&#45;&gt;dir_4fef79e7177ba769987a8da36c892c5f -->
<g id="edge5" class="edge">
<title>dir_a5f6124a4b526271d12e46c048dc5e78&#45;&gt;dir_4fef79e7177ba769987a8da36c892c5f</title>
<g id="a_edge5"><a xlink:href="dir_000020_000016.html" target="_top">
<path fill="none" stroke="#63b8ff" d="M526.89,-55.71C521.91,-50.26 514.77,-43.57 507,-39.87 456.52,-15.85 435.7,-30.67 376.43,-19.58"/>
<polygon fill="#63b8ff" stroke="#63b8ff" points="377.07,-16.14 366.57,-17.57 375.67,-23 377.07,-16.14"/>
</a>
</g>
<g id="a_edge5&#45;headlabel"><a xlink:href="dir_000020_000016.html" target="_top" xlink:title="2">
<text text-anchor="middle" x="381.16" y="-11.58" font-family="Helvetica,sans-Serif" font-size="10.00" fill="#63b8ff">2</text>
</a>
</g>
</g>
<!-- dir_a5f6124a4b526271d12e46c048dc5e78&#45;&gt;dir_d44c64559bbebec7f509842c48db8b23 -->
<g id="edge6" class="edge">
<title>dir_a5f6124a4b526271d12e46c048dc5e78&#45;&gt;dir_d44c64559bbebec7f509842c48db8b23</title>
<g id="a_edge6"><a xlink:href="dir_000020_000036.html" target="_top">
<path fill="none" stroke="#63b8ff" d="M526.26,-55.58C521.23,-50.36 514.28,-43.97 507,-39.87 488.47,-29.44 465.72,-22.47 447.02,-18.04"/>
<polygon fill="#63b8ff" stroke="#63b8ff" points="447.63,-14.58 437.1,-15.83 446.1,-21.42 447.63,-14.58"/>
</a>
</g>
<g id="a_edge6&#45;headlabel"><a xlink:href="dir_000020_000036.html" target="_top" xlink:title="28">
<text text-anchor="middle" x="451.75" y="-10.09" font-family="Helvetica,sans-Serif" font-size="10.00" fill="#63b8ff">28</text>
</a>
</g>
</g>
<!-- dir_d34d55580b90d42b64eaea7eda64dfe6 -->
<g id="node5" class="node">
<title>dir_d34d55580b90d42b64eaea7eda64dfe6</title>
<g id="a_node5"><a xlink:href="dir_d34d55580b90d42b64eaea7eda64dfe6.html" target="_top" xlink:title="compile">
<polygon fill="#4ea9ff" stroke="#404040" points="498,-74.87 442,-74.87 442,-55.87 498,-55.87 498,-74.87"/>
<text text-anchor="middle" x="470" y="-62.87" font-family="Helvetica,sans-Serif" font-size="10.00">compile</text>
</a>
</g>
</g>
<!-- dir_d34d55580b90d42b64eaea7eda64dfe6&#45;&gt;dir_4fef79e7177ba769987a8da36c892c5f -->
<g id="edge7" class="edge">
<title>dir_d34d55580b90d42b64eaea7eda64dfe6&#45;&gt;dir_4fef79e7177ba769987a8da36c892c5f</title>
<g id="a_edge7"><a xlink:href="dir_000023_000016.html" target="_top">
<path fill="none" stroke="#63b8ff" d="M458.81,-55.82C451.71,-50.68 442.15,-44.3 433,-39.87 422.86,-34.97 397.26,-26.75 376.44,-20.4"/>
<polygon fill="#63b8ff" stroke="#63b8ff" points="377.27,-16.99 366.69,-17.45 375.25,-23.7 377.27,-16.99"/>
</a>
</g>
<g id="a_edge7&#45;headlabel"><a xlink:href="dir_000023_000016.html" target="_top" xlink:title="2">
<text text-anchor="middle" x="381.54" y="-12.82" font-family="Helvetica,sans-Serif" font-size="10.00" fill="#63b8ff">2</text>
</a>
</g>
</g>
<!-- dir_d34d55580b90d42b64eaea7eda64dfe6&#45;&gt;dir_d44c64559bbebec7f509842c48db8b23 -->
<g id="edge8" class="edge">
<title>dir_d34d55580b90d42b64eaea7eda64dfe6&#45;&gt;dir_d44c64559bbebec7f509842c48db8b23</title>
<g id="a_edge8"><a xlink:href="dir_000023_000036.html" target="_top">
<path fill="none" stroke="#63b8ff" d="M460.52,-55.86C451.8,-48.02 438.66,-36.22 428.1,-26.74"/>
<polygon fill="#63b8ff" stroke="#63b8ff" points="430.43,-24.12 420.65,-20.04 425.75,-29.33 430.43,-24.12"/>
</a>
</g>
<g id="a_edge8&#45;headlabel"><a xlink:href="dir_000023_000036.html" target="_top" xlink:title="18">
<text text-anchor="middle" x="435" y="-21.91" font-family="Helvetica,sans-Serif" font-size="10.00" fill="#63b8ff">18</text>
</a>
</g>
</g>
<!-- dir_33f06e44cc8d6c2d0a243c5e23f387bd -->
<g id="node6" class="node">
<title>dir_33f06e44cc8d6c2d0a243c5e23f387bd</title>
<g id="a_node6"><a xlink:href="dir_33f06e44cc8d6c2d0a243c5e23f387bd.html" target="_top" xlink:title="core">
<polygon fill="#4ea9ff" stroke="#404040" points="424,-74.87 386,-74.87 386,-55.87 424,-55.87 424,-74.87"/>
<text text-anchor="middle" x="405" y="-62.87" font-family="Helvetica,sans-Serif" font-size="10.00">core</text>
</a>
</g>
</g>
<!-- dir_33f06e44cc8d6c2d0a243c5e23f387bd&#45;&gt;dir_4fef79e7177ba769987a8da36c892c5f -->
<g id="edge9" class="edge">
<title>dir_33f06e44cc8d6c2d0a243c5e23f387bd&#45;&gt;dir_4fef79e7177ba769987a8da36c892c5f</title>
<g id="a_edge9"><a xlink:href="dir_000026_000016.html" target="_top">
<path fill="none" stroke="#63b8ff" d="M395.52,-55.86C386.8,-48.02 373.66,-36.22 363.1,-26.74"/>
<polygon fill="#63b8ff" stroke="#63b8ff" points="365.43,-24.12 355.65,-20.04 360.75,-29.33 365.43,-24.12"/>
</a>
</g>
<g id="a_edge9&#45;headlabel"><a xlink:href="dir_000026_000016.html" target="_top" xlink:title="1">
<text text-anchor="middle" x="370" y="-21.91" font-family="Helvetica,sans-Serif" font-size="10.00" fill="#63b8ff">1</text>
</a>
</g>
</g>
<!-- dir_33f06e44cc8d6c2d0a243c5e23f387bd&#45;&gt;dir_d44c64559bbebec7f509842c48db8b23 -->
<g id="edge10" class="edge">
<title>dir_33f06e44cc8d6c2d0a243c5e23f387bd&#45;&gt;dir_d44c64559bbebec7f509842c48db8b23</title>
<g id="a_edge10"><a xlink:href="dir_000026_000036.html" target="_top">
<path fill="none" stroke="#63b8ff" d="M405.99,-55.62C406.78,-48.68 407.9,-38.72 408.89,-30.01"/>
<polygon fill="#63b8ff" stroke="#63b8ff" points="412.38,-30.29 410.03,-19.96 405.42,-29.51 412.38,-30.29"/>
</a>
</g>
<g id="a_edge10&#45;headlabel"><a xlink:href="dir_000026_000036.html" target="_top" xlink:title="16">
<text text-anchor="middle" x="414.8" y="-31.68" font-family="Helvetica,sans-Serif" font-size="10.00" fill="#63b8ff">16</text>
</a>
</g>
</g>
<!-- dir_562b34b4ab42cde4b310ce77c87959df -->
<g id="node7" class="node">
<title>dir_562b34b4ab42cde4b310ce77c87959df</title>
<g id="a_node7"><a xlink:href="dir_562b34b4ab42cde4b310ce77c87959df.html" target="_top" xlink:title="demo">
<polygon fill="#4ea9ff" stroke="#404040" points="804,-74.87 760,-74.87 760,-55.87 804,-55.87 804,-74.87"/>
<text text-anchor="middle" x="782" y="-62.87" font-family="Helvetica,sans-Serif" font-size="10.00">demo</text>
</a>
</g>
</g>
<!-- dir_562b34b4ab42cde4b310ce77c87959df&#45;&gt;dir_d44c64559bbebec7f509842c48db8b23 -->
<g id="edge11" class="edge">
<title>dir_562b34b4ab42cde4b310ce77c87959df&#45;&gt;dir_d44c64559bbebec7f509842c48db8b23</title>
<g id="a_edge11"><a xlink:href="dir_000029_000036.html" target="_top">
<path fill="none" stroke="#63b8ff" d="M773.92,-55.77C768.12,-50.2 759.8,-43.35 751,-39.87 696.48,-18.34 523,-13.07 447.12,-11.78"/>
<polygon fill="#63b8ff" stroke="#63b8ff" points="447.14,-8.28 437.08,-11.63 447.03,-15.28 447.14,-8.28"/>
</a>
</g>
<g id="a_edge11&#45;headlabel"><a xlink:href="dir_000029_000036.html" target="_top" xlink:title="5">
<text text-anchor="middle" x="450.77" y="-3" font-family="Helvetica,sans-Serif" font-size="10.00" fill="#63b8ff">5</text>
</a>
</g>
</g>
<!-- dir_e65ab785a1354e430e056185dc7a9950 -->
<g id="node8" class="node">
<title>dir_e65ab785a1354e430e056185dc7a9950</title>
<g id="a_node8"><a xlink:href="dir_e65ab785a1354e430e056185dc7a9950.html" target="_top" xlink:title="direct">
<polygon fill="#4ea9ff" stroke="#404040" points="306,-74.87 262,-74.87 262,-55.87 306,-55.87 306,-74.87"/>
<text text-anchor="middle" x="284" y="-62.87" font-family="Helvetica,sans-Serif" font-size="10.00">direct</text>
</a>
</g>
</g>
<!-- dir_e65ab785a1354e430e056185dc7a9950&#45;&gt;dir_4fef79e7177ba769987a8da36c892c5f -->
<g id="edge13" class="edge">
<title>dir_e65ab785a1354e430e056185dc7a9950&#45;&gt;dir_4fef79e7177ba769987a8da36c892c5f</title>
<g id="a_edge13"><a xlink:href="dir_000032_000016.html" target="_top">
<path fill="none" stroke="#63b8ff" d="M293.96,-55.86C303.13,-48.02 316.94,-36.22 328.03,-26.74"/>
<polygon fill="#63b8ff" stroke="#63b8ff" points="330.53,-29.2 335.86,-20.04 325.98,-23.88 330.53,-29.2"/>
</a>
</g>
<g id="a_edge13&#45;headlabel"><a xlink:href="dir_000032_000016.html" target="_top" xlink:title="1">
<text text-anchor="middle" x="329.64" y="-31.2" font-family="Helvetica,sans-Serif" font-size="10.00" fill="#63b8ff">1</text>
</a>
</g>
</g>
<!-- dir_e65ab785a1354e430e056185dc7a9950&#45;&gt;dir_d44c64559bbebec7f509842c48db8b23 -->
<g id="edge12" class="edge">
<title>dir_e65ab785a1354e430e056185dc7a9950&#45;&gt;dir_d44c64559bbebec7f509842c48db8b23</title>
<g id="a_edge12"><a xlink:href="dir_000032_000036.html" target="_top">
<path fill="none" stroke="#63b8ff" d="M292.85,-55.87C298.73,-50.62 306.84,-44.11 315,-39.87 325.62,-34.36 352.57,-26.54 375.22,-20.48"/>
<polygon fill="#63b8ff" stroke="#63b8ff" points="376.15,-23.86 384.93,-17.92 374.36,-17.09 376.15,-23.86"/>
</a>
</g>
<g id="a_edge12&#45;headlabel"><a xlink:href="dir_000032_000036.html" target="_top" xlink:title="13">
<text text-anchor="middle" x="373.4" y="-25.02" font-family="Helvetica,sans-Serif" font-size="10.00" fill="#63b8ff">13</text>
</a>
</g>
</g>
<!-- dir_1ea65b4e4e2ba01b1cb1531bfcd90b96 -->
<g id="node9" class="node">
<title>dir_1ea65b4e4e2ba01b1cb1531bfcd90b96</title>
<g id="a_node9"><a xlink:href="dir_1ea65b4e4e2ba01b1cb1531bfcd90b96.html" target="_top" xlink:title="math">
<polygon fill="#4ea9ff" stroke="#404040" points="244,-74.87 202,-74.87 202,-55.87 244,-55.87 244,-74.87"/>
<text text-anchor="middle" x="223" y="-62.87" font-family="Helvetica,sans-Serif" font-size="10.00">math</text>
</a>
</g>
</g>
<!-- dir_1ea65b4e4e2ba01b1cb1531bfcd90b96&#45;&gt;dir_4fef79e7177ba769987a8da36c892c5f -->
<g id="edge14" class="edge">
<title>dir_1ea65b4e4e2ba01b1cb1531bfcd90b96&#45;&gt;dir_4fef79e7177ba769987a8da36c892c5f</title>
<g id="a_edge14"><a xlink:href="dir_000039_000016.html" target="_top">
<path fill="none" stroke="#63b8ff" d="M231.79,-55.64C237.44,-50.44 245.17,-44.06 253,-39.87 272.6,-29.39 296.63,-22.15 315.35,-17.6"/>
<polygon fill="#63b8ff" stroke="#63b8ff" points="316.19,-21 325.15,-15.34 314.62,-14.17 316.19,-21"/>
</a>
</g>
<g id="a_edge14&#45;headlabel"><a xlink:href="dir_000039_000016.html" target="_top" xlink:title="1">
<text text-anchor="middle" x="313.33" y="-22.07" font-family="Helvetica,sans-Serif" font-size="10.00" fill="#63b8ff">1</text>
</a>
</g>
</g>
<!-- dir_1ea65b4e4e2ba01b1cb1531bfcd90b96&#45;&gt;dir_d44c64559bbebec7f509842c48db8b23 -->
<g id="edge15" class="edge">
<title>dir_1ea65b4e4e2ba01b1cb1531bfcd90b96&#45;&gt;dir_d44c64559bbebec7f509842c48db8b23</title>
<g id="a_edge15"><a xlink:href="dir_000039_000036.html" target="_top">
<path fill="none" stroke="#63b8ff" d="M231.1,-55.75C236.72,-50.31 244.66,-43.63 253,-39.87 300.74,-18.38 319.63,-29.47 374.73,-19.88"/>
<polygon fill="#63b8ff" stroke="#63b8ff" points="375.5,-23.3 384.68,-18 374.2,-16.42 375.5,-23.3"/>
</a>
</g>
<g id="a_edge15&#45;headlabel"><a xlink:href="dir_000039_000036.html" target="_top" xlink:title="4">
<text text-anchor="middle" x="372.5" y="-24.26" font-family="Helvetica,sans-Serif" font-size="10.00" fill="#63b8ff">4</text>
</a>
</g>
</g>
<!-- dir_0d2e58c046f0227e8ac65e69b8fa5974 -->
<g id="node10" class="node">
<title>dir_0d2e58c046f0227e8ac65e69b8fa5974</title>
<g id="a_node10"><a xlink:href="dir_0d2e58c046f0227e8ac65e69b8fa5974.html" target="_top" xlink:title="matrix">
<polygon fill="#4ea9ff" stroke="#404040" points="183.5,-74.87 134.5,-74.87 134.5,-55.87 183.5,-55.87 183.5,-74.87"/>
<text text-anchor="middle" x="159" y="-62.87" font-family="Helvetica,sans-Serif" font-size="10.00">matrix</text>
</a>
</g>
</g>
<!-- dir_0d2e58c046f0227e8ac65e69b8fa5974&#45;&gt;dir_4fef79e7177ba769987a8da36c892c5f -->
<g id="edge17" class="edge">
<title>dir_0d2e58c046f0227e8ac65e69b8fa5974&#45;&gt;dir_4fef79e7177ba769987a8da36c892c5f</title>
<g id="a_edge17"><a xlink:href="dir_000042_000016.html" target="_top">
<path fill="none" stroke="#63b8ff" d="M168.41,-55.84C174.88,-50.44 183.9,-43.77 193,-39.87 233.17,-22.69 283.65,-15.84 315.38,-13.13"/>
<polygon fill="#63b8ff" stroke="#63b8ff" points="315.67,-16.62 325.38,-12.36 315.14,-9.64 315.67,-16.62"/>
</a>
</g>
<g id="a_edge17&#45;headlabel"><a xlink:href="dir_000042_000016.html" target="_top" xlink:title="2">
<text text-anchor="middle" x="312.31" y="-17.22" font-family="Helvetica,sans-Serif" font-size="10.00" fill="#63b8ff">2</text>
</a>
</g>
</g>
<!-- dir_0d2e58c046f0227e8ac65e69b8fa5974&#45;&gt;dir_d44c64559bbebec7f509842c48db8b23 -->
<g id="edge16" class="edge">
<title>dir_0d2e58c046f0227e8ac65e69b8fa5974&#45;&gt;dir_d44c64559bbebec7f509842c48db8b23</title>
<g id="a_edge16"><a xlink:href="dir_000042_000036.html" target="_top">
<path fill="none" stroke="#63b8ff" d="M168.04,-55.85C174.48,-50.31 183.63,-43.47 193,-39.87 266.4,-11.69 293.3,-32.25 374.52,-19.83"/>
<polygon fill="#63b8ff" stroke="#63b8ff" points="375.41,-23.23 384.7,-18.15 374.27,-16.33 375.41,-23.23"/>
</a>
</g>
<g id="a_edge16&#45;headlabel"><a xlink:href="dir_000042_000036.html" target="_top" xlink:title="34">
<text text-anchor="middle" x="372.33" y="-24.12" font-family="Helvetica,sans-Serif" font-size="10.00" fill="#63b8ff">34</text>
</a>
</g>
</g>
<!-- dir_a8769299ba688646b3b09d59765dd001 -->
<g id="node11" class="node">
<title>dir_a8769299ba688646b3b09d59765dd001</title>
<g id="a_node11"><a xlink:href="dir_a8769299ba688646b3b09d59765dd001.html" target="_top" xlink:title="mem">
<polygon fill="#4ea9ff" stroke="#404040" points="116,-74.87 74,-74.87 74,-55.87 116,-55.87 116,-74.87"/>
<text text-anchor="middle" x="95" y="-62.87" font-family="Helvetica,sans-Serif" font-size="10.00">mem</text>
</a>
</g>
</g>
<!-- dir_a8769299ba688646b3b09d59765dd001&#45;&gt;dir_4fef79e7177ba769987a8da36c892c5f -->
<g id="edge18" class="edge">
<title>dir_a8769299ba688646b3b09d59765dd001&#45;&gt;dir_4fef79e7177ba769987a8da36c892c5f</title>
<g id="a_edge18"><a xlink:href="dir_000045_000016.html" target="_top">
<path fill="none" stroke="#63b8ff" d="M103.38,-55.66C109.19,-50.19 117.4,-43.5 126,-39.87 159.45,-25.78 262.93,-16.99 315.17,-13.33"/>
<polygon fill="#63b8ff" stroke="#63b8ff" points="315.46,-16.82 325.19,-12.65 314.98,-9.84 315.46,-16.82"/>
</a>
</g>
<g id="a_edge18&#45;headlabel"><a xlink:href="dir_000045_000016.html" target="_top" xlink:title="2">
<text text-anchor="middle" x="312.06" y="-17.4" font-family="Helvetica,sans-Serif" font-size="10.00" fill="#63b8ff">2</text>
</a>
</g>
</g>
<!-- dir_a8769299ba688646b3b09d59765dd001&#45;&gt;dir_d44c64559bbebec7f509842c48db8b23 -->
<g id="edge19" class="edge">
<title>dir_a8769299ba688646b3b09d59765dd001&#45;&gt;dir_d44c64559bbebec7f509842c48db8b23</title>
<g id="a_edge19"><a xlink:href="dir_000045_000036.html" target="_top">
<path fill="none" stroke="#63b8ff" d="M103.07,-55.76C108.87,-50.18 117.19,-43.34 126,-39.87 226.81,-0.27 263.84,-35.41 374.82,-19.73"/>
<polygon fill="#63b8ff" stroke="#63b8ff" points="375.36,-23.19 384.72,-18.23 374.31,-16.27 375.36,-23.19"/>
</a>
</g>
<g id="a_edge19&#45;headlabel"><a xlink:href="dir_000045_000036.html" target="_top" xlink:title="33">
<text text-anchor="middle" x="372.23" y="-24.04" font-family="Helvetica,sans-Serif" font-size="10.00" fill="#63b8ff">33</text>
</a>
</g>
</g>
<!-- dir_1e3b85cb6be17649bb71980e307b762c -->
<g id="node12" class="node">
<title>dir_1e3b85cb6be17649bb71980e307b762c</title>
<g id="a_node12"><a xlink:href="dir_1e3b85cb6be17649bb71980e307b762c.html" target="_top" xlink:title="opt">
<polygon fill="#4ea9ff" stroke="#404040" points="56,-74.87 24,-74.87 24,-55.87 56,-55.87 56,-74.87"/>
<text text-anchor="middle" x="40" y="-62.87" font-family="Helvetica,sans-Serif" font-size="10.00">opt</text>
</a>
</g>
</g>
<!-- dir_1e3b85cb6be17649bb71980e307b762c&#45;&gt;dir_4fef79e7177ba769987a8da36c892c5f -->
<g id="edge20" class="edge">
<title>dir_1e3b85cb6be17649bb71980e307b762c&#45;&gt;dir_4fef79e7177ba769987a8da36c892c5f</title>
<g id="a_edge20"><a xlink:href="dir_000051_000016.html" target="_top">
<path fill="none" stroke="#63b8ff" d="M46.4,-55.58C50.93,-50.08 57.52,-43.38 65,-39.87 108.76,-19.37 251.7,-13.55 315.17,-11.95"/>
<polygon fill="#63b8ff" stroke="#63b8ff" points="315.43,-15.44 325.35,-11.71 315.27,-8.45 315.43,-15.44"/>
</a>
</g>
<g id="a_edge20&#45;headlabel"><a xlink:href="dir_000051_000016.html" target="_top" xlink:title="1">
<text text-anchor="middle" x="311.9" y="-15.87" font-family="Helvetica,sans-Serif" font-size="10.00" fill="#63b8ff">1</text>
</a>
</g>
</g>
<!-- dir_1e3b85cb6be17649bb71980e307b762c&#45;&gt;dir_d44c64559bbebec7f509842c48db8b23 -->
<g id="edge21" class="edge">
<title>dir_1e3b85cb6be17649bb71980e307b762c&#45;&gt;dir_d44c64559bbebec7f509842c48db8b23</title>
<g id="a_edge21"><a xlink:href="dir_000051_000036.html" target="_top">
<path fill="none" stroke="#63b8ff" d="M46.35,-55.49C50.87,-49.95 57.45,-43.24 65,-39.87 125.65,-12.81 293.02,-28.86 374.73,-19.61"/>
<polygon fill="#63b8ff" stroke="#63b8ff" points="375.27,-23.06 384.72,-18.27 374.35,-16.13 375.27,-23.06"/>
</a>
</g>
<g id="a_edge21&#45;headlabel"><a xlink:href="dir_000051_000036.html" target="_top" xlink:title="4">
<text text-anchor="middle" x="372.09" y="-23.85" font-family="Helvetica,sans-Serif" font-size="10.00" fill="#63b8ff">4</text>
</a>
</g>
</g>
<!-- dir_cb29f0ea63268024683aa0675b8349ca -->
<g id="node13" class="node">
<title>dir_cb29f0ea63268024683aa0675b8349ca</title>
<g id="a_node13"><a xlink:href="dir_cb29f0ea63268024683aa0675b8349ca.html" target="_top" xlink:title="refly">
<polygon fill="#4ea9ff" stroke="#404040" points="742,-74.87 704,-74.87 704,-55.87 742,-55.87 742,-74.87"/>
<text text-anchor="middle" x="723" y="-62.87" font-family="Helvetica,sans-Serif" font-size="10.00">refly</text>
</a>
</g>
</g>
<!-- dir_cb29f0ea63268024683aa0675b8349ca&#45;&gt;dir_4fef79e7177ba769987a8da36c892c5f -->
<g id="edge22" class="edge">
<title>dir_cb29f0ea63268024683aa0675b8349ca&#45;&gt;dir_4fef79e7177ba769987a8da36c892c5f</title>
<g id="a_edge22"><a xlink:href="dir_000084_000016.html" target="_top">
<path fill="none" stroke="#63b8ff" d="M715.67,-55.48C710.52,-49.93 703.12,-43.22 695,-39.87 631.95,-13.91 460.5,-30.4 376.56,-19.34"/>
<polygon fill="#63b8ff" stroke="#63b8ff" points="376.94,-15.86 366.52,-17.81 375.88,-22.78 376.94,-15.86"/>
</a>
</g>
<g id="a_edge22&#45;headlabel"><a xlink:href="dir_000084_000016.html" target="_top" xlink:title="1">
<text text-anchor="middle" x="380.92" y="-11.1" font-family="Helvetica,sans-Serif" font-size="10.00" fill="#63b8ff">1</text>
</a>
</g>
</g>
<!-- dir_cb29f0ea63268024683aa0675b8349ca&#45;&gt;dir_d44c64559bbebec7f509842c48db8b23 -->
<g id="edge23" class="edge">
<title>dir_cb29f0ea63268024683aa0675b8349ca&#45;&gt;dir_d44c64559bbebec7f509842c48db8b23</title>
<g id="a_edge23"><a xlink:href="dir_000084_000036.html" target="_top">
<path fill="none" stroke="#63b8ff" d="M715.62,-55.58C710.46,-50.07 703.06,-43.37 695,-39.87 651.42,-20.96 513.8,-14.39 447.46,-12.29"/>
<polygon fill="#63b8ff" stroke="#63b8ff" points="447.55,-8.79 437.45,-11.98 447.34,-15.78 447.55,-8.79"/>
</a>
</g>
<g id="a_edge23&#45;headlabel"><a xlink:href="dir_000084_000036.html" target="_top" xlink:title="8">
<text text-anchor="middle" x="451.23" y="-3.56" font-family="Helvetica,sans-Serif" font-size="10.00" fill="#63b8ff">8</text>
</a>
</g>
</g>
<!-- dir_3714300ab4ba91f07d5df1384f99e344 -->
<g id="node14" class="node">
<title>dir_3714300ab4ba91f07d5df1384f99e344</title>
<g id="a_node14"><a xlink:href="dir_3714300ab4ba91f07d5df1384f99e344.html" target="_top" xlink:title="regex">
<polygon fill="#4ea9ff" stroke="#404040" points="368,-74.87 324,-74.87 324,-55.87 368,-55.87 368,-74.87"/>
<text text-anchor="middle" x="346" y="-62.87" font-family="Helvetica,sans-Serif" font-size="10.00">regex</text>
</a>
</g>
</g>
<!-- dir_3714300ab4ba91f07d5df1384f99e344&#45;&gt;dir_4fef79e7177ba769987a8da36c892c5f -->
<g id="edge24" class="edge">
<title>dir_3714300ab4ba91f07d5df1384f99e344&#45;&gt;dir_4fef79e7177ba769987a8da36c892c5f</title>
<g id="a_edge24"><a xlink:href="dir_000087_000016.html" target="_top">
<path fill="none" stroke="#63b8ff" d="M346,-55.62C346,-48.68 346,-38.72 346,-30.01"/>
<polygon fill="#63b8ff" stroke="#63b8ff" points="349.5,-29.96 346,-19.96 342.5,-29.96 349.5,-29.96"/>
</a>
</g>
<g id="a_edge24&#45;headlabel"><a xlink:href="dir_000087_000016.html" target="_top" xlink:title="1">
<text text-anchor="middle" x="352.34" y="-31.06" font-family="Helvetica,sans-Serif" font-size="10.00" fill="#63b8ff">1</text>
</a>
</g>
</g>
<!-- dir_3714300ab4ba91f07d5df1384f99e344&#45;&gt;dir_d44c64559bbebec7f509842c48db8b23 -->
<g id="edge25" class="edge">
<title>dir_3714300ab4ba91f07d5df1384f99e344&#45;&gt;dir_d44c64559bbebec7f509842c48db8b23</title>
<g id="a_edge25"><a xlink:href="dir_000087_000036.html" target="_top">
<path fill="none" stroke="#63b8ff" d="M356.44,-55.86C366.15,-47.95 380.82,-35.99 392.5,-26.46"/>
<polygon fill="#63b8ff" stroke="#63b8ff" points="394.83,-29.08 400.37,-20.04 390.4,-23.65 394.83,-29.08"/>
</a>
</g>
<g id="a_edge25&#45;headlabel"><a xlink:href="dir_000087_000036.html" target="_top" xlink:title="32">
<text text-anchor="middle" x="393.84" y="-31.05" font-family="Helvetica,sans-Serif" font-size="10.00" fill="#63b8ff">32</text>
</a>
</g>
</g>
</g>
</svg>
