<?xml version="1.0" encoding="UTF-8" standalone="no"?>
<!DOCTYPE svg PUBLIC "-//W3C//DTD SVG 1.1//EN"
 "http://www.w3.org/Graphics/SVG/1.1/DTD/svg11.dtd">
<!-- Generated by graphviz version 2.43.0 (0)
 -->
<!-- Title: dialects/affine Pages: 1 -->
<svg width="175pt" height="196pt"
 viewBox="0.00 0.00 174.50 196.00" xmlns="http://www.w3.org/2000/svg" xmlns:xlink="http://www.w3.org/1999/xlink">
<g id="graph0" class="graph" transform="scale(1 1) rotate(0) translate(4 192)">
<title>dialects/affine</title>
<g id="clust1" class="cluster">
<title>clusterdir_dc7f769b3d5332bd9f89fd345831c3ed</title>
<g id="a_clust1"><a xlink:href="dir_dc7f769b3d5332bd9f89fd345831c3ed.html" target="_top" xlink:title="dialects">
<polygon fill="#daedff" stroke="#404040" stroke-dasharray="5,2" points="8,-8 8,-180 90,-180 90,-8 8,-8"/>
<text text-anchor="middle" x="49" y="-168" font-family="Helvetica,sans-Serif" font-size="10.00">dialects</text>
</a>
</g>
</g>
<g id="clust2" class="cluster">
<title>clusterdir_a4e6014a65dac395128c61005a1a2d46</title>
<g id="a_clust2"><a xlink:href="dir_a4e6014a65dac395128c61005a1a2d46.html" target="_top">
<polygon fill="#daedff" stroke="#404040" stroke-width="2" points="16,-63 16,-153 82,-153 82,-63 16,-63"/>
</a>
</g>
</g>
<!-- dir_f4f507027349df35d55005177e6b6800 -->
<g id="node1" class="node">
<title>dir_f4f507027349df35d55005177e6b6800</title>
<g id="a_node1"><a xlink:href="dir_f4f507027349df35d55005177e6b6800.html" target="_top" xlink:title="mem">
<polygon fill="#4ea9ff" stroke="red" points="70,-35 28,-35 28,-16 70,-16 70,-35"/>
<text text-anchor="middle" x="49" y="-23" font-family="Helvetica,sans-Serif" font-size="10.00">mem</text>
</a>
</g>
</g>
<!-- dir_a4e6014a65dac395128c61005a1a2d46 -->
<g id="node2" class="node">
<title>dir_a4e6014a65dac395128c61005a1a2d46</title>
<text text-anchor="middle" x="52" y="-133" font-family="Helvetica,sans-Serif" font-size="10.00">affine</text>
</g>
<!-- dir_3f412884cab3753195004027deca028b -->
<g id="node3" class="node">
<title>dir_3f412884cab3753195004027deca028b</title>
<g id="a_node3"><a xlink:href="dir_3f412884cab3753195004027deca028b.html" target="_top" xlink:title="passes">
<polygon fill="#4ea9ff" stroke="#404040" points="74,-90 24,-90 24,-71 74,-71 74,-90"/>
<text text-anchor="middle" x="49" y="-78" font-family="Helvetica,sans-Serif" font-size="10.00">passes</text>
</a>
</g>
</g>
<!-- dir_a4e6014a65dac395128c61005a1a2d46&#45;&gt;dir_3f412884cab3753195004027deca028b -->
<g id="edge1" class="edge">
<title>dir_a4e6014a65dac395128c61005a1a2d46&#45;&gt;dir_3f412884cab3753195004027deca028b</title>
<path fill="none" stroke="#63b8ff" d="M51.5,-125.75C51.11,-118.8 50.55,-108.85 50.05,-100.13"/>
<polygon fill="#63b8ff" stroke="#63b8ff" points="53.55,-99.88 49.49,-90.09 46.56,-100.27 53.55,-99.88"/>
<g id="a_edge1&#45;headlabel"><a xlink:href="dir_000001_000042.html" target="_top" xlink:title="1">
<text text-anchor="middle" x="56.58" y="-100.8" font-family="Helvetica,sans-Serif" font-size="10.00" fill="#63b8ff">1</text>
</a>
</g>
</g>
<!-- dir_4fef79e7177ba769987a8da36c892c5f -->
<g id="node4" class="node">
<title>dir_4fef79e7177ba769987a8da36c892c5f</title>
<g id="a_node4"><a xlink:href="dir_4fef79e7177ba769987a8da36c892c5f.html" target="_top" xlink:title="build">
<polygon fill="#daedff" stroke="red" points="139.5,-90 98.5,-90 98.5,-71 139.5,-71 139.5,-90"/>
<text text-anchor="middle" x="119" y="-78" font-family="Helvetica,sans-Serif" font-size="10.00">build</text>
</a>
</g>
</g>
<!-- dir_a4e6014a65dac395128c61005a1a2d46&#45;&gt;dir_4fef79e7177ba769987a8da36c892c5f -->
<g id="edge2" class="edge">
<title>dir_a4e6014a65dac395128c61005a1a2d46&#45;&gt;dir_4fef79e7177ba769987a8da36c892c5f</title>
<path fill="none" stroke="#63b8ff" d="M62.76,-125.98C72.77,-118.07 87.89,-106.11 99.93,-96.58"/>
<polygon fill="#63b8ff" stroke="#63b8ff" points="102.37,-99.12 108.04,-90.17 98.03,-93.63 102.37,-99.12"/>
<g id="a_edge2&#45;headlabel"><a xlink:href="dir_000001_000008.html" target="_top" xlink:title="2">
<text text-anchor="middle" x="101.31" y="-101.08" font-family="Helvetica,sans-Serif" font-size="10.00" fill="#63b8ff">2</text>
</a>
</g>
</g>
<!-- dir_c4168c80b7484587a21dc92c326c695e -->
<g id="node5" class="node">
<title>dir_c4168c80b7484587a21dc92c326c695e</title>
<g id="a_node5"><a xlink:href="dir_c4168c80b7484587a21dc92c326c695e.html" target="_top" xlink:title="thorin">
<polygon fill="#daedff" stroke="red" points="166.5,-35 121.5,-35 121.5,-16 166.5,-16 166.5,-35"/>
<text text-anchor="middle" x="144" y="-23" font-family="Helvetica,sans-Serif" font-size="10.00">thorin</text>
</a>
</g>
</g>
<!-- dir_a4e6014a65dac395128c61005a1a2d46&#45;&gt;dir_c4168c80b7484587a21dc92c326c695e -->
<g id="edge3" class="edge">
<title>dir_a4e6014a65dac395128c61005a1a2d46&#45;&gt;dir_c4168c80b7484587a21dc92c326c695e</title>
<path fill="none" stroke="#63b8ff" d="M74.22,-131.3C97.4,-126.65 132.59,-115.58 149,-90 157.57,-76.63 154.96,-58.28 151,-44.74"/>
<polygon fill="#63b8ff" stroke="#63b8ff" points="154.26,-43.45 147.74,-35.1 147.63,-45.7 154.26,-43.45"/>
<g id="a_edge3&#45;headlabel"><a xlink:href="dir_000001_000059.html" target="_top" xlink:title="8">
<text text-anchor="middle" x="158.1" y="-43.44" font-family="Helvetica,sans-Serif" font-size="10.00" fill="#63b8ff">8</text>
</a>
</g>
</g>
<!-- dir_3f412884cab3753195004027deca028b&#45;&gt;dir_f4f507027349df35d55005177e6b6800 -->
<g id="edge5" class="edge">
<title>dir_3f412884cab3753195004027deca028b&#45;&gt;dir_f4f507027349df35d55005177e6b6800</title>
<path fill="none" stroke="#63b8ff" d="M49,-70.75C49,-63.8 49,-53.85 49,-45.13"/>
<polygon fill="#63b8ff" stroke="#63b8ff" points="52.5,-45.09 49,-35.09 45.5,-45.09 52.5,-45.09"/>
<g id="a_edge5&#45;headlabel"><a xlink:href="dir_000042_000037.html" target="_top" xlink:title="1">
<text text-anchor="middle" x="55.34" y="-46.18" font-family="Helvetica,sans-Serif" font-size="10.00" fill="#63b8ff">1</text>
</a>
</g>
</g>
<!-- dir_3f412884cab3753195004027deca028b&#45;&gt;dir_c4168c80b7484587a21dc92c326c695e -->
<g id="edge4" class="edge">
<title>dir_3f412884cab3753195004027deca028b&#45;&gt;dir_c4168c80b7484587a21dc92c326c695e</title>
<path fill="none" stroke="#63b8ff" d="M64.26,-70.98C79.13,-62.69 101.98,-49.94 119.42,-40.22"/>
<polygon fill="#63b8ff" stroke="#63b8ff" points="121.43,-43.1 128.46,-35.17 118.02,-36.99 121.43,-43.1"/>
<g id="a_edge4&#45;headlabel"><a xlink:href="dir_000042_000059.html" target="_top" xlink:title="3">
<text text-anchor="middle" x="119.68" y="-44.83" font-family="Helvetica,sans-Serif" font-size="10.00" fill="#63b8ff">3</text>
</a>
</g>
</g>
</g>
</svg>
