<?xml version="1.0" encoding="UTF-8" standalone="no"?>
<!DOCTYPE svg PUBLIC "-//W3C//DTD SVG 1.1//EN"
 "http://www.w3.org/Graphics/SVG/1.1/DTD/svg11.dtd">
<!-- Generated by graphviz version 2.43.0 (0)
 -->
<!-- Title: plugins/matrix Pages: 1 -->
<svg width="463pt" height="180pt"
 viewBox="0.00 0.00 462.68 180.00" xmlns="http://www.w3.org/2000/svg" xmlns:xlink="http://www.w3.org/1999/xlink">

<svg id="main" version="1.1" xmlns="http://www.w3.org/2000/svg" xmlns:xlink="http://www.w3.org/1999/xlink" xml:space="preserve" onload="init(evt)">
<style type="text/css"><![CDATA[
.node, .edge {opacity: 0.7;}
.node.selected, .edge.selected {opacity: 1;}
.edge:hover path { stroke: red; }
.edge:hover polygon { stroke: red; fill: red; }
]]></style>
<script type="application/ecmascript" xlink:href="svg.min.js"/>
<svg id="graph" class="graph">
<g id="graph0" class="graph" transform="scale(1 1) rotate(0) translate(4 176)">
<title>plugins/matrix</title>
<g id="clust1" class="cluster">
<title>clusterdir_38c8d24aef3972a7f87b834274e76e31</title>
<g id="a_clust1"><a xlink:href="dir_38c8d24aef3972a7f87b834274e76e31.html" target="_top" xlink:title="plugins">
<polygon fill="#daedff" stroke="#404040" stroke-dasharray="5,2" points="8,-39 8,-164 443,-164 443,-39 8,-39"/>
<text text-anchor="middle" x="225.5" y="-152" font-family="Helvetica,sans-Serif" font-size="10.00">plugins</text>
</a>
</g>
</g>
<g id="clust2" class="cluster">
<title>clusterdir_2d53d98a8eca37a9db4aacd1e0389b06</title>
<g id="a_clust2"><a xlink:href="dir_2d53d98a8eca37a9db4aacd1e0389b06.html" target="_top">
<polygon fill="#daedff" stroke="#404040" stroke-width="2" points="16,-47 16,-137 131,-137 131,-47 16,-47"/>
</a>
</g>
</g>
<!-- dir_3f9b7b28a3eefae0da924a729ee7b941 -->
<g id="node1" class="node">
<title>dir_3f9b7b28a3eefae0da924a729ee7b941</title>
<g id="a_node1"><a xlink:href="dir_3f9b7b28a3eefae0da924a729ee7b941.html" target="_top" xlink:title="compile">
<polygon fill="#4ea9ff" stroke="red" points="195,-74 139,-74 139,-55 195,-55 195,-74"/>
<text text-anchor="middle" x="167" y="-62" font-family="Helvetica,sans-Serif" font-size="10.00">compile</text>
</a>
</g>
</g>
<!-- dir_793074ef6e4d0b3a0968f64fe8500756 -->
<g id="node2" class="node">
<title>dir_793074ef6e4d0b3a0968f64fe8500756</title>
<g id="a_node2"><a xlink:href="dir_793074ef6e4d0b3a0968f64fe8500756.html" target="_top" xlink:title="affine">
<polygon fill="#4ea9ff" stroke="red" points="257,-74 213,-74 213,-55 257,-55 257,-74"/>
<text text-anchor="middle" x="235" y="-62" font-family="Helvetica,sans-Serif" font-size="10.00">affine</text>
</a>
</g>
</g>
<!-- dir_b47d094b940c78ed85f632937004b7bb -->
<g id="node3" class="node">
<title>dir_b47d094b940c78ed85f632937004b7bb</title>
<g id="a_node3"><a xlink:href="dir_b47d094b940c78ed85f632937004b7bb.html" target="_top" xlink:title="core">
<polygon fill="#4ea9ff" stroke="red" points="313,-74 275,-74 275,-55 313,-55 313,-74"/>
<text text-anchor="middle" x="294" y="-62" font-family="Helvetica,sans-Serif" font-size="10.00">core</text>
</a>
</g>
</g>
<!-- dir_45d0a97eae78e2385da7d721351ecbde -->
<g id="node4" class="node">
<title>dir_45d0a97eae78e2385da7d721351ecbde</title>
<g id="a_node4"><a xlink:href="dir_45d0a97eae78e2385da7d721351ecbde.html" target="_top" xlink:title="direct">
<polygon fill="#4ea9ff" stroke="red" points="375,-74 331,-74 331,-55 375,-55 375,-74"/>
<text text-anchor="middle" x="353" y="-62" font-family="Helvetica,sans-Serif" font-size="10.00">direct</text>
</a>
</g>
</g>
<!-- dir_cedbad42e133b8f715c15648fd5a31ef -->
<g id="node5" class="node">
<title>dir_cedbad42e133b8f715c15648fd5a31ef</title>
<g id="a_node5"><a xlink:href="dir_cedbad42e133b8f715c15648fd5a31ef.html" target="_top" xlink:title="mem">
<polygon fill="#4ea9ff" stroke="red" points="435,-74 393,-74 393,-55 435,-55 435,-74"/>
<text text-anchor="middle" x="414" y="-62" font-family="Helvetica,sans-Serif" font-size="10.00">mem</text>
</a>
</g>
</g>
<!-- dir_2d53d98a8eca37a9db4aacd1e0389b06 -->
<g id="node6" class="node">
<title>dir_2d53d98a8eca37a9db4aacd1e0389b06</title>
<text text-anchor="middle" x="98" y="-117" font-family="Helvetica,sans-Serif" font-size="10.00">matrix</text>
</g>
<!-- dir_210f71158b20ae9a214079ea7d0b63b6 -->
<g id="node7" class="node">
<title>dir_210f71158b20ae9a214079ea7d0b63b6</title>
<g id="a_node7"><a xlink:href="dir_210f71158b20ae9a214079ea7d0b63b6.html" target="_top" xlink:title="include">
<polygon fill="#4ea9ff" stroke="#404040" points="120,-74 68,-74 68,-55 120,-55 120,-74"/>
<text text-anchor="middle" x="94" y="-62" font-family="Helvetica,sans-Serif" font-size="10.00">include</text>
</a>
</g>
</g>
<!-- dir_d44c64559bbebec7f509842c48db8b23 -->
<g id="node9" class="node">
<title>dir_d44c64559bbebec7f509842c48db8b23</title>
<g id="a_node9"><a xlink:href="dir_d44c64559bbebec7f509842c48db8b23.html" target="_top" xlink:title="include">
<polygon fill="#daedff" stroke="red" points="93,-19 41,-19 41,0 93,0 93,-19"/>
<text text-anchor="middle" x="67" y="-7" font-family="Helvetica,sans-Serif" font-size="10.00">include</text>
</a>
</g>
</g>
<!-- dir_210f71158b20ae9a214079ea7d0b63b6&#45;&gt;dir_d44c64559bbebec7f509842c48db8b23 -->
<g id="edge1" class="edge">
<title>dir_210f71158b20ae9a214079ea7d0b63b6&#45;&gt;dir_d44c64559bbebec7f509842c48db8b23</title>
<g id="a_edge1"><a xlink:href="dir_000057_000048.html" target="_top">
<path fill="none" stroke="#63b8ff" d="M89.54,-54.75C85.88,-47.57 80.59,-37.18 76.05,-28.27"/>
<polygon fill="#63b8ff" stroke="#63b8ff" points="79.03,-26.41 71.38,-19.09 72.8,-29.59 79.03,-26.41"/>
</a>
</g>
<g id="a_edge1&#45;headlabel"><a xlink:href="dir_000057_000048.html" target="_top" xlink:title="9">
<text text-anchor="middle" x="83.2" y="-25.82" font-family="Helvetica,sans-Serif" font-size="10.00" fill="#63b8ff">9</text>
</a>
</g>
</g>
<!-- dir_4fef79e7177ba769987a8da36c892c5f -->
<g id="node10" class="node">
<title>dir_4fef79e7177ba769987a8da36c892c5f</title>
<g id="a_node10"><a xlink:href="dir_4fef79e7177ba769987a8da36c892c5f.html" target="_top" xlink:title="build">
<polygon fill="#daedff" stroke="red" points="317.5,-19 276.5,-19 276.5,0 317.5,0 317.5,-19"/>
<text text-anchor="middle" x="297" y="-7" font-family="Helvetica,sans-Serif" font-size="10.00">build</text>
</a>
</g>
</g>
<!-- dir_210f71158b20ae9a214079ea7d0b63b6&#45;&gt;dir_4fef79e7177ba769987a8da36c892c5f -->
<g id="edge2" class="edge">
<title>dir_210f71158b20ae9a214079ea7d0b63b6&#45;&gt;dir_4fef79e7177ba769987a8da36c892c5f</title>
<g id="a_edge2"><a xlink:href="dir_000057_000017.html" target="_top">
<path fill="none" stroke="#63b8ff" d="M102.1,-54.88C107.72,-49.44 115.66,-42.76 124,-39 170.51,-18 230.3,-12.28 266.03,-10.84"/>
<polygon fill="#63b8ff" stroke="#63b8ff" points="266.42,-14.33 276.3,-10.51 266.2,-7.33 266.42,-14.33"/>
</a>
</g>
<g id="a_edge2&#45;headlabel"><a xlink:href="dir_000057_000017.html" target="_top" xlink:title="1">
<text text-anchor="middle" x="262.92" y="-14.78" font-family="Helvetica,sans-Serif" font-size="10.00" fill="#63b8ff">1</text>
</a>
</g>
</g>
<!-- dir_4e10973bf0621ed05a5b627858821112 -->
<g id="node8" class="node">
<title>dir_4e10973bf0621ed05a5b627858821112</title>
<g id="a_node8"><a xlink:href="dir_4e10973bf0621ed05a5b627858821112.html" target="_top" xlink:title="src">
<polygon fill="#4ea9ff" stroke="#404040" points="55.5,-129 24.5,-129 24.5,-110 55.5,-110 55.5,-129"/>
<text text-anchor="middle" x="40" y="-117" font-family="Helvetica,sans-Serif" font-size="10.00">src</text>
</a>
</g>
</g>
<!-- dir_4e10973bf0621ed05a5b627858821112&#45;&gt;dir_3f9b7b28a3eefae0da924a729ee7b941 -->
<g id="edge4" class="edge">
<title>dir_4e10973bf0621ed05a5b627858821112&#45;&gt;dir_3f9b7b28a3eefae0da924a729ee7b941</title>
<g id="a_edge4"><a xlink:href="dir_000149_000024.html" target="_top">
<path fill="none" stroke="#63b8ff" d="M55.57,-112C75.78,-103.57 111.46,-88.68 137,-78.02"/>
<polygon fill="#63b8ff" stroke="#63b8ff" points="138.36,-81.24 146.24,-74.16 135.67,-74.78 138.36,-81.24"/>
</a>
</g>
<g id="a_edge4&#45;headlabel"><a xlink:href="dir_000149_000024.html" target="_top" xlink:title="1">
<text text-anchor="middle" x="136.14" y="-82.75" font-family="Helvetica,sans-Serif" font-size="10.00" fill="#63b8ff">1</text>
</a>
</g>
</g>
<!-- dir_4e10973bf0621ed05a5b627858821112&#45;&gt;dir_793074ef6e4d0b3a0968f64fe8500756 -->
<g id="edge7" class="edge">
<title>dir_4e10973bf0621ed05a5b627858821112&#45;&gt;dir_793074ef6e4d0b3a0968f64fe8500756</title>
<g id="a_edge7"><a xlink:href="dir_000149_000001.html" target="_top">
<path fill="none" stroke="#63b8ff" d="M55.55,-113.02C58.66,-111.97 61.93,-110.92 65,-110 123.16,-92.61 140.65,-90.6 203.02,-74.22"/>
<polygon fill="#63b8ff" stroke="#63b8ff" points="204.22,-77.52 212.99,-71.58 202.43,-70.75 204.22,-77.52"/>
</a>
</g>
<g id="a_edge7&#45;headlabel"><a xlink:href="dir_000149_000001.html" target="_top" xlink:title="3">
<text text-anchor="middle" x="201.48" y="-78.68" font-family="Helvetica,sans-Serif" font-size="10.00" fill="#63b8ff">3</text>
</a>
</g>
</g>
<!-- dir_4e10973bf0621ed05a5b627858821112&#45;&gt;dir_b47d094b940c78ed85f632937004b7bb -->
<g id="edge8" class="edge">
<title>dir_4e10973bf0621ed05a5b627858821112&#45;&gt;dir_b47d094b940c78ed85f632937004b7bb</title>
<g id="a_edge8"><a xlink:href="dir_000149_000028.html" target="_top">
<path fill="none" stroke="#63b8ff" d="M55.76,-112.74C58.8,-111.74 61.98,-110.78 65,-110 149.79,-88.13 175.93,-94.7 264.83,-74.02"/>
<polygon fill="#63b8ff" stroke="#63b8ff" points="265.88,-77.37 274.8,-71.65 264.26,-70.56 265.88,-77.37"/>
</a>
</g>
<g id="a_edge8&#45;headlabel"><a xlink:href="dir_000149_000028.html" target="_top" xlink:title="3">
<text text-anchor="middle" x="263.04" y="-78.46" font-family="Helvetica,sans-Serif" font-size="10.00" fill="#63b8ff">3</text>
</a>
</g>
</g>
<!-- dir_4e10973bf0621ed05a5b627858821112&#45;&gt;dir_45d0a97eae78e2385da7d721351ecbde -->
<g id="edge5" class="edge">
<title>dir_4e10973bf0621ed05a5b627858821112&#45;&gt;dir_45d0a97eae78e2385da7d721351ecbde</title>
<g id="a_edge5"><a xlink:href="dir_000149_000036.html" target="_top">
<path fill="none" stroke="#63b8ff" d="M55.74,-112.65C58.78,-111.66 61.97,-110.72 65,-110 174.03,-84.07 207.17,-96.54 320.61,-74.03"/>
<polygon fill="#63b8ff" stroke="#63b8ff" points="321.63,-77.4 330.73,-71.97 320.23,-70.54 321.63,-77.4"/>
</a>
</g>
<g id="a_edge5&#45;headlabel"><a xlink:href="dir_000149_000036.html" target="_top" xlink:title="3">
<text text-anchor="middle" x="318.67" y="-78.39" font-family="Helvetica,sans-Serif" font-size="10.00" fill="#63b8ff">3</text>
</a>
</g>
</g>
<!-- dir_4e10973bf0621ed05a5b627858821112&#45;&gt;dir_cedbad42e133b8f715c15648fd5a31ef -->
<g id="edge9" class="edge">
<title>dir_4e10973bf0621ed05a5b627858821112&#45;&gt;dir_cedbad42e133b8f715c15648fd5a31ef</title>
<g id="a_edge9"><a xlink:href="dir_000149_000071.html" target="_top">
<path fill="none" stroke="#63b8ff" d="M55.72,-112.58C58.77,-111.6 61.96,-110.68 65,-110 201.11,-79.55 242.17,-100.55 382.94,-73.89"/>
<polygon fill="#63b8ff" stroke="#63b8ff" points="383.65,-77.31 392.8,-71.97 382.32,-70.44 383.65,-77.31"/>
</a>
</g>
<g id="a_edge9&#45;headlabel"><a xlink:href="dir_000149_000071.html" target="_top" xlink:title="3">
<text text-anchor="middle" x="380.66" y="-78.28" font-family="Helvetica,sans-Serif" font-size="10.00" fill="#63b8ff">3</text>
</a>
</g>
</g>
<!-- dir_4e10973bf0621ed05a5b627858821112&#45;&gt;dir_210f71158b20ae9a214079ea7d0b63b6 -->
<g id="edge3" class="edge">
<title>dir_4e10973bf0621ed05a5b627858821112&#45;&gt;dir_210f71158b20ae9a214079ea7d0b63b6</title>
<g id="a_edge3"><a xlink:href="dir_000149_000057.html" target="_top">
<path fill="none" stroke="#63b8ff" d="M48.92,-109.75C56.78,-102.03 68.43,-90.6 77.92,-81.28"/>
<polygon fill="#63b8ff" stroke="#63b8ff" points="80.56,-83.59 85.25,-74.09 75.66,-78.6 80.56,-83.59"/>
</a>
</g>
<g id="a_edge3&#45;headlabel"><a xlink:href="dir_000149_000057.html" target="_top" xlink:title="11">
<text text-anchor="middle" x="79.99" y="-85.64" font-family="Helvetica,sans-Serif" font-size="10.00" fill="#63b8ff">11</text>
</a>
</g>
</g>
<!-- dir_4e10973bf0621ed05a5b627858821112&#45;&gt;dir_d44c64559bbebec7f509842c48db8b23 -->
<g id="edge10" class="edge">
<title>dir_4e10973bf0621ed05a5b627858821112&#45;&gt;dir_d44c64559bbebec7f509842c48db8b23</title>
<g id="a_edge10"><a xlink:href="dir_000149_000048.html" target="_top">
<path fill="none" stroke="#63b8ff" d="M42,-109.65C45.34,-94.94 52.36,-64.55 59,-39 59.84,-35.77 60.77,-32.35 61.68,-29.04"/>
<polygon fill="#63b8ff" stroke="#63b8ff" points="65.11,-29.78 64.46,-19.21 58.37,-27.88 65.11,-29.78"/>
</a>
</g>
<g id="a_edge10&#45;headlabel"><a xlink:href="dir_000149_000048.html" target="_top" xlink:title="10">
<text text-anchor="middle" x="66.86" y="-31.51" font-family="Helvetica,sans-Serif" font-size="10.00" fill="#63b8ff">10</text>
</a>
</g>
</g>
<!-- dir_4e10973bf0621ed05a5b627858821112&#45;&gt;dir_4fef79e7177ba769987a8da36c892c5f -->
<g id="edge6" class="edge">
<title>dir_4e10973bf0621ed05a5b627858821112&#45;&gt;dir_4fef79e7177ba769987a8da36c892c5f</title>
<g id="a_edge6"><a xlink:href="dir_000149_000017.html" target="_top">
<path fill="none" stroke="#63b8ff" d="M55.71,-112.54C58.76,-111.56 61.95,-110.65 65,-110 148.38,-92.15 389.61,-137.06 447,-74 457.47,-62.5 456.92,-50.98 447,-39 432.17,-21.09 367.24,-14.34 327.82,-11.87"/>
<polygon fill="#63b8ff" stroke="#63b8ff" points="327.87,-8.37 317.69,-11.29 327.47,-15.36 327.87,-8.37"/>
</a>
</g>
<g id="a_edge6&#45;headlabel"><a xlink:href="dir_000149_000017.html" target="_top" xlink:title="2">
<text text-anchor="middle" x="331.62" y="-3.24" font-family="Helvetica,sans-Serif" font-size="10.00" fill="#63b8ff">2</text>
</a>
</g>
</g>
</g>
</svg>
</svg>

<style type='text/css'>
<![CDATA[
[data-mouse-over-selected='false'] { opacity: 0.7; }
[data-mouse-over-selected='true']  { opacity: 1.0; }
]]>
</style>
<script type="application/ecmascript"><![CDATA[
document.addEventListener('DOMContentLoaded', (event) => {
  highlightEdges();
  highlightAdjacentNodes();
});
]]></script>
</svg>
