<?xml version="1.0" encoding="UTF-8" standalone="no"?>
<!DOCTYPE svg PUBLIC "-//W3C//DTD SVG 1.1//EN"
 "http://www.w3.org/Graphics/SVG/1.1/DTD/svg11.dtd">
<!-- Generated by graphviz version 2.43.0 (0)
 -->
<!-- Title: plugins/core/src/thorin/plug/core Pages: 1 -->
<svg width="364pt" height="125pt"
 viewBox="0.00 0.00 363.50 125.00" xmlns="http://www.w3.org/2000/svg" xmlns:xlink="http://www.w3.org/1999/xlink">
<g id="graph0" class="graph" transform="scale(1 1) rotate(0) translate(4 121)">
<title>plugins/core/src/thorin/plug/core</title>
<g id="clust1" class="cluster">
<title>clusterdir_920e961cad8c63575463214b617c382a</title>
<g id="a_clust1"><a xlink:href="dir_920e961cad8c63575463214b617c382a.html" target="_top" xlink:title="plug">
<polygon fill="#daedff" stroke="#7f7f7f" stroke-dasharray="5,2" points="116.5,-39 116.5,-109 234.5,-109 234.5,-39 116.5,-39"/>
<text text-anchor="middle" x="175.5" y="-97" font-family="Helvetica,sans-Serif" font-size="10.00">plug</text>
</a>
</g>
</g>
<g id="clust2" class="cluster">
<title>clusterdir_957d00ce62d54e16e162e55476ce76d1</title>
<g id="a_clust2"><a xlink:href="dir_957d00ce62d54e16e162e55476ce76d1.html" target="_top">
<polygon fill="#daedff" stroke="#404040" stroke-width="2" points="124.5,-47 124.5,-82 226.5,-82 226.5,-47 124.5,-47"/>
</a>
</g>
</g>
<!-- dir_957d00ce62d54e16e162e55476ce76d1 -->
<g id="node1" class="node">
<title>dir_957d00ce62d54e16e162e55476ce76d1</title>
<text text-anchor="middle" x="151.5" y="-62" font-family="Helvetica,sans-Serif" font-size="10.00">core</text>
</g>
<!-- dir_4fef79e7177ba769987a8da36c892c5f -->
<g id="node3" class="node">
<title>dir_4fef79e7177ba769987a8da36c892c5f</title>
<g id="a_node3"><a xlink:href="dir_4fef79e7177ba769987a8da36c892c5f.html" target="_top" xlink:title="build">
<polygon fill="#daedff" stroke="red" points="41,-19 0,-19 0,0 41,0 41,-19"/>
<text text-anchor="middle" x="20.5" y="-7" font-family="Helvetica,sans-Serif" font-size="10.00">build</text>
</a>
</g>
</g>
<!-- dir_957d00ce62d54e16e162e55476ce76d1&#45;&gt;dir_4fef79e7177ba769987a8da36c892c5f -->
<g id="edge1" class="edge">
<title>dir_957d00ce62d54e16e162e55476ce76d1&#45;&gt;dir_4fef79e7177ba769987a8da36c892c5f</title>
<g id="a_edge1"><a xlink:href="dir_000028_000015.html" target="_top">
<path fill="none" stroke="#63b8ff" d="M132.45,-55.79C111.03,-47.13 75.94,-32.93 50.75,-22.74"/>
<polygon fill="#63b8ff" stroke="#63b8ff" points="51.89,-19.42 41.3,-18.92 49.26,-25.91 51.89,-19.42"/>
</a>
</g>
<g id="a_edge1&#45;headlabel"><a xlink:href="dir_000028_000015.html" target="_top" xlink:title="1">
<text text-anchor="middle" x="56.28" y="-15.64" font-family="Helvetica,sans-Serif" font-size="10.00" fill="#63b8ff">1</text>
</a>
</g>
</g>
<!-- dir_cedbad42e133b8f715c15648fd5a31ef -->
<g id="node5" class="node">
<title>dir_cedbad42e133b8f715c15648fd5a31ef</title>
<g id="a_node5"><a xlink:href="dir_cedbad42e133b8f715c15648fd5a31ef.html" target="_top" xlink:title="mem">
<polygon fill="#daedff" stroke="red" stroke-dasharray="5,2" points="101.5,-19 59.5,-19 59.5,0 101.5,0 101.5,-19"/>
<text text-anchor="middle" x="80.5" y="-7" font-family="Helvetica,sans-Serif" font-size="10.00">mem</text>
</a>
</g>
</g>
<!-- dir_957d00ce62d54e16e162e55476ce76d1&#45;&gt;dir_cedbad42e133b8f715c15648fd5a31ef -->
<g id="edge2" class="edge">
<title>dir_957d00ce62d54e16e162e55476ce76d1&#45;&gt;dir_cedbad42e133b8f715c15648fd5a31ef</title>
<g id="a_edge2"><a xlink:href="dir_000028_000069.html" target="_top">
<path fill="none" stroke="#63b8ff" d="M140.09,-54.98C129.39,-47 113.16,-34.88 100.34,-25.31"/>
<polygon fill="#63b8ff" stroke="#63b8ff" points="102.22,-22.35 92.11,-19.17 98.03,-27.96 102.22,-22.35"/>
</a>
</g>
<g id="a_edge2&#45;headlabel"><a xlink:href="dir_000028_000069.html" target="_top" xlink:title="2">
<text text-anchor="middle" x="106.8" y="-19.72" font-family="Helvetica,sans-Serif" font-size="10.00" fill="#63b8ff">2</text>
</a>
</g>
</g>
<!-- dir_d44c64559bbebec7f509842c48db8b23 -->
<g id="node6" class="node">
<title>dir_d44c64559bbebec7f509842c48db8b23</title>
<g id="a_node6"><a xlink:href="dir_d44c64559bbebec7f509842c48db8b23.html" target="_top" xlink:title="include">
<polygon fill="#daedff" stroke="red" points="171.5,-19 119.5,-19 119.5,0 171.5,0 171.5,-19"/>
<text text-anchor="middle" x="145.5" y="-7" font-family="Helvetica,sans-Serif" font-size="10.00">include</text>
</a>
</g>
</g>
<!-- dir_957d00ce62d54e16e162e55476ce76d1&#45;&gt;dir_d44c64559bbebec7f509842c48db8b23 -->
<g id="edge3" class="edge">
<title>dir_957d00ce62d54e16e162e55476ce76d1&#45;&gt;dir_d44c64559bbebec7f509842c48db8b23</title>
<g id="a_edge3"><a xlink:href="dir_000028_000046.html" target="_top">
<path fill="none" stroke="#63b8ff" d="M150.51,-54.75C149.72,-47.8 148.6,-37.85 147.61,-29.13"/>
<polygon fill="#63b8ff" stroke="#63b8ff" points="151.08,-28.63 146.47,-19.09 144.12,-29.42 151.08,-28.63"/>
</a>
</g>
<g id="a_edge3&#45;headlabel"><a xlink:href="dir_000028_000046.html" target="_top" xlink:title="6">
<text text-anchor="middle" x="154.3" y="-29.38" font-family="Helvetica,sans-Serif" font-size="10.00" fill="#63b8ff">6</text>
</a>
</g>
</g>
<!-- dir_d601130d73b5d9bde1898beee8657e2a -->
<g id="node7" class="node">
<title>dir_d601130d73b5d9bde1898beee8657e2a</title>
<g id="a_node7"><a xlink:href="dir_d601130d73b5d9bde1898beee8657e2a.html" target="_top" xlink:title="math">
<polygon fill="#daedff" stroke="red" stroke-dasharray="5,2" points="231.5,-19 189.5,-19 189.5,0 231.5,0 231.5,-19"/>
<text text-anchor="middle" x="210.5" y="-7" font-family="Helvetica,sans-Serif" font-size="10.00">math</text>
</a>
</g>
</g>
<!-- dir_957d00ce62d54e16e162e55476ce76d1&#45;&gt;dir_d601130d73b5d9bde1898beee8657e2a -->
<g id="edge4" class="edge">
<title>dir_957d00ce62d54e16e162e55476ce76d1&#45;&gt;dir_d601130d73b5d9bde1898beee8657e2a</title>
<g id="a_edge4"><a xlink:href="dir_000028_000061.html" target="_top">
<path fill="none" stroke="#63b8ff" d="M160.98,-54.98C169.7,-47.15 182.84,-35.34 193.4,-25.86"/>
<polygon fill="#63b8ff" stroke="#63b8ff" points="195.75,-28.46 200.85,-19.17 191.07,-23.25 195.75,-28.46"/>
</a>
</g>
<g id="a_edge4&#45;headlabel"><a xlink:href="dir_000028_000061.html" target="_top" xlink:title="2">
<text text-anchor="middle" x="194.97" y="-30.47" font-family="Helvetica,sans-Serif" font-size="10.00" fill="#63b8ff">2</text>
</a>
</g>
</g>
<!-- dir_dcfbcf0a65711aa4d5d9d7eb90fe0bc1 -->
<g id="node8" class="node">
<title>dir_dcfbcf0a65711aa4d5d9d7eb90fe0bc1</title>
<g id="a_node8"><a xlink:href="dir_dcfbcf0a65711aa4d5d9d7eb90fe0bc1.html" target="_top" xlink:title="include">
<polygon fill="#daedff" stroke="red" stroke-dasharray="5,2" points="301.5,-19 249.5,-19 249.5,0 301.5,0 301.5,-19"/>
<text text-anchor="middle" x="275.5" y="-7" font-family="Helvetica,sans-Serif" font-size="10.00">include</text>
</a>
</g>
</g>
<!-- dir_957d00ce62d54e16e162e55476ce76d1&#45;&gt;dir_dcfbcf0a65711aa4d5d9d7eb90fe0bc1 -->
<g id="edge5" class="edge">
<title>dir_957d00ce62d54e16e162e55476ce76d1&#45;&gt;dir_dcfbcf0a65711aa4d5d9d7eb90fe0bc1</title>
<g id="a_edge5"><a xlink:href="dir_000028_000051.html" target="_top">
<path fill="none" stroke="#63b8ff" d="M159.59,-54.72C164.82,-49.5 172.03,-43.12 179.5,-39 189.98,-33.23 216.94,-25.42 239.63,-19.44"/>
<polygon fill="#63b8ff" stroke="#63b8ff" points="240.55,-22.82 249.35,-16.92 238.8,-16.04 240.55,-22.82"/>
</a>
</g>
<g id="a_edge5&#45;headlabel"><a xlink:href="dir_000028_000051.html" target="_top" xlink:title="5">
<text text-anchor="middle" x="237.79" y="-23.97" font-family="Helvetica,sans-Serif" font-size="10.00" fill="#63b8ff">5</text>
</a>
</g>
</g>
<!-- dir_e367f229c2df72db7ee359781744eeb4 -->
<g id="node2" class="node">
<title>dir_e367f229c2df72db7ee359781744eeb4</title>
<g id="a_node2"><a xlink:href="dir_e367f229c2df72db7ee359781744eeb4.html" target="_top" xlink:title="be">
<polygon fill="#4ea9ff" stroke="#404040" points="218,-74 189,-74 189,-55 218,-55 218,-74"/>
<text text-anchor="middle" x="203.5" y="-62" font-family="Helvetica,sans-Serif" font-size="10.00">be</text>
</a>
</g>
</g>
<!-- dir_7d85749655dacf503016d4bfa58a48ec -->
<g id="node4" class="node">
<title>dir_7d85749655dacf503016d4bfa58a48ec</title>
<g id="a_node4"><a xlink:href="dir_7d85749655dacf503016d4bfa58a48ec.html" target="_top" xlink:title="clos">
<polygon fill="#daedff" stroke="red" stroke-dasharray="5,2" points="355.5,-19 319.5,-19 319.5,0 355.5,0 355.5,-19"/>
<text text-anchor="middle" x="337.5" y="-7" font-family="Helvetica,sans-Serif" font-size="10.00">clos</text>
</a>
</g>
</g>
<!-- dir_e367f229c2df72db7ee359781744eeb4&#45;&gt;dir_7d85749655dacf503016d4bfa58a48ec -->
<g id="edge6" class="edge">
<title>dir_e367f229c2df72db7ee359781744eeb4&#45;&gt;dir_7d85749655dacf503016d4bfa58a48ec</title>
<g id="a_edge6"><a xlink:href="dir_000013_000018.html" target="_top">
<path fill="none" stroke="#63b8ff" d="M218.1,-57.73C239.96,-49.08 281.64,-32.59 309.5,-21.57"/>
<polygon fill="#63b8ff" stroke="#63b8ff" points="311.07,-24.72 319.08,-17.78 308.5,-18.21 311.07,-24.72"/>
</a>
</g>
<g id="a_edge6&#45;headlabel"><a xlink:href="dir_000013_000018.html" target="_top" xlink:title="1">
<text text-anchor="middle" x="308.77" y="-26.18" font-family="Helvetica,sans-Serif" font-size="10.00" fill="#63b8ff">1</text>
</a>
</g>
</g>
<!-- dir_e367f229c2df72db7ee359781744eeb4&#45;&gt;dir_cedbad42e133b8f715c15648fd5a31ef -->
<g id="edge7" class="edge">
<title>dir_e367f229c2df72db7ee359781744eeb4&#45;&gt;dir_cedbad42e133b8f715c15648fd5a31ef</title>
<g id="a_edge7"><a xlink:href="dir_000013_000069.html" target="_top">
<path fill="none" stroke="#63b8ff" d="M196.81,-54.66C192.42,-49.42 186.25,-43.03 179.5,-39 178.73,-38.54 140.19,-27.51 111.43,-19.31"/>
<polygon fill="#63b8ff" stroke="#63b8ff" points="112.32,-15.92 101.75,-16.54 110.41,-22.65 112.32,-15.92"/>
</a>
</g>
<g id="a_edge7&#45;headlabel"><a xlink:href="dir_000013_000069.html" target="_top" xlink:title="1">
<text text-anchor="middle" x="116.56" y="-11.67" font-family="Helvetica,sans-Serif" font-size="10.00" fill="#63b8ff">1</text>
</a>
</g>
</g>
<!-- dir_e367f229c2df72db7ee359781744eeb4&#45;&gt;dir_d44c64559bbebec7f509842c48db8b23 -->
<g id="edge8" class="edge">
<title>dir_e367f229c2df72db7ee359781744eeb4&#45;&gt;dir_d44c64559bbebec7f509842c48db8b23</title>
<g id="a_edge8"><a xlink:href="dir_000013_000046.html" target="_top">
<path fill="none" stroke="#63b8ff" d="M195.26,-54.68C190.72,-49.92 184.92,-44.01 179.5,-39 174.72,-34.58 169.39,-29.97 164.39,-25.77"/>
<polygon fill="#63b8ff" stroke="#63b8ff" points="166.39,-22.89 156.45,-19.22 161.94,-28.29 166.39,-22.89"/>
</a>
</g>
<g id="a_edge8&#45;headlabel"><a xlink:href="dir_000013_000046.html" target="_top" xlink:title="4">
<text text-anchor="middle" x="170.97" y="-20.49" font-family="Helvetica,sans-Serif" font-size="10.00" fill="#63b8ff">4</text>
</a>
</g>
</g>
<!-- dir_e367f229c2df72db7ee359781744eeb4&#45;&gt;dir_d601130d73b5d9bde1898beee8657e2a -->
<g id="edge9" class="edge">
<title>dir_e367f229c2df72db7ee359781744eeb4&#45;&gt;dir_d601130d73b5d9bde1898beee8657e2a</title>
<g id="a_edge9"><a xlink:href="dir_000013_000061.html" target="_top">
<path fill="none" stroke="#63b8ff" d="M204.66,-54.75C205.57,-47.8 206.89,-37.85 208.04,-29.13"/>
<polygon fill="#63b8ff" stroke="#63b8ff" points="211.53,-29.46 209.37,-19.09 204.59,-28.54 211.53,-29.46"/>
</a>
</g>
<g id="a_edge9&#45;headlabel"><a xlink:href="dir_000013_000061.html" target="_top" xlink:title="1">
<text text-anchor="middle" x="213.87" y="-30.9" font-family="Helvetica,sans-Serif" font-size="10.00" fill="#63b8ff">1</text>
</a>
</g>
</g>
<!-- dir_e367f229c2df72db7ee359781744eeb4&#45;&gt;dir_dcfbcf0a65711aa4d5d9d7eb90fe0bc1 -->
<g id="edge10" class="edge">
<title>dir_e367f229c2df72db7ee359781744eeb4&#45;&gt;dir_dcfbcf0a65711aa4d5d9d7eb90fe0bc1</title>
<g id="a_edge10"><a xlink:href="dir_000013_000051.html" target="_top">
<path fill="none" stroke="#63b8ff" d="M215.07,-54.98C225.92,-47 242.38,-34.88 255.38,-25.31"/>
<polygon fill="#63b8ff" stroke="#63b8ff" points="257.74,-27.92 263.72,-19.17 253.59,-22.28 257.74,-27.92"/>
</a>
</g>
<g id="a_edge10&#45;headlabel"><a xlink:href="dir_000013_000051.html" target="_top" xlink:title="2">
<text text-anchor="middle" x="256.53" y="-29.83" font-family="Helvetica,sans-Serif" font-size="10.00" fill="#63b8ff">2</text>
</a>
</g>
</g>
</g>
</svg>
