<?xml version="1.0" encoding="UTF-8" standalone="no"?>
<!DOCTYPE svg PUBLIC "-//W3C//DTD SVG 1.1//EN"
 "http://www.w3.org/Graphics/SVG/1.1/DTD/svg11.dtd">
<!-- Generated by graphviz version 2.50.0 (20220203.2022)
 -->
<!-- Title: thorin/pass Pages: 1 -->
<svg width="292pt" height="319pt"
 viewBox="0.00 0.00 292.00 319.00" xmlns="http://www.w3.org/2000/svg" xmlns:xlink="http://www.w3.org/1999/xlink">
<g id="graph0" class="graph" transform="scale(1 1) rotate(0) translate(4 315)">
<title>thorin/pass</title>
<g id="clust1" class="cluster">
<title>clusterdir_6a7c4bb7c40f97e4d670d167d69dfc05</title>
<g id="a_clust1"><a xlink:href="dir_6a7c4bb7c40f97e4d670d167d69dfc05.html" target="_top" xlink:title="thorin">
<polygon fill="#edf0f7" stroke="#404040" stroke-dasharray="5,2" points="8,-8 8,-303 276,-303 276,-8 8,-8"/>
<text text-anchor="middle" x="142" y="-291" font-family="Helvetica,sans-Serif" font-size="10.00">thorin</text>
</a>
</g>
</g>
<g id="clust2" class="cluster">
<title>clusterdir_1ec7729e689b089adde9e24519056c3b</title>
<g id="a_clust2"><a xlink:href="dir_1ec7729e689b089adde9e24519056c3b.html" target="_top">
<polygon fill="#edf0f7" stroke="#404040" stroke-width="2" points="16,-80 16,-276 106,-276 106,-80 16,-80"/>
</a>
</g>
</g>
<!-- dir_647d7e517ed52fee7f7d2f5727afce43 -->
<g id="node1" class="node">
<title>dir_647d7e517ed52fee7f7d2f5727afce43</title>
<g id="a_node1"><a xlink:href="dir_647d7e517ed52fee7f7d2f5727afce43.html" target="_top" xlink:title="transform">
<polygon fill="#a2b4d6" stroke="#404040" points="174,-196 116,-196 116,-160 174,-160 174,-196"/>
<text text-anchor="middle" x="145" y="-175.5" font-family="Helvetica,sans-Serif" font-size="10.00">transform</text>
</a>
</g>
</g>
<!-- dir_7e048ce593bddfd97190539f41380f52 -->
<g id="node2" class="node">
<title>dir_7e048ce593bddfd97190539f41380f52</title>
<g id="a_node2"><a xlink:href="dir_7e048ce593bddfd97190539f41380f52.html" target="_top" xlink:title="analyses">
<polygon fill="#a2b4d6" stroke="#404040" points="247.5,-196 192.5,-196 192.5,-160 247.5,-160 247.5,-196"/>
<text text-anchor="middle" x="220" y="-175.5" font-family="Helvetica,sans-Serif" font-size="10.00">analyses</text>
</a>
</g>
</g>
<!-- dir_b4c1616413e32b88824b4ffdc9da0708 -->
<g id="node3" class="node">
<title>dir_b4c1616413e32b88824b4ffdc9da0708</title>
<g id="a_node3"><a xlink:href="dir_b4c1616413e32b88824b4ffdc9da0708.html" target="_top" xlink:title="util">
<polygon fill="#a2b4d6" stroke="#404040" points="183,-52 129,-52 129,-16 183,-16 183,-52"/>
<text text-anchor="middle" x="156" y="-31.5" font-family="Helvetica,sans-Serif" font-size="10.00">util</text>
</a>
</g>
</g>
<!-- dir_1ec7729e689b089adde9e24519056c3b -->
<g id="node4" class="node">
<title>dir_1ec7729e689b089adde9e24519056c3b</title>
<text text-anchor="middle" x="71" y="-247.5" font-family="Helvetica,sans-Serif" font-size="10.00">pass</text>
</g>
<!-- dir_1ec7729e689b089adde9e24519056c3b&#45;&gt;dir_647d7e517ed52fee7f7d2f5727afce43 -->
<g id="edge2" class="edge">
<title>dir_1ec7729e689b089adde9e24519056c3b&#45;&gt;dir_647d7e517ed52fee7f7d2f5727afce43</title>
<path fill="none" stroke="black" d="M89.29,-231.7C98.43,-223.05 109.64,-212.45 119.6,-203.03"/>
<polygon fill="black" stroke="black" points="122.06,-205.52 126.92,-196.1 117.25,-200.43 122.06,-205.52"/>
<g id="a_edge2&#45;headlabel"><a xlink:href="dir_000007_000010.html" target="_top" xlink:title="2">
<text text-anchor="middle" x="121.4" y="-207.55" font-family="Helvetica,sans-Serif" font-size="10.00">2</text>
</a>
</g>
</g>
<!-- dir_1ec7729e689b089adde9e24519056c3b&#45;&gt;dir_7e048ce593bddfd97190539f41380f52 -->
<g id="edge3" class="edge">
<title>dir_1ec7729e689b089adde9e24519056c3b&#45;&gt;dir_7e048ce593bddfd97190539f41380f52</title>
<path fill="none" stroke="black" d="M98.33,-236.16C122.12,-224.98 156.82,-208.68 183.08,-196.34"/>
<polygon fill="black" stroke="black" points="184.78,-199.41 192.34,-191.99 181.8,-193.08 184.78,-199.41"/>
<g id="a_edge3&#45;headlabel"><a xlink:href="dir_000007_000000.html" target="_top" xlink:title="1">
<text text-anchor="middle" x="182.73" y="-201.01" font-family="Helvetica,sans-Serif" font-size="10.00">1</text>
</a>
</g>
</g>
<!-- dir_1ec7729e689b089adde9e24519056c3b&#45;&gt;dir_b4c1616413e32b88824b4ffdc9da0708 -->
<g id="edge4" class="edge">
<title>dir_1ec7729e689b089adde9e24519056c3b&#45;&gt;dir_b4c1616413e32b88824b4ffdc9da0708</title>
<path fill="none" stroke="black" d="M98.25,-245.27C145.12,-238.23 237.83,-221.39 257,-196 292.22,-149.34 230.3,-90.14 188.84,-58.11"/>
<polygon fill="black" stroke="black" points="190.94,-55.32 180.85,-52.08 186.72,-60.9 190.94,-55.32"/>
<g id="a_edge4&#45;headlabel"><a xlink:href="dir_000007_000011.html" target="_top" xlink:title="3">
<text text-anchor="middle" x="195.52" y="-52.72" font-family="Helvetica,sans-Serif" font-size="10.00">3</text>
</a>
</g>
</g>
<!-- dir_3f2eb28d1bda468dd4520f242f410c64 -->
<g id="node5" class="node">
<title>dir_3f2eb28d1bda468dd4520f242f410c64</title>
<g id="a_node5"><a xlink:href="dir_3f2eb28d1bda468dd4520f242f410c64.html" target="_top" xlink:title="fp">
<polygon fill="#a2b4d6" stroke="#404040" points="98,-124 44,-124 44,-88 98,-88 98,-124"/>
<text text-anchor="middle" x="71" y="-103.5" font-family="Helvetica,sans-Serif" font-size="10.00">fp</text>
</a>
</g>
</g>
<!-- dir_1ec7729e689b089adde9e24519056c3b&#45;&gt;dir_3f2eb28d1bda468dd4520f242f410c64 -->
<g id="edge1" class="edge">
<title>dir_1ec7729e689b089adde9e24519056c3b&#45;&gt;dir_3f2eb28d1bda468dd4520f242f410c64</title>
<path fill="none" stroke="black" d="M55.39,-231.77C47.63,-222.03 39.05,-209.18 35,-196 30.3,-180.71 30.3,-175.29 35,-160 38.01,-150.22 43.51,-140.62 49.32,-132.33"/>
<polygon fill="black" stroke="black" points="52.19,-134.33 55.39,-124.23 46.59,-130.13 52.19,-134.33"/>
<g id="a_edge1&#45;headlabel"><a xlink:href="dir_000007_000005.html" target="_top" xlink:title="7">
<text text-anchor="middle" x="52.31" y="-136.41" font-family="Helvetica,sans-Serif" font-size="10.00">7</text>
</a>
</g>
</g>
<!-- dir_bedb7d08736b40aaace21d5514fd3ecc -->
<g id="node6" class="node">
<title>dir_bedb7d08736b40aaace21d5514fd3ecc</title>
<g id="a_node6"><a xlink:href="dir_bedb7d08736b40aaace21d5514fd3ecc.html" target="_top" xlink:title="rw">
<polygon fill="#a2b4d6" stroke="#404040" points="98,-196 44,-196 44,-160 98,-160 98,-196"/>
<text text-anchor="middle" x="71" y="-175.5" font-family="Helvetica,sans-Serif" font-size="10.00">rw</text>
</a>
</g>
</g>
<!-- dir_1ec7729e689b089adde9e24519056c3b&#45;&gt;dir_bedb7d08736b40aaace21d5514fd3ecc -->
<g id="edge5" class="edge">
<title>dir_1ec7729e689b089adde9e24519056c3b&#45;&gt;dir_bedb7d08736b40aaace21d5514fd3ecc</title>
<path fill="none" stroke="black" d="M71,-231.7C71,-223.98 71,-214.71 71,-206.11"/>
<polygon fill="black" stroke="black" points="74.5,-206.1 71,-196.1 67.5,-206.1 74.5,-206.1"/>
<g id="a_edge5&#45;headlabel"><a xlink:href="dir_000007_000008.html" target="_top" xlink:title="6">
<text text-anchor="middle" x="77.34" y="-207.2" font-family="Helvetica,sans-Serif" font-size="10.00">6</text>
</a>
</g>
</g>
<!-- dir_3f2eb28d1bda468dd4520f242f410c64&#45;&gt;dir_b4c1616413e32b88824b4ffdc9da0708 -->
<g id="edge6" class="edge">
<title>dir_3f2eb28d1bda468dd4520f242f410c64&#45;&gt;dir_b4c1616413e32b88824b4ffdc9da0708</title>
<path fill="none" stroke="black" d="M92.01,-87.7C102.72,-78.88 115.89,-68.03 127.5,-58.47"/>
<polygon fill="black" stroke="black" points="129.74,-61.16 135.23,-52.1 125.29,-55.76 129.74,-61.16"/>
<g id="a_edge6&#45;headlabel"><a xlink:href="dir_000005_000011.html" target="_top" xlink:title="2">
<text text-anchor="middle" x="128.77" y="-63.14" font-family="Helvetica,sans-Serif" font-size="10.00">2</text>
</a>
</g>
</g>
<!-- dir_bedb7d08736b40aaace21d5514fd3ecc&#45;&gt;dir_3f2eb28d1bda468dd4520f242f410c64 -->
<g id="edge7" class="edge">
<title>dir_bedb7d08736b40aaace21d5514fd3ecc&#45;&gt;dir_3f2eb28d1bda468dd4520f242f410c64</title>
<path fill="none" stroke="black" d="M71,-159.7C71,-151.98 71,-142.71 71,-134.11"/>
<polygon fill="black" stroke="black" points="74.5,-134.1 71,-124.1 67.5,-134.1 74.5,-134.1"/>
<g id="a_edge7&#45;headlabel"><a xlink:href="dir_000008_000005.html" target="_top" xlink:title="1">
<text text-anchor="middle" x="77.34" y="-135.2" font-family="Helvetica,sans-Serif" font-size="10.00">1</text>
</a>
</g>
</g>
</g>
</svg>
