<?xml version="1.0" encoding="UTF-8" standalone="no"?>
<!DOCTYPE svg PUBLIC "-//W3C//DTD SVG 1.1//EN"
 "http://www.w3.org/Graphics/SVG/1.1/DTD/svg11.dtd">
<!-- Generated by graphviz version 2.43.0 (0)
 -->
<!-- Title: thorin Pages: 1 -->
<svg width="325pt" height="279pt"
 viewBox="0.00 0.00 324.50 279.00" xmlns="http://www.w3.org/2000/svg" xmlns:xlink="http://www.w3.org/1999/xlink">
<g id="graph0" class="graph" transform="scale(1 1) rotate(0) translate(4 275)">
<title>thorin</title>
<g id="clust1" class="cluster">
<title>clusterdir_c4168c80b7484587a21dc92c326c695e</title>
<g id="a_clust1"><a xlink:href="dir_c4168c80b7484587a21dc92c326c695e.html" target="_top">
<polygon fill="#daedff" stroke="#404040" stroke-width="2" points="8,-8 8,-263 192,-263 192,-8 8,-8"/>
</a>
</g>
</g>
<!-- dir_c4168c80b7484587a21dc92c326c695e -->
<g id="node1" class="node">
<title>dir_c4168c80b7484587a21dc92c326c695e</title>
<text text-anchor="middle" x="74" y="-133" font-family="Helvetica,sans-Serif" font-size="10.00">thorin</text>
</g>
<!-- dir_91cc3e6bd7c42aaa24383bdfa6f52de6 -->
<g id="node2" class="node">
<title>dir_91cc3e6bd7c42aaa24383bdfa6f52de6</title>
<g id="a_node2"><a xlink:href="dir_91cc3e6bd7c42aaa24383bdfa6f52de6.html" target="_top" xlink:title="analyses">
<polygon fill="#4ea9ff" stroke="#404040" points="164,-90 104,-90 104,-71 164,-71 164,-90"/>
<text text-anchor="middle" x="134" y="-78" font-family="Helvetica,sans-Serif" font-size="10.00">analyses</text>
</a>
</g>
</g>
<!-- dir_c4168c80b7484587a21dc92c326c695e&#45;&gt;dir_91cc3e6bd7c42aaa24383bdfa6f52de6 -->
<g id="edge2" class="edge">
<title>dir_c4168c80b7484587a21dc92c326c695e&#45;&gt;dir_91cc3e6bd7c42aaa24383bdfa6f52de6</title>
<path fill="none" stroke="#63b8ff" d="M83.64,-125.98C92.51,-118.15 105.87,-106.34 116.61,-96.86"/>
<polygon fill="#63b8ff" stroke="#63b8ff" points="119.01,-99.41 124.18,-90.17 114.37,-94.17 119.01,-99.41"/>
<g id="a_edge2&#45;headlabel"><a xlink:href="dir_000059_000002.html" target="_top" xlink:title="7">
<text text-anchor="middle" x="118.19" y="-101.42" font-family="Helvetica,sans-Serif" font-size="10.00" fill="#63b8ff">7</text>
</a>
</g>
</g>
<!-- dir_bdc7e8131cbf0032850c465464da8867 -->
<g id="node4" class="node">
<title>dir_bdc7e8131cbf0032850c465464da8867</title>
<g id="a_node4"><a xlink:href="dir_bdc7e8131cbf0032850c465464da8867.html" target="_top" xlink:title="fe">
<polygon fill="#4ea9ff" stroke="#404040" points="85.5,-90 56.5,-90 56.5,-71 85.5,-71 85.5,-90"/>
<text text-anchor="middle" x="71" y="-78" font-family="Helvetica,sans-Serif" font-size="10.00">fe</text>
</a>
</g>
</g>
<!-- dir_c4168c80b7484587a21dc92c326c695e&#45;&gt;dir_bdc7e8131cbf0032850c465464da8867 -->
<g id="edge4" class="edge">
<title>dir_c4168c80b7484587a21dc92c326c695e&#45;&gt;dir_bdc7e8131cbf0032850c465464da8867</title>
<path fill="none" stroke="#63b8ff" d="M73.5,-125.75C73.11,-118.8 72.55,-108.85 72.05,-100.13"/>
<polygon fill="#63b8ff" stroke="#63b8ff" points="75.55,-99.88 71.49,-90.09 68.56,-100.27 75.55,-99.88"/>
<g id="a_edge4&#45;headlabel"><a xlink:href="dir_000059_000026.html" target="_top" xlink:title="1">
<text text-anchor="middle" x="78.58" y="-100.8" font-family="Helvetica,sans-Serif" font-size="10.00" fill="#63b8ff">1</text>
</a>
</g>
</g>
<!-- dir_af13e0a143b7ca68f7428894b6ff07d9 -->
<g id="node7" class="node">
<title>dir_af13e0a143b7ca68f7428894b6ff07d9</title>
<g id="a_node7"><a xlink:href="dir_af13e0a143b7ca68f7428894b6ff07d9.html" target="_top" xlink:title="util">
<polygon fill="#4ea9ff" stroke="#404040" points="87,-35 55,-35 55,-16 87,-16 87,-35"/>
<text text-anchor="middle" x="71" y="-23" font-family="Helvetica,sans-Serif" font-size="10.00">util</text>
</a>
</g>
</g>
<!-- dir_c4168c80b7484587a21dc92c326c695e&#45;&gt;dir_af13e0a143b7ca68f7428894b6ff07d9 -->
<g id="edge3" class="edge">
<title>dir_c4168c80b7484587a21dc92c326c695e&#45;&gt;dir_af13e0a143b7ca68f7428894b6ff07d9</title>
<path fill="none" stroke="#63b8ff" d="M67.11,-125.93C60.73,-117.4 51.69,-103.65 48,-90 43.7,-74.13 51.02,-56.59 58.51,-43.97"/>
<polygon fill="#63b8ff" stroke="#63b8ff" points="61.57,-45.68 64.09,-35.39 55.7,-41.87 61.57,-45.68"/>
<g id="a_edge3&#45;headlabel"><a xlink:href="dir_000059_000060.html" target="_top" xlink:title="41">
<text text-anchor="middle" x="61.99" y="-47.75" font-family="Helvetica,sans-Serif" font-size="10.00" fill="#63b8ff">41</text>
</a>
</g>
</g>
<!-- dir_4fef79e7177ba769987a8da36c892c5f -->
<g id="node8" class="node">
<title>dir_4fef79e7177ba769987a8da36c892c5f</title>
<g id="a_node8"><a xlink:href="dir_4fef79e7177ba769987a8da36c892c5f.html" target="_top" xlink:title="build">
<polygon fill="#daedff" stroke="red" points="243.5,-90 202.5,-90 202.5,-71 243.5,-71 243.5,-90"/>
<text text-anchor="middle" x="223" y="-78" font-family="Helvetica,sans-Serif" font-size="10.00">build</text>
</a>
</g>
</g>
<!-- dir_c4168c80b7484587a21dc92c326c695e&#45;&gt;dir_4fef79e7177ba769987a8da36c892c5f -->
<g id="edge1" class="edge">
<title>dir_c4168c80b7484587a21dc92c326c695e&#45;&gt;dir_4fef79e7177ba769987a8da36c892c5f</title>
<path fill="none" stroke="#63b8ff" d="M96.63,-126.45C122.26,-117.33 164.16,-102.43 192.63,-92.3"/>
<polygon fill="#63b8ff" stroke="#63b8ff" points="193.84,-95.59 202.09,-88.94 191.49,-88.99 193.84,-95.59"/>
<g id="a_edge1&#45;headlabel"><a xlink:href="dir_000059_000008.html" target="_top" xlink:title="3">
<text text-anchor="middle" x="191.4" y="-96.97" font-family="Helvetica,sans-Serif" font-size="10.00" fill="#63b8ff">3</text>
</a>
</g>
</g>
<!-- dir_91cc3e6bd7c42aaa24383bdfa6f52de6&#45;&gt;dir_af13e0a143b7ca68f7428894b6ff07d9 -->
<g id="edge5" class="edge">
<title>dir_91cc3e6bd7c42aaa24383bdfa6f52de6&#45;&gt;dir_af13e0a143b7ca68f7428894b6ff07d9</title>
<path fill="none" stroke="#63b8ff" d="M123.88,-70.98C114.56,-63.15 100.53,-51.34 89.26,-41.86"/>
<polygon fill="#63b8ff" stroke="#63b8ff" points="91.21,-38.93 81.31,-35.17 86.71,-44.29 91.21,-38.93"/>
<g id="a_edge5&#45;headlabel"><a xlink:href="dir_000002_000060.html" target="_top" xlink:title="9">
<text text-anchor="middle" x="95.79" y="-36.57" font-family="Helvetica,sans-Serif" font-size="10.00" fill="#63b8ff">9</text>
</a>
</g>
</g>
<!-- dir_e925b2e9311ea88d6ed8c8d868701100 -->
<g id="node3" class="node">
<title>dir_e925b2e9311ea88d6ed8c8d868701100</title>
<g id="a_node3"><a xlink:href="dir_e925b2e9311ea88d6ed8c8d868701100.html" target="_top" xlink:title="be">
<polygon fill="#4ea9ff" stroke="#404040" points="133.5,-255 104.5,-255 104.5,-236 133.5,-236 133.5,-255"/>
<text text-anchor="middle" x="119" y="-243" font-family="Helvetica,sans-Serif" font-size="10.00">be</text>
</a>
</g>
</g>
<!-- dir_e925b2e9311ea88d6ed8c8d868701100&#45;&gt;dir_91cc3e6bd7c42aaa24383bdfa6f52de6 -->
<g id="edge7" class="edge">
<title>dir_e925b2e9311ea88d6ed8c8d868701100&#45;&gt;dir_91cc3e6bd7c42aaa24383bdfa6f52de6</title>
<path fill="none" stroke="#63b8ff" d="M119.81,-235.74C122.15,-210.31 128.98,-136.08 132.23,-100.69"/>
<polygon fill="#63b8ff" stroke="#63b8ff" points="135.76,-100.59 133.19,-90.31 128.79,-99.94 135.76,-100.59"/>
<g id="a_edge7&#45;headlabel"><a xlink:href="dir_000007_000002.html" target="_top" xlink:title="1">
<text text-anchor="middle" x="138.26" y="-101.93" font-family="Helvetica,sans-Serif" font-size="10.00" fill="#63b8ff">1</text>
</a>
</g>
</g>
<!-- dir_5e1a14d2df38e6ee42ace67cdb12bbb6 -->
<g id="node6" class="node">
<title>dir_5e1a14d2df38e6ee42ace67cdb12bbb6</title>
<g id="a_node6"><a xlink:href="dir_5e1a14d2df38e6ee42ace67cdb12bbb6.html" target="_top" xlink:title="phase">
<polygon fill="#4ea9ff" stroke="#404040" points="184,-200 138,-200 138,-181 184,-181 184,-200"/>
<text text-anchor="middle" x="161" y="-188" font-family="Helvetica,sans-Serif" font-size="10.00">phase</text>
</a>
</g>
</g>
<!-- dir_e925b2e9311ea88d6ed8c8d868701100&#45;&gt;dir_5e1a14d2df38e6ee42ace67cdb12bbb6 -->
<g id="edge6" class="edge">
<title>dir_e925b2e9311ea88d6ed8c8d868701100&#45;&gt;dir_5e1a14d2df38e6ee42ace67cdb12bbb6</title>
<path fill="none" stroke="#63b8ff" d="M125.94,-235.75C131.87,-228.26 140.57,-217.28 147.82,-208.13"/>
<polygon fill="#63b8ff" stroke="#63b8ff" points="150.73,-210.1 154.19,-200.09 145.24,-205.75 150.73,-210.1"/>
<g id="a_edge6&#45;headlabel"><a xlink:href="dir_000007_000050.html" target="_top" xlink:title="1">
<text text-anchor="middle" x="150.72" y="-212.18" font-family="Helvetica,sans-Serif" font-size="10.00" fill="#63b8ff">1</text>
</a>
</g>
</g>
<!-- dir_e925b2e9311ea88d6ed8c8d868701100&#45;&gt;dir_af13e0a143b7ca68f7428894b6ff07d9 -->
<g id="edge8" class="edge">
<title>dir_e925b2e9311ea88d6ed8c8d868701100&#45;&gt;dir_af13e0a143b7ca68f7428894b6ff07d9</title>
<path fill="none" stroke="#63b8ff" d="M109.16,-235.85C91.87,-219.92 56.59,-184 43,-145 32.18,-113.94 32.63,-102.53 42,-71 44.98,-60.98 51,-51.11 56.79,-43.22"/>
<polygon fill="#63b8ff" stroke="#63b8ff" points="59.63,-45.28 63.06,-35.25 54.13,-40.95 59.63,-45.28"/>
<g id="a_edge8&#45;headlabel"><a xlink:href="dir_000007_000060.html" target="_top" xlink:title="2">
<text text-anchor="middle" x="59.64" y="-47.36" font-family="Helvetica,sans-Serif" font-size="10.00" fill="#63b8ff">2</text>
</a>
</g>
</g>
<!-- dir_bdc7e8131cbf0032850c465464da8867&#45;&gt;dir_af13e0a143b7ca68f7428894b6ff07d9 -->
<g id="edge9" class="edge">
<title>dir_bdc7e8131cbf0032850c465464da8867&#45;&gt;dir_af13e0a143b7ca68f7428894b6ff07d9</title>
<path fill="none" stroke="#63b8ff" d="M71,-70.75C71,-63.8 71,-53.85 71,-45.13"/>
<polygon fill="#63b8ff" stroke="#63b8ff" points="74.5,-45.09 71,-35.09 67.5,-45.09 74.5,-45.09"/>
<g id="a_edge9&#45;headlabel"><a xlink:href="dir_000026_000060.html" target="_top" xlink:title="9">
<text text-anchor="middle" x="77.34" y="-46.18" font-family="Helvetica,sans-Serif" font-size="10.00" fill="#63b8ff">9</text>
</a>
</g>
</g>
<!-- dir_02386abad8cd81366000917a379dc307 -->
<g id="node5" class="node">
<title>dir_02386abad8cd81366000917a379dc307</title>
<g id="a_node5"><a xlink:href="dir_02386abad8cd81366000917a379dc307.html" target="_top" xlink:title="pass">
<polygon fill="#4ea9ff" stroke="#404040" points="180.5,-145 141.5,-145 141.5,-126 180.5,-126 180.5,-145"/>
<text text-anchor="middle" x="161" y="-133" font-family="Helvetica,sans-Serif" font-size="10.00">pass</text>
</a>
</g>
</g>
<!-- dir_02386abad8cd81366000917a379dc307&#45;&gt;dir_91cc3e6bd7c42aaa24383bdfa6f52de6 -->
<g id="edge13" class="edge">
<title>dir_02386abad8cd81366000917a379dc307&#45;&gt;dir_91cc3e6bd7c42aaa24383bdfa6f52de6</title>
<path fill="none" stroke="#63b8ff" d="M156.54,-125.75C152.88,-118.57 147.59,-108.18 143.05,-99.27"/>
<polygon fill="#63b8ff" stroke="#63b8ff" points="146.03,-97.41 138.38,-90.09 139.8,-100.59 146.03,-97.41"/>
<g id="a_edge13&#45;headlabel"><a xlink:href="dir_000041_000002.html" target="_top" xlink:title="1">
<text text-anchor="middle" x="150.2" y="-96.82" font-family="Helvetica,sans-Serif" font-size="10.00" fill="#63b8ff">1</text>
</a>
</g>
</g>
<!-- dir_02386abad8cd81366000917a379dc307&#45;&gt;dir_5e1a14d2df38e6ee42ace67cdb12bbb6 -->
<g id="edge10" class="edge">
<title>dir_02386abad8cd81366000917a379dc307&#45;&gt;dir_5e1a14d2df38e6ee42ace67cdb12bbb6</title>
<path fill="none" stroke="#63b8ff" d="M166.13,-145.09C167.64,-151.99 168.09,-161.93 167.49,-170.66"/>
<polygon fill="#63b8ff" stroke="#63b8ff" points="164,-170.38 166.17,-180.75 170.94,-171.29 164,-170.38"/>
<g id="a_edge10&#45;headlabel"><a xlink:href="dir_000041_000050.html" target="_top" xlink:title="4">
<text text-anchor="middle" x="161.65" y="-163.94" font-family="Helvetica,sans-Serif" font-size="10.00" fill="#63b8ff">4</text>
</a>
</g>
</g>
<!-- dir_02386abad8cd81366000917a379dc307&#45;&gt;dir_af13e0a143b7ca68f7428894b6ff07d9 -->
<g id="edge11" class="edge">
<title>dir_02386abad8cd81366000917a379dc307&#45;&gt;dir_af13e0a143b7ca68f7428894b6ff07d9</title>
<path fill="none" stroke="#63b8ff" d="M166.23,-125.93C173.4,-112.97 184.19,-88.08 173,-71 156.31,-45.51 121.49,-34.54 97.2,-29.87"/>
<polygon fill="#63b8ff" stroke="#63b8ff" points="97.64,-26.4 87.2,-28.19 96.48,-33.3 97.64,-26.4"/>
<g id="a_edge11&#45;headlabel"><a xlink:href="dir_000041_000060.html" target="_top" xlink:title="3">
<text text-anchor="middle" x="101.66" y="-21.7" font-family="Helvetica,sans-Serif" font-size="10.00" fill="#63b8ff">3</text>
</a>
</g>
</g>
<!-- dir_dc7f769b3d5332bd9f89fd345831c3ed -->
<g id="node9" class="node">
<title>dir_dc7f769b3d5332bd9f89fd345831c3ed</title>
<g id="a_node9"><a xlink:href="dir_dc7f769b3d5332bd9f89fd345831c3ed.html" target="_top" xlink:title="dialects">
<polygon fill="#daedff" stroke="red" points="316.5,-90 261.5,-90 261.5,-71 316.5,-71 316.5,-90"/>
<text text-anchor="middle" x="289" y="-78" font-family="Helvetica,sans-Serif" font-size="10.00">dialects</text>
</a>
</g>
</g>
<!-- dir_02386abad8cd81366000917a379dc307&#45;&gt;dir_dc7f769b3d5332bd9f89fd345831c3ed -->
<g id="edge12" class="edge">
<title>dir_02386abad8cd81366000917a379dc307&#45;&gt;dir_dc7f769b3d5332bd9f89fd345831c3ed</title>
<path fill="none" stroke="#63b8ff" d="M180.72,-126.33C201.55,-117.71 234.66,-104 258.79,-94.01"/>
<polygon fill="#63b8ff" stroke="#63b8ff" points="260.3,-97.17 268.2,-90.11 257.62,-90.71 260.3,-97.17"/>
<g id="a_edge12&#45;headlabel"><a xlink:href="dir_000041_000020.html" target="_top" xlink:title="4">
<text text-anchor="middle" x="258.06" y="-98.67" font-family="Helvetica,sans-Serif" font-size="10.00" fill="#63b8ff">4</text>
</a>
</g>
</g>
<!-- dir_5e1a14d2df38e6ee42ace67cdb12bbb6&#45;&gt;dir_02386abad8cd81366000917a379dc307 -->
<g id="edge14" class="edge">
<title>dir_5e1a14d2df38e6ee42ace67cdb12bbb6&#45;&gt;dir_02386abad8cd81366000917a379dc307</title>
<path fill="none" stroke="#63b8ff" d="M155.83,-180.75C154.34,-173.8 153.9,-163.85 154.52,-155.13"/>
<polygon fill="#63b8ff" stroke="#63b8ff" points="158.01,-155.47 155.87,-145.09 151.07,-154.53 158.01,-155.47"/>
<g id="a_edge14&#45;headlabel"><a xlink:href="dir_000050_000041.html" target="_top" xlink:title="1">
<text text-anchor="middle" x="160.34" y="-156.91" font-family="Helvetica,sans-Serif" font-size="10.00" fill="#63b8ff">1</text>
</a>
</g>
</g>
</g>
</svg>
