<?xml version="1.0" encoding="UTF-8" standalone="no"?>
<!DOCTYPE svg PUBLIC "-//W3C//DTD SVG 1.1//EN"
 "http://www.w3.org/Graphics/SVG/1.1/DTD/svg11.dtd">
<!-- Generated by graphviz version 2.43.0 (0)
 -->
<!-- Title: dialects/direct Pages: 1 -->
<svg width="121pt" height="180pt"
 viewBox="0.00 0.00 121.00 180.00" xmlns="http://www.w3.org/2000/svg" xmlns:xlink="http://www.w3.org/1999/xlink">
<g id="graph0" class="graph" transform="scale(1 1) rotate(0) translate(4 176)">
<title>dialects/direct</title>
<g id="clust1" class="cluster">
<title>clusterdir_dc7f769b3d5332bd9f89fd345831c3ed</title>
<g id="a_clust1"><a xlink:href="dir_dc7f769b3d5332bd9f89fd345831c3ed.html" target="_top" xlink:title="dialects">
<polygon fill="#daedff" stroke="#404040" stroke-dasharray="5,2" points="13.5,-39 13.5,-164 89.5,-164 89.5,-39 13.5,-39"/>
<text text-anchor="middle" x="51.5" y="-152" font-family="Helvetica,sans-Serif" font-size="10.00">dialects</text>
</a>
</g>
</g>
<g id="clust2" class="cluster">
<title>clusterdir_b377f326e5c4fac904997f328f2dc43f</title>
<g id="a_clust2"><a xlink:href="dir_b377f326e5c4fac904997f328f2dc43f.html" target="_top">
<polygon fill="#daedff" stroke="#404040" stroke-width="2" points="21.5,-47 21.5,-137 81.5,-137 81.5,-47 21.5,-47"/>
</a>
</g>
</g>
<!-- dir_b377f326e5c4fac904997f328f2dc43f -->
<g id="node1" class="node">
<title>dir_b377f326e5c4fac904997f328f2dc43f</title>
<text text-anchor="middle" x="51.5" y="-117" font-family="Helvetica,sans-Serif" font-size="10.00">direct</text>
</g>
<!-- dir_8b0298be24aba9a0af815cea22701eec -->
<g id="node2" class="node">
<title>dir_8b0298be24aba9a0af815cea22701eec</title>
<g id="a_node2"><a xlink:href="dir_8b0298be24aba9a0af815cea22701eec.html" target="_top" xlink:title="pass">
<polygon fill="#4ea9ff" stroke="#404040" points="71,-74 32,-74 32,-55 71,-55 71,-74"/>
<text text-anchor="middle" x="51.5" y="-62" font-family="Helvetica,sans-Serif" font-size="10.00">pass</text>
</a>
</g>
</g>
<!-- dir_b377f326e5c4fac904997f328f2dc43f&#45;&gt;dir_8b0298be24aba9a0af815cea22701eec -->
<g id="edge2" class="edge">
<title>dir_b377f326e5c4fac904997f328f2dc43f&#45;&gt;dir_8b0298be24aba9a0af815cea22701eec</title>
<g id="a_edge2"><a xlink:href="dir_000022_000044.html" target="_top">
<path fill="none" stroke="#63b8ff" d="M51.5,-109.75C51.5,-102.8 51.5,-92.85 51.5,-84.13"/>
<polygon fill="#63b8ff" stroke="#63b8ff" points="55,-84.09 51.5,-74.09 48,-84.09 55,-84.09"/>
</a>
</g>
<g id="a_edge2&#45;headlabel"><a xlink:href="dir_000022_000044.html" target="_top" xlink:title="2">
<text text-anchor="middle" x="57.84" y="-85.18" font-family="Helvetica,sans-Serif" font-size="10.00" fill="#63b8ff">2</text>
</a>
</g>
</g>
<!-- dir_4fef79e7177ba769987a8da36c892c5f -->
<g id="node3" class="node">
<title>dir_4fef79e7177ba769987a8da36c892c5f</title>
<g id="a_node3"><a xlink:href="dir_4fef79e7177ba769987a8da36c892c5f.html" target="_top" xlink:title="build">
<polygon fill="#daedff" stroke="red" points="41,-19 0,-19 0,0 41,0 41,-19"/>
<text text-anchor="middle" x="20.5" y="-7" font-family="Helvetica,sans-Serif" font-size="10.00">build</text>
</a>
</g>
</g>
<!-- dir_b377f326e5c4fac904997f328f2dc43f&#45;&gt;dir_4fef79e7177ba769987a8da36c892c5f -->
<g id="edge1" class="edge">
<title>dir_b377f326e5c4fac904997f328f2dc43f&#45;&gt;dir_4fef79e7177ba769987a8da36c892c5f</title>
<g id="a_edge1"><a xlink:href="dir_000022_000008.html" target="_top">
<path fill="none" stroke="#63b8ff" d="M44.23,-109.98C37.48,-101.49 27.82,-87.76 23.5,-74 18.95,-59.5 18.42,-42.23 18.91,-29.37"/>
<polygon fill="#63b8ff" stroke="#63b8ff" points="22.41,-29.57 19.53,-19.37 15.42,-29.14 22.41,-29.57"/>
</a>
</g>
<g id="a_edge1&#45;headlabel"><a xlink:href="dir_000022_000008.html" target="_top" xlink:title="2">
<text text-anchor="middle" x="25.02" y="-30.83" font-family="Helvetica,sans-Serif" font-size="10.00" fill="#63b8ff">2</text>
</a>
</g>
</g>
<!-- dir_c4168c80b7484587a21dc92c326c695e -->
<g id="node4" class="node">
<title>dir_c4168c80b7484587a21dc92c326c695e</title>
<g id="a_node4"><a xlink:href="dir_c4168c80b7484587a21dc92c326c695e.html" target="_top" xlink:title="thorin">
<polygon fill="#daedff" stroke="red" points="113,-19 68,-19 68,0 113,0 113,-19"/>
<text text-anchor="middle" x="90.5" y="-7" font-family="Helvetica,sans-Serif" font-size="10.00">thorin</text>
</a>
</g>
</g>
<!-- dir_b377f326e5c4fac904997f328f2dc43f&#45;&gt;dir_c4168c80b7484587a21dc92c326c695e -->
<g id="edge3" class="edge">
<title>dir_b377f326e5c4fac904997f328f2dc43f&#45;&gt;dir_c4168c80b7484587a21dc92c326c695e</title>
<g id="a_edge3"><a xlink:href="dir_000022_000061.html" target="_top">
<path fill="none" stroke="#63b8ff" d="M58.7,-109.91C65.45,-101.36 75.27,-87.6 80.5,-74 86.07,-59.5 88.54,-41.99 89.63,-29.03"/>
<polygon fill="#63b8ff" stroke="#63b8ff" points="93.13,-29.21 90.28,-19.01 86.15,-28.76 93.13,-29.21"/>
</a>
</g>
<g id="a_edge3&#45;headlabel"><a xlink:href="dir_000022_000061.html" target="_top" xlink:title="11">
<text text-anchor="middle" x="95.73" y="-30.48" font-family="Helvetica,sans-Serif" font-size="10.00" fill="#63b8ff">11</text>
</a>
</g>
</g>
<!-- dir_8b0298be24aba9a0af815cea22701eec&#45;&gt;dir_4fef79e7177ba769987a8da36c892c5f -->
<g id="edge4" class="edge">
<title>dir_8b0298be24aba9a0af815cea22701eec&#45;&gt;dir_4fef79e7177ba769987a8da36c892c5f</title>
<g id="a_edge4"><a xlink:href="dir_000044_000008.html" target="_top">
<path fill="none" stroke="#63b8ff" d="M46.38,-54.75C42.14,-47.49 35.97,-36.95 30.72,-27.98"/>
<polygon fill="#63b8ff" stroke="#63b8ff" points="33.59,-25.95 25.52,-19.09 27.55,-29.49 33.59,-25.95"/>
</a>
</g>
<g id="a_edge4&#45;headlabel"><a xlink:href="dir_000044_000008.html" target="_top" xlink:title="1">
<text text-anchor="middle" x="37.86" y="-25.12" font-family="Helvetica,sans-Serif" font-size="10.00" fill="#63b8ff">1</text>
</a>
</g>
</g>
<!-- dir_8b0298be24aba9a0af815cea22701eec&#45;&gt;dir_c4168c80b7484587a21dc92c326c695e -->
<g id="edge5" class="edge">
<title>dir_8b0298be24aba9a0af815cea22701eec&#45;&gt;dir_c4168c80b7484587a21dc92c326c695e</title>
<g id="a_edge5"><a xlink:href="dir_000044_000061.html" target="_top">
<path fill="none" stroke="#63b8ff" d="M57.94,-54.75C63.39,-47.34 71.36,-36.5 78.06,-27.41"/>
<polygon fill="#63b8ff" stroke="#63b8ff" points="81.07,-29.22 84.18,-19.09 75.43,-25.07 81.07,-29.22"/>
</a>
</g>
<g id="a_edge5&#45;headlabel"><a xlink:href="dir_000044_000061.html" target="_top" xlink:title="6">
<text text-anchor="middle" x="81.23" y="-31.3" font-family="Helvetica,sans-Serif" font-size="10.00" fill="#63b8ff">6</text>
</a>
</g>
</g>
</g>
</svg>
