<?xml version="1.0" encoding="UTF-8" standalone="no"?>
<!DOCTYPE svg PUBLIC "-//W3C//DTD SVG 1.1//EN"
 "http://www.w3.org/Graphics/SVG/1.1/DTD/svg11.dtd">
<!-- Generated by graphviz version 2.43.0 (0)
 -->
<!-- Title: plugins/matrix/src/thorin/plug Pages: 1 -->
<!--zoomable 125 -->

<svg id="main" version="1.1" xmlns="http://www.w3.org/2000/svg" xmlns:xlink="http://www.w3.org/1999/xlink" xml:space="preserve" onload="init(evt)">
<style type="text/css"><![CDATA[
.node, .edge {opacity: 0.7;}
.node.selected, .edge.selected {opacity: 1;}
.edge:hover path { stroke: red; }
.edge:hover polygon { stroke: red; fill: red; }
]]></style>

<defs>
  <circle id="rim" cx="0" cy="0" r="7"/>
  <circle id="rim2" cx="0" cy="0" r="3.5"/>
  <g id="zoomPlus">
    <use xlink:href="#rim" fill="#404040"><set attributeName="fill" to="#808080" begin="zoomplus.mouseover" end="zoomplus.mouseout"/></use>
    <path d="M-4,0h8M0,-4v8" fill="none" stroke="white" stroke-width="1.5" pointer-events="none"/>
  </g>
  <g id="zoomMin">
    <use xlink:href="#rim" fill="#404040"><set attributeName="fill" to="#808080" begin="zoomminus.mouseover" end="zoomminus.mouseout"/></use>
    <path d="M-4,0h8" fill="none" stroke="white" stroke-width="1.5" pointer-events="none"/>
  </g>
  <g id="arrowUp" transform="translate(30 24)">
    <use xlink:href="#rim"/>
    <path pointer-events="none" fill="none" stroke="white" stroke-width="1.5" d="M0,-3.0v7 M-2.5,-0.5L0,-3.0L2.5,-0.5"/>
  </g>
  <g id="arrowRight" transform="rotate(90) translate(36 -43)">
    <use xlink:href="#rim"/>
    <path pointer-events="none" fill="none" stroke="white" stroke-width="1.5" d="M0,-3.0v7 M-2.5,-0.5L0,-3.0L2.5,-0.5"/>
  </g>
  <g id="arrowDown" transform="rotate(180) translate(-30 -48)">
    <use xlink:href="#rim"/>
    <path pointer-events="none" fill="none" stroke="white" stroke-width="1.5" d="M0,-3.0v7 M-2.5,-0.5L0,-3.0L2.5,-0.5"/>
  </g>
  <g id="arrowLeft" transform="rotate(270) translate(-36 17)">
    <use xlink:href="#rim"/>
    <path pointer-events="none" fill="none" stroke="white" stroke-width="1.5" d="M0,-3.0v7 M-2.5,-0.5L0,-3.0L2.5,-0.5"/>
  </g>
  <g id="resetDef">
    <use xlink:href="#rim2" fill="#404040"><set attributeName="fill" to="#808080" begin="reset.mouseover" end="reset.mouseout"/></use>
  </g>
</defs>
<script type="application/ecmascript">
var viewWidth = 504;
var viewHeight = 125;
var sectionId = 'dynsection-0';
</script>
<script type="application/ecmascript" xlink:href="svg.min.js"/>
<svg id="graph" class="graph">
<g id="viewport">
<title>plugins/matrix/src/thorin/plug</title>
<g id="clust1" class="cluster">
<title>clusterdir_65a1f68d5f7d6bfc0dbf8cbf49949946</title>
<g id="a_clust1"><a xlink:href="dir_65a1f68d5f7d6bfc0dbf8cbf49949946.html" target="_top" xlink:title="thorin">
<polygon fill="#daedff" stroke="#7f7f7f" stroke-dasharray="5,2" points="216,-39 216,-109 354,-109 354,-39 216,-39"/>
<text text-anchor="middle" x="285" y="-97" font-family="Helvetica,sans-Serif" font-size="10.00">thorin</text>
</a>
</g>
</g>
<g id="clust2" class="cluster">
<title>clusterdir_a376a61721a1fe7378096f99e8e93211</title>
<g id="a_clust2"><a xlink:href="dir_a376a61721a1fe7378096f99e8e93211.html" target="_top">
<polygon fill="#daedff" stroke="#404040" stroke-width="2" points="224,-47 224,-82 346,-82 346,-47 224,-47"/>
</a>
</g>
</g>
<!-- dir_a376a61721a1fe7378096f99e8e93211 -->
<g id="node1" class="node">
<title>dir_a376a61721a1fe7378096f99e8e93211</title>
<text text-anchor="middle" x="319" y="-62" font-family="Helvetica,sans-Serif" font-size="10.00">plug</text>
</g>
<!-- dir_33802212644ba467d9c5e78500194cb8 -->
<g id="node2" class="node">
<title>dir_33802212644ba467d9c5e78500194cb8</title>
<g id="a_node2"><a xlink:href="dir_33802212644ba467d9c5e78500194cb8.html" target="_top" xlink:title="matrix">
<polygon fill="#4ea9ff" stroke="#404040" points="281.5,-74 232.5,-74 232.5,-55 281.5,-55 281.5,-74"/>
<text text-anchor="middle" x="257" y="-62" font-family="Helvetica,sans-Serif" font-size="10.00">matrix</text>
</a>
</g>
</g>
<!-- dir_210f71158b20ae9a214079ea7d0b63b6 -->
<g id="node3" class="node">
<title>dir_210f71158b20ae9a214079ea7d0b63b6</title>
<g id="a_node3"><a xlink:href="dir_210f71158b20ae9a214079ea7d0b63b6.html" target="_top" xlink:title="include">
<polygon fill="#daedff" stroke="red" stroke-dasharray="5,2" points="52,-19 0,-19 0,0 52,0 52,-19"/>
<text text-anchor="middle" x="26" y="-7" font-family="Helvetica,sans-Serif" font-size="10.00">include</text>
</a>
</g>
</g>
<!-- dir_33802212644ba467d9c5e78500194cb8&#45;&gt;dir_210f71158b20ae9a214079ea7d0b63b6 -->
<g id="edge1" class="edge">
<title>dir_33802212644ba467d9c5e78500194cb8&#45;&gt;dir_210f71158b20ae9a214079ea7d0b63b6</title>
<g id="a_edge1"><a xlink:href="dir_000067_000055.html" target="_top">
<path fill="none" stroke="#63b8ff" d="M232.22,-58C196.75,-50.1 129.21,-34.95 62.24,-19.26"/>
<polygon fill="#63b8ff" stroke="#63b8ff" points="62.9,-15.83 52.36,-16.95 61.3,-22.64 62.9,-15.83"/>
</a>
</g>
<g id="a_edge1&#45;headlabel"><a xlink:href="dir_000067_000055.html" target="_top" xlink:title="11">
<text text-anchor="middle" x="67.05" y="-11.38" font-family="Helvetica,sans-Serif" font-size="10.00" fill="#63b8ff">11</text>
</a>
</g>
</g>
<!-- dir_3f9b7b28a3eefae0da924a729ee7b941 -->
<g id="node4" class="node">
<title>dir_3f9b7b28a3eefae0da924a729ee7b941</title>
<g id="a_node4"><a xlink:href="dir_3f9b7b28a3eefae0da924a729ee7b941.html" target="_top" xlink:title="compile">
<polygon fill="#daedff" stroke="red" stroke-dasharray="5,2" points="126,-19 70,-19 70,0 126,0 126,-19"/>
<text text-anchor="middle" x="98" y="-7" font-family="Helvetica,sans-Serif" font-size="10.00">compile</text>
</a>
</g>
</g>
<!-- dir_33802212644ba467d9c5e78500194cb8&#45;&gt;dir_3f9b7b28a3eefae0da924a729ee7b941 -->
<g id="edge2" class="edge">
<title>dir_33802212644ba467d9c5e78500194cb8&#45;&gt;dir_3f9b7b28a3eefae0da924a729ee7b941</title>
<g id="a_edge2"><a xlink:href="dir_000067_000022.html" target="_top">
<path fill="none" stroke="#63b8ff" d="M232.16,-55.22C205.63,-46.38 163.38,-32.29 133.38,-22.29"/>
<polygon fill="#63b8ff" stroke="#63b8ff" points="134.32,-18.92 123.72,-19.07 132.1,-25.56 134.32,-18.92"/>
</a>
</g>
<g id="a_edge2&#45;headlabel"><a xlink:href="dir_000067_000022.html" target="_top" xlink:title="1">
<text text-anchor="middle" x="138.62" y="-14.86" font-family="Helvetica,sans-Serif" font-size="10.00" fill="#63b8ff">1</text>
</a>
</g>
</g>
<!-- dir_45d0a97eae78e2385da7d721351ecbde -->
<g id="node5" class="node">
<title>dir_45d0a97eae78e2385da7d721351ecbde</title>
<g id="a_node5"><a xlink:href="dir_45d0a97eae78e2385da7d721351ecbde.html" target="_top" xlink:title="direct">
<polygon fill="#daedff" stroke="red" stroke-dasharray="5,2" points="188,-19 144,-19 144,0 188,0 188,-19"/>
<text text-anchor="middle" x="166" y="-7" font-family="Helvetica,sans-Serif" font-size="10.00">direct</text>
</a>
</g>
</g>
<!-- dir_33802212644ba467d9c5e78500194cb8&#45;&gt;dir_45d0a97eae78e2385da7d721351ecbde -->
<g id="edge6" class="edge">
<title>dir_33802212644ba467d9c5e78500194cb8&#45;&gt;dir_45d0a97eae78e2385da7d721351ecbde</title>
<g id="a_edge6"><a xlink:href="dir_000067_000034.html" target="_top">
<path fill="none" stroke="#63b8ff" d="M242.38,-54.98C228.14,-46.69 206.25,-33.94 189.55,-24.22"/>
<polygon fill="#63b8ff" stroke="#63b8ff" points="191.29,-21.18 180.89,-19.17 187.77,-27.23 191.29,-21.18"/>
</a>
</g>
<g id="a_edge6&#45;headlabel"><a xlink:href="dir_000067_000034.html" target="_top" xlink:title="3">
<text text-anchor="middle" x="195.82" y="-18.03" font-family="Helvetica,sans-Serif" font-size="10.00" fill="#63b8ff">3</text>
</a>
</g>
</g>
<!-- dir_4fef79e7177ba769987a8da36c892c5f -->
<g id="node6" class="node">
<title>dir_4fef79e7177ba769987a8da36c892c5f</title>
<g id="a_node6"><a xlink:href="dir_4fef79e7177ba769987a8da36c892c5f.html" target="_top" xlink:title="build">
<polygon fill="#daedff" stroke="red" points="247.5,-19 206.5,-19 206.5,0 247.5,0 247.5,-19"/>
<text text-anchor="middle" x="227" y="-7" font-family="Helvetica,sans-Serif" font-size="10.00">build</text>
</a>
</g>
</g>
<!-- dir_33802212644ba467d9c5e78500194cb8&#45;&gt;dir_4fef79e7177ba769987a8da36c892c5f -->
<g id="edge8" class="edge">
<title>dir_33802212644ba467d9c5e78500194cb8&#45;&gt;dir_4fef79e7177ba769987a8da36c892c5f</title>
<g id="a_edge8"><a xlink:href="dir_000067_000015.html" target="_top">
<path fill="none" stroke="#63b8ff" d="M252.05,-54.75C247.94,-47.49 241.97,-36.95 236.9,-27.98"/>
<polygon fill="#63b8ff" stroke="#63b8ff" points="239.83,-26.07 231.86,-19.09 233.74,-29.52 239.83,-26.07"/>
</a>
</g>
<g id="a_edge8&#45;headlabel"><a xlink:href="dir_000067_000015.html" target="_top" xlink:title="2">
<text text-anchor="middle" x="244.08" y="-25.3" font-family="Helvetica,sans-Serif" font-size="10.00" fill="#63b8ff">2</text>
</a>
</g>
</g>
<!-- dir_793074ef6e4d0b3a0968f64fe8500756 -->
<g id="node7" class="node">
<title>dir_793074ef6e4d0b3a0968f64fe8500756</title>
<g id="a_node7"><a xlink:href="dir_793074ef6e4d0b3a0968f64fe8500756.html" target="_top" xlink:title="affine">
<polygon fill="#daedff" stroke="red" stroke-dasharray="5,2" points="310,-19 266,-19 266,0 310,0 310,-19"/>
<text text-anchor="middle" x="288" y="-7" font-family="Helvetica,sans-Serif" font-size="10.00">affine</text>
</a>
</g>
</g>
<!-- dir_33802212644ba467d9c5e78500194cb8&#45;&gt;dir_793074ef6e4d0b3a0968f64fe8500756 -->
<g id="edge4" class="edge">
<title>dir_33802212644ba467d9c5e78500194cb8&#45;&gt;dir_793074ef6e4d0b3a0968f64fe8500756</title>
<g id="a_edge4"><a xlink:href="dir_000067_000001.html" target="_top">
<path fill="none" stroke="#63b8ff" d="M262.12,-54.75C266.36,-47.49 272.53,-36.95 277.78,-27.98"/>
<polygon fill="#63b8ff" stroke="#63b8ff" points="280.95,-29.49 282.98,-19.09 274.91,-25.95 280.95,-29.49"/>
</a>
</g>
<g id="a_edge4&#45;headlabel"><a xlink:href="dir_000067_000001.html" target="_top" xlink:title="3">
<text text-anchor="middle" x="281.58" y="-31.52" font-family="Helvetica,sans-Serif" font-size="10.00" fill="#63b8ff">3</text>
</a>
</g>
</g>
<!-- dir_b47d094b940c78ed85f632937004b7bb -->
<g id="node8" class="node">
<title>dir_b47d094b940c78ed85f632937004b7bb</title>
<g id="a_node8"><a xlink:href="dir_b47d094b940c78ed85f632937004b7bb.html" target="_top" xlink:title="core">
<polygon fill="#daedff" stroke="red" stroke-dasharray="5,2" points="366,-19 328,-19 328,0 366,0 366,-19"/>
<text text-anchor="middle" x="347" y="-7" font-family="Helvetica,sans-Serif" font-size="10.00">core</text>
</a>
</g>
</g>
<!-- dir_33802212644ba467d9c5e78500194cb8&#45;&gt;dir_b47d094b940c78ed85f632937004b7bb -->
<g id="edge5" class="edge">
<title>dir_33802212644ba467d9c5e78500194cb8&#45;&gt;dir_b47d094b940c78ed85f632937004b7bb</title>
<g id="a_edge5"><a xlink:href="dir_000067_000026.html" target="_top">
<path fill="none" stroke="#63b8ff" d="M268.04,-54.89C274.55,-49.97 283.05,-43.85 291,-39 299.99,-33.52 310.15,-28.12 319.34,-23.52"/>
<polygon fill="#63b8ff" stroke="#63b8ff" points="321.02,-26.6 328.46,-19.05 317.94,-20.31 321.02,-26.6"/>
</a>
</g>
<g id="a_edge5&#45;headlabel"><a xlink:href="dir_000067_000026.html" target="_top" xlink:title="3">
<text text-anchor="middle" x="319.04" y="-28.23" font-family="Helvetica,sans-Serif" font-size="10.00" fill="#63b8ff">3</text>
</a>
</g>
</g>
<!-- dir_cedbad42e133b8f715c15648fd5a31ef -->
<g id="node9" class="node">
<title>dir_cedbad42e133b8f715c15648fd5a31ef</title>
<g id="a_node9"><a xlink:href="dir_cedbad42e133b8f715c15648fd5a31ef.html" target="_top" xlink:title="mem">
<polygon fill="#daedff" stroke="red" stroke-dasharray="5,2" points="426,-19 384,-19 384,0 426,0 426,-19"/>
<text text-anchor="middle" x="405" y="-7" font-family="Helvetica,sans-Serif" font-size="10.00">mem</text>
</a>
</g>
</g>
<!-- dir_33802212644ba467d9c5e78500194cb8&#45;&gt;dir_cedbad42e133b8f715c15648fd5a31ef -->
<g id="edge7" class="edge">
<title>dir_33802212644ba467d9c5e78500194cb8&#45;&gt;dir_cedbad42e133b8f715c15648fd5a31ef</title>
<g id="a_edge7"><a xlink:href="dir_000067_000069.html" target="_top">
<path fill="none" stroke="#63b8ff" d="M266.77,-54.87C273.23,-49.58 282.13,-43.06 291,-39 323.17,-24.28 335.85,-27.93 373.57,-19.16"/>
<polygon fill="#63b8ff" stroke="#63b8ff" points="374.86,-22.45 383.73,-16.65 373.18,-15.65 374.86,-22.45"/>
</a>
</g>
<g id="a_edge7&#45;headlabel"><a xlink:href="dir_000067_000069.html" target="_top" xlink:title="3">
<text text-anchor="middle" x="372.05" y="-23.57" font-family="Helvetica,sans-Serif" font-size="10.00" fill="#63b8ff">3</text>
</a>
</g>
</g>
<!-- dir_d44c64559bbebec7f509842c48db8b23 -->
<g id="node10" class="node">
<title>dir_d44c64559bbebec7f509842c48db8b23</title>
<g id="a_node10"><a xlink:href="dir_d44c64559bbebec7f509842c48db8b23.html" target="_top" xlink:title="include">
<polygon fill="#daedff" stroke="red" points="496,-19 444,-19 444,0 496,0 496,-19"/>
<text text-anchor="middle" x="470" y="-7" font-family="Helvetica,sans-Serif" font-size="10.00">include</text>
</a>
</g>
</g>
<!-- dir_33802212644ba467d9c5e78500194cb8&#45;&gt;dir_d44c64559bbebec7f509842c48db8b23 -->
<g id="edge3" class="edge">
<title>dir_33802212644ba467d9c5e78500194cb8&#45;&gt;dir_d44c64559bbebec7f509842c48db8b23</title>
<g id="a_edge3"><a xlink:href="dir_000067_000046.html" target="_top">
<path fill="none" stroke="#63b8ff" d="M266.35,-54.82C272.79,-49.37 281.82,-42.68 291,-39 348.05,-16.13 369.42,-29.61 433.48,-19.02"/>
<polygon fill="#63b8ff" stroke="#63b8ff" points="434.46,-22.4 443.69,-17.19 433.23,-15.51 434.46,-22.4"/>
</a>
</g>
<g id="a_edge3&#45;headlabel"><a xlink:href="dir_000067_000046.html" target="_top" xlink:title="10">
<text text-anchor="middle" x="431.42" y="-23.33" font-family="Helvetica,sans-Serif" font-size="10.00" fill="#63b8ff">10</text>
</a>
</g>
</g>
</g>
</svg>

<g id="navigator" transform="translate(0 0)" fill="#404254">
  <rect fill="#f2f5e9" fill-opacity="0.5" stroke="#606060" stroke-width=".5" x="0" y="0" width="60" height="60"/>
  <use id="zoomplus" xlink:href="#zoomPlus" x="17" y="9" onmousedown="handleZoom(evt,'in')"/>
  <use id="zoomminus" xlink:href="#zoomMin" x="42" y="9" onmousedown="handleZoom(evt,'out')"/>
  <use id="reset" xlink:href="#resetDef" x="30" y="36" onmousedown="handleReset()"/>
   <use id="arrowup" xlink:href="#arrowUp" x="0" y="0" onmousedown="handlePan(0,-1)"/>
  <use id="arrowright" xlink:href="#arrowRight" x="0" y="0" onmousedown="handlePan(1,0)"/>
  <use id="arrowdown" xlink:href="#arrowDown" x="0" y="0" onmousedown="handlePan(0,1)"/>
  <use id="arrowleft" xlink:href="#arrowLeft" x="0" y="0" onmousedown="handlePan(-1,0)"/>
</g>
<svg viewBox="0 0 15 15" width="100%" height="30px" preserveAspectRatio="xMaxYMin meet">
 <g id="arrow_out" transform="scale(0.3 0.3)">
  <a xlink:href="dir_a376a61721a1fe7378096f99e8e93211_dep_org.svg" target="_base">
   <rect id="button" ry="5" rx="5" y="6" x="6" height="38" width="38"
        fill="#f2f5e9" fill-opacity="0.5" stroke="#606060" stroke-width="1.0"/>
   <path id="arrow"
     d="M 11.500037,31.436501 C 11.940474,20.09759 22.043105,11.32322 32.158766,21.979434 L 37.068811,17.246167 C 37.068811,17.246167 37.088388,32 37.088388,32 L 22.160133,31.978069 C 22.160133,31.978069 26.997745,27.140456 26.997745,27.140456 C 18.528582,18.264221 13.291696,25.230495 11.500037,31.436501 z"
     style="fill:#404040;"/>
  </a>
 </g>
</svg>

<style type='text/css'>
<![CDATA[
[data-mouse-over-selected='false'] { opacity: 0.7; }
[data-mouse-over-selected='true']  { opacity: 1.0; }
]]>
</style>
<script type="application/ecmascript"><![CDATA[
document.addEventListener('DOMContentLoaded', (event) => {
  highlightEdges();
  highlightAdjacentNodes();
});
]]></script>
</svg>
