<?xml version="1.0" encoding="UTF-8" standalone="no"?>
<!DOCTYPE svg PUBLIC "-//W3C//DTD SVG 1.1//EN"
 "http://www.w3.org/Graphics/SVG/1.1/DTD/svg11.dtd">
<!-- Generated by graphviz version 2.43.0 (0)
 -->
<!-- Title: include/mim/plug Pages: 1 -->
<svg width="1815pt" height="292pt"
 viewBox="0.00 0.00 1815.22 291.75" xmlns="http://www.w3.org/2000/svg" xmlns:xlink="http://www.w3.org/1999/xlink">
<g id="graph0" class="graph" transform="scale(1 1) rotate(0) translate(4 287.75)">
<title>include/mim/plug</title>
<g id="clust1" class="cluster">
<title>clusterdir_4c100286d577d9b034a54bf80a8d92ed</title>
<g id="a_clust1"><a xlink:href="dir_4c100286d577d9b034a54bf80a8d92ed.html" target="_top" xlink:title="mim">
<polygon fill="#daedff" stroke="#7f7f7f" stroke-dasharray="5,2" points="8,-40.75 8,-275.75 1082,-275.75 1082,-40.75 8,-40.75"/>
<text text-anchor="middle" x="545" y="-263.75" font-family="Helvetica,sans-Serif" font-size="10.00">mim</text>
</a>
</g>
</g>
<g id="clust2" class="cluster">
<title>clusterdir_3b1e9a08cfbf85cfa8a1068ec81a2c37</title>
<g id="a_clust2"><a xlink:href="dir_3b1e9a08cfbf85cfa8a1068ec81a2c37.html" target="_top">
<polygon fill="#daedff" stroke="#404040" stroke-width="2" points="16,-48.75 16,-248.75 986,-248.75 986,-48.75 16,-48.75"/>
</a>
</g>
</g>
<!-- dir_02aa4652d0d99765f599a240a9bcc9fa -->
<g id="node1" class="node">
<title>dir_02aa4652d0d99765f599a240a9bcc9fa</title>
<g id="a_node1"><a xlink:href="dir_02aa4652d0d99765f599a240a9bcc9fa.html" target="_top" xlink:title="pass">
<polygon fill="#4ea9ff" stroke="#404040" points="1033.5,-185.75 994.5,-185.75 994.5,-166.75 1033.5,-166.75 1033.5,-185.75"/>
<text text-anchor="middle" x="1014" y="-173.75" font-family="Helvetica,sans-Serif" font-size="10.00">pass</text>
</a>
</g>
</g>
<!-- dir_ac50b25a355f70dc22fd67feb5e54373 -->
<g id="node2" class="node">
<title>dir_ac50b25a355f70dc22fd67feb5e54373</title>
<g id="a_node2"><a xlink:href="dir_ac50b25a355f70dc22fd67feb5e54373.html" target="_top" xlink:title="be">
<polygon fill="#4ea9ff" stroke="#404040" points="1073.5,-75.75 1044.5,-75.75 1044.5,-56.75 1073.5,-56.75 1073.5,-75.75"/>
<text text-anchor="middle" x="1059" y="-63.75" font-family="Helvetica,sans-Serif" font-size="10.00">be</text>
</a>
</g>
</g>
<!-- dir_ff1b7b5329a4b5bde2c45ec2ac3be82c -->
<g id="node3" class="node">
<title>dir_ff1b7b5329a4b5bde2c45ec2ac3be82c</title>
<g id="a_node3"><a xlink:href="dir_ff1b7b5329a4b5bde2c45ec2ac3be82c.html" target="_top" xlink:title="util">
<polygon fill="#4ea9ff" stroke="#404040" points="1026,-75.75 994,-75.75 994,-56.75 1026,-56.75 1026,-75.75"/>
<text text-anchor="middle" x="1010" y="-63.75" font-family="Helvetica,sans-Serif" font-size="10.00">util</text>
</a>
</g>
</g>
<!-- dir_3b1e9a08cfbf85cfa8a1068ec81a2c37 -->
<g id="node4" class="node">
<title>dir_3b1e9a08cfbf85cfa8a1068ec81a2c37</title>
<text text-anchor="middle" x="959" y="-228.75" font-family="Helvetica,sans-Serif" font-size="10.00">plug</text>
</g>
<!-- dir_54381ff9b6fe69a53e93aa1c021f973f -->
<g id="node5" class="node">
<title>dir_54381ff9b6fe69a53e93aa1c021f973f</title>
<g id="a_node5"><a xlink:href="dir_54381ff9b6fe69a53e93aa1c021f973f.html" target="_top" xlink:title="affine">
<polygon fill="#4ea9ff" stroke="#404040" points="122,-240.75 78,-240.75 78,-221.75 122,-221.75 122,-240.75"/>
<text text-anchor="middle" x="100" y="-228.75" font-family="Helvetica,sans-Serif" font-size="10.00">affine</text>
</a>
</g>
</g>
<!-- dir_4fef79e7177ba769987a8da36c892c5f -->
<g id="node24" class="node">
<title>dir_4fef79e7177ba769987a8da36c892c5f</title>
<g id="a_node24"><a xlink:href="dir_4fef79e7177ba769987a8da36c892c5f.html" target="_top" xlink:title="build">
<polygon fill="#daedff" stroke="red" points="1388.5,-20.75 1347.5,-20.75 1347.5,-1.75 1388.5,-1.75 1388.5,-20.75"/>
<text text-anchor="middle" x="1368" y="-8.75" font-family="Helvetica,sans-Serif" font-size="10.00">build</text>
</a>
</g>
</g>
<!-- dir_54381ff9b6fe69a53e93aa1c021f973f&#45;&gt;dir_4fef79e7177ba769987a8da36c892c5f -->
<g id="edge1" class="edge">
<title>dir_54381ff9b6fe69a53e93aa1c021f973f&#45;&gt;dir_4fef79e7177ba769987a8da36c892c5f</title>
<g id="a_edge1"><a xlink:href="dir_000001_000014.html" target="_top">
<path fill="none" stroke="#63b8ff" d="M122.22,-223.49C125.15,-222.8 128.13,-222.19 131,-221.75 247.62,-204.04 1086.68,-238.87 1192,-185.75 1265.44,-148.72 1242.46,-91.75 1307,-40.75 1316.17,-33.51 1327.49,-27.57 1337.88,-23.03"/>
<polygon fill="#63b8ff" stroke="#63b8ff" points="1339.53,-26.14 1347.45,-19.1 1336.87,-19.66 1339.53,-26.14"/>
</a>
</g>
<g id="a_edge1&#45;headlabel"><a xlink:href="dir_000001_000014.html" target="_top" xlink:title="1">
<text text-anchor="middle" x="1337.28" y="-27.63" font-family="Helvetica,sans-Serif" font-size="10.00" fill="#63b8ff">1</text>
</a>
</g>
</g>
<!-- dir_63735fdd0e5a2805284c40e197f12d6d -->
<g id="node6" class="node">
<title>dir_63735fdd0e5a2805284c40e197f12d6d</title>
<g id="a_node6"><a xlink:href="dir_63735fdd0e5a2805284c40e197f12d6d.html" target="_top" xlink:title="autodiff">
<polygon fill="#4ea9ff" stroke="#404040" points="194,-240.75 140,-240.75 140,-221.75 194,-221.75 194,-240.75"/>
<text text-anchor="middle" x="167" y="-228.75" font-family="Helvetica,sans-Serif" font-size="10.00">autodiff</text>
</a>
</g>
</g>
<!-- dir_63735fdd0e5a2805284c40e197f12d6d&#45;&gt;dir_4fef79e7177ba769987a8da36c892c5f -->
<g id="edge2" class="edge">
<title>dir_63735fdd0e5a2805284c40e197f12d6d&#45;&gt;dir_4fef79e7177ba769987a8da36c892c5f</title>
<g id="a_edge2"><a xlink:href="dir_000006_000014.html" target="_top">
<path fill="none" stroke="#63b8ff" d="M194.02,-223.27C197.03,-222.67 200.07,-222.15 203,-221.75 316.17,-206.56 1129.11,-239.22 1230,-185.75 1300.54,-148.38 1282.34,-99.85 1336,-40.75 1340.06,-36.28 1344.77,-31.77 1349.3,-27.71"/>
<polygon fill="#63b8ff" stroke="#63b8ff" points="1351.83,-30.16 1357.1,-20.97 1347.25,-24.86 1351.83,-30.16"/>
</a>
</g>
<g id="a_edge2&#45;headlabel"><a xlink:href="dir_000006_000014.html" target="_top" xlink:title="1">
<text text-anchor="middle" x="1350.96" y="-32.15" font-family="Helvetica,sans-Serif" font-size="10.00" fill="#63b8ff">1</text>
</a>
</g>
</g>
<!-- dir_ed99f5753030233661c0389c82bd4677 -->
<g id="node7" class="node">
<title>dir_ed99f5753030233661c0389c82bd4677</title>
<g id="a_node7"><a xlink:href="dir_ed99f5753030233661c0389c82bd4677.html" target="_top" xlink:title="clos">
<polygon fill="#4ea9ff" stroke="#404040" points="60,-240.75 24,-240.75 24,-221.75 60,-221.75 60,-240.75"/>
<text text-anchor="middle" x="42" y="-228.75" font-family="Helvetica,sans-Serif" font-size="10.00">clos</text>
</a>
</g>
</g>
<!-- dir_ed99f5753030233661c0389c82bd4677&#45;&gt;dir_02aa4652d0d99765f599a240a9bcc9fa -->
<g id="edge5" class="edge">
<title>dir_ed99f5753030233661c0389c82bd4677&#45;&gt;dir_02aa4652d0d99765f599a240a9bcc9fa</title>
<g id="a_edge5"><a xlink:href="dir_000017_000060.html" target="_top">
<path fill="none" stroke="#63b8ff" d="M60.14,-223.82C63.07,-222.99 66.09,-222.26 69,-221.75 469.25,-152.21 585.77,-261.17 984.42,-186.62"/>
<polygon fill="#63b8ff" stroke="#63b8ff" points="985.32,-190.01 994.49,-184.7 984.01,-183.13 985.32,-190.01"/>
</a>
</g>
<g id="a_edge5&#45;headlabel"><a xlink:href="dir_000017_000060.html" target="_top" xlink:title="1">
<text text-anchor="middle" x="982.31" y="-190.97" font-family="Helvetica,sans-Serif" font-size="10.00" fill="#63b8ff">1</text>
</a>
</g>
</g>
<!-- dir_f984b2ba368b09e30d6d58c581c51286 -->
<g id="node15" class="node">
<title>dir_f984b2ba368b09e30d6d58c581c51286</title>
<g id="a_node15"><a xlink:href="dir_f984b2ba368b09e30d6d58c581c51286.html" target="_top" xlink:title="mem">
<polygon fill="#4ea9ff" stroke="#404040" points="976,-185.75 934,-185.75 934,-166.75 976,-166.75 976,-185.75"/>
<text text-anchor="middle" x="955" y="-173.75" font-family="Helvetica,sans-Serif" font-size="10.00">mem</text>
</a>
</g>
</g>
<!-- dir_ed99f5753030233661c0389c82bd4677&#45;&gt;dir_f984b2ba368b09e30d6d58c581c51286 -->
<g id="edge4" class="edge">
<title>dir_ed99f5753030233661c0389c82bd4677&#45;&gt;dir_f984b2ba368b09e30d6d58c581c51286</title>
<g id="a_edge4"><a xlink:href="dir_000017_000046.html" target="_top">
<path fill="none" stroke="#63b8ff" d="M60.14,-223.85C63.07,-223.02 66.1,-222.28 69,-221.75 238.18,-191.39 785.88,-180.15 923.43,-177.76"/>
<polygon fill="#63b8ff" stroke="#63b8ff" points="923.75,-181.26 933.69,-177.59 923.63,-174.26 923.75,-181.26"/>
</a>
</g>
<g id="a_edge4&#45;headlabel"><a xlink:href="dir_000017_000046.html" target="_top" xlink:title="3">
<text text-anchor="middle" x="920.21" y="-181.66" font-family="Helvetica,sans-Serif" font-size="10.00" fill="#63b8ff">3</text>
</a>
</g>
</g>
<!-- dir_ed99f5753030233661c0389c82bd4677&#45;&gt;dir_4fef79e7177ba769987a8da36c892c5f -->
<g id="edge3" class="edge">
<title>dir_ed99f5753030233661c0389c82bd4677&#45;&gt;dir_4fef79e7177ba769987a8da36c892c5f</title>
<g id="a_edge3"><a xlink:href="dir_000017_000014.html" target="_top">
<path fill="none" stroke="#63b8ff" d="M60.14,-223.81C63.07,-222.99 66.09,-222.25 69,-221.75 291.87,-183.45 873.68,-263.59 1086,-185.75 1183.76,-149.92 1177.42,-88.39 1270,-40.75 1291.33,-29.78 1317.51,-22.44 1337.45,-17.96"/>
<polygon fill="#63b8ff" stroke="#63b8ff" points="1338.19,-21.38 1347.24,-15.88 1336.73,-14.54 1338.19,-21.38"/>
</a>
</g>
<g id="a_edge3&#45;headlabel"><a xlink:href="dir_000017_000014.html" target="_top" xlink:title="1">
<text text-anchor="middle" x="1335.27" y="-22.41" font-family="Helvetica,sans-Serif" font-size="10.00" fill="#63b8ff">1</text>
</a>
</g>
</g>
<!-- dir_cb1fe3d6493747165906617030c554a4 -->
<g id="node8" class="node">
<title>dir_cb1fe3d6493747165906617030c554a4</title>
<g id="a_node8"><a xlink:href="dir_cb1fe3d6493747165906617030c554a4.html" target="_top" xlink:title="compile">
<polygon fill="#4ea9ff" stroke="#404040" points="268,-240.75 212,-240.75 212,-221.75 268,-221.75 268,-240.75"/>
<text text-anchor="middle" x="240" y="-228.75" font-family="Helvetica,sans-Serif" font-size="10.00">compile</text>
</a>
</g>
</g>
<!-- dir_cb1fe3d6493747165906617030c554a4&#45;&gt;dir_4fef79e7177ba769987a8da36c892c5f -->
<g id="edge6" class="edge">
<title>dir_cb1fe3d6493747165906617030c554a4&#45;&gt;dir_4fef79e7177ba769987a8da36c892c5f</title>
<g id="a_edge6"><a xlink:href="dir_000021_000014.html" target="_top">
<path fill="none" stroke="#63b8ff" d="M268.18,-223.2C271.15,-222.63 274.12,-222.13 277,-221.75 386.24,-207.35 1173.61,-242.6 1268,-185.75 1298,-167.68 1342.71,-70.6 1360.4,-30.06"/>
<polygon fill="#63b8ff" stroke="#63b8ff" points="1363.63,-31.42 1364.38,-20.85 1357.2,-28.64 1363.63,-31.42"/>
</a>
</g>
<g id="a_edge6&#45;headlabel"><a xlink:href="dir_000021_000014.html" target="_top" xlink:title="1">
<text text-anchor="middle" x="1364.81" y="-33.34" font-family="Helvetica,sans-Serif" font-size="10.00" fill="#63b8ff">1</text>
</a>
</g>
</g>
<!-- dir_893c614dfc26359ef9972db39f5999c1 -->
<g id="node9" class="node">
<title>dir_893c614dfc26359ef9972db39f5999c1</title>
<g id="a_node9"><a xlink:href="dir_893c614dfc26359ef9972db39f5999c1.html" target="_top" xlink:title="core">
<polygon fill="#4ea9ff" stroke="#404040" points="974,-130.75 936,-130.75 936,-111.75 974,-111.75 974,-130.75"/>
<text text-anchor="middle" x="955" y="-118.75" font-family="Helvetica,sans-Serif" font-size="10.00">core</text>
</a>
</g>
</g>
<!-- dir_893c614dfc26359ef9972db39f5999c1&#45;&gt;dir_ac50b25a355f70dc22fd67feb5e54373 -->
<g id="edge9" class="edge">
<title>dir_893c614dfc26359ef9972db39f5999c1&#45;&gt;dir_ac50b25a355f70dc22fd67feb5e54373</title>
<g id="a_edge9"><a xlink:href="dir_000024_000011.html" target="_top">
<path fill="none" stroke="#63b8ff" d="M971.71,-111.74C988.9,-102.98 1015.84,-89.25 1035.24,-79.36"/>
<polygon fill="#63b8ff" stroke="#63b8ff" points="1037.03,-82.38 1044.35,-74.72 1033.85,-76.14 1037.03,-82.38"/>
</a>
</g>
<g id="a_edge9&#45;headlabel"><a xlink:href="dir_000024_000011.html" target="_top" xlink:title="1">
<text text-anchor="middle" x="1035.12" y="-84.04" font-family="Helvetica,sans-Serif" font-size="10.00" fill="#63b8ff">1</text>
</a>
</g>
</g>
<!-- dir_893c614dfc26359ef9972db39f5999c1&#45;&gt;dir_ff1b7b5329a4b5bde2c45ec2ac3be82c -->
<g id="edge13" class="edge">
<title>dir_893c614dfc26359ef9972db39f5999c1&#45;&gt;dir_ff1b7b5329a4b5bde2c45ec2ac3be82c</title>
<g id="a_edge13"><a xlink:href="dir_000024_000099.html" target="_top">
<path fill="none" stroke="#63b8ff" d="M964.08,-111.5C972.09,-103.78 983.96,-92.35 993.62,-83.04"/>
<polygon fill="#63b8ff" stroke="#63b8ff" points="996.31,-85.3 1001.09,-75.84 991.46,-80.26 996.31,-85.3"/>
</a>
</g>
<g id="a_edge13&#45;headlabel"><a xlink:href="dir_000024_000099.html" target="_top" xlink:title="1">
<text text-anchor="middle" x="995.7" y="-87.34" font-family="Helvetica,sans-Serif" font-size="10.00" fill="#63b8ff">1</text>
</a>
</g>
</g>
<!-- dir_893c614dfc26359ef9972db39f5999c1&#45;&gt;dir_ed99f5753030233661c0389c82bd4677 -->
<g id="edge11" class="edge">
<title>dir_893c614dfc26359ef9972db39f5999c1&#45;&gt;dir_ed99f5753030233661c0389c82bd4677</title>
<g id="a_edge11"><a xlink:href="dir_000024_000017.html" target="_top">
<path fill="none" stroke="#63b8ff" d="M935.77,-123.04C841.56,-127.16 419.56,-148.89 69.97,-221.94"/>
<polygon fill="#63b8ff" stroke="#63b8ff" points="69.24,-218.52 60.17,-224.01 70.68,-225.37 69.24,-218.52"/>
</a>
</g>
<g id="a_edge11&#45;headlabel"><a xlink:href="dir_000024_000017.html" target="_top" xlink:title="1">
<text text-anchor="middle" x="72.17" y="-212.5" font-family="Helvetica,sans-Serif" font-size="10.00" fill="#63b8ff">1</text>
</a>
</g>
</g>
<!-- dir_d32faeb880bdfc1dd6732776a39ce27a -->
<g id="node13" class="node">
<title>dir_d32faeb880bdfc1dd6732776a39ce27a</title>
<g id="a_node13"><a xlink:href="dir_d32faeb880bdfc1dd6732776a39ce27a.html" target="_top" xlink:title="math">
<polygon fill="#4ea9ff" stroke="#404040" points="976,-75.75 934,-75.75 934,-56.75 976,-56.75 976,-75.75"/>
<text text-anchor="middle" x="955" y="-63.75" font-family="Helvetica,sans-Serif" font-size="10.00">math</text>
</a>
</g>
</g>
<!-- dir_893c614dfc26359ef9972db39f5999c1&#45;&gt;dir_d32faeb880bdfc1dd6732776a39ce27a -->
<g id="edge10" class="edge">
<title>dir_893c614dfc26359ef9972db39f5999c1&#45;&gt;dir_d32faeb880bdfc1dd6732776a39ce27a</title>
<g id="a_edge10"><a xlink:href="dir_000024_000040.html" target="_top">
<path fill="none" stroke="#63b8ff" d="M955,-111.5C955,-104.56 955,-94.6 955,-85.89"/>
<polygon fill="#63b8ff" stroke="#63b8ff" points="958.5,-85.84 955,-75.84 951.5,-85.84 958.5,-85.84"/>
</a>
</g>
<g id="a_edge10&#45;headlabel"><a xlink:href="dir_000024_000040.html" target="_top" xlink:title="1">
<text text-anchor="middle" x="961.34" y="-86.94" font-family="Helvetica,sans-Serif" font-size="10.00" fill="#63b8ff">1</text>
</a>
</g>
</g>
<!-- dir_893c614dfc26359ef9972db39f5999c1&#45;&gt;dir_f984b2ba368b09e30d6d58c581c51286 -->
<g id="edge12" class="edge">
<title>dir_893c614dfc26359ef9972db39f5999c1&#45;&gt;dir_f984b2ba368b09e30d6d58c581c51286</title>
<g id="a_edge12"><a xlink:href="dir_000024_000046.html" target="_top">
<path fill="none" stroke="#63b8ff" d="M960.13,-130.84C961.64,-137.74 962.09,-147.68 961.49,-156.41"/>
<polygon fill="#63b8ff" stroke="#63b8ff" points="958,-156.13 960.17,-166.5 964.94,-157.04 958,-156.13"/>
</a>
</g>
<g id="a_edge12&#45;headlabel"><a xlink:href="dir_000024_000046.html" target="_top" xlink:title="1">
<text text-anchor="middle" x="955.65" y="-149.7" font-family="Helvetica,sans-Serif" font-size="10.00" fill="#63b8ff">1</text>
</a>
</g>
</g>
<!-- dir_790e36b05aa822470df67637c5175292 -->
<g id="node23" class="node">
<title>dir_790e36b05aa822470df67637c5175292</title>
<g id="a_node23"><a xlink:href="dir_790e36b05aa822470df67637c5175292.html" target="_top" xlink:title="vec">
<polygon fill="#4ea9ff" stroke="#404040" points="916,-75.75 882,-75.75 882,-56.75 916,-56.75 916,-75.75"/>
<text text-anchor="middle" x="899" y="-63.75" font-family="Helvetica,sans-Serif" font-size="10.00">vec</text>
</a>
</g>
</g>
<!-- dir_893c614dfc26359ef9972db39f5999c1&#45;&gt;dir_790e36b05aa822470df67637c5175292 -->
<g id="edge8" class="edge">
<title>dir_893c614dfc26359ef9972db39f5999c1&#45;&gt;dir_790e36b05aa822470df67637c5175292</title>
<g id="a_edge8"><a xlink:href="dir_000024_000102.html" target="_top">
<path fill="none" stroke="#63b8ff" d="M946,-111.74C937.81,-103.98 925.49,-92.33 915.53,-82.9"/>
<polygon fill="#63b8ff" stroke="#63b8ff" points="917.83,-80.26 908.16,-75.92 913.02,-85.34 917.83,-80.26"/>
</a>
</g>
<g id="a_edge8&#45;headlabel"><a xlink:href="dir_000024_000102.html" target="_top" xlink:title="1">
<text text-anchor="middle" x="922.39" y="-78.17" font-family="Helvetica,sans-Serif" font-size="10.00" fill="#63b8ff">1</text>
</a>
</g>
</g>
<!-- dir_893c614dfc26359ef9972db39f5999c1&#45;&gt;dir_4fef79e7177ba769987a8da36c892c5f -->
<g id="edge7" class="edge">
<title>dir_893c614dfc26359ef9972db39f5999c1&#45;&gt;dir_4fef79e7177ba769987a8da36c892c5f</title>
<g id="a_edge7"><a xlink:href="dir_000024_000014.html" target="_top">
<path fill="none" stroke="#63b8ff" d="M974.2,-116.22C1000.65,-110.14 1049.17,-96.99 1086,-75.75 1106.46,-63.95 1104.41,-50.34 1126,-40.75 1163.14,-24.26 1280.83,-16.47 1337.25,-13.61"/>
<polygon fill="#63b8ff" stroke="#63b8ff" points="1337.54,-17.1 1347.36,-13.12 1337.2,-10.11 1337.54,-17.1"/>
</a>
</g>
<g id="a_edge7&#45;headlabel"><a xlink:href="dir_000024_000014.html" target="_top" xlink:title="2">
<text text-anchor="middle" x="1334.09" y="-17.61" font-family="Helvetica,sans-Serif" font-size="10.00" fill="#63b8ff">2</text>
</a>
</g>
</g>
<!-- dir_912512723ca93f715fe0fb3868883ba9 -->
<g id="node10" class="node">
<title>dir_912512723ca93f715fe0fb3868883ba9</title>
<g id="a_node10"><a xlink:href="dir_912512723ca93f715fe0fb3868883ba9.html" target="_top" xlink:title="demo">
<polygon fill="#4ea9ff" stroke="#404040" points="330,-240.75 286,-240.75 286,-221.75 330,-221.75 330,-240.75"/>
<text text-anchor="middle" x="308" y="-228.75" font-family="Helvetica,sans-Serif" font-size="10.00">demo</text>
</a>
</g>
</g>
<!-- dir_912512723ca93f715fe0fb3868883ba9&#45;&gt;dir_4fef79e7177ba769987a8da36c892c5f -->
<g id="edge14" class="edge">
<title>dir_912512723ca93f715fe0fb3868883ba9&#45;&gt;dir_4fef79e7177ba769987a8da36c892c5f</title>
<g id="a_edge14"><a xlink:href="dir_000027_000014.html" target="_top">
<path fill="none" stroke="#63b8ff" d="M330.22,-223.5C333.15,-222.81 336.13,-222.19 339,-221.75 445.27,-205.43 1219.27,-249.31 1306,-185.75 1356.06,-149.07 1365.85,-68.35 1367.66,-31.4"/>
<polygon fill="#63b8ff" stroke="#63b8ff" points="1371.17,-31.16 1368.01,-21.05 1364.17,-30.93 1371.17,-31.16"/>
</a>
</g>
<g id="a_edge14&#45;headlabel"><a xlink:href="dir_000027_000014.html" target="_top" xlink:title="1">
<text text-anchor="middle" x="1373.89" y="-32.35" font-family="Helvetica,sans-Serif" font-size="10.00" fill="#63b8ff">1</text>
</a>
</g>
</g>
<!-- dir_96a94d71f70e09866f85cbe0f656de71 -->
<g id="node11" class="node">
<title>dir_96a94d71f70e09866f85cbe0f656de71</title>
<g id="a_node11"><a xlink:href="dir_96a94d71f70e09866f85cbe0f656de71.html" target="_top" xlink:title="direct">
<polygon fill="#4ea9ff" stroke="#404040" points="392,-240.75 348,-240.75 348,-221.75 392,-221.75 392,-240.75"/>
<text text-anchor="middle" x="370" y="-228.75" font-family="Helvetica,sans-Serif" font-size="10.00">direct</text>
</a>
</g>
</g>
<!-- dir_96a94d71f70e09866f85cbe0f656de71&#45;&gt;dir_4fef79e7177ba769987a8da36c892c5f -->
<g id="edge15" class="edge">
<title>dir_96a94d71f70e09866f85cbe0f656de71&#45;&gt;dir_4fef79e7177ba769987a8da36c892c5f</title>
<g id="a_edge15"><a xlink:href="dir_000030_000014.html" target="_top">
<path fill="none" stroke="#63b8ff" d="M392.25,-223.67C395.49,-222.91 398.82,-222.23 402,-221.75 453.79,-213.98 1305.18,-220.9 1344,-185.75 1387.73,-146.16 1378.96,-66.94 1372.15,-30.89"/>
<polygon fill="#63b8ff" stroke="#63b8ff" points="1375.52,-29.89 1370.08,-20.8 1368.67,-31.3 1375.52,-29.89"/>
</a>
</g>
<g id="a_edge15&#45;headlabel"><a xlink:href="dir_000030_000014.html" target="_top" xlink:title="1">
<text text-anchor="middle" x="1379.03" y="-30.34" font-family="Helvetica,sans-Serif" font-size="10.00" fill="#63b8ff">1</text>
</a>
</g>
</g>
<!-- dir_4a2bf8ab9c6f5e5932955667e593ab4a -->
<g id="node12" class="node">
<title>dir_4a2bf8ab9c6f5e5932955667e593ab4a</title>
<g id="a_node12"><a xlink:href="dir_4a2bf8ab9c6f5e5932955667e593ab4a.html" target="_top" xlink:title="gpu">
<polygon fill="#4ea9ff" stroke="#404040" points="445.5,-240.75 410.5,-240.75 410.5,-221.75 445.5,-221.75 445.5,-240.75"/>
<text text-anchor="middle" x="428" y="-228.75" font-family="Helvetica,sans-Serif" font-size="10.00">gpu</text>
</a>
</g>
</g>
<!-- dir_4a2bf8ab9c6f5e5932955667e593ab4a&#45;&gt;dir_4fef79e7177ba769987a8da36c892c5f -->
<g id="edge16" class="edge">
<title>dir_4a2bf8ab9c6f5e5932955667e593ab4a&#45;&gt;dir_4fef79e7177ba769987a8da36c892c5f</title>
<g id="a_edge16"><a xlink:href="dir_000035_000014.html" target="_top">
<path fill="none" stroke="#63b8ff" d="M445.55,-223.99C448.66,-223.09 451.9,-222.29 455,-221.75 505.78,-212.94 1346.27,-222.9 1382,-185.75 1426.68,-139.31 1396.59,-103.53 1382,-40.75 1381.15,-37.1 1379.76,-33.37 1378.18,-29.87"/>
<polygon fill="#63b8ff" stroke="#63b8ff" points="1381.22,-28.12 1373.51,-20.85 1375,-31.34 1381.22,-28.12"/>
</a>
</g>
<g id="a_edge16&#45;headlabel"><a xlink:href="dir_000035_000014.html" target="_top" xlink:title="1">
<text text-anchor="middle" x="1385.39" y="-27.51" font-family="Helvetica,sans-Serif" font-size="10.00" fill="#63b8ff">1</text>
</a>
</g>
</g>
<!-- dir_d32faeb880bdfc1dd6732776a39ce27a&#45;&gt;dir_4fef79e7177ba769987a8da36c892c5f -->
<g id="edge17" class="edge">
<title>dir_d32faeb880bdfc1dd6732776a39ce27a&#45;&gt;dir_4fef79e7177ba769987a8da36c892c5f</title>
<g id="a_edge17"><a xlink:href="dir_000040_000014.html" target="_top">
<path fill="none" stroke="#63b8ff" d="M961.36,-56.39C965.88,-50.86 972.47,-44.16 980,-40.75 1043.49,-12.07 1256.62,-11.11 1336.98,-11.82"/>
<polygon fill="#63b8ff" stroke="#63b8ff" points="1337.38,-15.32 1347.41,-11.92 1337.45,-8.32 1337.38,-15.32"/>
</a>
</g>
<g id="a_edge17&#45;headlabel"><a xlink:href="dir_000040_000014.html" target="_top" xlink:title="1">
<text text-anchor="middle" x="1333.75" y="-15.62" font-family="Helvetica,sans-Serif" font-size="10.00" fill="#63b8ff">1</text>
</a>
</g>
</g>
<!-- dir_95a6b77a34691943078a8304e1d7f32f -->
<g id="node14" class="node">
<title>dir_95a6b77a34691943078a8304e1d7f32f</title>
<g id="a_node14"><a xlink:href="dir_95a6b77a34691943078a8304e1d7f32f.html" target="_top" xlink:title="matrix">
<polygon fill="#4ea9ff" stroke="#404040" points="512.5,-240.75 463.5,-240.75 463.5,-221.75 512.5,-221.75 512.5,-240.75"/>
<text text-anchor="middle" x="488" y="-228.75" font-family="Helvetica,sans-Serif" font-size="10.00">matrix</text>
</a>
</g>
</g>
<!-- dir_95a6b77a34691943078a8304e1d7f32f&#45;&gt;dir_4fef79e7177ba769987a8da36c892c5f -->
<g id="edge18" class="edge">
<title>dir_95a6b77a34691943078a8304e1d7f32f&#45;&gt;dir_4fef79e7177ba769987a8da36c892c5f</title>
<g id="a_edge18"><a xlink:href="dir_000043_000014.html" target="_top">
<path fill="none" stroke="#63b8ff" d="M512.77,-223.44C515.86,-222.77 518.99,-222.19 522,-221.75 571.42,-214.66 1385.41,-221.76 1420,-185.75 1464.65,-139.28 1452.84,-96.2 1420,-40.75 1415.03,-32.36 1406.62,-26.28 1397.99,-21.94"/>
<polygon fill="#63b8ff" stroke="#63b8ff" points="1399.26,-18.68 1388.7,-17.9 1396.47,-25.1 1399.26,-18.68"/>
</a>
</g>
<g id="a_edge18&#45;headlabel"><a xlink:href="dir_000043_000014.html" target="_top" xlink:title="1">
<text text-anchor="middle" x="1403.69" y="-15.01" font-family="Helvetica,sans-Serif" font-size="10.00" fill="#63b8ff">1</text>
</a>
</g>
</g>
<!-- dir_f984b2ba368b09e30d6d58c581c51286&#45;&gt;dir_893c614dfc26359ef9972db39f5999c1 -->
<g id="edge20" class="edge">
<title>dir_f984b2ba368b09e30d6d58c581c51286&#45;&gt;dir_893c614dfc26359ef9972db39f5999c1</title>
<g id="a_edge20"><a xlink:href="dir_000046_000024.html" target="_top">
<path fill="none" stroke="#63b8ff" d="M949.83,-166.5C948.34,-159.56 947.9,-149.6 948.52,-140.89"/>
<polygon fill="#63b8ff" stroke="#63b8ff" points="952.01,-141.22 949.87,-130.84 945.07,-140.29 952.01,-141.22"/>
</a>
</g>
<g id="a_edge20&#45;headlabel"><a xlink:href="dir_000046_000024.html" target="_top" xlink:title="1">
<text text-anchor="middle" x="954.34" y="-142.66" font-family="Helvetica,sans-Serif" font-size="10.00" fill="#63b8ff">1</text>
</a>
</g>
</g>
<!-- dir_f984b2ba368b09e30d6d58c581c51286&#45;&gt;dir_4fef79e7177ba769987a8da36c892c5f -->
<g id="edge19" class="edge">
<title>dir_f984b2ba368b09e30d6d58c581c51286&#45;&gt;dir_4fef79e7177ba769987a8da36c892c5f</title>
<g id="a_edge19"><a xlink:href="dir_000046_000014.html" target="_top">
<path fill="none" stroke="#63b8ff" d="M970.89,-166.58C1000.82,-150.05 1067.26,-112.41 1120,-75.75 1140.52,-61.49 1141.04,-50.61 1164,-40.75 1221.62,-16.03 1296,-11.8 1337.16,-11.59"/>
<polygon fill="#63b8ff" stroke="#63b8ff" points="1337.35,-15.1 1347.36,-11.62 1337.37,-8.1 1337.35,-15.1"/>
</a>
</g>
<g id="a_edge19&#45;headlabel"><a xlink:href="dir_000046_000014.html" target="_top" xlink:title="1">
<text text-anchor="middle" x="1333.75" y="-15.42" font-family="Helvetica,sans-Serif" font-size="10.00" fill="#63b8ff">1</text>
</a>
</g>
</g>
<!-- dir_e936a715749fe16197dc10c0a6242156 -->
<g id="node16" class="node">
<title>dir_e936a715749fe16197dc10c0a6242156</title>
<g id="a_node16"><a xlink:href="dir_e936a715749fe16197dc10c0a6242156.html" target="_top" xlink:title="opt">
<polygon fill="#4ea9ff" stroke="#404040" points="563,-240.75 531,-240.75 531,-221.75 563,-221.75 563,-240.75"/>
<text text-anchor="middle" x="547" y="-228.75" font-family="Helvetica,sans-Serif" font-size="10.00">opt</text>
</a>
</g>
</g>
<!-- dir_e936a715749fe16197dc10c0a6242156&#45;&gt;dir_4fef79e7177ba769987a8da36c892c5f -->
<g id="edge21" class="edge">
<title>dir_e936a715749fe16197dc10c0a6242156&#45;&gt;dir_4fef79e7177ba769987a8da36c892c5f</title>
<g id="a_edge21"><a xlink:href="dir_000052_000014.html" target="_top">
<path fill="none" stroke="#63b8ff" d="M563.05,-224.25C566.3,-223.25 569.73,-222.34 573,-221.75 621.43,-213.03 1423.92,-221.25 1458,-185.75 1502.63,-139.27 1496.07,-92.75 1458,-40.75 1444.56,-22.4 1419.24,-15.57 1398.87,-13.16"/>
<polygon fill="#63b8ff" stroke="#63b8ff" points="1399.02,-9.66 1388.75,-12.27 1398.41,-16.64 1399.02,-9.66"/>
</a>
</g>
<g id="a_edge21&#45;headlabel"><a xlink:href="dir_000052_000014.html" target="_top" xlink:title="1">
<text text-anchor="middle" x="1402.85" y="-4.65" font-family="Helvetica,sans-Serif" font-size="10.00" fill="#63b8ff">1</text>
</a>
</g>
</g>
<!-- dir_d5653a9cc2d318eeca5138ef895d0aff -->
<g id="node17" class="node">
<title>dir_d5653a9cc2d318eeca5138ef895d0aff</title>
<g id="a_node17"><a xlink:href="dir_d5653a9cc2d318eeca5138ef895d0aff.html" target="_top" xlink:title="option">
<polygon fill="#4ea9ff" stroke="#404040" points="628.5,-240.75 581.5,-240.75 581.5,-221.75 628.5,-221.75 628.5,-240.75"/>
<text text-anchor="middle" x="605" y="-228.75" font-family="Helvetica,sans-Serif" font-size="10.00">option</text>
</a>
</g>
</g>
<!-- dir_d5653a9cc2d318eeca5138ef895d0aff&#45;&gt;dir_4fef79e7177ba769987a8da36c892c5f -->
<g id="edge22" class="edge">
<title>dir_d5653a9cc2d318eeca5138ef895d0aff&#45;&gt;dir_4fef79e7177ba769987a8da36c892c5f</title>
<g id="a_edge22"><a xlink:href="dir_000055_000014.html" target="_top">
<path fill="none" stroke="#63b8ff" d="M628.67,-223.52C631.79,-222.82 634.96,-222.2 638,-221.75 685.19,-214.77 1462.98,-220.19 1496,-185.75 1540.6,-139.24 1536.31,-91.03 1496,-40.75 1484.05,-25.85 1432.75,-18.24 1398.84,-14.76"/>
<polygon fill="#63b8ff" stroke="#63b8ff" points="1398.79,-11.24 1388.51,-13.78 1398.13,-18.21 1398.79,-11.24"/>
</a>
</g>
<g id="a_edge22&#45;headlabel"><a xlink:href="dir_000055_000014.html" target="_top" xlink:title="1">
<text text-anchor="middle" x="1402.64" y="-6.26" font-family="Helvetica,sans-Serif" font-size="10.00" fill="#63b8ff">1</text>
</a>
</g>
</g>
<!-- dir_b1c4e112ba39f6efae82a909a5034fca -->
<g id="node18" class="node">
<title>dir_b1c4e112ba39f6efae82a909a5034fca</title>
<g id="a_node18"><a xlink:href="dir_b1c4e112ba39f6efae82a909a5034fca.html" target="_top" xlink:title="ord">
<polygon fill="#4ea9ff" stroke="#404040" points="679,-240.75 647,-240.75 647,-221.75 679,-221.75 679,-240.75"/>
<text text-anchor="middle" x="663" y="-228.75" font-family="Helvetica,sans-Serif" font-size="10.00">ord</text>
</a>
</g>
</g>
<!-- dir_b1c4e112ba39f6efae82a909a5034fca&#45;&gt;dir_4fef79e7177ba769987a8da36c892c5f -->
<g id="edge23" class="edge">
<title>dir_b1c4e112ba39f6efae82a909a5034fca&#45;&gt;dir_4fef79e7177ba769987a8da36c892c5f</title>
<g id="a_edge23"><a xlink:href="dir_000058_000014.html" target="_top">
<path fill="none" stroke="#63b8ff" d="M679.23,-223.99C682.11,-223.1 685.12,-222.29 688,-221.75 734.24,-213.09 1501.45,-219.72 1534,-185.75 1578.59,-139.23 1575.54,-90.03 1534,-40.75 1517.06,-20.66 1442.06,-14.73 1398.89,-12.98"/>
<polygon fill="#63b8ff" stroke="#63b8ff" points="1398.77,-9.48 1388.65,-12.62 1398.52,-16.47 1398.77,-9.48"/>
</a>
</g>
<g id="a_edge23&#45;headlabel"><a xlink:href="dir_000058_000014.html" target="_top" xlink:title="1">
<text text-anchor="middle" x="1402.46" y="-4.27" font-family="Helvetica,sans-Serif" font-size="10.00" fill="#63b8ff">1</text>
</a>
</g>
</g>
<!-- dir_ff79ea9a0e93f1b322097d6642888840 -->
<g id="node19" class="node">
<title>dir_ff79ea9a0e93f1b322097d6642888840</title>
<g id="a_node19"><a xlink:href="dir_ff79ea9a0e93f1b322097d6642888840.html" target="_top" xlink:title="refly">
<polygon fill="#4ea9ff" stroke="#404040" points="735,-240.75 697,-240.75 697,-221.75 735,-221.75 735,-240.75"/>
<text text-anchor="middle" x="716" y="-228.75" font-family="Helvetica,sans-Serif" font-size="10.00">refly</text>
</a>
</g>
</g>
<!-- dir_ff79ea9a0e93f1b322097d6642888840&#45;&gt;dir_4fef79e7177ba769987a8da36c892c5f -->
<g id="edge24" class="edge">
<title>dir_ff79ea9a0e93f1b322097d6642888840&#45;&gt;dir_4fef79e7177ba769987a8da36c892c5f</title>
<g id="a_edge24"><a xlink:href="dir_000087_000014.html" target="_top">
<path fill="none" stroke="#63b8ff" d="M735.13,-223.76C738.07,-222.96 741.1,-222.25 744,-221.75 789.39,-214.01 1540.16,-219.01 1572,-185.75 1616.57,-139.21 1614.3,-89.37 1572,-40.75 1549.92,-15.38 1450.13,-11.91 1398.77,-11.85"/>
<polygon fill="#63b8ff" stroke="#63b8ff" points="1398.57,-8.35 1388.59,-11.88 1398.6,-15.35 1398.57,-8.35"/>
</a>
</g>
<g id="a_edge24&#45;headlabel"><a xlink:href="dir_000087_000014.html" target="_top" xlink:title="1">
<text text-anchor="middle" x="1402.16" y="-3" font-family="Helvetica,sans-Serif" font-size="10.00" fill="#63b8ff">1</text>
</a>
</g>
</g>
<!-- dir_d521403bdbd39699e75ba4b8aed9b811 -->
<g id="node20" class="node">
<title>dir_d521403bdbd39699e75ba4b8aed9b811</title>
<g id="a_node20"><a xlink:href="dir_d521403bdbd39699e75ba4b8aed9b811.html" target="_top" xlink:title="regex">
<polygon fill="#4ea9ff" stroke="#404040" points="797,-240.75 753,-240.75 753,-221.75 797,-221.75 797,-240.75"/>
<text text-anchor="middle" x="775" y="-228.75" font-family="Helvetica,sans-Serif" font-size="10.00">regex</text>
</a>
</g>
</g>
<!-- dir_d521403bdbd39699e75ba4b8aed9b811&#45;&gt;dir_4fef79e7177ba769987a8da36c892c5f -->
<g id="edge25" class="edge">
<title>dir_d521403bdbd39699e75ba4b8aed9b811&#45;&gt;dir_4fef79e7177ba769987a8da36c892c5f</title>
<g id="a_edge25"><a xlink:href="dir_000090_000014.html" target="_top">
<path fill="none" stroke="#63b8ff" d="M797.25,-223.68C800.5,-222.91 803.82,-222.23 807,-221.75 856.26,-214.31 1668.49,-221.68 1703,-185.75 1728.53,-159.17 1755.96,-125.51 1610,-40.75 1574.77,-20.3 1455.59,-14.49 1398.7,-12.87"/>
<polygon fill="#63b8ff" stroke="#63b8ff" points="1398.61,-9.36 1388.52,-12.6 1398.43,-16.36 1398.61,-9.36"/>
</a>
</g>
<g id="a_edge25&#45;headlabel"><a xlink:href="dir_000090_000014.html" target="_top" xlink:title="1">
<text text-anchor="middle" x="1402.28" y="-4.12" font-family="Helvetica,sans-Serif" font-size="10.00" fill="#63b8ff">1</text>
</a>
</g>
</g>
<!-- dir_b7ea1f47cb1e497a75eef19caac95392 -->
<g id="node25" class="node">
<title>dir_b7ea1f47cb1e497a75eef19caac95392</title>
<g id="a_node25"><a xlink:href="dir_b7ea1f47cb1e497a75eef19caac95392.html" target="_top" xlink:title="automaton">
<polygon fill="#daedff" stroke="#7f7f7f" points="1694,-185.75 1624,-185.75 1624,-166.75 1694,-166.75 1694,-185.75"/>
<text text-anchor="middle" x="1659" y="-173.75" font-family="Helvetica,sans-Serif" font-size="10.00">automaton</text>
</a>
</g>
</g>
<!-- dir_d521403bdbd39699e75ba4b8aed9b811&#45;&gt;dir_b7ea1f47cb1e497a75eef19caac95392 -->
<g id="edge26" class="edge">
<title>dir_d521403bdbd39699e75ba4b8aed9b811&#45;&gt;dir_b7ea1f47cb1e497a75eef19caac95392</title>
<g id="a_edge26"><a xlink:href="dir_000090_000008.html" target="_top">
<path fill="none" stroke="#63b8ff" d="M797.25,-223.69C800.5,-222.92 803.82,-222.24 807,-221.75 1160.12,-167.59 1254.84,-224.36 1610,-185.75 1611.26,-185.62 1612.53,-185.47 1613.81,-185.31"/>
<polygon fill="#63b8ff" stroke="#63b8ff" points="1614.33,-188.77 1623.75,-183.92 1613.36,-181.84 1614.33,-188.77"/>
</a>
</g>
<g id="a_edge26&#45;headlabel"><a xlink:href="dir_000090_000008.html" target="_top" xlink:title="2">
<text text-anchor="middle" x="1611.16" y="-189.58" font-family="Helvetica,sans-Serif" font-size="10.00" fill="#63b8ff">2</text>
</a>
</g>
</g>
<!-- dir_ada027ebbdae7290fb3fc4861fecbcab -->
<g id="node21" class="node">
<title>dir_ada027ebbdae7290fb3fc4861fecbcab</title>
<g id="a_node21"><a xlink:href="dir_ada027ebbdae7290fb3fc4861fecbcab.html" target="_top" xlink:title="tensor">
<polygon fill="#4ea9ff" stroke="#404040" points="862.5,-240.75 815.5,-240.75 815.5,-221.75 862.5,-221.75 862.5,-240.75"/>
<text text-anchor="middle" x="839" y="-228.75" font-family="Helvetica,sans-Serif" font-size="10.00">tensor</text>
</a>
</g>
</g>
<!-- dir_ada027ebbdae7290fb3fc4861fecbcab&#45;&gt;dir_4fef79e7177ba769987a8da36c892c5f -->
<g id="edge27" class="edge">
<title>dir_ada027ebbdae7290fb3fc4861fecbcab&#45;&gt;dir_4fef79e7177ba769987a8da36c892c5f</title>
<g id="a_edge27"><a xlink:href="dir_000094_000014.html" target="_top">
<path fill="none" stroke="#63b8ff" d="M862.67,-223.52C865.79,-222.82 868.96,-222.2 872,-221.75 919.52,-214.72 1702.74,-220.42 1736,-185.75 1780.61,-139.25 1779.77,-88.05 1736,-40.75 1713.3,-16.23 1483.24,-12.75 1398.83,-12.3"/>
<polygon fill="#63b8ff" stroke="#63b8ff" points="1398.62,-8.8 1388.6,-12.26 1398.59,-15.8 1398.62,-8.8"/>
</a>
</g>
<g id="a_edge27&#45;headlabel"><a xlink:href="dir_000094_000014.html" target="_top" xlink:title="1">
<text text-anchor="middle" x="1402.23" y="-3.48" font-family="Helvetica,sans-Serif" font-size="10.00" fill="#63b8ff">1</text>
</a>
</g>
</g>
<!-- dir_668a0f825cfe857b14c8faca47414cea -->
<g id="node22" class="node">
<title>dir_668a0f825cfe857b14c8faca47414cea</title>
<g id="a_node22"><a xlink:href="dir_668a0f825cfe857b14c8faca47414cea.html" target="_top" xlink:title="tuple">
<polygon fill="#4ea9ff" stroke="#404040" points="921.5,-240.75 880.5,-240.75 880.5,-221.75 921.5,-221.75 921.5,-240.75"/>
<text text-anchor="middle" x="901" y="-228.75" font-family="Helvetica,sans-Serif" font-size="10.00">tuple</text>
</a>
</g>
</g>
<!-- dir_668a0f825cfe857b14c8faca47414cea&#45;&gt;dir_4fef79e7177ba769987a8da36c892c5f -->
<g id="edge28" class="edge">
<title>dir_668a0f825cfe857b14c8faca47414cea&#45;&gt;dir_4fef79e7177ba769987a8da36c892c5f</title>
<g id="a_edge28"><a xlink:href="dir_000097_000014.html" target="_top">
<path fill="none" stroke="#63b8ff" d="M921.51,-223.76C924.66,-222.96 927.9,-222.25 931,-221.75 977.28,-214.31 1741.57,-219.6 1774,-185.75 1818.59,-139.22 1817.94,-87.89 1774,-40.75 1748.56,-13.47 1488.85,-11.81 1398.66,-12.06"/>
<polygon fill="#63b8ff" stroke="#63b8ff" points="1398.51,-8.56 1388.52,-12.1 1398.54,-15.56 1398.51,-8.56"/>
</a>
</g>
<g id="a_edge28&#45;headlabel"><a xlink:href="dir_000097_000014.html" target="_top" xlink:title="1">
<text text-anchor="middle" x="1402.09" y="-3.21" font-family="Helvetica,sans-Serif" font-size="10.00" fill="#63b8ff">1</text>
</a>
</g>
</g>
<!-- dir_790e36b05aa822470df67637c5175292&#45;&gt;dir_4fef79e7177ba769987a8da36c892c5f -->
<g id="edge29" class="edge">
<title>dir_790e36b05aa822470df67637c5175292&#45;&gt;dir_4fef79e7177ba769987a8da36c892c5f</title>
<g id="a_edge29"><a xlink:href="dir_000102_000014.html" target="_top">
<path fill="none" stroke="#63b8ff" d="M905.68,-56.37C910.41,-50.82 917.26,-44.12 925,-40.75 962.56,-24.43 1243.15,-15.57 1337.3,-13.03"/>
<polygon fill="#63b8ff" stroke="#63b8ff" points="1337.43,-16.53 1347.33,-12.76 1337.24,-9.53 1337.43,-16.53"/>
</a>
</g>
<g id="a_edge29&#45;headlabel"><a xlink:href="dir_000102_000014.html" target="_top" xlink:title="1">
<text text-anchor="middle" x="1333.91" y="-16.96" font-family="Helvetica,sans-Serif" font-size="10.00" fill="#63b8ff">1</text>
</a>
</g>
</g>
</g>
</svg>
