<?xml version="1.0" encoding="UTF-8" standalone="no"?>
<!DOCTYPE svg PUBLIC "-//W3C//DTD SVG 1.1//EN"
 "http://www.w3.org/Graphics/SVG/1.1/DTD/svg11.dtd">
<!-- Generated by graphviz version 2.43.0 (0)
 -->
<!-- Title: dialects/clos/phase Pages: 1 -->
<svg width="206pt" height="151pt"
 viewBox="0.00 0.00 206.00 151.00" xmlns="http://www.w3.org/2000/svg" xmlns:xlink="http://www.w3.org/1999/xlink">
<g id="graph0" class="graph" transform="scale(1 1) rotate(0) translate(4 147)">
<title>dialects/clos/phase</title>
<g id="clust1" class="cluster">
<title>clusterdir_ebf961b2aa11f825fdc6e62bccf2cd25</title>
<g id="a_clust1"><a xlink:href="dir_ebf961b2aa11f825fdc6e62bccf2cd25.html" target="_top" xlink:title="clos">
<polygon fill="#daedff" stroke="#7f7f7f" stroke-dasharray="5,2" points="64,-64 64,-135 134,-135 134,-64 64,-64"/>
<text text-anchor="middle" x="99" y="-123" font-family="Helvetica,sans-Serif" font-size="10.00">clos</text>
</a>
</g>
</g>
<!-- dir_5b681d64d621c20b41ecae9f8f0b8bb2 -->
<g id="node1" class="node">
<title>dir_5b681d64d621c20b41ecae9f8f0b8bb2</title>
<g id="a_node1"><a xlink:href="dir_5b681d64d621c20b41ecae9f8f0b8bb2.html" target="_top" xlink:title="phase">
<polygon fill="#daedff" stroke="#404040" stroke-width="2" points="126,-108 72,-108 72,-72 126,-72 126,-108"/>
<text text-anchor="middle" x="99" y="-87.5" font-family="Helvetica,sans-Serif" font-size="10.00">phase</text>
</a>
</g>
</g>
<!-- dir_4fef79e7177ba769987a8da36c892c5f -->
<g id="node2" class="node">
<title>dir_4fef79e7177ba769987a8da36c892c5f</title>
<g id="a_node2"><a xlink:href="dir_4fef79e7177ba769987a8da36c892c5f.html" target="_top" xlink:title="build">
<polygon fill="none" stroke="red" points="54,-36 0,-36 0,0 54,0 54,-36"/>
<text text-anchor="middle" x="27" y="-15.5" font-family="Helvetica,sans-Serif" font-size="10.00">build</text>
</a>
</g>
</g>
<!-- dir_5b681d64d621c20b41ecae9f8f0b8bb2&#45;&gt;dir_4fef79e7177ba769987a8da36c892c5f -->
<g id="edge1" class="edge">
<title>dir_5b681d64d621c20b41ecae9f8f0b8bb2&#45;&gt;dir_4fef79e7177ba769987a8da36c892c5f</title>
<path fill="none" stroke="black" d="M81.2,-71.7C72.4,-63.14 61.62,-52.66 52,-43.3"/>
<polygon fill="black" stroke="black" points="54.2,-40.57 44.59,-36.1 49.32,-45.58 54.2,-40.57"/>
<g id="a_edge1&#45;headlabel"><a xlink:href="dir_000039_000008.html" target="_top" xlink:title="2">
<text text-anchor="middle" x="58.76" y="-38.54" font-family="Helvetica,sans-Serif" font-size="10.00">2</text>
</a>
</g>
</g>
<!-- dir_c4168c80b7484587a21dc92c326c695e -->
<g id="node3" class="node">
<title>dir_c4168c80b7484587a21dc92c326c695e</title>
<g id="a_node3"><a xlink:href="dir_c4168c80b7484587a21dc92c326c695e.html" target="_top" xlink:title="thorin">
<polygon fill="none" stroke="red" points="126,-36 72,-36 72,0 126,0 126,-36"/>
<text text-anchor="middle" x="99" y="-15.5" font-family="Helvetica,sans-Serif" font-size="10.00">thorin</text>
</a>
</g>
</g>
<!-- dir_5b681d64d621c20b41ecae9f8f0b8bb2&#45;&gt;dir_c4168c80b7484587a21dc92c326c695e -->
<g id="edge2" class="edge">
<title>dir_5b681d64d621c20b41ecae9f8f0b8bb2&#45;&gt;dir_c4168c80b7484587a21dc92c326c695e</title>
<path fill="none" stroke="black" d="M99,-71.7C99,-63.98 99,-54.71 99,-46.11"/>
<polygon fill="black" stroke="black" points="102.5,-46.1 99,-36.1 95.5,-46.1 102.5,-46.1"/>
<g id="a_edge2&#45;headlabel"><a xlink:href="dir_000039_000046.html" target="_top" xlink:title="6">
<text text-anchor="middle" x="105.34" y="-47.2" font-family="Helvetica,sans-Serif" font-size="10.00">6</text>
</a>
</g>
</g>
<!-- dir_f4f507027349df35d55005177e6b6800 -->
<g id="node4" class="node">
<title>dir_f4f507027349df35d55005177e6b6800</title>
<g id="a_node4"><a xlink:href="dir_f4f507027349df35d55005177e6b6800.html" target="_top" xlink:title="mem">
<polygon fill="none" stroke="red" stroke-dasharray="5,2" points="198,-36 144,-36 144,0 198,0 198,-36"/>
<text text-anchor="middle" x="171" y="-15.5" font-family="Helvetica,sans-Serif" font-size="10.00">mem</text>
</a>
</g>
</g>
<!-- dir_5b681d64d621c20b41ecae9f8f0b8bb2&#45;&gt;dir_f4f507027349df35d55005177e6b6800 -->
<g id="edge3" class="edge">
<title>dir_5b681d64d621c20b41ecae9f8f0b8bb2&#45;&gt;dir_f4f507027349df35d55005177e6b6800</title>
<path fill="none" stroke="black" d="M116.8,-71.7C125.6,-63.14 136.38,-52.66 146,-43.3"/>
<polygon fill="black" stroke="black" points="148.68,-45.58 153.41,-36.1 143.8,-40.57 148.68,-45.58"/>
<g id="a_edge3&#45;headlabel"><a xlink:href="dir_000039_000031.html" target="_top" xlink:title="2">
<text text-anchor="middle" x="148.08" y="-47.63" font-family="Helvetica,sans-Serif" font-size="10.00">2</text>
</a>
</g>
</g>
</g>
</svg>
