<?xml version="1.0" encoding="UTF-8" standalone="no"?>
<!DOCTYPE svg PUBLIC "-//W3C//DTD SVG 1.1//EN"
 "http://www.w3.org/Graphics/SVG/1.1/DTD/svg11.dtd">
<!-- Generated by graphviz version 2.43.0 (0)
 -->
<!-- Title: /home/runner/work/thorin2/thorin2/dialects Pages: 1 -->
<svg width="359pt" height="276pt"
 viewBox="0.00 0.00 358.94 276.00" xmlns="http://www.w3.org/2000/svg" xmlns:xlink="http://www.w3.org/1999/xlink">
<g id="graph0" class="graph" transform="scale(1 1) rotate(0) translate(4 272)">
<title>/home/runner/work/thorin2/thorin2/dialects</title>
<g id="clust1" class="cluster">
<title>clusterdir_dc7f769b3d5332bd9f89fd345831c3ed</title>
<g id="a_clust1"><a xlink:href="dir_dc7f769b3d5332bd9f89fd345831c3ed.html" target="_top">
<polygon fill="#edf0f7" stroke="#404040" stroke-width="2" points="54.94,-64 54.94,-260 342.94,-260 342.94,-64 54.94,-64"/>
</a>
</g>
</g>
<!-- dir_dc7f769b3d5332bd9f89fd345831c3ed -->
<g id="node1" class="node">
<title>dir_dc7f769b3d5332bd9f89fd345831c3ed</title>
<text text-anchor="middle" x="306.94" y="-231.5" font-family="Helvetica,sans-Serif" font-size="10.00">dialects</text>
</g>
<!-- dir_a4e6014a65dac395128c61005a1a2d46 -->
<g id="node2" class="node">
<title>dir_a4e6014a65dac395128c61005a1a2d46</title>
<g id="a_node2"><a xlink:href="dir_a4e6014a65dac395128c61005a1a2d46.html" target="_top" xlink:title="affine">
<polygon fill="#a2b4d6" stroke="#404040" points="116.94,-252 62.94,-252 62.94,-216 116.94,-216 116.94,-252"/>
<text text-anchor="middle" x="89.94" y="-231.5" font-family="Helvetica,sans-Serif" font-size="10.00">affine</text>
</a>
</g>
</g>
<!-- dir_8f2980731aba7ec7b9fcae5764f196e3 -->
<g id="node7" class="node">
<title>dir_8f2980731aba7ec7b9fcae5764f196e3</title>
<g id="a_node7"><a xlink:href="dir_8f2980731aba7ec7b9fcae5764f196e3.html" target="_top" xlink:title="include">
<polygon fill="none" stroke="red" points="95.94,-36 41.94,-36 41.94,0 95.94,0 95.94,-36"/>
<text text-anchor="middle" x="68.94" y="-15.5" font-family="Helvetica,sans-Serif" font-size="10.00">include</text>
</a>
</g>
</g>
<!-- dir_a4e6014a65dac395128c61005a1a2d46&#45;&gt;dir_8f2980731aba7ec7b9fcae5764f196e3 -->
<g id="edge1" class="edge">
<title>dir_a4e6014a65dac395128c61005a1a2d46&#45;&gt;dir_8f2980731aba7ec7b9fcae5764f196e3</title>
<path fill="none" stroke="black" d="M62.87,-221.3C46.32,-212.55 26.54,-198.84 16.94,-180 -6.47,-134.07 -4.49,-110.89 16.94,-64 20.72,-55.73 26.86,-48.39 33.61,-42.17"/>
<polygon fill="black" stroke="black" points="36.3,-44.49 41.72,-35.39 31.81,-39.12 36.3,-44.49"/>
<g id="a_edge1&#45;headlabel"><a xlink:href="dir_000001_000021.html" target="_top" xlink:title="1">
<text text-anchor="middle" x="35.36" y="-46.47" font-family="Helvetica,sans-Serif" font-size="10.00">1</text>
</a>
</g>
</g>
<!-- dir_c4168c80b7484587a21dc92c326c695e -->
<g id="node8" class="node">
<title>dir_c4168c80b7484587a21dc92c326c695e</title>
<g id="a_node8"><a xlink:href="dir_c4168c80b7484587a21dc92c326c695e.html" target="_top" xlink:title="thorin">
<polygon fill="none" stroke="red" points="281.94,-36 227.94,-36 227.94,0 281.94,0 281.94,-36"/>
<text text-anchor="middle" x="254.94" y="-15.5" font-family="Helvetica,sans-Serif" font-size="10.00">thorin</text>
</a>
</g>
</g>
<!-- dir_a4e6014a65dac395128c61005a1a2d46&#45;&gt;dir_c4168c80b7484587a21dc92c326c695e -->
<g id="edge2" class="edge">
<title>dir_a4e6014a65dac395128c61005a1a2d46&#45;&gt;dir_c4168c80b7484587a21dc92c326c695e</title>
<path fill="none" stroke="black" d="M116.98,-220.02C148.46,-204.87 196.42,-181.64 197.94,-180 233.06,-142.21 246.77,-81.41 251.95,-46.34"/>
<polygon fill="black" stroke="black" points="255.43,-46.71 253.3,-36.34 248.5,-45.78 255.43,-46.71"/>
<g id="a_edge2&#45;headlabel"><a xlink:href="dir_000001_000033.html" target="_top" xlink:title="6">
<text text-anchor="middle" x="257.77" y="-48.16" font-family="Helvetica,sans-Serif" font-size="10.00">6</text>
</a>
</g>
</g>
<!-- dir_ebf961b2aa11f825fdc6e62bccf2cd25 -->
<g id="node3" class="node">
<title>dir_ebf961b2aa11f825fdc6e62bccf2cd25</title>
<g id="a_node3"><a xlink:href="dir_ebf961b2aa11f825fdc6e62bccf2cd25.html" target="_top" xlink:title="clos">
<polygon fill="#a2b4d6" stroke="#404040" points="188.94,-252 134.94,-252 134.94,-216 188.94,-216 188.94,-252"/>
<text text-anchor="middle" x="161.94" y="-231.5" font-family="Helvetica,sans-Serif" font-size="10.00">clos</text>
</a>
</g>
</g>
<!-- dir_c418730755777f3d7ae8c6bca9740a18 -->
<g id="node4" class="node">
<title>dir_c418730755777f3d7ae8c6bca9740a18</title>
<g id="a_node4"><a xlink:href="dir_c418730755777f3d7ae8c6bca9740a18.html" target="_top" xlink:title="core">
<polygon fill="#a2b4d6" stroke="#404040" points="188.94,-180 134.94,-180 134.94,-144 188.94,-144 188.94,-180"/>
<text text-anchor="middle" x="161.94" y="-159.5" font-family="Helvetica,sans-Serif" font-size="10.00">core</text>
</a>
</g>
</g>
<!-- dir_ebf961b2aa11f825fdc6e62bccf2cd25&#45;&gt;dir_c418730755777f3d7ae8c6bca9740a18 -->
<g id="edge6" class="edge">
<title>dir_ebf961b2aa11f825fdc6e62bccf2cd25&#45;&gt;dir_c418730755777f3d7ae8c6bca9740a18</title>
<path fill="none" stroke="black" d="M156.03,-215.7C155.23,-207.98 155,-198.71 155.35,-190.11"/>
<polygon fill="black" stroke="black" points="158.84,-190.32 156.05,-180.1 151.86,-189.84 158.84,-190.32"/>
<g id="a_edge6&#45;headlabel"><a xlink:href="dir_000006_000008.html" target="_top" xlink:title="1">
<text text-anchor="middle" x="161.42" y="-191.61" font-family="Helvetica,sans-Serif" font-size="10.00">1</text>
</a>
</g>
</g>
<!-- dir_f4f507027349df35d55005177e6b6800 -->
<g id="node6" class="node">
<title>dir_f4f507027349df35d55005177e6b6800</title>
<g id="a_node6"><a xlink:href="dir_f4f507027349df35d55005177e6b6800.html" target="_top" xlink:title="mem">
<polygon fill="#a2b4d6" stroke="#404040" points="188.94,-108 134.94,-108 134.94,-72 188.94,-72 188.94,-108"/>
<text text-anchor="middle" x="161.94" y="-87.5" font-family="Helvetica,sans-Serif" font-size="10.00">mem</text>
</a>
</g>
</g>
<!-- dir_ebf961b2aa11f825fdc6e62bccf2cd25&#45;&gt;dir_f4f507027349df35d55005177e6b6800 -->
<g id="edge5" class="edge">
<title>dir_ebf961b2aa11f825fdc6e62bccf2cd25&#45;&gt;dir_f4f507027349df35d55005177e6b6800</title>
<path fill="none" stroke="black" d="M177.55,-215.77C185.31,-206.03 193.89,-193.18 197.94,-180 202.64,-164.71 202.64,-159.29 197.94,-144 194.93,-134.22 189.43,-124.62 183.63,-116.33"/>
<polygon fill="black" stroke="black" points="186.35,-114.13 177.55,-108.23 180.75,-118.33 186.35,-114.13"/>
<g id="a_edge5&#45;headlabel"><a xlink:href="dir_000006_000024.html" target="_top" xlink:title="2">
<text text-anchor="middle" x="190.78" y="-112.8" font-family="Helvetica,sans-Serif" font-size="10.00">2</text>
</a>
</g>
</g>
<!-- dir_ebf961b2aa11f825fdc6e62bccf2cd25&#45;&gt;dir_8f2980731aba7ec7b9fcae5764f196e3 -->
<g id="edge3" class="edge">
<title>dir_ebf961b2aa11f825fdc6e62bccf2cd25&#45;&gt;dir_8f2980731aba7ec7b9fcae5764f196e3</title>
<path fill="none" stroke="black" d="M134.77,-219.97C103.46,-204.9 56.11,-181.88 54.94,-180 29.33,-138.74 44.75,-79.67 57.43,-45.74"/>
<polygon fill="black" stroke="black" points="60.83,-46.65 61.23,-36.06 54.32,-44.09 60.83,-46.65"/>
<g id="a_edge3&#45;headlabel"><a xlink:href="dir_000006_000021.html" target="_top" xlink:title="1">
<text text-anchor="middle" x="62.16" y="-48.53" font-family="Helvetica,sans-Serif" font-size="10.00">1</text>
</a>
</g>
</g>
<!-- dir_ebf961b2aa11f825fdc6e62bccf2cd25&#45;&gt;dir_c4168c80b7484587a21dc92c326c695e -->
<g id="edge4" class="edge">
<title>dir_ebf961b2aa11f825fdc6e62bccf2cd25&#45;&gt;dir_c4168c80b7484587a21dc92c326c695e</title>
<path fill="none" stroke="black" d="M189.11,-219.97C220.42,-204.9 267.77,-181.88 268.94,-180 294.55,-138.74 279.13,-79.67 266.45,-45.74"/>
<polygon fill="black" stroke="black" points="269.57,-44.09 262.66,-36.06 263.05,-46.65 269.57,-44.09"/>
<g id="a_edge4&#45;headlabel"><a xlink:href="dir_000006_000033.html" target="_top" xlink:title="17">
<text text-anchor="middle" x="273.52" y="-43.9" font-family="Helvetica,sans-Serif" font-size="10.00">17</text>
</a>
</g>
</g>
<!-- dir_c418730755777f3d7ae8c6bca9740a18&#45;&gt;dir_ebf961b2aa11f825fdc6e62bccf2cd25 -->
<g id="edge9" class="edge">
<title>dir_c418730755777f3d7ae8c6bca9740a18&#45;&gt;dir_ebf961b2aa11f825fdc6e62bccf2cd25</title>
<path fill="none" stroke="black" d="M167.84,-180.1C168.64,-187.79 168.88,-197.05 168.54,-205.67"/>
<polygon fill="black" stroke="black" points="165.05,-205.48 167.86,-215.7 172.03,-205.96 165.05,-205.48"/>
<g id="a_edge9&#45;headlabel"><a xlink:href="dir_000008_000006.html" target="_top" xlink:title="1">
<text text-anchor="middle" x="162.46" y="-199.2" font-family="Helvetica,sans-Serif" font-size="10.00">1</text>
</a>
</g>
</g>
<!-- dir_c418730755777f3d7ae8c6bca9740a18&#45;&gt;dir_f4f507027349df35d55005177e6b6800 -->
<g id="edge10" class="edge">
<title>dir_c418730755777f3d7ae8c6bca9740a18&#45;&gt;dir_f4f507027349df35d55005177e6b6800</title>
<path fill="none" stroke="black" d="M156.03,-143.7C155.23,-135.98 155,-126.71 155.35,-118.11"/>
<polygon fill="black" stroke="black" points="158.84,-118.32 156.05,-108.1 151.86,-117.84 158.84,-118.32"/>
<g id="a_edge10&#45;headlabel"><a xlink:href="dir_000008_000024.html" target="_top" xlink:title="1">
<text text-anchor="middle" x="161.42" y="-119.61" font-family="Helvetica,sans-Serif" font-size="10.00">1</text>
</a>
</g>
</g>
<!-- dir_c418730755777f3d7ae8c6bca9740a18&#45;&gt;dir_8f2980731aba7ec7b9fcae5764f196e3 -->
<g id="edge7" class="edge">
<title>dir_c418730755777f3d7ae8c6bca9740a18&#45;&gt;dir_8f2980731aba7ec7b9fcae5764f196e3</title>
<path fill="none" stroke="black" d="M150.15,-143.89C143.06,-133.55 133.9,-120.07 125.94,-108 112,-86.87 96.53,-62.67 85.23,-44.84"/>
<polygon fill="black" stroke="black" points="88.04,-42.73 79.73,-36.15 82.12,-46.47 88.04,-42.73"/>
<g id="a_edge7&#45;headlabel"><a xlink:href="dir_000008_000021.html" target="_top" xlink:title="1">
<text text-anchor="middle" x="92.36" y="-41.75" font-family="Helvetica,sans-Serif" font-size="10.00">1</text>
</a>
</g>
</g>
<!-- dir_c418730755777f3d7ae8c6bca9740a18&#45;&gt;dir_c4168c80b7484587a21dc92c326c695e -->
<g id="edge8" class="edge">
<title>dir_c418730755777f3d7ae8c6bca9740a18&#45;&gt;dir_c4168c80b7484587a21dc92c326c695e</title>
<path fill="none" stroke="black" d="M173.73,-143.89C180.82,-133.55 189.98,-120.07 197.94,-108 211.88,-86.87 227.35,-62.67 238.65,-44.84"/>
<polygon fill="black" stroke="black" points="241.76,-46.47 244.15,-36.15 235.84,-42.73 241.76,-46.47"/>
<g id="a_edge8&#45;headlabel"><a xlink:href="dir_000008_000033.html" target="_top" xlink:title="9">
<text text-anchor="middle" x="242.24" y="-48.53" font-family="Helvetica,sans-Serif" font-size="10.00">9</text>
</a>
</g>
</g>
<!-- dir_b377f326e5c4fac904997f328f2dc43f -->
<g id="node5" class="node">
<title>dir_b377f326e5c4fac904997f328f2dc43f</title>
<g id="a_node5"><a xlink:href="dir_b377f326e5c4fac904997f328f2dc43f.html" target="_top" xlink:title="direct">
<polygon fill="#a2b4d6" stroke="#404040" points="260.94,-252 206.94,-252 206.94,-216 260.94,-216 260.94,-252"/>
<text text-anchor="middle" x="233.94" y="-231.5" font-family="Helvetica,sans-Serif" font-size="10.00">direct</text>
</a>
</g>
</g>
<!-- dir_b377f326e5c4fac904997f328f2dc43f&#45;&gt;dir_8f2980731aba7ec7b9fcae5764f196e3 -->
<g id="edge11" class="edge">
<title>dir_b377f326e5c4fac904997f328f2dc43f&#45;&gt;dir_8f2980731aba7ec7b9fcae5764f196e3</title>
<path fill="none" stroke="black" d="M206.92,-220.02C175.44,-204.85 127.49,-181.61 125.94,-180 90.16,-142.83 76.69,-81.81 71.73,-46.53"/>
<polygon fill="black" stroke="black" points="75.18,-45.94 70.44,-36.47 68.23,-46.83 75.18,-45.94"/>
<g id="a_edge11&#45;headlabel"><a xlink:href="dir_000013_000021.html" target="_top" xlink:title="1">
<text text-anchor="middle" x="78.45" y="-46.65" font-family="Helvetica,sans-Serif" font-size="10.00">1</text>
</a>
</g>
</g>
<!-- dir_b377f326e5c4fac904997f328f2dc43f&#45;&gt;dir_c4168c80b7484587a21dc92c326c695e -->
<g id="edge12" class="edge">
<title>dir_b377f326e5c4fac904997f328f2dc43f&#45;&gt;dir_c4168c80b7484587a21dc92c326c695e</title>
<path fill="none" stroke="black" d="M261.08,-216.97C279.67,-205.34 301.86,-189.98 306.94,-180 330.35,-134.07 328.37,-110.89 306.94,-64 303.16,-55.73 297.02,-48.39 290.27,-42.17"/>
<polygon fill="black" stroke="black" points="292.08,-39.12 282.16,-35.39 287.58,-44.49 292.08,-39.12"/>
<g id="a_edge12&#45;headlabel"><a xlink:href="dir_000013_000033.html" target="_top" xlink:title="6">
<text text-anchor="middle" x="296.65" y="-36.75" font-family="Helvetica,sans-Serif" font-size="10.00">6</text>
</a>
</g>
</g>
<!-- dir_f4f507027349df35d55005177e6b6800&#45;&gt;dir_c418730755777f3d7ae8c6bca9740a18 -->
<g id="edge15" class="edge">
<title>dir_f4f507027349df35d55005177e6b6800&#45;&gt;dir_c418730755777f3d7ae8c6bca9740a18</title>
<path fill="none" stroke="black" d="M167.84,-108.1C168.64,-115.79 168.88,-125.05 168.54,-133.67"/>
<polygon fill="black" stroke="black" points="165.05,-133.48 167.86,-143.7 172.03,-133.96 165.05,-133.48"/>
<g id="a_edge15&#45;headlabel"><a xlink:href="dir_000024_000008.html" target="_top" xlink:title="1">
<text text-anchor="middle" x="162.46" y="-127.2" font-family="Helvetica,sans-Serif" font-size="10.00">1</text>
</a>
</g>
</g>
<!-- dir_f4f507027349df35d55005177e6b6800&#45;&gt;dir_8f2980731aba7ec7b9fcae5764f196e3 -->
<g id="edge13" class="edge">
<title>dir_f4f507027349df35d55005177e6b6800&#45;&gt;dir_8f2980731aba7ec7b9fcae5764f196e3</title>
<path fill="none" stroke="black" d="M138.95,-71.7C127.13,-62.8 112.55,-51.82 99.76,-42.2"/>
<polygon fill="black" stroke="black" points="101.76,-39.32 91.67,-36.1 97.55,-44.91 101.76,-39.32"/>
<g id="a_edge13&#45;headlabel"><a xlink:href="dir_000024_000021.html" target="_top" xlink:title="1">
<text text-anchor="middle" x="106.34" y="-36.71" font-family="Helvetica,sans-Serif" font-size="10.00">1</text>
</a>
</g>
</g>
<!-- dir_f4f507027349df35d55005177e6b6800&#45;&gt;dir_c4168c80b7484587a21dc92c326c695e -->
<g id="edge14" class="edge">
<title>dir_f4f507027349df35d55005177e6b6800&#45;&gt;dir_c4168c80b7484587a21dc92c326c695e</title>
<path fill="none" stroke="black" d="M184.93,-71.7C196.75,-62.8 211.33,-51.82 224.12,-42.2"/>
<polygon fill="black" stroke="black" points="226.33,-44.91 232.22,-36.1 222.12,-39.32 226.33,-44.91"/>
<g id="a_edge14&#45;headlabel"><a xlink:href="dir_000024_000033.html" target="_top" xlink:title="22">
<text text-anchor="middle" x="225.17" y="-46.84" font-family="Helvetica,sans-Serif" font-size="10.00">22</text>
</a>
</g>
</g>
</g>
</svg>
