<?xml version="1.0" encoding="UTF-8" standalone="no"?>
<!DOCTYPE svg PUBLIC "-//W3C//DTD SVG 1.1//EN"
 "http://www.w3.org/Graphics/SVG/1.1/DTD/svg11.dtd">
<!-- Generated by graphviz version 2.43.0 (0)
 -->
<!-- Title: dialects/clos/pass Pages: 1 -->
<svg width="302pt" height="159pt"
 viewBox="0.00 0.00 302.00 159.00" xmlns="http://www.w3.org/2000/svg" xmlns:xlink="http://www.w3.org/1999/xlink">
<g id="graph0" class="graph" transform="scale(1 1) rotate(0) translate(4 155)">
<title>dialects/clos/pass</title>
<g id="clust1" class="cluster">
<title>clusterdir_ebf961b2aa11f825fdc6e62bccf2cd25</title>
<g id="a_clust1"><a xlink:href="dir_ebf961b2aa11f825fdc6e62bccf2cd25.html" target="_top" xlink:title="clos">
<polygon fill="#daedff" stroke="#7f7f7f" stroke-dasharray="5,2" points="56,-56 56,-143 286,-143 286,-56 56,-56"/>
<text text-anchor="middle" x="171" y="-131" font-family="Helvetica,sans-Serif" font-size="10.00">clos</text>
</a>
</g>
</g>
<g id="clust2" class="cluster">
<title>clusterdir_3f1b6b218438912357615aa72d3bb6e7</title>
<g id="a_clust2"><a xlink:href="dir_3f1b6b218438912357615aa72d3bb6e7.html" target="_top">
<polygon fill="#daedff" stroke="#404040" stroke-width="2" points="64,-64 64,-116 278,-116 278,-64 64,-64"/>
</a>
</g>
</g>
<!-- dir_3f1b6b218438912357615aa72d3bb6e7 -->
<g id="node1" class="node">
<title>dir_3f1b6b218438912357615aa72d3bb6e7</title>
<text text-anchor="middle" x="243" y="-87.5" font-family="Helvetica,sans-Serif" font-size="10.00">pass</text>
</g>
<!-- dir_b821a4bb38a9228ec48bf9131eff26b6 -->
<g id="node2" class="node">
<title>dir_b821a4bb38a9228ec48bf9131eff26b6</title>
<g id="a_node2"><a xlink:href="dir_b821a4bb38a9228ec48bf9131eff26b6.html" target="_top" xlink:title="fp">
<polygon fill="#4ea9ff" stroke="#404040" points="126,-108 72,-108 72,-72 126,-72 126,-108"/>
<text text-anchor="middle" x="99" y="-87.5" font-family="Helvetica,sans-Serif" font-size="10.00">fp</text>
</a>
</g>
</g>
<!-- dir_4fef79e7177ba769987a8da36c892c5f -->
<g id="node4" class="node">
<title>dir_4fef79e7177ba769987a8da36c892c5f</title>
<g id="a_node4"><a xlink:href="dir_4fef79e7177ba769987a8da36c892c5f.html" target="_top" xlink:title="build">
<polygon fill="none" stroke="red" points="54,-36 0,-36 0,0 54,0 54,-36"/>
<text text-anchor="middle" x="27" y="-15.5" font-family="Helvetica,sans-Serif" font-size="10.00">build</text>
</a>
</g>
</g>
<!-- dir_b821a4bb38a9228ec48bf9131eff26b6&#45;&gt;dir_4fef79e7177ba769987a8da36c892c5f -->
<g id="edge1" class="edge">
<title>dir_b821a4bb38a9228ec48bf9131eff26b6&#45;&gt;dir_4fef79e7177ba769987a8da36c892c5f</title>
<path fill="none" stroke="black" d="M81.2,-71.7C72.4,-63.14 61.62,-52.66 52,-43.3"/>
<polygon fill="black" stroke="black" points="54.2,-40.57 44.59,-36.1 49.32,-45.58 54.2,-40.57"/>
<g id="a_edge1&#45;headlabel"><a xlink:href="dir_000024_000008.html" target="_top" xlink:title="1">
<text text-anchor="middle" x="58.76" y="-38.54" font-family="Helvetica,sans-Serif" font-size="10.00">1</text>
</a>
</g>
</g>
<!-- dir_c4168c80b7484587a21dc92c326c695e -->
<g id="node5" class="node">
<title>dir_c4168c80b7484587a21dc92c326c695e</title>
<g id="a_node5"><a xlink:href="dir_c4168c80b7484587a21dc92c326c695e.html" target="_top" xlink:title="thorin">
<polygon fill="none" stroke="red" points="126,-36 72,-36 72,0 126,0 126,-36"/>
<text text-anchor="middle" x="99" y="-15.5" font-family="Helvetica,sans-Serif" font-size="10.00">thorin</text>
</a>
</g>
</g>
<!-- dir_b821a4bb38a9228ec48bf9131eff26b6&#45;&gt;dir_c4168c80b7484587a21dc92c326c695e -->
<g id="edge2" class="edge">
<title>dir_b821a4bb38a9228ec48bf9131eff26b6&#45;&gt;dir_c4168c80b7484587a21dc92c326c695e</title>
<path fill="none" stroke="black" d="M99,-71.7C99,-63.98 99,-54.71 99,-46.11"/>
<polygon fill="black" stroke="black" points="102.5,-46.1 99,-36.1 95.5,-46.1 102.5,-46.1"/>
<g id="a_edge2&#45;headlabel"><a xlink:href="dir_000024_000046.html" target="_top" xlink:title="3">
<text text-anchor="middle" x="105.34" y="-47.2" font-family="Helvetica,sans-Serif" font-size="10.00">3</text>
</a>
</g>
</g>
<!-- dir_f4f507027349df35d55005177e6b6800 -->
<g id="node6" class="node">
<title>dir_f4f507027349df35d55005177e6b6800</title>
<g id="a_node6"><a xlink:href="dir_f4f507027349df35d55005177e6b6800.html" target="_top" xlink:title="mem">
<polygon fill="none" stroke="red" stroke-dasharray="5,2" points="198,-36 144,-36 144,0 198,0 198,-36"/>
<text text-anchor="middle" x="171" y="-15.5" font-family="Helvetica,sans-Serif" font-size="10.00">mem</text>
</a>
</g>
</g>
<!-- dir_b821a4bb38a9228ec48bf9131eff26b6&#45;&gt;dir_f4f507027349df35d55005177e6b6800 -->
<g id="edge3" class="edge">
<title>dir_b821a4bb38a9228ec48bf9131eff26b6&#45;&gt;dir_f4f507027349df35d55005177e6b6800</title>
<path fill="none" stroke="black" d="M116.8,-71.7C125.6,-63.14 136.38,-52.66 146,-43.3"/>
<polygon fill="black" stroke="black" points="148.68,-45.58 153.41,-36.1 143.8,-40.57 148.68,-45.58"/>
<g id="a_edge3&#45;headlabel"><a xlink:href="dir_000024_000031.html" target="_top" xlink:title="1">
<text text-anchor="middle" x="148.08" y="-47.63" font-family="Helvetica,sans-Serif" font-size="10.00">1</text>
</a>
</g>
</g>
<!-- dir_ecaaef70fb869f05c92ff221843df4be -->
<g id="node3" class="node">
<title>dir_ecaaef70fb869f05c92ff221843df4be</title>
<g id="a_node3"><a xlink:href="dir_ecaaef70fb869f05c92ff221843df4be.html" target="_top" xlink:title="rw">
<polygon fill="#4ea9ff" stroke="#404040" points="198,-108 144,-108 144,-72 198,-72 198,-108"/>
<text text-anchor="middle" x="171" y="-87.5" font-family="Helvetica,sans-Serif" font-size="10.00">rw</text>
</a>
</g>
</g>
<!-- dir_ecaaef70fb869f05c92ff221843df4be&#45;&gt;dir_c4168c80b7484587a21dc92c326c695e -->
<g id="edge4" class="edge">
<title>dir_ecaaef70fb869f05c92ff221843df4be&#45;&gt;dir_c4168c80b7484587a21dc92c326c695e</title>
<path fill="none" stroke="black" d="M153.2,-71.7C144.4,-63.14 133.62,-52.66 124,-43.3"/>
<polygon fill="black" stroke="black" points="126.2,-40.57 116.59,-36.1 121.32,-45.58 126.2,-40.57"/>
<g id="a_edge4&#45;headlabel"><a xlink:href="dir_000043_000046.html" target="_top" xlink:title="5">
<text text-anchor="middle" x="130.76" y="-38.54" font-family="Helvetica,sans-Serif" font-size="10.00">5</text>
</a>
</g>
</g>
<!-- dir_ecaaef70fb869f05c92ff221843df4be&#45;&gt;dir_f4f507027349df35d55005177e6b6800 -->
<g id="edge6" class="edge">
<title>dir_ecaaef70fb869f05c92ff221843df4be&#45;&gt;dir_f4f507027349df35d55005177e6b6800</title>
<path fill="none" stroke="black" d="M171,-71.7C171,-63.98 171,-54.71 171,-46.11"/>
<polygon fill="black" stroke="black" points="174.5,-46.1 171,-36.1 167.5,-46.1 174.5,-46.1"/>
<g id="a_edge6&#45;headlabel"><a xlink:href="dir_000043_000031.html" target="_top" xlink:title="1">
<text text-anchor="middle" x="177.34" y="-47.2" font-family="Helvetica,sans-Serif" font-size="10.00">1</text>
</a>
</g>
</g>
<!-- dir_c418730755777f3d7ae8c6bca9740a18 -->
<g id="node7" class="node">
<title>dir_c418730755777f3d7ae8c6bca9740a18</title>
<g id="a_node7"><a xlink:href="dir_c418730755777f3d7ae8c6bca9740a18.html" target="_top" xlink:title="core">
<polygon fill="none" stroke="red" stroke-dasharray="5,2" points="270,-36 216,-36 216,0 270,0 270,-36"/>
<text text-anchor="middle" x="243" y="-15.5" font-family="Helvetica,sans-Serif" font-size="10.00">core</text>
</a>
</g>
</g>
<!-- dir_ecaaef70fb869f05c92ff221843df4be&#45;&gt;dir_c418730755777f3d7ae8c6bca9740a18 -->
<g id="edge5" class="edge">
<title>dir_ecaaef70fb869f05c92ff221843df4be&#45;&gt;dir_c418730755777f3d7ae8c6bca9740a18</title>
<path fill="none" stroke="black" d="M188.8,-71.7C197.6,-63.14 208.38,-52.66 218,-43.3"/>
<polygon fill="black" stroke="black" points="220.68,-45.58 225.41,-36.1 215.8,-40.57 220.68,-45.58"/>
<g id="a_edge5&#45;headlabel"><a xlink:href="dir_000043_000012.html" target="_top" xlink:title="1">
<text text-anchor="middle" x="220.08" y="-47.63" font-family="Helvetica,sans-Serif" font-size="10.00">1</text>
</a>
</g>
</g>
</g>
</svg>
