<?xml version="1.0" encoding="UTF-8" standalone="no"?>
<!DOCTYPE svg PUBLIC "-//W3C//DTD SVG 1.1//EN"
 "http://www.w3.org/Graphics/SVG/1.1/DTD/svg11.dtd">
<!-- Generated by graphviz version 2.50.0 (20220203.2022)
 -->
<!-- Title: thorin Pages: 1 -->
<svg width="226pt" height="364pt"
 viewBox="0.00 0.00 226.00 364.00" xmlns="http://www.w3.org/2000/svg" xmlns:xlink="http://www.w3.org/1999/xlink">
<g id="graph0" class="graph" transform="scale(1 1) rotate(0) translate(4 360)">
<title>thorin</title>
<g id="clust1" class="cluster">
<title>clusterdir_c4168c80b7484587a21dc92c326c695e</title>
<g id="a_clust1"><a xlink:href="dir_c4168c80b7484587a21dc92c326c695e.html" target="_top">
<polygon fill="#edf0f7" stroke="#404040" stroke-width="2" points="8,-8 8,-348 210,-348 210,-8 8,-8"/>
</a>
</g>
</g>
<!-- dir_c4168c80b7484587a21dc92c326c695e -->
<g id="node1" class="node">
<title>dir_c4168c80b7484587a21dc92c326c695e</title>
<text text-anchor="middle" x="145" y="-319.5" font-family="Helvetica,sans-Serif" font-size="10.00">thorin</text>
</g>
<!-- dir_91cc3e6bd7c42aaa24383bdfa6f52de6 -->
<g id="node2" class="node">
<title>dir_91cc3e6bd7c42aaa24383bdfa6f52de6</title>
<g id="a_node2"><a xlink:href="dir_91cc3e6bd7c42aaa24383bdfa6f52de6.html" target="_top" xlink:title="analyses">
<polygon fill="#a2b4d6" stroke="#404040" points="117.5,-124 62.5,-124 62.5,-88 117.5,-88 117.5,-124"/>
<text text-anchor="middle" x="90" y="-103.5" font-family="Helvetica,sans-Serif" font-size="10.00">analyses</text>
</a>
</g>
</g>
<!-- dir_c4168c80b7484587a21dc92c326c695e&#45;&gt;dir_91cc3e6bd7c42aaa24383bdfa6f52de6 -->
<g id="edge1" class="edge">
<title>dir_c4168c80b7484587a21dc92c326c695e&#45;&gt;dir_91cc3e6bd7c42aaa24383bdfa6f52de6</title>
<path fill="none" stroke="black" d="M130.47,-304C122.83,-294.12 114.03,-281.08 109,-268 91.84,-223.4 89.08,-167.13 89.17,-134.3"/>
<polygon fill="black" stroke="black" points="92.68,-134.15 89.3,-124.11 85.68,-134.07 92.68,-134.15"/>
<g id="a_edge1&#45;headlabel"><a xlink:href="dir_000011_000000.html" target="_top" xlink:title="8">
<text text-anchor="middle" x="95.47" y="-135.28" font-family="Helvetica,sans-Serif" font-size="10.00">8</text>
</a>
</g>
</g>
<!-- dir_bdc7e8131cbf0032850c465464da8867 -->
<g id="node4" class="node">
<title>dir_bdc7e8131cbf0032850c465464da8867</title>
<g id="a_node4"><a xlink:href="dir_bdc7e8131cbf0032850c465464da8867.html" target="_top" xlink:title="fe">
<polygon fill="#a2b4d6" stroke="#404040" points="172,-268 118,-268 118,-232 172,-232 172,-268"/>
<text text-anchor="middle" x="145" y="-247.5" font-family="Helvetica,sans-Serif" font-size="10.00">fe</text>
</a>
</g>
</g>
<!-- dir_c4168c80b7484587a21dc92c326c695e&#45;&gt;dir_bdc7e8131cbf0032850c465464da8867 -->
<g id="edge3" class="edge">
<title>dir_c4168c80b7484587a21dc92c326c695e&#45;&gt;dir_bdc7e8131cbf0032850c465464da8867</title>
<path fill="none" stroke="black" d="M145,-303.7C145,-295.98 145,-286.71 145,-278.11"/>
<polygon fill="black" stroke="black" points="148.5,-278.1 145,-268.1 141.5,-278.1 148.5,-278.1"/>
<g id="a_edge3&#45;headlabel"><a xlink:href="dir_000011_000005.html" target="_top" xlink:title="1">
<text text-anchor="middle" x="151.34" y="-279.2" font-family="Helvetica,sans-Serif" font-size="10.00">1</text>
</a>
</g>
</g>
<!-- dir_af13e0a143b7ca68f7428894b6ff07d9 -->
<g id="node6" class="node">
<title>dir_af13e0a143b7ca68f7428894b6ff07d9</title>
<g id="a_node6"><a xlink:href="dir_af13e0a143b7ca68f7428894b6ff07d9.html" target="_top" xlink:title="util">
<polygon fill="#a2b4d6" stroke="#404040" points="164,-52 110,-52 110,-16 164,-16 164,-52"/>
<text text-anchor="middle" x="137" y="-31.5" font-family="Helvetica,sans-Serif" font-size="10.00">util</text>
</a>
</g>
</g>
<!-- dir_c4168c80b7484587a21dc92c326c695e&#45;&gt;dir_af13e0a143b7ca68f7428894b6ff07d9 -->
<g id="edge2" class="edge">
<title>dir_c4168c80b7484587a21dc92c326c695e&#45;&gt;dir_af13e0a143b7ca68f7428894b6ff07d9</title>
<path fill="none" stroke="black" d="M160.61,-303.77C168.37,-294.03 176.95,-281.18 181,-268 204.57,-191.36 194.75,-163.93 169,-88 165.81,-78.58 160.74,-69.05 155.57,-60.71"/>
<polygon fill="black" stroke="black" points="158.41,-58.66 150.01,-52.2 152.55,-62.48 158.41,-58.66"/>
<g id="a_edge2&#45;headlabel"><a xlink:href="dir_000011_000012.html" target="_top" xlink:title="33">
<text text-anchor="middle" x="162.75" y="-57.61" font-family="Helvetica,sans-Serif" font-size="10.00">33</text>
</a>
</g>
</g>
<!-- dir_91cc3e6bd7c42aaa24383bdfa6f52de6&#45;&gt;dir_af13e0a143b7ca68f7428894b6ff07d9 -->
<g id="edge4" class="edge">
<title>dir_91cc3e6bd7c42aaa24383bdfa6f52de6&#45;&gt;dir_af13e0a143b7ca68f7428894b6ff07d9</title>
<path fill="none" stroke="black" d="M101.62,-87.7C107.14,-79.47 113.85,-69.48 119.93,-60.42"/>
<polygon fill="black" stroke="black" points="122.85,-62.36 125.52,-52.1 117.04,-58.46 122.85,-62.36"/>
<g id="a_edge4&#45;headlabel"><a xlink:href="dir_000000_000012.html" target="_top" xlink:title="9">
<text text-anchor="middle" x="123.2" y="-64.42" font-family="Helvetica,sans-Serif" font-size="10.00">9</text>
</a>
</g>
</g>
<!-- dir_e925b2e9311ea88d6ed8c8d868701100 -->
<g id="node3" class="node">
<title>dir_e925b2e9311ea88d6ed8c8d868701100</title>
<g id="a_node3"><a xlink:href="dir_e925b2e9311ea88d6ed8c8d868701100.html" target="_top" xlink:title="be">
<polygon fill="#a2b4d6" stroke="#404040" points="162,-196 108,-196 108,-160 162,-160 162,-196"/>
<text text-anchor="middle" x="135" y="-175.5" font-family="Helvetica,sans-Serif" font-size="10.00">be</text>
</a>
</g>
</g>
<!-- dir_e925b2e9311ea88d6ed8c8d868701100&#45;&gt;dir_91cc3e6bd7c42aaa24383bdfa6f52de6 -->
<g id="edge5" class="edge">
<title>dir_e925b2e9311ea88d6ed8c8d868701100&#45;&gt;dir_91cc3e6bd7c42aaa24383bdfa6f52de6</title>
<path fill="none" stroke="black" d="M123.88,-159.7C118.64,-151.56 112.3,-141.69 106.52,-132.7"/>
<polygon fill="black" stroke="black" points="109.35,-130.62 101,-124.1 103.46,-134.41 109.35,-130.62"/>
<g id="a_edge5&#45;headlabel"><a xlink:href="dir_000001_000000.html" target="_top" xlink:title="2">
<text text-anchor="middle" x="113.68" y="-129.61" font-family="Helvetica,sans-Serif" font-size="10.00">2</text>
</a>
</g>
</g>
<!-- dir_e925b2e9311ea88d6ed8c8d868701100&#45;&gt;dir_af13e0a143b7ca68f7428894b6ff07d9 -->
<g id="edge6" class="edge">
<title>dir_e925b2e9311ea88d6ed8c8d868701100&#45;&gt;dir_af13e0a143b7ca68f7428894b6ff07d9</title>
<path fill="none" stroke="black" d="M135.24,-159.87C135.58,-135.67 136.21,-91.21 136.61,-62.39"/>
<polygon fill="black" stroke="black" points="140.12,-62.24 136.76,-52.19 133.12,-62.14 140.12,-62.24"/>
<g id="a_edge6&#45;headlabel"><a xlink:href="dir_000001_000012.html" target="_top" xlink:title="4">
<text text-anchor="middle" x="142.91" y="-63.37" font-family="Helvetica,sans-Serif" font-size="10.00">4</text>
</a>
</g>
</g>
<!-- dir_bdc7e8131cbf0032850c465464da8867&#45;&gt;dir_e925b2e9311ea88d6ed8c8d868701100 -->
<g id="edge8" class="edge">
<title>dir_bdc7e8131cbf0032850c465464da8867&#45;&gt;dir_e925b2e9311ea88d6ed8c8d868701100</title>
<path fill="none" stroke="black" d="M142.53,-231.7C141.43,-223.98 140.1,-214.71 138.87,-206.11"/>
<polygon fill="black" stroke="black" points="142.32,-205.51 137.44,-196.1 135.39,-206.5 142.32,-205.51"/>
<g id="a_edge8&#45;headlabel"><a xlink:href="dir_000005_000001.html" target="_top" xlink:title="1">
<text text-anchor="middle" x="145.64" y="-206.17" font-family="Helvetica,sans-Serif" font-size="10.00">1</text>
</a>
</g>
</g>
<!-- dir_bdc7e8131cbf0032850c465464da8867&#45;&gt;dir_af13e0a143b7ca68f7428894b6ff07d9 -->
<g id="edge7" class="edge">
<title>dir_bdc7e8131cbf0032850c465464da8867&#45;&gt;dir_af13e0a143b7ca68f7428894b6ff07d9</title>
<path fill="none" stroke="black" d="M156.05,-231.61C161.74,-221.62 168.08,-208.58 171,-196 181.94,-148.84 163.5,-93.56 149.78,-61.58"/>
<polygon fill="black" stroke="black" points="152.97,-60.16 145.71,-52.44 146.58,-63 152.97,-60.16"/>
<g id="a_edge7&#45;headlabel"><a xlink:href="dir_000005_000012.html" target="_top" xlink:title="3">
<text text-anchor="middle" x="157.03" y="-59.78" font-family="Helvetica,sans-Serif" font-size="10.00">3</text>
</a>
</g>
</g>
<!-- dir_02386abad8cd81366000917a379dc307 -->
<g id="node5" class="node">
<title>dir_02386abad8cd81366000917a379dc307</title>
<g id="a_node5"><a xlink:href="dir_02386abad8cd81366000917a379dc307.html" target="_top" xlink:title="pass">
<polygon fill="#a2b4d6" stroke="#404040" points="70,-196 16,-196 16,-160 70,-160 70,-196"/>
<text text-anchor="middle" x="43" y="-175.5" font-family="Helvetica,sans-Serif" font-size="10.00">pass</text>
</a>
</g>
</g>
<!-- dir_02386abad8cd81366000917a379dc307&#45;&gt;dir_91cc3e6bd7c42aaa24383bdfa6f52de6 -->
<g id="edge10" class="edge">
<title>dir_02386abad8cd81366000917a379dc307&#45;&gt;dir_91cc3e6bd7c42aaa24383bdfa6f52de6</title>
<path fill="none" stroke="black" d="M54.62,-159.7C60.14,-151.47 66.85,-141.48 72.93,-132.42"/>
<polygon fill="black" stroke="black" points="75.85,-134.36 78.52,-124.1 70.04,-130.46 75.85,-134.36"/>
<g id="a_edge10&#45;headlabel"><a xlink:href="dir_000009_000000.html" target="_top" xlink:title="1">
<text text-anchor="middle" x="76.2" y="-136.42" font-family="Helvetica,sans-Serif" font-size="10.00">1</text>
</a>
</g>
</g>
<!-- dir_02386abad8cd81366000917a379dc307&#45;&gt;dir_af13e0a143b7ca68f7428894b6ff07d9 -->
<g id="edge9" class="edge">
<title>dir_02386abad8cd81366000917a379dc307&#45;&gt;dir_af13e0a143b7ca68f7428894b6ff07d9</title>
<path fill="none" stroke="black" d="M41.01,-159.84C39.68,-140.79 40.21,-109.86 54,-88 64.93,-70.67 83.81,-57.96 100.8,-49.33"/>
<polygon fill="black" stroke="black" points="102.46,-52.41 109.99,-44.95 99.45,-46.1 102.46,-52.41"/>
<g id="a_edge9&#45;headlabel"><a xlink:href="dir_000009_000012.html" target="_top" xlink:title="3">
<text text-anchor="middle" x="100.44" y="-54.02" font-family="Helvetica,sans-Serif" font-size="10.00">3</text>
</a>
</g>
</g>
</g>
</svg>
