<?xml version="1.0" encoding="UTF-8" standalone="no"?>
<!DOCTYPE svg PUBLIC "-//W3C//DTD SVG 1.1//EN"
 "http://www.w3.org/Graphics/SVG/1.1/DTD/svg11.dtd">
<!-- Generated by graphviz version 2.43.0 (0)
 -->
<!-- Title: dialects/direct/direct.h Pages: 1 -->
<svg width="1310pt" height="93pt"
 viewBox="0.00 0.00 1310.00 93.00" xmlns="http://www.w3.org/2000/svg" xmlns:xlink="http://www.w3.org/1999/xlink">
<g id="graph0" class="graph" transform="scale(1 1) rotate(0) translate(4 89)">
<title>dialects/direct/direct.h</title>
<!-- Node1 -->
<g id="node1" class="node">
<title>Node1</title>
<g id="a_node1"><a xlink:title=" ">
<polygon fill="#999999" stroke="#666666" points="698.5,-85 573.5,-85 573.5,-66 698.5,-66 698.5,-85"/>
<text text-anchor="middle" x="636" y="-73" font-family="Helvetica,sans-Serif" font-size="10.00">dialects/direct/direct.h</text>
</a>
</g>
</g>
<!-- Node2 -->
<g id="node2" class="node">
<title>Node2</title>
<g id="a_node2"><a xlink:href="autodiff__rewrite__inner_8cpp.html" target="_top" xlink:title=" ">
<polygon fill="white" stroke="#666666" points="146,-30 0,-30 0,0 146,0 146,-30"/>
<text text-anchor="start" x="8" y="-18" font-family="Helvetica,sans-Serif" font-size="10.00">dialects/autodiff/auxiliary</text>
<text text-anchor="middle" x="73" y="-7" font-family="Helvetica,sans-Serif" font-size="10.00">/autodiff_rewrite_inner.cpp</text>
</a>
</g>
</g>
<!-- Node1&#45;&gt;Node2 -->
<g id="edge1" class="edge">
<title>Node1&#45;&gt;Node2</title>
<path fill="none" stroke="#63b8ff" d="M563.17,-69.51C468.78,-62.65 299.21,-48.95 155,-30 152.14,-29.62 149.22,-29.22 146.28,-28.8"/>
<polygon fill="#63b8ff" stroke="#63b8ff" points="562.96,-73.01 573.18,-70.24 563.46,-66.02 562.96,-73.01"/>
</g>
<!-- Node3 -->
<g id="node3" class="node">
<title>Node3</title>
<g id="a_node3"><a xlink:href="direct_8cpp.html" target="_top" xlink:title=" ">
<polygon fill="white" stroke="#666666" points="301.5,-24.5 164.5,-24.5 164.5,-5.5 301.5,-5.5 301.5,-24.5"/>
<text text-anchor="middle" x="233" y="-12.5" font-family="Helvetica,sans-Serif" font-size="10.00">dialects/direct/direct.cpp</text>
</a>
</g>
</g>
<!-- Node1&#45;&gt;Node3 -->
<g id="edge2" class="edge">
<title>Node1&#45;&gt;Node3</title>
<path fill="none" stroke="#63b8ff" d="M563.06,-65.48C496.91,-57.08 396.75,-43.8 310,-30 299.67,-28.36 288.58,-26.43 278.14,-24.55"/>
<polygon fill="#63b8ff" stroke="#63b8ff" points="563.02,-69 573.38,-66.79 563.9,-62.06 563.02,-69"/>
</g>
<!-- Node4 -->
<g id="node4" class="node">
<title>Node4</title>
<g id="a_node4"><a xlink:href="direct_2normalizers_8cpp.html" target="_top" xlink:title=" ">
<polygon fill="white" stroke="#666666" points="486.5,-24.5 319.5,-24.5 319.5,-5.5 486.5,-5.5 486.5,-24.5"/>
<text text-anchor="middle" x="403" y="-12.5" font-family="Helvetica,sans-Serif" font-size="10.00">dialects/direct/normalizers.cpp</text>
</a>
</g>
</g>
<!-- Node1&#45;&gt;Node4 -->
<g id="edge3" class="edge">
<title>Node1&#45;&gt;Node4</title>
<path fill="none" stroke="#63b8ff" d="M592.34,-63.54C547.3,-52.23 478.01,-34.83 436.92,-24.52"/>
<polygon fill="#63b8ff" stroke="#63b8ff" points="591.57,-66.95 602.12,-65.99 593.27,-60.16 591.57,-66.95"/>
</g>
<!-- Node5 -->
<g id="node5" class="node">
<title>Node5</title>
<g id="a_node5"><a xlink:href="cps2ds_8cpp.html" target="_top" xlink:title=" ">
<polygon fill="white" stroke="#666666" points="627,-30 505,-30 505,0 627,0 627,-30"/>
<text text-anchor="start" x="513" y="-18" font-family="Helvetica,sans-Serif" font-size="10.00">dialects/direct/passes</text>
<text text-anchor="middle" x="566" y="-7" font-family="Helvetica,sans-Serif" font-size="10.00">/cps2ds.cpp</text>
</a>
</g>
</g>
<!-- Node1&#45;&gt;Node5 -->
<g id="edge4" class="edge">
<title>Node1&#45;&gt;Node5</title>
<path fill="none" stroke="#63b8ff" d="M617.73,-59.23C606.96,-50.23 593.42,-38.91 582.89,-30.11"/>
<polygon fill="#63b8ff" stroke="#63b8ff" points="615.75,-62.14 625.67,-65.87 620.24,-56.77 615.75,-62.14"/>
</g>
<!-- Node6 -->
<g id="node6" class="node">
<title>Node6</title>
<g id="a_node6"><a xlink:href="ds2cps_8cpp.html" target="_top" xlink:title=" ">
<polygon fill="white" stroke="#666666" points="767,-30 645,-30 645,0 767,0 767,-30"/>
<text text-anchor="start" x="653" y="-18" font-family="Helvetica,sans-Serif" font-size="10.00">dialects/direct/passes</text>
<text text-anchor="middle" x="706" y="-7" font-family="Helvetica,sans-Serif" font-size="10.00">/ds2cps.cpp</text>
</a>
</g>
</g>
<!-- Node1&#45;&gt;Node6 -->
<g id="edge5" class="edge">
<title>Node1&#45;&gt;Node6</title>
<path fill="none" stroke="#63b8ff" d="M654.27,-59.23C665.04,-50.23 678.58,-38.91 689.11,-30.11"/>
<polygon fill="#63b8ff" stroke="#63b8ff" points="651.76,-56.77 646.33,-65.87 656.25,-62.14 651.76,-56.77"/>
</g>
<!-- Node7 -->
<g id="node7" class="node">
<title>Node7</title>
<g id="a_node7"><a xlink:href="lower__matrix__highlevel_8cpp.html" target="_top" xlink:title=" ">
<polygon fill="white" stroke="#666666" points="940.5,-30 785.5,-30 785.5,0 940.5,0 940.5,-30"/>
<text text-anchor="start" x="793.5" y="-18" font-family="Helvetica,sans-Serif" font-size="10.00">dialects/matrix/passes</text>
<text text-anchor="middle" x="863" y="-7" font-family="Helvetica,sans-Serif" font-size="10.00">/lower_matrix_highlevel.cpp</text>
</a>
</g>
</g>
<!-- Node1&#45;&gt;Node7 -->
<g id="edge6" class="edge">
<title>Node1&#45;&gt;Node7</title>
<path fill="none" stroke="#63b8ff" d="M678.91,-63.44C715.62,-53.98 768.69,-40.3 808.43,-30.06"/>
<polygon fill="#63b8ff" stroke="#63b8ff" points="677.82,-60.11 669.01,-65.99 679.56,-66.89 677.82,-60.11"/>
</g>
<!-- Node8 -->
<g id="node8" class="node">
<title>Node8</title>
<g id="a_node8"><a xlink:href="lower__matrix__lowlevel_8cpp.html" target="_top" xlink:title=" ">
<polygon fill="white" stroke="#666666" points="1109.5,-30 958.5,-30 958.5,0 1109.5,0 1109.5,-30"/>
<text text-anchor="start" x="966.5" y="-18" font-family="Helvetica,sans-Serif" font-size="10.00">dialects/matrix/passes</text>
<text text-anchor="middle" x="1034" y="-7" font-family="Helvetica,sans-Serif" font-size="10.00">/lower_matrix_lowlevel.cpp</text>
</a>
</g>
</g>
<!-- Node1&#45;&gt;Node8 -->
<g id="edge7" class="edge">
<title>Node1&#45;&gt;Node8</title>
<path fill="none" stroke="#63b8ff" d="M708.57,-64.73C772.26,-56.03 867.36,-42.74 950,-30 952.78,-29.57 955.6,-29.13 958.46,-28.68"/>
<polygon fill="#63b8ff" stroke="#63b8ff" points="708.06,-61.26 698.62,-66.08 709,-68.2 708.06,-61.26"/>
</g>
<!-- Node9 -->
<g id="node9" class="node">
<title>Node9</title>
<g id="a_node9"><a xlink:href="lower__matrix__mediumlevel_8cpp.html" target="_top" xlink:title=" ">
<polygon fill="white" stroke="#666666" points="1302,-30 1128,-30 1128,0 1302,0 1302,-30"/>
<text text-anchor="start" x="1136" y="-18" font-family="Helvetica,sans-Serif" font-size="10.00">dialects/matrix/passes</text>
<text text-anchor="middle" x="1215" y="-7" font-family="Helvetica,sans-Serif" font-size="10.00">/lower_matrix_mediumlevel.cpp</text>
</a>
</g>
</g>
<!-- Node1&#45;&gt;Node9 -->
<g id="edge8" class="edge">
<title>Node1&#45;&gt;Node9</title>
<path fill="none" stroke="#63b8ff" d="M708.67,-69.01C803.3,-61.59 973.78,-47.27 1119,-30 1121.93,-29.65 1124.9,-29.29 1127.91,-28.91"/>
<polygon fill="#63b8ff" stroke="#63b8ff" points="708.33,-65.53 698.63,-69.79 708.88,-72.51 708.33,-65.53"/>
</g>
</g>
</svg>
