<?xml version="1.0" encoding="UTF-8" standalone="no"?>
<!DOCTYPE svg PUBLIC "-//W3C//DTD SVG 1.1//EN"
 "http://www.w3.org/Graphics/SVG/1.1/DTD/svg11.dtd">
<!-- Generated by graphviz version 2.43.0 (0)
 -->
<!-- Title: build/include/mim/plug/direct/autogen.h Pages: 1 -->
<!--zoomable 181 -->

<svg id="main" version="1.1" xmlns="http://www.w3.org/2000/svg" xmlns:xlink="http://www.w3.org/1999/xlink" xml:space="preserve" onload="init(evt)">

<style type="text/css"><![CDATA[
.node, .edge {opacity: 0.7;}
.node.selected, .edge.selected {opacity: 1;}
.edge:hover path { stroke: red; }
.edge:hover polygon { stroke: red; fill: red; }
]]></style>

<defs>
  <circle id="rim" cx="0" cy="0" r="7"/>
  <circle id="rim2" cx="0" cy="0" r="3.5"/>
  <g id="zoomPlus">
    <use xlink:href="#rim" fill="#404040"><set attributeName="fill" to="#808080" begin="zoomplus.mouseover" end="zoomplus.mouseout"/></use>
    <path d="M-4,0h8M0,-4v8" fill="none" stroke="white" stroke-width="1.5" pointer-events="none"/>
  </g>
  <g id="zoomMin">
    <use xlink:href="#rim" fill="#404040"><set attributeName="fill" to="#808080" begin="zoomminus.mouseover" end="zoomminus.mouseout"/></use>
    <path d="M-4,0h8" fill="none" stroke="white" stroke-width="1.5" pointer-events="none"/>
  </g>
  <g id="arrowUp" transform="translate(30 24)">
    <use xlink:href="#rim"/>
    <path pointer-events="none" fill="none" stroke="white" stroke-width="1.5" d="M0,-3.0v7 M-2.5,-0.5L0,-3.0L2.5,-0.5"/>
  </g>
  <g id="arrowRight" transform="rotate(90) translate(36 -43)">
    <use xlink:href="#rim"/>
    <path pointer-events="none" fill="none" stroke="white" stroke-width="1.5" d="M0,-3.0v7 M-2.5,-0.5L0,-3.0L2.5,-0.5"/>
  </g>
  <g id="arrowDown" transform="rotate(180) translate(-30 -48)">
    <use xlink:href="#rim"/>
    <path pointer-events="none" fill="none" stroke="white" stroke-width="1.5" d="M0,-3.0v7 M-2.5,-0.5L0,-3.0L2.5,-0.5"/>
  </g>
  <g id="arrowLeft" transform="rotate(270) translate(-36 17)">
    <use xlink:href="#rim"/>
    <path pointer-events="none" fill="none" stroke="white" stroke-width="1.5" d="M0,-3.0v7 M-2.5,-0.5L0,-3.0L2.5,-0.5"/>
  </g>
  <g id="resetDef">
    <use xlink:href="#rim2" fill="#404040"><set attributeName="fill" to="#808080" begin="reset.mouseover" end="reset.mouseout"/></use>
  </g>
</defs>
<script type="application/ecmascript">
var viewWidth = 1421;
var viewHeight = 181;
var sectionId = 'dynsection-1';
</script>
<script type="application/ecmascript" xlink:href="svg.min.js"/>
<svg id="graph" class="graph">
<g id="viewport">
<title>build/include/mim/plug/direct/autogen.h</title>
<!-- Node1 -->
<g id="Node000001" class="node">
<title>Node1</title>
<g id="a_Node000001"><a xlink:title=" ">
<polygon fill="#999999" stroke="#666666" points="393.5,-173 265.5,-173 265.5,-143 393.5,-143 393.5,-173"/>
<text text-anchor="start" x="273.5" y="-161" font-family="Helvetica,sans-Serif" font-size="10.00">build/include/mim/plug</text>
<text text-anchor="middle" x="329.5" y="-150" font-family="Helvetica,sans-Serif" font-size="10.00">/direct/autogen.h</text>
</a>
</g>
</g>
<!-- Node2 -->
<g id="Node000002" class="node">
<title>Node2</title>
<g id="a_Node000002"><a xlink:href="direct_8h.html" target="_top" xlink:title=" ">
<polygon fill="white" stroke="#666666" points="604.5,-107 472.5,-107 472.5,-77 604.5,-77 604.5,-107"/>
<text text-anchor="start" x="480.5" y="-95" font-family="Helvetica,sans-Serif" font-size="10.00">include/mim/plug/direct</text>
<text text-anchor="middle" x="538.5" y="-84" font-family="Helvetica,sans-Serif" font-size="10.00">/direct.h</text>
</a>
</g>
</g>
<!-- Node1&#45;&gt;Node2 -->
<g id="edge1_Node000001_Node000002" class="edge">
<title>Node1&#45;&gt;Node2</title>
<g id="a_edge1_Node000001_Node000002"><a xlink:title=" ">
<path fill="none" stroke="#63b8ff" d="M385.05,-139.99C418.68,-129.69 461.05,-116.72 492.74,-107.01"/>
<polygon fill="#63b8ff" stroke="#63b8ff" points="383.9,-136.68 375.37,-142.95 385.95,-143.37 383.9,-136.68"/>
</a>
</g>
</g>
<!-- Node6 -->
<g id="Node000006" class="node">
<title>Node6</title>
<g id="a_Node000006"><a xlink:href="cps2ds_8cpp.html" target="_top" xlink:title=" ">
<polygon fill="white" stroke="#666666" points="111,-35.5 0,-35.5 0,-5.5 111,-5.5 111,-35.5"/>
<text text-anchor="start" x="8" y="-23.5" font-family="Helvetica,sans-Serif" font-size="10.00">src/mim/plug/direct</text>
<text text-anchor="middle" x="55.5" y="-12.5" font-family="Helvetica,sans-Serif" font-size="10.00">/pass/cps2ds.cpp</text>
</a>
</g>
</g>
<!-- Node1&#45;&gt;Node6 -->
<g id="edge11_Node000001_Node000006" class="edge">
<title>Node1&#45;&gt;Node6</title>
<g id="a_edge11_Node000001_Node000006"><a xlink:title=" ">
<path fill="none" stroke="#63b8ff" d="M291.81,-138.36C236.27,-110.9 133.69,-60.17 83.98,-35.59"/>
<polygon fill="#63b8ff" stroke="#63b8ff" points="290.44,-141.59 300.95,-142.88 293.54,-135.31 290.44,-141.59"/>
</a>
</g>
</g>
<!-- Node3 -->
<g id="Node000003" class="node">
<title>Node3</title>
<g id="a_Node000003"><a xlink:href="autodiff__rewrite__inner_8cpp.html" target="_top" xlink:title=" ">
<polygon fill="white" stroke="#666666" points="272,-41 129,-41 129,0 272,0 272,-41"/>
<text text-anchor="start" x="137" y="-29" font-family="Helvetica,sans-Serif" font-size="10.00">src/mim/plug/autodiff</text>
<text text-anchor="start" x="137" y="-18" font-family="Helvetica,sans-Serif" font-size="10.00">/auxiliary/autodiff_rewrite</text>
<text text-anchor="middle" x="200.5" y="-7" font-family="Helvetica,sans-Serif" font-size="10.00">_inner.cpp</text>
</a>
</g>
</g>
<!-- Node2&#45;&gt;Node3 -->
<g id="edge2_Node000002_Node000003" class="edge">
<title>Node2&#45;&gt;Node3</title>
<g id="a_edge2_Node000002_Node000003"><a xlink:title=" ">
<path fill="none" stroke="#63b8ff" d="M462.31,-77.09C411.07,-67.51 342.09,-54.18 281.5,-41 278.39,-40.32 275.22,-39.62 272.01,-38.9"/>
<polygon fill="#63b8ff" stroke="#63b8ff" points="461.84,-80.56 472.31,-78.95 463.12,-73.68 461.84,-80.56"/>
</a>
</g>
</g>
<!-- Node4 -->
<g id="Node000004" class="node">
<title>Node4</title>
<g id="a_Node000004"><a xlink:href="direct_8cpp.html" target="_top" xlink:title=" ">
<polygon fill="white" stroke="#666666" points="401,-35.5 290,-35.5 290,-5.5 401,-5.5 401,-35.5"/>
<text text-anchor="start" x="298" y="-23.5" font-family="Helvetica,sans-Serif" font-size="10.00">src/mim/plug/direct</text>
<text text-anchor="middle" x="345.5" y="-12.5" font-family="Helvetica,sans-Serif" font-size="10.00">/direct.cpp</text>
</a>
</g>
</g>
<!-- Node2&#45;&gt;Node4 -->
<g id="edge3_Node000002_Node000004" class="edge">
<title>Node2&#45;&gt;Node4</title>
<g id="a_edge3_Node000002_Node000004"><a xlink:title=" ">
<path fill="none" stroke="#63b8ff" d="M489.67,-73.42C457.09,-61.68 414.83,-46.47 384.5,-35.54"/>
<polygon fill="#63b8ff" stroke="#63b8ff" points="488.85,-76.84 499.44,-76.94 491.22,-70.25 488.85,-76.84"/>
</a>
</g>
</g>
<!-- Node5 -->
<g id="Node000005" class="node">
<title>Node5</title>
<g id="a_Node000005"><a xlink:href="direct_2normalizers_8cpp.html" target="_top" xlink:title=" ">
<polygon fill="white" stroke="#666666" points="530,-35.5 419,-35.5 419,-5.5 530,-5.5 530,-35.5"/>
<text text-anchor="start" x="427" y="-23.5" font-family="Helvetica,sans-Serif" font-size="10.00">src/mim/plug/direct</text>
<text text-anchor="middle" x="474.5" y="-12.5" font-family="Helvetica,sans-Serif" font-size="10.00">/normalizers.cpp</text>
</a>
</g>
</g>
<!-- Node2&#45;&gt;Node5 -->
<g id="edge4_Node000002_Node000005" class="edge">
<title>Node2&#45;&gt;Node5</title>
<g id="a_edge4_Node000002_Node000005"><a xlink:title=" ">
<path fill="none" stroke="#63b8ff" d="M518.56,-69.35C508.41,-58.33 496.36,-45.24 487.43,-35.54"/>
<polygon fill="#63b8ff" stroke="#63b8ff" points="516.2,-71.95 525.55,-76.94 521.35,-67.21 516.2,-71.95"/>
</a>
</g>
</g>
<!-- Node2&#45;&gt;Node6 -->
<g id="edge5_Node000002_Node000006" class="edge">
<title>Node2&#45;&gt;Node6</title>
<g id="a_edge5_Node000002_Node000006"><a xlink:title=" ">
<path fill="none" stroke="#63b8ff" d="M462.21,-85.97C377.73,-79.46 237.82,-65.88 119.5,-41 112.45,-39.52 105.06,-37.61 97.91,-35.57"/>
<polygon fill="#63b8ff" stroke="#63b8ff" points="462,-89.47 472.23,-86.73 462.53,-82.49 462,-89.47"/>
</a>
</g>
</g>
<!-- Node7 -->
<g id="Node000007" class="node">
<title>Node7</title>
<g id="a_Node000007"><a xlink:href="ds2cps_8cpp.html" target="_top" xlink:title=" ">
<polygon fill="white" stroke="#666666" points="659,-35.5 548,-35.5 548,-5.5 659,-5.5 659,-35.5"/>
<text text-anchor="start" x="556" y="-23.5" font-family="Helvetica,sans-Serif" font-size="10.00">src/mim/plug/direct</text>
<text text-anchor="middle" x="603.5" y="-12.5" font-family="Helvetica,sans-Serif" font-size="10.00">/pass/ds2cps.cpp</text>
</a>
</g>
</g>
<!-- Node2&#45;&gt;Node7 -->
<g id="edge6_Node000002_Node000007" class="edge">
<title>Node2&#45;&gt;Node7</title>
<g id="a_edge6_Node000002_Node000007"><a xlink:title=" ">
<path fill="none" stroke="#63b8ff" d="M558.75,-69.35C569.06,-58.33 581.3,-45.24 590.37,-35.54"/>
<polygon fill="#63b8ff" stroke="#63b8ff" points="555.93,-67.24 551.65,-76.94 561.04,-72.02 555.93,-67.24"/>
</a>
</g>
</g>
<!-- Node8 -->
<g id="Node000008" class="node">
<title>Node8</title>
<g id="a_Node000008"><a xlink:href="lower__matrix__highlevel_8cpp.html" target="_top" xlink:title=" ">
<polygon fill="white" stroke="#666666" points="857.5,-35.5 677.5,-35.5 677.5,-5.5 857.5,-5.5 857.5,-35.5"/>
<text text-anchor="start" x="685.5" y="-23.5" font-family="Helvetica,sans-Serif" font-size="10.00">src/mim/plug/matrix</text>
<text text-anchor="middle" x="767.5" y="-12.5" font-family="Helvetica,sans-Serif" font-size="10.00">/pass/lower_matrix_highlevel.cpp</text>
</a>
</g>
</g>
<!-- Node2&#45;&gt;Node8 -->
<g id="edge7_Node000002_Node000008" class="edge">
<title>Node2&#45;&gt;Node8</title>
<g id="a_edge7_Node000002_Node000008"><a xlink:title=" ">
<path fill="none" stroke="#63b8ff" d="M594.45,-74.02C633.36,-62.21 684.62,-46.65 721.23,-35.54"/>
<polygon fill="#63b8ff" stroke="#63b8ff" points="593.39,-70.68 584.84,-76.94 595.43,-77.38 593.39,-70.68"/>
</a>
</g>
</g>
<!-- Node9 -->
<g id="Node000009" class="node">
<title>Node9</title>
<g id="a_Node000009"><a xlink:href="lower__matrix__lowlevel_8cpp.html" target="_top" xlink:title=" ">
<polygon fill="white" stroke="#666666" points="1051.5,-35.5 875.5,-35.5 875.5,-5.5 1051.5,-5.5 1051.5,-35.5"/>
<text text-anchor="start" x="883.5" y="-23.5" font-family="Helvetica,sans-Serif" font-size="10.00">src/mim/plug/matrix</text>
<text text-anchor="middle" x="963.5" y="-12.5" font-family="Helvetica,sans-Serif" font-size="10.00">/pass/lower_matrix_lowlevel.cpp</text>
</a>
</g>
</g>
<!-- Node2&#45;&gt;Node9 -->
<g id="edge8_Node000002_Node000009" class="edge">
<title>Node2&#45;&gt;Node9</title>
<g id="a_edge8_Node000002_Node000009"><a xlink:title=" ">
<path fill="none" stroke="#63b8ff" d="M614.61,-80.44C681.19,-70.94 780.44,-56.2 866.5,-41 875.97,-39.33 885.94,-37.45 895.74,-35.55"/>
<polygon fill="#63b8ff" stroke="#63b8ff" points="614.02,-76.98 604.62,-81.85 615.01,-83.91 614.02,-76.98"/>
</a>
</g>
</g>
<!-- Node10 -->
<g id="Node000010" class="node">
<title>Node10</title>
<g id="a_Node000010"><a xlink:href="lower__matrix__mediumlevel_8cpp.html" target="_top" xlink:title=" ">
<polygon fill="white" stroke="#666666" points="1269.5,-35.5 1069.5,-35.5 1069.5,-5.5 1269.5,-5.5 1269.5,-35.5"/>
<text text-anchor="start" x="1077.5" y="-23.5" font-family="Helvetica,sans-Serif" font-size="10.00">src/mim/plug/matrix</text>
<text text-anchor="middle" x="1169.5" y="-12.5" font-family="Helvetica,sans-Serif" font-size="10.00">/pass/lower_matrix_mediumlevel.cpp</text>
</a>
</g>
</g>
<!-- Node2&#45;&gt;Node10 -->
<g id="edge9_Node000002_Node000010" class="edge">
<title>Node2&#45;&gt;Node10</title>
<g id="a_edge9_Node000002_Node000010"><a xlink:title=" ">
<path fill="none" stroke="#63b8ff" d="M614.82,-85.65C716.7,-78.06 902.67,-62.64 1060.5,-41 1071.93,-39.43 1083.99,-37.53 1095.75,-35.53"/>
<polygon fill="#63b8ff" stroke="#63b8ff" points="614.34,-82.18 604.62,-86.4 614.85,-89.16 614.34,-82.18"/>
</a>
</g>
</g>
<!-- Node11 -->
<g id="Node000011" class="node">
<title>Node11</title>
<g id="a_Node000011"><a xlink:href="lower__regex_8cpp.html" target="_top" xlink:title=" ">
<polygon fill="white" stroke="#666666" points="1413,-35.5 1288,-35.5 1288,-5.5 1413,-5.5 1413,-35.5"/>
<text text-anchor="start" x="1296" y="-23.5" font-family="Helvetica,sans-Serif" font-size="10.00">src/mim/plug/regex</text>
<text text-anchor="middle" x="1350.5" y="-12.5" font-family="Helvetica,sans-Serif" font-size="10.00">/pass/lower_regex.cpp</text>
</a>
</g>
</g>
<!-- Node2&#45;&gt;Node11 -->
<g id="edge10_Node000002_Node000011" class="edge">
<title>Node2&#45;&gt;Node11</title>
<g id="a_edge10_Node000002_Node000011"><a xlink:title=" ">
<path fill="none" stroke="#63b8ff" d="M614.81,-90.78C749.67,-89.3 1038.54,-81.2 1278.5,-41 1286.8,-39.61 1295.53,-37.67 1303.93,-35.54"/>
<polygon fill="#63b8ff" stroke="#63b8ff" points="614.55,-87.28 604.59,-90.88 614.62,-94.28 614.55,-87.28"/>
</a>
</g>
</g>
</g>
</svg>

<g id="navigator" transform="translate(0 0)" fill="#404254">
  <rect fill="#f2f5e9" fill-opacity="0.5" stroke="#606060" stroke-width=".5" x="0" y="0" width="60" height="60"/>
  <use id="zoomplus" xlink:href="#zoomPlus" x="17" y="9" onmousedown="handleZoom(evt,'in')"/>
  <use id="zoomminus" xlink:href="#zoomMin" x="42" y="9" onmousedown="handleZoom(evt,'out')"/>
  <use id="reset" xlink:href="#resetDef" x="30" y="36" onmousedown="handleReset()"/>
   <use id="arrowup" xlink:href="#arrowUp" x="0" y="0" onmousedown="handlePan(0,-1)"/>
  <use id="arrowright" xlink:href="#arrowRight" x="0" y="0" onmousedown="handlePan(1,0)"/>
  <use id="arrowdown" xlink:href="#arrowDown" x="0" y="0" onmousedown="handlePan(0,1)"/>
  <use id="arrowleft" xlink:href="#arrowLeft" x="0" y="0" onmousedown="handlePan(-1,0)"/>
</g>
<svg viewBox="0 0 15 15" width="100%" height="30px" preserveAspectRatio="xMaxYMin meet">
 <g id="arrow_out" transform="scale(0.3 0.3)">
  <a xlink:href="direct_2autogen_8h__dep__incl_org.svg" target="_base">
   <rect id="button" ry="5" rx="5" y="6" x="6" height="38" width="38"
        fill="#f2f5e9" fill-opacity="0.5" stroke="#606060" stroke-width="1.0"/>
   <path id="arrow"
     d="M 11.500037,31.436501 C 11.940474,20.09759 22.043105,11.32322 32.158766,21.979434 L 37.068811,17.246167 C 37.068811,17.246167 37.088388,32 37.088388,32 L 22.160133,31.978069 C 22.160133,31.978069 26.997745,27.140456 26.997745,27.140456 C 18.528582,18.264221 13.291696,25.230495 11.500037,31.436501 z"
     style="fill:#404040;"/>
  </a>
 </g>
</svg>

<style type='text/css'>
<![CDATA[
[data-mouse-over-selected='false'] { opacity: 0.7; }
[data-mouse-over-selected='true']  { opacity: 1.0; }
]]>
</style>
<script type="application/ecmascript"><![CDATA[
document.addEventListener('DOMContentLoaded', (event) => {
  highlightEdges();
  highlightAdjacentNodes();
});
]]></script>
</svg>
