<?xml version="1.0" encoding="UTF-8" standalone="no"?>
<!DOCTYPE svg PUBLIC "-//W3C//DTD SVG 1.1//EN"
 "http://www.w3.org/Graphics/SVG/1.1/DTD/svg11.dtd">
<!-- Generated by graphviz version 2.43.0 (0)
 -->
<!-- Title: thorin/util/dl.h Pages: 1 -->
<svg width="1157pt" height="263pt"
 viewBox="0.00 0.00 1157.00 263.00" xmlns="http://www.w3.org/2000/svg" xmlns:xlink="http://www.w3.org/1999/xlink">
<g id="graph0" class="graph" transform="scale(1 1) rotate(0) translate(4 259)">
<title>thorin/util/dl.h</title>
<!-- Node1 -->
<g id="node1" class="node">
<title>Node1</title>
<g id="a_node1"><a xlink:title=" ">
<polygon fill="#bfbfbf" stroke="black" points="230.5,-235.5 230.5,-254.5 315.5,-254.5 315.5,-235.5 230.5,-235.5"/>
<text text-anchor="middle" x="273" y="-242.5" font-family="Helvetica,sans-Serif" font-size="10.00">thorin/util/dl.h</text>
</a>
</g>
</g>
<!-- Node2 -->
<g id="node2" class="node">
<title>Node2</title>
<g id="a_node2"><a xlink:title=" ">
<polygon fill="none" stroke="#bfbfbf" points="131,-179.5 131,-198.5 199,-198.5 199,-179.5 131,-179.5"/>
<text text-anchor="middle" x="165" y="-186.5" font-family="Helvetica,sans-Serif" font-size="10.00">filesystem</text>
</a>
</g>
</g>
<!-- Node1&#45;&gt;Node2 -->
<g id="edge1" class="edge">
<title>Node1&#45;&gt;Node2</title>
<path fill="none" stroke="midnightblue" d="M255.65,-235.32C238.33,-226.66 211.48,-213.24 191.5,-203.25"/>
<polygon fill="midnightblue" stroke="midnightblue" points="192.82,-200 182.31,-198.65 189.69,-206.26 192.82,-200"/>
</g>
<!-- Node3 -->
<g id="node3" class="node">
<title>Node3</title>
<g id="a_node3"><a xlink:title=" ">
<polygon fill="none" stroke="#bfbfbf" points="217,-179.5 217,-198.5 273,-198.5 273,-179.5 217,-179.5"/>
<text text-anchor="middle" x="245" y="-186.5" font-family="Helvetica,sans-Serif" font-size="10.00">optional</text>
</a>
</g>
</g>
<!-- Node1&#45;&gt;Node3 -->
<g id="edge2" class="edge">
<title>Node1&#45;&gt;Node3</title>
<path fill="none" stroke="midnightblue" d="M268.38,-235.08C264.54,-227.69 258.98,-216.95 254.24,-207.81"/>
<polygon fill="midnightblue" stroke="midnightblue" points="257.25,-206.02 249.54,-198.75 251.03,-209.24 257.25,-206.02"/>
</g>
<!-- Node4 -->
<g id="node4" class="node">
<title>Node4</title>
<g id="a_node4"><a xlink:title=" ">
<polygon fill="none" stroke="#bfbfbf" points="244,-62 244,-81 288,-81 288,-62 244,-62"/>
<text text-anchor="middle" x="266" y="-69" font-family="Helvetica,sans-Serif" font-size="10.00">string</text>
</a>
</g>
</g>
<!-- Node1&#45;&gt;Node4 -->
<g id="edge3" class="edge">
<title>Node1&#45;&gt;Node4</title>
<path fill="none" stroke="midnightblue" d="M275.23,-235.45C277.46,-226.45 280.73,-211.84 282,-199 285.82,-160.41 276.92,-115.4 270.92,-90.83"/>
<polygon fill="midnightblue" stroke="midnightblue" points="274.29,-89.89 268.42,-81.07 267.51,-91.63 274.29,-89.89"/>
</g>
<!-- Node5 -->
<g id="node5" class="node">
<title>Node5</title>
<g id="a_node5"><a xlink:href="error_8h.html" target="_top" xlink:title=" ">
<polygon fill="none" stroke="black" points="415,-179.5 415,-198.5 495,-198.5 495,-179.5 415,-179.5"/>
<text text-anchor="middle" x="455" y="-186.5" font-family="Helvetica,sans-Serif" font-size="10.00">thorin/error.h</text>
</a>
</g>
</g>
<!-- Node1&#45;&gt;Node5 -->
<g id="edge4" class="edge">
<title>Node1&#45;&gt;Node5</title>
<path fill="none" stroke="midnightblue" d="M301.84,-235.44C332.86,-226.24 382.33,-211.56 416.62,-201.39"/>
<polygon fill="midnightblue" stroke="midnightblue" points="417.71,-204.72 426.3,-198.52 415.71,-198.01 417.71,-204.72"/>
</g>
<!-- Node6 -->
<g id="node6" class="node">
<title>Node6</title>
<g id="a_node6"><a xlink:title=" ">
<polygon fill="none" stroke="#bfbfbf" points="660,-62 660,-81 716,-81 716,-62 660,-62"/>
<text text-anchor="middle" x="688" y="-69" font-family="Helvetica,sans-Serif" font-size="10.00">sstream</text>
</a>
</g>
</g>
<!-- Node5&#45;&gt;Node6 -->
<g id="edge5" class="edge">
<title>Node5&#45;&gt;Node6</title>
<path fill="none" stroke="midnightblue" d="M477.68,-179.46C499.78,-170.92 534.16,-157.08 563,-143 599.73,-125.07 640.71,-101.17 665.42,-86.31"/>
<polygon fill="midnightblue" stroke="midnightblue" points="667.3,-89.26 674.05,-81.09 663.68,-83.28 667.3,-89.26"/>
</g>
<!-- Node7 -->
<g id="node7" class="node">
<title>Node7</title>
<g id="a_node7"><a xlink:title=" ">
<polygon fill="none" stroke="#bfbfbf" points="372.5,-123.5 372.5,-142.5 437.5,-142.5 437.5,-123.5 372.5,-123.5"/>
<text text-anchor="middle" x="405" y="-130.5" font-family="Helvetica,sans-Serif" font-size="10.00">stdexcept</text>
</a>
</g>
</g>
<!-- Node5&#45;&gt;Node7 -->
<g id="edge6" class="edge">
<title>Node5&#45;&gt;Node7</title>
<path fill="none" stroke="midnightblue" d="M446.74,-179.08C439.54,-171.3 428.89,-159.8 420.15,-150.37"/>
<polygon fill="midnightblue" stroke="midnightblue" points="422.47,-147.71 413.1,-142.75 417.33,-152.47 422.47,-147.71"/>
</g>
<!-- Node8 -->
<g id="node8" class="node">
<title>Node8</title>
<g id="a_node8"><a xlink:href="debug_8h.html" target="_top" xlink:title=" ">
<polygon fill="none" stroke="black" points="175.5,-123.5 175.5,-142.5 262.5,-142.5 262.5,-123.5 175.5,-123.5"/>
<text text-anchor="middle" x="219" y="-130.5" font-family="Helvetica,sans-Serif" font-size="10.00">thorin/debug.h</text>
</a>
</g>
</g>
<!-- Node5&#45;&gt;Node8 -->
<g id="edge7" class="edge">
<title>Node5&#45;&gt;Node8</title>
<path fill="none" stroke="midnightblue" d="M417.61,-179.44C376.61,-170.06 310.75,-154.99 266.22,-144.8"/>
<polygon fill="midnightblue" stroke="midnightblue" points="266.75,-141.34 256.22,-142.52 265.19,-148.16 266.75,-141.34"/>
</g>
<!-- Node11 -->
<g id="node11" class="node">
<title>Node11</title>
<g id="a_node11"><a xlink:href="print_8h.html" target="_top" xlink:title=" ">
<polygon fill="none" stroke="black" points="456,-123.5 456,-142.5 554,-142.5 554,-123.5 456,-123.5"/>
<text text-anchor="middle" x="505" y="-130.5" font-family="Helvetica,sans-Serif" font-size="10.00">thorin/util/print.h</text>
</a>
</g>
</g>
<!-- Node5&#45;&gt;Node11 -->
<g id="edge11" class="edge">
<title>Node5&#45;&gt;Node11</title>
<path fill="none" stroke="midnightblue" d="M463.26,-179.08C470.46,-171.3 481.11,-159.8 489.85,-150.37"/>
<polygon fill="midnightblue" stroke="midnightblue" points="492.67,-152.47 496.9,-142.75 487.53,-147.71 492.67,-152.47"/>
</g>
<!-- Node18 -->
<g id="node18" class="node">
<title>Node18</title>
<g id="a_node18"><a xlink:href="types_8h.html" target="_top" xlink:title=" ">
<polygon fill="none" stroke="black" points="855.5,-123.5 855.5,-142.5 958.5,-142.5 958.5,-123.5 855.5,-123.5"/>
<text text-anchor="middle" x="907" y="-130.5" font-family="Helvetica,sans-Serif" font-size="10.00">thorin/util/types.h</text>
</a>
</g>
</g>
<!-- Node5&#45;&gt;Node18 -->
<g id="edge20" class="edge">
<title>Node5&#45;&gt;Node18</title>
<path fill="none" stroke="midnightblue" d="M495.11,-183.21C574.33,-173.74 751.3,-152.6 845.41,-141.36"/>
<polygon fill="midnightblue" stroke="midnightblue" points="845.84,-144.83 855.36,-140.17 845.01,-137.88 845.84,-144.83"/>
</g>
<!-- Node8&#45;&gt;Node4 -->
<g id="edge8" class="edge">
<title>Node8&#45;&gt;Node4</title>
<path fill="none" stroke="midnightblue" d="M225.73,-123.48C232.78,-114.55 244.03,-100.31 252.85,-89.14"/>
<polygon fill="midnightblue" stroke="midnightblue" points="255.83,-91.03 259.28,-81.01 250.33,-86.69 255.83,-91.03"/>
</g>
<!-- Node9 -->
<g id="node9" class="node">
<title>Node9</title>
<g id="a_node9"><a xlink:title=" ">
<polygon fill="none" stroke="#bfbfbf" points="0,-56.5 0,-86.5 104,-86.5 104,-56.5 0,-56.5"/>
<text text-anchor="start" x="8" y="-74.5" font-family="Helvetica,sans-Serif" font-size="10.00">absl/container/flat</text>
<text text-anchor="middle" x="52" y="-63.5" font-family="Helvetica,sans-Serif" font-size="10.00">_hash_map.h</text>
</a>
</g>
</g>
<!-- Node8&#45;&gt;Node9 -->
<g id="edge9" class="edge">
<title>Node8&#45;&gt;Node9</title>
<path fill="none" stroke="midnightblue" d="M195.07,-123.48C170.66,-114.78 132.07,-101.03 101.11,-90"/>
<polygon fill="midnightblue" stroke="midnightblue" points="101.95,-86.58 91.36,-86.52 99.6,-93.18 101.95,-86.58"/>
</g>
<!-- Node10 -->
<g id="node10" class="node">
<title>Node10</title>
<g id="a_node10"><a xlink:title=" ">
<polygon fill="none" stroke="#bfbfbf" points="122,-56.5 122,-86.5 226,-86.5 226,-56.5 122,-56.5"/>
<text text-anchor="start" x="130" y="-74.5" font-family="Helvetica,sans-Serif" font-size="10.00">absl/container/flat</text>
<text text-anchor="middle" x="174" y="-63.5" font-family="Helvetica,sans-Serif" font-size="10.00">_hash_set.h</text>
</a>
</g>
</g>
<!-- Node8&#45;&gt;Node10 -->
<g id="edge10" class="edge">
<title>Node8&#45;&gt;Node10</title>
<path fill="none" stroke="midnightblue" d="M212.55,-123.48C206.86,-115.94 198.3,-104.63 190.69,-94.57"/>
<polygon fill="midnightblue" stroke="midnightblue" points="193.43,-92.39 184.61,-86.52 187.85,-96.61 193.43,-92.39"/>
</g>
<!-- Node11&#45;&gt;Node4 -->
<g id="edge17" class="edge">
<title>Node11&#45;&gt;Node4</title>
<path fill="none" stroke="midnightblue" d="M459.97,-123.49C408.24,-113.49 326.67,-97.01 297,-87 295.34,-86.44 293.64,-85.81 291.95,-85.15"/>
<polygon fill="midnightblue" stroke="midnightblue" points="293.02,-81.8 282.45,-81.03 290.23,-88.22 293.02,-81.8"/>
</g>
<!-- Node11&#45;&gt;Node6 -->
<g id="edge16" class="edge">
<title>Node11&#45;&gt;Node6</title>
<path fill="none" stroke="midnightblue" d="M535.13,-123.43C564.8,-114.82 611.31,-100.87 651,-87 653.12,-86.26 655.29,-85.47 657.48,-84.67"/>
<polygon fill="midnightblue" stroke="midnightblue" points="658.87,-87.88 666.97,-81.05 656.38,-81.34 658.87,-87.88"/>
</g>
<!-- Node12 -->
<g id="node12" class="node">
<title>Node12</title>
<g id="a_node12"><a xlink:title=" ">
<polygon fill="none" stroke="#bfbfbf" points="576.5,-62 576.5,-81 641.5,-81 641.5,-62 576.5,-62"/>
<text text-anchor="middle" x="609" y="-69" font-family="Helvetica,sans-Serif" font-size="10.00">functional</text>
</a>
</g>
</g>
<!-- Node11&#45;&gt;Node12 -->
<g id="edge12" class="edge">
<title>Node11&#45;&gt;Node12</title>
<path fill="none" stroke="midnightblue" d="M519.9,-123.48C536.97,-113.71 565.16,-97.58 585.26,-86.08"/>
<polygon fill="midnightblue" stroke="midnightblue" points="587.19,-89.01 594.13,-81.01 583.71,-82.94 587.19,-89.01"/>
</g>
<!-- Node13 -->
<g id="node13" class="node">
<title>Node13</title>
<g id="a_node13"><a xlink:title=" ">
<polygon fill="none" stroke="#bfbfbf" points="306,-62 306,-81 366,-81 366,-62 306,-62"/>
<text text-anchor="middle" x="336" y="-69" font-family="Helvetica,sans-Serif" font-size="10.00">iostream</text>
</a>
</g>
</g>
<!-- Node11&#45;&gt;Node13 -->
<g id="edge13" class="edge">
<title>Node11&#45;&gt;Node13</title>
<path fill="none" stroke="midnightblue" d="M479.53,-123.37C453.28,-114.44 411.19,-99.99 375,-87 372.76,-86.2 370.46,-85.36 368.14,-84.51"/>
<polygon fill="midnightblue" stroke="midnightblue" points="369.25,-81.19 358.65,-81.02 366.83,-87.76 369.25,-81.19"/>
</g>
<!-- Node14 -->
<g id="node14" class="node">
<title>Node14</title>
<g id="a_node14"><a xlink:title=" ">
<polygon fill="none" stroke="#bfbfbf" points="734.5,-62 734.5,-81 791.5,-81 791.5,-62 734.5,-62"/>
<text text-anchor="middle" x="763" y="-69" font-family="Helvetica,sans-Serif" font-size="10.00">ostream</text>
</a>
</g>
</g>
<!-- Node11&#45;&gt;Node14 -->
<g id="edge14" class="edge">
<title>Node11&#45;&gt;Node14</title>
<path fill="none" stroke="midnightblue" d="M554.05,-124.32C599.01,-116.73 667.17,-103.83 725,-87 727.58,-86.25 730.23,-85.4 732.88,-84.5"/>
<polygon fill="midnightblue" stroke="midnightblue" points="734.09,-87.79 742.3,-81.1 731.71,-81.2 734.09,-87.79"/>
</g>
<!-- Node15 -->
<g id="node15" class="node">
<title>Node15</title>
<g id="a_node15"><a xlink:title=" ">
<polygon fill="none" stroke="#bfbfbf" points="384,-62 384,-81 434,-81 434,-62 384,-62"/>
<text text-anchor="middle" x="409" y="-69" font-family="Helvetica,sans-Serif" font-size="10.00">ranges</text>
</a>
</g>
</g>
<!-- Node11&#45;&gt;Node15 -->
<g id="edge15" class="edge">
<title>Node11&#45;&gt;Node15</title>
<path fill="none" stroke="midnightblue" d="M491.25,-123.48C475.63,-113.8 449.94,-97.87 431.42,-86.39"/>
<polygon fill="midnightblue" stroke="midnightblue" points="433.07,-83.3 422.73,-81.01 429.38,-89.25 433.07,-83.3"/>
</g>
<!-- Node16 -->
<g id="node16" class="node">
<title>Node16</title>
<g id="a_node16"><a xlink:href="assert_8h.html" target="_top" xlink:title=" ">
<polygon fill="none" stroke="black" points="452,-62 452,-81 558,-81 558,-62 452,-62"/>
<text text-anchor="middle" x="505" y="-69" font-family="Helvetica,sans-Serif" font-size="10.00">thorin/util/assert.h</text>
</a>
</g>
</g>
<!-- Node11&#45;&gt;Node16 -->
<g id="edge18" class="edge">
<title>Node11&#45;&gt;Node16</title>
<path fill="none" stroke="midnightblue" d="M505,-123.48C505,-115.08 505,-101.98 505,-91.16"/>
<polygon fill="midnightblue" stroke="midnightblue" points="508.5,-91.01 505,-81.01 501.5,-91.01 508.5,-91.01"/>
</g>
<!-- Node17 -->
<g id="node17" class="node">
<title>Node17</title>
<g id="a_node17"><a xlink:title=" ">
<polygon fill="none" stroke="#bfbfbf" points="479,-0.5 479,-19.5 531,-19.5 531,-0.5 479,-0.5"/>
<text text-anchor="middle" x="505" y="-7.5" font-family="Helvetica,sans-Serif" font-size="10.00">cassert</text>
</a>
</g>
</g>
<!-- Node16&#45;&gt;Node17 -->
<g id="edge19" class="edge">
<title>Node16&#45;&gt;Node17</title>
<path fill="none" stroke="midnightblue" d="M505,-61.98C505,-53.58 505,-40.48 505,-29.66"/>
<polygon fill="midnightblue" stroke="midnightblue" points="508.5,-29.51 505,-19.51 501.5,-29.51 508.5,-29.51"/>
</g>
<!-- Node18&#45;&gt;Node14 -->
<g id="edge23" class="edge">
<title>Node18&#45;&gt;Node14</title>
<path fill="none" stroke="midnightblue" d="M886.37,-123.48C861.88,-113.36 820.85,-96.4 792.89,-84.85"/>
<polygon fill="midnightblue" stroke="midnightblue" points="794.17,-81.59 783.59,-81.01 791.5,-88.06 794.17,-81.59"/>
</g>
<!-- Node19 -->
<g id="node19" class="node">
<title>Node19</title>
<g id="a_node19"><a xlink:title=" ">
<polygon fill="none" stroke="#bfbfbf" points="1099,-62 1099,-81 1149,-81 1149,-62 1099,-62"/>
<text text-anchor="middle" x="1124" y="-69" font-family="Helvetica,sans-Serif" font-size="10.00">cstdint</text>
</a>
</g>
</g>
<!-- Node18&#45;&gt;Node19 -->
<g id="edge21" class="edge">
<title>Node18&#45;&gt;Node19</title>
<path fill="none" stroke="midnightblue" d="M950.08,-123.47C987.52,-115.57 1042.98,-102.69 1090,-87 1091.92,-86.36 1093.88,-85.66 1095.84,-84.92"/>
<polygon fill="midnightblue" stroke="midnightblue" points="1097.53,-88.01 1105.5,-81.03 1094.92,-81.52 1097.53,-88.01"/>
</g>
<!-- Node20 -->
<g id="node20" class="node">
<title>Node20</title>
<g id="a_node20"><a xlink:title=" ">
<polygon fill="none" stroke="#bfbfbf" points="810,-62 810,-81 854,-81 854,-62 810,-62"/>
<text text-anchor="middle" x="832" y="-69" font-family="Helvetica,sans-Serif" font-size="10.00">limits</text>
</a>
</g>
</g>
<!-- Node18&#45;&gt;Node20 -->
<g id="edge22" class="edge">
<title>Node18&#45;&gt;Node20</title>
<path fill="none" stroke="midnightblue" d="M896.25,-123.48C884.45,-114.11 865.26,-98.88 850.92,-87.51"/>
<polygon fill="midnightblue" stroke="midnightblue" points="852.74,-84.48 842.73,-81.01 848.38,-89.97 852.74,-84.48"/>
</g>
<!-- Node21 -->
<g id="node21" class="node">
<title>Node21</title>
<g id="a_node21"><a xlink:title=" ">
<polygon fill="none" stroke="#bfbfbf" points="872.5,-62 872.5,-81 941.5,-81 941.5,-62 872.5,-62"/>
<text text-anchor="middle" x="907" y="-69" font-family="Helvetica,sans-Serif" font-size="10.00">type_traits</text>
</a>
</g>
</g>
<!-- Node18&#45;&gt;Node21 -->
<g id="edge24" class="edge">
<title>Node18&#45;&gt;Node21</title>
<path fill="none" stroke="midnightblue" d="M907,-123.48C907,-115.08 907,-101.98 907,-91.16"/>
<polygon fill="midnightblue" stroke="midnightblue" points="910.5,-91.01 907,-81.01 903.5,-91.01 910.5,-91.01"/>
</g>
<!-- Node22 -->
<g id="node22" class="node">
<title>Node22</title>
<g id="a_node22"><a xlink:title=" ">
<polygon fill="none" stroke="#bfbfbf" points="959.5,-62 959.5,-81 1006.5,-81 1006.5,-62 959.5,-62"/>
<text text-anchor="middle" x="983" y="-69" font-family="Helvetica,sans-Serif" font-size="10.00">cmath</text>
</a>
</g>
</g>
<!-- Node18&#45;&gt;Node22 -->
<g id="edge25" class="edge">
<title>Node18&#45;&gt;Node22</title>
<path fill="none" stroke="midnightblue" d="M917.89,-123.48C929.97,-114.02 949.67,-98.6 964.24,-87.19"/>
<polygon fill="midnightblue" stroke="midnightblue" points="966.41,-89.93 972.13,-81.01 962.1,-84.42 966.41,-89.93"/>
</g>
<!-- Node23 -->
<g id="node23" class="node">
<title>Node23</title>
<g id="a_node23"><a xlink:title=" ">
<polygon fill="none" stroke="#bfbfbf" points="1025,-62 1025,-81 1081,-81 1081,-62 1025,-62"/>
<text text-anchor="middle" x="1053" y="-69" font-family="Helvetica,sans-Serif" font-size="10.00">half.hpp</text>
</a>
</g>
</g>
<!-- Node18&#45;&gt;Node23 -->
<g id="edge26" class="edge">
<title>Node18&#45;&gt;Node23</title>
<path fill="none" stroke="midnightblue" d="M927.92,-123.48C952.75,-113.36 994.34,-96.4 1022.69,-84.85"/>
<polygon fill="midnightblue" stroke="midnightblue" points="1024.18,-88.02 1032.12,-81.01 1021.54,-81.54 1024.18,-88.02"/>
</g>
</g>
</svg>
