<?xml version="1.0" encoding="UTF-8" standalone="no"?>
<!DOCTYPE svg PUBLIC "-//W3C//DTD SVG 1.1//EN"
 "http://www.w3.org/Graphics/SVG/1.1/DTD/svg11.dtd">
<!-- Generated by graphviz version 2.43.0 (0)
 -->
<!-- Title: src/thorin/analyses/domfrontier.cpp Pages: 1 -->
<!--zoomable 555 -->

<svg id="main" version="1.1" xmlns="http://www.w3.org/2000/svg" xmlns:xlink="http://www.w3.org/1999/xlink" xml:space="preserve" onload="init(evt)">
<style type="text/css"><![CDATA[
.node, .edge {opacity: 0.7;}
.node.selected, .edge.selected {opacity: 1;}
.edge:hover path { stroke: red; }
.edge:hover polygon { stroke: red; fill: red; }
]]></style>

<defs>
  <circle id="rim" cx="0" cy="0" r="7"/>
  <circle id="rim2" cx="0" cy="0" r="3.5"/>
  <g id="zoomPlus">
    <use xlink:href="#rim" fill="#404040"><set attributeName="fill" to="#808080" begin="zoomplus.mouseover" end="zoomplus.mouseout"/></use>
    <path d="M-4,0h8M0,-4v8" fill="none" stroke="white" stroke-width="1.5" pointer-events="none"/>
  </g>
  <g id="zoomMin">
    <use xlink:href="#rim" fill="#404040"><set attributeName="fill" to="#808080" begin="zoomminus.mouseover" end="zoomminus.mouseout"/></use>
    <path d="M-4,0h8" fill="none" stroke="white" stroke-width="1.5" pointer-events="none"/>
  </g>
  <g id="arrowUp" transform="translate(30 24)">
    <use xlink:href="#rim"/>
    <path pointer-events="none" fill="none" stroke="white" stroke-width="1.5" d="M0,-3.0v7 M-2.5,-0.5L0,-3.0L2.5,-0.5"/>
  </g>
  <g id="arrowRight" transform="rotate(90) translate(36 -43)">
    <use xlink:href="#rim"/>
    <path pointer-events="none" fill="none" stroke="white" stroke-width="1.5" d="M0,-3.0v7 M-2.5,-0.5L0,-3.0L2.5,-0.5"/>
  </g>
  <g id="arrowDown" transform="rotate(180) translate(-30 -48)">
    <use xlink:href="#rim"/>
    <path pointer-events="none" fill="none" stroke="white" stroke-width="1.5" d="M0,-3.0v7 M-2.5,-0.5L0,-3.0L2.5,-0.5"/>
  </g>
  <g id="arrowLeft" transform="rotate(270) translate(-36 17)">
    <use xlink:href="#rim"/>
    <path pointer-events="none" fill="none" stroke="white" stroke-width="1.5" d="M0,-3.0v7 M-2.5,-0.5L0,-3.0L2.5,-0.5"/>
  </g>
  <g id="resetDef">
    <use xlink:href="#rim2" fill="#404040"><set attributeName="fill" to="#808080" begin="reset.mouseover" end="reset.mouseout"/></use>
  </g>
</defs>
<script type="application/ecmascript">
var viewWidth = 1462;
var viewHeight = 555;
var sectionId = 'dynsection-0';
</script>
<script type="application/ecmascript" xlink:href="svg.min.js"/>
<svg id="graph" class="graph">
<g id="viewport">
<title>src/thorin/analyses/domfrontier.cpp</title>
<!-- Node1 -->
<g id="Node000001" class="node">
<title>Node1</title>
<g id="a_Node000001"><a xlink:title=" ">
<polygon fill="#999999" stroke="#666666" points="1174,-547 1065,-547 1065,-517 1174,-517 1174,-547"/>
<text text-anchor="start" x="1073" y="-535" font-family="Helvetica,sans-Serif" font-size="10.00">src/thorin/analyses</text>
<text text-anchor="middle" x="1119.5" y="-524" font-family="Helvetica,sans-Serif" font-size="10.00">/domfrontier.cpp</text>
</a>
</g>
</g>
<!-- Node2 -->
<g id="Node000002" class="node">
<title>Node2</title>
<g id="a_Node000002"><a xlink:href="domfrontier_8h.html" target="_top" xlink:title=" ">
<polygon fill="white" stroke="#666666" points="1115,-481 954,-481 954,-462 1115,-462 1115,-481"/>
<text text-anchor="middle" x="1034.5" y="-469" font-family="Helvetica,sans-Serif" font-size="10.00">thorin/analyses/domfrontier.h</text>
</a>
</g>
</g>
<!-- Node1&#45;&gt;Node2 -->
<g id="edge1_Node000001_Node000002" class="edge">
<title>Node1&#45;&gt;Node2</title>
<g id="a_edge1_Node000001_Node000002"><a xlink:title=" ">
<path fill="none" stroke="#63b8ff" d="M1098.92,-516.84C1085.83,-507.83 1068.91,-496.18 1055.7,-487.09"/>
<polygon fill="#63b8ff" stroke="#63b8ff" points="1057.46,-484.05 1047.24,-481.27 1053.49,-489.82 1057.46,-484.05"/>
</a>
</g>
</g>
<!-- Node44 -->
<g id="Node000044" class="node">
<title>Node44</title>
<g id="a_Node000044"><a xlink:href="domtree_8h.html" target="_top" xlink:title=" ">
<polygon fill="white" stroke="#666666" points="1278,-481 1133,-481 1133,-462 1278,-462 1278,-481"/>
<text text-anchor="middle" x="1205.5" y="-469" font-family="Helvetica,sans-Serif" font-size="10.00">thorin/analyses/domtree.h</text>
</a>
</g>
</g>
<!-- Node1&#45;&gt;Node44 -->
<g id="edge59_Node000001_Node000044" class="edge">
<title>Node1&#45;&gt;Node44</title>
<g id="a_edge59_Node000001_Node000044"><a xlink:title=" ">
<path fill="none" stroke="#63b8ff" d="M1140.32,-516.84C1153.65,-507.77 1170.89,-496.04 1184.29,-486.92"/>
<polygon fill="#63b8ff" stroke="#63b8ff" points="1186.57,-489.61 1192.87,-481.09 1182.63,-483.83 1186.57,-489.61"/>
</a>
</g>
</g>
<!-- Node3 -->
<g id="Node000003" class="node">
<title>Node3</title>
<g id="a_Node000003"><a xlink:href="cfg_8h.html" target="_top" xlink:title=" ">
<polygon fill="white" stroke="#666666" points="1179,-426 1060,-426 1060,-407 1179,-407 1179,-426"/>
<text text-anchor="middle" x="1119.5" y="-414" font-family="Helvetica,sans-Serif" font-size="10.00">thorin/analyses/cfg.h</text>
</a>
</g>
</g>
<!-- Node2&#45;&gt;Node3 -->
<g id="edge2_Node000002_Node000003" class="edge">
<title>Node2&#45;&gt;Node3</title>
<g id="a_edge2_Node000002_Node000003"><a xlink:title=" ">
<path fill="none" stroke="#63b8ff" d="M1048.16,-461.98C1061.34,-453.77 1081.53,-441.18 1097.07,-431.49"/>
<polygon fill="#63b8ff" stroke="#63b8ff" points="1098.96,-434.43 1105.59,-426.17 1095.26,-428.49 1098.96,-434.43"/>
</a>
</g>
</g>
<!-- Node4 -->
<g id="Node000004" class="node">
<title>Node4</title>
<g id="a_Node000004"><a xlink:title=" ">
<polygon fill="#e0e0e0" stroke="#999999" points="909,-371 862,-371 862,-352 909,-352 909,-371"/>
<text text-anchor="middle" x="885.5" y="-359" font-family="Helvetica,sans-Serif" font-size="10.00">vector</text>
</a>
</g>
</g>
<!-- Node3&#45;&gt;Node4 -->
<g id="edge3_Node000003_Node000004" class="edge">
<title>Node3&#45;&gt;Node4</title>
<g id="a_edge3_Node000003_Node000004"><a xlink:title=" ">
<path fill="none" stroke="#63b8ff" d="M1078.98,-406.96C1040.39,-398.72 980.42,-385.68 919.12,-371.08"/>
<polygon fill="#63b8ff" stroke="#63b8ff" points="919.81,-367.65 909.27,-368.73 918.18,-374.46 919.81,-367.65"/>
</a>
</g>
</g>
<!-- Node5 -->
<g id="Node000005" class="node">
<title>Node5</title>
<g id="a_Node000005"><a xlink:href="scope_8h.html" target="_top" xlink:title=" ">
<polygon fill="white" stroke="#666666" points="1059.5,-371 927.5,-371 927.5,-352 1059.5,-352 1059.5,-371"/>
<text text-anchor="middle" x="993.5" y="-359" font-family="Helvetica,sans-Serif" font-size="10.00">thorin/analyses/scope.h</text>
</a>
</g>
</g>
<!-- Node3&#45;&gt;Node5 -->
<g id="edge4_Node000003_Node000005" class="edge">
<title>Node3&#45;&gt;Node5</title>
<g id="a_edge4_Node000003_Node000005"><a xlink:title=" ">
<path fill="none" stroke="#63b8ff" d="M1099.26,-406.98C1078.8,-398.38 1046.97,-384.99 1023.57,-375.15"/>
<polygon fill="#63b8ff" stroke="#63b8ff" points="1024.69,-371.82 1014.11,-371.17 1021.97,-378.27 1024.69,-371.82"/>
</a>
</g>
</g>
<!-- Node17 -->
<g id="Node000017" class="node">
<title>Node17</title>
<g id="a_Node000017"><a xlink:href="print_8h.html" target="_top" xlink:title=" ">
<polygon fill="white" stroke="#666666" points="1136.5,-200.5 1038.5,-200.5 1038.5,-181.5 1136.5,-181.5 1136.5,-200.5"/>
<text text-anchor="middle" x="1087.5" y="-188.5" font-family="Helvetica,sans-Serif" font-size="10.00">thorin/util/print.h</text>
</a>
</g>
</g>
<!-- Node3&#45;&gt;Node17 -->
<g id="edge57_Node000003_Node000017" class="edge">
<title>Node3&#45;&gt;Node17</title>
<g id="a_edge57_Node000003_Node000017"><a xlink:title=" ">
<path fill="none" stroke="#63b8ff" d="M1118.25,-406.74C1113.54,-373.85 1096.85,-257.3 1090.23,-211.09"/>
<polygon fill="#63b8ff" stroke="#63b8ff" points="1093.66,-210.35 1088.78,-200.94 1086.73,-211.34 1093.66,-210.35"/>
</a>
</g>
</g>
<!-- Node40 -->
<g id="Node000040" class="node">
<title>Node40</title>
<g id="a_Node000040"><a xlink:href="span_8h.html" target="_top" xlink:title=" ">
<polygon fill="white" stroke="#666666" points="1454,-200.5 1355,-200.5 1355,-181.5 1454,-181.5 1454,-200.5"/>
<text text-anchor="middle" x="1404.5" y="-188.5" font-family="Helvetica,sans-Serif" font-size="10.00">thorin/util/span.h</text>
</a>
</g>
</g>
<!-- Node3&#45;&gt;Node40 -->
<g id="edge58_Node000003_Node000040" class="edge">
<title>Node3&#45;&gt;Node40</title>
<g id="a_edge58_Node000003_Node000040"><a xlink:title=" ">
<path fill="none" stroke="#63b8ff" d="M1179.27,-410.53C1241.17,-402 1335.78,-378.84 1386.5,-316 1410.9,-285.77 1410.02,-237.38 1407.25,-210.87"/>
<polygon fill="#63b8ff" stroke="#63b8ff" points="1410.69,-210.16 1405.98,-200.67 1403.74,-211.03 1410.69,-210.16"/>
</a>
</g>
</g>
<!-- Node42 -->
<g id="Node000042" class="node">
<title>Node42</title>
<g id="a_Node000042"><a xlink:href="indexmap_8h.html" target="_top" xlink:title=" ">
<polygon fill="white" stroke="#666666" points="1241,-316 1116,-316 1116,-297 1241,-297 1241,-316"/>
<text text-anchor="middle" x="1178.5" y="-304" font-family="Helvetica,sans-Serif" font-size="10.00">thorin/util/indexmap.h</text>
</a>
</g>
</g>
<!-- Node3&#45;&gt;Node42 -->
<g id="edge52_Node000003_Node000042" class="edge">
<title>Node3&#45;&gt;Node42</title>
<g id="a_edge52_Node000003_Node000042"><a xlink:title=" ">
<path fill="none" stroke="#63b8ff" d="M1124.33,-406.66C1134.06,-388.85 1156.18,-348.37 1168.94,-325.01"/>
<polygon fill="#63b8ff" stroke="#63b8ff" points="1172.05,-326.61 1173.77,-316.16 1165.9,-323.26 1172.05,-326.61"/>
</a>
</g>
</g>
<!-- Node43 -->
<g id="Node000043" class="node">
<title>Node43</title>
<g id="a_Node000043"><a xlink:href="indexset_8h.html" target="_top" xlink:title=" ">
<polygon fill="white" stroke="#666666" points="1377.5,-316 1259.5,-316 1259.5,-297 1377.5,-297 1377.5,-316"/>
<text text-anchor="middle" x="1318.5" y="-304" font-family="Helvetica,sans-Serif" font-size="10.00">thorin/util/indexset.h</text>
</a>
</g>
</g>
<!-- Node3&#45;&gt;Node43 -->
<g id="edge55_Node000003_Node000043" class="edge">
<title>Node3&#45;&gt;Node43</title>
<g id="a_edge55_Node000003_Node000043"><a xlink:title=" ">
<path fill="none" stroke="#63b8ff" d="M1135.45,-406.84C1170.1,-388.04 1252.48,-343.33 1293.87,-320.87"/>
<polygon fill="#63b8ff" stroke="#63b8ff" points="1295.63,-323.89 1302.75,-316.05 1292.29,-317.74 1295.63,-323.89"/>
</a>
</g>
</g>
<!-- Node6 -->
<g id="Node000006" class="node">
<title>Node6</title>
<g id="a_Node000006"><a xlink:href="def_8h.html" target="_top" xlink:title=" ">
<polygon fill="white" stroke="#666666" points="766.5,-316 694.5,-316 694.5,-297 766.5,-297 766.5,-316"/>
<text text-anchor="middle" x="730.5" y="-304" font-family="Helvetica,sans-Serif" font-size="10.00">thorin/def.h</text>
</a>
</g>
</g>
<!-- Node5&#45;&gt;Node6 -->
<g id="edge5_Node000005_Node000006" class="edge">
<title>Node5&#45;&gt;Node6</title>
<g id="a_edge5_Node000005_Node000006"><a xlink:title=" ">
<path fill="none" stroke="#63b8ff" d="M951.24,-351.98C903.53,-342.37 826.12,-326.77 776.8,-316.83"/>
<polygon fill="#63b8ff" stroke="#63b8ff" points="777.22,-313.34 766.72,-314.8 775.84,-320.21 777.22,-313.34"/>
</a>
</g>
</g>
<!-- Node5&#45;&gt;Node17 -->
<g id="edge51_Node000005_Node000017" class="edge">
<title>Node5&#45;&gt;Node17</title>
<g id="a_edge51_Node000005_Node000017"><a xlink:title=" ">
<path fill="none" stroke="#63b8ff" d="M998.29,-351.91C1013,-325.55 1057.7,-245.43 1077.67,-209.62"/>
<polygon fill="#63b8ff" stroke="#63b8ff" points="1080.79,-211.21 1082.61,-200.77 1074.68,-207.8 1080.79,-211.21"/>
</a>
</g>
</g>
<!-- Node7 -->
<g id="Node000007" class="node">
<title>Node7</title>
<g id="a_Node000007"><a xlink:title=" ">
<polygon fill="#e0e0e0" stroke="#999999" points="599.5,-134.5 543.5,-134.5 543.5,-115.5 599.5,-115.5 599.5,-134.5"/>
<text text-anchor="middle" x="571.5" y="-122.5" font-family="Helvetica,sans-Serif" font-size="10.00">optional</text>
</a>
</g>
</g>
<!-- Node6&#45;&gt;Node7 -->
<g id="edge6_Node000006_Node000007" class="edge">
<title>Node6&#45;&gt;Node7</title>
<g id="a_edge6_Node000006_Node000007"><a xlink:title=" ">
<path fill="none" stroke="#63b8ff" d="M721.78,-296.78C712.98,-287.91 699.08,-273.7 687.5,-261 649.52,-219.32 606.74,-168.47 585.31,-142.69"/>
<polygon fill="#63b8ff" stroke="#63b8ff" points="587.74,-140.14 578.66,-134.68 582.35,-144.61 587.74,-140.14"/>
</a>
</g>
</g>
<!-- Node8 -->
<g id="Node000008" class="node">
<title>Node8</title>
<g id="a_Node000008"><a xlink:title=" ">
<polygon fill="#e0e0e0" stroke="#999999" points="929.5,-134.5 861.5,-134.5 861.5,-115.5 929.5,-115.5 929.5,-134.5"/>
<text text-anchor="middle" x="895.5" y="-122.5" font-family="Helvetica,sans-Serif" font-size="10.00">fe/assert.h</text>
</a>
</g>
</g>
<!-- Node6&#45;&gt;Node8 -->
<g id="edge7_Node000006_Node000008" class="edge">
<title>Node6&#45;&gt;Node8</title>
<g id="a_edge7_Node000006_Node000008"><a xlink:title=" ">
<path fill="none" stroke="#63b8ff" d="M726.07,-296.82C720.26,-284.14 711.77,-260.09 720.5,-242 735.48,-210.96 823.83,-162.47 868.98,-139.26"/>
<polygon fill="#63b8ff" stroke="#63b8ff" points="870.85,-142.23 878.17,-134.57 867.67,-135.99 870.85,-142.23"/>
</a>
</g>
</g>
<!-- Node9 -->
<g id="Node000009" class="node">
<title>Node9</title>
<g id="a_Node000009"><a xlink:title=" ">
<polygon fill="#e0e0e0" stroke="#999999" points="789,-261 730,-261 730,-242 789,-242 789,-261"/>
<text text-anchor="middle" x="759.5" y="-249" font-family="Helvetica,sans-Serif" font-size="10.00">fe/cast.h</text>
</a>
</g>
</g>
<!-- Node6&#45;&gt;Node9 -->
<g id="edge8_Node000006_Node000009" class="edge">
<title>Node6&#45;&gt;Node9</title>
<g id="a_edge8_Node000006_Node000009"><a xlink:title=" ">
<path fill="none" stroke="#63b8ff" d="M735.29,-296.75C739.26,-289.49 745.03,-278.95 749.93,-269.98"/>
<polygon fill="#63b8ff" stroke="#63b8ff" points="753.07,-271.54 754.8,-261.09 746.93,-268.18 753.07,-271.54"/>
</a>
</g>
</g>
<!-- Node10 -->
<g id="Node000010" class="node">
<title>Node10</title>
<g id="a_Node000010"><a xlink:href="config_8h.html" target="_top" xlink:title=" ">
<polygon fill="white" stroke="#666666" points="893.5,-261 807.5,-261 807.5,-242 893.5,-242 893.5,-261"/>
<text text-anchor="middle" x="850.5" y="-249" font-family="Helvetica,sans-Serif" font-size="10.00">thorin/config.h</text>
</a>
</g>
</g>
<!-- Node6&#45;&gt;Node10 -->
<g id="edge9_Node000006_Node000010" class="edge">
<title>Node6&#45;&gt;Node10</title>
<g id="a_edge9_Node000006_Node000010"><a xlink:title=" ">
<path fill="none" stroke="#63b8ff" d="M749.78,-296.98C769.17,-288.42 799.31,-275.11 821.57,-265.28"/>
<polygon fill="#63b8ff" stroke="#63b8ff" points="823.14,-268.41 830.87,-261.17 820.31,-262.01 823.14,-268.41"/>
</a>
</g>
</g>
<!-- Node11 -->
<g id="Node000011" class="node">
<title>Node11</title>
<g id="a_Node000011"><a xlink:href="dbg_8h.html" target="_top" xlink:title=" ">
<polygon fill="white" stroke="#666666" points="1005.5,-261 911.5,-261 911.5,-242 1005.5,-242 1005.5,-261"/>
<text text-anchor="middle" x="958.5" y="-249" font-family="Helvetica,sans-Serif" font-size="10.00">thorin/util/dbg.h</text>
</a>
</g>
</g>
<!-- Node6&#45;&gt;Node11 -->
<g id="edge10_Node000006_Node000011" class="edge">
<title>Node6&#45;&gt;Node11</title>
<g id="a_edge10_Node000006_Node000011"><a xlink:title=" ">
<path fill="none" stroke="#63b8ff" d="M766.63,-297.1C805.92,-287.97 868.85,-273.34 911.85,-263.34"/>
<polygon fill="#63b8ff" stroke="#63b8ff" points="912.84,-266.71 921.79,-261.03 911.25,-259.89 912.84,-266.71"/>
</a>
</g>
</g>
<!-- Node24 -->
<g id="Node000024" class="node">
<title>Node24</title>
<g id="a_Node000024"><a xlink:href="hash_8h.html" target="_top" xlink:title=" ">
<polygon fill="white" stroke="#666666" points="99,-134.5 0,-134.5 0,-115.5 99,-115.5 99,-134.5"/>
<text text-anchor="middle" x="49.5" y="-122.5" font-family="Helvetica,sans-Serif" font-size="10.00">thorin/util/hash.h</text>
</a>
</g>
</g>
<!-- Node6&#45;&gt;Node24 -->
<g id="edge24_Node000006_Node000024" class="edge">
<title>Node6&#45;&gt;Node24</title>
<g id="a_edge24_Node000006_Node000024"><a xlink:title=" ">
<path fill="none" stroke="#63b8ff" d="M694.14,-300.76C644.22,-293.9 551.84,-279.91 474.5,-261 325.77,-224.63 153.19,-163.88 82.38,-138.13"/>
<polygon fill="#63b8ff" stroke="#63b8ff" points="83.27,-134.73 72.68,-134.59 80.87,-141.31 83.27,-134.73"/>
</a>
</g>
</g>
<!-- Node31 -->
<g id="Node000031" class="node">
<title>Node31</title>
<g id="a_Node000031"><a xlink:href="pool_8h.html" target="_top" xlink:title=" ">
<polygon fill="white" stroke="#666666" points="605,-261 508,-261 508,-242 605,-242 605,-261"/>
<text text-anchor="middle" x="556.5" y="-249" font-family="Helvetica,sans-Serif" font-size="10.00">thorin/util/pool.h</text>
</a>
</g>
</g>
<!-- Node6&#45;&gt;Node31 -->
<g id="edge32_Node000006_Node000031" class="edge">
<title>Node6&#45;&gt;Node31</title>
<g id="a_edge32_Node000006_Node000031"><a xlink:title=" ">
<path fill="none" stroke="#63b8ff" d="M702.54,-296.98C673.2,-288.05 626.9,-273.94 594.31,-264.02"/>
<polygon fill="#63b8ff" stroke="#63b8ff" points="595.26,-260.65 584.68,-261.08 593.22,-267.34 595.26,-260.65"/>
</a>
</g>
</g>
<!-- Node33 -->
<g id="Node000033" class="node">
<title>Node33</title>
<g id="a_Node000033"><a xlink:href="util_8h.html" target="_top" xlink:title=" ">
<polygon fill="white" stroke="#666666" points="494.5,-200.5 402.5,-200.5 402.5,-181.5 494.5,-181.5 494.5,-200.5"/>
<text text-anchor="middle" x="448.5" y="-188.5" font-family="Helvetica,sans-Serif" font-size="10.00">thorin/util/util.h</text>
</a>
</g>
</g>
<!-- Node6&#45;&gt;Node33 -->
<g id="edge46_Node000006_Node000033" class="edge">
<title>Node6&#45;&gt;Node33</title>
<g id="a_edge46_Node000006_Node000033"><a xlink:title=" ">
<path fill="none" stroke="#63b8ff" d="M694.25,-301.83C637.41,-295.53 530.51,-281.36 498.5,-261 479.25,-248.75 465.05,-226.22 456.8,-210.24"/>
<polygon fill="#63b8ff" stroke="#63b8ff" points="459.76,-208.33 452.24,-200.86 453.46,-211.38 459.76,-208.33"/>
</a>
</g>
</g>
<!-- Node38 -->
<g id="Node000038" class="node">
<title>Node38</title>
<g id="a_Node000038"><a xlink:href="vector_8h.html" target="_top" xlink:title=" ">
<polygon fill="white" stroke="#666666" points="1326.5,-261 1220.5,-261 1220.5,-242 1326.5,-242 1326.5,-261"/>
<text text-anchor="middle" x="1273.5" y="-249" font-family="Helvetica,sans-Serif" font-size="10.00">thorin/util/vector.h</text>
</a>
</g>
</g>
<!-- Node6&#45;&gt;Node38 -->
<g id="edge47_Node000006_Node000038" class="edge">
<title>Node6&#45;&gt;Node38</title>
<g id="a_edge47_Node000006_Node000038"><a xlink:title=" ">
<path fill="none" stroke="#63b8ff" d="M766.55,-301.98C857.26,-293.13 1095.87,-269.84 1210.4,-258.66"/>
<polygon fill="#63b8ff" stroke="#63b8ff" points="1210.81,-262.14 1220.42,-257.68 1210.13,-255.17 1210.81,-262.14"/>
</a>
</g>
</g>
<!-- Node12 -->
<g id="Node000012" class="node">
<title>Node12</title>
<g id="a_Node000012"><a xlink:title=" ">
<polygon fill="#e0e0e0" stroke="#999999" points="843.5,-140 739.5,-140 739.5,-110 843.5,-110 843.5,-140"/>
<text text-anchor="start" x="747.5" y="-128" font-family="Helvetica,sans-Serif" font-size="10.00">absl/container/flat</text>
<text text-anchor="middle" x="791.5" y="-117" font-family="Helvetica,sans-Serif" font-size="10.00">_hash_map.h</text>
</a>
</g>
</g>
<!-- Node11&#45;&gt;Node12 -->
<g id="edge11_Node000011_Node000012" class="edge">
<title>Node11&#45;&gt;Node12</title>
<g id="a_edge11_Node000011_Node000012"><a xlink:title=" ">
<path fill="none" stroke="#63b8ff" d="M911.45,-242.73C871.26,-235.1 817.76,-222.26 803.5,-206 790.23,-190.87 788.06,-167.62 788.71,-150.08"/>
<polygon fill="#63b8ff" stroke="#63b8ff" points="792.21,-150.23 789.41,-140.02 785.23,-149.75 792.21,-150.23"/>
</a>
</g>
</g>
<!-- Node13 -->
<g id="Node000013" class="node">
<title>Node13</title>
<g id="a_Node000013"><a xlink:title=" ">
<polygon fill="#e0e0e0" stroke="#999999" points="721.5,-140 617.5,-140 617.5,-110 721.5,-110 721.5,-140"/>
<text text-anchor="start" x="625.5" y="-128" font-family="Helvetica,sans-Serif" font-size="10.00">absl/container/flat</text>
<text text-anchor="middle" x="669.5" y="-117" font-family="Helvetica,sans-Serif" font-size="10.00">_hash_set.h</text>
</a>
</g>
</g>
<!-- Node11&#45;&gt;Node13 -->
<g id="edge12_Node000011_Node000013" class="edge">
<title>Node11&#45;&gt;Node13</title>
<g id="a_edge12_Node000011_Node000013"><a xlink:title=" ">
<path fill="none" stroke="#63b8ff" d="M911.39,-242.88C875.96,-236.07 826.8,-224.31 786.5,-206 752.13,-190.39 716.94,-164.76 694.25,-146.73"/>
<polygon fill="#63b8ff" stroke="#63b8ff" points="696.18,-143.78 686.2,-140.22 691.78,-149.23 696.18,-143.78"/>
</a>
</g>
</g>
<!-- Node14 -->
<g id="Node000014" class="node">
<title>Node14</title>
<g id="a_Node000014"><a xlink:title=" ">
<polygon fill="#e0e0e0" stroke="#999999" points="866,-200.5 813,-200.5 813,-181.5 866,-181.5 866,-200.5"/>
<text text-anchor="middle" x="839.5" y="-188.5" font-family="Helvetica,sans-Serif" font-size="10.00">fe/loc.h</text>
</a>
</g>
</g>
<!-- Node11&#45;&gt;Node14 -->
<g id="edge13_Node000011_Node000014" class="edge">
<title>Node11&#45;&gt;Node14</title>
<g id="a_edge13_Node000011_Node000014"><a xlink:title=" ">
<path fill="none" stroke="#63b8ff" d="M941.2,-241.99C921.45,-232.29 888.95,-216.31 866.01,-205.03"/>
<polygon fill="#63b8ff" stroke="#63b8ff" points="867.34,-201.79 856.82,-200.52 864.25,-208.07 867.34,-201.79"/>
</a>
</g>
</g>
<!-- Node15 -->
<g id="Node000015" class="node">
<title>Node15</title>
<g id="a_Node000015"><a xlink:title=" ">
<polygon fill="#e0e0e0" stroke="#999999" points="943,-200.5 884,-200.5 884,-181.5 943,-181.5 943,-200.5"/>
<text text-anchor="middle" x="913.5" y="-188.5" font-family="Helvetica,sans-Serif" font-size="10.00">fe/sym.h</text>
</a>
</g>
</g>
<!-- Node11&#45;&gt;Node15 -->
<g id="edge14_Node000011_Node000015" class="edge">
<title>Node11&#45;&gt;Node15</title>
<g id="a_edge14_Node000011_Node000015"><a xlink:title=" ">
<path fill="none" stroke="#63b8ff" d="M951.86,-241.87C945.21,-233.23 934.81,-219.7 926.51,-208.92"/>
<polygon fill="#63b8ff" stroke="#63b8ff" points="929.04,-206.46 920.17,-200.67 923.49,-210.73 929.04,-206.46"/>
</a>
</g>
</g>
<!-- Node16 -->
<g id="Node000016" class="node">
<title>Node16</title>
<g id="a_Node000016"><a xlink:title=" ">
<polygon fill="#e0e0e0" stroke="#999999" points="1020,-200.5 961,-200.5 961,-181.5 1020,-181.5 1020,-200.5"/>
<text text-anchor="middle" x="990.5" y="-188.5" font-family="Helvetica,sans-Serif" font-size="10.00">rang.hpp</text>
</a>
</g>
</g>
<!-- Node11&#45;&gt;Node16 -->
<g id="edge15_Node000011_Node000016" class="edge">
<title>Node11&#45;&gt;Node16</title>
<g id="a_edge15_Node000011_Node000016"><a xlink:title=" ">
<path fill="none" stroke="#63b8ff" d="M963.22,-241.87C967.85,-233.4 975.05,-220.24 980.89,-209.57"/>
<polygon fill="#63b8ff" stroke="#63b8ff" points="984.03,-211.12 985.76,-200.67 977.89,-207.76 984.03,-211.12"/>
</a>
</g>
</g>
<!-- Node11&#45;&gt;Node17 -->
<g id="edge16_Node000011_Node000017" class="edge">
<title>Node11&#45;&gt;Node17</title>
<g id="a_edge16_Node000011_Node000017"><a xlink:title=" ">
<path fill="none" stroke="#63b8ff" d="M977.26,-241.99C998.85,-232.2 1034.53,-216.02 1059.43,-204.73"/>
<polygon fill="#63b8ff" stroke="#63b8ff" points="1061.06,-207.83 1068.72,-200.52 1058.17,-201.46 1061.06,-207.83"/>
</a>
</g>
</g>
<!-- Node17&#45;&gt;Node8 -->
<g id="edge23_Node000017_Node000008" class="edge">
<title>Node17&#45;&gt;Node8</title>
<g id="a_edge23_Node000017_Node000008"><a xlink:title=" ">
<path fill="none" stroke="#63b8ff" d="M1061.61,-181.37C1027.87,-170.12 968.75,-150.42 930.89,-137.8"/>
<polygon fill="#63b8ff" stroke="#63b8ff" points="931.88,-134.44 921.29,-134.6 929.67,-141.08 931.88,-134.44"/>
</a>
</g>
</g>
<!-- Node18 -->
<g id="Node000018" class="node">
<title>Node18</title>
<g id="a_Node000018"><a xlink:title=" ">
<polygon fill="#e0e0e0" stroke="#999999" points="1187,-134.5 1122,-134.5 1122,-115.5 1187,-115.5 1187,-134.5"/>
<text text-anchor="middle" x="1154.5" y="-122.5" font-family="Helvetica,sans-Serif" font-size="10.00">functional</text>
</a>
</g>
</g>
<!-- Node17&#45;&gt;Node18 -->
<g id="edge17_Node000017_Node000018" class="edge">
<title>Node17&#45;&gt;Node18</title>
<g id="a_edge17_Node000017_Node000018"><a xlink:title=" ">
<path fill="none" stroke="#63b8ff" d="M1096.54,-181.37C1107.07,-171.31 1124.69,-154.48 1137.74,-142.01"/>
<polygon fill="#63b8ff" stroke="#63b8ff" points="1140.36,-144.34 1145.18,-134.91 1135.53,-139.28 1140.36,-144.34"/>
</a>
</g>
</g>
<!-- Node19 -->
<g id="Node000019" class="node">
<title>Node19</title>
<g id="a_Node000019"><a xlink:title=" ">
<polygon fill="#e0e0e0" stroke="#999999" points="1265.5,-134.5 1205.5,-134.5 1205.5,-115.5 1265.5,-115.5 1265.5,-134.5"/>
<text text-anchor="middle" x="1235.5" y="-122.5" font-family="Helvetica,sans-Serif" font-size="10.00">iostream</text>
</a>
</g>
</g>
<!-- Node17&#45;&gt;Node19 -->
<g id="edge18_Node000017_Node000019" class="edge">
<title>Node17&#45;&gt;Node19</title>
<g id="a_edge18_Node000017_Node000019"><a xlink:title=" ">
<path fill="none" stroke="#63b8ff" d="M1107.46,-181.37C1132.84,-170.39 1176.86,-151.36 1206.09,-138.72"/>
<polygon fill="#63b8ff" stroke="#63b8ff" points="1207.59,-141.88 1215.38,-134.7 1204.82,-135.46 1207.59,-141.88"/>
</a>
</g>
</g>
<!-- Node20 -->
<g id="Node000020" class="node">
<title>Node20</title>
<g id="a_Node000020"><a xlink:title=" ">
<polygon fill="#e0e0e0" stroke="#999999" points="806,-19 749,-19 749,0 806,0 806,-19"/>
<text text-anchor="middle" x="777.5" y="-7" font-family="Helvetica,sans-Serif" font-size="10.00">ostream</text>
</a>
</g>
</g>
<!-- Node17&#45;&gt;Node20 -->
<g id="edge19_Node000017_Node000020" class="edge">
<title>Node17&#45;&gt;Node20</title>
<g id="a_edge19_Node000017_Node000020"><a xlink:title=" ">
<path fill="none" stroke="#63b8ff" d="M1064.14,-181.42C1041.09,-172.51 1005.22,-157.44 976.5,-140 958.11,-128.83 956.13,-122.34 938.5,-110 891.42,-77.03 833.52,-42.67 801.56,-24.2"/>
<polygon fill="#63b8ff" stroke="#63b8ff" points="802.93,-20.95 792.51,-19 799.44,-27.02 802.93,-20.95"/>
</a>
</g>
</g>
<!-- Node21 -->
<g id="Node000021" class="node">
<title>Node21</title>
<g id="a_Node000021"><a xlink:title=" ">
<polygon fill="#e0e0e0" stroke="#999999" points="1333.5,-134.5 1283.5,-134.5 1283.5,-115.5 1333.5,-115.5 1333.5,-134.5"/>
<text text-anchor="middle" x="1308.5" y="-122.5" font-family="Helvetica,sans-Serif" font-size="10.00">ranges</text>
</a>
</g>
</g>
<!-- Node17&#45;&gt;Node21 -->
<g id="edge20_Node000017_Node000021" class="edge">
<title>Node17&#45;&gt;Node21</title>
<g id="a_edge20_Node000017_Node000021"><a xlink:title=" ">
<path fill="none" stroke="#63b8ff" d="M1125.18,-181.44C1163.25,-172.44 1223.56,-157.22 1274.5,-140 1276.12,-139.45 1277.78,-138.87 1279.44,-138.25"/>
<polygon fill="#63b8ff" stroke="#63b8ff" points="1280.84,-141.47 1288.89,-134.58 1278.3,-134.94 1280.84,-141.47"/>
</a>
</g>
</g>
<!-- Node22 -->
<g id="Node000022" class="node">
<title>Node22</title>
<g id="a_Node000022"><a xlink:title=" ">
<polygon fill="#e0e0e0" stroke="#999999" points="1041.5,-134.5 985.5,-134.5 985.5,-115.5 1041.5,-115.5 1041.5,-134.5"/>
<text text-anchor="middle" x="1013.5" y="-122.5" font-family="Helvetica,sans-Serif" font-size="10.00">sstream</text>
</a>
</g>
</g>
<!-- Node17&#45;&gt;Node22 -->
<g id="edge21_Node000017_Node000022" class="edge">
<title>Node17&#45;&gt;Node22</title>
<g id="a_edge21_Node000017_Node000022"><a xlink:title=" ">
<path fill="none" stroke="#63b8ff" d="M1077.52,-181.37C1065.78,-171.21 1046.06,-154.16 1031.6,-141.65"/>
<polygon fill="#63b8ff" stroke="#63b8ff" points="1033.65,-138.8 1023.8,-134.91 1029.07,-144.09 1033.65,-138.8"/>
</a>
</g>
</g>
<!-- Node23 -->
<g id="Node000023" class="node">
<title>Node23</title>
<g id="a_Node000023"><a xlink:title=" ">
<polygon fill="#e0e0e0" stroke="#999999" points="1103.5,-134.5 1059.5,-134.5 1059.5,-115.5 1103.5,-115.5 1103.5,-134.5"/>
<text text-anchor="middle" x="1081.5" y="-122.5" font-family="Helvetica,sans-Serif" font-size="10.00">string</text>
</a>
</g>
</g>
<!-- Node17&#45;&gt;Node23 -->
<g id="edge22_Node000017_Node000023" class="edge">
<title>Node17&#45;&gt;Node23</title>
<g id="a_edge22_Node000017_Node000023"><a xlink:title=" ">
<path fill="none" stroke="#63b8ff" d="M1086.69,-181.37C1085.82,-172.07 1084.4,-156.98 1083.27,-144.9"/>
<polygon fill="#63b8ff" stroke="#63b8ff" points="1086.75,-144.53 1082.33,-134.91 1079.78,-145.19 1086.75,-144.53"/>
</a>
</g>
</g>
<!-- Node25 -->
<g id="Node000025" class="node">
<title>Node25</title>
<g id="a_Node000025"><a xlink:href="types_8h.html" target="_top" xlink:title=" ">
<polygon fill="white" stroke="#666666" points="418,-74 315,-74 315,-55 418,-55 418,-74"/>
<text text-anchor="middle" x="366.5" y="-62" font-family="Helvetica,sans-Serif" font-size="10.00">thorin/util/types.h</text>
</a>
</g>
</g>
<!-- Node24&#45;&gt;Node25 -->
<g id="edge25_Node000024_Node000025" class="edge">
<title>Node24&#45;&gt;Node25</title>
<g id="a_edge25_Node000024_Node000025"><a xlink:title=" ">
<path fill="none" stroke="#63b8ff" d="M83.15,-115.48C91.11,-113.57 99.59,-111.63 107.5,-110 174.52,-96.17 251.92,-83.27 304.53,-74.96"/>
<polygon fill="#63b8ff" stroke="#63b8ff" points="305.38,-78.37 314.71,-73.36 304.29,-71.45 305.38,-78.37"/>
</a>
</g>
</g>
<!-- Node25&#45;&gt;Node20 -->
<g id="edge28_Node000025_Node000020" class="edge">
<title>Node25&#45;&gt;Node20</title>
<g id="a_edge28_Node000025_Node000020"><a xlink:title=" ">
<path fill="none" stroke="#63b8ff" d="M418.14,-56.84C501.57,-46.08 664.16,-25.12 738.6,-15.52"/>
<polygon fill="#63b8ff" stroke="#63b8ff" points="739.45,-18.94 748.92,-14.18 738.56,-11.99 739.45,-18.94"/>
</a>
</g>
</g>
<!-- Node26 -->
<g id="Node000026" class="node">
<title>Node26</title>
<g id="a_Node000026"><a xlink:title=" ">
<polygon fill="#e0e0e0" stroke="#999999" points="462.5,-19 412.5,-19 412.5,0 462.5,0 462.5,-19"/>
<text text-anchor="middle" x="437.5" y="-7" font-family="Helvetica,sans-Serif" font-size="10.00">cstdint</text>
</a>
</g>
</g>
<!-- Node25&#45;&gt;Node26 -->
<g id="edge26_Node000025_Node000026" class="edge">
<title>Node25&#45;&gt;Node26</title>
<g id="a_edge26_Node000025_Node000026"><a xlink:title=" ">
<path fill="none" stroke="#63b8ff" d="M377.91,-54.98C388.61,-47 404.84,-34.88 417.66,-25.31"/>
<polygon fill="#63b8ff" stroke="#63b8ff" points="419.97,-27.96 425.89,-19.17 415.78,-22.35 419.97,-27.96"/>
</a>
</g>
</g>
<!-- Node27 -->
<g id="Node000027" class="node">
<title>Node27</title>
<g id="a_Node000027"><a xlink:title=" ">
<polygon fill="#e0e0e0" stroke="#999999" points="254.5,-19 210.5,-19 210.5,0 254.5,0 254.5,-19"/>
<text text-anchor="middle" x="232.5" y="-7" font-family="Helvetica,sans-Serif" font-size="10.00">limits</text>
</a>
</g>
</g>
<!-- Node25&#45;&gt;Node27 -->
<g id="edge27_Node000025_Node000027" class="edge">
<title>Node25&#45;&gt;Node27</title>
<g id="a_edge27_Node000025_Node000027"><a xlink:title=" ">
<path fill="none" stroke="#63b8ff" d="M344.97,-54.98C323.03,-46.3 288.76,-32.75 263.81,-22.88"/>
<polygon fill="#63b8ff" stroke="#63b8ff" points="265.01,-19.59 254.42,-19.17 262.43,-26.1 265.01,-19.59"/>
</a>
</g>
</g>
<!-- Node28 -->
<g id="Node000028" class="node">
<title>Node28</title>
<g id="a_Node000028"><a xlink:title=" ">
<polygon fill="#e0e0e0" stroke="#999999" points="550,-19 481,-19 481,0 550,0 550,-19"/>
<text text-anchor="middle" x="515.5" y="-7" font-family="Helvetica,sans-Serif" font-size="10.00">type_traits</text>
</a>
</g>
</g>
<!-- Node25&#45;&gt;Node28 -->
<g id="edge29_Node000025_Node000028" class="edge">
<title>Node25&#45;&gt;Node28</title>
<g id="a_edge29_Node000025_Node000028"><a xlink:title=" ">
<path fill="none" stroke="#63b8ff" d="M390.44,-54.98C415.06,-46.23 453.62,-32.51 481.42,-22.62"/>
<polygon fill="#63b8ff" stroke="#63b8ff" points="482.88,-25.82 491.12,-19.17 480.53,-19.22 482.88,-25.82"/>
</a>
</g>
</g>
<!-- Node29 -->
<g id="Node000029" class="node">
<title>Node29</title>
<g id="a_Node000029"><a xlink:title=" ">
<polygon fill="#e0e0e0" stroke="#999999" points="320,-19 273,-19 273,0 320,0 320,-19"/>
<text text-anchor="middle" x="296.5" y="-7" font-family="Helvetica,sans-Serif" font-size="10.00">cmath</text>
</a>
</g>
</g>
<!-- Node25&#45;&gt;Node29 -->
<g id="edge30_Node000025_Node000029" class="edge">
<title>Node25&#45;&gt;Node29</title>
<g id="a_edge30_Node000025_Node000029"><a xlink:title=" ">
<path fill="none" stroke="#63b8ff" d="M355.25,-54.98C344.7,-47 328.7,-34.88 316.06,-25.31"/>
<polygon fill="#63b8ff" stroke="#63b8ff" points="318.04,-22.42 307.95,-19.17 313.81,-28 318.04,-22.42"/>
</a>
</g>
</g>
<!-- Node30 -->
<g id="Node000030" class="node">
<title>Node30</title>
<g id="a_Node000030"><a xlink:title=" ">
<polygon fill="#e0e0e0" stroke="#999999" points="394.5,-19 338.5,-19 338.5,0 394.5,0 394.5,-19"/>
<text text-anchor="middle" x="366.5" y="-7" font-family="Helvetica,sans-Serif" font-size="10.00">half.hpp</text>
</a>
</g>
</g>
<!-- Node25&#45;&gt;Node30 -->
<g id="edge31_Node000025_Node000030" class="edge">
<title>Node25&#45;&gt;Node30</title>
<g id="a_edge31_Node000025_Node000030"><a xlink:title=" ">
<path fill="none" stroke="#63b8ff" d="M366.5,-54.75C366.5,-47.8 366.5,-37.85 366.5,-29.13"/>
<polygon fill="#63b8ff" stroke="#63b8ff" points="370,-29.09 366.5,-19.09 363,-29.09 370,-29.09"/>
</a>
</g>
</g>
<!-- Node31&#45;&gt;Node13 -->
<g id="edge33_Node000031_Node000013" class="edge">
<title>Node31&#45;&gt;Node13</title>
<g id="a_edge33_Node000031_Node000013"><a xlink:title=" ">
<path fill="none" stroke="#63b8ff" d="M564.27,-241.94C581.69,-222.74 624.36,-175.73 649.69,-147.82"/>
<polygon fill="#63b8ff" stroke="#63b8ff" points="652.52,-149.92 656.65,-140.16 647.33,-145.21 652.52,-149.92"/>
</a>
</g>
</g>
<!-- Node32 -->
<g id="Node000032" class="node">
<title>Node32</title>
<g id="a_Node000032"><a xlink:title=" ">
<polygon fill="#e0e0e0" stroke="#999999" points="578.5,-200.5 512.5,-200.5 512.5,-181.5 578.5,-181.5 578.5,-200.5"/>
<text text-anchor="middle" x="545.5" y="-188.5" font-family="Helvetica,sans-Serif" font-size="10.00">fe/arena.h</text>
</a>
</g>
</g>
<!-- Node31&#45;&gt;Node32 -->
<g id="edge34_Node000031_Node000032" class="edge">
<title>Node31&#45;&gt;Node32</title>
<g id="a_edge34_Node000031_Node000032"><a xlink:title=" ">
<path fill="none" stroke="#63b8ff" d="M554.88,-241.87C553.33,-233.66 550.96,-221.04 548.99,-210.55"/>
<polygon fill="#63b8ff" stroke="#63b8ff" points="552.42,-209.85 547.13,-200.67 545.54,-211.14 552.42,-209.85"/>
</a>
</g>
</g>
<!-- Node31&#45;&gt;Node33 -->
<g id="edge35_Node000031_Node000033" class="edge">
<title>Node31&#45;&gt;Node33</title>
<g id="a_edge35_Node000031_Node000033"><a xlink:title=" ">
<path fill="none" stroke="#63b8ff" d="M540.56,-241.87C522.86,-232.28 494.04,-216.67 473.36,-205.47"/>
<polygon fill="#63b8ff" stroke="#63b8ff" points="474.96,-202.35 464.5,-200.67 471.63,-208.51 474.96,-202.35"/>
</a>
</g>
</g>
<!-- Node33&#45;&gt;Node7 -->
<g id="edge36_Node000033_Node000007" class="edge">
<title>Node33&#45;&gt;Node7</title>
<g id="a_edge36_Node000033_Node000007"><a xlink:title=" ">
<path fill="none" stroke="#63b8ff" d="M465.09,-181.37C485.81,-170.59 521.5,-152.02 545.78,-139.38"/>
<polygon fill="#63b8ff" stroke="#63b8ff" points="547.53,-142.42 554.78,-134.7 544.3,-136.21 547.53,-142.42"/>
</a>
</g>
</g>
<!-- Node33&#45;&gt;Node8 -->
<g id="edge44_Node000033_Node000008" class="edge">
<title>Node33&#45;&gt;Node8</title>
<g id="a_edge44_Node000033_Node000008"><a xlink:title=" ">
<path fill="none" stroke="#63b8ff" d="M478.59,-181.5C486.63,-179.45 495.35,-177.45 503.5,-176 657.02,-148.69 699.95,-172.32 852.5,-140 855.73,-139.32 859.05,-138.48 862.35,-137.56"/>
<polygon fill="#63b8ff" stroke="#63b8ff" points="863.53,-140.86 872.09,-134.62 861.5,-134.16 863.53,-140.86"/>
</a>
</g>
</g>
<!-- Node33&#45;&gt;Node12 -->
<g id="edge40_Node000033_Node000012" class="edge">
<title>Node33&#45;&gt;Node12</title>
<g id="a_edge40_Node000033_Node000012"><a xlink:title=" ">
<path fill="none" stroke="#63b8ff" d="M480.09,-181.43C487.72,-179.51 495.88,-177.57 503.5,-176 600.42,-156.02 628.48,-159.21 729.32,-140.14"/>
<polygon fill="#63b8ff" stroke="#63b8ff" points="730.14,-143.55 739.31,-138.23 728.83,-136.67 730.14,-143.55"/>
</a>
</g>
</g>
<!-- Node33&#45;&gt;Node13 -->
<g id="edge41_Node000033_Node000013" class="edge">
<title>Node33&#45;&gt;Node13</title>
<g id="a_edge41_Node000033_Node000013"><a xlink:title=" ">
<path fill="none" stroke="#63b8ff" d="M478.31,-181.37C512.19,-171.56 568.33,-155.3 611.04,-142.93"/>
<polygon fill="#63b8ff" stroke="#63b8ff" points="612.13,-146.26 620.76,-140.12 610.18,-139.54 612.13,-146.26"/>
</a>
</g>
</g>
<!-- Node33&#45;&gt;Node24 -->
<g id="edge45_Node000033_Node000024" class="edge">
<title>Node33&#45;&gt;Node24</title>
<g id="a_edge45_Node000033_Node000024"><a xlink:title=" ">
<path fill="none" stroke="#63b8ff" d="M402.5,-184.61C336.78,-176.6 212.36,-160.3 107.5,-140 102.67,-139.06 97.63,-137.99 92.64,-136.87"/>
<polygon fill="#63b8ff" stroke="#63b8ff" points="93.04,-133.37 82.51,-134.52 91.46,-140.19 93.04,-133.37"/>
</a>
</g>
</g>
<!-- Node33&#45;&gt;Node28 -->
<g id="edge39_Node000033_Node000028" class="edge">
<title>Node33&#45;&gt;Node28</title>
<g id="a_edge39_Node000033_Node000028"><a xlink:title=" ">
<path fill="none" stroke="#63b8ff" d="M459.85,-181.41C470.87,-172.38 487.14,-157.13 495.5,-140 513.22,-103.67 515.98,-55.38 516.01,-29.24"/>
<polygon fill="#63b8ff" stroke="#63b8ff" points="519.51,-29.15 515.88,-19.2 512.51,-29.24 519.51,-29.15"/>
</a>
</g>
</g>
<!-- Node34 -->
<g id="Node000034" class="node">
<title>Node34</title>
<g id="a_Node000034"><a xlink:title=" ">
<polygon fill="#e0e0e0" stroke="#999999" points="164,-134.5 117,-134.5 117,-115.5 164,-115.5 164,-134.5"/>
<text text-anchor="middle" x="140.5" y="-122.5" font-family="Helvetica,sans-Serif" font-size="10.00">queue</text>
</a>
</g>
</g>
<!-- Node33&#45;&gt;Node34 -->
<g id="edge37_Node000033_Node000034" class="edge">
<title>Node33&#45;&gt;Node34</title>
<g id="a_edge37_Node000033_Node000034"><a xlink:title=" ">
<path fill="none" stroke="#63b8ff" d="M402.3,-184.97C346.85,-178.18 251.46,-164.06 172.5,-140 170.86,-139.5 169.2,-138.94 167.54,-138.34"/>
<polygon fill="#63b8ff" stroke="#63b8ff" points="168.75,-135.06 158.16,-134.6 166.15,-141.56 168.75,-135.06"/>
</a>
</g>
</g>
<!-- Node35 -->
<g id="Node000035" class="node">
<title>Node35</title>
<g id="a_Node000035"><a xlink:title=" ">
<polygon fill="#e0e0e0" stroke="#999999" points="225,-134.5 182,-134.5 182,-115.5 225,-115.5 225,-134.5"/>
<text text-anchor="middle" x="203.5" y="-122.5" font-family="Helvetica,sans-Serif" font-size="10.00">stack</text>
</a>
</g>
</g>
<!-- Node33&#45;&gt;Node35 -->
<g id="edge38_Node000033_Node000035" class="edge">
<title>Node33&#45;&gt;Node35</title>
<g id="a_edge38_Node000033_Node000035"><a xlink:title=" ">
<path fill="none" stroke="#63b8ff" d="M402.42,-182.16C358.35,-174 290.37,-159.64 233.5,-140 232.28,-139.58 231.04,-139.12 229.79,-138.64"/>
<polygon fill="#63b8ff" stroke="#63b8ff" points="230.95,-135.33 220.38,-134.62 228.2,-141.77 230.95,-135.33"/>
</a>
</g>
</g>
<!-- Node36 -->
<g id="Node000036" class="node">
<title>Node36</title>
<g id="a_Node000036"><a xlink:title=" ">
<polygon fill="#e0e0e0" stroke="#999999" points="356,-140 243,-140 243,-110 356,-110 356,-140"/>
<text text-anchor="start" x="251" y="-128" font-family="Helvetica,sans-Serif" font-size="10.00">absl/container/node</text>
<text text-anchor="middle" x="299.5" y="-117" font-family="Helvetica,sans-Serif" font-size="10.00">_hash_map.h</text>
</a>
</g>
</g>
<!-- Node33&#45;&gt;Node36 -->
<g id="edge42_Node000033_Node000036" class="edge">
<title>Node33&#45;&gt;Node36</title>
<g id="a_edge42_Node000033_Node000036"><a xlink:title=" ">
<path fill="none" stroke="#63b8ff" d="M428.41,-181.37C406.28,-171.87 370.08,-156.32 341.67,-144.11"/>
<polygon fill="#63b8ff" stroke="#63b8ff" points="342.93,-140.85 332.36,-140.12 340.17,-147.28 342.93,-140.85"/>
</a>
</g>
</g>
<!-- Node37 -->
<g id="Node000037" class="node">
<title>Node37</title>
<g id="a_Node000037"><a xlink:title=" ">
<polygon fill="#e0e0e0" stroke="#999999" points="487,-140 374,-140 374,-110 487,-110 487,-140"/>
<text text-anchor="start" x="382" y="-128" font-family="Helvetica,sans-Serif" font-size="10.00">absl/container/node</text>
<text text-anchor="middle" x="430.5" y="-117" font-family="Helvetica,sans-Serif" font-size="10.00">_hash_set.h</text>
</a>
</g>
</g>
<!-- Node33&#45;&gt;Node37 -->
<g id="edge43_Node000033_Node000037" class="edge">
<title>Node33&#45;&gt;Node37</title>
<g id="a_edge43_Node000033_Node000037"><a xlink:title=" ">
<path fill="none" stroke="#63b8ff" d="M446.07,-181.37C443.83,-173.4 440.4,-161.2 437.32,-150.27"/>
<polygon fill="#63b8ff" stroke="#63b8ff" points="440.62,-149.04 434.54,-140.36 433.88,-150.93 440.62,-149.04"/>
</a>
</g>
</g>
<!-- Node39 -->
<g id="Node000039" class="node">
<title>Node39</title>
<g id="a_Node000039"><a xlink:title=" ">
<polygon fill="#e0e0e0" stroke="#999999" points="1334.5,-206 1212.5,-206 1212.5,-176 1334.5,-176 1334.5,-206"/>
<text text-anchor="start" x="1220.5" y="-194" font-family="Helvetica,sans-Serif" font-size="10.00">absl/container/inlined</text>
<text text-anchor="middle" x="1273.5" y="-183" font-family="Helvetica,sans-Serif" font-size="10.00">_vector.h</text>
</a>
</g>
</g>
<!-- Node38&#45;&gt;Node39 -->
<g id="edge48_Node000038_Node000039" class="edge">
<title>Node38&#45;&gt;Node39</title>
<g id="a_edge48_Node000038_Node000039"><a xlink:title=" ">
<path fill="none" stroke="#63b8ff" d="M1273.5,-241.87C1273.5,-235.11 1273.5,-225.35 1273.5,-216.26"/>
<polygon fill="#63b8ff" stroke="#63b8ff" points="1277,-216.11 1273.5,-206.11 1270,-216.11 1277,-216.11"/>
</a>
</g>
</g>
<!-- Node38&#45;&gt;Node40 -->
<g id="edge49_Node000038_Node000040" class="edge">
<title>Node38&#45;&gt;Node40</title>
<g id="a_edge49_Node000038_Node000040"><a xlink:title=" ">
<path fill="none" stroke="#63b8ff" d="M1292.55,-241.99C1314.47,-232.2 1350.71,-216.02 1376,-204.73"/>
<polygon fill="#63b8ff" stroke="#63b8ff" points="1377.72,-207.79 1385.43,-200.52 1374.87,-201.4 1377.72,-207.79"/>
</a>
</g>
</g>
<!-- Node41 -->
<g id="Node000041" class="node">
<title>Node41</title>
<g id="a_Node000041"><a xlink:title=" ">
<polygon fill="#e0e0e0" stroke="#999999" points="1424.5,-134.5 1384.5,-134.5 1384.5,-115.5 1424.5,-115.5 1424.5,-134.5"/>
<text text-anchor="middle" x="1404.5" y="-122.5" font-family="Helvetica,sans-Serif" font-size="10.00">span</text>
</a>
</g>
</g>
<!-- Node40&#45;&gt;Node41 -->
<g id="edge50_Node000040_Node000041" class="edge">
<title>Node40&#45;&gt;Node41</title>
<g id="a_edge50_Node000040_Node000041"><a xlink:title=" ">
<path fill="none" stroke="#63b8ff" d="M1404.5,-181.37C1404.5,-172.16 1404.5,-157.29 1404.5,-145.27"/>
<polygon fill="#63b8ff" stroke="#63b8ff" points="1408,-144.91 1404.5,-134.91 1401,-144.91 1408,-144.91"/>
</a>
</g>
</g>
<!-- Node42&#45;&gt;Node21 -->
<g id="edge53_Node000042_Node000021" class="edge">
<title>Node42&#45;&gt;Node21</title>
<g id="a_edge53_Node000042_Node000021"><a xlink:title=" ">
<path fill="none" stroke="#63b8ff" d="M1177.69,-296.88C1176.04,-274.43 1174.63,-213.31 1203.5,-176 1208.5,-169.54 1249.08,-151.29 1278.3,-138.72"/>
<polygon fill="#63b8ff" stroke="#63b8ff" points="1279.88,-141.85 1287.7,-134.7 1277.13,-135.42 1279.88,-141.85"/>
</a>
</g>
</g>
<!-- Node42&#45;&gt;Node38 -->
<g id="edge54_Node000042_Node000038" class="edge">
<title>Node42&#45;&gt;Node38</title>
<g id="a_edge54_Node000042_Node000038"><a xlink:title=" ">
<path fill="none" stroke="#63b8ff" d="M1193.76,-296.98C1208.63,-288.69 1231.48,-275.94 1248.92,-266.22"/>
<polygon fill="#63b8ff" stroke="#63b8ff" points="1250.93,-269.1 1257.96,-261.17 1247.52,-262.99 1250.93,-269.1"/>
</a>
</g>
</g>
<!-- Node43&#45;&gt;Node38 -->
<g id="edge56_Node000043_Node000038" class="edge">
<title>Node43&#45;&gt;Node38</title>
<g id="a_edge56_Node000043_Node000038"><a xlink:title=" ">
<path fill="none" stroke="#63b8ff" d="M1311.07,-296.75C1304.65,-289.18 1295.19,-278.05 1287.38,-268.84"/>
<polygon fill="#63b8ff" stroke="#63b8ff" points="1289.93,-266.45 1280.79,-261.09 1284.6,-270.98 1289.93,-266.45"/>
</a>
</g>
</g>
<!-- Node44&#45;&gt;Node3 -->
<g id="edge60_Node000044_Node000003" class="edge">
<title>Node44&#45;&gt;Node3</title>
<g id="a_edge60_Node000044_Node000003"><a xlink:title=" ">
<path fill="none" stroke="#63b8ff" d="M1191.68,-461.98C1178.35,-453.77 1157.92,-441.18 1142.19,-431.49"/>
<polygon fill="#63b8ff" stroke="#63b8ff" points="1143.92,-428.44 1133.57,-426.17 1140.25,-434.4 1143.92,-428.44"/>
</a>
</g>
</g>
</g>
</svg>

<g id="navigator" transform="translate(0 0)" fill="#404254">
  <rect fill="#f2f5e9" fill-opacity="0.5" stroke="#606060" stroke-width=".5" x="0" y="0" width="60" height="60"/>
  <use id="zoomplus" xlink:href="#zoomPlus" x="17" y="9" onmousedown="handleZoom(evt,'in')"/>
  <use id="zoomminus" xlink:href="#zoomMin" x="42" y="9" onmousedown="handleZoom(evt,'out')"/>
  <use id="reset" xlink:href="#resetDef" x="30" y="36" onmousedown="handleReset()"/>
   <use id="arrowup" xlink:href="#arrowUp" x="0" y="0" onmousedown="handlePan(0,-1)"/>
  <use id="arrowright" xlink:href="#arrowRight" x="0" y="0" onmousedown="handlePan(1,0)"/>
  <use id="arrowdown" xlink:href="#arrowDown" x="0" y="0" onmousedown="handlePan(0,1)"/>
  <use id="arrowleft" xlink:href="#arrowLeft" x="0" y="0" onmousedown="handlePan(-1,0)"/>
</g>
<svg viewBox="0 0 15 15" width="100%" height="30px" preserveAspectRatio="xMaxYMin meet">
 <g id="arrow_out" transform="scale(0.3 0.3)">
  <a xlink:href="domfrontier_8cpp__incl_org.svg" target="_base">
   <rect id="button" ry="5" rx="5" y="6" x="6" height="38" width="38"
        fill="#f2f5e9" fill-opacity="0.5" stroke="#606060" stroke-width="1.0"/>
   <path id="arrow"
     d="M 11.500037,31.436501 C 11.940474,20.09759 22.043105,11.32322 32.158766,21.979434 L 37.068811,17.246167 C 37.068811,17.246167 37.088388,32 37.088388,32 L 22.160133,31.978069 C 22.160133,31.978069 26.997745,27.140456 26.997745,27.140456 C 18.528582,18.264221 13.291696,25.230495 11.500037,31.436501 z"
     style="fill:#404040;"/>
  </a>
 </g>
</svg>

<style type='text/css'>
<![CDATA[
[data-mouse-over-selected='false'] { opacity: 0.7; }
[data-mouse-over-selected='true']  { opacity: 1.0; }
]]>
</style>
<script type="application/ecmascript"><![CDATA[
document.addEventListener('DOMContentLoaded', (event) => {
  highlightEdges();
  highlightAdjacentNodes();
});
]]></script>
</svg>
