<?xml version="1.0" encoding="UTF-8" standalone="no"?>
<!DOCTYPE svg PUBLIC "-//W3C//DTD SVG 1.1//EN"
 "http://www.w3.org/Graphics/SVG/1.1/DTD/svg11.dtd">
<!-- Generated by graphviz version 2.50.0 (20220203.2022)
 -->
<!-- Title: src/thorin/analyses/domtree.h Pages: 1 -->
<svg width="1421pt" height="431pt"
 viewBox="0.00 0.00 1420.76 431.00" xmlns="http://www.w3.org/2000/svg" xmlns:xlink="http://www.w3.org/1999/xlink">
<g id="graph0" class="graph" transform="scale(1 1) rotate(0) translate(4 427)">
<title>src/thorin/analyses/domtree.h</title>
<!-- Node1 -->
<g id="node1" class="node">
<title>Node1</title>
<g id="a_node1"><a xlink:title=" ">
<polygon fill="#bfbfbf" stroke="black" points="592.76,-392.5 592.76,-422.5 690.76,-422.5 690.76,-392.5 592.76,-392.5"/>
<text text-anchor="start" x="600.76" y="-410.5" font-family="Helvetica,sans-Serif" font-size="10.00">src/thorin/analyses</text>
<text text-anchor="middle" x="641.76" y="-399.5" font-family="Helvetica,sans-Serif" font-size="10.00">/domtree.h</text>
</a>
</g>
</g>
<!-- Node2 -->
<g id="node2" class="node">
<title>Node2</title>
<g id="a_node2"><a xlink:href="cfg_8h.html" target="_top" xlink:title=" ">
<polygon fill="none" stroke="black" points="588.76,-336.5 588.76,-355.5 694.76,-355.5 694.76,-336.5 588.76,-336.5"/>
<text text-anchor="middle" x="641.76" y="-343.5" font-family="Helvetica,sans-Serif" font-size="10.00">thorin/analyses/cfg.h</text>
</a>
</g>
</g>
<!-- Node1&#45;&gt;Node2 -->
<g id="edge1" class="edge">
<title>Node1&#45;&gt;Node2</title>
<path fill="none" stroke="midnightblue" d="M641.76,-392.4C641.76,-384.47 641.76,-374.46 641.76,-365.86"/>
<polygon fill="midnightblue" stroke="midnightblue" points="645.26,-365.66 641.76,-355.66 638.26,-365.66 645.26,-365.66"/>
</g>
<!-- Node3 -->
<g id="node3" class="node">
<title>Node3</title>
<g id="a_node3"><a xlink:title=" ">
<polygon fill="none" stroke="#bfbfbf" points="526.76,-112.5 526.76,-131.5 570.76,-131.5 570.76,-112.5 526.76,-112.5"/>
<text text-anchor="middle" x="548.76" y="-119.5" font-family="Helvetica,sans-Serif" font-size="10.00">vector</text>
</a>
</g>
</g>
<!-- Node2&#45;&gt;Node3 -->
<g id="edge2" class="edge">
<title>Node2&#45;&gt;Node3</title>
<path fill="none" stroke="midnightblue" d="M636.67,-336.19C631.58,-327.23 623.68,-312.87 617.76,-300 591.65,-243.19 566.38,-173.46 555.02,-141.09"/>
<polygon fill="midnightblue" stroke="midnightblue" points="558.31,-139.91 551.72,-131.62 551.7,-142.22 558.31,-139.91"/>
</g>
<!-- Node4 -->
<g id="node4" class="node">
<title>Node4</title>
<g id="a_node4"><a xlink:href="scope_8h.html" target="_top" xlink:title=" ">
<polygon fill="none" stroke="black" points="626.26,-280.5 626.26,-299.5 745.26,-299.5 745.26,-280.5 626.26,-280.5"/>
<text text-anchor="middle" x="685.76" y="-287.5" font-family="Helvetica,sans-Serif" font-size="10.00">thorin/analyses/scope.h</text>
</a>
</g>
</g>
<!-- Node2&#45;&gt;Node4 -->
<g id="edge3" class="edge">
<title>Node2&#45;&gt;Node4</title>
<path fill="none" stroke="midnightblue" d="M649.03,-336.08C655.31,-328.38 664.55,-317.03 672.19,-307.65"/>
<polygon fill="midnightblue" stroke="midnightblue" points="675.03,-309.71 678.63,-299.75 669.6,-305.29 675.03,-309.71"/>
</g>
<!-- Node23 -->
<g id="node23" class="node">
<title>Node23</title>
<g id="a_node23"><a xlink:href="stream_8h.html" target="_top" xlink:title=" ">
<polygon fill="none" stroke="black" points="1209.26,-56.5 1209.26,-75.5 1306.26,-75.5 1306.26,-56.5 1209.26,-56.5"/>
<text text-anchor="middle" x="1257.76" y="-63.5" font-family="Helvetica,sans-Serif" font-size="10.00">thorin/util/stream.h</text>
</a>
</g>
</g>
<!-- Node2&#45;&gt;Node23 -->
<g id="edge70" class="edge">
<title>Node2&#45;&gt;Node23</title>
<path fill="none" stroke="midnightblue" d="M694.77,-345.51C839.02,-345.64 1233.11,-337.28 1312.76,-244 1353.81,-195.93 1299.47,-117.41 1271.97,-83.48"/>
<polygon fill="midnightblue" stroke="midnightblue" points="1274.42,-80.94 1265.33,-75.5 1269.04,-85.42 1274.42,-80.94"/>
</g>
<!-- Node34 -->
<g id="node34" class="node">
<title>Node34</title>
<g id="a_node34"><a xlink:href="array_8h.html" target="_top" xlink:title=" ">
<polygon fill="none" stroke="black" points="393.76,-168.5 393.76,-187.5 481.76,-187.5 481.76,-168.5 393.76,-168.5"/>
<text text-anchor="middle" x="437.76" y="-175.5" font-family="Helvetica,sans-Serif" font-size="10.00">thorin/util/array.h</text>
</a>
</g>
</g>
<!-- Node2&#45;&gt;Node34 -->
<g id="edge64" class="edge">
<title>Node2&#45;&gt;Node34</title>
<path fill="none" stroke="midnightblue" d="M588.37,-338.51C540.54,-331.57 475.31,-318.94 457.76,-300 431.92,-272.11 432.4,-224.25 435.05,-197.86"/>
<polygon fill="midnightblue" stroke="midnightblue" points="438.56,-198.03 436.3,-187.68 431.61,-197.18 438.56,-198.03"/>
</g>
<!-- Node41 -->
<g id="node41" class="node">
<title>Node41</title>
<g id="a_node41"><a xlink:href="indexmap_8h.html" target="_top" xlink:title=" ">
<polygon fill="none" stroke="black" points="1195.76,-224.5 1195.76,-243.5 1303.76,-243.5 1303.76,-224.5 1195.76,-224.5"/>
<text text-anchor="middle" x="1249.76" y="-231.5" font-family="Helvetica,sans-Serif" font-size="10.00">thorin/util/indexmap.h</text>
</a>
</g>
</g>
<!-- Node2&#45;&gt;Node41 -->
<g id="edge65" class="edge">
<title>Node2&#45;&gt;Node41</title>
<path fill="none" stroke="midnightblue" d="M688.97,-336.46C799.17,-316.52 1073.1,-266.96 1192.55,-245.35"/>
<polygon fill="midnightblue" stroke="midnightblue" points="1193.37,-248.76 1202.59,-243.53 1192.13,-241.87 1193.37,-248.76"/>
</g>
<!-- Node42 -->
<g id="node42" class="node">
<title>Node42</title>
<g id="a_node42"><a xlink:href="indexset_8h.html" target="_top" xlink:title=" ">
<polygon fill="none" stroke="black" points="466.26,-280.5 466.26,-299.5 569.26,-299.5 569.26,-280.5 466.26,-280.5"/>
<text text-anchor="middle" x="517.76" y="-287.5" font-family="Helvetica,sans-Serif" font-size="10.00">thorin/util/indexset.h</text>
</a>
</g>
</g>
<!-- Node2&#45;&gt;Node42 -->
<g id="edge68" class="edge">
<title>Node2&#45;&gt;Node42</title>
<path fill="none" stroke="midnightblue" d="M622.11,-336.44C601.8,-327.6 569.86,-313.69 546.67,-303.59"/>
<polygon fill="midnightblue" stroke="midnightblue" points="547.88,-300.3 537.32,-299.52 545.09,-306.72 547.88,-300.3"/>
</g>
<!-- Node5 -->
<g id="node5" class="node">
<title>Node5</title>
<g id="a_node5"><a xlink:href="def_8h.html" target="_top" xlink:title=" ">
<polygon fill="none" stroke="black" points="652.26,-224.5 652.26,-243.5 717.26,-243.5 717.26,-224.5 652.26,-224.5"/>
<text text-anchor="middle" x="684.76" y="-231.5" font-family="Helvetica,sans-Serif" font-size="10.00">thorin/def.h</text>
</a>
</g>
</g>
<!-- Node4&#45;&gt;Node5 -->
<g id="edge4" class="edge">
<title>Node4&#45;&gt;Node5</title>
<path fill="none" stroke="midnightblue" d="M685.6,-280.08C685.47,-273.01 685.28,-262.86 685.11,-253.99"/>
<polygon fill="midnightblue" stroke="midnightblue" points="688.61,-253.68 684.92,-243.75 681.61,-253.81 688.61,-253.68"/>
</g>
<!-- Node4&#45;&gt;Node23 -->
<g id="edge63" class="edge">
<title>Node4&#45;&gt;Node23</title>
<path fill="none" stroke="midnightblue" d="M745.58,-282.49C860.64,-269.04 1107.6,-235.44 1177.76,-188 1215.7,-162.35 1240.11,-112.08 1251.07,-85.11"/>
<polygon fill="midnightblue" stroke="midnightblue" points="1254.36,-86.31 1254.72,-75.72 1247.83,-83.77 1254.36,-86.31"/>
</g>
<!-- Node5&#45;&gt;Node3 -->
<g id="edge6" class="edge">
<title>Node5&#45;&gt;Node3</title>
<path fill="none" stroke="midnightblue" d="M675.59,-224.25C662.02,-211.45 635.63,-187.06 611.76,-168 598.24,-157.2 582.38,-145.88 569.96,-137.3"/>
<polygon fill="midnightblue" stroke="midnightblue" points="571.84,-134.34 561.61,-131.58 567.88,-140.11 571.84,-134.34"/>
</g>
<!-- Node6 -->
<g id="node6" class="node">
<title>Node6</title>
<g id="a_node6"><a xlink:title=" ">
<polygon fill="none" stroke="#bfbfbf" points="86.76,-56.5 86.76,-75.5 136.76,-75.5 136.76,-56.5 86.76,-56.5"/>
<text text-anchor="middle" x="111.76" y="-63.5" font-family="Helvetica,sans-Serif" font-size="10.00">optional</text>
</a>
</g>
</g>
<!-- Node5&#45;&gt;Node6 -->
<g id="edge5" class="edge">
<title>Node5&#45;&gt;Node6</title>
<path fill="none" stroke="midnightblue" d="M652.26,-232.41C561.65,-230.36 307.98,-221.68 232.76,-188 182.31,-165.41 141.28,-111.74 122.62,-84.1"/>
<polygon fill="midnightblue" stroke="midnightblue" points="125.39,-81.94 116.98,-75.5 119.54,-85.78 125.39,-81.94"/>
</g>
<!-- Node7 -->
<g id="node7" class="node">
<title>Node7</title>
<g id="a_node7"><a xlink:href="debug_8h.html" target="_top" xlink:title=" ">
<polygon fill="none" stroke="black" points="1068.26,-168.5 1068.26,-187.5 1145.26,-187.5 1145.26,-168.5 1068.26,-168.5"/>
<text text-anchor="middle" x="1106.76" y="-175.5" font-family="Helvetica,sans-Serif" font-size="10.00">thorin/debug.h</text>
</a>
</g>
</g>
<!-- Node5&#45;&gt;Node7 -->
<g id="edge7" class="edge">
<title>Node5&#45;&gt;Node7</title>
<path fill="none" stroke="midnightblue" d="M717.41,-229.54C781.84,-222.59 929.87,-206.06 1053.76,-188 1055.06,-187.81 1056.38,-187.61 1057.7,-187.41"/>
<polygon fill="midnightblue" stroke="midnightblue" points="1058.67,-190.81 1068.01,-185.8 1057.59,-183.89 1058.67,-190.81"/>
</g>
<!-- Node10 -->
<g id="node10" class="node">
<title>Node10</title>
<g id="a_node10"><a xlink:href="hash_8h.html" target="_top" xlink:title=" ">
<polygon fill="none" stroke="black" points="684.76,-112.5 684.76,-131.5 772.76,-131.5 772.76,-112.5 684.76,-112.5"/>
<text text-anchor="middle" x="728.76" y="-119.5" font-family="Helvetica,sans-Serif" font-size="10.00">thorin/util/hash.h</text>
</a>
</g>
</g>
<!-- Node5&#45;&gt;Node10 -->
<g id="edge58" class="edge">
<title>Node5&#45;&gt;Node10</title>
<path fill="none" stroke="midnightblue" d="M688.22,-224.37C695.38,-206.46 711.99,-164.92 721.58,-140.95"/>
<polygon fill="midnightblue" stroke="midnightblue" points="724.86,-142.18 725.33,-131.59 718.36,-139.58 724.86,-142.18"/>
</g>
<!-- Node5&#45;&gt;Node23 -->
<g id="edge62" class="edge">
<title>Node5&#45;&gt;Node23</title>
<path fill="none" stroke="midnightblue" d="M717.34,-231.61C817.8,-227.1 1118.19,-211.74 1154.76,-188 1187.32,-166.87 1172.14,-141.15 1197.76,-112 1208.31,-100 1222.54,-89.16 1234.49,-81.13"/>
<polygon fill="midnightblue" stroke="midnightblue" points="1236.59,-83.94 1243.08,-75.57 1232.79,-78.06 1236.59,-83.94"/>
</g>
<!-- Node32 -->
<g id="node32" class="node">
<title>Node32</title>
<g id="a_node32"><a xlink:href="tables_8h.html" target="_top" xlink:title=" ">
<polygon fill="none" stroke="black" points="589.26,-112.5 589.26,-131.5 666.26,-131.5 666.26,-112.5 589.26,-112.5"/>
<text text-anchor="middle" x="627.76" y="-119.5" font-family="Helvetica,sans-Serif" font-size="10.00">thorin/tables.h</text>
</a>
</g>
</g>
<!-- Node5&#45;&gt;Node32 -->
<g id="edge41" class="edge">
<title>Node5&#45;&gt;Node32</title>
<path fill="none" stroke="midnightblue" d="M681.37,-224.41C676.29,-211.8 666.19,-187.64 655.76,-168 650.75,-158.55 644.51,-148.41 639.2,-140.14"/>
<polygon fill="midnightblue" stroke="midnightblue" points="642.11,-138.2 633.71,-131.75 636.26,-142.04 642.11,-138.2"/>
</g>
<!-- Node5&#45;&gt;Node34 -->
<g id="edge45" class="edge">
<title>Node5&#45;&gt;Node34</title>
<path fill="none" stroke="midnightblue" d="M652.22,-225.88C610.02,-216.66 536.05,-200.49 486.97,-189.76"/>
<polygon fill="midnightblue" stroke="midnightblue" points="487.42,-186.27 476.9,-187.56 485.92,-193.11 487.42,-186.27"/>
</g>
<!-- Node39 -->
<g id="node39" class="node">
<title>Node39</title>
<g id="a_node39"><a xlink:href="cast_8h.html" target="_top" xlink:title=" ">
<polygon fill="none" stroke="black" points="1066.76,-56.5 1066.76,-75.5 1152.76,-75.5 1152.76,-56.5 1066.76,-56.5"/>
<text text-anchor="middle" x="1109.76" y="-63.5" font-family="Helvetica,sans-Serif" font-size="10.00">thorin/util/cast.h</text>
</a>
</g>
</g>
<!-- Node5&#45;&gt;Node39 -->
<g id="edge55" class="edge">
<title>Node5&#45;&gt;Node39</title>
<path fill="none" stroke="midnightblue" d="M717.61,-226.61C778.7,-213.94 913.01,-182.46 1016.76,-132 1044.93,-118.3 1073.98,-96.55 1091.95,-82.03"/>
<polygon fill="midnightblue" stroke="midnightblue" points="1094.33,-84.6 1099.83,-75.55 1089.89,-79.2 1094.33,-84.6"/>
</g>
<!-- Node40 -->
<g id="node40" class="node">
<title>Node40</title>
<g id="a_node40"><a xlink:href="ptr_8h.html" target="_top" xlink:title=" ">
<polygon fill="none" stroke="black" points="300.76,-56.5 300.76,-75.5 378.76,-75.5 378.76,-56.5 300.76,-56.5"/>
<text text-anchor="middle" x="339.76" y="-63.5" font-family="Helvetica,sans-Serif" font-size="10.00">thorin/util/ptr.h</text>
</a>
</g>
</g>
<!-- Node5&#45;&gt;Node40 -->
<g id="edge59" class="edge">
<title>Node5&#45;&gt;Node40</title>
<path fill="none" stroke="midnightblue" d="M652.06,-231.83C549.5,-227.39 237.61,-207.77 179.76,-132 174.37,-124.93 174.4,-119.09 179.76,-112 186.67,-102.89 246.36,-87.81 290.83,-77.64"/>
<polygon fill="midnightblue" stroke="midnightblue" points="291.65,-81.05 300.63,-75.42 290.1,-74.22 291.65,-81.05"/>
</g>
<!-- Node8 -->
<g id="node8" class="node">
<title>Node8</title>
<g id="a_node8"><a xlink:title=" ">
<polygon fill="none" stroke="#bfbfbf" points="1307.26,-0.5 1307.26,-19.5 1348.26,-19.5 1348.26,-0.5 1307.26,-0.5"/>
<text text-anchor="middle" x="1327.76" y="-7.5" font-family="Helvetica,sans-Serif" font-size="10.00">string</text>
</a>
</g>
</g>
<!-- Node7&#45;&gt;Node8 -->
<g id="edge8" class="edge">
<title>Node7&#45;&gt;Node8</title>
<path fill="none" stroke="midnightblue" d="M1145.51,-169.42C1193.37,-157.92 1273.6,-131.27 1315.76,-76 1325.77,-62.88 1328.32,-44 1328.63,-29.97"/>
<polygon fill="midnightblue" stroke="midnightblue" points="1332.13,-29.5 1328.49,-19.55 1325.13,-29.6 1332.13,-29.5"/>
</g>
<!-- Node9 -->
<g id="node9" class="node">
<title>Node9</title>
<g id="a_node9"><a xlink:title=" ">
<polygon fill="none" stroke="#bfbfbf" points="1069.76,-112.5 1069.76,-131.5 1107.76,-131.5 1107.76,-112.5 1069.76,-112.5"/>
<text text-anchor="middle" x="1088.76" y="-119.5" font-family="Helvetica,sans-Serif" font-size="10.00">tuple</text>
</a>
</g>
</g>
<!-- Node7&#45;&gt;Node9 -->
<g id="edge9" class="edge">
<title>Node7&#45;&gt;Node9</title>
<path fill="none" stroke="midnightblue" d="M1103.79,-168.08C1101.38,-160.85 1097.9,-150.41 1094.9,-141.4"/>
<polygon fill="midnightblue" stroke="midnightblue" points="1098.16,-140.13 1091.68,-131.75 1091.52,-142.34 1098.16,-140.13"/>
</g>
<!-- Node7&#45;&gt;Node10 -->
<g id="edge10" class="edge">
<title>Node7&#45;&gt;Node10</title>
<path fill="none" stroke="midnightblue" d="M1068.09,-171.47C1000.38,-161.8 860.23,-141.78 782.91,-130.74"/>
<polygon fill="midnightblue" stroke="midnightblue" points="783.29,-127.25 772.89,-129.3 782.3,-134.18 783.29,-127.25"/>
</g>
<!-- Node7&#45;&gt;Node23 -->
<g id="edge40" class="edge">
<title>Node7&#45;&gt;Node23</title>
<path fill="none" stroke="midnightblue" d="M1111.95,-168.36C1120.46,-154.8 1138.57,-128.4 1159.76,-112 1178.26,-97.69 1202.03,-86.63 1221.53,-79.06"/>
<polygon fill="midnightblue" stroke="midnightblue" points="1222.86,-82.3 1231,-75.52 1220.41,-75.74 1222.86,-82.3"/>
</g>
<!-- Node10&#45;&gt;Node6 -->
<g id="edge20" class="edge">
<title>Node10&#45;&gt;Node6</title>
<path fill="none" stroke="midnightblue" d="M684.56,-113.16C681.59,-112.73 678.64,-112.34 675.76,-112 443.52,-84.39 382.1,-110.4 150.76,-76 149.49,-75.81 148.19,-75.6 146.88,-75.38"/>
<polygon fill="midnightblue" stroke="midnightblue" points="147.31,-71.89 136.83,-73.4 145.96,-78.76 147.31,-71.89"/>
</g>
<!-- Node11 -->
<g id="node11" class="node">
<title>Node11</title>
<g id="a_node11"><a xlink:title=" ">
<polygon fill="none" stroke="#bfbfbf" points="12.76,-56.5 12.76,-75.5 68.76,-75.5 68.76,-56.5 12.76,-56.5"/>
<text text-anchor="middle" x="40.76" y="-63.5" font-family="Helvetica,sans-Serif" font-size="10.00">algorithm</text>
</a>
</g>
</g>
<!-- Node10&#45;&gt;Node11 -->
<g id="edge11" class="edge">
<title>Node10&#45;&gt;Node11</title>
<path fill="none" stroke="midnightblue" d="M684.57,-113.13C681.59,-112.71 678.64,-112.33 675.76,-112 414.6,-82.05 342.87,-114.77 79.21,-75.94"/>
<polygon fill="midnightblue" stroke="midnightblue" points="79.35,-72.42 68.94,-74.4 78.31,-79.34 79.35,-72.42"/>
</g>
<!-- Node12 -->
<g id="node12" class="node">
<title>Node12</title>
<g id="a_node12"><a xlink:title=" ">
<polygon fill="none" stroke="#bfbfbf" points="660.76,-56.5 660.76,-75.5 698.76,-75.5 698.76,-56.5 660.76,-56.5"/>
<text text-anchor="middle" x="679.76" y="-63.5" font-family="Helvetica,sans-Serif" font-size="10.00">array</text>
</a>
</g>
</g>
<!-- Node10&#45;&gt;Node12 -->
<g id="edge12" class="edge">
<title>Node10&#45;&gt;Node12</title>
<path fill="none" stroke="midnightblue" d="M720.67,-112.08C713.61,-104.3 703.18,-92.8 694.61,-83.37"/>
<polygon fill="midnightblue" stroke="midnightblue" points="697.02,-80.8 687.7,-75.75 691.83,-85.51 697.02,-80.8"/>
</g>
<!-- Node13 -->
<g id="node13" class="node">
<title>Node13</title>
<g id="a_node13"><a xlink:title=" ">
<polygon fill="none" stroke="#bfbfbf" points="717.26,-56.5 717.26,-75.5 746.26,-75.5 746.26,-56.5 717.26,-56.5"/>
<text text-anchor="middle" x="731.76" y="-63.5" font-family="Helvetica,sans-Serif" font-size="10.00">bit</text>
</a>
</g>
</g>
<!-- Node10&#45;&gt;Node13 -->
<g id="edge13" class="edge">
<title>Node10&#45;&gt;Node13</title>
<path fill="none" stroke="midnightblue" d="M729.26,-112.08C729.65,-105.01 730.21,-94.86 730.71,-85.99"/>
<polygon fill="midnightblue" stroke="midnightblue" points="734.22,-85.93 731.28,-75.75 727.23,-85.54 734.22,-85.93"/>
</g>
<!-- Node14 -->
<g id="node14" class="node">
<title>Node14</title>
<g id="a_node14"><a xlink:title=" ">
<polygon fill="none" stroke="#bfbfbf" points="608.26,-0.5 608.26,-19.5 657.26,-19.5 657.26,-0.5 608.26,-0.5"/>
<text text-anchor="middle" x="632.76" y="-7.5" font-family="Helvetica,sans-Serif" font-size="10.00">cassert</text>
</a>
</g>
</g>
<!-- Node10&#45;&gt;Node14 -->
<g id="edge14" class="edge">
<title>Node10&#45;&gt;Node14</title>
<path fill="none" stroke="midnightblue" d="M704.61,-112.48C687.51,-105.28 665.3,-93.33 651.76,-76 641.37,-62.69 636.66,-43.86 634.52,-29.89"/>
<polygon fill="midnightblue" stroke="midnightblue" points="637.99,-29.43 633.31,-19.93 631.04,-30.28 637.99,-29.43"/>
</g>
<!-- Node15 -->
<g id="node15" class="node">
<title>Node15</title>
<g id="a_node15"><a xlink:title=" ">
<polygon fill="none" stroke="#bfbfbf" points="763.76,-56.5 763.76,-75.5 819.76,-75.5 819.76,-56.5 763.76,-56.5"/>
<text text-anchor="middle" x="791.76" y="-63.5" font-family="Helvetica,sans-Serif" font-size="10.00">cinttypes</text>
</a>
</g>
</g>
<!-- Node10&#45;&gt;Node15 -->
<g id="edge15" class="edge">
<title>Node10&#45;&gt;Node15</title>
<path fill="none" stroke="midnightblue" d="M738.88,-112.32C748.29,-104.26 762.51,-92.08 773.83,-82.37"/>
<polygon fill="midnightblue" stroke="midnightblue" points="776.14,-85 781.46,-75.83 771.59,-79.68 776.14,-85"/>
</g>
<!-- Node16 -->
<g id="node16" class="node">
<title>Node16</title>
<g id="a_node16"><a xlink:title=" ">
<polygon fill="none" stroke="#bfbfbf" points="352.76,-0.5 352.76,-19.5 398.76,-19.5 398.76,-0.5 352.76,-0.5"/>
<text text-anchor="middle" x="375.76" y="-7.5" font-family="Helvetica,sans-Serif" font-size="10.00">cstdint</text>
</a>
</g>
</g>
<!-- Node10&#45;&gt;Node16 -->
<g id="edge16" class="edge">
<title>Node10&#45;&gt;Node16</title>
<path fill="none" stroke="midnightblue" d="M684.52,-113.43C612.81,-101.12 478.65,-77.95 473.76,-76 443.16,-63.77 412.18,-41.12 393.47,-26.05"/>
<polygon fill="midnightblue" stroke="midnightblue" points="395.5,-23.19 385.56,-19.53 391.05,-28.59 395.5,-23.19"/>
</g>
<!-- Node17 -->
<g id="node17" class="node">
<title>Node17</title>
<g id="a_node17"><a xlink:title=" ">
<polygon fill="none" stroke="#bfbfbf" points="1023.76,-0.5 1023.76,-19.5 1069.76,-19.5 1069.76,-0.5 1023.76,-0.5"/>
<text text-anchor="middle" x="1046.76" y="-7.5" font-family="Helvetica,sans-Serif" font-size="10.00">cstring</text>
</a>
</g>
</g>
<!-- Node10&#45;&gt;Node17 -->
<g id="edge17" class="edge">
<title>Node10&#45;&gt;Node17</title>
<path fill="none" stroke="midnightblue" d="M772.93,-121.04C825.54,-119.36 914.71,-110.97 981.76,-76 1003.76,-64.53 1023.02,-43.01 1034.75,-27.89"/>
<polygon fill="midnightblue" stroke="midnightblue" points="1037.57,-29.95 1040.74,-19.84 1031.96,-25.77 1037.57,-29.95"/>
</g>
<!-- Node18 -->
<g id="node18" class="node">
<title>Node18</title>
<g id="a_node18"><a xlink:title=" ">
<polygon fill="none" stroke="#bfbfbf" points="1096.76,-0.5 1096.76,-19.5 1150.76,-19.5 1150.76,-0.5 1096.76,-0.5"/>
<text text-anchor="middle" x="1123.76" y="-7.5" font-family="Helvetica,sans-Serif" font-size="10.00">iostream</text>
</a>
</g>
</g>
<!-- Node10&#45;&gt;Node18 -->
<g id="edge18" class="edge">
<title>Node10&#45;&gt;Node18</title>
<path fill="none" stroke="midnightblue" d="M773.06,-119.69C878.22,-116.12 1136.05,-104.52 1161.76,-76 1175.4,-60.87 1158.35,-40.07 1142.93,-26.12"/>
<polygon fill="midnightblue" stroke="midnightblue" points="1145.06,-23.33 1135.18,-19.51 1140.51,-28.66 1145.06,-23.33"/>
</g>
<!-- Node19 -->
<g id="node19" class="node">
<title>Node19</title>
<g id="a_node19"><a xlink:title=" ">
<polygon fill="none" stroke="#bfbfbf" points="419.26,-0.5 419.26,-19.5 470.26,-19.5 470.26,-0.5 419.26,-0.5"/>
<text text-anchor="middle" x="444.76" y="-7.5" font-family="Helvetica,sans-Serif" font-size="10.00">memory</text>
</a>
</g>
</g>
<!-- Node10&#45;&gt;Node19 -->
<g id="edge19" class="edge">
<title>Node10&#45;&gt;Node19</title>
<path fill="none" stroke="midnightblue" d="M684.55,-112.99C620.77,-101.33 509.67,-80.56 501.76,-76 481.93,-64.56 465.49,-43.66 455.44,-28.65"/>
<polygon fill="midnightblue" stroke="midnightblue" points="458.12,-26.34 449.79,-19.79 452.22,-30.11 458.12,-26.34"/>
</g>
<!-- Node20 -->
<g id="node20" class="node">
<title>Node20</title>
<g id="a_node20"><a xlink:title=" ">
<polygon fill="none" stroke="#bfbfbf" points="14.76,-0.5 14.76,-19.5 76.76,-19.5 76.76,-0.5 14.76,-0.5"/>
<text text-anchor="middle" x="45.76" y="-7.5" font-family="Helvetica,sans-Serif" font-size="10.00">type_traits</text>
</a>
</g>
</g>
<!-- Node10&#45;&gt;Node20 -->
<g id="edge21" class="edge">
<title>Node10&#45;&gt;Node20</title>
<path fill="none" stroke="midnightblue" d="M684.56,-113.17C681.59,-112.74 678.64,-112.35 675.76,-112 458.1,-85.62 394.55,-136.33 183.76,-76 165.41,-70.75 162.92,-64.36 145.76,-56 122.23,-44.53 95.13,-32.4 75.08,-23.63"/>
<polygon fill="midnightblue" stroke="midnightblue" points="76.42,-20.39 65.85,-19.61 73.62,-26.81 76.42,-20.39"/>
</g>
<!-- Node21 -->
<g id="node21" class="node">
<title>Node21</title>
<g id="a_node21"><a xlink:title=" ">
<polygon fill="none" stroke="#bfbfbf" points="838.26,-56.5 838.26,-75.5 877.26,-75.5 877.26,-56.5 838.26,-56.5"/>
<text text-anchor="middle" x="857.76" y="-63.5" font-family="Helvetica,sans-Serif" font-size="10.00">utility</text>
</a>
</g>
</g>
<!-- Node10&#45;&gt;Node21 -->
<g id="edge22" class="edge">
<title>Node10&#45;&gt;Node21</title>
<path fill="none" stroke="midnightblue" d="M749.2,-112.44C770.68,-103.45 804.65,-89.23 828.87,-79.1"/>
<polygon fill="midnightblue" stroke="midnightblue" points="830.39,-82.25 838.26,-75.16 827.69,-75.8 830.39,-82.25"/>
</g>
<!-- Node22 -->
<g id="node22" class="node">
<title>Node22</title>
<g id="a_node22"><a xlink:title=" ">
<polygon fill="none" stroke="#bfbfbf" points="895.26,-56.5 895.26,-75.5 972.26,-75.5 972.26,-56.5 895.26,-56.5"/>
<text text-anchor="middle" x="933.76" y="-63.5" font-family="Helvetica,sans-Serif" font-size="10.00">thorin/config.h</text>
</a>
</g>
</g>
<!-- Node10&#45;&gt;Node22 -->
<g id="edge23" class="edge">
<title>Node10&#45;&gt;Node22</title>
<path fill="none" stroke="midnightblue" d="M761.25,-112.44C796.48,-103.16 852.87,-88.31 891.52,-78.13"/>
<polygon fill="midnightblue" stroke="midnightblue" points="892.65,-81.45 901.43,-75.52 890.87,-74.68 892.65,-81.45"/>
</g>
<!-- Node10&#45;&gt;Node23 -->
<g id="edge24" class="edge">
<title>Node10&#45;&gt;Node23</title>
<path fill="none" stroke="midnightblue" d="M772.85,-117.42C855.64,-110.54 1040.01,-94.52 1194.76,-76 1196.06,-75.84 1197.37,-75.69 1198.69,-75.52"/>
<polygon fill="midnightblue" stroke="midnightblue" points="1199.48,-78.95 1208.95,-74.2 1198.59,-72.01 1199.48,-78.95"/>
</g>
<!-- Node27 -->
<g id="node27" class="node">
<title>Node27</title>
<g id="a_node27"><a xlink:href="types_8h.html" target="_top" xlink:title=" ">
<polygon fill="none" stroke="black" points="192.76,-56.5 192.76,-75.5 282.76,-75.5 282.76,-56.5 192.76,-56.5"/>
<text text-anchor="middle" x="237.76" y="-63.5" font-family="Helvetica,sans-Serif" font-size="10.00">thorin/util/types.h</text>
</a>
</g>
</g>
<!-- Node10&#45;&gt;Node27 -->
<g id="edge33" class="edge">
<title>Node10&#45;&gt;Node27</title>
<path fill="none" stroke="midnightblue" d="M684.55,-113.24C681.58,-112.8 678.63,-112.38 675.76,-112 509.05,-90.06 463.47,-97.79 292.89,-76.06"/>
<polygon fill="midnightblue" stroke="midnightblue" points="293.17,-72.56 282.81,-74.76 292.28,-79.51 293.17,-72.56"/>
</g>
<!-- Node23&#45;&gt;Node8 -->
<g id="edge32" class="edge">
<title>Node23&#45;&gt;Node8</title>
<path fill="none" stroke="midnightblue" d="M1269.01,-56.32C1279.56,-48.18 1295.56,-35.84 1308.21,-26.09"/>
<polygon fill="midnightblue" stroke="midnightblue" points="1310.53,-28.71 1316.31,-19.83 1306.26,-23.17 1310.53,-28.71"/>
</g>
<!-- Node23&#45;&gt;Node14 -->
<g id="edge25" class="edge">
<title>Node23&#45;&gt;Node14</title>
<path fill="none" stroke="midnightblue" d="M1208.93,-60.34C1193.81,-58.92 1177.1,-57.37 1161.76,-56 975.34,-39.33 751.82,-20.79 667.35,-13.84"/>
<polygon fill="midnightblue" stroke="midnightblue" points="667.54,-10.34 657.29,-13.01 666.97,-17.32 667.54,-10.34"/>
</g>
<!-- Node23&#45;&gt;Node17 -->
<g id="edge26" class="edge">
<title>Node23&#45;&gt;Node17</title>
<path fill="none" stroke="midnightblue" d="M1224.33,-56.44C1184.75,-46.32 1119.26,-29.55 1079.84,-19.47"/>
<polygon fill="midnightblue" stroke="midnightblue" points="1080.49,-16.02 1069.94,-16.93 1078.76,-22.8 1080.49,-16.02"/>
</g>
<!-- Node23&#45;&gt;Node18 -->
<g id="edge28" class="edge">
<title>Node23&#45;&gt;Node18</title>
<path fill="none" stroke="midnightblue" d="M1236.53,-56.44C1214.38,-47.52 1179.44,-33.44 1154.33,-23.32"/>
<polygon fill="midnightblue" stroke="midnightblue" points="1155.48,-20.01 1144.9,-19.52 1152.86,-26.5 1155.48,-20.01"/>
</g>
<!-- Node23&#45;&gt;Node19 -->
<g id="edge29" class="edge">
<title>Node23&#45;&gt;Node19</title>
<path fill="none" stroke="midnightblue" d="M1208.95,-60.13C1193.83,-58.7 1177.12,-57.2 1161.76,-56 1027.05,-45.46 606.7,-20.52 480.77,-13.11"/>
<polygon fill="midnightblue" stroke="midnightblue" points="480.71,-9.6 470.52,-12.51 480.3,-16.59 480.71,-9.6"/>
</g>
<!-- Node24 -->
<g id="node24" class="node">
<title>Node24</title>
<g id="a_node24"><a xlink:title=" ">
<polygon fill="none" stroke="#bfbfbf" points="1238.76,-0.5 1238.76,-19.5 1288.76,-19.5 1288.76,-0.5 1238.76,-0.5"/>
<text text-anchor="middle" x="1263.76" y="-7.5" font-family="Helvetica,sans-Serif" font-size="10.00">fstream</text>
</a>
</g>
</g>
<!-- Node23&#45;&gt;Node24 -->
<g id="edge27" class="edge">
<title>Node23&#45;&gt;Node24</title>
<path fill="none" stroke="midnightblue" d="M1258.75,-56.08C1259.55,-48.93 1260.69,-38.64 1261.69,-29.69"/>
<polygon fill="midnightblue" stroke="midnightblue" points="1265.16,-30.08 1262.79,-19.75 1258.21,-29.3 1265.16,-30.08"/>
</g>
<!-- Node25 -->
<g id="node25" class="node">
<title>Node25</title>
<g id="a_node25"><a xlink:title=" ">
<polygon fill="none" stroke="#bfbfbf" points="1366.76,-0.5 1366.76,-19.5 1412.76,-19.5 1412.76,-0.5 1366.76,-0.5"/>
<text text-anchor="middle" x="1389.76" y="-7.5" font-family="Helvetica,sans-Serif" font-size="10.00">ranges</text>
</a>
</g>
</g>
<!-- Node23&#45;&gt;Node25 -->
<g id="edge30" class="edge">
<title>Node23&#45;&gt;Node25</title>
<path fill="none" stroke="midnightblue" d="M1278.68,-56.44C1300.5,-47.52 1334.91,-33.44 1359.66,-23.32"/>
<polygon fill="midnightblue" stroke="midnightblue" points="1361.01,-26.54 1368.94,-19.52 1358.36,-20.06 1361.01,-26.54"/>
</g>
<!-- Node26 -->
<g id="node26" class="node">
<title>Node26</title>
<g id="a_node26"><a xlink:title=" ">
<polygon fill="none" stroke="#bfbfbf" points="1168.76,-0.5 1168.76,-19.5 1220.76,-19.5 1220.76,-0.5 1168.76,-0.5"/>
<text text-anchor="middle" x="1194.76" y="-7.5" font-family="Helvetica,sans-Serif" font-size="10.00">sstream</text>
</a>
</g>
</g>
<!-- Node23&#45;&gt;Node26 -->
<g id="edge31" class="edge">
<title>Node23&#45;&gt;Node26</title>
<path fill="none" stroke="midnightblue" d="M1247.64,-56.32C1238.24,-48.26 1224.02,-36.08 1212.69,-26.37"/>
<polygon fill="midnightblue" stroke="midnightblue" points="1214.94,-23.68 1205.07,-19.83 1210.38,-29 1214.94,-23.68"/>
</g>
<!-- Node27&#45;&gt;Node16 -->
<g id="edge35" class="edge">
<title>Node27&#45;&gt;Node16</title>
<path fill="none" stroke="midnightblue" d="M259.63,-56.44C282.54,-47.48 318.74,-33.31 344.63,-23.18"/>
<polygon fill="midnightblue" stroke="midnightblue" points="345.96,-26.42 354,-19.52 343.41,-19.9 345.96,-26.42"/>
</g>
<!-- Node27&#45;&gt;Node20 -->
<g id="edge38" class="edge">
<title>Node27&#45;&gt;Node20</title>
<path fill="none" stroke="midnightblue" d="M207.34,-56.44C174.48,-47.2 121.98,-32.44 85.79,-22.26"/>
<polygon fill="midnightblue" stroke="midnightblue" points="86.62,-18.85 76.04,-19.52 84.72,-25.59 86.62,-18.85"/>
</g>
<!-- Node28 -->
<g id="node28" class="node">
<title>Node28</title>
<g id="a_node28"><a xlink:title=" ">
<polygon fill="none" stroke="#bfbfbf" points="94.76,-0.5 94.76,-19.5 138.76,-19.5 138.76,-0.5 94.76,-0.5"/>
<text text-anchor="middle" x="116.76" y="-7.5" font-family="Helvetica,sans-Serif" font-size="10.00">cmath</text>
</a>
</g>
</g>
<!-- Node27&#45;&gt;Node28 -->
<g id="edge34" class="edge">
<title>Node27&#45;&gt;Node28</title>
<path fill="none" stroke="midnightblue" d="M218.59,-56.44C198.85,-47.64 167.88,-33.81 145.27,-23.72"/>
<polygon fill="midnightblue" stroke="midnightblue" points="146.4,-20.4 135.85,-19.52 143.55,-26.79 146.4,-20.4"/>
</g>
<!-- Node29 -->
<g id="node29" class="node">
<title>Node29</title>
<g id="a_node29"><a xlink:title=" ">
<polygon fill="none" stroke="#bfbfbf" points="156.76,-0.5 156.76,-19.5 196.76,-19.5 196.76,-0.5 156.76,-0.5"/>
<text text-anchor="middle" x="176.76" y="-7.5" font-family="Helvetica,sans-Serif" font-size="10.00">limits</text>
</a>
</g>
</g>
<!-- Node27&#45;&gt;Node29 -->
<g id="edge36" class="edge">
<title>Node27&#45;&gt;Node29</title>
<path fill="none" stroke="midnightblue" d="M227.96,-56.32C218.94,-48.34 205.36,-36.31 194.44,-26.65"/>
<polygon fill="midnightblue" stroke="midnightblue" points="196.55,-23.84 186.74,-19.83 191.91,-29.08 196.55,-23.84"/>
</g>
<!-- Node30 -->
<g id="node30" class="node">
<title>Node30</title>
<g id="a_node30"><a xlink:title=" ">
<polygon fill="none" stroke="#bfbfbf" points="214.76,-0.5 214.76,-19.5 266.76,-19.5 266.76,-0.5 214.76,-0.5"/>
<text text-anchor="middle" x="240.76" y="-7.5" font-family="Helvetica,sans-Serif" font-size="10.00">ostream</text>
</a>
</g>
</g>
<!-- Node27&#45;&gt;Node30 -->
<g id="edge37" class="edge">
<title>Node27&#45;&gt;Node30</title>
<path fill="none" stroke="midnightblue" d="M238.26,-56.08C238.65,-49.01 239.21,-38.86 239.71,-29.99"/>
<polygon fill="midnightblue" stroke="midnightblue" points="243.22,-29.93 240.28,-19.75 236.23,-29.54 243.22,-29.93"/>
</g>
<!-- Node31 -->
<g id="node31" class="node">
<title>Node31</title>
<g id="a_node31"><a xlink:title=" ">
<polygon fill="none" stroke="#bfbfbf" points="284.76,-0.5 284.76,-19.5 334.76,-19.5 334.76,-0.5 284.76,-0.5"/>
<text text-anchor="middle" x="309.76" y="-7.5" font-family="Helvetica,sans-Serif" font-size="10.00">half.hpp</text>
</a>
</g>
</g>
<!-- Node27&#45;&gt;Node31 -->
<g id="edge39" class="edge">
<title>Node27&#45;&gt;Node31</title>
<path fill="none" stroke="midnightblue" d="M249.33,-56.32C260.18,-48.18 276.64,-35.84 289.65,-26.09"/>
<polygon fill="midnightblue" stroke="midnightblue" points="292.08,-28.63 297.98,-19.83 287.88,-23.03 292.08,-28.63"/>
</g>
<!-- Node32&#45;&gt;Node27 -->
<g id="edge44" class="edge">
<title>Node32&#45;&gt;Node27</title>
<path fill="none" stroke="midnightblue" d="M589.03,-113.53C585.9,-112.99 582.78,-112.47 579.76,-112 455.55,-92.61 421.14,-94.49 293.03,-76.13"/>
<polygon fill="midnightblue" stroke="midnightblue" points="293.22,-72.62 282.82,-74.65 292.22,-79.55 293.22,-72.62"/>
</g>
<!-- Node33 -->
<g id="node33" class="node">
<title>Node33</title>
<g id="a_node33"><a xlink:href="assert_8h.html" target="_top" xlink:title=" ">
<polygon fill="none" stroke="black" points="510.76,-56.5 510.76,-75.5 604.76,-75.5 604.76,-56.5 510.76,-56.5"/>
<text text-anchor="middle" x="557.76" y="-63.5" font-family="Helvetica,sans-Serif" font-size="10.00">thorin/util/assert.h</text>
</a>
</g>
</g>
<!-- Node32&#45;&gt;Node33 -->
<g id="edge42" class="edge">
<title>Node32&#45;&gt;Node33</title>
<path fill="none" stroke="midnightblue" d="M616.52,-112.32C605.97,-104.18 589.96,-91.84 577.32,-82.09"/>
<polygon fill="midnightblue" stroke="midnightblue" points="579.27,-79.17 569.21,-75.83 574.99,-84.71 579.27,-79.17"/>
</g>
<!-- Node33&#45;&gt;Node14 -->
<g id="edge43" class="edge">
<title>Node33&#45;&gt;Node14</title>
<path fill="none" stroke="midnightblue" d="M569.81,-56.32C581.23,-48.11 598.59,-35.6 612.2,-25.81"/>
<polygon fill="midnightblue" stroke="midnightblue" points="614.42,-28.52 620.49,-19.83 610.33,-22.84 614.42,-28.52"/>
</g>
<!-- Node34&#45;&gt;Node3 -->
<g id="edge53" class="edge">
<title>Node34&#45;&gt;Node3</title>
<path fill="none" stroke="midnightblue" d="M455.6,-168.32C473.48,-159.62 501.24,-146.12 521.81,-136.11"/>
<polygon fill="midnightblue" stroke="midnightblue" points="523.51,-139.18 530.97,-131.65 520.45,-132.88 523.51,-139.18"/>
</g>
<!-- Node34&#45;&gt;Node11 -->
<g id="edge46" class="edge">
<title>Node34&#45;&gt;Node11</title>
<path fill="none" stroke="midnightblue" d="M393.56,-172.89C341.49,-167.22 252.84,-155.01 179.76,-132 137.67,-118.75 91.85,-95.43 64.75,-80.62"/>
<polygon fill="midnightblue" stroke="midnightblue" points="66.1,-77.37 55.66,-75.58 62.71,-83.49 66.1,-77.37"/>
</g>
<!-- Node34&#45;&gt;Node14 -->
<g id="edge47" class="edge">
<title>Node34&#45;&gt;Node14</title>
<path fill="none" stroke="midnightblue" d="M448.21,-168.4C457.74,-160.04 471.53,-146.5 479.76,-132 497.12,-101.42 477.52,-81.47 501.76,-56 526.94,-29.55 568.34,-18.65 597.86,-14.15"/>
<polygon fill="midnightblue" stroke="midnightblue" points="598.7,-17.57 608.15,-12.77 597.77,-10.63 598.7,-17.57"/>
</g>
<!-- Node34&#45;&gt;Node17 -->
<g id="edge49" class="edge">
<title>Node34&#45;&gt;Node17</title>
<path fill="none" stroke="midnightblue" d="M482.04,-174.26C601.14,-166.11 925,-138.6 1008.76,-76 1024.43,-64.29 1034.77,-44.05 1040.65,-29.26"/>
<polygon fill="midnightblue" stroke="midnightblue" points="1044.02,-30.25 1044.16,-19.66 1037.44,-27.85 1044.02,-30.25"/>
</g>
<!-- Node34&#45;&gt;Node20 -->
<g id="edge54" class="edge">
<title>Node34&#45;&gt;Node20</title>
<path fill="none" stroke="midnightblue" d="M393.61,-174.69C332.21,-170.58 218.06,-159.65 124.76,-132 67.95,-115.16 35.67,-125.93 3.76,-76 -7.27,-58.74 9.73,-38.99 25.29,-25.84"/>
<polygon fill="midnightblue" stroke="midnightblue" points="27.48,-28.56 33.13,-19.6 23.13,-23.08 27.48,-28.56"/>
</g>
<!-- Node35 -->
<g id="node35" class="node">
<title>Node35</title>
<g id="a_node35"><a xlink:title=" ">
<polygon fill="none" stroke="#bfbfbf" points="331.26,-112.5 331.26,-131.5 380.26,-131.5 380.26,-112.5 331.26,-112.5"/>
<text text-anchor="middle" x="355.76" y="-119.5" font-family="Helvetica,sans-Serif" font-size="10.00">cstddef</text>
</a>
</g>
</g>
<!-- Node34&#45;&gt;Node35 -->
<g id="edge48" class="edge">
<title>Node34&#45;&gt;Node35</title>
<path fill="none" stroke="midnightblue" d="M424.59,-168.32C411.92,-159.98 392.53,-147.21 377.56,-137.35"/>
<polygon fill="midnightblue" stroke="midnightblue" points="379.18,-134.23 368.9,-131.65 375.33,-140.08 379.18,-134.23"/>
</g>
<!-- Node36 -->
<g id="node36" class="node">
<title>Node36</title>
<g id="a_node36"><a xlink:title=" ">
<polygon fill="none" stroke="#bfbfbf" points="398.76,-112.5 398.76,-131.5 470.76,-131.5 470.76,-112.5 398.76,-112.5"/>
<text text-anchor="middle" x="434.76" y="-119.5" font-family="Helvetica,sans-Serif" font-size="10.00">initializer_list</text>
</a>
</g>
</g>
<!-- Node34&#45;&gt;Node36 -->
<g id="edge50" class="edge">
<title>Node34&#45;&gt;Node36</title>
<path fill="none" stroke="midnightblue" d="M437.27,-168.08C436.87,-161.01 436.31,-150.86 435.82,-141.99"/>
<polygon fill="midnightblue" stroke="midnightblue" points="439.3,-141.54 435.25,-131.75 432.31,-141.93 439.3,-141.54"/>
</g>
<!-- Node37 -->
<g id="node37" class="node">
<title>Node37</title>
<g id="a_node37"><a xlink:title=" ">
<polygon fill="none" stroke="#bfbfbf" points="189.26,-112.5 189.26,-131.5 236.26,-131.5 236.26,-112.5 189.26,-112.5"/>
<text text-anchor="middle" x="212.76" y="-119.5" font-family="Helvetica,sans-Serif" font-size="10.00">iterator</text>
</a>
</g>
</g>
<!-- Node34&#45;&gt;Node37 -->
<g id="edge51" class="edge">
<title>Node34&#45;&gt;Node37</title>
<path fill="none" stroke="midnightblue" d="M398.82,-168.46C361.81,-160.23 304.37,-147.14 246.21,-132.3"/>
<polygon fill="midnightblue" stroke="midnightblue" points="247.05,-128.9 236.5,-129.8 245.31,-135.68 247.05,-128.9"/>
</g>
<!-- Node38 -->
<g id="node38" class="node">
<title>Node38</title>
<g id="a_node38"><a xlink:title=" ">
<polygon fill="none" stroke="#bfbfbf" points="254.26,-112.5 254.26,-131.5 313.26,-131.5 313.26,-112.5 254.26,-112.5"/>
<text text-anchor="middle" x="283.76" y="-119.5" font-family="Helvetica,sans-Serif" font-size="10.00">functional</text>
</a>
</g>
</g>
<!-- Node34&#45;&gt;Node38 -->
<g id="edge52" class="edge">
<title>Node34&#45;&gt;Node38</title>
<path fill="none" stroke="midnightblue" d="M413.36,-168.44C387.57,-159.4 346.69,-145.06 317.75,-134.92"/>
<polygon fill="midnightblue" stroke="midnightblue" points="318.65,-131.52 308.05,-131.52 316.33,-138.13 318.65,-131.52"/>
</g>
<!-- Node39&#45;&gt;Node14 -->
<g id="edge56" class="edge">
<title>Node39&#45;&gt;Node14</title>
<path fill="none" stroke="midnightblue" d="M1066.59,-60.11C972.92,-49.51 752.59,-24.57 667.32,-14.91"/>
<polygon fill="midnightblue" stroke="midnightblue" points="667.7,-11.43 657.37,-13.79 666.91,-18.39 667.7,-11.43"/>
</g>
<!-- Node39&#45;&gt;Node17 -->
<g id="edge57" class="edge">
<title>Node39&#45;&gt;Node17</title>
<path fill="none" stroke="midnightblue" d="M1099.64,-56.32C1090.24,-48.26 1076.02,-36.08 1064.69,-26.37"/>
<polygon fill="midnightblue" stroke="midnightblue" points="1066.94,-23.68 1057.07,-19.83 1062.38,-29 1066.94,-23.68"/>
</g>
<!-- Node40&#45;&gt;Node16 -->
<g id="edge60" class="edge">
<title>Node40&#45;&gt;Node16</title>
<path fill="none" stroke="midnightblue" d="M345.71,-56.08C350.74,-48.53 358.1,-37.49 364.28,-28.23"/>
<polygon fill="midnightblue" stroke="midnightblue" points="367.29,-30.01 369.93,-19.75 361.47,-26.13 367.29,-30.01"/>
</g>
<!-- Node40&#45;&gt;Node19 -->
<g id="edge61" class="edge">
<title>Node40&#45;&gt;Node19</title>
<path fill="none" stroke="midnightblue" d="M356.63,-56.32C373.47,-47.66 399.57,-34.24 419,-24.25"/>
<polygon fill="midnightblue" stroke="midnightblue" points="420.64,-27.34 427.93,-19.65 417.44,-21.12 420.64,-27.34"/>
</g>
<!-- Node41&#45;&gt;Node25 -->
<g id="edge66" class="edge">
<title>Node41&#45;&gt;Node25</title>
<path fill="none" stroke="midnightblue" d="M1255.25,-224.3C1276.07,-191.29 1350.41,-73.4 1378.71,-28.52"/>
<polygon fill="midnightblue" stroke="midnightblue" points="1381.79,-30.21 1384.16,-19.88 1375.87,-26.48 1381.79,-30.21"/>
</g>
<!-- Node41&#45;&gt;Node34 -->
<g id="edge67" class="edge">
<title>Node41&#45;&gt;Node34</title>
<path fill="none" stroke="midnightblue" d="M1195.54,-229.39C1047.9,-219.58 639.89,-192.44 492.11,-182.61"/>
<polygon fill="midnightblue" stroke="midnightblue" points="492.13,-179.11 481.92,-181.94 491.67,-186.09 492.13,-179.11"/>
</g>
<!-- Node42&#45;&gt;Node34 -->
<g id="edge69" class="edge">
<title>Node42&#45;&gt;Node34</title>
<path fill="none" stroke="midnightblue" d="M511.49,-280.37C498.28,-262.22 467.44,-219.8 450.12,-195.99"/>
<polygon fill="midnightblue" stroke="midnightblue" points="452.72,-193.62 444.01,-187.59 447.06,-197.74 452.72,-193.62"/>
</g>
</g>
</svg>
