<?xml version="1.0" encoding="UTF-8" standalone="no"?>
<!DOCTYPE svg PUBLIC "-//W3C//DTD SVG 1.1//EN"
 "http://www.w3.org/Graphics/SVG/1.1/DTD/svg11.dtd">
<!-- Generated by graphviz version 2.43.0 (0)
 -->
<!-- Title: thorin/driver.h Pages: 1 -->
<!--zoomable 137 -->
<svg id="main" version="1.1" xmlns="http://www.w3.org/2000/svg" xmlns:xlink="http://www.w3.org/1999/xlink" xml:space="preserve" onload="init(evt)">
<style type="text/css"><![CDATA[
.edge:hover path { stroke: red; }
.edge:hover polygon { stroke: red; fill: red; }
]]></style>
<script type="text/javascript"><![CDATA[
var edges = document.getElementsByTagName('g');
if (edges && edges.length) {
  for (var i=0;i<edges.length;i++) {
    if (edges[i].id.substr(0,4)=='edge') {
      edges[i].setAttribute('class','edge');
    }
  }
}
]]></script>
        <defs>
                <circle id="rim" cx="0" cy="0" r="7"/>
                <circle id="rim2" cx="0" cy="0" r="3.5"/>
                <g id="zoomPlus">
                        <use xlink:href="#rim" fill="#404040">
                                <set attributeName="fill" to="#808080" begin="zoomplus.mouseover" end="zoomplus.mouseout"/>
                        </use>
                        <path d="M-4,0h8M0,-4v8" fill="none" stroke="white" stroke-width="1.5" pointer-events="none"/>
                </g>
                <g id="zoomMin">
                        <use xlink:href="#rim" fill="#404040">
                                <set attributeName="fill" to="#808080" begin="zoomminus.mouseover" end="zoomminus.mouseout"/>
                        </use>
                        <path d="M-4,0h8" fill="none" stroke="white" stroke-width="1.5" pointer-events="none"/>
                </g>
                <g id="dirArrow">
                        <path fill="none" stroke="white" stroke-width="1.5" d="M0,-3.0v7 M-2.5,-0.5L0,-3.0L2.5,-0.5"/>
                </g>
               <g id="resetDef">
                       <use xlink:href="#rim2" fill="#404040">
                               <set attributeName="fill" to="#808080" begin="reset.mouseover" end="reset.mouseout"/>
                       </use>
               </g>
        </defs>

<script type="text/javascript">
var viewWidth = 945;
var viewHeight = 137;
var sectionId = 'dynsection-1';
</script>
<script xlink:href="svgpan.js"/>
<svg id="graph" class="graph">
<g id="viewport">
<title>thorin/driver.h</title>
<!-- Node1 -->
<g id="node1" class="node">
<title>Node1</title>
<g id="a_node1"><a xlink:title=" ">
<polygon fill="#999999" stroke="#666666" points="506.7,-129 421.7,-129 421.7,-110 506.7,-110 506.7,-129"/>
<text text-anchor="middle" x="464.2" y="-117" font-family="Helvetica,sans-Serif" font-size="10.00">thorin/driver.h</text>
</a>
</g>
</g>
<!-- Node2 -->
<g id="node2" class="node">
<title>Node2</title>
<g id="a_node2"><a xlink:href="main_8cpp.html" target="_top" xlink:title=" ">
<polygon fill="white" stroke="#666666" points="304.2,-19 228.2,-19 228.2,0 304.2,0 304.2,-19"/>
<text text-anchor="middle" x="266.2" y="-7" font-family="Helvetica,sans-Serif" font-size="10.00">cli/main.cpp</text>
</a>
</g>
</g>
<!-- Node1&#45;&gt;Node2 -->
<g id="edge1" class="edge">
<title>Node1&#45;&gt;Node2</title>
<path fill="none" stroke="#63b8ff" d="M411.26,-117.3C296.13,-114.13 31.14,-103.67 4.2,-74 -1.48,-67.75 -1.25,-61.45 4.2,-55 32.41,-21.6 162.42,-13.26 228.06,-11.19"/>
<polygon fill="#63b8ff" stroke="#63b8ff" points="411.5,-120.8 421.59,-117.57 411.69,-113.81 411.5,-120.8"/>
</g>
<!-- Node3 -->
<g id="node3" class="node">
<title>Node3</title>
<g id="a_node3"><a xlink:href="opt_8cpp.html" target="_top" xlink:title=" ">
<polygon fill="white" stroke="#666666" points="126.7,-74 13.7,-74 13.7,-55 126.7,-55 126.7,-74"/>
<text text-anchor="middle" x="70.2" y="-62" font-family="Helvetica,sans-Serif" font-size="10.00">dialects/opt/opt.cpp</text>
</a>
</g>
</g>
<!-- Node1&#45;&gt;Node3 -->
<g id="edge2" class="edge">
<title>Node1&#45;&gt;Node3</title>
<path fill="none" stroke="#63b8ff" d="M411.62,-111.43C337.54,-101.46 202.99,-83.36 126.79,-73.11"/>
<polygon fill="#63b8ff" stroke="#63b8ff" points="411.28,-114.91 421.66,-112.78 412.22,-107.98 411.28,-114.91"/>
</g>
<!-- Node4 -->
<g id="node4" class="node">
<title>Node4</title>
<g id="a_node4"><a xlink:href="bootstrap_8cpp.html" target="_top" xlink:title=" ">
<polygon fill="white" stroke="#666666" points="283.7,-74 144.7,-74 144.7,-55 283.7,-55 283.7,-74"/>
<text text-anchor="middle" x="214.2" y="-62" font-family="Helvetica,sans-Serif" font-size="10.00">thorin/be/h/bootstrap.cpp</text>
</a>
</g>
</g>
<!-- Node1&#45;&gt;Node4 -->
<g id="edge3" class="edge">
<title>Node1&#45;&gt;Node4</title>
<path fill="none" stroke="#63b8ff" d="M414.1,-107.88C367.24,-97.94 298.14,-83.3 254.68,-74.08"/>
<polygon fill="#63b8ff" stroke="#63b8ff" points="413.52,-111.33 424.03,-109.98 414.98,-104.49 413.52,-111.33"/>
</g>
<!-- Node5 -->
<g id="node5" class="node">
<title>Node5</title>
<g id="a_node5"><a xlink:href="driver_8cpp.html" target="_top" xlink:title=" ">
<polygon fill="white" stroke="#666666" points="398.2,-74 302.2,-74 302.2,-55 398.2,-55 398.2,-74"/>
<text text-anchor="middle" x="350.2" y="-62" font-family="Helvetica,sans-Serif" font-size="10.00">thorin/driver.cpp</text>
</a>
</g>
</g>
<!-- Node1&#45;&gt;Node5 -->
<g id="edge4" class="edge">
<title>Node1&#45;&gt;Node5</title>
<path fill="none" stroke="#63b8ff" d="M436.81,-105.77C415.78,-95.99 387.31,-82.75 368.85,-74.17"/>
<polygon fill="#63b8ff" stroke="#63b8ff" points="435.34,-108.94 445.88,-109.98 438.29,-102.6 435.34,-108.94"/>
</g>
<!-- Node6 -->
<g id="node6" class="node">
<title>Node6</title>
<g id="a_node6"><a xlink:href="dump_8cpp.html" target="_top" xlink:title=" ">
<polygon fill="white" stroke="#666666" points="512.2,-74 416.2,-74 416.2,-55 512.2,-55 512.2,-74"/>
<text text-anchor="middle" x="464.2" y="-62" font-family="Helvetica,sans-Serif" font-size="10.00">thorin/dump.cpp</text>
</a>
</g>
</g>
<!-- Node1&#45;&gt;Node6 -->
<g id="edge5" class="edge">
<title>Node1&#45;&gt;Node6</title>
<path fill="none" stroke="#63b8ff" d="M464.2,-99.66C464.2,-90.93 464.2,-80.99 464.2,-74.09"/>
<polygon fill="#63b8ff" stroke="#63b8ff" points="460.7,-99.75 464.2,-109.75 467.7,-99.75 460.7,-99.75"/>
</g>
<!-- Node7 -->
<g id="node7" class="node">
<title>Node7</title>
<g id="a_node7"><a xlink:href="parser_8cpp.html" target="_top" xlink:title=" ">
<polygon fill="white" stroke="#666666" points="674.7,-19 563.7,-19 563.7,0 674.7,0 674.7,-19"/>
<text text-anchor="middle" x="619.2" y="-7" font-family="Helvetica,sans-Serif" font-size="10.00">thorin/fe/parser.cpp</text>
</a>
</g>
</g>
<!-- Node1&#45;&gt;Node7 -->
<g id="edge6" class="edge">
<title>Node1&#45;&gt;Node7</title>
<path fill="none" stroke="#63b8ff" d="M516.82,-112.24C562.71,-105.56 624.22,-93.27 639.2,-74 652.11,-57.39 636.56,-32.3 626.48,-19.19"/>
<polygon fill="#63b8ff" stroke="#63b8ff" points="516.12,-108.8 506.71,-113.65 517.09,-115.73 516.12,-108.8"/>
</g>
<!-- Node8 -->
<g id="node8" class="node">
<title>Node8</title>
<g id="a_node8"><a xlink:href="parser_8h.html" target="_top" xlink:title=" ">
<polygon fill="white" stroke="#666666" points="630.2,-74 530.2,-74 530.2,-55 630.2,-55 630.2,-74"/>
<text text-anchor="middle" x="580.2" y="-62" font-family="Helvetica,sans-Serif" font-size="10.00">thorin/fe/parser.h</text>
</a>
</g>
</g>
<!-- Node1&#45;&gt;Node8 -->
<g id="edge7" class="edge">
<title>Node1&#45;&gt;Node8</title>
<path fill="none" stroke="#63b8ff" d="M492.07,-105.77C513.47,-95.99 542.44,-82.75 561.22,-74.17"/>
<polygon fill="#63b8ff" stroke="#63b8ff" points="490.48,-102.65 482.84,-109.98 493.39,-109.01 490.48,-102.65"/>
</g>
<!-- Node9 -->
<g id="node9" class="node">
<title>Node9</title>
<g id="a_node9"><a xlink:href="optimize_8cpp.html" target="_top" xlink:title=" ">
<polygon fill="white" stroke="#666666" points="823.7,-74 686.7,-74 686.7,-55 823.7,-55 823.7,-74"/>
<text text-anchor="middle" x="755.2" y="-62" font-family="Helvetica,sans-Serif" font-size="10.00">thorin/pass/optimize.cpp</text>
</a>
</g>
</g>
<!-- Node1&#45;&gt;Node9 -->
<g id="edge10" class="edge">
<title>Node1&#45;&gt;Node9</title>
<path fill="none" stroke="#63b8ff" d="M516.98,-108.89C571.5,-98.96 655.79,-83.61 708.12,-74.08"/>
<polygon fill="#63b8ff" stroke="#63b8ff" points="516.04,-105.5 506.83,-110.74 517.29,-112.39 516.04,-105.5"/>
</g>
<!-- Node10 -->
<g id="node10" class="node">
<title>Node10</title>
<g id="a_node10"><a xlink:href="world_8cpp.html" target="_top" xlink:title=" ">
<polygon fill="white" stroke="#666666" points="936.7,-74 841.7,-74 841.7,-55 936.7,-55 936.7,-74"/>
<text text-anchor="middle" x="889.2" y="-62" font-family="Helvetica,sans-Serif" font-size="10.00">thorin/world.cpp</text>
</a>
</g>
</g>
<!-- Node1&#45;&gt;Node10 -->
<g id="edge11" class="edge">
<title>Node1&#45;&gt;Node10</title>
<path fill="none" stroke="#63b8ff" d="M517,-112.65C588.68,-104.58 720.77,-89.31 833.2,-74 835.93,-73.63 838.73,-73.24 841.56,-72.83"/>
<polygon fill="#63b8ff" stroke="#63b8ff" points="516.42,-109.19 506.87,-113.78 517.2,-116.15 516.42,-109.19"/>
</g>
<!-- Node8&#45;&gt;Node2 -->
<g id="edge8" class="edge">
<title>Node8&#45;&gt;Node2</title>
<path fill="none" stroke="#63b8ff" d="M520.2,-53.37C456.57,-42.63 357.99,-25.99 304.27,-16.93"/>
<polygon fill="#63b8ff" stroke="#63b8ff" points="519.66,-56.83 530.1,-55.04 520.82,-49.93 519.66,-56.83"/>
</g>
<!-- Node8&#45;&gt;Node7 -->
<g id="edge9" class="edge">
<title>Node8&#45;&gt;Node7</title>
<path fill="none" stroke="#63b8ff" d="M592.58,-46.67C599.34,-37.5 607.41,-26.52 612.88,-19.09"/>
<polygon fill="#63b8ff" stroke="#63b8ff" points="589.75,-44.62 586.64,-54.75 595.39,-48.77 589.75,-44.62"/>
</g>
</g>
</svg>
        <g id="navigator" transform="translate(0 0)" fill="#404254">
                <rect fill="#f2f5e9" fill-opacity="0.5" stroke="#606060" stroke-width=".5" x="0" y="0" width="60" height="60"/>
                <use id="zoomplus" xlink:href="#zoomPlus" x="17" y="9" onmousedown="handleZoom(evt,'in')"/>
                <use id="zoomminus" xlink:href="#zoomMin" x="42" y="9" onmousedown="handleZoom(evt,'out')"/>
                <use id="reset" xlink:href="#resetDef" x="30" y="36" onmousedown="handleReset()"/>
                <g id="arrowUp" xlink:href="#dirArrow" transform="translate(30 24)" onmousedown="handlePan(0,-1)">
                  <use xlink:href="#rim" fill="#404040">
                        <set attributeName="fill" to="#808080" begin="arrowUp.mouseover" end="arrowUp.mouseout"/>
                  </use>
                  <path fill="none" stroke="white" stroke-width="1.5" d="M0,-3.0v7 M-2.5,-0.5L0,-3.0L2.5,-0.5"/>
                </g>
                <g id="arrowRight" xlink:href="#dirArrow" transform="rotate(90) translate(36 -43)" onmousedown="handlePan(1,0)">
                  <use xlink:href="#rim" fill="#404040">
                        <set attributeName="fill" to="#808080" begin="arrowRight.mouseover" end="arrowRight.mouseout"/>
                  </use>
                  <path fill="none" stroke="white" stroke-width="1.5" d="M0,-3.0v7 M-2.5,-0.5L0,-3.0L2.5,-0.5"/>
                </g>
                <g id="arrowDown" xlink:href="#dirArrow" transform="rotate(180) translate(-30 -48)" onmousedown="handlePan(0,1)">
                  <use xlink:href="#rim" fill="#404040">
                        <set attributeName="fill" to="#808080" begin="arrowDown.mouseover" end="arrowDown.mouseout"/>
                  </use>
                  <path fill="none" stroke="white" stroke-width="1.5" d="M0,-3.0v7 M-2.5,-0.5L0,-3.0L2.5,-0.5"/>
                </g>
                <g id="arrowLeft" xlink:href="#dirArrow" transform="rotate(270) translate(-36 17)" onmousedown="handlePan(-1,0)">
                  <use xlink:href="#rim" fill="#404040">
                        <set attributeName="fill" to="#808080" begin="arrowLeft.mouseover" end="arrowLeft.mouseout"/>
                  </use>
                  <path fill="none" stroke="white" stroke-width="1.5" d="M0,-3.0v7 M-2.5,-0.5L0,-3.0L2.5,-0.5"/>
                </g>
        </g>
        <svg viewBox="0 0 15 15" width="100%" height="30px" preserveAspectRatio="xMaxYMin meet">
         <g id="arrow_out" transform="scale(0.3 0.3)">
          <a xlink:href="driver_8h__dep__incl_org.svg" target="_base">
           <rect id="button" ry="5" rx="5" y="6" x="6" height="38" width="38"
                fill="#f2f5e9" fill-opacity="0.5" stroke="#606060" stroke-width="1.0"/>
           <path id="arrow"
             d="M 11.500037,31.436501 C 11.940474,20.09759 22.043105,11.32322 32.158766,21.979434 L 37.068811,17.246167 C 37.068811,17.246167 37.088388,32 37.088388,32 L 22.160133,31.978069 C 22.160133,31.978069 26.997745,27.140456 26.997745,27.140456 C 18.528582,18.264221 13.291696,25.230495 11.500037,31.436501 z"
             style="fill:#404040;"/>
          </a>
         </g>
        </svg>
</svg>
