<?xml version="1.0" encoding="UTF-8" standalone="no"?>
<!DOCTYPE svg PUBLIC "-//W3C//DTD SVG 1.1//EN"
 "http://www.w3.org/Graphics/SVG/1.1/DTD/svg11.dtd">
<!-- Generated by graphviz version 2.43.0 (0)
 -->
<!-- Title: include/thorin/driver.h Pages: 1 -->
<!--zoomable 148 -->

<svg id="main" version="1.1" xmlns="http://www.w3.org/2000/svg" xmlns:xlink="http://www.w3.org/1999/xlink" xml:space="preserve" onload="init(evt)">
<style type="text/css"><![CDATA[
.node, .edge {opacity: 0.7;}
.node.selected, .edge.selected {opacity: 1;}
.edge:hover path { stroke: red; }
.edge:hover polygon { stroke: red; fill: red; }
]]></style>

<defs>
  <circle id="rim" cx="0" cy="0" r="7"/>
  <circle id="rim2" cx="0" cy="0" r="3.5"/>
  <g id="zoomPlus">
    <use xlink:href="#rim" fill="#404040"><set attributeName="fill" to="#808080" begin="zoomplus.mouseover" end="zoomplus.mouseout"/></use>
    <path d="M-4,0h8M0,-4v8" fill="none" stroke="white" stroke-width="1.5" pointer-events="none"/>
  </g>
  <g id="zoomMin">
    <use xlink:href="#rim" fill="#404040"><set attributeName="fill" to="#808080" begin="zoomminus.mouseover" end="zoomminus.mouseout"/></use>
    <path d="M-4,0h8" fill="none" stroke="white" stroke-width="1.5" pointer-events="none"/>
  </g>
  <g id="arrowUp" transform="translate(30 24)">
    <use xlink:href="#rim"/>
    <path pointer-events="none" fill="none" stroke="white" stroke-width="1.5" d="M0,-3.0v7 M-2.5,-0.5L0,-3.0L2.5,-0.5"/>
  </g>
  <g id="arrowRight" transform="rotate(90) translate(36 -43)">
    <use xlink:href="#rim"/>
    <path pointer-events="none" fill="none" stroke="white" stroke-width="1.5" d="M0,-3.0v7 M-2.5,-0.5L0,-3.0L2.5,-0.5"/>
  </g>
  <g id="arrowDown" transform="rotate(180) translate(-30 -48)">
    <use xlink:href="#rim"/>
    <path pointer-events="none" fill="none" stroke="white" stroke-width="1.5" d="M0,-3.0v7 M-2.5,-0.5L0,-3.0L2.5,-0.5"/>
  </g>
  <g id="arrowLeft" transform="rotate(270) translate(-36 17)">
    <use xlink:href="#rim"/>
    <path pointer-events="none" fill="none" stroke="white" stroke-width="1.5" d="M0,-3.0v7 M-2.5,-0.5L0,-3.0L2.5,-0.5"/>
  </g>
  <g id="resetDef">
    <use xlink:href="#rim2" fill="#404040"><set attributeName="fill" to="#808080" begin="reset.mouseover" end="reset.mouseout"/></use>
  </g>
</defs>
<script type="application/ecmascript">
var viewWidth = 1123;
var viewHeight = 148;
var sectionId = 'dynsection-1';
</script>
<script type="application/ecmascript" xlink:href="svg.min.js"/>
<svg id="graph" class="graph">
<g id="viewport">
<title>include/thorin/driver.h</title>
<!-- Node1 -->
<g id="Node000001" class="node">
<title>Node1</title>
<g id="a_Node000001"><a xlink:title=" ">
<polygon fill="#999999" stroke="#666666" points="562,-140 439,-140 439,-121 562,-121 562,-140"/>
<text text-anchor="middle" x="500.5" y="-128" font-family="Helvetica,sans-Serif" font-size="10.00">include/thorin/driver.h</text>
</a>
</g>
</g>
<!-- Node2 -->
<g id="Node000002" class="node">
<title>Node2</title>
<g id="a_Node000002"><a xlink:href="parser_8h.html" target="_top" xlink:title=" ">
<polygon fill="white" stroke="#666666" points="195.5,-79.5 57.5,-79.5 57.5,-60.5 195.5,-60.5 195.5,-79.5"/>
<text text-anchor="middle" x="126.5" y="-67.5" font-family="Helvetica,sans-Serif" font-size="10.00">include/thorin/fe/parser.h</text>
</a>
</g>
</g>
<!-- Node1&#45;&gt;Node2 -->
<g id="edge1_Node000001_Node000002" class="edge">
<title>Node1&#45;&gt;Node2</title>
<g id="a_edge1_Node000001_Node000002"><a xlink:title=" ">
<path fill="none" stroke="#63b8ff" d="M435.81,-119.38C363.76,-108.11 248.56,-90.09 180.95,-79.52"/>
<polygon fill="#63b8ff" stroke="#63b8ff" points="435.7,-122.91 446.12,-120.99 436.78,-115.99 435.7,-122.91"/>
</a>
</g>
</g>
<!-- Node3 -->
<g id="Node000003" class="node">
<title>Node3</title>
<g id="a_Node000003"><a xlink:href="main_8cpp.html" target="_top" xlink:title=" ">
<polygon fill="white" stroke="#666666" points="125,-19 0,-19 0,0 125,0 125,-19"/>
<text text-anchor="middle" x="62.5" y="-7" font-family="Helvetica,sans-Serif" font-size="10.00">src/thorin/cli/main.cpp</text>
</a>
</g>
</g>
<!-- Node1&#45;&gt;Node3 -->
<g id="edge6_Node000001_Node000003" class="edge">
<title>Node1&#45;&gt;Node3</title>
<g id="a_edge6_Node000001_Node000003"><a xlink:title=" ">
<path fill="none" stroke="#63b8ff" d="M428.48,-127.61C307.34,-123.68 73.49,-112.57 48.5,-85 31.71,-66.47 47.55,-34.41 56.84,-19.11"/>
<polygon fill="#63b8ff" stroke="#63b8ff" points="428.67,-131.12 438.78,-127.93 428.9,-124.12 428.67,-131.12"/>
</a>
</g>
</g>
<!-- Node4 -->
<g id="Node000004" class="node">
<title>Node4</title>
<g id="a_Node000004"><a xlink:href="parser_8cpp.html" target="_top" xlink:title=" ">
<polygon fill="white" stroke="#666666" points="288.5,-19 160.5,-19 160.5,0 288.5,0 288.5,-19"/>
<text text-anchor="middle" x="224.5" y="-7" font-family="Helvetica,sans-Serif" font-size="10.00">src/thorin/fe/parser.cpp</text>
</a>
</g>
</g>
<!-- Node1&#45;&gt;Node4 -->
<g id="edge9_Node000001_Node000004" class="edge">
<title>Node1&#45;&gt;Node4</title>
<g id="a_edge9_Node000001_Node000004"><a xlink:title=" ">
<path fill="none" stroke="#63b8ff" d="M428.83,-123.36C367.95,-116.87 286.43,-104.79 260.5,-85 238.58,-68.26 229.29,-34.73 226.01,-19"/>
<polygon fill="#63b8ff" stroke="#63b8ff" points="428.49,-126.84 438.79,-124.39 429.21,-119.88 428.49,-126.84"/>
</a>
</g>
</g>
<!-- Node5 -->
<g id="Node000005" class="node">
<title>Node5</title>
<g id="a_Node000005"><a xlink:href="bootstrap_8cpp.html" target="_top" xlink:title=" ">
<polygon fill="white" stroke="#666666" points="425.5,-79.5 269.5,-79.5 269.5,-60.5 425.5,-60.5 425.5,-79.5"/>
<text text-anchor="middle" x="347.5" y="-67.5" font-family="Helvetica,sans-Serif" font-size="10.00">src/thorin/be/h/bootstrap.cpp</text>
</a>
</g>
</g>
<!-- Node1&#45;&gt;Node5 -->
<g id="edge5_Node000001_Node000005" class="edge">
<title>Node1&#45;&gt;Node5</title>
<g id="a_edge5_Node000001_Node000005"><a xlink:title=" ">
<path fill="none" stroke="#63b8ff" d="M468.8,-117.38C439.22,-106.07 395.85,-89.49 369.77,-79.52"/>
<polygon fill="#63b8ff" stroke="#63b8ff" points="467.66,-120.69 478.25,-120.99 470.16,-114.15 467.66,-120.69"/>
</a>
</g>
</g>
<!-- Node6 -->
<g id="Node000006" class="node">
<title>Node6</title>
<g id="a_Node000006"><a xlink:href="driver_8cpp.html" target="_top" xlink:title=" ">
<polygon fill="white" stroke="#666666" points="557,-79.5 444,-79.5 444,-60.5 557,-60.5 557,-79.5"/>
<text text-anchor="middle" x="500.5" y="-67.5" font-family="Helvetica,sans-Serif" font-size="10.00">src/thorin/driver.cpp</text>
</a>
</g>
</g>
<!-- Node1&#45;&gt;Node6 -->
<g id="edge7_Node000001_Node000006" class="edge">
<title>Node1&#45;&gt;Node6</title>
<g id="a_edge7_Node000001_Node000006"><a xlink:title=" ">
<path fill="none" stroke="#63b8ff" d="M500.5,-110.66C500.5,-100.24 500.5,-87.8 500.5,-79.67"/>
<polygon fill="#63b8ff" stroke="#63b8ff" points="497,-110.87 500.5,-120.87 504,-110.87 497,-110.87"/>
</a>
</g>
</g>
<!-- Node7 -->
<g id="Node000007" class="node">
<title>Node7</title>
<g id="a_Node000007"><a xlink:href="dump_8cpp.html" target="_top" xlink:title=" ">
<polygon fill="white" stroke="#666666" points="688,-79.5 575,-79.5 575,-60.5 688,-60.5 688,-79.5"/>
<text text-anchor="middle" x="631.5" y="-67.5" font-family="Helvetica,sans-Serif" font-size="10.00">src/thorin/dump.cpp</text>
</a>
</g>
</g>
<!-- Node1&#45;&gt;Node7 -->
<g id="edge8_Node000001_Node000007" class="edge">
<title>Node1&#45;&gt;Node7</title>
<g id="a_edge8_Node000001_Node000007"><a xlink:title=" ">
<path fill="none" stroke="#63b8ff" d="M528.98,-116.78C554.26,-105.49 590.49,-89.31 612.43,-79.52"/>
<polygon fill="#63b8ff" stroke="#63b8ff" points="527.25,-113.72 519.55,-120.99 530.11,-120.11 527.25,-113.72"/>
</a>
</g>
</g>
<!-- Node8 -->
<g id="Node000008" class="node">
<title>Node8</title>
<g id="a_Node000008"><a xlink:href="optimize_8cpp.html" target="_top" xlink:title=" ">
<polygon fill="white" stroke="#666666" points="860.5,-79.5 706.5,-79.5 706.5,-60.5 860.5,-60.5 860.5,-79.5"/>
<text text-anchor="middle" x="783.5" y="-67.5" font-family="Helvetica,sans-Serif" font-size="10.00">src/thorin/pass/optimize.cpp</text>
</a>
</g>
</g>
<!-- Node1&#45;&gt;Node8 -->
<g id="edge10_Node000001_Node000008" class="edge">
<title>Node1&#45;&gt;Node8</title>
<g id="a_edge10_Node000001_Node000008"><a xlink:title=" ">
<path fill="none" stroke="#63b8ff" d="M551.47,-118.96C606.1,-107.67 691.77,-89.96 742.3,-79.52"/>
<polygon fill="#63b8ff" stroke="#63b8ff" points="550.74,-115.54 541.65,-120.99 552.15,-122.4 550.74,-115.54"/>
</a>
</g>
</g>
<!-- Node9 -->
<g id="Node000009" class="node">
<title>Node9</title>
<g id="a_Node000009"><a xlink:href="opt_8cpp.html" target="_top" xlink:title=" ">
<polygon fill="white" stroke="#666666" points="984,-85 879,-85 879,-55 984,-55 984,-85"/>
<text text-anchor="start" x="887" y="-73" font-family="Helvetica,sans-Serif" font-size="10.00">src/thorin/plug/opt</text>
<text text-anchor="middle" x="931.5" y="-62" font-family="Helvetica,sans-Serif" font-size="10.00">/opt.cpp</text>
</a>
</g>
</g>
<!-- Node1&#45;&gt;Node9 -->
<g id="edge11_Node000001_Node000009" class="edge">
<title>Node1&#45;&gt;Node9</title>
<g id="a_edge11_Node000001_Node000009"><a xlink:title=" ">
<path fill="none" stroke="#63b8ff" d="M572.37,-123.02C646.97,-115.79 766.87,-102.73 869.5,-85 872.54,-84.47 875.67,-83.9 878.81,-83.28"/>
<polygon fill="#63b8ff" stroke="#63b8ff" points="571.77,-119.57 562.15,-124.01 572.44,-126.53 571.77,-119.57"/>
</a>
</g>
</g>
<!-- Node10 -->
<g id="Node000010" class="node">
<title>Node10</title>
<g id="a_Node000010"><a xlink:href="world_8cpp.html" target="_top" xlink:title=" ">
<polygon fill="white" stroke="#666666" points="1115,-79.5 1002,-79.5 1002,-60.5 1115,-60.5 1115,-79.5"/>
<text text-anchor="middle" x="1058.5" y="-67.5" font-family="Helvetica,sans-Serif" font-size="10.00">src/thorin/world.cpp</text>
</a>
</g>
</g>
<!-- Node1&#45;&gt;Node10 -->
<g id="edge12_Node000001_Node000010" class="edge">
<title>Node1&#45;&gt;Node10</title>
<g id="a_edge12_Node000001_Node000010"><a xlink:title=" ">
<path fill="none" stroke="#63b8ff" d="M572.48,-125.76C668.8,-120.14 844.72,-107.65 993.5,-85 1002.97,-83.56 1013.13,-81.58 1022.54,-79.56"/>
<polygon fill="#63b8ff" stroke="#63b8ff" points="572.06,-122.28 562.28,-126.35 572.46,-129.27 572.06,-122.28"/>
</a>
</g>
</g>
<!-- Node2&#45;&gt;Node2 -->
<g id="edge2_Node000002_Node000002" class="edge">
<title>Node2&#45;&gt;Node2</title>
<g id="a_edge2_Node000002_Node000002"><a xlink:title=" ">
<path fill="none" stroke="#63b8ff" d="M168.69,-80.72C192.03,-82.7 213.5,-79.13 213.5,-70 213.5,-59.57 185.46,-56.39 158.62,-60.47"/>
<polygon fill="#63b8ff" stroke="#63b8ff" points="168.96,-77.23 158.62,-79.53 168.14,-84.18 168.96,-77.23"/>
</a>
</g>
</g>
<!-- Node2&#45;&gt;Node3 -->
<g id="edge3_Node000002_Node000003" class="edge">
<title>Node2&#45;&gt;Node3</title>
<g id="a_edge3_Node000002_Node000003"><a xlink:title=" ">
<path fill="none" stroke="#63b8ff" d="M109.44,-53.41C97.44,-42.44 81.83,-28.17 71.98,-19.17"/>
<polygon fill="#63b8ff" stroke="#63b8ff" points="107.31,-56.2 117.06,-60.37 112.04,-51.04 107.31,-56.2"/>
</a>
</g>
</g>
<!-- Node2&#45;&gt;Node4 -->
<g id="edge4_Node000002_Node000004" class="edge">
<title>Node2&#45;&gt;Node4</title>
<g id="a_edge4_Node000002_Node000004"><a xlink:title=" ">
<path fill="none" stroke="#63b8ff" d="M149.75,-55.12C168.44,-43.96 194.11,-28.64 209.98,-19.17"/>
<polygon fill="#63b8ff" stroke="#63b8ff" points="147.75,-52.24 140.96,-60.37 151.34,-58.25 147.75,-52.24"/>
</a>
</g>
</g>
</g>
</svg>

<g id="navigator" transform="translate(0 0)" fill="#404254">
  <rect fill="#f2f5e9" fill-opacity="0.5" stroke="#606060" stroke-width=".5" x="0" y="0" width="60" height="60"/>
  <use id="zoomplus" xlink:href="#zoomPlus" x="17" y="9" onmousedown="handleZoom(evt,'in')"/>
  <use id="zoomminus" xlink:href="#zoomMin" x="42" y="9" onmousedown="handleZoom(evt,'out')"/>
  <use id="reset" xlink:href="#resetDef" x="30" y="36" onmousedown="handleReset()"/>
   <use id="arrowup" xlink:href="#arrowUp" x="0" y="0" onmousedown="handlePan(0,-1)"/>
  <use id="arrowright" xlink:href="#arrowRight" x="0" y="0" onmousedown="handlePan(1,0)"/>
  <use id="arrowdown" xlink:href="#arrowDown" x="0" y="0" onmousedown="handlePan(0,1)"/>
  <use id="arrowleft" xlink:href="#arrowLeft" x="0" y="0" onmousedown="handlePan(-1,0)"/>
</g>
<svg viewBox="0 0 15 15" width="100%" height="30px" preserveAspectRatio="xMaxYMin meet">
 <g id="arrow_out" transform="scale(0.3 0.3)">
  <a xlink:href="driver_8h__dep__incl_org.svg" target="_base">
   <rect id="button" ry="5" rx="5" y="6" x="6" height="38" width="38"
        fill="#f2f5e9" fill-opacity="0.5" stroke="#606060" stroke-width="1.0"/>
   <path id="arrow"
     d="M 11.500037,31.436501 C 11.940474,20.09759 22.043105,11.32322 32.158766,21.979434 L 37.068811,17.246167 C 37.068811,17.246167 37.088388,32 37.088388,32 L 22.160133,31.978069 C 22.160133,31.978069 26.997745,27.140456 26.997745,27.140456 C 18.528582,18.264221 13.291696,25.230495 11.500037,31.436501 z"
     style="fill:#404040;"/>
  </a>
 </g>
</svg>

<style type='text/css'>
<![CDATA[
[data-mouse-over-selected='false'] { opacity: 0.7; }
[data-mouse-over-selected='true']  { opacity: 1.0; }
]]>
</style>
<script type="application/ecmascript"><![CDATA[
document.addEventListener('DOMContentLoaded', (event) => {
  highlightEdges();
  highlightAdjacentNodes();
});
]]></script>
</svg>
