<?xml version="1.0" encoding="UTF-8" standalone="no"?>
<!DOCTYPE svg PUBLIC "-//W3C//DTD SVG 1.1//EN"
 "http://www.w3.org/Graphics/SVG/1.1/DTD/svg11.dtd">
<!-- Generated by graphviz version 2.43.0 (0)
 -->
<!-- Title: thorin/driver.h Pages: 1 -->
<svg width="963pt" height="137pt"
 viewBox="0.00 0.00 962.70 137.00" xmlns="http://www.w3.org/2000/svg" xmlns:xlink="http://www.w3.org/1999/xlink">
<g id="graph0" class="graph" transform="scale(1 1) rotate(0) translate(4 133)">
<title>thorin/driver.h</title>
<!-- Node1 -->
<g id="Node000001" class="node">
<title>Node1</title>
<g id="a_Node000001"><a xlink:title=" ">
<polygon fill="#999999" stroke="#666666" points="506.7,-129 421.7,-129 421.7,-110 506.7,-110 506.7,-129"/>
<text text-anchor="middle" x="464.2" y="-117" font-family="Helvetica,sans-Serif" font-size="10.00">thorin/driver.h</text>
</a>
</g>
</g>
<!-- Node2 -->
<g id="Node000002" class="node">
<title>Node2</title>
<g id="a_Node000002"><a xlink:href="main_8cpp.html" target="_top" xlink:title=" ">
<polygon fill="white" stroke="#666666" points="313.2,-19 237.2,-19 237.2,0 313.2,0 313.2,-19"/>
<text text-anchor="middle" x="275.2" y="-7" font-family="Helvetica,sans-Serif" font-size="10.00">cli/main.cpp</text>
</a>
</g>
</g>
<!-- Node1&#45;&gt;Node2 -->
<g id="edge1_Node000001_Node000002" class="edge">
<title>Node1&#45;&gt;Node2</title>
<g id="a_edge1_Node000001_Node000002"><a xlink:title=" ">
<path fill="none" stroke="#63b8ff" d="M411.26,-117.3C296.14,-114.13 31.14,-103.67 4.2,-74 -1.47,-67.75 -1.26,-61.44 4.2,-55 33.64,-20.34 169.67,-12.62 237.1,-10.94"/>
<polygon fill="#63b8ff" stroke="#63b8ff" points="411.51,-120.8 421.6,-117.57 411.69,-113.81 411.51,-120.8"/>
</a>
</g>
</g>
<!-- Node3 -->
<g id="Node000003" class="node">
<title>Node3</title>
<g id="a_Node000003"><a xlink:href="opt_8cpp.html" target="_top" xlink:title=" ">
<polygon fill="white" stroke="#666666" points="126.7,-74 13.7,-74 13.7,-55 126.7,-55 126.7,-74"/>
<text text-anchor="middle" x="70.2" y="-62" font-family="Helvetica,sans-Serif" font-size="10.00">dialects/opt/opt.cpp</text>
</a>
</g>
</g>
<!-- Node1&#45;&gt;Node3 -->
<g id="edge2_Node000001_Node000003" class="edge">
<title>Node1&#45;&gt;Node3</title>
<g id="a_edge2_Node000001_Node000003"><a xlink:title=" ">
<path fill="none" stroke="#63b8ff" d="M411.63,-111.43C337.54,-101.46 203,-83.36 126.8,-73.11"/>
<polygon fill="#63b8ff" stroke="#63b8ff" points="411.29,-114.91 421.67,-112.78 412.22,-107.98 411.29,-114.91"/>
</a>
</g>
</g>
<!-- Node4 -->
<g id="Node000004" class="node">
<title>Node4</title>
<g id="a_Node000004"><a xlink:href="bootstrap_8cpp.html" target="_top" xlink:title=" ">
<polygon fill="white" stroke="#666666" points="283.7,-74 144.7,-74 144.7,-55 283.7,-55 283.7,-74"/>
<text text-anchor="middle" x="214.2" y="-62" font-family="Helvetica,sans-Serif" font-size="10.00">thorin/be/h/bootstrap.cpp</text>
</a>
</g>
</g>
<!-- Node1&#45;&gt;Node4 -->
<g id="edge3_Node000001_Node000004" class="edge">
<title>Node1&#45;&gt;Node4</title>
<g id="a_edge3_Node000001_Node000004"><a xlink:title=" ">
<path fill="none" stroke="#63b8ff" d="M414.1,-107.88C367.24,-97.94 298.15,-83.3 254.69,-74.08"/>
<polygon fill="#63b8ff" stroke="#63b8ff" points="413.53,-111.33 424.04,-109.98 414.98,-104.49 413.53,-111.33"/>
</a>
</g>
</g>
<!-- Node5 -->
<g id="Node000005" class="node">
<title>Node5</title>
<g id="a_Node000005"><a xlink:href="driver_8cpp.html" target="_top" xlink:title=" ">
<polygon fill="white" stroke="#666666" points="398.2,-74 302.2,-74 302.2,-55 398.2,-55 398.2,-74"/>
<text text-anchor="middle" x="350.2" y="-62" font-family="Helvetica,sans-Serif" font-size="10.00">thorin/driver.cpp</text>
</a>
</g>
</g>
<!-- Node1&#45;&gt;Node5 -->
<g id="edge4_Node000001_Node000005" class="edge">
<title>Node1&#45;&gt;Node5</title>
<g id="a_edge4_Node000001_Node000005"><a xlink:title=" ">
<path fill="none" stroke="#63b8ff" d="M436.81,-105.77C415.79,-95.99 387.31,-82.75 368.85,-74.17"/>
<polygon fill="#63b8ff" stroke="#63b8ff" points="435.35,-108.94 445.89,-109.98 438.3,-102.6 435.35,-108.94"/>
</a>
</g>
</g>
<!-- Node6 -->
<g id="Node000006" class="node">
<title>Node6</title>
<g id="a_Node000006"><a xlink:href="dump_8cpp.html" target="_top" xlink:title=" ">
<polygon fill="white" stroke="#666666" points="512.2,-74 416.2,-74 416.2,-55 512.2,-55 512.2,-74"/>
<text text-anchor="middle" x="464.2" y="-62" font-family="Helvetica,sans-Serif" font-size="10.00">thorin/dump.cpp</text>
</a>
</g>
</g>
<!-- Node1&#45;&gt;Node6 -->
<g id="edge5_Node000001_Node000006" class="edge">
<title>Node1&#45;&gt;Node6</title>
<g id="a_edge5_Node000001_Node000006"><a xlink:title=" ">
<path fill="none" stroke="#63b8ff" d="M464.2,-99.66C464.2,-90.93 464.2,-80.99 464.2,-74.09"/>
<polygon fill="#63b8ff" stroke="#63b8ff" points="460.7,-99.75 464.2,-109.75 467.7,-99.75 460.7,-99.75"/>
</a>
</g>
</g>
<!-- Node7 -->
<g id="Node000007" class="node">
<title>Node7</title>
<g id="a_Node000007"><a xlink:href="parser_8cpp.html" target="_top" xlink:title=" ">
<polygon fill="white" stroke="#666666" points="683.7,-19 572.7,-19 572.7,0 683.7,0 683.7,-19"/>
<text text-anchor="middle" x="628.2" y="-7" font-family="Helvetica,sans-Serif" font-size="10.00">thorin/fe/parser.cpp</text>
</a>
</g>
</g>
<!-- Node1&#45;&gt;Node7 -->
<g id="edge6_Node000001_Node000007" class="edge">
<title>Node1&#45;&gt;Node7</title>
<g id="a_edge6_Node000001_Node000007"><a xlink:title=" ">
<path fill="none" stroke="#63b8ff" d="M517.17,-113.6C568.15,-107.66 639.98,-95.65 657.2,-74 670.94,-56.74 650.49,-31.93 637.52,-19.02"/>
<polygon fill="#63b8ff" stroke="#63b8ff" points="516.51,-110.16 506.96,-114.75 517.29,-117.11 516.51,-110.16"/>
</a>
</g>
</g>
<!-- Node8 -->
<g id="Node000008" class="node">
<title>Node8</title>
<g id="a_Node000008"><a xlink:href="parser_8h.html" target="_top" xlink:title=" ">
<polygon fill="white" stroke="#666666" points="630.2,-74 530.2,-74 530.2,-55 630.2,-55 630.2,-74"/>
<text text-anchor="middle" x="580.2" y="-62" font-family="Helvetica,sans-Serif" font-size="10.00">thorin/fe/parser.h</text>
</a>
</g>
</g>
<!-- Node1&#45;&gt;Node8 -->
<g id="edge7_Node000001_Node000008" class="edge">
<title>Node1&#45;&gt;Node8</title>
<g id="a_edge7_Node000001_Node000008"><a xlink:title=" ">
<path fill="none" stroke="#63b8ff" d="M492.08,-105.77C513.47,-95.99 542.44,-82.75 561.23,-74.17"/>
<polygon fill="#63b8ff" stroke="#63b8ff" points="490.48,-102.65 482.84,-109.98 493.39,-109.01 490.48,-102.65"/>
</a>
</g>
</g>
<!-- Node9 -->
<g id="Node000009" class="node">
<title>Node9</title>
<g id="a_Node000009"><a xlink:href="optimize_8cpp.html" target="_top" xlink:title=" ">
<polygon fill="white" stroke="#666666" points="841.7,-74 704.7,-74 704.7,-55 841.7,-55 841.7,-74"/>
<text text-anchor="middle" x="773.2" y="-62" font-family="Helvetica,sans-Serif" font-size="10.00">thorin/pass/optimize.cpp</text>
</a>
</g>
</g>
<!-- Node1&#45;&gt;Node9 -->
<g id="edge11_Node000001_Node000009" class="edge">
<title>Node1&#45;&gt;Node9</title>
<g id="a_edge11_Node000001_Node000009"><a xlink:title=" ">
<path fill="none" stroke="#63b8ff" d="M516.88,-109.46C574.75,-99.54 666.98,-83.72 723.6,-74.01"/>
<polygon fill="#63b8ff" stroke="#63b8ff" points="516.11,-106.05 506.85,-111.19 517.29,-112.95 516.11,-106.05"/>
</a>
</g>
</g>
<!-- Node10 -->
<g id="Node000010" class="node">
<title>Node10</title>
<g id="a_Node000010"><a xlink:href="world_8cpp.html" target="_top" xlink:title=" ">
<polygon fill="white" stroke="#666666" points="954.7,-74 859.7,-74 859.7,-55 954.7,-55 954.7,-74"/>
<text text-anchor="middle" x="907.2" y="-62" font-family="Helvetica,sans-Serif" font-size="10.00">thorin/world.cpp</text>
</a>
</g>
</g>
<!-- Node1&#45;&gt;Node10 -->
<g id="edge12_Node000001_Node000010" class="edge">
<title>Node1&#45;&gt;Node10</title>
<g id="a_edge12_Node000001_Node000010"><a xlink:title=" ">
<path fill="none" stroke="#63b8ff" d="M517.01,-113.04C591.58,-105.19 731.96,-89.9 851.2,-74 853.93,-73.64 856.74,-73.25 859.56,-72.85"/>
<polygon fill="#63b8ff" stroke="#63b8ff" points="516.51,-109.57 506.93,-114.1 517.24,-116.53 516.51,-109.57"/>
</a>
</g>
</g>
<!-- Node8&#45;&gt;Node2 -->
<g id="edge8_Node000008_Node000002" class="edge">
<title>Node8&#45;&gt;Node2</title>
<g id="a_edge8_Node000008_Node000002"><a xlink:title=" ">
<path fill="none" stroke="#63b8ff" d="M521.28,-53.26C459.96,-42.6 365.74,-26.23 313.47,-17.15"/>
<polygon fill="#63b8ff" stroke="#63b8ff" points="520.75,-56.72 531.2,-54.98 521.95,-49.82 520.75,-56.72"/>
</a>
</g>
</g>
<!-- Node8&#45;&gt;Node7 -->
<g id="edge9_Node000008_Node000007" class="edge">
<title>Node8&#45;&gt;Node7</title>
<g id="a_edge9_Node000008_Node000007"><a xlink:title=" ">
<path fill="none" stroke="#63b8ff" d="M594.93,-47.24C603.34,-37.95 613.55,-26.68 620.43,-19.09"/>
<polygon fill="#63b8ff" stroke="#63b8ff" points="592.25,-44.99 588.13,-54.75 597.44,-49.69 592.25,-44.99"/>
</a>
</g>
</g>
<!-- Node8&#45;&gt;Node8 -->
<g id="edge10_Node000008_Node000008" class="edge">
<title>Node8&#45;&gt;Node8</title>
<g id="a_edge10_Node000008_Node000008"><a xlink:title=" ">
<path fill="none" stroke="#63b8ff" d="M622.31,-74.62C636.66,-74.69 648.2,-71.31 648.2,-64.5 648.2,-56.12 630.72,-52.94 612.03,-54.97"/>
<polygon fill="#63b8ff" stroke="#63b8ff" points="622.22,-71.11 612.03,-74.03 621.82,-78.1 622.22,-71.11"/>
</a>
</g>
</g>
</g>
</svg>
