<?xml version="1.0" encoding="UTF-8" standalone="no"?>
<!DOCTYPE svg PUBLIC "-//W3C//DTD SVG 1.1//EN"
 "http://www.w3.org/Graphics/SVG/1.1/DTD/svg11.dtd">
<!-- Generated by graphviz version 2.43.0 (0)
 -->
<!-- Title: thorin/be/emitter.h Pages: 1 -->
<svg width="1641pt" height="599pt"
 viewBox="0.00 0.00 1641.00 599.00" xmlns="http://www.w3.org/2000/svg" xmlns:xlink="http://www.w3.org/1999/xlink">
<g id="graph0" class="graph" transform="scale(1 1) rotate(0) translate(4 595)">
<title>thorin/be/emitter.h</title>
<!-- Node1 -->
<g id="node1" class="node">
<title>Node1</title>
<g id="a_node1"><a xlink:title=" ">
<polygon fill="#999999" stroke="#666666" points="1148,-591 1041,-591 1041,-572 1148,-572 1148,-591"/>
<text text-anchor="middle" x="1094.5" y="-579" font-family="Helvetica,sans-Serif" font-size="10.00">thorin/be/emitter.h</text>
</a>
</g>
</g>
<!-- Node2 -->
<g id="node2" class="node">
<title>Node2</title>
<g id="a_node2"><a xlink:href="world_8h.html" target="_top" xlink:title=" ">
<polygon fill="white" stroke="#666666" points="943.5,-426 859.5,-426 859.5,-407 943.5,-407 943.5,-426"/>
<text text-anchor="middle" x="901.5" y="-414" font-family="Helvetica,sans-Serif" font-size="10.00">thorin/world.h</text>
</a>
</g>
</g>
<!-- Node1&#45;&gt;Node2 -->
<g id="edge1" class="edge">
<title>Node1&#45;&gt;Node2</title>
<path fill="none" stroke="#63b8ff" d="M1118.97,-571.86C1134.77,-564.85 1154.09,-553.27 1163.5,-536 1172.42,-519.63 1172.13,-478.37 1156.5,-462 1129.36,-433.58 1020.29,-423.22 953.9,-419.51"/>
<polygon fill="#63b8ff" stroke="#63b8ff" points="953.8,-416 943.63,-418.97 953.43,-422.99 953.8,-416"/>
</g>
<!-- Node51 -->
<g id="node42" class="node">
<title>Node51</title>
<g id="a_node42"><a xlink:href="schedule_8h.html" target="_top" xlink:title=" ">
<polygon fill="white" stroke="#666666" points="672,-536 525,-536 525,-517 672,-517 672,-536"/>
<text text-anchor="middle" x="598.5" y="-524" font-family="Helvetica,sans-Serif" font-size="10.00">thorin/analyses/schedule.h</text>
</a>
</g>
</g>
<!-- Node1&#45;&gt;Node51 -->
<g id="edge67" class="edge">
<title>Node1&#45;&gt;Node51</title>
<path fill="none" stroke="#63b8ff" d="M1040.95,-574.78C954.77,-565.57 784.63,-547.39 682.28,-536.45"/>
<polygon fill="#63b8ff" stroke="#63b8ff" points="682.6,-532.97 672.28,-535.38 681.85,-539.93 682.6,-532.97"/>
</g>
<!-- Node56 -->
<g id="node47" class="node">
<title>Node56</title>
<g id="a_node47"><a xlink:href="phase_8h.html" target="_top" xlink:title=" ">
<polygon fill="white" stroke="#666666" points="1154,-536 1035,-536 1035,-517 1154,-517 1154,-536"/>
<text text-anchor="middle" x="1094.5" y="-524" font-family="Helvetica,sans-Serif" font-size="10.00">thorin/phase/phase.h</text>
</a>
</g>
</g>
<!-- Node1&#45;&gt;Node56 -->
<g id="edge79" class="edge">
<title>Node1&#45;&gt;Node56</title>
<path fill="none" stroke="#63b8ff" d="M1094.5,-571.75C1094.5,-564.8 1094.5,-554.85 1094.5,-546.13"/>
<polygon fill="#63b8ff" stroke="#63b8ff" points="1098,-546.09 1094.5,-536.09 1091,-546.09 1098,-546.09"/>
</g>
<!-- Node3 -->
<g id="node3" class="node">
<title>Node3</title>
<g id="a_node3"><a xlink:title=" ">
<polygon fill="#e0e0e0" stroke="#999999" points="558.5,-79.5 502.5,-79.5 502.5,-60.5 558.5,-60.5 558.5,-79.5"/>
<text text-anchor="middle" x="530.5" y="-67.5" font-family="Helvetica,sans-Serif" font-size="10.00">sstream</text>
</a>
</g>
</g>
<!-- Node2&#45;&gt;Node3 -->
<g id="edge2" class="edge">
<title>Node2&#45;&gt;Node3</title>
<path fill="none" stroke="#63b8ff" d="M859.42,-416C789.73,-415.6 646.8,-409.6 533.5,-371 456.3,-344.7 403.5,-323.05 403.5,-241.5 403.5,-241.5 403.5,-241.5 403.5,-184.5 403.5,-134.15 459.69,-100.56 497.32,-83.72"/>
<polygon fill="#63b8ff" stroke="#63b8ff" points="499.1,-86.76 506.91,-79.6 496.34,-80.33 499.1,-86.76"/>
</g>
<!-- Node4 -->
<g id="node4" class="node">
<title>Node4</title>
<g id="a_node4"><a xlink:title=" ">
<polygon fill="#e0e0e0" stroke="#999999" points="860.5,-79.5 816.5,-79.5 816.5,-60.5 860.5,-60.5 860.5,-79.5"/>
<text text-anchor="middle" x="838.5" y="-67.5" font-family="Helvetica,sans-Serif" font-size="10.00">string</text>
</a>
</g>
</g>
<!-- Node2&#45;&gt;Node4 -->
<g id="edge3" class="edge">
<title>Node2&#45;&gt;Node4</title>
<path fill="none" stroke="#63b8ff" d="M859.45,-413.37C769.16,-408.35 563.22,-394.44 542.5,-371 533.67,-361.01 537.82,-353.48 542.5,-341 543.57,-338.15 684.07,-177.82 686.5,-176 717.06,-153.11 732.8,-161.29 764.5,-140 787.38,-124.63 810.02,-102.17 824.11,-87.1"/>
<polygon fill="#63b8ff" stroke="#63b8ff" points="826.83,-89.31 831.01,-79.57 821.67,-84.58 826.83,-89.31"/>
</g>
<!-- Node5 -->
<g id="node5" class="node">
<title>Node5</title>
<g id="a_node5"><a xlink:title=" ">
<polygon fill="#e0e0e0" stroke="#999999" points="987,-365.5 914,-365.5 914,-346.5 987,-346.5 987,-365.5"/>
<text text-anchor="middle" x="950.5" y="-353.5" font-family="Helvetica,sans-Serif" font-size="10.00">string_view</text>
</a>
</g>
</g>
<!-- Node2&#45;&gt;Node5 -->
<g id="edge4" class="edge">
<title>Node2&#45;&gt;Node5</title>
<path fill="none" stroke="#63b8ff" d="M908.73,-406.87C916.04,-398.14 927.52,-384.43 936.6,-373.59"/>
<polygon fill="#63b8ff" stroke="#63b8ff" points="939.5,-375.58 943.24,-365.67 934.14,-371.09 939.5,-375.58"/>
</g>
<!-- Node6 -->
<g id="node6" class="node">
<title>Node6</title>
<g id="a_node6"><a xlink:title=" ">
<polygon fill="#e0e0e0" stroke="#999999" points="1119.5,-371 1005.5,-371 1005.5,-341 1119.5,-341 1119.5,-371"/>
<text text-anchor="start" x="1013.5" y="-359" font-family="Helvetica,sans-Serif" font-size="10.00">absl/container/btree</text>
<text text-anchor="middle" x="1062.5" y="-348" font-family="Helvetica,sans-Serif" font-size="10.00">_map.h</text>
</a>
</g>
</g>
<!-- Node2&#45;&gt;Node6 -->
<g id="edge5" class="edge">
<title>Node2&#45;&gt;Node6</title>
<path fill="none" stroke="#63b8ff" d="M924.91,-406.99C948.18,-398.54 984.57,-385.32 1014.08,-374.59"/>
<polygon fill="#63b8ff" stroke="#63b8ff" points="1015.59,-377.77 1023.79,-371.06 1013.2,-371.19 1015.59,-377.77"/>
</g>
<!-- Node7 -->
<g id="node7" class="node">
<title>Node7</title>
<g id="a_node7"><a xlink:title=" ">
<polygon fill="#e0e0e0" stroke="#999999" points="1251.5,-371 1137.5,-371 1137.5,-341 1251.5,-341 1251.5,-371"/>
<text text-anchor="start" x="1145.5" y="-359" font-family="Helvetica,sans-Serif" font-size="10.00">absl/container/btree</text>
<text text-anchor="middle" x="1194.5" y="-348" font-family="Helvetica,sans-Serif" font-size="10.00">_set.h</text>
</a>
</g>
</g>
<!-- Node2&#45;&gt;Node7 -->
<g id="edge6" class="edge">
<title>Node2&#45;&gt;Node7</title>
<path fill="none" stroke="#63b8ff" d="M943.79,-407.41C987.36,-399.03 1057.51,-385.42 1127.41,-371.2"/>
<polygon fill="#63b8ff" stroke="#63b8ff" points="1128.17,-374.62 1137.27,-369.2 1126.78,-367.76 1128.17,-374.62"/>
</g>
<!-- Node8 -->
<g id="node8" class="node">
<title>Node8</title>
<g id="a_node8"><a xlink:href="axiom_8h.html" target="_top" xlink:title=" ">
<polygon fill="white" stroke="#666666" points="639.5,-365.5 551.5,-365.5 551.5,-346.5 639.5,-346.5 639.5,-365.5"/>
<text text-anchor="middle" x="595.5" y="-353.5" font-family="Helvetica,sans-Serif" font-size="10.00">thorin/axiom.h</text>
</a>
</g>
</g>
<!-- Node2&#45;&gt;Node8 -->
<g id="edge7" class="edge">
<title>Node2&#45;&gt;Node8</title>
<path fill="none" stroke="#63b8ff" d="M859.23,-408.7C809.75,-400.56 725.42,-386.12 653.5,-371 648.87,-370.03 644.04,-368.95 639.23,-367.85"/>
<polygon fill="#63b8ff" stroke="#63b8ff" points="640,-364.43 629.47,-365.56 638.4,-371.25 640,-364.43"/>
</g>
<!-- Node14 -->
<g id="node14" class="node">
<title>Node14</title>
<g id="a_node14"><a xlink:href="config_8h.html" target="_top" xlink:title=" ">
<polygon fill="white" stroke="#666666" points="781.5,-195 695.5,-195 695.5,-176 781.5,-176 781.5,-195"/>
<text text-anchor="middle" x="738.5" y="-183" font-family="Helvetica,sans-Serif" font-size="10.00">thorin/config.h</text>
</a>
</g>
</g>
<!-- Node2&#45;&gt;Node14 -->
<g id="edge55" class="edge">
<title>Node2&#45;&gt;Node14</title>
<path fill="none" stroke="#63b8ff" d="M859.3,-409.84C804.94,-399.86 714.16,-373.26 686.5,-305 674.15,-274.52 672.75,-260.87 686.5,-231 692.25,-218.52 703.41,-208.24 713.92,-200.71"/>
<polygon fill="#63b8ff" stroke="#63b8ff" points="716.07,-203.49 722.47,-195.05 712.2,-197.65 716.07,-203.49"/>
</g>
<!-- Node33 -->
<g id="node24" class="node">
<title>Node33</title>
<g id="a_node24"><a xlink:href="hash_8h.html" target="_top" xlink:title=" ">
<polygon fill="white" stroke="#666666" points="1372,-140 1273,-140 1273,-121 1372,-121 1372,-140"/>
<text text-anchor="middle" x="1322.5" y="-128" font-family="Helvetica,sans-Serif" font-size="10.00">thorin/util/hash.h</text>
</a>
</g>
</g>
<!-- Node2&#45;&gt;Node33 -->
<g id="edge62" class="edge">
<title>Node2&#45;&gt;Node33</title>
<path fill="none" stroke="#63b8ff" d="M943.56,-413.33C1034.8,-408.25 1248.15,-394.22 1316.5,-371 1376.66,-350.56 1438.5,-360.03 1438.5,-296.5 1438.5,-296.5 1438.5,-296.5 1438.5,-239.5 1438.5,-192.97 1387.89,-160.79 1353.52,-144.3"/>
<polygon fill="#63b8ff" stroke="#63b8ff" points="1354.87,-141.07 1344.32,-140.07 1351.94,-147.43 1354.87,-141.07"/>
</g>
<!-- Node44 -->
<g id="node35" class="node">
<title>Node44</title>
<g id="a_node35"><a xlink:href="sym_8h.html" target="_top" xlink:title=" ">
<polygon fill="white" stroke="#666666" points="1002,-140 905,-140 905,-121 1002,-121 1002,-140"/>
<text text-anchor="middle" x="953.5" y="-128" font-family="Helvetica,sans-Serif" font-size="10.00">thorin/util/sym.h</text>
</a>
</g>
</g>
<!-- Node2&#45;&gt;Node44 -->
<g id="edge66" class="edge">
<title>Node2&#45;&gt;Node44</title>
<path fill="none" stroke="#63b8ff" d="M943.55,-413.37C1033.84,-408.35 1239.78,-394.44 1260.5,-371 1269.33,-361.01 1267.08,-352.6 1260.5,-341 1198.17,-231.07 1116,-272.91 1016.5,-195 998.27,-180.73 979.91,-161.55 967.75,-148.01"/>
<polygon fill="#63b8ff" stroke="#63b8ff" points="970.28,-145.59 961.04,-140.41 965.04,-150.22 970.28,-145.59"/>
</g>
<!-- Node45 -->
<g id="node36" class="node">
<title>Node45</title>
<g id="a_node36"><a xlink:href="check_8h.html" target="_top" xlink:title=" ">
<polygon fill="white" stroke="#666666" points="895.5,-365.5 809.5,-365.5 809.5,-346.5 895.5,-346.5 895.5,-365.5"/>
<text text-anchor="middle" x="852.5" y="-353.5" font-family="Helvetica,sans-Serif" font-size="10.00">thorin/check.h</text>
</a>
</g>
</g>
<!-- Node2&#45;&gt;Node45 -->
<g id="edge52" class="edge">
<title>Node2&#45;&gt;Node45</title>
<path fill="none" stroke="#63b8ff" d="M894.27,-406.87C886.96,-398.14 875.48,-384.43 866.4,-373.59"/>
<polygon fill="#63b8ff" stroke="#63b8ff" points="868.86,-371.09 859.76,-365.67 863.5,-375.58 868.86,-371.09"/>
</g>
<!-- Node47 -->
<g id="node38" class="node">
<title>Node47</title>
<g id="a_node38"><a xlink:href="flags_8h.html" target="_top" xlink:title=" ">
<polygon fill="white" stroke="#666666" points="845.5,-250 765.5,-250 765.5,-231 845.5,-231 845.5,-250"/>
<text text-anchor="middle" x="805.5" y="-238" font-family="Helvetica,sans-Serif" font-size="10.00">thorin/flags.h</text>
</a>
</g>
</g>
<!-- Node2&#45;&gt;Node47 -->
<g id="edge56" class="edge">
<title>Node2&#45;&gt;Node47</title>
<path fill="none" stroke="#63b8ff" d="M859.47,-415.03C826.14,-412.16 781.47,-402.2 758.5,-371 750.6,-360.26 754.89,-353.83 758.5,-341 763.58,-322.95 772.15,-321.79 780.5,-305 787.84,-290.25 794.58,-272.79 799.21,-259.91"/>
<polygon fill="#63b8ff" stroke="#63b8ff" points="802.56,-260.93 802.57,-250.33 795.96,-258.61 802.56,-260.93"/>
</g>
<!-- Node48 -->
<g id="node39" class="node">
<title>Node48</title>
<g id="a_node39"><a xlink:href="lattice_8h.html" target="_top" xlink:title=" ">
<polygon fill="white" stroke="#666666" points="1015.5,-305 927.5,-305 927.5,-286 1015.5,-286 1015.5,-305"/>
<text text-anchor="middle" x="971.5" y="-293" font-family="Helvetica,sans-Serif" font-size="10.00">thorin/lattice.h</text>
</a>
</g>
</g>
<!-- Node2&#45;&gt;Node48 -->
<g id="edge58" class="edge">
<title>Node2&#45;&gt;Node48</title>
<path fill="none" stroke="#63b8ff" d="M859.24,-408.15C837.78,-402.05 813.53,-390.98 800.5,-371 793.22,-359.83 792.35,-351.55 800.5,-341 807.86,-331.48 870.39,-316.92 917.72,-307.07"/>
<polygon fill="#63b8ff" stroke="#63b8ff" points="918.48,-310.49 927.57,-305.05 917.07,-303.64 918.48,-310.49"/>
</g>
<!-- Node49 -->
<g id="node40" class="node">
<title>Node49</title>
<g id="a_node40"><a xlink:href="tuple_8h.html" target="_top" xlink:title=" ">
<polygon fill="white" stroke="#666666" points="909.5,-305 827.5,-305 827.5,-286 909.5,-286 909.5,-305"/>
<text text-anchor="middle" x="868.5" y="-293" font-family="Helvetica,sans-Serif" font-size="10.00">thorin/tuple.h</text>
</a>
</g>
</g>
<!-- Node2&#45;&gt;Node49 -->
<g id="edge60" class="edge">
<title>Node2&#45;&gt;Node49</title>
<path fill="none" stroke="#63b8ff" d="M859.18,-413.88C828.25,-410.2 788.23,-399.72 767.5,-371 759.7,-360.19 760.22,-352.17 767.5,-341 778.83,-323.63 798.63,-313 817.71,-306.5"/>
<polygon fill="#63b8ff" stroke="#63b8ff" points="818.75,-309.84 827.28,-303.55 816.69,-303.16 818.75,-309.84"/>
</g>
<!-- Node50 -->
<g id="node41" class="node">
<title>Node50</title>
<g id="a_node41"><a xlink:href="log_8h.html" target="_top" xlink:title=" ">
<polygon fill="white" stroke="#666666" points="1365,-250 1274,-250 1274,-231 1365,-231 1365,-250"/>
<text text-anchor="middle" x="1319.5" y="-238" font-family="Helvetica,sans-Serif" font-size="10.00">thorin/util/log.h</text>
</a>
</g>
</g>
<!-- Node2&#45;&gt;Node50 -->
<g id="edge63" class="edge">
<title>Node2&#45;&gt;Node50</title>
<path fill="none" stroke="#63b8ff" d="M943.78,-413.48C1039.82,-408.51 1268.09,-394.34 1293.5,-371 1324.38,-342.64 1324.41,-288.75 1321.91,-260.25"/>
<polygon fill="#63b8ff" stroke="#63b8ff" points="1325.36,-259.61 1320.81,-250.05 1318.4,-260.37 1325.36,-259.61"/>
</g>
<!-- Node9 -->
<g id="node9" class="node">
<title>Node9</title>
<g id="a_node9"><a xlink:href="lam_8h.html" target="_top" xlink:title=" ">
<polygon fill="white" stroke="#666666" points="771.5,-305 695.5,-305 695.5,-286 771.5,-286 771.5,-305"/>
<text text-anchor="middle" x="733.5" y="-293" font-family="Helvetica,sans-Serif" font-size="10.00">thorin/lam.h</text>
</a>
</g>
</g>
<!-- Node8&#45;&gt;Node9 -->
<g id="edge8" class="edge">
<title>Node8&#45;&gt;Node9</title>
<path fill="none" stroke="#63b8ff" d="M615.57,-346.49C638.87,-336.62 677.51,-320.23 704.18,-308.93"/>
<polygon fill="#63b8ff" stroke="#63b8ff" points="705.57,-312.14 713.41,-305.02 702.84,-305.7 705.57,-312.14"/>
</g>
<!-- Node43 -->
<g id="node34" class="node">
<title>Node43</title>
<g id="a_node34"><a xlink:href="assert_8h.html" target="_top" xlink:title=" ">
<polygon fill="white" stroke="#666666" points="682.5,-79.5 576.5,-79.5 576.5,-60.5 682.5,-60.5 682.5,-79.5"/>
<text text-anchor="middle" x="629.5" y="-67.5" font-family="Helvetica,sans-Serif" font-size="10.00">thorin/util/assert.h</text>
</a>
</g>
</g>
<!-- Node8&#45;&gt;Node43 -->
<g id="edge51" class="edge">
<title>Node8&#45;&gt;Node43</title>
<path fill="none" stroke="#63b8ff" d="M599.94,-346.43C609.16,-327.85 629.5,-282.23 629.5,-241.5 629.5,-241.5 629.5,-241.5 629.5,-184.5 629.5,-151.11 629.5,-112.19 629.5,-89.69"/>
<polygon fill="#63b8ff" stroke="#63b8ff" points="633,-89.54 629.5,-79.54 626,-89.54 633,-89.54"/>
</g>
<!-- Node10 -->
<g id="node10" class="node">
<title>Node10</title>
<g id="a_node10"><a xlink:title=" ">
<polygon fill="#e0e0e0" stroke="#999999" points="747,-250 696,-250 696,-231 747,-231 747,-250"/>
<text text-anchor="middle" x="721.5" y="-238" font-family="Helvetica,sans-Serif" font-size="10.00">variant</text>
</a>
</g>
</g>
<!-- Node9&#45;&gt;Node10 -->
<g id="edge9" class="edge">
<title>Node9&#45;&gt;Node10</title>
<path fill="none" stroke="#63b8ff" d="M731.52,-285.75C729.93,-278.72 727.64,-268.62 725.65,-259.84"/>
<polygon fill="#63b8ff" stroke="#63b8ff" points="729.07,-259.07 723.44,-250.09 722.24,-260.62 729.07,-259.07"/>
</g>
<!-- Node11 -->
<g id="node11" class="node">
<title>Node11</title>
<g id="a_node11"><a xlink:href="def_8h.html" target="_top" xlink:title=" ">
<polygon fill="white" stroke="#666666" points="935.5,-250 863.5,-250 863.5,-231 935.5,-231 935.5,-250"/>
<text text-anchor="middle" x="899.5" y="-238" font-family="Helvetica,sans-Serif" font-size="10.00">thorin/def.h</text>
</a>
</g>
</g>
<!-- Node9&#45;&gt;Node11 -->
<g id="edge10" class="edge">
<title>Node9&#45;&gt;Node11</title>
<path fill="none" stroke="#63b8ff" d="M760.17,-285.98C788.04,-277.09 831.95,-263.07 863.02,-253.15"/>
<polygon fill="#63b8ff" stroke="#63b8ff" points="864.16,-256.46 872.62,-250.08 862.03,-249.79 864.16,-256.46"/>
</g>
<!-- Node12 -->
<g id="node12" class="node">
<title>Node12</title>
<g id="a_node12"><a xlink:title=" ">
<polygon fill="#e0e0e0" stroke="#999999" points="969.5,-195 913.5,-195 913.5,-176 969.5,-176 969.5,-195"/>
<text text-anchor="middle" x="941.5" y="-183" font-family="Helvetica,sans-Serif" font-size="10.00">optional</text>
</a>
</g>
</g>
<!-- Node11&#45;&gt;Node12 -->
<g id="edge11" class="edge">
<title>Node11&#45;&gt;Node12</title>
<path fill="none" stroke="#63b8ff" d="M906.44,-230.75C912.37,-223.26 921.07,-212.28 928.32,-203.13"/>
<polygon fill="#63b8ff" stroke="#63b8ff" points="931.23,-205.1 934.69,-195.09 925.74,-200.75 931.23,-205.1"/>
</g>
<!-- Node13 -->
<g id="node13" class="node">
<title>Node13</title>
<g id="a_node13"><a xlink:title=" ">
<polygon fill="#e0e0e0" stroke="#999999" points="363,-140 316,-140 316,-121 363,-121 363,-140"/>
<text text-anchor="middle" x="339.5" y="-128" font-family="Helvetica,sans-Serif" font-size="10.00">vector</text>
</a>
</g>
</g>
<!-- Node11&#45;&gt;Node13 -->
<g id="edge12" class="edge">
<title>Node11&#45;&gt;Node13</title>
<path fill="none" stroke="#63b8ff" d="M884.55,-230.74C854.99,-213.42 791.78,-176.41 790.5,-176 751.09,-163.25 471.29,-141.36 373.3,-134"/>
<polygon fill="#63b8ff" stroke="#63b8ff" points="373.3,-130.49 363.06,-133.23 372.78,-137.47 373.3,-130.49"/>
</g>
<!-- Node11&#45;&gt;Node14 -->
<g id="edge13" class="edge">
<title>Node11&#45;&gt;Node14</title>
<path fill="none" stroke="#63b8ff" d="M873.63,-230.98C846.72,-222.13 804.38,-208.19 774.27,-198.28"/>
<polygon fill="#63b8ff" stroke="#63b8ff" points="775.16,-194.88 764.57,-195.08 772.97,-201.53 775.16,-194.88"/>
</g>
<!-- Node15 -->
<g id="node15" class="node">
<title>Node15</title>
<g id="a_node15"><a xlink:href="array_8h.html" target="_top" xlink:title=" ">
<polygon fill="#fff0f0" stroke="red" points="299.5,-195 199.5,-195 199.5,-176 299.5,-176 299.5,-195"/>
<text text-anchor="middle" x="249.5" y="-183" font-family="Helvetica,sans-Serif" font-size="10.00">thorin/util/array.h</text>
</a>
</g>
</g>
<!-- Node11&#45;&gt;Node15 -->
<g id="edge14" class="edge">
<title>Node11&#45;&gt;Node15</title>
<path fill="none" stroke="#63b8ff" d="M863.21,-232.28C860.27,-231.81 857.34,-231.37 854.5,-231 656.22,-205.07 419.24,-193.12 310.05,-188.68"/>
<polygon fill="#63b8ff" stroke="#63b8ff" points="310.02,-185.18 299.89,-188.28 309.74,-192.17 310.02,-185.18"/>
</g>
<!-- Node25 -->
<g id="node18" class="node">
<title>Node25</title>
<g id="a_node18"><a xlink:href="cast_8h.html" target="_top" xlink:title=" ">
<polygon fill="#fff0f0" stroke="red" points="564.5,-140 468.5,-140 468.5,-121 564.5,-121 564.5,-140"/>
<text text-anchor="middle" x="516.5" y="-128" font-family="Helvetica,sans-Serif" font-size="10.00">thorin/util/cast.h</text>
</a>
</g>
</g>
<!-- Node11&#45;&gt;Node25 -->
<g id="edge18" class="edge">
<title>Node11&#45;&gt;Node25</title>
<path fill="none" stroke="#63b8ff" d="M892.11,-230.78C879.59,-216.65 852.7,-189.04 823.5,-176 780.23,-156.68 651.39,-142.89 575.06,-136.16"/>
<polygon fill="#63b8ff" stroke="#63b8ff" points="574.92,-132.64 564.65,-135.26 574.31,-139.61 574.92,-132.64"/>
</g>
<!-- Node26 -->
<g id="node19" class="node">
<title>Node26</title>
<g id="a_node19"><a xlink:href="container_8h.html" target="_top" xlink:title=" ">
<polygon fill="#fff0f0" stroke="red" points="1294,-195 1173,-195 1173,-176 1294,-176 1294,-195"/>
<text text-anchor="middle" x="1233.5" y="-183" font-family="Helvetica,sans-Serif" font-size="10.00">thorin/util/container.h</text>
</a>
</g>
</g>
<!-- Node11&#45;&gt;Node26 -->
<g id="edge20" class="edge">
<title>Node11&#45;&gt;Node26</title>
<path fill="none" stroke="#63b8ff" d="M935.56,-233.78C991.59,-224.89 1100.32,-207.63 1169.79,-196.61"/>
<polygon fill="#63b8ff" stroke="#63b8ff" points="1170.41,-200.05 1179.74,-195.03 1169.32,-193.14 1170.41,-200.05"/>
</g>
<!-- Node11&#45;&gt;Node33 -->
<g id="edge33" class="edge">
<title>Node11&#45;&gt;Node33</title>
<path fill="none" stroke="#63b8ff" d="M935.83,-237.77C1029.81,-232.97 1275.52,-218.32 1303.5,-195 1316.47,-184.19 1320.82,-164.9 1322.16,-150.41"/>
<polygon fill="#63b8ff" stroke="#63b8ff" points="1325.67,-150.24 1322.7,-140.07 1318.68,-149.88 1325.67,-150.24"/>
</g>
<!-- Node40 -->
<g id="node31" class="node">
<title>Node40</title>
<g id="a_node31"><a xlink:href="loc_8h.html" target="_top" xlink:title=" ">
<polygon fill="white" stroke="#666666" points="1115.5,-195 1025.5,-195 1025.5,-176 1115.5,-176 1115.5,-195"/>
<text text-anchor="middle" x="1070.5" y="-183" font-family="Helvetica,sans-Serif" font-size="10.00">thorin/util/loc.h</text>
</a>
</g>
</g>
<!-- Node11&#45;&gt;Node40 -->
<g id="edge34" class="edge">
<title>Node11&#45;&gt;Node40</title>
<path fill="none" stroke="#63b8ff" d="M926.97,-230.98C955.68,-222.09 1000.92,-208.07 1032.92,-198.15"/>
<polygon fill="#63b8ff" stroke="#63b8ff" points="1034.3,-201.39 1042.81,-195.08 1032.22,-194.7 1034.3,-201.39"/>
</g>
<!-- Node41 -->
<g id="node32" class="node">
<title>Node41</title>
<g id="a_node32"><a xlink:href="print_8h.html" target="_top" xlink:title=" ">
<polygon fill="#fff0f0" stroke="red" points="755.5,-140 657.5,-140 657.5,-121 755.5,-121 755.5,-140"/>
<text text-anchor="middle" x="706.5" y="-128" font-family="Helvetica,sans-Serif" font-size="10.00">thorin/util/print.h</text>
</a>
</g>
</g>
<!-- Node11&#45;&gt;Node41 -->
<g id="edge50" class="edge">
<title>Node11&#45;&gt;Node41</title>
<path fill="none" stroke="#63b8ff" d="M896.62,-230.68C891.67,-216.91 880.24,-190.41 861.5,-176 833.96,-154.82 796.71,-143.72 765.63,-137.9"/>
<polygon fill="#63b8ff" stroke="#63b8ff" points="766.22,-134.45 755.77,-136.19 765.03,-141.35 766.22,-134.45"/>
</g>
<!-- Node15&#45;&gt;Node13 -->
<g id="edge17" class="edge">
<title>Node15&#45;&gt;Node13</title>
<path fill="none" stroke="#63b8ff" d="M263.96,-175.98C277.92,-167.77 299.29,-155.18 315.75,-145.49"/>
<polygon fill="#63b8ff" stroke="#63b8ff" points="317.94,-148.26 324.78,-140.17 314.38,-142.23 317.94,-148.26"/>
</g>
<!-- Node16 -->
<g id="node16" class="node">
<title>Node16</title>
<g id="a_node16"><a xlink:title=" ">
<polygon fill="#e0e0e0" stroke="#999999" points="500.5,-19 448.5,-19 448.5,0 500.5,0 500.5,-19"/>
<text text-anchor="middle" x="474.5" y="-7" font-family="Helvetica,sans-Serif" font-size="10.00">cassert</text>
</a>
</g>
</g>
<!-- Node15&#45;&gt;Node16 -->
<g id="edge15" class="edge">
<title>Node15&#45;&gt;Node16</title>
<path fill="none" stroke="#63b8ff" d="M248.19,-175.82C245.22,-152.7 240.62,-89.04 273.5,-55 295.92,-31.79 386.7,-19.18 438.26,-13.77"/>
<polygon fill="#63b8ff" stroke="#63b8ff" points="438.73,-17.24 448.33,-12.75 438.02,-10.28 438.73,-17.24"/>
</g>
<!-- Node24 -->
<g id="node17" class="node">
<title>Node24</title>
<g id="a_node17"><a xlink:title=" ">
<polygon fill="#e0e0e0" stroke="#999999" points="939,-19 870,-19 870,0 939,0 939,-19"/>
<text text-anchor="middle" x="904.5" y="-7" font-family="Helvetica,sans-Serif" font-size="10.00">type_traits</text>
</a>
</g>
</g>
<!-- Node15&#45;&gt;Node24 -->
<g id="edge16" class="edge">
<title>Node15&#45;&gt;Node24</title>
<path fill="none" stroke="#63b8ff" d="M255.11,-175.85C264.31,-162.33 283.84,-136.15 306.5,-121 379.77,-72.02 407.56,-74.54 493.5,-55 624.51,-25.21 783.68,-15.19 859.78,-11.96"/>
<polygon fill="#63b8ff" stroke="#63b8ff" points="860.11,-15.45 869.96,-11.55 859.82,-8.46 860.11,-15.45"/>
</g>
<!-- Node25&#45;&gt;Node16 -->
<g id="edge19" class="edge">
<title>Node25&#45;&gt;Node16</title>
<path fill="none" stroke="#63b8ff" d="M511.31,-120.91C506.19,-112.14 498.45,-98.01 493.5,-85 486.54,-66.71 481.32,-44.93 478.13,-29.66"/>
<polygon fill="#63b8ff" stroke="#63b8ff" points="481.48,-28.54 476.09,-19.42 474.61,-29.91 481.48,-28.54"/>
</g>
<!-- Node28 -->
<g id="node20" class="node">
<title>Node28</title>
<g id="a_node20"><a xlink:title=" ">
<polygon fill="#e0e0e0" stroke="#999999" points="1140,-140 1097,-140 1097,-121 1140,-121 1140,-140"/>
<text text-anchor="middle" x="1118.5" y="-128" font-family="Helvetica,sans-Serif" font-size="10.00">stack</text>
</a>
</g>
</g>
<!-- Node26&#45;&gt;Node28 -->
<g id="edge21" class="edge">
<title>Node26&#45;&gt;Node28</title>
<path fill="none" stroke="#63b8ff" d="M1215.02,-175.98C1196.52,-167.46 1167.82,-154.23 1146.52,-144.41"/>
<polygon fill="#63b8ff" stroke="#63b8ff" points="1147.86,-141.18 1137.31,-140.17 1144.93,-147.53 1147.86,-141.18"/>
</g>
<!-- Node29 -->
<g id="node21" class="node">
<title>Node29</title>
<g id="a_node21"><a xlink:title=" ">
<polygon fill="#e0e0e0" stroke="#999999" points="1245.5,-85 1141.5,-85 1141.5,-55 1245.5,-55 1245.5,-85"/>
<text text-anchor="start" x="1149.5" y="-73" font-family="Helvetica,sans-Serif" font-size="10.00">absl/container/flat</text>
<text text-anchor="middle" x="1193.5" y="-62" font-family="Helvetica,sans-Serif" font-size="10.00">_hash_map.h</text>
</a>
</g>
</g>
<!-- Node26&#45;&gt;Node29 -->
<g id="edge22" class="edge">
<title>Node26&#45;&gt;Node29</title>
<path fill="none" stroke="#63b8ff" d="M1232.52,-175.65C1230.95,-163.17 1227.34,-139.83 1220.5,-121 1217.17,-111.84 1212.39,-102.3 1207.77,-94.04"/>
<polygon fill="#63b8ff" stroke="#63b8ff" points="1210.77,-92.23 1202.72,-85.35 1204.72,-95.75 1210.77,-92.23"/>
</g>
<!-- Node30 -->
<g id="node22" class="node">
<title>Node30</title>
<g id="a_node22"><a xlink:title=" ">
<polygon fill="#e0e0e0" stroke="#999999" points="1123.5,-85 1019.5,-85 1019.5,-55 1123.5,-55 1123.5,-85"/>
<text text-anchor="start" x="1027.5" y="-73" font-family="Helvetica,sans-Serif" font-size="10.00">absl/container/flat</text>
<text text-anchor="middle" x="1071.5" y="-62" font-family="Helvetica,sans-Serif" font-size="10.00">_hash_set.h</text>
</a>
</g>
</g>
<!-- Node26&#45;&gt;Node30 -->
<g id="edge23" class="edge">
<title>Node26&#45;&gt;Node30</title>
<path fill="none" stroke="#63b8ff" d="M1228.28,-175.6C1220.04,-162.2 1202.85,-136.75 1182.5,-121 1165.19,-107.6 1143.72,-96.86 1124.29,-88.82"/>
<polygon fill="#63b8ff" stroke="#63b8ff" points="1125.53,-85.55 1114.94,-85.09 1122.94,-92.05 1125.53,-85.55"/>
</g>
<!-- Node32 -->
<g id="node23" class="node">
<title>Node32</title>
<g id="a_node23"><a xlink:title=" ">
<polygon fill="#e0e0e0" stroke="#999999" points="1001,-85 888,-85 888,-55 1001,-55 1001,-85"/>
<text text-anchor="start" x="896" y="-73" font-family="Helvetica,sans-Serif" font-size="10.00">absl/container/node</text>
<text text-anchor="middle" x="944.5" y="-62" font-family="Helvetica,sans-Serif" font-size="10.00">_hash_set.h</text>
</a>
</g>
</g>
<!-- Node26&#45;&gt;Node32 -->
<g id="edge24" class="edge">
<title>Node26&#45;&gt;Node32</title>
<path fill="none" stroke="#63b8ff" d="M1224.51,-175.68C1209.99,-161.92 1179.89,-135.43 1149.5,-121 1136.84,-114.99 1066.11,-98.31 1011.23,-85.86"/>
<polygon fill="#63b8ff" stroke="#63b8ff" points="1011.71,-82.38 1001.18,-83.58 1010.16,-89.2 1011.71,-82.38"/>
</g>
<!-- Node26&#45;&gt;Node33 -->
<g id="edge25" class="edge">
<title>Node26&#45;&gt;Node33</title>
<path fill="none" stroke="#63b8ff" d="M1247.8,-175.98C1261.6,-167.77 1282.74,-155.18 1299.01,-145.49"/>
<polygon fill="#63b8ff" stroke="#63b8ff" points="1301.14,-148.29 1307.94,-140.17 1297.56,-142.28 1301.14,-148.29"/>
</g>
<!-- Node34 -->
<g id="node25" class="node">
<title>Node34</title>
<g id="a_node25"><a xlink:href="types_8h.html" target="_top" xlink:title=" ">
<polygon fill="white" stroke="#666666" points="1532,-79.5 1429,-79.5 1429,-60.5 1532,-60.5 1532,-79.5"/>
<text text-anchor="middle" x="1480.5" y="-67.5" font-family="Helvetica,sans-Serif" font-size="10.00">thorin/util/types.h</text>
</a>
</g>
</g>
<!-- Node33&#45;&gt;Node34 -->
<g id="edge26" class="edge">
<title>Node33&#45;&gt;Node34</title>
<path fill="none" stroke="#63b8ff" d="M1345.47,-120.99C1372.39,-111.03 1417.17,-94.45 1447.73,-83.13"/>
<polygon fill="#63b8ff" stroke="#63b8ff" points="1449.34,-86.27 1457.5,-79.52 1446.9,-79.71 1449.34,-86.27"/>
</g>
<!-- Node34&#45;&gt;Node24 -->
<g id="edge30" class="edge">
<title>Node34&#45;&gt;Node24</title>
<path fill="none" stroke="#63b8ff" d="M1428.88,-63.76C1317.04,-52.4 1054.01,-25.68 948.97,-15.02"/>
<polygon fill="#63b8ff" stroke="#63b8ff" points="949.32,-11.53 939.01,-14.01 948.61,-18.5 949.32,-11.53"/>
</g>
<!-- Node35 -->
<g id="node26" class="node">
<title>Node35</title>
<g id="a_node26"><a xlink:title=" ">
<polygon fill="#e0e0e0" stroke="#999999" points="1505.5,-19 1455.5,-19 1455.5,0 1505.5,0 1505.5,-19"/>
<text text-anchor="middle" x="1480.5" y="-7" font-family="Helvetica,sans-Serif" font-size="10.00">cstdint</text>
</a>
</g>
</g>
<!-- Node34&#45;&gt;Node35 -->
<g id="edge27" class="edge">
<title>Node34&#45;&gt;Node35</title>
<path fill="none" stroke="#63b8ff" d="M1480.5,-60.37C1480.5,-52.25 1480.5,-39.81 1480.5,-29.39"/>
<polygon fill="#63b8ff" stroke="#63b8ff" points="1484,-29.17 1480.5,-19.17 1477,-29.17 1484,-29.17"/>
</g>
<!-- Node36 -->
<g id="node27" class="node">
<title>Node36</title>
<g id="a_node27"><a xlink:title=" ">
<polygon fill="#e0e0e0" stroke="#999999" points="1567.5,-19 1523.5,-19 1523.5,0 1567.5,0 1567.5,-19"/>
<text text-anchor="middle" x="1545.5" y="-7" font-family="Helvetica,sans-Serif" font-size="10.00">limits</text>
</a>
</g>
</g>
<!-- Node34&#45;&gt;Node36 -->
<g id="edge28" class="edge">
<title>Node34&#45;&gt;Node36</title>
<path fill="none" stroke="#63b8ff" d="M1490.09,-60.37C1500.08,-51.38 1515.93,-37.11 1528.13,-26.14"/>
<polygon fill="#63b8ff" stroke="#63b8ff" points="1530.78,-28.46 1535.87,-19.17 1526.1,-23.26 1530.78,-28.46"/>
</g>
<!-- Node37 -->
<g id="node28" class="node">
<title>Node37</title>
<g id="a_node28"><a xlink:title=" ">
<polygon fill="#e0e0e0" stroke="#999999" points="1363,-19 1306,-19 1306,0 1363,0 1363,-19"/>
<text text-anchor="middle" x="1334.5" y="-7" font-family="Helvetica,sans-Serif" font-size="10.00">ostream</text>
</a>
</g>
</g>
<!-- Node34&#45;&gt;Node37 -->
<g id="edge29" class="edge">
<title>Node34&#45;&gt;Node37</title>
<path fill="none" stroke="#63b8ff" d="M1459.27,-60.49C1434.51,-50.57 1393.38,-34.09 1365.15,-22.78"/>
<polygon fill="#63b8ff" stroke="#63b8ff" points="1366.34,-19.49 1355.76,-19.02 1363.74,-25.99 1366.34,-19.49"/>
</g>
<!-- Node38 -->
<g id="node29" class="node">
<title>Node38</title>
<g id="a_node29"><a xlink:title=" ">
<polygon fill="#e0e0e0" stroke="#999999" points="1633,-19 1586,-19 1586,0 1633,0 1633,-19"/>
<text text-anchor="middle" x="1609.5" y="-7" font-family="Helvetica,sans-Serif" font-size="10.00">cmath</text>
</a>
</g>
</g>
<!-- Node34&#45;&gt;Node38 -->
<g id="edge31" class="edge">
<title>Node34&#45;&gt;Node38</title>
<path fill="none" stroke="#63b8ff" d="M1499.26,-60.49C1520.85,-50.7 1556.53,-34.52 1581.43,-23.23"/>
<polygon fill="#63b8ff" stroke="#63b8ff" points="1583.06,-26.33 1590.72,-19.02 1580.17,-19.96 1583.06,-26.33"/>
</g>
<!-- Node39 -->
<g id="node30" class="node">
<title>Node39</title>
<g id="a_node30"><a xlink:title=" ">
<polygon fill="#e0e0e0" stroke="#999999" points="1437.5,-19 1381.5,-19 1381.5,0 1437.5,0 1437.5,-19"/>
<text text-anchor="middle" x="1409.5" y="-7" font-family="Helvetica,sans-Serif" font-size="10.00">half.hpp</text>
</a>
</g>
</g>
<!-- Node34&#45;&gt;Node39 -->
<g id="edge32" class="edge">
<title>Node34&#45;&gt;Node39</title>
<path fill="none" stroke="#63b8ff" d="M1470.02,-60.37C1459.01,-51.3 1441.46,-36.84 1428.09,-25.82"/>
<polygon fill="#63b8ff" stroke="#63b8ff" points="1429.96,-22.83 1420.02,-19.17 1425.51,-28.23 1429.96,-22.83"/>
</g>
<!-- Node40&#45;&gt;Node29 -->
<g id="edge35" class="edge">
<title>Node40&#45;&gt;Node29</title>
<path fill="none" stroke="#63b8ff" d="M1070.6,-175.65C1071.21,-162.31 1074.19,-136.94 1087.5,-121 1099.33,-106.83 1116.08,-96.43 1132.79,-88.9"/>
<polygon fill="#63b8ff" stroke="#63b8ff" points="1134.17,-92.11 1142.03,-85.01 1131.46,-85.66 1134.17,-92.11"/>
</g>
<!-- Node40&#45;&gt;Node30 -->
<g id="edge36" class="edge">
<title>Node40&#45;&gt;Node30</title>
<path fill="none" stroke="#63b8ff" d="M1066.39,-175.88C1062.44,-167.09 1056.76,-152.94 1054.5,-140 1051.83,-124.7 1055.9,-107.76 1060.72,-94.49"/>
<polygon fill="#63b8ff" stroke="#63b8ff" points="1064,-95.74 1064.46,-85.15 1057.5,-93.13 1064,-95.74"/>
</g>
<!-- Node40&#45;&gt;Node41 -->
<g id="edge37" class="edge">
<title>Node40&#45;&gt;Node41</title>
<path fill="none" stroke="#63b8ff" d="M1025.14,-177.89C959.52,-168.34 838.06,-150.66 765.54,-140.1"/>
<polygon fill="#63b8ff" stroke="#63b8ff" points="766.04,-136.63 755.64,-138.65 765.03,-143.56 766.04,-136.63"/>
</g>
<!-- Node40&#45;&gt;Node44 -->
<g id="edge44" class="edge">
<title>Node40&#45;&gt;Node44</title>
<path fill="none" stroke="#63b8ff" d="M1051.7,-175.98C1032.88,-167.46 1003.68,-154.23 982,-144.41"/>
<polygon fill="#63b8ff" stroke="#63b8ff" points="983.19,-141.11 972.64,-140.17 980.3,-147.48 983.19,-141.11"/>
</g>
<!-- Node41&#45;&gt;Node3 -->
<g id="edge40" class="edge">
<title>Node41&#45;&gt;Node3</title>
<path fill="none" stroke="#63b8ff" d="M678.4,-120.97C650.23,-112.31 605.66,-98.32 567.5,-85 565.85,-84.42 564.16,-83.82 562.46,-83.21"/>
<polygon fill="#63b8ff" stroke="#63b8ff" points="563.33,-79.8 552.74,-79.63 560.91,-86.37 563.33,-79.8"/>
</g>
<!-- Node41&#45;&gt;Node4 -->
<g id="edge41" class="edge">
<title>Node41&#45;&gt;Node4</title>
<path fill="none" stroke="#63b8ff" d="M726.26,-120.86C746.64,-111.93 779.33,-97.57 807.5,-85 808.35,-84.62 809.21,-84.24 810.08,-83.85"/>
<polygon fill="#63b8ff" stroke="#63b8ff" points="811.81,-86.91 819.5,-79.62 808.94,-80.52 811.81,-86.91"/>
</g>
<!-- Node41&#45;&gt;Node37 -->
<g id="edge39" class="edge">
<title>Node41&#45;&gt;Node37</title>
<path fill="none" stroke="#63b8ff" d="M706.28,-120.89C706.4,-105 709.17,-71.19 729.5,-55 773.73,-19.79 1169.36,-12.34 1295.82,-10.85"/>
<polygon fill="#63b8ff" stroke="#63b8ff" points="1295.87,-14.35 1305.83,-10.74 1295.79,-7.35 1295.87,-14.35"/>
</g>
<!-- Node42 -->
<g id="node33" class="node">
<title>Node42</title>
<g id="a_node33"><a xlink:title=" ">
<polygon fill="#e0e0e0" stroke="#999999" points="798.5,-79.5 738.5,-79.5 738.5,-60.5 798.5,-60.5 798.5,-79.5"/>
<text text-anchor="middle" x="768.5" y="-67.5" font-family="Helvetica,sans-Serif" font-size="10.00">iostream</text>
</a>
</g>
</g>
<!-- Node41&#45;&gt;Node42 -->
<g id="edge38" class="edge">
<title>Node41&#45;&gt;Node42</title>
<path fill="none" stroke="#63b8ff" d="M715.65,-120.87C725.17,-111.88 740.3,-97.61 751.93,-86.64"/>
<polygon fill="#63b8ff" stroke="#63b8ff" points="754.44,-89.08 759.31,-79.67 749.64,-83.98 754.44,-89.08"/>
</g>
<!-- Node41&#45;&gt;Node43 -->
<g id="edge42" class="edge">
<title>Node41&#45;&gt;Node43</title>
<path fill="none" stroke="#63b8ff" d="M695.14,-120.87C683.08,-111.71 663.8,-97.06 649.25,-86.01"/>
<polygon fill="#63b8ff" stroke="#63b8ff" points="650.99,-82.93 640.91,-79.67 646.75,-88.5 650.99,-82.93"/>
</g>
<!-- Node43&#45;&gt;Node16 -->
<g id="edge43" class="edge">
<title>Node43&#45;&gt;Node16</title>
<path fill="none" stroke="#63b8ff" d="M606.96,-60.49C580.56,-50.53 536.62,-33.95 506.65,-22.63"/>
<polygon fill="#63b8ff" stroke="#63b8ff" points="507.66,-19.27 497.07,-19.02 505.19,-25.82 507.66,-19.27"/>
</g>
<!-- Node44&#45;&gt;Node4 -->
<g id="edge46" class="edge">
<title>Node44&#45;&gt;Node4</title>
<path fill="none" stroke="#63b8ff" d="M936.53,-120.87C917.59,-111.23 886.71,-95.53 864.67,-84.31"/>
<polygon fill="#63b8ff" stroke="#63b8ff" points="866.04,-81.08 855.54,-79.67 862.86,-87.32 866.04,-81.08"/>
</g>
<!-- Node44&#45;&gt;Node29 -->
<g id="edge47" class="edge">
<title>Node44&#45;&gt;Node29</title>
<path fill="none" stroke="#63b8ff" d="M988.4,-120.99C1025.82,-111.87 1086,-97.2 1131.52,-86.11"/>
<polygon fill="#63b8ff" stroke="#63b8ff" points="1132.4,-89.5 1141.29,-83.73 1130.74,-82.69 1132.4,-89.5"/>
</g>
<!-- Node44&#45;&gt;Node30 -->
<g id="edge48" class="edge">
<title>Node44&#45;&gt;Node30</title>
<path fill="none" stroke="#63b8ff" d="M970.66,-120.99C987.14,-112.82 1012.6,-100.2 1033.81,-89.69"/>
<polygon fill="#63b8ff" stroke="#63b8ff" points="1035.5,-92.76 1042.9,-85.18 1032.39,-86.48 1035.5,-92.76"/>
</g>
<!-- Node44&#45;&gt;Node32 -->
<g id="edge49" class="edge">
<title>Node44&#45;&gt;Node32</title>
<path fill="none" stroke="#63b8ff" d="M952.17,-120.87C951.13,-114.11 949.63,-104.35 948.23,-95.26"/>
<polygon fill="#63b8ff" stroke="#63b8ff" points="951.65,-94.47 946.67,-85.11 944.73,-95.53 951.65,-94.47"/>
</g>
<!-- Node44&#45;&gt;Node42 -->
<g id="edge45" class="edge">
<title>Node44&#45;&gt;Node42</title>
<path fill="none" stroke="#63b8ff" d="M924,-120.97C894.42,-112.31 847.62,-98.31 807.5,-85 805.61,-84.37 803.66,-83.71 801.71,-83.04"/>
<polygon fill="#63b8ff" stroke="#63b8ff" points="802.54,-79.63 791.95,-79.63 800.23,-86.23 802.54,-79.63"/>
</g>
<!-- Node45&#45;&gt;Node11 -->
<g id="edge54" class="edge">
<title>Node45&#45;&gt;Node11</title>
<path fill="none" stroke="#63b8ff" d="M883.56,-346.48C932.52,-332.98 1022.33,-307.89 1024.5,-305 1048.48,-273.06 990.36,-255.97 945.54,-247.83"/>
<polygon fill="#63b8ff" stroke="#63b8ff" points="946.09,-244.37 935.64,-246.13 944.9,-251.27 946.09,-244.37"/>
</g>
<!-- Node46 -->
<g id="node37" class="node">
<title>Node46</title>
<g id="a_node37"><a xlink:title=" ">
<polygon fill="#e0e0e0" stroke="#999999" points="1119,-305 1072,-305 1072,-286 1119,-286 1119,-305"/>
<text text-anchor="middle" x="1095.5" y="-293" font-family="Helvetica,sans-Serif" font-size="10.00">deque</text>
</a>
</g>
</g>
<!-- Node45&#45;&gt;Node46 -->
<g id="edge53" class="edge">
<title>Node45&#45;&gt;Node46</title>
<path fill="none" stroke="#63b8ff" d="M883.53,-346.46C890.42,-344.62 897.7,-342.71 904.5,-341 934.05,-333.58 1015.63,-314.79 1062.05,-304.15"/>
<polygon fill="#63b8ff" stroke="#63b8ff" points="1062.98,-307.53 1071.94,-301.88 1061.41,-300.7 1062.98,-307.53"/>
</g>
<!-- Node47&#45;&gt;Node14 -->
<g id="edge57" class="edge">
<title>Node47&#45;&gt;Node14</title>
<path fill="none" stroke="#63b8ff" d="M794.74,-230.98C784.73,-223.07 769.61,-211.11 757.57,-201.58"/>
<polygon fill="#63b8ff" stroke="#63b8ff" points="759.47,-198.63 749.46,-195.17 755.13,-204.12 759.47,-198.63"/>
</g>
<!-- Node48&#45;&gt;Node11 -->
<g id="edge59" class="edge">
<title>Node48&#45;&gt;Node11</title>
<path fill="none" stroke="#63b8ff" d="M959.93,-285.98C949.08,-278 932.62,-265.88 919.62,-256.31"/>
<polygon fill="#63b8ff" stroke="#63b8ff" points="921.41,-253.28 911.28,-250.17 917.26,-258.92 921.41,-253.28"/>
</g>
<!-- Node49&#45;&gt;Node11 -->
<g id="edge61" class="edge">
<title>Node49&#45;&gt;Node11</title>
<path fill="none" stroke="#63b8ff" d="M873.62,-285.75C877.86,-278.49 884.03,-267.95 889.28,-258.98"/>
<polygon fill="#63b8ff" stroke="#63b8ff" points="892.45,-260.49 894.48,-250.09 886.41,-256.95 892.45,-260.49"/>
</g>
<!-- Node50&#45;&gt;Node37 -->
<g id="edge64" class="edge">
<title>Node50&#45;&gt;Node37</title>
<path fill="none" stroke="#63b8ff" d="M1327.17,-231C1341.25,-214.75 1370.75,-177.57 1381.5,-140 1393.28,-98.81 1365.57,-51.86 1347.86,-27.38"/>
<polygon fill="#63b8ff" stroke="#63b8ff" points="1350.48,-25.04 1341.67,-19.15 1344.89,-29.25 1350.48,-25.04"/>
</g>
<!-- Node50&#45;&gt;Node40 -->
<g id="edge65" class="edge">
<title>Node50&#45;&gt;Node40</title>
<path fill="none" stroke="#63b8ff" d="M1279.49,-230.98C1236.33,-221.8 1167.52,-207.15 1120.74,-197.19"/>
<polygon fill="#63b8ff" stroke="#63b8ff" points="1121.33,-193.74 1110.82,-195.08 1119.87,-200.59 1121.33,-193.74"/>
</g>
<!-- Node52 -->
<g id="node43" class="node">
<title>Node52</title>
<g id="a_node43"><a xlink:href="cfg_8h.html" target="_top" xlink:title=" ">
<polygon fill="white" stroke="#666666" points="368,-365.5 249,-365.5 249,-346.5 368,-346.5 368,-365.5"/>
<text text-anchor="middle" x="308.5" y="-353.5" font-family="Helvetica,sans-Serif" font-size="10.00">thorin/analyses/cfg.h</text>
</a>
</g>
</g>
<!-- Node51&#45;&gt;Node52 -->
<g id="edge68" class="edge">
<title>Node51&#45;&gt;Node52</title>
<path fill="none" stroke="#63b8ff" d="M573.52,-516.97C531.86,-502.11 446.44,-468.91 382.5,-426 359.61,-410.64 336.97,-388.18 322.88,-373.1"/>
<polygon fill="#63b8ff" stroke="#63b8ff" points="325.32,-370.58 315.99,-365.57 320.16,-375.31 325.32,-370.58"/>
</g>
<!-- Node52&#45;&gt;Node13 -->
<g id="edge69" class="edge">
<title>Node52&#45;&gt;Node13</title>
<path fill="none" stroke="#63b8ff" d="M309.72,-346.24C314.28,-313.35 330.44,-196.8 336.85,-150.59"/>
<polygon fill="#63b8ff" stroke="#63b8ff" points="340.35,-150.83 338.26,-140.44 333.42,-149.87 340.35,-150.83"/>
</g>
<!-- Node52&#45;&gt;Node15 -->
<g id="edge73" class="edge">
<title>Node52&#45;&gt;Node15</title>
<path fill="none" stroke="#63b8ff" d="M306.33,-346.44C301.08,-326.1 286.91,-273.42 270.5,-231 267.03,-222.04 262.56,-212.36 258.63,-204.32"/>
<polygon fill="#63b8ff" stroke="#63b8ff" points="261.67,-202.58 254.06,-195.2 255.41,-205.71 261.67,-202.58"/>
</g>
<!-- Node52&#45;&gt;Node41 -->
<g id="edge78" class="edge">
<title>Node52&#45;&gt;Node41</title>
<path fill="none" stroke="#63b8ff" d="M317.37,-346.11C331.66,-332.12 361.06,-304.61 389.5,-286 487.56,-221.82 616.22,-167.23 674.88,-143.78"/>
<polygon fill="#63b8ff" stroke="#63b8ff" points="676.34,-146.97 684.34,-140.03 673.76,-140.46 676.34,-146.97"/>
</g>
<!-- Node53 -->
<g id="node44" class="node">
<title>Node53</title>
<g id="a_node44"><a xlink:href="scope_8h.html" target="_top" xlink:title=" ">
<polygon fill="white" stroke="#666666" points="563.5,-305 431.5,-305 431.5,-286 563.5,-286 563.5,-305"/>
<text text-anchor="middle" x="497.5" y="-293" font-family="Helvetica,sans-Serif" font-size="10.00">thorin/analyses/scope.h</text>
</a>
</g>
</g>
<!-- Node52&#45;&gt;Node53 -->
<g id="edge70" class="edge">
<title>Node52&#45;&gt;Node53</title>
<path fill="none" stroke="#63b8ff" d="M335.98,-346.49C368.74,-336.36 423.62,-319.37 460.19,-308.05"/>
<polygon fill="#63b8ff" stroke="#63b8ff" points="461.47,-311.32 469.98,-305.02 459.4,-304.63 461.47,-311.32"/>
</g>
<!-- Node54 -->
<g id="node45" class="node">
<title>Node54</title>
<g id="a_node45"><a xlink:href="indexmap_8h.html" target="_top" xlink:title=" ">
<polygon fill="#fff0f0" stroke="red" points="125,-250 0,-250 0,-231 125,-231 125,-250"/>
<text text-anchor="middle" x="62.5" y="-238" font-family="Helvetica,sans-Serif" font-size="10.00">thorin/util/indexmap.h</text>
</a>
</g>
</g>
<!-- Node52&#45;&gt;Node54 -->
<g id="edge74" class="edge">
<title>Node52&#45;&gt;Node54</title>
<path fill="none" stroke="#63b8ff" d="M290.01,-346.47C247.27,-326.75 141.41,-277.91 90.6,-254.46"/>
<polygon fill="#63b8ff" stroke="#63b8ff" points="91.75,-251.14 81.2,-250.13 88.82,-257.5 91.75,-251.14"/>
</g>
<!-- Node55 -->
<g id="node46" class="node">
<title>Node55</title>
<g id="a_node46"><a xlink:href="indexset_8h.html" target="_top" xlink:title=" ">
<polygon fill="white" stroke="#666666" points="261.5,-250 143.5,-250 143.5,-231 261.5,-231 261.5,-250"/>
<text text-anchor="middle" x="202.5" y="-238" font-family="Helvetica,sans-Serif" font-size="10.00">thorin/util/indexset.h</text>
</a>
</g>
</g>
<!-- Node52&#45;&gt;Node55 -->
<g id="edge76" class="edge">
<title>Node52&#45;&gt;Node55</title>
<path fill="none" stroke="#63b8ff" d="M300.53,-346.47C282.88,-327.57 240.26,-281.93 217.46,-257.52"/>
<polygon fill="#63b8ff" stroke="#63b8ff" points="219.94,-255.05 210.56,-250.13 214.83,-259.83 219.94,-255.05"/>
</g>
<!-- Node53&#45;&gt;Node11 -->
<g id="edge71" class="edge">
<title>Node53&#45;&gt;Node11</title>
<path fill="none" stroke="#63b8ff" d="M563.8,-287.49C633.44,-279.85 746.36,-266.65 853.2,-250.12"/>
<polygon fill="#63b8ff" stroke="#63b8ff" points="853.84,-253.56 863.18,-248.56 852.76,-246.65 853.84,-253.56"/>
</g>
<!-- Node53&#45;&gt;Node41 -->
<g id="edge72" class="edge">
<title>Node53&#45;&gt;Node41</title>
<path fill="none" stroke="#63b8ff" d="M508.33,-285.82C523.68,-273.55 552.64,-250.45 577.5,-231 616.16,-200.75 661.68,-165.79 687,-146.41"/>
<polygon fill="#63b8ff" stroke="#63b8ff" points="689.25,-149.09 695.07,-140.23 685,-143.53 689.25,-149.09"/>
</g>
<!-- Node54&#45;&gt;Node15 -->
<g id="edge75" class="edge">
<title>Node54&#45;&gt;Node15</title>
<path fill="none" stroke="#63b8ff" d="M92.54,-230.98C124.21,-222.01 174.27,-207.82 209.31,-197.89"/>
<polygon fill="#63b8ff" stroke="#63b8ff" points="210.55,-201.18 219.22,-195.08 208.64,-194.44 210.55,-201.18"/>
</g>
<!-- Node55&#45;&gt;Node15 -->
<g id="edge77" class="edge">
<title>Node55&#45;&gt;Node15</title>
<path fill="none" stroke="#63b8ff" d="M210.26,-230.75C216.97,-223.18 226.84,-212.05 235.01,-202.84"/>
<polygon fill="#63b8ff" stroke="#63b8ff" points="237.87,-204.89 241.88,-195.09 232.63,-200.25 237.87,-204.89"/>
</g>
<!-- Node56&#45;&gt;Node11 -->
<g id="edge80" class="edge">
<title>Node56&#45;&gt;Node11</title>
<path fill="none" stroke="#63b8ff" d="M1113.91,-516.88C1167.55,-491.82 1310.67,-416.04 1260.5,-341 1225.35,-288.43 1035.14,-258.3 945.84,-246.86"/>
<polygon fill="#63b8ff" stroke="#63b8ff" points="946.09,-243.36 935.73,-245.59 945.21,-250.31 946.09,-243.36"/>
</g>
<!-- Node57 -->
<g id="node48" class="node">
<title>Node57</title>
<g id="a_node48"><a xlink:href="rewrite_8h.html" target="_top" xlink:title=" ">
<polygon fill="white" stroke="#666666" points="947.5,-481 855.5,-481 855.5,-462 947.5,-462 947.5,-481"/>
<text text-anchor="middle" x="901.5" y="-469" font-family="Helvetica,sans-Serif" font-size="10.00">thorin/rewrite.h</text>
</a>
</g>
</g>
<!-- Node56&#45;&gt;Node57 -->
<g id="edge81" class="edge">
<title>Node56&#45;&gt;Node57</title>
<path fill="none" stroke="#63b8ff" d="M1063.49,-516.98C1030.67,-507.97 978.7,-493.7 942.51,-483.76"/>
<polygon fill="#63b8ff" stroke="#63b8ff" points="943.32,-480.36 932.75,-481.08 941.47,-487.11 943.32,-480.36"/>
</g>
<!-- Node58 -->
<g id="node49" class="node">
<title>Node58</title>
<g id="a_node49"><a xlink:href="pass_8h.html" target="_top" xlink:title=" ">
<polygon fill="white" stroke="#666666" points="1147,-481 1042,-481 1042,-462 1147,-462 1147,-481"/>
<text text-anchor="middle" x="1094.5" y="-469" font-family="Helvetica,sans-Serif" font-size="10.00">thorin/pass/pass.h</text>
</a>
</g>
</g>
<!-- Node56&#45;&gt;Node58 -->
<g id="edge84" class="edge">
<title>Node56&#45;&gt;Node58</title>
<path fill="none" stroke="#63b8ff" d="M1094.5,-516.75C1094.5,-509.8 1094.5,-499.85 1094.5,-491.13"/>
<polygon fill="#63b8ff" stroke="#63b8ff" points="1098,-491.09 1094.5,-481.09 1091,-491.09 1098,-491.09"/>
</g>
<!-- Node57&#45;&gt;Node2 -->
<g id="edge82" class="edge">
<title>Node57&#45;&gt;Node2</title>
<path fill="none" stroke="#63b8ff" d="M901.5,-461.75C901.5,-454.8 901.5,-444.85 901.5,-436.13"/>
<polygon fill="#63b8ff" stroke="#63b8ff" points="905,-436.09 901.5,-426.09 898,-436.09 905,-436.09"/>
</g>
<!-- Node57&#45;&gt;Node53 -->
<g id="edge83" class="edge">
<title>Node57&#45;&gt;Node53</title>
<path fill="none" stroke="#63b8ff" d="M855.36,-465.12C762.1,-453.28 556.06,-421.9 509.5,-371 495.85,-356.08 494.3,-332.06 495.22,-315.35"/>
<polygon fill="#63b8ff" stroke="#63b8ff" points="498.73,-315.41 496.13,-305.14 491.75,-314.79 498.73,-315.41"/>
</g>
<!-- Node58&#45;&gt;Node2 -->
<g id="edge87" class="edge">
<title>Node58&#45;&gt;Node2</title>
<path fill="none" stroke="#63b8ff" d="M1063.49,-461.98C1030.67,-452.97 978.7,-438.7 942.51,-428.76"/>
<polygon fill="#63b8ff" stroke="#63b8ff" points="943.32,-425.36 932.75,-426.08 941.47,-432.11 943.32,-425.36"/>
</g>
<!-- Node58&#45;&gt;Node28 -->
<g id="edge85" class="edge">
<title>Node58&#45;&gt;Node28</title>
<path fill="none" stroke="#63b8ff" d="M1132.88,-461.99C1181.19,-449.51 1264.18,-422 1316.5,-371 1359.21,-329.37 1361.28,-308.15 1374.5,-250 1376.37,-241.77 1379.94,-237.46 1374.5,-231 1313.46,-158.6 1244.89,-245.05 1164.5,-195 1147.04,-184.13 1134.16,-163.96 1126.54,-149.27"/>
<polygon fill="#63b8ff" stroke="#63b8ff" points="1129.63,-147.61 1122.12,-140.15 1123.33,-150.67 1129.63,-147.61"/>
</g>
<!-- Node59 -->
<g id="node50" class="node">
<title>Node59</title>
<g id="a_node50"><a xlink:title=" ">
<polygon fill="#e0e0e0" stroke="#999999" points="1127,-426 1062,-426 1062,-407 1127,-407 1127,-426"/>
<text text-anchor="middle" x="1094.5" y="-414" font-family="Helvetica,sans-Serif" font-size="10.00">typeindex</text>
</a>
</g>
</g>
<!-- Node58&#45;&gt;Node59 -->
<g id="edge86" class="edge">
<title>Node58&#45;&gt;Node59</title>
<path fill="none" stroke="#63b8ff" d="M1094.5,-461.75C1094.5,-454.8 1094.5,-444.85 1094.5,-436.13"/>
<polygon fill="#63b8ff" stroke="#63b8ff" points="1098,-436.09 1094.5,-426.09 1091,-436.09 1098,-436.09"/>
</g>
</g>
</svg>
