<?xml version="1.0" encoding="UTF-8" standalone="no"?>
<!DOCTYPE svg PUBLIC "-//W3C//DTD SVG 1.1//EN"
 "http://www.w3.org/Graphics/SVG/1.1/DTD/svg11.dtd">
<!-- Generated by graphviz version 2.43.0 (0)
 -->
<!-- Title: thorin/be/emitter.h Pages: 1 -->
<svg width="248pt" height="93pt"
 viewBox="0.00 0.00 247.50 93.00" xmlns="http://www.w3.org/2000/svg" xmlns:xlink="http://www.w3.org/1999/xlink">
<g id="graph0" class="graph" transform="scale(1 1) rotate(0) translate(4 89)">
<title>thorin/be/emitter.h</title>
<!-- Node1 -->
<g id="node1" class="node">
<title>Node1</title>
<g id="a_node1"><a xlink:title=" ">
<polygon fill="#999999" stroke="#666666" points="169,-85 62,-85 62,-66 169,-66 169,-85"/>
<text text-anchor="middle" x="115.5" y="-73" font-family="Helvetica,sans-Serif" font-size="10.00">thorin/be/emitter.h</text>
</a>
</g>
</g>
<!-- Node2 -->
<g id="node2" class="node">
<title>Node2</title>
<g id="a_node2"><a xlink:href="ll_8cpp.html" target="_top" xlink:title=" ">
<polygon fill="white" stroke="#666666" points="103,-30 0,-30 0,0 103,0 103,-30"/>
<text text-anchor="start" x="8" y="-18" font-family="Helvetica,sans-Serif" font-size="10.00">dialects/core/be/ll</text>
<text text-anchor="middle" x="51.5" y="-7" font-family="Helvetica,sans-Serif" font-size="10.00">/ll.cpp</text>
</a>
</g>
</g>
<!-- Node1&#45;&gt;Node2 -->
<g id="edge1" class="edge">
<title>Node1&#45;&gt;Node2</title>
<path fill="none" stroke="#63b8ff" d="M98.51,-58.97C88.7,-50.01 76.47,-38.82 66.94,-30.11"/>
<polygon fill="#63b8ff" stroke="#63b8ff" points="96.31,-61.7 106.06,-65.87 101.04,-56.54 96.31,-61.7"/>
</g>
<!-- Node3 -->
<g id="node3" class="node">
<title>Node3</title>
<g id="a_node3"><a xlink:href="dot_8cpp.html" target="_top" xlink:title=" ">
<polygon fill="white" stroke="#666666" points="239.5,-24.5 121.5,-24.5 121.5,-5.5 239.5,-5.5 239.5,-24.5"/>
<text text-anchor="middle" x="180.5" y="-12.5" font-family="Helvetica,sans-Serif" font-size="10.00">thorin/be/dot/dot.cpp</text>
</a>
</g>
</g>
<!-- Node1&#45;&gt;Node3 -->
<g id="edge2" class="edge">
<title>Node1&#45;&gt;Node3</title>
<path fill="none" stroke="#63b8ff" d="M132.82,-58.91C145.01,-47.94 160.87,-33.67 170.87,-24.67"/>
<polygon fill="#63b8ff" stroke="#63b8ff" points="130.18,-56.58 125.09,-65.87 134.87,-61.78 130.18,-56.58"/>
</g>
</g>
</svg>
