<?xml version="1.0" encoding="UTF-8" standalone="no"?>
<!DOCTYPE svg PUBLIC "-//W3C//DTD SVG 1.1//EN"
 "http://www.w3.org/Graphics/SVG/1.1/DTD/svg11.dtd">
<!-- Generated by graphviz version 2.50.0 (20220203.2022)
 -->
<!-- Title: thorin/error.cpp Pages: 1 -->
<svg width="1693pt" height="375pt"
 viewBox="0.00 0.00 1693.48 375.00" xmlns="http://www.w3.org/2000/svg" xmlns:xlink="http://www.w3.org/1999/xlink">
<g id="graph0" class="graph" transform="scale(1 1) rotate(0) translate(4 371)">
<title>thorin/error.cpp</title>
<!-- Node1 -->
<g id="node1" class="node">
<title>Node1</title>
<g id="a_node1"><a xlink:title=" ">
<polygon fill="#bfbfbf" stroke="black" points="740.98,-347.5 740.98,-366.5 821.98,-366.5 821.98,-347.5 740.98,-347.5"/>
<text text-anchor="middle" x="781.48" y="-354.5" font-family="Helvetica,sans-Serif" font-size="10.00">thorin/error.cpp</text>
</a>
</g>
</g>
<!-- Node2 -->
<g id="node2" class="node">
<title>Node2</title>
<g id="a_node2"><a xlink:href="error_8h.html" target="_top" xlink:title=" ">
<polygon fill="none" stroke="black" points="630.98,-291.5 630.98,-310.5 701.98,-310.5 701.98,-291.5 630.98,-291.5"/>
<text text-anchor="middle" x="666.48" y="-298.5" font-family="Helvetica,sans-Serif" font-size="10.00">thorin/error.h</text>
</a>
</g>
</g>
<!-- Node1&#45;&gt;Node2 -->
<g id="edge1" class="edge">
<title>Node1&#45;&gt;Node2</title>
<path fill="none" stroke="midnightblue" d="M763.26,-347.44C744.59,-338.68 715.33,-324.94 693.87,-314.86"/>
<polygon fill="midnightblue" stroke="midnightblue" points="695.16,-311.6 684.62,-310.52 692.18,-317.93 695.16,-311.6"/>
</g>
<!-- Node4 -->
<g id="node4" class="node">
<title>Node4</title>
<g id="a_node4"><a xlink:href="lam_8h.html" target="_top" xlink:title=" ">
<polygon fill="none" stroke="black" points="747.98,-291.5 747.98,-310.5 814.98,-310.5 814.98,-291.5 747.98,-291.5"/>
<text text-anchor="middle" x="781.48" y="-298.5" font-family="Helvetica,sans-Serif" font-size="10.00">thorin/lam.h</text>
</a>
</g>
</g>
<!-- Node1&#45;&gt;Node4 -->
<g id="edge3" class="edge">
<title>Node1&#45;&gt;Node4</title>
<path fill="none" stroke="midnightblue" d="M781.48,-347.08C781.48,-340.01 781.48,-329.86 781.48,-320.99"/>
<polygon fill="midnightblue" stroke="midnightblue" points="784.98,-320.75 781.48,-310.75 777.98,-320.75 784.98,-320.75"/>
</g>
<!-- Node14 -->
<g id="node14" class="node">
<title>Node14</title>
<g id="a_node14"><a xlink:href="stream_8h.html" target="_top" xlink:title=" ">
<polygon fill="none" stroke="black" points="806.98,-118 806.98,-137 903.98,-137 903.98,-118 806.98,-118"/>
<text text-anchor="middle" x="855.48" y="-125" font-family="Helvetica,sans-Serif" font-size="10.00">thorin/util/stream.h</text>
</a>
</g>
</g>
<!-- Node1&#45;&gt;Node14 -->
<g id="edge59" class="edge">
<title>Node1&#45;&gt;Node14</title>
<path fill="none" stroke="midnightblue" d="M792.7,-347.2C802.52,-338.9 816.45,-325.57 824.48,-311 854.17,-257.14 856.8,-181.82 856.23,-147.23"/>
<polygon fill="midnightblue" stroke="midnightblue" points="859.73,-147.04 855.95,-137.14 852.73,-147.24 859.73,-147.04"/>
</g>
<!-- Node3 -->
<g id="node3" class="node">
<title>Node3</title>
<g id="a_node3"><a xlink:title=" ">
<polygon fill="none" stroke="#bfbfbf" points="622.98,-235.5 622.98,-254.5 681.98,-254.5 681.98,-235.5 622.98,-235.5"/>
<text text-anchor="middle" x="652.48" y="-242.5" font-family="Helvetica,sans-Serif" font-size="10.00">stdexcept</text>
</a>
</g>
</g>
<!-- Node2&#45;&gt;Node3 -->
<g id="edge2" class="edge">
<title>Node2&#45;&gt;Node3</title>
<path fill="none" stroke="midnightblue" d="M664.17,-291.08C662.32,-283.93 659.65,-273.64 657.33,-264.69"/>
<polygon fill="midnightblue" stroke="midnightblue" points="660.65,-263.55 654.75,-254.75 653.87,-265.31 660.65,-263.55"/>
</g>
<!-- Node5 -->
<g id="node5" class="node">
<title>Node5</title>
<g id="a_node5"><a xlink:title=" ">
<polygon fill="none" stroke="#bfbfbf" points="783.48,-235.5 783.48,-254.5 829.48,-254.5 829.48,-235.5 783.48,-235.5"/>
<text text-anchor="middle" x="806.48" y="-242.5" font-family="Helvetica,sans-Serif" font-size="10.00">variant</text>
</a>
</g>
</g>
<!-- Node4&#45;&gt;Node5 -->
<g id="edge4" class="edge">
<title>Node4&#45;&gt;Node5</title>
<path fill="none" stroke="midnightblue" d="M785.61,-291.08C789,-283.77 793.9,-273.18 798.1,-264.1"/>
<polygon fill="midnightblue" stroke="midnightblue" points="801.41,-265.3 802.43,-254.75 795.05,-262.36 801.41,-265.3"/>
</g>
<!-- Node6 -->
<g id="node6" class="node">
<title>Node6</title>
<g id="a_node6"><a xlink:href="def_8h.html" target="_top" xlink:title=" ">
<polygon fill="none" stroke="black" points="699.98,-235.5 699.98,-254.5 764.98,-254.5 764.98,-235.5 699.98,-235.5"/>
<text text-anchor="middle" x="732.48" y="-242.5" font-family="Helvetica,sans-Serif" font-size="10.00">thorin/def.h</text>
</a>
</g>
</g>
<!-- Node4&#45;&gt;Node6 -->
<g id="edge5" class="edge">
<title>Node4&#45;&gt;Node6</title>
<path fill="none" stroke="midnightblue" d="M773.39,-291.08C766.33,-283.3 755.9,-271.8 747.33,-262.37"/>
<polygon fill="midnightblue" stroke="midnightblue" points="749.74,-259.8 740.42,-254.75 744.55,-264.51 749.74,-259.8"/>
</g>
<!-- Node7 -->
<g id="node7" class="node">
<title>Node7</title>
<g id="a_node7"><a xlink:title=" ">
<polygon fill="none" stroke="#bfbfbf" points="432.48,-179.5 432.48,-198.5 482.48,-198.5 482.48,-179.5 432.48,-179.5"/>
<text text-anchor="middle" x="457.48" y="-186.5" font-family="Helvetica,sans-Serif" font-size="10.00">optional</text>
</a>
</g>
</g>
<!-- Node6&#45;&gt;Node7 -->
<g id="edge6" class="edge">
<title>Node6&#45;&gt;Node7</title>
<path fill="none" stroke="midnightblue" d="M699.83,-236.73C697.01,-236.13 694.2,-235.55 691.48,-235 605.1,-217.55 582.77,-216.91 496.48,-199 495.22,-198.74 493.93,-198.47 492.64,-198.19"/>
<polygon fill="midnightblue" stroke="midnightblue" points="493.14,-194.72 482.62,-195.97 491.63,-201.55 493.14,-194.72"/>
</g>
<!-- Node8 -->
<g id="node8" class="node">
<title>Node8</title>
<g id="a_node8"><a xlink:title=" ">
<polygon fill="none" stroke="#bfbfbf" points="427.48,-56.5 427.48,-75.5 471.48,-75.5 471.48,-56.5 427.48,-56.5"/>
<text text-anchor="middle" x="449.48" y="-63.5" font-family="Helvetica,sans-Serif" font-size="10.00">vector</text>
</a>
</g>
</g>
<!-- Node6&#45;&gt;Node8 -->
<g id="edge7" class="edge">
<title>Node6&#45;&gt;Node8</title>
<path fill="none" stroke="midnightblue" d="M718.29,-235.46C689.65,-218.2 622.95,-177.83 567.48,-143 533.6,-121.72 494.63,-96.47 471.05,-81.1"/>
<polygon fill="midnightblue" stroke="midnightblue" points="472.8,-78.07 462.52,-75.53 468.98,-83.93 472.8,-78.07"/>
</g>
<!-- Node9 -->
<g id="node9" class="node">
<title>Node9</title>
<g id="a_node9"><a xlink:href="debug_8h.html" target="_top" xlink:title=" ">
<polygon fill="none" stroke="black" points="916.98,-179.5 916.98,-198.5 993.98,-198.5 993.98,-179.5 916.98,-179.5"/>
<text text-anchor="middle" x="955.48" y="-186.5" font-family="Helvetica,sans-Serif" font-size="10.00">thorin/debug.h</text>
</a>
</g>
</g>
<!-- Node6&#45;&gt;Node9 -->
<g id="edge8" class="edge">
<title>Node6&#45;&gt;Node9</title>
<path fill="none" stroke="midnightblue" d="M765.39,-236.03C803.75,-226.74 867.36,-211.34 910.32,-200.94"/>
<polygon fill="midnightblue" stroke="midnightblue" points="911.34,-204.29 920.23,-198.54 909.69,-197.49 911.34,-204.29"/>
</g>
<!-- Node6&#45;&gt;Node14 -->
<g id="edge58" class="edge">
<title>Node6&#45;&gt;Node14</title>
<path fill="none" stroke="midnightblue" d="M741.73,-235.32C762.39,-215.92 812.53,-168.83 838.8,-144.16"/>
<polygon fill="midnightblue" stroke="midnightblue" points="841.24,-146.68 846.13,-137.28 836.44,-141.58 841.24,-146.68"/>
</g>
<!-- Node23 -->
<g id="node23" class="node">
<title>Node23</title>
<g id="a_node23"><a xlink:href="tables_8h.html" target="_top" xlink:title=" ">
<polygon fill="none" stroke="black" points="701.98,-118 701.98,-137 778.98,-137 778.98,-118 701.98,-118"/>
<text text-anchor="middle" x="740.48" y="-125" font-family="Helvetica,sans-Serif" font-size="10.00">thorin/tables.h</text>
</a>
</g>
</g>
<!-- Node6&#45;&gt;Node23 -->
<g id="edge24" class="edge">
<title>Node6&#45;&gt;Node23</title>
<path fill="none" stroke="midnightblue" d="M733.08,-235.32C734.37,-216.76 737.41,-172.84 739.17,-147.47"/>
<polygon fill="midnightblue" stroke="midnightblue" points="742.67,-147.5 739.87,-137.28 735.69,-147.02 742.67,-147.5"/>
</g>
<!-- Node32 -->
<g id="node32" class="node">
<title>Node32</title>
<g id="a_node32"><a xlink:href="array_8h.html" target="_top" xlink:title=" ">
<polygon fill="none" stroke="black" points="303.48,-118 303.48,-137 391.48,-137 391.48,-118 303.48,-118"/>
<text text-anchor="middle" x="347.48" y="-125" font-family="Helvetica,sans-Serif" font-size="10.00">thorin/util/array.h</text>
</a>
</g>
</g>
<!-- Node6&#45;&gt;Node32 -->
<g id="edge34" class="edge">
<title>Node6&#45;&gt;Node32</title>
<path fill="none" stroke="midnightblue" d="M699.65,-236.73C645.43,-224.69 542.32,-201.68 534.48,-199 514.54,-192.18 511.01,-186.94 491.48,-179 455.48,-164.36 413.45,-149.91 384.13,-140.25"/>
<polygon fill="midnightblue" stroke="midnightblue" points="384.91,-136.82 374.32,-137.04 382.73,-143.47 384.91,-136.82"/>
</g>
<!-- Node38 -->
<g id="node38" class="node">
<title>Node38</title>
<g id="a_node38"><a xlink:href="cast_8h.html" target="_top" xlink:title=" ">
<polygon fill="none" stroke="black" points="576.48,-118 576.48,-137 662.48,-137 662.48,-118 576.48,-118"/>
<text text-anchor="middle" x="619.48" y="-125" font-family="Helvetica,sans-Serif" font-size="10.00">thorin/util/cast.h</text>
</a>
</g>
</g>
<!-- Node6&#45;&gt;Node38 -->
<g id="edge45" class="edge">
<title>Node6&#45;&gt;Node38</title>
<path fill="none" stroke="midnightblue" d="M723.99,-235.32C705.09,-216 659.34,-169.24 635.12,-144.48"/>
<polygon fill="midnightblue" stroke="midnightblue" points="637.57,-141.98 628.07,-137.28 632.57,-146.88 637.57,-141.98"/>
</g>
<!-- Node39 -->
<g id="node39" class="node">
<title>Node39</title>
<g id="a_node39"><a xlink:href="container_8h.html" target="_top" xlink:title=" ">
<polygon fill="none" stroke="black" points="1236.98,-179.5 1236.98,-198.5 1343.98,-198.5 1343.98,-179.5 1236.98,-179.5"/>
<text text-anchor="middle" x="1290.48" y="-186.5" font-family="Helvetica,sans-Serif" font-size="10.00">thorin/util/container.h</text>
</a>
</g>
</g>
<!-- Node6&#45;&gt;Node39 -->
<g id="edge48" class="edge">
<title>Node6&#45;&gt;Node39</title>
<path fill="none" stroke="midnightblue" d="M765.43,-236.54C768.48,-235.97 771.53,-235.44 774.48,-235 936.38,-210.69 1128.97,-198.2 1226.72,-193.01"/>
<polygon fill="midnightblue" stroke="midnightblue" points="1226.94,-196.5 1236.74,-192.49 1226.57,-189.51 1226.94,-196.5"/>
</g>
<!-- Node44 -->
<g id="node44" class="node">
<title>Node44</title>
<g id="a_node44"><a xlink:href="hash_8h.html" target="_top" xlink:title=" ">
<polygon fill="none" stroke="black" points="1597.48,-118 1597.48,-137 1685.48,-137 1685.48,-118 1597.48,-118"/>
<text text-anchor="middle" x="1641.48" y="-125" font-family="Helvetica,sans-Serif" font-size="10.00">thorin/util/hash.h</text>
</a>
</g>
</g>
<!-- Node6&#45;&gt;Node44 -->
<g id="edge57" class="edge">
<title>Node6&#45;&gt;Node44</title>
<path fill="none" stroke="midnightblue" d="M765.42,-236.46C768.47,-235.91 771.53,-235.41 774.48,-235 1029.91,-199.89 1098.47,-237.02 1353.48,-199 1444.84,-185.38 1549.62,-156.22 1604.12,-139.99"/>
<polygon fill="midnightblue" stroke="midnightblue" points="1605.45,-143.25 1614.02,-137.02 1603.43,-136.54 1605.45,-143.25"/>
</g>
<!-- Node10 -->
<g id="node10" class="node">
<title>Node10</title>
<g id="a_node10"><a xlink:title=" ">
<polygon fill="none" stroke="#bfbfbf" points="1169.98,-56.5 1169.98,-75.5 1210.98,-75.5 1210.98,-56.5 1169.98,-56.5"/>
<text text-anchor="middle" x="1190.48" y="-63.5" font-family="Helvetica,sans-Serif" font-size="10.00">string</text>
</a>
</g>
</g>
<!-- Node9&#45;&gt;Node10 -->
<g id="edge9" class="edge">
<title>Node9&#45;&gt;Node10</title>
<path fill="none" stroke="midnightblue" d="M951.6,-179.28C945.35,-163.76 935.31,-131.2 951.48,-112 980.13,-78 1099.9,-85.71 1159.8,-75.56"/>
<polygon fill="midnightblue" stroke="midnightblue" points="1160.8,-78.93 1169.91,-73.53 1159.42,-72.07 1160.8,-78.93"/>
</g>
<!-- Node11 -->
<g id="node11" class="node">
<title>Node11</title>
<g id="a_node11"><a xlink:title=" ">
<polygon fill="none" stroke="#bfbfbf" points="960.48,-118 960.48,-137 998.48,-137 998.48,-118 960.48,-118"/>
<text text-anchor="middle" x="979.48" y="-125" font-family="Helvetica,sans-Serif" font-size="10.00">tuple</text>
</a>
</g>
</g>
<!-- Node9&#45;&gt;Node11 -->
<g id="edge10" class="edge">
<title>Node9&#45;&gt;Node11</title>
<path fill="none" stroke="midnightblue" d="M958.92,-179.48C962.38,-170.9 967.81,-157.43 972.23,-146.48"/>
<polygon fill="midnightblue" stroke="midnightblue" points="975.56,-147.59 976.05,-137.01 969.06,-144.97 975.56,-147.59"/>
</g>
<!-- Node12 -->
<g id="node12" class="node">
<title>Node12</title>
<g id="a_node12"><a xlink:title=" ">
<polygon fill="none" stroke="#bfbfbf" points="1016.98,-112.5 1016.98,-142.5 1109.98,-142.5 1109.98,-112.5 1016.98,-112.5"/>
<text text-anchor="start" x="1024.98" y="-130.5" font-family="Helvetica,sans-Serif" font-size="10.00">absl/container/flat</text>
<text text-anchor="middle" x="1063.48" y="-119.5" font-family="Helvetica,sans-Serif" font-size="10.00">_hash_map.h</text>
</a>
</g>
</g>
<!-- Node9&#45;&gt;Node12 -->
<g id="edge11" class="edge">
<title>Node9&#45;&gt;Node12</title>
<path fill="none" stroke="midnightblue" d="M970.96,-179.48C986.06,-171.15 1009.56,-158.21 1029.1,-147.45"/>
<polygon fill="midnightblue" stroke="midnightblue" points="1030.96,-150.41 1038.03,-142.52 1027.58,-144.28 1030.96,-150.41"/>
</g>
<!-- Node13 -->
<g id="node13" class="node">
<title>Node13</title>
<g id="a_node13"><a xlink:title=" ">
<polygon fill="none" stroke="#bfbfbf" points="1127.98,-112.5 1127.98,-142.5 1220.98,-142.5 1220.98,-112.5 1127.98,-112.5"/>
<text text-anchor="start" x="1135.98" y="-130.5" font-family="Helvetica,sans-Serif" font-size="10.00">absl/container/flat</text>
<text text-anchor="middle" x="1174.48" y="-119.5" font-family="Helvetica,sans-Serif" font-size="10.00">_hash_set.h</text>
</a>
</g>
</g>
<!-- Node9&#45;&gt;Node13 -->
<g id="edge12" class="edge">
<title>Node9&#45;&gt;Node13</title>
<path fill="none" stroke="midnightblue" d="M986.86,-179.48C1021.02,-170.19 1076.35,-155.16 1118.09,-143.82"/>
<polygon fill="midnightblue" stroke="midnightblue" points="1119.12,-147.17 1127.85,-141.17 1117.29,-140.41 1119.12,-147.17"/>
</g>
<!-- Node9&#45;&gt;Node14 -->
<g id="edge13" class="edge">
<title>Node9&#45;&gt;Node14</title>
<path fill="none" stroke="midnightblue" d="M941.16,-179.48C924.82,-169.75 897.88,-153.73 878.57,-142.24"/>
<polygon fill="midnightblue" stroke="midnightblue" points="880.17,-139.11 869.78,-137.01 876.59,-145.13 880.17,-139.11"/>
</g>
<!-- Node14&#45;&gt;Node10 -->
<g id="edge21" class="edge">
<title>Node14&#45;&gt;Node10</title>
<path fill="none" stroke="midnightblue" d="M890.37,-117.96C899.49,-115.86 909.33,-113.73 918.48,-112 1022.2,-92.38 1052.59,-99.25 1159.99,-75.8"/>
<polygon fill="midnightblue" stroke="midnightblue" points="1160.93,-79.18 1169.93,-73.59 1159.41,-72.34 1160.93,-79.18"/>
</g>
<!-- Node15 -->
<g id="node15" class="node">
<title>Node15</title>
<g id="a_node15"><a xlink:title=" ">
<polygon fill="none" stroke="#bfbfbf" points="618.98,-0.5 618.98,-19.5 667.98,-19.5 667.98,-0.5 618.98,-0.5"/>
<text text-anchor="middle" x="643.48" y="-7.5" font-family="Helvetica,sans-Serif" font-size="10.00">cassert</text>
</a>
</g>
</g>
<!-- Node14&#45;&gt;Node15 -->
<g id="edge14" class="edge">
<title>Node14&#45;&gt;Node15</title>
<path fill="none" stroke="midnightblue" d="M856.65,-117.79C858.11,-102.98 858.69,-72.87 842.48,-56 820.2,-32.81 729.41,-19.88 678.5,-14.32"/>
<polygon fill="midnightblue" stroke="midnightblue" points="678.6,-10.81 668.29,-13.24 677.87,-17.77 678.6,-10.81"/>
</g>
<!-- Node16 -->
<g id="node16" class="node">
<title>Node16</title>
<g id="a_node16"><a xlink:title=" ">
<polygon fill="none" stroke="#bfbfbf" points="591.48,-56.5 591.48,-75.5 637.48,-75.5 637.48,-56.5 591.48,-56.5"/>
<text text-anchor="middle" x="614.48" y="-63.5" font-family="Helvetica,sans-Serif" font-size="10.00">cstring</text>
</a>
</g>
</g>
<!-- Node14&#45;&gt;Node16 -->
<g id="edge15" class="edge">
<title>Node14&#45;&gt;Node16</title>
<path fill="none" stroke="midnightblue" d="M818.38,-117.97C778.48,-108.71 712.94,-93.21 647.22,-76.12"/>
<polygon fill="midnightblue" stroke="midnightblue" points="648.09,-72.73 637.53,-73.59 646.32,-79.5 648.09,-72.73"/>
</g>
<!-- Node17 -->
<g id="node17" class="node">
<title>Node17</title>
<g id="a_node17"><a xlink:title=" ">
<polygon fill="none" stroke="#bfbfbf" points="1029.48,-56.5 1029.48,-75.5 1079.48,-75.5 1079.48,-56.5 1029.48,-56.5"/>
<text text-anchor="middle" x="1054.48" y="-63.5" font-family="Helvetica,sans-Serif" font-size="10.00">fstream</text>
</a>
</g>
</g>
<!-- Node14&#45;&gt;Node17 -->
<g id="edge16" class="edge">
<title>Node14&#45;&gt;Node17</title>
<path fill="none" stroke="midnightblue" d="M883.99,-117.98C919.81,-107.27 981.22,-88.91 1019.74,-77.39"/>
<polygon fill="midnightblue" stroke="midnightblue" points="1020.9,-80.69 1029.48,-74.47 1018.9,-73.99 1020.9,-80.69"/>
</g>
<!-- Node18 -->
<g id="node18" class="node">
<title>Node18</title>
<g id="a_node18"><a xlink:title=" ">
<polygon fill="none" stroke="#bfbfbf" points="1097.48,-56.5 1097.48,-75.5 1151.48,-75.5 1151.48,-56.5 1097.48,-56.5"/>
<text text-anchor="middle" x="1124.48" y="-63.5" font-family="Helvetica,sans-Serif" font-size="10.00">iostream</text>
</a>
</g>
</g>
<!-- Node14&#45;&gt;Node18 -->
<g id="edge17" class="edge">
<title>Node14&#45;&gt;Node18</title>
<path fill="none" stroke="midnightblue" d="M892.1,-117.96C900.75,-115.97 909.93,-113.89 918.48,-112 990.8,-96.02 1011.55,-93.55 1087.35,-76.2"/>
<polygon fill="midnightblue" stroke="midnightblue" points="1088.42,-79.54 1097.38,-73.89 1086.85,-72.72 1088.42,-79.54"/>
</g>
<!-- Node19 -->
<g id="node19" class="node">
<title>Node19</title>
<g id="a_node19"><a xlink:title=" ">
<polygon fill="none" stroke="#bfbfbf" points="889.98,-56.5 889.98,-75.5 940.98,-75.5 940.98,-56.5 889.98,-56.5"/>
<text text-anchor="middle" x="915.48" y="-63.5" font-family="Helvetica,sans-Serif" font-size="10.00">memory</text>
</a>
</g>
</g>
<!-- Node14&#45;&gt;Node19 -->
<g id="edge18" class="edge">
<title>Node14&#45;&gt;Node19</title>
<path fill="none" stroke="midnightblue" d="M864.08,-117.98C873.35,-108.78 888.3,-93.96 899.7,-82.66"/>
<polygon fill="midnightblue" stroke="midnightblue" points="902.27,-85.04 906.9,-75.51 897.34,-80.07 902.27,-85.04"/>
</g>
<!-- Node20 -->
<g id="node20" class="node">
<title>Node20</title>
<g id="a_node20"><a xlink:title=" ">
<polygon fill="none" stroke="#bfbfbf" points="527.48,-56.5 527.48,-75.5 573.48,-75.5 573.48,-56.5 527.48,-56.5"/>
<text text-anchor="middle" x="550.48" y="-63.5" font-family="Helvetica,sans-Serif" font-size="10.00">ranges</text>
</a>
</g>
</g>
<!-- Node14&#45;&gt;Node20 -->
<g id="edge19" class="edge">
<title>Node14&#45;&gt;Node20</title>
<path fill="none" stroke="midnightblue" d="M817.27,-117.95C807.87,-115.93 797.83,-113.83 788.48,-112 700.38,-94.78 674.84,-96.47 583.44,-76.02"/>
<polygon fill="midnightblue" stroke="midnightblue" points="584.01,-72.56 573.48,-73.77 582.46,-79.39 584.01,-72.56"/>
</g>
<!-- Node21 -->
<g id="node21" class="node">
<title>Node21</title>
<g id="a_node21"><a xlink:title=" ">
<polygon fill="none" stroke="#bfbfbf" points="959.48,-56.5 959.48,-75.5 1011.48,-75.5 1011.48,-56.5 959.48,-56.5"/>
<text text-anchor="middle" x="985.48" y="-63.5" font-family="Helvetica,sans-Serif" font-size="10.00">sstream</text>
</a>
</g>
</g>
<!-- Node14&#45;&gt;Node21 -->
<g id="edge20" class="edge">
<title>Node14&#45;&gt;Node21</title>
<path fill="none" stroke="midnightblue" d="M874.11,-117.98C895.93,-107.99 932.29,-91.35 957.5,-79.81"/>
<polygon fill="midnightblue" stroke="midnightblue" points="959.26,-82.85 966.89,-75.51 956.34,-76.49 959.26,-82.85"/>
</g>
<!-- Node22 -->
<g id="node22" class="node">
<title>Node22</title>
<g id="a_node22"><a xlink:href="assert_8h.html" target="_top" xlink:title=" ">
<polygon fill="none" stroke="black" points="739.48,-56.5 739.48,-75.5 833.48,-75.5 833.48,-56.5 739.48,-56.5"/>
<text text-anchor="middle" x="786.48" y="-63.5" font-family="Helvetica,sans-Serif" font-size="10.00">thorin/util/assert.h</text>
</a>
</g>
</g>
<!-- Node14&#45;&gt;Node22 -->
<g id="edge22" class="edge">
<title>Node14&#45;&gt;Node22</title>
<path fill="none" stroke="midnightblue" d="M845.6,-117.98C834.84,-108.7 817.41,-93.67 804.26,-82.33"/>
<polygon fill="midnightblue" stroke="midnightblue" points="806.21,-79.39 796.35,-75.51 801.64,-84.69 806.21,-79.39"/>
</g>
<!-- Node22&#45;&gt;Node15 -->
<g id="edge23" class="edge">
<title>Node22&#45;&gt;Node15</title>
<path fill="none" stroke="midnightblue" d="M763.82,-56.44C740.08,-47.48 702.57,-33.31 675.74,-23.18"/>
<polygon fill="midnightblue" stroke="midnightblue" points="676.63,-19.77 666.04,-19.52 674.15,-26.32 676.63,-19.77"/>
</g>
<!-- Node23&#45;&gt;Node22 -->
<g id="edge26" class="edge">
<title>Node23&#45;&gt;Node22</title>
<path fill="none" stroke="midnightblue" d="M747.07,-117.98C753.97,-109.05 764.98,-94.81 773.62,-83.64"/>
<polygon fill="midnightblue" stroke="midnightblue" points="776.56,-85.56 779.9,-75.51 771.02,-81.28 776.56,-85.56"/>
</g>
<!-- Node24 -->
<g id="node24" class="node">
<title>Node24</title>
<g id="a_node24"><a xlink:title=" ">
<polygon fill="none" stroke="#bfbfbf" points="655.48,-56.5 655.48,-75.5 721.48,-75.5 721.48,-56.5 655.48,-56.5"/>
<text text-anchor="middle" x="688.48" y="-63.5" font-family="Helvetica,sans-Serif" font-size="10.00">string_view</text>
</a>
</g>
</g>
<!-- Node23&#45;&gt;Node24 -->
<g id="edge25" class="edge">
<title>Node23&#45;&gt;Node24</title>
<path fill="none" stroke="midnightblue" d="M733.03,-117.98C725.16,-108.96 712.54,-94.52 702.74,-83.31"/>
<polygon fill="midnightblue" stroke="midnightblue" points="705.14,-80.74 695.92,-75.51 699.86,-85.34 705.14,-80.74"/>
</g>
<!-- Node25 -->
<g id="node25" class="node">
<title>Node25</title>
<g id="a_node25"><a xlink:href="types_8h.html" target="_top" xlink:title=" ">
<polygon fill="none" stroke="black" points="1229.48,-56.5 1229.48,-75.5 1319.48,-75.5 1319.48,-56.5 1229.48,-56.5"/>
<text text-anchor="middle" x="1274.48" y="-63.5" font-family="Helvetica,sans-Serif" font-size="10.00">thorin/util/types.h</text>
</a>
</g>
</g>
<!-- Node23&#45;&gt;Node25 -->
<g id="edge27" class="edge">
<title>Node23&#45;&gt;Node25</title>
<path fill="none" stroke="midnightblue" d="M770.69,-117.98C779.58,-115.73 789.37,-113.52 798.48,-112 980.9,-81.62 1031.93,-98.86 1219.25,-76.05"/>
<polygon fill="midnightblue" stroke="midnightblue" points="1219.95,-79.49 1229.44,-74.78 1219.09,-72.54 1219.95,-79.49"/>
</g>
<!-- Node26 -->
<g id="node26" class="node">
<title>Node26</title>
<g id="a_node26"><a xlink:title=" ">
<polygon fill="none" stroke="#bfbfbf" points="1190.48,-0.5 1190.48,-19.5 1236.48,-19.5 1236.48,-0.5 1190.48,-0.5"/>
<text text-anchor="middle" x="1213.48" y="-7.5" font-family="Helvetica,sans-Serif" font-size="10.00">cstdint</text>
</a>
</g>
</g>
<!-- Node25&#45;&gt;Node26 -->
<g id="edge28" class="edge">
<title>Node25&#45;&gt;Node26</title>
<path fill="none" stroke="midnightblue" d="M1264.68,-56.32C1255.66,-48.34 1242.08,-36.31 1231.16,-26.65"/>
<polygon fill="midnightblue" stroke="midnightblue" points="1233.27,-23.84 1223.46,-19.83 1228.63,-29.08 1233.27,-23.84"/>
</g>
<!-- Node27 -->
<g id="node27" class="node">
<title>Node27</title>
<g id="a_node27"><a xlink:title=" ">
<polygon fill="none" stroke="#bfbfbf" points="1254.48,-0.5 1254.48,-19.5 1294.48,-19.5 1294.48,-0.5 1254.48,-0.5"/>
<text text-anchor="middle" x="1274.48" y="-7.5" font-family="Helvetica,sans-Serif" font-size="10.00">limits</text>
</a>
</g>
</g>
<!-- Node25&#45;&gt;Node27 -->
<g id="edge29" class="edge">
<title>Node25&#45;&gt;Node27</title>
<path fill="none" stroke="midnightblue" d="M1274.48,-56.08C1274.48,-49.01 1274.48,-38.86 1274.48,-29.99"/>
<polygon fill="midnightblue" stroke="midnightblue" points="1277.98,-29.75 1274.48,-19.75 1270.98,-29.75 1277.98,-29.75"/>
</g>
<!-- Node28 -->
<g id="node28" class="node">
<title>Node28</title>
<g id="a_node28"><a xlink:title=" ">
<polygon fill="none" stroke="#bfbfbf" points="1312.48,-0.5 1312.48,-19.5 1364.48,-19.5 1364.48,-0.5 1312.48,-0.5"/>
<text text-anchor="middle" x="1338.48" y="-7.5" font-family="Helvetica,sans-Serif" font-size="10.00">ostream</text>
</a>
</g>
</g>
<!-- Node25&#45;&gt;Node28 -->
<g id="edge30" class="edge">
<title>Node25&#45;&gt;Node28</title>
<path fill="none" stroke="midnightblue" d="M1284.77,-56.32C1294.32,-48.26 1308.76,-36.08 1320.27,-26.37"/>
<polygon fill="midnightblue" stroke="midnightblue" points="1322.63,-28.96 1328.01,-19.83 1318.11,-23.61 1322.63,-28.96"/>
</g>
<!-- Node29 -->
<g id="node29" class="node">
<title>Node29</title>
<g id="a_node29"><a xlink:title=" ">
<polygon fill="none" stroke="#bfbfbf" points="864.48,-0.5 864.48,-19.5 926.48,-19.5 926.48,-0.5 864.48,-0.5"/>
<text text-anchor="middle" x="895.48" y="-7.5" font-family="Helvetica,sans-Serif" font-size="10.00">type_traits</text>
</a>
</g>
</g>
<!-- Node25&#45;&gt;Node29 -->
<g id="edge31" class="edge">
<title>Node25&#45;&gt;Node29</title>
<path fill="none" stroke="midnightblue" d="M1229.42,-57.39C1226.39,-56.91 1223.4,-56.44 1220.48,-56 1118.81,-40.49 998.89,-24.47 937.04,-16.38"/>
<polygon fill="midnightblue" stroke="midnightblue" points="937.27,-12.88 926.9,-15.06 936.36,-19.82 937.27,-12.88"/>
</g>
<!-- Node30 -->
<g id="node30" class="node">
<title>Node30</title>
<g id="a_node30"><a xlink:title=" ">
<polygon fill="none" stroke="#bfbfbf" points="1382.48,-0.5 1382.48,-19.5 1426.48,-19.5 1426.48,-0.5 1382.48,-0.5"/>
<text text-anchor="middle" x="1404.48" y="-7.5" font-family="Helvetica,sans-Serif" font-size="10.00">cmath</text>
</a>
</g>
</g>
<!-- Node25&#45;&gt;Node30 -->
<g id="edge32" class="edge">
<title>Node25&#45;&gt;Node30</title>
<path fill="none" stroke="midnightblue" d="M1295.08,-56.44C1316.48,-47.56 1350.16,-33.56 1374.51,-23.45"/>
<polygon fill="midnightblue" stroke="midnightblue" points="1376.09,-26.58 1383.98,-19.52 1373.4,-20.12 1376.09,-26.58"/>
</g>
<!-- Node31 -->
<g id="node31" class="node">
<title>Node31</title>
<g id="a_node31"><a xlink:title=" ">
<polygon fill="none" stroke="#bfbfbf" points="1122.48,-0.5 1122.48,-19.5 1172.48,-19.5 1172.48,-0.5 1122.48,-0.5"/>
<text text-anchor="middle" x="1147.48" y="-7.5" font-family="Helvetica,sans-Serif" font-size="10.00">half.hpp</text>
</a>
</g>
</g>
<!-- Node25&#45;&gt;Node31 -->
<g id="edge33" class="edge">
<title>Node25&#45;&gt;Node31</title>
<path fill="none" stroke="midnightblue" d="M1254.36,-56.44C1233.46,-47.56 1200.55,-33.56 1176.77,-23.45"/>
<polygon fill="midnightblue" stroke="midnightblue" points="1178.08,-20.21 1167.51,-19.52 1175.35,-26.65 1178.08,-20.21"/>
</g>
<!-- Node32&#45;&gt;Node8 -->
<g id="edge44" class="edge">
<title>Node32&#45;&gt;Node8</title>
<path fill="none" stroke="midnightblue" d="M362.1,-117.98C378.84,-108.21 406.49,-92.08 426.2,-80.58"/>
<polygon fill="midnightblue" stroke="midnightblue" points="428.02,-83.57 434.9,-75.51 424.49,-77.52 428.02,-83.57"/>
</g>
<!-- Node32&#45;&gt;Node15 -->
<g id="edge35" class="edge">
<title>Node32&#45;&gt;Node15</title>
<path fill="none" stroke="midnightblue" d="M303.26,-126.82C219.49,-126.39 42.59,-120.13 4.48,-76 -1.33,-69.27 -1.58,-62.5 4.48,-56 45.84,-11.63 480.69,-10.2 608.41,-10.75"/>
<polygon fill="midnightblue" stroke="midnightblue" points="608.75,-14.25 618.77,-10.8 608.79,-7.25 608.75,-14.25"/>
</g>
<!-- Node32&#45;&gt;Node16 -->
<g id="edge37" class="edge">
<title>Node32&#45;&gt;Node16</title>
<path fill="none" stroke="midnightblue" d="M390.98,-118C436.26,-108.96 509.43,-93.83 581.73,-76.07"/>
<polygon fill="midnightblue" stroke="midnightblue" points="582.59,-79.46 591.46,-73.66 580.91,-72.67 582.59,-79.46"/>
</g>
<!-- Node32&#45;&gt;Node20 -->
<g id="edge42" class="edge">
<title>Node32&#45;&gt;Node20</title>
<path fill="none" stroke="midnightblue" d="M376.57,-117.98C413.9,-107.03 478.52,-88.09 517.6,-76.64"/>
<polygon fill="midnightblue" stroke="midnightblue" points="518.82,-79.93 527.43,-73.76 516.85,-73.21 518.82,-79.93"/>
</g>
<!-- Node32&#45;&gt;Node29 -->
<g id="edge43" class="edge">
<title>Node32&#45;&gt;Node29</title>
<path fill="none" stroke="midnightblue" d="M353.25,-117.65C363.96,-102.05 388.59,-70 418.48,-56 457.49,-37.74 745.57,-19.57 854.19,-13.3"/>
<polygon fill="midnightblue" stroke="midnightblue" points="854.65,-16.78 864.43,-12.71 854.25,-9.79 854.65,-16.78"/>
</g>
<!-- Node33 -->
<g id="node33" class="node">
<title>Node33</title>
<g id="a_node33"><a xlink:title=" ">
<polygon fill="none" stroke="#bfbfbf" points="13.98,-56.5 13.98,-75.5 62.98,-75.5 62.98,-56.5 13.98,-56.5"/>
<text text-anchor="middle" x="38.48" y="-63.5" font-family="Helvetica,sans-Serif" font-size="10.00">cstddef</text>
</a>
</g>
</g>
<!-- Node32&#45;&gt;Node33 -->
<g id="edge36" class="edge">
<title>Node32&#45;&gt;Node33</title>
<path fill="none" stroke="midnightblue" d="M303.45,-119.49C250.94,-110.89 160.33,-95.31 73.1,-76"/>
<polygon fill="midnightblue" stroke="midnightblue" points="73.83,-72.57 63.31,-73.81 72.31,-79.4 73.83,-72.57"/>
</g>
<!-- Node34 -->
<g id="node34" class="node">
<title>Node34</title>
<g id="a_node34"><a xlink:title=" ">
<polygon fill="none" stroke="#bfbfbf" points="81.48,-56.5 81.48,-75.5 137.48,-75.5 137.48,-56.5 81.48,-56.5"/>
<text text-anchor="middle" x="109.48" y="-63.5" font-family="Helvetica,sans-Serif" font-size="10.00">algorithm</text>
</a>
</g>
</g>
<!-- Node32&#45;&gt;Node34 -->
<g id="edge38" class="edge">
<title>Node32&#45;&gt;Node34</title>
<path fill="none" stroke="midnightblue" d="M313.38,-117.98C269.41,-106.98 193.16,-87.92 147.4,-76.48"/>
<polygon fill="midnightblue" stroke="midnightblue" points="148.12,-73.05 137.57,-74.02 146.42,-79.84 148.12,-73.05"/>
</g>
<!-- Node35 -->
<g id="node35" class="node">
<title>Node35</title>
<g id="a_node35"><a xlink:title=" ">
<polygon fill="none" stroke="#bfbfbf" points="155.98,-56.5 155.98,-75.5 214.98,-75.5 214.98,-56.5 155.98,-56.5"/>
<text text-anchor="middle" x="185.48" y="-63.5" font-family="Helvetica,sans-Serif" font-size="10.00">functional</text>
</a>
</g>
</g>
<!-- Node32&#45;&gt;Node35 -->
<g id="edge39" class="edge">
<title>Node32&#45;&gt;Node35</title>
<path fill="none" stroke="midnightblue" d="M324.27,-117.98C296.48,-107.77 249.76,-90.61 218.29,-79.05"/>
<polygon fill="midnightblue" stroke="midnightblue" points="219.24,-75.67 208.65,-75.51 216.83,-82.24 219.24,-75.67"/>
</g>
<!-- Node36 -->
<g id="node36" class="node">
<title>Node36</title>
<g id="a_node36"><a xlink:title=" ">
<polygon fill="none" stroke="#bfbfbf" points="233.48,-56.5 233.48,-75.5 305.48,-75.5 305.48,-56.5 233.48,-56.5"/>
<text text-anchor="middle" x="269.48" y="-63.5" font-family="Helvetica,sans-Serif" font-size="10.00">initializer_list</text>
</a>
</g>
</g>
<!-- Node32&#45;&gt;Node36 -->
<g id="edge40" class="edge">
<title>Node32&#45;&gt;Node36</title>
<path fill="none" stroke="midnightblue" d="M336.31,-117.98C323.91,-108.52 303.69,-93.1 288.74,-81.69"/>
<polygon fill="midnightblue" stroke="midnightblue" points="290.71,-78.79 280.64,-75.51 286.47,-84.36 290.71,-78.79"/>
</g>
<!-- Node37 -->
<g id="node37" class="node">
<title>Node37</title>
<g id="a_node37"><a xlink:title=" ">
<polygon fill="none" stroke="#bfbfbf" points="323.98,-56.5 323.98,-75.5 370.98,-75.5 370.98,-56.5 323.98,-56.5"/>
<text text-anchor="middle" x="347.48" y="-63.5" font-family="Helvetica,sans-Serif" font-size="10.00">iterator</text>
</a>
</g>
</g>
<!-- Node32&#45;&gt;Node37 -->
<g id="edge41" class="edge">
<title>Node32&#45;&gt;Node37</title>
<path fill="none" stroke="midnightblue" d="M347.48,-117.98C347.48,-109.58 347.48,-96.48 347.48,-85.66"/>
<polygon fill="midnightblue" stroke="midnightblue" points="350.98,-85.51 347.48,-75.51 343.98,-85.51 350.98,-85.51"/>
</g>
<!-- Node38&#45;&gt;Node15 -->
<g id="edge46" class="edge">
<title>Node38&#45;&gt;Node15</title>
<path fill="none" stroke="midnightblue" d="M585.54,-117.95C548.68,-106.95 497.64,-85.65 518.48,-56 538.68,-27.26 579.09,-16.79 608.51,-13.02"/>
<polygon fill="midnightblue" stroke="midnightblue" points="609.22,-16.47 618.79,-11.92 608.48,-9.51 609.22,-16.47"/>
</g>
<!-- Node38&#45;&gt;Node16 -->
<g id="edge47" class="edge">
<title>Node38&#45;&gt;Node16</title>
<path fill="none" stroke="midnightblue" d="M618.77,-117.98C618.06,-109.58 616.96,-96.48 616.05,-85.66"/>
<polygon fill="midnightblue" stroke="midnightblue" points="619.52,-85.18 615.2,-75.51 612.55,-85.77 619.52,-85.18"/>
</g>
<!-- Node39&#45;&gt;Node12 -->
<g id="edge51" class="edge">
<title>Node39&#45;&gt;Node12</title>
<path fill="none" stroke="midnightblue" d="M1257.96,-179.48C1222.02,-170.05 1163.48,-154.71 1120,-143.31"/>
<polygon fill="midnightblue" stroke="midnightblue" points="1120.69,-139.88 1110.13,-140.73 1118.92,-146.65 1120.69,-139.88"/>
</g>
<!-- Node39&#45;&gt;Node13 -->
<g id="edge52" class="edge">
<title>Node39&#45;&gt;Node13</title>
<path fill="none" stroke="midnightblue" d="M1273.86,-179.48C1257.49,-171.08 1231.94,-157.97 1210.85,-147.15"/>
<polygon fill="midnightblue" stroke="midnightblue" points="1212.32,-143.97 1201.82,-142.52 1209.12,-150.2 1212.32,-143.97"/>
</g>
<!-- Node40 -->
<g id="node40" class="node">
<title>Node40</title>
<g id="a_node40"><a xlink:title=" ">
<polygon fill="none" stroke="#bfbfbf" points="1238.98,-118 1238.98,-137 1281.98,-137 1281.98,-118 1238.98,-118"/>
<text text-anchor="middle" x="1260.48" y="-125" font-family="Helvetica,sans-Serif" font-size="10.00">queue</text>
</a>
</g>
</g>
<!-- Node39&#45;&gt;Node40 -->
<g id="edge49" class="edge">
<title>Node39&#45;&gt;Node40</title>
<path fill="none" stroke="midnightblue" d="M1286.18,-179.48C1281.82,-170.82 1274.93,-157.15 1269.38,-146.15"/>
<polygon fill="midnightblue" stroke="midnightblue" points="1272.4,-144.36 1264.77,-137.01 1266.15,-147.51 1272.4,-144.36"/>
</g>
<!-- Node41 -->
<g id="node41" class="node">
<title>Node41</title>
<g id="a_node41"><a xlink:title=" ">
<polygon fill="none" stroke="#bfbfbf" points="1299.98,-118 1299.98,-137 1340.98,-137 1340.98,-118 1299.98,-118"/>
<text text-anchor="middle" x="1320.48" y="-125" font-family="Helvetica,sans-Serif" font-size="10.00">stack</text>
</a>
</g>
</g>
<!-- Node39&#45;&gt;Node41 -->
<g id="edge50" class="edge">
<title>Node39&#45;&gt;Node41</title>
<path fill="none" stroke="midnightblue" d="M1294.78,-179.48C1299.15,-170.82 1306.04,-157.15 1311.59,-146.15"/>
<polygon fill="midnightblue" stroke="midnightblue" points="1314.82,-147.51 1316.19,-137.01 1308.57,-144.36 1314.82,-147.51"/>
</g>
<!-- Node42 -->
<g id="node42" class="node">
<title>Node42</title>
<g id="a_node42"><a xlink:title=" ">
<polygon fill="none" stroke="#bfbfbf" points="1358.98,-112.5 1358.98,-142.5 1459.98,-142.5 1459.98,-112.5 1358.98,-112.5"/>
<text text-anchor="start" x="1366.98" y="-130.5" font-family="Helvetica,sans-Serif" font-size="10.00">absl/container/node</text>
<text text-anchor="middle" x="1409.48" y="-119.5" font-family="Helvetica,sans-Serif" font-size="10.00">_hash_map.h</text>
</a>
</g>
</g>
<!-- Node39&#45;&gt;Node42 -->
<g id="edge53" class="edge">
<title>Node39&#45;&gt;Node42</title>
<path fill="none" stroke="midnightblue" d="M1307.53,-179.48C1324.4,-171.04 1350.77,-157.86 1372.47,-147.01"/>
<polygon fill="midnightblue" stroke="midnightblue" points="1374.06,-150.13 1381.44,-142.52 1370.93,-143.86 1374.06,-150.13"/>
</g>
<!-- Node43 -->
<g id="node43" class="node">
<title>Node43</title>
<g id="a_node43"><a xlink:title=" ">
<polygon fill="none" stroke="#bfbfbf" points="1477.98,-112.5 1477.98,-142.5 1578.98,-142.5 1578.98,-112.5 1477.98,-112.5"/>
<text text-anchor="start" x="1485.98" y="-130.5" font-family="Helvetica,sans-Serif" font-size="10.00">absl/container/node</text>
<text text-anchor="middle" x="1528.48" y="-119.5" font-family="Helvetica,sans-Serif" font-size="10.00">_hash_set.h</text>
</a>
</g>
</g>
<!-- Node39&#45;&gt;Node43 -->
<g id="edge54" class="edge">
<title>Node39&#45;&gt;Node43</title>
<path fill="none" stroke="midnightblue" d="M1324.58,-179.48C1361.94,-170.13 1422.6,-154.97 1468.06,-143.61"/>
<polygon fill="midnightblue" stroke="midnightblue" points="1468.96,-146.99 1477.81,-141.17 1467.26,-140.2 1468.96,-146.99"/>
</g>
<!-- Node39&#45;&gt;Node44 -->
<g id="edge55" class="edge">
<title>Node39&#45;&gt;Node44</title>
<path fill="none" stroke="midnightblue" d="M1344.11,-181.82C1404.04,-174.48 1503.76,-160.92 1588.48,-143 1593.19,-142 1598.11,-140.84 1602.96,-139.6"/>
<polygon fill="midnightblue" stroke="midnightblue" points="1603.98,-142.96 1612.75,-137.02 1602.19,-136.19 1603.98,-142.96"/>
</g>
<!-- Node44&#45;&gt;Node25 -->
<g id="edge56" class="edge">
<title>Node44&#45;&gt;Node25</title>
<path fill="none" stroke="midnightblue" d="M1612.76,-117.94C1604.93,-115.8 1596.42,-113.65 1588.48,-112 1498.59,-93.34 1392.61,-79.9 1329.62,-72.79"/>
<polygon fill="midnightblue" stroke="midnightblue" points="1329.83,-69.29 1319.51,-71.66 1329.06,-76.25 1329.83,-69.29"/>
</g>
</g>
</svg>
