<?xml version="1.0" encoding="UTF-8" standalone="no"?>
<!DOCTYPE svg PUBLIC "-//W3C//DTD SVG 1.1//EN"
 "http://www.w3.org/Graphics/SVG/1.1/DTD/svg11.dtd">
<!-- Generated by graphviz version 2.43.0 (0)
 -->
<!-- Title: /home/runner/work/thorin2/thorin2/thorin/pass/fp/eta_red.h Pages: 1 -->
<svg width="902pt" height="128pt"
 viewBox="0.00 0.00 902.00 128.00" xmlns="http://www.w3.org/2000/svg" xmlns:xlink="http://www.w3.org/1999/xlink">
<g id="graph0" class="graph" transform="scale(1 1) rotate(0) translate(4 124)">
<title>/home/runner/work/thorin2/thorin2/thorin/pass/fp/eta_red.h</title>
<!-- Node1 -->
<g id="node1" class="node">
<title>Node1</title>
<g id="a_node1"><a xlink:title=" ">
<polygon fill="#bfbfbf" stroke="black" points="328,-78.5 328,-119.5 474,-119.5 474,-78.5 328,-78.5"/>
<text text-anchor="start" x="336" y="-107.5" font-family="Helvetica,sans-Serif" font-size="10.00">/home/runner/work/thorin2</text>
<text text-anchor="start" x="336" y="-96.5" font-family="Helvetica,sans-Serif" font-size="10.00">/thorin2/thorin/pass/fp</text>
<text text-anchor="middle" x="401" y="-85.5" font-family="Helvetica,sans-Serif" font-size="10.00">/eta_red.h</text>
</a>
</g>
</g>
<!-- Node2 -->
<g id="node2" class="node">
<title>Node2</title>
<g id="a_node2"><a xlink:href="eta__exp_8cpp.html" target="_top" xlink:title=" ">
<polygon fill="none" stroke="black" points="0,-0.5 0,-41.5 146,-41.5 146,-0.5 0,-0.5"/>
<text text-anchor="start" x="8" y="-29.5" font-family="Helvetica,sans-Serif" font-size="10.00">/home/runner/work/thorin2</text>
<text text-anchor="start" x="8" y="-18.5" font-family="Helvetica,sans-Serif" font-size="10.00">/thorin2/thorin/pass/fp</text>
<text text-anchor="middle" x="73" y="-7.5" font-family="Helvetica,sans-Serif" font-size="10.00">/eta_exp.cpp</text>
</a>
</g>
</g>
<!-- Node1&#45;&gt;Node2 -->
<g id="edge1" class="edge">
<title>Node1&#45;&gt;Node2</title>
<path fill="none" stroke="midnightblue" d="M317.77,-79.39C270.08,-68.64 209.13,-54.76 155,-42 152.15,-41.33 149.24,-40.64 146.3,-39.94"/>
<polygon fill="midnightblue" stroke="midnightblue" points="317.21,-82.85 327.74,-81.63 318.75,-76.02 317.21,-82.85"/>
</g>
<!-- Node3 -->
<g id="node3" class="node">
<title>Node3</title>
<g id="a_node3"><a xlink:href="eta__red_8cpp.html" target="_top" xlink:title=" ">
<polygon fill="none" stroke="black" points="164,-0.5 164,-41.5 310,-41.5 310,-0.5 164,-0.5"/>
<text text-anchor="start" x="172" y="-29.5" font-family="Helvetica,sans-Serif" font-size="10.00">/home/runner/work/thorin2</text>
<text text-anchor="start" x="172" y="-18.5" font-family="Helvetica,sans-Serif" font-size="10.00">/thorin2/thorin/pass/fp</text>
<text text-anchor="middle" x="237" y="-7.5" font-family="Helvetica,sans-Serif" font-size="10.00">/eta_red.cpp</text>
</a>
</g>
</g>
<!-- Node1&#45;&gt;Node3 -->
<g id="edge2" class="edge">
<title>Node1&#45;&gt;Node3</title>
<path fill="none" stroke="midnightblue" d="M349.62,-74.19C326.93,-63.67 300.59,-51.47 279.09,-41.51"/>
<polygon fill="midnightblue" stroke="midnightblue" points="348.22,-77.4 358.77,-78.43 351.16,-71.05 348.22,-77.4"/>
</g>
<!-- Node4 -->
<g id="node4" class="node">
<title>Node4</title>
<g id="a_node4"><a xlink:href="tail__rec__elim_8cpp.html" target="_top" xlink:title=" ">
<polygon fill="none" stroke="black" points="328,-0.5 328,-41.5 474,-41.5 474,-0.5 328,-0.5"/>
<text text-anchor="start" x="336" y="-29.5" font-family="Helvetica,sans-Serif" font-size="10.00">/home/runner/work/thorin2</text>
<text text-anchor="start" x="336" y="-18.5" font-family="Helvetica,sans-Serif" font-size="10.00">/thorin2/thorin/pass/fp</text>
<text text-anchor="middle" x="401" y="-7.5" font-family="Helvetica,sans-Serif" font-size="10.00">/tail_rec_elim.cpp</text>
</a>
</g>
</g>
<!-- Node1&#45;&gt;Node4 -->
<g id="edge3" class="edge">
<title>Node1&#45;&gt;Node4</title>
<path fill="none" stroke="midnightblue" d="M401,-68.3C401,-59.3 401,-49.65 401,-41.51"/>
<polygon fill="midnightblue" stroke="midnightblue" points="397.5,-68.43 401,-78.43 404.5,-68.43 397.5,-68.43"/>
</g>
<!-- Node5 -->
<g id="node5" class="node">
<title>Node5</title>
<g id="a_node5"><a xlink:href="optimize_8cpp.html" target="_top" xlink:title=" ">
<polygon fill="none" stroke="black" points="492.5,-6 492.5,-36 669.5,-36 669.5,-6 492.5,-6"/>
<text text-anchor="start" x="500.5" y="-24" font-family="Helvetica,sans-Serif" font-size="10.00">/home/runner/work/thorin2</text>
<text text-anchor="middle" x="581" y="-13" font-family="Helvetica,sans-Serif" font-size="10.00">/thorin2/thorin/pass/optimize.cpp</text>
</a>
</g>
</g>
<!-- Node1&#45;&gt;Node5 -->
<g id="edge4" class="edge">
<title>Node1&#45;&gt;Node5</title>
<path fill="none" stroke="midnightblue" d="M456.79,-74.45C486.53,-61.89 522.14,-46.85 547.59,-36.11"/>
<polygon fill="midnightblue" stroke="midnightblue" points="455.21,-71.31 447.35,-78.43 457.93,-77.76 455.21,-71.31"/>
</g>
<!-- Node6 -->
<g id="node6" class="node">
<title>Node6</title>
<g id="a_node6"><a xlink:href="pipelinebuilder_8cpp.html" target="_top" xlink:title=" ">
<polygon fill="none" stroke="black" points="688,-6 688,-36 894,-36 894,-6 688,-6"/>
<text text-anchor="start" x="696" y="-24" font-family="Helvetica,sans-Serif" font-size="10.00">/home/runner/work/thorin2</text>
<text text-anchor="middle" x="791" y="-13" font-family="Helvetica,sans-Serif" font-size="10.00">/thorin2/thorin/pass/pipelinebuilder.cpp</text>
</a>
</g>
</g>
<!-- Node1&#45;&gt;Node6 -->
<g id="edge5" class="edge">
<title>Node1&#45;&gt;Node6</title>
<path fill="none" stroke="midnightblue" d="M484.43,-81.74C554.17,-68.15 652.61,-48.97 718.96,-36.04"/>
<polygon fill="midnightblue" stroke="midnightblue" points="483.5,-78.36 474.36,-83.7 484.84,-85.23 483.5,-78.36"/>
</g>
</g>
</svg>
