<?xml version="1.0" encoding="UTF-8" standalone="no"?>
<!DOCTYPE svg PUBLIC "-//W3C//DTD SVG 1.1//EN"
 "http://www.w3.org/Graphics/SVG/1.1/DTD/svg11.dtd">
<!-- Generated by graphviz version 2.43.0 (0)
 -->
<!-- Title: include/thorin/pass/eta_red.h Pages: 1 -->
<svg width="1013pt" height="104pt"
 viewBox="0.00 0.00 1012.50 104.00" xmlns="http://www.w3.org/2000/svg" xmlns:xlink="http://www.w3.org/1999/xlink">
<g id="graph0" class="graph" transform="scale(1 1) rotate(0) translate(4 100)">
<title>include/thorin/pass/eta_red.h</title>
<!-- Node1 -->
<g id="Node000001" class="node">
<title>Node1</title>
<g id="a_Node000001"><a xlink:title=" ">
<polygon fill="#999999" stroke="#666666" points="569,-96 460,-96 460,-66 569,-66 569,-96"/>
<text text-anchor="start" x="468" y="-84" font-family="Helvetica,sans-Serif" font-size="10.00">include/thorin/pass</text>
<text text-anchor="middle" x="514.5" y="-73" font-family="Helvetica,sans-Serif" font-size="10.00">/eta_red.h</text>
</a>
</g>
</g>
<!-- Node2 -->
<g id="Node000002" class="node">
<title>Node2</title>
<g id="a_Node000002"><a xlink:href="eta__exp_8cpp.html" target="_top" xlink:title=" ">
<polygon fill="white" stroke="#666666" points="107,-30 0,-30 0,0 107,0 107,-30"/>
<text text-anchor="start" x="8" y="-18" font-family="Helvetica,sans-Serif" font-size="10.00">src/thorin/pass/eta</text>
<text text-anchor="middle" x="53.5" y="-7" font-family="Helvetica,sans-Serif" font-size="10.00">_exp.cpp</text>
</a>
</g>
</g>
<!-- Node1&#45;&gt;Node2 -->
<g id="edge1_Node000001_Node000002" class="edge">
<title>Node1&#45;&gt;Node2</title>
<g id="a_edge1_Node000001_Node000002"><a xlink:title=" ">
<path fill="none" stroke="#63b8ff" d="M449.4,-73.81C370.18,-65.82 232.48,-50.49 115.5,-30 112.78,-29.52 110,-29.01 107.2,-28.46"/>
<polygon fill="#63b8ff" stroke="#63b8ff" points="449.42,-77.33 459.71,-74.84 450.11,-70.36 449.42,-77.33"/>
</a>
</g>
</g>
<!-- Node3 -->
<g id="Node000003" class="node">
<title>Node3</title>
<g id="a_Node000003"><a xlink:href="eta__red_8cpp.html" target="_top" xlink:title=" ">
<polygon fill="white" stroke="#666666" points="232,-30 125,-30 125,0 232,0 232,-30"/>
<text text-anchor="start" x="133" y="-18" font-family="Helvetica,sans-Serif" font-size="10.00">src/thorin/pass/eta</text>
<text text-anchor="middle" x="178.5" y="-7" font-family="Helvetica,sans-Serif" font-size="10.00">_red.cpp</text>
</a>
</g>
</g>
<!-- Node1&#45;&gt;Node3 -->
<g id="edge2_Node000001_Node000003" class="edge">
<title>Node1&#45;&gt;Node3</title>
<g id="a_edge2_Node000001_Node000003"><a xlink:title=" ">
<path fill="none" stroke="#63b8ff" d="M449.97,-68.89C394.57,-59.17 312.63,-44.41 241.5,-30 238.43,-29.38 235.27,-28.72 232.09,-28.05"/>
<polygon fill="#63b8ff" stroke="#63b8ff" points="449.54,-72.36 460,-70.64 450.75,-65.47 449.54,-72.36"/>
</a>
</g>
</g>
<!-- Node4 -->
<g id="Node000004" class="node">
<title>Node4</title>
<g id="a_Node000004"><a xlink:href="optimize_8cpp.html" target="_top" xlink:title=" ">
<polygon fill="white" stroke="#666666" points="404.5,-24.5 250.5,-24.5 250.5,-5.5 404.5,-5.5 404.5,-24.5"/>
<text text-anchor="middle" x="327.5" y="-12.5" font-family="Helvetica,sans-Serif" font-size="10.00">src/thorin/pass/optimize.cpp</text>
</a>
</g>
</g>
<!-- Node1&#45;&gt;Node4 -->
<g id="edge3_Node000001_Node000004" class="edge">
<title>Node1&#45;&gt;Node4</title>
<g id="a_edge3_Node000001_Node000004"><a xlink:title=" ">
<path fill="none" stroke="#63b8ff" d="M463.59,-62.58C427.5,-50.23 380.64,-34.19 352.39,-24.52"/>
<polygon fill="#63b8ff" stroke="#63b8ff" points="462.87,-66.03 473.46,-65.95 465.13,-59.41 462.87,-66.03"/>
</a>
</g>
</g>
<!-- Node5 -->
<g id="Node000005" class="node">
<title>Node5</title>
<g id="a_Node000005"><a xlink:href="pipelinebuilder_8cpp.html" target="_top" xlink:title=" ">
<polygon fill="white" stroke="#666666" points="606,-24.5 423,-24.5 423,-5.5 606,-5.5 606,-24.5"/>
<text text-anchor="middle" x="514.5" y="-12.5" font-family="Helvetica,sans-Serif" font-size="10.00">src/thorin/pass/pipelinebuilder.cpp</text>
</a>
</g>
</g>
<!-- Node1&#45;&gt;Node5 -->
<g id="edge4_Node000001_Node000005" class="edge">
<title>Node1&#45;&gt;Node5</title>
<g id="a_edge4_Node000001_Node000005"><a xlink:title=" ">
<path fill="none" stroke="#63b8ff" d="M514.5,-55.6C514.5,-44.8 514.5,-32.78 514.5,-24.84"/>
<polygon fill="#63b8ff" stroke="#63b8ff" points="511,-55.8 514.5,-65.8 518,-55.8 511,-55.8"/>
</a>
</g>
</g>
<!-- Node6 -->
<g id="Node000006" class="node">
<title>Node6</title>
<g id="a_Node000006"><a xlink:href="tail__rec__elim_8cpp.html" target="_top" xlink:title=" ">
<polygon fill="white" stroke="#666666" points="731,-30 624,-30 624,0 731,0 731,-30"/>
<text text-anchor="start" x="632" y="-18" font-family="Helvetica,sans-Serif" font-size="10.00">src/thorin/pass/tail</text>
<text text-anchor="middle" x="677.5" y="-7" font-family="Helvetica,sans-Serif" font-size="10.00">_rec_elim.cpp</text>
</a>
</g>
</g>
<!-- Node1&#45;&gt;Node6 -->
<g id="edge5_Node000001_Node000006" class="edge">
<title>Node1&#45;&gt;Node6</title>
<g id="a_edge5_Node000001_Node000006"><a xlink:title=" ">
<path fill="none" stroke="#63b8ff" d="M559.86,-62.19C585.75,-52.02 617.73,-39.47 641.81,-30.01"/>
<polygon fill="#63b8ff" stroke="#63b8ff" points="558.3,-59.04 550.27,-65.95 560.86,-65.56 558.3,-59.04"/>
</a>
</g>
</g>
<!-- Node7 -->
<g id="Node000007" class="node">
<title>Node7</title>
<g id="a_Node000007"><a xlink:href="clos_8cpp.html" target="_top" xlink:title=" ">
<polygon fill="white" stroke="#666666" points="858,-30 749,-30 749,0 858,0 858,-30"/>
<text text-anchor="start" x="757" y="-18" font-family="Helvetica,sans-Serif" font-size="10.00">src/thorin/plug/clos</text>
<text text-anchor="middle" x="803.5" y="-7" font-family="Helvetica,sans-Serif" font-size="10.00">/clos.cpp</text>
</a>
</g>
</g>
<!-- Node1&#45;&gt;Node7 -->
<g id="edge6_Node000001_Node000007" class="edge">
<title>Node1&#45;&gt;Node7</title>
<g id="a_edge6_Node000001_Node000007"><a xlink:title=" ">
<path fill="none" stroke="#63b8ff" d="M579.26,-65.69C624.45,-55.7 686.15,-42.05 740.5,-30 743.23,-29.39 746.04,-28.77 748.86,-28.14"/>
<polygon fill="#63b8ff" stroke="#63b8ff" points="578.31,-62.31 569.3,-67.89 579.82,-69.15 578.31,-62.31"/>
</a>
</g>
</g>
<!-- Node8 -->
<g id="Node000008" class="node">
<title>Node8</title>
<g id="a_Node000008"><a xlink:href="compile_8cpp.html" target="_top" xlink:title=" ">
<polygon fill="white" stroke="#666666" points="1004.5,-30 876.5,-30 876.5,0 1004.5,0 1004.5,-30"/>
<text text-anchor="start" x="884.5" y="-18" font-family="Helvetica,sans-Serif" font-size="10.00">src/thorin/plug/compile</text>
<text text-anchor="middle" x="940.5" y="-7" font-family="Helvetica,sans-Serif" font-size="10.00">/compile.cpp</text>
</a>
</g>
</g>
<!-- Node1&#45;&gt;Node8 -->
<g id="edge7_Node000001_Node000008" class="edge">
<title>Node1&#45;&gt;Node8</title>
<g id="a_edge7_Node000001_Node000008"><a xlink:title=" ">
<path fill="none" stroke="#63b8ff" d="M579.17,-71.8C650.07,-62.59 767.12,-46.72 867.5,-30 870.43,-29.51 873.42,-29 876.44,-28.47"/>
<polygon fill="#63b8ff" stroke="#63b8ff" points="578.52,-68.36 569.05,-73.11 579.42,-75.3 578.52,-68.36"/>
</a>
</g>
</g>
</g>
</svg>
