<?xml version="1.0" encoding="UTF-8" standalone="no"?>
<!DOCTYPE svg PUBLIC "-//W3C//DTD SVG 1.1//EN"
 "http://www.w3.org/Graphics/SVG/1.1/DTD/svg11.dtd">
<!-- Generated by graphviz version 2.43.0 (0)
 -->
<!-- Title: thorin/pass/fp/eta_exp.cpp Pages: 1 -->
<svg width="1508pt" height="621pt"
 viewBox="0.00 0.00 1508.00 621.00" xmlns="http://www.w3.org/2000/svg" xmlns:xlink="http://www.w3.org/1999/xlink">
<g id="graph0" class="graph" transform="scale(1 1) rotate(0) translate(4 617)">
<title>thorin/pass/fp/eta_exp.cpp</title>
<!-- Node1 -->
<g id="node1" class="node">
<title>Node1</title>
<g id="a_node1"><a xlink:title=" ">
<polygon fill="#999999" stroke="#666666" points="898,-613 796,-613 796,-583 898,-583 898,-613"/>
<text text-anchor="start" x="804" y="-601" font-family="Helvetica,sans-Serif" font-size="10.00">thorin/pass/fp/eta</text>
<text text-anchor="middle" x="847" y="-590" font-family="Helvetica,sans-Serif" font-size="10.00">_exp.cpp</text>
</a>
</g>
</g>
<!-- Node2 -->
<g id="node2" class="node">
<title>Node2</title>
<g id="a_node2"><a xlink:href="eta__exp_8h.html" target="_top" xlink:title=" ">
<polygon fill="white" stroke="#666666" points="838,-547 736,-547 736,-517 838,-517 838,-547"/>
<text text-anchor="start" x="744" y="-535" font-family="Helvetica,sans-Serif" font-size="10.00">thorin/pass/fp/eta</text>
<text text-anchor="middle" x="787" y="-524" font-family="Helvetica,sans-Serif" font-size="10.00">_exp.h</text>
</a>
</g>
</g>
<!-- Node1&#45;&gt;Node2 -->
<g id="edge1" class="edge">
<title>Node1&#45;&gt;Node2</title>
<path fill="none" stroke="#63b8ff" d="M833.68,-582.8C825.92,-574.51 815.96,-563.89 807.24,-554.59"/>
<polygon fill="#63b8ff" stroke="#63b8ff" points="809.67,-552.07 800.28,-547.16 804.56,-556.85 809.67,-552.07"/>
</g>
<!-- Node55 -->
<g id="node50" class="node">
<title>Node55</title>
<g id="a_node50"><a xlink:href="eta__red_8h.html" target="_top" xlink:title=" ">
<polygon fill="white" stroke="#666666" points="958,-547 856,-547 856,-517 958,-517 958,-547"/>
<text text-anchor="start" x="864" y="-535" font-family="Helvetica,sans-Serif" font-size="10.00">thorin/pass/fp/eta</text>
<text text-anchor="middle" x="907" y="-524" font-family="Helvetica,sans-Serif" font-size="10.00">_red.h</text>
</a>
</g>
</g>
<!-- Node1&#45;&gt;Node55 -->
<g id="edge76" class="edge">
<title>Node1&#45;&gt;Node55</title>
<path fill="none" stroke="#63b8ff" d="M860.32,-582.8C868.08,-574.51 878.04,-563.89 886.76,-554.59"/>
<polygon fill="#63b8ff" stroke="#63b8ff" points="889.44,-556.85 893.72,-547.16 884.33,-552.07 889.44,-556.85"/>
</g>
<!-- Node3 -->
<g id="node3" class="node">
<title>Node3</title>
<g id="a_node3"><a xlink:href="pass_8h.html" target="_top" xlink:title=" ">
<polygon fill="white" stroke="#666666" points="899.5,-481 794.5,-481 794.5,-462 899.5,-462 899.5,-481"/>
<text text-anchor="middle" x="847" y="-469" font-family="Helvetica,sans-Serif" font-size="10.00">thorin/pass/pass.h</text>
</a>
</g>
</g>
<!-- Node2&#45;&gt;Node3 -->
<g id="edge2" class="edge">
<title>Node2&#45;&gt;Node3</title>
<path fill="none" stroke="#63b8ff" d="M801.52,-516.84C810.32,-508.26 821.57,-497.3 830.67,-488.42"/>
<polygon fill="#63b8ff" stroke="#63b8ff" points="833.29,-490.75 838.01,-481.27 828.41,-485.74 833.29,-490.75"/>
</g>
<!-- Node4 -->
<g id="node4" class="node">
<title>Node4</title>
<g id="a_node4"><a xlink:title=" ">
<polygon fill="#e0e0e0" stroke="#999999" points="429.5,-134.5 386.5,-134.5 386.5,-115.5 429.5,-115.5 429.5,-134.5"/>
<text text-anchor="middle" x="408" y="-122.5" font-family="Helvetica,sans-Serif" font-size="10.00">stack</text>
</a>
</g>
</g>
<!-- Node3&#45;&gt;Node4 -->
<g id="edge3" class="edge">
<title>Node3&#45;&gt;Node4</title>
<path fill="none" stroke="#63b8ff" d="M794.21,-467.84C703.3,-461.47 513.15,-440.29 370,-371 323.58,-348.53 274.99,-335.03 291,-286 310.93,-224.97 363.96,-167.91 391.25,-141.45"/>
<polygon fill="#63b8ff" stroke="#63b8ff" points="393.69,-143.96 398.53,-134.54 388.87,-138.89 393.69,-143.96"/>
</g>
<!-- Node5 -->
<g id="node5" class="node">
<title>Node5</title>
<g id="a_node5"><a xlink:title=" ">
<polygon fill="#e0e0e0" stroke="#999999" points="972.5,-426 907.5,-426 907.5,-407 972.5,-407 972.5,-426"/>
<text text-anchor="middle" x="940" y="-414" font-family="Helvetica,sans-Serif" font-size="10.00">typeindex</text>
</a>
</g>
</g>
<!-- Node3&#45;&gt;Node5 -->
<g id="edge4" class="edge">
<title>Node3&#45;&gt;Node5</title>
<path fill="none" stroke="#63b8ff" d="M861.94,-461.98C876.5,-453.69 898.87,-440.94 915.93,-431.22"/>
<polygon fill="#63b8ff" stroke="#63b8ff" points="917.83,-434.16 924.79,-426.17 914.36,-428.08 917.83,-434.16"/>
</g>
<!-- Node6 -->
<g id="node6" class="node">
<title>Node6</title>
<g id="a_node6"><a xlink:href="world_8h.html" target="_top" xlink:title=" ">
<polygon fill="white" stroke="#666666" points="889,-426 805,-426 805,-407 889,-407 889,-426"/>
<text text-anchor="middle" x="847" y="-414" font-family="Helvetica,sans-Serif" font-size="10.00">thorin/world.h</text>
</a>
</g>
</g>
<!-- Node3&#45;&gt;Node6 -->
<g id="edge5" class="edge">
<title>Node3&#45;&gt;Node6</title>
<path fill="none" stroke="#63b8ff" d="M847,-461.75C847,-454.8 847,-444.85 847,-436.13"/>
<polygon fill="#63b8ff" stroke="#63b8ff" points="850.5,-436.09 847,-426.09 843.5,-436.09 850.5,-436.09"/>
</g>
<!-- Node7 -->
<g id="node7" class="node">
<title>Node7</title>
<g id="a_node7"><a xlink:title=" ">
<polygon fill="#e0e0e0" stroke="#999999" points="1413,-134.5 1357,-134.5 1357,-115.5 1413,-115.5 1413,-134.5"/>
<text text-anchor="middle" x="1385" y="-122.5" font-family="Helvetica,sans-Serif" font-size="10.00">sstream</text>
</a>
</g>
</g>
<!-- Node6&#45;&gt;Node7 -->
<g id="edge6" class="edge">
<title>Node6&#45;&gt;Node7</title>
<path fill="none" stroke="#63b8ff" d="M889.25,-408.12C892.21,-407.71 895.15,-407.33 898,-407 960.72,-399.8 1412.81,-406.51 1465,-371 1495.24,-350.42 1500,-333.08 1500,-296.5 1500,-296.5 1500,-296.5 1500,-239.5 1500,-191.3 1448.18,-156.66 1414.11,-139.1"/>
<polygon fill="#63b8ff" stroke="#63b8ff" points="1415.55,-135.91 1405.03,-134.61 1412.44,-142.18 1415.55,-135.91"/>
</g>
<!-- Node8 -->
<g id="node8" class="node">
<title>Node8</title>
<g id="a_node8"><a xlink:title=" ">
<polygon fill="#e0e0e0" stroke="#999999" points="1208,-134.5 1164,-134.5 1164,-115.5 1208,-115.5 1208,-134.5"/>
<text text-anchor="middle" x="1186" y="-122.5" font-family="Helvetica,sans-Serif" font-size="10.00">string</text>
</a>
</g>
</g>
<!-- Node6&#45;&gt;Node8 -->
<g id="edge7" class="edge">
<title>Node6&#45;&gt;Node8</title>
<path fill="none" stroke="#63b8ff" d="M889.26,-408.13C892.21,-407.71 895.15,-407.33 898,-407 958.28,-400 1401.53,-415.3 1443,-371 1531.13,-276.86 1303.63,-172.98 1217.48,-138.14"/>
<polygon fill="#63b8ff" stroke="#63b8ff" points="1218.76,-134.88 1208.17,-134.42 1216.16,-141.38 1218.76,-134.88"/>
</g>
<!-- Node9 -->
<g id="node9" class="node">
<title>Node9</title>
<g id="a_node9"><a xlink:title=" ">
<polygon fill="#e0e0e0" stroke="#999999" points="967.5,-365.5 894.5,-365.5 894.5,-346.5 967.5,-346.5 967.5,-365.5"/>
<text text-anchor="middle" x="931" y="-353.5" font-family="Helvetica,sans-Serif" font-size="10.00">string_view</text>
</a>
</g>
</g>
<!-- Node6&#45;&gt;Node9 -->
<g id="edge8" class="edge">
<title>Node6&#45;&gt;Node9</title>
<path fill="none" stroke="#63b8ff" d="M859.39,-406.87C872.79,-397.54 894.38,-382.51 910.35,-371.38"/>
<polygon fill="#63b8ff" stroke="#63b8ff" points="912.35,-374.25 918.55,-365.67 908.35,-368.51 912.35,-374.25"/>
</g>
<!-- Node10 -->
<g id="node10" class="node">
<title>Node10</title>
<g id="a_node10"><a xlink:title=" ">
<polygon fill="#e0e0e0" stroke="#999999" points="1100,-371 986,-371 986,-341 1100,-341 1100,-371"/>
<text text-anchor="start" x="994" y="-359" font-family="Helvetica,sans-Serif" font-size="10.00">absl/container/btree</text>
<text text-anchor="middle" x="1043" y="-348" font-family="Helvetica,sans-Serif" font-size="10.00">_map.h</text>
</a>
</g>
</g>
<!-- Node6&#45;&gt;Node10 -->
<g id="edge9" class="edge">
<title>Node6&#45;&gt;Node10</title>
<path fill="none" stroke="#63b8ff" d="M875.5,-406.99C904.32,-398.39 949.67,-384.86 985.92,-374.04"/>
<polygon fill="#63b8ff" stroke="#63b8ff" points="987.3,-377.28 995.88,-371.06 985.3,-370.57 987.3,-377.28"/>
</g>
<!-- Node11 -->
<g id="node11" class="node">
<title>Node11</title>
<g id="a_node11"><a xlink:title=" ">
<polygon fill="#e0e0e0" stroke="#999999" points="1232,-371 1118,-371 1118,-341 1232,-341 1232,-371"/>
<text text-anchor="start" x="1126" y="-359" font-family="Helvetica,sans-Serif" font-size="10.00">absl/container/btree</text>
<text text-anchor="middle" x="1175" y="-348" font-family="Helvetica,sans-Serif" font-size="10.00">_set.h</text>
</a>
</g>
</g>
<!-- Node6&#45;&gt;Node11 -->
<g id="edge10" class="edge">
<title>Node6&#45;&gt;Node11</title>
<path fill="none" stroke="#63b8ff" d="M889.22,-408.43C951.89,-397.91 1065.92,-378.73 1107.95,-371.11"/>
<polygon fill="#63b8ff" stroke="#63b8ff" points="1108.6,-374.55 1117.79,-369.28 1107.32,-367.67 1108.6,-374.55"/>
</g>
<!-- Node12 -->
<g id="node12" class="node">
<title>Node12</title>
<g id="a_node12"><a xlink:href="axiom_8h.html" target="_top" xlink:title=" ">
<polygon fill="white" stroke="#666666" points="724,-365.5 636,-365.5 636,-346.5 724,-346.5 724,-365.5"/>
<text text-anchor="middle" x="680" y="-353.5" font-family="Helvetica,sans-Serif" font-size="10.00">thorin/axiom.h</text>
</a>
</g>
</g>
<!-- Node6&#45;&gt;Node12 -->
<g id="edge11" class="edge">
<title>Node6&#45;&gt;Node12</title>
<path fill="none" stroke="#63b8ff" d="M822.72,-406.99C794.02,-396.94 746.11,-380.16 713.8,-368.84"/>
<polygon fill="#63b8ff" stroke="#63b8ff" points="714.91,-365.52 704.31,-365.52 712.59,-372.13 714.91,-365.52"/>
</g>
<!-- Node18 -->
<g id="node18" class="node">
<title>Node18</title>
<g id="a_node18"><a xlink:href="debug_8h.html" target="_top" xlink:title=" ">
<polygon fill="white" stroke="#666666" points="829.5,-195 742.5,-195 742.5,-176 829.5,-176 829.5,-195"/>
<text text-anchor="middle" x="786" y="-183" font-family="Helvetica,sans-Serif" font-size="10.00">thorin/debug.h</text>
</a>
</g>
</g>
<!-- Node6&#45;&gt;Node18 -->
<g id="edge60" class="edge">
<title>Node6&#45;&gt;Node18</title>
<path fill="none" stroke="#63b8ff" d="M836.15,-406.72C826.62,-398.45 813.06,-385.24 805,-371 777.48,-322.39 778.63,-305.34 771,-250 769.85,-241.63 769.63,-239.33 771,-231 772.47,-222.05 775.49,-212.47 778.44,-204.51"/>
<polygon fill="#63b8ff" stroke="#63b8ff" points="781.72,-205.74 782.14,-195.15 775.21,-203.16 781.72,-205.74"/>
</g>
<!-- Node36 -->
<g id="node31" class="node">
<title>Node36</title>
<g id="a_node31"><a xlink:href="hash_8h.html" target="_top" xlink:title=" ">
<polygon fill="white" stroke="#666666" points="943.5,-134.5 844.5,-134.5 844.5,-115.5 943.5,-115.5 943.5,-134.5"/>
<text text-anchor="middle" x="894" y="-122.5" font-family="Helvetica,sans-Serif" font-size="10.00">thorin/util/hash.h</text>
</a>
</g>
</g>
<!-- Node6&#45;&gt;Node36 -->
<g id="edge72" class="edge">
<title>Node6&#45;&gt;Node36</title>
<path fill="none" stroke="#63b8ff" d="M848.58,-406.77C851.12,-392.85 856.29,-364.75 861,-341 869.04,-300.47 873.45,-290.79 880,-250 885.96,-212.88 890.27,-169.11 892.43,-144.76"/>
<polygon fill="#63b8ff" stroke="#63b8ff" points="895.92,-145.02 893.29,-134.76 888.95,-144.42 895.92,-145.02"/>
</g>
<!-- Node46 -->
<g id="node41" class="node">
<title>Node46</title>
<g id="a_node41"><a xlink:href="check_8h.html" target="_top" xlink:title=" ">
<polygon fill="white" stroke="#666666" points="505,-365.5 419,-365.5 419,-346.5 505,-346.5 505,-365.5"/>
<text text-anchor="middle" x="462" y="-353.5" font-family="Helvetica,sans-Serif" font-size="10.00">thorin/check.h</text>
</a>
</g>
</g>
<!-- Node6&#45;&gt;Node46 -->
<g id="edge56" class="edge">
<title>Node6&#45;&gt;Node46</title>
<path fill="none" stroke="#63b8ff" d="M804.7,-409.07C734.13,-398.35 592.52,-376.83 515.26,-365.09"/>
<polygon fill="#63b8ff" stroke="#63b8ff" points="515.67,-361.61 505.26,-363.57 514.62,-368.54 515.67,-361.61"/>
</g>
<!-- Node48 -->
<g id="node43" class="node">
<title>Node48</title>
<g id="a_node43"><a xlink:title=" ">
<polygon fill="#e0e0e0" stroke="#999999" points="1336,-365.5 1250,-365.5 1250,-346.5 1336,-346.5 1336,-365.5"/>
<text text-anchor="middle" x="1293" y="-353.5" font-family="Helvetica,sans-Serif" font-size="10.00">thorin/config.h</text>
</a>
</g>
</g>
<!-- Node6&#45;&gt;Node48 -->
<g id="edge59" class="edge">
<title>Node6&#45;&gt;Node48</title>
<path fill="none" stroke="#63b8ff" d="M889.27,-408.25C892.22,-407.81 895.15,-407.39 898,-407 1049.89,-386.39 1090.3,-399.01 1241,-371 1245.46,-370.17 1250.11,-369.15 1254.7,-368.05"/>
<polygon fill="#63b8ff" stroke="#63b8ff" points="1255.75,-371.39 1264.58,-365.52 1254.02,-364.61 1255.75,-371.39"/>
</g>
<!-- Node49 -->
<g id="node44" class="node">
<title>Node49</title>
<g id="a_node44"><a xlink:href="error_8h.html" target="_top" xlink:title=" ">
<polygon fill="white" stroke="#666666" points="1105,-250 1025,-250 1025,-231 1105,-231 1105,-250"/>
<text text-anchor="middle" x="1065" y="-238" font-family="Helvetica,sans-Serif" font-size="10.00">thorin/error.h</text>
</a>
</g>
</g>
<!-- Node6&#45;&gt;Node49 -->
<g id="edge61" class="edge">
<title>Node6&#45;&gt;Node49</title>
<path fill="none" stroke="#63b8ff" d="M849.6,-406.68C854.42,-391.6 866.02,-360.62 885,-341 926.54,-298.06 990.67,-268.74 1030.12,-253.59"/>
<polygon fill="#63b8ff" stroke="#63b8ff" points="1031.45,-256.83 1039.59,-250.04 1029,-250.27 1031.45,-256.83"/>
</g>
<!-- Node51 -->
<g id="node46" class="node">
<title>Node51</title>
<g id="a_node46"><a xlink:href="flags_8h.html" target="_top" xlink:title=" ">
<polygon fill="white" stroke="#666666" points="1434,-365.5 1354,-365.5 1354,-346.5 1434,-346.5 1434,-365.5"/>
<text text-anchor="middle" x="1394" y="-353.5" font-family="Helvetica,sans-Serif" font-size="10.00">thorin/flags.h</text>
</a>
</g>
</g>
<!-- Node6&#45;&gt;Node51 -->
<g id="edge67" class="edge">
<title>Node6&#45;&gt;Node51</title>
<path fill="none" stroke="#63b8ff" d="M889.26,-408.17C892.21,-407.75 895.15,-407.35 898,-407 1095.81,-382.59 1148.89,-406.55 1345,-371 1349.21,-370.24 1353.58,-369.26 1357.9,-368.18"/>
<polygon fill="#63b8ff" stroke="#63b8ff" points="1359.03,-371.5 1367.78,-365.53 1357.21,-364.74 1359.03,-371.5"/>
</g>
<!-- Node52 -->
<g id="node47" class="node">
<title>Node52</title>
<g id="a_node47"><a xlink:href="lattice_8h.html" target="_top" xlink:title=" ">
<polygon fill="white" stroke="#666666" points="592,-305 504,-305 504,-286 592,-286 592,-305"/>
<text text-anchor="middle" x="548" y="-293" font-family="Helvetica,sans-Serif" font-size="10.00">thorin/lattice.h</text>
</a>
</g>
</g>
<!-- Node6&#45;&gt;Node52 -->
<g id="edge68" class="edge">
<title>Node6&#45;&gt;Node52</title>
<path fill="none" stroke="#63b8ff" d="M804.59,-413.81C758.53,-410.45 683.92,-400.48 627,-371 599.63,-356.83 575,-330.37 560.77,-313.1"/>
<polygon fill="#63b8ff" stroke="#63b8ff" points="563.29,-310.65 554.32,-305.02 557.82,-315.02 563.29,-310.65"/>
</g>
<!-- Node53 -->
<g id="node48" class="node">
<title>Node53</title>
<g id="a_node48"><a xlink:href="tuple_8h.html" target="_top" xlink:title=" ">
<polygon fill="white" stroke="#666666" points="382,-305 300,-305 300,-286 382,-286 382,-305"/>
<text text-anchor="middle" x="341" y="-293" font-family="Helvetica,sans-Serif" font-size="10.00">thorin/tuple.h</text>
</a>
</g>
</g>
<!-- Node6&#45;&gt;Node53 -->
<g id="edge70" class="edge">
<title>Node6&#45;&gt;Node53</title>
<path fill="none" stroke="#63b8ff" d="M804.65,-414.96C708.87,-413.13 478.59,-405.2 410,-371 384.44,-358.25 363.6,-331.81 351.74,-314.1"/>
<polygon fill="#63b8ff" stroke="#63b8ff" points="354.45,-311.84 346.1,-305.31 348.55,-315.62 354.45,-311.84"/>
</g>
<!-- Node54 -->
<g id="node49" class="node">
<title>Node54</title>
<g id="a_node49"><a xlink:href="log_8h.html" target="_top" xlink:title=" ">
<polygon fill="white" stroke="#666666" points="871.5,-250 780.5,-250 780.5,-231 871.5,-231 871.5,-250"/>
<text text-anchor="middle" x="826" y="-238" font-family="Helvetica,sans-Serif" font-size="10.00">thorin/util/log.h</text>
</a>
</g>
</g>
<!-- Node6&#45;&gt;Node54 -->
<g id="edge73" class="edge">
<title>Node6&#45;&gt;Node54</title>
<path fill="none" stroke="#63b8ff" d="M837.98,-406.96C829.93,-398.66 818.71,-385.25 814,-371 801.48,-333.09 811.98,-285.76 819.67,-260.12"/>
<polygon fill="#63b8ff" stroke="#63b8ff" points="823.11,-260.85 822.82,-250.26 816.45,-258.72 823.11,-260.85"/>
</g>
<!-- Node13 -->
<g id="node13" class="node">
<title>Node13</title>
<g id="a_node13"><a xlink:href="lam_8h.html" target="_top" xlink:title=" ">
<polygon fill="white" stroke="#666666" points="686,-305 610,-305 610,-286 686,-286 686,-305"/>
<text text-anchor="middle" x="648" y="-293" font-family="Helvetica,sans-Serif" font-size="10.00">thorin/lam.h</text>
</a>
</g>
</g>
<!-- Node12&#45;&gt;Node13 -->
<g id="edge12" class="edge">
<title>Node12&#45;&gt;Node13</title>
<path fill="none" stroke="#63b8ff" d="M675.28,-346.37C670.65,-337.9 663.45,-324.74 657.61,-314.07"/>
<polygon fill="#63b8ff" stroke="#63b8ff" points="660.61,-312.26 652.74,-305.17 654.47,-315.62 660.61,-312.26"/>
</g>
<!-- Node45 -->
<g id="node40" class="node">
<title>Node45</title>
<g id="a_node40"><a xlink:href="assert_8h.html" target="_top" xlink:title=" ">
<polygon fill="white" stroke="#666666" points="1068,-134.5 962,-134.5 962,-115.5 1068,-115.5 1068,-134.5"/>
<text text-anchor="middle" x="1015" y="-122.5" font-family="Helvetica,sans-Serif" font-size="10.00">thorin/util/assert.h</text>
</a>
</g>
</g>
<!-- Node12&#45;&gt;Node45 -->
<g id="edge55" class="edge">
<title>Node12&#45;&gt;Node45</title>
<path fill="none" stroke="#63b8ff" d="M682.67,-346.15C685.68,-336.16 690.71,-319.42 695,-305 712.03,-247.71 688.21,-215.57 733,-176 806.92,-110.69 855.15,-158.71 952,-140 957.29,-138.98 962.82,-137.84 968.31,-136.68"/>
<polygon fill="#63b8ff" stroke="#63b8ff" points="969.06,-140.1 978.09,-134.56 967.58,-133.26 969.06,-140.1"/>
</g>
<!-- Node14 -->
<g id="node14" class="node">
<title>Node14</title>
<g id="a_node14"><a xlink:title=" ">
<polygon fill="#e0e0e0" stroke="#999999" points="673.5,-250 622.5,-250 622.5,-231 673.5,-231 673.5,-250"/>
<text text-anchor="middle" x="648" y="-238" font-family="Helvetica,sans-Serif" font-size="10.00">variant</text>
</a>
</g>
</g>
<!-- Node13&#45;&gt;Node14 -->
<g id="edge13" class="edge">
<title>Node13&#45;&gt;Node14</title>
<path fill="none" stroke="#63b8ff" d="M648,-285.75C648,-278.8 648,-268.85 648,-260.13"/>
<polygon fill="#63b8ff" stroke="#63b8ff" points="651.5,-260.09 648,-250.09 644.5,-260.09 651.5,-260.09"/>
</g>
<!-- Node15 -->
<g id="node15" class="node">
<title>Node15</title>
<g id="a_node15"><a xlink:href="def_8h.html" target="_top" xlink:title=" ">
<polygon fill="white" stroke="#666666" points="558,-250 486,-250 486,-231 558,-231 558,-250"/>
<text text-anchor="middle" x="522" y="-238" font-family="Helvetica,sans-Serif" font-size="10.00">thorin/def.h</text>
</a>
</g>
</g>
<!-- Node13&#45;&gt;Node15 -->
<g id="edge14" class="edge">
<title>Node13&#45;&gt;Node15</title>
<path fill="none" stroke="#63b8ff" d="M627.76,-285.98C607.3,-277.38 575.47,-263.99 552.07,-254.15"/>
<polygon fill="#63b8ff" stroke="#63b8ff" points="553.19,-250.82 542.61,-250.17 550.47,-257.27 553.19,-250.82"/>
</g>
<!-- Node16 -->
<g id="node16" class="node">
<title>Node16</title>
<g id="a_node16"><a xlink:title=" ">
<polygon fill="#e0e0e0" stroke="#999999" points="637,-195 581,-195 581,-176 637,-176 637,-195"/>
<text text-anchor="middle" x="609" y="-183" font-family="Helvetica,sans-Serif" font-size="10.00">optional</text>
</a>
</g>
</g>
<!-- Node15&#45;&gt;Node16 -->
<g id="edge15" class="edge">
<title>Node15&#45;&gt;Node16</title>
<path fill="none" stroke="#63b8ff" d="M535.98,-230.98C549.47,-222.77 570.13,-210.18 586.04,-200.49"/>
<polygon fill="#63b8ff" stroke="#63b8ff" points="588.05,-203.36 594.77,-195.17 584.41,-197.38 588.05,-203.36"/>
</g>
<!-- Node17 -->
<g id="node17" class="node">
<title>Node17</title>
<g id="a_node17"><a xlink:title=" ">
<polygon fill="#e0e0e0" stroke="#999999" points="368.5,-134.5 321.5,-134.5 321.5,-115.5 368.5,-115.5 368.5,-134.5"/>
<text text-anchor="middle" x="345" y="-122.5" font-family="Helvetica,sans-Serif" font-size="10.00">vector</text>
</a>
</g>
</g>
<!-- Node15&#45;&gt;Node17 -->
<g id="edge16" class="edge">
<title>Node15&#45;&gt;Node17</title>
<path fill="none" stroke="#63b8ff" d="M501.68,-230.94C483,-222.73 454.82,-209.46 432,-195 406.49,-178.83 379.61,-156.61 362.6,-141.8"/>
<polygon fill="#63b8ff" stroke="#63b8ff" points="364.48,-138.79 354.66,-134.8 359.85,-144.04 364.48,-138.79"/>
</g>
<!-- Node15&#45;&gt;Node18 -->
<g id="edge17" class="edge">
<title>Node15&#45;&gt;Node18</title>
<path fill="none" stroke="#63b8ff" d="M558.15,-232.24C603.43,-223.15 681.35,-207.51 733.28,-197.08"/>
<polygon fill="#63b8ff" stroke="#63b8ff" points="734.18,-200.47 743.3,-195.07 732.8,-193.61 734.18,-200.47"/>
</g>
<!-- Node21 -->
<g id="node21" class="node">
<title>Node21</title>
<g id="a_node21"><a xlink:href="array_8h.html" target="_top" xlink:title=" ">
<polygon fill="#fff0f0" stroke="red" points="276,-195 176,-195 176,-176 276,-176 276,-195"/>
<text text-anchor="middle" x="226" y="-183" font-family="Helvetica,sans-Serif" font-size="10.00">thorin/util/array.h</text>
</a>
</g>
</g>
<!-- Node15&#45;&gt;Node21 -->
<g id="edge21" class="edge">
<title>Node15&#45;&gt;Node21</title>
<path fill="none" stroke="#63b8ff" d="M485.7,-233C435.28,-223.97 343.51,-207.54 283.66,-196.82"/>
<polygon fill="#63b8ff" stroke="#63b8ff" points="284.07,-193.34 273.61,-195.02 282.84,-200.23 284.07,-193.34"/>
</g>
<!-- Node31 -->
<g id="node29" class="node">
<title>Node31</title>
<g id="a_node29"><a xlink:href="cast_8h.html" target="_top" xlink:title=" ">
<polygon fill="white" stroke="#666666" points="96,-195 0,-195 0,-176 96,-176 96,-195"/>
<text text-anchor="middle" x="48" y="-183" font-family="Helvetica,sans-Serif" font-size="10.00">thorin/util/cast.h</text>
</a>
</g>
</g>
<!-- Node15&#45;&gt;Node31 -->
<g id="edge30" class="edge">
<title>Node15&#45;&gt;Node31</title>
<path fill="none" stroke="#63b8ff" d="M485.98,-235.47C404.5,-226.36 205.41,-204.1 106.18,-193.01"/>
<polygon fill="#63b8ff" stroke="#63b8ff" points="106.36,-189.5 96.03,-191.87 105.58,-196.46 106.36,-189.5"/>
</g>
<!-- Node32 -->
<g id="node30" class="node">
<title>Node32</title>
<g id="a_node30"><a xlink:href="container_8h.html" target="_top" xlink:title=" ">
<polygon fill="#fff0f0" stroke="red" points="562.5,-195 441.5,-195 441.5,-176 562.5,-176 562.5,-195"/>
<text text-anchor="middle" x="502" y="-183" font-family="Helvetica,sans-Serif" font-size="10.00">thorin/util/container.h</text>
</a>
</g>
</g>
<!-- Node15&#45;&gt;Node32 -->
<g id="edge33" class="edge">
<title>Node15&#45;&gt;Node32</title>
<path fill="none" stroke="#63b8ff" d="M518.7,-230.75C516.02,-223.65 512.15,-213.4 508.81,-204.56"/>
<polygon fill="#63b8ff" stroke="#63b8ff" points="512.05,-203.21 505.24,-195.09 505.5,-205.68 512.05,-203.21"/>
</g>
<!-- Node15&#45;&gt;Node36 -->
<g id="edge45" class="edge">
<title>Node15&#45;&gt;Node36</title>
<path fill="none" stroke="#63b8ff" d="M545.84,-230.93C592.57,-214.14 692.33,-178.35 700,-176 727.63,-167.53 801.14,-148.99 849.32,-137.02"/>
<polygon fill="#63b8ff" stroke="#63b8ff" points="850.32,-140.37 859.19,-134.57 848.64,-133.58 850.32,-140.37"/>
</g>
<!-- Node43 -->
<g id="node38" class="node">
<title>Node43</title>
<g id="a_node38"><a xlink:href="print_8h.html" target="_top" xlink:title=" ">
<polygon fill="white" stroke="#666666" points="1064,-195 966,-195 966,-176 1064,-176 1064,-195"/>
<text text-anchor="middle" x="1015" y="-183" font-family="Helvetica,sans-Serif" font-size="10.00">thorin/util/print.h</text>
</a>
</g>
</g>
<!-- Node15&#45;&gt;Node43 -->
<g id="edge46" class="edge">
<title>Node15&#45;&gt;Node43</title>
<path fill="none" stroke="#63b8ff" d="M558.25,-235.6C642.61,-226.53 852.72,-203.95 955.91,-192.85"/>
<polygon fill="#63b8ff" stroke="#63b8ff" points="956.29,-196.33 965.86,-191.78 955.54,-189.37 956.29,-196.33"/>
</g>
<!-- Node18&#45;&gt;Node8 -->
<g id="edge18" class="edge">
<title>Node18&#45;&gt;Node8</title>
<path fill="none" stroke="#63b8ff" d="M829.72,-183.5C899.66,-180.96 1040.48,-171.95 1155,-140 1156.68,-139.53 1158.39,-138.98 1160.09,-138.38"/>
<polygon fill="#63b8ff" stroke="#63b8ff" points="1161.67,-141.52 1169.62,-134.52 1159.03,-135.03 1161.67,-141.52"/>
</g>
<!-- Node19 -->
<g id="node19" class="node">
<title>Node19</title>
<g id="a_node19"><a xlink:title=" ">
<polygon fill="#e0e0e0" stroke="#999999" points="758,-140 654,-140 654,-110 758,-110 758,-140"/>
<text text-anchor="start" x="662" y="-128" font-family="Helvetica,sans-Serif" font-size="10.00">absl/container/flat</text>
<text text-anchor="middle" x="706" y="-117" font-family="Helvetica,sans-Serif" font-size="10.00">_hash_map.h</text>
</a>
</g>
</g>
<!-- Node18&#45;&gt;Node19 -->
<g id="edge19" class="edge">
<title>Node18&#45;&gt;Node19</title>
<path fill="none" stroke="#63b8ff" d="M774.2,-175.87C763.54,-168.08 747.46,-156.32 733.59,-146.17"/>
<polygon fill="#63b8ff" stroke="#63b8ff" points="735.44,-143.19 725.3,-140.11 731.31,-148.84 735.44,-143.19"/>
</g>
<!-- Node20 -->
<g id="node20" class="node">
<title>Node20</title>
<g id="a_node20"><a xlink:title=" ">
<polygon fill="#e0e0e0" stroke="#999999" points="552,-140 448,-140 448,-110 552,-110 552,-140"/>
<text text-anchor="start" x="456" y="-128" font-family="Helvetica,sans-Serif" font-size="10.00">absl/container/flat</text>
<text text-anchor="middle" x="500" y="-117" font-family="Helvetica,sans-Serif" font-size="10.00">_hash_set.h</text>
</a>
</g>
</g>
<!-- Node18&#45;&gt;Node20 -->
<g id="edge20" class="edge">
<title>Node18&#45;&gt;Node20</title>
<path fill="none" stroke="#63b8ff" d="M742.37,-176.28C699.1,-168.03 630.68,-154.75 562.31,-140.24"/>
<polygon fill="#63b8ff" stroke="#63b8ff" points="562.73,-136.76 552.22,-138.09 561.27,-143.6 562.73,-136.76"/>
</g>
<!-- Node21&#45;&gt;Node17 -->
<g id="edge29" class="edge">
<title>Node21&#45;&gt;Node17</title>
<path fill="none" stroke="#63b8ff" d="M243.3,-175.99C263.05,-166.29 295.55,-150.31 318.49,-139.03"/>
<polygon fill="#63b8ff" stroke="#63b8ff" points="320.25,-142.07 327.68,-134.52 317.16,-135.79 320.25,-142.07"/>
</g>
<!-- Node22 -->
<g id="node22" class="node">
<title>Node22</title>
<g id="a_node22"><a xlink:title=" ">
<polygon fill="#e0e0e0" stroke="#999999" points="319,-74 267,-74 267,-55 319,-55 319,-74"/>
<text text-anchor="middle" x="293" y="-62" font-family="Helvetica,sans-Serif" font-size="10.00">cassert</text>
</a>
</g>
</g>
<!-- Node21&#45;&gt;Node22 -->
<g id="edge22" class="edge">
<title>Node21&#45;&gt;Node22</title>
<path fill="none" stroke="#63b8ff" d="M238.64,-175.7C249.33,-167.61 264.26,-154.67 273,-140 283.26,-122.78 288.36,-100.23 290.83,-84.47"/>
<polygon fill="#63b8ff" stroke="#63b8ff" points="294.32,-84.74 292.19,-74.37 287.38,-83.81 294.32,-84.74"/>
</g>
<!-- Node23 -->
<g id="node23" class="node">
<title>Node23</title>
<g id="a_node23"><a xlink:title=" ">
<polygon fill="#e0e0e0" stroke="#999999" points="264.5,-134.5 211.5,-134.5 211.5,-115.5 264.5,-115.5 264.5,-134.5"/>
<text text-anchor="middle" x="238" y="-122.5" font-family="Helvetica,sans-Serif" font-size="10.00">cstddef</text>
</a>
</g>
</g>
<!-- Node21&#45;&gt;Node23 -->
<g id="edge23" class="edge">
<title>Node21&#45;&gt;Node23</title>
<path fill="none" stroke="#63b8ff" d="M227.77,-175.87C229.45,-167.66 232.04,-155.04 234.19,-144.55"/>
<polygon fill="#63b8ff" stroke="#63b8ff" points="237.64,-145.17 236.22,-134.67 230.78,-143.76 237.64,-145.17"/>
</g>
<!-- Node24 -->
<g id="node24" class="node">
<title>Node24</title>
<g id="a_node24"><a xlink:title=" ">
<polygon fill="#e0e0e0" stroke="#999999" points="73,-134.5 23,-134.5 23,-115.5 73,-115.5 73,-134.5"/>
<text text-anchor="middle" x="48" y="-122.5" font-family="Helvetica,sans-Serif" font-size="10.00">cstring</text>
</a>
</g>
</g>
<!-- Node21&#45;&gt;Node24 -->
<g id="edge24" class="edge">
<title>Node21&#45;&gt;Node24</title>
<path fill="none" stroke="#63b8ff" d="M198.48,-176C170.37,-167.24 125.51,-153.07 87,-140 85.11,-139.36 83.17,-138.69 81.22,-138.01"/>
<polygon fill="#63b8ff" stroke="#63b8ff" points="82.06,-134.6 71.46,-134.57 79.73,-141.2 82.06,-134.6"/>
</g>
<!-- Node25 -->
<g id="node25" class="node">
<title>Node25</title>
<g id="a_node25"><a xlink:title=" ">
<polygon fill="#e0e0e0" stroke="#999999" points="193,-134.5 129,-134.5 129,-115.5 193,-115.5 193,-134.5"/>
<text text-anchor="middle" x="161" y="-122.5" font-family="Helvetica,sans-Serif" font-size="10.00">algorithm</text>
</a>
</g>
</g>
<!-- Node21&#45;&gt;Node25 -->
<g id="edge25" class="edge">
<title>Node21&#45;&gt;Node25</title>
<path fill="none" stroke="#63b8ff" d="M216.41,-175.87C206.42,-166.88 190.57,-152.61 178.37,-141.64"/>
<polygon fill="#63b8ff" stroke="#63b8ff" points="180.4,-138.76 170.63,-134.67 175.72,-143.96 180.4,-138.76"/>
</g>
<!-- Node26 -->
<g id="node26" class="node">
<title>Node26</title>
<g id="a_node26"><a xlink:title=" ">
<polygon fill="#e0e0e0" stroke="#999999" points="635.5,-134.5 570.5,-134.5 570.5,-115.5 635.5,-115.5 635.5,-134.5"/>
<text text-anchor="middle" x="603" y="-122.5" font-family="Helvetica,sans-Serif" font-size="10.00">functional</text>
</a>
</g>
</g>
<!-- Node21&#45;&gt;Node26 -->
<g id="edge26" class="edge">
<title>Node21&#45;&gt;Node26</title>
<path fill="none" stroke="#63b8ff" d="M276.19,-180.82C342.17,-175.31 461.39,-163 561,-140 564.05,-139.3 567.19,-138.46 570.31,-137.56"/>
<polygon fill="#63b8ff" stroke="#63b8ff" points="571.61,-140.82 580.12,-134.5 569.53,-134.14 571.61,-140.82"/>
</g>
<!-- Node29 -->
<g id="node27" class="node">
<title>Node29</title>
<g id="a_node27"><a xlink:title=" ">
<polygon fill="#e0e0e0" stroke="#999999" points="826,-134.5 776,-134.5 776,-115.5 826,-115.5 826,-134.5"/>
<text text-anchor="middle" x="801" y="-122.5" font-family="Helvetica,sans-Serif" font-size="10.00">ranges</text>
</a>
</g>
</g>
<!-- Node21&#45;&gt;Node29 -->
<g id="edge27" class="edge">
<title>Node21&#45;&gt;Node29</title>
<path fill="none" stroke="#63b8ff" d="M276.14,-182.35C391.82,-177.07 674.58,-162.26 767,-140 769.17,-139.48 771.38,-138.84 773.58,-138.12"/>
<polygon fill="#63b8ff" stroke="#63b8ff" points="774.84,-141.39 782.99,-134.62 772.4,-134.82 774.84,-141.39"/>
</g>
<!-- Node30 -->
<g id="node28" class="node">
<title>Node30</title>
<g id="a_node28"><a xlink:title=" ">
<polygon fill="#e0e0e0" stroke="#999999" points="542.5,-19 473.5,-19 473.5,0 542.5,0 542.5,-19"/>
<text text-anchor="middle" x="508" y="-7" font-family="Helvetica,sans-Serif" font-size="10.00">type_traits</text>
</a>
</g>
</g>
<!-- Node21&#45;&gt;Node30 -->
<g id="edge28" class="edge">
<title>Node21&#45;&gt;Node30</title>
<path fill="none" stroke="#63b8ff" d="M175.97,-176.1C154.99,-169.85 132.6,-158.95 120,-140 112.62,-128.9 112.52,-121.04 120,-110 158.65,-52.99 369.77,-24.64 463.33,-14.72"/>
<polygon fill="#63b8ff" stroke="#63b8ff" points="463.76,-18.2 473.34,-13.68 463.03,-11.23 463.76,-18.2"/>
</g>
<!-- Node31&#45;&gt;Node22 -->
<g id="edge31" class="edge">
<title>Node31&#45;&gt;Node22</title>
<path fill="none" stroke="#63b8ff" d="M38.41,-175.83C23.12,-160.98 -3.35,-130.33 14,-110 44.75,-73.96 187.94,-66.97 256.38,-65.71"/>
<polygon fill="#63b8ff" stroke="#63b8ff" points="256.75,-69.21 266.7,-65.56 256.65,-62.21 256.75,-69.21"/>
</g>
<!-- Node31&#45;&gt;Node24 -->
<g id="edge32" class="edge">
<title>Node31&#45;&gt;Node24</title>
<path fill="none" stroke="#63b8ff" d="M48,-175.87C48,-167.75 48,-155.31 48,-144.89"/>
<polygon fill="#63b8ff" stroke="#63b8ff" points="51.5,-144.67 48,-134.67 44.5,-144.67 51.5,-144.67"/>
</g>
<!-- Node32&#45;&gt;Node4 -->
<g id="edge34" class="edge">
<title>Node32&#45;&gt;Node4</title>
<path fill="none" stroke="#63b8ff" d="M488.13,-175.87C473,-166.45 448.54,-151.23 430.62,-140.08"/>
<polygon fill="#63b8ff" stroke="#63b8ff" points="432.27,-136.98 421.93,-134.67 428.57,-142.92 432.27,-136.98"/>
</g>
<!-- Node32&#45;&gt;Node19 -->
<g id="edge35" class="edge">
<title>Node32&#45;&gt;Node19</title>
<path fill="none" stroke="#63b8ff" d="M531.66,-175.99C561.79,-167.35 609.27,-153.74 647.07,-142.9"/>
<polygon fill="#63b8ff" stroke="#63b8ff" points="648.31,-146.19 656.96,-140.06 646.38,-139.46 648.31,-146.19"/>
</g>
<!-- Node32&#45;&gt;Node20 -->
<g id="edge36" class="edge">
<title>Node32&#45;&gt;Node20</title>
<path fill="none" stroke="#63b8ff" d="M501.7,-175.87C501.47,-169.11 501.14,-159.35 500.83,-150.26"/>
<polygon fill="#63b8ff" stroke="#63b8ff" points="504.32,-149.99 500.48,-140.11 497.33,-150.23 504.32,-149.99"/>
</g>
<!-- Node32&#45;&gt;Node36 -->
<g id="edge37" class="edge">
<title>Node32&#45;&gt;Node36</title>
<path fill="none" stroke="#63b8ff" d="M562.72,-177.13C644.09,-167.12 784.17,-149.4 835,-140 840.11,-139.05 845.44,-137.95 850.72,-136.79"/>
<polygon fill="#63b8ff" stroke="#63b8ff" points="851.77,-140.14 860.74,-134.51 850.21,-133.32 851.77,-140.14"/>
</g>
<!-- Node37 -->
<g id="node32" class="node">
<title>Node37</title>
<g id="a_node32"><a xlink:href="types_8h.html" target="_top" xlink:title=" ">
<polygon fill="white" stroke="#666666" points="1027.5,-74 924.5,-74 924.5,-55 1027.5,-55 1027.5,-74"/>
<text text-anchor="middle" x="976" y="-62" font-family="Helvetica,sans-Serif" font-size="10.00">thorin/util/types.h</text>
</a>
</g>
</g>
<!-- Node36&#45;&gt;Node37 -->
<g id="edge38" class="edge">
<title>Node36&#45;&gt;Node37</title>
<path fill="none" stroke="#63b8ff" d="M906.1,-115.37C919.06,-106.12 939.86,-91.28 955.4,-80.19"/>
<polygon fill="#63b8ff" stroke="#63b8ff" points="957.74,-82.82 963.85,-74.17 953.68,-77.13 957.74,-82.82"/>
</g>
<!-- Node37&#45;&gt;Node30 -->
<g id="edge42" class="edge">
<title>Node37&#45;&gt;Node30</title>
<path fill="none" stroke="#63b8ff" d="M924.13,-57.63C831.62,-47.15 639.74,-25.42 552.68,-15.56"/>
<polygon fill="#63b8ff" stroke="#63b8ff" points="552.93,-12.07 542.6,-14.42 552.14,-19.02 552.93,-12.07"/>
</g>
<!-- Node38 -->
<g id="node33" class="node">
<title>Node38</title>
<g id="a_node33"><a xlink:title=" ">
<polygon fill="#e0e0e0" stroke="#999999" points="904,-19 854,-19 854,0 904,0 904,-19"/>
<text text-anchor="middle" x="879" y="-7" font-family="Helvetica,sans-Serif" font-size="10.00">cstdint</text>
</a>
</g>
</g>
<!-- Node37&#45;&gt;Node38 -->
<g id="edge39" class="edge">
<title>Node37&#45;&gt;Node38</title>
<path fill="none" stroke="#63b8ff" d="M960.42,-54.98C945.23,-46.69 921.9,-33.94 904.1,-24.22"/>
<polygon fill="#63b8ff" stroke="#63b8ff" points="905.32,-20.89 894.87,-19.17 901.97,-27.04 905.32,-20.89"/>
</g>
<!-- Node39 -->
<g id="node34" class="node">
<title>Node39</title>
<g id="a_node34"><a xlink:title=" ">
<polygon fill="#e0e0e0" stroke="#999999" points="966,-19 922,-19 922,0 966,0 966,-19"/>
<text text-anchor="middle" x="944" y="-7" font-family="Helvetica,sans-Serif" font-size="10.00">limits</text>
</a>
</g>
</g>
<!-- Node37&#45;&gt;Node39 -->
<g id="edge40" class="edge">
<title>Node37&#45;&gt;Node39</title>
<path fill="none" stroke="#63b8ff" d="M970.72,-54.75C966.29,-47.42 959.84,-36.73 954.38,-27.7"/>
<polygon fill="#63b8ff" stroke="#63b8ff" points="957.35,-25.84 949.19,-19.09 951.36,-29.46 957.35,-25.84"/>
</g>
<!-- Node40 -->
<g id="node35" class="node">
<title>Node40</title>
<g id="a_node35"><a xlink:title=" ">
<polygon fill="#e0e0e0" stroke="#999999" points="1223.5,-19 1166.5,-19 1166.5,0 1223.5,0 1223.5,-19"/>
<text text-anchor="middle" x="1195" y="-7" font-family="Helvetica,sans-Serif" font-size="10.00">ostream</text>
</a>
</g>
</g>
<!-- Node37&#45;&gt;Node40 -->
<g id="edge41" class="edge">
<title>Node37&#45;&gt;Node40</title>
<path fill="none" stroke="#63b8ff" d="M1011.19,-54.98C1050.87,-45.38 1115.2,-29.81 1156.28,-19.87"/>
<polygon fill="#63b8ff" stroke="#63b8ff" points="1157.3,-23.23 1166.19,-17.47 1155.65,-16.42 1157.3,-23.23"/>
</g>
<!-- Node41 -->
<g id="node36" class="node">
<title>Node41</title>
<g id="a_node36"><a xlink:title=" ">
<polygon fill="#e0e0e0" stroke="#999999" points="1031.5,-19 984.5,-19 984.5,0 1031.5,0 1031.5,-19"/>
<text text-anchor="middle" x="1008" y="-7" font-family="Helvetica,sans-Serif" font-size="10.00">cmath</text>
</a>
</g>
</g>
<!-- Node37&#45;&gt;Node41 -->
<g id="edge43" class="edge">
<title>Node37&#45;&gt;Node41</title>
<path fill="none" stroke="#63b8ff" d="M981.28,-54.75C985.71,-47.42 992.16,-36.73 997.62,-27.7"/>
<polygon fill="#63b8ff" stroke="#63b8ff" points="1000.64,-29.46 1002.81,-19.09 994.65,-25.84 1000.64,-29.46"/>
</g>
<!-- Node42 -->
<g id="node37" class="node">
<title>Node42</title>
<g id="a_node37"><a xlink:title=" ">
<polygon fill="#e0e0e0" stroke="#999999" points="1106,-19 1050,-19 1050,0 1106,0 1106,-19"/>
<text text-anchor="middle" x="1078" y="-7" font-family="Helvetica,sans-Serif" font-size="10.00">half.hpp</text>
</a>
</g>
</g>
<!-- Node37&#45;&gt;Node42 -->
<g id="edge44" class="edge">
<title>Node37&#45;&gt;Node42</title>
<path fill="none" stroke="#63b8ff" d="M992.39,-54.98C1008.57,-46.57 1033.57,-33.59 1052.38,-23.81"/>
<polygon fill="#63b8ff" stroke="#63b8ff" points="1054.05,-26.89 1061.31,-19.17 1050.83,-20.68 1054.05,-26.89"/>
</g>
<!-- Node43&#45;&gt;Node7 -->
<g id="edge51" class="edge">
<title>Node43&#45;&gt;Node7</title>
<path fill="none" stroke="#63b8ff" d="M1064.13,-176.73C1138.77,-164.93 1279.17,-142.73 1346.74,-132.05"/>
<polygon fill="#63b8ff" stroke="#63b8ff" points="1347.61,-135.45 1356.94,-130.44 1346.52,-128.54 1347.61,-135.45"/>
</g>
<!-- Node43&#45;&gt;Node8 -->
<g id="edge52" class="edge">
<title>Node43&#45;&gt;Node8</title>
<path fill="none" stroke="#63b8ff" d="M1045.39,-175.95C1073.99,-167.65 1117.85,-154.24 1155,-140 1156.21,-139.54 1157.44,-139.05 1158.68,-138.55"/>
<polygon fill="#63b8ff" stroke="#63b8ff" points="1160.3,-141.66 1168.12,-134.5 1157.55,-135.22 1160.3,-141.66"/>
</g>
<!-- Node43&#45;&gt;Node26 -->
<g id="edge47" class="edge">
<title>Node43&#45;&gt;Node26</title>
<path fill="none" stroke="#63b8ff" d="M965.98,-181.77C894.63,-177.07 758.32,-165.43 645,-140 641.95,-139.32 638.81,-138.49 635.68,-137.6"/>
<polygon fill="#63b8ff" stroke="#63b8ff" points="636.46,-134.18 625.87,-134.55 634.38,-140.86 636.46,-134.18"/>
</g>
<!-- Node43&#45;&gt;Node29 -->
<g id="edge50" class="edge">
<title>Node43&#45;&gt;Node29</title>
<path fill="none" stroke="#63b8ff" d="M973.04,-175.97C936.24,-168.06 881.5,-155.23 835,-140 833.37,-139.47 831.71,-138.89 830.05,-138.29"/>
<polygon fill="#63b8ff" stroke="#63b8ff" points="831.18,-134.98 820.59,-134.65 828.66,-141.51 831.18,-134.98"/>
</g>
<!-- Node43&#45;&gt;Node40 -->
<g id="edge49" class="edge">
<title>Node43&#45;&gt;Node40</title>
<path fill="none" stroke="#63b8ff" d="M1064.34,-176.92C1120.99,-167.71 1207.41,-151.93 1217,-140 1243.21,-107.39 1220.55,-55.01 1205.61,-27.94"/>
<polygon fill="#63b8ff" stroke="#63b8ff" points="1208.59,-26.11 1200.56,-19.2 1202.53,-29.61 1208.59,-26.11"/>
</g>
<!-- Node44 -->
<g id="node39" class="node">
<title>Node44</title>
<g id="a_node39"><a xlink:title=" ">
<polygon fill="#e0e0e0" stroke="#999999" points="1146,-134.5 1086,-134.5 1086,-115.5 1146,-115.5 1146,-134.5"/>
<text text-anchor="middle" x="1116" y="-122.5" font-family="Helvetica,sans-Serif" font-size="10.00">iostream</text>
</a>
</g>
</g>
<!-- Node43&#45;&gt;Node44 -->
<g id="edge48" class="edge">
<title>Node43&#45;&gt;Node44</title>
<path fill="none" stroke="#63b8ff" d="M1029.9,-175.87C1046.31,-166.36 1072.93,-150.95 1092.23,-139.77"/>
<polygon fill="#63b8ff" stroke="#63b8ff" points="1094.14,-142.71 1101.04,-134.67 1090.63,-136.65 1094.14,-142.71"/>
</g>
<!-- Node43&#45;&gt;Node45 -->
<g id="edge53" class="edge">
<title>Node43&#45;&gt;Node45</title>
<path fill="none" stroke="#63b8ff" d="M1015,-175.87C1015,-167.75 1015,-155.31 1015,-144.89"/>
<polygon fill="#63b8ff" stroke="#63b8ff" points="1018.5,-144.67 1015,-134.67 1011.5,-144.67 1018.5,-144.67"/>
</g>
<!-- Node45&#45;&gt;Node22 -->
<g id="edge54" class="edge">
<title>Node45&#45;&gt;Node22</title>
<path fill="none" stroke="#63b8ff" d="M981.17,-115.5C971.78,-113.4 961.54,-111.37 952,-110 716.28,-76.05 429.31,-67.9 329.37,-66.03"/>
<polygon fill="#63b8ff" stroke="#63b8ff" points="329.27,-62.53 319.21,-65.85 329.14,-69.53 329.27,-62.53"/>
</g>
<!-- Node46&#45;&gt;Node15 -->
<g id="edge58" class="edge">
<title>Node46&#45;&gt;Node15</title>
<path fill="none" stroke="#63b8ff" d="M452.09,-346.16C438.23,-332.7 416.12,-306.45 429,-286 439.47,-269.39 458.04,-258.84 475.85,-252.21"/>
<polygon fill="#63b8ff" stroke="#63b8ff" points="477.25,-255.44 485.6,-248.92 475.01,-248.8 477.25,-255.44"/>
</g>
<!-- Node47 -->
<g id="node42" class="node">
<title>Node47</title>
<g id="a_node42"><a xlink:title=" ">
<polygon fill="#e0e0e0" stroke="#999999" points="485.5,-305 438.5,-305 438.5,-286 485.5,-286 485.5,-305"/>
<text text-anchor="middle" x="462" y="-293" font-family="Helvetica,sans-Serif" font-size="10.00">deque</text>
</a>
</g>
</g>
<!-- Node46&#45;&gt;Node47 -->
<g id="edge57" class="edge">
<title>Node46&#45;&gt;Node47</title>
<path fill="none" stroke="#63b8ff" d="M462,-346.37C462,-338.25 462,-325.81 462,-315.39"/>
<polygon fill="#63b8ff" stroke="#63b8ff" points="465.5,-315.17 462,-305.17 458.5,-315.17 465.5,-315.17"/>
</g>
<!-- Node49&#45;&gt;Node7 -->
<g id="edge62" class="edge">
<title>Node49&#45;&gt;Node7</title>
<path fill="none" stroke="#63b8ff" d="M1105.08,-237.19C1172.46,-232.64 1304.81,-220.65 1343,-195 1360.95,-182.94 1372.52,-160.37 1378.88,-144.33"/>
<polygon fill="#63b8ff" stroke="#63b8ff" points="1382.17,-145.5 1382.32,-134.91 1375.6,-143.1 1382.17,-145.5"/>
</g>
<!-- Node49&#45;&gt;Node18 -->
<g id="edge64" class="edge">
<title>Node49&#45;&gt;Node18</title>
<path fill="none" stroke="#63b8ff" d="M1024.73,-231.85C976.1,-222.61 894.12,-207.04 840.03,-196.76"/>
<polygon fill="#63b8ff" stroke="#63b8ff" points="840.42,-193.28 829.94,-194.85 839.11,-200.15 840.42,-193.28"/>
</g>
<!-- Node49&#45;&gt;Node37 -->
<g id="edge66" class="edge">
<title>Node49&#45;&gt;Node37</title>
<path fill="none" stroke="#63b8ff" d="M1090.81,-230.99C1144.8,-211.87 1261.13,-163.03 1217,-110 1194.63,-83.13 1101.66,-72.42 1037.95,-68.19"/>
<polygon fill="#63b8ff" stroke="#63b8ff" points="1037.8,-64.68 1027.6,-67.55 1037.36,-71.66 1037.8,-64.68"/>
</g>
<!-- Node49&#45;&gt;Node43 -->
<g id="edge65" class="edge">
<title>Node49&#45;&gt;Node43</title>
<path fill="none" stroke="#63b8ff" d="M1056.74,-230.75C1049.54,-223.11 1038.89,-211.82 1030.15,-202.56"/>
<polygon fill="#63b8ff" stroke="#63b8ff" points="1032.51,-199.96 1023.1,-195.09 1027.42,-204.76 1032.51,-199.96"/>
</g>
<!-- Node50 -->
<g id="node45" class="node">
<title>Node50</title>
<g id="a_node45"><a xlink:title=" ">
<polygon fill="#e0e0e0" stroke="#999999" points="1147.5,-195 1082.5,-195 1082.5,-176 1147.5,-176 1147.5,-195"/>
<text text-anchor="middle" x="1115" y="-183" font-family="Helvetica,sans-Serif" font-size="10.00">stdexcept</text>
</a>
</g>
</g>
<!-- Node49&#45;&gt;Node50 -->
<g id="edge63" class="edge">
<title>Node49&#45;&gt;Node50</title>
<path fill="none" stroke="#63b8ff" d="M1073.26,-230.75C1080.46,-223.11 1091.11,-211.82 1099.85,-202.56"/>
<polygon fill="#63b8ff" stroke="#63b8ff" points="1102.58,-204.76 1106.9,-195.09 1097.49,-199.96 1102.58,-204.76"/>
</g>
<!-- Node52&#45;&gt;Node15 -->
<g id="edge69" class="edge">
<title>Node52&#45;&gt;Node15</title>
<path fill="none" stroke="#63b8ff" d="M543.71,-285.75C540.19,-278.57 535.09,-268.18 530.72,-259.27"/>
<polygon fill="#63b8ff" stroke="#63b8ff" points="533.76,-257.53 526.21,-250.09 527.48,-260.61 533.76,-257.53"/>
</g>
<!-- Node53&#45;&gt;Node15 -->
<g id="edge71" class="edge">
<title>Node53&#45;&gt;Node15</title>
<path fill="none" stroke="#63b8ff" d="M370.08,-285.98C400.6,-277.05 448.76,-262.94 482.66,-253.02"/>
<polygon fill="#63b8ff" stroke="#63b8ff" points="484.08,-256.25 492.69,-250.08 482.11,-249.53 484.08,-256.25"/>
</g>
<!-- Node54&#45;&gt;Node18 -->
<g id="edge74" class="edge">
<title>Node54&#45;&gt;Node18</title>
<path fill="none" stroke="#63b8ff" d="M819.39,-230.75C813.74,-223.26 805.46,-212.28 798.55,-203.13"/>
<polygon fill="#63b8ff" stroke="#63b8ff" points="801.3,-200.96 792.48,-195.09 795.71,-205.18 801.3,-200.96"/>
</g>
<!-- Node54&#45;&gt;Node43 -->
<g id="edge75" class="edge">
<title>Node54&#45;&gt;Node43</title>
<path fill="none" stroke="#63b8ff" d="M856.37,-230.98C888.37,-222.01 938.96,-207.82 974.38,-197.89"/>
<polygon fill="#63b8ff" stroke="#63b8ff" points="975.71,-201.15 984.4,-195.08 973.82,-194.41 975.71,-201.15"/>
</g>
<!-- Node55&#45;&gt;Node3 -->
<g id="edge77" class="edge">
<title>Node55&#45;&gt;Node3</title>
<path fill="none" stroke="#63b8ff" d="M892.48,-516.84C883.68,-508.26 872.43,-497.3 863.33,-488.42"/>
<polygon fill="#63b8ff" stroke="#63b8ff" points="865.59,-485.74 855.99,-481.27 860.71,-490.75 865.59,-485.74"/>
</g>
</g>
</svg>
