<?xml version="1.0" encoding="UTF-8" standalone="no"?>
<!DOCTYPE svg PUBLIC "-//W3C//DTD SVG 1.1//EN"
 "http://www.w3.org/Graphics/SVG/1.1/DTD/svg11.dtd">
<!-- Generated by graphviz version 2.43.0 (0)
 -->
<!-- Title: Graphical Class Hierarchy Pages: 1 -->
<svg width="245pt" height="64pt"
 viewBox="0.00 0.00 245.00 64.00" xmlns="http://www.w3.org/2000/svg" xmlns:xlink="http://www.w3.org/1999/xlink">
<g id="graph0" class="graph" transform="scale(1 1) rotate(0) translate(4 60)">
<title>Graphical Class Hierarchy</title>
<!-- Node0 -->
<g id="Node000000" class="node">
<title>Node0</title>
<g id="a_Node000000"><a xlink:title=" ">
<polygon fill="#e0e0e0" stroke="#999999" points="61,-37 0,-37 0,-18 61,-18 61,-37"/>
<text text-anchor="middle" x="30.5" y="-25" font-family="Helvetica,sans-Serif" font-size="10.00">std::span</text>
</a>
</g>
</g>
<!-- Node1 -->
<g id="Node000001" class="node">
<title>Node1</title>
<g id="a_Node000001"><a xlink:href="classmim_1_1Span.html" target="_top" xlink:title=" ">
<polygon fill="white" stroke="#666666" points="237,-56 97,-56 97,-37 237,-37 237,-56"/>
<text text-anchor="middle" x="167" y="-44" font-family="Helvetica,sans-Serif" font-size="10.00">mim::Span&lt; const T, N &gt;</text>
</a>
</g>
</g>
<!-- Node0&#45;&gt;Node1 -->
<g id="edge222_Node000000_Node000001" class="edge">
<title>Node0&#45;&gt;Node1</title>
<g id="a_edge222_Node000000_Node000001"><a xlink:title=" ">
<path fill="none" stroke="#63b8ff" d="M71.14,-33.1C79.77,-34.32 89.14,-35.64 98.52,-36.97"/>
<polygon fill="#63b8ff" stroke="#63b8ff" points="71.41,-29.6 61.02,-31.67 70.43,-36.53 71.41,-29.6"/>
</a>
</g>
</g>
<!-- Node2 -->
<g id="Node000002" class="node">
<title>Node2</title>
<g id="a_Node000002"><a xlink:href="classmim_1_1Span.html" target="_top" xlink:title="This is a thin wrapper for std::span&lt;T, N&gt; with the following additional features:">
<polygon fill="white" stroke="#666666" points="222.5,-19 111.5,-19 111.5,0 222.5,0 222.5,-19"/>
<text text-anchor="middle" x="167" y="-7" font-family="Helvetica,sans-Serif" font-size="10.00">mim::Span&lt; T, N &gt;</text>
</a>
</g>
</g>
<!-- Node0&#45;&gt;Node2 -->
<g id="edge223_Node000000_Node000002" class="edge">
<title>Node0&#45;&gt;Node2</title>
<g id="a_edge223_Node000000_Node000002"><a xlink:title=" ">
<path fill="none" stroke="#63b8ff" d="M71.18,-22.19C83.76,-20.51 97.91,-18.61 111.36,-16.81"/>
<polygon fill="#63b8ff" stroke="#63b8ff" points="70.46,-18.75 61.02,-23.55 71.39,-25.69 70.46,-18.75"/>
</a>
</g>
</g>
</g>
</svg>
