<?xml version="1.0" encoding="UTF-8" standalone="no"?>
<!DOCTYPE svg PUBLIC "-//W3C//DTD SVG 1.1//EN"
 "http://www.w3.org/Graphics/SVG/1.1/DTD/svg11.dtd">
<!-- Generated by graphviz version 2.43.0 (0)
 -->
<!-- Title: Graphical Class Hierarchy Pages: 1 -->
<svg width="600pt" height="432pt"
 viewBox="0.00 0.00 600.00 432.00" xmlns="http://www.w3.org/2000/svg" xmlns:xlink="http://www.w3.org/1999/xlink">
<g id="graph0" class="graph" transform="scale(1 1) rotate(0) translate(4 428)">
<title>Graphical Class Hierarchy</title>
<!-- Node0 -->
<g id="Node000000" class="node">
<title>Node0</title>
<g id="a_Node000000"><a xlink:href="classthorin_1_1Phase.html" target="_top" xlink:title="As opposed to a Pass, a Phase does one thing at a time and does not mix with other Phases.">
<polygon fill="white" stroke="#666666" points="86,-253.5 6,-253.5 6,-234.5 86,-234.5 86,-253.5"/>
<text text-anchor="middle" x="46" y="-241.5" font-family="Helvetica,sans-Serif" font-size="10.00">thorin::Phase</text>
</a>
</g>
</g>
<!-- Node1 -->
<g id="Node000001" class="node">
<title>Node1</title>
<g id="a_Node000001"><a xlink:href="classthorin_1_1Cleanup.html" target="_top" xlink:title="Removes unreachable and dead code by rebuilding the whole World into a new one and swapping afterward...">
<polygon fill="white" stroke="#666666" points="255.5,-327.5 164.5,-327.5 164.5,-308.5 255.5,-308.5 255.5,-327.5"/>
<text text-anchor="middle" x="210" y="-315.5" font-family="Helvetica,sans-Serif" font-size="10.00">thorin::Cleanup</text>
</a>
</g>
</g>
<!-- Node0&#45;&gt;Node1 -->
<g id="edge155_Node000000_Node000001" class="edge">
<title>Node0&#45;&gt;Node1</title>
<g id="a_edge155_Node000000_Node000001"><a xlink:title=" ">
<path fill="none" stroke="#63b8ff" d="M65.81,-260.17C81.47,-272.82 104.87,-289.9 128,-300 139.35,-304.96 152.22,-308.62 164.3,-311.29"/>
<polygon fill="#63b8ff" stroke="#63b8ff" points="67.9,-257.35 57.96,-253.67 63.43,-262.75 67.9,-257.35"/>
</a>
</g>
</g>
<!-- Node2 -->
<g id="Node000002" class="node">
<title>Node2</title>
<g id="a_Node000002"><a xlink:href="classthorin_1_1ClosedMutPhase.html" target="_top" xlink:title="Transitively visits all reachable closed mutables (Def::is_closed()) in World.">
<polygon fill="white" stroke="#666666" points="292,-290.5 128,-290.5 128,-271.5 292,-271.5 292,-290.5"/>
<text text-anchor="middle" x="210" y="-278.5" font-family="Helvetica,sans-Serif" font-size="10.00">thorin::ClosedMutPhase&lt; M &gt;</text>
</a>
</g>
</g>
<!-- Node0&#45;&gt;Node2 -->
<g id="edge156_Node000000_Node000002" class="edge">
<title>Node0&#45;&gt;Node2</title>
<g id="a_edge156_Node000000_Node000002"><a xlink:title=" ">
<path fill="none" stroke="#63b8ff" d="M96.02,-255.6C106.56,-258.06 117.65,-260.64 128,-263 140.22,-265.79 153.49,-268.76 165.68,-271.47"/>
<polygon fill="#63b8ff" stroke="#63b8ff" points="96.65,-252.15 86.12,-253.27 95.05,-258.96 96.65,-252.15"/>
</a>
</g>
</g>
<!-- Node3 -->
<g id="Node000003" class="node">
<title>Node3</title>
<g id="a_Node000003"><a xlink:href="classthorin_1_1PassManPhase.html" target="_top" xlink:title="Wraps a PassMan pipeline as a Phase.">
<polygon fill="white" stroke="#666666" points="271.5,-253.5 148.5,-253.5 148.5,-234.5 271.5,-234.5 271.5,-253.5"/>
<text text-anchor="middle" x="210" y="-241.5" font-family="Helvetica,sans-Serif" font-size="10.00">thorin::PassManPhase</text>
</a>
</g>
</g>
<!-- Node0&#45;&gt;Node3 -->
<g id="edge157_Node000000_Node000003" class="edge">
<title>Node0&#45;&gt;Node3</title>
<g id="a_edge157_Node000000_Node000003"><a xlink:title=" ">
<path fill="none" stroke="#63b8ff" d="M96.62,-244C112.95,-244 131.28,-244 148.34,-244"/>
<polygon fill="#63b8ff" stroke="#63b8ff" points="96.22,-240.5 86.22,-244 96.22,-247.5 96.22,-240.5"/>
</a>
</g>
</g>
<!-- Node4 -->
<g id="Node000004" class="node">
<title>Node4</title>
<g id="a_Node000004"><a xlink:href="classthorin_1_1PassPhase.html" target="_top" xlink:title="Wraps a Pass as a Phase.">
<polygon fill="white" stroke="#666666" points="275.5,-216.5 144.5,-216.5 144.5,-197.5 275.5,-197.5 275.5,-216.5"/>
<text text-anchor="middle" x="210" y="-204.5" font-family="Helvetica,sans-Serif" font-size="10.00">thorin::PassPhase&lt; P &gt;</text>
</a>
</g>
</g>
<!-- Node0&#45;&gt;Node4 -->
<g id="edge158_Node000000_Node000004" class="edge">
<title>Node0&#45;&gt;Node4</title>
<g id="a_edge158_Node000000_Node000004"><a xlink:title=" ">
<path fill="none" stroke="#63b8ff" d="M96.03,-232.8C118.78,-227.61 145.55,-221.49 167.31,-216.52"/>
<polygon fill="#63b8ff" stroke="#63b8ff" points="95.19,-229.4 86.22,-235.04 96.74,-236.23 95.19,-229.4"/>
</a>
</g>
</g>
<!-- Node5 -->
<g id="Node000005" class="node">
<title>Node5</title>
<g id="a_Node000005"><a xlink:href="classthorin_1_1Pipeline.html" target="_top" xlink:title="Organizes several Phases as a pipeline.">
<polygon fill="white" stroke="#666666" points="255,-179.5 165,-179.5 165,-160.5 255,-160.5 255,-179.5"/>
<text text-anchor="middle" x="210" y="-167.5" font-family="Helvetica,sans-Serif" font-size="10.00">thorin::Pipeline</text>
</a>
</g>
</g>
<!-- Node0&#45;&gt;Node5 -->
<g id="edge159_Node000000_Node000005" class="edge">
<title>Node0&#45;&gt;Node5</title>
<g id="a_edge159_Node000000_Node000005"><a xlink:title=" ">
<path fill="none" stroke="#63b8ff" d="M66.16,-227.99C81.87,-215.64 105.15,-199.03 128,-189 139.51,-183.95 152.55,-180.14 164.75,-177.31"/>
<polygon fill="#63b8ff" stroke="#63b8ff" points="63.87,-225.35 58.27,-234.34 68.26,-230.8 63.87,-225.35"/>
</a>
</g>
</g>
<!-- Node6 -->
<g id="Node000006" class="node">
<title>Node6</title>
<g id="a_Node000006"><a xlink:href="classthorin_1_1RWPhase.html" target="_top" xlink:title="Visits the current Phase::world and constructs a new RWPhase::world along the way.">
<polygon fill="white" stroke="#666666" points="258.5,-67.5 161.5,-67.5 161.5,-48.5 258.5,-48.5 258.5,-67.5"/>
<text text-anchor="middle" x="210" y="-55.5" font-family="Helvetica,sans-Serif" font-size="10.00">thorin::RWPhase</text>
</a>
</g>
</g>
<!-- Node0&#45;&gt;Node6 -->
<g id="edge160_Node000000_Node000006" class="edge">
<title>Node0&#45;&gt;Node6</title>
<g id="a_edge160_Node000000_Node000006"><a xlink:title=" ">
<path fill="none" stroke="#63b8ff" d="M55.88,-225.03C69,-198.36 95.54,-149.21 128,-115 146.94,-95.04 173.84,-77.77 191.36,-67.62"/>
<polygon fill="#63b8ff" stroke="#63b8ff" points="52.57,-223.85 51.38,-234.37 58.87,-226.88 52.57,-223.85"/>
</a>
</g>
</g>
<!-- Node11 -->
<g id="Node000011" class="node">
<title>Node11</title>
<g id="a_Node000011"><a xlink:href="classthorin_1_1ScopePhase.html" target="_top" xlink:title="Transitively visits all reachable Scopes in World that do not have free variables.">
<polygon fill="white" stroke="#666666" points="265,-142.5 155,-142.5 155,-123.5 265,-123.5 265,-142.5"/>
<text text-anchor="middle" x="210" y="-130.5" font-family="Helvetica,sans-Serif" font-size="10.00">thorin::ScopePhase</text>
</a>
</g>
</g>
<!-- Node0&#45;&gt;Node11 -->
<g id="edge163_Node000000_Node000011" class="edge">
<title>Node0&#45;&gt;Node11</title>
<g id="a_edge163_Node000000_Node000011"><a xlink:title=" ">
<path fill="none" stroke="#63b8ff" d="M57.99,-225.79C71.7,-204.7 97.13,-170.49 128,-152 136.18,-147.1 145.52,-143.47 154.89,-140.77"/>
<polygon fill="#63b8ff" stroke="#63b8ff" points="54.9,-224.12 52.54,-234.45 60.83,-227.85 54.9,-224.12"/>
</a>
</g>
</g>
<!-- Node16 -->
<g id="Node000016" class="node">
<title>Node16</title>
<g id="a_Node000016"><a xlink:href="classthorin_1_1plug_1_1clos_1_1ClosConv.html" target="_top" xlink:title="Performs typed closure conversion.">
<polygon fill="white" stroke="#666666" points="259,-424 161,-424 161,-394 259,-394 259,-424"/>
<text text-anchor="start" x="169" y="-412" font-family="Helvetica,sans-Serif" font-size="10.00">thorin::plug::clos</text>
<text text-anchor="middle" x="210" y="-401" font-family="Helvetica,sans-Serif" font-size="10.00">::ClosConv</text>
</a>
</g>
</g>
<!-- Node0&#45;&gt;Node16 -->
<g id="edge168_Node000000_Node000016" class="edge">
<title>Node0&#45;&gt;Node16</title>
<g id="a_edge168_Node000000_Node000016"><a xlink:title=" ">
<path fill="none" stroke="#63b8ff" d="M52.89,-263.37C63.14,-293.81 87.16,-352.73 128,-385 137.44,-392.46 149.14,-397.6 160.69,-401.14"/>
<polygon fill="#63b8ff" stroke="#63b8ff" points="56.12,-261.99 49.73,-253.54 49.45,-264.13 56.12,-261.99"/>
</a>
</g>
</g>
<!-- Node17 -->
<g id="Node000017" class="node">
<title>Node17</title>
<g id="a_Node000017"><a xlink:href="classthorin_1_1plug_1_1clos_1_1LowerTypedClos.html" target="_top" xlink:title="This pass lowers typed closures to untyped closures.">
<polygon fill="white" stroke="#666666" points="260.5,-376 159.5,-376 159.5,-346 260.5,-346 260.5,-376"/>
<text text-anchor="start" x="167.5" y="-364" font-family="Helvetica,sans-Serif" font-size="10.00">thorin::plug::clos</text>
<text text-anchor="middle" x="210" y="-353" font-family="Helvetica,sans-Serif" font-size="10.00">::LowerTypedClos</text>
</a>
</g>
</g>
<!-- Node0&#45;&gt;Node17 -->
<g id="edge169_Node000000_Node000017" class="edge">
<title>Node0&#45;&gt;Node17</title>
<g id="a_edge169_Node000000_Node000017"><a xlink:title=" ">
<path fill="none" stroke="#63b8ff" d="M58.35,-262.43C72.24,-283.48 97.7,-317.53 128,-337 137.38,-343.03 148.33,-347.59 159.09,-351.03"/>
<polygon fill="#63b8ff" stroke="#63b8ff" points="61.14,-260.31 52.8,-253.77 55.25,-264.08 61.14,-260.31"/>
</a>
</g>
</g>
<!-- Node7 -->
<g id="Node000007" class="node">
<title>Node7</title>
<g id="a_Node000007"><a xlink:href="classthorin_1_1FPPhase.html" target="_top" xlink:title="Like a RWPhase but starts with a fixed&#45;point loop of FPPhase::analyze beforehand.">
<polygon fill="white" stroke="#666666" points="438.5,-67.5 346.5,-67.5 346.5,-48.5 438.5,-48.5 438.5,-67.5"/>
<text text-anchor="middle" x="392.5" y="-55.5" font-family="Helvetica,sans-Serif" font-size="10.00">thorin::FPPhase</text>
</a>
</g>
</g>
<!-- Node6&#45;&gt;Node7 -->
<g id="edge161_Node000006_Node000007" class="edge">
<title>Node6&#45;&gt;Node7</title>
<g id="a_edge161_Node000006_Node000007"><a xlink:title=" ">
<path fill="none" stroke="#63b8ff" d="M269.03,-58C294.13,-58 323.05,-58 346.49,-58"/>
<polygon fill="#63b8ff" stroke="#63b8ff" points="268.9,-54.5 258.9,-58 268.9,-61.5 268.9,-54.5"/>
</a>
</g>
</g>
<!-- Node8 -->
<g id="Node000008" class="node">
<title>Node8</title>
<g id="a_Node000008"><a xlink:href="classthorin_1_1plug_1_1matrix_1_1LowerMatrixLowLevel.html" target="_top" xlink:title="In this phase, we lower all matrix operations and types to the low&#45;level representation using pointer...">
<polygon fill="white" stroke="#666666" points="457,-30 328,-30 328,0 457,0 457,-30"/>
<text text-anchor="start" x="336" y="-18" font-family="Helvetica,sans-Serif" font-size="10.00">thorin::plug::matrix</text>
<text text-anchor="middle" x="392.5" y="-7" font-family="Helvetica,sans-Serif" font-size="10.00">::LowerMatrixLowLevel</text>
</a>
</g>
</g>
<!-- Node6&#45;&gt;Node8 -->
<g id="edge162_Node000006_Node000008" class="edge">
<title>Node6&#45;&gt;Node8</title>
<g id="a_edge162_Node000006_Node000008"><a xlink:title=" ">
<path fill="none" stroke="#63b8ff" d="M261.67,-46.17C271.73,-43.8 282.2,-41.33 292,-39 304.1,-36.12 317.02,-33.02 329.41,-30.04"/>
<polygon fill="#63b8ff" stroke="#63b8ff" points="260.74,-42.79 251.8,-48.48 262.34,-49.6 260.74,-42.79"/>
</a>
</g>
</g>
<!-- Node12 -->
<g id="Node000012" class="node">
<title>Node12</title>
<g id="a_Node000012"><a xlink:href="classthorin_1_1Emitter.html" target="_top" xlink:title=" ">
<polygon fill="white" stroke="#666666" points="449,-126.5 336,-126.5 336,-85.5 449,-85.5 449,-126.5"/>
<text text-anchor="start" x="344" y="-114.5" font-family="Helvetica,sans-Serif" font-size="10.00">thorin::Emitter&lt; std</text>
<text text-anchor="start" x="344" y="-103.5" font-family="Helvetica,sans-Serif" font-size="10.00">::string, std::string,</text>
<text text-anchor="middle" x="392.5" y="-92.5" font-family="Helvetica,sans-Serif" font-size="10.00"> BB, Emitter &gt;</text>
</a>
</g>
</g>
<!-- Node11&#45;&gt;Node12 -->
<g id="edge164_Node000011_Node000012" class="edge">
<title>Node11&#45;&gt;Node12</title>
<g id="a_edge164_Node000011_Node000012"><a xlink:title=" ">
<path fill="none" stroke="#63b8ff" d="M275.31,-123.38C295.08,-120.42 316.67,-117.19 335.82,-114.33"/>
<polygon fill="#63b8ff" stroke="#63b8ff" points="274.53,-119.96 265.16,-124.9 275.56,-126.88 274.53,-119.96"/>
</a>
</g>
</g>
<!-- Node14 -->
<g id="Node000014" class="node">
<title>Node14</title>
<g id="a_Node000014"><a xlink:href="classthorin_1_1Emitter.html" target="_top" xlink:title=" ">
<polygon fill="white" stroke="#666666" points="456.5,-223 328.5,-223 328.5,-193 456.5,-193 456.5,-223"/>
<text text-anchor="start" x="336.5" y="-211" font-family="Helvetica,sans-Serif" font-size="10.00">thorin::Emitter&lt; Value,</text>
<text text-anchor="middle" x="392.5" y="-200" font-family="Helvetica,sans-Serif" font-size="10.00"> Type, BB, Child &gt;</text>
</a>
</g>
</g>
<!-- Node11&#45;&gt;Node14 -->
<g id="edge166_Node000011_Node000014" class="edge">
<title>Node11&#45;&gt;Node14</title>
<g id="a_edge166_Node000011_Node000014"><a xlink:title=" ">
<path fill="none" stroke="#63b8ff" d="M275.04,-144.83C280.92,-146.86 286.66,-149.23 292,-152 311,-161.86 309.68,-172.92 328,-184 333.45,-187.29 339.42,-190.27 345.46,-192.91"/>
<polygon fill="#63b8ff" stroke="#63b8ff" points="275.66,-141.36 265.07,-141.73 273.58,-148.04 275.66,-141.36"/>
</a>
</g>
</g>
<!-- Node15 -->
<g id="Node000015" class="node">
<title>Node15</title>
<g id="a_Node000015"><a xlink:href="classthorin_1_1plug_1_1mem_1_1AddMem.html" target="_top" xlink:title="This phase adds mems to all lambdas and continuations.">
<polygon fill="white" stroke="#666666" points="447.5,-175 337.5,-175 337.5,-145 447.5,-145 447.5,-175"/>
<text text-anchor="start" x="345.5" y="-163" font-family="Helvetica,sans-Serif" font-size="10.00">thorin::plug::mem::</text>
<text text-anchor="middle" x="392.5" y="-152" font-family="Helvetica,sans-Serif" font-size="10.00">AddMem</text>
</a>
</g>
</g>
<!-- Node11&#45;&gt;Node15 -->
<g id="edge167_Node000011_Node000015" class="edge">
<title>Node11&#45;&gt;Node15</title>
<g id="a_edge167_Node000011_Node000015"><a xlink:title=" ">
<path fill="none" stroke="#63b8ff" d="M275.27,-142.61C295.6,-145.65 317.84,-148.98 337.38,-151.9"/>
<polygon fill="#63b8ff" stroke="#63b8ff" points="275.56,-139.12 265.16,-141.1 274.53,-146.04 275.56,-139.12"/>
</a>
</g>
</g>
<!-- Node13 -->
<g id="Node000013" class="node">
<title>Node13</title>
<g id="a_Node000013"><a xlink:href="classthorin_1_1ll_1_1Emitter.html" target="_top" xlink:title=" ">
<polygon fill="white" stroke="#666666" points="592,-115.5 493,-115.5 493,-96.5 592,-96.5 592,-115.5"/>
<text text-anchor="middle" x="542.5" y="-103.5" font-family="Helvetica,sans-Serif" font-size="10.00">thorin::ll::Emitter</text>
</a>
</g>
</g>
<!-- Node12&#45;&gt;Node13 -->
<g id="edge165_Node000012_Node000013" class="edge">
<title>Node12&#45;&gt;Node13</title>
<g id="a_edge165_Node000012_Node000013"><a xlink:title=" ">
<path fill="none" stroke="#63b8ff" d="M459.32,-106C470.63,-106 482.2,-106 492.95,-106"/>
<polygon fill="#63b8ff" stroke="#63b8ff" points="459.03,-102.5 449.03,-106 459.03,-109.5 459.03,-102.5"/>
</a>
</g>
</g>
<!-- Node9 -->
<g id="Node000009" class="node">
<title>Node9</title>
<g id="a_Node000009"><a xlink:href="classthorin_1_1Rewriter.html" target="_top" xlink:title="Recurseivly rewrites part of a program into the provided World.">
<polygon fill="white" stroke="#666666" points="92,-49.5 0,-49.5 0,-30.5 92,-30.5 92,-49.5"/>
<text text-anchor="middle" x="46" y="-37.5" font-family="Helvetica,sans-Serif" font-size="10.00">thorin::Rewriter</text>
</a>
</g>
</g>
<!-- Node9&#45;&gt;Node6 -->
<g id="edge170_Node000009_Node000006" class="edge">
<title>Node9&#45;&gt;Node6</title>
<g id="a_edge170_Node000009_Node000006"><a xlink:title=" ">
<path fill="none" stroke="#63b8ff" d="M102.23,-46.14C121.42,-48.27 142.76,-50.64 161.29,-52.7"/>
<polygon fill="#63b8ff" stroke="#63b8ff" points="102.45,-42.64 92.13,-45.01 101.68,-49.6 102.45,-42.64"/>
</a>
</g>
</g>
<!-- Node10 -->
<g id="Node000010" class="node">
<title>Node10</title>
<g id="a_Node000010"><a xlink:href="classthorin_1_1VarRewriter.html" target="_top" xlink:title=" ">
<polygon fill="white" stroke="#666666" points="264,-30.5 156,-30.5 156,-11.5 264,-11.5 264,-30.5"/>
<text text-anchor="middle" x="210" y="-18.5" font-family="Helvetica,sans-Serif" font-size="10.00">thorin::VarRewriter</text>
</a>
</g>
</g>
<!-- Node9&#45;&gt;Node10 -->
<g id="edge171_Node000009_Node000010" class="edge">
<title>Node9&#45;&gt;Node10</title>
<g id="a_edge171_Node000009_Node000010"><a xlink:title=" ">
<path fill="none" stroke="#63b8ff" d="M102.11,-33.54C119.46,-31.5 138.58,-29.26 155.8,-27.24"/>
<polygon fill="#63b8ff" stroke="#63b8ff" points="101.65,-30.07 92.13,-34.71 102.47,-37.02 101.65,-30.07"/>
</a>
</g>
</g>
</g>
</svg>
