<?xml version="1.0" encoding="UTF-8" standalone="no"?>
<!DOCTYPE svg PUBLIC "-//W3C//DTD SVG 1.1//EN"
 "http://www.w3.org/Graphics/SVG/1.1/DTD/svg11.dtd">
<!-- Generated by graphviz version 2.43.0 (0)
 -->
<!-- Title: dialects/compile/passes/internal_cleanup.cpp Pages: 1 -->
<svg width="1883pt" height="621pt"
 viewBox="0.00 0.00 1882.50 621.00" xmlns="http://www.w3.org/2000/svg" xmlns:xlink="http://www.w3.org/1999/xlink">
<g id="graph0" class="graph" transform="scale(1 1) rotate(0) translate(4 617)">
<title>dialects/compile/passes/internal_cleanup.cpp</title>
<!-- Node1 -->
<g id="node1" class="node">
<title>Node1</title>
<g id="a_node1"><a xlink:title=" ">
<polygon fill="#999999" stroke="#666666" points="1247,-613 1113,-613 1113,-583 1247,-583 1247,-613"/>
<text text-anchor="start" x="1121" y="-601" font-family="Helvetica,sans-Serif" font-size="10.00">dialects/compile/passes</text>
<text text-anchor="middle" x="1180" y="-590" font-family="Helvetica,sans-Serif" font-size="10.00">/internal_cleanup.cpp</text>
</a>
</g>
</g>
<!-- Node2 -->
<g id="node2" class="node">
<title>Node2</title>
<g id="a_node2"><a xlink:href="internal__cleanup_8h.html" target="_top" xlink:title=" ">
<polygon fill="white" stroke="#666666" points="1103,-547 969,-547 969,-517 1103,-517 1103,-547"/>
<text text-anchor="start" x="977" y="-535" font-family="Helvetica,sans-Serif" font-size="10.00">dialects/compile/passes</text>
<text text-anchor="middle" x="1036" y="-524" font-family="Helvetica,sans-Serif" font-size="10.00">/internal_cleanup.h</text>
</a>
</g>
</g>
<!-- Node1&#45;&gt;Node2 -->
<g id="edge1" class="edge">
<title>Node1&#45;&gt;Node2</title>
<path fill="none" stroke="#63b8ff" d="M1148.4,-582.95C1127.39,-573.62 1099.6,-561.27 1076.91,-551.18"/>
<polygon fill="#63b8ff" stroke="#63b8ff" points="1078.09,-547.88 1067.53,-547.01 1075.24,-554.27 1078.09,-547.88"/>
</g>
<!-- Node34 -->
<g id="node32" class="node">
<title>Node34</title>
<g id="a_node32"><a xlink:title=" ">
<polygon fill="#e0e0e0" stroke="#999999" points="1148,-134.5 1088,-134.5 1088,-115.5 1148,-115.5 1148,-134.5"/>
<text text-anchor="middle" x="1118" y="-122.5" font-family="Helvetica,sans-Serif" font-size="10.00">iostream</text>
</a>
</g>
</g>
<!-- Node1&#45;&gt;Node34 -->
<g id="edge78" class="edge">
<title>Node1&#45;&gt;Node34</title>
<path fill="none" stroke="#63b8ff" d="M1187.33,-582.86C1198.37,-560.21 1218,-514.08 1218,-472.5 1218,-472.5 1218,-472.5 1218,-239.5 1218,-194.04 1172.28,-158.17 1142.67,-139.7"/>
<polygon fill="#63b8ff" stroke="#63b8ff" points="1144.44,-136.68 1134.07,-134.53 1140.84,-142.68 1144.44,-136.68"/>
</g>
<!-- Node44 -->
<g id="node42" class="node">
<title>Node44</title>
<g id="a_node42"><a xlink:href="lam_8h.html" target="_top" xlink:title=" ">
<polygon fill="white" stroke="#666666" points="1184,-305 1108,-305 1108,-286 1184,-286 1184,-305"/>
<text text-anchor="middle" x="1146" y="-293" font-family="Helvetica,sans-Serif" font-size="10.00">thorin/lam.h</text>
</a>
</g>
</g>
<!-- Node1&#45;&gt;Node44 -->
<g id="edge79" class="edge">
<title>Node1&#45;&gt;Node44</title>
<path fill="none" stroke="#63b8ff" d="M1180,-582.81C1180,-559.7 1180,-512.49 1180,-472.5 1180,-472.5 1180,-472.5 1180,-415.5 1180,-378.42 1164.55,-337.26 1154.48,-314.36"/>
<polygon fill="#63b8ff" stroke="#63b8ff" points="1157.64,-312.86 1150.31,-305.21 1151.27,-315.76 1157.64,-312.86"/>
</g>
<!-- Node3 -->
<g id="node3" class="node">
<title>Node3</title>
<g id="a_node3"><a xlink:href="def_8h.html" target="_top" xlink:title=" ">
<polygon fill="white" stroke="#666666" points="1003,-250 931,-250 931,-231 1003,-231 1003,-250"/>
<text text-anchor="middle" x="967" y="-238" font-family="Helvetica,sans-Serif" font-size="10.00">thorin/def.h</text>
</a>
</g>
</g>
<!-- Node2&#45;&gt;Node3 -->
<g id="edge2" class="edge">
<title>Node2&#45;&gt;Node3</title>
<path fill="none" stroke="#63b8ff" d="M1036,-516.67C1036,-495.14 1036,-453.17 1036,-417.5 1036,-417.5 1036,-417.5 1036,-355 1036,-323.19 1033.79,-313.01 1017,-286 1009.79,-274.4 998.66,-264.07 988.72,-256.29"/>
<polygon fill="#63b8ff" stroke="#63b8ff" points="990.55,-253.28 980.43,-250.14 986.38,-258.91 990.55,-253.28"/>
</g>
<!-- Node37 -->
<g id="node35" class="node">
<title>Node37</title>
<g id="a_node35"><a xlink:href="pass_8h.html" target="_top" xlink:title=" ">
<polygon fill="white" stroke="#666666" points="435.5,-481 330.5,-481 330.5,-462 435.5,-462 435.5,-481"/>
<text text-anchor="middle" x="383" y="-469" font-family="Helvetica,sans-Serif" font-size="10.00">thorin/pass/pass.h</text>
</a>
</g>
</g>
<!-- Node2&#45;&gt;Node37 -->
<g id="edge46" class="edge">
<title>Node2&#45;&gt;Node37</title>
<path fill="none" stroke="#63b8ff" d="M968.88,-524.99C842.1,-513.63 569.09,-489.17 445.75,-478.12"/>
<polygon fill="#63b8ff" stroke="#63b8ff" points="445.98,-474.63 435.71,-477.22 445.36,-481.6 445.98,-474.63"/>
</g>
<!-- Node4 -->
<g id="node4" class="node">
<title>Node4</title>
<g id="a_node4"><a xlink:title=" ">
<polygon fill="#e0e0e0" stroke="#999999" points="1052,-195 996,-195 996,-176 1052,-176 1052,-195"/>
<text text-anchor="middle" x="1024" y="-183" font-family="Helvetica,sans-Serif" font-size="10.00">optional</text>
</a>
</g>
</g>
<!-- Node3&#45;&gt;Node4 -->
<g id="edge3" class="edge">
<title>Node3&#45;&gt;Node4</title>
<path fill="none" stroke="#63b8ff" d="M976.16,-230.98C984.5,-223.23 997.03,-211.58 1007.18,-202.14"/>
<polygon fill="#63b8ff" stroke="#63b8ff" points="1009.74,-204.54 1014.68,-195.17 1004.97,-199.42 1009.74,-204.54"/>
</g>
<!-- Node5 -->
<g id="node5" class="node">
<title>Node5</title>
<g id="a_node5"><a xlink:title=" ">
<polygon fill="#e0e0e0" stroke="#999999" points="1874.5,-134.5 1827.5,-134.5 1827.5,-115.5 1874.5,-115.5 1874.5,-134.5"/>
<text text-anchor="middle" x="1851" y="-122.5" font-family="Helvetica,sans-Serif" font-size="10.00">vector</text>
</a>
</g>
</g>
<!-- Node3&#45;&gt;Node5 -->
<g id="edge4" class="edge">
<title>Node3&#45;&gt;Node5</title>
<path fill="none" stroke="#63b8ff" d="M1003.18,-237.34C1113.06,-230.68 1441.82,-210.02 1548,-195 1667.1,-178.15 1697.36,-173.11 1813,-140 1815.28,-139.35 1817.62,-138.62 1819.97,-137.86"/>
<polygon fill="#63b8ff" stroke="#63b8ff" points="1821.18,-141.14 1829.48,-134.56 1818.89,-134.53 1821.18,-141.14"/>
</g>
<!-- Node6 -->
<g id="node6" class="node">
<title>Node6</title>
<g id="a_node6"><a xlink:href="debug_8h.html" target="_top" xlink:title=" ">
<polygon fill="white" stroke="#666666" points="442.5,-195 355.5,-195 355.5,-176 442.5,-176 442.5,-195"/>
<text text-anchor="middle" x="399" y="-183" font-family="Helvetica,sans-Serif" font-size="10.00">thorin/debug.h</text>
</a>
</g>
</g>
<!-- Node3&#45;&gt;Node6 -->
<g id="edge5" class="edge">
<title>Node3&#45;&gt;Node6</title>
<path fill="none" stroke="#63b8ff" d="M930.79,-236.41C849.67,-229.44 647.23,-211.8 478,-195 469.9,-194.2 461.34,-193.31 452.95,-192.42"/>
<polygon fill="#63b8ff" stroke="#63b8ff" points="453.18,-188.93 442.86,-191.35 452.44,-195.89 453.18,-188.93"/>
</g>
<!-- Node10 -->
<g id="node10" class="node">
<title>Node10</title>
<g id="a_node10"><a xlink:href="array_8h.html" target="_top" xlink:title=" ">
<polygon fill="white" stroke="#666666" points="1539,-195 1439,-195 1439,-176 1539,-176 1539,-195"/>
<text text-anchor="middle" x="1489" y="-183" font-family="Helvetica,sans-Serif" font-size="10.00">thorin/util/array.h</text>
</a>
</g>
</g>
<!-- Node3&#45;&gt;Node10 -->
<g id="edge9" class="edge">
<title>Node3&#45;&gt;Node10</title>
<path fill="none" stroke="#63b8ff" d="M1003.29,-235.82C1091.76,-226.83 1319.29,-203.73 1428.61,-192.63"/>
<polygon fill="#63b8ff" stroke="#63b8ff" points="1429.21,-196.09 1438.81,-191.6 1428.51,-189.12 1429.21,-196.09"/>
</g>
<!-- Node20 -->
<g id="node20" class="node">
<title>Node20</title>
<g id="a_node20"><a xlink:href="cast_8h.html" target="_top" xlink:title=" ">
<polygon fill="white" stroke="#666666" points="1376,-195 1280,-195 1280,-176 1376,-176 1376,-195"/>
<text text-anchor="middle" x="1328" y="-183" font-family="Helvetica,sans-Serif" font-size="10.00">thorin/util/cast.h</text>
</a>
</g>
</g>
<!-- Node3&#45;&gt;Node20 -->
<g id="edge20" class="edge">
<title>Node3&#45;&gt;Node20</title>
<path fill="none" stroke="#63b8ff" d="M1003.27,-234.18C1065.77,-225 1194.29,-206.13 1269.55,-195.08"/>
<polygon fill="#63b8ff" stroke="#63b8ff" points="1270.42,-198.49 1279.81,-193.58 1269.4,-191.57 1270.42,-198.49"/>
</g>
<!-- Node21 -->
<g id="node21" class="node">
<title>Node21</title>
<g id="a_node21"><a xlink:href="container_8h.html" target="_top" xlink:title=" ">
<polygon fill="white" stroke="#666666" points="655.5,-195 534.5,-195 534.5,-176 655.5,-176 655.5,-195"/>
<text text-anchor="middle" x="595" y="-183" font-family="Helvetica,sans-Serif" font-size="10.00">thorin/util/container.h</text>
</a>
</g>
</g>
<!-- Node3&#45;&gt;Node21 -->
<g id="edge23" class="edge">
<title>Node3&#45;&gt;Node21</title>
<path fill="none" stroke="#63b8ff" d="M930.99,-234.37C869.74,-225.64 744.23,-207.76 665.15,-196.49"/>
<polygon fill="#63b8ff" stroke="#63b8ff" points="665.18,-192.96 654.79,-195.02 664.2,-199.89 665.18,-192.96"/>
</g>
<!-- Node26 -->
<g id="node26" class="node">
<title>Node26</title>
<g id="a_node26"><a xlink:href="hash_8h.html" target="_top" xlink:title=" ">
<polygon fill="white" stroke="#666666" points="335.5,-134.5 236.5,-134.5 236.5,-115.5 335.5,-115.5 335.5,-134.5"/>
<text text-anchor="middle" x="286" y="-122.5" font-family="Helvetica,sans-Serif" font-size="10.00">thorin/util/hash.h</text>
</a>
</g>
</g>
<!-- Node3&#45;&gt;Node26 -->
<g id="edge36" class="edge">
<title>Node3&#45;&gt;Node26</title>
<path fill="none" stroke="#63b8ff" d="M930.87,-238.07C855.05,-234.6 673.99,-223.76 525,-195 486,-187.47 379.64,-155.13 322.87,-137.53"/>
<polygon fill="#63b8ff" stroke="#63b8ff" points="323.79,-134.15 313.2,-134.53 321.71,-140.84 323.79,-134.15"/>
</g>
<!-- Node33 -->
<g id="node31" class="node">
<title>Node33</title>
<g id="a_node31"><a xlink:href="print_8h.html" target="_top" xlink:title=" ">
<polygon fill="white" stroke="#666666" points="978,-195 880,-195 880,-176 978,-176 978,-195"/>
<text text-anchor="middle" x="929" y="-183" font-family="Helvetica,sans-Serif" font-size="10.00">thorin/util/print.h</text>
</a>
</g>
</g>
<!-- Node3&#45;&gt;Node33 -->
<g id="edge37" class="edge">
<title>Node3&#45;&gt;Node33</title>
<path fill="none" stroke="#63b8ff" d="M960.73,-230.75C955.41,-223.34 947.64,-212.5 941.12,-203.41"/>
<polygon fill="#63b8ff" stroke="#63b8ff" points="943.83,-201.18 935.16,-195.09 938.14,-205.26 943.83,-201.18"/>
</g>
<!-- Node7 -->
<g id="node7" class="node">
<title>Node7</title>
<g id="a_node7"><a xlink:title=" ">
<polygon fill="#e0e0e0" stroke="#999999" points="218,-134.5 174,-134.5 174,-115.5 218,-115.5 218,-134.5"/>
<text text-anchor="middle" x="196" y="-122.5" font-family="Helvetica,sans-Serif" font-size="10.00">string</text>
</a>
</g>
</g>
<!-- Node6&#45;&gt;Node7 -->
<g id="edge6" class="edge">
<title>Node6&#45;&gt;Node7</title>
<path fill="none" stroke="#63b8ff" d="M358.1,-175.99C322.88,-168.18 270.93,-155.47 227,-140 225.61,-139.51 224.19,-138.98 222.77,-138.43"/>
<polygon fill="#63b8ff" stroke="#63b8ff" points="224.07,-135.18 213.49,-134.53 221.35,-141.63 224.07,-135.18"/>
</g>
<!-- Node8 -->
<g id="node8" class="node">
<title>Node8</title>
<g id="a_node8"><a xlink:title=" ">
<polygon fill="#e0e0e0" stroke="#999999" points="580,-140 476,-140 476,-110 580,-110 580,-140"/>
<text text-anchor="start" x="484" y="-128" font-family="Helvetica,sans-Serif" font-size="10.00">absl/container/flat</text>
<text text-anchor="middle" x="528" y="-117" font-family="Helvetica,sans-Serif" font-size="10.00">_hash_map.h</text>
</a>
</g>
</g>
<!-- Node6&#45;&gt;Node8 -->
<g id="edge7" class="edge">
<title>Node6&#45;&gt;Node8</title>
<path fill="none" stroke="#63b8ff" d="M417.76,-175.99C435.94,-167.75 464.1,-154.98 487.42,-144.4"/>
<polygon fill="#63b8ff" stroke="#63b8ff" points="489.07,-147.5 496.74,-140.18 486.18,-141.12 489.07,-147.5"/>
</g>
<!-- Node9 -->
<g id="node9" class="node">
<title>Node9</title>
<g id="a_node9"><a xlink:title=" ">
<polygon fill="#e0e0e0" stroke="#999999" points="458,-140 354,-140 354,-110 458,-110 458,-140"/>
<text text-anchor="start" x="362" y="-128" font-family="Helvetica,sans-Serif" font-size="10.00">absl/container/flat</text>
<text text-anchor="middle" x="406" y="-117" font-family="Helvetica,sans-Serif" font-size="10.00">_hash_set.h</text>
</a>
</g>
</g>
<!-- Node6&#45;&gt;Node9 -->
<g id="edge8" class="edge">
<title>Node6&#45;&gt;Node9</title>
<path fill="none" stroke="#63b8ff" d="M400.03,-175.87C400.84,-169.11 402.01,-159.35 403.1,-150.26"/>
<polygon fill="#63b8ff" stroke="#63b8ff" points="406.6,-150.46 404.31,-140.11 399.65,-149.63 406.6,-150.46"/>
</g>
<!-- Node10&#45;&gt;Node5 -->
<g id="edge19" class="edge">
<title>Node10&#45;&gt;Node5</title>
<path fill="none" stroke="#63b8ff" d="M1539.04,-181.01C1603.24,-175.76 1717.7,-163.8 1813,-140 1815.51,-139.37 1818.08,-138.64 1820.64,-137.84"/>
<polygon fill="#63b8ff" stroke="#63b8ff" points="1822.01,-141.07 1830.35,-134.53 1819.75,-134.44 1822.01,-141.07"/>
</g>
<!-- Node11 -->
<g id="node11" class="node">
<title>Node11</title>
<g id="a_node11"><a xlink:title=" ">
<polygon fill="#e0e0e0" stroke="#999999" points="1354,-74 1302,-74 1302,-55 1354,-55 1354,-74"/>
<text text-anchor="middle" x="1328" y="-62" font-family="Helvetica,sans-Serif" font-size="10.00">cassert</text>
</a>
</g>
</g>
<!-- Node10&#45;&gt;Node11 -->
<g id="edge10" class="edge">
<title>Node10&#45;&gt;Node11</title>
<path fill="none" stroke="#63b8ff" d="M1481.97,-175.8C1469.61,-160.92 1442.68,-130.21 1415,-110 1397.43,-97.17 1375.63,-86.02 1358.25,-78.1"/>
<polygon fill="#63b8ff" stroke="#63b8ff" points="1359.66,-74.9 1349.1,-74.04 1356.82,-81.29 1359.66,-74.9"/>
</g>
<!-- Node12 -->
<g id="node12" class="node">
<title>Node12</title>
<g id="a_node12"><a xlink:title=" ">
<polygon fill="#e0e0e0" stroke="#999999" points="1515.5,-134.5 1462.5,-134.5 1462.5,-115.5 1515.5,-115.5 1515.5,-134.5"/>
<text text-anchor="middle" x="1489" y="-122.5" font-family="Helvetica,sans-Serif" font-size="10.00">cstddef</text>
</a>
</g>
</g>
<!-- Node10&#45;&gt;Node12 -->
<g id="edge11" class="edge">
<title>Node10&#45;&gt;Node12</title>
<path fill="none" stroke="#63b8ff" d="M1489,-175.87C1489,-167.75 1489,-155.31 1489,-144.89"/>
<polygon fill="#63b8ff" stroke="#63b8ff" points="1492.5,-144.67 1489,-134.67 1485.5,-144.67 1492.5,-144.67"/>
</g>
<!-- Node13 -->
<g id="node13" class="node">
<title>Node13</title>
<g id="a_node13"><a xlink:title=" ">
<polygon fill="#e0e0e0" stroke="#999999" points="1406,-134.5 1356,-134.5 1356,-115.5 1406,-115.5 1406,-134.5"/>
<text text-anchor="middle" x="1381" y="-122.5" font-family="Helvetica,sans-Serif" font-size="10.00">cstring</text>
</a>
</g>
</g>
<!-- Node10&#45;&gt;Node13 -->
<g id="edge12" class="edge">
<title>Node10&#45;&gt;Node13</title>
<path fill="none" stroke="#63b8ff" d="M1473.06,-175.87C1455.36,-166.28 1426.54,-150.67 1405.86,-139.47"/>
<polygon fill="#63b8ff" stroke="#63b8ff" points="1407.46,-136.35 1397,-134.67 1404.13,-142.51 1407.46,-136.35"/>
</g>
<!-- Node14 -->
<g id="node14" class="node">
<title>Node14</title>
<g id="a_node14"><a xlink:title=" ">
<polygon fill="#e0e0e0" stroke="#999999" points="1598,-134.5 1534,-134.5 1534,-115.5 1598,-115.5 1598,-134.5"/>
<text text-anchor="middle" x="1566" y="-122.5" font-family="Helvetica,sans-Serif" font-size="10.00">algorithm</text>
</a>
</g>
</g>
<!-- Node10&#45;&gt;Node14 -->
<g id="edge13" class="edge">
<title>Node10&#45;&gt;Node14</title>
<path fill="none" stroke="#63b8ff" d="M1500.36,-175.87C1512.42,-166.71 1531.7,-152.06 1546.25,-141.01"/>
<polygon fill="#63b8ff" stroke="#63b8ff" points="1548.75,-143.5 1554.59,-134.67 1544.51,-137.93 1548.75,-143.5"/>
</g>
<!-- Node15 -->
<g id="node15" class="node">
<title>Node15</title>
<g id="a_node15"><a xlink:title=" ">
<polygon fill="#e0e0e0" stroke="#999999" points="1231.5,-134.5 1166.5,-134.5 1166.5,-115.5 1231.5,-115.5 1231.5,-134.5"/>
<text text-anchor="middle" x="1199" y="-122.5" font-family="Helvetica,sans-Serif" font-size="10.00">functional</text>
</a>
</g>
</g>
<!-- Node10&#45;&gt;Node15 -->
<g id="edge14" class="edge">
<title>Node10&#45;&gt;Node15</title>
<path fill="none" stroke="#63b8ff" d="M1438.67,-177.65C1388.24,-170.27 1308.61,-157.24 1241,-140 1238.21,-139.29 1235.33,-138.48 1232.46,-137.63"/>
<polygon fill="#63b8ff" stroke="#63b8ff" points="1233.4,-134.26 1222.81,-134.6 1231.3,-140.94 1233.4,-134.26"/>
</g>
<!-- Node16 -->
<g id="node16" class="node">
<title>Node16</title>
<g id="a_node16"><a xlink:title=" ">
<polygon fill="#e0e0e0" stroke="#999999" points="1699.5,-134.5 1616.5,-134.5 1616.5,-115.5 1699.5,-115.5 1699.5,-134.5"/>
<text text-anchor="middle" x="1658" y="-122.5" font-family="Helvetica,sans-Serif" font-size="10.00">initializer_list</text>
</a>
</g>
</g>
<!-- Node10&#45;&gt;Node16 -->
<g id="edge15" class="edge">
<title>Node10&#45;&gt;Node16</title>
<path fill="none" stroke="#63b8ff" d="M1513.57,-175.99C1542.61,-165.94 1591.1,-149.16 1623.8,-137.84"/>
<polygon fill="#63b8ff" stroke="#63b8ff" points="1625.09,-141.1 1633.4,-134.52 1622.8,-134.48 1625.09,-141.1"/>
</g>
<!-- Node17 -->
<g id="node17" class="node">
<title>Node17</title>
<g id="a_node17"><a xlink:title=" ">
<polygon fill="#e0e0e0" stroke="#999999" points="1770.5,-134.5 1717.5,-134.5 1717.5,-115.5 1770.5,-115.5 1770.5,-134.5"/>
<text text-anchor="middle" x="1744" y="-122.5" font-family="Helvetica,sans-Serif" font-size="10.00">iterator</text>
</a>
</g>
</g>
<!-- Node10&#45;&gt;Node17 -->
<g id="edge16" class="edge">
<title>Node10&#45;&gt;Node17</title>
<path fill="none" stroke="#63b8ff" d="M1539.44,-176.97C1584.45,-169.62 1651.87,-157.05 1709,-140 1710.88,-139.44 1712.8,-138.82 1714.73,-138.16"/>
<polygon fill="#63b8ff" stroke="#63b8ff" points="1716.07,-141.39 1724.23,-134.63 1713.64,-134.83 1716.07,-141.39"/>
</g>
<!-- Node18 -->
<g id="node18" class="node">
<title>Node18</title>
<g id="a_node18"><a xlink:title=" ">
<polygon fill="#e0e0e0" stroke="#999999" points="1300,-134.5 1250,-134.5 1250,-115.5 1300,-115.5 1300,-134.5"/>
<text text-anchor="middle" x="1275" y="-122.5" font-family="Helvetica,sans-Serif" font-size="10.00">ranges</text>
</a>
</g>
</g>
<!-- Node10&#45;&gt;Node18 -->
<g id="edge17" class="edge">
<title>Node10&#45;&gt;Node18</title>
<path fill="none" stroke="#63b8ff" d="M1457.88,-175.99C1418.56,-165.24 1351.05,-146.79 1309.98,-135.56"/>
<polygon fill="#63b8ff" stroke="#63b8ff" points="1310.71,-132.13 1300.14,-132.87 1308.86,-138.89 1310.71,-132.13"/>
</g>
<!-- Node19 -->
<g id="node19" class="node">
<title>Node19</title>
<g id="a_node19"><a xlink:title=" ">
<polygon fill="#e0e0e0" stroke="#999999" points="1511.5,-19 1442.5,-19 1442.5,0 1511.5,0 1511.5,-19"/>
<text text-anchor="middle" x="1477" y="-7" font-family="Helvetica,sans-Serif" font-size="10.00">type_traits</text>
</a>
</g>
</g>
<!-- Node10&#45;&gt;Node19 -->
<g id="edge18" class="edge">
<title>Node10&#45;&gt;Node19</title>
<path fill="none" stroke="#63b8ff" d="M1539.06,-176.76C1540.73,-176.5 1542.38,-176.25 1544,-176 1596.44,-167.95 1745.43,-180.24 1780,-140 1855.25,-52.41 1623.44,-22.43 1522.03,-13.67"/>
<polygon fill="#63b8ff" stroke="#63b8ff" points="1522.02,-10.16 1511.77,-12.82 1521.44,-17.14 1522.02,-10.16"/>
</g>
<!-- Node20&#45;&gt;Node11 -->
<g id="edge21" class="edge">
<title>Node20&#45;&gt;Node11</title>
<path fill="none" stroke="#63b8ff" d="M1328,-175.94C1328,-156.91 1328,-110.69 1328,-84.47"/>
<polygon fill="#63b8ff" stroke="#63b8ff" points="1331.5,-84.3 1328,-74.3 1324.5,-84.3 1331.5,-84.3"/>
</g>
<!-- Node20&#45;&gt;Node13 -->
<g id="edge22" class="edge">
<title>Node20&#45;&gt;Node13</title>
<path fill="none" stroke="#63b8ff" d="M1335.82,-175.87C1343.81,-167.05 1356.39,-153.16 1366.26,-142.27"/>
<polygon fill="#63b8ff" stroke="#63b8ff" points="1369.03,-144.43 1373.15,-134.67 1363.84,-139.73 1369.03,-144.43"/>
</g>
<!-- Node21&#45;&gt;Node8 -->
<g id="edge26" class="edge">
<title>Node21&#45;&gt;Node8</title>
<path fill="none" stroke="#63b8ff" d="M585.11,-175.87C576.36,-168.22 563.23,-156.76 551.76,-146.75"/>
<polygon fill="#63b8ff" stroke="#63b8ff" points="554,-144.06 544.17,-140.11 549.4,-149.33 554,-144.06"/>
</g>
<!-- Node21&#45;&gt;Node9 -->
<g id="edge27" class="edge">
<title>Node21&#45;&gt;Node9</title>
<path fill="none" stroke="#63b8ff" d="M567.52,-175.99C539.72,-167.39 495.99,-153.86 461.04,-143.04"/>
<polygon fill="#63b8ff" stroke="#63b8ff" points="462.03,-139.68 451.44,-140.06 459.96,-146.36 462.03,-139.68"/>
</g>
<!-- Node22 -->
<g id="node22" class="node">
<title>Node22</title>
<g id="a_node22"><a xlink:title=" ">
<polygon fill="#e0e0e0" stroke="#999999" points="645.5,-134.5 598.5,-134.5 598.5,-115.5 645.5,-115.5 645.5,-134.5"/>
<text text-anchor="middle" x="622" y="-122.5" font-family="Helvetica,sans-Serif" font-size="10.00">queue</text>
</a>
</g>
</g>
<!-- Node21&#45;&gt;Node22 -->
<g id="edge24" class="edge">
<title>Node21&#45;&gt;Node22</title>
<path fill="none" stroke="#63b8ff" d="M598.98,-175.87C602.85,-167.49 608.84,-154.51 613.74,-143.89"/>
<polygon fill="#63b8ff" stroke="#63b8ff" points="616.99,-145.21 618,-134.67 610.63,-142.28 616.99,-145.21"/>
</g>
<!-- Node23 -->
<g id="node23" class="node">
<title>Node23</title>
<g id="a_node23"><a xlink:title=" ">
<polygon fill="#e0e0e0" stroke="#999999" points="117.5,-134.5 74.5,-134.5 74.5,-115.5 117.5,-115.5 117.5,-134.5"/>
<text text-anchor="middle" x="96" y="-122.5" font-family="Helvetica,sans-Serif" font-size="10.00">stack</text>
</a>
</g>
</g>
<!-- Node21&#45;&gt;Node23 -->
<g id="edge25" class="edge">
<title>Node21&#45;&gt;Node23</title>
<path fill="none" stroke="#63b8ff" d="M534.23,-180.08C450.73,-173.58 295.95,-160.01 165,-140 152.66,-138.11 139.19,-135.51 127.45,-133.05"/>
<polygon fill="#63b8ff" stroke="#63b8ff" points="128.17,-129.63 117.66,-130.96 126.7,-136.47 128.17,-129.63"/>
</g>
<!-- Node24 -->
<g id="node24" class="node">
<title>Node24</title>
<g id="a_node24"><a xlink:title=" ">
<polygon fill="#e0e0e0" stroke="#999999" points="776.5,-140 663.5,-140 663.5,-110 776.5,-110 776.5,-140"/>
<text text-anchor="start" x="671.5" y="-128" font-family="Helvetica,sans-Serif" font-size="10.00">absl/container/node</text>
<text text-anchor="middle" x="720" y="-117" font-family="Helvetica,sans-Serif" font-size="10.00">_hash_map.h</text>
</a>
</g>
</g>
<!-- Node21&#45;&gt;Node24 -->
<g id="edge28" class="edge">
<title>Node21&#45;&gt;Node24</title>
<path fill="none" stroke="#63b8ff" d="M613.18,-175.99C630.71,-167.79 657.84,-155.09 680.37,-144.55"/>
<polygon fill="#63b8ff" stroke="#63b8ff" points="682.13,-147.59 689.71,-140.18 679.17,-141.25 682.13,-147.59"/>
</g>
<!-- Node25 -->
<g id="node25" class="node">
<title>Node25</title>
<g id="a_node25"><a xlink:title=" ">
<polygon fill="#e0e0e0" stroke="#999999" points="907.5,-140 794.5,-140 794.5,-110 907.5,-110 907.5,-140"/>
<text text-anchor="start" x="802.5" y="-128" font-family="Helvetica,sans-Serif" font-size="10.00">absl/container/node</text>
<text text-anchor="middle" x="851" y="-117" font-family="Helvetica,sans-Serif" font-size="10.00">_hash_set.h</text>
</a>
</g>
</g>
<!-- Node21&#45;&gt;Node25 -->
<g id="edge29" class="edge">
<title>Node21&#45;&gt;Node25</title>
<path fill="none" stroke="#63b8ff" d="M632.22,-175.99C672.05,-166.89 736.04,-152.27 784.55,-141.18"/>
<polygon fill="#63b8ff" stroke="#63b8ff" points="785.37,-144.59 794.34,-138.95 783.81,-137.76 785.37,-144.59"/>
</g>
<!-- Node21&#45;&gt;Node26 -->
<g id="edge30" class="edge">
<title>Node21&#45;&gt;Node26</title>
<path fill="none" stroke="#63b8ff" d="M542.16,-175.99C491.44,-167.61 412.77,-154.06 345,-140 340.29,-139.02 335.38,-137.95 330.49,-136.84"/>
<polygon fill="#63b8ff" stroke="#63b8ff" points="331.09,-133.39 320.56,-134.55 329.51,-140.21 331.09,-133.39"/>
</g>
<!-- Node27 -->
<g id="node27" class="node">
<title>Node27</title>
<g id="a_node27"><a xlink:href="types_8h.html" target="_top" xlink:title=" ">
<polygon fill="#fff0f0" stroke="red" points="1067.5,-74 964.5,-74 964.5,-55 1067.5,-55 1067.5,-74"/>
<text text-anchor="middle" x="1016" y="-62" font-family="Helvetica,sans-Serif" font-size="10.00">thorin/util/types.h</text>
</a>
</g>
</g>
<!-- Node26&#45;&gt;Node27 -->
<g id="edge31" class="edge">
<title>Node26&#45;&gt;Node27</title>
<path fill="none" stroke="#63b8ff" d="M317.65,-115.46C326.45,-113.37 336.05,-111.35 345,-110 567.44,-76.47 835.17,-68.21 953.99,-66.17"/>
<polygon fill="#63b8ff" stroke="#63b8ff" points="954.39,-69.66 964.33,-66 954.28,-62.66 954.39,-69.66"/>
</g>
<!-- Node27&#45;&gt;Node19 -->
<g id="edge35" class="edge">
<title>Node27&#45;&gt;Node19</title>
<path fill="none" stroke="#63b8ff" d="M1067.54,-57.57C1158.64,-47.1 1346.59,-25.49 1432.45,-15.62"/>
<polygon fill="#63b8ff" stroke="#63b8ff" points="1432.87,-19.1 1442.4,-14.48 1432.07,-12.14 1432.87,-19.1"/>
</g>
<!-- Node28 -->
<g id="node28" class="node">
<title>Node28</title>
<g id="a_node28"><a xlink:title=" ">
<polygon fill="#e0e0e0" stroke="#999999" points="1103,-19 1053,-19 1053,0 1103,0 1103,-19"/>
<text text-anchor="middle" x="1078" y="-7" font-family="Helvetica,sans-Serif" font-size="10.00">cstdint</text>
</a>
</g>
</g>
<!-- Node27&#45;&gt;Node28 -->
<g id="edge32" class="edge">
<title>Node27&#45;&gt;Node28</title>
<path fill="none" stroke="#63b8ff" d="M1025.96,-54.98C1035.13,-47.15 1048.94,-35.34 1060.03,-25.86"/>
<polygon fill="#63b8ff" stroke="#63b8ff" points="1062.53,-28.33 1067.86,-19.17 1057.98,-23.01 1062.53,-28.33"/>
</g>
<!-- Node29 -->
<g id="node29" class="node">
<title>Node29</title>
<g id="a_node29"><a xlink:title=" ">
<polygon fill="#e0e0e0" stroke="#999999" points="1035,-19 991,-19 991,0 1035,0 1035,-19"/>
<text text-anchor="middle" x="1013" y="-7" font-family="Helvetica,sans-Serif" font-size="10.00">limits</text>
</a>
</g>
</g>
<!-- Node27&#45;&gt;Node29 -->
<g id="edge33" class="edge">
<title>Node27&#45;&gt;Node29</title>
<path fill="none" stroke="#63b8ff" d="M1015.5,-54.75C1015.11,-47.8 1014.55,-37.85 1014.05,-29.13"/>
<polygon fill="#63b8ff" stroke="#63b8ff" points="1017.55,-28.88 1013.49,-19.09 1010.56,-29.27 1017.55,-28.88"/>
</g>
<!-- Node30 -->
<g id="node30" class="node">
<title>Node30</title>
<g id="a_node30"><a xlink:title=" ">
<polygon fill="#e0e0e0" stroke="#999999" points="969.5,-19 912.5,-19 912.5,0 969.5,0 969.5,-19"/>
<text text-anchor="middle" x="941" y="-7" font-family="Helvetica,sans-Serif" font-size="10.00">ostream</text>
</a>
</g>
</g>
<!-- Node27&#45;&gt;Node30 -->
<g id="edge34" class="edge">
<title>Node27&#45;&gt;Node30</title>
<path fill="none" stroke="#63b8ff" d="M1003.95,-54.98C992.54,-46.92 975.17,-34.65 961.57,-25.03"/>
<polygon fill="#63b8ff" stroke="#63b8ff" points="963.46,-22.08 953.27,-19.17 959.42,-27.8 963.46,-22.08"/>
</g>
<!-- Node33&#45;&gt;Node7 -->
<g id="edge43" class="edge">
<title>Node33&#45;&gt;Node7</title>
<path fill="none" stroke="#63b8ff" d="M879.75,-182.4C730.54,-175.91 289.85,-155.63 227,-140 225.27,-139.57 223.51,-139.04 221.76,-138.45"/>
<polygon fill="#63b8ff" stroke="#63b8ff" points="222.6,-135.02 212.01,-134.55 220,-141.52 222.6,-135.02"/>
</g>
<!-- Node33&#45;&gt;Node15 -->
<g id="edge38" class="edge">
<title>Node33&#45;&gt;Node15</title>
<path fill="none" stroke="#63b8ff" d="M978.34,-176.76C1024.8,-169.03 1096.16,-156.01 1157,-140 1159.79,-139.27 1162.66,-138.45 1165.53,-137.58"/>
<polygon fill="#63b8ff" stroke="#63b8ff" points="1166.69,-140.89 1175.17,-134.53 1164.58,-134.21 1166.69,-140.89"/>
</g>
<!-- Node33&#45;&gt;Node18 -->
<g id="edge41" class="edge">
<title>Node33&#45;&gt;Node18</title>
<path fill="none" stroke="#63b8ff" d="M978.05,-177.3C981.08,-176.86 984.08,-176.42 987,-176 1099.41,-159.77 1130.27,-169.3 1240,-140 1242.16,-139.42 1244.36,-138.75 1246.56,-138.02"/>
<polygon fill="#63b8ff" stroke="#63b8ff" points="1247.84,-141.28 1256.02,-134.55 1245.43,-134.71 1247.84,-141.28"/>
</g>
<!-- Node33&#45;&gt;Node30 -->
<g id="edge40" class="edge">
<title>Node33&#45;&gt;Node30</title>
<path fill="none" stroke="#63b8ff" d="M929.61,-175.63C931.48,-148.52 937.15,-66.32 939.72,-29.13"/>
<polygon fill="#63b8ff" stroke="#63b8ff" points="943.21,-29.36 940.4,-19.14 936.22,-28.88 943.21,-29.36"/>
</g>
<!-- Node33&#45;&gt;Node34 -->
<g id="edge39" class="edge">
<title>Node33&#45;&gt;Node34</title>
<path fill="none" stroke="#63b8ff" d="M959.61,-175.97C990.03,-167.35 1037.96,-153.44 1079,-140 1081.11,-139.31 1083.28,-138.58 1085.46,-137.83"/>
<polygon fill="#63b8ff" stroke="#63b8ff" points="1086.69,-141.11 1094.98,-134.51 1084.38,-134.5 1086.69,-141.11"/>
</g>
<!-- Node35 -->
<g id="node33" class="node">
<title>Node35</title>
<g id="a_node33"><a xlink:title=" ">
<polygon fill="#e0e0e0" stroke="#999999" points="56,-134.5 0,-134.5 0,-115.5 56,-115.5 56,-134.5"/>
<text text-anchor="middle" x="28" y="-122.5" font-family="Helvetica,sans-Serif" font-size="10.00">sstream</text>
</a>
</g>
</g>
<!-- Node33&#45;&gt;Node35 -->
<g id="edge42" class="edge">
<title>Node33&#45;&gt;Node35</title>
<path fill="none" stroke="#63b8ff" d="M879.92,-182.86C708.8,-177.02 144.66,-156.7 65,-140 62.32,-139.44 59.58,-138.71 56.86,-137.89"/>
<polygon fill="#63b8ff" stroke="#63b8ff" points="57.84,-134.52 47.25,-134.57 55.56,-141.14 57.84,-134.52"/>
</g>
<!-- Node36 -->
<g id="node34" class="node">
<title>Node36</title>
<g id="a_node34"><a xlink:href="assert_8h.html" target="_top" xlink:title=" ">
<polygon fill="white" stroke="#666666" points="1070,-134.5 964,-134.5 964,-115.5 1070,-115.5 1070,-134.5"/>
<text text-anchor="middle" x="1017" y="-122.5" font-family="Helvetica,sans-Serif" font-size="10.00">thorin/util/assert.h</text>
</a>
</g>
</g>
<!-- Node33&#45;&gt;Node36 -->
<g id="edge44" class="edge">
<title>Node33&#45;&gt;Node36</title>
<path fill="none" stroke="#63b8ff" d="M941.98,-175.87C956.02,-166.54 978.63,-151.51 995.36,-140.38"/>
<polygon fill="#63b8ff" stroke="#63b8ff" points="997.57,-143.12 1003.96,-134.67 993.7,-137.29 997.57,-143.12"/>
</g>
<!-- Node36&#45;&gt;Node11 -->
<g id="edge45" class="edge">
<title>Node36&#45;&gt;Node11</title>
<path fill="none" stroke="#63b8ff" d="M1053.66,-115.43C1061.98,-113.57 1070.78,-111.66 1079,-110 1154.39,-94.76 1243.18,-79.54 1291.74,-71.45"/>
<polygon fill="#63b8ff" stroke="#63b8ff" points="1292.46,-74.88 1301.76,-69.79 1291.32,-67.97 1292.46,-74.88"/>
</g>
<!-- Node37&#45;&gt;Node23 -->
<g id="edge47" class="edge">
<title>Node37&#45;&gt;Node23</title>
<path fill="none" stroke="#63b8ff" d="M330.15,-464.64C231.68,-452.26 30,-419.28 30,-357 30,-357 30,-357 30,-294.5 30,-235.79 65.17,-173 84.16,-143.38"/>
<polygon fill="#63b8ff" stroke="#63b8ff" points="87.33,-144.93 89.91,-134.66 81.48,-141.08 87.33,-144.93"/>
</g>
<!-- Node38 -->
<g id="node36" class="node">
<title>Node38</title>
<g id="a_node36"><a xlink:title=" ">
<polygon fill="#e0e0e0" stroke="#999999" points="368.5,-426 303.5,-426 303.5,-407 368.5,-407 368.5,-426"/>
<text text-anchor="middle" x="336" y="-414" font-family="Helvetica,sans-Serif" font-size="10.00">typeindex</text>
</a>
</g>
</g>
<!-- Node37&#45;&gt;Node38 -->
<g id="edge48" class="edge">
<title>Node37&#45;&gt;Node38</title>
<path fill="none" stroke="#63b8ff" d="M375.24,-461.75C368.53,-454.18 358.66,-443.05 350.49,-433.84"/>
<polygon fill="#63b8ff" stroke="#63b8ff" points="352.87,-431.25 343.62,-426.09 347.63,-435.89 352.87,-431.25"/>
</g>
<!-- Node39 -->
<g id="node37" class="node">
<title>Node39</title>
<g id="a_node37"><a xlink:href="world_8h.html" target="_top" xlink:title=" ">
<polygon fill="white" stroke="#666666" points="471,-426 387,-426 387,-407 471,-407 471,-426"/>
<text text-anchor="middle" x="429" y="-414" font-family="Helvetica,sans-Serif" font-size="10.00">thorin/world.h</text>
</a>
</g>
</g>
<!-- Node37&#45;&gt;Node39 -->
<g id="edge49" class="edge">
<title>Node37&#45;&gt;Node39</title>
<path fill="none" stroke="#63b8ff" d="M390.6,-461.75C397.16,-454.18 406.82,-443.05 414.81,-433.84"/>
<polygon fill="#63b8ff" stroke="#63b8ff" points="417.63,-435.94 421.55,-426.09 412.35,-431.35 417.63,-435.94"/>
</g>
<!-- Node39&#45;&gt;Node6 -->
<g id="edge63" class="edge">
<title>Node39&#45;&gt;Node6</title>
<path fill="none" stroke="#63b8ff" d="M408.64,-406.94C393.82,-399.61 374.58,-387.61 364,-371 334.72,-325.03 348.46,-304.32 344,-250 343.31,-241.58 340.36,-238.62 344,-231 350.09,-218.23 361.84,-207.94 372.92,-200.49"/>
<polygon fill="#63b8ff" stroke="#63b8ff" points="374.9,-203.38 381.54,-195.12 371.2,-197.43 374.9,-203.38"/>
</g>
<!-- Node39&#45;&gt;Node7 -->
<g id="edge51" class="edge">
<title>Node39&#45;&gt;Node7</title>
<path fill="none" stroke="#63b8ff" d="M386.99,-408.55C325.1,-398.13 214.89,-378.86 198,-371 150.3,-348.8 106,-349.11 106,-296.5 106,-296.5 106,-296.5 106,-239.5 106,-196.12 146.86,-159.67 173.52,-140.5"/>
<polygon fill="#63b8ff" stroke="#63b8ff" points="175.7,-143.25 181.94,-134.68 171.72,-137.49 175.7,-143.25"/>
</g>
<!-- Node39&#45;&gt;Node26 -->
<g id="edge74" class="edge">
<title>Node39&#45;&gt;Node26</title>
<path fill="none" stroke="#63b8ff" d="M386.86,-407.55C342.6,-398.71 276.37,-383.98 254,-371 214.17,-347.89 182,-342.55 182,-296.5 182,-296.5 182,-296.5 182,-239.5 182,-193.48 229.05,-158.02 259.86,-139.73"/>
<polygon fill="#63b8ff" stroke="#63b8ff" points="261.87,-142.61 268.83,-134.62 258.41,-136.53 261.87,-142.61"/>
</g>
<!-- Node39&#45;&gt;Node35 -->
<g id="edge50" class="edge">
<title>Node39&#45;&gt;Node35</title>
<path fill="none" stroke="#63b8ff" d="M386.73,-408.52C383.44,-408 380.16,-407.48 377,-407 321.08,-398.44 169.41,-406.03 125,-371 51.67,-313.16 33.61,-191.75 29.3,-144.95"/>
<polygon fill="#63b8ff" stroke="#63b8ff" points="32.79,-144.66 28.49,-134.98 25.81,-145.23 32.79,-144.66"/>
</g>
<!-- Node40 -->
<g id="node38" class="node">
<title>Node40</title>
<g id="a_node38"><a xlink:title=" ">
<polygon fill="#e0e0e0" stroke="#999999" points="465.5,-365.5 392.5,-365.5 392.5,-346.5 465.5,-346.5 465.5,-365.5"/>
<text text-anchor="middle" x="429" y="-353.5" font-family="Helvetica,sans-Serif" font-size="10.00">string_view</text>
</a>
</g>
</g>
<!-- Node39&#45;&gt;Node40 -->
<g id="edge52" class="edge">
<title>Node39&#45;&gt;Node40</title>
<path fill="none" stroke="#63b8ff" d="M429,-406.87C429,-398.75 429,-386.31 429,-375.89"/>
<polygon fill="#63b8ff" stroke="#63b8ff" points="432.5,-375.67 429,-365.67 425.5,-375.67 432.5,-375.67"/>
</g>
<!-- Node41 -->
<g id="node39" class="node">
<title>Node41</title>
<g id="a_node39"><a xlink:title=" ">
<polygon fill="#e0e0e0" stroke="#999999" points="598,-371 484,-371 484,-341 598,-341 598,-371"/>
<text text-anchor="start" x="492" y="-359" font-family="Helvetica,sans-Serif" font-size="10.00">absl/container/btree</text>
<text text-anchor="middle" x="541" y="-348" font-family="Helvetica,sans-Serif" font-size="10.00">_map.h</text>
</a>
</g>
</g>
<!-- Node39&#45;&gt;Node41 -->
<g id="edge53" class="edge">
<title>Node39&#45;&gt;Node41</title>
<path fill="none" stroke="#63b8ff" d="M445.53,-406.87C461.15,-398.71 485.1,-386.2 505.11,-375.75"/>
<polygon fill="#63b8ff" stroke="#63b8ff" points="506.73,-378.85 513.98,-371.11 503.49,-372.64 506.73,-378.85"/>
</g>
<!-- Node42 -->
<g id="node40" class="node">
<title>Node42</title>
<g id="a_node40"><a xlink:title=" ">
<polygon fill="#e0e0e0" stroke="#999999" points="730,-371 616,-371 616,-341 730,-341 730,-371"/>
<text text-anchor="start" x="624" y="-359" font-family="Helvetica,sans-Serif" font-size="10.00">absl/container/btree</text>
<text text-anchor="middle" x="673" y="-348" font-family="Helvetica,sans-Serif" font-size="10.00">_set.h</text>
</a>
</g>
</g>
<!-- Node39&#45;&gt;Node42 -->
<g id="edge54" class="edge">
<title>Node39&#45;&gt;Node42</title>
<path fill="none" stroke="#63b8ff" d="M464.48,-406.99C501.42,-398.14 560.17,-384.05 605.91,-373.09"/>
<polygon fill="#63b8ff" stroke="#63b8ff" points="606.84,-376.46 615.75,-370.73 605.21,-369.65 606.84,-376.46"/>
</g>
<!-- Node43 -->
<g id="node41" class="node">
<title>Node43</title>
<g id="a_node41"><a xlink:href="axiom_8h.html" target="_top" xlink:title=" ">
<polygon fill="white" stroke="#666666" points="1152,-365.5 1064,-365.5 1064,-346.5 1152,-346.5 1152,-365.5"/>
<text text-anchor="middle" x="1108" y="-353.5" font-family="Helvetica,sans-Serif" font-size="10.00">thorin/axiom.h</text>
</a>
</g>
</g>
<!-- Node39&#45;&gt;Node43 -->
<g id="edge55" class="edge">
<title>Node39&#45;&gt;Node43</title>
<path fill="none" stroke="#63b8ff" d="M471.16,-413.28C567.28,-407.99 809.97,-393.42 1012,-371 1025.47,-369.51 1039.96,-367.57 1053.5,-365.61"/>
<polygon fill="#63b8ff" stroke="#63b8ff" points="1054.25,-369.04 1063.63,-364.12 1053.23,-362.11 1054.25,-369.04"/>
</g>
<!-- Node46 -->
<g id="node44" class="node">
<title>Node46</title>
<g id="a_node44"><a xlink:href="check_8h.html" target="_top" xlink:title=" ">
<polygon fill="#fff0f0" stroke="red" points="908,-305 822,-305 822,-286 908,-286 908,-305"/>
<text text-anchor="middle" x="865" y="-293" font-family="Helvetica,sans-Serif" font-size="10.00">thorin/check.h</text>
</a>
</g>
</g>
<!-- Node39&#45;&gt;Node46 -->
<g id="edge60" class="edge">
<title>Node39&#45;&gt;Node46</title>
<path fill="none" stroke="#63b8ff" d="M471.25,-415.03C588.17,-413.28 909.49,-405.36 941,-371 950.01,-361.17 947.63,-352.57 941,-341 932.64,-326.42 917.45,-316.16 902.83,-309.19"/>
<polygon fill="#63b8ff" stroke="#63b8ff" points="903.95,-305.86 893.39,-305.08 901.16,-312.28 903.95,-305.86"/>
</g>
<!-- Node48 -->
<g id="node45" class="node">
<title>Node48</title>
<g id="a_node45"><a xlink:title=" ">
<polygon fill="#e0e0e0" stroke="#999999" points="834,-365.5 748,-365.5 748,-346.5 834,-346.5 834,-365.5"/>
<text text-anchor="middle" x="791" y="-353.5" font-family="Helvetica,sans-Serif" font-size="10.00">thorin/config.h</text>
</a>
</g>
</g>
<!-- Node39&#45;&gt;Node48 -->
<g id="edge62" class="edge">
<title>Node39&#45;&gt;Node48</title>
<path fill="none" stroke="#63b8ff" d="M471.15,-411.08C531.04,-404.43 644.07,-390.52 739,-371 743.17,-370.14 747.51,-369.15 751.81,-368.09"/>
<polygon fill="#63b8ff" stroke="#63b8ff" points="752.91,-371.42 761.72,-365.54 751.17,-364.64 752.91,-371.42"/>
</g>
<!-- Node49 -->
<g id="node46" class="node">
<title>Node49</title>
<g id="a_node46"><a xlink:href="error_8h.html" target="_top" xlink:title=" ">
<polygon fill="#fff0f0" stroke="red" points="290,-250 210,-250 210,-231 290,-231 290,-250"/>
<text text-anchor="middle" x="250" y="-238" font-family="Helvetica,sans-Serif" font-size="10.00">thorin/error.h</text>
</a>
</g>
</g>
<!-- Node39&#45;&gt;Node49 -->
<g id="edge64" class="edge">
<title>Node39&#45;&gt;Node49</title>
<path fill="none" stroke="#63b8ff" d="M386.69,-408.49C346.19,-400.9 289.1,-387.63 274,-371 246.16,-340.34 245.7,-288.24 247.81,-260.39"/>
<polygon fill="#63b8ff" stroke="#63b8ff" points="251.33,-260.35 248.8,-250.07 244.36,-259.69 251.33,-260.35"/>
</g>
<!-- Node51 -->
<g id="node47" class="node">
<title>Node51</title>
<g id="a_node47"><a xlink:href="flags_8h.html" target="_top" xlink:title=" ">
<polygon fill="white" stroke="#666666" points="932,-365.5 852,-365.5 852,-346.5 932,-346.5 932,-365.5"/>
<text text-anchor="middle" x="892" y="-353.5" font-family="Helvetica,sans-Serif" font-size="10.00">thorin/flags.h</text>
</a>
</g>
</g>
<!-- Node39&#45;&gt;Node51 -->
<g id="edge69" class="edge">
<title>Node39&#45;&gt;Node51</title>
<path fill="none" stroke="#63b8ff" d="M471.08,-413.36C546.3,-409.01 708.55,-397.23 843,-371 847.1,-370.2 851.36,-369.22 855.58,-368.15"/>
<polygon fill="#63b8ff" stroke="#63b8ff" points="856.5,-371.52 865.24,-365.54 854.68,-364.77 856.5,-371.52"/>
</g>
<!-- Node52 -->
<g id="node48" class="node">
<title>Node52</title>
<g id="a_node48"><a xlink:href="lattice_8h.html" target="_top" xlink:title=" ">
<polygon fill="white" stroke="#666666" points="623,-305 535,-305 535,-286 623,-286 623,-305"/>
<text text-anchor="middle" x="579" y="-293" font-family="Helvetica,sans-Serif" font-size="10.00">thorin/lattice.h</text>
</a>
</g>
</g>
<!-- Node39&#45;&gt;Node52 -->
<g id="edge70" class="edge">
<title>Node39&#45;&gt;Node52</title>
<path fill="none" stroke="#63b8ff" d="M416.61,-406.79C397.64,-392.41 365.36,-363.1 383,-341 400.45,-319.14 472.91,-307.21 524.63,-301.34"/>
<polygon fill="#63b8ff" stroke="#63b8ff" points="525.12,-304.81 534.68,-300.25 524.36,-297.85 525.12,-304.81"/>
</g>
<!-- Node53 -->
<g id="node49" class="node">
<title>Node53</title>
<g id="a_node49"><a xlink:href="tuple_8h.html" target="_top" xlink:title=" ">
<polygon fill="white" stroke="#666666" points="1008,-305 926,-305 926,-286 1008,-286 1008,-305"/>
<text text-anchor="middle" x="967" y="-293" font-family="Helvetica,sans-Serif" font-size="10.00">thorin/tuple.h</text>
</a>
</g>
</g>
<!-- Node39&#45;&gt;Node53 -->
<g id="edge72" class="edge">
<title>Node39&#45;&gt;Node53</title>
<path fill="none" stroke="#63b8ff" d="M471.15,-414.95C590.31,-413 923.21,-404.55 958,-371 972.69,-356.83 972.77,-332.1 970.62,-315.04"/>
<polygon fill="#63b8ff" stroke="#63b8ff" points="974.07,-314.44 969.02,-305.13 967.16,-315.56 974.07,-314.44"/>
</g>
<!-- Node54 -->
<g id="node50" class="node">
<title>Node54</title>
<g id="a_node50"><a xlink:href="log_8h.html" target="_top" xlink:title=" ">
<polygon fill="white" stroke="#666666" points="444.5,-250 353.5,-250 353.5,-231 444.5,-231 444.5,-250"/>
<text text-anchor="middle" x="399" y="-238" font-family="Helvetica,sans-Serif" font-size="10.00">thorin/util/log.h</text>
</a>
</g>
</g>
<!-- Node39&#45;&gt;Node54 -->
<g id="edge75" class="edge">
<title>Node39&#45;&gt;Node54</title>
<path fill="none" stroke="#63b8ff" d="M411.54,-406.88C398.53,-399.38 381.72,-387.18 374,-371 356.24,-333.78 375.84,-284.84 389.03,-259.09"/>
<polygon fill="#63b8ff" stroke="#63b8ff" points="392.18,-260.61 393.83,-250.14 386.02,-257.29 392.18,-260.61"/>
</g>
<!-- Node43&#45;&gt;Node36 -->
<g id="edge59" class="edge">
<title>Node43&#45;&gt;Node36</title>
<path fill="none" stroke="#63b8ff" d="M1106.29,-346.38C1099.97,-314.98 1077.46,-206.91 1061,-176 1054.12,-163.08 1043.29,-150.72 1034.1,-141.51"/>
<polygon fill="#63b8ff" stroke="#63b8ff" points="1036.52,-138.99 1026.88,-134.59 1031.67,-144.04 1036.52,-138.99"/>
</g>
<!-- Node43&#45;&gt;Node44 -->
<g id="edge56" class="edge">
<title>Node43&#45;&gt;Node44</title>
<path fill="none" stroke="#63b8ff" d="M1113.61,-346.37C1119.16,-337.81 1127.83,-324.47 1134.8,-313.74"/>
<polygon fill="#63b8ff" stroke="#63b8ff" points="1137.86,-315.46 1140.37,-305.17 1131.99,-311.65 1137.86,-315.46"/>
</g>
<!-- Node44&#45;&gt;Node3 -->
<g id="edge58" class="edge">
<title>Node44&#45;&gt;Node3</title>
<path fill="none" stroke="#63b8ff" d="M1117.24,-285.98C1087.06,-277.05 1039.43,-262.94 1005.9,-253.02"/>
<polygon fill="#63b8ff" stroke="#63b8ff" points="1006.57,-249.57 995.98,-250.08 1004.58,-256.28 1006.57,-249.57"/>
</g>
<!-- Node45 -->
<g id="node43" class="node">
<title>Node45</title>
<g id="a_node43"><a xlink:title=" ">
<polygon fill="#e0e0e0" stroke="#999999" points="1171.5,-250 1120.5,-250 1120.5,-231 1171.5,-231 1171.5,-250"/>
<text text-anchor="middle" x="1146" y="-238" font-family="Helvetica,sans-Serif" font-size="10.00">variant</text>
</a>
</g>
</g>
<!-- Node44&#45;&gt;Node45 -->
<g id="edge57" class="edge">
<title>Node44&#45;&gt;Node45</title>
<path fill="none" stroke="#63b8ff" d="M1146,-285.75C1146,-278.8 1146,-268.85 1146,-260.13"/>
<polygon fill="#63b8ff" stroke="#63b8ff" points="1149.5,-260.09 1146,-250.09 1142.5,-260.09 1149.5,-260.09"/>
</g>
<!-- Node46&#45;&gt;Node3 -->
<g id="edge61" class="edge">
<title>Node46&#45;&gt;Node3</title>
<path fill="none" stroke="#63b8ff" d="M881.39,-285.98C897.57,-277.57 922.57,-264.59 941.38,-254.81"/>
<polygon fill="#63b8ff" stroke="#63b8ff" points="943.05,-257.89 950.31,-250.17 939.83,-251.68 943.05,-257.89"/>
</g>
<!-- Node49&#45;&gt;Node6 -->
<g id="edge66" class="edge">
<title>Node49&#45;&gt;Node6</title>
<path fill="none" stroke="#63b8ff" d="M273.94,-230.98C298.56,-222.23 337.12,-208.51 364.92,-198.62"/>
<polygon fill="#63b8ff" stroke="#63b8ff" points="366.38,-201.82 374.62,-195.17 364.03,-195.22 366.38,-201.82"/>
</g>
<!-- Node49&#45;&gt;Node27 -->
<g id="edge68" class="edge">
<title>Node49&#45;&gt;Node27</title>
<path fill="none" stroke="#63b8ff" d="M236.7,-230.89C204.38,-208.97 127.05,-149.99 165,-110 192.11,-81.43 763,-69.6 954.22,-66.43"/>
<polygon fill="#63b8ff" stroke="#63b8ff" points="954.44,-69.93 964.38,-66.26 954.32,-62.93 954.44,-69.93"/>
</g>
<!-- Node49&#45;&gt;Node33 -->
<g id="edge67" class="edge">
<title>Node49&#45;&gt;Node33</title>
<path fill="none" stroke="#63b8ff" d="M290.24,-235.73C306.88,-234.21 326.36,-232.47 344,-231 536.05,-215.01 763.76,-198.35 869.52,-190.74"/>
<polygon fill="#63b8ff" stroke="#63b8ff" points="869.95,-194.22 879.67,-190.01 869.45,-187.24 869.95,-194.22"/>
</g>
<!-- Node49&#45;&gt;Node35 -->
<g id="edge65" class="edge">
<title>Node49&#45;&gt;Node35</title>
<path fill="none" stroke="#63b8ff" d="M233.31,-230.97C194.9,-211.33 100.01,-162.82 53.93,-139.26"/>
<polygon fill="#63b8ff" stroke="#63b8ff" points="55.38,-136.07 44.88,-134.63 52.19,-142.3 55.38,-136.07"/>
</g>
<!-- Node52&#45;&gt;Node3 -->
<g id="edge71" class="edge">
<title>Node52&#45;&gt;Node3</title>
<path fill="none" stroke="#63b8ff" d="M623.13,-288.47C697.11,-278.37 845.45,-258.1 920.79,-247.81"/>
<polygon fill="#63b8ff" stroke="#63b8ff" points="921.49,-251.25 930.93,-246.43 920.54,-244.31 921.49,-251.25"/>
</g>
<!-- Node53&#45;&gt;Node3 -->
<g id="edge73" class="edge">
<title>Node53&#45;&gt;Node3</title>
<path fill="none" stroke="#63b8ff" d="M967,-285.75C967,-278.8 967,-268.85 967,-260.13"/>
<polygon fill="#63b8ff" stroke="#63b8ff" points="970.5,-260.09 967,-250.09 963.5,-260.09 970.5,-260.09"/>
</g>
<!-- Node54&#45;&gt;Node6 -->
<g id="edge76" class="edge">
<title>Node54&#45;&gt;Node6</title>
<path fill="none" stroke="#63b8ff" d="M399,-230.75C399,-223.8 399,-213.85 399,-205.13"/>
<polygon fill="#63b8ff" stroke="#63b8ff" points="402.5,-205.09 399,-195.09 395.5,-205.09 402.5,-205.09"/>
</g>
<!-- Node54&#45;&gt;Node33 -->
<g id="edge77" class="edge">
<title>Node54&#45;&gt;Node33</title>
<path fill="none" stroke="#63b8ff" d="M444.65,-234.94C540.61,-225.34 763.17,-203.08 869.88,-192.41"/>
<polygon fill="#63b8ff" stroke="#63b8ff" points="870.23,-195.89 879.83,-191.42 869.53,-188.93 870.23,-195.89"/>
</g>
</g>
</svg>
