<?xml version="1.0" encoding="UTF-8" standalone="no"?>
<!DOCTYPE svg PUBLIC "-//W3C//DTD SVG 1.1//EN"
 "http://www.w3.org/Graphics/SVG/1.1/DTD/svg11.dtd">
<!-- Generated by graphviz version 2.50.0 (20220203.2022)
 -->
<!-- Title: thorin/lam.cpp Pages: 1 -->
<svg width="1784pt" height="487pt"
 viewBox="0.00 0.00 1783.95 487.00" xmlns="http://www.w3.org/2000/svg" xmlns:xlink="http://www.w3.org/1999/xlink">
<g id="graph0" class="graph" transform="scale(1 1) rotate(0) translate(4 483)">
<title>thorin/lam.cpp</title>
<!-- Node1 -->
<g id="node1" class="node">
<title>Node1</title>
<g id="a_node1"><a xlink:title=" ">
<polygon fill="#bfbfbf" stroke="black" points="1098.38,-459.5 1098.38,-478.5 1175.38,-478.5 1175.38,-459.5 1098.38,-459.5"/>
<text text-anchor="middle" x="1136.88" y="-466.5" font-family="Helvetica,sans-Serif" font-size="10.00">thorin/lam.cpp</text>
</a>
</g>
</g>
<!-- Node2 -->
<g id="node2" class="node">
<title>Node2</title>
<g id="a_node2"><a xlink:href="lam_8h.html" target="_top" xlink:title=" ">
<polygon fill="none" stroke="black" points="1012.38,-291.5 1012.38,-310.5 1079.38,-310.5 1079.38,-291.5 1012.38,-291.5"/>
<text text-anchor="middle" x="1045.88" y="-298.5" font-family="Helvetica,sans-Serif" font-size="10.00">thorin/lam.h</text>
</a>
</g>
</g>
<!-- Node1&#45;&gt;Node2 -->
<g id="edge1" class="edge">
<title>Node1&#45;&gt;Node2</title>
<path fill="none" stroke="midnightblue" d="M1130.39,-459.46C1117.74,-442.52 1089.39,-403.17 1070.88,-367 1063.13,-351.86 1056.35,-333.74 1051.81,-320.48"/>
<polygon fill="midnightblue" stroke="midnightblue" points="1055.03,-319.05 1048.56,-310.66 1048.38,-321.26 1055.03,-319.05"/>
</g>
<!-- Node43 -->
<g id="node43" class="node">
<title>Node43</title>
<g id="a_node43"><a xlink:href="world_8h.html" target="_top" xlink:title=" ">
<polygon fill="none" stroke="black" points="1189.88,-403.5 1189.88,-422.5 1263.88,-422.5 1263.88,-403.5 1189.88,-403.5"/>
<text text-anchor="middle" x="1226.88" y="-410.5" font-family="Helvetica,sans-Serif" font-size="10.00">thorin/world.h</text>
</a>
</g>
</g>
<!-- Node1&#45;&gt;Node43 -->
<g id="edge57" class="edge">
<title>Node1&#45;&gt;Node43</title>
<path fill="none" stroke="midnightblue" d="M1151.34,-459.32C1165.38,-450.9 1186.92,-437.97 1203.42,-428.07"/>
<polygon fill="midnightblue" stroke="midnightblue" points="1205.68,-430.8 1212.45,-422.65 1202.08,-424.8 1205.68,-430.8"/>
</g>
<!-- Node3 -->
<g id="node3" class="node">
<title>Node3</title>
<g id="a_node3"><a xlink:title=" ">
<polygon fill="none" stroke="#bfbfbf" points="948.88,-235.5 948.88,-254.5 994.88,-254.5 994.88,-235.5 948.88,-235.5"/>
<text text-anchor="middle" x="971.88" y="-242.5" font-family="Helvetica,sans-Serif" font-size="10.00">variant</text>
</a>
</g>
</g>
<!-- Node2&#45;&gt;Node3 -->
<g id="edge2" class="edge">
<title>Node2&#45;&gt;Node3</title>
<path fill="none" stroke="midnightblue" d="M1033.99,-291.32C1022.73,-283.11 1005.59,-270.6 992.17,-260.81"/>
<polygon fill="midnightblue" stroke="midnightblue" points="994.12,-257.9 983.98,-254.83 990,-263.56 994.12,-257.9"/>
</g>
<!-- Node4 -->
<g id="node4" class="node">
<title>Node4</title>
<g id="a_node4"><a xlink:href="def_8h.html" target="_top" xlink:title=" ">
<polygon fill="none" stroke="black" points="1013.38,-235.5 1013.38,-254.5 1078.38,-254.5 1078.38,-235.5 1013.38,-235.5"/>
<text text-anchor="middle" x="1045.88" y="-242.5" font-family="Helvetica,sans-Serif" font-size="10.00">thorin/def.h</text>
</a>
</g>
</g>
<!-- Node2&#45;&gt;Node4 -->
<g id="edge3" class="edge">
<title>Node2&#45;&gt;Node4</title>
<path fill="none" stroke="midnightblue" d="M1045.88,-291.08C1045.88,-284.01 1045.88,-273.86 1045.88,-264.99"/>
<polygon fill="midnightblue" stroke="midnightblue" points="1049.38,-264.75 1045.88,-254.75 1042.38,-264.75 1049.38,-264.75"/>
</g>
<!-- Node5 -->
<g id="node5" class="node">
<title>Node5</title>
<g id="a_node5"><a xlink:title=" ">
<polygon fill="none" stroke="#bfbfbf" points="1047.88,-179.5 1047.88,-198.5 1097.88,-198.5 1097.88,-179.5 1047.88,-179.5"/>
<text text-anchor="middle" x="1072.88" y="-186.5" font-family="Helvetica,sans-Serif" font-size="10.00">optional</text>
</a>
</g>
</g>
<!-- Node4&#45;&gt;Node5 -->
<g id="edge4" class="edge">
<title>Node4&#45;&gt;Node5</title>
<path fill="none" stroke="midnightblue" d="M1050.33,-235.08C1054.03,-227.69 1059.4,-216.95 1063.97,-207.81"/>
<polygon fill="midnightblue" stroke="midnightblue" points="1067.16,-209.26 1068.5,-198.75 1060.9,-206.13 1067.16,-209.26"/>
</g>
<!-- Node6 -->
<g id="node6" class="node">
<title>Node6</title>
<g id="a_node6"><a xlink:title=" ">
<polygon fill="none" stroke="#bfbfbf" points="1020.88,-118 1020.88,-137 1064.88,-137 1064.88,-118 1020.88,-118"/>
<text text-anchor="middle" x="1042.88" y="-125" font-family="Helvetica,sans-Serif" font-size="10.00">vector</text>
</a>
</g>
</g>
<!-- Node4&#45;&gt;Node6 -->
<g id="edge5" class="edge">
<title>Node4&#45;&gt;Node6</title>
<path fill="none" stroke="midnightblue" d="M1044.14,-235.42C1042.4,-226.4 1039.86,-211.77 1038.88,-199 1037.52,-181.45 1038.94,-161.4 1040.45,-147.18"/>
<polygon fill="midnightblue" stroke="midnightblue" points="1043.94,-147.53 1041.64,-137.19 1036.99,-146.71 1043.94,-147.53"/>
</g>
<!-- Node7 -->
<g id="node7" class="node">
<title>Node7</title>
<g id="a_node7"><a xlink:href="debug_8h.html" target="_top" xlink:title=" ">
<polygon fill="none" stroke="black" points="720.38,-179.5 720.38,-198.5 797.38,-198.5 797.38,-179.5 720.38,-179.5"/>
<text text-anchor="middle" x="758.88" y="-186.5" font-family="Helvetica,sans-Serif" font-size="10.00">thorin/debug.h</text>
</a>
</g>
</g>
<!-- Node4&#45;&gt;Node7 -->
<g id="edge6" class="edge">
<title>Node4&#45;&gt;Node7</title>
<path fill="none" stroke="midnightblue" d="M1013.34,-236.93C1010.14,-236.26 1006.95,-235.61 1003.88,-235 935.96,-221.49 857.16,-207.28 807.66,-198.52"/>
<polygon fill="midnightblue" stroke="midnightblue" points="808.01,-195.03 797.56,-196.74 806.8,-201.93 808.01,-195.03"/>
</g>
<!-- Node12 -->
<g id="node12" class="node">
<title>Node12</title>
<g id="a_node12"><a xlink:href="stream_8h.html" target="_top" xlink:title=" ">
<polygon fill="none" stroke="black" points="906.38,-118 906.38,-137 1003.38,-137 1003.38,-118 906.38,-118"/>
<text text-anchor="middle" x="954.88" y="-125" font-family="Helvetica,sans-Serif" font-size="10.00">thorin/util/stream.h</text>
</a>
</g>
</g>
<!-- Node4&#45;&gt;Node12 -->
<g id="edge56" class="edge">
<title>Node4&#45;&gt;Node12</title>
<path fill="none" stroke="midnightblue" d="M1039.04,-235.32C1024.02,-216.26 987.92,-170.45 968.24,-145.46"/>
<polygon fill="midnightblue" stroke="midnightblue" points="970.73,-142.97 961.79,-137.28 965.23,-147.3 970.73,-142.97"/>
</g>
<!-- Node21 -->
<g id="node21" class="node">
<title>Node21</title>
<g id="a_node21"><a xlink:href="tables_8h.html" target="_top" xlink:title=" ">
<polygon fill="none" stroke="black" points="811.38,-118 811.38,-137 888.38,-137 888.38,-118 811.38,-118"/>
<text text-anchor="middle" x="849.88" y="-125" font-family="Helvetica,sans-Serif" font-size="10.00">thorin/tables.h</text>
</a>
</g>
</g>
<!-- Node4&#45;&gt;Node21 -->
<g id="edge22" class="edge">
<title>Node4&#45;&gt;Node21</title>
<path fill="none" stroke="midnightblue" d="M1031.14,-235.32C997.36,-215.41 914.09,-166.34 873.24,-142.27"/>
<polygon fill="midnightblue" stroke="midnightblue" points="874.9,-139.19 864.51,-137.12 871.35,-145.22 874.9,-139.19"/>
</g>
<!-- Node30 -->
<g id="node30" class="node">
<title>Node30</title>
<g id="a_node30"><a xlink:href="array_8h.html" target="_top" xlink:title=" ">
<polygon fill="none" stroke="black" points="1281.88,-179.5 1281.88,-198.5 1369.88,-198.5 1369.88,-179.5 1281.88,-179.5"/>
<text text-anchor="middle" x="1325.88" y="-186.5" font-family="Helvetica,sans-Serif" font-size="10.00">thorin/util/array.h</text>
</a>
</g>
</g>
<!-- Node4&#45;&gt;Node30 -->
<g id="edge32" class="edge">
<title>Node4&#45;&gt;Node30</title>
<path fill="none" stroke="midnightblue" d="M1078.54,-237.7C1125.9,-228.57 1214.21,-211.53 1271.49,-200.49"/>
<polygon fill="midnightblue" stroke="midnightblue" points="1272.3,-203.9 1281.46,-198.57 1270.97,-197.02 1272.3,-203.9"/>
</g>
<!-- Node36 -->
<g id="node36" class="node">
<title>Node36</title>
<g id="a_node36"><a xlink:href="cast_8h.html" target="_top" xlink:title=" ">
<polygon fill="none" stroke="black" points="1082.88,-118 1082.88,-137 1168.88,-137 1168.88,-118 1082.88,-118"/>
<text text-anchor="middle" x="1125.88" y="-125" font-family="Helvetica,sans-Serif" font-size="10.00">thorin/util/cast.h</text>
</a>
</g>
</g>
<!-- Node4&#45;&gt;Node36 -->
<g id="edge43" class="edge">
<title>Node4&#45;&gt;Node36</title>
<path fill="none" stroke="midnightblue" d="M1063.14,-235.47C1076.97,-227.78 1095.82,-215.19 1106.88,-199 1117.47,-183.48 1122.17,-162.3 1124.24,-147.22"/>
<polygon fill="midnightblue" stroke="midnightblue" points="1127.75,-147.39 1125.37,-137.06 1120.79,-146.61 1127.75,-147.39"/>
</g>
<!-- Node37 -->
<g id="node37" class="node">
<title>Node37</title>
<g id="a_node37"><a xlink:href="container_8h.html" target="_top" xlink:title=" ">
<polygon fill="none" stroke="black" points="372.38,-179.5 372.38,-198.5 479.38,-198.5 479.38,-179.5 372.38,-179.5"/>
<text text-anchor="middle" x="425.88" y="-186.5" font-family="Helvetica,sans-Serif" font-size="10.00">thorin/util/container.h</text>
</a>
</g>
</g>
<!-- Node4&#45;&gt;Node37 -->
<g id="edge46" class="edge">
<title>Node4&#45;&gt;Node37</title>
<path fill="none" stroke="midnightblue" d="M1012.94,-236.51C1009.88,-235.94 1006.83,-235.43 1003.88,-235 818.32,-208.02 596.73,-196.48 489.82,-192.19"/>
<polygon fill="midnightblue" stroke="midnightblue" points="489.66,-188.68 479.53,-191.79 489.39,-195.68 489.66,-188.68"/>
</g>
<!-- Node42 -->
<g id="node42" class="node">
<title>Node42</title>
<g id="a_node42"><a xlink:href="hash_8h.html" target="_top" xlink:title=" ">
<polygon fill="none" stroke="black" points="29.88,-118 29.88,-137 117.88,-137 117.88,-118 29.88,-118"/>
<text text-anchor="middle" x="73.88" y="-125" font-family="Helvetica,sans-Serif" font-size="10.00">thorin/util/hash.h</text>
</a>
</g>
</g>
<!-- Node4&#45;&gt;Node42 -->
<g id="edge55" class="edge">
<title>Node4&#45;&gt;Node42</title>
<path fill="none" stroke="midnightblue" d="M1012.95,-236.44C1009.89,-235.89 1006.83,-235.4 1003.88,-235 721.08,-196.99 645.24,-240.1 362.88,-199 270.98,-185.62 165.6,-156.26 111.02,-139.96"/>
<polygon fill="midnightblue" stroke="midnightblue" points="112.01,-136.61 101.43,-137.08 110,-143.31 112.01,-136.61"/>
</g>
<!-- Node8 -->
<g id="node8" class="node">
<title>Node8</title>
<g id="a_node8"><a xlink:title=" ">
<polygon fill="none" stroke="#bfbfbf" points="525.38,-56.5 525.38,-75.5 566.38,-75.5 566.38,-56.5 525.38,-56.5"/>
<text text-anchor="middle" x="545.88" y="-63.5" font-family="Helvetica,sans-Serif" font-size="10.00">string</text>
</a>
</g>
</g>
<!-- Node7&#45;&gt;Node8 -->
<g id="edge7" class="edge">
<title>Node7&#45;&gt;Node8</title>
<path fill="none" stroke="midnightblue" d="M762.89,-179.31C769.38,-163.85 779.88,-131.36 763.88,-112 711.63,-48.8 662.21,-92.8 576.28,-75.67"/>
<polygon fill="midnightblue" stroke="midnightblue" points="576.98,-72.24 566.46,-73.48 575.45,-79.07 576.98,-72.24"/>
</g>
<!-- Node9 -->
<g id="node9" class="node">
<title>Node9</title>
<g id="a_node9"><a xlink:title=" ">
<polygon fill="none" stroke="#bfbfbf" points="716.88,-118 716.88,-137 754.88,-137 754.88,-118 716.88,-118"/>
<text text-anchor="middle" x="735.88" y="-125" font-family="Helvetica,sans-Serif" font-size="10.00">tuple</text>
</a>
</g>
</g>
<!-- Node7&#45;&gt;Node9 -->
<g id="edge8" class="edge">
<title>Node7&#45;&gt;Node9</title>
<path fill="none" stroke="midnightblue" d="M755.58,-179.48C752.27,-170.9 747.06,-157.43 742.83,-146.48"/>
<polygon fill="midnightblue" stroke="midnightblue" points="746.04,-145.07 739.16,-137.01 739.51,-147.6 746.04,-145.07"/>
</g>
<!-- Node10 -->
<g id="node10" class="node">
<title>Node10</title>
<g id="a_node10"><a xlink:title=" ">
<polygon fill="none" stroke="#bfbfbf" points="605.38,-112.5 605.38,-142.5 698.38,-142.5 698.38,-112.5 605.38,-112.5"/>
<text text-anchor="start" x="613.38" y="-130.5" font-family="Helvetica,sans-Serif" font-size="10.00">absl/container/flat</text>
<text text-anchor="middle" x="651.88" y="-119.5" font-family="Helvetica,sans-Serif" font-size="10.00">_hash_map.h</text>
</a>
</g>
</g>
<!-- Node7&#45;&gt;Node10 -->
<g id="edge9" class="edge">
<title>Node7&#45;&gt;Node10</title>
<path fill="none" stroke="midnightblue" d="M743.55,-179.48C728.58,-171.15 705.3,-158.21 685.94,-147.45"/>
<polygon fill="midnightblue" stroke="midnightblue" points="687.53,-144.32 677.09,-142.52 684.13,-150.44 687.53,-144.32"/>
</g>
<!-- Node11 -->
<g id="node11" class="node">
<title>Node11</title>
<g id="a_node11"><a xlink:title=" ">
<polygon fill="none" stroke="#bfbfbf" points="494.38,-112.5 494.38,-142.5 587.38,-142.5 587.38,-112.5 494.38,-112.5"/>
<text text-anchor="start" x="502.38" y="-130.5" font-family="Helvetica,sans-Serif" font-size="10.00">absl/container/flat</text>
<text text-anchor="middle" x="540.88" y="-119.5" font-family="Helvetica,sans-Serif" font-size="10.00">_hash_set.h</text>
</a>
</g>
</g>
<!-- Node7&#45;&gt;Node11 -->
<g id="edge10" class="edge">
<title>Node7&#45;&gt;Node11</title>
<path fill="none" stroke="midnightblue" d="M727.64,-179.48C693.74,-170.22 638.91,-155.26 597.41,-143.93"/>
<polygon fill="midnightblue" stroke="midnightblue" points="598.27,-140.54 587.7,-141.28 596.42,-147.29 598.27,-140.54"/>
</g>
<!-- Node7&#45;&gt;Node12 -->
<g id="edge11" class="edge">
<title>Node7&#45;&gt;Node12</title>
<path fill="none" stroke="midnightblue" d="M786.96,-179.48C821.16,-169.09 879.07,-151.51 917.15,-139.95"/>
<polygon fill="midnightblue" stroke="midnightblue" points="918.29,-143.26 926.85,-137.01 916.26,-136.56 918.29,-143.26"/>
</g>
<!-- Node12&#45;&gt;Node8 -->
<g id="edge19" class="edge">
<title>Node12&#45;&gt;Node8</title>
<path fill="none" stroke="midnightblue" d="M924.04,-117.98C915.31,-115.79 905.76,-113.6 896.88,-112 758.76,-87.11 718.34,-103.95 576.36,-75.71"/>
<polygon fill="midnightblue" stroke="midnightblue" points="576.9,-72.25 566.41,-73.69 575.51,-79.11 576.9,-72.25"/>
</g>
<!-- Node13 -->
<g id="node13" class="node">
<title>Node13</title>
<g id="a_node13"><a xlink:title=" ">
<polygon fill="none" stroke="#bfbfbf" points="1286.38,-0.5 1286.38,-19.5 1335.38,-19.5 1335.38,-0.5 1286.38,-0.5"/>
<text text-anchor="middle" x="1310.88" y="-7.5" font-family="Helvetica,sans-Serif" font-size="10.00">cassert</text>
</a>
</g>
</g>
<!-- Node12&#45;&gt;Node13 -->
<g id="edge12" class="edge">
<title>Node12&#45;&gt;Node13</title>
<path fill="none" stroke="midnightblue" d="M979.53,-117.97C1006.29,-108.51 1050.13,-92.39 1086.88,-76 1104.67,-68.06 1107.62,-62.79 1125.88,-56 1176.7,-37.09 1238.37,-23.93 1276.11,-16.92"/>
<polygon fill="midnightblue" stroke="midnightblue" points="1276.87,-20.34 1286.09,-15.11 1275.62,-13.45 1276.87,-20.34"/>
</g>
<!-- Node14 -->
<g id="node14" class="node">
<title>Node14</title>
<g id="a_node14"><a xlink:title=" ">
<polygon fill="none" stroke="#bfbfbf" points="1134.88,-56.5 1134.88,-75.5 1180.88,-75.5 1180.88,-56.5 1134.88,-56.5"/>
<text text-anchor="middle" x="1157.88" y="-63.5" font-family="Helvetica,sans-Serif" font-size="10.00">cstring</text>
</a>
</g>
</g>
<!-- Node12&#45;&gt;Node14 -->
<g id="edge13" class="edge">
<title>Node12&#45;&gt;Node14</title>
<path fill="none" stroke="midnightblue" d="M983.96,-117.98C1021.3,-107.03 1085.91,-88.09 1125,-76.64"/>
<polygon fill="midnightblue" stroke="midnightblue" points="1126.21,-79.93 1134.83,-73.76 1124.24,-73.21 1126.21,-79.93"/>
</g>
<!-- Node15 -->
<g id="node15" class="node">
<title>Node15</title>
<g id="a_node15"><a xlink:title=" ">
<polygon fill="none" stroke="#bfbfbf" points="958.88,-56.5 958.88,-75.5 1008.88,-75.5 1008.88,-56.5 958.88,-56.5"/>
<text text-anchor="middle" x="983.88" y="-63.5" font-family="Helvetica,sans-Serif" font-size="10.00">fstream</text>
</a>
</g>
</g>
<!-- Node12&#45;&gt;Node15 -->
<g id="edge14" class="edge">
<title>Node12&#45;&gt;Node15</title>
<path fill="none" stroke="midnightblue" d="M959.03,-117.98C963.25,-109.32 969.91,-95.65 975.28,-84.65"/>
<polygon fill="midnightblue" stroke="midnightblue" points="978.49,-86.03 979.73,-75.51 972.2,-82.96 978.49,-86.03"/>
</g>
<!-- Node16 -->
<g id="node16" class="node">
<title>Node16</title>
<g id="a_node16"><a xlink:title=" ">
<polygon fill="none" stroke="#bfbfbf" points="1387.88,-56.5 1387.88,-75.5 1441.88,-75.5 1441.88,-56.5 1387.88,-56.5"/>
<text text-anchor="middle" x="1414.88" y="-63.5" font-family="Helvetica,sans-Serif" font-size="10.00">iostream</text>
</a>
</g>
</g>
<!-- Node12&#45;&gt;Node16 -->
<g id="edge15" class="edge">
<title>Node12&#45;&gt;Node16</title>
<path fill="none" stroke="midnightblue" d="M985.17,-117.97C993.75,-115.78 1003.14,-113.59 1011.88,-112 1145.28,-87.7 1306.08,-74.49 1377.52,-69.44"/>
<polygon fill="midnightblue" stroke="midnightblue" points="1378.07,-72.91 1387.81,-68.73 1377.59,-65.93 1378.07,-72.91"/>
</g>
<!-- Node17 -->
<g id="node17" class="node">
<title>Node17</title>
<g id="a_node17"><a xlink:title=" ">
<polygon fill="none" stroke="#bfbfbf" points="1027.38,-56.5 1027.38,-75.5 1078.38,-75.5 1078.38,-56.5 1027.38,-56.5"/>
<text text-anchor="middle" x="1052.88" y="-63.5" font-family="Helvetica,sans-Serif" font-size="10.00">memory</text>
</a>
</g>
</g>
<!-- Node12&#45;&gt;Node17 -->
<g id="edge16" class="edge">
<title>Node12&#45;&gt;Node17</title>
<path fill="none" stroke="midnightblue" d="M968.92,-117.98C984.93,-108.25 1011.33,-92.23 1030.25,-80.74"/>
<polygon fill="midnightblue" stroke="midnightblue" points="1032.13,-83.69 1038.86,-75.51 1028.5,-77.71 1032.13,-83.69"/>
</g>
<!-- Node18 -->
<g id="node18" class="node">
<title>Node18</title>
<g id="a_node18"><a xlink:title=" ">
<polygon fill="none" stroke="#bfbfbf" points="1198.88,-56.5 1198.88,-75.5 1244.88,-75.5 1244.88,-56.5 1198.88,-56.5"/>
<text text-anchor="middle" x="1221.88" y="-63.5" font-family="Helvetica,sans-Serif" font-size="10.00">ranges</text>
</a>
</g>
</g>
<!-- Node12&#45;&gt;Node18 -->
<g id="edge17" class="edge">
<title>Node12&#45;&gt;Node18</title>
<path fill="none" stroke="midnightblue" d="M987.36,-117.94C995.36,-115.91 1003.91,-113.82 1011.88,-112 1087.49,-94.75 1109.7,-94.9 1188.91,-76.09"/>
<polygon fill="midnightblue" stroke="midnightblue" points="1189.95,-79.43 1198.86,-73.7 1188.32,-72.63 1189.95,-79.43"/>
</g>
<!-- Node19 -->
<g id="node19" class="node">
<title>Node19</title>
<g id="a_node19"><a xlink:title=" ">
<polygon fill="none" stroke="#bfbfbf" points="888.88,-56.5 888.88,-75.5 940.88,-75.5 940.88,-56.5 888.88,-56.5"/>
<text text-anchor="middle" x="914.88" y="-63.5" font-family="Helvetica,sans-Serif" font-size="10.00">sstream</text>
</a>
</g>
</g>
<!-- Node12&#45;&gt;Node19 -->
<g id="edge18" class="edge">
<title>Node12&#45;&gt;Node19</title>
<path fill="none" stroke="midnightblue" d="M949.14,-117.98C943.2,-109.14 933.76,-95.09 926.29,-83.98"/>
<polygon fill="midnightblue" stroke="midnightblue" points="929.08,-81.86 920.6,-75.51 923.27,-85.76 929.08,-81.86"/>
</g>
<!-- Node20 -->
<g id="node20" class="node">
<title>Node20</title>
<g id="a_node20"><a xlink:href="assert_8h.html" target="_top" xlink:title=" ">
<polygon fill="none" stroke="black" points="776.88,-56.5 776.88,-75.5 870.88,-75.5 870.88,-56.5 776.88,-56.5"/>
<text text-anchor="middle" x="823.88" y="-63.5" font-family="Helvetica,sans-Serif" font-size="10.00">thorin/util/assert.h</text>
</a>
</g>
</g>
<!-- Node12&#45;&gt;Node20 -->
<g id="edge20" class="edge">
<title>Node12&#45;&gt;Node20</title>
<path fill="none" stroke="midnightblue" d="M936.11,-117.98C914.02,-107.95 877.16,-91.2 851.74,-79.65"/>
<polygon fill="midnightblue" stroke="midnightblue" points="853.16,-76.46 842.61,-75.51 850.27,-82.83 853.16,-76.46"/>
</g>
<!-- Node20&#45;&gt;Node13 -->
<g id="edge21" class="edge">
<title>Node20&#45;&gt;Node13</title>
<path fill="none" stroke="midnightblue" d="M870.9,-57.25C873.94,-56.81 876.95,-56.39 879.88,-56 1026.67,-36.56 1202.51,-20.41 1275.96,-13.99"/>
<polygon fill="midnightblue" stroke="midnightblue" points="1276.38,-17.46 1286.04,-13.11 1275.77,-10.49 1276.38,-17.46"/>
</g>
<!-- Node21&#45;&gt;Node20 -->
<g id="edge24" class="edge">
<title>Node21&#45;&gt;Node20</title>
<path fill="none" stroke="midnightblue" d="M846.15,-117.98C842.4,-109.4 836.52,-95.93 831.73,-84.98"/>
<polygon fill="midnightblue" stroke="midnightblue" points="834.81,-83.27 827.59,-75.51 828.39,-86.07 834.81,-83.27"/>
</g>
<!-- Node22 -->
<g id="node22" class="node">
<title>Node22</title>
<g id="a_node22"><a xlink:title=" ">
<polygon fill="none" stroke="#bfbfbf" points="692.88,-56.5 692.88,-75.5 758.88,-75.5 758.88,-56.5 692.88,-56.5"/>
<text text-anchor="middle" x="725.88" y="-63.5" font-family="Helvetica,sans-Serif" font-size="10.00">string_view</text>
</a>
</g>
</g>
<!-- Node21&#45;&gt;Node22 -->
<g id="edge23" class="edge">
<title>Node21&#45;&gt;Node22</title>
<path fill="none" stroke="midnightblue" d="M832.11,-117.98C811.39,-108.03 776.92,-91.49 752.89,-79.96"/>
<polygon fill="midnightblue" stroke="midnightblue" points="754.14,-76.68 743.61,-75.51 751.11,-82.99 754.14,-76.68"/>
</g>
<!-- Node23 -->
<g id="node23" class="node">
<title>Node23</title>
<g id="a_node23"><a xlink:href="types_8h.html" target="_top" xlink:title=" ">
<polygon fill="none" stroke="black" points="584.88,-56.5 584.88,-75.5 674.88,-75.5 674.88,-56.5 584.88,-56.5"/>
<text text-anchor="middle" x="629.88" y="-63.5" font-family="Helvetica,sans-Serif" font-size="10.00">thorin/util/types.h</text>
</a>
</g>
</g>
<!-- Node21&#45;&gt;Node23 -->
<g id="edge25" class="edge">
<title>Node21&#45;&gt;Node23</title>
<path fill="none" stroke="midnightblue" d="M818.77,-117.97C811.58,-116 803.96,-113.92 796.88,-112 754.2,-100.41 705.36,-87.27 671.57,-78.19"/>
<polygon fill="midnightblue" stroke="midnightblue" points="672.16,-74.72 661.59,-75.51 670.34,-81.48 672.16,-74.72"/>
</g>
<!-- Node24 -->
<g id="node24" class="node">
<title>Node24</title>
<g id="a_node24"><a xlink:title=" ">
<polygon fill="none" stroke="#bfbfbf" points="737.88,-0.5 737.88,-19.5 783.88,-19.5 783.88,-0.5 737.88,-0.5"/>
<text text-anchor="middle" x="760.88" y="-7.5" font-family="Helvetica,sans-Serif" font-size="10.00">cstdint</text>
</a>
</g>
</g>
<!-- Node23&#45;&gt;Node24 -->
<g id="edge26" class="edge">
<title>Node23&#45;&gt;Node24</title>
<path fill="none" stroke="midnightblue" d="M650.63,-56.44C672.19,-47.56 706.14,-33.56 730.67,-23.45"/>
<polygon fill="midnightblue" stroke="midnightblue" points="732.3,-26.56 740.22,-19.52 729.64,-20.09 732.3,-26.56"/>
</g>
<!-- Node25 -->
<g id="node25" class="node">
<title>Node25</title>
<g id="a_node25"><a xlink:title=" ">
<polygon fill="none" stroke="#bfbfbf" points="479.88,-0.5 479.88,-19.5 519.88,-19.5 519.88,-0.5 479.88,-0.5"/>
<text text-anchor="middle" x="499.88" y="-7.5" font-family="Helvetica,sans-Serif" font-size="10.00">limits</text>
</a>
</g>
</g>
<!-- Node23&#45;&gt;Node25 -->
<g id="edge27" class="edge">
<title>Node23&#45;&gt;Node25</title>
<path fill="none" stroke="midnightblue" d="M609.28,-56.44C587.76,-47.5 553.8,-33.4 529.42,-23.27"/>
<polygon fill="midnightblue" stroke="midnightblue" points="530.53,-19.94 519.95,-19.34 527.84,-26.41 530.53,-19.94"/>
</g>
<!-- Node26 -->
<g id="node26" class="node">
<title>Node26</title>
<g id="a_node26"><a xlink:title=" ">
<polygon fill="none" stroke="#bfbfbf" points="537.88,-0.5 537.88,-19.5 589.88,-19.5 589.88,-0.5 537.88,-0.5"/>
<text text-anchor="middle" x="563.88" y="-7.5" font-family="Helvetica,sans-Serif" font-size="10.00">ostream</text>
</a>
</g>
</g>
<!-- Node23&#45;&gt;Node26 -->
<g id="edge28" class="edge">
<title>Node23&#45;&gt;Node26</title>
<path fill="none" stroke="midnightblue" d="M619.27,-56.32C609.42,-48.26 594.52,-36.08 582.66,-26.37"/>
<polygon fill="midnightblue" stroke="midnightblue" points="584.63,-23.46 574.67,-19.83 580.2,-28.88 584.63,-23.46"/>
</g>
<!-- Node27 -->
<g id="node27" class="node">
<title>Node27</title>
<g id="a_node27"><a xlink:title=" ">
<polygon fill="none" stroke="#bfbfbf" points="1003.88,-0.5 1003.88,-19.5 1065.88,-19.5 1065.88,-0.5 1003.88,-0.5"/>
<text text-anchor="middle" x="1034.88" y="-7.5" font-family="Helvetica,sans-Serif" font-size="10.00">type_traits</text>
</a>
</g>
</g>
<!-- Node23&#45;&gt;Node27 -->
<g id="edge29" class="edge">
<title>Node23&#45;&gt;Node27</title>
<path fill="none" stroke="midnightblue" d="M674.94,-57.36C677.96,-56.89 680.96,-56.43 683.88,-56 795.8,-39.5 928.32,-23.46 993.9,-15.75"/>
<polygon fill="midnightblue" stroke="midnightblue" points="994.31,-19.22 1003.83,-14.58 993.49,-12.27 994.31,-19.22"/>
</g>
<!-- Node28 -->
<g id="node28" class="node">
<title>Node28</title>
<g id="a_node28"><a xlink:title=" ">
<polygon fill="none" stroke="#bfbfbf" points="607.88,-0.5 607.88,-19.5 651.88,-19.5 651.88,-0.5 607.88,-0.5"/>
<text text-anchor="middle" x="629.88" y="-7.5" font-family="Helvetica,sans-Serif" font-size="10.00">cmath</text>
</a>
</g>
</g>
<!-- Node23&#45;&gt;Node28 -->
<g id="edge30" class="edge">
<title>Node23&#45;&gt;Node28</title>
<path fill="none" stroke="midnightblue" d="M629.88,-56.08C629.88,-49.01 629.88,-38.86 629.88,-29.99"/>
<polygon fill="midnightblue" stroke="midnightblue" points="633.38,-29.75 629.88,-19.75 626.38,-29.75 633.38,-29.75"/>
</g>
<!-- Node29 -->
<g id="node29" class="node">
<title>Node29</title>
<g id="a_node29"><a xlink:title=" ">
<polygon fill="none" stroke="#bfbfbf" points="669.88,-0.5 669.88,-19.5 719.88,-19.5 719.88,-0.5 669.88,-0.5"/>
<text text-anchor="middle" x="694.88" y="-7.5" font-family="Helvetica,sans-Serif" font-size="10.00">half.hpp</text>
</a>
</g>
</g>
<!-- Node23&#45;&gt;Node29 -->
<g id="edge31" class="edge">
<title>Node23&#45;&gt;Node29</title>
<path fill="none" stroke="midnightblue" d="M640.32,-56.32C650.02,-48.26 664.69,-36.08 676.38,-26.37"/>
<polygon fill="midnightblue" stroke="midnightblue" points="678.79,-28.92 684.24,-19.83 674.31,-23.53 678.79,-28.92"/>
</g>
<!-- Node30&#45;&gt;Node6 -->
<g id="edge42" class="edge">
<title>Node30&#45;&gt;Node6</title>
<path fill="none" stroke="midnightblue" d="M1281.79,-183.65C1230.82,-177.82 1144.83,-165.5 1073.88,-143 1072.2,-142.47 1070.5,-141.87 1068.8,-141.22"/>
<polygon fill="midnightblue" stroke="midnightblue" points="1069.86,-137.86 1059.29,-137.15 1067.1,-144.3 1069.86,-137.86"/>
</g>
<!-- Node30&#45;&gt;Node13 -->
<g id="edge33" class="edge">
<title>Node30&#45;&gt;Node13</title>
<path fill="none" stroke="midnightblue" d="M1370.23,-182.7C1416.39,-176.16 1484.12,-163.35 1499.88,-143 1508.31,-132.11 1504.72,-124.9 1499.88,-112 1476.47,-49.7 1393.5,-25.15 1345.63,-16.02"/>
<polygon fill="midnightblue" stroke="midnightblue" points="1346.16,-12.55 1335.7,-14.24 1344.93,-19.45 1346.16,-12.55"/>
</g>
<!-- Node30&#45;&gt;Node14 -->
<g id="edge35" class="edge">
<title>Node30&#45;&gt;Node14</title>
<path fill="none" stroke="midnightblue" d="M1304.1,-179.37C1285.19,-171.37 1257.52,-158.39 1235.88,-143 1211.21,-125.46 1186.89,-100.14 1172.13,-83.62"/>
<polygon fill="midnightblue" stroke="midnightblue" points="1174.56,-81.09 1165.33,-75.88 1169.3,-85.7 1174.56,-81.09"/>
</g>
<!-- Node30&#45;&gt;Node18 -->
<g id="edge40" class="edge">
<title>Node30&#45;&gt;Node18</title>
<path fill="none" stroke="midnightblue" d="M1308.02,-179.4C1293.31,-171.58 1272.67,-158.85 1258.88,-143 1244.02,-125.93 1233.63,-101.84 1227.72,-85.39"/>
<polygon fill="midnightblue" stroke="midnightblue" points="1231.01,-84.18 1224.49,-75.83 1224.38,-86.43 1231.01,-84.18"/>
</g>
<!-- Node30&#45;&gt;Node27 -->
<g id="edge41" class="edge">
<title>Node30&#45;&gt;Node27</title>
<path fill="none" stroke="midnightblue" d="M1318.72,-179.41C1311.61,-170.63 1300.67,-156.4 1292.88,-143 1271.56,-106.38 1286.93,-82.51 1253.88,-56 1226.99,-34.44 1132.05,-21.14 1076.39,-15.01"/>
<polygon fill="midnightblue" stroke="midnightblue" points="1076.46,-11.5 1066.15,-13.92 1075.72,-18.46 1076.46,-11.5"/>
</g>
<!-- Node31 -->
<g id="node31" class="node">
<title>Node31</title>
<g id="a_node31"><a xlink:title=" ">
<polygon fill="none" stroke="#bfbfbf" points="1301.38,-118 1301.38,-137 1350.38,-137 1350.38,-118 1301.38,-118"/>
<text text-anchor="middle" x="1325.88" y="-125" font-family="Helvetica,sans-Serif" font-size="10.00">cstddef</text>
</a>
</g>
</g>
<!-- Node30&#45;&gt;Node31 -->
<g id="edge34" class="edge">
<title>Node30&#45;&gt;Node31</title>
<path fill="none" stroke="midnightblue" d="M1325.88,-179.48C1325.88,-171.08 1325.88,-157.98 1325.88,-147.16"/>
<polygon fill="midnightblue" stroke="midnightblue" points="1329.38,-147.01 1325.88,-137.01 1322.38,-147.01 1329.38,-147.01"/>
</g>
<!-- Node32 -->
<g id="node32" class="node">
<title>Node32</title>
<g id="a_node32"><a xlink:title=" ">
<polygon fill="none" stroke="#bfbfbf" points="1368.88,-118 1368.88,-137 1424.88,-137 1424.88,-118 1368.88,-118"/>
<text text-anchor="middle" x="1396.88" y="-125" font-family="Helvetica,sans-Serif" font-size="10.00">algorithm</text>
</a>
</g>
</g>
<!-- Node30&#45;&gt;Node32 -->
<g id="edge36" class="edge">
<title>Node30&#45;&gt;Node32</title>
<path fill="none" stroke="midnightblue" d="M1336.05,-179.48C1347.23,-170.11 1365.39,-154.88 1378.97,-143.51"/>
<polygon fill="midnightblue" stroke="midnightblue" points="1381.31,-146.11 1386.72,-137.01 1376.81,-140.75 1381.31,-146.11"/>
</g>
<!-- Node33 -->
<g id="node33" class="node">
<title>Node33</title>
<g id="a_node33"><a xlink:title=" ">
<polygon fill="none" stroke="#bfbfbf" points="1547.38,-118 1547.38,-137 1606.38,-137 1606.38,-118 1547.38,-118"/>
<text text-anchor="middle" x="1576.88" y="-125" font-family="Helvetica,sans-Serif" font-size="10.00">functional</text>
</a>
</g>
</g>
<!-- Node30&#45;&gt;Node33 -->
<g id="edge37" class="edge">
<title>Node30&#45;&gt;Node33</title>
<path fill="none" stroke="midnightblue" d="M1370.21,-179.75C1412.35,-171.59 1477.35,-158.14 1532.88,-143 1536.06,-142.13 1539.35,-141.17 1542.63,-140.17"/>
<polygon fill="midnightblue" stroke="midnightblue" points="1543.87,-143.45 1552.35,-137.09 1541.76,-136.77 1543.87,-143.45"/>
</g>
<!-- Node34 -->
<g id="node34" class="node">
<title>Node34</title>
<g id="a_node34"><a xlink:title=" ">
<polygon fill="none" stroke="#bfbfbf" points="1624.88,-118 1624.88,-137 1696.88,-137 1696.88,-118 1624.88,-118"/>
<text text-anchor="middle" x="1660.88" y="-125" font-family="Helvetica,sans-Serif" font-size="10.00">initializer_list</text>
</a>
</g>
</g>
<!-- Node30&#45;&gt;Node34 -->
<g id="edge38" class="edge">
<title>Node30&#45;&gt;Node34</title>
<path fill="none" stroke="midnightblue" d="M1370.02,-183.35C1427.23,-176.82 1529.86,-163.4 1615.88,-143 1619.52,-142.13 1623.3,-141.12 1627.05,-140.03"/>
<polygon fill="midnightblue" stroke="midnightblue" points="1628.26,-143.32 1636.79,-137.04 1626.2,-136.63 1628.26,-143.32"/>
</g>
<!-- Node35 -->
<g id="node35" class="node">
<title>Node35</title>
<g id="a_node35"><a xlink:title=" ">
<polygon fill="none" stroke="#bfbfbf" points="1443.38,-118 1443.38,-137 1490.38,-137 1490.38,-118 1443.38,-118"/>
<text text-anchor="middle" x="1466.88" y="-125" font-family="Helvetica,sans-Serif" font-size="10.00">iterator</text>
</a>
</g>
</g>
<!-- Node30&#45;&gt;Node35 -->
<g id="edge39" class="edge">
<title>Node30&#45;&gt;Node35</title>
<path fill="none" stroke="midnightblue" d="M1346.63,-179.49C1368.41,-170.53 1403.62,-155.95 1433.88,-143 1435.24,-142.42 1436.64,-141.81 1438.05,-141.2"/>
<polygon fill="midnightblue" stroke="midnightblue" points="1439.59,-144.35 1447.36,-137.15 1436.79,-137.93 1439.59,-144.35"/>
</g>
<!-- Node36&#45;&gt;Node13 -->
<g id="edge44" class="edge">
<title>Node36&#45;&gt;Node13</title>
<path fill="none" stroke="midnightblue" d="M1159.56,-117.99C1186.7,-110.05 1224.96,-96.35 1253.88,-76 1272.4,-62.96 1288.9,-42.7 1299.31,-28.27"/>
<polygon fill="midnightblue" stroke="midnightblue" points="1302.4,-29.97 1305.24,-19.76 1296.66,-25.96 1302.4,-29.97"/>
</g>
<!-- Node36&#45;&gt;Node14 -->
<g id="edge45" class="edge">
<title>Node36&#45;&gt;Node14</title>
<path fill="none" stroke="midnightblue" d="M1130.46,-117.98C1135.12,-109.32 1142.47,-95.65 1148.39,-84.65"/>
<polygon fill="midnightblue" stroke="midnightblue" points="1151.65,-85.97 1153.3,-75.51 1145.48,-82.66 1151.65,-85.97"/>
</g>
<!-- Node37&#45;&gt;Node10 -->
<g id="edge49" class="edge">
<title>Node37&#45;&gt;Node10</title>
<path fill="none" stroke="midnightblue" d="M458.26,-179.48C493.92,-170.08 551.95,-154.81 595.2,-143.42"/>
<polygon fill="midnightblue" stroke="midnightblue" points="596.24,-146.77 605.02,-140.84 594.45,-140 596.24,-146.77"/>
</g>
<!-- Node37&#45;&gt;Node11 -->
<g id="edge50" class="edge">
<title>Node37&#45;&gt;Node11</title>
<path fill="none" stroke="midnightblue" d="M442.35,-179.48C458.58,-171.08 483.91,-157.97 504.82,-147.15"/>
<polygon fill="midnightblue" stroke="midnightblue" points="506.5,-150.23 513.77,-142.52 503.28,-144.01 506.5,-150.23"/>
</g>
<!-- Node38 -->
<g id="node38" class="node">
<title>Node38</title>
<g id="a_node38"><a xlink:title=" ">
<polygon fill="none" stroke="#bfbfbf" points="374.38,-118 374.38,-137 417.38,-137 417.38,-118 374.38,-118"/>
<text text-anchor="middle" x="395.88" y="-125" font-family="Helvetica,sans-Serif" font-size="10.00">queue</text>
</a>
</g>
</g>
<!-- Node37&#45;&gt;Node38 -->
<g id="edge47" class="edge">
<title>Node37&#45;&gt;Node38</title>
<path fill="none" stroke="midnightblue" d="M421.58,-179.48C417.21,-170.82 410.32,-157.15 404.77,-146.15"/>
<polygon fill="midnightblue" stroke="midnightblue" points="407.79,-144.36 400.17,-137.01 401.54,-147.51 407.79,-144.36"/>
</g>
<!-- Node39 -->
<g id="node39" class="node">
<title>Node39</title>
<g id="a_node39"><a xlink:title=" ">
<polygon fill="none" stroke="#bfbfbf" points="435.38,-118 435.38,-137 476.38,-137 476.38,-118 435.38,-118"/>
<text text-anchor="middle" x="455.88" y="-125" font-family="Helvetica,sans-Serif" font-size="10.00">stack</text>
</a>
</g>
</g>
<!-- Node37&#45;&gt;Node39 -->
<g id="edge48" class="edge">
<title>Node37&#45;&gt;Node39</title>
<path fill="none" stroke="midnightblue" d="M430.17,-179.48C434.54,-170.82 441.43,-157.15 446.98,-146.15"/>
<polygon fill="midnightblue" stroke="midnightblue" points="450.21,-147.51 451.59,-137.01 443.96,-144.36 450.21,-147.51"/>
</g>
<!-- Node40 -->
<g id="node40" class="node">
<title>Node40</title>
<g id="a_node40"><a xlink:title=" ">
<polygon fill="none" stroke="#bfbfbf" points="136.38,-112.5 136.38,-142.5 237.38,-142.5 237.38,-112.5 136.38,-112.5"/>
<text text-anchor="start" x="144.38" y="-130.5" font-family="Helvetica,sans-Serif" font-size="10.00">absl/container/node</text>
<text text-anchor="middle" x="186.88" y="-119.5" font-family="Helvetica,sans-Serif" font-size="10.00">_hash_map.h</text>
</a>
</g>
</g>
<!-- Node37&#45;&gt;Node40 -->
<g id="edge51" class="edge">
<title>Node37&#45;&gt;Node40</title>
<path fill="none" stroke="midnightblue" d="M391.63,-179.48C354.11,-170.13 293.2,-154.97 247.55,-143.61"/>
<polygon fill="midnightblue" stroke="midnightblue" points="248.31,-140.19 237.76,-141.17 246.62,-146.98 248.31,-140.19"/>
</g>
<!-- Node41 -->
<g id="node41" class="node">
<title>Node41</title>
<g id="a_node41"><a xlink:title=" ">
<polygon fill="none" stroke="#bfbfbf" points="255.38,-112.5 255.38,-142.5 356.38,-142.5 356.38,-112.5 255.38,-112.5"/>
<text text-anchor="start" x="263.38" y="-130.5" font-family="Helvetica,sans-Serif" font-size="10.00">absl/container/node</text>
<text text-anchor="middle" x="305.88" y="-119.5" font-family="Helvetica,sans-Serif" font-size="10.00">_hash_set.h</text>
</a>
</g>
</g>
<!-- Node37&#45;&gt;Node41 -->
<g id="edge52" class="edge">
<title>Node37&#45;&gt;Node41</title>
<path fill="none" stroke="midnightblue" d="M408.68,-179.48C391.67,-171.04 365.08,-157.86 343.2,-147.01"/>
<polygon fill="midnightblue" stroke="midnightblue" points="344.67,-143.83 334.16,-142.52 341.56,-150.1 344.67,-143.83"/>
</g>
<!-- Node37&#45;&gt;Node42 -->
<g id="edge53" class="edge">
<title>Node37&#45;&gt;Node42</title>
<path fill="none" stroke="midnightblue" d="M372.34,-181.87C312.24,-174.55 212.01,-160.99 126.88,-143 122.17,-142 117.25,-140.84 112.4,-139.61"/>
<polygon fill="midnightblue" stroke="midnightblue" points="113.17,-136.19 102.61,-137.02 111.38,-142.96 113.17,-136.19"/>
</g>
<!-- Node42&#45;&gt;Node23 -->
<g id="edge54" class="edge">
<title>Node42&#45;&gt;Node23</title>
<path fill="none" stroke="midnightblue" d="M101.16,-117.99C109.36,-115.72 118.42,-113.48 126.88,-112 320.46,-78.05 374.84,-99.43 574.66,-75.9"/>
<polygon fill="midnightblue" stroke="midnightblue" points="575.09,-79.38 584.6,-74.71 574.25,-72.43 575.09,-79.38"/>
</g>
<!-- Node43&#45;&gt;Node8 -->
<g id="edge62" class="edge">
<title>Node43&#45;&gt;Node8</title>
<path fill="none" stroke="midnightblue" d="M1189.75,-411.9C1027.69,-411.21 381.59,-406.03 182.88,-367 99,-350.53 1.88,-387.47 1.88,-302 1.88,-302 1.88,-302 1.88,-188 1.88,-153.18 -5.63,-134.58 20.88,-112 58.58,-79.88 408.2,-69.9 515.02,-67.59"/>
<polygon fill="midnightblue" stroke="midnightblue" points="515.22,-71.08 525.14,-67.38 515.07,-64.09 515.22,-71.08"/>
</g>
<!-- Node43&#45;&gt;Node13 -->
<g id="edge58" class="edge">
<title>Node43&#45;&gt;Node13</title>
<path fill="none" stroke="midnightblue" d="M1264.22,-411.23C1378.5,-408.54 1717.97,-398 1755.88,-367 1779.17,-347.94 1774.88,-332.1 1774.88,-302 1774.88,-302 1774.88,-302 1774.88,-126.5 1774.88,-38.03 1453.2,-16.81 1345.52,-12.19"/>
<polygon fill="midnightblue" stroke="midnightblue" points="1345.63,-8.69 1335.49,-11.78 1345.34,-15.68 1345.63,-8.69"/>
</g>
<!-- Node43&#45;&gt;Node16 -->
<g id="edge61" class="edge">
<title>Node43&#45;&gt;Node16</title>
<path fill="none" stroke="midnightblue" d="M1264.17,-411.91C1318.14,-410.47 1420.07,-402.72 1497.88,-367 1621.34,-310.32 1659.4,-270.66 1705.88,-143 1710.59,-130.05 1714.84,-122.46 1705.88,-112 1673.67,-74.44 1523.8,-67.95 1452.62,-67.02"/>
<polygon fill="midnightblue" stroke="midnightblue" points="1452.33,-63.52 1442.3,-66.92 1452.26,-70.52 1452.33,-63.52"/>
</g>
<!-- Node43&#45;&gt;Node33 -->
<g id="edge59" class="edge">
<title>Node43&#45;&gt;Node33</title>
<path fill="none" stroke="midnightblue" d="M1263.94,-409.16C1324.22,-402.31 1436.88,-379.17 1436.88,-302 1436.88,-302 1436.88,-302 1436.88,-244 1436.88,-190.33 1498.86,-156.94 1540.34,-140.61"/>
<polygon fill="midnightblue" stroke="midnightblue" points="1541.76,-143.82 1549.88,-137.01 1539.29,-137.27 1541.76,-143.82"/>
</g>
<!-- Node43&#45;&gt;Node34 -->
<g id="edge60" class="edge">
<title>Node43&#45;&gt;Node34</title>
<path fill="none" stroke="midnightblue" d="M1264.16,-407.41C1349.52,-395.87 1551.88,-362.16 1551.88,-302 1551.88,-302 1551.88,-302 1551.88,-244 1551.88,-196.32 1601.61,-160.35 1633.89,-142.03"/>
<polygon fill="midnightblue" stroke="midnightblue" points="1635.78,-144.99 1642.88,-137.13 1632.42,-138.85 1635.78,-144.99"/>
</g>
<!-- Node43&#45;&gt;Node42 -->
<g id="edge70" class="edge">
<title>Node43&#45;&gt;Node42</title>
<path fill="none" stroke="midnightblue" d="M1189.71,-412.33C995.89,-413.55 109.88,-413.07 109.88,-302 109.88,-302 109.88,-302 109.88,-244 109.88,-208.1 93.83,-168.65 83.16,-146.39"/>
<polygon fill="midnightblue" stroke="midnightblue" points="86.17,-144.59 78.58,-137.2 79.9,-147.71 86.17,-144.59"/>
</g>
<!-- Node44 -->
<g id="node44" class="node">
<title>Node44</title>
<g id="a_node44"><a xlink:href="axiom_8h.html" target="_top" xlink:title=" ">
<polygon fill="none" stroke="black" points="1080.38,-347.5 1080.38,-366.5 1157.38,-366.5 1157.38,-347.5 1080.38,-347.5"/>
<text text-anchor="middle" x="1118.88" y="-354.5" font-family="Helvetica,sans-Serif" font-size="10.00">thorin/axiom.h</text>
</a>
</g>
</g>
<!-- Node43&#45;&gt;Node44 -->
<g id="edge63" class="edge">
<title>Node43&#45;&gt;Node44</title>
<path fill="none" stroke="midnightblue" d="M1209.52,-403.32C1192.2,-394.66 1165.36,-381.24 1145.37,-371.25"/>
<polygon fill="midnightblue" stroke="midnightblue" points="1146.69,-368 1136.18,-366.65 1143.56,-374.26 1146.69,-368"/>
</g>
<!-- Node45 -->
<g id="node45" class="node">
<title>Node45</title>
<g id="a_node45"><a xlink:title=" ">
<polygon fill="none" stroke="#bfbfbf" points="1669.38,-347.5 1669.38,-366.5 1746.38,-366.5 1746.38,-347.5 1669.38,-347.5"/>
<text text-anchor="middle" x="1707.88" y="-354.5" font-family="Helvetica,sans-Serif" font-size="10.00">thorin/config.h</text>
</a>
</g>
</g>
<!-- Node43&#45;&gt;Node45 -->
<g id="edge65" class="edge">
<title>Node43&#45;&gt;Node45</title>
<path fill="none" stroke="midnightblue" d="M1263.9,-408.9C1338.2,-402.52 1510.72,-386.8 1654.88,-367 1656.18,-366.82 1657.49,-366.64 1658.82,-366.44"/>
<polygon fill="midnightblue" stroke="midnightblue" points="1659.77,-369.84 1669.13,-364.87 1658.72,-362.92 1659.77,-369.84"/>
</g>
<!-- Node46 -->
<g id="node46" class="node">
<title>Node46</title>
<g id="a_node46"><a xlink:href="lattice_8h.html" target="_top" xlink:title=" ">
<polygon fill="none" stroke="black" points="1188.38,-291.5 1188.38,-310.5 1265.38,-310.5 1265.38,-291.5 1188.38,-291.5"/>
<text text-anchor="middle" x="1226.88" y="-298.5" font-family="Helvetica,sans-Serif" font-size="10.00">thorin/lattice.h</text>
</a>
</g>
</g>
<!-- Node43&#45;&gt;Node46 -->
<g id="edge66" class="edge">
<title>Node43&#45;&gt;Node46</title>
<path fill="none" stroke="midnightblue" d="M1226.88,-403.37C1226.88,-385.62 1226.88,-344.67 1226.88,-320.6"/>
<polygon fill="midnightblue" stroke="midnightblue" points="1230.38,-320.59 1226.88,-310.59 1223.38,-320.59 1230.38,-320.59"/>
</g>
<!-- Node47 -->
<g id="node47" class="node">
<title>Node47</title>
<g id="a_node47"><a xlink:href="tuple_8h.html" target="_top" xlink:title=" ">
<polygon fill="none" stroke="black" points="1097.88,-291.5 1097.88,-310.5 1169.88,-310.5 1169.88,-291.5 1097.88,-291.5"/>
<text text-anchor="middle" x="1133.88" y="-298.5" font-family="Helvetica,sans-Serif" font-size="10.00">thorin/tuple.h</text>
</a>
</g>
</g>
<!-- Node43&#45;&gt;Node47 -->
<g id="edge68" class="edge">
<title>Node43&#45;&gt;Node47</title>
<path fill="none" stroke="midnightblue" d="M1219.58,-403.37C1204.09,-385.05 1167.74,-342.05 1147.71,-318.36"/>
<polygon fill="midnightblue" stroke="midnightblue" points="1150.27,-315.97 1141.14,-310.59 1144.92,-320.49 1150.27,-315.97"/>
</g>
<!-- Node44&#45;&gt;Node2 -->
<g id="edge64" class="edge">
<title>Node44&#45;&gt;Node2</title>
<path fill="none" stroke="midnightblue" d="M1107.15,-347.32C1096.04,-339.11 1079.13,-326.6 1065.89,-316.81"/>
<polygon fill="midnightblue" stroke="midnightblue" points="1067.94,-313.97 1057.82,-310.83 1063.78,-319.59 1067.94,-313.97"/>
</g>
<!-- Node46&#45;&gt;Node4 -->
<g id="edge67" class="edge">
<title>Node46&#45;&gt;Node4</title>
<path fill="none" stroke="midnightblue" d="M1198.2,-291.44C1167.35,-282.24 1118.15,-267.56 1084.05,-257.39"/>
<polygon fill="midnightblue" stroke="midnightblue" points="1085,-254.02 1074.42,-254.52 1083,-260.73 1085,-254.02"/>
</g>
<!-- Node47&#45;&gt;Node4 -->
<g id="edge69" class="edge">
<title>Node47&#45;&gt;Node4</title>
<path fill="none" stroke="midnightblue" d="M1119.74,-291.32C1106.01,-282.9 1084.94,-269.97 1068.81,-260.07"/>
<polygon fill="midnightblue" stroke="midnightblue" points="1070.33,-256.9 1059.98,-254.65 1066.67,-262.87 1070.33,-256.9"/>
</g>
</g>
</svg>
