<?xml version="1.0" encoding="UTF-8" standalone="no"?>
<!DOCTYPE svg PUBLIC "-//W3C//DTD SVG 1.1//EN"
 "http://www.w3.org/Graphics/SVG/1.1/DTD/svg11.dtd">
<!-- Generated by graphviz version 2.43.0 (0)
 -->
<!-- Title: src/mim/lattice.cpp Pages: 1 -->
<!--zoomable 368 -->

<svg id="main" version="1.1" xmlns="http://www.w3.org/2000/svg" xmlns:xlink="http://www.w3.org/1999/xlink" xml:space="preserve" onload="init(evt)">

<style type="text/css"><![CDATA[
.node, .edge {opacity: 0.7;}
.node.selected, .edge.selected {opacity: 1;}
.edge:hover path { stroke: red; }
.edge:hover polygon { stroke: red; fill: red; }
]]></style>

<defs>
  <circle id="rim" cx="0" cy="0" r="7"/>
  <circle id="rim2" cx="0" cy="0" r="3.5"/>
  <g id="zoomPlus">
    <use xlink:href="#rim" fill="#404040"><set attributeName="fill" to="#808080" begin="zoomplus.mouseover" end="zoomplus.mouseout"/></use>
    <path d="M-4,0h8M0,-4v8" fill="none" stroke="white" stroke-width="1.5" pointer-events="none"/>
  </g>
  <g id="zoomMin">
    <use xlink:href="#rim" fill="#404040"><set attributeName="fill" to="#808080" begin="zoomminus.mouseover" end="zoomminus.mouseout"/></use>
    <path d="M-4,0h8" fill="none" stroke="white" stroke-width="1.5" pointer-events="none"/>
  </g>
  <g id="arrowUp" transform="translate(30 24)">
    <use xlink:href="#rim"/>
    <path pointer-events="none" fill="none" stroke="white" stroke-width="1.5" d="M0,-3.0v7 M-2.5,-0.5L0,-3.0L2.5,-0.5"/>
  </g>
  <g id="arrowRight" transform="rotate(90) translate(36 -43)">
    <use xlink:href="#rim"/>
    <path pointer-events="none" fill="none" stroke="white" stroke-width="1.5" d="M0,-3.0v7 M-2.5,-0.5L0,-3.0L2.5,-0.5"/>
  </g>
  <g id="arrowDown" transform="rotate(180) translate(-30 -48)">
    <use xlink:href="#rim"/>
    <path pointer-events="none" fill="none" stroke="white" stroke-width="1.5" d="M0,-3.0v7 M-2.5,-0.5L0,-3.0L2.5,-0.5"/>
  </g>
  <g id="arrowLeft" transform="rotate(270) translate(-36 17)">
    <use xlink:href="#rim"/>
    <path pointer-events="none" fill="none" stroke="white" stroke-width="1.5" d="M0,-3.0v7 M-2.5,-0.5L0,-3.0L2.5,-0.5"/>
  </g>
  <g id="resetDef">
    <use xlink:href="#rim2" fill="#404040"><set attributeName="fill" to="#808080" begin="reset.mouseover" end="reset.mouseout"/></use>
  </g>
</defs>
<script type="application/ecmascript">
var viewWidth = 1667;
var viewHeight = 368;
var sectionId = 'dynsection-0';
</script>
<script type="application/ecmascript" xlink:href="svg.min.js"/>
<svg id="graph" class="graph">
<g id="viewport">
<title>src/mim/lattice.cpp</title>
<!-- Node1 -->
<g id="Node000001" class="node">
<title>Node1</title>
<g id="a_Node000001"><a xlink:title=" ">
<polygon fill="#999999" stroke="#666666" points="888,-360 778,-360 778,-341 888,-341 888,-360"/>
<text text-anchor="middle" x="833" y="-348" font-family="Helvetica,sans-Serif" font-size="10.00">src/mim/lattice.cpp</text>
</a>
</g>
</g>
<!-- Node2 -->
<g id="Node000002" class="node">
<title>Node2</title>
<g id="a_Node000002"><a xlink:href="lattice_8h.html" target="_top" xlink:title=" ">
<polygon fill="white" stroke="#666666" points="840,-305 758,-305 758,-286 840,-286 840,-305"/>
<text text-anchor="middle" x="799" y="-293" font-family="Helvetica,sans-Serif" font-size="10.00">mim/lattice.h</text>
</a>
</g>
</g>
<!-- Node1&#45;&gt;Node2 -->
<g id="edge1_Node000001_Node000002" class="edge">
<title>Node1&#45;&gt;Node2</title>
<g id="a_edge1_Node000001_Node000002"><a xlink:title=" ">
<path fill="none" stroke="#63b8ff" d="M827.39,-340.75C822.68,-333.42 815.83,-322.73 810.03,-313.7"/>
<polygon fill="#63b8ff" stroke="#63b8ff" points="812.86,-311.62 804.51,-305.09 806.96,-315.4 812.86,-311.62"/>
</a>
</g>
</g>
<!-- Node26 -->
<g id="Node000026" class="node">
<title>Node26</title>
<g id="a_Node000026"><a xlink:href="util_8h.html" target="_top" xlink:title=" ">
<polygon fill="white" stroke="#666666" points="1052,-140 966,-140 966,-121 1052,-121 1052,-140"/>
<text text-anchor="middle" x="1009" y="-128" font-family="Helvetica,sans-Serif" font-size="10.00">mim/util/util.h</text>
</a>
</g>
</g>
<!-- Node1&#45;&gt;Node26 -->
<g id="edge53_Node000001_Node000026" class="edge">
<title>Node1&#45;&gt;Node26</title>
<g id="a_edge53_Node000001_Node000026"><a xlink:title=" ">
<path fill="none" stroke="#63b8ff" d="M840.55,-340.97C860.9,-317.91 918.33,-252.18 963,-195 975,-179.63 987.98,-161.58 997.07,-148.66"/>
<polygon fill="#63b8ff" stroke="#63b8ff" points="1000.08,-150.47 1002.95,-140.27 994.34,-146.46 1000.08,-150.47"/>
</a>
</g>
</g>
<!-- Node3 -->
<g id="Node000003" class="node">
<title>Node3</title>
<g id="a_Node000003"><a xlink:href="def_8h.html" target="_top" xlink:title=" ">
<polygon fill="white" stroke="#666666" points="745,-250 679,-250 679,-231 745,-231 745,-250"/>
<text text-anchor="middle" x="712" y="-238" font-family="Helvetica,sans-Serif" font-size="10.00">mim/def.h</text>
</a>
</g>
</g>
<!-- Node2&#45;&gt;Node3 -->
<g id="edge2_Node000002_Node000003" class="edge">
<title>Node2&#45;&gt;Node3</title>
<g id="a_edge2_Node000002_Node000003"><a xlink:title=" ">
<path fill="none" stroke="#63b8ff" d="M785.02,-285.98C771.53,-277.77 750.87,-265.18 734.96,-255.49"/>
<polygon fill="#63b8ff" stroke="#63b8ff" points="736.59,-252.38 726.23,-250.17 732.95,-258.36 736.59,-252.38"/>
</a>
</g>
</g>
<!-- Node4 -->
<g id="Node000004" class="node">
<title>Node4</title>
<g id="a_Node000004"><a xlink:title=" ">
<polygon fill="#e0e0e0" stroke="#999999" points="954,-195 898,-195 898,-176 954,-176 954,-195"/>
<text text-anchor="middle" x="926" y="-183" font-family="Helvetica,sans-Serif" font-size="10.00">optional</text>
</a>
</g>
</g>
<!-- Node3&#45;&gt;Node4 -->
<g id="edge3_Node000003_Node000004" class="edge">
<title>Node3&#45;&gt;Node4</title>
<g id="a_edge3_Node000003_Node000004"><a xlink:title=" ">
<path fill="none" stroke="#63b8ff" d="M745.44,-231.22C784.13,-221.64 847.68,-205.9 888.15,-195.87"/>
<polygon fill="#63b8ff" stroke="#63b8ff" points="889.05,-199.26 897.91,-193.46 887.37,-192.46 889.05,-199.26"/>
</a>
</g>
</g>
<!-- Node5 -->
<g id="Node000005" class="node">
<title>Node5</title>
<g id="a_Node000005"><a xlink:title=" ">
<polygon fill="#e0e0e0" stroke="#999999" points="472,-79.5 404,-79.5 404,-60.5 472,-60.5 472,-79.5"/>
<text text-anchor="middle" x="438" y="-67.5" font-family="Helvetica,sans-Serif" font-size="10.00">fe/assert.h</text>
</a>
</g>
</g>
<!-- Node3&#45;&gt;Node5 -->
<g id="edge4_Node000003_Node000005" class="edge">
<title>Node3&#45;&gt;Node5</title>
<g id="a_edge4_Node000003_Node000005"><a xlink:title=" ">
<path fill="none" stroke="#63b8ff" d="M678.75,-238.04C591.05,-233.86 358.62,-220.46 336,-195 301.3,-155.95 372.06,-107.62 412.48,-84.53"/>
<polygon fill="#63b8ff" stroke="#63b8ff" points="414.28,-87.53 421.31,-79.61 410.87,-81.42 414.28,-87.53"/>
</a>
</g>
</g>
<!-- Node6 -->
<g id="Node000006" class="node">
<title>Node6</title>
<g id="a_Node000006"><a xlink:title=" ">
<polygon fill="#e0e0e0" stroke="#999999" points="404.5,-195 345.5,-195 345.5,-176 404.5,-176 404.5,-195"/>
<text text-anchor="middle" x="375" y="-183" font-family="Helvetica,sans-Serif" font-size="10.00">fe/cast.h</text>
</a>
</g>
</g>
<!-- Node3&#45;&gt;Node6 -->
<g id="edge5_Node000003_Node000006" class="edge">
<title>Node3&#45;&gt;Node6</title>
<g id="a_edge5_Node000003_Node000006"><a xlink:title=" ">
<path fill="none" stroke="#63b8ff" d="M678.81,-235.28C625.37,-228.32 516.76,-213.52 414.63,-195"/>
<polygon fill="#63b8ff" stroke="#63b8ff" points="415.24,-191.56 404.77,-193.2 413.98,-198.44 415.24,-191.56"/>
</a>
</g>
</g>
<!-- Node7 -->
<g id="Node000007" class="node">
<title>Node7</title>
<g id="a_Node000007"><a xlink:title=" ">
<polygon fill="#e0e0e0" stroke="#999999" points="489,-195 423,-195 423,-176 489,-176 489,-195"/>
<text text-anchor="middle" x="456" y="-183" font-family="Helvetica,sans-Serif" font-size="10.00">fe/enum.h</text>
</a>
</g>
</g>
<!-- Node3&#45;&gt;Node7 -->
<g id="edge6_Node000003_Node000007" class="edge">
<title>Node3&#45;&gt;Node7</title>
<g id="a_edge6_Node000003_Node000007"><a xlink:title=" ">
<path fill="none" stroke="#63b8ff" d="M678.79,-232.63C632.85,-223.11 549.84,-205.93 499.14,-195.43"/>
<polygon fill="#63b8ff" stroke="#63b8ff" points="499.65,-191.96 489.15,-193.36 498.23,-198.82 499.65,-191.96"/>
</a>
</g>
</g>
<!-- Node8 -->
<g id="Node000008" class="node">
<title>Node8</title>
<g id="a_Node000008"><a xlink:href="config_8h.html" target="_top" xlink:title=" ">
<polygon fill="white" stroke="#666666" points="587,-195 507,-195 507,-176 587,-176 587,-195"/>
<text text-anchor="middle" x="547" y="-183" font-family="Helvetica,sans-Serif" font-size="10.00">mim/config.h</text>
</a>
</g>
</g>
<!-- Node3&#45;&gt;Node8 -->
<g id="edge7_Node000003_Node000008" class="edge">
<title>Node3&#45;&gt;Node8</title>
<g id="a_edge7_Node000003_Node000008"><a xlink:title=" ">
<path fill="none" stroke="#63b8ff" d="M685.49,-230.98C657.79,-222.09 614.14,-208.07 583.26,-198.15"/>
<polygon fill="#63b8ff" stroke="#63b8ff" points="584.31,-194.81 573.72,-195.08 582.17,-201.47 584.31,-194.81"/>
</a>
</g>
</g>
<!-- Node9 -->
<g id="Node000009" class="node">
<title>Node9</title>
<g id="a_Node000009"><a xlink:href="dbg_8h.html" target="_top" xlink:title=" ">
<polygon fill="white" stroke="#666666" points="693,-195 605,-195 605,-176 693,-176 693,-195"/>
<text text-anchor="middle" x="649" y="-183" font-family="Helvetica,sans-Serif" font-size="10.00">mim/util/dbg.h</text>
</a>
</g>
</g>
<!-- Node3&#45;&gt;Node9 -->
<g id="edge8_Node000003_Node000009" class="edge">
<title>Node3&#45;&gt;Node9</title>
<g id="a_edge8_Node000003_Node000009"><a xlink:title=" ">
<path fill="none" stroke="#63b8ff" d="M701.88,-230.98C692.56,-223.15 678.53,-211.34 667.26,-201.86"/>
<polygon fill="#63b8ff" stroke="#63b8ff" points="669.21,-198.93 659.31,-195.17 664.71,-204.29 669.21,-198.93"/>
</a>
</g>
</g>
<!-- Node22 -->
<g id="Node000022" class="node">
<title>Node22</title>
<g id="a_Node000022"><a xlink:href="sets_8h.html" target="_top" xlink:title=" ">
<polygon fill="white" stroke="#666666" points="842,-195 752,-195 752,-176 842,-176 842,-195"/>
<text text-anchor="middle" x="797" y="-183" font-family="Helvetica,sans-Serif" font-size="10.00">mim/util/sets.h</text>
</a>
</g>
</g>
<!-- Node3&#45;&gt;Node22 -->
<g id="edge22_Node000003_Node000022" class="edge">
<title>Node3&#45;&gt;Node22</title>
<g id="a_edge22_Node000003_Node000022"><a xlink:title=" ">
<path fill="none" stroke="#63b8ff" d="M725.66,-230.98C738.84,-222.77 759.03,-210.18 774.57,-200.49"/>
<polygon fill="#63b8ff" stroke="#63b8ff" points="776.46,-203.43 783.09,-195.17 772.76,-197.49 776.46,-203.43"/>
</a>
</g>
</g>
<!-- Node3&#45;&gt;Node26 -->
<g id="edge51_Node000003_Node000026" class="edge">
<title>Node3&#45;&gt;Node26</title>
<g id="a_edge51_Node000003_Node000026"><a xlink:title=" ">
<path fill="none" stroke="#63b8ff" d="M743.4,-230.95C771.9,-222.83 814.86,-209.72 851,-195 868.49,-187.88 871.68,-183.52 889,-176 917.13,-163.8 949.8,-151.82 973.94,-143.37"/>
<polygon fill="#63b8ff" stroke="#63b8ff" points="975.1,-146.67 983.4,-140.09 972.8,-140.06 975.1,-146.67"/>
</a>
</g>
</g>
<!-- Node38 -->
<g id="Node000038" class="node">
<title>Node38</title>
<g id="a_Node000038"><a xlink:href="vector_8h.html" target="_top" xlink:title=" ">
<polygon fill="white" stroke="#666666" points="1346,-140 1246,-140 1246,-121 1346,-121 1346,-140"/>
<text text-anchor="middle" x="1296" y="-128" font-family="Helvetica,sans-Serif" font-size="10.00">mim/util/vector.h</text>
</a>
</g>
</g>
<!-- Node3&#45;&gt;Node38 -->
<g id="edge52_Node000003_Node000038" class="edge">
<title>Node3&#45;&gt;Node38</title>
<g id="a_edge52_Node000003_Node000038"><a xlink:title=" ">
<path fill="none" stroke="#63b8ff" d="M745.32,-233.73C793.42,-225.38 885.09,-209.33 963,-195 1061.62,-176.86 1176.48,-154.73 1242.27,-141.97"/>
<polygon fill="#63b8ff" stroke="#63b8ff" points="1243.25,-145.34 1252.4,-140 1241.91,-138.47 1243.25,-145.34"/>
</a>
</g>
</g>
<!-- Node10 -->
<g id="Node000010" class="node">
<title>Node10</title>
<g id="a_Node000010"><a xlink:title=" ">
<polygon fill="#e0e0e0" stroke="#999999" points="594,-85 490,-85 490,-55 594,-55 594,-85"/>
<text text-anchor="start" x="498" y="-73" font-family="Helvetica,sans-Serif" font-size="10.00">absl/container/flat</text>
<text text-anchor="middle" x="542" y="-62" font-family="Helvetica,sans-Serif" font-size="10.00">_hash_map.h</text>
</a>
</g>
</g>
<!-- Node9&#45;&gt;Node10 -->
<g id="edge9_Node000009_Node000010" class="edge">
<title>Node9&#45;&gt;Node10</title>
<g id="a_edge9_Node000009_Node000010"><a xlink:title=" ">
<path fill="none" stroke="#63b8ff" d="M604.83,-177.27C529.67,-164.93 384.89,-141.05 384,-140 378.55,-133.55 379.01,-127.81 384,-121 390.06,-112.73 438.37,-98.16 480,-86.88"/>
<polygon fill="#63b8ff" stroke="#63b8ff" points="481.11,-90.2 489.86,-84.23 479.29,-83.44 481.11,-90.2"/>
</a>
</g>
</g>
<!-- Node11 -->
<g id="Node000011" class="node">
<title>Node11</title>
<g id="a_Node000011"><a xlink:title=" ">
<polygon fill="#e0e0e0" stroke="#999999" points="716,-85 612,-85 612,-55 716,-55 716,-85"/>
<text text-anchor="start" x="620" y="-73" font-family="Helvetica,sans-Serif" font-size="10.00">absl/container/flat</text>
<text text-anchor="middle" x="664" y="-62" font-family="Helvetica,sans-Serif" font-size="10.00">_hash_set.h</text>
</a>
</g>
</g>
<!-- Node9&#45;&gt;Node11 -->
<g id="edge10_Node000009_Node000011" class="edge">
<title>Node9&#45;&gt;Node11</title>
<g id="a_edge10_Node000009_Node000011"><a xlink:title=" ">
<path fill="none" stroke="#63b8ff" d="M648.21,-175.81C647.26,-163.53 646.15,-140.42 649,-121 650.28,-112.3 652.74,-103.01 655.31,-94.83"/>
<polygon fill="#63b8ff" stroke="#63b8ff" points="658.68,-95.78 658.53,-85.19 652.04,-93.56 658.68,-95.78"/>
</a>
</g>
</g>
<!-- Node12 -->
<g id="Node000012" class="node">
<title>Node12</title>
<g id="a_Node000012"><a xlink:title=" ">
<polygon fill="#e0e0e0" stroke="#999999" points="446.5,-140 393.5,-140 393.5,-121 446.5,-121 446.5,-140"/>
<text text-anchor="middle" x="420" y="-128" font-family="Helvetica,sans-Serif" font-size="10.00">fe/loc.h</text>
</a>
</g>
</g>
<!-- Node9&#45;&gt;Node12 -->
<g id="edge11_Node000009_Node000012" class="edge">
<title>Node9&#45;&gt;Node12</title>
<g id="a_edge11_Node000009_Node000012"><a xlink:title=" ">
<path fill="none" stroke="#63b8ff" d="M611.63,-175.94C574.79,-167.5 516.62,-154.12 456.75,-140.16"/>
<polygon fill="#63b8ff" stroke="#63b8ff" points="457.27,-136.69 446.73,-137.83 455.68,-143.51 457.27,-136.69"/>
</a>
</g>
</g>
<!-- Node13 -->
<g id="Node000013" class="node">
<title>Node13</title>
<g id="a_Node000013"><a xlink:title=" ">
<polygon fill="#e0e0e0" stroke="#999999" points="523.5,-140 464.5,-140 464.5,-121 523.5,-121 523.5,-140"/>
<text text-anchor="middle" x="494" y="-128" font-family="Helvetica,sans-Serif" font-size="10.00">fe/sym.h</text>
</a>
</g>
</g>
<!-- Node9&#45;&gt;Node13 -->
<g id="edge12_Node000009_Node000013" class="edge">
<title>Node9&#45;&gt;Node13</title>
<g id="a_edge12_Node000009_Node000013"><a xlink:title=" ">
<path fill="none" stroke="#63b8ff" d="M624.1,-175.98C598.3,-167.16 557.78,-153.31 528.82,-143.41"/>
<polygon fill="#63b8ff" stroke="#63b8ff" points="529.69,-140.01 519.1,-140.08 527.43,-146.63 529.69,-140.01"/>
</a>
</g>
</g>
<!-- Node14 -->
<g id="Node000014" class="node">
<title>Node14</title>
<g id="a_Node000014"><a xlink:title=" ">
<polygon fill="#e0e0e0" stroke="#999999" points="600.5,-140 541.5,-140 541.5,-121 600.5,-121 600.5,-140"/>
<text text-anchor="middle" x="571" y="-128" font-family="Helvetica,sans-Serif" font-size="10.00">rang.hpp</text>
</a>
</g>
</g>
<!-- Node9&#45;&gt;Node14 -->
<g id="edge13_Node000009_Node000014" class="edge">
<title>Node9&#45;&gt;Node14</title>
<g id="a_edge13_Node000009_Node000014"><a xlink:title=" ">
<path fill="none" stroke="#63b8ff" d="M636.47,-175.98C624.6,-167.92 606.54,-155.65 592.39,-146.03"/>
<polygon fill="#63b8ff" stroke="#63b8ff" points="594,-142.9 583.76,-140.17 590.06,-148.69 594,-142.9"/>
</a>
</g>
</g>
<!-- Node15 -->
<g id="Node000015" class="node">
<title>Node15</title>
<g id="a_Node000015"><a xlink:href="print_8h.html" target="_top" xlink:title=" ">
<polygon fill="white" stroke="#666666" points="269,-140 177,-140 177,-121 269,-121 269,-140"/>
<text text-anchor="middle" x="223" y="-128" font-family="Helvetica,sans-Serif" font-size="10.00">mim/util/print.h</text>
</a>
</g>
</g>
<!-- Node9&#45;&gt;Node15 -->
<g id="edge14_Node000009_Node000015" class="edge">
<title>Node9&#45;&gt;Node15</title>
<g id="a_edge14_Node000009_Node000015"><a xlink:title=" ">
<path fill="none" stroke="#63b8ff" d="M604.77,-177.27C601.81,-176.83 598.86,-176.4 596,-176 483.96,-160.34 352.49,-145.47 279.37,-137.51"/>
<polygon fill="#63b8ff" stroke="#63b8ff" points="279.33,-133.99 269.02,-136.39 278.58,-140.94 279.33,-133.99"/>
</a>
</g>
</g>
<!-- Node15&#45;&gt;Node5 -->
<g id="edge21_Node000015_Node000005" class="edge">
<title>Node15&#45;&gt;Node5</title>
<g id="a_edge21_Node000015_Node000005"><a xlink:title=" ">
<path fill="none" stroke="#63b8ff" d="M258.19,-120.93C292.87,-112.34 347.29,-98.5 394,-85 396.74,-84.21 399.58,-83.36 402.42,-82.5"/>
<polygon fill="#63b8ff" stroke="#63b8ff" points="403.5,-85.83 412.01,-79.52 401.42,-79.14 403.5,-85.83"/>
</a>
</g>
</g>
<!-- Node16 -->
<g id="Node000016" class="node">
<title>Node16</title>
<g id="a_Node000016"><a xlink:title=" ">
<polygon fill="#e0e0e0" stroke="#999999" points="385.5,-79.5 320.5,-79.5 320.5,-60.5 385.5,-60.5 385.5,-79.5"/>
<text text-anchor="middle" x="353" y="-67.5" font-family="Helvetica,sans-Serif" font-size="10.00">functional</text>
</a>
</g>
</g>
<!-- Node15&#45;&gt;Node16 -->
<g id="edge15_Node000015_Node000016" class="edge">
<title>Node15&#45;&gt;Node16</title>
<g id="a_edge15_Node000015_Node000016"><a xlink:title=" ">
<path fill="none" stroke="#63b8ff" d="M241.9,-120.99C263.66,-111.2 299.62,-95.02 324.71,-83.73"/>
<polygon fill="#63b8ff" stroke="#63b8ff" points="326.39,-86.81 334.07,-79.52 323.52,-80.43 326.39,-86.81"/>
</a>
</g>
</g>
<!-- Node17 -->
<g id="Node000017" class="node">
<title>Node17</title>
<g id="a_Node000017"><a xlink:title=" ">
<polygon fill="#e0e0e0" stroke="#999999" points="60,-79.5 0,-79.5 0,-60.5 60,-60.5 60,-79.5"/>
<text text-anchor="middle" x="30" y="-67.5" font-family="Helvetica,sans-Serif" font-size="10.00">iostream</text>
</a>
</g>
</g>
<!-- Node15&#45;&gt;Node17 -->
<g id="edge16_Node000015_Node000017" class="edge">
<title>Node15&#45;&gt;Node17</title>
<g id="a_edge16_Node000015_Node000017"><a xlink:title=" ">
<path fill="none" stroke="#63b8ff" d="M193.83,-120.96C163.76,-112.11 115.54,-97.81 74,-85 71.43,-84.21 68.78,-83.38 66.11,-82.55"/>
<polygon fill="#63b8ff" stroke="#63b8ff" points="67.09,-79.19 56.5,-79.52 64.99,-85.86 67.09,-79.19"/>
</a>
</g>
</g>
<!-- Node18 -->
<g id="Node000018" class="node">
<title>Node18</title>
<g id="a_Node000018"><a xlink:title=" ">
<polygon fill="#e0e0e0" stroke="#999999" points="843.5,-19 786.5,-19 786.5,0 843.5,0 843.5,-19"/>
<text text-anchor="middle" x="815" y="-7" font-family="Helvetica,sans-Serif" font-size="10.00">ostream</text>
</a>
</g>
</g>
<!-- Node15&#45;&gt;Node18 -->
<g id="edge17_Node000015_Node000018" class="edge">
<title>Node15&#45;&gt;Node18</title>
<g id="a_edge17_Node000015_Node000018"><a xlink:title=" ">
<path fill="none" stroke="#63b8ff" d="M186.86,-120.98C142.97,-109.05 78.19,-85.4 107,-55 156.61,-2.66 667.34,-27.54 776.38,-18.66"/>
<polygon fill="#63b8ff" stroke="#63b8ff" points="776.84,-22.13 786.41,-17.58 776.09,-15.17 776.84,-22.13"/>
</a>
</g>
</g>
<!-- Node19 -->
<g id="Node000019" class="node">
<title>Node19</title>
<g id="a_Node000019"><a xlink:title=" ">
<polygon fill="#e0e0e0" stroke="#999999" points="166,-79.5 116,-79.5 116,-60.5 166,-60.5 166,-79.5"/>
<text text-anchor="middle" x="141" y="-67.5" font-family="Helvetica,sans-Serif" font-size="10.00">ranges</text>
</a>
</g>
</g>
<!-- Node15&#45;&gt;Node19 -->
<g id="edge18_Node000015_Node000019" class="edge">
<title>Node15&#45;&gt;Node19</title>
<g id="a_edge18_Node000015_Node000019"><a xlink:title=" ">
<path fill="none" stroke="#63b8ff" d="M210.9,-120.87C197.94,-111.62 177.14,-96.78 161.6,-85.69"/>
<polygon fill="#63b8ff" stroke="#63b8ff" points="163.32,-82.63 153.15,-79.67 159.26,-88.32 163.32,-82.63"/>
</a>
</g>
</g>
<!-- Node20 -->
<g id="Node000020" class="node">
<title>Node20</title>
<g id="a_Node000020"><a xlink:title=" ">
<polygon fill="#e0e0e0" stroke="#999999" points="240,-79.5 184,-79.5 184,-60.5 240,-60.5 240,-79.5"/>
<text text-anchor="middle" x="212" y="-67.5" font-family="Helvetica,sans-Serif" font-size="10.00">sstream</text>
</a>
</g>
</g>
<!-- Node15&#45;&gt;Node20 -->
<g id="edge19_Node000015_Node000020" class="edge">
<title>Node15&#45;&gt;Node20</title>
<g id="a_edge19_Node000015_Node000020"><a xlink:title=" ">
<path fill="none" stroke="#63b8ff" d="M221.38,-120.87C219.83,-112.66 217.46,-100.04 215.49,-89.55"/>
<polygon fill="#63b8ff" stroke="#63b8ff" points="218.92,-88.85 213.63,-79.67 212.04,-90.14 218.92,-88.85"/>
</a>
</g>
</g>
<!-- Node21 -->
<g id="Node000021" class="node">
<title>Node21</title>
<g id="a_Node000021"><a xlink:title=" ">
<polygon fill="#e0e0e0" stroke="#999999" points="302,-79.5 258,-79.5 258,-60.5 302,-60.5 302,-79.5"/>
<text text-anchor="middle" x="280" y="-67.5" font-family="Helvetica,sans-Serif" font-size="10.00">string</text>
</a>
</g>
</g>
<!-- Node15&#45;&gt;Node21 -->
<g id="edge20_Node000015_Node000021" class="edge">
<title>Node15&#45;&gt;Node21</title>
<g id="a_edge20_Node000015_Node000021"><a xlink:title=" ">
<path fill="none" stroke="#63b8ff" d="M231.41,-120.87C240.08,-111.97 253.8,-97.89 264.46,-86.95"/>
<polygon fill="#63b8ff" stroke="#63b8ff" points="267.08,-89.27 271.55,-79.67 262.07,-84.39 267.08,-89.27"/>
</a>
</g>
</g>
<!-- Node23 -->
<g id="Node000023" class="node">
<title>Node23</title>
<g id="a_Node000023"><a xlink:title=" ">
<polygon fill="#e0e0e0" stroke="#999999" points="712.5,-140 657.5,-140 657.5,-121 712.5,-121 712.5,-140"/>
<text text-anchor="middle" x="685" y="-128" font-family="Helvetica,sans-Serif" font-size="10.00">fstream</text>
</a>
</g>
</g>
<!-- Node22&#45;&gt;Node23 -->
<g id="edge23_Node000022_Node000023" class="edge">
<title>Node22&#45;&gt;Node23</title>
<g id="a_edge23_Node000022_Node000023"><a xlink:title=" ">
<path fill="none" stroke="#63b8ff" d="M779.01,-175.98C761.07,-167.5 733.28,-154.35 712.57,-144.54"/>
<polygon fill="#63b8ff" stroke="#63b8ff" points="713.86,-141.28 703.32,-140.17 710.86,-147.61 713.86,-141.28"/>
</a>
</g>
</g>
<!-- Node24 -->
<g id="Node000024" class="node">
<title>Node24</title>
<g id="a_Node000024"><a xlink:href="link__cut__tree_8h.html" target="_top" xlink:title=" ">
<polygon fill="white" stroke="#666666" points="863.5,-140 730.5,-140 730.5,-121 863.5,-121 863.5,-140"/>
<text text-anchor="middle" x="797" y="-128" font-family="Helvetica,sans-Serif" font-size="10.00">mim/util/link_cut_tree.h</text>
</a>
</g>
</g>
<!-- Node22&#45;&gt;Node24 -->
<g id="edge24_Node000022_Node000024" class="edge">
<title>Node22&#45;&gt;Node24</title>
<g id="a_edge24_Node000022_Node000024"><a xlink:title=" ">
<path fill="none" stroke="#63b8ff" d="M797,-175.75C797,-168.8 797,-158.85 797,-150.13"/>
<polygon fill="#63b8ff" stroke="#63b8ff" points="800.5,-150.09 797,-140.09 793.5,-150.09 800.5,-150.09"/>
</a>
</g>
</g>
<!-- Node22&#45;&gt;Node26 -->
<g id="edge26_Node000022_Node000026" class="edge">
<title>Node22&#45;&gt;Node26</title>
<g id="a_edge26_Node000022_Node000026"><a xlink:title=" ">
<path fill="none" stroke="#63b8ff" d="M831.06,-175.98C867.42,-166.89 925.17,-152.46 964.97,-142.51"/>
<polygon fill="#63b8ff" stroke="#63b8ff" points="965.82,-145.9 974.67,-140.08 964.12,-139.11 965.82,-145.9"/>
</a>
</g>
</g>
<!-- Node22&#45;&gt;Node38 -->
<g id="edge46_Node000022_Node000038" class="edge">
<title>Node22&#45;&gt;Node38</title>
<g id="a_edge46_Node000022_Node000038"><a xlink:title=" ">
<path fill="none" stroke="#63b8ff" d="M842.16,-179.7C932.27,-170.13 1134.41,-148.66 1235.72,-137.9"/>
<polygon fill="#63b8ff" stroke="#63b8ff" points="1236.22,-141.37 1245.79,-136.83 1235.48,-134.41 1236.22,-141.37"/>
</a>
</g>
</g>
<!-- Node42 -->
<g id="Node000042" class="node">
<title>Node42</title>
<g id="a_Node000042"><a xlink:title=" ">
<polygon fill="#e0e0e0" stroke="#999999" points="948,-140 882,-140 882,-121 948,-121 948,-140"/>
<text text-anchor="middle" x="915" y="-128" font-family="Helvetica,sans-Serif" font-size="10.00">fe/arena.h</text>
</a>
</g>
</g>
<!-- Node22&#45;&gt;Node42 -->
<g id="edge50_Node000022_Node000042" class="edge">
<title>Node22&#45;&gt;Node42</title>
<g id="a_edge50_Node000022_Node000042"><a xlink:title=" ">
<path fill="none" stroke="#63b8ff" d="M815.96,-175.98C835.03,-167.42 864.66,-154.11 886.55,-144.28"/>
<polygon fill="#63b8ff" stroke="#63b8ff" points="888.01,-147.46 895.7,-140.17 885.14,-141.07 888.01,-147.46"/>
</a>
</g>
</g>
<!-- Node25 -->
<g id="Node000025" class="node">
<title>Node25</title>
<g id="a_Node000025"><a xlink:title=" ">
<polygon fill="#e0e0e0" stroke="#999999" points="768.5,-19 715.5,-19 715.5,0 768.5,0 768.5,-19"/>
<text text-anchor="middle" x="742" y="-7" font-family="Helvetica,sans-Serif" font-size="10.00">cstddef</text>
</a>
</g>
</g>
<!-- Node24&#45;&gt;Node25 -->
<g id="edge25_Node000024_Node000025" class="edge">
<title>Node24&#45;&gt;Node25</title>
<g id="a_edge25_Node000024_Node000025"><a xlink:title=" ">
<path fill="none" stroke="#63b8ff" d="M789.18,-120.91C781.76,-112.36 770.78,-98.6 764,-85 754.99,-66.94 749,-44.53 745.57,-29.03"/>
<polygon fill="#63b8ff" stroke="#63b8ff" points="748.98,-28.21 743.52,-19.13 742.12,-29.63 748.98,-28.21"/>
</a>
</g>
</g>
<!-- Node26&#45;&gt;Node5 -->
<g id="edge34_Node000026_Node000005" class="edge">
<title>Node26&#45;&gt;Node5</title>
<g id="a_edge34_Node000026_Node000005"><a xlink:title=" ">
<path fill="none" stroke="#63b8ff" d="M965.91,-122.16C962.9,-121.74 959.91,-121.35 957,-121 746.33,-95.86 689.13,-126.13 481,-85 477.58,-84.33 474.06,-83.46 470.57,-82.5"/>
<polygon fill="#63b8ff" stroke="#63b8ff" points="471.52,-79.13 460.94,-79.59 469.5,-85.83 471.52,-79.13"/>
</a>
</g>
</g>
<!-- Node26&#45;&gt;Node10 -->
<g id="edge30_Node000026_Node000010" class="edge">
<title>Node26&#45;&gt;Node10</title>
<g id="a_edge30_Node000026_Node000010"><a xlink:title=" ">
<path fill="none" stroke="#63b8ff" d="M965.9,-122.25C962.89,-121.81 959.9,-121.38 957,-121 803.44,-100.66 760.77,-110.32 604.15,-85.05"/>
<polygon fill="#63b8ff" stroke="#63b8ff" points="604.59,-81.58 594.16,-83.42 603.46,-88.49 604.59,-81.58"/>
</a>
</g>
</g>
<!-- Node26&#45;&gt;Node11 -->
<g id="edge31_Node000026_Node000011" class="edge">
<title>Node26&#45;&gt;Node11</title>
<g id="a_edge31_Node000026_Node000011"><a xlink:title=" ">
<path fill="none" stroke="#63b8ff" d="M965.65,-122.15C905.2,-111.9 795.21,-93.25 726.07,-81.52"/>
<polygon fill="#63b8ff" stroke="#63b8ff" points="726.62,-78.07 716.17,-79.85 725.45,-84.97 726.62,-78.07"/>
</a>
</g>
</g>
<!-- Node27 -->
<g id="Node000027" class="node">
<title>Node27</title>
<g id="a_Node000027"><a xlink:title=" ">
<polygon fill="#e0e0e0" stroke="#999999" points="969.5,-79.5 922.5,-79.5 922.5,-60.5 969.5,-60.5 969.5,-79.5"/>
<text text-anchor="middle" x="946" y="-67.5" font-family="Helvetica,sans-Serif" font-size="10.00">queue</text>
</a>
</g>
</g>
<!-- Node26&#45;&gt;Node27 -->
<g id="edge27_Node000026_Node000027" class="edge">
<title>Node26&#45;&gt;Node27</title>
<g id="a_edge27_Node000026_Node000027"><a xlink:title=" ">
<path fill="none" stroke="#63b8ff" d="M999.7,-120.87C990.03,-111.88 974.66,-97.61 962.84,-86.64"/>
<polygon fill="#63b8ff" stroke="#63b8ff" points="965.04,-83.91 955.33,-79.67 960.28,-89.04 965.04,-83.91"/>
</a>
</g>
</g>
<!-- Node28 -->
<g id="Node000028" class="node">
<title>Node28</title>
<g id="a_Node000028"><a xlink:title=" ">
<polygon fill="#e0e0e0" stroke="#999999" points="1030.5,-79.5 987.5,-79.5 987.5,-60.5 1030.5,-60.5 1030.5,-79.5"/>
<text text-anchor="middle" x="1009" y="-67.5" font-family="Helvetica,sans-Serif" font-size="10.00">stack</text>
</a>
</g>
</g>
<!-- Node26&#45;&gt;Node28 -->
<g id="edge28_Node000026_Node000028" class="edge">
<title>Node26&#45;&gt;Node28</title>
<g id="a_edge28_Node000026_Node000028"><a xlink:title=" ">
<path fill="none" stroke="#63b8ff" d="M1009,-120.87C1009,-112.75 1009,-100.31 1009,-89.89"/>
<polygon fill="#63b8ff" stroke="#63b8ff" points="1012.5,-89.67 1009,-79.67 1005.5,-89.67 1012.5,-89.67"/>
</a>
</g>
</g>
<!-- Node29 -->
<g id="Node000029" class="node">
<title>Node29</title>
<g id="a_Node000029"><a xlink:title=" ">
<polygon fill="#e0e0e0" stroke="#999999" points="930.5,-19 861.5,-19 861.5,0 930.5,0 930.5,-19"/>
<text text-anchor="middle" x="896" y="-7" font-family="Helvetica,sans-Serif" font-size="10.00">type_traits</text>
</a>
</g>
</g>
<!-- Node26&#45;&gt;Node29 -->
<g id="edge29_Node000026_Node000029" class="edge">
<title>Node26&#45;&gt;Node29</title>
<g id="a_edge29_Node000026_Node000029"><a xlink:title=" ">
<path fill="none" stroke="#63b8ff" d="M973.03,-120.95C952.87,-114.35 928.86,-103.2 914,-85 901.14,-69.26 897.22,-45.78 896.15,-29.4"/>
<polygon fill="#63b8ff" stroke="#63b8ff" points="899.64,-29.24 895.79,-19.38 892.65,-29.5 899.64,-29.24"/>
</a>
</g>
</g>
<!-- Node30 -->
<g id="Node000030" class="node">
<title>Node30</title>
<g id="a_Node000030"><a xlink:title=" ">
<polygon fill="#e0e0e0" stroke="#999999" points="1276.5,-85 1163.5,-85 1163.5,-55 1276.5,-55 1276.5,-85"/>
<text text-anchor="start" x="1171.5" y="-73" font-family="Helvetica,sans-Serif" font-size="10.00">absl/container/node</text>
<text text-anchor="middle" x="1220" y="-62" font-family="Helvetica,sans-Serif" font-size="10.00">_hash_map.h</text>
</a>
</g>
</g>
<!-- Node26&#45;&gt;Node30 -->
<g id="edge32_Node000026_Node000030" class="edge">
<title>Node26&#45;&gt;Node30</title>
<g id="a_edge32_Node000026_Node000030"><a xlink:title=" ">
<path fill="none" stroke="#63b8ff" d="M1039.68,-120.99C1070.98,-112.32 1120.37,-98.62 1159.55,-87.76"/>
<polygon fill="#63b8ff" stroke="#63b8ff" points="1160.57,-91.11 1169.27,-85.06 1158.7,-84.36 1160.57,-91.11"/>
</a>
</g>
</g>
<!-- Node31 -->
<g id="Node000031" class="node">
<title>Node31</title>
<g id="a_Node000031"><a xlink:title=" ">
<polygon fill="#e0e0e0" stroke="#999999" points="1407.5,-85 1294.5,-85 1294.5,-55 1407.5,-55 1407.5,-85"/>
<text text-anchor="start" x="1302.5" y="-73" font-family="Helvetica,sans-Serif" font-size="10.00">absl/container/node</text>
<text text-anchor="middle" x="1351" y="-62" font-family="Helvetica,sans-Serif" font-size="10.00">_hash_set.h</text>
</a>
</g>
</g>
<!-- Node26&#45;&gt;Node31 -->
<g id="edge33_Node000026_Node000031" class="edge">
<title>Node26&#45;&gt;Node31</title>
<g id="a_edge33_Node000026_Node000031"><a xlink:title=" ">
<path fill="none" stroke="#63b8ff" d="M1052.3,-123.27C1104.95,-115.53 1196.73,-101.53 1284.47,-85.24"/>
<polygon fill="#63b8ff" stroke="#63b8ff" points="1285.13,-88.67 1294.32,-83.39 1283.84,-81.79 1285.13,-88.67"/>
</a>
</g>
</g>
<!-- Node32 -->
<g id="Node000032" class="node">
<title>Node32</title>
<g id="a_Node000032"><a xlink:href="hash_8h.html" target="_top" xlink:title=" ">
<polygon fill="white" stroke="#666666" points="865.5,-79.5 772.5,-79.5 772.5,-60.5 865.5,-60.5 865.5,-79.5"/>
<text text-anchor="middle" x="819" y="-67.5" font-family="Helvetica,sans-Serif" font-size="10.00">mim/util/hash.h</text>
</a>
</g>
</g>
<!-- Node26&#45;&gt;Node32 -->
<g id="edge35_Node000026_Node000032" class="edge">
<title>Node26&#45;&gt;Node32</title>
<g id="a_edge35_Node000026_Node000032"><a xlink:title=" ">
<path fill="none" stroke="#63b8ff" d="M981.37,-120.99C948.45,-110.86 893.27,-93.87 856.51,-82.55"/>
<polygon fill="#63b8ff" stroke="#63b8ff" points="857.25,-79.11 846.66,-79.52 855.19,-85.8 857.25,-79.11"/>
</a>
</g>
</g>
<!-- Node34 -->
<g id="Node000034" class="node">
<title>Node34</title>
<g id="a_Node000034"><a xlink:href="types_8h.html" target="_top" xlink:title=" ">
<polygon fill="white" stroke="#666666" points="1145.5,-79.5 1048.5,-79.5 1048.5,-60.5 1145.5,-60.5 1145.5,-79.5"/>
<text text-anchor="middle" x="1097" y="-67.5" font-family="Helvetica,sans-Serif" font-size="10.00">mim/util/types.h</text>
</a>
</g>
</g>
<!-- Node26&#45;&gt;Node34 -->
<g id="edge39_Node000026_Node000034" class="edge">
<title>Node26&#45;&gt;Node34</title>
<g id="a_edge39_Node000026_Node000034"><a xlink:title=" ">
<path fill="none" stroke="#63b8ff" d="M1021.98,-120.87C1036.02,-111.54 1058.63,-96.51 1075.36,-85.38"/>
<polygon fill="#63b8ff" stroke="#63b8ff" points="1077.57,-88.12 1083.96,-79.67 1073.7,-82.29 1077.57,-88.12"/>
</a>
</g>
</g>
<!-- Node32&#45;&gt;Node25 -->
<g id="edge36_Node000032_Node000025" class="edge">
<title>Node32&#45;&gt;Node25</title>
<g id="a_edge36_Node000032_Node000025"><a xlink:title=" ">
<path fill="none" stroke="#63b8ff" d="M807.64,-60.37C795.58,-51.21 776.3,-36.56 761.75,-25.51"/>
<polygon fill="#63b8ff" stroke="#63b8ff" points="763.49,-22.43 753.41,-19.17 759.25,-28 763.49,-22.43"/>
</a>
</g>
</g>
<!-- Node32&#45;&gt;Node29 -->
<g id="edge38_Node000032_Node000029" class="edge">
<title>Node32&#45;&gt;Node29</title>
<g id="a_edge38_Node000032_Node000029"><a xlink:title=" ">
<path fill="none" stroke="#63b8ff" d="M830.36,-60.37C842.42,-51.21 861.7,-36.56 876.25,-25.51"/>
<polygon fill="#63b8ff" stroke="#63b8ff" points="878.75,-28 884.59,-19.17 874.51,-22.43 878.75,-28"/>
</a>
</g>
</g>
<!-- Node33 -->
<g id="Node000033" class="node">
<title>Node33</title>
<g id="a_Node000033"><a xlink:title=" ">
<polygon fill="#e0e0e0" stroke="#999999" points="999,-19 949,-19 949,0 999,0 999,-19"/>
<text text-anchor="middle" x="974" y="-7" font-family="Helvetica,sans-Serif" font-size="10.00">cstdint</text>
</a>
</g>
</g>
<!-- Node32&#45;&gt;Node33 -->
<g id="edge37_Node000032_Node000033" class="edge">
<title>Node32&#45;&gt;Node33</title>
<g id="a_edge37_Node000032_Node000033"><a xlink:title=" ">
<path fill="none" stroke="#63b8ff" d="M841.54,-60.49C867.94,-50.53 911.88,-33.95 941.85,-22.63"/>
<polygon fill="#63b8ff" stroke="#63b8ff" points="943.31,-25.82 951.43,-19.02 940.84,-19.27 943.31,-25.82"/>
</a>
</g>
</g>
<!-- Node34&#45;&gt;Node18 -->
<g id="edge43_Node000034_Node000018" class="edge">
<title>Node34&#45;&gt;Node18</title>
<g id="a_edge43_Node000034_Node000018"><a xlink:title=" ">
<path fill="none" stroke="#63b8ff" d="M1063.61,-60.5C1055.88,-58.61 1047.66,-56.68 1040,-55 960.39,-37.57 937.54,-36.31 853.6,-19.06"/>
<polygon fill="#63b8ff" stroke="#63b8ff" points="854.12,-15.6 843.61,-17 852.7,-22.45 854.12,-15.6"/>
</a>
</g>
</g>
<!-- Node34&#45;&gt;Node29 -->
<g id="edge44_Node000034_Node000029" class="edge">
<title>Node34&#45;&gt;Node29</title>
<g id="a_edge44_Node000034_Node000029"><a xlink:title=" ">
<path fill="none" stroke="#63b8ff" d="M1067.77,-60.49C1032.79,-50.31 974.07,-33.22 935.18,-21.9"/>
<polygon fill="#63b8ff" stroke="#63b8ff" points="935.84,-18.45 925.26,-19.02 933.89,-25.17 935.84,-18.45"/>
</a>
</g>
</g>
<!-- Node34&#45;&gt;Node33 -->
<g id="edge41_Node000034_Node000033" class="edge">
<title>Node34&#45;&gt;Node33</title>
<g id="a_edge41_Node000034_Node000033"><a xlink:title=" ">
<path fill="none" stroke="#63b8ff" d="M1079.11,-60.49C1058.62,-50.75 1024.81,-34.66 1001.08,-23.38"/>
<polygon fill="#63b8ff" stroke="#63b8ff" points="1002.44,-20.15 991.91,-19.02 999.43,-26.47 1002.44,-20.15"/>
</a>
</g>
</g>
<!-- Node35 -->
<g id="Node000035" class="node">
<title>Node35</title>
<g id="a_Node000035"><a xlink:title=" ">
<polygon fill="#e0e0e0" stroke="#999999" points="1064.5,-19 1017.5,-19 1017.5,0 1064.5,0 1064.5,-19"/>
<text text-anchor="middle" x="1041" y="-7" font-family="Helvetica,sans-Serif" font-size="10.00">cmath</text>
</a>
</g>
</g>
<!-- Node34&#45;&gt;Node35 -->
<g id="edge40_Node000034_Node000035" class="edge">
<title>Node34&#45;&gt;Node35</title>
<g id="a_edge40_Node000034_Node000035"><a xlink:title=" ">
<path fill="none" stroke="#63b8ff" d="M1088.74,-60.37C1080.22,-51.47 1066.74,-37.39 1056.27,-26.45"/>
<polygon fill="#63b8ff" stroke="#63b8ff" points="1058.74,-23.97 1049.3,-19.17 1053.68,-28.81 1058.74,-23.97"/>
</a>
</g>
</g>
<!-- Node36 -->
<g id="Node000036" class="node">
<title>Node36</title>
<g id="a_Node000036"><a xlink:title=" ">
<polygon fill="#e0e0e0" stroke="#999999" points="1127,-19 1083,-19 1083,0 1127,0 1127,-19"/>
<text text-anchor="middle" x="1105" y="-7" font-family="Helvetica,sans-Serif" font-size="10.00">limits</text>
</a>
</g>
</g>
<!-- Node34&#45;&gt;Node36 -->
<g id="edge42_Node000034_Node000036" class="edge">
<title>Node34&#45;&gt;Node36</title>
<g id="a_edge42_Node000034_Node000036"><a xlink:title=" ">
<path fill="none" stroke="#63b8ff" d="M1098.18,-60.37C1099.29,-52.25 1100.99,-39.81 1102.42,-29.39"/>
<polygon fill="#63b8ff" stroke="#63b8ff" points="1105.93,-29.55 1103.81,-19.17 1098.99,-28.6 1105.93,-29.55"/>
</a>
</g>
</g>
<!-- Node37 -->
<g id="Node000037" class="node">
<title>Node37</title>
<g id="a_Node000037"><a xlink:title=" ">
<polygon fill="#e0e0e0" stroke="#999999" points="1201,-19 1145,-19 1145,0 1201,0 1201,-19"/>
<text text-anchor="middle" x="1173" y="-7" font-family="Helvetica,sans-Serif" font-size="10.00">half.hpp</text>
</a>
</g>
</g>
<!-- Node34&#45;&gt;Node37 -->
<g id="edge45_Node000034_Node000037" class="edge">
<title>Node34&#45;&gt;Node37</title>
<g id="a_edge45_Node000034_Node000037"><a xlink:title=" ">
<path fill="none" stroke="#63b8ff" d="M1108.21,-60.37C1120.11,-51.21 1139.14,-36.56 1153.51,-25.51"/>
<polygon fill="#63b8ff" stroke="#63b8ff" points="1155.95,-28.04 1161.74,-19.17 1151.68,-22.49 1155.95,-28.04"/>
</a>
</g>
</g>
<!-- Node39 -->
<g id="Node000039" class="node">
<title>Node39</title>
<g id="a_Node000039"><a xlink:title=" ">
<polygon fill="#e0e0e0" stroke="#999999" points="1659,-85 1537,-85 1537,-55 1659,-55 1659,-85"/>
<text text-anchor="start" x="1545" y="-73" font-family="Helvetica,sans-Serif" font-size="10.00">absl/container/inlined</text>
<text text-anchor="middle" x="1598" y="-62" font-family="Helvetica,sans-Serif" font-size="10.00">_vector.h</text>
</a>
</g>
</g>
<!-- Node38&#45;&gt;Node39 -->
<g id="edge47_Node000038_Node000039" class="edge">
<title>Node38&#45;&gt;Node39</title>
<g id="a_edge47_Node000038_Node000039"><a xlink:title=" ">
<path fill="none" stroke="#63b8ff" d="M1340.93,-120.99C1385.58,-112.51 1456.29,-99.01 1526.95,-85.2"/>
<polygon fill="#63b8ff" stroke="#63b8ff" points="1527.78,-88.6 1536.92,-83.25 1526.44,-81.73 1527.78,-88.6"/>
</a>
</g>
</g>
<!-- Node40 -->
<g id="Node000040" class="node">
<title>Node40</title>
<g id="a_Node000040"><a xlink:href="span_8h.html" target="_top" xlink:title=" ">
<polygon fill="white" stroke="#666666" points="1518.5,-79.5 1425.5,-79.5 1425.5,-60.5 1518.5,-60.5 1518.5,-79.5"/>
<text text-anchor="middle" x="1472" y="-67.5" font-family="Helvetica,sans-Serif" font-size="10.00">mim/util/span.h</text>
</a>
</g>
</g>
<!-- Node38&#45;&gt;Node40 -->
<g id="edge48_Node000038_Node000040" class="edge">
<title>Node38&#45;&gt;Node40</title>
<g id="a_edge48_Node000038_Node000040"><a xlink:title=" ">
<path fill="none" stroke="#63b8ff" d="M1321.59,-120.99C1351.96,-110.9 1402.76,-94.01 1436.82,-82.69"/>
<polygon fill="#63b8ff" stroke="#63b8ff" points="1437.99,-85.99 1446.38,-79.52 1435.78,-79.35 1437.99,-85.99"/>
</a>
</g>
</g>
<!-- Node41 -->
<g id="Node000041" class="node">
<title>Node41</title>
<g id="a_Node000041"><a xlink:title=" ">
<polygon fill="#e0e0e0" stroke="#999999" points="1492,-19 1452,-19 1452,0 1492,0 1492,-19"/>
<text text-anchor="middle" x="1472" y="-7" font-family="Helvetica,sans-Serif" font-size="10.00">span</text>
</a>
</g>
</g>
<!-- Node40&#45;&gt;Node41 -->
<g id="edge49_Node000040_Node000041" class="edge">
<title>Node40&#45;&gt;Node41</title>
<g id="a_edge49_Node000040_Node000041"><a xlink:title=" ">
<path fill="none" stroke="#63b8ff" d="M1472,-60.37C1472,-52.25 1472,-39.81 1472,-29.39"/>
<polygon fill="#63b8ff" stroke="#63b8ff" points="1475.5,-29.17 1472,-19.17 1468.5,-29.17 1475.5,-29.17"/>
</a>
</g>
</g>
</g>
</svg>

<g id="navigator" transform="translate(0 0)" fill="#404254">
  <rect fill="#f2f5e9" fill-opacity="0.5" stroke="#606060" stroke-width=".5" x="0" y="0" width="60" height="60"/>
  <use id="zoomplus" xlink:href="#zoomPlus" x="17" y="9" onmousedown="handleZoom(evt,'in')"/>
  <use id="zoomminus" xlink:href="#zoomMin" x="42" y="9" onmousedown="handleZoom(evt,'out')"/>
  <use id="reset" xlink:href="#resetDef" x="30" y="36" onmousedown="handleReset()"/>
   <use id="arrowup" xlink:href="#arrowUp" x="0" y="0" onmousedown="handlePan(0,-1)"/>
  <use id="arrowright" xlink:href="#arrowRight" x="0" y="0" onmousedown="handlePan(1,0)"/>
  <use id="arrowdown" xlink:href="#arrowDown" x="0" y="0" onmousedown="handlePan(0,1)"/>
  <use id="arrowleft" xlink:href="#arrowLeft" x="0" y="0" onmousedown="handlePan(-1,0)"/>
</g>
<svg viewBox="0 0 15 15" width="100%" height="30px" preserveAspectRatio="xMaxYMin meet">
 <g id="arrow_out" transform="scale(0.3 0.3)">
  <a xlink:href="lattice_8cpp__incl_org.svg" target="_base">
   <rect id="button" ry="5" rx="5" y="6" x="6" height="38" width="38"
        fill="#f2f5e9" fill-opacity="0.5" stroke="#606060" stroke-width="1.0"/>
   <path id="arrow"
     d="M 11.500037,31.436501 C 11.940474,20.09759 22.043105,11.32322 32.158766,21.979434 L 37.068811,17.246167 C 37.068811,17.246167 37.088388,32 37.088388,32 L 22.160133,31.978069 C 22.160133,31.978069 26.997745,27.140456 26.997745,27.140456 C 18.528582,18.264221 13.291696,25.230495 11.500037,31.436501 z"
     style="fill:#404040;"/>
  </a>
 </g>
</svg>

<style type='text/css'>
<![CDATA[
[data-mouse-over-selected='false'] { opacity: 0.7; }
[data-mouse-over-selected='true']  { opacity: 1.0; }
]]>
</style>
<script type="application/ecmascript"><![CDATA[
document.addEventListener('DOMContentLoaded', (event) => {
  highlightEdges();
  highlightAdjacentNodes();
});
]]></script>
</svg>
