<?xml version="1.0" encoding="UTF-8" standalone="no"?>
<!DOCTYPE svg PUBLIC "-//W3C//DTD SVG 1.1//EN"
 "http://www.w3.org/Graphics/SVG/1.1/DTD/svg11.dtd">
<!-- Generated by graphviz version 2.43.0 (0)
 -->
<!-- Title: /home/runner/work/thorin2/thorin2/thorin/lattice.cpp Pages: 1 -->
<svg width="1830pt" height="509pt"
 viewBox="0.00 0.00 1830.00 509.00" xmlns="http://www.w3.org/2000/svg" xmlns:xlink="http://www.w3.org/1999/xlink">
<g id="graph0" class="graph" transform="scale(1 1) rotate(0) translate(4 505)">
<title>/home/runner/work/thorin2/thorin2/thorin/lattice.cpp</title>
<!-- Node1 -->
<g id="node1" class="node">
<title>Node1</title>
<g id="a_node1"><a xlink:title=" ">
<polygon fill="#bfbfbf" stroke="black" points="831,-470.5 831,-500.5 977,-500.5 977,-470.5 831,-470.5"/>
<text text-anchor="start" x="839" y="-488.5" font-family="Helvetica,sans-Serif" font-size="10.00">/home/runner/work/thorin2</text>
<text text-anchor="middle" x="904" y="-477.5" font-family="Helvetica,sans-Serif" font-size="10.00">/thorin2/thorin/lattice.cpp</text>
</a>
</g>
</g>
<!-- Node2 -->
<g id="node2" class="node">
<title>Node2</title>
<g id="a_node2"><a xlink:href="lattice_8h.html" target="_top" xlink:title=" ">
<polygon fill="none" stroke="black" points="530,-353 530,-372 618,-372 618,-353 530,-353"/>
<text text-anchor="middle" x="574" y="-360" font-family="Helvetica,sans-Serif" font-size="10.00">thorin/lattice.h</text>
</a>
</g>
</g>
<!-- Node1&#45;&gt;Node2 -->
<g id="edge1" class="edge">
<title>Node1&#45;&gt;Node2</title>
<path fill="none" stroke="midnightblue" d="M865.5,-470.38C800.11,-446.41 668.48,-398.14 607.02,-375.61"/>
<polygon fill="midnightblue" stroke="midnightblue" points="608.03,-372.25 597.43,-372.09 605.62,-378.82 608.03,-372.25"/>
</g>
<!-- Node33 -->
<g id="node33" class="node">
<title>Node33</title>
<g id="a_node33"><a xlink:href="container_8h.html" target="_top" xlink:title=" ">
<polygon fill="none" stroke="black" points="1270.5,-179.5 1270.5,-198.5 1391.5,-198.5 1391.5,-179.5 1270.5,-179.5"/>
<text text-anchor="middle" x="1331" y="-186.5" font-family="Helvetica,sans-Serif" font-size="10.00">thorin/util/container.h</text>
</a>
</g>
</g>
<!-- Node1&#45;&gt;Node33 -->
<g id="edge78" class="edge">
<title>Node1&#45;&gt;Node33</title>
<path fill="none" stroke="midnightblue" d="M977.05,-470.63C1037.19,-456.11 1121.73,-428.2 1180,-378 1242.04,-324.55 1297.43,-243.02 1320.11,-207.53"/>
<polygon fill="midnightblue" stroke="midnightblue" points="1323.24,-209.12 1325.62,-198.8 1317.32,-205.39 1323.24,-209.12"/>
</g>
<!-- Node39 -->
<g id="node39" class="node">
<title>Node39</title>
<g id="a_node39"><a xlink:href="lam_8h.html" target="_top" xlink:title=" ">
<polygon fill="none" stroke="black" points="392,-291.5 392,-310.5 468,-310.5 468,-291.5 392,-291.5"/>
<text text-anchor="middle" x="430" y="-298.5" font-family="Helvetica,sans-Serif" font-size="10.00">thorin/lam.h</text>
</a>
</g>
</g>
<!-- Node1&#45;&gt;Node39 -->
<g id="edge52" class="edge">
<title>Node1&#45;&gt;Node39</title>
<path fill="none" stroke="midnightblue" d="M830.65,-479.49C707.22,-469.37 466.38,-441.77 415,-378 401.6,-361.37 410.6,-336.12 419.36,-319.35"/>
<polygon fill="midnightblue" stroke="midnightblue" points="422.45,-321.01 424.33,-310.58 416.35,-317.56 422.45,-321.01"/>
</g>
<!-- Node41 -->
<g id="node41" class="node">
<title>Node41</title>
<g id="a_node41"><a xlink:href="world_8h.html" target="_top" xlink:title=" ">
<polygon fill="none" stroke="black" points="991,-414.5 991,-433.5 1075,-433.5 1075,-414.5 991,-414.5"/>
<text text-anchor="middle" x="1033" y="-421.5" font-family="Helvetica,sans-Serif" font-size="10.00">thorin/world.h</text>
</a>
</g>
</g>
<!-- Node1&#45;&gt;Node41 -->
<g id="edge55" class="edge">
<title>Node1&#45;&gt;Node41</title>
<path fill="none" stroke="midnightblue" d="M934.57,-470.4C955.93,-460.55 984.22,-447.5 1004.98,-437.92"/>
<polygon fill="midnightblue" stroke="midnightblue" points="1006.61,-441.02 1014.23,-433.66 1003.68,-434.67 1006.61,-441.02"/>
</g>
<!-- Node3 -->
<g id="node3" class="node">
<title>Node3</title>
<g id="a_node3"><a xlink:href="def_8h.html" target="_top" xlink:title=" ">
<polygon fill="none" stroke="black" points="667,-235.5 667,-254.5 739,-254.5 739,-235.5 667,-235.5"/>
<text text-anchor="middle" x="703" y="-242.5" font-family="Helvetica,sans-Serif" font-size="10.00">thorin/def.h</text>
</a>
</g>
</g>
<!-- Node2&#45;&gt;Node3 -->
<g id="edge2" class="edge">
<title>Node2&#45;&gt;Node3</title>
<path fill="none" stroke="midnightblue" d="M583.7,-352.82C605.36,-333.42 657.95,-286.33 685.51,-261.66"/>
<polygon fill="midnightblue" stroke="midnightblue" points="688.08,-264.06 693.19,-254.78 683.41,-258.84 688.08,-264.06"/>
</g>
<!-- Node4 -->
<g id="node4" class="node">
<title>Node4</title>
<g id="a_node4"><a xlink:title=" ">
<polygon fill="none" stroke="#bfbfbf" points="562,-179.5 562,-198.5 618,-198.5 618,-179.5 562,-179.5"/>
<text text-anchor="middle" x="590" y="-186.5" font-family="Helvetica,sans-Serif" font-size="10.00">optional</text>
</a>
</g>
</g>
<!-- Node3&#45;&gt;Node4 -->
<g id="edge3" class="edge">
<title>Node3&#45;&gt;Node4</title>
<path fill="none" stroke="midnightblue" d="M685.09,-235.44C666.75,-226.68 637.99,-212.94 616.91,-202.86"/>
<polygon fill="midnightblue" stroke="midnightblue" points="618.35,-199.67 607.82,-198.52 615.33,-205.99 618.35,-199.67"/>
</g>
<!-- Node5 -->
<g id="node5" class="node">
<title>Node5</title>
<g id="a_node5"><a xlink:title=" ">
<polygon fill="none" stroke="#bfbfbf" points="494.5,-56.5 494.5,-75.5 541.5,-75.5 541.5,-56.5 494.5,-56.5"/>
<text text-anchor="middle" x="518" y="-63.5" font-family="Helvetica,sans-Serif" font-size="10.00">vector</text>
</a>
</g>
</g>
<!-- Node3&#45;&gt;Node5 -->
<g id="edge4" class="edge">
<title>Node3&#45;&gt;Node5</title>
<path fill="none" stroke="midnightblue" d="M697.7,-235.48C689.44,-222.54 672.6,-197.49 655,-179 617.73,-139.85 566.97,-101.6 538.87,-81.52"/>
<polygon fill="midnightblue" stroke="midnightblue" points="540.78,-78.58 530.59,-75.66 536.73,-84.29 540.78,-78.58"/>
</g>
<!-- Node6 -->
<g id="node6" class="node">
<title>Node6</title>
<g id="a_node6"><a xlink:href="debug_8h.html" target="_top" xlink:title=" ">
<polygon fill="none" stroke="black" points="1459.5,-179.5 1459.5,-198.5 1546.5,-198.5 1546.5,-179.5 1459.5,-179.5"/>
<text text-anchor="middle" x="1503" y="-186.5" font-family="Helvetica,sans-Serif" font-size="10.00">thorin/debug.h</text>
</a>
</g>
</g>
<!-- Node3&#45;&gt;Node6 -->
<g id="edge5" class="edge">
<title>Node3&#45;&gt;Node6</title>
<path fill="none" stroke="midnightblue" d="M739.35,-241.96C842.85,-236.09 1147.94,-218.32 1401,-199 1416.7,-197.8 1433.75,-196.35 1449.34,-194.97"/>
<polygon fill="midnightblue" stroke="midnightblue" points="1449.69,-198.46 1459.34,-194.08 1449.07,-191.48 1449.69,-198.46"/>
</g>
<!-- Node10 -->
<g id="node10" class="node">
<title>Node10</title>
<g id="a_node10"><a xlink:href="tables_8h.html" target="_top" xlink:title=" ">
<polygon fill="none" stroke="black" points="826.5,-179.5 826.5,-198.5 913.5,-198.5 913.5,-179.5 826.5,-179.5"/>
<text text-anchor="middle" x="870" y="-186.5" font-family="Helvetica,sans-Serif" font-size="10.00">thorin/tables.h</text>
</a>
</g>
</g>
<!-- Node3&#45;&gt;Node10 -->
<g id="edge9" class="edge">
<title>Node3&#45;&gt;Node10</title>
<path fill="none" stroke="midnightblue" d="M729.46,-235.44C757.68,-226.32 802.54,-211.81 833.97,-201.65"/>
<polygon fill="midnightblue" stroke="midnightblue" points="835.22,-204.92 843.66,-198.52 833.07,-198.26 835.22,-204.92"/>
</g>
<!-- Node12 -->
<g id="node12" class="node">
<title>Node12</title>
<g id="a_node12"><a xlink:href="print_8h.html" target="_top" xlink:title=" ">
<polygon fill="none" stroke="black" points="712,-118 712,-137 810,-137 810,-118 712,-118"/>
<text text-anchor="middle" x="761" y="-125" font-family="Helvetica,sans-Serif" font-size="10.00">thorin/util/print.h</text>
</a>
</g>
</g>
<!-- Node3&#45;&gt;Node12 -->
<g id="edge51" class="edge">
<title>Node3&#45;&gt;Node12</title>
<path fill="none" stroke="midnightblue" d="M707.36,-235.32C716.81,-216.51 739.33,-171.65 751.98,-146.46"/>
<polygon fill="midnightblue" stroke="midnightblue" points="755.23,-147.79 756.59,-137.28 748.97,-144.65 755.23,-147.79"/>
</g>
<!-- Node26 -->
<g id="node26" class="node">
<title>Node26</title>
<g id="a_node26"><a xlink:href="array_8h.html" target="_top" xlink:title=" ">
<polygon fill="none" stroke="black" points="346,-118 346,-137 446,-137 446,-118 346,-118"/>
<text text-anchor="middle" x="396" y="-125" font-family="Helvetica,sans-Serif" font-size="10.00">thorin/util/array.h</text>
</a>
</g>
</g>
<!-- Node3&#45;&gt;Node26 -->
<g id="edge27" class="edge">
<title>Node3&#45;&gt;Node26</title>
<path fill="none" stroke="midnightblue" d="M695.55,-235.3C682.93,-221.18 655.92,-193.38 627,-179 572.78,-152.04 504.35,-139.38 456.08,-133.5"/>
<polygon fill="midnightblue" stroke="midnightblue" points="456.44,-130.02 446.1,-132.34 455.64,-136.97 456.44,-130.02"/>
</g>
<!-- Node32 -->
<g id="node32" class="node">
<title>Node32</title>
<g id="a_node32"><a xlink:href="cast_8h.html" target="_top" xlink:title=" ">
<polygon fill="none" stroke="black" points="0,-118 0,-137 96,-137 96,-118 0,-118"/>
<text text-anchor="middle" x="48" y="-125" font-family="Helvetica,sans-Serif" font-size="10.00">thorin/util/cast.h</text>
</a>
</g>
</g>
<!-- Node3&#45;&gt;Node32 -->
<g id="edge38" class="edge">
<title>Node3&#45;&gt;Node32</title>
<path fill="none" stroke="midnightblue" d="M666.85,-237.63C558.9,-218.59 238.2,-162.04 105.98,-138.72"/>
<polygon fill="midnightblue" stroke="midnightblue" points="106.5,-135.26 96.04,-136.97 105.28,-142.15 106.5,-135.26"/>
</g>
<!-- Node3&#45;&gt;Node33 -->
<g id="edge41" class="edge">
<title>Node3&#45;&gt;Node33</title>
<path fill="none" stroke="midnightblue" d="M739.02,-240.9C839.86,-232.23 1126.36,-207.6 1260.33,-196.08"/>
<polygon fill="midnightblue" stroke="midnightblue" points="1260.82,-199.55 1270.48,-195.2 1260.22,-192.57 1260.82,-199.55"/>
</g>
<!-- Node38 -->
<g id="node38" class="node">
<title>Node38</title>
<g id="a_node38"><a xlink:href="hash_8h.html" target="_top" xlink:title=" ">
<polygon fill="none" stroke="black" points="957.5,-118 957.5,-137 1056.5,-137 1056.5,-118 957.5,-118"/>
<text text-anchor="middle" x="1007" y="-125" font-family="Helvetica,sans-Serif" font-size="10.00">thorin/util/hash.h</text>
</a>
</g>
</g>
<!-- Node3&#45;&gt;Node38 -->
<g id="edge50" class="edge">
<title>Node3&#45;&gt;Node38</title>
<path fill="none" stroke="midnightblue" d="M739.01,-242.07C784.06,-238.45 862.62,-228.17 923,-199 950.74,-185.6 976.97,-160.98 992.52,-144.67"/>
<polygon fill="midnightblue" stroke="midnightblue" points="995.39,-146.72 999.62,-137 990.26,-141.96 995.39,-146.72"/>
</g>
<!-- Node7 -->
<g id="node7" class="node">
<title>Node7</title>
<g id="a_node7"><a xlink:title=" ">
<polygon fill="none" stroke="#bfbfbf" points="1074,-56.5 1074,-75.5 1118,-75.5 1118,-56.5 1074,-56.5"/>
<text text-anchor="middle" x="1096" y="-63.5" font-family="Helvetica,sans-Serif" font-size="10.00">string</text>
</a>
</g>
</g>
<!-- Node6&#45;&gt;Node7 -->
<g id="edge6" class="edge">
<title>Node6&#45;&gt;Node7</title>
<path fill="none" stroke="midnightblue" d="M1546.58,-180.34C1613.43,-168.49 1733.96,-146.68 1737,-143 1745.77,-132.38 1746.4,-122.08 1737,-112 1695.19,-67.15 1252.47,-66.15 1128.25,-66.76"/>
<polygon fill="midnightblue" stroke="midnightblue" points="1128.19,-63.26 1118.21,-66.81 1128.23,-70.26 1128.19,-63.26"/>
</g>
<!-- Node8 -->
<g id="node8" class="node">
<title>Node8</title>
<g id="a_node8"><a xlink:title=" ">
<polygon fill="none" stroke="#bfbfbf" points="1624,-112.5 1624,-142.5 1728,-142.5 1728,-112.5 1624,-112.5"/>
<text text-anchor="start" x="1632" y="-130.5" font-family="Helvetica,sans-Serif" font-size="10.00">absl/container/flat</text>
<text text-anchor="middle" x="1676" y="-119.5" font-family="Helvetica,sans-Serif" font-size="10.00">_hash_map.h</text>
</a>
</g>
</g>
<!-- Node6&#45;&gt;Node8 -->
<g id="edge7" class="edge">
<title>Node6&#45;&gt;Node8</title>
<path fill="none" stroke="midnightblue" d="M1527.79,-179.48C1553.19,-170.74 1593.4,-156.91 1625.54,-145.86"/>
<polygon fill="midnightblue" stroke="midnightblue" points="1626.91,-149.09 1635.23,-142.52 1624.63,-142.47 1626.91,-149.09"/>
</g>
<!-- Node9 -->
<g id="node9" class="node">
<title>Node9</title>
<g id="a_node9"><a xlink:title=" ">
<polygon fill="none" stroke="#bfbfbf" points="1502,-112.5 1502,-142.5 1606,-142.5 1606,-112.5 1502,-112.5"/>
<text text-anchor="start" x="1510" y="-130.5" font-family="Helvetica,sans-Serif" font-size="10.00">absl/container/flat</text>
<text text-anchor="middle" x="1554" y="-119.5" font-family="Helvetica,sans-Serif" font-size="10.00">_hash_set.h</text>
</a>
</g>
</g>
<!-- Node6&#45;&gt;Node9 -->
<g id="edge8" class="edge">
<title>Node6&#45;&gt;Node9</title>
<path fill="none" stroke="midnightblue" d="M1510.31,-179.48C1516.83,-171.87 1526.66,-160.4 1535.34,-150.26"/>
<polygon fill="midnightblue" stroke="midnightblue" points="1538.13,-152.39 1541.98,-142.52 1532.81,-147.84 1538.13,-152.39"/>
</g>
<!-- Node11 -->
<g id="node11" class="node">
<title>Node11</title>
<g id="a_node11"><a xlink:title=" ">
<polygon fill="none" stroke="#bfbfbf" points="866.5,-118 866.5,-137 939.5,-137 939.5,-118 866.5,-118"/>
<text text-anchor="middle" x="903" y="-125" font-family="Helvetica,sans-Serif" font-size="10.00">string_view</text>
</a>
</g>
</g>
<!-- Node10&#45;&gt;Node11 -->
<g id="edge10" class="edge">
<title>Node10&#45;&gt;Node11</title>
<path fill="none" stroke="midnightblue" d="M874.73,-179.48C879.58,-170.73 887.27,-156.87 893.4,-145.81"/>
<polygon fill="midnightblue" stroke="midnightblue" points="896.49,-147.45 898.28,-137.01 890.37,-144.06 896.49,-147.45"/>
</g>
<!-- Node10&#45;&gt;Node12 -->
<g id="edge11" class="edge">
<title>Node10&#45;&gt;Node12</title>
<path fill="none" stroke="midnightblue" d="M854.38,-179.48C836.41,-169.67 806.68,-153.43 785.59,-141.92"/>
<polygon fill="midnightblue" stroke="midnightblue" points="787.04,-138.73 776.59,-137.01 783.69,-144.87 787.04,-138.73"/>
</g>
<!-- Node20 -->
<g id="node20" class="node">
<title>Node20</title>
<g id="a_node20"><a xlink:href="types_8h.html" target="_top" xlink:title=" ">
<polygon fill="none" stroke="black" points="952.5,-56.5 952.5,-75.5 1055.5,-75.5 1055.5,-56.5 952.5,-56.5"/>
<text text-anchor="middle" x="1004" y="-63.5" font-family="Helvetica,sans-Serif" font-size="10.00">thorin/util/types.h</text>
</a>
</g>
</g>
<!-- Node10&#45;&gt;Node20 -->
<g id="edge20" class="edge">
<title>Node10&#45;&gt;Node20</title>
<path fill="none" stroke="midnightblue" d="M864.75,-179.04C856.55,-163.72 843.09,-132.2 858,-112 868.8,-97.37 909.91,-85.5 945.77,-77.64"/>
<polygon fill="midnightblue" stroke="midnightblue" points="946.66,-81.03 955.71,-75.52 945.2,-74.18 946.66,-81.03"/>
</g>
<!-- Node12&#45;&gt;Node7 -->
<g id="edge17" class="edge">
<title>Node12&#45;&gt;Node7</title>
<path fill="none" stroke="midnightblue" d="M810.02,-119.08C879.17,-108.49 1002.9,-89.1 1063.81,-76.01"/>
<polygon fill="midnightblue" stroke="midnightblue" points="1064.73,-79.39 1073.73,-73.81 1063.21,-72.56 1064.73,-79.39"/>
</g>
<!-- Node13 -->
<g id="node13" class="node">
<title>Node13</title>
<g id="a_node13"><a xlink:title=" ">
<polygon fill="none" stroke="#bfbfbf" points="628.5,-56.5 628.5,-75.5 693.5,-75.5 693.5,-56.5 628.5,-56.5"/>
<text text-anchor="middle" x="661" y="-63.5" font-family="Helvetica,sans-Serif" font-size="10.00">functional</text>
</a>
</g>
</g>
<!-- Node12&#45;&gt;Node13 -->
<g id="edge12" class="edge">
<title>Node12&#45;&gt;Node13</title>
<path fill="none" stroke="midnightblue" d="M746.67,-117.98C730.34,-108.25 703.4,-92.23 684.09,-80.74"/>
<polygon fill="midnightblue" stroke="midnightblue" points="685.68,-77.61 675.3,-75.51 682.11,-83.63 685.68,-77.61"/>
</g>
<!-- Node14 -->
<g id="node14" class="node">
<title>Node14</title>
<g id="a_node14"><a xlink:title=" ">
<polygon fill="none" stroke="#bfbfbf" points="836,-56.5 836,-75.5 896,-75.5 896,-56.5 836,-56.5"/>
<text text-anchor="middle" x="866" y="-63.5" font-family="Helvetica,sans-Serif" font-size="10.00">iostream</text>
</a>
</g>
</g>
<!-- Node12&#45;&gt;Node14 -->
<g id="edge13" class="edge">
<title>Node12&#45;&gt;Node14</title>
<path fill="none" stroke="midnightblue" d="M776.04,-117.98C793.28,-108.21 821.74,-92.08 842.03,-80.58"/>
<polygon fill="midnightblue" stroke="midnightblue" points="844.01,-83.48 850.98,-75.51 840.56,-77.39 844.01,-83.48"/>
</g>
<!-- Node15 -->
<g id="node15" class="node">
<title>Node15</title>
<g id="a_node15"><a xlink:title=" ">
<polygon fill="none" stroke="#bfbfbf" points="866.5,-0.5 866.5,-19.5 923.5,-19.5 923.5,-0.5 866.5,-0.5"/>
<text text-anchor="middle" x="895" y="-7.5" font-family="Helvetica,sans-Serif" font-size="10.00">ostream</text>
</a>
</g>
</g>
<!-- Node12&#45;&gt;Node15 -->
<g id="edge14" class="edge">
<title>Node12&#45;&gt;Node15</title>
<path fill="none" stroke="midnightblue" d="M791.06,-117.97C831.23,-106.28 898.18,-85.62 905,-76 914.67,-62.36 910,-43.05 904.24,-29.03"/>
<polygon fill="midnightblue" stroke="midnightblue" points="907.4,-27.52 900.04,-19.9 901.04,-30.45 907.4,-27.52"/>
</g>
<!-- Node16 -->
<g id="node16" class="node">
<title>Node16</title>
<g id="a_node16"><a xlink:title=" ">
<polygon fill="none" stroke="#bfbfbf" points="560,-56.5 560,-75.5 610,-75.5 610,-56.5 560,-56.5"/>
<text text-anchor="middle" x="585" y="-63.5" font-family="Helvetica,sans-Serif" font-size="10.00">ranges</text>
</a>
</g>
</g>
<!-- Node12&#45;&gt;Node16 -->
<g id="edge15" class="edge">
<title>Node12&#45;&gt;Node16</title>
<path fill="none" stroke="midnightblue" d="M735.78,-117.98C705.33,-107.68 653.95,-90.31 619.76,-78.75"/>
<polygon fill="midnightblue" stroke="midnightblue" points="620.76,-75.4 610.17,-75.51 618.52,-82.03 620.76,-75.4"/>
</g>
<!-- Node17 -->
<g id="node17" class="node">
<title>Node17</title>
<g id="a_node17"><a xlink:title=" ">
<polygon fill="none" stroke="#bfbfbf" points="1766,-56.5 1766,-75.5 1822,-75.5 1822,-56.5 1766,-56.5"/>
<text text-anchor="middle" x="1794" y="-63.5" font-family="Helvetica,sans-Serif" font-size="10.00">sstream</text>
</a>
</g>
</g>
<!-- Node12&#45;&gt;Node17 -->
<g id="edge16" class="edge">
<title>Node12&#45;&gt;Node17</title>
<path fill="none" stroke="midnightblue" d="M810.23,-118.16C825.5,-115.84 842.41,-113.54 858,-112 1205.63,-77.75 1628.57,-69.3 1755.94,-67.46"/>
<polygon fill="midnightblue" stroke="midnightblue" points="1756.03,-70.96 1765.98,-67.32 1755.93,-63.96 1756.03,-70.96"/>
</g>
<!-- Node18 -->
<g id="node18" class="node">
<title>Node18</title>
<g id="a_node18"><a xlink:href="assert_8h.html" target="_top" xlink:title=" ">
<polygon fill="none" stroke="black" points="712,-56.5 712,-75.5 818,-75.5 818,-56.5 712,-56.5"/>
<text text-anchor="middle" x="765" y="-63.5" font-family="Helvetica,sans-Serif" font-size="10.00">thorin/util/assert.h</text>
</a>
</g>
</g>
<!-- Node12&#45;&gt;Node18 -->
<g id="edge18" class="edge">
<title>Node12&#45;&gt;Node18</title>
<path fill="none" stroke="midnightblue" d="M761.57,-117.98C762.14,-109.58 763.02,-96.48 763.75,-85.66"/>
<polygon fill="midnightblue" stroke="midnightblue" points="767.25,-85.72 764.43,-75.51 760.26,-85.25 767.25,-85.72"/>
</g>
<!-- Node19 -->
<g id="node19" class="node">
<title>Node19</title>
<g id="a_node19"><a xlink:title=" ">
<polygon fill="none" stroke="#bfbfbf" points="218,-0.5 218,-19.5 270,-19.5 270,-0.5 218,-0.5"/>
<text text-anchor="middle" x="244" y="-7.5" font-family="Helvetica,sans-Serif" font-size="10.00">cassert</text>
</a>
</g>
</g>
<!-- Node18&#45;&gt;Node19 -->
<g id="edge19" class="edge">
<title>Node18&#45;&gt;Node19</title>
<path fill="none" stroke="midnightblue" d="M711.92,-57.13C708.91,-56.73 705.92,-56.35 703,-56 546.05,-36.92 358.13,-20.5 280.4,-13.99"/>
<polygon fill="midnightblue" stroke="midnightblue" points="280.44,-10.48 270.18,-13.14 279.86,-17.46 280.44,-10.48"/>
</g>
<!-- Node20&#45;&gt;Node15 -->
<g id="edge23" class="edge">
<title>Node20&#45;&gt;Node15</title>
<path fill="none" stroke="midnightblue" d="M986.49,-56.32C968.93,-47.62 941.67,-34.12 921.47,-24.11"/>
<polygon fill="midnightblue" stroke="midnightblue" points="922.98,-20.96 912.47,-19.65 919.88,-27.23 922.98,-20.96"/>
</g>
<!-- Node21 -->
<g id="node21" class="node">
<title>Node21</title>
<g id="a_node21"><a xlink:title=" ">
<polygon fill="none" stroke="#bfbfbf" points="942,-0.5 942,-19.5 992,-19.5 992,-0.5 942,-0.5"/>
<text text-anchor="middle" x="967" y="-7.5" font-family="Helvetica,sans-Serif" font-size="10.00">cstdint</text>
</a>
</g>
</g>
<!-- Node20&#45;&gt;Node21 -->
<g id="edge21" class="edge">
<title>Node20&#45;&gt;Node21</title>
<path fill="none" stroke="midnightblue" d="M997.89,-56.08C992.72,-48.53 985.15,-37.49 978.81,-28.23"/>
<polygon fill="midnightblue" stroke="midnightblue" points="981.54,-26.02 973,-19.75 975.76,-29.98 981.54,-26.02"/>
</g>
<!-- Node22 -->
<g id="node22" class="node">
<title>Node22</title>
<g id="a_node22"><a xlink:title=" ">
<polygon fill="none" stroke="#bfbfbf" points="1010,-0.5 1010,-19.5 1054,-19.5 1054,-0.5 1010,-0.5"/>
<text text-anchor="middle" x="1032" y="-7.5" font-family="Helvetica,sans-Serif" font-size="10.00">limits</text>
</a>
</g>
</g>
<!-- Node20&#45;&gt;Node22 -->
<g id="edge22" class="edge">
<title>Node20&#45;&gt;Node22</title>
<path fill="none" stroke="midnightblue" d="M1008.62,-56.08C1012.46,-48.69 1018.02,-37.95 1022.76,-28.81"/>
<polygon fill="midnightblue" stroke="midnightblue" points="1025.97,-30.24 1027.46,-19.75 1019.75,-27.02 1025.97,-30.24"/>
</g>
<!-- Node23 -->
<g id="node23" class="node">
<title>Node23</title>
<g id="a_node23"><a xlink:title=" ">
<polygon fill="none" stroke="#bfbfbf" points="605.5,-0.5 605.5,-19.5 674.5,-19.5 674.5,-0.5 605.5,-0.5"/>
<text text-anchor="middle" x="640" y="-7.5" font-family="Helvetica,sans-Serif" font-size="10.00">type_traits</text>
</a>
</g>
</g>
<!-- Node20&#45;&gt;Node23 -->
<g id="edge24" class="edge">
<title>Node20&#45;&gt;Node23</title>
<path fill="none" stroke="midnightblue" d="M952.23,-57.32C880.54,-46.69 752.24,-27.65 684.58,-17.61"/>
<polygon fill="midnightblue" stroke="midnightblue" points="685.06,-14.15 674.65,-16.14 684.03,-21.07 685.06,-14.15"/>
</g>
<!-- Node24 -->
<g id="node24" class="node">
<title>Node24</title>
<g id="a_node24"><a xlink:title=" ">
<polygon fill="none" stroke="#bfbfbf" points="1072.5,-0.5 1072.5,-19.5 1119.5,-19.5 1119.5,-0.5 1072.5,-0.5"/>
<text text-anchor="middle" x="1096" y="-7.5" font-family="Helvetica,sans-Serif" font-size="10.00">cmath</text>
</a>
</g>
</g>
<!-- Node20&#45;&gt;Node24 -->
<g id="edge25" class="edge">
<title>Node20&#45;&gt;Node24</title>
<path fill="none" stroke="midnightblue" d="M1018.78,-56.32C1033.27,-47.82 1055.57,-34.73 1072.49,-24.8"/>
<polygon fill="midnightblue" stroke="midnightblue" points="1074.4,-27.74 1081.26,-19.65 1070.86,-21.7 1074.4,-27.74"/>
</g>
<!-- Node25 -->
<g id="node25" class="node">
<title>Node25</title>
<g id="a_node25"><a xlink:title=" ">
<polygon fill="none" stroke="#bfbfbf" points="1138,-0.5 1138,-19.5 1194,-19.5 1194,-0.5 1138,-0.5"/>
<text text-anchor="middle" x="1166" y="-7.5" font-family="Helvetica,sans-Serif" font-size="10.00">half.hpp</text>
</a>
</g>
</g>
<!-- Node20&#45;&gt;Node25 -->
<g id="edge26" class="edge">
<title>Node20&#45;&gt;Node25</title>
<path fill="none" stroke="midnightblue" d="M1029.67,-56.44C1056.92,-47.36 1100.18,-32.94 1130.65,-22.78"/>
<polygon fill="midnightblue" stroke="midnightblue" points="1132.07,-26 1140.45,-19.52 1129.86,-19.36 1132.07,-26"/>
</g>
<!-- Node26&#45;&gt;Node5 -->
<g id="edge37" class="edge">
<title>Node26&#45;&gt;Node5</title>
<path fill="none" stroke="midnightblue" d="M413.48,-117.98C433.86,-108.03 467.78,-91.49 491.42,-79.96"/>
<polygon fill="midnightblue" stroke="midnightblue" points="493.1,-83.04 500.55,-75.51 490.03,-76.75 493.1,-83.04"/>
</g>
<!-- Node26&#45;&gt;Node13 -->
<g id="edge32" class="edge">
<title>Node26&#45;&gt;Node13</title>
<path fill="none" stroke="midnightblue" d="M433.97,-117.98C482.7,-107.03 567.04,-88.1 618.07,-76.64"/>
<polygon fill="midnightblue" stroke="midnightblue" points="619.12,-79.99 628.12,-74.38 617.59,-73.16 619.12,-79.99"/>
</g>
<!-- Node26&#45;&gt;Node16 -->
<g id="edge35" class="edge">
<title>Node26&#45;&gt;Node16</title>
<path fill="none" stroke="midnightblue" d="M423.08,-117.98C456.48,-107.46 513.33,-89.56 550.01,-78.02"/>
<polygon fill="midnightblue" stroke="midnightblue" points="551.3,-81.28 559.78,-74.94 549.19,-74.6 551.3,-81.28"/>
</g>
<!-- Node26&#45;&gt;Node19 -->
<g id="edge28" class="edge">
<title>Node26&#45;&gt;Node19</title>
<path fill="none" stroke="midnightblue" d="M345.92,-118.74C317.97,-111.94 284.54,-99.31 263,-76 251.41,-63.47 246.86,-44.24 245.08,-29.95"/>
<polygon fill="midnightblue" stroke="midnightblue" points="248.55,-29.41 244.18,-19.76 241.58,-30.03 248.55,-29.41"/>
</g>
<!-- Node26&#45;&gt;Node23 -->
<g id="edge36" class="edge">
<title>Node26&#45;&gt;Node23</title>
<path fill="none" stroke="midnightblue" d="M404.53,-117.82C419.51,-103.05 452.07,-72.99 485,-56 520.05,-37.92 563.42,-26.11 595.36,-19.15"/>
<polygon fill="midnightblue" stroke="midnightblue" points="596.24,-22.55 605.31,-17.06 594.8,-15.7 596.24,-22.55"/>
</g>
<!-- Node27 -->
<g id="node27" class="node">
<title>Node27</title>
<g id="a_node27"><a xlink:title=" ">
<polygon fill="none" stroke="#bfbfbf" points="162.5,-56.5 162.5,-75.5 215.5,-75.5 215.5,-56.5 162.5,-56.5"/>
<text text-anchor="middle" x="189" y="-63.5" font-family="Helvetica,sans-Serif" font-size="10.00">cstddef</text>
</a>
</g>
</g>
<!-- Node26&#45;&gt;Node27 -->
<g id="edge29" class="edge">
<title>Node26&#45;&gt;Node27</title>
<path fill="none" stroke="midnightblue" d="M366.34,-117.98C329.14,-107.28 265.37,-88.95 225.29,-77.43"/>
<polygon fill="midnightblue" stroke="midnightblue" points="226.22,-74.06 215.65,-74.66 224.29,-80.79 226.22,-74.06"/>
</g>
<!-- Node28 -->
<g id="node28" class="node">
<title>Node28</title>
<g id="a_node28"><a xlink:title=" ">
<polygon fill="none" stroke="#bfbfbf" points="23,-56.5 23,-75.5 73,-75.5 73,-56.5 23,-56.5"/>
<text text-anchor="middle" x="48" y="-63.5" font-family="Helvetica,sans-Serif" font-size="10.00">cstring</text>
</a>
</g>
</g>
<!-- Node26&#45;&gt;Node28 -->
<g id="edge30" class="edge">
<title>Node26&#45;&gt;Node28</title>
<path fill="none" stroke="midnightblue" d="M345.96,-120.01C285.76,-111.87 181.49,-96.65 83,-76.04"/>
<polygon fill="midnightblue" stroke="midnightblue" points="83.69,-72.61 73.18,-73.96 82.24,-79.46 83.69,-72.61"/>
</g>
<!-- Node29 -->
<g id="node29" class="node">
<title>Node29</title>
<g id="a_node29"><a xlink:title=" ">
<polygon fill="none" stroke="#bfbfbf" points="272,-56.5 272,-75.5 336,-75.5 336,-56.5 272,-56.5"/>
<text text-anchor="middle" x="304" y="-63.5" font-family="Helvetica,sans-Serif" font-size="10.00">algorithm</text>
</a>
</g>
</g>
<!-- Node26&#45;&gt;Node29 -->
<g id="edge31" class="edge">
<title>Node26&#45;&gt;Node29</title>
<path fill="none" stroke="midnightblue" d="M382.82,-117.98C367.93,-108.34 343.46,-92.52 325.73,-81.05"/>
<polygon fill="midnightblue" stroke="midnightblue" points="327.45,-78 317.16,-75.51 323.65,-83.88 327.45,-78"/>
</g>
<!-- Node30 -->
<g id="node30" class="node">
<title>Node30</title>
<g id="a_node30"><a xlink:title=" ">
<polygon fill="none" stroke="#bfbfbf" points="354.5,-56.5 354.5,-75.5 437.5,-75.5 437.5,-56.5 354.5,-56.5"/>
<text text-anchor="middle" x="396" y="-63.5" font-family="Helvetica,sans-Serif" font-size="10.00">initializer_list</text>
</a>
</g>
</g>
<!-- Node26&#45;&gt;Node30 -->
<g id="edge33" class="edge">
<title>Node26&#45;&gt;Node30</title>
<path fill="none" stroke="midnightblue" d="M396,-117.98C396,-109.58 396,-96.48 396,-85.66"/>
<polygon fill="midnightblue" stroke="midnightblue" points="399.5,-85.51 396,-75.51 392.5,-85.51 399.5,-85.51"/>
</g>
<!-- Node31 -->
<g id="node31" class="node">
<title>Node31</title>
<g id="a_node31"><a xlink:title=" ">
<polygon fill="none" stroke="#bfbfbf" points="91.5,-56.5 91.5,-75.5 144.5,-75.5 144.5,-56.5 91.5,-56.5"/>
<text text-anchor="middle" x="118" y="-63.5" font-family="Helvetica,sans-Serif" font-size="10.00">iterator</text>
</a>
</g>
</g>
<!-- Node26&#45;&gt;Node31 -->
<g id="edge34" class="edge">
<title>Node26&#45;&gt;Node31</title>
<path fill="none" stroke="midnightblue" d="M351.97,-117.99C305.28,-108.83 229.15,-93.48 154.73,-76.33"/>
<polygon fill="midnightblue" stroke="midnightblue" points="155.25,-72.86 144.72,-74.01 153.67,-79.68 155.25,-72.86"/>
</g>
<!-- Node32&#45;&gt;Node19 -->
<g id="edge39" class="edge">
<title>Node32&#45;&gt;Node19</title>
<path fill="none" stroke="midnightblue" d="M38.16,-117.95C23.16,-103.89 -2.06,-75.51 14,-56 38.1,-26.72 149.04,-16.22 207.59,-12.68"/>
<polygon fill="midnightblue" stroke="midnightblue" points="208.09,-16.16 217.87,-12.09 207.69,-9.17 208.09,-16.16"/>
</g>
<!-- Node32&#45;&gt;Node28 -->
<g id="edge40" class="edge">
<title>Node32&#45;&gt;Node28</title>
<path fill="none" stroke="midnightblue" d="M48,-117.98C48,-109.58 48,-96.48 48,-85.66"/>
<polygon fill="midnightblue" stroke="midnightblue" points="51.5,-85.51 48,-75.51 44.5,-85.51 51.5,-85.51"/>
</g>
<!-- Node33&#45;&gt;Node8 -->
<g id="edge44" class="edge">
<title>Node33&#45;&gt;Node8</title>
<path fill="none" stroke="midnightblue" d="M1391.62,-179.76C1447.03,-171.92 1531.45,-159.2 1613.79,-143.15"/>
<polygon fill="midnightblue" stroke="midnightblue" points="1614.68,-146.55 1623.81,-141.18 1613.33,-139.68 1614.68,-146.55"/>
</g>
<!-- Node33&#45;&gt;Node9 -->
<g id="edge45" class="edge">
<title>Node33&#45;&gt;Node9</title>
<path fill="none" stroke="midnightblue" d="M1362.95,-179.48C1396.51,-170.52 1450.13,-156.21 1492.04,-145.03"/>
<polygon fill="midnightblue" stroke="midnightblue" points="1493.11,-148.37 1501.87,-142.41 1491.31,-141.6 1493.11,-148.37"/>
</g>
<!-- Node34 -->
<g id="node34" class="node">
<title>Node34</title>
<g id="a_node34"><a xlink:title=" ">
<polygon fill="none" stroke="#bfbfbf" points="1244.5,-118 1244.5,-137 1291.5,-137 1291.5,-118 1244.5,-118"/>
<text text-anchor="middle" x="1268" y="-125" font-family="Helvetica,sans-Serif" font-size="10.00">queue</text>
</a>
</g>
</g>
<!-- Node33&#45;&gt;Node34 -->
<g id="edge42" class="edge">
<title>Node33&#45;&gt;Node34</title>
<path fill="none" stroke="midnightblue" d="M1321.97,-179.48C1312.24,-170.28 1296.54,-155.46 1284.58,-144.16"/>
<polygon fill="midnightblue" stroke="midnightblue" points="1286.68,-141.33 1277.01,-137.01 1281.88,-146.42 1286.68,-141.33"/>
</g>
<!-- Node35 -->
<g id="node35" class="node">
<title>Node35</title>
<g id="a_node35"><a xlink:title=" ">
<polygon fill="none" stroke="#bfbfbf" points="1309.5,-118 1309.5,-137 1352.5,-137 1352.5,-118 1309.5,-118"/>
<text text-anchor="middle" x="1331" y="-125" font-family="Helvetica,sans-Serif" font-size="10.00">stack</text>
</a>
</g>
</g>
<!-- Node33&#45;&gt;Node35 -->
<g id="edge43" class="edge">
<title>Node33&#45;&gt;Node35</title>
<path fill="none" stroke="midnightblue" d="M1331,-179.48C1331,-171.08 1331,-157.98 1331,-147.16"/>
<polygon fill="midnightblue" stroke="midnightblue" points="1334.5,-147.01 1331,-137.01 1327.5,-147.01 1334.5,-147.01"/>
</g>
<!-- Node36 -->
<g id="node36" class="node">
<title>Node36</title>
<g id="a_node36"><a xlink:title=" ">
<polygon fill="none" stroke="#bfbfbf" points="1370.5,-112.5 1370.5,-142.5 1483.5,-142.5 1483.5,-112.5 1370.5,-112.5"/>
<text text-anchor="start" x="1378.5" y="-130.5" font-family="Helvetica,sans-Serif" font-size="10.00">absl/container/node</text>
<text text-anchor="middle" x="1427" y="-119.5" font-family="Helvetica,sans-Serif" font-size="10.00">_hash_map.h</text>
</a>
</g>
</g>
<!-- Node33&#45;&gt;Node36 -->
<g id="edge46" class="edge">
<title>Node33&#45;&gt;Node36</title>
<path fill="none" stroke="midnightblue" d="M1344.75,-179.48C1358,-171.27 1378.5,-158.56 1395.72,-147.88"/>
<polygon fill="midnightblue" stroke="midnightblue" points="1397.72,-150.77 1404.37,-142.52 1394.03,-144.82 1397.72,-150.77"/>
</g>
<!-- Node37 -->
<g id="node37" class="node">
<title>Node37</title>
<g id="a_node37"><a xlink:title=" ">
<polygon fill="none" stroke="#bfbfbf" points="1113.5,-112.5 1113.5,-142.5 1226.5,-142.5 1226.5,-112.5 1113.5,-112.5"/>
<text text-anchor="start" x="1121.5" y="-130.5" font-family="Helvetica,sans-Serif" font-size="10.00">absl/container/node</text>
<text text-anchor="middle" x="1170" y="-119.5" font-family="Helvetica,sans-Serif" font-size="10.00">_hash_set.h</text>
</a>
</g>
</g>
<!-- Node33&#45;&gt;Node37 -->
<g id="edge47" class="edge">
<title>Node33&#45;&gt;Node37</title>
<path fill="none" stroke="midnightblue" d="M1307.93,-179.48C1284.4,-170.78 1247.19,-157.03 1217.35,-146"/>
<polygon fill="midnightblue" stroke="midnightblue" points="1218.54,-142.71 1207.94,-142.52 1216.11,-149.27 1218.54,-142.71"/>
</g>
<!-- Node33&#45;&gt;Node38 -->
<g id="edge48" class="edge">
<title>Node33&#45;&gt;Node38</title>
<path fill="none" stroke="midnightblue" d="M1284.58,-179.48C1226.23,-168.76 1126.16,-150.38 1063.45,-138.87"/>
<polygon fill="midnightblue" stroke="midnightblue" points="1063.8,-135.37 1053.34,-137.01 1062.54,-142.26 1063.8,-135.37"/>
</g>
<!-- Node38&#45;&gt;Node20 -->
<g id="edge49" class="edge">
<title>Node38&#45;&gt;Node20</title>
<path fill="none" stroke="midnightblue" d="M1006.57,-117.98C1006.15,-109.58 1005.49,-96.48 1004.94,-85.66"/>
<polygon fill="midnightblue" stroke="midnightblue" points="1008.43,-85.32 1004.43,-75.51 1001.44,-85.67 1008.43,-85.32"/>
</g>
<!-- Node39&#45;&gt;Node3 -->
<g id="edge54" class="edge">
<title>Node39&#45;&gt;Node3</title>
<path fill="none" stroke="midnightblue" d="M468.25,-292.43C517.74,-282.65 603.89,-265.6 656.93,-255.11"/>
<polygon fill="midnightblue" stroke="midnightblue" points="657.62,-258.54 666.75,-253.17 656.26,-251.68 657.62,-258.54"/>
</g>
<!-- Node40 -->
<g id="node40" class="node">
<title>Node40</title>
<g id="a_node40"><a xlink:title=" ">
<polygon fill="none" stroke="#bfbfbf" points="404.5,-235.5 404.5,-254.5 455.5,-254.5 455.5,-235.5 404.5,-235.5"/>
<text text-anchor="middle" x="430" y="-242.5" font-family="Helvetica,sans-Serif" font-size="10.00">variant</text>
</a>
</g>
</g>
<!-- Node39&#45;&gt;Node40 -->
<g id="edge53" class="edge">
<title>Node39&#45;&gt;Node40</title>
<path fill="none" stroke="midnightblue" d="M430,-291.08C430,-284.01 430,-273.86 430,-264.99"/>
<polygon fill="midnightblue" stroke="midnightblue" points="433.5,-264.75 430,-254.75 426.5,-264.75 433.5,-264.75"/>
</g>
<!-- Node41&#45;&gt;Node2 -->
<g id="edge71" class="edge">
<title>Node41&#45;&gt;Node2</title>
<path fill="none" stroke="midnightblue" d="M990.89,-420.51C916.79,-415.66 758.48,-403.11 627,-378 621.98,-377.04 616.73,-375.85 611.58,-374.56"/>
<polygon fill="midnightblue" stroke="midnightblue" points="612.43,-371.16 601.86,-372 610.64,-377.93 612.43,-371.16"/>
</g>
<!-- Node41&#45;&gt;Node6 -->
<g id="edge65" class="edge">
<title>Node41&#45;&gt;Node6</title>
<path fill="none" stroke="midnightblue" d="M1068.87,-414.49C1099.15,-406.73 1143.32,-394.03 1180,-378 1300.33,-325.4 1432.29,-238.46 1482.28,-204.35"/>
<polygon fill="midnightblue" stroke="midnightblue" points="1484.37,-207.17 1490.63,-198.62 1480.41,-201.39 1484.37,-207.17"/>
</g>
<!-- Node41&#45;&gt;Node7 -->
<g id="edge57" class="edge">
<title>Node41&#45;&gt;Node7</title>
<path fill="none" stroke="midnightblue" d="M1055.86,-414.47C1093.89,-398.63 1166,-360.84 1166,-302 1166,-302 1166,-302 1166,-244 1166,-191.56 1122.02,-192.6 1105,-143 1098.54,-124.19 1096.56,-101.4 1096.03,-85.71"/>
<polygon fill="midnightblue" stroke="midnightblue" points="1099.53,-85.63 1095.85,-75.7 1092.53,-85.76 1099.53,-85.63"/>
</g>
<!-- Node41&#45;&gt;Node11 -->
<g id="edge58" class="edge">
<title>Node41&#45;&gt;Node11</title>
<path fill="none" stroke="midnightblue" d="M1032.43,-414.34C1031.28,-400 1028.08,-370.55 1020,-347 992.57,-267.04 938.34,-181.14 914.6,-145.49"/>
<polygon fill="midnightblue" stroke="midnightblue" points="917.49,-143.52 909,-137.18 911.68,-147.43 917.49,-143.52"/>
</g>
<!-- Node41&#45;&gt;Node17 -->
<g id="edge56" class="edge">
<title>Node41&#45;&gt;Node17</title>
<path fill="none" stroke="midnightblue" d="M1075.15,-422.33C1176.7,-420.18 1432.28,-411.5 1510,-378 1655.48,-315.29 1698.02,-279.75 1778,-143 1788.3,-125.39 1792.01,-102.05 1793.33,-85.91"/>
<polygon fill="midnightblue" stroke="midnightblue" points="1796.84,-85.79 1793.92,-75.61 1789.85,-85.39 1796.84,-85.79"/>
</g>
<!-- Node41&#45;&gt;Node38 -->
<g id="edge74" class="edge">
<title>Node41&#45;&gt;Node38</title>
<path fill="none" stroke="midnightblue" d="M1047.02,-414.26C1073.44,-396.58 1128,-353.81 1128,-302 1128,-302 1128,-302 1128,-244 1128,-193.88 1073.01,-158.85 1037.17,-141.34"/>
<polygon fill="midnightblue" stroke="midnightblue" points="1038.62,-138.15 1028.08,-137.06 1035.64,-144.48 1038.62,-138.15"/>
</g>
<!-- Node42 -->
<g id="node42" class="node">
<title>Node42</title>
<g id="a_node42"><a xlink:title=" ">
<polygon fill="none" stroke="#bfbfbf" points="636,-347.5 636,-377.5 750,-377.5 750,-347.5 636,-347.5"/>
<text text-anchor="start" x="644" y="-365.5" font-family="Helvetica,sans-Serif" font-size="10.00">absl/container/btree</text>
<text text-anchor="middle" x="693" y="-354.5" font-family="Helvetica,sans-Serif" font-size="10.00">_map.h</text>
</a>
</g>
</g>
<!-- Node41&#45;&gt;Node42 -->
<g id="edge59" class="edge">
<title>Node41&#45;&gt;Node42</title>
<path fill="none" stroke="midnightblue" d="M990.63,-416.76C938.63,-408.94 847.55,-394.74 760.02,-378.14"/>
<polygon fill="midnightblue" stroke="midnightblue" points="760.68,-374.7 750.2,-376.26 759.36,-381.58 760.68,-374.7"/>
</g>
<!-- Node43 -->
<g id="node43" class="node">
<title>Node43</title>
<g id="a_node43"><a xlink:title=" ">
<polygon fill="none" stroke="#bfbfbf" points="768,-347.5 768,-377.5 882,-377.5 882,-347.5 768,-347.5"/>
<text text-anchor="start" x="776" y="-365.5" font-family="Helvetica,sans-Serif" font-size="10.00">absl/container/btree</text>
<text text-anchor="middle" x="825" y="-354.5" font-family="Helvetica,sans-Serif" font-size="10.00">_set.h</text>
</a>
</g>
</g>
<!-- Node41&#45;&gt;Node43 -->
<g id="edge60" class="edge">
<title>Node41&#45;&gt;Node43</title>
<path fill="none" stroke="midnightblue" d="M1003.2,-414.48C972.13,-405.59 922.63,-391.43 883.68,-380.29"/>
<polygon fill="midnightblue" stroke="midnightblue" points="884.6,-376.91 874.02,-377.52 882.67,-383.64 884.6,-376.91"/>
</g>
<!-- Node44 -->
<g id="node44" class="node">
<title>Node44</title>
<g id="a_node44"><a xlink:href="axiom_8h.html" target="_top" xlink:title=" ">
<polygon fill="none" stroke="black" points="424,-353 424,-372 512,-372 512,-353 424,-353"/>
<text text-anchor="middle" x="468" y="-360" font-family="Helvetica,sans-Serif" font-size="10.00">thorin/axiom.h</text>
</a>
</g>
</g>
<!-- Node41&#45;&gt;Node44 -->
<g id="edge61" class="edge">
<title>Node41&#45;&gt;Node44</title>
<path fill="none" stroke="midnightblue" d="M990.85,-421.85C902.89,-418.89 693.59,-408.94 521,-378 515.91,-377.09 510.59,-375.91 505.38,-374.62"/>
<polygon fill="midnightblue" stroke="midnightblue" points="506.13,-371.2 495.57,-372.05 504.35,-377.97 506.13,-371.2"/>
</g>
<!-- Node45 -->
<g id="node45" class="node">
<title>Node45</title>
<g id="a_node45"><a xlink:title=" ">
<polygon fill="none" stroke="#bfbfbf" points="900,-353 900,-372 986,-372 986,-353 900,-353"/>
<text text-anchor="middle" x="943" y="-360" font-family="Helvetica,sans-Serif" font-size="10.00">thorin/config.h</text>
</a>
</g>
</g>
<!-- Node41&#45;&gt;Node45 -->
<g id="edge64" class="edge">
<title>Node41&#45;&gt;Node45</title>
<path fill="none" stroke="midnightblue" d="M1020.11,-414.48C1005.54,-404.84 981.6,-389.02 964.25,-377.55"/>
<polygon fill="midnightblue" stroke="midnightblue" points="966.14,-374.6 955.87,-372.01 962.28,-380.44 966.14,-374.6"/>
</g>
<!-- Node46 -->
<g id="node46" class="node">
<title>Node46</title>
<g id="a_node46"><a xlink:href="error_8h.html" target="_top" xlink:title=" ">
<polygon fill="none" stroke="black" points="1497,-235.5 1497,-254.5 1577,-254.5 1577,-235.5 1497,-235.5"/>
<text text-anchor="middle" x="1537" y="-242.5" font-family="Helvetica,sans-Serif" font-size="10.00">thorin/error.h</text>
</a>
</g>
</g>
<!-- Node41&#45;&gt;Node46 -->
<g id="edge66" class="edge">
<title>Node41&#45;&gt;Node46</title>
<path fill="none" stroke="midnightblue" d="M1075.24,-421.24C1180.93,-416.48 1450.71,-402.09 1483,-378 1519.61,-350.68 1531.5,-294.17 1535.28,-264.74"/>
<polygon fill="midnightblue" stroke="midnightblue" points="1538.79,-264.91 1536.4,-254.58 1531.83,-264.14 1538.79,-264.91"/>
</g>
<!-- Node48 -->
<g id="node48" class="node">
<title>Node48</title>
<g id="a_node48"><a xlink:href="tuple_8h.html" target="_top" xlink:title=" ">
<polygon fill="none" stroke="black" points="757,-291.5 757,-310.5 839,-310.5 839,-291.5 757,-291.5"/>
<text text-anchor="middle" x="798" y="-298.5" font-family="Helvetica,sans-Serif" font-size="10.00">thorin/tuple.h</text>
</a>
</g>
</g>
<!-- Node41&#45;&gt;Node48 -->
<g id="edge72" class="edge">
<title>Node41&#45;&gt;Node48</title>
<path fill="none" stroke="midnightblue" d="M1031.24,-414.41C1027.51,-398.5 1017.27,-364.5 995,-347 953.37,-314.3 892.37,-304.51 849.3,-301.99"/>
<polygon fill="midnightblue" stroke="midnightblue" points="849.46,-298.49 839.3,-301.52 849.13,-305.49 849.46,-298.49"/>
</g>
<!-- Node49 -->
<g id="node49" class="node">
<title>Node49</title>
<g id="a_node49"><a xlink:href="log_8h.html" target="_top" xlink:title=" ">
<polygon fill="none" stroke="black" points="1008.5,-235.5 1008.5,-254.5 1099.5,-254.5 1099.5,-235.5 1008.5,-235.5"/>
<text text-anchor="middle" x="1054" y="-242.5" font-family="Helvetica,sans-Serif" font-size="10.00">thorin/util/log.h</text>
</a>
</g>
</g>
<!-- Node41&#45;&gt;Node49 -->
<g id="edge75" class="edge">
<title>Node41&#45;&gt;Node49</title>
<path fill="none" stroke="midnightblue" d="M1042.02,-414.34C1050.07,-405.93 1061.3,-392.36 1066,-378 1078.78,-338.96 1067.9,-290.19 1060.15,-264.24"/>
<polygon fill="midnightblue" stroke="midnightblue" points="1063.45,-263.08 1057.09,-254.6 1056.78,-265.19 1063.45,-263.08"/>
</g>
<!-- Node44&#45;&gt;Node18 -->
<g id="edge63" class="edge">
<title>Node44&#45;&gt;Node18</title>
<path fill="none" stroke="midnightblue" d="M471.55,-352.98C479.08,-334.08 496,-287.06 496,-246 496,-246 496,-246 496,-188 496,-139.97 640.42,-97.36 717.62,-78.02"/>
<polygon fill="midnightblue" stroke="midnightblue" points="718.73,-81.35 727.6,-75.55 717.05,-74.55 718.73,-81.35"/>
</g>
<!-- Node44&#45;&gt;Node39 -->
<g id="edge62" class="edge">
<title>Node44&#45;&gt;Node39</title>
<path fill="none" stroke="midnightblue" d="M462.56,-352.98C456.91,-344.14 447.94,-330.09 440.84,-318.98"/>
<polygon fill="midnightblue" stroke="midnightblue" points="443.77,-317.05 435.43,-310.51 437.87,-320.82 443.77,-317.05"/>
</g>
<!-- Node46&#45;&gt;Node6 -->
<g id="edge69" class="edge">
<title>Node46&#45;&gt;Node6</title>
<path fill="none" stroke="midnightblue" d="M1531.39,-235.08C1526.63,-227.53 1519.68,-216.49 1513.85,-207.23"/>
<polygon fill="midnightblue" stroke="midnightblue" points="1516.8,-205.35 1508.51,-198.75 1510.88,-209.08 1516.8,-205.35"/>
</g>
<!-- Node46&#45;&gt;Node12 -->
<g id="edge70" class="edge">
<title>Node46&#45;&gt;Node12</title>
<path fill="none" stroke="midnightblue" d="M1496.71,-243.36C1354.08,-240.84 878.36,-230.17 818,-199 795.67,-187.47 779.02,-162.9 769.65,-146.04"/>
<polygon fill="midnightblue" stroke="midnightblue" points="772.74,-144.39 764.99,-137.16 766.54,-147.64 772.74,-144.39"/>
</g>
<!-- Node46&#45;&gt;Node17 -->
<g id="edge67" class="edge">
<title>Node46&#45;&gt;Node17</title>
<path fill="none" stroke="midnightblue" d="M1571.94,-235.49C1618.61,-222.55 1701.48,-193.9 1754,-143 1770.69,-126.83 1781.88,-102.18 1788.09,-85.37"/>
<polygon fill="midnightblue" stroke="midnightblue" points="1791.5,-86.21 1791.45,-75.62 1784.88,-83.93 1791.5,-86.21"/>
</g>
<!-- Node47 -->
<g id="node47" class="node">
<title>Node47</title>
<g id="a_node47"><a xlink:title=" ">
<polygon fill="none" stroke="#bfbfbf" points="1564.5,-179.5 1564.5,-198.5 1629.5,-198.5 1629.5,-179.5 1564.5,-179.5"/>
<text text-anchor="middle" x="1597" y="-186.5" font-family="Helvetica,sans-Serif" font-size="10.00">stdexcept</text>
</a>
</g>
</g>
<!-- Node46&#45;&gt;Node47 -->
<g id="edge68" class="edge">
<title>Node46&#45;&gt;Node47</title>
<path fill="none" stroke="midnightblue" d="M1546.64,-235.32C1555.51,-227.34 1568.87,-215.31 1579.61,-205.65"/>
<polygon fill="midnightblue" stroke="midnightblue" points="1582.09,-208.13 1587.18,-198.83 1577.41,-202.92 1582.09,-208.13"/>
</g>
<!-- Node48&#45;&gt;Node3 -->
<g id="edge73" class="edge">
<title>Node48&#45;&gt;Node3</title>
<path fill="none" stroke="midnightblue" d="M782.74,-291.32C767.78,-282.82 744.75,-269.73 727.27,-259.8"/>
<polygon fill="midnightblue" stroke="midnightblue" points="728.65,-256.55 718.23,-254.65 725.19,-262.64 728.65,-256.55"/>
</g>
<!-- Node49&#45;&gt;Node6 -->
<g id="edge76" class="edge">
<title>Node49&#45;&gt;Node6</title>
<path fill="none" stroke="midnightblue" d="M1099.52,-238.53C1182.95,-228.49 1359.94,-207.21 1449.17,-196.47"/>
<polygon fill="midnightblue" stroke="midnightblue" points="1449.84,-199.92 1459.35,-195.25 1449,-192.97 1449.84,-199.92"/>
</g>
<!-- Node49&#45;&gt;Node12 -->
<g id="edge77" class="edge">
<title>Node49&#45;&gt;Node12</title>
<path fill="none" stroke="midnightblue" d="M1008.42,-242.01C940.43,-238.14 816.92,-227.31 784,-199 769.23,-186.3 763.89,-163.99 761.98,-147.86"/>
<polygon fill="midnightblue" stroke="midnightblue" points="765.43,-147.12 761.12,-137.44 758.46,-147.69 765.43,-147.12"/>
</g>
</g>
</svg>
