<?xml version="1.0" encoding="UTF-8" standalone="no"?>
<!DOCTYPE svg PUBLIC "-//W3C//DTD SVG 1.1//EN"
 "http://www.w3.org/Graphics/SVG/1.1/DTD/svg11.dtd">
<!-- Generated by graphviz version 2.43.0 (0)
 -->
<!-- Title: src/mim/lattice.cpp Pages: 1 -->
<!--zoomable 368 -->

<svg id="main" version="1.1" xmlns="http://www.w3.org/2000/svg" xmlns:xlink="http://www.w3.org/1999/xlink" xml:space="preserve" onload="init(evt)">

<style type="text/css"><![CDATA[
.node, .edge {opacity: 0.7;}
.node.selected, .edge.selected {opacity: 1;}
.edge:hover path { stroke: red; }
.edge:hover polygon { stroke: red; fill: red; }
]]></style>

<defs>
  <circle id="rim" cx="0" cy="0" r="7"/>
  <circle id="rim2" cx="0" cy="0" r="3.5"/>
  <g id="zoomPlus">
    <use xlink:href="#rim" fill="#404040"><set attributeName="fill" to="#808080" begin="zoomplus.mouseover" end="zoomplus.mouseout"/></use>
    <path d="M-4,0h8M0,-4v8" fill="none" stroke="white" stroke-width="1.5" pointer-events="none"/>
  </g>
  <g id="zoomMin">
    <use xlink:href="#rim" fill="#404040"><set attributeName="fill" to="#808080" begin="zoomminus.mouseover" end="zoomminus.mouseout"/></use>
    <path d="M-4,0h8" fill="none" stroke="white" stroke-width="1.5" pointer-events="none"/>
  </g>
  <g id="arrowUp" transform="translate(30 24)">
    <use xlink:href="#rim"/>
    <path pointer-events="none" fill="none" stroke="white" stroke-width="1.5" d="M0,-3.0v7 M-2.5,-0.5L0,-3.0L2.5,-0.5"/>
  </g>
  <g id="arrowRight" transform="rotate(90) translate(36 -43)">
    <use xlink:href="#rim"/>
    <path pointer-events="none" fill="none" stroke="white" stroke-width="1.5" d="M0,-3.0v7 M-2.5,-0.5L0,-3.0L2.5,-0.5"/>
  </g>
  <g id="arrowDown" transform="rotate(180) translate(-30 -48)">
    <use xlink:href="#rim"/>
    <path pointer-events="none" fill="none" stroke="white" stroke-width="1.5" d="M0,-3.0v7 M-2.5,-0.5L0,-3.0L2.5,-0.5"/>
  </g>
  <g id="arrowLeft" transform="rotate(270) translate(-36 17)">
    <use xlink:href="#rim"/>
    <path pointer-events="none" fill="none" stroke="white" stroke-width="1.5" d="M0,-3.0v7 M-2.5,-0.5L0,-3.0L2.5,-0.5"/>
  </g>
  <g id="resetDef">
    <use xlink:href="#rim2" fill="#404040"><set attributeName="fill" to="#808080" begin="reset.mouseover" end="reset.mouseout"/></use>
  </g>
</defs>
<script type="application/ecmascript">
var viewWidth = 1751;
var viewHeight = 368;
var sectionId = 'dynsection-0';
</script>
<script type="application/ecmascript" xlink:href="svg.min.js"/>
<svg id="graph" class="graph">
<g id="viewport">
<title>src/mim/lattice.cpp</title>
<!-- Node1 -->
<g id="Node000001" class="node">
<title>Node1</title>
<g id="a_Node000001"><a xlink:title=" ">
<polygon fill="#999999" stroke="#666666" points="1171,-360 1061,-360 1061,-341 1171,-341 1171,-360"/>
<text text-anchor="middle" x="1116" y="-348" font-family="Helvetica,sans-Serif" font-size="10.00">src/mim/lattice.cpp</text>
</a>
</g>
</g>
<!-- Node2 -->
<g id="Node000002" class="node">
<title>Node2</title>
<g id="a_Node000002"><a xlink:href="lattice_8h.html" target="_top" xlink:title=" ">
<polygon fill="white" stroke="#666666" points="935,-305 853,-305 853,-286 935,-286 935,-305"/>
<text text-anchor="middle" x="894" y="-293" font-family="Helvetica,sans-Serif" font-size="10.00">mim/lattice.h</text>
</a>
</g>
</g>
<!-- Node1&#45;&gt;Node2 -->
<g id="edge1_Node000001_Node000002" class="edge">
<title>Node1&#45;&gt;Node2</title>
<g id="a_edge1_Node000001_Node000002"><a xlink:title=" ">
<path fill="none" stroke="#63b8ff" d="M1080.33,-340.98C1042.17,-331.87 981.53,-317.4 939.85,-307.45"/>
<polygon fill="#63b8ff" stroke="#63b8ff" points="940.49,-304 929.95,-305.08 938.86,-310.81 940.49,-304"/>
</a>
</g>
</g>
<!-- Node28 -->
<g id="Node000028" class="node">
<title>Node28</title>
<g id="a_Node000028"><a xlink:href="util_8h.html" target="_top" xlink:title=" ">
<polygon fill="white" stroke="#666666" points="1344,-140 1258,-140 1258,-121 1344,-121 1344,-140"/>
<text text-anchor="middle" x="1301" y="-128" font-family="Helvetica,sans-Serif" font-size="10.00">mim/util/util.h</text>
</a>
</g>
</g>
<!-- Node1&#45;&gt;Node28 -->
<g id="edge56_Node000001_Node000028" class="edge">
<title>Node1&#45;&gt;Node28</title>
<g id="a_edge56_Node000001_Node000028"><a xlink:title=" ">
<path fill="none" stroke="#63b8ff" d="M1134.88,-340.89C1174.73,-321.52 1266.69,-270.24 1302,-195 1308.59,-180.96 1307.64,-163.19 1305.44,-150.02"/>
<polygon fill="#63b8ff" stroke="#63b8ff" points="1308.87,-149.32 1303.44,-140.22 1302.01,-150.71 1308.87,-149.32"/>
</a>
</g>
</g>
<!-- Node3 -->
<g id="Node000003" class="node">
<title>Node3</title>
<g id="a_Node000003"><a xlink:title=" ">
<polygon fill="#e0e0e0" stroke="#999999" points="58,-19 18,-19 18,0 58,0 58,-19"/>
<text text-anchor="middle" x="38" y="-7" font-family="Helvetica,sans-Serif" font-size="10.00">span</text>
</a>
</g>
</g>
<!-- Node2&#45;&gt;Node3 -->
<g id="edge2_Node000002_Node000003" class="edge">
<title>Node2&#45;&gt;Node3</title>
<g id="a_edge2_Node000002_Node000003"><a xlink:title=" ">
<path fill="none" stroke="#63b8ff" d="M852.97,-293.92C677.61,-290.9 0,-273.61 0,-186.5 0,-186.5 0,-186.5 0,-129.5 0,-92.07 17.27,-51.03 28.52,-28.25"/>
<polygon fill="#63b8ff" stroke="#63b8ff" points="31.74,-29.65 33.19,-19.15 25.51,-26.46 31.74,-29.65"/>
</a>
</g>
</g>
<!-- Node4 -->
<g id="Node000004" class="node">
<title>Node4</title>
<g id="a_Node000004"><a xlink:href="def_8h.html" target="_top" xlink:title=" ">
<polygon fill="white" stroke="#666666" points="927,-250 861,-250 861,-231 927,-231 927,-250"/>
<text text-anchor="middle" x="894" y="-238" font-family="Helvetica,sans-Serif" font-size="10.00">mim/def.h</text>
</a>
</g>
</g>
<!-- Node2&#45;&gt;Node4 -->
<g id="edge3_Node000002_Node000004" class="edge">
<title>Node2&#45;&gt;Node4</title>
<g id="a_edge3_Node000002_Node000004"><a xlink:title=" ">
<path fill="none" stroke="#63b8ff" d="M894,-285.75C894,-278.8 894,-268.85 894,-260.13"/>
<polygon fill="#63b8ff" stroke="#63b8ff" points="897.5,-260.09 894,-250.09 890.5,-260.09 897.5,-260.09"/>
</a>
</g>
</g>
<!-- Node4&#45;&gt;Node3 -->
<g id="edge6_Node000004_Node000003" class="edge">
<title>Node4&#45;&gt;Node3</title>
<g id="a_edge6_Node000004_Node000003"><a xlink:title=" ">
<path fill="none" stroke="#63b8ff" d="M860.98,-237.5C791.27,-232.92 624.11,-220.11 486,-195 292.34,-159.8 196.09,-224.27 57,-85 42.44,-70.42 38.53,-46.33 37.72,-29.51"/>
<polygon fill="#63b8ff" stroke="#63b8ff" points="41.22,-29.17 37.56,-19.22 34.22,-29.28 41.22,-29.17"/>
</a>
</g>
</g>
<!-- Node5 -->
<g id="Node000005" class="node">
<title>Node5</title>
<g id="a_Node000005"><a xlink:title=" ">
<polygon fill="#e0e0e0" stroke="#999999" points="479,-19 435,-19 435,0 479,0 479,-19"/>
<text text-anchor="middle" x="457" y="-7" font-family="Helvetica,sans-Serif" font-size="10.00">limits</text>
</a>
</g>
</g>
<!-- Node4&#45;&gt;Node5 -->
<g id="edge4_Node000004_Node000005" class="edge">
<title>Node4&#45;&gt;Node5</title>
<g id="a_edge4_Node000004_Node000005"><a xlink:title=" ">
<path fill="none" stroke="#63b8ff" d="M860.77,-237.23C763.75,-229.91 483.94,-203.58 423,-140 396.6,-112.45 396.11,-90.13 411,-55 415.98,-43.25 425.75,-33.09 435.01,-25.45"/>
<polygon fill="#63b8ff" stroke="#63b8ff" points="437.4,-28.03 443.22,-19.18 433.15,-22.47 437.4,-28.03"/>
</a>
</g>
</g>
<!-- Node6 -->
<g id="Node000006" class="node">
<title>Node6</title>
<g id="a_Node000006"><a xlink:title=" ">
<polygon fill="#e0e0e0" stroke="#999999" points="1013,-195 957,-195 957,-176 1013,-176 1013,-195"/>
<text text-anchor="middle" x="985" y="-183" font-family="Helvetica,sans-Serif" font-size="10.00">optional</text>
</a>
</g>
</g>
<!-- Node4&#45;&gt;Node6 -->
<g id="edge5_Node000004_Node000006" class="edge">
<title>Node4&#45;&gt;Node6</title>
<g id="a_edge5_Node000004_Node000006"><a xlink:title=" ">
<path fill="none" stroke="#63b8ff" d="M908.62,-230.98C922.86,-222.69 944.75,-209.94 961.45,-200.22"/>
<polygon fill="#63b8ff" stroke="#63b8ff" points="963.23,-203.23 970.11,-195.17 959.71,-197.18 963.23,-203.23"/>
</a>
</g>
</g>
<!-- Node7 -->
<g id="Node000007" class="node">
<title>Node7</title>
<g id="a_Node000007"><a xlink:title=" ">
<polygon fill="#e0e0e0" stroke="#999999" points="688,-79.5 620,-79.5 620,-60.5 688,-60.5 688,-79.5"/>
<text text-anchor="middle" x="654" y="-67.5" font-family="Helvetica,sans-Serif" font-size="10.00">fe/assert.h</text>
</a>
</g>
</g>
<!-- Node4&#45;&gt;Node7 -->
<g id="edge7_Node000004_Node000007" class="edge">
<title>Node4&#45;&gt;Node7</title>
<g id="a_edge7_Node000004_Node000007"><a xlink:title=" ">
<path fill="none" stroke="#63b8ff" d="M860.73,-238.07C815.79,-234.99 734.18,-225.33 672,-195 638.29,-178.56 623.65,-174.08 608,-140 598.84,-120.06 616.9,-99.4 633.01,-85.95"/>
<polygon fill="#63b8ff" stroke="#63b8ff" points="635.38,-88.54 641.1,-79.62 631.07,-83.02 635.38,-88.54"/>
</a>
</g>
</g>
<!-- Node8 -->
<g id="Node000008" class="node">
<title>Node8</title>
<g id="a_Node000008"><a xlink:title=" ">
<polygon fill="#e0e0e0" stroke="#999999" points="1090.5,-195 1031.5,-195 1031.5,-176 1090.5,-176 1090.5,-195"/>
<text text-anchor="middle" x="1061" y="-183" font-family="Helvetica,sans-Serif" font-size="10.00">fe/cast.h</text>
</a>
</g>
</g>
<!-- Node4&#45;&gt;Node8 -->
<g id="edge8_Node000004_Node000008" class="edge">
<title>Node4&#45;&gt;Node8</title>
<g id="a_edge8_Node000004_Node000008"><a xlink:title=" ">
<path fill="none" stroke="#63b8ff" d="M920.83,-230.98C948.87,-222.09 993.05,-208.07 1024.3,-198.15"/>
<polygon fill="#63b8ff" stroke="#63b8ff" points="1025.49,-201.44 1033.96,-195.08 1023.37,-194.77 1025.49,-201.44"/>
</a>
</g>
</g>
<!-- Node9 -->
<g id="Node000009" class="node">
<title>Node9</title>
<g id="a_Node000009"><a xlink:title=" ">
<polygon fill="#e0e0e0" stroke="#999999" points="1175,-195 1109,-195 1109,-176 1175,-176 1175,-195"/>
<text text-anchor="middle" x="1142" y="-183" font-family="Helvetica,sans-Serif" font-size="10.00">fe/enum.h</text>
</a>
</g>
</g>
<!-- Node4&#45;&gt;Node9 -->
<g id="edge9_Node000004_Node000009" class="edge">
<title>Node4&#45;&gt;Node9</title>
<g id="a_edge9_Node000004_Node000009"><a xlink:title=" ">
<path fill="none" stroke="#63b8ff" d="M927.19,-232.41C971.43,-222.95 1049.8,-206.2 1098.66,-195.76"/>
<polygon fill="#63b8ff" stroke="#63b8ff" points="1099.56,-199.15 1108.61,-193.64 1098.1,-192.3 1099.56,-199.15"/>
</a>
</g>
</g>
<!-- Node10 -->
<g id="Node000010" class="node">
<title>Node10</title>
<g id="a_Node000010"><a xlink:href="config_8h.html" target="_top" xlink:title=" ">
<polygon fill="white" stroke="#666666" points="1273,-195 1193,-195 1193,-176 1273,-176 1273,-195"/>
<text text-anchor="middle" x="1233" y="-183" font-family="Helvetica,sans-Serif" font-size="10.00">mim/config.h</text>
</a>
</g>
</g>
<!-- Node4&#45;&gt;Node10 -->
<g id="edge10_Node000004_Node000010" class="edge">
<title>Node4&#45;&gt;Node10</title>
<g id="a_edge10_Node000004_Node000010"><a xlink:title=" ">
<path fill="none" stroke="#63b8ff" d="M927.09,-234.64C979.23,-226.93 1083.97,-211.25 1183.02,-195.13"/>
<polygon fill="#63b8ff" stroke="#63b8ff" points="1183.59,-198.59 1192.9,-193.52 1182.47,-191.68 1183.59,-198.59"/>
</a>
</g>
</g>
<!-- Node11 -->
<g id="Node000011" class="node">
<title>Node11</title>
<g id="a_Node000011"><a xlink:href="dbg_8h.html" target="_top" xlink:title=" ">
<polygon fill="white" stroke="#666666" points="769,-195 681,-195 681,-176 769,-176 769,-195"/>
<text text-anchor="middle" x="725" y="-183" font-family="Helvetica,sans-Serif" font-size="10.00">mim/util/dbg.h</text>
</a>
</g>
</g>
<!-- Node4&#45;&gt;Node11 -->
<g id="edge11_Node000004_Node000011" class="edge">
<title>Node4&#45;&gt;Node11</title>
<g id="a_edge11_Node000004_Node000011"><a xlink:title=" ">
<path fill="none" stroke="#63b8ff" d="M866.85,-230.98C838.47,-222.09 793.77,-208.07 762.14,-198.15"/>
<polygon fill="#63b8ff" stroke="#63b8ff" points="762.95,-194.73 752.37,-195.08 760.86,-201.41 762.95,-194.73"/>
</a>
</g>
</g>
<!-- Node24 -->
<g id="Node000024" class="node">
<title>Node24</title>
<g id="a_Node000024"><a xlink:href="sets_8h.html" target="_top" xlink:title=" ">
<polygon fill="white" stroke="#666666" points="939,-195 849,-195 849,-176 939,-176 939,-195"/>
<text text-anchor="middle" x="894" y="-183" font-family="Helvetica,sans-Serif" font-size="10.00">mim/util/sets.h</text>
</a>
</g>
</g>
<!-- Node4&#45;&gt;Node24 -->
<g id="edge25_Node000004_Node000024" class="edge">
<title>Node4&#45;&gt;Node24</title>
<g id="a_edge25_Node000004_Node000024"><a xlink:title=" ">
<path fill="none" stroke="#63b8ff" d="M894,-230.75C894,-223.8 894,-213.85 894,-205.13"/>
<polygon fill="#63b8ff" stroke="#63b8ff" points="897.5,-205.09 894,-195.09 890.5,-205.09 897.5,-205.09"/>
</a>
</g>
</g>
<!-- Node4&#45;&gt;Node28 -->
<g id="edge54_Node000004_Node000028" class="edge">
<title>Node4&#45;&gt;Node28</title>
<g id="a_edge54_Node000004_Node000028"><a xlink:title=" ">
<path fill="none" stroke="#63b8ff" d="M927.1,-240.21C1010.91,-241.32 1228.59,-239.73 1282,-195 1294.95,-184.16 1299.29,-164.88 1300.65,-150.4"/>
<polygon fill="#63b8ff" stroke="#63b8ff" points="1304.16,-150.24 1301.2,-140.06 1297.17,-149.86 1304.16,-150.24"/>
</a>
</g>
</g>
<!-- Node39 -->
<g id="Node000039" class="node">
<title>Node39</title>
<g id="a_Node000039"><a xlink:href="vector_8h.html" target="_top" xlink:title=" ">
<polygon fill="white" stroke="#666666" points="988,-140 888,-140 888,-121 988,-121 988,-140"/>
<text text-anchor="middle" x="938" y="-128" font-family="Helvetica,sans-Serif" font-size="10.00">mim/util/vector.h</text>
</a>
</g>
</g>
<!-- Node4&#45;&gt;Node39 -->
<g id="edge55_Node000004_Node000039" class="edge">
<title>Node4&#45;&gt;Node39</title>
<g id="a_edge55_Node000004_Node000039"><a xlink:title=" ">
<path fill="none" stroke="#63b8ff" d="M877.08,-230.85C856.56,-219.15 826.29,-197.29 840,-176 850.16,-160.23 867.43,-149.98 884.66,-143.35"/>
<polygon fill="#63b8ff" stroke="#63b8ff" points="885.9,-146.63 894.19,-140.03 883.59,-140.02 885.9,-146.63"/>
</a>
</g>
</g>
<!-- Node12 -->
<g id="Node000012" class="node">
<title>Node12</title>
<g id="a_Node000012"><a xlink:title=" ">
<polygon fill="#e0e0e0" stroke="#999999" points="932,-85 828,-85 828,-55 932,-55 932,-85"/>
<text text-anchor="start" x="836" y="-73" font-family="Helvetica,sans-Serif" font-size="10.00">absl/container/flat</text>
<text text-anchor="middle" x="880" y="-62" font-family="Helvetica,sans-Serif" font-size="10.00">_hash_map.h</text>
</a>
</g>
</g>
<!-- Node11&#45;&gt;Node12 -->
<g id="edge12_Node000011_Node000012" class="edge">
<title>Node11&#45;&gt;Node12</title>
<g id="a_edge12_Node000011_Node000012"><a xlink:title=" ">
<path fill="none" stroke="#63b8ff" d="M766.48,-176C790.41,-169.41 819.84,-158.24 841,-140 855.06,-127.88 865.13,-109.38 871.51,-94.59"/>
<polygon fill="#63b8ff" stroke="#63b8ff" points="874.86,-95.64 875.34,-85.06 868.36,-93.03 874.86,-95.64"/>
</a>
</g>
</g>
<!-- Node13 -->
<g id="Node000013" class="node">
<title>Node13</title>
<g id="a_Node000013"><a xlink:title=" ">
<polygon fill="#e0e0e0" stroke="#999999" points="810,-85 706,-85 706,-55 810,-55 810,-85"/>
<text text-anchor="start" x="714" y="-73" font-family="Helvetica,sans-Serif" font-size="10.00">absl/container/flat</text>
<text text-anchor="middle" x="758" y="-62" font-family="Helvetica,sans-Serif" font-size="10.00">_hash_set.h</text>
</a>
</g>
</g>
<!-- Node11&#45;&gt;Node13 -->
<g id="edge13_Node000011_Node000013" class="edge">
<title>Node11&#45;&gt;Node13</title>
<g id="a_edge13_Node000011_Node000013"><a xlink:title=" ">
<path fill="none" stroke="#63b8ff" d="M680.88,-176.21C642.5,-166.92 595.94,-149.33 616,-121 625.83,-107.12 662.37,-94.43 695.92,-85.31"/>
<polygon fill="#63b8ff" stroke="#63b8ff" points="696.96,-88.65 705.74,-82.71 695.17,-81.88 696.96,-88.65"/>
</a>
</g>
</g>
<!-- Node14 -->
<g id="Node000014" class="node">
<title>Node14</title>
<g id="a_Node000014"><a xlink:title=" ">
<polygon fill="#e0e0e0" stroke="#999999" points="677.5,-140 624.5,-140 624.5,-121 677.5,-121 677.5,-140"/>
<text text-anchor="middle" x="651" y="-128" font-family="Helvetica,sans-Serif" font-size="10.00">fe/loc.h</text>
</a>
</g>
</g>
<!-- Node11&#45;&gt;Node14 -->
<g id="edge14_Node000011_Node000014" class="edge">
<title>Node11&#45;&gt;Node14</title>
<g id="a_edge14_Node000011_Node000014"><a xlink:title=" ">
<path fill="none" stroke="#63b8ff" d="M713.11,-175.98C701.85,-167.92 684.71,-155.65 671.29,-146.03"/>
<polygon fill="#63b8ff" stroke="#63b8ff" points="673.27,-143.15 663.11,-140.17 669.2,-148.84 673.27,-143.15"/>
</a>
</g>
</g>
<!-- Node15 -->
<g id="Node000015" class="node">
<title>Node15</title>
<g id="a_Node000015"><a xlink:title=" ">
<polygon fill="#e0e0e0" stroke="#999999" points="754.5,-140 695.5,-140 695.5,-121 754.5,-121 754.5,-140"/>
<text text-anchor="middle" x="725" y="-128" font-family="Helvetica,sans-Serif" font-size="10.00">fe/sym.h</text>
</a>
</g>
</g>
<!-- Node11&#45;&gt;Node15 -->
<g id="edge15_Node000011_Node000015" class="edge">
<title>Node11&#45;&gt;Node15</title>
<g id="a_edge15_Node000011_Node000015"><a xlink:title=" ">
<path fill="none" stroke="#63b8ff" d="M725,-175.75C725,-168.8 725,-158.85 725,-150.13"/>
<polygon fill="#63b8ff" stroke="#63b8ff" points="728.5,-150.09 725,-140.09 721.5,-150.09 728.5,-150.09"/>
</a>
</g>
</g>
<!-- Node16 -->
<g id="Node000016" class="node">
<title>Node16</title>
<g id="a_Node000016"><a xlink:title=" ">
<polygon fill="#e0e0e0" stroke="#999999" points="831.5,-140 772.5,-140 772.5,-121 831.5,-121 831.5,-140"/>
<text text-anchor="middle" x="802" y="-128" font-family="Helvetica,sans-Serif" font-size="10.00">rang.hpp</text>
</a>
</g>
</g>
<!-- Node11&#45;&gt;Node16 -->
<g id="edge16_Node000011_Node000016" class="edge">
<title>Node11&#45;&gt;Node16</title>
<g id="a_edge16_Node000011_Node000016"><a xlink:title=" ">
<path fill="none" stroke="#63b8ff" d="M737.37,-175.98C749.09,-167.92 766.92,-155.65 780.89,-146.03"/>
<polygon fill="#63b8ff" stroke="#63b8ff" points="783.15,-148.72 789.4,-140.17 779.18,-142.96 783.15,-148.72"/>
</a>
</g>
</g>
<!-- Node17 -->
<g id="Node000017" class="node">
<title>Node17</title>
<g id="a_Node000017"><a xlink:href="print_8h.html" target="_top" xlink:title=" ">
<polygon fill="white" stroke="#666666" points="524,-140 432,-140 432,-121 524,-121 524,-140"/>
<text text-anchor="middle" x="478" y="-128" font-family="Helvetica,sans-Serif" font-size="10.00">mim/util/print.h</text>
</a>
</g>
</g>
<!-- Node11&#45;&gt;Node17 -->
<g id="edge17_Node000011_Node000017" class="edge">
<title>Node11&#45;&gt;Node17</title>
<g id="a_edge17_Node000011_Node000017"><a xlink:title=" ">
<path fill="none" stroke="#63b8ff" d="M685.32,-175.98C642.5,-166.8 574.24,-152.15 527.84,-142.19"/>
<polygon fill="#63b8ff" stroke="#63b8ff" points="528.51,-138.76 518,-140.08 527.04,-145.6 528.51,-138.76"/>
</a>
</g>
</g>
<!-- Node17&#45;&gt;Node7 -->
<g id="edge24_Node000017_Node000007" class="edge">
<title>Node17&#45;&gt;Node7</title>
<g id="a_edge24_Node000017_Node000007"><a xlink:title=" ">
<path fill="none" stroke="#63b8ff" d="M503.59,-120.99C533.96,-110.9 584.76,-94.01 618.82,-82.69"/>
<polygon fill="#63b8ff" stroke="#63b8ff" points="619.99,-85.99 628.38,-79.52 617.78,-79.35 619.99,-85.99"/>
</a>
</g>
</g>
<!-- Node18 -->
<g id="Node000018" class="node">
<title>Node18</title>
<g id="a_Node000018"><a xlink:title=" ">
<polygon fill="#e0e0e0" stroke="#999999" points="485.5,-79.5 420.5,-79.5 420.5,-60.5 485.5,-60.5 485.5,-79.5"/>
<text text-anchor="middle" x="453" y="-67.5" font-family="Helvetica,sans-Serif" font-size="10.00">functional</text>
</a>
</g>
</g>
<!-- Node17&#45;&gt;Node18 -->
<g id="edge18_Node000017_Node000018" class="edge">
<title>Node17&#45;&gt;Node18</title>
<g id="a_edge18_Node000017_Node000018"><a xlink:title=" ">
<path fill="none" stroke="#63b8ff" d="M474.31,-120.87C470.73,-112.49 465.18,-99.51 460.65,-88.89"/>
<polygon fill="#63b8ff" stroke="#63b8ff" points="463.85,-87.49 456.7,-79.67 457.42,-90.24 463.85,-87.49"/>
</a>
</g>
</g>
<!-- Node19 -->
<g id="Node000019" class="node">
<title>Node19</title>
<g id="a_Node000019"><a xlink:title=" ">
<polygon fill="#e0e0e0" stroke="#999999" points="564,-79.5 504,-79.5 504,-60.5 564,-60.5 564,-79.5"/>
<text text-anchor="middle" x="534" y="-67.5" font-family="Helvetica,sans-Serif" font-size="10.00">iostream</text>
</a>
</g>
</g>
<!-- Node17&#45;&gt;Node19 -->
<g id="edge19_Node000017_Node000019" class="edge">
<title>Node17&#45;&gt;Node19</title>
<g id="a_edge19_Node000017_Node000019"><a xlink:title=" ">
<path fill="none" stroke="#63b8ff" d="M486.26,-120.87C494.78,-111.97 508.26,-97.89 518.73,-86.95"/>
<polygon fill="#63b8ff" stroke="#63b8ff" points="521.32,-89.31 525.7,-79.67 516.26,-84.47 521.32,-89.31"/>
</a>
</g>
</g>
<!-- Node20 -->
<g id="Node000020" class="node">
<title>Node20</title>
<g id="a_Node000020"><a xlink:title=" ">
<polygon fill="#e0e0e0" stroke="#999999" points="952.5,-19 895.5,-19 895.5,0 952.5,0 952.5,-19"/>
<text text-anchor="middle" x="924" y="-7" font-family="Helvetica,sans-Serif" font-size="10.00">ostream</text>
</a>
</g>
</g>
<!-- Node17&#45;&gt;Node20 -->
<g id="edge20_Node000017_Node000020" class="edge">
<title>Node17&#45;&gt;Node20</title>
<g id="a_edge20_Node000017_Node000020"><a xlink:title=" ">
<path fill="none" stroke="#63b8ff" d="M499.86,-120.95C519.6,-112.85 549.14,-99.74 573,-85 591.31,-73.69 591.22,-63.47 611,-55 703.57,-15.34 824.23,-9.67 885.17,-9.64"/>
<polygon fill="#63b8ff" stroke="#63b8ff" points="885.46,-13.14 895.48,-9.69 885.49,-6.14 885.46,-13.14"/>
</a>
</g>
</g>
<!-- Node21 -->
<g id="Node000021" class="node">
<title>Node21</title>
<g id="a_Node000021"><a xlink:title=" ">
<polygon fill="#e0e0e0" stroke="#999999" points="116,-79.5 66,-79.5 66,-60.5 116,-60.5 116,-79.5"/>
<text text-anchor="middle" x="91" y="-67.5" font-family="Helvetica,sans-Serif" font-size="10.00">ranges</text>
</a>
</g>
</g>
<!-- Node17&#45;&gt;Node21 -->
<g id="edge21_Node000017_Node000021" class="edge">
<title>Node17&#45;&gt;Node21</title>
<g id="a_edge21_Node000017_Node000021"><a xlink:title=" ">
<path fill="none" stroke="#63b8ff" d="M431.85,-127.58C363.71,-123.87 232.65,-113.41 125,-85 123.06,-84.49 121.08,-83.89 119.1,-83.23"/>
<polygon fill="#63b8ff" stroke="#63b8ff" points="119.99,-79.83 109.4,-79.61 117.54,-86.39 119.99,-79.83"/>
</a>
</g>
</g>
<!-- Node22 -->
<g id="Node000022" class="node">
<title>Node22</title>
<g id="a_Node000022"><a xlink:title=" ">
<polygon fill="#e0e0e0" stroke="#999999" points="190,-79.5 134,-79.5 134,-60.5 190,-60.5 190,-79.5"/>
<text text-anchor="middle" x="162" y="-67.5" font-family="Helvetica,sans-Serif" font-size="10.00">sstream</text>
</a>
</g>
</g>
<!-- Node17&#45;&gt;Node22 -->
<g id="edge22_Node000017_Node000022" class="edge">
<title>Node17&#45;&gt;Node22</title>
<g id="a_edge22_Node000017_Node000022"><a xlink:title=" ">
<path fill="none" stroke="#63b8ff" d="M431.98,-125.06C376.17,-119.02 279.58,-106.43 199,-85 196.7,-84.39 194.35,-83.69 192,-82.93"/>
<polygon fill="#63b8ff" stroke="#63b8ff" points="193.1,-79.61 182.5,-79.6 190.78,-86.21 193.1,-79.61"/>
</a>
</g>
</g>
<!-- Node23 -->
<g id="Node000023" class="node">
<title>Node23</title>
<g id="a_Node000023"><a xlink:title=" ">
<polygon fill="#e0e0e0" stroke="#999999" points="252,-79.5 208,-79.5 208,-60.5 252,-60.5 252,-79.5"/>
<text text-anchor="middle" x="230" y="-67.5" font-family="Helvetica,sans-Serif" font-size="10.00">string</text>
</a>
</g>
</g>
<!-- Node17&#45;&gt;Node23 -->
<g id="edge23_Node000017_Node000023" class="edge">
<title>Node17&#45;&gt;Node23</title>
<g id="a_edge23_Node000017_Node000023"><a xlink:title=" ">
<path fill="none" stroke="#63b8ff" d="M431.94,-123.09C387.48,-116.21 318.62,-103.66 261,-85 259.56,-84.53 258.1,-84.02 256.63,-83.47"/>
<polygon fill="#63b8ff" stroke="#63b8ff" points="257.69,-80.12 247.11,-79.54 255.02,-86.59 257.69,-80.12"/>
</a>
</g>
</g>
<!-- Node25 -->
<g id="Node000025" class="node">
<title>Node25</title>
<g id="a_Node000025"><a xlink:title=" ">
<polygon fill="#e0e0e0" stroke="#999999" points="1061.5,-140 1006.5,-140 1006.5,-121 1061.5,-121 1061.5,-140"/>
<text text-anchor="middle" x="1034" y="-128" font-family="Helvetica,sans-Serif" font-size="10.00">fstream</text>
</a>
</g>
</g>
<!-- Node24&#45;&gt;Node25 -->
<g id="edge26_Node000024_Node000025" class="edge">
<title>Node24&#45;&gt;Node25</title>
<g id="a_edge26_Node000024_Node000025"><a xlink:title=" ">
<path fill="none" stroke="#63b8ff" d="M916.49,-175.98C939.52,-167.27 975.54,-153.63 1001.63,-143.75"/>
<polygon fill="#63b8ff" stroke="#63b8ff" points="1002.98,-146.98 1011.1,-140.17 1000.51,-140.44 1002.98,-146.98"/>
</a>
</g>
</g>
<!-- Node26 -->
<g id="Node000026" class="node">
<title>Node26</title>
<g id="a_Node000026"><a xlink:href="link__cut__tree_8h.html" target="_top" xlink:title=" ">
<polygon fill="white" stroke="#666666" points="1657.5,-140 1524.5,-140 1524.5,-121 1657.5,-121 1657.5,-140"/>
<text text-anchor="middle" x="1591" y="-128" font-family="Helvetica,sans-Serif" font-size="10.00">mim/util/link_cut_tree.h</text>
</a>
</g>
</g>
<!-- Node24&#45;&gt;Node26 -->
<g id="edge27_Node000024_Node000026" class="edge">
<title>Node24&#45;&gt;Node26</title>
<g id="a_edge27_Node000024_Node000026"><a xlink:title=" ">
<path fill="none" stroke="#63b8ff" d="M939.04,-177.11C942.07,-176.71 945.08,-176.33 948,-176 1151.66,-152.97 1393.05,-140.11 1513.92,-134.66"/>
<polygon fill="#63b8ff" stroke="#63b8ff" points="1514.34,-138.15 1524.18,-134.21 1514.03,-131.16 1514.34,-138.15"/>
</a>
</g>
</g>
<!-- Node24&#45;&gt;Node28 -->
<g id="edge29_Node000024_Node000028" class="edge">
<title>Node24&#45;&gt;Node28</title>
<g id="a_edge29_Node000024_Node000028"><a xlink:title=" ">
<path fill="none" stroke="#63b8ff" d="M939.07,-177.3C942.09,-176.85 945.09,-176.41 948,-176 1054.02,-160.98 1178.32,-145.89 1247.53,-137.72"/>
<polygon fill="#63b8ff" stroke="#63b8ff" points="1248.22,-141.17 1257.74,-136.52 1247.4,-134.21 1248.22,-141.17"/>
</a>
</g>
</g>
<!-- Node24&#45;&gt;Node39 -->
<g id="edge49_Node000024_Node000039" class="edge">
<title>Node24&#45;&gt;Node39</title>
<g id="a_edge49_Node000024_Node000039"><a xlink:title=" ">
<path fill="none" stroke="#63b8ff" d="M901.27,-175.75C907.54,-168.18 916.79,-157.05 924.43,-147.84"/>
<polygon fill="#63b8ff" stroke="#63b8ff" points="927.17,-150.02 930.87,-140.09 921.79,-145.55 927.17,-150.02"/>
</a>
</g>
</g>
<!-- Node42 -->
<g id="Node000042" class="node">
<title>Node42</title>
<g id="a_Node000042"><a xlink:title=" ">
<polygon fill="#e0e0e0" stroke="#999999" points="1146,-140 1080,-140 1080,-121 1146,-121 1146,-140"/>
<text text-anchor="middle" x="1113" y="-128" font-family="Helvetica,sans-Serif" font-size="10.00">fe/arena.h</text>
</a>
</g>
</g>
<!-- Node24&#45;&gt;Node42 -->
<g id="edge53_Node000024_Node000042" class="edge">
<title>Node24&#45;&gt;Node42</title>
<g id="a_edge53_Node000024_Node000042"><a xlink:title=" ">
<path fill="none" stroke="#63b8ff" d="M929.19,-175.98C967.5,-166.71 1028.79,-151.88 1069.95,-141.92"/>
<polygon fill="#63b8ff" stroke="#63b8ff" points="1070.8,-145.31 1079.7,-139.56 1069.15,-138.51 1070.8,-145.31"/>
</a>
</g>
</g>
<!-- Node27 -->
<g id="Node000027" class="node">
<title>Node27</title>
<g id="a_Node000027"><a xlink:title=" ">
<polygon fill="#e0e0e0" stroke="#999999" points="1742.5,-19 1689.5,-19 1689.5,0 1742.5,0 1742.5,-19"/>
<text text-anchor="middle" x="1716" y="-7" font-family="Helvetica,sans-Serif" font-size="10.00">cstddef</text>
</a>
</g>
</g>
<!-- Node26&#45;&gt;Node27 -->
<g id="edge28_Node000026_Node000027" class="edge">
<title>Node26&#45;&gt;Node27</title>
<g id="a_edge28_Node000026_Node000027"><a xlink:title=" ">
<path fill="none" stroke="#63b8ff" d="M1657.67,-125.91C1686.26,-120.66 1717.14,-109.22 1735,-85 1747.45,-68.12 1737.46,-43.89 1727.88,-27.69"/>
<polygon fill="#63b8ff" stroke="#63b8ff" points="1730.79,-25.75 1722.46,-19.2 1724.89,-29.52 1730.79,-25.75"/>
</a>
</g>
</g>
<!-- Node28&#45;&gt;Node7 -->
<g id="edge37_Node000028_Node000007" class="edge">
<title>Node28&#45;&gt;Node7</title>
<g id="a_edge37_Node000028_Node000007"><a xlink:title=" ">
<path fill="none" stroke="#63b8ff" d="M1258,-126.93C1129.12,-119.16 751.62,-95.74 697,-85 693.58,-84.33 690.06,-83.47 686.57,-82.51"/>
<polygon fill="#63b8ff" stroke="#63b8ff" points="687.52,-79.14 676.94,-79.6 685.5,-85.84 687.52,-79.14"/>
</a>
</g>
</g>
<!-- Node28&#45;&gt;Node12 -->
<g id="edge33_Node000028_Node000012" class="edge">
<title>Node28&#45;&gt;Node12</title>
<g id="a_edge33_Node000028_Node000012"><a xlink:title=" ">
<path fill="none" stroke="#63b8ff" d="M1257.84,-125.61C1191.91,-119.35 1062.01,-105.78 942.25,-85.1"/>
<polygon fill="#63b8ff" stroke="#63b8ff" points="942.62,-81.62 932.17,-83.34 941.42,-88.51 942.62,-81.62"/>
</a>
</g>
</g>
<!-- Node28&#45;&gt;Node13 -->
<g id="edge34_Node000028_Node000013" class="edge">
<title>Node28&#45;&gt;Node13</title>
<g id="a_edge34_Node000028_Node000013"><a xlink:title=" ">
<path fill="none" stroke="#63b8ff" d="M1257.65,-126.25C1159.19,-118.73 920.11,-99.81 820.22,-85.01"/>
<polygon fill="#63b8ff" stroke="#63b8ff" points="820.57,-81.52 810.15,-83.45 819.5,-88.44 820.57,-81.52"/>
</a>
</g>
</g>
<!-- Node29 -->
<g id="Node000029" class="node">
<title>Node29</title>
<g id="a_Node000029"><a xlink:title=" ">
<polygon fill="#e0e0e0" stroke="#999999" points="1268.5,-79.5 1221.5,-79.5 1221.5,-60.5 1268.5,-60.5 1268.5,-79.5"/>
<text text-anchor="middle" x="1245" y="-67.5" font-family="Helvetica,sans-Serif" font-size="10.00">queue</text>
</a>
</g>
</g>
<!-- Node28&#45;&gt;Node29 -->
<g id="edge30_Node000028_Node000029" class="edge">
<title>Node28&#45;&gt;Node29</title>
<g id="a_edge30_Node000028_Node000029"><a xlink:title=" ">
<path fill="none" stroke="#63b8ff" d="M1292.74,-120.87C1284.22,-111.97 1270.74,-97.89 1260.27,-86.95"/>
<polygon fill="#63b8ff" stroke="#63b8ff" points="1262.74,-84.47 1253.3,-79.67 1257.68,-89.31 1262.74,-84.47"/>
</a>
</g>
</g>
<!-- Node30 -->
<g id="Node000030" class="node">
<title>Node30</title>
<g id="a_Node000030"><a xlink:title=" ">
<polygon fill="#e0e0e0" stroke="#999999" points="1329.5,-79.5 1286.5,-79.5 1286.5,-60.5 1329.5,-60.5 1329.5,-79.5"/>
<text text-anchor="middle" x="1308" y="-67.5" font-family="Helvetica,sans-Serif" font-size="10.00">stack</text>
</a>
</g>
</g>
<!-- Node28&#45;&gt;Node30 -->
<g id="edge31_Node000028_Node000030" class="edge">
<title>Node28&#45;&gt;Node30</title>
<g id="a_edge31_Node000028_Node000030"><a xlink:title=" ">
<path fill="none" stroke="#63b8ff" d="M1302.03,-120.87C1303,-112.75 1304.49,-100.31 1305.74,-89.89"/>
<polygon fill="#63b8ff" stroke="#63b8ff" points="1309.25,-90.01 1306.96,-79.67 1302.3,-89.18 1309.25,-90.01"/>
</a>
</g>
</g>
<!-- Node31 -->
<g id="Node000031" class="node">
<title>Node31</title>
<g id="a_Node000031"><a xlink:title=" ">
<polygon fill="#e0e0e0" stroke="#999999" points="1579.5,-19 1510.5,-19 1510.5,0 1579.5,0 1579.5,-19"/>
<text text-anchor="middle" x="1545" y="-7" font-family="Helvetica,sans-Serif" font-size="10.00">type_traits</text>
</a>
</g>
</g>
<!-- Node28&#45;&gt;Node31 -->
<g id="edge32_Node000028_Node000031" class="edge">
<title>Node28&#45;&gt;Node31</title>
<g id="a_edge32_Node000028_Node000031"><a xlink:title=" ">
<path fill="none" stroke="#63b8ff" d="M1344.32,-121.77C1375.97,-114.99 1419.24,-103.3 1454,-85 1462.04,-80.77 1502.9,-46.4 1527.05,-25.85"/>
<polygon fill="#63b8ff" stroke="#63b8ff" points="1529.47,-28.38 1534.81,-19.23 1524.93,-23.06 1529.47,-28.38"/>
</a>
</g>
</g>
<!-- Node32 -->
<g id="Node000032" class="node">
<title>Node32</title>
<g id="a_Node000032"><a xlink:title=" ">
<polygon fill="#e0e0e0" stroke="#999999" points="1614.5,-85 1501.5,-85 1501.5,-55 1614.5,-55 1614.5,-85"/>
<text text-anchor="start" x="1509.5" y="-73" font-family="Helvetica,sans-Serif" font-size="10.00">absl/container/node</text>
<text text-anchor="middle" x="1558" y="-62" font-family="Helvetica,sans-Serif" font-size="10.00">_hash_map.h</text>
</a>
</g>
</g>
<!-- Node28&#45;&gt;Node32 -->
<g id="edge35_Node000028_Node000032" class="edge">
<title>Node28&#45;&gt;Node32</title>
<g id="a_edge35_Node000028_Node000032"><a xlink:title=" ">
<path fill="none" stroke="#63b8ff" d="M1338.37,-120.99C1378.35,-111.89 1442.59,-97.27 1491.29,-86.18"/>
<polygon fill="#63b8ff" stroke="#63b8ff" points="1492.15,-89.58 1501.12,-83.95 1490.59,-82.75 1492.15,-89.58"/>
</a>
</g>
</g>
<!-- Node33 -->
<g id="Node000033" class="node">
<title>Node33</title>
<g id="a_Node000033"><a xlink:title=" ">
<polygon fill="#e0e0e0" stroke="#999999" points="1203.5,-85 1090.5,-85 1090.5,-55 1203.5,-55 1203.5,-85"/>
<text text-anchor="start" x="1098.5" y="-73" font-family="Helvetica,sans-Serif" font-size="10.00">absl/container/node</text>
<text text-anchor="middle" x="1147" y="-62" font-family="Helvetica,sans-Serif" font-size="10.00">_hash_set.h</text>
</a>
</g>
</g>
<!-- Node28&#45;&gt;Node33 -->
<g id="edge36_Node000028_Node000033" class="edge">
<title>Node28&#45;&gt;Node33</title>
<g id="a_edge36_Node000028_Node000033"><a xlink:title=" ">
<path fill="none" stroke="#63b8ff" d="M1278.61,-120.99C1256.44,-112.57 1221.85,-99.43 1193.69,-88.73"/>
<polygon fill="#63b8ff" stroke="#63b8ff" points="1194.61,-85.34 1184.02,-85.06 1192.13,-91.89 1194.61,-85.34"/>
</a>
</g>
</g>
<!-- Node34 -->
<g id="Node000034" class="node">
<title>Node34</title>
<g id="a_Node000034"><a xlink:href="hash_8h.html" target="_top" xlink:title=" ">
<polygon fill="white" stroke="#666666" points="1725.5,-79.5 1632.5,-79.5 1632.5,-60.5 1725.5,-60.5 1725.5,-79.5"/>
<text text-anchor="middle" x="1679" y="-67.5" font-family="Helvetica,sans-Serif" font-size="10.00">mim/util/hash.h</text>
</a>
</g>
</g>
<!-- Node28&#45;&gt;Node34 -->
<g id="edge38_Node000028_Node000034" class="edge">
<title>Node28&#45;&gt;Node34</title>
<g id="a_edge38_Node000028_Node000034"><a xlink:title=" ">
<path fill="none" stroke="#63b8ff" d="M1344.1,-125.12C1406.26,-118.45 1524.56,-104.44 1624,-85 1628.65,-84.09 1633.5,-83.03 1638.3,-81.9"/>
<polygon fill="#63b8ff" stroke="#63b8ff" points="1639.13,-85.3 1648.01,-79.54 1637.47,-78.5 1639.13,-85.3"/>
</a>
</g>
</g>
<!-- Node36 -->
<g id="Node000036" class="node">
<title>Node36</title>
<g id="a_Node000036"><a xlink:href="types_8h.html" target="_top" xlink:title=" ">
<polygon fill="white" stroke="#666666" points="1444.5,-79.5 1347.5,-79.5 1347.5,-60.5 1444.5,-60.5 1444.5,-79.5"/>
<text text-anchor="middle" x="1396" y="-67.5" font-family="Helvetica,sans-Serif" font-size="10.00">mim/util/types.h</text>
</a>
</g>
</g>
<!-- Node28&#45;&gt;Node36 -->
<g id="edge42_Node000028_Node000036" class="edge">
<title>Node28&#45;&gt;Node36</title>
<g id="a_edge42_Node000028_Node000036"><a xlink:title=" ">
<path fill="none" stroke="#63b8ff" d="M1315.02,-120.87C1330.31,-111.45 1355.03,-96.23 1373.14,-85.08"/>
<polygon fill="#63b8ff" stroke="#63b8ff" points="1375.25,-87.89 1381.92,-79.67 1371.57,-81.93 1375.25,-87.89"/>
</a>
</g>
</g>
<!-- Node34&#45;&gt;Node27 -->
<g id="edge39_Node000034_Node000027" class="edge">
<title>Node34&#45;&gt;Node27</title>
<g id="a_edge39_Node000034_Node000027"><a xlink:title=" ">
<path fill="none" stroke="#63b8ff" d="M1684.46,-60.37C1689.87,-51.81 1698.31,-38.47 1705.1,-27.74"/>
<polygon fill="#63b8ff" stroke="#63b8ff" points="1708.13,-29.49 1710.52,-19.17 1702.21,-25.75 1708.13,-29.49"/>
</a>
</g>
</g>
<!-- Node34&#45;&gt;Node31 -->
<g id="edge41_Node000034_Node000031" class="edge">
<title>Node34&#45;&gt;Node31</title>
<g id="a_edge41_Node000034_Node000031"><a xlink:title=" ">
<path fill="none" stroke="#63b8ff" d="M1659.52,-60.49C1636.99,-50.66 1599.69,-34.38 1573.81,-23.08"/>
<polygon fill="#63b8ff" stroke="#63b8ff" points="1575.07,-19.81 1564.51,-19.02 1572.27,-26.23 1575.07,-19.81"/>
</a>
</g>
</g>
<!-- Node35 -->
<g id="Node000035" class="node">
<title>Node35</title>
<g id="a_Node000035"><a xlink:title=" ">
<polygon fill="#e0e0e0" stroke="#999999" points="1492,-19 1442,-19 1442,0 1492,0 1492,-19"/>
<text text-anchor="middle" x="1467" y="-7" font-family="Helvetica,sans-Serif" font-size="10.00">cstdint</text>
</a>
</g>
</g>
<!-- Node34&#45;&gt;Node35 -->
<g id="edge40_Node000034_Node000035" class="edge">
<title>Node34&#45;&gt;Node35</title>
<g id="a_edge40_Node000034_Node000035"><a xlink:title=" ">
<path fill="none" stroke="#63b8ff" d="M1648.17,-60.49C1609.32,-49.77 1542.71,-31.39 1501.98,-20.15"/>
<polygon fill="#63b8ff" stroke="#63b8ff" points="1502.79,-16.75 1492.22,-17.46 1500.93,-23.49 1502.79,-16.75"/>
</a>
</g>
</g>
<!-- Node36&#45;&gt;Node5 -->
<g id="edge45_Node000036_Node000005" class="edge">
<title>Node36&#45;&gt;Node5</title>
<g id="a_edge45_Node000036_Node000005"><a xlink:title=" ">
<path fill="none" stroke="#63b8ff" d="M1365.74,-60.43C1357.16,-58.32 1347.77,-56.29 1339,-55 1170.26,-30.25 628.69,-14.91 489.73,-11.32"/>
<polygon fill="#63b8ff" stroke="#63b8ff" points="489.43,-7.81 479.35,-11.05 489.25,-14.81 489.43,-7.81"/>
</a>
</g>
</g>
<!-- Node36&#45;&gt;Node20 -->
<g id="edge46_Node000036_Node000020" class="edge">
<title>Node36&#45;&gt;Node20</title>
<g id="a_edge46_Node000036_Node000020"><a xlink:title=" ">
<path fill="none" stroke="#63b8ff" d="M1364.5,-60.46C1356.25,-58.45 1347.33,-56.46 1339,-55 1201.76,-30.9 1036.54,-17.9 962.81,-12.92"/>
<polygon fill="#63b8ff" stroke="#63b8ff" points="962.82,-9.41 952.61,-12.24 962.36,-16.4 962.82,-9.41"/>
</a>
</g>
</g>
<!-- Node36&#45;&gt;Node31 -->
<g id="edge47_Node000036_Node000031" class="edge">
<title>Node36&#45;&gt;Node31</title>
<g id="a_edge47_Node000036_Node000031"><a xlink:title=" ">
<path fill="none" stroke="#63b8ff" d="M1417.67,-60.49C1442.94,-50.57 1484.91,-34.09 1513.72,-22.78"/>
<polygon fill="#63b8ff" stroke="#63b8ff" points="1515.28,-25.93 1523.31,-19.02 1512.72,-19.41 1515.28,-25.93"/>
</a>
</g>
</g>
<!-- Node36&#45;&gt;Node35 -->
<g id="edge44_Node000036_Node000035" class="edge">
<title>Node36&#45;&gt;Node35</title>
<g id="a_edge44_Node000036_Node000035"><a xlink:title=" ">
<path fill="none" stroke="#63b8ff" d="M1406.48,-60.37C1417.49,-51.3 1435.04,-36.84 1448.41,-25.82"/>
<polygon fill="#63b8ff" stroke="#63b8ff" points="1450.99,-28.23 1456.48,-19.17 1446.54,-22.83 1450.99,-28.23"/>
</a>
</g>
</g>
<!-- Node37 -->
<g id="Node000037" class="node">
<title>Node37</title>
<g id="a_Node000037"><a xlink:title=" ">
<polygon fill="#e0e0e0" stroke="#999999" points="1349.5,-19 1302.5,-19 1302.5,0 1349.5,0 1349.5,-19"/>
<text text-anchor="middle" x="1326" y="-7" font-family="Helvetica,sans-Serif" font-size="10.00">cmath</text>
</a>
</g>
</g>
<!-- Node36&#45;&gt;Node37 -->
<g id="edge43_Node000036_Node000037" class="edge">
<title>Node36&#45;&gt;Node37</title>
<g id="a_edge43_Node000036_Node000037"><a xlink:title=" ">
<path fill="none" stroke="#63b8ff" d="M1385.67,-60.37C1374.81,-51.3 1357.51,-36.84 1344.33,-25.82"/>
<polygon fill="#63b8ff" stroke="#63b8ff" points="1346.29,-22.89 1336.37,-19.17 1341.8,-28.27 1346.29,-22.89"/>
</a>
</g>
</g>
<!-- Node38 -->
<g id="Node000038" class="node">
<title>Node38</title>
<g id="a_Node000038"><a xlink:title=" ">
<polygon fill="#e0e0e0" stroke="#999999" points="1424,-19 1368,-19 1368,0 1424,0 1424,-19"/>
<text text-anchor="middle" x="1396" y="-7" font-family="Helvetica,sans-Serif" font-size="10.00">half.hpp</text>
</a>
</g>
</g>
<!-- Node36&#45;&gt;Node38 -->
<g id="edge48_Node000036_Node000038" class="edge">
<title>Node36&#45;&gt;Node38</title>
<g id="a_edge48_Node000036_Node000038"><a xlink:title=" ">
<path fill="none" stroke="#63b8ff" d="M1396,-60.37C1396,-52.25 1396,-39.81 1396,-29.39"/>
<polygon fill="#63b8ff" stroke="#63b8ff" points="1399.5,-29.17 1396,-19.17 1392.5,-29.17 1399.5,-29.17"/>
</a>
</g>
</g>
<!-- Node40 -->
<g id="Node000040" class="node">
<title>Node40</title>
<g id="a_Node000040"><a xlink:title=" ">
<polygon fill="#e0e0e0" stroke="#999999" points="1072,-85 950,-85 950,-55 1072,-55 1072,-85"/>
<text text-anchor="start" x="958" y="-73" font-family="Helvetica,sans-Serif" font-size="10.00">absl/container/inlined</text>
<text text-anchor="middle" x="1011" y="-62" font-family="Helvetica,sans-Serif" font-size="10.00">_vector.h</text>
</a>
</g>
</g>
<!-- Node39&#45;&gt;Node40 -->
<g id="edge50_Node000039_Node000040" class="edge">
<title>Node39&#45;&gt;Node40</title>
<g id="a_edge50_Node000039_Node000040"><a xlink:title=" ">
<path fill="none" stroke="#63b8ff" d="M948.77,-120.87C958.4,-113.15 972.89,-101.54 985.47,-91.46"/>
<polygon fill="#63b8ff" stroke="#63b8ff" points="987.77,-94.1 993.39,-85.11 983.39,-88.64 987.77,-94.1"/>
</a>
</g>
</g>
<!-- Node41 -->
<g id="Node000041" class="node">
<title>Node41</title>
<g id="a_Node000041"><a xlink:href="span_8h.html" target="_top" xlink:title=" ">
<polygon fill="white" stroke="#666666" points="363.5,-79.5 270.5,-79.5 270.5,-60.5 363.5,-60.5 363.5,-79.5"/>
<text text-anchor="middle" x="317" y="-67.5" font-family="Helvetica,sans-Serif" font-size="10.00">mim/util/span.h</text>
</a>
</g>
</g>
<!-- Node39&#45;&gt;Node41 -->
<g id="edge51_Node000039_Node000041" class="edge">
<title>Node39&#45;&gt;Node41</title>
<g id="a_edge51_Node000039_Node000041"><a xlink:title=" ">
<path fill="none" stroke="#63b8ff" d="M887.66,-125.05C872.65,-123.73 856.16,-122.3 841,-121 649.92,-104.63 601.5,-107.14 411,-85 398.96,-83.6 386.1,-81.85 373.87,-80.07"/>
<polygon fill="#63b8ff" stroke="#63b8ff" points="374.18,-76.58 363.78,-78.57 373.16,-83.5 374.18,-76.58"/>
</a>
</g>
</g>
<!-- Node41&#45;&gt;Node3 -->
<g id="edge52_Node000041_Node000003" class="edge">
<title>Node41&#45;&gt;Node3</title>
<g id="a_edge52_Node000041_Node000003"><a xlink:title=" ">
<path fill="none" stroke="#63b8ff" d="M283.9,-60.44C276.39,-58.58 268.43,-56.67 261,-55 192.29,-39.56 111.06,-24.03 68.12,-16.03"/>
<polygon fill="#63b8ff" stroke="#63b8ff" points="68.53,-12.55 58.06,-14.17 67.25,-19.43 68.53,-12.55"/>
</a>
</g>
</g>
</g>
</svg>

<g id="navigator" transform="translate(0 0)" fill="#404254">
  <rect fill="#f2f5e9" fill-opacity="0.5" stroke="#606060" stroke-width=".5" x="0" y="0" width="60" height="60"/>
  <use id="zoomplus" xlink:href="#zoomPlus" x="17" y="9" onmousedown="handleZoom(evt,'in')"/>
  <use id="zoomminus" xlink:href="#zoomMin" x="42" y="9" onmousedown="handleZoom(evt,'out')"/>
  <use id="reset" xlink:href="#resetDef" x="30" y="36" onmousedown="handleReset()"/>
   <use id="arrowup" xlink:href="#arrowUp" x="0" y="0" onmousedown="handlePan(0,-1)"/>
  <use id="arrowright" xlink:href="#arrowRight" x="0" y="0" onmousedown="handlePan(1,0)"/>
  <use id="arrowdown" xlink:href="#arrowDown" x="0" y="0" onmousedown="handlePan(0,1)"/>
  <use id="arrowleft" xlink:href="#arrowLeft" x="0" y="0" onmousedown="handlePan(-1,0)"/>
</g>
<svg viewBox="0 0 15 15" width="100%" height="30px" preserveAspectRatio="xMaxYMin meet">
 <g id="arrow_out" transform="scale(0.3 0.3)">
  <a xlink:href="lattice_8cpp__incl_org.svg" target="_base">
   <rect id="button" ry="5" rx="5" y="6" x="6" height="38" width="38"
        fill="#f2f5e9" fill-opacity="0.5" stroke="#606060" stroke-width="1.0"/>
   <path id="arrow"
     d="M 11.500037,31.436501 C 11.940474,20.09759 22.043105,11.32322 32.158766,21.979434 L 37.068811,17.246167 C 37.068811,17.246167 37.088388,32 37.088388,32 L 22.160133,31.978069 C 22.160133,31.978069 26.997745,27.140456 26.997745,27.140456 C 18.528582,18.264221 13.291696,25.230495 11.500037,31.436501 z"
     style="fill:#404040;"/>
  </a>
 </g>
</svg>

<style type='text/css'>
<![CDATA[
[data-mouse-over-selected='false'] { opacity: 0.7; }
[data-mouse-over-selected='true']  { opacity: 1.0; }
]]>
</style>
<script type="application/ecmascript"><![CDATA[
document.addEventListener('DOMContentLoaded', (event) => {
  highlightEdges();
  highlightAdjacentNodes();
});
]]></script>
</svg>
