<?xml version="1.0" encoding="UTF-8" standalone="no"?>
<!DOCTYPE svg PUBLIC "-//W3C//DTD SVG 1.1//EN"
 "http://www.w3.org/Graphics/SVG/1.1/DTD/svg11.dtd">
<!-- Generated by graphviz version 2.50.0 (20220203.2022)
 -->
<!-- Title: thorin/lattice.cpp Pages: 1 -->
<svg width="2044pt" height="532pt"
 viewBox="0.00 0.00 2043.50 532.00" xmlns="http://www.w3.org/2000/svg" xmlns:xlink="http://www.w3.org/1999/xlink">
<g id="graph0" class="graph" transform="scale(1 1) rotate(0) translate(4 528)">
<title>thorin/lattice.cpp</title>
<!-- Node1 -->
<g id="node1" class="node">
<title>Node1</title>
<g id="a_node1"><a xlink:title=" ">
<polygon fill="#bfbfbf" stroke="black" points="1317,-504.5 1317,-523.5 1405,-523.5 1405,-504.5 1317,-504.5"/>
<text text-anchor="middle" x="1361" y="-511.5" font-family="Helvetica,sans-Serif" font-size="10.00">thorin/lattice.cpp</text>
</a>
</g>
</g>
<!-- Node2 -->
<g id="node2" class="node">
<title>Node2</title>
<g id="a_node2"><a xlink:href="lattice_8h.html" target="_top" xlink:title=" ">
<polygon fill="none" stroke="black" points="1688.5,-392.5 1688.5,-411.5 1765.5,-411.5 1765.5,-392.5 1688.5,-392.5"/>
<text text-anchor="middle" x="1727" y="-399.5" font-family="Helvetica,sans-Serif" font-size="10.00">thorin/lattice.h</text>
</a>
</g>
</g>
<!-- Node1&#45;&gt;Node2 -->
<g id="edge1" class="edge">
<title>Node1&#45;&gt;Node2</title>
<path fill="none" stroke="midnightblue" d="M1389.41,-504.46C1454.62,-484.86 1615.05,-436.65 1688.79,-414.48"/>
<polygon fill="midnightblue" stroke="midnightblue" points="1690.03,-417.76 1698.6,-411.53 1688.02,-411.06 1690.03,-417.76"/>
</g>
<!-- Node41 -->
<g id="node41" class="node">
<title>Node41</title>
<g id="a_node41"><a xlink:href="lam_8h.html" target="_top" xlink:title=" ">
<polygon fill="none" stroke="black" points="528.5,-336.5 528.5,-355.5 595.5,-355.5 595.5,-336.5 528.5,-336.5"/>
<text text-anchor="middle" x="562" y="-343.5" font-family="Helvetica,sans-Serif" font-size="10.00">thorin/lam.h</text>
</a>
</g>
</g>
<!-- Node1&#45;&gt;Node41 -->
<g id="edge66" class="edge">
<title>Node1&#45;&gt;Node41</title>
<path fill="none" stroke="midnightblue" d="M1316.91,-511.17C1150.42,-503.79 566.76,-473.68 514,-412 499.83,-395.43 520.55,-375.03 539.02,-361.55"/>
<polygon fill="midnightblue" stroke="midnightblue" points="541.24,-364.27 547.48,-355.71 537.26,-358.51 541.24,-364.27"/>
</g>
<!-- Node43 -->
<g id="node43" class="node">
<title>Node43</title>
<g id="a_node43"><a xlink:href="world_8h.html" target="_top" xlink:title=" ">
<polygon fill="none" stroke="black" points="880,-448.5 880,-467.5 954,-467.5 954,-448.5 880,-448.5"/>
<text text-anchor="middle" x="917" y="-455.5" font-family="Helvetica,sans-Serif" font-size="10.00">thorin/world.h</text>
</a>
</g>
</g>
<!-- Node1&#45;&gt;Node43 -->
<g id="edge69" class="edge">
<title>Node1&#45;&gt;Node43</title>
<path fill="none" stroke="midnightblue" d="M1316.8,-507.62C1232.7,-497.4 1050.36,-475.22 964.07,-464.72"/>
<polygon fill="midnightblue" stroke="midnightblue" points="964.39,-461.24 954.04,-463.5 963.54,-468.19 964.39,-461.24"/>
</g>
<!-- Node46 -->
<g id="node46" class="node">
<title>Node46</title>
<g id="a_node46"><a xlink:href="container_8h.html" target="_top" xlink:title=" ">
<polygon fill="none" stroke="black" points="1901.5,-448.5 1901.5,-467.5 2008.5,-467.5 2008.5,-448.5 1901.5,-448.5"/>
<text text-anchor="middle" x="1955" y="-455.5" font-family="Helvetica,sans-Serif" font-size="10.00">thorin/util/container.h</text>
</a>
</g>
</g>
<!-- Node1&#45;&gt;Node46 -->
<g id="edge82" class="edge">
<title>Node1&#45;&gt;Node46</title>
<path fill="none" stroke="midnightblue" d="M1405.16,-508.99C1509.14,-499.53 1769.74,-475.84 1891.03,-464.82"/>
<polygon fill="midnightblue" stroke="midnightblue" points="1891.64,-468.27 1901.28,-463.88 1891,-461.3 1891.64,-468.27"/>
</g>
<!-- Node3 -->
<g id="node3" class="node">
<title>Node3</title>
<g id="a_node3"><a xlink:href="def_8h.html" target="_top" xlink:title=" ">
<polygon fill="none" stroke="black" points="884.5,-280.5 884.5,-299.5 949.5,-299.5 949.5,-280.5 884.5,-280.5"/>
<text text-anchor="middle" x="917" y="-287.5" font-family="Helvetica,sans-Serif" font-size="10.00">thorin/def.h</text>
</a>
</g>
</g>
<!-- Node2&#45;&gt;Node3 -->
<g id="edge2" class="edge">
<title>Node2&#45;&gt;Node3</title>
<path fill="none" stroke="midnightblue" d="M1688.48,-395.77C1553.36,-377.42 1101.56,-316.06 959.87,-296.82"/>
<polygon fill="midnightblue" stroke="midnightblue" points="960.21,-293.34 949.83,-295.46 959.27,-300.27 960.21,-293.34"/>
</g>
<!-- Node4 -->
<g id="node4" class="node">
<title>Node4</title>
<g id="a_node4"><a xlink:title=" ">
<polygon fill="none" stroke="#bfbfbf" points="923,-112.5 923,-131.5 973,-131.5 973,-112.5 923,-112.5"/>
<text text-anchor="middle" x="948" y="-119.5" font-family="Helvetica,sans-Serif" font-size="10.00">optional</text>
</a>
</g>
</g>
<!-- Node3&#45;&gt;Node4 -->
<g id="edge3" class="edge">
<title>Node3&#45;&gt;Node4</title>
<path fill="none" stroke="midnightblue" d="M919.84,-280.46C922.74,-271.47 927.2,-256.87 930,-244 937.81,-208.15 943.27,-165.59 946,-141.7"/>
<polygon fill="midnightblue" stroke="midnightblue" points="949.5,-141.9 947.12,-131.58 942.54,-141.13 949.5,-141.9"/>
</g>
<!-- Node5 -->
<g id="node5" class="node">
<title>Node5</title>
<g id="a_node5"><a xlink:title=" ">
<polygon fill="none" stroke="#bfbfbf" points="272,-112.5 272,-131.5 316,-131.5 316,-112.5 272,-112.5"/>
<text text-anchor="middle" x="294" y="-119.5" font-family="Helvetica,sans-Serif" font-size="10.00">vector</text>
</a>
</g>
</g>
<!-- Node3&#45;&gt;Node5 -->
<g id="edge4" class="edge">
<title>Node3&#45;&gt;Node5</title>
<path fill="none" stroke="midnightblue" d="M884.35,-285.92C803.45,-277.54 588.12,-250.62 420,-188 399.93,-180.53 348.94,-153.18 318.32,-136.43"/>
<polygon fill="midnightblue" stroke="midnightblue" points="319.99,-133.35 309.54,-131.61 316.62,-139.49 319.99,-133.35"/>
</g>
<!-- Node6 -->
<g id="node6" class="node">
<title>Node6</title>
<g id="a_node6"><a xlink:title=" ">
<polygon fill="none" stroke="#bfbfbf" points="1541.5,-56.5 1541.5,-75.5 1618.5,-75.5 1618.5,-56.5 1541.5,-56.5"/>
<text text-anchor="middle" x="1580" y="-63.5" font-family="Helvetica,sans-Serif" font-size="10.00">thorin/config.h</text>
</a>
</g>
</g>
<!-- Node3&#45;&gt;Node6 -->
<g id="edge5" class="edge">
<title>Node3&#45;&gt;Node6</title>
<path fill="none" stroke="midnightblue" d="M949.61,-289.64C1049.67,-289.94 1356.92,-278.25 1545,-132 1560.14,-120.22 1569.54,-100 1574.74,-85.23"/>
<polygon fill="midnightblue" stroke="midnightblue" points="1578.09,-86.23 1577.8,-75.64 1571.43,-84.1 1578.09,-86.23"/>
</g>
<!-- Node7 -->
<g id="node7" class="node">
<title>Node7</title>
<g id="a_node7"><a xlink:href="debug_8h.html" target="_top" xlink:title=" ">
<polygon fill="none" stroke="black" points="844.5,-224.5 844.5,-243.5 921.5,-243.5 921.5,-224.5 844.5,-224.5"/>
<text text-anchor="middle" x="883" y="-231.5" font-family="Helvetica,sans-Serif" font-size="10.00">thorin/debug.h</text>
</a>
</g>
</g>
<!-- Node3&#45;&gt;Node7 -->
<g id="edge6" class="edge">
<title>Node3&#45;&gt;Node7</title>
<path fill="none" stroke="midnightblue" d="M911.39,-280.08C906.63,-272.53 899.68,-261.49 893.85,-252.23"/>
<polygon fill="midnightblue" stroke="midnightblue" points="896.8,-250.35 888.51,-243.75 890.88,-254.08 896.8,-250.35"/>
</g>
<!-- Node10 -->
<g id="node10" class="node">
<title>Node10</title>
<g id="a_node10"><a xlink:href="hash_8h.html" target="_top" xlink:title=" ">
<polygon fill="none" stroke="black" points="1014,-168.5 1014,-187.5 1102,-187.5 1102,-168.5 1014,-168.5"/>
<text text-anchor="middle" x="1058" y="-175.5" font-family="Helvetica,sans-Serif" font-size="10.00">thorin/util/hash.h</text>
</a>
</g>
</g>
<!-- Node3&#45;&gt;Node10 -->
<g id="edge61" class="edge">
<title>Node3&#45;&gt;Node10</title>
<path fill="none" stroke="midnightblue" d="M928.06,-280.37C952.05,-261.65 1009.1,-217.15 1038.99,-193.83"/>
<polygon fill="midnightblue" stroke="midnightblue" points="1041.26,-196.5 1046.99,-187.59 1036.95,-190.98 1041.26,-196.5"/>
</g>
<!-- Node22 -->
<g id="node22" class="node">
<title>Node22</title>
<g id="a_node22"><a xlink:href="stream_8h.html" target="_top" xlink:title=" ">
<polygon fill="none" stroke="black" points="807.5,-112.5 807.5,-131.5 904.5,-131.5 904.5,-112.5 807.5,-112.5"/>
<text text-anchor="middle" x="856" y="-119.5" font-family="Helvetica,sans-Serif" font-size="10.00">thorin/util/stream.h</text>
</a>
</g>
</g>
<!-- Node3&#45;&gt;Node22 -->
<g id="edge65" class="edge">
<title>Node3&#45;&gt;Node22</title>
<path fill="none" stroke="midnightblue" d="M885.19,-280.38C867.05,-273.66 845.84,-262.31 835,-244 815.62,-211.26 833.46,-165.38 846.04,-140.58"/>
<polygon fill="midnightblue" stroke="midnightblue" points="849.21,-142.09 850.84,-131.62 843.03,-138.79 849.21,-142.09"/>
</g>
<!-- Node32 -->
<g id="node32" class="node">
<title>Node32</title>
<g id="a_node32"><a xlink:href="tables_8h.html" target="_top" xlink:title=" ">
<polygon fill="none" stroke="black" points="1668.5,-168.5 1668.5,-187.5 1745.5,-187.5 1745.5,-168.5 1668.5,-168.5"/>
<text text-anchor="middle" x="1707" y="-175.5" font-family="Helvetica,sans-Serif" font-size="10.00">thorin/tables.h</text>
</a>
</g>
</g>
<!-- Node3&#45;&gt;Node32 -->
<g id="edge43" class="edge">
<title>Node3&#45;&gt;Node32</title>
<path fill="none" stroke="midnightblue" d="M949.95,-288.48C1084.43,-286.16 1587.67,-275.41 1651,-244 1671.77,-233.7 1687.99,-211.88 1697.51,-196.37"/>
<polygon fill="midnightblue" stroke="midnightblue" points="1700.56,-198.09 1702.56,-187.69 1694.51,-194.58 1700.56,-198.09"/>
</g>
<!-- Node34 -->
<g id="node34" class="node">
<title>Node34</title>
<g id="a_node34"><a xlink:href="array_8h.html" target="_top" xlink:title=" ">
<polygon fill="none" stroke="black" points="429,-168.5 429,-187.5 517,-187.5 517,-168.5 429,-168.5"/>
<text text-anchor="middle" x="473" y="-175.5" font-family="Helvetica,sans-Serif" font-size="10.00">thorin/util/array.h</text>
</a>
</g>
</g>
<!-- Node3&#45;&gt;Node34 -->
<g id="edge47" class="edge">
<title>Node3&#45;&gt;Node34</title>
<path fill="none" stroke="midnightblue" d="M884.35,-280.91C805.87,-261.47 606.53,-212.08 517.33,-189.98"/>
<polygon fill="midnightblue" stroke="midnightblue" points="518.07,-186.56 507.52,-187.55 516.39,-193.35 518.07,-186.56"/>
</g>
<!-- Node39 -->
<g id="node39" class="node">
<title>Node39</title>
<g id="a_node39"><a xlink:href="cast_8h.html" target="_top" xlink:title=" ">
<polygon fill="none" stroke="black" points="0,-112.5 0,-131.5 86,-131.5 86,-112.5 0,-112.5"/>
<text text-anchor="middle" x="43" y="-119.5" font-family="Helvetica,sans-Serif" font-size="10.00">thorin/util/cast.h</text>
</a>
</g>
</g>
<!-- Node3&#45;&gt;Node39 -->
<g id="edge58" class="edge">
<title>Node3&#45;&gt;Node39</title>
<path fill="none" stroke="midnightblue" d="M884.28,-286.43C818.63,-280.97 666.32,-266.83 540,-244 367.82,-212.88 166.27,-157.99 82.55,-134.35"/>
<polygon fill="midnightblue" stroke="midnightblue" points="83.28,-130.92 72.7,-131.56 81.37,-137.65 83.28,-130.92"/>
</g>
<!-- Node40 -->
<g id="node40" class="node">
<title>Node40</title>
<g id="a_node40"><a xlink:href="ptr_8h.html" target="_top" xlink:title=" ">
<polygon fill="none" stroke="black" points="1341,-112.5 1341,-131.5 1419,-131.5 1419,-112.5 1341,-112.5"/>
<text text-anchor="middle" x="1380" y="-119.5" font-family="Helvetica,sans-Serif" font-size="10.00">thorin/util/ptr.h</text>
</a>
</g>
</g>
<!-- Node3&#45;&gt;Node40 -->
<g id="edge62" class="edge">
<title>Node3&#45;&gt;Node40</title>
<path fill="none" stroke="midnightblue" d="M940.92,-280.42C1017.68,-252.9 1257.96,-166.76 1346.66,-134.95"/>
<polygon fill="midnightblue" stroke="midnightblue" points="1347.99,-138.19 1356.23,-131.52 1345.63,-131.6 1347.99,-138.19"/>
</g>
<!-- Node8 -->
<g id="node8" class="node">
<title>Node8</title>
<g id="a_node8"><a xlink:title=" ">
<polygon fill="none" stroke="#bfbfbf" points="721.5,-56.5 721.5,-75.5 762.5,-75.5 762.5,-56.5 721.5,-56.5"/>
<text text-anchor="middle" x="742" y="-63.5" font-family="Helvetica,sans-Serif" font-size="10.00">string</text>
</a>
</g>
</g>
<!-- Node7&#45;&gt;Node8 -->
<g id="edge7" class="edge">
<title>Node7&#45;&gt;Node8</title>
<path fill="none" stroke="midnightblue" d="M875.42,-224.08C852.74,-197.38 785.2,-117.87 755.86,-83.32"/>
<polygon fill="midnightblue" stroke="midnightblue" points="758.42,-80.92 749.28,-75.57 753.08,-85.46 758.42,-80.92"/>
</g>
<!-- Node9 -->
<g id="node9" class="node">
<title>Node9</title>
<g id="a_node9"><a xlink:title=" ">
<polygon fill="none" stroke="#bfbfbf" points="884,-168.5 884,-187.5 922,-187.5 922,-168.5 884,-168.5"/>
<text text-anchor="middle" x="903" y="-175.5" font-family="Helvetica,sans-Serif" font-size="10.00">tuple</text>
</a>
</g>
</g>
<!-- Node7&#45;&gt;Node9 -->
<g id="edge8" class="edge">
<title>Node7&#45;&gt;Node9</title>
<path fill="none" stroke="midnightblue" d="M886.3,-224.08C888.98,-216.85 892.85,-206.41 896.19,-197.4"/>
<polygon fill="midnightblue" stroke="midnightblue" points="899.57,-198.34 899.76,-187.75 893,-195.91 899.57,-198.34"/>
</g>
<!-- Node7&#45;&gt;Node10 -->
<g id="edge9" class="edge">
<title>Node7&#45;&gt;Node10</title>
<path fill="none" stroke="midnightblue" d="M910.73,-224.44C940.43,-215.28 987.72,-200.69 1020.67,-190.52"/>
<polygon fill="midnightblue" stroke="midnightblue" points="1021.88,-193.81 1030.4,-187.52 1019.81,-187.12 1021.88,-193.81"/>
</g>
<!-- Node7&#45;&gt;Node22 -->
<g id="edge42" class="edge">
<title>Node7&#45;&gt;Node22</title>
<path fill="none" stroke="midnightblue" d="M880.88,-224.37C876.52,-206.62 866.47,-165.67 860.56,-141.6"/>
<polygon fill="midnightblue" stroke="midnightblue" points="863.89,-140.47 858.11,-131.59 857.09,-142.14 863.89,-140.47"/>
</g>
<!-- Node10&#45;&gt;Node4 -->
<g id="edge19" class="edge">
<title>Node10&#45;&gt;Node4</title>
<path fill="none" stroke="midnightblue" d="M1040.33,-168.32C1022.61,-159.62 995.1,-146.12 974.71,-136.11"/>
<polygon fill="midnightblue" stroke="midnightblue" points="976.15,-132.92 965.63,-131.65 973.06,-139.2 976.15,-132.92"/>
</g>
<!-- Node10&#45;&gt;Node6 -->
<g id="edge22" class="edge">
<title>Node10&#45;&gt;Node6</title>
<path fill="none" stroke="midnightblue" d="M1102.04,-176.51C1202.29,-174.78 1444.43,-167 1517,-132 1539.04,-121.37 1557.57,-99.63 1568.71,-84.22"/>
<polygon fill="midnightblue" stroke="midnightblue" points="1571.86,-85.82 1574.66,-75.61 1566.1,-81.85 1571.86,-85.82"/>
</g>
<!-- Node11 -->
<g id="node11" class="node">
<title>Node11</title>
<g id="a_node11"><a xlink:title=" ">
<polygon fill="none" stroke="#bfbfbf" points="890.5,-0.5 890.5,-19.5 939.5,-19.5 939.5,-0.5 890.5,-0.5"/>
<text text-anchor="middle" x="915" y="-7.5" font-family="Helvetica,sans-Serif" font-size="10.00">cassert</text>
</a>
</g>
</g>
<!-- Node10&#45;&gt;Node11 -->
<g id="edge10" class="edge">
<title>Node10&#45;&gt;Node11</title>
<path fill="none" stroke="midnightblue" d="M1057.68,-168.49C1056.43,-146.93 1050.27,-89.48 1020,-56 1001.58,-35.62 972.35,-24.12 949.41,-17.86"/>
<polygon fill="midnightblue" stroke="midnightblue" points="950.24,-14.46 939.69,-15.41 948.53,-21.25 950.24,-14.46"/>
</g>
<!-- Node12 -->
<g id="node12" class="node">
<title>Node12</title>
<g id="a_node12"><a xlink:title=" ">
<polygon fill="none" stroke="#bfbfbf" points="1163,-112.5 1163,-131.5 1219,-131.5 1219,-112.5 1163,-112.5"/>
<text text-anchor="middle" x="1191" y="-119.5" font-family="Helvetica,sans-Serif" font-size="10.00">cinttypes</text>
</a>
</g>
</g>
<!-- Node10&#45;&gt;Node12 -->
<g id="edge11" class="edge">
<title>Node10&#45;&gt;Node12</title>
<path fill="none" stroke="midnightblue" d="M1079.07,-168.44C1101.06,-159.52 1135.73,-145.44 1160.66,-135.32"/>
<polygon fill="midnightblue" stroke="midnightblue" points="1162.08,-138.52 1170.02,-131.52 1159.44,-132.04 1162.08,-138.52"/>
</g>
<!-- Node13 -->
<g id="node13" class="node">
<title>Node13</title>
<g id="a_node13"><a xlink:title=" ">
<polygon fill="none" stroke="#bfbfbf" points="1397,-56.5 1397,-75.5 1443,-75.5 1443,-56.5 1397,-56.5"/>
<text text-anchor="middle" x="1420" y="-63.5" font-family="Helvetica,sans-Serif" font-size="10.00">cstdint</text>
</a>
</g>
</g>
<!-- Node10&#45;&gt;Node13 -->
<g id="edge12" class="edge">
<title>Node10&#45;&gt;Node13</title>
<path fill="none" stroke="midnightblue" d="M1102.04,-174.87C1195.45,-169.89 1406.68,-156.07 1428,-132 1439.16,-119.4 1434.74,-99.63 1429.02,-85.2"/>
<polygon fill="midnightblue" stroke="midnightblue" points="1432.1,-83.52 1424.83,-75.82 1425.71,-86.37 1432.1,-83.52"/>
</g>
<!-- Node14 -->
<g id="node14" class="node">
<title>Node14</title>
<g id="a_node14"><a xlink:title=" ">
<polygon fill="none" stroke="#bfbfbf" points="470,-56.5 470,-75.5 516,-75.5 516,-56.5 470,-56.5"/>
<text text-anchor="middle" x="493" y="-63.5" font-family="Helvetica,sans-Serif" font-size="10.00">cstring</text>
</a>
</g>
</g>
<!-- Node10&#45;&gt;Node14 -->
<g id="edge13" class="edge">
<title>Node10&#45;&gt;Node14</title>
<path fill="none" stroke="midnightblue" d="M1013.93,-173.77C922.79,-166.84 716.37,-149.69 648,-132 600.33,-119.67 548.16,-95.35 518.13,-80.21"/>
<polygon fill="midnightblue" stroke="midnightblue" points="519.7,-77.08 509.2,-75.64 516.51,-83.31 519.7,-77.08"/>
</g>
<!-- Node15 -->
<g id="node15" class="node">
<title>Node15</title>
<g id="a_node15"><a xlink:title=" ">
<polygon fill="none" stroke="#bfbfbf" points="657,-112.5 657,-131.5 713,-131.5 713,-112.5 657,-112.5"/>
<text text-anchor="middle" x="685" y="-119.5" font-family="Helvetica,sans-Serif" font-size="10.00">algorithm</text>
</a>
</g>
</g>
<!-- Node10&#45;&gt;Node15 -->
<g id="edge14" class="edge">
<title>Node10&#45;&gt;Node15</title>
<path fill="none" stroke="midnightblue" d="M1013.75,-170.59C939.96,-159.91 793.03,-138.64 723.36,-128.55"/>
<polygon fill="midnightblue" stroke="midnightblue" points="723.66,-125.06 713.26,-127.09 722.66,-131.99 723.66,-125.06"/>
</g>
<!-- Node16 -->
<g id="node16" class="node">
<title>Node16</title>
<g id="a_node16"><a xlink:title=" ">
<polygon fill="none" stroke="#bfbfbf" points="1237,-112.5 1237,-131.5 1275,-131.5 1275,-112.5 1237,-112.5"/>
<text text-anchor="middle" x="1256" y="-119.5" font-family="Helvetica,sans-Serif" font-size="10.00">array</text>
</a>
</g>
</g>
<!-- Node10&#45;&gt;Node16 -->
<g id="edge15" class="edge">
<title>Node10&#45;&gt;Node16</title>
<path fill="none" stroke="midnightblue" d="M1092.33,-168.47C1124.76,-160.3 1174.95,-147.32 1227.02,-132.18"/>
<polygon fill="midnightblue" stroke="midnightblue" points="1228.15,-135.5 1236.76,-129.33 1226.18,-128.78 1228.15,-135.5"/>
</g>
<!-- Node17 -->
<g id="node17" class="node">
<title>Node17</title>
<g id="a_node17"><a xlink:title=" ">
<polygon fill="none" stroke="#bfbfbf" points="1293.5,-112.5 1293.5,-131.5 1322.5,-131.5 1322.5,-112.5 1293.5,-112.5"/>
<text text-anchor="middle" x="1308" y="-119.5" font-family="Helvetica,sans-Serif" font-size="10.00">bit</text>
</a>
</g>
</g>
<!-- Node10&#45;&gt;Node17 -->
<g id="edge16" class="edge">
<title>Node10&#45;&gt;Node17</title>
<path fill="none" stroke="midnightblue" d="M1102.25,-170.37C1146.12,-163.32 1215.3,-150.89 1283.75,-131.66"/>
<polygon fill="midnightblue" stroke="midnightblue" points="1284.75,-135.02 1293.4,-128.9 1282.83,-128.29 1284.75,-135.02"/>
</g>
<!-- Node18 -->
<g id="node18" class="node">
<title>Node18</title>
<g id="a_node18"><a xlink:title=" ">
<polygon fill="none" stroke="#bfbfbf" points="819,-56.5 819,-75.5 873,-75.5 873,-56.5 819,-56.5"/>
<text text-anchor="middle" x="846" y="-63.5" font-family="Helvetica,sans-Serif" font-size="10.00">iostream</text>
</a>
</g>
</g>
<!-- Node10&#45;&gt;Node18 -->
<g id="edge17" class="edge">
<title>Node10&#45;&gt;Node18</title>
<path fill="none" stroke="midnightblue" d="M1049.95,-168.19C1036.91,-154.41 1009.83,-127.69 982,-112 964.85,-102.33 916.87,-87.4 882.77,-77.42"/>
<polygon fill="midnightblue" stroke="midnightblue" points="883.7,-74.05 873.12,-74.62 881.75,-80.77 883.7,-74.05"/>
</g>
<!-- Node19 -->
<g id="node19" class="node">
<title>Node19</title>
<g id="a_node19"><a xlink:title=" ">
<polygon fill="none" stroke="#bfbfbf" points="1067.5,-56.5 1067.5,-75.5 1118.5,-75.5 1118.5,-56.5 1067.5,-56.5"/>
<text text-anchor="middle" x="1093" y="-63.5" font-family="Helvetica,sans-Serif" font-size="10.00">memory</text>
</a>
</g>
</g>
<!-- Node10&#45;&gt;Node19 -->
<g id="edge18" class="edge">
<title>Node10&#45;&gt;Node19</title>
<path fill="none" stroke="midnightblue" d="M1060.75,-168.37C1066.42,-150.54 1079.54,-109.3 1087.19,-85.27"/>
<polygon fill="midnightblue" stroke="midnightblue" points="1090.57,-86.18 1090.27,-75.59 1083.9,-84.06 1090.57,-86.18"/>
</g>
<!-- Node20 -->
<g id="node20" class="node">
<title>Node20</title>
<g id="a_node20"><a xlink:title=" ">
<polygon fill="none" stroke="#bfbfbf" points="1461,-56.5 1461,-75.5 1523,-75.5 1523,-56.5 1461,-56.5"/>
<text text-anchor="middle" x="1492" y="-63.5" font-family="Helvetica,sans-Serif" font-size="10.00">type_traits</text>
</a>
</g>
</g>
<!-- Node10&#45;&gt;Node20 -->
<g id="edge20" class="edge">
<title>Node10&#45;&gt;Node20</title>
<path fill="none" stroke="midnightblue" d="M1102.33,-175.78C1208.92,-172.38 1472.72,-161.09 1499,-132 1510.26,-119.53 1506.16,-99.74 1500.69,-85.27"/>
<polygon fill="midnightblue" stroke="midnightblue" points="1503.82,-83.68 1496.67,-75.85 1497.38,-86.43 1503.82,-83.68"/>
</g>
<!-- Node21 -->
<g id="node21" class="node">
<title>Node21</title>
<g id="a_node21"><a xlink:title=" ">
<polygon fill="none" stroke="#bfbfbf" points="1105.5,-112.5 1105.5,-131.5 1144.5,-131.5 1144.5,-112.5 1105.5,-112.5"/>
<text text-anchor="middle" x="1125" y="-119.5" font-family="Helvetica,sans-Serif" font-size="10.00">utility</text>
</a>
</g>
</g>
<!-- Node10&#45;&gt;Node21 -->
<g id="edge21" class="edge">
<title>Node10&#45;&gt;Node21</title>
<path fill="none" stroke="midnightblue" d="M1068.76,-168.32C1078.77,-160.26 1093.89,-148.08 1105.93,-138.37"/>
<polygon fill="midnightblue" stroke="midnightblue" points="1108.45,-140.83 1114.04,-131.83 1104.06,-135.38 1108.45,-140.83"/>
</g>
<!-- Node10&#45;&gt;Node22 -->
<g id="edge23" class="edge">
<title>Node10&#45;&gt;Node22</title>
<path fill="none" stroke="midnightblue" d="M1025.99,-168.44C991.27,-159.16 935.71,-144.31 897.62,-134.13"/>
<polygon fill="midnightblue" stroke="midnightblue" points="898.42,-130.72 887.86,-131.52 896.61,-137.48 898.42,-130.72"/>
</g>
<!-- Node27 -->
<g id="node27" class="node">
<title>Node27</title>
<g id="a_node27"><a xlink:href="types_8h.html" target="_top" xlink:title=" ">
<polygon fill="none" stroke="black" points="1665,-112.5 1665,-131.5 1755,-131.5 1755,-112.5 1665,-112.5"/>
<text text-anchor="middle" x="1710" y="-119.5" font-family="Helvetica,sans-Serif" font-size="10.00">thorin/util/types.h</text>
</a>
</g>
</g>
<!-- Node10&#45;&gt;Node27 -->
<g id="edge35" class="edge">
<title>Node10&#45;&gt;Node27</title>
<path fill="none" stroke="midnightblue" d="M1102.26,-173.59C1196.31,-166.3 1423.03,-148.51 1613,-132 1626.43,-130.83 1640.89,-129.52 1654.45,-128.27"/>
<polygon fill="midnightblue" stroke="midnightblue" points="1654.98,-131.73 1664.61,-127.32 1654.33,-124.76 1654.98,-131.73"/>
</g>
<!-- Node22&#45;&gt;Node6 -->
<g id="edge32" class="edge">
<title>Node22&#45;&gt;Node6</title>
<path fill="none" stroke="midnightblue" d="M904.69,-113.1C907.84,-112.7 910.96,-112.32 914,-112 1184.25,-83.23 1257.13,-108.78 1531.05,-75.94"/>
<polygon fill="midnightblue" stroke="midnightblue" points="1531.79,-79.37 1541.29,-74.69 1530.94,-72.43 1531.79,-79.37"/>
</g>
<!-- Node22&#45;&gt;Node8 -->
<g id="edge31" class="edge">
<title>Node22&#45;&gt;Node8</title>
<path fill="none" stroke="midnightblue" d="M837.94,-112.44C819.43,-103.68 790.42,-89.94 769.14,-79.86"/>
<polygon fill="midnightblue" stroke="midnightblue" points="770.51,-76.63 759.98,-75.52 767.52,-82.96 770.51,-76.63"/>
</g>
<!-- Node22&#45;&gt;Node11 -->
<g id="edge24" class="edge">
<title>Node22&#45;&gt;Node11</title>
<path fill="none" stroke="midnightblue" d="M842.02,-112.3C823.98,-99.94 796.45,-76.54 810,-56 825.48,-32.53 856.01,-21.25 880.17,-15.86"/>
<polygon fill="midnightblue" stroke="midnightblue" points="880.95,-19.28 890.08,-13.9 879.59,-12.41 880.95,-19.28"/>
</g>
<!-- Node22&#45;&gt;Node14 -->
<g id="edge25" class="edge">
<title>Node22&#45;&gt;Node14</title>
<path fill="none" stroke="midnightblue" d="M807.42,-113.77C732.39,-102.61 590.27,-81.47 526.02,-71.91"/>
<polygon fill="midnightblue" stroke="midnightblue" points="526.44,-68.44 516.03,-70.43 525.41,-75.36 526.44,-68.44"/>
</g>
<!-- Node22&#45;&gt;Node18 -->
<g id="edge27" class="edge">
<title>Node22&#45;&gt;Node18</title>
<path fill="none" stroke="midnightblue" d="M854.35,-112.08C853.02,-104.93 851.12,-94.64 849.46,-85.69"/>
<polygon fill="midnightblue" stroke="midnightblue" points="852.88,-84.95 847.62,-75.75 846,-86.22 852.88,-84.95"/>
</g>
<!-- Node22&#45;&gt;Node19 -->
<g id="edge28" class="edge">
<title>Node22&#45;&gt;Node19</title>
<path fill="none" stroke="midnightblue" d="M893.55,-112.44C938.5,-102.2 1013.22,-85.18 1057.32,-75.13"/>
<polygon fill="midnightblue" stroke="midnightblue" points="1058.34,-78.49 1067.31,-72.85 1056.78,-71.66 1058.34,-78.49"/>
</g>
<!-- Node23 -->
<g id="node23" class="node">
<title>Node23</title>
<g id="a_node23"><a xlink:title=" ">
<polygon fill="none" stroke="#bfbfbf" points="961,-56.5 961,-75.5 1011,-75.5 1011,-56.5 961,-56.5"/>
<text text-anchor="middle" x="986" y="-63.5" font-family="Helvetica,sans-Serif" font-size="10.00">fstream</text>
</a>
</g>
</g>
<!-- Node22&#45;&gt;Node23 -->
<g id="edge26" class="edge">
<title>Node22&#45;&gt;Node23</title>
<path fill="none" stroke="midnightblue" d="M876.6,-112.44C897.99,-103.56 931.68,-89.56 956.02,-79.45"/>
<polygon fill="midnightblue" stroke="midnightblue" points="957.61,-82.58 965.5,-75.52 954.92,-76.12 957.61,-82.58"/>
</g>
<!-- Node24 -->
<g id="node24" class="node">
<title>Node24</title>
<g id="a_node24"><a xlink:title=" ">
<polygon fill="none" stroke="#bfbfbf" points="595,-56.5 595,-75.5 641,-75.5 641,-56.5 595,-56.5"/>
<text text-anchor="middle" x="618" y="-63.5" font-family="Helvetica,sans-Serif" font-size="10.00">ranges</text>
</a>
</g>
</g>
<!-- Node22&#45;&gt;Node24 -->
<g id="edge29" class="edge">
<title>Node22&#45;&gt;Node24</title>
<path fill="none" stroke="midnightblue" d="M818.29,-112.44C772.18,-101.98 694.87,-84.44 651.01,-74.49"/>
<polygon fill="midnightblue" stroke="midnightblue" points="651.67,-71.05 641.14,-72.25 650.12,-77.88 651.67,-71.05"/>
</g>
<!-- Node25 -->
<g id="node25" class="node">
<title>Node25</title>
<g id="a_node25"><a xlink:title=" ">
<polygon fill="none" stroke="#bfbfbf" points="891,-56.5 891,-75.5 943,-75.5 943,-56.5 891,-56.5"/>
<text text-anchor="middle" x="917" y="-63.5" font-family="Helvetica,sans-Serif" font-size="10.00">sstream</text>
</a>
</g>
</g>
<!-- Node22&#45;&gt;Node25 -->
<g id="edge30" class="edge">
<title>Node22&#45;&gt;Node25</title>
<path fill="none" stroke="midnightblue" d="M865.8,-112.32C874.82,-104.34 888.41,-92.31 899.32,-82.65"/>
<polygon fill="midnightblue" stroke="midnightblue" points="901.85,-85.08 907.02,-75.83 897.21,-79.84 901.85,-85.08"/>
</g>
<!-- Node26 -->
<g id="node26" class="node">
<title>Node26</title>
<g id="a_node26"><a xlink:href="assert_8h.html" target="_top" xlink:title=" ">
<polygon fill="none" stroke="black" points="1137,-56.5 1137,-75.5 1231,-75.5 1231,-56.5 1137,-56.5"/>
<text text-anchor="middle" x="1184" y="-63.5" font-family="Helvetica,sans-Serif" font-size="10.00">thorin/util/assert.h</text>
</a>
</g>
</g>
<!-- Node22&#45;&gt;Node26 -->
<g id="edge33" class="edge">
<title>Node22&#45;&gt;Node26</title>
<path fill="none" stroke="midnightblue" d="M904.75,-112.97C964,-103.22 1063.84,-86.78 1126.7,-76.43"/>
<polygon fill="midnightblue" stroke="midnightblue" points="1127.55,-79.84 1136.85,-74.76 1126.41,-72.93 1127.55,-79.84"/>
</g>
<!-- Node26&#45;&gt;Node11 -->
<g id="edge34" class="edge">
<title>Node26&#45;&gt;Node11</title>
<path fill="none" stroke="midnightblue" d="M1141.38,-56.44C1088.27,-45.78 998.54,-27.77 949.52,-17.93"/>
<polygon fill="midnightblue" stroke="midnightblue" points="950.2,-14.5 939.7,-15.96 948.82,-21.36 950.2,-14.5"/>
</g>
<!-- Node27&#45;&gt;Node13 -->
<g id="edge37" class="edge">
<title>Node27&#45;&gt;Node13</title>
<path fill="none" stroke="midnightblue" d="M1664.98,-114.57C1615.4,-107.16 1533.14,-93.96 1453.24,-76.09"/>
<polygon fill="midnightblue" stroke="midnightblue" points="1453.53,-72.57 1443,-73.77 1451.98,-79.39 1453.53,-72.57"/>
</g>
<!-- Node27&#45;&gt;Node20 -->
<g id="edge40" class="edge">
<title>Node27&#45;&gt;Node20</title>
<path fill="none" stroke="midnightblue" d="M1675.46,-112.44C1636.75,-102.86 1574.04,-87.32 1532.91,-77.13"/>
<polygon fill="midnightblue" stroke="midnightblue" points="1533.75,-73.74 1523.2,-74.73 1532.07,-80.53 1533.75,-73.74"/>
</g>
<!-- Node28 -->
<g id="node28" class="node">
<title>Node28</title>
<g id="a_node28"><a xlink:title=" ">
<polygon fill="none" stroke="#bfbfbf" points="1637,-56.5 1637,-75.5 1681,-75.5 1681,-56.5 1637,-56.5"/>
<text text-anchor="middle" x="1659" y="-63.5" font-family="Helvetica,sans-Serif" font-size="10.00">cmath</text>
</a>
</g>
</g>
<!-- Node27&#45;&gt;Node28 -->
<g id="edge36" class="edge">
<title>Node27&#45;&gt;Node28</title>
<path fill="none" stroke="midnightblue" d="M1701.58,-112.08C1694.15,-104.22 1683.15,-92.57 1674.19,-83.08"/>
<polygon fill="midnightblue" stroke="midnightblue" points="1676.68,-80.62 1667.26,-75.75 1671.59,-85.42 1676.68,-80.62"/>
</g>
<!-- Node29 -->
<g id="node29" class="node">
<title>Node29</title>
<g id="a_node29"><a xlink:title=" ">
<polygon fill="none" stroke="#bfbfbf" points="1699,-56.5 1699,-75.5 1739,-75.5 1739,-56.5 1699,-56.5"/>
<text text-anchor="middle" x="1719" y="-63.5" font-family="Helvetica,sans-Serif" font-size="10.00">limits</text>
</a>
</g>
</g>
<!-- Node27&#45;&gt;Node29 -->
<g id="edge38" class="edge">
<title>Node27&#45;&gt;Node29</title>
<path fill="none" stroke="midnightblue" d="M1711.49,-112.08C1712.68,-104.93 1714.39,-94.64 1715.88,-85.69"/>
<polygon fill="midnightblue" stroke="midnightblue" points="1719.35,-86.19 1717.54,-75.75 1712.45,-85.04 1719.35,-86.19"/>
</g>
<!-- Node30 -->
<g id="node30" class="node">
<title>Node30</title>
<g id="a_node30"><a xlink:title=" ">
<polygon fill="none" stroke="#bfbfbf" points="1757,-56.5 1757,-75.5 1809,-75.5 1809,-56.5 1757,-56.5"/>
<text text-anchor="middle" x="1783" y="-63.5" font-family="Helvetica,sans-Serif" font-size="10.00">ostream</text>
</a>
</g>
</g>
<!-- Node27&#45;&gt;Node30 -->
<g id="edge39" class="edge">
<title>Node27&#45;&gt;Node30</title>
<path fill="none" stroke="midnightblue" d="M1721.73,-112.32C1732.84,-104.11 1749.74,-91.6 1762.98,-81.81"/>
<polygon fill="midnightblue" stroke="midnightblue" points="1765.1,-84.59 1771.06,-75.83 1760.94,-78.97 1765.1,-84.59"/>
</g>
<!-- Node31 -->
<g id="node31" class="node">
<title>Node31</title>
<g id="a_node31"><a xlink:title=" ">
<polygon fill="none" stroke="#bfbfbf" points="1827,-56.5 1827,-75.5 1877,-75.5 1877,-56.5 1827,-56.5"/>
<text text-anchor="middle" x="1852" y="-63.5" font-family="Helvetica,sans-Serif" font-size="10.00">half.hpp</text>
</a>
</g>
</g>
<!-- Node27&#45;&gt;Node31 -->
<g id="edge41" class="edge">
<title>Node27&#45;&gt;Node31</title>
<path fill="none" stroke="midnightblue" d="M1732.5,-112.44C1756.08,-103.48 1793.32,-89.31 1819.96,-79.18"/>
<polygon fill="midnightblue" stroke="midnightblue" points="1821.5,-82.34 1829.6,-75.52 1819.01,-75.8 1821.5,-82.34"/>
</g>
<!-- Node32&#45;&gt;Node26 -->
<g id="edge45" class="edge">
<title>Node32&#45;&gt;Node26</title>
<path fill="none" stroke="midnightblue" d="M1672.75,-168.48C1620.24,-155.54 1516.61,-130.48 1428,-112 1364.29,-98.71 1290.79,-85.43 1241.25,-76.78"/>
<polygon fill="midnightblue" stroke="midnightblue" points="1241.81,-73.33 1231.36,-75.06 1240.61,-80.22 1241.81,-73.33"/>
</g>
<!-- Node32&#45;&gt;Node27 -->
<g id="edge46" class="edge">
<title>Node32&#45;&gt;Node27</title>
<path fill="none" stroke="midnightblue" d="M1707.5,-168.08C1707.89,-161.01 1708.45,-150.86 1708.95,-141.99"/>
<polygon fill="midnightblue" stroke="midnightblue" points="1712.45,-141.93 1709.51,-131.75 1705.46,-141.54 1712.45,-141.93"/>
</g>
<!-- Node33 -->
<g id="node33" class="node">
<title>Node33</title>
<g id="a_node33"><a xlink:title=" ">
<polygon fill="none" stroke="#bfbfbf" points="1773,-112.5 1773,-131.5 1839,-131.5 1839,-112.5 1773,-112.5"/>
<text text-anchor="middle" x="1806" y="-119.5" font-family="Helvetica,sans-Serif" font-size="10.00">string_view</text>
</a>
</g>
</g>
<!-- Node32&#45;&gt;Node33 -->
<g id="edge44" class="edge">
<title>Node32&#45;&gt;Node33</title>
<path fill="none" stroke="midnightblue" d="M1722.91,-168.32C1738.64,-159.74 1762.94,-146.49 1781.21,-136.52"/>
<polygon fill="midnightblue" stroke="midnightblue" points="1783.03,-139.52 1790.13,-131.65 1779.68,-133.37 1783.03,-139.52"/>
</g>
<!-- Node34&#45;&gt;Node5 -->
<g id="edge57" class="edge">
<title>Node34&#45;&gt;Node5</title>
<path fill="none" stroke="midnightblue" d="M444.64,-168.44C412.3,-158.69 359.56,-142.78 325.83,-132.6"/>
<polygon fill="midnightblue" stroke="midnightblue" points="326.61,-129.18 316.02,-129.64 324.59,-135.88 326.61,-129.18"/>
</g>
<!-- Node34&#45;&gt;Node11 -->
<g id="edge48" class="edge">
<title>Node34&#45;&gt;Node11</title>
<path fill="none" stroke="midnightblue" d="M446.07,-168.36C429.28,-161.41 409.02,-149.82 399,-132 374.71,-88.8 448.79,-61.41 461,-56 536.07,-22.77 787.24,-13.85 880.1,-11.66"/>
<polygon fill="midnightblue" stroke="midnightblue" points="880.45,-15.15 890.37,-11.43 880.29,-8.15 880.45,-15.15"/>
</g>
<!-- Node34&#45;&gt;Node14 -->
<g id="edge50" class="edge">
<title>Node34&#45;&gt;Node14</title>
<path fill="none" stroke="midnightblue" d="M451.84,-168.49C427.15,-157.21 391.42,-135.95 406,-112 417.74,-92.7 440.73,-81.32 460.12,-74.83"/>
<polygon fill="midnightblue" stroke="midnightblue" points="461.31,-78.12 469.86,-71.86 459.27,-71.43 461.31,-78.12"/>
</g>
<!-- Node34&#45;&gt;Node15 -->
<g id="edge51" class="edge">
<title>Node34&#45;&gt;Node15</title>
<path fill="none" stroke="midnightblue" d="M506.59,-168.44C544.83,-158.7 607.14,-142.83 647.09,-132.66"/>
<polygon fill="midnightblue" stroke="midnightblue" points="648.15,-136 656.98,-130.14 646.43,-129.21 648.15,-136"/>
</g>
<!-- Node34&#45;&gt;Node20 -->
<g id="edge56" class="edge">
<title>Node34&#45;&gt;Node20</title>
<path fill="none" stroke="midnightblue" d="M517.14,-175.82C699.43,-170.81 1385.97,-150.78 1428,-132 1450.72,-121.85 1469.67,-99.66 1480.91,-84.05"/>
<polygon fill="midnightblue" stroke="midnightblue" points="1483.83,-85.98 1486.61,-75.75 1478.06,-82.01 1483.83,-85.98"/>
</g>
<!-- Node34&#45;&gt;Node24 -->
<g id="edge55" class="edge">
<title>Node34&#45;&gt;Node24</title>
<path fill="none" stroke="midnightblue" d="M462.55,-168.43C447.95,-155.42 424.75,-130.28 439,-112 456.77,-89.21 538.35,-76.2 585.01,-70.5"/>
<polygon fill="midnightblue" stroke="midnightblue" points="585.43,-73.97 594.95,-69.33 584.61,-67.02 585.43,-73.97"/>
</g>
<!-- Node35 -->
<g id="node35" class="node">
<title>Node35</title>
<g id="a_node35"><a xlink:title=" ">
<polygon fill="none" stroke="#bfbfbf" points="448.5,-112.5 448.5,-131.5 497.5,-131.5 497.5,-112.5 448.5,-112.5"/>
<text text-anchor="middle" x="473" y="-119.5" font-family="Helvetica,sans-Serif" font-size="10.00">cstddef</text>
</a>
</g>
</g>
<!-- Node34&#45;&gt;Node35 -->
<g id="edge49" class="edge">
<title>Node34&#45;&gt;Node35</title>
<path fill="none" stroke="midnightblue" d="M473,-168.08C473,-161.01 473,-150.86 473,-141.99"/>
<polygon fill="midnightblue" stroke="midnightblue" points="476.5,-141.75 473,-131.75 469.5,-141.75 476.5,-141.75"/>
</g>
<!-- Node36 -->
<g id="node36" class="node">
<title>Node36</title>
<g id="a_node36"><a xlink:title=" ">
<polygon fill="none" stroke="#bfbfbf" points="104.5,-112.5 104.5,-131.5 163.5,-131.5 163.5,-112.5 104.5,-112.5"/>
<text text-anchor="middle" x="134" y="-119.5" font-family="Helvetica,sans-Serif" font-size="10.00">functional</text>
</a>
</g>
</g>
<!-- Node34&#45;&gt;Node36 -->
<g id="edge52" class="edge">
<title>Node34&#45;&gt;Node36</title>
<path fill="none" stroke="midnightblue" d="M428.85,-171.47C372.13,-164.13 270.45,-150.15 173.71,-132"/>
<polygon fill="midnightblue" stroke="midnightblue" points="174.24,-128.54 163.76,-130.12 172.93,-135.42 174.24,-128.54"/>
</g>
<!-- Node37 -->
<g id="node37" class="node">
<title>Node37</title>
<g id="a_node37"><a xlink:title=" ">
<polygon fill="none" stroke="#bfbfbf" points="182,-112.5 182,-131.5 254,-131.5 254,-112.5 182,-112.5"/>
<text text-anchor="middle" x="218" y="-119.5" font-family="Helvetica,sans-Serif" font-size="10.00">initializer_list</text>
</a>
</g>
</g>
<!-- Node34&#45;&gt;Node37 -->
<g id="edge53" class="edge">
<title>Node34&#45;&gt;Node37</title>
<path fill="none" stroke="midnightblue" d="M432.59,-168.44C386.71,-158.73 311.99,-142.9 263.92,-132.73"/>
<polygon fill="midnightblue" stroke="midnightblue" points="264.6,-129.29 254.09,-130.64 263.15,-136.14 264.6,-129.29"/>
</g>
<!-- Node38 -->
<g id="node38" class="node">
<title>Node38</title>
<g id="a_node38"><a xlink:title=" ">
<polygon fill="none" stroke="#bfbfbf" points="515.5,-112.5 515.5,-131.5 562.5,-131.5 562.5,-112.5 515.5,-112.5"/>
<text text-anchor="middle" x="539" y="-119.5" font-family="Helvetica,sans-Serif" font-size="10.00">iterator</text>
</a>
</g>
</g>
<!-- Node34&#45;&gt;Node38 -->
<g id="edge54" class="edge">
<title>Node34&#45;&gt;Node38</title>
<path fill="none" stroke="midnightblue" d="M483.6,-168.32C493.46,-160.26 508.35,-148.08 520.22,-138.37"/>
<polygon fill="midnightblue" stroke="midnightblue" points="522.68,-140.88 528.2,-131.83 518.25,-135.46 522.68,-140.88"/>
</g>
<!-- Node39&#45;&gt;Node11 -->
<g id="edge59" class="edge">
<title>Node39&#45;&gt;Node11</title>
<path fill="none" stroke="midnightblue" d="M73.72,-112.49C125.94,-98.37 235.53,-70.25 330,-56 537.34,-24.72 789.48,-14.65 880.32,-11.9"/>
<polygon fill="midnightblue" stroke="midnightblue" points="880.44,-15.4 890.33,-11.61 880.24,-8.4 880.44,-15.4"/>
</g>
<!-- Node39&#45;&gt;Node14 -->
<g id="edge60" class="edge">
<title>Node39&#45;&gt;Node14</title>
<path fill="none" stroke="midnightblue" d="M86.1,-113.34C89.11,-112.87 92.1,-112.41 95,-112 229.6,-92.76 390.78,-76.66 459.41,-70.12"/>
<polygon fill="midnightblue" stroke="midnightblue" points="459.99,-73.59 469.61,-69.16 459.33,-66.62 459.99,-73.59"/>
</g>
<!-- Node40&#45;&gt;Node13 -->
<g id="edge63" class="edge">
<title>Node40&#45;&gt;Node13</title>
<path fill="none" stroke="midnightblue" d="M1386.61,-112.08C1392.26,-104.46 1400.54,-93.26 1407.45,-83.94"/>
<polygon fill="midnightblue" stroke="midnightblue" points="1410.38,-85.87 1413.52,-75.75 1404.75,-81.7 1410.38,-85.87"/>
</g>
<!-- Node40&#45;&gt;Node19 -->
<g id="edge64" class="edge">
<title>Node40&#45;&gt;Node19</title>
<path fill="none" stroke="midnightblue" d="M1340.95,-113.81C1337.59,-113.19 1334.23,-112.58 1331,-112 1243.91,-96.28 1219.22,-95.46 1128.45,-75.96"/>
<polygon fill="midnightblue" stroke="midnightblue" points="1129.08,-72.51 1118.56,-73.81 1127.59,-79.35 1129.08,-72.51"/>
</g>
<!-- Node41&#45;&gt;Node3 -->
<g id="edge68" class="edge">
<title>Node41&#45;&gt;Node3</title>
<path fill="none" stroke="midnightblue" d="M595.72,-339.87C660.63,-330 802.84,-308.36 874.27,-297.5"/>
<polygon fill="midnightblue" stroke="midnightblue" points="874.92,-300.94 884.28,-295.98 873.87,-294.02 874.92,-300.94"/>
</g>
<!-- Node42 -->
<g id="node42" class="node">
<title>Node42</title>
<g id="a_node42"><a xlink:title=" ">
<polygon fill="none" stroke="#bfbfbf" points="539,-280.5 539,-299.5 585,-299.5 585,-280.5 539,-280.5"/>
<text text-anchor="middle" x="562" y="-287.5" font-family="Helvetica,sans-Serif" font-size="10.00">variant</text>
</a>
</g>
</g>
<!-- Node41&#45;&gt;Node42 -->
<g id="edge67" class="edge">
<title>Node41&#45;&gt;Node42</title>
<path fill="none" stroke="midnightblue" d="M562,-336.08C562,-329.01 562,-318.86 562,-309.99"/>
<polygon fill="midnightblue" stroke="midnightblue" points="565.5,-309.75 562,-299.75 558.5,-309.75 565.5,-309.75"/>
</g>
<!-- Node43&#45;&gt;Node2 -->
<g id="edge78" class="edge">
<title>Node43&#45;&gt;Node2</title>
<path fill="none" stroke="midnightblue" d="M954.15,-456.22C1064.3,-453.61 1398.66,-443.47 1674,-412 1675.3,-411.85 1676.62,-411.69 1677.96,-411.52"/>
<polygon fill="midnightblue" stroke="midnightblue" points="1678.86,-414.93 1688.28,-410.07 1677.89,-408 1678.86,-414.93"/>
</g>
<!-- Node43&#45;&gt;Node6 -->
<g id="edge77" class="edge">
<title>Node43&#45;&gt;Node6</title>
<path fill="none" stroke="midnightblue" d="M954.09,-450.71C1116.06,-422.35 1757.32,-300.33 1848,-132 1909.51,-17.81 2015.63,-142.21 1628.87,-76.1"/>
<polygon fill="midnightblue" stroke="midnightblue" points="1629.21,-72.61 1618.76,-74.35 1628.01,-79.5 1629.21,-72.61"/>
</g>
<!-- Node43&#45;&gt;Node8 -->
<g id="edge74" class="edge">
<title>Node43&#45;&gt;Node8</title>
<path fill="none" stroke="midnightblue" d="M879.94,-450.88C802.15,-437 629,-400.12 629,-347 629,-347 629,-347 629,-177 629,-146.9 628.51,-134.94 648,-112 664.41,-92.69 691.01,-81.04 711.73,-74.44"/>
<polygon fill="midnightblue" stroke="midnightblue" points="712.76,-77.79 721.36,-71.6 710.78,-71.08 712.76,-77.79"/>
</g>
<!-- Node43&#45;&gt;Node10 -->
<g id="edge81" class="edge">
<title>Node43&#45;&gt;Node10</title>
<path fill="none" stroke="midnightblue" d="M938.92,-448.39C973.04,-433.37 1035,-398.95 1035,-347 1035,-347 1035,-347 1035,-289 1035,-256.12 1044.97,-218.86 1051.78,-197.24"/>
<polygon fill="midnightblue" stroke="midnightblue" points="1055.11,-198.3 1054.9,-187.71 1048.46,-196.12 1055.11,-198.3"/>
</g>
<!-- Node43&#45;&gt;Node11 -->
<g id="edge70" class="edge">
<title>Node43&#45;&gt;Node11</title>
<path fill="none" stroke="midnightblue" d="M954.16,-457.05C1097.68,-456.92 1615.65,-453.53 1774,-412 1836.87,-395.51 1905,-412 1905,-347 1905,-347 1905,-347 1905,-121 1905,-90.9 1909.66,-74.6 1886,-56 1848.5,-26.51 1119.49,-14.01 950,-11.49"/>
<polygon fill="midnightblue" stroke="midnightblue" points="949.93,-7.99 939.88,-11.34 949.82,-14.99 949.93,-7.99"/>
</g>
<!-- Node43&#45;&gt;Node18 -->
<g id="edge73" class="edge">
<title>Node43&#45;&gt;Node18</title>
<path fill="none" stroke="midnightblue" d="M879.67,-450.82C828.01,-439.89 741,-411.86 741,-347 741,-347 741,-347 741,-177 741,-132.02 787.51,-98.19 818.62,-80.59"/>
<polygon fill="midnightblue" stroke="midnightblue" points="820.59,-83.5 827.71,-75.65 817.25,-77.35 820.59,-83.5"/>
</g>
<!-- Node43&#45;&gt;Node36 -->
<g id="edge71" class="edge">
<title>Node43&#45;&gt;Node36</title>
<path fill="none" stroke="midnightblue" d="M879.68,-455.89C776.3,-452.49 487.95,-440.63 398,-412 343.52,-394.66 287,-404.17 287,-347 287,-347 287,-347 287,-233 287,-177.19 219.05,-146.91 173.72,-132.92"/>
<polygon fill="midnightblue" stroke="midnightblue" points="174.44,-129.49 163.86,-130.03 172.47,-136.2 174.44,-129.49"/>
</g>
<!-- Node43&#45;&gt;Node37 -->
<g id="edge72" class="edge">
<title>Node43&#45;&gt;Node37</title>
<path fill="none" stroke="midnightblue" d="M879.79,-457.55C755.58,-458.38 363,-452.66 363,-347 363,-347 363,-347 363,-233 363,-180.53 301.98,-149.84 259.11,-134.76"/>
<polygon fill="midnightblue" stroke="midnightblue" points="260.06,-131.39 249.46,-131.52 257.83,-138.02 260.06,-131.39"/>
</g>
<!-- Node44 -->
<g id="node44" class="node">
<title>Node44</title>
<g id="a_node44"><a xlink:href="axiom_8h.html" target="_top" xlink:title=" ">
<polygon fill="none" stroke="black" points="523.5,-392.5 523.5,-411.5 600.5,-411.5 600.5,-392.5 523.5,-392.5"/>
<text text-anchor="middle" x="562" y="-399.5" font-family="Helvetica,sans-Serif" font-size="10.00">thorin/axiom.h</text>
</a>
</g>
</g>
<!-- Node43&#45;&gt;Node44 -->
<g id="edge75" class="edge">
<title>Node43&#45;&gt;Node44</title>
<path fill="none" stroke="midnightblue" d="M879.77,-451.7C822.72,-443.52 710.27,-427.19 615,-412 613.7,-411.79 612.39,-411.58 611.06,-411.37"/>
<polygon fill="midnightblue" stroke="midnightblue" points="611.21,-407.84 600.77,-409.68 610.07,-414.75 611.21,-407.84"/>
</g>
<!-- Node45 -->
<g id="node45" class="node">
<title>Node45</title>
<g id="a_node45"><a xlink:href="tuple_8h.html" target="_top" xlink:title=" ">
<polygon fill="none" stroke="black" points="881,-336.5 881,-355.5 953,-355.5 953,-336.5 881,-336.5"/>
<text text-anchor="middle" x="917" y="-343.5" font-family="Helvetica,sans-Serif" font-size="10.00">thorin/tuple.h</text>
</a>
</g>
</g>
<!-- Node43&#45;&gt;Node45 -->
<g id="edge79" class="edge">
<title>Node43&#45;&gt;Node45</title>
<path fill="none" stroke="midnightblue" d="M917,-448.37C917,-430.62 917,-389.67 917,-365.6"/>
<polygon fill="midnightblue" stroke="midnightblue" points="920.5,-365.59 917,-355.59 913.5,-365.59 920.5,-365.59"/>
</g>
<!-- Node44&#45;&gt;Node41 -->
<g id="edge76" class="edge">
<title>Node44&#45;&gt;Node41</title>
<path fill="none" stroke="midnightblue" d="M562,-392.08C562,-385.01 562,-374.86 562,-365.99"/>
<polygon fill="midnightblue" stroke="midnightblue" points="565.5,-365.75 562,-355.75 558.5,-365.75 565.5,-365.75"/>
</g>
<!-- Node45&#45;&gt;Node3 -->
<g id="edge80" class="edge">
<title>Node45&#45;&gt;Node3</title>
<path fill="none" stroke="midnightblue" d="M917,-336.08C917,-329.01 917,-318.86 917,-309.99"/>
<polygon fill="midnightblue" stroke="midnightblue" points="920.5,-309.75 917,-299.75 913.5,-309.75 920.5,-309.75"/>
</g>
<!-- Node47 -->
<g id="node47" class="node">
<title>Node47</title>
<g id="a_node47"><a xlink:title=" ">
<polygon fill="none" stroke="#bfbfbf" points="1994.5,-392.5 1994.5,-411.5 2035.5,-411.5 2035.5,-392.5 1994.5,-392.5"/>
<text text-anchor="middle" x="2015" y="-399.5" font-family="Helvetica,sans-Serif" font-size="10.00">stack</text>
</a>
</g>
</g>
<!-- Node46&#45;&gt;Node47 -->
<g id="edge83" class="edge">
<title>Node46&#45;&gt;Node47</title>
<path fill="none" stroke="midnightblue" d="M1964.64,-448.32C1973.51,-440.34 1986.87,-428.31 1997.61,-418.65"/>
<polygon fill="midnightblue" stroke="midnightblue" points="2000.09,-421.13 2005.18,-411.83 1995.41,-415.92 2000.09,-421.13"/>
</g>
<!-- Node48 -->
<g id="node48" class="node">
<title>Node48</title>
<g id="a_node48"><a xlink:title=" ">
<polygon fill="none" stroke="#bfbfbf" points="1933.5,-392.5 1933.5,-411.5 1976.5,-411.5 1976.5,-392.5 1933.5,-392.5"/>
<text text-anchor="middle" x="1955" y="-399.5" font-family="Helvetica,sans-Serif" font-size="10.00">queue</text>
</a>
</g>
</g>
<!-- Node46&#45;&gt;Node48 -->
<g id="edge84" class="edge">
<title>Node46&#45;&gt;Node48</title>
<path fill="none" stroke="midnightblue" d="M1955,-448.08C1955,-441.01 1955,-430.86 1955,-421.99"/>
<polygon fill="midnightblue" stroke="midnightblue" points="1958.5,-421.75 1955,-411.75 1951.5,-421.75 1958.5,-421.75"/>
</g>
</g>
</svg>
