<?xml version="1.0" encoding="UTF-8" standalone="no"?>
<!DOCTYPE svg PUBLIC "-//W3C//DTD SVG 1.1//EN"
 "http://www.w3.org/Graphics/SVG/1.1/DTD/svg11.dtd">
<!-- Generated by graphviz version 2.50.0 (20220203.2022)
 -->
<!-- Title: thorin/lattice.h Pages: 1 -->
<svg width="3545pt" height="285pt"
 viewBox="0.00 0.00 3544.50 285.00" xmlns="http://www.w3.org/2000/svg" xmlns:xlink="http://www.w3.org/1999/xlink">
<g id="graph0" class="graph" transform="scale(1 1) rotate(0) translate(4 281)">
<title>thorin/lattice.h</title>
<!-- Node1 -->
<g id="node1" class="node">
<title>Node1</title>
<g id="a_node1"><a xlink:title=" ">
<polygon fill="#bfbfbf" stroke="black" points="1478,-257.5 1478,-276.5 1555,-276.5 1555,-257.5 1478,-257.5"/>
<text text-anchor="middle" x="1516.5" y="-264.5" font-family="Helvetica,sans-Serif" font-size="10.00">thorin/lattice.h</text>
</a>
</g>
</g>
<!-- Node2 -->
<g id="node2" class="node">
<title>Node2</title>
<g id="a_node2"><a xlink:href="lattice_8cpp.html" target="_top" xlink:title=" ">
<polygon fill="none" stroke="black" points="790.5,-140 790.5,-159 878.5,-159 878.5,-140 790.5,-140"/>
<text text-anchor="middle" x="834.5" y="-147" font-family="Helvetica,sans-Serif" font-size="10.00">thorin/lattice.cpp</text>
</a>
</g>
</g>
<!-- Node1&#45;&gt;Node2 -->
<g id="edge1" class="edge">
<title>Node1&#45;&gt;Node2</title>
<path fill="none" stroke="midnightblue" d="M1467.86,-260.01C1361.79,-246.55 1101.96,-211.41 887.5,-165 879.67,-163.31 871.27,-161.16 863.52,-159.05"/>
<polygon fill="midnightblue" stroke="midnightblue" points="1467.58,-263.5 1477.94,-261.28 1468.46,-256.56 1467.58,-263.5"/>
</g>
<!-- Node3 -->
<g id="node3" class="node">
<title>Node3</title>
<g id="a_node3"><a xlink:href="world_8h.html" target="_top" xlink:title=" ">
<polygon fill="none" stroke="black" points="2224.5,-201.5 2224.5,-220.5 2298.5,-220.5 2298.5,-201.5 2224.5,-201.5"/>
<text text-anchor="middle" x="2261.5" y="-208.5" font-family="Helvetica,sans-Serif" font-size="10.00">thorin/world.h</text>
</a>
</g>
</g>
<!-- Node1&#45;&gt;Node3 -->
<g id="edge2" class="edge">
<title>Node1&#45;&gt;Node3</title>
<path fill="none" stroke="midnightblue" d="M1565.6,-262.44C1704.93,-252.34 2100.62,-223.66 2224.17,-214.71"/>
<polygon fill="midnightblue" stroke="midnightblue" points="1564.97,-258.98 1555.25,-263.19 1565.47,-265.96 1564.97,-258.98"/>
</g>
<!-- Node3&#45;&gt;Node2 -->
<g id="edge17" class="edge">
<title>Node3&#45;&gt;Node2</title>
<path fill="none" stroke="midnightblue" d="M2214.07,-209.94C2003.44,-209.42 1151.49,-204.87 887.5,-165 878.73,-163.68 869.33,-161.4 860.93,-159.04"/>
<polygon fill="midnightblue" stroke="midnightblue" points="2214.18,-213.44 2224.18,-209.96 2214.19,-206.44 2214.18,-213.44"/>
</g>
<!-- Node4 -->
<g id="node4" class="node">
<title>Node4</title>
<g id="a_node4"><a xlink:href="cfg_8cpp.html" target="_top" xlink:title=" ">
<polygon fill="none" stroke="black" points="3106.5,-140 3106.5,-159 3222.5,-159 3222.5,-140 3106.5,-140"/>
<text text-anchor="middle" x="3164.5" y="-147" font-family="Helvetica,sans-Serif" font-size="10.00">thorin/analyses/cfg.cpp</text>
</a>
</g>
</g>
<!-- Node3&#45;&gt;Node4 -->
<g id="edge3" class="edge">
<title>Node3&#45;&gt;Node4</title>
<path fill="none" stroke="midnightblue" d="M2309.01,-210.08C2436.99,-209.74 2799.4,-205.02 3097.5,-165 3108.23,-163.56 3119.8,-161.31 3130.26,-159.01"/>
<polygon fill="midnightblue" stroke="midnightblue" points="2308.77,-206.59 2298.78,-210.1 2308.79,-213.59 2308.77,-206.59"/>
</g>
<!-- Node5 -->
<g id="node5" class="node">
<title>Node5</title>
<g id="a_node5"><a xlink:href="deptree_8cpp.html" target="_top" xlink:title=" ">
<polygon fill="none" stroke="black" points="3241,-140 3241,-159 3376,-159 3376,-140 3241,-140"/>
<text text-anchor="middle" x="3308.5" y="-147" font-family="Helvetica,sans-Serif" font-size="10.00">thorin/analyses/deptree.cpp</text>
</a>
</g>
</g>
<!-- Node3&#45;&gt;Node5 -->
<g id="edge4" class="edge">
<title>Node3&#45;&gt;Node5</title>
<path fill="none" stroke="midnightblue" d="M2308.67,-210.14C2449.45,-210.06 2878.65,-206.2 3231.5,-165 3243.8,-163.56 3257.08,-161.32 3269.09,-159.02"/>
<polygon fill="midnightblue" stroke="midnightblue" points="2308.65,-206.64 2298.65,-210.14 2308.65,-213.64 2308.65,-206.64"/>
</g>
<!-- Node6 -->
<g id="node6" class="node">
<title>Node6</title>
<g id="a_node6"><a xlink:href="schedule_8cpp.html" target="_top" xlink:title=" ">
<polygon fill="none" stroke="black" points="3394.5,-140 3394.5,-159 3536.5,-159 3536.5,-140 3394.5,-140"/>
<text text-anchor="middle" x="3465.5" y="-147" font-family="Helvetica,sans-Serif" font-size="10.00">thorin/analyses/schedule.cpp</text>
</a>
</g>
</g>
<!-- Node3&#45;&gt;Node6 -->
<g id="edge5" class="edge">
<title>Node3&#45;&gt;Node6</title>
<path fill="none" stroke="midnightblue" d="M2308.61,-210.46C2463.36,-211.45 2969.92,-210.76 3385.5,-165 3398.27,-163.59 3412.07,-161.36 3424.55,-159.05"/>
<polygon fill="midnightblue" stroke="midnightblue" points="2308.53,-206.96 2298.51,-210.38 2308.48,-213.96 2308.53,-206.96"/>
</g>
<!-- Node7 -->
<g id="node7" class="node">
<title>Node7</title>
<g id="a_node7"><a xlink:href="scope_8cpp.html" target="_top" xlink:title=" ">
<polygon fill="none" stroke="black" points="1612,-73 1612,-92 1741,-92 1741,-73 1612,-73"/>
<text text-anchor="middle" x="1676.5" y="-80" font-family="Helvetica,sans-Serif" font-size="10.00">thorin/analyses/scope.cpp</text>
</a>
</g>
</g>
<!-- Node3&#45;&gt;Node7 -->
<g id="edge6" class="edge">
<title>Node3&#45;&gt;Node7</title>
<path fill="none" stroke="midnightblue" d="M2214.3,-208.46C2111.56,-204.62 1870.78,-192.87 1794.5,-165 1748.66,-148.26 1703.84,-109.38 1685.35,-92.07"/>
<polygon fill="midnightblue" stroke="midnightblue" points="2214.26,-211.96 2224.38,-208.83 2214.52,-204.97 2214.26,-211.96"/>
</g>
<!-- Node8 -->
<g id="node8" class="node">
<title>Node8</title>
<g id="a_node8"><a xlink:href="emitter_8h.html" target="_top" xlink:title=" ">
<polygon fill="none" stroke="black" points="1998,-140 1998,-159 2093,-159 2093,-140 1998,-140"/>
<text text-anchor="middle" x="2045.5" y="-147" font-family="Helvetica,sans-Serif" font-size="10.00">thorin/be/emitter.h</text>
</a>
</g>
</g>
<!-- Node3&#45;&gt;Node8 -->
<g id="edge7" class="edge">
<title>Node3&#45;&gt;Node8</title>
<path fill="none" stroke="midnightblue" d="M2220.66,-198.75C2178.69,-187.19 2114.3,-169.45 2076.39,-159.01"/>
<polygon fill="midnightblue" stroke="midnightblue" points="2219.98,-202.19 2230.55,-201.48 2221.84,-195.44 2219.98,-202.19"/>
</g>
<!-- Node10 -->
<g id="node10" class="node">
<title>Node10</title>
<g id="a_node10"><a xlink:href="check_8cpp.html" target="_top" xlink:title=" ">
<polygon fill="none" stroke="black" points="2111.5,-140 2111.5,-159 2199.5,-159 2199.5,-140 2111.5,-140"/>
<text text-anchor="middle" x="2155.5" y="-147" font-family="Helvetica,sans-Serif" font-size="10.00">thorin/check.cpp</text>
</a>
</g>
</g>
<!-- Node3&#45;&gt;Node10 -->
<g id="edge9" class="edge">
<title>Node3&#45;&gt;Node10</title>
<path fill="none" stroke="midnightblue" d="M2237.55,-196.56C2217.04,-185.04 2188.12,-168.81 2170.66,-159.01"/>
<polygon fill="midnightblue" stroke="midnightblue" points="2235.88,-199.63 2246.31,-201.48 2239.31,-193.53 2235.88,-199.63"/>
</g>
<!-- Node11 -->
<g id="node11" class="node">
<title>Node11</title>
<g id="a_node11"><a xlink:href="debug_8cpp.html" target="_top" xlink:title=" ">
<polygon fill="none" stroke="black" points="2217.5,-140 2217.5,-159 2305.5,-159 2305.5,-140 2217.5,-140"/>
<text text-anchor="middle" x="2261.5" y="-147" font-family="Helvetica,sans-Serif" font-size="10.00">thorin/debug.cpp</text>
</a>
</g>
</g>
<!-- Node3&#45;&gt;Node11 -->
<g id="edge10" class="edge">
<title>Node3&#45;&gt;Node11</title>
<path fill="none" stroke="midnightblue" d="M2261.5,-191.32C2261.5,-180.5 2261.5,-167.4 2261.5,-159.01"/>
<polygon fill="midnightblue" stroke="midnightblue" points="2258,-191.48 2261.5,-201.48 2265,-191.48 2258,-191.48"/>
</g>
<!-- Node12 -->
<g id="node12" class="node">
<title>Node12</title>
<g id="a_node12"><a xlink:href="def_8cpp.html" target="_top" xlink:title=" ">
<polygon fill="none" stroke="black" points="1759,-73 1759,-92 1834,-92 1834,-73 1759,-73"/>
<text text-anchor="middle" x="1796.5" y="-80" font-family="Helvetica,sans-Serif" font-size="10.00">thorin/def.cpp</text>
</a>
</g>
</g>
<!-- Node3&#45;&gt;Node12 -->
<g id="edge11" class="edge">
<title>Node3&#45;&gt;Node12</title>
<path fill="none" stroke="midnightblue" d="M2214.13,-208.33C2105.19,-204.06 1843.93,-191.17 1814.5,-165 1793.49,-146.32 1793.99,-109.15 1795.46,-92.24"/>
<polygon fill="midnightblue" stroke="midnightblue" points="2214.05,-211.83 2224.18,-208.72 2214.32,-204.84 2214.05,-211.83"/>
</g>
<!-- Node13 -->
<g id="node13" class="node">
<title>Node13</title>
<g id="a_node13"><a xlink:href="lexer_8cpp.html" target="_top" xlink:title=" ">
<polygon fill="none" stroke="black" points="2323,-140 2323,-159 2416,-159 2416,-140 2323,-140"/>
<text text-anchor="middle" x="2369.5" y="-147" font-family="Helvetica,sans-Serif" font-size="10.00">thorin/fe/lexer.cpp</text>
</a>
</g>
</g>
<!-- Node3&#45;&gt;Node13 -->
<g id="edge12" class="edge">
<title>Node3&#45;&gt;Node13</title>
<path fill="none" stroke="midnightblue" d="M2285.9,-196.56C2306.8,-185.04 2336.26,-168.81 2354.05,-159.01"/>
<polygon fill="midnightblue" stroke="midnightblue" points="2284.04,-193.58 2276.97,-201.48 2287.42,-199.72 2284.04,-193.58"/>
</g>
<!-- Node14 -->
<g id="node14" class="node">
<title>Node14</title>
<g id="a_node14"><a xlink:href="parser_8h.html" target="_top" xlink:title=" ">
<polygon fill="none" stroke="black" points="2434,-140 2434,-159 2523,-159 2523,-140 2434,-140"/>
<text text-anchor="middle" x="2478.5" y="-147" font-family="Helvetica,sans-Serif" font-size="10.00">thorin/fe/parser.h</text>
</a>
</g>
</g>
<!-- Node3&#45;&gt;Node14 -->
<g id="edge13" class="edge">
<title>Node3&#45;&gt;Node14</title>
<path fill="none" stroke="midnightblue" d="M2302.27,-198.82C2344.42,-187.26 2409.3,-169.47 2447.47,-159.01"/>
<polygon fill="midnightblue" stroke="midnightblue" points="2301.31,-195.46 2292.59,-201.48 2303.16,-202.21 2301.31,-195.46"/>
</g>
<!-- Node17 -->
<g id="node17" class="node">
<title>Node17</title>
<g id="a_node17"><a xlink:href="lam_8cpp.html" target="_top" xlink:title=" ">
<polygon fill="none" stroke="black" points="2541,-140 2541,-159 2618,-159 2618,-140 2541,-140"/>
<text text-anchor="middle" x="2579.5" y="-147" font-family="Helvetica,sans-Serif" font-size="10.00">thorin/lam.cpp</text>
</a>
</g>
</g>
<!-- Node3&#45;&gt;Node17 -->
<g id="edge16" class="edge">
<title>Node3&#45;&gt;Node17</title>
<path fill="none" stroke="midnightblue" d="M2308.93,-203.97C2363.13,-196.65 2454.33,-183.01 2531.5,-165 2538.71,-163.32 2546.42,-161.15 2553.51,-159.02"/>
<polygon fill="midnightblue" stroke="midnightblue" points="2308.37,-200.52 2298.92,-205.31 2309.3,-207.45 2308.37,-200.52"/>
</g>
<!-- Node18 -->
<g id="node18" class="node">
<title>Node18</title>
<g id="a_node18"><a xlink:href="normalize_8cpp.html" target="_top" xlink:title=" ">
<polygon fill="none" stroke="black" points="2636,-140 2636,-159 2739,-159 2739,-140 2636,-140"/>
<text text-anchor="middle" x="2687.5" y="-147" font-family="Helvetica,sans-Serif" font-size="10.00">thorin/normalize.cpp</text>
</a>
</g>
</g>
<!-- Node3&#45;&gt;Node18 -->
<g id="edge18" class="edge">
<title>Node3&#45;&gt;Node18</title>
<path fill="none" stroke="midnightblue" d="M2308.85,-205.93C2378.87,-199.52 2513.96,-185.63 2627.5,-165 2636.57,-163.35 2646.31,-161.18 2655.26,-159.01"/>
<polygon fill="midnightblue" stroke="midnightblue" points="2308.24,-202.47 2298.6,-206.86 2308.87,-209.44 2308.24,-202.47"/>
</g>
<!-- Node19 -->
<g id="node19" class="node">
<title>Node19</title>
<g id="a_node19"><a xlink:href="pass_8h.html" target="_top" xlink:title=" ">
<polygon fill="none" stroke="black" points="896.5,-140 896.5,-159 992.5,-159 992.5,-140 896.5,-140"/>
<text text-anchor="middle" x="944.5" y="-147" font-family="Helvetica,sans-Serif" font-size="10.00">thorin/pass/pass.h</text>
</a>
</g>
</g>
<!-- Node3&#45;&gt;Node19 -->
<g id="edge19" class="edge">
<title>Node3&#45;&gt;Node19</title>
<path fill="none" stroke="midnightblue" d="M2214.06,-207.86C2008.97,-198.59 1199.56,-162.02 992.8,-152.68"/>
<polygon fill="midnightblue" stroke="midnightblue" points="2214.06,-211.36 2224.21,-208.32 2214.37,-204.37 2214.06,-211.36"/>
</g>
<!-- Node45 -->
<g id="node44" class="node">
<title>Node45</title>
<g id="a_node44"><a xlink:href="rewrite_8cpp.html" target="_top" xlink:title=" ">
<polygon fill="none" stroke="black" points="1967,-73 1967,-92 2058,-92 2058,-73 1967,-73"/>
<text text-anchor="middle" x="2012.5" y="-80" font-family="Helvetica,sans-Serif" font-size="10.00">thorin/rewrite.cpp</text>
</a>
</g>
</g>
<!-- Node3&#45;&gt;Node45 -->
<g id="edge61" class="edge">
<title>Node3&#45;&gt;Node45</title>
<path fill="none" stroke="midnightblue" d="M2214.21,-209.59C2141.69,-207.85 2008.25,-199.85 1978.5,-165 1959.39,-142.61 1988.07,-107.96 2003.6,-92.04"/>
<polygon fill="midnightblue" stroke="midnightblue" points="2214.38,-213.09 2224.45,-209.8 2214.53,-206.1 2214.38,-213.09"/>
</g>
<!-- Node46 -->
<g id="node45" class="node">
<title>Node46</title>
<g id="a_node45"><a xlink:href="rewrite_8h.html" target="_top" xlink:title=" ">
<polygon fill="none" stroke="black" points="1823.5,-140 1823.5,-159 1903.5,-159 1903.5,-140 1823.5,-140"/>
<text text-anchor="middle" x="1863.5" y="-147" font-family="Helvetica,sans-Serif" font-size="10.00">thorin/rewrite.h</text>
</a>
</g>
</g>
<!-- Node3&#45;&gt;Node46 -->
<g id="edge62" class="edge">
<title>Node3&#45;&gt;Node46</title>
<path fill="none" stroke="midnightblue" d="M2214.15,-205.81C2147.52,-199.45 2022.5,-185.87 1917.5,-165 1909.31,-163.37 1900.53,-161.2 1892.48,-159.04"/>
<polygon fill="midnightblue" stroke="midnightblue" points="2214.05,-209.31 2224.33,-206.76 2214.7,-202.34 2214.05,-209.31"/>
</g>
<!-- Node47 -->
<g id="node46" class="node">
<title>Node47</title>
<g id="a_node46"><a xlink:href="world_8cpp.html" target="_top" xlink:title=" ">
<polygon fill="none" stroke="black" points="2076,-73 2076,-92 2161,-92 2161,-73 2076,-73"/>
<text text-anchor="middle" x="2118.5" y="-80" font-family="Helvetica,sans-Serif" font-size="10.00">thorin/world.cpp</text>
</a>
</g>
</g>
<!-- Node3&#45;&gt;Node47 -->
<g id="edge75" class="edge">
<title>Node3&#45;&gt;Node47</title>
<path fill="none" stroke="midnightblue" d="M2214.07,-209.27C2143.7,-207.07 2016.88,-198.44 1988.5,-165 1979.59,-154.5 1980.72,-145.37 1988.5,-134 1994.62,-125.06 2055.74,-103.93 2091.95,-92.03"/>
<polygon fill="midnightblue" stroke="midnightblue" points="2214.34,-212.78 2224.44,-209.56 2214.54,-205.78 2214.34,-212.78"/>
</g>
<!-- Node48 -->
<g id="node47" class="node">
<title>Node48</title>
<g id="a_node47"><a xlink:href="stream_8cpp.html" target="_top" xlink:title=" ">
<polygon fill="none" stroke="black" points="2757.5,-140 2757.5,-159 2849.5,-159 2849.5,-140 2757.5,-140"/>
<text text-anchor="middle" x="2803.5" y="-147" font-family="Helvetica,sans-Serif" font-size="10.00">thorin/stream.cpp</text>
</a>
</g>
</g>
<!-- Node3&#45;&gt;Node48 -->
<g id="edge71" class="edge">
<title>Node3&#45;&gt;Node48</title>
<path fill="none" stroke="midnightblue" d="M2308.88,-208.23C2396.34,-204.38 2588.81,-193.23 2748.5,-165 2757.15,-163.47 2766.44,-161.25 2774.87,-159.01"/>
<polygon fill="midnightblue" stroke="midnightblue" points="2308.58,-204.74 2298.74,-208.66 2308.88,-211.73 2308.58,-204.74"/>
</g>
<!-- Node49 -->
<g id="node48" class="node">
<title>Node49</title>
<g id="a_node48"><a xlink:href="closure__conv_8h.html" target="_top" xlink:title=" ">
<polygon fill="none" stroke="black" points="2868,-134.5 2868,-164.5 2987,-164.5 2987,-134.5 2868,-134.5"/>
<text text-anchor="start" x="2876" y="-152.5" font-family="Helvetica,sans-Serif" font-size="10.00">thorin/transform/closure</text>
<text text-anchor="middle" x="2927.5" y="-141.5" font-family="Helvetica,sans-Serif" font-size="10.00">_conv.h</text>
</a>
</g>
</g>
<!-- Node3&#45;&gt;Node49 -->
<g id="edge72" class="edge">
<title>Node3&#45;&gt;Node49</title>
<path fill="none" stroke="midnightblue" d="M2308.92,-208.55C2410.26,-204.99 2655.25,-193.89 2858.5,-165 2861.53,-164.57 2864.63,-164.08 2867.75,-163.56"/>
<polygon fill="midnightblue" stroke="midnightblue" points="2308.59,-205.06 2298.71,-208.9 2308.83,-212.06 2308.59,-205.06"/>
</g>
<!-- Node51 -->
<g id="node50" class="node">
<title>Node51</title>
<g id="a_node50"><a xlink:href="tuple_8cpp.html" target="_top" xlink:title=" ">
<polygon fill="none" stroke="black" points="3005,-140 3005,-159 3088,-159 3088,-140 3005,-140"/>
<text text-anchor="middle" x="3046.5" y="-147" font-family="Helvetica,sans-Serif" font-size="10.00">thorin/tuple.cpp</text>
</a>
</g>
</g>
<!-- Node3&#45;&gt;Node51 -->
<g id="edge74" class="edge">
<title>Node3&#45;&gt;Node51</title>
<path fill="none" stroke="midnightblue" d="M2308.61,-210.7C2425.85,-211.67 2739.73,-209.53 2996.5,-165 3004.6,-163.59 3013.26,-161.36 3021.06,-159.05"/>
<polygon fill="midnightblue" stroke="midnightblue" points="2308.58,-207.2 2298.54,-210.61 2308.51,-214.2 2308.58,-207.2"/>
</g>
<!-- Node9 -->
<g id="node9" class="node">
<title>Node9</title>
<g id="a_node9"><a xlink:href="ll_8cpp.html" target="_top" xlink:title=" ">
<polygon fill="none" stroke="black" points="2179,-73 2179,-92 2266,-92 2266,-73 2179,-73"/>
<text text-anchor="middle" x="2222.5" y="-80" font-family="Helvetica,sans-Serif" font-size="10.00">thorin/be/ll/ll.cpp</text>
</a>
</g>
</g>
<!-- Node8&#45;&gt;Node9 -->
<g id="edge8" class="edge">
<title>Node8&#45;&gt;Node9</title>
<path fill="none" stroke="midnightblue" d="M2078.8,-136.27C2113.93,-123.37 2168.38,-103.38 2199.18,-92.06"/>
<polygon fill="midnightblue" stroke="midnightblue" points="2077.18,-133.14 2069,-139.87 2079.6,-139.71 2077.18,-133.14"/>
</g>
<!-- Node15 -->
<g id="node15" class="node">
<title>Node15</title>
<g id="a_node15"><a xlink:href="main_8cpp.html" target="_top" xlink:title=" ">
<polygon fill="none" stroke="black" points="2382,-73 2382,-92 2465,-92 2465,-73 2382,-73"/>
<text text-anchor="middle" x="2423.5" y="-80" font-family="Helvetica,sans-Serif" font-size="10.00">driver/main.cpp</text>
</a>
</g>
</g>
<!-- Node14&#45;&gt;Node15 -->
<g id="edge14" class="edge">
<title>Node14&#45;&gt;Node15</title>
<path fill="none" stroke="midnightblue" d="M2464.34,-131.77C2453.62,-119.1 2439.32,-102.2 2430.8,-92.13"/>
<polygon fill="midnightblue" stroke="midnightblue" points="2461.95,-134.36 2471.08,-139.73 2467.29,-129.84 2461.95,-134.36"/>
</g>
<!-- Node16 -->
<g id="node16" class="node">
<title>Node16</title>
<g id="a_node16"><a xlink:href="parser_8cpp.html" target="_top" xlink:title=" ">
<polygon fill="none" stroke="black" points="2483.5,-73 2483.5,-92 2583.5,-92 2583.5,-73 2483.5,-73"/>
<text text-anchor="middle" x="2533.5" y="-80" font-family="Helvetica,sans-Serif" font-size="10.00">thorin/fe/parser.cpp</text>
</a>
</g>
</g>
<!-- Node14&#45;&gt;Node16 -->
<g id="edge15" class="edge">
<title>Node14&#45;&gt;Node16</title>
<path fill="none" stroke="midnightblue" d="M2492.66,-131.77C2503.38,-119.1 2517.68,-102.2 2526.2,-92.13"/>
<polygon fill="midnightblue" stroke="midnightblue" points="2489.71,-129.84 2485.92,-139.73 2495.05,-134.36 2489.71,-129.84"/>
</g>
<!-- Node20 -->
<g id="node20" class="node">
<title>Node20</title>
<g id="a_node20"><a xlink:href="beta__red_8h.html" target="_top" xlink:title=" ">
<polygon fill="none" stroke="black" points="494.5,-67.5 494.5,-97.5 592.5,-97.5 592.5,-67.5 494.5,-67.5"/>
<text text-anchor="start" x="502.5" y="-85.5" font-family="Helvetica,sans-Serif" font-size="10.00">thorin/pass/fp/beta</text>
<text text-anchor="middle" x="543.5" y="-74.5" font-family="Helvetica,sans-Serif" font-size="10.00">_red.h</text>
</a>
</g>
</g>
<!-- Node19&#45;&gt;Node20 -->
<g id="edge20" class="edge">
<title>Node19&#45;&gt;Node20</title>
<path fill="none" stroke="midnightblue" d="M904.08,-137.56C898.53,-136.25 892.89,-135.02 887.5,-134 761.62,-110.16 727.43,-121.58 601.5,-98 598.64,-97.47 595.72,-96.87 592.77,-96.24"/>
<polygon fill="midnightblue" stroke="midnightblue" points="903.34,-140.98 913.89,-139.97 905.01,-134.19 903.34,-140.98"/>
</g>
<!-- Node25 -->
<g id="node25" class="node">
<title>Node25</title>
<g id="a_node25"><a xlink:href="copy__prop_8h.html" target="_top" xlink:title=" ">
<polygon fill="none" stroke="black" points="129,-67.5 129,-97.5 228,-97.5 228,-67.5 129,-67.5"/>
<text text-anchor="start" x="137" y="-85.5" font-family="Helvetica,sans-Serif" font-size="10.00">thorin/pass/fp/copy</text>
<text text-anchor="middle" x="178.5" y="-74.5" font-family="Helvetica,sans-Serif" font-size="10.00">_prop.h</text>
</a>
</g>
</g>
<!-- Node19&#45;&gt;Node25 -->
<g id="edge25" class="edge">
<title>Node19&#45;&gt;Node25</title>
<path fill="none" stroke="midnightblue" d="M905.55,-137.53C899.54,-136.15 893.38,-134.9 887.5,-134 601.07,-90.07 523.02,-141.34 236.5,-98 233.73,-97.58 230.9,-97.09 228.05,-96.54"/>
<polygon fill="midnightblue" stroke="midnightblue" points="904.89,-140.97 915.43,-139.95 906.55,-134.17 904.89,-140.97"/>
</g>
<!-- Node26 -->
<g id="node26" class="node">
<title>Node26</title>
<g id="a_node26"><a xlink:href="dce_8h.html" target="_top" xlink:title=" ">
<polygon fill="none" stroke="black" points="374.5,-73 374.5,-92 476.5,-92 476.5,-73 374.5,-73"/>
<text text-anchor="middle" x="425.5" y="-80" font-family="Helvetica,sans-Serif" font-size="10.00">thorin/pass/fp/dce.h</text>
</a>
</g>
</g>
<!-- Node19&#45;&gt;Node26 -->
<g id="edge28" class="edge">
<title>Node19&#45;&gt;Node26</title>
<path fill="none" stroke="midnightblue" d="M904.69,-137.51C898.96,-136.18 893.1,-134.96 887.5,-134 710.68,-103.79 662.5,-127.15 485.5,-98 476.19,-96.47 466.2,-94.28 457.08,-92.06"/>
<polygon fill="midnightblue" stroke="midnightblue" points="904.27,-141.01 914.81,-139.99 905.93,-134.21 904.27,-141.01"/>
</g>
<!-- Node27 -->
<g id="node27" class="node">
<title>Node27</title>
<g id="a_node27"><a xlink:href="eta__exp_8h.html" target="_top" xlink:title=" ">
<polygon fill="none" stroke="black" points="834.5,-67.5 834.5,-97.5 926.5,-97.5 926.5,-67.5 834.5,-67.5"/>
<text text-anchor="start" x="842.5" y="-85.5" font-family="Helvetica,sans-Serif" font-size="10.00">thorin/pass/fp/eta</text>
<text text-anchor="middle" x="880.5" y="-74.5" font-family="Helvetica,sans-Serif" font-size="10.00">_exp.h</text>
</a>
</g>
</g>
<!-- Node19&#45;&gt;Node27 -->
<g id="edge31" class="edge">
<title>Node19&#45;&gt;Node27</title>
<path fill="none" stroke="midnightblue" d="M928.55,-132.3C918.05,-121.63 904.43,-107.8 894.37,-97.59"/>
<polygon fill="midnightblue" stroke="midnightblue" points="926.36,-135.06 935.87,-139.73 931.35,-130.15 926.36,-135.06"/>
</g>
<!-- Node31 -->
<g id="node31" class="node">
<title>Node31</title>
<g id="a_node31"><a xlink:href="eta__red_8h.html" target="_top" xlink:title=" ">
<polygon fill="none" stroke="black" points="1090.5,-67.5 1090.5,-97.5 1182.5,-97.5 1182.5,-67.5 1090.5,-67.5"/>
<text text-anchor="start" x="1098.5" y="-85.5" font-family="Helvetica,sans-Serif" font-size="10.00">thorin/pass/fp/eta</text>
<text text-anchor="middle" x="1136.5" y="-74.5" font-family="Helvetica,sans-Serif" font-size="10.00">_red.h</text>
</a>
</g>
</g>
<!-- Node19&#45;&gt;Node31 -->
<g id="edge38" class="edge">
<title>Node19&#45;&gt;Node31</title>
<path fill="none" stroke="midnightblue" d="M979.55,-136.63C1012.11,-125.61 1060.61,-109.19 1095.06,-97.53"/>
<polygon fill="midnightblue" stroke="midnightblue" points="978.35,-133.35 970,-139.87 980.59,-139.98 978.35,-133.35"/>
</g>
<!-- Node33 -->
<g id="node33" class="node">
<title>Node33</title>
<g id="a_node33"><a xlink:href="ssa__constr_8h.html" target="_top" xlink:title=" ">
<polygon fill="none" stroke="black" points="721,-67.5 721,-97.5 816,-97.5 816,-67.5 721,-67.5"/>
<text text-anchor="start" x="729" y="-85.5" font-family="Helvetica,sans-Serif" font-size="10.00">thorin/pass/fp/ssa</text>
<text text-anchor="middle" x="768.5" y="-74.5" font-family="Helvetica,sans-Serif" font-size="10.00">_constr.h</text>
</a>
</g>
</g>
<!-- Node19&#45;&gt;Node33 -->
<g id="edge42" class="edge">
<title>Node19&#45;&gt;Node33</title>
<path fill="none" stroke="midnightblue" d="M911.59,-136.35C881.76,-125.33 837.8,-109.09 806.48,-97.53"/>
<polygon fill="midnightblue" stroke="midnightblue" points="910.54,-139.69 921.13,-139.87 912.96,-133.12 910.54,-139.69"/>
</g>
<!-- Node34 -->
<g id="node34" class="node">
<title>Node34</title>
<g id="a_node34"><a xlink:href="optimize_8h.html" target="_top" xlink:title=" ">
<polygon fill="none" stroke="black" points="246,-73 246,-92 357,-92 357,-73 246,-73"/>
<text text-anchor="middle" x="301.5" y="-80" font-family="Helvetica,sans-Serif" font-size="10.00">thorin/pass/optimize.h</text>
</a>
</g>
</g>
<!-- Node19&#45;&gt;Node34 -->
<g id="edge45" class="edge">
<title>Node19&#45;&gt;Node34</title>
<path fill="none" stroke="midnightblue" d="M905.34,-137.55C899.4,-136.18 893.31,-134.93 887.5,-134 657.88,-97.18 595.58,-131.79 365.5,-98 355.36,-96.51 344.43,-94.28 334.53,-92"/>
<polygon fill="midnightblue" stroke="midnightblue" points="904.58,-140.97 915.13,-139.95 906.25,-134.17 904.58,-140.97"/>
</g>
<!-- Node35 -->
<g id="node35" class="node">
<title>Node35</title>
<g id="a_node35"><a xlink:href="pass_8cpp.html" target="_top" xlink:title=" ">
<polygon fill="none" stroke="black" points="1487,-73 1487,-92 1594,-92 1594,-73 1487,-73"/>
<text text-anchor="middle" x="1540.5" y="-80" font-family="Helvetica,sans-Serif" font-size="10.00">thorin/pass/pass.cpp</text>
</a>
</g>
</g>
<!-- Node19&#45;&gt;Node35 -->
<g id="edge46" class="edge">
<title>Node19&#45;&gt;Node35</title>
<path fill="none" stroke="midnightblue" d="M1002.57,-145.51C1100.85,-139.89 1306.02,-125.73 1477.5,-98 1487.25,-96.42 1497.74,-94.22 1507.31,-92"/>
<polygon fill="midnightblue" stroke="midnightblue" points="1002.33,-142.02 992.55,-146.07 1002.73,-149.01 1002.33,-142.02"/>
</g>
<!-- Node36 -->
<g id="node36" class="node">
<title>Node36</title>
<g id="a_node36"><a xlink:href="alloc2malloc_8h.html" target="_top" xlink:title=" ">
<polygon fill="none" stroke="black" points="1201,-73 1201,-92 1344,-92 1344,-73 1201,-73"/>
<text text-anchor="middle" x="1272.5" y="-80" font-family="Helvetica,sans-Serif" font-size="10.00">thorin/pass/rw/alloc2malloc.h</text>
</a>
</g>
</g>
<!-- Node19&#45;&gt;Node36 -->
<g id="edge47" class="edge">
<title>Node19&#45;&gt;Node36</title>
<path fill="none" stroke="midnightblue" d="M997.7,-137.96C1062.25,-125.16 1169.84,-103.84 1229.45,-92.03"/>
<polygon fill="midnightblue" stroke="midnightblue" points="996.85,-134.56 987.72,-139.94 998.21,-141.42 996.85,-134.56"/>
</g>
<!-- Node38 -->
<g id="node38" class="node">
<title>Node38</title>
<g id="a_node38"><a xlink:href="partial__eval_8h.html" target="_top" xlink:title=" ">
<polygon fill="none" stroke="black" points="1362,-67.5 1362,-97.5 1469,-97.5 1469,-67.5 1362,-67.5"/>
<text text-anchor="start" x="1370" y="-85.5" font-family="Helvetica,sans-Serif" font-size="10.00">thorin/pass/rw/partial</text>
<text text-anchor="middle" x="1415.5" y="-74.5" font-family="Helvetica,sans-Serif" font-size="10.00">_eval.h</text>
</a>
</g>
</g>
<!-- Node19&#45;&gt;Node38 -->
<g id="edge50" class="edge">
<title>Node19&#45;&gt;Node38</title>
<path fill="none" stroke="midnightblue" d="M1003.08,-143.16C1082.58,-135.49 1228.9,-119.81 1352.5,-98 1355.59,-97.45 1358.77,-96.85 1361.96,-96.22"/>
<polygon fill="midnightblue" stroke="midnightblue" points="1002.41,-139.71 992.79,-144.15 1003.08,-146.68 1002.41,-139.71"/>
</g>
<!-- Node40 -->
<g id="node40" class="node">
<title>Node40</title>
<g id="a_node40"><a xlink:href="remem__elim_8h.html" target="_top" xlink:title=" ">
<polygon fill="none" stroke="black" points="0,-67.5 0,-97.5 111,-97.5 111,-67.5 0,-67.5"/>
<text text-anchor="start" x="8" y="-85.5" font-family="Helvetica,sans-Serif" font-size="10.00">thorin/pass/rw/remem</text>
<text text-anchor="middle" x="55.5" y="-74.5" font-family="Helvetica,sans-Serif" font-size="10.00">_elim.h</text>
</a>
</g>
</g>
<!-- Node19&#45;&gt;Node40 -->
<g id="edge53" class="edge">
<title>Node19&#45;&gt;Node40</title>
<path fill="none" stroke="midnightblue" d="M905.75,-137.53C899.69,-136.13 893.45,-134.89 887.5,-134 549.53,-83.62 458.11,-143.93 119.5,-98 116.79,-97.63 114.03,-97.21 111.24,-96.74"/>
<polygon fill="midnightblue" stroke="midnightblue" points="905.19,-140.99 915.73,-139.98 906.86,-134.2 905.19,-140.99"/>
</g>
<!-- Node42 -->
<g id="node42" class="node">
<title>Node42</title>
<g id="a_node42"><a xlink:href="ret__wrap_8h.html" target="_top" xlink:title=" ">
<polygon fill="none" stroke="red" points="610.5,-67.5 610.5,-97.5 702.5,-97.5 702.5,-67.5 610.5,-67.5"/>
<text text-anchor="start" x="618.5" y="-85.5" font-family="Helvetica,sans-Serif" font-size="10.00">thorin/pass/rw/ret</text>
<text text-anchor="middle" x="656.5" y="-74.5" font-family="Helvetica,sans-Serif" font-size="10.00">_wrap.h</text>
</a>
</g>
</g>
<!-- Node19&#45;&gt;Node42 -->
<g id="edge56" class="edge">
<title>Node19&#45;&gt;Node42</title>
<path fill="none" stroke="midnightblue" d="M902.07,-137.47C897.16,-136.27 892.23,-135.08 887.5,-134 809.68,-116.15 789.24,-116.18 711.5,-98 708.62,-97.33 705.65,-96.61 702.67,-95.87"/>
<polygon fill="midnightblue" stroke="midnightblue" points="901.46,-140.93 912.01,-139.95 903.16,-134.13 901.46,-140.93"/>
</g>
<!-- Node44 -->
<g id="node43" class="node">
<title>Node44</title>
<g id="a_node43"><a xlink:href="scalarize_8h.html" target="_top" xlink:title=" ">
<polygon fill="none" stroke="black" points="945,-73 945,-92 1072,-92 1072,-73 945,-73"/>
<text text-anchor="middle" x="1008.5" y="-80" font-family="Helvetica,sans-Serif" font-size="10.00">thorin/pass/rw/scalarize.h</text>
</a>
</g>
</g>
<!-- Node19&#45;&gt;Node44 -->
<g id="edge58" class="edge">
<title>Node19&#45;&gt;Node44</title>
<path fill="none" stroke="midnightblue" d="M960.26,-132.5C972.81,-119.75 989.9,-102.39 1000.01,-92.13"/>
<polygon fill="midnightblue" stroke="midnightblue" points="957.65,-130.15 953.13,-139.73 962.64,-135.06 957.65,-130.15"/>
</g>
<!-- Node21 -->
<g id="node21" class="node">
<title>Node21</title>
<g id="a_node21"><a xlink:href="beta__red_8cpp.html" target="_top" xlink:title=" ">
<polygon fill="none" stroke="black" points="860.5,-0.5 860.5,-30.5 958.5,-30.5 958.5,-0.5 860.5,-0.5"/>
<text text-anchor="start" x="868.5" y="-18.5" font-family="Helvetica,sans-Serif" font-size="10.00">thorin/pass/fp/beta</text>
<text text-anchor="middle" x="909.5" y="-7.5" font-family="Helvetica,sans-Serif" font-size="10.00">_red.cpp</text>
</a>
</g>
</g>
<!-- Node20&#45;&gt;Node21 -->
<g id="edge21" class="edge">
<title>Node20&#45;&gt;Node21</title>
<path fill="none" stroke="midnightblue" d="M602.64,-66.9C712.95,-45.78 743.85,-51.76 850.5,-31 853.71,-30.38 857.01,-29.69 860.32,-28.97"/>
<polygon fill="midnightblue" stroke="midnightblue" points="601.93,-63.47 592.78,-68.82 603.27,-70.34 601.93,-63.47"/>
</g>
<!-- Node22 -->
<g id="node22" class="node">
<title>Node22</title>
<g id="a_node22"><a xlink:href="copy__prop_8cpp.html" target="_top" xlink:title=" ">
<polygon fill="none" stroke="black" points="358,-0.5 358,-30.5 457,-30.5 457,-0.5 358,-0.5"/>
<text text-anchor="start" x="366" y="-18.5" font-family="Helvetica,sans-Serif" font-size="10.00">thorin/pass/fp/copy</text>
<text text-anchor="middle" x="407.5" y="-7.5" font-family="Helvetica,sans-Serif" font-size="10.00">_prop.cpp</text>
</a>
</g>
</g>
<!-- Node20&#45;&gt;Node22 -->
<g id="edge22" class="edge">
<title>Node20&#45;&gt;Node22</title>
<path fill="none" stroke="midnightblue" d="M504.78,-62.99C483.22,-52.69 456.81,-40.07 436.95,-30.58"/>
<polygon fill="midnightblue" stroke="midnightblue" points="503.46,-66.24 513.99,-67.4 506.48,-59.93 503.46,-66.24"/>
</g>
<!-- Node23 -->
<g id="node23" class="node">
<title>Node23</title>
<g id="a_node23"><a xlink:href="dce_8cpp.html" target="_top" xlink:title=" ">
<polygon fill="none" stroke="black" points="475,-6 475,-25 588,-25 588,-6 475,-6"/>
<text text-anchor="middle" x="531.5" y="-13" font-family="Helvetica,sans-Serif" font-size="10.00">thorin/pass/fp/dce.cpp</text>
</a>
</g>
</g>
<!-- Node20&#45;&gt;Node23 -->
<g id="edge23" class="edge">
<title>Node20&#45;&gt;Node23</title>
<path fill="none" stroke="midnightblue" d="M539.02,-57.25C536.95,-46.02 534.62,-33.38 533.11,-25.19"/>
<polygon fill="midnightblue" stroke="midnightblue" points="535.64,-58.2 540.9,-67.4 542.52,-56.93 535.64,-58.2"/>
</g>
<!-- Node24 -->
<g id="node24" class="node">
<title>Node24</title>
<g id="a_node24"><a xlink:href="optimize_8cpp.html" target="_top" xlink:title=" ">
<polygon fill="none" stroke="black" points="606.5,-6 606.5,-25 728.5,-25 728.5,-6 606.5,-6"/>
<text text-anchor="middle" x="667.5" y="-13" font-family="Helvetica,sans-Serif" font-size="10.00">thorin/pass/optimize.cpp</text>
</a>
</g>
</g>
<!-- Node20&#45;&gt;Node24 -->
<g id="edge24" class="edge">
<title>Node20&#45;&gt;Node24</title>
<path fill="none" stroke="midnightblue" d="M579.48,-62.64C603.21,-50.2 633.14,-34.51 651.27,-25.01"/>
<polygon fill="midnightblue" stroke="midnightblue" points="577.64,-59.65 570.41,-67.4 580.89,-65.85 577.64,-59.65"/>
</g>
<!-- Node25&#45;&gt;Node22 -->
<g id="edge26" class="edge">
<title>Node25&#45;&gt;Node22</title>
<path fill="none" stroke="midnightblue" d="M237.64,-64.71C274.9,-54.14 322.47,-40.63 357.79,-30.61"/>
<polygon fill="midnightblue" stroke="midnightblue" points="236.57,-61.38 227.91,-67.48 238.48,-68.11 236.57,-61.38"/>
</g>
<!-- Node25&#45;&gt;Node24 -->
<g id="edge27" class="edge">
<title>Node25&#45;&gt;Node24</title>
<path fill="none" stroke="midnightblue" d="M238.18,-66.86C396.71,-40.05 440.78,-54.62 596.5,-31 607.2,-29.38 618.72,-27.21 629.31,-25.04"/>
<polygon fill="midnightblue" stroke="midnightblue" points="237.33,-63.46 228.07,-68.6 238.52,-70.36 237.33,-63.46"/>
</g>
<!-- Node26&#45;&gt;Node23 -->
<g id="edge29" class="edge">
<title>Node26&#45;&gt;Node23</title>
<path fill="none" stroke="midnightblue" d="M448.42,-67.44C469.42,-54.57 499.82,-35.93 517.43,-25.13"/>
<polygon fill="midnightblue" stroke="midnightblue" points="446.49,-64.52 439.8,-72.73 450.15,-70.49 446.49,-64.52"/>
</g>
<!-- Node26&#45;&gt;Node24 -->
<g id="edge30" class="edge">
<title>Node26&#45;&gt;Node24</title>
<path fill="none" stroke="midnightblue" d="M467.11,-70.32C514.9,-57.49 592.25,-36.71 635.54,-25.08"/>
<polygon fill="midnightblue" stroke="midnightblue" points="466.14,-66.96 457.39,-72.94 467.95,-73.72 466.14,-66.96"/>
</g>
<!-- Node27&#45;&gt;Node22 -->
<g id="edge32" class="edge">
<title>Node27&#45;&gt;Node22</title>
<path fill="none" stroke="midnightblue" d="M824.81,-67.05C824.7,-67.04 824.6,-67.02 824.5,-67 666.64,-38.82 623.48,-58.52 465.5,-31 462.74,-30.52 459.92,-29.98 457.07,-29.4"/>
<polygon fill="midnightblue" stroke="midnightblue" points="823.99,-70.46 834.48,-68.99 825.36,-63.6 823.99,-70.46"/>
</g>
<!-- Node27&#45;&gt;Node23 -->
<g id="edge33" class="edge">
<title>Node27&#45;&gt;Node23</title>
<path fill="none" stroke="midnightblue" d="M824.8,-67.06C824.7,-67.04 824.6,-67.02 824.5,-67 724.5,-46.17 697.87,-49.97 597.5,-31 588.05,-29.21 577.88,-27.08 568.42,-25.01"/>
<polygon fill="midnightblue" stroke="midnightblue" points="823.92,-70.45 834.44,-69.2 825.43,-63.62 823.92,-70.45"/>
</g>
<!-- Node27&#45;&gt;Node24 -->
<g id="edge36" class="edge">
<title>Node27&#45;&gt;Node24</title>
<path fill="none" stroke="midnightblue" d="M824.83,-64.51C783.26,-51.83 728.19,-35.02 695.45,-25.03"/>
<polygon fill="midnightblue" stroke="midnightblue" points="823.96,-67.9 834.54,-67.48 826,-61.21 823.96,-67.9"/>
</g>
<!-- Node28 -->
<g id="node28" class="node">
<title>Node28</title>
<g id="a_node28"><a xlink:href="eta__exp_8cpp.html" target="_top" xlink:title=" ">
<polygon fill="none" stroke="black" points="976.5,-0.5 976.5,-30.5 1068.5,-30.5 1068.5,-0.5 976.5,-0.5"/>
<text text-anchor="start" x="984.5" y="-18.5" font-family="Helvetica,sans-Serif" font-size="10.00">thorin/pass/fp/eta</text>
<text text-anchor="middle" x="1022.5" y="-7.5" font-family="Helvetica,sans-Serif" font-size="10.00">_exp.cpp</text>
</a>
</g>
</g>
<!-- Node27&#45;&gt;Node28 -->
<g id="edge34" class="edge">
<title>Node27&#45;&gt;Node28</title>
<path fill="none" stroke="midnightblue" d="M920.63,-63.13C943.19,-52.8 970.92,-40.11 991.75,-30.58"/>
<polygon fill="midnightblue" stroke="midnightblue" points="918.95,-60.05 911.31,-67.4 921.86,-66.42 918.95,-60.05"/>
</g>
<!-- Node29 -->
<g id="node29" class="node">
<title>Node29</title>
<g id="a_node29"><a xlink:href="ssa__constr_8cpp.html" target="_top" xlink:title=" ">
<polygon fill="none" stroke="black" points="747,-0.5 747,-30.5 842,-30.5 842,-0.5 747,-0.5"/>
<text text-anchor="start" x="755" y="-18.5" font-family="Helvetica,sans-Serif" font-size="10.00">thorin/pass/fp/ssa</text>
<text text-anchor="middle" x="794.5" y="-7.5" font-family="Helvetica,sans-Serif" font-size="10.00">_constr.cpp</text>
</a>
</g>
</g>
<!-- Node27&#45;&gt;Node29 -->
<g id="edge35" class="edge">
<title>Node27&#45;&gt;Node29</title>
<path fill="none" stroke="midnightblue" d="M853.6,-61.17C840.45,-51.23 824.95,-39.51 813.12,-30.58"/>
<polygon fill="midnightblue" stroke="midnightblue" points="851.75,-64.16 861.84,-67.4 855.97,-58.57 851.75,-64.16"/>
</g>
<!-- Node30 -->
<g id="node30" class="node">
<title>Node30</title>
<g id="a_node30"><a xlink:href="scalarize_8cpp.html" target="_top" xlink:title=" ">
<polygon fill="none" stroke="black" points="1087,-6 1087,-25 1224,-25 1224,-6 1087,-6"/>
<text text-anchor="middle" x="1155.5" y="-13" font-family="Helvetica,sans-Serif" font-size="10.00">thorin/pass/rw/scalarize.cpp</text>
</a>
</g>
</g>
<!-- Node27&#45;&gt;Node30 -->
<g id="edge37" class="edge">
<title>Node27&#45;&gt;Node30</title>
<path fill="none" stroke="midnightblue" d="M936.82,-66.72C1005.51,-49.89 1074.48,-34.36 1116.46,-25.06"/>
<polygon fill="midnightblue" stroke="midnightblue" points="935.56,-63.42 926.69,-69.21 937.23,-70.22 935.56,-63.42"/>
</g>
<!-- Node31&#45;&gt;Node24 -->
<g id="edge41" class="edge">
<title>Node31&#45;&gt;Node24</title>
<path fill="none" stroke="midnightblue" d="M1080.81,-67.06C1080.7,-67.04 1080.6,-67.02 1080.5,-67 929.67,-39.71 888.96,-54.57 737.5,-31 726.95,-29.36 715.59,-27.18 705.16,-25.02"/>
<polygon fill="midnightblue" stroke="midnightblue" points="1079.98,-70.46 1090.48,-69 1081.36,-63.6 1079.98,-70.46"/>
</g>
<!-- Node31&#45;&gt;Node28 -->
<g id="edge39" class="edge">
<title>Node31&#45;&gt;Node28</title>
<path fill="none" stroke="midnightblue" d="M1102.82,-62.3C1084.98,-52.12 1063.46,-39.85 1047.19,-30.58"/>
<polygon fill="midnightblue" stroke="midnightblue" points="1101.34,-65.48 1111.76,-67.4 1104.81,-59.4 1101.34,-65.48"/>
</g>
<!-- Node32 -->
<g id="node32" class="node">
<title>Node32</title>
<g id="a_node32"><a xlink:href="eta__red_8cpp.html" target="_top" xlink:title=" ">
<polygon fill="none" stroke="black" points="1242.5,-0.5 1242.5,-30.5 1334.5,-30.5 1334.5,-0.5 1242.5,-0.5"/>
<text text-anchor="start" x="1250.5" y="-18.5" font-family="Helvetica,sans-Serif" font-size="10.00">thorin/pass/fp/eta</text>
<text text-anchor="middle" x="1288.5" y="-7.5" font-family="Helvetica,sans-Serif" font-size="10.00">_red.cpp</text>
</a>
</g>
</g>
<!-- Node31&#45;&gt;Node32 -->
<g id="edge40" class="edge">
<title>Node31&#45;&gt;Node32</title>
<path fill="none" stroke="midnightblue" d="M1178.81,-63.41C1203.08,-53.03 1233.09,-40.2 1255.58,-30.58"/>
<polygon fill="midnightblue" stroke="midnightblue" points="1177.3,-60.25 1169.48,-67.4 1180.05,-66.68 1177.3,-60.25"/>
</g>
<!-- Node33&#45;&gt;Node24 -->
<g id="edge44" class="edge">
<title>Node33&#45;&gt;Node24</title>
<path fill="none" stroke="midnightblue" d="M738.16,-61.97C719.01,-49.65 695.23,-34.35 680.72,-25.01"/>
<polygon fill="midnightblue" stroke="midnightblue" points="736.28,-64.93 746.58,-67.4 740.07,-59.04 736.28,-64.93"/>
</g>
<!-- Node33&#45;&gt;Node29 -->
<g id="edge43" class="edge">
<title>Node33&#45;&gt;Node29</title>
<path fill="none" stroke="midnightblue" d="M777.9,-57.99C781.58,-48.8 785.67,-38.58 788.87,-30.58"/>
<polygon fill="midnightblue" stroke="midnightblue" points="774.61,-56.81 774.14,-67.4 781.11,-59.41 774.61,-56.81"/>
</g>
<!-- Node36&#45;&gt;Node24 -->
<g id="edge48" class="edge">
<title>Node36&#45;&gt;Node24</title>
<path fill="none" stroke="midnightblue" d="M1219.41,-71.23C1210.13,-69.65 1200.55,-68.17 1191.5,-67 990.75,-41.14 937.88,-59.58 737.5,-31 726.69,-29.46 715.04,-27.26 704.4,-25.05"/>
<polygon fill="midnightblue" stroke="midnightblue" points="1218.87,-74.69 1229.32,-72.96 1220.08,-67.79 1218.87,-74.69"/>
</g>
<!-- Node37 -->
<g id="node37" class="node">
<title>Node37</title>
<g id="a_node37"><a xlink:href="alloc2malloc_8cpp.html" target="_top" xlink:title=" ">
<polygon fill="none" stroke="black" points="1353,-6 1353,-25 1506,-25 1506,-6 1353,-6"/>
<text text-anchor="middle" x="1429.5" y="-13" font-family="Helvetica,sans-Serif" font-size="10.00">thorin/pass/rw/alloc2malloc.cpp</text>
</a>
</g>
</g>
<!-- Node36&#45;&gt;Node37 -->
<g id="edge49" class="edge">
<title>Node36&#45;&gt;Node37</title>
<path fill="none" stroke="midnightblue" d="M1302.82,-68.95C1333.9,-56.08 1381.43,-36.4 1408.57,-25.17"/>
<polygon fill="midnightblue" stroke="midnightblue" points="1301.25,-65.81 1293.35,-72.87 1303.93,-72.28 1301.25,-65.81"/>
</g>
<!-- Node38&#45;&gt;Node24 -->
<g id="edge51" class="edge">
<title>Node38&#45;&gt;Node24</title>
<path fill="none" stroke="midnightblue" d="M1351.82,-67.1C1079.67,-29.09 1005.63,-66.43 737.5,-31 726.43,-29.54 714.49,-27.31 703.66,-25.04"/>
<polygon fill="midnightblue" stroke="midnightblue" points="1351.61,-70.6 1362,-68.54 1352.59,-63.67 1351.61,-70.6"/>
</g>
<!-- Node39 -->
<g id="node39" class="node">
<title>Node39</title>
<g id="a_node39"><a xlink:href="partial__eval_8cpp.html" target="_top" xlink:title=" ">
<polygon fill="none" stroke="black" points="1710,-0.5 1710,-30.5 1817,-30.5 1817,-0.5 1710,-0.5"/>
<text text-anchor="start" x="1718" y="-18.5" font-family="Helvetica,sans-Serif" font-size="10.00">thorin/pass/rw/partial</text>
<text text-anchor="middle" x="1763.5" y="-7.5" font-family="Helvetica,sans-Serif" font-size="10.00">_eval.cpp</text>
</a>
</g>
</g>
<!-- Node38&#45;&gt;Node39 -->
<g id="edge52" class="edge">
<title>Node38&#45;&gt;Node39</title>
<path fill="none" stroke="midnightblue" d="M1479.15,-66.72C1565.07,-49.29 1654.37,-34.13 1709.83,-25.07"/>
<polygon fill="midnightblue" stroke="midnightblue" points="1478.33,-63.31 1469.23,-68.74 1479.73,-70.17 1478.33,-63.31"/>
</g>
<!-- Node40&#45;&gt;Node24 -->
<g id="edge54" class="edge">
<title>Node40&#45;&gt;Node24</title>
<path fill="none" stroke="midnightblue" d="M121.38,-66.86C331.54,-36.19 389.22,-59.87 596.5,-31 607.47,-29.47 619.28,-27.28 630.07,-25.06"/>
<polygon fill="midnightblue" stroke="midnightblue" points="120.63,-63.43 111.26,-68.36 121.66,-70.35 120.63,-63.43"/>
</g>
<!-- Node41 -->
<g id="node41" class="node">
<title>Node41</title>
<g id="a_node41"><a xlink:href="remem__elim_8cpp.html" target="_top" xlink:title=" ">
<polygon fill="none" stroke="black" points="0,-0.5 0,-30.5 111,-30.5 111,-0.5 0,-0.5"/>
<text text-anchor="start" x="8" y="-18.5" font-family="Helvetica,sans-Serif" font-size="10.00">thorin/pass/rw/remem</text>
<text text-anchor="middle" x="55.5" y="-7.5" font-family="Helvetica,sans-Serif" font-size="10.00">_elim.cpp</text>
</a>
</g>
</g>
<!-- Node40&#45;&gt;Node41 -->
<g id="edge55" class="edge">
<title>Node40&#45;&gt;Node41</title>
<path fill="none" stroke="midnightblue" d="M55.5,-57.11C55.5,-48.15 55.5,-38.32 55.5,-30.58"/>
<polygon fill="midnightblue" stroke="midnightblue" points="52,-57.4 55.5,-67.4 59,-57.4 52,-57.4"/>
</g>
<!-- Node42&#45;&gt;Node24 -->
<g id="edge57" class="edge">
<title>Node42&#45;&gt;Node24</title>
<path fill="none" stroke="midnightblue" d="M660.6,-57.25C662.5,-46.02 664.64,-33.38 666.03,-25.19"/>
<polygon fill="midnightblue" stroke="midnightblue" points="657.1,-56.95 658.89,-67.4 664.01,-58.12 657.1,-56.95"/>
</g>
<!-- Node44&#45;&gt;Node24 -->
<g id="edge59" class="edge">
<title>Node44&#45;&gt;Node24</title>
<path fill="none" stroke="midnightblue" d="M956.05,-70.98C949.14,-69.62 942.15,-68.27 935.5,-67 847.63,-50.29 825.3,-48.07 737.5,-31 727.88,-29.13 717.53,-27.03 707.81,-25.03"/>
<polygon fill="midnightblue" stroke="midnightblue" points="955.57,-74.45 966.06,-72.95 956.93,-67.58 955.57,-74.45"/>
</g>
<!-- Node44&#45;&gt;Node30 -->
<g id="edge60" class="edge">
<title>Node44&#45;&gt;Node30</title>
<path fill="none" stroke="midnightblue" d="M1037.26,-68.78C1066.38,-55.91 1110.6,-36.35 1135.9,-25.17"/>
<polygon fill="midnightblue" stroke="midnightblue" points="1035.75,-65.62 1028.02,-72.87 1038.58,-72.03 1035.75,-65.62"/>
</g>
<!-- Node46&#45;&gt;Node7 -->
<g id="edge63" class="edge">
<title>Node46&#45;&gt;Node7</title>
<path fill="none" stroke="midnightblue" d="M1828.79,-136.44C1791.7,-123.54 1733.82,-103.42 1701.14,-92.06"/>
<polygon fill="midnightblue" stroke="midnightblue" points="1828.07,-139.89 1838.67,-139.87 1830.37,-133.28 1828.07,-139.89"/>
</g>
<!-- Node46&#45;&gt;Node12 -->
<g id="edge64" class="edge">
<title>Node46&#45;&gt;Node12</title>
<path fill="none" stroke="midnightblue" d="M1847,-132.5C1833.86,-119.75 1815.98,-102.39 1805.39,-92.13"/>
<polygon fill="midnightblue" stroke="midnightblue" points="1844.85,-135.28 1854.46,-139.73 1849.72,-130.26 1844.85,-135.28"/>
</g>
<!-- Node46&#45;&gt;Node21 -->
<g id="edge65" class="edge">
<title>Node46&#45;&gt;Node21</title>
<path fill="none" stroke="midnightblue" d="M1864.53,-129.71C1864.44,-110.65 1860.94,-81.9 1842.5,-67 1766.83,-5.83 1063.81,-44.87 967.5,-31 964.62,-30.59 961.68,-30.09 958.73,-29.53"/>
<polygon fill="midnightblue" stroke="midnightblue" points="1861.03,-129.79 1864.27,-139.87 1868.03,-129.97 1861.03,-129.79"/>
</g>
<!-- Node46&#45;&gt;Node30 -->
<g id="edge68" class="edge">
<title>Node46&#45;&gt;Node30</title>
<path fill="none" stroke="midnightblue" d="M1873.78,-130.71C1882.91,-112.32 1892.53,-83.95 1876.5,-67 1827.34,-15.01 1304.54,-39.56 1233.5,-31 1221.19,-29.52 1207.9,-27.29 1195.83,-25.01"/>
<polygon fill="midnightblue" stroke="midnightblue" points="1870.56,-129.3 1868.93,-139.77 1876.73,-132.61 1870.56,-129.3"/>
</g>
<!-- Node46&#45;&gt;Node35 -->
<g id="edge66" class="edge">
<title>Node46&#45;&gt;Node35</title>
<path fill="none" stroke="midnightblue" d="M1813.07,-139.34C1760.42,-129.64 1675.49,-113.59 1602.5,-98 1593.85,-96.15 1584.55,-94.04 1575.86,-92.02"/>
<polygon fill="midnightblue" stroke="midnightblue" points="1812.69,-142.83 1823.16,-141.19 1813.96,-135.94 1812.69,-142.83"/>
</g>
<!-- Node46&#45;&gt;Node39 -->
<g id="edge67" class="edge">
<title>Node46&#45;&gt;Node39</title>
<path fill="none" stroke="midnightblue" d="M1883.94,-133.73C1904.4,-117.12 1930.7,-89.5 1914.5,-67 1892.45,-36.38 1850.99,-24.06 1817.08,-19.22"/>
<polygon fill="midnightblue" stroke="midnightblue" points="1881.7,-131.04 1875.94,-139.94 1885.99,-136.58 1881.7,-131.04"/>
</g>
<!-- Node46&#45;&gt;Node45 -->
<g id="edge69" class="edge">
<title>Node46&#45;&gt;Node45</title>
<path fill="none" stroke="midnightblue" d="M1892.66,-135.78C1922.16,-122.91 1966.99,-103.35 1992.63,-92.17"/>
<polygon fill="midnightblue" stroke="midnightblue" points="1891.05,-132.66 1883.29,-139.87 1893.85,-139.08 1891.05,-132.66"/>
</g>
<!-- Node46&#45;&gt;Node47 -->
<g id="edge70" class="edge">
<title>Node46&#45;&gt;Node47</title>
<path fill="none" stroke="midnightblue" d="M1908.89,-137.6C1950.09,-127.6 2012.49,-112.25 2066.5,-98 2073.66,-96.11 2081.35,-94.01 2088.57,-92"/>
<polygon fill="midnightblue" stroke="midnightblue" points="1908.04,-134.2 1899.15,-139.95 1909.69,-141 1908.04,-134.2"/>
</g>
<!-- Node50 -->
<g id="node49" class="node">
<title>Node50</title>
<g id="a_node49"><a xlink:href="closure__conv_8cpp.html" target="_top" xlink:title=" ">
<polygon fill="none" stroke="black" points="2868,-67.5 2868,-97.5 2987,-97.5 2987,-67.5 2868,-67.5"/>
<text text-anchor="start" x="2876" y="-85.5" font-family="Helvetica,sans-Serif" font-size="10.00">thorin/transform/closure</text>
<text text-anchor="middle" x="2927.5" y="-74.5" font-family="Helvetica,sans-Serif" font-size="10.00">_conv.cpp</text>
</a>
</g>
</g>
<!-- Node49&#45;&gt;Node50 -->
<g id="edge73" class="edge">
<title>Node49&#45;&gt;Node50</title>
<path fill="none" stroke="midnightblue" d="M2927.5,-124.11C2927.5,-115.15 2927.5,-105.32 2927.5,-97.58"/>
<polygon fill="midnightblue" stroke="midnightblue" points="2924,-124.4 2927.5,-134.4 2931,-124.4 2924,-124.4"/>
</g>
</g>
</svg>
