<?xml version="1.0" encoding="UTF-8" standalone="no"?>
<!DOCTYPE svg PUBLIC "-//W3C//DTD SVG 1.1//EN"
 "http://www.w3.org/Graphics/SVG/1.1/DTD/svg11.dtd">
<!-- Generated by graphviz version 2.43.0 (0)
 -->
<!-- Title: include/thorin/fe/lexer.h Pages: 1 -->
<svg width="996pt" height="259pt"
 viewBox="0.00 0.00 995.61 259.05" xmlns="http://www.w3.org/2000/svg" xmlns:xlink="http://www.w3.org/1999/xlink">
<g id="graph0" class="graph" transform="scale(1 1) rotate(0) translate(4 255.05)">
<title>include/thorin/fe/lexer.h</title>
<!-- Node1 -->
<g id="Node000001" class="node">
<title>Node1</title>
<g id="a_Node000001"><a xlink:title=" ">
<polygon fill="#999999" stroke="#666666" points="499.11,-250 368.11,-250 368.11,-231 499.11,-231 499.11,-250"/>
<text text-anchor="middle" x="433.61" y="-238" font-family="Helvetica,sans-Serif" font-size="10.00">include/thorin/fe/lexer.h</text>
</a>
</g>
</g>
<!-- Node1&#45;&gt;Node1 -->
<g id="edge3_Node000001_Node000001" class="edge">
<title>Node1&#45;&gt;Node1</title>
<g id="a_edge3_Node000001_Node000001"><a xlink:title=" ">
<path fill="none" stroke="#63b8ff" d="M472.7,-250.03C495.64,-252.06 517.11,-248.88 517.11,-240.5 517.11,-233.36 501.54,-230 482.75,-230.41"/>
<polygon fill="#63b8ff" stroke="#63b8ff" points="482.49,-226.92 472.7,-230.97 482.88,-233.91 482.49,-226.92"/>
</a>
</g>
</g>
<!-- Node2 -->
<g id="Node000002" class="node">
<title>Node2</title>
<g id="a_Node000002"><a xlink:title=" ">
<polygon fill="#e0e0e0" stroke="#999999" points="372.61,-195 316.61,-195 316.61,-176 372.61,-176 372.61,-195"/>
<text text-anchor="middle" x="344.61" y="-183" font-family="Helvetica,sans-Serif" font-size="10.00">optional</text>
</a>
</g>
</g>
<!-- Node1&#45;&gt;Node2 -->
<g id="edge1_Node000001_Node000002" class="edge">
<title>Node1&#45;&gt;Node2</title>
<g id="a_edge1_Node000001_Node000002"><a xlink:title=" ">
<path fill="none" stroke="#63b8ff" d="M419.31,-230.98C405.51,-222.77 384.37,-210.18 368.1,-200.49"/>
<polygon fill="#63b8ff" stroke="#63b8ff" points="369.56,-197.28 359.17,-195.17 365.97,-203.29 369.56,-197.28"/>
</a>
</g>
</g>
<!-- Node3 -->
<g id="Node000003" class="node">
<title>Node3</title>
<g id="a_Node000003"><a xlink:title=" ">
<polygon fill="#e0e0e0" stroke="#999999" points="987.61,-85 883.61,-85 883.61,-55 987.61,-55 987.61,-85"/>
<text text-anchor="start" x="891.61" y="-73" font-family="Helvetica,sans-Serif" font-size="10.00">absl/container/flat</text>
<text text-anchor="middle" x="935.61" y="-62" font-family="Helvetica,sans-Serif" font-size="10.00">_hash_map.h</text>
</a>
</g>
</g>
<!-- Node1&#45;&gt;Node3 -->
<g id="edge2_Node000001_Node000003" class="edge">
<title>Node1&#45;&gt;Node3</title>
<g id="a_edge2_Node000001_Node000003"><a xlink:title=" ">
<path fill="none" stroke="#63b8ff" d="M459.2,-230.91C537.96,-204.48 777.84,-123.96 884.06,-88.3"/>
<polygon fill="#63b8ff" stroke="#63b8ff" points="885.24,-91.6 893.61,-85.1 883.02,-84.96 885.24,-91.6"/>
</a>
</g>
</g>
<!-- Node4 -->
<g id="Node000004" class="node">
<title>Node4</title>
<g id="a_Node000004"><a xlink:href="tok_8h.html" target="_top" xlink:title=" ">
<polygon fill="white" stroke="#666666" points="476.61,-195 390.61,-195 390.61,-176 476.61,-176 476.61,-195"/>
<text text-anchor="middle" x="433.61" y="-183" font-family="Helvetica,sans-Serif" font-size="10.00">thorin/fe/tok.h</text>
</a>
</g>
</g>
<!-- Node1&#45;&gt;Node4 -->
<g id="edge4_Node000001_Node000004" class="edge">
<title>Node1&#45;&gt;Node4</title>
<g id="a_edge4_Node000001_Node000004"><a xlink:title=" ">
<path fill="none" stroke="#63b8ff" d="M433.61,-230.75C433.61,-223.8 433.61,-213.85 433.61,-205.13"/>
<polygon fill="#63b8ff" stroke="#63b8ff" points="437.11,-205.09 433.61,-195.09 430.11,-205.09 437.11,-205.09"/>
</a>
</g>
</g>
<!-- Node5 -->
<g id="Node000005" class="node">
<title>Node5</title>
<g id="a_Node000005"><a xlink:title=" ">
<polygon fill="#e0e0e0" stroke="#999999" points="174.61,-19 106.61,-19 106.61,0 174.61,0 174.61,-19"/>
<text text-anchor="middle" x="140.61" y="-7" font-family="Helvetica,sans-Serif" font-size="10.00">fe/assert.h</text>
</a>
</g>
</g>
<!-- Node4&#45;&gt;Node5 -->
<g id="edge5_Node000004_Node000005" class="edge">
<title>Node4&#45;&gt;Node5</title>
<g id="a_edge5_Node000004_Node000005"><a xlink:title=" ">
<path fill="none" stroke="#63b8ff" d="M390.32,-176.84C332.59,-166.54 233.51,-148.53 197.61,-140 111.67,-119.57 59.74,-155.58 6.61,-85 -20.66,-48.77 47.73,-27.76 96.52,-17.77"/>
<polygon fill="#63b8ff" stroke="#63b8ff" points="97.45,-21.15 106.59,-15.8 96.11,-14.28 97.45,-21.15"/>
</a>
</g>
</g>
<!-- Node6 -->
<g id="Node000006" class="node">
<title>Node6</title>
<g id="a_Node000006"><a xlink:href="dbg_8h.html" target="_top" xlink:title=" ">
<polygon fill="white" stroke="#666666" points="655.61,-140 561.61,-140 561.61,-121 655.61,-121 655.61,-140"/>
<text text-anchor="middle" x="608.61" y="-128" font-family="Helvetica,sans-Serif" font-size="10.00">thorin/util/dbg.h</text>
</a>
</g>
</g>
<!-- Node4&#45;&gt;Node6 -->
<g id="edge6_Node000004_Node000006" class="edge">
<title>Node4&#45;&gt;Node6</title>
<g id="a_edge6_Node000004_Node000006"><a xlink:title=" ">
<path fill="none" stroke="#63b8ff" d="M461.73,-175.98C491.24,-167.05 537.81,-152.94 570.58,-143.02"/>
<polygon fill="#63b8ff" stroke="#63b8ff" points="571.72,-146.33 580.28,-140.08 569.69,-139.63 571.72,-146.33"/>
</a>
</g>
</g>
<!-- Node18 -->
<g id="Node000018" class="node">
<title>Node18</title>
<g id="a_Node000018"><a xlink:href="types_8h.html" target="_top" xlink:title=" ">
<polygon fill="white" stroke="#666666" points="310.11,-140 207.11,-140 207.11,-121 310.11,-121 310.11,-140"/>
<text text-anchor="middle" x="258.61" y="-128" font-family="Helvetica,sans-Serif" font-size="10.00">thorin/util/types.h</text>
</a>
</g>
</g>
<!-- Node4&#45;&gt;Node18 -->
<g id="edge20_Node000004_Node000018" class="edge">
<title>Node4&#45;&gt;Node18</title>
<g id="a_edge20_Node000004_Node000018"><a xlink:title=" ">
<path fill="none" stroke="#63b8ff" d="M405.5,-175.98C375.99,-167.05 329.42,-152.94 296.65,-143.02"/>
<polygon fill="#63b8ff" stroke="#63b8ff" points="297.54,-139.63 286.95,-140.08 295.51,-146.33 297.54,-139.63"/>
</a>
</g>
</g>
<!-- Node6&#45;&gt;Node3 -->
<g id="edge8_Node000006_Node000003" class="edge">
<title>Node6&#45;&gt;Node3</title>
<g id="a_edge8_Node000006_Node000003"><a xlink:title=" ">
<path fill="none" stroke="#63b8ff" d="M655.86,-122.47C707.08,-114.65 791.46,-101.21 873.43,-85.17"/>
<polygon fill="#63b8ff" stroke="#63b8ff" points="874.28,-88.57 883.41,-83.2 872.93,-81.7 874.28,-88.57"/>
</a>
</g>
</g>
<!-- Node7 -->
<g id="Node000007" class="node">
<title>Node7</title>
<g id="a_Node000007"><a xlink:title=" ">
<polygon fill="#e0e0e0" stroke="#999999" points="743.61,-79.5 675.61,-79.5 675.61,-60.5 743.61,-60.5 743.61,-79.5"/>
<text text-anchor="middle" x="709.61" y="-67.5" font-family="Helvetica,sans-Serif" font-size="10.00">filesystem</text>
</a>
</g>
</g>
<!-- Node6&#45;&gt;Node7 -->
<g id="edge7_Node000006_Node000007" class="edge">
<title>Node6&#45;&gt;Node7</title>
<g id="a_edge7_Node000006_Node000007"><a xlink:title=" ">
<path fill="none" stroke="#63b8ff" d="M623.52,-120.87C639.93,-111.36 666.54,-95.95 685.84,-84.77"/>
<polygon fill="#63b8ff" stroke="#63b8ff" points="687.75,-87.71 694.65,-79.67 684.24,-81.65 687.75,-87.71"/>
</a>
</g>
</g>
<!-- Node8 -->
<g id="Node000008" class="node">
<title>Node8</title>
<g id="a_Node000008"><a xlink:title=" ">
<polygon fill="#e0e0e0" stroke="#999999" points="865.61,-85 761.61,-85 761.61,-55 865.61,-55 865.61,-85"/>
<text text-anchor="start" x="769.61" y="-73" font-family="Helvetica,sans-Serif" font-size="10.00">absl/container/flat</text>
<text text-anchor="middle" x="813.61" y="-62" font-family="Helvetica,sans-Serif" font-size="10.00">_hash_set.h</text>
</a>
</g>
</g>
<!-- Node6&#45;&gt;Node8 -->
<g id="edge9_Node000006_Node000008" class="edge">
<title>Node6&#45;&gt;Node8</title>
<g id="a_edge9_Node000006_Node000008"><a xlink:title=" ">
<path fill="none" stroke="#63b8ff" d="M638.42,-120.99C668.7,-112.35 716.41,-98.74 754.4,-87.9"/>
<polygon fill="#63b8ff" stroke="#63b8ff" points="755.67,-91.17 764.33,-85.06 753.75,-84.44 755.67,-91.17"/>
</a>
</g>
</g>
<!-- Node9 -->
<g id="Node000009" class="node">
<title>Node9</title>
<g id="a_Node000009"><a xlink:title=" ">
<polygon fill="#e0e0e0" stroke="#999999" points="464.11,-79.5 411.11,-79.5 411.11,-60.5 464.11,-60.5 464.11,-79.5"/>
<text text-anchor="middle" x="437.61" y="-67.5" font-family="Helvetica,sans-Serif" font-size="10.00">fe/loc.h</text>
</a>
</g>
</g>
<!-- Node6&#45;&gt;Node9 -->
<g id="edge10_Node000006_Node000009" class="edge">
<title>Node6&#45;&gt;Node9</title>
<g id="a_edge10_Node000006_Node000009"><a xlink:title=" ">
<path fill="none" stroke="#63b8ff" d="M581.32,-120.97C553.95,-112.3 510.66,-98.3 473.61,-85 472.01,-84.42 470.37,-83.82 468.71,-83.21"/>
<polygon fill="#63b8ff" stroke="#63b8ff" points="469.84,-79.89 459.25,-79.62 467.36,-86.44 469.84,-79.89"/>
</a>
</g>
</g>
<!-- Node10 -->
<g id="Node000010" class="node">
<title>Node10</title>
<g id="a_Node000010"><a xlink:title=" ">
<polygon fill="#e0e0e0" stroke="#999999" points="541.11,-79.5 482.11,-79.5 482.11,-60.5 541.11,-60.5 541.11,-79.5"/>
<text text-anchor="middle" x="511.61" y="-67.5" font-family="Helvetica,sans-Serif" font-size="10.00">fe/sym.h</text>
</a>
</g>
</g>
<!-- Node6&#45;&gt;Node10 -->
<g id="edge11_Node000006_Node000010" class="edge">
<title>Node6&#45;&gt;Node10</title>
<g id="a_edge11_Node000006_Node000010"><a xlink:title=" ">
<path fill="none" stroke="#63b8ff" d="M594.3,-120.87C578.61,-111.41 553.21,-96.09 534.7,-84.92"/>
<polygon fill="#63b8ff" stroke="#63b8ff" points="536.36,-81.83 525.98,-79.67 532.74,-87.83 536.36,-81.83"/>
</a>
</g>
</g>
<!-- Node11 -->
<g id="Node000011" class="node">
<title>Node11</title>
<g id="a_Node000011"><a xlink:href="print_8h.html" target="_top" xlink:title=" ">
<polygon fill="white" stroke="#666666" points="657.61,-79.5 559.61,-79.5 559.61,-60.5 657.61,-60.5 657.61,-79.5"/>
<text text-anchor="middle" x="608.61" y="-67.5" font-family="Helvetica,sans-Serif" font-size="10.00">thorin/util/print.h</text>
</a>
</g>
</g>
<!-- Node6&#45;&gt;Node11 -->
<g id="edge12_Node000006_Node000011" class="edge">
<title>Node6&#45;&gt;Node11</title>
<g id="a_edge12_Node000006_Node000011"><a xlink:title=" ">
<path fill="none" stroke="#63b8ff" d="M608.61,-120.87C608.61,-112.75 608.61,-100.31 608.61,-89.89"/>
<polygon fill="#63b8ff" stroke="#63b8ff" points="612.11,-89.67 608.61,-79.67 605.11,-89.67 612.11,-89.67"/>
</a>
</g>
</g>
<!-- Node11&#45;&gt;Node5 -->
<g id="edge19_Node000011_Node000005" class="edge">
<title>Node11&#45;&gt;Node5</title>
<g id="a_edge19_Node000011_Node000005"><a xlink:title=" ">
<path fill="none" stroke="#63b8ff" d="M576.55,-60.48C568.16,-58.47 559.08,-56.48 550.61,-55 418.57,-32 260.41,-18.84 184.93,-13.43"/>
<polygon fill="#63b8ff" stroke="#63b8ff" points="185.06,-9.93 174.84,-12.72 184.57,-16.91 185.06,-9.93"/>
</a>
</g>
</g>
<!-- Node12 -->
<g id="Node000012" class="node">
<title>Node12</title>
<g id="a_Node000012"><a xlink:title=" ">
<polygon fill="#e0e0e0" stroke="#999999" points="487.11,-19 422.11,-19 422.11,0 487.11,0 487.11,-19"/>
<text text-anchor="middle" x="454.61" y="-7" font-family="Helvetica,sans-Serif" font-size="10.00">functional</text>
</a>
</g>
</g>
<!-- Node11&#45;&gt;Node12 -->
<g id="edge13_Node000011_Node000012" class="edge">
<title>Node11&#45;&gt;Node12</title>
<g id="a_edge13_Node000011_Node000012"><a xlink:title=" ">
<path fill="none" stroke="#63b8ff" d="M586.22,-60.49C559.99,-50.53 516.34,-33.95 486.56,-22.63"/>
<polygon fill="#63b8ff" stroke="#63b8ff" points="487.62,-19.3 477.03,-19.02 485.14,-25.84 487.62,-19.3"/>
</a>
</g>
</g>
<!-- Node13 -->
<g id="Node000013" class="node">
<title>Node13</title>
<g id="a_Node000013"><a xlink:title=" ">
<polygon fill="#e0e0e0" stroke="#999999" points="565.61,-19 505.61,-19 505.61,0 565.61,0 565.61,-19"/>
<text text-anchor="middle" x="535.61" y="-7" font-family="Helvetica,sans-Serif" font-size="10.00">iostream</text>
</a>
</g>
</g>
<!-- Node11&#45;&gt;Node13 -->
<g id="edge14_Node000011_Node000013" class="edge">
<title>Node11&#45;&gt;Node13</title>
<g id="a_edge14_Node000011_Node000013"><a xlink:title=" ">
<path fill="none" stroke="#63b8ff" d="M597.84,-60.37C586.41,-51.21 568.13,-36.56 554.34,-25.51"/>
<polygon fill="#63b8ff" stroke="#63b8ff" points="556.42,-22.69 546.43,-19.17 552.04,-28.15 556.42,-22.69"/>
</a>
</g>
</g>
<!-- Node14 -->
<g id="Node000014" class="node">
<title>Node14</title>
<g id="a_Node000014"><a xlink:title=" ">
<polygon fill="#e0e0e0" stroke="#999999" points="373.11,-19 316.11,-19 316.11,0 373.11,0 373.11,-19"/>
<text text-anchor="middle" x="344.61" y="-7" font-family="Helvetica,sans-Serif" font-size="10.00">ostream</text>
</a>
</g>
</g>
<!-- Node11&#45;&gt;Node14 -->
<g id="edge15_Node000011_Node000014" class="edge">
<title>Node11&#45;&gt;Node14</title>
<g id="a_edge15_Node000011_Node000014"><a xlink:title=" ">
<path fill="none" stroke="#63b8ff" d="M573.99,-60.5C566.3,-58.65 558.19,-56.73 550.61,-55 492.41,-41.69 424.71,-27.27 383.27,-18.56"/>
<polygon fill="#63b8ff" stroke="#63b8ff" points="383.83,-15.1 373.32,-16.47 382.39,-21.95 383.83,-15.1"/>
</a>
</g>
</g>
<!-- Node15 -->
<g id="Node000015" class="node">
<title>Node15</title>
<g id="a_Node000015"><a xlink:title=" ">
<polygon fill="#e0e0e0" stroke="#999999" points="633.61,-19 583.61,-19 583.61,0 633.61,0 633.61,-19"/>
<text text-anchor="middle" x="608.61" y="-7" font-family="Helvetica,sans-Serif" font-size="10.00">ranges</text>
</a>
</g>
</g>
<!-- Node11&#45;&gt;Node15 -->
<g id="edge16_Node000011_Node000015" class="edge">
<title>Node11&#45;&gt;Node15</title>
<g id="a_edge16_Node000011_Node000015"><a xlink:title=" ">
<path fill="none" stroke="#63b8ff" d="M608.61,-60.37C608.61,-52.25 608.61,-39.81 608.61,-29.39"/>
<polygon fill="#63b8ff" stroke="#63b8ff" points="612.11,-29.17 608.61,-19.17 605.11,-29.17 612.11,-29.17"/>
</a>
</g>
</g>
<!-- Node16 -->
<g id="Node000016" class="node">
<title>Node16</title>
<g id="a_Node000016"><a xlink:title=" ">
<polygon fill="#e0e0e0" stroke="#999999" points="707.61,-19 651.61,-19 651.61,0 707.61,0 707.61,-19"/>
<text text-anchor="middle" x="679.61" y="-7" font-family="Helvetica,sans-Serif" font-size="10.00">sstream</text>
</a>
</g>
</g>
<!-- Node11&#45;&gt;Node16 -->
<g id="edge17_Node000011_Node000016" class="edge">
<title>Node11&#45;&gt;Node16</title>
<g id="a_edge17_Node000011_Node000016"><a xlink:title=" ">
<path fill="none" stroke="#63b8ff" d="M619.09,-60.37C630.1,-51.3 647.65,-36.84 661.02,-25.82"/>
<polygon fill="#63b8ff" stroke="#63b8ff" points="663.6,-28.23 669.09,-19.17 659.15,-22.83 663.6,-28.23"/>
</a>
</g>
</g>
<!-- Node17 -->
<g id="Node000017" class="node">
<title>Node17</title>
<g id="a_Node000017"><a xlink:title=" ">
<polygon fill="#e0e0e0" stroke="#999999" points="769.61,-19 725.61,-19 725.61,0 769.61,0 769.61,-19"/>
<text text-anchor="middle" x="747.61" y="-7" font-family="Helvetica,sans-Serif" font-size="10.00">string</text>
</a>
</g>
</g>
<!-- Node11&#45;&gt;Node17 -->
<g id="edge18_Node000011_Node000017" class="edge">
<title>Node11&#45;&gt;Node17</title>
<g id="a_edge18_Node000011_Node000017"><a xlink:title=" ">
<path fill="none" stroke="#63b8ff" d="M628.83,-60.49C652.3,-50.62 691.22,-34.23 718.08,-22.93"/>
<polygon fill="#63b8ff" stroke="#63b8ff" points="719.52,-26.12 727.38,-19.02 716.8,-19.67 719.52,-26.12"/>
</a>
</g>
</g>
<!-- Node18&#45;&gt;Node14 -->
<g id="edge23_Node000018_Node000014" class="edge">
<title>Node18&#45;&gt;Node14</title>
<g id="a_edge23_Node000018_Node000014"><a xlink:title=" ">
<path fill="none" stroke="#63b8ff" d="M266.28,-120.87C273.98,-112.07 286.04,-97.92 295.61,-85 309.52,-66.23 324.07,-43.69 333.66,-28.36"/>
<polygon fill="#63b8ff" stroke="#63b8ff" points="336.9,-29.78 339.19,-19.43 330.95,-26.09 336.9,-29.78"/>
</a>
</g>
</g>
<!-- Node19 -->
<g id="Node000019" class="node">
<title>Node19</title>
<g id="a_Node000019"><a xlink:title=" ">
<polygon fill="#e0e0e0" stroke="#999999" points="392.61,-79.5 342.61,-79.5 342.61,-60.5 392.61,-60.5 392.61,-79.5"/>
<text text-anchor="middle" x="367.61" y="-67.5" font-family="Helvetica,sans-Serif" font-size="10.00">cstdint</text>
</a>
</g>
</g>
<!-- Node18&#45;&gt;Node19 -->
<g id="edge21_Node000018_Node000019" class="edge">
<title>Node18&#45;&gt;Node19</title>
<g id="a_edge21_Node000018_Node000019"><a xlink:title=" ">
<path fill="none" stroke="#63b8ff" d="M274.7,-120.87C292.57,-111.28 321.65,-95.67 342.52,-84.47"/>
<polygon fill="#63b8ff" stroke="#63b8ff" points="344.31,-87.48 351.46,-79.67 341,-81.31 344.31,-87.48"/>
</a>
</g>
</g>
<!-- Node20 -->
<g id="Node000020" class="node">
<title>Node20</title>
<g id="a_Node000020"><a xlink:title=" ">
<polygon fill="#e0e0e0" stroke="#999999" points="59.61,-79.5 15.61,-79.5 15.61,-60.5 59.61,-60.5 59.61,-79.5"/>
<text text-anchor="middle" x="37.61" y="-67.5" font-family="Helvetica,sans-Serif" font-size="10.00">limits</text>
</a>
</g>
</g>
<!-- Node18&#45;&gt;Node20 -->
<g id="edge22_Node000018_Node000020" class="edge">
<title>Node18&#45;&gt;Node20</title>
<g id="a_edge22_Node000018_Node000020"><a xlink:title=" ">
<path fill="none" stroke="#63b8ff" d="M210.66,-120.95C171.8,-113.38 115.93,-101.06 68.61,-85 67.22,-84.53 65.79,-84.01 64.37,-83.47"/>
<polygon fill="#63b8ff" stroke="#63b8ff" points="65.66,-80.21 55.08,-79.6 62.97,-86.67 65.66,-80.21"/>
</a>
</g>
</g>
<!-- Node21 -->
<g id="Node000021" class="node">
<title>Node21</title>
<g id="a_Node000021"><a xlink:title=" ">
<polygon fill="#e0e0e0" stroke="#999999" points="147.11,-79.5 78.11,-79.5 78.11,-60.5 147.11,-60.5 147.11,-79.5"/>
<text text-anchor="middle" x="112.61" y="-67.5" font-family="Helvetica,sans-Serif" font-size="10.00">type_traits</text>
</a>
</g>
</g>
<!-- Node18&#45;&gt;Node21 -->
<g id="edge24_Node000018_Node000021" class="edge">
<title>Node18&#45;&gt;Node21</title>
<g id="a_edge24_Node000018_Node000021"><a xlink:title=" ">
<path fill="none" stroke="#63b8ff" d="M237.38,-120.99C212.62,-111.07 171.49,-94.59 143.27,-83.28"/>
<polygon fill="#63b8ff" stroke="#63b8ff" points="144.45,-79.99 133.87,-79.52 141.85,-86.49 144.45,-79.99"/>
</a>
</g>
</g>
<!-- Node22 -->
<g id="Node000022" class="node">
<title>Node22</title>
<g id="a_Node000022"><a xlink:title=" ">
<polygon fill="#e0e0e0" stroke="#999999" points="212.11,-79.5 165.11,-79.5 165.11,-60.5 212.11,-60.5 212.11,-79.5"/>
<text text-anchor="middle" x="188.61" y="-67.5" font-family="Helvetica,sans-Serif" font-size="10.00">cmath</text>
</a>
</g>
</g>
<!-- Node18&#45;&gt;Node22 -->
<g id="edge25_Node000018_Node000022" class="edge">
<title>Node18&#45;&gt;Node22</title>
<g id="a_edge25_Node000018_Node000022"><a xlink:title=" ">
<path fill="none" stroke="#63b8ff" d="M248.28,-120.87C237.43,-111.8 220.13,-97.34 206.94,-86.32"/>
<polygon fill="#63b8ff" stroke="#63b8ff" points="208.9,-83.39 198.98,-79.67 204.41,-88.77 208.9,-83.39"/>
</a>
</g>
</g>
<!-- Node23 -->
<g id="Node000023" class="node">
<title>Node23</title>
<g id="a_Node000023"><a xlink:title=" ">
<polygon fill="#e0e0e0" stroke="#999999" points="286.61,-79.5 230.61,-79.5 230.61,-60.5 286.61,-60.5 286.61,-79.5"/>
<text text-anchor="middle" x="258.61" y="-67.5" font-family="Helvetica,sans-Serif" font-size="10.00">half.hpp</text>
</a>
</g>
</g>
<!-- Node18&#45;&gt;Node23 -->
<g id="edge26_Node000018_Node000023" class="edge">
<title>Node18&#45;&gt;Node23</title>
<g id="a_edge26_Node000018_Node000023"><a xlink:title=" ">
<path fill="none" stroke="#63b8ff" d="M258.61,-120.87C258.61,-112.75 258.61,-100.31 258.61,-89.89"/>
<polygon fill="#63b8ff" stroke="#63b8ff" points="262.11,-89.67 258.61,-79.67 255.11,-89.67 262.11,-89.67"/>
</a>
</g>
</g>
</g>
</svg>
