<?xml version="1.0" encoding="UTF-8" standalone="no"?>
<!DOCTYPE svg PUBLIC "-//W3C//DTD SVG 1.1//EN"
 "http://www.w3.org/Graphics/SVG/1.1/DTD/svg11.dtd">
<!-- Generated by graphviz version 2.43.0 (0)
 -->
<!-- Title: thorin/fe/lexer.cpp Pages: 1 -->
<svg width="1639pt" height="489pt"
 viewBox="0.00 0.00 1639.00 489.00" xmlns="http://www.w3.org/2000/svg" xmlns:xlink="http://www.w3.org/1999/xlink">
<g id="graph0" class="graph" transform="scale(1 1) rotate(0) translate(4 485)">
<title>thorin/fe/lexer.cpp</title>
<!-- Node1 -->
<g id="node1" class="node">
<title>Node1</title>
<g id="a_node1"><a xlink:title=" ">
<polygon fill="#999999" stroke="#666666" points="580,-481 476,-481 476,-462 580,-462 580,-481"/>
<text text-anchor="middle" x="528" y="-469" font-family="Helvetica,sans-Serif" font-size="10.00">thorin/fe/lexer.cpp</text>
</a>
</g>
</g>
<!-- Node2 -->
<g id="node2" class="node">
<title>Node2</title>
<g id="a_node2"><a xlink:href="lexer_8h.html" target="_top" xlink:title=" ">
<polygon fill="white" stroke="#666666" points="301.5,-305 208.5,-305 208.5,-286 301.5,-286 301.5,-305"/>
<text text-anchor="middle" x="255" y="-293" font-family="Helvetica,sans-Serif" font-size="10.00">thorin/fe/lexer.h</text>
</a>
</g>
</g>
<!-- Node1&#45;&gt;Node2 -->
<g id="edge1" class="edge">
<title>Node1&#45;&gt;Node2</title>
<path fill="none" stroke="#63b8ff" d="M500.43,-462C457.81,-447.92 374.7,-416.72 316,-371 295.27,-354.86 277.01,-330.46 265.99,-314.02"/>
<polygon fill="#63b8ff" stroke="#63b8ff" points="268.76,-311.87 260.38,-305.39 262.89,-315.68 268.76,-311.87"/>
</g>
<!-- Node28 -->
<g id="node28" class="node">
<title>Node28</title>
<g id="a_node28"><a xlink:href="world_8h.html" target="_top" xlink:title=" ">
<polygon fill="white" stroke="#666666" points="842,-426 758,-426 758,-407 842,-407 842,-426"/>
<text text-anchor="middle" x="800" y="-414" font-family="Helvetica,sans-Serif" font-size="10.00">thorin/world.h</text>
</a>
</g>
</g>
<!-- Node1&#45;&gt;Node28 -->
<g id="edge37" class="edge">
<title>Node1&#45;&gt;Node28</title>
<path fill="none" stroke="#63b8ff" d="M571.7,-461.98C619.71,-452.63 696.77,-437.61 747.89,-427.65"/>
<polygon fill="#63b8ff" stroke="#63b8ff" points="748.6,-431.08 757.75,-425.73 747.26,-424.21 748.6,-431.08"/>
</g>
<!-- Node3 -->
<g id="node3" class="node">
<title>Node3</title>
<g id="a_node3"><a xlink:title=" ">
<polygon fill="#e0e0e0" stroke="#999999" points="462,-85 358,-85 358,-55 462,-55 462,-85"/>
<text text-anchor="start" x="366" y="-73" font-family="Helvetica,sans-Serif" font-size="10.00">absl/container/flat</text>
<text text-anchor="middle" x="410" y="-62" font-family="Helvetica,sans-Serif" font-size="10.00">_hash_map.h</text>
</a>
</g>
</g>
<!-- Node2&#45;&gt;Node3 -->
<g id="edge2" class="edge">
<title>Node2&#45;&gt;Node3</title>
<path fill="none" stroke="#63b8ff" d="M258.17,-285.76C268.22,-258.88 301.53,-175.97 349,-121 358.41,-110.1 370.39,-99.71 381.23,-91.26"/>
<polygon fill="#63b8ff" stroke="#63b8ff" points="383.38,-94.03 389.24,-85.2 379.16,-88.44 383.38,-94.03"/>
</g>
<!-- Node4 -->
<g id="node4" class="node">
<title>Node4</title>
<g id="a_node4"><a xlink:href="tok_8h.html" target="_top" xlink:title=" ">
<polygon fill="white" stroke="#666666" points="682,-250 596,-250 596,-231 682,-231 682,-250"/>
<text text-anchor="middle" x="639" y="-238" font-family="Helvetica,sans-Serif" font-size="10.00">thorin/fe/tok.h</text>
</a>
</g>
</g>
<!-- Node2&#45;&gt;Node4 -->
<g id="edge3" class="edge">
<title>Node2&#45;&gt;Node4</title>
<path fill="none" stroke="#63b8ff" d="M301.7,-288.05C373.38,-278.16 510.14,-259.29 585.63,-248.87"/>
<polygon fill="#63b8ff" stroke="#63b8ff" points="586.44,-252.29 595.86,-247.45 585.48,-245.35 586.44,-252.29"/>
</g>
<!-- Node24 -->
<g id="node24" class="node">
<title>Node24</title>
<g id="a_node24"><a xlink:href="utf8_8h.html" target="_top" xlink:title=" ">
<polygon fill="white" stroke="#666666" points="207.5,-250 112.5,-250 112.5,-231 207.5,-231 207.5,-250"/>
<text text-anchor="middle" x="160" y="-238" font-family="Helvetica,sans-Serif" font-size="10.00">thorin/util/utf8.h</text>
</a>
</g>
</g>
<!-- Node2&#45;&gt;Node24 -->
<g id="edge31" class="edge">
<title>Node2&#45;&gt;Node24</title>
<path fill="none" stroke="#63b8ff" d="M239.74,-285.98C224.87,-277.69 202.02,-264.94 184.58,-255.22"/>
<polygon fill="#63b8ff" stroke="#63b8ff" points="185.98,-251.99 175.54,-250.17 182.57,-258.1 185.98,-251.99"/>
</g>
<!-- Node5 -->
<g id="node5" class="node">
<title>Node5</title>
<g id="a_node5"><a xlink:href="assert_8h.html" target="_top" xlink:title=" ">
<polygon fill="white" stroke="#666666" points="1092,-79.5 986,-79.5 986,-60.5 1092,-60.5 1092,-79.5"/>
<text text-anchor="middle" x="1039" y="-67.5" font-family="Helvetica,sans-Serif" font-size="10.00">thorin/util/assert.h</text>
</a>
</g>
</g>
<!-- Node4&#45;&gt;Node5 -->
<g id="edge4" class="edge">
<title>Node4&#45;&gt;Node5</title>
<path fill="none" stroke="#63b8ff" d="M682.24,-237.72C754.64,-232.68 901.9,-213.44 998,-140 1014.91,-127.08 1026.24,-105.01 1032.62,-89.31"/>
<polygon fill="#63b8ff" stroke="#63b8ff" points="1036.01,-90.24 1036.26,-79.65 1029.46,-87.78 1036.01,-90.24"/>
</g>
<!-- Node7 -->
<g id="node7" class="node">
<title>Node7</title>
<g id="a_node7"><a xlink:href="loc_8h.html" target="_top" xlink:title=" ">
<polygon fill="white" stroke="#666666" points="684,-195 594,-195 594,-176 684,-176 684,-195"/>
<text text-anchor="middle" x="639" y="-183" font-family="Helvetica,sans-Serif" font-size="10.00">thorin/util/loc.h</text>
</a>
</g>
</g>
<!-- Node4&#45;&gt;Node7 -->
<g id="edge6" class="edge">
<title>Node4&#45;&gt;Node7</title>
<path fill="none" stroke="#63b8ff" d="M639,-230.75C639,-223.8 639,-213.85 639,-205.13"/>
<polygon fill="#63b8ff" stroke="#63b8ff" points="642.5,-205.09 639,-195.09 635.5,-205.09 642.5,-205.09"/>
</g>
<!-- Node16 -->
<g id="node16" class="node">
<title>Node16</title>
<g id="a_node16"><a xlink:href="sym_8h.html" target="_top" xlink:title=" ">
<polygon fill="white" stroke="#666666" points="763.5,-140 666.5,-140 666.5,-121 763.5,-121 763.5,-140"/>
<text text-anchor="middle" x="715" y="-128" font-family="Helvetica,sans-Serif" font-size="10.00">thorin/util/sym.h</text>
</a>
</g>
</g>
<!-- Node4&#45;&gt;Node16 -->
<g id="edge23" class="edge">
<title>Node4&#45;&gt;Node16</title>
<path fill="none" stroke="#63b8ff" d="M653.28,-230.94C665.4,-223.01 682.46,-210.16 693,-195 702.37,-181.53 708.08,-163.7 711.33,-150.36"/>
<polygon fill="#63b8ff" stroke="#63b8ff" points="714.79,-150.92 713.5,-140.41 707.95,-149.43 714.79,-150.92"/>
</g>
<!-- Node18 -->
<g id="node18" class="node">
<title>Node18</title>
<g id="a_node18"><a xlink:href="types_8h.html" target="_top" xlink:title=" ">
<polygon fill="white" stroke="#666666" points="301.5,-79.5 198.5,-79.5 198.5,-60.5 301.5,-60.5 301.5,-79.5"/>
<text text-anchor="middle" x="250" y="-67.5" font-family="Helvetica,sans-Serif" font-size="10.00">thorin/util/types.h</text>
</a>
</g>
</g>
<!-- Node4&#45;&gt;Node18 -->
<g id="edge24" class="edge">
<title>Node4&#45;&gt;Node18</title>
<path fill="none" stroke="#63b8ff" d="M595.8,-235.85C551.22,-230.89 480.42,-219.63 424,-195 359.95,-167.04 295.93,-113.07 266.59,-86.52"/>
<polygon fill="#63b8ff" stroke="#63b8ff" points="268.68,-83.69 258.95,-79.51 263.95,-88.85 268.68,-83.69"/>
</g>
<!-- Node6 -->
<g id="node6" class="node">
<title>Node6</title>
<g id="a_node6"><a xlink:title=" ">
<polygon fill="#e0e0e0" stroke="#999999" points="1402,-19 1350,-19 1350,0 1402,0 1402,-19"/>
<text text-anchor="middle" x="1376" y="-7" font-family="Helvetica,sans-Serif" font-size="10.00">cassert</text>
</a>
</g>
</g>
<!-- Node5&#45;&gt;Node6 -->
<g id="edge5" class="edge">
<title>Node5&#45;&gt;Node6</title>
<path fill="none" stroke="#63b8ff" d="M1075.57,-60.5C1084.22,-58.59 1093.42,-56.65 1102,-55 1186.79,-38.71 1287.1,-23.42 1339.68,-15.72"/>
<polygon fill="#63b8ff" stroke="#63b8ff" points="1340.45,-19.14 1349.84,-14.23 1339.44,-12.21 1340.45,-19.14"/>
</g>
<!-- Node7&#45;&gt;Node3 -->
<g id="edge7" class="edge">
<title>Node7&#45;&gt;Node3</title>
<path fill="none" stroke="#63b8ff" d="M621.79,-175.97C585.05,-157.76 498.19,-114.71 447.87,-89.77"/>
<polygon fill="#63b8ff" stroke="#63b8ff" points="449.13,-86.49 438.61,-85.18 446.02,-92.76 449.13,-86.49"/>
</g>
<!-- Node8 -->
<g id="node8" class="node">
<title>Node8</title>
<g id="a_node8"><a xlink:title=" ">
<polygon fill="#e0e0e0" stroke="#999999" points="584,-85 480,-85 480,-55 584,-55 584,-85"/>
<text text-anchor="start" x="488" y="-73" font-family="Helvetica,sans-Serif" font-size="10.00">absl/container/flat</text>
<text text-anchor="middle" x="532" y="-62" font-family="Helvetica,sans-Serif" font-size="10.00">_hash_set.h</text>
</a>
</g>
</g>
<!-- Node7&#45;&gt;Node8 -->
<g id="edge8" class="edge">
<title>Node7&#45;&gt;Node8</title>
<path fill="none" stroke="#63b8ff" d="M630.96,-175.97C614.4,-158.4 576.05,-117.72 552.25,-92.48"/>
<polygon fill="#63b8ff" stroke="#63b8ff" points="554.78,-90.06 545.37,-85.18 549.68,-94.86 554.78,-90.06"/>
</g>
<!-- Node9 -->
<g id="node9" class="node">
<title>Node9</title>
<g id="a_node9"><a xlink:href="print_8h.html" target="_top" xlink:title=" ">
<polygon fill="white" stroke="#666666" points="989,-140 891,-140 891,-121 989,-121 989,-140"/>
<text text-anchor="middle" x="940" y="-128" font-family="Helvetica,sans-Serif" font-size="10.00">thorin/util/print.h</text>
</a>
</g>
</g>
<!-- Node7&#45;&gt;Node9 -->
<g id="edge9" class="edge">
<title>Node7&#45;&gt;Node9</title>
<path fill="none" stroke="#63b8ff" d="M684.06,-176.57C736.67,-167.3 823.8,-151.96 881.56,-141.79"/>
<polygon fill="#63b8ff" stroke="#63b8ff" points="882.39,-145.2 891.63,-140.02 881.18,-138.3 882.39,-145.2"/>
</g>
<!-- Node7&#45;&gt;Node16 -->
<g id="edge17" class="edge">
<title>Node7&#45;&gt;Node16</title>
<path fill="none" stroke="#63b8ff" d="M651.21,-175.98C662.78,-167.92 680.38,-155.65 694.16,-146.03"/>
<polygon fill="#63b8ff" stroke="#63b8ff" points="696.37,-148.76 702.57,-140.17 692.36,-143.02 696.37,-148.76"/>
</g>
<!-- Node9&#45;&gt;Node5 -->
<g id="edge16" class="edge">
<title>Node9&#45;&gt;Node5</title>
<path fill="none" stroke="#63b8ff" d="M954.61,-120.87C970.69,-111.36 996.78,-95.95 1015.7,-84.77"/>
<polygon fill="#63b8ff" stroke="#63b8ff" points="1017.5,-87.77 1024.33,-79.67 1013.94,-81.74 1017.5,-87.77"/>
</g>
<!-- Node10 -->
<g id="node10" class="node">
<title>Node10</title>
<g id="a_node10"><a xlink:title=" ">
<polygon fill="#e0e0e0" stroke="#999999" points="1175.5,-79.5 1110.5,-79.5 1110.5,-60.5 1175.5,-60.5 1175.5,-79.5"/>
<text text-anchor="middle" x="1143" y="-67.5" font-family="Helvetica,sans-Serif" font-size="10.00">functional</text>
</a>
</g>
</g>
<!-- Node9&#45;&gt;Node10 -->
<g id="edge10" class="edge">
<title>Node9&#45;&gt;Node10</title>
<path fill="none" stroke="#63b8ff" d="M972.83,-120.96C1005.47,-112.35 1056.89,-98.44 1101,-85 1103.44,-84.26 1105.96,-83.47 1108.49,-82.66"/>
<polygon fill="#63b8ff" stroke="#63b8ff" points="1109.77,-85.93 1118.19,-79.51 1107.6,-79.27 1109.77,-85.93"/>
</g>
<!-- Node11 -->
<g id="node11" class="node">
<title>Node11</title>
<g id="a_node11"><a xlink:title=" ">
<polygon fill="#e0e0e0" stroke="#999999" points="856,-79.5 796,-79.5 796,-60.5 856,-60.5 856,-79.5"/>
<text text-anchor="middle" x="826" y="-67.5" font-family="Helvetica,sans-Serif" font-size="10.00">iostream</text>
</a>
</g>
</g>
<!-- Node9&#45;&gt;Node11 -->
<g id="edge11" class="edge">
<title>Node9&#45;&gt;Node11</title>
<path fill="none" stroke="#63b8ff" d="M923.18,-120.87C904.4,-111.23 873.8,-95.53 851.95,-84.31"/>
<polygon fill="#63b8ff" stroke="#63b8ff" points="853.39,-81.12 842.89,-79.67 850.19,-87.35 853.39,-81.12"/>
</g>
<!-- Node12 -->
<g id="node12" class="node">
<title>Node12</title>
<g id="a_node12"><a xlink:title=" ">
<polygon fill="#e0e0e0" stroke="#999999" points="412.5,-19 355.5,-19 355.5,0 412.5,0 412.5,-19"/>
<text text-anchor="middle" x="384" y="-7" font-family="Helvetica,sans-Serif" font-size="10.00">ostream</text>
</a>
</g>
</g>
<!-- Node9&#45;&gt;Node12 -->
<g id="edge12" class="edge">
<title>Node9&#45;&gt;Node12</title>
<path fill="none" stroke="#63b8ff" d="M932.73,-120.94C917.32,-103.05 881.46,-62.69 865,-55 786.75,-18.43 522.99,-11.9 422.93,-10.74"/>
<polygon fill="#63b8ff" stroke="#63b8ff" points="422.7,-7.24 412.66,-10.64 422.63,-14.24 422.7,-7.24"/>
</g>
<!-- Node13 -->
<g id="node13" class="node">
<title>Node13</title>
<g id="a_node13"><a xlink:title=" ">
<polygon fill="#e0e0e0" stroke="#999999" points="1244,-79.5 1194,-79.5 1194,-60.5 1244,-60.5 1244,-79.5"/>
<text text-anchor="middle" x="1219" y="-67.5" font-family="Helvetica,sans-Serif" font-size="10.00">ranges</text>
</a>
</g>
</g>
<!-- Node9&#45;&gt;Node13 -->
<g id="edge13" class="edge">
<title>Node9&#45;&gt;Node13</title>
<path fill="none" stroke="#63b8ff" d="M989.05,-123.69C1039.02,-117.05 1118.42,-104.52 1185,-85 1186.88,-84.45 1188.81,-83.83 1190.73,-83.16"/>
<polygon fill="#63b8ff" stroke="#63b8ff" points="1192.08,-86.39 1200.19,-79.57 1189.6,-79.84 1192.08,-86.39"/>
</g>
<!-- Node14 -->
<g id="node14" class="node">
<title>Node14</title>
<g id="a_node14"><a xlink:title=" ">
<polygon fill="#e0e0e0" stroke="#999999" points="968,-79.5 912,-79.5 912,-60.5 968,-60.5 968,-79.5"/>
<text text-anchor="middle" x="940" y="-67.5" font-family="Helvetica,sans-Serif" font-size="10.00">sstream</text>
</a>
</g>
</g>
<!-- Node9&#45;&gt;Node14 -->
<g id="edge14" class="edge">
<title>Node9&#45;&gt;Node14</title>
<path fill="none" stroke="#63b8ff" d="M940,-120.87C940,-112.75 940,-100.31 940,-89.89"/>
<polygon fill="#63b8ff" stroke="#63b8ff" points="943.5,-89.67 940,-79.67 936.5,-89.67 943.5,-89.67"/>
</g>
<!-- Node15 -->
<g id="node15" class="node">
<title>Node15</title>
<g id="a_node15"><a xlink:title=" ">
<polygon fill="#e0e0e0" stroke="#999999" points="778,-79.5 734,-79.5 734,-60.5 778,-60.5 778,-79.5"/>
<text text-anchor="middle" x="756" y="-67.5" font-family="Helvetica,sans-Serif" font-size="10.00">string</text>
</a>
</g>
</g>
<!-- Node9&#45;&gt;Node15 -->
<g id="edge15" class="edge">
<title>Node9&#45;&gt;Node15</title>
<path fill="none" stroke="#63b8ff" d="M905.52,-120.96C874.21,-112.86 826.97,-99.75 787,-85 785.78,-84.55 784.55,-84.08 783.31,-83.58"/>
<polygon fill="#63b8ff" stroke="#63b8ff" points="784.43,-80.26 773.85,-79.58 781.7,-86.7 784.43,-80.26"/>
</g>
<!-- Node16&#45;&gt;Node3 -->
<g id="edge20" class="edge">
<title>Node16&#45;&gt;Node3</title>
<path fill="none" stroke="#63b8ff" d="M666.27,-121.28C619.04,-113.16 545.17,-100.08 472.05,-85.16"/>
<polygon fill="#63b8ff" stroke="#63b8ff" points="472.71,-81.73 462.21,-83.15 471.3,-88.58 472.71,-81.73"/>
</g>
<!-- Node16&#45;&gt;Node8 -->
<g id="edge21" class="edge">
<title>Node16&#45;&gt;Node8</title>
<path fill="none" stroke="#63b8ff" d="M688.39,-120.99C661.59,-112.43 619.5,-98.97 585.73,-88.18"/>
<polygon fill="#63b8ff" stroke="#63b8ff" points="586.59,-84.78 576,-85.06 584.46,-91.44 586.59,-84.78"/>
</g>
<!-- Node16&#45;&gt;Node11 -->
<g id="edge18" class="edge">
<title>Node16&#45;&gt;Node11</title>
<path fill="none" stroke="#63b8ff" d="M731.38,-120.87C749.58,-111.28 779.2,-95.67 800.45,-84.47"/>
<polygon fill="#63b8ff" stroke="#63b8ff" points="802.34,-87.43 809.55,-79.67 799.08,-81.23 802.34,-87.43"/>
</g>
<!-- Node16&#45;&gt;Node15 -->
<g id="edge19" class="edge">
<title>Node16&#45;&gt;Node15</title>
<path fill="none" stroke="#63b8ff" d="M721.05,-120.87C727.11,-112.23 736.59,-98.7 744.14,-87.92"/>
<polygon fill="#63b8ff" stroke="#63b8ff" points="747.05,-89.87 749.93,-79.67 741.32,-85.85 747.05,-89.87"/>
</g>
<!-- Node17 -->
<g id="node17" class="node">
<title>Node17</title>
<g id="a_node17"><a xlink:title=" ">
<polygon fill="#e0e0e0" stroke="#999999" points="715.5,-85 602.5,-85 602.5,-55 715.5,-55 715.5,-85"/>
<text text-anchor="start" x="610.5" y="-73" font-family="Helvetica,sans-Serif" font-size="10.00">absl/container/node</text>
<text text-anchor="middle" x="659" y="-62" font-family="Helvetica,sans-Serif" font-size="10.00">_hash_set.h</text>
</a>
</g>
</g>
<!-- Node16&#45;&gt;Node17 -->
<g id="edge22" class="edge">
<title>Node16&#45;&gt;Node17</title>
<path fill="none" stroke="#63b8ff" d="M706.74,-120.87C699.63,-113.44 689.07,-102.42 679.69,-92.62"/>
<polygon fill="#63b8ff" stroke="#63b8ff" points="681.95,-89.92 672.51,-85.11 676.9,-94.76 681.95,-89.92"/>
</g>
<!-- Node18&#45;&gt;Node12 -->
<g id="edge27" class="edge">
<title>Node18&#45;&gt;Node12</title>
<path fill="none" stroke="#63b8ff" d="M269.48,-60.49C292.01,-50.66 329.31,-34.38 355.19,-23.08"/>
<polygon fill="#63b8ff" stroke="#63b8ff" points="356.73,-26.23 364.49,-19.02 353.93,-19.81 356.73,-26.23"/>
</g>
<!-- Node19 -->
<g id="node19" class="node">
<title>Node19</title>
<g id="a_node19"><a xlink:title=" ">
<polygon fill="#e0e0e0" stroke="#999999" points="275,-19 225,-19 225,0 275,0 275,-19"/>
<text text-anchor="middle" x="250" y="-7" font-family="Helvetica,sans-Serif" font-size="10.00">cstdint</text>
</a>
</g>
</g>
<!-- Node18&#45;&gt;Node19 -->
<g id="edge25" class="edge">
<title>Node18&#45;&gt;Node19</title>
<path fill="none" stroke="#63b8ff" d="M250,-60.37C250,-52.25 250,-39.81 250,-29.39"/>
<polygon fill="#63b8ff" stroke="#63b8ff" points="253.5,-29.17 250,-19.17 246.5,-29.17 253.5,-29.17"/>
</g>
<!-- Node20 -->
<g id="node20" class="node">
<title>Node20</title>
<g id="a_node20"><a xlink:title=" ">
<polygon fill="#e0e0e0" stroke="#999999" points="337,-19 293,-19 293,0 337,0 337,-19"/>
<text text-anchor="middle" x="315" y="-7" font-family="Helvetica,sans-Serif" font-size="10.00">limits</text>
</a>
</g>
</g>
<!-- Node18&#45;&gt;Node20 -->
<g id="edge26" class="edge">
<title>Node18&#45;&gt;Node20</title>
<path fill="none" stroke="#63b8ff" d="M259.59,-60.37C269.58,-51.38 285.43,-37.11 297.63,-26.14"/>
<polygon fill="#63b8ff" stroke="#63b8ff" points="300.28,-28.46 305.37,-19.17 295.6,-23.26 300.28,-28.46"/>
</g>
<!-- Node21 -->
<g id="node21" class="node">
<title>Node21</title>
<g id="a_node21"><a xlink:title=" ">
<polygon fill="#e0e0e0" stroke="#999999" points="915.5,-19 846.5,-19 846.5,0 915.5,0 915.5,-19"/>
<text text-anchor="middle" x="881" y="-7" font-family="Helvetica,sans-Serif" font-size="10.00">type_traits</text>
</a>
</g>
</g>
<!-- Node18&#45;&gt;Node21 -->
<g id="edge28" class="edge">
<title>Node18&#45;&gt;Node21</title>
<path fill="none" stroke="#63b8ff" d="M301.57,-61.14C316.82,-58.97 333.56,-56.74 349,-55 529.25,-34.73 744.82,-19.45 836.37,-13.37"/>
<polygon fill="#63b8ff" stroke="#63b8ff" points="836.64,-16.86 846.39,-12.71 836.18,-9.87 836.64,-16.86"/>
</g>
<!-- Node22 -->
<g id="node22" class="node">
<title>Node22</title>
<g id="a_node22"><a xlink:title=" ">
<polygon fill="#e0e0e0" stroke="#999999" points="132.5,-19 85.5,-19 85.5,0 132.5,0 132.5,-19"/>
<text text-anchor="middle" x="109" y="-7" font-family="Helvetica,sans-Serif" font-size="10.00">cmath</text>
</a>
</g>
</g>
<!-- Node18&#45;&gt;Node22 -->
<g id="edge29" class="edge">
<title>Node18&#45;&gt;Node22</title>
<path fill="none" stroke="#63b8ff" d="M229.5,-60.49C205.69,-50.62 166.21,-34.23 138.96,-22.93"/>
<polygon fill="#63b8ff" stroke="#63b8ff" points="140.11,-19.62 129.53,-19.02 137.42,-26.08 140.11,-19.62"/>
</g>
<!-- Node23 -->
<g id="node23" class="node">
<title>Node23</title>
<g id="a_node23"><a xlink:title=" ">
<polygon fill="#e0e0e0" stroke="#999999" points="207,-19 151,-19 151,0 207,0 207,-19"/>
<text text-anchor="middle" x="179" y="-7" font-family="Helvetica,sans-Serif" font-size="10.00">half.hpp</text>
</a>
</g>
</g>
<!-- Node18&#45;&gt;Node23 -->
<g id="edge30" class="edge">
<title>Node18&#45;&gt;Node23</title>
<path fill="none" stroke="#63b8ff" d="M239.52,-60.37C228.51,-51.3 210.96,-36.84 197.59,-25.82"/>
<polygon fill="#63b8ff" stroke="#63b8ff" points="199.46,-22.83 189.52,-19.17 195.01,-28.23 199.46,-22.83"/>
</g>
<!-- Node24&#45;&gt;Node7 -->
<g id="edge35" class="edge">
<title>Node24&#45;&gt;Node7</title>
<path fill="none" stroke="#63b8ff" d="M207.78,-235.25C284.54,-228.26 440.32,-213.37 583.42,-195.01"/>
<polygon fill="#63b8ff" stroke="#63b8ff" points="584.24,-198.43 593.7,-193.68 583.34,-191.49 584.24,-198.43"/>
</g>
<!-- Node24&#45;&gt;Node18 -->
<g id="edge36" class="edge">
<title>Node24&#45;&gt;Node18</title>
<path fill="none" stroke="#63b8ff" d="M158.37,-230.95C156.36,-218.42 154.02,-194.58 161,-176 175.17,-138.28 209.29,-104.7 230.92,-86.17"/>
<polygon fill="#63b8ff" stroke="#63b8ff" points="233.36,-88.69 238.81,-79.61 228.88,-83.31 233.36,-88.69"/>
</g>
<!-- Node25 -->
<g id="node25" class="node">
<title>Node25</title>
<g id="a_node25"><a xlink:title=" ">
<polygon fill="#e0e0e0" stroke="#999999" points="42,-195 0,-195 0,-176 42,-176 42,-195"/>
<text text-anchor="middle" x="21" y="-183" font-family="Helvetica,sans-Serif" font-size="10.00">array</text>
</a>
</g>
</g>
<!-- Node24&#45;&gt;Node25 -->
<g id="edge32" class="edge">
<title>Node24&#45;&gt;Node25</title>
<path fill="none" stroke="#63b8ff" d="M137.67,-230.98C114.39,-222.11 77.76,-208.14 51.76,-198.23"/>
<polygon fill="#63b8ff" stroke="#63b8ff" points="52.96,-194.94 42.36,-194.65 50.46,-201.48 52.96,-194.94"/>
</g>
<!-- Node26 -->
<g id="node26" class="node">
<title>Node26</title>
<g id="a_node26"><a xlink:title=" ">
<polygon fill="#e0e0e0" stroke="#999999" points="114,-195 60,-195 60,-176 114,-176 114,-195"/>
<text text-anchor="middle" x="87" y="-183" font-family="Helvetica,sans-Serif" font-size="10.00">istream</text>
</a>
</g>
</g>
<!-- Node24&#45;&gt;Node26 -->
<g id="edge33" class="edge">
<title>Node24&#45;&gt;Node26</title>
<path fill="none" stroke="#63b8ff" d="M148.27,-230.98C137.27,-223 120.58,-210.88 107.4,-201.31"/>
<polygon fill="#63b8ff" stroke="#63b8ff" points="109.09,-198.21 98.94,-195.17 104.98,-203.88 109.09,-198.21"/>
</g>
<!-- Node27 -->
<g id="node27" class="node">
<title>Node27</title>
<g id="a_node27"><a xlink:title=" ">
<polygon fill="#e0e0e0" stroke="#999999" points="226,-195 170,-195 170,-176 226,-176 226,-195"/>
<text text-anchor="middle" x="198" y="-183" font-family="Helvetica,sans-Serif" font-size="10.00">optional</text>
</a>
</g>
</g>
<!-- Node24&#45;&gt;Node27 -->
<g id="edge34" class="edge">
<title>Node24&#45;&gt;Node27</title>
<path fill="none" stroke="#63b8ff" d="M166.27,-230.75C171.59,-223.34 179.36,-212.5 185.88,-203.41"/>
<polygon fill="#63b8ff" stroke="#63b8ff" points="188.86,-205.26 191.84,-195.09 183.17,-201.18 188.86,-205.26"/>
</g>
<!-- Node28&#45;&gt;Node14 -->
<g id="edge38" class="edge">
<title>Node28&#45;&gt;Node14</title>
<path fill="none" stroke="#63b8ff" d="M842.3,-414.13C943.34,-410.42 1192.24,-398.55 1217,-371 1258.94,-324.35 1235.25,-282.2 1199,-231 1168.33,-187.69 1026.4,-113.87 966.64,-84.06"/>
<polygon fill="#63b8ff" stroke="#63b8ff" points="967.97,-80.81 957.45,-79.5 964.86,-87.08 967.97,-80.81"/>
</g>
<!-- Node28&#45;&gt;Node15 -->
<g id="edge39" class="edge">
<title>Node28&#45;&gt;Node15</title>
<path fill="none" stroke="#63b8ff" d="M799.85,-406.73C799.1,-370.88 794.8,-232.19 772,-121 769.79,-110.23 766.11,-98.51 762.84,-89.13"/>
<polygon fill="#63b8ff" stroke="#63b8ff" points="766.12,-87.9 759.42,-79.7 759.54,-90.29 766.12,-87.9"/>
</g>
<!-- Node28&#45;&gt;Node16 -->
<g id="edge86" class="edge">
<title>Node28&#45;&gt;Node16</title>
<path fill="none" stroke="#63b8ff" d="M797.27,-406.98C794.42,-398.03 789.83,-383.55 786,-371 760.87,-288.73 732.06,-190.17 720.36,-149.95"/>
<polygon fill="#63b8ff" stroke="#63b8ff" points="723.68,-148.84 717.53,-140.22 716.96,-150.79 723.68,-148.84"/>
</g>
<!-- Node29 -->
<g id="node29" class="node">
<title>Node29</title>
<g id="a_node29"><a xlink:title=" ">
<polygon fill="#e0e0e0" stroke="#999999" points="469.5,-365.5 396.5,-365.5 396.5,-346.5 469.5,-346.5 469.5,-365.5"/>
<text text-anchor="middle" x="433" y="-353.5" font-family="Helvetica,sans-Serif" font-size="10.00">string_view</text>
</a>
</g>
</g>
<!-- Node28&#45;&gt;Node29 -->
<g id="edge40" class="edge">
<title>Node28&#45;&gt;Node29</title>
<path fill="none" stroke="#63b8ff" d="M757.82,-411.79C696.09,-405.89 577.77,-392.73 479,-371 475.55,-370.24 471.99,-369.35 468.44,-368.39"/>
<polygon fill="#63b8ff" stroke="#63b8ff" points="469.18,-364.96 458.6,-365.57 467.25,-371.69 469.18,-364.96"/>
</g>
<!-- Node30 -->
<g id="node30" class="node">
<title>Node30</title>
<g id="a_node30"><a xlink:title=" ">
<polygon fill="#e0e0e0" stroke="#999999" points="602,-371 488,-371 488,-341 602,-341 602,-371"/>
<text text-anchor="start" x="496" y="-359" font-family="Helvetica,sans-Serif" font-size="10.00">absl/container/btree</text>
<text text-anchor="middle" x="545" y="-348" font-family="Helvetica,sans-Serif" font-size="10.00">_map.h</text>
</a>
</g>
</g>
<!-- Node28&#45;&gt;Node30 -->
<g id="edge41" class="edge">
<title>Node28&#45;&gt;Node30</title>
<path fill="none" stroke="#63b8ff" d="M762.92,-406.99C723.59,-397.97 660.6,-383.52 612.44,-372.47"/>
<polygon fill="#63b8ff" stroke="#63b8ff" points="612.93,-368.99 602.4,-370.17 611.36,-375.82 612.93,-368.99"/>
</g>
<!-- Node31 -->
<g id="node31" class="node">
<title>Node31</title>
<g id="a_node31"><a xlink:title=" ">
<polygon fill="#e0e0e0" stroke="#999999" points="734,-371 620,-371 620,-341 734,-341 734,-371"/>
<text text-anchor="start" x="628" y="-359" font-family="Helvetica,sans-Serif" font-size="10.00">absl/container/btree</text>
<text text-anchor="middle" x="677" y="-348" font-family="Helvetica,sans-Serif" font-size="10.00">_set.h</text>
</a>
</g>
</g>
<!-- Node28&#45;&gt;Node31 -->
<g id="edge42" class="edge">
<title>Node28&#45;&gt;Node31</title>
<path fill="none" stroke="#63b8ff" d="M782.11,-406.99C764.86,-398.79 738.16,-386.09 715.99,-375.55"/>
<polygon fill="#63b8ff" stroke="#63b8ff" points="717.34,-372.31 706.81,-371.18 714.34,-378.63 717.34,-372.31"/>
</g>
<!-- Node32 -->
<g id="node32" class="node">
<title>Node32</title>
<g id="a_node32"><a xlink:href="axiom_8h.html" target="_top" xlink:title=" ">
<polygon fill="white" stroke="#666666" points="1208,-365.5 1120,-365.5 1120,-346.5 1208,-346.5 1208,-365.5"/>
<text text-anchor="middle" x="1164" y="-353.5" font-family="Helvetica,sans-Serif" font-size="10.00">thorin/axiom.h</text>
</a>
</g>
</g>
<!-- Node28&#45;&gt;Node32 -->
<g id="edge43" class="edge">
<title>Node28&#45;&gt;Node32</title>
<path fill="none" stroke="#63b8ff" d="M842.11,-408.73C908.33,-398.09 1036.77,-377.45 1109.8,-365.71"/>
<polygon fill="#63b8ff" stroke="#63b8ff" points="1110.4,-369.16 1119.72,-364.12 1109.29,-362.25 1110.4,-369.16"/>
</g>
<!-- Node37 -->
<g id="node37" class="node">
<title>Node37</title>
<g id="a_node37"><a xlink:href="config_8h.html" target="_top" xlink:title=" ">
<polygon fill="white" stroke="#666666" points="1379,-195 1293,-195 1293,-176 1379,-176 1379,-195"/>
<text text-anchor="middle" x="1336" y="-183" font-family="Helvetica,sans-Serif" font-size="10.00">thorin/config.h</text>
</a>
</g>
</g>
<!-- Node28&#45;&gt;Node37 -->
<g id="edge75" class="edge">
<title>Node28&#45;&gt;Node37</title>
<path fill="none" stroke="#63b8ff" d="M842,-415.22C948.58,-413.98 1227,-407.27 1311,-371 1351.46,-353.53 1366.98,-345.22 1385,-305 1401.21,-268.81 1371.14,-225.61 1351.35,-202.68"/>
<polygon fill="#63b8ff" stroke="#63b8ff" points="1353.91,-200.3 1344.62,-195.2 1348.7,-204.97 1353.91,-200.3"/>
</g>
<!-- Node49 -->
<g id="node44" class="node">
<title>Node49</title>
<g id="a_node44"><a xlink:href="hash_8h.html" target="_top" xlink:title=" ">
<polygon fill="white" stroke="#666666" points="457.5,-140 358.5,-140 358.5,-121 457.5,-121 457.5,-140"/>
<text text-anchor="middle" x="408" y="-128" font-family="Helvetica,sans-Serif" font-size="10.00">thorin/util/hash.h</text>
</a>
</g>
</g>
<!-- Node28&#45;&gt;Node49 -->
<g id="edge82" class="edge">
<title>Node28&#45;&gt;Node49</title>
<path fill="none" stroke="#63b8ff" d="M757.79,-415.98C662.41,-416.3 433.72,-412.59 371,-371 339.5,-350.11 330,-334.29 330,-296.5 330,-296.5 330,-296.5 330,-239.5 330,-199.95 364.8,-165.05 387.91,-146.23"/>
<polygon fill="#63b8ff" stroke="#63b8ff" points="390.1,-148.97 395.81,-140.05 385.78,-143.46 390.1,-148.97"/>
</g>
<!-- Node50 -->
<g id="node45" class="node">
<title>Node50</title>
<g id="a_node45"><a xlink:href="check_8h.html" target="_top" xlink:title=" ">
<polygon fill="white" stroke="#666666" points="914,-365.5 828,-365.5 828,-346.5 914,-346.5 914,-365.5"/>
<text text-anchor="middle" x="871" y="-353.5" font-family="Helvetica,sans-Serif" font-size="10.00">thorin/check.h</text>
</a>
</g>
</g>
<!-- Node28&#45;&gt;Node50 -->
<g id="edge72" class="edge">
<title>Node28&#45;&gt;Node50</title>
<path fill="none" stroke="#63b8ff" d="M810.48,-406.87C821.49,-397.8 839.04,-383.34 852.41,-372.32"/>
<polygon fill="#63b8ff" stroke="#63b8ff" points="854.99,-374.73 860.48,-365.67 850.54,-369.33 854.99,-374.73"/>
</g>
<!-- Node52 -->
<g id="node47" class="node">
<title>Node52</title>
<g id="a_node47"><a xlink:href="flags_8h.html" target="_top" xlink:title=" ">
<polygon fill="white" stroke="#666666" points="1376,-305 1296,-305 1296,-286 1376,-286 1376,-305"/>
<text text-anchor="middle" x="1336" y="-293" font-family="Helvetica,sans-Serif" font-size="10.00">thorin/flags.h</text>
</a>
</g>
</g>
<!-- Node28&#45;&gt;Node52 -->
<g id="edge76" class="edge">
<title>Node28&#45;&gt;Node52</title>
<path fill="none" stroke="#63b8ff" d="M842.36,-415.99C945.67,-416.49 1207.52,-413.43 1282,-371 1304.28,-358.31 1319.85,-332.25 1328.36,-314.57"/>
<polygon fill="#63b8ff" stroke="#63b8ff" points="1331.63,-315.85 1332.56,-305.29 1325.25,-312.96 1331.63,-315.85"/>
</g>
<!-- Node53 -->
<g id="node48" class="node">
<title>Node53</title>
<g id="a_node48"><a xlink:href="lattice_8h.html" target="_top" xlink:title=" ">
<polygon fill="white" stroke="#666666" points="1008,-305 920,-305 920,-286 1008,-286 1008,-305"/>
<text text-anchor="middle" x="964" y="-293" font-family="Helvetica,sans-Serif" font-size="10.00">thorin/lattice.h</text>
</a>
</g>
</g>
<!-- Node28&#45;&gt;Node53 -->
<g id="edge78" class="edge">
<title>Node28&#45;&gt;Node53</title>
<path fill="none" stroke="#63b8ff" d="M842,-408.15C867.74,-401.87 900.04,-390.63 923,-371 940.49,-356.05 951.88,-331.69 958.12,-314.92"/>
<polygon fill="#63b8ff" stroke="#63b8ff" points="961.53,-315.76 961.48,-305.17 954.91,-313.48 961.53,-315.76"/>
</g>
<!-- Node54 -->
<g id="node49" class="node">
<title>Node54</title>
<g id="a_node49"><a xlink:href="tuple_8h.html" target="_top" xlink:title=" ">
<polygon fill="white" stroke="#666666" points="1108,-305 1026,-305 1026,-286 1108,-286 1108,-305"/>
<text text-anchor="middle" x="1067" y="-293" font-family="Helvetica,sans-Serif" font-size="10.00">thorin/tuple.h</text>
</a>
</g>
</g>
<!-- Node28&#45;&gt;Node54 -->
<g id="edge80" class="edge">
<title>Node28&#45;&gt;Node54</title>
<path fill="none" stroke="#63b8ff" d="M839.01,-406.95C869.7,-399.49 913.12,-387.31 949,-371 985.99,-354.18 1025.17,-327.42 1047.78,-310.96"/>
<polygon fill="#63b8ff" stroke="#63b8ff" points="1049.9,-313.75 1055.87,-305 1045.74,-308.12 1049.9,-313.75"/>
</g>
<!-- Node55 -->
<g id="node50" class="node">
<title>Node55</title>
<g id="a_node50"><a xlink:href="log_8h.html" target="_top" xlink:title=" ">
<polygon fill="white" stroke="#666666" points="449.5,-250 358.5,-250 358.5,-231 449.5,-231 449.5,-250"/>
<text text-anchor="middle" x="404" y="-238" font-family="Helvetica,sans-Serif" font-size="10.00">thorin/util/log.h</text>
</a>
</g>
</g>
<!-- Node28&#45;&gt;Node55 -->
<g id="edge83" class="edge">
<title>Node28&#45;&gt;Node55</title>
<path fill="none" stroke="#63b8ff" d="M757.74,-414.08C657.42,-410.29 411.48,-398.26 387,-371 359.07,-339.9 380.18,-286.43 394.19,-258.94"/>
<polygon fill="#63b8ff" stroke="#63b8ff" points="397.3,-260.55 398.92,-250.08 391.12,-257.25 397.3,-260.55"/>
</g>
<!-- Node32&#45;&gt;Node5 -->
<g id="edge71" class="edge">
<title>Node32&#45;&gt;Node5</title>
<path fill="none" stroke="#63b8ff" d="M1174.46,-346.49C1185.1,-337.3 1201.37,-321.72 1211,-305 1225.7,-279.47 1230,-270.96 1230,-241.5 1230,-241.5 1230,-241.5 1230,-184.5 1230,-148.28 1127.2,-104.12 1072.44,-83.16"/>
<polygon fill="#63b8ff" stroke="#63b8ff" points="1073.4,-79.78 1062.8,-79.52 1070.92,-86.33 1073.4,-79.78"/>
</g>
<!-- Node33 -->
<g id="node33" class="node">
<title>Node33</title>
<g id="a_node33"><a xlink:href="lam_8h.html" target="_top" xlink:title=" ">
<polygon fill="white" stroke="#666666" points="1202,-305 1126,-305 1126,-286 1202,-286 1202,-305"/>
<text text-anchor="middle" x="1164" y="-293" font-family="Helvetica,sans-Serif" font-size="10.00">thorin/lam.h</text>
</a>
</g>
</g>
<!-- Node32&#45;&gt;Node33 -->
<g id="edge44" class="edge">
<title>Node32&#45;&gt;Node33</title>
<path fill="none" stroke="#63b8ff" d="M1164,-346.37C1164,-338.25 1164,-325.81 1164,-315.39"/>
<polygon fill="#63b8ff" stroke="#63b8ff" points="1167.5,-315.17 1164,-305.17 1160.5,-315.17 1167.5,-315.17"/>
</g>
<!-- Node34 -->
<g id="node34" class="node">
<title>Node34</title>
<g id="a_node34"><a xlink:title=" ">
<polygon fill="#e0e0e0" stroke="#999999" points="1189.5,-250 1138.5,-250 1138.5,-231 1189.5,-231 1189.5,-250"/>
<text text-anchor="middle" x="1164" y="-238" font-family="Helvetica,sans-Serif" font-size="10.00">variant</text>
</a>
</g>
</g>
<!-- Node33&#45;&gt;Node34 -->
<g id="edge45" class="edge">
<title>Node33&#45;&gt;Node34</title>
<path fill="none" stroke="#63b8ff" d="M1164,-285.75C1164,-278.8 1164,-268.85 1164,-260.13"/>
<polygon fill="#63b8ff" stroke="#63b8ff" points="1167.5,-260.09 1164,-250.09 1160.5,-260.09 1167.5,-260.09"/>
</g>
<!-- Node35 -->
<g id="node35" class="node">
<title>Node35</title>
<g id="a_node35"><a xlink:href="def_8h.html" target="_top" xlink:title=" ">
<polygon fill="white" stroke="#666666" points="1000,-250 928,-250 928,-231 1000,-231 1000,-250"/>
<text text-anchor="middle" x="964" y="-238" font-family="Helvetica,sans-Serif" font-size="10.00">thorin/def.h</text>
</a>
</g>
</g>
<!-- Node33&#45;&gt;Node35 -->
<g id="edge46" class="edge">
<title>Node33&#45;&gt;Node35</title>
<path fill="none" stroke="#63b8ff" d="M1131.87,-285.98C1097.85,-276.97 1044,-262.7 1006.5,-252.76"/>
<polygon fill="#63b8ff" stroke="#63b8ff" points="1006.95,-249.26 996.39,-250.08 1005.16,-256.03 1006.95,-249.26"/>
</g>
<!-- Node35&#45;&gt;Node7 -->
<g id="edge69" class="edge">
<title>Node35&#45;&gt;Node7</title>
<path fill="none" stroke="#63b8ff" d="M927.98,-233.63C871.23,-224.37 760.62,-206.33 693.92,-195.46"/>
<polygon fill="#63b8ff" stroke="#63b8ff" points="694.44,-192 684.01,-193.84 693.32,-198.9 694.44,-192"/>
</g>
<!-- Node35&#45;&gt;Node9 -->
<g id="edge70" class="edge">
<title>Node35&#45;&gt;Node9</title>
<path fill="none" stroke="#63b8ff" d="M962.04,-230.66C958.13,-213.09 949.32,-173.45 944.1,-149.95"/>
<polygon fill="#63b8ff" stroke="#63b8ff" points="947.51,-149.16 941.92,-140.16 940.68,-150.68 947.51,-149.16"/>
</g>
<!-- Node35&#45;&gt;Node27 -->
<g id="edge47" class="edge">
<title>Node35&#45;&gt;Node27</title>
<path fill="none" stroke="#63b8ff" d="M927.83,-237C799.63,-228.13 367.63,-198.24 236.24,-189.15"/>
<polygon fill="#63b8ff" stroke="#63b8ff" points="236.45,-185.65 226.23,-188.45 235.97,-192.64 236.45,-185.65"/>
</g>
<!-- Node36 -->
<g id="node36" class="node">
<title>Node36</title>
<g id="a_node36"><a xlink:title=" ">
<polygon fill="#e0e0e0" stroke="#999999" points="1309.5,-79.5 1262.5,-79.5 1262.5,-60.5 1309.5,-60.5 1309.5,-79.5"/>
<text text-anchor="middle" x="1286" y="-67.5" font-family="Helvetica,sans-Serif" font-size="10.00">vector</text>
</a>
</g>
</g>
<!-- Node35&#45;&gt;Node36 -->
<g id="edge48" class="edge">
<title>Node35&#45;&gt;Node36</title>
<path fill="none" stroke="#63b8ff" d="M981.46,-230.93C999.45,-222.07 1028.28,-207.75 1053,-195 1129.31,-155.62 1218.76,-107.45 1261.21,-84.46"/>
<polygon fill="#63b8ff" stroke="#63b8ff" points="1263.13,-87.4 1270.25,-79.56 1259.79,-81.25 1263.13,-87.4"/>
</g>
<!-- Node35&#45;&gt;Node37 -->
<g id="edge49" class="edge">
<title>Node35&#45;&gt;Node37</title>
<path fill="none" stroke="#63b8ff" d="M1000.01,-234.37C1065.88,-224.98 1206.08,-205.01 1282.92,-194.06"/>
<polygon fill="#63b8ff" stroke="#63b8ff" points="1283.47,-197.52 1292.87,-192.64 1282.48,-190.59 1283.47,-197.52"/>
</g>
<!-- Node38 -->
<g id="node38" class="node">
<title>Node38</title>
<g id="a_node38"><a xlink:href="array_8h.html" target="_top" xlink:title=" ">
<polygon fill="#fff0f0" stroke="red" points="1396,-140 1296,-140 1296,-121 1396,-121 1396,-140"/>
<text text-anchor="middle" x="1346" y="-128" font-family="Helvetica,sans-Serif" font-size="10.00">thorin/util/array.h</text>
</a>
</g>
</g>
<!-- Node35&#45;&gt;Node38 -->
<g id="edge50" class="edge">
<title>Node35&#45;&gt;Node38</title>
<path fill="none" stroke="#63b8ff" d="M989.61,-230.95C1015.54,-222.22 1056.71,-208.11 1092,-195 1113.51,-187.01 1118.05,-182.67 1140,-176 1188.35,-161.32 1244.49,-149.52 1285.94,-141.78"/>
<polygon fill="#63b8ff" stroke="#63b8ff" points="1286.68,-145.2 1295.88,-139.94 1285.41,-138.32 1286.68,-145.2"/>
</g>
<!-- Node44 -->
<g id="node42" class="node">
<title>Node44</title>
<g id="a_node42"><a xlink:href="cast_8h.html" target="_top" xlink:title=" ">
<polygon fill="white" stroke="#666666" points="1631,-140 1535,-140 1535,-121 1631,-121 1631,-140"/>
<text text-anchor="middle" x="1583" y="-128" font-family="Helvetica,sans-Serif" font-size="10.00">thorin/util/cast.h</text>
</a>
</g>
</g>
<!-- Node35&#45;&gt;Node44 -->
<g id="edge59" class="edge">
<title>Node35&#45;&gt;Node44</title>
<path fill="none" stroke="#63b8ff" d="M1000.37,-231.69C1059.62,-219.1 1180.76,-193.92 1284,-176 1367.46,-161.52 1464.54,-147.61 1524.89,-139.3"/>
<polygon fill="#63b8ff" stroke="#63b8ff" points="1525.55,-142.75 1534.98,-137.92 1524.6,-135.81 1525.55,-142.75"/>
</g>
<!-- Node45 -->
<g id="node43" class="node">
<title>Node45</title>
<g id="a_node43"><a xlink:href="container_8h.html" target="_top" xlink:title=" ">
<polygon fill="#fff0f0" stroke="red" points="575.5,-195 454.5,-195 454.5,-176 575.5,-176 575.5,-195"/>
<text text-anchor="middle" x="515" y="-183" font-family="Helvetica,sans-Serif" font-size="10.00">thorin/util/container.h</text>
</a>
</g>
</g>
<!-- Node35&#45;&gt;Node45 -->
<g id="edge62" class="edge">
<title>Node35&#45;&gt;Node45</title>
<path fill="none" stroke="#63b8ff" d="M927.94,-235.31C862.2,-227.67 718.23,-210.89 585.64,-195.07"/>
<polygon fill="#63b8ff" stroke="#63b8ff" points="586.05,-191.6 575.7,-193.89 585.22,-198.55 586.05,-191.6"/>
</g>
<!-- Node35&#45;&gt;Node49 -->
<g id="edge68" class="edge">
<title>Node35&#45;&gt;Node49</title>
<path fill="none" stroke="#63b8ff" d="M927.65,-238.31C816.4,-234.4 485.59,-220.7 445,-195 428.86,-184.79 418.95,-164.81 413.5,-149.98"/>
<polygon fill="#63b8ff" stroke="#63b8ff" points="416.76,-148.69 410.29,-140.3 410.11,-150.89 416.76,-148.69"/>
</g>
<!-- Node38&#45;&gt;Node6 -->
<g id="edge51" class="edge">
<title>Node38&#45;&gt;Node6</title>
<path fill="none" stroke="#63b8ff" d="M1348.16,-120.94C1352.98,-101.82 1364.71,-55.27 1371.31,-29.12"/>
<polygon fill="#63b8ff" stroke="#63b8ff" points="1374.73,-29.85 1373.78,-19.3 1367.94,-28.14 1374.73,-29.85"/>
</g>
<!-- Node38&#45;&gt;Node10 -->
<g id="edge55" class="edge">
<title>Node38&#45;&gt;Node10</title>
<path fill="none" stroke="#63b8ff" d="M1313.17,-120.96C1280.53,-112.35 1229.11,-98.44 1185,-85 1182.56,-84.26 1180.04,-83.47 1177.51,-82.66"/>
<polygon fill="#63b8ff" stroke="#63b8ff" points="1178.4,-79.27 1167.81,-79.51 1176.23,-85.93 1178.4,-79.27"/>
</g>
<!-- Node38&#45;&gt;Node13 -->
<g id="edge56" class="edge">
<title>Node38&#45;&gt;Node13</title>
<path fill="none" stroke="#63b8ff" d="M1327.53,-120.99C1306.28,-111.2 1271.15,-95.02 1246.63,-83.73"/>
<polygon fill="#63b8ff" stroke="#63b8ff" points="1248.04,-80.52 1237.49,-79.52 1245.11,-86.88 1248.04,-80.52"/>
</g>
<!-- Node38&#45;&gt;Node21 -->
<g id="edge57" class="edge">
<title>Node38&#45;&gt;Node21</title>
<path fill="none" stroke="#63b8ff" d="M1345.69,-120.9C1344.6,-105.03 1339.83,-71.24 1319,-55 1288.41,-31.15 1030.94,-17.14 925.63,-12.37"/>
<polygon fill="#63b8ff" stroke="#63b8ff" points="925.77,-8.87 915.63,-11.92 925.46,-15.86 925.77,-8.87"/>
</g>
<!-- Node38&#45;&gt;Node36 -->
<g id="edge58" class="edge">
<title>Node38&#45;&gt;Node36</title>
<path fill="none" stroke="#63b8ff" d="M1337.15,-120.87C1328.02,-111.97 1313.58,-97.89 1302.36,-86.95"/>
<polygon fill="#63b8ff" stroke="#63b8ff" points="1304.49,-84.14 1294.89,-79.67 1299.61,-89.15 1304.49,-84.14"/>
</g>
<!-- Node39 -->
<g id="node39" class="node">
<title>Node39</title>
<g id="a_node39"><a xlink:title=" ">
<polygon fill="#e0e0e0" stroke="#999999" points="1539.5,-79.5 1486.5,-79.5 1486.5,-60.5 1539.5,-60.5 1539.5,-79.5"/>
<text text-anchor="middle" x="1513" y="-67.5" font-family="Helvetica,sans-Serif" font-size="10.00">cstddef</text>
</a>
</g>
</g>
<!-- Node38&#45;&gt;Node39 -->
<g id="edge52" class="edge">
<title>Node38&#45;&gt;Node39</title>
<path fill="none" stroke="#63b8ff" d="M1372.21,-120.97C1398.74,-112.24 1440.89,-98.15 1477,-85 1478.6,-84.42 1480.24,-83.81 1481.9,-83.19"/>
<polygon fill="#63b8ff" stroke="#63b8ff" points="1483.25,-86.42 1491.36,-79.59 1480.76,-79.88 1483.25,-86.42"/>
</g>
<!-- Node40 -->
<g id="node40" class="node">
<title>Node40</title>
<g id="a_node40"><a xlink:title=" ">
<polygon fill="#e0e0e0" stroke="#999999" points="1608,-79.5 1558,-79.5 1558,-60.5 1608,-60.5 1608,-79.5"/>
<text text-anchor="middle" x="1583" y="-67.5" font-family="Helvetica,sans-Serif" font-size="10.00">cstring</text>
</a>
</g>
</g>
<!-- Node38&#45;&gt;Node40 -->
<g id="edge53" class="edge">
<title>Node38&#45;&gt;Node40</title>
<path fill="none" stroke="#63b8ff" d="M1396.27,-121.01C1437.75,-113.41 1497.87,-101 1549,-85 1550.68,-84.48 1552.38,-83.9 1554.1,-83.3"/>
<polygon fill="#63b8ff" stroke="#63b8ff" points="1555.7,-86.43 1563.8,-79.59 1553.21,-79.89 1555.7,-86.43"/>
</g>
<!-- Node41 -->
<g id="node41" class="node">
<title>Node41</title>
<g id="a_node41"><a xlink:title=" ">
<polygon fill="#e0e0e0" stroke="#999999" points="1468,-79.5 1404,-79.5 1404,-60.5 1468,-60.5 1468,-79.5"/>
<text text-anchor="middle" x="1436" y="-67.5" font-family="Helvetica,sans-Serif" font-size="10.00">algorithm</text>
</a>
</g>
</g>
<!-- Node38&#45;&gt;Node41 -->
<g id="edge54" class="edge">
<title>Node38&#45;&gt;Node41</title>
<path fill="none" stroke="#63b8ff" d="M1359.28,-120.87C1373.64,-111.54 1396.76,-96.51 1413.87,-85.38"/>
<polygon fill="#63b8ff" stroke="#63b8ff" points="1416.19,-88.05 1422.67,-79.67 1412.37,-82.18 1416.19,-88.05"/>
</g>
<!-- Node44&#45;&gt;Node6 -->
<g id="edge60" class="edge">
<title>Node44&#45;&gt;Node6</title>
<path fill="none" stroke="#63b8ff" d="M1592.54,-120.87C1607.75,-106.09 1634.1,-75.54 1617,-55 1591.39,-24.23 1473.18,-14.65 1412.37,-11.74"/>
<polygon fill="#63b8ff" stroke="#63b8ff" points="1412.21,-8.22 1402.07,-11.28 1411.9,-15.22 1412.21,-8.22"/>
</g>
<!-- Node44&#45;&gt;Node40 -->
<g id="edge61" class="edge">
<title>Node44&#45;&gt;Node40</title>
<path fill="none" stroke="#63b8ff" d="M1583,-120.87C1583,-112.75 1583,-100.31 1583,-89.89"/>
<polygon fill="#63b8ff" stroke="#63b8ff" points="1586.5,-89.67 1583,-79.67 1579.5,-89.67 1586.5,-89.67"/>
</g>
<!-- Node45&#45;&gt;Node3 -->
<g id="edge63" class="edge">
<title>Node45&#45;&gt;Node3</title>
<path fill="none" stroke="#63b8ff" d="M509.12,-175.88C500.36,-163.29 483.08,-139.35 466,-121 456.47,-110.76 445.09,-100.32 435.08,-91.65"/>
<polygon fill="#63b8ff" stroke="#63b8ff" points="437.3,-88.93 427.42,-85.11 432.75,-94.26 437.3,-88.93"/>
</g>
<!-- Node45&#45;&gt;Node8 -->
<g id="edge64" class="edge">
<title>Node45&#45;&gt;Node8</title>
<path fill="none" stroke="#63b8ff" d="M516.28,-175.97C518.82,-159.01 524.59,-120.5 528.38,-95.14"/>
<polygon fill="#63b8ff" stroke="#63b8ff" points="531.86,-95.59 529.88,-85.18 524.93,-94.55 531.86,-95.59"/>
</g>
<!-- Node45&#45;&gt;Node17 -->
<g id="edge65" class="edge">
<title>Node45&#45;&gt;Node17</title>
<path fill="none" stroke="#63b8ff" d="M525.82,-175.97C548.4,-158.17 601.06,-116.67 632.98,-91.51"/>
<polygon fill="#63b8ff" stroke="#63b8ff" points="635.32,-94.12 641.01,-85.18 630.99,-88.62 635.32,-94.12"/>
</g>
<!-- Node45&#45;&gt;Node49 -->
<g id="edge66" class="edge">
<title>Node45&#45;&gt;Node49</title>
<path fill="none" stroke="#63b8ff" d="M497.81,-175.98C480.75,-167.54 454.37,-154.47 434.6,-144.68"/>
<polygon fill="#63b8ff" stroke="#63b8ff" points="436.02,-141.47 425.5,-140.17 432.91,-147.75 436.02,-141.47"/>
</g>
<!-- Node49&#45;&gt;Node18 -->
<g id="edge67" class="edge">
<title>Node49&#45;&gt;Node18</title>
<path fill="none" stroke="#63b8ff" d="M385.03,-120.99C358.11,-111.03 313.33,-94.45 282.77,-83.13"/>
<polygon fill="#63b8ff" stroke="#63b8ff" points="283.6,-79.71 273,-79.52 281.16,-86.27 283.6,-79.71"/>
</g>
<!-- Node50&#45;&gt;Node35 -->
<g id="edge74" class="edge">
<title>Node50&#45;&gt;Node35</title>
<path fill="none" stroke="#63b8ff" d="M874.82,-346.32C881.12,-332.62 894.61,-305.5 911,-286 920.3,-274.93 932.56,-264.44 942.95,-256.43"/>
<polygon fill="#63b8ff" stroke="#63b8ff" points="945.21,-259.11 951.13,-250.32 941.03,-253.5 945.21,-259.11"/>
</g>
<!-- Node51 -->
<g id="node46" class="node">
<title>Node51</title>
<g id="a_node46"><a xlink:title=" ">
<polygon fill="#e0e0e0" stroke="#999999" points="863.5,-305 816.5,-305 816.5,-286 863.5,-286 863.5,-305"/>
<text text-anchor="middle" x="840" y="-293" font-family="Helvetica,sans-Serif" font-size="10.00">deque</text>
</a>
</g>
</g>
<!-- Node50&#45;&gt;Node51 -->
<g id="edge73" class="edge">
<title>Node50&#45;&gt;Node51</title>
<path fill="none" stroke="#63b8ff" d="M866.43,-346.37C861.94,-337.9 854.97,-324.74 849.31,-314.07"/>
<polygon fill="#63b8ff" stroke="#63b8ff" points="852.37,-312.36 844.59,-305.17 846.18,-315.64 852.37,-312.36"/>
</g>
<!-- Node52&#45;&gt;Node37 -->
<g id="edge77" class="edge">
<title>Node52&#45;&gt;Node37</title>
<path fill="none" stroke="#63b8ff" d="M1336,-285.66C1336,-268.17 1336,-228.8 1336,-205.27"/>
<polygon fill="#63b8ff" stroke="#63b8ff" points="1339.5,-205.16 1336,-195.16 1332.5,-205.16 1339.5,-205.16"/>
</g>
<!-- Node53&#45;&gt;Node35 -->
<g id="edge79" class="edge">
<title>Node53&#45;&gt;Node35</title>
<path fill="none" stroke="#63b8ff" d="M964,-285.75C964,-278.8 964,-268.85 964,-260.13"/>
<polygon fill="#63b8ff" stroke="#63b8ff" points="967.5,-260.09 964,-250.09 960.5,-260.09 967.5,-260.09"/>
</g>
<!-- Node54&#45;&gt;Node35 -->
<g id="edge81" class="edge">
<title>Node54&#45;&gt;Node35</title>
<path fill="none" stroke="#63b8ff" d="M1050.45,-285.98C1034.11,-277.57 1008.87,-264.59 989.87,-254.81"/>
<polygon fill="#63b8ff" stroke="#63b8ff" points="991.34,-251.63 980.85,-250.17 988.14,-257.86 991.34,-251.63"/>
</g>
<!-- Node55&#45;&gt;Node7 -->
<g id="edge85" class="edge">
<title>Node55&#45;&gt;Node7</title>
<path fill="none" stroke="#63b8ff" d="M441.76,-230.98C482.32,-221.84 546.89,-207.27 591.03,-197.32"/>
<polygon fill="#63b8ff" stroke="#63b8ff" points="591.96,-200.7 600.95,-195.08 590.42,-193.87 591.96,-200.7"/>
</g>
<!-- Node55&#45;&gt;Node12 -->
<g id="edge84" class="edge">
<title>Node55&#45;&gt;Node12</title>
<path fill="none" stroke="#63b8ff" d="M397.18,-230.83C384.67,-214.32 358.47,-176.69 349,-140 339.56,-103.42 336.64,-90.7 349,-55 352.67,-44.38 360.04,-34.38 367.08,-26.55"/>
<polygon fill="#63b8ff" stroke="#63b8ff" points="369.7,-28.88 374.12,-19.25 364.66,-24.02 369.7,-28.88"/>
</g>
</g>
</svg>
