<?xml version="1.0" encoding="UTF-8" standalone="no"?>
<!DOCTYPE svg PUBLIC "-//W3C//DTD SVG 1.1//EN"
 "http://www.w3.org/Graphics/SVG/1.1/DTD/svg11.dtd">
<!-- Generated by graphviz version 2.43.0 (0)
 -->
<!-- Title: thorin/fe/lexer.h Pages: 1 -->
<!--zoomable 259 -->

<svg id="main" version="1.1" xmlns="http://www.w3.org/2000/svg" xmlns:xlink="http://www.w3.org/1999/xlink" xml:space="preserve" onload="init(evt)">
<style type="text/css"><![CDATA[
.node, .edge {opacity: 0.7;}
.node.selected, .edge.selected {opacity: 1;}
.edge:hover path { stroke: red; }
.edge:hover polygon { stroke: red; fill: red; }
]]></style>

<defs>
  <circle id="rim" cx="0" cy="0" r="7"/>
  <circle id="rim2" cx="0" cy="0" r="3.5"/>
  <g id="zoomPlus">
    <use xlink:href="#rim" fill="#404040"><set attributeName="fill" to="#808080" begin="zoomplus.mouseover" end="zoomplus.mouseout"/></use>
    <path d="M-4,0h8M0,-4v8" fill="none" stroke="white" stroke-width="1.5" pointer-events="none"/>
  </g>
  <g id="zoomMin">
    <use xlink:href="#rim" fill="#404040"><set attributeName="fill" to="#808080" begin="zoomminus.mouseover" end="zoomminus.mouseout"/></use>
    <path d="M-4,0h8" fill="none" stroke="white" stroke-width="1.5" pointer-events="none"/>
  </g>
  <g id="arrowUp" transform="translate(30 24)">
    <use xlink:href="#rim"/>
    <path pointer-events="none" fill="none" stroke="white" stroke-width="1.5" d="M0,-3.0v7 M-2.5,-0.5L0,-3.0L2.5,-0.5"/>
  </g>
  <g id="arrowRight" transform="rotate(90) translate(36 -43)">
    <use xlink:href="#rim"/>
    <path pointer-events="none" fill="none" stroke="white" stroke-width="1.5" d="M0,-3.0v7 M-2.5,-0.5L0,-3.0L2.5,-0.5"/>
  </g>
  <g id="arrowDown" transform="rotate(180) translate(-30 -48)">
    <use xlink:href="#rim"/>
    <path pointer-events="none" fill="none" stroke="white" stroke-width="1.5" d="M0,-3.0v7 M-2.5,-0.5L0,-3.0L2.5,-0.5"/>
  </g>
  <g id="arrowLeft" transform="rotate(270) translate(-36 17)">
    <use xlink:href="#rim"/>
    <path pointer-events="none" fill="none" stroke="white" stroke-width="1.5" d="M0,-3.0v7 M-2.5,-0.5L0,-3.0L2.5,-0.5"/>
  </g>
  <g id="resetDef">
    <use xlink:href="#rim2" fill="#404040"><set attributeName="fill" to="#808080" begin="reset.mouseover" end="reset.mouseout"/></use>
  </g>
</defs>
<script type="application/ecmascript">
var viewWidth = 997;
var viewHeight = 259;
var sectionId = 'dynsection-0';
</script>
<script type="application/ecmascript" xlink:href="svg.min.js"/>
<svg id="graph" class="graph">
<g id="viewport">
<title>thorin/fe/lexer.h</title>
<!-- Node1 -->
<g id="Node000001" class="node">
<title>Node1</title>
<g id="a_Node000001"><a xlink:title=" ">
<polygon fill="#999999" stroke="#666666" points="505.9,-250 412.9,-250 412.9,-231 505.9,-231 505.9,-250"/>
<text text-anchor="middle" x="459.4" y="-238" font-family="Helvetica,sans-Serif" font-size="10.00">thorin/fe/lexer.h</text>
</a>
</g>
</g>
<!-- Node1&#45;&gt;Node1 -->
<g id="edge3_Node000001_Node000001" class="edge">
<title>Node1&#45;&gt;Node1</title>
<g id="a_edge3_Node000001_Node000001"><a xlink:title=" ">
<path fill="none" stroke="#63b8ff" d="M489.59,-250.03C507.31,-252.06 523.9,-248.88 523.9,-240.5 523.9,-233.75 513.16,-230.38 499.73,-230.38"/>
<polygon fill="#63b8ff" stroke="#63b8ff" points="499.37,-226.89 489.59,-230.97 499.78,-233.88 499.37,-226.89"/>
</a>
</g>
</g>
<!-- Node2 -->
<g id="Node000002" class="node">
<title>Node2</title>
<g id="a_Node000002"><a xlink:title=" ">
<polygon fill="#e0e0e0" stroke="#999999" points="398.4,-195 342.4,-195 342.4,-176 398.4,-176 398.4,-195"/>
<text text-anchor="middle" x="370.4" y="-183" font-family="Helvetica,sans-Serif" font-size="10.00">optional</text>
</a>
</g>
</g>
<!-- Node1&#45;&gt;Node2 -->
<g id="edge1_Node000001_Node000002" class="edge">
<title>Node1&#45;&gt;Node2</title>
<g id="a_edge1_Node000001_Node000002"><a xlink:title=" ">
<path fill="none" stroke="#63b8ff" d="M445.1,-230.98C431.3,-222.77 410.16,-210.18 393.88,-200.49"/>
<polygon fill="#63b8ff" stroke="#63b8ff" points="395.34,-197.28 384.96,-195.17 391.76,-203.29 395.34,-197.28"/>
</a>
</g>
</g>
<!-- Node3 -->
<g id="Node000003" class="node">
<title>Node3</title>
<g id="a_Node000003"><a xlink:title=" ">
<polygon fill="#e0e0e0" stroke="#999999" points="989.4,-85 885.4,-85 885.4,-55 989.4,-55 989.4,-85"/>
<text text-anchor="start" x="893.4" y="-73" font-family="Helvetica,sans-Serif" font-size="10.00">absl/container/flat</text>
<text text-anchor="middle" x="937.4" y="-62" font-family="Helvetica,sans-Serif" font-size="10.00">_hash_map.h</text>
</a>
</g>
</g>
<!-- Node1&#45;&gt;Node3 -->
<g id="edge2_Node000001_Node000003" class="edge">
<title>Node1&#45;&gt;Node3</title>
<g id="a_edge2_Node000001_Node000003"><a xlink:title=" ">
<path fill="none" stroke="#63b8ff" d="M483.76,-230.91C558.6,-204.53 786.25,-124.28 887.7,-88.52"/>
<polygon fill="#63b8ff" stroke="#63b8ff" points="889.14,-91.72 897.4,-85.1 886.81,-85.12 889.14,-91.72"/>
</a>
</g>
</g>
<!-- Node4 -->
<g id="Node000004" class="node">
<title>Node4</title>
<g id="a_Node000004"><a xlink:href="tok_8h.html" target="_top" xlink:title=" ">
<polygon fill="white" stroke="#666666" points="502.4,-195 416.4,-195 416.4,-176 502.4,-176 502.4,-195"/>
<text text-anchor="middle" x="459.4" y="-183" font-family="Helvetica,sans-Serif" font-size="10.00">thorin/fe/tok.h</text>
</a>
</g>
</g>
<!-- Node1&#45;&gt;Node4 -->
<g id="edge4_Node000001_Node000004" class="edge">
<title>Node1&#45;&gt;Node4</title>
<g id="a_edge4_Node000001_Node000004"><a xlink:title=" ">
<path fill="none" stroke="#63b8ff" d="M459.4,-230.75C459.4,-223.8 459.4,-213.85 459.4,-205.13"/>
<polygon fill="#63b8ff" stroke="#63b8ff" points="462.9,-205.09 459.4,-195.09 455.9,-205.09 462.9,-205.09"/>
</a>
</g>
</g>
<!-- Node5 -->
<g id="Node000005" class="node">
<title>Node5</title>
<g id="a_Node000005"><a xlink:title=" ">
<polygon fill="#e0e0e0" stroke="#999999" points="201.4,-19 133.4,-19 133.4,0 201.4,0 201.4,-19"/>
<text text-anchor="middle" x="167.4" y="-7" font-family="Helvetica,sans-Serif" font-size="10.00">fe/assert.h</text>
</a>
</g>
</g>
<!-- Node4&#45;&gt;Node5 -->
<g id="edge5_Node000004_Node000005" class="edge">
<title>Node4&#45;&gt;Node5</title>
<g id="a_edge5_Node000004_Node000005"><a xlink:title=" ">
<path fill="none" stroke="#63b8ff" d="M416.2,-177.41C347.57,-166.09 219.23,-144.76 198.4,-140 112.28,-120.32 60.52,-155.58 7.4,-85 -25.46,-41.35 65.06,-22.36 123.04,-14.86"/>
<polygon fill="#63b8ff" stroke="#63b8ff" points="123.6,-18.32 133.1,-13.63 122.75,-11.37 123.6,-18.32"/>
</a>
</g>
</g>
<!-- Node6 -->
<g id="Node000006" class="node">
<title>Node6</title>
<g id="a_Node000006"><a xlink:href="dbg_8h.html" target="_top" xlink:title=" ">
<polygon fill="white" stroke="#666666" points="707.4,-140 613.4,-140 613.4,-121 707.4,-121 707.4,-140"/>
<text text-anchor="middle" x="660.4" y="-128" font-family="Helvetica,sans-Serif" font-size="10.00">thorin/util/dbg.h</text>
</a>
</g>
</g>
<!-- Node4&#45;&gt;Node6 -->
<g id="edge6_Node000004_Node000006" class="edge">
<title>Node4&#45;&gt;Node6</title>
<g id="a_edge6_Node000004_Node000006"><a xlink:title=" ">
<path fill="none" stroke="#63b8ff" d="M491.69,-175.98C526.02,-166.93 580.46,-152.58 618.17,-142.64"/>
<polygon fill="#63b8ff" stroke="#63b8ff" points="619.07,-146.02 627.85,-140.08 617.29,-139.25 619.07,-146.02"/>
</a>
</g>
</g>
<!-- Node18 -->
<g id="Node000018" class="node">
<title>Node18</title>
<g id="a_Node000018"><a xlink:href="types_8h.html" target="_top" xlink:title=" ">
<polygon fill="white" stroke="#666666" points="310.9,-140 207.9,-140 207.9,-121 310.9,-121 310.9,-140"/>
<text text-anchor="middle" x="259.4" y="-128" font-family="Helvetica,sans-Serif" font-size="10.00">thorin/util/types.h</text>
</a>
</g>
</g>
<!-- Node4&#45;&gt;Node18 -->
<g id="edge20_Node000004_Node000018" class="edge">
<title>Node4&#45;&gt;Node18</title>
<g id="a_edge20_Node000004_Node000018"><a xlink:title=" ">
<path fill="none" stroke="#63b8ff" d="M427.26,-175.98C393.25,-166.97 339.4,-152.7 301.9,-142.76"/>
<polygon fill="#63b8ff" stroke="#63b8ff" points="302.35,-139.26 291.78,-140.08 300.55,-146.03 302.35,-139.26"/>
</a>
</g>
</g>
<!-- Node6&#45;&gt;Node3 -->
<g id="edge10_Node000006_Node000003" class="edge">
<title>Node6&#45;&gt;Node3</title>
<g id="a_edge10_Node000006_Node000003"><a xlink:title=" ">
<path fill="none" stroke="#63b8ff" d="M703.49,-120.92C745,-112.59 809.82,-99.4 875.12,-85.25"/>
<polygon fill="#63b8ff" stroke="#63b8ff" points="876.14,-88.61 885.17,-83.07 874.66,-81.77 876.14,-88.61"/>
</a>
</g>
</g>
<!-- Node7 -->
<g id="Node000007" class="node">
<title>Node7</title>
<g id="a_Node000007"><a xlink:title=" ">
<polygon fill="#e0e0e0" stroke="#999999" points="795.4,-79.5 727.4,-79.5 727.4,-60.5 795.4,-60.5 795.4,-79.5"/>
<text text-anchor="middle" x="761.4" y="-67.5" font-family="Helvetica,sans-Serif" font-size="10.00">filesystem</text>
</a>
</g>
</g>
<!-- Node6&#45;&gt;Node7 -->
<g id="edge7_Node000006_Node000007" class="edge">
<title>Node6&#45;&gt;Node7</title>
<g id="a_edge7_Node000006_Node000007"><a xlink:title=" ">
<path fill="none" stroke="#63b8ff" d="M675.3,-120.87C691.71,-111.36 718.32,-95.95 737.62,-84.77"/>
<polygon fill="#63b8ff" stroke="#63b8ff" points="739.53,-87.71 746.43,-79.67 736.03,-81.65 739.53,-87.71"/>
</a>
</g>
</g>
<!-- Node8 -->
<g id="Node000008" class="node">
<title>Node8</title>
<g id="a_Node000008"><a xlink:title=" ">
<polygon fill="#e0e0e0" stroke="#999999" points="866.9,-79.5 813.9,-79.5 813.9,-60.5 866.9,-60.5 866.9,-79.5"/>
<text text-anchor="middle" x="840.4" y="-67.5" font-family="Helvetica,sans-Serif" font-size="10.00">fe/loc.h</text>
</a>
</g>
</g>
<!-- Node6&#45;&gt;Node8 -->
<g id="edge8_Node000006_Node000008" class="edge">
<title>Node6&#45;&gt;Node8</title>
<g id="a_edge8_Node000006_Node000008"><a xlink:title=" ">
<path fill="none" stroke="#63b8ff" d="M690.11,-120.99C719.37,-112.45 765.23,-98.65 804.4,-85 806.05,-84.42 807.74,-83.82 809.45,-83.2"/>
<polygon fill="#63b8ff" stroke="#63b8ff" points="811.04,-86.34 819.17,-79.54 808.58,-79.79 811.04,-86.34"/>
</a>
</g>
</g>
<!-- Node9 -->
<g id="Node000009" class="node">
<title>Node9</title>
<g id="a_Node000009"><a xlink:title=" ">
<polygon fill="#e0e0e0" stroke="#999999" points="470.9,-79.5 411.9,-79.5 411.9,-60.5 470.9,-60.5 470.9,-79.5"/>
<text text-anchor="middle" x="441.4" y="-67.5" font-family="Helvetica,sans-Serif" font-size="10.00">fe/sym.h</text>
</a>
</g>
</g>
<!-- Node6&#45;&gt;Node9 -->
<g id="edge9_Node000006_Node000009" class="edge">
<title>Node6&#45;&gt;Node9</title>
<g id="a_edge9_Node000006_Node000009"><a xlink:title=" ">
<path fill="none" stroke="#63b8ff" d="M620.75,-120.93C584.07,-112.7 528.16,-99.44 480.4,-85 478.13,-84.32 475.8,-83.58 473.47,-82.81"/>
<polygon fill="#63b8ff" stroke="#63b8ff" points="474.55,-79.48 463.95,-79.54 472.27,-86.1 474.55,-79.48"/>
</a>
</g>
</g>
<!-- Node10 -->
<g id="Node000010" class="node">
<title>Node10</title>
<g id="a_Node000010"><a xlink:title=" ">
<polygon fill="#e0e0e0" stroke="#999999" points="593.4,-85 489.4,-85 489.4,-55 593.4,-55 593.4,-85"/>
<text text-anchor="start" x="497.4" y="-73" font-family="Helvetica,sans-Serif" font-size="10.00">absl/container/flat</text>
<text text-anchor="middle" x="541.4" y="-62" font-family="Helvetica,sans-Serif" font-size="10.00">_hash_set.h</text>
</a>
</g>
</g>
<!-- Node6&#45;&gt;Node10 -->
<g id="edge11_Node000006_Node000010" class="edge">
<title>Node6&#45;&gt;Node10</title>
<g id="a_edge11_Node000006_Node000010"><a xlink:title=" ">
<path fill="none" stroke="#63b8ff" d="M643.09,-120.99C626.47,-112.82 600.8,-100.2 579.41,-89.69"/>
<polygon fill="#63b8ff" stroke="#63b8ff" points="580.76,-86.45 570.24,-85.18 577.67,-92.73 580.76,-86.45"/>
</a>
</g>
</g>
<!-- Node11 -->
<g id="Node000011" class="node">
<title>Node11</title>
<g id="a_Node000011"><a xlink:href="print_8h.html" target="_top" xlink:title=" ">
<polygon fill="white" stroke="#666666" points="709.4,-79.5 611.4,-79.5 611.4,-60.5 709.4,-60.5 709.4,-79.5"/>
<text text-anchor="middle" x="660.4" y="-67.5" font-family="Helvetica,sans-Serif" font-size="10.00">thorin/util/print.h</text>
</a>
</g>
</g>
<!-- Node6&#45;&gt;Node11 -->
<g id="edge12_Node000006_Node000011" class="edge">
<title>Node6&#45;&gt;Node11</title>
<g id="a_edge12_Node000006_Node000011"><a xlink:title=" ">
<path fill="none" stroke="#63b8ff" d="M660.4,-120.87C660.4,-112.75 660.4,-100.31 660.4,-89.89"/>
<polygon fill="#63b8ff" stroke="#63b8ff" points="663.9,-89.67 660.4,-79.67 656.9,-89.67 663.9,-89.67"/>
</a>
</g>
</g>
<!-- Node11&#45;&gt;Node5 -->
<g id="edge19_Node000011_Node000005" class="edge">
<title>Node11&#45;&gt;Node5</title>
<g id="a_edge19_Node000011_Node000005"><a xlink:title=" ">
<path fill="none" stroke="#63b8ff" d="M628.35,-60.45C619.95,-58.43 610.87,-56.45 602.4,-55 460.6,-30.75 290.39,-18.02 211.51,-13.04"/>
<polygon fill="#63b8ff" stroke="#63b8ff" points="211.65,-9.54 201.45,-12.42 211.21,-16.53 211.65,-9.54"/>
</a>
</g>
</g>
<!-- Node12 -->
<g id="Node000012" class="node">
<title>Node12</title>
<g id="a_Node000012"><a xlink:title=" ">
<polygon fill="#e0e0e0" stroke="#999999" points="538.9,-19 473.9,-19 473.9,0 538.9,0 538.9,-19"/>
<text text-anchor="middle" x="506.4" y="-7" font-family="Helvetica,sans-Serif" font-size="10.00">functional</text>
</a>
</g>
</g>
<!-- Node11&#45;&gt;Node12 -->
<g id="edge13_Node000011_Node000012" class="edge">
<title>Node11&#45;&gt;Node12</title>
<g id="a_edge13_Node000011_Node000012"><a xlink:title=" ">
<path fill="none" stroke="#63b8ff" d="M638,-60.49C611.77,-50.53 568.12,-33.95 538.34,-22.63"/>
<polygon fill="#63b8ff" stroke="#63b8ff" points="539.41,-19.3 528.82,-19.02 536.92,-25.84 539.41,-19.3"/>
</a>
</g>
</g>
<!-- Node13 -->
<g id="Node000013" class="node">
<title>Node13</title>
<g id="a_Node000013"><a xlink:title=" ">
<polygon fill="#e0e0e0" stroke="#999999" points="617.4,-19 557.4,-19 557.4,0 617.4,0 617.4,-19"/>
<text text-anchor="middle" x="587.4" y="-7" font-family="Helvetica,sans-Serif" font-size="10.00">iostream</text>
</a>
</g>
</g>
<!-- Node11&#45;&gt;Node13 -->
<g id="edge14_Node000011_Node000013" class="edge">
<title>Node11&#45;&gt;Node13</title>
<g id="a_edge14_Node000011_Node000013"><a xlink:title=" ">
<path fill="none" stroke="#63b8ff" d="M649.63,-60.37C638.2,-51.21 619.92,-36.56 606.12,-25.51"/>
<polygon fill="#63b8ff" stroke="#63b8ff" points="608.21,-22.69 598.21,-19.17 603.83,-28.15 608.21,-22.69"/>
</a>
</g>
</g>
<!-- Node14 -->
<g id="Node000014" class="node">
<title>Node14</title>
<g id="a_Node000014"><a xlink:title=" ">
<polygon fill="#e0e0e0" stroke="#999999" points="399.9,-19 342.9,-19 342.9,0 399.9,0 399.9,-19"/>
<text text-anchor="middle" x="371.4" y="-7" font-family="Helvetica,sans-Serif" font-size="10.00">ostream</text>
</a>
</g>
</g>
<!-- Node11&#45;&gt;Node14 -->
<g id="edge15_Node000011_Node000014" class="edge">
<title>Node11&#45;&gt;Node14</title>
<g id="a_edge15_Node000011_Node000014"><a xlink:title=" ">
<path fill="none" stroke="#63b8ff" d="M626.11,-60.44C618.33,-58.58 610.09,-56.67 602.4,-55 535,-40.38 456.02,-25.69 410.05,-17.38"/>
<polygon fill="#63b8ff" stroke="#63b8ff" points="410.4,-13.88 399.93,-15.56 409.16,-20.77 410.4,-13.88"/>
</a>
</g>
</g>
<!-- Node15 -->
<g id="Node000015" class="node">
<title>Node15</title>
<g id="a_Node000015"><a xlink:title=" ">
<polygon fill="#e0e0e0" stroke="#999999" points="685.4,-19 635.4,-19 635.4,0 685.4,0 685.4,-19"/>
<text text-anchor="middle" x="660.4" y="-7" font-family="Helvetica,sans-Serif" font-size="10.00">ranges</text>
</a>
</g>
</g>
<!-- Node11&#45;&gt;Node15 -->
<g id="edge16_Node000011_Node000015" class="edge">
<title>Node11&#45;&gt;Node15</title>
<g id="a_edge16_Node000011_Node000015"><a xlink:title=" ">
<path fill="none" stroke="#63b8ff" d="M660.4,-60.37C660.4,-52.25 660.4,-39.81 660.4,-29.39"/>
<polygon fill="#63b8ff" stroke="#63b8ff" points="663.9,-29.17 660.4,-19.17 656.9,-29.17 663.9,-29.17"/>
</a>
</g>
</g>
<!-- Node16 -->
<g id="Node000016" class="node">
<title>Node16</title>
<g id="a_Node000016"><a xlink:title=" ">
<polygon fill="#e0e0e0" stroke="#999999" points="759.4,-19 703.4,-19 703.4,0 759.4,0 759.4,-19"/>
<text text-anchor="middle" x="731.4" y="-7" font-family="Helvetica,sans-Serif" font-size="10.00">sstream</text>
</a>
</g>
</g>
<!-- Node11&#45;&gt;Node16 -->
<g id="edge17_Node000011_Node000016" class="edge">
<title>Node11&#45;&gt;Node16</title>
<g id="a_edge17_Node000011_Node000016"><a xlink:title=" ">
<path fill="none" stroke="#63b8ff" d="M670.87,-60.37C681.89,-51.3 699.43,-36.84 712.8,-25.82"/>
<polygon fill="#63b8ff" stroke="#63b8ff" points="715.39,-28.23 720.88,-19.17 710.93,-22.83 715.39,-28.23"/>
</a>
</g>
</g>
<!-- Node17 -->
<g id="Node000017" class="node">
<title>Node17</title>
<g id="a_Node000017"><a xlink:title=" ">
<polygon fill="#e0e0e0" stroke="#999999" points="821.4,-19 777.4,-19 777.4,0 821.4,0 821.4,-19"/>
<text text-anchor="middle" x="799.4" y="-7" font-family="Helvetica,sans-Serif" font-size="10.00">string</text>
</a>
</g>
</g>
<!-- Node11&#45;&gt;Node17 -->
<g id="edge18_Node000011_Node000017" class="edge">
<title>Node11&#45;&gt;Node17</title>
<g id="a_edge18_Node000011_Node000017"><a xlink:title=" ">
<path fill="none" stroke="#63b8ff" d="M680.61,-60.49C704.08,-50.62 743,-34.23 769.86,-22.93"/>
<polygon fill="#63b8ff" stroke="#63b8ff" points="771.3,-26.12 779.16,-19.02 768.59,-19.67 771.3,-26.12"/>
</a>
</g>
</g>
<!-- Node18&#45;&gt;Node14 -->
<g id="edge23_Node000018_Node000014" class="edge">
<title>Node18&#45;&gt;Node14</title>
<g id="a_edge23_Node000018_Node000014"><a xlink:title=" ">
<path fill="none" stroke="#63b8ff" d="M267.45,-120.94C286.01,-101.23 332.02,-52.34 356.12,-26.73"/>
<polygon fill="#63b8ff" stroke="#63b8ff" points="358.81,-28.98 363.11,-19.3 353.71,-24.18 358.81,-28.98"/>
</a>
</g>
</g>
<!-- Node19 -->
<g id="Node000019" class="node">
<title>Node19</title>
<g id="a_Node000019"><a xlink:title=" ">
<polygon fill="#e0e0e0" stroke="#999999" points="393.4,-79.5 343.4,-79.5 343.4,-60.5 393.4,-60.5 393.4,-79.5"/>
<text text-anchor="middle" x="368.4" y="-67.5" font-family="Helvetica,sans-Serif" font-size="10.00">cstdint</text>
</a>
</g>
</g>
<!-- Node18&#45;&gt;Node19 -->
<g id="edge21_Node000018_Node000019" class="edge">
<title>Node18&#45;&gt;Node19</title>
<g id="a_edge21_Node000018_Node000019"><a xlink:title=" ">
<path fill="none" stroke="#63b8ff" d="M275.48,-120.87C293.35,-111.28 322.44,-95.67 343.31,-84.47"/>
<polygon fill="#63b8ff" stroke="#63b8ff" points="345.09,-87.48 352.25,-79.67 341.78,-81.31 345.09,-87.48"/>
</a>
</g>
</g>
<!-- Node20 -->
<g id="Node000020" class="node">
<title>Node20</title>
<g id="a_Node000020"><a xlink:title=" ">
<polygon fill="#e0e0e0" stroke="#999999" points="60.4,-79.5 16.4,-79.5 16.4,-60.5 60.4,-60.5 60.4,-79.5"/>
<text text-anchor="middle" x="38.4" y="-67.5" font-family="Helvetica,sans-Serif" font-size="10.00">limits</text>
</a>
</g>
</g>
<!-- Node18&#45;&gt;Node20 -->
<g id="edge22_Node000018_Node000020" class="edge">
<title>Node18&#45;&gt;Node20</title>
<g id="a_edge22_Node000018_Node000020"><a xlink:title=" ">
<path fill="none" stroke="#63b8ff" d="M211.44,-120.95C172.58,-113.38 116.72,-101.06 69.4,-85 68,-84.53 66.58,-84.01 65.15,-83.47"/>
<polygon fill="#63b8ff" stroke="#63b8ff" points="66.44,-80.21 55.86,-79.6 63.75,-86.67 66.44,-80.21"/>
</a>
</g>
</g>
<!-- Node21 -->
<g id="Node000021" class="node">
<title>Node21</title>
<g id="a_Node000021"><a xlink:title=" ">
<polygon fill="#e0e0e0" stroke="#999999" points="147.9,-79.5 78.9,-79.5 78.9,-60.5 147.9,-60.5 147.9,-79.5"/>
<text text-anchor="middle" x="113.4" y="-67.5" font-family="Helvetica,sans-Serif" font-size="10.00">type_traits</text>
</a>
</g>
</g>
<!-- Node18&#45;&gt;Node21 -->
<g id="edge24_Node000018_Node000021" class="edge">
<title>Node18&#45;&gt;Node21</title>
<g id="a_edge24_Node000018_Node000021"><a xlink:title=" ">
<path fill="none" stroke="#63b8ff" d="M238.17,-120.99C213.41,-111.07 172.27,-94.59 144.05,-83.28"/>
<polygon fill="#63b8ff" stroke="#63b8ff" points="145.24,-79.99 134.65,-79.52 142.63,-86.49 145.24,-79.99"/>
</a>
</g>
</g>
<!-- Node22 -->
<g id="Node000022" class="node">
<title>Node22</title>
<g id="a_Node000022"><a xlink:title=" ">
<polygon fill="#e0e0e0" stroke="#999999" points="212.9,-79.5 165.9,-79.5 165.9,-60.5 212.9,-60.5 212.9,-79.5"/>
<text text-anchor="middle" x="189.4" y="-67.5" font-family="Helvetica,sans-Serif" font-size="10.00">cmath</text>
</a>
</g>
</g>
<!-- Node18&#45;&gt;Node22 -->
<g id="edge25_Node000018_Node000022" class="edge">
<title>Node18&#45;&gt;Node22</title>
<g id="a_edge25_Node000018_Node000022"><a xlink:title=" ">
<path fill="none" stroke="#63b8ff" d="M249.07,-120.87C238.21,-111.8 220.91,-97.34 207.73,-86.32"/>
<polygon fill="#63b8ff" stroke="#63b8ff" points="209.69,-83.39 199.77,-79.67 205.2,-88.77 209.69,-83.39"/>
</a>
</g>
</g>
<!-- Node23 -->
<g id="Node000023" class="node">
<title>Node23</title>
<g id="a_Node000023"><a xlink:title=" ">
<polygon fill="#e0e0e0" stroke="#999999" points="287.4,-79.5 231.4,-79.5 231.4,-60.5 287.4,-60.5 287.4,-79.5"/>
<text text-anchor="middle" x="259.4" y="-67.5" font-family="Helvetica,sans-Serif" font-size="10.00">half.hpp</text>
</a>
</g>
</g>
<!-- Node18&#45;&gt;Node23 -->
<g id="edge26_Node000018_Node000023" class="edge">
<title>Node18&#45;&gt;Node23</title>
<g id="a_edge26_Node000018_Node000023"><a xlink:title=" ">
<path fill="none" stroke="#63b8ff" d="M259.4,-120.87C259.4,-112.75 259.4,-100.31 259.4,-89.89"/>
<polygon fill="#63b8ff" stroke="#63b8ff" points="262.9,-89.67 259.4,-79.67 255.9,-89.67 262.9,-89.67"/>
</a>
</g>
</g>
</g>
</svg>

<g id="navigator" transform="translate(0 0)" fill="#404254">
  <rect fill="#f2f5e9" fill-opacity="0.5" stroke="#606060" stroke-width=".5" x="0" y="0" width="60" height="60"/>
  <use id="zoomplus" xlink:href="#zoomPlus" x="17" y="9" onmousedown="handleZoom(evt,'in')"/>
  <use id="zoomminus" xlink:href="#zoomMin" x="42" y="9" onmousedown="handleZoom(evt,'out')"/>
  <use id="reset" xlink:href="#resetDef" x="30" y="36" onmousedown="handleReset()"/>
   <use id="arrowup" xlink:href="#arrowUp" x="0" y="0" onmousedown="handlePan(0,-1)"/>
  <use id="arrowright" xlink:href="#arrowRight" x="0" y="0" onmousedown="handlePan(1,0)"/>
  <use id="arrowdown" xlink:href="#arrowDown" x="0" y="0" onmousedown="handlePan(0,1)"/>
  <use id="arrowleft" xlink:href="#arrowLeft" x="0" y="0" onmousedown="handlePan(-1,0)"/>
</g>
<svg viewBox="0 0 15 15" width="100%" height="30px" preserveAspectRatio="xMaxYMin meet">
 <g id="arrow_out" transform="scale(0.3 0.3)">
  <a xlink:href="lexer_8h__incl_org.svg" target="_base">
   <rect id="button" ry="5" rx="5" y="6" x="6" height="38" width="38"
        fill="#f2f5e9" fill-opacity="0.5" stroke="#606060" stroke-width="1.0"/>
   <path id="arrow"
     d="M 11.500037,31.436501 C 11.940474,20.09759 22.043105,11.32322 32.158766,21.979434 L 37.068811,17.246167 C 37.068811,17.246167 37.088388,32 37.088388,32 L 22.160133,31.978069 C 22.160133,31.978069 26.997745,27.140456 26.997745,27.140456 C 18.528582,18.264221 13.291696,25.230495 11.500037,31.436501 z"
     style="fill:#404040;"/>
  </a>
 </g>
</svg>

<style type='text/css'>
<![CDATA[
[data-mouse-over-selected='false'] { opacity: 0.7; }
[data-mouse-over-selected='true']  { opacity: 1.0; }
]]>
</style>
<script type="application/ecmascript"><![CDATA[
document.addEventListener('DOMContentLoaded', (event) => {
  highlightEdges();
  highlightAdjacentNodes();
});
]]></script>
</svg>
