<?xml version="1.0" encoding="UTF-8" standalone="no"?>
<!DOCTYPE svg PUBLIC "-//W3C//DTD SVG 1.1//EN"
 "http://www.w3.org/Graphics/SVG/1.1/DTD/svg11.dtd">
<!-- Generated by graphviz version 2.43.0 (0)
 -->
<!-- Title: thorin/util/log.h Pages: 1 -->
<svg width="4233pt" height="313pt"
 viewBox="0.00 0.00 4233.16 313.00" xmlns="http://www.w3.org/2000/svg" xmlns:xlink="http://www.w3.org/1999/xlink">
<g id="graph0" class="graph" transform="scale(1 1) rotate(0) translate(4 309)">
<title>thorin/util/log.h</title>
<!-- Node1 -->
<g id="node1" class="node">
<title>Node1</title>
<g id="a_node1"><a xlink:title=" ">
<polygon fill="#999999" stroke="#666666" points="2357.66,-305 2266.66,-305 2266.66,-286 2357.66,-286 2357.66,-305"/>
<text text-anchor="middle" x="2312.16" y="-293" font-family="Helvetica,sans-Serif" font-size="10.00">thorin/util/log.h</text>
</a>
</g>
</g>
<!-- Node2 -->
<g id="node2" class="node">
<title>Node2</title>
<g id="a_node2"><a xlink:href="driver_8h.html" target="_top" xlink:title=" ">
<polygon fill="white" stroke="#666666" points="344.66,-195 259.66,-195 259.66,-176 344.66,-176 344.66,-195"/>
<text text-anchor="middle" x="302.16" y="-183" font-family="Helvetica,sans-Serif" font-size="10.00">thorin/driver.h</text>
</a>
</g>
</g>
<!-- Node1&#45;&gt;Node2 -->
<g id="edge1" class="edge">
<title>Node1&#45;&gt;Node2</title>
<path fill="none" stroke="#63b8ff" d="M2256.05,-293.53C2023.02,-289.1 1108.76,-267.76 361.16,-195 355.9,-194.49 350.4,-193.84 344.96,-193.14"/>
<polygon fill="#63b8ff" stroke="#63b8ff" points="2256.25,-297.03 2266.31,-293.72 2256.38,-290.03 2256.25,-297.03"/>
</g>
<!-- Node11 -->
<g id="node11" class="node">
<title>Node11</title>
<g id="a_node11"><a xlink:href="log_8cpp.html" target="_top" xlink:title=" ">
<polygon fill="white" stroke="#666666" points="2474.16,-250 2372.16,-250 2372.16,-231 2474.16,-231 2474.16,-250"/>
<text text-anchor="middle" x="2423.16" y="-238" font-family="Helvetica,sans-Serif" font-size="10.00">thorin/util/log.cpp</text>
</a>
</g>
</g>
<!-- Node1&#45;&gt;Node11 -->
<g id="edge12" class="edge">
<title>Node1&#45;&gt;Node11</title>
<path fill="none" stroke="#63b8ff" d="M2339.1,-281.63C2359.55,-271.87 2387.1,-258.71 2405,-250.17"/>
<polygon fill="#63b8ff" stroke="#63b8ff" points="2337.51,-278.52 2329.99,-285.98 2340.52,-284.83 2337.51,-278.52"/>
</g>
<!-- Node12 -->
<g id="node12" class="node">
<title>Node12</title>
<g id="a_node12"><a xlink:href="world_8h.html" target="_top" xlink:title=" ">
<polygon fill="white" stroke="#666666" points="2354.16,-250 2270.16,-250 2270.16,-231 2354.16,-231 2354.16,-250"/>
<text text-anchor="middle" x="2312.16" y="-238" font-family="Helvetica,sans-Serif" font-size="10.00">thorin/world.h</text>
</a>
</g>
</g>
<!-- Node1&#45;&gt;Node12 -->
<g id="edge13" class="edge">
<title>Node1&#45;&gt;Node12</title>
<path fill="none" stroke="#63b8ff" d="M2312.16,-275.66C2312.16,-266.93 2312.16,-256.99 2312.16,-250.09"/>
<polygon fill="#63b8ff" stroke="#63b8ff" points="2308.66,-275.75 2312.16,-285.75 2315.66,-275.75 2308.66,-275.75"/>
</g>
<!-- Node3 -->
<g id="node3" class="node">
<title>Node3</title>
<g id="a_node3"><a xlink:href="main_8cpp.html" target="_top" xlink:title=" ">
<polygon fill="white" stroke="#666666" points="411.16,-79.5 335.16,-79.5 335.16,-60.5 411.16,-60.5 411.16,-79.5"/>
<text text-anchor="middle" x="373.16" y="-67.5" font-family="Helvetica,sans-Serif" font-size="10.00">cli/main.cpp</text>
</a>
</g>
</g>
<!-- Node2&#45;&gt;Node3 -->
<g id="edge2" class="edge">
<title>Node2&#45;&gt;Node3</title>
<path fill="none" stroke="#63b8ff" d="M305.89,-165.9C309.1,-152.69 314.59,-134.9 323.16,-121 333.46,-104.28 350.42,-88.93 361.68,-79.77"/>
<polygon fill="#63b8ff" stroke="#63b8ff" points="302.45,-165.22 303.71,-175.74 309.29,-166.73 302.45,-165.22"/>
</g>
<!-- Node4 -->
<g id="node4" class="node">
<title>Node4</title>
<g id="a_node4"><a xlink:href="opt_8cpp.html" target="_top" xlink:title=" ">
<polygon fill="white" stroke="#666666" points="867.66,-19 754.66,-19 754.66,0 867.66,0 867.66,-19"/>
<text text-anchor="middle" x="811.16" y="-7" font-family="Helvetica,sans-Serif" font-size="10.00">dialects/opt/opt.cpp</text>
</a>
</g>
</g>
<!-- Node2&#45;&gt;Node4 -->
<g id="edge3" class="edge">
<title>Node2&#45;&gt;Node4</title>
<path fill="none" stroke="#63b8ff" d="M249.16,-182.38C218.42,-178.09 181.97,-167.09 162.16,-140 139.85,-109.51 136.37,-82.61 162.16,-55 202.14,-12.18 603.69,-9.54 754.41,-10.08"/>
<polygon fill="#63b8ff" stroke="#63b8ff" points="248.99,-185.89 259.33,-183.59 249.82,-178.93 248.99,-185.89"/>
</g>
<!-- Node5 -->
<g id="node5" class="node">
<title>Node5</title>
<g id="a_node5"><a xlink:href="dialects_8cpp.html" target="_top" xlink:title=" ">
<polygon fill="white" stroke="#666666" points="510.66,-140 403.66,-140 403.66,-121 510.66,-121 510.66,-140"/>
<text text-anchor="middle" x="457.16" y="-128" font-family="Helvetica,sans-Serif" font-size="10.00">thorin/dialects.cpp</text>
</a>
</g>
</g>
<!-- Node2&#45;&gt;Node5 -->
<g id="edge4" class="edge">
<title>Node2&#45;&gt;Node5</title>
<path fill="none" stroke="#63b8ff" d="M336.76,-172.67C365.66,-162.79 406.19,-148.93 432.06,-140.08"/>
<polygon fill="#63b8ff" stroke="#63b8ff" points="335.39,-169.44 327.06,-175.98 337.65,-176.06 335.39,-169.44"/>
</g>
<!-- Node6 -->
<g id="node6" class="node">
<title>Node6</title>
<g id="a_node6"><a xlink:href="driver_8cpp.html" target="_top" xlink:title=" ">
<polygon fill="white" stroke="#666666" points="115.16,-140 19.16,-140 19.16,-121 115.16,-121 115.16,-140"/>
<text text-anchor="middle" x="67.16" y="-128" font-family="Helvetica,sans-Serif" font-size="10.00">thorin/driver.cpp</text>
</a>
</g>
</g>
<!-- Node2&#45;&gt;Node6 -->
<g id="edge5" class="edge">
<title>Node2&#45;&gt;Node6</title>
<path fill="none" stroke="#63b8ff" d="M254.5,-173.75C210.47,-163.82 145.89,-149.26 105.21,-140.08"/>
<polygon fill="#63b8ff" stroke="#63b8ff" points="253.87,-177.2 264.4,-175.98 255.41,-170.37 253.87,-177.2"/>
</g>
<!-- Node7 -->
<g id="node7" class="node">
<title>Node7</title>
<g id="a_node7"><a xlink:href="parser_8cpp.html" target="_top" xlink:title=" ">
<polygon fill="white" stroke="#666666" points="282.66,-79.5 171.66,-79.5 171.66,-60.5 282.66,-60.5 282.66,-79.5"/>
<text text-anchor="middle" x="227.16" y="-67.5" font-family="Helvetica,sans-Serif" font-size="10.00">thorin/fe/parser.cpp</text>
</a>
</g>
</g>
<!-- Node2&#45;&gt;Node7 -->
<g id="edge6" class="edge">
<title>Node2&#45;&gt;Node7</title>
<path fill="none" stroke="#63b8ff" d="M249.13,-184.34C173.48,-182.85 40.36,-175.15 10.16,-140 -36.73,-85.43 92.73,-73.57 171.49,-71.28"/>
<polygon fill="#63b8ff" stroke="#63b8ff" points="249.35,-187.84 259.4,-184.51 249.46,-180.84 249.35,-187.84"/>
</g>
<!-- Node8 -->
<g id="node8" class="node">
<title>Node8</title>
<g id="a_node8"><a xlink:href="parser_8h.html" target="_top" xlink:title=" ">
<polygon fill="white" stroke="#666666" points="271.16,-140 171.16,-140 171.16,-121 271.16,-121 271.16,-140"/>
<text text-anchor="middle" x="221.16" y="-128" font-family="Helvetica,sans-Serif" font-size="10.00">thorin/fe/parser.h</text>
</a>
</g>
</g>
<!-- Node2&#45;&gt;Node8 -->
<g id="edge7" class="edge">
<title>Node2&#45;&gt;Node8</title>
<path fill="none" stroke="#63b8ff" d="M280.64,-170.42C265.95,-160.81 246.93,-148.37 234.41,-140.17"/>
<polygon fill="#63b8ff" stroke="#63b8ff" points="278.86,-173.44 289.14,-175.98 282.69,-167.58 278.86,-173.44"/>
</g>
<!-- Node9 -->
<g id="node9" class="node">
<title>Node9</title>
<g id="a_node9"><a xlink:href="optimize_8cpp.html" target="_top" xlink:title=" ">
<polygon fill="white" stroke="#666666" points="632.66,-79.5 495.66,-79.5 495.66,-60.5 632.66,-60.5 632.66,-79.5"/>
<text text-anchor="middle" x="564.16" y="-67.5" font-family="Helvetica,sans-Serif" font-size="10.00">thorin/pass/optimize.cpp</text>
</a>
</g>
</g>
<!-- Node2&#45;&gt;Node9 -->
<g id="edge10" class="edge">
<title>Node2&#45;&gt;Node9</title>
<path fill="none" stroke="#63b8ff" d="M313.92,-167.01C324.58,-152.53 341.58,-132.52 361.16,-121 402.14,-96.89 454.33,-84.36 495.54,-77.88"/>
<polygon fill="#63b8ff" stroke="#63b8ff" points="310.77,-165.4 307.87,-175.59 316.49,-169.44 310.77,-165.4"/>
</g>
<!-- Node10 -->
<g id="node10" class="node">
<title>Node10</title>
<g id="a_node10"><a xlink:href="world_8cpp.html" target="_top" xlink:title=" ">
<polygon fill="white" stroke="#666666" points="623.66,-140 528.66,-140 528.66,-121 623.66,-121 623.66,-140"/>
<text text-anchor="middle" x="576.16" y="-128" font-family="Helvetica,sans-Serif" font-size="10.00">thorin/world.cpp</text>
</a>
</g>
</g>
<!-- Node2&#45;&gt;Node10 -->
<g id="edge11" class="edge">
<title>Node2&#45;&gt;Node10</title>
<path fill="none" stroke="#63b8ff" d="M354.6,-174.35C406.12,-164.39 483.81,-149.36 532.18,-140.01"/>
<polygon fill="#63b8ff" stroke="#63b8ff" points="353.82,-170.94 344.67,-176.28 355.15,-177.81 353.82,-170.94"/>
</g>
<!-- Node8&#45;&gt;Node3 -->
<g id="edge8" class="edge">
<title>Node8&#45;&gt;Node3</title>
<path fill="none" stroke="#63b8ff" d="M252.65,-117.38C282.04,-106.07 325.12,-89.49 351.03,-79.52"/>
<polygon fill="#63b8ff" stroke="#63b8ff" points="251.33,-114.14 243.26,-120.99 253.85,-120.67 251.33,-114.14"/>
</g>
<!-- Node8&#45;&gt;Node7 -->
<g id="edge9" class="edge">
<title>Node8&#45;&gt;Node7</title>
<path fill="none" stroke="#63b8ff" d="M223.09,-110.66C224.16,-100.24 225.43,-87.8 226.27,-79.67"/>
<polygon fill="#63b8ff" stroke="#63b8ff" points="219.58,-110.56 222.04,-120.87 226.54,-111.28 219.58,-110.56"/>
</g>
<!-- Node12&#45;&gt;Node2 -->
<g id="edge54" class="edge">
<title>Node12&#45;&gt;Node2</title>
<path fill="none" stroke="#63b8ff" d="M2259.58,-239.16C1988.37,-237.26 745.36,-226.94 361.16,-195 355.9,-194.56 350.39,-193.96 344.95,-193.28"/>
<polygon fill="#63b8ff" stroke="#63b8ff" points="2259.9,-242.66 2269.93,-239.23 2259.95,-235.66 2259.9,-242.66"/>
</g>
<!-- Node12&#45;&gt;Node10 -->
<g id="edge83" class="edge">
<title>Node12&#45;&gt;Node10</title>
<path fill="none" stroke="#63b8ff" d="M2259.84,-239.01C2005.13,-236.46 900.86,-223.86 750.16,-195 690.78,-183.63 624.77,-154.71 593.9,-140.15"/>
<polygon fill="#63b8ff" stroke="#63b8ff" points="2259.91,-242.51 2269.94,-239.11 2259.98,-235.51 2259.91,-242.51"/>
</g>
<!-- Node13 -->
<g id="node13" class="node">
<title>Node13</title>
<g id="a_node13"><a xlink:href="affine_8h.html" target="_top" xlink:title=" ">
<polygon fill="#fff0f0" stroke="red" points="1055.66,-140 930.66,-140 930.66,-121 1055.66,-121 1055.66,-140"/>
<text text-anchor="middle" x="993.16" y="-128" font-family="Helvetica,sans-Serif" font-size="10.00">dialects/affine/affine.h</text>
</a>
</g>
</g>
<!-- Node12&#45;&gt;Node13 -->
<g id="edge14" class="edge">
<title>Node12&#45;&gt;Node13</title>
<path fill="none" stroke="#63b8ff" d="M2259.65,-239.09C2041.54,-237.16 1213.23,-227.73 1101.16,-195 1061.9,-183.54 1022.06,-154.66 1003.66,-140.13"/>
<polygon fill="#63b8ff" stroke="#63b8ff" points="2259.84,-242.59 2269.87,-239.17 2259.9,-235.59 2259.84,-242.59"/>
</g>
<!-- Node20 -->
<g id="node17" class="node">
<title>Node20</title>
<g id="a_node17"><a xlink:href="autodiff_8h.html" target="_top" xlink:title=" ">
<polygon fill="#fff0f0" stroke="red" points="1432.66,-195 1287.66,-195 1287.66,-176 1432.66,-176 1432.66,-195"/>
<text text-anchor="middle" x="1360.16" y="-183" font-family="Helvetica,sans-Serif" font-size="10.00">dialects/autodiff/autodiff.h</text>
</a>
</g>
</g>
<!-- Node12&#45;&gt;Node20 -->
<g id="edge18" class="edge">
<title>Node12&#45;&gt;Node20</title>
<path fill="none" stroke="#63b8ff" d="M2259.75,-237.64C2124.88,-232.69 1754.8,-217.93 1447.16,-195 1442.46,-194.65 1437.63,-194.26 1432.77,-193.85"/>
<polygon fill="#63b8ff" stroke="#63b8ff" points="2259.69,-241.14 2269.81,-238.01 2259.94,-234.15 2259.69,-241.14"/>
</g>
<!-- Node25 -->
<g id="node18" class="node">
<title>Node25</title>
<g id="a_node18"><a xlink:href="autodiff_2normalizers_8cpp.html" target="_top" xlink:title=" ">
<polygon fill="white" stroke="#666666" points="1427.16,-140 1251.16,-140 1251.16,-121 1427.16,-121 1427.16,-140"/>
<text text-anchor="middle" x="1339.16" y="-128" font-family="Helvetica,sans-Serif" font-size="10.00">dialects/autodiff/normalizers.cpp</text>
</a>
</g>
</g>
<!-- Node12&#45;&gt;Node25 -->
<g id="edge21" class="edge">
<title>Node12&#45;&gt;Node25</title>
<path fill="none" stroke="#63b8ff" d="M2259.77,-239.23C2054.21,-237.93 1312.4,-230.75 1278.16,-195 1259.33,-175.35 1296.18,-152.33 1320.38,-140.12"/>
<polygon fill="#63b8ff" stroke="#63b8ff" points="2259.97,-242.73 2269.99,-239.29 2260.02,-235.73 2259.97,-242.73"/>
</g>
<!-- Node26 -->
<g id="node19" class="node">
<title>Node26</title>
<g id="a_node19"><a xlink:href="clos_8h.html" target="_top" xlink:title=" ">
<polygon fill="#fff0f0" stroke="red" points="1755.66,-195 1646.66,-195 1646.66,-176 1755.66,-176 1755.66,-195"/>
<text text-anchor="middle" x="1701.16" y="-183" font-family="Helvetica,sans-Serif" font-size="10.00">dialects/clos/clos.h</text>
</a>
</g>
</g>
<!-- Node12&#45;&gt;Node26 -->
<g id="edge22" class="edge">
<title>Node12&#45;&gt;Node26</title>
<path fill="none" stroke="#63b8ff" d="M2259.97,-236.19C2162.43,-229.79 1945.91,-214.63 1764.16,-195 1761.41,-194.7 1758.61,-194.38 1755.77,-194.05"/>
<polygon fill="#63b8ff" stroke="#63b8ff" points="2259.94,-239.69 2270.15,-236.85 2260.4,-232.71 2259.94,-239.69"/>
</g>
<!-- Node42 -->
<g id="node20" class="node">
<title>Node42</title>
<g id="a_node20"><a xlink:href="compile_8h.html" target="_top" xlink:title=" ">
<polygon fill="#fff0f0" stroke="red" points="832.16,-79.5 684.16,-79.5 684.16,-60.5 832.16,-60.5 832.16,-79.5"/>
<text text-anchor="middle" x="758.16" y="-67.5" font-family="Helvetica,sans-Serif" font-size="10.00">dialects/compile/compile.h</text>
</a>
</g>
</g>
<!-- Node12&#45;&gt;Node42 -->
<g id="edge23" class="edge">
<title>Node12&#45;&gt;Node42</title>
<path fill="none" stroke="#63b8ff" d="M2259.74,-239.23C2016.39,-237.8 995.38,-229.8 678.16,-195 550.36,-180.98 475.97,-239.18 394.16,-140 388.78,-133.49 388.61,-127.36 394.16,-121 398.95,-115.5 582.9,-92.31 687.41,-79.54"/>
<polygon fill="#63b8ff" stroke="#63b8ff" points="2260.05,-242.73 2270.07,-239.29 2260.09,-235.73 2260.05,-242.73"/>
</g>
<!-- Node46 -->
<g id="node21" class="node">
<title>Node46</title>
<g id="a_node21"><a xlink:href="core_8h.html" target="_top" xlink:title=" ">
<polygon fill="#fff0f0" stroke="red" points="1231.16,-195 1119.16,-195 1119.16,-176 1231.16,-176 1231.16,-195"/>
<text text-anchor="middle" x="1175.16" y="-183" font-family="Helvetica,sans-Serif" font-size="10.00">dialects/core/core.h</text>
</a>
</g>
</g>
<!-- Node12&#45;&gt;Node46 -->
<g id="edge25" class="edge">
<title>Node12&#45;&gt;Node46</title>
<path fill="none" stroke="#63b8ff" d="M2259.7,-238.78C2104.47,-236.34 1633.99,-226.67 1245.16,-195 1240.64,-194.63 1235.97,-194.19 1231.28,-193.71"/>
<polygon fill="#63b8ff" stroke="#63b8ff" points="2259.84,-242.28 2269.89,-238.94 2259.95,-235.29 2259.84,-242.28"/>
</g>
<!-- Node49 -->
<g id="node22" class="node">
<title>Node49</title>
<g id="a_node22"><a xlink:href="mem_8h.html" target="_top" xlink:title=" ">
<polygon fill="#fff0f0" stroke="red" points="1194.66,-140 1073.66,-140 1073.66,-121 1194.66,-121 1194.66,-140"/>
<text text-anchor="middle" x="1134.16" y="-128" font-family="Helvetica,sans-Serif" font-size="10.00">dialects/mem/mem.h</text>
</a>
</g>
</g>
<!-- Node12&#45;&gt;Node49 -->
<g id="edge35" class="edge">
<title>Node12&#45;&gt;Node49</title>
<path fill="none" stroke="#63b8ff" d="M2259.66,-239.56C2033.32,-239.57 1150.56,-236.93 1110.16,-195 1095.11,-179.39 1114.09,-153.41 1125.96,-140.04"/>
<polygon fill="#63b8ff" stroke="#63b8ff" points="2259.93,-243.06 2269.93,-239.56 2259.93,-236.06 2259.93,-243.06"/>
</g>
<!-- Node51 -->
<g id="node23" class="node">
<title>Node51</title>
<g id="a_node23"><a xlink:href="mem_2normalizers_8cpp.html" target="_top" xlink:title=" ">
<polygon fill="white" stroke="#666666" points="1539.16,-79.5 1375.16,-79.5 1375.16,-60.5 1539.16,-60.5 1539.16,-79.5"/>
<text text-anchor="middle" x="1457.16" y="-67.5" font-family="Helvetica,sans-Serif" font-size="10.00">dialects/mem/normalizers.cpp</text>
</a>
</g>
</g>
<!-- Node12&#45;&gt;Node51 -->
<g id="edge36" class="edge">
<title>Node12&#45;&gt;Node51</title>
<path fill="none" stroke="#63b8ff" d="M2259.96,-239.78C2091.6,-240.23 1570.26,-238.12 1509.16,-195 1469.68,-167.14 1460.04,-103.26 1457.8,-79.83"/>
<polygon fill="#63b8ff" stroke="#63b8ff" points="2260.07,-243.28 2270.06,-239.74 2260.05,-236.28 2260.07,-243.28"/>
</g>
<!-- Node58 -->
<g id="node24" class="node">
<title>Node58</title>
<g id="a_node24"><a xlink:href="demo_2normalizers_8cpp.html" target="_top" xlink:title=" ">
<polygon fill="white" stroke="#666666" points="1940.66,-195 1773.66,-195 1773.66,-176 1940.66,-176 1940.66,-195"/>
<text text-anchor="middle" x="1857.16" y="-183" font-family="Helvetica,sans-Serif" font-size="10.00">dialects/demo/normalizers.cpp</text>
</a>
</g>
</g>
<!-- Node12&#45;&gt;Node58 -->
<g id="edge32" class="edge">
<title>Node12&#45;&gt;Node58</title>
<path fill="none" stroke="#63b8ff" d="M2259.78,-233.4C2178.75,-223.96 2022.73,-205.79 1930.51,-195.04"/>
<polygon fill="#63b8ff" stroke="#63b8ff" points="2259.42,-236.88 2269.76,-234.56 2260.23,-229.93 2259.42,-236.88"/>
</g>
<!-- Node59 -->
<g id="node25" class="node">
<title>Node59</title>
<g id="a_node25"><a xlink:href="direct_2normalizers_8cpp.html" target="_top" xlink:title=" ">
<polygon fill="white" stroke="#666666" points="2125.66,-195 1958.66,-195 1958.66,-176 2125.66,-176 2125.66,-195"/>
<text text-anchor="middle" x="2042.16" y="-183" font-family="Helvetica,sans-Serif" font-size="10.00">dialects/direct/normalizers.cpp</text>
</a>
</g>
</g>
<!-- Node12&#45;&gt;Node59 -->
<g id="edge33" class="edge">
<title>Node12&#45;&gt;Node59</title>
<path fill="none" stroke="#63b8ff" d="M2259.88,-229.24C2209.24,-219.3 2133.34,-204.4 2085.84,-195.07"/>
<polygon fill="#63b8ff" stroke="#63b8ff" points="2259.48,-232.73 2269.97,-231.22 2260.83,-225.86 2259.48,-232.73"/>
</g>
<!-- Node60 -->
<g id="node26" class="node">
<title>Node60</title>
<g id="a_node26"><a xlink:href="math_8h.html" target="_top" xlink:title=" ">
<polygon fill="#fff0f0" stroke="red" points="2264.66,-195 2143.66,-195 2143.66,-176 2264.66,-176 2264.66,-195"/>
<text text-anchor="middle" x="2204.16" y="-183" font-family="Helvetica,sans-Serif" font-size="10.00">dialects/math/math.h</text>
</a>
</g>
</g>
<!-- Node12&#45;&gt;Node60 -->
<g id="edge34" class="edge">
<title>Node12&#45;&gt;Node60</title>
<path fill="none" stroke="#63b8ff" d="M2285.67,-226.5C2265.8,-216.75 2239.16,-203.68 2221.82,-195.17"/>
<polygon fill="#63b8ff" stroke="#63b8ff" points="2284.29,-229.72 2294.8,-230.98 2287.37,-223.44 2284.29,-229.72"/>
</g>
<!-- Node63 -->
<g id="node27" class="node">
<title>Node63</title>
<g id="a_node27"><a xlink:href="opt_2normalizers_8cpp.html" target="_top" xlink:title=" ">
<polygon fill="white" stroke="#666666" points="1676.66,-140 1521.66,-140 1521.66,-121 1676.66,-121 1676.66,-140"/>
<text text-anchor="middle" x="1599.16" y="-128" font-family="Helvetica,sans-Serif" font-size="10.00">dialects/opt/normalizers.cpp</text>
</a>
</g>
</g>
<!-- Node12&#45;&gt;Node63 -->
<g id="edge37" class="edge">
<title>Node12&#45;&gt;Node63</title>
<path fill="none" stroke="#63b8ff" d="M2259.8,-238.52C2086.89,-235.04 1543.66,-221.97 1518.16,-195 1496.86,-172.47 1541.63,-151.31 1572.71,-140.02"/>
<polygon fill="#63b8ff" stroke="#63b8ff" points="2259.86,-242.02 2269.92,-238.72 2260,-235.02 2259.86,-242.02"/>
</g>
<!-- Node64 -->
<g id="node28" class="node">
<title>Node64</title>
<g id="a_node28"><a xlink:href="opt_8h.html" target="_top" xlink:title=" ">
<polygon fill="white" stroke="#666666" points="1628.66,-195 1527.66,-195 1527.66,-176 1628.66,-176 1628.66,-195"/>
<text text-anchor="middle" x="1578.16" y="-183" font-family="Helvetica,sans-Serif" font-size="10.00">dialects/opt/opt.h</text>
</a>
</g>
</g>
<!-- Node12&#45;&gt;Node64 -->
<g id="edge38" class="edge">
<title>Node12&#45;&gt;Node64</title>
<path fill="none" stroke="#63b8ff" d="M2259.64,-237.42C2145.93,-232.62 1868.5,-219.25 1637.16,-195 1634.48,-194.72 1631.74,-194.41 1628.97,-194.08"/>
<polygon fill="#63b8ff" stroke="#63b8ff" points="2259.67,-240.93 2269.81,-237.85 2259.96,-233.93 2259.67,-240.93"/>
</g>
<!-- Node65 -->
<g id="node29" class="node">
<title>Node65</title>
<g id="a_node29"><a xlink:href="refly_2normalizers_8cpp.html" target="_top" xlink:title=" ">
<polygon fill="white" stroke="#666666" points="2408.66,-140 2247.66,-140 2247.66,-121 2408.66,-121 2408.66,-140"/>
<text text-anchor="middle" x="2328.16" y="-128" font-family="Helvetica,sans-Serif" font-size="10.00">dialects/refly/normalizers.cpp</text>
</a>
</g>
</g>
<!-- Node12&#45;&gt;Node65 -->
<g id="edge41" class="edge">
<title>Node12&#45;&gt;Node65</title>
<path fill="none" stroke="#63b8ff" d="M2312.83,-220.59C2313.49,-207.91 2314.75,-190.88 2317.16,-176 2319.19,-163.43 2322.98,-149.19 2325.53,-140.28"/>
<polygon fill="#63b8ff" stroke="#63b8ff" points="2309.33,-220.68 2312.39,-230.82 2316.32,-220.98 2309.33,-220.68"/>
</g>
<!-- Node66 -->
<g id="node30" class="node">
<title>Node66</title>
<g id="a_node30"><a xlink:href="refly_8h.html" target="_top" xlink:title=" ">
<polygon fill="#fff0f0" stroke="red" points="2965.16,-195 2853.16,-195 2853.16,-176 2965.16,-176 2965.16,-195"/>
<text text-anchor="middle" x="2909.16" y="-183" font-family="Helvetica,sans-Serif" font-size="10.00">dialects/refly/refly.h</text>
</a>
</g>
</g>
<!-- Node12&#45;&gt;Node66 -->
<g id="edge42" class="edge">
<title>Node12&#45;&gt;Node66</title>
<path fill="none" stroke="#63b8ff" d="M2364.36,-230.96C2577.69,-205.69 2634.13,-216.58 2844.16,-195 2846.99,-194.71 2849.88,-194.39 2852.81,-194.06"/>
<polygon fill="#63b8ff" stroke="#63b8ff" points="2363.93,-227.49 2354.41,-232.15 2364.76,-234.44 2363.93,-227.49"/>
</g>
<!-- Node69 -->
<g id="node31" class="node">
<title>Node69</title>
<g id="a_node31"><a xlink:href="cfg_8cpp.html" target="_top" xlink:title=" ">
<polygon fill="white" stroke="#666666" points="2489.16,-195 2359.16,-195 2359.16,-176 2489.16,-176 2489.16,-195"/>
<text text-anchor="middle" x="2424.16" y="-183" font-family="Helvetica,sans-Serif" font-size="10.00">thorin/analyses/cfg.cpp</text>
</a>
</g>
</g>
<!-- Node12&#45;&gt;Node69 -->
<g id="edge44" class="edge">
<title>Node12&#45;&gt;Node69</title>
<path fill="none" stroke="#63b8ff" d="M2339.35,-226.63C2359.98,-216.87 2387.78,-203.71 2405.83,-195.17"/>
<polygon fill="#63b8ff" stroke="#63b8ff" points="2337.69,-223.54 2330.15,-230.98 2340.69,-229.87 2337.69,-223.54"/>
</g>
<!-- Node70 -->
<g id="node32" class="node">
<title>Node70</title>
<g id="a_node32"><a xlink:href="deptree_8cpp.html" target="_top" xlink:title=" ">
<polygon fill="white" stroke="#666666" points="2659.16,-195 2507.16,-195 2507.16,-176 2659.16,-176 2659.16,-195"/>
<text text-anchor="middle" x="2583.16" y="-183" font-family="Helvetica,sans-Serif" font-size="10.00">thorin/analyses/deptree.cpp</text>
</a>
</g>
</g>
<!-- Node12&#45;&gt;Node70 -->
<g id="edge45" class="edge">
<title>Node12&#45;&gt;Node70</title>
<path fill="none" stroke="#63b8ff" d="M2364.03,-229.35C2414.98,-219.39 2491.82,-204.36 2539.66,-195.01"/>
<polygon fill="#63b8ff" stroke="#63b8ff" points="2363.35,-225.92 2354.2,-231.28 2364.69,-232.79 2363.35,-225.92"/>
</g>
<!-- Node71 -->
<g id="node33" class="node">
<title>Node71</title>
<g id="a_node33"><a xlink:href="schedule_8cpp.html" target="_top" xlink:title=" ">
<polygon fill="white" stroke="#666666" points="2835.16,-195 2677.16,-195 2677.16,-176 2835.16,-176 2835.16,-195"/>
<text text-anchor="middle" x="2756.16" y="-183" font-family="Helvetica,sans-Serif" font-size="10.00">thorin/analyses/schedule.cpp</text>
</a>
</g>
</g>
<!-- Node12&#45;&gt;Node71 -->
<g id="edge46" class="edge">
<title>Node12&#45;&gt;Node71</title>
<path fill="none" stroke="#63b8ff" d="M2364.41,-230.89C2478.71,-215.07 2599.74,-202.06 2676.97,-194.24"/>
<polygon fill="#63b8ff" stroke="#63b8ff" points="2363.85,-227.43 2354.43,-232.28 2364.82,-234.37 2363.85,-227.43"/>
</g>
<!-- Node72 -->
<g id="node34" class="node">
<title>Node72</title>
<g id="a_node34"><a xlink:href="scope_8cpp.html" target="_top" xlink:title=" ">
<polygon fill="white" stroke="#666666" points="2842.66,-140 2699.66,-140 2699.66,-121 2842.66,-121 2842.66,-140"/>
<text text-anchor="middle" x="2771.16" y="-128" font-family="Helvetica,sans-Serif" font-size="10.00">thorin/analyses/scope.cpp</text>
</a>
</g>
</g>
<!-- Node12&#45;&gt;Node72 -->
<g id="edge47" class="edge">
<title>Node12&#45;&gt;Node72</title>
<path fill="none" stroke="#63b8ff" d="M2317.99,-221.09C2323.71,-206.3 2333.95,-186.35 2350.16,-176 2406.37,-140.1 2594.49,-132.73 2699.23,-131.49"/>
<polygon fill="#63b8ff" stroke="#63b8ff" points="2314.61,-220.14 2314.61,-230.74 2321.22,-222.46 2314.61,-220.14"/>
</g>
<!-- Node73 -->
<g id="node35" class="node">
<title>Node73</title>
<g id="a_node35"><a xlink:href="axiom_8cpp.html" target="_top" xlink:title=" ">
<polygon fill="white" stroke="#666666" points="3082.66,-195 2983.66,-195 2983.66,-176 3082.66,-176 3082.66,-195"/>
<text text-anchor="middle" x="3033.16" y="-183" font-family="Helvetica,sans-Serif" font-size="10.00">thorin/axiom.cpp</text>
</a>
</g>
</g>
<!-- Node12&#45;&gt;Node73 -->
<g id="edge48" class="edge">
<title>Node12&#45;&gt;Node73</title>
<path fill="none" stroke="#63b8ff" d="M2364.54,-230.97C2635.22,-201.12 2706.82,-222.08 2974.16,-195 2977.25,-194.69 2980.42,-194.33 2983.62,-193.95"/>
<polygon fill="#63b8ff" stroke="#63b8ff" points="2363.96,-227.52 2354.41,-232.1 2364.74,-234.47 2363.96,-227.52"/>
</g>
<!-- Node74 -->
<g id="node36" class="node">
<title>Node74</title>
<g id="a_node36"><a xlink:href="dot_8cpp.html" target="_top" xlink:title=" ">
<polygon fill="white" stroke="#666666" points="4225.16,-140 4107.16,-140 4107.16,-121 4225.16,-121 4225.16,-140"/>
<text text-anchor="middle" x="4166.16" y="-128" font-family="Helvetica,sans-Serif" font-size="10.00">thorin/be/dot/dot.cpp</text>
</a>
</g>
</g>
<!-- Node12&#45;&gt;Node74 -->
<g id="edge49" class="edge">
<title>Node12&#45;&gt;Node74</title>
<path fill="none" stroke="#63b8ff" d="M2364.77,-231.47C2520.67,-226.58 4153.77,-230.07 4188.16,-195 4203.19,-179.67 4185.25,-153.57 4173.96,-140.11"/>
<polygon fill="#63b8ff" stroke="#63b8ff" points="2364.22,-228 2354.4,-231.97 2364.55,-234.99 2364.22,-228"/>
</g>
<!-- Node75 -->
<g id="node37" class="node">
<title>Node75</title>
<g id="a_node37"><a xlink:href="emitter_8h.html" target="_top" xlink:title=" ">
<polygon fill="#fff0f0" stroke="red" points="4178.66,-195 4071.66,-195 4071.66,-176 4178.66,-176 4178.66,-195"/>
<text text-anchor="middle" x="4125.16" y="-183" font-family="Helvetica,sans-Serif" font-size="10.00">thorin/be/emitter.h</text>
</a>
</g>
</g>
<!-- Node12&#45;&gt;Node75 -->
<g id="edge50" class="edge">
<title>Node12&#45;&gt;Node75</title>
<path fill="none" stroke="#63b8ff" d="M2364.36,-231.05C3114.66,-161.7 3309.39,-249.53 4057.16,-195 4061.78,-194.66 4066.58,-194.23 4071.39,-193.74"/>
<polygon fill="#63b8ff" stroke="#63b8ff" points="2364.03,-227.57 2354.4,-231.98 2364.68,-234.54 2364.03,-227.57"/>
</g>
<!-- Node76 -->
<g id="node38" class="node">
<title>Node76</title>
<g id="a_node38"><a xlink:href="check_8cpp.html" target="_top" xlink:title=" ">
<polygon fill="white" stroke="#666666" points="3346.66,-195 3249.66,-195 3249.66,-176 3346.66,-176 3346.66,-195"/>
<text text-anchor="middle" x="3298.16" y="-183" font-family="Helvetica,sans-Serif" font-size="10.00">thorin/check.cpp</text>
</a>
</g>
</g>
<!-- Node12&#45;&gt;Node76 -->
<g id="edge52" class="edge">
<title>Node12&#45;&gt;Node76</title>
<path fill="none" stroke="#63b8ff" d="M2364.45,-231.01C2750.7,-191.68 2852.06,-228.68 3235.16,-195 3239.77,-194.59 3244.57,-194.09 3249.37,-193.54"/>
<polygon fill="#63b8ff" stroke="#63b8ff" points="2363.99,-227.54 2354.4,-232.04 2364.71,-234.5 2363.99,-227.54"/>
</g>
<!-- Node77 -->
<g id="node39" class="node">
<title>Node77</title>
<g id="a_node39"><a xlink:href="def_8cpp.html" target="_top" xlink:title=" ">
<polygon fill="white" stroke="#666666" points="3260.66,-140 3177.66,-140 3177.66,-121 3260.66,-121 3260.66,-140"/>
<text text-anchor="middle" x="3219.16" y="-128" font-family="Helvetica,sans-Serif" font-size="10.00">thorin/def.cpp</text>
</a>
</g>
</g>
<!-- Node12&#45;&gt;Node77 -->
<g id="edge53" class="edge">
<title>Node12&#45;&gt;Node77</title>
<path fill="none" stroke="#63b8ff" d="M2364.63,-231.34C2470.38,-225.95 3167.26,-222.99 3202.16,-195 3218.71,-181.72 3220.19,-154.22 3219.75,-140.17"/>
<polygon fill="#63b8ff" stroke="#63b8ff" points="2364.14,-227.87 2354.4,-232.05 2364.62,-234.85 2364.14,-227.87"/>
</g>
<!-- Node78 -->
<g id="node40" class="node">
<title>Node78</title>
<g id="a_node40"><a xlink:href="dump_8cpp.html" target="_top" xlink:title=" ">
<polygon fill="white" stroke="#666666" points="3499.16,-195 3403.16,-195 3403.16,-176 3499.16,-176 3499.16,-195"/>
<text text-anchor="middle" x="3451.16" y="-183" font-family="Helvetica,sans-Serif" font-size="10.00">thorin/dump.cpp</text>
</a>
</g>
</g>
<!-- Node12&#45;&gt;Node78 -->
<g id="edge55" class="edge">
<title>Node12&#45;&gt;Node78</title>
<path fill="none" stroke="#63b8ff" d="M2364.51,-231.02C2818.89,-186.11 2937.88,-233.75 3389.16,-195 3393.7,-194.61 3398.43,-194.12 3403.15,-193.57"/>
<polygon fill="#63b8ff" stroke="#63b8ff" points="2364,-227.55 2354.4,-232.02 2364.7,-234.51 2364,-227.55"/>
</g>
<!-- Node79 -->
<g id="node41" class="node">
<title>Node79</title>
<g id="a_node41"><a xlink:href="ast_8cpp.html" target="_top" xlink:title=" ">
<polygon fill="white" stroke="#666666" points="3399.16,-140 3303.16,-140 3303.16,-121 3399.16,-121 3399.16,-140"/>
<text text-anchor="middle" x="3351.16" y="-128" font-family="Helvetica,sans-Serif" font-size="10.00">thorin/fe/ast.cpp</text>
</a>
</g>
</g>
<!-- Node12&#45;&gt;Node79 -->
<g id="edge56" class="edge">
<title>Node12&#45;&gt;Node79</title>
<path fill="none" stroke="#63b8ff" d="M2364.49,-231.37C2481.86,-226.06 3318.26,-233.26 3355.16,-195 3369.27,-180.37 3361.03,-153.97 3355.28,-140.27"/>
<polygon fill="#63b8ff" stroke="#63b8ff" points="2364.15,-227.89 2354.4,-232.03 2364.61,-234.87 2364.15,-227.89"/>
</g>
<!-- Node80 -->
<g id="node42" class="node">
<title>Node80</title>
<g id="a_node42"><a xlink:href="lexer_8cpp.html" target="_top" xlink:title=" ">
<polygon fill="white" stroke="#666666" points="3659.16,-195 3555.16,-195 3555.16,-176 3659.16,-176 3659.16,-195"/>
<text text-anchor="middle" x="3607.16" y="-183" font-family="Helvetica,sans-Serif" font-size="10.00">thorin/fe/lexer.cpp</text>
</a>
</g>
</g>
<!-- Node12&#45;&gt;Node80 -->
<g id="edge57" class="edge">
<title>Node12&#45;&gt;Node80</title>
<path fill="none" stroke="#63b8ff" d="M2364.45,-231.03C2886.17,-180.54 3022.32,-236.24 3541.16,-195 3545.65,-194.64 3550.3,-194.2 3554.97,-193.7"/>
<polygon fill="#63b8ff" stroke="#63b8ff" points="2364.01,-227.55 2354.4,-232.01 2364.69,-234.52 2364.01,-227.55"/>
</g>
<!-- Node81 -->
<g id="node43" class="node">
<title>Node81</title>
<g id="a_node43"><a xlink:href="scopes_8cpp.html" target="_top" xlink:title=" ">
<polygon fill="white" stroke="#666666" points="3792.66,-195 3677.66,-195 3677.66,-176 3792.66,-176 3792.66,-195"/>
<text text-anchor="middle" x="3735.16" y="-183" font-family="Helvetica,sans-Serif" font-size="10.00">thorin/fe/scopes.cpp</text>
</a>
</g>
</g>
<!-- Node12&#45;&gt;Node81 -->
<g id="edge58" class="edge">
<title>Node12&#45;&gt;Node81</title>
<path fill="none" stroke="#63b8ff" d="M2364.66,-231.01C2942.45,-175.93 3093.04,-239.31 3668.16,-195 3671.2,-194.77 3674.31,-194.49 3677.45,-194.19"/>
<polygon fill="#63b8ff" stroke="#63b8ff" points="2364.02,-227.56 2354.4,-232 2364.69,-234.53 2364.02,-227.56"/>
</g>
<!-- Node82 -->
<g id="node44" class="node">
<title>Node82</title>
<g id="a_node44"><a xlink:href="lam_8cpp.html" target="_top" xlink:title=" ">
<polygon fill="white" stroke="#666666" points="3897.66,-195 3810.66,-195 3810.66,-176 3897.66,-176 3897.66,-195"/>
<text text-anchor="middle" x="3854.16" y="-183" font-family="Helvetica,sans-Serif" font-size="10.00">thorin/lam.cpp</text>
</a>
</g>
</g>
<!-- Node12&#45;&gt;Node82 -->
<g id="edge59" class="edge">
<title>Node12&#45;&gt;Node82</title>
<path fill="none" stroke="#63b8ff" d="M2364.76,-231.01C3001.81,-171.17 3168.62,-254.42 3802.16,-195 3804.89,-194.74 3807.69,-194.43 3810.52,-194.08"/>
<polygon fill="#63b8ff" stroke="#63b8ff" points="2364.02,-227.56 2354.4,-231.99 2364.68,-234.53 2364.02,-227.56"/>
</g>
<!-- Node83 -->
<g id="node45" class="node">
<title>Node83</title>
<g id="a_node45"><a xlink:href="lattice_8cpp.html" target="_top" xlink:title=" ">
<polygon fill="white" stroke="#666666" points="4014.66,-195 3915.66,-195 3915.66,-176 4014.66,-176 4014.66,-195"/>
<text text-anchor="middle" x="3965.16" y="-183" font-family="Helvetica,sans-Serif" font-size="10.00">thorin/lattice.cpp</text>
</a>
</g>
</g>
<!-- Node12&#45;&gt;Node83 -->
<g id="edge60" class="edge">
<title>Node12&#45;&gt;Node83</title>
<path fill="none" stroke="#63b8ff" d="M2364.5,-231.04C3048.26,-167.26 3226.53,-252.59 3907.16,-195 3909.89,-194.77 3912.7,-194.49 3915.53,-194.18"/>
<polygon fill="#63b8ff" stroke="#63b8ff" points="2364.03,-227.57 2354.4,-231.99 2364.68,-234.53 2364.03,-227.57"/>
</g>
<!-- Node84 -->
<g id="node46" class="node">
<title>Node84</title>
<g id="a_node46"><a xlink:href="pass_8h.html" target="_top" xlink:title=" ">
<polygon fill="#fff0f0" stroke="red" points="864.66,-195 759.66,-195 759.66,-176 864.66,-176 864.66,-195"/>
<text text-anchor="middle" x="812.16" y="-183" font-family="Helvetica,sans-Serif" font-size="10.00">thorin/pass/pass.h</text>
</a>
</g>
</g>
<!-- Node12&#45;&gt;Node84 -->
<g id="edge61" class="edge">
<title>Node12&#45;&gt;Node84</title>
<path fill="none" stroke="#63b8ff" d="M2259.71,-238.19C2079.51,-233.61 1469.08,-217.32 965.16,-195 931.8,-193.52 894.38,-191.45 864.89,-189.72"/>
<polygon fill="#63b8ff" stroke="#63b8ff" points="2259.88,-241.7 2269.96,-238.45 2260.05,-234.7 2259.88,-241.7"/>
</g>
<!-- Node118 -->
<g id="node47" class="node">
<title>Node118</title>
<g id="a_node47"><a xlink:href="pipelinebuilder_8h.html" target="_top" xlink:title=" ">
<polygon fill="#fff0f0" stroke="red" points="835.66,-140 680.66,-140 680.66,-121 835.66,-121 835.66,-140"/>
<text text-anchor="middle" x="758.16" y="-128" font-family="Helvetica,sans-Serif" font-size="10.00">thorin/pass/pipelinebuilder.h</text>
</a>
</g>
</g>
<!-- Node12&#45;&gt;Node118 -->
<g id="edge71" class="edge">
<title>Node12&#45;&gt;Node118</title>
<path fill="none" stroke="#63b8ff" d="M2259.85,-238.88C2053.2,-236.23 1293.18,-224.63 1054.16,-195 956.36,-182.88 843.03,-154.45 789.39,-140.1"/>
<polygon fill="#63b8ff" stroke="#63b8ff" points="2260.08,-242.38 2270.13,-239.01 2260.17,-235.38 2260.08,-242.38"/>
</g>
<!-- Node129 -->
<g id="node48" class="node">
<title>Node129</title>
<g id="a_node48"><a xlink:href="rewrite_8cpp.html" target="_top" xlink:title=" ">
<polygon fill="white" stroke="#666666" points="3549.66,-140 3446.66,-140 3446.66,-121 3549.66,-121 3549.66,-140"/>
<text text-anchor="middle" x="3498.16" y="-128" font-family="Helvetica,sans-Serif" font-size="10.00">thorin/rewrite.cpp</text>
</a>
</g>
</g>
<!-- Node12&#45;&gt;Node129 -->
<g id="edge72" class="edge">
<title>Node12&#45;&gt;Node129</title>
<path fill="none" stroke="#63b8ff" d="M2364.7,-231.36C2494.29,-225.75 3465.34,-239.19 3508.16,-195 3522.45,-180.25 3511.03,-153.9 3503.48,-140.24"/>
<polygon fill="#63b8ff" stroke="#63b8ff" points="2364.16,-227.89 2354.4,-232.01 2364.6,-234.88 2364.16,-227.89"/>
</g>
<!-- Node130 -->
<g id="node49" class="node">
<title>Node130</title>
<g id="a_node49"><a xlink:href="rewrite_8h.html" target="_top" xlink:title=" ">
<polygon fill="#fff0f0" stroke="red" points="3193.16,-195 3101.16,-195 3101.16,-176 3193.16,-176 3193.16,-195"/>
<text text-anchor="middle" x="3147.16" y="-183" font-family="Helvetica,sans-Serif" font-size="10.00">thorin/rewrite.h</text>
</a>
</g>
</g>
<!-- Node12&#45;&gt;Node130 -->
<g id="edge73" class="edge">
<title>Node12&#45;&gt;Node130</title>
<path fill="none" stroke="#63b8ff" d="M2364.51,-230.99C2686.98,-196.94 2772.13,-227.02 3091.16,-195 3094.39,-194.68 3097.71,-194.29 3101.06,-193.88"/>
<polygon fill="#63b8ff" stroke="#63b8ff" points="2363.98,-227.53 2354.41,-232.07 2364.72,-234.49 2363.98,-227.53"/>
</g>
<!-- Node132 -->
<g id="node50" class="node">
<title>Node132</title>
<g id="a_node50"><a xlink:href="tuple_8cpp.html" target="_top" xlink:title=" ">
<polygon fill="white" stroke="#666666" points="3895.66,-140 3802.66,-140 3802.66,-121 3895.66,-121 3895.66,-140"/>
<text text-anchor="middle" x="3849.16" y="-128" font-family="Helvetica,sans-Serif" font-size="10.00">thorin/tuple.cpp</text>
</a>
</g>
</g>
<!-- Node12&#45;&gt;Node132 -->
<g id="edge82" class="edge">
<title>Node12&#45;&gt;Node132</title>
<path fill="none" stroke="#63b8ff" d="M2364.79,-231.47C2512.5,-226.74 3992.95,-226.89 4024.16,-195 4065.13,-153.13 3960.36,-138.72 3895.68,-133.87"/>
<polygon fill="#63b8ff" stroke="#63b8ff" points="2364.21,-228 2354.4,-231.98 2364.55,-234.99 2364.21,-228"/>
</g>
<!-- Node14 -->
<g id="node14" class="node">
<title>Node14</title>
<g id="a_node14"><a xlink:href="affine_8cpp.html" target="_top" xlink:title=" ">
<polygon fill="white" stroke="#666666" points="1029.66,-79.5 892.66,-79.5 892.66,-60.5 1029.66,-60.5 1029.66,-79.5"/>
<text text-anchor="middle" x="961.16" y="-67.5" font-family="Helvetica,sans-Serif" font-size="10.00">dialects/affine/affine.cpp</text>
</a>
</g>
</g>
<!-- Node13&#45;&gt;Node14 -->
<g id="edge15" class="edge">
<title>Node13&#45;&gt;Node14</title>
<path fill="none" stroke="#63b8ff" d="M983.57,-111.98C977.74,-101.31 970.54,-88.15 965.9,-79.67"/>
<polygon fill="#63b8ff" stroke="#63b8ff" points="980.57,-113.77 988.43,-120.87 986.71,-110.42 980.57,-113.77"/>
</g>
<!-- Node15 -->
<g id="node15" class="node">
<title>Node15</title>
<g id="a_node15"><a xlink:href="lower__for_8cpp.html" target="_top" xlink:title=" ">
<polygon fill="white" stroke="#666666" points="1170.16,-85 1048.16,-85 1048.16,-55 1170.16,-55 1170.16,-85"/>
<text text-anchor="start" x="1056.16" y="-73" font-family="Helvetica,sans-Serif" font-size="10.00">dialects/affine/passes</text>
<text text-anchor="middle" x="1109.16" y="-62" font-family="Helvetica,sans-Serif" font-size="10.00">/lower_for.cpp</text>
</a>
</g>
</g>
<!-- Node13&#45;&gt;Node15 -->
<g id="edge16" class="edge">
<title>Node13&#45;&gt;Node15</title>
<path fill="none" stroke="#63b8ff" d="M1019.27,-116.33C1037.7,-107.04 1062.34,-94.61 1081.17,-85.11"/>
<polygon fill="#63b8ff" stroke="#63b8ff" points="1017.63,-113.24 1010.27,-120.87 1020.78,-119.49 1017.63,-113.24"/>
</g>
<!-- Node16 -->
<g id="node16" class="node">
<title>Node16</title>
<g id="a_node16"><a xlink:href="autodiff__eval_8cpp.html" target="_top" xlink:title=" ">
<polygon fill="white" stroke="#666666" points="1320.16,-85 1188.16,-85 1188.16,-55 1320.16,-55 1320.16,-85"/>
<text text-anchor="start" x="1196.16" y="-73" font-family="Helvetica,sans-Serif" font-size="10.00">dialects/autodiff/passes</text>
<text text-anchor="middle" x="1254.16" y="-62" font-family="Helvetica,sans-Serif" font-size="10.00">/autodiff_eval.cpp</text>
</a>
</g>
</g>
<!-- Node13&#45;&gt;Node16 -->
<g id="edge17" class="edge">
<title>Node13&#45;&gt;Node16</title>
<path fill="none" stroke="#63b8ff" d="M1040.89,-118.8C1083.23,-109.31 1145.37,-95.38 1191.66,-85.01"/>
<polygon fill="#63b8ff" stroke="#63b8ff" points="1040.1,-115.39 1031.11,-120.99 1041.63,-122.22 1040.1,-115.39"/>
</g>
<!-- Node20&#45;&gt;Node16 -->
<g id="edge20" class="edge">
<title>Node20&#45;&gt;Node16</title>
<path fill="none" stroke="#63b8ff" d="M1394.69,-172.19C1421.68,-160.62 1452.15,-141.98 1436.16,-121 1421.9,-102.3 1366.44,-88.86 1320.45,-80.65"/>
<polygon fill="#63b8ff" stroke="#63b8ff" points="1393.32,-168.97 1385.37,-175.98 1395.96,-175.45 1393.32,-168.97"/>
</g>
<!-- Node20&#45;&gt;Node25 -->
<g id="edge19" class="edge">
<title>Node20&#45;&gt;Node25</title>
<path fill="none" stroke="#63b8ff" d="M1352.92,-166.24C1349.41,-157.37 1345.35,-147.14 1342.56,-140.09"/>
<polygon fill="#63b8ff" stroke="#63b8ff" points="1349.75,-167.74 1356.69,-175.75 1356.26,-165.16 1349.75,-167.74"/>
</g>
<!-- Node42&#45;&gt;Node4 -->
<g id="edge24" class="edge">
<title>Node42&#45;&gt;Node4</title>
<path fill="none" stroke="#63b8ff" d="M772.86,-52.77C782.72,-41.89 795.31,-27.99 803.3,-19.17"/>
<polygon fill="#63b8ff" stroke="#63b8ff" points="770.1,-50.61 765.98,-60.37 775.28,-55.31 770.1,-50.61"/>
</g>
<!-- Node46&#45;&gt;Node16 -->
<g id="edge27" class="edge">
<title>Node46&#45;&gt;Node16</title>
<path fill="none" stroke="#63b8ff" d="M1187,-167.48C1202.6,-145.07 1229.74,-106.08 1244.29,-85.18"/>
<polygon fill="#63b8ff" stroke="#63b8ff" points="1183.93,-165.76 1181.09,-175.97 1189.68,-169.76 1183.93,-165.76"/>
</g>
<!-- Node46&#45;&gt;Node25 -->
<g id="edge26" class="edge">
<title>Node46&#45;&gt;Node25</title>
<path fill="none" stroke="#63b8ff" d="M1211.36,-172.8C1241.97,-162.91 1285.11,-148.97 1312.6,-140.08"/>
<polygon fill="#63b8ff" stroke="#63b8ff" points="1209.95,-169.58 1201.51,-175.98 1212.1,-176.24 1209.95,-169.58"/>
</g>
<!-- Node46&#45;&gt;Node49 -->
<g id="edge28" class="edge">
<title>Node46&#45;&gt;Node49</title>
<path fill="none" stroke="#63b8ff" d="M1162.14,-167.67C1155.04,-158.5 1146.55,-147.52 1140.8,-140.09"/>
<polygon fill="#63b8ff" stroke="#63b8ff" points="1159.5,-169.98 1168.39,-175.75 1165.04,-165.7 1159.5,-169.98"/>
</g>
<!-- Node49&#45;&gt;Node15 -->
<g id="edge29" class="edge">
<title>Node49&#45;&gt;Node15</title>
<path fill="none" stroke="#63b8ff" d="M1126.46,-111.5C1122.84,-103.01 1118.58,-93.04 1115.19,-85.11"/>
<polygon fill="#63b8ff" stroke="#63b8ff" points="1123.32,-113.05 1130.47,-120.87 1129.76,-110.3 1123.32,-113.05"/>
</g>
<!-- Node49&#45;&gt;Node16 -->
<g id="edge30" class="edge">
<title>Node49&#45;&gt;Node16</title>
<path fill="none" stroke="#63b8ff" d="M1160.64,-116.59C1179.71,-107.29 1205.43,-94.75 1225.07,-85.18"/>
<polygon fill="#63b8ff" stroke="#63b8ff" points="1159.06,-113.47 1151.61,-120.99 1162.13,-119.76 1159.06,-113.47"/>
</g>
<!-- Node49&#45;&gt;Node51 -->
<g id="edge31" class="edge">
<title>Node49&#45;&gt;Node51</title>
<path fill="none" stroke="#63b8ff" d="M1191.18,-119.17C1253.47,-107.89 1352.1,-90.03 1410.13,-79.52"/>
<polygon fill="#63b8ff" stroke="#63b8ff" points="1190.34,-115.77 1181.12,-120.99 1191.59,-122.66 1190.34,-115.77"/>
</g>
<!-- Node64&#45;&gt;Node4 -->
<g id="edge40" class="edge">
<title>Node64&#45;&gt;Node4</title>
<path fill="none" stroke="#63b8ff" d="M1632.96,-173.29C1667,-163.56 1701.42,-146.89 1685.16,-121 1649.2,-63.77 1613.56,-72.02 1548.16,-55 1419.76,-21.58 1017.14,-13.11 867.71,-11.09"/>
<polygon fill="#63b8ff" stroke="#63b8ff" points="1631.7,-170.01 1622.94,-175.98 1633.51,-176.77 1631.7,-170.01"/>
</g>
<!-- Node64&#45;&gt;Node63 -->
<g id="edge39" class="edge">
<title>Node64&#45;&gt;Node63</title>
<path fill="none" stroke="#63b8ff" d="M1585.39,-166.24C1588.9,-157.37 1592.96,-147.14 1595.75,-140.09"/>
<polygon fill="#63b8ff" stroke="#63b8ff" points="1582.05,-165.16 1581.62,-175.75 1588.56,-167.74 1582.05,-165.16"/>
</g>
<!-- Node66&#45;&gt;Node65 -->
<g id="edge43" class="edge">
<title>Node66&#45;&gt;Node65</title>
<path fill="none" stroke="#63b8ff" d="M2843.12,-175.93C2683.05,-158.74 2508.24,-144.81 2408.7,-137.34"/>
<polygon fill="#63b8ff" stroke="#63b8ff" points="2842.84,-179.42 2853.16,-177.02 2843.59,-172.46 2842.84,-179.42"/>
</g>
<!-- Node75&#45;&gt;Node74 -->
<g id="edge51" class="edge">
<title>Node75&#45;&gt;Node74</title>
<path fill="none" stroke="#63b8ff" d="M4138.17,-167.67C4145.27,-158.5 4153.76,-147.52 4159.51,-140.09"/>
<polygon fill="#63b8ff" stroke="#63b8ff" points="4135.28,-165.7 4131.93,-175.75 4140.81,-169.98 4135.28,-165.7"/>
</g>
<!-- Node84&#45;&gt;Node3 -->
<g id="edge62" class="edge">
<title>Node84&#45;&gt;Node3</title>
<path fill="none" stroke="#63b8ff" d="M770.63,-173.15C742.24,-164.96 703.96,-153.09 671.16,-140 653.25,-132.86 650.45,-127.1 632.16,-121 555.92,-95.56 462.49,-81.5 411.26,-75.18"/>
<polygon fill="#63b8ff" stroke="#63b8ff" points="770.03,-176.62 780.61,-175.99 771.95,-169.88 770.03,-176.62"/>
</g>
<!-- Node84&#45;&gt;Node4 -->
<g id="edge64" class="edge">
<title>Node84&#45;&gt;Node4</title>
<path fill="none" stroke="#63b8ff" d="M827.61,-168.26C834.05,-160.38 840.81,-150.38 844.16,-140 849.18,-124.41 854.24,-94.56 841.16,-55 836.59,-41.2 826.45,-27.69 819.22,-19.25"/>
<polygon fill="#63b8ff" stroke="#63b8ff" points="824.87,-166.08 820.91,-175.9 830.13,-170.69 824.87,-166.08"/>
</g>
<!-- Node84&#45;&gt;Node5 -->
<g id="edge65" class="edge">
<title>Node84&#45;&gt;Node5</title>
<path fill="none" stroke="#63b8ff" d="M749.27,-175.11C681.49,-164.99 574.75,-149.06 510.79,-139.51"/>
<polygon fill="#63b8ff" stroke="#63b8ff" points="748.99,-178.61 759.39,-176.62 750.02,-171.68 748.99,-178.61"/>
</g>
<!-- Node84&#45;&gt;Node14 -->
<g id="edge63" class="edge">
<title>Node84&#45;&gt;Node14</title>
<path fill="none" stroke="#63b8ff" d="M834.56,-170.2C847.52,-161.73 864.01,-150.61 878.16,-140 905.59,-119.43 936.22,-93.01 951.45,-79.61"/>
<polygon fill="#63b8ff" stroke="#63b8ff" points="832.32,-167.48 825.83,-175.85 836.13,-173.35 832.32,-167.48"/>
</g>
<!-- Node84&#45;&gt;Node118 -->
<g id="edge66" class="edge">
<title>Node84&#45;&gt;Node118</title>
<path fill="none" stroke="#63b8ff" d="M795.87,-168.52C786.36,-159.18 774.72,-147.75 766.91,-140.09"/>
<polygon fill="#63b8ff" stroke="#63b8ff" points="793.65,-171.24 803.24,-175.75 798.55,-166.25 793.65,-171.24"/>
</g>
<!-- Node118&#45;&gt;Node3 -->
<g id="edge67" class="edge">
<title>Node118&#45;&gt;Node3</title>
<path fill="none" stroke="#63b8ff" d="M692.1,-119.46C611.21,-107.17 476.9,-86.76 411.41,-76.81"/>
<polygon fill="#63b8ff" stroke="#63b8ff" points="691.76,-122.95 702.17,-120.99 692.81,-116.03 691.76,-122.95"/>
</g>
<!-- Node118&#45;&gt;Node9 -->
<g id="edge70" class="edge">
<title>Node118&#45;&gt;Node9</title>
<path fill="none" stroke="#63b8ff" d="M719.9,-117.96C682.37,-106.65 626.04,-89.66 592.4,-79.52"/>
<polygon fill="#63b8ff" stroke="#63b8ff" points="719.36,-121.46 729.95,-120.99 721.38,-114.76 719.36,-121.46"/>
</g>
<!-- Node118&#45;&gt;Node14 -->
<g id="edge68" class="edge">
<title>Node118&#45;&gt;Node14</title>
<path fill="none" stroke="#63b8ff" d="M797.44,-118.18C836.7,-106.87 896.18,-89.72 931.6,-79.52"/>
<polygon fill="#63b8ff" stroke="#63b8ff" points="796.31,-114.86 787.67,-120.99 798.25,-121.59 796.31,-114.86"/>
</g>
<!-- Node118&#45;&gt;Node42 -->
<g id="edge69" class="edge">
<title>Node118&#45;&gt;Node42</title>
<path fill="none" stroke="#63b8ff" d="M758.16,-110.66C758.16,-100.24 758.16,-87.8 758.16,-79.67"/>
<polygon fill="#63b8ff" stroke="#63b8ff" points="754.66,-110.87 758.16,-120.87 761.66,-110.87 754.66,-110.87"/>
</g>
<!-- Node130&#45;&gt;Node7 -->
<g id="edge78" class="edge">
<title>Node130&#45;&gt;Node7</title>
<path fill="none" stroke="#63b8ff" d="M3106.83,-173.2C3050.25,-157.95 2943.83,-131.5 2851.16,-121 2293.55,-57.84 885.65,-128.37 326.16,-85 310.58,-83.79 293.72,-81.7 278.4,-79.5"/>
<polygon fill="#63b8ff" stroke="#63b8ff" points="3106.24,-176.66 3116.8,-175.91 3108.07,-169.91 3106.24,-176.66"/>
</g>
<!-- Node130&#45;&gt;Node10 -->
<g id="edge81" class="edge">
<title>Node130&#45;&gt;Node10</title>
<path fill="none" stroke="#63b8ff" d="M3090.99,-176.17C2538.75,-131.98 1204.99,-167.81 671.16,-140 655.78,-139.2 639.03,-137.86 623.95,-136.48"/>
<polygon fill="#63b8ff" stroke="#63b8ff" points="3090.82,-179.67 3101.07,-177 3091.39,-172.7 3090.82,-179.67"/>
</g>
<!-- Node130&#45;&gt;Node14 -->
<g id="edge74" class="edge">
<title>Node130&#45;&gt;Node14</title>
<path fill="none" stroke="#63b8ff" d="M3126.01,-170.08C3101.88,-154.56 3060.62,-130.76 3021.16,-121 2807.34,-68.11 1258.36,-106.52 1039.16,-85 1026.97,-83.8 1013.83,-81.75 1001.87,-79.57"/>
<polygon fill="#63b8ff" stroke="#63b8ff" points="3124.39,-173.21 3134.67,-175.78 3128.24,-167.36 3124.39,-173.21"/>
</g>
<!-- Node130&#45;&gt;Node72 -->
<g id="edge75" class="edge">
<title>Node130&#45;&gt;Node72</title>
<path fill="none" stroke="#63b8ff" d="M3090.84,-175.97C2994.91,-162.06 2896.38,-148.5 2834.03,-140.01"/>
<polygon fill="#63b8ff" stroke="#63b8ff" points="3090.62,-179.48 3101.02,-177.45 3091.63,-172.55 3090.62,-179.48"/>
</g>
<!-- Node130&#45;&gt;Node77 -->
<g id="edge76" class="edge">
<title>Node130&#45;&gt;Node77</title>
<path fill="none" stroke="#63b8ff" d="M3167.02,-169.88C3179.98,-160.34 3196.45,-148.21 3207.38,-140.17"/>
<polygon fill="#63b8ff" stroke="#63b8ff" points="3164.7,-167.24 3158.72,-175.98 3168.85,-172.88 3164.7,-167.24"/>
</g>
<!-- Node130&#45;&gt;Node79 -->
<g id="edge77" class="edge">
<title>Node130&#45;&gt;Node79</title>
<path fill="none" stroke="#63b8ff" d="M3189.74,-173.44C3227.93,-163.52 3283.18,-149.16 3318.12,-140.08"/>
<polygon fill="#63b8ff" stroke="#63b8ff" points="3188.73,-170.08 3179.93,-175.98 3190.49,-176.86 3188.73,-170.08"/>
</g>
<!-- Node130&#45;&gt;Node129 -->
<g id="edge79" class="edge">
<title>Node130&#45;&gt;Node129</title>
<path fill="none" stroke="#63b8ff" d="M3203.36,-176.01C3270.36,-165.9 3381.4,-149.13 3446.38,-139.32"/>
<polygon fill="#63b8ff" stroke="#63b8ff" points="3202.77,-172.56 3193.4,-177.52 3203.82,-179.48 3202.77,-172.56"/>
</g>
<!-- Node130&#45;&gt;Node132 -->
<g id="edge80" class="edge">
<title>Node130&#45;&gt;Node132</title>
<path fill="none" stroke="#63b8ff" d="M3203.48,-179.19C3215.58,-178.09 3228.29,-176.98 3240.16,-176 3449.88,-158.75 3700.52,-141.5 3802.53,-134.62"/>
<polygon fill="#63b8ff" stroke="#63b8ff" points="3203.14,-175.7 3193.5,-180.1 3203.78,-182.67 3203.14,-175.7"/>
</g>
</g>
</svg>
