<?xml version="1.0" encoding="UTF-8" standalone="no"?>
<!DOCTYPE svg PUBLIC "-//W3C//DTD SVG 1.1//EN"
 "http://www.w3.org/Graphics/SVG/1.1/DTD/svg11.dtd">
<!-- Generated by graphviz version 2.43.0 (0)
 -->
<!-- Title: thorin/analyses/looptree.cpp Pages: 1 -->
<svg width="1842pt" height="487pt"
 viewBox="0.00 0.00 1841.50 487.00" xmlns="http://www.w3.org/2000/svg" xmlns:xlink="http://www.w3.org/1999/xlink">
<g id="graph0" class="graph" transform="scale(1 1) rotate(0) translate(4 483)">
<title>thorin/analyses/looptree.cpp</title>
<!-- Node1 -->
<g id="node1" class="node">
<title>Node1</title>
<g id="a_node1"><a xlink:title=" ">
<polygon fill="#bfbfbf" stroke="black" points="795.5,-459.5 795.5,-478.5 950.5,-478.5 950.5,-459.5 795.5,-459.5"/>
<text text-anchor="middle" x="873" y="-466.5" font-family="Helvetica,sans-Serif" font-size="10.00">thorin/analyses/looptree.cpp</text>
</a>
</g>
</g>
<!-- Node2 -->
<g id="node2" class="node">
<title>Node2</title>
<g id="a_node2"><a xlink:href="looptree_8h.html" target="_top" xlink:title=" ">
<polygon fill="none" stroke="black" points="732,-403.5 732,-422.5 876,-422.5 876,-403.5 732,-403.5"/>
<text text-anchor="middle" x="804" y="-410.5" font-family="Helvetica,sans-Serif" font-size="10.00">thorin/analyses/looptree.h</text>
</a>
</g>
</g>
<!-- Node1&#45;&gt;Node2 -->
<g id="edge1" class="edge">
<title>Node1&#45;&gt;Node2</title>
<path fill="none" stroke="midnightblue" d="M861.91,-459.32C851.51,-451.18 835.74,-438.84 823.28,-429.09"/>
<polygon fill="midnightblue" stroke="midnightblue" points="825.32,-426.24 815.29,-422.83 821.01,-431.75 825.32,-426.24"/>
</g>
<!-- Node4 -->
<g id="node4" class="node">
<title>Node4</title>
<g id="a_node4"><a xlink:href="cfg_8h.html" target="_top" xlink:title=" ">
<polygon fill="none" stroke="black" points="581.5,-347.5 581.5,-366.5 700.5,-366.5 700.5,-347.5 581.5,-347.5"/>
<text text-anchor="middle" x="641" y="-354.5" font-family="Helvetica,sans-Serif" font-size="10.00">thorin/analyses/cfg.h</text>
</a>
</g>
</g>
<!-- Node1&#45;&gt;Node4 -->
<g id="edge66" class="edge">
<title>Node1&#45;&gt;Node4</title>
<path fill="none" stroke="midnightblue" d="M829.3,-459.5C798.44,-452.41 756.75,-440.61 723,-423 697.76,-409.83 672.7,-388.43 657.05,-373.81"/>
<polygon fill="midnightblue" stroke="midnightblue" points="659.43,-371.24 649.78,-366.86 654.59,-376.3 659.43,-371.24"/>
</g>
<!-- Node6 -->
<g id="node6" class="node">
<title>Node6</title>
<g id="a_node6"><a xlink:href="def_8h.html" target="_top" xlink:title=" ">
<polygon fill="none" stroke="black" points="861,-235.5 861,-254.5 933,-254.5 933,-235.5 861,-235.5"/>
<text text-anchor="middle" x="897" y="-242.5" font-family="Helvetica,sans-Serif" font-size="10.00">thorin/def.h</text>
</a>
</g>
</g>
<!-- Node1&#45;&gt;Node6 -->
<g id="edge65" class="edge">
<title>Node1&#45;&gt;Node6</title>
<path fill="none" stroke="midnightblue" d="M875.8,-459.48C878.62,-450.51 882.86,-435.92 885,-423 894.46,-365.9 896.5,-297.25 896.91,-264.78"/>
<polygon fill="midnightblue" stroke="midnightblue" points="900.41,-264.57 897,-254.54 893.41,-264.51 900.41,-264.57"/>
</g>
<!-- Node16 -->
<g id="node16" class="node">
<title>Node16</title>
<g id="a_node16"><a xlink:title=" ">
<polygon fill="none" stroke="#bfbfbf" points="1020,-118 1020,-137 1084,-137 1084,-118 1020,-118"/>
<text text-anchor="middle" x="1052" y="-125" font-family="Helvetica,sans-Serif" font-size="10.00">algorithm</text>
</a>
</g>
</g>
<!-- Node1&#45;&gt;Node16 -->
<g id="edge62" class="edge">
<title>Node1&#45;&gt;Node16</title>
<path fill="none" stroke="midnightblue" d="M934.43,-459.49C991.59,-447.7 1068,-420.29 1068,-358 1068,-358 1068,-358 1068,-244 1068,-209.54 1060.92,-169.83 1056.18,-147.1"/>
<polygon fill="midnightblue" stroke="midnightblue" points="1059.56,-146.17 1054.03,-137.14 1052.72,-147.65 1059.56,-146.17"/>
</g>
<!-- Node25 -->
<g id="node25" class="node">
<title>Node25</title>
<g id="a_node25"><a xlink:title=" ">
<polygon fill="none" stroke="#bfbfbf" points="1790.5,-118 1790.5,-137 1833.5,-137 1833.5,-118 1790.5,-118"/>
<text text-anchor="middle" x="1812" y="-125" font-family="Helvetica,sans-Serif" font-size="10.00">stack</text>
</a>
</g>
</g>
<!-- Node1&#45;&gt;Node25 -->
<g id="edge64" class="edge">
<title>Node1&#45;&gt;Node25</title>
<path fill="none" stroke="midnightblue" d="M950.64,-466.57C1168.55,-461.55 1770,-440.22 1770,-358 1770,-358 1770,-358 1770,-244 1770,-207.36 1788.89,-167.91 1801.34,-145.91"/>
<polygon fill="midnightblue" stroke="midnightblue" points="1804.47,-147.49 1806.51,-137.09 1798.43,-143.95 1804.47,-147.49"/>
</g>
<!-- Node36 -->
<g id="node36" class="node">
<title>Node36</title>
<g id="a_node36"><a xlink:title=" ">
<polygon fill="none" stroke="#bfbfbf" points="0,-118 0,-137 60,-137 60,-118 0,-118"/>
<text text-anchor="middle" x="30" y="-125" font-family="Helvetica,sans-Serif" font-size="10.00">iostream</text>
</a>
</g>
</g>
<!-- Node1&#45;&gt;Node36 -->
<g id="edge63" class="edge">
<title>Node1&#45;&gt;Node36</title>
<path fill="none" stroke="midnightblue" d="M795.36,-464.38C606.97,-454.55 141,-423.62 141,-358 141,-358 141,-358 141,-244 141,-195.91 90.35,-160.08 57.48,-141.9"/>
<polygon fill="midnightblue" stroke="midnightblue" points="58.8,-138.64 48.33,-137.04 55.52,-144.82 58.8,-138.64"/>
</g>
<!-- Node3 -->
<g id="node3" class="node">
<title>Node3</title>
<g id="a_node3"><a xlink:title=" ">
<polygon fill="none" stroke="#bfbfbf" points="786.5,-118 786.5,-137 833.5,-137 833.5,-118 786.5,-118"/>
<text text-anchor="middle" x="810" y="-125" font-family="Helvetica,sans-Serif" font-size="10.00">vector</text>
</a>
</g>
</g>
<!-- Node2&#45;&gt;Node3 -->
<g id="edge2" class="edge">
<title>Node2&#45;&gt;Node3</title>
<path fill="none" stroke="midnightblue" d="M804,-403.44C804,-384.94 804,-339.81 804,-302 804,-302 804,-302 804,-244 804,-209.82 806.65,-170.02 808.43,-147.19"/>
<polygon fill="midnightblue" stroke="midnightblue" points="811.92,-147.43 809.24,-137.19 804.95,-146.87 811.92,-147.43"/>
</g>
<!-- Node2&#45;&gt;Node4 -->
<g id="edge3" class="edge">
<title>Node2&#45;&gt;Node4</title>
<path fill="none" stroke="midnightblue" d="M778.17,-403.44C750.75,-394.36 707.22,-379.94 676.57,-369.78"/>
<polygon fill="midnightblue" stroke="midnightblue" points="677.3,-366.34 666.71,-366.52 675.1,-372.98 677.3,-366.34"/>
</g>
<!-- Node12 -->
<g id="node12" class="node">
<title>Node12</title>
<g id="a_node12"><a xlink:href="array_8h.html" target="_top" xlink:title=" ">
<polygon fill="none" stroke="black" points="638,-179.5 638,-198.5 738,-198.5 738,-179.5 638,-179.5"/>
<text text-anchor="middle" x="688" y="-186.5" font-family="Helvetica,sans-Serif" font-size="10.00">thorin/util/array.h</text>
</a>
</g>
</g>
<!-- Node2&#45;&gt;Node12 -->
<g id="edge60" class="edge">
<title>Node2&#45;&gt;Node12</title>
<path fill="none" stroke="midnightblue" d="M799.45,-403.3C782.24,-370.36 720.87,-252.9 697.3,-207.81"/>
<polygon fill="midnightblue" stroke="midnightblue" points="700.38,-206.13 692.64,-198.88 694.17,-209.37 700.38,-206.13"/>
</g>
<!-- Node22 -->
<g id="node22" class="node">
<title>Node22</title>
<g id="a_node22"><a xlink:href="cast_8h.html" target="_top" xlink:title=" ">
<polygon fill="none" stroke="black" points="944,-179.5 944,-198.5 1040,-198.5 1040,-179.5 944,-179.5"/>
<text text-anchor="middle" x="992" y="-186.5" font-family="Helvetica,sans-Serif" font-size="10.00">thorin/util/cast.h</text>
</a>
</g>
</g>
<!-- Node2&#45;&gt;Node22 -->
<g id="edge61" class="edge">
<title>Node2&#45;&gt;Node22</title>
<path fill="none" stroke="midnightblue" d="M811.99,-403.32C833.5,-379.86 894.28,-313.01 942,-255 955.23,-238.92 969.66,-220 979.6,-206.73"/>
<polygon fill="midnightblue" stroke="midnightblue" points="982.53,-208.66 985.7,-198.55 976.92,-204.48 982.53,-208.66"/>
</g>
<!-- Node4&#45;&gt;Node3 -->
<g id="edge4" class="edge">
<title>Node4&#45;&gt;Node3</title>
<path fill="none" stroke="midnightblue" d="M651.35,-347.28C661.31,-338.61 676.53,-324.67 688,-311 735.07,-254.91 780.2,-180.22 799.8,-146.44"/>
<polygon fill="midnightblue" stroke="midnightblue" points="803.08,-147.75 805.03,-137.34 797.01,-144.26 803.08,-147.75"/>
</g>
<!-- Node5 -->
<g id="node5" class="node">
<title>Node5</title>
<g id="a_node5"><a xlink:href="scope_8h.html" target="_top" xlink:title=" ">
<polygon fill="none" stroke="black" points="356,-291.5 356,-310.5 488,-310.5 488,-291.5 356,-291.5"/>
<text text-anchor="middle" x="422" y="-298.5" font-family="Helvetica,sans-Serif" font-size="10.00">thorin/analyses/scope.h</text>
</a>
</g>
</g>
<!-- Node4&#45;&gt;Node5 -->
<g id="edge5" class="edge">
<title>Node4&#45;&gt;Node5</title>
<path fill="none" stroke="midnightblue" d="M606.3,-347.44C568.42,-338.1 507.65,-323.12 466.34,-312.93"/>
<polygon fill="midnightblue" stroke="midnightblue" points="467.09,-309.51 456.54,-310.52 465.41,-316.31 467.09,-309.51"/>
</g>
<!-- Node4&#45;&gt;Node12 -->
<g id="edge53" class="edge">
<title>Node4&#45;&gt;Node12</title>
<path fill="none" stroke="midnightblue" d="M648.5,-347.36C655.53,-338.76 665.72,-324.86 671,-311 684.1,-276.59 687.25,-233.21 687.92,-208.84"/>
<polygon fill="midnightblue" stroke="midnightblue" points="691.43,-208.59 688.09,-198.53 684.43,-208.48 691.43,-208.59"/>
</g>
<!-- Node35 -->
<g id="node35" class="node">
<title>Node35</title>
<g id="a_node35"><a xlink:href="print_8h.html" target="_top" xlink:title=" ">
<polygon fill="none" stroke="black" points="289,-179.5 289,-198.5 387,-198.5 387,-179.5 289,-179.5"/>
<text text-anchor="middle" x="338" y="-186.5" font-family="Helvetica,sans-Serif" font-size="10.00">thorin/util/print.h</text>
</a>
</g>
</g>
<!-- Node4&#45;&gt;Node35 -->
<g id="edge59" class="edge">
<title>Node4&#45;&gt;Node35</title>
<path fill="none" stroke="midnightblue" d="M581.2,-355.32C504.53,-353.07 377.77,-344.26 347,-311 321.34,-283.26 327.22,-234.99 333.04,-208.58"/>
<polygon fill="midnightblue" stroke="midnightblue" points="336.47,-209.26 335.44,-198.72 329.67,-207.61 336.47,-209.26"/>
</g>
<!-- Node39 -->
<g id="node39" class="node">
<title>Node39</title>
<g id="a_node39"><a xlink:href="indexmap_8h.html" target="_top" xlink:title=" ">
<polygon fill="none" stroke="black" points="453.5,-235.5 453.5,-254.5 578.5,-254.5 578.5,-235.5 453.5,-235.5"/>
<text text-anchor="middle" x="516" y="-242.5" font-family="Helvetica,sans-Serif" font-size="10.00">thorin/util/indexmap.h</text>
</a>
</g>
</g>
<!-- Node4&#45;&gt;Node39 -->
<g id="edge54" class="edge">
<title>Node4&#45;&gt;Node39</title>
<path fill="none" stroke="midnightblue" d="M599.45,-347.46C577.47,-340.93 551.67,-329.75 535,-311 523.66,-298.24 519.07,-279.05 517.22,-264.82"/>
<polygon fill="midnightblue" stroke="midnightblue" points="520.69,-264.32 516.25,-254.7 513.72,-264.98 520.69,-264.32"/>
</g>
<!-- Node40 -->
<g id="node40" class="node">
<title>Node40</title>
<g id="a_node40"><a xlink:href="indexset_8h.html" target="_top" xlink:title=" ">
<polygon fill="none" stroke="black" points="544,-291.5 544,-310.5 662,-310.5 662,-291.5 544,-291.5"/>
<text text-anchor="middle" x="603" y="-298.5" font-family="Helvetica,sans-Serif" font-size="10.00">thorin/util/indexset.h</text>
</a>
</g>
</g>
<!-- Node4&#45;&gt;Node40 -->
<g id="edge57" class="edge">
<title>Node4&#45;&gt;Node40</title>
<path fill="none" stroke="midnightblue" d="M634.73,-347.08C629.36,-339.46 621.48,-328.26 614.92,-318.94"/>
<polygon fill="midnightblue" stroke="midnightblue" points="617.78,-316.91 609.16,-310.75 612.05,-320.94 617.78,-316.91"/>
</g>
<!-- Node5&#45;&gt;Node6 -->
<g id="edge6" class="edge">
<title>Node5&#45;&gt;Node6</title>
<path fill="none" stroke="midnightblue" d="M488.05,-292.49C585.69,-281.39 766.11,-260.88 850.81,-251.25"/>
<polygon fill="midnightblue" stroke="midnightblue" points="851.36,-254.71 860.9,-250.1 850.56,-247.76 851.36,-254.71"/>
</g>
<!-- Node5&#45;&gt;Node35 -->
<g id="edge52" class="edge">
<title>Node5&#45;&gt;Node35</title>
<path fill="none" stroke="midnightblue" d="M415.41,-291.37C401.48,-273.14 368.87,-230.43 350.73,-206.68"/>
<polygon fill="midnightblue" stroke="midnightblue" points="353.41,-204.41 344.56,-198.59 347.85,-208.66 353.41,-204.41"/>
</g>
<!-- Node6&#45;&gt;Node3 -->
<g id="edge8" class="edge">
<title>Node6&#45;&gt;Node3</title>
<path fill="none" stroke="midnightblue" d="M899.57,-235.31C902.92,-222.14 907.25,-196.8 897,-179 890.44,-167.61 861.53,-152.16 838.81,-141.36"/>
<polygon fill="midnightblue" stroke="midnightblue" points="840.08,-138.09 829.53,-137.04 837.12,-144.43 840.08,-138.09"/>
</g>
<!-- Node7 -->
<g id="node7" class="node">
<title>Node7</title>
<g id="a_node7"><a xlink:title=" ">
<polygon fill="none" stroke="#bfbfbf" points="832,-179.5 832,-198.5 888,-198.5 888,-179.5 832,-179.5"/>
<text text-anchor="middle" x="860" y="-186.5" font-family="Helvetica,sans-Serif" font-size="10.00">optional</text>
</a>
</g>
</g>
<!-- Node6&#45;&gt;Node7 -->
<g id="edge7" class="edge">
<title>Node6&#45;&gt;Node7</title>
<path fill="none" stroke="midnightblue" d="M890.89,-235.08C885.72,-227.53 878.15,-216.49 871.81,-207.23"/>
<polygon fill="midnightblue" stroke="midnightblue" points="874.54,-205.02 866,-198.75 868.76,-208.98 874.54,-205.02"/>
</g>
<!-- Node8 -->
<g id="node8" class="node">
<title>Node8</title>
<g id="a_node8"><a xlink:href="debug_8h.html" target="_top" xlink:title=" ">
<polygon fill="none" stroke="black" points="1103.5,-179.5 1103.5,-198.5 1190.5,-198.5 1190.5,-179.5 1103.5,-179.5"/>
<text text-anchor="middle" x="1147" y="-186.5" font-family="Helvetica,sans-Serif" font-size="10.00">thorin/debug.h</text>
</a>
</g>
</g>
<!-- Node6&#45;&gt;Node8 -->
<g id="edge9" class="edge">
<title>Node6&#45;&gt;Node8</title>
<path fill="none" stroke="midnightblue" d="M933.09,-236.21C976.39,-226.85 1049.2,-211.12 1097.67,-200.65"/>
<polygon fill="midnightblue" stroke="midnightblue" points="1098.59,-204.04 1107.63,-198.5 1097.11,-197.19 1098.59,-204.04"/>
</g>
<!-- Node6&#45;&gt;Node12 -->
<g id="edge13" class="edge">
<title>Node6&#45;&gt;Node12</title>
<path fill="none" stroke="midnightblue" d="M863.88,-235.44C827.88,-226.14 770.23,-211.25 730.81,-201.06"/>
<polygon fill="midnightblue" stroke="midnightblue" points="731.52,-197.63 720.96,-198.52 729.77,-204.41 731.52,-197.63"/>
</g>
<!-- Node6&#45;&gt;Node22 -->
<g id="edge24" class="edge">
<title>Node6&#45;&gt;Node22</title>
<path fill="none" stroke="midnightblue" d="M912.26,-235.32C927.22,-226.82 950.25,-213.73 967.73,-203.8"/>
<polygon fill="midnightblue" stroke="midnightblue" points="969.81,-206.64 976.77,-198.65 966.35,-200.55 969.81,-206.64"/>
</g>
<!-- Node23 -->
<g id="node23" class="node">
<title>Node23</title>
<g id="a_node23"><a xlink:href="container_8h.html" target="_top" xlink:title=" ">
<polygon fill="none" stroke="black" points="1384.5,-179.5 1384.5,-198.5 1505.5,-198.5 1505.5,-179.5 1384.5,-179.5"/>
<text text-anchor="middle" x="1445" y="-186.5" font-family="Helvetica,sans-Serif" font-size="10.00">thorin/util/container.h</text>
</a>
</g>
</g>
<!-- Node6&#45;&gt;Node23 -->
<g id="edge27" class="edge">
<title>Node6&#45;&gt;Node23</title>
<path fill="none" stroke="midnightblue" d="M933.38,-240.42C1023.04,-231.58 1255.89,-208.63 1374.03,-196.99"/>
<polygon fill="midnightblue" stroke="midnightblue" points="1374.45,-200.47 1384.06,-196 1373.77,-193.5 1374.45,-200.47"/>
</g>
<!-- Node28 -->
<g id="node28" class="node">
<title>Node28</title>
<g id="a_node28"><a xlink:href="hash_8h.html" target="_top" xlink:title=" ">
<polygon fill="none" stroke="black" points="1673.5,-118 1673.5,-137 1772.5,-137 1772.5,-118 1673.5,-118"/>
<text text-anchor="middle" x="1723" y="-125" font-family="Helvetica,sans-Serif" font-size="10.00">thorin/util/hash.h</text>
</a>
</g>
</g>
<!-- Node6&#45;&gt;Node28 -->
<g id="edge42" class="edge">
<title>Node6&#45;&gt;Node28</title>
<path fill="none" stroke="midnightblue" d="M933.31,-244.55C1029.34,-245.32 1297.54,-243.02 1515,-199 1580.8,-185.68 1654.49,-157.33 1694.08,-140.93"/>
<polygon fill="midnightblue" stroke="midnightblue" points="1695.51,-144.12 1703.39,-137.03 1692.81,-137.67 1695.51,-144.12"/>
</g>
<!-- Node6&#45;&gt;Node35 -->
<g id="edge43" class="edge">
<title>Node6&#45;&gt;Node35</title>
<path fill="none" stroke="midnightblue" d="M860.75,-240.5C766.58,-231.4 513.45,-206.95 397.49,-195.75"/>
<polygon fill="midnightblue" stroke="midnightblue" points="397.67,-192.25 387.38,-194.77 396.99,-199.22 397.67,-192.25"/>
</g>
<!-- Node9 -->
<g id="node9" class="node">
<title>Node9</title>
<g id="a_node9"><a xlink:title=" ">
<polygon fill="none" stroke="#bfbfbf" points="920,-118 920,-137 964,-137 964,-118 920,-118"/>
<text text-anchor="middle" x="942" y="-125" font-family="Helvetica,sans-Serif" font-size="10.00">string</text>
</a>
</g>
</g>
<!-- Node8&#45;&gt;Node9 -->
<g id="edge10" class="edge">
<title>Node8&#45;&gt;Node9</title>
<path fill="none" stroke="midnightblue" d="M1117.63,-179.48C1079.44,-168.39 1012.98,-149.1 973.68,-137.7"/>
<polygon fill="midnightblue" stroke="midnightblue" points="974.66,-134.33 964.08,-134.91 972.71,-141.06 974.66,-134.33"/>
</g>
<!-- Node10 -->
<g id="node10" class="node">
<title>Node10</title>
<g id="a_node10"><a xlink:title=" ">
<polygon fill="none" stroke="#bfbfbf" points="1224,-112.5 1224,-142.5 1328,-142.5 1328,-112.5 1224,-112.5"/>
<text text-anchor="start" x="1232" y="-130.5" font-family="Helvetica,sans-Serif" font-size="10.00">absl/container/flat</text>
<text text-anchor="middle" x="1276" y="-119.5" font-family="Helvetica,sans-Serif" font-size="10.00">_hash_map.h</text>
</a>
</g>
</g>
<!-- Node8&#45;&gt;Node10 -->
<g id="edge11" class="edge">
<title>Node8&#45;&gt;Node10</title>
<path fill="none" stroke="midnightblue" d="M1165.48,-179.48C1183.93,-170.96 1212.87,-157.62 1236.5,-146.72"/>
<polygon fill="midnightblue" stroke="midnightblue" points="1237.98,-149.89 1245.6,-142.52 1235.05,-143.53 1237.98,-149.89"/>
</g>
<!-- Node11 -->
<g id="node11" class="node">
<title>Node11</title>
<g id="a_node11"><a xlink:title=" ">
<polygon fill="none" stroke="#bfbfbf" points="1102,-112.5 1102,-142.5 1206,-142.5 1206,-112.5 1102,-112.5"/>
<text text-anchor="start" x="1110" y="-130.5" font-family="Helvetica,sans-Serif" font-size="10.00">absl/container/flat</text>
<text text-anchor="middle" x="1154" y="-119.5" font-family="Helvetica,sans-Serif" font-size="10.00">_hash_set.h</text>
</a>
</g>
</g>
<!-- Node8&#45;&gt;Node11 -->
<g id="edge12" class="edge">
<title>Node8&#45;&gt;Node11</title>
<path fill="none" stroke="midnightblue" d="M1148,-179.48C1148.83,-172.47 1150.04,-162.19 1151.15,-152.7"/>
<polygon fill="midnightblue" stroke="midnightblue" points="1154.66,-152.86 1152.35,-142.52 1147.71,-152.05 1154.66,-152.86"/>
</g>
<!-- Node12&#45;&gt;Node3 -->
<g id="edge23" class="edge">
<title>Node12&#45;&gt;Node3</title>
<path fill="none" stroke="midnightblue" d="M705.48,-179.48C725.86,-169.53 759.78,-152.99 783.42,-141.46"/>
<polygon fill="midnightblue" stroke="midnightblue" points="785.1,-144.54 792.55,-137.01 782.03,-138.25 785.1,-144.54"/>
</g>
<!-- Node13 -->
<g id="node13" class="node">
<title>Node13</title>
<g id="a_node13"><a xlink:title=" ">
<polygon fill="none" stroke="#bfbfbf" points="450,-56.5 450,-75.5 502,-75.5 502,-56.5 450,-56.5"/>
<text text-anchor="middle" x="476" y="-63.5" font-family="Helvetica,sans-Serif" font-size="10.00">cassert</text>
</a>
</g>
</g>
<!-- Node12&#45;&gt;Node13 -->
<g id="edge14" class="edge">
<title>Node12&#45;&gt;Node13</title>
<path fill="none" stroke="midnightblue" d="M637.54,-182.22C587.32,-175.46 514.92,-162.61 495,-143 479.81,-128.05 476.1,-102.93 475.5,-85.69"/>
<polygon fill="midnightblue" stroke="midnightblue" points="479,-85.68 475.47,-75.69 472,-85.7 479,-85.68"/>
</g>
<!-- Node14 -->
<g id="node14" class="node">
<title>Node14</title>
<g id="a_node14"><a xlink:title=" ">
<polygon fill="none" stroke="#bfbfbf" points="504.5,-118 504.5,-137 557.5,-137 557.5,-118 504.5,-118"/>
<text text-anchor="middle" x="531" y="-125" font-family="Helvetica,sans-Serif" font-size="10.00">cstddef</text>
</a>
</g>
</g>
<!-- Node12&#45;&gt;Node14 -->
<g id="edge15" class="edge">
<title>Node12&#45;&gt;Node14</title>
<path fill="none" stroke="midnightblue" d="M664.05,-179.48C639.37,-170.63 599.85,-156.25 566,-143 564.36,-142.36 562.68,-141.69 560.98,-141.01"/>
<polygon fill="midnightblue" stroke="midnightblue" points="561.88,-137.6 551.3,-137.07 559.24,-144.08 561.88,-137.6"/>
</g>
<!-- Node15 -->
<g id="node15" class="node">
<title>Node15</title>
<g id="a_node15"><a xlink:title=" ">
<polygon fill="none" stroke="#bfbfbf" points="852,-118 852,-137 902,-137 902,-118 852,-118"/>
<text text-anchor="middle" x="877" y="-125" font-family="Helvetica,sans-Serif" font-size="10.00">cstring</text>
</a>
</g>
</g>
<!-- Node12&#45;&gt;Node15 -->
<g id="edge16" class="edge">
<title>Node12&#45;&gt;Node15</title>
<path fill="none" stroke="midnightblue" d="M721.63,-179.49C753.28,-171.19 801.83,-157.69 843,-143 844.86,-142.34 846.76,-141.62 848.67,-140.88"/>
<polygon fill="midnightblue" stroke="midnightblue" points="850.16,-144.05 858.1,-137.04 847.52,-137.57 850.16,-144.05"/>
</g>
<!-- Node12&#45;&gt;Node16 -->
<g id="edge17" class="edge">
<title>Node12&#45;&gt;Node16</title>
<path fill="none" stroke="midnightblue" d="M738,-180.49C794.96,-171.85 890.79,-157.03 973,-143 984.91,-140.97 997.8,-138.65 1009.65,-136.47"/>
<polygon fill="midnightblue" stroke="midnightblue" points="1010.55,-139.87 1019.75,-134.61 1009.28,-132.98 1010.55,-139.87"/>
</g>
<!-- Node17 -->
<g id="node17" class="node">
<title>Node17</title>
<g id="a_node17"><a xlink:title=" ">
<polygon fill="none" stroke="#bfbfbf" points="314.5,-118 314.5,-137 379.5,-137 379.5,-118 314.5,-118"/>
<text text-anchor="middle" x="347" y="-125" font-family="Helvetica,sans-Serif" font-size="10.00">functional</text>
</a>
</g>
</g>
<!-- Node12&#45;&gt;Node17 -->
<g id="edge18" class="edge">
<title>Node12&#45;&gt;Node17</title>
<path fill="none" stroke="midnightblue" d="M637.99,-183.3C578.17,-177.04 475.28,-164.2 389,-143 385.78,-142.21 382.45,-141.27 379.15,-140.27"/>
<polygon fill="midnightblue" stroke="midnightblue" points="380.03,-136.87 369.44,-137.1 377.86,-143.53 380.03,-136.87"/>
</g>
<!-- Node18 -->
<g id="node18" class="node">
<title>Node18</title>
<g id="a_node18"><a xlink:title=" ">
<polygon fill="none" stroke="#bfbfbf" points="575.5,-118 575.5,-137 658.5,-137 658.5,-118 575.5,-118"/>
<text text-anchor="middle" x="617" y="-125" font-family="Helvetica,sans-Serif" font-size="10.00">initializer_list</text>
</a>
</g>
</g>
<!-- Node12&#45;&gt;Node18 -->
<g id="edge19" class="edge">
<title>Node12&#45;&gt;Node18</title>
<path fill="none" stroke="midnightblue" d="M677.83,-179.48C666.65,-170.11 648.48,-154.88 634.91,-143.51"/>
<polygon fill="midnightblue" stroke="midnightblue" points="637.07,-140.75 627.15,-137.01 632.57,-146.11 637.07,-140.75"/>
</g>
<!-- Node19 -->
<g id="node19" class="node">
<title>Node19</title>
<g id="a_node19"><a xlink:title=" ">
<polygon fill="none" stroke="#bfbfbf" points="676.5,-118 676.5,-137 729.5,-137 729.5,-118 676.5,-118"/>
<text text-anchor="middle" x="703" y="-125" font-family="Helvetica,sans-Serif" font-size="10.00">iterator</text>
</a>
</g>
</g>
<!-- Node12&#45;&gt;Node19 -->
<g id="edge20" class="edge">
<title>Node12&#45;&gt;Node19</title>
<path fill="none" stroke="midnightblue" d="M690.15,-179.48C692.29,-170.99 695.64,-157.7 698.38,-146.82"/>
<polygon fill="midnightblue" stroke="midnightblue" points="701.8,-147.56 700.85,-137.01 695.02,-145.85 701.8,-147.56"/>
</g>
<!-- Node20 -->
<g id="node20" class="node">
<title>Node20</title>
<g id="a_node20"><a xlink:title=" ">
<polygon fill="none" stroke="#bfbfbf" points="398,-118 398,-137 448,-137 448,-118 398,-118"/>
<text text-anchor="middle" x="423" y="-125" font-family="Helvetica,sans-Serif" font-size="10.00">ranges</text>
</a>
</g>
</g>
<!-- Node12&#45;&gt;Node20 -->
<g id="edge21" class="edge">
<title>Node12&#45;&gt;Node20</title>
<path fill="none" stroke="midnightblue" d="M637.63,-180.34C591.47,-172.76 521.47,-159.86 462,-143 459.35,-142.25 456.63,-141.4 453.92,-140.5"/>
<polygon fill="midnightblue" stroke="midnightblue" points="454.85,-137.12 444.25,-137.1 452.52,-143.72 454.85,-137.12"/>
</g>
<!-- Node21 -->
<g id="node21" class="node">
<title>Node21</title>
<g id="a_node21"><a xlink:title=" ">
<polygon fill="none" stroke="#bfbfbf" points="723.5,-0.5 723.5,-19.5 792.5,-19.5 792.5,-0.5 723.5,-0.5"/>
<text text-anchor="middle" x="758" y="-7.5" font-family="Helvetica,sans-Serif" font-size="10.00">type_traits</text>
</a>
</g>
</g>
<!-- Node12&#45;&gt;Node21 -->
<g id="edge22" class="edge">
<title>Node12&#45;&gt;Node21</title>
<path fill="none" stroke="midnightblue" d="M701.88,-179.49C713.53,-171.56 729.58,-158.63 738,-143 757.63,-106.56 759.61,-56.73 759.01,-29.92"/>
<polygon fill="midnightblue" stroke="midnightblue" points="762.49,-29.51 758.62,-19.65 755.5,-29.77 762.49,-29.51"/>
</g>
<!-- Node22&#45;&gt;Node13 -->
<g id="edge25" class="edge">
<title>Node22&#45;&gt;Node13</title>
<path fill="none" stroke="midnightblue" d="M992.75,-179.31C993.61,-163.24 992.84,-128.98 973,-112 938.17,-82.18 621.07,-70.91 512.37,-67.9"/>
<polygon fill="midnightblue" stroke="midnightblue" points="512.31,-64.39 502.22,-67.62 512.12,-71.39 512.31,-64.39"/>
</g>
<!-- Node22&#45;&gt;Node15 -->
<g id="edge26" class="edge">
<title>Node22&#45;&gt;Node15</title>
<path fill="none" stroke="midnightblue" d="M975.52,-179.48C956.39,-169.58 924.63,-153.14 902.35,-141.62"/>
<polygon fill="midnightblue" stroke="midnightblue" points="903.94,-138.5 893.45,-137.01 900.72,-144.71 903.94,-138.5"/>
</g>
<!-- Node23&#45;&gt;Node10 -->
<g id="edge30" class="edge">
<title>Node23&#45;&gt;Node10</title>
<path fill="none" stroke="midnightblue" d="M1420.79,-179.48C1395.97,-170.74 1356.69,-156.91 1325.29,-145.86"/>
<polygon fill="midnightblue" stroke="midnightblue" points="1326.42,-142.54 1315.83,-142.52 1324.1,-149.15 1326.42,-142.54"/>
</g>
<!-- Node23&#45;&gt;Node11 -->
<g id="edge31" class="edge">
<title>Node23&#45;&gt;Node11</title>
<path fill="none" stroke="midnightblue" d="M1398.63,-179.49C1354.28,-171.23 1285.27,-158.05 1216.37,-143.25"/>
<polygon fill="midnightblue" stroke="midnightblue" points="1216.73,-139.75 1206.21,-141.06 1215.25,-146.59 1216.73,-139.75"/>
</g>
<!-- Node24 -->
<g id="node24" class="node">
<title>Node24</title>
<g id="a_node24"><a xlink:title=" ">
<polygon fill="none" stroke="#bfbfbf" points="1608.5,-118 1608.5,-137 1655.5,-137 1655.5,-118 1608.5,-118"/>
<text text-anchor="middle" x="1632" y="-125" font-family="Helvetica,sans-Serif" font-size="10.00">queue</text>
</a>
</g>
</g>
<!-- Node23&#45;&gt;Node24 -->
<g id="edge28" class="edge">
<title>Node23&#45;&gt;Node24</title>
<path fill="none" stroke="midnightblue" d="M1479.63,-179.46C1511.34,-171.29 1559.39,-158.01 1600,-143 1601.61,-142.4 1603.26,-141.76 1604.91,-141.1"/>
<polygon fill="midnightblue" stroke="midnightblue" points="1606.44,-144.25 1614.25,-137.09 1603.68,-137.82 1606.44,-144.25"/>
</g>
<!-- Node23&#45;&gt;Node25 -->
<g id="edge29" class="edge">
<title>Node23&#45;&gt;Node25</title>
<path fill="none" stroke="midnightblue" d="M1505.56,-185.68C1573.97,-181.75 1688.01,-171.2 1782,-143 1783.68,-142.5 1785.37,-141.91 1787.07,-141.27"/>
<polygon fill="midnightblue" stroke="midnightblue" points="1788.73,-144.36 1796.5,-137.15 1785.93,-137.94 1788.73,-144.36"/>
</g>
<!-- Node26 -->
<g id="node26" class="node">
<title>Node26</title>
<g id="a_node26"><a xlink:title=" ">
<polygon fill="none" stroke="#bfbfbf" points="1346.5,-112.5 1346.5,-142.5 1459.5,-142.5 1459.5,-112.5 1346.5,-112.5"/>
<text text-anchor="start" x="1354.5" y="-130.5" font-family="Helvetica,sans-Serif" font-size="10.00">absl/container/node</text>
<text text-anchor="middle" x="1403" y="-119.5" font-family="Helvetica,sans-Serif" font-size="10.00">_hash_map.h</text>
</a>
</g>
</g>
<!-- Node23&#45;&gt;Node26 -->
<g id="edge32" class="edge">
<title>Node23&#45;&gt;Node26</title>
<path fill="none" stroke="midnightblue" d="M1438.98,-179.48C1433.72,-172.02 1425.84,-160.85 1418.79,-150.87"/>
<polygon fill="midnightblue" stroke="midnightblue" points="1421.52,-148.67 1412.9,-142.52 1415.81,-152.71 1421.52,-148.67"/>
</g>
<!-- Node27 -->
<g id="node27" class="node">
<title>Node27</title>
<g id="a_node27"><a xlink:title=" ">
<polygon fill="none" stroke="#bfbfbf" points="1477.5,-112.5 1477.5,-142.5 1590.5,-142.5 1590.5,-112.5 1477.5,-112.5"/>
<text text-anchor="start" x="1485.5" y="-130.5" font-family="Helvetica,sans-Serif" font-size="10.00">absl/container/node</text>
<text text-anchor="middle" x="1534" y="-119.5" font-family="Helvetica,sans-Serif" font-size="10.00">_hash_set.h</text>
</a>
</g>
</g>
<!-- Node23&#45;&gt;Node27 -->
<g id="edge33" class="edge">
<title>Node23&#45;&gt;Node27</title>
<path fill="none" stroke="midnightblue" d="M1457.75,-179.48C1469.92,-171.34 1488.69,-158.79 1504.56,-148.18"/>
<polygon fill="midnightblue" stroke="midnightblue" points="1506.66,-150.99 1513.02,-142.52 1502.77,-145.17 1506.66,-150.99"/>
</g>
<!-- Node23&#45;&gt;Node28 -->
<g id="edge34" class="edge">
<title>Node23&#45;&gt;Node28</title>
<path fill="none" stroke="midnightblue" d="M1489.79,-179.43C1534.33,-170.76 1604.55,-156.73 1665,-143 1669.93,-141.88 1675.09,-140.66 1680.21,-139.42"/>
<polygon fill="midnightblue" stroke="midnightblue" points="1681.06,-142.81 1689.93,-137.03 1679.39,-136.02 1681.06,-142.81"/>
</g>
<!-- Node29 -->
<g id="node29" class="node">
<title>Node29</title>
<g id="a_node29"><a xlink:href="types_8h.html" target="_top" xlink:title=" ">
<polygon fill="none" stroke="black" points="852.5,-56.5 852.5,-75.5 955.5,-75.5 955.5,-56.5 852.5,-56.5"/>
<text text-anchor="middle" x="904" y="-63.5" font-family="Helvetica,sans-Serif" font-size="10.00">thorin/util/types.h</text>
</a>
</g>
</g>
<!-- Node28&#45;&gt;Node29 -->
<g id="edge35" class="edge">
<title>Node28&#45;&gt;Node29</title>
<path fill="none" stroke="midnightblue" d="M1693.41,-117.98C1684.36,-115.68 1674.34,-113.43 1665,-112 1407.39,-72.53 1095.82,-67.16 965.73,-66.78"/>
<polygon fill="midnightblue" stroke="midnightblue" points="965.57,-63.28 955.56,-66.76 965.56,-70.28 965.57,-63.28"/>
</g>
<!-- Node29&#45;&gt;Node21 -->
<g id="edge39" class="edge">
<title>Node29&#45;&gt;Node21</title>
<path fill="none" stroke="midnightblue" d="M880.87,-56.44C856.52,-47.44 817.99,-33.19 790.58,-23.05"/>
<polygon fill="midnightblue" stroke="midnightblue" points="791.62,-19.7 781.03,-19.52 789.19,-26.27 791.62,-19.7"/>
</g>
<!-- Node30 -->
<g id="node30" class="node">
<title>Node30</title>
<g id="a_node30"><a xlink:title=" ">
<polygon fill="none" stroke="#bfbfbf" points="950,-0.5 950,-19.5 1000,-19.5 1000,-0.5 950,-0.5"/>
<text text-anchor="middle" x="975" y="-7.5" font-family="Helvetica,sans-Serif" font-size="10.00">cstdint</text>
</a>
</g>
</g>
<!-- Node29&#45;&gt;Node30 -->
<g id="edge36" class="edge">
<title>Node29&#45;&gt;Node30</title>
<path fill="none" stroke="midnightblue" d="M915.41,-56.32C926.11,-48.18 942.34,-35.84 955.16,-26.09"/>
<polygon fill="midnightblue" stroke="midnightblue" points="957.54,-28.67 963.39,-19.83 953.31,-23.1 957.54,-28.67"/>
</g>
<!-- Node31 -->
<g id="node31" class="node">
<title>Node31</title>
<g id="a_node31"><a xlink:title=" ">
<polygon fill="none" stroke="#bfbfbf" points="1018,-0.5 1018,-19.5 1062,-19.5 1062,-0.5 1018,-0.5"/>
<text text-anchor="middle" x="1040" y="-7.5" font-family="Helvetica,sans-Serif" font-size="10.00">limits</text>
</a>
</g>
</g>
<!-- Node29&#45;&gt;Node31 -->
<g id="edge37" class="edge">
<title>Node29&#45;&gt;Node31</title>
<path fill="none" stroke="midnightblue" d="M925.55,-56.44C948.03,-47.52 983.49,-33.44 1008.98,-23.32"/>
<polygon fill="midnightblue" stroke="midnightblue" points="1010.55,-26.46 1018.55,-19.52 1007.97,-19.95 1010.55,-26.46"/>
</g>
<!-- Node32 -->
<g id="node32" class="node">
<title>Node32</title>
<g id="a_node32"><a xlink:title=" ">
<polygon fill="none" stroke="#bfbfbf" points="391.5,-0.5 391.5,-19.5 448.5,-19.5 448.5,-0.5 391.5,-0.5"/>
<text text-anchor="middle" x="420" y="-7.5" font-family="Helvetica,sans-Serif" font-size="10.00">ostream</text>
</a>
</g>
</g>
<!-- Node29&#45;&gt;Node32 -->
<g id="edge38" class="edge">
<title>Node29&#45;&gt;Node32</title>
<path fill="none" stroke="midnightblue" d="M852.2,-59.22C754.58,-48.33 545.41,-24.99 458.8,-15.33"/>
<polygon fill="midnightblue" stroke="midnightblue" points="458.94,-11.82 448.61,-14.19 458.16,-18.78 458.94,-11.82"/>
</g>
<!-- Node33 -->
<g id="node33" class="node">
<title>Node33</title>
<g id="a_node33"><a xlink:title=" ">
<polygon fill="none" stroke="#bfbfbf" points="810.5,-0.5 810.5,-19.5 857.5,-19.5 857.5,-0.5 810.5,-0.5"/>
<text text-anchor="middle" x="834" y="-7.5" font-family="Helvetica,sans-Serif" font-size="10.00">cmath</text>
</a>
</g>
</g>
<!-- Node29&#45;&gt;Node33 -->
<g id="edge40" class="edge">
<title>Node29&#45;&gt;Node33</title>
<path fill="none" stroke="midnightblue" d="M892.75,-56.32C882.2,-48.18 866.2,-35.84 853.56,-26.09"/>
<polygon fill="midnightblue" stroke="midnightblue" points="855.51,-23.17 845.45,-19.83 851.23,-28.71 855.51,-23.17"/>
</g>
<!-- Node34 -->
<g id="node34" class="node">
<title>Node34</title>
<g id="a_node34"><a xlink:title=" ">
<polygon fill="none" stroke="#bfbfbf" points="876,-0.5 876,-19.5 932,-19.5 932,-0.5 876,-0.5"/>
<text text-anchor="middle" x="904" y="-7.5" font-family="Helvetica,sans-Serif" font-size="10.00">half.hpp</text>
</a>
</g>
</g>
<!-- Node29&#45;&gt;Node34 -->
<g id="edge41" class="edge">
<title>Node29&#45;&gt;Node34</title>
<path fill="none" stroke="midnightblue" d="M904,-56.08C904,-49.01 904,-38.86 904,-29.99"/>
<polygon fill="midnightblue" stroke="midnightblue" points="907.5,-29.75 904,-19.75 900.5,-29.75 907.5,-29.75"/>
</g>
<!-- Node35&#45;&gt;Node9 -->
<g id="edge49" class="edge">
<title>Node35&#45;&gt;Node9</title>
<path fill="none" stroke="midnightblue" d="M387.14,-186.4C507.16,-182.12 812.59,-168.96 911,-143 912.98,-142.48 914.99,-141.83 916.99,-141.11"/>
<polygon fill="midnightblue" stroke="midnightblue" points="918.8,-144.14 926.64,-137.01 916.07,-137.7 918.8,-144.14"/>
</g>
<!-- Node35&#45;&gt;Node17 -->
<g id="edge44" class="edge">
<title>Node35&#45;&gt;Node17</title>
<path fill="none" stroke="midnightblue" d="M339.29,-179.48C340.56,-171.08 342.54,-157.98 344.18,-147.16"/>
<polygon fill="midnightblue" stroke="midnightblue" points="347.68,-147.42 345.71,-137.01 340.76,-146.37 347.68,-147.42"/>
</g>
<!-- Node35&#45;&gt;Node20 -->
<g id="edge47" class="edge">
<title>Node35&#45;&gt;Node20</title>
<path fill="none" stroke="midnightblue" d="M350.18,-179.48C363.81,-169.93 386.13,-154.31 402.47,-142.87"/>
<polygon fill="midnightblue" stroke="midnightblue" points="404.66,-145.61 410.84,-137.01 400.64,-139.88 404.66,-145.61"/>
</g>
<!-- Node35&#45;&gt;Node32 -->
<g id="edge46" class="edge">
<title>Node35&#45;&gt;Node32</title>
<path fill="none" stroke="midnightblue" d="M288.6,-182.77C232.51,-174.68 152.3,-155.28 181,-112 225.78,-44.46 325.66,-21.97 381.07,-14.56"/>
<polygon fill="midnightblue" stroke="midnightblue" points="381.71,-18.01 391.21,-13.31 380.85,-11.06 381.71,-18.01"/>
</g>
<!-- Node35&#45;&gt;Node36 -->
<g id="edge45" class="edge">
<title>Node35&#45;&gt;Node36</title>
<path fill="none" stroke="midnightblue" d="M288.81,-182.62C234.41,-176.02 144.48,-163.15 69,-143 66.19,-142.25 63.29,-141.37 60.41,-140.44"/>
<polygon fill="midnightblue" stroke="midnightblue" points="61.41,-137.08 50.81,-137.07 59.09,-143.68 61.41,-137.08"/>
</g>
<!-- Node37 -->
<g id="node37" class="node">
<title>Node37</title>
<g id="a_node37"><a xlink:title=" ">
<polygon fill="none" stroke="#bfbfbf" points="78,-118 78,-137 134,-137 134,-118 78,-118"/>
<text text-anchor="middle" x="106" y="-125" font-family="Helvetica,sans-Serif" font-size="10.00">sstream</text>
</a>
</g>
</g>
<!-- Node35&#45;&gt;Node37 -->
<g id="edge48" class="edge">
<title>Node35&#45;&gt;Node37</title>
<path fill="none" stroke="midnightblue" d="M296.55,-179.43C257.85,-171.14 198.62,-157.69 148,-143 145.06,-142.15 142.02,-141.21 138.98,-140.23"/>
<polygon fill="midnightblue" stroke="midnightblue" points="140.01,-136.89 129.41,-137.05 137.8,-143.53 140.01,-136.89"/>
</g>
<!-- Node38 -->
<g id="node38" class="node">
<title>Node38</title>
<g id="a_node38"><a xlink:href="assert_8h.html" target="_top" xlink:title=" ">
<polygon fill="none" stroke="black" points="190,-118 190,-137 296,-137 296,-118 190,-118"/>
<text text-anchor="middle" x="243" y="-125" font-family="Helvetica,sans-Serif" font-size="10.00">thorin/util/assert.h</text>
</a>
</g>
</g>
<!-- Node35&#45;&gt;Node38 -->
<g id="edge50" class="edge">
<title>Node35&#45;&gt;Node38</title>
<path fill="none" stroke="midnightblue" d="M324.39,-179.48C308.94,-169.8 283.51,-153.87 265.18,-142.39"/>
<polygon fill="midnightblue" stroke="midnightblue" points="266.92,-139.35 256.59,-137.01 263.2,-145.28 266.92,-139.35"/>
</g>
<!-- Node38&#45;&gt;Node13 -->
<g id="edge51" class="edge">
<title>Node38&#45;&gt;Node13</title>
<path fill="none" stroke="midnightblue" d="M276.38,-117.98C319.81,-106.89 395.39,-87.59 440.04,-76.18"/>
<polygon fill="midnightblue" stroke="midnightblue" points="441.06,-79.53 449.89,-73.67 439.33,-72.75 441.06,-79.53"/>
</g>
<!-- Node39&#45;&gt;Node12 -->
<g id="edge56" class="edge">
<title>Node39&#45;&gt;Node12</title>
<path fill="none" stroke="midnightblue" d="M543.25,-235.44C572.44,-226.28 618.92,-211.69 651.31,-201.52"/>
<polygon fill="midnightblue" stroke="midnightblue" points="652.38,-204.85 660.87,-198.52 650.28,-198.17 652.38,-204.85"/>
</g>
<!-- Node39&#45;&gt;Node20 -->
<g id="edge55" class="edge">
<title>Node39&#45;&gt;Node20</title>
<path fill="none" stroke="midnightblue" d="M509.01,-235.32C493.59,-216.17 456.45,-170.04 436.39,-145.13"/>
<polygon fill="midnightblue" stroke="midnightblue" points="439.07,-142.88 430.07,-137.28 433.62,-147.27 439.07,-142.88"/>
</g>
<!-- Node40&#45;&gt;Node12 -->
<g id="edge58" class="edge">
<title>Node40&#45;&gt;Node12</title>
<path fill="none" stroke="midnightblue" d="M609.67,-291.37C623.76,-273.14 656.76,-230.43 675.11,-206.68"/>
<polygon fill="midnightblue" stroke="midnightblue" points="678.02,-208.64 681.36,-198.59 672.48,-204.36 678.02,-208.64"/>
</g>
</g>
</svg>
