<?xml version="1.0" encoding="UTF-8" standalone="no"?>
<!DOCTYPE svg PUBLIC "-//W3C//DTD SVG 1.1//EN"
 "http://www.w3.org/Graphics/SVG/1.1/DTD/svg11.dtd">
<!-- Generated by graphviz version 2.50.0 (20220203.2022)
 -->
<!-- Title: thorin/analyses/looptree.h Pages: 1 -->
<svg width="1698pt" height="431pt"
 viewBox="0.00 0.00 1697.50 431.00" xmlns="http://www.w3.org/2000/svg" xmlns:xlink="http://www.w3.org/1999/xlink">
<g id="graph0" class="graph" transform="scale(1 1) rotate(0) translate(4 427)">
<title>thorin/analyses/looptree.h</title>
<!-- Node1 -->
<g id="node1" class="node">
<title>Node1</title>
<g id="a_node1"><a xlink:title=" ">
<polygon fill="#bfbfbf" stroke="black" points="1055,-403.5 1055,-422.5 1182,-422.5 1182,-403.5 1055,-403.5"/>
<text text-anchor="middle" x="1118.5" y="-410.5" font-family="Helvetica,sans-Serif" font-size="10.00">thorin/analyses/looptree.h</text>
</a>
</g>
</g>
<!-- Node2 -->
<g id="node2" class="node">
<title>Node2</title>
<g id="a_node2"><a xlink:title=" ">
<polygon fill="none" stroke="#bfbfbf" points="714.5,-56.5 714.5,-75.5 766.5,-75.5 766.5,-56.5 714.5,-56.5"/>
<text text-anchor="middle" x="740.5" y="-63.5" font-family="Helvetica,sans-Serif" font-size="10.00">sstream</text>
</a>
</g>
</g>
<!-- Node1&#45;&gt;Node2 -->
<g id="edge1" class="edge">
<title>Node1&#45;&gt;Node2</title>
<path fill="none" stroke="midnightblue" d="M1054.75,-411.8C832.52,-410.26 105.5,-397.91 105.5,-302 105.5,-302 105.5,-302 105.5,-188 105.5,-153.18 97.73,-134.27 124.5,-112 172.33,-72.21 606.62,-85 704.27,-75.55"/>
<polygon fill="midnightblue" stroke="midnightblue" points="704.74,-79.02 714.24,-74.32 703.89,-72.08 704.74,-79.02"/>
</g>
<!-- Node3 -->
<g id="node3" class="node">
<title>Node3</title>
<g id="a_node3"><a xlink:title=" ">
<polygon fill="none" stroke="#bfbfbf" points="1029.5,-118 1029.5,-137 1073.5,-137 1073.5,-118 1029.5,-118"/>
<text text-anchor="middle" x="1051.5" y="-125" font-family="Helvetica,sans-Serif" font-size="10.00">vector</text>
</a>
</g>
</g>
<!-- Node1&#45;&gt;Node3 -->
<g id="edge2" class="edge">
<title>Node1&#45;&gt;Node3</title>
<path fill="none" stroke="midnightblue" d="M1064.53,-403.45C978.66,-388.3 820.5,-353.43 820.5,-302 820.5,-302 820.5,-302 820.5,-244 820.5,-213.9 817.3,-199.33 839.5,-179 899.99,-123.61 942.56,-168.56 1020.5,-143 1022.17,-142.45 1023.87,-141.84 1025.56,-141.18"/>
<polygon fill="midnightblue" stroke="midnightblue" points="1027.27,-144.26 1035.07,-137.08 1024.5,-137.83 1027.27,-144.26"/>
</g>
<!-- Node4 -->
<g id="node4" class="node">
<title>Node4</title>
<g id="a_node4"><a xlink:href="cfg_8h.html" target="_top" xlink:title=" ">
<polygon fill="none" stroke="black" points="1065.5,-347.5 1065.5,-366.5 1171.5,-366.5 1171.5,-347.5 1065.5,-347.5"/>
<text text-anchor="middle" x="1118.5" y="-354.5" font-family="Helvetica,sans-Serif" font-size="10.00">thorin/analyses/cfg.h</text>
</a>
</g>
</g>
<!-- Node1&#45;&gt;Node4 -->
<g id="edge3" class="edge">
<title>Node1&#45;&gt;Node4</title>
<path fill="none" stroke="midnightblue" d="M1118.5,-403.08C1118.5,-396.01 1118.5,-385.86 1118.5,-376.99"/>
<polygon fill="midnightblue" stroke="midnightblue" points="1122,-376.75 1118.5,-366.75 1115,-376.75 1122,-376.75"/>
</g>
<!-- Node30 -->
<g id="node30" class="node">
<title>Node30</title>
<g id="a_node30"><a xlink:href="array_8h.html" target="_top" xlink:title=" ">
<polygon fill="none" stroke="black" points="1270.5,-179.5 1270.5,-198.5 1358.5,-198.5 1358.5,-179.5 1270.5,-179.5"/>
<text text-anchor="middle" x="1314.5" y="-186.5" font-family="Helvetica,sans-Serif" font-size="10.00">thorin/util/array.h</text>
</a>
</g>
</g>
<!-- Node1&#45;&gt;Node30 -->
<g id="edge68" class="edge">
<title>Node1&#45;&gt;Node30</title>
<path fill="none" stroke="midnightblue" d="M1140.87,-403.37C1159.19,-395.62 1185.15,-383 1204.5,-367 1253.51,-326.49 1263.47,-311.04 1293.5,-255 1301.38,-240.3 1306.94,-222.14 1310.35,-208.75"/>
<polygon fill="midnightblue" stroke="midnightblue" points="1313.8,-209.35 1312.71,-198.81 1306.99,-207.73 1313.8,-209.35"/>
</g>
<!-- Node36 -->
<g id="node36" class="node">
<title>Node36</title>
<g id="a_node36"><a xlink:href="cast_8h.html" target="_top" xlink:title=" ">
<polygon fill="none" stroke="black" points="1106.5,-179.5 1106.5,-198.5 1192.5,-198.5 1192.5,-179.5 1106.5,-179.5"/>
<text text-anchor="middle" x="1149.5" y="-186.5" font-family="Helvetica,sans-Serif" font-size="10.00">thorin/util/cast.h</text>
</a>
</g>
</g>
<!-- Node1&#45;&gt;Node36 -->
<g id="edge69" class="edge">
<title>Node1&#45;&gt;Node36</title>
<path fill="none" stroke="midnightblue" d="M1133.82,-403.32C1158.34,-388.31 1205.02,-354.87 1218.5,-311 1231.13,-269.88 1192.89,-227.48 1168.38,-205.44"/>
<polygon fill="midnightblue" stroke="midnightblue" points="1170.54,-202.67 1160.69,-198.77 1165.95,-207.96 1170.54,-202.67"/>
</g>
<!-- Node4&#45;&gt;Node3 -->
<g id="edge4" class="edge">
<title>Node4&#45;&gt;Node3</title>
<path fill="none" stroke="midnightblue" d="M1113.81,-347.24C1109.17,-338.33 1102.12,-324 1097.5,-311 1076.73,-252.62 1061.49,-180.58 1054.98,-147.16"/>
<polygon fill="midnightblue" stroke="midnightblue" points="1058.36,-146.2 1053.05,-137.04 1051.49,-147.52 1058.36,-146.2"/>
</g>
<!-- Node5 -->
<g id="node5" class="node">
<title>Node5</title>
<g id="a_node5"><a xlink:href="scope_8h.html" target="_top" xlink:title=" ">
<polygon fill="none" stroke="black" points="893,-291.5 893,-310.5 1012,-310.5 1012,-291.5 893,-291.5"/>
<text text-anchor="middle" x="952.5" y="-298.5" font-family="Helvetica,sans-Serif" font-size="10.00">thorin/analyses/scope.h</text>
</a>
</g>
</g>
<!-- Node4&#45;&gt;Node5 -->
<g id="edge5" class="edge">
<title>Node4&#45;&gt;Node5</title>
<path fill="none" stroke="midnightblue" d="M1092.2,-347.44C1064.15,-338.32 1019.56,-323.81 988.32,-313.65"/>
<polygon fill="midnightblue" stroke="midnightblue" points="989.27,-310.28 978.68,-310.52 987.11,-316.94 989.27,-310.28"/>
</g>
<!-- Node13 -->
<g id="node13" class="node">
<title>Node13</title>
<g id="a_node13"><a xlink:href="stream_8h.html" target="_top" xlink:title=" ">
<polygon fill="none" stroke="black" points="915,-118 915,-137 1012,-137 1012,-118 915,-118"/>
<text text-anchor="middle" x="963.5" y="-125" font-family="Helvetica,sans-Serif" font-size="10.00">thorin/util/stream.h</text>
</a>
</g>
</g>
<!-- Node4&#45;&gt;Node13 -->
<g id="edge67" class="edge">
<title>Node4&#45;&gt;Node13</title>
<path fill="none" stroke="midnightblue" d="M1112.54,-347.38C1106.29,-338.34 1096.18,-323.68 1087.5,-311 1045.96,-250.29 996.96,-177.96 975.07,-145.61"/>
<polygon fill="midnightblue" stroke="midnightblue" points="977.92,-143.57 969.42,-137.25 972.12,-147.5 977.92,-143.57"/>
</g>
<!-- Node4&#45;&gt;Node30 -->
<g id="edge61" class="edge">
<title>Node4&#45;&gt;Node30</title>
<path fill="none" stroke="midnightblue" d="M1146.75,-347.37C1167.93,-339.97 1196.87,-327.84 1218.5,-311 1256.78,-281.2 1288.89,-233.1 1304.44,-207.44"/>
<polygon fill="midnightblue" stroke="midnightblue" points="1307.48,-209.18 1309.57,-198.79 1301.46,-205.61 1307.48,-209.18"/>
</g>
<!-- Node43 -->
<g id="node43" class="node">
<title>Node43</title>
<g id="a_node43"><a xlink:href="indexmap_8h.html" target="_top" xlink:title=" ">
<polygon fill="none" stroke="black" points="1342.5,-235.5 1342.5,-254.5 1450.5,-254.5 1450.5,-235.5 1342.5,-235.5"/>
<text text-anchor="middle" x="1396.5" y="-242.5" font-family="Helvetica,sans-Serif" font-size="10.00">thorin/util/indexmap.h</text>
</a>
</g>
</g>
<!-- Node4&#45;&gt;Node43 -->
<g id="edge62" class="edge">
<title>Node4&#45;&gt;Node43</title>
<path fill="none" stroke="midnightblue" d="M1146.51,-347.49C1173.82,-338.99 1216.41,-325.17 1252.5,-311 1294.07,-294.69 1341.01,-272.83 1369.67,-259.08"/>
<polygon fill="midnightblue" stroke="midnightblue" points="1371.52,-262.08 1379.01,-254.58 1368.48,-255.77 1371.52,-262.08"/>
</g>
<!-- Node44 -->
<g id="node44" class="node">
<title>Node44</title>
<g id="a_node44"><a xlink:href="indexset_8h.html" target="_top" xlink:title=" ">
<polygon fill="none" stroke="black" points="1107,-291.5 1107,-310.5 1210,-310.5 1210,-291.5 1107,-291.5"/>
<text text-anchor="middle" x="1158.5" y="-298.5" font-family="Helvetica,sans-Serif" font-size="10.00">thorin/util/indexset.h</text>
</a>
</g>
</g>
<!-- Node4&#45;&gt;Node44 -->
<g id="edge65" class="edge">
<title>Node4&#45;&gt;Node44</title>
<path fill="none" stroke="midnightblue" d="M1125.11,-347.08C1130.76,-339.46 1139.04,-328.26 1145.95,-318.94"/>
<polygon fill="midnightblue" stroke="midnightblue" points="1148.88,-320.87 1152.02,-310.75 1143.25,-316.7 1148.88,-320.87"/>
</g>
<!-- Node6 -->
<g id="node6" class="node">
<title>Node6</title>
<g id="a_node6"><a xlink:href="def_8h.html" target="_top" xlink:title=" ">
<polygon fill="none" stroke="black" points="860,-235.5 860,-254.5 925,-254.5 925,-235.5 860,-235.5"/>
<text text-anchor="middle" x="892.5" y="-242.5" font-family="Helvetica,sans-Serif" font-size="10.00">thorin/def.h</text>
</a>
</g>
</g>
<!-- Node5&#45;&gt;Node6 -->
<g id="edge6" class="edge">
<title>Node5&#45;&gt;Node6</title>
<path fill="none" stroke="midnightblue" d="M942.86,-291.32C933.99,-283.34 920.63,-271.31 909.89,-261.65"/>
<polygon fill="midnightblue" stroke="midnightblue" points="912.09,-258.92 902.32,-254.83 907.41,-264.13 912.09,-258.92"/>
</g>
<!-- Node5&#45;&gt;Node13 -->
<g id="edge60" class="edge">
<title>Node5&#45;&gt;Node13</title>
<path fill="none" stroke="midnightblue" d="M953.06,-291.26C954.77,-264.65 959.93,-184.21 962.29,-147.34"/>
<polygon fill="midnightblue" stroke="midnightblue" points="965.81,-147.22 962.95,-137.02 958.82,-146.77 965.81,-147.22"/>
</g>
<!-- Node6&#45;&gt;Node3 -->
<g id="edge8" class="edge">
<title>Node6&#45;&gt;Node3</title>
<path fill="none" stroke="midnightblue" d="M904.45,-235.32C931.5,-215.67 997.66,-167.61 1031.24,-143.22"/>
<polygon fill="midnightblue" stroke="midnightblue" points="1033.38,-145.99 1039.41,-137.28 1029.26,-140.33 1033.38,-145.99"/>
</g>
<!-- Node7 -->
<g id="node7" class="node">
<title>Node7</title>
<g id="a_node7"><a xlink:title=" ">
<polygon fill="none" stroke="#bfbfbf" points="848.5,-179.5 848.5,-198.5 898.5,-198.5 898.5,-179.5 848.5,-179.5"/>
<text text-anchor="middle" x="873.5" y="-186.5" font-family="Helvetica,sans-Serif" font-size="10.00">optional</text>
</a>
</g>
</g>
<!-- Node6&#45;&gt;Node7 -->
<g id="edge7" class="edge">
<title>Node6&#45;&gt;Node7</title>
<path fill="none" stroke="midnightblue" d="M889.36,-235.08C886.82,-227.85 883.14,-217.41 879.97,-208.4"/>
<polygon fill="midnightblue" stroke="midnightblue" points="883.2,-207.02 876.58,-198.75 876.6,-209.35 883.2,-207.02"/>
</g>
<!-- Node8 -->
<g id="node8" class="node">
<title>Node8</title>
<g id="a_node8"><a xlink:href="debug_8h.html" target="_top" xlink:title=" ">
<polygon fill="none" stroke="black" points="715,-179.5 715,-198.5 792,-198.5 792,-179.5 715,-179.5"/>
<text text-anchor="middle" x="753.5" y="-186.5" font-family="Helvetica,sans-Serif" font-size="10.00">thorin/debug.h</text>
</a>
</g>
</g>
<!-- Node6&#45;&gt;Node8 -->
<g id="edge9" class="edge">
<title>Node6&#45;&gt;Node8</title>
<path fill="none" stroke="midnightblue" d="M870.48,-235.44C847.4,-226.48 810.94,-212.31 784.86,-202.18"/>
<polygon fill="midnightblue" stroke="midnightblue" points="786.01,-198.88 775.42,-198.52 783.48,-205.4 786.01,-198.88"/>
</g>
<!-- Node6&#45;&gt;Node13 -->
<g id="edge59" class="edge">
<title>Node6&#45;&gt;Node13</title>
<path fill="none" stroke="midnightblue" d="M897.84,-235.32C909.45,-216.42 937.22,-171.25 952.67,-146.12"/>
<polygon fill="midnightblue" stroke="midnightblue" points="955.85,-147.63 958.1,-137.28 949.88,-143.97 955.85,-147.63"/>
</g>
<!-- Node21 -->
<g id="node21" class="node">
<title>Node21</title>
<g id="a_node21"><a xlink:href="tables_8h.html" target="_top" xlink:title=" ">
<polygon fill="none" stroke="black" points="0,-118 0,-137 77,-137 77,-118 0,-118"/>
<text text-anchor="middle" x="38.5" y="-125" font-family="Helvetica,sans-Serif" font-size="10.00">thorin/tables.h</text>
</a>
</g>
</g>
<!-- Node6&#45;&gt;Node21 -->
<g id="edge25" class="edge">
<title>Node6&#45;&gt;Node21</title>
<path fill="none" stroke="midnightblue" d="M860,-242.79C776.18,-239.36 545.99,-227.83 356.5,-199 256.35,-183.77 140.65,-155.33 80.2,-139.63"/>
<polygon fill="midnightblue" stroke="midnightblue" points="80.84,-136.18 70.28,-137.04 79.07,-142.95 80.84,-136.18"/>
</g>
<!-- Node6&#45;&gt;Node30 -->
<g id="edge35" class="edge">
<title>Node6&#45;&gt;Node30</title>
<path fill="none" stroke="midnightblue" d="M925.26,-239.81C997.54,-230.56 1171.27,-208.33 1260.14,-196.96"/>
<polygon fill="midnightblue" stroke="midnightblue" points="1260.81,-200.4 1270.29,-195.66 1259.92,-193.46 1260.81,-200.4"/>
</g>
<!-- Node6&#45;&gt;Node36 -->
<g id="edge46" class="edge">
<title>Node6&#45;&gt;Node36</title>
<path fill="none" stroke="midnightblue" d="M925.05,-237.16C968.86,-227.96 1047.25,-211.48 1098.82,-200.65"/>
<polygon fill="midnightblue" stroke="midnightblue" points="1099.69,-204.04 1108.76,-198.56 1098.25,-197.19 1099.69,-204.04"/>
</g>
<!-- Node37 -->
<g id="node37" class="node">
<title>Node37</title>
<g id="a_node37"><a xlink:href="container_8h.html" target="_top" xlink:title=" ">
<polygon fill="none" stroke="black" points="460,-179.5 460,-198.5 567,-198.5 567,-179.5 460,-179.5"/>
<text text-anchor="middle" x="513.5" y="-186.5" font-family="Helvetica,sans-Serif" font-size="10.00">thorin/util/container.h</text>
</a>
</g>
</g>
<!-- Node6&#45;&gt;Node37 -->
<g id="edge49" class="edge">
<title>Node6&#45;&gt;Node37</title>
<path fill="none" stroke="midnightblue" d="M859.86,-239.35C797.18,-230.42 658.97,-210.73 577.36,-199.1"/>
<polygon fill="midnightblue" stroke="midnightblue" points="577.6,-195.6 567.21,-197.65 576.61,-202.53 577.6,-195.6"/>
</g>
<!-- Node42 -->
<g id="node42" class="node">
<title>Node42</title>
<g id="a_node42"><a xlink:href="hash_8h.html" target="_top" xlink:title=" ">
<polygon fill="none" stroke="black" points="133.5,-118 133.5,-137 221.5,-137 221.5,-118 133.5,-118"/>
<text text-anchor="middle" x="177.5" y="-125" font-family="Helvetica,sans-Serif" font-size="10.00">thorin/util/hash.h</text>
</a>
</g>
</g>
<!-- Node6&#45;&gt;Node42 -->
<g id="edge58" class="edge">
<title>Node6&#45;&gt;Node42</title>
<path fill="none" stroke="midnightblue" d="M859.83,-242.33C786.27,-238.21 602.21,-225.88 450.5,-199 364.87,-183.83 266.61,-155.76 214.5,-140"/>
<polygon fill="midnightblue" stroke="midnightblue" points="215.29,-136.59 204.7,-137.02 213.25,-143.28 215.29,-136.59"/>
</g>
<!-- Node9 -->
<g id="node9" class="node">
<title>Node9</title>
<g id="a_node9"><a xlink:title=" ">
<polygon fill="none" stroke="#bfbfbf" points="785,-56.5 785,-75.5 826,-75.5 826,-56.5 785,-56.5"/>
<text text-anchor="middle" x="805.5" y="-63.5" font-family="Helvetica,sans-Serif" font-size="10.00">string</text>
</a>
</g>
</g>
<!-- Node8&#45;&gt;Node9 -->
<g id="edge10" class="edge">
<title>Node8&#45;&gt;Node9</title>
<path fill="none" stroke="midnightblue" d="M786.38,-179.46C816.57,-170.87 858.01,-156.94 867.5,-143 875.25,-131.61 873.76,-124.27 867.5,-112 860.5,-98.27 847.13,-87.75 834.6,-80.35"/>
<polygon fill="midnightblue" stroke="midnightblue" points="836.18,-77.22 825.72,-75.51 832.83,-83.37 836.18,-77.22"/>
</g>
<!-- Node10 -->
<g id="node10" class="node">
<title>Node10</title>
<g id="a_node10"><a xlink:title=" ">
<polygon fill="none" stroke="#bfbfbf" points="820.5,-118 820.5,-137 858.5,-137 858.5,-118 820.5,-118"/>
<text text-anchor="middle" x="839.5" y="-125" font-family="Helvetica,sans-Serif" font-size="10.00">tuple</text>
</a>
</g>
</g>
<!-- Node8&#45;&gt;Node10 -->
<g id="edge11" class="edge">
<title>Node8&#45;&gt;Node10</title>
<path fill="none" stroke="midnightblue" d="M765.82,-179.48C779.62,-169.93 802.2,-154.31 818.73,-142.87"/>
<polygon fill="midnightblue" stroke="midnightblue" points="820.97,-145.58 827.2,-137.01 816.99,-139.82 820.97,-145.58"/>
</g>
<!-- Node11 -->
<g id="node11" class="node">
<title>Node11</title>
<g id="a_node11"><a xlink:title=" ">
<polygon fill="none" stroke="#bfbfbf" points="709,-112.5 709,-142.5 802,-142.5 802,-112.5 709,-112.5"/>
<text text-anchor="start" x="717" y="-130.5" font-family="Helvetica,sans-Serif" font-size="10.00">absl/container/flat</text>
<text text-anchor="middle" x="755.5" y="-119.5" font-family="Helvetica,sans-Serif" font-size="10.00">_hash_map.h</text>
</a>
</g>
</g>
<!-- Node8&#45;&gt;Node11 -->
<g id="edge12" class="edge">
<title>Node8&#45;&gt;Node11</title>
<path fill="none" stroke="midnightblue" d="M753.79,-179.48C754.02,-172.47 754.37,-162.19 754.69,-152.7"/>
<polygon fill="midnightblue" stroke="midnightblue" points="758.19,-152.63 755.03,-142.52 751.19,-152.4 758.19,-152.63"/>
</g>
<!-- Node12 -->
<g id="node12" class="node">
<title>Node12</title>
<g id="a_node12"><a xlink:title=" ">
<polygon fill="none" stroke="#bfbfbf" points="598,-112.5 598,-142.5 691,-142.5 691,-112.5 598,-112.5"/>
<text text-anchor="start" x="606" y="-130.5" font-family="Helvetica,sans-Serif" font-size="10.00">absl/container/flat</text>
<text text-anchor="middle" x="644.5" y="-119.5" font-family="Helvetica,sans-Serif" font-size="10.00">_hash_set.h</text>
</a>
</g>
</g>
<!-- Node8&#45;&gt;Node12 -->
<g id="edge13" class="edge">
<title>Node8&#45;&gt;Node12</title>
<path fill="none" stroke="midnightblue" d="M737.88,-179.48C722.64,-171.15 698.92,-158.21 679.21,-147.45"/>
<polygon fill="midnightblue" stroke="midnightblue" points="680.64,-144.24 670.19,-142.52 677.29,-150.39 680.64,-144.24"/>
</g>
<!-- Node8&#45;&gt;Node13 -->
<g id="edge14" class="edge">
<title>Node8&#45;&gt;Node13</title>
<path fill="none" stroke="midnightblue" d="M783.59,-179.48C820.39,-169.05 882.81,-151.36 923.59,-139.81"/>
<polygon fill="midnightblue" stroke="midnightblue" points="924.8,-143.1 933.47,-137.01 922.89,-136.37 924.8,-143.1"/>
</g>
<!-- Node13&#45;&gt;Node2 -->
<g id="edge21" class="edge">
<title>Node13&#45;&gt;Node2</title>
<path fill="none" stroke="midnightblue" d="M931.55,-117.98C890.52,-107.03 819.5,-88.08 776.57,-76.62"/>
<polygon fill="midnightblue" stroke="midnightblue" points="777.38,-73.22 766.82,-74.02 775.58,-79.98 777.38,-73.22"/>
</g>
<!-- Node13&#45;&gt;Node9 -->
<g id="edge22" class="edge">
<title>Node13&#45;&gt;Node9</title>
<path fill="none" stroke="midnightblue" d="M940.86,-117.98C913.26,-107.58 866.52,-89.98 835.83,-78.42"/>
<polygon fill="midnightblue" stroke="midnightblue" points="836.68,-75 826.08,-74.75 834.21,-81.55 836.68,-75"/>
</g>
<!-- Node14 -->
<g id="node14" class="node">
<title>Node14</title>
<g id="a_node14"><a xlink:title=" ">
<polygon fill="none" stroke="#bfbfbf" points="1058,-0.5 1058,-19.5 1107,-19.5 1107,-0.5 1058,-0.5"/>
<text text-anchor="middle" x="1082.5" y="-7.5" font-family="Helvetica,sans-Serif" font-size="10.00">cassert</text>
</a>
</g>
</g>
<!-- Node13&#45;&gt;Node14 -->
<g id="edge15" class="edge">
<title>Node13&#45;&gt;Node14</title>
<path fill="none" stroke="midnightblue" d="M982.67,-117.89C1000.35,-109.24 1026.48,-94.54 1044.5,-76 1057.71,-62.41 1068.15,-43.35 1074.72,-29.39"/>
<polygon fill="midnightblue" stroke="midnightblue" points="1078.08,-30.44 1078.97,-19.88 1071.69,-27.58 1078.08,-30.44"/>
</g>
<!-- Node15 -->
<g id="node15" class="node">
<title>Node15</title>
<g id="a_node15"><a xlink:title=" ">
<polygon fill="none" stroke="#bfbfbf" points="1129.5,-56.5 1129.5,-75.5 1175.5,-75.5 1175.5,-56.5 1129.5,-56.5"/>
<text text-anchor="middle" x="1152.5" y="-63.5" font-family="Helvetica,sans-Serif" font-size="10.00">cstring</text>
</a>
</g>
</g>
<!-- Node13&#45;&gt;Node15 -->
<g id="edge16" class="edge">
<title>Node13&#45;&gt;Node15</title>
<path fill="none" stroke="midnightblue" d="M990.58,-117.98C1024.63,-107.25 1083.06,-88.86 1119.64,-77.35"/>
<polygon fill="midnightblue" stroke="midnightblue" points="1120.85,-80.63 1129.34,-74.29 1118.75,-73.96 1120.85,-80.63"/>
</g>
<!-- Node16 -->
<g id="node16" class="node">
<title>Node16</title>
<g id="a_node16"><a xlink:title=" ">
<polygon fill="none" stroke="#bfbfbf" points="913.5,-56.5 913.5,-75.5 963.5,-75.5 963.5,-56.5 913.5,-56.5"/>
<text text-anchor="middle" x="938.5" y="-63.5" font-family="Helvetica,sans-Serif" font-size="10.00">fstream</text>
</a>
</g>
</g>
<!-- Node13&#45;&gt;Node16 -->
<g id="edge17" class="edge">
<title>Node13&#45;&gt;Node16</title>
<path fill="none" stroke="midnightblue" d="M959.92,-117.98C956.32,-109.4 950.65,-95.93 946.06,-84.98"/>
<polygon fill="midnightblue" stroke="midnightblue" points="949.18,-83.37 942.08,-75.51 942.72,-86.08 949.18,-83.37"/>
</g>
<!-- Node17 -->
<g id="node17" class="node">
<title>Node17</title>
<g id="a_node17"><a xlink:title=" ">
<polygon fill="none" stroke="#bfbfbf" points="981.5,-56.5 981.5,-75.5 1035.5,-75.5 1035.5,-56.5 981.5,-56.5"/>
<text text-anchor="middle" x="1008.5" y="-63.5" font-family="Helvetica,sans-Serif" font-size="10.00">iostream</text>
</a>
</g>
</g>
<!-- Node13&#45;&gt;Node17 -->
<g id="edge18" class="edge">
<title>Node13&#45;&gt;Node17</title>
<path fill="none" stroke="midnightblue" d="M969.95,-117.98C976.7,-109.05 987.47,-94.81 995.91,-83.64"/>
<polygon fill="midnightblue" stroke="midnightblue" points="998.82,-85.6 1002.06,-75.51 993.24,-81.37 998.82,-85.6"/>
</g>
<!-- Node18 -->
<g id="node18" class="node">
<title>Node18</title>
<g id="a_node18"><a xlink:title=" ">
<polygon fill="none" stroke="#bfbfbf" points="844,-56.5 844,-75.5 895,-75.5 895,-56.5 844,-56.5"/>
<text text-anchor="middle" x="869.5" y="-63.5" font-family="Helvetica,sans-Serif" font-size="10.00">memory</text>
</a>
</g>
</g>
<!-- Node13&#45;&gt;Node18 -->
<g id="edge19" class="edge">
<title>Node13&#45;&gt;Node18</title>
<path fill="none" stroke="midnightblue" d="M950.03,-117.98C934.82,-108.34 909.81,-92.52 891.7,-81.05"/>
<polygon fill="midnightblue" stroke="midnightblue" points="893.26,-77.9 882.94,-75.51 889.52,-83.81 893.26,-77.9"/>
</g>
<!-- Node19 -->
<g id="node19" class="node">
<title>Node19</title>
<g id="a_node19"><a xlink:title=" ">
<polygon fill="none" stroke="#bfbfbf" points="1643.5,-56.5 1643.5,-75.5 1689.5,-75.5 1689.5,-56.5 1643.5,-56.5"/>
<text text-anchor="middle" x="1666.5" y="-63.5" font-family="Helvetica,sans-Serif" font-size="10.00">ranges</text>
</a>
</g>
</g>
<!-- Node13&#45;&gt;Node19 -->
<g id="edge20" class="edge">
<title>Node13&#45;&gt;Node19</title>
<path fill="none" stroke="midnightblue" d="M992.87,-117.96C1001.69,-115.68 1011.43,-113.46 1020.5,-112 1252.97,-74.65 1537.42,-68.29 1633.22,-67.22"/>
<polygon fill="midnightblue" stroke="midnightblue" points="1633.48,-70.71 1643.44,-67.11 1633.41,-63.72 1633.48,-70.71"/>
</g>
<!-- Node20 -->
<g id="node20" class="node">
<title>Node20</title>
<g id="a_node20"><a xlink:href="assert_8h.html" target="_top" xlink:title=" ">
<polygon fill="none" stroke="black" points="602.5,-56.5 602.5,-75.5 696.5,-75.5 696.5,-56.5 602.5,-56.5"/>
<text text-anchor="middle" x="649.5" y="-63.5" font-family="Helvetica,sans-Serif" font-size="10.00">thorin/util/assert.h</text>
</a>
</g>
</g>
<!-- Node13&#45;&gt;Node20 -->
<g id="edge23" class="edge">
<title>Node13&#45;&gt;Node20</title>
<path fill="none" stroke="midnightblue" d="M918.51,-117.98C862.08,-107.28 765.38,-88.96 704.58,-77.44"/>
<polygon fill="midnightblue" stroke="midnightblue" points="704.88,-73.93 694.41,-75.51 703.58,-80.81 704.88,-73.93"/>
</g>
<!-- Node20&#45;&gt;Node14 -->
<g id="edge24" class="edge">
<title>Node20&#45;&gt;Node14</title>
<path fill="none" stroke="midnightblue" d="M696.53,-57.3C699.57,-56.85 702.57,-56.41 705.5,-56 831.03,-38.43 980.69,-21.86 1047.4,-14.71"/>
<polygon fill="midnightblue" stroke="midnightblue" points="1048.18,-18.15 1057.75,-13.6 1047.44,-11.18 1048.18,-18.15"/>
</g>
<!-- Node21&#45;&gt;Node20 -->
<g id="edge27" class="edge">
<title>Node21&#45;&gt;Node20</title>
<path fill="none" stroke="midnightblue" d="M65.79,-117.99C73.98,-115.72 83.04,-113.48 91.5,-112 272.66,-80.2 490.92,-70.82 592.42,-68.1"/>
<polygon fill="midnightblue" stroke="midnightblue" points="592.56,-71.59 602.46,-67.84 592.38,-64.6 592.56,-71.59"/>
</g>
<!-- Node22 -->
<g id="node22" class="node">
<title>Node22</title>
<g id="a_node22"><a xlink:title=" ">
<polygon fill="none" stroke="#bfbfbf" points="5.5,-56.5 5.5,-75.5 71.5,-75.5 71.5,-56.5 5.5,-56.5"/>
<text text-anchor="middle" x="38.5" y="-63.5" font-family="Helvetica,sans-Serif" font-size="10.00">string_view</text>
</a>
</g>
</g>
<!-- Node21&#45;&gt;Node22 -->
<g id="edge26" class="edge">
<title>Node21&#45;&gt;Node22</title>
<path fill="none" stroke="midnightblue" d="M38.5,-117.98C38.5,-109.58 38.5,-96.48 38.5,-85.66"/>
<polygon fill="midnightblue" stroke="midnightblue" points="42,-85.51 38.5,-75.51 35,-85.51 42,-85.51"/>
</g>
<!-- Node23 -->
<g id="node23" class="node">
<title>Node23</title>
<g id="a_node23"><a xlink:href="types_8h.html" target="_top" xlink:title=" ">
<polygon fill="none" stroke="black" points="132.5,-56.5 132.5,-75.5 222.5,-75.5 222.5,-56.5 132.5,-56.5"/>
<text text-anchor="middle" x="177.5" y="-63.5" font-family="Helvetica,sans-Serif" font-size="10.00">thorin/util/types.h</text>
</a>
</g>
</g>
<!-- Node21&#45;&gt;Node23 -->
<g id="edge28" class="edge">
<title>Node21&#45;&gt;Node23</title>
<path fill="none" stroke="midnightblue" d="M58.42,-117.98C81.95,-107.9 121.31,-91.05 148.29,-79.5"/>
<polygon fill="midnightblue" stroke="midnightblue" points="149.81,-82.66 157.62,-75.51 147.05,-76.23 149.81,-82.66"/>
</g>
<!-- Node24 -->
<g id="node24" class="node">
<title>Node24</title>
<g id="a_node24"><a xlink:title=" ">
<polygon fill="none" stroke="#bfbfbf" points="93.5,-0.5 93.5,-19.5 139.5,-19.5 139.5,-0.5 93.5,-0.5"/>
<text text-anchor="middle" x="116.5" y="-7.5" font-family="Helvetica,sans-Serif" font-size="10.00">cstdint</text>
</a>
</g>
</g>
<!-- Node23&#45;&gt;Node24 -->
<g id="edge29" class="edge">
<title>Node23&#45;&gt;Node24</title>
<path fill="none" stroke="midnightblue" d="M167.7,-56.32C158.68,-48.34 145.09,-36.31 134.18,-26.65"/>
<polygon fill="midnightblue" stroke="midnightblue" points="136.29,-23.84 126.48,-19.83 131.65,-29.08 136.29,-23.84"/>
</g>
<!-- Node25 -->
<g id="node25" class="node">
<title>Node25</title>
<g id="a_node25"><a xlink:title=" ">
<polygon fill="none" stroke="#bfbfbf" points="157.5,-0.5 157.5,-19.5 197.5,-19.5 197.5,-0.5 157.5,-0.5"/>
<text text-anchor="middle" x="177.5" y="-7.5" font-family="Helvetica,sans-Serif" font-size="10.00">limits</text>
</a>
</g>
</g>
<!-- Node23&#45;&gt;Node25 -->
<g id="edge30" class="edge">
<title>Node23&#45;&gt;Node25</title>
<path fill="none" stroke="midnightblue" d="M177.5,-56.08C177.5,-49.01 177.5,-38.86 177.5,-29.99"/>
<polygon fill="midnightblue" stroke="midnightblue" points="181,-29.75 177.5,-19.75 174,-29.75 181,-29.75"/>
</g>
<!-- Node26 -->
<g id="node26" class="node">
<title>Node26</title>
<g id="a_node26"><a xlink:title=" ">
<polygon fill="none" stroke="#bfbfbf" points="215.5,-0.5 215.5,-19.5 267.5,-19.5 267.5,-0.5 215.5,-0.5"/>
<text text-anchor="middle" x="241.5" y="-7.5" font-family="Helvetica,sans-Serif" font-size="10.00">ostream</text>
</a>
</g>
</g>
<!-- Node23&#45;&gt;Node26 -->
<g id="edge31" class="edge">
<title>Node23&#45;&gt;Node26</title>
<path fill="none" stroke="midnightblue" d="M187.78,-56.32C197.34,-48.26 211.78,-36.08 223.28,-26.37"/>
<polygon fill="midnightblue" stroke="midnightblue" points="225.64,-28.96 231.03,-19.83 221.13,-23.61 225.64,-28.96"/>
</g>
<!-- Node27 -->
<g id="node27" class="node">
<title>Node27</title>
<g id="a_node27"><a xlink:title=" ">
<polygon fill="none" stroke="#bfbfbf" points="672.5,-0.5 672.5,-19.5 734.5,-19.5 734.5,-0.5 672.5,-0.5"/>
<text text-anchor="middle" x="703.5" y="-7.5" font-family="Helvetica,sans-Serif" font-size="10.00">type_traits</text>
</a>
</g>
</g>
<!-- Node23&#45;&gt;Node27 -->
<g id="edge32" class="edge">
<title>Node23&#45;&gt;Node27</title>
<path fill="none" stroke="midnightblue" d="M222.8,-60.35C323.66,-49.99 565.46,-25.17 662.34,-15.23"/>
<polygon fill="midnightblue" stroke="midnightblue" points="662.75,-18.7 672.34,-14.2 662.03,-11.74 662.75,-18.7"/>
</g>
<!-- Node28 -->
<g id="node28" class="node">
<title>Node28</title>
<g id="a_node28"><a xlink:title=" ">
<polygon fill="none" stroke="#bfbfbf" points="285.5,-0.5 285.5,-19.5 329.5,-19.5 329.5,-0.5 285.5,-0.5"/>
<text text-anchor="middle" x="307.5" y="-7.5" font-family="Helvetica,sans-Serif" font-size="10.00">cmath</text>
</a>
</g>
</g>
<!-- Node23&#45;&gt;Node28 -->
<g id="edge33" class="edge">
<title>Node23&#45;&gt;Node28</title>
<path fill="none" stroke="midnightblue" d="M198.1,-56.44C219.49,-47.56 253.18,-33.56 277.52,-23.45"/>
<polygon fill="midnightblue" stroke="midnightblue" points="279.11,-26.58 287,-19.52 276.42,-20.12 279.11,-26.58"/>
</g>
<!-- Node29 -->
<g id="node29" class="node">
<title>Node29</title>
<g id="a_node29"><a xlink:title=" ">
<polygon fill="none" stroke="#bfbfbf" points="25.5,-0.5 25.5,-19.5 75.5,-19.5 75.5,-0.5 25.5,-0.5"/>
<text text-anchor="middle" x="50.5" y="-7.5" font-family="Helvetica,sans-Serif" font-size="10.00">half.hpp</text>
</a>
</g>
</g>
<!-- Node23&#45;&gt;Node29 -->
<g id="edge34" class="edge">
<title>Node23&#45;&gt;Node29</title>
<path fill="none" stroke="midnightblue" d="M157.38,-56.44C136.48,-47.56 103.57,-33.56 79.78,-23.45"/>
<polygon fill="midnightblue" stroke="midnightblue" points="81.1,-20.21 70.53,-19.52 78.36,-26.65 81.1,-20.21"/>
</g>
<!-- Node30&#45;&gt;Node3 -->
<g id="edge45" class="edge">
<title>Node30&#45;&gt;Node3</title>
<path fill="none" stroke="midnightblue" d="M1276.82,-179.48C1224.95,-167.74 1132.44,-146.81 1083.65,-135.77"/>
<polygon fill="midnightblue" stroke="midnightblue" points="1084.18,-132.31 1073.65,-133.51 1082.64,-139.13 1084.18,-132.31"/>
</g>
<!-- Node30&#45;&gt;Node14 -->
<g id="edge36" class="edge">
<title>Node30&#45;&gt;Node14</title>
<path fill="none" stroke="midnightblue" d="M1316.51,-179.27C1319.45,-164.3 1323.29,-133.3 1310.5,-112 1269.55,-43.8 1169.92,-21.47 1116.95,-14.3"/>
<polygon fill="midnightblue" stroke="midnightblue" points="1117.36,-10.82 1107,-13.05 1116.49,-17.77 1117.36,-10.82"/>
</g>
<!-- Node30&#45;&gt;Node15 -->
<g id="edge38" class="edge">
<title>Node30&#45;&gt;Node15</title>
<path fill="none" stroke="midnightblue" d="M1313.73,-179.41C1311.87,-163.81 1305.76,-130.71 1286.5,-112 1259.1,-85.39 1215.48,-74.5 1185.5,-70.05"/>
<polygon fill="midnightblue" stroke="midnightblue" points="1185.88,-66.57 1175.51,-68.74 1184.97,-73.51 1185.88,-66.57"/>
</g>
<!-- Node30&#45;&gt;Node19 -->
<g id="edge43" class="edge">
<title>Node30&#45;&gt;Node19</title>
<path fill="none" stroke="midnightblue" d="M1358.71,-187.97C1439.32,-186.99 1605.77,-180.35 1647.5,-143 1663.46,-128.71 1666.97,-103.24 1667.31,-85.75"/>
<polygon fill="midnightblue" stroke="midnightblue" points="1670.81,-85.56 1667.18,-75.61 1663.81,-85.66 1670.81,-85.56"/>
</g>
<!-- Node30&#45;&gt;Node27 -->
<g id="edge44" class="edge">
<title>Node30&#45;&gt;Node27</title>
<path fill="none" stroke="midnightblue" d="M1270.36,-182.37C1244.86,-176.74 1214.38,-165.48 1196.5,-143 1172.21,-112.45 1212.7,-82.99 1184.5,-56 1153.02,-25.87 855.73,-15.01 744.89,-11.98"/>
<polygon fill="midnightblue" stroke="midnightblue" points="744.85,-8.48 734.76,-11.71 744.67,-15.48 744.85,-8.48"/>
</g>
<!-- Node31 -->
<g id="node31" class="node">
<title>Node31</title>
<g id="a_node31"><a xlink:title=" ">
<polygon fill="none" stroke="#bfbfbf" points="1437,-118 1437,-137 1486,-137 1486,-118 1437,-118"/>
<text text-anchor="middle" x="1461.5" y="-125" font-family="Helvetica,sans-Serif" font-size="10.00">cstddef</text>
</a>
</g>
</g>
<!-- Node30&#45;&gt;Node31 -->
<g id="edge37" class="edge">
<title>Node30&#45;&gt;Node31</title>
<path fill="none" stroke="midnightblue" d="M1336.65,-179.36C1359.48,-170.42 1396.07,-155.96 1427.5,-143 1429.09,-142.34 1430.72,-141.67 1432.37,-140.98"/>
<polygon fill="midnightblue" stroke="midnightblue" points="1433.91,-144.13 1441.76,-137.01 1431.18,-137.68 1433.91,-144.13"/>
</g>
<!-- Node32 -->
<g id="node32" class="node">
<title>Node32</title>
<g id="a_node32"><a xlink:title=" ">
<polygon fill="none" stroke="#bfbfbf" points="1504.5,-118 1504.5,-137 1560.5,-137 1560.5,-118 1504.5,-118"/>
<text text-anchor="middle" x="1532.5" y="-125" font-family="Helvetica,sans-Serif" font-size="10.00">algorithm</text>
</a>
</g>
</g>
<!-- Node30&#45;&gt;Node32 -->
<g id="edge39" class="edge">
<title>Node30&#45;&gt;Node32</title>
<path fill="none" stroke="midnightblue" d="M1354.56,-179.43C1391.29,-171.23 1447.03,-157.93 1494.5,-143 1496.92,-142.24 1499.4,-141.41 1501.89,-140.54"/>
<polygon fill="midnightblue" stroke="midnightblue" points="1503.16,-143.8 1511.35,-137.08 1500.76,-137.23 1503.16,-143.8"/>
</g>
<!-- Node33 -->
<g id="node33" class="node">
<title>Node33</title>
<g id="a_node33"><a xlink:title=" ">
<polygon fill="none" stroke="#bfbfbf" points="1579,-118 1579,-137 1638,-137 1638,-118 1579,-118"/>
<text text-anchor="middle" x="1608.5" y="-125" font-family="Helvetica,sans-Serif" font-size="10.00">functional</text>
</a>
</g>
</g>
<!-- Node30&#45;&gt;Node33 -->
<g id="edge40" class="edge">
<title>Node30&#45;&gt;Node33</title>
<path fill="none" stroke="midnightblue" d="M1358.8,-182.66C1410.09,-175.92 1496.84,-162.74 1569.5,-143 1572.31,-142.24 1575.2,-141.35 1578.08,-140.41"/>
<polygon fill="midnightblue" stroke="midnightblue" points="1579.4,-143.65 1587.68,-137.04 1577.08,-137.05 1579.4,-143.65"/>
</g>
<!-- Node34 -->
<g id="node34" class="node">
<title>Node34</title>
<g id="a_node34"><a xlink:title=" ">
<polygon fill="none" stroke="#bfbfbf" points="1205.5,-118 1205.5,-137 1277.5,-137 1277.5,-118 1205.5,-118"/>
<text text-anchor="middle" x="1241.5" y="-125" font-family="Helvetica,sans-Serif" font-size="10.00">initializer_list</text>
</a>
</g>
</g>
<!-- Node30&#45;&gt;Node34 -->
<g id="edge41" class="edge">
<title>Node30&#45;&gt;Node34</title>
<path fill="none" stroke="midnightblue" d="M1304.04,-179.48C1292.55,-170.11 1273.87,-154.88 1259.91,-143.51"/>
<polygon fill="midnightblue" stroke="midnightblue" points="1261.9,-140.61 1251.94,-137.01 1257.48,-146.04 1261.9,-140.61"/>
</g>
<!-- Node35 -->
<g id="node35" class="node">
<title>Node35</title>
<g id="a_node35"><a xlink:title=" ">
<polygon fill="none" stroke="#bfbfbf" points="1372,-118 1372,-137 1419,-137 1419,-118 1372,-118"/>
<text text-anchor="middle" x="1395.5" y="-125" font-family="Helvetica,sans-Serif" font-size="10.00">iterator</text>
</a>
</g>
</g>
<!-- Node30&#45;&gt;Node35 -->
<g id="edge42" class="edge">
<title>Node30&#45;&gt;Node35</title>
<path fill="none" stroke="midnightblue" d="M1326.11,-179.48C1338.98,-170.02 1359.97,-154.6 1375.51,-143.19"/>
<polygon fill="midnightblue" stroke="midnightblue" points="1377.93,-145.75 1383.92,-137.01 1373.78,-140.11 1377.93,-145.75"/>
</g>
<!-- Node36&#45;&gt;Node14 -->
<g id="edge47" class="edge">
<title>Node36&#45;&gt;Node14</title>
<path fill="none" stroke="midnightblue" d="M1146.27,-179.46C1135.99,-152.31 1103.89,-67.51 1089.55,-29.62"/>
<polygon fill="midnightblue" stroke="midnightblue" points="1092.67,-27.98 1085.86,-19.87 1086.12,-30.46 1092.67,-27.98"/>
</g>
<!-- Node36&#45;&gt;Node15 -->
<g id="edge48" class="edge">
<title>Node36&#45;&gt;Node15</title>
<path fill="none" stroke="midnightblue" d="M1149.72,-179.3C1150.2,-159.85 1151.37,-112.49 1152.03,-85.9"/>
<polygon fill="midnightblue" stroke="midnightblue" points="1155.54,-85.71 1152.29,-75.62 1148.54,-85.53 1155.54,-85.71"/>
</g>
<!-- Node37&#45;&gt;Node11 -->
<g id="edge52" class="edge">
<title>Node37&#45;&gt;Node11</title>
<path fill="none" stroke="midnightblue" d="M549.55,-179.46C585,-171.02 640.91,-157.6 698.72,-143.17"/>
<polygon fill="midnightblue" stroke="midnightblue" points="699.91,-146.48 708.76,-140.66 698.21,-139.69 699.91,-146.48"/>
</g>
<!-- Node37&#45;&gt;Node12 -->
<g id="edge53" class="edge">
<title>Node37&#45;&gt;Node12</title>
<path fill="none" stroke="midnightblue" d="M532.27,-179.48C551.01,-170.96 580.39,-157.62 604.39,-146.72"/>
<polygon fill="midnightblue" stroke="midnightblue" points="605.97,-149.85 613.63,-142.52 603.07,-143.47 605.97,-149.85"/>
</g>
<!-- Node38 -->
<g id="node38" class="node">
<title>Node38</title>
<g id="a_node38"><a xlink:title=" ">
<polygon fill="none" stroke="#bfbfbf" points="537,-118 537,-137 580,-137 580,-118 537,-118"/>
<text text-anchor="middle" x="558.5" y="-125" font-family="Helvetica,sans-Serif" font-size="10.00">queue</text>
</a>
</g>
</g>
<!-- Node37&#45;&gt;Node38 -->
<g id="edge50" class="edge">
<title>Node37&#45;&gt;Node38</title>
<path fill="none" stroke="midnightblue" d="M519.95,-179.48C526.7,-170.55 537.47,-156.31 545.91,-145.14"/>
<polygon fill="midnightblue" stroke="midnightblue" points="548.82,-147.1 552.06,-137.01 543.24,-142.87 548.82,-147.1"/>
</g>
<!-- Node39 -->
<g id="node39" class="node">
<title>Node39</title>
<g id="a_node39"><a xlink:title=" ">
<polygon fill="none" stroke="#bfbfbf" points="240,-118 240,-137 281,-137 281,-118 240,-118"/>
<text text-anchor="middle" x="260.5" y="-125" font-family="Helvetica,sans-Serif" font-size="10.00">stack</text>
</a>
</g>
</g>
<!-- Node37&#45;&gt;Node39 -->
<g id="edge51" class="edge">
<title>Node37&#45;&gt;Node39</title>
<path fill="none" stroke="midnightblue" d="M459.95,-181.32C413.9,-174.62 346.15,-162.46 289.5,-143 288.07,-142.51 286.62,-141.96 285.17,-141.37"/>
<polygon fill="midnightblue" stroke="midnightblue" points="286.37,-138.08 275.82,-137.11 283.47,-144.44 286.37,-138.08"/>
</g>
<!-- Node40 -->
<g id="node40" class="node">
<title>Node40</title>
<g id="a_node40"><a xlink:title=" ">
<polygon fill="none" stroke="#bfbfbf" points="299,-112.5 299,-142.5 400,-142.5 400,-112.5 299,-112.5"/>
<text text-anchor="start" x="307" y="-130.5" font-family="Helvetica,sans-Serif" font-size="10.00">absl/container/node</text>
<text text-anchor="middle" x="349.5" y="-119.5" font-family="Helvetica,sans-Serif" font-size="10.00">_hash_map.h</text>
</a>
</g>
</g>
<!-- Node37&#45;&gt;Node40 -->
<g id="edge54" class="edge">
<title>Node37&#45;&gt;Node40</title>
<path fill="none" stroke="midnightblue" d="M490,-179.48C466.03,-170.78 428.13,-157.03 397.73,-146"/>
<polygon fill="midnightblue" stroke="midnightblue" points="398.75,-142.64 388.15,-142.52 396.36,-149.22 398.75,-142.64"/>
</g>
<!-- Node41 -->
<g id="node41" class="node">
<title>Node41</title>
<g id="a_node41"><a xlink:title=" ">
<polygon fill="none" stroke="#bfbfbf" points="418,-112.5 418,-142.5 519,-142.5 519,-112.5 418,-112.5"/>
<text text-anchor="start" x="426" y="-130.5" font-family="Helvetica,sans-Serif" font-size="10.00">absl/container/node</text>
<text text-anchor="middle" x="468.5" y="-119.5" font-family="Helvetica,sans-Serif" font-size="10.00">_hash_set.h</text>
</a>
</g>
</g>
<!-- Node37&#45;&gt;Node41 -->
<g id="edge55" class="edge">
<title>Node37&#45;&gt;Node41</title>
<path fill="none" stroke="midnightblue" d="M507.05,-179.48C501.36,-171.94 492.8,-160.63 485.19,-150.57"/>
<polygon fill="midnightblue" stroke="midnightblue" points="487.93,-148.39 479.11,-142.52 482.35,-152.61 487.93,-148.39"/>
</g>
<!-- Node37&#45;&gt;Node42 -->
<g id="edge56" class="edge">
<title>Node37&#45;&gt;Node42</title>
<path fill="none" stroke="midnightblue" d="M459.97,-181.27C402.83,-173.66 309.77,-160.09 230.5,-143 225.85,-142 221,-140.83 216.2,-139.61"/>
<polygon fill="midnightblue" stroke="midnightblue" points="217.08,-136.22 206.52,-137.05 215.29,-142.99 217.08,-136.22"/>
</g>
<!-- Node42&#45;&gt;Node23 -->
<g id="edge57" class="edge">
<title>Node42&#45;&gt;Node23</title>
<path fill="none" stroke="midnightblue" d="M177.5,-117.98C177.5,-109.58 177.5,-96.48 177.5,-85.66"/>
<polygon fill="midnightblue" stroke="midnightblue" points="181,-85.51 177.5,-75.51 174,-85.51 181,-85.51"/>
</g>
<!-- Node43&#45;&gt;Node19 -->
<g id="edge63" class="edge">
<title>Node43&#45;&gt;Node19</title>
<path fill="none" stroke="midnightblue" d="M1450.76,-241.42C1515.21,-235.1 1620.19,-213.81 1669.5,-143 1681.14,-126.29 1677.66,-102.13 1673.06,-85.56"/>
<polygon fill="midnightblue" stroke="midnightblue" points="1676.37,-84.41 1670.03,-75.93 1669.69,-86.52 1676.37,-84.41"/>
</g>
<!-- Node43&#45;&gt;Node30 -->
<g id="edge64" class="edge">
<title>Node43&#45;&gt;Node30</title>
<path fill="none" stroke="midnightblue" d="M1383.33,-235.32C1370.65,-226.98 1351.27,-214.21 1336.29,-204.35"/>
<polygon fill="midnightblue" stroke="midnightblue" points="1337.92,-201.23 1327.64,-198.65 1334.07,-207.08 1337.92,-201.23"/>
</g>
<!-- Node44&#45;&gt;Node30 -->
<g id="edge66" class="edge">
<title>Node44&#45;&gt;Node30</title>
<path fill="none" stroke="midnightblue" d="M1169.01,-291.48C1184.85,-278.76 1215.92,-254.23 1243.5,-235 1259.21,-224.04 1277.48,-212.49 1291.54,-203.84"/>
<polygon fill="midnightblue" stroke="midnightblue" points="1293.41,-206.8 1300.12,-198.6 1289.76,-200.83 1293.41,-206.8"/>
</g>
</g>
</svg>
