<?xml version="1.0" encoding="UTF-8" standalone="no"?>
<!DOCTYPE svg PUBLIC "-//W3C//DTD SVG 1.1//EN"
 "http://www.w3.org/Graphics/SVG/1.1/DTD/svg11.dtd">
<!-- Generated by graphviz version 2.50.0 (20220203.2022)
 -->
<!-- Title: thorin/pass/rw/lower_for.cpp Pages: 1 -->
<svg width="1894pt" height="666pt"
 viewBox="0.00 0.00 1893.50 666.00" xmlns="http://www.w3.org/2000/svg" xmlns:xlink="http://www.w3.org/1999/xlink">
<g id="graph0" class="graph" transform="scale(1 1) rotate(0) translate(4 662)">
<title>thorin/pass/rw/lower_for.cpp</title>
<!-- Node1 -->
<g id="node1" class="node">
<title>Node1</title>
<g id="a_node1"><a xlink:title=" ">
<polygon fill="#bfbfbf" stroke="black" points="1152.5,-627.5 1152.5,-657.5 1256.5,-657.5 1256.5,-627.5 1152.5,-627.5"/>
<text text-anchor="start" x="1160.5" y="-645.5" font-family="Helvetica,sans-Serif" font-size="10.00">thorin/pass/rw/lower</text>
<text text-anchor="middle" x="1204.5" y="-634.5" font-family="Helvetica,sans-Serif" font-size="10.00">_for.cpp</text>
</a>
</g>
</g>
<!-- Node2 -->
<g id="node2" class="node">
<title>Node2</title>
<g id="a_node2"><a xlink:href="lower__for_8h.html" target="_top" xlink:title=" ">
<polygon fill="none" stroke="black" points="1112.5,-560.5 1112.5,-590.5 1216.5,-590.5 1216.5,-560.5 1112.5,-560.5"/>
<text text-anchor="start" x="1120.5" y="-578.5" font-family="Helvetica,sans-Serif" font-size="10.00">thorin/pass/rw/lower</text>
<text text-anchor="middle" x="1164.5" y="-567.5" font-family="Helvetica,sans-Serif" font-size="10.00">_for.h</text>
</a>
</g>
</g>
<!-- Node1&#45;&gt;Node2 -->
<g id="edge1" class="edge">
<title>Node1&#45;&gt;Node2</title>
<path fill="none" stroke="midnightblue" d="M1195.82,-627.4C1190.74,-619.13 1184.2,-608.51 1178.41,-599.1"/>
<polygon fill="midnightblue" stroke="midnightblue" points="1181.38,-597.26 1173.16,-590.58 1175.42,-600.93 1181.38,-597.26"/>
</g>
<!-- Node12 -->
<g id="node12" class="node">
<title>Node12</title>
<g id="a_node12"><a xlink:href="lam_8h.html" target="_top" xlink:title=" ">
<polygon fill="none" stroke="black" points="1166,-336.5 1166,-355.5 1233,-355.5 1233,-336.5 1166,-336.5"/>
<text text-anchor="middle" x="1199.5" y="-343.5" font-family="Helvetica,sans-Serif" font-size="10.00">thorin/lam.h</text>
</a>
</g>
</g>
<!-- Node1&#45;&gt;Node12 -->
<g id="edge81" class="edge">
<title>Node1&#45;&gt;Node12</title>
<path fill="none" stroke="midnightblue" d="M1216.75,-627.43C1234.82,-605.17 1266.5,-559.76 1266.5,-515 1266.5,-515 1266.5,-515 1266.5,-457 1266.5,-426.9 1263.26,-417.64 1247.5,-392 1240.38,-380.41 1229.49,-369.86 1219.89,-361.9"/>
<polygon fill="midnightblue" stroke="midnightblue" points="1221.92,-359.04 1211.9,-355.6 1217.59,-364.54 1221.92,-359.04"/>
</g>
<!-- Node3 -->
<g id="node3" class="node">
<title>Node3</title>
<g id="a_node3"><a xlink:href="pass_8h.html" target="_top" xlink:title=" ">
<polygon fill="none" stroke="black" points="1098.5,-504.5 1098.5,-523.5 1194.5,-523.5 1194.5,-504.5 1098.5,-504.5"/>
<text text-anchor="middle" x="1146.5" y="-511.5" font-family="Helvetica,sans-Serif" font-size="10.00">thorin/pass/pass.h</text>
</a>
</g>
</g>
<!-- Node2&#45;&gt;Node3 -->
<g id="edge2" class="edge">
<title>Node2&#45;&gt;Node3</title>
<path fill="none" stroke="midnightblue" d="M1160.23,-560.4C1157.78,-552.29 1154.67,-542.01 1152.03,-533.28"/>
<polygon fill="midnightblue" stroke="midnightblue" points="1155.36,-532.22 1149.12,-523.66 1148.66,-534.24 1155.36,-532.22"/>
</g>
<!-- Node4 -->
<g id="node4" class="node">
<title>Node4</title>
<g id="a_node4"><a xlink:title=" ">
<polygon fill="none" stroke="#bfbfbf" points="1126,-448.5 1126,-467.5 1167,-467.5 1167,-448.5 1126,-448.5"/>
<text text-anchor="middle" x="1146.5" y="-455.5" font-family="Helvetica,sans-Serif" font-size="10.00">stack</text>
</a>
</g>
</g>
<!-- Node3&#45;&gt;Node4 -->
<g id="edge3" class="edge">
<title>Node3&#45;&gt;Node4</title>
<path fill="none" stroke="midnightblue" d="M1146.5,-504.08C1146.5,-497.01 1146.5,-486.86 1146.5,-477.99"/>
<polygon fill="midnightblue" stroke="midnightblue" points="1150,-477.75 1146.5,-467.75 1143,-477.75 1150,-477.75"/>
</g>
<!-- Node5 -->
<g id="node5" class="node">
<title>Node5</title>
<g id="a_node5"><a xlink:href="world_8h.html" target="_top" xlink:title=" ">
<polygon fill="none" stroke="black" points="1022.5,-448.5 1022.5,-467.5 1096.5,-467.5 1096.5,-448.5 1022.5,-448.5"/>
<text text-anchor="middle" x="1059.5" y="-455.5" font-family="Helvetica,sans-Serif" font-size="10.00">thorin/world.h</text>
</a>
</g>
</g>
<!-- Node3&#45;&gt;Node5 -->
<g id="edge4" class="edge">
<title>Node3&#45;&gt;Node5</title>
<path fill="none" stroke="midnightblue" d="M1132.52,-504.32C1118.95,-495.9 1098.12,-482.97 1082.18,-473.07"/>
<polygon fill="midnightblue" stroke="midnightblue" points="1083.79,-469.95 1073.44,-467.65 1080.09,-475.9 1083.79,-469.95"/>
</g>
<!-- Node6 -->
<g id="node6" class="node">
<title>Node6</title>
<g id="a_node6"><a xlink:title=" ">
<polygon fill="none" stroke="#bfbfbf" points="979,-0.5 979,-19.5 1028,-19.5 1028,-0.5 979,-0.5"/>
<text text-anchor="middle" x="1003.5" y="-7.5" font-family="Helvetica,sans-Serif" font-size="10.00">cassert</text>
</a>
</g>
</g>
<!-- Node5&#45;&gt;Node6 -->
<g id="edge5" class="edge">
<title>Node5&#45;&gt;Node6</title>
<path fill="none" stroke="midnightblue" d="M1096.56,-450.72C1103.5,-449.69 1110.71,-448.73 1117.5,-448 1382.24,-419.55 1455.24,-468.2 1715.5,-412 1794.57,-394.93 1885.5,-427.89 1885.5,-347 1885.5,-347 1885.5,-347 1885.5,-121 1885.5,-89.18 1881.84,-73.85 1855.5,-56 1787.02,-9.59 1189.3,-9.91 1038.12,-10.75"/>
<polygon fill="midnightblue" stroke="midnightblue" points="1038,-7.25 1028.02,-10.81 1038.04,-14.25 1038,-7.25"/>
</g>
<!-- Node7 -->
<g id="node7" class="node">
<title>Node7</title>
<g id="a_node7"><a xlink:title=" ">
<polygon fill="none" stroke="#bfbfbf" points="0,-112.5 0,-131.5 59,-131.5 59,-112.5 0,-112.5"/>
<text text-anchor="middle" x="29.5" y="-119.5" font-family="Helvetica,sans-Serif" font-size="10.00">functional</text>
</a>
</g>
</g>
<!-- Node5&#45;&gt;Node7 -->
<g id="edge6" class="edge">
<title>Node5&#45;&gt;Node7</title>
<path fill="none" stroke="midnightblue" d="M1022.27,-456.29C855.64,-452.63 186.5,-432.59 186.5,-347 186.5,-347 186.5,-347 186.5,-233 186.5,-175.64 115.34,-145.65 68.83,-132.18"/>
<polygon fill="midnightblue" stroke="midnightblue" points="69.6,-128.77 59.03,-129.48 67.74,-135.51 69.6,-128.77"/>
</g>
<!-- Node8 -->
<g id="node8" class="node">
<title>Node8</title>
<g id="a_node8"><a xlink:title=" ">
<polygon fill="none" stroke="#bfbfbf" points="181.5,-112.5 181.5,-131.5 253.5,-131.5 253.5,-112.5 181.5,-112.5"/>
<text text-anchor="middle" x="217.5" y="-119.5" font-family="Helvetica,sans-Serif" font-size="10.00">initializer_list</text>
</a>
</g>
</g>
<!-- Node5&#45;&gt;Node8 -->
<g id="edge7" class="edge">
<title>Node5&#45;&gt;Node8</title>
<path fill="none" stroke="midnightblue" d="M1022.43,-457.67C940.51,-458.27 738.53,-454.83 576.5,-412 508.61,-394.05 432.5,-417.22 432.5,-347 432.5,-347 432.5,-347 432.5,-233 432.5,-194.08 319.41,-153.75 257.27,-134.53"/>
<polygon fill="midnightblue" stroke="midnightblue" points="257.98,-131.09 247.39,-131.52 255.94,-137.79 257.98,-131.09"/>
</g>
<!-- Node9 -->
<g id="node9" class="node">
<title>Node9</title>
<g id="a_node9"><a xlink:title=" ">
<polygon fill="none" stroke="#bfbfbf" points="1534.5,-56.5 1534.5,-75.5 1588.5,-75.5 1588.5,-56.5 1534.5,-56.5"/>
<text text-anchor="middle" x="1561.5" y="-63.5" font-family="Helvetica,sans-Serif" font-size="10.00">iostream</text>
</a>
</g>
</g>
<!-- Node5&#45;&gt;Node9 -->
<g id="edge8" class="edge">
<title>Node5&#45;&gt;Node9</title>
<path fill="none" stroke="midnightblue" d="M1096.62,-451.15C1103.55,-450.08 1110.75,-448.99 1117.5,-448 1198.52,-436.11 1847.5,-428.88 1847.5,-347 1847.5,-347 1847.5,-347 1847.5,-177 1847.5,-146.9 1851.12,-131.86 1828.5,-112 1791.52,-79.53 1663.01,-85.52 1598.69,-75.82"/>
<polygon fill="midnightblue" stroke="midnightblue" points="1599.02,-72.33 1588.57,-74.05 1597.81,-79.22 1599.02,-72.33"/>
</g>
<!-- Node10 -->
<g id="node10" class="node">
<title>Node10</title>
<g id="a_node10"><a xlink:title=" ">
<polygon fill="none" stroke="#bfbfbf" points="804,-56.5 804,-75.5 845,-75.5 845,-56.5 804,-56.5"/>
<text text-anchor="middle" x="824.5" y="-63.5" font-family="Helvetica,sans-Serif" font-size="10.00">string</text>
</a>
</g>
</g>
<!-- Node5&#45;&gt;Node10 -->
<g id="edge9" class="edge">
<title>Node5&#45;&gt;Node10</title>
<path fill="none" stroke="midnightblue" d="M1022.31,-456.21C911.38,-452.87 590.5,-435.55 590.5,-347 590.5,-347 590.5,-347 590.5,-177 590.5,-146.9 587.4,-132.44 609.5,-112 636.02,-87.47 741.03,-74.6 793.84,-69.57"/>
<polygon fill="midnightblue" stroke="midnightblue" points="794.33,-73.04 803.97,-68.64 793.69,-66.07 794.33,-73.04"/>
</g>
<!-- Node11 -->
<g id="node11" class="node">
<title>Node11</title>
<g id="a_node11"><a xlink:href="axiom_8h.html" target="_top" xlink:title=" ">
<polygon fill="none" stroke="black" points="1161,-392.5 1161,-411.5 1238,-411.5 1238,-392.5 1161,-392.5"/>
<text text-anchor="middle" x="1199.5" y="-399.5" font-family="Helvetica,sans-Serif" font-size="10.00">thorin/axiom.h</text>
</a>
</g>
</g>
<!-- Node5&#45;&gt;Node11 -->
<g id="edge10" class="edge">
<title>Node5&#45;&gt;Node11</title>
<path fill="none" stroke="midnightblue" d="M1081.68,-448.44C1104.93,-439.48 1141.65,-425.31 1167.92,-415.18"/>
<polygon fill="midnightblue" stroke="midnightblue" points="1169.35,-418.38 1177.42,-411.52 1166.83,-411.85 1169.35,-418.38"/>
</g>
<!-- Node19 -->
<g id="node19" class="node">
<title>Node19</title>
<g id="a_node19"><a xlink:href="hash_8h.html" target="_top" xlink:title=" ">
<polygon fill="none" stroke="black" points="1167.5,-168.5 1167.5,-187.5 1255.5,-187.5 1255.5,-168.5 1167.5,-168.5"/>
<text text-anchor="middle" x="1211.5" y="-175.5" font-family="Helvetica,sans-Serif" font-size="10.00">thorin/util/hash.h</text>
</a>
</g>
</g>
<!-- Node5&#45;&gt;Node19 -->
<g id="edge80" class="edge">
<title>Node5&#45;&gt;Node19</title>
<path fill="none" stroke="midnightblue" d="M1071.02,-448.41C1081.6,-440.05 1097.16,-426.52 1107.5,-412 1114.29,-402.46 1180.79,-249.78 1203.75,-196.88"/>
<polygon fill="midnightblue" stroke="midnightblue" points="1206.96,-198.27 1207.73,-187.7 1200.54,-195.48 1206.96,-198.27"/>
</g>
<!-- Node29 -->
<g id="node29" class="node">
<title>Node29</title>
<g id="a_node29"><a xlink:title=" ">
<polygon fill="none" stroke="#bfbfbf" points="693,-112.5 693,-131.5 770,-131.5 770,-112.5 693,-112.5"/>
<text text-anchor="middle" x="731.5" y="-119.5" font-family="Helvetica,sans-Serif" font-size="10.00">thorin/config.h</text>
</a>
</g>
</g>
<!-- Node5&#45;&gt;Node29 -->
<g id="edge75" class="edge">
<title>Node5&#45;&gt;Node29</title>
<path fill="none" stroke="midnightblue" d="M1022.19,-452.52C936.23,-441.16 731.5,-407.74 731.5,-347 731.5,-347 731.5,-347 731.5,-233 731.5,-200.95 731.5,-163.64 731.5,-141.75"/>
<polygon fill="midnightblue" stroke="midnightblue" points="735,-141.56 731.5,-131.56 728,-141.56 735,-141.56"/>
</g>
<!-- Node47 -->
<g id="node47" class="node">
<title>Node47</title>
<g id="a_node47"><a xlink:href="lattice_8h.html" target="_top" xlink:title=" ">
<polygon fill="none" stroke="black" points="1021,-392.5 1021,-411.5 1098,-411.5 1098,-392.5 1021,-392.5"/>
<text text-anchor="middle" x="1059.5" y="-399.5" font-family="Helvetica,sans-Serif" font-size="10.00">thorin/lattice.h</text>
</a>
</g>
</g>
<!-- Node5&#45;&gt;Node47 -->
<g id="edge76" class="edge">
<title>Node5&#45;&gt;Node47</title>
<path fill="none" stroke="midnightblue" d="M1059.5,-448.08C1059.5,-441.01 1059.5,-430.86 1059.5,-421.99"/>
<polygon fill="midnightblue" stroke="midnightblue" points="1063,-421.75 1059.5,-411.75 1056,-421.75 1063,-421.75"/>
</g>
<!-- Node48 -->
<g id="node48" class="node">
<title>Node48</title>
<g id="a_node48"><a xlink:href="tuple_8h.html" target="_top" xlink:title=" ">
<polygon fill="none" stroke="black" points="956.5,-336.5 956.5,-355.5 1028.5,-355.5 1028.5,-336.5 956.5,-336.5"/>
<text text-anchor="middle" x="992.5" y="-343.5" font-family="Helvetica,sans-Serif" font-size="10.00">thorin/tuple.h</text>
</a>
</g>
</g>
<!-- Node5&#45;&gt;Node48 -->
<g id="edge78" class="edge">
<title>Node5&#45;&gt;Node48</title>
<path fill="none" stroke="midnightblue" d="M1047.1,-448.4C1036.21,-440.23 1020.71,-426.99 1011.5,-412 1002.75,-397.76 997.86,-379.28 995.24,-365.67"/>
<polygon fill="midnightblue" stroke="midnightblue" points="998.65,-364.86 993.54,-355.58 991.75,-366.03 998.65,-364.86"/>
</g>
<!-- Node11&#45;&gt;Node12 -->
<g id="edge11" class="edge">
<title>Node11&#45;&gt;Node12</title>
<path fill="none" stroke="midnightblue" d="M1199.5,-392.08C1199.5,-385.01 1199.5,-374.86 1199.5,-365.99"/>
<polygon fill="midnightblue" stroke="midnightblue" points="1203,-365.75 1199.5,-355.75 1196,-365.75 1203,-365.75"/>
</g>
<!-- Node13 -->
<g id="node13" class="node">
<title>Node13</title>
<g id="a_node13"><a xlink:title=" ">
<polygon fill="none" stroke="#bfbfbf" points="1176.5,-280.5 1176.5,-299.5 1222.5,-299.5 1222.5,-280.5 1176.5,-280.5"/>
<text text-anchor="middle" x="1199.5" y="-287.5" font-family="Helvetica,sans-Serif" font-size="10.00">variant</text>
</a>
</g>
</g>
<!-- Node12&#45;&gt;Node13 -->
<g id="edge12" class="edge">
<title>Node12&#45;&gt;Node13</title>
<path fill="none" stroke="midnightblue" d="M1199.5,-336.08C1199.5,-329.01 1199.5,-318.86 1199.5,-309.99"/>
<polygon fill="midnightblue" stroke="midnightblue" points="1203,-309.75 1199.5,-299.75 1196,-309.75 1203,-309.75"/>
</g>
<!-- Node14 -->
<g id="node14" class="node">
<title>Node14</title>
<g id="a_node14"><a xlink:href="def_8h.html" target="_top" xlink:title=" ">
<polygon fill="none" stroke="black" points="960,-280.5 960,-299.5 1025,-299.5 1025,-280.5 960,-280.5"/>
<text text-anchor="middle" x="992.5" y="-287.5" font-family="Helvetica,sans-Serif" font-size="10.00">thorin/def.h</text>
</a>
</g>
</g>
<!-- Node12&#45;&gt;Node14 -->
<g id="edge13" class="edge">
<title>Node12&#45;&gt;Node14</title>
<path fill="none" stroke="midnightblue" d="M1166.7,-336.44C1131.12,-327.16 1074.19,-312.31 1035.15,-302.13"/>
<polygon fill="midnightblue" stroke="midnightblue" points="1035.71,-298.65 1025.15,-299.52 1033.94,-305.43 1035.71,-298.65"/>
</g>
<!-- Node15 -->
<g id="node15" class="node">
<title>Node15</title>
<g id="a_node15"><a xlink:title=" ">
<polygon fill="none" stroke="#bfbfbf" points="1114.5,-112.5 1114.5,-131.5 1164.5,-131.5 1164.5,-112.5 1114.5,-112.5"/>
<text text-anchor="middle" x="1139.5" y="-119.5" font-family="Helvetica,sans-Serif" font-size="10.00">optional</text>
</a>
</g>
</g>
<!-- Node14&#45;&gt;Node15 -->
<g id="edge14" class="edge">
<title>Node14&#45;&gt;Node15</title>
<path fill="none" stroke="midnightblue" d="M1000.4,-280.08C1024.04,-253.38 1094.46,-173.87 1125.05,-139.32"/>
<polygon fill="midnightblue" stroke="midnightblue" points="1127.9,-141.38 1131.91,-131.57 1122.66,-136.73 1127.9,-141.38"/>
</g>
<!-- Node16 -->
<g id="node16" class="node">
<title>Node16</title>
<g id="a_node16"><a xlink:title=" ">
<polygon fill="none" stroke="#bfbfbf" points="518.5,-112.5 518.5,-131.5 562.5,-131.5 562.5,-112.5 518.5,-112.5"/>
<text text-anchor="middle" x="540.5" y="-119.5" font-family="Helvetica,sans-Serif" font-size="10.00">vector</text>
</a>
</g>
</g>
<!-- Node14&#45;&gt;Node16 -->
<g id="edge15" class="edge">
<title>Node14&#45;&gt;Node16</title>
<path fill="none" stroke="midnightblue" d="M968.31,-280.46C942.92,-271.48 901.86,-256.88 866.5,-244 758.18,-204.56 630.07,-156.63 571.97,-134.83"/>
<polygon fill="midnightblue" stroke="midnightblue" points="573.19,-131.55 562.6,-131.31 570.73,-138.1 573.19,-131.55"/>
</g>
<!-- Node17 -->
<g id="node17" class="node">
<title>Node17</title>
<g id="a_node17"><a xlink:href="debug_8h.html" target="_top" xlink:title=" ">
<polygon fill="none" stroke="black" points="887,-224.5 887,-243.5 964,-243.5 964,-224.5 887,-224.5"/>
<text text-anchor="middle" x="925.5" y="-231.5" font-family="Helvetica,sans-Serif" font-size="10.00">thorin/debug.h</text>
</a>
</g>
</g>
<!-- Node14&#45;&gt;Node17 -->
<g id="edge16" class="edge">
<title>Node14&#45;&gt;Node17</title>
<path fill="none" stroke="midnightblue" d="M981.74,-280.32C971.73,-272.26 956.61,-260.08 944.57,-250.37"/>
<polygon fill="midnightblue" stroke="midnightblue" points="946.44,-247.38 936.46,-243.83 942.05,-252.83 946.44,-247.38"/>
</g>
<!-- Node14&#45;&gt;Node19 -->
<g id="edge70" class="edge">
<title>Node14&#45;&gt;Node19</title>
<path fill="none" stroke="midnightblue" d="M1004.01,-280.34C1022.12,-266.98 1058.7,-241.13 1092.5,-224 1118.88,-210.64 1150.21,-198.94 1174.1,-190.83"/>
<polygon fill="midnightblue" stroke="midnightblue" points="1175.47,-194.06 1183.85,-187.57 1173.26,-187.42 1175.47,-194.06"/>
</g>
<!-- Node30 -->
<g id="node30" class="node">
<title>Node30</title>
<g id="a_node30"><a xlink:href="stream_8h.html" target="_top" xlink:title=" ">
<polygon fill="none" stroke="black" points="865,-112.5 865,-131.5 962,-131.5 962,-112.5 865,-112.5"/>
<text text-anchor="middle" x="913.5" y="-119.5" font-family="Helvetica,sans-Serif" font-size="10.00">thorin/util/stream.h</text>
</a>
</g>
</g>
<!-- Node14&#45;&gt;Node30 -->
<g id="edge74" class="edge">
<title>Node14&#45;&gt;Node30</title>
<path fill="none" stroke="midnightblue" d="M959.81,-286.04C932.72,-281.66 895.81,-270.83 877.5,-244 855.16,-211.27 882.33,-164.42 900.22,-139.72"/>
<polygon fill="midnightblue" stroke="midnightblue" points="903.05,-141.78 906.28,-131.69 897.47,-137.56 903.05,-141.78"/>
</g>
<!-- Node40 -->
<g id="node40" class="node">
<title>Node40</title>
<g id="a_node40"><a xlink:href="tables_8h.html" target="_top" xlink:title=" ">
<polygon fill="none" stroke="black" points="1596,-168.5 1596,-187.5 1673,-187.5 1673,-168.5 1596,-168.5"/>
<text text-anchor="middle" x="1634.5" y="-175.5" font-family="Helvetica,sans-Serif" font-size="10.00">thorin/tables.h</text>
</a>
</g>
</g>
<!-- Node14&#45;&gt;Node40 -->
<g id="edge52" class="edge">
<title>Node14&#45;&gt;Node40</title>
<path fill="none" stroke="midnightblue" d="M1025.22,-283.39C1130.47,-265.36 1460.74,-208.77 1585.83,-187.34"/>
<polygon fill="midnightblue" stroke="midnightblue" points="1586.62,-190.76 1595.88,-185.62 1585.43,-183.86 1586.62,-190.76"/>
</g>
<!-- Node42 -->
<g id="node42" class="node">
<title>Node42</title>
<g id="a_node42"><a xlink:href="array_8h.html" target="_top" xlink:title=" ">
<polygon fill="none" stroke="black" points="460.5,-168.5 460.5,-187.5 548.5,-187.5 548.5,-168.5 460.5,-168.5"/>
<text text-anchor="middle" x="504.5" y="-175.5" font-family="Helvetica,sans-Serif" font-size="10.00">thorin/util/array.h</text>
</a>
</g>
</g>
<!-- Node14&#45;&gt;Node42 -->
<g id="edge56" class="edge">
<title>Node14&#45;&gt;Node42</title>
<path fill="none" stroke="midnightblue" d="M959.77,-283.49C913.92,-275.61 828.04,-260.26 755.5,-244 680.51,-227.19 593.9,-203.89 544.53,-190.23"/>
<polygon fill="midnightblue" stroke="midnightblue" points="545.44,-186.85 534.87,-187.55 543.57,-193.6 545.44,-186.85"/>
</g>
<!-- Node45 -->
<g id="node45" class="node">
<title>Node45</title>
<g id="a_node45"><a xlink:href="cast_8h.html" target="_top" xlink:title=" ">
<polygon fill="none" stroke="black" points="77.5,-112.5 77.5,-131.5 163.5,-131.5 163.5,-112.5 77.5,-112.5"/>
<text text-anchor="middle" x="120.5" y="-119.5" font-family="Helvetica,sans-Serif" font-size="10.00">thorin/util/cast.h</text>
</a>
</g>
</g>
<!-- Node14&#45;&gt;Node45 -->
<g id="edge67" class="edge">
<title>Node14&#45;&gt;Node45</title>
<path fill="none" stroke="midnightblue" d="M959.71,-285.32C901.07,-278.54 774.42,-263.02 668.5,-244 479.71,-210.1 257.2,-156.78 164.49,-133.96"/>
<polygon fill="midnightblue" stroke="midnightblue" points="165.16,-130.52 154.61,-131.52 163.49,-137.32 165.16,-130.52"/>
</g>
<!-- Node46 -->
<g id="node46" class="node">
<title>Node46</title>
<g id="a_node46"><a xlink:href="ptr_8h.html" target="_top" xlink:title=" ">
<polygon fill="none" stroke="black" points="980.5,-112.5 980.5,-131.5 1058.5,-131.5 1058.5,-112.5 980.5,-112.5"/>
<text text-anchor="middle" x="1019.5" y="-119.5" font-family="Helvetica,sans-Serif" font-size="10.00">thorin/util/ptr.h</text>
</a>
</g>
</g>
<!-- Node14&#45;&gt;Node46 -->
<g id="edge71" class="edge">
<title>Node14&#45;&gt;Node46</title>
<path fill="none" stroke="midnightblue" d="M993.95,-280.08C998.2,-253.95 1010.68,-177.21 1016.48,-141.58"/>
<polygon fill="midnightblue" stroke="midnightblue" points="1019.96,-142 1018.11,-131.57 1013.05,-140.88 1019.96,-142"/>
</g>
<!-- Node17&#45;&gt;Node10 -->
<g id="edge17" class="edge">
<title>Node17&#45;&gt;Node10</title>
<path fill="none" stroke="midnightblue" d="M918.82,-224.4C905.76,-207.34 876.26,-167.8 855.5,-132 846.59,-116.64 838.03,-98.31 832.16,-85.04"/>
<polygon fill="midnightblue" stroke="midnightblue" points="835.28,-83.42 828.09,-75.64 828.85,-86.2 835.28,-83.42"/>
</g>
<!-- Node18 -->
<g id="node18" class="node">
<title>Node18</title>
<g id="a_node18"><a xlink:title=" ">
<polygon fill="none" stroke="#bfbfbf" points="926.5,-168.5 926.5,-187.5 964.5,-187.5 964.5,-168.5 926.5,-168.5"/>
<text text-anchor="middle" x="945.5" y="-175.5" font-family="Helvetica,sans-Serif" font-size="10.00">tuple</text>
</a>
</g>
</g>
<!-- Node17&#45;&gt;Node18 -->
<g id="edge18" class="edge">
<title>Node17&#45;&gt;Node18</title>
<path fill="none" stroke="midnightblue" d="M928.8,-224.08C931.48,-216.85 935.35,-206.41 938.69,-197.4"/>
<polygon fill="midnightblue" stroke="midnightblue" points="942.07,-198.34 942.26,-187.75 935.5,-195.91 942.07,-198.34"/>
</g>
<!-- Node17&#45;&gt;Node19 -->
<g id="edge19" class="edge">
<title>Node17&#45;&gt;Node19</title>
<path fill="none" stroke="midnightblue" d="M964.07,-225.72C1013.88,-216.31 1100.85,-199.89 1157.29,-189.24"/>
<polygon fill="midnightblue" stroke="midnightblue" points="1158.28,-192.61 1167.46,-187.32 1156.98,-185.73 1158.28,-192.61"/>
</g>
<!-- Node17&#45;&gt;Node30 -->
<g id="edge51" class="edge">
<title>Node17&#45;&gt;Node30</title>
<path fill="none" stroke="midnightblue" d="M923.67,-224.42C921.82,-215.39 919.02,-200.76 917.5,-188 915.66,-172.54 914.64,-154.91 914.09,-141.92"/>
<polygon fill="midnightblue" stroke="midnightblue" points="917.59,-141.73 913.72,-131.86 910.59,-141.98 917.59,-141.73"/>
</g>
<!-- Node19&#45;&gt;Node6 -->
<g id="edge20" class="edge">
<title>Node19&#45;&gt;Node6</title>
<path fill="none" stroke="midnightblue" d="M1211.27,-168.09C1210.49,-154.65 1207.3,-128.94 1194.5,-112 1155.25,-60.05 1081.41,-32.11 1037.94,-19.51"/>
<polygon fill="midnightblue" stroke="midnightblue" points="1038.67,-16.08 1028.1,-16.77 1036.8,-22.83 1038.67,-16.08"/>
</g>
<!-- Node19&#45;&gt;Node9 -->
<g id="edge27" class="edge">
<title>Node19&#45;&gt;Node9</title>
<path fill="none" stroke="midnightblue" d="M1255.71,-174.49C1345.09,-168.96 1540.48,-154.41 1560.5,-132 1571.52,-119.66 1570.25,-100.13 1567.14,-85.7"/>
<polygon fill="midnightblue" stroke="midnightblue" points="1570.49,-84.66 1564.59,-75.86 1563.72,-86.42 1570.49,-84.66"/>
</g>
<!-- Node19&#45;&gt;Node15 -->
<g id="edge29" class="edge">
<title>Node19&#45;&gt;Node15</title>
<path fill="none" stroke="midnightblue" d="M1199.93,-168.32C1189.08,-160.18 1172.62,-147.84 1159.62,-138.09"/>
<polygon fill="midnightblue" stroke="midnightblue" points="1161.38,-135.03 1151.28,-131.83 1157.18,-140.63 1161.38,-135.03"/>
</g>
<!-- Node20 -->
<g id="node20" class="node">
<title>Node20</title>
<g id="a_node20"><a xlink:title=" ">
<polygon fill="none" stroke="#bfbfbf" points="1296.5,-112.5 1296.5,-131.5 1352.5,-131.5 1352.5,-112.5 1296.5,-112.5"/>
<text text-anchor="middle" x="1324.5" y="-119.5" font-family="Helvetica,sans-Serif" font-size="10.00">cinttypes</text>
</a>
</g>
</g>
<!-- Node19&#45;&gt;Node20 -->
<g id="edge21" class="edge">
<title>Node19&#45;&gt;Node20</title>
<path fill="none" stroke="midnightblue" d="M1229.41,-168.44C1247.75,-159.68 1276.51,-145.94 1297.59,-135.86"/>
<polygon fill="midnightblue" stroke="midnightblue" points="1299.17,-138.99 1306.68,-131.52 1296.15,-132.67 1299.17,-138.99"/>
</g>
<!-- Node21 -->
<g id="node21" class="node">
<title>Node21</title>
<g id="a_node21"><a xlink:title=" ">
<polygon fill="none" stroke="#bfbfbf" points="1327.5,-56.5 1327.5,-75.5 1373.5,-75.5 1373.5,-56.5 1327.5,-56.5"/>
<text text-anchor="middle" x="1350.5" y="-63.5" font-family="Helvetica,sans-Serif" font-size="10.00">cstdint</text>
</a>
</g>
</g>
<!-- Node19&#45;&gt;Node21 -->
<g id="edge22" class="edge">
<title>Node19&#45;&gt;Node21</title>
<path fill="none" stroke="midnightblue" d="M1221.11,-168.31C1235.31,-155.57 1262.89,-131.26 1287.5,-112 1301.13,-101.34 1316.98,-90.02 1329.38,-81.4"/>
<polygon fill="midnightblue" stroke="midnightblue" points="1331.47,-84.21 1337.71,-75.65 1327.49,-78.45 1331.47,-84.21"/>
</g>
<!-- Node22 -->
<g id="node22" class="node">
<title>Node22</title>
<g id="a_node22"><a xlink:title=" ">
<polygon fill="none" stroke="#bfbfbf" points="321.5,-56.5 321.5,-75.5 367.5,-75.5 367.5,-56.5 321.5,-56.5"/>
<text text-anchor="middle" x="344.5" y="-63.5" font-family="Helvetica,sans-Serif" font-size="10.00">cstring</text>
</a>
</g>
</g>
<!-- Node19&#45;&gt;Node22 -->
<g id="edge23" class="edge">
<title>Node19&#45;&gt;Node22</title>
<path fill="none" stroke="midnightblue" d="M1167.37,-173.26C1099.8,-167.12 966.84,-153.41 855.5,-132 820.78,-125.32 813.29,-118.29 778.5,-112 630.66,-85.29 451.42,-72.96 378.15,-68.76"/>
<polygon fill="midnightblue" stroke="midnightblue" points="377.91,-65.24 367.73,-68.17 377.52,-72.23 377.91,-65.24"/>
</g>
<!-- Node23 -->
<g id="node23" class="node">
<title>Node23</title>
<g id="a_node23"><a xlink:title=" ">
<polygon fill="none" stroke="#bfbfbf" points="618.5,-112.5 618.5,-131.5 674.5,-131.5 674.5,-112.5 618.5,-112.5"/>
<text text-anchor="middle" x="646.5" y="-119.5" font-family="Helvetica,sans-Serif" font-size="10.00">algorithm</text>
</a>
</g>
</g>
<!-- Node19&#45;&gt;Node23 -->
<g id="edge24" class="edge">
<title>Node19&#45;&gt;Node23</title>
<path fill="none" stroke="midnightblue" d="M1167.41,-175.53C1078.02,-172.06 868.98,-161.43 684.56,-131.93"/>
<polygon fill="midnightblue" stroke="midnightblue" points="685.12,-128.48 674.69,-130.33 684,-135.39 685.12,-128.48"/>
</g>
<!-- Node24 -->
<g id="node24" class="node">
<title>Node24</title>
<g id="a_node24"><a xlink:title=" ">
<polygon fill="none" stroke="#bfbfbf" points="1408.5,-112.5 1408.5,-131.5 1446.5,-131.5 1446.5,-112.5 1408.5,-112.5"/>
<text text-anchor="middle" x="1427.5" y="-119.5" font-family="Helvetica,sans-Serif" font-size="10.00">array</text>
</a>
</g>
</g>
<!-- Node19&#45;&gt;Node24 -->
<g id="edge25" class="edge">
<title>Node19&#45;&gt;Node24</title>
<path fill="none" stroke="midnightblue" d="M1247.33,-168.47C1284.28,-159.61 1343.51,-145.22 1394.5,-132 1395.76,-131.67 1397.05,-131.34 1398.35,-130.99"/>
<polygon fill="midnightblue" stroke="midnightblue" points="1399.58,-134.29 1408.33,-128.32 1397.76,-127.53 1399.58,-134.29"/>
</g>
<!-- Node25 -->
<g id="node25" class="node">
<title>Node25</title>
<g id="a_node25"><a xlink:title=" ">
<polygon fill="none" stroke="#bfbfbf" points="1465,-112.5 1465,-131.5 1494,-131.5 1494,-112.5 1465,-112.5"/>
<text text-anchor="middle" x="1479.5" y="-119.5" font-family="Helvetica,sans-Serif" font-size="10.00">bit</text>
</a>
</g>
</g>
<!-- Node19&#45;&gt;Node25 -->
<g id="edge26" class="edge">
<title>Node19&#45;&gt;Node25</title>
<path fill="none" stroke="midnightblue" d="M1255.67,-171.25C1302.83,-164.58 1379.83,-152.18 1454.83,-131.74"/>
<polygon fill="midnightblue" stroke="midnightblue" points="1456.21,-134.99 1464.91,-128.94 1454.34,-128.24 1456.21,-134.99"/>
</g>
<!-- Node26 -->
<g id="node26" class="node">
<title>Node26</title>
<g id="a_node26"><a xlink:title=" ">
<polygon fill="none" stroke="#bfbfbf" points="1040,-56.5 1040,-75.5 1091,-75.5 1091,-56.5 1040,-56.5"/>
<text text-anchor="middle" x="1065.5" y="-63.5" font-family="Helvetica,sans-Serif" font-size="10.00">memory</text>
</a>
</g>
</g>
<!-- Node19&#45;&gt;Node26 -->
<g id="edge28" class="edge">
<title>Node19&#45;&gt;Node26</title>
<path fill="none" stroke="midnightblue" d="M1208.47,-168.22C1203.32,-154.48 1191.61,-127.83 1173.5,-112 1152.72,-93.83 1123.57,-82.27 1100.79,-75.43"/>
<polygon fill="midnightblue" stroke="midnightblue" points="1101.72,-72.05 1091.14,-72.69 1099.81,-78.79 1101.72,-72.05"/>
</g>
<!-- Node27 -->
<g id="node27" class="node">
<title>Node27</title>
<g id="a_node27"><a xlink:title=" ">
<polygon fill="none" stroke="#bfbfbf" points="1391.5,-56.5 1391.5,-75.5 1453.5,-75.5 1453.5,-56.5 1391.5,-56.5"/>
<text text-anchor="middle" x="1422.5" y="-63.5" font-family="Helvetica,sans-Serif" font-size="10.00">type_traits</text>
</a>
</g>
</g>
<!-- Node19&#45;&gt;Node27 -->
<g id="edge30" class="edge">
<title>Node19&#45;&gt;Node27</title>
<path fill="none" stroke="midnightblue" d="M1255.71,-170.06C1287.01,-163.7 1329.02,-152.11 1361.5,-132 1381.77,-119.45 1399.73,-98.47 1410.82,-83.75"/>
<polygon fill="midnightblue" stroke="midnightblue" points="1413.75,-85.67 1416.8,-75.52 1408.09,-81.56 1413.75,-85.67"/>
</g>
<!-- Node28 -->
<g id="node28" class="node">
<title>Node28</title>
<g id="a_node28"><a xlink:title=" ">
<polygon fill="none" stroke="#bfbfbf" points="1512,-112.5 1512,-131.5 1551,-131.5 1551,-112.5 1512,-112.5"/>
<text text-anchor="middle" x="1531.5" y="-119.5" font-family="Helvetica,sans-Serif" font-size="10.00">utility</text>
</a>
</g>
</g>
<!-- Node19&#45;&gt;Node28 -->
<g id="edge31" class="edge">
<title>Node19&#45;&gt;Node28</title>
<path fill="none" stroke="midnightblue" d="M1255.95,-172.37C1311.59,-166.08 1409.88,-153.37 1501.97,-132.08"/>
<polygon fill="midnightblue" stroke="midnightblue" points="1502.79,-135.48 1511.72,-129.78 1501.19,-128.67 1502.79,-135.48"/>
</g>
<!-- Node19&#45;&gt;Node29 -->
<g id="edge32" class="edge">
<title>Node19&#45;&gt;Node29</title>
<path fill="none" stroke="midnightblue" d="M1167.44,-173.28C1089.86,-166.53 923.89,-151.16 784.5,-132 783.2,-131.82 781.88,-131.64 780.55,-131.44"/>
<polygon fill="midnightblue" stroke="midnightblue" points="780.66,-127.92 770.24,-129.87 779.6,-134.84 780.66,-127.92"/>
</g>
<!-- Node19&#45;&gt;Node30 -->
<g id="edge33" class="edge">
<title>Node19&#45;&gt;Node30</title>
<path fill="none" stroke="midnightblue" d="M1167.21,-168.97C1114.9,-159.5 1027.77,-143.71 970.48,-133.33"/>
<polygon fill="midnightblue" stroke="midnightblue" points="970.96,-129.86 960.5,-131.52 969.71,-136.74 970.96,-129.86"/>
</g>
<!-- Node35 -->
<g id="node35" class="node">
<title>Node35</title>
<g id="a_node35"><a xlink:href="types_8h.html" target="_top" xlink:title=" ">
<polygon fill="none" stroke="black" points="1645.5,-112.5 1645.5,-131.5 1735.5,-131.5 1735.5,-112.5 1645.5,-112.5"/>
<text text-anchor="middle" x="1690.5" y="-119.5" font-family="Helvetica,sans-Serif" font-size="10.00">thorin/util/types.h</text>
</a>
</g>
</g>
<!-- Node19&#45;&gt;Node35 -->
<g id="edge44" class="edge">
<title>Node19&#45;&gt;Node35</title>
<path fill="none" stroke="midnightblue" d="M1255.72,-172.92C1332.36,-165.69 1494.78,-149.74 1631.5,-132 1632.77,-131.83 1634.06,-131.66 1635.36,-131.49"/>
<polygon fill="midnightblue" stroke="midnightblue" points="1636.01,-134.93 1645.43,-130.09 1635.04,-128 1636.01,-134.93"/>
</g>
<!-- Node30&#45;&gt;Node6 -->
<g id="edge34" class="edge">
<title>Node30&#45;&gt;Node6</title>
<path fill="none" stroke="midnightblue" d="M906.23,-112.33C896.14,-99.2 880.44,-73.9 892.5,-56 909.35,-30.99 942.73,-19.87 968.5,-14.94"/>
<polygon fill="midnightblue" stroke="midnightblue" points="969.38,-18.34 978.66,-13.23 968.22,-11.44 969.38,-18.34"/>
</g>
<!-- Node30&#45;&gt;Node9 -->
<g id="edge37" class="edge">
<title>Node30&#45;&gt;Node9</title>
<path fill="none" stroke="midnightblue" d="M962.2,-113.15C965.34,-112.74 968.46,-112.35 971.5,-112 1188.9,-87.2 1244.43,-93.91 1462.5,-76 1482.87,-74.33 1505.58,-72.28 1524.1,-70.56"/>
<polygon fill="midnightblue" stroke="midnightblue" points="1524.57,-74.03 1534.2,-69.61 1523.92,-67.06 1524.57,-74.03"/>
</g>
<!-- Node30&#45;&gt;Node10 -->
<g id="edge41" class="edge">
<title>Node30&#45;&gt;Node10</title>
<path fill="none" stroke="midnightblue" d="M899.2,-112.32C885.32,-103.9 864.01,-90.97 847.7,-81.07"/>
<polygon fill="midnightblue" stroke="midnightblue" points="849.13,-77.85 838.76,-75.65 845.5,-83.83 849.13,-77.85"/>
</g>
<!-- Node30&#45;&gt;Node22 -->
<g id="edge35" class="edge">
<title>Node30&#45;&gt;Node22</title>
<path fill="none" stroke="midnightblue" d="M864.99,-116.4C752.05,-105.68 473.85,-79.28 377.77,-70.16"/>
<polygon fill="midnightblue" stroke="midnightblue" points="378.04,-66.67 367.75,-69.21 377.38,-73.64 378.04,-66.67"/>
</g>
<!-- Node30&#45;&gt;Node26 -->
<g id="edge38" class="edge">
<title>Node30&#45;&gt;Node26</title>
<path fill="none" stroke="midnightblue" d="M937.58,-112.44C963.04,-103.4 1003.39,-89.06 1031.96,-78.92"/>
<polygon fill="midnightblue" stroke="midnightblue" points="1033.28,-82.16 1041.53,-75.52 1030.93,-75.57 1033.28,-82.16"/>
</g>
<!-- Node31 -->
<g id="node31" class="node">
<title>Node31</title>
<g id="a_node31"><a xlink:title=" ">
<polygon fill="none" stroke="#bfbfbf" points="901.5,-56.5 901.5,-75.5 951.5,-75.5 951.5,-56.5 901.5,-56.5"/>
<text text-anchor="middle" x="926.5" y="-63.5" font-family="Helvetica,sans-Serif" font-size="10.00">fstream</text>
</a>
</g>
</g>
<!-- Node30&#45;&gt;Node31 -->
<g id="edge36" class="edge">
<title>Node30&#45;&gt;Node31</title>
<path fill="none" stroke="midnightblue" d="M915.65,-112.08C917.37,-104.93 919.85,-94.64 922,-85.69"/>
<polygon fill="midnightblue" stroke="midnightblue" points="925.46,-86.29 924.39,-75.75 918.65,-84.65 925.46,-86.29"/>
</g>
<!-- Node32 -->
<g id="node32" class="node">
<title>Node32</title>
<g id="a_node32"><a xlink:title=" ">
<polygon fill="none" stroke="#bfbfbf" points="604.5,-56.5 604.5,-75.5 650.5,-75.5 650.5,-56.5 604.5,-56.5"/>
<text text-anchor="middle" x="627.5" y="-63.5" font-family="Helvetica,sans-Serif" font-size="10.00">ranges</text>
</a>
</g>
</g>
<!-- Node30&#45;&gt;Node32 -->
<g id="edge39" class="edge">
<title>Node30&#45;&gt;Node32</title>
<path fill="none" stroke="midnightblue" d="M868.18,-112.44C810.42,-101.54 711.92,-82.94 660.68,-73.26"/>
<polygon fill="midnightblue" stroke="midnightblue" points="661.27,-69.81 650.79,-71.4 659.97,-76.69 661.27,-69.81"/>
</g>
<!-- Node33 -->
<g id="node33" class="node">
<title>Node33</title>
<g id="a_node33"><a xlink:title=" ">
<polygon fill="none" stroke="#bfbfbf" points="969.5,-56.5 969.5,-75.5 1021.5,-75.5 1021.5,-56.5 969.5,-56.5"/>
<text text-anchor="middle" x="995.5" y="-63.5" font-family="Helvetica,sans-Serif" font-size="10.00">sstream</text>
</a>
</g>
</g>
<!-- Node30&#45;&gt;Node33 -->
<g id="edge40" class="edge">
<title>Node30&#45;&gt;Node33</title>
<path fill="none" stroke="midnightblue" d="M926.67,-112.32C939.35,-103.98 958.73,-91.21 973.71,-81.35"/>
<polygon fill="midnightblue" stroke="midnightblue" points="975.93,-84.08 982.36,-75.65 972.08,-78.23 975.93,-84.08"/>
</g>
<!-- Node34 -->
<g id="node34" class="node">
<title>Node34</title>
<g id="a_node34"><a xlink:href="assert_8h.html" target="_top" xlink:title=" ">
<polygon fill="none" stroke="black" points="1215.5,-56.5 1215.5,-75.5 1309.5,-75.5 1309.5,-56.5 1215.5,-56.5"/>
<text text-anchor="middle" x="1262.5" y="-63.5" font-family="Helvetica,sans-Serif" font-size="10.00">thorin/util/assert.h</text>
</a>
</g>
</g>
<!-- Node30&#45;&gt;Node34 -->
<g id="edge42" class="edge">
<title>Node30&#45;&gt;Node34</title>
<path fill="none" stroke="midnightblue" d="M962.23,-113.44C965.37,-112.95 968.48,-112.47 971.5,-112 1052.64,-99.43 1146.5,-84.92 1205.19,-75.85"/>
<polygon fill="midnightblue" stroke="midnightblue" points="1206.03,-79.27 1215.37,-74.28 1204.96,-72.35 1206.03,-79.27"/>
</g>
<!-- Node34&#45;&gt;Node6 -->
<g id="edge43" class="edge">
<title>Node34&#45;&gt;Node6</title>
<path fill="none" stroke="midnightblue" d="M1221.46,-56.44C1170.83,-45.89 1085.64,-28.13 1038.15,-18.22"/>
<polygon fill="midnightblue" stroke="midnightblue" points="1038.84,-14.79 1028.33,-16.18 1037.41,-21.64 1038.84,-14.79"/>
</g>
<!-- Node35&#45;&gt;Node21 -->
<g id="edge46" class="edge">
<title>Node35&#45;&gt;Node21</title>
<path fill="none" stroke="midnightblue" d="M1645.29,-116.25C1586.91,-109.7 1482.04,-96.56 1383.64,-76.01"/>
<polygon fill="midnightblue" stroke="midnightblue" points="1384.34,-72.59 1373.83,-73.94 1382.89,-79.43 1384.34,-72.59"/>
</g>
<!-- Node35&#45;&gt;Node27 -->
<g id="edge49" class="edge">
<title>Node35&#45;&gt;Node27</title>
<path fill="none" stroke="midnightblue" d="M1648.03,-112.44C1597.5,-102.26 1513.68,-85.37 1463.71,-75.3"/>
<polygon fill="midnightblue" stroke="midnightblue" points="1464.38,-71.87 1453.88,-73.32 1462.99,-78.73 1464.38,-71.87"/>
</g>
<!-- Node36 -->
<g id="node36" class="node">
<title>Node36</title>
<g id="a_node36"><a xlink:title=" ">
<polygon fill="none" stroke="#bfbfbf" points="1802.5,-56.5 1802.5,-75.5 1846.5,-75.5 1846.5,-56.5 1802.5,-56.5"/>
<text text-anchor="middle" x="1824.5" y="-63.5" font-family="Helvetica,sans-Serif" font-size="10.00">cmath</text>
</a>
</g>
</g>
<!-- Node35&#45;&gt;Node36 -->
<g id="edge45" class="edge">
<title>Node35&#45;&gt;Node36</title>
<path fill="none" stroke="midnightblue" d="M1711.73,-112.44C1733.88,-103.52 1768.82,-89.44 1793.94,-79.32"/>
<polygon fill="midnightblue" stroke="midnightblue" points="1795.4,-82.5 1803.37,-75.52 1792.78,-76.01 1795.4,-82.5"/>
</g>
<!-- Node37 -->
<g id="node37" class="node">
<title>Node37</title>
<g id="a_node37"><a xlink:title=" ">
<polygon fill="none" stroke="#bfbfbf" points="1606.5,-56.5 1606.5,-75.5 1646.5,-75.5 1646.5,-56.5 1606.5,-56.5"/>
<text text-anchor="middle" x="1626.5" y="-63.5" font-family="Helvetica,sans-Serif" font-size="10.00">limits</text>
</a>
</g>
</g>
<!-- Node35&#45;&gt;Node37 -->
<g id="edge47" class="edge">
<title>Node35&#45;&gt;Node37</title>
<path fill="none" stroke="midnightblue" d="M1680.22,-112.32C1670.66,-104.26 1656.22,-92.08 1644.72,-82.37"/>
<polygon fill="midnightblue" stroke="midnightblue" points="1646.87,-79.61 1636.97,-75.83 1642.36,-84.96 1646.87,-79.61"/>
</g>
<!-- Node38 -->
<g id="node38" class="node">
<title>Node38</title>
<g id="a_node38"><a xlink:title=" ">
<polygon fill="none" stroke="#bfbfbf" points="1664.5,-56.5 1664.5,-75.5 1716.5,-75.5 1716.5,-56.5 1664.5,-56.5"/>
<text text-anchor="middle" x="1690.5" y="-63.5" font-family="Helvetica,sans-Serif" font-size="10.00">ostream</text>
</a>
</g>
</g>
<!-- Node35&#45;&gt;Node38 -->
<g id="edge48" class="edge">
<title>Node35&#45;&gt;Node38</title>
<path fill="none" stroke="midnightblue" d="M1690.5,-112.08C1690.5,-105.01 1690.5,-94.86 1690.5,-85.99"/>
<polygon fill="midnightblue" stroke="midnightblue" points="1694,-85.75 1690.5,-75.75 1687,-85.75 1694,-85.75"/>
</g>
<!-- Node39 -->
<g id="node39" class="node">
<title>Node39</title>
<g id="a_node39"><a xlink:title=" ">
<polygon fill="none" stroke="#bfbfbf" points="1734.5,-56.5 1734.5,-75.5 1784.5,-75.5 1784.5,-56.5 1734.5,-56.5"/>
<text text-anchor="middle" x="1759.5" y="-63.5" font-family="Helvetica,sans-Serif" font-size="10.00">half.hpp</text>
</a>
</g>
</g>
<!-- Node35&#45;&gt;Node39 -->
<g id="edge50" class="edge">
<title>Node35&#45;&gt;Node39</title>
<path fill="none" stroke="midnightblue" d="M1701.59,-112.32C1711.99,-104.18 1727.76,-91.84 1740.22,-82.09"/>
<polygon fill="midnightblue" stroke="midnightblue" points="1742.49,-84.75 1748.21,-75.83 1738.18,-79.24 1742.49,-84.75"/>
</g>
<!-- Node40&#45;&gt;Node34 -->
<g id="edge54" class="edge">
<title>Node40&#45;&gt;Node34</title>
<path fill="none" stroke="midnightblue" d="M1627.4,-168.08C1615.34,-153.63 1589.35,-125.38 1560.5,-112 1464.74,-67.59 1428.12,-91.14 1319.58,-76.07"/>
<polygon fill="midnightblue" stroke="midnightblue" points="1319.95,-72.59 1309.55,-74.6 1318.93,-79.52 1319.95,-72.59"/>
</g>
<!-- Node40&#45;&gt;Node35 -->
<g id="edge55" class="edge">
<title>Node40&#45;&gt;Node35</title>
<path fill="none" stroke="midnightblue" d="M1643.5,-168.32C1651.69,-160.42 1664.01,-148.55 1673.97,-138.94"/>
<polygon fill="midnightblue" stroke="midnightblue" points="1676.57,-141.29 1681.34,-131.83 1671.71,-136.26 1676.57,-141.29"/>
</g>
<!-- Node41 -->
<g id="node41" class="node">
<title>Node41</title>
<g id="a_node41"><a xlink:title=" ">
<polygon fill="none" stroke="#bfbfbf" points="1753.5,-112.5 1753.5,-131.5 1819.5,-131.5 1819.5,-112.5 1753.5,-112.5"/>
<text text-anchor="middle" x="1786.5" y="-119.5" font-family="Helvetica,sans-Serif" font-size="10.00">string_view</text>
</a>
</g>
</g>
<!-- Node40&#45;&gt;Node41 -->
<g id="edge53" class="edge">
<title>Node40&#45;&gt;Node41</title>
<path fill="none" stroke="midnightblue" d="M1658.58,-168.44C1684.04,-159.4 1724.39,-145.06 1752.96,-134.92"/>
<polygon fill="midnightblue" stroke="midnightblue" points="1754.28,-138.16 1762.53,-131.52 1751.93,-131.57 1754.28,-138.16"/>
</g>
<!-- Node42&#45;&gt;Node6 -->
<g id="edge57" class="edge">
<title>Node42&#45;&gt;Node6</title>
<path fill="none" stroke="midnightblue" d="M500.7,-168.32C495.57,-155.18 488.19,-129.86 498.5,-112 523.39,-68.89 548.2,-71.5 595.5,-56 664.66,-33.33 883.21,-18.19 968.72,-12.99"/>
<polygon fill="midnightblue" stroke="midnightblue" points="969.17,-16.47 978.94,-12.38 968.75,-9.49 969.17,-16.47"/>
</g>
<!-- Node42&#45;&gt;Node7 -->
<g id="edge61" class="edge">
<title>Node42&#45;&gt;Node7</title>
<path fill="none" stroke="midnightblue" d="M460.32,-174.26C383.08,-169.07 218.36,-156.25 69.47,-131.95"/>
<polygon fill="midnightblue" stroke="midnightblue" points="69.67,-128.44 59.23,-130.26 68.53,-135.35 69.67,-128.44"/>
</g>
<!-- Node42&#45;&gt;Node8 -->
<g id="edge62" class="edge">
<title>Node42&#45;&gt;Node8</title>
<path fill="none" stroke="midnightblue" d="M460.29,-168.68C406.96,-158.65 317.75,-141.86 263.6,-131.67"/>
<polygon fill="midnightblue" stroke="midnightblue" points="264.06,-128.2 253.58,-129.79 262.76,-135.08 264.06,-128.2"/>
</g>
<!-- Node42&#45;&gt;Node16 -->
<g id="edge66" class="edge">
<title>Node42&#45;&gt;Node16</title>
<path fill="none" stroke="midnightblue" d="M510.44,-168.08C515.48,-160.53 522.84,-149.49 529.01,-140.23"/>
<polygon fill="midnightblue" stroke="midnightblue" points="532.03,-142.01 534.67,-131.75 526.21,-138.13 532.03,-142.01"/>
</g>
<!-- Node42&#45;&gt;Node22 -->
<g id="edge59" class="edge">
<title>Node42&#45;&gt;Node22</title>
<path fill="none" stroke="midnightblue" d="M460.11,-170.21C403.17,-161.04 310.5,-144.44 300.5,-132 287.22,-115.48 306.33,-95.04 323.36,-81.54"/>
<polygon fill="midnightblue" stroke="midnightblue" points="325.5,-84.31 331.41,-75.52 321.3,-78.71 325.5,-84.31"/>
</g>
<!-- Node42&#45;&gt;Node23 -->
<g id="edge60" class="edge">
<title>Node42&#45;&gt;Node23</title>
<path fill="none" stroke="midnightblue" d="M527,-168.44C550.58,-159.48 587.82,-145.31 614.46,-135.18"/>
<polygon fill="midnightblue" stroke="midnightblue" points="616,-138.34 624.1,-131.52 613.51,-131.8 616,-138.34"/>
</g>
<!-- Node42&#45;&gt;Node27 -->
<g id="edge65" class="edge">
<title>Node42&#45;&gt;Node27</title>
<path fill="none" stroke="midnightblue" d="M548.6,-175.76C663.57,-172.18 970.26,-160.18 1067.5,-132 1085.83,-126.69 1087.31,-117.76 1105.5,-112 1220.73,-75.49 1258.28,-96.47 1380.96,-76.1"/>
<polygon fill="midnightblue" stroke="midnightblue" points="1381.85,-79.49 1391.11,-74.35 1380.66,-72.6 1381.85,-79.49"/>
</g>
<!-- Node42&#45;&gt;Node32 -->
<g id="edge64" class="edge">
<title>Node42&#45;&gt;Node32</title>
<path fill="none" stroke="midnightblue" d="M502.51,-168.43C499.91,-154.96 497.04,-128.68 509.5,-112 529.28,-85.52 566.68,-74.62 594.09,-70.14"/>
<polygon fill="midnightblue" stroke="midnightblue" points="594.65,-73.59 604.05,-68.71 593.65,-66.66 594.65,-73.59"/>
</g>
<!-- Node43 -->
<g id="node43" class="node">
<title>Node43</title>
<g id="a_node43"><a xlink:title=" ">
<polygon fill="none" stroke="#bfbfbf" points="310,-112.5 310,-131.5 359,-131.5 359,-112.5 310,-112.5"/>
<text text-anchor="middle" x="334.5" y="-119.5" font-family="Helvetica,sans-Serif" font-size="10.00">cstddef</text>
</a>
</g>
</g>
<!-- Node42&#45;&gt;Node43 -->
<g id="edge58" class="edge">
<title>Node42&#45;&gt;Node43</title>
<path fill="none" stroke="midnightblue" d="M477.56,-168.44C448.16,-159.1 401.01,-144.13 368.94,-133.94"/>
<polygon fill="midnightblue" stroke="midnightblue" points="369.69,-130.51 359.1,-130.82 367.57,-137.18 369.69,-130.51"/>
</g>
<!-- Node44 -->
<g id="node44" class="node">
<title>Node44</title>
<g id="a_node44"><a xlink:title=" ">
<polygon fill="none" stroke="#bfbfbf" points="377,-112.5 377,-131.5 424,-131.5 424,-112.5 377,-112.5"/>
<text text-anchor="middle" x="400.5" y="-119.5" font-family="Helvetica,sans-Serif" font-size="10.00">iterator</text>
</a>
</g>
</g>
<!-- Node42&#45;&gt;Node44 -->
<g id="edge63" class="edge">
<title>Node42&#45;&gt;Node44</title>
<path fill="none" stroke="midnightblue" d="M487.79,-168.32C471.19,-159.7 445.5,-146.36 426.28,-136.39"/>
<polygon fill="midnightblue" stroke="midnightblue" points="427.66,-133.16 417.17,-131.65 424.43,-139.37 427.66,-133.16"/>
</g>
<!-- Node45&#45;&gt;Node6 -->
<g id="edge68" class="edge">
<title>Node45&#45;&gt;Node6</title>
<path fill="none" stroke="midnightblue" d="M140.21,-112.4C174.48,-97.89 247.6,-68.87 312.5,-56 440.28,-30.67 846.89,-15.98 968.69,-12.06"/>
<polygon fill="midnightblue" stroke="midnightblue" points="969.05,-15.56 978.93,-11.74 968.82,-8.56 969.05,-15.56"/>
</g>
<!-- Node45&#45;&gt;Node22 -->
<g id="edge69" class="edge">
<title>Node45&#45;&gt;Node22</title>
<path fill="none" stroke="midnightblue" d="M155.99,-112.44C198.75,-102.14 270.02,-84.96 311.59,-74.93"/>
<polygon fill="midnightblue" stroke="midnightblue" points="312.58,-78.29 321.48,-72.55 310.94,-71.49 312.58,-78.29"/>
</g>
<!-- Node46&#45;&gt;Node21 -->
<g id="edge72" class="edge">
<title>Node46&#45;&gt;Node21</title>
<path fill="none" stroke="midnightblue" d="M1058.56,-114.26C1063.25,-113.48 1067.98,-112.71 1072.5,-112 1178.45,-95.25 1208.67,-98.78 1317.13,-76.07"/>
<polygon fill="midnightblue" stroke="midnightblue" points="1318.11,-79.44 1327.17,-73.94 1316.66,-72.59 1318.11,-79.44"/>
</g>
<!-- Node46&#45;&gt;Node26 -->
<g id="edge73" class="edge">
<title>Node46&#45;&gt;Node26</title>
<path fill="none" stroke="midnightblue" d="M1027.1,-112.08C1033.73,-104.3 1043.52,-92.8 1051.56,-83.37"/>
<polygon fill="midnightblue" stroke="midnightblue" points="1054.23,-85.63 1058.05,-75.75 1048.9,-81.09 1054.23,-85.63"/>
</g>
<!-- Node47&#45;&gt;Node14 -->
<g id="edge77" class="edge">
<title>Node47&#45;&gt;Node14</title>
<path fill="none" stroke="midnightblue" d="M1057.92,-392.46C1055.23,-379.5 1048.94,-354.42 1037.5,-336 1030.54,-324.79 1020.28,-314.25 1011.31,-306.18"/>
<polygon fill="midnightblue" stroke="midnightblue" points="1013.44,-303.4 1003.57,-299.53 1008.87,-308.71 1013.44,-303.4"/>
</g>
<!-- Node48&#45;&gt;Node14 -->
<g id="edge79" class="edge">
<title>Node48&#45;&gt;Node14</title>
<path fill="none" stroke="midnightblue" d="M992.5,-336.08C992.5,-329.01 992.5,-318.86 992.5,-309.99"/>
<polygon fill="midnightblue" stroke="midnightblue" points="996,-309.75 992.5,-299.75 989,-309.75 996,-309.75"/>
</g>
</g>
</svg>
