<?xml version="1.0" encoding="UTF-8" standalone="no"?>
<!DOCTYPE svg PUBLIC "-//W3C//DTD SVG 1.1//EN"
 "http://www.w3.org/Graphics/SVG/1.1/DTD/svg11.dtd">
<!-- Generated by graphviz version 2.43.0 (0)
 -->
<!-- Title: dialects/clos/pass/fp/lower_typed_clos_prep.h Pages: 1 -->
<svg width="1163pt" height="797pt"
 viewBox="0.00 0.00 1163.50 797.00" xmlns="http://www.w3.org/2000/svg" xmlns:xlink="http://www.w3.org/1999/xlink">
<g id="graph0" class="graph" transform="scale(1 1) rotate(0) translate(4 793)">
<title>dialects/clos/pass/fp/lower_typed_clos_prep.h</title>
<!-- Node1 -->
<g id="node1" class="node">
<title>Node1</title>
<g id="a_node1"><a xlink:title=" ">
<polygon fill="#999999" stroke="#666666" points="182,-789 65,-789 65,-748 182,-748 182,-789"/>
<text text-anchor="start" x="73" y="-777" font-family="Helvetica,sans-Serif" font-size="10.00">dialects/clos/pass</text>
<text text-anchor="start" x="73" y="-766" font-family="Helvetica,sans-Serif" font-size="10.00">/fp/lower_typed_clos</text>
<text text-anchor="middle" x="123.5" y="-755" font-family="Helvetica,sans-Serif" font-size="10.00">_prep.h</text>
</a>
</g>
</g>
<!-- Node2 -->
<g id="node2" class="node">
<title>Node2</title>
<g id="a_node2"><a xlink:href="eta__exp_8h.html" target="_top" xlink:title=" ">
<polygon fill="white" stroke="#666666" points="174.5,-657 72.5,-657 72.5,-627 174.5,-627 174.5,-657"/>
<text text-anchor="start" x="80.5" y="-645" font-family="Helvetica,sans-Serif" font-size="10.00">thorin/pass/fp/eta</text>
<text text-anchor="middle" x="123.5" y="-634" font-family="Helvetica,sans-Serif" font-size="10.00">_exp.h</text>
</a>
</g>
</g>
<!-- Node1&#45;&gt;Node2 -->
<g id="edge1" class="edge">
<title>Node1&#45;&gt;Node2</title>
<path fill="none" stroke="#63b8ff" d="M123.5,-747.77C123.5,-725.99 123.5,-690.9 123.5,-667.41"/>
<polygon fill="#63b8ff" stroke="#63b8ff" points="127,-667.21 123.5,-657.21 120,-667.21 127,-667.21"/>
</g>
<!-- Node3 -->
<g id="node3" class="node">
<title>Node3</title>
<g id="a_node3"><a xlink:href="pass_8h.html" target="_top" xlink:title=" ">
<polygon fill="white" stroke="#666666" points="130,-481 25,-481 25,-462 130,-462 130,-481"/>
<text text-anchor="middle" x="77.5" y="-469" font-family="Helvetica,sans-Serif" font-size="10.00">thorin/pass/pass.h</text>
</a>
</g>
</g>
<!-- Node1&#45;&gt;Node3 -->
<g id="edge68" class="edge">
<title>Node1&#45;&gt;Node3</title>
<path fill="none" stroke="#63b8ff" d="M101.07,-747.91C77.71,-725.23 44.5,-685.49 44.5,-643 44.5,-643 44.5,-643 44.5,-580.5 44.5,-547.63 58.65,-511.49 68.42,-490.46"/>
<polygon fill="#63b8ff" stroke="#63b8ff" points="71.7,-491.71 72.91,-481.18 65.4,-488.66 71.7,-491.71"/>
</g>
<!-- Node54 -->
<g id="node44" class="node">
<title>Node54</title>
<g id="a_node44"><a xlink:href="clos_8h.html" target="_top" xlink:title=" ">
<polygon fill="white" stroke="#666666" points="546,-712 437,-712 437,-693 546,-693 546,-712"/>
<text text-anchor="middle" x="491.5" y="-700" font-family="Helvetica,sans-Serif" font-size="10.00">dialects/clos/clos.h</text>
</a>
</g>
</g>
<!-- Node1&#45;&gt;Node54 -->
<g id="edge69" class="edge">
<title>Node1&#45;&gt;Node54</title>
<path fill="none" stroke="#63b8ff" d="M182.21,-757.29C250.73,-745.37 363.4,-725.78 432.18,-713.82"/>
<polygon fill="#63b8ff" stroke="#63b8ff" points="433.16,-717.2 442.41,-712.04 431.96,-710.3 433.16,-717.2"/>
</g>
<!-- Node2&#45;&gt;Node3 -->
<g id="edge2" class="edge">
<title>Node2&#45;&gt;Node3</title>
<path fill="none" stroke="#63b8ff" d="M119.65,-626.92C111.39,-596.65 91.92,-525.35 82.62,-491.27"/>
<polygon fill="#63b8ff" stroke="#63b8ff" points="85.9,-489.98 79.89,-481.25 79.14,-491.82 85.9,-489.98"/>
</g>
<!-- Node4 -->
<g id="node4" class="node">
<title>Node4</title>
<g id="a_node4"><a xlink:title=" ">
<polygon fill="#e0e0e0" stroke="#999999" points="335,-140 292,-140 292,-121 335,-121 335,-140"/>
<text text-anchor="middle" x="313.5" y="-128" font-family="Helvetica,sans-Serif" font-size="10.00">stack</text>
</a>
</g>
</g>
<!-- Node3&#45;&gt;Node4 -->
<g id="edge3" class="edge">
<title>Node3&#45;&gt;Node4</title>
<path fill="none" stroke="#63b8ff" d="M71.66,-461.76C66.25,-453.1 58.6,-439.26 55.5,-426 46.51,-387.53 56.99,-371.98 81.5,-341 152.02,-251.85 222.85,-285.6 291.5,-195 301.52,-181.78 307.19,-163.65 310.26,-150.15"/>
<polygon fill="#63b8ff" stroke="#63b8ff" points="313.74,-150.6 312.26,-140.11 306.87,-149.23 313.74,-150.6"/>
</g>
<!-- Node5 -->
<g id="node5" class="node">
<title>Node5</title>
<g id="a_node5"><a xlink:title=" ">
<polygon fill="#e0e0e0" stroke="#999999" points="130,-426 65,-426 65,-407 130,-407 130,-426"/>
<text text-anchor="middle" x="97.5" y="-414" font-family="Helvetica,sans-Serif" font-size="10.00">typeindex</text>
</a>
</g>
</g>
<!-- Node3&#45;&gt;Node5 -->
<g id="edge4" class="edge">
<title>Node3&#45;&gt;Node5</title>
<path fill="none" stroke="#63b8ff" d="M80.8,-461.75C83.48,-454.65 87.35,-444.4 90.68,-435.56"/>
<polygon fill="#63b8ff" stroke="#63b8ff" points="94,-436.68 94.26,-426.09 87.45,-434.21 94,-436.68"/>
</g>
<!-- Node6 -->
<g id="node6" class="node">
<title>Node6</title>
<g id="a_node6"><a xlink:href="world_8h.html" target="_top" xlink:title=" ">
<polygon fill="white" stroke="#666666" points="624.5,-426 540.5,-426 540.5,-407 624.5,-407 624.5,-426"/>
<text text-anchor="middle" x="582.5" y="-414" font-family="Helvetica,sans-Serif" font-size="10.00">thorin/world.h</text>
</a>
</g>
</g>
<!-- Node3&#45;&gt;Node6 -->
<g id="edge5" class="edge">
<title>Node3&#45;&gt;Node6</title>
<path fill="none" stroke="#63b8ff" d="M130.11,-464.98C227.12,-454.8 433.09,-433.18 530.01,-423.01"/>
<polygon fill="#63b8ff" stroke="#63b8ff" points="530.58,-426.47 540.16,-421.94 529.84,-419.51 530.58,-426.47"/>
</g>
<!-- Node7 -->
<g id="node7" class="node">
<title>Node7</title>
<g id="a_node7"><a xlink:title=" ">
<polygon fill="#e0e0e0" stroke="#999999" points="941.5,-79.5 885.5,-79.5 885.5,-60.5 941.5,-60.5 941.5,-79.5"/>
<text text-anchor="middle" x="913.5" y="-67.5" font-family="Helvetica,sans-Serif" font-size="10.00">sstream</text>
</a>
</g>
</g>
<!-- Node6&#45;&gt;Node7 -->
<g id="edge6" class="edge">
<title>Node6&#45;&gt;Node7</title>
<path fill="none" stroke="#63b8ff" d="M624.63,-415.57C704.58,-414.8 874.15,-408.66 916.5,-371 942.03,-348.29 935.5,-330.67 935.5,-296.5 935.5,-296.5 935.5,-296.5 935.5,-184.5 935.5,-150.5 925.87,-111.81 919.35,-89.51"/>
<polygon fill="#63b8ff" stroke="#63b8ff" points="922.63,-88.27 916.37,-79.72 915.93,-90.3 922.63,-88.27"/>
</g>
<!-- Node8 -->
<g id="node8" class="node">
<title>Node8</title>
<g id="a_node8"><a xlink:title=" ">
<polygon fill="#e0e0e0" stroke="#999999" points="1003.5,-79.5 959.5,-79.5 959.5,-60.5 1003.5,-60.5 1003.5,-79.5"/>
<text text-anchor="middle" x="981.5" y="-67.5" font-family="Helvetica,sans-Serif" font-size="10.00">string</text>
</a>
</g>
</g>
<!-- Node6&#45;&gt;Node8 -->
<g id="edge7" class="edge">
<title>Node6&#45;&gt;Node8</title>
<path fill="none" stroke="#63b8ff" d="M624.64,-415.27C708.04,-414.03 890.28,-407.13 939.5,-371 968.83,-349.46 973.5,-332.9 973.5,-296.5 973.5,-296.5 973.5,-296.5 973.5,-184.5 973.5,-151.03 977,-112.13 979.37,-89.67"/>
<polygon fill="#63b8ff" stroke="#63b8ff" points="982.87,-89.85 980.48,-79.53 975.91,-89.09 982.87,-89.85"/>
</g>
<!-- Node9 -->
<g id="node9" class="node">
<title>Node9</title>
<g id="a_node9"><a xlink:title=" ">
<polygon fill="#e0e0e0" stroke="#999999" points="775,-365.5 702,-365.5 702,-346.5 775,-346.5 775,-365.5"/>
<text text-anchor="middle" x="738.5" y="-353.5" font-family="Helvetica,sans-Serif" font-size="10.00">string_view</text>
</a>
</g>
</g>
<!-- Node6&#45;&gt;Node9 -->
<g id="edge8" class="edge">
<title>Node6&#45;&gt;Node9</title>
<path fill="none" stroke="#63b8ff" d="M605.18,-406.99C631.75,-397.03 675.97,-380.45 706.14,-369.13"/>
<polygon fill="#63b8ff" stroke="#63b8ff" points="707.65,-372.31 715.79,-365.52 705.19,-365.75 707.65,-372.31"/>
</g>
<!-- Node10 -->
<g id="node10" class="node">
<title>Node10</title>
<g id="a_node10"><a xlink:title=" ">
<polygon fill="#e0e0e0" stroke="#999999" points="907.5,-371 793.5,-371 793.5,-341 907.5,-341 907.5,-371"/>
<text text-anchor="start" x="801.5" y="-359" font-family="Helvetica,sans-Serif" font-size="10.00">absl/container/btree</text>
<text text-anchor="middle" x="850.5" y="-348" font-family="Helvetica,sans-Serif" font-size="10.00">_map.h</text>
</a>
</g>
</g>
<!-- Node6&#45;&gt;Node10 -->
<g id="edge9" class="edge">
<title>Node6&#45;&gt;Node10</title>
<path fill="none" stroke="#63b8ff" d="M621.47,-406.99C663.86,-397.74 732.4,-382.78 783.47,-371.63"/>
<polygon fill="#63b8ff" stroke="#63b8ff" points="784.42,-375.01 793.44,-369.45 782.93,-368.17 784.42,-375.01"/>
</g>
<!-- Node11 -->
<g id="node11" class="node">
<title>Node11</title>
<g id="a_node11"><a xlink:title=" ">
<polygon fill="#e0e0e0" stroke="#999999" points="253.5,-371 139.5,-371 139.5,-341 253.5,-341 253.5,-371"/>
<text text-anchor="start" x="147.5" y="-359" font-family="Helvetica,sans-Serif" font-size="10.00">absl/container/btree</text>
<text text-anchor="middle" x="196.5" y="-348" font-family="Helvetica,sans-Serif" font-size="10.00">_set.h</text>
</a>
</g>
</g>
<!-- Node6&#45;&gt;Node11 -->
<g id="edge10" class="edge">
<title>Node6&#45;&gt;Node11</title>
<path fill="none" stroke="#63b8ff" d="M540.35,-410.29C479.82,-402.63 364.84,-387.46 267.5,-371 266.24,-370.79 264.98,-370.57 263.7,-370.35"/>
<polygon fill="#63b8ff" stroke="#63b8ff" points="264.26,-366.89 253.8,-368.58 263.03,-373.78 264.26,-366.89"/>
</g>
<!-- Node12 -->
<g id="node12" class="node">
<title>Node12</title>
<g id="a_node12"><a xlink:href="axiom_8h.html" target="_top" xlink:title=" ">
<polygon fill="white" stroke="#666666" points="1089.5,-365.5 1001.5,-365.5 1001.5,-346.5 1089.5,-346.5 1089.5,-365.5"/>
<text text-anchor="middle" x="1045.5" y="-353.5" font-family="Helvetica,sans-Serif" font-size="10.00">thorin/axiom.h</text>
</a>
</g>
</g>
<!-- Node6&#45;&gt;Node12 -->
<g id="edge11" class="edge">
<title>Node6&#45;&gt;Node12</title>
<path fill="none" stroke="#63b8ff" d="M624.82,-411.54C713.97,-403.09 918.52,-383.06 987.5,-371 992.66,-370.1 998.04,-369 1003.36,-367.83"/>
<polygon fill="#63b8ff" stroke="#63b8ff" points="1004.48,-371.17 1013.44,-365.51 1002.91,-364.35 1004.48,-371.17"/>
</g>
<!-- Node35 -->
<g id="node26" class="node">
<title>Node35</title>
<g id="a_node26"><a xlink:href="hash_8h.html" target="_top" xlink:title=" ">
<polygon fill="white" stroke="#666666" points="586,-140 487,-140 487,-121 586,-121 586,-140"/>
<text text-anchor="middle" x="536.5" y="-128" font-family="Helvetica,sans-Serif" font-size="10.00">thorin/util/hash.h</text>
</a>
</g>
</g>
<!-- Node6&#45;&gt;Node35 -->
<g id="edge64" class="edge">
<title>Node6&#45;&gt;Node35</title>
<path fill="none" stroke="#63b8ff" d="M582.99,-406.98C584.06,-386.23 586.17,-331.4 581.5,-286 576.39,-236.4 575.99,-223.05 559.5,-176 556.22,-166.66 551.32,-156.84 546.88,-148.8"/>
<polygon fill="#63b8ff" stroke="#63b8ff" points="549.86,-146.96 541.83,-140.04 543.79,-150.45 549.86,-146.96"/>
</g>
<!-- Node46 -->
<g id="node36" class="node">
<title>Node46</title>
<g id="a_node36"><a xlink:href="sym_8h.html" target="_top" xlink:title=" ">
<polygon fill="white" stroke="#666666" points="790,-140 693,-140 693,-121 790,-121 790,-140"/>
<text text-anchor="middle" x="741.5" y="-128" font-family="Helvetica,sans-Serif" font-size="10.00">thorin/util/sym.h</text>
</a>
</g>
</g>
<!-- Node6&#45;&gt;Node46 -->
<g id="edge67" class="edge">
<title>Node6&#45;&gt;Node46</title>
<path fill="none" stroke="#63b8ff" d="M594.58,-406.78C624.17,-384.6 700,-322.63 729.5,-250 742.94,-216.91 743.7,-174.52 742.78,-150.45"/>
<polygon fill="#63b8ff" stroke="#63b8ff" points="746.26,-150.03 742.24,-140.23 739.27,-150.4 746.26,-150.03"/>
</g>
<!-- Node47 -->
<g id="node37" class="node">
<title>Node47</title>
<g id="a_node37"><a xlink:href="check_8h.html" target="_top" xlink:title=" ">
<polygon fill="white" stroke="#666666" points="395.5,-365.5 309.5,-365.5 309.5,-346.5 395.5,-346.5 395.5,-365.5"/>
<text text-anchor="middle" x="352.5" y="-353.5" font-family="Helvetica,sans-Serif" font-size="10.00">thorin/check.h</text>
</a>
</g>
</g>
<!-- Node6&#45;&gt;Node47 -->
<g id="edge54" class="edge">
<title>Node6&#45;&gt;Node47</title>
<path fill="none" stroke="#63b8ff" d="M547.66,-406.99C511.74,-398.16 454.14,-383.89 404.5,-371 400.94,-370.08 397.25,-369.11 393.55,-368.13"/>
<polygon fill="#63b8ff" stroke="#63b8ff" points="394.38,-364.73 383.82,-365.53 392.58,-371.49 394.38,-364.73"/>
</g>
<!-- Node49 -->
<g id="node39" class="node">
<title>Node49</title>
<g id="a_node39"><a xlink:href="config_8h.html" target="_top" xlink:title=" ">
<polygon fill="white" stroke="#666666" points="466.5,-305 380.5,-305 380.5,-286 466.5,-286 466.5,-305"/>
<text text-anchor="middle" x="423.5" y="-293" font-family="Helvetica,sans-Serif" font-size="10.00">thorin/config.h</text>
</a>
</g>
</g>
<!-- Node6&#45;&gt;Node49 -->
<g id="edge57" class="edge">
<title>Node6&#45;&gt;Node49</title>
<path fill="none" stroke="#63b8ff" d="M574.66,-406.98C560.94,-392.37 531.3,-362.06 502.5,-341 486.19,-329.07 466.37,-317.92 450.67,-309.76"/>
<polygon fill="#63b8ff" stroke="#63b8ff" points="451.99,-306.51 441.49,-305.09 448.81,-312.74 451.99,-306.51"/>
</g>
<!-- Node50 -->
<g id="node40" class="node">
<title>Node50</title>
<g id="a_node40"><a xlink:href="flags_8h.html" target="_top" xlink:title=" ">
<polygon fill="white" stroke="#666666" points="493.5,-365.5 413.5,-365.5 413.5,-346.5 493.5,-346.5 493.5,-365.5"/>
<text text-anchor="middle" x="453.5" y="-353.5" font-family="Helvetica,sans-Serif" font-size="10.00">thorin/flags.h</text>
</a>
</g>
</g>
<!-- Node6&#45;&gt;Node50 -->
<g id="edge58" class="edge">
<title>Node6&#45;&gt;Node50</title>
<path fill="none" stroke="#63b8ff" d="M563.74,-406.99C542.15,-397.2 506.47,-381.02 481.57,-369.73"/>
<polygon fill="#63b8ff" stroke="#63b8ff" points="482.83,-366.46 472.28,-365.52 479.94,-372.83 482.83,-366.46"/>
</g>
<!-- Node51 -->
<g id="node41" class="node">
<title>Node51</title>
<g id="a_node41"><a xlink:href="lattice_8h.html" target="_top" xlink:title=" ">
<polygon fill="white" stroke="#666666" points="572.5,-305 484.5,-305 484.5,-286 572.5,-286 572.5,-305"/>
<text text-anchor="middle" x="528.5" y="-293" font-family="Helvetica,sans-Serif" font-size="10.00">thorin/lattice.h</text>
</a>
</g>
</g>
<!-- Node6&#45;&gt;Node51 -->
<g id="edge60" class="edge">
<title>Node6&#45;&gt;Node51</title>
<path fill="none" stroke="#63b8ff" d="M578.61,-406.94C569.86,-387.65 548.44,-340.44 536.63,-314.43"/>
<polygon fill="#63b8ff" stroke="#63b8ff" points="539.81,-312.96 532.49,-305.3 533.44,-315.85 539.81,-312.96"/>
</g>
<!-- Node52 -->
<g id="node42" class="node">
<title>Node52</title>
<g id="a_node42"><a xlink:href="tuple_8h.html" target="_top" xlink:title=" ">
<polygon fill="white" stroke="#666666" points="258.5,-305 176.5,-305 176.5,-286 258.5,-286 258.5,-305"/>
<text text-anchor="middle" x="217.5" y="-293" font-family="Helvetica,sans-Serif" font-size="10.00">thorin/tuple.h</text>
</a>
</g>
</g>
<!-- Node6&#45;&gt;Node52 -->
<g id="edge62" class="edge">
<title>Node6&#45;&gt;Node52</title>
<path fill="none" stroke="#63b8ff" d="M540.17,-416.16C483.02,-415.45 379.27,-408.47 300.5,-371 285.36,-363.8 252.73,-332.26 233.2,-312.6"/>
<polygon fill="#63b8ff" stroke="#63b8ff" points="235.46,-309.91 225.95,-305.24 230.47,-314.82 235.46,-309.91"/>
</g>
<!-- Node53 -->
<g id="node43" class="node">
<title>Node53</title>
<g id="a_node43"><a xlink:href="log_8h.html" target="_top" xlink:title=" ">
<polygon fill="white" stroke="#666666" points="720,-250 629,-250 629,-231 720,-231 720,-250"/>
<text text-anchor="middle" x="674.5" y="-238" font-family="Helvetica,sans-Serif" font-size="10.00">thorin/util/log.h</text>
</a>
</g>
</g>
<!-- Node6&#45;&gt;Node53 -->
<g id="edge65" class="edge">
<title>Node6&#45;&gt;Node53</title>
<path fill="none" stroke="#63b8ff" d="M588.61,-406.84C594.72,-398.01 604.23,-383.84 611.5,-371 633.38,-332.35 655.22,-284.99 666.55,-259.61"/>
<polygon fill="#63b8ff" stroke="#63b8ff" points="669.88,-260.74 670.73,-250.17 663.48,-257.9 669.88,-260.74"/>
</g>
<!-- Node13 -->
<g id="node13" class="node">
<title>Node13</title>
<g id="a_node13"><a xlink:href="lam_8h.html" target="_top" xlink:title=" ">
<polygon fill="white" stroke="#666666" points="1080.5,-305 1004.5,-305 1004.5,-286 1080.5,-286 1080.5,-305"/>
<text text-anchor="middle" x="1042.5" y="-293" font-family="Helvetica,sans-Serif" font-size="10.00">thorin/lam.h</text>
</a>
</g>
</g>
<!-- Node12&#45;&gt;Node13 -->
<g id="edge12" class="edge">
<title>Node12&#45;&gt;Node13</title>
<path fill="none" stroke="#63b8ff" d="M1045.05,-346.37C1044.64,-338.25 1044,-325.81 1043.47,-315.39"/>
<polygon fill="#63b8ff" stroke="#63b8ff" points="1046.95,-314.97 1042.94,-305.17 1039.96,-315.33 1046.95,-314.97"/>
</g>
<!-- Node45 -->
<g id="node35" class="node">
<title>Node45</title>
<g id="a_node35"><a xlink:href="assert_8h.html" target="_top" xlink:title=" ">
<polygon fill="white" stroke="#666666" points="1127.5,-79.5 1021.5,-79.5 1021.5,-60.5 1127.5,-60.5 1127.5,-79.5"/>
<text text-anchor="middle" x="1074.5" y="-67.5" font-family="Helvetica,sans-Serif" font-size="10.00">thorin/util/assert.h</text>
</a>
</g>
</g>
<!-- Node12&#45;&gt;Node45 -->
<g id="edge53" class="edge">
<title>Node12&#45;&gt;Node45</title>
<path fill="none" stroke="#63b8ff" d="M1064.16,-346.4C1095.54,-330.51 1155.5,-293.36 1155.5,-241.5 1155.5,-241.5 1155.5,-241.5 1155.5,-184.5 1155.5,-154.33 1148.68,-145.8 1131.5,-121 1121.84,-107.07 1107.48,-94.5 1095.59,-85.45"/>
<polygon fill="#63b8ff" stroke="#63b8ff" points="1097.61,-82.59 1087.47,-79.52 1093.48,-88.25 1097.61,-82.59"/>
</g>
<!-- Node14 -->
<g id="node14" class="node">
<title>Node14</title>
<g id="a_node14"><a xlink:title=" ">
<polygon fill="#e0e0e0" stroke="#999999" points="1068,-250 1017,-250 1017,-231 1068,-231 1068,-250"/>
<text text-anchor="middle" x="1042.5" y="-238" font-family="Helvetica,sans-Serif" font-size="10.00">variant</text>
</a>
</g>
</g>
<!-- Node13&#45;&gt;Node14 -->
<g id="edge13" class="edge">
<title>Node13&#45;&gt;Node14</title>
<path fill="none" stroke="#63b8ff" d="M1042.5,-285.75C1042.5,-278.8 1042.5,-268.85 1042.5,-260.13"/>
<polygon fill="#63b8ff" stroke="#63b8ff" points="1046,-260.09 1042.5,-250.09 1039,-260.09 1046,-260.09"/>
</g>
<!-- Node15 -->
<g id="node15" class="node">
<title>Node15</title>
<g id="a_node15"><a xlink:href="def_8h.html" target="_top" xlink:title=" ">
<polygon fill="white" stroke="#666666" points="488.5,-250 416.5,-250 416.5,-231 488.5,-231 488.5,-250"/>
<text text-anchor="middle" x="452.5" y="-238" font-family="Helvetica,sans-Serif" font-size="10.00">thorin/def.h</text>
</a>
</g>
</g>
<!-- Node13&#45;&gt;Node15 -->
<g id="edge14" class="edge">
<title>Node13&#45;&gt;Node15</title>
<path fill="none" stroke="#63b8ff" d="M1004.24,-291.06C900.11,-281.71 611.88,-255.82 498.84,-245.66"/>
<polygon fill="#63b8ff" stroke="#63b8ff" points="499.05,-242.17 488.77,-244.76 498.42,-249.14 499.05,-242.17"/>
</g>
<!-- Node16 -->
<g id="node16" class="node">
<title>Node16</title>
<g id="a_node16"><a xlink:title=" ">
<polygon fill="#e0e0e0" stroke="#999999" points="534.5,-195 478.5,-195 478.5,-176 534.5,-176 534.5,-195"/>
<text text-anchor="middle" x="506.5" y="-183" font-family="Helvetica,sans-Serif" font-size="10.00">optional</text>
</a>
</g>
</g>
<!-- Node15&#45;&gt;Node16 -->
<g id="edge15" class="edge">
<title>Node15&#45;&gt;Node16</title>
<path fill="none" stroke="#63b8ff" d="M461.41,-230.75C469.28,-223.03 480.93,-211.6 490.42,-202.28"/>
<polygon fill="#63b8ff" stroke="#63b8ff" points="493.06,-204.59 497.75,-195.09 488.16,-199.6 493.06,-204.59"/>
</g>
<!-- Node17 -->
<g id="node17" class="node">
<title>Node17</title>
<g id="a_node17"><a xlink:title=" ">
<polygon fill="#e0e0e0" stroke="#999999" points="178,-140 131,-140 131,-121 178,-121 178,-140"/>
<text text-anchor="middle" x="154.5" y="-128" font-family="Helvetica,sans-Serif" font-size="10.00">vector</text>
</a>
</g>
</g>
<!-- Node15&#45;&gt;Node17 -->
<g id="edge16" class="edge">
<title>Node15&#45;&gt;Node17</title>
<path fill="none" stroke="#63b8ff" d="M416.33,-238.4C349.24,-235.61 209.06,-226.14 173.5,-195 160.93,-183.99 156.5,-165.05 155.03,-150.71"/>
<polygon fill="#63b8ff" stroke="#63b8ff" points="158.5,-150.19 154.38,-140.43 151.52,-150.63 158.5,-150.19"/>
</g>
<!-- Node18 -->
<g id="node18" class="node">
<title>Node18</title>
<g id="a_node18"><a xlink:href="array_8h.html" target="_top" xlink:title=" ">
<polygon fill="#fff0f0" stroke="red" points="282.5,-195 182.5,-195 182.5,-176 282.5,-176 282.5,-195"/>
<text text-anchor="middle" x="232.5" y="-183" font-family="Helvetica,sans-Serif" font-size="10.00">thorin/util/array.h</text>
</a>
</g>
</g>
<!-- Node15&#45;&gt;Node18 -->
<g id="edge17" class="edge">
<title>Node15&#45;&gt;Node18</title>
<path fill="none" stroke="#63b8ff" d="M417.15,-230.98C379.34,-221.87 319.23,-207.4 277.93,-197.45"/>
<polygon fill="#63b8ff" stroke="#63b8ff" points="278.66,-194.02 268.12,-195.08 277.02,-200.83 278.66,-194.02"/>
</g>
<!-- Node28 -->
<g id="node21" class="node">
<title>Node28</title>
<g id="a_node21"><a xlink:href="cast_8h.html" target="_top" xlink:title=" ">
<polygon fill="#fff0f0" stroke="red" points="126.5,-195 30.5,-195 30.5,-176 126.5,-176 126.5,-195"/>
<text text-anchor="middle" x="78.5" y="-183" font-family="Helvetica,sans-Serif" font-size="10.00">thorin/util/cast.h</text>
</a>
</g>
</g>
<!-- Node15&#45;&gt;Node28 -->
<g id="edge21" class="edge">
<title>Node15&#45;&gt;Node28</title>
<path fill="none" stroke="#63b8ff" d="M416.3,-234.37C351.47,-225.18 215.05,-205.85 136.86,-194.77"/>
<polygon fill="#63b8ff" stroke="#63b8ff" points="137.08,-191.27 126.69,-193.33 136.1,-198.2 137.08,-191.27"/>
</g>
<!-- Node29 -->
<g id="node22" class="node">
<title>Node29</title>
<g id="a_node22"><a xlink:href="container_8h.html" target="_top" xlink:title=" ">
<polygon fill="#fff0f0" stroke="red" points="460,-195 339,-195 339,-176 460,-176 460,-195"/>
<text text-anchor="middle" x="399.5" y="-183" font-family="Helvetica,sans-Serif" font-size="10.00">thorin/util/container.h</text>
</a>
</g>
</g>
<!-- Node15&#45;&gt;Node29 -->
<g id="edge23" class="edge">
<title>Node15&#45;&gt;Node29</title>
<path fill="none" stroke="#63b8ff" d="M443.75,-230.75C436.03,-223.03 424.59,-211.6 415.28,-202.28"/>
<polygon fill="#63b8ff" stroke="#63b8ff" points="417.63,-199.69 408.09,-195.09 412.68,-204.64 417.63,-199.69"/>
</g>
<!-- Node15&#45;&gt;Node35 -->
<g id="edge35" class="edge">
<title>Node15&#45;&gt;Node35</title>
<path fill="none" stroke="#63b8ff" d="M488.59,-231.72C508.47,-225.39 531.48,-214.25 543.5,-195 551.93,-181.49 548.7,-163.15 544.24,-149.66"/>
<polygon fill="#63b8ff" stroke="#63b8ff" points="547.41,-148.16 540.59,-140.06 540.87,-150.65 547.41,-148.16"/>
</g>
<!-- Node42 -->
<g id="node32" class="node">
<title>Node42</title>
<g id="a_node32"><a xlink:href="loc_8h.html" target="_top" xlink:title=" ">
<polygon fill="white" stroke="#666666" points="718.5,-195 628.5,-195 628.5,-176 718.5,-176 718.5,-195"/>
<text text-anchor="middle" x="673.5" y="-183" font-family="Helvetica,sans-Serif" font-size="10.00">thorin/util/loc.h</text>
</a>
</g>
</g>
<!-- Node15&#45;&gt;Node42 -->
<g id="edge36" class="edge">
<title>Node15&#45;&gt;Node42</title>
<path fill="none" stroke="#63b8ff" d="M488,-230.98C525.99,-221.87 586.37,-207.4 627.86,-197.45"/>
<polygon fill="#63b8ff" stroke="#63b8ff" points="628.8,-200.82 637.71,-195.08 627.17,-194.01 628.8,-200.82"/>
</g>
<!-- Node43 -->
<g id="node33" class="node">
<title>Node43</title>
<g id="a_node33"><a xlink:href="print_8h.html" target="_top" xlink:title=" ">
<polygon fill="#fff0f0" stroke="red" points="906.5,-140 808.5,-140 808.5,-121 906.5,-121 906.5,-140"/>
<text text-anchor="middle" x="857.5" y="-128" font-family="Helvetica,sans-Serif" font-size="10.00">thorin/util/print.h</text>
</a>
</g>
</g>
<!-- Node15&#45;&gt;Node43 -->
<g id="edge52" class="edge">
<title>Node15&#45;&gt;Node43</title>
<path fill="none" stroke="#63b8ff" d="M488.88,-237.03C542.27,-232.64 644.52,-221.34 727.5,-195 766.77,-182.53 809.09,-159.97 834.43,-145.37"/>
<polygon fill="#63b8ff" stroke="#63b8ff" points="836.4,-148.27 843.27,-140.2 832.87,-142.23 836.4,-148.27"/>
</g>
<!-- Node18&#45;&gt;Node17 -->
<g id="edge20" class="edge">
<title>Node18&#45;&gt;Node17</title>
<path fill="none" stroke="#63b8ff" d="M219.96,-175.98C208.1,-167.92 190.03,-155.65 175.88,-146.03"/>
<polygon fill="#63b8ff" stroke="#63b8ff" points="177.5,-142.9 167.26,-140.17 173.56,-148.69 177.5,-142.9"/>
</g>
<!-- Node19 -->
<g id="node19" class="node">
<title>Node19</title>
<g id="a_node19"><a xlink:title=" ">
<polygon fill="#e0e0e0" stroke="#999999" points="232.5,-19 180.5,-19 180.5,0 232.5,0 232.5,-19"/>
<text text-anchor="middle" x="206.5" y="-7" font-family="Helvetica,sans-Serif" font-size="10.00">cassert</text>
</a>
</g>
</g>
<!-- Node18&#45;&gt;Node19 -->
<g id="edge18" class="edge">
<title>Node18&#45;&gt;Node19</title>
<path fill="none" stroke="#63b8ff" d="M231.17,-175.63C227.12,-148.52 214.84,-66.32 209.28,-29.13"/>
<polygon fill="#63b8ff" stroke="#63b8ff" points="212.73,-28.52 207.79,-19.14 205.8,-29.55 212.73,-28.52"/>
</g>
<!-- Node27 -->
<g id="node20" class="node">
<title>Node27</title>
<g id="a_node20"><a xlink:title=" ">
<polygon fill="#e0e0e0" stroke="#999999" points="329,-19 260,-19 260,0 329,0 329,-19"/>
<text text-anchor="middle" x="294.5" y="-7" font-family="Helvetica,sans-Serif" font-size="10.00">type_traits</text>
</a>
</g>
</g>
<!-- Node18&#45;&gt;Node27 -->
<g id="edge19" class="edge">
<title>Node18&#45;&gt;Node27</title>
<path fill="none" stroke="#63b8ff" d="M233.43,-175.97C235.97,-154.71 244.19,-98.03 263.5,-55 267.92,-45.14 274.61,-35.17 280.65,-27.18"/>
<polygon fill="#63b8ff" stroke="#63b8ff" points="283.57,-29.12 287.02,-19.1 278.08,-24.78 283.57,-29.12"/>
</g>
<!-- Node28&#45;&gt;Node19 -->
<g id="edge22" class="edge">
<title>Node28&#45;&gt;Node19</title>
<path fill="none" stroke="#63b8ff" d="M84.18,-175.76C92.25,-163.41 107.62,-140.21 121.5,-121 145.92,-87.18 175.99,-48.8 193.03,-27.34"/>
<polygon fill="#63b8ff" stroke="#63b8ff" points="195.99,-29.25 199.48,-19.24 190.51,-24.89 195.99,-29.25"/>
</g>
<!-- Node29&#45;&gt;Node4 -->
<g id="edge24" class="edge">
<title>Node29&#45;&gt;Node4</title>
<path fill="none" stroke="#63b8ff" d="M385.68,-175.98C372.34,-167.77 351.92,-155.18 336.19,-145.49"/>
<polygon fill="#63b8ff" stroke="#63b8ff" points="337.92,-142.44 327.57,-140.17 334.24,-148.4 337.92,-142.44"/>
</g>
<!-- Node31 -->
<g id="node23" class="node">
<title>Node31</title>
<g id="a_node23"><a xlink:title=" ">
<polygon fill="#e0e0e0" stroke="#999999" points="376.5,-85 272.5,-85 272.5,-55 376.5,-55 376.5,-85"/>
<text text-anchor="start" x="280.5" y="-73" font-family="Helvetica,sans-Serif" font-size="10.00">absl/container/flat</text>
<text text-anchor="middle" x="324.5" y="-62" font-family="Helvetica,sans-Serif" font-size="10.00">_hash_map.h</text>
</a>
</g>
</g>
<!-- Node29&#45;&gt;Node31 -->
<g id="edge25" class="edge">
<title>Node29&#45;&gt;Node31</title>
<path fill="none" stroke="#63b8ff" d="M393.86,-175.97C382.45,-158.7 356.29,-119.12 339.56,-93.8"/>
<polygon fill="#63b8ff" stroke="#63b8ff" points="342.3,-91.59 333.87,-85.18 336.46,-95.45 342.3,-91.59"/>
</g>
<!-- Node32 -->
<g id="node24" class="node">
<title>Node32</title>
<g id="a_node24"><a xlink:title=" ">
<polygon fill="#e0e0e0" stroke="#999999" points="751.5,-85 647.5,-85 647.5,-55 751.5,-55 751.5,-85"/>
<text text-anchor="start" x="655.5" y="-73" font-family="Helvetica,sans-Serif" font-size="10.00">absl/container/flat</text>
<text text-anchor="middle" x="699.5" y="-62" font-family="Helvetica,sans-Serif" font-size="10.00">_hash_set.h</text>
</a>
</g>
</g>
<!-- Node29&#45;&gt;Node32 -->
<g id="edge26" class="edge">
<title>Node29&#45;&gt;Node32</title>
<path fill="none" stroke="#63b8ff" d="M407.81,-175.59C421.28,-161.71 449.33,-135.06 478.5,-121 541.33,-90.71 565.34,-100.22 637.27,-85.18"/>
<polygon fill="#63b8ff" stroke="#63b8ff" points="638.23,-88.56 647.26,-83.01 636.74,-81.72 638.23,-88.56"/>
</g>
<!-- Node34 -->
<g id="node25" class="node">
<title>Node34</title>
<g id="a_node25"><a xlink:title=" ">
<polygon fill="#e0e0e0" stroke="#999999" points="629,-85 516,-85 516,-55 629,-55 629,-85"/>
<text text-anchor="start" x="524" y="-73" font-family="Helvetica,sans-Serif" font-size="10.00">absl/container/node</text>
<text text-anchor="middle" x="572.5" y="-62" font-family="Helvetica,sans-Serif" font-size="10.00">_hash_set.h</text>
</a>
</g>
</g>
<!-- Node29&#45;&gt;Node34 -->
<g id="edge27" class="edge">
<title>Node29&#45;&gt;Node34</title>
<path fill="none" stroke="#63b8ff" d="M401.17,-175.82C404.24,-162.25 412,-136.01 428.5,-121 440.83,-109.78 475.89,-97.5 508.33,-87.91"/>
<polygon fill="#63b8ff" stroke="#63b8ff" points="509.65,-91.17 518.28,-85.03 507.7,-84.45 509.65,-91.17"/>
</g>
<!-- Node29&#45;&gt;Node35 -->
<g id="edge28" class="edge">
<title>Node29&#45;&gt;Node35</title>
<path fill="none" stroke="#63b8ff" d="M421.51,-175.98C443.94,-167.3 478.98,-153.75 504.48,-143.88"/>
<polygon fill="#63b8ff" stroke="#63b8ff" points="506.02,-147.04 514.08,-140.17 503.5,-140.51 506.02,-147.04"/>
</g>
<!-- Node36 -->
<g id="node27" class="node">
<title>Node36</title>
<g id="a_node27"><a xlink:href="types_8h.html" target="_top" xlink:title=" ">
<polygon fill="#fff0f0" stroke="red" points="498,-79.5 395,-79.5 395,-60.5 498,-60.5 498,-79.5"/>
<text text-anchor="middle" x="446.5" y="-67.5" font-family="Helvetica,sans-Serif" font-size="10.00">thorin/util/types.h</text>
</a>
</g>
</g>
<!-- Node35&#45;&gt;Node36 -->
<g id="edge29" class="edge">
<title>Node35&#45;&gt;Node36</title>
<path fill="none" stroke="#63b8ff" d="M523.22,-120.87C508.86,-111.54 485.74,-96.51 468.63,-85.38"/>
<polygon fill="#63b8ff" stroke="#63b8ff" points="470.12,-82.18 459.83,-79.67 466.31,-88.05 470.12,-82.18"/>
</g>
<!-- Node36&#45;&gt;Node27 -->
<g id="edge33" class="edge">
<title>Node36&#45;&gt;Node27</title>
<path fill="none" stroke="#63b8ff" d="M424.39,-60.49C398.5,-50.53 355.42,-33.95 326.02,-22.63"/>
<polygon fill="#63b8ff" stroke="#63b8ff" points="327.22,-19.34 316.63,-19.02 324.7,-25.88 327.22,-19.34"/>
</g>
<!-- Node37 -->
<g id="node28" class="node">
<title>Node37</title>
<g id="a_node28"><a xlink:title=" ">
<polygon fill="#e0e0e0" stroke="#999999" points="406.5,-19 356.5,-19 356.5,0 406.5,0 406.5,-19"/>
<text text-anchor="middle" x="381.5" y="-7" font-family="Helvetica,sans-Serif" font-size="10.00">cstdint</text>
</a>
</g>
</g>
<!-- Node36&#45;&gt;Node37 -->
<g id="edge30" class="edge">
<title>Node36&#45;&gt;Node37</title>
<path fill="none" stroke="#63b8ff" d="M436.91,-60.37C426.92,-51.38 411.07,-37.11 398.87,-26.14"/>
<polygon fill="#63b8ff" stroke="#63b8ff" points="400.9,-23.26 391.13,-19.17 396.22,-28.46 400.9,-23.26"/>
</g>
<!-- Node38 -->
<g id="node29" class="node">
<title>Node38</title>
<g id="a_node29"><a xlink:title=" ">
<polygon fill="#e0e0e0" stroke="#999999" points="468.5,-19 424.5,-19 424.5,0 468.5,0 468.5,-19"/>
<text text-anchor="middle" x="446.5" y="-7" font-family="Helvetica,sans-Serif" font-size="10.00">limits</text>
</a>
</g>
</g>
<!-- Node36&#45;&gt;Node38 -->
<g id="edge31" class="edge">
<title>Node36&#45;&gt;Node38</title>
<path fill="none" stroke="#63b8ff" d="M446.5,-60.37C446.5,-52.25 446.5,-39.81 446.5,-29.39"/>
<polygon fill="#63b8ff" stroke="#63b8ff" points="450,-29.17 446.5,-19.17 443,-29.17 450,-29.17"/>
</g>
<!-- Node39 -->
<g id="node30" class="node">
<title>Node39</title>
<g id="a_node30"><a xlink:title=" ">
<polygon fill="#e0e0e0" stroke="#999999" points="747,-19 690,-19 690,0 747,0 747,-19"/>
<text text-anchor="middle" x="718.5" y="-7" font-family="Helvetica,sans-Serif" font-size="10.00">ostream</text>
</a>
</g>
</g>
<!-- Node36&#45;&gt;Node39 -->
<g id="edge32" class="edge">
<title>Node36&#45;&gt;Node39</title>
<path fill="none" stroke="#63b8ff" d="M483.25,-60.45C491.23,-58.63 499.64,-56.73 507.5,-55 567.62,-41.76 637.56,-27.17 679.9,-18.42"/>
<polygon fill="#63b8ff" stroke="#63b8ff" points="680.71,-21.83 689.79,-16.39 679.29,-14.98 680.71,-21.83"/>
</g>
<!-- Node40 -->
<g id="node31" class="node">
<title>Node40</title>
<g id="a_node31"><a xlink:title=" ">
<polygon fill="#e0e0e0" stroke="#999999" points="534,-19 487,-19 487,0 534,0 534,-19"/>
<text text-anchor="middle" x="510.5" y="-7" font-family="Helvetica,sans-Serif" font-size="10.00">cmath</text>
</a>
</g>
</g>
<!-- Node36&#45;&gt;Node40 -->
<g id="edge34" class="edge">
<title>Node36&#45;&gt;Node40</title>
<path fill="none" stroke="#63b8ff" d="M455.94,-60.37C465.77,-51.38 481.38,-37.11 493.39,-26.14"/>
<polygon fill="#63b8ff" stroke="#63b8ff" points="495.99,-28.5 501.01,-19.17 491.27,-23.33 495.99,-28.5"/>
</g>
<!-- Node42&#45;&gt;Node31 -->
<g id="edge37" class="edge">
<title>Node42&#45;&gt;Node31</title>
<path fill="none" stroke="#63b8ff" d="M665.82,-175.87C652.84,-161.87 625.07,-134.44 595.5,-121 512.15,-83.12 480.46,-102.22 386.59,-85.08"/>
<polygon fill="#63b8ff" stroke="#63b8ff" points="387.18,-81.63 376.7,-83.18 385.86,-88.5 387.18,-81.63"/>
</g>
<!-- Node42&#45;&gt;Node32 -->
<g id="edge38" class="edge">
<title>Node42&#45;&gt;Node32</title>
<path fill="none" stroke="#63b8ff" d="M674.67,-175.81C676.39,-163.51 679.93,-140.38 684.5,-121 686.51,-112.44 689.16,-103.19 691.66,-94.99"/>
<polygon fill="#63b8ff" stroke="#63b8ff" points="695.04,-95.91 694.7,-85.32 688.37,-93.81 695.04,-95.91"/>
</g>
<!-- Node42&#45;&gt;Node43 -->
<g id="edge39" class="edge">
<title>Node42&#45;&gt;Node43</title>
<path fill="none" stroke="#63b8ff" d="M703.06,-175.98C734.22,-167.01 783.47,-152.82 817.95,-142.89"/>
<polygon fill="#63b8ff" stroke="#63b8ff" points="819.06,-146.21 827.7,-140.08 817.12,-139.49 819.06,-146.21"/>
</g>
<!-- Node42&#45;&gt;Node46 -->
<g id="edge46" class="edge">
<title>Node42&#45;&gt;Node46</title>
<path fill="none" stroke="#63b8ff" d="M684.42,-175.98C694.57,-168.07 709.92,-156.11 722.14,-146.58"/>
<polygon fill="#63b8ff" stroke="#63b8ff" points="724.64,-149.08 730.37,-140.17 720.33,-143.56 724.64,-149.08"/>
</g>
<!-- Node43&#45;&gt;Node7 -->
<g id="edge42" class="edge">
<title>Node43&#45;&gt;Node7</title>
<path fill="none" stroke="#63b8ff" d="M865.76,-120.87C874.28,-111.97 887.76,-97.89 898.23,-86.95"/>
<polygon fill="#63b8ff" stroke="#63b8ff" points="900.81,-89.31 905.2,-79.67 895.76,-84.47 900.81,-89.31"/>
</g>
<!-- Node43&#45;&gt;Node8 -->
<g id="edge43" class="edge">
<title>Node43&#45;&gt;Node8</title>
<path fill="none" stroke="#63b8ff" d="M875.53,-120.99C896.19,-111.25 930.28,-95.16 954.2,-83.88"/>
<polygon fill="#63b8ff" stroke="#63b8ff" points="955.89,-86.95 963.44,-79.52 952.91,-80.62 955.89,-86.95"/>
</g>
<!-- Node43&#45;&gt;Node39 -->
<g id="edge41" class="edge">
<title>Node43&#45;&gt;Node39</title>
<path fill="none" stroke="#63b8ff" d="M857.74,-120.96C857.71,-105.76 855.46,-73.85 838.5,-55 817.7,-31.89 783.79,-20.75 757.31,-15.39"/>
<polygon fill="#63b8ff" stroke="#63b8ff" points="757.67,-11.9 747.21,-13.56 756.42,-18.79 757.67,-11.9"/>
</g>
<!-- Node44 -->
<g id="node34" class="node">
<title>Node44</title>
<g id="a_node34"><a xlink:title=" ">
<polygon fill="#e0e0e0" stroke="#999999" points="829.5,-79.5 769.5,-79.5 769.5,-60.5 829.5,-60.5 829.5,-79.5"/>
<text text-anchor="middle" x="799.5" y="-67.5" font-family="Helvetica,sans-Serif" font-size="10.00">iostream</text>
</a>
</g>
</g>
<!-- Node43&#45;&gt;Node44 -->
<g id="edge40" class="edge">
<title>Node43&#45;&gt;Node44</title>
<path fill="none" stroke="#63b8ff" d="M848.94,-120.87C840.11,-111.97 826.15,-97.89 815.31,-86.95"/>
<polygon fill="#63b8ff" stroke="#63b8ff" points="817.62,-84.3 808.09,-79.67 812.65,-89.23 817.62,-84.3"/>
</g>
<!-- Node43&#45;&gt;Node45 -->
<g id="edge44" class="edge">
<title>Node43&#45;&gt;Node45</title>
<path fill="none" stroke="#63b8ff" d="M889.05,-120.99C927.06,-110.75 991.02,-93.5 1033,-82.19"/>
<polygon fill="#63b8ff" stroke="#63b8ff" points="1034.16,-85.5 1042.91,-79.52 1032.34,-78.74 1034.16,-85.5"/>
</g>
<!-- Node45&#45;&gt;Node19 -->
<g id="edge45" class="edge">
<title>Node45&#45;&gt;Node19</title>
<path fill="none" stroke="#63b8ff" d="M1041.55,-60.44C1032.22,-58.32 1022.01,-56.29 1012.5,-55 676.52,-9.49 587.14,-59.26 250.5,-19 248,-18.7 245.42,-18.34 242.84,-17.94"/>
<polygon fill="#63b8ff" stroke="#63b8ff" points="243.37,-14.48 232.92,-16.24 242.19,-21.38 243.37,-14.48"/>
</g>
<!-- Node46&#45;&gt;Node8 -->
<g id="edge48" class="edge">
<title>Node46&#45;&gt;Node8</title>
<path fill="none" stroke="#63b8ff" d="M790,-122.21C832.86,-115.05 896.74,-102.63 950.5,-85 951.93,-84.53 953.4,-84.01 954.86,-83.46"/>
<polygon fill="#63b8ff" stroke="#63b8ff" points="956.48,-86.58 964.38,-79.52 953.8,-80.11 956.48,-86.58"/>
</g>
<!-- Node46&#45;&gt;Node31 -->
<g id="edge49" class="edge">
<title>Node46&#45;&gt;Node31</title>
<path fill="none" stroke="#63b8ff" d="M692.9,-125C626.09,-118.47 501.96,-105.09 386.72,-85.1"/>
<polygon fill="#63b8ff" stroke="#63b8ff" points="387.12,-81.62 376.67,-83.34 385.91,-88.52 387.12,-81.62"/>
</g>
<!-- Node46&#45;&gt;Node32 -->
<g id="edge50" class="edge">
<title>Node46&#45;&gt;Node32</title>
<path fill="none" stroke="#63b8ff" d="M735.3,-120.87C730.13,-113.67 722.52,-103.07 715.65,-93.49"/>
<polygon fill="#63b8ff" stroke="#63b8ff" points="718.31,-91.2 709.63,-85.11 712.62,-95.28 718.31,-91.2"/>
</g>
<!-- Node46&#45;&gt;Node34 -->
<g id="edge51" class="edge">
<title>Node46&#45;&gt;Node34</title>
<path fill="none" stroke="#63b8ff" d="M716.92,-120.99C692.39,-112.5 653.97,-99.2 622.92,-88.45"/>
<polygon fill="#63b8ff" stroke="#63b8ff" points="623.72,-85.03 613.13,-85.06 621.43,-91.64 623.72,-85.03"/>
</g>
<!-- Node46&#45;&gt;Node44 -->
<g id="edge47" class="edge">
<title>Node46&#45;&gt;Node44</title>
<path fill="none" stroke="#63b8ff" d="M750.06,-120.87C758.88,-111.97 772.84,-97.89 783.68,-86.95"/>
<polygon fill="#63b8ff" stroke="#63b8ff" points="786.35,-89.23 790.9,-79.67 781.38,-84.3 786.35,-89.23"/>
</g>
<!-- Node47&#45;&gt;Node15 -->
<g id="edge56" class="edge">
<title>Node47&#45;&gt;Node15</title>
<path fill="none" stroke="#63b8ff" d="M352.77,-346.41C353.63,-332.34 357.17,-304.14 371.5,-286 382.86,-271.61 400.22,-261.2 415.96,-254.08"/>
<polygon fill="#63b8ff" stroke="#63b8ff" points="417.62,-257.18 425.48,-250.07 414.91,-250.73 417.62,-257.18"/>
</g>
<!-- Node48 -->
<g id="node38" class="node">
<title>Node48</title>
<g id="a_node38"><a xlink:title=" ">
<polygon fill="#e0e0e0" stroke="#999999" points="324,-305 277,-305 277,-286 324,-286 324,-305"/>
<text text-anchor="middle" x="300.5" y="-293" font-family="Helvetica,sans-Serif" font-size="10.00">deque</text>
</a>
</g>
</g>
<!-- Node47&#45;&gt;Node48 -->
<g id="edge55" class="edge">
<title>Node47&#45;&gt;Node48</title>
<path fill="none" stroke="#63b8ff" d="M344.82,-346.37C336.99,-337.55 324.64,-323.66 314.96,-312.77"/>
<polygon fill="#63b8ff" stroke="#63b8ff" points="317.46,-310.32 308.2,-305.17 312.23,-314.97 317.46,-310.32"/>
</g>
<!-- Node50&#45;&gt;Node49 -->
<g id="edge59" class="edge">
<title>Node50&#45;&gt;Node49</title>
<path fill="none" stroke="#63b8ff" d="M449.07,-346.37C444.73,-337.9 437.98,-324.74 432.51,-314.07"/>
<polygon fill="#63b8ff" stroke="#63b8ff" points="435.62,-312.47 427.94,-305.17 429.39,-315.66 435.62,-312.47"/>
</g>
<!-- Node51&#45;&gt;Node15 -->
<g id="edge61" class="edge">
<title>Node51&#45;&gt;Node15</title>
<path fill="none" stroke="#63b8ff" d="M516.29,-285.98C504.72,-277.92 487.12,-265.65 473.34,-256.03"/>
<polygon fill="#63b8ff" stroke="#63b8ff" points="475.13,-253.02 464.93,-250.17 471.13,-258.76 475.13,-253.02"/>
</g>
<!-- Node52&#45;&gt;Node15 -->
<g id="edge63" class="edge">
<title>Node52&#45;&gt;Node15</title>
<path fill="none" stroke="#63b8ff" d="M255.25,-285.98C296.42,-276.7 362.31,-261.84 406.47,-251.88"/>
<polygon fill="#63b8ff" stroke="#63b8ff" points="407.39,-255.26 416.38,-249.65 405.85,-248.43 407.39,-255.26"/>
</g>
<!-- Node53&#45;&gt;Node42 -->
<g id="edge66" class="edge">
<title>Node53&#45;&gt;Node42</title>
<path fill="none" stroke="#63b8ff" d="M674.33,-230.75C674.2,-223.8 674.01,-213.85 673.85,-205.13"/>
<polygon fill="#63b8ff" stroke="#63b8ff" points="677.35,-205.02 673.66,-195.09 670.35,-205.15 677.35,-205.02"/>
</g>
<!-- Node54&#45;&gt;Node6 -->
<g id="edge70" class="edge">
<title>Node54&#45;&gt;Node6</title>
<path fill="none" stroke="#63b8ff" d="M523.85,-692.97C570.08,-678.59 649.5,-644.83 649.5,-582.5 649.5,-582.5 649.5,-582.5 649.5,-525.5 649.5,-496.04 646.07,-487.01 630.5,-462 623.43,-450.66 612.74,-440.35 603.23,-432.52"/>
<polygon fill="#63b8ff" stroke="#63b8ff" points="605.34,-429.72 595.31,-426.31 601.02,-435.23 605.34,-429.72"/>
</g>
<!-- Node55 -->
<g id="node45" class="node">
<title>Node55</title>
<g id="a_node45"><a xlink:href="clos_2autogen_8h.html" target="_top" xlink:title=" ">
<polygon fill="white" stroke="#666666" points="556,-651.5 427,-651.5 427,-632.5 556,-632.5 556,-651.5"/>
<text text-anchor="middle" x="491.5" y="-639.5" font-family="Helvetica,sans-Serif" font-size="10.00">dialects/clos/autogen.h</text>
</a>
</g>
</g>
<!-- Node54&#45;&gt;Node55 -->
<g id="edge71" class="edge">
<title>Node54&#45;&gt;Node55</title>
<path fill="none" stroke="#63b8ff" d="M491.5,-692.87C491.5,-684.75 491.5,-672.31 491.5,-661.89"/>
<polygon fill="#63b8ff" stroke="#63b8ff" points="495,-661.67 491.5,-651.67 488,-661.67 495,-661.67"/>
</g>
<!-- Node55&#45;&gt;Node12 -->
<g id="edge72" class="edge">
<title>Node55&#45;&gt;Node12</title>
<path fill="none" stroke="#63b8ff" d="M508.38,-632.35C587.71,-591.68 923.61,-419.48 1019.71,-370.22"/>
<polygon fill="#63b8ff" stroke="#63b8ff" points="1021.44,-373.26 1028.75,-365.59 1018.25,-367.03 1021.44,-373.26"/>
</g>
<!-- Node56 -->
<g id="node46" class="node">
<title>Node56</title>
<g id="a_node46"><a xlink:href="dialects_8h.html" target="_top" xlink:title=" ">
<polygon fill="white" stroke="#666666" points="474,-591 379,-591 379,-572 474,-572 474,-591"/>
<text text-anchor="middle" x="426.5" y="-579" font-family="Helvetica,sans-Serif" font-size="10.00">thorin/dialects.h</text>
</a>
</g>
</g>
<!-- Node55&#45;&gt;Node56 -->
<g id="edge73" class="edge">
<title>Node55&#45;&gt;Node56</title>
<path fill="none" stroke="#63b8ff" d="M481.91,-632.37C471.92,-623.38 456.07,-609.11 443.87,-598.14"/>
<polygon fill="#63b8ff" stroke="#63b8ff" points="445.9,-595.26 436.13,-591.17 441.22,-600.46 445.9,-595.26"/>
</g>
<!-- Node56&#45;&gt;Node3 -->
<g id="edge80" class="edge">
<title>Node56&#45;&gt;Node3</title>
<path fill="none" stroke="#63b8ff" d="M378.77,-581.42C320.52,-580.7 220.42,-573.39 144.5,-536 122.14,-524.99 102.23,-503.93 90.03,-489.09"/>
<polygon fill="#63b8ff" stroke="#63b8ff" points="92.74,-486.86 83.79,-481.19 87.25,-491.21 92.74,-486.86"/>
</g>
<!-- Node56&#45;&gt;Node8 -->
<g id="edge76" class="edge">
<title>Node56&#45;&gt;Node8</title>
<path fill="none" stroke="#63b8ff" d="M474.26,-578.08C630.68,-569.54 1117.5,-537.73 1117.5,-472.5 1117.5,-472.5 1117.5,-472.5 1117.5,-184.5 1117.5,-155.6 1044.2,-107.96 1005.23,-84.68"/>
<polygon fill="#63b8ff" stroke="#63b8ff" points="1006.96,-81.64 996.57,-79.57 1003.4,-87.66 1006.96,-81.64"/>
</g>
<!-- Node56&#45;&gt;Node17 -->
<g id="edge77" class="edge">
<title>Node56&#45;&gt;Node17</title>
<path fill="none" stroke="#63b8ff" d="M378.83,-577.82C315.06,-573.28 206.62,-561.9 177.5,-536 132.75,-496.19 174.77,-454.66 138.5,-407 120.35,-383.16 100.06,-394.52 81.5,-371 25.33,-299.81 -31.48,-249.59 21.5,-176 43.99,-144.75 89.44,-135.13 120.9,-132.34"/>
<polygon fill="#63b8ff" stroke="#63b8ff" points="121.25,-135.82 130.98,-131.63 120.76,-128.84 121.25,-135.82"/>
</g>
<!-- Node56&#45;&gt;Node31 -->
<g id="edge84" class="edge">
<title>Node56&#45;&gt;Node31</title>
<path fill="none" stroke="#63b8ff" d="M457.73,-571.95C489.3,-561.67 531.11,-542.56 513.5,-517 410.14,-366.99 270.97,-486.99 130.5,-371 59.55,-312.42 46.68,-283.49 21.5,-195 -7.4,-93.46 165.13,-73.99 262.01,-70.95"/>
<polygon fill="#63b8ff" stroke="#63b8ff" points="262.38,-74.44 272.29,-70.68 262.2,-67.44 262.38,-74.44"/>
</g>
<!-- Node57 -->
<g id="node47" class="node">
<title>Node57</title>
<g id="a_node47"><a xlink:title=" ">
<polygon fill="#e0e0e0" stroke="#999999" points="254.5,-536 186.5,-536 186.5,-517 254.5,-517 254.5,-536"/>
<text text-anchor="middle" x="220.5" y="-524" font-family="Helvetica,sans-Serif" font-size="10.00">filesystem</text>
</a>
</g>
</g>
<!-- Node56&#45;&gt;Node57 -->
<g id="edge74" class="edge">
<title>Node56&#45;&gt;Node57</title>
<path fill="none" stroke="#63b8ff" d="M393.4,-571.98C358.22,-562.93 302.43,-548.58 263.78,-538.64"/>
<polygon fill="#63b8ff" stroke="#63b8ff" points="264.41,-535.18 253.85,-536.08 262.67,-541.96 264.41,-535.18"/>
</g>
<!-- Node58 -->
<g id="node48" class="node">
<title>Node58</title>
<g id="a_node48"><a xlink:title=" ">
<polygon fill="#e0e0e0" stroke="#999999" points="330.5,-536 272.5,-536 272.5,-517 330.5,-517 330.5,-536"/>
<text text-anchor="middle" x="301.5" y="-524" font-family="Helvetica,sans-Serif" font-size="10.00">memory</text>
</a>
</g>
</g>
<!-- Node56&#45;&gt;Node58 -->
<g id="edge75" class="edge">
<title>Node56&#45;&gt;Node58</title>
<path fill="none" stroke="#63b8ff" d="M406.41,-571.98C386.12,-563.38 354.54,-549.99 331.33,-540.15"/>
<polygon fill="#63b8ff" stroke="#63b8ff" points="332.52,-536.85 321.95,-536.17 329.79,-543.3 332.52,-536.85"/>
</g>
<!-- Node59 -->
<g id="node49" class="node">
<title>Node59</title>
<g id="a_node49"><a xlink:href="emitter_8h.html" target="_top" xlink:title=" ">
<polygon fill="#fff0f0" stroke="red" points="621,-481 514,-481 514,-462 621,-462 621,-481"/>
<text text-anchor="middle" x="567.5" y="-469" font-family="Helvetica,sans-Serif" font-size="10.00">thorin/be/emitter.h</text>
</a>
</g>
</g>
<!-- Node56&#45;&gt;Node59 -->
<g id="edge78" class="edge">
<title>Node56&#45;&gt;Node59</title>
<path fill="none" stroke="#63b8ff" d="M474.05,-573.02C498.61,-566.89 527.37,-555.83 546.5,-536 558.2,-523.87 563.39,-505.07 565.68,-491.07"/>
<polygon fill="#63b8ff" stroke="#63b8ff" points="569.16,-491.46 566.97,-481.09 562.22,-490.56 569.16,-491.46"/>
</g>
<!-- Node67 -->
<g id="node50" class="node">
<title>Node67</title>
<g id="a_node50"><a xlink:href="pipelinebuilder_8h.html" target="_top" xlink:title=" ">
<polygon fill="#fff0f0" stroke="red" points="504,-536 349,-536 349,-517 504,-517 504,-536"/>
<text text-anchor="middle" x="426.5" y="-524" font-family="Helvetica,sans-Serif" font-size="10.00">thorin/pass/pipelinebuilder.h</text>
</a>
</g>
</g>
<!-- Node56&#45;&gt;Node67 -->
<g id="edge81" class="edge">
<title>Node56&#45;&gt;Node67</title>
<path fill="none" stroke="#63b8ff" d="M426.5,-571.75C426.5,-564.8 426.5,-554.85 426.5,-546.13"/>
<polygon fill="#63b8ff" stroke="#63b8ff" points="430,-546.09 426.5,-536.09 423,-546.09 430,-546.09"/>
</g>
<!-- Node59&#45;&gt;Node6 -->
<g id="edge79" class="edge">
<title>Node59&#45;&gt;Node6</title>
<path fill="none" stroke="#63b8ff" d="M569.97,-461.75C571.96,-454.72 574.82,-444.62 577.3,-435.84"/>
<polygon fill="#63b8ff" stroke="#63b8ff" points="580.71,-436.66 580.07,-426.09 573.98,-434.76 580.71,-436.66"/>
</g>
<!-- Node67&#45;&gt;Node3 -->
<g id="edge83" class="edge">
<title>Node67&#45;&gt;Node3</title>
<path fill="none" stroke="#63b8ff" d="M370.42,-516.98C307.51,-507.43 205.7,-491.97 140.19,-482.02"/>
<polygon fill="#63b8ff" stroke="#63b8ff" points="140.42,-478.52 130.01,-480.47 139.37,-485.44 140.42,-478.52"/>
</g>
<!-- Node67&#45;&gt;Node6 -->
<g id="edge82" class="edge">
<title>Node67&#45;&gt;Node6</title>
<path fill="none" stroke="#63b8ff" d="M436.34,-516.77C450.92,-504.02 479.36,-479.9 505.5,-462 522.16,-450.58 541.91,-439.21 557.23,-430.82"/>
<polygon fill="#63b8ff" stroke="#63b8ff" points="559,-433.85 566.13,-426.01 555.67,-427.69 559,-433.85"/>
</g>
</g>
</svg>
