<?xml version="1.0" encoding="UTF-8" standalone="no"?>
<!DOCTYPE svg PUBLIC "-//W3C//DTD SVG 1.1//EN"
 "http://www.w3.org/Graphics/SVG/1.1/DTD/svg11.dtd">
<!-- Generated by graphviz version 2.50.0 (20220203.2022)
 -->
<!-- Title: thorin/transform/mangle.cpp Pages: 1 -->
<svg width="2015pt" height="532pt"
 viewBox="0.00 0.00 2014.50 532.00" xmlns="http://www.w3.org/2000/svg" xmlns:xlink="http://www.w3.org/1999/xlink">
<g id="graph0" class="graph" transform="scale(1 1) rotate(0) translate(4 528)">
<title>thorin/transform/mangle.cpp</title>
<!-- Node1 -->
<g id="node1" class="node">
<title>Node1</title>
<g id="a_node1"><a xlink:title=" ">
<polygon fill="#bfbfbf" stroke="black" points="581.5,-504.5 581.5,-523.5 718.5,-523.5 718.5,-504.5 581.5,-504.5"/>
<text text-anchor="middle" x="650" y="-511.5" font-family="Helvetica,sans-Serif" font-size="10.00">thorin/transform/mangle.cpp</text>
</a>
</g>
</g>
<!-- Node2 -->
<g id="node2" class="node">
<title>Node2</title>
<g id="a_node2"><a xlink:href="mangle_8h.html" target="_top" xlink:title=" ">
<polygon fill="none" stroke="black" points="467.5,-392.5 467.5,-411.5 594.5,-411.5 594.5,-392.5 467.5,-392.5"/>
<text text-anchor="middle" x="531" y="-399.5" font-family="Helvetica,sans-Serif" font-size="10.00">thorin/transform/mangle.h</text>
</a>
</g>
</g>
<!-- Node1&#45;&gt;Node2 -->
<g id="edge1" class="edge">
<title>Node1&#45;&gt;Node2</title>
<path fill="none" stroke="midnightblue" d="M640.66,-504.37C620.59,-485.81 573.1,-441.91 547.7,-418.44"/>
<polygon fill="midnightblue" stroke="midnightblue" points="550.01,-415.81 540.29,-411.59 545.26,-420.95 550.01,-415.81"/>
</g>
<!-- Node43 -->
<g id="node43" class="node">
<title>Node43</title>
<g id="a_node43"><a xlink:href="scope_8h.html" target="_top" xlink:title=" ">
<polygon fill="none" stroke="black" points="355.5,-336.5 355.5,-355.5 474.5,-355.5 474.5,-336.5 355.5,-336.5"/>
<text text-anchor="middle" x="415" y="-343.5" font-family="Helvetica,sans-Serif" font-size="10.00">thorin/analyses/scope.h</text>
</a>
</g>
</g>
<!-- Node1&#45;&gt;Node43 -->
<g id="edge83" class="edge">
<title>Node1&#45;&gt;Node43</title>
<path fill="none" stroke="midnightblue" d="M624.86,-504.44C585.68,-490.15 509.26,-458.36 458,-412 443.14,-398.56 431.09,-378.92 423.56,-364.75"/>
<polygon fill="midnightblue" stroke="midnightblue" points="426.55,-362.91 418.91,-355.57 420.31,-366.07 426.55,-362.91"/>
</g>
<!-- Node44 -->
<g id="node44" class="node">
<title>Node44</title>
<g id="a_node44"><a xlink:href="world_8h.html" target="_top" xlink:title=" ">
<polygon fill="none" stroke="black" points="653,-448.5 653,-467.5 727,-467.5 727,-448.5 653,-448.5"/>
<text text-anchor="middle" x="690" y="-455.5" font-family="Helvetica,sans-Serif" font-size="10.00">thorin/world.h</text>
</a>
</g>
</g>
<!-- Node1&#45;&gt;Node44 -->
<g id="edge69" class="edge">
<title>Node1&#45;&gt;Node44</title>
<path fill="none" stroke="midnightblue" d="M656.61,-504.08C662.26,-496.46 670.54,-485.26 677.45,-475.94"/>
<polygon fill="midnightblue" stroke="midnightblue" points="680.38,-477.87 683.52,-467.75 674.75,-473.7 680.38,-477.87"/>
</g>
<!-- Node48 -->
<g id="node48" class="node">
<title>Node48</title>
<g id="a_node48"><a xlink:href="container_8h.html" target="_top" xlink:title=" ">
<polygon fill="none" stroke="black" points="1871.5,-448.5 1871.5,-467.5 1978.5,-467.5 1978.5,-448.5 1871.5,-448.5"/>
<text text-anchor="middle" x="1925" y="-455.5" font-family="Helvetica,sans-Serif" font-size="10.00">thorin/util/container.h</text>
</a>
</g>
</g>
<!-- Node1&#45;&gt;Node48 -->
<g id="edge84" class="edge">
<title>Node1&#45;&gt;Node48</title>
<path fill="none" stroke="midnightblue" d="M718.55,-510.1C941.58,-500.65 1644.62,-470.87 1860.99,-461.71"/>
<polygon fill="midnightblue" stroke="midnightblue" points="1861.38,-465.2 1871.23,-461.28 1861.09,-458.2 1861.38,-465.2"/>
</g>
<!-- Node3 -->
<g id="node3" class="node">
<title>Node3</title>
<g id="a_node3"><a xlink:href="lam_8h.html" target="_top" xlink:title=" ">
<polygon fill="none" stroke="black" points="651.5,-336.5 651.5,-355.5 718.5,-355.5 718.5,-336.5 651.5,-336.5"/>
<text text-anchor="middle" x="685" y="-343.5" font-family="Helvetica,sans-Serif" font-size="10.00">thorin/lam.h</text>
</a>
</g>
</g>
<!-- Node2&#45;&gt;Node3 -->
<g id="edge2" class="edge">
<title>Node2&#45;&gt;Node3</title>
<path fill="none" stroke="midnightblue" d="M555.4,-392.44C581.2,-383.4 622.08,-369.06 651.02,-358.92"/>
<polygon fill="midnightblue" stroke="midnightblue" points="652.43,-362.13 660.71,-355.52 650.12,-355.52 652.43,-362.13"/>
</g>
<!-- Node2&#45;&gt;Node43 -->
<g id="edge66" class="edge">
<title>Node2&#45;&gt;Node43</title>
<path fill="none" stroke="midnightblue" d="M512.62,-392.44C493.78,-383.68 464.27,-369.94 442.62,-359.86"/>
<polygon fill="midnightblue" stroke="midnightblue" points="443.84,-356.56 433.29,-355.52 440.88,-362.91 443.84,-356.56"/>
</g>
<!-- Node4 -->
<g id="node4" class="node">
<title>Node4</title>
<g id="a_node4"><a xlink:title=" ">
<polygon fill="none" stroke="#bfbfbf" points="656,-280.5 656,-299.5 702,-299.5 702,-280.5 656,-280.5"/>
<text text-anchor="middle" x="679" y="-287.5" font-family="Helvetica,sans-Serif" font-size="10.00">variant</text>
</a>
</g>
</g>
<!-- Node3&#45;&gt;Node4 -->
<g id="edge3" class="edge">
<title>Node3&#45;&gt;Node4</title>
<path fill="none" stroke="midnightblue" d="M684.01,-336.08C683.21,-328.93 682.07,-318.64 681.08,-309.69"/>
<polygon fill="midnightblue" stroke="midnightblue" points="684.56,-309.3 679.97,-299.75 677.6,-310.08 684.56,-309.3"/>
</g>
<!-- Node5 -->
<g id="node5" class="node">
<title>Node5</title>
<g id="a_node5"><a xlink:href="def_8h.html" target="_top" xlink:title=" ">
<polygon fill="none" stroke="black" points="720.5,-280.5 720.5,-299.5 785.5,-299.5 785.5,-280.5 720.5,-280.5"/>
<text text-anchor="middle" x="753" y="-287.5" font-family="Helvetica,sans-Serif" font-size="10.00">thorin/def.h</text>
</a>
</g>
</g>
<!-- Node3&#45;&gt;Node5 -->
<g id="edge4" class="edge">
<title>Node3&#45;&gt;Node5</title>
<path fill="none" stroke="midnightblue" d="M695.93,-336.32C706.17,-328.18 721.72,-315.84 734,-306.09"/>
<polygon fill="midnightblue" stroke="midnightblue" points="736.22,-308.79 741.88,-299.83 731.87,-303.31 736.22,-308.79"/>
</g>
<!-- Node6 -->
<g id="node6" class="node">
<title>Node6</title>
<g id="a_node6"><a xlink:title=" ">
<polygon fill="none" stroke="#bfbfbf" points="200,-112.5 200,-131.5 250,-131.5 250,-112.5 200,-112.5"/>
<text text-anchor="middle" x="225" y="-119.5" font-family="Helvetica,sans-Serif" font-size="10.00">optional</text>
</a>
</g>
</g>
<!-- Node5&#45;&gt;Node6 -->
<g id="edge5" class="edge">
<title>Node5&#45;&gt;Node6</title>
<path fill="none" stroke="midnightblue" d="M720.48,-281.8C717.29,-281.16 714.08,-280.55 711,-280 599.62,-260.14 566.76,-278.47 459,-244 375.75,-217.37 286.39,-163.07 246.43,-137.25"/>
<polygon fill="midnightblue" stroke="midnightblue" points="248.31,-134.29 238.02,-131.76 244.48,-140.16 248.31,-134.29"/>
</g>
<!-- Node7 -->
<g id="node7" class="node">
<title>Node7</title>
<g id="a_node7"><a xlink:title=" ">
<polygon fill="none" stroke="#bfbfbf" points="1247,-112.5 1247,-131.5 1291,-131.5 1291,-112.5 1247,-112.5"/>
<text text-anchor="middle" x="1269" y="-119.5" font-family="Helvetica,sans-Serif" font-size="10.00">vector</text>
</a>
</g>
</g>
<!-- Node5&#45;&gt;Node7 -->
<g id="edge6" class="edge">
<title>Node5&#45;&gt;Node7</title>
<path fill="none" stroke="midnightblue" d="M779.66,-280.42C866.87,-252.37 1143.49,-163.38 1237.43,-133.16"/>
<polygon fill="midnightblue" stroke="midnightblue" points="1238.51,-136.49 1246.95,-130.09 1236.36,-129.82 1238.51,-136.49"/>
</g>
<!-- Node8 -->
<g id="node8" class="node">
<title>Node8</title>
<g id="a_node8"><a xlink:href="debug_8h.html" target="_top" xlink:title=" ">
<polygon fill="none" stroke="black" points="517.5,-224.5 517.5,-243.5 594.5,-243.5 594.5,-224.5 517.5,-224.5"/>
<text text-anchor="middle" x="556" y="-231.5" font-family="Helvetica,sans-Serif" font-size="10.00">thorin/debug.h</text>
</a>
</g>
</g>
<!-- Node5&#45;&gt;Node8 -->
<g id="edge7" class="edge">
<title>Node5&#45;&gt;Node8</title>
<path fill="none" stroke="midnightblue" d="M721.78,-280.44C688.07,-271.2 634.2,-256.44 597.07,-246.26"/>
<polygon fill="midnightblue" stroke="midnightblue" points="597.64,-242.78 587.07,-243.52 595.79,-249.54 597.64,-242.78"/>
</g>
<!-- Node11 -->
<g id="node11" class="node">
<title>Node11</title>
<g id="a_node11"><a xlink:href="hash_8h.html" target="_top" xlink:title=" ">
<polygon fill="none" stroke="black" points="614,-168.5 614,-187.5 702,-187.5 702,-168.5 614,-168.5"/>
<text text-anchor="middle" x="658" y="-175.5" font-family="Helvetica,sans-Serif" font-size="10.00">thorin/util/hash.h</text>
</a>
</g>
</g>
<!-- Node5&#45;&gt;Node11 -->
<g id="edge61" class="edge">
<title>Node5&#45;&gt;Node11</title>
<path fill="none" stroke="midnightblue" d="M745.55,-280.37C729.73,-262.05 692.59,-219.05 672.13,-195.36"/>
<polygon fill="midnightblue" stroke="midnightblue" points="674.6,-192.87 665.42,-187.59 669.31,-197.45 674.6,-192.87"/>
</g>
<!-- Node24 -->
<g id="node24" class="node">
<title>Node24</title>
<g id="a_node24"><a xlink:href="stream_8h.html" target="_top" xlink:title=" ">
<polygon fill="none" stroke="black" points="440.5,-112.5 440.5,-131.5 537.5,-131.5 537.5,-112.5 440.5,-112.5"/>
<text text-anchor="middle" x="489" y="-119.5" font-family="Helvetica,sans-Serif" font-size="10.00">thorin/util/stream.h</text>
</a>
</g>
</g>
<!-- Node5&#45;&gt;Node24 -->
<g id="edge65" class="edge">
<title>Node5&#45;&gt;Node24</title>
<path fill="none" stroke="midnightblue" d="M720.46,-281.91C717.27,-281.25 714.07,-280.6 711,-280 666.04,-271.2 540.07,-276.71 508,-244 481.3,-216.76 482.69,-168.29 485.91,-141.71"/>
<polygon fill="midnightblue" stroke="midnightblue" points="489.38,-142.18 487.33,-131.79 482.45,-141.19 489.38,-142.18"/>
</g>
<!-- Node34 -->
<g id="node34" class="node">
<title>Node34</title>
<g id="a_node34"><a xlink:href="tables_8h.html" target="_top" xlink:title=" ">
<polygon fill="none" stroke="black" points="858.5,-168.5 858.5,-187.5 935.5,-187.5 935.5,-168.5 858.5,-168.5"/>
<text text-anchor="middle" x="897" y="-175.5" font-family="Helvetica,sans-Serif" font-size="10.00">thorin/tables.h</text>
</a>
</g>
</g>
<!-- Node5&#45;&gt;Node34 -->
<g id="edge43" class="edge">
<title>Node5&#45;&gt;Node34</title>
<path fill="none" stroke="midnightblue" d="M764.3,-280.37C788.8,-261.65 847.06,-217.15 877.58,-193.83"/>
<polygon fill="midnightblue" stroke="midnightblue" points="879.93,-196.44 885.75,-187.59 875.68,-190.88 879.93,-196.44"/>
</g>
<!-- Node36 -->
<g id="node36" class="node">
<title>Node36</title>
<g id="a_node36"><a xlink:href="array_8h.html" target="_top" xlink:title=" ">
<polygon fill="none" stroke="black" points="1391,-168.5 1391,-187.5 1479,-187.5 1479,-168.5 1391,-168.5"/>
<text text-anchor="middle" x="1435" y="-175.5" font-family="Helvetica,sans-Serif" font-size="10.00">thorin/util/array.h</text>
</a>
</g>
</g>
<!-- Node5&#45;&gt;Node36 -->
<g id="edge47" class="edge">
<title>Node5&#45;&gt;Node36</title>
<path fill="none" stroke="midnightblue" d="M785.52,-286.27C851.88,-280.47 1007.57,-265.65 1137,-244 1227.9,-228.8 1332.95,-204.22 1390.88,-190.04"/>
<polygon fill="midnightblue" stroke="midnightblue" points="1391.92,-193.39 1400.8,-187.61 1390.25,-186.6 1391.92,-193.39"/>
</g>
<!-- Node41 -->
<g id="node41" class="node">
<title>Node41</title>
<g id="a_node41"><a xlink:href="cast_8h.html" target="_top" xlink:title=" ">
<polygon fill="none" stroke="black" points="1634,-112.5 1634,-131.5 1720,-131.5 1720,-112.5 1634,-112.5"/>
<text text-anchor="middle" x="1677" y="-119.5" font-family="Helvetica,sans-Serif" font-size="10.00">thorin/util/cast.h</text>
</a>
</g>
</g>
<!-- Node5&#45;&gt;Node41 -->
<g id="edge58" class="edge">
<title>Node5&#45;&gt;Node41</title>
<path fill="none" stroke="midnightblue" d="M785.82,-287.42C890.16,-281.79 1223.01,-259.05 1488,-188 1544.37,-172.89 1608.25,-149.58 1645.44,-135.36"/>
<polygon fill="midnightblue" stroke="midnightblue" points="1647.12,-138.47 1655.19,-131.61 1644.6,-131.93 1647.12,-138.47"/>
</g>
<!-- Node42 -->
<g id="node42" class="node">
<title>Node42</title>
<g id="a_node42"><a xlink:href="ptr_8h.html" target="_top" xlink:title=" ">
<polygon fill="none" stroke="black" points="344,-112.5 344,-131.5 422,-131.5 422,-112.5 344,-112.5"/>
<text text-anchor="middle" x="383" y="-119.5" font-family="Helvetica,sans-Serif" font-size="10.00">thorin/util/ptr.h</text>
</a>
</g>
</g>
<!-- Node5&#45;&gt;Node42 -->
<g id="edge62" class="edge">
<title>Node5&#45;&gt;Node42</title>
<path fill="none" stroke="midnightblue" d="M720.47,-281.87C717.28,-281.21 714.08,-280.58 711,-280 613.64,-261.61 577.85,-291.69 491,-244 445.5,-219.01 409.52,-167.26 392.95,-140.25"/>
<polygon fill="midnightblue" stroke="midnightblue" points="395.87,-138.31 387.74,-131.52 389.86,-141.9 395.87,-138.31"/>
</g>
<!-- Node9 -->
<g id="node9" class="node">
<title>Node9</title>
<g id="a_node9"><a xlink:title=" ">
<polygon fill="none" stroke="#bfbfbf" points="151.5,-56.5 151.5,-75.5 192.5,-75.5 192.5,-56.5 151.5,-56.5"/>
<text text-anchor="middle" x="172" y="-63.5" font-family="Helvetica,sans-Serif" font-size="10.00">string</text>
</a>
</g>
</g>
<!-- Node8&#45;&gt;Node9 -->
<g id="edge8" class="edge">
<title>Node8&#45;&gt;Node9</title>
<path fill="none" stroke="midnightblue" d="M517.27,-233.85C443.36,-233.28 281.49,-221.19 191,-132 178.84,-120.02 174.36,-100.72 172.76,-86.26"/>
<polygon fill="midnightblue" stroke="midnightblue" points="176.23,-85.65 172.01,-75.93 169.25,-86.16 176.23,-85.65"/>
</g>
<!-- Node10 -->
<g id="node10" class="node">
<title>Node10</title>
<g id="a_node10"><a xlink:title=" ">
<polygon fill="none" stroke="#bfbfbf" points="555,-168.5 555,-187.5 593,-187.5 593,-168.5 555,-168.5"/>
<text text-anchor="middle" x="574" y="-175.5" font-family="Helvetica,sans-Serif" font-size="10.00">tuple</text>
</a>
</g>
</g>
<!-- Node8&#45;&gt;Node10 -->
<g id="edge9" class="edge">
<title>Node8&#45;&gt;Node10</title>
<path fill="none" stroke="midnightblue" d="M558.97,-224.08C561.38,-216.85 564.86,-206.41 567.87,-197.4"/>
<polygon fill="midnightblue" stroke="midnightblue" points="571.24,-198.34 571.08,-187.75 564.6,-196.13 571.24,-198.34"/>
</g>
<!-- Node8&#45;&gt;Node11 -->
<g id="edge10" class="edge">
<title>Node8&#45;&gt;Node11</title>
<path fill="none" stroke="midnightblue" d="M572.39,-224.32C588.67,-215.7 613.87,-202.36 632.72,-192.39"/>
<polygon fill="midnightblue" stroke="midnightblue" points="634.45,-195.43 641.65,-187.65 631.18,-189.24 634.45,-195.43"/>
</g>
<!-- Node8&#45;&gt;Node24 -->
<g id="edge42" class="edge">
<title>Node8&#45;&gt;Node24</title>
<path fill="none" stroke="midnightblue" d="M550.74,-224.37C539.73,-206.3 514.08,-164.18 499.54,-140.31"/>
<polygon fill="midnightblue" stroke="midnightblue" points="502.42,-138.31 494.23,-131.59 496.45,-141.95 502.42,-138.31"/>
</g>
<!-- Node11&#45;&gt;Node6 -->
<g id="edge20" class="edge">
<title>Node11&#45;&gt;Node6</title>
<path fill="none" stroke="midnightblue" d="M613.71,-169.66C609.75,-169.07 605.81,-168.51 602,-168 452.26,-148.01 412.98,-157.03 264,-132 262.73,-131.79 261.44,-131.56 260.13,-131.31"/>
<polygon fill="midnightblue" stroke="midnightblue" points="260.58,-127.83 250.09,-129.26 259.18,-134.69 260.58,-127.83"/>
</g>
<!-- Node12 -->
<g id="node12" class="node">
<title>Node12</title>
<g id="a_node12"><a xlink:title=" ">
<polygon fill="none" stroke="#bfbfbf" points="1233.5,-0.5 1233.5,-19.5 1282.5,-19.5 1282.5,-0.5 1233.5,-0.5"/>
<text text-anchor="middle" x="1258" y="-7.5" font-family="Helvetica,sans-Serif" font-size="10.00">cassert</text>
</a>
</g>
</g>
<!-- Node11&#45;&gt;Node12 -->
<g id="edge11" class="edge">
<title>Node11&#45;&gt;Node12</title>
<path fill="none" stroke="midnightblue" d="M702.02,-174.23C737.11,-169.96 785.73,-159.16 819,-132 848.41,-107.99 826.76,-77.57 858,-56 916.86,-15.36 1137.36,-10.94 1223.35,-10.8"/>
<polygon fill="midnightblue" stroke="midnightblue" points="1223.39,-14.3 1233.39,-10.8 1223.39,-7.3 1223.39,-14.3"/>
</g>
<!-- Node13 -->
<g id="node13" class="node">
<title>Node13</title>
<g id="a_node13"><a xlink:title=" ">
<polygon fill="none" stroke="#bfbfbf" points="594,-112.5 594,-131.5 650,-131.5 650,-112.5 594,-112.5"/>
<text text-anchor="middle" x="622" y="-119.5" font-family="Helvetica,sans-Serif" font-size="10.00">cinttypes</text>
</a>
</g>
</g>
<!-- Node11&#45;&gt;Node13 -->
<g id="edge12" class="edge">
<title>Node11&#45;&gt;Node13</title>
<path fill="none" stroke="midnightblue" d="M652.06,-168.08C647.02,-160.53 639.66,-149.49 633.49,-140.23"/>
<polygon fill="midnightblue" stroke="midnightblue" points="636.29,-138.13 627.83,-131.75 630.47,-142.01 636.29,-138.13"/>
</g>
<!-- Node14 -->
<g id="node14" class="node">
<title>Node14</title>
<g id="a_node14"><a xlink:title=" ">
<polygon fill="none" stroke="#bfbfbf" points="603,-56.5 603,-75.5 649,-75.5 649,-56.5 603,-56.5"/>
<text text-anchor="middle" x="626" y="-63.5" font-family="Helvetica,sans-Serif" font-size="10.00">cstdint</text>
</a>
</g>
</g>
<!-- Node11&#45;&gt;Node14 -->
<g id="edge13" class="edge">
<title>Node11&#45;&gt;Node14</title>
<path fill="none" stroke="midnightblue" d="M631.79,-168.41C615.15,-161.44 594.94,-149.81 585,-132 575.23,-114.5 591.04,-95.16 605.77,-82.17"/>
<polygon fill="midnightblue" stroke="midnightblue" points="608.19,-84.71 613.68,-75.65 603.73,-79.31 608.19,-84.71"/>
</g>
<!-- Node15 -->
<g id="node15" class="node">
<title>Node15</title>
<g id="a_node15"><a xlink:title=" ">
<polygon fill="none" stroke="#bfbfbf" points="1360,-56.5 1360,-75.5 1406,-75.5 1406,-56.5 1360,-56.5"/>
<text text-anchor="middle" x="1383" y="-63.5" font-family="Helvetica,sans-Serif" font-size="10.00">cstring</text>
</a>
</g>
</g>
<!-- Node11&#45;&gt;Node15 -->
<g id="edge14" class="edge">
<title>Node11&#45;&gt;Node15</title>
<path fill="none" stroke="midnightblue" d="M702.24,-176.71C774.46,-175.15 921.48,-167.43 1040,-132 1059.04,-126.31 1061.04,-117.98 1080,-112 1174.82,-82.09 1292.74,-71.87 1349.46,-68.53"/>
<polygon fill="midnightblue" stroke="midnightblue" points="1349.84,-72.01 1359.64,-67.96 1349.46,-65.02 1349.84,-72.01"/>
</g>
<!-- Node16 -->
<g id="node16" class="node">
<title>Node16</title>
<g id="a_node16"><a xlink:title=" ">
<polygon fill="none" stroke="#bfbfbf" points="1089,-112.5 1089,-131.5 1145,-131.5 1145,-112.5 1089,-112.5"/>
<text text-anchor="middle" x="1117" y="-119.5" font-family="Helvetica,sans-Serif" font-size="10.00">algorithm</text>
</a>
</g>
</g>
<!-- Node11&#45;&gt;Node16 -->
<g id="edge15" class="edge">
<title>Node11&#45;&gt;Node16</title>
<path fill="none" stroke="midnightblue" d="M702.03,-173.76C778.3,-167.8 939.84,-153.71 1075,-132 1076.24,-131.8 1077.5,-131.59 1078.78,-131.37"/>
<polygon fill="midnightblue" stroke="midnightblue" points="1079.44,-134.8 1088.61,-129.5 1078.13,-127.93 1079.44,-134.8"/>
</g>
<!-- Node17 -->
<g id="node17" class="node">
<title>Node17</title>
<g id="a_node17"><a xlink:title=" ">
<polygon fill="none" stroke="#bfbfbf" points="668,-112.5 668,-131.5 706,-131.5 706,-112.5 668,-112.5"/>
<text text-anchor="middle" x="687" y="-119.5" font-family="Helvetica,sans-Serif" font-size="10.00">array</text>
</a>
</g>
</g>
<!-- Node11&#45;&gt;Node17 -->
<g id="edge16" class="edge">
<title>Node11&#45;&gt;Node17</title>
<path fill="none" stroke="midnightblue" d="M662.79,-168.08C666.76,-160.69 672.53,-149.95 677.43,-140.81"/>
<polygon fill="midnightblue" stroke="midnightblue" points="680.65,-142.22 682.3,-131.75 674.49,-138.91 680.65,-142.22"/>
</g>
<!-- Node18 -->
<g id="node18" class="node">
<title>Node18</title>
<g id="a_node18"><a xlink:title=" ">
<polygon fill="none" stroke="#bfbfbf" points="724.5,-112.5 724.5,-131.5 753.5,-131.5 753.5,-112.5 724.5,-112.5"/>
<text text-anchor="middle" x="739" y="-119.5" font-family="Helvetica,sans-Serif" font-size="10.00">bit</text>
</a>
</g>
</g>
<!-- Node11&#45;&gt;Node18 -->
<g id="edge17" class="edge">
<title>Node11&#45;&gt;Node18</title>
<path fill="none" stroke="midnightblue" d="M671.01,-168.32C683.53,-159.98 702.68,-147.21 717.47,-137.35"/>
<polygon fill="midnightblue" stroke="midnightblue" points="719.64,-140.11 726.02,-131.65 715.76,-134.29 719.64,-140.11"/>
</g>
<!-- Node19 -->
<g id="node19" class="node">
<title>Node19</title>
<g id="a_node19"><a xlink:title=" ">
<polygon fill="none" stroke="#bfbfbf" points="251,-56.5 251,-75.5 305,-75.5 305,-56.5 251,-56.5"/>
<text text-anchor="middle" x="278" y="-63.5" font-family="Helvetica,sans-Serif" font-size="10.00">iostream</text>
</a>
</g>
</g>
<!-- Node11&#45;&gt;Node19 -->
<g id="edge18" class="edge">
<title>Node11&#45;&gt;Node19</title>
<path fill="none" stroke="midnightblue" d="M614,-169.8C609.94,-169.18 605.9,-168.57 602,-168 480.02,-150.22 433.51,-194.05 327,-132 308.37,-121.15 294.54,-100.14 286.41,-84.94"/>
<polygon fill="midnightblue" stroke="midnightblue" points="289.51,-83.32 281.89,-75.95 283.26,-86.46 289.51,-83.32"/>
</g>
<!-- Node20 -->
<g id="node20" class="node">
<title>Node20</title>
<g id="a_node20"><a xlink:title=" ">
<polygon fill="none" stroke="#bfbfbf" points="357.5,-56.5 357.5,-75.5 408.5,-75.5 408.5,-56.5 357.5,-56.5"/>
<text text-anchor="middle" x="383" y="-63.5" font-family="Helvetica,sans-Serif" font-size="10.00">memory</text>
</a>
</g>
</g>
<!-- Node11&#45;&gt;Node20 -->
<g id="edge19" class="edge">
<title>Node11&#45;&gt;Node20</title>
<path fill="none" stroke="midnightblue" d="M614,-169.82C609.94,-169.19 605.9,-168.58 602,-168 542.77,-159.25 374.4,-177.07 335,-132 320.51,-115.42 341.83,-94.74 360.5,-81.21"/>
<polygon fill="midnightblue" stroke="midnightblue" points="362.49,-84.09 368.75,-75.55 358.53,-78.32 362.49,-84.09"/>
</g>
<!-- Node21 -->
<g id="node21" class="node">
<title>Node21</title>
<g id="a_node21"><a xlink:title=" ">
<polygon fill="none" stroke="#bfbfbf" points="1189,-56.5 1189,-75.5 1251,-75.5 1251,-56.5 1189,-56.5"/>
<text text-anchor="middle" x="1220" y="-63.5" font-family="Helvetica,sans-Serif" font-size="10.00">type_traits</text>
</a>
</g>
</g>
<!-- Node11&#45;&gt;Node21 -->
<g id="edge21" class="edge">
<title>Node11&#45;&gt;Node21</title>
<path fill="none" stroke="midnightblue" d="M702.03,-175.57C768.62,-172.45 898.41,-162.63 1004,-132 1024.24,-126.13 1027.16,-119.13 1047,-112 1071.06,-103.35 1135.83,-87.19 1178.93,-76.77"/>
<polygon fill="midnightblue" stroke="midnightblue" points="1179.94,-80.13 1188.85,-74.39 1178.3,-73.33 1179.94,-80.13"/>
</g>
<!-- Node22 -->
<g id="node22" class="node">
<title>Node22</title>
<g id="a_node22"><a xlink:title=" ">
<polygon fill="none" stroke="#bfbfbf" points="771.5,-112.5 771.5,-131.5 810.5,-131.5 810.5,-112.5 771.5,-112.5"/>
<text text-anchor="middle" x="791" y="-119.5" font-family="Helvetica,sans-Serif" font-size="10.00">utility</text>
</a>
</g>
</g>
<!-- Node11&#45;&gt;Node22 -->
<g id="edge22" class="edge">
<title>Node11&#45;&gt;Node22</title>
<path fill="none" stroke="midnightblue" d="M679.07,-168.44C701.45,-159.36 736.96,-144.94 761.97,-134.78"/>
<polygon fill="midnightblue" stroke="midnightblue" points="763.38,-137.99 771.33,-130.99 760.74,-131.51 763.38,-137.99"/>
</g>
<!-- Node23 -->
<g id="node23" class="node">
<title>Node23</title>
<g id="a_node23"><a xlink:title=" ">
<polygon fill="none" stroke="#bfbfbf" points="66.5,-112.5 66.5,-131.5 143.5,-131.5 143.5,-112.5 66.5,-112.5"/>
<text text-anchor="middle" x="105" y="-119.5" font-family="Helvetica,sans-Serif" font-size="10.00">thorin/config.h</text>
</a>
</g>
</g>
<!-- Node11&#45;&gt;Node23 -->
<g id="edge23" class="edge">
<title>Node11&#45;&gt;Node23</title>
<path fill="none" stroke="midnightblue" d="M613.72,-169.58C609.76,-169.01 605.81,-168.47 602,-168 420.03,-145.44 373.52,-149.54 191,-132 178.86,-130.83 165.76,-129.5 153.54,-128.22"/>
<polygon fill="midnightblue" stroke="midnightblue" points="153.83,-124.74 143.52,-127.17 153.09,-131.7 153.83,-124.74"/>
</g>
<!-- Node11&#45;&gt;Node24 -->
<g id="edge24" class="edge">
<title>Node11&#45;&gt;Node24</title>
<path fill="none" stroke="midnightblue" d="M631.22,-168.44C602.67,-159.32 557.27,-144.81 525.46,-134.65"/>
<polygon fill="midnightblue" stroke="midnightblue" points="526.24,-131.23 515.65,-131.52 524.11,-137.89 526.24,-131.23"/>
</g>
<!-- Node29 -->
<g id="node29" class="node">
<title>Node29</title>
<g id="a_node29"><a xlink:href="types_8h.html" target="_top" xlink:title=" ">
<polygon fill="none" stroke="black" points="905,-112.5 905,-131.5 995,-131.5 995,-112.5 905,-112.5"/>
<text text-anchor="middle" x="950" y="-119.5" font-family="Helvetica,sans-Serif" font-size="10.00">thorin/util/types.h</text>
</a>
</g>
</g>
<!-- Node11&#45;&gt;Node29 -->
<g id="edge35" class="edge">
<title>Node11&#45;&gt;Node29</title>
<path fill="none" stroke="midnightblue" d="M702.03,-168.86C753.48,-159.34 838.66,-143.59 894.56,-133.25"/>
<polygon fill="midnightblue" stroke="midnightblue" points="895.45,-136.65 904.65,-131.39 894.18,-129.76 895.45,-136.65"/>
</g>
<!-- Node24&#45;&gt;Node9 -->
<g id="edge32" class="edge">
<title>Node24&#45;&gt;Node9</title>
<path fill="none" stroke="midnightblue" d="M440.16,-112.68C374.06,-101.42 258.04,-81.66 202.85,-72.26"/>
<polygon fill="midnightblue" stroke="midnightblue" points="203.1,-68.75 192.66,-70.52 201.93,-75.65 203.1,-68.75"/>
</g>
<!-- Node24&#45;&gt;Node12 -->
<g id="edge25" class="edge">
<title>Node24&#45;&gt;Node12</title>
<path fill="none" stroke="midnightblue" d="M478.84,-112.48C464.05,-99.1 440,-72.92 456,-56 482.72,-27.73 1072.21,-14.55 1223.08,-11.64"/>
<polygon fill="midnightblue" stroke="midnightblue" points="1223.24,-15.13 1233.17,-11.44 1223.11,-8.14 1223.24,-15.13"/>
</g>
<!-- Node24&#45;&gt;Node15 -->
<g id="edge26" class="edge">
<title>Node24&#45;&gt;Node15</title>
<path fill="none" stroke="midnightblue" d="M537.81,-116.04C552.92,-114.61 569.64,-113.13 585,-112 884.62,-89.97 960.17,-94.96 1260,-76 1290.34,-74.08 1324.86,-71.52 1349.6,-69.62"/>
<polygon fill="midnightblue" stroke="midnightblue" points="1350.19,-73.09 1359.89,-68.83 1349.65,-66.11 1350.19,-73.09"/>
</g>
<!-- Node24&#45;&gt;Node19 -->
<g id="edge28" class="edge">
<title>Node24&#45;&gt;Node19</title>
<path fill="none" stroke="midnightblue" d="M455.57,-112.44C417.3,-102.65 354.79,-86.65 315.06,-76.49"/>
<polygon fill="midnightblue" stroke="midnightblue" points="315.79,-73.06 305.24,-73.97 314.06,-79.84 315.79,-73.06"/>
</g>
<!-- Node24&#45;&gt;Node20 -->
<g id="edge29" class="edge">
<title>Node24&#45;&gt;Node20</title>
<path fill="none" stroke="midnightblue" d="M471.97,-112.32C454.97,-103.66 428.62,-90.24 409.01,-80.25"/>
<polygon fill="midnightblue" stroke="midnightblue" points="410.49,-77.08 399.99,-75.65 407.31,-83.31 410.49,-77.08"/>
</g>
<!-- Node25 -->
<g id="node25" class="node">
<title>Node25</title>
<g id="a_node25"><a xlink:title=" ">
<polygon fill="none" stroke="#bfbfbf" points="465,-56.5 465,-75.5 515,-75.5 515,-56.5 465,-56.5"/>
<text text-anchor="middle" x="490" y="-63.5" font-family="Helvetica,sans-Serif" font-size="10.00">fstream</text>
</a>
</g>
</g>
<!-- Node24&#45;&gt;Node25 -->
<g id="edge27" class="edge">
<title>Node24&#45;&gt;Node25</title>
<path fill="none" stroke="midnightblue" d="M489.17,-112.08C489.3,-105.01 489.48,-94.86 489.65,-85.99"/>
<polygon fill="midnightblue" stroke="midnightblue" points="493.15,-85.81 489.84,-75.75 486.15,-85.68 493.15,-85.81"/>
</g>
<!-- Node26 -->
<g id="node26" class="node">
<title>Node26</title>
<g id="a_node26"><a xlink:title=" ">
<polygon fill="none" stroke="#bfbfbf" points="995,-56.5 995,-75.5 1041,-75.5 1041,-56.5 995,-56.5"/>
<text text-anchor="middle" x="1018" y="-63.5" font-family="Helvetica,sans-Serif" font-size="10.00">ranges</text>
</a>
</g>
</g>
<!-- Node24&#45;&gt;Node26 -->
<g id="edge30" class="edge">
<title>Node24&#45;&gt;Node26</title>
<path fill="none" stroke="midnightblue" d="M537.83,-116.38C552.95,-114.97 569.66,-113.41 585,-112 759.97,-95.94 808.28,-107.91 984.82,-75.9"/>
<polygon fill="midnightblue" stroke="midnightblue" points="985.49,-79.34 994.7,-74.09 984.23,-72.45 985.49,-79.34"/>
</g>
<!-- Node27 -->
<g id="node27" class="node">
<title>Node27</title>
<g id="a_node27"><a xlink:title=" ">
<polygon fill="none" stroke="#bfbfbf" points="533,-56.5 533,-75.5 585,-75.5 585,-56.5 533,-56.5"/>
<text text-anchor="middle" x="559" y="-63.5" font-family="Helvetica,sans-Serif" font-size="10.00">sstream</text>
</a>
</g>
</g>
<!-- Node24&#45;&gt;Node27 -->
<g id="edge31" class="edge">
<title>Node24&#45;&gt;Node27</title>
<path fill="none" stroke="midnightblue" d="M500.25,-112.32C510.8,-104.18 526.8,-91.84 539.44,-82.09"/>
<polygon fill="midnightblue" stroke="midnightblue" points="541.77,-84.71 547.55,-75.83 537.49,-79.17 541.77,-84.71"/>
</g>
<!-- Node28 -->
<g id="node28" class="node">
<title>Node28</title>
<g id="a_node28"><a xlink:href="assert_8h.html" target="_top" xlink:title=" ">
<polygon fill="none" stroke="black" points="717,-56.5 717,-75.5 811,-75.5 811,-56.5 717,-56.5"/>
<text text-anchor="middle" x="764" y="-63.5" font-family="Helvetica,sans-Serif" font-size="10.00">thorin/util/assert.h</text>
</a>
</g>
</g>
<!-- Node24&#45;&gt;Node28 -->
<g id="edge33" class="edge">
<title>Node24&#45;&gt;Node28</title>
<path fill="none" stroke="midnightblue" d="M532.57,-112.44C580.85,-102.96 658.71,-87.67 710.61,-77.48"/>
<polygon fill="midnightblue" stroke="midnightblue" points="711.49,-80.88 720.63,-75.52 710.14,-74.01 711.49,-80.88"/>
</g>
<!-- Node28&#45;&gt;Node12 -->
<g id="edge34" class="edge">
<title>Node28&#45;&gt;Node12</title>
<path fill="none" stroke="midnightblue" d="M811.26,-57.82C815.9,-57.18 820.54,-56.56 825,-56 972.59,-37.45 1149.18,-20.82 1222.94,-14.13"/>
<polygon fill="midnightblue" stroke="midnightblue" points="1223.42,-17.6 1233.06,-13.21 1222.79,-10.63 1223.42,-17.6"/>
</g>
<!-- Node29&#45;&gt;Node14 -->
<g id="edge37" class="edge">
<title>Node29&#45;&gt;Node14</title>
<path fill="none" stroke="midnightblue" d="M904.95,-113.49C838.98,-102.5 717.62,-82.27 659.17,-72.53"/>
<polygon fill="midnightblue" stroke="midnightblue" points="659.46,-69.03 649.02,-70.84 658.31,-75.93 659.46,-69.03"/>
</g>
<!-- Node29&#45;&gt;Node21 -->
<g id="edge40" class="edge">
<title>Node29&#45;&gt;Node21</title>
<path fill="none" stroke="midnightblue" d="M995.03,-112.58C1039.37,-104.2 1109.26,-90.76 1178.77,-76.22"/>
<polygon fill="midnightblue" stroke="midnightblue" points="1179.51,-79.64 1188.58,-74.16 1178.07,-72.79 1179.51,-79.64"/>
</g>
<!-- Node30 -->
<g id="node30" class="node">
<title>Node30</title>
<g id="a_node30"><a xlink:title=" ">
<polygon fill="none" stroke="#bfbfbf" points="1127,-56.5 1127,-75.5 1171,-75.5 1171,-56.5 1127,-56.5"/>
<text text-anchor="middle" x="1149" y="-63.5" font-family="Helvetica,sans-Serif" font-size="10.00">cmath</text>
</a>
</g>
</g>
<!-- Node29&#45;&gt;Node30 -->
<g id="edge36" class="edge">
<title>Node29&#45;&gt;Node30</title>
<path fill="none" stroke="midnightblue" d="M982.58,-112.49C1014.48,-104.11 1064.71,-90.78 1116.9,-76.27"/>
<polygon fill="midnightblue" stroke="midnightblue" points="1117.97,-79.6 1126.66,-73.54 1116.09,-72.86 1117.97,-79.6"/>
</g>
<!-- Node31 -->
<g id="node31" class="node">
<title>Node31</title>
<g id="a_node31"><a xlink:title=" ">
<polygon fill="none" stroke="#bfbfbf" points="867,-56.5 867,-75.5 907,-75.5 907,-56.5 867,-56.5"/>
<text text-anchor="middle" x="887" y="-63.5" font-family="Helvetica,sans-Serif" font-size="10.00">limits</text>
</a>
</g>
</g>
<!-- Node29&#45;&gt;Node31 -->
<g id="edge38" class="edge">
<title>Node29&#45;&gt;Node31</title>
<path fill="none" stroke="midnightblue" d="M939.88,-112.32C930.47,-104.26 916.26,-92.08 904.93,-82.37"/>
<polygon fill="midnightblue" stroke="midnightblue" points="907.18,-79.68 897.31,-75.83 902.62,-85 907.18,-79.68"/>
</g>
<!-- Node32 -->
<g id="node32" class="node">
<title>Node32</title>
<g id="a_node32"><a xlink:title=" ">
<polygon fill="none" stroke="#bfbfbf" points="925,-56.5 925,-75.5 977,-75.5 977,-56.5 925,-56.5"/>
<text text-anchor="middle" x="951" y="-63.5" font-family="Helvetica,sans-Serif" font-size="10.00">ostream</text>
</a>
</g>
</g>
<!-- Node29&#45;&gt;Node32 -->
<g id="edge39" class="edge">
<title>Node29&#45;&gt;Node32</title>
<path fill="none" stroke="midnightblue" d="M950.17,-112.08C950.3,-105.01 950.48,-94.86 950.65,-85.99"/>
<polygon fill="midnightblue" stroke="midnightblue" points="954.15,-85.81 950.84,-75.75 947.15,-85.68 954.15,-85.81"/>
</g>
<!-- Node33 -->
<g id="node33" class="node">
<title>Node33</title>
<g id="a_node33"><a xlink:title=" ">
<polygon fill="none" stroke="#bfbfbf" points="1059,-56.5 1059,-75.5 1109,-75.5 1109,-56.5 1059,-56.5"/>
<text text-anchor="middle" x="1084" y="-63.5" font-family="Helvetica,sans-Serif" font-size="10.00">half.hpp</text>
</a>
</g>
</g>
<!-- Node29&#45;&gt;Node33 -->
<g id="edge41" class="edge">
<title>Node29&#45;&gt;Node33</title>
<path fill="none" stroke="midnightblue" d="M971.23,-112.44C993.38,-103.52 1028.32,-89.44 1053.44,-79.32"/>
<polygon fill="midnightblue" stroke="midnightblue" points="1054.9,-82.5 1062.87,-75.52 1052.28,-76.01 1054.9,-82.5"/>
</g>
<!-- Node34&#45;&gt;Node28 -->
<g id="edge45" class="edge">
<title>Node34&#45;&gt;Node28</title>
<path fill="none" stroke="midnightblue" d="M886.43,-168.14C871.45,-155.6 843.19,-131.98 819,-112 806.84,-101.96 793.11,-90.73 782.41,-81.99"/>
<polygon fill="midnightblue" stroke="midnightblue" points="784.53,-79.21 774.57,-75.6 780.11,-84.63 784.53,-79.21"/>
</g>
<!-- Node34&#45;&gt;Node29 -->
<g id="edge46" class="edge">
<title>Node34&#45;&gt;Node29</title>
<path fill="none" stroke="midnightblue" d="M905.75,-168.08C913.47,-160.22 924.9,-148.57 934.22,-139.08"/>
<polygon fill="midnightblue" stroke="midnightblue" points="936.9,-141.34 941.41,-131.75 931.91,-136.44 936.9,-141.34"/>
</g>
<!-- Node35 -->
<g id="node35" class="node">
<title>Node35</title>
<g id="a_node35"><a xlink:title=" ">
<polygon fill="none" stroke="#bfbfbf" points="1163,-112.5 1163,-131.5 1229,-131.5 1229,-112.5 1163,-112.5"/>
<text text-anchor="middle" x="1196" y="-119.5" font-family="Helvetica,sans-Serif" font-size="10.00">string_view</text>
</a>
</g>
</g>
<!-- Node34&#45;&gt;Node35 -->
<g id="edge44" class="edge">
<title>Node34&#45;&gt;Node35</title>
<path fill="none" stroke="midnightblue" d="M935.83,-170.67C984.26,-162.67 1069.84,-148.2 1152.49,-132.24"/>
<polygon fill="midnightblue" stroke="midnightblue" points="1153.4,-135.63 1162.55,-130.29 1152.07,-128.76 1153.4,-135.63"/>
</g>
<!-- Node36&#45;&gt;Node7 -->
<g id="edge57" class="edge">
<title>Node36&#45;&gt;Node7</title>
<path fill="none" stroke="midnightblue" d="M1408.7,-168.44C1379.41,-158.92 1332.09,-143.52 1300.76,-133.33"/>
<polygon fill="midnightblue" stroke="midnightblue" points="1301.79,-129.99 1291.2,-130.22 1299.62,-136.64 1301.79,-129.99"/>
</g>
<!-- Node36&#45;&gt;Node12 -->
<g id="edge48" class="edge">
<title>Node36&#45;&gt;Node12</title>
<path fill="none" stroke="midnightblue" d="M1479.22,-176.96C1553.26,-175.85 1697.34,-168.88 1729,-132 1734.79,-125.26 1734.55,-118.95 1729,-112 1674.18,-43.36 1392.11,-19.36 1292.71,-12.96"/>
<polygon fill="midnightblue" stroke="midnightblue" points="1292.8,-9.45 1282.6,-12.33 1292.36,-16.44 1292.8,-9.45"/>
</g>
<!-- Node36&#45;&gt;Node15 -->
<g id="edge50" class="edge">
<title>Node36&#45;&gt;Node15</title>
<path fill="none" stroke="midnightblue" d="M1440.54,-168.07C1447.84,-155.04 1458.71,-130.37 1449,-112 1441.58,-97.95 1427.58,-87.47 1414.38,-80.17"/>
<polygon fill="midnightblue" stroke="midnightblue" points="1415.96,-77.04 1405.46,-75.62 1412.78,-83.28 1415.96,-77.04"/>
</g>
<!-- Node36&#45;&gt;Node16 -->
<g id="edge51" class="edge">
<title>Node36&#45;&gt;Node16</title>
<path fill="none" stroke="midnightblue" d="M1391,-171.06C1337.52,-163.6 1244.35,-149.82 1155.23,-132.12"/>
<polygon fill="midnightblue" stroke="midnightblue" points="1155.72,-128.65 1145.23,-130.11 1154.35,-135.51 1155.72,-128.65"/>
</g>
<!-- Node36&#45;&gt;Node21 -->
<g id="edge56" class="edge">
<title>Node36&#45;&gt;Node21</title>
<path fill="none" stroke="midnightblue" d="M1434.36,-168.4C1432.83,-154.42 1427.76,-126.82 1411,-112 1389.08,-92.61 1310.58,-78.98 1261.3,-72.11"/>
<polygon fill="midnightblue" stroke="midnightblue" points="1261.64,-68.63 1251.26,-70.75 1260.69,-75.56 1261.64,-68.63"/>
</g>
<!-- Node36&#45;&gt;Node26 -->
<g id="edge55" class="edge">
<title>Node36&#45;&gt;Node26</title>
<path fill="none" stroke="midnightblue" d="M1430.25,-168.44C1421.71,-153.98 1402.27,-125.03 1377,-112 1249.96,-46.51 1195.97,-101.31 1051.42,-75.91"/>
<polygon fill="midnightblue" stroke="midnightblue" points="1051.78,-72.42 1041.31,-74.04 1050.5,-79.3 1051.78,-72.42"/>
</g>
<!-- Node37 -->
<g id="node37" class="node">
<title>Node37</title>
<g id="a_node37"><a xlink:title=" ">
<polygon fill="none" stroke="#bfbfbf" points="1501.5,-112.5 1501.5,-131.5 1550.5,-131.5 1550.5,-112.5 1501.5,-112.5"/>
<text text-anchor="middle" x="1526" y="-119.5" font-family="Helvetica,sans-Serif" font-size="10.00">cstddef</text>
</a>
</g>
</g>
<!-- Node36&#45;&gt;Node37 -->
<g id="edge49" class="edge">
<title>Node36&#45;&gt;Node37</title>
<path fill="none" stroke="midnightblue" d="M1449.62,-168.32C1463.95,-159.82 1486.01,-146.73 1502.75,-136.8"/>
<polygon fill="midnightblue" stroke="midnightblue" points="1504.6,-139.77 1511.42,-131.65 1501.03,-133.75 1504.6,-139.77"/>
</g>
<!-- Node38 -->
<g id="node38" class="node">
<title>Node38</title>
<g id="a_node38"><a xlink:title=" ">
<polygon fill="none" stroke="#bfbfbf" points="1309.5,-112.5 1309.5,-131.5 1368.5,-131.5 1368.5,-112.5 1309.5,-112.5"/>
<text text-anchor="middle" x="1339" y="-119.5" font-family="Helvetica,sans-Serif" font-size="10.00">functional</text>
</a>
</g>
</g>
<!-- Node36&#45;&gt;Node38 -->
<g id="edge52" class="edge">
<title>Node36&#45;&gt;Node38</title>
<path fill="none" stroke="midnightblue" d="M1419.58,-168.32C1404.46,-159.82 1381.18,-146.73 1363.53,-136.8"/>
<polygon fill="midnightblue" stroke="midnightblue" points="1364.82,-133.51 1354.39,-131.65 1361.39,-139.61 1364.82,-133.51"/>
</g>
<!-- Node39 -->
<g id="node39" class="node">
<title>Node39</title>
<g id="a_node39"><a xlink:title=" ">
<polygon fill="none" stroke="#bfbfbf" points="1776,-112.5 1776,-131.5 1848,-131.5 1848,-112.5 1776,-112.5"/>
<text text-anchor="middle" x="1812" y="-119.5" font-family="Helvetica,sans-Serif" font-size="10.00">initializer_list</text>
</a>
</g>
</g>
<!-- Node36&#45;&gt;Node39 -->
<g id="edge53" class="edge">
<title>Node36&#45;&gt;Node39</title>
<path fill="none" stroke="midnightblue" d="M1479.25,-171.5C1542.18,-163.54 1661.12,-148.01 1762,-132 1763.27,-131.8 1764.57,-131.59 1765.87,-131.38"/>
<polygon fill="midnightblue" stroke="midnightblue" points="1766.7,-134.78 1775.98,-129.67 1765.54,-127.88 1766.7,-134.78"/>
</g>
<!-- Node40 -->
<g id="node40" class="node">
<title>Node40</title>
<g id="a_node40"><a xlink:title=" ">
<polygon fill="none" stroke="#bfbfbf" points="1568.5,-112.5 1568.5,-131.5 1615.5,-131.5 1615.5,-112.5 1568.5,-112.5"/>
<text text-anchor="middle" x="1592" y="-119.5" font-family="Helvetica,sans-Serif" font-size="10.00">iterator</text>
</a>
</g>
</g>
<!-- Node36&#45;&gt;Node40 -->
<g id="edge54" class="edge">
<title>Node36&#45;&gt;Node40</title>
<path fill="none" stroke="midnightblue" d="M1459.88,-168.44C1486.6,-159.25 1529.2,-144.6 1558.78,-134.43"/>
<polygon fill="midnightblue" stroke="midnightblue" points="1559.95,-137.73 1568.27,-131.16 1557.67,-131.11 1559.95,-137.73"/>
</g>
<!-- Node41&#45;&gt;Node12 -->
<g id="edge59" class="edge">
<title>Node41&#45;&gt;Node12</title>
<path fill="none" stroke="midnightblue" d="M1644.47,-112.46C1567,-92.12 1372.13,-40.96 1292.61,-20.09"/>
<polygon fill="midnightblue" stroke="midnightblue" points="1293.18,-16.62 1282.61,-17.46 1291.4,-23.39 1293.18,-16.62"/>
</g>
<!-- Node41&#45;&gt;Node15 -->
<g id="edge60" class="edge">
<title>Node41&#45;&gt;Node15</title>
<path fill="none" stroke="midnightblue" d="M1633.94,-113.09C1574.72,-102.21 1469.45,-82.88 1416.04,-73.07"/>
<polygon fill="midnightblue" stroke="midnightblue" points="1416.55,-69.6 1406.08,-71.24 1415.28,-76.49 1416.55,-69.6"/>
</g>
<!-- Node42&#45;&gt;Node14 -->
<g id="edge63" class="edge">
<title>Node42&#45;&gt;Node14</title>
<path fill="none" stroke="midnightblue" d="M422.06,-113.45C462.47,-105.46 527.61,-92.11 592.92,-76.15"/>
<polygon fill="midnightblue" stroke="midnightblue" points="594.1,-79.46 602.97,-73.67 592.43,-72.66 594.1,-79.46"/>
</g>
<!-- Node42&#45;&gt;Node20 -->
<g id="edge64" class="edge">
<title>Node42&#45;&gt;Node20</title>
<path fill="none" stroke="midnightblue" d="M383,-112.08C383,-105.01 383,-94.86 383,-85.99"/>
<polygon fill="midnightblue" stroke="midnightblue" points="386.5,-85.75 383,-75.75 379.5,-85.75 386.5,-85.75"/>
</g>
<!-- Node43&#45;&gt;Node5 -->
<g id="edge67" class="edge">
<title>Node43&#45;&gt;Node5</title>
<path fill="none" stroke="midnightblue" d="M474.71,-337C532.45,-329.02 622.64,-315.91 710.6,-299.98"/>
<polygon fill="midnightblue" stroke="midnightblue" points="711.27,-303.41 720.48,-298.17 710.01,-296.52 711.27,-303.41"/>
</g>
<!-- Node43&#45;&gt;Node24 -->
<g id="edge68" class="edge">
<title>Node43&#45;&gt;Node24</title>
<path fill="none" stroke="midnightblue" d="M417.9,-336.3C428.84,-303.49 467.71,-186.88 482.87,-141.38"/>
<polygon fill="midnightblue" stroke="midnightblue" points="486.2,-142.48 486.04,-131.88 479.56,-140.26 486.2,-142.48"/>
</g>
<!-- Node44&#45;&gt;Node9 -->
<g id="edge74" class="edge">
<title>Node44&#45;&gt;Node9</title>
<path fill="none" stroke="midnightblue" d="M652.61,-456.06C524.36,-452.59 107.24,-439.32 54,-412 20.59,-394.85 0,-384.56 0,-347 0,-347 0,-347 0,-177 0,-110.65 91.96,-82.52 141.4,-72.19"/>
<polygon fill="midnightblue" stroke="midnightblue" points="142.12,-75.61 151.25,-70.25 140.76,-68.75 142.12,-75.61"/>
</g>
<!-- Node44&#45;&gt;Node11 -->
<g id="edge82" class="edge">
<title>Node44&#45;&gt;Node11</title>
<path fill="none" stroke="midnightblue" d="M677.6,-448.4C666.71,-440.23 651.21,-426.99 642,-412 626.24,-386.36 623,-377.1 623,-347 623,-347 623,-347 623,-289 623,-255.07 638.31,-217.91 648.68,-196.63"/>
<polygon fill="midnightblue" stroke="midnightblue" points="651.88,-198.05 653.28,-187.54 645.64,-194.88 651.88,-198.05"/>
</g>
<!-- Node44&#45;&gt;Node12 -->
<g id="edge70" class="edge">
<title>Node44&#45;&gt;Node12</title>
<path fill="none" stroke="midnightblue" d="M727.18,-456.23C878.36,-452.94 1447.26,-439 1625,-412 1738.93,-394.69 1876,-462.24 1876,-347 1876,-347 1876,-347 1876,-121 1876,-61.31 1423.36,-23.22 1292.83,-13.48"/>
<polygon fill="midnightblue" stroke="midnightblue" points="1292.84,-9.97 1282.61,-12.72 1292.32,-16.95 1292.84,-9.97"/>
</g>
<!-- Node44&#45;&gt;Node19 -->
<g id="edge73" class="edge">
<title>Node44&#45;&gt;Node19</title>
<path fill="none" stroke="midnightblue" d="M652.75,-456.74C571.86,-455.48 374.45,-448.56 214,-412 132.7,-393.48 38,-430.39 38,-347 38,-347 38,-347 38,-177 38,-146.9 34.85,-132.38 57,-112 70.42,-99.65 181.37,-81.44 240.77,-72.44"/>
<polygon fill="midnightblue" stroke="midnightblue" points="241.51,-75.87 250.88,-70.93 240.47,-68.95 241.51,-75.87"/>
</g>
<!-- Node44&#45;&gt;Node23 -->
<g id="edge77" class="edge">
<title>Node44&#45;&gt;Node23</title>
<path fill="none" stroke="midnightblue" d="M652.72,-456.86C535.63,-455.43 183,-443.15 183,-347 183,-347 183,-347 183,-233 183,-192.97 148.2,-157.34 125.09,-138.09"/>
<polygon fill="midnightblue" stroke="midnightblue" points="127.18,-135.28 117.19,-131.76 122.8,-140.74 127.18,-135.28"/>
</g>
<!-- Node44&#45;&gt;Node38 -->
<g id="edge71" class="edge">
<title>Node44&#45;&gt;Node38</title>
<path fill="none" stroke="midnightblue" d="M727.18,-454.25C859.4,-443.97 1299,-405.42 1299,-347 1299,-347 1299,-347 1299,-233 1299,-198.62 1316.47,-161.63 1328.32,-140.5"/>
<polygon fill="midnightblue" stroke="midnightblue" points="1331.42,-142.13 1333.44,-131.73 1325.38,-138.61 1331.42,-142.13"/>
</g>
<!-- Node44&#45;&gt;Node39 -->
<g id="edge72" class="edge">
<title>Node44&#45;&gt;Node39</title>
<path fill="none" stroke="midnightblue" d="M727.3,-457.02C912.14,-456.62 1721,-449.04 1721,-347 1721,-347 1721,-347 1721,-233 1721,-190.47 1761.89,-155.53 1788.85,-137.12"/>
<polygon fill="midnightblue" stroke="midnightblue" points="1790.94,-139.93 1797.38,-131.52 1787.1,-134.08 1790.94,-139.93"/>
</g>
<!-- Node45 -->
<g id="node45" class="node">
<title>Node45</title>
<g id="a_node45"><a xlink:href="axiom_8h.html" target="_top" xlink:title=" ">
<polygon fill="none" stroke="black" points="651.5,-392.5 651.5,-411.5 728.5,-411.5 728.5,-392.5 651.5,-392.5"/>
<text text-anchor="middle" x="690" y="-399.5" font-family="Helvetica,sans-Serif" font-size="10.00">thorin/axiom.h</text>
</a>
</g>
</g>
<!-- Node44&#45;&gt;Node45 -->
<g id="edge75" class="edge">
<title>Node44&#45;&gt;Node45</title>
<path fill="none" stroke="midnightblue" d="M690,-448.08C690,-441.01 690,-430.86 690,-421.99"/>
<polygon fill="midnightblue" stroke="midnightblue" points="693.5,-421.75 690,-411.75 686.5,-421.75 693.5,-421.75"/>
</g>
<!-- Node46 -->
<g id="node46" class="node">
<title>Node46</title>
<g id="a_node46"><a xlink:href="lattice_8h.html" target="_top" xlink:title=" ">
<polygon fill="none" stroke="black" points="827.5,-336.5 827.5,-355.5 904.5,-355.5 904.5,-336.5 827.5,-336.5"/>
<text text-anchor="middle" x="866" y="-343.5" font-family="Helvetica,sans-Serif" font-size="10.00">thorin/lattice.h</text>
</a>
</g>
</g>
<!-- Node44&#45;&gt;Node46 -->
<g id="edge78" class="edge">
<title>Node44&#45;&gt;Node46</title>
<path fill="none" stroke="midnightblue" d="M703.81,-448.37C734.14,-429.41 806.8,-384 843.69,-360.94"/>
<polygon fill="midnightblue" stroke="midnightblue" points="845.63,-363.86 852.25,-355.59 841.92,-357.92 845.63,-363.86"/>
</g>
<!-- Node47 -->
<g id="node47" class="node">
<title>Node47</title>
<g id="a_node47"><a xlink:href="tuple_8h.html" target="_top" xlink:title=" ">
<polygon fill="none" stroke="black" points="737,-336.5 737,-355.5 809,-355.5 809,-336.5 737,-336.5"/>
<text text-anchor="middle" x="773" y="-343.5" font-family="Helvetica,sans-Serif" font-size="10.00">thorin/tuple.h</text>
</a>
</g>
</g>
<!-- Node44&#45;&gt;Node47 -->
<g id="edge80" class="edge">
<title>Node44&#45;&gt;Node47</title>
<path fill="none" stroke="midnightblue" d="M700.6,-448.48C710.76,-439.97 726.11,-426.14 737,-412 748.29,-397.34 758.23,-378.7 764.79,-365.15"/>
<polygon fill="midnightblue" stroke="midnightblue" points="768.04,-366.46 769.11,-355.92 761.7,-363.49 768.04,-366.46"/>
</g>
<!-- Node45&#45;&gt;Node3 -->
<g id="edge76" class="edge">
<title>Node45&#45;&gt;Node3</title>
<path fill="none" stroke="midnightblue" d="M689.17,-392.08C688.52,-385.01 687.58,-374.86 686.76,-365.99"/>
<polygon fill="midnightblue" stroke="midnightblue" points="690.22,-365.39 685.81,-355.75 683.25,-366.03 690.22,-365.39"/>
</g>
<!-- Node46&#45;&gt;Node5 -->
<g id="edge79" class="edge">
<title>Node46&#45;&gt;Node5</title>
<path fill="none" stroke="midnightblue" d="M848.09,-336.44C829.75,-327.68 800.99,-313.94 779.91,-303.86"/>
<polygon fill="midnightblue" stroke="midnightblue" points="781.35,-300.67 770.82,-299.52 778.33,-306.99 781.35,-300.67"/>
</g>
<!-- Node47&#45;&gt;Node5 -->
<g id="edge81" class="edge">
<title>Node47&#45;&gt;Node5</title>
<path fill="none" stroke="midnightblue" d="M769.7,-336.08C767.02,-328.85 763.15,-318.41 759.81,-309.4"/>
<polygon fill="midnightblue" stroke="midnightblue" points="763,-307.91 756.24,-299.75 756.43,-310.34 763,-307.91"/>
</g>
<!-- Node49 -->
<g id="node49" class="node">
<title>Node49</title>
<g id="a_node49"><a xlink:title=" ">
<polygon fill="none" stroke="#bfbfbf" points="1904.5,-392.5 1904.5,-411.5 1945.5,-411.5 1945.5,-392.5 1904.5,-392.5"/>
<text text-anchor="middle" x="1925" y="-399.5" font-family="Helvetica,sans-Serif" font-size="10.00">stack</text>
</a>
</g>
</g>
<!-- Node48&#45;&gt;Node49 -->
<g id="edge85" class="edge">
<title>Node48&#45;&gt;Node49</title>
<path fill="none" stroke="midnightblue" d="M1925,-448.08C1925,-441.01 1925,-430.86 1925,-421.99"/>
<polygon fill="midnightblue" stroke="midnightblue" points="1928.5,-421.75 1925,-411.75 1921.5,-421.75 1928.5,-421.75"/>
</g>
<!-- Node50 -->
<g id="node50" class="node">
<title>Node50</title>
<g id="a_node50"><a xlink:title=" ">
<polygon fill="none" stroke="#bfbfbf" points="1963.5,-392.5 1963.5,-411.5 2006.5,-411.5 2006.5,-392.5 1963.5,-392.5"/>
<text text-anchor="middle" x="1985" y="-399.5" font-family="Helvetica,sans-Serif" font-size="10.00">queue</text>
</a>
</g>
</g>
<!-- Node48&#45;&gt;Node50 -->
<g id="edge86" class="edge">
<title>Node48&#45;&gt;Node50</title>
<path fill="none" stroke="midnightblue" d="M1934.64,-448.32C1943.51,-440.34 1956.87,-428.31 1967.61,-418.65"/>
<polygon fill="midnightblue" stroke="midnightblue" points="1970.09,-421.13 1975.18,-411.83 1965.41,-415.92 1970.09,-421.13"/>
</g>
</g>
</svg>
