<?xml version="1.0" encoding="UTF-8" standalone="no"?>
<!DOCTYPE svg PUBLIC "-//W3C//DTD SVG 1.1//EN"
 "http://www.w3.org/Graphics/SVG/1.1/DTD/svg11.dtd">
<!-- Generated by graphviz version 2.43.0 (0)
 -->
<!-- Title: build/include/mim/plug/math/autogen.h Pages: 1 -->
<svg width="714pt" height="170pt"
 viewBox="0.00 0.00 713.50 170.00" xmlns="http://www.w3.org/2000/svg" xmlns:xlink="http://www.w3.org/1999/xlink">
<g id="graph0" class="graph" transform="scale(1 1) rotate(0) translate(4 166)">
<title>build/include/mim/plug/math/autogen.h</title>
<!-- Node1 -->
<g id="Node000001" class="node">
<title>Node1</title>
<g id="a_Node000001"><a xlink:title=" ">
<polygon fill="#999999" stroke="#666666" points="208.5,-162 80.5,-162 80.5,-132 208.5,-132 208.5,-162"/>
<text text-anchor="start" x="88.5" y="-150" font-family="Helvetica,sans-Serif" font-size="10.00">build/include/mim/plug</text>
<text text-anchor="middle" x="144.5" y="-139" font-family="Helvetica,sans-Serif" font-size="10.00">/math/autogen.h</text>
</a>
</g>
</g>
<!-- Node2 -->
<g id="Node000002" class="node">
<title>Node2</title>
<g id="a_Node000002"><a xlink:href="math_8h.html" target="_top" xlink:title=" ">
<polygon fill="white" stroke="#666666" points="294.5,-96 164.5,-96 164.5,-66 294.5,-66 294.5,-96"/>
<text text-anchor="start" x="172.5" y="-84" font-family="Helvetica,sans-Serif" font-size="10.00">include/mim/plug/math</text>
<text text-anchor="middle" x="229.5" y="-73" font-family="Helvetica,sans-Serif" font-size="10.00">/math.h</text>
</a>
</g>
</g>
<!-- Node1&#45;&gt;Node2 -->
<g id="edge1_Node000001_Node000002" class="edge">
<title>Node1&#45;&gt;Node2</title>
<g id="a_edge1_Node000001_Node000002"><a xlink:title=" ">
<path fill="none" stroke="#63b8ff" d="M171.39,-125.75C184.17,-116.13 199.14,-104.86 210.69,-96.16"/>
<polygon fill="#63b8ff" stroke="#63b8ff" points="169.25,-122.99 163.36,-131.8 173.46,-128.58 169.25,-122.99"/>
</a>
</g>
</g>
<!-- Node3 -->
<g id="Node000003" class="node">
<title>Node3</title>
<g id="a_Node000003"><a xlink:href="ll_8cpp.html" target="_top" xlink:title=" ">
<polygon fill="white" stroke="#666666" points="119,-30 0,-30 0,0 119,0 119,-30"/>
<text text-anchor="start" x="8" y="-18" font-family="Helvetica,sans-Serif" font-size="10.00">src/mim/plug/core/be</text>
<text text-anchor="middle" x="59.5" y="-7" font-family="Helvetica,sans-Serif" font-size="10.00">/ll.cpp</text>
</a>
</g>
</g>
<!-- Node1&#45;&gt;Node3 -->
<g id="edge6_Node000001_Node000003" class="edge">
<title>Node1&#45;&gt;Node3</title>
<g id="a_edge6_Node000001_Node000003"><a xlink:title=" ">
<path fill="none" stroke="#63b8ff" d="M129.76,-123.45C112.21,-96.61 83.43,-52.6 68.75,-30.14"/>
<polygon fill="#63b8ff" stroke="#63b8ff" points="126.84,-125.39 135.24,-131.84 132.7,-121.56 126.84,-125.39"/>
</a>
</g>
</g>
<!-- Node2&#45;&gt;Node3 -->
<g id="edge2_Node000002_Node000003" class="edge">
<title>Node2&#45;&gt;Node3</title>
<g id="a_edge2_Node000002_Node000003"><a xlink:title=" ">
<path fill="none" stroke="#63b8ff" d="M182.54,-62.32C155.49,-52.14 121.95,-39.51 96.72,-30.01"/>
<polygon fill="#63b8ff" stroke="#63b8ff" points="181.6,-65.71 192.19,-65.95 184.07,-59.16 181.6,-65.71"/>
</a>
</g>
</g>
<!-- Node4 -->
<g id="Node000004" class="node">
<title>Node4</title>
<g id="a_Node000004"><a xlink:href="core_2normalizers_8cpp.html" target="_top" xlink:title=" ">
<polygon fill="white" stroke="#666666" points="322,-24.5 137,-24.5 137,-5.5 322,-5.5 322,-24.5"/>
<text text-anchor="middle" x="229.5" y="-12.5" font-family="Helvetica,sans-Serif" font-size="10.00">src/mim/plug/core/normalizers.cpp</text>
</a>
</g>
</g>
<!-- Node2&#45;&gt;Node4 -->
<g id="edge3_Node000002_Node000004" class="edge">
<title>Node2&#45;&gt;Node4</title>
<g id="a_edge3_Node000002_Node000004"><a xlink:title=" ">
<path fill="none" stroke="#63b8ff" d="M229.5,-55.6C229.5,-44.8 229.5,-32.78 229.5,-24.84"/>
<polygon fill="#63b8ff" stroke="#63b8ff" points="226,-55.8 229.5,-65.8 233,-55.8 226,-55.8"/>
</a>
</g>
</g>
<!-- Node5 -->
<g id="Node000005" class="node">
<title>Node5</title>
<g id="a_Node000005"><a xlink:href="math_8cpp.html" target="_top" xlink:title=" ">
<polygon fill="white" stroke="#666666" points="497.5,-24.5 339.5,-24.5 339.5,-5.5 497.5,-5.5 497.5,-24.5"/>
<text text-anchor="middle" x="418.5" y="-12.5" font-family="Helvetica,sans-Serif" font-size="10.00">src/mim/plug/math/math.cpp</text>
</a>
</g>
</g>
<!-- Node2&#45;&gt;Node5 -->
<g id="edge4_Node000002_Node000005" class="edge">
<title>Node2&#45;&gt;Node5</title>
<g id="a_edge4_Node000002_Node000005"><a xlink:title=" ">
<path fill="none" stroke="#63b8ff" d="M280.48,-62.74C317.02,-50.36 364.66,-34.23 393.35,-24.52"/>
<polygon fill="#63b8ff" stroke="#63b8ff" points="279.33,-59.43 270.98,-65.95 281.57,-66.06 279.33,-59.43"/>
</a>
</g>
</g>
<!-- Node6 -->
<g id="Node000006" class="node">
<title>Node6</title>
<g id="a_Node000006"><a xlink:href="math_2normalizers_8cpp.html" target="_top" xlink:title=" ">
<polygon fill="white" stroke="#666666" points="705.5,-24.5 515.5,-24.5 515.5,-5.5 705.5,-5.5 705.5,-24.5"/>
<text text-anchor="middle" x="610.5" y="-12.5" font-family="Helvetica,sans-Serif" font-size="10.00">src/mim/plug/math/normalizers.cpp</text>
</a>
</g>
</g>
<!-- Node2&#45;&gt;Node6 -->
<g id="edge5_Node000002_Node000006" class="edge">
<title>Node2&#45;&gt;Node6</title>
<g id="a_edge5_Node000002_Node000006"><a xlink:title=" ">
<path fill="none" stroke="#63b8ff" d="M304.49,-67.4C379.95,-54.73 494.28,-35.52 559.72,-24.53"/>
<polygon fill="#63b8ff" stroke="#63b8ff" points="303.85,-63.96 294.56,-69.07 305,-70.87 303.85,-63.96"/>
</a>
</g>
</g>
</g>
</svg>
