<?xml version="1.0" encoding="UTF-8" standalone="no"?>
<!DOCTYPE svg PUBLIC "-//W3C//DTD SVG 1.1//EN"
 "http://www.w3.org/Graphics/SVG/1.1/DTD/svg11.dtd">
<!-- Generated by graphviz version 2.43.0 (0)
 -->
<!-- Title: dialects/mem/mem.h Pages: 1 -->
<svg width="1830pt" height="173pt"
 viewBox="0.00 0.00 1830.00 173.00" xmlns="http://www.w3.org/2000/svg" xmlns:xlink="http://www.w3.org/1999/xlink">
<g id="graph0" class="graph" transform="scale(1 1) rotate(0) translate(4 169)">
<title>dialects/mem/mem.h</title>
<!-- Node1 -->
<g id="node1" class="node">
<title>Node1</title>
<g id="a_node1"><a xlink:title=" ">
<polygon fill="#bfbfbf" stroke="black" points="797.5,-145.5 797.5,-164.5 918.5,-164.5 918.5,-145.5 797.5,-145.5"/>
<text text-anchor="middle" x="858" y="-152.5" font-family="Helvetica,sans-Serif" font-size="10.00">dialects/mem/mem.h</text>
</a>
</g>
</g>
<!-- Node2 -->
<g id="node2" class="node">
<title>Node2</title>
<g id="a_node2"><a xlink:href="lower__for_8cpp.html" target="_top" xlink:title=" ">
<polygon fill="none" stroke="black" points="0,-73 0,-103 122,-103 122,-73 0,-73"/>
<text text-anchor="start" x="8" y="-91" font-family="Helvetica,sans-Serif" font-size="10.00">dialects/affine/passes</text>
<text text-anchor="middle" x="61" y="-80" font-family="Helvetica,sans-Serif" font-size="10.00">/lower_for.cpp</text>
</a>
</g>
</g>
<!-- Node1&#45;&gt;Node2 -->
<g id="edge1" class="edge">
<title>Node1&#45;&gt;Node2</title>
<path fill="none" stroke="midnightblue" d="M786.89,-154.68C656.07,-154.8 368.84,-149.84 131,-109 122.4,-107.52 113.36,-105.39 104.73,-103.06"/>
<polygon fill="midnightblue" stroke="midnightblue" points="787.18,-158.18 797.17,-154.66 787.16,-151.18 787.18,-158.18"/>
</g>
<!-- Node3 -->
<g id="node3" class="node">
<title>Node3</title>
<g id="a_node3"><a xlink:href="lower__typed__clos__prep_8cpp.html" target="_top" xlink:title=" ">
<polygon fill="none" stroke="black" points="140.5,-67.5 140.5,-108.5 257.5,-108.5 257.5,-67.5 140.5,-67.5"/>
<text text-anchor="start" x="148.5" y="-96.5" font-family="Helvetica,sans-Serif" font-size="10.00">dialects/clos/pass</text>
<text text-anchor="start" x="148.5" y="-85.5" font-family="Helvetica,sans-Serif" font-size="10.00">/fp/lower_typed_clos</text>
<text text-anchor="middle" x="199" y="-74.5" font-family="Helvetica,sans-Serif" font-size="10.00">_prep.cpp</text>
</a>
</g>
</g>
<!-- Node1&#45;&gt;Node3 -->
<g id="edge2" class="edge">
<title>Node1&#45;&gt;Node3</title>
<path fill="none" stroke="midnightblue" d="M787.24,-153.5C675.56,-151.62 452,-143.42 266,-109 263.25,-108.49 260.46,-107.91 257.65,-107.28"/>
<polygon fill="midnightblue" stroke="midnightblue" points="787.31,-157 797.37,-153.66 787.42,-150 787.31,-157"/>
</g>
<!-- Node4 -->
<g id="node4" class="node">
<title>Node4</title>
<g id="a_node4"><a xlink:href="clos2sjlj_8h.html" target="_top" xlink:title=" ">
<polygon fill="none" stroke="black" points="275.5,-73 275.5,-103 378.5,-103 378.5,-73 275.5,-73"/>
<text text-anchor="start" x="283.5" y="-91" font-family="Helvetica,sans-Serif" font-size="10.00">dialects/clos/pass</text>
<text text-anchor="middle" x="327" y="-80" font-family="Helvetica,sans-Serif" font-size="10.00">/rw/clos2sjlj.h</text>
</a>
</g>
</g>
<!-- Node1&#45;&gt;Node4 -->
<g id="edge3" class="edge">
<title>Node1&#45;&gt;Node4</title>
<path fill="none" stroke="midnightblue" d="M787.16,-152.09C694.52,-148.49 527.59,-138.19 388,-109 380.58,-107.45 372.8,-105.31 365.37,-103.01"/>
<polygon fill="midnightblue" stroke="midnightblue" points="787.14,-155.59 797.26,-152.47 787.4,-148.6 787.14,-155.59"/>
</g>
<!-- Node6 -->
<g id="node6" class="node">
<title>Node6</title>
<g id="a_node6"><a xlink:href="clos__conv_8cpp.html" target="_top" xlink:title=" ">
<polygon fill="none" stroke="black" points="397,-73 397,-103 507,-103 507,-73 397,-73"/>
<text text-anchor="start" x="405" y="-91" font-family="Helvetica,sans-Serif" font-size="10.00">dialects/clos/phase</text>
<text text-anchor="middle" x="452" y="-80" font-family="Helvetica,sans-Serif" font-size="10.00">/clos_conv.cpp</text>
</a>
</g>
</g>
<!-- Node1&#45;&gt;Node6 -->
<g id="edge5" class="edge">
<title>Node1&#45;&gt;Node6</title>
<path fill="none" stroke="midnightblue" d="M787.04,-148.13C717.65,-141.56 609.26,-129.13 517,-109 509.5,-107.36 501.62,-105.27 494.04,-103.05"/>
<polygon fill="midnightblue" stroke="midnightblue" points="787.13,-151.65 797.41,-149.09 787.78,-144.68 787.13,-151.65"/>
</g>
<!-- Node7 -->
<g id="node7" class="node">
<title>Node7</title>
<g id="a_node7"><a xlink:href="lower__typed__clos_8h.html" target="_top" xlink:title=" ">
<polygon fill="none" stroke="black" points="525.5,-73 525.5,-103 638.5,-103 638.5,-73 525.5,-73"/>
<text text-anchor="start" x="533.5" y="-91" font-family="Helvetica,sans-Serif" font-size="10.00">dialects/clos/phase</text>
<text text-anchor="middle" x="582" y="-80" font-family="Helvetica,sans-Serif" font-size="10.00">/lower_typed_clos.h</text>
</a>
</g>
</g>
<!-- Node1&#45;&gt;Node7 -->
<g id="edge6" class="edge">
<title>Node1&#45;&gt;Node7</title>
<path fill="none" stroke="midnightblue" d="M802.81,-143.48C760.29,-135.06 700.14,-122.46 648,-109 641.04,-107.2 633.72,-105.15 626.59,-103.06"/>
<polygon fill="midnightblue" stroke="midnightblue" points="802.2,-146.92 812.68,-145.42 803.55,-140.06 802.2,-146.92"/>
</g>
<!-- Node9 -->
<g id="node9" class="node">
<title>Node9</title>
<g id="a_node9"><a xlink:href="ll_8cpp.html" target="_top" xlink:title=" ">
<polygon fill="none" stroke="black" points="656.5,-73 656.5,-103 759.5,-103 759.5,-73 656.5,-73"/>
<text text-anchor="start" x="664.5" y="-91" font-family="Helvetica,sans-Serif" font-size="10.00">dialects/core/be/ll</text>
<text text-anchor="middle" x="708" y="-80" font-family="Helvetica,sans-Serif" font-size="10.00">/ll.cpp</text>
</a>
</g>
</g>
<!-- Node1&#45;&gt;Node9 -->
<g id="edge8" class="edge">
<title>Node1&#45;&gt;Node9</title>
<path fill="none" stroke="midnightblue" d="M828.62,-141.27C803.23,-130.27 766.6,-114.39 740.37,-103.03"/>
<polygon fill="midnightblue" stroke="midnightblue" points="827.51,-144.6 838.08,-145.37 830.3,-138.18 827.51,-144.6"/>
</g>
<!-- Node10 -->
<g id="node10" class="node">
<title>Node10</title>
<g id="a_node10"><a xlink:href="core_2normalizers_8cpp.html" target="_top" xlink:title=" ">
<polygon fill="none" stroke="black" points="778,-78.5 778,-97.5 938,-97.5 938,-78.5 778,-78.5"/>
<text text-anchor="middle" x="858" y="-85.5" font-family="Helvetica,sans-Serif" font-size="10.00">dialects/core/normalizers.cpp</text>
</a>
</g>
</g>
<!-- Node1&#45;&gt;Node10 -->
<g id="edge9" class="edge">
<title>Node1&#45;&gt;Node10</title>
<path fill="none" stroke="midnightblue" d="M858,-135.04C858,-122.67 858,-107.12 858,-97.63"/>
<polygon fill="midnightblue" stroke="midnightblue" points="854.5,-135.23 858,-145.23 861.5,-135.23 854.5,-135.23"/>
</g>
<!-- Node11 -->
<g id="node11" class="node">
<title>Node11</title>
<g id="a_node11"><a xlink:href="mem_8cpp.html" target="_top" xlink:title=" ">
<polygon fill="none" stroke="black" points="956,-78.5 956,-97.5 1088,-97.5 1088,-78.5 956,-78.5"/>
<text text-anchor="middle" x="1022" y="-85.5" font-family="Helvetica,sans-Serif" font-size="10.00">dialects/mem/mem.cpp</text>
</a>
</g>
</g>
<!-- Node1&#45;&gt;Node11 -->
<g id="edge10" class="edge">
<title>Node1&#45;&gt;Node11</title>
<path fill="none" stroke="midnightblue" d="M889.28,-141.6C921.84,-128.7 971.97,-108.83 1000.39,-97.56"/>
<polygon fill="midnightblue" stroke="midnightblue" points="887.78,-138.43 879.78,-145.37 890.36,-144.94 887.78,-138.43"/>
</g>
<!-- Node12 -->
<g id="node12" class="node">
<title>Node12</title>
<g id="a_node12"><a xlink:href="mem_2normalizers_8cpp.html" target="_top" xlink:title=" ">
<polygon fill="none" stroke="black" points="1106,-78.5 1106,-97.5 1270,-97.5 1270,-78.5 1106,-78.5"/>
<text text-anchor="middle" x="1188" y="-85.5" font-family="Helvetica,sans-Serif" font-size="10.00">dialects/mem/normalizers.cpp</text>
</a>
</g>
</g>
<!-- Node1&#45;&gt;Node12 -->
<g id="edge11" class="edge">
<title>Node1&#45;&gt;Node12</title>
<path fill="none" stroke="midnightblue" d="M915.68,-143.64C964.15,-134.82 1035.2,-121.61 1097,-109 1114.59,-105.41 1134.04,-101.17 1150.42,-97.53"/>
<polygon fill="midnightblue" stroke="midnightblue" points="914.91,-140.23 905.7,-145.46 916.16,-147.11 914.91,-140.23"/>
</g>
<!-- Node13 -->
<g id="node13" class="node">
<title>Node13</title>
<g id="a_node13"><a xlink:href="copy__prop_8cpp.html" target="_top" xlink:title=" ">
<polygon fill="none" stroke="black" points="1288,-73 1288,-103 1408,-103 1408,-73 1288,-73"/>
<text text-anchor="start" x="1296" y="-91" font-family="Helvetica,sans-Serif" font-size="10.00">dialects/mem/passes</text>
<text text-anchor="middle" x="1348" y="-80" font-family="Helvetica,sans-Serif" font-size="10.00">/fp/copy_prop.cpp</text>
</a>
</g>
</g>
<!-- Node1&#45;&gt;Node13 -->
<g id="edge12" class="edge">
<title>Node1&#45;&gt;Node13</title>
<path fill="none" stroke="midnightblue" d="M929.02,-150.22C1013.17,-144.87 1157.32,-132.95 1279,-109 1287.08,-107.41 1295.58,-105.31 1303.74,-103.07"/>
<polygon fill="midnightblue" stroke="midnightblue" points="928.57,-146.75 918.81,-150.86 929,-153.73 928.57,-146.75"/>
</g>
<!-- Node14 -->
<g id="node14" class="node">
<title>Node14</title>
<g id="a_node14"><a xlink:href="ssa__constr_8cpp.html" target="_top" xlink:title=" ">
<polygon fill="none" stroke="black" points="1426,-73 1426,-103 1546,-103 1546,-73 1426,-73"/>
<text text-anchor="start" x="1434" y="-91" font-family="Helvetica,sans-Serif" font-size="10.00">dialects/mem/passes</text>
<text text-anchor="middle" x="1486" y="-80" font-family="Helvetica,sans-Serif" font-size="10.00">/fp/ssa_constr.cpp</text>
</a>
</g>
</g>
<!-- Node1&#45;&gt;Node14 -->
<g id="edge13" class="edge">
<title>Node1&#45;&gt;Node14</title>
<path fill="none" stroke="midnightblue" d="M928.92,-152.86C1035.63,-150.12 1243.51,-140.79 1417,-109 1425.34,-107.47 1434.12,-105.34 1442.52,-103.04"/>
<polygon fill="midnightblue" stroke="midnightblue" points="928.82,-149.36 918.91,-153.11 928.99,-156.36 928.82,-149.36"/>
</g>
<!-- Node15 -->
<g id="node15" class="node">
<title>Node15</title>
<g id="a_node15"><a xlink:href="alloc2malloc_8cpp.html" target="_top" xlink:title=" ">
<polygon fill="none" stroke="black" points="1564,-73 1564,-103 1684,-103 1684,-73 1564,-73"/>
<text text-anchor="start" x="1572" y="-91" font-family="Helvetica,sans-Serif" font-size="10.00">dialects/mem/passes</text>
<text text-anchor="middle" x="1624" y="-80" font-family="Helvetica,sans-Serif" font-size="10.00">/rw/alloc2malloc.cpp</text>
</a>
</g>
</g>
<!-- Node1&#45;&gt;Node15 -->
<g id="edge14" class="edge">
<title>Node1&#45;&gt;Node15</title>
<path fill="none" stroke="midnightblue" d="M928.99,-154.49C1055.71,-154.24 1328.75,-148.61 1555,-109 1563.48,-107.52 1572.4,-105.38 1580.91,-103.05"/>
<polygon fill="midnightblue" stroke="midnightblue" points="928.65,-150.99 918.66,-154.5 928.66,-157.99 928.65,-150.99"/>
</g>
<!-- Node16 -->
<g id="node16" class="node">
<title>Node16</title>
<g id="a_node16"><a xlink:href="dialects_2mem_2passes_2rw_2remem__elim_8cpp.html" target="_top" xlink:title=" ">
<polygon fill="none" stroke="black" points="1702,-73 1702,-103 1822,-103 1822,-73 1702,-73"/>
<text text-anchor="start" x="1710" y="-91" font-family="Helvetica,sans-Serif" font-size="10.00">dialects/mem/passes</text>
<text text-anchor="middle" x="1762" y="-80" font-family="Helvetica,sans-Serif" font-size="10.00">/rw/remem_elim.cpp</text>
</a>
</g>
</g>
<!-- Node1&#45;&gt;Node16 -->
<g id="edge15" class="edge">
<title>Node1&#45;&gt;Node16</title>
<path fill="none" stroke="midnightblue" d="M928.82,-152.26C1102.66,-147.66 1546.87,-133.78 1693,-109 1701.61,-107.54 1710.67,-105.38 1719.29,-103.02"/>
<polygon fill="midnightblue" stroke="midnightblue" points="928.66,-148.76 918.76,-152.53 928.85,-155.76 928.66,-148.76"/>
</g>
<!-- Node5 -->
<g id="node5" class="node">
<title>Node5</title>
<g id="a_node5"><a xlink:href="clos2sjlj_8cpp.html" target="_top" xlink:title=" ">
<polygon fill="none" stroke="black" points="275.5,-0.5 275.5,-30.5 378.5,-30.5 378.5,-0.5 275.5,-0.5"/>
<text text-anchor="start" x="283.5" y="-18.5" font-family="Helvetica,sans-Serif" font-size="10.00">dialects/clos/pass</text>
<text text-anchor="middle" x="327" y="-7.5" font-family="Helvetica,sans-Serif" font-size="10.00">/rw/clos2sjlj.cpp</text>
</a>
</g>
</g>
<!-- Node4&#45;&gt;Node5 -->
<g id="edge4" class="edge">
<title>Node4&#45;&gt;Node5</title>
<path fill="none" stroke="midnightblue" d="M327,-62.73C327,-52.07 327,-39.91 327,-30.75"/>
<polygon fill="midnightblue" stroke="midnightblue" points="323.5,-62.73 327,-72.73 330.5,-62.73 323.5,-62.73"/>
</g>
<!-- Node8 -->
<g id="node8" class="node">
<title>Node8</title>
<g id="a_node8"><a xlink:href="lower__typed__clos_8cpp.html" target="_top" xlink:title=" ">
<polygon fill="none" stroke="black" points="519.5,-0.5 519.5,-30.5 644.5,-30.5 644.5,-0.5 519.5,-0.5"/>
<text text-anchor="start" x="527.5" y="-18.5" font-family="Helvetica,sans-Serif" font-size="10.00">dialects/clos/phase</text>
<text text-anchor="middle" x="582" y="-7.5" font-family="Helvetica,sans-Serif" font-size="10.00">/lower_typed_clos.cpp</text>
</a>
</g>
</g>
<!-- Node7&#45;&gt;Node8 -->
<g id="edge7" class="edge">
<title>Node7&#45;&gt;Node8</title>
<path fill="none" stroke="midnightblue" d="M582,-62.73C582,-52.07 582,-39.91 582,-30.75"/>
<polygon fill="midnightblue" stroke="midnightblue" points="578.5,-62.73 582,-72.73 585.5,-62.73 578.5,-62.73"/>
</g>
</g>
</svg>
