<?xml version="1.0" encoding="UTF-8" standalone="no"?>
<!DOCTYPE svg PUBLIC "-//W3C//DTD SVG 1.1//EN"
 "http://www.w3.org/Graphics/SVG/1.1/DTD/svg11.dtd">
<!-- Generated by graphviz version 2.43.0 (0)
 -->
<!-- Title: build/include/dialects/mem/autogen.h Pages: 1 -->
<svg width="3076pt" height="302pt"
 viewBox="0.00 0.00 3075.72 302.00" xmlns="http://www.w3.org/2000/svg" xmlns:xlink="http://www.w3.org/1999/xlink">
<g id="graph0" class="graph" transform="scale(1 1) rotate(0) translate(4 298)">
<title>build/include/dialects/mem/autogen.h</title>
<!-- Node1 -->
<g id="node1" class="node">
<title>Node1</title>
<g id="a_node1"><a xlink:title=" ">
<polygon fill="#999999" stroke="#666666" points="263.72,-294 143.72,-294 143.72,-264 263.72,-264 263.72,-294"/>
<text text-anchor="start" x="151.72" y="-282" font-family="Helvetica,sans-Serif" font-size="10.00">build/include/dialects</text>
<text text-anchor="middle" x="203.72" y="-271" font-family="Helvetica,sans-Serif" font-size="10.00">/mem/autogen.h</text>
</a>
</g>
</g>
<!-- Node2 -->
<g id="node2" class="node">
<title>Node2</title>
<g id="a_node2"><a xlink:href="lower__typed__clos__prep_8cpp.html" target="_top" xlink:title=" ">
<polygon fill="white" stroke="#666666" points="262.22,-162 145.22,-162 145.22,-121 262.22,-121 262.22,-162"/>
<text text-anchor="start" x="153.22" y="-150" font-family="Helvetica,sans-Serif" font-size="10.00">dialects/clos/pass</text>
<text text-anchor="start" x="153.22" y="-139" font-family="Helvetica,sans-Serif" font-size="10.00">/fp/lower_typed_clos</text>
<text text-anchor="middle" x="203.72" y="-128" font-family="Helvetica,sans-Serif" font-size="10.00">_prep.cpp</text>
</a>
</g>
</g>
<!-- Node1&#45;&gt;Node2 -->
<g id="edge1" class="edge">
<title>Node1&#45;&gt;Node2</title>
<path fill="none" stroke="#63b8ff" d="M203.72,-253.54C203.72,-227.38 203.72,-186.39 203.72,-162.21"/>
<polygon fill="#63b8ff" stroke="#63b8ff" points="200.22,-253.76 203.72,-263.76 207.22,-253.76 200.22,-253.76"/>
</g>
<!-- Node3 -->
<g id="node3" class="node">
<title>Node3</title>
<g id="a_node3"><a xlink:href="clos__conv_8cpp.html" target="_top" xlink:title=" ">
<polygon fill="white" stroke="#666666" points="126.72,-156.5 16.72,-156.5 16.72,-126.5 126.72,-126.5 126.72,-156.5"/>
<text text-anchor="start" x="24.72" y="-144.5" font-family="Helvetica,sans-Serif" font-size="10.00">dialects/clos/phase</text>
<text text-anchor="middle" x="71.72" y="-133.5" font-family="Helvetica,sans-Serif" font-size="10.00">/clos_conv.cpp</text>
</a>
</g>
</g>
<!-- Node1&#45;&gt;Node3 -->
<g id="edge2" class="edge">
<title>Node1&#45;&gt;Node3</title>
<path fill="none" stroke="#63b8ff" d="M186.41,-255.85C173.15,-239.33 154.07,-216.53 135.72,-198 120.92,-183.06 102.69,-167.49 89.47,-156.66"/>
<polygon fill="#63b8ff" stroke="#63b8ff" points="183.81,-258.21 192.78,-263.85 189.29,-253.85 183.81,-258.21"/>
</g>
<!-- Node4 -->
<g id="node4" class="node">
<title>Node4</title>
<g id="a_node4"><a xlink:href="clos__conv_8h.html" target="_top" xlink:title=" ">
<polygon fill="white" stroke="#666666" points="126.72,-228 16.72,-228 16.72,-198 126.72,-198 126.72,-228"/>
<text text-anchor="start" x="24.72" y="-216" font-family="Helvetica,sans-Serif" font-size="10.00">dialects/clos/phase</text>
<text text-anchor="middle" x="71.72" y="-205" font-family="Helvetica,sans-Serif" font-size="10.00">/clos_conv.h</text>
</a>
</g>
</g>
<!-- Node1&#45;&gt;Node4 -->
<g id="edge3" class="edge">
<title>Node1&#45;&gt;Node4</title>
<path fill="none" stroke="#63b8ff" d="M165.59,-259.51C144.88,-249.47 119.69,-237.26 100.62,-228.01"/>
<polygon fill="#63b8ff" stroke="#63b8ff" points="164.23,-262.74 174.75,-263.95 167.28,-256.44 164.23,-262.74"/>
</g>
<!-- Node7 -->
<g id="node7" class="node">
<title>Node7</title>
<g id="a_node7"><a xlink:href="mem_8cpp.html" target="_top" xlink:title=" ">
<polygon fill="white" stroke="#666666" points="412.72,-151 280.72,-151 280.72,-132 412.72,-132 412.72,-151"/>
<text text-anchor="middle" x="346.72" y="-139" font-family="Helvetica,sans-Serif" font-size="10.00">dialects/mem/mem.cpp</text>
</a>
</g>
</g>
<!-- Node1&#45;&gt;Node7 -->
<g id="edge7" class="edge">
<title>Node1&#45;&gt;Node7</title>
<path fill="none" stroke="#63b8ff" d="M226.33,-256.58C258.4,-226.19 315.65,-171.94 337.71,-151.03"/>
<polygon fill="#63b8ff" stroke="#63b8ff" points="223.6,-254.34 218.75,-263.76 228.42,-259.42 223.6,-254.34"/>
</g>
<!-- Node8 -->
<g id="node8" class="node">
<title>Node8</title>
<g id="a_node8"><a xlink:href="mem_8h.html" target="_top" xlink:title=" ">
<polygon fill="white" stroke="#666666" points="1476.22,-222.5 1355.22,-222.5 1355.22,-203.5 1476.22,-203.5 1476.22,-222.5"/>
<text text-anchor="middle" x="1415.72" y="-210.5" font-family="Helvetica,sans-Serif" font-size="10.00">dialects/mem/mem.h</text>
</a>
</g>
</g>
<!-- Node1&#45;&gt;Node8 -->
<g id="edge8" class="edge">
<title>Node1&#45;&gt;Node8</title>
<path fill="none" stroke="#63b8ff" d="M273.83,-274.3C491.11,-262.82 1150.81,-227.99 1354.89,-217.21"/>
<polygon fill="#63b8ff" stroke="#63b8ff" points="273.62,-270.8 263.82,-274.83 273.99,-277.79 273.62,-270.8"/>
</g>
<!-- Node4&#45;&gt;Node3 -->
<g id="edge6" class="edge">
<title>Node4&#45;&gt;Node3</title>
<path fill="none" stroke="#63b8ff" d="M71.72,-187.75C71.72,-177.31 71.72,-165.49 71.72,-156.54"/>
<polygon fill="#63b8ff" stroke="#63b8ff" points="68.22,-187.94 71.72,-197.94 75.22,-187.94 68.22,-187.94"/>
</g>
<!-- Node5 -->
<g id="node5" class="node">
<title>Node5</title>
<g id="a_node5"><a xlink:href="phase__wrapper_8h.html" target="_top" xlink:title=" ">
<polygon fill="white" stroke="#666666" points="416.22,-85 299.22,-85 299.22,-55 416.22,-55 416.22,-85"/>
<text text-anchor="start" x="307.22" y="-73" font-family="Helvetica,sans-Serif" font-size="10.00">dialects/clos/pass</text>
<text text-anchor="middle" x="357.72" y="-62" font-family="Helvetica,sans-Serif" font-size="10.00">/rw/phase_wrapper.h</text>
</a>
</g>
</g>
<!-- Node4&#45;&gt;Node5 -->
<g id="edge4" class="edge">
<title>Node4&#45;&gt;Node5</title>
<path fill="none" stroke="#63b8ff" d="M35.33,-192.37C24.4,-184.49 13.73,-174.32 7.72,-162 -0.27,-145.62 -4.22,-134.77 7.72,-121 44.72,-78.34 209.34,-71.17 299.02,-70.52"/>
<polygon fill="#63b8ff" stroke="#63b8ff" points="33.41,-195.3 43.67,-197.95 37.3,-189.48 33.41,-195.3"/>
</g>
<!-- Node6 -->
<g id="node6" class="node">
<title>Node6</title>
<g id="a_node6"><a xlink:href="clos_8cpp.html" target="_top" xlink:title=" ">
<polygon fill="white" stroke="#666666" points="664.72,-19 544.72,-19 544.72,0 664.72,0 664.72,-19"/>
<text text-anchor="middle" x="604.72" y="-7" font-family="Helvetica,sans-Serif" font-size="10.00">dialects/clos/clos.cpp</text>
</a>
</g>
</g>
<!-- Node5&#45;&gt;Node6 -->
<g id="edge5" class="edge">
<title>Node5&#45;&gt;Node6</title>
<path fill="none" stroke="#63b8ff" d="M426.2,-52.78C472.41,-41.84 531.53,-27.83 568.78,-19.01"/>
<polygon fill="#63b8ff" stroke="#63b8ff" points="425.18,-49.43 416.26,-55.14 426.79,-56.24 425.18,-49.43"/>
</g>
<!-- Node8&#45;&gt;Node2 -->
<g id="edge15" class="edge">
<title>Node8&#45;&gt;Node2</title>
<path fill="none" stroke="#63b8ff" d="M1344.85,-211.09C1128.68,-207.95 479.85,-195.9 271.72,-162 268.69,-161.51 265.6,-160.92 262.5,-160.27"/>
<polygon fill="#63b8ff" stroke="#63b8ff" points="1345.06,-214.59 1355.11,-211.23 1345.16,-207.59 1345.06,-214.59"/>
</g>
<!-- Node8&#45;&gt;Node3 -->
<g id="edge19" class="edge">
<title>Node8&#45;&gt;Node3</title>
<path fill="none" stroke="#63b8ff" d="M1344.85,-211.62C1111.87,-210 371.1,-201.77 135.72,-162 128.05,-160.7 120.01,-158.75 112.32,-156.57"/>
<polygon fill="#63b8ff" stroke="#63b8ff" points="1344.88,-215.12 1354.9,-211.69 1344.93,-208.12 1344.88,-215.12"/>
</g>
<!-- Node8&#45;&gt;Node6 -->
<g id="edge14" class="edge">
<title>Node8&#45;&gt;Node6</title>
<path fill="none" stroke="#63b8ff" d="M1486.54,-210.16C1677.09,-204.87 2188.04,-188.28 2212.72,-162 2225.19,-148.72 2224.94,-134.52 2212.72,-121 2159.8,-62.46 951.11,-21.27 665.03,-12.33"/>
<polygon fill="#63b8ff" stroke="#63b8ff" points="1486.25,-206.67 1476.35,-210.44 1486.44,-213.66 1486.25,-206.67"/>
</g>
<!-- Node8&#45;&gt;Node7 -->
<g id="edge34" class="edge">
<title>Node8&#45;&gt;Node7</title>
<path fill="none" stroke="#63b8ff" d="M1344.89,-210.32C1148.54,-205.35 599.99,-189.37 421.72,-162 405.76,-159.55 388.29,-155.11 374.22,-151.09"/>
<polygon fill="#63b8ff" stroke="#63b8ff" points="1345.01,-213.82 1355.09,-210.57 1345.18,-206.82 1345.01,-213.82"/>
</g>
<!-- Node9 -->
<g id="node9" class="node">
<title>Node9</title>
<g id="a_node9"><a xlink:href="lower__for_8cpp.html" target="_top" xlink:title=" ">
<polygon fill="white" stroke="#666666" points="1893.72,-156.5 1771.72,-156.5 1771.72,-126.5 1893.72,-126.5 1893.72,-156.5"/>
<text text-anchor="start" x="1779.72" y="-144.5" font-family="Helvetica,sans-Serif" font-size="10.00">dialects/affine/passes</text>
<text text-anchor="middle" x="1832.72" y="-133.5" font-family="Helvetica,sans-Serif" font-size="10.00">/lower_for.cpp</text>
</a>
</g>
</g>
<!-- Node8&#45;&gt;Node9 -->
<g id="edge9" class="edge">
<title>Node8&#45;&gt;Node9</title>
<path fill="none" stroke="#63b8ff" d="M1486.41,-204.51C1556.86,-196.42 1667.92,-181.95 1762.72,-162 1770.13,-160.44 1777.91,-158.54 1785.48,-156.55"/>
<polygon fill="#63b8ff" stroke="#63b8ff" points="1485.85,-201.05 1476.31,-205.66 1486.64,-208.01 1485.85,-201.05"/>
</g>
<!-- Node10 -->
<g id="node10" class="node">
<title>Node10</title>
<g id="a_node10"><a xlink:href="autodiff__aux_8cpp.html" target="_top" xlink:title=" ">
<polygon fill="white" stroke="#666666" points="2053.22,-156.5 1912.22,-156.5 1912.22,-126.5 2053.22,-126.5 2053.22,-156.5"/>
<text text-anchor="start" x="1920.22" y="-144.5" font-family="Helvetica,sans-Serif" font-size="10.00">dialects/autodiff/auxiliary</text>
<text text-anchor="middle" x="1982.72" y="-133.5" font-family="Helvetica,sans-Serif" font-size="10.00">/autodiff_aux.cpp</text>
</a>
</g>
</g>
<!-- Node8&#45;&gt;Node10 -->
<g id="edge10" class="edge">
<title>Node8&#45;&gt;Node10</title>
<path fill="none" stroke="#63b8ff" d="M1486.52,-207.78C1581.67,-201.41 1755.84,-187.32 1902.72,-162 1911.45,-160.49 1920.65,-158.57 1929.57,-156.53"/>
<polygon fill="#63b8ff" stroke="#63b8ff" points="1486.19,-204.29 1476.44,-208.44 1486.65,-211.28 1486.19,-204.29"/>
</g>
<!-- Node11 -->
<g id="node11" class="node">
<title>Node11</title>
<g id="a_node11"><a xlink:href="autodiff__eval_8cpp.html" target="_top" xlink:title=" ">
<polygon fill="white" stroke="#666666" points="2203.72,-156.5 2071.72,-156.5 2071.72,-126.5 2203.72,-126.5 2203.72,-156.5"/>
<text text-anchor="start" x="2079.72" y="-144.5" font-family="Helvetica,sans-Serif" font-size="10.00">dialects/autodiff/passes</text>
<text text-anchor="middle" x="2137.72" y="-133.5" font-family="Helvetica,sans-Serif" font-size="10.00">/autodiff_eval.cpp</text>
</a>
</g>
</g>
<!-- Node8&#45;&gt;Node11 -->
<g id="edge11" class="edge">
<title>Node8&#45;&gt;Node11</title>
<path fill="none" stroke="#63b8ff" d="M1486.48,-210.63C1606,-207.39 1855.15,-196.72 2062.72,-162 2071.21,-160.58 2080.15,-158.65 2088.77,-156.56"/>
<polygon fill="#63b8ff" stroke="#63b8ff" points="1486.27,-207.13 1476.36,-210.89 1486.45,-214.13 1486.27,-207.13"/>
</g>
<!-- Node12 -->
<g id="node12" class="node">
<title>Node12</title>
<g id="a_node12"><a xlink:href="autodiff__zero_8cpp.html" target="_top" xlink:title=" ">
<polygon fill="white" stroke="#666666" points="2391.72,-156.5 2259.72,-156.5 2259.72,-126.5 2391.72,-126.5 2391.72,-156.5"/>
<text text-anchor="start" x="2267.72" y="-144.5" font-family="Helvetica,sans-Serif" font-size="10.00">dialects/autodiff/passes</text>
<text text-anchor="middle" x="2325.72" y="-133.5" font-family="Helvetica,sans-Serif" font-size="10.00">/autodiff_zero.cpp</text>
</a>
</g>
</g>
<!-- Node8&#45;&gt;Node12 -->
<g id="edge12" class="edge">
<title>Node8&#45;&gt;Node12</title>
<path fill="none" stroke="#63b8ff" d="M1486.26,-211.99C1629.99,-211.04 1966.75,-204.06 2245.72,-162 2254.91,-160.61 2264.59,-158.68 2273.92,-156.55"/>
<polygon fill="#63b8ff" stroke="#63b8ff" points="1486.23,-208.49 1476.25,-212.05 1486.27,-215.49 1486.23,-208.49"/>
</g>
<!-- Node13 -->
<g id="node13" class="node">
<title>Node13</title>
<g id="a_node13"><a xlink:href="autodiff__zero__cleanup_8cpp.html" target="_top" xlink:title=" ">
<polygon fill="white" stroke="#666666" points="2557.22,-156.5 2410.22,-156.5 2410.22,-126.5 2557.22,-126.5 2557.22,-156.5"/>
<text text-anchor="start" x="2418.22" y="-144.5" font-family="Helvetica,sans-Serif" font-size="10.00">dialects/autodiff/passes</text>
<text text-anchor="middle" x="2483.72" y="-133.5" font-family="Helvetica,sans-Serif" font-size="10.00">/autodiff_zero_cleanup.cpp</text>
</a>
</g>
</g>
<!-- Node8&#45;&gt;Node13 -->
<g id="edge13" class="edge">
<title>Node8&#45;&gt;Node13</title>
<path fill="none" stroke="#63b8ff" d="M1486.67,-212.76C1649.24,-213.55 2060.85,-210.15 2400.72,-162 2410.39,-160.63 2420.59,-158.67 2430.41,-156.52"/>
<polygon fill="#63b8ff" stroke="#63b8ff" points="1486.34,-209.26 1476.32,-212.7 1486.31,-216.26 1486.34,-209.26"/>
</g>
<!-- Node14 -->
<g id="node14" class="node">
<title>Node14</title>
<g id="a_node14"><a xlink:href="clos2sjlj_8h.html" target="_top" xlink:title=" ">
<polygon fill="white" stroke="#666666" points="665.22,-156.5 562.22,-156.5 562.22,-126.5 665.22,-126.5 665.22,-156.5"/>
<text text-anchor="start" x="570.22" y="-144.5" font-family="Helvetica,sans-Serif" font-size="10.00">dialects/clos/pass</text>
<text text-anchor="middle" x="613.72" y="-133.5" font-family="Helvetica,sans-Serif" font-size="10.00">/rw/clos2sjlj.h</text>
</a>
</g>
</g>
<!-- Node8&#45;&gt;Node14 -->
<g id="edge16" class="edge">
<title>Node8&#45;&gt;Node14</title>
<path fill="none" stroke="#63b8ff" d="M1344.7,-212.33C1212.66,-211.79 920.89,-205.28 679.72,-162 672.08,-160.63 664.06,-158.7 656.35,-156.58"/>
<polygon fill="#63b8ff" stroke="#63b8ff" points="1345.06,-215.83 1355.07,-212.36 1345.08,-208.83 1345.06,-215.83"/>
</g>
<!-- Node16 -->
<g id="node16" class="node">
<title>Node16</title>
<g id="a_node16"><a xlink:href="lower__typed__clos_8h.html" target="_top" xlink:title=" ">
<polygon fill="white" stroke="#666666" points="544.22,-156.5 431.22,-156.5 431.22,-126.5 544.22,-126.5 544.22,-156.5"/>
<text text-anchor="start" x="439.22" y="-144.5" font-family="Helvetica,sans-Serif" font-size="10.00">dialects/clos/phase</text>
<text text-anchor="middle" x="487.72" y="-133.5" font-family="Helvetica,sans-Serif" font-size="10.00">/lower_typed_clos.h</text>
</a>
</g>
</g>
<!-- Node8&#45;&gt;Node16 -->
<g id="edge20" class="edge">
<title>Node8&#45;&gt;Node16</title>
<path fill="none" stroke="#63b8ff" d="M1345.11,-209.99C1167.43,-204.6 705.19,-188.41 553.72,-162 545.95,-160.65 537.8,-158.69 529.98,-156.54"/>
<polygon fill="#63b8ff" stroke="#63b8ff" points="1345.03,-213.49 1355.13,-210.29 1345.24,-206.49 1345.03,-213.49"/>
</g>
<!-- Node18 -->
<g id="node18" class="node">
<title>Node18</title>
<g id="a_node18"><a xlink:href="ll_8cpp.html" target="_top" xlink:title=" ">
<polygon fill="white" stroke="#666666" points="2889.22,-151 2766.22,-151 2766.22,-132 2889.22,-132 2889.22,-151"/>
<text text-anchor="middle" x="2827.72" y="-139" font-family="Helvetica,sans-Serif" font-size="10.00">dialects/core/be/ll.cpp</text>
</a>
</g>
</g>
<!-- Node8&#45;&gt;Node18 -->
<g id="edge23" class="edge">
<title>Node8&#45;&gt;Node18</title>
<path fill="none" stroke="#63b8ff" d="M1486.72,-211.34C1726.36,-208.81 2504.17,-197.97 2751.72,-162 2768.03,-159.63 2785.9,-155.14 2800.21,-151.07"/>
<polygon fill="#63b8ff" stroke="#63b8ff" points="1486.35,-207.85 1476.39,-211.45 1486.43,-214.85 1486.35,-207.85"/>
</g>
<!-- Node19 -->
<g id="node19" class="node">
<title>Node19</title>
<g id="a_node19"><a xlink:href="core_2normalizers_8cpp.html" target="_top" xlink:title=" ">
<polygon fill="white" stroke="#666666" points="3067.72,-151 2907.72,-151 2907.72,-132 3067.72,-132 3067.72,-151"/>
<text text-anchor="middle" x="2987.72" y="-139" font-family="Helvetica,sans-Serif" font-size="10.00">dialects/core/normalizers.cpp</text>
</a>
</g>
</g>
<!-- Node8&#45;&gt;Node19 -->
<g id="edge24" class="edge">
<title>Node8&#45;&gt;Node19</title>
<path fill="none" stroke="#63b8ff" d="M1486.57,-211.32C1742.76,-208.6 2620.45,-196.88 2898.72,-162 2917.71,-159.62 2938.63,-155.13 2955.42,-151.06"/>
<polygon fill="#63b8ff" stroke="#63b8ff" points="1486.24,-207.82 1476.28,-211.43 1486.32,-214.82 1486.24,-207.82"/>
</g>
<!-- Node20 -->
<g id="node20" class="node">
<title>Node20</title>
<g id="a_node20"><a xlink:href="matrix_8h.html" target="_top" xlink:title=" ">
<polygon fill="white" stroke="#666666" points="2709.72,-151 2575.72,-151 2575.72,-132 2709.72,-132 2709.72,-151"/>
<text text-anchor="middle" x="2642.72" y="-139" font-family="Helvetica,sans-Serif" font-size="10.00">dialects/matrix/matrix.h</text>
</a>
</g>
</g>
<!-- Node8&#45;&gt;Node20 -->
<g id="edge25" class="edge">
<title>Node8&#45;&gt;Node20</title>
<path fill="none" stroke="#63b8ff" d="M1486.61,-210.85C1703.6,-207.02 2356.73,-193.15 2566.72,-162 2583.02,-159.58 2600.89,-155.09 2615.21,-151.03"/>
<polygon fill="#63b8ff" stroke="#63b8ff" points="1486.24,-207.35 1476.3,-211.03 1486.36,-214.35 1486.24,-207.35"/>
</g>
<!-- Node23 -->
<g id="node23" class="node">
<title>Node23</title>
<g id="a_node23"><a xlink:href="lower__matrix__highlevel_8cpp.html" target="_top" xlink:title=" ">
<polygon fill="white" stroke="#666666" points="2961.22,-85 2806.22,-85 2806.22,-55 2961.22,-55 2961.22,-85"/>
<text text-anchor="start" x="2814.22" y="-73" font-family="Helvetica,sans-Serif" font-size="10.00">dialects/matrix/passes</text>
<text text-anchor="middle" x="2883.72" y="-62" font-family="Helvetica,sans-Serif" font-size="10.00">/lower_matrix_highlevel.cpp</text>
</a>
</g>
</g>
<!-- Node8&#45;&gt;Node23 -->
<g id="edge31" class="edge">
<title>Node8&#45;&gt;Node23</title>
<path fill="none" stroke="#63b8ff" d="M1486.84,-212.38C1742.59,-213.34 2606.42,-212.74 2718.72,-162 2741.64,-151.64 2736.88,-135.08 2757.72,-121 2781.02,-105.26 2810.03,-93.32 2834.33,-85.06"/>
<polygon fill="#63b8ff" stroke="#63b8ff" points="1486.57,-208.88 1476.55,-212.34 1486.54,-215.88 1486.57,-208.88"/>
</g>
<!-- Node24 -->
<g id="node24" class="node">
<title>Node24</title>
<g id="a_node24"><a xlink:href="lower__matrix__lowlevel_8cpp.html" target="_top" xlink:title=" ">
<polygon fill="white" stroke="#666666" points="1550.22,-85 1399.22,-85 1399.22,-55 1550.22,-55 1550.22,-85"/>
<text text-anchor="start" x="1407.22" y="-73" font-family="Helvetica,sans-Serif" font-size="10.00">dialects/matrix/passes</text>
<text text-anchor="middle" x="1474.72" y="-62" font-family="Helvetica,sans-Serif" font-size="10.00">/lower_matrix_lowlevel.cpp</text>
</a>
</g>
</g>
<!-- Node8&#45;&gt;Node24 -->
<g id="edge32" class="edge">
<title>Node8&#45;&gt;Node24</title>
<path fill="none" stroke="#63b8ff" d="M1344.93,-212.26C1175.93,-212.15 759.83,-207.23 717.72,-162 705.3,-148.66 705.27,-134.3 717.72,-121 763.6,-71.99 1216.52,-69.33 1399.05,-70.28"/>
<polygon fill="#63b8ff" stroke="#63b8ff" points="1344.97,-215.76 1354.97,-212.26 1344.97,-208.76 1344.97,-215.76"/>
</g>
<!-- Node25 -->
<g id="node25" class="node">
<title>Node25</title>
<g id="a_node25"><a xlink:href="lower__matrix__mediumlevel_8cpp.html" target="_top" xlink:title=" ">
<polygon fill="white" stroke="#666666" points="2433.72,-85 2259.72,-85 2259.72,-55 2433.72,-55 2433.72,-85"/>
<text text-anchor="start" x="2267.72" y="-73" font-family="Helvetica,sans-Serif" font-size="10.00">dialects/matrix/passes</text>
<text text-anchor="middle" x="2346.72" y="-62" font-family="Helvetica,sans-Serif" font-size="10.00">/lower_matrix_mediumlevel.cpp</text>
</a>
</g>
</g>
<!-- Node8&#45;&gt;Node25 -->
<g id="edge33" class="edge">
<title>Node8&#45;&gt;Node25</title>
<path fill="none" stroke="#63b8ff" d="M1344.6,-211.99C1181.31,-211.21 790.47,-204.85 750.72,-162 738.33,-148.64 738.04,-134.09 750.72,-121 763.95,-107.35 1927.83,-80.35 2259.45,-72.93"/>
<polygon fill="#63b8ff" stroke="#63b8ff" points="1345.01,-215.49 1355.02,-212.03 1345.04,-208.49 1345.01,-215.49"/>
</g>
<!-- Node26 -->
<g id="node26" class="node">
<title>Node26</title>
<g id="a_node26"><a xlink:href="mem_2normalizers_8cpp.html" target="_top" xlink:title=" ">
<polygon fill="white" stroke="#666666" points="923.72,-151 759.72,-151 759.72,-132 923.72,-132 923.72,-151"/>
<text text-anchor="middle" x="841.72" y="-139" font-family="Helvetica,sans-Serif" font-size="10.00">dialects/mem/normalizers.cpp</text>
</a>
</g>
</g>
<!-- Node8&#45;&gt;Node26 -->
<g id="edge35" class="edge">
<title>Node8&#45;&gt;Node26</title>
<path fill="none" stroke="#63b8ff" d="M1345.21,-207.1C1250.87,-199.99 1078.53,-185.1 932.72,-162 914.37,-159.09 894.14,-154.86 877.43,-151.08"/>
<polygon fill="#63b8ff" stroke="#63b8ff" points="1344.98,-210.59 1355.21,-207.84 1345.5,-203.61 1344.98,-210.59"/>
</g>
<!-- Node27 -->
<g id="node27" class="node">
<title>Node27</title>
<g id="a_node27"><a xlink:href="copy__prop_8cpp.html" target="_top" xlink:title=" ">
<polygon fill="white" stroke="#666666" points="1061.72,-156.5 941.72,-156.5 941.72,-126.5 1061.72,-126.5 1061.72,-156.5"/>
<text text-anchor="start" x="949.72" y="-144.5" font-family="Helvetica,sans-Serif" font-size="10.00">dialects/mem/passes</text>
<text text-anchor="middle" x="1001.72" y="-133.5" font-family="Helvetica,sans-Serif" font-size="10.00">/fp/copy_prop.cpp</text>
</a>
</g>
</g>
<!-- Node8&#45;&gt;Node27 -->
<g id="edge36" class="edge">
<title>Node8&#45;&gt;Node27</title>
<path fill="none" stroke="#63b8ff" d="M1345.11,-204.52C1275.04,-196.45 1164.8,-182.02 1070.72,-162 1063.41,-160.45 1055.74,-158.55 1048.28,-156.55"/>
<polygon fill="#63b8ff" stroke="#63b8ff" points="1344.82,-208.01 1355.15,-205.67 1345.61,-201.06 1344.82,-208.01"/>
</g>
<!-- Node28 -->
<g id="node28" class="node">
<title>Node28</title>
<g id="a_node28"><a xlink:href="ssa__constr_8cpp.html" target="_top" xlink:title=" ">
<polygon fill="white" stroke="#666666" points="1199.72,-156.5 1079.72,-156.5 1079.72,-126.5 1199.72,-126.5 1199.72,-156.5"/>
<text text-anchor="start" x="1087.72" y="-144.5" font-family="Helvetica,sans-Serif" font-size="10.00">dialects/mem/passes</text>
<text text-anchor="middle" x="1139.72" y="-133.5" font-family="Helvetica,sans-Serif" font-size="10.00">/fp/ssa_constr.cpp</text>
</a>
</g>
</g>
<!-- Node8&#45;&gt;Node28 -->
<g id="edge37" class="edge">
<title>Node8&#45;&gt;Node28</title>
<path fill="none" stroke="#63b8ff" d="M1368.64,-201.17C1326.6,-191.37 1263.4,-176.33 1208.72,-162 1202.22,-160.3 1195.39,-158.44 1188.66,-156.58"/>
<polygon fill="#63b8ff" stroke="#63b8ff" points="1368.06,-204.63 1378.59,-203.49 1369.65,-197.81 1368.06,-204.63"/>
</g>
<!-- Node29 -->
<g id="node29" class="node">
<title>Node29</title>
<g id="a_node29"><a xlink:href="alloc2malloc_8cpp.html" target="_top" xlink:title=" ">
<polygon fill="white" stroke="#666666" points="1337.72,-156.5 1217.72,-156.5 1217.72,-126.5 1337.72,-126.5 1337.72,-156.5"/>
<text text-anchor="start" x="1225.72" y="-144.5" font-family="Helvetica,sans-Serif" font-size="10.00">dialects/mem/passes</text>
<text text-anchor="middle" x="1277.72" y="-133.5" font-family="Helvetica,sans-Serif" font-size="10.00">/rw/alloc2malloc.cpp</text>
</a>
</g>
</g>
<!-- Node8&#45;&gt;Node29 -->
<g id="edge38" class="edge">
<title>Node8&#45;&gt;Node29</title>
<path fill="none" stroke="#63b8ff" d="M1389.58,-198.84C1365.56,-186.74 1330.07,-168.86 1305.53,-156.51"/>
<polygon fill="#63b8ff" stroke="#63b8ff" points="1388.29,-202.11 1398.8,-203.48 1391.44,-195.85 1388.29,-202.11"/>
</g>
<!-- Node30 -->
<g id="node30" class="node">
<title>Node30</title>
<g id="a_node30"><a xlink:href="dialects_2mem_2passes_2rw_2remem__elim_8cpp.html" target="_top" xlink:title=" ">
<polygon fill="white" stroke="#666666" points="1475.72,-156.5 1355.72,-156.5 1355.72,-126.5 1475.72,-126.5 1475.72,-156.5"/>
<text text-anchor="start" x="1363.72" y="-144.5" font-family="Helvetica,sans-Serif" font-size="10.00">dialects/mem/passes</text>
<text text-anchor="middle" x="1415.72" y="-133.5" font-family="Helvetica,sans-Serif" font-size="10.00">/rw/remem_elim.cpp</text>
</a>
</g>
</g>
<!-- Node8&#45;&gt;Node30 -->
<g id="edge39" class="edge">
<title>Node8&#45;&gt;Node30</title>
<path fill="none" stroke="#63b8ff" d="M1415.72,-193.21C1415.72,-181.69 1415.72,-167.18 1415.72,-156.64"/>
<polygon fill="#63b8ff" stroke="#63b8ff" points="1412.22,-193.48 1415.72,-203.48 1419.22,-193.48 1412.22,-193.48"/>
</g>
<!-- Node31 -->
<g id="node31" class="node">
<title>Node31</title>
<g id="a_node31"><a xlink:href="reshape_8cpp.html" target="_top" xlink:title=" ">
<polygon fill="white" stroke="#666666" points="1613.72,-156.5 1493.72,-156.5 1493.72,-126.5 1613.72,-126.5 1613.72,-156.5"/>
<text text-anchor="start" x="1501.72" y="-144.5" font-family="Helvetica,sans-Serif" font-size="10.00">dialects/mem/passes</text>
<text text-anchor="middle" x="1553.72" y="-133.5" font-family="Helvetica,sans-Serif" font-size="10.00">/rw/reshape.cpp</text>
</a>
</g>
</g>
<!-- Node8&#45;&gt;Node31 -->
<g id="edge40" class="edge">
<title>Node8&#45;&gt;Node31</title>
<path fill="none" stroke="#63b8ff" d="M1441.86,-198.84C1465.88,-186.74 1501.37,-168.86 1525.91,-156.51"/>
<polygon fill="#63b8ff" stroke="#63b8ff" points="1440,-195.85 1432.64,-203.48 1443.15,-202.11 1440,-195.85"/>
</g>
<!-- Node32 -->
<g id="node32" class="node">
<title>Node32</title>
<g id="a_node32"><a xlink:href="add__mem_8cpp.html" target="_top" xlink:title=" ">
<polygon fill="white" stroke="#666666" points="1753.22,-156.5 1632.22,-156.5 1632.22,-126.5 1753.22,-126.5 1753.22,-156.5"/>
<text text-anchor="start" x="1640.22" y="-144.5" font-family="Helvetica,sans-Serif" font-size="10.00">dialects/mem/phases</text>
<text text-anchor="middle" x="1692.72" y="-133.5" font-family="Helvetica,sans-Serif" font-size="10.00">/rw/add_mem.cpp</text>
</a>
</g>
</g>
<!-- Node8&#45;&gt;Node32 -->
<g id="edge41" class="edge">
<title>Node8&#45;&gt;Node32</title>
<path fill="none" stroke="#63b8ff" d="M1462.78,-201.12C1504.82,-191.29 1568.01,-176.22 1622.72,-162 1629.31,-160.29 1636.24,-158.43 1643.06,-156.56"/>
<polygon fill="#63b8ff" stroke="#63b8ff" points="1461.78,-197.76 1452.84,-203.44 1463.37,-204.58 1461.78,-197.76"/>
</g>
<!-- Node14&#45;&gt;Node6 -->
<g id="edge17" class="edge">
<title>Node14&#45;&gt;Node6</title>
<path fill="none" stroke="#63b8ff" d="M612.03,-116.07C609.99,-86.67 606.68,-38.81 605.33,-19.25"/>
<polygon fill="#63b8ff" stroke="#63b8ff" points="608.56,-116.61 612.74,-126.34 615.54,-116.12 608.56,-116.61"/>
</g>
<!-- Node15 -->
<g id="node15" class="node">
<title>Node15</title>
<g id="a_node15"><a xlink:href="clos2sjlj_8cpp.html" target="_top" xlink:title=" ">
<polygon fill="white" stroke="#666666" points="736.22,-85 633.22,-85 633.22,-55 736.22,-55 736.22,-85"/>
<text text-anchor="start" x="641.22" y="-73" font-family="Helvetica,sans-Serif" font-size="10.00">dialects/clos/pass</text>
<text text-anchor="middle" x="684.72" y="-62" font-family="Helvetica,sans-Serif" font-size="10.00">/rw/clos2sjlj.cpp</text>
</a>
</g>
</g>
<!-- Node14&#45;&gt;Node15 -->
<g id="edge18" class="edge">
<title>Node14&#45;&gt;Node15</title>
<path fill="none" stroke="#63b8ff" d="M635.51,-119.17C646.84,-108.08 660.37,-94.84 670.37,-85.04"/>
<polygon fill="#63b8ff" stroke="#63b8ff" points="632.79,-116.94 628.09,-126.44 637.68,-121.94 632.79,-116.94"/>
</g>
<!-- Node16&#45;&gt;Node5 -->
<g id="edge21" class="edge">
<title>Node16&#45;&gt;Node5</title>
<path fill="none" stroke="#63b8ff" d="M452.53,-121.69C430.93,-110.14 403.71,-95.59 383.99,-85.04"/>
<polygon fill="#63b8ff" stroke="#63b8ff" points="450.94,-124.81 461.41,-126.44 454.24,-118.63 450.94,-124.81"/>
</g>
<!-- Node17 -->
<g id="node17" class="node">
<title>Node17</title>
<g id="a_node17"><a xlink:href="lower__typed__clos_8cpp.html" target="_top" xlink:title=" ">
<polygon fill="white" stroke="#666666" points="559.22,-85 434.22,-85 434.22,-55 559.22,-55 559.22,-85"/>
<text text-anchor="start" x="442.22" y="-73" font-family="Helvetica,sans-Serif" font-size="10.00">dialects/clos/phase</text>
<text text-anchor="middle" x="496.72" y="-62" font-family="Helvetica,sans-Serif" font-size="10.00">/lower_typed_clos.cpp</text>
</a>
</g>
</g>
<!-- Node16&#45;&gt;Node17 -->
<g id="edge22" class="edge">
<title>Node16&#45;&gt;Node17</title>
<path fill="none" stroke="#63b8ff" d="M490.86,-116.25C492.21,-105.81 493.74,-93.99 494.9,-85.04"/>
<polygon fill="#63b8ff" stroke="#63b8ff" points="487.35,-116.07 489.54,-126.44 494.3,-116.97 487.35,-116.07"/>
</g>
<!-- Node21 -->
<g id="node21" class="node">
<title>Node21</title>
<g id="a_node21"><a xlink:href="matrix_8cpp.html" target="_top" xlink:title=" ">
<polygon fill="white" stroke="#666666" points="2787.72,-79.5 2641.72,-79.5 2641.72,-60.5 2787.72,-60.5 2787.72,-79.5"/>
<text text-anchor="middle" x="2714.72" y="-67.5" font-family="Helvetica,sans-Serif" font-size="10.00">dialects/matrix/matrix.cpp</text>
</a>
</g>
</g>
<!-- Node20&#45;&gt;Node21 -->
<g id="edge26" class="edge">
<title>Node20&#45;&gt;Node21</title>
<path fill="none" stroke="#63b8ff" d="M2658.86,-124.92C2673.37,-110.92 2694.12,-90.88 2705.82,-79.59"/>
<polygon fill="#63b8ff" stroke="#63b8ff" points="2656.31,-122.51 2651.55,-131.98 2661.17,-127.55 2656.31,-122.51"/>
</g>
<!-- Node22 -->
<g id="node22" class="node">
<title>Node22</title>
<g id="a_node22"><a xlink:href="matrix_2normalizers_8cpp.html" target="_top" xlink:title=" ">
<polygon fill="white" stroke="#666666" points="2623.22,-79.5 2452.22,-79.5 2452.22,-60.5 2623.22,-60.5 2623.22,-79.5"/>
<text text-anchor="middle" x="2537.72" y="-67.5" font-family="Helvetica,sans-Serif" font-size="10.00">dialects/matrix/normalizers.cpp</text>
</a>
</g>
</g>
<!-- Node20&#45;&gt;Node22 -->
<g id="edge27" class="edge">
<title>Node20&#45;&gt;Node22</title>
<path fill="none" stroke="#63b8ff" d="M2621.49,-126.45C2600.29,-112.41 2568.39,-91.3 2550.7,-79.59"/>
<polygon fill="#63b8ff" stroke="#63b8ff" points="2619.57,-129.38 2629.84,-131.98 2623.44,-123.54 2619.57,-129.38"/>
</g>
<!-- Node20&#45;&gt;Node23 -->
<g id="edge28" class="edge">
<title>Node20&#45;&gt;Node23</title>
<path fill="none" stroke="#63b8ff" d="M2682.1,-129.14C2723.93,-117.08 2790.11,-98 2835.15,-85.01"/>
<polygon fill="#63b8ff" stroke="#63b8ff" points="2680.91,-125.84 2672.27,-131.98 2682.85,-132.57 2680.91,-125.84"/>
</g>
<!-- Node20&#45;&gt;Node24 -->
<g id="edge29" class="edge">
<title>Node20&#45;&gt;Node24</title>
<path fill="none" stroke="#63b8ff" d="M2605.35,-129.29C2593.15,-126.06 2579.46,-122.9 2566.72,-121 2370.11,-91.6 1763.97,-76.83 1550.26,-72.44"/>
<polygon fill="#63b8ff" stroke="#63b8ff" points="2604.64,-132.72 2615.21,-131.98 2606.49,-125.97 2604.64,-132.72"/>
</g>
<!-- Node20&#45;&gt;Node25 -->
<g id="edge30" class="edge">
<title>Node20&#45;&gt;Node25</title>
<path fill="none" stroke="#63b8ff" d="M2600.44,-129.43C2589.47,-126.62 2577.67,-123.65 2566.72,-121 2514.37,-108.34 2454.79,-94.85 2410.85,-85.08"/>
<polygon fill="#63b8ff" stroke="#63b8ff" points="2599.67,-132.85 2610.22,-131.95 2601.41,-126.07 2599.67,-132.85"/>
</g>
</g>
</svg>
