<?xml version="1.0" encoding="UTF-8" standalone="no"?>
<!DOCTYPE svg PUBLIC "-//W3C//DTD SVG 1.1//EN"
 "http://www.w3.org/Graphics/SVG/1.1/DTD/svg11.dtd">
<!-- Generated by graphviz version 2.43.0 (0)
 -->
<!-- Title: build/include/dialects/mem/autogen.h Pages: 1 -->
<!--zoomable 302 -->
<svg id="main" version="1.1" xmlns="http://www.w3.org/2000/svg" xmlns:xlink="http://www.w3.org/1999/xlink" xml:space="preserve" onload="init(evt)">
<style type="text/css"><![CDATA[
.edge:hover path { stroke: red; }
.edge:hover polygon { stroke: red; fill: red; }
]]></style>
<script type="text/javascript"><![CDATA[
var edges = document.getElementsByTagName('g');
if (edges && edges.length) {
  for (var i=0;i<edges.length;i++) {
    if (edges[i].id.substr(0,4)=='edge') {
      edges[i].setAttribute('class','edge');
    }
  }
}
]]></script>
        <defs>
                <circle id="rim" cx="0" cy="0" r="7"/>
                <circle id="rim2" cx="0" cy="0" r="3.5"/>
                <g id="zoomPlus">
                        <use xlink:href="#rim" fill="#404040">
                                <set attributeName="fill" to="#808080" begin="zoomplus.mouseover" end="zoomplus.mouseout"/>
                        </use>
                        <path d="M-4,0h8M0,-4v8" fill="none" stroke="white" stroke-width="1.5" pointer-events="none"/>
                </g>
                <g id="zoomMin">
                        <use xlink:href="#rim" fill="#404040">
                                <set attributeName="fill" to="#808080" begin="zoomminus.mouseover" end="zoomminus.mouseout"/>
                        </use>
                        <path d="M-4,0h8" fill="none" stroke="white" stroke-width="1.5" pointer-events="none"/>
                </g>
                <g id="dirArrow">
                        <path fill="none" stroke="white" stroke-width="1.5" d="M0,-3.0v7 M-2.5,-0.5L0,-3.0L2.5,-0.5"/>
                </g>
               <g id="resetDef">
                       <use xlink:href="#rim2" fill="#404040">
                               <set attributeName="fill" to="#808080" begin="reset.mouseover" end="reset.mouseout"/>
                       </use>
               </g>
        </defs>

<script type="text/javascript">
var viewWidth = 3229;
var viewHeight = 302;
var sectionId = 'dynsection-1';
</script>
<script xlink:href="svgpan.js"/>
<svg id="graph" class="graph">
<g id="viewport">
<title>build/include/dialects/mem/autogen.h</title>
<!-- Node1 -->
<g id="node1" class="node">
<title>Node1</title>
<g id="a_node1"><a xlink:title=" ">
<polygon fill="#999999" stroke="#666666" points="1680.5,-294 1560.5,-294 1560.5,-264 1680.5,-264 1680.5,-294"/>
<text text-anchor="start" x="1568.5" y="-282" font-family="Helvetica,sans-Serif" font-size="10.00">build/include/dialects</text>
<text text-anchor="middle" x="1620.5" y="-271" font-family="Helvetica,sans-Serif" font-size="10.00">/mem/autogen.h</text>
</a>
</g>
</g>
<!-- Node2 -->
<g id="node2" class="node">
<title>Node2</title>
<g id="a_node2"><a xlink:href="lower__typed__clos__prep_8cpp.html" target="_top" xlink:title=" ">
<polygon fill="white" stroke="#666666" points="117,-162 0,-162 0,-121 117,-121 117,-162"/>
<text text-anchor="start" x="8" y="-150" font-family="Helvetica,sans-Serif" font-size="10.00">dialects/clos/pass</text>
<text text-anchor="start" x="8" y="-139" font-family="Helvetica,sans-Serif" font-size="10.00">/fp/lower_typed_clos</text>
<text text-anchor="middle" x="58.5" y="-128" font-family="Helvetica,sans-Serif" font-size="10.00">_prep.cpp</text>
</a>
</g>
</g>
<!-- Node1&#45;&gt;Node2 -->
<g id="edge1" class="edge">
<title>Node1&#45;&gt;Node2</title>
<path fill="none" stroke="#63b8ff" d="M1550.2,-277.63C1376.4,-276.08 912.74,-268.2 528.5,-228 348.42,-209.16 303.16,-201.69 126.5,-162 123.5,-161.33 120.45,-160.6 117.36,-159.83"/>
<polygon fill="#63b8ff" stroke="#63b8ff" points="1550.21,-281.13 1560.24,-277.71 1550.27,-274.13 1550.21,-281.13"/>
</g>
<!-- Node3 -->
<g id="node3" class="node">
<title>Node3</title>
<g id="a_node3"><a xlink:href="clos__conv_8cpp.html" target="_top" xlink:title=" ">
<polygon fill="white" stroke="#666666" points="3204.5,-156.5 3094.5,-156.5 3094.5,-126.5 3204.5,-126.5 3204.5,-156.5"/>
<text text-anchor="start" x="3102.5" y="-144.5" font-family="Helvetica,sans-Serif" font-size="10.00">dialects/clos/phase</text>
<text text-anchor="middle" x="3149.5" y="-133.5" font-family="Helvetica,sans-Serif" font-size="10.00">/clos_conv.cpp</text>
</a>
</g>
</g>
<!-- Node1&#45;&gt;Node3 -->
<g id="edge2" class="edge">
<title>Node1&#45;&gt;Node3</title>
<path fill="none" stroke="#63b8ff" d="M1690.85,-277.81C1903.29,-276.08 2556.17,-262.37 3085.5,-162 3092.92,-160.59 3100.69,-158.64 3108.17,-156.52"/>
<polygon fill="#63b8ff" stroke="#63b8ff" points="1690.75,-274.31 1680.77,-277.88 1690.8,-281.31 1690.75,-274.31"/>
</g>
<!-- Node4 -->
<g id="node4" class="node">
<title>Node4</title>
<g id="a_node4"><a xlink:href="clos__conv_8h.html" target="_top" xlink:title=" ">
<polygon fill="white" stroke="#666666" points="3204.5,-228 3094.5,-228 3094.5,-198 3204.5,-198 3204.5,-228"/>
<text text-anchor="start" x="3102.5" y="-216" font-family="Helvetica,sans-Serif" font-size="10.00">dialects/clos/phase</text>
<text text-anchor="middle" x="3149.5" y="-205" font-family="Helvetica,sans-Serif" font-size="10.00">/clos_conv.h</text>
</a>
</g>
</g>
<!-- Node1&#45;&gt;Node4 -->
<g id="edge3" class="edge">
<title>Node1&#45;&gt;Node4</title>
<path fill="none" stroke="#63b8ff" d="M1691.03,-275.05C1952.16,-264.12 2861.03,-226.07 3094.5,-216.3"/>
<polygon fill="#63b8ff" stroke="#63b8ff" points="1690.75,-271.56 1680.91,-275.47 1691.05,-278.55 1690.75,-271.56"/>
</g>
<!-- Node7 -->
<g id="node7" class="node">
<title>Node7</title>
<g id="a_node7"><a xlink:href="mem_8cpp.html" target="_top" xlink:title=" ">
<polygon fill="white" stroke="#666666" points="267.5,-151 135.5,-151 135.5,-132 267.5,-132 267.5,-151"/>
<text text-anchor="middle" x="201.5" y="-139" font-family="Helvetica,sans-Serif" font-size="10.00">dialects/mem/mem.cpp</text>
</a>
</g>
</g>
<!-- Node1&#45;&gt;Node7 -->
<g id="edge7" class="edge">
<title>Node1&#45;&gt;Node7</title>
<path fill="none" stroke="#63b8ff" d="M1550.34,-276.1C1350.08,-269.79 759.17,-244.97 276.5,-162 260.85,-159.31 243.7,-154.96 229.75,-151.05"/>
<polygon fill="#63b8ff" stroke="#63b8ff" points="1550.32,-279.6 1560.43,-276.41 1550.54,-272.61 1550.32,-279.6"/>
</g>
<!-- Node8 -->
<g id="node8" class="node">
<title>Node8</title>
<g id="a_node8"><a xlink:href="mem_8h.html" target="_top" xlink:title=" ">
<polygon fill="white" stroke="#666666" points="1681,-222.5 1560,-222.5 1560,-203.5 1681,-203.5 1681,-222.5"/>
<text text-anchor="middle" x="1620.5" y="-210.5" font-family="Helvetica,sans-Serif" font-size="10.00">dialects/mem/mem.h</text>
</a>
</g>
</g>
<!-- Node1&#45;&gt;Node8 -->
<g id="edge8" class="edge">
<title>Node1&#45;&gt;Node8</title>
<path fill="none" stroke="#63b8ff" d="M1620.5,-253.6C1620.5,-242.8 1620.5,-230.78 1620.5,-222.84"/>
<polygon fill="#63b8ff" stroke="#63b8ff" points="1617,-253.8 1620.5,-263.8 1624,-253.8 1617,-253.8"/>
</g>
<!-- Node4&#45;&gt;Node3 -->
<g id="edge6" class="edge">
<title>Node4&#45;&gt;Node3</title>
<path fill="none" stroke="#63b8ff" d="M3149.5,-187.75C3149.5,-177.31 3149.5,-165.49 3149.5,-156.54"/>
<polygon fill="#63b8ff" stroke="#63b8ff" points="3146,-187.94 3149.5,-197.94 3153,-187.94 3146,-187.94"/>
</g>
<!-- Node5 -->
<g id="node5" class="node">
<title>Node5</title>
<g id="a_node5"><a xlink:href="phase__wrapper_8h.html" target="_top" xlink:title=" ">
<polygon fill="white" stroke="#666666" points="2647,-85 2530,-85 2530,-55 2647,-55 2647,-85"/>
<text text-anchor="start" x="2538" y="-73" font-family="Helvetica,sans-Serif" font-size="10.00">dialects/clos/pass</text>
<text text-anchor="middle" x="2588.5" y="-62" font-family="Helvetica,sans-Serif" font-size="10.00">/rw/phase_wrapper.h</text>
</a>
</g>
</g>
<!-- Node4&#45;&gt;Node5 -->
<g id="edge4" class="edge">
<title>Node4&#45;&gt;Node5</title>
<path fill="none" stroke="#63b8ff" d="M3185.89,-192.37C3196.82,-184.49 3207.49,-174.32 3213.5,-162 3221.49,-145.62 3225.86,-134.39 3213.5,-121 3175.54,-79.88 2795.33,-72.56 2647.17,-71.27"/>
<polygon fill="#63b8ff" stroke="#63b8ff" points="3183.91,-189.48 3177.55,-197.95 3187.81,-195.3 3183.91,-189.48"/>
</g>
<!-- Node6 -->
<g id="node6" class="node">
<title>Node6</title>
<g id="a_node6"><a xlink:href="clos_8cpp.html" target="_top" xlink:title=" ">
<polygon fill="white" stroke="#666666" points="2383.5,-19 2263.5,-19 2263.5,0 2383.5,0 2383.5,-19"/>
<text text-anchor="middle" x="2323.5" y="-7" font-family="Helvetica,sans-Serif" font-size="10.00">dialects/clos/clos.cpp</text>
</a>
</g>
</g>
<!-- Node5&#45;&gt;Node6 -->
<g id="edge5" class="edge">
<title>Node5&#45;&gt;Node6</title>
<path fill="none" stroke="#63b8ff" d="M2519.87,-53.85C2469.65,-42.76 2403.35,-28.13 2362.07,-19.02"/>
<polygon fill="#63b8ff" stroke="#63b8ff" points="2519.17,-57.28 2529.69,-56.02 2520.68,-50.44 2519.17,-57.28"/>
</g>
<!-- Node8&#45;&gt;Node2 -->
<g id="edge15" class="edge">
<title>Node8&#45;&gt;Node2</title>
<path fill="none" stroke="#63b8ff" d="M1549.47,-211.93C1291.66,-211.33 405.74,-206.02 126.5,-162 123.47,-161.52 120.38,-160.95 117.27,-160.31"/>
<polygon fill="#63b8ff" stroke="#63b8ff" points="1549.82,-215.43 1559.83,-211.96 1549.84,-208.43 1549.82,-215.43"/>
</g>
<!-- Node8&#45;&gt;Node3 -->
<g id="edge19" class="edge">
<title>Node8&#45;&gt;Node3</title>
<path fill="none" stroke="#63b8ff" d="M1691.36,-210.67C1965.42,-205.38 2947.48,-184.97 3085.5,-162 3093.29,-160.7 3101.46,-158.72 3109.25,-156.51"/>
<polygon fill="#63b8ff" stroke="#63b8ff" points="1691.08,-207.17 1681.15,-210.87 1691.21,-214.17 1691.08,-207.17"/>
</g>
<!-- Node8&#45;&gt;Node6 -->
<g id="edge14" class="edge">
<title>Node8&#45;&gt;Node6</title>
<path fill="none" stroke="#63b8ff" d="M1549.89,-210.64C1344.57,-206.35 760.45,-191.57 732.5,-162 719.98,-148.76 721.04,-135.17 732.5,-121 820.51,-12.13 901.56,-72.16 1040.5,-55 1281.74,-25.21 2043.33,-13.88 2263.4,-11.18"/>
<polygon fill="#63b8ff" stroke="#63b8ff" points="1549.89,-214.14 1559.96,-210.85 1550.03,-207.14 1549.89,-214.14"/>
</g>
<!-- Node8&#45;&gt;Node7 -->
<g id="edge34" class="edge">
<title>Node8&#45;&gt;Node7</title>
<path fill="none" stroke="#63b8ff" d="M1549.84,-209.58C1277.33,-200.21 308.25,-166.66 276.5,-162 260.39,-159.64 242.76,-155.15 228.64,-151.08"/>
<polygon fill="#63b8ff" stroke="#63b8ff" points="1549.88,-213.08 1560,-209.93 1550.13,-206.09 1549.88,-213.08"/>
</g>
<!-- Node9 -->
<g id="node9" class="node">
<title>Node9</title>
<g id="a_node9"><a xlink:href="lower__for_8cpp.html" target="_top" xlink:title=" ">
<polygon fill="white" stroke="#666666" points="863.5,-156.5 741.5,-156.5 741.5,-126.5 863.5,-126.5 863.5,-156.5"/>
<text text-anchor="start" x="749.5" y="-144.5" font-family="Helvetica,sans-Serif" font-size="10.00">dialects/affine/passes</text>
<text text-anchor="middle" x="802.5" y="-133.5" font-family="Helvetica,sans-Serif" font-size="10.00">/lower_for.cpp</text>
</a>
</g>
</g>
<!-- Node8&#45;&gt;Node9 -->
<g id="edge9" class="edge">
<title>Node8&#45;&gt;Node9</title>
<path fill="none" stroke="#63b8ff" d="M1549.84,-211.63C1417.19,-209.97 1122.21,-201.69 877.5,-162 868.87,-160.6 859.78,-158.65 851.03,-156.53"/>
<polygon fill="#63b8ff" stroke="#63b8ff" points="1549.83,-215.13 1559.87,-211.75 1549.91,-208.13 1549.83,-215.13"/>
</g>
<!-- Node10 -->
<g id="node10" class="node">
<title>Node10</title>
<g id="a_node10"><a xlink:href="autodiff_8cpp.html" target="_top" xlink:title=" ">
<polygon fill="white" stroke="#666666" points="1075.5,-151 919.5,-151 919.5,-132 1075.5,-132 1075.5,-151"/>
<text text-anchor="middle" x="997.5" y="-139" font-family="Helvetica,sans-Serif" font-size="10.00">dialects/autodiff/autodiff.cpp</text>
</a>
</g>
</g>
<!-- Node8&#45;&gt;Node10 -->
<g id="edge10" class="edge">
<title>Node8&#45;&gt;Node10</title>
<path fill="none" stroke="#63b8ff" d="M1549.63,-208.27C1446.7,-202.21 1250.06,-188.17 1084.5,-162 1066.61,-159.17 1046.9,-154.86 1030.77,-151"/>
<polygon fill="#63b8ff" stroke="#63b8ff" points="1549.71,-211.78 1559.9,-208.87 1550.12,-204.8 1549.71,-211.78"/>
</g>
<!-- Node11 -->
<g id="node11" class="node">
<title>Node11</title>
<g id="a_node11"><a xlink:href="autodiff__eval_8cpp.html" target="_top" xlink:title=" ">
<polygon fill="white" stroke="#666666" points="1225.5,-156.5 1093.5,-156.5 1093.5,-126.5 1225.5,-126.5 1225.5,-156.5"/>
<text text-anchor="start" x="1101.5" y="-144.5" font-family="Helvetica,sans-Serif" font-size="10.00">dialects/autodiff/passes</text>
<text text-anchor="middle" x="1159.5" y="-133.5" font-family="Helvetica,sans-Serif" font-size="10.00">/autodiff_eval.cpp</text>
</a>
</g>
</g>
<!-- Node8&#45;&gt;Node11 -->
<g id="edge11" class="edge">
<title>Node8&#45;&gt;Node11</title>
<path fill="none" stroke="#63b8ff" d="M1549.79,-205.53C1472.06,-197.8 1343.7,-183.18 1234.5,-162 1226.58,-160.46 1218.25,-158.58 1210.14,-156.59"/>
<polygon fill="#63b8ff" stroke="#63b8ff" points="1549.66,-209.03 1559.95,-206.53 1550.34,-202.07 1549.66,-209.03"/>
</g>
<!-- Node12 -->
<g id="node12" class="node">
<title>Node12</title>
<g id="a_node12"><a xlink:href="autodiff__zero_8cpp.html" target="_top" xlink:title=" ">
<polygon fill="white" stroke="#666666" points="1375.5,-156.5 1243.5,-156.5 1243.5,-126.5 1375.5,-126.5 1375.5,-156.5"/>
<text text-anchor="start" x="1251.5" y="-144.5" font-family="Helvetica,sans-Serif" font-size="10.00">dialects/autodiff/passes</text>
<text text-anchor="middle" x="1309.5" y="-133.5" font-family="Helvetica,sans-Serif" font-size="10.00">/autodiff_zero.cpp</text>
</a>
</g>
</g>
<!-- Node8&#45;&gt;Node12 -->
<g id="edge12" class="edge">
<title>Node8&#45;&gt;Node12</title>
<path fill="none" stroke="#63b8ff" d="M1567.83,-201.45C1520.11,-191.73 1447.93,-176.64 1385.5,-162 1378.21,-160.29 1370.54,-158.41 1362.99,-156.52"/>
<polygon fill="#63b8ff" stroke="#63b8ff" points="1567.43,-204.94 1577.93,-203.5 1568.82,-198.08 1567.43,-204.94"/>
</g>
<!-- Node13 -->
<g id="node13" class="node">
<title>Node13</title>
<g id="a_node13"><a xlink:href="autodiff__zero__cleanup_8cpp.html" target="_top" xlink:title=" ">
<polygon fill="white" stroke="#666666" points="1541,-156.5 1394,-156.5 1394,-126.5 1541,-126.5 1541,-156.5"/>
<text text-anchor="start" x="1402" y="-144.5" font-family="Helvetica,sans-Serif" font-size="10.00">dialects/autodiff/passes</text>
<text text-anchor="middle" x="1467.5" y="-133.5" font-family="Helvetica,sans-Serif" font-size="10.00">/autodiff_zero_cleanup.cpp</text>
</a>
</g>
</g>
<!-- Node8&#45;&gt;Node13 -->
<g id="edge13" class="edge">
<title>Node8&#45;&gt;Node13</title>
<path fill="none" stroke="#63b8ff" d="M1592.58,-199.32C1565.94,-187.22 1525.9,-169.03 1498.34,-156.51"/>
<polygon fill="#63b8ff" stroke="#63b8ff" points="1591.19,-202.53 1601.74,-203.48 1594.08,-196.16 1591.19,-202.53"/>
</g>
<!-- Node14 -->
<g id="node14" class="node">
<title>Node14</title>
<g id="a_node14"><a xlink:href="clos2sjlj_8h.html" target="_top" xlink:title=" ">
<polygon fill="white" stroke="#666666" points="2210,-156.5 2107,-156.5 2107,-126.5 2210,-126.5 2210,-156.5"/>
<text text-anchor="start" x="2115" y="-144.5" font-family="Helvetica,sans-Serif" font-size="10.00">dialects/clos/pass</text>
<text text-anchor="middle" x="2158.5" y="-133.5" font-family="Helvetica,sans-Serif" font-size="10.00">/rw/clos2sjlj.h</text>
</a>
</g>
</g>
<!-- Node8&#45;&gt;Node14 -->
<g id="edge16" class="edge">
<title>Node8&#45;&gt;Node14</title>
<path fill="none" stroke="#63b8ff" d="M1691.12,-208.53C1783.94,-203.06 1951.7,-190.02 2092.5,-162 2099.88,-160.53 2107.63,-158.6 2115.11,-156.53"/>
<polygon fill="#63b8ff" stroke="#63b8ff" points="1690.79,-205.04 1681.01,-209.11 1691.19,-212.03 1690.79,-205.04"/>
</g>
<!-- Node16 -->
<g id="node16" class="node">
<title>Node16</title>
<g id="a_node16"><a xlink:href="lower__typed__clos_8h.html" target="_top" xlink:title=" ">
<polygon fill="white" stroke="#666666" points="2524,-156.5 2411,-156.5 2411,-126.5 2524,-126.5 2524,-156.5"/>
<text text-anchor="start" x="2419" y="-144.5" font-family="Helvetica,sans-Serif" font-size="10.00">dialects/clos/phase</text>
<text text-anchor="middle" x="2467.5" y="-133.5" font-family="Helvetica,sans-Serif" font-size="10.00">/lower_typed_clos.h</text>
</a>
</g>
</g>
<!-- Node8&#45;&gt;Node16 -->
<g id="edge20" class="edge">
<title>Node8&#45;&gt;Node16</title>
<path fill="none" stroke="#63b8ff" d="M1691.33,-212.73C1829.19,-212.99 2142.76,-207.91 2401.5,-162 2409.26,-160.62 2417.41,-158.66 2425.23,-156.5"/>
<polygon fill="#63b8ff" stroke="#63b8ff" points="1691.32,-209.23 1681.31,-212.7 1691.3,-216.23 1691.32,-209.23"/>
</g>
<!-- Node18 -->
<g id="node18" class="node">
<title>Node18</title>
<g id="a_node18"><a xlink:href="ll_8cpp.html" target="_top" xlink:title=" ">
<polygon fill="white" stroke="#666666" points="1682,-151 1559,-151 1559,-132 1682,-132 1682,-151"/>
<text text-anchor="middle" x="1620.5" y="-139" font-family="Helvetica,sans-Serif" font-size="10.00">dialects/core/be/ll.cpp</text>
</a>
</g>
</g>
<!-- Node8&#45;&gt;Node18 -->
<g id="edge23" class="edge">
<title>Node8&#45;&gt;Node18</title>
<path fill="none" stroke="#63b8ff" d="M1620.5,-193.21C1620.5,-179.5 1620.5,-161.55 1620.5,-151.09"/>
<polygon fill="#63b8ff" stroke="#63b8ff" points="1617,-193.48 1620.5,-203.48 1624,-193.48 1617,-193.48"/>
</g>
<!-- Node19 -->
<g id="node19" class="node">
<title>Node19</title>
<g id="a_node19"><a xlink:href="core_2normalizers_8cpp.html" target="_top" xlink:title=" ">
<polygon fill="white" stroke="#666666" points="1860.5,-151 1700.5,-151 1700.5,-132 1860.5,-132 1860.5,-151"/>
<text text-anchor="middle" x="1780.5" y="-139" font-family="Helvetica,sans-Serif" font-size="10.00">dialects/core/normalizers.cpp</text>
</a>
</g>
</g>
<!-- Node8&#45;&gt;Node19 -->
<g id="edge24" class="edge">
<title>Node8&#45;&gt;Node19</title>
<path fill="none" stroke="#63b8ff" d="M1649.46,-199.42C1681.66,-185.43 1732.8,-163.22 1760.72,-151.09"/>
<polygon fill="#63b8ff" stroke="#63b8ff" points="1647.9,-196.28 1640.12,-203.48 1650.69,-202.7 1647.9,-196.28"/>
</g>
<!-- Node20 -->
<g id="node20" class="node">
<title>Node20</title>
<g id="a_node20"><a xlink:href="matrix_8h.html" target="_top" xlink:title=" ">
<polygon fill="white" stroke="#666666" points="2050.5,-151 1916.5,-151 1916.5,-132 2050.5,-132 2050.5,-151"/>
<text text-anchor="middle" x="1983.5" y="-139" font-family="Helvetica,sans-Serif" font-size="10.00">dialects/matrix/matrix.h</text>
</a>
</g>
</g>
<!-- Node8&#45;&gt;Node20 -->
<g id="edge25" class="edge">
<title>Node8&#45;&gt;Node20</title>
<path fill="none" stroke="#63b8ff" d="M1684.22,-201.84C1741.51,-192.43 1827.89,-177.58 1902.5,-162 1918.22,-158.72 1935.53,-154.62 1950.11,-151.02"/>
<polygon fill="#63b8ff" stroke="#63b8ff" points="1683.53,-198.4 1674.22,-203.47 1684.66,-205.31 1683.53,-198.4"/>
</g>
<!-- Node23 -->
<g id="node23" class="node">
<title>Node23</title>
<g id="a_node23"><a xlink:href="lower__matrix__highlevel_8cpp.html" target="_top" xlink:title=" ">
<polygon fill="white" stroke="#666666" points="2174,-85 2019,-85 2019,-55 2174,-55 2174,-85"/>
<text text-anchor="start" x="2027" y="-73" font-family="Helvetica,sans-Serif" font-size="10.00">dialects/matrix/passes</text>
<text text-anchor="middle" x="2096.5" y="-62" font-family="Helvetica,sans-Serif" font-size="10.00">/lower_matrix_highlevel.cpp</text>
</a>
</g>
</g>
<!-- Node8&#45;&gt;Node23 -->
<g id="edge31" class="edge">
<title>Node8&#45;&gt;Node23</title>
<path fill="none" stroke="#63b8ff" d="M1691.69,-212.48C1800.95,-211.83 2003.26,-204.67 2059.5,-162 2084.09,-143.34 2092.41,-105.58 2095.17,-85.05"/>
<polygon fill="#63b8ff" stroke="#63b8ff" points="1691.4,-208.98 1681.42,-212.53 1691.43,-215.98 1691.4,-208.98"/>
</g>
<!-- Node24 -->
<g id="node24" class="node">
<title>Node24</title>
<g id="a_node24"><a xlink:href="lower__matrix__lowlevel_8cpp.html" target="_top" xlink:title=" ">
<polygon fill="white" stroke="#666666" points="1201,-85 1050,-85 1050,-55 1201,-55 1201,-85"/>
<text text-anchor="start" x="1058" y="-73" font-family="Helvetica,sans-Serif" font-size="10.00">dialects/matrix/passes</text>
<text text-anchor="middle" x="1125.5" y="-62" font-family="Helvetica,sans-Serif" font-size="10.00">/lower_matrix_lowlevel.cpp</text>
</a>
</g>
</g>
<!-- Node8&#45;&gt;Node24 -->
<g id="edge32" class="edge">
<title>Node8&#45;&gt;Node24</title>
<path fill="none" stroke="#63b8ff" d="M1549.55,-209.59C1374.04,-203.28 932.08,-185.15 910.5,-162 864.14,-112.26 970.86,-88.63 1049.94,-78.25"/>
<polygon fill="#63b8ff" stroke="#63b8ff" points="1549.6,-213.09 1559.72,-209.95 1549.85,-206.1 1549.6,-213.09"/>
</g>
<!-- Node25 -->
<g id="node25" class="node">
<title>Node25</title>
<g id="a_node25"><a xlink:href="lower__matrix__mediumlevel_8cpp.html" target="_top" xlink:title=" ">
<polygon fill="white" stroke="#666666" points="1646.5,-85 1472.5,-85 1472.5,-55 1646.5,-55 1646.5,-85"/>
<text text-anchor="start" x="1480.5" y="-73" font-family="Helvetica,sans-Serif" font-size="10.00">dialects/matrix/passes</text>
<text text-anchor="middle" x="1559.5" y="-62" font-family="Helvetica,sans-Serif" font-size="10.00">/lower_matrix_mediumlevel.cpp</text>
</a>
</g>
</g>
<!-- Node8&#45;&gt;Node25 -->
<g id="edge33" class="edge">
<title>Node8&#45;&gt;Node25</title>
<path fill="none" stroke="#63b8ff" d="M1691.18,-209.13C1782.13,-202.91 1922.5,-183.23 1869.5,-121 1865.84,-116.7 1736.96,-97.01 1646.55,-83.66"/>
<polygon fill="#63b8ff" stroke="#63b8ff" points="1690.93,-205.64 1681.17,-209.78 1691.38,-212.63 1690.93,-205.64"/>
</g>
<!-- Node26 -->
<g id="node26" class="node">
<title>Node26</title>
<g id="a_node26"><a xlink:href="mem_2normalizers_8cpp.html" target="_top" xlink:title=" ">
<polygon fill="white" stroke="#666666" points="2392.5,-151 2228.5,-151 2228.5,-132 2392.5,-132 2392.5,-151"/>
<text text-anchor="middle" x="2310.5" y="-139" font-family="Helvetica,sans-Serif" font-size="10.00">dialects/mem/normalizers.cpp</text>
</a>
</g>
</g>
<!-- Node8&#45;&gt;Node26 -->
<g id="edge35" class="edge">
<title>Node8&#45;&gt;Node26</title>
<path fill="none" stroke="#63b8ff" d="M1691.35,-209.02C1803.8,-203.64 2029.81,-190.12 2219.5,-162 2238.2,-159.23 2258.81,-154.92 2275.69,-151.05"/>
<polygon fill="#63b8ff" stroke="#63b8ff" points="1690.98,-205.53 1681.16,-209.5 1691.31,-212.53 1690.98,-205.53"/>
</g>
<!-- Node27 -->
<g id="node27" class="node">
<title>Node27</title>
<g id="a_node27"><a xlink:href="copy__prop_8cpp.html" target="_top" xlink:title=" ">
<polygon fill="white" stroke="#666666" points="2662.5,-156.5 2542.5,-156.5 2542.5,-126.5 2662.5,-126.5 2662.5,-156.5"/>
<text text-anchor="start" x="2550.5" y="-144.5" font-family="Helvetica,sans-Serif" font-size="10.00">dialects/mem/passes</text>
<text text-anchor="middle" x="2602.5" y="-133.5" font-family="Helvetica,sans-Serif" font-size="10.00">/fp/copy_prop.cpp</text>
</a>
</g>
</g>
<!-- Node8&#45;&gt;Node27 -->
<g id="edge36" class="edge">
<title>Node8&#45;&gt;Node27</title>
<path fill="none" stroke="#63b8ff" d="M1691.32,-210.14C1876.46,-204.96 2371.75,-188.94 2533.5,-162 2541.6,-160.65 2550.12,-158.7 2558.29,-156.55"/>
<polygon fill="#63b8ff" stroke="#63b8ff" points="1691.05,-206.65 1681.15,-210.42 1691.25,-213.65 1691.05,-206.65"/>
</g>
<!-- Node28 -->
<g id="node28" class="node">
<title>Node28</title>
<g id="a_node28"><a xlink:href="ssa__constr_8cpp.html" target="_top" xlink:title=" ">
<polygon fill="white" stroke="#666666" points="2800.5,-156.5 2680.5,-156.5 2680.5,-126.5 2800.5,-126.5 2800.5,-156.5"/>
<text text-anchor="start" x="2688.5" y="-144.5" font-family="Helvetica,sans-Serif" font-size="10.00">dialects/mem/passes</text>
<text text-anchor="middle" x="2740.5" y="-133.5" font-family="Helvetica,sans-Serif" font-size="10.00">/fp/ssa_constr.cpp</text>
</a>
</g>
</g>
<!-- Node8&#45;&gt;Node28 -->
<g id="edge37" class="edge">
<title>Node8&#45;&gt;Node28</title>
<path fill="none" stroke="#63b8ff" d="M1691.49,-210.73C1895.69,-206.74 2482.1,-192.85 2671.5,-162 2679.61,-160.68 2688.12,-158.74 2696.29,-156.6"/>
<polygon fill="#63b8ff" stroke="#63b8ff" points="1691.12,-207.24 1681.19,-210.93 1691.25,-214.23 1691.12,-207.24"/>
</g>
<!-- Node29 -->
<g id="node29" class="node">
<title>Node29</title>
<g id="a_node29"><a xlink:href="alloc2malloc_8cpp.html" target="_top" xlink:title=" ">
<polygon fill="white" stroke="#666666" points="2938.5,-156.5 2818.5,-156.5 2818.5,-126.5 2938.5,-126.5 2938.5,-156.5"/>
<text text-anchor="start" x="2826.5" y="-144.5" font-family="Helvetica,sans-Serif" font-size="10.00">dialects/mem/passes</text>
<text text-anchor="middle" x="2878.5" y="-133.5" font-family="Helvetica,sans-Serif" font-size="10.00">/rw/alloc2malloc.cpp</text>
</a>
</g>
</g>
<!-- Node8&#45;&gt;Node29 -->
<g id="edge38" class="edge">
<title>Node8&#45;&gt;Node29</title>
<path fill="none" stroke="#63b8ff" d="M1691.5,-211.19C1913.43,-208.3 2592.24,-196.78 2809.5,-162 2817.74,-160.68 2826.39,-158.72 2834.67,-156.54"/>
<polygon fill="#63b8ff" stroke="#63b8ff" points="1691.23,-207.69 1681.28,-211.32 1691.32,-214.69 1691.23,-207.69"/>
</g>
<!-- Node30 -->
<g id="node30" class="node">
<title>Node30</title>
<g id="a_node30"><a xlink:href="dialects_2mem_2passes_2rw_2remem__elim_8cpp.html" target="_top" xlink:title=" ">
<polygon fill="white" stroke="#666666" points="3076.5,-156.5 2956.5,-156.5 2956.5,-126.5 3076.5,-126.5 3076.5,-156.5"/>
<text text-anchor="start" x="2964.5" y="-144.5" font-family="Helvetica,sans-Serif" font-size="10.00">dialects/mem/passes</text>
<text text-anchor="middle" x="3016.5" y="-133.5" font-family="Helvetica,sans-Serif" font-size="10.00">/rw/remem_elim.cpp</text>
</a>
</g>
</g>
<!-- Node8&#45;&gt;Node30 -->
<g id="edge39" class="edge">
<title>Node8&#45;&gt;Node30</title>
<path fill="none" stroke="#63b8ff" d="M1691.41,-210.32C1948.54,-204.07 2823.4,-181.59 2947.5,-162 2955.74,-160.7 2964.39,-158.74 2972.68,-156.57"/>
<polygon fill="#63b8ff" stroke="#63b8ff" points="1690.99,-206.82 1681.08,-210.57 1691.16,-213.82 1690.99,-206.82"/>
</g>
<!-- Node31 -->
<g id="node31" class="node">
<title>Node31</title>
<g id="a_node31"><a xlink:href="reshape_8cpp.html" target="_top" xlink:title=" ">
<polygon fill="white" stroke="#666666" points="405.5,-156.5 285.5,-156.5 285.5,-126.5 405.5,-126.5 405.5,-156.5"/>
<text text-anchor="start" x="293.5" y="-144.5" font-family="Helvetica,sans-Serif" font-size="10.00">dialects/mem/passes</text>
<text text-anchor="middle" x="345.5" y="-133.5" font-family="Helvetica,sans-Serif" font-size="10.00">/rw/reshape.cpp</text>
</a>
</g>
</g>
<!-- Node8&#45;&gt;Node31 -->
<g id="edge40" class="edge">
<title>Node8&#45;&gt;Node31</title>
<path fill="none" stroke="#63b8ff" d="M1549.79,-209.53C1299.96,-200.72 470.69,-170.98 414.5,-162 406.26,-160.68 397.61,-158.72 389.33,-156.54"/>
<polygon fill="#63b8ff" stroke="#63b8ff" points="1549.73,-213.03 1559.84,-209.88 1549.97,-206.03 1549.73,-213.03"/>
</g>
<!-- Node32 -->
<g id="node32" class="node">
<title>Node32</title>
<g id="a_node32"><a xlink:href="add__mem_8cpp.html" target="_top" xlink:title=" ">
<polygon fill="white" stroke="#666666" points="545,-156.5 424,-156.5 424,-126.5 545,-126.5 545,-156.5"/>
<text text-anchor="start" x="432" y="-144.5" font-family="Helvetica,sans-Serif" font-size="10.00">dialects/mem/phases</text>
<text text-anchor="middle" x="484.5" y="-133.5" font-family="Helvetica,sans-Serif" font-size="10.00">/rw/add_mem.cpp</text>
</a>
</g>
</g>
<!-- Node8&#45;&gt;Node32 -->
<g id="edge41" class="edge">
<title>Node8&#45;&gt;Node32</title>
<path fill="none" stroke="#63b8ff" d="M1549.76,-209.61C1327.49,-201.95 652.08,-177.67 554.5,-162 546.28,-160.68 537.64,-158.74 529.36,-156.6"/>
<polygon fill="#63b8ff" stroke="#63b8ff" points="1549.88,-213.11 1560,-209.96 1550.12,-206.12 1549.88,-213.11"/>
</g>
<!-- Node33 -->
<g id="node33" class="node">
<title>Node33</title>
<g id="a_node33"><a xlink:href="lower__regex_8cpp.html" target="_top" xlink:title=" ">
<polygon fill="white" stroke="#666666" points="685.5,-156.5 563.5,-156.5 563.5,-126.5 685.5,-126.5 685.5,-156.5"/>
<text text-anchor="start" x="571.5" y="-144.5" font-family="Helvetica,sans-Serif" font-size="10.00">dialects/regex/passes</text>
<text text-anchor="middle" x="624.5" y="-133.5" font-family="Helvetica,sans-Serif" font-size="10.00">/lower_regex.cpp</text>
</a>
</g>
</g>
<!-- Node8&#45;&gt;Node33 -->
<g id="edge42" class="edge">
<title>Node8&#45;&gt;Node33</title>
<path fill="none" stroke="#63b8ff" d="M1549.76,-209.99C1363.59,-204.42 863.14,-187.45 699.5,-162 690.73,-160.64 681.49,-158.68 672.62,-156.52"/>
<polygon fill="#63b8ff" stroke="#63b8ff" points="1549.88,-213.5 1559.98,-210.3 1550.08,-206.5 1549.88,-213.5"/>
</g>
<!-- Node14&#45;&gt;Node6 -->
<g id="edge17" class="edge">
<title>Node14&#45;&gt;Node6</title>
<path fill="none" stroke="#63b8ff" d="M2210.99,-123.19C2250.09,-109.86 2297.82,-92.48 2304.5,-85 2321.39,-66.08 2323.67,-34.21 2323.73,-19.03"/>
<polygon fill="#63b8ff" stroke="#63b8ff" points="2209.62,-119.96 2201.27,-126.48 2211.86,-126.59 2209.62,-119.96"/>
</g>
<!-- Node15 -->
<g id="node15" class="node">
<title>Node15</title>
<g id="a_node15"><a xlink:href="clos2sjlj_8cpp.html" target="_top" xlink:title=" ">
<polygon fill="white" stroke="#666666" points="2295,-85 2192,-85 2192,-55 2295,-55 2295,-85"/>
<text text-anchor="start" x="2200" y="-73" font-family="Helvetica,sans-Serif" font-size="10.00">dialects/clos/pass</text>
<text text-anchor="middle" x="2243.5" y="-62" font-family="Helvetica,sans-Serif" font-size="10.00">/rw/clos2sjlj.cpp</text>
</a>
</g>
</g>
<!-- Node14&#45;&gt;Node15 -->
<g id="edge18" class="edge">
<title>Node14&#45;&gt;Node15</title>
<path fill="none" stroke="#63b8ff" d="M2183.81,-119.81C2197.52,-108.59 2214.12,-95.02 2226.32,-85.04"/>
<polygon fill="#63b8ff" stroke="#63b8ff" points="2181.23,-117.4 2175.7,-126.44 2185.66,-122.82 2181.23,-117.4"/>
</g>
<!-- Node16&#45;&gt;Node5 -->
<g id="edge21" class="edge">
<title>Node16&#45;&gt;Node5</title>
<path fill="none" stroke="#63b8ff" d="M2500.79,-121.38C2520.81,-109.88 2545.85,-95.49 2564.05,-85.04"/>
<polygon fill="#63b8ff" stroke="#63b8ff" points="2498.91,-118.42 2491.99,-126.44 2502.4,-124.49 2498.91,-118.42"/>
</g>
<!-- Node17 -->
<g id="node17" class="node">
<title>Node17</title>
<g id="a_node17"><a xlink:href="lower__typed__clos_8cpp.html" target="_top" xlink:title=" ">
<polygon fill="white" stroke="#666666" points="2512,-85 2387,-85 2387,-55 2512,-55 2512,-85"/>
<text text-anchor="start" x="2395" y="-73" font-family="Helvetica,sans-Serif" font-size="10.00">dialects/clos/phase</text>
<text text-anchor="middle" x="2449.5" y="-62" font-family="Helvetica,sans-Serif" font-size="10.00">/lower_typed_clos.cpp</text>
</a>
</g>
</g>
<!-- Node16&#45;&gt;Node17 -->
<g id="edge22" class="edge">
<title>Node16&#45;&gt;Node17</title>
<path fill="none" stroke="#63b8ff" d="M2461.3,-116.58C2458.58,-106.06 2455.48,-94.08 2453.14,-85.04"/>
<polygon fill="#63b8ff" stroke="#63b8ff" points="2457.96,-117.63 2463.86,-126.44 2464.74,-115.88 2457.96,-117.63"/>
</g>
<!-- Node21 -->
<g id="node21" class="node">
<title>Node21</title>
<g id="a_node21"><a xlink:href="matrix_8cpp.html" target="_top" xlink:title=" ">
<polygon fill="white" stroke="#666666" points="2000.5,-79.5 1854.5,-79.5 1854.5,-60.5 2000.5,-60.5 2000.5,-79.5"/>
<text text-anchor="middle" x="1927.5" y="-67.5" font-family="Helvetica,sans-Serif" font-size="10.00">dialects/matrix/matrix.cpp</text>
</a>
</g>
</g>
<!-- Node20&#45;&gt;Node21 -->
<g id="edge26" class="edge">
<title>Node20&#45;&gt;Node21</title>
<path fill="none" stroke="#63b8ff" d="M1970.31,-124.13C1959.07,-110.18 1943.35,-90.67 1934.42,-79.59"/>
<polygon fill="#63b8ff" stroke="#63b8ff" points="1967.63,-126.39 1976.63,-131.98 1973.08,-122 1967.63,-126.39"/>
</g>
<!-- Node22 -->
<g id="node22" class="node">
<title>Node22</title>
<g id="a_node22"><a xlink:href="matrix_2normalizers_8cpp.html" target="_top" xlink:title=" ">
<polygon fill="white" stroke="#666666" points="1836,-79.5 1665,-79.5 1665,-60.5 1836,-60.5 1836,-79.5"/>
<text text-anchor="middle" x="1750.5" y="-67.5" font-family="Helvetica,sans-Serif" font-size="10.00">dialects/matrix/normalizers.cpp</text>
</a>
</g>
</g>
<!-- Node20&#45;&gt;Node22 -->
<g id="edge27" class="edge">
<title>Node20&#45;&gt;Node22</title>
<path fill="none" stroke="#63b8ff" d="M1945.21,-129.08C1898.64,-115.19 1821.1,-92.06 1779.3,-79.59"/>
<polygon fill="#63b8ff" stroke="#63b8ff" points="1944.35,-132.47 1954.93,-131.98 1946.35,-125.77 1944.35,-132.47"/>
</g>
<!-- Node20&#45;&gt;Node23 -->
<g id="edge28" class="edge">
<title>Node20&#45;&gt;Node23</title>
<path fill="none" stroke="#63b8ff" d="M2005.93,-126.7C2025.5,-114.67 2053.78,-97.28 2073.51,-85.14"/>
<polygon fill="#63b8ff" stroke="#63b8ff" points="2004.04,-123.76 1997.36,-131.98 2007.71,-129.72 2004.04,-123.76"/>
</g>
<!-- Node20&#45;&gt;Node24 -->
<g id="edge29" class="edge">
<title>Node20&#45;&gt;Node24</title>
<path fill="none" stroke="#63b8ff" d="M1930.08,-130.2C1911.02,-126.83 1889.36,-123.36 1869.5,-121 1626.21,-92.09 1336.03,-78.6 1201.25,-73.53"/>
<polygon fill="#63b8ff" stroke="#63b8ff" points="1929.61,-133.67 1940.07,-132 1930.85,-126.78 1929.61,-133.67"/>
</g>
<!-- Node20&#45;&gt;Node25 -->
<g id="edge30" class="edge">
<title>Node20&#45;&gt;Node25</title>
<path fill="none" stroke="#63b8ff" d="M1940.9,-129.47C1928.56,-126.49 1915.04,-123.42 1902.5,-121 1896.2,-119.79 1746.15,-98.01 1646.62,-83.6"/>
<polygon fill="#63b8ff" stroke="#63b8ff" points="1940.39,-132.95 1950.94,-131.94 1942.06,-126.15 1940.39,-132.95"/>
</g>
</g>
</svg>
        <g id="navigator" transform="translate(0 0)" fill="#404254">
                <rect fill="#f2f5e9" fill-opacity="0.5" stroke="#606060" stroke-width=".5" x="0" y="0" width="60" height="60"/>
                <use id="zoomplus" xlink:href="#zoomPlus" x="17" y="9" onmousedown="handleZoom(evt,'in')"/>
                <use id="zoomminus" xlink:href="#zoomMin" x="42" y="9" onmousedown="handleZoom(evt,'out')"/>
                <use id="reset" xlink:href="#resetDef" x="30" y="36" onmousedown="handleReset()"/>
                <g id="arrowUp" xlink:href="#dirArrow" transform="translate(30 24)" onmousedown="handlePan(0,-1)">
                  <use xlink:href="#rim" fill="#404040">
                        <set attributeName="fill" to="#808080" begin="arrowUp.mouseover" end="arrowUp.mouseout"/>
                  </use>
                  <path fill="none" stroke="white" stroke-width="1.5" d="M0,-3.0v7 M-2.5,-0.5L0,-3.0L2.5,-0.5"/>
                </g>
                <g id="arrowRight" xlink:href="#dirArrow" transform="rotate(90) translate(36 -43)" onmousedown="handlePan(1,0)">
                  <use xlink:href="#rim" fill="#404040">
                        <set attributeName="fill" to="#808080" begin="arrowRight.mouseover" end="arrowRight.mouseout"/>
                  </use>
                  <path fill="none" stroke="white" stroke-width="1.5" d="M0,-3.0v7 M-2.5,-0.5L0,-3.0L2.5,-0.5"/>
                </g>
                <g id="arrowDown" xlink:href="#dirArrow" transform="rotate(180) translate(-30 -48)" onmousedown="handlePan(0,1)">
                  <use xlink:href="#rim" fill="#404040">
                        <set attributeName="fill" to="#808080" begin="arrowDown.mouseover" end="arrowDown.mouseout"/>
                  </use>
                  <path fill="none" stroke="white" stroke-width="1.5" d="M0,-3.0v7 M-2.5,-0.5L0,-3.0L2.5,-0.5"/>
                </g>
                <g id="arrowLeft" xlink:href="#dirArrow" transform="rotate(270) translate(-36 17)" onmousedown="handlePan(-1,0)">
                  <use xlink:href="#rim" fill="#404040">
                        <set attributeName="fill" to="#808080" begin="arrowLeft.mouseover" end="arrowLeft.mouseout"/>
                  </use>
                  <path fill="none" stroke="white" stroke-width="1.5" d="M0,-3.0v7 M-2.5,-0.5L0,-3.0L2.5,-0.5"/>
                </g>
        </g>
        <svg viewBox="0 0 15 15" width="100%" height="30px" preserveAspectRatio="xMaxYMin meet">
         <g id="arrow_out" transform="scale(0.3 0.3)">
          <a xlink:href="mem_2autogen_8h__dep__incl_org.svg" target="_base">
           <rect id="button" ry="5" rx="5" y="6" x="6" height="38" width="38"
                fill="#f2f5e9" fill-opacity="0.5" stroke="#606060" stroke-width="1.0"/>
           <path id="arrow"
             d="M 11.500037,31.436501 C 11.940474,20.09759 22.043105,11.32322 32.158766,21.979434 L 37.068811,17.246167 C 37.068811,17.246167 37.088388,32 37.088388,32 L 22.160133,31.978069 C 22.160133,31.978069 26.997745,27.140456 26.997745,27.140456 C 18.528582,18.264221 13.291696,25.230495 11.500037,31.436501 z"
             style="fill:#404040;"/>
          </a>
         </g>
        </svg>
</svg>
