<?xml version="1.0" encoding="UTF-8" standalone="no"?>
<!DOCTYPE svg PUBLIC "-//W3C//DTD SVG 1.1//EN"
 "http://www.w3.org/Graphics/SVG/1.1/DTD/svg11.dtd">
<!-- Generated by graphviz version 2.43.0 (0)
 -->
<!-- Title: include/mim/nest.h Pages: 1 -->
<!--zoomable 313 -->

<svg id="main" version="1.1" xmlns="http://www.w3.org/2000/svg" xmlns:xlink="http://www.w3.org/1999/xlink" xml:space="preserve" onload="init(evt)">

<style type="text/css"><![CDATA[
.node, .edge {opacity: 0.7;}
.node.selected, .edge.selected {opacity: 1;}
.edge:hover path { stroke: red; }
.edge:hover polygon { stroke: red; fill: red; }
]]></style>

<defs>
  <circle id="rim" cx="0" cy="0" r="7"/>
  <circle id="rim2" cx="0" cy="0" r="3.5"/>
  <g id="zoomPlus">
    <use xlink:href="#rim" fill="#404040"><set attributeName="fill" to="#808080" begin="zoomplus.mouseover" end="zoomplus.mouseout"/></use>
    <path d="M-4,0h8M0,-4v8" fill="none" stroke="white" stroke-width="1.5" pointer-events="none"/>
  </g>
  <g id="zoomMin">
    <use xlink:href="#rim" fill="#404040"><set attributeName="fill" to="#808080" begin="zoomminus.mouseover" end="zoomminus.mouseout"/></use>
    <path d="M-4,0h8" fill="none" stroke="white" stroke-width="1.5" pointer-events="none"/>
  </g>
  <g id="arrowUp" transform="translate(30 24)">
    <use xlink:href="#rim"/>
    <path pointer-events="none" fill="none" stroke="white" stroke-width="1.5" d="M0,-3.0v7 M-2.5,-0.5L0,-3.0L2.5,-0.5"/>
  </g>
  <g id="arrowRight" transform="rotate(90) translate(36 -43)">
    <use xlink:href="#rim"/>
    <path pointer-events="none" fill="none" stroke="white" stroke-width="1.5" d="M0,-3.0v7 M-2.5,-0.5L0,-3.0L2.5,-0.5"/>
  </g>
  <g id="arrowDown" transform="rotate(180) translate(-30 -48)">
    <use xlink:href="#rim"/>
    <path pointer-events="none" fill="none" stroke="white" stroke-width="1.5" d="M0,-3.0v7 M-2.5,-0.5L0,-3.0L2.5,-0.5"/>
  </g>
  <g id="arrowLeft" transform="rotate(270) translate(-36 17)">
    <use xlink:href="#rim"/>
    <path pointer-events="none" fill="none" stroke="white" stroke-width="1.5" d="M0,-3.0v7 M-2.5,-0.5L0,-3.0L2.5,-0.5"/>
  </g>
  <g id="resetDef">
    <use xlink:href="#rim2" fill="#404040"><set attributeName="fill" to="#808080" begin="reset.mouseover" end="reset.mouseout"/></use>
  </g>
</defs>
<script type="application/ecmascript">
var viewWidth = 1776;
var viewHeight = 313;
var sectionId = 'dynsection-0';
</script>
<script type="application/ecmascript" xlink:href="svg.min.js"/>
<svg id="graph" class="graph">
<g id="viewport">
<title>include/mim/nest.h</title>
<!-- Node1 -->
<g id="Node000001" class="node">
<title>Node1</title>
<g id="a_Node000001"><a xlink:title=" ">
<polygon fill="#999999" stroke="#666666" points="151,-305 41,-305 41,-286 151,-286 151,-305"/>
<text text-anchor="middle" x="96" y="-293" font-family="Helvetica,sans-Serif" font-size="10.00">include/mim/nest.h</text>
</a>
</g>
</g>
<!-- Node2 -->
<g id="Node000002" class="node">
<title>Node2</title>
<g id="a_Node000002"><a xlink:title=" ">
<polygon fill="#e0e0e0" stroke="#999999" points="68,-250 10,-250 10,-231 68,-231 68,-250"/>
<text text-anchor="middle" x="39" y="-238" font-family="Helvetica,sans-Serif" font-size="10.00">memory</text>
</a>
</g>
</g>
<!-- Node1&#45;&gt;Node2 -->
<g id="edge1_Node000001_Node000002" class="edge">
<title>Node1&#45;&gt;Node2</title>
<g id="a_edge1_Node000001_Node000002"><a xlink:title=" ">
<path fill="none" stroke="#63b8ff" d="M86.84,-285.98C78.5,-278.23 65.97,-266.58 55.82,-257.14"/>
<polygon fill="#63b8ff" stroke="#63b8ff" points="58.03,-254.42 48.32,-250.17 53.26,-259.54 58.03,-254.42"/>
</a>
</g>
</g>
<!-- Node3 -->
<g id="Node000003" class="node">
<title>Node3</title>
<g id="a_Node000003"><a xlink:title=" ">
<polygon fill="#e0e0e0" stroke="#999999" points="50,-79.5 0,-79.5 0,-60.5 50,-60.5 50,-79.5"/>
<text text-anchor="middle" x="25" y="-67.5" font-family="Helvetica,sans-Serif" font-size="10.00">ranges</text>
</a>
</g>
</g>
<!-- Node1&#45;&gt;Node3 -->
<g id="edge2_Node000001_Node000003" class="edge">
<title>Node1&#45;&gt;Node3</title>
<g id="a_edge2_Node000001_Node000003"><a xlink:title=" ">
<path fill="none" stroke="#63b8ff" d="M93.48,-285.85C89.9,-273.61 83.1,-250.55 77,-231 60.95,-179.58 41.04,-119.2 31.16,-89.46"/>
<polygon fill="#63b8ff" stroke="#63b8ff" points="34.37,-88.03 27.89,-79.65 27.73,-90.24 34.37,-88.03"/>
</a>
</g>
</g>
<!-- Node4 -->
<g id="Node000004" class="node">
<title>Node4</title>
<g id="a_Node000004"><a xlink:href="def_8h.html" target="_top" xlink:title=" ">
<polygon fill="white" stroke="#666666" points="803,-250 737,-250 737,-231 803,-231 803,-250"/>
<text text-anchor="middle" x="770" y="-238" font-family="Helvetica,sans-Serif" font-size="10.00">mim/def.h</text>
</a>
</g>
</g>
<!-- Node1&#45;&gt;Node4 -->
<g id="edge3_Node000001_Node000004" class="edge">
<title>Node1&#45;&gt;Node4</title>
<g id="a_edge3_Node000001_Node000004"><a xlink:title=" ">
<path fill="none" stroke="#63b8ff" d="M151.16,-290.16C281.93,-279.88 608.65,-254.19 726.64,-244.91"/>
<polygon fill="#63b8ff" stroke="#63b8ff" points="727.04,-248.39 736.74,-244.12 726.5,-241.41 727.04,-248.39"/>
</a>
</g>
</g>
<!-- Node5 -->
<g id="Node000005" class="node">
<title>Node5</title>
<g id="a_Node000005"><a xlink:title=" ">
<polygon fill="#e0e0e0" stroke="#999999" points="1516,-79.5 1460,-79.5 1460,-60.5 1516,-60.5 1516,-79.5"/>
<text text-anchor="middle" x="1488" y="-67.5" font-family="Helvetica,sans-Serif" font-size="10.00">optional</text>
</a>
</g>
</g>
<!-- Node4&#45;&gt;Node5 -->
<g id="edge4_Node000004_Node000005" class="edge">
<title>Node4&#45;&gt;Node5</title>
<g id="a_edge4_Node000004_Node000005"><a xlink:title=" ">
<path fill="none" stroke="#63b8ff" d="M803.16,-238.27C870.01,-235.22 1025.36,-225.22 1152,-195 1212.96,-180.45 1386.26,-111.93 1457.17,-83.45"/>
<polygon fill="#63b8ff" stroke="#63b8ff" points="1458.9,-86.53 1466.87,-79.55 1456.29,-80.04 1458.9,-86.53"/>
</a>
</g>
</g>
<!-- Node6 -->
<g id="Node000006" class="node">
<title>Node6</title>
<g id="a_Node000006"><a xlink:title=" ">
<polygon fill="#e0e0e0" stroke="#999999" points="472,-79.5 404,-79.5 404,-60.5 472,-60.5 472,-79.5"/>
<text text-anchor="middle" x="438" y="-67.5" font-family="Helvetica,sans-Serif" font-size="10.00">fe/assert.h</text>
</a>
</g>
</g>
<!-- Node4&#45;&gt;Node6 -->
<g id="edge5_Node000004_Node000006" class="edge">
<title>Node4&#45;&gt;Node6</title>
<g id="a_edge5_Node000004_Node000006"><a xlink:title=" ">
<path fill="none" stroke="#63b8ff" d="M736.95,-239.58C664.69,-239.03 495.97,-233.55 457,-195 429.09,-167.39 431.06,-117.19 434.68,-89.89"/>
<polygon fill="#63b8ff" stroke="#63b8ff" points="438.18,-90.15 436.24,-79.73 431.26,-89.08 438.18,-90.15"/>
</a>
</g>
</g>
<!-- Node7 -->
<g id="Node000007" class="node">
<title>Node7</title>
<g id="a_Node000007"><a xlink:title=" ">
<polygon fill="#e0e0e0" stroke="#999999" points="525.5,-195 466.5,-195 466.5,-176 525.5,-176 525.5,-195"/>
<text text-anchor="middle" x="496" y="-183" font-family="Helvetica,sans-Serif" font-size="10.00">fe/cast.h</text>
</a>
</g>
</g>
<!-- Node4&#45;&gt;Node7 -->
<g id="edge6_Node000004_Node000007" class="edge">
<title>Node4&#45;&gt;Node7</title>
<g id="a_edge6_Node000004_Node000007"><a xlink:title=" ">
<path fill="none" stroke="#63b8ff" d="M736.86,-233.52C693.18,-225.57 613.68,-210.89 535.78,-195.11"/>
<polygon fill="#63b8ff" stroke="#63b8ff" points="536.29,-191.64 525.79,-193.08 534.89,-198.5 536.29,-191.64"/>
</a>
</g>
</g>
<!-- Node8 -->
<g id="Node000008" class="node">
<title>Node8</title>
<g id="a_Node000008"><a xlink:title=" ">
<polygon fill="#e0e0e0" stroke="#999999" points="610,-195 544,-195 544,-176 610,-176 610,-195"/>
<text text-anchor="middle" x="577" y="-183" font-family="Helvetica,sans-Serif" font-size="10.00">fe/enum.h</text>
</a>
</g>
</g>
<!-- Node4&#45;&gt;Node8 -->
<g id="edge7_Node000004_Node000008" class="edge">
<title>Node4&#45;&gt;Node8</title>
<g id="a_edge7_Node000004_Node000008"><a xlink:title=" ">
<path fill="none" stroke="#63b8ff" d="M738.99,-230.98C706.17,-221.97 654.2,-207.7 618.01,-197.76"/>
<polygon fill="#63b8ff" stroke="#63b8ff" points="618.82,-194.36 608.25,-195.08 616.97,-201.11 618.82,-194.36"/>
</a>
</g>
</g>
<!-- Node9 -->
<g id="Node000009" class="node">
<title>Node9</title>
<g id="a_Node000009"><a xlink:href="config_8h.html" target="_top" xlink:title=" ">
<polygon fill="white" stroke="#666666" points="708,-195 628,-195 628,-176 708,-176 708,-195"/>
<text text-anchor="middle" x="668" y="-183" font-family="Helvetica,sans-Serif" font-size="10.00">mim/config.h</text>
</a>
</g>
</g>
<!-- Node4&#45;&gt;Node9 -->
<g id="edge8_Node000004_Node000009" class="edge">
<title>Node4&#45;&gt;Node9</title>
<g id="a_edge8_Node000004_Node000009"><a xlink:title=" ">
<path fill="none" stroke="#63b8ff" d="M753.61,-230.98C737.43,-222.57 712.43,-209.59 693.62,-199.81"/>
<polygon fill="#63b8ff" stroke="#63b8ff" points="695.17,-196.68 684.69,-195.17 691.95,-202.89 695.17,-196.68"/>
</a>
</g>
</g>
<!-- Node10 -->
<g id="Node000010" class="node">
<title>Node10</title>
<g id="a_Node000010"><a xlink:href="dbg_8h.html" target="_top" xlink:title=" ">
<polygon fill="white" stroke="#666666" points="814,-195 726,-195 726,-176 814,-176 814,-195"/>
<text text-anchor="middle" x="770" y="-183" font-family="Helvetica,sans-Serif" font-size="10.00">mim/util/dbg.h</text>
</a>
</g>
</g>
<!-- Node4&#45;&gt;Node10 -->
<g id="edge9_Node000004_Node000010" class="edge">
<title>Node4&#45;&gt;Node10</title>
<g id="a_edge9_Node000004_Node000010"><a xlink:title=" ">
<path fill="none" stroke="#63b8ff" d="M770,-230.75C770,-223.8 770,-213.85 770,-205.13"/>
<polygon fill="#63b8ff" stroke="#63b8ff" points="773.5,-205.09 770,-195.09 766.5,-205.09 773.5,-205.09"/>
</a>
</g>
</g>
<!-- Node22 -->
<g id="Node000022" class="node">
<title>Node22</title>
<g id="a_Node000022"><a xlink:href="hash_8h.html" target="_top" xlink:title=" ">
<polygon fill="white" stroke="#666666" points="705.5,-79.5 612.5,-79.5 612.5,-60.5 705.5,-60.5 705.5,-79.5"/>
<text text-anchor="middle" x="659" y="-67.5" font-family="Helvetica,sans-Serif" font-size="10.00">mim/util/hash.h</text>
</a>
</g>
</g>
<!-- Node4&#45;&gt;Node22 -->
<g id="edge23_Node000004_Node000022" class="edge">
<title>Node4&#45;&gt;Node22</title>
<g id="a_edge23_Node000004_Node000022"><a xlink:title=" ">
<path fill="none" stroke="#63b8ff" d="M786.58,-230.87C799.17,-223.3 815.54,-211.01 823,-195 826.57,-187.35 825.46,-184.08 823,-176 814.4,-147.82 808.97,-139.45 786,-121 771.65,-109.47 727.91,-93.51 695.76,-82.75"/>
<polygon fill="#63b8ff" stroke="#63b8ff" points="696.79,-79.4 686.2,-79.59 694.59,-86.05 696.79,-79.4"/>
</a>
</g>
</g>
<!-- Node26 -->
<g id="Node000026" class="node">
<title>Node26</title>
<g id="a_Node000026"><a xlink:href="sets_8h.html" target="_top" xlink:title=" ">
<polygon fill="white" stroke="#666666" points="1143,-195 1053,-195 1053,-176 1143,-176 1143,-195"/>
<text text-anchor="middle" x="1098" y="-183" font-family="Helvetica,sans-Serif" font-size="10.00">mim/util/sets.h</text>
</a>
</g>
</g>
<!-- Node4&#45;&gt;Node26 -->
<g id="edge27_Node000004_Node000026" class="edge">
<title>Node4&#45;&gt;Node26</title>
<g id="a_edge27_Node000004_Node000026"><a xlink:title=" ">
<path fill="none" stroke="#63b8ff" d="M803.26,-234.13C859.57,-225.03 974.23,-206.5 1042.76,-195.43"/>
<polygon fill="#63b8ff" stroke="#63b8ff" points="1043.63,-198.83 1052.94,-193.78 1042.51,-191.92 1043.63,-198.83"/>
</a>
</g>
</g>
<!-- Node27 -->
<g id="Node000027" class="node">
<title>Node27</title>
<g id="a_Node000027"><a xlink:href="util_8h.html" target="_top" xlink:title=" ">
<polygon fill="white" stroke="#666666" points="1069,-140 983,-140 983,-121 1069,-121 1069,-140"/>
<text text-anchor="middle" x="1026" y="-128" font-family="Helvetica,sans-Serif" font-size="10.00">mim/util/util.h</text>
</a>
</g>
</g>
<!-- Node4&#45;&gt;Node27 -->
<g id="edge51_Node000004_Node000027" class="edge">
<title>Node4&#45;&gt;Node27</title>
<g id="a_edge51_Node000004_Node000027"><a xlink:title=" ">
<path fill="none" stroke="#63b8ff" d="M790.52,-230.84C835.66,-211.8 943.75,-166.2 996.3,-144.03"/>
<polygon fill="#63b8ff" stroke="#63b8ff" points="997.89,-147.16 1005.74,-140.05 995.17,-140.71 997.89,-147.16"/>
</a>
</g>
</g>
<!-- Node37 -->
<g id="Node000037" class="node">
<title>Node37</title>
<g id="a_Node000037"><a xlink:href="vector_8h.html" target="_top" xlink:title=" ">
<polygon fill="white" stroke="#666666" points="1506,-140 1406,-140 1406,-121 1506,-121 1506,-140"/>
<text text-anchor="middle" x="1456" y="-128" font-family="Helvetica,sans-Serif" font-size="10.00">mim/util/vector.h</text>
</a>
</g>
</g>
<!-- Node4&#45;&gt;Node37 -->
<g id="edge52_Node000004_Node000037" class="edge">
<title>Node4&#45;&gt;Node37</title>
<g id="a_edge52_Node000004_Node000037"><a xlink:title=" ">
<path fill="none" stroke="#63b8ff" d="M803.26,-237.99C877.71,-234.23 1063.24,-222.65 1216,-195 1289.3,-181.73 1373.01,-157.44 1419.67,-143.05"/>
<polygon fill="#63b8ff" stroke="#63b8ff" points="1420.81,-146.36 1429.32,-140.06 1418.73,-139.68 1420.81,-146.36"/>
</a>
</g>
</g>
<!-- Node11 -->
<g id="Node000011" class="node">
<title>Node11</title>
<g id="a_Node000011"><a xlink:title=" ">
<polygon fill="#e0e0e0" stroke="#999999" points="594,-85 490,-85 490,-55 594,-55 594,-85"/>
<text text-anchor="start" x="498" y="-73" font-family="Helvetica,sans-Serif" font-size="10.00">absl/container/flat</text>
<text text-anchor="middle" x="542" y="-62" font-family="Helvetica,sans-Serif" font-size="10.00">_hash_map.h</text>
</a>
</g>
</g>
<!-- Node10&#45;&gt;Node11 -->
<g id="edge10_Node000010_Node000011" class="edge">
<title>Node10&#45;&gt;Node11</title>
<g id="a_edge10_Node000010_Node000011"><a xlink:title=" ">
<path fill="none" stroke="#63b8ff" d="M725.79,-176.3C666.26,-165.07 567.02,-145.68 561,-140 548.85,-128.55 544.22,-110.1 542.56,-95.17"/>
<polygon fill="#63b8ff" stroke="#63b8ff" points="546.04,-94.77 541.82,-85.06 539.06,-95.29 546.04,-94.77"/>
</a>
</g>
</g>
<!-- Node12 -->
<g id="Node000012" class="node">
<title>Node12</title>
<g id="a_Node000012"><a xlink:title=" ">
<polygon fill="#e0e0e0" stroke="#999999" points="828,-85 724,-85 724,-55 828,-55 828,-85"/>
<text text-anchor="start" x="732" y="-73" font-family="Helvetica,sans-Serif" font-size="10.00">absl/container/flat</text>
<text text-anchor="middle" x="776" y="-62" font-family="Helvetica,sans-Serif" font-size="10.00">_hash_set.h</text>
</a>
</g>
</g>
<!-- Node10&#45;&gt;Node12 -->
<g id="edge11_Node000010_Node000012" class="edge">
<title>Node10&#45;&gt;Node12</title>
<g id="a_edge11_Node000010_Node000012"><a xlink:title=" ">
<path fill="none" stroke="#63b8ff" d="M774.11,-175.88C778.06,-167.09 783.74,-152.94 786,-140 788.61,-125.04 786.26,-108.17 783.18,-94.86"/>
<polygon fill="#63b8ff" stroke="#63b8ff" points="786.54,-93.85 780.64,-85.05 779.76,-95.6 786.54,-93.85"/>
</a>
</g>
</g>
<!-- Node13 -->
<g id="Node000013" class="node">
<title>Node13</title>
<g id="a_Node000013"><a xlink:title=" ">
<polygon fill="#e0e0e0" stroke="#999999" points="623.5,-140 570.5,-140 570.5,-121 623.5,-121 623.5,-140"/>
<text text-anchor="middle" x="597" y="-128" font-family="Helvetica,sans-Serif" font-size="10.00">fe/loc.h</text>
</a>
</g>
</g>
<!-- Node10&#45;&gt;Node13 -->
<g id="edge12_Node000010_Node000013" class="edge">
<title>Node10&#45;&gt;Node13</title>
<g id="a_edge12_Node000010_Node000013"><a xlink:title=" ">
<path fill="none" stroke="#63b8ff" d="M742.2,-175.98C712.6,-166.92 665.63,-152.53 633.16,-142.58"/>
<polygon fill="#63b8ff" stroke="#63b8ff" points="634.18,-139.23 623.59,-139.65 632.13,-145.92 634.18,-139.23"/>
</a>
</g>
</g>
<!-- Node14 -->
<g id="Node000014" class="node">
<title>Node14</title>
<g id="a_Node000014"><a xlink:title=" ">
<polygon fill="#e0e0e0" stroke="#999999" points="700.5,-140 641.5,-140 641.5,-121 700.5,-121 700.5,-140"/>
<text text-anchor="middle" x="671" y="-128" font-family="Helvetica,sans-Serif" font-size="10.00">fe/sym.h</text>
</a>
</g>
</g>
<!-- Node10&#45;&gt;Node14 -->
<g id="edge13_Node000010_Node000014" class="edge">
<title>Node10&#45;&gt;Node14</title>
<g id="a_edge13_Node000010_Node000014"><a xlink:title=" ">
<path fill="none" stroke="#63b8ff" d="M754.09,-175.98C738.45,-167.61 714.34,-154.7 696.12,-144.95"/>
<polygon fill="#63b8ff" stroke="#63b8ff" points="697.66,-141.8 687.2,-140.17 694.36,-147.98 697.66,-141.8"/>
</a>
</g>
</g>
<!-- Node15 -->
<g id="Node000015" class="node">
<title>Node15</title>
<g id="a_Node000015"><a xlink:title=" ">
<polygon fill="#e0e0e0" stroke="#999999" points="777.5,-140 718.5,-140 718.5,-121 777.5,-121 777.5,-140"/>
<text text-anchor="middle" x="748" y="-128" font-family="Helvetica,sans-Serif" font-size="10.00">rang.hpp</text>
</a>
</g>
</g>
<!-- Node10&#45;&gt;Node15 -->
<g id="edge14_Node000010_Node000015" class="edge">
<title>Node10&#45;&gt;Node15</title>
<g id="a_edge14_Node000010_Node000015"><a xlink:title=" ">
<path fill="none" stroke="#63b8ff" d="M766.37,-175.75C763.42,-168.65 759.17,-158.4 755.49,-149.56"/>
<polygon fill="#63b8ff" stroke="#63b8ff" points="758.63,-147.98 751.57,-140.09 752.17,-150.67 758.63,-147.98"/>
</a>
</g>
</g>
<!-- Node16 -->
<g id="Node000016" class="node">
<title>Node16</title>
<g id="a_Node000016"><a xlink:href="print_8h.html" target="_top" xlink:title=" ">
<polygon fill="white" stroke="#666666" points="314,-140 222,-140 222,-121 314,-121 314,-140"/>
<text text-anchor="middle" x="268" y="-128" font-family="Helvetica,sans-Serif" font-size="10.00">mim/util/print.h</text>
</a>
</g>
</g>
<!-- Node10&#45;&gt;Node16 -->
<g id="edge15_Node000010_Node000016" class="edge">
<title>Node10&#45;&gt;Node16</title>
<g id="a_edge15_Node000010_Node000016"><a xlink:title=" ">
<path fill="none" stroke="#63b8ff" d="M725.78,-177.2C722.81,-176.78 719.86,-176.37 717,-176 576.1,-157.74 409.47,-143.01 324.3,-135.98"/>
<polygon fill="#63b8ff" stroke="#63b8ff" points="324.57,-132.49 314.32,-135.16 324,-139.47 324.57,-132.49"/>
</a>
</g>
</g>
<!-- Node16&#45;&gt;Node3 -->
<g id="edge19_Node000016_Node000003" class="edge">
<title>Node16&#45;&gt;Node3</title>
<g id="a_edge19_Node000016_Node000003"><a xlink:title=" ">
<path fill="none" stroke="#63b8ff" d="M221.72,-122.13C178.96,-114.73 113.93,-102 59,-85 57.32,-84.48 55.61,-83.91 53.9,-83.31"/>
<polygon fill="#63b8ff" stroke="#63b8ff" points="54.79,-79.9 44.2,-79.61 52.29,-86.44 54.79,-79.9"/>
</a>
</g>
</g>
<!-- Node16&#45;&gt;Node6 -->
<g id="edge22_Node000016_Node000006" class="edge">
<title>Node16&#45;&gt;Node6</title>
<g id="a_edge22_Node000016_Node000006"><a xlink:title=" ">
<path fill="none" stroke="#63b8ff" d="M292.72,-120.99C321.93,-110.94 370.7,-94.16 403.59,-82.84"/>
<polygon fill="#63b8ff" stroke="#63b8ff" points="404.93,-86.08 413.25,-79.52 402.66,-79.46 404.93,-86.08"/>
</a>
</g>
</g>
<!-- Node17 -->
<g id="Node000017" class="node">
<title>Node17</title>
<g id="a_Node000017"><a xlink:title=" ">
<polygon fill="#e0e0e0" stroke="#999999" points="133.5,-79.5 68.5,-79.5 68.5,-60.5 133.5,-60.5 133.5,-79.5"/>
<text text-anchor="middle" x="101" y="-67.5" font-family="Helvetica,sans-Serif" font-size="10.00">functional</text>
</a>
</g>
</g>
<!-- Node16&#45;&gt;Node17 -->
<g id="edge16_Node000016_Node000017" class="edge">
<title>Node16&#45;&gt;Node17</title>
<g id="a_edge16_Node000016_Node000017"><a xlink:title=" ">
<path fill="none" stroke="#63b8ff" d="M243.72,-120.99C215.02,-110.94 167.11,-94.16 134.8,-82.84"/>
<polygon fill="#63b8ff" stroke="#63b8ff" points="135.91,-79.52 125.31,-79.52 133.59,-86.13 135.91,-79.52"/>
</a>
</g>
</g>
<!-- Node18 -->
<g id="Node000018" class="node">
<title>Node18</title>
<g id="a_Node000018"><a xlink:title=" ">
<polygon fill="#e0e0e0" stroke="#999999" points="212,-79.5 152,-79.5 152,-60.5 212,-60.5 212,-79.5"/>
<text text-anchor="middle" x="182" y="-67.5" font-family="Helvetica,sans-Serif" font-size="10.00">iostream</text>
</a>
</g>
</g>
<!-- Node16&#45;&gt;Node18 -->
<g id="edge17_Node000016_Node000018" class="edge">
<title>Node16&#45;&gt;Node18</title>
<g id="a_edge17_Node000016_Node000018"><a xlink:title=" ">
<path fill="none" stroke="#63b8ff" d="M255.31,-120.87C241.59,-111.54 219.5,-96.51 203.15,-85.38"/>
<polygon fill="#63b8ff" stroke="#63b8ff" points="204.98,-82.4 194.74,-79.67 201.04,-88.19 204.98,-82.4"/>
</a>
</g>
</g>
<!-- Node19 -->
<g id="Node000019" class="node">
<title>Node19</title>
<g id="a_Node000019"><a xlink:title=" ">
<polygon fill="#e0e0e0" stroke="#999999" points="441.5,-19 384.5,-19 384.5,0 441.5,0 441.5,-19"/>
<text text-anchor="middle" x="413" y="-7" font-family="Helvetica,sans-Serif" font-size="10.00">ostream</text>
</a>
</g>
</g>
<!-- Node16&#45;&gt;Node19 -->
<g id="edge18_Node000016_Node000019" class="edge">
<title>Node16&#45;&gt;Node19</title>
<g id="a_edge18_Node000016_Node000019"><a xlink:title=" ">
<path fill="none" stroke="#63b8ff" d="M263.32,-120.67C256.03,-105.58 244.28,-74.58 259,-55 272.88,-36.55 333.47,-23.32 374.38,-16.3"/>
<polygon fill="#63b8ff" stroke="#63b8ff" points="375.03,-19.74 384.32,-14.64 373.88,-12.83 375.03,-19.74"/>
</a>
</g>
</g>
<!-- Node20 -->
<g id="Node000020" class="node">
<title>Node20</title>
<g id="a_Node000020"><a xlink:title=" ">
<polygon fill="#e0e0e0" stroke="#999999" points="324,-79.5 268,-79.5 268,-60.5 324,-60.5 324,-79.5"/>
<text text-anchor="middle" x="296" y="-67.5" font-family="Helvetica,sans-Serif" font-size="10.00">sstream</text>
</a>
</g>
</g>
<!-- Node16&#45;&gt;Node20 -->
<g id="edge20_Node000016_Node000020" class="edge">
<title>Node16&#45;&gt;Node20</title>
<g id="a_edge20_Node000016_Node000020"><a xlink:title=" ">
<path fill="none" stroke="#63b8ff" d="M272.13,-120.87C276.14,-112.49 282.35,-99.51 287.44,-88.89"/>
<polygon fill="#63b8ff" stroke="#63b8ff" points="290.69,-90.2 291.85,-79.67 284.38,-87.18 290.69,-90.2"/>
</a>
</g>
</g>
<!-- Node21 -->
<g id="Node000021" class="node">
<title>Node21</title>
<g id="a_Node000021"><a xlink:title=" ">
<polygon fill="#e0e0e0" stroke="#999999" points="386,-79.5 342,-79.5 342,-60.5 386,-60.5 386,-79.5"/>
<text text-anchor="middle" x="364" y="-67.5" font-family="Helvetica,sans-Serif" font-size="10.00">string</text>
</a>
</g>
</g>
<!-- Node16&#45;&gt;Node21 -->
<g id="edge21_Node000016_Node000021" class="edge">
<title>Node16&#45;&gt;Node21</title>
<g id="a_edge21_Node000016_Node000021"><a xlink:title=" ">
<path fill="none" stroke="#63b8ff" d="M282.17,-120.87C297.69,-111.41 322.83,-96.09 341.15,-84.92"/>
<polygon fill="#63b8ff" stroke="#63b8ff" points="343.06,-87.86 349.78,-79.67 339.42,-81.88 343.06,-87.86"/>
</a>
</g>
</g>
<!-- Node23 -->
<g id="Node000023" class="node">
<title>Node23</title>
<g id="a_Node000023"><a xlink:title=" ">
<polygon fill="#e0e0e0" stroke="#999999" points="685.5,-19 632.5,-19 632.5,0 685.5,0 685.5,-19"/>
<text text-anchor="middle" x="659" y="-7" font-family="Helvetica,sans-Serif" font-size="10.00">cstddef</text>
</a>
</g>
</g>
<!-- Node22&#45;&gt;Node23 -->
<g id="edge24_Node000022_Node000023" class="edge">
<title>Node22&#45;&gt;Node23</title>
<g id="a_edge24_Node000022_Node000023"><a xlink:title=" ">
<path fill="none" stroke="#63b8ff" d="M659,-60.37C659,-52.25 659,-39.81 659,-29.39"/>
<polygon fill="#63b8ff" stroke="#63b8ff" points="662.5,-29.17 659,-19.17 655.5,-29.17 662.5,-29.17"/>
</a>
</g>
</g>
<!-- Node24 -->
<g id="Node000024" class="node">
<title>Node24</title>
<g id="a_Node000024"><a xlink:title=" ">
<polygon fill="#e0e0e0" stroke="#999999" points="844,-19 794,-19 794,0 844,0 844,-19"/>
<text text-anchor="middle" x="819" y="-7" font-family="Helvetica,sans-Serif" font-size="10.00">cstdint</text>
</a>
</g>
</g>
<!-- Node22&#45;&gt;Node24 -->
<g id="edge25_Node000022_Node000024" class="edge">
<title>Node22&#45;&gt;Node24</title>
<g id="a_edge25_Node000022_Node000024"><a xlink:title=" ">
<path fill="none" stroke="#63b8ff" d="M682.27,-60.49C709.64,-50.49 755.27,-33.8 786.22,-22.49"/>
<polygon fill="#63b8ff" stroke="#63b8ff" points="787.52,-25.74 795.71,-19.02 785.11,-19.16 787.52,-25.74"/>
</a>
</g>
</g>
<!-- Node25 -->
<g id="Node000025" class="node">
<title>Node25</title>
<g id="a_Node000025"><a xlink:title=" ">
<polygon fill="#e0e0e0" stroke="#999999" points="990.5,-19 921.5,-19 921.5,0 990.5,0 990.5,-19"/>
<text text-anchor="middle" x="956" y="-7" font-family="Helvetica,sans-Serif" font-size="10.00">type_traits</text>
</a>
</g>
</g>
<!-- Node22&#45;&gt;Node25 -->
<g id="edge26_Node000022_Node000025" class="edge">
<title>Node22&#45;&gt;Node25</title>
<g id="a_edge26_Node000022_Node000025"><a xlink:title=" ">
<path fill="none" stroke="#63b8ff" d="M691.79,-60.44C699.39,-58.56 707.46,-56.64 715,-55 783.13,-40.21 862.77,-26.12 911.28,-17.9"/>
<polygon fill="#63b8ff" stroke="#63b8ff" points="911.86,-21.35 921.14,-16.23 910.7,-14.45 911.86,-21.35"/>
</a>
</g>
</g>
<!-- Node26&#45;&gt;Node27 -->
<g id="edge28_Node000026_Node000027" class="edge">
<title>Node26&#45;&gt;Node27</title>
<g id="a_edge28_Node000026_Node000027"><a xlink:title=" ">
<path fill="none" stroke="#63b8ff" d="M1086.43,-175.98C1075.58,-168 1059.12,-155.88 1046.12,-146.31"/>
<polygon fill="#63b8ff" stroke="#63b8ff" points="1047.91,-143.28 1037.78,-140.17 1043.76,-148.92 1047.91,-143.28"/>
</a>
</g>
</g>
<!-- Node26&#45;&gt;Node37 -->
<g id="edge46_Node000026_Node000037" class="edge">
<title>Node26&#45;&gt;Node37</title>
<g id="a_edge46_Node000026_Node000037"><a xlink:title=" ">
<path fill="none" stroke="#63b8ff" d="M1143.34,-177.79C1207.36,-168.31 1324.38,-150.99 1395.68,-140.43"/>
<polygon fill="#63b8ff" stroke="#63b8ff" points="1396.47,-143.85 1405.85,-138.92 1395.45,-136.93 1396.47,-143.85"/>
</a>
</g>
</g>
<!-- Node41 -->
<g id="Node000041" class="node">
<title>Node41</title>
<g id="a_Node000041"><a xlink:title=" ">
<polygon fill="#e0e0e0" stroke="#999999" points="1153,-140 1087,-140 1087,-121 1153,-121 1153,-140"/>
<text text-anchor="middle" x="1120" y="-128" font-family="Helvetica,sans-Serif" font-size="10.00">fe/arena.h</text>
</a>
</g>
</g>
<!-- Node26&#45;&gt;Node41 -->
<g id="edge50_Node000026_Node000041" class="edge">
<title>Node26&#45;&gt;Node41</title>
<g id="a_edge50_Node000026_Node000041"><a xlink:title=" ">
<path fill="none" stroke="#63b8ff" d="M1101.63,-175.75C1104.58,-168.65 1108.83,-158.4 1112.51,-149.56"/>
<polygon fill="#63b8ff" stroke="#63b8ff" points="1115.83,-150.67 1116.43,-140.09 1109.37,-147.98 1115.83,-150.67"/>
</a>
</g>
</g>
<!-- Node27&#45;&gt;Node5 -->
<g id="edge30_Node000027_Node000005" class="edge">
<title>Node27&#45;&gt;Node5</title>
<g id="a_edge30_Node000027_Node000005"><a xlink:title=" ">
<path fill="none" stroke="#63b8ff" d="M1069.1,-122.23C1072.11,-121.79 1075.1,-121.38 1078,-121 1243.16,-99.55 1288.8,-122.8 1451,-85 1453.52,-84.41 1456.09,-83.7 1458.66,-82.9"/>
<polygon fill="#63b8ff" stroke="#63b8ff" points="1460.03,-86.13 1468.33,-79.55 1457.74,-79.52 1460.03,-86.13"/>
</a>
</g>
</g>
<!-- Node27&#45;&gt;Node6 -->
<g id="edge38_Node000027_Node000006" class="edge">
<title>Node27&#45;&gt;Node6</title>
<g id="a_edge38_Node000027_Node000006"><a xlink:title=" ">
<path fill="none" stroke="#63b8ff" d="M982.72,-127.27C871.35,-121.33 576.87,-104.25 481,-85 477.59,-84.31 474.07,-83.45 470.58,-82.48"/>
<polygon fill="#63b8ff" stroke="#63b8ff" points="471.53,-79.11 460.94,-79.56 469.5,-85.81 471.53,-79.11"/>
</a>
</g>
</g>
<!-- Node27&#45;&gt;Node11 -->
<g id="edge34_Node000027_Node000011" class="edge">
<title>Node27&#45;&gt;Node11</title>
<g id="a_edge34_Node000027_Node000011"><a xlink:title=" ">
<path fill="none" stroke="#63b8ff" d="M982.84,-126.69C907.78,-121.43 748.22,-108.58 604.07,-85.05"/>
<polygon fill="#63b8ff" stroke="#63b8ff" points="604.6,-81.59 594.16,-83.41 603.46,-88.49 604.6,-81.59"/>
</a>
</g>
</g>
<!-- Node27&#45;&gt;Node12 -->
<g id="edge35_Node000027_Node000012" class="edge">
<title>Node27&#45;&gt;Node12</title>
<g id="a_edge35_Node000027_Node000012"><a xlink:title=" ">
<path fill="none" stroke="#63b8ff" d="M989.65,-120.99C949.95,-111.7 885.67,-96.66 837.97,-85.5"/>
<polygon fill="#63b8ff" stroke="#63b8ff" points="838.6,-82.05 828.06,-83.18 837,-88.87 838.6,-82.05"/>
</a>
</g>
</g>
<!-- Node27&#45;&gt;Node25 -->
<g id="edge33_Node000027_Node000025" class="edge">
<title>Node27&#45;&gt;Node25</title>
<g id="a_edge33_Node000027_Node000025"><a xlink:title=" ">
<path fill="none" stroke="#63b8ff" d="M1020.97,-120.94C1009.57,-101.57 981.6,-54.02 966.34,-28.08"/>
<polygon fill="#63b8ff" stroke="#63b8ff" points="969.26,-26.15 961.18,-19.3 963.23,-29.7 969.26,-26.15"/>
</a>
</g>
</g>
<!-- Node28 -->
<g id="Node000028" class="node">
<title>Node28</title>
<g id="a_Node000028"><a xlink:title=" ">
<polygon fill="#e0e0e0" stroke="#999999" points="1184.5,-79.5 1131.5,-79.5 1131.5,-60.5 1184.5,-60.5 1184.5,-79.5"/>
<text text-anchor="middle" x="1158" y="-67.5" font-family="Helvetica,sans-Serif" font-size="10.00">iterator</text>
</a>
</g>
</g>
<!-- Node27&#45;&gt;Node28 -->
<g id="edge29_Node000027_Node000028" class="edge">
<title>Node27&#45;&gt;Node28</title>
<g id="a_edge29_Node000027_Node000028"><a xlink:title=" ">
<path fill="none" stroke="#63b8ff" d="M1045.19,-120.99C1067.39,-111.16 1104.12,-94.88 1129.62,-83.58"/>
<polygon fill="#63b8ff" stroke="#63b8ff" points="1131.06,-86.77 1138.78,-79.52 1128.22,-80.37 1131.06,-86.77"/>
</a>
</g>
</g>
<!-- Node29 -->
<g id="Node000029" class="node">
<title>Node29</title>
<g id="a_Node000029"><a xlink:title=" ">
<polygon fill="#e0e0e0" stroke="#999999" points="1249.5,-79.5 1202.5,-79.5 1202.5,-60.5 1249.5,-60.5 1249.5,-79.5"/>
<text text-anchor="middle" x="1226" y="-67.5" font-family="Helvetica,sans-Serif" font-size="10.00">queue</text>
</a>
</g>
</g>
<!-- Node27&#45;&gt;Node29 -->
<g id="edge31_Node000027_Node000029" class="edge">
<title>Node27&#45;&gt;Node29</title>
<g id="a_edge31_Node000027_Node000029"><a xlink:title=" ">
<path fill="none" stroke="#63b8ff" d="M1064.26,-120.93C1098.41,-112.89 1149.58,-99.91 1193,-85 1194.43,-84.51 1195.9,-83.98 1197.36,-83.43"/>
<polygon fill="#63b8ff" stroke="#63b8ff" points="1198.99,-86.56 1206.98,-79.61 1196.4,-80.05 1198.99,-86.56"/>
</a>
</g>
</g>
<!-- Node30 -->
<g id="Node000030" class="node">
<title>Node30</title>
<g id="a_Node000030"><a xlink:title=" ">
<polygon fill="#e0e0e0" stroke="#999999" points="1310.5,-79.5 1267.5,-79.5 1267.5,-60.5 1310.5,-60.5 1310.5,-79.5"/>
<text text-anchor="middle" x="1289" y="-67.5" font-family="Helvetica,sans-Serif" font-size="10.00">stack</text>
</a>
</g>
</g>
<!-- Node27&#45;&gt;Node30 -->
<g id="edge32_Node000027_Node000030" class="edge">
<title>Node27&#45;&gt;Node30</title>
<g id="a_edge32_Node000027_Node000030"><a xlink:title=" ">
<path fill="none" stroke="#63b8ff" d="M1069.24,-122.45C1126.29,-112.94 1223.5,-95.93 1258,-85 1259.44,-84.54 1260.91,-84.04 1262.37,-83.5"/>
<polygon fill="#63b8ff" stroke="#63b8ff" points="1263.98,-86.62 1271.9,-79.58 1261.32,-80.15 1263.98,-86.62"/>
</a>
</g>
</g>
<!-- Node31 -->
<g id="Node000031" class="node">
<title>Node31</title>
<g id="a_Node000031"><a xlink:title=" ">
<polygon fill="#e0e0e0" stroke="#999999" points="1441.5,-85 1328.5,-85 1328.5,-55 1441.5,-55 1441.5,-85"/>
<text text-anchor="start" x="1336.5" y="-73" font-family="Helvetica,sans-Serif" font-size="10.00">absl/container/node</text>
<text text-anchor="middle" x="1385" y="-62" font-family="Helvetica,sans-Serif" font-size="10.00">_hash_map.h</text>
</a>
</g>
</g>
<!-- Node27&#45;&gt;Node31 -->
<g id="edge36_Node000027_Node000031" class="edge">
<title>Node27&#45;&gt;Node31</title>
<g id="a_edge36_Node000027_Node000031"><a xlink:title=" ">
<path fill="none" stroke="#63b8ff" d="M1069.12,-122.4C1072.13,-121.92 1075.11,-121.45 1078,-121 1182.29,-104.72 1211.33,-104.46 1318.41,-85.23"/>
<polygon fill="#63b8ff" stroke="#63b8ff" points="1319.11,-88.66 1328.32,-83.43 1317.86,-81.77 1319.11,-88.66"/>
</a>
</g>
</g>
<!-- Node32 -->
<g id="Node000032" class="node">
<title>Node32</title>
<g id="a_Node000032"><a xlink:title=" ">
<polygon fill="#e0e0e0" stroke="#999999" points="959.5,-85 846.5,-85 846.5,-55 959.5,-55 959.5,-85"/>
<text text-anchor="start" x="854.5" y="-73" font-family="Helvetica,sans-Serif" font-size="10.00">absl/container/node</text>
<text text-anchor="middle" x="903" y="-62" font-family="Helvetica,sans-Serif" font-size="10.00">_hash_set.h</text>
</a>
</g>
</g>
<!-- Node27&#45;&gt;Node32 -->
<g id="edge37_Node000027_Node000032" class="edge">
<title>Node27&#45;&gt;Node32</title>
<g id="a_edge37_Node000027_Node000032"><a xlink:title=" ">
<path fill="none" stroke="#63b8ff" d="M1008.11,-120.99C990.86,-112.79 964.16,-100.09 941.99,-89.55"/>
<polygon fill="#63b8ff" stroke="#63b8ff" points="943.34,-86.31 932.81,-85.18 940.34,-92.63 943.34,-86.31"/>
</a>
</g>
</g>
<!-- Node33 -->
<g id="Node000033" class="node">
<title>Node33</title>
<g id="a_Node000033"><a xlink:href="types_8h.html" target="_top" xlink:title=" ">
<polygon fill="white" stroke="#666666" points="1113.5,-79.5 1016.5,-79.5 1016.5,-60.5 1113.5,-60.5 1113.5,-79.5"/>
<text text-anchor="middle" x="1065" y="-67.5" font-family="Helvetica,sans-Serif" font-size="10.00">mim/util/types.h</text>
</a>
</g>
</g>
<!-- Node27&#45;&gt;Node33 -->
<g id="edge39_Node000027_Node000033" class="edge">
<title>Node27&#45;&gt;Node33</title>
<g id="a_edge39_Node000027_Node000033"><a xlink:title=" ">
<path fill="none" stroke="#63b8ff" d="M1031.75,-120.87C1037.46,-112.31 1046.35,-98.97 1053.51,-88.24"/>
<polygon fill="#63b8ff" stroke="#63b8ff" points="1056.59,-89.93 1059.22,-79.67 1050.76,-86.05 1056.59,-89.93"/>
</a>
</g>
</g>
<!-- Node33&#45;&gt;Node19 -->
<g id="edge43_Node000033_Node000019" class="edge">
<title>Node33&#45;&gt;Node19</title>
<g id="a_edge43_Node000033_Node000019"><a xlink:title=" ">
<path fill="none" stroke="#63b8ff" d="M1016.23,-61.35C1000.83,-59.09 983.73,-56.76 968,-55 774.65,-33.32 542.25,-18.22 451.73,-12.76"/>
<polygon fill="#63b8ff" stroke="#63b8ff" points="451.85,-9.26 441.66,-12.15 451.43,-16.25 451.85,-9.26"/>
</a>
</g>
</g>
<!-- Node33&#45;&gt;Node24 -->
<g id="edge41_Node000033_Node000024" class="edge">
<title>Node33&#45;&gt;Node24</title>
<g id="a_edge41_Node000033_Node000024"><a xlink:title=" ">
<path fill="none" stroke="#63b8ff" d="M1029.23,-60.49C982.4,-49.36 900.82,-29.96 854.25,-18.88"/>
<polygon fill="#63b8ff" stroke="#63b8ff" points="854.85,-15.43 844.31,-16.52 853.23,-22.24 854.85,-15.43"/>
</a>
</g>
</g>
<!-- Node33&#45;&gt;Node25 -->
<g id="edge44_Node000033_Node000025" class="edge">
<title>Node33&#45;&gt;Node25</title>
<g id="a_edge44_Node000033_Node000025"><a xlink:title=" ">
<path fill="none" stroke="#63b8ff" d="M1048.92,-60.37C1031.05,-50.78 1001.96,-35.17 981.09,-23.97"/>
<polygon fill="#63b8ff" stroke="#63b8ff" points="982.62,-20.81 972.15,-19.17 979.31,-26.98 982.62,-20.81"/>
</a>
</g>
</g>
<!-- Node34 -->
<g id="Node000034" class="node">
<title>Node34</title>
<g id="a_Node000034"><a xlink:title=" ">
<polygon fill="#e0e0e0" stroke="#999999" points="1055.5,-19 1008.5,-19 1008.5,0 1055.5,0 1055.5,-19"/>
<text text-anchor="middle" x="1032" y="-7" font-family="Helvetica,sans-Serif" font-size="10.00">cmath</text>
</a>
</g>
</g>
<!-- Node33&#45;&gt;Node34 -->
<g id="edge40_Node000033_Node000034" class="edge">
<title>Node33&#45;&gt;Node34</title>
<g id="a_edge40_Node000033_Node000034"><a xlink:title=" ">
<path fill="none" stroke="#63b8ff" d="M1060.13,-60.37C1055.35,-51.9 1047.93,-38.74 1041.91,-28.07"/>
<polygon fill="#63b8ff" stroke="#63b8ff" points="1044.85,-26.16 1036.89,-19.17 1038.75,-29.6 1044.85,-26.16"/>
</a>
</g>
</g>
<!-- Node35 -->
<g id="Node000035" class="node">
<title>Node35</title>
<g id="a_Node000035"><a xlink:title=" ">
<polygon fill="#e0e0e0" stroke="#999999" points="1118,-19 1074,-19 1074,0 1118,0 1118,-19"/>
<text text-anchor="middle" x="1096" y="-7" font-family="Helvetica,sans-Serif" font-size="10.00">limits</text>
</a>
</g>
</g>
<!-- Node33&#45;&gt;Node35 -->
<g id="edge42_Node000033_Node000035" class="edge">
<title>Node33&#45;&gt;Node35</title>
<g id="a_edge42_Node000033_Node000035"><a xlink:title=" ">
<path fill="none" stroke="#63b8ff" d="M1069.57,-60.37C1074.06,-51.9 1081.03,-38.74 1086.69,-28.07"/>
<polygon fill="#63b8ff" stroke="#63b8ff" points="1089.82,-29.64 1091.41,-19.17 1083.63,-26.36 1089.82,-29.64"/>
</a>
</g>
</g>
<!-- Node36 -->
<g id="Node000036" class="node">
<title>Node36</title>
<g id="a_Node000036"><a xlink:title=" ">
<polygon fill="#e0e0e0" stroke="#999999" points="1192,-19 1136,-19 1136,0 1192,0 1192,-19"/>
<text text-anchor="middle" x="1164" y="-7" font-family="Helvetica,sans-Serif" font-size="10.00">half.hpp</text>
</a>
</g>
</g>
<!-- Node33&#45;&gt;Node36 -->
<g id="edge45_Node000033_Node000036" class="edge">
<title>Node33&#45;&gt;Node36</title>
<g id="a_edge45_Node000033_Node000036"><a xlink:title=" ">
<path fill="none" stroke="#63b8ff" d="M1079.61,-60.37C1095.69,-50.86 1121.78,-35.45 1140.7,-24.27"/>
<polygon fill="#63b8ff" stroke="#63b8ff" points="1142.5,-27.27 1149.33,-19.17 1138.94,-21.24 1142.5,-27.27"/>
</a>
</g>
</g>
<!-- Node38 -->
<g id="Node000038" class="node">
<title>Node38</title>
<g id="a_Node000038"><a xlink:title=" ">
<polygon fill="#e0e0e0" stroke="#999999" points="1656,-85 1534,-85 1534,-55 1656,-55 1656,-85"/>
<text text-anchor="start" x="1542" y="-73" font-family="Helvetica,sans-Serif" font-size="10.00">absl/container/inlined</text>
<text text-anchor="middle" x="1595" y="-62" font-family="Helvetica,sans-Serif" font-size="10.00">_vector.h</text>
</a>
</g>
</g>
<!-- Node37&#45;&gt;Node38 -->
<g id="edge47_Node000037_Node000038" class="edge">
<title>Node37&#45;&gt;Node38</title>
<g id="a_edge47_Node000037_Node000038"><a xlink:title=" ">
<path fill="none" stroke="#63b8ff" d="M1476.21,-120.99C1496.04,-112.65 1526.9,-99.66 1552.19,-89.02"/>
<polygon fill="#63b8ff" stroke="#63b8ff" points="1553.72,-92.17 1561.58,-85.06 1551.01,-85.72 1553.72,-92.17"/>
</a>
</g>
</g>
<!-- Node39 -->
<g id="Node000039" class="node">
<title>Node39</title>
<g id="a_Node000039"><a xlink:href="span_8h.html" target="_top" xlink:title=" ">
<polygon fill="white" stroke="#666666" points="1767.5,-79.5 1674.5,-79.5 1674.5,-60.5 1767.5,-60.5 1767.5,-79.5"/>
<text text-anchor="middle" x="1721" y="-67.5" font-family="Helvetica,sans-Serif" font-size="10.00">mim/util/span.h</text>
</a>
</g>
</g>
<!-- Node37&#45;&gt;Node39 -->
<g id="edge48_Node000037_Node000039" class="edge">
<title>Node37&#45;&gt;Node39</title>
<g id="a_edge48_Node000037_Node000039"><a xlink:title=" ">
<path fill="none" stroke="#63b8ff" d="M1498.13,-120.98C1540.41,-112.33 1607.35,-98.34 1665,-85 1669.12,-84.05 1673.4,-83.03 1677.68,-81.99"/>
<polygon fill="#63b8ff" stroke="#63b8ff" points="1678.71,-85.34 1687.58,-79.56 1677.04,-78.54 1678.71,-85.34"/>
</a>
</g>
</g>
<!-- Node40 -->
<g id="Node000040" class="node">
<title>Node40</title>
<g id="a_Node000040"><a xlink:title=" ">
<polygon fill="#e0e0e0" stroke="#999999" points="1741,-19 1701,-19 1701,0 1741,0 1741,-19"/>
<text text-anchor="middle" x="1721" y="-7" font-family="Helvetica,sans-Serif" font-size="10.00">span</text>
</a>
</g>
</g>
<!-- Node39&#45;&gt;Node40 -->
<g id="edge49_Node000039_Node000040" class="edge">
<title>Node39&#45;&gt;Node40</title>
<g id="a_edge49_Node000039_Node000040"><a xlink:title=" ">
<path fill="none" stroke="#63b8ff" d="M1721,-60.37C1721,-52.25 1721,-39.81 1721,-29.39"/>
<polygon fill="#63b8ff" stroke="#63b8ff" points="1724.5,-29.17 1721,-19.17 1717.5,-29.17 1724.5,-29.17"/>
</a>
</g>
</g>
</g>
</svg>

<g id="navigator" transform="translate(0 0)" fill="#404254">
  <rect fill="#f2f5e9" fill-opacity="0.5" stroke="#606060" stroke-width=".5" x="0" y="0" width="60" height="60"/>
  <use id="zoomplus" xlink:href="#zoomPlus" x="17" y="9" onmousedown="handleZoom(evt,'in')"/>
  <use id="zoomminus" xlink:href="#zoomMin" x="42" y="9" onmousedown="handleZoom(evt,'out')"/>
  <use id="reset" xlink:href="#resetDef" x="30" y="36" onmousedown="handleReset()"/>
   <use id="arrowup" xlink:href="#arrowUp" x="0" y="0" onmousedown="handlePan(0,-1)"/>
  <use id="arrowright" xlink:href="#arrowRight" x="0" y="0" onmousedown="handlePan(1,0)"/>
  <use id="arrowdown" xlink:href="#arrowDown" x="0" y="0" onmousedown="handlePan(0,1)"/>
  <use id="arrowleft" xlink:href="#arrowLeft" x="0" y="0" onmousedown="handlePan(-1,0)"/>
</g>
<svg viewBox="0 0 15 15" width="100%" height="30px" preserveAspectRatio="xMaxYMin meet">
 <g id="arrow_out" transform="scale(0.3 0.3)">
  <a xlink:href="nest_8h__incl_org.svg" target="_base">
   <rect id="button" ry="5" rx="5" y="6" x="6" height="38" width="38"
        fill="#f2f5e9" fill-opacity="0.5" stroke="#606060" stroke-width="1.0"/>
   <path id="arrow"
     d="M 11.500037,31.436501 C 11.940474,20.09759 22.043105,11.32322 32.158766,21.979434 L 37.068811,17.246167 C 37.068811,17.246167 37.088388,32 37.088388,32 L 22.160133,31.978069 C 22.160133,31.978069 26.997745,27.140456 26.997745,27.140456 C 18.528582,18.264221 13.291696,25.230495 11.500037,31.436501 z"
     style="fill:#404040;"/>
  </a>
 </g>
</svg>

<style type='text/css'>
<![CDATA[
[data-mouse-over-selected='false'] { opacity: 0.7; }
[data-mouse-over-selected='true']  { opacity: 1.0; }
]]>
</style>
<script type="application/ecmascript"><![CDATA[
document.addEventListener('DOMContentLoaded', (event) => {
  highlightEdges();
  highlightAdjacentNodes();
});
]]></script>
</svg>
