<?xml version="1.0" encoding="UTF-8" standalone="no"?>
<!DOCTYPE svg PUBLIC "-//W3C//DTD SVG 1.1//EN"
 "http://www.w3.org/Graphics/SVG/1.1/DTD/svg11.dtd">
<!-- Generated by graphviz version 2.43.0 (0)
 -->
<!-- Title: include/automaton/nfa2dfa.h Pages: 1 -->
<svg width="563pt" height="258pt"
 viewBox="0.00 0.00 562.53 258.00" xmlns="http://www.w3.org/2000/svg" xmlns:xlink="http://www.w3.org/1999/xlink">
<g id="graph0" class="graph" transform="scale(1 1) rotate(0) translate(4 254)">
<title>include/automaton/nfa2dfa.h</title>
<!-- Node1 -->
<g id="Node000001" class="node">
<title>Node1</title>
<g id="a_Node000001"><a xlink:title=" ">
<polygon fill="#999999" stroke="#666666" points="426.5,-250 268.5,-250 268.5,-231 426.5,-231 426.5,-250"/>
<text text-anchor="middle" x="347.5" y="-238" font-family="Helvetica,sans-Serif" font-size="10.00">include/automaton/nfa2dfa.h</text>
</a>
</g>
</g>
<!-- Node2 -->
<g id="Node000002" class="node">
<title>Node2</title>
<g id="a_Node000002"><a xlink:title=" ">
<polygon fill="#e0e0e0" stroke="#999999" points="280.5,-195 222.5,-195 222.5,-176 280.5,-176 280.5,-195"/>
<text text-anchor="middle" x="251.5" y="-183" font-family="Helvetica,sans-Serif" font-size="10.00">memory</text>
</a>
</g>
</g>
<!-- Node1&#45;&gt;Node2 -->
<g id="edge1_Node000001_Node000002" class="edge">
<title>Node1&#45;&gt;Node2</title>
<g id="a_edge1_Node000001_Node000002"><a xlink:title=" ">
<path fill="none" stroke="#63b8ff" d="M332.08,-230.98C317.05,-222.69 293.96,-209.94 276.34,-200.22"/>
<polygon fill="#63b8ff" stroke="#63b8ff" points="277.65,-196.94 267.2,-195.17 274.27,-203.07 277.65,-196.94"/>
</a>
</g>
</g>
<!-- Node3 -->
<g id="Node000003" class="node">
<title>Node3</title>
<g id="a_Node000003"><a xlink:href="dfa_8h.html" target="_top" xlink:title=" ">
<polygon fill="white" stroke="#666666" points="521.5,-195 423.5,-195 423.5,-176 521.5,-176 521.5,-195"/>
<text text-anchor="middle" x="472.5" y="-183" font-family="Helvetica,sans-Serif" font-size="10.00">automaton/dfa.h</text>
</a>
</g>
</g>
<!-- Node1&#45;&gt;Node3 -->
<g id="edge2_Node000001_Node000003" class="edge">
<title>Node1&#45;&gt;Node3</title>
<g id="a_edge2_Node000001_Node000003"><a xlink:title=" ">
<path fill="none" stroke="#63b8ff" d="M367.58,-230.98C387.87,-222.38 419.46,-208.99 442.67,-199.15"/>
<polygon fill="#63b8ff" stroke="#63b8ff" points="444.21,-202.3 452.05,-195.17 441.48,-195.85 444.21,-202.3"/>
</a>
</g>
</g>
<!-- Node13 -->
<g id="Node000013" class="node">
<title>Node13</title>
<g id="a_Node000013"><a xlink:href="nfa_8h.html" target="_top" xlink:title=" ">
<polygon fill="white" stroke="#666666" points="396.5,-195 298.5,-195 298.5,-176 396.5,-176 396.5,-195"/>
<text text-anchor="middle" x="347.5" y="-183" font-family="Helvetica,sans-Serif" font-size="10.00">automaton/nfa.h</text>
</a>
</g>
</g>
<!-- Node1&#45;&gt;Node13 -->
<g id="edge15_Node000001_Node000013" class="edge">
<title>Node1&#45;&gt;Node13</title>
<g id="a_edge15_Node000001_Node000013"><a xlink:title=" ">
<path fill="none" stroke="#63b8ff" d="M347.5,-230.75C347.5,-223.8 347.5,-213.85 347.5,-205.13"/>
<polygon fill="#63b8ff" stroke="#63b8ff" points="351,-205.09 347.5,-195.09 344,-205.09 351,-205.09"/>
</a>
</g>
</g>
<!-- Node4 -->
<g id="Node000004" class="node">
<title>Node4</title>
<g id="a_Node000004"><a xlink:title=" ">
<polygon fill="#e0e0e0" stroke="#999999" points="250.5,-19 200.5,-19 200.5,0 250.5,0 250.5,-19"/>
<text text-anchor="middle" x="225.5" y="-7" font-family="Helvetica,sans-Serif" font-size="10.00">cstdint</text>
</a>
</g>
</g>
<!-- Node3&#45;&gt;Node4 -->
<g id="edge3_Node000003_Node000004" class="edge">
<title>Node3&#45;&gt;Node4</title>
<g id="a_edge3_Node000003_Node000004"><a xlink:title=" ">
<path fill="none" stroke="#63b8ff" d="M484.06,-175.87C512.12,-153.89 579.12,-94.78 544.5,-55 508.11,-13.19 336.77,-9.45 261.32,-9.89"/>
<polygon fill="#63b8ff" stroke="#63b8ff" points="260.88,-6.39 250.91,-9.98 260.94,-13.39 260.88,-6.39"/>
</a>
</g>
</g>
<!-- Node5 -->
<g id="Node000005" class="node">
<title>Node5</title>
<g id="a_Node000005"><a xlink:title=" ">
<polygon fill="#e0e0e0" stroke="#999999" points="535.5,-85 431.5,-85 431.5,-55 535.5,-55 535.5,-85"/>
<text text-anchor="start" x="439.5" y="-73" font-family="Helvetica,sans-Serif" font-size="10.00">absl/container/flat</text>
<text text-anchor="middle" x="483.5" y="-62" font-family="Helvetica,sans-Serif" font-size="10.00">_hash_map.h</text>
</a>
</g>
</g>
<!-- Node3&#45;&gt;Node5 -->
<g id="edge4_Node000003_Node000005" class="edge">
<title>Node3&#45;&gt;Node5</title>
<g id="a_edge4_Node000003_Node000005"><a xlink:title=" ">
<path fill="none" stroke="#63b8ff" d="M473.33,-175.97C474.97,-159.01 478.7,-120.5 481.16,-95.14"/>
<polygon fill="#63b8ff" stroke="#63b8ff" points="484.64,-95.47 482.13,-85.18 477.68,-94.8 484.64,-95.47"/>
</a>
</g>
</g>
<!-- Node6 -->
<g id="Node000006" class="node">
<title>Node6</title>
<g id="a_Node000006"><a xlink:href="automaton_8h.html" target="_top" xlink:title=" ">
<polygon fill="white" stroke="#666666" points="415,-140 280,-140 280,-121 415,-121 415,-140"/>
<text text-anchor="middle" x="347.5" y="-128" font-family="Helvetica,sans-Serif" font-size="10.00">automaton/automaton.h</text>
</a>
</g>
</g>
<!-- Node3&#45;&gt;Node6 -->
<g id="edge5_Node000003_Node000006" class="edge">
<title>Node3&#45;&gt;Node6</title>
<g id="a_edge5_Node000003_Node000006"><a xlink:title=" ">
<path fill="none" stroke="#63b8ff" d="M452.42,-175.98C432.13,-167.38 400.54,-153.99 377.33,-144.15"/>
<polygon fill="#63b8ff" stroke="#63b8ff" points="378.52,-140.85 367.95,-140.17 375.79,-147.3 378.52,-140.85"/>
</a>
</g>
</g>
<!-- Node6&#45;&gt;Node5 -->
<g id="edge10_Node000006_Node000005" class="edge">
<title>Node6&#45;&gt;Node5</title>
<g id="a_edge10_Node000006_Node000005"><a xlink:title=" ">
<path fill="none" stroke="#63b8ff" d="M367.28,-120.99C386.59,-112.68 416.6,-99.78 441.29,-89.16"/>
<polygon fill="#63b8ff" stroke="#63b8ff" points="443,-92.23 450.8,-85.06 440.23,-85.8 443,-92.23"/>
</a>
</g>
</g>
<!-- Node7 -->
<g id="Node000007" class="node">
<title>Node7</title>
<g id="a_Node000007"><a xlink:title=" ">
<polygon fill="#e0e0e0" stroke="#999999" points="313.5,-79.5 253.5,-79.5 253.5,-60.5 313.5,-60.5 313.5,-79.5"/>
<text text-anchor="middle" x="283.5" y="-67.5" font-family="Helvetica,sans-Serif" font-size="10.00">iostream</text>
</a>
</g>
</g>
<!-- Node6&#45;&gt;Node7 -->
<g id="edge6_Node000006_Node000007" class="edge">
<title>Node6&#45;&gt;Node7</title>
<g id="a_edge6_Node000006_Node000007"><a xlink:title=" ">
<path fill="none" stroke="#63b8ff" d="M338.06,-120.87C328.23,-111.88 312.61,-97.61 300.61,-86.64"/>
<polygon fill="#63b8ff" stroke="#63b8ff" points="302.72,-83.83 292.98,-79.67 298,-89 302.72,-83.83"/>
</a>
</g>
</g>
<!-- Node8 -->
<g id="Node000008" class="node">
<title>Node8</title>
<g id="a_Node000008"><a xlink:title=" ">
<polygon fill="#e0e0e0" stroke="#999999" points="363.5,-79.5 331.5,-79.5 331.5,-60.5 363.5,-60.5 363.5,-79.5"/>
<text text-anchor="middle" x="347.5" y="-67.5" font-family="Helvetica,sans-Serif" font-size="10.00">list</text>
</a>
</g>
</g>
<!-- Node6&#45;&gt;Node8 -->
<g id="edge7_Node000006_Node000008" class="edge">
<title>Node6&#45;&gt;Node8</title>
<g id="a_edge7_Node000006_Node000008"><a xlink:title=" ">
<path fill="none" stroke="#63b8ff" d="M347.5,-120.87C347.5,-112.75 347.5,-100.31 347.5,-89.89"/>
<polygon fill="#63b8ff" stroke="#63b8ff" points="351,-89.67 347.5,-79.67 344,-89.67 351,-89.67"/>
</a>
</g>
</g>
<!-- Node9 -->
<g id="Node000009" class="node">
<title>Node9</title>
<g id="a_Node000009"><a xlink:title=" ">
<polygon fill="#e0e0e0" stroke="#999999" points="413.5,-79.5 381.5,-79.5 381.5,-60.5 413.5,-60.5 413.5,-79.5"/>
<text text-anchor="middle" x="397.5" y="-67.5" font-family="Helvetica,sans-Serif" font-size="10.00">set</text>
</a>
</g>
</g>
<!-- Node6&#45;&gt;Node9 -->
<g id="edge8_Node000006_Node000009" class="edge">
<title>Node6&#45;&gt;Node9</title>
<g id="a_edge8_Node000006_Node000009"><a xlink:title=" ">
<path fill="none" stroke="#63b8ff" d="M354.88,-120.87C362.41,-112.05 374.29,-98.16 383.59,-87.27"/>
<polygon fill="#63b8ff" stroke="#63b8ff" points="386.26,-89.54 390.09,-79.67 380.93,-85 386.26,-89.54"/>
</a>
</g>
</g>
<!-- Node10 -->
<g id="Node000010" class="node">
<title>Node10</title>
<g id="a_Node000010"><a xlink:title=" ">
<polygon fill="#e0e0e0" stroke="#999999" points="47,-19 0,-19 0,0 47,0 47,-19"/>
<text text-anchor="middle" x="23.5" y="-7" font-family="Helvetica,sans-Serif" font-size="10.00">vector</text>
</a>
</g>
</g>
<!-- Node6&#45;&gt;Node10 -->
<g id="edge9_Node000006_Node000010" class="edge">
<title>Node6&#45;&gt;Node10</title>
<g id="a_edge9_Node000006_Node000010"><a xlink:title=" ">
<path fill="none" stroke="#63b8ff" d="M279.85,-128.15C200.8,-125.16 76.45,-115.57 42.5,-85 27.11,-71.14 23.39,-46.71 22.86,-29.61"/>
<polygon fill="#63b8ff" stroke="#63b8ff" points="26.36,-29.18 22.89,-19.17 19.36,-29.16 26.36,-29.18"/>
</a>
</g>
</g>
<!-- Node11 -->
<g id="Node000011" class="node">
<title>Node11</title>
<g id="a_Node000011"><a xlink:href="range__helper_8h.html" target="_top" xlink:title=" ">
<polygon fill="white" stroke="#666666" points="197,-79.5 52,-79.5 52,-60.5 197,-60.5 197,-79.5"/>
<text text-anchor="middle" x="124.5" y="-67.5" font-family="Helvetica,sans-Serif" font-size="10.00">automaton/range_helper.h</text>
</a>
</g>
</g>
<!-- Node6&#45;&gt;Node11 -->
<g id="edge11_Node000006_Node000011" class="edge">
<title>Node6&#45;&gt;Node11</title>
<g id="a_edge11_Node000006_Node000011"><a xlink:title=" ">
<path fill="none" stroke="#63b8ff" d="M315.07,-120.99C275.93,-110.73 210.01,-93.43 166.87,-82.12"/>
<polygon fill="#63b8ff" stroke="#63b8ff" points="167.53,-78.67 156.97,-79.52 165.75,-85.44 167.53,-78.67"/>
</a>
</g>
</g>
<!-- Node11&#45;&gt;Node4 -->
<g id="edge12_Node000011_Node000004" class="edge">
<title>Node11&#45;&gt;Node4</title>
<g id="a_edge12_Node000011_Node000004"><a xlink:title=" ">
<path fill="none" stroke="#63b8ff" d="M139.4,-60.37C155.81,-50.86 182.43,-35.45 201.73,-24.27"/>
<polygon fill="#63b8ff" stroke="#63b8ff" points="203.64,-27.21 210.54,-19.17 200.13,-21.15 203.64,-27.21"/>
</a>
</g>
</g>
<!-- Node11&#45;&gt;Node10 -->
<g id="edge14_Node000011_Node000010" class="edge">
<title>Node11&#45;&gt;Node10</title>
<g id="a_edge14_Node000011_Node000010"><a xlink:title=" ">
<path fill="none" stroke="#63b8ff" d="M109.6,-60.37C93.19,-50.86 66.57,-35.45 47.27,-24.27"/>
<polygon fill="#63b8ff" stroke="#63b8ff" points="48.87,-21.15 38.46,-19.17 45.36,-27.21 48.87,-21.15"/>
</a>
</g>
</g>
<!-- Node12 -->
<g id="Node000012" class="node">
<title>Node12</title>
<g id="a_Node000012"><a xlink:title=" ">
<polygon fill="#e0e0e0" stroke="#999999" points="152.5,-19 96.5,-19 96.5,0 152.5,0 152.5,-19"/>
<text text-anchor="middle" x="124.5" y="-7" font-family="Helvetica,sans-Serif" font-size="10.00">optional</text>
</a>
</g>
</g>
<!-- Node11&#45;&gt;Node12 -->
<g id="edge13_Node000011_Node000012" class="edge">
<title>Node11&#45;&gt;Node12</title>
<g id="a_edge13_Node000011_Node000012"><a xlink:title=" ">
<path fill="none" stroke="#63b8ff" d="M124.5,-60.37C124.5,-52.25 124.5,-39.81 124.5,-29.39"/>
<polygon fill="#63b8ff" stroke="#63b8ff" points="128,-29.17 124.5,-19.17 121,-29.17 128,-29.17"/>
</a>
</g>
</g>
<!-- Node13&#45;&gt;Node4 -->
<g id="edge16_Node000013_Node000004" class="edge">
<title>Node13&#45;&gt;Node4</title>
<g id="a_edge16_Node000013_Node000004"><a xlink:title=" ">
<path fill="none" stroke="#63b8ff" d="M325.88,-175.97C309.28,-168.53 286.7,-156.35 271.5,-140 242.23,-108.5 231.37,-57.16 227.51,-29.53"/>
<polygon fill="#63b8ff" stroke="#63b8ff" points="230.94,-28.77 226.25,-19.27 223.99,-29.62 230.94,-28.77"/>
</a>
</g>
</g>
<!-- Node13&#45;&gt;Node5 -->
<g id="edge18_Node000013_Node000005" class="edge">
<title>Node13&#45;&gt;Node5</title>
<g id="a_edge18_Node000013_Node000005"><a xlink:title=" ">
<path fill="none" stroke="#63b8ff" d="M366.36,-175.86C382.69,-167.88 406.46,-155.01 424.5,-140 440.86,-126.4 456.37,-107.96 467.38,-93.56"/>
<polygon fill="#63b8ff" stroke="#63b8ff" points="470.44,-95.31 473.62,-85.2 464.83,-91.12 470.44,-95.31"/>
</a>
</g>
</g>
<!-- Node13&#45;&gt;Node6 -->
<g id="edge19_Node000013_Node000006" class="edge">
<title>Node13&#45;&gt;Node6</title>
<g id="a_edge19_Node000013_Node000006"><a xlink:title=" ">
<path fill="none" stroke="#63b8ff" d="M347.5,-175.75C347.5,-168.8 347.5,-158.85 347.5,-150.13"/>
<polygon fill="#63b8ff" stroke="#63b8ff" points="351,-150.09 347.5,-140.09 344,-150.09 351,-150.09"/>
</a>
</g>
</g>
<!-- Node13&#45;&gt;Node10 -->
<g id="edge17_Node000013_Node000010" class="edge">
<title>Node13&#45;&gt;Node10</title>
<g id="a_edge17_Node000013_Node000010"><a xlink:title=" ">
<path fill="none" stroke="#63b8ff" d="M298.35,-176.64C216.12,-162.38 56.42,-129.54 23.5,-85 11.76,-69.11 14.03,-45.66 17.77,-29.33"/>
<polygon fill="#63b8ff" stroke="#63b8ff" points="21.24,-29.9 20.44,-19.34 14.48,-28.09 21.24,-29.9"/>
</a>
</g>
</g>
</g>
</svg>
