<?xml version="1.0" encoding="UTF-8" standalone="no"?>
<!DOCTYPE svg PUBLIC "-//W3C//DTD SVG 1.1//EN"
 "http://www.w3.org/Graphics/SVG/1.1/DTD/svg11.dtd">
<!-- Generated by graphviz version 2.43.0 (0)
 -->
<!-- Title: src/automaton/nfa2dfa.cpp Pages: 1 -->
<svg width="807pt" height="313pt"
 viewBox="0.00 0.00 806.50 313.00" xmlns="http://www.w3.org/2000/svg" xmlns:xlink="http://www.w3.org/1999/xlink">
<g id="graph0" class="graph" transform="scale(1 1) rotate(0) translate(4 309)">
<title>src/automaton/nfa2dfa.cpp</title>
<!-- Node1 -->
<g id="Node000001" class="node">
<title>Node1</title>
<g id="a_Node000001"><a xlink:title=" ">
<polygon fill="#999999" stroke="#666666" points="677,-305 529,-305 529,-286 677,-286 677,-305"/>
<text text-anchor="middle" x="603" y="-293" font-family="Helvetica,sans-Serif" font-size="10.00">src/automaton/nfa2dfa.cpp</text>
</a>
</g>
</g>
<!-- Node2 -->
<g id="Node000002" class="node">
<title>Node2</title>
<g id="a_Node000002"><a xlink:href="nfa2dfa_8h.html" target="_top" xlink:title=" ">
<polygon fill="white" stroke="#666666" points="392.5,-250 273.5,-250 273.5,-231 392.5,-231 392.5,-250"/>
<text text-anchor="middle" x="333" y="-238" font-family="Helvetica,sans-Serif" font-size="10.00">automaton/nfa2dfa.h</text>
</a>
</g>
</g>
<!-- Node1&#45;&gt;Node2 -->
<g id="edge1_Node000001_Node000002" class="edge">
<title>Node1&#45;&gt;Node2</title>
<g id="a_edge1_Node000001_Node000002"><a xlink:title=" ">
<path fill="none" stroke="#63b8ff" d="M559.62,-285.98C512.62,-276.76 437.57,-262.03 386.84,-252.07"/>
<polygon fill="#63b8ff" stroke="#63b8ff" points="387.21,-248.57 376.72,-250.08 385.86,-255.44 387.21,-248.57"/>
</a>
</g>
</g>
<!-- Node10 -->
<g id="Node000010" class="node">
<title>Node10</title>
<g id="a_Node000010"><a xlink:title=" ">
<polygon fill="#e0e0e0" stroke="#999999" points="575,-79.5 543,-79.5 543,-60.5 575,-60.5 575,-79.5"/>
<text text-anchor="middle" x="559" y="-67.5" font-family="Helvetica,sans-Serif" font-size="10.00">set</text>
</a>
</g>
</g>
<!-- Node1&#45;&gt;Node10 -->
<g id="edge23_Node000001_Node000010" class="edge">
<title>Node1&#45;&gt;Node10</title>
<g id="a_edge23_Node000001_Node000010"><a xlink:title=" ">
<path fill="none" stroke="#63b8ff" d="M595.86,-285.94C589.2,-277.41 579.61,-263.67 575,-250 556.17,-194.2 556.41,-123.38 557.83,-90.02"/>
<polygon fill="#63b8ff" stroke="#63b8ff" points="561.34,-90.03 558.36,-79.87 554.35,-89.67 561.34,-90.03"/>
</a>
</g>
</g>
<!-- Node15 -->
<g id="Node000015" class="node">
<title>Node15</title>
<g id="a_Node000015"><a xlink:title=" ">
<polygon fill="#e0e0e0" stroke="#999999" points="622,-250 584,-250 584,-231 622,-231 622,-250"/>
<text text-anchor="middle" x="603" y="-238" font-family="Helvetica,sans-Serif" font-size="10.00">map</text>
</a>
</g>
</g>
<!-- Node1&#45;&gt;Node15 -->
<g id="edge21_Node000001_Node000015" class="edge">
<title>Node1&#45;&gt;Node15</title>
<g id="a_edge21_Node000001_Node000015"><a xlink:title=" ">
<path fill="none" stroke="#63b8ff" d="M603,-285.75C603,-278.8 603,-268.85 603,-260.13"/>
<polygon fill="#63b8ff" stroke="#63b8ff" points="606.5,-260.09 603,-250.09 599.5,-260.09 606.5,-260.09"/>
</a>
</g>
</g>
<!-- Node16 -->
<g id="Node000016" class="node">
<title>Node16</title>
<g id="a_Node000016"><a xlink:title=" ">
<polygon fill="#e0e0e0" stroke="#999999" points="687.5,-250 640.5,-250 640.5,-231 687.5,-231 687.5,-250"/>
<text text-anchor="middle" x="664" y="-238" font-family="Helvetica,sans-Serif" font-size="10.00">queue</text>
</a>
</g>
</g>
<!-- Node1&#45;&gt;Node16 -->
<g id="edge22_Node000001_Node000016" class="edge">
<title>Node1&#45;&gt;Node16</title>
<g id="a_edge22_Node000001_Node000016"><a xlink:title=" ">
<path fill="none" stroke="#63b8ff" d="M612.8,-285.98C621.82,-278.15 635.41,-266.34 646.32,-256.86"/>
<polygon fill="#63b8ff" stroke="#63b8ff" points="648.77,-259.37 654.02,-250.17 644.18,-254.09 648.77,-259.37"/>
</a>
</g>
</g>
<!-- Node17 -->
<g id="Node000017" class="node">
<title>Node17</title>
<g id="a_Node000017"><a xlink:title=" ">
<polygon fill="#e0e0e0" stroke="#999999" points="798.5,-250 705.5,-250 705.5,-231 798.5,-231 798.5,-250"/>
<text text-anchor="middle" x="752" y="-238" font-family="Helvetica,sans-Serif" font-size="10.00">unordered_map</text>
</a>
</g>
</g>
<!-- Node1&#45;&gt;Node17 -->
<g id="edge24_Node000001_Node000017" class="edge">
<title>Node1&#45;&gt;Node17</title>
<g id="a_edge24_Node000001_Node000017"><a xlink:title=" ">
<path fill="none" stroke="#63b8ff" d="M626.94,-285.98C651.56,-277.23 690.12,-263.51 717.92,-253.62"/>
<polygon fill="#63b8ff" stroke="#63b8ff" points="719.38,-256.82 727.62,-250.17 717.03,-250.22 719.38,-256.82"/>
</a>
</g>
</g>
<!-- Node3 -->
<g id="Node000003" class="node">
<title>Node3</title>
<g id="a_Node000003"><a xlink:title=" ">
<polygon fill="#e0e0e0" stroke="#999999" points="410,-195 352,-195 352,-176 410,-176 410,-195"/>
<text text-anchor="middle" x="381" y="-183" font-family="Helvetica,sans-Serif" font-size="10.00">memory</text>
</a>
</g>
</g>
<!-- Node2&#45;&gt;Node3 -->
<g id="edge2_Node000002_Node000003" class="edge">
<title>Node2&#45;&gt;Node3</title>
<g id="a_edge2_Node000002_Node000003"><a xlink:title=" ">
<path fill="none" stroke="#63b8ff" d="M340.93,-230.75C347.85,-223.11 358.07,-211.82 366.45,-202.56"/>
<polygon fill="#63b8ff" stroke="#63b8ff" points="369.1,-204.85 373.22,-195.09 363.91,-200.15 369.1,-204.85"/>
</a>
</g>
</g>
<!-- Node4 -->
<g id="Node000004" class="node">
<title>Node4</title>
<g id="a_Node000004"><a xlink:href="dfa_8h.html" target="_top" xlink:title=" ">
<polygon fill="white" stroke="#666666" points="203,-195 105,-195 105,-176 203,-176 203,-195"/>
<text text-anchor="middle" x="154" y="-183" font-family="Helvetica,sans-Serif" font-size="10.00">automaton/dfa.h</text>
</a>
</g>
</g>
<!-- Node2&#45;&gt;Node4 -->
<g id="edge3_Node000002_Node000004" class="edge">
<title>Node2&#45;&gt;Node4</title>
<g id="a_edge3_Node000002_Node000004"><a xlink:title=" ">
<path fill="none" stroke="#63b8ff" d="M304.24,-230.98C274.06,-222.05 226.43,-207.94 192.9,-198.02"/>
<polygon fill="#63b8ff" stroke="#63b8ff" points="193.57,-194.57 182.98,-195.08 191.58,-201.28 193.57,-194.57"/>
</a>
</g>
</g>
<!-- Node14 -->
<g id="Node000014" class="node">
<title>Node14</title>
<g id="a_Node000014"><a xlink:href="nfa_8h.html" target="_top" xlink:title=" ">
<polygon fill="white" stroke="#666666" points="334,-195 236,-195 236,-176 334,-176 334,-195"/>
<text text-anchor="middle" x="285" y="-183" font-family="Helvetica,sans-Serif" font-size="10.00">automaton/nfa.h</text>
</a>
</g>
</g>
<!-- Node2&#45;&gt;Node14 -->
<g id="edge16_Node000002_Node000014" class="edge">
<title>Node2&#45;&gt;Node14</title>
<g id="a_edge16_Node000002_Node000014"><a xlink:title=" ">
<path fill="none" stroke="#63b8ff" d="M325.07,-230.75C318.15,-223.11 307.93,-211.82 299.55,-202.56"/>
<polygon fill="#63b8ff" stroke="#63b8ff" points="302.09,-200.15 292.78,-195.09 296.9,-204.85 302.09,-200.15"/>
</a>
</g>
</g>
<!-- Node5 -->
<g id="Node000005" class="node">
<title>Node5</title>
<g id="a_Node000005"><a xlink:title=" ">
<polygon fill="#e0e0e0" stroke="#999999" points="50,-19 0,-19 0,0 50,0 50,-19"/>
<text text-anchor="middle" x="25" y="-7" font-family="Helvetica,sans-Serif" font-size="10.00">cstdint</text>
</a>
</g>
</g>
<!-- Node4&#45;&gt;Node5 -->
<g id="edge4_Node000004_Node000005" class="edge">
<title>Node4&#45;&gt;Node5</title>
<g id="a_edge4_Node000004_Node000005"><a xlink:title=" ">
<path fill="none" stroke="#63b8ff" d="M140.13,-175.94C116.6,-160.69 69,-126.46 44,-85 33.68,-67.89 28.94,-45.32 26.77,-29.53"/>
<polygon fill="#63b8ff" stroke="#63b8ff" points="30.23,-28.93 25.61,-19.4 23.27,-29.73 30.23,-28.93"/>
</a>
</g>
</g>
<!-- Node6 -->
<g id="Node000006" class="node">
<title>Node6</title>
<g id="a_Node000006"><a xlink:title=" ">
<polygon fill="#e0e0e0" stroke="#999999" points="157,-85 53,-85 53,-55 157,-55 157,-85"/>
<text text-anchor="start" x="61" y="-73" font-family="Helvetica,sans-Serif" font-size="10.00">absl/container/flat</text>
<text text-anchor="middle" x="105" y="-62" font-family="Helvetica,sans-Serif" font-size="10.00">_hash_map.h</text>
</a>
</g>
</g>
<!-- Node4&#45;&gt;Node6 -->
<g id="edge5_Node000004_Node000006" class="edge">
<title>Node4&#45;&gt;Node6</title>
<g id="a_edge5_Node000004_Node000006"><a xlink:title=" ">
<path fill="none" stroke="#63b8ff" d="M150.32,-175.97C142.93,-158.86 126.07,-119.81 115.13,-94.47"/>
<polygon fill="#63b8ff" stroke="#63b8ff" points="118.3,-92.97 111.12,-85.18 111.87,-95.75 118.3,-92.97"/>
</a>
</g>
</g>
<!-- Node7 -->
<g id="Node000007" class="node">
<title>Node7</title>
<g id="a_Node000007"><a xlink:href="automaton_8h.html" target="_top" xlink:title=" ">
<polygon fill="white" stroke="#666666" points="382.5,-140 247.5,-140 247.5,-121 382.5,-121 382.5,-140"/>
<text text-anchor="middle" x="315" y="-128" font-family="Helvetica,sans-Serif" font-size="10.00">automaton/automaton.h</text>
</a>
</g>
</g>
<!-- Node4&#45;&gt;Node7 -->
<g id="edge6_Node000004_Node000007" class="edge">
<title>Node4&#45;&gt;Node7</title>
<g id="a_edge6_Node000004_Node000007"><a xlink:title=" ">
<path fill="none" stroke="#63b8ff" d="M179.87,-175.98C206.78,-167.13 249.12,-153.19 279.23,-143.28"/>
<polygon fill="#63b8ff" stroke="#63b8ff" points="280.53,-146.53 288.93,-140.08 278.34,-139.88 280.53,-146.53"/>
</a>
</g>
</g>
<!-- Node7&#45;&gt;Node6 -->
<g id="edge11_Node000007_Node000006" class="edge">
<title>Node7&#45;&gt;Node6</title>
<g id="a_edge11_Node000007_Node000006"><a xlink:title=" ">
<path fill="none" stroke="#63b8ff" d="M284.46,-120.99C253.32,-112.32 204.16,-98.62 165.17,-87.76"/>
<polygon fill="#63b8ff" stroke="#63b8ff" points="166.06,-84.38 155.49,-85.06 164.18,-91.12 166.06,-84.38"/>
</a>
</g>
</g>
<!-- Node8 -->
<g id="Node000008" class="node">
<title>Node8</title>
<g id="a_Node000008"><a xlink:title=" ">
<polygon fill="#e0e0e0" stroke="#999999" points="235,-79.5 175,-79.5 175,-60.5 235,-60.5 235,-79.5"/>
<text text-anchor="middle" x="205" y="-67.5" font-family="Helvetica,sans-Serif" font-size="10.00">iostream</text>
</a>
</g>
</g>
<!-- Node7&#45;&gt;Node8 -->
<g id="edge7_Node000007_Node000008" class="edge">
<title>Node7&#45;&gt;Node8</title>
<g id="a_edge7_Node000007_Node000008"><a xlink:title=" ">
<path fill="none" stroke="#63b8ff" d="M298.77,-120.87C280.73,-111.28 251.38,-95.67 230.32,-84.47"/>
<polygon fill="#63b8ff" stroke="#63b8ff" points="231.77,-81.27 221.3,-79.67 228.48,-87.45 231.77,-81.27"/>
</a>
</g>
</g>
<!-- Node9 -->
<g id="Node000009" class="node">
<title>Node9</title>
<g id="a_Node000009"><a xlink:title=" ">
<polygon fill="#e0e0e0" stroke="#999999" points="449,-79.5 417,-79.5 417,-60.5 449,-60.5 449,-79.5"/>
<text text-anchor="middle" x="433" y="-67.5" font-family="Helvetica,sans-Serif" font-size="10.00">list</text>
</a>
</g>
</g>
<!-- Node7&#45;&gt;Node9 -->
<g id="edge8_Node000007_Node000009" class="edge">
<title>Node7&#45;&gt;Node9</title>
<g id="a_edge8_Node000007_Node000009"><a xlink:title=" ">
<path fill="none" stroke="#63b8ff" d="M333.44,-120.87C352.1,-112.07 381.72,-97.91 407,-85 407.42,-84.78 407.85,-84.57 408.28,-84.35"/>
<polygon fill="#63b8ff" stroke="#63b8ff" points="410.17,-87.31 417.38,-79.55 406.91,-81.11 410.17,-87.31"/>
</a>
</g>
</g>
<!-- Node7&#45;&gt;Node10 -->
<g id="edge9_Node000007_Node000010" class="edge">
<title>Node7&#45;&gt;Node10</title>
<g id="a_edge9_Node000007_Node000010"><a xlink:title=" ">
<path fill="none" stroke="#63b8ff" d="M350.48,-120.99C400.05,-109.11 488.9,-87.81 532.87,-77.26"/>
<polygon fill="#63b8ff" stroke="#63b8ff" points="533.88,-80.62 542.79,-74.89 532.25,-73.81 533.88,-80.62"/>
</a>
</g>
</g>
<!-- Node11 -->
<g id="Node000011" class="node">
<title>Node11</title>
<g id="a_Node000011"><a xlink:title=" ">
<polygon fill="#e0e0e0" stroke="#999999" points="500.5,-19 453.5,-19 453.5,0 500.5,0 500.5,-19"/>
<text text-anchor="middle" x="477" y="-7" font-family="Helvetica,sans-Serif" font-size="10.00">vector</text>
</a>
</g>
</g>
<!-- Node7&#45;&gt;Node11 -->
<g id="edge10_Node000007_Node000011" class="edge">
<title>Node7&#45;&gt;Node11</title>
<g id="a_edge10_Node000007_Node000011"><a xlink:title=" ">
<path fill="none" stroke="#63b8ff" d="M382.63,-122.75C409.4,-116.77 438.4,-105.65 458,-85 472.19,-70.06 476.17,-46.04 477.1,-29.33"/>
<polygon fill="#63b8ff" stroke="#63b8ff" points="480.61,-29.21 477.34,-19.13 473.61,-29.05 480.61,-29.21"/>
</a>
</g>
</g>
<!-- Node12 -->
<g id="Node000012" class="node">
<title>Node12</title>
<g id="a_Node000012"><a xlink:href="range__helper_8h.html" target="_top" xlink:title=" ">
<polygon fill="white" stroke="#666666" points="398.5,-79.5 253.5,-79.5 253.5,-60.5 398.5,-60.5 398.5,-79.5"/>
<text text-anchor="middle" x="326" y="-67.5" font-family="Helvetica,sans-Serif" font-size="10.00">automaton/range_helper.h</text>
</a>
</g>
</g>
<!-- Node7&#45;&gt;Node12 -->
<g id="edge12_Node000007_Node000012" class="edge">
<title>Node7&#45;&gt;Node12</title>
<g id="a_edge12_Node000007_Node000012"><a xlink:title=" ">
<path fill="none" stroke="#63b8ff" d="M316.62,-120.87C318.17,-112.66 320.54,-100.04 322.51,-89.55"/>
<polygon fill="#63b8ff" stroke="#63b8ff" points="325.96,-90.14 324.37,-79.67 319.08,-88.85 325.96,-90.14"/>
</a>
</g>
</g>
<!-- Node12&#45;&gt;Node5 -->
<g id="edge13_Node000012_Node000005" class="edge">
<title>Node12&#45;&gt;Node5</title>
<g id="a_edge13_Node000012_Node000005"><a xlink:title=" ">
<path fill="none" stroke="#63b8ff" d="M282.23,-60.49C222.19,-48.82 115.44,-28.08 60.24,-17.35"/>
<polygon fill="#63b8ff" stroke="#63b8ff" points="60.72,-13.88 50.23,-15.4 59.38,-20.75 60.72,-13.88"/>
</a>
</g>
</g>
<!-- Node12&#45;&gt;Node11 -->
<g id="edge15_Node000012_Node000011" class="edge">
<title>Node12&#45;&gt;Node11</title>
<g id="a_edge15_Node000012_Node000011"><a xlink:title=" ">
<path fill="none" stroke="#63b8ff" d="M347.96,-60.49C373.68,-50.53 416.48,-33.95 445.68,-22.63"/>
<polygon fill="#63b8ff" stroke="#63b8ff" points="446.96,-25.89 455.02,-19.02 444.43,-19.37 446.96,-25.89"/>
</a>
</g>
</g>
<!-- Node13 -->
<g id="Node000013" class="node">
<title>Node13</title>
<g id="a_Node000013"><a xlink:title=" ">
<polygon fill="#e0e0e0" stroke="#999999" points="354,-19 298,-19 298,0 354,0 354,-19"/>
<text text-anchor="middle" x="326" y="-7" font-family="Helvetica,sans-Serif" font-size="10.00">optional</text>
</a>
</g>
</g>
<!-- Node12&#45;&gt;Node13 -->
<g id="edge14_Node000012_Node000013" class="edge">
<title>Node12&#45;&gt;Node13</title>
<g id="a_edge14_Node000012_Node000013"><a xlink:title=" ">
<path fill="none" stroke="#63b8ff" d="M326,-60.37C326,-52.25 326,-39.81 326,-29.39"/>
<polygon fill="#63b8ff" stroke="#63b8ff" points="329.5,-29.17 326,-19.17 322.5,-29.17 329.5,-29.17"/>
</a>
</g>
</g>
<!-- Node14&#45;&gt;Node5 -->
<g id="edge17_Node000014_Node000005" class="edge">
<title>Node14&#45;&gt;Node5</title>
<g id="a_edge17_Node000014_Node000005"><a xlink:title=" ">
<path fill="none" stroke="#63b8ff" d="M235.83,-177.49C181,-167.05 93.53,-142.11 44,-85 30.64,-69.6 26.46,-46.05 25.26,-29.56"/>
<polygon fill="#63b8ff" stroke="#63b8ff" points="28.75,-29.31 24.83,-19.46 21.76,-29.6 28.75,-29.31"/>
</a>
</g>
</g>
<!-- Node14&#45;&gt;Node6 -->
<g id="edge19_Node000014_Node000006" class="edge">
<title>Node14&#45;&gt;Node6</title>
<g id="a_edge19_Node000014_Node000006"><a xlink:title=" ">
<path fill="none" stroke="#63b8ff" d="M271.47,-175.97C242.89,-157.95 175.74,-115.6 136.01,-90.55"/>
<polygon fill="#63b8ff" stroke="#63b8ff" points="137.82,-87.55 127.49,-85.18 134.08,-93.48 137.82,-87.55"/>
</a>
</g>
</g>
<!-- Node14&#45;&gt;Node7 -->
<g id="edge20_Node000014_Node000007" class="edge">
<title>Node14&#45;&gt;Node7</title>
<g id="a_edge20_Node000014_Node000007"><a xlink:title=" ">
<path fill="none" stroke="#63b8ff" d="M289.95,-175.75C294.06,-168.49 300.03,-157.95 305.1,-148.98"/>
<polygon fill="#63b8ff" stroke="#63b8ff" points="308.26,-150.52 310.14,-140.09 302.17,-147.07 308.26,-150.52"/>
</a>
</g>
</g>
<!-- Node14&#45;&gt;Node11 -->
<g id="edge18_Node000014_Node000011" class="edge">
<title>Node14&#45;&gt;Node11</title>
<g id="a_edge18_Node000014_Node000011"><a xlink:title=" ">
<path fill="none" stroke="#63b8ff" d="M332,-175.96C379.46,-164.49 449.92,-138.94 480,-85 489.53,-67.91 486.76,-45.04 482.89,-29.16"/>
<polygon fill="#63b8ff" stroke="#63b8ff" points="486.24,-28.14 480.18,-19.45 479.5,-30.02 486.24,-28.14"/>
</a>
</g>
</g>
</g>
</svg>
