<?xml version="1.0" encoding="UTF-8" standalone="no"?>
<!DOCTYPE svg PUBLIC "-//W3C//DTD SVG 1.1//EN"
 "http://www.w3.org/Graphics/SVG/1.1/DTD/svg11.dtd">
<!-- Generated by graphviz version 2.43.0 (0)
 -->
<!-- Title: src/automaton/nfa.cpp Pages: 1 -->
<svg width="699pt" height="258pt"
 viewBox="0.00 0.00 698.95 258.00" xmlns="http://www.w3.org/2000/svg" xmlns:xlink="http://www.w3.org/1999/xlink">
<g id="graph0" class="graph" transform="scale(1 1) rotate(0) translate(4 254)">
<title>src/automaton/nfa.cpp</title>
<!-- Node1 -->
<g id="Node000001" class="node">
<title>Node1</title>
<g id="a_Node000001"><a xlink:title=" ">
<polygon fill="#999999" stroke="#666666" points="375.45,-250 249.45,-250 249.45,-231 375.45,-231 375.45,-250"/>
<text text-anchor="middle" x="312.45" y="-238" font-family="Helvetica,sans-Serif" font-size="10.00">src/automaton/nfa.cpp</text>
</a>
</g>
</g>
<!-- Node2 -->
<g id="Node000002" class="node">
<title>Node2</title>
<g id="a_Node000002"><a xlink:href="nfa_8h.html" target="_top" xlink:title=" ">
<polygon fill="white" stroke="#666666" points="159.45,-195 61.45,-195 61.45,-176 159.45,-176 159.45,-195"/>
<text text-anchor="middle" x="110.45" y="-183" font-family="Helvetica,sans-Serif" font-size="10.00">automaton/nfa.h</text>
</a>
</g>
</g>
<!-- Node1&#45;&gt;Node2 -->
<g id="edge1_Node000001_Node000002" class="edge">
<title>Node1&#45;&gt;Node2</title>
<g id="a_edge1_Node000001_Node000002"><a xlink:title=" ">
<path fill="none" stroke="#63b8ff" d="M280,-230.98C245.49,-221.93 190.79,-207.58 152.89,-197.64"/>
<polygon fill="#63b8ff" stroke="#63b8ff" points="153.72,-194.23 143.16,-195.08 151.94,-201.01 153.72,-194.23"/>
</a>
</g>
</g>
<!-- Node6 -->
<g id="Node000006" class="node">
<title>Node6</title>
<g id="a_Node000006"><a xlink:href="automaton_8h.html" target="_top" xlink:title=" ">
<polygon fill="white" stroke="#666666" points="379.95,-140 244.95,-140 244.95,-121 379.95,-121 379.95,-140"/>
<text text-anchor="middle" x="312.45" y="-128" font-family="Helvetica,sans-Serif" font-size="10.00">automaton/automaton.h</text>
</a>
</g>
</g>
<!-- Node1&#45;&gt;Node6 -->
<g id="edge17_Node000001_Node000006" class="edge">
<title>Node1&#45;&gt;Node6</title>
<g id="a_edge17_Node000001_Node000006"><a xlink:title=" ">
<path fill="none" stroke="#63b8ff" d="M312.45,-230.66C312.45,-213.17 312.45,-173.8 312.45,-150.27"/>
<polygon fill="#63b8ff" stroke="#63b8ff" points="315.95,-150.16 312.45,-140.16 308.95,-150.16 315.95,-150.16"/>
</a>
</g>
</g>
<!-- Node11 -->
<g id="Node000011" class="node">
<title>Node11</title>
<g id="a_Node000011"><a xlink:href="range__helper_8h.html" target="_top" xlink:title=" ">
<polygon fill="white" stroke="#666666" points="690.95,-79.5 545.95,-79.5 545.95,-60.5 690.95,-60.5 690.95,-79.5"/>
<text text-anchor="middle" x="618.45" y="-67.5" font-family="Helvetica,sans-Serif" font-size="10.00">automaton/range_helper.h</text>
</a>
</g>
</g>
<!-- Node1&#45;&gt;Node11 -->
<g id="edge18_Node000001_Node000011" class="edge">
<title>Node1&#45;&gt;Node11</title>
<g id="a_edge18_Node000001_Node000011"><a xlink:title=" ">
<path fill="none" stroke="#63b8ff" d="M328.05,-230.91C377.87,-203.48 533.49,-117.78 594.02,-84.45"/>
<polygon fill="#63b8ff" stroke="#63b8ff" points="595.81,-87.46 602.89,-79.57 592.44,-81.33 595.81,-87.46"/>
</a>
</g>
</g>
<!-- Node3 -->
<g id="Node000003" class="node">
<title>Node3</title>
<g id="a_Node000003"><a xlink:title=" ">
<polygon fill="#e0e0e0" stroke="#999999" points="215.45,-19 165.45,-19 165.45,0 215.45,0 215.45,-19"/>
<text text-anchor="middle" x="190.45" y="-7" font-family="Helvetica,sans-Serif" font-size="10.00">cstdint</text>
</a>
</g>
</g>
<!-- Node2&#45;&gt;Node3 -->
<g id="edge2_Node000002_Node000003" class="edge">
<title>Node2&#45;&gt;Node3</title>
<g id="a_edge2_Node000002_Node000003"><a xlink:title=" ">
<path fill="none" stroke="#63b8ff" d="M69.83,-175.99C50.13,-169.59 28.23,-158.61 16.45,-140 -3.75,-108.08 -6.72,-84.84 16.45,-55 33.3,-33.29 109.44,-20.38 155.23,-14.44"/>
<polygon fill="#63b8ff" stroke="#63b8ff" points="155.85,-17.89 165.34,-13.18 154.98,-10.95 155.85,-17.89"/>
</a>
</g>
</g>
<!-- Node4 -->
<g id="Node000004" class="node">
<title>Node4</title>
<g id="a_Node000004"><a xlink:title=" ">
<polygon fill="#e0e0e0" stroke="#999999" points="379.95,-19 332.95,-19 332.95,0 379.95,0 379.95,-19"/>
<text text-anchor="middle" x="356.45" y="-7" font-family="Helvetica,sans-Serif" font-size="10.00">vector</text>
</a>
</g>
</g>
<!-- Node2&#45;&gt;Node4 -->
<g id="edge3_Node000002_Node000004" class="edge">
<title>Node2&#45;&gt;Node4</title>
<g id="a_edge3_Node000002_Node000004"><a xlink:title=" ">
<path fill="none" stroke="#63b8ff" d="M100.18,-175.72C75.28,-153.39 16.11,-93.52 49.45,-55 67.16,-34.53 246.39,-18.77 322.53,-12.94"/>
<polygon fill="#63b8ff" stroke="#63b8ff" points="322.85,-16.43 332.56,-12.19 322.33,-9.45 322.85,-16.43"/>
</a>
</g>
</g>
<!-- Node5 -->
<g id="Node000005" class="node">
<title>Node5</title>
<g id="a_Node000005"><a xlink:title=" ">
<polygon fill="#e0e0e0" stroke="#999999" points="162.45,-85 58.45,-85 58.45,-55 162.45,-55 162.45,-85"/>
<text text-anchor="start" x="66.45" y="-73" font-family="Helvetica,sans-Serif" font-size="10.00">absl/container/flat</text>
<text text-anchor="middle" x="110.45" y="-62" font-family="Helvetica,sans-Serif" font-size="10.00">_hash_map.h</text>
</a>
</g>
</g>
<!-- Node2&#45;&gt;Node5 -->
<g id="edge4_Node000002_Node000005" class="edge">
<title>Node2&#45;&gt;Node5</title>
<g id="a_edge4_Node000002_Node000005"><a xlink:title=" ">
<path fill="none" stroke="#63b8ff" d="M110.45,-175.97C110.45,-159.08 110.45,-120.85 110.45,-95.48"/>
<polygon fill="#63b8ff" stroke="#63b8ff" points="113.95,-95.18 110.45,-85.18 106.95,-95.18 113.95,-95.18"/>
</a>
</g>
</g>
<!-- Node2&#45;&gt;Node6 -->
<g id="edge5_Node000002_Node000006" class="edge">
<title>Node2&#45;&gt;Node6</title>
<g id="a_edge5_Node000002_Node000006"><a xlink:title=" ">
<path fill="none" stroke="#63b8ff" d="M142.91,-175.98C177.41,-166.93 232.11,-152.58 270.01,-142.64"/>
<polygon fill="#63b8ff" stroke="#63b8ff" points="270.96,-146.01 279.74,-140.08 269.18,-139.23 270.96,-146.01"/>
</a>
</g>
</g>
<!-- Node6&#45;&gt;Node3 -->
<g id="edge6_Node000006_Node000003" class="edge">
<title>Node6&#45;&gt;Node3</title>
<g id="a_edge6_Node000006_Node000003"><a xlink:title=" ">
<path fill="none" stroke="#63b8ff" d="M271.3,-120.94C249.98,-114.48 225.19,-103.45 209.45,-85 196.22,-69.49 192.01,-45.96 190.77,-29.51"/>
<polygon fill="#63b8ff" stroke="#63b8ff" points="194.26,-29.27 190.31,-19.44 187.27,-29.59 194.26,-29.27"/>
</a>
</g>
</g>
<!-- Node6&#45;&gt;Node4 -->
<g id="edge11_Node000006_Node000004" class="edge">
<title>Node6&#45;&gt;Node4</title>
<g id="a_edge11_Node000006_Node000004"><a xlink:title=" ">
<path fill="none" stroke="#63b8ff" d="M318.14,-120.97C323.73,-112.25 332.18,-98.16 337.45,-85 344.8,-66.65 350,-44.61 353.08,-29.28"/>
<polygon fill="#63b8ff" stroke="#63b8ff" points="356.52,-29.93 354.95,-19.45 349.64,-28.62 356.52,-29.93"/>
</a>
</g>
</g>
<!-- Node6&#45;&gt;Node5 -->
<g id="edge12_Node000006_Node000005" class="edge">
<title>Node6&#45;&gt;Node5</title>
<g id="a_edge12_Node000006_Node000005"><a xlink:title=" ">
<path fill="none" stroke="#63b8ff" d="M283.08,-120.99C253.25,-112.35 206.24,-98.74 168.8,-87.9"/>
<polygon fill="#63b8ff" stroke="#63b8ff" points="169.59,-84.48 159.01,-85.06 167.65,-91.21 169.59,-84.48"/>
</a>
</g>
</g>
<!-- Node7 -->
<g id="Node000007" class="node">
<title>Node7</title>
<g id="a_Node000007"><a xlink:title=" ">
<polygon fill="#e0e0e0" stroke="#999999" points="278.45,-79.5 218.45,-79.5 218.45,-60.5 278.45,-60.5 278.45,-79.5"/>
<text text-anchor="middle" x="248.45" y="-67.5" font-family="Helvetica,sans-Serif" font-size="10.00">iostream</text>
</a>
</g>
</g>
<!-- Node6&#45;&gt;Node7 -->
<g id="edge7_Node000006_Node000007" class="edge">
<title>Node6&#45;&gt;Node7</title>
<g id="a_edge7_Node000006_Node000007"><a xlink:title=" ">
<path fill="none" stroke="#63b8ff" d="M303.01,-120.87C293.18,-111.88 277.56,-97.61 265.56,-86.64"/>
<polygon fill="#63b8ff" stroke="#63b8ff" points="267.68,-83.83 257.93,-79.67 262.95,-89 267.68,-83.83"/>
</a>
</g>
</g>
<!-- Node8 -->
<g id="Node000008" class="node">
<title>Node8</title>
<g id="a_Node000008"><a xlink:title=" ">
<polygon fill="#e0e0e0" stroke="#999999" points="328.45,-79.5 296.45,-79.5 296.45,-60.5 328.45,-60.5 328.45,-79.5"/>
<text text-anchor="middle" x="312.45" y="-67.5" font-family="Helvetica,sans-Serif" font-size="10.00">list</text>
</a>
</g>
</g>
<!-- Node6&#45;&gt;Node8 -->
<g id="edge8_Node000006_Node000008" class="edge">
<title>Node6&#45;&gt;Node8</title>
<g id="a_edge8_Node000006_Node000008"><a xlink:title=" ">
<path fill="none" stroke="#63b8ff" d="M312.45,-120.87C312.45,-112.75 312.45,-100.31 312.45,-89.89"/>
<polygon fill="#63b8ff" stroke="#63b8ff" points="315.95,-89.67 312.45,-79.67 308.95,-89.67 315.95,-89.67"/>
</a>
</g>
</g>
<!-- Node9 -->
<g id="Node000009" class="node">
<title>Node9</title>
<g id="a_Node000009"><a xlink:title=" ">
<polygon fill="#e0e0e0" stroke="#999999" points="416.45,-79.5 384.45,-79.5 384.45,-60.5 416.45,-60.5 416.45,-79.5"/>
<text text-anchor="middle" x="400.45" y="-67.5" font-family="Helvetica,sans-Serif" font-size="10.00">set</text>
</a>
</g>
</g>
<!-- Node6&#45;&gt;Node9 -->
<g id="edge9_Node000006_Node000009" class="edge">
<title>Node6&#45;&gt;Node9</title>
<g id="a_edge9_Node000006_Node000009"><a xlink:title=" ">
<path fill="none" stroke="#63b8ff" d="M325.44,-120.87C339.47,-111.54 362.08,-96.51 378.81,-85.38"/>
<polygon fill="#63b8ff" stroke="#63b8ff" points="381.02,-88.12 387.41,-79.67 377.15,-82.29 381.02,-88.12"/>
</a>
</g>
</g>
<!-- Node10 -->
<g id="Node000010" class="node">
<title>Node10</title>
<g id="a_Node000010"><a xlink:title=" ">
<polygon fill="#e0e0e0" stroke="#999999" points="527.95,-79.5 434.95,-79.5 434.95,-60.5 527.95,-60.5 527.95,-79.5"/>
<text text-anchor="middle" x="481.45" y="-67.5" font-family="Helvetica,sans-Serif" font-size="10.00">unordered_map</text>
</a>
</g>
</g>
<!-- Node6&#45;&gt;Node10 -->
<g id="edge10_Node000006_Node000010" class="edge">
<title>Node6&#45;&gt;Node10</title>
<g id="a_edge10_Node000006_Node000010"><a xlink:title=" ">
<path fill="none" stroke="#63b8ff" d="M337.02,-120.99C366.06,-110.94 414.55,-94.16 447.25,-82.84"/>
<polygon fill="#63b8ff" stroke="#63b8ff" points="448.54,-86.1 456.85,-79.52 446.25,-79.48 448.54,-86.1"/>
</a>
</g>
</g>
<!-- Node6&#45;&gt;Node11 -->
<g id="edge13_Node000006_Node000011" class="edge">
<title>Node6&#45;&gt;Node11</title>
<g id="a_edge13_Node000006_Node000011"><a xlink:title=" ">
<path fill="none" stroke="#63b8ff" d="M356.95,-120.99C411.79,-110.51 504.95,-92.7 564.01,-81.41"/>
<polygon fill="#63b8ff" stroke="#63b8ff" points="564.74,-84.83 573.9,-79.52 563.42,-77.96 564.74,-84.83"/>
</a>
</g>
</g>
<!-- Node11&#45;&gt;Node3 -->
<g id="edge14_Node000011_Node000003" class="edge">
<title>Node11&#45;&gt;Node3</title>
<g id="a_edge14_Node000011_Node000003"><a xlink:title=" ">
<path fill="none" stroke="#63b8ff" d="M570.96,-60.44C559.97,-58.55 548.32,-56.64 537.45,-55 423.9,-37.91 288.81,-21.79 225.93,-14.53"/>
<polygon fill="#63b8ff" stroke="#63b8ff" points="226.09,-11.03 215.76,-13.36 225.29,-17.98 226.09,-11.03"/>
</a>
</g>
</g>
<!-- Node11&#45;&gt;Node4 -->
<g id="edge16_Node000011_Node000004" class="edge">
<title>Node11&#45;&gt;Node4</title>
<g id="a_edge16_Node000011_Node000004"><a xlink:title=" ">
<path fill="none" stroke="#63b8ff" d="M580.35,-60.49C529.18,-49.07 439.05,-28.94 390.2,-18.04"/>
<polygon fill="#63b8ff" stroke="#63b8ff" points="390.67,-14.55 380.15,-15.79 389.15,-21.39 390.67,-14.55"/>
</a>
</g>
</g>
<!-- Node12 -->
<g id="Node000012" class="node">
<title>Node12</title>
<g id="a_Node000012"><a xlink:title=" ">
<polygon fill="#e0e0e0" stroke="#999999" points="646.45,-19 590.45,-19 590.45,0 646.45,0 646.45,-19"/>
<text text-anchor="middle" x="618.45" y="-7" font-family="Helvetica,sans-Serif" font-size="10.00">optional</text>
</a>
</g>
</g>
<!-- Node11&#45;&gt;Node12 -->
<g id="edge15_Node000011_Node000012" class="edge">
<title>Node11&#45;&gt;Node12</title>
<g id="a_edge15_Node000011_Node000012"><a xlink:title=" ">
<path fill="none" stroke="#63b8ff" d="M618.45,-60.37C618.45,-52.25 618.45,-39.81 618.45,-29.39"/>
<polygon fill="#63b8ff" stroke="#63b8ff" points="621.95,-29.17 618.45,-19.17 614.95,-29.17 621.95,-29.17"/>
</a>
</g>
</g>
</g>
</svg>
