<?xml version="1.0" encoding="UTF-8" standalone="no"?>
<!DOCTYPE svg PUBLIC "-//W3C//DTD SVG 1.1//EN"
 "http://www.w3.org/Graphics/SVG/1.1/DTD/svg11.dtd">
<!-- Generated by graphviz version 2.49.3 (20211215.1918)
 -->
<!-- Title: src/thorin/normalize.cpp Pages: 1 -->
<svg width="1571pt" height="532pt"
 viewBox="0.00 0.00 1571.00 532.00" xmlns="http://www.w3.org/2000/svg" xmlns:xlink="http://www.w3.org/1999/xlink">
<g id="graph0" class="graph" transform="scale(1 1) rotate(0) translate(4 528)">
<title>src/thorin/normalize.cpp</title>
<!-- Node1 -->
<g id="node1" class="node">
<title>Node1</title>
<g id="a_node1"><a xlink:title=" ">
<polygon fill="#bfbfbf" stroke="black" points="624.5,-504.5 624.5,-523.5 743.5,-523.5 743.5,-504.5 624.5,-504.5"/>
<text text-anchor="middle" x="684" y="-511.5" font-family="Helvetica,sans-Serif" font-size="10.00">src/thorin/normalize.cpp</text>
</a>
</g>
</g>
<!-- Node2 -->
<g id="node2" class="node">
<title>Node2</title>
<g id="a_node2"><a xlink:href="def_8h.html" target="_top" xlink:title=" ">
<polygon fill="none" stroke="black" points="691.5,-280.5 691.5,-299.5 756.5,-299.5 756.5,-280.5 691.5,-280.5"/>
<text text-anchor="middle" x="724" y="-287.5" font-family="Helvetica,sans-Serif" font-size="10.00">thorin/def.h</text>
</a>
</g>
</g>
<!-- Node1&#45;&gt;Node2 -->
<g id="edge1" class="edge">
<title>Node1&#45;&gt;Node2</title>
<path fill="none" stroke="midnightblue" d="M679.49,-504.37C669.64,-484.36 648,-433.34 660,-392 669.63,-358.81 693.81,-326.07 709.53,-307.23"/>
<polygon fill="midnightblue" stroke="midnightblue" points="712.22,-309.47 716.08,-299.6 706.91,-304.91 712.22,-309.47"/>
</g>
<!-- Node39 -->
<g id="node39" class="node">
<title>Node39</title>
<g id="a_node39"><a xlink:href="world_8h.html" target="_top" xlink:title=" ">
<polygon fill="none" stroke="black" points="883,-448.5 883,-467.5 957,-467.5 957,-448.5 883,-448.5"/>
<text text-anchor="middle" x="920" y="-455.5" font-family="Helvetica,sans-Serif" font-size="10.00">thorin/world.h</text>
</a>
</g>
</g>
<!-- Node1&#45;&gt;Node39 -->
<g id="edge61" class="edge">
<title>Node1&#45;&gt;Node39</title>
<path fill="none" stroke="midnightblue" d="M721.39,-504.44C762.39,-495.06 828.25,-479.99 872.78,-469.8"/>
<polygon fill="midnightblue" stroke="midnightblue" points="873.81,-473.16 882.78,-467.52 872.25,-466.34 873.81,-473.16"/>
</g>
<!-- Node3 -->
<g id="node3" class="node">
<title>Node3</title>
<g id="a_node3"><a xlink:title=" ">
<polygon fill="none" stroke="#bfbfbf" points="96,-112.5 96,-131.5 146,-131.5 146,-112.5 96,-112.5"/>
<text text-anchor="middle" x="121" y="-119.5" font-family="Helvetica,sans-Serif" font-size="10.00">optional</text>
</a>
</g>
</g>
<!-- Node2&#45;&gt;Node3 -->
<g id="edge2" class="edge">
<title>Node2&#45;&gt;Node3</title>
<path fill="none" stroke="midnightblue" d="M691.4,-280.7C662.91,-272.91 620.78,-260.06 586,-244 527.31,-216.91 522.93,-189.59 462,-168 454.82,-165.45 242.06,-138.33 156.31,-127.46"/>
<polygon fill="midnightblue" stroke="midnightblue" points="156.63,-123.98 146.27,-126.19 155.75,-130.92 156.63,-123.98"/>
</g>
<!-- Node4 -->
<g id="node4" class="node">
<title>Node4</title>
<g id="a_node4"><a xlink:title=" ">
<polygon fill="none" stroke="#bfbfbf" points="848,-168.5 848,-187.5 892,-187.5 892,-168.5 848,-168.5"/>
<text text-anchor="middle" x="870" y="-175.5" font-family="Helvetica,sans-Serif" font-size="10.00">vector</text>
</a>
</g>
</g>
<!-- Node2&#45;&gt;Node4 -->
<g id="edge3" class="edge">
<title>Node2&#45;&gt;Node4</title>
<path fill="none" stroke="midnightblue" d="M735.46,-280.37C760.3,-261.65 819.36,-217.15 850.31,-193.83"/>
<polygon fill="midnightblue" stroke="midnightblue" points="852.72,-196.4 858.6,-187.59 848.5,-190.81 852.72,-196.4"/>
</g>
<!-- Node5 -->
<g id="node5" class="node">
<title>Node5</title>
<g id="a_node5"><a xlink:href="debug_8h.html" target="_top" xlink:title=" ">
<polygon fill="none" stroke="black" points="618.5,-224.5 618.5,-243.5 695.5,-243.5 695.5,-224.5 618.5,-224.5"/>
<text text-anchor="middle" x="657" y="-231.5" font-family="Helvetica,sans-Serif" font-size="10.00">thorin/debug.h</text>
</a>
</g>
</g>
<!-- Node2&#45;&gt;Node5 -->
<g id="edge4" class="edge">
<title>Node2&#45;&gt;Node5</title>
<path fill="none" stroke="midnightblue" d="M713.24,-280.32C703.23,-272.26 688.11,-260.08 676.07,-250.37"/>
<polygon fill="midnightblue" stroke="midnightblue" points="677.94,-247.38 667.96,-243.83 673.55,-252.83 677.94,-247.38"/>
</g>
<!-- Node8 -->
<g id="node8" class="node">
<title>Node8</title>
<g id="a_node8"><a xlink:href="hash_8h.html" target="_top" xlink:title=" ">
<polygon fill="none" stroke="black" points="514,-168.5 514,-187.5 602,-187.5 602,-168.5 514,-168.5"/>
<text text-anchor="middle" x="558" y="-175.5" font-family="Helvetica,sans-Serif" font-size="10.00">thorin/util/hash.h</text>
</a>
</g>
</g>
<!-- Node2&#45;&gt;Node8 -->
<g id="edge56" class="edge">
<title>Node2&#45;&gt;Node8</title>
<path fill="none" stroke="midnightblue" d="M691.45,-281.27C667.07,-274.35 633.78,-262.42 609,-244 591.79,-231.21 577.29,-211.19 568.2,-196.75"/>
<polygon fill="midnightblue" stroke="midnightblue" points="570.97,-194.55 562.81,-187.8 564.97,-198.17 570.97,-194.55"/>
</g>
<!-- Node26 -->
<g id="node26" class="node">
<title>Node26</title>
<g id="a_node26"><a xlink:href="stream_8h.html" target="_top" xlink:title=" ">
<polygon fill="none" stroke="black" points="675.5,-112.5 675.5,-131.5 772.5,-131.5 772.5,-112.5 675.5,-112.5"/>
<text text-anchor="middle" x="724" y="-119.5" font-family="Helvetica,sans-Serif" font-size="10.00">thorin/util/stream.h</text>
</a>
</g>
</g>
<!-- Node2&#45;&gt;Node26 -->
<g id="edge60" class="edge">
<title>Node2&#45;&gt;Node26</title>
<path fill="none" stroke="midnightblue" d="M724,-280.08C724,-253.95 724,-177.21 724,-141.58"/>
<polygon fill="midnightblue" stroke="midnightblue" points="727.5,-141.57 724,-131.57 720.5,-141.57 727.5,-141.57"/>
</g>
<!-- Node30 -->
<g id="node30" class="node">
<title>Node30</title>
<g id="a_node30"><a xlink:href="tables_8h.html" target="_top" xlink:title=" ">
<polygon fill="none" stroke="black" points="752.5,-168.5 752.5,-187.5 829.5,-187.5 829.5,-168.5 752.5,-168.5"/>
<text text-anchor="middle" x="791" y="-175.5" font-family="Helvetica,sans-Serif" font-size="10.00">thorin/tables.h</text>
</a>
</g>
</g>
<!-- Node2&#45;&gt;Node30 -->
<g id="edge39" class="edge">
<title>Node2&#45;&gt;Node30</title>
<path fill="none" stroke="midnightblue" d="M729.26,-280.37C740.27,-262.3 765.92,-220.18 780.46,-196.31"/>
<polygon fill="midnightblue" stroke="midnightblue" points="783.55,-197.95 785.77,-187.59 777.58,-194.31 783.55,-197.95"/>
</g>
<!-- Node32 -->
<g id="node32" class="node">
<title>Node32</title>
<g id="a_node32"><a xlink:href="array_8h.html" target="_top" xlink:title=" ">
<polygon fill="none" stroke="black" points="1076,-224.5 1076,-243.5 1164,-243.5 1164,-224.5 1076,-224.5"/>
<text text-anchor="middle" x="1120" y="-231.5" font-family="Helvetica,sans-Serif" font-size="10.00">thorin/util/array.h</text>
</a>
</g>
</g>
<!-- Node2&#45;&gt;Node32 -->
<g id="edge43" class="edge">
<title>Node2&#45;&gt;Node32</title>
<path fill="none" stroke="midnightblue" d="M756.74,-284.54C824.87,-275.24 982.47,-253.75 1065.91,-242.38"/>
<polygon fill="midnightblue" stroke="midnightblue" points="1066.52,-245.83 1075.96,-241.01 1065.58,-238.89 1066.52,-245.83"/>
</g>
<!-- Node37 -->
<g id="node37" class="node">
<title>Node37</title>
<g id="a_node37"><a xlink:href="cast_8h.html" target="_top" xlink:title=" ">
<polygon fill="none" stroke="black" points="1263,-112.5 1263,-131.5 1349,-131.5 1349,-112.5 1263,-112.5"/>
<text text-anchor="middle" x="1306" y="-119.5" font-family="Helvetica,sans-Serif" font-size="10.00">thorin/util/cast.h</text>
</a>
</g>
</g>
<!-- Node2&#45;&gt;Node37 -->
<g id="edge53" class="edge">
<title>Node2&#45;&gt;Node37</title>
<path fill="none" stroke="midnightblue" d="M756.67,-286.9C889.87,-278 1386.99,-241.39 1430,-188 1453.69,-158.59 1402.93,-140.93 1359.38,-131.6"/>
<polygon fill="midnightblue" stroke="midnightblue" points="1359.87,-128.13 1349.37,-129.57 1358.47,-134.99 1359.87,-128.13"/>
</g>
<!-- Node38 -->
<g id="node38" class="node">
<title>Node38</title>
<g id="a_node38"><a xlink:href="ptr_8h.html" target="_top" xlink:title=" ">
<polygon fill="none" stroke="black" points="0,-112.5 0,-131.5 78,-131.5 78,-112.5 0,-112.5"/>
<text text-anchor="middle" x="39" y="-119.5" font-family="Helvetica,sans-Serif" font-size="10.00">thorin/util/ptr.h</text>
</a>
</g>
</g>
<!-- Node2&#45;&gt;Node38 -->
<g id="edge57" class="edge">
<title>Node2&#45;&gt;Node38</title>
<path fill="none" stroke="midnightblue" d="M691.42,-281.11C579.85,-254.07 212.9,-165.14 84.14,-133.94"/>
<polygon fill="midnightblue" stroke="midnightblue" points="84.76,-130.49 74.22,-131.53 83.11,-137.29 84.76,-130.49"/>
</g>
<!-- Node6 -->
<g id="node6" class="node">
<title>Node6</title>
<g id="a_node6"><a xlink:title=" ">
<polygon fill="none" stroke="#bfbfbf" points="1042.5,-56.5 1042.5,-75.5 1083.5,-75.5 1083.5,-56.5 1042.5,-56.5"/>
<text text-anchor="middle" x="1063" y="-63.5" font-family="Helvetica,sans-Serif" font-size="10.00">string</text>
</a>
</g>
</g>
<!-- Node5&#45;&gt;Node6 -->
<g id="edge5" class="edge">
<title>Node5&#45;&gt;Node6</title>
<path fill="none" stroke="midnightblue" d="M695.73,-228.23C784.13,-216.55 996.78,-183.62 1044,-132 1055.52,-119.41 1060.09,-100.19 1061.88,-85.91"/>
<polygon fill="midnightblue" stroke="midnightblue" points="1065.38,-86.02 1062.8,-75.75 1058.41,-85.39 1065.38,-86.02"/>
</g>
<!-- Node7 -->
<g id="node7" class="node">
<title>Node7</title>
<g id="a_node7"><a xlink:title=" ">
<polygon fill="none" stroke="#bfbfbf" points="620,-168.5 620,-187.5 658,-187.5 658,-168.5 620,-168.5"/>
<text text-anchor="middle" x="639" y="-175.5" font-family="Helvetica,sans-Serif" font-size="10.00">tuple</text>
</a>
</g>
</g>
<!-- Node5&#45;&gt;Node7 -->
<g id="edge6" class="edge">
<title>Node5&#45;&gt;Node7</title>
<path fill="none" stroke="midnightblue" d="M654.03,-224.08C651.62,-216.85 648.14,-206.41 645.13,-197.4"/>
<polygon fill="midnightblue" stroke="midnightblue" points="648.4,-196.13 641.92,-187.75 641.76,-198.34 648.4,-196.13"/>
</g>
<!-- Node5&#45;&gt;Node8 -->
<g id="edge7" class="edge">
<title>Node5&#45;&gt;Node8</title>
<path fill="none" stroke="midnightblue" d="M641.09,-224.32C625.36,-215.74 601.06,-202.49 582.79,-192.52"/>
<polygon fill="midnightblue" stroke="midnightblue" points="584.32,-189.37 573.87,-187.65 580.97,-195.52 584.32,-189.37"/>
</g>
<!-- Node5&#45;&gt;Node26 -->
<g id="edge38" class="edge">
<title>Node5&#45;&gt;Node26</title>
<path fill="none" stroke="midnightblue" d="M662.26,-224.37C673.27,-206.3 698.92,-164.18 713.46,-140.31"/>
<polygon fill="midnightblue" stroke="midnightblue" points="716.55,-141.95 718.77,-131.59 710.58,-138.31 716.55,-141.95"/>
</g>
<!-- Node8&#45;&gt;Node3 -->
<g id="edge16" class="edge">
<title>Node8&#45;&gt;Node3</title>
<path fill="none" stroke="midnightblue" d="M513.7,-169.9C509.08,-169.23 504.45,-168.58 500,-168 349.32,-148.34 309.86,-157.13 160,-132 158.73,-131.79 157.44,-131.56 156.13,-131.31"/>
<polygon fill="midnightblue" stroke="midnightblue" points="156.58,-127.83 146.09,-129.26 155.18,-134.69 156.58,-127.83"/>
</g>
<!-- Node9 -->
<g id="node9" class="node">
<title>Node9</title>
<g id="a_node9"><a xlink:title=" ">
<polygon fill="none" stroke="#bfbfbf" points="979,-112.5 979,-131.5 1035,-131.5 1035,-112.5 979,-112.5"/>
<text text-anchor="middle" x="1007" y="-119.5" font-family="Helvetica,sans-Serif" font-size="10.00">algorithm</text>
</a>
</g>
</g>
<!-- Node8&#45;&gt;Node9 -->
<g id="edge8" class="edge">
<title>Node8&#45;&gt;Node9</title>
<path fill="none" stroke="midnightblue" d="M602.21,-169.26C605.18,-168.81 608.13,-168.39 611,-168 766.66,-147 810.16,-158.52 968.69,-132"/>
<polygon fill="midnightblue" stroke="midnightblue" points="969.53,-135.41 978.8,-130.29 968.36,-128.51 969.53,-135.41"/>
</g>
<!-- Node10 -->
<g id="node10" class="node">
<title>Node10</title>
<g id="a_node10"><a xlink:title=" ">
<polygon fill="none" stroke="#bfbfbf" points="240,-112.5 240,-131.5 278,-131.5 278,-112.5 240,-112.5"/>
<text text-anchor="middle" x="259" y="-119.5" font-family="Helvetica,sans-Serif" font-size="10.00">array</text>
</a>
</g>
</g>
<!-- Node8&#45;&gt;Node10 -->
<g id="edge9" class="edge">
<title>Node8&#45;&gt;Node10</title>
<path fill="none" stroke="midnightblue" d="M513.99,-170.05C448.89,-159.73 330.75,-140.79 287.95,-131.78"/>
<polygon fill="midnightblue" stroke="midnightblue" points="288.7,-128.37 278.17,-129.57 287.15,-135.19 288.7,-128.37"/>
</g>
<!-- Node11 -->
<g id="node11" class="node">
<title>Node11</title>
<g id="a_node11"><a xlink:title=" ">
<polygon fill="none" stroke="#bfbfbf" points="1108.5,-56.5 1108.5,-75.5 1157.5,-75.5 1157.5,-56.5 1108.5,-56.5"/>
<text text-anchor="middle" x="1133" y="-63.5" font-family="Helvetica,sans-Serif" font-size="10.00">cassert</text>
</a>
</g>
</g>
<!-- Node8&#45;&gt;Node11 -->
<g id="edge10" class="edge">
<title>Node8&#45;&gt;Node11</title>
<path fill="none" stroke="midnightblue" d="M602.03,-169.51C674.61,-157.15 811.9,-133.65 817,-132 836.29,-125.76 838.65,-118.05 858,-112 958.85,-80.48 989.17,-95.61 1093,-76 1094.68,-75.68 1096.4,-75.34 1098.14,-74.99"/>
<polygon fill="midnightblue" stroke="midnightblue" points="1099.03,-78.38 1108.09,-72.88 1097.58,-71.53 1099.03,-78.38"/>
</g>
<!-- Node12 -->
<g id="node12" class="node">
<title>Node12</title>
<g id="a_node12"><a xlink:title=" ">
<polygon fill="none" stroke="#bfbfbf" points="296,-112.5 296,-131.5 352,-131.5 352,-112.5 296,-112.5"/>
<text text-anchor="middle" x="324" y="-119.5" font-family="Helvetica,sans-Serif" font-size="10.00">cinttypes</text>
</a>
</g>
</g>
<!-- Node8&#45;&gt;Node12 -->
<g id="edge11" class="edge">
<title>Node8&#45;&gt;Node12</title>
<path fill="none" stroke="midnightblue" d="M519.83,-168.45C482.21,-159.98 422.82,-146.52 362.37,-132.3"/>
<polygon fill="midnightblue" stroke="midnightblue" points="362.81,-128.81 352.27,-129.92 361.2,-135.62 362.81,-128.81"/>
</g>
<!-- Node13 -->
<g id="node13" class="node">
<title>Node13</title>
<g id="a_node13"><a xlink:title=" ">
<polygon fill="none" stroke="#bfbfbf" points="204,-0.5 204,-19.5 250,-19.5 250,-0.5 204,-0.5"/>
<text text-anchor="middle" x="227" y="-7.5" font-family="Helvetica,sans-Serif" font-size="10.00">cstdint</text>
</a>
</g>
</g>
<!-- Node8&#45;&gt;Node13 -->
<g id="edge12" class="edge">
<title>Node8&#45;&gt;Node13</title>
<path fill="none" stroke="midnightblue" d="M514,-170.05C509.28,-169.34 504.54,-168.64 500,-168 437.67,-159.17 269.8,-169.18 219,-132 190.19,-110.92 181.65,-89.85 193,-56 196.6,-45.25 203.9,-35.02 210.82,-27.04"/>
<polygon fill="midnightblue" stroke="midnightblue" points="213.48,-29.32 217.71,-19.61 208.35,-24.56 213.48,-29.32"/>
</g>
<!-- Node14 -->
<g id="node14" class="node">
<title>Node14</title>
<g id="a_node14"><a xlink:title=" ">
<polygon fill="none" stroke="#bfbfbf" points="931,-56.5 931,-75.5 977,-75.5 977,-56.5 931,-56.5"/>
<text text-anchor="middle" x="954" y="-63.5" font-family="Helvetica,sans-Serif" font-size="10.00">cstring</text>
</a>
</g>
</g>
<!-- Node8&#45;&gt;Node14 -->
<g id="edge13" class="edge">
<title>Node8&#45;&gt;Node14</title>
<path fill="none" stroke="midnightblue" d="M602.13,-169.42C657.51,-159.68 749.21,-142.75 782,-132 802.03,-125.43 805.47,-119.93 825,-112 857.21,-98.93 894.82,-86.08 921.08,-77.48"/>
<polygon fill="midnightblue" stroke="midnightblue" points="922.48,-80.7 930.91,-74.29 920.31,-74.05 922.48,-80.7"/>
</g>
<!-- Node15 -->
<g id="node15" class="node">
<title>Node15</title>
<g id="a_node15"><a xlink:title=" ">
<polygon fill="none" stroke="#bfbfbf" points="610,-56.5 610,-75.5 664,-75.5 664,-56.5 610,-56.5"/>
<text text-anchor="middle" x="637" y="-63.5" font-family="Helvetica,sans-Serif" font-size="10.00">iostream</text>
</a>
</g>
</g>
<!-- Node8&#45;&gt;Node15 -->
<g id="edge14" class="edge">
<title>Node8&#45;&gt;Node15</title>
<path fill="none" stroke="midnightblue" d="M564.2,-168.37C577.24,-150.22 607.7,-107.8 624.8,-83.99"/>
<polygon fill="midnightblue" stroke="midnightblue" points="627.84,-85.76 630.83,-75.59 622.15,-81.67 627.84,-85.76"/>
</g>
<!-- Node16 -->
<g id="node16" class="node">
<title>Node16</title>
<g id="a_node16"><a xlink:title=" ">
<polygon fill="none" stroke="#bfbfbf" points="202.5,-56.5 202.5,-75.5 253.5,-75.5 253.5,-56.5 202.5,-56.5"/>
<text text-anchor="middle" x="228" y="-63.5" font-family="Helvetica,sans-Serif" font-size="10.00">memory</text>
</a>
</g>
</g>
<!-- Node8&#45;&gt;Node16 -->
<g id="edge15" class="edge">
<title>Node8&#45;&gt;Node16</title>
<path fill="none" stroke="midnightblue" d="M514,-170.07C509.27,-169.36 504.54,-168.66 500,-168 440.31,-159.38 271.75,-176.46 231,-132 219.81,-119.79 220.45,-100.24 223.05,-85.77"/>
<polygon fill="midnightblue" stroke="midnightblue" points="226.49,-86.42 225.25,-75.9 219.65,-84.9 226.49,-86.42"/>
</g>
<!-- Node17 -->
<g id="node17" class="node">
<title>Node17</title>
<g id="a_node17"><a xlink:title=" ">
<polygon fill="none" stroke="#bfbfbf" points="578,-0.5 578,-19.5 640,-19.5 640,-0.5 578,-0.5"/>
<text text-anchor="middle" x="609" y="-7.5" font-family="Helvetica,sans-Serif" font-size="10.00">type_traits</text>
</a>
</g>
</g>
<!-- Node8&#45;&gt;Node17 -->
<g id="edge17" class="edge">
<title>Node8&#45;&gt;Node17</title>
<path fill="none" stroke="midnightblue" d="M560.74,-168.08C568.77,-141.95 592.34,-65.21 603.29,-29.58"/>
<polygon fill="midnightblue" stroke="midnightblue" points="606.78,-30.16 606.37,-19.57 600.09,-28.1 606.78,-30.16"/>
</g>
<!-- Node18 -->
<g id="node18" class="node">
<title>Node18</title>
<g id="a_node18"><a xlink:title=" ">
<polygon fill="none" stroke="#bfbfbf" points="370.5,-112.5 370.5,-131.5 409.5,-131.5 409.5,-112.5 370.5,-112.5"/>
<text text-anchor="middle" x="390" y="-119.5" font-family="Helvetica,sans-Serif" font-size="10.00">utility</text>
</a>
</g>
</g>
<!-- Node8&#45;&gt;Node18 -->
<g id="edge18" class="edge">
<title>Node8&#45;&gt;Node18</title>
<path fill="none" stroke="midnightblue" d="M531.38,-168.44C500.82,-158.62 450.86,-142.56 419.24,-132.4"/>
<polygon fill="midnightblue" stroke="midnightblue" points="420.26,-129.05 409.67,-129.32 418.12,-135.72 420.26,-129.05"/>
</g>
<!-- Node19 -->
<g id="node19" class="node">
<title>Node19</title>
<g id="a_node19"><a xlink:title=" ">
<polygon fill="none" stroke="#bfbfbf" points="1167.5,-112.5 1167.5,-131.5 1244.5,-131.5 1244.5,-112.5 1167.5,-112.5"/>
<text text-anchor="middle" x="1206" y="-119.5" font-family="Helvetica,sans-Serif" font-size="10.00">thorin/config.h</text>
</a>
</g>
</g>
<!-- Node8&#45;&gt;Node19 -->
<g id="edge19" class="edge">
<title>Node8&#45;&gt;Node19</title>
<path fill="none" stroke="midnightblue" d="M602.2,-169.18C605.17,-168.75 608.13,-168.35 611,-168 716.41,-155.09 1034.61,-134 1157.16,-126.11"/>
<polygon fill="midnightblue" stroke="midnightblue" points="1157.61,-129.59 1167.36,-125.45 1157.16,-122.6 1157.61,-129.59"/>
</g>
<!-- Node20 -->
<g id="node20" class="node">
<title>Node20</title>
<g id="a_node20"><a xlink:href="bit_8h.html" target="_top" xlink:title=" ">
<polygon fill="none" stroke="black" points="427.5,-112.5 427.5,-131.5 504.5,-131.5 504.5,-112.5 427.5,-112.5"/>
<text text-anchor="middle" x="466" y="-119.5" font-family="Helvetica,sans-Serif" font-size="10.00">thorin/util/bit.h</text>
</a>
</g>
</g>
<!-- Node8&#45;&gt;Node20 -->
<g id="edge20" class="edge">
<title>Node8&#45;&gt;Node20</title>
<path fill="none" stroke="midnightblue" d="M543.22,-168.32C528.73,-159.82 506.43,-146.73 489.51,-136.8"/>
<polygon fill="midnightblue" stroke="midnightblue" points="491.14,-133.7 480.74,-131.65 487.6,-139.74 491.14,-133.7"/>
</g>
<!-- Node8&#45;&gt;Node26 -->
<g id="edge29" class="edge">
<title>Node8&#45;&gt;Node26</title>
<path fill="none" stroke="midnightblue" d="M584.3,-168.44C612.35,-159.32 656.94,-144.81 688.18,-134.65"/>
<polygon fill="midnightblue" stroke="midnightblue" points="689.39,-137.94 697.82,-131.52 687.23,-131.28 689.39,-137.94"/>
</g>
<!-- Node20&#45;&gt;Node13 -->
<g id="edge21" class="edge">
<title>Node20&#45;&gt;Node13</title>
<path fill="none" stroke="midnightblue" d="M447.25,-112.37C405.36,-93.09 304.03,-46.45 254.79,-23.79"/>
<polygon fill="midnightblue" stroke="midnightblue" points="256.21,-20.59 245.67,-19.59 253.29,-26.95 256.21,-20.59"/>
</g>
<!-- Node21 -->
<g id="node21" class="node">
<title>Node21</title>
<g id="a_node21"><a xlink:href="types_8h.html" target="_top" xlink:title=" ">
<polygon fill="none" stroke="black" points="421,-56.5 421,-75.5 511,-75.5 511,-56.5 421,-56.5"/>
<text text-anchor="middle" x="466" y="-63.5" font-family="Helvetica,sans-Serif" font-size="10.00">thorin/util/types.h</text>
</a>
</g>
</g>
<!-- Node20&#45;&gt;Node21 -->
<g id="edge22" class="edge">
<title>Node20&#45;&gt;Node21</title>
<path fill="none" stroke="midnightblue" d="M466,-112.08C466,-105.01 466,-94.86 466,-85.99"/>
<polygon fill="midnightblue" stroke="midnightblue" points="469.5,-85.75 466,-75.75 462.5,-85.75 469.5,-85.75"/>
</g>
<!-- Node21&#45;&gt;Node13 -->
<g id="edge24" class="edge">
<title>Node21&#45;&gt;Node13</title>
<path fill="none" stroke="midnightblue" d="M428.13,-56.44C381.82,-45.98 304.2,-28.44 260.15,-18.49"/>
<polygon fill="midnightblue" stroke="midnightblue" points="260.76,-15.04 250.24,-16.25 259.22,-21.87 260.76,-15.04"/>
</g>
<!-- Node21&#45;&gt;Node17 -->
<g id="edge27" class="edge">
<title>Node21&#45;&gt;Node17</title>
<path fill="none" stroke="midnightblue" d="M488.66,-56.44C512.4,-47.48 549.91,-33.31 576.74,-23.18"/>
<polygon fill="midnightblue" stroke="midnightblue" points="578.33,-26.32 586.45,-19.52 575.86,-19.77 578.33,-26.32"/>
</g>
<!-- Node22 -->
<g id="node22" class="node">
<title>Node22</title>
<g id="a_node22"><a xlink:title=" ">
<polygon fill="none" stroke="#bfbfbf" points="320,-0.5 320,-19.5 364,-19.5 364,-0.5 320,-0.5"/>
<text text-anchor="middle" x="342" y="-7.5" font-family="Helvetica,sans-Serif" font-size="10.00">cmath</text>
</a>
</g>
</g>
<!-- Node21&#45;&gt;Node22 -->
<g id="edge23" class="edge">
<title>Node21&#45;&gt;Node22</title>
<path fill="none" stroke="midnightblue" d="M446.35,-56.44C426.04,-47.6 394.1,-33.69 370.9,-23.59"/>
<polygon fill="midnightblue" stroke="midnightblue" points="372.12,-20.3 361.56,-19.52 369.33,-26.72 372.12,-20.3"/>
</g>
<!-- Node23 -->
<g id="node23" class="node">
<title>Node23</title>
<g id="a_node23"><a xlink:title=" ">
<polygon fill="none" stroke="#bfbfbf" points="382,-0.5 382,-19.5 422,-19.5 422,-0.5 382,-0.5"/>
<text text-anchor="middle" x="402" y="-7.5" font-family="Helvetica,sans-Serif" font-size="10.00">limits</text>
</a>
</g>
</g>
<!-- Node21&#45;&gt;Node23 -->
<g id="edge25" class="edge">
<title>Node21&#45;&gt;Node23</title>
<path fill="none" stroke="midnightblue" d="M455.72,-56.32C446.16,-48.26 431.72,-36.08 420.22,-26.37"/>
<polygon fill="midnightblue" stroke="midnightblue" points="422.37,-23.61 412.47,-19.83 417.86,-28.96 422.37,-23.61"/>
</g>
<!-- Node24 -->
<g id="node24" class="node">
<title>Node24</title>
<g id="a_node24"><a xlink:title=" ">
<polygon fill="none" stroke="#bfbfbf" points="440,-0.5 440,-19.5 492,-19.5 492,-0.5 440,-0.5"/>
<text text-anchor="middle" x="466" y="-7.5" font-family="Helvetica,sans-Serif" font-size="10.00">ostream</text>
</a>
</g>
</g>
<!-- Node21&#45;&gt;Node24 -->
<g id="edge26" class="edge">
<title>Node21&#45;&gt;Node24</title>
<path fill="none" stroke="midnightblue" d="M466,-56.08C466,-49.01 466,-38.86 466,-29.99"/>
<polygon fill="midnightblue" stroke="midnightblue" points="469.5,-29.75 466,-19.75 462.5,-29.75 469.5,-29.75"/>
</g>
<!-- Node25 -->
<g id="node25" class="node">
<title>Node25</title>
<g id="a_node25"><a xlink:title=" ">
<polygon fill="none" stroke="#bfbfbf" points="510,-0.5 510,-19.5 560,-19.5 560,-0.5 510,-0.5"/>
<text text-anchor="middle" x="535" y="-7.5" font-family="Helvetica,sans-Serif" font-size="10.00">half.hpp</text>
</a>
</g>
</g>
<!-- Node21&#45;&gt;Node25 -->
<g id="edge28" class="edge">
<title>Node21&#45;&gt;Node25</title>
<path fill="none" stroke="midnightblue" d="M477.09,-56.32C487.49,-48.18 503.26,-35.84 515.72,-26.09"/>
<polygon fill="midnightblue" stroke="midnightblue" points="517.99,-28.75 523.71,-19.83 513.68,-23.24 517.99,-28.75"/>
</g>
<!-- Node26&#45;&gt;Node6 -->
<g id="edge37" class="edge">
<title>Node26&#45;&gt;Node6</title>
<path fill="none" stroke="midnightblue" d="M772.57,-113.26C843.41,-101.98 973.04,-81.33 1032.15,-71.91"/>
<polygon fill="midnightblue" stroke="midnightblue" points="1033.01,-75.32 1042.34,-70.29 1031.91,-68.41 1033.01,-75.32"/>
</g>
<!-- Node26&#45;&gt;Node11 -->
<g id="edge30" class="edge">
<title>Node26&#45;&gt;Node11</title>
<path fill="none" stroke="midnightblue" d="M772.58,-116.64C843.36,-109.93 978.85,-95.75 1093,-76 1094.69,-75.71 1096.41,-75.39 1098.15,-75.06"/>
<polygon fill="midnightblue" stroke="midnightblue" points="1099.02,-78.45 1108.11,-73 1097.61,-71.59 1099.02,-78.45"/>
</g>
<!-- Node26&#45;&gt;Node14 -->
<g id="edge31" class="edge">
<title>Node26&#45;&gt;Node14</title>
<path fill="none" stroke="midnightblue" d="M760.44,-112.44C804.56,-102.09 878.22,-84.79 920.82,-74.79"/>
<polygon fill="midnightblue" stroke="midnightblue" points="921.75,-78.17 930.69,-72.47 920.15,-71.35 921.75,-78.17"/>
</g>
<!-- Node26&#45;&gt;Node15 -->
<g id="edge33" class="edge">
<title>Node26&#45;&gt;Node15</title>
<path fill="none" stroke="midnightblue" d="M710.02,-112.32C696.45,-103.9 675.62,-90.97 659.68,-81.07"/>
<polygon fill="midnightblue" stroke="midnightblue" points="661.29,-77.95 650.94,-75.65 657.59,-83.9 661.29,-77.95"/>
</g>
<!-- Node26&#45;&gt;Node16 -->
<g id="edge34" class="edge">
<title>Node26&#45;&gt;Node16</title>
<path fill="none" stroke="midnightblue" d="M675.08,-115.67C575.49,-104.83 351.22,-80.41 263.82,-70.9"/>
<polygon fill="midnightblue" stroke="midnightblue" points="263.94,-67.39 253.62,-69.79 263.18,-74.35 263.94,-67.39"/>
</g>
<!-- Node27 -->
<g id="node27" class="node">
<title>Node27</title>
<g id="a_node27"><a xlink:title=" ">
<polygon fill="none" stroke="#bfbfbf" points="816,-56.5 816,-75.5 866,-75.5 866,-56.5 816,-56.5"/>
<text text-anchor="middle" x="841" y="-63.5" font-family="Helvetica,sans-Serif" font-size="10.00">fstream</text>
</a>
</g>
</g>
<!-- Node26&#45;&gt;Node27 -->
<g id="edge32" class="edge">
<title>Node26&#45;&gt;Node27</title>
<path fill="none" stroke="midnightblue" d="M742.54,-112.44C761.62,-103.64 791.57,-89.81 813.44,-79.72"/>
<polygon fill="midnightblue" stroke="midnightblue" points="814.93,-82.88 822.55,-75.52 812,-76.53 814.93,-82.88"/>
</g>
<!-- Node28 -->
<g id="node28" class="node">
<title>Node28</title>
<g id="a_node28"><a xlink:title=" ">
<polygon fill="none" stroke="#bfbfbf" points="682,-56.5 682,-75.5 728,-75.5 728,-56.5 682,-56.5"/>
<text text-anchor="middle" x="705" y="-63.5" font-family="Helvetica,sans-Serif" font-size="10.00">ranges</text>
</a>
</g>
</g>
<!-- Node26&#45;&gt;Node28 -->
<g id="edge35" class="edge">
<title>Node26&#45;&gt;Node28</title>
<path fill="none" stroke="midnightblue" d="M720.86,-112.08C718.32,-104.85 714.64,-94.41 711.47,-85.4"/>
<polygon fill="midnightblue" stroke="midnightblue" points="714.7,-84.02 708.08,-75.75 708.1,-86.35 714.7,-84.02"/>
</g>
<!-- Node29 -->
<g id="node29" class="node">
<title>Node29</title>
<g id="a_node29"><a xlink:title=" ">
<polygon fill="none" stroke="#bfbfbf" points="746,-56.5 746,-75.5 798,-75.5 798,-56.5 746,-56.5"/>
<text text-anchor="middle" x="772" y="-63.5" font-family="Helvetica,sans-Serif" font-size="10.00">sstream</text>
</a>
</g>
</g>
<!-- Node26&#45;&gt;Node29 -->
<g id="edge36" class="edge">
<title>Node26&#45;&gt;Node29</title>
<path fill="none" stroke="midnightblue" d="M731.93,-112.08C738.85,-104.3 749.07,-92.8 757.45,-83.37"/>
<polygon fill="midnightblue" stroke="midnightblue" points="760.19,-85.55 764.22,-75.75 754.96,-80.9 760.19,-85.55"/>
</g>
<!-- Node30&#45;&gt;Node21 -->
<g id="edge42" class="edge">
<title>Node30&#45;&gt;Node21</title>
<path fill="none" stroke="midnightblue" d="M757.74,-168.5C725.57,-160.05 675.58,-146.31 633,-132 584.23,-115.6 528.77,-93.26 495.62,-79.5"/>
<polygon fill="midnightblue" stroke="midnightblue" points="496.66,-76.14 486.08,-75.52 493.97,-82.6 496.66,-76.14"/>
</g>
<!-- Node31 -->
<g id="node31" class="node">
<title>Node31</title>
<g id="a_node31"><a xlink:href="assert_8h.html" target="_top" xlink:title=" ">
<polygon fill="none" stroke="black" points="867,-112.5 867,-131.5 961,-131.5 961,-112.5 867,-112.5"/>
<text text-anchor="middle" x="914" y="-119.5" font-family="Helvetica,sans-Serif" font-size="10.00">thorin/util/assert.h</text>
</a>
</g>
</g>
<!-- Node30&#45;&gt;Node31 -->
<g id="edge40" class="edge">
<title>Node30&#45;&gt;Node31</title>
<path fill="none" stroke="midnightblue" d="M810.49,-168.44C830.64,-159.6 862.32,-145.69 885.33,-135.59"/>
<polygon fill="midnightblue" stroke="midnightblue" points="886.85,-138.74 894.6,-131.52 884.04,-132.33 886.85,-138.74"/>
</g>
<!-- Node31&#45;&gt;Node11 -->
<g id="edge41" class="edge">
<title>Node31&#45;&gt;Node11</title>
<path fill="none" stroke="midnightblue" d="M948.7,-112.44C989.73,-102.33 1057.59,-85.59 1098.52,-75.5"/>
<polygon fill="midnightblue" stroke="midnightblue" points="1099.44,-78.88 1108.32,-73.09 1097.77,-72.08 1099.44,-78.88"/>
</g>
<!-- Node32&#45;&gt;Node4 -->
<g id="edge51" class="edge">
<title>Node32&#45;&gt;Node4</title>
<path fill="none" stroke="midnightblue" d="M1080.39,-224.44C1031.08,-213.79 947.83,-195.81 902.23,-185.96"/>
<polygon fill="midnightblue" stroke="midnightblue" points="902.81,-182.51 892.3,-183.82 901.33,-189.35 902.81,-182.51"/>
</g>
<!-- Node32&#45;&gt;Node9 -->
<g id="edge44" class="edge">
<title>Node32&#45;&gt;Node9</title>
<path fill="none" stroke="midnightblue" d="M1080.39,-224.49C1059.4,-217.96 1034.95,-206.76 1020,-188 1009.59,-174.93 1006.81,-155.78 1006.35,-141.65"/>
<polygon fill="midnightblue" stroke="midnightblue" points="1009.85,-141.61 1006.38,-131.6 1002.85,-141.59 1009.85,-141.61"/>
</g>
<!-- Node32&#45;&gt;Node11 -->
<g id="edge45" class="edge">
<title>Node32&#45;&gt;Node11</title>
<path fill="none" stroke="midnightblue" d="M1142.46,-224.38C1157.77,-217.18 1176.86,-205.29 1186,-188 1190.15,-180.14 1188.81,-176.43 1186,-168 1179.68,-149.03 1168.8,-149.44 1159,-132 1150.54,-116.95 1143.47,-98.59 1138.84,-85.23"/>
<polygon fill="midnightblue" stroke="midnightblue" points="1142.16,-84.12 1135.68,-75.74 1135.52,-86.34 1142.16,-84.12"/>
</g>
<!-- Node32&#45;&gt;Node14 -->
<g id="edge47" class="edge">
<title>Node32&#45;&gt;Node14</title>
<path fill="none" stroke="midnightblue" d="M1099.16,-224.46C1084.04,-217.12 1064.47,-205.01 1054,-188 1036.15,-158.98 1063.77,-139.75 1044,-112 1030.47,-93.01 1006.59,-81.59 986.83,-75.01"/>
<polygon fill="midnightblue" stroke="midnightblue" points="987.82,-71.65 977.23,-72.07 985.77,-78.35 987.82,-71.65"/>
</g>
<!-- Node32&#45;&gt;Node17 -->
<g id="edge52" class="edge">
<title>Node32&#45;&gt;Node17</title>
<path fill="none" stroke="midnightblue" d="M1137.75,-224.38C1164.46,-211.53 1216.69,-186.84 1262,-168 1304.08,-150.51 1332.04,-169.45 1358,-132 1363.06,-124.69 1363.33,-119.11 1358,-112 1304.97,-41.19 1253.99,-72.08 1167,-56 976.05,-20.69 743.27,-13.09 650.26,-11.45"/>
<polygon fill="midnightblue" stroke="midnightblue" points="650.2,-7.95 640.14,-11.29 650.08,-14.95 650.2,-7.95"/>
</g>
<!-- Node33 -->
<g id="node33" class="node">
<title>Node33</title>
<g id="a_node33"><a xlink:title=" ">
<polygon fill="none" stroke="#bfbfbf" points="1062.5,-168.5 1062.5,-187.5 1111.5,-187.5 1111.5,-168.5 1062.5,-168.5"/>
<text text-anchor="middle" x="1087" y="-175.5" font-family="Helvetica,sans-Serif" font-size="10.00">cstddef</text>
</a>
</g>
</g>
<!-- Node32&#45;&gt;Node33 -->
<g id="edge46" class="edge">
<title>Node32&#45;&gt;Node33</title>
<path fill="none" stroke="midnightblue" d="M1114.55,-224.08C1109.99,-216.61 1103.33,-205.72 1097.71,-196.52"/>
<polygon fill="midnightblue" stroke="midnightblue" points="1100.55,-194.46 1092.35,-187.75 1094.58,-198.11 1100.55,-194.46"/>
</g>
<!-- Node34 -->
<g id="node34" class="node">
<title>Node34</title>
<g id="a_node34"><a xlink:title=" ">
<polygon fill="none" stroke="#bfbfbf" points="1271,-168.5 1271,-187.5 1343,-187.5 1343,-168.5 1271,-168.5"/>
<text text-anchor="middle" x="1307" y="-175.5" font-family="Helvetica,sans-Serif" font-size="10.00">initializer_list</text>
</a>
</g>
</g>
<!-- Node32&#45;&gt;Node34 -->
<g id="edge48" class="edge">
<title>Node32&#45;&gt;Node34</title>
<path fill="none" stroke="midnightblue" d="M1149.63,-224.44C1181.5,-215.24 1232.33,-200.56 1267.56,-190.39"/>
<polygon fill="midnightblue" stroke="midnightblue" points="1268.87,-193.65 1277.51,-187.52 1266.93,-186.93 1268.87,-193.65"/>
</g>
<!-- Node35 -->
<g id="node35" class="node">
<title>Node35</title>
<g id="a_node35"><a xlink:title=" ">
<polygon fill="none" stroke="#bfbfbf" points="1129.5,-168.5 1129.5,-187.5 1176.5,-187.5 1176.5,-168.5 1129.5,-168.5"/>
<text text-anchor="middle" x="1153" y="-175.5" font-family="Helvetica,sans-Serif" font-size="10.00">iterator</text>
</a>
</g>
</g>
<!-- Node32&#45;&gt;Node35 -->
<g id="edge49" class="edge">
<title>Node32&#45;&gt;Node35</title>
<path fill="none" stroke="midnightblue" d="M1125.45,-224.08C1130.01,-216.61 1136.67,-205.72 1142.29,-196.52"/>
<polygon fill="midnightblue" stroke="midnightblue" points="1145.42,-198.11 1147.65,-187.75 1139.45,-194.46 1145.42,-198.11"/>
</g>
<!-- Node36 -->
<g id="node36" class="node">
<title>Node36</title>
<g id="a_node36"><a xlink:title=" ">
<polygon fill="none" stroke="#bfbfbf" points="1361.5,-168.5 1361.5,-187.5 1420.5,-187.5 1420.5,-168.5 1361.5,-168.5"/>
<text text-anchor="middle" x="1391" y="-175.5" font-family="Helvetica,sans-Serif" font-size="10.00">functional</text>
</a>
</g>
</g>
<!-- Node32&#45;&gt;Node36 -->
<g id="edge50" class="edge">
<title>Node32&#45;&gt;Node36</title>
<path fill="none" stroke="midnightblue" d="M1164.14,-224.92C1208.78,-216.64 1280.02,-203.13 1351.18,-188.12"/>
<polygon fill="midnightblue" stroke="midnightblue" points="1352.16,-191.49 1361.21,-185.99 1350.7,-184.64 1352.16,-191.49"/>
</g>
<!-- Node37&#45;&gt;Node11 -->
<g id="edge54" class="edge">
<title>Node37&#45;&gt;Node11</title>
<path fill="none" stroke="midnightblue" d="M1278.59,-112.44C1248.45,-103.04 1199.99,-87.91 1167.35,-77.72"/>
<polygon fill="midnightblue" stroke="midnightblue" points="1168.35,-74.37 1157.76,-74.73 1166.26,-81.05 1168.35,-74.37"/>
</g>
<!-- Node37&#45;&gt;Node14 -->
<g id="edge55" class="edge">
<title>Node37&#45;&gt;Node14</title>
<path fill="none" stroke="midnightblue" d="M1262.88,-113.46C1259.88,-112.96 1256.89,-112.47 1254,-112 1157.29,-96.38 1042.73,-79.7 987.32,-71.75"/>
<polygon fill="midnightblue" stroke="midnightblue" points="987.76,-68.28 977.37,-70.32 986.77,-75.21 987.76,-68.28"/>
</g>
<!-- Node38&#45;&gt;Node13 -->
<g id="edge58" class="edge">
<title>Node38&#45;&gt;Node13</title>
<path fill="none" stroke="midnightblue" d="M53.75,-112.37C86.29,-93.33 164.42,-47.62 203.67,-24.65"/>
<polygon fill="midnightblue" stroke="midnightblue" points="205.45,-27.66 212.32,-19.59 201.92,-21.62 205.45,-27.66"/>
</g>
<!-- Node38&#45;&gt;Node16 -->
<g id="edge59" class="edge">
<title>Node38&#45;&gt;Node16</title>
<path fill="none" stroke="midnightblue" d="M68.95,-112.44C102.48,-102.86 156.8,-87.34 192.46,-77.15"/>
<polygon fill="midnightblue" stroke="midnightblue" points="193.78,-80.42 202.44,-74.3 191.86,-73.69 193.78,-80.42"/>
</g>
<!-- Node39&#45;&gt;Node6 -->
<g id="edge66" class="edge">
<title>Node39&#45;&gt;Node6</title>
<path fill="none" stroke="midnightblue" d="M957.15,-455.66C1056.62,-451.74 1327.16,-438.86 1412,-412 1467.24,-394.51 1525,-404.94 1525,-347 1525,-347 1525,-347 1525,-177 1525,-96.5 1157.64,-87 1100,-76 1097.92,-75.6 1095.78,-75.16 1093.63,-74.7"/>
<polygon fill="midnightblue" stroke="midnightblue" points="1094.19,-71.24 1083.66,-72.41 1092.63,-78.06 1094.19,-71.24"/>
</g>
<!-- Node39&#45;&gt;Node8 -->
<g id="edge74" class="edge">
<title>Node39&#45;&gt;Node8</title>
<path fill="none" stroke="midnightblue" d="M882.9,-454.85C819.57,-450.49 694.1,-438.67 660,-412 589.28,-356.7 566.56,-242.29 560.2,-197.52"/>
<polygon fill="midnightblue" stroke="midnightblue" points="563.65,-196.97 558.89,-187.5 556.71,-197.87 563.65,-196.97"/>
</g>
<!-- Node39&#45;&gt;Node11 -->
<g id="edge62" class="edge">
<title>Node39&#45;&gt;Node11</title>
<path fill="none" stroke="midnightblue" d="M957.11,-456.39C1064.27,-454.25 1372.52,-445.28 1467,-412 1515.6,-394.88 1563,-398.53 1563,-347 1563,-347 1563,-347 1563,-177 1563,-95.6 1270.13,-73.64 1167.79,-68.45"/>
<polygon fill="midnightblue" stroke="midnightblue" points="1167.82,-64.94 1157.66,-67.96 1167.48,-71.94 1167.82,-64.94"/>
</g>
<!-- Node39&#45;&gt;Node15 -->
<g id="edge63" class="edge">
<title>Node39&#45;&gt;Node15</title>
<path fill="none" stroke="midnightblue" d="M920,-448.44C920,-429.94 920,-384.81 920,-347 920,-347 920,-347 920,-233 920,-202.9 923.64,-187.84 901,-168 821.86,-98.65 751.05,-195.3 667,-132 652.29,-120.92 644.55,-100.88 640.65,-85.97"/>
<polygon fill="midnightblue" stroke="midnightblue" points="643.97,-84.79 638.36,-75.8 637.14,-86.33 643.97,-84.79"/>
</g>
<!-- Node39&#45;&gt;Node19 -->
<g id="edge75" class="edge">
<title>Node39&#45;&gt;Node19</title>
<path fill="none" stroke="midnightblue" d="M957.2,-457.2C1077.61,-456.84 1449,-447.61 1449,-347 1449,-347 1449,-347 1449,-233 1449,-202.9 1452.18,-188.35 1430,-168 1426.74,-165.01 1319.46,-144.38 1254.57,-132.11"/>
<polygon fill="midnightblue" stroke="midnightblue" points="1255.02,-128.63 1244.54,-130.22 1253.72,-135.51 1255.02,-128.63"/>
</g>
<!-- Node39&#45;&gt;Node34 -->
<g id="edge65" class="edge">
<title>Node39&#45;&gt;Node34</title>
<path fill="none" stroke="midnightblue" d="M957.29,-455.49C1062.32,-450.24 1353,-428.34 1353,-347 1353,-347 1353,-347 1353,-289 1353,-253.82 1332.72,-216.86 1319.09,-196"/>
<polygon fill="midnightblue" stroke="midnightblue" points="1321.91,-193.92 1313.4,-187.61 1316.12,-197.85 1321.91,-193.92"/>
</g>
<!-- Node39&#45;&gt;Node36 -->
<g id="edge64" class="edge">
<title>Node39&#45;&gt;Node36</title>
<path fill="none" stroke="midnightblue" d="M957.35,-456.25C1068.75,-452.99 1391,-435.9 1391,-347 1391,-347 1391,-347 1391,-289 1391,-256.95 1391,-219.64 1391,-197.75"/>
<polygon fill="midnightblue" stroke="midnightblue" points="1394.5,-197.56 1391,-187.56 1387.5,-197.56 1394.5,-197.56"/>
</g>
<!-- Node40 -->
<g id="node40" class="node">
<title>Node40</title>
<g id="a_node40"><a xlink:href="axiom_8h.html" target="_top" xlink:title=" ">
<polygon fill="none" stroke="black" points="814.5,-392.5 814.5,-411.5 891.5,-411.5 891.5,-392.5 814.5,-392.5"/>
<text text-anchor="middle" x="853" y="-399.5" font-family="Helvetica,sans-Serif" font-size="10.00">thorin/axiom.h</text>
</a>
</g>
</g>
<!-- Node39&#45;&gt;Node40 -->
<g id="edge67" class="edge">
<title>Node39&#45;&gt;Node40</title>
<path fill="none" stroke="midnightblue" d="M909.24,-448.32C899.23,-440.26 884.11,-428.08 872.07,-418.37"/>
<polygon fill="midnightblue" stroke="midnightblue" points="873.94,-415.38 863.96,-411.83 869.55,-420.83 873.94,-415.38"/>
</g>
<!-- Node42 -->
<g id="node42" class="node">
<title>Node42</title>
<g id="a_node42"><a xlink:href="lattice_8h.html" target="_top" xlink:title=" ">
<polygon fill="none" stroke="black" points="669.5,-392.5 669.5,-411.5 746.5,-411.5 746.5,-392.5 669.5,-392.5"/>
<text text-anchor="middle" x="708" y="-399.5" font-family="Helvetica,sans-Serif" font-size="10.00">thorin/lattice.h</text>
</a>
</g>
</g>
<!-- Node39&#45;&gt;Node42 -->
<g id="edge70" class="edge">
<title>Node39&#45;&gt;Node42</title>
<path fill="none" stroke="midnightblue" d="M886.41,-448.44C849.81,-439.12 791.16,-424.18 751.17,-414"/>
<polygon fill="midnightblue" stroke="midnightblue" points="751.99,-410.59 741.43,-411.52 750.26,-417.38 751.99,-410.59"/>
</g>
<!-- Node43 -->
<g id="node43" class="node">
<title>Node43</title>
<g id="a_node43"><a xlink:href="tuple_8h.html" target="_top" xlink:title=" ">
<polygon fill="none" stroke="black" points="732,-336.5 732,-355.5 804,-355.5 804,-336.5 732,-336.5"/>
<text text-anchor="middle" x="768" y="-343.5" font-family="Helvetica,sans-Serif" font-size="10.00">thorin/tuple.h</text>
</a>
</g>
</g>
<!-- Node39&#45;&gt;Node43 -->
<g id="edge72" class="edge">
<title>Node39&#45;&gt;Node43</title>
<path fill="none" stroke="midnightblue" d="M882.82,-449.02C858.77,-442.36 827.97,-430.84 806,-412 791.31,-399.4 780.9,-379.63 774.73,-365.2"/>
<polygon fill="midnightblue" stroke="midnightblue" points="777.95,-363.81 770.99,-355.82 771.44,-366.4 777.95,-363.81"/>
</g>
<!-- Node41 -->
<g id="node41" class="node">
<title>Node41</title>
<g id="a_node41"><a xlink:href="lam_8h.html" target="_top" xlink:title=" ">
<polygon fill="none" stroke="black" points="822.5,-336.5 822.5,-355.5 889.5,-355.5 889.5,-336.5 822.5,-336.5"/>
<text text-anchor="middle" x="856" y="-343.5" font-family="Helvetica,sans-Serif" font-size="10.00">thorin/lam.h</text>
</a>
</g>
</g>
<!-- Node40&#45;&gt;Node41 -->
<g id="edge68" class="edge">
<title>Node40&#45;&gt;Node41</title>
<path fill="none" stroke="midnightblue" d="M853.5,-392.08C853.89,-385.01 854.45,-374.86 854.95,-365.99"/>
<polygon fill="midnightblue" stroke="midnightblue" points="858.45,-365.93 855.51,-355.75 851.46,-365.54 858.45,-365.93"/>
</g>
<!-- Node41&#45;&gt;Node2 -->
<g id="edge69" class="edge">
<title>Node41&#45;&gt;Node2</title>
<path fill="none" stroke="midnightblue" d="M835.08,-336.44C813.26,-327.52 778.85,-313.44 754.11,-303.32"/>
<polygon fill="midnightblue" stroke="midnightblue" points="755.4,-300.06 744.82,-299.52 752.75,-306.54 755.4,-300.06"/>
</g>
<!-- Node42&#45;&gt;Node2 -->
<g id="edge71" class="edge">
<title>Node42&#45;&gt;Node2</title>
<path fill="none" stroke="midnightblue" d="M709.26,-392.37C711.84,-374.62 717.79,-333.67 721.29,-309.6"/>
<polygon fill="midnightblue" stroke="midnightblue" points="724.77,-309.99 722.75,-299.59 717.85,-308.98 724.77,-309.99"/>
</g>
<!-- Node43&#45;&gt;Node2 -->
<g id="edge73" class="edge">
<title>Node43&#45;&gt;Node2</title>
<path fill="none" stroke="midnightblue" d="M760.73,-336.08C754.46,-328.38 745.21,-317.03 737.57,-307.65"/>
<polygon fill="midnightblue" stroke="midnightblue" points="740.16,-305.29 731.13,-299.75 734.73,-309.71 740.16,-305.29"/>
</g>
</g>
</svg>
