<?xml version="1.0" encoding="UTF-8" standalone="no"?>
<!DOCTYPE svg PUBLIC "-//W3C//DTD SVG 1.1//EN"
 "http://www.w3.org/Graphics/SVG/1.1/DTD/svg11.dtd">
<!-- Generated by graphviz version 2.43.0 (0)
 -->
<!-- Title: /home/runner/work/thorin2/thorin2/thorin/normalize.h Pages: 1 -->
<svg width="1540pt" height="509pt"
 viewBox="0.00 0.00 1539.50 509.00" xmlns="http://www.w3.org/2000/svg" xmlns:xlink="http://www.w3.org/1999/xlink">
<g id="graph0" class="graph" transform="scale(1 1) rotate(0) translate(4 505)">
<title>/home/runner/work/thorin2/thorin2/thorin/normalize.h</title>
<!-- Node1 -->
<g id="node1" class="node">
<title>Node1</title>
<g id="a_node1"><a xlink:title=" ">
<polygon fill="#bfbfbf" stroke="black" points="743.5,-470.5 743.5,-500.5 889.5,-500.5 889.5,-470.5 743.5,-470.5"/>
<text text-anchor="start" x="751.5" y="-488.5" font-family="Helvetica,sans-Serif" font-size="10.00">/home/runner/work/thorin2</text>
<text text-anchor="middle" x="816.5" y="-477.5" font-family="Helvetica,sans-Serif" font-size="10.00">/thorin2/thorin/normalize.h</text>
</a>
</g>
</g>
<!-- Node2 -->
<g id="node2" class="node">
<title>Node2</title>
<g id="a_node2"><a xlink:href="def_8h.html" target="_top" xlink:title=" ">
<polygon fill="none" stroke="black" points="731.5,-235.5 731.5,-254.5 803.5,-254.5 803.5,-235.5 731.5,-235.5"/>
<text text-anchor="middle" x="767.5" y="-242.5" font-family="Helvetica,sans-Serif" font-size="10.00">thorin/def.h</text>
</a>
</g>
</g>
<!-- Node1&#45;&gt;Node2 -->
<g id="edge1" class="edge">
<title>Node1&#45;&gt;Node2</title>
<path fill="none" stroke="midnightblue" d="M804.58,-470.41C781.7,-442.32 732.3,-376.41 714.5,-311 712.17,-302.42 710.77,-299.07 714.5,-291 720.42,-278.21 731.97,-267.72 742.78,-260.1"/>
<polygon fill="midnightblue" stroke="midnightblue" points="744.71,-263.02 751.17,-254.61 740.88,-257.16 744.71,-263.02"/>
</g>
<!-- Node38 -->
<g id="node38" class="node">
<title>Node38</title>
<g id="a_node38"><a xlink:href="world_8h.html" target="_top" xlink:title=" ">
<polygon fill="none" stroke="black" points="930.5,-414.5 930.5,-433.5 1014.5,-433.5 1014.5,-414.5 930.5,-414.5"/>
<text text-anchor="middle" x="972.5" y="-421.5" font-family="Helvetica,sans-Serif" font-size="10.00">thorin/world.h</text>
</a>
</g>
</g>
<!-- Node1&#45;&gt;Node38 -->
<g id="edge50" class="edge">
<title>Node1&#45;&gt;Node38</title>
<path fill="none" stroke="midnightblue" d="M853.47,-470.4C879.88,-460.33 915.06,-446.91 940.31,-437.28"/>
<polygon fill="midnightblue" stroke="midnightblue" points="941.7,-440.49 949.8,-433.66 939.21,-433.95 941.7,-440.49"/>
</g>
<!-- Node3 -->
<g id="node3" class="node">
<title>Node3</title>
<g id="a_node3"><a xlink:title=" ">
<polygon fill="none" stroke="#bfbfbf" points="531.5,-179.5 531.5,-198.5 587.5,-198.5 587.5,-179.5 531.5,-179.5"/>
<text text-anchor="middle" x="559.5" y="-186.5" font-family="Helvetica,sans-Serif" font-size="10.00">optional</text>
</a>
</g>
</g>
<!-- Node2&#45;&gt;Node3 -->
<g id="edge2" class="edge">
<title>Node2&#45;&gt;Node3</title>
<path fill="none" stroke="midnightblue" d="M734.54,-235.44C697.24,-225.76 636.57,-210.01 597.36,-199.83"/>
<polygon fill="midnightblue" stroke="midnightblue" points="598.19,-196.43 587.63,-197.3 596.43,-203.2 598.19,-196.43"/>
</g>
<!-- Node4 -->
<g id="node4" class="node">
<title>Node4</title>
<g id="a_node4"><a xlink:title=" ">
<polygon fill="none" stroke="#bfbfbf" points="448,-56.5 448,-75.5 495,-75.5 495,-56.5 448,-56.5"/>
<text text-anchor="middle" x="471.5" y="-63.5" font-family="Helvetica,sans-Serif" font-size="10.00">vector</text>
</a>
</g>
</g>
<!-- Node2&#45;&gt;Node4 -->
<g id="edge3" class="edge">
<title>Node2&#45;&gt;Node4</title>
<path fill="none" stroke="midnightblue" d="M768.7,-235.38C771.46,-211.81 775.52,-145.78 740.5,-112 739.44,-110.98 577.15,-84.3 505.19,-72.51"/>
<polygon fill="midnightblue" stroke="midnightblue" points="505.69,-69.05 495.26,-70.88 504.56,-75.95 505.69,-69.05"/>
</g>
<!-- Node5 -->
<g id="node5" class="node">
<title>Node5</title>
<g id="a_node5"><a xlink:href="debug_8h.html" target="_top" xlink:title=" ">
<polygon fill="none" stroke="black" points="644,-179.5 644,-198.5 731,-198.5 731,-179.5 644,-179.5"/>
<text text-anchor="middle" x="687.5" y="-186.5" font-family="Helvetica,sans-Serif" font-size="10.00">thorin/debug.h</text>
</a>
</g>
</g>
<!-- Node2&#45;&gt;Node5 -->
<g id="edge4" class="edge">
<title>Node2&#45;&gt;Node5</title>
<path fill="none" stroke="midnightblue" d="M754.65,-235.32C742.28,-226.98 723.37,-214.21 708.76,-204.35"/>
<polygon fill="midnightblue" stroke="midnightblue" points="710.57,-201.35 700.32,-198.65 706.65,-207.15 710.57,-201.35"/>
</g>
<!-- Node9 -->
<g id="node9" class="node">
<title>Node9</title>
<g id="a_node9"><a xlink:href="tables_8h.html" target="_top" xlink:title=" ">
<polygon fill="none" stroke="black" points="864,-179.5 864,-198.5 951,-198.5 951,-179.5 864,-179.5"/>
<text text-anchor="middle" x="907.5" y="-186.5" font-family="Helvetica,sans-Serif" font-size="10.00">thorin/tables.h</text>
</a>
</g>
</g>
<!-- Node2&#45;&gt;Node9 -->
<g id="edge8" class="edge">
<title>Node2&#45;&gt;Node9</title>
<path fill="none" stroke="midnightblue" d="M789.68,-235.44C812.93,-226.48 849.65,-212.31 875.92,-202.18"/>
<polygon fill="midnightblue" stroke="midnightblue" points="877.35,-205.38 885.42,-198.52 874.83,-198.85 877.35,-205.38"/>
</g>
<!-- Node11 -->
<g id="node11" class="node">
<title>Node11</title>
<g id="a_node11"><a xlink:href="print_8h.html" target="_top" xlink:title=" ">
<polygon fill="none" stroke="black" points="1096.5,-118 1096.5,-137 1194.5,-137 1194.5,-118 1096.5,-118"/>
<text text-anchor="middle" x="1145.5" y="-125" font-family="Helvetica,sans-Serif" font-size="10.00">thorin/util/print.h</text>
</a>
</g>
</g>
<!-- Node2&#45;&gt;Node11 -->
<g id="edge49" class="edge">
<title>Node2&#45;&gt;Node11</title>
<path fill="none" stroke="midnightblue" d="M803.65,-237.14C842.56,-229.39 906.06,-215.65 959.5,-199 982.75,-191.76 987.76,-187.71 1010.5,-179 1045.26,-165.69 1085.2,-150.8 1112.56,-140.66"/>
<polygon fill="midnightblue" stroke="midnightblue" points="1113.88,-143.9 1122.04,-137.15 1111.45,-137.34 1113.88,-143.9"/>
</g>
<!-- Node24 -->
<g id="node24" class="node">
<title>Node24</title>
<g id="a_node24"><a xlink:href="array_8h.html" target="_top" xlink:title=" ">
<polygon fill="none" stroke="black" points="825.5,-118 825.5,-137 925.5,-137 925.5,-118 825.5,-118"/>
<text text-anchor="middle" x="875.5" y="-125" font-family="Helvetica,sans-Serif" font-size="10.00">thorin/util/array.h</text>
</a>
</g>
</g>
<!-- Node2&#45;&gt;Node24 -->
<g id="edge25" class="edge">
<title>Node2&#45;&gt;Node24</title>
<path fill="none" stroke="midnightblue" d="M774.16,-235.3C784.05,-222.54 803.38,-198.21 821.5,-179 833.15,-166.65 847.18,-153.58 858.02,-143.83"/>
<polygon fill="midnightblue" stroke="midnightblue" points="860.45,-146.35 865.59,-137.09 855.79,-141.12 860.45,-146.35"/>
</g>
<!-- Node31 -->
<g id="node31" class="node">
<title>Node31</title>
<g id="a_node31"><a xlink:href="cast_8h.html" target="_top" xlink:title=" ">
<polygon fill="none" stroke="black" points="944.5,-118 944.5,-137 1040.5,-137 1040.5,-118 944.5,-118"/>
<text text-anchor="middle" x="992.5" y="-125" font-family="Helvetica,sans-Serif" font-size="10.00">thorin/util/cast.h</text>
</a>
</g>
</g>
<!-- Node2&#45;&gt;Node31 -->
<g id="edge36" class="edge">
<title>Node2&#45;&gt;Node31</title>
<path fill="none" stroke="midnightblue" d="M777.03,-235.39C792.4,-221.87 823.99,-195.52 854.5,-179 885.57,-162.18 923.41,-148.78 951.6,-140.02"/>
<polygon fill="midnightblue" stroke="midnightblue" points="952.97,-143.26 961.52,-137 950.94,-136.56 952.97,-143.26"/>
</g>
<!-- Node32 -->
<g id="node32" class="node">
<title>Node32</title>
<g id="a_node32"><a xlink:href="container_8h.html" target="_top" xlink:title=" ">
<polygon fill="none" stroke="black" points="279,-179.5 279,-198.5 400,-198.5 400,-179.5 279,-179.5"/>
<text text-anchor="middle" x="339.5" y="-186.5" font-family="Helvetica,sans-Serif" font-size="10.00">thorin/util/container.h</text>
</a>
</g>
</g>
<!-- Node2&#45;&gt;Node32 -->
<g id="edge39" class="edge">
<title>Node2&#45;&gt;Node32</title>
<path fill="none" stroke="midnightblue" d="M731.38,-239.44C660.57,-230.51 502.42,-210.56 410.13,-198.91"/>
<polygon fill="midnightblue" stroke="midnightblue" points="410.4,-195.42 400.04,-197.64 409.52,-202.36 410.4,-195.42"/>
</g>
<!-- Node37 -->
<g id="node37" class="node">
<title>Node37</title>
<g id="a_node37"><a xlink:href="hash_8h.html" target="_top" xlink:title=" ">
<polygon fill="none" stroke="black" points="388,-118 388,-137 487,-137 487,-118 388,-118"/>
<text text-anchor="middle" x="437.5" y="-125" font-family="Helvetica,sans-Serif" font-size="10.00">thorin/util/hash.h</text>
</a>
</g>
</g>
<!-- Node2&#45;&gt;Node37 -->
<g id="edge48" class="edge">
<title>Node2&#45;&gt;Node37</title>
<path fill="none" stroke="midnightblue" d="M737.94,-235.47C710.65,-227.25 669.22,-213.9 634.5,-199 616.96,-191.47 614.11,-186.36 596.5,-179 558.04,-162.92 512.57,-148.96 480.13,-139.82"/>
<polygon fill="midnightblue" stroke="midnightblue" points="480.65,-136.33 470.08,-137.02 478.77,-143.07 480.65,-136.33"/>
</g>
<!-- Node6 -->
<g id="node6" class="node">
<title>Node6</title>
<g id="a_node6"><a xlink:title=" ">
<polygon fill="none" stroke="#bfbfbf" points="1289.5,-56.5 1289.5,-75.5 1333.5,-75.5 1333.5,-56.5 1289.5,-56.5"/>
<text text-anchor="middle" x="1311.5" y="-63.5" font-family="Helvetica,sans-Serif" font-size="10.00">string</text>
</a>
</g>
</g>
<!-- Node5&#45;&gt;Node6 -->
<g id="edge5" class="edge">
<title>Node5&#45;&gt;Node6</title>
<path fill="none" stroke="midnightblue" d="M731.3,-185.59C814.71,-180.5 993.09,-167.12 1049.5,-143 1069.54,-134.43 1067.73,-121.17 1087.5,-112 1163.79,-76.61 1193.45,-94.75 1279.32,-76.02"/>
<polygon fill="midnightblue" stroke="midnightblue" points="1280.25,-79.4 1289.22,-73.75 1278.69,-72.57 1280.25,-79.4"/>
</g>
<!-- Node7 -->
<g id="node7" class="node">
<title>Node7</title>
<g id="a_node7"><a xlink:title=" ">
<polygon fill="none" stroke="#bfbfbf" points="627.5,-112.5 627.5,-142.5 731.5,-142.5 731.5,-112.5 627.5,-112.5"/>
<text text-anchor="start" x="635.5" y="-130.5" font-family="Helvetica,sans-Serif" font-size="10.00">absl/container/flat</text>
<text text-anchor="middle" x="679.5" y="-119.5" font-family="Helvetica,sans-Serif" font-size="10.00">_hash_map.h</text>
</a>
</g>
</g>
<!-- Node5&#45;&gt;Node7 -->
<g id="edge6" class="edge">
<title>Node5&#45;&gt;Node7</title>
<path fill="none" stroke="midnightblue" d="M686.35,-179.48C685.41,-172.47 684.03,-162.19 682.75,-152.7"/>
<polygon fill="midnightblue" stroke="midnightblue" points="686.19,-151.97 681.39,-142.52 679.25,-152.9 686.19,-151.97"/>
</g>
<!-- Node8 -->
<g id="node8" class="node">
<title>Node8</title>
<g id="a_node8"><a xlink:title=" ">
<polygon fill="none" stroke="#bfbfbf" points="505.5,-112.5 505.5,-142.5 609.5,-142.5 609.5,-112.5 505.5,-112.5"/>
<text text-anchor="start" x="513.5" y="-130.5" font-family="Helvetica,sans-Serif" font-size="10.00">absl/container/flat</text>
<text text-anchor="middle" x="557.5" y="-119.5" font-family="Helvetica,sans-Serif" font-size="10.00">_hash_set.h</text>
</a>
</g>
</g>
<!-- Node5&#45;&gt;Node8 -->
<g id="edge7" class="edge">
<title>Node5&#45;&gt;Node8</title>
<path fill="none" stroke="midnightblue" d="M668.87,-179.48C650.28,-170.96 621.12,-157.62 597.3,-146.72"/>
<polygon fill="midnightblue" stroke="midnightblue" points="598.69,-143.5 588.14,-142.52 595.77,-149.87 598.69,-143.5"/>
</g>
<!-- Node10 -->
<g id="node10" class="node">
<title>Node10</title>
<g id="a_node10"><a xlink:title=" ">
<polygon fill="none" stroke="#bfbfbf" points="1213,-118 1213,-137 1286,-137 1286,-118 1213,-118"/>
<text text-anchor="middle" x="1249.5" y="-125" font-family="Helvetica,sans-Serif" font-size="10.00">string_view</text>
</a>
</g>
</g>
<!-- Node9&#45;&gt;Node10 -->
<g id="edge9" class="edge">
<title>Node9&#45;&gt;Node10</title>
<path fill="none" stroke="midnightblue" d="M951.04,-183.51C1009.11,-177.05 1114.89,-163.57 1203.5,-143 1207.34,-142.11 1211.32,-141.06 1215.26,-139.93"/>
<polygon fill="midnightblue" stroke="midnightblue" points="1216.3,-143.27 1224.87,-137.04 1214.28,-136.57 1216.3,-143.27"/>
</g>
<!-- Node9&#45;&gt;Node11 -->
<g id="edge10" class="edge">
<title>Node9&#45;&gt;Node11</title>
<path fill="none" stroke="midnightblue" d="M941.6,-179.48C983.75,-168.94 1055.55,-150.99 1101.73,-139.44"/>
<polygon fill="midnightblue" stroke="midnightblue" points="1102.61,-142.83 1111.46,-137.01 1100.91,-136.04 1102.61,-142.83"/>
</g>
<!-- Node18 -->
<g id="node18" class="node">
<title>Node18</title>
<g id="a_node18"><a xlink:href="types_8h.html" target="_top" xlink:title=" ">
<polygon fill="none" stroke="black" points="327,-56.5 327,-75.5 430,-75.5 430,-56.5 327,-56.5"/>
<text text-anchor="middle" x="378.5" y="-63.5" font-family="Helvetica,sans-Serif" font-size="10.00">thorin/util/types.h</text>
</a>
</g>
</g>
<!-- Node9&#45;&gt;Node18 -->
<g id="edge18" class="edge">
<title>Node9&#45;&gt;Node18</title>
<path fill="none" stroke="midnightblue" d="M890.34,-179.37C854.16,-161.31 770.87,-120.5 740.5,-112 613.51,-76.46 574.37,-93.16 440.43,-76.19"/>
<polygon fill="midnightblue" stroke="midnightblue" points="440.57,-72.68 430.2,-74.86 439.66,-79.62 440.57,-72.68"/>
</g>
<!-- Node11&#45;&gt;Node6 -->
<g id="edge15" class="edge">
<title>Node11&#45;&gt;Node6</title>
<path fill="none" stroke="midnightblue" d="M1169.28,-117.98C1198.37,-107.55 1247.7,-89.87 1279.94,-78.31"/>
<polygon fill="midnightblue" stroke="midnightblue" points="1281.12,-81.61 1289.35,-74.94 1278.76,-75.02 1281.12,-81.61"/>
</g>
<!-- Node12 -->
<g id="node12" class="node">
<title>Node12</title>
<g id="a_node12"><a xlink:title=" ">
<polygon fill="none" stroke="#bfbfbf" points="1211.5,-56.5 1211.5,-75.5 1271.5,-75.5 1271.5,-56.5 1211.5,-56.5"/>
<text text-anchor="middle" x="1241.5" y="-63.5" font-family="Helvetica,sans-Serif" font-size="10.00">iostream</text>
</a>
</g>
</g>
<!-- Node11&#45;&gt;Node12 -->
<g id="edge11" class="edge">
<title>Node11&#45;&gt;Node12</title>
<path fill="none" stroke="midnightblue" d="M1159.25,-117.98C1174.87,-108.3 1200.56,-92.37 1219.08,-80.89"/>
<polygon fill="midnightblue" stroke="midnightblue" points="1221.12,-83.75 1227.77,-75.51 1217.43,-77.8 1221.12,-83.75"/>
</g>
<!-- Node13 -->
<g id="node13" class="node">
<title>Node13</title>
<g id="a_node13"><a xlink:title=" ">
<polygon fill="none" stroke="#bfbfbf" points="832,-0.5 832,-19.5 889,-19.5 889,-0.5 832,-0.5"/>
<text text-anchor="middle" x="860.5" y="-7.5" font-family="Helvetica,sans-Serif" font-size="10.00">ostream</text>
</a>
</g>
</g>
<!-- Node11&#45;&gt;Node13 -->
<g id="edge12" class="edge">
<title>Node11&#45;&gt;Node13</title>
<path fill="none" stroke="midnightblue" d="M1145.92,-117.61C1146.12,-102.54 1144.14,-72.03 1126.5,-56 1093.83,-26.31 965.04,-15.95 899.41,-12.54"/>
<polygon fill="midnightblue" stroke="midnightblue" points="899.22,-9.03 889.06,-12.04 898.88,-16.02 899.22,-9.03"/>
</g>
<!-- Node14 -->
<g id="node14" class="node">
<title>Node14</title>
<g id="a_node14"><a xlink:title=" ">
<polygon fill="none" stroke="#bfbfbf" points="1067.5,-56.5 1067.5,-75.5 1117.5,-75.5 1117.5,-56.5 1067.5,-56.5"/>
<text text-anchor="middle" x="1092.5" y="-63.5" font-family="Helvetica,sans-Serif" font-size="10.00">ranges</text>
</a>
</g>
</g>
<!-- Node11&#45;&gt;Node14 -->
<g id="edge13" class="edge">
<title>Node11&#45;&gt;Node14</title>
<path fill="none" stroke="midnightblue" d="M1137.91,-117.98C1129.8,-108.87 1116.77,-94.24 1106.74,-82.98"/>
<polygon fill="midnightblue" stroke="midnightblue" points="1109.34,-80.65 1100.08,-75.51 1104.12,-85.3 1109.34,-80.65"/>
</g>
<!-- Node15 -->
<g id="node15" class="node">
<title>Node15</title>
<g id="a_node15"><a xlink:title=" ">
<polygon fill="none" stroke="#bfbfbf" points="1475.5,-56.5 1475.5,-75.5 1531.5,-75.5 1531.5,-56.5 1475.5,-56.5"/>
<text text-anchor="middle" x="1503.5" y="-63.5" font-family="Helvetica,sans-Serif" font-size="10.00">sstream</text>
</a>
</g>
</g>
<!-- Node11&#45;&gt;Node15 -->
<g id="edge14" class="edge">
<title>Node11&#45;&gt;Node15</title>
<path fill="none" stroke="midnightblue" d="M1177.52,-117.99C1186.23,-115.85 1195.69,-113.68 1204.5,-112 1316.79,-90.55 1349.26,-97.51 1465.3,-76.06"/>
<polygon fill="midnightblue" stroke="midnightblue" points="1466.1,-79.47 1475.28,-74.18 1464.81,-72.59 1466.1,-79.47"/>
</g>
<!-- Node16 -->
<g id="node16" class="node">
<title>Node16</title>
<g id="a_node16"><a xlink:href="assert_8h.html" target="_top" xlink:title=" ">
<polygon fill="none" stroke="black" points="1351.5,-56.5 1351.5,-75.5 1457.5,-75.5 1457.5,-56.5 1351.5,-56.5"/>
<text text-anchor="middle" x="1404.5" y="-63.5" font-family="Helvetica,sans-Serif" font-size="10.00">thorin/util/assert.h</text>
</a>
</g>
</g>
<!-- Node11&#45;&gt;Node16 -->
<g id="edge16" class="edge">
<title>Node11&#45;&gt;Node16</title>
<path fill="none" stroke="midnightblue" d="M1179.79,-117.95C1187.89,-115.97 1196.49,-113.88 1204.5,-112 1255.92,-99.9 1314.94,-86.7 1355.47,-77.75"/>
<polygon fill="midnightblue" stroke="midnightblue" points="1356.35,-81.14 1365.36,-75.57 1354.84,-74.3 1356.35,-81.14"/>
</g>
<!-- Node17 -->
<g id="node17" class="node">
<title>Node17</title>
<g id="a_node17"><a xlink:title=" ">
<polygon fill="none" stroke="#bfbfbf" points="1157.5,-0.5 1157.5,-19.5 1209.5,-19.5 1209.5,-0.5 1157.5,-0.5"/>
<text text-anchor="middle" x="1183.5" y="-7.5" font-family="Helvetica,sans-Serif" font-size="10.00">cassert</text>
</a>
</g>
</g>
<!-- Node16&#45;&gt;Node17 -->
<g id="edge17" class="edge">
<title>Node16&#45;&gt;Node17</title>
<path fill="none" stroke="midnightblue" d="M1369.48,-56.44C1328.53,-46.44 1261.08,-29.96 1219.64,-19.83"/>
<polygon fill="midnightblue" stroke="midnightblue" points="1220.25,-16.38 1209.7,-17.4 1218.59,-23.18 1220.25,-16.38"/>
</g>
<!-- Node18&#45;&gt;Node13 -->
<g id="edge21" class="edge">
<title>Node18&#45;&gt;Node13</title>
<path fill="none" stroke="midnightblue" d="M430.19,-57.1C433,-56.72 435.78,-56.35 438.5,-56 579.2,-37.95 746.96,-21.6 821.49,-14.6"/>
<polygon fill="midnightblue" stroke="midnightblue" points="822.17,-18.05 831.8,-13.63 821.51,-11.08 822.17,-18.05"/>
</g>
<!-- Node19 -->
<g id="node19" class="node">
<title>Node19</title>
<g id="a_node19"><a xlink:title=" ">
<polygon fill="none" stroke="#bfbfbf" points="221.5,-0.5 221.5,-19.5 271.5,-19.5 271.5,-0.5 221.5,-0.5"/>
<text text-anchor="middle" x="246.5" y="-7.5" font-family="Helvetica,sans-Serif" font-size="10.00">cstdint</text>
</a>
</g>
</g>
<!-- Node18&#45;&gt;Node19 -->
<g id="edge19" class="edge">
<title>Node18&#45;&gt;Node19</title>
<path fill="none" stroke="midnightblue" d="M357.58,-56.44C335.76,-47.52 301.35,-33.44 276.61,-23.32"/>
<polygon fill="midnightblue" stroke="midnightblue" points="277.9,-20.06 267.32,-19.52 275.25,-26.54 277.9,-20.06"/>
</g>
<!-- Node20 -->
<g id="node20" class="node">
<title>Node20</title>
<g id="a_node20"><a xlink:title=" ">
<polygon fill="none" stroke="#bfbfbf" points="289.5,-0.5 289.5,-19.5 333.5,-19.5 333.5,-0.5 289.5,-0.5"/>
<text text-anchor="middle" x="311.5" y="-7.5" font-family="Helvetica,sans-Serif" font-size="10.00">limits</text>
</a>
</g>
</g>
<!-- Node18&#45;&gt;Node20 -->
<g id="edge20" class="edge">
<title>Node18&#45;&gt;Node20</title>
<path fill="none" stroke="midnightblue" d="M367.74,-56.32C357.73,-48.26 342.61,-36.08 330.57,-26.37"/>
<polygon fill="midnightblue" stroke="midnightblue" points="332.44,-23.38 322.46,-19.83 328.05,-28.83 332.44,-23.38"/>
</g>
<!-- Node21 -->
<g id="node21" class="node">
<title>Node21</title>
<g id="a_node21"><a xlink:title=" ">
<polygon fill="none" stroke="#bfbfbf" points="492,-0.5 492,-19.5 561,-19.5 561,-0.5 492,-0.5"/>
<text text-anchor="middle" x="526.5" y="-7.5" font-family="Helvetica,sans-Serif" font-size="10.00">type_traits</text>
</a>
</g>
</g>
<!-- Node18&#45;&gt;Node21 -->
<g id="edge22" class="edge">
<title>Node18&#45;&gt;Node21</title>
<path fill="none" stroke="midnightblue" d="M401.95,-56.44C426.63,-47.44 465.69,-33.19 493.48,-23.05"/>
<polygon fill="midnightblue" stroke="midnightblue" points="494.96,-26.23 503.16,-19.52 492.56,-19.66 494.96,-26.23"/>
</g>
<!-- Node22 -->
<g id="node22" class="node">
<title>Node22</title>
<g id="a_node22"><a xlink:title=" ">
<polygon fill="none" stroke="#bfbfbf" points="352,-0.5 352,-19.5 399,-19.5 399,-0.5 352,-0.5"/>
<text text-anchor="middle" x="375.5" y="-7.5" font-family="Helvetica,sans-Serif" font-size="10.00">cmath</text>
</a>
</g>
</g>
<!-- Node18&#45;&gt;Node22 -->
<g id="edge23" class="edge">
<title>Node18&#45;&gt;Node22</title>
<path fill="none" stroke="midnightblue" d="M378,-56.08C377.61,-49.01 377.05,-38.86 376.55,-29.99"/>
<polygon fill="midnightblue" stroke="midnightblue" points="380.04,-29.54 375.99,-19.75 373.05,-29.93 380.04,-29.54"/>
</g>
<!-- Node23 -->
<g id="node23" class="node">
<title>Node23</title>
<g id="a_node23"><a xlink:title=" ">
<polygon fill="none" stroke="#bfbfbf" points="417.5,-0.5 417.5,-19.5 473.5,-19.5 473.5,-0.5 417.5,-0.5"/>
<text text-anchor="middle" x="445.5" y="-7.5" font-family="Helvetica,sans-Serif" font-size="10.00">half.hpp</text>
</a>
</g>
</g>
<!-- Node18&#45;&gt;Node23 -->
<g id="edge24" class="edge">
<title>Node18&#45;&gt;Node23</title>
<path fill="none" stroke="midnightblue" d="M389.26,-56.32C399.27,-48.26 414.39,-36.08 426.43,-26.37"/>
<polygon fill="midnightblue" stroke="midnightblue" points="428.95,-28.83 434.54,-19.83 424.56,-23.38 428.95,-28.83"/>
</g>
<!-- Node24&#45;&gt;Node4 -->
<g id="edge35" class="edge">
<title>Node24&#45;&gt;Node4</title>
<path fill="none" stroke="midnightblue" d="M840.76,-117.94C831.3,-115.8 821.04,-113.65 811.5,-112 678.29,-89.03 642.59,-99.61 509.5,-76 508.04,-75.74 506.55,-75.46 505.05,-75.16"/>
<polygon fill="midnightblue" stroke="midnightblue" points="505.64,-71.71 495.13,-73.04 504.17,-78.56 505.64,-71.71"/>
</g>
<!-- Node24&#45;&gt;Node14 -->
<g id="edge33" class="edge">
<title>Node24&#45;&gt;Node14</title>
<path fill="none" stroke="midnightblue" d="M906.59,-117.98C946.54,-107.02 1015.71,-88.06 1057.47,-76.6"/>
<polygon fill="midnightblue" stroke="midnightblue" points="1058.5,-79.95 1067.21,-73.93 1056.64,-73.2 1058.5,-79.95"/>
</g>
<!-- Node24&#45;&gt;Node17 -->
<g id="edge26" class="edge">
<title>Node24&#45;&gt;Node17</title>
<path fill="none" stroke="midnightblue" d="M888.38,-117.88C913.71,-101.04 969.38,-64.67 990.5,-56 1042.95,-34.47 1107.84,-22.01 1147.42,-15.87"/>
<polygon fill="midnightblue" stroke="midnightblue" points="1148.03,-19.32 1157.4,-14.37 1146.99,-12.39 1148.03,-19.32"/>
</g>
<!-- Node24&#45;&gt;Node21 -->
<g id="edge34" class="edge">
<title>Node24&#45;&gt;Node21</title>
<path fill="none" stroke="midnightblue" d="M840.41,-117.95C831.05,-115.84 820.92,-113.69 811.5,-112 752.14,-101.33 587.39,-116.28 542.5,-76 529.68,-64.5 526.34,-44.52 525.8,-29.75"/>
<polygon fill="midnightblue" stroke="midnightblue" points="529.3,-29.69 525.83,-19.68 522.3,-29.68 529.3,-29.69"/>
</g>
<!-- Node25 -->
<g id="node25" class="node">
<title>Node25</title>
<g id="a_node25"><a xlink:title=" ">
<polygon fill="none" stroke="#bfbfbf" points="724,-56.5 724,-75.5 777,-75.5 777,-56.5 724,-56.5"/>
<text text-anchor="middle" x="750.5" y="-63.5" font-family="Helvetica,sans-Serif" font-size="10.00">cstddef</text>
</a>
</g>
</g>
<!-- Node24&#45;&gt;Node25 -->
<g id="edge27" class="edge">
<title>Node24&#45;&gt;Node25</title>
<path fill="none" stroke="midnightblue" d="M857.59,-117.98C836.61,-107.99 801.65,-91.35 777.41,-79.81"/>
<polygon fill="midnightblue" stroke="midnightblue" points="778.91,-76.65 768.38,-75.51 775.9,-82.97 778.91,-76.65"/>
</g>
<!-- Node26 -->
<g id="node26" class="node">
<title>Node26</title>
<g id="a_node26"><a xlink:title=" ">
<polygon fill="none" stroke="#bfbfbf" points="999.5,-56.5 999.5,-75.5 1049.5,-75.5 1049.5,-56.5 999.5,-56.5"/>
<text text-anchor="middle" x="1024.5" y="-63.5" font-family="Helvetica,sans-Serif" font-size="10.00">cstring</text>
</a>
</g>
</g>
<!-- Node24&#45;&gt;Node26 -->
<g id="edge28" class="edge">
<title>Node24&#45;&gt;Node26</title>
<path fill="none" stroke="midnightblue" d="M896.85,-117.98C922.19,-107.86 964.64,-90.9 993.57,-79.35"/>
<polygon fill="midnightblue" stroke="midnightblue" points="995.2,-82.47 1003.19,-75.51 992.61,-75.97 995.2,-82.47"/>
</g>
<!-- Node27 -->
<g id="node27" class="node">
<title>Node27</title>
<g id="a_node27"><a xlink:title=" ">
<polygon fill="none" stroke="#bfbfbf" points="795.5,-56.5 795.5,-75.5 859.5,-75.5 859.5,-56.5 795.5,-56.5"/>
<text text-anchor="middle" x="827.5" y="-63.5" font-family="Helvetica,sans-Serif" font-size="10.00">algorithm</text>
</a>
</g>
</g>
<!-- Node24&#45;&gt;Node27 -->
<g id="edge29" class="edge">
<title>Node24&#45;&gt;Node27</title>
<path fill="none" stroke="midnightblue" d="M868.62,-117.98C861.35,-108.96 849.7,-94.52 840.66,-83.31"/>
<polygon fill="midnightblue" stroke="midnightblue" points="843.37,-81.09 834.36,-75.51 837.92,-85.49 843.37,-81.09"/>
</g>
<!-- Node28 -->
<g id="node28" class="node">
<title>Node28</title>
<g id="a_node28"><a xlink:title=" ">
<polygon fill="none" stroke="#bfbfbf" points="878,-56.5 878,-75.5 943,-75.5 943,-56.5 878,-56.5"/>
<text text-anchor="middle" x="910.5" y="-63.5" font-family="Helvetica,sans-Serif" font-size="10.00">functional</text>
</a>
</g>
</g>
<!-- Node24&#45;&gt;Node28 -->
<g id="edge30" class="edge">
<title>Node24&#45;&gt;Node28</title>
<path fill="none" stroke="midnightblue" d="M880.51,-117.98C885.66,-109.23 893.81,-95.37 900.32,-84.31"/>
<polygon fill="midnightblue" stroke="midnightblue" points="903.44,-85.9 905.49,-75.51 897.41,-82.35 903.44,-85.9"/>
</g>
<!-- Node29 -->
<g id="node29" class="node">
<title>Node29</title>
<g id="a_node29"><a xlink:title=" ">
<polygon fill="none" stroke="#bfbfbf" points="552,-56.5 552,-75.5 635,-75.5 635,-56.5 552,-56.5"/>
<text text-anchor="middle" x="593.5" y="-63.5" font-family="Helvetica,sans-Serif" font-size="10.00">initializer_list</text>
</a>
</g>
</g>
<!-- Node24&#45;&gt;Node29 -->
<g id="edge31" class="edge">
<title>Node24&#45;&gt;Node29</title>
<path fill="none" stroke="midnightblue" d="M838.3,-117.94C829.52,-115.96 820.19,-113.88 811.5,-112 754.73,-99.71 689.48,-86.34 645.28,-77.4"/>
<polygon fill="midnightblue" stroke="midnightblue" points="645.84,-73.94 635.34,-75.39 644.45,-80.8 645.84,-73.94"/>
</g>
<!-- Node30 -->
<g id="node30" class="node">
<title>Node30</title>
<g id="a_node30"><a xlink:title=" ">
<polygon fill="none" stroke="#bfbfbf" points="653,-56.5 653,-75.5 706,-75.5 706,-56.5 653,-56.5"/>
<text text-anchor="middle" x="679.5" y="-63.5" font-family="Helvetica,sans-Serif" font-size="10.00">iterator</text>
</a>
</g>
</g>
<!-- Node24&#45;&gt;Node30 -->
<g id="edge32" class="edge">
<title>Node24&#45;&gt;Node30</title>
<path fill="none" stroke="midnightblue" d="M847.42,-117.98C812.83,-107.47 753.98,-89.61 715.94,-78.06"/>
<polygon fill="midnightblue" stroke="midnightblue" points="716.86,-74.68 706.27,-75.13 714.82,-81.38 716.86,-74.68"/>
</g>
<!-- Node31&#45;&gt;Node17 -->
<g id="edge37" class="edge">
<title>Node31&#45;&gt;Node17</title>
<path fill="none" stroke="midnightblue" d="M1028.93,-117.99C1057.27,-110.18 1096.66,-96.66 1126.5,-76 1145.12,-63.1 1161.6,-42.82 1171.99,-28.34"/>
<polygon fill="midnightblue" stroke="midnightblue" points="1175.09,-30.02 1177.9,-19.8 1169.33,-26.03 1175.09,-30.02"/>
</g>
<!-- Node31&#45;&gt;Node26 -->
<g id="edge38" class="edge">
<title>Node31&#45;&gt;Node26</title>
<path fill="none" stroke="midnightblue" d="M997.08,-117.98C1001.74,-109.32 1009.09,-95.65 1015.01,-84.65"/>
<polygon fill="midnightblue" stroke="midnightblue" points="1018.27,-85.97 1019.92,-75.51 1012.1,-82.66 1018.27,-85.97"/>
</g>
<!-- Node32&#45;&gt;Node7 -->
<g id="edge42" class="edge">
<title>Node32&#45;&gt;Node7</title>
<path fill="none" stroke="midnightblue" d="M400.14,-179.53C454.6,-171.63 536.94,-158.95 617.5,-143.12"/>
<polygon fill="midnightblue" stroke="midnightblue" points="618.18,-146.55 627.31,-141.17 616.82,-139.68 618.18,-146.55"/>
</g>
<!-- Node32&#45;&gt;Node8 -->
<g id="edge43" class="edge">
<title>Node32&#45;&gt;Node8</title>
<path fill="none" stroke="midnightblue" d="M370.73,-179.48C403.36,-170.57 455.39,-156.37 496.26,-145.22"/>
<polygon fill="midnightblue" stroke="midnightblue" points="497.4,-148.53 506.12,-142.52 495.55,-141.78 497.4,-148.53"/>
</g>
<!-- Node33 -->
<g id="node33" class="node">
<title>Node33</title>
<g id="a_node33"><a xlink:title=" ">
<polygon fill="none" stroke="#bfbfbf" points="0,-118 0,-137 47,-137 47,-118 0,-118"/>
<text text-anchor="middle" x="23.5" y="-125" font-family="Helvetica,sans-Serif" font-size="10.00">queue</text>
</a>
</g>
</g>
<!-- Node32&#45;&gt;Node33 -->
<g id="edge40" class="edge">
<title>Node32&#45;&gt;Node33</title>
<path fill="none" stroke="midnightblue" d="M278.89,-183.14C220.67,-177.37 130.69,-165.54 55.5,-143 53.57,-142.42 51.61,-141.75 49.65,-141.02"/>
<polygon fill="midnightblue" stroke="midnightblue" points="50.69,-137.66 40.11,-137.05 48,-144.12 50.69,-137.66"/>
</g>
<!-- Node34 -->
<g id="node34" class="node">
<title>Node34</title>
<g id="a_node34"><a xlink:title=" ">
<polygon fill="none" stroke="#bfbfbf" points="65,-118 65,-137 108,-137 108,-118 65,-118"/>
<text text-anchor="middle" x="86.5" y="-125" font-family="Helvetica,sans-Serif" font-size="10.00">stack</text>
</a>
</g>
</g>
<!-- Node32&#45;&gt;Node34 -->
<g id="edge41" class="edge">
<title>Node32&#45;&gt;Node34</title>
<path fill="none" stroke="midnightblue" d="M278.8,-179.97C233.34,-172.95 170.03,-161.02 116.5,-143 114.88,-142.45 113.23,-141.84 111.59,-141.18"/>
<polygon fill="midnightblue" stroke="midnightblue" points="112.94,-137.95 102.38,-137.09 110.1,-144.35 112.94,-137.95"/>
</g>
<!-- Node35 -->
<g id="node35" class="node">
<title>Node35</title>
<g id="a_node35"><a xlink:title=" ">
<polygon fill="none" stroke="#bfbfbf" points="126,-112.5 126,-142.5 239,-142.5 239,-112.5 126,-112.5"/>
<text text-anchor="start" x="134" y="-130.5" font-family="Helvetica,sans-Serif" font-size="10.00">absl/container/node</text>
<text text-anchor="middle" x="182.5" y="-119.5" font-family="Helvetica,sans-Serif" font-size="10.00">_hash_map.h</text>
</a>
</g>
</g>
<!-- Node32&#45;&gt;Node35 -->
<g id="edge44" class="edge">
<title>Node32&#45;&gt;Node35</title>
<path fill="none" stroke="midnightblue" d="M317.01,-179.48C294.15,-170.81 258.09,-157.15 229.05,-146.14"/>
<polygon fill="midnightblue" stroke="midnightblue" points="230.09,-142.79 219.5,-142.52 227.61,-149.34 230.09,-142.79"/>
</g>
<!-- Node36 -->
<g id="node36" class="node">
<title>Node36</title>
<g id="a_node36"><a xlink:title=" ">
<polygon fill="none" stroke="#bfbfbf" points="257,-112.5 257,-142.5 370,-142.5 370,-112.5 257,-112.5"/>
<text text-anchor="start" x="265" y="-130.5" font-family="Helvetica,sans-Serif" font-size="10.00">absl/container/node</text>
<text text-anchor="middle" x="313.5" y="-119.5" font-family="Helvetica,sans-Serif" font-size="10.00">_hash_set.h</text>
</a>
</g>
</g>
<!-- Node32&#45;&gt;Node36 -->
<g id="edge45" class="edge">
<title>Node32&#45;&gt;Node36</title>
<path fill="none" stroke="midnightblue" d="M335.77,-179.48C332.62,-172.25 327.93,-161.53 323.67,-151.78"/>
<polygon fill="midnightblue" stroke="midnightblue" points="326.84,-150.28 319.63,-142.52 320.42,-153.09 326.84,-150.28"/>
</g>
<!-- Node32&#45;&gt;Node37 -->
<g id="edge46" class="edge">
<title>Node32&#45;&gt;Node37</title>
<path fill="none" stroke="midnightblue" d="M353.54,-179.48C369.55,-169.75 395.95,-153.73 414.87,-142.24"/>
<polygon fill="midnightblue" stroke="midnightblue" points="416.75,-145.19 423.49,-137.01 413.12,-139.21 416.75,-145.19"/>
</g>
<!-- Node37&#45;&gt;Node18 -->
<g id="edge47" class="edge">
<title>Node37&#45;&gt;Node18</title>
<path fill="none" stroke="midnightblue" d="M429.05,-117.98C419.93,-108.78 405.23,-93.96 394.02,-82.66"/>
<polygon fill="midnightblue" stroke="midnightblue" points="396.46,-80.15 386.94,-75.51 391.49,-85.07 396.46,-80.15"/>
</g>
<!-- Node38&#45;&gt;Node5 -->
<g id="edge62" class="edge">
<title>Node38&#45;&gt;Node5</title>
<path fill="none" stroke="midnightblue" d="M930.46,-417.44C872.04,-407.33 767.53,-380.17 714.5,-311 691.33,-280.78 687.29,-234.55 687.01,-208.86"/>
<polygon fill="midnightblue" stroke="midnightblue" points="690.51,-208.66 687.08,-198.64 683.51,-208.61 690.51,-208.66"/>
</g>
<!-- Node38&#45;&gt;Node6 -->
<g id="edge52" class="edge">
<title>Node38&#45;&gt;Node6</title>
<path fill="none" stroke="midnightblue" d="M1014.82,-422.33C1128.74,-420.08 1435.37,-411.01 1465.5,-378 1552.05,-283.19 1387.86,-130.77 1330.35,-82.31"/>
<polygon fill="midnightblue" stroke="midnightblue" points="1332.31,-79.39 1322.38,-75.69 1327.84,-84.77 1332.31,-79.39"/>
</g>
<!-- Node38&#45;&gt;Node10 -->
<g id="edge53" class="edge">
<title>Node38&#45;&gt;Node10</title>
<path fill="none" stroke="midnightblue" d="M972.18,-414.27C972.1,-398.75 974.17,-366.17 991.5,-347 1023.18,-311.96 1052.55,-337.73 1091.5,-311 1159.41,-264.4 1216.17,-181.8 1238.87,-145.93"/>
<polygon fill="midnightblue" stroke="midnightblue" points="1242.04,-147.46 1244.36,-137.12 1236.1,-143.76 1242.04,-147.46"/>
</g>
<!-- Node38&#45;&gt;Node15 -->
<g id="edge51" class="edge">
<title>Node38&#45;&gt;Node15</title>
<path fill="none" stroke="midnightblue" d="M1014.84,-421.75C1131.28,-417.97 1450.27,-405.21 1488.5,-378 1518.65,-356.54 1522.5,-339 1522.5,-302 1522.5,-302 1522.5,-302 1522.5,-188 1522.5,-151.29 1513.86,-109.06 1508.23,-85.45"/>
<polygon fill="midnightblue" stroke="midnightblue" points="1511.63,-84.6 1505.83,-75.73 1504.83,-86.28 1511.63,-84.6"/>
</g>
<!-- Node38&#45;&gt;Node37 -->
<g id="edge72" class="edge">
<title>Node38&#45;&gt;Node37</title>
<path fill="none" stroke="midnightblue" d="M930.38,-421.66C810.92,-416.74 478.5,-394.71 478.5,-302 478.5,-302 478.5,-302 478.5,-244 478.5,-207.47 460.06,-167.98 447.91,-145.94"/>
<polygon fill="midnightblue" stroke="midnightblue" points="450.86,-144.05 442.86,-137.11 444.79,-147.53 450.86,-144.05"/>
</g>
<!-- Node39 -->
<g id="node39" class="node">
<title>Node39</title>
<g id="a_node39"><a xlink:title=" ">
<polygon fill="none" stroke="#bfbfbf" points="1106.5,-347.5 1106.5,-377.5 1220.5,-377.5 1220.5,-347.5 1106.5,-347.5"/>
<text text-anchor="start" x="1114.5" y="-365.5" font-family="Helvetica,sans-Serif" font-size="10.00">absl/container/btree</text>
<text text-anchor="middle" x="1163.5" y="-354.5" font-family="Helvetica,sans-Serif" font-size="10.00">_map.h</text>
</a>
</g>
</g>
<!-- Node38&#45;&gt;Node39 -->
<g id="edge54" class="edge">
<title>Node38&#45;&gt;Node39</title>
<path fill="none" stroke="midnightblue" d="M999.87,-414.48C1028.15,-405.66 1073.08,-391.67 1108.7,-380.57"/>
<polygon fill="midnightblue" stroke="midnightblue" points="1109.98,-383.84 1118.49,-377.52 1107.9,-377.16 1109.98,-383.84"/>
</g>
<!-- Node40 -->
<g id="node40" class="node">
<title>Node40</title>
<g id="a_node40"><a xlink:title=" ">
<polygon fill="none" stroke="#bfbfbf" points="1238.5,-347.5 1238.5,-377.5 1352.5,-377.5 1352.5,-347.5 1238.5,-347.5"/>
<text text-anchor="start" x="1246.5" y="-365.5" font-family="Helvetica,sans-Serif" font-size="10.00">absl/container/btree</text>
<text text-anchor="middle" x="1295.5" y="-354.5" font-family="Helvetica,sans-Serif" font-size="10.00">_set.h</text>
</a>
</g>
</g>
<!-- Node38&#45;&gt;Node40 -->
<g id="edge55" class="edge">
<title>Node38&#45;&gt;Node40</title>
<path fill="none" stroke="midnightblue" d="M1014.9,-416.15C1063.94,-408.1 1147.34,-394.02 1228.42,-378.17"/>
<polygon fill="midnightblue" stroke="midnightblue" points="1229.16,-381.59 1238.29,-376.23 1227.81,-374.72 1229.16,-381.59"/>
</g>
<!-- Node41 -->
<g id="node41" class="node">
<title>Node41</title>
<g id="a_node41"><a xlink:href="axiom_8h.html" target="_top" xlink:title=" ">
<polygon fill="none" stroke="black" points="1000.5,-353 1000.5,-372 1088.5,-372 1088.5,-353 1000.5,-353"/>
<text text-anchor="middle" x="1044.5" y="-360" font-family="Helvetica,sans-Serif" font-size="10.00">thorin/axiom.h</text>
</a>
</g>
</g>
<!-- Node38&#45;&gt;Node41 -->
<g id="edge56" class="edge">
<title>Node38&#45;&gt;Node41</title>
<path fill="none" stroke="midnightblue" d="M982.82,-414.48C994.15,-405.11 1012.57,-389.88 1026.34,-378.51"/>
<polygon fill="midnightblue" stroke="midnightblue" points="1028.72,-381.08 1034.2,-372.01 1024.27,-375.68 1028.72,-381.08"/>
</g>
<!-- Node44 -->
<g id="node44" class="node">
<title>Node44</title>
<g id="a_node44"><a xlink:title=" ">
<polygon fill="none" stroke="#bfbfbf" points="1370.5,-353 1370.5,-372 1456.5,-372 1456.5,-353 1370.5,-353"/>
<text text-anchor="middle" x="1413.5" y="-360" font-family="Helvetica,sans-Serif" font-size="10.00">thorin/config.h</text>
</a>
</g>
</g>
<!-- Node38&#45;&gt;Node44 -->
<g id="edge61" class="edge">
<title>Node38&#45;&gt;Node44</title>
<path fill="none" stroke="midnightblue" d="M1014.57,-420.3C1086.28,-415.23 1236.58,-402.49 1361.5,-378 1366.25,-377.07 1371.2,-375.92 1376.08,-374.69"/>
<polygon fill="midnightblue" stroke="midnightblue" points="1377.14,-378.03 1385.9,-372.06 1375.33,-371.26 1377.14,-378.03"/>
</g>
<!-- Node45 -->
<g id="node45" class="node">
<title>Node45</title>
<g id="a_node45"><a xlink:href="error_8h.html" target="_top" xlink:title=" ">
<polygon fill="none" stroke="black" points="936.5,-235.5 936.5,-254.5 1016.5,-254.5 1016.5,-235.5 936.5,-235.5"/>
<text text-anchor="middle" x="976.5" y="-242.5" font-family="Helvetica,sans-Serif" font-size="10.00">thorin/error.h</text>
</a>
</g>
</g>
<!-- Node38&#45;&gt;Node45 -->
<g id="edge63" class="edge">
<title>Node38&#45;&gt;Node45</title>
<path fill="none" stroke="midnightblue" d="M968.9,-414.22C965.44,-405.28 960.47,-390.94 958.5,-378 952.36,-337.57 963.29,-290.01 970.64,-264.46"/>
<polygon fill="midnightblue" stroke="midnightblue" points="974.06,-265.25 973.6,-254.66 967.36,-263.22 974.06,-265.25"/>
</g>
<!-- Node47 -->
<g id="node47" class="node">
<title>Node47</title>
<g id="a_node47"><a xlink:href="lattice_8h.html" target="_top" xlink:title=" ">
<polygon fill="none" stroke="black" points="723.5,-291.5 723.5,-310.5 811.5,-310.5 811.5,-291.5 723.5,-291.5"/>
<text text-anchor="middle" x="767.5" y="-298.5" font-family="Helvetica,sans-Serif" font-size="10.00">thorin/lattice.h</text>
</a>
</g>
</g>
<!-- Node38&#45;&gt;Node47 -->
<g id="edge68" class="edge">
<title>Node38&#45;&gt;Node47</title>
<path fill="none" stroke="midnightblue" d="M957.51,-414.44C941.77,-405.44 916.34,-390.83 894.5,-378 857.96,-356.53 815.79,-331.18 790.41,-315.86"/>
<polygon fill="midnightblue" stroke="midnightblue" points="791.92,-312.68 781.55,-310.51 788.3,-318.67 791.92,-312.68"/>
</g>
<!-- Node48 -->
<g id="node48" class="node">
<title>Node48</title>
<g id="a_node48"><a xlink:href="tuple_8h.html" target="_top" xlink:title=" ">
<polygon fill="none" stroke="black" points="829.5,-291.5 829.5,-310.5 911.5,-310.5 911.5,-291.5 829.5,-291.5"/>
<text text-anchor="middle" x="870.5" y="-298.5" font-family="Helvetica,sans-Serif" font-size="10.00">thorin/tuple.h</text>
</a>
</g>
</g>
<!-- Node38&#45;&gt;Node48 -->
<g id="edge70" class="edge">
<title>Node38&#45;&gt;Node48</title>
<path fill="none" stroke="midnightblue" d="M960.51,-414.18C949.4,-405.65 932.78,-392.01 920.5,-378 904.29,-359.51 889.31,-335.4 880.05,-319.34"/>
<polygon fill="midnightblue" stroke="midnightblue" points="883.03,-317.5 875.07,-310.51 876.93,-320.94 883.03,-317.5"/>
</g>
<!-- Node41&#45;&gt;Node16 -->
<g id="edge60" class="edge">
<title>Node41&#45;&gt;Node16</title>
<path fill="none" stroke="midnightblue" d="M1073.98,-352.95C1160.64,-327.71 1408.5,-254.75 1408.5,-246 1408.5,-246 1408.5,-246 1408.5,-188 1408.5,-151.69 1406.68,-109.29 1405.49,-85.55"/>
<polygon fill="midnightblue" stroke="midnightblue" points="1408.99,-85.31 1404.97,-75.51 1402,-85.67 1408.99,-85.31"/>
</g>
<!-- Node42 -->
<g id="node42" class="node">
<title>Node42</title>
<g id="a_node42"><a xlink:href="lam_8h.html" target="_top" xlink:title=" ">
<polygon fill="none" stroke="black" points="1006.5,-291.5 1006.5,-310.5 1082.5,-310.5 1082.5,-291.5 1006.5,-291.5"/>
<text text-anchor="middle" x="1044.5" y="-298.5" font-family="Helvetica,sans-Serif" font-size="10.00">thorin/lam.h</text>
</a>
</g>
</g>
<!-- Node41&#45;&gt;Node42 -->
<g id="edge57" class="edge">
<title>Node41&#45;&gt;Node42</title>
<path fill="none" stroke="midnightblue" d="M1044.5,-352.98C1044.5,-344.58 1044.5,-331.48 1044.5,-320.66"/>
<polygon fill="midnightblue" stroke="midnightblue" points="1048,-320.51 1044.5,-310.51 1041,-320.51 1048,-320.51"/>
</g>
<!-- Node42&#45;&gt;Node2 -->
<g id="edge59" class="edge">
<title>Node42&#45;&gt;Node2</title>
<path fill="none" stroke="midnightblue" d="M1006.28,-292.55C955.94,-282.74 867.52,-265.5 813.56,-254.98"/>
<polygon fill="midnightblue" stroke="midnightblue" points="814.06,-251.51 803.57,-253.03 812.72,-258.38 814.06,-251.51"/>
</g>
<!-- Node43 -->
<g id="node43" class="node">
<title>Node43</title>
<g id="a_node43"><a xlink:title=" ">
<polygon fill="none" stroke="#bfbfbf" points="1035,-235.5 1035,-254.5 1086,-254.5 1086,-235.5 1035,-235.5"/>
<text text-anchor="middle" x="1060.5" y="-242.5" font-family="Helvetica,sans-Serif" font-size="10.00">variant</text>
</a>
</g>
</g>
<!-- Node42&#45;&gt;Node43 -->
<g id="edge58" class="edge">
<title>Node42&#45;&gt;Node43</title>
<path fill="none" stroke="midnightblue" d="M1047.14,-291.08C1049.29,-283.85 1052.38,-273.41 1055.05,-264.4"/>
<polygon fill="midnightblue" stroke="midnightblue" points="1058.42,-265.33 1057.91,-254.75 1051.71,-263.34 1058.42,-265.33"/>
</g>
<!-- Node45&#45;&gt;Node5 -->
<g id="edge66" class="edge">
<title>Node45&#45;&gt;Node5</title>
<path fill="none" stroke="midnightblue" d="M936.32,-236.49C885.5,-227 797.85,-210.62 741.3,-200.05"/>
<polygon fill="midnightblue" stroke="midnightblue" points="741.59,-196.55 731.12,-198.15 740.31,-203.43 741.59,-196.55"/>
</g>
<!-- Node45&#45;&gt;Node11 -->
<g id="edge67" class="edge">
<title>Node45&#45;&gt;Node11</title>
<path fill="none" stroke="midnightblue" d="M982.79,-235.43C993.02,-221.98 1014.45,-195.71 1037.5,-179 1060.13,-162.6 1088.93,-149.45 1111.1,-140.69"/>
<polygon fill="midnightblue" stroke="midnightblue" points="1112.38,-143.94 1120.46,-137.09 1109.87,-137.41 1112.38,-143.94"/>
</g>
<!-- Node45&#45;&gt;Node15 -->
<g id="edge64" class="edge">
<title>Node45&#45;&gt;Node15</title>
<path fill="none" stroke="midnightblue" d="M1004.12,-235.43C1033.12,-226.42 1080.04,-211.79 1120.5,-199 1198.36,-174.38 1218.24,-169.46 1295.5,-143 1358.33,-121.48 1431.09,-94.39 1471.75,-79.05"/>
<polygon fill="midnightblue" stroke="midnightblue" points="1473.02,-82.32 1481.14,-75.51 1470.55,-75.77 1473.02,-82.32"/>
</g>
<!-- Node46 -->
<g id="node46" class="node">
<title>Node46</title>
<g id="a_node46"><a xlink:title=" ">
<polygon fill="none" stroke="#bfbfbf" points="1046,-179.5 1046,-198.5 1111,-198.5 1111,-179.5 1046,-179.5"/>
<text text-anchor="middle" x="1078.5" y="-186.5" font-family="Helvetica,sans-Serif" font-size="10.00">stdexcept</text>
</a>
</g>
</g>
<!-- Node45&#45;&gt;Node46 -->
<g id="edge65" class="edge">
<title>Node45&#45;&gt;Node46</title>
<path fill="none" stroke="midnightblue" d="M992.89,-235.32C1009.17,-226.7 1034.37,-213.36 1053.22,-203.39"/>
<polygon fill="midnightblue" stroke="midnightblue" points="1054.95,-206.43 1062.15,-198.65 1051.68,-200.24 1054.95,-206.43"/>
</g>
<!-- Node47&#45;&gt;Node2 -->
<g id="edge69" class="edge">
<title>Node47&#45;&gt;Node2</title>
<path fill="none" stroke="midnightblue" d="M767.5,-291.08C767.5,-284.01 767.5,-273.86 767.5,-264.99"/>
<polygon fill="midnightblue" stroke="midnightblue" points="771,-264.75 767.5,-254.75 764,-264.75 771,-264.75"/>
</g>
<!-- Node48&#45;&gt;Node2 -->
<g id="edge71" class="edge">
<title>Node48&#45;&gt;Node2</title>
<path fill="none" stroke="midnightblue" d="M853.95,-291.32C837.51,-282.7 812.07,-269.36 793.03,-259.39"/>
<polygon fill="midnightblue" stroke="midnightblue" points="794.49,-256.2 784.01,-254.65 791.24,-262.4 794.49,-256.2"/>
</g>
</g>
</svg>
