<?xml version="1.0" encoding="UTF-8" standalone="no"?>
<!DOCTYPE svg PUBLIC "-//W3C//DTD SVG 1.1//EN"
 "http://www.w3.org/Graphics/SVG/1.1/DTD/svg11.dtd">
<!-- Generated by graphviz version 2.50.0 (20220203.2022)
 -->
<!-- Title: src/thorin/pass/optimize.cpp Pages: 1 -->
<svg width="1586pt" height="543pt"
 viewBox="0.00 0.00 1585.50 543.00" xmlns="http://www.w3.org/2000/svg" xmlns:xlink="http://www.w3.org/1999/xlink">
<g id="graph0" class="graph" transform="scale(1 1) rotate(0) translate(4 539)">
<title>src/thorin/pass/optimize.cpp</title>
<!-- Node1 -->
<g id="node1" class="node">
<title>Node1</title>
<g id="a_node1"><a xlink:title=" ">
<polygon fill="#bfbfbf" stroke="black" points="706.5,-515.5 706.5,-534.5 844.5,-534.5 844.5,-515.5 706.5,-515.5"/>
<text text-anchor="middle" x="775.5" y="-522.5" font-family="Helvetica,sans-Serif" font-size="10.00">src/thorin/pass/optimize.cpp</text>
</a>
</g>
</g>
<!-- Node2 -->
<g id="node2" class="node">
<title>Node2</title>
<g id="a_node2"><a xlink:href="beta__red_8h.html" target="_top" xlink:title=" ">
<polygon fill="none" stroke="black" points="385.5,-448.5 385.5,-478.5 483.5,-478.5 483.5,-448.5 385.5,-448.5"/>
<text text-anchor="start" x="393.5" y="-466.5" font-family="Helvetica,sans-Serif" font-size="10.00">thorin/pass/fp/beta</text>
<text text-anchor="middle" x="434.5" y="-455.5" font-family="Helvetica,sans-Serif" font-size="10.00">_red.h</text>
</a>
</g>
</g>
<!-- Node1&#45;&gt;Node2 -->
<g id="edge1" class="edge">
<title>Node1&#45;&gt;Node2</title>
<path fill="none" stroke="midnightblue" d="M711.71,-515.48C656.41,-507.72 574.06,-495.29 493.6,-479.12"/>
<polygon fill="midnightblue" stroke="midnightblue" points="494.29,-475.69 483.79,-477.13 492.9,-482.55 494.29,-475.69"/>
</g>
<!-- Node48 -->
<g id="node36" class="node">
<title>Node48</title>
<g id="a_node36"><a xlink:href="copy__prop_8h.html" target="_top" xlink:title=" ">
<polygon fill="none" stroke="black" points="502,-448.5 502,-478.5 601,-478.5 601,-448.5 502,-448.5"/>
<text text-anchor="start" x="510" y="-466.5" font-family="Helvetica,sans-Serif" font-size="10.00">thorin/pass/fp/copy</text>
<text text-anchor="middle" x="551.5" y="-455.5" font-family="Helvetica,sans-Serif" font-size="10.00">_prop.h</text>
</a>
</g>
</g>
<!-- Node1&#45;&gt;Node48 -->
<g id="edge54" class="edge">
<title>Node1&#45;&gt;Node48</title>
<path fill="none" stroke="midnightblue" d="M743.41,-515.48C708.95,-506.32 653.45,-491.58 610.97,-480.3"/>
<polygon fill="midnightblue" stroke="midnightblue" points="611.86,-476.91 601.3,-477.73 610.06,-483.68 611.86,-476.91"/>
</g>
<!-- Node49 -->
<g id="node37" class="node">
<title>Node49</title>
<g id="a_node37"><a xlink:href="dce_8h.html" target="_top" xlink:title=" ">
<polygon fill="none" stroke="black" points="964.5,-454 964.5,-473 1066.5,-473 1066.5,-454 964.5,-454"/>
<text text-anchor="middle" x="1015.5" y="-461" font-family="Helvetica,sans-Serif" font-size="10.00">thorin/pass/fp/dce.h</text>
</a>
</g>
</g>
<!-- Node1&#45;&gt;Node49 -->
<g id="edge56" class="edge">
<title>Node1&#45;&gt;Node49</title>
<path fill="none" stroke="midnightblue" d="M809.89,-515.48C852.39,-504.94 924.8,-486.99 971.37,-475.44"/>
<polygon fill="midnightblue" stroke="midnightblue" points="972.31,-478.81 981.18,-473.01 970.63,-472.02 972.31,-478.81"/>
</g>
<!-- Node51 -->
<g id="node39" class="node">
<title>Node51</title>
<g id="a_node39"><a xlink:href="eta__exp_8h.html" target="_top" xlink:title=" ">
<polygon fill="none" stroke="black" points="619.5,-448.5 619.5,-478.5 711.5,-478.5 711.5,-448.5 619.5,-448.5"/>
<text text-anchor="start" x="627.5" y="-466.5" font-family="Helvetica,sans-Serif" font-size="10.00">thorin/pass/fp/eta</text>
<text text-anchor="middle" x="665.5" y="-455.5" font-family="Helvetica,sans-Serif" font-size="10.00">_exp.h</text>
</a>
</g>
</g>
<!-- Node1&#45;&gt;Node51 -->
<g id="edge63" class="edge">
<title>Node1&#45;&gt;Node51</title>
<path fill="none" stroke="midnightblue" d="M759.74,-515.48C744.28,-507.12 720.2,-494.09 700.25,-483.3"/>
<polygon fill="midnightblue" stroke="midnightblue" points="701.89,-480.2 691.42,-478.52 698.56,-486.36 701.89,-480.2"/>
</g>
<!-- Node52 -->
<g id="node40" class="node">
<title>Node52</title>
<g id="a_node40"><a xlink:href="eta__red_8h.html" target="_top" xlink:title=" ">
<polygon fill="none" stroke="black" points="729.5,-448.5 729.5,-478.5 821.5,-478.5 821.5,-448.5 729.5,-448.5"/>
<text text-anchor="start" x="737.5" y="-466.5" font-family="Helvetica,sans-Serif" font-size="10.00">thorin/pass/fp/eta</text>
<text text-anchor="middle" x="775.5" y="-455.5" font-family="Helvetica,sans-Serif" font-size="10.00">_red.h</text>
</a>
</g>
</g>
<!-- Node1&#45;&gt;Node52 -->
<g id="edge65" class="edge">
<title>Node1&#45;&gt;Node52</title>
<path fill="none" stroke="midnightblue" d="M775.5,-515.48C775.5,-508.47 775.5,-498.19 775.5,-488.7"/>
<polygon fill="midnightblue" stroke="midnightblue" points="779,-488.52 775.5,-478.52 772,-488.52 779,-488.52"/>
</g>
<!-- Node53 -->
<g id="node41" class="node">
<title>Node53</title>
<g id="a_node41"><a xlink:href="ssa__constr_8h.html" target="_top" xlink:title=" ">
<polygon fill="none" stroke="black" points="1085,-448.5 1085,-478.5 1180,-478.5 1180,-448.5 1085,-448.5"/>
<text text-anchor="start" x="1093" y="-466.5" font-family="Helvetica,sans-Serif" font-size="10.00">thorin/pass/fp/ssa</text>
<text text-anchor="middle" x="1132.5" y="-455.5" font-family="Helvetica,sans-Serif" font-size="10.00">_constr.h</text>
</a>
</g>
</g>
<!-- Node1&#45;&gt;Node53 -->
<g id="edge67" class="edge">
<title>Node1&#45;&gt;Node53</title>
<path fill="none" stroke="midnightblue" d="M844.65,-515.63C903.42,-508.06 990.17,-495.8 1075.18,-478.93"/>
<polygon fill="midnightblue" stroke="midnightblue" points="1075.88,-482.36 1085,-476.96 1074.5,-475.5 1075.88,-482.36"/>
</g>
<!-- Node56 -->
<g id="node44" class="node">
<title>Node56</title>
<g id="a_node44"><a xlink:href="bound__elim_8h.html" target="_top" xlink:title=" ">
<polygon fill="none" stroke="black" points="1198,-448.5 1198,-478.5 1305,-478.5 1305,-448.5 1198,-448.5"/>
<text text-anchor="start" x="1206" y="-466.5" font-family="Helvetica,sans-Serif" font-size="10.00">thorin/pass/rw/bound</text>
<text text-anchor="middle" x="1251.5" y="-455.5" font-family="Helvetica,sans-Serif" font-size="10.00">_elim.h</text>
</a>
</g>
</g>
<!-- Node1&#45;&gt;Node56 -->
<g id="edge72" class="edge">
<title>Node1&#45;&gt;Node56</title>
<path fill="none" stroke="midnightblue" d="M844.71,-519.06C925.04,-512.75 1061.62,-500.23 1187.6,-479.2"/>
<polygon fill="midnightblue" stroke="midnightblue" points="1188.54,-482.6 1197.81,-477.48 1187.37,-475.69 1188.54,-482.6"/>
</g>
<!-- Node57 -->
<g id="node45" class="node">
<title>Node57</title>
<g id="a_node45"><a xlink:href="partial__eval_8h.html" target="_top" xlink:title=" ">
<polygon fill="none" stroke="black" points="840,-448.5 840,-478.5 947,-478.5 947,-448.5 840,-448.5"/>
<text text-anchor="start" x="848" y="-466.5" font-family="Helvetica,sans-Serif" font-size="10.00">thorin/pass/rw/partial</text>
<text text-anchor="middle" x="893.5" y="-455.5" font-family="Helvetica,sans-Serif" font-size="10.00">_eval.h</text>
</a>
</g>
</g>
<!-- Node1&#45;&gt;Node57 -->
<g id="edge73" class="edge">
<title>Node1&#45;&gt;Node57</title>
<path fill="none" stroke="midnightblue" d="M792.41,-515.48C809.06,-507.08 835.05,-493.97 856.51,-483.15"/>
<polygon fill="midnightblue" stroke="midnightblue" points="858.34,-486.15 865.69,-478.52 855.18,-479.9 858.34,-486.15"/>
</g>
<!-- Node58 -->
<g id="node46" class="node">
<title>Node58</title>
<g id="a_node46"><a xlink:href="remem__elim_8h.html" target="_top" xlink:title=" ">
<polygon fill="none" stroke="black" points="0,-448.5 0,-478.5 111,-478.5 111,-448.5 0,-448.5"/>
<text text-anchor="start" x="8" y="-466.5" font-family="Helvetica,sans-Serif" font-size="10.00">thorin/pass/rw/remem</text>
<text text-anchor="middle" x="55.5" y="-455.5" font-family="Helvetica,sans-Serif" font-size="10.00">_elim.h</text>
</a>
</g>
</g>
<!-- Node1&#45;&gt;Node58 -->
<g id="edge75" class="edge">
<title>Node1&#45;&gt;Node58</title>
<path fill="none" stroke="midnightblue" d="M706.3,-522.67C588.22,-519.66 340.22,-510.06 121.15,-478.93"/>
<polygon fill="midnightblue" stroke="midnightblue" points="121.46,-475.43 111.07,-477.47 120.47,-482.36 121.46,-475.43"/>
</g>
<!-- Node59 -->
<g id="node47" class="node">
<title>Node59</title>
<g id="a_node47"><a xlink:href="ret__wrap_8h.html" target="_top" xlink:title=" ">
<polygon fill="none" stroke="black" points="129.5,-448.5 129.5,-478.5 221.5,-478.5 221.5,-448.5 129.5,-448.5"/>
<text text-anchor="start" x="137.5" y="-466.5" font-family="Helvetica,sans-Serif" font-size="10.00">thorin/pass/rw/ret</text>
<text text-anchor="middle" x="175.5" y="-455.5" font-family="Helvetica,sans-Serif" font-size="10.00">_wrap.h</text>
</a>
</g>
</g>
<!-- Node1&#45;&gt;Node59 -->
<g id="edge77" class="edge">
<title>Node1&#45;&gt;Node59</title>
<path fill="none" stroke="midnightblue" d="M706.19,-522.17C604.11,-518.6 407.34,-508.47 231.53,-478.97"/>
<polygon fill="midnightblue" stroke="midnightblue" points="232.03,-475.51 221.58,-477.28 230.86,-482.41 232.03,-475.51"/>
</g>
<!-- Node60 -->
<g id="node48" class="node">
<title>Node60</title>
<g id="a_node48"><a xlink:href="scalarize_8h.html" target="_top" xlink:title=" ">
<polygon fill="none" stroke="black" points="240,-454 240,-473 367,-473 367,-454 240,-454"/>
<text text-anchor="middle" x="303.5" y="-461" font-family="Helvetica,sans-Serif" font-size="10.00">thorin/pass/rw/scalarize.h</text>
</a>
</g>
</g>
<!-- Node1&#45;&gt;Node60 -->
<g id="edge79" class="edge">
<title>Node1&#45;&gt;Node60</title>
<path fill="none" stroke="midnightblue" d="M706.43,-517.98C626.68,-510.62 491.71,-496.91 376.5,-479 368.95,-477.83 361,-476.42 353.23,-474.96"/>
<polygon fill="midnightblue" stroke="midnightblue" points="353.66,-471.47 343.17,-473.01 352.33,-478.35 353.66,-471.47"/>
</g>
<!-- Node61 -->
<g id="node49" class="node">
<title>Node61</title>
<g id="a_node49"><a xlink:href="cleanup__world_8h.html" target="_top" xlink:title=" ">
<polygon fill="none" stroke="black" points="1323.5,-448.5 1323.5,-478.5 1445.5,-478.5 1445.5,-448.5 1323.5,-448.5"/>
<text text-anchor="start" x="1331.5" y="-466.5" font-family="Helvetica,sans-Serif" font-size="10.00">thorin/transform/cleanup</text>
<text text-anchor="middle" x="1384.5" y="-455.5" font-family="Helvetica,sans-Serif" font-size="10.00">_world.h</text>
</a>
</g>
</g>
<!-- Node1&#45;&gt;Node61 -->
<g id="edge81" class="edge">
<title>Node1&#45;&gt;Node61</title>
<path fill="none" stroke="midnightblue" d="M844.72,-520.9C945.64,-515.79 1139.21,-503.75 1313.37,-479.04"/>
<polygon fill="midnightblue" stroke="midnightblue" points="1314.09,-482.48 1323.49,-477.59 1313.1,-475.55 1314.09,-482.48"/>
</g>
<!-- Node62 -->
<g id="node50" class="node">
<title>Node62</title>
<g id="a_node50"><a xlink:href="partial__evaluation_8h.html" target="_top" xlink:title=" ">
<polygon fill="none" stroke="black" points="1463.5,-448.5 1463.5,-478.5 1577.5,-478.5 1577.5,-448.5 1463.5,-448.5"/>
<text text-anchor="start" x="1471.5" y="-466.5" font-family="Helvetica,sans-Serif" font-size="10.00">thorin/transform/partial</text>
<text text-anchor="middle" x="1520.5" y="-455.5" font-family="Helvetica,sans-Serif" font-size="10.00">_evaluation.h</text>
</a>
</g>
</g>
<!-- Node1&#45;&gt;Node62 -->
<g id="edge82" class="edge">
<title>Node1&#45;&gt;Node62</title>
<path fill="none" stroke="midnightblue" d="M844.77,-522.84C966.19,-520.04 1225.41,-510.75 1453.22,-479.03"/>
<polygon fill="midnightblue" stroke="midnightblue" points="1453.94,-482.47 1463.36,-477.6 1452.97,-475.53 1453.94,-482.47"/>
</g>
<!-- Node3 -->
<g id="node3" class="node">
<title>Node3</title>
<g id="a_node3"><a xlink:href="pass_8h.html" target="_top" xlink:title=" ">
<polygon fill="none" stroke="black" points="503.5,-392.5 503.5,-411.5 599.5,-411.5 599.5,-392.5 503.5,-392.5"/>
<text text-anchor="middle" x="551.5" y="-399.5" font-family="Helvetica,sans-Serif" font-size="10.00">thorin/pass/pass.h</text>
</a>
</g>
</g>
<!-- Node2&#45;&gt;Node3 -->
<g id="edge2" class="edge">
<title>Node2&#45;&gt;Node3</title>
<path fill="none" stroke="midnightblue" d="M462.23,-448.4C481.33,-438.68 506.56,-425.86 525.32,-416.31"/>
<polygon fill="midnightblue" stroke="midnightblue" points="527.15,-419.31 534.48,-411.66 523.98,-413.07 527.15,-419.31"/>
</g>
<!-- Node4 -->
<g id="node4" class="node">
<title>Node4</title>
<g id="a_node4"><a xlink:title=" ">
<polygon fill="none" stroke="#bfbfbf" points="522,-336.5 522,-355.5 563,-355.5 563,-336.5 522,-336.5"/>
<text text-anchor="middle" x="542.5" y="-343.5" font-family="Helvetica,sans-Serif" font-size="10.00">stack</text>
</a>
</g>
</g>
<!-- Node3&#45;&gt;Node4 -->
<g id="edge3" class="edge">
<title>Node3&#45;&gt;Node4</title>
<path fill="none" stroke="midnightblue" d="M550.01,-392.08C548.82,-384.93 547.11,-374.64 545.62,-365.69"/>
<polygon fill="midnightblue" stroke="midnightblue" points="549.05,-365.04 543.96,-355.75 542.15,-366.19 549.05,-365.04"/>
</g>
<!-- Node5 -->
<g id="node5" class="node">
<title>Node5</title>
<g id="a_node5"><a xlink:href="world_8h.html" target="_top" xlink:title=" ">
<polygon fill="none" stroke="black" points="581.5,-336.5 581.5,-355.5 655.5,-355.5 655.5,-336.5 581.5,-336.5"/>
<text text-anchor="middle" x="618.5" y="-343.5" font-family="Helvetica,sans-Serif" font-size="10.00">thorin/world.h</text>
</a>
</g>
</g>
<!-- Node3&#45;&gt;Node5 -->
<g id="edge4" class="edge">
<title>Node3&#45;&gt;Node5</title>
<path fill="none" stroke="midnightblue" d="M562.26,-392.32C572.27,-384.26 587.39,-372.08 599.43,-362.37"/>
<polygon fill="midnightblue" stroke="midnightblue" points="601.95,-364.83 607.54,-355.83 597.56,-359.38 601.95,-364.83"/>
</g>
<!-- Node47 -->
<g id="node35" class="node">
<title>Node47</title>
<g id="a_node35"><a xlink:href="scope_8h.html" target="_top" xlink:title=" ">
<polygon fill="none" stroke="black" points="259,-224.5 259,-243.5 378,-243.5 378,-224.5 259,-224.5"/>
<text text-anchor="middle" x="318.5" y="-231.5" font-family="Helvetica,sans-Serif" font-size="10.00">thorin/analyses/scope.h</text>
</a>
</g>
</g>
<!-- Node3&#45;&gt;Node47 -->
<g id="edge51" class="edge">
<title>Node3&#45;&gt;Node47</title>
<path fill="none" stroke="midnightblue" d="M539.3,-392.31C501.48,-365.36 385.89,-283.01 338.79,-249.46"/>
<polygon fill="midnightblue" stroke="midnightblue" points="340.75,-246.56 330.58,-243.61 336.69,-252.26 340.75,-246.56"/>
</g>
<!-- Node6 -->
<g id="node6" class="node">
<title>Node6</title>
<g id="a_node6"><a xlink:title=" ">
<polygon fill="none" stroke="#bfbfbf" points="676,-0.5 676,-19.5 725,-19.5 725,-0.5 676,-0.5"/>
<text text-anchor="middle" x="700.5" y="-7.5" font-family="Helvetica,sans-Serif" font-size="10.00">cassert</text>
</a>
</g>
</g>
<!-- Node5&#45;&gt;Node6 -->
<g id="edge5" class="edge">
<title>Node5&#45;&gt;Node6</title>
<path fill="none" stroke="midnightblue" d="M628.56,-336.37C637.7,-327.98 650.89,-314.42 658.5,-300 707.05,-208.05 704.77,-77.94 701.94,-29.83"/>
<polygon fill="midnightblue" stroke="midnightblue" points="705.42,-29.41 701.26,-19.67 698.43,-29.88 705.42,-29.41"/>
</g>
<!-- Node7 -->
<g id="node7" class="node">
<title>Node7</title>
<g id="a_node7"><a xlink:title=" ">
<polygon fill="none" stroke="#bfbfbf" points="217.5,-0.5 217.5,-19.5 271.5,-19.5 271.5,-0.5 217.5,-0.5"/>
<text text-anchor="middle" x="244.5" y="-7.5" font-family="Helvetica,sans-Serif" font-size="10.00">iostream</text>
</a>
</g>
</g>
<!-- Node5&#45;&gt;Node7 -->
<g id="edge6" class="edge">
<title>Node5&#45;&gt;Node7</title>
<path fill="none" stroke="midnightblue" d="M581.21,-336.9C473.16,-313.3 167.5,-245.62 167.5,-235 167.5,-235 167.5,-235 167.5,-121 167.5,-90.9 169.56,-80.88 186.5,-56 195.07,-43.41 208.28,-32.76 219.93,-24.99"/>
<polygon fill="midnightblue" stroke="midnightblue" points="221.85,-27.93 228.44,-19.63 218.11,-22.01 221.85,-27.93"/>
</g>
<!-- Node8 -->
<g id="node8" class="node">
<title>Node8</title>
<g id="a_node8"><a xlink:title=" ">
<polygon fill="none" stroke="#bfbfbf" points="744,-280.5 744,-299.5 803,-299.5 803,-280.5 744,-280.5"/>
<text text-anchor="middle" x="773.5" y="-287.5" font-family="Helvetica,sans-Serif" font-size="10.00">functional</text>
</a>
</g>
</g>
<!-- Node5&#45;&gt;Node8 -->
<g id="edge7" class="edge">
<title>Node5&#45;&gt;Node8</title>
<path fill="none" stroke="midnightblue" d="M643.06,-336.44C669.02,-327.4 710.17,-313.06 739.3,-302.92"/>
<polygon fill="midnightblue" stroke="midnightblue" points="740.76,-306.11 749.05,-299.52 738.46,-299.5 740.76,-306.11"/>
</g>
<!-- Node9 -->
<g id="node9" class="node">
<title>Node9</title>
<g id="a_node9"><a xlink:title=" ">
<polygon fill="none" stroke="#bfbfbf" points="821.5,-280.5 821.5,-299.5 893.5,-299.5 893.5,-280.5 821.5,-280.5"/>
<text text-anchor="middle" x="857.5" y="-287.5" font-family="Helvetica,sans-Serif" font-size="10.00">initializer_list</text>
</a>
</g>
</g>
<!-- Node5&#45;&gt;Node9 -->
<g id="edge8" class="edge">
<title>Node5&#45;&gt;Node9</title>
<path fill="none" stroke="midnightblue" d="M655.58,-336.62C697.51,-327.15 765.84,-311.71 811.23,-301.45"/>
<polygon fill="midnightblue" stroke="midnightblue" points="812.13,-304.84 821.12,-299.22 810.59,-298.01 812.13,-304.84"/>
</g>
<!-- Node10 -->
<g id="node10" class="node">
<title>Node10</title>
<g id="a_node10"><a xlink:title=" ">
<polygon fill="none" stroke="#bfbfbf" points="134,-0.5 134,-19.5 175,-19.5 175,-0.5 134,-0.5"/>
<text text-anchor="middle" x="154.5" y="-7.5" font-family="Helvetica,sans-Serif" font-size="10.00">string</text>
</a>
</g>
</g>
<!-- Node5&#45;&gt;Node10 -->
<g id="edge9" class="edge">
<title>Node5&#45;&gt;Node10</title>
<path fill="none" stroke="midnightblue" d="M581.32,-337.75C578,-337.14 574.69,-336.55 571.5,-336 472.2,-318.93 129.5,-335.75 129.5,-235 129.5,-235 129.5,-235 129.5,-121 129.5,-88 140.33,-50.77 147.74,-29.19"/>
<polygon fill="midnightblue" stroke="midnightblue" points="151.07,-30.28 151.13,-19.69 144.47,-27.93 151.07,-30.28"/>
</g>
<!-- Node11 -->
<g id="node11" class="node">
<title>Node11</title>
<g id="a_node11"><a xlink:href="axiom_8h.html" target="_top" xlink:title=" ">
<polygon fill="none" stroke="black" points="427,-280.5 427,-299.5 504,-299.5 504,-280.5 427,-280.5"/>
<text text-anchor="middle" x="465.5" y="-287.5" font-family="Helvetica,sans-Serif" font-size="10.00">thorin/axiom.h</text>
</a>
</g>
</g>
<!-- Node5&#45;&gt;Node11 -->
<g id="edge10" class="edge">
<title>Node5&#45;&gt;Node11</title>
<path fill="none" stroke="midnightblue" d="M594.26,-336.44C568.63,-327.4 528.01,-313.06 499.26,-302.92"/>
<polygon fill="midnightblue" stroke="midnightblue" points="500.22,-299.54 489.63,-299.52 497.89,-306.15 500.22,-299.54"/>
</g>
<!-- Node18 -->
<g id="node15" class="node">
<title>Node18</title>
<g id="a_node15"><a xlink:href="hash_8h.html" target="_top" xlink:title=" ">
<polygon fill="none" stroke="black" points="584.5,-112.5 584.5,-131.5 672.5,-131.5 672.5,-112.5 584.5,-112.5"/>
<text text-anchor="middle" x="628.5" y="-119.5" font-family="Helvetica,sans-Serif" font-size="10.00">thorin/util/hash.h</text>
</a>
</g>
</g>
<!-- Node5&#45;&gt;Node18 -->
<g id="edge49" class="edge">
<title>Node5&#45;&gt;Node18</title>
<path fill="none" stroke="midnightblue" d="M623.08,-336.41C631.87,-319.37 650.82,-279.85 657.5,-244 664.39,-207 648.47,-164.32 637.6,-140.83"/>
<polygon fill="midnightblue" stroke="midnightblue" points="640.7,-139.21 633.19,-131.74 634.41,-142.27 640.7,-139.21"/>
</g>
<!-- Node28 -->
<g id="node25" class="node">
<title>Node28</title>
<g id="a_node25"><a xlink:title=" ">
<polygon fill="none" stroke="#bfbfbf" points="881,-56.5 881,-75.5 958,-75.5 958,-56.5 881,-56.5"/>
<text text-anchor="middle" x="919.5" y="-63.5" font-family="Helvetica,sans-Serif" font-size="10.00">thorin/config.h</text>
</a>
</g>
</g>
<!-- Node5&#45;&gt;Node28 -->
<g id="edge50" class="edge">
<title>Node5&#45;&gt;Node28</title>
<path fill="none" stroke="midnightblue" d="M655.6,-343.93C724.02,-341.19 866.43,-331.75 902.5,-300 925.09,-280.11 921.5,-265.1 921.5,-235 921.5,-235 921.5,-235 921.5,-177 921.5,-144.94 920.64,-107.64 920.05,-85.75"/>
<polygon fill="midnightblue" stroke="midnightblue" points="923.54,-85.45 919.76,-75.56 916.54,-85.65 923.54,-85.45"/>
</g>
<!-- Node45 -->
<g id="node33" class="node">
<title>Node45</title>
<g id="a_node33"><a xlink:href="lattice_8h.html" target="_top" xlink:title=" ">
<polygon fill="none" stroke="black" points="572,-224.5 572,-243.5 649,-243.5 649,-224.5 572,-224.5"/>
<text text-anchor="middle" x="610.5" y="-231.5" font-family="Helvetica,sans-Serif" font-size="10.00">thorin/lattice.h</text>
</a>
</g>
</g>
<!-- Node5&#45;&gt;Node45 -->
<g id="edge45" class="edge">
<title>Node5&#45;&gt;Node45</title>
<path fill="none" stroke="midnightblue" d="M617.87,-336.37C616.58,-318.62 613.6,-277.67 611.85,-253.6"/>
<polygon fill="midnightblue" stroke="midnightblue" points="615.34,-253.31 611.12,-243.59 608.36,-253.82 615.34,-253.31"/>
</g>
<!-- Node46 -->
<g id="node34" class="node">
<title>Node46</title>
<g id="a_node34"><a xlink:href="tuple_8h.html" target="_top" xlink:title=" ">
<polygon fill="none" stroke="black" points="481.5,-224.5 481.5,-243.5 553.5,-243.5 553.5,-224.5 481.5,-224.5"/>
<text text-anchor="middle" x="517.5" y="-231.5" font-family="Helvetica,sans-Serif" font-size="10.00">thorin/tuple.h</text>
</a>
</g>
</g>
<!-- Node5&#45;&gt;Node46 -->
<g id="edge47" class="edge">
<title>Node5&#45;&gt;Node46</title>
<path fill="none" stroke="midnightblue" d="M610.57,-336.37C593.69,-317.97 553.93,-274.67 532.24,-251.05"/>
<polygon fill="midnightblue" stroke="midnightblue" points="534.73,-248.59 525.39,-243.59 529.57,-253.32 534.73,-248.59"/>
</g>
<!-- Node12 -->
<g id="node12" class="node">
<title>Node12</title>
<g id="a_node12"><a xlink:href="lam_8h.html" target="_top" xlink:title=" ">
<polygon fill="none" stroke="black" points="396,-224.5 396,-243.5 463,-243.5 463,-224.5 396,-224.5"/>
<text text-anchor="middle" x="429.5" y="-231.5" font-family="Helvetica,sans-Serif" font-size="10.00">thorin/lam.h</text>
</a>
</g>
</g>
<!-- Node11&#45;&gt;Node12 -->
<g id="edge11" class="edge">
<title>Node11&#45;&gt;Node12</title>
<path fill="none" stroke="midnightblue" d="M459.56,-280.08C454.52,-272.53 447.16,-261.49 440.99,-252.23"/>
<polygon fill="midnightblue" stroke="midnightblue" points="443.79,-250.13 435.33,-243.75 437.97,-254.01 443.79,-250.13"/>
</g>
<!-- Node13 -->
<g id="node13" class="node">
<title>Node13</title>
<g id="a_node13"><a xlink:href="def_8h.html" target="_top" xlink:title=" ">
<polygon fill="none" stroke="red" points="441,-168.5 441,-187.5 506,-187.5 506,-168.5 441,-168.5"/>
<text text-anchor="middle" x="473.5" y="-175.5" font-family="Helvetica,sans-Serif" font-size="10.00">thorin/def.h</text>
</a>
</g>
</g>
<!-- Node12&#45;&gt;Node13 -->
<g id="edge12" class="edge">
<title>Node12&#45;&gt;Node13</title>
<path fill="none" stroke="midnightblue" d="M436.77,-224.08C443.04,-216.38 452.29,-205.03 459.93,-195.65"/>
<polygon fill="midnightblue" stroke="midnightblue" points="462.77,-197.71 466.37,-187.75 457.34,-193.29 462.77,-197.71"/>
</g>
<!-- Node14 -->
<g id="node14" class="node">
<title>Node14</title>
<g id="a_node14"><a xlink:title=" ">
<polygon fill="none" stroke="#bfbfbf" points="311.5,-56.5 311.5,-75.5 361.5,-75.5 361.5,-56.5 311.5,-56.5"/>
<text text-anchor="middle" x="336.5" y="-63.5" font-family="Helvetica,sans-Serif" font-size="10.00">optional</text>
</a>
</g>
</g>
<!-- Node13&#45;&gt;Node14 -->
<g id="edge13" class="edge">
<title>Node13&#45;&gt;Node14</title>
<path fill="none" stroke="midnightblue" d="M462.75,-168.37C439.54,-149.73 384.49,-105.53 355.35,-82.13"/>
<polygon fill="midnightblue" stroke="midnightblue" points="357.19,-79.12 347.2,-75.59 352.81,-84.58 357.19,-79.12"/>
</g>
<!-- Node13&#45;&gt;Node18 -->
<g id="edge14" class="edge">
<title>Node13&#45;&gt;Node18</title>
<path fill="none" stroke="midnightblue" d="M498.06,-168.44C524.02,-159.4 565.17,-145.06 594.3,-134.92"/>
<polygon fill="midnightblue" stroke="midnightblue" points="595.76,-138.11 604.05,-131.52 593.46,-131.5 595.76,-138.11"/>
</g>
<!-- Node29 -->
<g id="node26" class="node">
<title>Node29</title>
<g id="a_node26"><a xlink:href="stream_8h.html" target="_top" xlink:title=" ">
<polygon fill="none" stroke="red" points="196,-56.5 196,-75.5 293,-75.5 293,-56.5 196,-56.5"/>
<text text-anchor="middle" x="244.5" y="-63.5" font-family="Helvetica,sans-Serif" font-size="10.00">thorin/util/stream.h</text>
</a>
</g>
</g>
<!-- Node13&#45;&gt;Node29 -->
<g id="edge44" class="edge">
<title>Node13&#45;&gt;Node29</title>
<path fill="none" stroke="midnightblue" d="M455.53,-168.37C415.48,-149.13 318.71,-102.65 271.42,-79.93"/>
<polygon fill="midnightblue" stroke="midnightblue" points="272.92,-76.77 262.39,-75.59 269.88,-83.08 272.92,-76.77"/>
</g>
<!-- Node44 -->
<g id="node32" class="node">
<title>Node44</title>
<g id="a_node32"><a xlink:href="ptr_8h.html" target="_top" xlink:title=" ">
<polygon fill="none" stroke="black" points="1050.5,-56.5 1050.5,-75.5 1128.5,-75.5 1128.5,-56.5 1050.5,-56.5"/>
<text text-anchor="middle" x="1089.5" y="-63.5" font-family="Helvetica,sans-Serif" font-size="10.00">thorin/util/ptr.h</text>
</a>
</g>
</g>
<!-- Node13&#45;&gt;Node44 -->
<g id="edge41" class="edge">
<title>Node13&#45;&gt;Node44</title>
<path fill="none" stroke="midnightblue" d="M506.18,-171.3C591.88,-156.33 830.43,-114.5 1040.49,-76.17"/>
<polygon fill="midnightblue" stroke="midnightblue" points="1041.26,-79.59 1050.47,-74.35 1040.01,-72.7 1041.26,-79.59"/>
</g>
<!-- Node18&#45;&gt;Node6 -->
<g id="edge18" class="edge">
<title>Node18&#45;&gt;Node6</title>
<path fill="none" stroke="midnightblue" d="M642.69,-112.37C654.7,-104.37 671.51,-91.39 681.5,-76 690.6,-61.98 695.45,-43.48 697.97,-29.8"/>
<polygon fill="midnightblue" stroke="midnightblue" points="701.47,-30.08 699.57,-19.65 694.55,-28.98 701.47,-30.08"/>
</g>
<!-- Node18&#45;&gt;Node7 -->
<g id="edge22" class="edge">
<title>Node18&#45;&gt;Node7</title>
<path fill="none" stroke="midnightblue" d="M584.49,-114.81C540.48,-107.93 471.22,-95.18 413.5,-76 393.5,-69.35 390,-64 370.5,-56 340.52,-43.71 305.81,-31.45 280.41,-22.84"/>
<polygon fill="midnightblue" stroke="midnightblue" points="281.42,-19.49 270.83,-19.61 279.19,-26.12 281.42,-19.49"/>
</g>
<!-- Node18&#45;&gt;Node14 -->
<g id="edge24" class="edge">
<title>Node18&#45;&gt;Node14</title>
<path fill="none" stroke="midnightblue" d="M584.49,-113.87C533.92,-105.51 448.5,-90.9 375.5,-76 374.24,-75.74 372.95,-75.47 371.65,-75.2"/>
<polygon fill="midnightblue" stroke="midnightblue" points="372.15,-71.73 361.63,-73 370.65,-78.56 372.15,-71.73"/>
</g>
<!-- Node19 -->
<g id="node16" class="node">
<title>Node19</title>
<g id="a_node16"><a xlink:title=" ">
<polygon fill="none" stroke="#bfbfbf" points="976.5,-56.5 976.5,-75.5 1032.5,-75.5 1032.5,-56.5 976.5,-56.5"/>
<text text-anchor="middle" x="1004.5" y="-63.5" font-family="Helvetica,sans-Serif" font-size="10.00">algorithm</text>
</a>
</g>
</g>
<!-- Node18&#45;&gt;Node19 -->
<g id="edge15" class="edge">
<title>Node18&#45;&gt;Node19</title>
<path fill="none" stroke="midnightblue" d="M672.5,-114.05C677.22,-113.34 681.96,-112.64 686.5,-112 808,-94.79 841.98,-98.7 966.38,-76.03"/>
<polygon fill="midnightblue" stroke="midnightblue" points="967.09,-79.46 976.29,-74.2 965.82,-72.58 967.09,-79.46"/>
</g>
<!-- Node20 -->
<g id="node17" class="node">
<title>Node20</title>
<g id="a_node17"><a xlink:title=" ">
<polygon fill="none" stroke="#bfbfbf" points="455.5,-56.5 455.5,-75.5 493.5,-75.5 493.5,-56.5 455.5,-56.5"/>
<text text-anchor="middle" x="474.5" y="-63.5" font-family="Helvetica,sans-Serif" font-size="10.00">array</text>
</a>
</g>
</g>
<!-- Node18&#45;&gt;Node20 -->
<g id="edge16" class="edge">
<title>Node18&#45;&gt;Node20</title>
<path fill="none" stroke="midnightblue" d="M604.1,-112.44C576.79,-102.87 532.56,-87.36 503.5,-77.17"/>
<polygon fill="midnightblue" stroke="midnightblue" points="504.51,-73.81 493.91,-73.81 502.19,-80.42 504.51,-73.81"/>
</g>
<!-- Node21 -->
<g id="node18" class="node">
<title>Node21</title>
<g id="a_node18"><a xlink:title=" ">
<polygon fill="none" stroke="#bfbfbf" points="512,-56.5 512,-75.5 541,-75.5 541,-56.5 512,-56.5"/>
<text text-anchor="middle" x="526.5" y="-63.5" font-family="Helvetica,sans-Serif" font-size="10.00">bit</text>
</a>
</g>
</g>
<!-- Node18&#45;&gt;Node21 -->
<g id="edge17" class="edge">
<title>Node18&#45;&gt;Node21</title>
<path fill="none" stroke="midnightblue" d="M612.11,-112.32C595.35,-103.45 569.13,-89.57 550.13,-79.51"/>
<polygon fill="midnightblue" stroke="midnightblue" points="551.67,-76.36 541.19,-74.78 548.39,-82.55 551.67,-76.36"/>
</g>
<!-- Node22 -->
<g id="node19" class="node">
<title>Node22</title>
<g id="a_node19"><a xlink:title=" ">
<polygon fill="none" stroke="#bfbfbf" points="558.5,-56.5 558.5,-75.5 614.5,-75.5 614.5,-56.5 558.5,-56.5"/>
<text text-anchor="middle" x="586.5" y="-63.5" font-family="Helvetica,sans-Serif" font-size="10.00">cinttypes</text>
</a>
</g>
</g>
<!-- Node18&#45;&gt;Node22 -->
<g id="edge19" class="edge">
<title>Node18&#45;&gt;Node22</title>
<path fill="none" stroke="midnightblue" d="M621.56,-112.08C615.57,-104.38 606.75,-93.03 599.45,-83.65"/>
<polygon fill="midnightblue" stroke="midnightblue" points="602.21,-81.5 593.31,-75.75 596.68,-85.79 602.21,-81.5"/>
</g>
<!-- Node23 -->
<g id="node20" class="node">
<title>Node23</title>
<g id="a_node20"><a xlink:title=" ">
<polygon fill="none" stroke="#bfbfbf" points="1068.5,-0.5 1068.5,-19.5 1114.5,-19.5 1114.5,-0.5 1068.5,-0.5"/>
<text text-anchor="middle" x="1091.5" y="-7.5" font-family="Helvetica,sans-Serif" font-size="10.00">cstdint</text>
</a>
</g>
</g>
<!-- Node18&#45;&gt;Node23 -->
<g id="edge20" class="edge">
<title>Node18&#45;&gt;Node23</title>
<path fill="none" stroke="midnightblue" d="M660.22,-112.5C723.87,-95.44 862.02,-58.47 872.5,-56 938.12,-40.53 1015.5,-25.34 1058.48,-17.17"/>
<polygon fill="midnightblue" stroke="midnightblue" points="1059.21,-20.59 1068.39,-15.29 1057.91,-13.71 1059.21,-20.59"/>
</g>
<!-- Node24 -->
<g id="node21" class="node">
<title>Node24</title>
<g id="a_node21"><a xlink:title=" ">
<polygon fill="none" stroke="#bfbfbf" points="347.5,-0.5 347.5,-19.5 393.5,-19.5 393.5,-0.5 347.5,-0.5"/>
<text text-anchor="middle" x="370.5" y="-7.5" font-family="Helvetica,sans-Serif" font-size="10.00">cstring</text>
</a>
</g>
</g>
<!-- Node18&#45;&gt;Node24 -->
<g id="edge21" class="edge">
<title>Node18&#45;&gt;Node24</title>
<path fill="none" stroke="midnightblue" d="M584.2,-115.9C546.04,-110.17 490.35,-98.55 446.5,-76 422.27,-63.54 399.18,-41.93 384.95,-27.07"/>
<polygon fill="midnightblue" stroke="midnightblue" points="387.38,-24.54 378,-19.61 382.25,-29.31 387.38,-24.54"/>
</g>
<!-- Node25 -->
<g id="node22" class="node">
<title>Node25</title>
<g id="a_node22"><a xlink:title=" ">
<polygon fill="none" stroke="#bfbfbf" points="751,-0.5 751,-19.5 802,-19.5 802,-0.5 751,-0.5"/>
<text text-anchor="middle" x="776.5" y="-7.5" font-family="Helvetica,sans-Serif" font-size="10.00">memory</text>
</a>
</g>
</g>
<!-- Node18&#45;&gt;Node25 -->
<g id="edge23" class="edge">
<title>Node18&#45;&gt;Node25</title>
<path fill="none" stroke="midnightblue" d="M643.3,-112.43C657.93,-103.76 680.79,-89.73 699.5,-76 720.92,-60.28 744.03,-40.34 759.28,-26.71"/>
<polygon fill="midnightblue" stroke="midnightblue" points="761.8,-29.15 766.88,-19.86 757.11,-23.95 761.8,-29.15"/>
</g>
<!-- Node26 -->
<g id="node23" class="node">
<title>Node26</title>
<g id="a_node23"><a xlink:title=" ">
<polygon fill="none" stroke="#bfbfbf" points="905.5,-0.5 905.5,-19.5 967.5,-19.5 967.5,-0.5 905.5,-0.5"/>
<text text-anchor="middle" x="936.5" y="-7.5" font-family="Helvetica,sans-Serif" font-size="10.00">type_traits</text>
</a>
</g>
</g>
<!-- Node18&#45;&gt;Node26 -->
<g id="edge25" class="edge">
<title>Node18&#45;&gt;Node26</title>
<path fill="none" stroke="midnightblue" d="M652.41,-112.46C706.88,-93.01 840.31,-45.36 902.96,-22.98"/>
<polygon fill="midnightblue" stroke="midnightblue" points="904.15,-26.27 912.39,-19.61 901.8,-19.68 904.15,-26.27"/>
</g>
<!-- Node27 -->
<g id="node24" class="node">
<title>Node27</title>
<g id="a_node24"><a xlink:title=" ">
<polygon fill="none" stroke="#bfbfbf" points="633,-56.5 633,-75.5 672,-75.5 672,-56.5 633,-56.5"/>
<text text-anchor="middle" x="652.5" y="-63.5" font-family="Helvetica,sans-Serif" font-size="10.00">utility</text>
</a>
</g>
</g>
<!-- Node18&#45;&gt;Node27 -->
<g id="edge26" class="edge">
<title>Node18&#45;&gt;Node27</title>
<path fill="none" stroke="midnightblue" d="M632.46,-112.08C635.71,-104.77 640.42,-94.18 644.45,-85.1"/>
<polygon fill="midnightblue" stroke="midnightblue" points="647.75,-86.31 648.61,-75.75 641.35,-83.47 647.75,-86.31"/>
</g>
<!-- Node18&#45;&gt;Node28 -->
<g id="edge27" class="edge">
<title>Node18&#45;&gt;Node28</title>
<path fill="none" stroke="midnightblue" d="M672.7,-112.8C726.13,-102.88 815.76,-86.25 871.04,-75.99"/>
<polygon fill="midnightblue" stroke="midnightblue" points="871.75,-79.42 880.94,-74.15 870.47,-72.54 871.75,-79.42"/>
</g>
<!-- Node18&#45;&gt;Node29 -->
<g id="edge28" class="edge">
<title>Node18&#45;&gt;Node29</title>
<path fill="none" stroke="midnightblue" d="M584.44,-115.16C523.65,-107.04 410.39,-91.73 303.24,-76.09"/>
<polygon fill="midnightblue" stroke="midnightblue" points="303.63,-72.61 293.23,-74.62 302.61,-79.53 303.63,-72.61"/>
</g>
<!-- Node33 -->
<g id="node27" class="node">
<title>Node33</title>
<g id="a_node27"><a xlink:href="types_8h.html" target="_top" xlink:title=" ">
<polygon fill="none" stroke="black" points="1184.5,-56.5 1184.5,-75.5 1274.5,-75.5 1274.5,-56.5 1184.5,-56.5"/>
<text text-anchor="middle" x="1229.5" y="-63.5" font-family="Helvetica,sans-Serif" font-size="10.00">thorin/util/types.h</text>
</a>
</g>
</g>
<!-- Node18&#45;&gt;Node33 -->
<g id="edge34" class="edge">
<title>Node18&#45;&gt;Node33</title>
<path fill="none" stroke="midnightblue" d="M672.77,-117.23C761.14,-109.66 965.7,-92 1137.5,-76 1149.36,-74.9 1162.08,-73.68 1174.15,-72.5"/>
<polygon fill="midnightblue" stroke="midnightblue" points="1174.51,-75.98 1184.12,-71.52 1173.82,-69.01 1174.51,-75.98"/>
</g>
<!-- Node29&#45;&gt;Node6 -->
<g id="edge29" class="edge">
<title>Node29&#45;&gt;Node6</title>
<path fill="none" stroke="midnightblue" d="M293.21,-57.29C296.35,-56.84 299.47,-56.41 302.5,-56 436.29,-38.06 596.02,-21.46 665.43,-14.47"/>
<polygon fill="midnightblue" stroke="midnightblue" points="666.17,-17.92 675.77,-13.44 665.47,-10.95 666.17,-17.92"/>
</g>
<!-- Node29&#45;&gt;Node7 -->
<g id="edge31" class="edge">
<title>Node29&#45;&gt;Node7</title>
<path fill="none" stroke="midnightblue" d="M244.5,-56.08C244.5,-49.01 244.5,-38.86 244.5,-29.99"/>
<polygon fill="midnightblue" stroke="midnightblue" points="248,-29.75 244.5,-19.75 241,-29.75 248,-29.75"/>
</g>
<!-- Node29&#45;&gt;Node10 -->
<g id="edge33" class="edge">
<title>Node29&#45;&gt;Node10</title>
<path fill="none" stroke="midnightblue" d="M230.04,-56.32C216,-47.9 194.45,-34.97 177.96,-25.07"/>
<polygon fill="midnightblue" stroke="midnightblue" points="179.3,-21.8 168.92,-19.65 175.7,-27.8 179.3,-21.8"/>
</g>
<!-- Node29&#45;&gt;Node24 -->
<g id="edge30" class="edge">
<title>Node29&#45;&gt;Node24</title>
<path fill="none" stroke="midnightblue" d="M264.47,-56.44C285.11,-47.6 317.56,-33.69 341.13,-23.59"/>
<polygon fill="midnightblue" stroke="midnightblue" points="342.82,-26.67 350.63,-19.52 340.06,-20.24 342.82,-26.67"/>
</g>
<!-- Node29&#45;&gt;Node25 -->
<g id="edge32" class="edge">
<title>Node29&#45;&gt;Node25</title>
<path fill="none" stroke="midnightblue" d="M293.2,-57.19C296.34,-56.76 299.46,-56.36 302.5,-56 493.81,-33.21 543.92,-48.24 734.5,-20 736.57,-19.69 738.7,-19.34 740.84,-18.97"/>
<polygon fill="midnightblue" stroke="midnightblue" points="741.67,-22.37 750.83,-17.04 740.35,-15.5 741.67,-22.37"/>
</g>
<!-- Node33&#45;&gt;Node23 -->
<g id="edge36" class="edge">
<title>Node33&#45;&gt;Node23</title>
<path fill="none" stroke="midnightblue" d="M1207.63,-56.44C1184.72,-47.48 1148.52,-33.31 1122.63,-23.18"/>
<polygon fill="midnightblue" stroke="midnightblue" points="1123.85,-19.9 1113.26,-19.52 1121.3,-26.42 1123.85,-19.9"/>
</g>
<!-- Node33&#45;&gt;Node26 -->
<g id="edge39" class="edge">
<title>Node33&#45;&gt;Node26</title>
<path fill="none" stroke="midnightblue" d="M1184.36,-56.68C1127.96,-46.29 1032.24,-28.65 977.73,-18.6"/>
<polygon fill="midnightblue" stroke="midnightblue" points="978.2,-15.13 967.73,-16.76 976.93,-22.01 978.2,-15.13"/>
</g>
<!-- Node34 -->
<g id="node28" class="node">
<title>Node34</title>
<g id="a_node28"><a xlink:title=" ">
<polygon fill="none" stroke="#bfbfbf" points="1204.5,-0.5 1204.5,-19.5 1248.5,-19.5 1248.5,-0.5 1204.5,-0.5"/>
<text text-anchor="middle" x="1226.5" y="-7.5" font-family="Helvetica,sans-Serif" font-size="10.00">cmath</text>
</a>
</g>
</g>
<!-- Node33&#45;&gt;Node34 -->
<g id="edge35" class="edge">
<title>Node33&#45;&gt;Node34</title>
<path fill="none" stroke="midnightblue" d="M1229,-56.08C1228.61,-49.01 1228.05,-38.86 1227.55,-29.99"/>
<polygon fill="midnightblue" stroke="midnightblue" points="1231.04,-29.54 1226.99,-19.75 1224.05,-29.93 1231.04,-29.54"/>
</g>
<!-- Node35 -->
<g id="node29" class="node">
<title>Node35</title>
<g id="a_node29"><a xlink:title=" ">
<polygon fill="none" stroke="#bfbfbf" points="1266.5,-0.5 1266.5,-19.5 1306.5,-19.5 1306.5,-0.5 1266.5,-0.5"/>
<text text-anchor="middle" x="1286.5" y="-7.5" font-family="Helvetica,sans-Serif" font-size="10.00">limits</text>
</a>
</g>
</g>
<!-- Node33&#45;&gt;Node35 -->
<g id="edge37" class="edge">
<title>Node33&#45;&gt;Node35</title>
<path fill="none" stroke="midnightblue" d="M1238.66,-56.32C1247,-48.42 1259.53,-36.55 1269.68,-26.94"/>
<polygon fill="midnightblue" stroke="midnightblue" points="1272.32,-29.25 1277.18,-19.83 1267.51,-24.17 1272.32,-29.25"/>
</g>
<!-- Node36 -->
<g id="node30" class="node">
<title>Node36</title>
<g id="a_node30"><a xlink:title=" ">
<polygon fill="none" stroke="#bfbfbf" points="1324.5,-0.5 1324.5,-19.5 1376.5,-19.5 1376.5,-0.5 1324.5,-0.5"/>
<text text-anchor="middle" x="1350.5" y="-7.5" font-family="Helvetica,sans-Serif" font-size="10.00">ostream</text>
</a>
</g>
</g>
<!-- Node33&#45;&gt;Node36 -->
<g id="edge38" class="edge">
<title>Node33&#45;&gt;Node36</title>
<path fill="none" stroke="midnightblue" d="M1248.67,-56.44C1268.41,-47.64 1299.39,-33.81 1321.99,-23.72"/>
<polygon fill="midnightblue" stroke="midnightblue" points="1323.71,-26.79 1331.42,-19.52 1320.86,-20.4 1323.71,-26.79"/>
</g>
<!-- Node37 -->
<g id="node31" class="node">
<title>Node37</title>
<g id="a_node31"><a xlink:title=" ">
<polygon fill="none" stroke="#bfbfbf" points="1136.5,-0.5 1136.5,-19.5 1186.5,-19.5 1186.5,-0.5 1136.5,-0.5"/>
<text text-anchor="middle" x="1161.5" y="-7.5" font-family="Helvetica,sans-Serif" font-size="10.00">half.hpp</text>
</a>
</g>
</g>
<!-- Node33&#45;&gt;Node37 -->
<g id="edge40" class="edge">
<title>Node33&#45;&gt;Node37</title>
<path fill="none" stroke="midnightblue" d="M1218.57,-56.32C1208.33,-48.18 1192.78,-35.84 1180.5,-26.09"/>
<polygon fill="midnightblue" stroke="midnightblue" points="1182.63,-23.31 1172.62,-19.83 1178.28,-28.79 1182.63,-23.31"/>
</g>
<!-- Node44&#45;&gt;Node23 -->
<g id="edge42" class="edge">
<title>Node44&#45;&gt;Node23</title>
<path fill="none" stroke="midnightblue" d="M1089.83,-56.08C1090.09,-49.01 1090.47,-38.86 1090.8,-29.99"/>
<polygon fill="midnightblue" stroke="midnightblue" points="1094.3,-29.87 1091.18,-19.75 1087.31,-29.61 1094.3,-29.87"/>
</g>
<!-- Node44&#45;&gt;Node25 -->
<g id="edge43" class="edge">
<title>Node44&#45;&gt;Node25</title>
<path fill="none" stroke="midnightblue" d="M1050.48,-57.63C1047.44,-57.07 1044.42,-56.52 1041.5,-56 959.58,-41.37 863.21,-25.29 812.27,-16.87"/>
<polygon fill="midnightblue" stroke="midnightblue" points="812.54,-13.37 802.11,-15.2 811.4,-20.28 812.54,-13.37"/>
</g>
<!-- Node45&#45;&gt;Node13 -->
<g id="edge46" class="edge">
<title>Node45&#45;&gt;Node13</title>
<path fill="none" stroke="midnightblue" d="M588.79,-224.44C566.15,-215.52 530.43,-201.44 504.75,-191.32"/>
<polygon fill="midnightblue" stroke="midnightblue" points="505.69,-187.93 495.11,-187.52 503.13,-194.44 505.69,-187.93"/>
</g>
<!-- Node46&#45;&gt;Node13 -->
<g id="edge48" class="edge">
<title>Node46&#45;&gt;Node13</title>
<path fill="none" stroke="midnightblue" d="M510.23,-224.08C503.96,-216.38 494.71,-205.03 487.07,-195.65"/>
<polygon fill="midnightblue" stroke="midnightblue" points="489.66,-193.29 480.63,-187.75 484.23,-197.71 489.66,-193.29"/>
</g>
<!-- Node47&#45;&gt;Node13 -->
<g id="edge52" class="edge">
<title>Node47&#45;&gt;Node13</title>
<path fill="none" stroke="midnightblue" d="M343.06,-224.44C369.02,-215.4 410.17,-201.06 439.3,-190.92"/>
<polygon fill="midnightblue" stroke="midnightblue" points="440.76,-194.11 449.05,-187.52 438.46,-187.5 440.76,-194.11"/>
</g>
<!-- Node47&#45;&gt;Node29 -->
<g id="edge53" class="edge">
<title>Node47&#45;&gt;Node29</title>
<path fill="none" stroke="midnightblue" d="M314.52,-224.08C302.82,-197.83 268.37,-120.55 252.58,-85.12"/>
<polygon fill="midnightblue" stroke="midnightblue" points="255.59,-83.28 248.32,-75.57 249.19,-86.13 255.59,-83.28"/>
</g>
<!-- Node48&#45;&gt;Node3 -->
<g id="edge55" class="edge">
<title>Node48&#45;&gt;Node3</title>
<path fill="none" stroke="midnightblue" d="M551.5,-448.4C551.5,-440.47 551.5,-430.46 551.5,-421.86"/>
<polygon fill="midnightblue" stroke="midnightblue" points="555,-421.66 551.5,-411.66 548,-421.66 555,-421.66"/>
</g>
<!-- Node49&#45;&gt;Node3 -->
<g id="edge57" class="edge">
<title>Node49&#45;&gt;Node3</title>
<path fill="none" stroke="midnightblue" d="M984.12,-453.98C975.24,-451.79 965.54,-449.61 956.5,-448 834.18,-426.27 689.09,-413.18 610.04,-407.1"/>
<polygon fill="midnightblue" stroke="midnightblue" points="610.03,-403.59 599.8,-406.32 609.5,-410.57 610.03,-403.59"/>
</g>
<!-- Node50 -->
<g id="node38" class="node">
<title>Node50</title>
<g id="a_node38"><a xlink:href="bitset_8h.html" target="_top" xlink:title=" ">
<polygon fill="none" stroke="black" points="1044,-112.5 1044,-131.5 1135,-131.5 1135,-112.5 1044,-112.5"/>
<text text-anchor="middle" x="1089.5" y="-119.5" font-family="Helvetica,sans-Serif" font-size="10.00">thorin/util/bitset.h</text>
</a>
</g>
</g>
<!-- Node49&#45;&gt;Node50 -->
<g id="edge58" class="edge">
<title>Node49&#45;&gt;Node50</title>
<path fill="none" stroke="midnightblue" d="M1017.78,-453.88C1022.62,-434.78 1033.5,-387.39 1033.5,-347 1033.5,-347 1033.5,-347 1033.5,-233 1033.5,-196.44 1058.38,-159.75 1074.97,-139.34"/>
<polygon fill="midnightblue" stroke="midnightblue" points="1077.7,-141.54 1081.48,-131.64 1072.35,-137.02 1077.7,-141.54"/>
</g>
<!-- Node50&#45;&gt;Node19 -->
<g id="edge60" class="edge">
<title>Node50&#45;&gt;Node19</title>
<path fill="none" stroke="midnightblue" d="M1075.84,-112.32C1062.58,-103.9 1042.23,-90.97 1026.65,-81.07"/>
<polygon fill="midnightblue" stroke="midnightblue" points="1028.44,-78.06 1018.12,-75.65 1024.69,-83.97 1028.44,-78.06"/>
</g>
<!-- Node50&#45;&gt;Node23 -->
<g id="edge59" class="edge">
<title>Node50&#45;&gt;Node23</title>
<path fill="none" stroke="midnightblue" d="M1103.87,-112.33C1115.38,-104.47 1130.69,-91.72 1137.5,-76 1145.66,-57.16 1128.88,-38.31 1113.34,-25.79"/>
<polygon fill="midnightblue" stroke="midnightblue" points="1115.1,-22.74 1105,-19.53 1110.9,-28.34 1115.1,-22.74"/>
</g>
<!-- Node50&#45;&gt;Node33 -->
<g id="edge62" class="edge">
<title>Node50&#45;&gt;Node33</title>
<path fill="none" stroke="midnightblue" d="M1111.68,-112.44C1134.93,-103.48 1171.65,-89.31 1197.92,-79.18"/>
<polygon fill="midnightblue" stroke="midnightblue" points="1199.35,-82.38 1207.42,-75.52 1196.83,-75.85 1199.35,-82.38"/>
</g>
<!-- Node50&#45;&gt;Node44 -->
<g id="edge61" class="edge">
<title>Node50&#45;&gt;Node44</title>
<path fill="none" stroke="midnightblue" d="M1089.5,-112.08C1089.5,-105.01 1089.5,-94.86 1089.5,-85.99"/>
<polygon fill="midnightblue" stroke="midnightblue" points="1093,-85.75 1089.5,-75.75 1086,-85.75 1093,-85.75"/>
</g>
<!-- Node51&#45;&gt;Node3 -->
<g id="edge64" class="edge">
<title>Node51&#45;&gt;Node3</title>
<path fill="none" stroke="midnightblue" d="M638.48,-448.4C619.87,-438.68 595.29,-425.86 577.01,-416.31"/>
<polygon fill="midnightblue" stroke="midnightblue" points="578.57,-413.18 568.09,-411.66 575.33,-419.39 578.57,-413.18"/>
</g>
<!-- Node52&#45;&gt;Node3 -->
<g id="edge66" class="edge">
<title>Node52&#45;&gt;Node3</title>
<path fill="none" stroke="midnightblue" d="M729.36,-450.24C689.5,-439.66 632.39,-424.49 593.72,-414.22"/>
<polygon fill="midnightblue" stroke="midnightblue" points="594.39,-410.77 583.83,-411.59 592.59,-417.54 594.39,-410.77"/>
</g>
<!-- Node53&#45;&gt;Node3 -->
<g id="edge70" class="edge">
<title>Node53&#45;&gt;Node3</title>
<path fill="none" stroke="midnightblue" d="M1084.73,-449.74C1081.62,-449.1 1078.52,-448.51 1075.5,-448 907.85,-419.67 706.84,-408.75 609.71,-404.89"/>
<polygon fill="midnightblue" stroke="midnightblue" points="609.64,-401.39 599.51,-404.5 609.37,-408.38 609.64,-401.39"/>
</g>
<!-- Node53&#45;&gt;Node50 -->
<g id="edge71" class="edge">
<title>Node53&#45;&gt;Node50</title>
<path fill="none" stroke="midnightblue" d="M1123.38,-448.19C1110.76,-426.97 1089.5,-385.51 1089.5,-347 1089.5,-347 1089.5,-347 1089.5,-233 1089.5,-200.95 1089.5,-163.64 1089.5,-141.75"/>
<polygon fill="midnightblue" stroke="midnightblue" points="1093,-141.56 1089.5,-131.56 1086,-141.56 1093,-141.56"/>
</g>
<!-- Node54 -->
<g id="node42" class="node">
<title>Node54</title>
<g id="a_node42"><a xlink:title=" ">
<polygon fill="none" stroke="#bfbfbf" points="1166,-392.5 1166,-411.5 1201,-411.5 1201,-392.5 1166,-392.5"/>
<text text-anchor="middle" x="1183.5" y="-399.5" font-family="Helvetica,sans-Serif" font-size="10.00">map</text>
</a>
</g>
</g>
<!-- Node53&#45;&gt;Node54 -->
<g id="edge68" class="edge">
<title>Node53&#45;&gt;Node54</title>
<path fill="none" stroke="midnightblue" d="M1144.59,-448.4C1152.07,-439.66 1161.72,-428.41 1169.53,-419.3"/>
<polygon fill="midnightblue" stroke="midnightblue" points="1172.23,-421.53 1176.08,-411.66 1166.91,-416.97 1172.23,-421.53"/>
</g>
<!-- Node55 -->
<g id="node43" class="node">
<title>Node55</title>
<g id="a_node43"><a xlink:title=" ">
<polygon fill="none" stroke="#bfbfbf" points="1117.5,-392.5 1117.5,-411.5 1147.5,-411.5 1147.5,-392.5 1117.5,-392.5"/>
<text text-anchor="middle" x="1132.5" y="-399.5" font-family="Helvetica,sans-Serif" font-size="10.00">set</text>
</a>
</g>
</g>
<!-- Node53&#45;&gt;Node55 -->
<g id="edge69" class="edge">
<title>Node53&#45;&gt;Node55</title>
<path fill="none" stroke="midnightblue" d="M1132.5,-448.4C1132.5,-440.47 1132.5,-430.46 1132.5,-421.86"/>
<polygon fill="midnightblue" stroke="midnightblue" points="1136,-421.66 1132.5,-411.66 1129,-421.66 1136,-421.66"/>
</g>
<!-- Node57&#45;&gt;Node3 -->
<g id="edge74" class="edge">
<title>Node57&#45;&gt;Node3</title>
<path fill="none" stroke="midnightblue" d="M839.94,-449.92C836.75,-449.25 833.58,-448.6 830.5,-448 754.57,-433.16 666.33,-419.53 609.75,-411.25"/>
<polygon fill="midnightblue" stroke="midnightblue" points="609.96,-407.74 599.56,-409.76 608.95,-414.67 609.96,-407.74"/>
</g>
<!-- Node58&#45;&gt;Node3 -->
<g id="edge76" class="edge">
<title>Node58&#45;&gt;Node3</title>
<path fill="none" stroke="midnightblue" d="M111.09,-449.66C114.26,-449.06 117.42,-448.5 120.5,-448 253.08,-426.37 410.38,-413.02 493.43,-406.92"/>
<polygon fill="midnightblue" stroke="midnightblue" points="493.71,-410.41 503.43,-406.2 493.2,-403.43 493.71,-410.41"/>
</g>
<!-- Node59&#45;&gt;Node3 -->
<g id="edge78" class="edge">
<title>Node59&#45;&gt;Node3</title>
<path fill="none" stroke="midnightblue" d="M221.62,-449.92C224.62,-449.23 227.6,-448.58 230.5,-448 321.62,-429.67 428.78,-416.26 493.35,-409.05"/>
<polygon fill="midnightblue" stroke="midnightblue" points="493.79,-412.53 503.34,-407.95 493.02,-405.57 493.79,-412.53"/>
</g>
<!-- Node60&#45;&gt;Node3 -->
<g id="edge80" class="edge">
<title>Node60&#45;&gt;Node3</title>
<path fill="none" stroke="midnightblue" d="M339.03,-453.98C383.05,-443.42 458.09,-425.41 506.2,-413.87"/>
<polygon fill="midnightblue" stroke="midnightblue" points="507.13,-417.25 516.03,-411.51 505.49,-410.44 507.13,-417.25"/>
</g>
</g>
</svg>
