<?xml version="1.0" encoding="UTF-8" standalone="no"?>
<!DOCTYPE svg PUBLIC "-//W3C//DTD SVG 1.1//EN"
 "http://www.w3.org/Graphics/SVG/1.1/DTD/svg11.dtd">
<!-- Generated by graphviz version 2.43.0 (0)
 -->
<!-- Title: /home/runner/work/thorin2/thorin2/thorin/pass/optimize.cpp Pages: 1 -->
<svg width="1897pt" height="621pt"
 viewBox="0.00 0.00 1896.50 621.00" xmlns="http://www.w3.org/2000/svg" xmlns:xlink="http://www.w3.org/1999/xlink">
<g id="graph0" class="graph" transform="scale(1 1) rotate(0) translate(4 617)">
<title>/home/runner/work/thorin2/thorin2/thorin/pass/optimize.cpp</title>
<!-- Node1 -->
<g id="node1" class="node">
<title>Node1</title>
<g id="a_node1"><a xlink:title=" ">
<polygon fill="#bfbfbf" stroke="black" points="850,-582.5 850,-612.5 1027,-612.5 1027,-582.5 850,-582.5"/>
<text text-anchor="start" x="858" y="-600.5" font-family="Helvetica,sans-Serif" font-size="10.00">/home/runner/work/thorin2</text>
<text text-anchor="middle" x="938.5" y="-589.5" font-family="Helvetica,sans-Serif" font-size="10.00">/thorin2/thorin/pass/optimize.cpp</text>
</a>
</g>
</g>
<!-- Node2 -->
<g id="node2" class="node">
<title>Node2</title>
<g id="a_node2"><a xlink:href="optimize_8h.html" target="_top" xlink:title=" ">
<polygon fill="none" stroke="black" points="0,-521 0,-540 125,-540 125,-521 0,-521"/>
<text text-anchor="middle" x="62.5" y="-528" font-family="Helvetica,sans-Serif" font-size="10.00">thorin/pass/optimize.h</text>
</a>
</g>
</g>
<!-- Node1&#45;&gt;Node2 -->
<g id="edge1" class="edge">
<title>Node1&#45;&gt;Node2</title>
<path fill="none" stroke="midnightblue" d="M849.78,-594.87C701.21,-591.25 392.94,-579.98 134.5,-546 126.59,-544.96 118.24,-543.56 110.15,-542.04"/>
<polygon fill="midnightblue" stroke="midnightblue" points="110.57,-538.56 100.08,-540.07 109.22,-545.43 110.57,-538.56"/>
</g>
<!-- Node3 -->
<g id="node3" class="node">
<title>Node3</title>
<g id="a_node3"><a xlink:href="beta__red_8h.html" target="_top" xlink:title=" ">
<polygon fill="none" stroke="black" points="143.5,-515.5 143.5,-545.5 251.5,-545.5 251.5,-515.5 143.5,-515.5"/>
<text text-anchor="start" x="151.5" y="-533.5" font-family="Helvetica,sans-Serif" font-size="10.00">thorin/pass/fp/beta</text>
<text text-anchor="middle" x="197.5" y="-522.5" font-family="Helvetica,sans-Serif" font-size="10.00">_red.h</text>
</a>
</g>
</g>
<!-- Node1&#45;&gt;Node3 -->
<g id="edge2" class="edge">
<title>Node1&#45;&gt;Node3</title>
<path fill="none" stroke="midnightblue" d="M849.99,-594.19C722.04,-589.9 477.95,-578.15 261.65,-546.02"/>
<polygon fill="midnightblue" stroke="midnightblue" points="262.1,-542.55 251.7,-544.52 261.06,-549.47 262.1,-542.55"/>
</g>
<!-- Node50 -->
<g id="node37" class="node">
<title>Node50</title>
<g id="a_node37"><a xlink:href="copy__prop_8h.html" target="_top" xlink:title=" ">
<polygon fill="none" stroke="black" points="955.5,-515.5 955.5,-545.5 1065.5,-545.5 1065.5,-515.5 955.5,-515.5"/>
<text text-anchor="start" x="963.5" y="-533.5" font-family="Helvetica,sans-Serif" font-size="10.00">thorin/pass/fp/copy</text>
<text text-anchor="middle" x="1010.5" y="-522.5" font-family="Helvetica,sans-Serif" font-size="10.00">_prop.h</text>
</a>
</g>
</g>
<!-- Node1&#45;&gt;Node50 -->
<g id="edge50" class="edge">
<title>Node1&#45;&gt;Node50</title>
<path fill="none" stroke="midnightblue" d="M954.12,-582.4C963.84,-573.62 976.51,-562.18 987.38,-552.37"/>
<polygon fill="midnightblue" stroke="midnightblue" points="989.83,-554.88 994.91,-545.58 985.14,-549.68 989.83,-554.88"/>
</g>
<!-- Node51 -->
<g id="node38" class="node">
<title>Node51</title>
<g id="a_node38"><a xlink:href="eta__exp_8h.html" target="_top" xlink:title=" ">
<polygon fill="none" stroke="black" points="1221.5,-515.5 1221.5,-545.5 1323.5,-545.5 1323.5,-515.5 1221.5,-515.5"/>
<text text-anchor="start" x="1229.5" y="-533.5" font-family="Helvetica,sans-Serif" font-size="10.00">thorin/pass/fp/eta</text>
<text text-anchor="middle" x="1272.5" y="-522.5" font-family="Helvetica,sans-Serif" font-size="10.00">_exp.h</text>
</a>
</g>
</g>
<!-- Node1&#45;&gt;Node51 -->
<g id="edge52" class="edge">
<title>Node1&#45;&gt;Node51</title>
<path fill="none" stroke="midnightblue" d="M1021.16,-582.48C1073.21,-573.37 1142,-560.81 1211.65,-546.12"/>
<polygon fill="midnightblue" stroke="midnightblue" points="1212.42,-549.53 1221.48,-544.03 1210.97,-542.68 1212.42,-549.53"/>
</g>
<!-- Node52 -->
<g id="node39" class="node">
<title>Node52</title>
<g id="a_node39"><a xlink:href="eta__red_8h.html" target="_top" xlink:title=" ">
<polygon fill="none" stroke="black" points="1341.5,-515.5 1341.5,-545.5 1443.5,-545.5 1443.5,-515.5 1341.5,-515.5"/>
<text text-anchor="start" x="1349.5" y="-533.5" font-family="Helvetica,sans-Serif" font-size="10.00">thorin/pass/fp/eta</text>
<text text-anchor="middle" x="1392.5" y="-522.5" font-family="Helvetica,sans-Serif" font-size="10.00">_red.h</text>
</a>
</g>
</g>
<!-- Node1&#45;&gt;Node52 -->
<g id="edge54" class="edge">
<title>Node1&#45;&gt;Node52</title>
<path fill="none" stroke="midnightblue" d="M1027.34,-587.93C1105.13,-579.77 1221.35,-566.03 1331.26,-546.11"/>
<polygon fill="midnightblue" stroke="midnightblue" points="1331.99,-549.54 1341.19,-544.29 1330.73,-542.65 1331.99,-549.54"/>
</g>
<!-- Node53 -->
<g id="node40" class="node">
<title>Node53</title>
<g id="a_node40"><a xlink:href="ssa__constr_8h.html" target="_top" xlink:title=" ">
<polygon fill="none" stroke="black" points="1760,-515.5 1760,-545.5 1863,-545.5 1863,-515.5 1760,-515.5"/>
<text text-anchor="start" x="1768" y="-533.5" font-family="Helvetica,sans-Serif" font-size="10.00">thorin/pass/fp/ssa</text>
<text text-anchor="middle" x="1811.5" y="-522.5" font-family="Helvetica,sans-Serif" font-size="10.00">_constr.h</text>
</a>
</g>
</g>
<!-- Node1&#45;&gt;Node53 -->
<g id="edge56" class="edge">
<title>Node1&#45;&gt;Node53</title>
<path fill="none" stroke="midnightblue" d="M1027.03,-595.94C1174.99,-593.92 1481.82,-585.07 1749.79,-545.92"/>
<polygon fill="midnightblue" stroke="midnightblue" points="1750.32,-549.37 1759.7,-544.45 1749.3,-542.45 1750.32,-549.37"/>
</g>
<!-- Node55 -->
<g id="node43" class="node">
<title>Node55</title>
<g id="a_node43"><a xlink:href="tail__rec__elim_8h.html" target="_top" xlink:title=" ">
<polygon fill="none" stroke="black" points="1461.5,-515.5 1461.5,-545.5 1563.5,-545.5 1563.5,-515.5 1461.5,-515.5"/>
<text text-anchor="start" x="1469.5" y="-533.5" font-family="Helvetica,sans-Serif" font-size="10.00">thorin/pass/fp/tail</text>
<text text-anchor="middle" x="1512.5" y="-522.5" font-family="Helvetica,sans-Serif" font-size="10.00">_rec_elim.h</text>
</a>
</g>
</g>
<!-- Node1&#45;&gt;Node55 -->
<g id="edge62" class="edge">
<title>Node1&#45;&gt;Node55</title>
<path fill="none" stroke="midnightblue" d="M1027.22,-591.55C1127.86,-585.08 1296.95,-571.64 1451.08,-546.09"/>
<polygon fill="midnightblue" stroke="midnightblue" points="1451.93,-549.5 1461.21,-544.39 1450.77,-542.6 1451.93,-549.5"/>
</g>
<!-- Node56 -->
<g id="node44" class="node">
<title>Node56</title>
<g id="a_node44"><a xlink:href="alloc2malloc_8h.html" target="_top" xlink:title=" ">
<polygon fill="none" stroke="black" points="1581.5,-521 1581.5,-540 1741.5,-540 1741.5,-521 1581.5,-521"/>
<text text-anchor="middle" x="1661.5" y="-528" font-family="Helvetica,sans-Serif" font-size="10.00">thorin/pass/rw/alloc2malloc.h</text>
</a>
</g>
</g>
<!-- Node1&#45;&gt;Node56 -->
<g id="edge64" class="edge">
<title>Node1&#45;&gt;Node56</title>
<path fill="none" stroke="midnightblue" d="M1027.19,-591.74C1150,-584.62 1378.61,-569.48 1572.5,-546 1582.52,-544.79 1593.15,-543.26 1603.43,-541.66"/>
<polygon fill="midnightblue" stroke="midnightblue" points="1604.24,-545.08 1613.57,-540.05 1603.14,-538.17 1604.24,-545.08"/>
</g>
<!-- Node57 -->
<g id="node45" class="node">
<title>Node57</title>
<g id="a_node45"><a xlink:href="bound__elim_8h.html" target="_top" xlink:title=" ">
<polygon fill="none" stroke="black" points="1084,-515.5 1084,-545.5 1203,-545.5 1203,-515.5 1084,-515.5"/>
<text text-anchor="start" x="1092" y="-533.5" font-family="Helvetica,sans-Serif" font-size="10.00">thorin/pass/rw/bound</text>
<text text-anchor="middle" x="1143.5" y="-522.5" font-family="Helvetica,sans-Serif" font-size="10.00">_elim.h</text>
</a>
</g>
</g>
<!-- Node1&#45;&gt;Node57 -->
<g id="edge66" class="edge">
<title>Node1&#45;&gt;Node57</title>
<path fill="none" stroke="midnightblue" d="M982.73,-582.48C1014.01,-572.56 1056.14,-559.2 1089.42,-548.65"/>
<polygon fill="midnightblue" stroke="midnightblue" points="1090.52,-551.97 1099,-545.61 1088.41,-545.3 1090.52,-551.97"/>
</g>
<!-- Node58 -->
<g id="node46" class="node">
<title>Node58</title>
<g id="a_node46"><a xlink:href="lam__spec_8h.html" target="_top" xlink:title=" ">
<polygon fill="none" stroke="black" points="270,-515.5 270,-545.5 377,-545.5 377,-515.5 270,-515.5"/>
<text text-anchor="start" x="278" y="-533.5" font-family="Helvetica,sans-Serif" font-size="10.00">thorin/pass/rw/lam</text>
<text text-anchor="middle" x="323.5" y="-522.5" font-family="Helvetica,sans-Serif" font-size="10.00">_spec.h</text>
</a>
</g>
</g>
<!-- Node1&#45;&gt;Node58 -->
<g id="edge67" class="edge">
<title>Node1&#45;&gt;Node58</title>
<path fill="none" stroke="midnightblue" d="M849.61,-592.07C742.27,-585.89 556.2,-572.51 387.1,-545.94"/>
<polygon fill="midnightblue" stroke="midnightblue" points="387.45,-542.45 377.02,-544.34 386.35,-549.36 387.45,-542.45"/>
</g>
<!-- Node59 -->
<g id="node47" class="node">
<title>Node59</title>
<g id="a_node47"><a xlink:href="partial__eval_8h.html" target="_top" xlink:title=" ">
<polygon fill="none" stroke="black" points="395.5,-515.5 395.5,-545.5 515.5,-545.5 515.5,-515.5 395.5,-515.5"/>
<text text-anchor="start" x="403.5" y="-533.5" font-family="Helvetica,sans-Serif" font-size="10.00">thorin/pass/rw/partial</text>
<text text-anchor="middle" x="455.5" y="-522.5" font-family="Helvetica,sans-Serif" font-size="10.00">_eval.h</text>
</a>
</g>
</g>
<!-- Node1&#45;&gt;Node59 -->
<g id="edge69" class="edge">
<title>Node1&#45;&gt;Node59</title>
<path fill="none" stroke="midnightblue" d="M849.75,-587.9C768.01,-579.47 643.17,-565.3 525.55,-546.09"/>
<polygon fill="midnightblue" stroke="midnightblue" points="526.09,-542.63 515.65,-544.46 524.95,-549.54 526.09,-542.63"/>
</g>
<!-- Node60 -->
<g id="node48" class="node">
<title>Node60</title>
<g id="a_node48"><a xlink:href="remem__elim_8h.html" target="_top" xlink:title=" ">
<polygon fill="none" stroke="black" points="533.5,-515.5 533.5,-545.5 657.5,-545.5 657.5,-515.5 533.5,-515.5"/>
<text text-anchor="start" x="541.5" y="-533.5" font-family="Helvetica,sans-Serif" font-size="10.00">thorin/pass/rw/remem</text>
<text text-anchor="middle" x="595.5" y="-522.5" font-family="Helvetica,sans-Serif" font-size="10.00">_elim.h</text>
</a>
</g>
</g>
<!-- Node1&#45;&gt;Node60 -->
<g id="edge71" class="edge">
<title>Node1&#45;&gt;Node60</title>
<path fill="none" stroke="midnightblue" d="M860.76,-582.45C808.76,-572.96 738.55,-559.98 667.81,-546.24"/>
<polygon fill="midnightblue" stroke="midnightblue" points="668.31,-542.77 657.83,-544.29 666.97,-549.64 668.31,-542.77"/>
</g>
<!-- Node61 -->
<g id="node49" class="node">
<title>Node61</title>
<g id="a_node49"><a xlink:href="ret__wrap_8h.html" target="_top" xlink:title=" ">
<polygon fill="none" stroke="black" points="675.5,-515.5 675.5,-545.5 777.5,-545.5 777.5,-515.5 675.5,-515.5"/>
<text text-anchor="start" x="683.5" y="-533.5" font-family="Helvetica,sans-Serif" font-size="10.00">thorin/pass/rw/ret</text>
<text text-anchor="middle" x="726.5" y="-522.5" font-family="Helvetica,sans-Serif" font-size="10.00">_wrap.h</text>
</a>
</g>
</g>
<!-- Node1&#45;&gt;Node61 -->
<g id="edge73" class="edge">
<title>Node1&#45;&gt;Node61</title>
<path fill="none" stroke="midnightblue" d="M892.76,-582.48C860.41,-572.56 816.85,-559.2 782.43,-548.65"/>
<polygon fill="midnightblue" stroke="midnightblue" points="783.11,-545.2 772.52,-545.61 781.06,-551.89 783.11,-545.2"/>
</g>
<!-- Node62 -->
<g id="node50" class="node">
<title>Node62</title>
<g id="a_node50"><a xlink:href="scalarize_8h.html" target="_top" xlink:title=" ">
<polygon fill="none" stroke="black" points="796,-521 796,-540 937,-540 937,-521 796,-521"/>
<text text-anchor="middle" x="866.5" y="-528" font-family="Helvetica,sans-Serif" font-size="10.00">thorin/pass/rw/scalarize.h</text>
</a>
</g>
</g>
<!-- Node1&#45;&gt;Node62 -->
<g id="edge75" class="edge">
<title>Node1&#45;&gt;Node62</title>
<path fill="none" stroke="midnightblue" d="M922.88,-582.4C911.32,-571.96 895.58,-557.75 883.67,-547"/>
<polygon fill="midnightblue" stroke="midnightblue" points="885.9,-544.3 876.13,-540.19 881.21,-549.49 885.9,-544.3"/>
</g>
<!-- Node4 -->
<g id="node4" class="node">
<title>Node4</title>
<g id="a_node4"><a xlink:href="pass_8h.html" target="_top" xlink:title=" ">
<polygon fill="none" stroke="black" points="958,-459.5 958,-478.5 1063,-478.5 1063,-459.5 958,-459.5"/>
<text text-anchor="middle" x="1010.5" y="-466.5" font-family="Helvetica,sans-Serif" font-size="10.00">thorin/pass/pass.h</text>
</a>
</g>
</g>
<!-- Node3&#45;&gt;Node4 -->
<g id="edge3" class="edge">
<title>Node3&#45;&gt;Node4</title>
<path fill="none" stroke="midnightblue" d="M251.69,-516.43C254.66,-515.9 257.61,-515.42 260.5,-515 513.48,-478.56 818.58,-471.54 947.81,-470.25"/>
<polygon fill="midnightblue" stroke="midnightblue" points="947.95,-473.75 957.91,-470.16 947.88,-466.75 947.95,-473.75"/>
</g>
<!-- Node5 -->
<g id="node5" class="node">
<title>Node5</title>
<g id="a_node5"><a xlink:title=" ">
<polygon fill="none" stroke="#bfbfbf" points="989,-403.5 989,-422.5 1032,-422.5 1032,-403.5 989,-403.5"/>
<text text-anchor="middle" x="1010.5" y="-410.5" font-family="Helvetica,sans-Serif" font-size="10.00">stack</text>
</a>
</g>
</g>
<!-- Node4&#45;&gt;Node5 -->
<g id="edge4" class="edge">
<title>Node4&#45;&gt;Node5</title>
<path fill="none" stroke="midnightblue" d="M1010.5,-459.08C1010.5,-452.01 1010.5,-441.86 1010.5,-432.99"/>
<polygon fill="midnightblue" stroke="midnightblue" points="1014,-432.75 1010.5,-422.75 1007,-432.75 1014,-432.75"/>
</g>
<!-- Node6 -->
<g id="node6" class="node">
<title>Node6</title>
<g id="a_node6"><a xlink:href="world_8h.html" target="_top" xlink:title=" ">
<polygon fill="none" stroke="black" points="1061.5,-403.5 1061.5,-422.5 1145.5,-422.5 1145.5,-403.5 1061.5,-403.5"/>
<text text-anchor="middle" x="1103.5" y="-410.5" font-family="Helvetica,sans-Serif" font-size="10.00">thorin/world.h</text>
</a>
</g>
</g>
<!-- Node4&#45;&gt;Node6 -->
<g id="edge5" class="edge">
<title>Node4&#45;&gt;Node6</title>
<path fill="none" stroke="midnightblue" d="M1025.44,-459.32C1040.09,-450.82 1062.63,-437.73 1079.74,-427.8"/>
<polygon fill="midnightblue" stroke="midnightblue" points="1081.7,-430.7 1088.6,-422.65 1078.19,-424.65 1081.7,-430.7"/>
</g>
<!-- Node7 -->
<g id="node7" class="node">
<title>Node7</title>
<g id="a_node7"><a xlink:title=" ">
<polygon fill="none" stroke="#bfbfbf" points="798.5,-56.5 798.5,-75.5 854.5,-75.5 854.5,-56.5 798.5,-56.5"/>
<text text-anchor="middle" x="826.5" y="-63.5" font-family="Helvetica,sans-Serif" font-size="10.00">sstream</text>
</a>
</g>
</g>
<!-- Node6&#45;&gt;Node7 -->
<g id="edge6" class="edge">
<title>Node6&#45;&gt;Node7</title>
<path fill="none" stroke="midnightblue" d="M1073.44,-403.37C1052.57,-396.23 1025.1,-384.4 1005.5,-367 932.26,-301.96 955.27,-252.48 890.5,-179 873.56,-159.79 859.33,-164.56 845.5,-143 834.39,-125.68 829.77,-102.29 827.86,-86.05"/>
<polygon fill="midnightblue" stroke="midnightblue" points="831.3,-85.31 826.89,-75.68 824.34,-85.97 831.3,-85.31"/>
</g>
<!-- Node8 -->
<g id="node8" class="node">
<title>Node8</title>
<g id="a_node8"><a xlink:title=" ">
<polygon fill="none" stroke="#bfbfbf" points="1075.5,-56.5 1075.5,-75.5 1119.5,-75.5 1119.5,-56.5 1075.5,-56.5"/>
<text text-anchor="middle" x="1097.5" y="-63.5" font-family="Helvetica,sans-Serif" font-size="10.00">string</text>
</a>
</g>
</g>
<!-- Node6&#45;&gt;Node8 -->
<g id="edge7" class="edge">
<title>Node6&#45;&gt;Node8</title>
<path fill="none" stroke="midnightblue" d="M1145.51,-409.12C1174.33,-404.7 1210.63,-393.77 1229.5,-367 1248.96,-339.39 1233.06,-324.59 1229.5,-291 1226.82,-265.69 1227.78,-258.29 1217.5,-235 1190.23,-173.22 1138.11,-111.38 1112.48,-83.03"/>
<polygon fill="midnightblue" stroke="midnightblue" points="1115.05,-80.66 1105.71,-75.65 1109.89,-85.39 1115.05,-80.66"/>
</g>
<!-- Node9 -->
<g id="node9" class="node">
<title>Node9</title>
<g id="a_node9"><a xlink:href="axiom_8h.html" target="_top" xlink:title=" ">
<polygon fill="none" stroke="black" points="1132.5,-347.5 1132.5,-366.5 1220.5,-366.5 1220.5,-347.5 1132.5,-347.5"/>
<text text-anchor="middle" x="1176.5" y="-354.5" font-family="Helvetica,sans-Serif" font-size="10.00">thorin/axiom.h</text>
</a>
</g>
</g>
<!-- Node6&#45;&gt;Node9 -->
<g id="edge8" class="edge">
<title>Node6&#45;&gt;Node9</title>
<path fill="none" stroke="midnightblue" d="M1115.23,-403.32C1126.34,-395.11 1143.24,-382.6 1156.48,-372.81"/>
<polygon fill="midnightblue" stroke="midnightblue" points="1158.6,-375.59 1164.56,-366.83 1154.44,-369.97 1158.6,-375.59"/>
</g>
<!-- Node15 -->
<g id="node15" class="node">
<title>Node15</title>
<g id="a_node15"><a xlink:href="debug_8h.html" target="_top" xlink:title=" ">
<polygon fill="none" stroke="black" points="963,-179.5 963,-198.5 1050,-198.5 1050,-179.5 963,-179.5"/>
<text text-anchor="middle" x="1006.5" y="-186.5" font-family="Helvetica,sans-Serif" font-size="10.00">thorin/debug.h</text>
</a>
</g>
</g>
<!-- Node6&#45;&gt;Node15 -->
<g id="edge39" class="edge">
<title>Node6&#45;&gt;Node15</title>
<path fill="none" stroke="midnightblue" d="M1071.84,-403.44C1053.36,-396.7 1031.4,-385.31 1019.5,-367 987.38,-317.55 996.02,-243.13 1002.42,-208.69"/>
<polygon fill="midnightblue" stroke="midnightblue" points="1005.91,-209.14 1004.45,-198.65 999.04,-207.76 1005.91,-209.14"/>
</g>
<!-- Node44 -->
<g id="node31" class="node">
<title>Node44</title>
<g id="a_node31"><a xlink:href="hash_8h.html" target="_top" xlink:title=" ">
<polygon fill="none" stroke="black" points="1539,-179.5 1539,-198.5 1638,-198.5 1638,-179.5 1539,-179.5"/>
<text text-anchor="middle" x="1588.5" y="-186.5" font-family="Helvetica,sans-Serif" font-size="10.00">thorin/util/hash.h</text>
</a>
</g>
</g>
<!-- Node6&#45;&gt;Node44 -->
<g id="edge49" class="edge">
<title>Node6&#45;&gt;Node44</title>
<path fill="none" stroke="midnightblue" d="M1145.55,-409.05C1218.08,-402.2 1368.93,-380.12 1473.5,-311 1517.64,-281.82 1557.31,-232.72 1576.44,-206.95"/>
<polygon fill="midnightblue" stroke="midnightblue" points="1579.47,-208.74 1582.53,-198.59 1573.81,-204.62 1579.47,-208.74"/>
</g>
<!-- Node45 -->
<g id="node32" class="node">
<title>Node45</title>
<g id="a_node32"><a xlink:title=" ">
<polygon fill="none" stroke="#bfbfbf" points="1028.5,-347.5 1028.5,-366.5 1114.5,-366.5 1114.5,-347.5 1028.5,-347.5"/>
<text text-anchor="middle" x="1071.5" y="-354.5" font-family="Helvetica,sans-Serif" font-size="10.00">thorin/config.h</text>
</a>
</g>
</g>
<!-- Node6&#45;&gt;Node45 -->
<g id="edge38" class="edge">
<title>Node6&#45;&gt;Node45</title>
<path fill="none" stroke="midnightblue" d="M1098.22,-403.08C1093.79,-395.61 1087.34,-384.72 1081.88,-375.52"/>
<polygon fill="midnightblue" stroke="midnightblue" points="1084.79,-373.57 1076.69,-366.75 1078.77,-377.14 1084.79,-373.57"/>
</g>
<!-- Node46 -->
<g id="node33" class="node">
<title>Node46</title>
<g id="a_node33"><a xlink:href="error_8h.html" target="_top" xlink:title=" ">
<polygon fill="none" stroke="black" points="806.5,-235.5 806.5,-254.5 886.5,-254.5 886.5,-235.5 806.5,-235.5"/>
<text text-anchor="middle" x="846.5" y="-242.5" font-family="Helvetica,sans-Serif" font-size="10.00">thorin/error.h</text>
</a>
</g>
</g>
<!-- Node6&#45;&gt;Node46 -->
<g id="edge40" class="edge">
<title>Node6&#45;&gt;Node46</title>
<path fill="none" stroke="midnightblue" d="M1061.44,-404.76C1005.7,-394.85 912.91,-377.13 900.5,-367 868.38,-340.78 854.72,-291.5 849.45,-264.63"/>
<polygon fill="midnightblue" stroke="midnightblue" points="852.87,-263.85 847.67,-254.61 845.97,-265.07 852.87,-263.85"/>
</g>
<!-- Node48 -->
<g id="node35" class="node">
<title>Node48</title>
<g id="a_node35"><a xlink:href="lattice_8h.html" target="_top" xlink:title=" ">
<polygon fill="none" stroke="black" points="1376.5,-291.5 1376.5,-310.5 1464.5,-310.5 1464.5,-291.5 1376.5,-291.5"/>
<text text-anchor="middle" x="1420.5" y="-298.5" font-family="Helvetica,sans-Serif" font-size="10.00">thorin/lattice.h</text>
</a>
</g>
</g>
<!-- Node6&#45;&gt;Node48 -->
<g id="edge45" class="edge">
<title>Node6&#45;&gt;Node48</title>
<path fill="none" stroke="midnightblue" d="M1145.54,-404.4C1183.34,-396.93 1240.03,-384.18 1287.5,-367 1327.1,-352.67 1370.5,-330.05 1396.61,-315.63"/>
<polygon fill="midnightblue" stroke="midnightblue" points="1398.38,-318.65 1405.41,-310.71 1394.97,-312.53 1398.38,-318.65"/>
</g>
<!-- Node49 -->
<g id="node36" class="node">
<title>Node49</title>
<g id="a_node36"><a xlink:href="tuple_8h.html" target="_top" xlink:title=" ">
<polygon fill="none" stroke="black" points="1276.5,-291.5 1276.5,-310.5 1358.5,-310.5 1358.5,-291.5 1276.5,-291.5"/>
<text text-anchor="middle" x="1317.5" y="-298.5" font-family="Helvetica,sans-Serif" font-size="10.00">thorin/tuple.h</text>
</a>
</g>
</g>
<!-- Node6&#45;&gt;Node49 -->
<g id="edge47" class="edge">
<title>Node6&#45;&gt;Node49</title>
<path fill="none" stroke="midnightblue" d="M1145.8,-406.95C1179.56,-401.36 1226.92,-389.91 1262.5,-367 1281.46,-354.79 1297.36,-334.04 1307.11,-319.27"/>
<polygon fill="midnightblue" stroke="midnightblue" points="1310.22,-320.91 1312.6,-310.58 1304.3,-317.17 1310.22,-320.91"/>
</g>
<!-- Node10 -->
<g id="node10" class="node">
<title>Node10</title>
<g id="a_node10"><a xlink:href="lam_8h.html" target="_top" xlink:title=" ">
<polygon fill="none" stroke="black" points="1144.5,-291.5 1144.5,-310.5 1220.5,-310.5 1220.5,-291.5 1144.5,-291.5"/>
<text text-anchor="middle" x="1182.5" y="-298.5" font-family="Helvetica,sans-Serif" font-size="10.00">thorin/lam.h</text>
</a>
</g>
</g>
<!-- Node9&#45;&gt;Node10 -->
<g id="edge9" class="edge">
<title>Node9&#45;&gt;Node10</title>
<path fill="none" stroke="midnightblue" d="M1177.49,-347.08C1178.29,-339.93 1179.43,-329.64 1180.42,-320.69"/>
<polygon fill="midnightblue" stroke="midnightblue" points="1183.9,-321.08 1181.53,-310.75 1176.94,-320.3 1183.9,-321.08"/>
</g>
<!-- Node24 -->
<g id="node23" class="node">
<title>Node24</title>
<g id="a_node23"><a xlink:href="assert_8h.html" target="_top" xlink:title=" ">
<polygon fill="none" stroke="black" points="1137.5,-56.5 1137.5,-75.5 1243.5,-75.5 1243.5,-56.5 1137.5,-56.5"/>
<text text-anchor="middle" x="1190.5" y="-63.5" font-family="Helvetica,sans-Serif" font-size="10.00">thorin/util/assert.h</text>
</a>
</g>
</g>
<!-- Node9&#45;&gt;Node24 -->
<g id="edge37" class="edge">
<title>Node9&#45;&gt;Node24</title>
<path fill="none" stroke="midnightblue" d="M1164.96,-347.49C1155.02,-339.38 1141.38,-326.18 1135.5,-311 1132.29,-302.71 1134.49,-299.83 1135.5,-291 1144.42,-213.15 1171.84,-123.43 1184.26,-85.48"/>
<polygon fill="midnightblue" stroke="midnightblue" points="1187.64,-86.41 1187.47,-75.81 1181,-84.2 1187.64,-86.41"/>
</g>
<!-- Node11 -->
<g id="node11" class="node">
<title>Node11</title>
<g id="a_node11"><a xlink:title=" ">
<polygon fill="none" stroke="#bfbfbf" points="1157,-235.5 1157,-254.5 1208,-254.5 1208,-235.5 1157,-235.5"/>
<text text-anchor="middle" x="1182.5" y="-242.5" font-family="Helvetica,sans-Serif" font-size="10.00">variant</text>
</a>
</g>
</g>
<!-- Node10&#45;&gt;Node11 -->
<g id="edge10" class="edge">
<title>Node10&#45;&gt;Node11</title>
<path fill="none" stroke="midnightblue" d="M1182.5,-291.08C1182.5,-284.01 1182.5,-273.86 1182.5,-264.99"/>
<polygon fill="midnightblue" stroke="midnightblue" points="1186,-264.75 1182.5,-254.75 1179,-264.75 1186,-264.75"/>
</g>
<!-- Node12 -->
<g id="node12" class="node">
<title>Node12</title>
<g id="a_node12"><a xlink:href="def_8h.html" target="_top" xlink:title=" ">
<polygon fill="none" stroke="red" points="1317.5,-235.5 1317.5,-254.5 1389.5,-254.5 1389.5,-235.5 1317.5,-235.5"/>
<text text-anchor="middle" x="1353.5" y="-242.5" font-family="Helvetica,sans-Serif" font-size="10.00">thorin/def.h</text>
</a>
</g>
</g>
<!-- Node10&#45;&gt;Node12 -->
<g id="edge11" class="edge">
<title>Node10&#45;&gt;Node12</title>
<path fill="none" stroke="midnightblue" d="M1209.6,-291.44C1238.49,-282.32 1284.42,-267.81 1316.61,-257.65"/>
<polygon fill="midnightblue" stroke="midnightblue" points="1318.05,-260.87 1326.53,-254.52 1315.94,-254.19 1318.05,-260.87"/>
</g>
<!-- Node13 -->
<g id="node13" class="node">
<title>Node13</title>
<g id="a_node13"><a xlink:title=" ">
<polygon fill="none" stroke="#bfbfbf" points="1255.5,-179.5 1255.5,-198.5 1311.5,-198.5 1311.5,-179.5 1255.5,-179.5"/>
<text text-anchor="middle" x="1283.5" y="-186.5" font-family="Helvetica,sans-Serif" font-size="10.00">optional</text>
</a>
</g>
</g>
<!-- Node12&#45;&gt;Node13 -->
<g id="edge12" class="edge">
<title>Node12&#45;&gt;Node13</title>
<path fill="none" stroke="midnightblue" d="M1342.25,-235.32C1331.7,-227.18 1315.7,-214.84 1303.06,-205.09"/>
<polygon fill="midnightblue" stroke="midnightblue" points="1305.01,-202.17 1294.95,-198.83 1300.73,-207.71 1305.01,-202.17"/>
</g>
<!-- Node14 -->
<g id="node14" class="node">
<title>Node14</title>
<g id="a_node14"><a xlink:title=" ">
<polygon fill="none" stroke="#bfbfbf" points="1330,-179.5 1330,-198.5 1377,-198.5 1377,-179.5 1330,-179.5"/>
<text text-anchor="middle" x="1353.5" y="-186.5" font-family="Helvetica,sans-Serif" font-size="10.00">vector</text>
</a>
</g>
</g>
<!-- Node12&#45;&gt;Node14 -->
<g id="edge13" class="edge">
<title>Node12&#45;&gt;Node14</title>
<path fill="none" stroke="midnightblue" d="M1353.5,-235.08C1353.5,-228.01 1353.5,-217.86 1353.5,-208.99"/>
<polygon fill="midnightblue" stroke="midnightblue" points="1357,-208.75 1353.5,-198.75 1350,-208.75 1357,-208.75"/>
</g>
<!-- Node12&#45;&gt;Node15 -->
<g id="edge14" class="edge">
<title>Node12&#45;&gt;Node15</title>
<path fill="none" stroke="midnightblue" d="M1317.35,-238.37C1256.13,-228.85 1131.77,-209.49 1060.3,-198.37"/>
<polygon fill="midnightblue" stroke="midnightblue" points="1060.57,-194.87 1050.15,-196.79 1059.49,-201.79 1060.57,-194.87"/>
</g>
<!-- Node18 -->
<g id="node18" class="node">
<title>Node18</title>
<g id="a_node18"><a xlink:href="tables_8h.html" target="_top" xlink:title=" ">
<polygon fill="none" stroke="red" points="1434,-179.5 1434,-198.5 1521,-198.5 1521,-179.5 1434,-179.5"/>
<text text-anchor="middle" x="1477.5" y="-186.5" font-family="Helvetica,sans-Serif" font-size="10.00">thorin/tables.h</text>
</a>
</g>
</g>
<!-- Node12&#45;&gt;Node18 -->
<g id="edge18" class="edge">
<title>Node12&#45;&gt;Node18</title>
<path fill="none" stroke="midnightblue" d="M1373.15,-235.44C1393.46,-226.6 1425.4,-212.69 1448.6,-202.59"/>
<polygon fill="midnightblue" stroke="midnightblue" points="1450.17,-205.72 1457.94,-198.52 1447.38,-199.3 1450.17,-205.72"/>
</g>
<!-- Node20 -->
<g id="node19" class="node">
<title>Node20</title>
<g id="a_node19"><a xlink:href="print_8h.html" target="_top" xlink:title=" ">
<polygon fill="none" stroke="black" points="1242.5,-118 1242.5,-137 1340.5,-137 1340.5,-118 1242.5,-118"/>
<text text-anchor="middle" x="1291.5" y="-125" font-family="Helvetica,sans-Serif" font-size="10.00">thorin/util/print.h</text>
</a>
</g>
</g>
<!-- Node12&#45;&gt;Node20 -->
<g id="edge36" class="edge">
<title>Node12&#45;&gt;Node20</title>
<path fill="none" stroke="midnightblue" d="M1363.6,-235.38C1377.15,-222.73 1398.23,-198.53 1386.5,-179 1375.31,-160.37 1354.67,-148.25 1335.48,-140.56"/>
<polygon fill="midnightblue" stroke="midnightblue" points="1336.52,-137.21 1325.93,-137.03 1334.1,-143.78 1336.52,-137.21"/>
</g>
<!-- Node12&#45;&gt;Node44 -->
<g id="edge34" class="edge">
<title>Node12&#45;&gt;Node44</title>
<path fill="none" stroke="midnightblue" d="M1389.7,-235.68C1430.52,-226.3 1497.01,-211.02 1541.73,-200.75"/>
<polygon fill="midnightblue" stroke="midnightblue" points="1542.52,-204.16 1551.48,-198.51 1540.95,-197.34 1542.52,-204.16"/>
</g>
<!-- Node15&#45;&gt;Node8 -->
<g id="edge15" class="edge">
<title>Node15&#45;&gt;Node8</title>
<path fill="none" stroke="midnightblue" d="M1037.18,-179.37C1055.45,-172.56 1077.38,-161.12 1089.5,-143 1100.77,-126.15 1101.44,-102.35 1100.14,-85.89"/>
<polygon fill="midnightblue" stroke="midnightblue" points="1103.61,-85.41 1099.04,-75.85 1096.65,-86.17 1103.61,-85.41"/>
</g>
<!-- Node16 -->
<g id="node16" class="node">
<title>Node16</title>
<g id="a_node16"><a xlink:title=" ">
<polygon fill="none" stroke="#bfbfbf" points="854.5,-112.5 854.5,-142.5 958.5,-142.5 958.5,-112.5 854.5,-112.5"/>
<text text-anchor="start" x="862.5" y="-130.5" font-family="Helvetica,sans-Serif" font-size="10.00">absl/container/flat</text>
<text text-anchor="middle" x="906.5" y="-119.5" font-family="Helvetica,sans-Serif" font-size="10.00">_hash_map.h</text>
</a>
</g>
</g>
<!-- Node15&#45;&gt;Node16 -->
<g id="edge16" class="edge">
<title>Node15&#45;&gt;Node16</title>
<path fill="none" stroke="midnightblue" d="M992.17,-179.48C978.38,-171.27 957.02,-158.56 939.08,-147.88"/>
<polygon fill="midnightblue" stroke="midnightblue" points="940.45,-144.63 930.07,-142.52 936.87,-150.64 940.45,-144.63"/>
</g>
<!-- Node17 -->
<g id="node17" class="node">
<title>Node17</title>
<g id="a_node17"><a xlink:title=" ">
<polygon fill="none" stroke="#bfbfbf" points="976.5,-112.5 976.5,-142.5 1080.5,-142.5 1080.5,-112.5 976.5,-112.5"/>
<text text-anchor="start" x="984.5" y="-130.5" font-family="Helvetica,sans-Serif" font-size="10.00">absl/container/flat</text>
<text text-anchor="middle" x="1028.5" y="-119.5" font-family="Helvetica,sans-Serif" font-size="10.00">_hash_set.h</text>
</a>
</g>
</g>
<!-- Node15&#45;&gt;Node17 -->
<g id="edge17" class="edge">
<title>Node15&#45;&gt;Node17</title>
<path fill="none" stroke="midnightblue" d="M1009.65,-179.48C1012.3,-172.32 1016.21,-161.75 1019.78,-152.08"/>
<polygon fill="midnightblue" stroke="midnightblue" points="1023.13,-153.12 1023.32,-142.52 1016.56,-150.69 1023.13,-153.12"/>
</g>
<!-- Node18&#45;&gt;Node20 -->
<g id="edge19" class="edge">
<title>Node18&#45;&gt;Node20</title>
<path fill="none" stroke="midnightblue" d="M1450.85,-179.48C1418.53,-169.14 1363.9,-151.66 1327.77,-140.1"/>
<polygon fill="midnightblue" stroke="midnightblue" points="1328.69,-136.72 1318.1,-137.01 1326.56,-143.39 1328.69,-136.72"/>
</g>
<!-- Node26 -->
<g id="node25" class="node">
<title>Node26</title>
<g id="a_node25"><a xlink:href="types_8h.html" target="_top" xlink:title=" ">
<polygon fill="none" stroke="black" points="1542,-118 1542,-137 1645,-137 1645,-118 1542,-118"/>
<text text-anchor="middle" x="1593.5" y="-125" font-family="Helvetica,sans-Serif" font-size="10.00">thorin/util/types.h</text>
</a>
</g>
</g>
<!-- Node18&#45;&gt;Node26 -->
<g id="edge27" class="edge">
<title>Node18&#45;&gt;Node26</title>
<path fill="none" stroke="midnightblue" d="M1494.12,-179.48C1513.42,-169.58 1545.46,-153.14 1567.93,-141.62"/>
<polygon fill="midnightblue" stroke="midnightblue" points="1569.61,-144.69 1576.91,-137.01 1566.42,-138.46 1569.61,-144.69"/>
</g>
<!-- Node20&#45;&gt;Node7 -->
<g id="edge23" class="edge">
<title>Node20&#45;&gt;Node7</title>
<path fill="none" stroke="midnightblue" d="M1242.18,-120.19C1148.93,-108.26 948.63,-82.63 864.72,-71.89"/>
<polygon fill="midnightblue" stroke="midnightblue" points="864.97,-68.39 854.61,-70.6 864.08,-75.34 864.97,-68.39"/>
</g>
<!-- Node20&#45;&gt;Node8 -->
<g id="edge24" class="edge">
<title>Node20&#45;&gt;Node8</title>
<path fill="none" stroke="midnightblue" d="M1263.7,-117.98C1228.17,-107.08 1166.8,-88.25 1129.4,-76.78"/>
<polygon fill="midnightblue" stroke="midnightblue" points="1130.12,-73.34 1119.53,-73.76 1128.06,-80.03 1130.12,-73.34"/>
</g>
<!-- Node21 -->
<g id="node20" class="node">
<title>Node21</title>
<g id="a_node20"><a xlink:title=" ">
<polygon fill="none" stroke="#bfbfbf" points="1261.5,-56.5 1261.5,-75.5 1321.5,-75.5 1321.5,-56.5 1261.5,-56.5"/>
<text text-anchor="middle" x="1291.5" y="-63.5" font-family="Helvetica,sans-Serif" font-size="10.00">iostream</text>
</a>
</g>
</g>
<!-- Node20&#45;&gt;Node21 -->
<g id="edge20" class="edge">
<title>Node20&#45;&gt;Node21</title>
<path fill="none" stroke="midnightblue" d="M1291.5,-117.98C1291.5,-109.58 1291.5,-96.48 1291.5,-85.66"/>
<polygon fill="midnightblue" stroke="midnightblue" points="1295,-85.51 1291.5,-75.51 1288,-85.51 1295,-85.51"/>
</g>
<!-- Node22 -->
<g id="node21" class="node">
<title>Node22</title>
<g id="a_node21"><a xlink:title=" ">
<polygon fill="none" stroke="#bfbfbf" points="1408,-56.5 1408,-75.5 1465,-75.5 1465,-56.5 1408,-56.5"/>
<text text-anchor="middle" x="1436.5" y="-63.5" font-family="Helvetica,sans-Serif" font-size="10.00">ostream</text>
</a>
</g>
</g>
<!-- Node20&#45;&gt;Node22 -->
<g id="edge21" class="edge">
<title>Node20&#45;&gt;Node22</title>
<path fill="none" stroke="midnightblue" d="M1312.27,-117.98C1336.93,-107.86 1378.25,-90.9 1406.4,-79.35"/>
<polygon fill="midnightblue" stroke="midnightblue" points="1407.84,-82.54 1415.76,-75.51 1405.18,-76.07 1407.84,-82.54"/>
</g>
<!-- Node23 -->
<g id="node22" class="node">
<title>Node23</title>
<g id="a_node22"><a xlink:title=" ">
<polygon fill="none" stroke="#bfbfbf" points="1339.5,-56.5 1339.5,-75.5 1389.5,-75.5 1389.5,-56.5 1339.5,-56.5"/>
<text text-anchor="middle" x="1364.5" y="-63.5" font-family="Helvetica,sans-Serif" font-size="10.00">ranges</text>
</a>
</g>
</g>
<!-- Node20&#45;&gt;Node23 -->
<g id="edge22" class="edge">
<title>Node20&#45;&gt;Node23</title>
<path fill="none" stroke="midnightblue" d="M1301.96,-117.98C1313.45,-108.61 1332.13,-93.38 1346.09,-82.01"/>
<polygon fill="midnightblue" stroke="midnightblue" points="1348.52,-84.54 1354.06,-75.51 1344.1,-79.11 1348.52,-84.54"/>
</g>
<!-- Node20&#45;&gt;Node24 -->
<g id="edge25" class="edge">
<title>Node20&#45;&gt;Node24</title>
<path fill="none" stroke="midnightblue" d="M1277.03,-117.98C1260.53,-108.25 1233.32,-92.23 1213.82,-80.74"/>
<polygon fill="midnightblue" stroke="midnightblue" points="1215.34,-77.57 1204.94,-75.51 1211.78,-83.6 1215.34,-77.57"/>
</g>
<!-- Node25 -->
<g id="node24" class="node">
<title>Node25</title>
<g id="a_node24"><a xlink:title=" ">
<polygon fill="none" stroke="#bfbfbf" points="1164.5,-0.5 1164.5,-19.5 1216.5,-19.5 1216.5,-0.5 1164.5,-0.5"/>
<text text-anchor="middle" x="1190.5" y="-7.5" font-family="Helvetica,sans-Serif" font-size="10.00">cassert</text>
</a>
</g>
</g>
<!-- Node24&#45;&gt;Node25 -->
<g id="edge26" class="edge">
<title>Node24&#45;&gt;Node25</title>
<path fill="none" stroke="midnightblue" d="M1190.5,-56.08C1190.5,-49.01 1190.5,-38.86 1190.5,-29.99"/>
<polygon fill="midnightblue" stroke="midnightblue" points="1194,-29.75 1190.5,-19.75 1187,-29.75 1194,-29.75"/>
</g>
<!-- Node26&#45;&gt;Node22 -->
<g id="edge30" class="edge">
<title>Node26&#45;&gt;Node22</title>
<path fill="none" stroke="midnightblue" d="M1571.01,-117.98C1544.19,-107.81 1499.18,-90.76 1468.69,-79.2"/>
<polygon fill="midnightblue" stroke="midnightblue" points="1469.54,-75.78 1458.95,-75.51 1467.06,-82.33 1469.54,-75.78"/>
</g>
<!-- Node27 -->
<g id="node26" class="node">
<title>Node27</title>
<g id="a_node26"><a xlink:title=" ">
<polygon fill="none" stroke="#bfbfbf" points="1771.5,-56.5 1771.5,-75.5 1821.5,-75.5 1821.5,-56.5 1771.5,-56.5"/>
<text text-anchor="middle" x="1796.5" y="-63.5" font-family="Helvetica,sans-Serif" font-size="10.00">cstdint</text>
</a>
</g>
</g>
<!-- Node26&#45;&gt;Node27 -->
<g id="edge28" class="edge">
<title>Node26&#45;&gt;Node27</title>
<path fill="none" stroke="midnightblue" d="M1622.58,-117.98C1659.3,-107.22 1722.38,-88.73 1761.63,-77.22"/>
<polygon fill="midnightblue" stroke="midnightblue" points="1762.7,-80.56 1771.31,-74.38 1760.73,-73.84 1762.7,-80.56"/>
</g>
<!-- Node28 -->
<g id="node27" class="node">
<title>Node28</title>
<g id="a_node27"><a xlink:title=" ">
<polygon fill="none" stroke="#bfbfbf" points="1709.5,-56.5 1709.5,-75.5 1753.5,-75.5 1753.5,-56.5 1709.5,-56.5"/>
<text text-anchor="middle" x="1731.5" y="-63.5" font-family="Helvetica,sans-Serif" font-size="10.00">limits</text>
</a>
</g>
</g>
<!-- Node26&#45;&gt;Node28 -->
<g id="edge29" class="edge">
<title>Node26&#45;&gt;Node28</title>
<path fill="none" stroke="midnightblue" d="M1613.27,-117.98C1636.64,-107.9 1675.71,-91.05 1702.5,-79.5"/>
<polygon fill="midnightblue" stroke="midnightblue" points="1703.97,-82.68 1711.76,-75.51 1701.2,-76.25 1703.97,-82.68"/>
</g>
<!-- Node29 -->
<g id="node28" class="node">
<title>Node29</title>
<g id="a_node28"><a xlink:title=" ">
<polygon fill="none" stroke="#bfbfbf" points="1483,-56.5 1483,-75.5 1552,-75.5 1552,-56.5 1483,-56.5"/>
<text text-anchor="middle" x="1517.5" y="-63.5" font-family="Helvetica,sans-Serif" font-size="10.00">type_traits</text>
</a>
</g>
</g>
<!-- Node26&#45;&gt;Node29 -->
<g id="edge31" class="edge">
<title>Node26&#45;&gt;Node29</title>
<path fill="none" stroke="midnightblue" d="M1582.61,-117.98C1570.53,-108.52 1550.83,-93.1 1536.26,-81.69"/>
<polygon fill="midnightblue" stroke="midnightblue" points="1538.4,-78.92 1528.37,-75.51 1534.09,-84.43 1538.4,-78.92"/>
</g>
<!-- Node30 -->
<g id="node29" class="node">
<title>Node30</title>
<g id="a_node29"><a xlink:title=" ">
<polygon fill="none" stroke="#bfbfbf" points="1570,-56.5 1570,-75.5 1617,-75.5 1617,-56.5 1570,-56.5"/>
<text text-anchor="middle" x="1593.5" y="-63.5" font-family="Helvetica,sans-Serif" font-size="10.00">cmath</text>
</a>
</g>
</g>
<!-- Node26&#45;&gt;Node30 -->
<g id="edge32" class="edge">
<title>Node26&#45;&gt;Node30</title>
<path fill="none" stroke="midnightblue" d="M1593.5,-117.98C1593.5,-109.58 1593.5,-96.48 1593.5,-85.66"/>
<polygon fill="midnightblue" stroke="midnightblue" points="1597,-85.51 1593.5,-75.51 1590,-85.51 1597,-85.51"/>
</g>
<!-- Node31 -->
<g id="node30" class="node">
<title>Node31</title>
<g id="a_node30"><a xlink:title=" ">
<polygon fill="none" stroke="#bfbfbf" points="1635.5,-56.5 1635.5,-75.5 1691.5,-75.5 1691.5,-56.5 1635.5,-56.5"/>
<text text-anchor="middle" x="1663.5" y="-63.5" font-family="Helvetica,sans-Serif" font-size="10.00">half.hpp</text>
</a>
</g>
</g>
<!-- Node26&#45;&gt;Node31 -->
<g id="edge33" class="edge">
<title>Node26&#45;&gt;Node31</title>
<path fill="none" stroke="midnightblue" d="M1603.53,-117.98C1614.55,-108.61 1632.46,-93.38 1645.84,-82.01"/>
<polygon fill="midnightblue" stroke="midnightblue" points="1648.14,-84.65 1653.49,-75.51 1643.6,-79.32 1648.14,-84.65"/>
</g>
<!-- Node44&#45;&gt;Node26 -->
<g id="edge35" class="edge">
<title>Node44&#45;&gt;Node26</title>
<path fill="none" stroke="midnightblue" d="M1589.22,-179.48C1589.92,-171.08 1591.02,-157.98 1591.93,-147.16"/>
<polygon fill="midnightblue" stroke="midnightblue" points="1595.44,-147.27 1592.78,-137.01 1588.46,-146.68 1595.44,-147.27"/>
</g>
<!-- Node46&#45;&gt;Node7 -->
<g id="edge41" class="edge">
<title>Node46&#45;&gt;Node7</title>
<path fill="none" stroke="midnightblue" d="M835.51,-235.37C826.05,-227.17 813.06,-213.92 807.5,-199 792.99,-160.11 808.13,-110.94 818.5,-84.97"/>
<polygon fill="midnightblue" stroke="midnightblue" points="821.77,-86.22 822.42,-75.65 815.32,-83.51 821.77,-86.22"/>
</g>
<!-- Node46&#45;&gt;Node15 -->
<g id="edge43" class="edge">
<title>Node46&#45;&gt;Node15</title>
<path fill="none" stroke="midnightblue" d="M871.85,-235.44C898.77,-226.36 941.5,-211.94 971.59,-201.78"/>
<polygon fill="midnightblue" stroke="midnightblue" points="972.91,-205.03 981.27,-198.52 970.67,-198.4 972.91,-205.03"/>
</g>
<!-- Node46&#45;&gt;Node20 -->
<g id="edge44" class="edge">
<title>Node46&#45;&gt;Node20</title>
<path fill="none" stroke="midnightblue" d="M886.78,-236.57C929.8,-228.39 999.83,-214.34 1059.5,-199 1130,-180.88 1211.11,-155.07 1256.33,-140.23"/>
<polygon fill="midnightblue" stroke="midnightblue" points="1257.56,-143.51 1265.96,-137.06 1255.36,-136.86 1257.56,-143.51"/>
</g>
<!-- Node47 -->
<g id="node34" class="node">
<title>Node47</title>
<g id="a_node34"><a xlink:title=" ">
<polygon fill="none" stroke="#bfbfbf" points="817,-179.5 817,-198.5 882,-198.5 882,-179.5 817,-179.5"/>
<text text-anchor="middle" x="849.5" y="-186.5" font-family="Helvetica,sans-Serif" font-size="10.00">stdexcept</text>
</a>
</g>
</g>
<!-- Node46&#45;&gt;Node47 -->
<g id="edge42" class="edge">
<title>Node46&#45;&gt;Node47</title>
<path fill="none" stroke="midnightblue" d="M847,-235.08C847.39,-228.01 847.95,-217.86 848.45,-208.99"/>
<polygon fill="midnightblue" stroke="midnightblue" points="851.95,-208.93 849.01,-198.75 844.96,-208.54 851.95,-208.93"/>
</g>
<!-- Node48&#45;&gt;Node12 -->
<g id="edge46" class="edge">
<title>Node48&#45;&gt;Node12</title>
<path fill="none" stroke="midnightblue" d="M1409.74,-291.32C1399.73,-283.26 1384.61,-271.08 1372.57,-261.37"/>
<polygon fill="midnightblue" stroke="midnightblue" points="1374.44,-258.38 1364.46,-254.83 1370.05,-263.83 1374.44,-258.38"/>
</g>
<!-- Node49&#45;&gt;Node12 -->
<g id="edge48" class="edge">
<title>Node49&#45;&gt;Node12</title>
<path fill="none" stroke="midnightblue" d="M1323.44,-291.08C1328.48,-283.53 1335.84,-272.49 1342.01,-263.23"/>
<polygon fill="midnightblue" stroke="midnightblue" points="1345.03,-265.01 1347.67,-254.75 1339.21,-261.13 1345.03,-265.01"/>
</g>
<!-- Node50&#45;&gt;Node4 -->
<g id="edge51" class="edge">
<title>Node50&#45;&gt;Node4</title>
<path fill="none" stroke="midnightblue" d="M1010.5,-515.4C1010.5,-507.47 1010.5,-497.46 1010.5,-488.86"/>
<polygon fill="midnightblue" stroke="midnightblue" points="1014,-488.66 1010.5,-478.66 1007,-488.66 1014,-488.66"/>
</g>
<!-- Node51&#45;&gt;Node4 -->
<g id="edge53" class="edge">
<title>Node51&#45;&gt;Node4</title>
<path fill="none" stroke="midnightblue" d="M1221.45,-517.1C1218.42,-516.38 1215.42,-515.68 1212.5,-515 1160.39,-502.9 1100.57,-489.65 1059.63,-480.69"/>
<polygon fill="midnightblue" stroke="midnightblue" points="1060.17,-477.22 1049.65,-478.5 1058.67,-484.06 1060.17,-477.22"/>
</g>
<!-- Node52&#45;&gt;Node4 -->
<g id="edge55" class="edge">
<title>Node52&#45;&gt;Node4</title>
<path fill="none" stroke="midnightblue" d="M1341.19,-516.75C1338.25,-516.13 1335.34,-515.54 1332.5,-515 1243.02,-497.98 1138.41,-484.54 1073.29,-476.92"/>
<polygon fill="midnightblue" stroke="midnightblue" points="1073.52,-473.43 1063.19,-475.75 1072.72,-480.38 1073.52,-473.43"/>
</g>
<!-- Node53&#45;&gt;Node4 -->
<g id="edge57" class="edge">
<title>Node53&#45;&gt;Node4</title>
<path fill="none" stroke="midnightblue" d="M1759.7,-516.55C1756.6,-515.97 1753.52,-515.45 1750.5,-515 1501.64,-478.14 1201.42,-471.33 1073.33,-470.18"/>
<polygon fill="midnightblue" stroke="midnightblue" points="1073.34,-466.68 1063.31,-470.09 1073.28,-473.67 1073.34,-466.68"/>
</g>
<!-- Node54 -->
<g id="node41" class="node">
<title>Node54</title>
<g id="a_node41"><a xlink:href="bitset_8h.html" target="_top" xlink:title=" ">
<polygon fill="none" stroke="black" points="1747.5,-179.5 1747.5,-198.5 1851.5,-198.5 1851.5,-179.5 1747.5,-179.5"/>
<text text-anchor="middle" x="1799.5" y="-186.5" font-family="Helvetica,sans-Serif" font-size="10.00">thorin/util/bitset.h</text>
</a>
</g>
</g>
<!-- Node53&#45;&gt;Node54 -->
<g id="edge58" class="edge">
<title>Node53&#45;&gt;Node54</title>
<path fill="none" stroke="midnightblue" d="M1811.3,-515.28C1811.01,-493.48 1810.5,-450.5 1810.5,-414 1810.5,-414 1810.5,-414 1810.5,-300 1810.5,-267.79 1805.77,-230.53 1802.52,-208.69"/>
<polygon fill="midnightblue" stroke="midnightblue" points="1805.93,-207.87 1800.94,-198.53 1799.01,-208.95 1805.93,-207.87"/>
</g>
<!-- Node54&#45;&gt;Node26 -->
<g id="edge61" class="edge">
<title>Node54&#45;&gt;Node26</title>
<path fill="none" stroke="midnightblue" d="M1769.99,-179.48C1733.88,-169.05 1672.65,-151.36 1632.65,-139.81"/>
<polygon fill="midnightblue" stroke="midnightblue" points="1633.54,-136.42 1622.96,-137.01 1631.6,-143.15 1633.54,-136.42"/>
</g>
<!-- Node54&#45;&gt;Node27 -->
<g id="edge59" class="edge">
<title>Node54&#45;&gt;Node27</title>
<path fill="none" stroke="midnightblue" d="M1799.28,-179.3C1798.8,-159.85 1797.63,-112.49 1796.97,-85.9"/>
<polygon fill="midnightblue" stroke="midnightblue" points="1800.46,-85.53 1796.71,-75.62 1793.46,-85.71 1800.46,-85.53"/>
</g>
<!-- Node35 -->
<g id="node42" class="node">
<title>Node35</title>
<g id="a_node42"><a xlink:title=" ">
<polygon fill="none" stroke="#bfbfbf" points="1824.5,-118 1824.5,-137 1888.5,-137 1888.5,-118 1824.5,-118"/>
<text text-anchor="middle" x="1856.5" y="-125" font-family="Helvetica,sans-Serif" font-size="10.00">algorithm</text>
</a>
</g>
</g>
<!-- Node54&#45;&gt;Node35 -->
<g id="edge60" class="edge">
<title>Node54&#45;&gt;Node35</title>
<path fill="none" stroke="midnightblue" d="M1807.67,-179.48C1816.39,-170.37 1830.4,-155.74 1841.19,-144.48"/>
<polygon fill="midnightblue" stroke="midnightblue" points="1843.96,-146.65 1848.35,-137.01 1838.9,-141.81 1843.96,-146.65"/>
</g>
<!-- Node55&#45;&gt;Node4 -->
<g id="edge63" class="edge">
<title>Node55&#45;&gt;Node4</title>
<path fill="none" stroke="midnightblue" d="M1461.21,-516.62C1458.27,-516.03 1455.35,-515.49 1452.5,-515 1318.43,-492.08 1159.35,-479.39 1073.32,-473.7"/>
<polygon fill="midnightblue" stroke="midnightblue" points="1073.41,-470.2 1063.2,-473.05 1072.95,-477.19 1073.41,-470.2"/>
</g>
<!-- Node56&#45;&gt;Node4 -->
<g id="edge65" class="edge">
<title>Node56&#45;&gt;Node4</title>
<path fill="none" stroke="midnightblue" d="M1613.57,-520.95C1600.29,-518.79 1585.87,-516.62 1572.5,-515 1391.95,-493.1 1177.42,-479.28 1073.35,-473.35"/>
<polygon fill="midnightblue" stroke="midnightblue" points="1073.51,-469.86 1063.33,-472.79 1073.12,-476.85 1073.51,-469.86"/>
</g>
<!-- Node58&#45;&gt;Node4 -->
<g id="edge68" class="edge">
<title>Node58&#45;&gt;Node4</title>
<path fill="none" stroke="midnightblue" d="M377.01,-516.59C380.21,-516.01 383.39,-515.47 386.5,-515 590.13,-484.41 834.37,-474.45 947.41,-471.34"/>
<polygon fill="midnightblue" stroke="midnightblue" points="947.7,-474.83 957.6,-471.07 947.51,-467.83 947.7,-474.83"/>
</g>
<!-- Node59&#45;&gt;Node4 -->
<g id="edge70" class="edge">
<title>Node59&#45;&gt;Node4</title>
<path fill="none" stroke="midnightblue" d="M515.64,-516.44C518.63,-515.92 521.6,-515.44 524.5,-515 675.52,-492.22 854.8,-479.21 947.69,-473.5"/>
<polygon fill="midnightblue" stroke="midnightblue" points="947.99,-476.99 957.76,-472.89 947.57,-470.01 947.99,-476.99"/>
</g>
<!-- Node60&#45;&gt;Node4 -->
<g id="edge72" class="edge">
<title>Node60&#45;&gt;Node4</title>
<path fill="none" stroke="midnightblue" d="M657.79,-516.52C660.73,-515.99 663.65,-515.48 666.5,-515 764.25,-498.65 878.47,-484.72 947.59,-476.86"/>
<polygon fill="midnightblue" stroke="midnightblue" points="948.33,-480.3 957.88,-475.7 947.55,-473.35 948.33,-480.3"/>
</g>
<!-- Node61&#45;&gt;Node4 -->
<g id="edge74" class="edge">
<title>Node61&#45;&gt;Node4</title>
<path fill="none" stroke="midnightblue" d="M777.53,-517.02C780.56,-516.33 783.57,-515.65 786.5,-515 843.93,-502.3 909.98,-489.21 955.4,-480.45"/>
<polygon fill="midnightblue" stroke="midnightblue" points="956.18,-483.86 965.34,-478.54 954.86,-476.99 956.18,-483.86"/>
</g>
<!-- Node62&#45;&gt;Node4 -->
<g id="edge76" class="edge">
<title>Node62&#45;&gt;Node4</title>
<path fill="none" stroke="midnightblue" d="M887.13,-520.98C911.62,-510.86 952.65,-493.9 980.61,-482.35"/>
<polygon fill="midnightblue" stroke="midnightblue" points="982,-485.56 989.91,-478.51 979.33,-479.09 982,-485.56"/>
</g>
</g>
</svg>
