<?xml version="1.0" encoding="UTF-8" standalone="no"?>
<!DOCTYPE svg PUBLIC "-//W3C//DTD SVG 1.1//EN"
 "http://www.w3.org/Graphics/SVG/1.1/DTD/svg11.dtd">
<!-- Generated by graphviz version 2.50.0 (20220203.2022)
 -->
<!-- Title: thorin/pass/pass.cpp Pages: 1 -->
<svg width="1986pt" height="543pt"
 viewBox="0.00 0.00 1985.59 543.00" xmlns="http://www.w3.org/2000/svg" xmlns:xlink="http://www.w3.org/1999/xlink">
<g id="graph0" class="graph" transform="scale(1 1) rotate(0) translate(4 539)">
<title>thorin/pass/pass.cpp</title>
<!-- Node1 -->
<g id="node1" class="node">
<title>Node1</title>
<g id="a_node1"><a xlink:title=" ">
<polygon fill="#bfbfbf" stroke="black" points="1273.09,-515.5 1273.09,-534.5 1380.09,-534.5 1380.09,-515.5 1273.09,-515.5"/>
<text text-anchor="middle" x="1326.59" y="-522.5" font-family="Helvetica,sans-Serif" font-size="10.00">thorin/pass/pass.cpp</text>
</a>
</g>
</g>
<!-- Node2 -->
<g id="node2" class="node">
<title>Node2</title>
<g id="a_node2"><a xlink:href="pass_8h.html" target="_top" xlink:title=" ">
<polygon fill="none" stroke="black" points="1278.59,-459.5 1278.59,-478.5 1374.59,-478.5 1374.59,-459.5 1278.59,-459.5"/>
<text text-anchor="middle" x="1326.59" y="-466.5" font-family="Helvetica,sans-Serif" font-size="10.00">thorin/pass/pass.h</text>
</a>
</g>
</g>
<!-- Node1&#45;&gt;Node2 -->
<g id="edge1" class="edge">
<title>Node1&#45;&gt;Node2</title>
<path fill="none" stroke="midnightblue" d="M1326.59,-515.08C1326.59,-508.01 1326.59,-497.86 1326.59,-488.99"/>
<polygon fill="midnightblue" stroke="midnightblue" points="1330.09,-488.75 1326.59,-478.75 1323.09,-488.75 1330.09,-488.75"/>
</g>
<!-- Node36 -->
<g id="node36" class="node">
<title>Node36</title>
<g id="a_node36"><a xlink:href="container_8h.html" target="_top" xlink:title=" ">
<polygon fill="none" stroke="black" points="1498.09,-179.5 1498.09,-198.5 1605.09,-198.5 1605.09,-179.5 1498.09,-179.5"/>
<text text-anchor="middle" x="1551.59" y="-186.5" font-family="Helvetica,sans-Serif" font-size="10.00">thorin/util/container.h</text>
</a>
</g>
</g>
<!-- Node1&#45;&gt;Node36 -->
<g id="edge75" class="edge">
<title>Node1&#45;&gt;Node36</title>
<path fill="none" stroke="midnightblue" d="M1380.19,-518.13C1440.33,-508.21 1529.59,-482.04 1529.59,-414 1529.59,-414 1529.59,-414 1529.59,-300 1529.59,-267.33 1539.04,-230.24 1545.55,-208.55"/>
<polygon fill="midnightblue" stroke="midnightblue" points="1548.98,-209.31 1548.62,-198.72 1542.3,-207.22 1548.98,-209.31"/>
</g>
<!-- Node48 -->
<g id="node48" class="node">
<title>Node48</title>
<g id="a_node48"><a xlink:href="rewrite_8h.html" target="_top" xlink:title=" ">
<polygon fill="none" stroke="black" points="1076.59,-459.5 1076.59,-478.5 1156.59,-478.5 1156.59,-459.5 1076.59,-459.5"/>
<text text-anchor="middle" x="1116.59" y="-466.5" font-family="Helvetica,sans-Serif" font-size="10.00">thorin/rewrite.h</text>
</a>
</g>
</g>
<!-- Node1&#45;&gt;Node48 -->
<g id="edge70" class="edge">
<title>Node1&#45;&gt;Node48</title>
<path fill="none" stroke="midnightblue" d="M1293.31,-515.44C1257.14,-506.14 1199.21,-491.25 1159.61,-481.06"/>
<polygon fill="midnightblue" stroke="midnightblue" points="1160.26,-477.62 1149.71,-478.52 1158.52,-484.4 1160.26,-477.62"/>
</g>
<!-- Node3 -->
<g id="node3" class="node">
<title>Node3</title>
<g id="a_node3"><a xlink:title=" ">
<polygon fill="none" stroke="#bfbfbf" points="1531.09,-118 1531.09,-137 1572.09,-137 1572.09,-118 1531.09,-118"/>
<text text-anchor="middle" x="1551.59" y="-125" font-family="Helvetica,sans-Serif" font-size="10.00">stack</text>
</a>
</g>
</g>
<!-- Node2&#45;&gt;Node3 -->
<g id="edge2" class="edge">
<title>Node2&#45;&gt;Node3</title>
<path fill="none" stroke="midnightblue" d="M1357.27,-459.46C1399.28,-445.68 1469.59,-414.22 1469.59,-358 1469.59,-358 1469.59,-358 1469.59,-244 1469.59,-213.77 1472.7,-204.07 1489.59,-179 1499.55,-164.22 1515.11,-151.56 1528.15,-142.62"/>
<polygon fill="midnightblue" stroke="midnightblue" points="1530.22,-145.44 1536.68,-137.04 1526.39,-139.59 1530.22,-145.44"/>
</g>
<!-- Node4 -->
<g id="node4" class="node">
<title>Node4</title>
<g id="a_node4"><a xlink:href="world_8h.html" target="_top" xlink:title=" ">
<polygon fill="none" stroke="black" points="1079.59,-403.5 1079.59,-422.5 1153.59,-422.5 1153.59,-403.5 1079.59,-403.5"/>
<text text-anchor="middle" x="1116.59" y="-410.5" font-family="Helvetica,sans-Serif" font-size="10.00">thorin/world.h</text>
</a>
</g>
</g>
<!-- Node2&#45;&gt;Node4 -->
<g id="edge3" class="edge">
<title>Node2&#45;&gt;Node4</title>
<path fill="none" stroke="midnightblue" d="M1293.31,-459.44C1257.14,-450.14 1199.21,-435.25 1159.61,-425.06"/>
<polygon fill="midnightblue" stroke="midnightblue" points="1160.26,-421.62 1149.71,-422.52 1158.52,-428.4 1160.26,-421.62"/>
</g>
<!-- Node5 -->
<g id="node5" class="node">
<title>Node5</title>
<g id="a_node5"><a xlink:title=" ">
<polygon fill="none" stroke="#bfbfbf" points="766.09,-56.5 766.09,-75.5 815.09,-75.5 815.09,-56.5 766.09,-56.5"/>
<text text-anchor="middle" x="790.59" y="-63.5" font-family="Helvetica,sans-Serif" font-size="10.00">cassert</text>
</a>
</g>
</g>
<!-- Node4&#45;&gt;Node5 -->
<g id="edge4" class="edge">
<title>Node4&#45;&gt;Node5</title>
<path fill="none" stroke="midnightblue" d="M1124.1,-403.33C1157.08,-364.2 1283.94,-202.07 1202.59,-112 1176.16,-82.74 888.7,-80.97 849.59,-76 841.73,-75 833.3,-73.79 825.34,-72.59"/>
<polygon fill="midnightblue" stroke="midnightblue" points="825.65,-69.1 815.24,-71.04 824.59,-76.02 825.65,-69.1"/>
</g>
<!-- Node6 -->
<g id="node6" class="node">
<title>Node6</title>
<g id="a_node6"><a xlink:title=" ">
<polygon fill="none" stroke="#bfbfbf" points="428.09,-118 428.09,-137 487.09,-137 487.09,-118 428.09,-118"/>
<text text-anchor="middle" x="457.59" y="-125" font-family="Helvetica,sans-Serif" font-size="10.00">functional</text>
</a>
</g>
</g>
<!-- Node4&#45;&gt;Node6 -->
<g id="edge5" class="edge">
<title>Node4&#45;&gt;Node6</title>
<path fill="none" stroke="midnightblue" d="M1079.24,-412.57C954.58,-413.5 560.59,-408.02 560.59,-302 560.59,-302 560.59,-302 560.59,-244 560.59,-197.49 513.5,-161.07 483,-142.36"/>
<polygon fill="midnightblue" stroke="midnightblue" points="484.53,-139.2 474.14,-137.13 480.97,-145.23 484.53,-139.2"/>
</g>
<!-- Node7 -->
<g id="node7" class="node">
<title>Node7</title>
<g id="a_node7"><a xlink:title=" ">
<polygon fill="none" stroke="#bfbfbf" points="505.59,-118 505.59,-137 577.59,-137 577.59,-118 505.59,-118"/>
<text text-anchor="middle" x="541.59" y="-125" font-family="Helvetica,sans-Serif" font-size="10.00">initializer_list</text>
</a>
</g>
</g>
<!-- Node4&#45;&gt;Node7 -->
<g id="edge6" class="edge">
<title>Node4&#45;&gt;Node7</title>
<path fill="none" stroke="midnightblue" d="M1079.25,-404.93C1042.57,-397.44 985.33,-384.32 937.59,-367 883.77,-347.48 864.48,-348.92 821.59,-311 791.48,-284.38 802.93,-261.35 772.59,-235 740.98,-207.55 629.46,-162.34 573.75,-140.73"/>
<polygon fill="midnightblue" stroke="midnightblue" points="574.94,-137.44 564.35,-137.11 572.42,-143.97 574.94,-137.44"/>
</g>
<!-- Node8 -->
<g id="node8" class="node">
<title>Node8</title>
<g id="a_node8"><a xlink:title=" ">
<polygon fill="none" stroke="#bfbfbf" points="1139.59,-118 1139.59,-137 1193.59,-137 1193.59,-118 1139.59,-118"/>
<text text-anchor="middle" x="1166.59" y="-125" font-family="Helvetica,sans-Serif" font-size="10.00">iostream</text>
</a>
</g>
</g>
<!-- Node4&#45;&gt;Node8 -->
<g id="edge7" class="edge">
<title>Node4&#45;&gt;Node8</title>
<path fill="none" stroke="midnightblue" d="M1121.87,-403.23C1132.31,-385.04 1154.59,-341.6 1154.59,-302 1154.59,-302 1154.59,-302 1154.59,-244 1154.59,-209.68 1159.89,-169.93 1163.45,-147.15"/>
<polygon fill="midnightblue" stroke="midnightblue" points="1166.92,-147.59 1165.07,-137.16 1160.01,-146.47 1166.92,-147.59"/>
</g>
<!-- Node9 -->
<g id="node9" class="node">
<title>Node9</title>
<g id="a_node9"><a xlink:title=" ">
<polygon fill="none" stroke="#bfbfbf" points="1250.09,-118 1250.09,-137 1291.09,-137 1291.09,-118 1250.09,-118"/>
<text text-anchor="middle" x="1270.59" y="-125" font-family="Helvetica,sans-Serif" font-size="10.00">string</text>
</a>
</g>
</g>
<!-- Node4&#45;&gt;Node9 -->
<g id="edge8" class="edge">
<title>Node4&#45;&gt;Node9</title>
<path fill="none" stroke="midnightblue" d="M1153.75,-410.62C1187.98,-407.37 1237.97,-397.29 1268.59,-367 1290.07,-345.74 1288.59,-332.23 1288.59,-302 1288.59,-302 1288.59,-302 1288.59,-244 1288.59,-209.45 1280.63,-169.78 1275.29,-147.07"/>
<polygon fill="midnightblue" stroke="midnightblue" points="1278.64,-146.01 1272.87,-137.12 1271.84,-147.67 1278.64,-146.01"/>
</g>
<!-- Node10 -->
<g id="node10" class="node">
<title>Node10</title>
<g id="a_node10"><a xlink:href="axiom_8h.html" target="_top" xlink:title=" ">
<polygon fill="none" stroke="black" points="702.09,-347.5 702.09,-366.5 779.09,-366.5 779.09,-347.5 702.09,-347.5"/>
<text text-anchor="middle" x="740.59" y="-354.5" font-family="Helvetica,sans-Serif" font-size="10.00">thorin/axiom.h</text>
</a>
</g>
</g>
<!-- Node4&#45;&gt;Node10 -->
<g id="edge9" class="edge">
<title>Node4&#45;&gt;Node10</title>
<path fill="none" stroke="midnightblue" d="M1079.51,-406.67C1011.29,-396.88 865.93,-376 789.64,-365.04"/>
<polygon fill="midnightblue" stroke="midnightblue" points="789.75,-361.52 779.35,-363.57 788.75,-368.45 789.75,-361.52"/>
</g>
<!-- Node40 -->
<g id="node40" class="node">
<title>Node40</title>
<g id="a_node40"><a xlink:href="hash_8h.html" target="_top" xlink:title=" ">
<polygon fill="none" stroke="black" points="1889.59,-118 1889.59,-137 1977.59,-137 1977.59,-118 1889.59,-118"/>
<text text-anchor="middle" x="1933.59" y="-125" font-family="Helvetica,sans-Serif" font-size="10.00">thorin/util/hash.h</text>
</a>
</g>
</g>
<!-- Node4&#45;&gt;Node40 -->
<g id="edge69" class="edge">
<title>Node4&#45;&gt;Node40</title>
<path fill="none" stroke="midnightblue" d="M1153.9,-403.52C1189.34,-395.18 1244,-381.62 1290.59,-367 1530.66,-291.65 1812.54,-178.18 1903.61,-140.87"/>
<polygon fill="midnightblue" stroke="midnightblue" points="1905.12,-144.04 1913.04,-137 1902.46,-137.56 1905.12,-144.04"/>
</g>
<!-- Node45 -->
<g id="node45" class="node">
<title>Node45</title>
<g id="a_node45"><a xlink:title=" ">
<polygon fill="none" stroke="#bfbfbf" points="1183.09,-347.5 1183.09,-366.5 1260.09,-366.5 1260.09,-347.5 1183.09,-347.5"/>
<text text-anchor="middle" x="1221.59" y="-354.5" font-family="Helvetica,sans-Serif" font-size="10.00">thorin/config.h</text>
</a>
</g>
</g>
<!-- Node4&#45;&gt;Node45 -->
<g id="edge64" class="edge">
<title>Node4&#45;&gt;Node45</title>
<path fill="none" stroke="midnightblue" d="M1133.46,-403.32C1150.3,-394.66 1176.39,-381.24 1195.83,-371.25"/>
<polygon fill="midnightblue" stroke="midnightblue" points="1197.47,-374.34 1204.76,-366.65 1194.27,-368.12 1197.47,-374.34"/>
</g>
<!-- Node46 -->
<g id="node46" class="node">
<title>Node46</title>
<g id="a_node46"><a xlink:href="lattice_8h.html" target="_top" xlink:title=" ">
<polygon fill="none" stroke="black" points="989.09,-347.5 989.09,-366.5 1066.09,-366.5 1066.09,-347.5 989.09,-347.5"/>
<text text-anchor="middle" x="1027.59" y="-354.5" font-family="Helvetica,sans-Serif" font-size="10.00">thorin/lattice.h</text>
</a>
</g>
</g>
<!-- Node4&#45;&gt;Node46 -->
<g id="edge65" class="edge">
<title>Node4&#45;&gt;Node46</title>
<path fill="none" stroke="midnightblue" d="M1102.29,-403.32C1088.41,-394.9 1067.1,-381.97 1050.78,-372.07"/>
<polygon fill="midnightblue" stroke="midnightblue" points="1052.22,-368.85 1041.85,-366.65 1048.59,-374.83 1052.22,-368.85"/>
</g>
<!-- Node47 -->
<g id="node47" class="node">
<title>Node47</title>
<g id="a_node47"><a xlink:href="tuple_8h.html" target="_top" xlink:title=" ">
<polygon fill="none" stroke="black" points="830.59,-291.5 830.59,-310.5 902.59,-310.5 902.59,-291.5 830.59,-291.5"/>
<text text-anchor="middle" x="866.59" y="-298.5" font-family="Helvetica,sans-Serif" font-size="10.00">thorin/tuple.h</text>
</a>
</g>
</g>
<!-- Node4&#45;&gt;Node47 -->
<g id="edge67" class="edge">
<title>Node4&#45;&gt;Node47</title>
<path fill="none" stroke="midnightblue" d="M1084.33,-403.43C1056.12,-395.46 1014.34,-382.51 979.59,-367 946.31,-352.15 910.2,-330.27 887.98,-316.08"/>
<polygon fill="midnightblue" stroke="midnightblue" points="889.65,-312.99 879.35,-310.51 885.85,-318.87 889.65,-312.99"/>
</g>
<!-- Node11 -->
<g id="node11" class="node">
<title>Node11</title>
<g id="a_node11"><a xlink:href="lam_8h.html" target="_top" xlink:title=" ">
<polygon fill="none" stroke="black" points="707.09,-291.5 707.09,-310.5 774.09,-310.5 774.09,-291.5 707.09,-291.5"/>
<text text-anchor="middle" x="740.59" y="-298.5" font-family="Helvetica,sans-Serif" font-size="10.00">thorin/lam.h</text>
</a>
</g>
</g>
<!-- Node10&#45;&gt;Node11 -->
<g id="edge10" class="edge">
<title>Node10&#45;&gt;Node11</title>
<path fill="none" stroke="midnightblue" d="M740.59,-347.08C740.59,-340.01 740.59,-329.86 740.59,-320.99"/>
<polygon fill="midnightblue" stroke="midnightblue" points="744.09,-320.75 740.59,-310.75 737.09,-320.75 744.09,-320.75"/>
</g>
<!-- Node12 -->
<g id="node12" class="node">
<title>Node12</title>
<g id="a_node12"><a xlink:title=" ">
<polygon fill="none" stroke="#bfbfbf" points="717.59,-235.5 717.59,-254.5 763.59,-254.5 763.59,-235.5 717.59,-235.5"/>
<text text-anchor="middle" x="740.59" y="-242.5" font-family="Helvetica,sans-Serif" font-size="10.00">variant</text>
</a>
</g>
</g>
<!-- Node11&#45;&gt;Node12 -->
<g id="edge11" class="edge">
<title>Node11&#45;&gt;Node12</title>
<path fill="none" stroke="midnightblue" d="M740.59,-291.08C740.59,-284.01 740.59,-273.86 740.59,-264.99"/>
<polygon fill="midnightblue" stroke="midnightblue" points="744.09,-264.75 740.59,-254.75 737.09,-264.75 744.09,-264.75"/>
</g>
<!-- Node13 -->
<g id="node13" class="node">
<title>Node13</title>
<g id="a_node13"><a xlink:href="def_8h.html" target="_top" xlink:title=" ">
<polygon fill="none" stroke="black" points="876.09,-235.5 876.09,-254.5 941.09,-254.5 941.09,-235.5 876.09,-235.5"/>
<text text-anchor="middle" x="908.59" y="-242.5" font-family="Helvetica,sans-Serif" font-size="10.00">thorin/def.h</text>
</a>
</g>
</g>
<!-- Node11&#45;&gt;Node13 -->
<g id="edge12" class="edge">
<title>Node11&#45;&gt;Node13</title>
<path fill="none" stroke="midnightblue" d="M767.21,-291.44C795.59,-282.32 840.72,-267.81 872.34,-257.65"/>
<polygon fill="midnightblue" stroke="midnightblue" points="873.64,-260.91 882.09,-254.52 871.5,-254.24 873.64,-260.91"/>
</g>
<!-- Node14 -->
<g id="node14" class="node">
<title>Node14</title>
<g id="a_node14"><a xlink:title=" ">
<polygon fill="none" stroke="#bfbfbf" points="801.59,-179.5 801.59,-198.5 851.59,-198.5 851.59,-179.5 801.59,-179.5"/>
<text text-anchor="middle" x="826.59" y="-186.5" font-family="Helvetica,sans-Serif" font-size="10.00">optional</text>
</a>
</g>
</g>
<!-- Node13&#45;&gt;Node14 -->
<g id="edge13" class="edge">
<title>Node13&#45;&gt;Node14</title>
<path fill="none" stroke="midnightblue" d="M895.41,-235.32C882.74,-226.98 863.35,-214.21 848.38,-204.35"/>
<polygon fill="midnightblue" stroke="midnightblue" points="850.01,-201.23 839.73,-198.65 846.16,-207.08 850.01,-201.23"/>
</g>
<!-- Node15 -->
<g id="node15" class="node">
<title>Node15</title>
<g id="a_node15"><a xlink:title=" ">
<polygon fill="none" stroke="#bfbfbf" points="18.59,-118 18.59,-137 62.59,-137 62.59,-118 18.59,-118"/>
<text text-anchor="middle" x="40.59" y="-125" font-family="Helvetica,sans-Serif" font-size="10.00">vector</text>
</a>
</g>
</g>
<!-- Node13&#45;&gt;Node15 -->
<g id="edge14" class="edge">
<title>Node13&#45;&gt;Node15</title>
<path fill="none" stroke="midnightblue" d="M875.84,-241.8C746,-233.04 274,-201.11 266.59,-199 248.23,-193.78 246.46,-185.7 228.59,-179 163.58,-154.64 142.75,-164.03 76.59,-143 74.31,-142.28 71.98,-141.48 69.64,-140.63"/>
<polygon fill="midnightblue" stroke="midnightblue" points="70.79,-137.32 60.2,-137.02 68.29,-143.86 70.79,-137.32"/>
</g>
<!-- Node16 -->
<g id="node16" class="node">
<title>Node16</title>
<g id="a_node16"><a xlink:href="debug_8h.html" target="_top" xlink:title=" ">
<polygon fill="none" stroke="black" points="1317.09,-179.5 1317.09,-198.5 1394.09,-198.5 1394.09,-179.5 1317.09,-179.5"/>
<text text-anchor="middle" x="1355.59" y="-186.5" font-family="Helvetica,sans-Serif" font-size="10.00">thorin/debug.h</text>
</a>
</g>
</g>
<!-- Node13&#45;&gt;Node16 -->
<g id="edge15" class="edge">
<title>Node13&#45;&gt;Node16</title>
<path fill="none" stroke="midnightblue" d="M941.1,-240.07C1018.67,-230.7 1214.97,-206.99 1306.81,-195.89"/>
<polygon fill="midnightblue" stroke="midnightblue" points="1307.44,-199.34 1316.95,-194.67 1306.6,-192.39 1307.44,-199.34"/>
</g>
<!-- Node19 -->
<g id="node19" class="node">
<title>Node19</title>
<g id="a_node19"><a xlink:href="tables_8h.html" target="_top" xlink:title=" ">
<polygon fill="none" stroke="black" points="870.09,-179.5 870.09,-198.5 947.09,-198.5 947.09,-179.5 870.09,-179.5"/>
<text text-anchor="middle" x="908.59" y="-186.5" font-family="Helvetica,sans-Serif" font-size="10.00">thorin/tables.h</text>
</a>
</g>
</g>
<!-- Node13&#45;&gt;Node19 -->
<g id="edge19" class="edge">
<title>Node13&#45;&gt;Node19</title>
<path fill="none" stroke="midnightblue" d="M908.59,-235.08C908.59,-228.01 908.59,-217.86 908.59,-208.99"/>
<polygon fill="midnightblue" stroke="midnightblue" points="912.09,-208.75 908.59,-198.75 905.09,-208.75 912.09,-208.75"/>
</g>
<!-- Node29 -->
<g id="node29" class="node">
<title>Node29</title>
<g id="a_node29"><a xlink:href="array_8h.html" target="_top" xlink:title=" ">
<polygon fill="none" stroke="black" points="275.59,-179.5 275.59,-198.5 363.59,-198.5 363.59,-179.5 275.59,-179.5"/>
<text text-anchor="middle" x="319.59" y="-186.5" font-family="Helvetica,sans-Serif" font-size="10.00">thorin/util/array.h</text>
</a>
</g>
</g>
<!-- Node13&#45;&gt;Node29 -->
<g id="edge30" class="edge">
<title>Node13&#45;&gt;Node29</title>
<path fill="none" stroke="midnightblue" d="M876.08,-241.02C779.54,-232.17 493.75,-205.97 373.68,-194.96"/>
<polygon fill="midnightblue" stroke="midnightblue" points="373.89,-191.46 363.61,-194.04 373.25,-198.43 373.89,-191.46"/>
</g>
<!-- Node35 -->
<g id="node35" class="node">
<title>Node35</title>
<g id="a_node35"><a xlink:href="cast_8h.html" target="_top" xlink:title=" ">
<polygon fill="none" stroke="black" points="133.59,-179.5 133.59,-198.5 219.59,-198.5 219.59,-179.5 133.59,-179.5"/>
<text text-anchor="middle" x="176.59" y="-186.5" font-family="Helvetica,sans-Serif" font-size="10.00">thorin/util/cast.h</text>
</a>
</g>
</g>
<!-- Node13&#45;&gt;Node35 -->
<g id="edge41" class="edge">
<title>Node13&#45;&gt;Node35</title>
<path fill="none" stroke="midnightblue" d="M875.79,-241.82C741.14,-232.89 237.63,-199.45 233.59,-199 232.33,-198.86 231.05,-198.71 229.77,-198.55"/>
<polygon fill="midnightblue" stroke="midnightblue" points="230.16,-195.08 219.79,-197.24 229.25,-202.02 230.16,-195.08"/>
</g>
<!-- Node13&#45;&gt;Node36 -->
<g id="edge44" class="edge">
<title>Node13&#45;&gt;Node36</title>
<path fill="none" stroke="midnightblue" d="M941.36,-241.25C1042.75,-232.73 1352.6,-206.71 1487.6,-195.37"/>
<polygon fill="midnightblue" stroke="midnightblue" points="1488.12,-198.84 1497.79,-194.52 1487.53,-191.87 1488.12,-198.84"/>
</g>
<!-- Node13&#45;&gt;Node40 -->
<g id="edge53" class="edge">
<title>Node13&#45;&gt;Node40</title>
<path fill="none" stroke="midnightblue" d="M941.23,-243.52C1062.18,-241.49 1484.56,-232.13 1614.59,-199 1635.01,-193.8 1637.44,-185.18 1657.59,-179 1753.57,-149.55 1782.47,-164.28 1880.59,-143 1885.24,-141.99 1890.09,-140.83 1894.88,-139.6"/>
<polygon fill="midnightblue" stroke="midnightblue" points="1895.79,-142.98 1904.57,-137.04 1894,-136.21 1895.79,-142.98"/>
</g>
<!-- Node41 -->
<g id="node41" class="node">
<title>Node41</title>
<g id="a_node41"><a xlink:href="stream_8h.html" target="_top" xlink:title=" ">
<polygon fill="none" stroke="black" points="965.09,-179.5 965.09,-198.5 1062.09,-198.5 1062.09,-179.5 965.09,-179.5"/>
<text text-anchor="middle" x="1013.59" y="-186.5" font-family="Helvetica,sans-Serif" font-size="10.00">thorin/util/stream.h</text>
</a>
</g>
</g>
<!-- Node13&#45;&gt;Node41 -->
<g id="edge54" class="edge">
<title>Node13&#45;&gt;Node41</title>
<path fill="none" stroke="midnightblue" d="M925.46,-235.32C942.3,-226.66 968.39,-213.24 987.83,-203.25"/>
<polygon fill="midnightblue" stroke="midnightblue" points="989.47,-206.34 996.76,-198.65 986.27,-200.12 989.47,-206.34"/>
</g>
<!-- Node16&#45;&gt;Node9 -->
<g id="edge16" class="edge">
<title>Node16&#45;&gt;Node9</title>
<path fill="none" stroke="midnightblue" d="M1343.41,-179.48C1329.78,-169.93 1307.46,-154.31 1291.11,-142.87"/>
<polygon fill="midnightblue" stroke="midnightblue" points="1292.94,-139.88 1282.74,-137.01 1288.93,-145.61 1292.94,-139.88"/>
</g>
<!-- Node17 -->
<g id="node17" class="node">
<title>Node17</title>
<g id="a_node17"><a xlink:title=" ">
<polygon fill="none" stroke="#bfbfbf" points="1309.09,-112.5 1309.09,-142.5 1402.09,-142.5 1402.09,-112.5 1309.09,-112.5"/>
<text text-anchor="start" x="1317.09" y="-130.5" font-family="Helvetica,sans-Serif" font-size="10.00">absl/container/flat</text>
<text text-anchor="middle" x="1355.59" y="-119.5" font-family="Helvetica,sans-Serif" font-size="10.00">_hash_map.h</text>
</a>
</g>
</g>
<!-- Node16&#45;&gt;Node17 -->
<g id="edge17" class="edge">
<title>Node16&#45;&gt;Node17</title>
<path fill="none" stroke="midnightblue" d="M1355.59,-179.48C1355.59,-172.47 1355.59,-162.19 1355.59,-152.7"/>
<polygon fill="midnightblue" stroke="midnightblue" points="1359.09,-152.52 1355.59,-142.52 1352.09,-152.52 1359.09,-152.52"/>
</g>
<!-- Node18 -->
<g id="node18" class="node">
<title>Node18</title>
<g id="a_node18"><a xlink:title=" ">
<polygon fill="none" stroke="#bfbfbf" points="1420.09,-112.5 1420.09,-142.5 1513.09,-142.5 1513.09,-112.5 1420.09,-112.5"/>
<text text-anchor="start" x="1428.09" y="-130.5" font-family="Helvetica,sans-Serif" font-size="10.00">absl/container/flat</text>
<text text-anchor="middle" x="1466.59" y="-119.5" font-family="Helvetica,sans-Serif" font-size="10.00">_hash_set.h</text>
</a>
</g>
</g>
<!-- Node16&#45;&gt;Node18 -->
<g id="edge18" class="edge">
<title>Node16&#45;&gt;Node18</title>
<path fill="none" stroke="midnightblue" d="M1371.49,-179.48C1387.09,-171.12 1411.39,-158.09 1431.52,-147.3"/>
<polygon fill="midnightblue" stroke="midnightblue" points="1433.27,-150.33 1440.43,-142.52 1429.96,-144.16 1433.27,-150.33"/>
</g>
<!-- Node20 -->
<g id="node20" class="node">
<title>Node20</title>
<g id="a_node20"><a xlink:title=" ">
<polygon fill="none" stroke="#bfbfbf" points="595.59,-118 595.59,-137 661.59,-137 661.59,-118 595.59,-118"/>
<text text-anchor="middle" x="628.59" y="-125" font-family="Helvetica,sans-Serif" font-size="10.00">string_view</text>
</a>
</g>
</g>
<!-- Node19&#45;&gt;Node20 -->
<g id="edge20" class="edge">
<title>Node19&#45;&gt;Node20</title>
<path fill="none" stroke="midnightblue" d="M870.03,-180.75C803.27,-168.18 673,-143.64 670.59,-143 667.55,-142.19 664.42,-141.28 661.3,-140.31"/>
<polygon fill="midnightblue" stroke="midnightblue" points="662.1,-136.89 651.51,-137.09 659.92,-143.54 662.1,-136.89"/>
</g>
<!-- Node21 -->
<g id="node21" class="node">
<title>Node21</title>
<g id="a_node21"><a xlink:href="assert_8h.html" target="_top" xlink:title=" ">
<polygon fill="none" stroke="black" points="743.59,-118 743.59,-137 837.59,-137 837.59,-118 743.59,-118"/>
<text text-anchor="middle" x="790.59" y="-125" font-family="Helvetica,sans-Serif" font-size="10.00">thorin/util/assert.h</text>
</a>
</g>
</g>
<!-- Node19&#45;&gt;Node21 -->
<g id="edge21" class="edge">
<title>Node19&#45;&gt;Node21</title>
<path fill="none" stroke="midnightblue" d="M891.68,-179.48C872.05,-169.58 839.46,-153.14 816.6,-141.62"/>
<polygon fill="midnightblue" stroke="midnightblue" points="817.97,-138.39 807.46,-137.01 814.82,-144.64 817.97,-138.39"/>
</g>
<!-- Node22 -->
<g id="node22" class="node">
<title>Node22</title>
<g id="a_node22"><a xlink:href="types_8h.html" target="_top" xlink:title=" ">
<polygon fill="none" stroke="black" points="858.59,-56.5 858.59,-75.5 948.59,-75.5 948.59,-56.5 858.59,-56.5"/>
<text text-anchor="middle" x="903.59" y="-63.5" font-family="Helvetica,sans-Serif" font-size="10.00">thorin/util/types.h</text>
</a>
</g>
</g>
<!-- Node19&#45;&gt;Node22 -->
<g id="edge23" class="edge">
<title>Node19&#45;&gt;Node22</title>
<path fill="none" stroke="midnightblue" d="M908.23,-179.3C907.42,-159.85 905.47,-112.49 904.37,-85.9"/>
<polygon fill="midnightblue" stroke="midnightblue" points="907.85,-85.47 903.94,-75.62 900.86,-85.76 907.85,-85.47"/>
</g>
<!-- Node21&#45;&gt;Node5 -->
<g id="edge22" class="edge">
<title>Node21&#45;&gt;Node5</title>
<path fill="none" stroke="midnightblue" d="M790.59,-117.98C790.59,-109.58 790.59,-96.48 790.59,-85.66"/>
<polygon fill="midnightblue" stroke="midnightblue" points="794.09,-85.51 790.59,-75.51 787.09,-85.51 794.09,-85.51"/>
</g>
<!-- Node23 -->
<g id="node23" class="node">
<title>Node23</title>
<g id="a_node23"><a xlink:title=" ">
<polygon fill="none" stroke="#bfbfbf" points="1011.59,-0.5 1011.59,-19.5 1057.59,-19.5 1057.59,-0.5 1011.59,-0.5"/>
<text text-anchor="middle" x="1034.59" y="-7.5" font-family="Helvetica,sans-Serif" font-size="10.00">cstdint</text>
</a>
</g>
</g>
<!-- Node22&#45;&gt;Node23 -->
<g id="edge24" class="edge">
<title>Node22&#45;&gt;Node23</title>
<path fill="none" stroke="midnightblue" d="M924.35,-56.44C945.9,-47.56 979.85,-33.56 1004.38,-23.45"/>
<polygon fill="midnightblue" stroke="midnightblue" points="1006.02,-26.56 1013.93,-19.52 1003.35,-20.09 1006.02,-26.56"/>
</g>
<!-- Node24 -->
<g id="node24" class="node">
<title>Node24</title>
<g id="a_node24"><a xlink:title=" ">
<polygon fill="none" stroke="#bfbfbf" points="753.59,-0.5 753.59,-19.5 793.59,-19.5 793.59,-0.5 753.59,-0.5"/>
<text text-anchor="middle" x="773.59" y="-7.5" font-family="Helvetica,sans-Serif" font-size="10.00">limits</text>
</a>
</g>
</g>
<!-- Node22&#45;&gt;Node24 -->
<g id="edge25" class="edge">
<title>Node22&#45;&gt;Node24</title>
<path fill="none" stroke="midnightblue" d="M882.99,-56.44C861.47,-47.5 827.51,-33.4 803.13,-23.27"/>
<polygon fill="midnightblue" stroke="midnightblue" points="804.24,-19.94 793.66,-19.34 801.56,-26.41 804.24,-19.94"/>
</g>
<!-- Node25 -->
<g id="node25" class="node">
<title>Node25</title>
<g id="a_node25"><a xlink:title=" ">
<polygon fill="none" stroke="#bfbfbf" points="811.59,-0.5 811.59,-19.5 863.59,-19.5 863.59,-0.5 811.59,-0.5"/>
<text text-anchor="middle" x="837.59" y="-7.5" font-family="Helvetica,sans-Serif" font-size="10.00">ostream</text>
</a>
</g>
</g>
<!-- Node22&#45;&gt;Node25 -->
<g id="edge26" class="edge">
<title>Node22&#45;&gt;Node25</title>
<path fill="none" stroke="midnightblue" d="M892.98,-56.32C883.13,-48.26 868.24,-36.08 856.37,-26.37"/>
<polygon fill="midnightblue" stroke="midnightblue" points="858.34,-23.46 848.38,-19.83 853.91,-28.88 858.34,-23.46"/>
</g>
<!-- Node26 -->
<g id="node26" class="node">
<title>Node26</title>
<g id="a_node26"><a xlink:title=" ">
<polygon fill="none" stroke="#bfbfbf" points="366.59,-0.5 366.59,-19.5 428.59,-19.5 428.59,-0.5 366.59,-0.5"/>
<text text-anchor="middle" x="397.59" y="-7.5" font-family="Helvetica,sans-Serif" font-size="10.00">type_traits</text>
</a>
</g>
</g>
<!-- Node22&#45;&gt;Node26 -->
<g id="edge27" class="edge">
<title>Node22&#45;&gt;Node26</title>
<path fill="none" stroke="midnightblue" d="M858.32,-59.85C846.98,-58.58 834.84,-57.23 823.59,-56 682.37,-40.6 514.72,-23.13 438.7,-15.25"/>
<polygon fill="midnightblue" stroke="midnightblue" points="438.9,-11.75 428.6,-14.2 438.18,-18.71 438.9,-11.75"/>
</g>
<!-- Node27 -->
<g id="node27" class="node">
<title>Node27</title>
<g id="a_node27"><a xlink:title=" ">
<polygon fill="none" stroke="#bfbfbf" points="881.59,-0.5 881.59,-19.5 925.59,-19.5 925.59,-0.5 881.59,-0.5"/>
<text text-anchor="middle" x="903.59" y="-7.5" font-family="Helvetica,sans-Serif" font-size="10.00">cmath</text>
</a>
</g>
</g>
<!-- Node22&#45;&gt;Node27 -->
<g id="edge28" class="edge">
<title>Node22&#45;&gt;Node27</title>
<path fill="none" stroke="midnightblue" d="M903.59,-56.08C903.59,-49.01 903.59,-38.86 903.59,-29.99"/>
<polygon fill="midnightblue" stroke="midnightblue" points="907.09,-29.75 903.59,-19.75 900.09,-29.75 907.09,-29.75"/>
</g>
<!-- Node28 -->
<g id="node28" class="node">
<title>Node28</title>
<g id="a_node28"><a xlink:title=" ">
<polygon fill="none" stroke="#bfbfbf" points="943.59,-0.5 943.59,-19.5 993.59,-19.5 993.59,-0.5 943.59,-0.5"/>
<text text-anchor="middle" x="968.59" y="-7.5" font-family="Helvetica,sans-Serif" font-size="10.00">half.hpp</text>
</a>
</g>
</g>
<!-- Node22&#45;&gt;Node28 -->
<g id="edge29" class="edge">
<title>Node22&#45;&gt;Node28</title>
<path fill="none" stroke="midnightblue" d="M914.03,-56.32C923.73,-48.26 938.4,-36.08 950.09,-26.37"/>
<polygon fill="midnightblue" stroke="midnightblue" points="952.5,-28.92 957.95,-19.83 948.03,-23.53 952.5,-28.92"/>
</g>
<!-- Node29&#45;&gt;Node5 -->
<g id="edge31" class="edge">
<title>Node29&#45;&gt;Node5</title>
<path fill="none" stroke="midnightblue" d="M275.83,-179.43C227.54,-169.53 155.53,-153.29 147.59,-143 139.17,-132.09 138.19,-122.08 147.59,-112 189.25,-67.32 627.66,-66.12 755.68,-66.73"/>
<polygon fill="midnightblue" stroke="midnightblue" points="755.7,-70.23 765.72,-66.79 755.74,-63.23 755.7,-70.23"/>
</g>
<!-- Node29&#45;&gt;Node6 -->
<g id="edge35" class="edge">
<title>Node29&#45;&gt;Node6</title>
<path fill="none" stroke="midnightblue" d="M339.36,-179.48C362.72,-169.4 401.8,-152.55 428.59,-141"/>
<polygon fill="midnightblue" stroke="midnightblue" points="430.06,-144.18 437.85,-137.01 427.28,-137.75 430.06,-144.18"/>
</g>
<!-- Node29&#45;&gt;Node7 -->
<g id="edge36" class="edge">
<title>Node29&#45;&gt;Node7</title>
<path fill="none" stroke="midnightblue" d="M355.47,-179.44C391.15,-170.78 447.36,-156.75 495.59,-143 498.91,-142.05 502.36,-141.03 505.8,-139.99"/>
<polygon fill="midnightblue" stroke="midnightblue" points="506.87,-143.32 515.39,-137.03 504.8,-136.64 506.87,-143.32"/>
</g>
<!-- Node29&#45;&gt;Node15 -->
<g id="edge40" class="edge">
<title>Node29&#45;&gt;Node15</title>
<path fill="none" stroke="midnightblue" d="M275.37,-180.9C215.83,-171.15 113.15,-153.63 76.59,-143 74.15,-142.29 71.66,-141.48 69.17,-140.61"/>
<polygon fill="midnightblue" stroke="midnightblue" points="70.36,-137.32 59.77,-137.05 67.88,-143.86 70.36,-137.32"/>
</g>
<!-- Node29&#45;&gt;Node26 -->
<g id="edge39" class="edge">
<title>Node29&#45;&gt;Node26</title>
<path fill="none" stroke="midnightblue" d="M275.56,-180.04C224.49,-170.35 146.17,-153.96 137.59,-143 129.09,-132.15 129.81,-123.37 137.59,-112 186.99,-39.81 296.15,-19.21 356.12,-13.34"/>
<polygon fill="midnightblue" stroke="midnightblue" points="356.71,-16.8 366.36,-12.43 356.09,-9.82 356.71,-16.8"/>
</g>
<!-- Node30 -->
<g id="node30" class="node">
<title>Node30</title>
<g id="a_node30"><a xlink:title=" ">
<polygon fill="none" stroke="#bfbfbf" points="221.09,-118 221.09,-137 270.09,-137 270.09,-118 221.09,-118"/>
<text text-anchor="middle" x="245.59" y="-125" font-family="Helvetica,sans-Serif" font-size="10.00">cstddef</text>
</a>
</g>
</g>
<!-- Node29&#45;&gt;Node30 -->
<g id="edge32" class="edge">
<title>Node29&#45;&gt;Node30</title>
<path fill="none" stroke="midnightblue" d="M308.99,-179.48C297.34,-170.11 278.4,-154.88 264.25,-143.51"/>
<polygon fill="midnightblue" stroke="midnightblue" points="266.16,-140.55 256.17,-137.01 261.77,-146 266.16,-140.55"/>
</g>
<!-- Node31 -->
<g id="node31" class="node">
<title>Node31</title>
<g id="a_node31"><a xlink:title=" ">
<polygon fill="none" stroke="#bfbfbf" points="156.59,-118 156.59,-137 202.59,-137 202.59,-118 156.59,-118"/>
<text text-anchor="middle" x="179.59" y="-125" font-family="Helvetica,sans-Serif" font-size="10.00">cstring</text>
</a>
</g>
</g>
<!-- Node29&#45;&gt;Node31 -->
<g id="edge33" class="edge">
<title>Node29&#45;&gt;Node31</title>
<path fill="none" stroke="midnightblue" d="M298.4,-179.4C276.56,-170.48 241.58,-156.04 211.59,-143 210.22,-142.41 208.83,-141.8 207.42,-141.17"/>
<polygon fill="midnightblue" stroke="midnightblue" points="208.72,-137.92 198.16,-137.03 205.86,-144.31 208.72,-137.92"/>
</g>
<!-- Node32 -->
<g id="node32" class="node">
<title>Node32</title>
<g id="a_node32"><a xlink:title=" ">
<polygon fill="none" stroke="#bfbfbf" points="288.59,-118 288.59,-137 344.59,-137 344.59,-118 288.59,-118"/>
<text text-anchor="middle" x="316.59" y="-125" font-family="Helvetica,sans-Serif" font-size="10.00">algorithm</text>
</a>
</g>
</g>
<!-- Node29&#45;&gt;Node32 -->
<g id="edge34" class="edge">
<title>Node29&#45;&gt;Node32</title>
<path fill="none" stroke="midnightblue" d="M319.16,-179.48C318.73,-171.08 318.07,-157.98 317.53,-147.16"/>
<polygon fill="midnightblue" stroke="midnightblue" points="321.02,-146.82 317.02,-137.01 314.03,-147.17 321.02,-146.82"/>
</g>
<!-- Node33 -->
<g id="node33" class="node">
<title>Node33</title>
<g id="a_node33"><a xlink:title=" ">
<polygon fill="none" stroke="#bfbfbf" points="363.09,-118 363.09,-137 410.09,-137 410.09,-118 363.09,-118"/>
<text text-anchor="middle" x="386.59" y="-125" font-family="Helvetica,sans-Serif" font-size="10.00">iterator</text>
</a>
</g>
</g>
<!-- Node29&#45;&gt;Node33 -->
<g id="edge37" class="edge">
<title>Node29&#45;&gt;Node33</title>
<path fill="none" stroke="midnightblue" d="M329.19,-179.48C339.64,-170.2 356.56,-155.17 369.32,-143.83"/>
<polygon fill="midnightblue" stroke="midnightblue" points="371.85,-146.27 377.01,-137.01 367.21,-141.03 371.85,-146.27"/>
</g>
<!-- Node34 -->
<g id="node34" class="node">
<title>Node34</title>
<g id="a_node34"><a xlink:title=" ">
<polygon fill="none" stroke="#bfbfbf" points="679.59,-118 679.59,-137 725.59,-137 725.59,-118 679.59,-118"/>
<text text-anchor="middle" x="702.59" y="-125" font-family="Helvetica,sans-Serif" font-size="10.00">ranges</text>
</a>
</g>
</g>
<!-- Node29&#45;&gt;Node34 -->
<g id="edge38" class="edge">
<title>Node29&#45;&gt;Node34</title>
<path fill="none" stroke="midnightblue" d="M363.65,-186.54C430.99,-183.39 563.02,-173.52 670.59,-143 672.52,-142.45 674.49,-141.8 676.45,-141.09"/>
<polygon fill="midnightblue" stroke="midnightblue" points="678.1,-144.2 686,-137.14 675.42,-137.73 678.1,-144.2"/>
</g>
<!-- Node35&#45;&gt;Node5 -->
<g id="edge42" class="edge">
<title>Node35&#45;&gt;Node5</title>
<path fill="none" stroke="midnightblue" d="M133.58,-183.29C71.82,-174.95 -30.37,-154.33 9.59,-112 35.54,-84.51 607.26,-70.8 755.65,-67.69"/>
<polygon fill="midnightblue" stroke="midnightblue" points="756.06,-71.18 765.98,-67.48 755.91,-64.19 756.06,-71.18"/>
</g>
<!-- Node35&#45;&gt;Node31 -->
<g id="edge43" class="edge">
<title>Node35&#45;&gt;Node31</title>
<path fill="none" stroke="midnightblue" d="M177.02,-179.48C177.44,-171.08 178.1,-157.98 178.65,-147.16"/>
<polygon fill="midnightblue" stroke="midnightblue" points="182.15,-147.17 179.16,-137.01 175.16,-146.82 182.15,-147.17"/>
</g>
<!-- Node36&#45;&gt;Node3 -->
<g id="edge46" class="edge">
<title>Node36&#45;&gt;Node3</title>
<path fill="none" stroke="midnightblue" d="M1551.59,-179.48C1551.59,-171.08 1551.59,-157.98 1551.59,-147.16"/>
<polygon fill="midnightblue" stroke="midnightblue" points="1555.09,-147.01 1551.59,-137.01 1548.09,-147.01 1555.09,-147.01"/>
</g>
<!-- Node36&#45;&gt;Node17 -->
<g id="edge47" class="edge">
<title>Node36&#45;&gt;Node17</title>
<path fill="none" stroke="midnightblue" d="M1523.51,-179.48C1494.48,-170.66 1448.38,-156.67 1411.82,-145.57"/>
<polygon fill="midnightblue" stroke="midnightblue" points="1412.37,-142.08 1401.78,-142.52 1410.33,-148.78 1412.37,-142.08"/>
</g>
<!-- Node36&#45;&gt;Node18 -->
<g id="edge48" class="edge">
<title>Node36&#45;&gt;Node18</title>
<path fill="none" stroke="midnightblue" d="M1539.41,-179.48C1527.9,-171.42 1510.19,-159.02 1495.12,-148.47"/>
<polygon fill="midnightblue" stroke="midnightblue" points="1496.82,-145.39 1486.62,-142.52 1492.81,-151.12 1496.82,-145.39"/>
</g>
<!-- Node37 -->
<g id="node37" class="node">
<title>Node37</title>
<g id="a_node37"><a xlink:title=" ">
<polygon fill="none" stroke="#bfbfbf" points="1709.09,-118 1709.09,-137 1752.09,-137 1752.09,-118 1709.09,-118"/>
<text text-anchor="middle" x="1730.59" y="-125" font-family="Helvetica,sans-Serif" font-size="10.00">queue</text>
</a>
</g>
</g>
<!-- Node36&#45;&gt;Node37 -->
<g id="edge45" class="edge">
<title>Node36&#45;&gt;Node37</title>
<path fill="none" stroke="midnightblue" d="M1585.24,-179.46C1615.77,-171.33 1661.82,-158.12 1700.59,-143 1701.97,-142.46 1703.37,-141.89 1704.78,-141.29"/>
<polygon fill="midnightblue" stroke="midnightblue" points="1706.32,-144.43 1713.98,-137.1 1703.42,-138.06 1706.32,-144.43"/>
</g>
<!-- Node38 -->
<g id="node38" class="node">
<title>Node38</title>
<g id="a_node38"><a xlink:title=" ">
<polygon fill="none" stroke="#bfbfbf" points="1770.09,-112.5 1770.09,-142.5 1871.09,-142.5 1871.09,-112.5 1770.09,-112.5"/>
<text text-anchor="start" x="1778.09" y="-130.5" font-family="Helvetica,sans-Serif" font-size="10.00">absl/container/node</text>
<text text-anchor="middle" x="1820.59" y="-119.5" font-family="Helvetica,sans-Serif" font-size="10.00">_hash_map.h</text>
</a>
</g>
</g>
<!-- Node36&#45;&gt;Node38 -->
<g id="edge49" class="edge">
<title>Node36&#45;&gt;Node38</title>
<path fill="none" stroke="midnightblue" d="M1593.11,-179.48C1633.46,-171.12 1696.71,-157.79 1760.29,-143.26"/>
<polygon fill="midnightblue" stroke="midnightblue" points="1761.12,-146.67 1770.08,-141.02 1759.55,-139.84 1761.12,-146.67"/>
</g>
<!-- Node39 -->
<g id="node39" class="node">
<title>Node39</title>
<g id="a_node39"><a xlink:title=" ">
<polygon fill="none" stroke="#bfbfbf" points="1590.09,-112.5 1590.09,-142.5 1691.09,-142.5 1691.09,-112.5 1590.09,-112.5"/>
<text text-anchor="start" x="1598.09" y="-130.5" font-family="Helvetica,sans-Serif" font-size="10.00">absl/container/node</text>
<text text-anchor="middle" x="1640.59" y="-119.5" font-family="Helvetica,sans-Serif" font-size="10.00">_hash_set.h</text>
</a>
</g>
</g>
<!-- Node36&#45;&gt;Node39 -->
<g id="edge50" class="edge">
<title>Node36&#45;&gt;Node39</title>
<path fill="none" stroke="midnightblue" d="M1564.34,-179.48C1576.51,-171.34 1595.28,-158.79 1611.15,-148.18"/>
<polygon fill="midnightblue" stroke="midnightblue" points="1613.24,-150.99 1619.61,-142.52 1609.35,-145.17 1613.24,-150.99"/>
</g>
<!-- Node36&#45;&gt;Node40 -->
<g id="edge51" class="edge">
<title>Node36&#45;&gt;Node40</title>
<path fill="none" stroke="midnightblue" d="M1605.37,-180.83C1695.19,-168.83 1867.28,-145.72 1880.59,-143 1885.36,-142.03 1890.34,-140.86 1895.25,-139.63"/>
<polygon fill="midnightblue" stroke="midnightblue" points="1896.37,-142.95 1905.15,-137.02 1894.59,-136.18 1896.37,-142.95"/>
</g>
<!-- Node40&#45;&gt;Node22 -->
<g id="edge52" class="edge">
<title>Node40&#45;&gt;Node22</title>
<path fill="none" stroke="midnightblue" d="M1906.88,-117.96C1898.54,-115.63 1889.26,-113.37 1880.59,-112 1701.03,-83.66 1138.41,-71.25 959.08,-67.94"/>
<polygon fill="midnightblue" stroke="midnightblue" points="958.89,-64.44 948.83,-67.76 958.76,-71.44 958.89,-64.44"/>
</g>
<!-- Node41&#45;&gt;Node5 -->
<g id="edge55" class="edge">
<title>Node41&#45;&gt;Node5</title>
<path fill="none" stroke="midnightblue" d="M995.29,-179.37C976.79,-170.55 947.46,-156.29 922.59,-143 883.75,-122.24 839.57,-96.33 813.45,-80.75"/>
<polygon fill="midnightblue" stroke="midnightblue" points="815.06,-77.64 804.68,-75.51 811.47,-83.64 815.06,-77.64"/>
</g>
<!-- Node41&#45;&gt;Node8 -->
<g id="edge58" class="edge">
<title>Node41&#45;&gt;Node8</title>
<path fill="none" stroke="midnightblue" d="M1036.06,-179.48C1059.64,-170.5 1097.78,-155.91 1130.59,-143 1132.23,-142.36 1133.9,-141.69 1135.6,-141.02"/>
<polygon fill="midnightblue" stroke="midnightblue" points="1137.3,-144.11 1145.29,-137.14 1134.71,-137.61 1137.3,-144.11"/>
</g>
<!-- Node41&#45;&gt;Node9 -->
<g id="edge62" class="edge">
<title>Node41&#45;&gt;Node9</title>
<path fill="none" stroke="midnightblue" d="M1050.41,-179.48C1101.38,-167.67 1192.5,-146.58 1239.96,-135.59"/>
<polygon fill="midnightblue" stroke="midnightblue" points="1240.99,-138.95 1249.94,-133.28 1239.41,-132.13 1240.99,-138.95"/>
</g>
<!-- Node41&#45;&gt;Node21 -->
<g id="edge63" class="edge">
<title>Node41&#45;&gt;Node21</title>
<path fill="none" stroke="midnightblue" d="M981.64,-179.48C942.39,-169 875.71,-151.21 832.41,-139.66"/>
<polygon fill="midnightblue" stroke="midnightblue" points="833.04,-136.21 822.48,-137.01 831.24,-142.97 833.04,-136.21"/>
</g>
<!-- Node41&#45;&gt;Node31 -->
<g id="edge56" class="edge">
<title>Node41&#45;&gt;Node31</title>
<path fill="none" stroke="midnightblue" d="M964.9,-180.06C961.75,-179.67 958.63,-179.31 955.59,-179 790.91,-162.29 372.49,-181.85 211.59,-143 209.37,-142.46 207.12,-141.78 204.89,-140.99"/>
<polygon fill="midnightblue" stroke="midnightblue" points="206.02,-137.67 195.44,-137.11 203.36,-144.15 206.02,-137.67"/>
</g>
<!-- Node41&#45;&gt;Node34 -->
<g id="edge60" class="edge">
<title>Node41&#45;&gt;Node34</title>
<path fill="none" stroke="midnightblue" d="M964.9,-180.32C886.42,-167.9 740.08,-144.65 734.59,-143 732.66,-142.42 730.7,-141.75 728.74,-141.02"/>
<polygon fill="midnightblue" stroke="midnightblue" points="729.78,-137.66 719.2,-137.04 727.09,-144.12 729.78,-137.66"/>
</g>
<!-- Node42 -->
<g id="node42" class="node">
<title>Node42</title>
<g id="a_node42"><a xlink:title=" ">
<polygon fill="none" stroke="#bfbfbf" points="931.59,-118 931.59,-137 981.59,-137 981.59,-118 931.59,-118"/>
<text text-anchor="middle" x="956.59" y="-125" font-family="Helvetica,sans-Serif" font-size="10.00">fstream</text>
</a>
</g>
</g>
<!-- Node41&#45;&gt;Node42 -->
<g id="edge57" class="edge">
<title>Node41&#45;&gt;Node42</title>
<path fill="none" stroke="midnightblue" d="M1005.42,-179.48C996.7,-170.37 982.68,-155.74 971.9,-144.48"/>
<polygon fill="midnightblue" stroke="midnightblue" points="974.18,-141.81 964.74,-137.01 969.13,-146.65 974.18,-141.81"/>
</g>
<!-- Node43 -->
<g id="node43" class="node">
<title>Node43</title>
<g id="a_node43"><a xlink:title=" ">
<polygon fill="none" stroke="#bfbfbf" points="1000.09,-118 1000.09,-137 1051.09,-137 1051.09,-118 1000.09,-118"/>
<text text-anchor="middle" x="1025.59" y="-125" font-family="Helvetica,sans-Serif" font-size="10.00">memory</text>
</a>
</g>
</g>
<!-- Node41&#45;&gt;Node43 -->
<g id="edge59" class="edge">
<title>Node41&#45;&gt;Node43</title>
<path fill="none" stroke="midnightblue" d="M1015.31,-179.48C1017.02,-170.99 1019.7,-157.7 1021.89,-146.82"/>
<polygon fill="midnightblue" stroke="midnightblue" points="1025.33,-147.5 1023.87,-137.01 1018.46,-146.12 1025.33,-147.5"/>
</g>
<!-- Node44 -->
<g id="node44" class="node">
<title>Node44</title>
<g id="a_node44"><a xlink:title=" ">
<polygon fill="none" stroke="#bfbfbf" points="1069.59,-118 1069.59,-137 1121.59,-137 1121.59,-118 1069.59,-118"/>
<text text-anchor="middle" x="1095.59" y="-125" font-family="Helvetica,sans-Serif" font-size="10.00">sstream</text>
</a>
</g>
</g>
<!-- Node41&#45;&gt;Node44 -->
<g id="edge61" class="edge">
<title>Node41&#45;&gt;Node44</title>
<path fill="none" stroke="midnightblue" d="M1025.34,-179.48C1038.37,-170.02 1059.62,-154.6 1075.35,-143.19"/>
<polygon fill="midnightblue" stroke="midnightblue" points="1077.82,-145.71 1083.86,-137.01 1073.71,-140.05 1077.82,-145.71"/>
</g>
<!-- Node46&#45;&gt;Node13 -->
<g id="edge66" class="edge">
<title>Node46&#45;&gt;Node13</title>
<path fill="none" stroke="midnightblue" d="M1006.9,-347.45C990.05,-339.74 966.38,-327.14 949.59,-311 935.5,-297.46 924.11,-278.14 916.95,-264.08"/>
<polygon fill="midnightblue" stroke="midnightblue" points="920.02,-262.4 912.5,-254.94 913.72,-265.46 920.02,-262.4"/>
</g>
<!-- Node47&#45;&gt;Node13 -->
<g id="edge68" class="edge">
<title>Node47&#45;&gt;Node13</title>
<path fill="none" stroke="midnightblue" d="M873.52,-291.08C879.52,-283.38 888.34,-272.03 895.64,-262.65"/>
<polygon fill="midnightblue" stroke="midnightblue" points="898.4,-264.79 901.78,-254.75 892.88,-260.5 898.4,-264.79"/>
</g>
<!-- Node48&#45;&gt;Node4 -->
<g id="edge71" class="edge">
<title>Node48&#45;&gt;Node4</title>
<path fill="none" stroke="midnightblue" d="M1116.59,-459.08C1116.59,-452.01 1116.59,-441.86 1116.59,-432.99"/>
<polygon fill="midnightblue" stroke="midnightblue" points="1120.09,-432.75 1116.59,-422.75 1113.09,-432.75 1120.09,-432.75"/>
</g>
<!-- Node49 -->
<g id="node49" class="node">
<title>Node49</title>
<g id="a_node49"><a xlink:href="scope_8h.html" target="_top" xlink:title=" ">
<polygon fill="none" stroke="black" points="959.09,-291.5 959.09,-310.5 1078.09,-310.5 1078.09,-291.5 959.09,-291.5"/>
<text text-anchor="middle" x="1018.59" y="-298.5" font-family="Helvetica,sans-Serif" font-size="10.00">thorin/analyses/scope.h</text>
</a>
</g>
</g>
<!-- Node48&#45;&gt;Node49 -->
<g id="edge72" class="edge">
<title>Node48&#45;&gt;Node49</title>
<path fill="none" stroke="midnightblue" d="M1094.68,-459.48C1062.53,-445.63 1003.77,-414.87 979.59,-367 970.76,-349.52 985.37,-330.4 999.15,-317.45"/>
<polygon fill="midnightblue" stroke="midnightblue" points="1001.77,-319.82 1006.99,-310.6 997.16,-314.55 1001.77,-319.82"/>
</g>
<!-- Node49&#45;&gt;Node13 -->
<g id="edge73" class="edge">
<title>Node49&#45;&gt;Node13</title>
<path fill="none" stroke="midnightblue" d="M1000.91,-291.32C983.19,-282.62 955.68,-269.12 935.3,-259.11"/>
<polygon fill="midnightblue" stroke="midnightblue" points="936.74,-255.92 926.22,-254.65 933.65,-262.2 936.74,-255.92"/>
</g>
<!-- Node49&#45;&gt;Node41 -->
<g id="edge74" class="edge">
<title>Node49&#45;&gt;Node41</title>
<path fill="none" stroke="midnightblue" d="M1018.2,-291.37C1017.39,-273.62 1015.53,-232.67 1014.43,-208.6"/>
<polygon fill="midnightblue" stroke="midnightblue" points="1017.93,-208.42 1013.98,-198.59 1010.94,-208.74 1017.93,-208.42"/>
</g>
</g>
</svg>
