<?xml version="1.0" encoding="UTF-8" standalone="no"?>
<!DOCTYPE svg PUBLIC "-//W3C//DTD SVG 1.1//EN"
 "http://www.w3.org/Graphics/SVG/1.1/DTD/svg11.dtd">
<!-- Generated by graphviz version 2.43.0 (0)
 -->
<!-- Title: /home/runner/work/thorin2/thorin2/thorin/pass/pass.cpp Pages: 1 -->
<svg width="1880pt" height="554pt"
 viewBox="0.00 0.00 1880.17 554.00" xmlns="http://www.w3.org/2000/svg" xmlns:xlink="http://www.w3.org/1999/xlink">
<g id="graph0" class="graph" transform="scale(1 1) rotate(0) translate(4 550)">
<title>/home/runner/work/thorin2/thorin2/thorin/pass/pass.cpp</title>
<!-- Node1 -->
<g id="node1" class="node">
<title>Node1</title>
<g id="a_node1"><a xlink:title=" ">
<polygon fill="#bfbfbf" stroke="black" points="1431,-515.5 1431,-545.5 1588,-545.5 1588,-515.5 1431,-515.5"/>
<text text-anchor="start" x="1439" y="-533.5" font-family="Helvetica,sans-Serif" font-size="10.00">/home/runner/work/thorin2</text>
<text text-anchor="middle" x="1509.5" y="-522.5" font-family="Helvetica,sans-Serif" font-size="10.00">/thorin2/thorin/pass/pass.cpp</text>
</a>
</g>
</g>
<!-- Node2 -->
<g id="node2" class="node">
<title>Node2</title>
<g id="a_node2"><a xlink:href="pass_8h.html" target="_top" xlink:title=" ">
<polygon fill="none" stroke="black" points="1457,-459.5 1457,-478.5 1562,-478.5 1562,-459.5 1457,-459.5"/>
<text text-anchor="middle" x="1509.5" y="-466.5" font-family="Helvetica,sans-Serif" font-size="10.00">thorin/pass/pass.h</text>
</a>
</g>
</g>
<!-- Node1&#45;&gt;Node2 -->
<g id="edge1" class="edge">
<title>Node1&#45;&gt;Node2</title>
<path fill="none" stroke="midnightblue" d="M1509.5,-515.4C1509.5,-507.47 1509.5,-497.46 1509.5,-488.86"/>
<polygon fill="midnightblue" stroke="midnightblue" points="1513,-488.66 1509.5,-478.66 1506,-488.66 1513,-488.66"/>
</g>
<!-- Node38 -->
<g id="node38" class="node">
<title>Node38</title>
<g id="a_node38"><a xlink:href="container_8h.html" target="_top" xlink:title=" ">
<polygon fill="none" stroke="black" points="1318,-179.5 1318,-198.5 1439,-198.5 1439,-179.5 1318,-179.5"/>
<text text-anchor="middle" x="1378.5" y="-186.5" font-family="Helvetica,sans-Serif" font-size="10.00">thorin/util/container.h</text>
</a>
</g>
</g>
<!-- Node1&#45;&gt;Node38 -->
<g id="edge77" class="edge">
<title>Node1&#45;&gt;Node38</title>
<path fill="none" stroke="midnightblue" d="M1588.13,-519.05C1711.03,-499.35 1927.35,-449.19 1853.5,-347 1803.62,-277.98 1551.48,-222.59 1436.19,-200.43"/>
<polygon fill="midnightblue" stroke="midnightblue" points="1436.61,-196.95 1426.13,-198.52 1435.3,-203.83 1436.61,-196.95"/>
</g>
<!-- Node48 -->
<g id="node48" class="node">
<title>Node48</title>
<g id="a_node48"><a xlink:href="rewrite_8h.html" target="_top" xlink:title=" ">
<polygon fill="none" stroke="black" points="1014.5,-459.5 1014.5,-478.5 1106.5,-478.5 1106.5,-459.5 1014.5,-459.5"/>
<text text-anchor="middle" x="1060.5" y="-466.5" font-family="Helvetica,sans-Serif" font-size="10.00">thorin/rewrite.h</text>
</a>
</g>
</g>
<!-- Node1&#45;&gt;Node48 -->
<g id="edge72" class="edge">
<title>Node1&#45;&gt;Node48</title>
<path fill="none" stroke="midnightblue" d="M1430.78,-519.07C1340.88,-507.15 1196.03,-487.96 1116.77,-477.46"/>
<polygon fill="midnightblue" stroke="midnightblue" points="1116.88,-473.94 1106.5,-476.1 1115.96,-480.88 1116.88,-473.94"/>
</g>
<!-- Node3 -->
<g id="node3" class="node">
<title>Node3</title>
<g id="a_node3"><a xlink:title=" ">
<polygon fill="none" stroke="#bfbfbf" points="1768,-118 1768,-137 1811,-137 1811,-118 1768,-118"/>
<text text-anchor="middle" x="1789.5" y="-125" font-family="Helvetica,sans-Serif" font-size="10.00">stack</text>
</a>
</g>
</g>
<!-- Node2&#45;&gt;Node3 -->
<g id="edge2" class="edge">
<title>Node2&#45;&gt;Node3</title>
<path fill="none" stroke="midnightblue" d="M1562.35,-460.27C1649.8,-446.27 1818.48,-413.78 1853.5,-367 1905.92,-296.98 1834.13,-187.08 1802.82,-145.34"/>
<polygon fill="midnightblue" stroke="midnightblue" points="1805.52,-143.1 1796.65,-137.3 1799.96,-147.36 1805.52,-143.1"/>
</g>
<!-- Node4 -->
<g id="node4" class="node">
<title>Node4</title>
<g id="a_node4"><a xlink:href="world_8h.html" target="_top" xlink:title=" ">
<polygon fill="none" stroke="black" points="1018.5,-403.5 1018.5,-422.5 1102.5,-422.5 1102.5,-403.5 1018.5,-403.5"/>
<text text-anchor="middle" x="1060.5" y="-410.5" font-family="Helvetica,sans-Serif" font-size="10.00">thorin/world.h</text>
</a>
</g>
</g>
<!-- Node2&#45;&gt;Node4 -->
<g id="edge3" class="edge">
<title>Node2&#45;&gt;Node4</title>
<path fill="none" stroke="midnightblue" d="M1456.67,-461.65C1370.13,-451.24 1199.16,-430.68 1112.9,-420.3"/>
<polygon fill="midnightblue" stroke="midnightblue" points="1113.16,-416.81 1102.81,-419.09 1112.32,-423.76 1113.16,-416.81"/>
</g>
<!-- Node5 -->
<g id="node5" class="node">
<title>Node5</title>
<g id="a_node5"><a xlink:title=" ">
<polygon fill="none" stroke="#bfbfbf" points="1811.5,-56.5 1811.5,-75.5 1867.5,-75.5 1867.5,-56.5 1811.5,-56.5"/>
<text text-anchor="middle" x="1839.5" y="-63.5" font-family="Helvetica,sans-Serif" font-size="10.00">sstream</text>
</a>
</g>
</g>
<!-- Node4&#45;&gt;Node5 -->
<g id="edge4" class="edge">
<title>Node4&#45;&gt;Node5</title>
<path fill="none" stroke="midnightblue" d="M1102.86,-410.21C1214.79,-405.2 1516.48,-389.93 1613.5,-367 1678.32,-351.68 1702.91,-355.46 1752.5,-311 1815.57,-254.45 1821.88,-225.16 1842.5,-143 1847.31,-123.83 1845.47,-101.1 1843.11,-85.52"/>
<polygon fill="midnightblue" stroke="midnightblue" points="1846.55,-84.85 1841.39,-75.6 1839.65,-86.05 1846.55,-84.85"/>
</g>
<!-- Node6 -->
<g id="node6" class="node">
<title>Node6</title>
<g id="a_node6"><a xlink:title=" ">
<polygon fill="none" stroke="#bfbfbf" points="1196.5,-56.5 1196.5,-75.5 1240.5,-75.5 1240.5,-56.5 1196.5,-56.5"/>
<text text-anchor="middle" x="1218.5" y="-63.5" font-family="Helvetica,sans-Serif" font-size="10.00">string</text>
</a>
</g>
</g>
<!-- Node4&#45;&gt;Node6 -->
<g id="edge5" class="edge">
<title>Node4&#45;&gt;Node6</title>
<path fill="none" stroke="midnightblue" d="M1102.72,-409.64C1251.06,-400.82 1739.5,-366.82 1739.5,-302 1739.5,-302 1739.5,-302 1739.5,-188 1739.5,-153.07 1746.18,-134.54 1719.5,-112 1683.71,-81.76 1355.78,-70.59 1250.72,-67.78"/>
<polygon fill="midnightblue" stroke="midnightblue" points="1250.79,-64.28 1240.71,-67.52 1250.61,-71.27 1250.79,-64.28"/>
</g>
<!-- Node7 -->
<g id="node7" class="node">
<title>Node7</title>
<g id="a_node7"><a xlink:title=" ">
<polygon fill="none" stroke="#bfbfbf" points="990,-118 990,-137 1063,-137 1063,-118 990,-118"/>
<text text-anchor="middle" x="1026.5" y="-125" font-family="Helvetica,sans-Serif" font-size="10.00">string_view</text>
</a>
</g>
</g>
<!-- Node4&#45;&gt;Node7 -->
<g id="edge6" class="edge">
<title>Node4&#45;&gt;Node7</title>
<path fill="none" stroke="midnightblue" d="M1059.45,-403.2C1054.72,-363.77 1035.4,-202.73 1028.76,-147.33"/>
<polygon fill="midnightblue" stroke="midnightblue" points="1032.21,-146.7 1027.54,-137.19 1025.26,-147.54 1032.21,-146.7"/>
</g>
<!-- Node8 -->
<g id="node8" class="node">
<title>Node8</title>
<g id="a_node8"><a xlink:href="axiom_8h.html" target="_top" xlink:title=" ">
<polygon fill="none" stroke="black" points="944.5,-347.5 944.5,-366.5 1032.5,-366.5 1032.5,-347.5 944.5,-347.5"/>
<text text-anchor="middle" x="988.5" y="-354.5" font-family="Helvetica,sans-Serif" font-size="10.00">thorin/axiom.h</text>
</a>
</g>
</g>
<!-- Node4&#45;&gt;Node8 -->
<g id="edge7" class="edge">
<title>Node4&#45;&gt;Node8</title>
<path fill="none" stroke="midnightblue" d="M1048.93,-403.32C1038.08,-395.18 1021.62,-382.84 1008.62,-373.09"/>
<polygon fill="midnightblue" stroke="midnightblue" points="1010.38,-370.03 1000.28,-366.83 1006.18,-375.63 1010.38,-370.03"/>
</g>
<!-- Node14 -->
<g id="node14" class="node">
<title>Node14</title>
<g id="a_node14"><a xlink:href="debug_8h.html" target="_top" xlink:title=" ">
<polygon fill="none" stroke="black" points="1137,-179.5 1137,-198.5 1224,-198.5 1224,-179.5 1137,-179.5"/>
<text text-anchor="middle" x="1180.5" y="-186.5" font-family="Helvetica,sans-Serif" font-size="10.00">thorin/debug.h</text>
</a>
</g>
</g>
<!-- Node4&#45;&gt;Node14 -->
<g id="edge61" class="edge">
<title>Node4&#45;&gt;Node14</title>
<path fill="none" stroke="midnightblue" d="M1064.25,-403.27C1075.64,-377.08 1111.29,-297.12 1148.5,-235 1154.29,-225.34 1161.51,-215.06 1167.62,-206.78"/>
<polygon fill="midnightblue" stroke="midnightblue" points="1170.49,-208.78 1173.7,-198.69 1164.89,-204.58 1170.49,-208.78"/>
</g>
<!-- Node42 -->
<g id="node42" class="node">
<title>Node42</title>
<g id="a_node42"><a xlink:href="hash_8h.html" target="_top" xlink:title=" ">
<polygon fill="none" stroke="black" points="448,-118 448,-137 547,-137 547,-118 448,-118"/>
<text text-anchor="middle" x="497.5" y="-125" font-family="Helvetica,sans-Serif" font-size="10.00">thorin/util/hash.h</text>
</a>
</g>
</g>
<!-- Node4&#45;&gt;Node42 -->
<g id="edge71" class="edge">
<title>Node4&#45;&gt;Node42</title>
<path fill="none" stroke="midnightblue" d="M1018.48,-412.56C889.43,-413.16 507.5,-406.13 507.5,-302 507.5,-302 507.5,-302 507.5,-244 507.5,-209.74 503.08,-169.97 500.11,-147.17"/>
<polygon fill="midnightblue" stroke="midnightblue" points="503.57,-146.61 498.77,-137.17 496.64,-147.55 503.57,-146.61"/>
</g>
<!-- Node43 -->
<g id="node43" class="node">
<title>Node43</title>
<g id="a_node43"><a xlink:title=" ">
<polygon fill="none" stroke="#bfbfbf" points="702.5,-347.5 702.5,-366.5 788.5,-366.5 788.5,-347.5 702.5,-347.5"/>
<text text-anchor="middle" x="745.5" y="-354.5" font-family="Helvetica,sans-Serif" font-size="10.00">thorin/config.h</text>
</a>
</g>
</g>
<!-- Node4&#45;&gt;Node43 -->
<g id="edge60" class="edge">
<title>Node4&#45;&gt;Node43</title>
<path fill="none" stroke="midnightblue" d="M1018.34,-404.77C961.57,-395.04 860.54,-377.72 798.63,-367.11"/>
<polygon fill="midnightblue" stroke="midnightblue" points="799.12,-363.64 788.67,-365.4 797.93,-370.54 799.12,-363.64"/>
</g>
<!-- Node44 -->
<g id="node44" class="node">
<title>Node44</title>
<g id="a_node44"><a xlink:href="error_8h.html" target="_top" xlink:title=" ">
<polygon fill="none" stroke="black" points="1157.5,-235.5 1157.5,-254.5 1237.5,-254.5 1237.5,-235.5 1157.5,-235.5"/>
<text text-anchor="middle" x="1197.5" y="-242.5" font-family="Helvetica,sans-Serif" font-size="10.00">thorin/error.h</text>
</a>
</g>
</g>
<!-- Node4&#45;&gt;Node44 -->
<g id="edge62" class="edge">
<title>Node4&#45;&gt;Node44</title>
<path fill="none" stroke="midnightblue" d="M1085.43,-403.49C1103.54,-396.23 1127.58,-384.2 1143.5,-367 1171.27,-337 1186.51,-290.35 1193.23,-264.61"/>
<polygon fill="midnightblue" stroke="midnightblue" points="1196.68,-265.23 1195.67,-254.69 1189.88,-263.56 1196.68,-265.23"/>
</g>
<!-- Node46 -->
<g id="node46" class="node">
<title>Node46</title>
<g id="a_node46"><a xlink:href="lattice_8h.html" target="_top" xlink:title=" ">
<polygon fill="none" stroke="black" points="770.5,-291.5 770.5,-310.5 858.5,-310.5 858.5,-291.5 770.5,-291.5"/>
<text text-anchor="middle" x="814.5" y="-298.5" font-family="Helvetica,sans-Serif" font-size="10.00">thorin/lattice.h</text>
</a>
</g>
</g>
<!-- Node4&#45;&gt;Node46 -->
<g id="edge67" class="edge">
<title>Node4&#45;&gt;Node46</title>
<path fill="none" stroke="midnightblue" d="M1018.42,-408.63C960.96,-403.2 862.04,-390.65 835.5,-367 822.38,-355.31 817.41,-335.36 815.55,-320.65"/>
<polygon fill="midnightblue" stroke="midnightblue" points="819.04,-320.28 814.66,-310.63 812.06,-320.9 819.04,-320.28"/>
</g>
<!-- Node47 -->
<g id="node47" class="node">
<title>Node47</title>
<g id="a_node47"><a xlink:href="tuple_8h.html" target="_top" xlink:title=" ">
<polygon fill="none" stroke="black" points="844.5,-347.5 844.5,-366.5 926.5,-366.5 926.5,-347.5 844.5,-347.5"/>
<text text-anchor="middle" x="885.5" y="-354.5" font-family="Helvetica,sans-Serif" font-size="10.00">thorin/tuple.h</text>
</a>
</g>
</g>
<!-- Node4&#45;&gt;Node47 -->
<g id="edge69" class="edge">
<title>Node4&#45;&gt;Node47</title>
<path fill="none" stroke="midnightblue" d="M1032.77,-403.44C1003.07,-394.28 955.78,-379.69 922.83,-369.52"/>
<polygon fill="midnightblue" stroke="midnightblue" points="923.69,-366.12 913.1,-366.52 921.62,-372.81 923.69,-366.12"/>
</g>
<!-- Node9 -->
<g id="node9" class="node">
<title>Node9</title>
<g id="a_node9"><a xlink:href="lam_8h.html" target="_top" xlink:title=" ">
<polygon fill="none" stroke="black" points="932.5,-291.5 932.5,-310.5 1008.5,-310.5 1008.5,-291.5 932.5,-291.5"/>
<text text-anchor="middle" x="970.5" y="-298.5" font-family="Helvetica,sans-Serif" font-size="10.00">thorin/lam.h</text>
</a>
</g>
</g>
<!-- Node8&#45;&gt;Node9 -->
<g id="edge8" class="edge">
<title>Node8&#45;&gt;Node9</title>
<path fill="none" stroke="midnightblue" d="M985.53,-347.08C983.12,-339.85 979.64,-329.41 976.63,-320.4"/>
<polygon fill="midnightblue" stroke="midnightblue" points="979.9,-319.13 973.42,-310.75 973.26,-321.34 979.9,-319.13"/>
</g>
<!-- Node22 -->
<g id="node22" class="node">
<title>Node22</title>
<g id="a_node22"><a xlink:href="assert_8h.html" target="_top" xlink:title=" ">
<polygon fill="none" stroke="black" points="1072.5,-56.5 1072.5,-75.5 1178.5,-75.5 1178.5,-56.5 1072.5,-56.5"/>
<text text-anchor="middle" x="1125.5" y="-63.5" font-family="Helvetica,sans-Serif" font-size="10.00">thorin/util/assert.h</text>
</a>
</g>
</g>
<!-- Node8&#45;&gt;Node22 -->
<g id="edge59" class="edge">
<title>Node8&#45;&gt;Node22</title>
<path fill="none" stroke="midnightblue" d="M1006.44,-347.25C1035.95,-331.45 1091.5,-295.19 1091.5,-246 1091.5,-246 1091.5,-246 1091.5,-188 1091.5,-150.16 1107.11,-108.05 1117.17,-84.83"/>
<polygon fill="midnightblue" stroke="midnightblue" points="1120.43,-86.13 1121.33,-75.57 1114.04,-83.26 1120.43,-86.13"/>
</g>
<!-- Node10 -->
<g id="node10" class="node">
<title>Node10</title>
<g id="a_node10"><a xlink:title=" ">
<polygon fill="none" stroke="#bfbfbf" points="945,-235.5 945,-254.5 996,-254.5 996,-235.5 945,-235.5"/>
<text text-anchor="middle" x="970.5" y="-242.5" font-family="Helvetica,sans-Serif" font-size="10.00">variant</text>
</a>
</g>
</g>
<!-- Node9&#45;&gt;Node10 -->
<g id="edge9" class="edge">
<title>Node9&#45;&gt;Node10</title>
<path fill="none" stroke="midnightblue" d="M970.5,-291.08C970.5,-284.01 970.5,-273.86 970.5,-264.99"/>
<polygon fill="midnightblue" stroke="midnightblue" points="974,-264.75 970.5,-254.75 967,-264.75 974,-264.75"/>
</g>
<!-- Node11 -->
<g id="node11" class="node">
<title>Node11</title>
<g id="a_node11"><a xlink:href="def_8h.html" target="_top" xlink:title=" ">
<polygon fill="none" stroke="black" points="784.5,-235.5 784.5,-254.5 856.5,-254.5 856.5,-235.5 784.5,-235.5"/>
<text text-anchor="middle" x="820.5" y="-242.5" font-family="Helvetica,sans-Serif" font-size="10.00">thorin/def.h</text>
</a>
</g>
</g>
<!-- Node9&#45;&gt;Node11 -->
<g id="edge10" class="edge">
<title>Node9&#45;&gt;Node11</title>
<path fill="none" stroke="midnightblue" d="M946.73,-291.44C921.61,-282.4 881.79,-268.06 853.6,-257.92"/>
<polygon fill="midnightblue" stroke="midnightblue" points="854.75,-254.61 844.16,-254.52 852.38,-261.2 854.75,-254.61"/>
</g>
<!-- Node12 -->
<g id="node12" class="node">
<title>Node12</title>
<g id="a_node12"><a xlink:title=" ">
<polygon fill="none" stroke="#bfbfbf" points="882.5,-179.5 882.5,-198.5 938.5,-198.5 938.5,-179.5 882.5,-179.5"/>
<text text-anchor="middle" x="910.5" y="-186.5" font-family="Helvetica,sans-Serif" font-size="10.00">optional</text>
</a>
</g>
</g>
<!-- Node11&#45;&gt;Node12 -->
<g id="edge11" class="edge">
<title>Node11&#45;&gt;Node12</title>
<path fill="none" stroke="midnightblue" d="M834.96,-235.32C849,-226.9 870.55,-213.97 887.04,-204.07"/>
<polygon fill="midnightblue" stroke="midnightblue" points="889.3,-206.8 896.08,-198.65 885.7,-200.8 889.3,-206.8"/>
</g>
<!-- Node13 -->
<g id="node13" class="node">
<title>Node13</title>
<g id="a_node13"><a xlink:title=" ">
<polygon fill="none" stroke="#bfbfbf" points="232,-56.5 232,-75.5 279,-75.5 279,-56.5 232,-56.5"/>
<text text-anchor="middle" x="255.5" y="-63.5" font-family="Helvetica,sans-Serif" font-size="10.00">vector</text>
</a>
</g>
</g>
<!-- Node11&#45;&gt;Node13 -->
<g id="edge12" class="edge">
<title>Node11&#45;&gt;Node13</title>
<path fill="none" stroke="midnightblue" d="M805,-235.46C756.5,-208.88 607.73,-128.37 555.5,-112 450.06,-78.95 418.67,-93.08 309.5,-76 302.97,-74.98 296,-73.85 289.31,-72.74"/>
<polygon fill="midnightblue" stroke="midnightblue" points="289.58,-69.24 279.14,-71.04 288.43,-76.14 289.58,-69.24"/>
</g>
<!-- Node11&#45;&gt;Node14 -->
<g id="edge13" class="edge">
<title>Node11&#45;&gt;Node14</title>
<path fill="none" stroke="midnightblue" d="M856.67,-238.58C920.27,-229.03 1052.44,-209.21 1126.76,-198.06"/>
<polygon fill="midnightblue" stroke="midnightblue" points="1127.48,-201.49 1136.85,-196.55 1126.44,-194.57 1127.48,-201.49"/>
</g>
<!-- Node17 -->
<g id="node17" class="node">
<title>Node17</title>
<g id="a_node17"><a xlink:href="tables_8h.html" target="_top" xlink:title=" ">
<polygon fill="none" stroke="black" points="777,-179.5 777,-198.5 864,-198.5 864,-179.5 777,-179.5"/>
<text text-anchor="middle" x="820.5" y="-186.5" font-family="Helvetica,sans-Serif" font-size="10.00">thorin/tables.h</text>
</a>
</g>
</g>
<!-- Node11&#45;&gt;Node17 -->
<g id="edge17" class="edge">
<title>Node11&#45;&gt;Node17</title>
<path fill="none" stroke="midnightblue" d="M820.5,-235.08C820.5,-228.01 820.5,-217.86 820.5,-208.99"/>
<polygon fill="midnightblue" stroke="midnightblue" points="824,-208.75 820.5,-198.75 817,-208.75 824,-208.75"/>
</g>
<!-- Node18 -->
<g id="node18" class="node">
<title>Node18</title>
<g id="a_node18"><a xlink:href="print_8h.html" target="_top" xlink:title=" ">
<polygon fill="none" stroke="black" points="873.5,-118 873.5,-137 971.5,-137 971.5,-118 873.5,-118"/>
<text text-anchor="middle" x="922.5" y="-125" font-family="Helvetica,sans-Serif" font-size="10.00">thorin/util/print.h</text>
</a>
</g>
</g>
<!-- Node11&#45;&gt;Node18 -->
<g id="edge58" class="edge">
<title>Node11&#45;&gt;Node18</title>
<path fill="none" stroke="midnightblue" d="M856.78,-242.06C886.59,-238.32 927.12,-227.85 947.5,-199 959.15,-182.51 947.43,-160.04 936.42,-144.94"/>
<polygon fill="midnightblue" stroke="midnightblue" points="939.13,-142.72 930.21,-137.01 933.62,-147.04 939.13,-142.72"/>
</g>
<!-- Node30 -->
<g id="node30" class="node">
<title>Node30</title>
<g id="a_node30"><a xlink:href="array_8h.html" target="_top" xlink:title=" ">
<polygon fill="none" stroke="black" points="641.5,-118 641.5,-137 741.5,-137 741.5,-118 641.5,-118"/>
<text text-anchor="middle" x="691.5" y="-125" font-family="Helvetica,sans-Serif" font-size="10.00">thorin/util/array.h</text>
</a>
</g>
</g>
<!-- Node11&#45;&gt;Node30 -->
<g id="edge34" class="edge">
<title>Node11&#45;&gt;Node30</title>
<path fill="none" stroke="midnightblue" d="M808.37,-235.5C796.17,-226.77 776.99,-212.6 761.5,-199 741.37,-181.34 719.91,-159.17 706.14,-144.46"/>
<polygon fill="midnightblue" stroke="midnightblue" points="708.7,-142.07 699.34,-137.13 703.57,-146.84 708.7,-142.07"/>
</g>
<!-- Node37 -->
<g id="node37" class="node">
<title>Node37</title>
<g id="a_node37"><a xlink:href="cast_8h.html" target="_top" xlink:title=" ">
<polygon fill="none" stroke="black" points="759.5,-118 759.5,-137 855.5,-137 855.5,-118 759.5,-118"/>
<text text-anchor="middle" x="807.5" y="-125" font-family="Helvetica,sans-Serif" font-size="10.00">thorin/util/cast.h</text>
</a>
</g>
</g>
<!-- Node11&#45;&gt;Node37 -->
<g id="edge45" class="edge">
<title>Node11&#45;&gt;Node37</title>
<path fill="none" stroke="midnightblue" d="M804.17,-235.39C791.54,-227.72 775,-215.21 767.5,-199 758.47,-179.5 774.45,-158.17 788.81,-144.14"/>
<polygon fill="midnightblue" stroke="midnightblue" points="791.44,-146.49 796.46,-137.16 786.72,-141.32 791.44,-146.49"/>
</g>
<!-- Node11&#45;&gt;Node38 -->
<g id="edge48" class="edge">
<title>Node11&#45;&gt;Node38</title>
<path fill="none" stroke="midnightblue" d="M856.68,-240.5C947.73,-231.69 1187.63,-208.47 1307.8,-196.84"/>
<polygon fill="midnightblue" stroke="midnightblue" points="1308.38,-200.3 1317.99,-195.86 1307.7,-193.34 1308.38,-200.3"/>
</g>
<!-- Node11&#45;&gt;Node42 -->
<g id="edge57" class="edge">
<title>Node11&#45;&gt;Node42</title>
<path fill="none" stroke="midnightblue" d="M784.28,-240.38C740.93,-235.15 666.78,-223.3 607.5,-199 572.79,-184.77 537.02,-159.5 516.05,-143.4"/>
<polygon fill="midnightblue" stroke="midnightblue" points="518.04,-140.52 508.01,-137.12 513.73,-146.03 518.04,-140.52"/>
</g>
<!-- Node14&#45;&gt;Node6 -->
<g id="edge14" class="edge">
<title>Node14&#45;&gt;Node6</title>
<path fill="none" stroke="midnightblue" d="M1171.77,-179.3C1158.41,-164.9 1135.74,-135.37 1148.5,-112 1156.79,-96.81 1172.65,-85.99 1187.17,-78.77"/>
<polygon fill="midnightblue" stroke="midnightblue" points="1188.79,-81.87 1196.43,-74.53 1185.88,-75.51 1188.79,-81.87"/>
</g>
<!-- Node15 -->
<g id="node15" class="node">
<title>Node15</title>
<g id="a_node15"><a xlink:title=" ">
<polygon fill="none" stroke="#bfbfbf" points="1279.5,-112.5 1279.5,-142.5 1383.5,-142.5 1383.5,-112.5 1279.5,-112.5"/>
<text text-anchor="start" x="1287.5" y="-130.5" font-family="Helvetica,sans-Serif" font-size="10.00">absl/container/flat</text>
<text text-anchor="middle" x="1331.5" y="-119.5" font-family="Helvetica,sans-Serif" font-size="10.00">_hash_map.h</text>
</a>
</g>
</g>
<!-- Node14&#45;&gt;Node15 -->
<g id="edge15" class="edge">
<title>Node14&#45;&gt;Node15</title>
<path fill="none" stroke="midnightblue" d="M1202.13,-179.48C1224.02,-170.85 1258.5,-157.26 1286.36,-146.29"/>
<polygon fill="midnightblue" stroke="midnightblue" points="1287.89,-149.45 1295.91,-142.52 1285.33,-142.93 1287.89,-149.45"/>
</g>
<!-- Node16 -->
<g id="node16" class="node">
<title>Node16</title>
<g id="a_node16"><a xlink:title=" ">
<polygon fill="none" stroke="#bfbfbf" points="1157.5,-112.5 1157.5,-142.5 1261.5,-142.5 1261.5,-112.5 1157.5,-112.5"/>
<text text-anchor="start" x="1165.5" y="-130.5" font-family="Helvetica,sans-Serif" font-size="10.00">absl/container/flat</text>
<text text-anchor="middle" x="1209.5" y="-119.5" font-family="Helvetica,sans-Serif" font-size="10.00">_hash_set.h</text>
</a>
</g>
</g>
<!-- Node14&#45;&gt;Node16 -->
<g id="edge16" class="edge">
<title>Node14&#45;&gt;Node16</title>
<path fill="none" stroke="midnightblue" d="M1184.65,-179.48C1188.18,-172.25 1193.4,-161.53 1198.15,-151.78"/>
<polygon fill="midnightblue" stroke="midnightblue" points="1201.43,-153.05 1202.67,-142.52 1195.14,-149.98 1201.43,-153.05"/>
</g>
<!-- Node17&#45;&gt;Node7 -->
<g id="edge18" class="edge">
<title>Node17&#45;&gt;Node7</title>
<path fill="none" stroke="midnightblue" d="M851.86,-179.49C884.17,-170.65 935.98,-156.27 980.5,-143 983.63,-142.07 986.87,-141.08 990.12,-140.08"/>
<polygon fill="midnightblue" stroke="midnightblue" points="991.28,-143.39 999.79,-137.08 989.2,-136.7 991.28,-143.39"/>
</g>
<!-- Node17&#45;&gt;Node18 -->
<g id="edge19" class="edge">
<title>Node17&#45;&gt;Node18</title>
<path fill="none" stroke="midnightblue" d="M835.11,-179.48C851.85,-169.71 879.5,-153.58 899.22,-142.08"/>
<polygon fill="midnightblue" stroke="midnightblue" points="901.04,-145.07 907.91,-137.01 897.51,-139.02 901.04,-145.07"/>
</g>
<!-- Node24 -->
<g id="node24" class="node">
<title>Node24</title>
<g id="a_node24"><a xlink:href="types_8h.html" target="_top" xlink:title=" ">
<polygon fill="none" stroke="black" points="111,-56.5 111,-75.5 214,-75.5 214,-56.5 111,-56.5"/>
<text text-anchor="middle" x="162.5" y="-63.5" font-family="Helvetica,sans-Serif" font-size="10.00">thorin/util/types.h</text>
</a>
</g>
</g>
<!-- Node17&#45;&gt;Node24 -->
<g id="edge27" class="edge">
<title>Node17&#45;&gt;Node24</title>
<path fill="none" stroke="midnightblue" d="M776.69,-179.43C738.26,-171.46 681.1,-158.51 632.5,-143 597.35,-131.79 591.29,-120.96 555.5,-112 414.33,-76.67 372.03,-94.21 224.53,-76.19"/>
<polygon fill="midnightblue" stroke="midnightblue" points="224.55,-72.67 214.19,-74.89 223.68,-79.61 224.55,-72.67"/>
</g>
<!-- Node18&#45;&gt;Node5 -->
<g id="edge23" class="edge">
<title>Node18&#45;&gt;Node5</title>
<path fill="none" stroke="midnightblue" d="M952.08,-117.94C961.13,-115.64 971.16,-113.4 980.5,-112 1294.82,-64.93 1680.22,-65.02 1801.27,-66.39"/>
<polygon fill="midnightblue" stroke="midnightblue" points="1801.45,-69.89 1811.49,-66.52 1801.54,-62.89 1801.45,-69.89"/>
</g>
<!-- Node18&#45;&gt;Node6 -->
<g id="edge24" class="edge">
<title>Node18&#45;&gt;Node6</title>
<path fill="none" stroke="midnightblue" d="M954.92,-117.95C963.23,-115.88 972.17,-113.76 980.5,-112 1068.73,-93.32 1094.76,-96.78 1186.26,-76.08"/>
<polygon fill="midnightblue" stroke="midnightblue" points="1187.26,-79.44 1196.23,-73.79 1185.7,-72.61 1187.26,-79.44"/>
</g>
<!-- Node19 -->
<g id="node19" class="node">
<title>Node19</title>
<g id="a_node19"><a xlink:title=" ">
<polygon fill="none" stroke="#bfbfbf" points="994.5,-56.5 994.5,-75.5 1054.5,-75.5 1054.5,-56.5 994.5,-56.5"/>
<text text-anchor="middle" x="1024.5" y="-63.5" font-family="Helvetica,sans-Serif" font-size="10.00">iostream</text>
</a>
</g>
</g>
<!-- Node18&#45;&gt;Node19 -->
<g id="edge20" class="edge">
<title>Node18&#45;&gt;Node19</title>
<path fill="none" stroke="midnightblue" d="M937.11,-117.98C953.85,-108.21 981.5,-92.08 1001.22,-80.58"/>
<polygon fill="midnightblue" stroke="midnightblue" points="1003.04,-83.57 1009.91,-75.51 999.51,-77.52 1003.04,-83.57"/>
</g>
<!-- Node20 -->
<g id="node20" class="node">
<title>Node20</title>
<g id="a_node20"><a xlink:title=" ">
<polygon fill="none" stroke="#bfbfbf" points="560,-0.5 560,-19.5 617,-19.5 617,-0.5 560,-0.5"/>
<text text-anchor="middle" x="588.5" y="-7.5" font-family="Helvetica,sans-Serif" font-size="10.00">ostream</text>
</a>
</g>
</g>
<!-- Node18&#45;&gt;Node20 -->
<g id="edge21" class="edge">
<title>Node18&#45;&gt;Node20</title>
<path fill="none" stroke="midnightblue" d="M930.67,-117.63C943.04,-103.12 963.48,-74.11 947.5,-56 926.56,-32.27 716.05,-18.01 627.46,-13.02"/>
<polygon fill="midnightblue" stroke="midnightblue" points="627.46,-9.51 617.28,-12.46 627.08,-16.5 627.46,-9.51"/>
</g>
<!-- Node21 -->
<g id="node21" class="node">
<title>Node21</title>
<g id="a_node21"><a xlink:title=" ">
<polygon fill="none" stroke="#bfbfbf" points="888.5,-56.5 888.5,-75.5 938.5,-75.5 938.5,-56.5 888.5,-56.5"/>
<text text-anchor="middle" x="913.5" y="-63.5" font-family="Helvetica,sans-Serif" font-size="10.00">ranges</text>
</a>
</g>
</g>
<!-- Node18&#45;&gt;Node21 -->
<g id="edge22" class="edge">
<title>Node18&#45;&gt;Node21</title>
<path fill="none" stroke="midnightblue" d="M921.21,-117.98C919.94,-109.58 917.96,-96.48 916.32,-85.66"/>
<polygon fill="midnightblue" stroke="midnightblue" points="919.74,-84.87 914.79,-75.51 912.82,-85.92 919.74,-84.87"/>
</g>
<!-- Node18&#45;&gt;Node22 -->
<g id="edge25" class="edge">
<title>Node18&#45;&gt;Node22</title>
<path fill="none" stroke="midnightblue" d="M951.58,-117.98C987.08,-107.57 1047.25,-89.94 1086.67,-78.38"/>
<polygon fill="midnightblue" stroke="midnightblue" points="1087.86,-81.68 1096.47,-75.51 1085.89,-74.96 1087.86,-81.68"/>
</g>
<!-- Node23 -->
<g id="node23" class="node">
<title>Node23</title>
<g id="a_node23"><a xlink:title=" ">
<polygon fill="none" stroke="#bfbfbf" points="834.5,-0.5 834.5,-19.5 886.5,-19.5 886.5,-0.5 834.5,-0.5"/>
<text text-anchor="middle" x="860.5" y="-7.5" font-family="Helvetica,sans-Serif" font-size="10.00">cassert</text>
</a>
</g>
</g>
<!-- Node22&#45;&gt;Node23 -->
<g id="edge26" class="edge">
<title>Node22&#45;&gt;Node23</title>
<path fill="none" stroke="midnightblue" d="M1083.51,-56.44C1031.98,-45.94 945.46,-28.31 896.72,-18.38"/>
<polygon fill="midnightblue" stroke="midnightblue" points="897.13,-14.89 886.63,-16.32 895.73,-21.75 897.13,-14.89"/>
</g>
<!-- Node24&#45;&gt;Node20 -->
<g id="edge30" class="edge">
<title>Node24&#45;&gt;Node20</title>
<path fill="none" stroke="midnightblue" d="M214.2,-57.16C217.01,-56.76 219.79,-56.37 222.5,-56 341.72,-39.73 483.16,-23.1 549.93,-15.4"/>
<polygon fill="midnightblue" stroke="midnightblue" points="550.46,-18.86 559.99,-14.24 549.66,-11.91 550.46,-18.86"/>
</g>
<!-- Node25 -->
<g id="node25" class="node">
<title>Node25</title>
<g id="a_node25"><a xlink:title=" ">
<polygon fill="none" stroke="#bfbfbf" points="139.5,-0.5 139.5,-19.5 189.5,-19.5 189.5,-0.5 139.5,-0.5"/>
<text text-anchor="middle" x="164.5" y="-7.5" font-family="Helvetica,sans-Serif" font-size="10.00">cstdint</text>
</a>
</g>
</g>
<!-- Node24&#45;&gt;Node25 -->
<g id="edge28" class="edge">
<title>Node24&#45;&gt;Node25</title>
<path fill="none" stroke="midnightblue" d="M162.83,-56.08C163.09,-49.01 163.47,-38.86 163.8,-29.99"/>
<polygon fill="midnightblue" stroke="midnightblue" points="167.3,-29.87 164.18,-19.75 160.31,-29.61 167.3,-29.87"/>
</g>
<!-- Node26 -->
<g id="node26" class="node">
<title>Node26</title>
<g id="a_node26"><a xlink:title=" ">
<polygon fill="none" stroke="#bfbfbf" points="207.5,-0.5 207.5,-19.5 251.5,-19.5 251.5,-0.5 207.5,-0.5"/>
<text text-anchor="middle" x="229.5" y="-7.5" font-family="Helvetica,sans-Serif" font-size="10.00">limits</text>
</a>
</g>
</g>
<!-- Node24&#45;&gt;Node26 -->
<g id="edge29" class="edge">
<title>Node24&#45;&gt;Node26</title>
<path fill="none" stroke="midnightblue" d="M173.26,-56.32C183.27,-48.26 198.39,-36.08 210.43,-26.37"/>
<polygon fill="midnightblue" stroke="midnightblue" points="212.95,-28.83 218.54,-19.83 208.56,-23.38 212.95,-28.83"/>
</g>
<!-- Node27 -->
<g id="node27" class="node">
<title>Node27</title>
<g id="a_node27"><a xlink:title=" ">
<polygon fill="none" stroke="#bfbfbf" points="272,-0.5 272,-19.5 341,-19.5 341,-0.5 272,-0.5"/>
<text text-anchor="middle" x="306.5" y="-7.5" font-family="Helvetica,sans-Serif" font-size="10.00">type_traits</text>
</a>
</g>
</g>
<!-- Node24&#45;&gt;Node27 -->
<g id="edge31" class="edge">
<title>Node24&#45;&gt;Node27</title>
<path fill="none" stroke="midnightblue" d="M185.32,-56.44C209.33,-47.44 247.33,-33.19 274.37,-23.05"/>
<polygon fill="midnightblue" stroke="midnightblue" points="275.66,-26.3 283.79,-19.52 273.2,-19.75 275.66,-26.3"/>
</g>
<!-- Node28 -->
<g id="node28" class="node">
<title>Node28</title>
<g id="a_node28"><a xlink:title=" ">
<polygon fill="none" stroke="#bfbfbf" points="0,-0.5 0,-19.5 47,-19.5 47,-0.5 0,-0.5"/>
<text text-anchor="middle" x="23.5" y="-7.5" font-family="Helvetica,sans-Serif" font-size="10.00">cmath</text>
</a>
</g>
</g>
<!-- Node24&#45;&gt;Node28 -->
<g id="edge32" class="edge">
<title>Node24&#45;&gt;Node28</title>
<path fill="none" stroke="midnightblue" d="M140.48,-56.44C117.4,-47.48 80.94,-33.31 54.86,-23.18"/>
<polygon fill="midnightblue" stroke="midnightblue" points="56.01,-19.88 45.42,-19.52 53.48,-26.4 56.01,-19.88"/>
</g>
<!-- Node29 -->
<g id="node29" class="node">
<title>Node29</title>
<g id="a_node29"><a xlink:title=" ">
<polygon fill="none" stroke="#bfbfbf" points="65.5,-0.5 65.5,-19.5 121.5,-19.5 121.5,-0.5 65.5,-0.5"/>
<text text-anchor="middle" x="93.5" y="-7.5" font-family="Helvetica,sans-Serif" font-size="10.00">half.hpp</text>
</a>
</g>
</g>
<!-- Node24&#45;&gt;Node29 -->
<g id="edge33" class="edge">
<title>Node24&#45;&gt;Node29</title>
<path fill="none" stroke="midnightblue" d="M151.41,-56.32C141.01,-48.18 125.24,-35.84 112.78,-26.09"/>
<polygon fill="midnightblue" stroke="midnightblue" points="114.82,-23.24 104.79,-19.83 110.51,-28.75 114.82,-23.24"/>
</g>
<!-- Node30&#45;&gt;Node13 -->
<g id="edge44" class="edge">
<title>Node30&#45;&gt;Node13</title>
<path fill="none" stroke="midnightblue" d="M657.1,-117.94C647.56,-115.77 637.16,-113.61 627.5,-112 480.23,-87.46 440.65,-101.25 293.5,-76 292.04,-75.75 290.55,-75.48 289.05,-75.18"/>
<polygon fill="midnightblue" stroke="midnightblue" points="289.63,-71.73 279.12,-73.08 288.18,-78.58 289.63,-71.73"/>
</g>
<!-- Node30&#45;&gt;Node21 -->
<g id="edge42" class="edge">
<title>Node30&#45;&gt;Node21</title>
<path fill="none" stroke="midnightblue" d="M723.31,-117.98C764.49,-106.94 836.01,-87.77 878.63,-76.35"/>
<polygon fill="midnightblue" stroke="midnightblue" points="879.54,-79.73 888.29,-73.76 877.73,-72.96 879.54,-79.73"/>
</g>
<!-- Node30&#45;&gt;Node23 -->
<g id="edge35" class="edge">
<title>Node30&#45;&gt;Node23</title>
<path fill="none" stroke="midnightblue" d="M700.05,-117.95C714.38,-103.9 744.56,-75.54 773.5,-56 791.93,-43.56 814.24,-32.08 831.65,-23.84"/>
<polygon fill="midnightblue" stroke="midnightblue" points="833.17,-26.99 840.76,-19.6 830.22,-20.64 833.17,-26.99"/>
</g>
<!-- Node30&#45;&gt;Node27 -->
<g id="edge43" class="edge">
<title>Node30&#45;&gt;Node27</title>
<path fill="none" stroke="midnightblue" d="M656.75,-117.94C647.3,-115.8 637.04,-113.65 627.5,-112 561.12,-100.54 378.21,-119.17 326.5,-76 313.07,-64.78 308.48,-44.77 307.01,-29.9"/>
<polygon fill="midnightblue" stroke="midnightblue" points="310.49,-29.53 306.39,-19.77 303.5,-29.96 310.49,-29.53"/>
</g>
<!-- Node31 -->
<g id="node31" class="node">
<title>Node31</title>
<g id="a_node31"><a xlink:title=" ">
<polygon fill="none" stroke="#bfbfbf" points="673,-56.5 673,-75.5 726,-75.5 726,-56.5 673,-56.5"/>
<text text-anchor="middle" x="699.5" y="-63.5" font-family="Helvetica,sans-Serif" font-size="10.00">cstddef</text>
</a>
</g>
</g>
<!-- Node30&#45;&gt;Node31 -->
<g id="edge36" class="edge">
<title>Node30&#45;&gt;Node31</title>
<path fill="none" stroke="midnightblue" d="M692.65,-117.98C693.77,-109.58 695.54,-96.48 696.99,-85.66"/>
<polygon fill="midnightblue" stroke="midnightblue" points="700.49,-85.89 698.36,-75.51 693.55,-84.95 700.49,-85.89"/>
</g>
<!-- Node32 -->
<g id="node32" class="node">
<title>Node32</title>
<g id="a_node32"><a xlink:title=" ">
<polygon fill="none" stroke="#bfbfbf" points="782.5,-56.5 782.5,-75.5 832.5,-75.5 832.5,-56.5 782.5,-56.5"/>
<text text-anchor="middle" x="807.5" y="-63.5" font-family="Helvetica,sans-Serif" font-size="10.00">cstring</text>
</a>
</g>
</g>
<!-- Node30&#45;&gt;Node32 -->
<g id="edge37" class="edge">
<title>Node30&#45;&gt;Node32</title>
<path fill="none" stroke="midnightblue" d="M708.12,-117.98C727.42,-108.08 759.46,-91.64 781.93,-80.12"/>
<polygon fill="midnightblue" stroke="midnightblue" points="783.61,-83.19 790.91,-75.51 780.42,-76.96 783.61,-83.19"/>
</g>
<!-- Node33 -->
<g id="node33" class="node">
<title>Node33</title>
<g id="a_node33"><a xlink:title=" ">
<polygon fill="none" stroke="#bfbfbf" points="335.5,-56.5 335.5,-75.5 399.5,-75.5 399.5,-56.5 335.5,-56.5"/>
<text text-anchor="middle" x="367.5" y="-63.5" font-family="Helvetica,sans-Serif" font-size="10.00">algorithm</text>
</a>
</g>
</g>
<!-- Node30&#45;&gt;Node33 -->
<g id="edge38" class="edge">
<title>Node30&#45;&gt;Node33</title>
<path fill="none" stroke="midnightblue" d="M655.7,-117.99C646.53,-115.92 636.67,-113.79 627.5,-112 533.81,-93.7 507.08,-94.51 409.67,-76.14"/>
<polygon fill="midnightblue" stroke="midnightblue" points="410.17,-72.67 399.7,-74.24 408.86,-79.55 410.17,-72.67"/>
</g>
<!-- Node34 -->
<g id="node34" class="node">
<title>Node34</title>
<g id="a_node34"><a xlink:title=" ">
<polygon fill="none" stroke="#bfbfbf" points="418,-56.5 418,-75.5 483,-75.5 483,-56.5 418,-56.5"/>
<text text-anchor="middle" x="450.5" y="-63.5" font-family="Helvetica,sans-Serif" font-size="10.00">functional</text>
</a>
</g>
</g>
<!-- Node30&#45;&gt;Node34 -->
<g id="edge39" class="edge">
<title>Node30&#45;&gt;Node34</title>
<path fill="none" stroke="midnightblue" d="M656.97,-117.98C613.68,-107.29 539.51,-88.97 492.84,-77.45"/>
<polygon fill="midnightblue" stroke="midnightblue" points="493.58,-74.03 483.04,-75.03 491.91,-80.83 493.58,-74.03"/>
</g>
<!-- Node35 -->
<g id="node35" class="node">
<title>Node35</title>
<g id="a_node35"><a xlink:title=" ">
<polygon fill="none" stroke="#bfbfbf" points="501,-56.5 501,-75.5 584,-75.5 584,-56.5 501,-56.5"/>
<text text-anchor="middle" x="542.5" y="-63.5" font-family="Helvetica,sans-Serif" font-size="10.00">initializer_list</text>
</a>
</g>
</g>
<!-- Node30&#45;&gt;Node35 -->
<g id="edge40" class="edge">
<title>Node30&#45;&gt;Node35</title>
<path fill="none" stroke="midnightblue" d="M670.15,-117.98C644.81,-107.86 602.36,-90.9 573.43,-79.35"/>
<polygon fill="midnightblue" stroke="midnightblue" points="574.39,-75.97 563.81,-75.51 571.8,-82.47 574.39,-75.97"/>
</g>
<!-- Node36 -->
<g id="node36" class="node">
<title>Node36</title>
<g id="a_node36"><a xlink:title=" ">
<polygon fill="none" stroke="#bfbfbf" points="602,-56.5 602,-75.5 655,-75.5 655,-56.5 602,-56.5"/>
<text text-anchor="middle" x="628.5" y="-63.5" font-family="Helvetica,sans-Serif" font-size="10.00">iterator</text>
</a>
</g>
</g>
<!-- Node30&#45;&gt;Node36 -->
<g id="edge41" class="edge">
<title>Node30&#45;&gt;Node36</title>
<path fill="none" stroke="midnightblue" d="M682.47,-117.98C672.74,-108.78 657.04,-93.96 645.08,-82.66"/>
<polygon fill="midnightblue" stroke="midnightblue" points="647.18,-79.83 637.51,-75.51 642.38,-84.92 647.18,-79.83"/>
</g>
<!-- Node37&#45;&gt;Node23 -->
<g id="edge46" class="edge">
<title>Node37&#45;&gt;Node23</title>
<path fill="none" stroke="midnightblue" d="M814.67,-117.7C822.26,-108.01 834.14,-91.69 841.5,-76 848.52,-61.03 853.56,-42.89 856.68,-29.59"/>
<polygon fill="midnightblue" stroke="midnightblue" points="860.12,-30.24 858.85,-19.72 853.28,-28.73 860.12,-30.24"/>
</g>
<!-- Node37&#45;&gt;Node32 -->
<g id="edge47" class="edge">
<title>Node37&#45;&gt;Node32</title>
<path fill="none" stroke="midnightblue" d="M807.5,-117.98C807.5,-109.58 807.5,-96.48 807.5,-85.66"/>
<polygon fill="midnightblue" stroke="midnightblue" points="811,-85.51 807.5,-75.51 804,-85.51 811,-85.51"/>
</g>
<!-- Node38&#45;&gt;Node3 -->
<g id="edge50" class="edge">
<title>Node38&#45;&gt;Node3</title>
<path fill="none" stroke="midnightblue" d="M1439.12,-180.06C1535.27,-167.45 1712.65,-144.16 1719.5,-143 1732.09,-140.87 1745.86,-138.11 1757.84,-135.57"/>
<polygon fill="midnightblue" stroke="midnightblue" points="1758.78,-138.95 1767.82,-133.42 1757.31,-132.1 1758.78,-138.95"/>
</g>
<!-- Node38&#45;&gt;Node15 -->
<g id="edge51" class="edge">
<title>Node38&#45;&gt;Node15</title>
<path fill="none" stroke="midnightblue" d="M1371.77,-179.48C1365.82,-171.94 1356.88,-160.63 1348.93,-150.57"/>
<polygon fill="midnightblue" stroke="midnightblue" points="1351.52,-148.2 1342.58,-142.52 1346.03,-152.54 1351.52,-148.2"/>
</g>
<!-- Node38&#45;&gt;Node16 -->
<g id="edge52" class="edge">
<title>Node38&#45;&gt;Node16</title>
<path fill="none" stroke="midnightblue" d="M1354.29,-179.48C1329.47,-170.74 1290.19,-156.91 1258.79,-145.86"/>
<polygon fill="midnightblue" stroke="midnightblue" points="1259.92,-142.54 1249.33,-142.52 1257.6,-149.15 1259.92,-142.54"/>
</g>
<!-- Node39 -->
<g id="node39" class="node">
<title>Node39</title>
<g id="a_node39"><a xlink:title=" ">
<polygon fill="none" stroke="#bfbfbf" points="1402,-118 1402,-137 1449,-137 1449,-118 1402,-118"/>
<text text-anchor="middle" x="1425.5" y="-125" font-family="Helvetica,sans-Serif" font-size="10.00">queue</text>
</a>
</g>
</g>
<!-- Node38&#45;&gt;Node39 -->
<g id="edge49" class="edge">
<title>Node38&#45;&gt;Node39</title>
<path fill="none" stroke="midnightblue" d="M1385.23,-179.48C1392.28,-170.55 1403.53,-156.31 1412.35,-145.14"/>
<polygon fill="midnightblue" stroke="midnightblue" points="1415.33,-147.03 1418.78,-137.01 1409.83,-142.69 1415.33,-147.03"/>
</g>
<!-- Node40 -->
<g id="node40" class="node">
<title>Node40</title>
<g id="a_node40"><a xlink:title=" ">
<polygon fill="none" stroke="#bfbfbf" points="1467,-112.5 1467,-142.5 1580,-142.5 1580,-112.5 1467,-112.5"/>
<text text-anchor="start" x="1475" y="-130.5" font-family="Helvetica,sans-Serif" font-size="10.00">absl/container/node</text>
<text text-anchor="middle" x="1523.5" y="-119.5" font-family="Helvetica,sans-Serif" font-size="10.00">_hash_map.h</text>
</a>
</g>
</g>
<!-- Node38&#45;&gt;Node40 -->
<g id="edge53" class="edge">
<title>Node38&#45;&gt;Node40</title>
<path fill="none" stroke="midnightblue" d="M1399.27,-179.48C1420.2,-170.89 1453.11,-157.38 1479.81,-146.43"/>
<polygon fill="midnightblue" stroke="midnightblue" points="1481.4,-149.56 1489.33,-142.52 1478.75,-143.08 1481.4,-149.56"/>
</g>
<!-- Node41 -->
<g id="node41" class="node">
<title>Node41</title>
<g id="a_node41"><a xlink:title=" ">
<polygon fill="none" stroke="#bfbfbf" points="1598,-112.5 1598,-142.5 1711,-142.5 1711,-112.5 1598,-112.5"/>
<text text-anchor="start" x="1606" y="-130.5" font-family="Helvetica,sans-Serif" font-size="10.00">absl/container/node</text>
<text text-anchor="middle" x="1654.5" y="-119.5" font-family="Helvetica,sans-Serif" font-size="10.00">_hash_set.h</text>
</a>
</g>
</g>
<!-- Node38&#45;&gt;Node41 -->
<g id="edge54" class="edge">
<title>Node38&#45;&gt;Node41</title>
<path fill="none" stroke="midnightblue" d="M1418.77,-179.43C1458.99,-170.87 1522.85,-157.22 1587.95,-143.11"/>
<polygon fill="midnightblue" stroke="midnightblue" points="1588.95,-146.48 1597.98,-140.94 1587.46,-139.64 1588.95,-146.48"/>
</g>
<!-- Node38&#45;&gt;Node42 -->
<g id="edge55" class="edge">
<title>Node38&#45;&gt;Node42</title>
<path fill="none" stroke="midnightblue" d="M1317.77,-184.23C1291.54,-182.61 1260.51,-180.7 1232.5,-179 965.85,-162.78 898.72,-165.27 632.5,-143 607.84,-140.94 580.71,-138.13 557.28,-135.53"/>
<polygon fill="midnightblue" stroke="midnightblue" points="557.46,-132.03 547.14,-134.4 556.68,-138.99 557.46,-132.03"/>
</g>
<!-- Node42&#45;&gt;Node24 -->
<g id="edge56" class="edge">
<title>Node42&#45;&gt;Node24</title>
<path fill="none" stroke="midnightblue" d="M449.5,-117.98C389.05,-107.24 285.27,-88.81 220.46,-77.29"/>
<polygon fill="midnightblue" stroke="midnightblue" points="220.87,-73.81 210.41,-75.51 219.64,-80.7 220.87,-73.81"/>
</g>
<!-- Node44&#45;&gt;Node5 -->
<g id="edge63" class="edge">
<title>Node44&#45;&gt;Node5</title>
<path fill="none" stroke="midnightblue" d="M1237.92,-243.12C1362.09,-239.59 1734.64,-222.44 1819.5,-143 1835.19,-128.31 1839.14,-102.93 1839.86,-85.57"/>
<polygon fill="midnightblue" stroke="midnightblue" points="1843.36,-85.55 1839.96,-75.52 1836.36,-85.48 1843.36,-85.55"/>
</g>
<!-- Node44&#45;&gt;Node14 -->
<g id="edge65" class="edge">
<title>Node44&#45;&gt;Node14</title>
<path fill="none" stroke="midnightblue" d="M1194.69,-235.08C1192.42,-227.85 1189.13,-217.41 1186.29,-208.4"/>
<polygon fill="midnightblue" stroke="midnightblue" points="1189.6,-207.24 1183.25,-198.75 1182.92,-209.34 1189.6,-207.24"/>
</g>
<!-- Node44&#45;&gt;Node18 -->
<g id="edge66" class="edge">
<title>Node44&#45;&gt;Node18</title>
<path fill="none" stroke="midnightblue" d="M1176.83,-235.32C1128.64,-215.08 1008.65,-164.68 952.44,-141.07"/>
<polygon fill="midnightblue" stroke="midnightblue" points="953.61,-137.77 943.03,-137.12 950.9,-144.22 953.61,-137.77"/>
</g>
<!-- Node45 -->
<g id="node45" class="node">
<title>Node45</title>
<g id="a_node45"><a xlink:title=" ">
<polygon fill="none" stroke="#bfbfbf" points="1457,-179.5 1457,-198.5 1522,-198.5 1522,-179.5 1457,-179.5"/>
<text text-anchor="middle" x="1489.5" y="-186.5" font-family="Helvetica,sans-Serif" font-size="10.00">stdexcept</text>
</a>
</g>
</g>
<!-- Node44&#45;&gt;Node45 -->
<g id="edge64" class="edge">
<title>Node44&#45;&gt;Node45</title>
<path fill="none" stroke="midnightblue" d="M1237.85,-237.16C1285.3,-229.02 1366.7,-214.77 1446.71,-199.1"/>
<polygon fill="midnightblue" stroke="midnightblue" points="1447.83,-202.45 1456.96,-197.08 1446.47,-195.58 1447.83,-202.45"/>
</g>
<!-- Node46&#45;&gt;Node11 -->
<g id="edge68" class="edge">
<title>Node46&#45;&gt;Node11</title>
<path fill="none" stroke="midnightblue" d="M815.49,-291.08C816.29,-283.93 817.43,-273.64 818.42,-264.69"/>
<polygon fill="midnightblue" stroke="midnightblue" points="821.9,-265.08 819.53,-254.75 814.94,-264.3 821.9,-265.08"/>
</g>
<!-- Node47&#45;&gt;Node11 -->
<g id="edge70" class="edge">
<title>Node47&#45;&gt;Node11</title>
<path fill="none" stroke="midnightblue" d="M884.6,-347.43C882.92,-334.43 878.43,-309.29 867.5,-291 860.6,-279.45 849.94,-268.91 840.52,-260.93"/>
<polygon fill="midnightblue" stroke="midnightblue" points="842.67,-258.17 832.69,-254.63 838.28,-263.62 842.67,-258.17"/>
</g>
<!-- Node48&#45;&gt;Node4 -->
<g id="edge73" class="edge">
<title>Node48&#45;&gt;Node4</title>
<path fill="none" stroke="midnightblue" d="M1060.5,-459.08C1060.5,-452.01 1060.5,-441.86 1060.5,-432.99"/>
<polygon fill="midnightblue" stroke="midnightblue" points="1064,-432.75 1060.5,-422.75 1057,-432.75 1064,-432.75"/>
</g>
<!-- Node49 -->
<g id="node49" class="node">
<title>Node49</title>
<g id="a_node49"><a xlink:href="scope_8h.html" target="_top" xlink:title=" ">
<polygon fill="none" stroke="black" points="535.5,-291.5 535.5,-310.5 667.5,-310.5 667.5,-291.5 535.5,-291.5"/>
<text text-anchor="middle" x="601.5" y="-298.5" font-family="Helvetica,sans-Serif" font-size="10.00">thorin/analyses/scope.h</text>
</a>
</g>
</g>
<!-- Node48&#45;&gt;Node49 -->
<g id="edge74" class="edge">
<title>Node48&#45;&gt;Node49</title>
<path fill="none" stroke="midnightblue" d="M1014.37,-460.61C943,-448.02 802.67,-418.64 693.5,-367 665.39,-353.71 636.71,-331.85 619.01,-317.2"/>
<polygon fill="midnightblue" stroke="midnightblue" points="621.16,-314.43 611.26,-310.66 616.64,-319.78 621.16,-314.43"/>
</g>
<!-- Node49&#45;&gt;Node11 -->
<g id="edge75" class="edge">
<title>Node49&#45;&gt;Node11</title>
<path fill="none" stroke="midnightblue" d="M636.2,-291.44C674.08,-282.1 734.85,-267.12 776.16,-256.93"/>
<polygon fill="midnightblue" stroke="midnightblue" points="777.09,-260.31 785.96,-254.52 775.41,-253.51 777.09,-260.31"/>
</g>
<!-- Node49&#45;&gt;Node18 -->
<g id="edge76" class="edge">
<title>Node49&#45;&gt;Node18</title>
<path fill="none" stroke="midnightblue" d="M610.89,-291.47C635.11,-269.85 702.4,-212.27 767.5,-179 787.74,-168.66 843.62,-151.41 882.43,-139.99"/>
<polygon fill="midnightblue" stroke="midnightblue" points="883.77,-143.25 892.39,-137.08 881.81,-136.53 883.77,-143.25"/>
</g>
</g>
</svg>
