<?xml version="1.0" encoding="UTF-8" standalone="no"?>
<!DOCTYPE svg PUBLIC "-//W3C//DTD SVG 1.1//EN"
 "http://www.w3.org/Graphics/SVG/1.1/DTD/svg11.dtd">
<!-- Generated by graphviz version 2.43.0 (0)
 -->
<!-- Title: thorin/pass/pipelinebuilder.h Pages: 1 -->
<svg width="2438pt" height="441pt"
 viewBox="0.00 0.00 2438.00 441.00" xmlns="http://www.w3.org/2000/svg" xmlns:xlink="http://www.w3.org/1999/xlink">
<g id="graph0" class="graph" transform="scale(1 1) rotate(0) translate(4 437)">
<title>thorin/pass/pipelinebuilder.h</title>
<!-- Node1 -->
<g id="node1" class="node">
<title>Node1</title>
<g id="a_node1"><a xlink:title=" ">
<polygon fill="#bfbfbf" stroke="black" points="1691,-413.5 1691,-432.5 1846,-432.5 1846,-413.5 1691,-413.5"/>
<text text-anchor="middle" x="1768.5" y="-420.5" font-family="Helvetica,sans-Serif" font-size="10.00">thorin/pass/pipelinebuilder.h</text>
</a>
</g>
</g>
<!-- Node2 -->
<g id="node2" class="node">
<title>Node2</title>
<g id="a_node2"><a xlink:href="dialects_8h.html" target="_top" xlink:title=" ">
<polygon fill="none" stroke="black" points="1587,-357.5 1587,-376.5 1682,-376.5 1682,-357.5 1587,-357.5"/>
<text text-anchor="middle" x="1634.5" y="-364.5" font-family="Helvetica,sans-Serif" font-size="10.00">thorin/dialects.h</text>
</a>
</g>
</g>
<!-- Node1&#45;&gt;Node2 -->
<g id="edge1" class="edge">
<title>Node1&#45;&gt;Node2</title>
<path fill="none" stroke="midnightblue" d="M1737.82,-409.64C1712.68,-399.5 1677.75,-385.43 1655.63,-376.52"/>
<polygon fill="midnightblue" stroke="midnightblue" points="1736.68,-412.95 1747.27,-413.44 1739.3,-406.46 1736.68,-412.95"/>
</g>
<!-- Node47 -->
<g id="node47" class="node">
<title>Node47</title>
<g id="a_node47"><a xlink:href="optimize_8cpp.html" target="_top" xlink:title=" ">
<polygon fill="none" stroke="black" points="1700,-357.5 1700,-376.5 1837,-376.5 1837,-357.5 1700,-357.5"/>
<text text-anchor="middle" x="1768.5" y="-364.5" font-family="Helvetica,sans-Serif" font-size="10.00">thorin/pass/optimize.cpp</text>
</a>
</g>
</g>
<!-- Node1&#45;&gt;Node47 -->
<g id="edge64" class="edge">
<title>Node1&#45;&gt;Node47</title>
<path fill="none" stroke="midnightblue" d="M1768.5,-402.8C1768.5,-393.91 1768.5,-383.78 1768.5,-376.75"/>
<polygon fill="midnightblue" stroke="midnightblue" points="1765,-403.08 1768.5,-413.08 1772,-403.08 1765,-403.08"/>
</g>
<!-- Node48 -->
<g id="node48" class="node">
<title>Node48</title>
<g id="a_node48"><a xlink:href="pipelinebuilder_8cpp.html" target="_top" xlink:title=" ">
<polygon fill="none" stroke="black" points="1855.5,-357.5 1855.5,-376.5 2021.5,-376.5 2021.5,-357.5 1855.5,-357.5"/>
<text text-anchor="middle" x="1938.5" y="-364.5" font-family="Helvetica,sans-Serif" font-size="10.00">thorin/pass/pipelinebuilder.cpp</text>
</a>
</g>
</g>
<!-- Node1&#45;&gt;Node48 -->
<g id="edge65" class="edge">
<title>Node1&#45;&gt;Node48</title>
<path fill="none" stroke="midnightblue" d="M1805.32,-410.3C1837.35,-400.13 1883.02,-385.62 1911.69,-376.52"/>
<polygon fill="midnightblue" stroke="midnightblue" points="1803.91,-407.08 1795.44,-413.44 1806.03,-413.75 1803.91,-407.08"/>
</g>
<!-- Node3 -->
<g id="node3" class="node">
<title>Node3</title>
<g id="a_node3"><a xlink:href="affine_2autogen_8h.html" target="_top" xlink:title=" ">
<polygon fill="none" stroke="black" points="227.5,-290.5 227.5,-320.5 347.5,-320.5 347.5,-290.5 227.5,-290.5"/>
<text text-anchor="start" x="235.5" y="-308.5" font-family="Helvetica,sans-Serif" font-size="10.00">build/include/dialects</text>
<text text-anchor="middle" x="287.5" y="-297.5" font-family="Helvetica,sans-Serif" font-size="10.00">/affine/autogen.h</text>
</a>
</g>
</g>
<!-- Node2&#45;&gt;Node3 -->
<g id="edge2" class="edge">
<title>Node2&#45;&gt;Node3</title>
<path fill="none" stroke="midnightblue" d="M1576.63,-363.52C1419.92,-356.79 974.21,-337.6 603.5,-321 514.48,-317.02 411.37,-312.26 347.78,-309.31"/>
<polygon fill="midnightblue" stroke="midnightblue" points="1576.83,-367.03 1586.97,-363.96 1577.13,-360.04 1576.83,-367.03"/>
</g>
<!-- Node5 -->
<g id="node5" class="node">
<title>Node5</title>
<g id="a_node5"><a xlink:href="affine_8cpp.html" target="_top" xlink:title=" ">
<polygon fill="none" stroke="black" points="0,-156.5 0,-175.5 137,-175.5 137,-156.5 0,-156.5"/>
<text text-anchor="middle" x="68.5" y="-163.5" font-family="Helvetica,sans-Serif" font-size="10.00">dialects/affine/affine.cpp</text>
</a>
</g>
</g>
<!-- Node2&#45;&gt;Node5 -->
<g id="edge54" class="edge">
<title>Node2&#45;&gt;Node5</title>
<path fill="none" stroke="midnightblue" d="M1576.32,-365.72C1326.44,-364.29 350.9,-356.49 218.5,-321 157.62,-304.68 133.1,-303.04 93.5,-254 74.35,-230.28 69.87,-192.55 68.82,-175.66"/>
<polygon fill="midnightblue" stroke="midnightblue" points="1576.62,-369.22 1586.64,-365.78 1576.66,-362.22 1576.62,-369.22"/>
</g>
<!-- Node7 -->
<g id="node7" class="node">
<title>Node7</title>
<g id="a_node7"><a xlink:href="clos_2autogen_8h.html" target="_top" xlink:title=" ">
<polygon fill="none" stroke="black" points="889.5,-290.5 889.5,-320.5 1009.5,-320.5 1009.5,-290.5 889.5,-290.5"/>
<text text-anchor="start" x="897.5" y="-308.5" font-family="Helvetica,sans-Serif" font-size="10.00">build/include/dialects</text>
<text text-anchor="middle" x="949.5" y="-297.5" font-family="Helvetica,sans-Serif" font-size="10.00">/clos/autogen.h</text>
</a>
</g>
</g>
<!-- Node2&#45;&gt;Node7 -->
<g id="edge6" class="edge">
<title>Node2&#45;&gt;Node7</title>
<path fill="none" stroke="midnightblue" d="M1576.85,-360.99C1448.54,-349.85 1140.42,-323.08 1009.73,-311.73"/>
<polygon fill="midnightblue" stroke="midnightblue" points="1576.61,-364.48 1586.88,-361.86 1577.22,-357.51 1576.61,-364.48"/>
</g>
<!-- Node9 -->
<g id="node9" class="node">
<title>Node9</title>
<g id="a_node9"><a xlink:href="clos_8cpp.html" target="_top" xlink:title=" ">
<polygon fill="none" stroke="black" points="193.5,-156.5 193.5,-175.5 313.5,-175.5 313.5,-156.5 193.5,-156.5"/>
<text text-anchor="middle" x="253.5" y="-163.5" font-family="Helvetica,sans-Serif" font-size="10.00">dialects/clos/clos.cpp</text>
</a>
</g>
</g>
<!-- Node2&#45;&gt;Node9 -->
<g id="edge55" class="edge">
<title>Node2&#45;&gt;Node9</title>
<path fill="none" stroke="midnightblue" d="M1576.74,-366.11C1449.96,-365.57 1138.09,-359.99 880.5,-321 644.44,-285.27 367.14,-202.39 280.65,-175.55"/>
<polygon fill="midnightblue" stroke="midnightblue" points="1576.98,-369.61 1586.99,-366.14 1577,-362.61 1576.98,-369.61"/>
</g>
<!-- Node23 -->
<g id="node23" class="node">
<title>Node23</title>
<g id="a_node23"><a xlink:href="core_2autogen_8h.html" target="_top" xlink:title=" ">
<polygon fill="none" stroke="black" points="1275.5,-290.5 1275.5,-320.5 1395.5,-320.5 1395.5,-290.5 1275.5,-290.5"/>
<text text-anchor="start" x="1283.5" y="-308.5" font-family="Helvetica,sans-Serif" font-size="10.00">build/include/dialects</text>
<text text-anchor="middle" x="1335.5" y="-297.5" font-family="Helvetica,sans-Serif" font-size="10.00">/core/autogen.h</text>
</a>
</g>
</g>
<!-- Node2&#45;&gt;Node23 -->
<g id="edge23" class="edge">
<title>Node2&#45;&gt;Node23</title>
<path fill="none" stroke="midnightblue" d="M1581.62,-355.48C1529.52,-345.11 1450.03,-329.29 1395.57,-318.45"/>
<polygon fill="midnightblue" stroke="midnightblue" points="1581.17,-358.96 1591.66,-357.48 1582.54,-352.09 1581.17,-358.96"/>
</g>
<!-- Node25 -->
<g id="node25" class="node">
<title>Node25</title>
<g id="a_node25"><a xlink:href="core_8cpp.html" target="_top" xlink:title=" ">
<polygon fill="none" stroke="black" points="1483,-156.5 1483,-175.5 1606,-175.5 1606,-156.5 1483,-156.5"/>
<text text-anchor="middle" x="1544.5" y="-163.5" font-family="Helvetica,sans-Serif" font-size="10.00">dialects/core/core.cpp</text>
</a>
</g>
</g>
<!-- Node2&#45;&gt;Node25 -->
<g id="edge56" class="edge">
<title>Node2&#45;&gt;Node25</title>
<path fill="none" stroke="midnightblue" d="M1626.4,-348.1C1607.72,-306.79 1562.15,-206.02 1548.45,-175.74"/>
<polygon fill="midnightblue" stroke="midnightblue" points="1623.32,-349.78 1630.63,-357.45 1629.7,-346.9 1623.32,-349.78"/>
</g>
<!-- Node28 -->
<g id="node28" class="node">
<title>Node28</title>
<g id="a_node28"><a xlink:href="mem_8cpp.html" target="_top" xlink:title=" ">
<polygon fill="none" stroke="black" points="2222.5,-78.5 2222.5,-97.5 2354.5,-97.5 2354.5,-78.5 2222.5,-78.5"/>
<text text-anchor="middle" x="2288.5" y="-85.5" font-family="Helvetica,sans-Serif" font-size="10.00">dialects/mem/mem.cpp</text>
</a>
</g>
</g>
<!-- Node2&#45;&gt;Node28 -->
<g id="edge59" class="edge">
<title>Node2&#45;&gt;Node28</title>
<path fill="none" stroke="midnightblue" d="M1633.15,-347.19C1630.12,-298.96 1625.15,-172.75 1653.5,-145 1698.06,-101.39 2151.97,-119.08 2213.5,-109 2229.72,-106.34 2247.52,-101.67 2261.7,-97.52"/>
<polygon fill="midnightblue" stroke="midnightblue" points="1629.67,-347.68 1633.84,-357.43 1636.66,-347.21 1629.67,-347.68"/>
</g>
<!-- Node34 -->
<g id="node34" class="node">
<title>Node34</title>
<g id="a_node34"><a xlink:href="debug_2autogen_8h.html" target="_top" xlink:title=" ">
<polygon fill="none" stroke="black" points="1702.5,-290.5 1702.5,-320.5 1822.5,-320.5 1822.5,-290.5 1702.5,-290.5"/>
<text text-anchor="start" x="1710.5" y="-308.5" font-family="Helvetica,sans-Serif" font-size="10.00">build/include/dialects</text>
<text text-anchor="middle" x="1762.5" y="-297.5" font-family="Helvetica,sans-Serif" font-size="10.00">/debug/autogen.h</text>
</a>
</g>
</g>
<!-- Node2&#45;&gt;Node34 -->
<g id="edge43" class="edge">
<title>Node2&#45;&gt;Node34</title>
<path fill="none" stroke="midnightblue" d="M1662.04,-353.2C1682.72,-343.58 1711.04,-330.42 1732.33,-320.52"/>
<polygon fill="midnightblue" stroke="midnightblue" points="1660.43,-350.09 1652.84,-357.48 1663.38,-356.43 1660.43,-350.09"/>
</g>
<!-- Node36 -->
<g id="node36" class="node">
<title>Node36</title>
<g id="a_node36"><a xlink:href="dialects_2debug_2debug_8cpp.html" target="_top" xlink:title=" ">
<polygon fill="none" stroke="black" points="1663,-156.5 1663,-175.5 1804,-175.5 1804,-156.5 1663,-156.5"/>
<text text-anchor="middle" x="1733.5" y="-163.5" font-family="Helvetica,sans-Serif" font-size="10.00">dialects/debug/debug.cpp</text>
</a>
</g>
</g>
<!-- Node2&#45;&gt;Node36 -->
<g id="edge57" class="edge">
<title>Node2&#45;&gt;Node36</title>
<path fill="none" stroke="midnightblue" d="M1640.09,-347.63C1648.96,-319.72 1667.71,-265.39 1691.5,-223 1701.61,-204.98 1716.81,-186.2 1725.89,-175.61"/>
<polygon fill="midnightblue" stroke="midnightblue" points="1636.72,-346.67 1637.09,-357.26 1643.4,-348.75 1636.72,-346.67"/>
</g>
<!-- Node39 -->
<g id="node39" class="node">
<title>Node39</title>
<g id="a_node39"><a xlink:href="direct_2autogen_8h.html" target="_top" xlink:title=" ">
<polygon fill="none" stroke="black" points="1845.5,-290.5 1845.5,-320.5 1965.5,-320.5 1965.5,-290.5 1845.5,-290.5"/>
<text text-anchor="start" x="1853.5" y="-308.5" font-family="Helvetica,sans-Serif" font-size="10.00">build/include/dialects</text>
<text text-anchor="middle" x="1905.5" y="-297.5" font-family="Helvetica,sans-Serif" font-size="10.00">/direct/autogen.h</text>
</a>
</g>
</g>
<!-- Node2&#45;&gt;Node39 -->
<g id="edge48" class="edge">
<title>Node2&#45;&gt;Node39</title>
<path fill="none" stroke="midnightblue" d="M1683.23,-355.3C1728.63,-345.33 1796.47,-330.44 1845.25,-319.73"/>
<polygon fill="midnightblue" stroke="midnightblue" points="1682.34,-351.91 1673.33,-357.48 1683.85,-358.75 1682.34,-351.91"/>
</g>
<!-- Node41 -->
<g id="node41" class="node">
<title>Node41</title>
<g id="a_node41"><a xlink:href="direct_8cpp.html" target="_top" xlink:title=" ">
<polygon fill="none" stroke="black" points="2293,-156.5 2293,-175.5 2430,-175.5 2430,-156.5 2293,-156.5"/>
<text text-anchor="middle" x="2361.5" y="-163.5" font-family="Helvetica,sans-Serif" font-size="10.00">dialects/direct/direct.cpp</text>
</a>
</g>
</g>
<!-- Node2&#45;&gt;Node41 -->
<g id="edge58" class="edge">
<title>Node2&#45;&gt;Node41</title>
<path fill="none" stroke="midnightblue" d="M1692.19,-356.85C1818.52,-340.35 1859.39,-367.11 1974.5,-321 1996.04,-312.37 1996.32,-301.45 2016.5,-290 2083.55,-251.95 2103.96,-249.09 2176.5,-223 2229.55,-203.92 2292.64,-185.77 2329.75,-175.54"/>
<polygon fill="midnightblue" stroke="midnightblue" points="1691.57,-353.4 1682.14,-358.23 1692.53,-360.34 1691.57,-353.4"/>
</g>
<!-- Node43 -->
<g id="node43" class="node">
<title>Node43</title>
<g id="a_node43"><a xlink:href="mem_2autogen_8h.html" target="_top" xlink:title=" ">
<polygon fill="none" stroke="black" points="1419.5,-223.5 1419.5,-253.5 1539.5,-253.5 1539.5,-223.5 1419.5,-223.5"/>
<text text-anchor="start" x="1427.5" y="-241.5" font-family="Helvetica,sans-Serif" font-size="10.00">build/include/dialects</text>
<text text-anchor="middle" x="1479.5" y="-230.5" font-family="Helvetica,sans-Serif" font-size="10.00">/mem/autogen.h</text>
</a>
</g>
</g>
<!-- Node2&#45;&gt;Node43 -->
<g id="edge52" class="edge">
<title>Node2&#45;&gt;Node43</title>
<path fill="none" stroke="midnightblue" d="M1610.26,-352.33C1596.14,-343.95 1578.26,-332.64 1563.5,-321 1536.37,-299.61 1508.23,-270.69 1492.39,-253.67"/>
<polygon fill="midnightblue" stroke="midnightblue" points="1608.53,-355.37 1618.93,-357.38 1612.05,-349.32 1608.53,-355.37"/>
</g>
<!-- Node44 -->
<g id="node44" class="node">
<title>Node44</title>
<g id="a_node44"><a xlink:href="dialects_8cpp.html" target="_top" xlink:title=" ">
<polygon fill="none" stroke="black" points="2026,-296 2026,-315 2133,-315 2133,-296 2026,-296"/>
<text text-anchor="middle" x="2079.5" y="-303" font-family="Helvetica,sans-Serif" font-size="10.00">thorin/dialects.cpp</text>
</a>
</g>
</g>
<!-- Node2&#45;&gt;Node44 -->
<g id="edge60" class="edge">
<title>Node2&#45;&gt;Node44</title>
<path fill="none" stroke="midnightblue" d="M1692.11,-356.84C1834.46,-337.88 1872.98,-343.48 2011.5,-321 2021.63,-319.36 2032.53,-317.21 2042.57,-315.07"/>
<polygon fill="midnightblue" stroke="midnightblue" points="1691.58,-353.38 1682.14,-358.19 1692.51,-360.32 1691.58,-353.38"/>
</g>
<!-- Node45 -->
<g id="node45" class="node">
<title>Node45</title>
<g id="a_node45"><a xlink:href="parser_8cpp.html" target="_top" xlink:title=" ">
<polygon fill="none" stroke="black" points="2185,-229 2185,-248 2296,-248 2296,-229 2185,-229"/>
<text text-anchor="middle" x="2240.5" y="-236" font-family="Helvetica,sans-Serif" font-size="10.00">thorin/fe/parser.cpp</text>
</a>
</g>
</g>
<!-- Node2&#45;&gt;Node45 -->
<g id="edge61" class="edge">
<title>Node2&#45;&gt;Node45</title>
<path fill="none" stroke="midnightblue" d="M1692.24,-357.19C1789.14,-351.21 2218.76,-365.46 2260.5,-321 2279.65,-300.61 2258.82,-264.96 2247.21,-248.41"/>
<polygon fill="midnightblue" stroke="midnightblue" points="1691.79,-353.72 1682.12,-358.03 1692.37,-360.69 1691.79,-353.72"/>
</g>
<!-- Node46 -->
<g id="node46" class="node">
<title>Node46</title>
<g id="a_node46"><a xlink:href="parser_8h.html" target="_top" xlink:title=" ">
<polygon fill="none" stroke="black" points="2151.5,-296 2151.5,-315 2251.5,-315 2251.5,-296 2151.5,-296"/>
<text text-anchor="middle" x="2201.5" y="-303" font-family="Helvetica,sans-Serif" font-size="10.00">thorin/fe/parser.h</text>
</a>
</g>
</g>
<!-- Node2&#45;&gt;Node46 -->
<g id="edge62" class="edge">
<title>Node2&#45;&gt;Node46</title>
<path fill="none" stroke="midnightblue" d="M1692.06,-356.9C1891.89,-333.65 1946.13,-352.2 2141.5,-321 2150.92,-319.5 2161.04,-317.28 2170.24,-315.04"/>
<polygon fill="midnightblue" stroke="midnightblue" points="1691.64,-353.43 1682.12,-358.08 1692.46,-360.38 1691.64,-353.43"/>
</g>
<!-- Node4 -->
<g id="node4" class="node">
<title>Node4</title>
<g id="a_node4"><a xlink:href="affine_8h.html" target="_top" xlink:title=" ">
<polygon fill="none" stroke="black" points="103,-229 103,-248 228,-248 228,-229 103,-229"/>
<text text-anchor="middle" x="165.5" y="-236" font-family="Helvetica,sans-Serif" font-size="10.00">dialects/affine/affine.h</text>
</a>
</g>
</g>
<!-- Node3&#45;&gt;Node4 -->
<g id="edge3" class="edge">
<title>Node3&#45;&gt;Node4</title>
<path fill="none" stroke="midnightblue" d="M252.1,-285.64C228.76,-273.2 199.31,-257.51 181.47,-248.01"/>
<polygon fill="midnightblue" stroke="midnightblue" points="250.56,-288.78 261.03,-290.4 253.85,-282.6 250.56,-288.78"/>
</g>
<!-- Node4&#45;&gt;Node5 -->
<g id="edge4" class="edge">
<title>Node4&#45;&gt;Node5</title>
<path fill="none" stroke="midnightblue" d="M145.36,-222.86C125.78,-208.63 96.69,-187.49 80.49,-175.72"/>
<polygon fill="midnightblue" stroke="midnightblue" points="143.46,-225.81 153.61,-228.86 147.57,-220.14 143.46,-225.81"/>
</g>
<!-- Node6 -->
<g id="node6" class="node">
<title>Node6</title>
<g id="a_node6"><a xlink:href="lower__for_8cpp.html" target="_top" xlink:title=" ">
<polygon fill="none" stroke="black" points="481.5,-73 481.5,-103 603.5,-103 603.5,-73 481.5,-73"/>
<text text-anchor="start" x="489.5" y="-91" font-family="Helvetica,sans-Serif" font-size="10.00">dialects/affine/passes</text>
<text text-anchor="middle" x="542.5" y="-80" font-family="Helvetica,sans-Serif" font-size="10.00">/lower_for.cpp</text>
</a>
</g>
</g>
<!-- Node4&#45;&gt;Node6 -->
<g id="edge5" class="edge">
<title>Node4&#45;&gt;Node6</title>
<path fill="none" stroke="midnightblue" d="M163.56,-218.84C162.5,-197.72 164.42,-163.81 184.5,-145 227.06,-105.12 387.01,-118.84 444.5,-109 456.48,-106.95 469.24,-104.53 481.45,-102.09"/>
<polygon fill="midnightblue" stroke="midnightblue" points="160.08,-219.12 164.34,-228.83 167.05,-218.59 160.08,-219.12"/>
</g>
<!-- Node8 -->
<g id="node8" class="node">
<title>Node8</title>
<g id="a_node8"><a xlink:href="clos_8h.html" target="_top" xlink:title=" ">
<polygon fill="none" stroke="black" points="767,-229 767,-248 876,-248 876,-229 767,-229"/>
<text text-anchor="middle" x="821.5" y="-236" font-family="Helvetica,sans-Serif" font-size="10.00">dialects/clos/clos.h</text>
</a>
</g>
</g>
<!-- Node7&#45;&gt;Node8 -->
<g id="edge7" class="edge">
<title>Node7&#45;&gt;Node8</title>
<path fill="none" stroke="midnightblue" d="M912.68,-285.8C888.14,-273.34 857.06,-257.56 838.25,-248.01"/>
<polygon fill="midnightblue" stroke="midnightblue" points="911.22,-288.99 921.73,-290.4 914.39,-282.75 911.22,-288.99"/>
</g>
<!-- Node8&#45;&gt;Node9 -->
<g id="edge8" class="edge">
<title>Node8&#45;&gt;Node9</title>
<path fill="none" stroke="midnightblue" d="M756.89,-232.21C642.37,-222.61 408.25,-201.94 327.5,-187 311.93,-184.12 294.84,-179.6 281.02,-175.58"/>
<polygon fill="midnightblue" stroke="midnightblue" points="756.67,-235.7 766.92,-233.05 757.25,-228.73 756.67,-235.7"/>
</g>
<!-- Node10 -->
<g id="node10" class="node">
<title>Node10</title>
<g id="a_node10"><a xlink:href="clos_2normalizers_8cpp.html" target="_top" xlink:title=" ">
<polygon fill="none" stroke="black" points="507.5,-156.5 507.5,-175.5 665.5,-175.5 665.5,-156.5 507.5,-156.5"/>
<text text-anchor="middle" x="586.5" y="-163.5" font-family="Helvetica,sans-Serif" font-size="10.00">dialects/clos/normalizers.cpp</text>
</a>
</g>
</g>
<!-- Node8&#45;&gt;Node10 -->
<g id="edge9" class="edge">
<title>Node8&#45;&gt;Node10</title>
<path fill="none" stroke="midnightblue" d="M783.32,-226.05C736.18,-211.9 657.09,-188.18 614.95,-175.53"/>
<polygon fill="midnightblue" stroke="midnightblue" points="782.57,-229.47 793.15,-229 784.58,-222.77 782.57,-229.47"/>
</g>
<!-- Node11 -->
<g id="node11" class="node">
<title>Node11</title>
<g id="a_node11"><a xlink:href="lower__typed__clos__prep_8h.html" target="_top" xlink:title=" ">
<polygon fill="none" stroke="black" points="1084,-145.5 1084,-186.5 1201,-186.5 1201,-145.5 1084,-145.5"/>
<text text-anchor="start" x="1092" y="-174.5" font-family="Helvetica,sans-Serif" font-size="10.00">dialects/clos/pass</text>
<text text-anchor="start" x="1092" y="-163.5" font-family="Helvetica,sans-Serif" font-size="10.00">/fp/lower_typed_clos</text>
<text text-anchor="middle" x="1142.5" y="-152.5" font-family="Helvetica,sans-Serif" font-size="10.00">_prep.h</text>
</a>
</g>
</g>
<!-- Node8&#45;&gt;Node11 -->
<g id="edge10" class="edge">
<title>Node8&#45;&gt;Node11</title>
<path fill="none" stroke="midnightblue" d="M870.11,-226.82C927.37,-214.25 1022.44,-193.37 1083.77,-179.9"/>
<polygon fill="midnightblue" stroke="midnightblue" points="869.24,-223.43 860.22,-229 870.74,-230.27 869.24,-223.43"/>
</g>
<!-- Node13 -->
<g id="node13" class="node">
<title>Node13</title>
<g id="a_node13"><a xlink:href="branch__clos__elim_8cpp.html" target="_top" xlink:title=" ">
<polygon fill="none" stroke="black" points="849.5,-151 849.5,-181 989.5,-181 989.5,-151 849.5,-151"/>
<text text-anchor="start" x="857.5" y="-169" font-family="Helvetica,sans-Serif" font-size="10.00">dialects/clos/pass</text>
<text text-anchor="middle" x="919.5" y="-158" font-family="Helvetica,sans-Serif" font-size="10.00">/rw/branch_clos_elim.cpp</text>
</a>
</g>
</g>
<!-- Node8&#45;&gt;Node13 -->
<g id="edge12" class="edge">
<title>Node8&#45;&gt;Node13</title>
<path fill="none" stroke="midnightblue" d="M841.7,-222.97C858.77,-210.69 883.05,-193.22 899.93,-181.08"/>
<polygon fill="midnightblue" stroke="midnightblue" points="839.59,-220.17 833.52,-228.86 843.68,-225.86 839.59,-220.17"/>
</g>
<!-- Node14 -->
<g id="node14" class="node">
<title>Node14</title>
<g id="a_node14"><a xlink:href="clos2sjlj_8h.html" target="_top" xlink:title=" ">
<polygon fill="none" stroke="black" points="1151,-73 1151,-103 1254,-103 1254,-73 1151,-73"/>
<text text-anchor="start" x="1159" y="-91" font-family="Helvetica,sans-Serif" font-size="10.00">dialects/clos/pass</text>
<text text-anchor="middle" x="1202.5" y="-80" font-family="Helvetica,sans-Serif" font-size="10.00">/rw/clos2sjlj.h</text>
</a>
</g>
</g>
<!-- Node8&#45;&gt;Node14 -->
<g id="edge13" class="edge">
<title>Node8&#45;&gt;Node14</title>
<path fill="none" stroke="midnightblue" d="M886.26,-233.67C991.13,-226.81 1188.54,-210.86 1209.5,-187 1229.87,-163.8 1217.94,-124.42 1209.2,-103.33"/>
<polygon fill="midnightblue" stroke="midnightblue" points="885.86,-230.19 876.1,-234.33 886.31,-237.18 885.86,-230.19"/>
</g>
<!-- Node16 -->
<g id="node16" class="node">
<title>Node16</title>
<g id="a_node16"><a xlink:href="clos__conv__prep_8cpp.html" target="_top" xlink:title=" ">
<polygon fill="none" stroke="black" points="305.5,-73 305.5,-103 435.5,-103 435.5,-73 305.5,-73"/>
<text text-anchor="start" x="313.5" y="-91" font-family="Helvetica,sans-Serif" font-size="10.00">dialects/clos/pass</text>
<text text-anchor="middle" x="370.5" y="-80" font-family="Helvetica,sans-Serif" font-size="10.00">/rw/clos_conv_prep.cpp</text>
</a>
</g>
</g>
<!-- Node8&#45;&gt;Node16 -->
<g id="edge15" class="edge">
<title>Node8&#45;&gt;Node16</title>
<path fill="none" stroke="midnightblue" d="M756.79,-232.69C632.97,-223.16 373.57,-201.58 360.5,-187 339.72,-163.82 353.54,-124.07 363.27,-103.02"/>
<polygon fill="midnightblue" stroke="midnightblue" points="756.66,-236.19 766.9,-233.46 757.2,-229.21 756.66,-236.19"/>
</g>
<!-- Node17 -->
<g id="node17" class="node">
<title>Node17</title>
<g id="a_node17"><a xlink:href="clos__conv__prep_8h.html" target="_top" xlink:title=" ">
<polygon fill="none" stroke="black" points="370,-151 370,-181 489,-181 489,-151 370,-151"/>
<text text-anchor="start" x="378" y="-169" font-family="Helvetica,sans-Serif" font-size="10.00">dialects/clos/pass</text>
<text text-anchor="middle" x="429.5" y="-158" font-family="Helvetica,sans-Serif" font-size="10.00">/rw/clos_conv_prep.h</text>
</a>
</g>
</g>
<!-- Node8&#45;&gt;Node17 -->
<g id="edge16" class="edge">
<title>Node8&#45;&gt;Node17</title>
<path fill="none" stroke="midnightblue" d="M756.63,-229.82C691.09,-221.49 587.12,-206.69 498.5,-187 490.83,-185.3 482.76,-183.22 474.94,-181.06"/>
<polygon fill="midnightblue" stroke="midnightblue" points="756.45,-233.33 766.81,-231.1 757.33,-226.38 756.45,-233.33"/>
</g>
<!-- Node18 -->
<g id="node18" class="node">
<title>Node18</title>
<g id="a_node18"><a xlink:href="clos__conv_8h.html" target="_top" xlink:title=" ">
<polygon fill="none" stroke="black" points="683.5,-151 683.5,-181 793.5,-181 793.5,-151 683.5,-151"/>
<text text-anchor="start" x="691.5" y="-169" font-family="Helvetica,sans-Serif" font-size="10.00">dialects/clos/phase</text>
<text text-anchor="middle" x="738.5" y="-158" font-family="Helvetica,sans-Serif" font-size="10.00">/clos_conv.h</text>
</a>
</g>
</g>
<!-- Node8&#45;&gt;Node18 -->
<g id="edge18" class="edge">
<title>Node8&#45;&gt;Node18</title>
<path fill="none" stroke="midnightblue" d="M803.59,-222.28C789.18,-210.05 769.11,-193 755.07,-181.08"/>
<polygon fill="midnightblue" stroke="midnightblue" points="801.44,-225.05 811.32,-228.86 805.97,-219.71 801.44,-225.05"/>
</g>
<!-- Node20 -->
<g id="node20" class="node">
<title>Node20</title>
<g id="a_node20"><a xlink:href="lower__typed__clos_8h.html" target="_top" xlink:title=" ">
<polygon fill="none" stroke="black" points="885,-73 885,-103 998,-103 998,-73 885,-73"/>
<text text-anchor="start" x="893" y="-91" font-family="Helvetica,sans-Serif" font-size="10.00">dialects/clos/phase</text>
<text text-anchor="middle" x="941.5" y="-80" font-family="Helvetica,sans-Serif" font-size="10.00">/lower_typed_clos.h</text>
</a>
</g>
</g>
<!-- Node8&#45;&gt;Node20 -->
<g id="edge20" class="edge">
<title>Node8&#45;&gt;Node20</title>
<path fill="none" stroke="midnightblue" d="M886.31,-227.36C930.99,-218.89 984.72,-205.26 998.5,-187 1009.74,-172.1 1005.72,-162.21 998.5,-145 991.26,-127.73 975.8,-113.1 962.81,-103.13"/>
<polygon fill="midnightblue" stroke="midnightblue" points="885.55,-223.94 876.35,-229.19 886.82,-230.82 885.55,-223.94"/>
</g>
<!-- Node22 -->
<g id="node22" class="node">
<title>Node22</title>
<g id="a_node22"><a xlink:href="ll_8cpp.html" target="_top" xlink:title=" ">
<polygon fill="none" stroke="black" points="764,-73 764,-103 867,-103 867,-73 764,-73"/>
<text text-anchor="start" x="772" y="-91" font-family="Helvetica,sans-Serif" font-size="10.00">dialects/core/be/ll</text>
<text text-anchor="middle" x="815.5" y="-80" font-family="Helvetica,sans-Serif" font-size="10.00">/ll.cpp</text>
</a>
</g>
</g>
<!-- Node8&#45;&gt;Node22 -->
<g id="edge22" class="edge">
<title>Node8&#45;&gt;Node22</title>
<path fill="none" stroke="midnightblue" d="M820.74,-218.63C819.52,-188.57 817.18,-130.46 816.08,-103.45"/>
<polygon fill="midnightblue" stroke="midnightblue" points="817.24,-218.8 821.14,-228.66 824.24,-218.52 817.24,-218.8"/>
</g>
<!-- Node12 -->
<g id="node12" class="node">
<title>Node12</title>
<g id="a_node12"><a xlink:href="lower__typed__clos__prep_8cpp.html" target="_top" xlink:title=" ">
<polygon fill="none" stroke="black" points="1016,-67.5 1016,-108.5 1133,-108.5 1133,-67.5 1016,-67.5"/>
<text text-anchor="start" x="1024" y="-96.5" font-family="Helvetica,sans-Serif" font-size="10.00">dialects/clos/pass</text>
<text text-anchor="start" x="1024" y="-85.5" font-family="Helvetica,sans-Serif" font-size="10.00">/fp/lower_typed_clos</text>
<text text-anchor="middle" x="1074.5" y="-74.5" font-family="Helvetica,sans-Serif" font-size="10.00">_prep.cpp</text>
</a>
</g>
</g>
<!-- Node11&#45;&gt;Node12 -->
<g id="edge11" class="edge">
<title>Node11&#45;&gt;Node12</title>
<path fill="none" stroke="midnightblue" d="M1118.27,-137.92C1109.58,-128.2 1099.96,-117.45 1091.95,-108.51"/>
<polygon fill="midnightblue" stroke="midnightblue" points="1115.71,-140.31 1124.99,-145.43 1120.93,-135.64 1115.71,-140.31"/>
</g>
<!-- Node15 -->
<g id="node15" class="node">
<title>Node15</title>
<g id="a_node15"><a xlink:href="clos2sjlj_8cpp.html" target="_top" xlink:title=" ">
<polygon fill="none" stroke="black" points="1191,-0.5 1191,-30.5 1294,-30.5 1294,-0.5 1191,-0.5"/>
<text text-anchor="start" x="1199" y="-18.5" font-family="Helvetica,sans-Serif" font-size="10.00">dialects/clos/pass</text>
<text text-anchor="middle" x="1242.5" y="-7.5" font-family="Helvetica,sans-Serif" font-size="10.00">/rw/clos2sjlj.cpp</text>
</a>
</g>
</g>
<!-- Node14&#45;&gt;Node15 -->
<g id="edge14" class="edge">
<title>Node14&#45;&gt;Node15</title>
<path fill="none" stroke="midnightblue" d="M1215.7,-63.73C1221.89,-52.83 1229.05,-40.2 1234.42,-30.75"/>
<polygon fill="midnightblue" stroke="midnightblue" points="1212.49,-62.31 1210.59,-72.73 1218.57,-65.76 1212.49,-62.31"/>
</g>
<!-- Node17&#45;&gt;Node16 -->
<g id="edge17" class="edge">
<title>Node17&#45;&gt;Node16</title>
<path fill="none" stroke="midnightblue" d="M411.99,-142.44C402.12,-129.73 390.1,-114.25 381.55,-103.23"/>
<polygon fill="midnightblue" stroke="midnightblue" points="409.51,-144.95 418.4,-150.7 415.04,-140.66 409.51,-144.95"/>
</g>
<!-- Node19 -->
<g id="node19" class="node">
<title>Node19</title>
<g id="a_node19"><a xlink:href="clos__conv_8cpp.html" target="_top" xlink:title=" ">
<polygon fill="none" stroke="black" points="635.5,-73 635.5,-103 745.5,-103 745.5,-73 635.5,-73"/>
<text text-anchor="start" x="643.5" y="-91" font-family="Helvetica,sans-Serif" font-size="10.00">dialects/clos/phase</text>
<text text-anchor="middle" x="690.5" y="-80" font-family="Helvetica,sans-Serif" font-size="10.00">/clos_conv.cpp</text>
</a>
</g>
</g>
<!-- Node18&#45;&gt;Node19 -->
<g id="edge19" class="edge">
<title>Node18&#45;&gt;Node19</title>
<path fill="none" stroke="midnightblue" d="M724.02,-142.07C716.04,-129.44 706.38,-114.15 699.49,-103.23"/>
<polygon fill="midnightblue" stroke="midnightblue" points="721.17,-144.12 729.47,-150.7 727.09,-140.38 721.17,-144.12"/>
</g>
<!-- Node21 -->
<g id="node21" class="node">
<title>Node21</title>
<g id="a_node21"><a xlink:href="lower__typed__clos_8cpp.html" target="_top" xlink:title=" ">
<polygon fill="none" stroke="black" points="879,-0.5 879,-30.5 1004,-30.5 1004,-0.5 879,-0.5"/>
<text text-anchor="start" x="887" y="-18.5" font-family="Helvetica,sans-Serif" font-size="10.00">dialects/clos/phase</text>
<text text-anchor="middle" x="941.5" y="-7.5" font-family="Helvetica,sans-Serif" font-size="10.00">/lower_typed_clos.cpp</text>
</a>
</g>
</g>
<!-- Node20&#45;&gt;Node21 -->
<g id="edge21" class="edge">
<title>Node20&#45;&gt;Node21</title>
<path fill="none" stroke="midnightblue" d="M941.5,-62.73C941.5,-52.07 941.5,-39.91 941.5,-30.75"/>
<polygon fill="midnightblue" stroke="midnightblue" points="938,-62.73 941.5,-72.73 945,-62.73 938,-62.73"/>
</g>
<!-- Node24 -->
<g id="node24" class="node">
<title>Node24</title>
<g id="a_node24"><a xlink:href="core_8h.html" target="_top" xlink:title=" ">
<polygon fill="none" stroke="black" points="1269.5,-229 1269.5,-248 1381.5,-248 1381.5,-229 1269.5,-229"/>
<text text-anchor="middle" x="1325.5" y="-236" font-family="Helvetica,sans-Serif" font-size="10.00">dialects/core/core.h</text>
</a>
</g>
</g>
<!-- Node23&#45;&gt;Node24 -->
<g id="edge24" class="edge">
<title>Node23&#45;&gt;Node24</title>
<path fill="none" stroke="midnightblue" d="M1331.77,-280.25C1330.04,-269.02 1328.1,-256.38 1326.84,-248.19"/>
<polygon fill="midnightblue" stroke="midnightblue" points="1328.35,-281.04 1333.33,-290.4 1335.27,-279.98 1328.35,-281.04"/>
</g>
<!-- Node24&#45;&gt;Node15 -->
<g id="edge25" class="edge">
<title>Node24&#45;&gt;Node15</title>
<path fill="none" stroke="midnightblue" d="M1318.99,-219.46C1307.7,-188.28 1283.69,-122.36 1262.5,-67 1257.78,-54.67 1252.24,-40.72 1248.19,-30.61"/>
<polygon fill="midnightblue" stroke="midnightblue" points="1315.73,-220.74 1322.42,-228.96 1322.32,-218.36 1315.73,-220.74"/>
</g>
<!-- Node24&#45;&gt;Node22 -->
<g id="edge26" class="edge">
<title>Node24&#45;&gt;Node22</title>
<path fill="none" stroke="midnightblue" d="M1259.31,-229.82C1207.81,-222.51 1135.14,-209.25 1074.5,-187 1038.27,-173.7 1034.12,-159.84 998.5,-145 945.92,-123.09 929.86,-126.01 875.5,-109 869.53,-107.13 863.24,-105.1 857.07,-103.08"/>
<polygon fill="midnightblue" stroke="midnightblue" points="1258.94,-233.3 1269.32,-231.2 1259.9,-226.37 1258.94,-233.3"/>
</g>
<!-- Node24&#45;&gt;Node25 -->
<g id="edge27" class="edge">
<title>Node24&#45;&gt;Node25</title>
<path fill="none" stroke="midnightblue" d="M1361.63,-225.87C1405.63,-211.71 1478.88,-188.12 1517.99,-175.53"/>
<polygon fill="midnightblue" stroke="midnightblue" points="1360.36,-222.6 1351.92,-229 1362.51,-229.26 1360.36,-222.6"/>
</g>
<!-- Node26 -->
<g id="node26" class="node">
<title>Node26</title>
<g id="a_node26"><a xlink:href="core_2normalizers_8cpp.html" target="_top" xlink:title=" ">
<polygon fill="none" stroke="black" points="1310.5,-78.5 1310.5,-97.5 1470.5,-97.5 1470.5,-78.5 1310.5,-78.5"/>
<text text-anchor="middle" x="1390.5" y="-85.5" font-family="Helvetica,sans-Serif" font-size="10.00">dialects/core/normalizers.cpp</text>
</a>
</g>
</g>
<!-- Node24&#45;&gt;Node26 -->
<g id="edge28" class="edge">
<title>Node24&#45;&gt;Node26</title>
<path fill="none" stroke="midnightblue" d="M1323.72,-218.59C1322.7,-199.18 1323.38,-168.55 1334.5,-145 1344.13,-124.61 1364.4,-107.36 1377.73,-97.6"/>
<polygon fill="midnightblue" stroke="midnightblue" points="1320.25,-219.12 1324.48,-228.83 1327.23,-218.6 1320.25,-219.12"/>
</g>
<!-- Node27 -->
<g id="node27" class="node">
<title>Node27</title>
<g id="a_node27"><a xlink:href="mem_8h.html" target="_top" xlink:title=" ">
<polygon fill="none" stroke="black" points="1344,-156.5 1344,-175.5 1465,-175.5 1465,-156.5 1344,-156.5"/>
<text text-anchor="middle" x="1404.5" y="-163.5" font-family="Helvetica,sans-Serif" font-size="10.00">dialects/mem/mem.h</text>
</a>
</g>
</g>
<!-- Node24&#45;&gt;Node27 -->
<g id="edge29" class="edge">
<title>Node24&#45;&gt;Node27</title>
<path fill="none" stroke="midnightblue" d="M1342.77,-222.08C1358.7,-207.87 1381.78,-187.27 1394.73,-175.72"/>
<polygon fill="midnightblue" stroke="midnightblue" points="1340.32,-219.59 1335.19,-228.86 1344.98,-224.81 1340.32,-219.59"/>
</g>
<!-- Node27&#45;&gt;Node6 -->
<g id="edge30" class="edge">
<title>Node27&#45;&gt;Node6</title>
<path fill="none" stroke="midnightblue" d="M1333.77,-157.05C1296.78,-153.07 1250.73,-148.39 1209.5,-145 950.77,-123.75 883.28,-147.21 626.5,-109 616.42,-107.5 605.76,-105.39 595.56,-103.09"/>
<polygon fill="midnightblue" stroke="midnightblue" points="1333.63,-160.55 1343.95,-158.15 1334.39,-153.59 1333.63,-160.55"/>
</g>
<!-- Node27&#45;&gt;Node12 -->
<g id="edge31" class="edge">
<title>Node27&#45;&gt;Node12</title>
<path fill="none" stroke="midnightblue" d="M1349.15,-154.56C1295.72,-144.16 1212.68,-127.17 1141.5,-109 1138.79,-108.31 1136.03,-107.58 1133.25,-106.83"/>
<polygon fill="midnightblue" stroke="midnightblue" points="1348.62,-158.02 1359.1,-156.48 1349.95,-151.15 1348.62,-158.02"/>
</g>
<!-- Node27&#45;&gt;Node14 -->
<g id="edge32" class="edge">
<title>Node27&#45;&gt;Node14</title>
<path fill="none" stroke="midnightblue" d="M1372.18,-152.84C1336.13,-139.28 1277.92,-117.38 1239.93,-103.08"/>
<polygon fill="midnightblue" stroke="midnightblue" points="1371.13,-156.18 1381.72,-156.43 1373.59,-149.63 1371.13,-156.18"/>
</g>
<!-- Node27&#45;&gt;Node19 -->
<g id="edge33" class="edge">
<title>Node27&#45;&gt;Node19</title>
<path fill="none" stroke="midnightblue" d="M1333.74,-157.34C1296.75,-153.44 1250.7,-148.74 1209.5,-145 1007.48,-126.65 953.67,-147.49 754.5,-109 746.73,-107.5 738.57,-105.38 730.78,-103.09"/>
<polygon fill="midnightblue" stroke="midnightblue" points="1333.61,-160.85 1343.93,-158.42 1334.35,-153.89 1333.61,-160.85"/>
</g>
<!-- Node27&#45;&gt;Node20 -->
<g id="edge34" class="edge">
<title>Node27&#45;&gt;Node20</title>
<path fill="none" stroke="midnightblue" d="M1333.99,-158.5C1253.96,-150.33 1119.82,-134.24 1006.5,-109 999.01,-107.33 991.13,-105.22 983.55,-103"/>
<polygon fill="midnightblue" stroke="midnightblue" points="1333.65,-161.98 1343.96,-159.5 1334.36,-155.02 1333.65,-161.98"/>
</g>
<!-- Node27&#45;&gt;Node22 -->
<g id="edge35" class="edge">
<title>Node27&#45;&gt;Node22</title>
<path fill="none" stroke="midnightblue" d="M1333.5,-157.68C1191.82,-143.06 886.58,-111.4 875.5,-109 868.31,-107.44 860.77,-105.33 853.57,-103.06"/>
<polygon fill="midnightblue" stroke="midnightblue" points="1333.51,-161.2 1343.82,-158.75 1334.23,-154.24 1333.51,-161.2"/>
</g>
<!-- Node27&#45;&gt;Node26 -->
<g id="edge36" class="edge">
<title>Node27&#45;&gt;Node26</title>
<path fill="none" stroke="midnightblue" d="M1401.04,-146.22C1398.18,-130.7 1394.25,-109.36 1392.09,-97.62"/>
<polygon fill="midnightblue" stroke="midnightblue" points="1397.64,-147.08 1402.89,-156.28 1404.52,-145.81 1397.64,-147.08"/>
</g>
<!-- Node27&#45;&gt;Node28 -->
<g id="edge37" class="edge">
<title>Node27&#45;&gt;Node28</title>
<path fill="none" stroke="midnightblue" d="M1438.47,-153.45C1449.52,-150.15 1461.91,-146.93 1473.5,-145 1798.29,-90.8 1888.15,-159.71 2213.5,-109 2229.88,-106.45 2247.83,-101.73 2262.07,-97.52"/>
<polygon fill="midnightblue" stroke="midnightblue" points="1437.28,-150.15 1428.77,-156.46 1439.36,-156.84 1437.28,-150.15"/>
</g>
<!-- Node29 -->
<g id="node29" class="node">
<title>Node29</title>
<g id="a_node29"><a xlink:href="mem_2normalizers_8cpp.html" target="_top" xlink:title=" ">
<polygon fill="none" stroke="black" points="1488.5,-78.5 1488.5,-97.5 1652.5,-97.5 1652.5,-78.5 1488.5,-78.5"/>
<text text-anchor="middle" x="1570.5" y="-85.5" font-family="Helvetica,sans-Serif" font-size="10.00">dialects/mem/normalizers.cpp</text>
</a>
</g>
</g>
<!-- Node27&#45;&gt;Node29 -->
<g id="edge38" class="edge">
<title>Node27&#45;&gt;Node29</title>
<path fill="none" stroke="midnightblue" d="M1432.58,-152.14C1466.55,-136.59 1522.8,-110.84 1551.85,-97.54"/>
<polygon fill="midnightblue" stroke="midnightblue" points="1430.86,-149.08 1423.22,-156.43 1433.77,-155.45 1430.86,-149.08"/>
</g>
<!-- Node30 -->
<g id="node30" class="node">
<title>Node30</title>
<g id="a_node30"><a xlink:href="copy__prop_8cpp.html" target="_top" xlink:title=" ">
<polygon fill="none" stroke="black" points="1670.5,-73 1670.5,-103 1790.5,-103 1790.5,-73 1670.5,-73"/>
<text text-anchor="start" x="1678.5" y="-91" font-family="Helvetica,sans-Serif" font-size="10.00">dialects/mem/passes</text>
<text text-anchor="middle" x="1730.5" y="-80" font-family="Helvetica,sans-Serif" font-size="10.00">/fp/copy_prop.cpp</text>
</a>
</g>
</g>
<!-- Node27&#45;&gt;Node30 -->
<g id="edge39" class="edge">
<title>Node27&#45;&gt;Node30</title>
<path fill="none" stroke="midnightblue" d="M1441.75,-153.52C1451.99,-150.55 1463.13,-147.49 1473.5,-145 1556.22,-125.14 1578.78,-128.86 1661.5,-109 1668.9,-107.22 1676.69,-105.16 1684.26,-103.04"/>
<polygon fill="midnightblue" stroke="midnightblue" points="1440.48,-150.24 1431.88,-156.43 1442.46,-156.96 1440.48,-150.24"/>
</g>
<!-- Node31 -->
<g id="node31" class="node">
<title>Node31</title>
<g id="a_node31"><a xlink:href="ssa__constr_8cpp.html" target="_top" xlink:title=" ">
<polygon fill="none" stroke="black" points="1808.5,-73 1808.5,-103 1928.5,-103 1928.5,-73 1808.5,-73"/>
<text text-anchor="start" x="1816.5" y="-91" font-family="Helvetica,sans-Serif" font-size="10.00">dialects/mem/passes</text>
<text text-anchor="middle" x="1868.5" y="-80" font-family="Helvetica,sans-Serif" font-size="10.00">/fp/ssa_constr.cpp</text>
</a>
</g>
</g>
<!-- Node27&#45;&gt;Node31 -->
<g id="edge40" class="edge">
<title>Node27&#45;&gt;Node31</title>
<path fill="none" stroke="midnightblue" d="M1439.96,-153.45C1450.65,-150.32 1462.47,-147.19 1473.5,-145 1616.48,-116.6 1656.52,-137.4 1799.5,-109 1807.57,-107.4 1816.07,-105.29 1824.24,-103.05"/>
<polygon fill="midnightblue" stroke="midnightblue" points="1438.68,-150.18 1430.13,-156.43 1440.71,-156.88 1438.68,-150.18"/>
</g>
<!-- Node32 -->
<g id="node32" class="node">
<title>Node32</title>
<g id="a_node32"><a xlink:href="alloc2malloc_8cpp.html" target="_top" xlink:title=" ">
<polygon fill="none" stroke="black" points="1946.5,-73 1946.5,-103 2066.5,-103 2066.5,-73 1946.5,-73"/>
<text text-anchor="start" x="1954.5" y="-91" font-family="Helvetica,sans-Serif" font-size="10.00">dialects/mem/passes</text>
<text text-anchor="middle" x="2006.5" y="-80" font-family="Helvetica,sans-Serif" font-size="10.00">/rw/alloc2malloc.cpp</text>
</a>
</g>
</g>
<!-- Node27&#45;&gt;Node32 -->
<g id="edge41" class="edge">
<title>Node27&#45;&gt;Node32</title>
<path fill="none" stroke="midnightblue" d="M1439.04,-153.49C1449.96,-150.26 1462.13,-147.07 1473.5,-145 1677.01,-108.01 1733.99,-145.99 1937.5,-109 1945.84,-107.48 1954.62,-105.36 1963.02,-103.06"/>
<polygon fill="midnightblue" stroke="midnightblue" points="1437.97,-150.15 1429.44,-156.43 1440.03,-156.85 1437.97,-150.15"/>
</g>
<!-- Node33 -->
<g id="node33" class="node">
<title>Node33</title>
<g id="a_node33"><a xlink:href="dialects_2mem_2passes_2rw_2remem__elim_8cpp.html" target="_top" xlink:title=" ">
<polygon fill="none" stroke="black" points="2084.5,-73 2084.5,-103 2204.5,-103 2204.5,-73 2084.5,-73"/>
<text text-anchor="start" x="2092.5" y="-91" font-family="Helvetica,sans-Serif" font-size="10.00">dialects/mem/passes</text>
<text text-anchor="middle" x="2144.5" y="-80" font-family="Helvetica,sans-Serif" font-size="10.00">/rw/remem_elim.cpp</text>
</a>
</g>
</g>
<!-- Node27&#45;&gt;Node33 -->
<g id="edge42" class="edge">
<title>Node27&#45;&gt;Node33</title>
<path fill="none" stroke="midnightblue" d="M1438.75,-153.44C1449.73,-150.18 1462.02,-146.98 1473.5,-145 1737.63,-99.41 1811.37,-154.59 2075.5,-109 2083.98,-107.54 2092.9,-105.41 2101.41,-103.08"/>
<polygon fill="midnightblue" stroke="midnightblue" points="1437.62,-150.13 1429.1,-156.42 1439.69,-156.82 1437.62,-150.13"/>
</g>
<!-- Node35 -->
<g id="node35" class="node">
<title>Node35</title>
<g id="a_node35"><a xlink:href="dialects_2debug_2debug_8h.html" target="_top" xlink:title=" ">
<polygon fill="none" stroke="black" points="1700.5,-229 1700.5,-248 1830.5,-248 1830.5,-229 1700.5,-229"/>
<text text-anchor="middle" x="1765.5" y="-236" font-family="Helvetica,sans-Serif" font-size="10.00">dialects/debug/debug.h</text>
</a>
</g>
</g>
<!-- Node34&#45;&gt;Node35 -->
<g id="edge44" class="edge">
<title>Node34&#45;&gt;Node35</title>
<path fill="none" stroke="midnightblue" d="M1763.62,-280.25C1764.14,-269.02 1764.72,-256.38 1765.1,-248.19"/>
<polygon fill="midnightblue" stroke="midnightblue" points="1760.12,-280.25 1763.15,-290.4 1767.11,-280.57 1760.12,-280.25"/>
</g>
<!-- Node35&#45;&gt;Node36 -->
<g id="edge45" class="edge">
<title>Node35&#45;&gt;Node36</title>
<path fill="none" stroke="midnightblue" d="M1757.41,-219.68C1751.03,-205.63 1742.41,-186.64 1737.46,-175.72"/>
<polygon fill="midnightblue" stroke="midnightblue" points="1754.26,-221.2 1761.58,-228.86 1760.63,-218.3 1754.26,-221.2"/>
</g>
<!-- Node37 -->
<g id="node37" class="node">
<title>Node37</title>
<g id="a_node37"><a xlink:href="debug_2normalizers_8cpp.html" target="_top" xlink:title=" ">
<polygon fill="none" stroke="black" points="1965,-156.5 1965,-175.5 2134,-175.5 2134,-156.5 1965,-156.5"/>
<text text-anchor="middle" x="2049.5" y="-163.5" font-family="Helvetica,sans-Serif" font-size="10.00">dialects/debug/normalizers.cpp</text>
</a>
</g>
</g>
<!-- Node35&#45;&gt;Node37 -->
<g id="edge46" class="edge">
<title>Node35&#45;&gt;Node37</title>
<path fill="none" stroke="midnightblue" d="M1809.51,-226.58C1866.2,-212.5 1963.56,-188.33 2015.12,-175.53"/>
<polygon fill="midnightblue" stroke="midnightblue" points="1808.62,-223.19 1799.76,-229 1810.31,-229.98 1808.62,-223.19"/>
</g>
<!-- Node38 -->
<g id="node38" class="node">
<title>Node38</title>
<g id="a_node38"><a xlink:href="remove__perm_8cpp.html" target="_top" xlink:title=" ">
<polygon fill="none" stroke="black" points="1822,-151 1822,-181 1947,-181 1947,-151 1822,-151"/>
<text text-anchor="start" x="1830" y="-169" font-family="Helvetica,sans-Serif" font-size="10.00">dialects/debug/passes</text>
<text text-anchor="middle" x="1884.5" y="-158" font-family="Helvetica,sans-Serif" font-size="10.00">/remove_perm.cpp</text>
</a>
</g>
</g>
<!-- Node35&#45;&gt;Node38 -->
<g id="edge47" class="edge">
<title>Node35&#45;&gt;Node38</title>
<path fill="none" stroke="midnightblue" d="M1788.9,-223.64C1809.67,-211.33 1839.87,-193.44 1860.74,-181.08"/>
<polygon fill="midnightblue" stroke="midnightblue" points="1786.91,-220.75 1780.09,-228.86 1790.48,-226.77 1786.91,-220.75"/>
</g>
<!-- Node40 -->
<g id="node40" class="node">
<title>Node40</title>
<g id="a_node40"><a xlink:href="direct_8h.html" target="_top" xlink:title=" ">
<polygon fill="none" stroke="black" points="1849,-229 1849,-248 1974,-248 1974,-229 1849,-229"/>
<text text-anchor="middle" x="1911.5" y="-236" font-family="Helvetica,sans-Serif" font-size="10.00">dialects/direct/direct.h</text>
</a>
</g>
</g>
<!-- Node39&#45;&gt;Node40 -->
<g id="edge49" class="edge">
<title>Node39&#45;&gt;Node40</title>
<path fill="none" stroke="midnightblue" d="M1907.74,-280.25C1908.78,-269.02 1909.94,-256.38 1910.7,-248.19"/>
<polygon fill="midnightblue" stroke="midnightblue" points="1904.24,-280.12 1906.8,-290.4 1911.21,-280.76 1904.24,-280.12"/>
</g>
<!-- Node40&#45;&gt;Node41 -->
<g id="edge50" class="edge">
<title>Node40&#45;&gt;Node41</title>
<path fill="none" stroke="midnightblue" d="M1964.02,-227.14C1972.2,-225.66 1980.57,-224.23 1988.5,-223 2119.03,-202.77 2153.7,-211.45 2283.5,-187 2299.71,-183.95 2317.55,-179.46 2332.07,-175.51"/>
<polygon fill="midnightblue" stroke="midnightblue" points="1963.38,-223.7 1954.18,-228.95 1964.65,-230.58 1963.38,-223.7"/>
</g>
<!-- Node42 -->
<g id="node42" class="node">
<title>Node42</title>
<g id="a_node42"><a xlink:href="ds2cps_8cpp.html" target="_top" xlink:title=" ">
<polygon fill="none" stroke="black" points="2152.5,-151 2152.5,-181 2274.5,-181 2274.5,-151 2152.5,-151"/>
<text text-anchor="start" x="2160.5" y="-169" font-family="Helvetica,sans-Serif" font-size="10.00">dialects/direct/passes</text>
<text text-anchor="middle" x="2213.5" y="-158" font-family="Helvetica,sans-Serif" font-size="10.00">/ds2cps.cpp</text>
</a>
</g>
</g>
<!-- Node40&#45;&gt;Node42 -->
<g id="edge51" class="edge">
<title>Node40&#45;&gt;Node42</title>
<path fill="none" stroke="midnightblue" d="M1964.19,-226.91C2011.15,-217.25 2081.65,-202.21 2142.5,-187 2149.83,-185.17 2157.55,-183.12 2165.1,-181.05"/>
<polygon fill="midnightblue" stroke="midnightblue" points="1963.35,-223.51 1954.25,-228.95 1964.75,-230.37 1963.35,-223.51"/>
</g>
<!-- Node43&#45;&gt;Node27 -->
<g id="edge53" class="edge">
<title>Node43&#45;&gt;Node27</title>
<path fill="none" stroke="midnightblue" d="M1456.77,-216.14C1442.43,-202.65 1424.65,-185.94 1413.96,-175.89"/>
<polygon fill="midnightblue" stroke="midnightblue" points="1454.64,-218.93 1464.32,-223.23 1459.43,-213.83 1454.64,-218.93"/>
</g>
<!-- Node46&#45;&gt;Node45 -->
<g id="edge63" class="edge">
<title>Node46&#45;&gt;Node45</title>
<path fill="none" stroke="midnightblue" d="M2211.98,-287.03C2219.53,-274.45 2229.4,-258.01 2235.32,-248.13"/>
<polygon fill="midnightblue" stroke="midnightblue" points="2208.9,-285.36 2206.76,-295.73 2214.91,-288.96 2208.9,-285.36"/>
</g>
</g>
</svg>
