<?xml version="1.0" encoding="UTF-8" standalone="no"?>
<!DOCTYPE svg PUBLIC "-//W3C//DTD SVG 1.1//EN"
 "http://www.w3.org/Graphics/SVG/1.1/DTD/svg11.dtd">
<!-- Generated by graphviz version 2.43.0 (0)
 -->
<!-- Title: thorin/pass/pipelinebuilder.h Pages: 1 -->
<svg width="1536pt" height="610pt"
 viewBox="0.00 0.00 1536.00 610.00" xmlns="http://www.w3.org/2000/svg" xmlns:xlink="http://www.w3.org/1999/xlink">
<g id="graph0" class="graph" transform="scale(1 1) rotate(0) translate(4 606)">
<title>thorin/pass/pipelinebuilder.h</title>
<!-- Node1 -->
<g id="node1" class="node">
<title>Node1</title>
<g id="a_node1"><a xlink:title=" ">
<polygon fill="#999999" stroke="#666666" points="859.5,-602 704.5,-602 704.5,-583 859.5,-583 859.5,-602"/>
<text text-anchor="middle" x="782" y="-590" font-family="Helvetica,sans-Serif" font-size="10.00">thorin/pass/pipelinebuilder.h</text>
</a>
</g>
</g>
<!-- Node2 -->
<g id="node2" class="node">
<title>Node2</title>
<g id="a_node2"><a xlink:href="plugin_8h.html" target="_top" xlink:title=" ">
<polygon fill="white" stroke="#666666" points="1163.5,-316 1076.5,-316 1076.5,-297 1163.5,-297 1163.5,-316"/>
<text text-anchor="middle" x="1120" y="-304" font-family="Helvetica,sans-Serif" font-size="10.00">thorin/plugin.h</text>
</a>
</g>
</g>
<!-- Node1&#45;&gt;Node2 -->
<g id="edge1" class="edge">
<title>Node1&#45;&gt;Node2</title>
<path fill="none" stroke="#63b8ff" d="M859.66,-591.96C1009.52,-590.74 1324,-577.05 1324,-483.5 1324,-483.5 1324,-483.5 1324,-426.5 1324,-356.83 1234.13,-327.22 1173.68,-315.18"/>
<polygon fill="#63b8ff" stroke="#63b8ff" points="1173.99,-311.68 1163.51,-313.27 1172.69,-318.56 1173.99,-311.68"/>
</g>
<!-- Node43 -->
<g id="node31" class="node">
<title>Node43</title>
<g id="a_node31"><a xlink:href="world_8h.html" target="_top" xlink:title=" ">
<polygon fill="white" stroke="#666666" points="783,-437 699,-437 699,-418 783,-418 783,-437"/>
<text text-anchor="middle" x="741" y="-425" font-family="Helvetica,sans-Serif" font-size="10.00">thorin/world.h</text>
</a>
</g>
</g>
<!-- Node1&#45;&gt;Node43 -->
<g id="edge45" class="edge">
<title>Node1&#45;&gt;Node43</title>
<path fill="none" stroke="#63b8ff" d="M781.51,-582.97C780.19,-563.19 775.74,-512.9 763,-473 760.02,-463.66 755.34,-453.84 751.07,-445.8"/>
<polygon fill="#63b8ff" stroke="#63b8ff" points="754.11,-444.07 746.19,-437.04 748,-447.48 754.11,-444.07"/>
</g>
<!-- Node57 -->
<g id="node45" class="node">
<title>Node57</title>
<g id="a_node45"><a xlink:href="optimize_8h.html" target="_top" xlink:title=" ">
<polygon fill="white" stroke="#666666" points="365.5,-547 240.5,-547 240.5,-528 365.5,-528 365.5,-547"/>
<text text-anchor="middle" x="303" y="-535" font-family="Helvetica,sans-Serif" font-size="10.00">thorin/pass/optimize.h</text>
</a>
</g>
</g>
<!-- Node1&#45;&gt;Node57 -->
<g id="edge76" class="edge">
<title>Node1&#45;&gt;Node57</title>
<path fill="none" stroke="#63b8ff" d="M705.04,-582.98C614.26,-572.94 464.49,-556.37 375.63,-546.54"/>
<polygon fill="#63b8ff" stroke="#63b8ff" points="375.96,-543.05 365.64,-545.43 375.19,-550.01 375.96,-543.05"/>
</g>
<!-- Node58 -->
<g id="node46" class="node">
<title>Node58</title>
<g id="a_node46"><a xlink:href="pass_8h.html" target="_top" xlink:title=" ">
<polygon fill="white" stroke="#666666" points="753.5,-492 648.5,-492 648.5,-473 753.5,-473 753.5,-492"/>
<text text-anchor="middle" x="701" y="-480" font-family="Helvetica,sans-Serif" font-size="10.00">thorin/pass/pass.h</text>
</a>
</g>
</g>
<!-- Node1&#45;&gt;Node58 -->
<g id="edge78" class="edge">
<title>Node1&#45;&gt;Node58</title>
<path fill="none" stroke="#63b8ff" d="M775.37,-582.66C761.9,-564.69 731.11,-523.64 713.66,-500.38"/>
<polygon fill="#63b8ff" stroke="#63b8ff" points="716.29,-498.06 707.49,-492.16 710.69,-502.26 716.29,-498.06"/>
</g>
<!-- Node60 -->
<g id="node48" class="node">
<title>Node60</title>
<g id="a_node48"><a xlink:href="phase_8h.html" target="_top" xlink:title=" ">
<polygon fill="white" stroke="#666666" points="1052.5,-547 933.5,-547 933.5,-528 1052.5,-528 1052.5,-547"/>
<text text-anchor="middle" x="993" y="-535" font-family="Helvetica,sans-Serif" font-size="10.00">thorin/phase/phase.h</text>
</a>
</g>
</g>
<!-- Node1&#45;&gt;Node60 -->
<g id="edge82" class="edge">
<title>Node1&#45;&gt;Node60</title>
<path fill="none" stroke="#63b8ff" d="M815.9,-582.98C852.02,-573.91 909.32,-559.52 948.92,-549.57"/>
<polygon fill="#63b8ff" stroke="#63b8ff" points="949.99,-552.91 958.83,-547.08 948.28,-546.12 949.99,-552.91"/>
</g>
<!-- Node3 -->
<g id="node3" class="node">
<title>Node3</title>
<g id="a_node3"><a xlink:title=" ">
<polygon fill="#e0e0e0" stroke="#999999" points="1090,-255.5 1032,-255.5 1032,-236.5 1090,-236.5 1090,-255.5"/>
<text text-anchor="middle" x="1061" y="-243.5" font-family="Helvetica,sans-Serif" font-size="10.00">memory</text>
</a>
</g>
</g>
<!-- Node2&#45;&gt;Node3 -->
<g id="edge2" class="edge">
<title>Node2&#45;&gt;Node3</title>
<path fill="none" stroke="#63b8ff" d="M1111.29,-296.87C1102.32,-287.97 1088.12,-273.89 1077.09,-262.95"/>
<polygon fill="#63b8ff" stroke="#63b8ff" points="1079.31,-260.22 1069.74,-255.67 1074.38,-265.19 1079.31,-260.22"/>
</g>
<!-- Node4 -->
<g id="node4" class="node">
<title>Node4</title>
<g id="a_node4"><a xlink:title=" ">
<polygon fill="#e0e0e0" stroke="#999999" points="1474,-74 1430,-74 1430,-55 1474,-55 1474,-74"/>
<text text-anchor="middle" x="1452" y="-62" font-family="Helvetica,sans-Serif" font-size="10.00">string</text>
</a>
</g>
</g>
<!-- Node2&#45;&gt;Node4 -->
<g id="edge3" class="edge">
<title>Node2&#45;&gt;Node4</title>
<path fill="none" stroke="#63b8ff" d="M1155.47,-296.96C1220.79,-279.33 1360.08,-232.6 1433,-140 1445.49,-124.14 1449.86,-101 1451.33,-84.74"/>
<polygon fill="#63b8ff" stroke="#63b8ff" points="1454.86,-84.5 1451.98,-74.3 1447.87,-84.07 1454.86,-84.5"/>
</g>
<!-- Node5 -->
<g id="node5" class="node">
<title>Node5</title>
<g id="a_node5"><a xlink:title=" ">
<polygon fill="#e0e0e0" stroke="#999999" points="827.5,-134.5 780.5,-134.5 780.5,-115.5 827.5,-115.5 827.5,-134.5"/>
<text text-anchor="middle" x="804" y="-122.5" font-family="Helvetica,sans-Serif" font-size="10.00">vector</text>
</a>
</g>
</g>
<!-- Node2&#45;&gt;Node5 -->
<g id="edge4" class="edge">
<title>Node2&#45;&gt;Node5</title>
<path fill="none" stroke="#63b8ff" d="M1091.47,-296.89C1070.87,-289.66 1043.24,-277.81 1023,-261 987.43,-231.45 1000.71,-202.76 963,-176 915.5,-142.29 891.91,-159.41 837,-140 835.57,-139.49 834.11,-138.96 832.65,-138.4"/>
<polygon fill="#63b8ff" stroke="#63b8ff" points="833.62,-135.02 823.04,-134.55 831.02,-141.52 833.62,-135.02"/>
</g>
<!-- Node6 -->
<g id="node6" class="node">
<title>Node6</title>
<g id="a_node6"><a xlink:title=" ">
<polygon fill="#e0e0e0" stroke="#999999" points="751,-261 637,-261 637,-231 751,-231 751,-261"/>
<text text-anchor="start" x="645" y="-249" font-family="Helvetica,sans-Serif" font-size="10.00">absl/container/btree</text>
<text text-anchor="middle" x="694" y="-238" font-family="Helvetica,sans-Serif" font-size="10.00">_map.h</text>
</a>
</g>
</g>
<!-- Node2&#45;&gt;Node6 -->
<g id="edge5" class="edge">
<title>Node2&#45;&gt;Node6</title>
<path fill="none" stroke="#63b8ff" d="M1076.33,-299.9C1012.67,-291.68 890.65,-275.73 787,-261 778.63,-259.81 769.85,-258.53 761.16,-257.25"/>
<polygon fill="#63b8ff" stroke="#63b8ff" points="761.44,-253.75 751.03,-255.74 760.41,-260.67 761.44,-253.75"/>
</g>
<!-- Node7 -->
<g id="node7" class="node">
<title>Node7</title>
<g id="a_node7"><a xlink:title=" ">
<polygon fill="#e0e0e0" stroke="#999999" points="950,-140 846,-140 846,-110 950,-110 950,-140"/>
<text text-anchor="start" x="854" y="-128" font-family="Helvetica,sans-Serif" font-size="10.00">absl/container/flat</text>
<text text-anchor="middle" x="898" y="-117" font-family="Helvetica,sans-Serif" font-size="10.00">_hash_map.h</text>
</a>
</g>
</g>
<!-- Node2&#45;&gt;Node7 -->
<g id="edge6" class="edge">
<title>Node2&#45;&gt;Node7</title>
<path fill="none" stroke="#63b8ff" d="M1119.47,-296.86C1118.17,-282.07 1113.77,-251.49 1099,-231 1065.58,-184.63 1005.43,-157.09 959.61,-141.93"/>
<polygon fill="#63b8ff" stroke="#63b8ff" points="960.65,-138.59 950.06,-138.88 958.52,-145.26 960.65,-138.59"/>
</g>
<!-- Node8 -->
<g id="node8" class="node">
<title>Node8</title>
<g id="a_node8"><a xlink:href="config_8h.html" target="_top" xlink:title=" ">
<polygon fill="white" stroke="#666666" points="518,-195 432,-195 432,-176 518,-176 518,-195"/>
<text text-anchor="middle" x="475" y="-183" font-family="Helvetica,sans-Serif" font-size="10.00">thorin/config.h</text>
</a>
</g>
</g>
<!-- Node2&#45;&gt;Node8 -->
<g id="edge7" class="edge">
<title>Node2&#45;&gt;Node8</title>
<path fill="none" stroke="#63b8ff" d="M1076.35,-300.12C1007.34,-291.39 876.24,-273.83 831,-261 798.04,-251.66 792.95,-240.38 760,-231 757.22,-230.21 609.87,-207.36 528.17,-194.72"/>
<polygon fill="#63b8ff" stroke="#63b8ff" points="528.48,-191.23 518.06,-193.16 527.41,-198.14 528.48,-191.23"/>
</g>
<!-- Node9 -->
<g id="node9" class="node">
<title>Node9</title>
<g id="a_node9"><a xlink:href="def_8h.html" target="_top" xlink:title=" ">
<polygon fill="white" stroke="#666666" points="912,-255.5 840,-255.5 840,-236.5 912,-236.5 912,-255.5"/>
<text text-anchor="middle" x="876" y="-243.5" font-family="Helvetica,sans-Serif" font-size="10.00">thorin/def.h</text>
</a>
</g>
</g>
<!-- Node2&#45;&gt;Node9 -->
<g id="edge8" class="edge">
<title>Node2&#45;&gt;Node9</title>
<path fill="none" stroke="#63b8ff" d="M1084.52,-296.99C1041.42,-286.66 968.64,-269.21 921.47,-257.9"/>
<polygon fill="#63b8ff" stroke="#63b8ff" points="922.06,-254.44 911.52,-255.52 920.43,-261.25 922.06,-254.44"/>
</g>
<!-- Node9&#45;&gt;Node5 -->
<g id="edge10" class="edge">
<title>Node9&#45;&gt;Node5</title>
<path fill="none" stroke="#63b8ff" d="M897.21,-236.38C924.08,-224.19 964.86,-200.63 947,-176 916.81,-134.35 885.17,-158.06 837,-140 835.62,-139.48 834.2,-138.94 832.78,-138.38"/>
<polygon fill="#63b8ff" stroke="#63b8ff" points="834.01,-135.1 823.43,-134.57 831.37,-141.58 834.01,-135.1"/>
</g>
<!-- Node9&#45;&gt;Node8 -->
<g id="edge13" class="edge">
<title>Node9&#45;&gt;Node8</title>
<path fill="none" stroke="#63b8ff" d="M841.6,-236.48C832.95,-234.51 823.67,-232.54 815,-231 690.17,-208.79 657.6,-212.35 532,-195 530.75,-194.83 529.48,-194.65 528.2,-194.47"/>
<polygon fill="#63b8ff" stroke="#63b8ff" points="528.64,-191 518.25,-193.05 527.65,-197.93 528.64,-191"/>
</g>
<!-- Node10 -->
<g id="node10" class="node">
<title>Node10</title>
<g id="a_node10"><a xlink:title=" ">
<polygon fill="#e0e0e0" stroke="#999999" points="686,-134.5 630,-134.5 630,-115.5 686,-115.5 686,-134.5"/>
<text text-anchor="middle" x="658" y="-122.5" font-family="Helvetica,sans-Serif" font-size="10.00">optional</text>
</a>
</g>
</g>
<!-- Node9&#45;&gt;Node10 -->
<g id="edge9" class="edge">
<title>Node9&#45;&gt;Node10</title>
<path fill="none" stroke="#63b8ff" d="M841.76,-236.5C801.78,-226.17 738.51,-208.46 718,-195 697.34,-181.44 679.62,-158.85 668.9,-143.23"/>
<polygon fill="#63b8ff" stroke="#63b8ff" points="671.6,-140.97 663.17,-134.55 665.76,-144.83 671.6,-140.97"/>
</g>
<!-- Node11 -->
<g id="node11" class="node">
<title>Node11</title>
<g id="a_node11"><a xlink:title=" ">
<polygon fill="#e0e0e0" stroke="#999999" points="724,-74 656,-74 656,-55 724,-55 724,-74"/>
<text text-anchor="middle" x="690" y="-62" font-family="Helvetica,sans-Serif" font-size="10.00">fe/assert.h</text>
</a>
</g>
</g>
<!-- Node9&#45;&gt;Node11 -->
<g id="edge11" class="edge">
<title>Node9&#45;&gt;Node11</title>
<path fill="none" stroke="#63b8ff" d="M839.79,-238.06C812.49,-231.19 775.67,-218.24 751,-195 718.09,-164 701.15,-111.65 694.1,-83.96"/>
<polygon fill="#63b8ff" stroke="#63b8ff" points="697.46,-82.96 691.73,-74.04 690.65,-84.58 697.46,-82.96"/>
</g>
<!-- Node12 -->
<g id="node12" class="node">
<title>Node12</title>
<g id="a_node12"><a xlink:title=" ">
<polygon fill="#e0e0e0" stroke="#999999" points="937.5,-195 878.5,-195 878.5,-176 937.5,-176 937.5,-195"/>
<text text-anchor="middle" x="908" y="-183" font-family="Helvetica,sans-Serif" font-size="10.00">fe/cast.h</text>
</a>
</g>
</g>
<!-- Node9&#45;&gt;Node12 -->
<g id="edge12" class="edge">
<title>Node9&#45;&gt;Node12</title>
<path fill="none" stroke="#63b8ff" d="M880.72,-236.37C885.35,-227.9 892.55,-214.74 898.39,-204.07"/>
<polygon fill="#63b8ff" stroke="#63b8ff" points="901.53,-205.62 903.26,-195.17 895.39,-202.26 901.53,-205.62"/>
</g>
<!-- Node13 -->
<g id="node13" class="node">
<title>Node13</title>
<g id="a_node13"><a xlink:href="array_8h.html" target="_top" xlink:title=" ">
<polygon fill="#fff0f0" stroke="red" points="860,-195 760,-195 760,-176 860,-176 860,-195"/>
<text text-anchor="middle" x="810" y="-183" font-family="Helvetica,sans-Serif" font-size="10.00">thorin/util/array.h</text>
</a>
</g>
</g>
<!-- Node9&#45;&gt;Node13 -->
<g id="edge14" class="edge">
<title>Node9&#45;&gt;Node13</title>
<path fill="none" stroke="#63b8ff" d="M866.26,-236.37C856.03,-227.3 839.71,-212.84 827.28,-201.82"/>
<polygon fill="#63b8ff" stroke="#63b8ff" points="829.58,-199.18 819.78,-195.17 824.94,-204.42 829.58,-199.18"/>
</g>
<!-- Node23 -->
<g id="node15" class="node">
<title>Node23</title>
<g id="a_node15"><a xlink:href="hash_8h.html" target="_top" xlink:title=" ">
<polygon fill="white" stroke="#666666" points="531.5,-134.5 432.5,-134.5 432.5,-115.5 531.5,-115.5 531.5,-134.5"/>
<text text-anchor="middle" x="482" y="-122.5" font-family="Helvetica,sans-Serif" font-size="10.00">thorin/util/hash.h</text>
</a>
</g>
</g>
<!-- Node9&#45;&gt;Node23 -->
<g id="edge17" class="edge">
<title>Node9&#45;&gt;Node23</title>
<path fill="none" stroke="#63b8ff" d="M840.94,-236.43C832.48,-234.51 823.44,-232.57 815,-231 704.64,-210.43 667.58,-240.6 565,-195 537.3,-182.68 511.46,-158.37 496.19,-142.15"/>
<polygon fill="#63b8ff" stroke="#63b8ff" points="498.54,-139.54 489.22,-134.51 493.37,-144.26 498.54,-139.54"/>
</g>
<!-- Node30 -->
<g id="node22" class="node">
<title>Node30</title>
<g id="a_node22"><a xlink:href="dbg_8h.html" target="_top" xlink:title=" ">
<polygon fill="white" stroke="#666666" points="1241,-195 1147,-195 1147,-176 1241,-176 1241,-195"/>
<text text-anchor="middle" x="1194" y="-183" font-family="Helvetica,sans-Serif" font-size="10.00">thorin/util/dbg.h</text>
</a>
</g>
</g>
<!-- Node9&#45;&gt;Node30 -->
<g id="edge25" class="edge">
<title>Node9&#45;&gt;Node30</title>
<path fill="none" stroke="#63b8ff" d="M912.17,-238.35C967.18,-228.23 1072.34,-208.88 1137.49,-196.9"/>
<polygon fill="#63b8ff" stroke="#63b8ff" points="1138.39,-200.29 1147.59,-195.04 1137.12,-193.4 1138.39,-200.29"/>
</g>
<!-- Node35 -->
<g id="node27" class="node">
<title>Node35</title>
<g id="a_node27"><a xlink:href="print_8h.html" target="_top" xlink:title=" ">
<polygon fill="#fff0f0" stroke="red" points="1424,-134.5 1326,-134.5 1326,-115.5 1424,-115.5 1424,-134.5"/>
<text text-anchor="middle" x="1375" y="-122.5" font-family="Helvetica,sans-Serif" font-size="10.00">thorin/util/print.h</text>
</a>
</g>
</g>
<!-- Node9&#45;&gt;Node35 -->
<g id="edge36" class="edge">
<title>Node9&#45;&gt;Node35</title>
<path fill="none" stroke="#63b8ff" d="M912.02,-241.9C993.06,-234.64 1187.56,-215.6 1250,-195 1270.8,-188.14 1322.45,-157.87 1352.44,-139.78"/>
<polygon fill="#63b8ff" stroke="#63b8ff" points="1354.26,-142.77 1361,-134.6 1350.63,-136.78 1354.26,-142.77"/>
</g>
<!-- Node38 -->
<g id="node29" class="node">
<title>Node38</title>
<g id="a_node29"><a xlink:href="util_8h.html" target="_top" xlink:title=" ">
<polygon fill="#fff0f0" stroke="red" points="666,-195 574,-195 574,-176 666,-176 666,-195"/>
<text text-anchor="middle" x="620" y="-183" font-family="Helvetica,sans-Serif" font-size="10.00">thorin/util/util.h</text>
</a>
</g>
</g>
<!-- Node9&#45;&gt;Node38 -->
<g id="edge37" class="edge">
<title>Node9&#45;&gt;Node38</title>
<path fill="none" stroke="#63b8ff" d="M839.88,-236.7C831.7,-234.82 823.05,-232.84 815,-231 764.56,-219.46 706.76,-206.27 667.27,-197.27"/>
<polygon fill="#63b8ff" stroke="#63b8ff" points="667.91,-193.83 657.39,-195.02 666.36,-200.65 667.91,-193.83"/>
</g>
<!-- Node13&#45;&gt;Node5 -->
<g id="edge16" class="edge">
<title>Node13&#45;&gt;Node5</title>
<path fill="none" stroke="#63b8ff" d="M809.11,-175.87C808.28,-167.75 807.01,-155.31 805.94,-144.89"/>
<polygon fill="#63b8ff" stroke="#63b8ff" points="809.39,-144.26 804.89,-134.67 802.43,-144.97 809.39,-144.26"/>
</g>
<!-- Node22 -->
<g id="node14" class="node">
<title>Node22</title>
<g id="a_node14"><a xlink:title=" ">
<polygon fill="#e0e0e0" stroke="#999999" points="474.5,-19 405.5,-19 405.5,0 474.5,0 474.5,-19"/>
<text text-anchor="middle" x="440" y="-7" font-family="Helvetica,sans-Serif" font-size="10.00">type_traits</text>
</a>
</g>
</g>
<!-- Node13&#45;&gt;Node22 -->
<g id="edge15" class="edge">
<title>Node13&#45;&gt;Node22</title>
<path fill="none" stroke="#63b8ff" d="M801.36,-175.88C793.09,-167.31 780.64,-153.53 772,-140 749.62,-104.97 766.2,-80.01 733,-55 694.71,-26.15 556.93,-15.72 484.78,-12.18"/>
<polygon fill="#63b8ff" stroke="#63b8ff" points="484.78,-8.68 474.63,-11.71 484.45,-15.67 484.78,-8.68"/>
</g>
<!-- Node24 -->
<g id="node16" class="node">
<title>Node24</title>
<g id="a_node16"><a xlink:href="types_8h.html" target="_top" xlink:title=" ">
<polygon fill="white" stroke="#666666" points="156.5,-74 53.5,-74 53.5,-55 156.5,-55 156.5,-74"/>
<text text-anchor="middle" x="105" y="-62" font-family="Helvetica,sans-Serif" font-size="10.00">thorin/util/types.h</text>
</a>
</g>
</g>
<!-- Node23&#45;&gt;Node24 -->
<g id="edge18" class="edge">
<title>Node23&#45;&gt;Node24</title>
<path fill="none" stroke="#63b8ff" d="M432.33,-116.29C363.96,-105.68 240.93,-86.59 166.73,-75.08"/>
<polygon fill="#63b8ff" stroke="#63b8ff" points="167.02,-71.58 156.6,-73.51 165.94,-78.5 167.02,-71.58"/>
</g>
<!-- Node24&#45;&gt;Node22 -->
<g id="edge22" class="edge">
<title>Node24&#45;&gt;Node22</title>
<path fill="none" stroke="#63b8ff" d="M156.61,-55.33C221.84,-45.01 333.08,-27.42 395.01,-17.62"/>
<polygon fill="#63b8ff" stroke="#63b8ff" points="395.91,-21.02 405.24,-16 394.82,-14.1 395.91,-21.02"/>
</g>
<!-- Node25 -->
<g id="node17" class="node">
<title>Node25</title>
<g id="a_node17"><a xlink:title=" ">
<polygon fill="#e0e0e0" stroke="#999999" points="50,-19 0,-19 0,0 50,0 50,-19"/>
<text text-anchor="middle" x="25" y="-7" font-family="Helvetica,sans-Serif" font-size="10.00">cstdint</text>
</a>
</g>
</g>
<!-- Node24&#45;&gt;Node25 -->
<g id="edge19" class="edge">
<title>Node24&#45;&gt;Node25</title>
<path fill="none" stroke="#63b8ff" d="M92.15,-54.98C79.86,-46.84 61.09,-34.41 46.52,-24.76"/>
<polygon fill="#63b8ff" stroke="#63b8ff" points="48.36,-21.78 38.09,-19.17 44.49,-27.61 48.36,-21.78"/>
</g>
<!-- Node26 -->
<g id="node18" class="node">
<title>Node26</title>
<g id="a_node18"><a xlink:title=" ">
<polygon fill="#e0e0e0" stroke="#999999" points="112,-19 68,-19 68,0 112,0 112,-19"/>
<text text-anchor="middle" x="90" y="-7" font-family="Helvetica,sans-Serif" font-size="10.00">limits</text>
</a>
</g>
</g>
<!-- Node24&#45;&gt;Node26 -->
<g id="edge20" class="edge">
<title>Node24&#45;&gt;Node26</title>
<path fill="none" stroke="#63b8ff" d="M102.52,-54.75C100.54,-47.72 97.68,-37.62 95.19,-28.84"/>
<polygon fill="#63b8ff" stroke="#63b8ff" points="98.52,-27.76 92.43,-19.09 91.79,-29.66 98.52,-27.76"/>
</g>
<!-- Node27 -->
<g id="node19" class="node">
<title>Node27</title>
<g id="a_node19"><a xlink:title=" ">
<polygon fill="#e0e0e0" stroke="#999999" points="1403.5,-19 1346.5,-19 1346.5,0 1403.5,0 1403.5,-19"/>
<text text-anchor="middle" x="1375" y="-7" font-family="Helvetica,sans-Serif" font-size="10.00">ostream</text>
</a>
</g>
</g>
<!-- Node24&#45;&gt;Node27 -->
<g id="edge21" class="edge">
<title>Node24&#45;&gt;Node27</title>
<path fill="none" stroke="#63b8ff" d="M156.76,-61.34C366.77,-52.58 1152.86,-19.77 1336.48,-12.11"/>
<polygon fill="#63b8ff" stroke="#63b8ff" points="1336.63,-15.6 1346.48,-11.69 1336.34,-8.61 1336.63,-15.6"/>
</g>
<!-- Node28 -->
<g id="node20" class="node">
<title>Node28</title>
<g id="a_node20"><a xlink:title=" ">
<polygon fill="#e0e0e0" stroke="#999999" points="177.5,-19 130.5,-19 130.5,0 177.5,0 177.5,-19"/>
<text text-anchor="middle" x="154" y="-7" font-family="Helvetica,sans-Serif" font-size="10.00">cmath</text>
</a>
</g>
</g>
<!-- Node24&#45;&gt;Node28 -->
<g id="edge23" class="edge">
<title>Node24&#45;&gt;Node28</title>
<path fill="none" stroke="#63b8ff" d="M113.09,-54.75C120.16,-47.11 130.59,-35.82 139.15,-26.56"/>
<polygon fill="#63b8ff" stroke="#63b8ff" points="141.84,-28.81 146.06,-19.09 136.7,-24.06 141.84,-28.81"/>
</g>
<!-- Node29 -->
<g id="node21" class="node">
<title>Node29</title>
<g id="a_node21"><a xlink:title=" ">
<polygon fill="#e0e0e0" stroke="#999999" points="252,-19 196,-19 196,0 252,0 252,-19"/>
<text text-anchor="middle" x="224" y="-7" font-family="Helvetica,sans-Serif" font-size="10.00">half.hpp</text>
</a>
</g>
</g>
<!-- Node24&#45;&gt;Node29 -->
<g id="edge24" class="edge">
<title>Node24&#45;&gt;Node29</title>
<path fill="none" stroke="#63b8ff" d="M124.12,-54.98C143.35,-46.42 173.23,-33.11 195.31,-23.28"/>
<polygon fill="#63b8ff" stroke="#63b8ff" points="196.82,-26.44 204.53,-19.17 193.97,-20.04 196.82,-26.44"/>
</g>
<!-- Node30&#45;&gt;Node7 -->
<g id="edge29" class="edge">
<title>Node30&#45;&gt;Node7</title>
<path fill="none" stroke="#63b8ff" d="M1146.63,-176.08C1101.23,-167.89 1030.53,-154.81 960.14,-140.2"/>
<polygon fill="#63b8ff" stroke="#63b8ff" points="960.72,-136.74 950.21,-138.12 959.29,-143.59 960.72,-136.74"/>
</g>
<!-- Node31 -->
<g id="node23" class="node">
<title>Node31</title>
<g id="a_node23"><a xlink:title=" ">
<polygon fill="#e0e0e0" stroke="#999999" points="1236,-134.5 1168,-134.5 1168,-115.5 1236,-115.5 1236,-134.5"/>
<text text-anchor="middle" x="1202" y="-122.5" font-family="Helvetica,sans-Serif" font-size="10.00">filesystem</text>
</a>
</g>
</g>
<!-- Node30&#45;&gt;Node31 -->
<g id="edge26" class="edge">
<title>Node30&#45;&gt;Node31</title>
<path fill="none" stroke="#63b8ff" d="M1195.18,-175.87C1196.29,-167.75 1197.99,-155.31 1199.42,-144.89"/>
<polygon fill="#63b8ff" stroke="#63b8ff" points="1202.93,-145.05 1200.81,-134.67 1195.99,-144.1 1202.93,-145.05"/>
</g>
<!-- Node32 -->
<g id="node24" class="node">
<title>Node32</title>
<g id="a_node24"><a xlink:title=" ">
<polygon fill="#e0e0e0" stroke="#999999" points="1307.5,-134.5 1254.5,-134.5 1254.5,-115.5 1307.5,-115.5 1307.5,-134.5"/>
<text text-anchor="middle" x="1281" y="-122.5" font-family="Helvetica,sans-Serif" font-size="10.00">fe/loc.h</text>
</a>
</g>
</g>
<!-- Node30&#45;&gt;Node32 -->
<g id="edge27" class="edge">
<title>Node30&#45;&gt;Node32</title>
<path fill="none" stroke="#63b8ff" d="M1206.84,-175.87C1220.72,-166.54 1243.07,-151.51 1259.61,-140.38"/>
<polygon fill="#63b8ff" stroke="#63b8ff" points="1261.76,-143.15 1268.11,-134.67 1257.86,-137.34 1261.76,-143.15"/>
</g>
<!-- Node33 -->
<g id="node25" class="node">
<title>Node33</title>
<g id="a_node25"><a xlink:title=" ">
<polygon fill="#e0e0e0" stroke="#999999" points="1149.5,-134.5 1090.5,-134.5 1090.5,-115.5 1149.5,-115.5 1149.5,-134.5"/>
<text text-anchor="middle" x="1120" y="-122.5" font-family="Helvetica,sans-Serif" font-size="10.00">fe/sym.h</text>
</a>
</g>
</g>
<!-- Node30&#45;&gt;Node33 -->
<g id="edge28" class="edge">
<title>Node30&#45;&gt;Node33</title>
<path fill="none" stroke="#63b8ff" d="M1183.08,-175.87C1171.49,-166.71 1152.97,-152.06 1138.98,-141.01"/>
<polygon fill="#63b8ff" stroke="#63b8ff" points="1140.98,-138.12 1130.96,-134.67 1136.64,-143.61 1140.98,-138.12"/>
</g>
<!-- Node34 -->
<g id="node26" class="node">
<title>Node34</title>
<g id="a_node26"><a xlink:title=" ">
<polygon fill="#e0e0e0" stroke="#999999" points="1072,-140 968,-140 968,-110 1072,-110 1072,-140"/>
<text text-anchor="start" x="976" y="-128" font-family="Helvetica,sans-Serif" font-size="10.00">absl/container/flat</text>
<text text-anchor="middle" x="1020" y="-117" font-family="Helvetica,sans-Serif" font-size="10.00">_hash_set.h</text>
</a>
</g>
</g>
<!-- Node30&#45;&gt;Node34 -->
<g id="edge30" class="edge">
<title>Node30&#45;&gt;Node34</title>
<path fill="none" stroke="#63b8ff" d="M1168.7,-175.99C1143.33,-167.46 1103.54,-154.09 1071.5,-143.32"/>
<polygon fill="#63b8ff" stroke="#63b8ff" points="1072.43,-139.93 1061.83,-140.06 1070.2,-146.57 1072.43,-139.93"/>
</g>
<!-- Node30&#45;&gt;Node35 -->
<g id="edge31" class="edge">
<title>Node30&#45;&gt;Node35</title>
<path fill="none" stroke="#63b8ff" d="M1220.32,-175.99C1251.55,-165.9 1303.8,-149.01 1338.82,-137.69"/>
<polygon fill="#63b8ff" stroke="#63b8ff" points="1340.21,-140.92 1348.65,-134.52 1338.06,-134.26 1340.21,-140.92"/>
</g>
<!-- Node35&#45;&gt;Node4 -->
<g id="edge34" class="edge">
<title>Node35&#45;&gt;Node4</title>
<path fill="none" stroke="#63b8ff" d="M1386.36,-115.37C1398.42,-106.21 1417.7,-91.56 1432.25,-80.51"/>
<polygon fill="#63b8ff" stroke="#63b8ff" points="1434.75,-83 1440.59,-74.17 1430.51,-77.43 1434.75,-83"/>
</g>
<!-- Node35&#45;&gt;Node11 -->
<g id="edge35" class="edge">
<title>Node35&#45;&gt;Node11</title>
<path fill="none" stroke="#63b8ff" d="M1343.88,-115.48C1335.24,-113.39 1325.8,-111.37 1317,-110 1100.14,-76.37 837.09,-68.12 734.23,-66.12"/>
<polygon fill="#63b8ff" stroke="#63b8ff" points="734.27,-62.62 724.21,-65.94 734.14,-69.62 734.27,-62.62"/>
</g>
<!-- Node35&#45;&gt;Node27 -->
<g id="edge32" class="edge">
<title>Node35&#45;&gt;Node27</title>
<path fill="none" stroke="#63b8ff" d="M1375,-115.47C1375,-97.23 1375,-54.07 1375,-29.14"/>
<polygon fill="#63b8ff" stroke="#63b8ff" points="1378.5,-29.13 1375,-19.13 1371.5,-29.13 1378.5,-29.13"/>
</g>
<!-- Node37 -->
<g id="node28" class="node">
<title>Node37</title>
<g id="a_node28"><a xlink:title=" ">
<polygon fill="#e0e0e0" stroke="#999999" points="638,-74 582,-74 582,-55 638,-55 638,-74"/>
<text text-anchor="middle" x="610" y="-62" font-family="Helvetica,sans-Serif" font-size="10.00">sstream</text>
</a>
</g>
</g>
<!-- Node35&#45;&gt;Node37 -->
<g id="edge33" class="edge">
<title>Node35&#45;&gt;Node37</title>
<path fill="none" stroke="#63b8ff" d="M1344.2,-115.46C1335.47,-113.34 1325.92,-111.3 1317,-110 1025.25,-67.32 944.12,-114.46 648.35,-73.92"/>
<polygon fill="#63b8ff" stroke="#63b8ff" points="648.58,-70.42 638.19,-72.5 647.61,-77.35 648.58,-70.42"/>
</g>
<!-- Node38&#45;&gt;Node7 -->
<g id="edge41" class="edge">
<title>Node38&#45;&gt;Node7</title>
<path fill="none" stroke="#63b8ff" d="M663.29,-175.93C705,-167.61 770.12,-154.43 835.68,-140.26"/>
<polygon fill="#63b8ff" stroke="#63b8ff" points="836.74,-143.61 845.77,-138.07 835.26,-136.77 836.74,-143.61"/>
</g>
<!-- Node38&#45;&gt;Node10 -->
<g id="edge38" class="edge">
<title>Node38&#45;&gt;Node10</title>
<path fill="none" stroke="#63b8ff" d="M625.61,-175.87C631.16,-167.31 639.83,-153.97 646.8,-143.24"/>
<polygon fill="#63b8ff" stroke="#63b8ff" points="649.86,-144.96 652.37,-134.67 643.99,-141.15 649.86,-144.96"/>
</g>
<!-- Node38&#45;&gt;Node11 -->
<g id="edge43" class="edge">
<title>Node38&#45;&gt;Node11</title>
<path fill="none" stroke="#63b8ff" d="M617.57,-175.56C614.1,-160.84 609.34,-131.05 621,-110 628.8,-95.92 643.15,-85.6 656.74,-78.46"/>
<polygon fill="#63b8ff" stroke="#63b8ff" points="658.46,-81.52 665.95,-74.03 655.42,-75.22 658.46,-81.52"/>
</g>
<!-- Node38&#45;&gt;Node22 -->
<g id="edge40" class="edge">
<title>Node38&#45;&gt;Node22</title>
<path fill="none" stroke="#63b8ff" d="M610.83,-175.63C582.05,-147.82 493.31,-62.03 456.38,-26.34"/>
<polygon fill="#63b8ff" stroke="#63b8ff" points="458.56,-23.58 448.94,-19.14 453.7,-28.61 458.56,-23.58"/>
</g>
<!-- Node38&#45;&gt;Node23 -->
<g id="edge44" class="edge">
<title>Node38&#45;&gt;Node23</title>
<path fill="none" stroke="#63b8ff" d="M599.93,-175.99C576.63,-166.12 537.99,-149.73 511.32,-138.43"/>
<polygon fill="#63b8ff" stroke="#63b8ff" points="512.66,-135.2 502.09,-134.52 509.93,-141.64 512.66,-135.2"/>
</g>
<!-- Node38&#45;&gt;Node34 -->
<g id="edge42" class="edge">
<title>Node38&#45;&gt;Node34</title>
<path fill="none" stroke="#63b8ff" d="M666.27,-179.84C729.82,-173.12 847.84,-159.54 957.88,-140.09"/>
<polygon fill="#63b8ff" stroke="#63b8ff" points="958.6,-143.52 967.82,-138.32 957.36,-136.63 958.6,-143.52"/>
</g>
<!-- Node40 -->
<g id="node30" class="node">
<title>Node40</title>
<g id="a_node30"><a xlink:title=" ">
<polygon fill="#e0e0e0" stroke="#999999" points="287.5,-134.5 244.5,-134.5 244.5,-115.5 287.5,-115.5 287.5,-134.5"/>
<text text-anchor="middle" x="266" y="-122.5" font-family="Helvetica,sans-Serif" font-size="10.00">stack</text>
</a>
</g>
</g>
<!-- Node38&#45;&gt;Node40 -->
<g id="edge39" class="edge">
<title>Node38&#45;&gt;Node40</title>
<path fill="none" stroke="#63b8ff" d="M573.72,-176.85C500.73,-164.79 360.73,-141.65 297.9,-131.27"/>
<polygon fill="#63b8ff" stroke="#63b8ff" points="298.23,-127.78 287.79,-129.6 297.09,-134.69 298.23,-127.78"/>
</g>
<!-- Node43&#45;&gt;Node4 -->
<g id="edge47" class="edge">
<title>Node43&#45;&gt;Node4</title>
<path fill="none" stroke="#63b8ff" d="M783.42,-426.13C923.8,-424.02 1370.15,-409.9 1471,-316 1494.28,-294.32 1490,-278.81 1490,-247 1490,-247 1490,-247 1490,-184.5 1490,-147.07 1472.73,-106.03 1461.48,-83.25"/>
<polygon fill="#63b8ff" stroke="#63b8ff" points="1464.49,-81.46 1456.81,-74.15 1458.26,-84.65 1464.49,-81.46"/>
</g>
<!-- Node43&#45;&gt;Node6 -->
<g id="edge50" class="edge">
<title>Node43&#45;&gt;Node6</title>
<path fill="none" stroke="#63b8ff" d="M710.47,-417.92C669.04,-404.32 597.46,-373.26 574,-316 562.14,-287.06 593.36,-269.71 626.92,-259.65"/>
<polygon fill="#63b8ff" stroke="#63b8ff" points="628.19,-262.93 636.88,-256.88 626.31,-256.18 628.19,-262.93"/>
</g>
<!-- Node43&#45;&gt;Node22 -->
<g id="edge49" class="edge">
<title>Node43&#45;&gt;Node22</title>
<path fill="none" stroke="#63b8ff" d="M698.74,-419.15C695.79,-418.73 692.85,-418.34 690,-418 636.35,-411.55 245.03,-418.3 205,-382 114.9,-300.3 146.02,-192.91 235,-110 283.03,-65.24 354.93,-36.7 399.58,-22.16"/>
<polygon fill="#63b8ff" stroke="#63b8ff" points="400.74,-25.46 409.22,-19.1 398.63,-18.79 400.74,-25.46"/>
</g>
<!-- Node43&#45;&gt;Node23 -->
<g id="edge70" class="edge">
<title>Node43&#45;&gt;Node23</title>
<path fill="none" stroke="#63b8ff" d="M698.74,-419.17C695.79,-418.75 692.85,-418.35 690,-418 590.65,-405.76 325.61,-435.48 241,-382 208.68,-361.57 198,-345.73 198,-307.5 198,-307.5 198,-307.5 198,-245 198,-148.65 338.77,-128.98 422.09,-125.78"/>
<polygon fill="#63b8ff" stroke="#63b8ff" points="422.32,-129.28 432.21,-125.46 422.1,-122.28 422.32,-129.28"/>
</g>
<!-- Node43&#45;&gt;Node30 -->
<g id="edge69" class="edge">
<title>Node43&#45;&gt;Node30</title>
<path fill="none" stroke="#63b8ff" d="M783.23,-423.68C835.28,-419.21 925.8,-408.14 999,-382 1024.49,-372.9 1027.09,-362.59 1052,-352 1103.63,-330.04 1135.95,-358.14 1173,-316 1200.24,-285.02 1199.45,-233.05 1196.65,-205.3"/>
<polygon fill="#63b8ff" stroke="#63b8ff" points="1200.08,-204.53 1195.41,-195.03 1193.14,-205.37 1200.08,-204.53"/>
</g>
<!-- Node43&#45;&gt;Node37 -->
<g id="edge46" class="edge">
<title>Node43&#45;&gt;Node37</title>
<path fill="none" stroke="#63b8ff" d="M698.82,-419.14C668.64,-412.58 627.89,-401.01 596,-382 589.64,-378.21 409.11,-201.72 406,-195 390.14,-160.67 378.22,-139.41 402,-110 422.9,-84.16 517.24,-72.66 571.41,-68.1"/>
<polygon fill="#63b8ff" stroke="#63b8ff" points="571.99,-71.57 581.68,-67.28 571.43,-64.59 571.99,-71.57"/>
</g>
<!-- Node44 -->
<g id="node32" class="node">
<title>Node44</title>
<g id="a_node32"><a xlink:title=" ">
<polygon fill="#e0e0e0" stroke="#999999" points="337.5,-376.5 264.5,-376.5 264.5,-357.5 337.5,-357.5 337.5,-376.5"/>
<text text-anchor="middle" x="301" y="-364.5" font-family="Helvetica,sans-Serif" font-size="10.00">string_view</text>
</a>
</g>
</g>
<!-- Node43&#45;&gt;Node44 -->
<g id="edge48" class="edge">
<title>Node43&#45;&gt;Node44</title>
<path fill="none" stroke="#63b8ff" d="M698.73,-419.25C695.78,-418.81 692.85,-418.39 690,-418 538.11,-397.39 497.23,-412.45 347,-382 343.35,-381.26 339.57,-380.35 335.83,-379.36"/>
<polygon fill="#63b8ff" stroke="#63b8ff" points="336.66,-375.96 326.09,-376.58 334.74,-382.69 336.66,-375.96"/>
</g>
<!-- Node45 -->
<g id="node33" class="node">
<title>Node45</title>
<g id="a_node33"><a xlink:title=" ">
<polygon fill="#e0e0e0" stroke="#999999" points="470,-382 356,-382 356,-352 470,-352 470,-382"/>
<text text-anchor="start" x="364" y="-370" font-family="Helvetica,sans-Serif" font-size="10.00">absl/container/btree</text>
<text text-anchor="middle" x="413" y="-359" font-family="Helvetica,sans-Serif" font-size="10.00">_set.h</text>
</a>
</g>
</g>
<!-- Node43&#45;&gt;Node45 -->
<g id="edge51" class="edge">
<title>Node43&#45;&gt;Node45</title>
<path fill="none" stroke="#63b8ff" d="M698.78,-419.43C636.11,-408.91 522.08,-389.73 480.05,-382.11"/>
<polygon fill="#63b8ff" stroke="#63b8ff" points="480.68,-378.67 470.21,-380.28 479.4,-385.55 480.68,-378.67"/>
</g>
<!-- Node46 -->
<g id="node34" class="node">
<title>Node46</title>
<g id="a_node34"><a xlink:title=" ">
<polygon fill="#e0e0e0" stroke="#999999" points="554,-376.5 488,-376.5 488,-357.5 554,-357.5 554,-376.5"/>
<text text-anchor="middle" x="521" y="-364.5" font-family="Helvetica,sans-Serif" font-size="10.00">fe/arena.h</text>
</a>
</g>
</g>
<!-- Node43&#45;&gt;Node46 -->
<g id="edge52" class="edge">
<title>Node43&#45;&gt;Node46</title>
<path fill="none" stroke="#63b8ff" d="M706.1,-417.93C671.09,-409.24 615.66,-395.22 568,-382 565.06,-381.18 562.02,-380.32 558.97,-379.44"/>
<polygon fill="#63b8ff" stroke="#63b8ff" points="559.86,-376.06 549.28,-376.61 557.9,-382.78 559.86,-376.06"/>
</g>
<!-- Node47 -->
<g id="node35" class="node">
<title>Node47</title>
<g id="a_node35"><a xlink:href="axiom_8h.html" target="_top" xlink:title=" ">
<polygon fill="white" stroke="#666666" points="972,-376.5 884,-376.5 884,-357.5 972,-357.5 972,-376.5"/>
<text text-anchor="middle" x="928" y="-364.5" font-family="Helvetica,sans-Serif" font-size="10.00">thorin/axiom.h</text>
</a>
</g>
</g>
<!-- Node43&#45;&gt;Node47 -->
<g id="edge53" class="edge">
<title>Node43&#45;&gt;Node47</title>
<path fill="none" stroke="#63b8ff" d="M768.19,-417.99C800.6,-407.86 854.9,-390.87 891.08,-379.55"/>
<polygon fill="#63b8ff" stroke="#63b8ff" points="892.28,-382.84 900.78,-376.52 890.19,-376.16 892.28,-382.84"/>
</g>
<!-- Node48 -->
<g id="node36" class="node">
<title>Node48</title>
<g id="a_node36"><a xlink:href="check_8h.html" target="_top" xlink:title=" ">
<polygon fill="white" stroke="#666666" points="734,-376.5 648,-376.5 648,-357.5 734,-357.5 734,-376.5"/>
<text text-anchor="middle" x="691" y="-364.5" font-family="Helvetica,sans-Serif" font-size="10.00">thorin/check.h</text>
</a>
</g>
</g>
<!-- Node43&#45;&gt;Node48 -->
<g id="edge56" class="edge">
<title>Node43&#45;&gt;Node48</title>
<path fill="none" stroke="#63b8ff" d="M733.62,-417.87C726.09,-409.05 714.21,-395.16 704.91,-384.27"/>
<polygon fill="#63b8ff" stroke="#63b8ff" points="707.57,-382 698.41,-376.67 702.24,-386.54 707.57,-382"/>
</g>
<!-- Node50 -->
<g id="node38" class="node">
<title>Node50</title>
<g id="a_node38"><a xlink:href="flags_8h.html" target="_top" xlink:title=" ">
<polygon fill="white" stroke="#666666" points="347,-255.5 267,-255.5 267,-236.5 347,-236.5 347,-255.5"/>
<text text-anchor="middle" x="307" y="-243.5" font-family="Helvetica,sans-Serif" font-size="10.00">thorin/flags.h</text>
</a>
</g>
</g>
<!-- Node43&#45;&gt;Node50 -->
<g id="edge59" class="edge">
<title>Node43&#45;&gt;Node50</title>
<path fill="none" stroke="#63b8ff" d="M698.74,-419.18C695.79,-418.75 692.85,-418.36 690,-418 641.98,-412.02 288.77,-417.6 256,-382 224.17,-347.42 266.37,-291.03 291.2,-263.36"/>
<polygon fill="#63b8ff" stroke="#63b8ff" points="294.02,-265.47 298.25,-255.75 288.89,-260.71 294.02,-265.47"/>
</g>
<!-- Node51 -->
<g id="node39" class="node">
<title>Node51</title>
<g id="a_node39"><a xlink:href="lam_8h.html" target="_top" xlink:title=" ">
<polygon fill="white" stroke="#666666" points="828,-376.5 752,-376.5 752,-357.5 828,-357.5 828,-376.5"/>
<text text-anchor="middle" x="790" y="-364.5" font-family="Helvetica,sans-Serif" font-size="10.00">thorin/lam.h</text>
</a>
</g>
</g>
<!-- Node43&#45;&gt;Node51 -->
<g id="edge62" class="edge">
<title>Node43&#45;&gt;Node51</title>
<path fill="none" stroke="#63b8ff" d="M748.23,-417.87C755.54,-409.14 767.02,-395.43 776.1,-384.59"/>
<polygon fill="#63b8ff" stroke="#63b8ff" points="779,-386.58 782.74,-376.67 773.64,-382.09 779,-386.58"/>
</g>
<!-- Node53 -->
<g id="node41" class="node">
<title>Node53</title>
<g id="a_node41"><a xlink:href="lattice_8h.html" target="_top" xlink:title=" ">
<polygon fill="white" stroke="#666666" points="920,-316 832,-316 832,-297 920,-297 920,-316"/>
<text text-anchor="middle" x="876" y="-304" font-family="Helvetica,sans-Serif" font-size="10.00">thorin/lattice.h</text>
</a>
</g>
</g>
<!-- Node43&#45;&gt;Node53 -->
<g id="edge65" class="edge">
<title>Node43&#45;&gt;Node53</title>
<path fill="none" stroke="#63b8ff" d="M771.69,-418C792.18,-411.05 818.65,-399.49 837,-382 853.3,-366.47 864.11,-342.61 870.14,-326.1"/>
<polygon fill="#63b8ff" stroke="#63b8ff" points="873.51,-327.06 873.41,-316.47 866.88,-324.81 873.51,-327.06"/>
</g>
<!-- Node54 -->
<g id="node42" class="node">
<title>Node54</title>
<g id="a_node42"><a xlink:href="tuple_8h.html" target="_top" xlink:title=" ">
<polygon fill="white" stroke="#666666" points="1020,-316 938,-316 938,-297 1020,-297 1020,-316"/>
<text text-anchor="middle" x="979" y="-304" font-family="Helvetica,sans-Serif" font-size="10.00">thorin/tuple.h</text>
</a>
</g>
</g>
<!-- Node43&#45;&gt;Node54 -->
<g id="edge67" class="edge">
<title>Node43&#45;&gt;Node54</title>
<path fill="none" stroke="#63b8ff" d="M783.13,-424.94C845.14,-421.66 956.31,-411.69 981,-382 993.89,-366.49 990.35,-342.25 985.6,-325.66"/>
<polygon fill="#63b8ff" stroke="#63b8ff" points="988.89,-324.46 982.46,-316.03 982.23,-326.63 988.89,-324.46"/>
</g>
<!-- Node55 -->
<g id="node43" class="node">
<title>Node55</title>
<g id="a_node43"><a xlink:href="log_8h.html" target="_top" xlink:title=" ">
<polygon fill="white" stroke="#666666" points="1461.5,-316 1370.5,-316 1370.5,-297 1461.5,-297 1461.5,-316"/>
<text text-anchor="middle" x="1416" y="-304" font-family="Helvetica,sans-Serif" font-size="10.00">thorin/util/log.h</text>
</a>
</g>
</g>
<!-- Node43&#45;&gt;Node55 -->
<g id="edge71" class="edge">
<title>Node43&#45;&gt;Node55</title>
<path fill="none" stroke="#63b8ff" d="M783.13,-421.28C843.04,-413.68 956.21,-398.64 1052,-382 1165.8,-362.23 1298.48,-333.67 1367.96,-318.29"/>
<polygon fill="#63b8ff" stroke="#63b8ff" points="1369.15,-321.61 1378.15,-316.02 1367.63,-314.78 1369.15,-321.61"/>
</g>
<!-- Node47&#45;&gt;Node2 -->
<g id="edge55" class="edge">
<title>Node47&#45;&gt;Node2</title>
<path fill="none" stroke="#63b8ff" d="M955.92,-357.49C989.19,-347.36 1044.95,-330.37 1082.1,-319.05"/>
<polygon fill="#63b8ff" stroke="#63b8ff" points="1083.5,-322.28 1092.05,-316.02 1081.46,-315.58 1083.5,-322.28"/>
</g>
<!-- Node47&#45;&gt;Node11 -->
<g id="edge54" class="edge">
<title>Node47&#45;&gt;Node11</title>
<path fill="none" stroke="#63b8ff" d="M907,-357.44C873.44,-343.89 805.56,-316.99 747,-297 675.56,-272.61 467.45,-256.01 423,-195 412.17,-180.13 387.83,-151.83 424,-110 455.04,-74.11 582.52,-81.83 645.5,-73.92"/>
<polygon fill="#63b8ff" stroke="#63b8ff" points="646.38,-77.33 655.75,-72.38 645.34,-70.41 646.38,-77.33"/>
</g>
<!-- Node48&#45;&gt;Node9 -->
<g id="edge58" class="edge">
<title>Node48&#45;&gt;Node9</title>
<path fill="none" stroke="#63b8ff" d="M685.49,-357.36C677.24,-343.21 664.07,-314.89 678,-297 696.43,-273.33 777.01,-259.11 829.52,-252.18"/>
<polygon fill="#63b8ff" stroke="#63b8ff" points="830.15,-255.63 839.62,-250.89 829.26,-248.69 830.15,-255.63"/>
</g>
<!-- Node49 -->
<g id="node37" class="node">
<title>Node49</title>
<g id="a_node37"><a xlink:title=" ">
<polygon fill="#e0e0e0" stroke="#999999" points="629.5,-316 582.5,-316 582.5,-297 629.5,-297 629.5,-316"/>
<text text-anchor="middle" x="606" y="-304" font-family="Helvetica,sans-Serif" font-size="10.00">deque</text>
</a>
</g>
</g>
<!-- Node48&#45;&gt;Node49 -->
<g id="edge57" class="edge">
<title>Node48&#45;&gt;Node49</title>
<path fill="none" stroke="#63b8ff" d="M678.46,-357.37C664.9,-348.04 643.06,-333.01 626.9,-321.88"/>
<polygon fill="#63b8ff" stroke="#63b8ff" points="628.82,-318.95 618.59,-316.17 624.85,-324.72 628.82,-318.95"/>
</g>
<!-- Node50&#45;&gt;Node8 -->
<g id="edge61" class="edge">
<title>Node50&#45;&gt;Node8</title>
<path fill="none" stroke="#63b8ff" d="M331.43,-236.49C360.29,-226.44 408.5,-209.66 441,-198.34"/>
<polygon fill="#63b8ff" stroke="#63b8ff" points="442.25,-201.61 450.54,-195.02 439.95,-195 442.25,-201.61"/>
</g>
<!-- Node50&#45;&gt;Node25 -->
<g id="edge60" class="edge">
<title>Node50&#45;&gt;Node25</title>
<path fill="none" stroke="#63b8ff" d="M283.74,-236.4C232.46,-216.25 109.11,-160.99 44,-74 34.2,-60.9 29.42,-42.76 27.11,-29.23"/>
<polygon fill="#63b8ff" stroke="#63b8ff" points="30.56,-28.56 25.7,-19.15 23.62,-29.54 30.56,-28.56"/>
</g>
<!-- Node51&#45;&gt;Node9 -->
<g id="edge64" class="edge">
<title>Node51&#45;&gt;Node9</title>
<path fill="none" stroke="#63b8ff" d="M792.95,-357.38C797.85,-343.75 808.6,-316.74 823,-297 832.62,-283.81 846.02,-271.21 856.94,-261.95"/>
<polygon fill="#63b8ff" stroke="#63b8ff" points="859.19,-264.63 864.7,-255.58 854.75,-259.22 859.19,-264.63"/>
</g>
<!-- Node52 -->
<g id="node40" class="node">
<title>Node52</title>
<g id="a_node40"><a xlink:title=" ">
<polygon fill="#e0e0e0" stroke="#999999" points="737.5,-316 686.5,-316 686.5,-297 737.5,-297 737.5,-316"/>
<text text-anchor="middle" x="712" y="-304" font-family="Helvetica,sans-Serif" font-size="10.00">variant</text>
</a>
</g>
</g>
<!-- Node51&#45;&gt;Node52 -->
<g id="edge63" class="edge">
<title>Node51&#45;&gt;Node52</title>
<path fill="none" stroke="#63b8ff" d="M778.49,-357.37C766.16,-348.12 746.38,-333.28 731.59,-322.19"/>
<polygon fill="#63b8ff" stroke="#63b8ff" points="733.66,-319.37 723.56,-316.17 729.46,-324.97 733.66,-319.37"/>
</g>
<!-- Node53&#45;&gt;Node9 -->
<g id="edge66" class="edge">
<title>Node53&#45;&gt;Node9</title>
<path fill="none" stroke="#63b8ff" d="M876,-296.87C876,-288.75 876,-276.31 876,-265.89"/>
<polygon fill="#63b8ff" stroke="#63b8ff" points="879.5,-265.67 876,-255.67 872.5,-265.67 879.5,-265.67"/>
</g>
<!-- Node54&#45;&gt;Node9 -->
<g id="edge68" class="edge">
<title>Node54&#45;&gt;Node9</title>
<path fill="none" stroke="#63b8ff" d="M963.8,-296.87C946.99,-287.32 919.68,-271.81 899.98,-260.62"/>
<polygon fill="#63b8ff" stroke="#63b8ff" points="901.68,-257.56 891.26,-255.67 898.23,-263.65 901.68,-257.56"/>
</g>
<!-- Node55&#45;&gt;Node27 -->
<g id="edge72" class="edge">
<title>Node55&#45;&gt;Node27</title>
<path fill="none" stroke="#63b8ff" d="M1433.99,-296.86C1465.65,-280.26 1528,-240.69 1528,-186.5 1528,-186.5 1528,-186.5 1528,-124 1528,-67.12 1458.94,-35.44 1413.61,-20.77"/>
<polygon fill="#63b8ff" stroke="#63b8ff" points="1414.37,-17.34 1403.78,-17.73 1412.3,-24.03 1414.37,-17.34"/>
</g>
<!-- Node55&#45;&gt;Node30 -->
<g id="edge75" class="edge">
<title>Node55&#45;&gt;Node30</title>
<path fill="none" stroke="#63b8ff" d="M1417.44,-296.79C1419.46,-281.33 1421.16,-249.03 1404,-231 1383.38,-209.34 1306.06,-197.35 1251.25,-191.41"/>
<polygon fill="#63b8ff" stroke="#63b8ff" points="1251.61,-187.93 1241.3,-190.38 1250.88,-194.89 1251.61,-187.93"/>
</g>
<!-- Node55&#45;&gt;Node50 -->
<g id="edge74" class="edge">
<title>Node55&#45;&gt;Node50</title>
<path fill="none" stroke="#63b8ff" d="M1370.43,-298.08C1367.24,-297.67 1364.08,-297.31 1361,-297 1310.58,-291.92 559.85,-258.27 357.13,-249.23"/>
<polygon fill="#63b8ff" stroke="#63b8ff" points="357.2,-245.73 347.06,-248.78 356.89,-252.72 357.2,-245.73"/>
</g>
<!-- Node56 -->
<g id="node44" class="node">
<title>Node56</title>
<g id="a_node44"><a xlink:title=" ">
<polygon fill="#e0e0e0" stroke="#999999" points="1394.5,-255.5 1335.5,-255.5 1335.5,-236.5 1394.5,-236.5 1394.5,-255.5"/>
<text text-anchor="middle" x="1365" y="-243.5" font-family="Helvetica,sans-Serif" font-size="10.00">rang.hpp</text>
</a>
</g>
</g>
<!-- Node55&#45;&gt;Node56 -->
<g id="edge73" class="edge">
<title>Node55&#45;&gt;Node56</title>
<path fill="none" stroke="#63b8ff" d="M1408.47,-296.87C1400.79,-288.05 1388.68,-274.16 1379.19,-263.27"/>
<polygon fill="#63b8ff" stroke="#63b8ff" points="1381.77,-260.91 1372.56,-255.67 1376.49,-265.51 1381.77,-260.91"/>
</g>
<!-- Node57&#45;&gt;Node24 -->
<g id="edge77" class="edge">
<title>Node57&#45;&gt;Node24</title>
<path fill="none" stroke="#63b8ff" d="M240.24,-531.86C175.53,-523.24 84,-498.66 84,-428.5 84,-428.5 84,-428.5 84,-184.5 84,-148.44 93.47,-107.16 99.69,-83.92"/>
<polygon fill="#63b8ff" stroke="#63b8ff" points="103.12,-84.64 102.42,-74.07 96.38,-82.77 103.12,-84.64"/>
</g>
<!-- Node58&#45;&gt;Node40 -->
<g id="edge79" class="edge">
<title>Node58&#45;&gt;Node40</title>
<path fill="none" stroke="#63b8ff" d="M648.12,-478.27C533.21,-470.13 266.13,-444.75 205,-382 157.72,-333.47 167.26,-296.66 184,-231 193.64,-193.21 226.15,-159.65 247.23,-141.14"/>
<polygon fill="#63b8ff" stroke="#63b8ff" points="249.58,-143.73 254.94,-134.59 245.05,-138.4 249.58,-143.73"/>
</g>
<!-- Node58&#45;&gt;Node43 -->
<g id="edge81" class="edge">
<title>Node58&#45;&gt;Node43</title>
<path fill="none" stroke="#63b8ff" d="M707.61,-472.75C713.26,-465.26 721.54,-454.28 728.45,-445.13"/>
<polygon fill="#63b8ff" stroke="#63b8ff" points="731.29,-447.18 734.52,-437.09 725.7,-442.96 731.29,-447.18"/>
</g>
<!-- Node59 -->
<g id="node47" class="node">
<title>Node59</title>
<g id="a_node47"><a xlink:title=" ">
<polygon fill="#e0e0e0" stroke="#999999" points="680.5,-437 615.5,-437 615.5,-418 680.5,-418 680.5,-437"/>
<text text-anchor="middle" x="648" y="-425" font-family="Helvetica,sans-Serif" font-size="10.00">typeindex</text>
</a>
</g>
</g>
<!-- Node58&#45;&gt;Node59 -->
<g id="edge80" class="edge">
<title>Node58&#45;&gt;Node59</title>
<path fill="none" stroke="#63b8ff" d="M692.25,-472.75C684.53,-465.03 673.1,-453.6 663.78,-444.28"/>
<polygon fill="#63b8ff" stroke="#63b8ff" points="666.14,-441.69 656.59,-437.09 661.19,-446.64 666.14,-441.69"/>
</g>
<!-- Node60&#45;&gt;Node9 -->
<g id="edge83" class="edge">
<title>Node60&#45;&gt;Node9</title>
<path fill="none" stroke="#63b8ff" d="M998.43,-527.61C1018.28,-493.82 1083.06,-371.54 1029,-297 1004.88,-263.75 958.02,-252.2 922.48,-248.39"/>
<polygon fill="#63b8ff" stroke="#63b8ff" points="922.6,-244.89 912.32,-247.47 921.97,-251.86 922.6,-244.89"/>
</g>
<!-- Node60&#45;&gt;Node58 -->
<g id="edge89" class="edge">
<title>Node60&#45;&gt;Node58</title>
<path fill="none" stroke="#63b8ff" d="M946.09,-527.98C894.94,-518.7 813.08,-503.84 758.2,-493.88"/>
<polygon fill="#63b8ff" stroke="#63b8ff" points="758.75,-490.42 748.28,-492.08 757.5,-497.31 758.75,-490.42"/>
</g>
<!-- Node61 -->
<g id="node49" class="node">
<title>Node61</title>
<g id="a_node49"><a xlink:href="rewrite_8h.html" target="_top" xlink:title=" ">
<polygon fill="white" stroke="#666666" points="1196,-492 1104,-492 1104,-473 1196,-473 1196,-492"/>
<text text-anchor="middle" x="1150" y="-480" font-family="Helvetica,sans-Serif" font-size="10.00">thorin/rewrite.h</text>
</a>
</g>
</g>
<!-- Node60&#45;&gt;Node61 -->
<g id="edge84" class="edge">
<title>Node60&#45;&gt;Node61</title>
<path fill="none" stroke="#63b8ff" d="M1018.22,-527.98C1044.36,-519.16 1085.4,-505.31 1114.73,-495.41"/>
<polygon fill="#63b8ff" stroke="#63b8ff" points="1116.22,-498.6 1124.58,-492.08 1113.98,-491.96 1116.22,-498.6"/>
</g>
<!-- Node61&#45;&gt;Node43 -->
<g id="edge85" class="edge">
<title>Node61&#45;&gt;Node43</title>
<path fill="none" stroke="#63b8ff" d="M1103.88,-475.52C1027.15,-465.58 873.76,-445.7 793.19,-435.26"/>
<polygon fill="#63b8ff" stroke="#63b8ff" points="793.63,-431.79 783.26,-433.98 792.73,-438.73 793.63,-431.79"/>
</g>
<!-- Node62 -->
<g id="node50" class="node">
<title>Node62</title>
<g id="a_node50"><a xlink:href="scope_8h.html" target="_top" xlink:title=" ">
<polygon fill="white" stroke="#666666" points="1352,-316 1220,-316 1220,-297 1352,-297 1352,-316"/>
<text text-anchor="middle" x="1286" y="-304" font-family="Helvetica,sans-Serif" font-size="10.00">thorin/analyses/scope.h</text>
</a>
</g>
</g>
<!-- Node61&#45;&gt;Node62 -->
<g id="edge86" class="edge">
<title>Node61&#45;&gt;Node62</title>
<path fill="none" stroke="#63b8ff" d="M1156.93,-472.63C1178.49,-445.05 1244.6,-360.47 1272.91,-324.25"/>
<polygon fill="#63b8ff" stroke="#63b8ff" points="1275.84,-326.18 1279.24,-316.14 1270.33,-321.87 1275.84,-326.18"/>
</g>
<!-- Node62&#45;&gt;Node9 -->
<g id="edge87" class="edge">
<title>Node62&#45;&gt;Node9</title>
<path fill="none" stroke="#63b8ff" d="M1226.38,-296.99C1143.97,-285.24 996.99,-264.26 922.31,-253.61"/>
<polygon fill="#63b8ff" stroke="#63b8ff" points="922.66,-250.12 912.26,-252.17 921.67,-257.05 922.66,-250.12"/>
</g>
<!-- Node62&#45;&gt;Node35 -->
<g id="edge88" class="edge">
<title>Node62&#45;&gt;Node35</title>
<path fill="none" stroke="#63b8ff" d="M1290.29,-296.84C1304.07,-269.06 1347.35,-181.77 1366.14,-143.86"/>
<polygon fill="#63b8ff" stroke="#63b8ff" points="1369.44,-145.08 1370.75,-134.57 1363.17,-141.98 1369.44,-145.08"/>
</g>
</g>
</svg>
