<?xml version="1.0" encoding="UTF-8" standalone="no"?>
<!DOCTYPE svg PUBLIC "-//W3C//DTD SVG 1.1//EN"
 "http://www.w3.org/Graphics/SVG/1.1/DTD/svg11.dtd">
<!-- Generated by graphviz version 2.43.0 (0)
 -->
<!-- Title: include/mim/util/pool.h Pages: 1 -->
<svg width="1110pt" height="203pt"
 viewBox="0.00 0.00 1110.00 203.00" xmlns="http://www.w3.org/2000/svg" xmlns:xlink="http://www.w3.org/1999/xlink">
<g id="graph0" class="graph" transform="scale(1 1) rotate(0) translate(4 199)">
<title>include/mim/util/pool.h</title>
<!-- Node1 -->
<g id="Node000001" class="node">
<title>Node1</title>
<g id="a_Node000001"><a xlink:title=" ">
<polygon fill="#999999" stroke="#666666" points="228.5,-195 99.5,-195 99.5,-176 228.5,-176 228.5,-195"/>
<text text-anchor="middle" x="164" y="-183" font-family="Helvetica,sans-Serif" font-size="10.00">include/mim/util/pool.h</text>
</a>
</g>
</g>
<!-- Node2 -->
<g id="Node000002" class="node">
<title>Node2</title>
<g id="a_Node000002"><a xlink:title=" ">
<polygon fill="#e0e0e0" stroke="#999999" points="64,-140 0,-140 0,-121 64,-121 64,-140"/>
<text text-anchor="middle" x="32" y="-128" font-family="Helvetica,sans-Serif" font-size="10.00">algorithm</text>
</a>
</g>
</g>
<!-- Node1&#45;&gt;Node2 -->
<g id="edge1_Node000001_Node000002" class="edge">
<title>Node1&#45;&gt;Node2</title>
<g id="a_edge1_Node000001_Node000002"><a xlink:title=" ">
<path fill="none" stroke="#63b8ff" d="M142.79,-175.98C121.27,-167.34 87.72,-153.87 63.17,-144.02"/>
<polygon fill="#63b8ff" stroke="#63b8ff" points="64.18,-140.65 53.59,-140.17 61.57,-147.14 64.18,-140.65"/>
</a>
</g>
</g>
<!-- Node3 -->
<g id="Node000003" class="node">
<title>Node3</title>
<g id="a_Node000003"><a xlink:title=" ">
<polygon fill="#e0e0e0" stroke="#999999" points="135.5,-140 82.5,-140 82.5,-121 135.5,-121 135.5,-140"/>
<text text-anchor="middle" x="109" y="-128" font-family="Helvetica,sans-Serif" font-size="10.00">iterator</text>
</a>
</g>
</g>
<!-- Node1&#45;&gt;Node3 -->
<g id="edge2_Node000001_Node000003" class="edge">
<title>Node1&#45;&gt;Node3</title>
<g id="a_edge2_Node000001_Node000003"><a xlink:title=" ">
<path fill="none" stroke="#63b8ff" d="M154.92,-175.75C146.91,-168.03 135.04,-156.6 125.38,-147.28"/>
<polygon fill="#63b8ff" stroke="#63b8ff" points="127.54,-144.51 117.91,-140.09 122.69,-149.55 127.54,-144.51"/>
</a>
</g>
</g>
<!-- Node4 -->
<g id="Node000004" class="node">
<title>Node4</title>
<g id="a_Node000004"><a xlink:title=" ">
<polygon fill="#e0e0e0" stroke="#999999" points="153,-85 49,-85 49,-55 153,-55 153,-85"/>
<text text-anchor="start" x="57" y="-73" font-family="Helvetica,sans-Serif" font-size="10.00">absl/container/flat</text>
<text text-anchor="middle" x="101" y="-62" font-family="Helvetica,sans-Serif" font-size="10.00">_hash_set.h</text>
</a>
</g>
</g>
<!-- Node1&#45;&gt;Node4 -->
<g id="edge3_Node000001_Node000004" class="edge">
<title>Node1&#45;&gt;Node4</title>
<g id="a_edge3_Node000001_Node000004"><a xlink:title=" ">
<path fill="none" stroke="#63b8ff" d="M162.43,-175.84C159.89,-163.19 154.11,-139.18 144,-121 138.35,-110.84 130.41,-100.87 122.9,-92.54"/>
<polygon fill="#63b8ff" stroke="#63b8ff" points="125.31,-90 115.91,-85.11 120.21,-94.79 125.31,-90"/>
</a>
</g>
</g>
<!-- Node5 -->
<g id="Node000005" class="node">
<title>Node5</title>
<g id="a_Node000005"><a xlink:title=" ">
<polygon fill="#e0e0e0" stroke="#999999" points="258,-140 192,-140 192,-121 258,-121 258,-140"/>
<text text-anchor="middle" x="225" y="-128" font-family="Helvetica,sans-Serif" font-size="10.00">fe/arena.h</text>
</a>
</g>
</g>
<!-- Node1&#45;&gt;Node5 -->
<g id="edge4_Node000001_Node000005" class="edge">
<title>Node1&#45;&gt;Node5</title>
<g id="a_edge4_Node000001_Node000005"><a xlink:title=" ">
<path fill="none" stroke="#63b8ff" d="M173.8,-175.98C182.82,-168.15 196.41,-156.34 207.32,-146.86"/>
<polygon fill="#63b8ff" stroke="#63b8ff" points="209.77,-149.37 215.02,-140.17 205.18,-144.09 209.77,-149.37"/>
</a>
</g>
</g>
<!-- Node6 -->
<g id="Node000006" class="node">
<title>Node6</title>
<g id="a_Node000006"><a xlink:href="util_8h.html" target="_top" xlink:title=" ">
<polygon fill="white" stroke="#666666" points="425,-140 339,-140 339,-121 425,-121 425,-140"/>
<text text-anchor="middle" x="382" y="-128" font-family="Helvetica,sans-Serif" font-size="10.00">mim/util/util.h</text>
</a>
</g>
</g>
<!-- Node1&#45;&gt;Node6 -->
<g id="edge5_Node000001_Node000006" class="edge">
<title>Node1&#45;&gt;Node6</title>
<g id="a_edge5_Node000001_Node000006"><a xlink:title=" ">
<path fill="none" stroke="#63b8ff" d="M199.03,-175.98C236.5,-166.87 296.05,-152.4 336.98,-142.45"/>
<polygon fill="#63b8ff" stroke="#63b8ff" points="337.81,-145.85 346.7,-140.08 336.16,-139.04 337.81,-145.85"/>
</a>
</g>
</g>
<!-- Node6&#45;&gt;Node4 -->
<g id="edge11_Node000006_Node000004" class="edge">
<title>Node6&#45;&gt;Node4</title>
<g id="a_edge11_Node000006_Node000004"><a xlink:title=" ">
<path fill="none" stroke="#63b8ff" d="M338.93,-121.13C296.61,-112.83 229.94,-99.56 163.09,-85.2"/>
<polygon fill="#63b8ff" stroke="#63b8ff" points="163.74,-81.76 153.22,-83.08 162.26,-88.61 163.74,-81.76"/>
</a>
</g>
</g>
<!-- Node7 -->
<g id="Node000007" class="node">
<title>Node7</title>
<g id="a_Node000007"><a xlink:title=" ">
<polygon fill="#e0e0e0" stroke="#999999" points="227,-79.5 171,-79.5 171,-60.5 227,-60.5 227,-79.5"/>
<text text-anchor="middle" x="199" y="-67.5" font-family="Helvetica,sans-Serif" font-size="10.00">optional</text>
</a>
</g>
</g>
<!-- Node6&#45;&gt;Node7 -->
<g id="edge6_Node000006_Node000007" class="edge">
<title>Node6&#45;&gt;Node7</title>
<g id="a_edge6_Node000006_Node000007"><a xlink:title=" ">
<path fill="none" stroke="#63b8ff" d="M351.9,-120.95C322.25,-112.39 275.75,-98.56 236,-85 234.15,-84.37 232.25,-83.7 230.34,-83.02"/>
<polygon fill="#63b8ff" stroke="#63b8ff" points="231.42,-79.69 220.83,-79.53 229.01,-86.26 231.42,-79.69"/>
</a>
</g>
</g>
<!-- Node8 -->
<g id="Node000008" class="node">
<title>Node8</title>
<g id="a_Node000008"><a xlink:title=" ">
<polygon fill="#e0e0e0" stroke="#999999" points="292.5,-79.5 245.5,-79.5 245.5,-60.5 292.5,-60.5 292.5,-79.5"/>
<text text-anchor="middle" x="269" y="-67.5" font-family="Helvetica,sans-Serif" font-size="10.00">queue</text>
</a>
</g>
</g>
<!-- Node6&#45;&gt;Node8 -->
<g id="edge7_Node000006_Node000008" class="edge">
<title>Node6&#45;&gt;Node8</title>
<g id="a_edge7_Node000006_Node000008"><a xlink:title=" ">
<path fill="none" stroke="#63b8ff" d="M365.33,-120.87C346.72,-111.23 316.38,-95.53 294.72,-84.31"/>
<polygon fill="#63b8ff" stroke="#63b8ff" points="296.23,-81.16 285.74,-79.67 293.01,-87.37 296.23,-81.16"/>
</a>
</g>
</g>
<!-- Node9 -->
<g id="Node000009" class="node">
<title>Node9</title>
<g id="a_Node000009"><a xlink:title=" ">
<polygon fill="#e0e0e0" stroke="#999999" points="353.5,-79.5 310.5,-79.5 310.5,-60.5 353.5,-60.5 353.5,-79.5"/>
<text text-anchor="middle" x="332" y="-67.5" font-family="Helvetica,sans-Serif" font-size="10.00">stack</text>
</a>
</g>
</g>
<!-- Node6&#45;&gt;Node9 -->
<g id="edge8_Node000006_Node000009" class="edge">
<title>Node6&#45;&gt;Node9</title>
<g id="a_edge8_Node000006_Node000009"><a xlink:title=" ">
<path fill="none" stroke="#63b8ff" d="M374.62,-120.87C367.09,-112.05 355.21,-98.16 345.91,-87.27"/>
<polygon fill="#63b8ff" stroke="#63b8ff" points="348.57,-85 339.41,-79.67 343.24,-89.54 348.57,-85"/>
</a>
</g>
</g>
<!-- Node10 -->
<g id="Node000010" class="node">
<title>Node10</title>
<g id="a_Node000010"><a xlink:title=" ">
<polygon fill="#e0e0e0" stroke="#999999" points="586.5,-19 517.5,-19 517.5,0 586.5,0 586.5,-19"/>
<text text-anchor="middle" x="552" y="-7" font-family="Helvetica,sans-Serif" font-size="10.00">type_traits</text>
</a>
</g>
</g>
<!-- Node6&#45;&gt;Node10 -->
<g id="edge9_Node000006_Node000010" class="edge">
<title>Node6&#45;&gt;Node10</title>
<g id="a_edge9_Node000006_Node000010"><a xlink:title=" ">
<path fill="none" stroke="#63b8ff" d="M381.63,-120.84C381.46,-105.45 383.4,-73.26 401,-55 428.59,-26.38 473.57,-15.91 507.28,-12.22"/>
<polygon fill="#63b8ff" stroke="#63b8ff" points="507.72,-15.69 517.35,-11.27 507.06,-8.72 507.72,-15.69"/>
</a>
</g>
</g>
<!-- Node11 -->
<g id="Node000011" class="node">
<title>Node11</title>
<g id="a_Node000011"><a xlink:title=" ">
<polygon fill="#e0e0e0" stroke="#999999" points="514,-85 410,-85 410,-55 514,-55 514,-85"/>
<text text-anchor="start" x="418" y="-73" font-family="Helvetica,sans-Serif" font-size="10.00">absl/container/flat</text>
<text text-anchor="middle" x="462" y="-62" font-family="Helvetica,sans-Serif" font-size="10.00">_hash_map.h</text>
</a>
</g>
</g>
<!-- Node6&#45;&gt;Node11 -->
<g id="edge10_Node000006_Node000011" class="edge">
<title>Node6&#45;&gt;Node11</title>
<g id="a_edge10_Node000006_Node000011"><a xlink:title=" ">
<path fill="none" stroke="#63b8ff" d="M393.8,-120.87C404.46,-113.08 420.54,-101.32 434.41,-91.17"/>
<polygon fill="#63b8ff" stroke="#63b8ff" points="436.69,-93.84 442.7,-85.11 432.56,-88.19 436.69,-93.84"/>
</a>
</g>
</g>
<!-- Node12 -->
<g id="Node000012" class="node">
<title>Node12</title>
<g id="a_Node000012"><a xlink:title=" ">
<polygon fill="#e0e0e0" stroke="#999999" points="645.5,-85 532.5,-85 532.5,-55 645.5,-55 645.5,-85"/>
<text text-anchor="start" x="540.5" y="-73" font-family="Helvetica,sans-Serif" font-size="10.00">absl/container/node</text>
<text text-anchor="middle" x="589" y="-62" font-family="Helvetica,sans-Serif" font-size="10.00">_hash_map.h</text>
</a>
</g>
</g>
<!-- Node6&#45;&gt;Node12 -->
<g id="edge12_Node000006_Node000012" class="edge">
<title>Node6&#45;&gt;Node12</title>
<g id="a_edge12_Node000006_Node000012"><a xlink:title=" ">
<path fill="none" stroke="#63b8ff" d="M412.1,-120.99C442.67,-112.35 490.84,-98.74 529.2,-87.9"/>
<polygon fill="#63b8ff" stroke="#63b8ff" points="530.56,-91.15 539.23,-85.06 528.66,-84.42 530.56,-91.15"/>
</a>
</g>
</g>
<!-- Node13 -->
<g id="Node000013" class="node">
<title>Node13</title>
<g id="a_Node000013"><a xlink:title=" ">
<polygon fill="#e0e0e0" stroke="#999999" points="776.5,-85 663.5,-85 663.5,-55 776.5,-55 776.5,-85"/>
<text text-anchor="start" x="671.5" y="-73" font-family="Helvetica,sans-Serif" font-size="10.00">absl/container/node</text>
<text text-anchor="middle" x="720" y="-62" font-family="Helvetica,sans-Serif" font-size="10.00">_hash_set.h</text>
</a>
</g>
</g>
<!-- Node6&#45;&gt;Node13 -->
<g id="edge13_Node000006_Node000013" class="edge">
<title>Node6&#45;&gt;Node13</title>
<g id="a_edge13_Node000006_Node000013"><a xlink:title=" ">
<path fill="none" stroke="#63b8ff" d="M425.45,-123.03C477.24,-115.18 566.64,-101.19 653.16,-85.1"/>
<polygon fill="#63b8ff" stroke="#63b8ff" points="653.97,-88.51 663.15,-83.24 652.68,-81.63 653.97,-88.51"/>
</a>
</g>
</g>
<!-- Node14 -->
<g id="Node000014" class="node">
<title>Node14</title>
<g id="a_Node000014"><a xlink:title=" ">
<polygon fill="#e0e0e0" stroke="#999999" points="863,-79.5 795,-79.5 795,-60.5 863,-60.5 863,-79.5"/>
<text text-anchor="middle" x="829" y="-67.5" font-family="Helvetica,sans-Serif" font-size="10.00">fe/assert.h</text>
</a>
</g>
</g>
<!-- Node6&#45;&gt;Node14 -->
<g id="edge14_Node000006_Node000014" class="edge">
<title>Node6&#45;&gt;Node14</title>
<g id="a_edge14_Node000006_Node000014"><a xlink:title=" ">
<path fill="none" stroke="#63b8ff" d="M425.09,-127.55C499.3,-123.56 655.72,-112.42 785,-85 788.4,-84.28 791.9,-83.4 795.39,-82.44"/>
<polygon fill="#63b8ff" stroke="#63b8ff" points="796.44,-85.78 805.02,-79.58 794.44,-79.07 796.44,-85.78"/>
</a>
</g>
</g>
<!-- Node15 -->
<g id="Node000015" class="node">
<title>Node15</title>
<g id="a_Node000015"><a xlink:href="types_8h.html" target="_top" xlink:title=" ">
<polygon fill="white" stroke="#666666" points="978.5,-79.5 881.5,-79.5 881.5,-60.5 978.5,-60.5 978.5,-79.5"/>
<text text-anchor="middle" x="930" y="-67.5" font-family="Helvetica,sans-Serif" font-size="10.00">mim/util/types.h</text>
</a>
</g>
</g>
<!-- Node6&#45;&gt;Node15 -->
<g id="edge15_Node000006_Node000015" class="edge">
<title>Node6&#45;&gt;Node15</title>
<g id="a_edge15_Node000006_Node000015"><a xlink:title=" ">
<path fill="none" stroke="#63b8ff" d="M425.2,-127.7C510.9,-123.67 708.29,-112.04 872,-85 877.37,-84.11 882.97,-83 888.49,-81.79"/>
<polygon fill="#63b8ff" stroke="#63b8ff" points="889.3,-85.2 898.26,-79.55 887.73,-78.38 889.3,-85.2"/>
</a>
</g>
</g>
<!-- Node15&#45;&gt;Node10 -->
<g id="edge20_Node000015_Node000010" class="edge">
<title>Node15&#45;&gt;Node10</title>
<g id="a_edge20_Node000015_Node000010"><a xlink:title=" ">
<path fill="none" stroke="#63b8ff" d="M897,-60.44C888.86,-58.49 880.14,-56.54 872,-55 774.59,-36.52 659.12,-22.34 596.99,-15.34"/>
<polygon fill="#63b8ff" stroke="#63b8ff" points="597.08,-11.83 586.75,-14.19 596.3,-18.78 597.08,-11.83"/>
</a>
</g>
</g>
<!-- Node16 -->
<g id="Node000016" class="node">
<title>Node16</title>
<g id="a_Node000016"><a xlink:title=" ">
<polygon fill="#e0e0e0" stroke="#999999" points="821.5,-19 774.5,-19 774.5,0 821.5,0 821.5,-19"/>
<text text-anchor="middle" x="798" y="-7" font-family="Helvetica,sans-Serif" font-size="10.00">cmath</text>
</a>
</g>
</g>
<!-- Node15&#45;&gt;Node16 -->
<g id="edge16_Node000015_Node000016" class="edge">
<title>Node15&#45;&gt;Node16</title>
<g id="a_edge16_Node000015_Node000016"><a xlink:title=" ">
<path fill="none" stroke="#63b8ff" d="M910.81,-60.49C888.61,-50.66 851.88,-34.38 826.38,-23.08"/>
<polygon fill="#63b8ff" stroke="#63b8ff" points="827.78,-19.87 817.22,-19.02 824.94,-26.27 827.78,-19.87"/>
</a>
</g>
</g>
<!-- Node17 -->
<g id="Node000017" class="node">
<title>Node17</title>
<g id="a_Node000017"><a xlink:title=" ">
<polygon fill="#e0e0e0" stroke="#999999" points="890,-19 840,-19 840,0 890,0 890,-19"/>
<text text-anchor="middle" x="865" y="-7" font-family="Helvetica,sans-Serif" font-size="10.00">cstdint</text>
</a>
</g>
</g>
<!-- Node15&#45;&gt;Node17 -->
<g id="edge17_Node000015_Node000017" class="edge">
<title>Node15&#45;&gt;Node17</title>
<g id="a_edge17_Node000015_Node000017"><a xlink:title=" ">
<path fill="none" stroke="#63b8ff" d="M920.41,-60.37C910.42,-51.38 894.57,-37.11 882.37,-26.14"/>
<polygon fill="#63b8ff" stroke="#63b8ff" points="884.4,-23.26 874.63,-19.17 879.72,-28.46 884.4,-23.26"/>
</a>
</g>
</g>
<!-- Node18 -->
<g id="Node000018" class="node">
<title>Node18</title>
<g id="a_Node000018"><a xlink:title=" ">
<polygon fill="#e0e0e0" stroke="#999999" points="952,-19 908,-19 908,0 952,0 952,-19"/>
<text text-anchor="middle" x="930" y="-7" font-family="Helvetica,sans-Serif" font-size="10.00">limits</text>
</a>
</g>
</g>
<!-- Node15&#45;&gt;Node18 -->
<g id="edge18_Node000015_Node000018" class="edge">
<title>Node15&#45;&gt;Node18</title>
<g id="a_edge18_Node000015_Node000018"><a xlink:title=" ">
<path fill="none" stroke="#63b8ff" d="M930,-60.37C930,-52.25 930,-39.81 930,-29.39"/>
<polygon fill="#63b8ff" stroke="#63b8ff" points="933.5,-29.17 930,-19.17 926.5,-29.17 933.5,-29.17"/>
</a>
</g>
</g>
<!-- Node19 -->
<g id="Node000019" class="node">
<title>Node19</title>
<g id="a_Node000019"><a xlink:title=" ">
<polygon fill="#e0e0e0" stroke="#999999" points="1027.5,-19 970.5,-19 970.5,0 1027.5,0 1027.5,-19"/>
<text text-anchor="middle" x="999" y="-7" font-family="Helvetica,sans-Serif" font-size="10.00">ostream</text>
</a>
</g>
</g>
<!-- Node15&#45;&gt;Node19 -->
<g id="edge19_Node000015_Node000019" class="edge">
<title>Node15&#45;&gt;Node19</title>
<g id="a_edge19_Node000015_Node000019"><a xlink:title=" ">
<path fill="none" stroke="#63b8ff" d="M940.18,-60.37C950.88,-51.3 967.94,-36.84 980.93,-25.82"/>
<polygon fill="#63b8ff" stroke="#63b8ff" points="983.41,-28.3 988.78,-19.17 978.89,-22.96 983.41,-28.3"/>
</a>
</g>
</g>
<!-- Node20 -->
<g id="Node000020" class="node">
<title>Node20</title>
<g id="a_Node000020"><a xlink:title=" ">
<polygon fill="#e0e0e0" stroke="#999999" points="1102,-19 1046,-19 1046,0 1102,0 1102,-19"/>
<text text-anchor="middle" x="1074" y="-7" font-family="Helvetica,sans-Serif" font-size="10.00">half.hpp</text>
</a>
</g>
</g>
<!-- Node15&#45;&gt;Node20 -->
<g id="edge21_Node000015_Node000020" class="edge">
<title>Node15&#45;&gt;Node20</title>
<g id="a_edge21_Node000015_Node000020"><a xlink:title=" ">
<path fill="none" stroke="#63b8ff" d="M950.94,-60.49C975.36,-50.57 1015.93,-34.09 1043.77,-22.78"/>
<polygon fill="#63b8ff" stroke="#63b8ff" points="1045.09,-26.02 1053.04,-19.02 1042.45,-19.54 1045.09,-26.02"/>
</a>
</g>
</g>
</g>
</svg>
