<?xml version="1.0" encoding="UTF-8" standalone="no"?>
<!DOCTYPE svg PUBLIC "-//W3C//DTD SVG 1.1//EN"
 "http://www.w3.org/Graphics/SVG/1.1/DTD/svg11.dtd">
<!-- Generated by graphviz version 2.43.0 (0)
 -->
<!-- Title: build/include/dialects/refly/autogen.h Pages: 1 -->
<svg width="1449pt" height="665pt"
 viewBox="0.00 0.00 1449.00 665.00" xmlns="http://www.w3.org/2000/svg" xmlns:xlink="http://www.w3.org/1999/xlink">
<g id="graph0" class="graph" transform="scale(1 1) rotate(0) translate(4 661)">
<title>build/include/dialects/refly/autogen.h</title>
<!-- Node1 -->
<g id="node1" class="node">
<title>Node1</title>
<g id="a_node1"><a xlink:title=" ">
<polygon fill="#999999" stroke="#666666" points="458.5,-657 338.5,-657 338.5,-627 458.5,-627 458.5,-657"/>
<text text-anchor="start" x="346.5" y="-645" font-family="Helvetica,sans-Serif" font-size="10.00">build/include/dialects</text>
<text text-anchor="middle" x="398.5" y="-634" font-family="Helvetica,sans-Serif" font-size="10.00">/refly/autogen.h</text>
</a>
</g>
</g>
<!-- Node2 -->
<g id="node2" class="node">
<title>Node2</title>
<g id="a_node2"><a xlink:href="axiom_8h.html" target="_top" xlink:title=" ">
<polygon fill="white" stroke="#666666" points="297.5,-310.5 209.5,-310.5 209.5,-291.5 297.5,-291.5 297.5,-310.5"/>
<text text-anchor="middle" x="253.5" y="-298.5" font-family="Helvetica,sans-Serif" font-size="10.00">thorin/axiom.h</text>
</a>
</g>
</g>
<!-- Node1&#45;&gt;Node2 -->
<g id="edge1" class="edge">
<title>Node1&#45;&gt;Node2</title>
<path fill="none" stroke="#63b8ff" d="M338.36,-640.83C259.34,-637.07 130.5,-617.19 130.5,-527.5 130.5,-527.5 130.5,-527.5 130.5,-415.5 130.5,-365.75 185.51,-331.78 221.95,-314.74"/>
<polygon fill="#63b8ff" stroke="#63b8ff" points="223.54,-317.86 231.23,-310.57 220.67,-311.48 223.54,-317.86"/>
</g>
<!-- Node39 -->
<g id="node29" class="node">
<title>Node39</title>
<g id="a_node29"><a xlink:href="dialects_8h.html" target="_top" xlink:title=" ">
<polygon fill="white" stroke="#666666" points="696,-591 601,-591 601,-572 696,-572 696,-591"/>
<text text-anchor="middle" x="648.5" y="-579" font-family="Helvetica,sans-Serif" font-size="10.00">thorin/dialects.h</text>
</a>
</g>
</g>
<!-- Node1&#45;&gt;Node39 -->
<g id="edge39" class="edge">
<title>Node1&#45;&gt;Node39</title>
<path fill="none" stroke="#63b8ff" d="M458.38,-626.99C502.46,-616.67 561.53,-602.85 602.06,-593.37"/>
<polygon fill="#63b8ff" stroke="#63b8ff" points="603.01,-596.74 611.95,-591.05 601.41,-589.92 603.01,-596.74"/>
</g>
<!-- Node3 -->
<g id="node3" class="node">
<title>Node3</title>
<g id="a_node3"><a xlink:href="lam_8h.html" target="_top" xlink:title=" ">
<polygon fill="white" stroke="#666666" points="310.5,-250 234.5,-250 234.5,-231 310.5,-231 310.5,-250"/>
<text text-anchor="middle" x="272.5" y="-238" font-family="Helvetica,sans-Serif" font-size="10.00">thorin/lam.h</text>
</a>
</g>
</g>
<!-- Node2&#45;&gt;Node3 -->
<g id="edge2" class="edge">
<title>Node2&#45;&gt;Node3</title>
<path fill="none" stroke="#63b8ff" d="M256.3,-291.37C259,-283.07 263.15,-270.28 266.58,-259.72"/>
<polygon fill="#63b8ff" stroke="#63b8ff" points="269.92,-260.76 269.68,-250.17 263.27,-258.6 269.92,-260.76"/>
</g>
<!-- Node38 -->
<g id="node28" class="node">
<title>Node38</title>
<g id="a_node28"><a xlink:href="assert_8h.html" target="_top" xlink:title=" ">
<polygon fill="white" stroke="#666666" points="529.5,-79.5 423.5,-79.5 423.5,-60.5 529.5,-60.5 529.5,-79.5"/>
<text text-anchor="middle" x="476.5" y="-67.5" font-family="Helvetica,sans-Serif" font-size="10.00">thorin/util/assert.h</text>
</a>
</g>
</g>
<!-- Node2&#45;&gt;Node38 -->
<g id="edge38" class="edge">
<title>Node2&#45;&gt;Node38</title>
<path fill="none" stroke="#63b8ff" d="M246.85,-291.39C239.95,-281.87 229.62,-265.79 225.5,-250 216.17,-214.23 237.73,-202.51 263.5,-176 292.31,-146.36 302.03,-140.46 338.5,-121 369.54,-104.44 407.23,-91.2 435.37,-82.52"/>
<polygon fill="#63b8ff" stroke="#63b8ff" points="436.72,-85.76 445.28,-79.52 434.7,-79.06 436.72,-85.76"/>
</g>
<!-- Node4 -->
<g id="node4" class="node">
<title>Node4</title>
<g id="a_node4"><a xlink:title=" ">
<polygon fill="#e0e0e0" stroke="#999999" points="324,-195 273,-195 273,-176 324,-176 324,-195"/>
<text text-anchor="middle" x="298.5" y="-183" font-family="Helvetica,sans-Serif" font-size="10.00">variant</text>
</a>
</g>
</g>
<!-- Node3&#45;&gt;Node4 -->
<g id="edge3" class="edge">
<title>Node3&#45;&gt;Node4</title>
<path fill="none" stroke="#63b8ff" d="M276.79,-230.75C280.31,-223.57 285.41,-213.18 289.78,-204.27"/>
<polygon fill="#63b8ff" stroke="#63b8ff" points="293.02,-205.61 294.29,-195.09 286.74,-202.53 293.02,-205.61"/>
</g>
<!-- Node5 -->
<g id="node5" class="node">
<title>Node5</title>
<g id="a_node5"><a xlink:href="def_8h.html" target="_top" xlink:title=" ">
<polygon fill="white" stroke="#666666" points="481.5,-195 409.5,-195 409.5,-176 481.5,-176 481.5,-195"/>
<text text-anchor="middle" x="445.5" y="-183" font-family="Helvetica,sans-Serif" font-size="10.00">thorin/def.h</text>
</a>
</g>
</g>
<!-- Node3&#45;&gt;Node5 -->
<g id="edge4" class="edge">
<title>Node3&#45;&gt;Node5</title>
<path fill="none" stroke="#63b8ff" d="M300.3,-230.98C329.47,-222.05 375.5,-207.94 407.9,-198.02"/>
<polygon fill="#63b8ff" stroke="#63b8ff" points="408.95,-201.36 417.49,-195.08 406.9,-194.66 408.95,-201.36"/>
</g>
<!-- Node6 -->
<g id="node6" class="node">
<title>Node6</title>
<g id="a_node6"><a xlink:title=" ">
<polygon fill="#e0e0e0" stroke="#999999" points="455.5,-140 399.5,-140 399.5,-121 455.5,-121 455.5,-140"/>
<text text-anchor="middle" x="427.5" y="-128" font-family="Helvetica,sans-Serif" font-size="10.00">optional</text>
</a>
</g>
</g>
<!-- Node5&#45;&gt;Node6 -->
<g id="edge5" class="edge">
<title>Node5&#45;&gt;Node6</title>
<path fill="none" stroke="#63b8ff" d="M442.53,-175.75C440.14,-168.72 436.71,-158.62 433.73,-149.84"/>
<polygon fill="#63b8ff" stroke="#63b8ff" points="436.95,-148.43 430.42,-140.09 430.32,-150.68 436.95,-148.43"/>
</g>
<!-- Node7 -->
<g id="node7" class="node">
<title>Node7</title>
<g id="a_node7"><a xlink:title=" ">
<polygon fill="#e0e0e0" stroke="#999999" points="1441,-79.5 1394,-79.5 1394,-60.5 1441,-60.5 1441,-79.5"/>
<text text-anchor="middle" x="1417.5" y="-67.5" font-family="Helvetica,sans-Serif" font-size="10.00">vector</text>
</a>
</g>
</g>
<!-- Node5&#45;&gt;Node7 -->
<g id="edge6" class="edge">
<title>Node5&#45;&gt;Node7</title>
<path fill="none" stroke="#63b8ff" d="M481.79,-177.26C484.73,-176.79 487.66,-176.36 490.5,-176 731.32,-145.42 794.25,-166.92 1035.5,-140 1113.53,-131.29 1309.02,-106.6 1384.5,-85 1386.38,-84.46 1388.31,-83.84 1390.22,-83.17"/>
<polygon fill="#63b8ff" stroke="#63b8ff" points="1391.58,-86.4 1399.63,-79.52 1389.04,-79.88 1391.58,-86.4"/>
</g>
<!-- Node8 -->
<g id="node8" class="node">
<title>Node8</title>
<g id="a_node8"><a xlink:href="debug_8h.html" target="_top" xlink:title=" ">
<polygon fill="white" stroke="#666666" points="561,-140 474,-140 474,-121 561,-121 561,-140"/>
<text text-anchor="middle" x="517.5" y="-128" font-family="Helvetica,sans-Serif" font-size="10.00">thorin/debug.h</text>
</a>
</g>
</g>
<!-- Node5&#45;&gt;Node8 -->
<g id="edge7" class="edge">
<title>Node5&#45;&gt;Node8</title>
<path fill="none" stroke="#63b8ff" d="M457.07,-175.98C467.92,-168 484.38,-155.88 497.38,-146.31"/>
<polygon fill="#63b8ff" stroke="#63b8ff" points="499.74,-148.92 505.72,-140.17 495.59,-143.28 499.74,-148.92"/>
</g>
<!-- Node12 -->
<g id="node12" class="node">
<title>Node12</title>
<g id="a_node12"><a xlink:href="array_8h.html" target="_top" xlink:title=" ">
<polygon fill="white" stroke="#666666" points="1026.5,-140 926.5,-140 926.5,-121 1026.5,-121 1026.5,-140"/>
<text text-anchor="middle" x="976.5" y="-128" font-family="Helvetica,sans-Serif" font-size="10.00">thorin/util/array.h</text>
</a>
</g>
</g>
<!-- Node5&#45;&gt;Node12 -->
<g id="edge11" class="edge">
<title>Node5&#45;&gt;Node12</title>
<path fill="none" stroke="#63b8ff" d="M481.8,-177.33C484.74,-176.84 487.66,-176.39 490.5,-176 668.18,-151.32 713.93,-157.03 892.5,-140 900.19,-139.27 908.28,-138.47 916.28,-137.68"/>
<polygon fill="#63b8ff" stroke="#63b8ff" points="916.72,-141.15 926.32,-136.67 916.02,-134.19 916.72,-141.15"/>
</g>
<!-- Node22 -->
<g id="node22" class="node">
<title>Node22</title>
<g id="a_node22"><a xlink:href="cast_8h.html" target="_top" xlink:title=" ">
<polygon fill="white" stroke="#666666" points="767.5,-140 671.5,-140 671.5,-121 767.5,-121 767.5,-140"/>
<text text-anchor="middle" x="719.5" y="-128" font-family="Helvetica,sans-Serif" font-size="10.00">thorin/util/cast.h</text>
</a>
</g>
</g>
<!-- Node5&#45;&gt;Node22 -->
<g id="edge22" class="edge">
<title>Node5&#45;&gt;Node22</title>
<path fill="none" stroke="#63b8ff" d="M481.6,-177.52C528.53,-168.44 610.89,-152.51 665.32,-141.98"/>
<polygon fill="#63b8ff" stroke="#63b8ff" points="665.99,-145.42 675.14,-140.08 664.66,-138.54 665.99,-145.42"/>
</g>
<!-- Node23 -->
<g id="node23" class="node">
<title>Node23</title>
<g id="a_node23"><a xlink:href="container_8h.html" target="_top" xlink:title=" ">
<polygon fill="#fff0f0" stroke="red" points="280,-140 159,-140 159,-121 280,-121 280,-140"/>
<text text-anchor="middle" x="219.5" y="-128" font-family="Helvetica,sans-Serif" font-size="10.00">thorin/util/container.h</text>
</a>
</g>
</g>
<!-- Node5&#45;&gt;Node23 -->
<g id="edge25" class="edge">
<title>Node5&#45;&gt;Node23</title>
<path fill="none" stroke="#63b8ff" d="M409.44,-176.04C370.44,-166.9 308.17,-152.29 265.63,-142.32"/>
<polygon fill="#63b8ff" stroke="#63b8ff" points="266.34,-138.89 255.81,-140.01 264.74,-145.71 266.34,-138.89"/>
</g>
<!-- Node28 -->
<g id="node25" class="node">
<title>Node28</title>
<g id="a_node25"><a xlink:href="hash_8h.html" target="_top" xlink:title=" ">
<polygon fill="#fff0f0" stroke="red" points="99,-79.5 0,-79.5 0,-60.5 99,-60.5 99,-79.5"/>
<text text-anchor="middle" x="49.5" y="-67.5" font-family="Helvetica,sans-Serif" font-size="10.00">thorin/util/hash.h</text>
</a>
</g>
</g>
<!-- Node5&#45;&gt;Node28 -->
<g id="edge30" class="edge">
<title>Node5&#45;&gt;Node28</title>
<path fill="none" stroke="#63b8ff" d="M409.28,-181.12C341.07,-174.41 196.19,-158.47 149.5,-140 117.35,-127.29 85.38,-102.57 66.53,-86.43"/>
<polygon fill="#63b8ff" stroke="#63b8ff" points="68.67,-83.65 58.85,-79.69 64.06,-88.92 68.67,-83.65"/>
</g>
<!-- Node35 -->
<g id="node26" class="node">
<title>Node35</title>
<g id="a_node26"><a xlink:href="print_8h.html" target="_top" xlink:title=" ">
<polygon fill="#fff0f0" stroke="red" points="883.5,-140 785.5,-140 785.5,-121 883.5,-121 883.5,-140"/>
<text text-anchor="middle" x="834.5" y="-128" font-family="Helvetica,sans-Serif" font-size="10.00">thorin/util/print.h</text>
</a>
</g>
</g>
<!-- Node5&#45;&gt;Node35 -->
<g id="edge31" class="edge">
<title>Node5&#45;&gt;Node35</title>
<path fill="none" stroke="#63b8ff" d="M481.82,-177.44C484.75,-176.93 487.67,-176.44 490.5,-176 613.85,-156.61 647.85,-157.24 775.31,-140.13"/>
<polygon fill="#63b8ff" stroke="#63b8ff" points="776.02,-143.57 785.46,-138.76 775.08,-136.63 776.02,-143.57"/>
</g>
<!-- Node9 -->
<g id="node9" class="node">
<title>Node9</title>
<g id="a_node9"><a xlink:title=" ">
<polygon fill="#e0e0e0" stroke="#999999" points="591.5,-79.5 547.5,-79.5 547.5,-60.5 591.5,-60.5 591.5,-79.5"/>
<text text-anchor="middle" x="569.5" y="-67.5" font-family="Helvetica,sans-Serif" font-size="10.00">string</text>
</a>
</g>
</g>
<!-- Node8&#45;&gt;Node9 -->
<g id="edge8" class="edge">
<title>Node8&#45;&gt;Node9</title>
<path fill="none" stroke="#63b8ff" d="M525.17,-120.87C533.01,-112.05 545.36,-98.16 555.04,-87.27"/>
<polygon fill="#63b8ff" stroke="#63b8ff" points="557.77,-89.47 561.8,-79.67 552.54,-84.82 557.77,-89.47"/>
</g>
<!-- Node10 -->
<g id="node10" class="node">
<title>Node10</title>
<g id="a_node10"><a xlink:title=" ">
<polygon fill="#e0e0e0" stroke="#999999" points="221.5,-85 117.5,-85 117.5,-55 221.5,-55 221.5,-85"/>
<text text-anchor="start" x="125.5" y="-73" font-family="Helvetica,sans-Serif" font-size="10.00">absl/container/flat</text>
<text text-anchor="middle" x="169.5" y="-62" font-family="Helvetica,sans-Serif" font-size="10.00">_hash_map.h</text>
</a>
</g>
</g>
<!-- Node8&#45;&gt;Node10 -->
<g id="edge9" class="edge">
<title>Node8&#45;&gt;Node10</title>
<path fill="none" stroke="#63b8ff" d="M473.83,-122.47C470.67,-121.97 467.54,-121.48 464.5,-121 363.7,-105.16 335.53,-104.79 231.65,-85.14"/>
<polygon fill="#63b8ff" stroke="#63b8ff" points="232.17,-81.68 221.69,-83.24 230.86,-88.55 232.17,-81.68"/>
</g>
<!-- Node11 -->
<g id="node11" class="node">
<title>Node11</title>
<g id="a_node11"><a xlink:title=" ">
<polygon fill="#e0e0e0" stroke="#999999" points="343.5,-85 239.5,-85 239.5,-55 343.5,-55 343.5,-85"/>
<text text-anchor="start" x="247.5" y="-73" font-family="Helvetica,sans-Serif" font-size="10.00">absl/container/flat</text>
<text text-anchor="middle" x="291.5" y="-62" font-family="Helvetica,sans-Serif" font-size="10.00">_hash_set.h</text>
</a>
</g>
</g>
<!-- Node8&#45;&gt;Node11 -->
<g id="edge10" class="edge">
<title>Node8&#45;&gt;Node11</title>
<path fill="none" stroke="#63b8ff" d="M484.64,-120.99C450.41,-112.13 395.97,-98.04 353.6,-87.08"/>
<polygon fill="#63b8ff" stroke="#63b8ff" points="354.22,-83.62 343.66,-84.5 352.47,-90.4 354.22,-83.62"/>
</g>
<!-- Node12&#45;&gt;Node7 -->
<g id="edge21" class="edge">
<title>Node12&#45;&gt;Node7</title>
<path fill="none" stroke="#63b8ff" d="M1026.58,-123.33C1033.28,-122.53 1040.05,-121.73 1046.5,-121 1196.6,-103.89 1238.26,-122.91 1384.5,-85 1386.44,-84.5 1388.42,-83.9 1390.39,-83.24"/>
<polygon fill="#63b8ff" stroke="#63b8ff" points="1391.94,-86.39 1400.02,-79.54 1389.43,-79.85 1391.94,-86.39"/>
</g>
<!-- Node13 -->
<g id="node13" class="node">
<title>Node13</title>
<g id="a_node13"><a xlink:title=" ">
<polygon fill="#e0e0e0" stroke="#999999" points="645.5,-19 593.5,-19 593.5,0 645.5,0 645.5,-19"/>
<text text-anchor="middle" x="619.5" y="-7" font-family="Helvetica,sans-Serif" font-size="10.00">cassert</text>
</a>
</g>
</g>
<!-- Node12&#45;&gt;Node13 -->
<g id="edge12" class="edge">
<title>Node12&#45;&gt;Node13</title>
<path fill="none" stroke="#63b8ff" d="M987.36,-120.88C1004.7,-106.11 1034.9,-75.57 1016.5,-55 992.66,-28.34 749.43,-15.75 655.88,-11.87"/>
<polygon fill="#63b8ff" stroke="#63b8ff" points="655.89,-8.36 645.76,-11.46 655.61,-15.36 655.89,-8.36"/>
</g>
<!-- Node14 -->
<g id="node14" class="node">
<title>Node14</title>
<g id="a_node14"><a xlink:title=" ">
<polygon fill="#e0e0e0" stroke="#999999" points="1117,-79.5 1064,-79.5 1064,-60.5 1117,-60.5 1117,-79.5"/>
<text text-anchor="middle" x="1090.5" y="-67.5" font-family="Helvetica,sans-Serif" font-size="10.00">cstddef</text>
</a>
</g>
</g>
<!-- Node12&#45;&gt;Node14 -->
<g id="edge13" class="edge">
<title>Node12&#45;&gt;Node14</title>
<path fill="none" stroke="#63b8ff" d="M993.32,-120.87C1012.1,-111.23 1042.7,-95.53 1064.55,-84.31"/>
<polygon fill="#63b8ff" stroke="#63b8ff" points="1066.31,-87.35 1073.61,-79.67 1063.11,-81.12 1066.31,-87.35"/>
</g>
<!-- Node15 -->
<g id="node15" class="node">
<title>Node15</title>
<g id="a_node15"><a xlink:title=" ">
<polygon fill="#e0e0e0" stroke="#999999" points="697.5,-79.5 647.5,-79.5 647.5,-60.5 697.5,-60.5 697.5,-79.5"/>
<text text-anchor="middle" x="672.5" y="-67.5" font-family="Helvetica,sans-Serif" font-size="10.00">cstring</text>
</a>
</g>
</g>
<!-- Node12&#45;&gt;Node15 -->
<g id="edge14" class="edge">
<title>Node12&#45;&gt;Node15</title>
<path fill="none" stroke="#63b8ff" d="M926.49,-124.7C871.72,-118.65 781.67,-106.37 706.5,-85 704.61,-84.46 702.69,-83.85 700.76,-83.2"/>
<polygon fill="#63b8ff" stroke="#63b8ff" points="701.88,-79.88 691.29,-79.63 699.41,-86.43 701.88,-79.88"/>
</g>
<!-- Node16 -->
<g id="node16" class="node">
<title>Node16</title>
<g id="a_node16"><a xlink:title=" ">
<polygon fill="#e0e0e0" stroke="#999999" points="1199.5,-79.5 1135.5,-79.5 1135.5,-60.5 1199.5,-60.5 1199.5,-79.5"/>
<text text-anchor="middle" x="1167.5" y="-67.5" font-family="Helvetica,sans-Serif" font-size="10.00">algorithm</text>
</a>
</g>
</g>
<!-- Node12&#45;&gt;Node16 -->
<g id="edge15" class="edge">
<title>Node12&#45;&gt;Node16</title>
<path fill="none" stroke="#63b8ff" d="M1006.49,-120.99C1036.85,-112.29 1085.09,-98.21 1126.5,-85 1128.65,-84.31 1130.87,-83.59 1133.1,-82.86"/>
<polygon fill="#63b8ff" stroke="#63b8ff" points="1134.46,-86.09 1142.84,-79.6 1132.24,-79.46 1134.46,-86.09"/>
</g>
<!-- Node17 -->
<g id="node17" class="node">
<title>Node17</title>
<g id="a_node17"><a xlink:title=" ">
<polygon fill="#e0e0e0" stroke="#999999" points="920,-79.5 855,-79.5 855,-60.5 920,-60.5 920,-79.5"/>
<text text-anchor="middle" x="887.5" y="-67.5" font-family="Helvetica,sans-Serif" font-size="10.00">functional</text>
</a>
</g>
</g>
<!-- Node12&#45;&gt;Node17 -->
<g id="edge16" class="edge">
<title>Node12&#45;&gt;Node17</title>
<path fill="none" stroke="#63b8ff" d="M963.37,-120.87C949.17,-111.54 926.3,-96.51 909.38,-85.38"/>
<polygon fill="#63b8ff" stroke="#63b8ff" points="910.97,-82.24 900.69,-79.67 907.12,-88.08 910.97,-82.24"/>
</g>
<!-- Node18 -->
<g id="node18" class="node">
<title>Node18</title>
<g id="a_node18"><a xlink:title=" ">
<polygon fill="#e0e0e0" stroke="#999999" points="1301,-79.5 1218,-79.5 1218,-60.5 1301,-60.5 1301,-79.5"/>
<text text-anchor="middle" x="1259.5" y="-67.5" font-family="Helvetica,sans-Serif" font-size="10.00">initializer_list</text>
</a>
</g>
</g>
<!-- Node12&#45;&gt;Node18 -->
<g id="edge17" class="edge">
<title>Node12&#45;&gt;Node18</title>
<path fill="none" stroke="#63b8ff" d="M1026.52,-121.07C1073.67,-112.86 1146.19,-99.51 1208.5,-85 1212.31,-84.11 1216.27,-83.13 1220.22,-82.11"/>
<polygon fill="#63b8ff" stroke="#63b8ff" points="1221.17,-85.48 1229.94,-79.54 1219.37,-78.72 1221.17,-85.48"/>
</g>
<!-- Node19 -->
<g id="node19" class="node">
<title>Node19</title>
<g id="a_node19"><a xlink:title=" ">
<polygon fill="#e0e0e0" stroke="#999999" points="837,-79.5 784,-79.5 784,-60.5 837,-60.5 837,-79.5"/>
<text text-anchor="middle" x="810.5" y="-67.5" font-family="Helvetica,sans-Serif" font-size="10.00">iterator</text>
</a>
</g>
</g>
<!-- Node12&#45;&gt;Node19 -->
<g id="edge18" class="edge">
<title>Node12&#45;&gt;Node19</title>
<path fill="none" stroke="#63b8ff" d="M950.49,-120.95C924.17,-112.21 882.35,-98.1 846.5,-85 844.9,-84.41 843.26,-83.81 841.61,-83.19"/>
<polygon fill="#63b8ff" stroke="#63b8ff" points="842.74,-79.87 832.15,-79.58 840.25,-86.42 842.74,-79.87"/>
</g>
<!-- Node20 -->
<g id="node20" class="node">
<title>Node20</title>
<g id="a_node20"><a xlink:title=" ">
<polygon fill="#e0e0e0" stroke="#999999" points="765.5,-79.5 715.5,-79.5 715.5,-60.5 765.5,-60.5 765.5,-79.5"/>
<text text-anchor="middle" x="740.5" y="-67.5" font-family="Helvetica,sans-Serif" font-size="10.00">ranges</text>
</a>
</g>
</g>
<!-- Node12&#45;&gt;Node20 -->
<g id="edge19" class="edge">
<title>Node12&#45;&gt;Node20</title>
<path fill="none" stroke="#63b8ff" d="M926.48,-120.99C885.21,-113.37 825.39,-100.95 774.5,-85 772.82,-84.47 771.12,-83.9 769.4,-83.3"/>
<polygon fill="#63b8ff" stroke="#63b8ff" points="770.29,-79.89 759.7,-79.59 767.8,-86.43 770.29,-79.89"/>
</g>
<!-- Node21 -->
<g id="node21" class="node">
<title>Node21</title>
<g id="a_node21"><a xlink:title=" ">
<polygon fill="#e0e0e0" stroke="#999999" points="1007,-79.5 938,-79.5 938,-60.5 1007,-60.5 1007,-79.5"/>
<text text-anchor="middle" x="972.5" y="-67.5" font-family="Helvetica,sans-Serif" font-size="10.00">type_traits</text>
</a>
</g>
</g>
<!-- Node12&#45;&gt;Node21 -->
<g id="edge20" class="edge">
<title>Node12&#45;&gt;Node21</title>
<path fill="none" stroke="#63b8ff" d="M975.91,-120.87C975.35,-112.75 974.5,-100.31 973.79,-89.89"/>
<polygon fill="#63b8ff" stroke="#63b8ff" points="977.27,-89.41 973.09,-79.67 970.28,-89.88 977.27,-89.41"/>
</g>
<!-- Node22&#45;&gt;Node13 -->
<g id="edge23" class="edge">
<title>Node22&#45;&gt;Node13</title>
<path fill="none" stroke="#63b8ff" d="M691.99,-120.86C674.21,-113.9 651.96,-102.38 638.5,-85 626.13,-69.04 621.75,-45.92 620.23,-29.69"/>
<polygon fill="#63b8ff" stroke="#63b8ff" points="623.69,-29.03 619.56,-19.28 616.71,-29.48 623.69,-29.03"/>
</g>
<!-- Node22&#45;&gt;Node15 -->
<g id="edge24" class="edge">
<title>Node22&#45;&gt;Node15</title>
<path fill="none" stroke="#63b8ff" d="M712.56,-120.87C705.55,-112.14 694.54,-98.43 685.83,-87.59"/>
<polygon fill="#63b8ff" stroke="#63b8ff" points="688.46,-85.27 679.46,-79.67 683,-89.66 688.46,-85.27"/>
</g>
<!-- Node23&#45;&gt;Node10 -->
<g id="edge27" class="edge">
<title>Node23&#45;&gt;Node10</title>
<path fill="none" stroke="#63b8ff" d="M212.12,-120.87C205.84,-113.52 196.54,-102.63 188.23,-92.91"/>
<polygon fill="#63b8ff" stroke="#63b8ff" points="190.72,-90.44 181.56,-85.11 185.4,-94.99 190.72,-90.44"/>
</g>
<!-- Node23&#45;&gt;Node11 -->
<g id="edge28" class="edge">
<title>Node23&#45;&gt;Node11</title>
<path fill="none" stroke="#63b8ff" d="M230.12,-120.87C239.62,-113.15 253.92,-101.54 266.32,-91.46"/>
<polygon fill="#63b8ff" stroke="#63b8ff" points="268.57,-94.14 274.13,-85.11 264.16,-88.7 268.57,-94.14"/>
</g>
<!-- Node25 -->
<g id="node24" class="node">
<title>Node25</title>
<g id="a_node24"><a xlink:title=" ">
<polygon fill="#e0e0e0" stroke="#999999" points="405,-79.5 362,-79.5 362,-60.5 405,-60.5 405,-79.5"/>
<text text-anchor="middle" x="383.5" y="-67.5" font-family="Helvetica,sans-Serif" font-size="10.00">stack</text>
</a>
</g>
</g>
<!-- Node23&#45;&gt;Node25 -->
<g id="edge26" class="edge">
<title>Node23&#45;&gt;Node25</title>
<path fill="none" stroke="#63b8ff" d="M247.82,-120.94C274.95,-112.53 316.91,-98.95 352.5,-85 353.68,-84.54 354.87,-84.06 356.07,-83.56"/>
<polygon fill="#63b8ff" stroke="#63b8ff" points="357.47,-86.77 365.27,-79.6 354.7,-80.34 357.47,-86.77"/>
</g>
<!-- Node23&#45;&gt;Node28 -->
<g id="edge29" class="edge">
<title>Node23&#45;&gt;Node28</title>
<path fill="none" stroke="#63b8ff" d="M194.78,-120.99C165.57,-110.94 116.8,-94.16 83.91,-82.84"/>
<polygon fill="#63b8ff" stroke="#63b8ff" points="84.84,-79.46 74.25,-79.52 82.57,-86.08 84.84,-79.46"/>
</g>
<!-- Node35&#45;&gt;Node9 -->
<g id="edge35" class="edge">
<title>Node35&#45;&gt;Node9</title>
<path fill="none" stroke="#63b8ff" d="M795.97,-120.99C743.54,-109.42 650.68,-88.92 601.75,-78.12"/>
<polygon fill="#63b8ff" stroke="#63b8ff" points="602.24,-74.64 591.72,-75.9 600.73,-81.48 602.24,-74.64"/>
</g>
<!-- Node35&#45;&gt;Node17 -->
<g id="edge32" class="edge">
<title>Node35&#45;&gt;Node17</title>
<path fill="none" stroke="#63b8ff" d="M842.32,-120.87C850.31,-112.05 862.89,-98.16 872.76,-87.27"/>
<polygon fill="#63b8ff" stroke="#63b8ff" points="875.53,-89.43 879.65,-79.67 870.34,-84.73 875.53,-89.43"/>
</g>
<!-- Node35&#45;&gt;Node20 -->
<g id="edge33" class="edge">
<title>Node35&#45;&gt;Node20</title>
<path fill="none" stroke="#63b8ff" d="M820.63,-120.87C805.5,-111.45 781.04,-96.23 763.12,-85.08"/>
<polygon fill="#63b8ff" stroke="#63b8ff" points="764.77,-81.98 754.43,-79.67 761.07,-87.92 764.77,-81.98"/>
</g>
<!-- Node37 -->
<g id="node27" class="node">
<title>Node37</title>
<g id="a_node27"><a xlink:title=" ">
<polygon fill="#e0e0e0" stroke="#999999" points="1375.5,-79.5 1319.5,-79.5 1319.5,-60.5 1375.5,-60.5 1375.5,-79.5"/>
<text text-anchor="middle" x="1347.5" y="-67.5" font-family="Helvetica,sans-Serif" font-size="10.00">sstream</text>
</a>
</g>
</g>
<!-- Node35&#45;&gt;Node37 -->
<g id="edge34" class="edge">
<title>Node35&#45;&gt;Node37</title>
<path fill="none" stroke="#63b8ff" d="M883.65,-124.38C894.78,-123.24 906.54,-122.06 917.5,-121 1092.08,-104.07 1139.58,-124.4 1310.5,-85 1313.02,-84.42 1315.6,-83.71 1318.16,-82.91"/>
<polygon fill="#63b8ff" stroke="#63b8ff" points="1319.53,-86.14 1327.84,-79.57 1317.24,-79.53 1319.53,-86.14"/>
</g>
<!-- Node35&#45;&gt;Node38 -->
<g id="edge36" class="edge">
<title>Node35&#45;&gt;Node38</title>
<path fill="none" stroke="#63b8ff" d="M785.48,-122.23C704.51,-110.2 550.5,-87.25 538.5,-85 533.15,-83.99 527.55,-82.86 522.01,-81.67"/>
<polygon fill="#63b8ff" stroke="#63b8ff" points="522.66,-78.23 512.14,-79.52 521.16,-85.07 522.66,-78.23"/>
</g>
<!-- Node38&#45;&gt;Node13 -->
<g id="edge37" class="edge">
<title>Node38&#45;&gt;Node13</title>
<path fill="none" stroke="#63b8ff" d="M497.29,-60.49C521.44,-50.62 561.48,-34.23 589.12,-22.93"/>
<polygon fill="#63b8ff" stroke="#63b8ff" points="590.75,-26.04 598.68,-19.02 588.1,-19.56 590.75,-26.04"/>
</g>
<!-- Node39&#45;&gt;Node7 -->
<g id="edge43" class="edge">
<title>Node39&#45;&gt;Node7</title>
<path fill="none" stroke="#63b8ff" d="M696.19,-578.83C863.76,-572.36 1415.5,-545.49 1415.5,-472.5 1415.5,-472.5 1415.5,-472.5 1415.5,-184.5 1415.5,-151.1 1416.38,-112.19 1416.97,-89.69"/>
<polygon fill="#63b8ff" stroke="#63b8ff" points="1420.47,-89.63 1417.25,-79.54 1413.47,-89.44 1420.47,-89.63"/>
</g>
<!-- Node39&#45;&gt;Node9 -->
<g id="edge42" class="edge">
<title>Node39&#45;&gt;Node9</title>
<path fill="none" stroke="#63b8ff" d="M600.74,-573.99C513.78,-560.78 338.5,-527.35 338.5,-472.5 338.5,-472.5 338.5,-472.5 338.5,-300 338.5,-217.16 330.64,-178.27 390.5,-121 439.41,-74.2 474.49,-107.03 538.5,-85 539.9,-84.52 541.31,-84 542.74,-83.45"/>
<polygon fill="#63b8ff" stroke="#63b8ff" points="544.15,-86.66 552.02,-79.57 541.45,-80.2 544.15,-86.66"/>
</g>
<!-- Node39&#45;&gt;Node10 -->
<g id="edge86" class="edge">
<title>Node39&#45;&gt;Node10</title>
<path fill="none" stroke="#63b8ff" d="M600.95,-578.07C546.08,-574.05 453.88,-563.47 379.5,-536 239.68,-484.35 92.5,-511.55 92.5,-362.5 92.5,-362.5 92.5,-362.5 92.5,-184.5 92.5,-147.01 121.62,-112.71 144.05,-91.85"/>
<polygon fill="#63b8ff" stroke="#63b8ff" points="146.53,-94.33 151.64,-85.05 141.86,-89.11 146.53,-94.33"/>
</g>
<!-- Node40 -->
<g id="node30" class="node">
<title>Node40</title>
<g id="a_node30"><a xlink:title=" ">
<polygon fill="#e0e0e0" stroke="#999999" points="601.5,-536 533.5,-536 533.5,-517 601.5,-517 601.5,-536"/>
<text text-anchor="middle" x="567.5" y="-524" font-family="Helvetica,sans-Serif" font-size="10.00">filesystem</text>
</a>
</g>
</g>
<!-- Node39&#45;&gt;Node40 -->
<g id="edge40" class="edge">
<title>Node39&#45;&gt;Node40</title>
<path fill="none" stroke="#63b8ff" d="M635.49,-571.98C623.04,-563.84 604.04,-551.41 589.29,-541.76"/>
<polygon fill="#63b8ff" stroke="#63b8ff" points="591.04,-538.72 580.75,-536.17 587.2,-544.57 591.04,-538.72"/>
</g>
<!-- Node41 -->
<g id="node31" class="node">
<title>Node41</title>
<g id="a_node31"><a xlink:title=" ">
<polygon fill="#e0e0e0" stroke="#999999" points="677.5,-536 619.5,-536 619.5,-517 677.5,-517 677.5,-536"/>
<text text-anchor="middle" x="648.5" y="-524" font-family="Helvetica,sans-Serif" font-size="10.00">memory</text>
</a>
</g>
</g>
<!-- Node39&#45;&gt;Node41 -->
<g id="edge41" class="edge">
<title>Node39&#45;&gt;Node41</title>
<path fill="none" stroke="#63b8ff" d="M648.5,-571.75C648.5,-564.8 648.5,-554.85 648.5,-546.13"/>
<polygon fill="#63b8ff" stroke="#63b8ff" points="652,-546.09 648.5,-536.09 645,-546.09 652,-546.09"/>
</g>
<!-- Node42 -->
<g id="node32" class="node">
<title>Node42</title>
<g id="a_node32"><a xlink:href="emitter_8h.html" target="_top" xlink:title=" ">
<polygon fill="white" stroke="#666666" points="803,-536 696,-536 696,-517 803,-517 803,-536"/>
<text text-anchor="middle" x="749.5" y="-524" font-family="Helvetica,sans-Serif" font-size="10.00">thorin/be/emitter.h</text>
</a>
</g>
</g>
<!-- Node39&#45;&gt;Node42 -->
<g id="edge44" class="edge">
<title>Node39&#45;&gt;Node42</title>
<path fill="none" stroke="#63b8ff" d="M664.73,-571.98C680.68,-563.61 705.28,-550.7 723.88,-540.95"/>
<polygon fill="#63b8ff" stroke="#63b8ff" points="725.75,-543.92 732.98,-536.17 722.5,-537.72 725.75,-543.92"/>
</g>
<!-- Node61 -->
<g id="node47" class="node">
<title>Node61</title>
<g id="a_node47"><a xlink:href="pass_8h.html" target="_top" xlink:title=" ">
<polygon fill="white" stroke="#666666" points="1131,-426 1026,-426 1026,-407 1131,-407 1131,-426"/>
<text text-anchor="middle" x="1078.5" y="-414" font-family="Helvetica,sans-Serif" font-size="10.00">thorin/pass/pass.h</text>
</a>
</g>
</g>
<!-- Node39&#45;&gt;Node61 -->
<g id="edge80" class="edge">
<title>Node39&#45;&gt;Node61</title>
<path fill="none" stroke="#63b8ff" d="M688.03,-571.96C750.19,-557.73 873.78,-526.21 971.5,-481 1002.58,-466.62 1036.2,-445.7 1057.3,-431.85"/>
<polygon fill="#63b8ff" stroke="#63b8ff" points="1059.4,-434.66 1065.79,-426.21 1055.52,-428.83 1059.4,-434.66"/>
</g>
<!-- Node63 -->
<g id="node49" class="node">
<title>Node63</title>
<g id="a_node49"><a xlink:href="pipelinebuilder_8h.html" target="_top" xlink:title=" ">
<polygon fill="white" stroke="#666666" points="1289,-481 1134,-481 1134,-462 1289,-462 1289,-481"/>
<text text-anchor="middle" x="1211.5" y="-469" font-family="Helvetica,sans-Serif" font-size="10.00">thorin/pass/pipelinebuilder.h</text>
</a>
</g>
</g>
<!-- Node39&#45;&gt;Node63 -->
<g id="edge81" class="edge">
<title>Node39&#45;&gt;Node63</title>
<path fill="none" stroke="#63b8ff" d="M696.07,-579.61C772.98,-577.22 928.91,-568.41 1056.5,-536 1103.81,-523.98 1155.71,-500.43 1185.84,-485.63"/>
<polygon fill="#63b8ff" stroke="#63b8ff" points="1187.44,-488.75 1194.83,-481.16 1184.32,-482.48 1187.44,-488.75"/>
</g>
<!-- Node43 -->
<g id="node33" class="node">
<title>Node43</title>
<g id="a_node33"><a xlink:href="world_8h.html" target="_top" xlink:title=" ">
<polygon fill="white" stroke="#666666" points="703.5,-371 619.5,-371 619.5,-352 703.5,-352 703.5,-371"/>
<text text-anchor="middle" x="661.5" y="-359" font-family="Helvetica,sans-Serif" font-size="10.00">thorin/world.h</text>
</a>
</g>
</g>
<!-- Node42&#45;&gt;Node43 -->
<g id="edge45" class="edge">
<title>Node42&#45;&gt;Node43</title>
<path fill="none" stroke="#63b8ff" d="M748.88,-516.72C747.04,-495.99 740.18,-443.06 716.5,-407 708.52,-394.85 696.16,-384.42 685.18,-376.72"/>
<polygon fill="#63b8ff" stroke="#63b8ff" points="687.05,-373.76 676.78,-371.15 683.18,-379.59 687.05,-373.76"/>
</g>
<!-- Node54 -->
<g id="node43" class="node">
<title>Node54</title>
<g id="a_node43"><a xlink:href="schedule_8h.html" target="_top" xlink:title=" ">
<polygon fill="white" stroke="#666666" points="962,-481 815,-481 815,-462 962,-462 962,-481"/>
<text text-anchor="middle" x="888.5" y="-469" font-family="Helvetica,sans-Serif" font-size="10.00">thorin/analyses/schedule.h</text>
</a>
</g>
</g>
<!-- Node42&#45;&gt;Node54 -->
<g id="edge67" class="edge">
<title>Node42&#45;&gt;Node54</title>
<path fill="none" stroke="#63b8ff" d="M771.83,-516.98C794.7,-508.27 830.46,-494.63 856.36,-484.75"/>
<polygon fill="#63b8ff" stroke="#63b8ff" points="857.66,-488 865.76,-481.17 855.17,-481.46 857.66,-488"/>
</g>
<!-- Node59 -->
<g id="node45" class="node">
<title>Node59</title>
<g id="a_node45"><a xlink:href="phase_8h.html" target="_top" xlink:title=" ">
<polygon fill="white" stroke="#666666" points="721,-481 602,-481 602,-462 721,-462 721,-481"/>
<text text-anchor="middle" x="661.5" y="-469" font-family="Helvetica,sans-Serif" font-size="10.00">thorin/phase/phase.h</text>
</a>
</g>
</g>
<!-- Node42&#45;&gt;Node59 -->
<g id="edge72" class="edge">
<title>Node42&#45;&gt;Node59</title>
<path fill="none" stroke="#63b8ff" d="M735.36,-516.98C721.71,-508.77 700.81,-496.18 684.72,-486.49"/>
<polygon fill="#63b8ff" stroke="#63b8ff" points="686.27,-483.33 675.9,-481.17 682.66,-489.33 686.27,-483.33"/>
</g>
<!-- Node43&#45;&gt;Node2 -->
<g id="edge51" class="edge">
<title>Node43&#45;&gt;Node2</title>
<path fill="none" stroke="#63b8ff" d="M619.37,-354.46C544.81,-343.77 389.72,-321.53 307.46,-309.74"/>
<polygon fill="#63b8ff" stroke="#63b8ff" points="307.95,-306.27 297.55,-308.32 306.95,-313.2 307.95,-306.27"/>
</g>
<!-- Node43&#45;&gt;Node8 -->
<g id="edge53" class="edge">
<title>Node43&#45;&gt;Node8</title>
<path fill="none" stroke="#63b8ff" d="M619.19,-359.59C510.57,-356.81 228.37,-346.69 200.5,-316 154.63,-265.49 206.05,-212.81 263.5,-176 267.72,-173.29 390.65,-152.55 463.92,-140.36"/>
<polygon fill="#63b8ff" stroke="#63b8ff" points="464.62,-143.79 473.91,-138.7 463.47,-136.88 464.62,-143.79"/>
</g>
<!-- Node43&#45;&gt;Node9 -->
<g id="edge47" class="edge">
<title>Node43&#45;&gt;Node9</title>
<path fill="none" stroke="#63b8ff" d="M660.77,-351.85C658.82,-330.8 652.75,-275.36 639.5,-231 623.43,-177.21 593.98,-117.52 578.92,-88.61"/>
<polygon fill="#63b8ff" stroke="#63b8ff" points="582,-86.95 574.24,-79.73 575.8,-90.21 582,-86.95"/>
</g>
<!-- Node43&#45;&gt;Node28 -->
<g id="edge63" class="edge">
<title>Node43&#45;&gt;Node28</title>
<path fill="none" stroke="#63b8ff" d="M619.4,-358.8C508.99,-354.05 217.06,-339.38 180.5,-316 96.98,-262.6 63.13,-137.03 53.03,-89.59"/>
<polygon fill="#63b8ff" stroke="#63b8ff" points="56.46,-88.87 51.04,-79.76 49.59,-90.26 56.46,-88.87"/>
</g>
<!-- Node43&#45;&gt;Node37 -->
<g id="edge46" class="edge">
<title>Node43&#45;&gt;Node37</title>
<path fill="none" stroke="#63b8ff" d="M703.64,-361.01C809.09,-361.62 1081.53,-358.87 1159.5,-316 1256.47,-262.69 1319.28,-136.09 1339.98,-89.03"/>
<polygon fill="#63b8ff" stroke="#63b8ff" points="1343.22,-90.35 1343.95,-79.78 1336.79,-87.59 1343.22,-90.35"/>
</g>
<!-- Node44 -->
<g id="node34" class="node">
<title>Node44</title>
<g id="a_node34"><a xlink:title=" ">
<polygon fill="#e0e0e0" stroke="#999999" points="782,-310.5 709,-310.5 709,-291.5 782,-291.5 782,-310.5"/>
<text text-anchor="middle" x="745.5" y="-298.5" font-family="Helvetica,sans-Serif" font-size="10.00">string_view</text>
</a>
</g>
</g>
<!-- Node43&#45;&gt;Node44 -->
<g id="edge48" class="edge">
<title>Node43&#45;&gt;Node44</title>
<path fill="none" stroke="#63b8ff" d="M673.89,-351.87C687.29,-342.54 708.88,-327.51 724.85,-316.38"/>
<polygon fill="#63b8ff" stroke="#63b8ff" points="726.85,-319.25 733.05,-310.67 722.85,-313.51 726.85,-319.25"/>
</g>
<!-- Node45 -->
<g id="node35" class="node">
<title>Node45</title>
<g id="a_node35"><a xlink:title=" ">
<polygon fill="#e0e0e0" stroke="#999999" points="914.5,-316 800.5,-316 800.5,-286 914.5,-286 914.5,-316"/>
<text text-anchor="start" x="808.5" y="-304" font-family="Helvetica,sans-Serif" font-size="10.00">absl/container/btree</text>
<text text-anchor="middle" x="857.5" y="-293" font-family="Helvetica,sans-Serif" font-size="10.00">_map.h</text>
</a>
</g>
</g>
<!-- Node43&#45;&gt;Node45 -->
<g id="edge49" class="edge">
<title>Node43&#45;&gt;Node45</title>
<path fill="none" stroke="#63b8ff" d="M690,-351.99C718.82,-343.39 764.17,-329.86 800.42,-319.04"/>
<polygon fill="#63b8ff" stroke="#63b8ff" points="801.8,-322.28 810.38,-316.06 799.8,-315.57 801.8,-322.28"/>
</g>
<!-- Node46 -->
<g id="node36" class="node">
<title>Node46</title>
<g id="a_node36"><a xlink:title=" ">
<polygon fill="#e0e0e0" stroke="#999999" points="1046.5,-316 932.5,-316 932.5,-286 1046.5,-286 1046.5,-316"/>
<text text-anchor="start" x="940.5" y="-304" font-family="Helvetica,sans-Serif" font-size="10.00">absl/container/btree</text>
<text text-anchor="middle" x="989.5" y="-293" font-family="Helvetica,sans-Serif" font-size="10.00">_set.h</text>
</a>
</g>
</g>
<!-- Node43&#45;&gt;Node46 -->
<g id="edge50" class="edge">
<title>Node43&#45;&gt;Node46</title>
<path fill="none" stroke="#63b8ff" d="M703.8,-353.86C753.69,-345.91 839.39,-331.87 922.44,-316.16"/>
<polygon fill="#63b8ff" stroke="#63b8ff" points="923.12,-319.59 932.29,-314.28 921.81,-312.72 923.12,-319.59"/>
</g>
<!-- Node47 -->
<g id="node37" class="node">
<title>Node47</title>
<g id="a_node37"><a xlink:title=" ">
<polygon fill="#e0e0e0" stroke="#999999" points="1150.5,-310.5 1064.5,-310.5 1064.5,-291.5 1150.5,-291.5 1150.5,-310.5"/>
<text text-anchor="middle" x="1107.5" y="-298.5" font-family="Helvetica,sans-Serif" font-size="10.00">thorin/config.h</text>
</a>
</g>
</g>
<!-- Node43&#45;&gt;Node47 -->
<g id="edge52" class="edge">
<title>Node43&#45;&gt;Node47</title>
<path fill="none" stroke="#63b8ff" d="M703.51,-357.84C775.88,-352.8 928.53,-340.12 1055.5,-316 1059.91,-315.16 1064.49,-314.15 1069.03,-313.05"/>
<polygon fill="#63b8ff" stroke="#63b8ff" points="1069.98,-316.42 1078.8,-310.56 1068.24,-309.64 1069.98,-316.42"/>
</g>
<!-- Node48 -->
<g id="node38" class="node">
<title>Node48</title>
<g id="a_node38"><a xlink:href="error_8h.html" target="_top" xlink:title=" ">
<polygon fill="#fff0f0" stroke="red" points="824.5,-195 744.5,-195 744.5,-176 824.5,-176 824.5,-195"/>
<text text-anchor="middle" x="784.5" y="-183" font-family="Helvetica,sans-Serif" font-size="10.00">thorin/error.h</text>
</a>
</g>
</g>
<!-- Node43&#45;&gt;Node48 -->
<g id="edge54" class="edge">
<title>Node43&#45;&gt;Node48</title>
<path fill="none" stroke="#63b8ff" d="M665.1,-351.87C671.23,-337.61 684.49,-308.45 699.5,-286 720.71,-254.27 750.69,-221.33 768.79,-202.44"/>
<polygon fill="#63b8ff" stroke="#63b8ff" points="771.32,-204.86 775.76,-195.25 766.29,-199.99 771.32,-204.86"/>
</g>
<!-- Node50 -->
<g id="node39" class="node">
<title>Node50</title>
<g id="a_node39"><a xlink:href="flags_8h.html" target="_top" xlink:title=" ">
<polygon fill="white" stroke="#666666" points="538.5,-310.5 458.5,-310.5 458.5,-291.5 538.5,-291.5 538.5,-310.5"/>
<text text-anchor="middle" x="498.5" y="-298.5" font-family="Helvetica,sans-Serif" font-size="10.00">thorin/flags.h</text>
</a>
</g>
</g>
<!-- Node43&#45;&gt;Node50 -->
<g id="edge58" class="edge">
<title>Node43&#45;&gt;Node50</title>
<path fill="none" stroke="#63b8ff" d="M637.8,-351.99C609.91,-341.99 563.43,-325.3 531.9,-313.99"/>
<polygon fill="#63b8ff" stroke="#63b8ff" points="532.82,-310.6 522.23,-310.52 530.46,-317.19 532.82,-310.6"/>
</g>
<!-- Node51 -->
<g id="node40" class="node">
<title>Node51</title>
<g id="a_node40"><a xlink:href="lattice_8h.html" target="_top" xlink:title=" ">
<polygon fill="white" stroke="#666666" points="630.5,-250 542.5,-250 542.5,-231 630.5,-231 630.5,-250"/>
<text text-anchor="middle" x="586.5" y="-238" font-family="Helvetica,sans-Serif" font-size="10.00">thorin/lattice.h</text>
</a>
</g>
</g>
<!-- Node43&#45;&gt;Node51 -->
<g id="edge59" class="edge">
<title>Node43&#45;&gt;Node51</title>
<path fill="none" stroke="#63b8ff" d="M654.59,-351.87C647.67,-343.06 636.88,-328.91 628.5,-316 616.3,-297.2 603.88,-274.67 595.75,-259.35"/>
<polygon fill="#63b8ff" stroke="#63b8ff" points="598.82,-257.65 591.07,-250.43 592.62,-260.91 598.82,-257.65"/>
</g>
<!-- Node52 -->
<g id="node41" class="node">
<title>Node52</title>
<g id="a_node41"><a xlink:href="tuple_8h.html" target="_top" xlink:title=" ">
<polygon fill="white" stroke="#666666" points="486.5,-250 404.5,-250 404.5,-231 486.5,-231 486.5,-250"/>
<text text-anchor="middle" x="445.5" y="-238" font-family="Helvetica,sans-Serif" font-size="10.00">thorin/tuple.h</text>
</a>
</g>
</g>
<!-- Node43&#45;&gt;Node52 -->
<g id="edge61" class="edge">
<title>Node43&#45;&gt;Node52</title>
<path fill="none" stroke="#63b8ff" d="M649.92,-351.99C629.76,-337.4 586.61,-307.12 547.5,-286 524.71,-273.69 497.82,-262.07 477.37,-253.79"/>
<polygon fill="#63b8ff" stroke="#63b8ff" points="478.48,-250.47 467.89,-250.01 475.88,-256.97 478.48,-250.47"/>
</g>
<!-- Node53 -->
<g id="node42" class="node">
<title>Node53</title>
<g id="a_node42"><a xlink:href="log_8h.html" target="_top" xlink:title=" ">
<polygon fill="white" stroke="#666666" points="591,-195 500,-195 500,-176 591,-176 591,-195"/>
<text text-anchor="middle" x="545.5" y="-183" font-family="Helvetica,sans-Serif" font-size="10.00">thorin/util/log.h</text>
</a>
</g>
</g>
<!-- Node43&#45;&gt;Node53 -->
<g id="edge64" class="edge">
<title>Node43&#45;&gt;Node53</title>
<path fill="none" stroke="#63b8ff" d="M619.39,-357.78C563.79,-353.22 470.48,-341.84 449.5,-316 441.1,-305.65 443.66,-297.99 449.5,-286 460.87,-262.66 477.12,-268.33 495.5,-250 510.03,-235.51 524.28,-216.85 533.82,-203.52"/>
<polygon fill="#63b8ff" stroke="#63b8ff" points="536.74,-205.45 539.63,-195.25 531.02,-201.43 536.74,-205.45"/>
</g>
<!-- Node48&#45;&gt;Node8 -->
<g id="edge56" class="edge">
<title>Node48&#45;&gt;Node8</title>
<path fill="none" stroke="#63b8ff" d="M744.24,-176.51C697.94,-167.32 621.76,-152.19 570.63,-142.05"/>
<polygon fill="#63b8ff" stroke="#63b8ff" points="571.24,-138.6 560.75,-140.09 569.88,-145.47 571.24,-138.6"/>
</g>
<!-- Node48&#45;&gt;Node35 -->
<g id="edge57" class="edge">
<title>Node48&#45;&gt;Node35</title>
<path fill="none" stroke="#63b8ff" d="M792.76,-175.75C799.96,-168.11 810.61,-156.82 819.35,-147.56"/>
<polygon fill="#63b8ff" stroke="#63b8ff" points="822.08,-149.76 826.4,-140.09 816.99,-144.96 822.08,-149.76"/>
</g>
<!-- Node48&#45;&gt;Node37 -->
<g id="edge55" class="edge">
<title>Node48&#45;&gt;Node37</title>
<path fill="none" stroke="#63b8ff" d="M824.68,-179.49C913.5,-167.85 1132.73,-136.03 1310.5,-85 1312.65,-84.38 1314.84,-83.7 1317.04,-82.97"/>
<polygon fill="#63b8ff" stroke="#63b8ff" points="1318.31,-86.24 1326.57,-79.6 1315.98,-79.64 1318.31,-86.24"/>
</g>
<!-- Node51&#45;&gt;Node5 -->
<g id="edge60" class="edge">
<title>Node51&#45;&gt;Node5</title>
<path fill="none" stroke="#63b8ff" d="M563.85,-230.98C540.65,-222.27 504.38,-208.63 478.1,-198.75"/>
<polygon fill="#63b8ff" stroke="#63b8ff" points="479.16,-195.41 468.57,-195.17 476.7,-201.97 479.16,-195.41"/>
</g>
<!-- Node52&#45;&gt;Node5 -->
<g id="edge62" class="edge">
<title>Node52&#45;&gt;Node5</title>
<path fill="none" stroke="#63b8ff" d="M445.5,-230.75C445.5,-223.8 445.5,-213.85 445.5,-205.13"/>
<polygon fill="#63b8ff" stroke="#63b8ff" points="449,-205.09 445.5,-195.09 442,-205.09 449,-205.09"/>
</g>
<!-- Node53&#45;&gt;Node8 -->
<g id="edge65" class="edge">
<title>Node53&#45;&gt;Node8</title>
<path fill="none" stroke="#63b8ff" d="M540.88,-175.75C537.04,-168.49 531.48,-157.95 526.74,-148.98"/>
<polygon fill="#63b8ff" stroke="#63b8ff" points="529.8,-147.3 522.04,-140.09 523.61,-150.57 529.8,-147.3"/>
</g>
<!-- Node53&#45;&gt;Node35 -->
<g id="edge66" class="edge">
<title>Node53&#45;&gt;Node35</title>
<path fill="none" stroke="#63b8ff" d="M591.29,-176.1C641.94,-166.81 723.57,-151.84 778.11,-141.84"/>
<polygon fill="#63b8ff" stroke="#63b8ff" points="778.76,-145.28 787.96,-140.03 777.5,-138.4 778.76,-145.28"/>
</g>
<!-- Node55 -->
<g id="node44" class="node">
<title>Node55</title>
<g id="a_node44"><a xlink:href="cfg_8h.html" target="_top" xlink:title=" ">
<polygon fill="#fff0f0" stroke="red" points="1121,-195 1002,-195 1002,-176 1121,-176 1121,-195"/>
<text text-anchor="middle" x="1061.5" y="-183" font-family="Helvetica,sans-Serif" font-size="10.00">thorin/analyses/cfg.h</text>
</a>
</g>
</g>
<!-- Node54&#45;&gt;Node55 -->
<g id="edge68" class="edge">
<title>Node54&#45;&gt;Node55</title>
<path fill="none" stroke="#63b8ff" d="M906,-461.82C963.67,-433.04 1144.88,-341.17 1159.5,-316 1185.75,-270.83 1122.65,-223.2 1085.8,-200.34"/>
<polygon fill="#63b8ff" stroke="#63b8ff" points="1087.44,-197.24 1077.07,-195.08 1083.83,-203.24 1087.44,-197.24"/>
</g>
<!-- Node55&#45;&gt;Node7 -->
<g id="edge69" class="edge">
<title>Node55&#45;&gt;Node7</title>
<path fill="none" stroke="#63b8ff" d="M1093.03,-175.95C1151.24,-159.9 1279.22,-123.43 1384.5,-85 1385.89,-84.49 1387.3,-83.96 1388.73,-83.41"/>
<polygon fill="#63b8ff" stroke="#63b8ff" points="1390.13,-86.62 1398.09,-79.63 1387.51,-80.13 1390.13,-86.62"/>
</g>
<!-- Node55&#45;&gt;Node12 -->
<g id="edge70" class="edge">
<title>Node55&#45;&gt;Node12</title>
<path fill="none" stroke="#63b8ff" d="M1047.84,-175.98C1034.66,-167.77 1014.47,-155.18 998.93,-145.49"/>
<polygon fill="#63b8ff" stroke="#63b8ff" points="1000.74,-142.49 990.41,-140.17 997.04,-148.43 1000.74,-142.49"/>
</g>
<!-- Node55&#45;&gt;Node35 -->
<g id="edge71" class="edge">
<title>Node55&#45;&gt;Node35</title>
<path fill="none" stroke="#63b8ff" d="M1025.03,-175.98C985.93,-166.86 923.73,-152.33 881.11,-142.38"/>
<polygon fill="#63b8ff" stroke="#63b8ff" points="881.79,-138.95 871.26,-140.08 880.2,-145.76 881.79,-138.95"/>
</g>
<!-- Node59&#45;&gt;Node5 -->
<g id="edge73" class="edge">
<title>Node59&#45;&gt;Node5</title>
<path fill="none" stroke="#63b8ff" d="M610.55,-461.97C528.57,-446.8 376.5,-411.97 376.5,-362.5 376.5,-362.5 376.5,-362.5 376.5,-300 376.5,-268.19 378.71,-258.01 395.5,-231 402.71,-219.4 413.84,-209.07 423.78,-201.29"/>
<polygon fill="#63b8ff" stroke="#63b8ff" points="426.12,-203.91 432.07,-195.14 421.95,-198.28 426.12,-203.91"/>
</g>
<!-- Node60 -->
<g id="node46" class="node">
<title>Node60</title>
<g id="a_node46"><a xlink:href="rewrite_8h.html" target="_top" xlink:title=" ">
<polygon fill="#fff0f0" stroke="red" points="707.5,-426 615.5,-426 615.5,-407 707.5,-407 707.5,-426"/>
<text text-anchor="middle" x="661.5" y="-414" font-family="Helvetica,sans-Serif" font-size="10.00">thorin/rewrite.h</text>
</a>
</g>
</g>
<!-- Node59&#45;&gt;Node60 -->
<g id="edge74" class="edge">
<title>Node59&#45;&gt;Node60</title>
<path fill="none" stroke="#63b8ff" d="M661.5,-461.75C661.5,-454.8 661.5,-444.85 661.5,-436.13"/>
<polygon fill="#63b8ff" stroke="#63b8ff" points="665,-436.09 661.5,-426.09 658,-436.09 665,-436.09"/>
</g>
<!-- Node59&#45;&gt;Node61 -->
<g id="edge76" class="edge">
<title>Node59&#45;&gt;Node61</title>
<path fill="none" stroke="#63b8ff" d="M721.25,-462.91C799.37,-452.98 935.65,-435.66 1015.4,-425.52"/>
<polygon fill="#63b8ff" stroke="#63b8ff" points="1016.31,-428.93 1025.79,-424.2 1015.43,-421.99 1016.31,-428.93"/>
</g>
<!-- Node60&#45;&gt;Node43 -->
<g id="edge75" class="edge">
<title>Node60&#45;&gt;Node43</title>
<path fill="none" stroke="#63b8ff" d="M661.5,-406.75C661.5,-399.8 661.5,-389.85 661.5,-381.13"/>
<polygon fill="#63b8ff" stroke="#63b8ff" points="665,-381.09 661.5,-371.09 658,-381.09 665,-381.09"/>
</g>
<!-- Node61&#45;&gt;Node25 -->
<g id="edge77" class="edge">
<title>Node61&#45;&gt;Node25</title>
<path fill="none" stroke="#63b8ff" d="M1091.38,-406.85C1121.88,-385.33 1193.5,-328.08 1159.5,-286 1038.36,-136.1 918.73,-254.78 735.5,-195 658.71,-169.95 646.08,-146.7 569.5,-121 502.45,-98.5 481.49,-107.66 414.5,-85 413.1,-84.53 411.68,-84.01 410.25,-83.47"/>
<polygon fill="#63b8ff" stroke="#63b8ff" points="411.54,-80.21 400.96,-79.61 408.85,-86.68 411.54,-80.21"/>
</g>
<!-- Node61&#45;&gt;Node43 -->
<g id="edge79" class="edge">
<title>Node61&#45;&gt;Node43</title>
<path fill="none" stroke="#63b8ff" d="M1025.69,-408.79C945.46,-398.59 793.79,-379.31 713.84,-369.15"/>
<polygon fill="#63b8ff" stroke="#63b8ff" points="713.88,-365.63 703.52,-367.84 713,-372.57 713.88,-365.63"/>
</g>
<!-- Node62 -->
<g id="node48" class="node">
<title>Node62</title>
<g id="a_node48"><a xlink:title=" ">
<polygon fill="#e0e0e0" stroke="#999999" points="1274,-371 1209,-371 1209,-352 1274,-352 1274,-371"/>
<text text-anchor="middle" x="1241.5" y="-359" font-family="Helvetica,sans-Serif" font-size="10.00">typeindex</text>
</a>
</g>
</g>
<!-- Node61&#45;&gt;Node62 -->
<g id="edge78" class="edge">
<title>Node61&#45;&gt;Node62</title>
<path fill="none" stroke="#63b8ff" d="M1104.69,-406.98C1131.94,-398.13 1174.8,-384.19 1205.28,-374.28"/>
<polygon fill="#63b8ff" stroke="#63b8ff" points="1206.68,-377.5 1215.11,-371.08 1204.51,-370.85 1206.68,-377.5"/>
</g>
<!-- Node63&#45;&gt;Node7 -->
<g id="edge83" class="edge">
<title>Node63&#45;&gt;Node7</title>
<path fill="none" stroke="#63b8ff" d="M1253.73,-461.97C1302.33,-449.4 1375.5,-420.8 1375.5,-362.5 1375.5,-362.5 1375.5,-362.5 1375.5,-184.5 1375.5,-148.61 1394.2,-110.07 1406.65,-88.41"/>
<polygon fill="#63b8ff" stroke="#63b8ff" points="1409.72,-90.09 1411.84,-79.71 1403.71,-86.51 1409.72,-90.09"/>
</g>
<!-- Node63&#45;&gt;Node17 -->
<g id="edge82" class="edge">
<title>Node63&#45;&gt;Node17</title>
<path fill="none" stroke="#63b8ff" d="M1237.35,-461.99C1253.77,-455.09 1273.7,-443.58 1283.5,-426 1299.52,-397.27 1295.02,-382.81 1283.5,-352 1230.75,-210.91 1172.71,-183.15 1035.5,-121 1032.81,-119.78 965.45,-97.13 922.54,-82.74"/>
<polygon fill="#63b8ff" stroke="#63b8ff" points="923.59,-79.4 913,-79.54 921.37,-86.04 923.59,-79.4"/>
</g>
<!-- Node63&#45;&gt;Node61 -->
<g id="edge85" class="edge">
<title>Node63&#45;&gt;Node61</title>
<path fill="none" stroke="#63b8ff" d="M1190.13,-461.98C1168.35,-453.3 1134.34,-439.75 1109.58,-429.88"/>
<polygon fill="#63b8ff" stroke="#63b8ff" points="1110.84,-426.62 1100.26,-426.17 1108.25,-433.12 1110.84,-426.62"/>
</g>
<!-- Node64 -->
<g id="node50" class="node">
<title>Node64</title>
<g id="a_node50"><a xlink:href="optimize_8h.html" target="_top" xlink:title=" ">
<polygon fill="white" stroke="#666666" points="1274,-426 1149,-426 1149,-407 1274,-407 1274,-426"/>
<text text-anchor="middle" x="1211.5" y="-414" font-family="Helvetica,sans-Serif" font-size="10.00">thorin/pass/optimize.h</text>
</a>
</g>
</g>
<!-- Node63&#45;&gt;Node64 -->
<g id="edge84" class="edge">
<title>Node63&#45;&gt;Node64</title>
<path fill="none" stroke="#63b8ff" d="M1211.5,-461.75C1211.5,-454.8 1211.5,-444.85 1211.5,-436.13"/>
<polygon fill="#63b8ff" stroke="#63b8ff" points="1215,-436.09 1211.5,-426.09 1208,-436.09 1215,-436.09"/>
</g>
</g>
</svg>
