<?xml version="1.0" encoding="UTF-8" standalone="no"?>
<!DOCTYPE svg PUBLIC "-//W3C//DTD SVG 1.1//EN"
 "http://www.w3.org/Graphics/SVG/1.1/DTD/svg11.dtd">
<!-- Generated by graphviz version 2.43.0 (0)
 -->
<!-- Title: include/mim/plug/regex/regex.h Pages: 1 -->
<svg width="599pt" height="170pt"
 viewBox="0.00 0.00 599.00 170.00" xmlns="http://www.w3.org/2000/svg" xmlns:xlink="http://www.w3.org/1999/xlink">
<g id="graph0" class="graph" transform="scale(1 1) rotate(0) translate(4 166)">
<title>include/mim/plug/regex/regex.h</title>
<!-- Node1 -->
<g id="Node000001" class="node">
<title>Node1</title>
<g id="a_Node000001"><a xlink:title=" ">
<polygon fill="#999999" stroke="#666666" points="402.5,-162 270.5,-162 270.5,-132 402.5,-132 402.5,-162"/>
<text text-anchor="start" x="278.5" y="-150" font-family="Helvetica,sans-Serif" font-size="10.00">include/mim/plug/regex</text>
<text text-anchor="middle" x="336.5" y="-139" font-family="Helvetica,sans-Serif" font-size="10.00">/regex.h</text>
</a>
</g>
</g>
<!-- Node2 -->
<g id="Node000002" class="node">
<title>Node2</title>
<g id="a_Node000002"><a xlink:href="dfa2matcher_8h.html" target="_top" xlink:title=" ">
<polygon fill="white" stroke="#666666" points="182.5,-96 50.5,-96 50.5,-66 182.5,-66 182.5,-96"/>
<text text-anchor="start" x="58.5" y="-84" font-family="Helvetica,sans-Serif" font-size="10.00">include/mim/plug/regex</text>
<text text-anchor="middle" x="116.5" y="-73" font-family="Helvetica,sans-Serif" font-size="10.00">/dfa2matcher.h</text>
</a>
</g>
</g>
<!-- Node1&#45;&gt;Node2 -->
<g id="edge1_Node000001_Node000002" class="edge">
<title>Node1&#45;&gt;Node2</title>
<g id="a_edge1_Node000001_Node000002"><a xlink:title=" ">
<path fill="none" stroke="#63b8ff" d="M278.48,-129.12C243.01,-118.8 198.17,-105.76 164.67,-96.01"/>
<polygon fill="#63b8ff" stroke="#63b8ff" points="277.64,-132.52 288.22,-131.95 279.6,-125.8 277.64,-132.52"/>
</a>
</g>
</g>
<!-- Node5 -->
<g id="Node000005" class="node">
<title>Node5</title>
<g id="a_Node000005"><a xlink:href="regex2nfa_8h.html" target="_top" xlink:title=" ">
<polygon fill="white" stroke="#666666" points="332.5,-96 200.5,-96 200.5,-66 332.5,-66 332.5,-96"/>
<text text-anchor="start" x="208.5" y="-84" font-family="Helvetica,sans-Serif" font-size="10.00">include/mim/plug/regex</text>
<text text-anchor="middle" x="266.5" y="-73" font-family="Helvetica,sans-Serif" font-size="10.00">/regex2nfa.h</text>
</a>
</g>
</g>
<!-- Node1&#45;&gt;Node5 -->
<g id="edge4_Node000001_Node000005" class="edge">
<title>Node1&#45;&gt;Node5</title>
<g id="a_edge4_Node000001_Node000005"><a xlink:title=" ">
<path fill="none" stroke="#63b8ff" d="M313.45,-124.92C303.13,-115.49 291.23,-104.61 281.99,-96.16"/>
<polygon fill="#63b8ff" stroke="#63b8ff" points="311.22,-127.63 320.96,-131.8 315.95,-122.47 311.22,-127.63"/>
</a>
</g>
</g>
<!-- Node7 -->
<g id="Node000007" class="node">
<title>Node7</title>
<g id="a_Node000007"><a xlink:href="regex_2normalizers_8cpp.html" target="_top" xlink:title=" ">
<polygon fill="white" stroke="#666666" points="462,-96 351,-96 351,-66 462,-66 462,-96"/>
<text text-anchor="start" x="359" y="-84" font-family="Helvetica,sans-Serif" font-size="10.00">src/mim/plug/regex</text>
<text text-anchor="middle" x="406.5" y="-73" font-family="Helvetica,sans-Serif" font-size="10.00">/normalizers.cpp</text>
</a>
</g>
</g>
<!-- Node1&#45;&gt;Node7 -->
<g id="edge7_Node000001_Node000007" class="edge">
<title>Node1&#45;&gt;Node7</title>
<g id="a_edge7_Node000001_Node000007"><a xlink:title=" ">
<path fill="none" stroke="#63b8ff" d="M359.55,-124.92C369.87,-115.49 381.77,-104.61 391.01,-96.16"/>
<polygon fill="#63b8ff" stroke="#63b8ff" points="357.05,-122.47 352.04,-131.8 361.78,-127.63 357.05,-122.47"/>
</a>
</g>
</g>
<!-- Node8 -->
<g id="Node000008" class="node">
<title>Node8</title>
<g id="a_Node000008"><a xlink:href="regex_8cpp.html" target="_top" xlink:title=" ">
<polygon fill="white" stroke="#666666" points="591,-96 480,-96 480,-66 591,-66 591,-96"/>
<text text-anchor="start" x="488" y="-84" font-family="Helvetica,sans-Serif" font-size="10.00">src/mim/plug/regex</text>
<text text-anchor="middle" x="535.5" y="-73" font-family="Helvetica,sans-Serif" font-size="10.00">/regex.cpp</text>
</a>
</g>
</g>
<!-- Node1&#45;&gt;Node8 -->
<g id="edge8_Node000001_Node000008" class="edge">
<title>Node1&#45;&gt;Node8</title>
<g id="a_edge8_Node000001_Node000008"><a xlink:title=" ">
<path fill="none" stroke="#63b8ff" d="M389.81,-128.86C421.76,-118.58 461.88,-105.68 491.93,-96.01"/>
<polygon fill="#63b8ff" stroke="#63b8ff" points="388.62,-125.56 380.17,-131.95 390.76,-132.23 388.62,-125.56"/>
</a>
</g>
</g>
<!-- Node3 -->
<g id="Node000003" class="node">
<title>Node3</title>
<g id="a_Node000003"><a xlink:href="dfa2matcher_8cpp.html" target="_top" xlink:title=" ">
<polygon fill="white" stroke="#666666" points="111,-30 0,-30 0,0 111,0 111,-30"/>
<text text-anchor="start" x="8" y="-18" font-family="Helvetica,sans-Serif" font-size="10.00">src/mim/plug/regex</text>
<text text-anchor="middle" x="55.5" y="-7" font-family="Helvetica,sans-Serif" font-size="10.00">/dfa2matcher.cpp</text>
</a>
</g>
</g>
<!-- Node2&#45;&gt;Node3 -->
<g id="edge2_Node000002_Node000003" class="edge">
<title>Node2&#45;&gt;Node3</title>
<g id="a_edge2_Node000002_Node000003"><a xlink:title=" ">
<path fill="none" stroke="#63b8ff" d="M95.88,-58.37C87.01,-49.06 76.89,-38.44 69,-30.16"/>
<polygon fill="#63b8ff" stroke="#63b8ff" points="93.53,-60.97 102.96,-65.8 98.6,-56.14 93.53,-60.97"/>
</a>
</g>
</g>
<!-- Node4 -->
<g id="Node000004" class="node">
<title>Node4</title>
<g id="a_Node000004"><a xlink:href="lower__regex_8cpp.html" target="_top" xlink:title=" ">
<polygon fill="white" stroke="#666666" points="254,-30 129,-30 129,0 254,0 254,-30"/>
<text text-anchor="start" x="137" y="-18" font-family="Helvetica,sans-Serif" font-size="10.00">src/mim/plug/regex</text>
<text text-anchor="middle" x="191.5" y="-7" font-family="Helvetica,sans-Serif" font-size="10.00">/pass/lower_regex.cpp</text>
</a>
</g>
</g>
<!-- Node2&#45;&gt;Node4 -->
<g id="edge3_Node000002_Node000004" class="edge">
<title>Node2&#45;&gt;Node4</title>
<g id="a_edge3_Node000002_Node000004"><a xlink:title=" ">
<path fill="none" stroke="#63b8ff" d="M140.87,-59.2C152.01,-49.7 164.91,-38.69 174.9,-30.16"/>
<polygon fill="#63b8ff" stroke="#63b8ff" points="138.48,-56.64 133.14,-65.8 143.02,-61.97 138.48,-56.64"/>
</a>
</g>
</g>
<!-- Node5&#45;&gt;Node4 -->
<g id="edge5_Node000005_Node000004" class="edge">
<title>Node5&#45;&gt;Node4</title>
<g id="a_edge5_Node000005_Node000004"><a xlink:title=" ">
<path fill="none" stroke="#63b8ff" d="M242.13,-59.2C230.99,-49.7 218.09,-38.69 208.1,-30.16"/>
<polygon fill="#63b8ff" stroke="#63b8ff" points="239.98,-61.97 249.86,-65.8 244.52,-56.64 239.98,-61.97"/>
</a>
</g>
</g>
<!-- Node6 -->
<g id="Node000006" class="node">
<title>Node6</title>
<g id="a_Node000006"><a xlink:href="regex2nfa_8cpp.html" target="_top" xlink:title=" ">
<polygon fill="white" stroke="#666666" points="383,-30 272,-30 272,0 383,0 383,-30"/>
<text text-anchor="start" x="280" y="-18" font-family="Helvetica,sans-Serif" font-size="10.00">src/mim/plug/regex</text>
<text text-anchor="middle" x="327.5" y="-7" font-family="Helvetica,sans-Serif" font-size="10.00">/regex2nfa.cpp</text>
</a>
</g>
</g>
<!-- Node5&#45;&gt;Node6 -->
<g id="edge6_Node000005_Node000006" class="edge">
<title>Node5&#45;&gt;Node6</title>
<g id="a_edge6_Node000005_Node000006"><a xlink:title=" ">
<path fill="none" stroke="#63b8ff" d="M287.12,-58.37C295.99,-49.06 306.11,-38.44 314,-30.16"/>
<polygon fill="#63b8ff" stroke="#63b8ff" points="284.4,-56.14 280.04,-65.8 289.47,-60.97 284.4,-56.14"/>
</a>
</g>
</g>
</g>
</svg>
