<?xml version="1.0" encoding="UTF-8" standalone="no"?>
<!DOCTYPE svg PUBLIC "-//W3C//DTD SVG 1.1//EN"
 "http://www.w3.org/Graphics/SVG/1.1/DTD/svg11.dtd">
<!-- Generated by graphviz version 2.43.0 (0)
 -->
<!-- Title: include/mim/plug/regex/regex.h Pages: 1 -->
<svg width="1749pt" height="500pt"
 viewBox="0.00 0.00 1749.15 500.00" xmlns="http://www.w3.org/2000/svg" xmlns:xlink="http://www.w3.org/1999/xlink">
<g id="graph0" class="graph" transform="scale(1 1) rotate(0) translate(4 496)">
<title>include/mim/plug/regex/regex.h</title>
<!-- Node1 -->
<g id="Node000001" class="node">
<title>Node1</title>
<g id="a_Node000001"><a xlink:title=" ">
<polygon fill="#999999" stroke="#666666" points="1276.15,-492 1144.15,-492 1144.15,-462 1276.15,-462 1276.15,-492"/>
<text text-anchor="start" x="1152.15" y="-480" font-family="Helvetica,sans-Serif" font-size="10.00">include/mim/plug/regex</text>
<text text-anchor="middle" x="1210.15" y="-469" font-family="Helvetica,sans-Serif" font-size="10.00">/regex.h</text>
</a>
</g>
</g>
<!-- Node2 -->
<g id="Node000002" class="node">
<title>Node2</title>
<g id="a_Node000002"><a xlink:title=" ">
<polygon fill="#e0e0e0" stroke="#999999" points="1558.65,-19 1489.65,-19 1489.65,0 1558.65,0 1558.65,-19"/>
<text text-anchor="middle" x="1524.15" y="-7" font-family="Helvetica,sans-Serif" font-size="10.00">type_traits</text>
</a>
</g>
</g>
<!-- Node1&#45;&gt;Node2 -->
<g id="edge1_Node000001_Node000002" class="edge">
<title>Node1&#45;&gt;Node2</title>
<g id="a_edge1_Node000001_Node000002"><a xlink:title=" ">
<path fill="none" stroke="#63b8ff" d="M1276.33,-475.6C1418.68,-472.94 1741.15,-456.53 1741.15,-362.5 1741.15,-362.5 1741.15,-362.5 1741.15,-129.5 1741.15,-51.76 1632.76,-24.47 1569.19,-15.14"/>
<polygon fill="#63b8ff" stroke="#63b8ff" points="1569.4,-11.64 1559.02,-13.75 1568.45,-18.57 1569.4,-11.64"/>
</a>
</g>
</g>
<!-- Node3 -->
<g id="Node000003" class="node">
<title>Node3</title>
<g id="a_Node000003"><a xlink:href="regex_2autogen_8h.html" target="_top" xlink:title=" ">
<polygon fill="white" stroke="#666666" points="840.15,-426 694.15,-426 694.15,-407 840.15,-407 840.15,-426"/>
<text text-anchor="middle" x="767.15" y="-414" font-family="Helvetica,sans-Serif" font-size="10.00">mim/plug/regex/autogen.h</text>
</a>
</g>
</g>
<!-- Node1&#45;&gt;Node3 -->
<g id="edge2_Node000001_Node000003" class="edge">
<title>Node1&#45;&gt;Node3</title>
<g id="a_edge2_Node000001_Node000003"><a xlink:title=" ">
<path fill="none" stroke="#63b8ff" d="M1143.83,-467.24C1062.89,-456.55 926.37,-438.53 841.81,-427.36"/>
<polygon fill="#63b8ff" stroke="#63b8ff" points="842.14,-423.87 831.77,-426.03 841.22,-430.81 842.14,-423.87"/>
</a>
</g>
</g>
<!-- Node4 -->
<g id="Node000004" class="node">
<title>Node4</title>
<g id="a_Node000004"><a xlink:href="axm_8h.html" target="_top" xlink:title=" ">
<polygon fill="white" stroke="#666666" points="803.65,-371 730.65,-371 730.65,-352 803.65,-352 803.65,-371"/>
<text text-anchor="middle" x="767.15" y="-359" font-family="Helvetica,sans-Serif" font-size="10.00">mim/axm.h</text>
</a>
</g>
</g>
<!-- Node3&#45;&gt;Node4 -->
<g id="edge3_Node000003_Node000004" class="edge">
<title>Node3&#45;&gt;Node4</title>
<g id="a_edge3_Node000003_Node000004"><a xlink:title=" ">
<path fill="none" stroke="#63b8ff" d="M767.15,-406.75C767.15,-399.8 767.15,-389.85 767.15,-381.13"/>
<polygon fill="#63b8ff" stroke="#63b8ff" points="770.66,-381.09 767.15,-371.09 763.66,-381.09 770.66,-381.09"/>
</a>
</g>
</g>
<!-- Node6 -->
<g id="Node000006" class="node">
<title>Node6</title>
<g id="a_Node000006"><a xlink:href="plugin_8h.html" target="_top" xlink:title=" ">
<polygon fill="white" stroke="#666666" points="569.65,-316 488.65,-316 488.65,-297 569.65,-297 569.65,-316"/>
<text text-anchor="middle" x="529.15" y="-304" font-family="Helvetica,sans-Serif" font-size="10.00">mim/plugin.h</text>
</a>
</g>
</g>
<!-- Node3&#45;&gt;Node6 -->
<g id="edge64_Node000003_Node000006" class="edge">
<title>Node3&#45;&gt;Node6</title>
<g id="a_edge64_Node000003_Node000006"><a xlink:title=" ">
<path fill="none" stroke="#63b8ff" d="M748.08,-406.84C706.29,-387.88 606.46,-342.58 557.38,-320.31"/>
<polygon fill="#63b8ff" stroke="#63b8ff" points="558.54,-316.99 547.99,-316.05 555.65,-323.37 558.54,-316.99"/>
</a>
</g>
</g>
<!-- Node5 -->
<g id="Node000005" class="node">
<title>Node5</title>
<g id="a_Node000005"><a xlink:title=" ">
<polygon fill="#e0e0e0" stroke="#999999" points="861.15,-79.5 793.15,-79.5 793.15,-60.5 861.15,-60.5 861.15,-79.5"/>
<text text-anchor="middle" x="827.15" y="-67.5" font-family="Helvetica,sans-Serif" font-size="10.00">fe/assert.h</text>
</a>
</g>
</g>
<!-- Node4&#45;&gt;Node5 -->
<g id="edge4_Node000004_Node000005" class="edge">
<title>Node4&#45;&gt;Node5</title>
<g id="a_edge4_Node000004_Node000005"><a xlink:title=" ">
<path fill="none" stroke="#63b8ff" d="M772.04,-351.9C785.3,-327.99 821.83,-258.29 834.15,-195 841.34,-158.09 835.49,-113.93 831.03,-89.52"/>
<polygon fill="#63b8ff" stroke="#63b8ff" points="834.43,-88.66 829.07,-79.52 827.56,-90 834.43,-88.66"/>
</a>
</g>
</g>
<!-- Node4&#45;&gt;Node6 -->
<g id="edge5_Node000004_Node000006" class="edge">
<title>Node4&#45;&gt;Node6</title>
<g id="a_edge5_Node000004_Node000006"><a xlink:title=" ">
<path fill="none" stroke="#63b8ff" d="M730.49,-352.33C689.39,-343.18 622.6,-328.31 577.32,-318.23"/>
<polygon fill="#63b8ff" stroke="#63b8ff" points="577.96,-314.78 567.44,-316.03 576.44,-321.62 577.96,-314.78"/>
</a>
</g>
</g>
<!-- Node7 -->
<g id="Node000007" class="node">
<title>Node7</title>
<g id="a_Node000007"><a xlink:title=" ">
<polygon fill="#e0e0e0" stroke="#999999" points="233.15,-255.5 175.15,-255.5 175.15,-236.5 233.15,-236.5 233.15,-255.5"/>
<text text-anchor="middle" x="204.15" y="-243.5" font-family="Helvetica,sans-Serif" font-size="10.00">memory</text>
</a>
</g>
</g>
<!-- Node6&#45;&gt;Node7 -->
<g id="edge6_Node000006_Node000007" class="edge">
<title>Node6&#45;&gt;Node7</title>
<g id="a_edge6_Node000006_Node000007"><a xlink:title=" ">
<path fill="none" stroke="#63b8ff" d="M488.6,-301.15C433.46,-294.76 331.98,-281.37 247.15,-261 244.12,-260.27 241,-259.43 237.88,-258.53"/>
<polygon fill="#63b8ff" stroke="#63b8ff" points="238.66,-255.11 228.07,-255.53 236.61,-261.81 238.66,-255.11"/>
</a>
</g>
</g>
<!-- Node8 -->
<g id="Node000008" class="node">
<title>Node8</title>
<g id="a_Node000008"><a xlink:title=" ">
<polygon fill="#e0e0e0" stroke="#999999" points="59.15,-79.5 15.15,-79.5 15.15,-60.5 59.15,-60.5 59.15,-79.5"/>
<text text-anchor="middle" x="37.15" y="-67.5" font-family="Helvetica,sans-Serif" font-size="10.00">string</text>
</a>
</g>
</g>
<!-- Node6&#45;&gt;Node8 -->
<g id="edge7_Node000006_Node000008" class="edge">
<title>Node6&#45;&gt;Node8</title>
<g id="a_edge7_Node000006_Node000008"><a xlink:title=" ">
<path fill="none" stroke="#63b8ff" d="M488.39,-304.68C405.25,-302.35 219.46,-293.55 166.15,-261 98.66,-219.79 58.31,-128.38 43.57,-89.3"/>
<polygon fill="#63b8ff" stroke="#63b8ff" points="46.8,-87.94 40.08,-79.75 40.22,-90.34 46.8,-87.94"/>
</a>
</g>
</g>
<!-- Node9 -->
<g id="Node000009" class="node">
<title>Node9</title>
<g id="a_Node000009"><a xlink:title=" ">
<polygon fill="#e0e0e0" stroke="#999999" points="780.15,-261 666.15,-261 666.15,-231 780.15,-231 780.15,-261"/>
<text text-anchor="start" x="674.15" y="-249" font-family="Helvetica,sans-Serif" font-size="10.00">absl/container/btree</text>
<text text-anchor="middle" x="723.15" y="-238" font-family="Helvetica,sans-Serif" font-size="10.00">_map.h</text>
</a>
</g>
</g>
<!-- Node6&#45;&gt;Node9 -->
<g id="edge8_Node000006_Node000009" class="edge">
<title>Node6&#45;&gt;Node9</title>
<g id="a_edge8_Node000006_Node000009"><a xlink:title=" ">
<path fill="none" stroke="#63b8ff" d="M557.36,-296.99C585.89,-288.39 630.78,-274.86 666.66,-264.04"/>
<polygon fill="#63b8ff" stroke="#63b8ff" points="667.95,-267.3 676.51,-261.06 665.93,-260.6 667.95,-267.3"/>
</a>
</g>
</g>
<!-- Node10 -->
<g id="Node000010" class="node">
<title>Node10</title>
<g id="a_Node000010"><a xlink:title=" ">
<polygon fill="#e0e0e0" stroke="#999999" points="523.15,-85 419.15,-85 419.15,-55 523.15,-55 523.15,-85"/>
<text text-anchor="start" x="427.15" y="-73" font-family="Helvetica,sans-Serif" font-size="10.00">absl/container/flat</text>
<text text-anchor="middle" x="471.15" y="-62" font-family="Helvetica,sans-Serif" font-size="10.00">_hash_map.h</text>
</a>
</g>
</g>
<!-- Node6&#45;&gt;Node10 -->
<g id="edge9_Node000006_Node000010" class="edge">
<title>Node6&#45;&gt;Node10</title>
<g id="a_edge9_Node000006_Node000010"><a xlink:title=" ">
<path fill="none" stroke="#63b8ff" d="M488.36,-301.47C429.72,-293.19 323.86,-268.33 280.15,-195 272.35,-181.91 262.53,-145.55 282.15,-121 286.29,-115.82 355.81,-98.33 409.34,-85.49"/>
<polygon fill="#63b8ff" stroke="#63b8ff" points="410.22,-88.88 419.13,-83.15 408.59,-82.07 410.22,-88.88"/>
</a>
</g>
</g>
<!-- Node11 -->
<g id="Node000011" class="node">
<title>Node11</title>
<g id="a_Node000011"><a xlink:href="config_8h.html" target="_top" xlink:title=" ">
<polygon fill="white" stroke="#666666" points="369.15,-195 289.15,-195 289.15,-176 369.15,-176 369.15,-195"/>
<text text-anchor="middle" x="329.15" y="-183" font-family="Helvetica,sans-Serif" font-size="10.00">mim/config.h</text>
</a>
</g>
</g>
<!-- Node6&#45;&gt;Node11 -->
<g id="edge10_Node000006_Node000011" class="edge">
<title>Node6&#45;&gt;Node11</title>
<g id="a_edge10_Node000006_Node000011"><a xlink:title=" ">
<path fill="none" stroke="#63b8ff" d="M514.77,-296.94C480.55,-276.58 394.03,-225.1 352.33,-200.29"/>
<polygon fill="#63b8ff" stroke="#63b8ff" points="354.06,-197.25 343.68,-195.14 350.48,-203.26 354.06,-197.25"/>
</a>
</g>
</g>
<!-- Node12 -->
<g id="Node000012" class="node">
<title>Node12</title>
<g id="a_Node000012"><a xlink:href="def_8h.html" target="_top" xlink:title=" ">
<polygon fill="white" stroke="#666666" points="648.15,-255.5 582.15,-255.5 582.15,-236.5 648.15,-236.5 648.15,-255.5"/>
<text text-anchor="middle" x="615.15" y="-243.5" font-family="Helvetica,sans-Serif" font-size="10.00">mim/def.h</text>
</a>
</g>
</g>
<!-- Node6&#45;&gt;Node12 -->
<g id="edge11_Node000006_Node000012" class="edge">
<title>Node6&#45;&gt;Node12</title>
<g id="a_edge11_Node000006_Node000012"><a xlink:title=" ">
<path fill="none" stroke="#63b8ff" d="M541.84,-296.87C555.56,-287.54 577.66,-272.51 594.01,-261.38"/>
<polygon fill="#63b8ff" stroke="#63b8ff" points="596.11,-264.19 602.41,-255.67 592.18,-258.4 596.11,-264.19"/>
</a>
</g>
</g>
<!-- Node12&#45;&gt;Node5 -->
<g id="edge15_Node000012_Node000005" class="edge">
<title>Node12&#45;&gt;Node5</title>
<g id="a_edge15_Node000012_Node000005"><a xlink:title=" ">
<path fill="none" stroke="#63b8ff" d="M621.13,-236.26C630.81,-222.46 651,-195.23 672.15,-176 714,-137.95 770.57,-103.12 802.51,-84.71"/>
<polygon fill="#63b8ff" stroke="#63b8ff" points="804.64,-87.53 811.59,-79.53 801.17,-81.44 804.64,-87.53"/>
</a>
</g>
</g>
<!-- Node12&#45;&gt;Node11 -->
<g id="edge18_Node000012_Node000011" class="edge">
<title>Node12&#45;&gt;Node11</title>
<g id="a_edge18_Node000012_Node000011"><a xlink:title=" ">
<path fill="none" stroke="#63b8ff" d="M582.07,-238.23C532.27,-228.05 437.7,-208.7 379.37,-196.77"/>
<polygon fill="#63b8ff" stroke="#63b8ff" points="379.77,-193.28 369.27,-194.71 378.37,-200.14 379.77,-193.28"/>
</a>
</g>
</g>
<!-- Node13 -->
<g id="Node000013" class="node">
<title>Node13</title>
<g id="a_Node000013"><a xlink:title=" ">
<polygon fill="#e0e0e0" stroke="#999999" points="1036.15,-19 992.15,-19 992.15,0 1036.15,0 1036.15,-19"/>
<text text-anchor="middle" x="1014.15" y="-7" font-family="Helvetica,sans-Serif" font-size="10.00">limits</text>
</a>
</g>
</g>
<!-- Node12&#45;&gt;Node13 -->
<g id="edge12_Node000012_Node000013" class="edge">
<title>Node12&#45;&gt;Node13</title>
<g id="a_edge12_Node000012_Node000013"><a xlink:title=" ">
<path fill="none" stroke="#63b8ff" d="M638.01,-236.4C644.16,-234.36 650.85,-232.38 657.15,-231 729.44,-215.21 935.01,-246.48 988.15,-195 1033.63,-150.94 1024.76,-66.39 1018.07,-29.03"/>
<polygon fill="#63b8ff" stroke="#63b8ff" points="1021.47,-28.19 1016.12,-19.04 1014.6,-29.53 1021.47,-28.19"/>
</a>
</g>
</g>
<!-- Node14 -->
<g id="Node000014" class="node">
<title>Node14</title>
<g id="a_Node000014"><a xlink:title=" ">
<polygon fill="#e0e0e0" stroke="#999999" points="587.15,-195 531.15,-195 531.15,-176 587.15,-176 587.15,-195"/>
<text text-anchor="middle" x="559.15" y="-183" font-family="Helvetica,sans-Serif" font-size="10.00">optional</text>
</a>
</g>
</g>
<!-- Node12&#45;&gt;Node14 -->
<g id="edge13_Node000012_Node000014" class="edge">
<title>Node12&#45;&gt;Node14</title>
<g id="a_edge13_Node000012_Node000014"><a xlink:title=" ">
<path fill="none" stroke="#63b8ff" d="M606.89,-236.37C598.37,-227.47 584.89,-213.39 574.43,-202.45"/>
<polygon fill="#63b8ff" stroke="#63b8ff" points="576.9,-199.97 567.45,-195.17 571.84,-204.81 576.9,-199.97"/>
</a>
</g>
</g>
<!-- Node15 -->
<g id="Node000015" class="node">
<title>Node15</title>
<g id="a_Node000015"><a xlink:title=" ">
<polygon fill="#e0e0e0" stroke="#999999" points="392.15,-19 352.15,-19 352.15,0 392.15,0 392.15,-19"/>
<text text-anchor="middle" x="372.15" y="-7" font-family="Helvetica,sans-Serif" font-size="10.00">span</text>
</a>
</g>
</g>
<!-- Node12&#45;&gt;Node15 -->
<g id="edge14_Node000012_Node000015" class="edge">
<title>Node12&#45;&gt;Node15</title>
<g id="a_edge14_Node000012_Node000015"><a xlink:title=" ">
<path fill="none" stroke="#63b8ff" d="M582.1,-238.99C542.06,-231.19 472.94,-216.04 416.15,-195 398.45,-188.44 396.17,-181.67 378.15,-176 273.17,-142.97 239.01,-170.13 133.15,-140 73.99,-123.16 39.92,-136.42 6.15,-85 -1.16,-73.85 -2.69,-64.98 6.15,-55 28.31,-29.98 257.9,-16.17 341.73,-11.93"/>
<polygon fill="#63b8ff" stroke="#63b8ff" points="342.07,-15.41 351.89,-11.42 341.72,-8.42 342.07,-15.41"/>
</a>
</g>
</g>
<!-- Node16 -->
<g id="Node000016" class="node">
<title>Node16</title>
<g id="a_Node000016"><a xlink:title=" ">
<polygon fill="#e0e0e0" stroke="#999999" points="740.65,-195 681.65,-195 681.65,-176 740.65,-176 740.65,-195"/>
<text text-anchor="middle" x="711.15" y="-183" font-family="Helvetica,sans-Serif" font-size="10.00">fe/cast.h</text>
</a>
</g>
</g>
<!-- Node12&#45;&gt;Node16 -->
<g id="edge16_Node000012_Node000016" class="edge">
<title>Node12&#45;&gt;Node16</title>
<g id="a_edge16_Node000012_Node000016"><a xlink:title=" ">
<path fill="none" stroke="#63b8ff" d="M629.32,-236.37C644.85,-226.91 669.98,-211.59 688.31,-200.42"/>
<polygon fill="#63b8ff" stroke="#63b8ff" points="690.21,-203.36 696.93,-195.17 686.57,-197.38 690.21,-203.36"/>
</a>
</g>
</g>
<!-- Node17 -->
<g id="Node000017" class="node">
<title>Node17</title>
<g id="a_Node000017"><a xlink:title=" ">
<polygon fill="#e0e0e0" stroke="#999999" points="825.15,-195 759.15,-195 759.15,-176 825.15,-176 825.15,-195"/>
<text text-anchor="middle" x="792.15" y="-183" font-family="Helvetica,sans-Serif" font-size="10.00">fe/enum.h</text>
</a>
</g>
</g>
<!-- Node12&#45;&gt;Node17 -->
<g id="edge17_Node000012_Node000017" class="edge">
<title>Node12&#45;&gt;Node17</title>
<g id="a_edge17_Node000012_Node000017"><a xlink:title=" ">
<path fill="none" stroke="#63b8ff" d="M640.92,-236.4C646.28,-234.61 651.9,-232.74 657.15,-231 690.8,-219.85 729.2,-207.2 756.41,-198.25"/>
<polygon fill="#63b8ff" stroke="#63b8ff" points="757.86,-201.45 766.27,-195.01 755.67,-194.8 757.86,-201.45"/>
</a>
</g>
</g>
<!-- Node18 -->
<g id="Node000018" class="node">
<title>Node18</title>
<g id="a_Node000018"><a xlink:href="dbg_8h.html" target="_top" xlink:title=" ">
<polygon fill="white" stroke="#666666" points="513.15,-195 425.15,-195 425.15,-176 513.15,-176 513.15,-195"/>
<text text-anchor="middle" x="469.15" y="-183" font-family="Helvetica,sans-Serif" font-size="10.00">mim/util/dbg.h</text>
</a>
</g>
</g>
<!-- Node12&#45;&gt;Node18 -->
<g id="edge19_Node000012_Node000018" class="edge">
<title>Node12&#45;&gt;Node18</title>
<g id="a_edge19_Node000012_Node000018"><a xlink:title=" ">
<path fill="none" stroke="#63b8ff" d="M593.93,-236.49C569.16,-226.57 528.03,-210.09 499.81,-198.78"/>
<polygon fill="#63b8ff" stroke="#63b8ff" points="500.99,-195.49 490.41,-195.02 498.39,-201.99 500.99,-195.49"/>
</a>
</g>
</g>
<!-- Node29 -->
<g id="Node000029" class="node">
<title>Node29</title>
<g id="a_Node000029"><a xlink:href="sets_8h.html" target="_top" xlink:title=" ">
<polygon fill="white" stroke="#666666" points="979.15,-195 889.15,-195 889.15,-176 979.15,-176 979.15,-195"/>
<text text-anchor="middle" x="934.15" y="-183" font-family="Helvetica,sans-Serif" font-size="10.00">mim/util/sets.h</text>
</a>
</g>
</g>
<!-- Node12&#45;&gt;Node29 -->
<g id="edge33_Node000012_Node000029" class="edge">
<title>Node12&#45;&gt;Node29</title>
<g id="a_edge33_Node000012_Node000029"><a xlink:title=" ">
<path fill="none" stroke="#63b8ff" d="M638.5,-236.47C644.52,-234.48 651.03,-232.5 657.15,-231 733.08,-212.38 822.69,-199.61 878.98,-192.68"/>
<polygon fill="#63b8ff" stroke="#63b8ff" points="879.58,-196.13 889.09,-191.46 878.74,-189.19 879.58,-196.13"/>
</a>
</g>
</g>
<!-- Node33 -->
<g id="Node000033" class="node">
<title>Node33</title>
<g id="a_Node000033"><a xlink:href="util_8h.html" target="_top" xlink:title=" ">
<polygon fill="white" stroke="#666666" points="1169.15,-140 1083.15,-140 1083.15,-121 1169.15,-121 1169.15,-140"/>
<text text-anchor="middle" x="1126.15" y="-128" font-family="Helvetica,sans-Serif" font-size="10.00">mim/util/util.h</text>
</a>
</g>
</g>
<!-- Node12&#45;&gt;Node33 -->
<g id="edge62_Node000012_Node000033" class="edge">
<title>Node12&#45;&gt;Node33</title>
<g id="a_edge62_Node000012_Node000033"><a xlink:title=" ">
<path fill="none" stroke="#63b8ff" d="M637.57,-236.49C643.83,-234.4 650.69,-232.37 657.15,-231 819.21,-196.59 871.75,-249.6 1028.15,-195 1059.05,-184.21 1089.95,-161.78 1108.57,-146.68"/>
<polygon fill="#63b8ff" stroke="#63b8ff" points="1110.99,-149.22 1116.44,-140.13 1106.51,-143.84 1110.99,-149.22"/>
</a>
</g>
</g>
<!-- Node43 -->
<g id="Node000043" class="node">
<title>Node43</title>
<g id="a_Node000043"><a xlink:href="vector_8h.html" target="_top" xlink:title=" ">
<polygon fill="white" stroke="#666666" points="655.15,-140 555.15,-140 555.15,-121 655.15,-121 655.15,-140"/>
<text text-anchor="middle" x="605.15" y="-128" font-family="Helvetica,sans-Serif" font-size="10.00">mim/util/vector.h</text>
</a>
</g>
</g>
<!-- Node12&#45;&gt;Node43 -->
<g id="edge63_Node000012_Node000043" class="edge">
<title>Node12&#45;&gt;Node43</title>
<g id="a_edge63_Node000012_Node000043"><a xlink:title=" ">
<path fill="none" stroke="#63b8ff" d="M614.4,-236.47C612.8,-218.23 608.99,-175.07 606.8,-150.14"/>
<polygon fill="#63b8ff" stroke="#63b8ff" points="610.28,-149.78 605.92,-140.13 603.31,-150.4 610.28,-149.78"/>
</a>
</g>
</g>
<!-- Node18&#45;&gt;Node10 -->
<g id="edge20_Node000018_Node000010" class="edge">
<title>Node18&#45;&gt;Node10</title>
<g id="a_edge20_Node000018_Node000010"><a xlink:title=" ">
<path fill="none" stroke="#63b8ff" d="M479.87,-175.93C489.09,-167.8 501.74,-154.68 507.15,-140 513.23,-123.52 503.85,-105.98 493.15,-92.71"/>
<polygon fill="#63b8ff" stroke="#63b8ff" points="495.66,-90.26 486.44,-85.05 490.39,-94.88 495.66,-90.26"/>
</a>
</g>
</g>
<!-- Node19 -->
<g id="Node000019" class="node">
<title>Node19</title>
<g id="a_Node000019"><a xlink:title=" ">
<polygon fill="#e0e0e0" stroke="#999999" points="983.15,-85 879.15,-85 879.15,-55 983.15,-55 983.15,-85"/>
<text text-anchor="start" x="887.15" y="-73" font-family="Helvetica,sans-Serif" font-size="10.00">absl/container/flat</text>
<text text-anchor="middle" x="931.15" y="-62" font-family="Helvetica,sans-Serif" font-size="10.00">_hash_set.h</text>
</a>
</g>
</g>
<!-- Node18&#45;&gt;Node19 -->
<g id="edge21_Node000018_Node000019" class="edge">
<title>Node18&#45;&gt;Node19</title>
<g id="a_edge21_Node000018_Node000019"><a xlink:title=" ">
<path fill="none" stroke="#63b8ff" d="M508.08,-175.96C547.49,-167.23 610.17,-153.13 664.15,-140 734.66,-122.85 815.27,-101.82 869.31,-87.52"/>
<polygon fill="#63b8ff" stroke="#63b8ff" points="870.31,-90.87 879.08,-84.93 868.52,-84.11 870.31,-90.87"/>
</a>
</g>
</g>
<!-- Node20 -->
<g id="Node000020" class="node">
<title>Node20</title>
<g id="a_Node000020"><a xlink:title=" ">
<polygon fill="#e0e0e0" stroke="#999999" points="344.65,-140 291.65,-140 291.65,-121 344.65,-121 344.65,-140"/>
<text text-anchor="middle" x="318.15" y="-128" font-family="Helvetica,sans-Serif" font-size="10.00">fe/loc.h</text>
</a>
</g>
</g>
<!-- Node18&#45;&gt;Node20 -->
<g id="edge22_Node000018_Node000020" class="edge">
<title>Node18&#45;&gt;Node20</title>
<g id="a_edge22_Node000018_Node000020"><a xlink:title=" ">
<path fill="none" stroke="#63b8ff" d="M444.89,-175.98C419.84,-167.19 380.52,-153.39 352.33,-143.49"/>
<polygon fill="#63b8ff" stroke="#63b8ff" points="353.45,-140.18 342.86,-140.17 351.13,-146.78 353.45,-140.18"/>
</a>
</g>
</g>
<!-- Node21 -->
<g id="Node000021" class="node">
<title>Node21</title>
<g id="a_Node000021"><a xlink:title=" ">
<polygon fill="#e0e0e0" stroke="#999999" points="421.65,-140 362.65,-140 362.65,-121 421.65,-121 421.65,-140"/>
<text text-anchor="middle" x="392.15" y="-128" font-family="Helvetica,sans-Serif" font-size="10.00">fe/sym.h</text>
</a>
</g>
</g>
<!-- Node18&#45;&gt;Node21 -->
<g id="edge23_Node000018_Node000021" class="edge">
<title>Node18&#45;&gt;Node21</title>
<g id="a_edge23_Node000018_Node000021"><a xlink:title=" ">
<path fill="none" stroke="#63b8ff" d="M456.78,-175.98C445.07,-167.92 427.24,-155.65 413.27,-146.03"/>
<polygon fill="#63b8ff" stroke="#63b8ff" points="414.97,-142.96 404.75,-140.17 411,-148.72 414.97,-142.96"/>
</a>
</g>
</g>
<!-- Node22 -->
<g id="Node000022" class="node">
<title>Node22</title>
<g id="a_Node000022"><a xlink:title=" ">
<polygon fill="#e0e0e0" stroke="#999999" points="498.65,-140 439.65,-140 439.65,-121 498.65,-121 498.65,-140"/>
<text text-anchor="middle" x="469.15" y="-128" font-family="Helvetica,sans-Serif" font-size="10.00">rang.hpp</text>
</a>
</g>
</g>
<!-- Node18&#45;&gt;Node22 -->
<g id="edge24_Node000018_Node000022" class="edge">
<title>Node18&#45;&gt;Node22</title>
<g id="a_edge24_Node000018_Node000022"><a xlink:title=" ">
<path fill="none" stroke="#63b8ff" d="M469.15,-175.75C469.15,-168.8 469.15,-158.85 469.15,-150.13"/>
<polygon fill="#63b8ff" stroke="#63b8ff" points="472.66,-150.09 469.15,-140.09 465.66,-150.09 472.66,-150.09"/>
</a>
</g>
</g>
<!-- Node23 -->
<g id="Node000023" class="node">
<title>Node23</title>
<g id="a_Node000023"><a xlink:href="print_8h.html" target="_top" xlink:title=" ">
<polygon fill="white" stroke="#666666" points="234.15,-140 142.15,-140 142.15,-121 234.15,-121 234.15,-140"/>
<text text-anchor="middle" x="188.15" y="-128" font-family="Helvetica,sans-Serif" font-size="10.00">mim/util/print.h</text>
</a>
</g>
</g>
<!-- Node18&#45;&gt;Node23 -->
<g id="edge25_Node000018_Node000023" class="edge">
<title>Node18&#45;&gt;Node23</title>
<g id="a_edge25_Node000018_Node000023"><a xlink:title=" ">
<path fill="none" stroke="#63b8ff" d="M424.94,-176.16C375.86,-166.9 296.58,-151.95 243.44,-141.93"/>
<polygon fill="#63b8ff" stroke="#63b8ff" points="243.98,-138.47 233.51,-140.05 242.69,-145.35 243.98,-138.47"/>
</a>
</g>
</g>
<!-- Node23&#45;&gt;Node5 -->
<g id="edge32_Node000023_Node000005" class="edge">
<title>Node23&#45;&gt;Node5</title>
<g id="a_edge32_Node000023_Node000005"><a xlink:title=" ">
<path fill="none" stroke="#63b8ff" d="M234.52,-125.14C249.69,-123.75 266.64,-122.26 282.15,-121 505.11,-102.93 564.63,-127.94 784.15,-85 787.57,-84.33 791.09,-83.47 794.59,-82.51"/>
<polygon fill="#63b8ff" stroke="#63b8ff" points="795.66,-85.85 804.22,-79.61 793.63,-79.15 795.66,-85.85"/>
</a>
</g>
</g>
<!-- Node23&#45;&gt;Node8 -->
<g id="edge31_Node000023_Node000008" class="edge">
<title>Node23&#45;&gt;Node8</title>
<g id="a_edge31_Node000023_Node000008"><a xlink:title=" ">
<path fill="none" stroke="#63b8ff" d="M163.6,-120.96C139.21,-112.34 100.84,-98.42 68.15,-85 66.99,-84.52 65.8,-84.02 64.6,-83.52"/>
<polygon fill="#63b8ff" stroke="#63b8ff" points="65.99,-80.3 55.42,-79.5 63.18,-86.72 65.99,-80.3"/>
</a>
</g>
</g>
<!-- Node24 -->
<g id="Node000024" class="node">
<title>Node24</title>
<g id="a_Node000024"><a xlink:title=" ">
<polygon fill="#e0e0e0" stroke="#999999" points="220.65,-79.5 155.65,-79.5 155.65,-60.5 220.65,-60.5 220.65,-79.5"/>
<text text-anchor="middle" x="188.15" y="-67.5" font-family="Helvetica,sans-Serif" font-size="10.00">functional</text>
</a>
</g>
</g>
<!-- Node23&#45;&gt;Node24 -->
<g id="edge26_Node000023_Node000024" class="edge">
<title>Node23&#45;&gt;Node24</title>
<g id="a_edge26_Node000023_Node000024"><a xlink:title=" ">
<path fill="none" stroke="#63b8ff" d="M188.15,-120.87C188.15,-112.75 188.15,-100.31 188.15,-89.89"/>
<polygon fill="#63b8ff" stroke="#63b8ff" points="191.66,-89.67 188.15,-79.67 184.66,-89.67 191.66,-89.67"/>
</a>
</g>
</g>
<!-- Node25 -->
<g id="Node000025" class="node">
<title>Node25</title>
<g id="a_Node000025"><a xlink:title=" ">
<polygon fill="#e0e0e0" stroke="#999999" points="137.15,-79.5 77.15,-79.5 77.15,-60.5 137.15,-60.5 137.15,-79.5"/>
<text text-anchor="middle" x="107.15" y="-67.5" font-family="Helvetica,sans-Serif" font-size="10.00">iostream</text>
</a>
</g>
</g>
<!-- Node23&#45;&gt;Node25 -->
<g id="edge27_Node000023_Node000025" class="edge">
<title>Node23&#45;&gt;Node25</title>
<g id="a_edge27_Node000023_Node000025"><a xlink:title=" ">
<path fill="none" stroke="#63b8ff" d="M176.2,-120.87C163.4,-111.62 142.86,-96.78 127.5,-85.69"/>
<polygon fill="#63b8ff" stroke="#63b8ff" points="129.31,-82.68 119.16,-79.67 125.21,-88.36 129.31,-82.68"/>
</a>
</g>
</g>
<!-- Node26 -->
<g id="Node000026" class="node">
<title>Node26</title>
<g id="a_Node000026"><a xlink:title=" ">
<polygon fill="#e0e0e0" stroke="#999999" points="635.65,-19 578.65,-19 578.65,0 635.65,0 635.65,-19"/>
<text text-anchor="middle" x="607.15" y="-7" font-family="Helvetica,sans-Serif" font-size="10.00">ostream</text>
</a>
</g>
</g>
<!-- Node23&#45;&gt;Node26 -->
<g id="edge28_Node000023_Node000026" class="edge">
<title>Node23&#45;&gt;Node26</title>
<g id="a_edge28_Node000023_Node000026"><a xlink:title=" ">
<path fill="none" stroke="#63b8ff" d="M232.98,-120.96C279.22,-111.74 347.92,-96.79 372.15,-85 391.5,-75.59 390.73,-64.27 410.15,-55 461.68,-30.41 527.36,-19.1 568.34,-14.12"/>
<polygon fill="#63b8ff" stroke="#63b8ff" points="568.92,-17.58 578.45,-12.96 568.12,-10.62 568.92,-17.58"/>
</a>
</g>
</g>
<!-- Node27 -->
<g id="Node000027" class="node">
<title>Node27</title>
<g id="a_Node000027"><a xlink:title=" ">
<polygon fill="#e0e0e0" stroke="#999999" points="289.15,-79.5 239.15,-79.5 239.15,-60.5 289.15,-60.5 289.15,-79.5"/>
<text text-anchor="middle" x="264.15" y="-67.5" font-family="Helvetica,sans-Serif" font-size="10.00">ranges</text>
</a>
</g>
</g>
<!-- Node23&#45;&gt;Node27 -->
<g id="edge29_Node000023_Node000027" class="edge">
<title>Node23&#45;&gt;Node27</title>
<g id="a_edge29_Node000023_Node000027"><a xlink:title=" ">
<path fill="none" stroke="#63b8ff" d="M199.37,-120.87C211.27,-111.71 230.3,-97.06 244.66,-86.01"/>
<polygon fill="#63b8ff" stroke="#63b8ff" points="247.11,-88.54 252.89,-79.67 242.84,-82.99 247.11,-88.54"/>
</a>
</g>
</g>
<!-- Node28 -->
<g id="Node000028" class="node">
<title>Node28</title>
<g id="a_Node000028"><a xlink:title=" ">
<polygon fill="#e0e0e0" stroke="#999999" points="363.15,-79.5 307.15,-79.5 307.15,-60.5 363.15,-60.5 363.15,-79.5"/>
<text text-anchor="middle" x="335.15" y="-67.5" font-family="Helvetica,sans-Serif" font-size="10.00">sstream</text>
</a>
</g>
</g>
<!-- Node23&#45;&gt;Node28 -->
<g id="edge30_Node000023_Node000028" class="edge">
<title>Node23&#45;&gt;Node28</title>
<g id="a_edge30_Node000023_Node000028"><a xlink:title=" ">
<path fill="none" stroke="#63b8ff" d="M209.53,-120.99C234.46,-111.07 275.88,-94.59 304.29,-83.28"/>
<polygon fill="#63b8ff" stroke="#63b8ff" points="305.76,-86.47 313.75,-79.52 303.17,-79.96 305.76,-86.47"/>
</a>
</g>
</g>
<!-- Node30 -->
<g id="Node000030" class="node">
<title>Node30</title>
<g id="a_Node000030"><a xlink:title=" ">
<polygon fill="#e0e0e0" stroke="#999999" points="985.65,-140 930.65,-140 930.65,-121 985.65,-121 985.65,-140"/>
<text text-anchor="middle" x="958.15" y="-128" font-family="Helvetica,sans-Serif" font-size="10.00">fstream</text>
</a>
</g>
</g>
<!-- Node29&#45;&gt;Node30 -->
<g id="edge34_Node000029_Node000030" class="edge">
<title>Node29&#45;&gt;Node30</title>
<g id="a_edge34_Node000029_Node000030"><a xlink:title=" ">
<path fill="none" stroke="#63b8ff" d="M938.12,-175.75C941.37,-168.57 946.07,-158.18 950.11,-149.27"/>
<polygon fill="#63b8ff" stroke="#63b8ff" points="953.33,-150.64 954.27,-140.09 946.95,-147.75 953.33,-150.64"/>
</a>
</g>
</g>
<!-- Node31 -->
<g id="Node000031" class="node">
<title>Node31</title>
<g id="a_Node000031"><a xlink:href="link__cut__tree_8h.html" target="_top" xlink:title=" ">
<polygon fill="white" stroke="#666666" points="1497.65,-140 1364.65,-140 1364.65,-121 1497.65,-121 1497.65,-140"/>
<text text-anchor="middle" x="1431.15" y="-128" font-family="Helvetica,sans-Serif" font-size="10.00">mim/util/link_cut_tree.h</text>
</a>
</g>
</g>
<!-- Node29&#45;&gt;Node31 -->
<g id="edge35_Node000029_Node000031" class="edge">
<title>Node29&#45;&gt;Node31</title>
<g id="a_edge35_Node000029_Node000031"><a xlink:title=" ">
<path fill="none" stroke="#63b8ff" d="M979.58,-179.66C1064.8,-170.57 1249.53,-150.87 1354.39,-139.69"/>
<polygon fill="#63b8ff" stroke="#63b8ff" points="1355.02,-143.14 1364.59,-138.6 1354.28,-136.18 1355.02,-143.14"/>
</a>
</g>
</g>
<!-- Node29&#45;&gt;Node33 -->
<g id="edge37_Node000029_Node000033" class="edge">
<title>Node29&#45;&gt;Node33</title>
<g id="a_edge37_Node000029_Node000033"><a xlink:title=" ">
<path fill="none" stroke="#63b8ff" d="M965,-175.98C997.66,-166.97 1049.35,-152.7 1085.35,-142.76"/>
<polygon fill="#63b8ff" stroke="#63b8ff" points="1086.36,-146.12 1095.07,-140.08 1084.49,-139.37 1086.36,-146.12"/>
</a>
</g>
</g>
<!-- Node29&#45;&gt;Node43 -->
<g id="edge57_Node000029_Node000043" class="edge">
<title>Node29&#45;&gt;Node43</title>
<g id="a_edge57_Node000029_Node000043"><a xlink:title=" ">
<path fill="none" stroke="#63b8ff" d="M889.1,-177.24C831.05,-167.89 729.94,-151.6 665.35,-141.2"/>
<polygon fill="#63b8ff" stroke="#63b8ff" points="665.74,-137.72 655.31,-139.58 664.63,-144.63 665.74,-137.72"/>
</a>
</g>
</g>
<!-- Node46 -->
<g id="Node000046" class="node">
<title>Node46</title>
<g id="a_Node000046"><a xlink:title=" ">
<polygon fill="#e0e0e0" stroke="#999999" points="912.15,-140 846.15,-140 846.15,-121 912.15,-121 912.15,-140"/>
<text text-anchor="middle" x="879.15" y="-128" font-family="Helvetica,sans-Serif" font-size="10.00">fe/arena.h</text>
</a>
</g>
</g>
<!-- Node29&#45;&gt;Node46 -->
<g id="edge61_Node000029_Node000046" class="edge">
<title>Node29&#45;&gt;Node46</title>
<g id="a_edge61_Node000029_Node000046"><a xlink:title=" ">
<path fill="none" stroke="#63b8ff" d="M925.07,-175.75C917.06,-168.03 905.2,-156.6 895.53,-147.28"/>
<polygon fill="#63b8ff" stroke="#63b8ff" points="897.7,-144.51 888.07,-140.09 892.84,-149.55 897.7,-144.51"/>
</a>
</g>
</g>
<!-- Node32 -->
<g id="Node000032" class="node">
<title>Node32</title>
<g id="a_Node000032"><a xlink:title=" ">
<polygon fill="#e0e0e0" stroke="#999999" points="1691.65,-19 1638.65,-19 1638.65,0 1691.65,0 1691.65,-19"/>
<text text-anchor="middle" x="1665.15" y="-7" font-family="Helvetica,sans-Serif" font-size="10.00">cstddef</text>
</a>
</g>
</g>
<!-- Node31&#45;&gt;Node32 -->
<g id="edge36_Node000031_Node000032" class="edge">
<title>Node31&#45;&gt;Node32</title>
<g id="a_edge36_Node000031_Node000032"><a xlink:title=" ">
<path fill="none" stroke="#63b8ff" d="M1497.81,-127.17C1564.61,-123.27 1660.79,-112.84 1684.15,-85 1697.64,-68.93 1687.41,-44.52 1677.5,-28.06"/>
<polygon fill="#63b8ff" stroke="#63b8ff" points="1680.26,-25.89 1671.88,-19.41 1674.39,-29.7 1680.26,-25.89"/>
</a>
</g>
</g>
<!-- Node33&#45;&gt;Node2 -->
<g id="edge40_Node000033_Node000002" class="edge">
<title>Node33&#45;&gt;Node2</title>
<g id="a_edge40_Node000033_Node000002"><a xlink:title=" ">
<path fill="none" stroke="#63b8ff" d="M1130.1,-120.79C1137.87,-104.72 1156.84,-70.63 1184.15,-55 1233.54,-26.74 1398.76,-15.87 1479.28,-12.18"/>
<polygon fill="#63b8ff" stroke="#63b8ff" points="1479.76,-15.66 1489.6,-11.72 1479.45,-8.67 1479.76,-15.66"/>
</a>
</g>
</g>
<!-- Node33&#45;&gt;Node5 -->
<g id="edge45_Node000033_Node000005" class="edge">
<title>Node33&#45;&gt;Node5</title>
<g id="a_edge45_Node000033_Node000005"><a xlink:title=" ">
<path fill="none" stroke="#63b8ff" d="M1082.73,-123.88C1031.49,-116.8 943.93,-103.32 870.15,-85 867.2,-84.27 864.16,-83.43 861.12,-82.55"/>
<polygon fill="#63b8ff" stroke="#63b8ff" points="862.13,-79.2 851.54,-79.61 860.07,-85.89 862.13,-79.2"/>
</a>
</g>
</g>
<!-- Node33&#45;&gt;Node10 -->
<g id="edge41_Node000033_Node000010" class="edge">
<title>Node33&#45;&gt;Node10</title>
<g id="a_edge41_Node000033_Node000010"><a xlink:title=" ">
<path fill="none" stroke="#63b8ff" d="M1083,-126.65C961.12,-118.53 618.15,-95.34 533.32,-84.87"/>
<polygon fill="#63b8ff" stroke="#63b8ff" points="533.68,-81.39 523.3,-83.51 532.74,-88.33 533.68,-81.39"/>
</a>
</g>
</g>
<!-- Node33&#45;&gt;Node19 -->
<g id="edge42_Node000033_Node000019" class="edge">
<title>Node33&#45;&gt;Node19</title>
<g id="a_edge42_Node000033_Node000019"><a xlink:title=" ">
<path fill="none" stroke="#63b8ff" d="M1097.8,-120.99C1069.12,-112.39 1024.01,-98.86 987.95,-88.04"/>
<polygon fill="#63b8ff" stroke="#63b8ff" points="988.62,-84.59 978.04,-85.06 986.61,-91.29 988.62,-84.59"/>
</a>
</g>
</g>
<!-- Node34 -->
<g id="Node000034" class="node">
<title>Node34</title>
<g id="a_Node000034"><a xlink:title=" ">
<polygon fill="#e0e0e0" stroke="#999999" points="1240.65,-79.5 1193.65,-79.5 1193.65,-60.5 1240.65,-60.5 1240.65,-79.5"/>
<text text-anchor="middle" x="1217.15" y="-67.5" font-family="Helvetica,sans-Serif" font-size="10.00">queue</text>
</a>
</g>
</g>
<!-- Node33&#45;&gt;Node34 -->
<g id="edge38_Node000033_Node000034" class="edge">
<title>Node33&#45;&gt;Node34</title>
<g id="a_edge38_Node000033_Node000034"><a xlink:title=" ">
<path fill="none" stroke="#63b8ff" d="M1139.58,-120.87C1154.23,-111.45 1177.91,-96.23 1195.26,-85.08"/>
<polygon fill="#63b8ff" stroke="#63b8ff" points="1197.15,-88.02 1203.67,-79.67 1193.37,-82.13 1197.15,-88.02"/>
</a>
</g>
</g>
<!-- Node35 -->
<g id="Node000035" class="node">
<title>Node35</title>
<g id="a_Node000035"><a xlink:title=" ">
<polygon fill="#e0e0e0" stroke="#999999" points="1301.65,-79.5 1258.65,-79.5 1258.65,-60.5 1301.65,-60.5 1301.65,-79.5"/>
<text text-anchor="middle" x="1280.15" y="-67.5" font-family="Helvetica,sans-Serif" font-size="10.00">stack</text>
</a>
</g>
</g>
<!-- Node33&#45;&gt;Node35 -->
<g id="edge39_Node000033_Node000035" class="edge">
<title>Node33&#45;&gt;Node35</title>
<g id="a_edge39_Node000033_Node000035"><a xlink:title=" ">
<path fill="none" stroke="#63b8ff" d="M1151.81,-120.86C1176.85,-112.28 1215.91,-98.5 1249.15,-85 1250.32,-84.53 1251.51,-84.03 1252.71,-83.53"/>
<polygon fill="#63b8ff" stroke="#63b8ff" points="1254.13,-86.73 1261.9,-79.53 1251.33,-80.31 1254.13,-86.73"/>
</a>
</g>
</g>
<!-- Node36 -->
<g id="Node000036" class="node">
<title>Node36</title>
<g id="a_Node000036"><a xlink:title=" ">
<polygon fill="#e0e0e0" stroke="#999999" points="1432.65,-85 1319.65,-85 1319.65,-55 1432.65,-55 1432.65,-85"/>
<text text-anchor="start" x="1327.65" y="-73" font-family="Helvetica,sans-Serif" font-size="10.00">absl/container/node</text>
<text text-anchor="middle" x="1376.15" y="-62" font-family="Helvetica,sans-Serif" font-size="10.00">_hash_map.h</text>
</a>
</g>
</g>
<!-- Node33&#45;&gt;Node36 -->
<g id="edge43_Node000033_Node000036" class="edge">
<title>Node33&#45;&gt;Node36</title>
<g id="a_edge43_Node000033_Node000036"><a xlink:title=" ">
<path fill="none" stroke="#63b8ff" d="M1162.51,-120.99C1200.94,-112 1262.41,-97.62 1309.57,-86.58"/>
<polygon fill="#63b8ff" stroke="#63b8ff" points="1310.47,-89.97 1319.41,-84.28 1308.87,-83.15 1310.47,-89.97"/>
</a>
</g>
</g>
<!-- Node37 -->
<g id="Node000037" class="node">
<title>Node37</title>
<g id="a_Node000037"><a xlink:title=" ">
<polygon fill="#e0e0e0" stroke="#999999" points="1563.65,-85 1450.65,-85 1450.65,-55 1563.65,-55 1563.65,-85"/>
<text text-anchor="start" x="1458.65" y="-73" font-family="Helvetica,sans-Serif" font-size="10.00">absl/container/node</text>
<text text-anchor="middle" x="1507.15" y="-62" font-family="Helvetica,sans-Serif" font-size="10.00">_hash_set.h</text>
</a>
</g>
</g>
<!-- Node33&#45;&gt;Node37 -->
<g id="edge44_Node000033_Node000037" class="edge">
<title>Node33&#45;&gt;Node37</title>
<g id="a_edge44_Node000033_Node000037"><a xlink:title=" ">
<path fill="none" stroke="#63b8ff" d="M1169.25,-124.43C1228.31,-117.27 1337.94,-103.19 1440.57,-85.21"/>
<polygon fill="#63b8ff" stroke="#63b8ff" points="1441.24,-88.65 1450.48,-83.46 1440.03,-81.75 1441.24,-88.65"/>
</a>
</g>
</g>
<!-- Node38 -->
<g id="Node000038" class="node">
<title>Node38</title>
<g id="a_Node000038"><a xlink:href="hash_8h.html" target="_top" xlink:title=" ">
<polygon fill="white" stroke="#666666" points="1674.65,-79.5 1581.65,-79.5 1581.65,-60.5 1674.65,-60.5 1674.65,-79.5"/>
<text text-anchor="middle" x="1628.15" y="-67.5" font-family="Helvetica,sans-Serif" font-size="10.00">mim/util/hash.h</text>
</a>
</g>
</g>
<!-- Node33&#45;&gt;Node38 -->
<g id="edge46_Node000033_Node000038" class="edge">
<title>Node33&#45;&gt;Node38</title>
<g id="a_edge46_Node000033_Node000038"><a xlink:title=" ">
<path fill="none" stroke="#63b8ff" d="M1169.29,-127.36C1249.37,-122.92 1426.26,-110.86 1573.15,-85 1577.99,-84.15 1583.04,-83.1 1588.02,-81.96"/>
<polygon fill="#63b8ff" stroke="#63b8ff" points="1589.18,-85.28 1598.07,-79.52 1587.53,-78.47 1589.18,-85.28"/>
</a>
</g>
</g>
<!-- Node40 -->
<g id="Node000040" class="node">
<title>Node40</title>
<g id="a_Node000040"><a xlink:href="types_8h.html" target="_top" xlink:title=" ">
<polygon fill="white" stroke="#666666" points="1136.65,-79.5 1039.65,-79.5 1039.65,-60.5 1136.65,-60.5 1136.65,-79.5"/>
<text text-anchor="middle" x="1088.15" y="-67.5" font-family="Helvetica,sans-Serif" font-size="10.00">mim/util/types.h</text>
</a>
</g>
</g>
<!-- Node33&#45;&gt;Node40 -->
<g id="edge50_Node000033_Node000040" class="edge">
<title>Node33&#45;&gt;Node40</title>
<g id="a_edge50_Node000033_Node000040"><a xlink:title=" ">
<path fill="none" stroke="#63b8ff" d="M1120.55,-120.87C1114.99,-112.31 1106.32,-98.97 1099.35,-88.24"/>
<polygon fill="#63b8ff" stroke="#63b8ff" points="1102.17,-86.15 1093.79,-79.67 1096.3,-89.96 1102.17,-86.15"/>
</a>
</g>
</g>
<!-- Node38&#45;&gt;Node2 -->
<g id="edge49_Node000038_Node000002" class="edge">
<title>Node38&#45;&gt;Node2</title>
<g id="a_edge49_Node000038_Node000002"><a xlink:title=" ">
<path fill="none" stroke="#63b8ff" d="M1612.81,-60.37C1595.83,-50.82 1568.26,-35.31 1548.36,-24.12"/>
<polygon fill="#63b8ff" stroke="#63b8ff" points="1550,-21.02 1539.56,-19.17 1546.56,-27.12 1550,-21.02"/>
</a>
</g>
</g>
<!-- Node38&#45;&gt;Node32 -->
<g id="edge47_Node000038_Node000032" class="edge">
<title>Node38&#45;&gt;Node32</title>
<g id="a_edge47_Node000038_Node000032"><a xlink:title=" ">
<path fill="none" stroke="#63b8ff" d="M1633.61,-60.37C1639.03,-51.81 1647.46,-38.47 1654.25,-27.74"/>
<polygon fill="#63b8ff" stroke="#63b8ff" points="1657.29,-29.49 1659.67,-19.17 1651.37,-25.75 1657.29,-29.49"/>
</a>
</g>
</g>
<!-- Node39 -->
<g id="Node000039" class="node">
<title>Node39</title>
<g id="a_Node000039"><a xlink:title=" ">
<polygon fill="#e0e0e0" stroke="#999999" points="1347.15,-19 1297.15,-19 1297.15,0 1347.15,0 1347.15,-19"/>
<text text-anchor="middle" x="1322.15" y="-7" font-family="Helvetica,sans-Serif" font-size="10.00">cstdint</text>
</a>
</g>
</g>
<!-- Node38&#45;&gt;Node39 -->
<g id="edge48_Node000038_Node000039" class="edge">
<title>Node38&#45;&gt;Node39</title>
<g id="a_edge48_Node000038_Node000039"><a xlink:title=" ">
<path fill="none" stroke="#63b8ff" d="M1596.26,-60.46C1588.71,-58.55 1580.67,-56.62 1573.15,-55 1496.58,-38.49 1405.89,-23.54 1357.22,-15.88"/>
<polygon fill="#63b8ff" stroke="#63b8ff" points="1357.63,-12.4 1347.21,-14.31 1356.55,-19.32 1357.63,-12.4"/>
</a>
</g>
</g>
<!-- Node40&#45;&gt;Node2 -->
<g id="edge55_Node000040_Node000002" class="edge">
<title>Node40&#45;&gt;Node2</title>
<g id="a_edge55_Node000040_Node000002"><a xlink:title=" ">
<path fill="none" stroke="#63b8ff" d="M1123.68,-60.45C1132.62,-58.48 1142.21,-56.52 1151.15,-55 1268.87,-34.95 1409.01,-20.82 1479.28,-14.39"/>
<polygon fill="#63b8ff" stroke="#63b8ff" points="1479.89,-17.85 1489.53,-13.46 1479.26,-10.88 1479.89,-17.85"/>
</a>
</g>
</g>
<!-- Node40&#45;&gt;Node13 -->
<g id="edge53_Node000040_Node000013" class="edge">
<title>Node40&#45;&gt;Node13</title>
<g id="a_edge53_Node000040_Node000013"><a xlink:title=" ">
<path fill="none" stroke="#63b8ff" d="M1077.24,-60.37C1065.65,-51.21 1047.12,-36.56 1033.14,-25.51"/>
<polygon fill="#63b8ff" stroke="#63b8ff" points="1035.13,-22.62 1025.12,-19.17 1030.79,-28.11 1035.13,-22.62"/>
</a>
</g>
</g>
<!-- Node40&#45;&gt;Node26 -->
<g id="edge54_Node000040_Node000026" class="edge">
<title>Node40&#45;&gt;Node26</title>
<g id="a_edge54_Node000040_Node000026"><a xlink:title=" ">
<path fill="none" stroke="#63b8ff" d="M1039.36,-61.6C1024.24,-59.38 1007.52,-57.01 992.15,-55 865.55,-38.46 715.1,-21.99 645.72,-14.57"/>
<polygon fill="#63b8ff" stroke="#63b8ff" points="646,-11.08 635.69,-13.5 645.26,-18.04 646,-11.08"/>
</a>
</g>
</g>
<!-- Node40&#45;&gt;Node39 -->
<g id="edge52_Node000040_Node000039" class="edge">
<title>Node40&#45;&gt;Node39</title>
<g id="a_edge52_Node000040_Node000039"><a xlink:title=" ">
<path fill="none" stroke="#63b8ff" d="M1122.18,-60.49C1166.28,-49.47 1242.78,-30.34 1287.29,-19.22"/>
<polygon fill="#63b8ff" stroke="#63b8ff" points="1288.22,-22.59 1297.07,-16.77 1286.52,-15.8 1288.22,-22.59"/>
</a>
</g>
</g>
<!-- Node41 -->
<g id="Node000041" class="node">
<title>Node41</title>
<g id="a_Node000041"><a xlink:title=" ">
<polygon fill="#e0e0e0" stroke="#999999" points="1105.65,-19 1058.65,-19 1058.65,0 1105.65,0 1105.65,-19"/>
<text text-anchor="middle" x="1082.15" y="-7" font-family="Helvetica,sans-Serif" font-size="10.00">cmath</text>
</a>
</g>
</g>
<!-- Node40&#45;&gt;Node41 -->
<g id="edge51_Node000040_Node000041" class="edge">
<title>Node40&#45;&gt;Node41</title>
<g id="a_edge51_Node000040_Node000041"><a xlink:title=" ">
<path fill="none" stroke="#63b8ff" d="M1087.27,-60.37C1086.44,-52.25 1085.16,-39.81 1084.09,-29.39"/>
<polygon fill="#63b8ff" stroke="#63b8ff" points="1087.55,-28.76 1083.04,-19.17 1080.58,-29.47 1087.55,-28.76"/>
</a>
</g>
</g>
<!-- Node42 -->
<g id="Node000042" class="node">
<title>Node42</title>
<g id="a_Node000042"><a xlink:title=" ">
<polygon fill="#e0e0e0" stroke="#999999" points="1180.15,-19 1124.15,-19 1124.15,0 1180.15,0 1180.15,-19"/>
<text text-anchor="middle" x="1152.15" y="-7" font-family="Helvetica,sans-Serif" font-size="10.00">half.hpp</text>
</a>
</g>
</g>
<!-- Node40&#45;&gt;Node42 -->
<g id="edge56_Node000040_Node000042" class="edge">
<title>Node40&#45;&gt;Node42</title>
<g id="a_edge56_Node000040_Node000042"><a xlink:title=" ">
<path fill="none" stroke="#63b8ff" d="M1097.6,-60.37C1107.43,-51.38 1123.04,-37.11 1135.05,-26.14"/>
<polygon fill="#63b8ff" stroke="#63b8ff" points="1137.65,-28.5 1142.67,-19.17 1132.93,-23.33 1137.65,-28.5"/>
</a>
</g>
</g>
<!-- Node44 -->
<g id="Node000044" class="node">
<title>Node44</title>
<g id="a_Node000044"><a xlink:title=" ">
<polygon fill="#e0e0e0" stroke="#999999" points="775.15,-85 653.15,-85 653.15,-55 775.15,-55 775.15,-85"/>
<text text-anchor="start" x="661.15" y="-73" font-family="Helvetica,sans-Serif" font-size="10.00">absl/container/inlined</text>
<text text-anchor="middle" x="714.15" y="-62" font-family="Helvetica,sans-Serif" font-size="10.00">_vector.h</text>
</a>
</g>
</g>
<!-- Node43&#45;&gt;Node44 -->
<g id="edge58_Node000043_Node000044" class="edge">
<title>Node43&#45;&gt;Node44</title>
<g id="a_edge58_Node000043_Node000044"><a xlink:title=" ">
<path fill="none" stroke="#63b8ff" d="M621.24,-120.87C636.37,-112.75 659.54,-100.31 678.96,-89.89"/>
<polygon fill="#63b8ff" stroke="#63b8ff" points="680.7,-92.93 687.86,-85.11 677.39,-86.76 680.7,-92.93"/>
</a>
</g>
</g>
<!-- Node45 -->
<g id="Node000045" class="node">
<title>Node45</title>
<g id="a_Node000045"><a xlink:href="span_8h.html" target="_top" xlink:title=" ">
<polygon fill="white" stroke="#666666" points="634.65,-79.5 541.65,-79.5 541.65,-60.5 634.65,-60.5 634.65,-79.5"/>
<text text-anchor="middle" x="588.15" y="-67.5" font-family="Helvetica,sans-Serif" font-size="10.00">mim/util/span.h</text>
</a>
</g>
</g>
<!-- Node43&#45;&gt;Node45 -->
<g id="edge59_Node000043_Node000045" class="edge">
<title>Node43&#45;&gt;Node45</title>
<g id="a_edge59_Node000043_Node000045"><a xlink:title=" ">
<path fill="none" stroke="#63b8ff" d="M602.65,-120.87C600.26,-112.66 596.59,-100.04 593.55,-89.55"/>
<polygon fill="#63b8ff" stroke="#63b8ff" points="596.83,-88.29 590.67,-79.67 590.1,-90.25 596.83,-88.29"/>
</a>
</g>
</g>
<!-- Node45&#45;&gt;Node15 -->
<g id="edge60_Node000045_Node000015" class="edge">
<title>Node45&#45;&gt;Node15</title>
<g id="a_edge60_Node000045_Node000015"><a xlink:title=" ">
<path fill="none" stroke="#63b8ff" d="M556.75,-60.49C515.31,-49.27 442.87,-29.65 402.15,-18.62"/>
<polygon fill="#63b8ff" stroke="#63b8ff" points="402.85,-15.19 392.28,-15.95 401.02,-21.94 402.85,-15.19"/>
</a>
</g>
</g>
</g>
</svg>
