<?xml version="1.0" encoding="UTF-8" standalone="no"?>
<!DOCTYPE svg PUBLIC "-//W3C//DTD SVG 1.1//EN"
 "http://www.w3.org/Graphics/SVG/1.1/DTD/svg11.dtd">
<!-- Generated by graphviz version 2.43.0 (0)
 -->
<!-- Title: /home/runner/work/thorin2/thorin2/thorin/pass/rw/ret_wrap.h Pages: 1 -->
<svg width="570pt" height="128pt"
 viewBox="0.00 0.00 569.50 128.00" xmlns="http://www.w3.org/2000/svg" xmlns:xlink="http://www.w3.org/1999/xlink">
<g id="graph0" class="graph" transform="scale(1 1) rotate(0) translate(4 124)">
<title>/home/runner/work/thorin2/thorin2/thorin/pass/rw/ret_wrap.h</title>
<!-- Node1 -->
<g id="node1" class="node">
<title>Node1</title>
<g id="a_node1"><a xlink:title=" ">
<polygon fill="#bfbfbf" stroke="black" points="221.5,-78.5 221.5,-119.5 367.5,-119.5 367.5,-78.5 221.5,-78.5"/>
<text text-anchor="start" x="229.5" y="-107.5" font-family="Helvetica,sans-Serif" font-size="10.00">/home/runner/work/thorin2</text>
<text text-anchor="start" x="229.5" y="-96.5" font-family="Helvetica,sans-Serif" font-size="10.00">/thorin2/thorin/pass/rw</text>
<text text-anchor="middle" x="294.5" y="-85.5" font-family="Helvetica,sans-Serif" font-size="10.00">/ret_wrap.h</text>
</a>
</g>
</g>
<!-- Node2 -->
<g id="node2" class="node">
<title>Node2</title>
<g id="a_node2"><a xlink:href="mem_8cpp.html" target="_top" xlink:title=" ">
<polygon fill="none" stroke="black" points="0,-6 0,-36 173,-36 173,-6 0,-6"/>
<text text-anchor="start" x="8" y="-24" font-family="Helvetica,sans-Serif" font-size="10.00">/home/runner/work/thorin2</text>
<text text-anchor="middle" x="86.5" y="-13" font-family="Helvetica,sans-Serif" font-size="10.00">/thorin2/dialects/mem/mem.cpp</text>
</a>
</g>
</g>
<!-- Node1&#45;&gt;Node2 -->
<g id="edge1" class="edge">
<title>Node1&#45;&gt;Node2</title>
<path fill="none" stroke="midnightblue" d="M231.37,-74.93C196.73,-62.28 154.9,-46.99 125.11,-36.11"/>
<polygon fill="midnightblue" stroke="midnightblue" points="230.34,-78.28 240.93,-78.43 232.74,-71.71 230.34,-78.28"/>
</g>
<!-- Node3 -->
<g id="node3" class="node">
<title>Node3</title>
<g id="a_node3"><a xlink:href="pipelinebuilder_8cpp.html" target="_top" xlink:title=" ">
<polygon fill="none" stroke="black" points="191.5,-6 191.5,-36 397.5,-36 397.5,-6 191.5,-6"/>
<text text-anchor="start" x="199.5" y="-24" font-family="Helvetica,sans-Serif" font-size="10.00">/home/runner/work/thorin2</text>
<text text-anchor="middle" x="294.5" y="-13" font-family="Helvetica,sans-Serif" font-size="10.00">/thorin2/thorin/pass/pipelinebuilder.cpp</text>
</a>
</g>
</g>
<!-- Node1&#45;&gt;Node3 -->
<g id="edge2" class="edge">
<title>Node1&#45;&gt;Node3</title>
<path fill="none" stroke="midnightblue" d="M294.5,-68.28C294.5,-57.25 294.5,-45.25 294.5,-36.23"/>
<polygon fill="midnightblue" stroke="midnightblue" points="291,-68.43 294.5,-78.43 298,-68.43 291,-68.43"/>
</g>
<!-- Node4 -->
<g id="node4" class="node">
<title>Node4</title>
<g id="a_node4"><a xlink:href="ret__wrap_8cpp.html" target="_top" xlink:title=" ">
<polygon fill="none" stroke="black" points="415.5,-0.5 415.5,-41.5 561.5,-41.5 561.5,-0.5 415.5,-0.5"/>
<text text-anchor="start" x="423.5" y="-29.5" font-family="Helvetica,sans-Serif" font-size="10.00">/home/runner/work/thorin2</text>
<text text-anchor="start" x="423.5" y="-18.5" font-family="Helvetica,sans-Serif" font-size="10.00">/thorin2/thorin/pass/rw</text>
<text text-anchor="middle" x="488.5" y="-7.5" font-family="Helvetica,sans-Serif" font-size="10.00">/ret_wrap.cpp</text>
</a>
</g>
</g>
<!-- Node1&#45;&gt;Node4 -->
<g id="edge3" class="edge">
<title>Node1&#45;&gt;Node4</title>
<path fill="none" stroke="midnightblue" d="M353.85,-74.75C381.01,-64.11 412.83,-51.65 438.71,-41.51"/>
<polygon fill="midnightblue" stroke="midnightblue" points="352.49,-71.52 344.46,-78.43 355.05,-78.04 352.49,-71.52"/>
</g>
</g>
</svg>
