<?xml version="1.0" encoding="UTF-8" standalone="no"?>
<!DOCTYPE svg PUBLIC "-//W3C//DTD SVG 1.1//EN"
 "http://www.w3.org/Graphics/SVG/1.1/DTD/svg11.dtd">
<!-- Generated by graphviz version 2.43.0 (0)
 -->
<!-- Title: include/thorin/pass/ret_wrap.h Pages: 1 -->
<svg width="632pt" height="104pt"
 viewBox="0.00 0.00 632.00 104.00" xmlns="http://www.w3.org/2000/svg" xmlns:xlink="http://www.w3.org/1999/xlink">
<g id="graph0" class="graph" transform="scale(1 1) rotate(0) translate(4 100)">
<title>include/thorin/pass/ret_wrap.h</title>
<!-- Node1 -->
<g id="Node000001" class="node">
<title>Node1</title>
<g id="a_Node000001"><a xlink:title=" ">
<polygon fill="#999999" stroke="#666666" points="399.5,-96 290.5,-96 290.5,-66 399.5,-66 399.5,-96"/>
<text text-anchor="start" x="298.5" y="-84" font-family="Helvetica,sans-Serif" font-size="10.00">include/thorin/pass</text>
<text text-anchor="middle" x="345" y="-73" font-family="Helvetica,sans-Serif" font-size="10.00">/ret_wrap.h</text>
</a>
</g>
</g>
<!-- Node2 -->
<g id="Node000002" class="node">
<title>Node2</title>
<g id="a_Node000002"><a xlink:href="optimize_8cpp.html" target="_top" xlink:title=" ">
<polygon fill="white" stroke="#666666" points="154,-24.5 0,-24.5 0,-5.5 154,-5.5 154,-24.5"/>
<text text-anchor="middle" x="77" y="-12.5" font-family="Helvetica,sans-Serif" font-size="10.00">src/thorin/pass/optimize.cpp</text>
</a>
</g>
</g>
<!-- Node1&#45;&gt;Node2 -->
<g id="edge1_Node000001_Node000002" class="edge">
<title>Node1&#45;&gt;Node2</title>
<g id="a_edge1_Node000001_Node000002"><a xlink:title=" ">
<path fill="none" stroke="#63b8ff" d="M280.52,-64.6C227.87,-52.03 155.42,-34.73 112.67,-24.52"/>
<polygon fill="#63b8ff" stroke="#63b8ff" points="279.9,-68.05 290.44,-66.97 281.53,-61.24 279.9,-68.05"/>
</a>
</g>
</g>
<!-- Node3 -->
<g id="Node000003" class="node">
<title>Node3</title>
<g id="a_Node000003"><a xlink:href="pipelinebuilder_8cpp.html" target="_top" xlink:title=" ">
<polygon fill="white" stroke="#666666" points="355.5,-24.5 172.5,-24.5 172.5,-5.5 355.5,-5.5 355.5,-24.5"/>
<text text-anchor="middle" x="264" y="-12.5" font-family="Helvetica,sans-Serif" font-size="10.00">src/thorin/pass/pipelinebuilder.cpp</text>
</a>
</g>
</g>
<!-- Node1&#45;&gt;Node3 -->
<g id="edge2_Node000001_Node000003" class="edge">
<title>Node1&#45;&gt;Node3</title>
<g id="a_edge2_Node000001_Node000003"><a xlink:title=" ">
<path fill="none" stroke="#63b8ff" d="M319.16,-59.58C304.34,-47.87 286.49,-33.77 275.19,-24.84"/>
<polygon fill="#63b8ff" stroke="#63b8ff" points="317.01,-62.34 327.02,-65.8 321.35,-56.85 317.01,-62.34"/>
</a>
</g>
</g>
<!-- Node4 -->
<g id="Node000004" class="node">
<title>Node4</title>
<g id="a_Node000004"><a xlink:href="ret__wrap_8cpp.html" target="_top" xlink:title=" ">
<polygon fill="white" stroke="#666666" points="478,-30 374,-30 374,0 478,0 478,-30"/>
<text text-anchor="start" x="382" y="-18" font-family="Helvetica,sans-Serif" font-size="10.00">src/thorin/pass/ret</text>
<text text-anchor="middle" x="426" y="-7" font-family="Helvetica,sans-Serif" font-size="10.00">_wrap.cpp</text>
</a>
</g>
</g>
<!-- Node1&#45;&gt;Node4 -->
<g id="edge3_Node000001_Node000004" class="edge">
<title>Node1&#45;&gt;Node4</title>
<g id="a_edge3_Node000001_Node000004"><a xlink:title=" ">
<path fill="none" stroke="#63b8ff" d="M370.97,-59.48C383.08,-49.91 397.18,-38.77 408.07,-30.16"/>
<polygon fill="#63b8ff" stroke="#63b8ff" points="368.65,-56.85 362.98,-65.8 372.99,-62.34 368.65,-56.85"/>
</a>
</g>
</g>
<!-- Node5 -->
<g id="Node000005" class="node">
<title>Node5</title>
<g id="a_Node000005"><a xlink:href="compile_8cpp.html" target="_top" xlink:title=" ">
<polygon fill="white" stroke="#666666" points="624,-30 496,-30 496,0 624,0 624,-30"/>
<text text-anchor="start" x="504" y="-18" font-family="Helvetica,sans-Serif" font-size="10.00">src/thorin/plug/compile</text>
<text text-anchor="middle" x="560" y="-7" font-family="Helvetica,sans-Serif" font-size="10.00">/compile.cpp</text>
</a>
</g>
</g>
<!-- Node1&#45;&gt;Node5 -->
<g id="edge4_Node000001_Node000005" class="edge">
<title>Node1&#45;&gt;Node5</title>
<g id="a_edge4_Node000001_Node000005"><a xlink:title=" ">
<path fill="none" stroke="#63b8ff" d="M402.15,-62.99C436.74,-52.69 480.33,-39.72 512.93,-30.01"/>
<polygon fill="#63b8ff" stroke="#63b8ff" points="400.77,-59.75 392.18,-65.95 402.77,-66.46 400.77,-59.75"/>
</a>
</g>
</g>
</g>
</svg>
