<?xml version="1.0" encoding="UTF-8" standalone="no"?>
<!DOCTYPE svg PUBLIC "-//W3C//DTD SVG 1.1//EN"
 "http://www.w3.org/Graphics/SVG/1.1/DTD/svg11.dtd">
<!-- Generated by graphviz version 2.43.0 (0)
 -->
<!-- Title: /home/runner/work/thorin2/thorin2/thorin/rewrite.h Pages: 1 -->
<svg width="1784pt" height="509pt"
 viewBox="0.00 0.00 1783.50 509.00" xmlns="http://www.w3.org/2000/svg" xmlns:xlink="http://www.w3.org/1999/xlink">
<g id="graph0" class="graph" transform="scale(1 1) rotate(0) translate(4 505)">
<title>/home/runner/work/thorin2/thorin2/thorin/rewrite.h</title>
<!-- Node1 -->
<g id="node1" class="node">
<title>Node1</title>
<g id="a_node1"><a xlink:title=" ">
<polygon fill="#bfbfbf" stroke="black" points="503,-470.5 503,-500.5 649,-500.5 649,-470.5 503,-470.5"/>
<text text-anchor="start" x="511" y="-488.5" font-family="Helvetica,sans-Serif" font-size="10.00">/home/runner/work/thorin2</text>
<text text-anchor="middle" x="576" y="-477.5" font-family="Helvetica,sans-Serif" font-size="10.00">/thorin2/thorin/rewrite.h</text>
</a>
</g>
</g>
<!-- Node2 -->
<g id="node2" class="node">
<title>Node2</title>
<g id="a_node2"><a xlink:href="world_8h.html" target="_top" xlink:title=" ">
<polygon fill="none" stroke="black" points="460,-414.5 460,-433.5 544,-433.5 544,-414.5 460,-414.5"/>
<text text-anchor="middle" x="502" y="-421.5" font-family="Helvetica,sans-Serif" font-size="10.00">thorin/world.h</text>
</a>
</g>
</g>
<!-- Node1&#45;&gt;Node2 -->
<g id="edge1" class="edge">
<title>Node1&#45;&gt;Node2</title>
<path fill="none" stroke="midnightblue" d="M558.46,-470.4C547.16,-461.31 532.46,-449.49 520.89,-440.19"/>
<polygon fill="midnightblue" stroke="midnightblue" points="522.75,-437.2 512.77,-433.66 518.37,-442.65 522.75,-437.2"/>
</g>
<!-- Node50 -->
<g id="node50" class="node">
<title>Node50</title>
<g id="a_node50"><a xlink:href="scope_8h.html" target="_top" xlink:title=" ">
<polygon fill="none" stroke="black" points="695,-291.5 695,-310.5 827,-310.5 827,-291.5 695,-291.5"/>
<text text-anchor="middle" x="761" y="-298.5" font-family="Helvetica,sans-Serif" font-size="10.00">thorin/analyses/scope.h</text>
</a>
</g>
</g>
<!-- Node1&#45;&gt;Node50 -->
<g id="edge75" class="edge">
<title>Node1&#45;&gt;Node50</title>
<path fill="none" stroke="midnightblue" d="M590.21,-470.48C624.03,-437.12 709.16,-353.14 744.85,-317.93"/>
<polygon fill="midnightblue" stroke="midnightblue" points="747.4,-320.33 752.06,-310.82 742.48,-315.35 747.4,-320.33"/>
</g>
<!-- Node3 -->
<g id="node3" class="node">
<title>Node3</title>
<g id="a_node3"><a xlink:title=" ">
<polygon fill="none" stroke="#bfbfbf" points="184,-56.5 184,-75.5 240,-75.5 240,-56.5 184,-56.5"/>
<text text-anchor="middle" x="212" y="-63.5" font-family="Helvetica,sans-Serif" font-size="10.00">sstream</text>
</a>
</g>
</g>
<!-- Node2&#45;&gt;Node3 -->
<g id="edge2" class="edge">
<title>Node2&#45;&gt;Node3</title>
<path fill="none" stroke="midnightblue" d="M459.67,-421.13C352.31,-416.06 75.45,-400.9 41,-378 9.04,-356.75 0,-340.38 0,-302 0,-302 0,-302 0,-188 0,-108.88 112.76,-80.81 173.8,-71.41"/>
<polygon fill="midnightblue" stroke="midnightblue" points="174.45,-74.85 183.85,-69.96 173.45,-67.92 174.45,-74.85"/>
</g>
<!-- Node4 -->
<g id="node4" class="node">
<title>Node4</title>
<g id="a_node4"><a xlink:title=" ">
<polygon fill="none" stroke="#bfbfbf" points="443,-56.5 443,-75.5 487,-75.5 487,-56.5 443,-56.5"/>
<text text-anchor="middle" x="465" y="-63.5" font-family="Helvetica,sans-Serif" font-size="10.00">string</text>
</a>
</g>
</g>
<!-- Node2&#45;&gt;Node4 -->
<g id="edge3" class="edge">
<title>Node2&#45;&gt;Node4</title>
<path fill="none" stroke="midnightblue" d="M459.81,-417.75C435.01,-412.25 405.55,-401 390,-378 374.06,-354.42 275.94,-322.34 394,-112 402.55,-96.76 418.64,-85.93 433.35,-78.72"/>
<polygon fill="midnightblue" stroke="midnightblue" points="435.04,-81.8 442.72,-74.49 432.16,-75.41 435.04,-81.8"/>
</g>
<!-- Node5 -->
<g id="node5" class="node">
<title>Node5</title>
<g id="a_node5"><a xlink:title=" ">
<polygon fill="none" stroke="#bfbfbf" points="519.5,-118 519.5,-137 592.5,-137 592.5,-118 519.5,-118"/>
<text text-anchor="middle" x="556" y="-125" font-family="Helvetica,sans-Serif" font-size="10.00">string_view</text>
</a>
</g>
</g>
<!-- Node2&#45;&gt;Node5 -->
<g id="edge4" class="edge">
<title>Node2&#45;&gt;Node5</title>
<path fill="none" stroke="midnightblue" d="M459.98,-416.39C437.22,-410.44 410.97,-399.19 397,-378 389.42,-366.5 394.92,-360.62 397,-347 404.87,-295.45 403.33,-278.56 432,-235 458.63,-194.53 504.88,-160.68 532.74,-142.61"/>
<polygon fill="midnightblue" stroke="midnightblue" points="534.86,-145.42 541.43,-137.11 531.11,-139.5 534.86,-145.42"/>
</g>
<!-- Node6 -->
<g id="node6" class="node">
<title>Node6</title>
<g id="a_node6"><a xlink:title=" ">
<polygon fill="none" stroke="#bfbfbf" points="66,-347.5 66,-377.5 180,-377.5 180,-347.5 66,-347.5"/>
<text text-anchor="start" x="74" y="-365.5" font-family="Helvetica,sans-Serif" font-size="10.00">absl/container/btree</text>
<text text-anchor="middle" x="123" y="-354.5" font-family="Helvetica,sans-Serif" font-size="10.00">_map.h</text>
</a>
</g>
</g>
<!-- Node2&#45;&gt;Node6 -->
<g id="edge5" class="edge">
<title>Node2&#45;&gt;Node6</title>
<path fill="none" stroke="midnightblue" d="M459.82,-417.94C401.44,-410.71 292.5,-396.43 190.08,-378.12"/>
<polygon fill="midnightblue" stroke="midnightblue" points="190.65,-374.66 180.19,-376.33 189.41,-381.55 190.65,-374.66"/>
</g>
<!-- Node7 -->
<g id="node7" class="node">
<title>Node7</title>
<g id="a_node7"><a xlink:title=" ">
<polygon fill="none" stroke="#bfbfbf" points="198,-347.5 198,-377.5 312,-377.5 312,-347.5 198,-347.5"/>
<text text-anchor="start" x="206" y="-365.5" font-family="Helvetica,sans-Serif" font-size="10.00">absl/container/btree</text>
<text text-anchor="middle" x="255" y="-354.5" font-family="Helvetica,sans-Serif" font-size="10.00">_set.h</text>
</a>
</g>
</g>
<!-- Node2&#45;&gt;Node7 -->
<g id="edge6" class="edge">
<title>Node2&#45;&gt;Node7</title>
<path fill="none" stroke="midnightblue" d="M466.61,-414.48C429,-405.42 368.64,-390.88 322,-379.64"/>
<polygon fill="midnightblue" stroke="midnightblue" points="322.8,-376.23 312.26,-377.29 321.17,-383.04 322.8,-376.23"/>
</g>
<!-- Node8 -->
<g id="node8" class="node">
<title>Node8</title>
<g id="a_node8"><a xlink:href="axiom_8h.html" target="_top" xlink:title=" ">
<polygon fill="none" stroke="black" points="510,-353 510,-372 598,-372 598,-353 510,-353"/>
<text text-anchor="middle" x="554" y="-360" font-family="Helvetica,sans-Serif" font-size="10.00">thorin/axiom.h</text>
</a>
</g>
</g>
<!-- Node2&#45;&gt;Node8 -->
<g id="edge7" class="edge">
<title>Node2&#45;&gt;Node8</title>
<path fill="none" stroke="midnightblue" d="M509.45,-414.48C517.33,-405.46 529.94,-391.02 539.74,-379.81"/>
<polygon fill="midnightblue" stroke="midnightblue" points="542.62,-381.84 546.56,-372.01 537.35,-377.24 542.62,-381.84"/>
</g>
<!-- Node14 -->
<g id="node14" class="node">
<title>Node14</title>
<g id="a_node14"><a xlink:href="debug_8h.html" target="_top" xlink:title=" ">
<polygon fill="none" stroke="black" points="698.5,-179.5 698.5,-198.5 785.5,-198.5 785.5,-179.5 698.5,-179.5"/>
<text text-anchor="middle" x="742" y="-186.5" font-family="Helvetica,sans-Serif" font-size="10.00">thorin/debug.h</text>
</a>
</g>
</g>
<!-- Node2&#45;&gt;Node14 -->
<g id="edge61" class="edge">
<title>Node2&#45;&gt;Node14</title>
<path fill="none" stroke="midnightblue" d="M544.06,-414.52C569.04,-407.84 600.19,-396.49 623,-378 653.49,-353.28 710.57,-249.31 732.81,-207.51"/>
<polygon fill="midnightblue" stroke="midnightblue" points="735.98,-209 737.56,-198.52 729.79,-205.72 735.98,-209"/>
</g>
<!-- Node43 -->
<g id="node43" class="node">
<title>Node43</title>
<g id="a_node43"><a xlink:href="hash_8h.html" target="_top" xlink:title=" ">
<polygon fill="none" stroke="black" points="1433.5,-118 1433.5,-137 1532.5,-137 1532.5,-118 1433.5,-118"/>
<text text-anchor="middle" x="1483" y="-125" font-family="Helvetica,sans-Serif" font-size="10.00">thorin/util/hash.h</text>
</a>
</g>
</g>
<!-- Node2&#45;&gt;Node43 -->
<g id="edge71" class="edge">
<title>Node2&#45;&gt;Node43</title>
<path fill="none" stroke="midnightblue" d="M544.18,-423.32C758.52,-424.4 1717,-422.5 1717,-302 1717,-302 1717,-302 1717,-244 1717,-201.66 1592.27,-159.58 1524.94,-139.95"/>
<polygon fill="midnightblue" stroke="midnightblue" points="1525.62,-136.5 1515.05,-137.1 1523.69,-143.23 1525.62,-136.5"/>
</g>
<!-- Node44 -->
<g id="node44" class="node">
<title>Node44</title>
<g id="a_node44"><a xlink:title=" ">
<polygon fill="none" stroke="#bfbfbf" points="406,-353 406,-372 492,-372 492,-353 406,-353"/>
<text text-anchor="middle" x="449" y="-360" font-family="Helvetica,sans-Serif" font-size="10.00">thorin/config.h</text>
</a>
</g>
</g>
<!-- Node2&#45;&gt;Node44 -->
<g id="edge60" class="edge">
<title>Node2&#45;&gt;Node44</title>
<path fill="none" stroke="midnightblue" d="M494.41,-414.48C486.3,-405.37 473.27,-390.74 463.24,-379.48"/>
<polygon fill="midnightblue" stroke="midnightblue" points="465.84,-377.15 456.58,-372.01 460.62,-381.8 465.84,-377.15"/>
</g>
<!-- Node45 -->
<g id="node45" class="node">
<title>Node45</title>
<g id="a_node45"><a xlink:href="error_8h.html" target="_top" xlink:title=" ">
<polygon fill="none" stroke="black" points="229,-235.5 229,-254.5 309,-254.5 309,-235.5 229,-235.5"/>
<text text-anchor="middle" x="269" y="-242.5" font-family="Helvetica,sans-Serif" font-size="10.00">thorin/error.h</text>
</a>
</g>
</g>
<!-- Node2&#45;&gt;Node45 -->
<g id="edge62" class="edge">
<title>Node2&#45;&gt;Node45</title>
<path fill="none" stroke="midnightblue" d="M459.62,-421.88C353.65,-418.65 83.72,-407.56 57,-378 2.74,-317.98 140.25,-275.32 218.77,-256.6"/>
<polygon fill="midnightblue" stroke="midnightblue" points="220.02,-259.91 228.97,-254.23 218.44,-253.09 220.02,-259.91"/>
</g>
<!-- Node47 -->
<g id="node47" class="node">
<title>Node47</title>
<g id="a_node47"><a xlink:href="lattice_8h.html" target="_top" xlink:title=" ">
<polygon fill="none" stroke="black" points="845,-291.5 845,-310.5 933,-310.5 933,-291.5 845,-291.5"/>
<text text-anchor="middle" x="889" y="-298.5" font-family="Helvetica,sans-Serif" font-size="10.00">thorin/lattice.h</text>
</a>
</g>
</g>
<!-- Node2&#45;&gt;Node47 -->
<g id="edge67" class="edge">
<title>Node2&#45;&gt;Node47</title>
<path fill="none" stroke="midnightblue" d="M540.73,-414.49C577.2,-406.19 633.22,-392.69 681,-378 745.03,-358.31 818.25,-330.22 858.49,-314.28"/>
<polygon fill="midnightblue" stroke="midnightblue" points="859.99,-317.45 867.99,-310.5 857.4,-310.95 859.99,-317.45"/>
</g>
<!-- Node48 -->
<g id="node48" class="node">
<title>Node48</title>
<g id="a_node48"><a xlink:href="tuple_8h.html" target="_top" xlink:title=" ">
<polygon fill="none" stroke="black" points="951,-291.5 951,-310.5 1033,-310.5 1033,-291.5 951,-291.5"/>
<text text-anchor="middle" x="992" y="-298.5" font-family="Helvetica,sans-Serif" font-size="10.00">thorin/tuple.h</text>
</a>
</g>
</g>
<!-- Node2&#45;&gt;Node48 -->
<g id="edge69" class="edge">
<title>Node2&#45;&gt;Node48</title>
<path fill="none" stroke="midnightblue" d="M544.06,-416.32C591.48,-408.47 670.74,-394.43 738,-378 817.11,-358.68 908.18,-329.76 956.9,-313.75"/>
<polygon fill="midnightblue" stroke="midnightblue" points="958.24,-316.99 966.64,-310.53 956.05,-310.34 958.24,-316.99"/>
</g>
<!-- Node49 -->
<g id="node49" class="node">
<title>Node49</title>
<g id="a_node49"><a xlink:href="log_8h.html" target="_top" xlink:title=" ">
<polygon fill="none" stroke="black" points="441.5,-235.5 441.5,-254.5 532.5,-254.5 532.5,-235.5 441.5,-235.5"/>
<text text-anchor="middle" x="487" y="-242.5" font-family="Helvetica,sans-Serif" font-size="10.00">thorin/util/log.h</text>
</a>
</g>
</g>
<!-- Node2&#45;&gt;Node49 -->
<g id="edge72" class="edge">
<title>Node2&#45;&gt;Node49</title>
<path fill="none" stroke="midnightblue" d="M544.02,-416.39C566.78,-410.44 593.03,-399.19 607,-378 614.58,-366.5 613.45,-359.18 607,-347 593.67,-321.84 576.08,-328.98 554,-311 535.09,-295.6 515.26,-275.85 502.13,-262.18"/>
<polygon fill="midnightblue" stroke="midnightblue" points="504.65,-259.75 495.23,-254.91 499.58,-264.58 504.65,-259.75"/>
</g>
<!-- Node9 -->
<g id="node9" class="node">
<title>Node9</title>
<g id="a_node9"><a xlink:href="lam_8h.html" target="_top" xlink:title=" ">
<polygon fill="none" stroke="black" points="563,-291.5 563,-310.5 639,-310.5 639,-291.5 563,-291.5"/>
<text text-anchor="middle" x="601" y="-298.5" font-family="Helvetica,sans-Serif" font-size="10.00">thorin/lam.h</text>
</a>
</g>
</g>
<!-- Node8&#45;&gt;Node9 -->
<g id="edge8" class="edge">
<title>Node8&#45;&gt;Node9</title>
<path fill="none" stroke="midnightblue" d="M560.73,-352.98C567.78,-344.05 579.03,-329.81 587.85,-318.64"/>
<polygon fill="midnightblue" stroke="midnightblue" points="590.83,-320.53 594.28,-310.51 585.33,-316.19 590.83,-320.53"/>
</g>
<!-- Node22 -->
<g id="node22" class="node">
<title>Node22</title>
<g id="a_node22"><a xlink:href="assert_8h.html" target="_top" xlink:title=" ">
<polygon fill="none" stroke="black" points="319,-56.5 319,-75.5 425,-75.5 425,-56.5 319,-56.5"/>
<text text-anchor="middle" x="372" y="-63.5" font-family="Helvetica,sans-Serif" font-size="10.00">thorin/util/assert.h</text>
</a>
</g>
</g>
<!-- Node8&#45;&gt;Node22 -->
<g id="edge59" class="edge">
<title>Node8&#45;&gt;Node22</title>
<path fill="none" stroke="midnightblue" d="M539.78,-352.76C514.53,-336.55 461.73,-299.39 432,-255 395.19,-200.03 379.77,-121.02 374.42,-85.52"/>
<polygon fill="midnightblue" stroke="midnightblue" points="377.88,-85.01 373.02,-75.6 370.95,-85.99 377.88,-85.01"/>
</g>
<!-- Node10 -->
<g id="node10" class="node">
<title>Node10</title>
<g id="a_node10"><a xlink:title=" ">
<polygon fill="none" stroke="#bfbfbf" points="550.5,-235.5 550.5,-254.5 601.5,-254.5 601.5,-235.5 550.5,-235.5"/>
<text text-anchor="middle" x="576" y="-242.5" font-family="Helvetica,sans-Serif" font-size="10.00">variant</text>
</a>
</g>
</g>
<!-- Node9&#45;&gt;Node10 -->
<g id="edge9" class="edge">
<title>Node9&#45;&gt;Node10</title>
<path fill="none" stroke="midnightblue" d="M596.87,-291.08C593.49,-283.77 588.58,-273.18 584.38,-264.1"/>
<polygon fill="midnightblue" stroke="midnightblue" points="587.43,-262.36 580.05,-254.75 581.08,-265.3 587.43,-262.36"/>
</g>
<!-- Node11 -->
<g id="node11" class="node">
<title>Node11</title>
<g id="a_node11"><a xlink:href="def_8h.html" target="_top" xlink:title=" ">
<polygon fill="none" stroke="black" points="848,-235.5 848,-254.5 920,-254.5 920,-235.5 848,-235.5"/>
<text text-anchor="middle" x="884" y="-242.5" font-family="Helvetica,sans-Serif" font-size="10.00">thorin/def.h</text>
</a>
</g>
</g>
<!-- Node9&#45;&gt;Node11 -->
<g id="edge10" class="edge">
<title>Node9&#45;&gt;Node11</title>
<path fill="none" stroke="midnightblue" d="M639.17,-292.72C690.72,-282.88 782.53,-265.36 837.88,-254.8"/>
<polygon fill="midnightblue" stroke="midnightblue" points="838.61,-258.22 847.78,-252.91 837.3,-251.35 838.61,-258.22"/>
</g>
<!-- Node12 -->
<g id="node12" class="node">
<title>Node12</title>
<g id="a_node12"><a xlink:title=" ">
<polygon fill="none" stroke="#bfbfbf" points="856,-179.5 856,-198.5 912,-198.5 912,-179.5 856,-179.5"/>
<text text-anchor="middle" x="884" y="-186.5" font-family="Helvetica,sans-Serif" font-size="10.00">optional</text>
</a>
</g>
</g>
<!-- Node11&#45;&gt;Node12 -->
<g id="edge11" class="edge">
<title>Node11&#45;&gt;Node12</title>
<path fill="none" stroke="midnightblue" d="M884,-235.08C884,-228.01 884,-217.86 884,-208.99"/>
<polygon fill="midnightblue" stroke="midnightblue" points="887.5,-208.75 884,-198.75 880.5,-208.75 887.5,-208.75"/>
</g>
<!-- Node13 -->
<g id="node13" class="node">
<title>Node13</title>
<g id="a_node13"><a xlink:title=" ">
<polygon fill="none" stroke="#bfbfbf" points="1728.5,-56.5 1728.5,-75.5 1775.5,-75.5 1775.5,-56.5 1728.5,-56.5"/>
<text text-anchor="middle" x="1752" y="-63.5" font-family="Helvetica,sans-Serif" font-size="10.00">vector</text>
</a>
</g>
</g>
<!-- Node11&#45;&gt;Node13 -->
<g id="edge12" class="edge">
<title>Node11&#45;&gt;Node13</title>
<path fill="none" stroke="midnightblue" d="M920.38,-242.08C1055.1,-234.56 1524.86,-204.38 1660,-143 1691.12,-128.86 1720.35,-101.38 1737.19,-83.62"/>
<polygon fill="midnightblue" stroke="midnightblue" points="1740.21,-85.51 1744.42,-75.79 1735.06,-80.77 1740.21,-85.51"/>
</g>
<!-- Node11&#45;&gt;Node14 -->
<g id="edge13" class="edge">
<title>Node11&#45;&gt;Node14</title>
<path fill="none" stroke="midnightblue" d="M861.5,-235.44C837.92,-226.48 800.68,-212.31 774.04,-202.18"/>
<polygon fill="midnightblue" stroke="midnightblue" points="774.99,-198.8 764.4,-198.52 772.5,-205.34 774.99,-198.8"/>
</g>
<!-- Node17 -->
<g id="node17" class="node">
<title>Node17</title>
<g id="a_node17"><a xlink:href="tables_8h.html" target="_top" xlink:title=" ">
<polygon fill="none" stroke="black" points="593.5,-179.5 593.5,-198.5 680.5,-198.5 680.5,-179.5 593.5,-179.5"/>
<text text-anchor="middle" x="637" y="-186.5" font-family="Helvetica,sans-Serif" font-size="10.00">thorin/tables.h</text>
</a>
</g>
</g>
<!-- Node11&#45;&gt;Node17 -->
<g id="edge17" class="edge">
<title>Node11&#45;&gt;Node17</title>
<path fill="none" stroke="midnightblue" d="M847.82,-236.09C805.04,-226.74 733.63,-211.12 685.93,-200.7"/>
<polygon fill="midnightblue" stroke="midnightblue" points="686.65,-197.27 676.13,-198.56 685.16,-204.11 686.65,-197.27"/>
</g>
<!-- Node18 -->
<g id="node18" class="node">
<title>Node18</title>
<g id="a_node18"><a xlink:href="print_8h.html" target="_top" xlink:title=" ">
<polygon fill="none" stroke="black" points="403,-118 403,-137 501,-137 501,-118 403,-118"/>
<text text-anchor="middle" x="452" y="-125" font-family="Helvetica,sans-Serif" font-size="10.00">thorin/util/print.h</text>
</a>
</g>
</g>
<!-- Node11&#45;&gt;Node18 -->
<g id="edge58" class="edge">
<title>Node11&#45;&gt;Node18</title>
<path fill="none" stroke="midnightblue" d="M847.65,-242.47C790.44,-239.2 676.49,-229.15 585,-199 543,-185.16 498.41,-158.81 473.01,-142.54"/>
<polygon fill="midnightblue" stroke="midnightblue" points="474.85,-139.56 464.56,-137.04 471.03,-145.43 474.85,-139.56"/>
</g>
<!-- Node30 -->
<g id="node30" class="node">
<title>Node30</title>
<g id="a_node30"><a xlink:href="array_8h.html" target="_top" xlink:title=" ">
<polygon fill="none" stroke="black" points="1551,-118 1551,-137 1651,-137 1651,-118 1551,-118"/>
<text text-anchor="middle" x="1601" y="-125" font-family="Helvetica,sans-Serif" font-size="10.00">thorin/util/array.h</text>
</a>
</g>
</g>
<!-- Node11&#45;&gt;Node30 -->
<g id="edge34" class="edge">
<title>Node11&#45;&gt;Node30</title>
<path fill="none" stroke="midnightblue" d="M920.23,-240.24C985.39,-233.31 1126.6,-217.52 1245,-199 1377.71,-178.24 1410.73,-171.48 1542,-143 1547.09,-141.9 1552.41,-140.68 1557.68,-139.43"/>
<polygon fill="midnightblue" stroke="midnightblue" points="1558.78,-142.77 1567.69,-137.02 1557.15,-135.96 1558.78,-142.77"/>
</g>
<!-- Node37 -->
<g id="node37" class="node">
<title>Node37</title>
<g id="a_node37"><a xlink:href="cast_8h.html" target="_top" xlink:title=" ">
<polygon fill="none" stroke="black" points="649,-118 649,-137 745,-137 745,-118 649,-118"/>
<text text-anchor="middle" x="697" y="-125" font-family="Helvetica,sans-Serif" font-size="10.00">thorin/util/cast.h</text>
</a>
</g>
</g>
<!-- Node11&#45;&gt;Node37 -->
<g id="edge45" class="edge">
<title>Node11&#45;&gt;Node37</title>
<path fill="none" stroke="midnightblue" d="M873.42,-235.43C857.11,-222.43 824.63,-197.3 795,-179 772.19,-164.91 745,-151.12 725.05,-141.52"/>
<polygon fill="midnightblue" stroke="midnightblue" points="726.43,-138.3 715.89,-137.16 723.42,-144.62 726.43,-138.3"/>
</g>
<!-- Node38 -->
<g id="node38" class="node">
<title>Node38</title>
<g id="a_node38"><a xlink:href="container_8h.html" target="_top" xlink:title=" ">
<polygon fill="none" stroke="black" points="1054.5,-179.5 1054.5,-198.5 1175.5,-198.5 1175.5,-179.5 1054.5,-179.5"/>
<text text-anchor="middle" x="1115" y="-186.5" font-family="Helvetica,sans-Serif" font-size="10.00">thorin/util/container.h</text>
</a>
</g>
</g>
<!-- Node11&#45;&gt;Node38 -->
<g id="edge48" class="edge">
<title>Node11&#45;&gt;Node38</title>
<path fill="none" stroke="midnightblue" d="M920.09,-235.56C960.12,-226.21 1024.8,-211.08 1068.57,-200.85"/>
<polygon fill="midnightblue" stroke="midnightblue" points="1069.46,-204.24 1078.4,-198.56 1067.86,-197.42 1069.46,-204.24"/>
</g>
<!-- Node11&#45;&gt;Node43 -->
<g id="edge57" class="edge">
<title>Node11&#45;&gt;Node43</title>
<path fill="none" stroke="midnightblue" d="M920.3,-239.54C977.02,-232.35 1090.03,-217.15 1185,-199 1292.59,-178.44 1318.53,-168.73 1425,-143 1429.67,-141.87 1434.55,-140.68 1439.41,-139.48"/>
<polygon fill="midnightblue" stroke="midnightblue" points="1440.42,-142.83 1449.29,-137.02 1438.74,-136.04 1440.42,-142.83"/>
</g>
<!-- Node14&#45;&gt;Node4 -->
<g id="edge14" class="edge">
<title>Node14&#45;&gt;Node4</title>
<path fill="none" stroke="midnightblue" d="M717.59,-179.37C696.34,-171.36 665.08,-158.37 640,-143 621.42,-131.61 621.12,-122.47 602,-112 592.62,-106.86 534.69,-88.52 497.22,-76.9"/>
<polygon fill="midnightblue" stroke="midnightblue" points="497.84,-73.43 487.26,-73.82 495.77,-80.12 497.84,-73.43"/>
</g>
<!-- Node15 -->
<g id="node15" class="node">
<title>Node15</title>
<g id="a_node15"><a xlink:title=" ">
<polygon fill="none" stroke="#bfbfbf" points="801,-112.5 801,-142.5 905,-142.5 905,-112.5 801,-112.5"/>
<text text-anchor="start" x="809" y="-130.5" font-family="Helvetica,sans-Serif" font-size="10.00">absl/container/flat</text>
<text text-anchor="middle" x="853" y="-119.5" font-family="Helvetica,sans-Serif" font-size="10.00">_hash_map.h</text>
</a>
</g>
</g>
<!-- Node14&#45;&gt;Node15 -->
<g id="edge15" class="edge">
<title>Node14&#45;&gt;Node15</title>
<path fill="none" stroke="midnightblue" d="M757.9,-179.48C773.5,-171.12 797.8,-158.09 817.93,-147.3"/>
<polygon fill="midnightblue" stroke="midnightblue" points="819.68,-150.33 826.84,-142.52 816.37,-144.16 819.68,-150.33"/>
</g>
<!-- Node16 -->
<g id="node16" class="node">
<title>Node16</title>
<g id="a_node16"><a xlink:title=" ">
<polygon fill="none" stroke="#bfbfbf" points="923,-112.5 923,-142.5 1027,-142.5 1027,-112.5 923,-112.5"/>
<text text-anchor="start" x="931" y="-130.5" font-family="Helvetica,sans-Serif" font-size="10.00">absl/container/flat</text>
<text text-anchor="middle" x="975" y="-119.5" font-family="Helvetica,sans-Serif" font-size="10.00">_hash_set.h</text>
</a>
</g>
</g>
<!-- Node14&#45;&gt;Node16 -->
<g id="edge16" class="edge">
<title>Node14&#45;&gt;Node16</title>
<path fill="none" stroke="midnightblue" d="M775.38,-179.48C811.18,-170.33 868.83,-155.61 912.99,-144.34"/>
<polygon fill="midnightblue" stroke="midnightblue" points="913.94,-147.71 922.76,-141.84 912.21,-140.92 913.94,-147.71"/>
</g>
<!-- Node17&#45;&gt;Node5 -->
<g id="edge18" class="edge">
<title>Node17&#45;&gt;Node5</title>
<path fill="none" stroke="midnightblue" d="M625.39,-179.48C612.52,-170.02 591.53,-154.6 575.99,-143.19"/>
<polygon fill="midnightblue" stroke="midnightblue" points="577.72,-140.11 567.58,-137.01 573.57,-145.75 577.72,-140.11"/>
</g>
<!-- Node17&#45;&gt;Node18 -->
<g id="edge19" class="edge">
<title>Node17&#45;&gt;Node18</title>
<path fill="none" stroke="midnightblue" d="M610.49,-179.48C578.35,-169.14 524.01,-151.66 488.07,-140.1"/>
<polygon fill="midnightblue" stroke="midnightblue" points="489.05,-136.74 478.46,-137.01 486.9,-143.4 489.05,-136.74"/>
</g>
<!-- Node24 -->
<g id="node24" class="node">
<title>Node24</title>
<g id="a_node24"><a xlink:href="types_8h.html" target="_top" xlink:title=" ">
<polygon fill="none" stroke="black" points="1118.5,-56.5 1118.5,-75.5 1221.5,-75.5 1221.5,-56.5 1118.5,-56.5"/>
<text text-anchor="middle" x="1170" y="-63.5" font-family="Helvetica,sans-Serif" font-size="10.00">thorin/util/types.h</text>
</a>
</g>
</g>
<!-- Node17&#45;&gt;Node24 -->
<g id="edge27" class="edge">
<title>Node17&#45;&gt;Node24</title>
<path fill="none" stroke="midnightblue" d="M667.03,-179.36C691.39,-171.68 726.14,-159.16 754,-143 772.85,-132.06 771.94,-120.52 792,-112 847.56,-88.42 1016.26,-75.58 1108.37,-70.16"/>
<polygon fill="midnightblue" stroke="midnightblue" points="1108.62,-73.65 1118.4,-69.58 1108.21,-66.66 1108.62,-73.65"/>
</g>
<!-- Node18&#45;&gt;Node3 -->
<g id="edge23" class="edge">
<title>Node18&#45;&gt;Node3</title>
<path fill="none" stroke="midnightblue" d="M417.61,-117.98C373.27,-106.98 296.38,-87.92 250.24,-76.48"/>
<polygon fill="midnightblue" stroke="midnightblue" points="250.87,-73.03 240.33,-74.02 249.19,-79.83 250.87,-73.03"/>
</g>
<!-- Node18&#45;&gt;Node4 -->
<g id="edge24" class="edge">
<title>Node18&#45;&gt;Node4</title>
<path fill="none" stroke="midnightblue" d="M453.86,-117.98C455.72,-109.49 458.62,-96.2 461,-85.32"/>
<polygon fill="midnightblue" stroke="midnightblue" points="464.43,-86.03 463.14,-75.51 457.59,-84.53 464.43,-86.03"/>
</g>
<!-- Node19 -->
<g id="node19" class="node">
<title>Node19</title>
<g id="a_node19"><a xlink:title=" ">
<polygon fill="none" stroke="#bfbfbf" points="505,-56.5 505,-75.5 565,-75.5 565,-56.5 505,-56.5"/>
<text text-anchor="middle" x="535" y="-63.5" font-family="Helvetica,sans-Serif" font-size="10.00">iostream</text>
</a>
</g>
</g>
<!-- Node18&#45;&gt;Node19 -->
<g id="edge20" class="edge">
<title>Node18&#45;&gt;Node19</title>
<path fill="none" stroke="midnightblue" d="M463.89,-117.98C477.2,-108.43 499,-92.81 514.96,-81.37"/>
<polygon fill="midnightblue" stroke="midnightblue" points="517.04,-84.18 523.13,-75.51 512.96,-78.49 517.04,-84.18"/>
</g>
<!-- Node20 -->
<g id="node20" class="node">
<title>Node20</title>
<g id="a_node20"><a xlink:title=" ">
<polygon fill="none" stroke="#bfbfbf" points="871.5,-0.5 871.5,-19.5 928.5,-19.5 928.5,-0.5 871.5,-0.5"/>
<text text-anchor="middle" x="900" y="-7.5" font-family="Helvetica,sans-Serif" font-size="10.00">ostream</text>
</a>
</g>
</g>
<!-- Node18&#45;&gt;Node20 -->
<g id="edge21" class="edge">
<title>Node18&#45;&gt;Node20</title>
<path fill="none" stroke="midnightblue" d="M474.31,-117.98C498.97,-108.4 539.75,-92.06 574,-76 591.28,-67.9 593.88,-62 612,-56 698.2,-27.46 805.06,-16.82 861.26,-13.01"/>
<polygon fill="midnightblue" stroke="midnightblue" points="861.72,-16.49 871.47,-12.35 861.27,-9.5 861.72,-16.49"/>
</g>
<!-- Node21 -->
<g id="node21" class="node">
<title>Node21</title>
<g id="a_node21"><a xlink:title=" ">
<polygon fill="none" stroke="#bfbfbf" points="621,-56.5 621,-75.5 671,-75.5 671,-56.5 621,-56.5"/>
<text text-anchor="middle" x="646" y="-63.5" font-family="Helvetica,sans-Serif" font-size="10.00">ranges</text>
</a>
</g>
</g>
<!-- Node18&#45;&gt;Node21 -->
<g id="edge22" class="edge">
<title>Node18&#45;&gt;Node21</title>
<path fill="none" stroke="midnightblue" d="M479.8,-117.98C514.27,-107.4 573.09,-89.36 610.71,-77.82"/>
<polygon fill="midnightblue" stroke="midnightblue" points="612.19,-81.03 620.72,-74.75 610.14,-74.34 612.19,-81.03"/>
</g>
<!-- Node18&#45;&gt;Node22 -->
<g id="edge25" class="edge">
<title>Node18&#45;&gt;Node22</title>
<path fill="none" stroke="midnightblue" d="M440.54,-117.98C427.83,-108.52 407.09,-93.1 391.75,-81.69"/>
<polygon fill="midnightblue" stroke="midnightblue" points="393.55,-78.67 383.44,-75.51 389.38,-84.29 393.55,-78.67"/>
</g>
<!-- Node23 -->
<g id="node23" class="node">
<title>Node23</title>
<g id="a_node23"><a xlink:title=" ">
<polygon fill="none" stroke="#bfbfbf" points="673,-0.5 673,-19.5 725,-19.5 725,-0.5 673,-0.5"/>
<text text-anchor="middle" x="699" y="-7.5" font-family="Helvetica,sans-Serif" font-size="10.00">cassert</text>
</a>
</g>
</g>
<!-- Node22&#45;&gt;Node23 -->
<g id="edge26" class="edge">
<title>Node22&#45;&gt;Node23</title>
<path fill="none" stroke="midnightblue" d="M423.81,-56.44C490.44,-45.44 604.47,-26.61 662.6,-17.01"/>
<polygon fill="midnightblue" stroke="midnightblue" points="663.49,-20.41 672.78,-15.33 662.35,-13.51 663.49,-20.41"/>
</g>
<!-- Node24&#45;&gt;Node20 -->
<g id="edge30" class="edge">
<title>Node24&#45;&gt;Node20</title>
<path fill="none" stroke="midnightblue" d="M1127.22,-56.44C1075.3,-46.06 988.52,-28.7 938.57,-18.71"/>
<polygon fill="midnightblue" stroke="midnightblue" points="938.99,-15.23 928.5,-16.7 937.62,-22.09 938.99,-15.23"/>
</g>
<!-- Node25 -->
<g id="node25" class="node">
<title>Node25</title>
<g id="a_node25"><a xlink:title=" ">
<polygon fill="none" stroke="#bfbfbf" points="1180,-0.5 1180,-19.5 1230,-19.5 1230,-0.5 1180,-0.5"/>
<text text-anchor="middle" x="1205" y="-7.5" font-family="Helvetica,sans-Serif" font-size="10.00">cstdint</text>
</a>
</g>
</g>
<!-- Node24&#45;&gt;Node25 -->
<g id="edge28" class="edge">
<title>Node24&#45;&gt;Node25</title>
<path fill="none" stroke="midnightblue" d="M1175.78,-56.08C1180.67,-48.53 1187.83,-37.49 1193.83,-28.23"/>
<polygon fill="midnightblue" stroke="midnightblue" points="1196.83,-30.05 1199.33,-19.75 1190.95,-26.24 1196.83,-30.05"/>
</g>
<!-- Node26 -->
<g id="node26" class="node">
<title>Node26</title>
<g id="a_node26"><a xlink:title=" ">
<polygon fill="none" stroke="#bfbfbf" points="1248,-0.5 1248,-19.5 1292,-19.5 1292,-0.5 1248,-0.5"/>
<text text-anchor="middle" x="1270" y="-7.5" font-family="Helvetica,sans-Serif" font-size="10.00">limits</text>
</a>
</g>
</g>
<!-- Node24&#45;&gt;Node26 -->
<g id="edge29" class="edge">
<title>Node24&#45;&gt;Node26</title>
<path fill="none" stroke="midnightblue" d="M1186.07,-56.32C1201.96,-47.74 1226.51,-34.49 1244.96,-24.52"/>
<polygon fill="midnightblue" stroke="midnightblue" points="1246.84,-27.49 1253.97,-19.65 1243.51,-21.33 1246.84,-27.49"/>
</g>
<!-- Node27 -->
<g id="node27" class="node">
<title>Node27</title>
<g id="a_node27"><a xlink:title=" ">
<polygon fill="none" stroke="#bfbfbf" points="1428.5,-0.5 1428.5,-19.5 1497.5,-19.5 1497.5,-0.5 1428.5,-0.5"/>
<text text-anchor="middle" x="1463" y="-7.5" font-family="Helvetica,sans-Serif" font-size="10.00">type_traits</text>
</a>
</g>
</g>
<!-- Node24&#45;&gt;Node27 -->
<g id="edge31" class="edge">
<title>Node24&#45;&gt;Node27</title>
<path fill="none" stroke="midnightblue" d="M1216.43,-56.44C1271.76,-46.25 1363.57,-29.32 1418.18,-19.26"/>
<polygon fill="midnightblue" stroke="midnightblue" points="1419.06,-22.66 1428.26,-17.4 1417.79,-15.77 1419.06,-22.66"/>
</g>
<!-- Node28 -->
<g id="node28" class="node">
<title>Node28</title>
<g id="a_node28"><a xlink:title=" ">
<polygon fill="none" stroke="#bfbfbf" points="1040.5,-0.5 1040.5,-19.5 1087.5,-19.5 1087.5,-0.5 1040.5,-0.5"/>
<text text-anchor="middle" x="1064" y="-7.5" font-family="Helvetica,sans-Serif" font-size="10.00">cmath</text>
</a>
</g>
</g>
<!-- Node24&#45;&gt;Node28 -->
<g id="edge32" class="edge">
<title>Node24&#45;&gt;Node28</title>
<path fill="none" stroke="midnightblue" d="M1152.97,-56.32C1135.97,-47.66 1109.62,-34.24 1090.01,-24.25"/>
<polygon fill="midnightblue" stroke="midnightblue" points="1091.49,-21.08 1080.99,-19.65 1088.31,-27.31 1091.49,-21.08"/>
</g>
<!-- Node29 -->
<g id="node29" class="node">
<title>Node29</title>
<g id="a_node29"><a xlink:title=" ">
<polygon fill="none" stroke="#bfbfbf" points="1106,-0.5 1106,-19.5 1162,-19.5 1162,-0.5 1106,-0.5"/>
<text text-anchor="middle" x="1134" y="-7.5" font-family="Helvetica,sans-Serif" font-size="10.00">half.hpp</text>
</a>
</g>
</g>
<!-- Node24&#45;&gt;Node29 -->
<g id="edge33" class="edge">
<title>Node24&#45;&gt;Node29</title>
<path fill="none" stroke="midnightblue" d="M1164.06,-56.08C1159.02,-48.53 1151.66,-37.49 1145.49,-28.23"/>
<polygon fill="midnightblue" stroke="midnightblue" points="1148.29,-26.13 1139.83,-19.75 1142.47,-30.01 1148.29,-26.13"/>
</g>
<!-- Node30&#45;&gt;Node13 -->
<g id="edge44" class="edge">
<title>Node30&#45;&gt;Node13</title>
<path fill="none" stroke="midnightblue" d="M1622.63,-117.98C1648.42,-107.81 1691.71,-90.76 1721.04,-79.2"/>
<polygon fill="midnightblue" stroke="midnightblue" points="1722.38,-82.43 1730.41,-75.51 1719.82,-75.92 1722.38,-82.43"/>
</g>
<!-- Node30&#45;&gt;Node21 -->
<g id="edge42" class="edge">
<title>Node30&#45;&gt;Node21</title>
<path fill="none" stroke="midnightblue" d="M1571.21,-117.98C1561.93,-115.65 1551.6,-113.39 1542,-112 1196.33,-62.09 1105.55,-98.12 757,-76 731.63,-74.39 703.04,-72.06 681.23,-70.17"/>
<polygon fill="midnightblue" stroke="midnightblue" points="681.38,-66.67 671.11,-69.29 680.77,-73.65 681.38,-66.67"/>
</g>
<!-- Node30&#45;&gt;Node23 -->
<g id="edge35" class="edge">
<title>Node30&#45;&gt;Node23</title>
<path fill="none" stroke="midnightblue" d="M1570.26,-117.97C1561.22,-115.73 1551.26,-113.51 1542,-112 1351.86,-80.91 1301.28,-99.06 1110,-76 970.89,-59.23 806.64,-30.56 735.2,-17.65"/>
<polygon fill="midnightblue" stroke="midnightblue" points="735.82,-14.2 725.35,-15.86 734.57,-21.09 735.82,-14.2"/>
</g>
<!-- Node30&#45;&gt;Node27 -->
<g id="edge43" class="edge">
<title>Node30&#45;&gt;Node27</title>
<path fill="none" stroke="midnightblue" d="M1592.72,-117.82C1579.43,-104.07 1552.24,-76.71 1527,-56 1513.56,-44.98 1497.57,-33.73 1484.93,-25.24"/>
<polygon fill="midnightblue" stroke="midnightblue" points="1486.68,-22.2 1476.41,-19.59 1482.81,-28.03 1486.68,-22.2"/>
</g>
<!-- Node31 -->
<g id="node31" class="node">
<title>Node31</title>
<g id="a_node31"><a xlink:title=" ">
<polygon fill="none" stroke="#bfbfbf" points="1574.5,-56.5 1574.5,-75.5 1627.5,-75.5 1627.5,-56.5 1574.5,-56.5"/>
<text text-anchor="middle" x="1601" y="-63.5" font-family="Helvetica,sans-Serif" font-size="10.00">cstddef</text>
</a>
</g>
</g>
<!-- Node30&#45;&gt;Node31 -->
<g id="edge36" class="edge">
<title>Node30&#45;&gt;Node31</title>
<path fill="none" stroke="midnightblue" d="M1601,-117.98C1601,-109.58 1601,-96.48 1601,-85.66"/>
<polygon fill="midnightblue" stroke="midnightblue" points="1604.5,-85.51 1601,-75.51 1597.5,-85.51 1604.5,-85.51"/>
</g>
<!-- Node32 -->
<g id="node32" class="node">
<title>Node32</title>
<g id="a_node32"><a xlink:title=" ">
<polygon fill="none" stroke="#bfbfbf" points="766,-56.5 766,-75.5 816,-75.5 816,-56.5 766,-56.5"/>
<text text-anchor="middle" x="791" y="-63.5" font-family="Helvetica,sans-Serif" font-size="10.00">cstring</text>
</a>
</g>
</g>
<!-- Node30&#45;&gt;Node32 -->
<g id="edge37" class="edge">
<title>Node30&#45;&gt;Node32</title>
<path fill="none" stroke="midnightblue" d="M1570.89,-117.99C1561.69,-115.69 1551.49,-113.44 1542,-112 1470.81,-101.21 965.08,-75.62 826.2,-68.73"/>
<polygon fill="midnightblue" stroke="midnightblue" points="826.27,-65.23 816.11,-68.23 825.92,-72.22 826.27,-65.23"/>
</g>
<!-- Node33 -->
<g id="node33" class="node">
<title>Node33</title>
<g id="a_node33"><a xlink:title=" ">
<polygon fill="none" stroke="#bfbfbf" points="1646,-56.5 1646,-75.5 1710,-75.5 1710,-56.5 1646,-56.5"/>
<text text-anchor="middle" x="1678" y="-63.5" font-family="Helvetica,sans-Serif" font-size="10.00">algorithm</text>
</a>
</g>
</g>
<!-- Node30&#45;&gt;Node33 -->
<g id="edge38" class="edge">
<title>Node30&#45;&gt;Node33</title>
<path fill="none" stroke="midnightblue" d="M1612.03,-117.98C1624.27,-108.52 1644.23,-93.1 1658.99,-81.69"/>
<polygon fill="midnightblue" stroke="midnightblue" points="1661.22,-84.39 1666.99,-75.51 1656.94,-78.85 1661.22,-84.39"/>
</g>
<!-- Node34 -->
<g id="node34" class="node">
<title>Node34</title>
<g id="a_node34"><a xlink:title=" ">
<polygon fill="none" stroke="#bfbfbf" points="1280.5,-56.5 1280.5,-75.5 1345.5,-75.5 1345.5,-56.5 1280.5,-56.5"/>
<text text-anchor="middle" x="1313" y="-63.5" font-family="Helvetica,sans-Serif" font-size="10.00">functional</text>
</a>
</g>
</g>
<!-- Node30&#45;&gt;Node34 -->
<g id="edge39" class="edge">
<title>Node30&#45;&gt;Node34</title>
<path fill="none" stroke="midnightblue" d="M1567.68,-118C1559.32,-115.95 1550.35,-113.83 1542,-112 1462.39,-94.57 1439.61,-92.97 1355.54,-76.07"/>
<polygon fill="midnightblue" stroke="midnightblue" points="1356.04,-72.6 1345.55,-74.04 1354.65,-79.46 1356.04,-72.6"/>
</g>
<!-- Node35 -->
<g id="node35" class="node">
<title>Node35</title>
<g id="a_node35"><a xlink:title=" ">
<polygon fill="none" stroke="#bfbfbf" points="1363.5,-56.5 1363.5,-75.5 1446.5,-75.5 1446.5,-56.5 1363.5,-56.5"/>
<text text-anchor="middle" x="1405" y="-63.5" font-family="Helvetica,sans-Serif" font-size="10.00">initializer_list</text>
</a>
</g>
</g>
<!-- Node30&#45;&gt;Node35 -->
<g id="edge40" class="edge">
<title>Node30&#45;&gt;Node35</title>
<path fill="none" stroke="midnightblue" d="M1572.92,-117.98C1538.71,-107.59 1480.8,-90.01 1442.73,-78.45"/>
<polygon fill="midnightblue" stroke="midnightblue" points="1443.62,-75.06 1433.03,-75.51 1441.58,-81.76 1443.62,-75.06"/>
</g>
<!-- Node36 -->
<g id="node36" class="node">
<title>Node36</title>
<g id="a_node36"><a xlink:title=" ">
<polygon fill="none" stroke="#bfbfbf" points="1464.5,-56.5 1464.5,-75.5 1517.5,-75.5 1517.5,-56.5 1464.5,-56.5"/>
<text text-anchor="middle" x="1491" y="-63.5" font-family="Helvetica,sans-Serif" font-size="10.00">iterator</text>
</a>
</g>
</g>
<!-- Node30&#45;&gt;Node36 -->
<g id="edge41" class="edge">
<title>Node30&#45;&gt;Node36</title>
<path fill="none" stroke="midnightblue" d="M1585.24,-117.98C1567.02,-108.12 1536.83,-91.79 1515.53,-80.27"/>
<polygon fill="midnightblue" stroke="midnightblue" points="1517.19,-77.19 1506.73,-75.51 1513.86,-83.35 1517.19,-77.19"/>
</g>
<!-- Node37&#45;&gt;Node23 -->
<g id="edge46" class="edge">
<title>Node37&#45;&gt;Node23</title>
<path fill="none" stroke="midnightblue" d="M697.15,-117.82C697.47,-99.26 698.23,-55.34 698.67,-29.97"/>
<polygon fill="midnightblue" stroke="midnightblue" points="702.17,-29.84 698.85,-19.78 695.18,-29.72 702.17,-29.84"/>
</g>
<!-- Node37&#45;&gt;Node32 -->
<g id="edge47" class="edge">
<title>Node37&#45;&gt;Node32</title>
<path fill="none" stroke="midnightblue" d="M710.47,-117.98C725.68,-108.34 750.69,-92.52 768.8,-81.05"/>
<polygon fill="midnightblue" stroke="midnightblue" points="770.98,-83.81 777.56,-75.51 767.24,-77.9 770.98,-83.81"/>
</g>
<!-- Node38&#45;&gt;Node15 -->
<g id="edge51" class="edge">
<title>Node38&#45;&gt;Node15</title>
<path fill="none" stroke="midnightblue" d="M1076.06,-179.44C1037.6,-170.95 976.84,-157.45 915.14,-143.25"/>
<polygon fill="midnightblue" stroke="midnightblue" points="915.76,-139.8 905.23,-140.96 914.19,-146.62 915.76,-139.8"/>
</g>
<!-- Node38&#45;&gt;Node16 -->
<g id="edge52" class="edge">
<title>Node38&#45;&gt;Node16</title>
<path fill="none" stroke="midnightblue" d="M1094.94,-179.48C1074.83,-170.93 1043.24,-157.5 1017.53,-146.57"/>
<polygon fill="midnightblue" stroke="midnightblue" points="1018.57,-143.21 1008,-142.52 1015.83,-149.66 1018.57,-143.21"/>
</g>
<!-- Node39 -->
<g id="node39" class="node">
<title>Node39</title>
<g id="a_node39"><a xlink:title=" ">
<polygon fill="none" stroke="#bfbfbf" points="1368.5,-118 1368.5,-137 1415.5,-137 1415.5,-118 1368.5,-118"/>
<text text-anchor="middle" x="1392" y="-125" font-family="Helvetica,sans-Serif" font-size="10.00">queue</text>
</a>
</g>
</g>
<!-- Node38&#45;&gt;Node39 -->
<g id="edge49" class="edge">
<title>Node38&#45;&gt;Node39</title>
<path fill="none" stroke="midnightblue" d="M1175.65,-181.05C1225.85,-174.3 1298.61,-162.23 1360,-143 1361.88,-142.41 1363.79,-141.74 1365.7,-141.02"/>
<polygon fill="midnightblue" stroke="midnightblue" points="1367.16,-144.2 1375.03,-137.12 1364.45,-137.75 1367.16,-144.2"/>
</g>
<!-- Node40 -->
<g id="node40" class="node">
<title>Node40</title>
<g id="a_node40"><a xlink:title=" ">
<polygon fill="none" stroke="#bfbfbf" points="1045.5,-118 1045.5,-137 1088.5,-137 1088.5,-118 1045.5,-118"/>
<text text-anchor="middle" x="1067" y="-125" font-family="Helvetica,sans-Serif" font-size="10.00">stack</text>
</a>
</g>
</g>
<!-- Node38&#45;&gt;Node40 -->
<g id="edge50" class="edge">
<title>Node38&#45;&gt;Node40</title>
<path fill="none" stroke="midnightblue" d="M1108.12,-179.48C1100.85,-170.46 1089.2,-156.02 1080.16,-144.81"/>
<polygon fill="midnightblue" stroke="midnightblue" points="1082.87,-142.59 1073.86,-137.01 1077.42,-146.99 1082.87,-142.59"/>
</g>
<!-- Node41 -->
<g id="node41" class="node">
<title>Node41</title>
<g id="a_node41"><a xlink:title=" ">
<polygon fill="none" stroke="#bfbfbf" points="1106.5,-112.5 1106.5,-142.5 1219.5,-142.5 1219.5,-112.5 1106.5,-112.5"/>
<text text-anchor="start" x="1114.5" y="-130.5" font-family="Helvetica,sans-Serif" font-size="10.00">absl/container/node</text>
<text text-anchor="middle" x="1163" y="-119.5" font-family="Helvetica,sans-Serif" font-size="10.00">_hash_map.h</text>
</a>
</g>
</g>
<!-- Node38&#45;&gt;Node41 -->
<g id="edge53" class="edge">
<title>Node38&#45;&gt;Node41</title>
<path fill="none" stroke="midnightblue" d="M1121.88,-179.48C1127.95,-171.94 1137.08,-160.63 1145.2,-150.57"/>
<polygon fill="midnightblue" stroke="midnightblue" points="1148.13,-152.5 1151.69,-142.52 1142.68,-148.11 1148.13,-152.5"/>
</g>
<!-- Node42 -->
<g id="node42" class="node">
<title>Node42</title>
<g id="a_node42"><a xlink:title=" ">
<polygon fill="none" stroke="#bfbfbf" points="1237.5,-112.5 1237.5,-142.5 1350.5,-142.5 1350.5,-112.5 1237.5,-112.5"/>
<text text-anchor="start" x="1245.5" y="-130.5" font-family="Helvetica,sans-Serif" font-size="10.00">absl/container/node</text>
<text text-anchor="middle" x="1294" y="-119.5" font-family="Helvetica,sans-Serif" font-size="10.00">_hash_set.h</text>
</a>
</g>
</g>
<!-- Node38&#45;&gt;Node42 -->
<g id="edge54" class="edge">
<title>Node38&#45;&gt;Node42</title>
<path fill="none" stroke="midnightblue" d="M1140.65,-179.48C1167.04,-170.7 1208.9,-156.79 1242.22,-145.71"/>
<polygon fill="midnightblue" stroke="midnightblue" points="1243.43,-149 1251.81,-142.52 1241.22,-142.36 1243.43,-149"/>
</g>
<!-- Node38&#45;&gt;Node43 -->
<g id="edge55" class="edge">
<title>Node38&#45;&gt;Node43</title>
<path fill="none" stroke="midnightblue" d="M1175.6,-181.04C1238.32,-173.4 1338.96,-159.95 1425,-143 1430.35,-141.95 1435.94,-140.72 1441.45,-139.42"/>
<polygon fill="midnightblue" stroke="midnightblue" points="1442.32,-142.81 1451.22,-137.06 1440.68,-136.01 1442.32,-142.81"/>
</g>
<!-- Node43&#45;&gt;Node24 -->
<g id="edge56" class="edge">
<title>Node43&#45;&gt;Node24</title>
<path fill="none" stroke="midnightblue" d="M1450.58,-117.97C1442.27,-115.9 1433.32,-113.77 1425,-112 1359.46,-98.04 1283.79,-85.08 1232,-76.69"/>
<polygon fill="midnightblue" stroke="midnightblue" points="1232.41,-73.21 1221.98,-75.07 1231.29,-80.12 1232.41,-73.21"/>
</g>
<!-- Node45&#45;&gt;Node3 -->
<g id="edge63" class="edge">
<title>Node45&#45;&gt;Node3</title>
<path fill="none" stroke="midnightblue" d="M259.13,-235.43C250.22,-227.08 237.54,-213.55 231,-199 214.14,-161.47 211.53,-112.44 211.51,-85.96"/>
<polygon fill="midnightblue" stroke="midnightblue" points="215.02,-85.84 211.64,-75.79 208.02,-85.75 215.02,-85.84"/>
</g>
<!-- Node45&#45;&gt;Node14 -->
<g id="edge65" class="edge">
<title>Node45&#45;&gt;Node14</title>
<path fill="none" stroke="midnightblue" d="M309.16,-240.58C382.49,-234.15 543.16,-219.19 688.36,-199.16"/>
<polygon fill="midnightblue" stroke="midnightblue" points="688.92,-202.61 698.34,-197.77 687.95,-195.68 688.92,-202.61"/>
</g>
<!-- Node45&#45;&gt;Node18 -->
<g id="edge66" class="edge">
<title>Node45&#45;&gt;Node18</title>
<path fill="none" stroke="midnightblue" d="M282.75,-235.32C314.02,-215.59 390.68,-167.2 429.17,-142.91"/>
<polygon fill="midnightblue" stroke="midnightblue" points="431.5,-145.58 438.09,-137.28 427.76,-139.66 431.5,-145.58"/>
</g>
<!-- Node46 -->
<g id="node46" class="node">
<title>Node46</title>
<g id="a_node46"><a xlink:title=" ">
<polygon fill="none" stroke="#bfbfbf" points="240.5,-179.5 240.5,-198.5 305.5,-198.5 305.5,-179.5 240.5,-179.5"/>
<text text-anchor="middle" x="273" y="-186.5" font-family="Helvetica,sans-Serif" font-size="10.00">stdexcept</text>
</a>
</g>
</g>
<!-- Node45&#45;&gt;Node46 -->
<g id="edge64" class="edge">
<title>Node45&#45;&gt;Node46</title>
<path fill="none" stroke="midnightblue" d="M269.66,-235.08C270.18,-228.01 270.94,-217.86 271.59,-208.99"/>
<polygon fill="midnightblue" stroke="midnightblue" points="275.1,-208.98 272.35,-198.75 268.12,-208.47 275.1,-208.98"/>
</g>
<!-- Node47&#45;&gt;Node11 -->
<g id="edge68" class="edge">
<title>Node47&#45;&gt;Node11</title>
<path fill="none" stroke="midnightblue" d="M888.17,-291.08C887.52,-284.01 886.58,-273.86 885.76,-264.99"/>
<polygon fill="midnightblue" stroke="midnightblue" points="889.22,-264.39 884.81,-254.75 882.25,-265.03 889.22,-264.39"/>
</g>
<!-- Node48&#45;&gt;Node11 -->
<g id="edge70" class="edge">
<title>Node48&#45;&gt;Node11</title>
<path fill="none" stroke="midnightblue" d="M974.65,-291.32C957.33,-282.66 930.48,-269.24 910.5,-259.25"/>
<polygon fill="midnightblue" stroke="midnightblue" points="911.82,-256 901.31,-254.65 908.69,-262.26 911.82,-256"/>
</g>
<!-- Node49&#45;&gt;Node14 -->
<g id="edge73" class="edge">
<title>Node49&#45;&gt;Node14</title>
<path fill="none" stroke="midnightblue" d="M527.41,-235.44C571.98,-226 643.77,-210.8 691.89,-200.61"/>
<polygon fill="midnightblue" stroke="midnightblue" points="692.73,-204.01 701.78,-198.52 691.28,-197.16 692.73,-204.01"/>
</g>
<!-- Node49&#45;&gt;Node18 -->
<g id="edge74" class="edge">
<title>Node49&#45;&gt;Node18</title>
<path fill="none" stroke="midnightblue" d="M484.37,-235.32C478.72,-216.67 465.32,-172.44 457.65,-147.13"/>
<polygon fill="midnightblue" stroke="midnightblue" points="460.91,-145.84 454.66,-137.28 454.21,-147.87 460.91,-145.84"/>
</g>
<!-- Node50&#45;&gt;Node11 -->
<g id="edge76" class="edge">
<title>Node50&#45;&gt;Node11</title>
<path fill="none" stroke="midnightblue" d="M780.49,-291.44C800.64,-282.6 832.32,-268.69 855.33,-258.59"/>
<polygon fill="midnightblue" stroke="midnightblue" points="856.85,-261.74 864.6,-254.52 854.04,-255.33 856.85,-261.74"/>
</g>
<!-- Node50&#45;&gt;Node18 -->
<g id="edge77" class="edge">
<title>Node50&#45;&gt;Node18</title>
<path fill="none" stroke="midnightblue" d="M741.02,-291.46C689.31,-269.29 553.77,-210.83 535,-199 509.66,-183.04 483.91,-159.84 467.95,-144.47"/>
<polygon fill="midnightblue" stroke="midnightblue" points="470.14,-141.72 460.55,-137.23 465.25,-146.72 470.14,-141.72"/>
</g>
</g>
</svg>
