<?xml version="1.0" encoding="UTF-8" standalone="no"?>
<!DOCTYPE svg PUBLIC "-//W3C//DTD SVG 1.1//EN"
 "http://www.w3.org/Graphics/SVG/1.1/DTD/svg11.dtd">
<!-- Generated by graphviz version 2.43.0 (0)
 -->
<!-- Title: thorin/rewrite.cpp Pages: 1 -->
<svg width="1360pt" height="544pt"
 viewBox="0.00 0.00 1360.00 544.00" xmlns="http://www.w3.org/2000/svg" xmlns:xlink="http://www.w3.org/1999/xlink">
<g id="graph0" class="graph" transform="scale(1 1) rotate(0) translate(4 540)">
<title>thorin/rewrite.cpp</title>
<!-- Node1 -->
<g id="node1" class="node">
<title>Node1</title>
<g id="a_node1"><a xlink:title=" ">
<polygon fill="#999999" stroke="#666666" points="1222.5,-536 1119.5,-536 1119.5,-517 1222.5,-517 1222.5,-536"/>
<text text-anchor="middle" x="1171" y="-524" font-family="Helvetica,sans-Serif" font-size="10.00">thorin/rewrite.cpp</text>
</a>
</g>
</g>
<!-- Node2 -->
<g id="node2" class="node">
<title>Node2</title>
<g id="a_node2"><a xlink:href="rewrite_8h.html" target="_top" xlink:title=" ">
<polygon fill="white" stroke="#666666" points="1217,-481 1125,-481 1125,-462 1217,-462 1217,-481"/>
<text text-anchor="middle" x="1171" y="-469" font-family="Helvetica,sans-Serif" font-size="10.00">thorin/rewrite.h</text>
</a>
</g>
</g>
<!-- Node1&#45;&gt;Node2 -->
<g id="edge1" class="edge">
<title>Node1&#45;&gt;Node2</title>
<path fill="none" stroke="#63b8ff" d="M1171,-516.75C1171,-509.8 1171,-499.85 1171,-491.13"/>
<polygon fill="#63b8ff" stroke="#63b8ff" points="1174.5,-491.09 1171,-481.09 1167.5,-491.09 1174.5,-491.09"/>
</g>
<!-- Node3 -->
<g id="node3" class="node">
<title>Node3</title>
<g id="a_node3"><a xlink:href="world_8h.html" target="_top" xlink:title=" ">
<polygon fill="white" stroke="#666666" points="940,-426 856,-426 856,-407 940,-407 940,-426"/>
<text text-anchor="middle" x="898" y="-414" font-family="Helvetica,sans-Serif" font-size="10.00">thorin/world.h</text>
</a>
</g>
</g>
<!-- Node1&#45;&gt;Node3 -->
<g id="edge75" class="edge">
<title>Node1&#45;&gt;Node3</title>
<path fill="none" stroke="#63b8ff" d="M1149.12,-516.84C1100.78,-497.72 984.75,-451.82 928.97,-429.75"/>
<polygon fill="#63b8ff" stroke="#63b8ff" points="930.19,-426.47 919.6,-426.05 927.62,-432.98 930.19,-426.47"/>
</g>
<!-- Node51 -->
<g id="node50" class="node">
<title>Node51</title>
<g id="a_node50"><a xlink:href="scope_8h.html" target="_top" xlink:title=" ">
<polygon fill="white" stroke="#666666" points="1352,-426 1220,-426 1220,-407 1352,-407 1352,-426"/>
<text text-anchor="middle" x="1286" y="-414" font-family="Helvetica,sans-Serif" font-size="10.00">thorin/analyses/scope.h</text>
</a>
</g>
</g>
<!-- Node1&#45;&gt;Node51 -->
<g id="edge76" class="edge">
<title>Node1&#45;&gt;Node51</title>
<path fill="none" stroke="#63b8ff" d="M1182.75,-516.73C1194.15,-508.05 1211.76,-494.19 1226,-481 1242.43,-465.78 1259.87,-447 1271.69,-433.82"/>
<polygon fill="#63b8ff" stroke="#63b8ff" points="1274.55,-435.86 1278.57,-426.06 1269.32,-431.22 1274.55,-435.86"/>
</g>
<!-- Node2&#45;&gt;Node3 -->
<g id="edge2" class="edge">
<title>Node2&#45;&gt;Node3</title>
<path fill="none" stroke="#63b8ff" d="M1127.14,-461.98C1078.95,-452.63 1001.61,-437.61 950.3,-427.65"/>
<polygon fill="#63b8ff" stroke="#63b8ff" points="950.89,-424.2 940.41,-425.73 949.56,-431.07 950.89,-424.2"/>
</g>
<!-- Node2&#45;&gt;Node51 -->
<g id="edge72" class="edge">
<title>Node2&#45;&gt;Node51</title>
<path fill="none" stroke="#63b8ff" d="M1189.48,-461.98C1207.98,-453.46 1236.68,-440.23 1257.98,-430.41"/>
<polygon fill="#63b8ff" stroke="#63b8ff" points="1259.57,-433.53 1267.19,-426.17 1256.64,-427.18 1259.57,-433.53"/>
</g>
<!-- Node4 -->
<g id="node4" class="node">
<title>Node4</title>
<g id="a_node4"><a xlink:title=" ">
<polygon fill="#e0e0e0" stroke="#999999" points="1300,-74 1244,-74 1244,-55 1300,-55 1300,-74"/>
<text text-anchor="middle" x="1272" y="-62" font-family="Helvetica,sans-Serif" font-size="10.00">sstream</text>
</a>
</g>
</g>
<!-- Node3&#45;&gt;Node4 -->
<g id="edge3" class="edge">
<title>Node3&#45;&gt;Node4</title>
<path fill="none" stroke="#63b8ff" d="M940.16,-414.38C1017.61,-411.59 1178.76,-402.12 1224,-371 1278.08,-333.8 1295,-307.14 1295,-241.5 1295,-241.5 1295,-241.5 1295,-184.5 1295,-148.33 1284.63,-107.09 1277.82,-83.89"/>
<polygon fill="#63b8ff" stroke="#63b8ff" points="1281.08,-82.6 1274.82,-74.05 1274.39,-84.64 1281.08,-82.6"/>
</g>
<!-- Node5 -->
<g id="node5" class="node">
<title>Node5</title>
<g id="a_node5"><a xlink:title=" ">
<polygon fill="#e0e0e0" stroke="#999999" points="1203,-74 1159,-74 1159,-55 1203,-55 1203,-74"/>
<text text-anchor="middle" x="1181" y="-62" font-family="Helvetica,sans-Serif" font-size="10.00">string</text>
</a>
</g>
</g>
<!-- Node3&#45;&gt;Node5 -->
<g id="edge4" class="edge">
<title>Node3&#45;&gt;Node5</title>
<path fill="none" stroke="#63b8ff" d="M940.12,-414.88C1013.97,-412.92 1162.56,-404.76 1200,-371 1225.38,-348.12 1219,-330.67 1219,-296.5 1219,-296.5 1219,-296.5 1219,-184.5 1219,-147.07 1201.73,-106.03 1190.48,-83.25"/>
<polygon fill="#63b8ff" stroke="#63b8ff" points="1193.49,-81.46 1185.81,-74.15 1187.26,-84.65 1193.49,-81.46"/>
</g>
<!-- Node6 -->
<g id="node6" class="node">
<title>Node6</title>
<g id="a_node6"><a xlink:title=" ">
<polygon fill="#e0e0e0" stroke="#999999" points="1020.5,-365.5 947.5,-365.5 947.5,-346.5 1020.5,-346.5 1020.5,-365.5"/>
<text text-anchor="middle" x="984" y="-353.5" font-family="Helvetica,sans-Serif" font-size="10.00">string_view</text>
</a>
</g>
</g>
<!-- Node3&#45;&gt;Node6 -->
<g id="edge5" class="edge">
<title>Node3&#45;&gt;Node6</title>
<path fill="none" stroke="#63b8ff" d="M910.69,-406.87C924.41,-397.54 946.5,-382.51 962.85,-371.38"/>
<polygon fill="#63b8ff" stroke="#63b8ff" points="964.96,-374.19 971.26,-365.67 961.02,-368.4 964.96,-374.19"/>
</g>
<!-- Node7 -->
<g id="node7" class="node">
<title>Node7</title>
<g id="a_node7"><a xlink:title=" ">
<polygon fill="#e0e0e0" stroke="#999999" points="1191,-371 1077,-371 1077,-341 1191,-341 1191,-371"/>
<text text-anchor="start" x="1085" y="-359" font-family="Helvetica,sans-Serif" font-size="10.00">absl/container/btree</text>
<text text-anchor="middle" x="1134" y="-348" font-family="Helvetica,sans-Serif" font-size="10.00">_map.h</text>
</a>
</g>
</g>
<!-- Node3&#45;&gt;Node7 -->
<g id="edge6" class="edge">
<title>Node3&#45;&gt;Node7</title>
<path fill="none" stroke="#63b8ff" d="M932.32,-406.99C967.62,-398.24 1023.5,-384.39 1067.5,-373.48"/>
<polygon fill="#63b8ff" stroke="#63b8ff" points="1068.4,-376.87 1077.26,-371.06 1066.71,-370.07 1068.4,-376.87"/>
</g>
<!-- Node8 -->
<g id="node8" class="node">
<title>Node8</title>
<g id="a_node8"><a xlink:title=" ">
<polygon fill="#e0e0e0" stroke="#999999" points="353,-371 239,-371 239,-341 353,-341 353,-371"/>
<text text-anchor="start" x="247" y="-359" font-family="Helvetica,sans-Serif" font-size="10.00">absl/container/btree</text>
<text text-anchor="middle" x="296" y="-348" font-family="Helvetica,sans-Serif" font-size="10.00">_set.h</text>
</a>
</g>
</g>
<!-- Node3&#45;&gt;Node8 -->
<g id="edge7" class="edge">
<title>Node3&#45;&gt;Node8</title>
<path fill="none" stroke="#63b8ff" d="M855.75,-413.81C766.56,-409.84 552.39,-398.27 363.28,-371.06"/>
<polygon fill="#63b8ff" stroke="#63b8ff" points="363.56,-367.56 353.16,-369.59 362.55,-374.49 363.56,-367.56"/>
</g>
<!-- Node9 -->
<g id="node9" class="node">
<title>Node9</title>
<g id="a_node9"><a xlink:href="axiom_8h.html" target="_top" xlink:title=" ">
<polygon fill="white" stroke="#666666" points="459,-365.5 371,-365.5 371,-346.5 459,-346.5 459,-365.5"/>
<text text-anchor="middle" x="415" y="-353.5" font-family="Helvetica,sans-Serif" font-size="10.00">thorin/axiom.h</text>
</a>
</g>
</g>
<!-- Node3&#45;&gt;Node9 -->
<g id="edge8" class="edge">
<title>Node3&#45;&gt;Node9</title>
<path fill="none" stroke="#63b8ff" d="M855.92,-412.23C781.05,-406.12 619.9,-391.71 485,-371 478.33,-369.98 471.34,-368.76 464.45,-367.47"/>
<polygon fill="#63b8ff" stroke="#63b8ff" points="464.98,-364 454.5,-365.55 463.66,-370.88 464.98,-364"/>
</g>
<!-- Node15 -->
<g id="node15" class="node">
<title>Node15</title>
<g id="a_node15"><a xlink:href="debug_8h.html" target="_top" xlink:title=" ">
<polygon fill="white" stroke="#666666" points="1034.5,-195 947.5,-195 947.5,-176 1034.5,-176 1034.5,-195"/>
<text text-anchor="middle" x="991" y="-183" font-family="Helvetica,sans-Serif" font-size="10.00">thorin/debug.h</text>
</a>
</g>
</g>
<!-- Node3&#45;&gt;Node15 -->
<g id="edge62" class="edge">
<title>Node3&#45;&gt;Node15</title>
<path fill="none" stroke="#63b8ff" d="M901.53,-406.8C915.2,-373.15 964.78,-251.05 983.65,-204.61"/>
<polygon fill="#63b8ff" stroke="#63b8ff" points="986.94,-205.79 987.46,-195.21 980.46,-203.15 986.94,-205.79"/>
</g>
<!-- Node38 -->
<g id="node37" class="node">
<title>Node38</title>
<g id="a_node37"><a xlink:href="hash_8h.html" target="_top" xlink:title=" ">
<polygon fill="white" stroke="#666666" points="792.5,-134.5 693.5,-134.5 693.5,-115.5 792.5,-115.5 792.5,-134.5"/>
<text text-anchor="middle" x="743" y="-122.5" font-family="Helvetica,sans-Serif" font-size="10.00">thorin/util/hash.h</text>
</a>
</g>
</g>
<!-- Node3&#45;&gt;Node38 -->
<g id="edge68" class="edge">
<title>Node3&#45;&gt;Node38</title>
<path fill="none" stroke="#63b8ff" d="M895.92,-406.9C891.38,-387.39 881,-338.24 881,-296.5 881,-296.5 881,-296.5 881,-239.5 881,-186.95 820.56,-154.24 779.68,-138.13"/>
<polygon fill="#63b8ff" stroke="#63b8ff" points="780.86,-134.84 770.26,-134.58 778.38,-141.38 780.86,-134.84"/>
</g>
<!-- Node44 -->
<g id="node43" class="node">
<title>Node44</title>
<g id="a_node43"><a xlink:href="check_8h.html" target="_top" xlink:title=" ">
<polygon fill="white" stroke="#666666" points="613,-365.5 527,-365.5 527,-346.5 613,-346.5 613,-365.5"/>
<text text-anchor="middle" x="570" y="-353.5" font-family="Helvetica,sans-Serif" font-size="10.00">thorin/check.h</text>
</a>
</g>
</g>
<!-- Node3&#45;&gt;Node44 -->
<g id="edge58" class="edge">
<title>Node3&#45;&gt;Node44</title>
<path fill="none" stroke="#63b8ff" d="M855.57,-409.58C802.06,-401.87 707.34,-387.44 627,-371 622.32,-370.04 617.44,-368.97 612.59,-367.84"/>
<polygon fill="#63b8ff" stroke="#63b8ff" points="613.29,-364.41 602.76,-365.51 611.68,-371.23 613.29,-364.41"/>
</g>
<!-- Node46 -->
<g id="node45" class="node">
<title>Node46</title>
<g id="a_node45"><a xlink:title=" ">
<polygon fill="#e0e0e0" stroke="#999999" points="755,-365.5 669,-365.5 669,-346.5 755,-346.5 755,-365.5"/>
<text text-anchor="middle" x="712" y="-353.5" font-family="Helvetica,sans-Serif" font-size="10.00">thorin/config.h</text>
</a>
</g>
</g>
<!-- Node3&#45;&gt;Node46 -->
<g id="edge61" class="edge">
<title>Node3&#45;&gt;Node46</title>
<path fill="none" stroke="#63b8ff" d="M870.95,-406.99C838.72,-396.86 784.71,-379.87 748.72,-368.55"/>
<polygon fill="#63b8ff" stroke="#63b8ff" points="749.67,-365.18 739.08,-365.52 747.57,-371.86 749.67,-365.18"/>
</g>
<!-- Node47 -->
<g id="node46" class="node">
<title>Node47</title>
<g id="a_node46"><a xlink:href="flags_8h.html" target="_top" xlink:title=" ">
<polygon fill="white" stroke="#666666" points="853,-365.5 773,-365.5 773,-346.5 853,-346.5 853,-365.5"/>
<text text-anchor="middle" x="813" y="-353.5" font-family="Helvetica,sans-Serif" font-size="10.00">thorin/flags.h</text>
</a>
</g>
</g>
<!-- Node3&#45;&gt;Node47 -->
<g id="edge63" class="edge">
<title>Node3&#45;&gt;Node47</title>
<path fill="none" stroke="#63b8ff" d="M885.46,-406.87C871.9,-397.54 850.06,-382.51 833.9,-371.38"/>
<polygon fill="#63b8ff" stroke="#63b8ff" points="835.82,-368.45 825.59,-365.67 831.85,-374.22 835.82,-368.45"/>
</g>
<!-- Node48 -->
<g id="node47" class="node">
<title>Node48</title>
<g id="a_node47"><a xlink:href="lattice_8h.html" target="_top" xlink:title=" ">
<polygon fill="white" stroke="#666666" points="756,-305 668,-305 668,-286 756,-286 756,-305"/>
<text text-anchor="middle" x="712" y="-293" font-family="Helvetica,sans-Serif" font-size="10.00">thorin/lattice.h</text>
</a>
</g>
</g>
<!-- Node3&#45;&gt;Node48 -->
<g id="edge64" class="edge">
<title>Node3&#45;&gt;Node48</title>
<path fill="none" stroke="#63b8ff" d="M855.96,-413.87C794.42,-410.51 684.44,-400.43 660,-371 643.53,-351.16 669.3,-326.28 690.08,-310.89"/>
<polygon fill="#63b8ff" stroke="#63b8ff" points="692.11,-313.73 698.26,-305.1 688.07,-308.02 692.11,-313.73"/>
</g>
<!-- Node49 -->
<g id="node48" class="node">
<title>Node49</title>
<g id="a_node48"><a xlink:href="tuple_8h.html" target="_top" xlink:title=" ">
<polygon fill="white" stroke="#666666" points="546,-305 464,-305 464,-286 546,-286 546,-305"/>
<text text-anchor="middle" x="505" y="-293" font-family="Helvetica,sans-Serif" font-size="10.00">thorin/tuple.h</text>
</a>
</g>
</g>
<!-- Node3&#45;&gt;Node49 -->
<g id="edge66" class="edge">
<title>Node3&#45;&gt;Node49</title>
<path fill="none" stroke="#63b8ff" d="M855.93,-413.38C762.13,-408.25 542.22,-393.9 518,-371 503.19,-357 501.56,-332.6 502.57,-315.55"/>
<polygon fill="#63b8ff" stroke="#63b8ff" points="506.1,-315.42 503.56,-305.14 499.13,-314.76 506.1,-315.42"/>
</g>
<!-- Node50 -->
<g id="node49" class="node">
<title>Node50</title>
<g id="a_node49"><a xlink:href="log_8h.html" target="_top" xlink:title=" ">
<polygon fill="white" stroke="#666666" points="1094.5,-250 1003.5,-250 1003.5,-231 1094.5,-231 1094.5,-250"/>
<text text-anchor="middle" x="1049" y="-238" font-family="Helvetica,sans-Serif" font-size="10.00">thorin/util/log.h</text>
</a>
</g>
</g>
<!-- Node3&#45;&gt;Node50 -->
<g id="edge69" class="edge">
<title>Node3&#45;&gt;Node50</title>
<path fill="none" stroke="#63b8ff" d="M940.06,-412.38C969.43,-407.88 1007.15,-397.03 1029,-371 1055.36,-339.59 1054.52,-288.21 1051.71,-260.56"/>
<polygon fill="#63b8ff" stroke="#63b8ff" points="1055.14,-259.79 1050.46,-250.28 1048.19,-260.63 1055.14,-259.79"/>
</g>
<!-- Node10 -->
<g id="node10" class="node">
<title>Node10</title>
<g id="a_node10"><a xlink:href="lam_8h.html" target="_top" xlink:title=" ">
<polygon fill="white" stroke="#666666" points="446,-305 370,-305 370,-286 446,-286 446,-305"/>
<text text-anchor="middle" x="408" y="-293" font-family="Helvetica,sans-Serif" font-size="10.00">thorin/lam.h</text>
</a>
</g>
</g>
<!-- Node9&#45;&gt;Node10 -->
<g id="edge9" class="edge">
<title>Node9&#45;&gt;Node10</title>
<path fill="none" stroke="#63b8ff" d="M413.97,-346.37C413,-338.25 411.51,-325.81 410.26,-315.39"/>
<polygon fill="#63b8ff" stroke="#63b8ff" points="413.7,-314.68 409.04,-305.17 406.75,-315.51 413.7,-314.68"/>
</g>
<!-- Node23 -->
<g id="node23" class="node">
<title>Node23</title>
<g id="a_node23"><a xlink:href="assert_8h.html" target="_top" xlink:title=" ">
<polygon fill="white" stroke="#666666" points="816,-74 710,-74 710,-55 816,-55 816,-74"/>
<text text-anchor="middle" x="763" y="-62" font-family="Helvetica,sans-Serif" font-size="10.00">thorin/util/assert.h</text>
</a>
</g>
</g>
<!-- Node9&#45;&gt;Node23 -->
<g id="edge57" class="edge">
<title>Node9&#45;&gt;Node23</title>
<path fill="none" stroke="#63b8ff" d="M400.37,-346.43C387.29,-337.84 368.98,-323.26 361,-305 324.37,-221.16 353.66,-164.7 427,-110 474.02,-74.93 625.64,-81.46 699.95,-73.96"/>
<polygon fill="#63b8ff" stroke="#63b8ff" points="700.37,-77.43 709.9,-72.8 699.57,-70.48 700.37,-77.43"/>
</g>
<!-- Node11 -->
<g id="node11" class="node">
<title>Node11</title>
<g id="a_node11"><a xlink:title=" ">
<polygon fill="#e0e0e0" stroke="#999999" points="433.5,-250 382.5,-250 382.5,-231 433.5,-231 433.5,-250"/>
<text text-anchor="middle" x="408" y="-238" font-family="Helvetica,sans-Serif" font-size="10.00">variant</text>
</a>
</g>
</g>
<!-- Node10&#45;&gt;Node11 -->
<g id="edge10" class="edge">
<title>Node10&#45;&gt;Node11</title>
<path fill="none" stroke="#63b8ff" d="M408,-285.75C408,-278.8 408,-268.85 408,-260.13"/>
<polygon fill="#63b8ff" stroke="#63b8ff" points="411.5,-260.09 408,-250.09 404.5,-260.09 411.5,-260.09"/>
</g>
<!-- Node12 -->
<g id="node12" class="node">
<title>Node12</title>
<g id="a_node12"><a xlink:href="def_8h.html" target="_top" xlink:title=" ">
<polygon fill="white" stroke="#666666" points="676,-250 604,-250 604,-231 676,-231 676,-250"/>
<text text-anchor="middle" x="640" y="-238" font-family="Helvetica,sans-Serif" font-size="10.00">thorin/def.h</text>
</a>
</g>
</g>
<!-- Node10&#45;&gt;Node12 -->
<g id="edge11" class="edge">
<title>Node10&#45;&gt;Node12</title>
<path fill="none" stroke="#63b8ff" d="M445.27,-285.98C485.8,-276.73 550.59,-261.93 594.18,-251.97"/>
<polygon fill="#63b8ff" stroke="#63b8ff" points="594.99,-255.37 603.96,-249.73 593.43,-248.55 594.99,-255.37"/>
</g>
<!-- Node13 -->
<g id="node13" class="node">
<title>Node13</title>
<g id="a_node13"><a xlink:title=" ">
<polygon fill="#e0e0e0" stroke="#999999" points="751,-195 695,-195 695,-176 751,-176 751,-195"/>
<text text-anchor="middle" x="723" y="-183" font-family="Helvetica,sans-Serif" font-size="10.00">optional</text>
</a>
</g>
</g>
<!-- Node12&#45;&gt;Node13 -->
<g id="edge12" class="edge">
<title>Node12&#45;&gt;Node13</title>
<path fill="none" stroke="#63b8ff" d="M653.34,-230.98C666.09,-222.84 685.55,-210.41 700.67,-200.76"/>
<polygon fill="#63b8ff" stroke="#63b8ff" points="702.88,-203.5 709.42,-195.17 699.11,-197.6 702.88,-203.5"/>
</g>
<!-- Node14 -->
<g id="node14" class="node">
<title>Node14</title>
<g id="a_node14"><a xlink:title=" ">
<polygon fill="#e0e0e0" stroke="#999999" points="540.5,-74 493.5,-74 493.5,-55 540.5,-55 540.5,-74"/>
<text text-anchor="middle" x="517" y="-62" font-family="Helvetica,sans-Serif" font-size="10.00">vector</text>
</a>
</g>
</g>
<!-- Node12&#45;&gt;Node14 -->
<g id="edge13" class="edge">
<title>Node12&#45;&gt;Node14</title>
<path fill="none" stroke="#63b8ff" d="M603.59,-234.49C553.75,-225.45 466.01,-201.29 427,-140 419.84,-128.75 419.97,-121.33 427,-110 439.27,-90.24 463.21,-78.99 483.31,-72.74"/>
<polygon fill="#63b8ff" stroke="#63b8ff" points="484.42,-76.07 493.1,-69.99 482.52,-69.33 484.42,-76.07"/>
</g>
<!-- Node12&#45;&gt;Node15 -->
<g id="edge14" class="edge">
<title>Node12&#45;&gt;Node15</title>
<path fill="none" stroke="#63b8ff" d="M676.24,-234.03C738.18,-224.68 864.7,-205.57 937.05,-194.65"/>
<polygon fill="#63b8ff" stroke="#63b8ff" points="937.95,-198.05 947.32,-193.1 936.91,-191.13 937.95,-198.05"/>
</g>
<!-- Node18 -->
<g id="node18" class="node">
<title>Node18</title>
<g id="a_node18"><a xlink:href="print_8h.html" target="_top" xlink:title=" ">
<polygon fill="white" stroke="#666666" points="1153,-134.5 1055,-134.5 1055,-115.5 1153,-115.5 1153,-134.5"/>
<text text-anchor="middle" x="1104" y="-122.5" font-family="Helvetica,sans-Serif" font-size="10.00">thorin/util/print.h</text>
</a>
</g>
</g>
<!-- Node12&#45;&gt;Node18 -->
<g id="edge56" class="edge">
<title>Node12&#45;&gt;Node18</title>
<path fill="none" stroke="#63b8ff" d="M674.88,-230.97C757.86,-210.67 966.99,-159.51 1059.18,-136.96"/>
<polygon fill="#63b8ff" stroke="#63b8ff" points="1060.16,-140.33 1069.04,-134.55 1058.49,-133.53 1060.16,-140.33"/>
</g>
<!-- Node25 -->
<g id="node25" class="node">
<title>Node25</title>
<g id="a_node25"><a xlink:href="array_8h.html" target="_top" xlink:title=" ">
<polygon fill="white" stroke="#666666" points="342,-134.5 242,-134.5 242,-115.5 342,-115.5 342,-134.5"/>
<text text-anchor="middle" x="292" y="-122.5" font-family="Helvetica,sans-Serif" font-size="10.00">thorin/util/array.h</text>
</a>
</g>
</g>
<!-- Node12&#45;&gt;Node25 -->
<g id="edge27" class="edge">
<title>Node12&#45;&gt;Node25</title>
<path fill="none" stroke="#63b8ff" d="M603.7,-236.79C556.37,-232.33 471.66,-221.18 404,-195 368.78,-181.37 332.32,-156.55 310.93,-140.69"/>
<polygon fill="#63b8ff" stroke="#63b8ff" points="312.82,-137.74 302.73,-134.5 308.6,-143.32 312.82,-137.74"/>
</g>
<!-- Node32 -->
<g id="node32" class="node">
<title>Node32</title>
<g id="a_node32"><a xlink:href="cast_8h.html" target="_top" xlink:title=" ">
<polygon fill="white" stroke="#666666" points="96,-134.5 0,-134.5 0,-115.5 96,-115.5 96,-134.5"/>
<text text-anchor="middle" x="48" y="-122.5" font-family="Helvetica,sans-Serif" font-size="10.00">thorin/util/cast.h</text>
</a>
</g>
</g>
<!-- Node12&#45;&gt;Node32 -->
<g id="edge38" class="edge">
<title>Node12&#45;&gt;Node32</title>
<path fill="none" stroke="#63b8ff" d="M603.9,-234.4C550.76,-226.74 448.44,-211.4 362,-195 266.1,-176.8 154.69,-151.27 93.71,-136.91"/>
<polygon fill="#63b8ff" stroke="#63b8ff" points="94.19,-133.43 83.65,-134.54 92.58,-140.24 94.19,-133.43"/>
</g>
<!-- Node33 -->
<g id="node33" class="node">
<title>Node33</title>
<g id="a_node33"><a xlink:href="container_8h.html" target="_top" xlink:title=" ">
<polygon fill="#fff0f0" stroke="red" points="676.5,-195 555.5,-195 555.5,-176 676.5,-176 676.5,-195"/>
<text text-anchor="middle" x="616" y="-183" font-family="Helvetica,sans-Serif" font-size="10.00">thorin/util/container.h</text>
</a>
</g>
</g>
<!-- Node12&#45;&gt;Node33 -->
<g id="edge41" class="edge">
<title>Node12&#45;&gt;Node33</title>
<path fill="none" stroke="#63b8ff" d="M636.04,-230.75C632.79,-223.57 628.08,-213.18 624.05,-204.27"/>
<polygon fill="#63b8ff" stroke="#63b8ff" points="627.2,-202.75 619.89,-195.09 620.83,-205.64 627.2,-202.75"/>
</g>
<!-- Node12&#45;&gt;Node38 -->
<g id="edge55" class="edge">
<title>Node12&#45;&gt;Node38</title>
<path fill="none" stroke="#63b8ff" d="M676.02,-236.84C704.05,-232.65 741.22,-221.99 760,-195 770.63,-179.71 762.82,-158.47 754.61,-143.6"/>
<polygon fill="#63b8ff" stroke="#63b8ff" points="757.52,-141.64 749.35,-134.88 751.52,-145.25 757.52,-141.64"/>
</g>
<!-- Node15&#45;&gt;Node5 -->
<g id="edge15" class="edge">
<title>Node15&#45;&gt;Node5</title>
<path fill="none" stroke="#63b8ff" d="M1034.56,-184.9C1073.21,-182.85 1128.57,-173.59 1162,-140 1176.54,-125.39 1180.45,-101.31 1181.27,-84.49"/>
<polygon fill="#63b8ff" stroke="#63b8ff" points="1184.77,-84.27 1181.43,-74.22 1177.77,-84.16 1184.77,-84.27"/>
</g>
<!-- Node16 -->
<g id="node16" class="node">
<title>Node16</title>
<g id="a_node16"><a xlink:title=" ">
<polygon fill="#e0e0e0" stroke="#999999" points="1037,-140 933,-140 933,-110 1037,-110 1037,-140"/>
<text text-anchor="start" x="941" y="-128" font-family="Helvetica,sans-Serif" font-size="10.00">absl/container/flat</text>
<text text-anchor="middle" x="985" y="-117" font-family="Helvetica,sans-Serif" font-size="10.00">_hash_map.h</text>
</a>
</g>
</g>
<!-- Node15&#45;&gt;Node16 -->
<g id="edge16" class="edge">
<title>Node15&#45;&gt;Node16</title>
<path fill="none" stroke="#63b8ff" d="M990.11,-175.87C989.42,-169.11 988.42,-159.35 987.49,-150.26"/>
<polygon fill="#63b8ff" stroke="#63b8ff" points="990.95,-149.71 986.45,-140.11 983.99,-150.42 990.95,-149.71"/>
</g>
<!-- Node17 -->
<g id="node17" class="node">
<title>Node17</title>
<g id="a_node17"><a xlink:title=" ">
<polygon fill="#e0e0e0" stroke="#999999" points="915,-140 811,-140 811,-110 915,-110 915,-140"/>
<text text-anchor="start" x="819" y="-128" font-family="Helvetica,sans-Serif" font-size="10.00">absl/container/flat</text>
<text text-anchor="middle" x="863" y="-117" font-family="Helvetica,sans-Serif" font-size="10.00">_hash_set.h</text>
</a>
</g>
</g>
<!-- Node15&#45;&gt;Node17 -->
<g id="edge17" class="edge">
<title>Node15&#45;&gt;Node17</title>
<path fill="none" stroke="#63b8ff" d="M972.39,-175.99C954.35,-167.75 926.4,-154.98 903.27,-144.4"/>
<polygon fill="#63b8ff" stroke="#63b8ff" points="904.57,-141.15 894.02,-140.18 901.66,-147.52 904.57,-141.15"/>
</g>
<!-- Node15&#45;&gt;Node18 -->
<g id="edge18" class="edge">
<title>Node15&#45;&gt;Node18</title>
<path fill="none" stroke="#63b8ff" d="M1007.67,-175.87C1026.28,-166.23 1056.62,-150.53 1078.28,-139.31"/>
<polygon fill="#63b8ff" stroke="#63b8ff" points="1079.99,-142.37 1087.26,-134.67 1076.77,-136.16 1079.99,-142.37"/>
</g>
<!-- Node18&#45;&gt;Node4 -->
<g id="edge23" class="edge">
<title>Node18&#45;&gt;Node4</title>
<path fill="none" stroke="#63b8ff" d="M1128.43,-115.49C1157.29,-105.44 1205.5,-88.66 1238,-77.34"/>
<polygon fill="#63b8ff" stroke="#63b8ff" points="1239.25,-80.61 1247.54,-74.02 1236.95,-74 1239.25,-80.61"/>
</g>
<!-- Node18&#45;&gt;Node5 -->
<g id="edge24" class="edge">
<title>Node18&#45;&gt;Node5</title>
<path fill="none" stroke="#63b8ff" d="M1115.36,-115.37C1127.42,-106.21 1146.7,-91.56 1161.25,-80.51"/>
<polygon fill="#63b8ff" stroke="#63b8ff" points="1163.75,-83 1169.59,-74.17 1159.51,-77.43 1163.75,-83"/>
</g>
<!-- Node19 -->
<g id="node19" class="node">
<title>Node19</title>
<g id="a_node19"><a xlink:title=" ">
<polygon fill="#e0e0e0" stroke="#999999" points="623.5,-74 558.5,-74 558.5,-55 623.5,-55 623.5,-74"/>
<text text-anchor="middle" x="591" y="-62" font-family="Helvetica,sans-Serif" font-size="10.00">functional</text>
</a>
</g>
</g>
<!-- Node18&#45;&gt;Node19 -->
<g id="edge19" class="edge">
<title>Node18&#45;&gt;Node19</title>
<path fill="none" stroke="#63b8ff" d="M1072.27,-115.43C1063.78,-113.39 1054.59,-111.4 1046,-110 867.35,-80.82 817.12,-99.63 633.92,-73.96"/>
<polygon fill="#63b8ff" stroke="#63b8ff" points="634.35,-70.48 623.95,-72.53 633.36,-77.41 634.35,-70.48"/>
</g>
<!-- Node20 -->
<g id="node20" class="node">
<title>Node20</title>
<g id="a_node20"><a xlink:title=" ">
<polygon fill="#e0e0e0" stroke="#999999" points="1076,-74 1016,-74 1016,-55 1076,-55 1076,-74"/>
<text text-anchor="middle" x="1046" y="-62" font-family="Helvetica,sans-Serif" font-size="10.00">iostream</text>
</a>
</g>
</g>
<!-- Node18&#45;&gt;Node20 -->
<g id="edge20" class="edge">
<title>Node18&#45;&gt;Node20</title>
<path fill="none" stroke="#63b8ff" d="M1095.44,-115.37C1086.62,-106.47 1072.66,-92.39 1061.82,-81.45"/>
<polygon fill="#63b8ff" stroke="#63b8ff" points="1064.12,-78.8 1054.59,-74.17 1059.15,-83.73 1064.12,-78.8"/>
</g>
<!-- Node21 -->
<g id="node21" class="node">
<title>Node21</title>
<g id="a_node21"><a xlink:title=" ">
<polygon fill="#e0e0e0" stroke="#999999" points="1087.5,-19 1030.5,-19 1030.5,0 1087.5,0 1087.5,-19"/>
<text text-anchor="middle" x="1059" y="-7" font-family="Helvetica,sans-Serif" font-size="10.00">ostream</text>
</a>
</g>
</g>
<!-- Node18&#45;&gt;Node21 -->
<g id="edge21" class="edge">
<title>Node18&#45;&gt;Node21</title>
<path fill="none" stroke="#63b8ff" d="M1102.36,-115.26C1099.68,-101.92 1093.78,-75.84 1085,-55 1081,-45.52 1075.35,-35.57 1070.34,-27.5"/>
<polygon fill="#63b8ff" stroke="#63b8ff" points="1073.23,-25.53 1064.88,-19.01 1067.35,-29.32 1073.23,-25.53"/>
</g>
<!-- Node22 -->
<g id="node22" class="node">
<title>Node22</title>
<g id="a_node22"><a xlink:title=" ">
<polygon fill="#e0e0e0" stroke="#999999" points="692,-74 642,-74 642,-55 692,-55 692,-74"/>
<text text-anchor="middle" x="667" y="-62" font-family="Helvetica,sans-Serif" font-size="10.00">ranges</text>
</a>
</g>
</g>
<!-- Node18&#45;&gt;Node22 -->
<g id="edge22" class="edge">
<title>Node18&#45;&gt;Node22</title>
<path fill="none" stroke="#63b8ff" d="M1071.95,-115.46C1063.55,-113.44 1054.47,-111.46 1046,-110 897.33,-84.42 854.65,-100.06 702.36,-73.99"/>
<polygon fill="#63b8ff" stroke="#63b8ff" points="702.62,-70.48 692.17,-72.21 701.42,-77.38 702.62,-70.48"/>
</g>
<!-- Node18&#45;&gt;Node23 -->
<g id="edge25" class="edge">
<title>Node18&#45;&gt;Node23</title>
<path fill="none" stroke="#63b8ff" d="M1070.67,-115.47C1062.62,-113.54 1054.03,-111.6 1046,-110 1005.09,-101.86 896.28,-85.28 826.12,-74.82"/>
<polygon fill="#63b8ff" stroke="#63b8ff" points="826.47,-71.33 816.06,-73.32 825.44,-78.25 826.47,-71.33"/>
</g>
<!-- Node24 -->
<g id="node24" class="node">
<title>Node24</title>
<g id="a_node24"><a xlink:title=" ">
<polygon fill="#e0e0e0" stroke="#999999" points="127,-19 75,-19 75,0 127,0 127,-19"/>
<text text-anchor="middle" x="101" y="-7" font-family="Helvetica,sans-Serif" font-size="10.00">cassert</text>
</a>
</g>
</g>
<!-- Node23&#45;&gt;Node24 -->
<g id="edge26" class="edge">
<title>Node23&#45;&gt;Node24</title>
<path fill="none" stroke="#63b8ff" d="M709.93,-56C706.91,-55.65 703.92,-55.31 701,-55 487.7,-32.49 230.56,-17.46 137.14,-12.39"/>
<polygon fill="#63b8ff" stroke="#63b8ff" points="137.25,-8.9 127.08,-11.85 136.87,-15.89 137.25,-8.9"/>
</g>
<!-- Node25&#45;&gt;Node14 -->
<g id="edge37" class="edge">
<title>Node25&#45;&gt;Node14</title>
<path fill="none" stroke="#63b8ff" d="M324.72,-115.49C367.05,-104.49 440.45,-85.4 483.27,-74.27"/>
<polygon fill="#63b8ff" stroke="#63b8ff" points="484.41,-77.59 493.21,-71.69 482.65,-70.82 484.41,-77.59"/>
</g>
<!-- Node25&#45;&gt;Node19 -->
<g id="edge32" class="edge">
<title>Node25&#45;&gt;Node19</title>
<path fill="none" stroke="#63b8ff" d="M336.59,-115.43C385.86,-105.94 467.83,-90.08 548.6,-74.07"/>
<polygon fill="#63b8ff" stroke="#63b8ff" points="549.32,-77.49 558.45,-72.11 547.96,-70.63 549.32,-77.49"/>
</g>
<!-- Node25&#45;&gt;Node22 -->
<g id="edge35" class="edge">
<title>Node25&#45;&gt;Node22</title>
<path fill="none" stroke="#63b8ff" d="M342.25,-116.87C429.91,-104.4 604.15,-79.42 632,-74 632.1,-73.98 632.2,-73.96 632.3,-73.94"/>
<polygon fill="#63b8ff" stroke="#63b8ff" points="632.78,-77.42 641.83,-71.91 631.32,-70.57 632.78,-77.42"/>
</g>
<!-- Node25&#45;&gt;Node24 -->
<g id="edge28" class="edge">
<title>Node25&#45;&gt;Node24</title>
<path fill="none" stroke="#63b8ff" d="M241.87,-121.95C203.64,-117.74 152.23,-105.98 120,-74 108.14,-62.23 103.62,-43.39 101.93,-29.28"/>
<polygon fill="#63b8ff" stroke="#63b8ff" points="105.41,-28.88 101.1,-19.2 98.43,-29.46 105.41,-28.88"/>
</g>
<!-- Node26 -->
<g id="node26" class="node">
<title>Node26</title>
<g id="a_node26"><a xlink:title=" ">
<polygon fill="#e0e0e0" stroke="#999999" points="354.5,-74 301.5,-74 301.5,-55 354.5,-55 354.5,-74"/>
<text text-anchor="middle" x="328" y="-62" font-family="Helvetica,sans-Serif" font-size="10.00">cstddef</text>
</a>
</g>
</g>
<!-- Node25&#45;&gt;Node26 -->
<g id="edge29" class="edge">
<title>Node25&#45;&gt;Node26</title>
<path fill="none" stroke="#63b8ff" d="M297.31,-115.37C302.58,-106.81 310.79,-93.47 317.39,-82.74"/>
<polygon fill="#63b8ff" stroke="#63b8ff" points="320.41,-84.52 322.67,-74.17 314.44,-80.85 320.41,-84.52"/>
</g>
<!-- Node27 -->
<g id="node27" class="node">
<title>Node27</title>
<g id="a_node27"><a xlink:title=" ">
<polygon fill="#e0e0e0" stroke="#999999" points="73,-74 23,-74 23,-55 73,-55 73,-74"/>
<text text-anchor="middle" x="48" y="-62" font-family="Helvetica,sans-Serif" font-size="10.00">cstring</text>
</a>
</g>
</g>
<!-- Node25&#45;&gt;Node27 -->
<g id="edge30" class="edge">
<title>Node25&#45;&gt;Node27</title>
<path fill="none" stroke="#63b8ff" d="M256.52,-115.49C210.07,-104.36 129.15,-84.96 82.96,-73.88"/>
<polygon fill="#63b8ff" stroke="#63b8ff" points="83.65,-70.45 73.11,-71.52 82.01,-77.25 83.65,-70.45"/>
</g>
<!-- Node28 -->
<g id="node28" class="node">
<title>Node28</title>
<g id="a_node28"><a xlink:title=" ">
<polygon fill="#e0e0e0" stroke="#999999" points="437,-74 373,-74 373,-55 437,-55 437,-74"/>
<text text-anchor="middle" x="405" y="-62" font-family="Helvetica,sans-Serif" font-size="10.00">algorithm</text>
</a>
</g>
</g>
<!-- Node25&#45;&gt;Node28 -->
<g id="edge31" class="edge">
<title>Node25&#45;&gt;Node28</title>
<path fill="none" stroke="#63b8ff" d="M308.67,-115.37C327.28,-105.73 357.62,-90.03 379.28,-78.81"/>
<polygon fill="#63b8ff" stroke="#63b8ff" points="380.99,-81.87 388.26,-74.17 377.77,-75.66 380.99,-81.87"/>
</g>
<!-- Node29 -->
<g id="node29" class="node">
<title>Node29</title>
<g id="a_node29"><a xlink:title=" ">
<polygon fill="#e0e0e0" stroke="#999999" points="212.5,-74 129.5,-74 129.5,-55 212.5,-55 212.5,-74"/>
<text text-anchor="middle" x="171" y="-62" font-family="Helvetica,sans-Serif" font-size="10.00">initializer_list</text>
</a>
</g>
</g>
<!-- Node25&#45;&gt;Node29 -->
<g id="edge33" class="edge">
<title>Node25&#45;&gt;Node29</title>
<path fill="none" stroke="#63b8ff" d="M274.41,-115.49C254.24,-105.75 220.98,-89.66 197.64,-78.38"/>
<polygon fill="#63b8ff" stroke="#63b8ff" points="199.14,-75.22 188.62,-74.02 196.1,-81.52 199.14,-75.22"/>
</g>
<!-- Node30 -->
<g id="node30" class="node">
<title>Node30</title>
<g id="a_node30"><a xlink:title=" ">
<polygon fill="#e0e0e0" stroke="#999999" points="283.5,-74 230.5,-74 230.5,-55 283.5,-55 283.5,-74"/>
<text text-anchor="middle" x="257" y="-62" font-family="Helvetica,sans-Serif" font-size="10.00">iterator</text>
</a>
</g>
</g>
<!-- Node25&#45;&gt;Node30 -->
<g id="edge34" class="edge">
<title>Node25&#45;&gt;Node30</title>
<path fill="none" stroke="#63b8ff" d="M286.84,-115.37C281.77,-106.9 273.9,-93.74 267.51,-83.07"/>
<polygon fill="#63b8ff" stroke="#63b8ff" points="270.32,-80.95 262.19,-74.17 264.32,-84.55 270.32,-80.95"/>
</g>
<!-- Node31 -->
<g id="node31" class="node">
<title>Node31</title>
<g id="a_node31"><a xlink:title=" ">
<polygon fill="#e0e0e0" stroke="#999999" points="610.5,-19 541.5,-19 541.5,0 610.5,0 610.5,-19"/>
<text text-anchor="middle" x="576" y="-7" font-family="Helvetica,sans-Serif" font-size="10.00">type_traits</text>
</a>
</g>
</g>
<!-- Node25&#45;&gt;Node31 -->
<g id="edge36" class="edge">
<title>Node25&#45;&gt;Node31</title>
<path fill="none" stroke="#63b8ff" d="M322.87,-115.46C354.32,-106.41 404.25,-91.1 446,-74 463.47,-66.84 467.06,-63.33 484,-55 505.73,-44.31 530.44,-32.37 548.77,-23.56"/>
<polygon fill="#63b8ff" stroke="#63b8ff" points="550.49,-26.61 557.98,-19.13 547.46,-20.3 550.49,-26.61"/>
</g>
<!-- Node32&#45;&gt;Node24 -->
<g id="edge39" class="edge">
<title>Node32&#45;&gt;Node24</title>
<path fill="none" stroke="#63b8ff" d="M37.94,-115.23C23.85,-101.86 1.32,-75.73 14,-55 25.11,-36.84 46.22,-25.8 64.87,-19.25"/>
<polygon fill="#63b8ff" stroke="#63b8ff" points="66.15,-22.52 74.61,-16.14 64.02,-15.85 66.15,-22.52"/>
</g>
<!-- Node32&#45;&gt;Node27 -->
<g id="edge40" class="edge">
<title>Node32&#45;&gt;Node27</title>
<path fill="none" stroke="#63b8ff" d="M48,-115.37C48,-107.25 48,-94.81 48,-84.39"/>
<polygon fill="#63b8ff" stroke="#63b8ff" points="51.5,-84.17 48,-74.17 44.5,-84.17 51.5,-84.17"/>
</g>
<!-- Node33&#45;&gt;Node16 -->
<g id="edge44" class="edge">
<title>Node33&#45;&gt;Node16</title>
<path fill="none" stroke="#63b8ff" d="M676.66,-176.34C748.18,-166.62 863.82,-150.56 922.82,-140.1"/>
<polygon fill="#63b8ff" stroke="#63b8ff" points="923.61,-143.51 932.82,-138.27 922.35,-136.62 923.61,-143.51"/>
</g>
<!-- Node33&#45;&gt;Node17 -->
<g id="edge45" class="edge">
<title>Node33&#45;&gt;Node17</title>
<path fill="none" stroke="#63b8ff" d="M651.92,-175.99C690.89,-166.76 753.84,-151.85 800.87,-140.72"/>
<polygon fill="#63b8ff" stroke="#63b8ff" points="801.72,-144.11 810.65,-138.4 800.11,-137.3 801.72,-144.11"/>
</g>
<!-- Node34 -->
<g id="node34" class="node">
<title>Node34</title>
<g id="a_node34"><a xlink:title=" ">
<polygon fill="#e0e0e0" stroke="#999999" points="614.5,-134.5 567.5,-134.5 567.5,-115.5 614.5,-115.5 614.5,-134.5"/>
<text text-anchor="middle" x="591" y="-122.5" font-family="Helvetica,sans-Serif" font-size="10.00">queue</text>
</a>
</g>
</g>
<!-- Node33&#45;&gt;Node34 -->
<g id="edge42" class="edge">
<title>Node33&#45;&gt;Node34</title>
<path fill="none" stroke="#63b8ff" d="M612.31,-175.87C608.73,-167.49 603.18,-154.51 598.65,-143.89"/>
<polygon fill="#63b8ff" stroke="#63b8ff" points="601.85,-142.49 594.7,-134.67 595.42,-145.24 601.85,-142.49"/>
</g>
<!-- Node35 -->
<g id="node35" class="node">
<title>Node35</title>
<g id="a_node35"><a xlink:title=" ">
<polygon fill="#e0e0e0" stroke="#999999" points="675.5,-134.5 632.5,-134.5 632.5,-115.5 675.5,-115.5 675.5,-134.5"/>
<text text-anchor="middle" x="654" y="-122.5" font-family="Helvetica,sans-Serif" font-size="10.00">stack</text>
</a>
</g>
</g>
<!-- Node33&#45;&gt;Node35 -->
<g id="edge43" class="edge">
<title>Node33&#45;&gt;Node35</title>
<path fill="none" stroke="#63b8ff" d="M621.61,-175.87C627.16,-167.31 635.83,-153.97 642.8,-143.24"/>
<polygon fill="#63b8ff" stroke="#63b8ff" points="645.86,-144.96 648.37,-134.67 639.99,-141.15 645.86,-144.96"/>
</g>
<!-- Node36 -->
<g id="node36" class="node">
<title>Node36</title>
<g id="a_node36"><a xlink:title=" ">
<polygon fill="#e0e0e0" stroke="#999999" points="549.5,-140 436.5,-140 436.5,-110 549.5,-110 549.5,-140"/>
<text text-anchor="start" x="444.5" y="-128" font-family="Helvetica,sans-Serif" font-size="10.00">absl/container/node</text>
<text text-anchor="middle" x="493" y="-117" font-family="Helvetica,sans-Serif" font-size="10.00">_hash_map.h</text>
</a>
</g>
</g>
<!-- Node33&#45;&gt;Node36 -->
<g id="edge46" class="edge">
<title>Node33&#45;&gt;Node36</title>
<path fill="none" stroke="#63b8ff" d="M598.11,-175.99C580.86,-167.79 554.16,-155.09 531.99,-144.55"/>
<polygon fill="#63b8ff" stroke="#63b8ff" points="533.34,-141.31 522.81,-140.18 530.34,-147.63 533.34,-141.31"/>
</g>
<!-- Node33&#45;&gt;Node38 -->
<g id="edge47" class="edge">
<title>Node33&#45;&gt;Node38</title>
<path fill="none" stroke="#63b8ff" d="M634.47,-175.99C655.72,-166.2 690.85,-150.02 715.37,-138.73"/>
<polygon fill="#63b8ff" stroke="#63b8ff" points="716.89,-141.88 724.51,-134.52 713.96,-135.52 716.89,-141.88"/>
</g>
<!-- Node39 -->
<g id="node38" class="node">
<title>Node39</title>
<g id="a_node38"><a xlink:href="types_8h.html" target="_top" xlink:title=" ">
<polygon fill="white" stroke="#666666" points="937.5,-74 834.5,-74 834.5,-55 937.5,-55 937.5,-74"/>
<text text-anchor="middle" x="886" y="-62" font-family="Helvetica,sans-Serif" font-size="10.00">thorin/util/types.h</text>
</a>
</g>
</g>
<!-- Node38&#45;&gt;Node39 -->
<g id="edge48" class="edge">
<title>Node38&#45;&gt;Node39</title>
<path fill="none" stroke="#63b8ff" d="M763.79,-115.49C787.94,-105.62 827.98,-89.23 855.62,-77.93"/>
<polygon fill="#63b8ff" stroke="#63b8ff" points="857.25,-81.04 865.18,-74.02 854.6,-74.56 857.25,-81.04"/>
</g>
<!-- Node39&#45;&gt;Node21 -->
<g id="edge51" class="edge">
<title>Node39&#45;&gt;Node21</title>
<path fill="none" stroke="#63b8ff" d="M913.8,-54.98C942.97,-46.05 989,-31.94 1021.4,-22.02"/>
<polygon fill="#63b8ff" stroke="#63b8ff" points="1022.45,-25.36 1030.99,-19.08 1020.4,-18.66 1022.45,-25.36"/>
</g>
<!-- Node39&#45;&gt;Node31 -->
<g id="edge52" class="edge">
<title>Node39&#45;&gt;Node31</title>
<path fill="none" stroke="#63b8ff" d="M836.19,-54.98C776.74,-44.82 678.19,-27.97 620.96,-18.19"/>
<polygon fill="#63b8ff" stroke="#63b8ff" points="621.22,-14.68 610.77,-16.45 620.04,-21.58 621.22,-14.68"/>
</g>
<!-- Node40 -->
<g id="node39" class="node">
<title>Node40</title>
<g id="a_node39"><a xlink:title=" ">
<polygon fill="#e0e0e0" stroke="#999999" points="992,-19 942,-19 942,0 992,0 992,-19"/>
<text text-anchor="middle" x="967" y="-7" font-family="Helvetica,sans-Serif" font-size="10.00">cstdint</text>
</a>
</g>
</g>
<!-- Node39&#45;&gt;Node40 -->
<g id="edge49" class="edge">
<title>Node39&#45;&gt;Node40</title>
<path fill="none" stroke="#63b8ff" d="M899.01,-54.98C911.46,-46.84 930.46,-34.41 945.21,-24.76"/>
<polygon fill="#63b8ff" stroke="#63b8ff" points="947.3,-27.57 953.75,-19.17 943.46,-21.72 947.3,-27.57"/>
</g>
<!-- Node41 -->
<g id="node40" class="node">
<title>Node41</title>
<g id="a_node40"><a xlink:title=" ">
<polygon fill="#e0e0e0" stroke="#999999" points="784,-19 740,-19 740,0 784,0 784,-19"/>
<text text-anchor="middle" x="762" y="-7" font-family="Helvetica,sans-Serif" font-size="10.00">limits</text>
</a>
</g>
</g>
<!-- Node39&#45;&gt;Node41 -->
<g id="edge50" class="edge">
<title>Node39&#45;&gt;Node41</title>
<path fill="none" stroke="#63b8ff" d="M866.08,-54.98C845.95,-46.38 814.62,-32.99 791.59,-23.15"/>
<polygon fill="#63b8ff" stroke="#63b8ff" points="792.86,-19.88 782.29,-19.17 790.1,-26.32 792.86,-19.88"/>
</g>
<!-- Node42 -->
<g id="node41" class="node">
<title>Node42</title>
<g id="a_node41"><a xlink:title=" ">
<polygon fill="#e0e0e0" stroke="#999999" points="849.5,-19 802.5,-19 802.5,0 849.5,0 849.5,-19"/>
<text text-anchor="middle" x="826" y="-7" font-family="Helvetica,sans-Serif" font-size="10.00">cmath</text>
</a>
</g>
</g>
<!-- Node39&#45;&gt;Node42 -->
<g id="edge53" class="edge">
<title>Node39&#45;&gt;Node42</title>
<path fill="none" stroke="#63b8ff" d="M876.36,-54.98C867.49,-47.15 854.13,-35.34 843.39,-25.86"/>
<polygon fill="#63b8ff" stroke="#63b8ff" points="845.63,-23.17 835.82,-19.17 840.99,-28.41 845.63,-23.17"/>
</g>
<!-- Node43 -->
<g id="node42" class="node">
<title>Node43</title>
<g id="a_node42"><a xlink:title=" ">
<polygon fill="#e0e0e0" stroke="#999999" points="924,-19 868,-19 868,0 924,0 924,-19"/>
<text text-anchor="middle" x="896" y="-7" font-family="Helvetica,sans-Serif" font-size="10.00">half.hpp</text>
</a>
</g>
</g>
<!-- Node39&#45;&gt;Node43 -->
<g id="edge54" class="edge">
<title>Node39&#45;&gt;Node43</title>
<path fill="none" stroke="#63b8ff" d="M887.65,-54.75C888.96,-47.8 890.84,-37.85 892.48,-29.13"/>
<polygon fill="#63b8ff" stroke="#63b8ff" points="895.96,-29.56 894.38,-19.09 889.09,-28.27 895.96,-29.56"/>
</g>
<!-- Node44&#45;&gt;Node12 -->
<g id="edge60" class="edge">
<title>Node44&#45;&gt;Node12</title>
<path fill="none" stroke="#63b8ff" d="M581.52,-346.26C592.83,-337.13 609.81,-321.79 620,-305 628.43,-291.1 633.63,-273.31 636.61,-260.1"/>
<polygon fill="#63b8ff" stroke="#63b8ff" points="640.05,-260.76 638.61,-250.26 633.19,-259.37 640.05,-260.76"/>
</g>
<!-- Node45 -->
<g id="node44" class="node">
<title>Node45</title>
<g id="a_node44"><a xlink:title=" ">
<polygon fill="#e0e0e0" stroke="#999999" points="611.5,-305 564.5,-305 564.5,-286 611.5,-286 611.5,-305"/>
<text text-anchor="middle" x="588" y="-293" font-family="Helvetica,sans-Serif" font-size="10.00">deque</text>
</a>
</g>
</g>
<!-- Node44&#45;&gt;Node45 -->
<g id="edge59" class="edge">
<title>Node44&#45;&gt;Node45</title>
<path fill="none" stroke="#63b8ff" d="M572.66,-346.37C575.18,-338.16 579.06,-325.54 582.29,-315.05"/>
<polygon fill="#63b8ff" stroke="#63b8ff" points="585.74,-315.75 585.33,-305.17 579.05,-313.7 585.74,-315.75"/>
</g>
<!-- Node48&#45;&gt;Node12 -->
<g id="edge65" class="edge">
<title>Node48&#45;&gt;Node12</title>
<path fill="none" stroke="#63b8ff" d="M700.43,-285.98C689.58,-278 673.12,-265.88 660.12,-256.31"/>
<polygon fill="#63b8ff" stroke="#63b8ff" points="661.91,-253.28 651.78,-250.17 657.76,-258.92 661.91,-253.28"/>
</g>
<!-- Node49&#45;&gt;Node12 -->
<g id="edge67" class="edge">
<title>Node49&#45;&gt;Node12</title>
<path fill="none" stroke="#63b8ff" d="M526.69,-285.98C548.8,-277.3 583.32,-263.75 608.45,-253.88"/>
<polygon fill="#63b8ff" stroke="#63b8ff" points="609.89,-257.08 617.92,-250.17 607.33,-250.57 609.89,-257.08"/>
</g>
<!-- Node50&#45;&gt;Node15 -->
<g id="edge70" class="edge">
<title>Node50&#45;&gt;Node15</title>
<path fill="none" stroke="#63b8ff" d="M1039.68,-230.98C1031.19,-223.23 1018.44,-211.58 1008.12,-202.14"/>
<polygon fill="#63b8ff" stroke="#63b8ff" points="1010.23,-199.33 1000.49,-195.17 1005.51,-204.5 1010.23,-199.33"/>
</g>
<!-- Node50&#45;&gt;Node18 -->
<g id="edge71" class="edge">
<title>Node50&#45;&gt;Node18</title>
<path fill="none" stroke="#63b8ff" d="M1053.13,-230.97C1062.09,-212.48 1083.45,-168.4 1095.45,-143.64"/>
<polygon fill="#63b8ff" stroke="#63b8ff" points="1098.61,-145.16 1099.82,-134.63 1092.31,-142.1 1098.61,-145.16"/>
</g>
<!-- Node51&#45;&gt;Node12 -->
<g id="edge73" class="edge">
<title>Node51&#45;&gt;Node12</title>
<path fill="none" stroke="#63b8ff" d="M1278.98,-406.92C1265.49,-391.07 1234.24,-357.32 1200,-341 1023.7,-256.95 785.53,-243.38 686.34,-241.56"/>
<polygon fill="#63b8ff" stroke="#63b8ff" points="686.12,-238.05 676.06,-241.4 686.01,-245.05 686.12,-238.05"/>
</g>
<!-- Node51&#45;&gt;Node18 -->
<g id="edge74" class="edge">
<title>Node51&#45;&gt;Node18</title>
<path fill="none" stroke="#63b8ff" d="M1292.14,-406.72C1304.88,-387.62 1333,-340.48 1333,-296.5 1333,-296.5 1333,-296.5 1333,-239.5 1333,-163.74 1231.14,-138.55 1163.29,-130.17"/>
<polygon fill="#63b8ff" stroke="#63b8ff" points="1163.46,-126.67 1153.13,-129.01 1162.66,-133.62 1163.46,-126.67"/>
</g>
</g>
</svg>
