<?xml version="1.0" encoding="UTF-8" standalone="no"?>
<!DOCTYPE svg PUBLIC "-//W3C//DTD SVG 1.1//EN"
 "http://www.w3.org/Graphics/SVG/1.1/DTD/svg11.dtd">
<!-- Generated by graphviz version 2.43.0 (0)
 -->
<!-- Title: /home/runner/work/thorin2/thorin2/thorin/rewrite.cpp Pages: 1 -->
<svg width="1511pt" height="565pt"
 viewBox="0.00 0.00 1510.95 565.00" xmlns="http://www.w3.org/2000/svg" xmlns:xlink="http://www.w3.org/1999/xlink">
<g id="graph0" class="graph" transform="scale(1 1) rotate(0) translate(4 561)">
<title>/home/runner/work/thorin2/thorin2/thorin/rewrite.cpp</title>
<!-- Node1 -->
<g id="node1" class="node">
<title>Node1</title>
<g id="a_node1"><a xlink:title=" ">
<polygon fill="#bfbfbf" stroke="black" points="666.95,-526.5 666.95,-556.5 812.95,-556.5 812.95,-526.5 666.95,-526.5"/>
<text text-anchor="start" x="674.95" y="-544.5" font-family="Helvetica,sans-Serif" font-size="10.00">/home/runner/work/thorin2</text>
<text text-anchor="middle" x="739.95" y="-533.5" font-family="Helvetica,sans-Serif" font-size="10.00">/thorin2/thorin/rewrite.cpp</text>
</a>
</g>
</g>
<!-- Node2 -->
<g id="node2" class="node">
<title>Node2</title>
<g id="a_node2"><a xlink:href="rewrite_8h.html" target="_top" xlink:title=" ">
<polygon fill="none" stroke="black" points="693.95,-470.5 693.95,-489.5 785.95,-489.5 785.95,-470.5 693.95,-470.5"/>
<text text-anchor="middle" x="739.95" y="-477.5" font-family="Helvetica,sans-Serif" font-size="10.00">thorin/rewrite.h</text>
</a>
</g>
</g>
<!-- Node1&#45;&gt;Node2 -->
<g id="edge1" class="edge">
<title>Node1&#45;&gt;Node2</title>
<path fill="none" stroke="midnightblue" d="M739.95,-526.4C739.95,-518.47 739.95,-508.46 739.95,-499.86"/>
<polygon fill="midnightblue" stroke="midnightblue" points="743.45,-499.66 739.95,-489.66 736.45,-499.66 743.45,-499.66"/>
</g>
<!-- Node3 -->
<g id="node3" class="node">
<title>Node3</title>
<g id="a_node3"><a xlink:href="world_8h.html" target="_top" xlink:title=" ">
<polygon fill="none" stroke="black" points="942.95,-414.5 942.95,-433.5 1026.95,-433.5 1026.95,-414.5 942.95,-414.5"/>
<text text-anchor="middle" x="984.95" y="-421.5" font-family="Helvetica,sans-Serif" font-size="10.00">thorin/world.h</text>
</a>
</g>
</g>
<!-- Node1&#45;&gt;Node3 -->
<g id="edge76" class="edge">
<title>Node1&#45;&gt;Node3</title>
<path fill="none" stroke="midnightblue" d="M769.99,-526.34C818.07,-503.67 911.56,-459.6 957.76,-437.82"/>
<polygon fill="midnightblue" stroke="midnightblue" points="959.32,-440.95 966.87,-433.52 956.33,-434.62 959.32,-440.95"/>
</g>
<!-- Node50 -->
<g id="node50" class="node">
<title>Node50</title>
<g id="a_node50"><a xlink:href="scope_8h.html" target="_top" xlink:title=" ">
<polygon fill="none" stroke="black" points="472.95,-291.5 472.95,-310.5 604.95,-310.5 604.95,-291.5 472.95,-291.5"/>
<text text-anchor="middle" x="538.95" y="-298.5" font-family="Helvetica,sans-Serif" font-size="10.00">thorin/analyses/scope.h</text>
</a>
</g>
</g>
<!-- Node1&#45;&gt;Node50 -->
<g id="edge77" class="edge">
<title>Node1&#45;&gt;Node50</title>
<path fill="none" stroke="midnightblue" d="M723.12,-526.14C692.36,-499.31 626.18,-438.76 581.95,-378 568.34,-359.3 555.68,-335.89 547.67,-320.03"/>
<polygon fill="midnightblue" stroke="midnightblue" points="550.69,-318.24 543.11,-310.83 544.41,-321.34 550.69,-318.24"/>
</g>
<!-- Node2&#45;&gt;Node3 -->
<g id="edge2" class="edge">
<title>Node2&#45;&gt;Node3</title>
<path fill="none" stroke="midnightblue" d="M778.77,-470.44C821.51,-461.02 890.28,-445.87 936.52,-435.68"/>
<polygon fill="midnightblue" stroke="midnightblue" points="937.3,-439.09 946.31,-433.52 935.79,-432.25 937.3,-439.09"/>
</g>
<!-- Node2&#45;&gt;Node50 -->
<g id="edge73" class="edge">
<title>Node2&#45;&gt;Node50</title>
<path fill="none" stroke="midnightblue" d="M729.07,-470.31C707.64,-453.1 658.59,-413.31 618.95,-378 596.29,-357.82 571.05,-333.52 555.09,-317.92"/>
<polygon fill="midnightblue" stroke="midnightblue" points="557.24,-315.13 547.65,-310.62 552.34,-320.13 557.24,-315.13"/>
</g>
<!-- Node4 -->
<g id="node4" class="node">
<title>Node4</title>
<g id="a_node4"><a xlink:title=" ">
<polygon fill="none" stroke="#bfbfbf" points="1398.95,-56.5 1398.95,-75.5 1454.95,-75.5 1454.95,-56.5 1398.95,-56.5"/>
<text text-anchor="middle" x="1426.95" y="-63.5" font-family="Helvetica,sans-Serif" font-size="10.00">sstream</text>
</a>
</g>
</g>
<!-- Node3&#45;&gt;Node4 -->
<g id="edge3" class="edge">
<title>Node3&#45;&gt;Node4</title>
<path fill="none" stroke="midnightblue" d="M1027.05,-421.5C1138.19,-417.19 1433.4,-403.46 1468.95,-378 1499.04,-356.46 1502.95,-339 1502.95,-302 1502.95,-302 1502.95,-302 1502.95,-188 1502.95,-144.48 1467.25,-103.77 1444.79,-82.47"/>
<polygon fill="midnightblue" stroke="midnightblue" points="1446.94,-79.7 1437.2,-75.53 1442.22,-84.86 1446.94,-79.7"/>
</g>
<!-- Node5 -->
<g id="node5" class="node">
<title>Node5</title>
<g id="a_node5"><a xlink:title=" ">
<polygon fill="none" stroke="#bfbfbf" points="1230.95,-56.5 1230.95,-75.5 1274.95,-75.5 1274.95,-56.5 1230.95,-56.5"/>
<text text-anchor="middle" x="1252.95" y="-63.5" font-family="Helvetica,sans-Serif" font-size="10.00">string</text>
</a>
</g>
</g>
<!-- Node3&#45;&gt;Node5 -->
<g id="edge4" class="edge">
<title>Node3&#45;&gt;Node5</title>
<path fill="none" stroke="midnightblue" d="M1027.25,-421.62C1135.19,-417.7 1414.59,-405.04 1445.95,-378 1472.32,-355.26 1464.95,-336.82 1464.95,-302 1464.95,-302 1464.95,-302 1464.95,-244 1464.95,-151.31 1344.06,-97.68 1284.86,-76.97"/>
<polygon fill="midnightblue" stroke="midnightblue" points="1285.83,-73.6 1275.24,-73.7 1283.58,-80.23 1285.83,-73.6"/>
</g>
<!-- Node6 -->
<g id="node6" class="node">
<title>Node6</title>
<g id="a_node6"><a xlink:title=" ">
<polygon fill="none" stroke="#bfbfbf" points="1151.45,-118 1151.45,-137 1224.45,-137 1224.45,-118 1151.45,-118"/>
<text text-anchor="middle" x="1187.95" y="-125" font-family="Helvetica,sans-Serif" font-size="10.00">string_view</text>
</a>
</g>
</g>
<!-- Node3&#45;&gt;Node6 -->
<g id="edge5" class="edge">
<title>Node3&#45;&gt;Node6</title>
<path fill="none" stroke="midnightblue" d="M992.35,-414.21C999.79,-405.26 1011.49,-390.91 1020.95,-378 1083.12,-293.14 1151.06,-187.01 1177.03,-145.89"/>
<polygon fill="midnightblue" stroke="midnightblue" points="1180.07,-147.63 1182.44,-137.3 1174.15,-143.9 1180.07,-147.63"/>
</g>
<!-- Node7 -->
<g id="node7" class="node">
<title>Node7</title>
<g id="a_node7"><a xlink:title=" ">
<polygon fill="none" stroke="#bfbfbf" points="1086.95,-347.5 1086.95,-377.5 1200.95,-377.5 1200.95,-347.5 1086.95,-347.5"/>
<text text-anchor="start" x="1094.95" y="-365.5" font-family="Helvetica,sans-Serif" font-size="10.00">absl/container/btree</text>
<text text-anchor="middle" x="1143.95" y="-354.5" font-family="Helvetica,sans-Serif" font-size="10.00">_map.h</text>
</a>
</g>
</g>
<!-- Node3&#45;&gt;Node7 -->
<g id="edge6" class="edge">
<title>Node3&#45;&gt;Node7</title>
<path fill="none" stroke="midnightblue" d="M1007.73,-414.48C1030.88,-405.81 1067.4,-392.15 1096.81,-381.14"/>
<polygon fill="midnightblue" stroke="midnightblue" points="1098.34,-384.31 1106.48,-377.52 1095.88,-377.75 1098.34,-384.31"/>
</g>
<!-- Node8 -->
<g id="node8" class="node">
<title>Node8</title>
<g id="a_node8"><a xlink:title=" ">
<polygon fill="none" stroke="#bfbfbf" points="1218.95,-347.5 1218.95,-377.5 1332.95,-377.5 1332.95,-347.5 1218.95,-347.5"/>
<text text-anchor="start" x="1226.95" y="-365.5" font-family="Helvetica,sans-Serif" font-size="10.00">absl/container/btree</text>
<text text-anchor="middle" x="1275.95" y="-354.5" font-family="Helvetica,sans-Serif" font-size="10.00">_set.h</text>
</a>
</g>
</g>
<!-- Node3&#45;&gt;Node8 -->
<g id="edge7" class="edge">
<title>Node3&#45;&gt;Node8</title>
<path fill="none" stroke="midnightblue" d="M1027.3,-414.78C1070.44,-406.35 1139.54,-392.69 1208.55,-378.27"/>
<polygon fill="midnightblue" stroke="midnightblue" points="1209.66,-381.62 1218.73,-376.14 1208.22,-374.77 1209.66,-381.62"/>
</g>
<!-- Node9 -->
<g id="node9" class="node">
<title>Node9</title>
<g id="a_node9"><a xlink:href="axiom_8h.html" target="_top" xlink:title=" ">
<polygon fill="none" stroke="black" points="904.95,-353 904.95,-372 992.95,-372 992.95,-353 904.95,-353"/>
<text text-anchor="middle" x="948.95" y="-360" font-family="Helvetica,sans-Serif" font-size="10.00">thorin/axiom.h</text>
</a>
</g>
</g>
<!-- Node3&#45;&gt;Node9 -->
<g id="edge8" class="edge">
<title>Node3&#45;&gt;Node9</title>
<path fill="none" stroke="midnightblue" d="M979.79,-414.48C974.5,-405.73 966.11,-391.87 959.42,-380.81"/>
<polygon fill="midnightblue" stroke="midnightblue" points="962.27,-378.75 954.1,-372.01 956.28,-382.38 962.27,-378.75"/>
</g>
<!-- Node15 -->
<g id="node15" class="node">
<title>Node15</title>
<g id="a_node15"><a xlink:href="debug_8h.html" target="_top" xlink:title=" ">
<polygon fill="none" stroke="black" points="918.45,-179.5 918.45,-198.5 1005.45,-198.5 1005.45,-179.5 918.45,-179.5"/>
<text text-anchor="middle" x="961.95" y="-186.5" font-family="Helvetica,sans-Serif" font-size="10.00">thorin/debug.h</text>
</a>
</g>
</g>
<!-- Node3&#45;&gt;Node15 -->
<g id="edge62" class="edge">
<title>Node3&#45;&gt;Node15</title>
<path fill="none" stroke="midnightblue" d="M948.25,-414.35C929.12,-407.77 907.38,-396.58 895.95,-378 862.48,-323.56 878.67,-290.15 910.95,-235 918.03,-222.9 929.52,-212.34 939.8,-204.5"/>
<polygon fill="midnightblue" stroke="midnightblue" points="941.95,-207.26 948.03,-198.58 937.87,-201.58 941.95,-207.26"/>
</g>
<!-- Node44 -->
<g id="node44" class="node">
<title>Node44</title>
<g id="a_node44"><a xlink:href="hash_8h.html" target="_top" xlink:title=" ">
<polygon fill="none" stroke="black" points="15.45,-118 15.45,-137 114.45,-137 114.45,-118 15.45,-118"/>
<text text-anchor="middle" x="64.95" y="-125" font-family="Helvetica,sans-Serif" font-size="10.00">thorin/util/hash.h</text>
</a>
</g>
</g>
<!-- Node3&#45;&gt;Node44 -->
<g id="edge72" class="edge">
<title>Node3&#45;&gt;Node44</title>
<path fill="none" stroke="midnightblue" d="M942.68,-418C898.55,-411.9 827.82,-399.62 769.95,-378 732.77,-364.11 650.54,-306.39 613.95,-291 519.11,-251.1 218.59,-169.45 107.11,-139.68"/>
<polygon fill="midnightblue" stroke="midnightblue" points="107.8,-136.24 97.23,-137.05 105.99,-143.01 107.8,-136.24"/>
</g>
<!-- Node45 -->
<g id="node45" class="node">
<title>Node45</title>
<g id="a_node45"><a xlink:title=" ">
<polygon fill="none" stroke="#bfbfbf" points="1350.95,-353 1350.95,-372 1436.95,-372 1436.95,-353 1350.95,-353"/>
<text text-anchor="middle" x="1393.95" y="-360" font-family="Helvetica,sans-Serif" font-size="10.00">thorin/config.h</text>
</a>
</g>
</g>
<!-- Node3&#45;&gt;Node45 -->
<g id="edge61" class="edge">
<title>Node3&#45;&gt;Node45</title>
<path fill="none" stroke="midnightblue" d="M1027.04,-419.71C1094.14,-414.01 1229.27,-400.69 1341.95,-378 1346.7,-377.04 1351.64,-375.88 1356.52,-374.64"/>
<polygon fill="midnightblue" stroke="midnightblue" points="1357.58,-377.98 1366.34,-372.01 1355.77,-371.22 1357.58,-377.98"/>
</g>
<!-- Node46 -->
<g id="node46" class="node">
<title>Node46</title>
<g id="a_node46"><a xlink:href="error_8h.html" target="_top" xlink:title=" ">
<polygon fill="none" stroke="black" points="996.95,-235.5 996.95,-254.5 1076.95,-254.5 1076.95,-235.5 996.95,-235.5"/>
<text text-anchor="middle" x="1036.95" y="-242.5" font-family="Helvetica,sans-Serif" font-size="10.00">thorin/error.h</text>
</a>
</g>
</g>
<!-- Node3&#45;&gt;Node46 -->
<g id="edge63" class="edge">
<title>Node3&#45;&gt;Node46</title>
<path fill="none" stroke="midnightblue" d="M988.47,-414.47C992.11,-405.48 997.82,-390.88 1001.95,-378 1014.75,-338.08 1026.56,-290.33 1032.65,-264.61"/>
<polygon fill="midnightblue" stroke="midnightblue" points="1036.09,-265.27 1034.96,-254.74 1029.27,-263.68 1036.09,-265.27"/>
</g>
<!-- Node48 -->
<g id="node48" class="node">
<title>Node48</title>
<g id="a_node48"><a xlink:href="lattice_8h.html" target="_top" xlink:title=" ">
<polygon fill="none" stroke="black" points="660.95,-291.5 660.95,-310.5 748.95,-310.5 748.95,-291.5 660.95,-291.5"/>
<text text-anchor="middle" x="704.95" y="-298.5" font-family="Helvetica,sans-Serif" font-size="10.00">thorin/lattice.h</text>
</a>
</g>
</g>
<!-- Node3&#45;&gt;Node48 -->
<g id="edge68" class="edge">
<title>Node3&#45;&gt;Node48</title>
<path fill="none" stroke="midnightblue" d="M945.68,-414.5C913.96,-406.93 868.57,-394.51 830.95,-378 791.54,-360.71 749.43,-333.26 725.24,-316.51"/>
<polygon fill="midnightblue" stroke="midnightblue" points="727.09,-313.53 716.89,-310.66 723.07,-319.27 727.09,-313.53"/>
</g>
<!-- Node49 -->
<g id="node49" class="node">
<title>Node49</title>
<g id="a_node49"><a xlink:href="tuple_8h.html" target="_top" xlink:title=" ">
<polygon fill="none" stroke="black" points="766.95,-291.5 766.95,-310.5 848.95,-310.5 848.95,-291.5 766.95,-291.5"/>
<text text-anchor="middle" x="807.95" y="-298.5" font-family="Helvetica,sans-Serif" font-size="10.00">thorin/tuple.h</text>
</a>
</g>
</g>
<!-- Node3&#45;&gt;Node49 -->
<g id="edge70" class="edge">
<title>Node3&#45;&gt;Node49</title>
<path fill="none" stroke="midnightblue" d="M944.37,-414.46C919.11,-407.67 886.96,-396.21 862.95,-378 842.23,-362.29 825.96,-336.61 816.65,-319.51"/>
<polygon fill="midnightblue" stroke="midnightblue" points="819.72,-317.82 811.99,-310.58 813.51,-321.06 819.72,-317.82"/>
</g>
<!-- Node10 -->
<g id="node10" class="node">
<title>Node10</title>
<g id="a_node10"><a xlink:href="lam_8h.html" target="_top" xlink:title=" ">
<polygon fill="none" stroke="black" points="907.95,-291.5 907.95,-310.5 983.95,-310.5 983.95,-291.5 907.95,-291.5"/>
<text text-anchor="middle" x="945.95" y="-298.5" font-family="Helvetica,sans-Serif" font-size="10.00">thorin/lam.h</text>
</a>
</g>
</g>
<!-- Node9&#45;&gt;Node10 -->
<g id="edge9" class="edge">
<title>Node9&#45;&gt;Node10</title>
<path fill="none" stroke="midnightblue" d="M948.52,-352.98C948.1,-344.58 947.44,-331.48 946.89,-320.66"/>
<polygon fill="midnightblue" stroke="midnightblue" points="950.38,-320.32 946.38,-310.51 943.39,-320.67 950.38,-320.32"/>
</g>
<!-- Node23 -->
<g id="node23" class="node">
<title>Node23</title>
<g id="a_node23"><a xlink:href="assert_8h.html" target="_top" xlink:title=" ">
<polygon fill="none" stroke="black" points="1097.95,-56.5 1097.95,-75.5 1203.95,-75.5 1203.95,-56.5 1097.95,-56.5"/>
<text text-anchor="middle" x="1150.95" y="-63.5" font-family="Helvetica,sans-Serif" font-size="10.00">thorin/util/assert.h</text>
</a>
</g>
</g>
<!-- Node9&#45;&gt;Node23 -->
<g id="edge60" class="edge">
<title>Node9&#45;&gt;Node23</title>
<path fill="none" stroke="midnightblue" d="M970.82,-352.93C1027.21,-329.48 1177.12,-258.18 1233.95,-143 1240.05,-130.64 1241,-123.84 1233.95,-112 1224.85,-96.72 1208.56,-86.31 1192.81,-79.39"/>
<polygon fill="midnightblue" stroke="midnightblue" points="1193.72,-75.98 1183.13,-75.51 1191.12,-82.48 1193.72,-75.98"/>
</g>
<!-- Node11 -->
<g id="node11" class="node">
<title>Node11</title>
<g id="a_node11"><a xlink:title=" ">
<polygon fill="none" stroke="#bfbfbf" points="920.45,-235.5 920.45,-254.5 971.45,-254.5 971.45,-235.5 920.45,-235.5"/>
<text text-anchor="middle" x="945.95" y="-242.5" font-family="Helvetica,sans-Serif" font-size="10.00">variant</text>
</a>
</g>
</g>
<!-- Node10&#45;&gt;Node11 -->
<g id="edge10" class="edge">
<title>Node10&#45;&gt;Node11</title>
<path fill="none" stroke="midnightblue" d="M945.95,-291.08C945.95,-284.01 945.95,-273.86 945.95,-264.99"/>
<polygon fill="midnightblue" stroke="midnightblue" points="949.45,-264.75 945.95,-254.75 942.45,-264.75 949.45,-264.75"/>
</g>
<!-- Node12 -->
<g id="node12" class="node">
<title>Node12</title>
<g id="a_node12"><a xlink:href="def_8h.html" target="_top" xlink:title=" ">
<polygon fill="none" stroke="black" points="668.95,-235.5 668.95,-254.5 740.95,-254.5 740.95,-235.5 668.95,-235.5"/>
<text text-anchor="middle" x="704.95" y="-242.5" font-family="Helvetica,sans-Serif" font-size="10.00">thorin/def.h</text>
</a>
</g>
</g>
<!-- Node10&#45;&gt;Node12 -->
<g id="edge11" class="edge">
<title>Node10&#45;&gt;Node12</title>
<path fill="none" stroke="midnightblue" d="M907.76,-291.44C865.19,-281.9 796.37,-266.48 750.89,-256.29"/>
<polygon fill="midnightblue" stroke="midnightblue" points="751.51,-252.85 740.99,-254.08 749.98,-259.68 751.51,-252.85"/>
</g>
<!-- Node13 -->
<g id="node13" class="node">
<title>Node13</title>
<g id="a_node13"><a xlink:title=" ">
<polygon fill="none" stroke="#bfbfbf" points="641.95,-179.5 641.95,-198.5 697.95,-198.5 697.95,-179.5 641.95,-179.5"/>
<text text-anchor="middle" x="669.95" y="-186.5" font-family="Helvetica,sans-Serif" font-size="10.00">optional</text>
</a>
</g>
</g>
<!-- Node12&#45;&gt;Node13 -->
<g id="edge12" class="edge">
<title>Node12&#45;&gt;Node13</title>
<path fill="none" stroke="midnightblue" d="M699.17,-235.08C694.28,-227.53 687.12,-216.49 681.12,-207.23"/>
<polygon fill="midnightblue" stroke="midnightblue" points="684,-205.24 675.62,-198.75 678.12,-209.05 684,-205.24"/>
</g>
<!-- Node14 -->
<g id="node14" class="node">
<title>Node14</title>
<g id="a_node14"><a xlink:title=" ">
<polygon fill="none" stroke="#bfbfbf" points="49.45,-56.5 49.45,-75.5 96.45,-75.5 96.45,-56.5 49.45,-56.5"/>
<text text-anchor="middle" x="72.95" y="-63.5" font-family="Helvetica,sans-Serif" font-size="10.00">vector</text>
</a>
</g>
</g>
<!-- Node12&#45;&gt;Node14 -->
<g id="edge13" class="edge">
<title>Node12&#45;&gt;Node14</title>
<path fill="none" stroke="midnightblue" d="M668.62,-244.7C537.65,-246.35 92.87,-244.32 5.95,-143 -3.02,-132.54 -0.53,-124.16 5.95,-112 13.5,-97.83 27.71,-87.33 41.11,-80.06"/>
<polygon fill="midnightblue" stroke="midnightblue" points="42.78,-83.13 50.16,-75.53 39.65,-76.87 42.78,-83.13"/>
</g>
<!-- Node12&#45;&gt;Node15 -->
<g id="edge14" class="edge">
<title>Node12&#45;&gt;Node15</title>
<path fill="none" stroke="midnightblue" d="M740.96,-236.43C785.28,-227.12 860.86,-211.24 911.1,-200.69"/>
<polygon fill="midnightblue" stroke="midnightblue" points="912.03,-204.06 921.1,-198.58 910.59,-197.21 912.03,-204.06"/>
</g>
<!-- Node18 -->
<g id="node18" class="node">
<title>Node18</title>
<g id="a_node18"><a xlink:href="tables_8h.html" target="_top" xlink:title=" ">
<polygon fill="none" stroke="black" points="810.45,-179.5 810.45,-198.5 897.45,-198.5 897.45,-179.5 810.45,-179.5"/>
<text text-anchor="middle" x="853.95" y="-186.5" font-family="Helvetica,sans-Serif" font-size="10.00">thorin/tables.h</text>
</a>
</g>
</g>
<!-- Node12&#45;&gt;Node18 -->
<g id="edge18" class="edge">
<title>Node12&#45;&gt;Node18</title>
<path fill="none" stroke="midnightblue" d="M728.56,-235.44C753.41,-226.44 792.72,-212.19 820.7,-202.05"/>
<polygon fill="midnightblue" stroke="midnightblue" points="822.24,-205.21 830.45,-198.52 819.86,-198.63 822.24,-205.21"/>
</g>
<!-- Node19 -->
<g id="node19" class="node">
<title>Node19</title>
<g id="a_node19"><a xlink:href="print_8h.html" target="_top" xlink:title=" ">
<polygon fill="none" stroke="black" points="1034.95,-118 1034.95,-137 1132.95,-137 1132.95,-118 1034.95,-118"/>
<text text-anchor="middle" x="1083.95" y="-125" font-family="Helvetica,sans-Serif" font-size="10.00">thorin/util/print.h</text>
</a>
</g>
</g>
<!-- Node12&#45;&gt;Node19 -->
<g id="edge59" class="edge">
<title>Node12&#45;&gt;Node19</title>
<path fill="none" stroke="midnightblue" d="M714.49,-235.4C730.86,-221.15 765.95,-192.85 800.95,-179 895.11,-141.73 926.73,-163.3 1025.95,-143 1031.09,-141.95 1036.47,-140.75 1041.78,-139.49"/>
<polygon fill="midnightblue" stroke="midnightblue" points="1042.96,-142.81 1051.85,-137.05 1041.31,-136.01 1042.96,-142.81"/>
</g>
<!-- Node31 -->
<g id="node31" class="node">
<title>Node31</title>
<g id="a_node31"><a xlink:href="array_8h.html" target="_top" xlink:title=" ">
<polygon fill="none" stroke="black" points="558.95,-118 558.95,-137 658.95,-137 658.95,-118 558.95,-118"/>
<text text-anchor="middle" x="608.95" y="-125" font-family="Helvetica,sans-Serif" font-size="10.00">thorin/util/array.h</text>
</a>
</g>
</g>
<!-- Node12&#45;&gt;Node31 -->
<g id="edge35" class="edge">
<title>Node12&#45;&gt;Node31</title>
<path fill="none" stroke="midnightblue" d="M683.57,-235.4C667.56,-227.96 646.23,-215.75 632.95,-199 621.05,-183.98 614.88,-162.72 611.8,-147.48"/>
<polygon fill="midnightblue" stroke="midnightblue" points="615.17,-146.45 610,-137.2 608.28,-147.66 615.17,-146.45"/>
</g>
<!-- Node38 -->
<g id="node38" class="node">
<title>Node38</title>
<g id="a_node38"><a xlink:href="cast_8h.html" target="_top" xlink:title=" ">
<polygon fill="none" stroke="black" points="676.95,-118 676.95,-137 772.95,-137 772.95,-118 676.95,-118"/>
<text text-anchor="middle" x="724.95" y="-125" font-family="Helvetica,sans-Serif" font-size="10.00">thorin/util/cast.h</text>
</a>
</g>
</g>
<!-- Node12&#45;&gt;Node38 -->
<g id="edge46" class="edge">
<title>Node12&#45;&gt;Node38</title>
<path fill="none" stroke="midnightblue" d="M706.45,-235.32C709.67,-216.76 717.27,-172.84 721.66,-147.47"/>
<polygon fill="midnightblue" stroke="midnightblue" points="725.17,-147.73 723.43,-137.28 718.27,-146.54 725.17,-147.73"/>
</g>
<!-- Node39 -->
<g id="node39" class="node">
<title>Node39</title>
<g id="a_node39"><a xlink:href="container_8h.html" target="_top" xlink:title=" ">
<polygon fill="none" stroke="black" points="426.45,-179.5 426.45,-198.5 547.45,-198.5 547.45,-179.5 426.45,-179.5"/>
<text text-anchor="middle" x="486.95" y="-186.5" font-family="Helvetica,sans-Serif" font-size="10.00">thorin/util/container.h</text>
</a>
</g>
</g>
<!-- Node12&#45;&gt;Node39 -->
<g id="edge49" class="edge">
<title>Node12&#45;&gt;Node39</title>
<path fill="none" stroke="midnightblue" d="M670.41,-235.44C632.7,-226.1 572.21,-211.12 531.09,-200.93"/>
<polygon fill="midnightblue" stroke="midnightblue" points="531.88,-197.52 521.33,-198.52 530.2,-204.32 531.88,-197.52"/>
</g>
<!-- Node12&#45;&gt;Node44 -->
<g id="edge58" class="edge">
<title>Node12&#45;&gt;Node44</title>
<path fill="none" stroke="midnightblue" d="M668.76,-241.61C613.46,-237.23 505.07,-225.79 416.95,-199 396.78,-192.87 394.15,-185 373.95,-179 265.92,-146.89 233.54,-164.7 122.95,-143 117.6,-141.95 112.01,-140.72 106.5,-139.43"/>
<polygon fill="midnightblue" stroke="midnightblue" points="107.27,-136.02 96.73,-137.07 105.62,-142.82 107.27,-136.02"/>
</g>
<!-- Node15&#45;&gt;Node5 -->
<g id="edge15" class="edge">
<title>Node15&#45;&gt;Node5</title>
<path fill="none" stroke="midnightblue" d="M1005.54,-183.42C1078.1,-175.42 1217.39,-158.27 1233.95,-143 1249.7,-128.48 1253.26,-103.06 1253.67,-85.65"/>
<polygon fill="midnightblue" stroke="midnightblue" points="1257.17,-85.52 1253.58,-75.56 1250.17,-85.59 1257.17,-85.52"/>
</g>
<!-- Node16 -->
<g id="node16" class="node">
<title>Node16</title>
<g id="a_node16"><a xlink:title=" ">
<polygon fill="none" stroke="#bfbfbf" points="790.95,-112.5 790.95,-142.5 894.95,-142.5 894.95,-112.5 790.95,-112.5"/>
<text text-anchor="start" x="798.95" y="-130.5" font-family="Helvetica,sans-Serif" font-size="10.00">absl/container/flat</text>
<text text-anchor="middle" x="842.95" y="-119.5" font-family="Helvetica,sans-Serif" font-size="10.00">_hash_map.h</text>
</a>
</g>
</g>
<!-- Node15&#45;&gt;Node16 -->
<g id="edge16" class="edge">
<title>Node15&#45;&gt;Node16</title>
<path fill="none" stroke="midnightblue" d="M944.9,-179.48C928.03,-171.04 901.66,-157.86 879.97,-147.01"/>
<polygon fill="midnightblue" stroke="midnightblue" points="881.51,-143.86 871,-142.52 878.37,-150.13 881.51,-143.86"/>
</g>
<!-- Node17 -->
<g id="node17" class="node">
<title>Node17</title>
<g id="a_node17"><a xlink:title=" ">
<polygon fill="none" stroke="#bfbfbf" points="912.95,-112.5 912.95,-142.5 1016.95,-142.5 1016.95,-112.5 912.95,-112.5"/>
<text text-anchor="start" x="920.95" y="-130.5" font-family="Helvetica,sans-Serif" font-size="10.00">absl/container/flat</text>
<text text-anchor="middle" x="964.95" y="-119.5" font-family="Helvetica,sans-Serif" font-size="10.00">_hash_set.h</text>
</a>
</g>
</g>
<!-- Node15&#45;&gt;Node17 -->
<g id="edge17" class="edge">
<title>Node15&#45;&gt;Node17</title>
<path fill="none" stroke="midnightblue" d="M962.38,-179.48C962.73,-172.47 963.25,-162.19 963.73,-152.7"/>
<polygon fill="midnightblue" stroke="midnightblue" points="967.23,-152.69 964.24,-142.52 960.24,-152.33 967.23,-152.69"/>
</g>
<!-- Node18&#45;&gt;Node6 -->
<g id="edge19" class="edge">
<title>Node18&#45;&gt;Node6</title>
<path fill="none" stroke="midnightblue" d="M897.48,-180.84C901.36,-180.21 905.22,-179.59 908.95,-179 1012.43,-162.54 1039.91,-166.82 1141.95,-143 1145.79,-142.1 1149.76,-141.05 1153.7,-139.92"/>
<polygon fill="midnightblue" stroke="midnightblue" points="1154.75,-143.26 1163.31,-137.02 1152.73,-136.56 1154.75,-143.26"/>
</g>
<!-- Node18&#45;&gt;Node19 -->
<g id="edge20" class="edge">
<title>Node18&#45;&gt;Node19</title>
<path fill="none" stroke="midnightblue" d="M886.9,-179.48C927.55,-168.96 996.74,-151.06 1041.37,-139.51"/>
<polygon fill="midnightblue" stroke="midnightblue" points="1042.25,-142.9 1051.06,-137.01 1040.5,-136.13 1042.25,-142.9"/>
</g>
<!-- Node25 -->
<g id="node25" class="node">
<title>Node25</title>
<g id="a_node25"><a xlink:href="types_8h.html" target="_top" xlink:title=" ">
<polygon fill="none" stroke="black" points="195.45,-56.5 195.45,-75.5 298.45,-75.5 298.45,-56.5 195.45,-56.5"/>
<text text-anchor="middle" x="246.95" y="-63.5" font-family="Helvetica,sans-Serif" font-size="10.00">thorin/util/types.h</text>
</a>
</g>
</g>
<!-- Node18&#45;&gt;Node25 -->
<g id="edge28" class="edge">
<title>Node18&#45;&gt;Node25</title>
<path fill="none" stroke="midnightblue" d="M810.45,-184.36C737.96,-177.83 595.9,-162.93 549.95,-143 529.64,-134.19 531.17,-121.03 510.95,-112 501.75,-107.89 383.96,-88.71 308.86,-76.76"/>
<polygon fill="midnightblue" stroke="midnightblue" points="308.99,-73.23 298.56,-75.12 307.89,-80.15 308.99,-73.23"/>
</g>
<!-- Node19&#45;&gt;Node4 -->
<g id="edge24" class="edge">
<title>Node19&#45;&gt;Node4</title>
<path fill="none" stroke="midnightblue" d="M1116.61,-117.96C1125.15,-115.86 1134.37,-113.73 1142.95,-112 1230.3,-94.38 1333.91,-79.45 1388.64,-72.03"/>
<polygon fill="midnightblue" stroke="midnightblue" points="1389.15,-75.49 1398.59,-70.69 1388.22,-68.56 1389.15,-75.49"/>
</g>
<!-- Node19&#45;&gt;Node5 -->
<g id="edge25" class="edge">
<title>Node19&#45;&gt;Node5</title>
<path fill="none" stroke="midnightblue" d="M1108.16,-117.98C1137.94,-107.49 1188.56,-89.67 1221.36,-78.12"/>
<polygon fill="midnightblue" stroke="midnightblue" points="1222.66,-81.37 1230.93,-74.75 1220.34,-74.77 1222.66,-81.37"/>
</g>
<!-- Node20 -->
<g id="node20" class="node">
<title>Node20</title>
<g id="a_node20"><a xlink:title=" ">
<polygon fill="none" stroke="#bfbfbf" points="1019.95,-56.5 1019.95,-75.5 1079.95,-75.5 1079.95,-56.5 1019.95,-56.5"/>
<text text-anchor="middle" x="1049.95" y="-63.5" font-family="Helvetica,sans-Serif" font-size="10.00">iostream</text>
</a>
</g>
</g>
<!-- Node19&#45;&gt;Node20 -->
<g id="edge21" class="edge">
<title>Node19&#45;&gt;Node20</title>
<path fill="none" stroke="midnightblue" d="M1079.08,-117.98C1074.08,-109.23 1066.16,-95.37 1059.84,-84.31"/>
<polygon fill="midnightblue" stroke="midnightblue" points="1062.81,-82.46 1054.81,-75.51 1056.73,-85.93 1062.81,-82.46"/>
</g>
<!-- Node21 -->
<g id="node21" class="node">
<title>Node21</title>
<g id="a_node21"><a xlink:title=" ">
<polygon fill="none" stroke="#bfbfbf" points="668.45,-0.5 668.45,-19.5 725.45,-19.5 725.45,-0.5 668.45,-0.5"/>
<text text-anchor="middle" x="696.95" y="-7.5" font-family="Helvetica,sans-Serif" font-size="10.00">ostream</text>
</a>
</g>
</g>
<!-- Node19&#45;&gt;Node21 -->
<g id="edge22" class="edge">
<title>Node19&#45;&gt;Node21</title>
<path fill="none" stroke="midnightblue" d="M1068.27,-117.79C1040.97,-102.98 982.59,-72.87 929.95,-56 863.2,-34.61 782.26,-21.78 735.48,-15.57"/>
<polygon fill="midnightblue" stroke="midnightblue" points="735.83,-12.09 725.47,-14.28 734.94,-19.03 735.83,-12.09"/>
</g>
<!-- Node22 -->
<g id="node22" class="node">
<title>Node22</title>
<g id="a_node22"><a xlink:title=" ">
<polygon fill="none" stroke="#bfbfbf" points="870.95,-56.5 870.95,-75.5 920.95,-75.5 920.95,-56.5 870.95,-56.5"/>
<text text-anchor="middle" x="895.95" y="-63.5" font-family="Helvetica,sans-Serif" font-size="10.00">ranges</text>
</a>
</g>
</g>
<!-- Node19&#45;&gt;Node22 -->
<g id="edge23" class="edge">
<title>Node19&#45;&gt;Node22</title>
<path fill="none" stroke="midnightblue" d="M1057.01,-117.98C1023.79,-107.46 967.24,-89.56 930.76,-78.02"/>
<polygon fill="midnightblue" stroke="midnightblue" points="931.62,-74.62 921.03,-74.94 929.51,-81.29 931.62,-74.62"/>
</g>
<!-- Node19&#45;&gt;Node23 -->
<g id="edge26" class="edge">
<title>Node19&#45;&gt;Node23</title>
<path fill="none" stroke="midnightblue" d="M1093.55,-117.98C1104,-108.7 1120.92,-93.67 1133.69,-82.33"/>
<polygon fill="midnightblue" stroke="midnightblue" points="1136.22,-84.77 1141.37,-75.51 1131.57,-79.53 1136.22,-84.77"/>
</g>
<!-- Node24 -->
<g id="node24" class="node">
<title>Node24</title>
<g id="a_node24"><a xlink:title=" ">
<polygon fill="none" stroke="#bfbfbf" points="960.95,-0.5 960.95,-19.5 1012.95,-19.5 1012.95,-0.5 960.95,-0.5"/>
<text text-anchor="middle" x="986.95" y="-7.5" font-family="Helvetica,sans-Serif" font-size="10.00">cassert</text>
</a>
</g>
</g>
<!-- Node23&#45;&gt;Node24 -->
<g id="edge27" class="edge">
<title>Node23&#45;&gt;Node24</title>
<path fill="none" stroke="midnightblue" d="M1124.96,-56.44C1097.25,-47.32 1053.2,-32.81 1022.33,-22.65"/>
<polygon fill="midnightblue" stroke="midnightblue" points="1023.41,-19.32 1012.81,-19.52 1021.22,-25.97 1023.41,-19.32"/>
</g>
<!-- Node25&#45;&gt;Node21 -->
<g id="edge31" class="edge">
<title>Node25&#45;&gt;Node21</title>
<path fill="none" stroke="midnightblue" d="M298.64,-57.13C301.45,-56.74 304.24,-56.36 306.95,-56 435.16,-38.99 587.58,-22.47 657.88,-15.06"/>
<polygon fill="midnightblue" stroke="midnightblue" points="658.46,-18.52 668.04,-14 657.73,-11.56 658.46,-18.52"/>
</g>
<!-- Node26 -->
<g id="node26" class="node">
<title>Node26</title>
<g id="a_node26"><a xlink:title=" ">
<polygon fill="none" stroke="#bfbfbf" points="159.95,-0.5 159.95,-19.5 209.95,-19.5 209.95,-0.5 159.95,-0.5"/>
<text text-anchor="middle" x="184.95" y="-7.5" font-family="Helvetica,sans-Serif" font-size="10.00">cstdint</text>
</a>
</g>
</g>
<!-- Node25&#45;&gt;Node26 -->
<g id="edge29" class="edge">
<title>Node25&#45;&gt;Node26</title>
<path fill="none" stroke="midnightblue" d="M236.99,-56.32C227.82,-48.34 214.01,-36.31 202.92,-26.65"/>
<polygon fill="midnightblue" stroke="midnightblue" points="204.93,-23.76 195.09,-19.83 200.33,-29.04 204.93,-23.76"/>
</g>
<!-- Node27 -->
<g id="node27" class="node">
<title>Node27</title>
<g id="a_node27"><a xlink:title=" ">
<polygon fill="none" stroke="#bfbfbf" points="227.95,-0.5 227.95,-19.5 271.95,-19.5 271.95,-0.5 227.95,-0.5"/>
<text text-anchor="middle" x="249.95" y="-7.5" font-family="Helvetica,sans-Serif" font-size="10.00">limits</text>
</a>
</g>
</g>
<!-- Node25&#45;&gt;Node27 -->
<g id="edge30" class="edge">
<title>Node25&#45;&gt;Node27</title>
<path fill="none" stroke="midnightblue" d="M247.45,-56.08C247.84,-49.01 248.4,-38.86 248.9,-29.99"/>
<polygon fill="midnightblue" stroke="midnightblue" points="252.4,-29.93 249.46,-19.75 245.41,-29.54 252.4,-29.93"/>
</g>
<!-- Node28 -->
<g id="node28" class="node">
<title>Node28</title>
<g id="a_node28"><a xlink:title=" ">
<polygon fill="none" stroke="#bfbfbf" points="360.45,-0.5 360.45,-19.5 429.45,-19.5 429.45,-0.5 360.45,-0.5"/>
<text text-anchor="middle" x="394.95" y="-7.5" font-family="Helvetica,sans-Serif" font-size="10.00">type_traits</text>
</a>
</g>
</g>
<!-- Node25&#45;&gt;Node28 -->
<g id="edge32" class="edge">
<title>Node25&#45;&gt;Node28</title>
<path fill="none" stroke="midnightblue" d="M270.4,-56.44C295.08,-47.44 334.14,-33.19 361.93,-23.05"/>
<polygon fill="midnightblue" stroke="midnightblue" points="363.41,-26.23 371.61,-19.52 361.01,-19.66 363.41,-26.23"/>
</g>
<!-- Node29 -->
<g id="node29" class="node">
<title>Node29</title>
<g id="a_node29"><a xlink:title=" ">
<polygon fill="none" stroke="#bfbfbf" points="290.45,-0.5 290.45,-19.5 337.45,-19.5 337.45,-0.5 290.45,-0.5"/>
<text text-anchor="middle" x="313.95" y="-7.5" font-family="Helvetica,sans-Serif" font-size="10.00">cmath</text>
</a>
</g>
</g>
<!-- Node25&#45;&gt;Node29 -->
<g id="edge33" class="edge">
<title>Node25&#45;&gt;Node29</title>
<path fill="none" stroke="midnightblue" d="M257.71,-56.32C267.72,-48.26 282.84,-36.08 294.88,-26.37"/>
<polygon fill="midnightblue" stroke="midnightblue" points="297.4,-28.83 302.99,-19.83 293.01,-23.38 297.4,-28.83"/>
</g>
<!-- Node30 -->
<g id="node30" class="node">
<title>Node30</title>
<g id="a_node30"><a xlink:title=" ">
<polygon fill="none" stroke="#bfbfbf" points="85.95,-0.5 85.95,-19.5 141.95,-19.5 141.95,-0.5 85.95,-0.5"/>
<text text-anchor="middle" x="113.95" y="-7.5" font-family="Helvetica,sans-Serif" font-size="10.00">half.hpp</text>
</a>
</g>
</g>
<!-- Node25&#45;&gt;Node30 -->
<g id="edge34" class="edge">
<title>Node25&#45;&gt;Node30</title>
<path fill="none" stroke="midnightblue" d="M225.88,-56.44C203.89,-47.52 169.22,-33.44 144.29,-23.32"/>
<polygon fill="midnightblue" stroke="midnightblue" points="145.51,-20.04 134.93,-19.52 142.87,-26.52 145.51,-20.04"/>
</g>
<!-- Node31&#45;&gt;Node14 -->
<g id="edge45" class="edge">
<title>Node31&#45;&gt;Node14</title>
<path fill="none" stroke="midnightblue" d="M558.9,-118.66C543.54,-116.37 526.57,-113.96 510.95,-112 360.58,-93.16 180.43,-76.51 106.81,-69.96"/>
<polygon fill="midnightblue" stroke="midnightblue" points="107,-66.46 96.73,-69.07 106.38,-73.44 107,-66.46"/>
</g>
<!-- Node31&#45;&gt;Node22 -->
<g id="edge43" class="edge">
<title>Node31&#45;&gt;Node22</title>
<path fill="none" stroke="midnightblue" d="M642.26,-117.96C650.62,-115.91 659.6,-113.8 667.95,-112 750.58,-94.2 774.67,-95.14 860.8,-76.12"/>
<polygon fill="midnightblue" stroke="midnightblue" points="861.76,-79.49 870.75,-73.9 860.23,-72.66 861.76,-79.49"/>
</g>
<!-- Node31&#45;&gt;Node24 -->
<g id="edge36" class="edge">
<title>Node31&#45;&gt;Node24</title>
<path fill="none" stroke="midnightblue" d="M637.38,-117.97C667.14,-108.75 714.99,-93.06 754.95,-76 772.87,-68.35 775.66,-62.71 793.95,-56 847.03,-36.54 911.48,-23.52 950.84,-16.69"/>
<polygon fill="midnightblue" stroke="midnightblue" points="951.49,-20.13 960.77,-15.01 950.32,-13.23 951.49,-20.13"/>
</g>
<!-- Node31&#45;&gt;Node28 -->
<g id="edge44" class="edge">
<title>Node31&#45;&gt;Node28</title>
<path fill="none" stroke="midnightblue" d="M572.87,-117.94C518.87,-105 422.73,-81.39 416.95,-76 404.17,-64.07 398.81,-44.46 396.57,-29.89"/>
<polygon fill="midnightblue" stroke="midnightblue" points="399.99,-29.06 395.35,-19.53 393.04,-29.87 399.99,-29.06"/>
</g>
<!-- Node32 -->
<g id="node32" class="node">
<title>Node32</title>
<g id="a_node32"><a xlink:title=" ">
<polygon fill="none" stroke="#bfbfbf" points="426.45,-56.5 426.45,-75.5 479.45,-75.5 479.45,-56.5 426.45,-56.5"/>
<text text-anchor="middle" x="452.95" y="-63.5" font-family="Helvetica,sans-Serif" font-size="10.00">cstddef</text>
</a>
</g>
</g>
<!-- Node31&#45;&gt;Node32 -->
<g id="edge37" class="edge">
<title>Node31&#45;&gt;Node32</title>
<path fill="none" stroke="midnightblue" d="M586.6,-117.98C559.96,-107.81 515.24,-90.76 484.94,-79.2"/>
<polygon fill="midnightblue" stroke="midnightblue" points="485.85,-75.8 475.26,-75.51 483.36,-82.34 485.85,-75.8"/>
</g>
<!-- Node33 -->
<g id="node33" class="node">
<title>Node33</title>
<g id="a_node33"><a xlink:title=" ">
<polygon fill="none" stroke="#bfbfbf" points="802.95,-56.5 802.95,-75.5 852.95,-75.5 852.95,-56.5 802.95,-56.5"/>
<text text-anchor="middle" x="827.95" y="-63.5" font-family="Helvetica,sans-Serif" font-size="10.00">cstring</text>
</a>
</g>
</g>
<!-- Node31&#45;&gt;Node33 -->
<g id="edge38" class="edge">
<title>Node31&#45;&gt;Node33</title>
<path fill="none" stroke="midnightblue" d="M640.33,-117.98C680.75,-106.99 750.83,-87.95 792.94,-76.51"/>
<polygon fill="midnightblue" stroke="midnightblue" points="794.03,-79.84 802.76,-73.84 792.19,-73.09 794.03,-79.84"/>
</g>
<!-- Node34 -->
<g id="node34" class="node">
<title>Node34</title>
<g id="a_node34"><a xlink:title=" ">
<polygon fill="none" stroke="#bfbfbf" points="497.95,-56.5 497.95,-75.5 561.95,-75.5 561.95,-56.5 497.95,-56.5"/>
<text text-anchor="middle" x="529.95" y="-63.5" font-family="Helvetica,sans-Serif" font-size="10.00">algorithm</text>
</a>
</g>
</g>
<!-- Node31&#45;&gt;Node34 -->
<g id="edge39" class="edge">
<title>Node31&#45;&gt;Node34</title>
<path fill="none" stroke="midnightblue" d="M597.63,-117.98C585.08,-108.52 564.6,-93.1 549.45,-81.69"/>
<polygon fill="midnightblue" stroke="midnightblue" points="551.34,-78.73 541.25,-75.51 547.13,-84.32 551.34,-78.73"/>
</g>
<!-- Node35 -->
<g id="node35" class="node">
<title>Node35</title>
<g id="a_node35"><a xlink:title=" ">
<polygon fill="none" stroke="#bfbfbf" points="580.45,-56.5 580.45,-75.5 645.45,-75.5 645.45,-56.5 580.45,-56.5"/>
<text text-anchor="middle" x="612.95" y="-63.5" font-family="Helvetica,sans-Serif" font-size="10.00">functional</text>
</a>
</g>
</g>
<!-- Node31&#45;&gt;Node35 -->
<g id="edge40" class="edge">
<title>Node31&#45;&gt;Node35</title>
<path fill="none" stroke="midnightblue" d="M609.52,-117.98C610.09,-109.58 610.97,-96.48 611.7,-85.66"/>
<polygon fill="midnightblue" stroke="midnightblue" points="615.2,-85.72 612.38,-75.51 608.21,-85.25 615.2,-85.72"/>
</g>
<!-- Node36 -->
<g id="node36" class="node">
<title>Node36</title>
<g id="a_node36"><a xlink:title=" ">
<polygon fill="none" stroke="#bfbfbf" points="663.45,-56.5 663.45,-75.5 746.45,-75.5 746.45,-56.5 663.45,-56.5"/>
<text text-anchor="middle" x="704.95" y="-63.5" font-family="Helvetica,sans-Serif" font-size="10.00">initializer_list</text>
</a>
</g>
</g>
<!-- Node31&#45;&gt;Node36 -->
<g id="edge41" class="edge">
<title>Node31&#45;&gt;Node36</title>
<path fill="none" stroke="midnightblue" d="M622.7,-117.98C638.32,-108.3 664.01,-92.37 682.53,-80.89"/>
<polygon fill="midnightblue" stroke="midnightblue" points="684.57,-83.75 691.22,-75.51 680.88,-77.8 684.57,-83.75"/>
</g>
<!-- Node37 -->
<g id="node37" class="node">
<title>Node37</title>
<g id="a_node37"><a xlink:title=" ">
<polygon fill="none" stroke="#bfbfbf" points="316.45,-56.5 316.45,-75.5 369.45,-75.5 369.45,-56.5 316.45,-56.5"/>
<text text-anchor="middle" x="342.95" y="-63.5" font-family="Helvetica,sans-Serif" font-size="10.00">iterator</text>
</a>
</g>
</g>
<!-- Node31&#45;&gt;Node37 -->
<g id="edge42" class="edge">
<title>Node31&#45;&gt;Node37</title>
<path fill="none" stroke="midnightblue" d="M571.39,-117.97C562.71,-116 553.51,-113.92 544.95,-112 487.23,-99.03 420.19,-84.13 379.7,-75.14"/>
<polygon fill="midnightblue" stroke="midnightblue" points="380.27,-71.69 369.75,-72.94 378.76,-78.52 380.27,-71.69"/>
</g>
<!-- Node38&#45;&gt;Node24 -->
<g id="edge47" class="edge">
<title>Node38&#45;&gt;Node24</title>
<path fill="none" stroke="midnightblue" d="M758.39,-117.93C766.12,-115.97 774.32,-113.9 781.95,-112 847.64,-95.66 872.05,-111.08 929.95,-76 949.54,-64.13 966.02,-43.32 976.15,-28.44"/>
<polygon fill="midnightblue" stroke="midnightblue" points="979.33,-29.97 981.85,-19.68 973.46,-26.15 979.33,-29.97"/>
</g>
<!-- Node38&#45;&gt;Node33 -->
<g id="edge48" class="edge">
<title>Node38&#45;&gt;Node33</title>
<path fill="none" stroke="midnightblue" d="M739.71,-117.98C756.61,-108.21 784.53,-92.08 804.44,-80.58"/>
<polygon fill="midnightblue" stroke="midnightblue" points="806.31,-83.54 813.22,-75.51 802.81,-77.48 806.31,-83.54"/>
</g>
<!-- Node39&#45;&gt;Node16 -->
<g id="edge52" class="edge">
<title>Node39&#45;&gt;Node16</title>
<path fill="none" stroke="midnightblue" d="M547.65,-180.22C605.25,-172.51 694.43,-159.69 780.8,-143.13"/>
<polygon fill="midnightblue" stroke="midnightblue" points="781.62,-146.54 790.77,-141.2 780.28,-139.67 781.62,-146.54"/>
</g>
<!-- Node39&#45;&gt;Node17 -->
<g id="edge53" class="edge">
<title>Node39&#45;&gt;Node17</title>
<path fill="none" stroke="midnightblue" d="M547.52,-180.65C552.4,-180.09 557.26,-179.53 561.95,-179 710.57,-162.26 751.54,-168.44 902.68,-143.08"/>
<polygon fill="midnightblue" stroke="midnightblue" points="903.52,-146.49 912.8,-141.36 902.35,-139.59 903.52,-146.49"/>
</g>
<!-- Node40 -->
<g id="node40" class="node">
<title>Node40</title>
<g id="a_node40"><a xlink:title=" ">
<polygon fill="none" stroke="#bfbfbf" points="132.45,-118 132.45,-137 179.45,-137 179.45,-118 132.45,-118"/>
<text text-anchor="middle" x="155.95" y="-125" font-family="Helvetica,sans-Serif" font-size="10.00">queue</text>
</a>
</g>
</g>
<!-- Node39&#45;&gt;Node40 -->
<g id="edge50" class="edge">
<title>Node39&#45;&gt;Node40</title>
<path fill="none" stroke="midnightblue" d="M426.15,-179.76C345.39,-168.68 210.29,-149.6 187.95,-143 186.02,-142.43 184.06,-141.77 182.1,-141.04"/>
<polygon fill="midnightblue" stroke="midnightblue" points="183.13,-137.68 172.56,-137.07 180.45,-144.14 183.13,-137.68"/>
</g>
<!-- Node41 -->
<g id="node41" class="node">
<title>Node41</title>
<g id="a_node41"><a xlink:title=" ">
<polygon fill="none" stroke="#bfbfbf" points="197.45,-118 197.45,-137 240.45,-137 240.45,-118 197.45,-118"/>
<text text-anchor="middle" x="218.95" y="-125" font-family="Helvetica,sans-Serif" font-size="10.00">stack</text>
</a>
</g>
</g>
<!-- Node39&#45;&gt;Node41 -->
<g id="edge51" class="edge">
<title>Node39&#45;&gt;Node41</title>
<path fill="none" stroke="midnightblue" d="M426.18,-181C377.42,-174.32 307.66,-162.36 248.95,-143 247.33,-142.46 245.68,-141.86 244.03,-141.21"/>
<polygon fill="midnightblue" stroke="midnightblue" points="245.38,-137.98 234.82,-137.13 242.54,-144.38 245.38,-137.98"/>
</g>
<!-- Node42 -->
<g id="node42" class="node">
<title>Node42</title>
<g id="a_node42"><a xlink:title=" ">
<polygon fill="none" stroke="#bfbfbf" points="258.45,-112.5 258.45,-142.5 371.45,-142.5 371.45,-112.5 258.45,-112.5"/>
<text text-anchor="start" x="266.45" y="-130.5" font-family="Helvetica,sans-Serif" font-size="10.00">absl/container/node</text>
<text text-anchor="middle" x="314.95" y="-119.5" font-family="Helvetica,sans-Serif" font-size="10.00">_hash_map.h</text>
</a>
</g>
</g>
<!-- Node39&#45;&gt;Node42 -->
<g id="edge54" class="edge">
<title>Node39&#45;&gt;Node42</title>
<path fill="none" stroke="midnightblue" d="M462.31,-179.48C437.05,-170.74 397.07,-156.91 365.12,-145.86"/>
<polygon fill="midnightblue" stroke="midnightblue" points="366.08,-142.48 355.49,-142.52 363.79,-149.1 366.08,-142.48"/>
</g>
<!-- Node43 -->
<g id="node43" class="node">
<title>Node43</title>
<g id="a_node43"><a xlink:title=" ">
<polygon fill="none" stroke="#bfbfbf" points="389.45,-112.5 389.45,-142.5 502.45,-142.5 502.45,-112.5 389.45,-112.5"/>
<text text-anchor="start" x="397.45" y="-130.5" font-family="Helvetica,sans-Serif" font-size="10.00">absl/container/node</text>
<text text-anchor="middle" x="445.95" y="-119.5" font-family="Helvetica,sans-Serif" font-size="10.00">_hash_set.h</text>
</a>
</g>
</g>
<!-- Node39&#45;&gt;Node43 -->
<g id="edge55" class="edge">
<title>Node39&#45;&gt;Node43</title>
<path fill="none" stroke="midnightblue" d="M481.08,-179.48C475.94,-172.02 468.24,-160.85 461.36,-150.87"/>
<polygon fill="midnightblue" stroke="midnightblue" points="464.17,-148.77 455.61,-142.52 458.4,-152.74 464.17,-148.77"/>
</g>
<!-- Node39&#45;&gt;Node44 -->
<g id="edge56" class="edge">
<title>Node39&#45;&gt;Node44</title>
<path fill="none" stroke="midnightblue" d="M426.26,-180.69C326.57,-168.66 137.64,-145.73 122.95,-143 117.47,-141.98 111.73,-140.75 106.08,-139.44"/>
<polygon fill="midnightblue" stroke="midnightblue" points="106.64,-135.97 96.1,-137.03 105,-142.78 106.64,-135.97"/>
</g>
<!-- Node44&#45;&gt;Node25 -->
<g id="edge57" class="edge">
<title>Node44&#45;&gt;Node25</title>
<path fill="none" stroke="midnightblue" d="M91.03,-117.98C122.52,-107.68 175.65,-90.31 211.01,-78.75"/>
<polygon fill="midnightblue" stroke="midnightblue" points="212.5,-81.94 220.92,-75.51 210.33,-75.29 212.5,-81.94"/>
</g>
<!-- Node46&#45;&gt;Node4 -->
<g id="edge64" class="edge">
<title>Node46&#45;&gt;Node4</title>
<path fill="none" stroke="midnightblue" d="M1056.75,-235.49C1077.52,-226.52 1111.1,-211.93 1139.95,-199 1235.62,-156.1 1348.46,-103.66 1399.47,-79.85"/>
<polygon fill="midnightblue" stroke="midnightblue" points="1400.96,-83.02 1408.54,-75.62 1398,-76.68 1400.96,-83.02"/>
</g>
<!-- Node46&#45;&gt;Node15 -->
<g id="edge66" class="edge">
<title>Node46&#45;&gt;Node15</title>
<path fill="none" stroke="midnightblue" d="M1024.9,-235.32C1013.49,-227.11 996.12,-214.6 982.52,-204.81"/>
<polygon fill="midnightblue" stroke="midnightblue" points="984.38,-201.84 974.22,-198.83 980.29,-207.52 984.38,-201.84"/>
</g>
<!-- Node46&#45;&gt;Node19 -->
<g id="edge67" class="edge">
<title>Node46&#45;&gt;Node19</title>
<path fill="none" stroke="midnightblue" d="M1038.82,-235.38C1041.72,-222.73 1047.8,-198.53 1055.95,-179 1060.71,-167.6 1067.37,-155.48 1073,-145.97"/>
<polygon fill="midnightblue" stroke="midnightblue" points="1076.17,-147.5 1078.38,-137.14 1070.19,-143.86 1076.17,-147.5"/>
</g>
<!-- Node47 -->
<g id="node47" class="node">
<title>Node47</title>
<g id="a_node47"><a xlink:title=" ">
<polygon fill="none" stroke="#bfbfbf" points="1065.45,-179.5 1065.45,-198.5 1130.45,-198.5 1130.45,-179.5 1065.45,-179.5"/>
<text text-anchor="middle" x="1097.95" y="-186.5" font-family="Helvetica,sans-Serif" font-size="10.00">stdexcept</text>
</a>
</g>
</g>
<!-- Node46&#45;&gt;Node47 -->
<g id="edge65" class="edge">
<title>Node46&#45;&gt;Node47</title>
<path fill="none" stroke="midnightblue" d="M1046.75,-235.32C1055.77,-227.34 1069.36,-215.31 1080.27,-205.65"/>
<polygon fill="midnightblue" stroke="midnightblue" points="1082.8,-208.08 1087.97,-198.83 1078.16,-202.84 1082.8,-208.08"/>
</g>
<!-- Node48&#45;&gt;Node12 -->
<g id="edge69" class="edge">
<title>Node48&#45;&gt;Node12</title>
<path fill="none" stroke="midnightblue" d="M704.95,-291.08C704.95,-284.01 704.95,-273.86 704.95,-264.99"/>
<polygon fill="midnightblue" stroke="midnightblue" points="708.45,-264.75 704.95,-254.75 701.45,-264.75 708.45,-264.75"/>
</g>
<!-- Node49&#45;&gt;Node12 -->
<g id="edge71" class="edge">
<title>Node49&#45;&gt;Node12</title>
<path fill="none" stroke="midnightblue" d="M791.4,-291.32C774.96,-282.7 749.52,-269.36 730.48,-259.39"/>
<polygon fill="midnightblue" stroke="midnightblue" points="731.94,-256.2 721.46,-254.65 728.69,-262.4 731.94,-256.2"/>
</g>
<!-- Node50&#45;&gt;Node12 -->
<g id="edge74" class="edge">
<title>Node50&#45;&gt;Node12</title>
<path fill="none" stroke="midnightblue" d="M565.25,-291.44C593.3,-282.32 637.89,-267.81 669.13,-257.65"/>
<polygon fill="midnightblue" stroke="midnightblue" points="670.34,-260.94 678.77,-254.52 668.18,-254.28 670.34,-260.94"/>
</g>
<!-- Node50&#45;&gt;Node19 -->
<g id="edge75" class="edge">
<title>Node50&#45;&gt;Node19</title>
<path fill="none" stroke="midnightblue" d="M542.65,-291.3C553,-268.23 584.65,-205.44 632.95,-179 709.88,-136.89 939.49,-157.68 1025.95,-143 1031.72,-142.02 1037.76,-140.77 1043.67,-139.41"/>
<polygon fill="midnightblue" stroke="midnightblue" points="1044.53,-142.81 1053.43,-137.06 1042.89,-136 1044.53,-142.81"/>
</g>
</g>
</svg>
