<?xml version="1.0" encoding="UTF-8" standalone="no"?>
<!DOCTYPE svg PUBLIC "-//W3C//DTD SVG 1.1//EN"
 "http://www.w3.org/Graphics/SVG/1.1/DTD/svg11.dtd">
<!-- Generated by graphviz version 2.43.0 (0)
 -->
<!-- Title: thorin/rewrite.h Pages: 1 -->
<svg width="2084pt" height="553pt"
 viewBox="0.00 0.00 2083.50 553.00" xmlns="http://www.w3.org/2000/svg" xmlns:xlink="http://www.w3.org/1999/xlink">
<g id="graph0" class="graph" transform="scale(1 1) rotate(0) translate(4 549)">
<title>thorin/rewrite.h</title>
<!-- Node1 -->
<g id="node1" class="node">
<title>Node1</title>
<g id="a_node1"><a xlink:title=" ">
<polygon fill="#bfbfbf" stroke="black" points="554.5,-525.5 554.5,-544.5 646.5,-544.5 646.5,-525.5 554.5,-525.5"/>
<text text-anchor="middle" x="600.5" y="-532.5" font-family="Helvetica,sans-Serif" font-size="10.00">thorin/rewrite.h</text>
</a>
</g>
</g>
<!-- Node2 -->
<g id="node2" class="node">
<title>Node2</title>
<g id="a_node2"><a xlink:href="scope_8cpp.html" target="_top" xlink:title=" ">
<polygon fill="none" stroke="black" points="0,-464 0,-483 143,-483 143,-464 0,-464"/>
<text text-anchor="middle" x="71.5" y="-471" font-family="Helvetica,sans-Serif" font-size="10.00">thorin/analyses/scope.cpp</text>
</a>
</g>
</g>
<!-- Node1&#45;&gt;Node2 -->
<g id="edge1" class="edge">
<title>Node1&#45;&gt;Node2</title>
<path fill="none" stroke="midnightblue" d="M544.23,-529.8C459.02,-523.12 292.26,-508.78 151.5,-489 139.62,-487.33 126.81,-485.17 114.99,-483.03"/>
<polygon fill="midnightblue" stroke="midnightblue" points="544.22,-533.31 554.46,-530.6 544.77,-526.33 544.22,-533.31"/>
</g>
<!-- Node3 -->
<g id="node3" class="node">
<title>Node3</title>
<g id="a_node3"><a xlink:href="def_8cpp.html" target="_top" xlink:title=" ">
<polygon fill="none" stroke="black" points="161,-464 161,-483 244,-483 244,-464 161,-464"/>
<text text-anchor="middle" x="202.5" y="-471" font-family="Helvetica,sans-Serif" font-size="10.00">thorin/def.cpp</text>
</a>
</g>
</g>
<!-- Node1&#45;&gt;Node3 -->
<g id="edge2" class="edge">
<title>Node1&#45;&gt;Node3</title>
<path fill="none" stroke="midnightblue" d="M544.18,-529.28C475.18,-522.91 354.95,-509.88 253.5,-489 245.66,-487.39 237.25,-485.19 229.58,-483"/>
<polygon fill="midnightblue" stroke="midnightblue" points="544.12,-532.79 554.39,-530.21 544.75,-525.82 544.12,-532.79"/>
</g>
<!-- Node4 -->
<g id="node4" class="node">
<title>Node4</title>
<g id="a_node4"><a xlink:href="ast_8cpp.html" target="_top" xlink:title=" ">
<polygon fill="none" stroke="black" points="262.5,-464 262.5,-483 358.5,-483 358.5,-464 262.5,-464"/>
<text text-anchor="middle" x="310.5" y="-471" font-family="Helvetica,sans-Serif" font-size="10.00">thorin/fe/ast.cpp</text>
</a>
</g>
</g>
<!-- Node1&#45;&gt;Node4 -->
<g id="edge3" class="edge">
<title>Node1&#45;&gt;Node4</title>
<path fill="none" stroke="midnightblue" d="M544.44,-523.5C498.21,-514.71 430.99,-501.61 372.5,-489 363.96,-487.16 354.79,-485.07 346.19,-483.07"/>
<polygon fill="midnightblue" stroke="midnightblue" points="544.07,-526.99 554.55,-525.42 545.38,-520.12 544.07,-526.99"/>
</g>
<!-- Node5 -->
<g id="node5" class="node">
<title>Node5</title>
<g id="a_node5"><a xlink:href="parser_8cpp.html" target="_top" xlink:title=" ">
<polygon fill="none" stroke="black" points="781,-218 781,-237 892,-237 892,-218 781,-218"/>
<text text-anchor="middle" x="836.5" y="-225" font-family="Helvetica,sans-Serif" font-size="10.00">thorin/fe/parser.cpp</text>
</a>
</g>
</g>
<!-- Node1&#45;&gt;Node5 -->
<g id="edge4" class="edge">
<title>Node1&#45;&gt;Node5</title>
<path fill="none" stroke="midnightblue" d="M544.01,-527.55C493.63,-520.66 424.92,-508.07 405.5,-489 380.66,-464.61 386.5,-447.82 386.5,-413 386.5,-413 386.5,-413 386.5,-355 386.5,-312.78 406.92,-300.08 443.5,-279 502.25,-245.14 679.35,-252.39 746.5,-243 759.2,-241.22 772.87,-239.12 785.63,-237.07"/>
<polygon fill="midnightblue" stroke="midnightblue" points="543.77,-531.05 554.14,-528.89 544.69,-524.11 543.77,-531.05"/>
</g>
<!-- Node6 -->
<g id="node6" class="node">
<title>Node6</title>
<g id="a_node6"><a xlink:href="beta__red_8cpp.html" target="_top" xlink:title=" ">
<polygon fill="none" stroke="black" points="414.5,-458.5 414.5,-488.5 522.5,-488.5 522.5,-458.5 414.5,-458.5"/>
<text text-anchor="start" x="422.5" y="-476.5" font-family="Helvetica,sans-Serif" font-size="10.00">thorin/pass/fp/beta</text>
<text text-anchor="middle" x="468.5" y="-465.5" font-family="Helvetica,sans-Serif" font-size="10.00">_red.cpp</text>
</a>
</g>
</g>
<!-- Node1&#45;&gt;Node6 -->
<g id="edge5" class="edge">
<title>Node1&#45;&gt;Node6</title>
<path fill="none" stroke="midnightblue" d="M572.39,-521.33C551.04,-511.7 521.67,-498.47 499.61,-488.52"/>
<polygon fill="midnightblue" stroke="midnightblue" points="571.03,-524.56 581.59,-525.48 573.91,-518.17 571.03,-524.56"/>
</g>
<!-- Node7 -->
<g id="node7" class="node">
<title>Node7</title>
<g id="a_node7"><a xlink:href="partial__eval_8cpp.html" target="_top" xlink:title=" ">
<polygon fill="none" stroke="black" points="540.5,-458.5 540.5,-488.5 660.5,-488.5 660.5,-458.5 540.5,-458.5"/>
<text text-anchor="start" x="548.5" y="-476.5" font-family="Helvetica,sans-Serif" font-size="10.00">thorin/pass/rw/partial</text>
<text text-anchor="middle" x="600.5" y="-465.5" font-family="Helvetica,sans-Serif" font-size="10.00">_eval.cpp</text>
</a>
</g>
</g>
<!-- Node1&#45;&gt;Node7 -->
<g id="edge6" class="edge">
<title>Node1&#45;&gt;Node7</title>
<path fill="none" stroke="midnightblue" d="M600.5,-515.23C600.5,-506.59 600.5,-496.5 600.5,-488.52"/>
<polygon fill="midnightblue" stroke="midnightblue" points="597,-515.48 600.5,-525.48 604,-515.48 597,-515.48"/>
</g>
<!-- Node8 -->
<g id="node8" class="node">
<title>Node8</title>
<g id="a_node8"><a xlink:href="scalarize_8cpp.html" target="_top" xlink:title=" ">
<polygon fill="none" stroke="black" points="678.5,-464 678.5,-483 830.5,-483 830.5,-464 678.5,-464"/>
<text text-anchor="middle" x="754.5" y="-471" font-family="Helvetica,sans-Serif" font-size="10.00">thorin/pass/rw/scalarize.cpp</text>
</a>
</g>
</g>
<!-- Node1&#45;&gt;Node8 -->
<g id="edge7" class="edge">
<title>Node1&#45;&gt;Node8</title>
<path fill="none" stroke="midnightblue" d="M632.12,-521.78C662.05,-510.22 706.19,-493.16 732.48,-483.01"/>
<polygon fill="midnightblue" stroke="midnightblue" points="630.63,-518.61 622.56,-525.48 633.15,-525.14 630.63,-518.61"/>
</g>
<!-- Node9 -->
<g id="node9" class="node">
<title>Node9</title>
<g id="a_node9"><a xlink:href="phase_8h.html" target="_top" xlink:title=" ">
<polygon fill="none" stroke="black" points="849,-464 849,-483 968,-483 968,-464 849,-464"/>
<text text-anchor="middle" x="908.5" y="-471" font-family="Helvetica,sans-Serif" font-size="10.00">thorin/phase/phase.h</text>
</a>
</g>
</g>
<!-- Node1&#45;&gt;Node9 -->
<g id="edge8" class="edge">
<title>Node1&#45;&gt;Node9</title>
<path fill="none" stroke="midnightblue" d="M656.8,-523.75C705.27,-514.83 777.07,-501.44 839.5,-489 848.98,-487.11 859.19,-485.01 868.76,-483"/>
<polygon fill="midnightblue" stroke="midnightblue" points="656.02,-520.33 646.82,-525.58 657.29,-527.21 656.02,-520.33"/>
</g>
<!-- Node59 -->
<g id="node48" class="node">
<title>Node59</title>
<g id="a_node48"><a xlink:href="rewrite_8cpp.html" target="_top" xlink:title=" ">
<polygon fill="none" stroke="black" points="986,-464 986,-483 1089,-483 1089,-464 986,-464"/>
<text text-anchor="middle" x="1037.5" y="-471" font-family="Helvetica,sans-Serif" font-size="10.00">thorin/rewrite.cpp</text>
</a>
</g>
</g>
<!-- Node1&#45;&gt;Node59 -->
<g id="edge65" class="edge">
<title>Node1&#45;&gt;Node59</title>
<path fill="none" stroke="midnightblue" d="M656.63,-529.39C730.56,-522.84 864.42,-509.34 977.5,-489 986.57,-487.37 996.32,-485.2 1005.26,-483.03"/>
<polygon fill="midnightblue" stroke="midnightblue" points="656.26,-525.91 646.61,-530.27 656.87,-532.88 656.26,-525.91"/>
</g>
<!-- Node60 -->
<g id="node49" class="node">
<title>Node60</title>
<g id="a_node49"><a xlink:href="tuple_8cpp.html" target="_top" xlink:title=" ">
<polygon fill="none" stroke="black" points="1107,-464 1107,-483 1200,-483 1200,-464 1107,-464"/>
<text text-anchor="middle" x="1153.5" y="-471" font-family="Helvetica,sans-Serif" font-size="10.00">thorin/tuple.cpp</text>
</a>
</g>
</g>
<!-- Node1&#45;&gt;Node60 -->
<g id="edge66" class="edge">
<title>Node1&#45;&gt;Node60</title>
<path fill="none" stroke="midnightblue" d="M656.85,-531.99C749.57,-527.98 939.86,-516.88 1098.5,-489 1107.16,-487.48 1116.44,-485.26 1124.87,-483.02"/>
<polygon fill="midnightblue" stroke="midnightblue" points="656.69,-528.49 646.84,-532.41 656.98,-535.48 656.69,-528.49"/>
</g>
<!-- Node61 -->
<g id="node50" class="node">
<title>Node61</title>
<g id="a_node50"><a xlink:href="world_8cpp.html" target="_top" xlink:title=" ">
<polygon fill="none" stroke="black" points="1218,-464 1218,-483 1313,-483 1313,-464 1218,-464"/>
<text text-anchor="middle" x="1265.5" y="-471" font-family="Helvetica,sans-Serif" font-size="10.00">thorin/world.cpp</text>
</a>
</g>
</g>
<!-- Node1&#45;&gt;Node61 -->
<g id="edge67" class="edge">
<title>Node1&#45;&gt;Node61</title>
<path fill="none" stroke="midnightblue" d="M656.68,-533.21C764.55,-530.96 1007.85,-522.28 1209.5,-489 1218.42,-487.53 1227.99,-485.3 1236.65,-483.03"/>
<polygon fill="midnightblue" stroke="midnightblue" points="656.6,-529.71 646.67,-533.41 656.74,-536.71 656.6,-529.71"/>
</g>
<!-- Node10 -->
<g id="node10" class="node">
<title>Node10</title>
<g id="a_node10"><a xlink:href="clos__conv_8h.html" target="_top" xlink:title=" ">
<polygon fill="none" stroke="black" points="1965.5,-140 1965.5,-170 2075.5,-170 2075.5,-140 1965.5,-140"/>
<text text-anchor="start" x="1973.5" y="-158" font-family="Helvetica,sans-Serif" font-size="10.00">dialects/clos/phase</text>
<text text-anchor="middle" x="2020.5" y="-147" font-family="Helvetica,sans-Serif" font-size="10.00">/clos_conv.h</text>
</a>
</g>
</g>
<!-- Node9&#45;&gt;Node10 -->
<g id="edge9" class="edge">
<title>Node9&#45;&gt;Node10</title>
<path fill="none" stroke="midnightblue" d="M953.61,-461.93C961.53,-460.38 969.73,-458.99 977.5,-458 1153.6,-435.67 1603.43,-465.64 1775.5,-422 1839.66,-405.73 1909.5,-423.19 1909.5,-357 1909.5,-357 1909.5,-357 1909.5,-293.5 1909.5,-237.82 1965.3,-191.98 1997.77,-170.01"/>
<polygon fill="midnightblue" stroke="midnightblue" points="952.87,-458.51 943.77,-463.94 954.27,-465.36 952.87,-458.51"/>
</g>
<!-- Node12 -->
<g id="node12" class="node">
<title>Node12</title>
<g id="a_node12"><a xlink:href="lower__typed__clos_8h.html" target="_top" xlink:title=" ">
<polygon fill="none" stroke="black" points="1667,-67.5 1667,-97.5 1780,-97.5 1780,-67.5 1667,-67.5"/>
<text text-anchor="start" x="1675" y="-85.5" font-family="Helvetica,sans-Serif" font-size="10.00">dialects/clos/phase</text>
<text text-anchor="middle" x="1723.5" y="-74.5" font-family="Helvetica,sans-Serif" font-size="10.00">/lower_typed_clos.h</text>
</a>
</g>
</g>
<!-- Node9&#45;&gt;Node12 -->
<g id="edge11" class="edge">
<title>Node9&#45;&gt;Node12</title>
<path fill="none" stroke="midnightblue" d="M956.5,-461.9C963.53,-460.5 970.69,-459.15 977.5,-458 1064.1,-443.35 1761.5,-444.83 1761.5,-357 1761.5,-357 1761.5,-357 1761.5,-226.5 1761.5,-177.95 1740.79,-123.14 1729.95,-97.78"/>
<polygon fill="midnightblue" stroke="midnightblue" points="955.45,-458.55 946.36,-463.98 956.86,-465.4 955.45,-458.55"/>
</g>
<!-- Node14 -->
<g id="node14" class="node">
<title>Node14</title>
<g id="a_node14"><a xlink:href="emitter_8h.html" target="_top" xlink:title=" ">
<polygon fill="none" stroke="black" points="617,-402.5 617,-421.5 724,-421.5 724,-402.5 617,-402.5"/>
<text text-anchor="middle" x="670.5" y="-409.5" font-family="Helvetica,sans-Serif" font-size="10.00">thorin/be/emitter.h</text>
</a>
</g>
</g>
<!-- Node9&#45;&gt;Node14 -->
<g id="edge13" class="edge">
<title>Node9&#45;&gt;Node14</title>
<path fill="none" stroke="midnightblue" d="M864.66,-461.54C818.46,-449.99 746.66,-432.04 704.54,-421.51"/>
<polygon fill="midnightblue" stroke="midnightblue" points="863.85,-464.95 874.4,-463.98 865.55,-458.15 863.85,-464.95"/>
</g>
<!-- Node56 -->
<g id="node45" class="node">
<title>Node56</title>
<g id="a_node45"><a xlink:href="optimize_8cpp.html" target="_top" xlink:title=" ">
<polygon fill="none" stroke="black" points="742,-402.5 742,-421.5 879,-421.5 879,-402.5 742,-402.5"/>
<text text-anchor="middle" x="810.5" y="-409.5" font-family="Helvetica,sans-Serif" font-size="10.00">thorin/pass/optimize.cpp</text>
</a>
</g>
</g>
<!-- Node9&#45;&gt;Node56 -->
<g id="edge62" class="edge">
<title>Node9&#45;&gt;Node56</title>
<path fill="none" stroke="midnightblue" d="M885.84,-458.74C866.91,-447.25 840.51,-431.22 824.51,-421.51"/>
<polygon fill="midnightblue" stroke="midnightblue" points="884.09,-461.78 894.46,-463.98 887.73,-455.79 884.09,-461.78"/>
</g>
<!-- Node57 -->
<g id="node46" class="node">
<title>Node57</title>
<g id="a_node46"><a xlink:href="pass_8cpp.html" target="_top" xlink:title=" ">
<polygon fill="none" stroke="black" points="897.5,-402.5 897.5,-421.5 1013.5,-421.5 1013.5,-402.5 897.5,-402.5"/>
<text text-anchor="middle" x="955.5" y="-409.5" font-family="Helvetica,sans-Serif" font-size="10.00">thorin/pass/pass.cpp</text>
</a>
</g>
</g>
<!-- Node9&#45;&gt;Node57 -->
<g id="edge63" class="edge">
<title>Node9&#45;&gt;Node57</title>
<path fill="none" stroke="midnightblue" d="M921.66,-455.84C930.48,-444.67 941.73,-430.43 948.78,-421.51"/>
<polygon fill="midnightblue" stroke="midnightblue" points="918.69,-453.96 915.23,-463.98 924.18,-458.3 918.69,-453.96"/>
</g>
<!-- Node58 -->
<g id="node47" class="node">
<title>Node58</title>
<g id="a_node47"><a xlink:href="phase_8cpp.html" target="_top" xlink:title=" ">
<polygon fill="none" stroke="black" points="1031.5,-402.5 1031.5,-421.5 1161.5,-421.5 1161.5,-402.5 1031.5,-402.5"/>
<text text-anchor="middle" x="1096.5" y="-409.5" font-family="Helvetica,sans-Serif" font-size="10.00">thorin/phase/phase.cpp</text>
</a>
</g>
</g>
<!-- Node9&#45;&gt;Node58 -->
<g id="edge64" class="edge">
<title>Node9&#45;&gt;Node58</title>
<path fill="none" stroke="midnightblue" d="M945.21,-460.88C981.76,-449.32 1036.97,-431.84 1069.61,-421.51"/>
<polygon fill="midnightblue" stroke="midnightblue" points="943.91,-457.62 935.44,-463.98 946.03,-464.29 943.91,-457.62"/>
</g>
<!-- Node11 -->
<g id="node11" class="node">
<title>Node11</title>
<g id="a_node11"><a xlink:href="clos__conv_8cpp.html" target="_top" xlink:title=" ">
<polygon fill="none" stroke="black" points="1965.5,-67.5 1965.5,-97.5 2075.5,-97.5 2075.5,-67.5 1965.5,-67.5"/>
<text text-anchor="start" x="1973.5" y="-85.5" font-family="Helvetica,sans-Serif" font-size="10.00">dialects/clos/phase</text>
<text text-anchor="middle" x="2020.5" y="-74.5" font-family="Helvetica,sans-Serif" font-size="10.00">/clos_conv.cpp</text>
</a>
</g>
</g>
<!-- Node10&#45;&gt;Node11 -->
<g id="edge10" class="edge">
<title>Node10&#45;&gt;Node11</title>
<path fill="none" stroke="midnightblue" d="M2020.5,-129.73C2020.5,-119.07 2020.5,-106.91 2020.5,-97.75"/>
<polygon fill="midnightblue" stroke="midnightblue" points="2017,-129.73 2020.5,-139.73 2024,-129.73 2017,-129.73"/>
</g>
<!-- Node13 -->
<g id="node13" class="node">
<title>Node13</title>
<g id="a_node13"><a xlink:href="lower__typed__clos_8cpp.html" target="_top" xlink:title=" ">
<polygon fill="none" stroke="black" points="1661,-0.5 1661,-30.5 1786,-30.5 1786,-0.5 1661,-0.5"/>
<text text-anchor="start" x="1669" y="-18.5" font-family="Helvetica,sans-Serif" font-size="10.00">dialects/clos/phase</text>
<text text-anchor="middle" x="1723.5" y="-7.5" font-family="Helvetica,sans-Serif" font-size="10.00">/lower_typed_clos.cpp</text>
</a>
</g>
</g>
<!-- Node12&#45;&gt;Node13 -->
<g id="edge12" class="edge">
<title>Node12&#45;&gt;Node13</title>
<path fill="none" stroke="midnightblue" d="M1723.5,-57.11C1723.5,-48.15 1723.5,-38.32 1723.5,-30.58"/>
<polygon fill="midnightblue" stroke="midnightblue" points="1720,-57.4 1723.5,-67.4 1727,-57.4 1720,-57.4"/>
</g>
<!-- Node15 -->
<g id="node15" class="node">
<title>Node15</title>
<g id="a_node15"><a xlink:href="ll_8cpp.html" target="_top" xlink:title=" ">
<polygon fill="none" stroke="black" points="507,-67.5 507,-97.5 610,-97.5 610,-67.5 507,-67.5"/>
<text text-anchor="start" x="515" y="-85.5" font-family="Helvetica,sans-Serif" font-size="10.00">dialects/core/be/ll</text>
<text text-anchor="middle" x="558.5" y="-74.5" font-family="Helvetica,sans-Serif" font-size="10.00">/ll.cpp</text>
</a>
</g>
</g>
<!-- Node14&#45;&gt;Node15 -->
<g id="edge14" class="edge">
<title>Node14&#45;&gt;Node15</title>
<path fill="none" stroke="midnightblue" d="M606.33,-410.53C464.03,-407.76 134.5,-391.04 134.5,-295.5 134.5,-295.5 134.5,-295.5 134.5,-226.5 134.5,-177.74 152.45,-160.32 193.5,-134 219.38,-117.4 412.24,-97.25 506.68,-88.25"/>
<polygon fill="midnightblue" stroke="midnightblue" points="606.59,-414.04 616.65,-410.72 606.72,-407.04 606.59,-414.04"/>
</g>
<!-- Node16 -->
<g id="node16" class="node">
<title>Node16</title>
<g id="a_node16"><a xlink:href="dot_8cpp.html" target="_top" xlink:title=" ">
<polygon fill="none" stroke="black" points="611.5,-346.5 611.5,-365.5 729.5,-365.5 729.5,-346.5 611.5,-346.5"/>
<text text-anchor="middle" x="670.5" y="-353.5" font-family="Helvetica,sans-Serif" font-size="10.00">thorin/be/dot/dot.cpp</text>
</a>
</g>
</g>
<!-- Node14&#45;&gt;Node16 -->
<g id="edge15" class="edge">
<title>Node14&#45;&gt;Node16</title>
<path fill="none" stroke="midnightblue" d="M670.5,-391.8C670.5,-382.91 670.5,-372.78 670.5,-365.75"/>
<polygon fill="midnightblue" stroke="midnightblue" points="667,-392.08 670.5,-402.08 674,-392.08 667,-392.08"/>
</g>
<!-- Node17 -->
<g id="node17" class="node">
<title>Node17</title>
<g id="a_node17"><a xlink:href="dialects_8h.html" target="_top" xlink:title=" ">
<polygon fill="none" stroke="black" points="796,-346.5 796,-365.5 891,-365.5 891,-346.5 796,-346.5"/>
<text text-anchor="middle" x="843.5" y="-353.5" font-family="Helvetica,sans-Serif" font-size="10.00">thorin/dialects.h</text>
</a>
</g>
</g>
<!-- Node14&#45;&gt;Node17 -->
<g id="edge16" class="edge">
<title>Node14&#45;&gt;Node17</title>
<path fill="none" stroke="midnightblue" d="M707.55,-399.44C740.16,-389.26 786.91,-374.66 816.22,-365.52"/>
<polygon fill="midnightblue" stroke="midnightblue" points="706.42,-396.12 697.91,-402.44 708.5,-402.8 706.42,-396.12"/>
</g>
<!-- Node17&#45;&gt;Node5 -->
<g id="edge59" class="edge">
<title>Node17&#45;&gt;Node5</title>
<path fill="none" stroke="midnightblue" d="M900.94,-347.82C924.37,-341.74 949.25,-330.56 963.5,-310 971.35,-298.68 971.24,-290.4 963.5,-279 952.54,-262.85 903.23,-246.6 869.38,-237.05"/>
<polygon fill="midnightblue" stroke="midnightblue" points="899.98,-344.45 891.03,-350.12 901.56,-351.27 899.98,-344.45"/>
</g>
<!-- Node18 -->
<g id="node18" class="node">
<title>Node18</title>
<g id="a_node18"><a xlink:href="affine_2autogen_8h.html" target="_top" xlink:title=" ">
<polygon fill="none" stroke="black" points="1126.5,-279.5 1126.5,-309.5 1246.5,-309.5 1246.5,-279.5 1126.5,-279.5"/>
<text text-anchor="start" x="1134.5" y="-297.5" font-family="Helvetica,sans-Serif" font-size="10.00">build/include/dialects</text>
<text text-anchor="middle" x="1186.5" y="-286.5" font-family="Helvetica,sans-Serif" font-size="10.00">/affine/autogen.h</text>
</a>
</g>
</g>
<!-- Node17&#45;&gt;Node18 -->
<g id="edge17" class="edge">
<title>Node17&#45;&gt;Node18</title>
<path fill="none" stroke="midnightblue" d="M901.4,-345.61C955.52,-336.75 1038.56,-322.92 1110.5,-310 1115.66,-309.07 1121.01,-308.09 1126.37,-307.1"/>
<polygon fill="midnightblue" stroke="midnightblue" points="900.61,-342.19 891.3,-347.26 901.74,-349.1 900.61,-342.19"/>
</g>
<!-- Node20 -->
<g id="node20" class="node">
<title>Node20</title>
<g id="a_node20"><a xlink:href="affine_8cpp.html" target="_top" xlink:title=" ">
<polygon fill="none" stroke="black" points="836,-145.5 836,-164.5 973,-164.5 973,-145.5 836,-145.5"/>
<text text-anchor="middle" x="904.5" y="-152.5" font-family="Helvetica,sans-Serif" font-size="10.00">dialects/affine/affine.cpp</text>
</a>
</g>
</g>
<!-- Node17&#45;&gt;Node20 -->
<g id="edge52" class="edge">
<title>Node17&#45;&gt;Node20</title>
<path fill="none" stroke="midnightblue" d="M901.07,-348.7C954.56,-341.78 1029.2,-329.05 1051.5,-310 1075.79,-289.26 1071.62,-274.4 1077.5,-243 1080.04,-229.46 1085.6,-223.14 1077.5,-212 1073.15,-206.02 982.37,-178.76 934.1,-164.6"/>
<polygon fill="midnightblue" stroke="midnightblue" points="900.5,-345.24 891.01,-349.97 901.37,-352.19 900.5,-345.24"/>
</g>
<!-- Node22 -->
<g id="node22" class="node">
<title>Node22</title>
<g id="a_node22"><a xlink:href="clos_2autogen_8h.html" target="_top" xlink:title=" ">
<polygon fill="none" stroke="black" points="1417.5,-279.5 1417.5,-309.5 1537.5,-309.5 1537.5,-279.5 1417.5,-279.5"/>
<text text-anchor="start" x="1425.5" y="-297.5" font-family="Helvetica,sans-Serif" font-size="10.00">build/include/dialects</text>
<text text-anchor="middle" x="1477.5" y="-286.5" font-family="Helvetica,sans-Serif" font-size="10.00">/clos/autogen.h</text>
</a>
</g>
</g>
<!-- Node17&#45;&gt;Node22 -->
<g id="edge21" class="edge">
<title>Node17&#45;&gt;Node22</title>
<path fill="none" stroke="midnightblue" d="M901.23,-349.58C1021.04,-338.34 1295.68,-312.56 1417.46,-301.13"/>
<polygon fill="midnightblue" stroke="midnightblue" points="900.78,-346.11 891.15,-350.53 901.44,-353.08 900.78,-346.11"/>
</g>
<!-- Node24 -->
<g id="node24" class="node">
<title>Node24</title>
<g id="a_node24"><a xlink:href="clos_8cpp.html" target="_top" xlink:title=" ">
<polygon fill="none" stroke="black" points="1029.5,-145.5 1029.5,-164.5 1149.5,-164.5 1149.5,-145.5 1029.5,-145.5"/>
<text text-anchor="middle" x="1089.5" y="-152.5" font-family="Helvetica,sans-Serif" font-size="10.00">dialects/clos/clos.cpp</text>
</a>
</g>
</g>
<!-- Node17&#45;&gt;Node24 -->
<g id="edge53" class="edge">
<title>Node17&#45;&gt;Node24</title>
<path fill="none" stroke="midnightblue" d="M901.28,-352.75C1008.94,-347.99 1231.53,-335.18 1255.5,-310 1285.56,-278.43 1285.05,-247.32 1259.5,-212 1257.33,-209 1164.25,-179.46 1116.77,-164.53"/>
<polygon fill="midnightblue" stroke="midnightblue" points="901.07,-349.26 891.23,-353.19 901.37,-356.25 901.07,-349.26"/>
</g>
<!-- Node33 -->
<g id="node31" class="node">
<title>Node33</title>
<g id="a_node31"><a xlink:href="core_2autogen_8h.html" target="_top" xlink:title=" ">
<polygon fill="none" stroke="black" points="452.5,-279.5 452.5,-309.5 572.5,-309.5 572.5,-279.5 452.5,-279.5"/>
<text text-anchor="start" x="460.5" y="-297.5" font-family="Helvetica,sans-Serif" font-size="10.00">build/include/dialects</text>
<text text-anchor="middle" x="512.5" y="-286.5" font-family="Helvetica,sans-Serif" font-size="10.00">/core/autogen.h</text>
</a>
</g>
</g>
<!-- Node17&#45;&gt;Node33 -->
<g id="edge34" class="edge">
<title>Node17&#45;&gt;Node33</title>
<path fill="none" stroke="midnightblue" d="M785.67,-345.7C732.51,-337 651.56,-323.37 581.5,-310 578.61,-309.45 575.66,-308.87 572.68,-308.28"/>
<polygon fill="midnightblue" stroke="midnightblue" points="785.16,-349.16 795.59,-347.32 786.29,-342.25 785.16,-349.16"/>
</g>
<!-- Node35 -->
<g id="node33" class="node">
<title>Node35</title>
<g id="a_node33"><a xlink:href="core_8cpp.html" target="_top" xlink:title=" ">
<polygon fill="none" stroke="black" points="362,-145.5 362,-164.5 485,-164.5 485,-145.5 362,-145.5"/>
<text text-anchor="middle" x="423.5" y="-152.5" font-family="Helvetica,sans-Serif" font-size="10.00">dialects/core/core.cpp</text>
</a>
</g>
</g>
<!-- Node17&#45;&gt;Node35 -->
<g id="edge54" class="edge">
<title>Node17&#45;&gt;Node35</title>
<path fill="none" stroke="midnightblue" d="M785.53,-349.4C676.12,-338.72 449.54,-315.94 443.5,-310 402.74,-269.93 415.77,-190.61 421.46,-164.53"/>
<polygon fill="midnightblue" stroke="midnightblue" points="785.45,-352.91 795.74,-350.4 786.13,-345.95 785.45,-352.91"/>
</g>
<!-- Node38 -->
<g id="node35" class="node">
<title>Node38</title>
<g id="a_node35"><a xlink:href="mem_8cpp.html" target="_top" xlink:title=" ">
<polygon fill="none" stroke="black" points="210.5,-73 210.5,-92 342.5,-92 342.5,-73 210.5,-73"/>
<text text-anchor="middle" x="276.5" y="-80" font-family="Helvetica,sans-Serif" font-size="10.00">dialects/mem/mem.cpp</text>
</a>
</g>
</g>
<!-- Node17&#45;&gt;Node38 -->
<g id="edge57" class="edge">
<title>Node17&#45;&gt;Node38</title>
<path fill="none" stroke="midnightblue" d="M785.58,-349.85C770.27,-348.54 753.77,-347.17 738.5,-346 679.76,-341.48 252.2,-350.58 209.5,-310 152.57,-255.89 155.01,-202.47 193.5,-134 205.32,-112.97 229.83,-99.68 249.17,-92.04"/>
<polygon fill="midnightblue" stroke="midnightblue" points="785.69,-353.37 795.95,-350.75 786.29,-346.4 785.69,-353.37"/>
</g>
<!-- Node44 -->
<g id="node36" class="node">
<title>Node44</title>
<g id="a_node36"><a xlink:href="debug_2autogen_8h.html" target="_top" xlink:title=" ">
<polygon fill="none" stroke="black" points="238.5,-279.5 238.5,-309.5 358.5,-309.5 358.5,-279.5 238.5,-279.5"/>
<text text-anchor="start" x="246.5" y="-297.5" font-family="Helvetica,sans-Serif" font-size="10.00">build/include/dialects</text>
<text text-anchor="middle" x="298.5" y="-286.5" font-family="Helvetica,sans-Serif" font-size="10.00">/debug/autogen.h</text>
</a>
</g>
</g>
<!-- Node17&#45;&gt;Node44 -->
<g id="edge44" class="edge">
<title>Node17&#45;&gt;Node44</title>
<path fill="none" stroke="midnightblue" d="M785.73,-349.46C702.66,-341.4 544.72,-325.66 410.5,-310 393.65,-308.03 375.41,-305.74 358.63,-303.57"/>
<polygon fill="midnightblue" stroke="midnightblue" points="785.43,-352.95 795.72,-350.43 786.11,-345.98 785.43,-352.95"/>
</g>
<!-- Node46 -->
<g id="node38" class="node">
<title>Node46</title>
<g id="a_node38"><a xlink:href="dialects_2debug_2debug_8cpp.html" target="_top" xlink:title=" ">
<polygon fill="none" stroke="black" points="203,-145.5 203,-164.5 344,-164.5 344,-145.5 203,-145.5"/>
<text text-anchor="middle" x="273.5" y="-152.5" font-family="Helvetica,sans-Serif" font-size="10.00">dialects/debug/debug.cpp</text>
</a>
</g>
</g>
<!-- Node17&#45;&gt;Node46 -->
<g id="edge55" class="edge">
<title>Node17&#45;&gt;Node46</title>
<path fill="none" stroke="midnightblue" d="M785.57,-349.88C770.27,-348.57 753.76,-347.19 738.5,-346 681.98,-341.58 268.15,-351.48 229.5,-310 199.81,-278.13 215.26,-253.16 229.5,-212 236.21,-192.6 252.72,-174.81 263.5,-164.71"/>
<polygon fill="midnightblue" stroke="midnightblue" points="785.68,-353.4 795.95,-350.77 786.28,-346.43 785.68,-353.4"/>
</g>
<!-- Node49 -->
<g id="node39" class="node">
<title>Node49</title>
<g id="a_node39"><a xlink:href="direct_2autogen_8h.html" target="_top" xlink:title=" ">
<polygon fill="none" stroke="black" points="590.5,-279.5 590.5,-309.5 710.5,-309.5 710.5,-279.5 590.5,-279.5"/>
<text text-anchor="start" x="598.5" y="-297.5" font-family="Helvetica,sans-Serif" font-size="10.00">build/include/dialects</text>
<text text-anchor="middle" x="650.5" y="-286.5" font-family="Helvetica,sans-Serif" font-size="10.00">/direct/autogen.h</text>
</a>
</g>
</g>
<!-- Node17&#45;&gt;Node49 -->
<g id="edge47" class="edge">
<title>Node17&#45;&gt;Node49</title>
<path fill="none" stroke="midnightblue" d="M806.14,-343.48C774.68,-333.78 729.55,-319.87 695.99,-309.52"/>
<polygon fill="midnightblue" stroke="midnightblue" points="805.26,-346.87 815.85,-346.48 807.32,-340.18 805.26,-346.87"/>
</g>
<!-- Node51 -->
<g id="node41" class="node">
<title>Node51</title>
<g id="a_node41"><a xlink:href="direct_8cpp.html" target="_top" xlink:title=" ">
<polygon fill="none" stroke="black" points="681,-145.5 681,-164.5 818,-164.5 818,-145.5 681,-145.5"/>
<text text-anchor="middle" x="749.5" y="-152.5" font-family="Helvetica,sans-Serif" font-size="10.00">dialects/direct/direct.cpp</text>
</a>
</g>
</g>
<!-- Node17&#45;&gt;Node51 -->
<g id="edge56" class="edge">
<title>Node17&#45;&gt;Node51</title>
<path fill="none" stroke="midnightblue" d="M900.98,-351.26C929.49,-346.15 961.59,-334.8 979.5,-310 987.57,-298.83 985.29,-291.5 979.5,-279 977.08,-273.78 905.47,-214.91 900.5,-212 862.37,-189.7 813.79,-173.59 782.18,-164.53"/>
<polygon fill="midnightblue" stroke="midnightblue" points="900.41,-347.81 891.07,-352.82 901.49,-354.72 900.41,-347.81"/>
</g>
<!-- Node53 -->
<g id="node42" class="node">
<title>Node53</title>
<g id="a_node42"><a xlink:href="mem_2autogen_8h.html" target="_top" xlink:title=" ">
<polygon fill="none" stroke="black" points="948.5,-212.5 948.5,-242.5 1068.5,-242.5 1068.5,-212.5 948.5,-212.5"/>
<text text-anchor="start" x="956.5" y="-230.5" font-family="Helvetica,sans-Serif" font-size="10.00">build/include/dialects</text>
<text text-anchor="middle" x="1008.5" y="-219.5" font-family="Helvetica,sans-Serif" font-size="10.00">/mem/autogen.h</text>
</a>
</g>
</g>
<!-- Node17&#45;&gt;Node53 -->
<g id="edge50" class="edge">
<title>Node17&#45;&gt;Node53</title>
<path fill="none" stroke="midnightblue" d="M901.29,-349.22C951.29,-342.88 1018.08,-330.74 1034.5,-310 1050.36,-289.97 1033.17,-260.07 1020.18,-242.6"/>
<polygon fill="midnightblue" stroke="midnightblue" points="900.72,-345.76 891.21,-350.45 901.56,-352.71 900.72,-345.76"/>
</g>
<!-- Node54 -->
<g id="node43" class="node">
<title>Node54</title>
<g id="a_node43"><a xlink:href="dialects_8cpp.html" target="_top" xlink:title=" ">
<polygon fill="none" stroke="black" points="729,-285 729,-304 836,-304 836,-285 729,-285"/>
<text text-anchor="middle" x="782.5" y="-292" font-family="Helvetica,sans-Serif" font-size="10.00">thorin/dialects.cpp</text>
</a>
</g>
</g>
<!-- Node17&#45;&gt;Node54 -->
<g id="edge58" class="edge">
<title>Node17&#45;&gt;Node54</title>
<path fill="none" stroke="midnightblue" d="M827.43,-339.32C815.84,-328.02 800.64,-313.19 791.22,-304.01"/>
<polygon fill="midnightblue" stroke="midnightblue" points="825.16,-342 834.76,-346.48 830.05,-336.99 825.16,-342"/>
</g>
<!-- Node55 -->
<g id="node44" class="node">
<title>Node55</title>
<g id="a_node44"><a xlink:href="parser_8h.html" target="_top" xlink:title=" ">
<polygon fill="none" stroke="black" points="854.5,-285 854.5,-304 954.5,-304 954.5,-285 854.5,-285"/>
<text text-anchor="middle" x="904.5" y="-292" font-family="Helvetica,sans-Serif" font-size="10.00">thorin/fe/parser.h</text>
</a>
</g>
</g>
<!-- Node17&#45;&gt;Node55 -->
<g id="edge60" class="edge">
<title>Node17&#45;&gt;Node55</title>
<path fill="none" stroke="midnightblue" d="M859.57,-339.32C871.16,-328.02 886.36,-313.19 895.78,-304.01"/>
<polygon fill="midnightblue" stroke="midnightblue" points="856.95,-336.99 852.24,-346.48 861.84,-342 856.95,-336.99"/>
</g>
<!-- Node19 -->
<g id="node19" class="node">
<title>Node19</title>
<g id="a_node19"><a xlink:href="affine_8h.html" target="_top" xlink:title=" ">
<polygon fill="none" stroke="black" points="1125,-218 1125,-237 1250,-237 1250,-218 1125,-218"/>
<text text-anchor="middle" x="1187.5" y="-225" font-family="Helvetica,sans-Serif" font-size="10.00">dialects/affine/affine.h</text>
</a>
</g>
</g>
<!-- Node18&#45;&gt;Node19 -->
<g id="edge18" class="edge">
<title>Node18&#45;&gt;Node19</title>
<path fill="none" stroke="midnightblue" d="M1186.87,-269.25C1187.05,-258.02 1187.24,-245.38 1187.37,-237.19"/>
<polygon fill="midnightblue" stroke="midnightblue" points="1183.37,-269.34 1186.72,-279.4 1190.37,-269.45 1183.37,-269.34"/>
</g>
<!-- Node19&#45;&gt;Node20 -->
<g id="edge19" class="edge">
<title>Node19&#45;&gt;Node20</title>
<path fill="none" stroke="midnightblue" d="M1143.65,-215.58C1087.16,-201.5 990.14,-177.33 938.76,-164.53"/>
<polygon fill="midnightblue" stroke="midnightblue" points="1142.81,-218.97 1153.36,-218 1144.51,-212.18 1142.81,-218.97"/>
</g>
<!-- Node21 -->
<g id="node21" class="node">
<title>Node21</title>
<g id="a_node21"><a xlink:href="lower__for_8cpp.html" target="_top" xlink:title=" ">
<polygon fill="none" stroke="black" points="806.5,-67.5 806.5,-97.5 928.5,-97.5 928.5,-67.5 806.5,-67.5"/>
<text text-anchor="start" x="814.5" y="-85.5" font-family="Helvetica,sans-Serif" font-size="10.00">dialects/affine/passes</text>
<text text-anchor="middle" x="867.5" y="-74.5" font-family="Helvetica,sans-Serif" font-size="10.00">/lower_for.cpp</text>
</a>
</g>
</g>
<!-- Node19&#45;&gt;Node21 -->
<g id="edge20" class="edge">
<title>Node19&#45;&gt;Node21</title>
<path fill="none" stroke="midnightblue" d="M1141.58,-215.56C1099.48,-205.01 1040.7,-188.79 1020.5,-176 999.23,-162.53 1002.92,-148.72 982.5,-134 960.74,-118.32 933.34,-106.05 910.75,-97.53"/>
<polygon fill="midnightblue" stroke="midnightblue" points="1140.81,-218.98 1151.36,-217.99 1142.5,-212.18 1140.81,-218.98"/>
</g>
<!-- Node23 -->
<g id="node23" class="node">
<title>Node23</title>
<g id="a_node23"><a xlink:href="clos_8h.html" target="_top" xlink:title=" ">
<polygon fill="none" stroke="black" points="1533,-218 1533,-237 1642,-237 1642,-218 1533,-218"/>
<text text-anchor="middle" x="1587.5" y="-225" font-family="Helvetica,sans-Serif" font-size="10.00">dialects/clos/clos.h</text>
</a>
</g>
</g>
<!-- Node22&#45;&gt;Node23 -->
<g id="edge22" class="edge">
<title>Node22&#45;&gt;Node23</title>
<path fill="none" stroke="midnightblue" d="M1509.98,-274.31C1530.93,-261.93 1557.16,-246.43 1573.1,-237.01"/>
<polygon fill="midnightblue" stroke="midnightblue" points="1508.2,-271.3 1501.37,-279.4 1511.76,-277.32 1508.2,-271.3"/>
</g>
<!-- Node23&#45;&gt;Node10 -->
<g id="edge31" class="edge">
<title>Node23&#45;&gt;Node10</title>
<path fill="none" stroke="midnightblue" d="M1652.18,-220.37C1725.35,-212.79 1847.8,-198.1 1951.5,-176 1959.31,-174.34 1967.52,-172.25 1975.46,-170.07"/>
<polygon fill="midnightblue" stroke="midnightblue" points="1651.79,-216.9 1642.2,-221.4 1652.5,-223.86 1651.79,-216.9"/>
</g>
<!-- Node23&#45;&gt;Node12 -->
<g id="edge32" class="edge">
<title>Node23&#45;&gt;Node12</title>
<path fill="none" stroke="midnightblue" d="M1636.38,-214.91C1658.57,-207.3 1683.39,-195.11 1699.5,-176 1718.54,-153.42 1722.7,-117.52 1723.48,-97.74"/>
<polygon fill="midnightblue" stroke="midnightblue" points="1635.2,-211.61 1626.74,-217.99 1637.33,-218.28 1635.2,-211.61"/>
</g>
<!-- Node23&#45;&gt;Node15 -->
<g id="edge33" class="edge">
<title>Node23&#45;&gt;Node15</title>
<path fill="none" stroke="midnightblue" d="M1522.77,-223.55C1426.71,-218.27 1251.8,-204.92 1196.5,-176 1174.19,-164.33 1181.06,-145.17 1158.5,-134 1134.07,-121.91 750.98,-95.99 610.03,-86.81"/>
<polygon fill="midnightblue" stroke="midnightblue" points="1522.78,-227.05 1532.95,-224.09 1523.15,-220.06 1522.78,-227.05"/>
</g>
<!-- Node23&#45;&gt;Node24 -->
<g id="edge23" class="edge">
<title>Node23&#45;&gt;Node24</title>
<path fill="none" stroke="midnightblue" d="M1522.79,-221.74C1439.25,-214.92 1289.61,-200.42 1163.5,-176 1148.08,-173.01 1131.16,-168.53 1117.39,-164.57"/>
<polygon fill="midnightblue" stroke="midnightblue" points="1522.65,-225.24 1532.89,-222.55 1523.21,-218.26 1522.65,-225.24"/>
</g>
<!-- Node25 -->
<g id="node25" class="node">
<title>Node25</title>
<g id="a_node25"><a xlink:href="clos_2normalizers_8cpp.html" target="_top" xlink:title=" ">
<polygon fill="none" stroke="black" points="1205.5,-145.5 1205.5,-164.5 1363.5,-164.5 1363.5,-145.5 1205.5,-145.5"/>
<text text-anchor="middle" x="1284.5" y="-152.5" font-family="Helvetica,sans-Serif" font-size="10.00">dialects/clos/normalizers.cpp</text>
</a>
</g>
</g>
<!-- Node23&#45;&gt;Node25 -->
<g id="edge24" class="edge">
<title>Node23&#45;&gt;Node25</title>
<path fill="none" stroke="midnightblue" d="M1540.92,-215.66C1480.49,-201.6 1376.31,-177.36 1321.18,-164.53"/>
<polygon fill="midnightblue" stroke="midnightblue" points="1540.42,-219.14 1550.95,-218 1542,-212.32 1540.42,-219.14"/>
</g>
<!-- Node26 -->
<g id="node26" class="node">
<title>Node26</title>
<g id="a_node26"><a xlink:href="lower__typed__clos__prep_8h.html" target="_top" xlink:title=" ">
<polygon fill="none" stroke="red" points="1382,-134.5 1382,-175.5 1499,-175.5 1499,-134.5 1382,-134.5"/>
<text text-anchor="start" x="1390" y="-163.5" font-family="Helvetica,sans-Serif" font-size="10.00">dialects/clos/pass</text>
<text text-anchor="start" x="1390" y="-152.5" font-family="Helvetica,sans-Serif" font-size="10.00">/fp/lower_typed_clos</text>
<text text-anchor="middle" x="1440.5" y="-141.5" font-family="Helvetica,sans-Serif" font-size="10.00">_prep.h</text>
</a>
</g>
</g>
<!-- Node23&#45;&gt;Node26 -->
<g id="edge25" class="edge">
<title>Node23&#45;&gt;Node26</title>
<path fill="none" stroke="midnightblue" d="M1560.62,-213.61C1538.46,-202.98 1506.67,-187.74 1481.36,-175.6"/>
<polygon fill="midnightblue" stroke="midnightblue" points="1559.24,-216.83 1569.77,-218 1562.27,-210.52 1559.24,-216.83"/>
</g>
<!-- Node28 -->
<g id="node27" class="node">
<title>Node28</title>
<g id="a_node27"><a xlink:href="branch__clos__elim_8cpp.html" target="_top" xlink:title=" ">
<polygon fill="none" stroke="black" points="1517.5,-140 1517.5,-170 1657.5,-170 1657.5,-140 1517.5,-140"/>
<text text-anchor="start" x="1525.5" y="-158" font-family="Helvetica,sans-Serif" font-size="10.00">dialects/clos/pass</text>
<text text-anchor="middle" x="1587.5" y="-147" font-family="Helvetica,sans-Serif" font-size="10.00">/rw/branch_clos_elim.cpp</text>
</a>
</g>
</g>
<!-- Node23&#45;&gt;Node28 -->
<g id="edge26" class="edge">
<title>Node23&#45;&gt;Node28</title>
<path fill="none" stroke="midnightblue" d="M1587.5,-207.74C1587.5,-195.91 1587.5,-180.88 1587.5,-170.08"/>
<polygon fill="midnightblue" stroke="midnightblue" points="1584,-207.86 1587.5,-217.86 1591,-207.86 1584,-207.86"/>
</g>
<!-- Node29 -->
<g id="node28" class="node">
<title>Node29</title>
<g id="a_node28"><a xlink:href="clos2sjlj_8h.html" target="_top" xlink:title=" ">
<polygon fill="none" stroke="red" points="1247,-67.5 1247,-97.5 1350,-97.5 1350,-67.5 1247,-67.5"/>
<text text-anchor="start" x="1255" y="-85.5" font-family="Helvetica,sans-Serif" font-size="10.00">dialects/clos/pass</text>
<text text-anchor="middle" x="1298.5" y="-74.5" font-family="Helvetica,sans-Serif" font-size="10.00">/rw/clos2sjlj.h</text>
</a>
</g>
</g>
<!-- Node23&#45;&gt;Node29 -->
<g id="edge27" class="edge">
<title>Node23&#45;&gt;Node29</title>
<path fill="none" stroke="midnightblue" d="M1622.26,-213.64C1638.81,-205.54 1657.02,-193.31 1666.5,-176 1675.47,-159.63 1678.77,-148.07 1666.5,-134 1626.07,-87.65 1441.58,-82.33 1350.16,-82.64"/>
<polygon fill="midnightblue" stroke="midnightblue" points="1620.45,-210.61 1612.78,-217.93 1623.34,-216.99 1620.45,-210.61"/>
</g>
<!-- Node31 -->
<g id="node29" class="node">
<title>Node31</title>
<g id="a_node29"><a xlink:href="clos__conv__prep_8cpp.html" target="_top" xlink:title=" ">
<polygon fill="none" stroke="black" points="1808.5,-67.5 1808.5,-97.5 1938.5,-97.5 1938.5,-67.5 1808.5,-67.5"/>
<text text-anchor="start" x="1816.5" y="-85.5" font-family="Helvetica,sans-Serif" font-size="10.00">dialects/clos/pass</text>
<text text-anchor="middle" x="1873.5" y="-74.5" font-family="Helvetica,sans-Serif" font-size="10.00">/rw/clos_conv_prep.cpp</text>
</a>
</g>
</g>
<!-- Node23&#45;&gt;Node31 -->
<g id="edge28" class="edge">
<title>Node23&#45;&gt;Node31</title>
<path fill="none" stroke="midnightblue" d="M1652.25,-226.21C1738.7,-224.28 1884.88,-215.14 1918.5,-176 1939.1,-152.02 1909.7,-116.98 1889.6,-97.64"/>
<polygon fill="midnightblue" stroke="midnightblue" points="1651.95,-222.71 1642.02,-226.41 1652.08,-229.71 1651.95,-222.71"/>
</g>
<!-- Node32 -->
<g id="node30" class="node">
<title>Node32</title>
<g id="a_node30"><a xlink:href="clos__conv__prep_8h.html" target="_top" xlink:title=" ">
<polygon fill="none" stroke="black" points="1790,-140 1790,-170 1909,-170 1909,-140 1790,-140"/>
<text text-anchor="start" x="1798" y="-158" font-family="Helvetica,sans-Serif" font-size="10.00">dialects/clos/pass</text>
<text text-anchor="middle" x="1849.5" y="-147" font-family="Helvetica,sans-Serif" font-size="10.00">/rw/clos_conv_prep.h</text>
</a>
</g>
</g>
<!-- Node23&#45;&gt;Node32 -->
<g id="edge29" class="edge">
<title>Node23&#45;&gt;Node32</title>
<path fill="none" stroke="midnightblue" d="M1628.96,-215.35C1674.58,-203.07 1747.99,-183.32 1797.45,-170.01"/>
<polygon fill="midnightblue" stroke="midnightblue" points="1627.85,-212.02 1619.1,-218 1629.67,-218.78 1627.85,-212.02"/>
</g>
<!-- Node32&#45;&gt;Node31 -->
<g id="edge30" class="edge">
<title>Node32&#45;&gt;Node31</title>
<path fill="none" stroke="midnightblue" d="M1857.65,-130.06C1861.31,-119.32 1865.5,-107.01 1868.65,-97.75"/>
<polygon fill="midnightblue" stroke="midnightblue" points="1854.27,-129.14 1854.36,-139.73 1860.89,-131.39 1854.27,-129.14"/>
</g>
<!-- Node34 -->
<g id="node32" class="node">
<title>Node34</title>
<g id="a_node32"><a xlink:href="core_8h.html" target="_top" xlink:title=" ">
<polygon fill="none" stroke="red" points="456.5,-218 456.5,-237 568.5,-237 568.5,-218 456.5,-218"/>
<text text-anchor="middle" x="512.5" y="-225" font-family="Helvetica,sans-Serif" font-size="10.00">dialects/core/core.h</text>
</a>
</g>
</g>
<!-- Node33&#45;&gt;Node34 -->
<g id="edge35" class="edge">
<title>Node33&#45;&gt;Node34</title>
<path fill="none" stroke="midnightblue" d="M512.5,-269.25C512.5,-258.02 512.5,-245.38 512.5,-237.19"/>
<polygon fill="midnightblue" stroke="midnightblue" points="509,-269.4 512.5,-279.4 516,-269.4 509,-269.4"/>
</g>
<!-- Node34&#45;&gt;Node15 -->
<g id="edge36" class="edge">
<title>Node34&#45;&gt;Node15</title>
<path fill="none" stroke="midnightblue" d="M515.05,-207.88C517.99,-188.91 523.6,-158.84 532.5,-134 537.09,-121.19 544.29,-107.52 549.95,-97.63"/>
<polygon fill="midnightblue" stroke="midnightblue" points="511.58,-207.47 513.59,-217.87 518.5,-208.49 511.58,-207.47"/>
</g>
<!-- Node34&#45;&gt;Node35 -->
<g id="edge37" class="edge">
<title>Node34&#45;&gt;Node35</title>
<path fill="none" stroke="midnightblue" d="M493.53,-211.47C475.57,-197.25 449.23,-176.38 434.5,-164.72"/>
<polygon fill="midnightblue" stroke="midnightblue" points="491.57,-214.39 501.59,-217.86 495.92,-208.9 491.57,-214.39"/>
</g>
<!-- Node37 -->
<g id="node34" class="node">
<title>Node37</title>
<g id="a_node34"><a xlink:href="mem_8h.html" target="_top" xlink:title=" ">
<polygon fill="none" stroke="red" points="542,-145.5 542,-164.5 663,-164.5 663,-145.5 542,-145.5"/>
<text text-anchor="middle" x="602.5" y="-152.5" font-family="Helvetica,sans-Serif" font-size="10.00">dialects/mem/mem.h</text>
</a>
</g>
</g>
<!-- Node34&#45;&gt;Node37 -->
<g id="edge38" class="edge">
<title>Node34&#45;&gt;Node37</title>
<path fill="none" stroke="midnightblue" d="M531.68,-211.47C549.84,-197.25 576.48,-176.38 591.37,-164.72"/>
<polygon fill="midnightblue" stroke="midnightblue" points="529.25,-208.93 523.54,-217.86 533.57,-214.44 529.25,-208.93"/>
</g>
<!-- Node37&#45;&gt;Node12 -->
<g id="edge41" class="edge">
<title>Node37&#45;&gt;Node12</title>
<path fill="none" stroke="midnightblue" d="M636.47,-142.44C647.52,-139.15 659.91,-135.93 671.5,-134 720.85,-125.78 1454.82,-94.7 1666.66,-85.86"/>
<polygon fill="midnightblue" stroke="midnightblue" points="635.28,-139.15 626.77,-145.46 637.36,-145.83 635.28,-139.15"/>
</g>
<!-- Node37&#45;&gt;Node15 -->
<g id="edge42" class="edge">
<title>Node37&#45;&gt;Node15</title>
<path fill="none" stroke="midnightblue" d="M591.69,-136.68C584.18,-124.65 574.31,-108.83 567.29,-97.58"/>
<polygon fill="midnightblue" stroke="midnightblue" points="588.84,-138.73 597.1,-145.36 594.78,-135.02 588.84,-138.73"/>
</g>
<!-- Node37&#45;&gt;Node21 -->
<g id="edge39" class="edge">
<title>Node37&#45;&gt;Node21</title>
<path fill="none" stroke="midnightblue" d="M640.94,-142.64C650.88,-139.76 661.58,-136.72 671.5,-134 718.44,-121.15 771.96,-107.43 811.2,-97.53"/>
<polygon fill="midnightblue" stroke="midnightblue" points="639.94,-139.28 631.32,-145.44 641.9,-146 639.94,-139.28"/>
</g>
<!-- Node37&#45;&gt;Node29 -->
<g id="edge40" class="edge">
<title>Node37&#45;&gt;Node29</title>
<path fill="none" stroke="midnightblue" d="M637.05,-142.51C647.96,-139.28 660.13,-136.08 671.5,-134 882.58,-95.32 1139.03,-86.27 1246.84,-84.15"/>
<polygon fill="midnightblue" stroke="midnightblue" points="635.98,-139.17 627.44,-145.45 638.03,-145.87 635.98,-139.17"/>
</g>
<!-- Node37&#45;&gt;Node38 -->
<g id="edge43" class="edge">
<title>Node37&#45;&gt;Node38</title>
<path fill="none" stroke="midnightblue" d="M553.19,-143.34C488.3,-129.3 375.52,-104.91 315.96,-92.03"/>
<polygon fill="midnightblue" stroke="midnightblue" points="552.66,-146.8 563.18,-145.5 554.14,-139.96 552.66,-146.8"/>
</g>
<!-- Node45 -->
<g id="node37" class="node">
<title>Node45</title>
<g id="a_node37"><a xlink:href="dialects_2debug_2debug_8h.html" target="_top" xlink:title=" ">
<polygon fill="none" stroke="red" points="238.5,-218 238.5,-237 368.5,-237 368.5,-218 238.5,-218"/>
<text text-anchor="middle" x="303.5" y="-225" font-family="Helvetica,sans-Serif" font-size="10.00">dialects/debug/debug.h</text>
</a>
</g>
</g>
<!-- Node44&#45;&gt;Node45 -->
<g id="edge45" class="edge">
<title>Node44&#45;&gt;Node45</title>
<path fill="none" stroke="midnightblue" d="M300.37,-269.25C301.23,-258.02 302.2,-245.38 302.83,-237.19"/>
<polygon fill="midnightblue" stroke="midnightblue" points="296.86,-269.16 299.58,-279.4 303.84,-269.69 296.86,-269.16"/>
</g>
<!-- Node45&#45;&gt;Node46 -->
<g id="edge46" class="edge">
<title>Node45&#45;&gt;Node46</title>
<path fill="none" stroke="midnightblue" d="M295.74,-208.27C289.78,-194.26 281.81,-175.53 277.21,-164.72"/>
<polygon fill="midnightblue" stroke="midnightblue" points="292.69,-210.02 299.82,-217.86 299.13,-207.28 292.69,-210.02"/>
</g>
<!-- Node50 -->
<g id="node40" class="node">
<title>Node50</title>
<g id="a_node40"><a xlink:href="direct_8h.html" target="_top" xlink:title=" ">
<polygon fill="none" stroke="red" points="613,-218 613,-237 738,-237 738,-218 613,-218"/>
<text text-anchor="middle" x="675.5" y="-225" font-family="Helvetica,sans-Serif" font-size="10.00">dialects/direct/direct.h</text>
</a>
</g>
</g>
<!-- Node49&#45;&gt;Node50 -->
<g id="edge48" class="edge">
<title>Node49&#45;&gt;Node50</title>
<path fill="none" stroke="midnightblue" d="M659.56,-269.94C663.95,-258.54 668.94,-245.55 672.16,-237.19"/>
<polygon fill="midnightblue" stroke="midnightblue" points="656.25,-268.81 655.92,-279.4 662.78,-271.32 656.25,-268.81"/>
</g>
<!-- Node50&#45;&gt;Node51 -->
<g id="edge49" class="edge">
<title>Node50&#45;&gt;Node51</title>
<path fill="none" stroke="midnightblue" d="M692.09,-210.69C707,-196.49 728.33,-176.17 740.35,-164.72"/>
<polygon fill="midnightblue" stroke="midnightblue" points="689.4,-208.42 684.57,-217.86 694.23,-213.49 689.4,-208.42"/>
</g>
<!-- Node53&#45;&gt;Node37 -->
<g id="edge51" class="edge">
<title>Node53&#45;&gt;Node37</title>
<path fill="none" stroke="midnightblue" d="M938.22,-217.09C854.85,-205.74 720.95,-186.82 671.5,-176 657.24,-172.88 641.61,-168.43 628.83,-164.53"/>
<polygon fill="midnightblue" stroke="midnightblue" points="938,-220.6 948.38,-218.47 938.94,-213.66 938,-220.6"/>
</g>
<!-- Node55&#45;&gt;Node5 -->
<g id="edge61" class="edge">
<title>Node55&#45;&gt;Node5</title>
<path fill="none" stroke="midnightblue" d="M887.76,-277.5C874.42,-264.75 856.27,-247.39 845.53,-237.13"/>
<polygon fill="midnightblue" stroke="midnightblue" points="885.68,-280.35 895.33,-284.73 890.52,-275.29 885.68,-280.35"/>
</g>
</g>
</svg>
