<?xml version="1.0" encoding="UTF-8" standalone="no"?>
<!DOCTYPE svg PUBLIC "-//W3C//DTD SVG 1.1//EN"
 "http://www.w3.org/Graphics/SVG/1.1/DTD/svg11.dtd">
<!-- Generated by graphviz version 2.50.0 (20220203.2022)
 -->
<!-- Title: src/thorin/pass/rw/scalarize.cpp Pages: 1 -->
<svg width="1511pt" height="666pt"
 viewBox="0.00 0.00 1511.09 666.00" xmlns="http://www.w3.org/2000/svg" xmlns:xlink="http://www.w3.org/1999/xlink">
<g id="graph0" class="graph" transform="scale(1 1) rotate(0) translate(4 662)">
<title>src/thorin/pass/rw/scalarize.cpp</title>
<!-- Node1 -->
<g id="node1" class="node">
<title>Node1</title>
<g id="a_node1"><a xlink:title=" ">
<polygon fill="#bfbfbf" stroke="black" points="498.5,-627.5 498.5,-657.5 593.5,-657.5 593.5,-627.5 498.5,-627.5"/>
<text text-anchor="start" x="506.5" y="-645.5" font-family="Helvetica,sans-Serif" font-size="10.00">src/thorin/pass/rw</text>
<text text-anchor="middle" x="546" y="-634.5" font-family="Helvetica,sans-Serif" font-size="10.00">/scalarize.cpp</text>
</a>
</g>
</g>
<!-- Node2 -->
<g id="node2" class="node">
<title>Node2</title>
<g id="a_node2"><a xlink:href="scalarize_8h.html" target="_top" xlink:title=" ">
<polygon fill="none" stroke="black" points="317.5,-566 317.5,-585 444.5,-585 444.5,-566 317.5,-566"/>
<text text-anchor="middle" x="381" y="-573" font-family="Helvetica,sans-Serif" font-size="10.00">thorin/pass/rw/scalarize.h</text>
</a>
</g>
</g>
<!-- Node1&#45;&gt;Node2 -->
<g id="edge1" class="edge">
<title>Node1&#45;&gt;Node2</title>
<path fill="none" stroke="midnightblue" d="M510.2,-627.4C480.99,-615.89 440.14,-599.8 412.24,-588.81"/>
<polygon fill="midnightblue" stroke="midnightblue" points="413.18,-585.42 402.59,-585.01 410.62,-591.93 413.18,-585.42"/>
</g>
<!-- Node46 -->
<g id="node46" class="node">
<title>Node46</title>
<g id="a_node46"><a xlink:href="tuple_8h.html" target="_top" xlink:title=" ">
<polygon fill="none" stroke="black" points="1273,-392.5 1273,-411.5 1345,-411.5 1345,-392.5 1273,-392.5"/>
<text text-anchor="middle" x="1309" y="-399.5" font-family="Helvetica,sans-Serif" font-size="10.00">thorin/tuple.h</text>
</a>
</g>
</g>
<!-- Node1&#45;&gt;Node46 -->
<g id="edge81" class="edge">
<title>Node1&#45;&gt;Node46</title>
<path fill="none" stroke="midnightblue" d="M590.88,-627.47C728.82,-584.35 1144.87,-454.3 1271.82,-414.62"/>
<polygon fill="midnightblue" stroke="midnightblue" points="1272.98,-417.92 1281.49,-411.6 1270.9,-411.24 1272.98,-417.92"/>
</g>
<!-- Node48 -->
<g id="node48" class="node">
<title>Node48</title>
<g id="a_node48"><a xlink:href="rewrite_8h.html" target="_top" xlink:title=" ">
<polygon fill="none" stroke="black" points="543,-504.5 543,-523.5 623,-523.5 623,-504.5 543,-504.5"/>
<text text-anchor="middle" x="583" y="-511.5" font-family="Helvetica,sans-Serif" font-size="10.00">thorin/rewrite.h</text>
</a>
</g>
</g>
<!-- Node1&#45;&gt;Node48 -->
<g id="edge82" class="edge">
<title>Node1&#45;&gt;Node48</title>
<path fill="none" stroke="midnightblue" d="M551.41,-627.47C555.2,-617.41 560.23,-603.47 564,-591 569.89,-571.52 575.39,-548.84 578.94,-533.36"/>
<polygon fill="midnightblue" stroke="midnightblue" points="582.37,-534.03 581.16,-523.51 575.55,-532.49 582.37,-534.03"/>
</g>
<!-- Node49 -->
<g id="node49" class="node">
<title>Node49</title>
<g id="a_node49"><a xlink:href="eta__exp_8h.html" target="_top" xlink:title=" ">
<polygon fill="none" stroke="black" points="463,-560.5 463,-590.5 555,-590.5 555,-560.5 463,-560.5"/>
<text text-anchor="start" x="471" y="-578.5" font-family="Helvetica,sans-Serif" font-size="10.00">thorin/pass/fp/eta</text>
<text text-anchor="middle" x="509" y="-567.5" font-family="Helvetica,sans-Serif" font-size="10.00">_exp.h</text>
</a>
</g>
</g>
<!-- Node1&#45;&gt;Node49 -->
<g id="edge85" class="edge">
<title>Node1&#45;&gt;Node49</title>
<path fill="none" stroke="midnightblue" d="M537.97,-627.4C533.32,-619.22 527.34,-608.73 522.03,-599.39"/>
<polygon fill="midnightblue" stroke="midnightblue" points="525,-597.54 517.01,-590.58 518.92,-601 525,-597.54"/>
</g>
<!-- Node3 -->
<g id="node3" class="node">
<title>Node3</title>
<g id="a_node3"><a xlink:href="pass_8h.html" target="_top" xlink:title=" ">
<polygon fill="none" stroke="black" points="333,-504.5 333,-523.5 429,-523.5 429,-504.5 333,-504.5"/>
<text text-anchor="middle" x="381" y="-511.5" font-family="Helvetica,sans-Serif" font-size="10.00">thorin/pass/pass.h</text>
</a>
</g>
</g>
<!-- Node2&#45;&gt;Node3 -->
<g id="edge2" class="edge">
<title>Node2&#45;&gt;Node3</title>
<path fill="none" stroke="midnightblue" d="M381,-565.98C381,-557.58 381,-544.48 381,-533.66"/>
<polygon fill="midnightblue" stroke="midnightblue" points="384.5,-533.51 381,-523.51 377.5,-533.51 384.5,-533.51"/>
</g>
<!-- Node4 -->
<g id="node4" class="node">
<title>Node4</title>
<g id="a_node4"><a xlink:title=" ">
<polygon fill="none" stroke="#bfbfbf" points="341.5,-448.5 341.5,-467.5 382.5,-467.5 382.5,-448.5 341.5,-448.5"/>
<text text-anchor="middle" x="362" y="-455.5" font-family="Helvetica,sans-Serif" font-size="10.00">stack</text>
</a>
</g>
</g>
<!-- Node3&#45;&gt;Node4 -->
<g id="edge3" class="edge">
<title>Node3&#45;&gt;Node4</title>
<path fill="none" stroke="midnightblue" d="M377.86,-504.08C375.32,-496.85 371.64,-486.41 368.47,-477.4"/>
<polygon fill="midnightblue" stroke="midnightblue" points="371.7,-476.02 365.08,-467.75 365.1,-478.35 371.7,-476.02"/>
</g>
<!-- Node5 -->
<g id="node5" class="node">
<title>Node5</title>
<g id="a_node5"><a xlink:href="world_8h.html" target="_top" xlink:title=" ">
<polygon fill="none" stroke="black" points="558,-448.5 558,-467.5 632,-467.5 632,-448.5 558,-448.5"/>
<text text-anchor="middle" x="595" y="-455.5" font-family="Helvetica,sans-Serif" font-size="10.00">thorin/world.h</text>
</a>
</g>
</g>
<!-- Node3&#45;&gt;Node5 -->
<g id="edge4" class="edge">
<title>Node3&#45;&gt;Node5</title>
<path fill="none" stroke="midnightblue" d="M414.91,-504.44C451.85,-495.12 511.05,-480.18 551.42,-470"/>
<polygon fill="midnightblue" stroke="midnightblue" points="552.41,-473.36 561.25,-467.52 550.7,-466.57 552.41,-473.36"/>
</g>
<!-- Node47 -->
<g id="node47" class="node">
<title>Node47</title>
<g id="a_node47"><a xlink:href="scope_8h.html" target="_top" xlink:title=" ">
<polygon fill="none" stroke="black" points="265.5,-336.5 265.5,-355.5 384.5,-355.5 384.5,-336.5 265.5,-336.5"/>
<text text-anchor="middle" x="325" y="-343.5" font-family="Helvetica,sans-Serif" font-size="10.00">thorin/analyses/scope.h</text>
</a>
</g>
</g>
<!-- Node3&#45;&gt;Node47 -->
<g id="edge78" class="edge">
<title>Node3&#45;&gt;Node47</title>
<path fill="none" stroke="midnightblue" d="M366.57,-504.3C354.97,-496.41 339.42,-483.65 332,-468 316.28,-434.85 318.73,-390.71 321.89,-365.94"/>
<polygon fill="midnightblue" stroke="midnightblue" points="325.39,-366.15 323.37,-355.75 318.47,-365.14 325.39,-366.15"/>
</g>
<!-- Node6 -->
<g id="node6" class="node">
<title>Node6</title>
<g id="a_node6"><a xlink:title=" ">
<polygon fill="none" stroke="#bfbfbf" points="1143.5,-56.5 1143.5,-75.5 1192.5,-75.5 1192.5,-56.5 1143.5,-56.5"/>
<text text-anchor="middle" x="1168" y="-63.5" font-family="Helvetica,sans-Serif" font-size="10.00">cassert</text>
</a>
</g>
</g>
<!-- Node5&#45;&gt;Node6 -->
<g id="edge5" class="edge">
<title>Node5&#45;&gt;Node6</title>
<path fill="none" stroke="midnightblue" d="M632.33,-455.85C735.02,-452.35 1020,-440.28 1109,-412 1297.3,-352.16 1394.59,-359.33 1493,-188 1555.79,-78.68 1298.41,-67.24 1202.63,-66.7"/>
<polygon fill="midnightblue" stroke="midnightblue" points="1202.57,-63.2 1192.56,-66.68 1202.56,-70.2 1202.57,-63.2"/>
</g>
<!-- Node7 -->
<g id="node7" class="node">
<title>Node7</title>
<g id="a_node7"><a xlink:title=" ">
<polygon fill="none" stroke="#bfbfbf" points="80,-56.5 80,-75.5 134,-75.5 134,-56.5 80,-56.5"/>
<text text-anchor="middle" x="107" y="-63.5" font-family="Helvetica,sans-Serif" font-size="10.00">iostream</text>
</a>
</g>
</g>
<!-- Node5&#45;&gt;Node7 -->
<g id="edge6" class="edge">
<title>Node5&#45;&gt;Node7</title>
<path fill="none" stroke="midnightblue" d="M557.59,-453.6C432.7,-441.75 38,-400.1 38,-347 38,-347 38,-347 38,-177 38,-138.39 68.88,-102.21 89.33,-82.49"/>
<polygon fill="midnightblue" stroke="midnightblue" points="91.87,-84.9 96.82,-75.54 87.11,-79.77 91.87,-84.9"/>
</g>
<!-- Node8 -->
<g id="node8" class="node">
<title>Node8</title>
<g id="a_node8"><a xlink:title=" ">
<polygon fill="none" stroke="#bfbfbf" points="806.5,-168.5 806.5,-187.5 865.5,-187.5 865.5,-168.5 806.5,-168.5"/>
<text text-anchor="middle" x="836" y="-175.5" font-family="Helvetica,sans-Serif" font-size="10.00">functional</text>
</a>
</g>
</g>
<!-- Node5&#45;&gt;Node8 -->
<g id="edge7" class="edge">
<title>Node5&#45;&gt;Node8</title>
<path fill="none" stroke="midnightblue" d="M597.56,-448.25C602.75,-429.74 614,-385.18 614,-347 614,-347 614,-347 614,-289 614,-208.73 731.96,-187.04 795.91,-181.17"/>
<polygon fill="midnightblue" stroke="midnightblue" points="796.38,-184.65 806.06,-180.33 795.81,-177.67 796.38,-184.65"/>
</g>
<!-- Node9 -->
<g id="node9" class="node">
<title>Node9</title>
<g id="a_node9"><a xlink:title=" ">
<polygon fill="none" stroke="#bfbfbf" points="1126,-168.5 1126,-187.5 1198,-187.5 1198,-168.5 1126,-168.5"/>
<text text-anchor="middle" x="1162" y="-175.5" font-family="Helvetica,sans-Serif" font-size="10.00">initializer_list</text>
</a>
</g>
</g>
<!-- Node5&#45;&gt;Node9 -->
<g id="edge8" class="edge">
<title>Node5&#45;&gt;Node9</title>
<path fill="none" stroke="midnightblue" d="M632.21,-457.55C756.42,-458.38 1149,-452.66 1149,-347 1149,-347 1149,-347 1149,-289 1149,-256.58 1154.64,-219.15 1158.49,-197.37"/>
<polygon fill="midnightblue" stroke="midnightblue" points="1161.93,-197.99 1160.3,-187.52 1155.05,-196.72 1161.93,-197.99"/>
</g>
<!-- Node10 -->
<g id="node10" class="node">
<title>Node10</title>
<g id="a_node10"><a xlink:title=" ">
<polygon fill="none" stroke="#bfbfbf" points="20.5,-56.5 20.5,-75.5 61.5,-75.5 61.5,-56.5 20.5,-56.5"/>
<text text-anchor="middle" x="41" y="-63.5" font-family="Helvetica,sans-Serif" font-size="10.00">string</text>
</a>
</g>
</g>
<!-- Node5&#45;&gt;Node10 -->
<g id="edge9" class="edge">
<title>Node5&#45;&gt;Node10</title>
<path fill="none" stroke="midnightblue" d="M557.78,-451.44C427.52,-430.96 0,-354.63 0,-235 0,-235 0,-235 0,-177 0,-142.52 17.91,-105.56 30.06,-84.47"/>
<polygon fill="midnightblue" stroke="midnightblue" points="33.16,-86.09 35.3,-75.71 27.16,-82.49 33.16,-86.09"/>
</g>
<!-- Node11 -->
<g id="node11" class="node">
<title>Node11</title>
<g id="a_node11"><a xlink:href="axiom_8h.html" target="_top" xlink:title=" ">
<polygon fill="none" stroke="black" points="642.5,-392.5 642.5,-411.5 719.5,-411.5 719.5,-392.5 642.5,-392.5"/>
<text text-anchor="middle" x="681" y="-399.5" font-family="Helvetica,sans-Serif" font-size="10.00">thorin/axiom.h</text>
</a>
</g>
</g>
<!-- Node5&#45;&gt;Node11 -->
<g id="edge10" class="edge">
<title>Node5&#45;&gt;Node11</title>
<path fill="none" stroke="midnightblue" d="M608.82,-448.32C622.23,-439.9 642.82,-426.97 658.59,-417.07"/>
<polygon fill="midnightblue" stroke="midnightblue" points="660.61,-419.94 667.22,-411.65 656.89,-414.01 660.61,-419.94"/>
</g>
<!-- Node18 -->
<g id="node18" class="node">
<title>Node18</title>
<g id="a_node18"><a xlink:href="hash_8h.html" target="_top" xlink:title=" ">
<polygon fill="none" stroke="black" points="532,-168.5 532,-187.5 620,-187.5 620,-168.5 532,-168.5"/>
<text text-anchor="middle" x="576" y="-175.5" font-family="Helvetica,sans-Serif" font-size="10.00">thorin/util/hash.h</text>
</a>
</g>
</g>
<!-- Node5&#45;&gt;Node18 -->
<g id="edge76" class="edge">
<title>Node5&#45;&gt;Node18</title>
<path fill="none" stroke="midnightblue" d="M592.44,-448.25C587.25,-429.74 576,-385.18 576,-347 576,-347 576,-347 576,-289 576,-256.95 576,-219.64 576,-197.75"/>
<polygon fill="midnightblue" stroke="midnightblue" points="579.5,-197.56 576,-187.56 572.5,-197.56 579.5,-197.56"/>
</g>
<!-- Node27 -->
<g id="node27" class="node">
<title>Node27</title>
<g id="a_node27"><a xlink:title=" ">
<polygon fill="none" stroke="#bfbfbf" points="104.5,-112.5 104.5,-131.5 181.5,-131.5 181.5,-112.5 104.5,-112.5"/>
<text text-anchor="middle" x="143" y="-119.5" font-family="Helvetica,sans-Serif" font-size="10.00">thorin/config.h</text>
</a>
</g>
</g>
<!-- Node5&#45;&gt;Node27 -->
<g id="edge77" class="edge">
<title>Node5&#45;&gt;Node27</title>
<path fill="none" stroke="midnightblue" d="M583.37,-448.41C522.56,-403.47 240.91,-195.35 163.01,-137.79"/>
<polygon fill="midnightblue" stroke="midnightblue" points="164.67,-134.66 154.55,-131.54 160.51,-140.29 164.67,-134.66"/>
</g>
<!-- Node45 -->
<g id="node45" class="node">
<title>Node45</title>
<g id="a_node45"><a xlink:href="lattice_8h.html" target="_top" xlink:title=" ">
<polygon fill="none" stroke="black" points="732.5,-336.5 732.5,-355.5 809.5,-355.5 809.5,-336.5 732.5,-336.5"/>
<text text-anchor="middle" x="771" y="-343.5" font-family="Helvetica,sans-Serif" font-size="10.00">thorin/lattice.h</text>
</a>
</g>
</g>
<!-- Node5&#45;&gt;Node45 -->
<g id="edge72" class="edge">
<title>Node5&#45;&gt;Node45</title>
<path fill="none" stroke="midnightblue" d="M628.64,-448.44C662.89,-439.25 713.16,-424.31 729,-412 744.71,-399.79 756.3,-379.96 763.27,-365.41"/>
<polygon fill="midnightblue" stroke="midnightblue" points="766.63,-366.49 767.53,-355.93 760.24,-363.62 766.63,-366.49"/>
</g>
<!-- Node5&#45;&gt;Node46 -->
<g id="edge74" class="edge">
<title>Node5&#45;&gt;Node46</title>
<path fill="none" stroke="midnightblue" d="M632.14,-450.05C637.12,-449.27 642.18,-448.56 647,-448 917.67,-416.72 988.44,-444.19 1259,-412 1260.26,-411.85 1261.53,-411.69 1262.81,-411.52"/>
<polygon fill="midnightblue" stroke="midnightblue" points="1263.38,-414.97 1272.76,-410.05 1262.35,-408.05 1263.38,-414.97"/>
</g>
<!-- Node12 -->
<g id="node12" class="node">
<title>Node12</title>
<g id="a_node12"><a xlink:href="lam_8h.html" target="_top" xlink:title=" ">
<polygon fill="none" stroke="black" points="647.5,-336.5 647.5,-355.5 714.5,-355.5 714.5,-336.5 647.5,-336.5"/>
<text text-anchor="middle" x="681" y="-343.5" font-family="Helvetica,sans-Serif" font-size="10.00">thorin/lam.h</text>
</a>
</g>
</g>
<!-- Node11&#45;&gt;Node12 -->
<g id="edge11" class="edge">
<title>Node11&#45;&gt;Node12</title>
<path fill="none" stroke="midnightblue" d="M681,-392.08C681,-385.01 681,-374.86 681,-365.99"/>
<polygon fill="midnightblue" stroke="midnightblue" points="684.5,-365.75 681,-355.75 677.5,-365.75 684.5,-365.75"/>
</g>
<!-- Node13 -->
<g id="node13" class="node">
<title>Node13</title>
<g id="a_node13"><a xlink:href="def_8h.html" target="_top" xlink:title=" ">
<polygon fill="none" stroke="black" points="738.5,-280.5 738.5,-299.5 803.5,-299.5 803.5,-280.5 738.5,-280.5"/>
<text text-anchor="middle" x="771" y="-287.5" font-family="Helvetica,sans-Serif" font-size="10.00">thorin/def.h</text>
</a>
</g>
</g>
<!-- Node12&#45;&gt;Node13 -->
<g id="edge12" class="edge">
<title>Node12&#45;&gt;Node13</title>
<path fill="none" stroke="midnightblue" d="M695.46,-336.32C709.5,-327.9 731.05,-314.97 747.54,-305.07"/>
<polygon fill="midnightblue" stroke="midnightblue" points="749.8,-307.8 756.58,-299.65 746.2,-301.8 749.8,-307.8"/>
</g>
<!-- Node14 -->
<g id="node14" class="node">
<title>Node14</title>
<g id="a_node14"><a xlink:title=" ">
<polygon fill="none" stroke="#bfbfbf" points="924,-112.5 924,-131.5 974,-131.5 974,-112.5 924,-112.5"/>
<text text-anchor="middle" x="949" y="-119.5" font-family="Helvetica,sans-Serif" font-size="10.00">optional</text>
</a>
</g>
</g>
<!-- Node13&#45;&gt;Node14 -->
<g id="edge13" class="edge">
<title>Node13&#45;&gt;Node14</title>
<path fill="none" stroke="midnightblue" d="M780.57,-280.08C809.44,-253.15 895.91,-172.51 932.43,-138.45"/>
<polygon fill="midnightblue" stroke="midnightblue" points="934.89,-140.95 939.81,-131.57 930.11,-135.83 934.89,-140.95"/>
</g>
<!-- Node15 -->
<g id="node15" class="node">
<title>Node15</title>
<g id="a_node15"><a xlink:title=" ">
<polygon fill="none" stroke="#bfbfbf" points="1064,-168.5 1064,-187.5 1108,-187.5 1108,-168.5 1064,-168.5"/>
<text text-anchor="middle" x="1086" y="-175.5" font-family="Helvetica,sans-Serif" font-size="10.00">vector</text>
</a>
</g>
</g>
<!-- Node13&#45;&gt;Node15 -->
<g id="edge14" class="edge">
<title>Node13&#45;&gt;Node15</title>
<path fill="none" stroke="midnightblue" d="M803.81,-287.27C868.74,-283.28 1010.76,-271.57 1050,-244 1065.8,-232.9 1075.43,-212.56 1080.7,-197.58"/>
<polygon fill="midnightblue" stroke="midnightblue" points="1084.11,-198.42 1083.8,-187.83 1077.44,-196.3 1084.11,-198.42"/>
</g>
<!-- Node16 -->
<g id="node16" class="node">
<title>Node16</title>
<g id="a_node16"><a xlink:href="debug_8h.html" target="_top" xlink:title=" ">
<polygon fill="none" stroke="black" points="448.5,-224.5 448.5,-243.5 525.5,-243.5 525.5,-224.5 448.5,-224.5"/>
<text text-anchor="middle" x="487" y="-231.5" font-family="Helvetica,sans-Serif" font-size="10.00">thorin/debug.h</text>
</a>
</g>
</g>
<!-- Node13&#45;&gt;Node16 -->
<g id="edge15" class="edge">
<title>Node13&#45;&gt;Node16</title>
<path fill="none" stroke="midnightblue" d="M738.42,-282.81C688.67,-273.34 593.43,-255.24 535.52,-244.23"/>
<polygon fill="midnightblue" stroke="midnightblue" points="535.99,-240.75 525.51,-242.32 534.68,-247.63 535.99,-240.75"/>
</g>
<!-- Node13&#45;&gt;Node18 -->
<g id="edge67" class="edge">
<title>Node13&#45;&gt;Node18</title>
<path fill="none" stroke="midnightblue" d="M755.7,-280.37C721.88,-261.29 640.57,-215.42 599.94,-192.51"/>
<polygon fill="midnightblue" stroke="midnightblue" points="601.66,-189.46 591.23,-187.59 598.22,-195.55 601.66,-189.46"/>
</g>
<!-- Node34 -->
<g id="node34" class="node">
<title>Node34</title>
<g id="a_node34"><a xlink:href="stream_8h.html" target="_top" xlink:title=" ">
<polygon fill="none" stroke="black" points="238.5,-112.5 238.5,-131.5 335.5,-131.5 335.5,-112.5 238.5,-112.5"/>
<text text-anchor="middle" x="287" y="-119.5" font-family="Helvetica,sans-Serif" font-size="10.00">thorin/util/stream.h</text>
</a>
</g>
</g>
<!-- Node13&#45;&gt;Node34 -->
<g id="edge71" class="edge">
<title>Node13&#45;&gt;Node34</title>
<path fill="none" stroke="midnightblue" d="M738.24,-286.78C665.47,-281.49 492.56,-266.87 439,-244 380.81,-219.15 326.28,-165.75 301.29,-138.98"/>
<polygon fill="midnightblue" stroke="midnightblue" points="303.86,-136.59 294.52,-131.59 298.7,-141.32 303.86,-136.59"/>
</g>
<!-- Node38 -->
<g id="node38" class="node">
<title>Node38</title>
<g id="a_node38"><a xlink:href="tables_8h.html" target="_top" xlink:title=" ">
<polygon fill="none" stroke="black" points="930.5,-168.5 930.5,-187.5 1007.5,-187.5 1007.5,-168.5 930.5,-168.5"/>
<text text-anchor="middle" x="969" y="-175.5" font-family="Helvetica,sans-Serif" font-size="10.00">thorin/tables.h</text>
</a>
</g>
</g>
<!-- Node13&#45;&gt;Node38 -->
<g id="edge50" class="edge">
<title>Node13&#45;&gt;Node38</title>
<path fill="none" stroke="midnightblue" d="M803.66,-283.94C833.96,-278.07 879.33,-266.22 913,-244 931.77,-231.62 947.87,-211.24 957.93,-196.6"/>
<polygon fill="midnightblue" stroke="midnightblue" points="961.05,-198.23 963.63,-187.95 955.2,-194.37 961.05,-198.23"/>
</g>
<!-- Node40 -->
<g id="node40" class="node">
<title>Node40</title>
<g id="a_node40"><a xlink:href="array_8h.html" target="_top" xlink:title=" ">
<polygon fill="none" stroke="black" points="1195,-224.5 1195,-243.5 1283,-243.5 1283,-224.5 1195,-224.5"/>
<text text-anchor="middle" x="1239" y="-231.5" font-family="Helvetica,sans-Serif" font-size="10.00">thorin/util/array.h</text>
</a>
</g>
</g>
<!-- Node13&#45;&gt;Node40 -->
<g id="edge54" class="edge">
<title>Node13&#45;&gt;Node40</title>
<path fill="none" stroke="midnightblue" d="M803.54,-285.25C882.82,-276.1 1086.65,-252.58 1184.71,-241.26"/>
<polygon fill="midnightblue" stroke="midnightblue" points="1185.18,-244.73 1194.71,-240.11 1184.38,-237.78 1185.18,-244.73"/>
</g>
<!-- Node43 -->
<g id="node43" class="node">
<title>Node43</title>
<g id="a_node43"><a xlink:href="cast_8h.html" target="_top" xlink:title=" ">
<polygon fill="none" stroke="black" points="1216,-112.5 1216,-131.5 1302,-131.5 1302,-112.5 1216,-112.5"/>
<text text-anchor="middle" x="1259" y="-119.5" font-family="Helvetica,sans-Serif" font-size="10.00">thorin/util/cast.h</text>
</a>
</g>
</g>
<!-- Node13&#45;&gt;Node43 -->
<g id="edge64" class="edge">
<title>Node13&#45;&gt;Node43</title>
<path fill="none" stroke="midnightblue" d="M803.73,-283.33C838.16,-276.65 893.44,-263.88 938,-244 994.63,-218.74 997.81,-191.95 1055,-168 1081.81,-156.77 1155.04,-141.96 1206.04,-132.45"/>
<polygon fill="midnightblue" stroke="midnightblue" points="1206.73,-135.89 1215.92,-130.63 1205.45,-129 1206.73,-135.89"/>
</g>
<!-- Node44 -->
<g id="node44" class="node">
<title>Node44</title>
<g id="a_node44"><a xlink:href="ptr_8h.html" target="_top" xlink:title=" ">
<polygon fill="none" stroke="black" points="618,-112.5 618,-131.5 696,-131.5 696,-112.5 618,-112.5"/>
<text text-anchor="middle" x="657" y="-119.5" font-family="Helvetica,sans-Serif" font-size="10.00">thorin/util/ptr.h</text>
</a>
</g>
</g>
<!-- Node13&#45;&gt;Node44 -->
<g id="edge68" class="edge">
<title>Node13&#45;&gt;Node44</title>
<path fill="none" stroke="midnightblue" d="M764.87,-280.08C746.69,-253.61 692.85,-175.21 668.82,-140.21"/>
<polygon fill="midnightblue" stroke="midnightblue" points="671.43,-137.83 662.88,-131.57 665.66,-141.79 671.43,-137.83"/>
</g>
<!-- Node16&#45;&gt;Node10 -->
<g id="edge16" class="edge">
<title>Node16&#45;&gt;Node10</title>
<path fill="none" stroke="midnightblue" d="M448.28,-230.85C374.19,-225.14 209.57,-204.61 95,-132 76.09,-120.02 60.54,-99.23 51.06,-84.39"/>
<polygon fill="midnightblue" stroke="midnightblue" points="53.93,-82.36 45.73,-75.65 47.95,-86.01 53.93,-82.36"/>
</g>
<!-- Node17 -->
<g id="node17" class="node">
<title>Node17</title>
<g id="a_node17"><a xlink:title=" ">
<polygon fill="none" stroke="#bfbfbf" points="468,-168.5 468,-187.5 506,-187.5 506,-168.5 468,-168.5"/>
<text text-anchor="middle" x="487" y="-175.5" font-family="Helvetica,sans-Serif" font-size="10.00">tuple</text>
</a>
</g>
</g>
<!-- Node16&#45;&gt;Node17 -->
<g id="edge17" class="edge">
<title>Node16&#45;&gt;Node17</title>
<path fill="none" stroke="midnightblue" d="M487,-224.08C487,-217.01 487,-206.86 487,-197.99"/>
<polygon fill="midnightblue" stroke="midnightblue" points="490.5,-197.75 487,-187.75 483.5,-197.75 490.5,-197.75"/>
</g>
<!-- Node16&#45;&gt;Node18 -->
<g id="edge18" class="edge">
<title>Node16&#45;&gt;Node18</title>
<path fill="none" stroke="midnightblue" d="M501.3,-224.32C515.18,-215.9 536.49,-202.97 552.8,-193.07"/>
<polygon fill="midnightblue" stroke="midnightblue" points="555,-195.83 561.74,-187.65 551.37,-189.85 555,-195.83"/>
</g>
<!-- Node16&#45;&gt;Node34 -->
<g id="edge49" class="edge">
<title>Node16&#45;&gt;Node34</title>
<path fill="none" stroke="midnightblue" d="M476.88,-224.31C460.93,-210.93 428.59,-185.03 398,-168 374.05,-154.67 345.34,-143.13 323.11,-135.08"/>
<polygon fill="midnightblue" stroke="midnightblue" points="324,-131.68 313.4,-131.63 321.65,-138.28 324,-131.68"/>
</g>
<!-- Node18&#45;&gt;Node6 -->
<g id="edge21" class="edge">
<title>Node18&#45;&gt;Node6</title>
<path fill="none" stroke="midnightblue" d="M620.24,-174.21C678.87,-169.63 785.04,-158.24 872,-132 892.18,-125.91 894.9,-118.34 915,-112 990.9,-88.05 1083.89,-75.62 1133.28,-70.29"/>
<polygon fill="midnightblue" stroke="midnightblue" points="1133.85,-73.75 1143.43,-69.23 1133.12,-66.79 1133.85,-73.75"/>
</g>
<!-- Node18&#45;&gt;Node7 -->
<g id="edge25" class="edge">
<title>Node18&#45;&gt;Node7</title>
<path fill="none" stroke="midnightblue" d="M531.7,-170.35C526.08,-169.54 520.41,-168.74 515,-168 388.07,-150.65 351.11,-170.76 229,-132 223.88,-130.37 166.17,-99.19 131.99,-80.61"/>
<polygon fill="midnightblue" stroke="midnightblue" points="133.5,-77.45 123.04,-75.74 130.15,-83.6 133.5,-77.45"/>
</g>
<!-- Node18&#45;&gt;Node14 -->
<g id="edge27" class="edge">
<title>Node18&#45;&gt;Node14</title>
<path fill="none" stroke="midnightblue" d="M620.24,-172.36C684.38,-165.34 806.82,-150.81 910,-132 911.27,-131.77 912.56,-131.52 913.86,-131.27"/>
<polygon fill="midnightblue" stroke="midnightblue" points="914.83,-134.64 923.9,-129.15 913.39,-127.79 914.83,-134.64"/>
</g>
<!-- Node19 -->
<g id="node19" class="node">
<title>Node19</title>
<g id="a_node19"><a xlink:title=" ">
<polygon fill="none" stroke="#bfbfbf" points="1142,-112.5 1142,-131.5 1198,-131.5 1198,-112.5 1142,-112.5"/>
<text text-anchor="middle" x="1170" y="-119.5" font-family="Helvetica,sans-Serif" font-size="10.00">algorithm</text>
</a>
</g>
</g>
<!-- Node18&#45;&gt;Node19 -->
<g id="edge19" class="edge">
<title>Node18&#45;&gt;Node19</title>
<path fill="none" stroke="midnightblue" d="M620.33,-175.8C713.45,-172.75 936.27,-162.79 1131.93,-131.92"/>
<polygon fill="midnightblue" stroke="midnightblue" points="1132.49,-135.38 1141.81,-130.34 1131.38,-128.47 1132.49,-135.38"/>
</g>
<!-- Node20 -->
<g id="node20" class="node">
<title>Node20</title>
<g id="a_node20"><a xlink:title=" ">
<polygon fill="none" stroke="#bfbfbf" points="430,-112.5 430,-131.5 468,-131.5 468,-112.5 430,-112.5"/>
<text text-anchor="middle" x="449" y="-119.5" font-family="Helvetica,sans-Serif" font-size="10.00">array</text>
</a>
</g>
</g>
<!-- Node18&#45;&gt;Node20 -->
<g id="edge20" class="edge">
<title>Node18&#45;&gt;Node20</title>
<path fill="none" stroke="midnightblue" d="M555.88,-168.44C534.73,-159.45 501.29,-145.23 477.45,-135.1"/>
<polygon fill="midnightblue" stroke="midnightblue" points="478.77,-131.86 468.2,-131.16 476.03,-138.3 478.77,-131.86"/>
</g>
<!-- Node21 -->
<g id="node21" class="node">
<title>Node21</title>
<g id="a_node21"><a xlink:title=" ">
<polygon fill="none" stroke="#bfbfbf" points="486,-112.5 486,-131.5 542,-131.5 542,-112.5 486,-112.5"/>
<text text-anchor="middle" x="514" y="-119.5" font-family="Helvetica,sans-Serif" font-size="10.00">cinttypes</text>
</a>
</g>
</g>
<!-- Node18&#45;&gt;Node21 -->
<g id="edge22" class="edge">
<title>Node18&#45;&gt;Node21</title>
<path fill="none" stroke="midnightblue" d="M566.04,-168.32C556.87,-160.34 543.06,-148.31 531.97,-138.65"/>
<polygon fill="midnightblue" stroke="midnightblue" points="533.98,-135.76 524.14,-131.83 529.38,-141.04 533.98,-135.76"/>
</g>
<!-- Node22 -->
<g id="node22" class="node">
<title>Node22</title>
<g id="a_node22"><a xlink:title=" ">
<polygon fill="none" stroke="#bfbfbf" points="604,-0.5 604,-19.5 650,-19.5 650,-0.5 604,-0.5"/>
<text text-anchor="middle" x="627" y="-7.5" font-family="Helvetica,sans-Serif" font-size="10.00">cstdint</text>
</a>
</g>
</g>
<!-- Node18&#45;&gt;Node22 -->
<g id="edge23" class="edge">
<title>Node18&#45;&gt;Node22</title>
<path fill="none" stroke="midnightblue" d="M531.63,-169.28C489,-161.11 428.43,-147.31 410,-132 382.43,-109.1 360.07,-83.55 383,-56 409.45,-24.22 533.44,-14.8 593.81,-12.07"/>
<polygon fill="midnightblue" stroke="midnightblue" points="594.12,-15.56 603.96,-11.65 593.82,-8.57 594.12,-15.56"/>
</g>
<!-- Node23 -->
<g id="node23" class="node">
<title>Node23</title>
<g id="a_node23"><a xlink:title=" ">
<polygon fill="none" stroke="#bfbfbf" points="1012,-56.5 1012,-75.5 1058,-75.5 1058,-56.5 1012,-56.5"/>
<text text-anchor="middle" x="1035" y="-63.5" font-family="Helvetica,sans-Serif" font-size="10.00">cstring</text>
</a>
</g>
</g>
<!-- Node18&#45;&gt;Node23 -->
<g id="edge24" class="edge">
<title>Node18&#45;&gt;Node23</title>
<path fill="none" stroke="midnightblue" d="M620.04,-172.34C671.95,-166.16 760.45,-153.45 834,-132 856.19,-125.53 860.22,-119.72 882,-112 922.8,-97.55 970.82,-83.97 1002.04,-75.58"/>
<polygon fill="midnightblue" stroke="midnightblue" points="1003.18,-78.9 1011.94,-72.94 1001.38,-72.13 1003.18,-78.9"/>
</g>
<!-- Node24 -->
<g id="node24" class="node">
<title>Node24</title>
<g id="a_node24"><a xlink:title=" ">
<polygon fill="none" stroke="#bfbfbf" points="392.5,-56.5 392.5,-75.5 443.5,-75.5 443.5,-56.5 392.5,-56.5"/>
<text text-anchor="middle" x="418" y="-63.5" font-family="Helvetica,sans-Serif" font-size="10.00">memory</text>
</a>
</g>
</g>
<!-- Node18&#45;&gt;Node24 -->
<g id="edge26" class="edge">
<title>Node18&#45;&gt;Node24</title>
<path fill="none" stroke="midnightblue" d="M531.66,-169.98C490.88,-162.54 434.74,-149.44 421,-132 410.85,-119.12 411.25,-99.94 413.49,-85.75"/>
<polygon fill="midnightblue" stroke="midnightblue" points="416.98,-86.15 415.53,-75.66 410.12,-84.77 416.98,-86.15"/>
</g>
<!-- Node25 -->
<g id="node25" class="node">
<title>Node25</title>
<g id="a_node25"><a xlink:title=" ">
<polygon fill="none" stroke="#bfbfbf" points="926,-0.5 926,-19.5 988,-19.5 988,-0.5 926,-0.5"/>
<text text-anchor="middle" x="957" y="-7.5" font-family="Helvetica,sans-Serif" font-size="10.00">type_traits</text>
</a>
</g>
</g>
<!-- Node18&#45;&gt;Node25 -->
<g id="edge28" class="edge">
<title>Node18&#45;&gt;Node25</title>
<path fill="none" stroke="midnightblue" d="M620.12,-174.18C666.87,-169.85 741.94,-158.98 801,-132 831.32,-118.15 905.63,-55.49 939.57,-26.19"/>
<polygon fill="midnightblue" stroke="midnightblue" points="942.02,-28.7 947.28,-19.51 937.43,-23.41 942.02,-28.7"/>
</g>
<!-- Node26 -->
<g id="node26" class="node">
<title>Node26</title>
<g id="a_node26"><a xlink:title=" ">
<polygon fill="none" stroke="#bfbfbf" points="560.5,-112.5 560.5,-131.5 599.5,-131.5 599.5,-112.5 560.5,-112.5"/>
<text text-anchor="middle" x="580" y="-119.5" font-family="Helvetica,sans-Serif" font-size="10.00">utility</text>
</a>
</g>
</g>
<!-- Node18&#45;&gt;Node26 -->
<g id="edge29" class="edge">
<title>Node18&#45;&gt;Node26</title>
<path fill="none" stroke="midnightblue" d="M576.66,-168.08C577.18,-161.01 577.94,-150.86 578.59,-141.99"/>
<polygon fill="midnightblue" stroke="midnightblue" points="582.1,-141.98 579.35,-131.75 575.12,-141.47 582.1,-141.98"/>
</g>
<!-- Node18&#45;&gt;Node27 -->
<g id="edge30" class="edge">
<title>Node18&#45;&gt;Node27</title>
<path fill="none" stroke="midnightblue" d="M531.71,-170.28C526.09,-169.49 520.41,-168.7 515,-168 373.52,-149.58 337.28,-151.95 196,-132 194.7,-131.82 193.38,-131.63 192.06,-131.43"/>
<polygon fill="midnightblue" stroke="midnightblue" points="192.17,-127.91 181.75,-129.84 191.1,-134.82 192.17,-127.91"/>
</g>
<!-- Node28 -->
<g id="node28" class="node">
<title>Node28</title>
<g id="a_node28"><a xlink:href="bit_8h.html" target="_top" xlink:title=" ">
<polygon fill="none" stroke="black" points="714.5,-112.5 714.5,-131.5 791.5,-131.5 791.5,-112.5 714.5,-112.5"/>
<text text-anchor="middle" x="753" y="-119.5" font-family="Helvetica,sans-Serif" font-size="10.00">thorin/util/bit.h</text>
</a>
</g>
</g>
<!-- Node18&#45;&gt;Node28 -->
<g id="edge31" class="edge">
<title>Node18&#45;&gt;Node28</title>
<path fill="none" stroke="midnightblue" d="M604.05,-168.44C634.08,-159.28 681.91,-144.69 715.24,-134.52"/>
<polygon fill="midnightblue" stroke="midnightblue" points="716.54,-137.78 725.09,-131.52 714.5,-131.09 716.54,-137.78"/>
</g>
<!-- Node18&#45;&gt;Node34 -->
<g id="edge40" class="edge">
<title>Node18&#45;&gt;Node34</title>
<path fill="none" stroke="midnightblue" d="M531.79,-168.74C481.03,-159.26 397.69,-143.68 342.58,-133.39"/>
<polygon fill="midnightblue" stroke="midnightblue" points="343.11,-129.92 332.63,-131.53 341.82,-136.8 343.11,-129.92"/>
</g>
<!-- Node28&#45;&gt;Node22 -->
<g id="edge32" class="edge">
<title>Node28&#45;&gt;Node22</title>
<path fill="none" stroke="midnightblue" d="M741.41,-112.32C729.72,-103.46 711.27,-89.18 696,-76 677.25,-59.82 656.71,-40.21 642.95,-26.78"/>
<polygon fill="midnightblue" stroke="midnightblue" points="645.29,-24.18 635.7,-19.67 640.39,-29.17 645.29,-24.18"/>
</g>
<!-- Node29 -->
<g id="node29" class="node">
<title>Node29</title>
<g id="a_node29"><a xlink:href="types_8h.html" target="_top" xlink:title=" ">
<polygon fill="none" stroke="black" points="705,-56.5 705,-75.5 795,-75.5 795,-56.5 705,-56.5"/>
<text text-anchor="middle" x="750" y="-63.5" font-family="Helvetica,sans-Serif" font-size="10.00">thorin/util/types.h</text>
</a>
</g>
</g>
<!-- Node28&#45;&gt;Node29 -->
<g id="edge33" class="edge">
<title>Node28&#45;&gt;Node29</title>
<path fill="none" stroke="midnightblue" d="M752.5,-112.08C752.11,-105.01 751.55,-94.86 751.05,-85.99"/>
<polygon fill="midnightblue" stroke="midnightblue" points="754.54,-85.54 750.49,-75.75 747.55,-85.93 754.54,-85.54"/>
</g>
<!-- Node29&#45;&gt;Node22 -->
<g id="edge35" class="edge">
<title>Node29&#45;&gt;Node22</title>
<path fill="none" stroke="midnightblue" d="M730.51,-56.44C710.36,-47.6 678.68,-33.69 655.67,-23.59"/>
<polygon fill="midnightblue" stroke="midnightblue" points="656.96,-20.33 646.4,-19.52 654.15,-26.74 656.96,-20.33"/>
</g>
<!-- Node29&#45;&gt;Node25 -->
<g id="edge38" class="edge">
<title>Node29&#45;&gt;Node25</title>
<path fill="none" stroke="midnightblue" d="M782.8,-56.44C818.8,-47.05 876.66,-31.96 915.72,-21.77"/>
<polygon fill="midnightblue" stroke="midnightblue" points="916.92,-25.07 925.71,-19.16 915.15,-18.3 916.92,-25.07"/>
</g>
<!-- Node30 -->
<g id="node30" class="node">
<title>Node30</title>
<g id="a_node30"><a xlink:title=" ">
<polygon fill="none" stroke="#bfbfbf" points="668,-0.5 668,-19.5 712,-19.5 712,-0.5 668,-0.5"/>
<text text-anchor="middle" x="690" y="-7.5" font-family="Helvetica,sans-Serif" font-size="10.00">cmath</text>
</a>
</g>
</g>
<!-- Node29&#45;&gt;Node30 -->
<g id="edge34" class="edge">
<title>Node29&#45;&gt;Node30</title>
<path fill="none" stroke="midnightblue" d="M740.36,-56.32C731.49,-48.34 718.13,-36.31 707.39,-26.65"/>
<polygon fill="midnightblue" stroke="midnightblue" points="709.59,-23.92 699.82,-19.83 704.91,-29.13 709.59,-23.92"/>
</g>
<!-- Node31 -->
<g id="node31" class="node">
<title>Node31</title>
<g id="a_node31"><a xlink:title=" ">
<polygon fill="none" stroke="#bfbfbf" points="730,-0.5 730,-19.5 770,-19.5 770,-0.5 730,-0.5"/>
<text text-anchor="middle" x="750" y="-7.5" font-family="Helvetica,sans-Serif" font-size="10.00">limits</text>
</a>
</g>
</g>
<!-- Node29&#45;&gt;Node31 -->
<g id="edge36" class="edge">
<title>Node29&#45;&gt;Node31</title>
<path fill="none" stroke="midnightblue" d="M750,-56.08C750,-49.01 750,-38.86 750,-29.99"/>
<polygon fill="midnightblue" stroke="midnightblue" points="753.5,-29.75 750,-19.75 746.5,-29.75 753.5,-29.75"/>
</g>
<!-- Node32 -->
<g id="node32" class="node">
<title>Node32</title>
<g id="a_node32"><a xlink:title=" ">
<polygon fill="none" stroke="#bfbfbf" points="788,-0.5 788,-19.5 840,-19.5 840,-0.5 788,-0.5"/>
<text text-anchor="middle" x="814" y="-7.5" font-family="Helvetica,sans-Serif" font-size="10.00">ostream</text>
</a>
</g>
</g>
<!-- Node29&#45;&gt;Node32 -->
<g id="edge37" class="edge">
<title>Node29&#45;&gt;Node32</title>
<path fill="none" stroke="midnightblue" d="M760.28,-56.32C769.84,-48.26 784.28,-36.08 795.78,-26.37"/>
<polygon fill="midnightblue" stroke="midnightblue" points="798.14,-28.96 803.53,-19.83 793.63,-23.61 798.14,-28.96"/>
</g>
<!-- Node33 -->
<g id="node33" class="node">
<title>Node33</title>
<g id="a_node33"><a xlink:title=" ">
<polygon fill="none" stroke="#bfbfbf" points="858,-0.5 858,-19.5 908,-19.5 908,-0.5 858,-0.5"/>
<text text-anchor="middle" x="883" y="-7.5" font-family="Helvetica,sans-Serif" font-size="10.00">half.hpp</text>
</a>
</g>
</g>
<!-- Node29&#45;&gt;Node33 -->
<g id="edge39" class="edge">
<title>Node29&#45;&gt;Node33</title>
<path fill="none" stroke="midnightblue" d="M771.07,-56.44C793.06,-47.52 827.73,-33.44 852.66,-23.32"/>
<polygon fill="midnightblue" stroke="midnightblue" points="854.08,-26.52 862.02,-19.52 851.44,-20.04 854.08,-26.52"/>
</g>
<!-- Node34&#45;&gt;Node6 -->
<g id="edge41" class="edge">
<title>Node34&#45;&gt;Node6</title>
<path fill="none" stroke="midnightblue" d="M335.68,-117.6C361.1,-115.85 392.72,-113.74 421,-112 708.02,-94.36 780.19,-96.76 1067,-76 1088.93,-74.41 1113.49,-72.23 1132.91,-70.42"/>
<polygon fill="midnightblue" stroke="midnightblue" points="1133.49,-73.88 1143.11,-69.45 1132.83,-66.91 1133.49,-73.88"/>
</g>
<!-- Node34&#45;&gt;Node7 -->
<g id="edge44" class="edge">
<title>Node34&#45;&gt;Node7</title>
<path fill="none" stroke="midnightblue" d="M258.48,-112.44C227.57,-103.17 178.14,-88.34 144.21,-78.16"/>
<polygon fill="midnightblue" stroke="midnightblue" points="144.79,-74.68 134.21,-75.16 142.78,-81.39 144.79,-74.68"/>
</g>
<!-- Node34&#45;&gt;Node10 -->
<g id="edge48" class="edge">
<title>Node34&#45;&gt;Node10</title>
<path fill="none" stroke="midnightblue" d="M240.39,-112.49C198.61,-104.59 135.46,-92 71.45,-75.93"/>
<polygon fill="midnightblue" stroke="midnightblue" points="72.15,-72.5 61.59,-73.43 70.42,-79.28 72.15,-72.5"/>
</g>
<!-- Node34&#45;&gt;Node23 -->
<g id="edge42" class="edge">
<title>Node34&#45;&gt;Node23</title>
<path fill="none" stroke="midnightblue" d="M335.5,-117.5C476.29,-107.33 882.55,-78.01 1001.75,-69.4"/>
<polygon fill="midnightblue" stroke="midnightblue" points="1002.02,-72.89 1011.74,-68.68 1001.52,-65.91 1002.02,-72.89"/>
</g>
<!-- Node34&#45;&gt;Node24 -->
<g id="edge45" class="edge">
<title>Node34&#45;&gt;Node24</title>
<path fill="none" stroke="midnightblue" d="M307.76,-112.44C329.32,-103.56 363.26,-89.56 387.79,-79.45"/>
<polygon fill="midnightblue" stroke="midnightblue" points="389.43,-82.56 397.34,-75.52 386.76,-76.09 389.43,-82.56"/>
</g>
<!-- Node35 -->
<g id="node35" class="node">
<title>Node35</title>
<g id="a_node35"><a xlink:title=" ">
<polygon fill="none" stroke="#bfbfbf" points="152,-56.5 152,-75.5 202,-75.5 202,-56.5 152,-56.5"/>
<text text-anchor="middle" x="177" y="-63.5" font-family="Helvetica,sans-Serif" font-size="10.00">fstream</text>
</a>
</g>
</g>
<!-- Node34&#45;&gt;Node35 -->
<g id="edge43" class="edge">
<title>Node34&#45;&gt;Node35</title>
<path fill="none" stroke="midnightblue" d="M269.33,-112.32C251.61,-103.62 224.1,-90.12 203.71,-80.11"/>
<polygon fill="midnightblue" stroke="midnightblue" points="205.15,-76.92 194.63,-75.65 202.06,-83.2 205.15,-76.92"/>
</g>
<!-- Node36 -->
<g id="node36" class="node">
<title>Node36</title>
<g id="a_node36"><a xlink:title=" ">
<polygon fill="none" stroke="#bfbfbf" points="220,-56.5 220,-75.5 266,-75.5 266,-56.5 220,-56.5"/>
<text text-anchor="middle" x="243" y="-63.5" font-family="Helvetica,sans-Serif" font-size="10.00">ranges</text>
</a>
</g>
</g>
<!-- Node34&#45;&gt;Node36 -->
<g id="edge46" class="edge">
<title>Node34&#45;&gt;Node36</title>
<path fill="none" stroke="midnightblue" d="M279.73,-112.08C273.46,-104.38 264.21,-93.03 256.57,-83.65"/>
<polygon fill="midnightblue" stroke="midnightblue" points="259.16,-81.29 250.13,-75.75 253.73,-85.71 259.16,-81.29"/>
</g>
<!-- Node37 -->
<g id="node37" class="node">
<title>Node37</title>
<g id="a_node37"><a xlink:title=" ">
<polygon fill="none" stroke="#bfbfbf" points="284,-56.5 284,-75.5 336,-75.5 336,-56.5 284,-56.5"/>
<text text-anchor="middle" x="310" y="-63.5" font-family="Helvetica,sans-Serif" font-size="10.00">sstream</text>
</a>
</g>
</g>
<!-- Node34&#45;&gt;Node37 -->
<g id="edge47" class="edge">
<title>Node34&#45;&gt;Node37</title>
<path fill="none" stroke="midnightblue" d="M290.8,-112.08C293.91,-104.77 298.42,-94.18 302.29,-85.1"/>
<polygon fill="midnightblue" stroke="midnightblue" points="305.57,-86.32 306.27,-75.75 299.13,-83.58 305.57,-86.32"/>
</g>
<!-- Node38&#45;&gt;Node29 -->
<g id="edge53" class="edge">
<title>Node38&#45;&gt;Node29</title>
<path fill="none" stroke="midnightblue" d="M974.91,-168.35C983.37,-154.79 996.52,-128.38 983,-112 960.94,-85.27 867.21,-74.24 805.57,-69.81"/>
<polygon fill="midnightblue" stroke="midnightblue" points="805.42,-66.3 795.21,-69.11 804.95,-73.28 805.42,-66.3"/>
</g>
<!-- Node39 -->
<g id="node39" class="node">
<title>Node39</title>
<g id="a_node39"><a xlink:href="assert_8h.html" target="_top" xlink:title=" ">
<polygon fill="none" stroke="black" points="1030,-112.5 1030,-131.5 1124,-131.5 1124,-112.5 1030,-112.5"/>
<text text-anchor="middle" x="1077" y="-119.5" font-family="Helvetica,sans-Serif" font-size="10.00">thorin/util/assert.h</text>
</a>
</g>
</g>
<!-- Node38&#45;&gt;Node39 -->
<g id="edge51" class="edge">
<title>Node38&#45;&gt;Node39</title>
<path fill="none" stroke="midnightblue" d="M986.35,-168.32C1003.67,-159.66 1030.52,-146.24 1050.5,-136.25"/>
<polygon fill="midnightblue" stroke="midnightblue" points="1052.31,-139.26 1059.69,-131.65 1049.18,-133 1052.31,-139.26"/>
</g>
<!-- Node39&#45;&gt;Node6 -->
<g id="edge52" class="edge">
<title>Node39&#45;&gt;Node6</title>
<path fill="none" stroke="midnightblue" d="M1091.62,-112.32C1105.95,-103.82 1128.01,-90.73 1144.75,-80.8"/>
<polygon fill="midnightblue" stroke="midnightblue" points="1146.6,-83.77 1153.42,-75.65 1143.03,-77.75 1146.6,-83.77"/>
</g>
<!-- Node40&#45;&gt;Node6 -->
<g id="edge56" class="edge">
<title>Node40&#45;&gt;Node6</title>
<path fill="none" stroke="midnightblue" d="M1269.01,-224.41C1288.13,-217.48 1312.03,-205.9 1327,-188 1349.2,-161.45 1365.23,-139.34 1344,-112 1326.86,-89.93 1249.13,-76.85 1202.89,-70.89"/>
<polygon fill="midnightblue" stroke="midnightblue" points="1203.06,-67.39 1192.7,-69.63 1202.2,-74.33 1203.06,-67.39"/>
</g>
<!-- Node40&#45;&gt;Node8 -->
<g id="edge61" class="edge">
<title>Node40&#45;&gt;Node8</title>
<path fill="none" stroke="midnightblue" d="M1194.72,-227.07C1115.63,-216.47 951.3,-194.45 875.67,-184.32"/>
<polygon fill="midnightblue" stroke="midnightblue" points="875.98,-180.83 865.6,-182.97 875.05,-187.76 875.98,-180.83"/>
</g>
<!-- Node40&#45;&gt;Node9 -->
<g id="edge59" class="edge">
<title>Node40&#45;&gt;Node9</title>
<path fill="none" stroke="midnightblue" d="M1226.63,-224.32C1214.84,-216.06 1196.87,-203.45 1182.86,-193.63"/>
<polygon fill="midnightblue" stroke="midnightblue" points="1184.54,-190.53 1174.34,-187.65 1180.52,-196.26 1184.54,-190.53"/>
</g>
<!-- Node40&#45;&gt;Node15 -->
<g id="edge62" class="edge">
<title>Node40&#45;&gt;Node15</title>
<path fill="none" stroke="midnightblue" d="M1214.76,-224.44C1188.53,-215.19 1146.6,-200.39 1117.75,-190.21"/>
<polygon fill="midnightblue" stroke="midnightblue" points="1118.74,-186.84 1108.14,-186.82 1116.41,-193.44 1118.74,-186.84"/>
</g>
<!-- Node40&#45;&gt;Node19 -->
<g id="edge55" class="edge">
<title>Node40&#45;&gt;Node19</title>
<path fill="none" stroke="midnightblue" d="M1262.22,-224.35C1289.26,-212.94 1328.19,-191.52 1311,-168 1304.73,-159.41 1247.58,-143.11 1207.99,-132.66"/>
<polygon fill="midnightblue" stroke="midnightblue" points="1208.66,-129.22 1198.1,-130.07 1206.89,-135.99 1208.66,-129.22"/>
</g>
<!-- Node40&#45;&gt;Node23 -->
<g id="edge58" class="edge">
<title>Node40&#45;&gt;Node23</title>
<path fill="none" stroke="midnightblue" d="M1237.55,-224.16C1235.86,-210.8 1234.57,-185.21 1246,-168 1264.27,-140.49 1294.23,-160.45 1311,-132 1315.51,-124.34 1316.76,-118.77 1311,-112 1295.41,-93.66 1138.34,-76.73 1068.35,-70.03"/>
<polygon fill="midnightblue" stroke="midnightblue" points="1068.57,-66.54 1058.29,-69.08 1067.91,-73.51 1068.57,-66.54"/>
</g>
<!-- Node40&#45;&gt;Node25 -->
<g id="edge63" class="edge">
<title>Node40&#45;&gt;Node25</title>
<path fill="none" stroke="midnightblue" d="M1283.1,-224.7C1305.53,-218.29 1331.48,-207.14 1348,-188 1370.44,-162 1381.87,-140.01 1362,-112 1319.71,-52.4 1092.67,-24.02 998.24,-14.66"/>
<polygon fill="midnightblue" stroke="midnightblue" points="998.49,-11.17 988.2,-13.69 997.81,-18.14 998.49,-11.17"/>
</g>
<!-- Node41 -->
<g id="node41" class="node">
<title>Node41</title>
<g id="a_node41"><a xlink:title=" ">
<polygon fill="none" stroke="#bfbfbf" points="1434.5,-168.5 1434.5,-187.5 1483.5,-187.5 1483.5,-168.5 1434.5,-168.5"/>
<text text-anchor="middle" x="1459" y="-175.5" font-family="Helvetica,sans-Serif" font-size="10.00">cstddef</text>
</a>
</g>
</g>
<!-- Node40&#45;&gt;Node41 -->
<g id="edge57" class="edge">
<title>Node40&#45;&gt;Node41</title>
<path fill="none" stroke="midnightblue" d="M1273.86,-224.44C1315.07,-214.33 1383.25,-197.59 1424.37,-187.5"/>
<polygon fill="midnightblue" stroke="midnightblue" points="1425.33,-190.87 1434.2,-185.09 1423.66,-184.07 1425.33,-190.87"/>
</g>
<!-- Node42 -->
<g id="node42" class="node">
<title>Node42</title>
<g id="a_node42"><a xlink:title=" ">
<polygon fill="none" stroke="#bfbfbf" points="1254.5,-168.5 1254.5,-187.5 1301.5,-187.5 1301.5,-168.5 1254.5,-168.5"/>
<text text-anchor="middle" x="1278" y="-175.5" font-family="Helvetica,sans-Serif" font-size="10.00">iterator</text>
</a>
</g>
</g>
<!-- Node40&#45;&gt;Node42 -->
<g id="edge60" class="edge">
<title>Node40&#45;&gt;Node42</title>
<path fill="none" stroke="midnightblue" d="M1245.44,-224.08C1250.95,-216.46 1259.03,-205.26 1265.76,-195.94"/>
<polygon fill="midnightblue" stroke="midnightblue" points="1268.66,-197.91 1271.68,-187.75 1262.99,-193.81 1268.66,-197.91"/>
</g>
<!-- Node43&#45;&gt;Node6 -->
<g id="edge65" class="edge">
<title>Node43&#45;&gt;Node6</title>
<path fill="none" stroke="midnightblue" d="M1244.38,-112.32C1230.05,-103.82 1207.99,-90.73 1191.25,-80.8"/>
<polygon fill="midnightblue" stroke="midnightblue" points="1192.97,-77.75 1182.58,-75.65 1189.4,-83.77 1192.97,-77.75"/>
</g>
<!-- Node43&#45;&gt;Node23 -->
<g id="edge66" class="edge">
<title>Node43&#45;&gt;Node23</title>
<path fill="none" stroke="midnightblue" d="M1223.51,-112.44C1180.75,-102.14 1109.48,-84.96 1067.91,-74.93"/>
<polygon fill="midnightblue" stroke="midnightblue" points="1068.56,-71.49 1058.02,-72.55 1066.92,-78.29 1068.56,-71.49"/>
</g>
<!-- Node44&#45;&gt;Node22 -->
<g id="edge69" class="edge">
<title>Node44&#45;&gt;Node22</title>
<path fill="none" stroke="midnightblue" d="M654.65,-112.37C649.78,-94.54 638.54,-53.3 631.98,-29.27"/>
<polygon fill="midnightblue" stroke="midnightblue" points="635.35,-28.32 629.34,-19.59 628.6,-30.16 635.35,-28.32"/>
</g>
<!-- Node44&#45;&gt;Node24 -->
<g id="edge70" class="edge">
<title>Node44&#45;&gt;Node24</title>
<path fill="none" stroke="midnightblue" d="M619.13,-112.44C573.58,-102.15 497.73,-85.01 453.34,-74.98"/>
<polygon fill="midnightblue" stroke="midnightblue" points="454.09,-71.57 443.57,-72.78 452.55,-78.39 454.09,-71.57"/>
</g>
<!-- Node45&#45;&gt;Node13 -->
<g id="edge73" class="edge">
<title>Node45&#45;&gt;Node13</title>
<path fill="none" stroke="midnightblue" d="M771,-336.08C771,-329.01 771,-318.86 771,-309.99"/>
<polygon fill="midnightblue" stroke="midnightblue" points="774.5,-309.75 771,-299.75 767.5,-309.75 774.5,-309.75"/>
</g>
<!-- Node46&#45;&gt;Node13 -->
<g id="edge75" class="edge">
<title>Node46&#45;&gt;Node13</title>
<path fill="none" stroke="midnightblue" d="M1272.86,-393.61C1176.97,-374.01 916.38,-320.72 813.55,-299.7"/>
<polygon fill="midnightblue" stroke="midnightblue" points="814.02,-296.22 803.53,-297.65 812.62,-303.08 814.02,-296.22"/>
</g>
<!-- Node47&#45;&gt;Node13 -->
<g id="edge79" class="edge">
<title>Node47&#45;&gt;Node13</title>
<path fill="none" stroke="midnightblue" d="M384.69,-337.77C476.01,-326.72 648.21,-305.87 728.18,-296.18"/>
<polygon fill="midnightblue" stroke="midnightblue" points="728.87,-299.63 738.38,-294.95 728.03,-292.68 728.87,-299.63"/>
</g>
<!-- Node47&#45;&gt;Node34 -->
<g id="edge80" class="edge">
<title>Node47&#45;&gt;Node34</title>
<path fill="none" stroke="midnightblue" d="M323.51,-336.3C317.92,-303.63 298.1,-187.87 290.24,-141.96"/>
<polygon fill="midnightblue" stroke="midnightblue" points="293.66,-141.15 288.52,-131.88 286.76,-142.33 293.66,-141.15"/>
</g>
<!-- Node48&#45;&gt;Node5 -->
<g id="edge83" class="edge">
<title>Node48&#45;&gt;Node5</title>
<path fill="none" stroke="midnightblue" d="M584.98,-504.08C586.57,-496.93 588.86,-486.64 590.85,-477.69"/>
<polygon fill="midnightblue" stroke="midnightblue" points="594.3,-478.27 593.06,-467.75 587.47,-476.75 594.3,-478.27"/>
</g>
<!-- Node48&#45;&gt;Node47 -->
<g id="edge84" class="edge">
<title>Node48&#45;&gt;Node47</title>
<path fill="none" stroke="midnightblue" d="M569.49,-504.31C527.43,-477.25 398.55,-394.32 346.82,-361.04"/>
<polygon fill="midnightblue" stroke="midnightblue" points="348.68,-358.07 338.37,-355.61 344.89,-363.96 348.68,-358.07"/>
</g>
<!-- Node49&#45;&gt;Node3 -->
<g id="edge86" class="edge">
<title>Node49&#45;&gt;Node3</title>
<path fill="none" stroke="midnightblue" d="M478.67,-560.4C457.48,-550.55 429.41,-537.5 408.8,-527.92"/>
<polygon fill="midnightblue" stroke="midnightblue" points="410.17,-524.7 399.63,-523.66 407.22,-531.05 410.17,-524.7"/>
</g>
</g>
</svg>
