<?xml version="1.0" encoding="UTF-8" standalone="no"?>
<!DOCTYPE svg PUBLIC "-//W3C//DTD SVG 1.1//EN"
 "http://www.w3.org/Graphics/SVG/1.1/DTD/svg11.dtd">
<!-- Generated by graphviz version 2.43.0 (0)
 -->
<!-- Title: /home/runner/work/thorin2/thorin2/thorin/pass/rw/scalarize.cpp Pages: 1 -->
<svg width="1642pt" height="643pt"
 viewBox="0.00 0.00 1641.85 643.00" xmlns="http://www.w3.org/2000/svg" xmlns:xlink="http://www.w3.org/1999/xlink">
<g id="graph0" class="graph" transform="scale(1 1) rotate(0) translate(4 639)">
<title>/home/runner/work/thorin2/thorin2/thorin/pass/rw/scalarize.cpp</title>
<!-- Node1 -->
<g id="node1" class="node">
<title>Node1</title>
<g id="a_node1"><a xlink:title=" ">
<polygon fill="#bfbfbf" stroke="black" points="593.85,-593.5 593.85,-634.5 739.85,-634.5 739.85,-593.5 593.85,-593.5"/>
<text text-anchor="start" x="601.85" y="-622.5" font-family="Helvetica,sans-Serif" font-size="10.00">/home/runner/work/thorin2</text>
<text text-anchor="start" x="601.85" y="-611.5" font-family="Helvetica,sans-Serif" font-size="10.00">/thorin2/thorin/pass/rw</text>
<text text-anchor="middle" x="666.85" y="-600.5" font-family="Helvetica,sans-Serif" font-size="10.00">/scalarize.cpp</text>
</a>
</g>
</g>
<!-- Node2 -->
<g id="node2" class="node">
<title>Node2</title>
<g id="a_node2"><a xlink:href="scalarize_8h.html" target="_top" xlink:title=" ">
<polygon fill="none" stroke="black" points="417.35,-532 417.35,-551 558.35,-551 558.35,-532 417.35,-532"/>
<text text-anchor="middle" x="487.85" y="-539" font-family="Helvetica,sans-Serif" font-size="10.00">thorin/pass/rw/scalarize.h</text>
</a>
</g>
</g>
<!-- Node1&#45;&gt;Node2 -->
<g id="edge1" class="edge">
<title>Node1&#45;&gt;Node2</title>
<path fill="none" stroke="midnightblue" d="M616.98,-593.36C585.66,-581.02 546.22,-565.49 519.21,-554.85"/>
<polygon fill="midnightblue" stroke="midnightblue" points="520.45,-551.58 509.87,-551.17 517.89,-558.09 520.45,-551.58"/>
</g>
<!-- Node51 -->
<g id="node46" class="node">
<title>Node51</title>
<g id="a_node46"><a xlink:href="tuple_8h.html" target="_top" xlink:title=" ">
<polygon fill="none" stroke="black" points="867.85,-353 867.85,-372 949.85,-372 949.85,-353 867.85,-353"/>
<text text-anchor="middle" x="908.85" y="-360" font-family="Helvetica,sans-Serif" font-size="10.00">thorin/tuple.h</text>
</a>
</g>
</g>
<!-- Node1&#45;&gt;Node51 -->
<g id="edge80" class="edge">
<title>Node1&#45;&gt;Node51</title>
<path fill="none" stroke="midnightblue" d="M685.84,-593.42C732.2,-545.62 850.5,-423.66 893.19,-379.65"/>
<polygon fill="midnightblue" stroke="midnightblue" points="895.79,-381.99 900.24,-372.37 890.77,-377.11 895.79,-381.99"/>
</g>
<!-- Node53 -->
<g id="node48" class="node">
<title>Node53</title>
<g id="a_node48"><a xlink:href="rewrite_8h.html" target="_top" xlink:title=" ">
<polygon fill="none" stroke="black" points="660.85,-470.5 660.85,-489.5 752.85,-489.5 752.85,-470.5 660.85,-470.5"/>
<text text-anchor="middle" x="706.85" y="-477.5" font-family="Helvetica,sans-Serif" font-size="10.00">thorin/rewrite.h</text>
</a>
</g>
</g>
<!-- Node1&#45;&gt;Node53 -->
<g id="edge75" class="edge">
<title>Node1&#45;&gt;Node53</title>
<path fill="none" stroke="midnightblue" d="M674.78,-593.49C678.97,-582.82 684.02,-569.29 687.85,-557 693.9,-537.56 699.37,-514.88 702.87,-499.38"/>
<polygon fill="midnightblue" stroke="midnightblue" points="706.31,-500.04 705.05,-489.52 699.47,-498.53 706.31,-500.04"/>
</g>
<!-- Node55 -->
<g id="node50" class="node">
<title>Node55</title>
<g id="a_node50"><a xlink:href="eta__exp_8h.html" target="_top" xlink:title=" ">
<polygon fill="none" stroke="black" points="576.85,-526.5 576.85,-556.5 678.85,-556.5 678.85,-526.5 576.85,-526.5"/>
<text text-anchor="start" x="584.85" y="-544.5" font-family="Helvetica,sans-Serif" font-size="10.00">thorin/pass/fp/eta</text>
<text text-anchor="middle" x="627.85" y="-533.5" font-family="Helvetica,sans-Serif" font-size="10.00">_exp.h</text>
</a>
</g>
</g>
<!-- Node1&#45;&gt;Node55 -->
<g id="edge81" class="edge">
<title>Node1&#45;&gt;Node55</title>
<path fill="none" stroke="midnightblue" d="M655.98,-593.36C651.23,-584.77 645.62,-574.64 640.67,-565.68"/>
<polygon fill="midnightblue" stroke="midnightblue" points="643.71,-563.95 635.81,-556.89 637.59,-567.34 643.71,-563.95"/>
</g>
<!-- Node3 -->
<g id="node3" class="node">
<title>Node3</title>
<g id="a_node3"><a xlink:href="pass_8h.html" target="_top" xlink:title=" ">
<polygon fill="none" stroke="black" points="435.35,-470.5 435.35,-489.5 540.35,-489.5 540.35,-470.5 435.35,-470.5"/>
<text text-anchor="middle" x="487.85" y="-477.5" font-family="Helvetica,sans-Serif" font-size="10.00">thorin/pass/pass.h</text>
</a>
</g>
</g>
<!-- Node2&#45;&gt;Node3 -->
<g id="edge2" class="edge">
<title>Node2&#45;&gt;Node3</title>
<path fill="none" stroke="midnightblue" d="M487.85,-531.98C487.85,-523.58 487.85,-510.48 487.85,-499.66"/>
<polygon fill="midnightblue" stroke="midnightblue" points="491.35,-499.51 487.85,-489.51 484.35,-499.51 491.35,-499.51"/>
</g>
<!-- Node4 -->
<g id="node4" class="node">
<title>Node4</title>
<g id="a_node4"><a xlink:title=" ">
<polygon fill="none" stroke="#bfbfbf" points="565.35,-118 565.35,-137 608.35,-137 608.35,-118 565.35,-118"/>
<text text-anchor="middle" x="586.85" y="-125" font-family="Helvetica,sans-Serif" font-size="10.00">stack</text>
</a>
</g>
</g>
<!-- Node3&#45;&gt;Node4 -->
<g id="edge3" class="edge">
<title>Node3&#45;&gt;Node4</title>
<path fill="none" stroke="midnightblue" d="M435.15,-475.67C324.21,-467.44 72.48,-441.99 20.85,-378 12.19,-367.28 14.64,-359.3 20.85,-347 77.33,-234.92 131.52,-226.15 247.85,-179 359.63,-133.69 397.94,-163.25 516.85,-143 529.43,-140.86 543.2,-138.1 555.18,-135.56"/>
<polygon fill="midnightblue" stroke="midnightblue" points="556.13,-138.93 565.16,-133.41 554.65,-132.09 556.13,-138.93"/>
</g>
<!-- Node5 -->
<g id="node5" class="node">
<title>Node5</title>
<g id="a_node5"><a xlink:href="world_8h.html" target="_top" xlink:title=" ">
<polygon fill="none" stroke="black" points="445.85,-414.5 445.85,-433.5 529.85,-433.5 529.85,-414.5 445.85,-414.5"/>
<text text-anchor="middle" x="487.85" y="-421.5" font-family="Helvetica,sans-Serif" font-size="10.00">thorin/world.h</text>
</a>
</g>
</g>
<!-- Node3&#45;&gt;Node5 -->
<g id="edge4" class="edge">
<title>Node3&#45;&gt;Node5</title>
<path fill="none" stroke="midnightblue" d="M487.85,-470.08C487.85,-463.01 487.85,-452.86 487.85,-443.99"/>
<polygon fill="midnightblue" stroke="midnightblue" points="491.35,-443.75 487.85,-433.75 484.35,-443.75 491.35,-443.75"/>
</g>
<!-- Node6 -->
<g id="node6" class="node">
<title>Node6</title>
<g id="a_node6"><a xlink:title=" ">
<polygon fill="none" stroke="#bfbfbf" points="86.85,-56.5 86.85,-75.5 142.85,-75.5 142.85,-56.5 86.85,-56.5"/>
<text text-anchor="middle" x="114.85" y="-63.5" font-family="Helvetica,sans-Serif" font-size="10.00">sstream</text>
</a>
</g>
</g>
<!-- Node5&#45;&gt;Node6 -->
<g id="edge5" class="edge">
<title>Node5&#45;&gt;Node6</title>
<path fill="none" stroke="midnightblue" d="M445.79,-421.68C337.03,-417.89 52.71,-405.44 20.85,-378 -5.54,-355.28 1.85,-336.82 1.85,-302 1.85,-302 1.85,-302 1.85,-188 1.85,-137.56 54.95,-99.41 88.35,-80.41"/>
<polygon fill="midnightblue" stroke="midnightblue" points="90.1,-83.44 97.19,-75.56 86.74,-77.3 90.1,-83.44"/>
</g>
<!-- Node7 -->
<g id="node7" class="node">
<title>Node7</title>
<g id="a_node7"><a xlink:title=" ">
<polygon fill="none" stroke="#bfbfbf" points="362.85,-56.5 362.85,-75.5 406.85,-75.5 406.85,-56.5 362.85,-56.5"/>
<text text-anchor="middle" x="384.85" y="-63.5" font-family="Helvetica,sans-Serif" font-size="10.00">string</text>
</a>
</g>
</g>
<!-- Node5&#45;&gt;Node7 -->
<g id="edge6" class="edge">
<title>Node5&#45;&gt;Node7</title>
<path fill="none" stroke="midnightblue" d="M445.83,-423.07C371.88,-422.19 223.23,-415.66 190.85,-378 106.4,-279.8 209.33,-193.67 309.85,-112 324.83,-99.83 343.43,-88.64 358.36,-80.47"/>
<polygon fill="midnightblue" stroke="midnightblue" points="360.39,-83.35 367.57,-75.56 357.1,-77.18 360.39,-83.35"/>
</g>
<!-- Node8 -->
<g id="node8" class="node">
<title>Node8</title>
<g id="a_node8"><a xlink:title=" ">
<polygon fill="none" stroke="#bfbfbf" points="435.35,-118 435.35,-137 508.35,-137 508.35,-118 435.35,-118"/>
<text text-anchor="middle" x="471.85" y="-125" font-family="Helvetica,sans-Serif" font-size="10.00">string_view</text>
</a>
</g>
</g>
<!-- Node5&#45;&gt;Node8 -->
<g id="edge7" class="edge">
<title>Node5&#45;&gt;Node8</title>
<path fill="none" stroke="midnightblue" d="M490.11,-414.13C498.26,-381.8 525.14,-270.28 517.85,-235 511.01,-201.95 493.41,-166.53 482.07,-146.01"/>
<polygon fill="midnightblue" stroke="midnightblue" points="485.06,-144.18 477.08,-137.21 478.97,-147.63 485.06,-144.18"/>
</g>
<!-- Node9 -->
<g id="node9" class="node">
<title>Node9</title>
<g id="a_node9"><a xlink:title=" ">
<polygon fill="none" stroke="#bfbfbf" points="659.85,-347.5 659.85,-377.5 773.85,-377.5 773.85,-347.5 659.85,-347.5"/>
<text text-anchor="start" x="667.85" y="-365.5" font-family="Helvetica,sans-Serif" font-size="10.00">absl/container/btree</text>
<text text-anchor="middle" x="716.85" y="-354.5" font-family="Helvetica,sans-Serif" font-size="10.00">_map.h</text>
</a>
</g>
</g>
<!-- Node5&#45;&gt;Node9 -->
<g id="edge8" class="edge">
<title>Node5&#45;&gt;Node9</title>
<path fill="none" stroke="midnightblue" d="M520.66,-414.48C555.08,-405.53 610.05,-391.25 653.06,-380.07"/>
<polygon fill="midnightblue" stroke="midnightblue" points="654.08,-383.43 662.87,-377.52 652.32,-376.65 654.08,-383.43"/>
</g>
<!-- Node10 -->
<g id="node10" class="node">
<title>Node10</title>
<g id="a_node10"><a xlink:title=" ">
<polygon fill="none" stroke="#bfbfbf" points="29.85,-347.5 29.85,-377.5 143.85,-377.5 143.85,-347.5 29.85,-347.5"/>
<text text-anchor="start" x="37.85" y="-365.5" font-family="Helvetica,sans-Serif" font-size="10.00">absl/container/btree</text>
<text text-anchor="middle" x="86.85" y="-354.5" font-family="Helvetica,sans-Serif" font-size="10.00">_set.h</text>
</a>
</g>
</g>
<!-- Node5&#45;&gt;Node10 -->
<g id="edge9" class="edge">
<title>Node5&#45;&gt;Node10</title>
<path fill="none" stroke="midnightblue" d="M445.78,-418.16C382.93,-410.74 260.88,-395.53 157.85,-378 156.59,-377.79 155.32,-377.57 154.05,-377.34"/>
<polygon fill="midnightblue" stroke="midnightblue" points="154.6,-373.89 144.14,-375.54 153.35,-380.77 154.6,-373.89"/>
</g>
<!-- Node11 -->
<g id="node11" class="node">
<title>Node11</title>
<g id="a_node11"><a xlink:href="axiom_8h.html" target="_top" xlink:title=" ">
<polygon fill="none" stroke="black" points="515.85,-353 515.85,-372 603.85,-372 603.85,-353 515.85,-353"/>
<text text-anchor="middle" x="559.85" y="-360" font-family="Helvetica,sans-Serif" font-size="10.00">thorin/axiom.h</text>
</a>
</g>
</g>
<!-- Node5&#45;&gt;Node11 -->
<g id="edge10" class="edge">
<title>Node5&#45;&gt;Node11</title>
<path fill="none" stroke="midnightblue" d="M498.16,-414.48C509.5,-405.11 527.92,-389.88 541.68,-378.51"/>
<polygon fill="midnightblue" stroke="midnightblue" points="544.07,-381.08 549.55,-372.01 539.61,-375.68 544.07,-381.08"/>
</g>
<!-- Node17 -->
<g id="node16" class="node">
<title>Node17</title>
<g id="a_node16"><a xlink:href="debug_8h.html" target="_top" xlink:title=" ">
<polygon fill="none" stroke="black" points="674.35,-179.5 674.35,-198.5 761.35,-198.5 761.35,-179.5 674.35,-179.5"/>
<text text-anchor="middle" x="717.85" y="-186.5" font-family="Helvetica,sans-Serif" font-size="10.00">thorin/debug.h</text>
</a>
</g>
</g>
<!-- Node5&#45;&gt;Node17 -->
<g id="edge60" class="edge">
<title>Node5&#45;&gt;Node17</title>
<path fill="none" stroke="midnightblue" d="M529.9,-415.7C556.13,-409.39 589.28,-397.99 612.85,-378 641.76,-353.48 690.76,-249.81 709.88,-207.8"/>
<polygon fill="midnightblue" stroke="midnightblue" points="713.14,-209.08 714.06,-198.53 706.76,-206.2 713.14,-209.08"/>
</g>
<!-- Node45 -->
<g id="node40" class="node">
<title>Node45</title>
<g id="a_node40"><a xlink:href="hash_8h.html" target="_top" xlink:title=" ">
<polygon fill="none" stroke="black" points="1468.35,-118 1468.35,-137 1567.35,-137 1567.35,-118 1468.35,-118"/>
<text text-anchor="middle" x="1517.85" y="-125" font-family="Helvetica,sans-Serif" font-size="10.00">thorin/util/hash.h</text>
</a>
</g>
</g>
<!-- Node5&#45;&gt;Node45 -->
<g id="edge71" class="edge">
<title>Node5&#45;&gt;Node45</title>
<path fill="none" stroke="midnightblue" d="M529.99,-423.06C736.75,-422.83 1633.85,-415.29 1633.85,-302 1633.85,-302 1633.85,-302 1633.85,-244 1633.85,-194.9 1581.02,-159.47 1546.66,-141.62"/>
<polygon fill="midnightblue" stroke="midnightblue" points="1548.03,-138.39 1537.52,-137.06 1544.91,-144.66 1548.03,-138.39"/>
</g>
<!-- Node46 -->
<g id="node41" class="node">
<title>Node46</title>
<g id="a_node41"><a xlink:title=" ">
<polygon fill="none" stroke="#bfbfbf" points="199.85,-353 199.85,-372 285.85,-372 285.85,-353 199.85,-353"/>
<text text-anchor="middle" x="242.85" y="-360" font-family="Helvetica,sans-Serif" font-size="10.00">thorin/config.h</text>
</a>
</g>
</g>
<!-- Node5&#45;&gt;Node46 -->
<g id="edge59" class="edge">
<title>Node5&#45;&gt;Node46</title>
<path fill="none" stroke="midnightblue" d="M448.91,-414.44C409.85,-405.72 348.01,-391.6 294.85,-378 290.76,-376.95 286.5,-375.83 282.26,-374.68"/>
<polygon fill="midnightblue" stroke="midnightblue" points="283.06,-371.27 272.49,-372 281.2,-378.02 283.06,-371.27"/>
</g>
<!-- Node47 -->
<g id="node42" class="node">
<title>Node47</title>
<g id="a_node42"><a xlink:href="error_8h.html" target="_top" xlink:title=" ">
<polygon fill="none" stroke="black" points="281.85,-235.5 281.85,-254.5 361.85,-254.5 361.85,-235.5 281.85,-235.5"/>
<text text-anchor="middle" x="321.85" y="-242.5" font-family="Helvetica,sans-Serif" font-size="10.00">thorin/error.h</text>
</a>
</g>
</g>
<!-- Node5&#45;&gt;Node47 -->
<g id="edge61" class="edge">
<title>Node5&#45;&gt;Node47</title>
<path fill="none" stroke="midnightblue" d="M479.84,-414.46C453.83,-386.73 371.41,-298.85 337.08,-262.24"/>
<polygon fill="midnightblue" stroke="midnightblue" points="339.56,-259.77 330.16,-254.87 334.45,-264.56 339.56,-259.77"/>
</g>
<!-- Node49 -->
<g id="node44" class="node">
<title>Node49</title>
<g id="a_node44"><a xlink:href="flags_8h.html" target="_top" xlink:title=" ">
<polygon fill="none" stroke="black" points="303.85,-353 303.85,-372 383.85,-372 383.85,-353 303.85,-353"/>
<text text-anchor="middle" x="343.85" y="-360" font-family="Helvetica,sans-Serif" font-size="10.00">thorin/flags.h</text>
</a>
</g>
</g>
<!-- Node5&#45;&gt;Node49 -->
<g id="edge66" class="edge">
<title>Node5&#45;&gt;Node49</title>
<path fill="none" stroke="midnightblue" d="M467.21,-414.48C442.73,-404.36 401.7,-387.4 373.74,-375.85"/>
<polygon fill="midnightblue" stroke="midnightblue" points="375.02,-372.59 364.44,-372.01 372.34,-379.06 375.02,-372.59"/>
</g>
<!-- Node50 -->
<g id="node45" class="node">
<title>Node50</title>
<g id="a_node45"><a xlink:href="lattice_8h.html" target="_top" xlink:title=" ">
<polygon fill="none" stroke="black" points="685.85,-291.5 685.85,-310.5 773.85,-310.5 773.85,-291.5 685.85,-291.5"/>
<text text-anchor="middle" x="729.85" y="-298.5" font-family="Helvetica,sans-Serif" font-size="10.00">thorin/lattice.h</text>
</a>
</g>
</g>
<!-- Node5&#45;&gt;Node50 -->
<g id="edge67" class="edge">
<title>Node5&#45;&gt;Node50</title>
<path fill="none" stroke="midnightblue" d="M529.87,-423.02C603.42,-422.06 750.73,-415.38 782.85,-378 791.82,-367.55 788.63,-359.5 782.85,-347 776.93,-334.21 765.38,-323.72 754.57,-316.1"/>
<polygon fill="midnightblue" stroke="midnightblue" points="756.46,-313.16 746.18,-310.61 752.63,-319.02 756.46,-313.16"/>
</g>
<!-- Node5&#45;&gt;Node51 -->
<g id="edge69" class="edge">
<title>Node5&#45;&gt;Node51</title>
<path fill="none" stroke="midnightblue" d="M530.08,-417.46C592.57,-409.2 713.34,-393.02 815.85,-378 829.37,-376.02 843.99,-373.78 857.55,-371.67"/>
<polygon fill="midnightblue" stroke="midnightblue" points="858.33,-375.09 867.67,-370.09 857.25,-368.18 858.33,-375.09"/>
</g>
<!-- Node52 -->
<g id="node47" class="node">
<title>Node52</title>
<g id="a_node47"><a xlink:href="log_8h.html" target="_top" xlink:title=" ">
<polygon fill="none" stroke="black" points="418.35,-235.5 418.35,-254.5 509.35,-254.5 509.35,-235.5 418.35,-235.5"/>
<text text-anchor="middle" x="463.85" y="-242.5" font-family="Helvetica,sans-Serif" font-size="10.00">thorin/util/log.h</text>
</a>
</g>
</g>
<!-- Node5&#45;&gt;Node52 -->
<g id="edge72" class="edge">
<title>Node5&#45;&gt;Node52</title>
<path fill="none" stroke="midnightblue" d="M484.45,-414.19C481.16,-405.22 476.3,-390.86 473.85,-378 466.26,-338.26 464.38,-290.76 463.94,-264.96"/>
<polygon fill="midnightblue" stroke="midnightblue" points="467.44,-264.7 463.83,-254.74 460.44,-264.78 467.44,-264.7"/>
</g>
<!-- Node12 -->
<g id="node12" class="node">
<title>Node12</title>
<g id="a_node12"><a xlink:href="lam_8h.html" target="_top" xlink:title=" ">
<polygon fill="none" stroke="red" points="553.85,-291.5 553.85,-310.5 629.85,-310.5 629.85,-291.5 553.85,-291.5"/>
<text text-anchor="middle" x="591.85" y="-298.5" font-family="Helvetica,sans-Serif" font-size="10.00">thorin/lam.h</text>
</a>
</g>
</g>
<!-- Node11&#45;&gt;Node12 -->
<g id="edge11" class="edge">
<title>Node11&#45;&gt;Node12</title>
<path fill="none" stroke="midnightblue" d="M564.43,-352.98C569.09,-344.32 576.44,-330.65 582.36,-319.65"/>
<polygon fill="midnightblue" stroke="midnightblue" points="585.62,-320.97 587.27,-310.51 579.45,-317.66 585.62,-320.97"/>
</g>
<!-- Node26 -->
<g id="node25" class="node">
<title>Node26</title>
<g id="a_node25"><a xlink:href="assert_8h.html" target="_top" xlink:title=" ">
<polygon fill="none" stroke="black" points="160.85,-56.5 160.85,-75.5 266.85,-75.5 266.85,-56.5 160.85,-56.5"/>
<text text-anchor="middle" x="213.85" y="-63.5" font-family="Helvetica,sans-Serif" font-size="10.00">thorin/util/assert.h</text>
</a>
</g>
</g>
<!-- Node11&#45;&gt;Node26 -->
<g id="edge58" class="edge">
<title>Node11&#45;&gt;Node26</title>
<path fill="none" stroke="midnightblue" d="M545.99,-352.78C518.75,-335.43 456.71,-294.77 408.85,-255 371.62,-224.07 365.66,-212.62 330.85,-179 295.18,-144.55 253.13,-104.42 230.42,-82.78"/>
<polygon fill="midnightblue" stroke="midnightblue" points="232.63,-80.05 222.97,-75.69 227.8,-85.12 232.63,-80.05"/>
</g>
<!-- Node14 -->
<g id="node13" class="node">
<title>Node14</title>
<g id="a_node13"><a xlink:href="def_8h.html" target="_top" xlink:title=" ">
<polygon fill="none" stroke="black" points="821.85,-235.5 821.85,-254.5 893.85,-254.5 893.85,-235.5 821.85,-235.5"/>
<text text-anchor="middle" x="857.85" y="-242.5" font-family="Helvetica,sans-Serif" font-size="10.00">thorin/def.h</text>
</a>
</g>
</g>
<!-- Node12&#45;&gt;Node14 -->
<g id="edge12" class="edge">
<title>Node12&#45;&gt;Node14</title>
<path fill="none" stroke="midnightblue" d="M629.96,-292.26C677.9,-282.53 760.17,-265.83 811.65,-255.38"/>
<polygon fill="midnightblue" stroke="midnightblue" points="812.41,-258.8 821.51,-253.38 811.02,-251.94 812.41,-258.8"/>
</g>
<!-- Node15 -->
<g id="node14" class="node">
<title>Node15</title>
<g id="a_node14"><a xlink:title=" ">
<polygon fill="none" stroke="#bfbfbf" points="779.85,-179.5 779.85,-198.5 835.85,-198.5 835.85,-179.5 779.85,-179.5"/>
<text text-anchor="middle" x="807.85" y="-186.5" font-family="Helvetica,sans-Serif" font-size="10.00">optional</text>
</a>
</g>
</g>
<!-- Node14&#45;&gt;Node15 -->
<g id="edge13" class="edge">
<title>Node14&#45;&gt;Node15</title>
<path fill="none" stroke="midnightblue" d="M849.59,-235.08C842.38,-227.3 831.74,-215.8 823,-206.37"/>
<polygon fill="midnightblue" stroke="midnightblue" points="825.31,-203.71 815.95,-198.75 820.17,-208.47 825.31,-203.71"/>
</g>
<!-- Node16 -->
<g id="node15" class="node">
<title>Node16</title>
<g id="a_node15"><a xlink:title=" ">
<polygon fill="none" stroke="#bfbfbf" points="1123.35,-56.5 1123.35,-75.5 1170.35,-75.5 1170.35,-56.5 1123.35,-56.5"/>
<text text-anchor="middle" x="1146.85" y="-63.5" font-family="Helvetica,sans-Serif" font-size="10.00">vector</text>
</a>
</g>
</g>
<!-- Node14&#45;&gt;Node16 -->
<g id="edge14" class="edge">
<title>Node14&#45;&gt;Node16</title>
<path fill="none" stroke="midnightblue" d="M893.87,-241.73C1033.35,-232.56 1532.42,-196.23 1576.85,-143 1585.67,-132.42 1586.14,-122.17 1576.85,-112 1548.49,-80.96 1255.54,-83.49 1180.61,-75.39"/>
<polygon fill="midnightblue" stroke="midnightblue" points="1180.91,-71.9 1170.52,-73.99 1179.95,-78.83 1180.91,-71.9"/>
</g>
<!-- Node14&#45;&gt;Node17 -->
<g id="edge15" class="edge">
<title>Node14&#45;&gt;Node17</title>
<path fill="none" stroke="midnightblue" d="M835.66,-235.44C812.42,-226.48 775.7,-212.31 749.43,-202.18"/>
<polygon fill="midnightblue" stroke="midnightblue" points="750.51,-198.85 739.93,-198.52 748,-205.38 750.51,-198.85"/>
</g>
<!-- Node20 -->
<g id="node19" class="node">
<title>Node20</title>
<g id="a_node19"><a xlink:href="tables_8h.html" target="_top" xlink:title=" ">
<polygon fill="none" stroke="black" points="569.35,-179.5 569.35,-198.5 656.35,-198.5 656.35,-179.5 569.35,-179.5"/>
<text text-anchor="middle" x="612.85" y="-186.5" font-family="Helvetica,sans-Serif" font-size="10.00">thorin/tables.h</text>
</a>
</g>
</g>
<!-- Node14&#45;&gt;Node20 -->
<g id="edge19" class="edge">
<title>Node14&#45;&gt;Node20</title>
<path fill="none" stroke="midnightblue" d="M821.7,-236.03C779.28,-226.68 708.78,-211.14 661.57,-200.74"/>
<polygon fill="midnightblue" stroke="midnightblue" points="662.09,-197.27 651.57,-198.54 660.59,-204.11 662.09,-197.27"/>
</g>
<!-- Node21 -->
<g id="node20" class="node">
<title>Node21</title>
<g id="a_node20"><a xlink:href="print_8h.html" target="_top" xlink:title=" ">
<polygon fill="none" stroke="black" points="318.85,-118 318.85,-137 416.85,-137 416.85,-118 318.85,-118"/>
<text text-anchor="middle" x="367.85" y="-125" font-family="Helvetica,sans-Serif" font-size="10.00">thorin/util/print.h</text>
</a>
</g>
</g>
<!-- Node14&#45;&gt;Node21 -->
<g id="edge57" class="edge">
<title>Node14&#45;&gt;Node21</title>
<path fill="none" stroke="midnightblue" d="M821.6,-240.91C765.02,-235.55 652.6,-222.77 559.85,-199 500.42,-183.77 433.76,-156.99 396.7,-141.18"/>
<polygon fill="midnightblue" stroke="midnightblue" points="397.63,-137.77 387.06,-137.04 394.86,-144.2 397.63,-137.77"/>
</g>
<!-- Node34 -->
<g id="node29" class="node">
<title>Node34</title>
<g id="a_node29"><a xlink:href="array_8h.html" target="_top" xlink:title=" ">
<polygon fill="none" stroke="black" points="740.85,-118 740.85,-137 840.85,-137 840.85,-118 740.85,-118"/>
<text text-anchor="middle" x="790.85" y="-125" font-family="Helvetica,sans-Serif" font-size="10.00">thorin/util/array.h</text>
</a>
</g>
</g>
<!-- Node14&#45;&gt;Node34 -->
<g id="edge33" class="edge">
<title>Node14&#45;&gt;Node34</title>
<path fill="none" stroke="midnightblue" d="M864.89,-235.08C874.25,-222.07 888.45,-197.42 877.85,-179 867.55,-161.12 848.23,-148.99 830.41,-141.11"/>
<polygon fill="midnightblue" stroke="midnightblue" points="831.31,-137.7 820.73,-137.16 828.67,-144.18 831.31,-137.7"/>
</g>
<!-- Node40 -->
<g id="node35" class="node">
<title>Node40</title>
<g id="a_node35"><a xlink:href="cast_8h.html" target="_top" xlink:title=" ">
<polygon fill="none" stroke="black" points="626.85,-118 626.85,-137 722.85,-137 722.85,-118 626.85,-118"/>
<text text-anchor="middle" x="674.85" y="-125" font-family="Helvetica,sans-Serif" font-size="10.00">thorin/util/cast.h</text>
</a>
</g>
</g>
<!-- Node14&#45;&gt;Node40 -->
<g id="edge44" class="edge">
<title>Node14&#45;&gt;Node40</title>
<path fill="none" stroke="midnightblue" d="M858.73,-235.18C859.59,-221.38 859.12,-194.64 844.85,-179 840.39,-174.12 765.46,-153.07 716.58,-139.74"/>
<polygon fill="midnightblue" stroke="midnightblue" points="717.45,-136.35 706.88,-137.1 715.61,-143.1 717.45,-136.35"/>
</g>
<!-- Node41 -->
<g id="node36" class="node">
<title>Node41</title>
<g id="a_node36"><a xlink:href="container_8h.html" target="_top" xlink:title=" ">
<polygon fill="none" stroke="black" points="1073.35,-179.5 1073.35,-198.5 1194.35,-198.5 1194.35,-179.5 1073.35,-179.5"/>
<text text-anchor="middle" x="1133.85" y="-186.5" font-family="Helvetica,sans-Serif" font-size="10.00">thorin/util/container.h</text>
</a>
</g>
</g>
<!-- Node14&#45;&gt;Node41 -->
<g id="edge47" class="edge">
<title>Node14&#45;&gt;Node41</title>
<path fill="none" stroke="midnightblue" d="M893.93,-236.94C941.39,-227.66 1025.18,-211.26 1080.11,-200.51"/>
<polygon fill="midnightblue" stroke="midnightblue" points="1080.87,-203.93 1090.01,-198.58 1079.53,-197.06 1080.87,-203.93"/>
</g>
<!-- Node14&#45;&gt;Node45 -->
<g id="edge56" class="edge">
<title>Node14&#45;&gt;Node45</title>
<path fill="none" stroke="midnightblue" d="M893.86,-240.35C956.93,-233.72 1091.35,-218.58 1203.85,-199 1318.59,-179.03 1346.45,-169.57 1459.85,-143 1464.59,-141.89 1469.54,-140.7 1474.46,-139.5"/>
<polygon fill="midnightblue" stroke="midnightblue" points="1475.59,-142.82 1484.46,-137.03 1473.91,-136.03 1475.59,-142.82"/>
</g>
<!-- Node17&#45;&gt;Node7 -->
<g id="edge16" class="edge">
<title>Node17&#45;&gt;Node7</title>
<path fill="none" stroke="midnightblue" d="M674.16,-180.79C640.52,-174.1 593.56,-162.22 555.85,-143 536.12,-132.95 536.28,-122.62 516.85,-112 484.82,-94.5 444.74,-82.01 417.2,-74.69"/>
<polygon fill="midnightblue" stroke="midnightblue" points="417.86,-71.25 407.3,-72.14 416.11,-78.03 417.86,-71.25"/>
</g>
<!-- Node18 -->
<g id="node17" class="node">
<title>Node18</title>
<g id="a_node17"><a xlink:title=" ">
<polygon fill="none" stroke="#bfbfbf" points="896.85,-112.5 896.85,-142.5 1000.85,-142.5 1000.85,-112.5 896.85,-112.5"/>
<text text-anchor="start" x="904.85" y="-130.5" font-family="Helvetica,sans-Serif" font-size="10.00">absl/container/flat</text>
<text text-anchor="middle" x="948.85" y="-119.5" font-family="Helvetica,sans-Serif" font-size="10.00">_hash_map.h</text>
</a>
</g>
</g>
<!-- Node17&#45;&gt;Node18 -->
<g id="edge17" class="edge">
<title>Node17&#45;&gt;Node18</title>
<path fill="none" stroke="midnightblue" d="M750.94,-179.48C786.24,-170.38 842.97,-155.77 886.66,-144.52"/>
<polygon fill="midnightblue" stroke="midnightblue" points="887.8,-147.84 896.62,-141.95 886.06,-141.06 887.8,-147.84"/>
</g>
<!-- Node19 -->
<g id="node18" class="node">
<title>Node19</title>
<g id="a_node18"><a xlink:title=" ">
<polygon fill="none" stroke="#bfbfbf" points="1018.85,-112.5 1018.85,-142.5 1122.85,-142.5 1122.85,-112.5 1018.85,-112.5"/>
<text text-anchor="start" x="1026.85" y="-130.5" font-family="Helvetica,sans-Serif" font-size="10.00">absl/container/flat</text>
<text text-anchor="middle" x="1070.85" y="-119.5" font-family="Helvetica,sans-Serif" font-size="10.00">_hash_set.h</text>
</a>
</g>
</g>
<!-- Node17&#45;&gt;Node19 -->
<g id="edge18" class="edge">
<title>Node17&#45;&gt;Node19</title>
<path fill="none" stroke="midnightblue" d="M761.51,-180.52C764.67,-180 767.8,-179.49 770.85,-179 873.81,-162.51 902.71,-163.37 1008.84,-143.1"/>
<polygon fill="midnightblue" stroke="midnightblue" points="1009.51,-146.54 1018.66,-141.21 1008.18,-139.66 1009.51,-146.54"/>
</g>
<!-- Node20&#45;&gt;Node8 -->
<g id="edge20" class="edge">
<title>Node20&#45;&gt;Node8</title>
<path fill="none" stroke="midnightblue" d="M592.64,-179.48C568.77,-169.4 528.84,-152.55 501.47,-141"/>
<polygon fill="midnightblue" stroke="midnightblue" points="502.58,-137.67 492.01,-137.01 499.86,-144.12 502.58,-137.67"/>
</g>
<!-- Node20&#45;&gt;Node21 -->
<g id="edge21" class="edge">
<title>Node20&#45;&gt;Node21</title>
<path fill="none" stroke="midnightblue" d="M576.97,-179.47C539.31,-170.49 478.38,-155.89 425.85,-143 421.24,-141.87 416.42,-140.68 411.63,-139.49"/>
<polygon fill="midnightblue" stroke="midnightblue" points="412.43,-136.08 401.88,-137.06 410.73,-142.87 412.43,-136.08"/>
</g>
<!-- Node28 -->
<g id="node27" class="node">
<title>Node28</title>
<g id="a_node27"><a xlink:href="types_8h.html" target="_top" xlink:title=" ">
<polygon fill="none" stroke="red" points="1188.35,-56.5 1188.35,-75.5 1291.35,-75.5 1291.35,-56.5 1188.35,-56.5"/>
<text text-anchor="middle" x="1239.85" y="-63.5" font-family="Helvetica,sans-Serif" font-size="10.00">thorin/util/types.h</text>
</a>
</g>
</g>
<!-- Node20&#45;&gt;Node28 -->
<g id="edge30" class="edge">
<title>Node20&#45;&gt;Node28</title>
<path fill="none" stroke="midnightblue" d="M656.47,-180.29C722.5,-168.54 841.11,-147.07 849.85,-143 869.6,-133.8 867.8,-120.56 887.85,-112 1005.17,-61.91 1048.18,-92.14 1178.22,-76.13"/>
<polygon fill="midnightblue" stroke="midnightblue" points="1178.68,-79.6 1188.15,-74.84 1177.78,-72.66 1178.68,-79.6"/>
</g>
<!-- Node21&#45;&gt;Node6 -->
<g id="edge26" class="edge">
<title>Node21&#45;&gt;Node6</title>
<path fill="none" stroke="midnightblue" d="M330.75,-117.93C289.72,-108.43 221.38,-92.54 153.18,-76.3"/>
<polygon fill="midnightblue" stroke="midnightblue" points="153.66,-72.82 143.12,-73.91 152.04,-79.63 153.66,-72.82"/>
</g>
<!-- Node21&#45;&gt;Node7 -->
<g id="edge27" class="edge">
<title>Node21&#45;&gt;Node7</title>
<path fill="none" stroke="midnightblue" d="M370.28,-117.98C372.71,-109.49 376.5,-96.2 379.61,-85.32"/>
<polygon fill="midnightblue" stroke="midnightblue" points="383.03,-86.09 382.41,-75.51 376.3,-84.16 383.03,-86.09"/>
</g>
<!-- Node22 -->
<g id="node21" class="node">
<title>Node22</title>
<g id="a_node21"><a xlink:title=" ">
<polygon fill="none" stroke="#bfbfbf" points="531.35,-56.5 531.35,-75.5 596.35,-75.5 596.35,-56.5 531.35,-56.5"/>
<text text-anchor="middle" x="563.85" y="-63.5" font-family="Helvetica,sans-Serif" font-size="10.00">functional</text>
</a>
</g>
</g>
<!-- Node21&#45;&gt;Node22 -->
<g id="edge22" class="edge">
<title>Node21&#45;&gt;Node22</title>
<path fill="none" stroke="midnightblue" d="M395.93,-117.98C430.13,-107.59 488.04,-90.01 526.12,-78.45"/>
<polygon fill="midnightblue" stroke="midnightblue" points="527.26,-81.76 535.82,-75.51 525.23,-75.06 527.26,-81.76"/>
</g>
<!-- Node23 -->
<g id="node22" class="node">
<title>Node23</title>
<g id="a_node22"><a xlink:title=" ">
<polygon fill="none" stroke="#bfbfbf" points="284.85,-56.5 284.85,-75.5 344.85,-75.5 344.85,-56.5 284.85,-56.5"/>
<text text-anchor="middle" x="314.85" y="-63.5" font-family="Helvetica,sans-Serif" font-size="10.00">iostream</text>
</a>
</g>
</g>
<!-- Node21&#45;&gt;Node23 -->
<g id="edge23" class="edge">
<title>Node21&#45;&gt;Node23</title>
<path fill="none" stroke="midnightblue" d="M360.25,-117.98C352.14,-108.87 339.11,-94.24 329.08,-82.98"/>
<polygon fill="midnightblue" stroke="midnightblue" points="331.69,-80.65 322.43,-75.51 326.46,-85.3 331.69,-80.65"/>
</g>
<!-- Node24 -->
<g id="node23" class="node">
<title>Node24</title>
<g id="a_node23"><a xlink:title=" ">
<polygon fill="none" stroke="#bfbfbf" points="899.35,-0.5 899.35,-19.5 956.35,-19.5 956.35,-0.5 899.35,-0.5"/>
<text text-anchor="middle" x="927.85" y="-7.5" font-family="Helvetica,sans-Serif" font-size="10.00">ostream</text>
</a>
</g>
</g>
<!-- Node21&#45;&gt;Node24 -->
<g id="edge24" class="edge">
<title>Node21&#45;&gt;Node24</title>
<path fill="none" stroke="midnightblue" d="M375.28,-117.64C388.98,-102.04 419.93,-69.97 453.85,-56 532.39,-23.65 790.3,-14.24 888.97,-11.79"/>
<polygon fill="midnightblue" stroke="midnightblue" points="889.19,-15.28 899.11,-11.54 889.03,-8.28 889.19,-15.28"/>
</g>
<!-- Node25 -->
<g id="node24" class="node">
<title>Node25</title>
<g id="a_node24"><a xlink:title=" ">
<polygon fill="none" stroke="#bfbfbf" points="462.85,-56.5 462.85,-75.5 512.85,-75.5 512.85,-56.5 462.85,-56.5"/>
<text text-anchor="middle" x="487.85" y="-63.5" font-family="Helvetica,sans-Serif" font-size="10.00">ranges</text>
</a>
</g>
</g>
<!-- Node21&#45;&gt;Node25 -->
<g id="edge25" class="edge">
<title>Node21&#45;&gt;Node25</title>
<path fill="none" stroke="midnightblue" d="M385.04,-117.98C405.09,-108.03 438.44,-91.49 461.71,-79.96"/>
<polygon fill="midnightblue" stroke="midnightblue" points="463.28,-83.09 470.68,-75.51 460.17,-76.82 463.28,-83.09"/>
</g>
<!-- Node21&#45;&gt;Node26 -->
<g id="edge28" class="edge">
<title>Node21&#45;&gt;Node26</title>
<path fill="none" stroke="midnightblue" d="M345.78,-117.98C319.48,-107.81 275.33,-90.76 245.42,-79.2"/>
<polygon fill="midnightblue" stroke="midnightblue" points="246.46,-75.85 235.87,-75.51 243.94,-82.38 246.46,-75.85"/>
</g>
<!-- Node27 -->
<g id="node26" class="node">
<title>Node27</title>
<g id="a_node26"><a xlink:title=" ">
<polygon fill="none" stroke="#bfbfbf" points="598.85,-0.5 598.85,-19.5 650.85,-19.5 650.85,-0.5 598.85,-0.5"/>
<text text-anchor="middle" x="624.85" y="-7.5" font-family="Helvetica,sans-Serif" font-size="10.00">cassert</text>
</a>
</g>
</g>
<!-- Node26&#45;&gt;Node27 -->
<g id="edge29" class="edge">
<title>Node26&#45;&gt;Node27</title>
<path fill="none" stroke="midnightblue" d="M266.94,-57.24C269.95,-56.81 272.94,-56.4 275.85,-56 389.71,-40.4 524.68,-23.43 588.26,-15.52"/>
<polygon fill="midnightblue" stroke="midnightblue" points="589.07,-18.95 598.56,-14.24 588.2,-12 589.07,-18.95"/>
</g>
<!-- Node28&#45;&gt;Node24 -->
<g id="edge31" class="edge">
<title>Node28&#45;&gt;Node24</title>
<path fill="none" stroke="midnightblue" d="M1190.41,-56.44C1128.29,-45.69 1023,-27.47 966.47,-17.68"/>
<polygon fill="midnightblue" stroke="midnightblue" points="966.95,-14.22 956.5,-15.96 965.76,-21.11 966.95,-14.22"/>
</g>
<!-- Node31 -->
<g id="node28" class="node">
<title>Node31</title>
<g id="a_node28"><a xlink:title=" ">
<polygon fill="none" stroke="#bfbfbf" points="1132.35,-0.5 1132.35,-19.5 1201.35,-19.5 1201.35,-0.5 1132.35,-0.5"/>
<text text-anchor="middle" x="1166.85" y="-7.5" font-family="Helvetica,sans-Serif" font-size="10.00">type_traits</text>
</a>
</g>
</g>
<!-- Node28&#45;&gt;Node31 -->
<g id="edge32" class="edge">
<title>Node28&#45;&gt;Node31</title>
<path fill="none" stroke="midnightblue" d="M1228.12,-56.32C1217.01,-48.11 1200.1,-35.6 1186.86,-25.81"/>
<polygon fill="midnightblue" stroke="midnightblue" points="1188.91,-22.97 1178.79,-19.83 1184.75,-28.59 1188.91,-22.97"/>
</g>
<!-- Node34&#45;&gt;Node16 -->
<g id="edge43" class="edge">
<title>Node34&#45;&gt;Node16</title>
<path fill="none" stroke="midnightblue" d="M826.28,-117.93C835.55,-115.83 845.55,-113.71 854.85,-112 966.98,-91.39 996.81,-97.16 1108.85,-76 1110.3,-75.72 1111.79,-75.43 1113.29,-75.12"/>
<polygon fill="midnightblue" stroke="midnightblue" points="1114.18,-78.51 1123.2,-72.95 1112.68,-71.67 1114.18,-78.51"/>
</g>
<!-- Node34&#45;&gt;Node22 -->
<g id="edge38" class="edge">
<title>Node34&#45;&gt;Node22</title>
<path fill="none" stroke="midnightblue" d="M758.32,-117.98C718.29,-107.48 650.21,-89.64 606.14,-78.09"/>
<polygon fill="midnightblue" stroke="midnightblue" points="606.87,-74.66 596.31,-75.51 605.09,-81.43 606.87,-74.66"/>
</g>
<!-- Node34&#45;&gt;Node25 -->
<g id="edge41" class="edge">
<title>Node34&#45;&gt;Node25</title>
<path fill="none" stroke="midnightblue" d="M757.86,-117.95C749.41,-115.89 740.31,-113.76 731.85,-112 642.22,-93.33 616.09,-95.93 522.88,-76.06"/>
<polygon fill="midnightblue" stroke="midnightblue" points="523.55,-72.63 513.04,-73.94 522.07,-79.47 523.55,-72.63"/>
</g>
<!-- Node34&#45;&gt;Node27 -->
<g id="edge34" class="edge">
<title>Node34&#45;&gt;Node27</title>
<path fill="none" stroke="midnightblue" d="M782.67,-117.92C768.95,-103.82 740.01,-75.39 711.85,-56 693.53,-43.39 671.22,-31.92 653.78,-23.71"/>
<polygon fill="midnightblue" stroke="midnightblue" points="655.2,-20.51 644.65,-19.51 652.27,-26.87 655.2,-20.51"/>
</g>
<!-- Node34&#45;&gt;Node31 -->
<g id="edge42" class="edge">
<title>Node34&#45;&gt;Node31</title>
<path fill="none" stroke="midnightblue" d="M826.64,-117.98C835.81,-115.91 845.68,-113.78 854.85,-112 952.53,-93 983.83,-113.91 1075.85,-76 1104.54,-64.18 1132.88,-41.78 1150.12,-26.62"/>
<polygon fill="midnightblue" stroke="midnightblue" points="1152.56,-29.13 1157.64,-19.84 1147.87,-23.93 1152.56,-29.13"/>
</g>
<!-- Node35 -->
<g id="node30" class="node">
<title>Node35</title>
<g id="a_node30"><a xlink:title=" ">
<polygon fill="none" stroke="#bfbfbf" points="1013.35,-56.5 1013.35,-75.5 1066.35,-75.5 1066.35,-56.5 1013.35,-56.5"/>
<text text-anchor="middle" x="1039.85" y="-63.5" font-family="Helvetica,sans-Serif" font-size="10.00">cstddef</text>
</a>
</g>
</g>
<!-- Node34&#45;&gt;Node35 -->
<g id="edge35" class="edge">
<title>Node34&#45;&gt;Node35</title>
<path fill="none" stroke="midnightblue" d="M828.01,-117.97C868.74,-108.56 936.24,-92.82 1003.23,-76.37"/>
<polygon fill="midnightblue" stroke="midnightblue" points="1004.23,-79.72 1013.11,-73.93 1002.56,-72.93 1004.23,-79.72"/>
</g>
<!-- Node36 -->
<g id="node31" class="node">
<title>Node36</title>
<g id="a_node31"><a xlink:title=" ">
<polygon fill="none" stroke="#bfbfbf" points="652.85,-56.5 652.85,-75.5 702.85,-75.5 702.85,-56.5 652.85,-56.5"/>
<text text-anchor="middle" x="677.85" y="-63.5" font-family="Helvetica,sans-Serif" font-size="10.00">cstring</text>
</a>
</g>
</g>
<!-- Node34&#45;&gt;Node36 -->
<g id="edge36" class="edge">
<title>Node34&#45;&gt;Node36</title>
<path fill="none" stroke="midnightblue" d="M774.66,-117.98C755.94,-108.12 724.92,-91.79 703.05,-80.27"/>
<polygon fill="midnightblue" stroke="midnightblue" points="704.48,-77.07 694.01,-75.51 701.22,-83.27 704.48,-77.07"/>
</g>
<!-- Node37 -->
<g id="node32" class="node">
<title>Node37</title>
<g id="a_node32"><a xlink:title=" ">
<polygon fill="none" stroke="#bfbfbf" points="758.85,-56.5 758.85,-75.5 822.85,-75.5 822.85,-56.5 758.85,-56.5"/>
<text text-anchor="middle" x="790.85" y="-63.5" font-family="Helvetica,sans-Serif" font-size="10.00">algorithm</text>
</a>
</g>
</g>
<!-- Node34&#45;&gt;Node37 -->
<g id="edge37" class="edge">
<title>Node34&#45;&gt;Node37</title>
<path fill="none" stroke="midnightblue" d="M790.85,-117.98C790.85,-109.58 790.85,-96.48 790.85,-85.66"/>
<polygon fill="midnightblue" stroke="midnightblue" points="794.35,-85.51 790.85,-75.51 787.35,-85.51 794.35,-85.51"/>
</g>
<!-- Node38 -->
<g id="node33" class="node">
<title>Node38</title>
<g id="a_node33"><a xlink:title=" ">
<polygon fill="none" stroke="#bfbfbf" points="841.35,-56.5 841.35,-75.5 924.35,-75.5 924.35,-56.5 841.35,-56.5"/>
<text text-anchor="middle" x="882.85" y="-63.5" font-family="Helvetica,sans-Serif" font-size="10.00">initializer_list</text>
</a>
</g>
</g>
<!-- Node34&#45;&gt;Node38 -->
<g id="edge39" class="edge">
<title>Node34&#45;&gt;Node38</title>
<path fill="none" stroke="midnightblue" d="M804.03,-117.98C818.92,-108.34 843.39,-92.52 861.12,-81.05"/>
<polygon fill="midnightblue" stroke="midnightblue" points="863.19,-83.88 869.69,-75.51 859.39,-78 863.19,-83.88"/>
</g>
<!-- Node39 -->
<g id="node34" class="node">
<title>Node39</title>
<g id="a_node34"><a xlink:title=" ">
<polygon fill="none" stroke="#bfbfbf" points="942.35,-56.5 942.35,-75.5 995.35,-75.5 995.35,-56.5 942.35,-56.5"/>
<text text-anchor="middle" x="968.85" y="-63.5" font-family="Helvetica,sans-Serif" font-size="10.00">iterator</text>
</a>
</g>
</g>
<!-- Node34&#45;&gt;Node39 -->
<g id="edge40" class="edge">
<title>Node34&#45;&gt;Node39</title>
<path fill="none" stroke="midnightblue" d="M816.35,-117.98C847.15,-107.68 899.11,-90.31 933.69,-78.75"/>
<polygon fill="midnightblue" stroke="midnightblue" points="935.02,-82 943.39,-75.51 932.8,-75.36 935.02,-82"/>
</g>
<!-- Node40&#45;&gt;Node27 -->
<g id="edge45" class="edge">
<title>Node40&#45;&gt;Node27</title>
<path fill="none" stroke="midnightblue" d="M668.61,-117.95C661.75,-108.21 650.77,-91.61 643.85,-76 637.14,-60.89 632.07,-42.76 628.86,-29.5"/>
<polygon fill="midnightblue" stroke="midnightblue" points="632.25,-28.63 626.61,-19.67 625.43,-30.2 632.25,-28.63"/>
</g>
<!-- Node40&#45;&gt;Node36 -->
<g id="edge46" class="edge">
<title>Node40&#45;&gt;Node36</title>
<path fill="none" stroke="midnightblue" d="M675.28,-117.98C675.7,-109.58 676.36,-96.48 676.9,-85.66"/>
<polygon fill="midnightblue" stroke="midnightblue" points="680.41,-85.67 677.42,-75.51 673.42,-85.32 680.41,-85.67"/>
</g>
<!-- Node41&#45;&gt;Node4 -->
<g id="edge49" class="edge">
<title>Node41&#45;&gt;Node4</title>
<path fill="none" stroke="midnightblue" d="M1072.99,-185.36C955.63,-179.83 702.2,-165.64 617.85,-143 615.91,-142.48 613.94,-141.85 611.99,-141.13"/>
<polygon fill="midnightblue" stroke="midnightblue" points="613.1,-137.81 602.53,-137.13 610.38,-144.25 613.1,-137.81"/>
</g>
<!-- Node41&#45;&gt;Node18 -->
<g id="edge50" class="edge">
<title>Node41&#45;&gt;Node18</title>
<path fill="none" stroke="midnightblue" d="M1107.34,-179.48C1080.06,-170.7 1036.8,-156.79 1002.36,-145.71"/>
<polygon fill="midnightblue" stroke="midnightblue" points="1003.04,-142.25 992.45,-142.52 1000.89,-148.92 1003.04,-142.25"/>
</g>
<!-- Node41&#45;&gt;Node19 -->
<g id="edge51" class="edge">
<title>Node41&#45;&gt;Node19</title>
<path fill="none" stroke="midnightblue" d="M1124.82,-179.48C1116.61,-171.72 1104.14,-159.94 1093.26,-149.66"/>
<polygon fill="midnightblue" stroke="midnightblue" points="1095.37,-146.84 1085.69,-142.52 1090.56,-151.93 1095.37,-146.84"/>
</g>
<!-- Node42 -->
<g id="node37" class="node">
<title>Node42</title>
<g id="a_node37"><a xlink:title=" ">
<polygon fill="none" stroke="#bfbfbf" points="1403.35,-118 1403.35,-137 1450.35,-137 1450.35,-118 1403.35,-118"/>
<text text-anchor="middle" x="1426.85" y="-125" font-family="Helvetica,sans-Serif" font-size="10.00">queue</text>
</a>
</g>
</g>
<!-- Node41&#45;&gt;Node42 -->
<g id="edge48" class="edge">
<title>Node41&#45;&gt;Node42</title>
<path fill="none" stroke="midnightblue" d="M1194.47,-181.98C1248.03,-175.62 1327.82,-163.59 1394.85,-143 1396.77,-142.41 1398.73,-141.73 1400.68,-140.99"/>
<polygon fill="midnightblue" stroke="midnightblue" points="1402.35,-144.09 1410.22,-137 1399.64,-137.64 1402.35,-144.09"/>
</g>
<!-- Node43 -->
<g id="node38" class="node">
<title>Node43</title>
<g id="a_node38"><a xlink:title=" ">
<polygon fill="none" stroke="#bfbfbf" points="1141.35,-112.5 1141.35,-142.5 1254.35,-142.5 1254.35,-112.5 1141.35,-112.5"/>
<text text-anchor="start" x="1149.35" y="-130.5" font-family="Helvetica,sans-Serif" font-size="10.00">absl/container/node</text>
<text text-anchor="middle" x="1197.85" y="-119.5" font-family="Helvetica,sans-Serif" font-size="10.00">_hash_map.h</text>
</a>
</g>
</g>
<!-- Node41&#45;&gt;Node43 -->
<g id="edge52" class="edge">
<title>Node41&#45;&gt;Node43</title>
<path fill="none" stroke="midnightblue" d="M1143.02,-179.48C1151.44,-171.64 1164.27,-159.71 1175.4,-149.37"/>
<polygon fill="midnightblue" stroke="midnightblue" points="1177.82,-151.9 1182.76,-142.52 1173.06,-146.77 1177.82,-151.9"/>
</g>
<!-- Node44 -->
<g id="node39" class="node">
<title>Node44</title>
<g id="a_node39"><a xlink:title=" ">
<polygon fill="none" stroke="#bfbfbf" points="1272.35,-112.5 1272.35,-142.5 1385.35,-142.5 1385.35,-112.5 1272.35,-112.5"/>
<text text-anchor="start" x="1280.35" y="-130.5" font-family="Helvetica,sans-Serif" font-size="10.00">absl/container/node</text>
<text text-anchor="middle" x="1328.85" y="-119.5" font-family="Helvetica,sans-Serif" font-size="10.00">_hash_set.h</text>
</a>
</g>
</g>
<!-- Node41&#45;&gt;Node44 -->
<g id="edge53" class="edge">
<title>Node41&#45;&gt;Node44</title>
<path fill="none" stroke="midnightblue" d="M1161.78,-179.48C1190.66,-170.66 1236.53,-156.67 1272.9,-145.57"/>
<polygon fill="midnightblue" stroke="midnightblue" points="1274.34,-148.79 1282.89,-142.52 1272.3,-142.09 1274.34,-148.79"/>
</g>
<!-- Node41&#45;&gt;Node45 -->
<g id="edge54" class="edge">
<title>Node41&#45;&gt;Node45</title>
<path fill="none" stroke="midnightblue" d="M1194.55,-181.6C1260.26,-174.22 1367.99,-160.77 1459.85,-143 1465.26,-141.95 1470.92,-140.72 1476.5,-139.41"/>
<polygon fill="midnightblue" stroke="midnightblue" points="1477.48,-142.78 1486.38,-137.02 1475.83,-135.97 1477.48,-142.78"/>
</g>
<!-- Node45&#45;&gt;Node28 -->
<g id="edge55" class="edge">
<title>Node45&#45;&gt;Node28</title>
<path fill="none" stroke="midnightblue" d="M1484.78,-117.97C1476.64,-115.95 1467.94,-113.84 1459.85,-112 1403.77,-99.26 1339.27,-86.26 1294.68,-77.53"/>
<polygon fill="midnightblue" stroke="midnightblue" points="1295.12,-74.05 1284.63,-75.57 1293.78,-80.92 1295.12,-74.05"/>
</g>
<!-- Node47&#45;&gt;Node6 -->
<g id="edge62" class="edge">
<title>Node47&#45;&gt;Node6</title>
<path fill="none" stroke="midnightblue" d="M305.25,-235.38C289.76,-227 266.32,-213.46 247.85,-199 200.45,-161.91 152.11,-109.5 128.93,-83.28"/>
<polygon fill="midnightblue" stroke="midnightblue" points="131.55,-80.95 122.32,-75.74 126.28,-85.56 131.55,-80.95"/>
</g>
<!-- Node47&#45;&gt;Node17 -->
<g id="edge64" class="edge">
<title>Node47&#45;&gt;Node17</title>
<path fill="none" stroke="midnightblue" d="M362.05,-239.23C424.37,-231.71 548.29,-216.34 664.09,-199.06"/>
<polygon fill="midnightblue" stroke="midnightblue" points="664.82,-202.49 674.19,-197.55 663.79,-195.57 664.82,-202.49"/>
</g>
<!-- Node47&#45;&gt;Node21 -->
<g id="edge65" class="edge">
<title>Node47&#45;&gt;Node21</title>
<path fill="none" stroke="midnightblue" d="M325.3,-235.32C332.76,-216.59 350.5,-172.05 360.56,-146.79"/>
<polygon fill="midnightblue" stroke="midnightblue" points="363.9,-147.87 364.35,-137.28 357.4,-145.28 363.9,-147.87"/>
</g>
<!-- Node48 -->
<g id="node43" class="node">
<title>Node48</title>
<g id="a_node43"><a xlink:title=" ">
<polygon fill="none" stroke="#bfbfbf" points="257.35,-179.5 257.35,-198.5 322.35,-198.5 322.35,-179.5 257.35,-179.5"/>
<text text-anchor="middle" x="289.85" y="-186.5" font-family="Helvetica,sans-Serif" font-size="10.00">stdexcept</text>
</a>
</g>
</g>
<!-- Node47&#45;&gt;Node48 -->
<g id="edge63" class="edge">
<title>Node47&#45;&gt;Node48</title>
<path fill="none" stroke="midnightblue" d="M316.56,-235.08C312.13,-227.61 305.68,-216.72 300.23,-207.52"/>
<polygon fill="midnightblue" stroke="midnightblue" points="303.14,-205.57 295.03,-198.75 297.12,-209.14 303.14,-205.57"/>
</g>
<!-- Node50&#45;&gt;Node14 -->
<g id="edge68" class="edge">
<title>Node50&#45;&gt;Node14</title>
<path fill="none" stroke="midnightblue" d="M750.13,-291.44C771.19,-282.56 804.36,-268.56 828.33,-258.45"/>
<polygon fill="midnightblue" stroke="midnightblue" points="829.81,-261.63 837.66,-254.52 827.08,-255.18 829.81,-261.63"/>
</g>
<!-- Node51&#45;&gt;Node14 -->
<g id="edge70" class="edge">
<title>Node51&#45;&gt;Node14</title>
<path fill="none" stroke="midnightblue" d="M916.25,-352.82C927.04,-339.07 944.57,-311.7 932.85,-291 924.5,-276.26 909.18,-265.82 894.56,-258.73"/>
<polygon fill="midnightblue" stroke="midnightblue" points="895.69,-255.4 885.13,-254.55 892.85,-261.8 895.69,-255.4"/>
</g>
<!-- Node52&#45;&gt;Node17 -->
<g id="edge73" class="edge">
<title>Node52&#45;&gt;Node17</title>
<path fill="none" stroke="midnightblue" d="M504.09,-235.44C548.5,-226 620,-210.8 667.93,-200.61"/>
<polygon fill="midnightblue" stroke="midnightblue" points="668.73,-204.02 677.79,-198.52 667.28,-197.17 668.73,-204.02"/>
</g>
<!-- Node52&#45;&gt;Node21 -->
<g id="edge74" class="edge">
<title>Node52&#45;&gt;Node21</title>
<path fill="none" stroke="midnightblue" d="M456.63,-235.32C440.72,-216.17 402.38,-170.04 381.67,-145.13"/>
<polygon fill="midnightblue" stroke="midnightblue" points="384.23,-142.74 375.15,-137.28 378.85,-147.21 384.23,-142.74"/>
</g>
<!-- Node53&#45;&gt;Node5 -->
<g id="edge76" class="edge">
<title>Node53&#45;&gt;Node5</title>
<path fill="none" stroke="midnightblue" d="M672.14,-470.44C634.26,-461.1 573.5,-446.12 532.18,-435.93"/>
<polygon fill="midnightblue" stroke="midnightblue" points="532.93,-432.51 522.38,-433.52 531.26,-439.31 532.93,-432.51"/>
</g>
<!-- Node54 -->
<g id="node49" class="node">
<title>Node54</title>
<g id="a_node49"><a xlink:href="scope_8h.html" target="_top" xlink:title=" ">
<polygon fill="none" stroke="black" points="791.85,-291.5 791.85,-310.5 923.85,-310.5 923.85,-291.5 791.85,-291.5"/>
<text text-anchor="middle" x="857.85" y="-298.5" font-family="Helvetica,sans-Serif" font-size="10.00">thorin/analyses/scope.h</text>
</a>
</g>
</g>
<!-- Node53&#45;&gt;Node54 -->
<g id="edge77" class="edge">
<title>Node53&#45;&gt;Node54</title>
<path fill="none" stroke="midnightblue" d="M715.34,-470.33C732.04,-453.16 770.13,-413.43 799.85,-378 816.43,-358.23 834.27,-334.44 845.71,-318.8"/>
<polygon fill="midnightblue" stroke="midnightblue" points="848.61,-320.78 851.66,-310.63 842.94,-316.66 848.61,-320.78"/>
</g>
<!-- Node54&#45;&gt;Node14 -->
<g id="edge78" class="edge">
<title>Node54&#45;&gt;Node14</title>
<path fill="none" stroke="midnightblue" d="M857.85,-291.08C857.85,-284.01 857.85,-273.86 857.85,-264.99"/>
<polygon fill="midnightblue" stroke="midnightblue" points="861.35,-264.75 857.85,-254.75 854.35,-264.75 861.35,-264.75"/>
</g>
<!-- Node54&#45;&gt;Node21 -->
<g id="edge79" class="edge">
<title>Node54&#45;&gt;Node21</title>
<path fill="none" stroke="midnightblue" d="M813.58,-291.49C743.56,-277.22 603.73,-245.4 491.85,-199 453.88,-183.26 413.02,-158.29 388.98,-142.68"/>
<polygon fill="midnightblue" stroke="midnightblue" points="390.62,-139.57 380.34,-137.01 386.78,-145.42 390.62,-139.57"/>
</g>
<!-- Node55&#45;&gt;Node3 -->
<g id="edge82" class="edge">
<title>Node55&#45;&gt;Node3</title>
<path fill="none" stroke="midnightblue" d="M594.67,-526.4C571.28,-516.46 540.23,-503.26 517.64,-493.66"/>
<polygon fill="midnightblue" stroke="midnightblue" points="518.79,-490.35 508.22,-489.66 516.05,-496.79 518.79,-490.35"/>
</g>
</g>
</svg>
