<?xml version="1.0" encoding="UTF-8" standalone="no"?>
<!DOCTYPE svg PUBLIC "-//W3C//DTD SVG 1.1//EN"
 "http://www.w3.org/Graphics/SVG/1.1/DTD/svg11.dtd">
<!-- Generated by graphviz version 2.43.0 (0)
 -->
<!-- Title: thorin/pass/rw/scalarize.h Pages: 1 -->
<svg width="650pt" height="84pt"
 viewBox="0.00 0.00 650.00 84.00" xmlns="http://www.w3.org/2000/svg" xmlns:xlink="http://www.w3.org/1999/xlink">
<g id="graph0" class="graph" transform="scale(1 1) rotate(0) translate(4 80)">
<title>thorin/pass/rw/scalarize.h</title>
<!-- Node1 -->
<g id="node1" class="node">
<title>Node1</title>
<g id="a_node1"><a xlink:title=" ">
<polygon fill="#bfbfbf" stroke="black" points="233.5,-56.5 233.5,-75.5 374.5,-75.5 374.5,-56.5 233.5,-56.5"/>
<text text-anchor="middle" x="304" y="-63.5" font-family="Helvetica,sans-Serif" font-size="10.00">thorin/pass/rw/scalarize.h</text>
</a>
</g>
</g>
<!-- Node2 -->
<g id="node2" class="node">
<title>Node2</title>
<g id="a_node2"><a xlink:href="mem_8cpp.html" target="_top" xlink:title=" ">
<polygon fill="none" stroke="black" points="0,-0.5 0,-19.5 132,-19.5 132,-0.5 0,-0.5"/>
<text text-anchor="middle" x="66" y="-7.5" font-family="Helvetica,sans-Serif" font-size="10.00">dialects/mem/mem.cpp</text>
</a>
</g>
</g>
<!-- Node1&#45;&gt;Node2 -->
<g id="edge1" class="edge">
<title>Node1&#45;&gt;Node2</title>
<path fill="none" stroke="midnightblue" d="M256.48,-54.22C211.5,-44.01 144.9,-28.9 103.54,-19.52"/>
<polygon fill="midnightblue" stroke="midnightblue" points="255.76,-57.64 266.29,-56.44 257.31,-50.82 255.76,-57.64"/>
</g>
<!-- Node3 -->
<g id="node3" class="node">
<title>Node3</title>
<g id="a_node3"><a xlink:href="optimize_8cpp.html" target="_top" xlink:title=" ">
<polygon fill="none" stroke="black" points="150.5,-0.5 150.5,-19.5 287.5,-19.5 287.5,-0.5 150.5,-0.5"/>
<text text-anchor="middle" x="219" y="-7.5" font-family="Helvetica,sans-Serif" font-size="10.00">thorin/pass/optimize.cpp</text>
</a>
</g>
</g>
<!-- Node1&#45;&gt;Node3 -->
<g id="edge2" class="edge">
<title>Node1&#45;&gt;Node3</title>
<path fill="none" stroke="midnightblue" d="M281.81,-50.9C266.22,-41 245.87,-28.07 232.62,-19.65"/>
<polygon fill="midnightblue" stroke="midnightblue" points="280.03,-53.92 290.34,-56.32 283.78,-48.01 280.03,-53.92"/>
</g>
<!-- Node4 -->
<g id="node4" class="node">
<title>Node4</title>
<g id="a_node4"><a xlink:href="pipelinebuilder_8cpp.html" target="_top" xlink:title=" ">
<polygon fill="none" stroke="black" points="306,-0.5 306,-19.5 472,-19.5 472,-0.5 306,-0.5"/>
<text text-anchor="middle" x="389" y="-7.5" font-family="Helvetica,sans-Serif" font-size="10.00">thorin/pass/pipelinebuilder.cpp</text>
</a>
</g>
</g>
<!-- Node1&#45;&gt;Node4 -->
<g id="edge3" class="edge">
<title>Node1&#45;&gt;Node4</title>
<path fill="none" stroke="midnightblue" d="M326.19,-50.9C341.78,-41 362.13,-28.07 375.38,-19.65"/>
<polygon fill="midnightblue" stroke="midnightblue" points="324.22,-48.01 317.66,-56.32 327.97,-53.92 324.22,-48.01"/>
</g>
<!-- Node5 -->
<g id="node5" class="node">
<title>Node5</title>
<g id="a_node5"><a xlink:href="scalarize_8cpp.html" target="_top" xlink:title=" ">
<polygon fill="none" stroke="black" points="490,-0.5 490,-19.5 642,-19.5 642,-0.5 490,-0.5"/>
<text text-anchor="middle" x="566" y="-7.5" font-family="Helvetica,sans-Serif" font-size="10.00">thorin/pass/rw/scalarize.cpp</text>
</a>
</g>
</g>
<!-- Node1&#45;&gt;Node5 -->
<g id="edge4" class="edge">
<title>Node1&#45;&gt;Node5</title>
<path fill="none" stroke="midnightblue" d="M355.38,-54.41C404.9,-44.2 478.86,-28.96 524.68,-19.52"/>
<polygon fill="midnightblue" stroke="midnightblue" points="354.6,-51 345.51,-56.44 356.02,-57.85 354.6,-51"/>
</g>
</g>
</svg>
