<?xml version="1.0" encoding="UTF-8" standalone="no"?>
<!DOCTYPE svg PUBLIC "-//W3C//DTD SVG 1.1//EN"
 "http://www.w3.org/Graphics/SVG/1.1/DTD/svg11.dtd">
<!-- Generated by graphviz version 2.43.0 (0)
 -->
<!-- Title: thorin/pass/rw/scalarize.h Pages: 1 -->
<svg width="1773pt" height="554pt"
 viewBox="0.00 0.00 1773.00 554.00" xmlns="http://www.w3.org/2000/svg" xmlns:xlink="http://www.w3.org/1999/xlink">
<g id="graph0" class="graph" transform="scale(1 1) rotate(0) translate(4 550)">
<title>thorin/pass/rw/scalarize.h</title>
<!-- Node1 -->
<g id="node1" class="node">
<title>Node1</title>
<g id="a_node1"><a xlink:title=" ">
<polygon fill="#bfbfbf" stroke="black" points="845.5,-526.5 845.5,-545.5 986.5,-545.5 986.5,-526.5 845.5,-526.5"/>
<text text-anchor="middle" x="916" y="-533.5" font-family="Helvetica,sans-Serif" font-size="10.00">thorin/pass/rw/scalarize.h</text>
</a>
</g>
</g>
<!-- Node2 -->
<g id="node2" class="node">
<title>Node2</title>
<g id="a_node2"><a xlink:href="pass_8h.html" target="_top" xlink:title=" ">
<polygon fill="none" stroke="black" points="863.5,-470.5 863.5,-489.5 968.5,-489.5 968.5,-470.5 863.5,-470.5"/>
<text text-anchor="middle" x="916" y="-477.5" font-family="Helvetica,sans-Serif" font-size="10.00">thorin/pass/pass.h</text>
</a>
</g>
</g>
<!-- Node1&#45;&gt;Node2 -->
<g id="edge1" class="edge">
<title>Node1&#45;&gt;Node2</title>
<path fill="none" stroke="midnightblue" d="M916,-526.08C916,-519.01 916,-508.86 916,-499.99"/>
<polygon fill="midnightblue" stroke="midnightblue" points="919.5,-499.75 916,-489.75 912.5,-499.75 919.5,-499.75"/>
</g>
<!-- Node3 -->
<g id="node3" class="node">
<title>Node3</title>
<g id="a_node3"><a xlink:title=" ">
<polygon fill="none" stroke="#bfbfbf" points="643.5,-118 643.5,-137 686.5,-137 686.5,-118 643.5,-118"/>
<text text-anchor="middle" x="665" y="-125" font-family="Helvetica,sans-Serif" font-size="10.00">stack</text>
</a>
</g>
</g>
<!-- Node2&#45;&gt;Node3 -->
<g id="edge2" class="edge">
<title>Node2&#45;&gt;Node3</title>
<path fill="none" stroke="midnightblue" d="M870.05,-470.46C788.74,-454.02 628,-415.01 628,-363.5 628,-363.5 628,-363.5 628,-244 628,-208.01 644.5,-168.59 655.46,-146.36"/>
<polygon fill="midnightblue" stroke="midnightblue" points="658.72,-147.68 660.16,-137.18 652.49,-144.48 658.72,-147.68"/>
</g>
<!-- Node4 -->
<g id="node4" class="node">
<title>Node4</title>
<g id="a_node4"><a xlink:title=" ">
<polygon fill="none" stroke="#bfbfbf" points="883.5,-414.5 883.5,-433.5 948.5,-433.5 948.5,-414.5 883.5,-414.5"/>
<text text-anchor="middle" x="916" y="-421.5" font-family="Helvetica,sans-Serif" font-size="10.00">typeindex</text>
</a>
</g>
</g>
<!-- Node2&#45;&gt;Node4 -->
<g id="edge3" class="edge">
<title>Node2&#45;&gt;Node4</title>
<path fill="none" stroke="midnightblue" d="M916,-470.08C916,-463.01 916,-452.86 916,-443.99"/>
<polygon fill="midnightblue" stroke="midnightblue" points="919.5,-443.75 916,-433.75 912.5,-443.75 919.5,-443.75"/>
</g>
<!-- Node5 -->
<g id="node5" class="node">
<title>Node5</title>
<g id="a_node5"><a xlink:href="world_8h.html" target="_top" xlink:title=" ">
<polygon fill="none" stroke="black" points="1195,-414.5 1195,-433.5 1279,-433.5 1279,-414.5 1195,-414.5"/>
<text text-anchor="middle" x="1237" y="-421.5" font-family="Helvetica,sans-Serif" font-size="10.00">thorin/world.h</text>
</a>
</g>
</g>
<!-- Node2&#45;&gt;Node5 -->
<g id="edge4" class="edge">
<title>Node2&#45;&gt;Node5</title>
<path fill="none" stroke="midnightblue" d="M966.86,-470.44C1026.36,-460.44 1124.35,-443.95 1184.53,-433.83"/>
<polygon fill="midnightblue" stroke="midnightblue" points="1185.29,-437.25 1194.58,-432.14 1184.13,-430.34 1185.29,-437.25"/>
</g>
<!-- Node6 -->
<g id="node6" class="node">
<title>Node6</title>
<g id="a_node6"><a xlink:title=" ">
<polygon fill="none" stroke="#bfbfbf" points="1671,-118 1671,-137 1727,-137 1727,-118 1671,-118"/>
<text text-anchor="middle" x="1699" y="-125" font-family="Helvetica,sans-Serif" font-size="10.00">sstream</text>
</a>
</g>
</g>
<!-- Node5&#45;&gt;Node6 -->
<g id="edge5" class="edge">
<title>Node5&#45;&gt;Node6</title>
<path fill="none" stroke="midnightblue" d="M1279.32,-422.32C1404.61,-419.16 1765,-401.45 1765,-302 1765,-302 1765,-302 1765,-244 1765,-213.9 1760.88,-205.16 1746,-179 1738.51,-165.82 1726.94,-153.33 1717.15,-144.07"/>
<polygon fill="midnightblue" stroke="midnightblue" points="1719.23,-141.23 1709.48,-137.1 1714.53,-146.42 1719.23,-141.23"/>
</g>
<!-- Node7 -->
<g id="node7" class="node">
<title>Node7</title>
<g id="a_node7"><a xlink:title=" ">
<polygon fill="none" stroke="#bfbfbf" points="1455,-118 1455,-137 1499,-137 1499,-118 1455,-118"/>
<text text-anchor="middle" x="1477" y="-125" font-family="Helvetica,sans-Serif" font-size="10.00">string</text>
</a>
</g>
</g>
<!-- Node5&#45;&gt;Node7 -->
<g id="edge6" class="edge">
<title>Node5&#45;&gt;Node7</title>
<path fill="none" stroke="midnightblue" d="M1279.14,-422.76C1327.87,-420.77 1409.05,-412.02 1469,-378 1508.42,-355.63 1537,-347.32 1537,-302 1537,-302 1537,-302 1537,-244 1537,-213.9 1531.98,-205.65 1518,-179 1511.35,-166.32 1501.22,-153.8 1492.7,-144.41"/>
<polygon fill="midnightblue" stroke="midnightblue" points="1495.15,-141.91 1485.75,-137.02 1490.05,-146.7 1495.15,-141.91"/>
</g>
<!-- Node8 -->
<g id="node8" class="node">
<title>Node8</title>
<g id="a_node8"><a xlink:title=" ">
<polygon fill="none" stroke="#bfbfbf" points="694.5,-353 694.5,-372 767.5,-372 767.5,-353 694.5,-353"/>
<text text-anchor="middle" x="731" y="-360" font-family="Helvetica,sans-Serif" font-size="10.00">string_view</text>
</a>
</g>
</g>
<!-- Node5&#45;&gt;Node8 -->
<g id="edge7" class="edge">
<title>Node5&#45;&gt;Node8</title>
<path fill="none" stroke="midnightblue" d="M1194.7,-421.8C1113.14,-418.83 928.74,-408.99 777,-378 773.05,-377.19 768.96,-376.18 764.92,-375.06"/>
<polygon fill="midnightblue" stroke="midnightblue" points="765.69,-371.64 755.1,-372.13 763.69,-378.34 765.69,-371.64"/>
</g>
<!-- Node9 -->
<g id="node9" class="node">
<title>Node9</title>
<g id="a_node9"><a xlink:title=" ">
<polygon fill="none" stroke="#bfbfbf" points="786,-347.5 786,-377.5 900,-377.5 900,-347.5 786,-347.5"/>
<text text-anchor="start" x="794" y="-365.5" font-family="Helvetica,sans-Serif" font-size="10.00">absl/container/btree</text>
<text text-anchor="middle" x="843" y="-354.5" font-family="Helvetica,sans-Serif" font-size="10.00">_map.h</text>
</a>
</g>
</g>
<!-- Node5&#45;&gt;Node9 -->
<g id="edge8" class="edge">
<title>Node5&#45;&gt;Node9</title>
<path fill="none" stroke="midnightblue" d="M1194.89,-418.31C1134.2,-411.32 1018.42,-397.09 910.28,-378.14"/>
<polygon fill="midnightblue" stroke="midnightblue" points="910.64,-374.65 900.18,-376.36 909.42,-381.55 910.64,-374.65"/>
</g>
<!-- Node10 -->
<g id="node10" class="node">
<title>Node10</title>
<g id="a_node10"><a xlink:title=" ">
<polygon fill="none" stroke="#bfbfbf" points="918,-347.5 918,-377.5 1032,-377.5 1032,-347.5 918,-347.5"/>
<text text-anchor="start" x="926" y="-365.5" font-family="Helvetica,sans-Serif" font-size="10.00">absl/container/btree</text>
<text text-anchor="middle" x="975" y="-354.5" font-family="Helvetica,sans-Serif" font-size="10.00">_set.h</text>
</a>
</g>
</g>
<!-- Node5&#45;&gt;Node10 -->
<g id="edge9" class="edge">
<title>Node5&#45;&gt;Node10</title>
<path fill="none" stroke="midnightblue" d="M1199.46,-414.48C1158.47,-405.17 1092.01,-390.07 1042.02,-378.72"/>
<polygon fill="midnightblue" stroke="midnightblue" points="1042.78,-375.3 1032.26,-376.5 1041.23,-382.13 1042.78,-375.3"/>
</g>
<!-- Node11 -->
<g id="node11" class="node">
<title>Node11</title>
<g id="a_node11"><a xlink:href="axiom_8h.html" target="_top" xlink:title=" ">
<polygon fill="none" stroke="black" points="1088,-353 1088,-372 1176,-372 1176,-353 1088,-353"/>
<text text-anchor="middle" x="1132" y="-360" font-family="Helvetica,sans-Serif" font-size="10.00">thorin/axiom.h</text>
</a>
</g>
</g>
<!-- Node5&#45;&gt;Node11 -->
<g id="edge10" class="edge">
<title>Node5&#45;&gt;Node11</title>
<path fill="none" stroke="midnightblue" d="M1221.96,-414.48C1204.72,-404.71 1176.26,-388.58 1155.97,-377.08"/>
<polygon fill="midnightblue" stroke="midnightblue" points="1157.44,-373.89 1147.02,-372.01 1153.99,-379.98 1157.44,-373.89"/>
</g>
<!-- Node17 -->
<g id="node17" class="node">
<title>Node17</title>
<g id="a_node17"><a xlink:href="debug_8h.html" target="_top" xlink:title=" ">
<polygon fill="none" stroke="black" points="1264.5,-179.5 1264.5,-198.5 1351.5,-198.5 1351.5,-179.5 1264.5,-179.5"/>
<text text-anchor="middle" x="1308" y="-186.5" font-family="Helvetica,sans-Serif" font-size="10.00">thorin/debug.h</text>
</a>
</g>
</g>
<!-- Node5&#45;&gt;Node17 -->
<g id="edge60" class="edge">
<title>Node5&#45;&gt;Node17</title>
<path fill="none" stroke="midnightblue" d="M1252.12,-414.42C1264.31,-406.61 1280.74,-393.89 1289,-378 1317.94,-322.29 1314.23,-244.82 1310.51,-209.25"/>
<polygon fill="midnightblue" stroke="midnightblue" points="1313.94,-208.41 1309.3,-198.88 1306.99,-209.22 1313.94,-208.41"/>
</g>
<!-- Node35 -->
<g id="node34" class="node">
<title>Node35</title>
<g id="a_node34"><a xlink:href="hash_8h.html" target="_top" xlink:title=" ">
<polygon fill="none" stroke="black" points="1145.5,-118 1145.5,-137 1244.5,-137 1244.5,-118 1145.5,-118"/>
<text text-anchor="middle" x="1195" y="-125" font-family="Helvetica,sans-Serif" font-size="10.00">thorin/util/hash.h</text>
</a>
</g>
</g>
<!-- Node5&#45;&gt;Node35 -->
<g id="edge72" class="edge">
<title>Node5&#45;&gt;Node35</title>
<path fill="none" stroke="midnightblue" d="M1279.43,-419.37C1333.31,-413.86 1421.95,-401.44 1444,-378 1487.94,-331.31 1495.65,-290.18 1463,-235 1459.71,-229.44 1366.96,-181.51 1361,-179 1321.5,-162.36 1274.63,-148.62 1240.78,-139.69"/>
<polygon fill="midnightblue" stroke="midnightblue" points="1241.28,-136.2 1230.72,-137.08 1239.52,-142.98 1241.28,-136.2"/>
</g>
<!-- Node45 -->
<g id="node44" class="node">
<title>Node45</title>
<g id="a_node44"><a xlink:title=" ">
<polygon fill="none" stroke="#bfbfbf" points="1194,-353 1194,-372 1280,-372 1280,-353 1194,-353"/>
<text text-anchor="middle" x="1237" y="-360" font-family="Helvetica,sans-Serif" font-size="10.00">thorin/config.h</text>
</a>
</g>
</g>
<!-- Node5&#45;&gt;Node45 -->
<g id="edge59" class="edge">
<title>Node5&#45;&gt;Node45</title>
<path fill="none" stroke="midnightblue" d="M1237,-414.48C1237,-406.08 1237,-392.98 1237,-382.16"/>
<polygon fill="midnightblue" stroke="midnightblue" points="1240.5,-382.01 1237,-372.01 1233.5,-382.01 1240.5,-382.01"/>
</g>
<!-- Node46 -->
<g id="node45" class="node">
<title>Node46</title>
<g id="a_node45"><a xlink:href="error_8h.html" target="_top" xlink:title=" ">
<polygon fill="none" stroke="black" points="1565,-235.5 1565,-254.5 1645,-254.5 1645,-235.5 1565,-235.5"/>
<text text-anchor="middle" x="1605" y="-242.5" font-family="Helvetica,sans-Serif" font-size="10.00">thorin/error.h</text>
</a>
</g>
</g>
<!-- Node5&#45;&gt;Node46 -->
<g id="edge61" class="edge">
<title>Node5&#45;&gt;Node46</title>
<path fill="none" stroke="midnightblue" d="M1279.13,-422.04C1354.75,-419.5 1509.48,-410.39 1551,-378 1586.85,-350.04 1599.05,-294.28 1603.09,-264.98"/>
<polygon fill="midnightblue" stroke="midnightblue" points="1606.59,-265.19 1604.3,-254.84 1599.64,-264.36 1606.59,-265.19"/>
</g>
<!-- Node48 -->
<g id="node47" class="node">
<title>Node48</title>
<g id="a_node47"><a xlink:href="flags_8h.html" target="_top" xlink:title=" ">
<polygon fill="none" stroke="black" points="1336,-353 1336,-372 1416,-372 1416,-353 1336,-353"/>
<text text-anchor="middle" x="1376" y="-360" font-family="Helvetica,sans-Serif" font-size="10.00">thorin/flags.h</text>
</a>
</g>
</g>
<!-- Node5&#45;&gt;Node48 -->
<g id="edge67" class="edge">
<title>Node5&#45;&gt;Node48</title>
<path fill="none" stroke="midnightblue" d="M1256.92,-414.48C1280.45,-404.4 1319.81,-387.55 1346.79,-376"/>
<polygon fill="midnightblue" stroke="midnightblue" points="1348.31,-379.16 1356.12,-372.01 1345.55,-372.73 1348.31,-379.16"/>
</g>
<!-- Node49 -->
<g id="node48" class="node">
<title>Node49</title>
<g id="a_node48"><a xlink:href="lattice_8h.html" target="_top" xlink:title=" ">
<polygon fill="none" stroke="black" points="726,-291.5 726,-310.5 814,-310.5 814,-291.5 726,-291.5"/>
<text text-anchor="middle" x="770" y="-298.5" font-family="Helvetica,sans-Serif" font-size="10.00">thorin/lattice.h</text>
</a>
</g>
</g>
<!-- Node5&#45;&gt;Node49 -->
<g id="edge68" class="edge">
<title>Node5&#45;&gt;Node49</title>
<path fill="none" stroke="midnightblue" d="M1194.77,-421.11C1068.63,-415.26 702.25,-396.71 685,-378 675.66,-367.87 677.89,-358.8 685,-347 694.29,-331.57 710.83,-321.16 726.87,-314.27"/>
<polygon fill="midnightblue" stroke="midnightblue" points="728.17,-317.52 736.2,-310.61 725.61,-311.01 728.17,-317.52"/>
</g>
<!-- Node50 -->
<g id="node49" class="node">
<title>Node50</title>
<g id="a_node49"><a xlink:href="tuple_8h.html" target="_top" xlink:title=" ">
<polygon fill="none" stroke="black" points="914,-291.5 914,-310.5 996,-310.5 996,-291.5 914,-291.5"/>
<text text-anchor="middle" x="955" y="-298.5" font-family="Helvetica,sans-Serif" font-size="10.00">thorin/tuple.h</text>
</a>
</g>
</g>
<!-- Node5&#45;&gt;Node50 -->
<g id="edge70" class="edge">
<title>Node5&#45;&gt;Node50</title>
<path fill="none" stroke="midnightblue" d="M1194.66,-415.81C1161.8,-409.11 1115.79,-397.2 1079,-378 1059.68,-367.92 1059.19,-359 1041,-347 1022.66,-334.9 1000.69,-323.45 983.54,-315.13"/>
<polygon fill="midnightblue" stroke="midnightblue" points="984.6,-311.76 974.07,-310.61 981.59,-318.07 984.6,-311.76"/>
</g>
<!-- Node51 -->
<g id="node50" class="node">
<title>Node51</title>
<g id="a_node50"><a xlink:href="log_8h.html" target="_top" xlink:title=" ">
<polygon fill="none" stroke="black" points="1362.5,-235.5 1362.5,-254.5 1453.5,-254.5 1453.5,-235.5 1362.5,-235.5"/>
<text text-anchor="middle" x="1408" y="-242.5" font-family="Helvetica,sans-Serif" font-size="10.00">thorin/util/log.h</text>
</a>
</g>
</g>
<!-- Node5&#45;&gt;Node51 -->
<g id="edge73" class="edge">
<title>Node5&#45;&gt;Node51</title>
<path fill="none" stroke="midnightblue" d="M1279.1,-418.91C1328.86,-413.11 1407.18,-400.59 1425,-378 1451.27,-344.7 1431.13,-291.29 1417.63,-263.73"/>
<polygon fill="midnightblue" stroke="midnightblue" points="1420.58,-261.82 1412.89,-254.53 1414.35,-265.02 1420.58,-261.82"/>
</g>
<!-- Node12 -->
<g id="node12" class="node">
<title>Node12</title>
<g id="a_node12"><a xlink:href="lam_8h.html" target="_top" xlink:title=" ">
<polygon fill="none" stroke="black" points="1040,-291.5 1040,-310.5 1116,-310.5 1116,-291.5 1040,-291.5"/>
<text text-anchor="middle" x="1078" y="-298.5" font-family="Helvetica,sans-Serif" font-size="10.00">thorin/lam.h</text>
</a>
</g>
</g>
<!-- Node11&#45;&gt;Node12 -->
<g id="edge11" class="edge">
<title>Node11&#45;&gt;Node12</title>
<path fill="none" stroke="midnightblue" d="M1124.26,-352.98C1116,-343.87 1102.72,-329.24 1092.51,-317.98"/>
<polygon fill="midnightblue" stroke="midnightblue" points="1095.03,-315.56 1085.72,-310.51 1089.85,-320.27 1095.03,-315.56"/>
</g>
<!-- Node44 -->
<g id="node43" class="node">
<title>Node44</title>
<g id="a_node43"><a xlink:href="assert_8h.html" target="_top" xlink:title=" ">
<polygon fill="none" stroke="black" points="1331,-118 1331,-137 1437,-137 1437,-118 1331,-118"/>
<text text-anchor="middle" x="1384" y="-125" font-family="Helvetica,sans-Serif" font-size="10.00">thorin/util/assert.h</text>
</a>
</g>
</g>
<!-- Node11&#45;&gt;Node44 -->
<g id="edge58" class="edge">
<title>Node11&#45;&gt;Node44</title>
<path fill="none" stroke="midnightblue" d="M1135.52,-352.91C1147.71,-324.18 1190.89,-230.36 1255,-179 1278.55,-160.13 1310,-147.63 1335.96,-139.78"/>
<polygon fill="midnightblue" stroke="midnightblue" points="1336.97,-143.13 1345.61,-137 1335.03,-136.41 1336.97,-143.13"/>
</g>
<!-- Node13 -->
<g id="node13" class="node">
<title>Node13</title>
<g id="a_node13"><a xlink:title=" ">
<polygon fill="none" stroke="#bfbfbf" points="1052.5,-235.5 1052.5,-254.5 1103.5,-254.5 1103.5,-235.5 1052.5,-235.5"/>
<text text-anchor="middle" x="1078" y="-242.5" font-family="Helvetica,sans-Serif" font-size="10.00">variant</text>
</a>
</g>
</g>
<!-- Node12&#45;&gt;Node13 -->
<g id="edge12" class="edge">
<title>Node12&#45;&gt;Node13</title>
<path fill="none" stroke="midnightblue" d="M1078,-291.08C1078,-284.01 1078,-273.86 1078,-264.99"/>
<polygon fill="midnightblue" stroke="midnightblue" points="1081.5,-264.75 1078,-254.75 1074.5,-264.75 1081.5,-264.75"/>
</g>
<!-- Node14 -->
<g id="node14" class="node">
<title>Node14</title>
<g id="a_node14"><a xlink:href="def_8h.html" target="_top" xlink:title=" ">
<polygon fill="none" stroke="black" points="803,-235.5 803,-254.5 875,-254.5 875,-235.5 803,-235.5"/>
<text text-anchor="middle" x="839" y="-242.5" font-family="Helvetica,sans-Serif" font-size="10.00">thorin/def.h</text>
</a>
</g>
</g>
<!-- Node12&#45;&gt;Node14 -->
<g id="edge13" class="edge">
<title>Node12&#45;&gt;Node14</title>
<path fill="none" stroke="midnightblue" d="M1040.13,-291.44C998.03,-281.93 930.05,-266.57 884.95,-256.38"/>
<polygon fill="midnightblue" stroke="midnightblue" points="885.65,-252.95 875.13,-254.16 884.11,-259.78 885.65,-252.95"/>
</g>
<!-- Node15 -->
<g id="node15" class="node">
<title>Node15</title>
<g id="a_node15"><a xlink:title=" ">
<polygon fill="none" stroke="#bfbfbf" points="292,-179.5 292,-198.5 348,-198.5 348,-179.5 292,-179.5"/>
<text text-anchor="middle" x="320" y="-186.5" font-family="Helvetica,sans-Serif" font-size="10.00">optional</text>
</a>
</g>
</g>
<!-- Node14&#45;&gt;Node15 -->
<g id="edge14" class="edge">
<title>Node14&#45;&gt;Node15</title>
<path fill="none" stroke="midnightblue" d="M802.79,-242.42C723.75,-238.59 529.74,-227.1 358.16,-198.96"/>
<polygon fill="midnightblue" stroke="midnightblue" points="358.63,-195.49 348.19,-197.31 357.48,-202.4 358.63,-195.49"/>
</g>
<!-- Node16 -->
<g id="node16" class="node">
<title>Node16</title>
<g id="a_node16"><a xlink:title=" ">
<polygon fill="none" stroke="#bfbfbf" points="91.5,-118 91.5,-137 138.5,-137 138.5,-118 91.5,-118"/>
<text text-anchor="middle" x="115" y="-125" font-family="Helvetica,sans-Serif" font-size="10.00">vector</text>
</a>
</g>
</g>
<!-- Node14&#45;&gt;Node16 -->
<g id="edge15" class="edge">
<title>Node14&#45;&gt;Node16</title>
<path fill="none" stroke="midnightblue" d="M802.7,-242.56C695.61,-238.07 382.26,-223.19 283,-199 229.81,-186.04 171.74,-158.37 139.71,-141.81"/>
<polygon fill="midnightblue" stroke="midnightblue" points="141.12,-138.6 130.64,-137.06 137.87,-144.8 141.12,-138.6"/>
</g>
<!-- Node14&#45;&gt;Node17 -->
<g id="edge16" class="edge">
<title>Node14&#45;&gt;Node17</title>
<path fill="none" stroke="midnightblue" d="M875.02,-239.85C956.98,-230.42 1157.73,-207.3 1254.34,-196.18"/>
<polygon fill="midnightblue" stroke="midnightblue" points="1254.94,-199.63 1264.48,-195.01 1254.14,-192.68 1254.94,-199.63"/>
</g>
<!-- Node20 -->
<g id="node20" class="node">
<title>Node20</title>
<g id="a_node20"><a xlink:href="array_8h.html" target="_top" xlink:title=" ">
<polygon fill="none" stroke="black" points="366,-179.5 366,-198.5 466,-198.5 466,-179.5 366,-179.5"/>
<text text-anchor="middle" x="416" y="-186.5" font-family="Helvetica,sans-Serif" font-size="10.00">thorin/util/array.h</text>
</a>
</g>
</g>
<!-- Node14&#45;&gt;Node20 -->
<g id="edge20" class="edge">
<title>Node14&#45;&gt;Node20</title>
<path fill="none" stroke="midnightblue" d="M802.94,-239.4C730.22,-230.11 565.35,-209.07 476.09,-197.67"/>
<polygon fill="midnightblue" stroke="midnightblue" points="476.48,-194.19 466.12,-196.4 475.6,-201.14 476.48,-194.19"/>
</g>
<!-- Node30 -->
<g id="node30" class="node">
<title>Node30</title>
<g id="a_node30"><a xlink:href="cast_8h.html" target="_top" xlink:title=" ">
<polygon fill="none" stroke="black" points="0,-179.5 0,-198.5 96,-198.5 96,-179.5 0,-179.5"/>
<text text-anchor="middle" x="48" y="-186.5" font-family="Helvetica,sans-Serif" font-size="10.00">thorin/util/cast.h</text>
</a>
</g>
</g>
<!-- Node14&#45;&gt;Node30 -->
<g id="edge31" class="edge">
<title>Node14&#45;&gt;Node30</title>
<path fill="none" stroke="midnightblue" d="M802.96,-241.54C677.76,-232.99 260.98,-204.54 106.38,-193.99"/>
<polygon fill="midnightblue" stroke="midnightblue" points="106.36,-190.48 96.14,-193.29 105.88,-197.46 106.36,-190.48"/>
</g>
<!-- Node31 -->
<g id="node31" class="node">
<title>Node31</title>
<g id="a_node31"><a xlink:href="container_8h.html" target="_top" xlink:title=" ">
<polygon fill="none" stroke="red" points="778.5,-179.5 778.5,-198.5 899.5,-198.5 899.5,-179.5 778.5,-179.5"/>
<text text-anchor="middle" x="839" y="-186.5" font-family="Helvetica,sans-Serif" font-size="10.00">thorin/util/container.h</text>
</a>
</g>
</g>
<!-- Node14&#45;&gt;Node31 -->
<g id="edge34" class="edge">
<title>Node14&#45;&gt;Node31</title>
<path fill="none" stroke="midnightblue" d="M839,-235.08C839,-228.01 839,-217.86 839,-208.99"/>
<polygon fill="midnightblue" stroke="midnightblue" points="842.5,-208.75 839,-198.75 835.5,-208.75 842.5,-208.75"/>
</g>
<!-- Node14&#45;&gt;Node35 -->
<g id="edge48" class="edge">
<title>Node14&#45;&gt;Node35</title>
<path fill="none" stroke="midnightblue" d="M865.47,-235.41C928.41,-214.99 1087.13,-163.5 1158.84,-140.23"/>
<polygon fill="midnightblue" stroke="midnightblue" points="1159.93,-143.56 1168.36,-137.14 1157.77,-136.9 1159.93,-143.56"/>
</g>
<!-- Node42 -->
<g id="node41" class="node">
<title>Node42</title>
<g id="a_node41"><a xlink:href="print_8h.html" target="_top" xlink:title=" ">
<polygon fill="none" stroke="black" points="1411,-179.5 1411,-198.5 1509,-198.5 1509,-179.5 1411,-179.5"/>
<text text-anchor="middle" x="1460" y="-186.5" font-family="Helvetica,sans-Serif" font-size="10.00">thorin/util/print.h</text>
</a>
</g>
</g>
<!-- Node14&#45;&gt;Node42 -->
<g id="edge49" class="edge">
<title>Node14&#45;&gt;Node42</title>
<path fill="none" stroke="midnightblue" d="M875.08,-240.95C959.86,-233.76 1178.43,-215.17 1361,-199 1373.82,-197.86 1387.57,-196.63 1400.62,-195.44"/>
<polygon fill="midnightblue" stroke="midnightblue" points="1401.27,-198.9 1410.91,-194.51 1400.63,-191.93 1401.27,-198.9"/>
</g>
<!-- Node17&#45;&gt;Node7 -->
<g id="edge17" class="edge">
<title>Node17&#45;&gt;Node7</title>
<path fill="none" stroke="midnightblue" d="M1337.71,-179.46C1365.92,-171.09 1409.32,-157.49 1446,-143 1447.42,-142.44 1448.86,-141.85 1450.31,-141.23"/>
<polygon fill="midnightblue" stroke="midnightblue" points="1452.08,-144.28 1459.78,-137.01 1449.23,-137.88 1452.08,-144.28"/>
</g>
<!-- Node18 -->
<g id="node18" class="node">
<title>Node18</title>
<g id="a_node18"><a xlink:title=" ">
<polygon fill="none" stroke="#bfbfbf" points="1023,-112.5 1023,-142.5 1127,-142.5 1127,-112.5 1023,-112.5"/>
<text text-anchor="start" x="1031" y="-130.5" font-family="Helvetica,sans-Serif" font-size="10.00">absl/container/flat</text>
<text text-anchor="middle" x="1075" y="-119.5" font-family="Helvetica,sans-Serif" font-size="10.00">_hash_map.h</text>
</a>
</g>
</g>
<!-- Node17&#45;&gt;Node18 -->
<g id="edge18" class="edge">
<title>Node17&#45;&gt;Node18</title>
<path fill="none" stroke="midnightblue" d="M1274.62,-179.48C1238.82,-170.33 1181.17,-155.61 1137.01,-144.34"/>
<polygon fill="midnightblue" stroke="midnightblue" points="1137.79,-140.92 1127.24,-141.84 1136.06,-147.71 1137.79,-140.92"/>
</g>
<!-- Node19 -->
<g id="node19" class="node">
<title>Node19</title>
<g id="a_node19"><a xlink:title=" ">
<polygon fill="none" stroke="#bfbfbf" points="901,-112.5 901,-142.5 1005,-142.5 1005,-112.5 901,-112.5"/>
<text text-anchor="start" x="909" y="-130.5" font-family="Helvetica,sans-Serif" font-size="10.00">absl/container/flat</text>
<text text-anchor="middle" x="953" y="-119.5" font-family="Helvetica,sans-Serif" font-size="10.00">_hash_set.h</text>
</a>
</g>
</g>
<!-- Node17&#45;&gt;Node19 -->
<g id="edge19" class="edge">
<title>Node17&#45;&gt;Node19</title>
<path fill="none" stroke="midnightblue" d="M1264.47,-182.47C1208.88,-175.15 1109.53,-161.24 1015.18,-143.14"/>
<polygon fill="midnightblue" stroke="midnightblue" points="1015.67,-139.67 1005.18,-141.2 1014.33,-146.54 1015.67,-139.67"/>
</g>
<!-- Node20&#45;&gt;Node16 -->
<g id="edge30" class="edge">
<title>Node20&#45;&gt;Node16</title>
<path fill="none" stroke="midnightblue" d="M365.83,-179.96C295.3,-168.57 173.13,-148.51 153,-143 150.35,-142.27 147.62,-141.43 144.9,-140.53"/>
<polygon fill="midnightblue" stroke="midnightblue" points="145.86,-137.15 135.27,-137.07 143.5,-143.74 145.86,-137.15"/>
</g>
<!-- Node21 -->
<g id="node21" class="node">
<title>Node21</title>
<g id="a_node21"><a xlink:title=" ">
<polygon fill="none" stroke="#bfbfbf" points="506,-56.5 506,-75.5 558,-75.5 558,-56.5 506,-56.5"/>
<text text-anchor="middle" x="532" y="-63.5" font-family="Helvetica,sans-Serif" font-size="10.00">cassert</text>
</a>
</g>
</g>
<!-- Node20&#45;&gt;Node21 -->
<g id="edge21" class="edge">
<title>Node20&#45;&gt;Node21</title>
<path fill="none" stroke="midnightblue" d="M451.74,-179.39C472.16,-172.7 496.68,-161.38 512,-143 525.49,-126.82 529.98,-102.52 531.42,-85.77"/>
<polygon fill="midnightblue" stroke="midnightblue" points="534.93,-85.76 532.01,-75.58 527.94,-85.36 534.93,-85.76"/>
</g>
<!-- Node22 -->
<g id="node22" class="node">
<title>Node22</title>
<g id="a_node22"><a xlink:title=" ">
<polygon fill="none" stroke="#bfbfbf" points="266.5,-118 266.5,-137 319.5,-137 319.5,-118 266.5,-118"/>
<text text-anchor="middle" x="293" y="-125" font-family="Helvetica,sans-Serif" font-size="10.00">cstddef</text>
</a>
</g>
</g>
<!-- Node20&#45;&gt;Node22 -->
<g id="edge22" class="edge">
<title>Node20&#45;&gt;Node22</title>
<path fill="none" stroke="midnightblue" d="M398.38,-179.48C377.83,-169.53 343.64,-152.99 319.79,-141.46"/>
<polygon fill="midnightblue" stroke="midnightblue" points="321.12,-138.21 310.59,-137.01 318.07,-144.51 321.12,-138.21"/>
</g>
<!-- Node23 -->
<g id="node23" class="node">
<title>Node23</title>
<g id="a_node23"><a xlink:title=" ">
<polygon fill="none" stroke="#bfbfbf" points="23,-118 23,-137 73,-137 73,-118 23,-118"/>
<text text-anchor="middle" x="48" y="-125" font-family="Helvetica,sans-Serif" font-size="10.00">cstring</text>
</a>
</g>
</g>
<!-- Node20&#45;&gt;Node23 -->
<g id="edge23" class="edge">
<title>Node20&#45;&gt;Node23</title>
<path fill="none" stroke="midnightblue" d="M365.8,-180.27C362.82,-179.83 359.87,-179.41 357,-179 234.95,-161.7 200.91,-175.48 82,-143 79.7,-142.37 77.36,-141.62 75.02,-140.8"/>
<polygon fill="midnightblue" stroke="midnightblue" points="76.26,-137.52 65.67,-137.12 73.69,-144.04 76.26,-137.52"/>
</g>
<!-- Node24 -->
<g id="node24" class="node">
<title>Node24</title>
<g id="a_node24"><a xlink:title=" ">
<polygon fill="none" stroke="#bfbfbf" points="338,-118 338,-137 402,-137 402,-118 338,-118"/>
<text text-anchor="middle" x="370" y="-125" font-family="Helvetica,sans-Serif" font-size="10.00">algorithm</text>
</a>
</g>
</g>
<!-- Node20&#45;&gt;Node24 -->
<g id="edge24" class="edge">
<title>Node20&#45;&gt;Node24</title>
<path fill="none" stroke="midnightblue" d="M409.41,-179.48C402.51,-170.55 391.5,-156.31 382.87,-145.14"/>
<polygon fill="midnightblue" stroke="midnightblue" points="385.46,-142.78 376.58,-137.01 379.93,-147.06 385.46,-142.78"/>
</g>
<!-- Node25 -->
<g id="node25" class="node">
<title>Node25</title>
<g id="a_node25"><a xlink:title=" ">
<polygon fill="none" stroke="#bfbfbf" points="560.5,-118 560.5,-137 625.5,-137 625.5,-118 560.5,-118"/>
<text text-anchor="middle" x="593" y="-125" font-family="Helvetica,sans-Serif" font-size="10.00">functional</text>
</a>
</g>
</g>
<!-- Node20&#45;&gt;Node25 -->
<g id="edge25" class="edge">
<title>Node20&#45;&gt;Node25</title>
<path fill="none" stroke="midnightblue" d="M441.36,-179.48C471.98,-169.18 523.66,-151.81 558.05,-140.25"/>
<polygon fill="midnightblue" stroke="midnightblue" points="559.32,-143.51 567.69,-137.01 557.09,-136.88 559.32,-143.51"/>
</g>
<!-- Node26 -->
<g id="node26" class="node">
<title>Node26</title>
<g id="a_node26"><a xlink:title=" ">
<polygon fill="none" stroke="#bfbfbf" points="420.5,-118 420.5,-137 503.5,-137 503.5,-118 420.5,-118"/>
<text text-anchor="middle" x="462" y="-125" font-family="Helvetica,sans-Serif" font-size="10.00">initializer_list</text>
</a>
</g>
</g>
<!-- Node20&#45;&gt;Node26 -->
<g id="edge26" class="edge">
<title>Node20&#45;&gt;Node26</title>
<path fill="none" stroke="midnightblue" d="M422.59,-179.48C429.49,-170.55 440.5,-156.31 449.13,-145.14"/>
<polygon fill="midnightblue" stroke="midnightblue" points="452.07,-147.06 455.42,-137.01 446.54,-142.78 452.07,-147.06"/>
</g>
<!-- Node27 -->
<g id="node27" class="node">
<title>Node27</title>
<g id="a_node27"><a xlink:title=" ">
<polygon fill="none" stroke="#bfbfbf" points="195.5,-118 195.5,-137 248.5,-137 248.5,-118 195.5,-118"/>
<text text-anchor="middle" x="222" y="-125" font-family="Helvetica,sans-Serif" font-size="10.00">iterator</text>
</a>
</g>
</g>
<!-- Node20&#45;&gt;Node27 -->
<g id="edge27" class="edge">
<title>Node20&#45;&gt;Node27</title>
<path fill="none" stroke="midnightblue" d="M381.52,-179.49C349.07,-171.18 299.28,-157.68 257,-143 255.09,-142.34 253.13,-141.62 251.17,-140.88"/>
<polygon fill="midnightblue" stroke="midnightblue" points="252.05,-137.47 241.47,-137.04 249.47,-143.97 252.05,-137.47"/>
</g>
<!-- Node28 -->
<g id="node28" class="node">
<title>Node28</title>
<g id="a_node28"><a xlink:title=" ">
<polygon fill="none" stroke="#bfbfbf" points="1263,-118 1263,-137 1313,-137 1313,-118 1263,-118"/>
<text text-anchor="middle" x="1288" y="-125" font-family="Helvetica,sans-Serif" font-size="10.00">ranges</text>
</a>
</g>
</g>
<!-- Node20&#45;&gt;Node28 -->
<g id="edge28" class="edge">
<title>Node20&#45;&gt;Node28</title>
<path fill="none" stroke="midnightblue" d="M466.18,-186.29C635.07,-180.4 1176.5,-160.37 1253,-143 1255.67,-142.39 1258.4,-141.6 1261.1,-140.7"/>
<polygon fill="midnightblue" stroke="midnightblue" points="1262.48,-143.92 1270.58,-137.08 1259.99,-137.38 1262.48,-143.92"/>
</g>
<!-- Node29 -->
<g id="node29" class="node">
<title>Node29</title>
<g id="a_node29"><a xlink:title=" ">
<polygon fill="none" stroke="#bfbfbf" points="710.5,-0.5 710.5,-19.5 779.5,-19.5 779.5,-0.5 710.5,-0.5"/>
<text text-anchor="middle" x="745" y="-7.5" font-family="Helvetica,sans-Serif" font-size="10.00">type_traits</text>
</a>
</g>
</g>
<!-- Node20&#45;&gt;Node29 -->
<g id="edge29" class="edge">
<title>Node20&#45;&gt;Node29</title>
<path fill="none" stroke="midnightblue" d="M365.72,-179.82C299.79,-168.85 191.73,-149.96 186,-143 177.24,-132.36 177.17,-122.57 186,-112 251.74,-33.31 579.5,-15.82 700.24,-12.02"/>
<polygon fill="midnightblue" stroke="midnightblue" points="700.37,-15.52 710.26,-11.72 700.16,-8.52 700.37,-15.52"/>
</g>
<!-- Node30&#45;&gt;Node21 -->
<g id="edge32" class="edge">
<title>Node30&#45;&gt;Node21</title>
<path fill="none" stroke="midnightblue" d="M38.68,-179.49C23.16,-164.3 -4.56,-132.24 14,-112 46.47,-76.59 383.14,-68.95 495.63,-67.39"/>
<polygon fill="midnightblue" stroke="midnightblue" points="495.85,-70.88 505.8,-67.25 495.75,-63.88 495.85,-70.88"/>
</g>
<!-- Node30&#45;&gt;Node23 -->
<g id="edge33" class="edge">
<title>Node30&#45;&gt;Node23</title>
<path fill="none" stroke="midnightblue" d="M48,-179.48C48,-171.08 48,-157.98 48,-147.16"/>
<polygon fill="midnightblue" stroke="midnightblue" points="51.5,-147.01 48,-137.01 44.5,-147.01 51.5,-147.01"/>
</g>
<!-- Node31&#45;&gt;Node3 -->
<g id="edge36" class="edge">
<title>Node31&#45;&gt;Node3</title>
<path fill="none" stroke="midnightblue" d="M807.07,-179.48C777.58,-171.28 732.75,-157.93 695,-143 693.62,-142.45 692.22,-141.87 690.81,-141.27"/>
<polygon fill="midnightblue" stroke="midnightblue" points="692.17,-138.04 681.62,-137.07 689.27,-144.41 692.17,-138.04"/>
</g>
<!-- Node31&#45;&gt;Node18 -->
<g id="edge37" class="edge">
<title>Node31&#45;&gt;Node18</title>
<path fill="none" stroke="midnightblue" d="M872.81,-179.48C909.31,-170.27 968.22,-155.42 1013.06,-144.12"/>
<polygon fill="midnightblue" stroke="midnightblue" points="1014.14,-147.45 1022.98,-141.62 1012.43,-140.67 1014.14,-147.45"/>
</g>
<!-- Node31&#45;&gt;Node19 -->
<g id="edge38" class="edge">
<title>Node31&#45;&gt;Node19</title>
<path fill="none" stroke="midnightblue" d="M855.33,-179.48C871.42,-171.08 896.53,-157.97 917.26,-147.15"/>
<polygon fill="midnightblue" stroke="midnightblue" points="918.89,-150.25 926.13,-142.52 915.65,-144.05 918.89,-150.25"/>
</g>
<!-- Node32 -->
<g id="node32" class="node">
<title>Node32</title>
<g id="a_node32"><a xlink:title=" ">
<polygon fill="none" stroke="#bfbfbf" points="704.5,-118 704.5,-137 751.5,-137 751.5,-118 704.5,-118"/>
<text text-anchor="middle" x="728" y="-125" font-family="Helvetica,sans-Serif" font-size="10.00">queue</text>
</a>
</g>
</g>
<!-- Node31&#45;&gt;Node32 -->
<g id="edge35" class="edge">
<title>Node31&#45;&gt;Node32</title>
<path fill="none" stroke="midnightblue" d="M823.1,-179.48C804.72,-169.62 774.24,-153.29 752.76,-141.77"/>
<polygon fill="midnightblue" stroke="midnightblue" points="754.34,-138.65 743.87,-137.01 751.03,-144.82 754.34,-138.65"/>
</g>
<!-- Node33 -->
<g id="node33" class="node">
<title>Node33</title>
<g id="a_node33"><a xlink:title=" ">
<polygon fill="none" stroke="#bfbfbf" points="769.5,-112.5 769.5,-142.5 882.5,-142.5 882.5,-112.5 769.5,-112.5"/>
<text text-anchor="start" x="777.5" y="-130.5" font-family="Helvetica,sans-Serif" font-size="10.00">absl/container/node</text>
<text text-anchor="middle" x="826" y="-119.5" font-family="Helvetica,sans-Serif" font-size="10.00">_hash_map.h</text>
</a>
</g>
</g>
<!-- Node31&#45;&gt;Node33 -->
<g id="edge39" class="edge">
<title>Node31&#45;&gt;Node33</title>
<path fill="none" stroke="midnightblue" d="M837.14,-179.48C835.59,-172.4 833.31,-161.97 831.22,-152.39"/>
<polygon fill="midnightblue" stroke="midnightblue" points="834.62,-151.55 829.06,-142.52 827.78,-153.04 834.62,-151.55"/>
</g>
<!-- Node31&#45;&gt;Node35 -->
<g id="edge40" class="edge">
<title>Node31&#45;&gt;Node35</title>
<path fill="none" stroke="midnightblue" d="M899.57,-180.46C959.79,-172.58 1054.66,-159.12 1136,-143 1141.43,-141.92 1147.12,-140.68 1152.72,-139.38"/>
<polygon fill="midnightblue" stroke="midnightblue" points="1153.74,-142.73 1162.66,-137.01 1152.12,-135.93 1153.74,-142.73"/>
</g>
<!-- Node36 -->
<g id="node35" class="node">
<title>Node36</title>
<g id="a_node35"><a xlink:href="types_8h.html" target="_top" xlink:title=" ">
<polygon fill="none" stroke="black" points="1278.5,-56.5 1278.5,-75.5 1381.5,-75.5 1381.5,-56.5 1278.5,-56.5"/>
<text text-anchor="middle" x="1330" y="-63.5" font-family="Helvetica,sans-Serif" font-size="10.00">thorin/util/types.h</text>
</a>
</g>
</g>
<!-- Node35&#45;&gt;Node36 -->
<g id="edge41" class="edge">
<title>Node35&#45;&gt;Node36</title>
<path fill="none" stroke="midnightblue" d="M1214.34,-117.98C1237.1,-107.95 1275.09,-91.2 1301.29,-79.65"/>
<polygon fill="midnightblue" stroke="midnightblue" points="1302.95,-82.74 1310.69,-75.51 1300.13,-76.34 1302.95,-82.74"/>
</g>
<!-- Node36&#45;&gt;Node29 -->
<g id="edge45" class="edge">
<title>Node36&#45;&gt;Node29</title>
<path fill="none" stroke="midnightblue" d="M1278.34,-60.23C1165.12,-49.78 896.7,-25 789.93,-15.15"/>
<polygon fill="midnightblue" stroke="midnightblue" points="790.1,-11.65 779.82,-14.21 789.45,-18.62 790.1,-11.65"/>
</g>
<!-- Node37 -->
<g id="node36" class="node">
<title>Node37</title>
<g id="a_node36"><a xlink:title=" ">
<polygon fill="none" stroke="#bfbfbf" points="1208,-0.5 1208,-19.5 1258,-19.5 1258,-0.5 1208,-0.5"/>
<text text-anchor="middle" x="1233" y="-7.5" font-family="Helvetica,sans-Serif" font-size="10.00">cstdint</text>
</a>
</g>
</g>
<!-- Node36&#45;&gt;Node37 -->
<g id="edge42" class="edge">
<title>Node36&#45;&gt;Node37</title>
<path fill="none" stroke="midnightblue" d="M1314.42,-56.32C1299,-47.74 1275.19,-34.49 1257.29,-24.52"/>
<polygon fill="midnightblue" stroke="midnightblue" points="1258.99,-21.46 1248.55,-19.65 1255.58,-27.58 1258.99,-21.46"/>
</g>
<!-- Node38 -->
<g id="node37" class="node">
<title>Node38</title>
<g id="a_node37"><a xlink:title=" ">
<polygon fill="none" stroke="#bfbfbf" points="1276,-0.5 1276,-19.5 1320,-19.5 1320,-0.5 1276,-0.5"/>
<text text-anchor="middle" x="1298" y="-7.5" font-family="Helvetica,sans-Serif" font-size="10.00">limits</text>
</a>
</g>
</g>
<!-- Node36&#45;&gt;Node38 -->
<g id="edge43" class="edge">
<title>Node36&#45;&gt;Node38</title>
<path fill="none" stroke="midnightblue" d="M1324.72,-56.08C1320.29,-48.61 1313.84,-37.72 1308.38,-28.52"/>
<polygon fill="midnightblue" stroke="midnightblue" points="1311.29,-26.57 1303.19,-19.75 1305.27,-30.14 1311.29,-26.57"/>
</g>
<!-- Node39 -->
<g id="node38" class="node">
<title>Node39</title>
<g id="a_node38"><a xlink:title=" ">
<polygon fill="none" stroke="#bfbfbf" points="1546.5,-0.5 1546.5,-19.5 1603.5,-19.5 1603.5,-0.5 1546.5,-0.5"/>
<text text-anchor="middle" x="1575" y="-7.5" font-family="Helvetica,sans-Serif" font-size="10.00">ostream</text>
</a>
</g>
</g>
<!-- Node36&#45;&gt;Node39 -->
<g id="edge44" class="edge">
<title>Node36&#45;&gt;Node39</title>
<path fill="none" stroke="midnightblue" d="M1368.82,-56.44C1414.73,-46.32 1490.68,-29.58 1536.47,-19.49"/>
<polygon fill="midnightblue" stroke="midnightblue" points="1537.3,-22.89 1546.31,-17.32 1535.79,-16.06 1537.3,-22.89"/>
</g>
<!-- Node40 -->
<g id="node39" class="node">
<title>Node40</title>
<g id="a_node39"><a xlink:title=" ">
<polygon fill="none" stroke="#bfbfbf" points="1338.5,-0.5 1338.5,-19.5 1385.5,-19.5 1385.5,-0.5 1338.5,-0.5"/>
<text text-anchor="middle" x="1362" y="-7.5" font-family="Helvetica,sans-Serif" font-size="10.00">cmath</text>
</a>
</g>
</g>
<!-- Node36&#45;&gt;Node40 -->
<g id="edge46" class="edge">
<title>Node36&#45;&gt;Node40</title>
<path fill="none" stroke="midnightblue" d="M1335.28,-56.08C1339.71,-48.61 1346.16,-37.72 1351.62,-28.52"/>
<polygon fill="midnightblue" stroke="midnightblue" points="1354.73,-30.14 1356.81,-19.75 1348.71,-26.57 1354.73,-30.14"/>
</g>
<!-- Node41 -->
<g id="node40" class="node">
<title>Node41</title>
<g id="a_node40"><a xlink:title=" ">
<polygon fill="none" stroke="#bfbfbf" points="1404,-0.5 1404,-19.5 1460,-19.5 1460,-0.5 1404,-0.5"/>
<text text-anchor="middle" x="1432" y="-7.5" font-family="Helvetica,sans-Serif" font-size="10.00">half.hpp</text>
</a>
</g>
</g>
<!-- Node36&#45;&gt;Node41 -->
<g id="edge47" class="edge">
<title>Node36&#45;&gt;Node41</title>
<path fill="none" stroke="midnightblue" d="M1346.39,-56.32C1362.67,-47.7 1387.87,-34.36 1406.72,-24.39"/>
<polygon fill="midnightblue" stroke="midnightblue" points="1408.45,-27.43 1415.65,-19.65 1405.18,-21.24 1408.45,-27.43"/>
</g>
<!-- Node42&#45;&gt;Node6 -->
<g id="edge54" class="edge">
<title>Node42&#45;&gt;Node6</title>
<path fill="none" stroke="midnightblue" d="M1503.38,-179.49C1543.53,-171.29 1604.72,-157.95 1657,-143 1659.95,-142.16 1662.99,-141.23 1666.03,-140.26"/>
<polygon fill="midnightblue" stroke="midnightblue" points="1667.21,-143.55 1675.6,-137.08 1665,-136.91 1667.21,-143.55"/>
</g>
<!-- Node42&#45;&gt;Node7 -->
<g id="edge55" class="edge">
<title>Node42&#45;&gt;Node7</title>
<path fill="none" stroke="midnightblue" d="M1462.44,-179.48C1464.86,-170.99 1468.66,-157.7 1471.77,-146.82"/>
<polygon fill="midnightblue" stroke="midnightblue" points="1475.19,-147.59 1474.57,-137.01 1468.46,-145.66 1475.19,-147.59"/>
</g>
<!-- Node42&#45;&gt;Node25 -->
<g id="edge50" class="edge">
<title>Node42&#45;&gt;Node25</title>
<path fill="none" stroke="midnightblue" d="M1410.94,-183.14C1395.02,-181.67 1377.27,-180.14 1361,-179 1038.29,-156.35 951.39,-205.59 634,-143 630.49,-142.31 626.87,-141.37 623.3,-140.31"/>
<polygon fill="midnightblue" stroke="midnightblue" points="624.12,-136.9 613.53,-137.07 621.92,-143.54 624.12,-136.9"/>
</g>
<!-- Node42&#45;&gt;Node28 -->
<g id="edge53" class="edge">
<title>Node42&#45;&gt;Node28</title>
<path fill="none" stroke="midnightblue" d="M1431.47,-179.5C1403.38,-170.94 1359.39,-157.04 1322,-143 1320.35,-142.38 1318.66,-141.73 1316.96,-141.05"/>
<polygon fill="midnightblue" stroke="midnightblue" points="1317.88,-137.65 1307.3,-137.08 1315.22,-144.12 1317.88,-137.65"/>
</g>
<!-- Node42&#45;&gt;Node39 -->
<g id="edge52" class="edge">
<title>Node42&#45;&gt;Node39</title>
<path fill="none" stroke="midnightblue" d="M1509.2,-183.91C1536.63,-178.82 1568.67,-167.59 1586,-143 1610.09,-108.82 1594.4,-56.59 1583.3,-29.2"/>
<polygon fill="midnightblue" stroke="midnightblue" points="1586.38,-27.51 1579.22,-19.71 1579.95,-30.28 1586.38,-27.51"/>
</g>
<!-- Node43 -->
<g id="node42" class="node">
<title>Node43</title>
<g id="a_node42"><a xlink:title=" ">
<polygon fill="none" stroke="#bfbfbf" points="1517,-118 1517,-137 1577,-137 1577,-118 1517,-118"/>
<text text-anchor="middle" x="1547" y="-125" font-family="Helvetica,sans-Serif" font-size="10.00">iostream</text>
</a>
</g>
</g>
<!-- Node42&#45;&gt;Node43 -->
<g id="edge51" class="edge">
<title>Node42&#45;&gt;Node43</title>
<path fill="none" stroke="midnightblue" d="M1472.46,-179.48C1486.42,-169.93 1509.26,-154.31 1525.99,-142.87"/>
<polygon fill="midnightblue" stroke="midnightblue" points="1528.28,-145.54 1534.56,-137.01 1524.33,-139.77 1528.28,-145.54"/>
</g>
<!-- Node42&#45;&gt;Node44 -->
<g id="edge56" class="edge">
<title>Node42&#45;&gt;Node44</title>
<path fill="none" stroke="midnightblue" d="M1449.11,-179.48C1437.03,-170.02 1417.33,-154.6 1402.76,-143.19"/>
<polygon fill="midnightblue" stroke="midnightblue" points="1404.9,-140.42 1394.87,-137.01 1400.59,-145.93 1404.9,-140.42"/>
</g>
<!-- Node44&#45;&gt;Node21 -->
<g id="edge57" class="edge">
<title>Node44&#45;&gt;Node21</title>
<path fill="none" stroke="midnightblue" d="M1352.34,-117.98C1342.67,-115.68 1331.96,-113.44 1322,-112 1033.54,-70.37 680.62,-66.84 568.2,-66.84"/>
<polygon fill="midnightblue" stroke="midnightblue" points="568.07,-63.34 558.08,-66.86 568.08,-70.34 568.07,-63.34"/>
</g>
<!-- Node46&#45;&gt;Node6 -->
<g id="edge62" class="edge">
<title>Node46&#45;&gt;Node6</title>
<path fill="none" stroke="midnightblue" d="M1612.07,-235.32C1627.65,-216.17 1665.19,-170.04 1685.47,-145.13"/>
<polygon fill="midnightblue" stroke="midnightblue" points="1688.26,-147.25 1691.85,-137.28 1682.83,-142.83 1688.26,-147.25"/>
</g>
<!-- Node46&#45;&gt;Node17 -->
<g id="edge64" class="edge">
<title>Node46&#45;&gt;Node17</title>
<path fill="none" stroke="midnightblue" d="M1564.95,-236.72C1512.52,-227.18 1420.44,-210.44 1361.92,-199.8"/>
<polygon fill="midnightblue" stroke="midnightblue" points="1362.22,-196.3 1351.76,-197.96 1360.97,-203.19 1362.22,-196.3"/>
</g>
<!-- Node46&#45;&gt;Node36 -->
<g id="edge66" class="edge">
<title>Node46&#45;&gt;Node36</title>
<path fill="none" stroke="midnightblue" d="M1606.78,-235.47C1611.11,-212.11 1619.52,-146.58 1586,-112 1559.75,-84.92 1458.62,-74.02 1391.6,-69.71"/>
<polygon fill="midnightblue" stroke="midnightblue" points="1391.76,-66.22 1381.56,-69.1 1391.33,-73.2 1391.76,-66.22"/>
</g>
<!-- Node46&#45;&gt;Node42 -->
<g id="edge65" class="edge">
<title>Node46&#45;&gt;Node42</title>
<path fill="none" stroke="midnightblue" d="M1582.02,-235.44C1557.84,-226.44 1519.58,-212.19 1492.35,-202.05"/>
<polygon fill="midnightblue" stroke="midnightblue" points="1493.46,-198.73 1482.87,-198.52 1491.02,-205.29 1493.46,-198.73"/>
</g>
<!-- Node47 -->
<g id="node46" class="node">
<title>Node47</title>
<g id="a_node46"><a xlink:title=" ">
<polygon fill="none" stroke="#bfbfbf" points="1671.5,-179.5 1671.5,-198.5 1736.5,-198.5 1736.5,-179.5 1671.5,-179.5"/>
<text text-anchor="middle" x="1704" y="-186.5" font-family="Helvetica,sans-Serif" font-size="10.00">stdexcept</text>
</a>
</g>
</g>
<!-- Node46&#45;&gt;Node47 -->
<g id="edge63" class="edge">
<title>Node46&#45;&gt;Node47</title>
<path fill="none" stroke="midnightblue" d="M1620.91,-235.32C1636.64,-226.74 1660.94,-213.49 1679.21,-203.52"/>
<polygon fill="midnightblue" stroke="midnightblue" points="1681.03,-206.52 1688.13,-198.65 1677.68,-200.37 1681.03,-206.52"/>
</g>
<!-- Node49&#45;&gt;Node14 -->
<g id="edge69" class="edge">
<title>Node49&#45;&gt;Node14</title>
<path fill="none" stroke="midnightblue" d="M781.09,-291.32C791.49,-283.18 807.26,-270.84 819.72,-261.09"/>
<polygon fill="midnightblue" stroke="midnightblue" points="821.99,-263.75 827.71,-254.83 817.68,-258.24 821.99,-263.75"/>
</g>
<!-- Node50&#45;&gt;Node14 -->
<g id="edge71" class="edge">
<title>Node50&#45;&gt;Node14</title>
<path fill="none" stroke="midnightblue" d="M936.62,-291.44C917.78,-282.68 888.27,-268.94 866.62,-258.86"/>
<polygon fill="midnightblue" stroke="midnightblue" points="867.84,-255.56 857.29,-254.52 864.88,-261.91 867.84,-255.56"/>
</g>
<!-- Node51&#45;&gt;Node17 -->
<g id="edge74" class="edge">
<title>Node51&#45;&gt;Node17</title>
<path fill="none" stroke="midnightblue" d="M1391.93,-235.32C1376.04,-226.74 1351.49,-213.49 1333.04,-203.52"/>
<polygon fill="midnightblue" stroke="midnightblue" points="1334.49,-200.33 1324.03,-198.65 1331.16,-206.49 1334.49,-200.33"/>
</g>
<!-- Node51&#45;&gt;Node42 -->
<g id="edge75" class="edge">
<title>Node51&#45;&gt;Node42</title>
<path fill="none" stroke="midnightblue" d="M1416.59,-235.08C1424.16,-227.22 1435.38,-215.57 1444.51,-206.08"/>
<polygon fill="midnightblue" stroke="midnightblue" points="1447.16,-208.38 1451.57,-198.75 1442.12,-203.53 1447.16,-208.38"/>
</g>
</g>
</svg>
