<?xml version="1.0" encoding="UTF-8" standalone="no"?>
<!DOCTYPE svg PUBLIC "-//W3C//DTD SVG 1.1//EN"
 "http://www.w3.org/Graphics/SVG/1.1/DTD/svg11.dtd">
<!-- Generated by graphviz version 2.43.0 (0)
 -->
<!-- Title: include/thorin/analyses/schedule.h Pages: 1 -->
<svg width="605pt" height="170pt"
 viewBox="0.00 0.00 604.50 170.00" xmlns="http://www.w3.org/2000/svg" xmlns:xlink="http://www.w3.org/1999/xlink">
<g id="graph0" class="graph" transform="scale(1 1) rotate(0) translate(4 166)">
<title>include/thorin/analyses/schedule.h</title>
<!-- Node1 -->
<g id="Node000001" class="node">
<title>Node1</title>
<g id="a_Node000001"><a xlink:title=" ">
<polygon fill="#999999" stroke="#666666" points="397,-162 267,-162 267,-132 397,-132 397,-162"/>
<text text-anchor="start" x="275" y="-150" font-family="Helvetica,sans-Serif" font-size="10.00">include/thorin/analyses</text>
<text text-anchor="middle" x="332" y="-139" font-family="Helvetica,sans-Serif" font-size="10.00">/schedule.h</text>
</a>
</g>
</g>
<!-- Node2 -->
<g id="Node000002" class="node">
<title>Node2</title>
<g id="a_Node000002"><a xlink:href="emitter_8h.html" target="_top" xlink:title=" ">
<polygon fill="white" stroke="#666666" points="146,-90.5 0,-90.5 0,-71.5 146,-71.5 146,-90.5"/>
<text text-anchor="middle" x="73" y="-78.5" font-family="Helvetica,sans-Serif" font-size="10.00">include/thorin/be/emitter.h</text>
</a>
</g>
</g>
<!-- Node1&#45;&gt;Node2 -->
<g id="edge1_Node000001_Node000002" class="edge">
<title>Node1&#45;&gt;Node2</title>
<g id="a_edge1_Node000001_Node000002"><a xlink:title=" ">
<path fill="none" stroke="#63b8ff" d="M265.31,-129.52C214.85,-117.05 147.61,-100.44 107.47,-90.52"/>
<polygon fill="#63b8ff" stroke="#63b8ff" points="264.61,-132.95 275.16,-131.95 266.29,-126.16 264.61,-132.95"/>
</a>
</g>
</g>
<!-- Node4 -->
<g id="Node000004" class="node">
<title>Node4</title>
<g id="a_Node000004"><a xlink:href="add__mem_8h.html" target="_top" xlink:title=" ">
<polygon fill="white" stroke="#666666" points="304,-96 166,-96 166,-66 304,-66 304,-96"/>
<text text-anchor="start" x="174" y="-84" font-family="Helvetica,sans-Serif" font-size="10.00">include/thorin/plug</text>
<text text-anchor="middle" x="235" y="-73" font-family="Helvetica,sans-Serif" font-size="10.00">/mem/phase/add_mem.h</text>
</a>
</g>
</g>
<!-- Node1&#45;&gt;Node4 -->
<g id="edge3_Node000001_Node000004" class="edge">
<title>Node1&#45;&gt;Node4</title>
<g id="a_edge3_Node000001_Node000004"><a xlink:title=" ">
<path fill="none" stroke="#63b8ff" d="M301.73,-126.03C287.05,-116.34 269.77,-104.94 256.47,-96.16"/>
<polygon fill="#63b8ff" stroke="#63b8ff" points="300.2,-129.21 310.47,-131.8 304.05,-123.37 300.2,-129.21"/>
</a>
</g>
</g>
<!-- Node6 -->
<g id="Node000006" class="node">
<title>Node6</title>
<g id="a_Node000006"><a xlink:href="add__mem_8cpp.html" target="_top" xlink:title=" ">
<polygon fill="white" stroke="#666666" points="395.5,-30 274.5,-30 274.5,0 395.5,0 395.5,-30"/>
<text text-anchor="start" x="282.5" y="-18" font-family="Helvetica,sans-Serif" font-size="10.00">src/thorin/plug/mem</text>
<text text-anchor="middle" x="335" y="-7" font-family="Helvetica,sans-Serif" font-size="10.00">/phase/add_mem.cpp</text>
</a>
</g>
</g>
<!-- Node1&#45;&gt;Node6 -->
<g id="edge8_Node000001_Node000006" class="edge">
<title>Node1&#45;&gt;Node6</title>
<g id="a_edge8_Node000001_Node000006"><a xlink:title=" ">
<path fill="none" stroke="#63b8ff" d="M332.56,-121.68C333.18,-94.7 334.17,-52.11 334.67,-30.14"/>
<polygon fill="#63b8ff" stroke="#63b8ff" points="329.06,-121.76 332.33,-131.84 336.06,-121.92 329.06,-121.76"/>
</a>
</g>
</g>
<!-- Node7 -->
<g id="Node000007" class="node">
<title>Node7</title>
<g id="a_Node000007"><a xlink:href="schedule_8cpp.html" target="_top" xlink:title=" ">
<polygon fill="white" stroke="#666666" points="469.5,-96 360.5,-96 360.5,-66 469.5,-66 469.5,-96"/>
<text text-anchor="start" x="368.5" y="-84" font-family="Helvetica,sans-Serif" font-size="10.00">src/thorin/analyses</text>
<text text-anchor="middle" x="415" y="-73" font-family="Helvetica,sans-Serif" font-size="10.00">/schedule.cpp</text>
</a>
</g>
</g>
<!-- Node1&#45;&gt;Node7 -->
<g id="edge6_Node000001_Node000007" class="edge">
<title>Node1&#45;&gt;Node7</title>
<g id="a_edge6_Node000001_Node000007"><a xlink:title=" ">
<path fill="none" stroke="#63b8ff" d="M358.61,-125.48C371.02,-115.91 385.47,-104.77 396.63,-96.16"/>
<polygon fill="#63b8ff" stroke="#63b8ff" points="356.2,-122.92 350.42,-131.8 360.48,-128.46 356.2,-122.92"/>
</a>
</g>
</g>
<!-- Node8 -->
<g id="Node000008" class="node">
<title>Node8</title>
<g id="a_Node000008"><a xlink:href="scope_8cpp.html" target="_top" xlink:title=" ">
<polygon fill="white" stroke="#666666" points="596.5,-96 487.5,-96 487.5,-66 596.5,-66 596.5,-96"/>
<text text-anchor="start" x="495.5" y="-84" font-family="Helvetica,sans-Serif" font-size="10.00">src/thorin/analyses</text>
<text text-anchor="middle" x="542" y="-73" font-family="Helvetica,sans-Serif" font-size="10.00">/scope.cpp</text>
</a>
</g>
</g>
<!-- Node1&#45;&gt;Node8 -->
<g id="edge7_Node000001_Node000008" class="edge">
<title>Node1&#45;&gt;Node8</title>
<g id="a_edge7_Node000001_Node000008"><a xlink:title=" ">
<path fill="none" stroke="#63b8ff" d="M387.82,-128.99C421.61,-118.69 464.18,-105.72 496.02,-96.01"/>
<polygon fill="#63b8ff" stroke="#63b8ff" points="386.63,-125.69 378.09,-131.95 388.67,-132.39 386.63,-125.69"/>
</a>
</g>
</g>
<!-- Node3 -->
<g id="Node000003" class="node">
<title>Node3</title>
<g id="a_Node000003"><a xlink:href="ll_8cpp.html" target="_top" xlink:title=" ">
<polygon fill="white" stroke="#666666" points="123,-30 13,-30 13,0 123,0 123,-30"/>
<text text-anchor="start" x="21" y="-18" font-family="Helvetica,sans-Serif" font-size="10.00">src/thorin/plug/core</text>
<text text-anchor="middle" x="68" y="-7" font-family="Helvetica,sans-Serif" font-size="10.00">/be/ll.cpp</text>
</a>
</g>
</g>
<!-- Node2&#45;&gt;Node3 -->
<g id="edge2_Node000002_Node000003" class="edge">
<title>Node2&#45;&gt;Node3</title>
<g id="a_edge2_Node000002_Node000003"><a xlink:title=" ">
<path fill="none" stroke="#63b8ff" d="M71.54,-61.35C70.77,-51.47 69.84,-39.51 69.12,-30.36"/>
<polygon fill="#63b8ff" stroke="#63b8ff" points="68.06,-61.67 72.33,-71.37 75.04,-61.13 68.06,-61.67"/>
</a>
</g>
</g>
<!-- Node5 -->
<g id="Node000005" class="node">
<title>Node5</title>
<g id="a_Node000005"><a xlink:href="mem_8cpp.html" target="_top" xlink:title=" ">
<polygon fill="white" stroke="#666666" points="256.5,-30 141.5,-30 141.5,0 256.5,0 256.5,-30"/>
<text text-anchor="start" x="149.5" y="-18" font-family="Helvetica,sans-Serif" font-size="10.00">src/thorin/plug/mem</text>
<text text-anchor="middle" x="199" y="-7" font-family="Helvetica,sans-Serif" font-size="10.00">/mem.cpp</text>
</a>
</g>
</g>
<!-- Node4&#45;&gt;Node5 -->
<g id="edge4_Node000004_Node000005" class="edge">
<title>Node4&#45;&gt;Node5</title>
<g id="a_edge4_Node000004_Node000005"><a xlink:title=" ">
<path fill="none" stroke="#63b8ff" d="M222.04,-56.96C217,-48 211.39,-38.03 206.97,-30.16"/>
<polygon fill="#63b8ff" stroke="#63b8ff" points="219.06,-58.8 227.01,-65.8 225.16,-55.36 219.06,-58.8"/>
</a>
</g>
</g>
<!-- Node4&#45;&gt;Node6 -->
<g id="edge5_Node000004_Node000006" class="edge">
<title>Node4&#45;&gt;Node6</title>
<g id="a_edge5_Node000004_Node000006"><a xlink:title=" ">
<path fill="none" stroke="#63b8ff" d="M265.78,-60.3C281,-50.56 299.03,-39.02 312.87,-30.16"/>
<polygon fill="#63b8ff" stroke="#63b8ff" points="263.73,-57.46 257.19,-65.8 267.5,-63.35 263.73,-57.46"/>
</a>
</g>
</g>
</g>
</svg>
