<?xml version="1.0" encoding="UTF-8" standalone="no"?>
<!DOCTYPE svg PUBLIC "-//W3C//DTD SVG 1.1//EN"
 "http://www.w3.org/Graphics/SVG/1.1/DTD/svg11.dtd">
<!-- Generated by graphviz version 2.43.0 (0)
 -->
<!-- Title: thorin/fe/scopes.cpp Pages: 1 -->
<svg width="1436pt" height="498pt"
 viewBox="0.00 0.00 1436.00 498.00" xmlns="http://www.w3.org/2000/svg" xmlns:xlink="http://www.w3.org/1999/xlink">
<g id="graph0" class="graph" transform="scale(1 1) rotate(0) translate(4 494)">
<title>thorin/fe/scopes.cpp</title>
<!-- Node1 -->
<g id="node1" class="node">
<title>Node1</title>
<g id="a_node1"><a xlink:title=" ">
<polygon fill="#bfbfbf" stroke="black" points="684.5,-470.5 684.5,-489.5 799.5,-489.5 799.5,-470.5 684.5,-470.5"/>
<text text-anchor="middle" x="742" y="-477.5" font-family="Helvetica,sans-Serif" font-size="10.00">thorin/fe/scopes.cpp</text>
</a>
</g>
</g>
<!-- Node2 -->
<g id="node2" class="node">
<title>Node2</title>
<g id="a_node2"><a xlink:href="scopes_8h.html" target="_top" xlink:title=" ">
<polygon fill="none" stroke="black" points="538,-414.5 538,-433.5 642,-433.5 642,-414.5 538,-414.5"/>
<text text-anchor="middle" x="590" y="-421.5" font-family="Helvetica,sans-Serif" font-size="10.00">thorin/fe/scopes.h</text>
</a>
</g>
</g>
<!-- Node1&#45;&gt;Node2 -->
<g id="edge1" class="edge">
<title>Node1&#45;&gt;Node2</title>
<path fill="none" stroke="midnightblue" d="M717.92,-470.44C692.46,-461.4 652.11,-447.06 623.54,-436.92"/>
<polygon fill="midnightblue" stroke="midnightblue" points="624.57,-433.57 613.97,-433.52 622.22,-440.16 624.57,-433.57"/>
</g>
<!-- Node8 -->
<g id="node8" class="node">
<title>Node8</title>
<g id="a_node8"><a xlink:href="world_8h.html" target="_top" xlink:title=" ">
<polygon fill="none" stroke="black" points="853,-414.5 853,-433.5 937,-433.5 937,-414.5 853,-414.5"/>
<text text-anchor="middle" x="895" y="-421.5" font-family="Helvetica,sans-Serif" font-size="10.00">thorin/world.h</text>
</a>
</g>
</g>
<!-- Node1&#45;&gt;Node8 -->
<g id="edge7" class="edge">
<title>Node1&#45;&gt;Node8</title>
<path fill="none" stroke="midnightblue" d="M766.24,-470.44C791.87,-461.4 832.49,-447.06 861.24,-436.92"/>
<polygon fill="midnightblue" stroke="midnightblue" points="862.61,-440.15 870.87,-433.52 860.28,-433.54 862.61,-440.15"/>
</g>
<!-- Node3 -->
<g id="node3" class="node">
<title>Node3</title>
<g id="a_node3"><a xlink:title=" ">
<polygon fill="none" stroke="#bfbfbf" points="361.5,-353 361.5,-372 408.5,-372 408.5,-353 361.5,-353"/>
<text text-anchor="middle" x="385" y="-360" font-family="Helvetica,sans-Serif" font-size="10.00">deque</text>
</a>
</g>
</g>
<!-- Node2&#45;&gt;Node3 -->
<g id="edge2" class="edge">
<title>Node2&#45;&gt;Node3</title>
<path fill="none" stroke="midnightblue" d="M550.19,-414.47C514.98,-406.48 462.46,-393.47 418,-378 416.14,-377.35 414.24,-376.64 412.33,-375.9"/>
<polygon fill="midnightblue" stroke="midnightblue" points="413.53,-372.61 402.95,-372 410.84,-379.07 413.53,-372.61"/>
</g>
<!-- Node4 -->
<g id="node4" class="node">
<title>Node4</title>
<g id="a_node4"><a xlink:href="debug_8h.html" target="_top" xlink:title=" ">
<polygon fill="none" stroke="black" points="881.5,-179.5 881.5,-198.5 968.5,-198.5 968.5,-179.5 881.5,-179.5"/>
<text text-anchor="middle" x="925" y="-186.5" font-family="Helvetica,sans-Serif" font-size="10.00">thorin/debug.h</text>
</a>
</g>
</g>
<!-- Node2&#45;&gt;Node4 -->
<g id="edge3" class="edge">
<title>Node2&#45;&gt;Node4</title>
<path fill="none" stroke="midnightblue" d="M588.42,-414.36C584.73,-391.31 578.04,-327.59 609,-291 643.11,-250.68 790.54,-216.29 871.41,-200.03"/>
<polygon fill="midnightblue" stroke="midnightblue" points="872.28,-203.43 881.41,-198.05 870.92,-196.56 872.28,-203.43"/>
</g>
<!-- Node5 -->
<g id="node5" class="node">
<title>Node5</title>
<g id="a_node5"><a xlink:title=" ">
<polygon fill="none" stroke="#bfbfbf" points="1086,-56.5 1086,-75.5 1130,-75.5 1130,-56.5 1086,-56.5"/>
<text text-anchor="middle" x="1108" y="-63.5" font-family="Helvetica,sans-Serif" font-size="10.00">string</text>
</a>
</g>
</g>
<!-- Node4&#45;&gt;Node5 -->
<g id="edge4" class="edge">
<title>Node4&#45;&gt;Node5</title>
<path fill="none" stroke="midnightblue" d="M968.67,-187.84C1006,-185.29 1058.53,-175.55 1090,-143 1104.63,-127.87 1108.13,-103.16 1108.63,-86.04"/>
<polygon fill="midnightblue" stroke="midnightblue" points="1112.13,-85.6 1108.59,-75.61 1105.13,-85.62 1112.13,-85.6"/>
</g>
<!-- Node6 -->
<g id="node6" class="node">
<title>Node6</title>
<g id="a_node6"><a xlink:title=" ">
<polygon fill="none" stroke="#bfbfbf" points="701,-112.5 701,-142.5 805,-142.5 805,-112.5 701,-112.5"/>
<text text-anchor="start" x="709" y="-130.5" font-family="Helvetica,sans-Serif" font-size="10.00">absl/container/flat</text>
<text text-anchor="middle" x="753" y="-119.5" font-family="Helvetica,sans-Serif" font-size="10.00">_hash_map.h</text>
</a>
</g>
</g>
<!-- Node4&#45;&gt;Node6 -->
<g id="edge5" class="edge">
<title>Node4&#45;&gt;Node6</title>
<path fill="none" stroke="midnightblue" d="M900.36,-179.48C875.1,-170.74 835.12,-156.91 803.17,-145.86"/>
<polygon fill="midnightblue" stroke="midnightblue" points="804.13,-142.48 793.54,-142.52 801.84,-149.1 804.13,-142.48"/>
</g>
<!-- Node7 -->
<g id="node7" class="node">
<title>Node7</title>
<g id="a_node7"><a xlink:title=" ">
<polygon fill="none" stroke="#bfbfbf" points="861,-112.5 861,-142.5 965,-142.5 965,-112.5 861,-112.5"/>
<text text-anchor="start" x="869" y="-130.5" font-family="Helvetica,sans-Serif" font-size="10.00">absl/container/flat</text>
<text text-anchor="middle" x="913" y="-119.5" font-family="Helvetica,sans-Serif" font-size="10.00">_hash_set.h</text>
</a>
</g>
</g>
<!-- Node4&#45;&gt;Node7 -->
<g id="edge6" class="edge">
<title>Node4&#45;&gt;Node7</title>
<path fill="none" stroke="midnightblue" d="M923.28,-179.48C921.85,-172.4 919.75,-161.97 917.82,-152.39"/>
<polygon fill="midnightblue" stroke="midnightblue" points="921.24,-151.63 915.83,-142.52 914.37,-153.02 921.24,-151.63"/>
</g>
<!-- Node8&#45;&gt;Node4 -->
<g id="edge63" class="edge">
<title>Node8&#45;&gt;Node4</title>
<path fill="none" stroke="midnightblue" d="M868.07,-414.36C851.28,-407.41 831.02,-395.82 821,-378 814.25,-365.99 818.18,-360.49 821,-347 832.12,-293.82 837.17,-278.3 870,-235 879.06,-223.05 891.91,-212.31 902.91,-204.32"/>
<polygon fill="midnightblue" stroke="midnightblue" points="905.02,-207.11 911.23,-198.53 901.02,-201.37 905.02,-207.11"/>
</g>
<!-- Node8&#45;&gt;Node5 -->
<g id="edge9" class="edge">
<title>Node8&#45;&gt;Node5</title>
<path fill="none" stroke="midnightblue" d="M937.33,-423.37C1035.42,-423.5 1275,-419.44 1342,-378 1375.98,-356.99 1390,-341.95 1390,-302 1390,-302 1390,-302 1390,-188 1390,-144.41 1365.45,-134.31 1328,-112 1257.27,-69.85 1224.61,-93.98 1140.27,-76.01"/>
<polygon fill="midnightblue" stroke="midnightblue" points="1140.81,-72.55 1130.28,-73.74 1139.26,-79.37 1140.81,-72.55"/>
</g>
<!-- Node9 -->
<g id="node9" class="node">
<title>Node9</title>
<g id="a_node9"><a xlink:title=" ">
<polygon fill="none" stroke="#bfbfbf" points="1148,-56.5 1148,-75.5 1204,-75.5 1204,-56.5 1148,-56.5"/>
<text text-anchor="middle" x="1176" y="-63.5" font-family="Helvetica,sans-Serif" font-size="10.00">sstream</text>
</a>
</g>
</g>
<!-- Node8&#45;&gt;Node9 -->
<g id="edge8" class="edge">
<title>Node8&#45;&gt;Node9</title>
<path fill="none" stroke="midnightblue" d="M937.13,-423.45C1039.85,-423.87 1300.21,-420.58 1374,-378 1409.89,-357.29 1428,-343.44 1428,-302 1428,-302 1428,-302 1428,-188 1428,-94.52 1285.34,-73.21 1214.7,-68.39"/>
<polygon fill="midnightblue" stroke="midnightblue" points="1214.61,-64.88 1204.42,-67.77 1214.19,-71.86 1214.61,-64.88"/>
</g>
<!-- Node10 -->
<g id="node10" class="node">
<title>Node10</title>
<g id="a_node10"><a xlink:title=" ">
<polygon fill="none" stroke="#bfbfbf" points="1245.5,-118 1245.5,-137 1318.5,-137 1318.5,-118 1245.5,-118"/>
<text text-anchor="middle" x="1282" y="-125" font-family="Helvetica,sans-Serif" font-size="10.00">string_view</text>
</a>
</g>
</g>
<!-- Node8&#45;&gt;Node10 -->
<g id="edge10" class="edge">
<title>Node8&#45;&gt;Node10</title>
<path fill="none" stroke="midnightblue" d="M937.05,-423.47C1030.86,-423.74 1253.76,-419.84 1314,-378 1345.02,-356.46 1352,-339.76 1352,-302 1352,-302 1352,-302 1352,-244 1352,-203.46 1320.07,-164.99 1299.34,-144.29"/>
<polygon fill="midnightblue" stroke="midnightblue" points="1301.66,-141.67 1292.03,-137.26 1296.81,-146.72 1301.66,-141.67"/>
</g>
<!-- Node11 -->
<g id="node11" class="node">
<title>Node11</title>
<g id="a_node11"><a xlink:title=" ">
<polygon fill="none" stroke="#bfbfbf" points="838,-347.5 838,-377.5 952,-377.5 952,-347.5 838,-347.5"/>
<text text-anchor="start" x="846" y="-365.5" font-family="Helvetica,sans-Serif" font-size="10.00">absl/container/btree</text>
<text text-anchor="middle" x="895" y="-354.5" font-family="Helvetica,sans-Serif" font-size="10.00">_map.h</text>
</a>
</g>
</g>
<!-- Node8&#45;&gt;Node11 -->
<g id="edge11" class="edge">
<title>Node8&#45;&gt;Node11</title>
<path fill="none" stroke="midnightblue" d="M895,-414.48C895,-407.47 895,-397.19 895,-387.7"/>
<polygon fill="midnightblue" stroke="midnightblue" points="898.5,-387.52 895,-377.52 891.5,-387.52 898.5,-387.52"/>
</g>
<!-- Node12 -->
<g id="node12" class="node">
<title>Node12</title>
<g id="a_node12"><a xlink:title=" ">
<polygon fill="none" stroke="#bfbfbf" points="970,-347.5 970,-377.5 1084,-377.5 1084,-347.5 970,-347.5"/>
<text text-anchor="start" x="978" y="-365.5" font-family="Helvetica,sans-Serif" font-size="10.00">absl/container/btree</text>
<text text-anchor="middle" x="1027" y="-354.5" font-family="Helvetica,sans-Serif" font-size="10.00">_set.h</text>
</a>
</g>
</g>
<!-- Node8&#45;&gt;Node12 -->
<g id="edge12" class="edge">
<title>Node8&#45;&gt;Node12</title>
<path fill="none" stroke="midnightblue" d="M913.91,-414.48C932.79,-405.96 962.4,-392.62 986.58,-381.72"/>
<polygon fill="midnightblue" stroke="midnightblue" points="988.21,-384.82 995.89,-377.52 985.34,-378.44 988.21,-384.82"/>
</g>
<!-- Node13 -->
<g id="node13" class="node">
<title>Node13</title>
<g id="a_node13"><a xlink:href="axiom_8h.html" target="_top" xlink:title=" ">
<polygon fill="none" stroke="black" points="427,-353 427,-372 515,-372 515,-353 427,-353"/>
<text text-anchor="middle" x="471" y="-360" font-family="Helvetica,sans-Serif" font-size="10.00">thorin/axiom.h</text>
</a>
</g>
</g>
<!-- Node8&#45;&gt;Node13 -->
<g id="edge13" class="edge">
<title>Node8&#45;&gt;Node13</title>
<path fill="none" stroke="midnightblue" d="M852.8,-417.08C775.4,-406.22 610.88,-383.13 525.29,-371.12"/>
<polygon fill="midnightblue" stroke="midnightblue" points="525.64,-367.63 515.25,-369.71 524.67,-374.57 525.64,-367.63"/>
</g>
<!-- Node45 -->
<g id="node43" class="node">
<title>Node45</title>
<g id="a_node43"><a xlink:href="hash_8h.html" target="_top" xlink:title=" ">
<polygon fill="none" stroke="black" points="457.5,-118 457.5,-137 556.5,-137 556.5,-118 457.5,-118"/>
<text text-anchor="middle" x="507" y="-125" font-family="Helvetica,sans-Serif" font-size="10.00">thorin/util/hash.h</text>
</a>
</g>
</g>
<!-- Node8&#45;&gt;Node45 -->
<g id="edge74" class="edge">
<title>Node8&#45;&gt;Node45</title>
<path fill="none" stroke="midnightblue" d="M876.97,-414.38C860.1,-406.01 834.51,-392.46 814,-378 766.12,-344.25 760.7,-327.64 715,-291 660.9,-247.63 643.33,-242.08 589,-199 566.08,-180.82 540.67,-158.65 524.31,-144.08"/>
<polygon fill="midnightblue" stroke="midnightblue" points="526.42,-141.28 516.63,-137.22 521.75,-146.5 526.42,-141.28"/>
</g>
<!-- Node46 -->
<g id="node44" class="node">
<title>Node46</title>
<g id="a_node44"><a xlink:title=" ">
<polygon fill="none" stroke="#bfbfbf" points="1102,-353 1102,-372 1188,-372 1188,-353 1102,-353"/>
<text text-anchor="middle" x="1145" y="-360" font-family="Helvetica,sans-Serif" font-size="10.00">thorin/config.h</text>
</a>
</g>
</g>
<!-- Node8&#45;&gt;Node46 -->
<g id="edge62" class="edge">
<title>Node8&#45;&gt;Node46</title>
<path fill="none" stroke="midnightblue" d="M935.33,-414.43C975.44,-405.77 1038.66,-391.74 1093,-378 1097.09,-376.97 1101.35,-375.85 1105.59,-374.71"/>
<polygon fill="midnightblue" stroke="midnightblue" points="1106.65,-378.05 1115.37,-372.03 1104.8,-371.29 1106.65,-378.05"/>
</g>
<!-- Node47 -->
<g id="node45" class="node">
<title>Node47</title>
<g id="a_node45"><a xlink:href="error_8h.html" target="_top" xlink:title=" ">
<polygon fill="none" stroke="black" points="1072,-235.5 1072,-254.5 1152,-254.5 1152,-235.5 1072,-235.5"/>
<text text-anchor="middle" x="1112" y="-242.5" font-family="Helvetica,sans-Serif" font-size="10.00">thorin/error.h</text>
</a>
</g>
</g>
<!-- Node8&#45;&gt;Node47 -->
<g id="edge64" class="edge">
<title>Node8&#45;&gt;Node47</title>
<path fill="none" stroke="midnightblue" d="M937.02,-421.38C1034.86,-417.18 1271.42,-404.38 1295,-378 1344.02,-323.16 1222.68,-277.75 1154.52,-257.45"/>
<polygon fill="midnightblue" stroke="midnightblue" points="1155.46,-254.07 1144.88,-254.63 1153.5,-260.79 1155.46,-254.07"/>
</g>
<!-- Node49 -->
<g id="node47" class="node">
<title>Node49</title>
<g id="a_node47"><a xlink:href="flags_8h.html" target="_top" xlink:title=" ">
<polygon fill="none" stroke="black" points="1206,-353 1206,-372 1286,-372 1286,-353 1206,-353"/>
<text text-anchor="middle" x="1246" y="-360" font-family="Helvetica,sans-Serif" font-size="10.00">thorin/flags.h</text>
</a>
</g>
</g>
<!-- Node8&#45;&gt;Node49 -->
<g id="edge69" class="edge">
<title>Node8&#45;&gt;Node49</title>
<path fill="none" stroke="midnightblue" d="M937.36,-418.58C996.09,-412.03 1105.39,-398.28 1197,-378 1201.19,-377.07 1205.55,-375.98 1209.86,-374.81"/>
<polygon fill="midnightblue" stroke="midnightblue" points="1211.07,-378.11 1219.73,-372.01 1209.15,-371.37 1211.07,-378.11"/>
</g>
<!-- Node50 -->
<g id="node48" class="node">
<title>Node50</title>
<g id="a_node48"><a xlink:href="lattice_8h.html" target="_top" xlink:title=" ">
<polygon fill="none" stroke="black" points="618,-291.5 618,-310.5 706,-310.5 706,-291.5 618,-291.5"/>
<text text-anchor="middle" x="662" y="-298.5" font-family="Helvetica,sans-Serif" font-size="10.00">thorin/lattice.h</text>
</a>
</g>
</g>
<!-- Node8&#45;&gt;Node50 -->
<g id="edge70" class="edge">
<title>Node8&#45;&gt;Node50</title>
<path fill="none" stroke="midnightblue" d="M852.97,-419.97C815.42,-415.55 760.27,-404.69 720,-378 697.79,-363.28 680.63,-337.15 670.92,-319.69"/>
<polygon fill="midnightblue" stroke="midnightblue" points="673.86,-317.77 666.08,-310.57 667.68,-321.05 673.86,-317.77"/>
</g>
<!-- Node51 -->
<g id="node49" class="node">
<title>Node51</title>
<g id="a_node49"><a xlink:href="tuple_8h.html" target="_top" xlink:title=" ">
<polygon fill="none" stroke="black" points="480,-291.5 480,-310.5 562,-310.5 562,-291.5 480,-291.5"/>
<text text-anchor="middle" x="521" y="-298.5" font-family="Helvetica,sans-Serif" font-size="10.00">thorin/tuple.h</text>
</a>
</g>
</g>
<!-- Node8&#45;&gt;Node51 -->
<g id="edge72" class="edge">
<title>Node8&#45;&gt;Node51</title>
<path fill="none" stroke="midnightblue" d="M852.83,-416.8C809.89,-409.84 741.76,-396.97 685,-378 633.48,-360.78 576.65,-332.1 545.25,-315.33"/>
<polygon fill="midnightblue" stroke="midnightblue" points="546.82,-312.2 536.35,-310.54 543.5,-318.36 546.82,-312.2"/>
</g>
<!-- Node52 -->
<g id="node50" class="node">
<title>Node52</title>
<g id="a_node50"><a xlink:href="log_8h.html" target="_top" xlink:title=" ">
<polygon fill="none" stroke="black" points="879.5,-235.5 879.5,-254.5 970.5,-254.5 970.5,-235.5 879.5,-235.5"/>
<text text-anchor="middle" x="925" y="-242.5" font-family="Helvetica,sans-Serif" font-size="10.00">thorin/util/log.h</text>
</a>
</g>
</g>
<!-- Node8&#45;&gt;Node52 -->
<g id="edge75" class="edge">
<title>Node8&#45;&gt;Node52</title>
<path fill="none" stroke="midnightblue" d="M872.54,-414.38C857.23,-407.18 838.14,-395.29 829,-378 822.56,-365.82 823.89,-359.79 829,-347 843.96,-309.55 880.14,-278.04 903.57,-260.62"/>
<polygon fill="midnightblue" stroke="midnightblue" points="905.78,-263.34 911.85,-254.65 901.69,-257.66 905.78,-263.34"/>
</g>
<!-- Node14 -->
<g id="node14" class="node">
<title>Node14</title>
<g id="a_node14"><a xlink:href="lam_8h.html" target="_top" xlink:title=" ">
<polygon fill="none" stroke="black" points="386,-291.5 386,-310.5 462,-310.5 462,-291.5 386,-291.5"/>
<text text-anchor="middle" x="424" y="-298.5" font-family="Helvetica,sans-Serif" font-size="10.00">thorin/lam.h</text>
</a>
</g>
</g>
<!-- Node13&#45;&gt;Node14 -->
<g id="edge14" class="edge">
<title>Node13&#45;&gt;Node14</title>
<path fill="none" stroke="midnightblue" d="M464.27,-352.98C457.22,-344.05 445.97,-329.81 437.15,-318.64"/>
<polygon fill="midnightblue" stroke="midnightblue" points="439.67,-316.19 430.72,-310.51 434.17,-320.53 439.67,-316.19"/>
</g>
<!-- Node25 -->
<g id="node25" class="node">
<title>Node25</title>
<g id="a_node25"><a xlink:href="assert_8h.html" target="_top" xlink:title=" ">
<polygon fill="none" stroke="black" points="711,-56.5 711,-75.5 817,-75.5 817,-56.5 711,-56.5"/>
<text text-anchor="middle" x="764" y="-63.5" font-family="Helvetica,sans-Serif" font-size="10.00">thorin/util/assert.h</text>
</a>
</g>
</g>
<!-- Node13&#45;&gt;Node25 -->
<g id="edge61" class="edge">
<title>Node13&#45;&gt;Node25</title>
<path fill="none" stroke="midnightblue" d="M436.92,-352.87C415.65,-345.52 389.93,-332.62 377,-311 346.89,-260.65 353.77,-232.87 377,-179 435.72,-42.85 547.09,-95.13 700.72,-76.08"/>
<polygon fill="midnightblue" stroke="midnightblue" points="701.45,-79.51 710.9,-74.72 700.53,-72.58 701.45,-79.51"/>
</g>
<!-- Node15 -->
<g id="node15" class="node">
<title>Node15</title>
<g id="a_node15"><a xlink:title=" ">
<polygon fill="none" stroke="#bfbfbf" points="398.5,-235.5 398.5,-254.5 449.5,-254.5 449.5,-235.5 398.5,-235.5"/>
<text text-anchor="middle" x="424" y="-242.5" font-family="Helvetica,sans-Serif" font-size="10.00">variant</text>
</a>
</g>
</g>
<!-- Node14&#45;&gt;Node15 -->
<g id="edge15" class="edge">
<title>Node14&#45;&gt;Node15</title>
<path fill="none" stroke="midnightblue" d="M424,-291.08C424,-284.01 424,-273.86 424,-264.99"/>
<polygon fill="midnightblue" stroke="midnightblue" points="427.5,-264.75 424,-254.75 420.5,-264.75 427.5,-264.75"/>
</g>
<!-- Node16 -->
<g id="node16" class="node">
<title>Node16</title>
<g id="a_node16"><a xlink:href="def_8h.html" target="_top" xlink:title=" ">
<polygon fill="none" stroke="black" points="470,-235.5 470,-254.5 542,-254.5 542,-235.5 470,-235.5"/>
<text text-anchor="middle" x="506" y="-242.5" font-family="Helvetica,sans-Serif" font-size="10.00">thorin/def.h</text>
</a>
</g>
</g>
<!-- Node14&#45;&gt;Node16 -->
<g id="edge16" class="edge">
<title>Node14&#45;&gt;Node16</title>
<path fill="none" stroke="midnightblue" d="M437.17,-291.32C449.85,-282.98 469.23,-270.21 484.21,-260.35"/>
<polygon fill="midnightblue" stroke="midnightblue" points="486.43,-263.08 492.86,-254.65 482.58,-257.23 486.43,-263.08"/>
</g>
<!-- Node16&#45;&gt;Node4 -->
<g id="edge19" class="edge">
<title>Node16&#45;&gt;Node4</title>
<path fill="none" stroke="midnightblue" d="M542.18,-240.11C606.29,-233.09 744.25,-217.45 871.44,-199.02"/>
<polygon fill="midnightblue" stroke="midnightblue" points="871.96,-202.48 881.35,-197.57 870.95,-195.55 871.96,-202.48"/>
</g>
<!-- Node17 -->
<g id="node17" class="node">
<title>Node17</title>
<g id="a_node17"><a xlink:title=" ">
<polygon fill="none" stroke="#bfbfbf" points="386,-179.5 386,-198.5 442,-198.5 442,-179.5 386,-179.5"/>
<text text-anchor="middle" x="414" y="-186.5" font-family="Helvetica,sans-Serif" font-size="10.00">optional</text>
</a>
</g>
</g>
<!-- Node16&#45;&gt;Node17 -->
<g id="edge17" class="edge">
<title>Node16&#45;&gt;Node17</title>
<path fill="none" stroke="midnightblue" d="M491.22,-235.32C476.73,-226.82 454.43,-213.73 437.51,-203.8"/>
<polygon fill="midnightblue" stroke="midnightblue" points="439.14,-200.7 428.74,-198.65 435.6,-206.74 439.14,-200.7"/>
</g>
<!-- Node18 -->
<g id="node18" class="node">
<title>Node18</title>
<g id="a_node18"><a xlink:title=" ">
<polygon fill="none" stroke="#bfbfbf" points="91.5,-56.5 91.5,-75.5 138.5,-75.5 138.5,-56.5 91.5,-56.5"/>
<text text-anchor="middle" x="115" y="-63.5" font-family="Helvetica,sans-Serif" font-size="10.00">vector</text>
</a>
</g>
</g>
<!-- Node16&#45;&gt;Node18 -->
<g id="edge18" class="edge">
<title>Node16&#45;&gt;Node18</title>
<path fill="none" stroke="midnightblue" d="M479.01,-235.49C452.7,-226.99 411.69,-213.17 377,-199 286.32,-161.96 184.02,-106.08 138.74,-80.56"/>
<polygon fill="midnightblue" stroke="midnightblue" points="140.39,-77.48 129.96,-75.6 136.94,-83.57 140.39,-77.48"/>
</g>
<!-- Node19 -->
<g id="node19" class="node">
<title>Node19</title>
<g id="a_node19"><a xlink:href="tables_8h.html" target="_top" xlink:title=" ">
<polygon fill="none" stroke="black" points="776.5,-179.5 776.5,-198.5 863.5,-198.5 863.5,-179.5 776.5,-179.5"/>
<text text-anchor="middle" x="820" y="-186.5" font-family="Helvetica,sans-Serif" font-size="10.00">thorin/tables.h</text>
</a>
</g>
</g>
<!-- Node16&#45;&gt;Node19 -->
<g id="edge20" class="edge">
<title>Node16&#45;&gt;Node19</title>
<path fill="none" stroke="midnightblue" d="M542.02,-237.81C597.07,-228.34 702.46,-210.21 766.48,-199.2"/>
<polygon fill="midnightblue" stroke="midnightblue" points="767.12,-202.65 776.38,-197.5 765.93,-195.75 767.12,-202.65"/>
</g>
<!-- Node20 -->
<g id="node20" class="node">
<title>Node20</title>
<g id="a_node20"><a xlink:href="print_8h.html" target="_top" xlink:title=" ">
<polygon fill="none" stroke="black" points="983,-118 983,-137 1081,-137 1081,-118 983,-118"/>
<text text-anchor="middle" x="1032" y="-125" font-family="Helvetica,sans-Serif" font-size="10.00">thorin/util/print.h</text>
</a>
</g>
</g>
<!-- Node16&#45;&gt;Node20 -->
<g id="edge60" class="edge">
<title>Node16&#45;&gt;Node20</title>
<path fill="none" stroke="midnightblue" d="M542.18,-239.76C586.8,-233.84 664.53,-221.23 728,-199 746.38,-192.56 748.53,-185.18 767,-179 855.55,-149.36 882.64,-162.34 974,-143 979.07,-141.93 984.38,-140.72 989.63,-139.47"/>
<polygon fill="midnightblue" stroke="midnightblue" points="990.69,-142.81 999.58,-137.05 989.04,-136.01 990.69,-142.81"/>
</g>
<!-- Node33 -->
<g id="node33" class="node">
<title>Node33</title>
<g id="a_node33"><a xlink:href="array_8h.html" target="_top" xlink:title=" ">
<polygon fill="none" stroke="black" points="267,-118 267,-137 367,-137 367,-118 267,-118"/>
<text text-anchor="middle" x="317" y="-125" font-family="Helvetica,sans-Serif" font-size="10.00">thorin/util/array.h</text>
</a>
</g>
</g>
<!-- Node16&#45;&gt;Node33 -->
<g id="edge38" class="edge">
<title>Node16&#45;&gt;Node33</title>
<path fill="none" stroke="midnightblue" d="M500.67,-235.19C491.91,-221.4 473.22,-194.68 451,-179 424.77,-160.49 390.9,-147.8 363.78,-139.78"/>
<polygon fill="midnightblue" stroke="midnightblue" points="364.69,-136.4 354.12,-137.03 362.78,-143.13 364.69,-136.4"/>
</g>
<!-- Node39 -->
<g id="node39" class="node">
<title>Node39</title>
<g id="a_node39"><a xlink:href="cast_8h.html" target="_top" xlink:title=" ">
<polygon fill="none" stroke="black" points="0,-118 0,-137 96,-137 96,-118 0,-118"/>
<text text-anchor="middle" x="48" y="-125" font-family="Helvetica,sans-Serif" font-size="10.00">thorin/util/cast.h</text>
</a>
</g>
</g>
<!-- Node16&#45;&gt;Node39 -->
<g id="edge49" class="edge">
<title>Node16&#45;&gt;Node39</title>
<path fill="none" stroke="midnightblue" d="M469.87,-236.99C465.87,-236.29 461.85,-235.61 458,-235 333.63,-215.39 296.76,-237.86 177,-199 136.1,-185.73 93.16,-159.39 68.58,-142.93"/>
<polygon fill="midnightblue" stroke="midnightblue" points="70.34,-139.89 60.1,-137.16 66.4,-145.68 70.34,-139.89"/>
</g>
<!-- Node40 -->
<g id="node40" class="node">
<title>Node40</title>
<g id="a_node40"><a xlink:href="container_8h.html" target="_top" xlink:title=" ">
<polygon fill="none" stroke="red" points="598.5,-179.5 598.5,-198.5 719.5,-198.5 719.5,-179.5 598.5,-179.5"/>
<text text-anchor="middle" x="659" y="-186.5" font-family="Helvetica,sans-Serif" font-size="10.00">thorin/util/container.h</text>
</a>
</g>
</g>
<!-- Node16&#45;&gt;Node40 -->
<g id="edge52" class="edge">
<title>Node16&#45;&gt;Node40</title>
<path fill="none" stroke="midnightblue" d="M530.24,-235.44C555.87,-226.4 596.49,-212.06 625.24,-201.92"/>
<polygon fill="midnightblue" stroke="midnightblue" points="626.61,-205.15 634.87,-198.52 624.28,-198.54 626.61,-205.15"/>
</g>
<!-- Node16&#45;&gt;Node45 -->
<g id="edge59" class="edge">
<title>Node16&#45;&gt;Node45</title>
<path fill="none" stroke="midnightblue" d="M506.08,-235.32C506.24,-216.76 506.62,-172.84 506.84,-147.47"/>
<polygon fill="midnightblue" stroke="midnightblue" points="510.34,-147.31 506.92,-137.28 503.34,-147.25 510.34,-147.31"/>
</g>
<!-- Node19&#45;&gt;Node10 -->
<g id="edge21" class="edge">
<title>Node19&#45;&gt;Node10</title>
<path fill="none" stroke="midnightblue" d="M863.67,-180.28C866.49,-179.83 869.28,-179.4 872,-179 1003.28,-159.57 1159,-141.84 1235.23,-133.51"/>
<polygon fill="midnightblue" stroke="midnightblue" points="1235.88,-136.96 1245.44,-132.4 1235.12,-130 1235.88,-136.96"/>
</g>
<!-- Node19&#45;&gt;Node20 -->
<g id="edge22" class="edge">
<title>Node19&#45;&gt;Node20</title>
<path fill="none" stroke="midnightblue" d="M850.37,-179.48C887.61,-169.03 950.81,-151.29 991.98,-139.73"/>
<polygon fill="midnightblue" stroke="midnightblue" points="993,-143.08 1001.68,-137.01 991.11,-136.34 993,-143.08"/>
</g>
<!-- Node27 -->
<g id="node27" class="node">
<title>Node27</title>
<g id="a_node27"><a xlink:href="types_8h.html" target="_top" xlink:title=" ">
<polygon fill="none" stroke="black" points="835.5,-56.5 835.5,-75.5 938.5,-75.5 938.5,-56.5 835.5,-56.5"/>
<text text-anchor="middle" x="887" y="-63.5" font-family="Helvetica,sans-Serif" font-size="10.00">thorin/util/types.h</text>
</a>
</g>
</g>
<!-- Node19&#45;&gt;Node27 -->
<g id="edge31" class="edge">
<title>Node19&#45;&gt;Node27</title>
<path fill="none" stroke="midnightblue" d="M822.85,-179.21C827.75,-164.69 838.54,-134.98 852,-112 857.87,-101.98 865.7,-91.7 872.47,-83.5"/>
<polygon fill="midnightblue" stroke="midnightblue" points="875.2,-85.69 879.01,-75.8 869.87,-81.16 875.2,-85.69"/>
</g>
<!-- Node20&#45;&gt;Node5 -->
<g id="edge28" class="edge">
<title>Node20&#45;&gt;Node5</title>
<path fill="none" stroke="midnightblue" d="M1042.89,-117.98C1054.97,-108.52 1074.67,-93.1 1089.24,-81.69"/>
<polygon fill="midnightblue" stroke="midnightblue" points="1091.41,-84.43 1097.13,-75.51 1087.1,-78.92 1091.41,-84.43"/>
</g>
<!-- Node20&#45;&gt;Node9 -->
<g id="edge27" class="edge">
<title>Node20&#45;&gt;Node9</title>
<path fill="none" stroke="midnightblue" d="M1052.63,-117.98C1077.12,-107.86 1118.15,-90.9 1146.11,-79.35"/>
<polygon fill="midnightblue" stroke="midnightblue" points="1147.5,-82.56 1155.41,-75.51 1144.83,-76.09 1147.5,-82.56"/>
</g>
<!-- Node21 -->
<g id="node21" class="node">
<title>Node21</title>
<g id="a_node21"><a xlink:title=" ">
<polygon fill="none" stroke="#bfbfbf" points="559.5,-56.5 559.5,-75.5 624.5,-75.5 624.5,-56.5 559.5,-56.5"/>
<text text-anchor="middle" x="592" y="-63.5" font-family="Helvetica,sans-Serif" font-size="10.00">functional</text>
</a>
</g>
</g>
<!-- Node20&#45;&gt;Node21 -->
<g id="edge23" class="edge">
<title>Node20&#45;&gt;Node21</title>
<path fill="none" stroke="midnightblue" d="M1001.17,-117.94C992.44,-115.75 982.89,-113.57 974,-112 827.59,-86.08 785.84,-99.35 635.05,-76"/>
<polygon fill="midnightblue" stroke="midnightblue" points="635.38,-72.51 624.95,-74.41 634.29,-79.42 635.38,-72.51"/>
</g>
<!-- Node22 -->
<g id="node22" class="node">
<title>Node22</title>
<g id="a_node22"><a xlink:title=" ">
<polygon fill="none" stroke="#bfbfbf" points="957,-56.5 957,-75.5 1017,-75.5 1017,-56.5 957,-56.5"/>
<text text-anchor="middle" x="987" y="-63.5" font-family="Helvetica,sans-Serif" font-size="10.00">iostream</text>
</a>
</g>
</g>
<!-- Node20&#45;&gt;Node22 -->
<g id="edge24" class="edge">
<title>Node20&#45;&gt;Node22</title>
<path fill="none" stroke="midnightblue" d="M1025.55,-117.98C1018.8,-109.05 1008.03,-94.81 999.59,-83.64"/>
<polygon fill="midnightblue" stroke="midnightblue" points="1002.26,-81.37 993.44,-75.51 996.68,-85.6 1002.26,-81.37"/>
</g>
<!-- Node23 -->
<g id="node23" class="node">
<title>Node23</title>
<g id="a_node23"><a xlink:title=" ">
<polygon fill="none" stroke="#bfbfbf" points="1012.5,-0.5 1012.5,-19.5 1069.5,-19.5 1069.5,-0.5 1012.5,-0.5"/>
<text text-anchor="middle" x="1041" y="-7.5" font-family="Helvetica,sans-Serif" font-size="10.00">ostream</text>
</a>
</g>
</g>
<!-- Node20&#45;&gt;Node23 -->
<g id="edge25" class="edge">
<title>Node20&#45;&gt;Node23</title>
<path fill="none" stroke="midnightblue" d="M1032.68,-117.82C1034.12,-99.26 1037.55,-55.34 1039.52,-29.97"/>
<polygon fill="midnightblue" stroke="midnightblue" points="1043.03,-30.02 1040.32,-19.78 1036.05,-29.48 1043.03,-30.02"/>
</g>
<!-- Node24 -->
<g id="node24" class="node">
<title>Node24</title>
<g id="a_node24"><a xlink:title=" ">
<polygon fill="none" stroke="#bfbfbf" points="643,-56.5 643,-75.5 693,-75.5 693,-56.5 643,-56.5"/>
<text text-anchor="middle" x="668" y="-63.5" font-family="Helvetica,sans-Serif" font-size="10.00">ranges</text>
</a>
</g>
</g>
<!-- Node20&#45;&gt;Node24 -->
<g id="edge26" class="edge">
<title>Node20&#45;&gt;Node24</title>
<path fill="none" stroke="midnightblue" d="M1000.54,-117.94C991.97,-115.8 982.67,-113.65 974,-112 857.37,-89.78 823.41,-99.12 703.13,-76"/>
<polygon fill="midnightblue" stroke="midnightblue" points="703.65,-72.53 693.17,-74.04 702.31,-79.4 703.65,-72.53"/>
</g>
<!-- Node20&#45;&gt;Node25 -->
<g id="edge29" class="edge">
<title>Node20&#45;&gt;Node25</title>
<path fill="none" stroke="midnightblue" d="M998.62,-117.95C990.57,-115.94 981.99,-113.85 974,-112 920.2,-99.51 858.35,-86.41 815.78,-77.59"/>
<polygon fill="midnightblue" stroke="midnightblue" points="816.43,-74.15 805.93,-75.55 815.01,-81 816.43,-74.15"/>
</g>
<!-- Node26 -->
<g id="node26" class="node">
<title>Node26</title>
<g id="a_node26"><a xlink:title=" ">
<polygon fill="none" stroke="#bfbfbf" points="467,-0.5 467,-19.5 519,-19.5 519,-0.5 467,-0.5"/>
<text text-anchor="middle" x="493" y="-7.5" font-family="Helvetica,sans-Serif" font-size="10.00">cassert</text>
</a>
</g>
</g>
<!-- Node25&#45;&gt;Node26 -->
<g id="edge30" class="edge">
<title>Node25&#45;&gt;Node26</title>
<path fill="none" stroke="midnightblue" d="M721.06,-56.44C668.11,-45.89 579.04,-28.15 529.33,-18.24"/>
<polygon fill="midnightblue" stroke="midnightblue" points="529.84,-14.77 519.35,-16.25 528.47,-21.64 529.84,-14.77"/>
</g>
<!-- Node27&#45;&gt;Node23 -->
<g id="edge34" class="edge">
<title>Node27&#45;&gt;Node23</title>
<path fill="none" stroke="midnightblue" d="M911.4,-56.44C937.2,-47.4 978.08,-33.06 1007.02,-22.92"/>
<polygon fill="midnightblue" stroke="midnightblue" points="1008.43,-26.13 1016.71,-19.52 1006.12,-19.52 1008.43,-26.13"/>
</g>
<!-- Node28 -->
<g id="node28" class="node">
<title>Node28</title>
<g id="a_node28"><a xlink:title=" ">
<polygon fill="none" stroke="#bfbfbf" points="937,-0.5 937,-19.5 987,-19.5 987,-0.5 937,-0.5"/>
<text text-anchor="middle" x="962" y="-7.5" font-family="Helvetica,sans-Serif" font-size="10.00">cstdint</text>
</a>
</g>
</g>
<!-- Node27&#45;&gt;Node28 -->
<g id="edge32" class="edge">
<title>Node27&#45;&gt;Node28</title>
<path fill="none" stroke="midnightblue" d="M899.05,-56.32C910.46,-48.11 927.83,-35.6 941.43,-25.81"/>
<polygon fill="midnightblue" stroke="midnightblue" points="943.66,-28.52 949.73,-19.83 939.57,-22.84 943.66,-28.52"/>
</g>
<!-- Node29 -->
<g id="node29" class="node">
<title>Node29</title>
<g id="a_node29"><a xlink:title=" ">
<polygon fill="none" stroke="#bfbfbf" points="735,-0.5 735,-19.5 779,-19.5 779,-0.5 735,-0.5"/>
<text text-anchor="middle" x="757" y="-7.5" font-family="Helvetica,sans-Serif" font-size="10.00">limits</text>
</a>
</g>
</g>
<!-- Node27&#45;&gt;Node29 -->
<g id="edge33" class="edge">
<title>Node27&#45;&gt;Node29</title>
<path fill="none" stroke="midnightblue" d="M866.4,-56.44C845.01,-47.56 811.32,-33.56 786.98,-23.45"/>
<polygon fill="midnightblue" stroke="midnightblue" points="788.08,-20.12 777.5,-19.52 785.39,-26.58 788.08,-20.12"/>
</g>
<!-- Node30 -->
<g id="node30" class="node">
<title>Node30</title>
<g id="a_node30"><a xlink:title=" ">
<polygon fill="none" stroke="#bfbfbf" points="594.5,-0.5 594.5,-19.5 663.5,-19.5 663.5,-0.5 594.5,-0.5"/>
<text text-anchor="middle" x="629" y="-7.5" font-family="Helvetica,sans-Serif" font-size="10.00">type_traits</text>
</a>
</g>
</g>
<!-- Node27&#45;&gt;Node30 -->
<g id="edge35" class="edge">
<title>Node27&#45;&gt;Node30</title>
<path fill="none" stroke="midnightblue" d="M846.12,-56.44C799.16,-46.61 722.36,-30.54 673.81,-20.38"/>
<polygon fill="midnightblue" stroke="midnightblue" points="674.4,-16.93 663.9,-18.3 672.97,-23.78 674.4,-16.93"/>
</g>
<!-- Node31 -->
<g id="node31" class="node">
<title>Node31</title>
<g id="a_node31"><a xlink:title=" ">
<polygon fill="none" stroke="#bfbfbf" points="797.5,-0.5 797.5,-19.5 844.5,-19.5 844.5,-0.5 797.5,-0.5"/>
<text text-anchor="middle" x="821" y="-7.5" font-family="Helvetica,sans-Serif" font-size="10.00">cmath</text>
</a>
</g>
</g>
<!-- Node27&#45;&gt;Node31 -->
<g id="edge36" class="edge">
<title>Node27&#45;&gt;Node31</title>
<path fill="none" stroke="midnightblue" d="M876.4,-56.32C866.54,-48.26 851.65,-36.08 839.78,-26.37"/>
<polygon fill="midnightblue" stroke="midnightblue" points="841.75,-23.46 831.8,-19.83 837.32,-28.88 841.75,-23.46"/>
</g>
<!-- Node32 -->
<g id="node32" class="node">
<title>Node32</title>
<g id="a_node32"><a xlink:title=" ">
<polygon fill="none" stroke="#bfbfbf" points="863,-0.5 863,-19.5 919,-19.5 919,-0.5 863,-0.5"/>
<text text-anchor="middle" x="891" y="-7.5" font-family="Helvetica,sans-Serif" font-size="10.00">half.hpp</text>
</a>
</g>
</g>
<!-- Node27&#45;&gt;Node32 -->
<g id="edge37" class="edge">
<title>Node27&#45;&gt;Node32</title>
<path fill="none" stroke="midnightblue" d="M887.66,-56.08C888.18,-49.01 888.94,-38.86 889.59,-29.99"/>
<polygon fill="midnightblue" stroke="midnightblue" points="893.1,-29.98 890.35,-19.75 886.12,-29.47 893.1,-29.98"/>
</g>
<!-- Node33&#45;&gt;Node18 -->
<g id="edge48" class="edge">
<title>Node33&#45;&gt;Node18</title>
<path fill="none" stroke="midnightblue" d="M288.06,-117.98C251.11,-107.09 187.3,-88.3 148.35,-76.82"/>
<polygon fill="midnightblue" stroke="midnightblue" points="149.12,-73.4 138.54,-73.93 147.14,-80.12 149.12,-73.4"/>
</g>
<!-- Node33&#45;&gt;Node21 -->
<g id="edge43" class="edge">
<title>Node33&#45;&gt;Node21</title>
<path fill="none" stroke="midnightblue" d="M354.21,-117.99C362.99,-116 372.32,-113.91 381,-112 439.3,-99.18 506.78,-84.88 549.42,-75.92"/>
<polygon fill="midnightblue" stroke="midnightblue" points="550.37,-79.29 559.44,-73.81 548.93,-72.44 550.37,-79.29"/>
</g>
<!-- Node33&#45;&gt;Node24 -->
<g id="edge46" class="edge">
<title>Node33&#45;&gt;Node24</title>
<path fill="none" stroke="midnightblue" d="M352.44,-117.93C361.7,-115.84 371.7,-113.71 381,-112 492.26,-91.48 522.05,-98.12 633,-76 633.1,-75.98 633.2,-75.96 633.3,-75.94"/>
<polygon fill="midnightblue" stroke="midnightblue" points="633.84,-79.41 642.84,-73.82 632.32,-72.57 633.84,-79.41"/>
</g>
<!-- Node33&#45;&gt;Node26 -->
<g id="edge39" class="edge">
<title>Node33&#45;&gt;Node26</title>
<path fill="none" stroke="midnightblue" d="M348.78,-117.91C391.76,-106.03 464.08,-85.05 473,-76 485.03,-63.79 489.85,-44.52 491.77,-30.13"/>
<polygon fill="midnightblue" stroke="midnightblue" points="495.28,-30.15 492.76,-19.86 488.31,-29.48 495.28,-30.15"/>
</g>
<!-- Node33&#45;&gt;Node30 -->
<g id="edge47" class="edge">
<title>Node33&#45;&gt;Node30</title>
<path fill="none" stroke="midnightblue" d="M353.3,-117.97C389.3,-109.07 445.74,-93.93 493,-76 532.88,-60.87 577.1,-38.66 603.98,-24.52"/>
<polygon fill="midnightblue" stroke="midnightblue" points="605.86,-27.48 613.05,-19.7 602.58,-21.29 605.86,-27.48"/>
</g>
<!-- Node34 -->
<g id="node34" class="node">
<title>Node34</title>
<g id="a_node34"><a xlink:title=" ">
<polygon fill="none" stroke="#bfbfbf" points="156.5,-56.5 156.5,-75.5 209.5,-75.5 209.5,-56.5 156.5,-56.5"/>
<text text-anchor="middle" x="183" y="-63.5" font-family="Helvetica,sans-Serif" font-size="10.00">cstddef</text>
</a>
</g>
</g>
<!-- Node33&#45;&gt;Node34 -->
<g id="edge40" class="edge">
<title>Node33&#45;&gt;Node34</title>
<path fill="none" stroke="midnightblue" d="M297.8,-117.98C275.21,-107.95 237.5,-91.2 211.5,-79.65"/>
<polygon fill="midnightblue" stroke="midnightblue" points="212.72,-76.37 202.16,-75.51 209.88,-82.77 212.72,-76.37"/>
</g>
<!-- Node35 -->
<g id="node35" class="node">
<title>Node35</title>
<g id="a_node35"><a xlink:title=" ">
<polygon fill="none" stroke="#bfbfbf" points="23,-56.5 23,-75.5 73,-75.5 73,-56.5 23,-56.5"/>
<text text-anchor="middle" x="48" y="-63.5" font-family="Helvetica,sans-Serif" font-size="10.00">cstring</text>
</a>
</g>
</g>
<!-- Node33&#45;&gt;Node35 -->
<g id="edge41" class="edge">
<title>Node33&#45;&gt;Node35</title>
<path fill="none" stroke="midnightblue" d="M274.41,-117.98C229.25,-108.8 155.63,-93.44 82.99,-76.16"/>
<polygon fill="midnightblue" stroke="midnightblue" points="83.76,-72.74 73.22,-73.82 82.13,-79.55 83.76,-72.74"/>
</g>
<!-- Node36 -->
<g id="node36" class="node">
<title>Node36</title>
<g id="a_node36"><a xlink:title=" ">
<polygon fill="none" stroke="#bfbfbf" points="228,-56.5 228,-75.5 292,-75.5 292,-56.5 228,-56.5"/>
<text text-anchor="middle" x="260" y="-63.5" font-family="Helvetica,sans-Serif" font-size="10.00">algorithm</text>
</a>
</g>
</g>
<!-- Node33&#45;&gt;Node36 -->
<g id="edge42" class="edge">
<title>Node33&#45;&gt;Node36</title>
<path fill="none" stroke="midnightblue" d="M308.83,-117.98C300.11,-108.87 286.1,-94.24 275.31,-82.98"/>
<polygon fill="midnightblue" stroke="midnightblue" points="277.6,-80.31 268.15,-75.51 272.54,-85.15 277.6,-80.31"/>
</g>
<!-- Node37 -->
<g id="node37" class="node">
<title>Node37</title>
<g id="a_node37"><a xlink:title=" ">
<polygon fill="none" stroke="#bfbfbf" points="310.5,-56.5 310.5,-75.5 393.5,-75.5 393.5,-56.5 310.5,-56.5"/>
<text text-anchor="middle" x="352" y="-63.5" font-family="Helvetica,sans-Serif" font-size="10.00">initializer_list</text>
</a>
</g>
</g>
<!-- Node33&#45;&gt;Node37 -->
<g id="edge44" class="edge">
<title>Node33&#45;&gt;Node37</title>
<path fill="none" stroke="midnightblue" d="M322.01,-117.98C327.16,-109.23 335.31,-95.37 341.82,-84.31"/>
<polygon fill="midnightblue" stroke="midnightblue" points="344.94,-85.9 346.99,-75.51 338.91,-82.35 344.94,-85.9"/>
</g>
<!-- Node38 -->
<g id="node38" class="node">
<title>Node38</title>
<g id="a_node38"><a xlink:title=" ">
<polygon fill="none" stroke="#bfbfbf" points="411.5,-56.5 411.5,-75.5 464.5,-75.5 464.5,-56.5 411.5,-56.5"/>
<text text-anchor="middle" x="438" y="-63.5" font-family="Helvetica,sans-Serif" font-size="10.00">iterator</text>
</a>
</g>
</g>
<!-- Node33&#45;&gt;Node38 -->
<g id="edge45" class="edge">
<title>Node33&#45;&gt;Node38</title>
<path fill="none" stroke="midnightblue" d="M334.34,-117.98C354.55,-108.03 388.19,-91.49 411.64,-79.96"/>
<polygon fill="midnightblue" stroke="midnightblue" points="413.27,-83.06 420.7,-75.51 410.18,-76.78 413.27,-83.06"/>
</g>
<!-- Node39&#45;&gt;Node26 -->
<g id="edge50" class="edge">
<title>Node39&#45;&gt;Node26</title>
<path fill="none" stroke="midnightblue" d="M37.95,-117.76C22.64,-103.44 -3.02,-74.69 14,-56 43.66,-23.42 349.84,-13.98 456.56,-11.66"/>
<polygon fill="midnightblue" stroke="midnightblue" points="456.9,-15.16 466.83,-11.45 456.76,-8.16 456.9,-15.16"/>
</g>
<!-- Node39&#45;&gt;Node35 -->
<g id="edge51" class="edge">
<title>Node39&#45;&gt;Node35</title>
<path fill="none" stroke="midnightblue" d="M48,-117.98C48,-109.58 48,-96.48 48,-85.66"/>
<polygon fill="midnightblue" stroke="midnightblue" points="51.5,-85.51 48,-75.51 44.5,-85.51 51.5,-85.51"/>
</g>
<!-- Node40&#45;&gt;Node6 -->
<g id="edge55" class="edge">
<title>Node40&#45;&gt;Node6</title>
<path fill="none" stroke="midnightblue" d="M672.47,-179.48C685.44,-171.27 705.51,-158.56 722.38,-147.88"/>
<polygon fill="midnightblue" stroke="midnightblue" points="724.27,-150.83 730.85,-142.52 720.52,-144.91 724.27,-150.83"/>
</g>
<!-- Node40&#45;&gt;Node7 -->
<g id="edge56" class="edge">
<title>Node40&#45;&gt;Node7</title>
<path fill="none" stroke="midnightblue" d="M695.39,-179.48C735.95,-169.98 802.22,-154.45 850.99,-143.03"/>
<polygon fill="midnightblue" stroke="midnightblue" points="851.87,-146.42 860.8,-140.73 850.27,-139.6 851.87,-146.42"/>
</g>
<!-- Node41 -->
<g id="node41" class="node">
<title>Node41</title>
<g id="a_node41"><a xlink:title=" ">
<polygon fill="none" stroke="#bfbfbf" points="635.5,-118 635.5,-137 682.5,-137 682.5,-118 635.5,-118"/>
<text text-anchor="middle" x="659" y="-125" font-family="Helvetica,sans-Serif" font-size="10.00">queue</text>
</a>
</g>
</g>
<!-- Node40&#45;&gt;Node41 -->
<g id="edge53" class="edge">
<title>Node40&#45;&gt;Node41</title>
<path fill="none" stroke="midnightblue" d="M659,-179.48C659,-171.08 659,-157.98 659,-147.16"/>
<polygon fill="midnightblue" stroke="midnightblue" points="662.5,-147.01 659,-137.01 655.5,-147.01 662.5,-147.01"/>
</g>
<!-- Node42 -->
<g id="node42" class="node">
<title>Node42</title>
<g id="a_node42"><a xlink:title=" ">
<polygon fill="none" stroke="#bfbfbf" points="574.5,-118 574.5,-137 617.5,-137 617.5,-118 574.5,-118"/>
<text text-anchor="middle" x="596" y="-125" font-family="Helvetica,sans-Serif" font-size="10.00">stack</text>
</a>
</g>
</g>
<!-- Node40&#45;&gt;Node42 -->
<g id="edge54" class="edge">
<title>Node40&#45;&gt;Node42</title>
<path fill="none" stroke="midnightblue" d="M649.97,-179.48C640.24,-170.28 624.54,-155.46 612.58,-144.16"/>
<polygon fill="midnightblue" stroke="midnightblue" points="614.68,-141.33 605.01,-137.01 609.88,-146.42 614.68,-141.33"/>
</g>
<!-- Node40&#45;&gt;Node45 -->
<g id="edge57" class="edge">
<title>Node40&#45;&gt;Node45</title>
<path fill="none" stroke="midnightblue" d="M637.22,-179.48C611.26,-169.31 567.69,-152.26 538.17,-140.7"/>
<polygon fill="midnightblue" stroke="midnightblue" points="539.33,-137.4 528.74,-137.01 536.77,-143.91 539.33,-137.4"/>
</g>
<!-- Node45&#45;&gt;Node27 -->
<g id="edge58" class="edge">
<title>Node45&#45;&gt;Node27</title>
<path fill="none" stroke="midnightblue" d="M538.47,-117.98C547.03,-115.84 556.34,-113.68 565,-112 676.82,-90.38 708.37,-92.41 825.35,-76.07"/>
<polygon fill="midnightblue" stroke="midnightblue" points="826.01,-79.51 835.42,-74.64 825.03,-72.58 826.01,-79.51"/>
</g>
<!-- Node47&#45;&gt;Node4 -->
<g id="edge67" class="edge">
<title>Node47&#45;&gt;Node4</title>
<path fill="none" stroke="midnightblue" d="M1082.37,-235.44C1050.5,-226.24 999.67,-211.56 964.44,-201.39"/>
<polygon fill="midnightblue" stroke="midnightblue" points="965.07,-197.93 954.49,-198.52 963.13,-204.65 965.07,-197.93"/>
</g>
<!-- Node47&#45;&gt;Node9 -->
<g id="edge65" class="edge">
<title>Node47&#45;&gt;Node9</title>
<path fill="none" stroke="midnightblue" d="M1123.22,-235.29C1133,-227.05 1146.72,-213.76 1154,-199 1172.35,-161.79 1175.8,-112.26 1176.21,-85.71"/>
<polygon fill="midnightblue" stroke="midnightblue" points="1179.71,-85.55 1176.24,-75.54 1172.71,-85.54 1179.71,-85.55"/>
</g>
<!-- Node47&#45;&gt;Node20 -->
<g id="edge68" class="edge">
<title>Node47&#45;&gt;Node20</title>
<path fill="none" stroke="midnightblue" d="M1102.85,-235.23C1094.07,-226.53 1080.73,-212.57 1071,-199 1058.93,-182.17 1047.78,-161.22 1040.52,-146.55"/>
<polygon fill="midnightblue" stroke="midnightblue" points="1043.46,-144.61 1035.96,-137.13 1037.16,-147.66 1043.46,-144.61"/>
</g>
<!-- Node48 -->
<g id="node46" class="node">
<title>Node48</title>
<g id="a_node46"><a xlink:title=" ">
<polygon fill="none" stroke="#bfbfbf" points="1079.5,-179.5 1079.5,-198.5 1144.5,-198.5 1144.5,-179.5 1079.5,-179.5"/>
<text text-anchor="middle" x="1112" y="-186.5" font-family="Helvetica,sans-Serif" font-size="10.00">stdexcept</text>
</a>
</g>
</g>
<!-- Node47&#45;&gt;Node48 -->
<g id="edge66" class="edge">
<title>Node47&#45;&gt;Node48</title>
<path fill="none" stroke="midnightblue" d="M1112,-235.08C1112,-228.01 1112,-217.86 1112,-208.99"/>
<polygon fill="midnightblue" stroke="midnightblue" points="1115.5,-208.75 1112,-198.75 1108.5,-208.75 1115.5,-208.75"/>
</g>
<!-- Node50&#45;&gt;Node16 -->
<g id="edge71" class="edge">
<title>Node50&#45;&gt;Node16</title>
<path fill="none" stroke="midnightblue" d="M637.28,-291.44C611.15,-282.4 569.74,-268.06 540.42,-257.92"/>
<polygon fill="midnightblue" stroke="midnightblue" points="541.2,-254.48 530.6,-254.52 538.91,-261.1 541.2,-254.48"/>
</g>
<!-- Node51&#45;&gt;Node16 -->
<g id="edge73" class="edge">
<title>Node51&#45;&gt;Node16</title>
<path fill="none" stroke="midnightblue" d="M518.52,-291.08C516.51,-283.85 513.61,-273.41 511.11,-264.4"/>
<polygon fill="midnightblue" stroke="midnightblue" points="514.48,-263.45 508.43,-254.75 507.74,-265.32 514.48,-263.45"/>
</g>
<!-- Node52&#45;&gt;Node4 -->
<g id="edge76" class="edge">
<title>Node52&#45;&gt;Node4</title>
<path fill="none" stroke="midnightblue" d="M925,-235.08C925,-228.01 925,-217.86 925,-208.99"/>
<polygon fill="midnightblue" stroke="midnightblue" points="928.5,-208.75 925,-198.75 921.5,-208.75 928.5,-208.75"/>
</g>
<!-- Node52&#45;&gt;Node20 -->
<g id="edge77" class="edge">
<title>Node52&#45;&gt;Node20</title>
<path fill="none" stroke="midnightblue" d="M936.58,-235.34C947.75,-226.72 964.86,-212.82 978,-199 994.04,-182.14 1009.93,-160.65 1020.28,-145.86"/>
<polygon fill="midnightblue" stroke="midnightblue" points="1023.44,-147.44 1026.23,-137.21 1017.68,-143.47 1023.44,-147.44"/>
</g>
</g>
</svg>
