<?xml version="1.0" encoding="UTF-8" standalone="no"?>
<!DOCTYPE svg PUBLIC "-//W3C//DTD SVG 1.1//EN"
 "http://www.w3.org/Graphics/SVG/1.1/DTD/svg11.dtd">
<!-- Generated by graphviz version 2.43.0 (0)
 -->
<!-- Title: thorin/fe/scopes.h Pages: 1 -->
<svg width="783pt" height="203pt"
 viewBox="0.00 0.00 783.00 203.00" xmlns="http://www.w3.org/2000/svg" xmlns:xlink="http://www.w3.org/1999/xlink">
<g id="graph0" class="graph" transform="scale(1 1) rotate(0) translate(4 199)">
<title>thorin/fe/scopes.h</title>
<!-- Node1 -->
<g id="Node000001" class="node">
<title>Node1</title>
<g id="a_Node000001"><a xlink:title=" ">
<polygon fill="#999999" stroke="#666666" points="244,-195 140,-195 140,-176 244,-176 244,-195"/>
<text text-anchor="middle" x="192" y="-183" font-family="Helvetica,sans-Serif" font-size="10.00">thorin/fe/scopes.h</text>
</a>
</g>
</g>
<!-- Node2 -->
<g id="Node000002" class="node">
<title>Node2</title>
<g id="a_Node000002"><a xlink:title=" ">
<polygon fill="#e0e0e0" stroke="#999999" points="171.5,-140 124.5,-140 124.5,-121 171.5,-121 171.5,-140"/>
<text text-anchor="middle" x="148" y="-128" font-family="Helvetica,sans-Serif" font-size="10.00">deque</text>
</a>
</g>
</g>
<!-- Node1&#45;&gt;Node2 -->
<g id="edge1_Node000001_Node000002" class="edge">
<title>Node1&#45;&gt;Node2</title>
<g id="a_edge1_Node000001_Node000002"><a xlink:title=" ">
<path fill="none" stroke="#63b8ff" d="M184.73,-175.75C178.46,-168.18 169.21,-157.05 161.57,-147.84"/>
<polygon fill="#63b8ff" stroke="#63b8ff" points="164.21,-145.55 155.13,-140.09 158.83,-150.02 164.21,-145.55"/>
</a>
</g>
</g>
<!-- Node3 -->
<g id="Node000003" class="node">
<title>Node3</title>
<g id="a_Node000003"><a xlink:href="dbg_8h.html" target="_top" xlink:title=" ">
<polygon fill="white" stroke="#666666" points="284,-140 190,-140 190,-121 284,-121 284,-140"/>
<text text-anchor="middle" x="237" y="-128" font-family="Helvetica,sans-Serif" font-size="10.00">thorin/util/dbg.h</text>
</a>
</g>
</g>
<!-- Node1&#45;&gt;Node3 -->
<g id="edge2_Node000001_Node000003" class="edge">
<title>Node1&#45;&gt;Node3</title>
<g id="a_edge2_Node000001_Node000003"><a xlink:title=" ">
<path fill="none" stroke="#63b8ff" d="M199.43,-175.75C205.85,-168.18 215.31,-157.05 223.12,-147.84"/>
<polygon fill="#63b8ff" stroke="#63b8ff" points="225.9,-149.98 229.71,-140.09 220.57,-145.45 225.9,-149.98"/>
</a>
</g>
</g>
<!-- Node4 -->
<g id="Node000004" class="node">
<title>Node4</title>
<g id="a_Node000004"><a xlink:title=" ">
<polygon fill="#e0e0e0" stroke="#999999" points="68,-79.5 0,-79.5 0,-60.5 68,-60.5 68,-79.5"/>
<text text-anchor="middle" x="34" y="-67.5" font-family="Helvetica,sans-Serif" font-size="10.00">filesystem</text>
</a>
</g>
</g>
<!-- Node3&#45;&gt;Node4 -->
<g id="edge3_Node000003_Node000004" class="edge">
<title>Node3&#45;&gt;Node4</title>
<g id="a_edge3_Node000003_Node000004"><a xlink:title=" ">
<path fill="none" stroke="#63b8ff" d="M204.7,-120.96C172.3,-112.29 121.03,-98.28 77,-85 74.57,-84.27 72.06,-83.49 69.54,-82.7"/>
<polygon fill="#63b8ff" stroke="#63b8ff" points="70.46,-79.32 59.86,-79.62 68.33,-85.99 70.46,-79.32"/>
</a>
</g>
</g>
<!-- Node5 -->
<g id="Node000005" class="node">
<title>Node5</title>
<g id="a_Node000005"><a xlink:title=" ">
<polygon fill="#e0e0e0" stroke="#999999" points="139.5,-79.5 86.5,-79.5 86.5,-60.5 139.5,-60.5 139.5,-79.5"/>
<text text-anchor="middle" x="113" y="-67.5" font-family="Helvetica,sans-Serif" font-size="10.00">fe/loc.h</text>
</a>
</g>
</g>
<!-- Node3&#45;&gt;Node5 -->
<g id="edge4_Node000003_Node000005" class="edge">
<title>Node3&#45;&gt;Node5</title>
<g id="a_edge4_Node000003_Node000005"><a xlink:title=" ">
<path fill="none" stroke="#63b8ff" d="M218.97,-120.99C198.31,-111.25 164.22,-95.16 140.3,-83.88"/>
<polygon fill="#63b8ff" stroke="#63b8ff" points="141.59,-80.62 131.05,-79.52 138.6,-86.95 141.59,-80.62"/>
</a>
</g>
</g>
<!-- Node6 -->
<g id="Node000006" class="node">
<title>Node6</title>
<g id="a_Node000006"><a xlink:title=" ">
<polygon fill="#e0e0e0" stroke="#999999" points="216.5,-79.5 157.5,-79.5 157.5,-60.5 216.5,-60.5 216.5,-79.5"/>
<text text-anchor="middle" x="187" y="-67.5" font-family="Helvetica,sans-Serif" font-size="10.00">fe/sym.h</text>
</a>
</g>
</g>
<!-- Node3&#45;&gt;Node6 -->
<g id="edge5_Node000003_Node000006" class="edge">
<title>Node3&#45;&gt;Node6</title>
<g id="a_edge5_Node000003_Node000006"><a xlink:title=" ">
<path fill="none" stroke="#63b8ff" d="M229.62,-120.87C222.09,-112.05 210.21,-98.16 200.91,-87.27"/>
<polygon fill="#63b8ff" stroke="#63b8ff" points="203.57,-85 194.41,-79.67 198.24,-89.54 203.57,-85"/>
</a>
</g>
</g>
<!-- Node7 -->
<g id="Node000007" class="node">
<title>Node7</title>
<g id="a_Node000007"><a xlink:title=" ">
<polygon fill="#e0e0e0" stroke="#999999" points="339,-85 235,-85 235,-55 339,-55 339,-85"/>
<text text-anchor="start" x="243" y="-73" font-family="Helvetica,sans-Serif" font-size="10.00">absl/container/flat</text>
<text text-anchor="middle" x="287" y="-62" font-family="Helvetica,sans-Serif" font-size="10.00">_hash_map.h</text>
</a>
</g>
</g>
<!-- Node3&#45;&gt;Node7 -->
<g id="edge6_Node000003_Node000007" class="edge">
<title>Node3&#45;&gt;Node7</title>
<g id="a_edge6_Node000003_Node000007"><a xlink:title=" ">
<path fill="none" stroke="#63b8ff" d="M244.38,-120.87C250.66,-113.52 259.96,-102.63 268.27,-92.91"/>
<polygon fill="#63b8ff" stroke="#63b8ff" points="271.1,-94.99 274.94,-85.11 265.78,-90.44 271.1,-94.99"/>
</a>
</g>
</g>
<!-- Node8 -->
<g id="Node000008" class="node">
<title>Node8</title>
<g id="a_Node000008"><a xlink:title=" ">
<polygon fill="#e0e0e0" stroke="#999999" points="461,-85 357,-85 357,-55 461,-55 461,-85"/>
<text text-anchor="start" x="365" y="-73" font-family="Helvetica,sans-Serif" font-size="10.00">absl/container/flat</text>
<text text-anchor="middle" x="409" y="-62" font-family="Helvetica,sans-Serif" font-size="10.00">_hash_set.h</text>
</a>
</g>
</g>
<!-- Node3&#45;&gt;Node8 -->
<g id="edge7_Node000003_Node000008" class="edge">
<title>Node3&#45;&gt;Node8</title>
<g id="a_edge7_Node000003_Node000008"><a xlink:title=" ">
<path fill="none" stroke="#63b8ff" d="M262.01,-120.99C287.09,-112.46 326.42,-99.09 358.09,-88.32"/>
<polygon fill="#63b8ff" stroke="#63b8ff" points="359.31,-91.6 367.65,-85.06 357.05,-84.97 359.31,-91.6"/>
</a>
</g>
</g>
<!-- Node9 -->
<g id="Node000009" class="node">
<title>Node9</title>
<g id="a_Node000009"><a xlink:href="print_8h.html" target="_top" xlink:title=" ">
<polygon fill="white" stroke="#666666" points="577,-79.5 479,-79.5 479,-60.5 577,-60.5 577,-79.5"/>
<text text-anchor="middle" x="528" y="-67.5" font-family="Helvetica,sans-Serif" font-size="10.00">thorin/util/print.h</text>
</a>
</g>
</g>
<!-- Node3&#45;&gt;Node9 -->
<g id="edge8_Node000003_Node000009" class="edge">
<title>Node3&#45;&gt;Node9</title>
<g id="a_edge8_Node000003_Node000009"><a xlink:title=" ">
<path fill="none" stroke="#63b8ff" d="M284.44,-121.13C331.62,-112.65 406,-98.83 470,-85 474.45,-84.04 479.08,-83 483.7,-81.93"/>
<polygon fill="#63b8ff" stroke="#63b8ff" points="484.78,-85.27 493.71,-79.57 483.18,-78.45 484.78,-85.27"/>
</a>
</g>
</g>
<!-- Node10 -->
<g id="Node000010" class="node">
<title>Node10</title>
<g id="a_Node000010"><a xlink:title=" ">
<polygon fill="#e0e0e0" stroke="#999999" points="330.5,-19 265.5,-19 265.5,0 330.5,0 330.5,-19"/>
<text text-anchor="middle" x="298" y="-7" font-family="Helvetica,sans-Serif" font-size="10.00">functional</text>
</a>
</g>
</g>
<!-- Node9&#45;&gt;Node10 -->
<g id="edge9_Node000009_Node000010" class="edge">
<title>Node9&#45;&gt;Node10</title>
<g id="a_edge9_Node000009_Node000010"><a xlink:title=" ">
<path fill="none" stroke="#63b8ff" d="M494.56,-60.49C453.87,-50.15 385.12,-32.66 340.66,-21.35"/>
<polygon fill="#63b8ff" stroke="#63b8ff" points="341.29,-17.9 330.74,-18.83 339.57,-24.68 341.29,-17.9"/>
</a>
</g>
</g>
<!-- Node11 -->
<g id="Node000011" class="node">
<title>Node11</title>
<g id="a_Node000011"><a xlink:title=" ">
<polygon fill="#e0e0e0" stroke="#999999" points="409,-19 349,-19 349,0 409,0 409,-19"/>
<text text-anchor="middle" x="379" y="-7" font-family="Helvetica,sans-Serif" font-size="10.00">iostream</text>
</a>
</g>
</g>
<!-- Node9&#45;&gt;Node11 -->
<g id="edge10_Node000009_Node000011" class="edge">
<title>Node9&#45;&gt;Node11</title>
<g id="a_edge10_Node000009_Node000011"><a xlink:title=" ">
<path fill="none" stroke="#63b8ff" d="M506.33,-60.49C481.06,-50.57 439.09,-34.09 410.28,-22.78"/>
<polygon fill="#63b8ff" stroke="#63b8ff" points="411.28,-19.41 400.69,-19.02 408.72,-25.93 411.28,-19.41"/>
</a>
</g>
</g>
<!-- Node12 -->
<g id="Node000012" class="node">
<title>Node12</title>
<g id="a_Node000012"><a xlink:title=" ">
<polygon fill="#e0e0e0" stroke="#999999" points="484.5,-19 427.5,-19 427.5,0 484.5,0 484.5,-19"/>
<text text-anchor="middle" x="456" y="-7" font-family="Helvetica,sans-Serif" font-size="10.00">ostream</text>
</a>
</g>
</g>
<!-- Node9&#45;&gt;Node12 -->
<g id="edge11_Node000009_Node000012" class="edge">
<title>Node9&#45;&gt;Node12</title>
<g id="a_edge11_Node000009_Node000012"><a xlink:title=" ">
<path fill="none" stroke="#63b8ff" d="M517.38,-60.37C506.1,-51.21 488.08,-36.56 474.47,-25.51"/>
<polygon fill="#63b8ff" stroke="#63b8ff" points="476.64,-22.76 466.67,-19.17 472.22,-28.19 476.64,-22.76"/>
</a>
</g>
</g>
<!-- Node13 -->
<g id="Node000013" class="node">
<title>Node13</title>
<g id="a_Node000013"><a xlink:title=" ">
<polygon fill="#e0e0e0" stroke="#999999" points="553,-19 503,-19 503,0 553,0 553,-19"/>
<text text-anchor="middle" x="528" y="-7" font-family="Helvetica,sans-Serif" font-size="10.00">ranges</text>
</a>
</g>
</g>
<!-- Node9&#45;&gt;Node13 -->
<g id="edge12_Node000009_Node000013" class="edge">
<title>Node9&#45;&gt;Node13</title>
<g id="a_edge12_Node000009_Node000013"><a xlink:title=" ">
<path fill="none" stroke="#63b8ff" d="M528,-60.37C528,-52.25 528,-39.81 528,-29.39"/>
<polygon fill="#63b8ff" stroke="#63b8ff" points="531.5,-29.17 528,-19.17 524.5,-29.17 531.5,-29.17"/>
</a>
</g>
</g>
<!-- Node14 -->
<g id="Node000014" class="node">
<title>Node14</title>
<g id="a_Node000014"><a xlink:title=" ">
<polygon fill="#e0e0e0" stroke="#999999" points="627,-19 571,-19 571,0 627,0 627,-19"/>
<text text-anchor="middle" x="599" y="-7" font-family="Helvetica,sans-Serif" font-size="10.00">sstream</text>
</a>
</g>
</g>
<!-- Node9&#45;&gt;Node14 -->
<g id="edge13_Node000009_Node000014" class="edge">
<title>Node9&#45;&gt;Node14</title>
<g id="a_edge13_Node000009_Node000014"><a xlink:title=" ">
<path fill="none" stroke="#63b8ff" d="M538.48,-60.37C549.49,-51.3 567.04,-36.84 580.41,-25.82"/>
<polygon fill="#63b8ff" stroke="#63b8ff" points="582.99,-28.23 588.48,-19.17 578.54,-22.83 582.99,-28.23"/>
</a>
</g>
</g>
<!-- Node15 -->
<g id="Node000015" class="node">
<title>Node15</title>
<g id="a_Node000015"><a xlink:title=" ">
<polygon fill="#e0e0e0" stroke="#999999" points="689,-19 645,-19 645,0 689,0 689,-19"/>
<text text-anchor="middle" x="667" y="-7" font-family="Helvetica,sans-Serif" font-size="10.00">string</text>
</a>
</g>
</g>
<!-- Node9&#45;&gt;Node15 -->
<g id="edge14_Node000009_Node000015" class="edge">
<title>Node9&#45;&gt;Node15</title>
<g id="a_edge14_Node000009_Node000015"><a xlink:title=" ">
<path fill="none" stroke="#63b8ff" d="M548.21,-60.49C571.68,-50.62 610.61,-34.23 637.46,-22.93"/>
<polygon fill="#63b8ff" stroke="#63b8ff" points="638.9,-26.12 646.76,-19.02 636.19,-19.67 638.9,-26.12"/>
</a>
</g>
</g>
<!-- Node16 -->
<g id="Node000016" class="node">
<title>Node16</title>
<g id="a_Node000016"><a xlink:title=" ">
<polygon fill="#e0e0e0" stroke="#999999" points="775,-19 707,-19 707,0 775,0 775,-19"/>
<text text-anchor="middle" x="741" y="-7" font-family="Helvetica,sans-Serif" font-size="10.00">fe/assert.h</text>
</a>
</g>
</g>
<!-- Node9&#45;&gt;Node16 -->
<g id="edge15_Node000009_Node000016" class="edge">
<title>Node9&#45;&gt;Node16</title>
<g id="a_edge15_Node000009_Node000016"><a xlink:title=" ">
<path fill="none" stroke="#63b8ff" d="M558.97,-60.49C596.28,-50.25 659.06,-33 700.27,-21.69"/>
<polygon fill="#63b8ff" stroke="#63b8ff" points="701.27,-25.04 709.99,-19.02 699.42,-18.29 701.27,-25.04"/>
</a>
</g>
</g>
</g>
</svg>
