<?xml version="1.0" encoding="UTF-8" standalone="no"?>
<!DOCTYPE svg PUBLIC "-//W3C//DTD SVG 1.1//EN"
 "http://www.w3.org/Graphics/SVG/1.1/DTD/svg11.dtd">
<!-- Generated by graphviz version 2.43.0 (0)
 -->
<!-- Title: thorin/fe/scopes.cpp Pages: 1 -->
<svg width="1667pt" height="500pt"
 viewBox="0.00 0.00 1667.00 500.00" xmlns="http://www.w3.org/2000/svg" xmlns:xlink="http://www.w3.org/1999/xlink">
<g id="graph0" class="graph" transform="scale(1 1) rotate(0) translate(4 496)">
<title>thorin/fe/scopes.cpp</title>
<!-- Node1 -->
<g id="node1" class="node">
<title>Node1</title>
<g id="a_node1"><a xlink:title=" ">
<polygon fill="#999999" stroke="#666666" points="372.5,-492 257.5,-492 257.5,-473 372.5,-473 372.5,-492"/>
<text text-anchor="middle" x="315" y="-480" font-family="Helvetica,sans-Serif" font-size="10.00">thorin/fe/scopes.cpp</text>
</a>
</g>
</g>
<!-- Node2 -->
<g id="node2" class="node">
<title>Node2</title>
<g id="a_node2"><a xlink:href="scopes_8h.html" target="_top" xlink:title=" ">
<polygon fill="white" stroke="#666666" points="104,-376.5 0,-376.5 0,-357.5 104,-357.5 104,-376.5"/>
<text text-anchor="middle" x="52" y="-364.5" font-family="Helvetica,sans-Serif" font-size="10.00">thorin/fe/scopes.h</text>
</a>
</g>
</g>
<!-- Node1&#45;&gt;Node2 -->
<g id="edge1" class="edge">
<title>Node1&#45;&gt;Node2</title>
<path fill="none" stroke="#63b8ff" d="M295.23,-472.97C249.35,-453.17 135.42,-404 81.36,-380.67"/>
<polygon fill="#63b8ff" stroke="#63b8ff" points="82.57,-377.38 72,-376.63 79.79,-383.81 82.57,-377.38"/>
</g>
<!-- Node19 -->
<g id="node19" class="node">
<title>Node19</title>
<g id="a_node19"><a xlink:href="world_8h.html" target="_top" xlink:title=" ">
<polygon fill="white" stroke="#666666" points="585,-437 501,-437 501,-418 585,-418 585,-437"/>
<text text-anchor="middle" x="543" y="-425" font-family="Helvetica,sans-Serif" font-size="10.00">thorin/world.h</text>
</a>
</g>
</g>
<!-- Node1&#45;&gt;Node19 -->
<g id="edge22" class="edge">
<title>Node1&#45;&gt;Node19</title>
<path fill="none" stroke="#63b8ff" d="M351.63,-472.98C390.91,-463.86 453.37,-449.33 496.19,-439.38"/>
<polygon fill="#63b8ff" stroke="#63b8ff" points="497.13,-442.76 506.08,-437.08 495.55,-435.94 497.13,-442.76"/>
</g>
<!-- Node3 -->
<g id="node3" class="node">
<title>Node3</title>
<g id="a_node3"><a xlink:title=" ">
<polygon fill="#e0e0e0" stroke="#999999" points="479.5,-316 432.5,-316 432.5,-297 479.5,-297 479.5,-316"/>
<text text-anchor="middle" x="456" y="-304" font-family="Helvetica,sans-Serif" font-size="10.00">deque</text>
</a>
</g>
</g>
<!-- Node2&#45;&gt;Node3 -->
<g id="edge2" class="edge">
<title>Node2&#45;&gt;Node3</title>
<path fill="none" stroke="#63b8ff" d="M104.4,-358.41C188.68,-346.21 351.99,-322.56 422.38,-312.37"/>
<polygon fill="#63b8ff" stroke="#63b8ff" points="423.07,-315.81 432.46,-310.91 422.06,-308.88 423.07,-315.81"/>
</g>
<!-- Node4 -->
<g id="node4" class="node">
<title>Node4</title>
<g id="a_node4"><a xlink:href="loc_8h.html" target="_top" xlink:title=" ">
<polygon fill="white" stroke="#666666" points="175,-195 85,-195 85,-176 175,-176 175,-195"/>
<text text-anchor="middle" x="130" y="-183" font-family="Helvetica,sans-Serif" font-size="10.00">thorin/util/loc.h</text>
</a>
</g>
</g>
<!-- Node2&#45;&gt;Node4 -->
<g id="edge3" class="edge">
<title>Node2&#45;&gt;Node4</title>
<path fill="none" stroke="#63b8ff" d="M46.09,-357.26C31.47,-334.46 -3.3,-272.06 24,-231 35.63,-213.51 55.6,-202.88 75.1,-196.43"/>
<polygon fill="#63b8ff" stroke="#63b8ff" points="76.32,-199.71 84.9,-193.5 74.32,-193.01 76.32,-199.71"/>
</g>
<!-- Node5 -->
<g id="node5" class="node">
<title>Node5</title>
<g id="a_node5"><a xlink:title=" ">
<polygon fill="#e0e0e0" stroke="#999999" points="191,-140 123,-140 123,-121 191,-121 191,-140"/>
<text text-anchor="middle" x="157" y="-128" font-family="Helvetica,sans-Serif" font-size="10.00">filesystem</text>
</a>
</g>
</g>
<!-- Node4&#45;&gt;Node5 -->
<g id="edge4" class="edge">
<title>Node4&#45;&gt;Node5</title>
<path fill="none" stroke="#63b8ff" d="M134.46,-175.75C138.12,-168.57 143.41,-158.18 147.95,-149.27"/>
<polygon fill="#63b8ff" stroke="#63b8ff" points="151.2,-150.59 152.62,-140.09 144.97,-147.41 151.2,-150.59"/>
</g>
<!-- Node6 -->
<g id="node6" class="node">
<title>Node6</title>
<g id="a_node6"><a xlink:title=" ">
<polygon fill="#e0e0e0" stroke="#999999" points="149,-85 45,-85 45,-55 149,-55 149,-85"/>
<text text-anchor="start" x="53" y="-73" font-family="Helvetica,sans-Serif" font-size="10.00">absl/container/flat</text>
<text text-anchor="middle" x="97" y="-62" font-family="Helvetica,sans-Serif" font-size="10.00">_hash_map.h</text>
</a>
</g>
</g>
<!-- Node4&#45;&gt;Node6 -->
<g id="edge5" class="edge">
<title>Node4&#45;&gt;Node6</title>
<path fill="none" stroke="#63b8ff" d="M126.54,-175.72C123.1,-166.81 117.8,-152.57 114,-140 109.52,-125.18 105.35,-108.32 102.26,-94.97"/>
<polygon fill="#63b8ff" stroke="#63b8ff" points="105.65,-94.1 100.03,-85.12 98.83,-95.65 105.65,-94.1"/>
</g>
<!-- Node7 -->
<g id="node7" class="node">
<title>Node7</title>
<g id="a_node7"><a xlink:title=" ">
<polygon fill="#e0e0e0" stroke="#999999" points="271,-85 167,-85 167,-55 271,-55 271,-85"/>
<text text-anchor="start" x="175" y="-73" font-family="Helvetica,sans-Serif" font-size="10.00">absl/container/flat</text>
<text text-anchor="middle" x="219" y="-62" font-family="Helvetica,sans-Serif" font-size="10.00">_hash_set.h</text>
</a>
</g>
</g>
<!-- Node4&#45;&gt;Node7 -->
<g id="edge6" class="edge">
<title>Node4&#45;&gt;Node7</title>
<path fill="none" stroke="#63b8ff" d="M151.39,-175.98C167.06,-168.67 187.67,-156.67 200,-140 209.59,-127.02 214.34,-109.45 216.7,-95.29"/>
<polygon fill="#63b8ff" stroke="#63b8ff" points="220.18,-95.64 218.07,-85.25 213.24,-94.69 220.18,-95.64"/>
</g>
<!-- Node8 -->
<g id="node8" class="node">
<title>Node8</title>
<g id="a_node8"><a xlink:href="print_8h.html" target="_top" xlink:title=" ">
<polygon fill="white" stroke="#666666" points="698,-140 600,-140 600,-121 698,-121 698,-140"/>
<text text-anchor="middle" x="649" y="-128" font-family="Helvetica,sans-Serif" font-size="10.00">thorin/util/print.h</text>
</a>
</g>
</g>
<!-- Node4&#45;&gt;Node8 -->
<g id="edge7" class="edge">
<title>Node4&#45;&gt;Node8</title>
<path fill="none" stroke="#63b8ff" d="M175.15,-179.89C268.95,-170.31 484.87,-148.26 589.72,-137.55"/>
<polygon fill="#63b8ff" stroke="#63b8ff" points="590.22,-141.02 599.81,-136.52 589.51,-134.06 590.22,-141.02"/>
</g>
<!-- Node17 -->
<g id="node17" class="node">
<title>Node17</title>
<g id="a_node17"><a xlink:href="sym_8h.html" target="_top" xlink:title=" ">
<polygon fill="white" stroke="#666666" points="382.5,-140 285.5,-140 285.5,-121 382.5,-121 382.5,-140"/>
<text text-anchor="middle" x="334" y="-128" font-family="Helvetica,sans-Serif" font-size="10.00">thorin/util/sym.h</text>
</a>
</g>
</g>
<!-- Node4&#45;&gt;Node17 -->
<g id="edge16" class="edge">
<title>Node4&#45;&gt;Node17</title>
<path fill="none" stroke="#63b8ff" d="M162.78,-175.98C197.62,-166.93 252.87,-152.58 291.14,-142.64"/>
<polygon fill="#63b8ff" stroke="#63b8ff" points="292.17,-145.98 300.97,-140.08 290.41,-139.21 292.17,-145.98"/>
</g>
<!-- Node9 -->
<g id="node9" class="node">
<title>Node9</title>
<g id="a_node9"><a xlink:title=" ">
<polygon fill="#e0e0e0" stroke="#999999" points="930.5,-79.5 865.5,-79.5 865.5,-60.5 930.5,-60.5 930.5,-79.5"/>
<text text-anchor="middle" x="898" y="-67.5" font-family="Helvetica,sans-Serif" font-size="10.00">functional</text>
</a>
</g>
</g>
<!-- Node8&#45;&gt;Node9 -->
<g id="edge8" class="edge">
<title>Node8&#45;&gt;Node9</title>
<path fill="none" stroke="#63b8ff" d="M695.8,-120.96C737.99,-112.91 801.57,-99.87 856,-85 858.62,-84.28 861.32,-83.5 864.02,-82.68"/>
<polygon fill="#63b8ff" stroke="#63b8ff" points="865.24,-85.96 873.71,-79.6 863.12,-79.29 865.24,-85.96"/>
</g>
<!-- Node10 -->
<g id="node10" class="node">
<title>Node10</title>
<g id="a_node10"><a xlink:title=" ">
<polygon fill="#e0e0e0" stroke="#999999" points="543,-79.5 483,-79.5 483,-60.5 543,-60.5 543,-79.5"/>
<text text-anchor="middle" x="513" y="-67.5" font-family="Helvetica,sans-Serif" font-size="10.00">iostream</text>
</a>
</g>
</g>
<!-- Node8&#45;&gt;Node10 -->
<g id="edge9" class="edge">
<title>Node8&#45;&gt;Node10</title>
<path fill="none" stroke="#63b8ff" d="M629.22,-120.99C606.36,-111.16 568.51,-94.88 542.24,-83.58"/>
<polygon fill="#63b8ff" stroke="#63b8ff" points="543.37,-80.25 532.8,-79.52 540.6,-86.68 543.37,-80.25"/>
</g>
<!-- Node11 -->
<g id="node11" class="node">
<title>Node11</title>
<g id="a_node11"><a xlink:title=" ">
<polygon fill="#e0e0e0" stroke="#999999" points="673.5,-19 616.5,-19 616.5,0 673.5,0 673.5,-19"/>
<text text-anchor="middle" x="645" y="-7" font-family="Helvetica,sans-Serif" font-size="10.00">ostream</text>
</a>
</g>
</g>
<!-- Node8&#45;&gt;Node11 -->
<g id="edge10" class="edge">
<title>Node8&#45;&gt;Node11</title>
<path fill="none" stroke="#63b8ff" d="M648.71,-120.94C648.07,-101.91 646.52,-55.69 645.64,-29.47"/>
<polygon fill="#63b8ff" stroke="#63b8ff" points="649.13,-29.18 645.3,-19.3 642.13,-29.41 649.13,-29.18"/>
</g>
<!-- Node12 -->
<g id="node12" class="node">
<title>Node12</title>
<g id="a_node12"><a xlink:title=" ">
<polygon fill="#e0e0e0" stroke="#999999" points="847,-79.5 797,-79.5 797,-60.5 847,-60.5 847,-79.5"/>
<text text-anchor="middle" x="822" y="-67.5" font-family="Helvetica,sans-Serif" font-size="10.00">ranges</text>
</a>
</g>
</g>
<!-- Node8&#45;&gt;Node12 -->
<g id="edge11" class="edge">
<title>Node8&#45;&gt;Node12</title>
<path fill="none" stroke="#63b8ff" d="M677.98,-120.97C706.26,-112.47 750.4,-98.74 788,-85 789.42,-84.48 790.88,-83.94 792.34,-83.38"/>
<polygon fill="#63b8ff" stroke="#63b8ff" points="793.96,-86.5 801.97,-79.56 791.38,-79.99 793.96,-86.5"/>
</g>
<!-- Node13 -->
<g id="node13" class="node">
<title>Node13</title>
<g id="a_node13"><a xlink:title=" ">
<polygon fill="#e0e0e0" stroke="#999999" points="617,-79.5 561,-79.5 561,-60.5 617,-60.5 617,-79.5"/>
<text text-anchor="middle" x="589" y="-67.5" font-family="Helvetica,sans-Serif" font-size="10.00">sstream</text>
</a>
</g>
</g>
<!-- Node8&#45;&gt;Node13 -->
<g id="edge12" class="edge">
<title>Node8&#45;&gt;Node13</title>
<path fill="none" stroke="#63b8ff" d="M640.15,-120.87C631.02,-111.97 616.58,-97.89 605.36,-86.95"/>
<polygon fill="#63b8ff" stroke="#63b8ff" points="607.49,-84.14 597.89,-79.67 602.61,-89.15 607.49,-84.14"/>
</g>
<!-- Node14 -->
<g id="node14" class="node">
<title>Node14</title>
<g id="a_node14"><a xlink:title=" ">
<polygon fill="#e0e0e0" stroke="#999999" points="465,-79.5 421,-79.5 421,-60.5 465,-60.5 465,-79.5"/>
<text text-anchor="middle" x="443" y="-67.5" font-family="Helvetica,sans-Serif" font-size="10.00">string</text>
</a>
</g>
</g>
<!-- Node8&#45;&gt;Node14 -->
<g id="edge13" class="edge">
<title>Node8&#45;&gt;Node14</title>
<path fill="none" stroke="#63b8ff" d="M607.02,-121C571.19,-113.22 518.53,-100.58 474,-85 472.61,-84.51 471.19,-83.99 469.77,-83.43"/>
<polygon fill="#63b8ff" stroke="#63b8ff" points="471.06,-80.18 460.49,-79.54 468.35,-86.64 471.06,-80.18"/>
</g>
<!-- Node15 -->
<g id="node15" class="node">
<title>Node15</title>
<g id="a_node15"><a xlink:href="assert_8h.html" target="_top" xlink:title=" ">
<polygon fill="white" stroke="#666666" points="779,-79.5 673,-79.5 673,-60.5 779,-60.5 779,-79.5"/>
<text text-anchor="middle" x="726" y="-67.5" font-family="Helvetica,sans-Serif" font-size="10.00">thorin/util/assert.h</text>
</a>
</g>
</g>
<!-- Node8&#45;&gt;Node15 -->
<g id="edge14" class="edge">
<title>Node8&#45;&gt;Node15</title>
<path fill="none" stroke="#63b8ff" d="M660.36,-120.87C672.42,-111.71 691.7,-97.06 706.25,-86.01"/>
<polygon fill="#63b8ff" stroke="#63b8ff" points="708.75,-88.5 714.59,-79.67 704.51,-82.93 708.75,-88.5"/>
</g>
<!-- Node16 -->
<g id="node16" class="node">
<title>Node16</title>
<g id="a_node16"><a xlink:title=" ">
<polygon fill="#e0e0e0" stroke="#999999" points="1050,-19 998,-19 998,0 1050,0 1050,-19"/>
<text text-anchor="middle" x="1024" y="-7" font-family="Helvetica,sans-Serif" font-size="10.00">cassert</text>
</a>
</g>
</g>
<!-- Node15&#45;&gt;Node16 -->
<g id="edge15" class="edge">
<title>Node15&#45;&gt;Node16</title>
<path fill="none" stroke="#63b8ff" d="M762.67,-60.49C770.99,-58.63 779.79,-56.7 788,-55 858.6,-40.38 941.5,-25.21 987.87,-16.9"/>
<polygon fill="#63b8ff" stroke="#63b8ff" points="988.52,-20.34 997.75,-15.13 987.29,-13.45 988.52,-20.34"/>
</g>
<!-- Node17&#45;&gt;Node6 -->
<g id="edge19" class="edge">
<title>Node17&#45;&gt;Node6</title>
<path fill="none" stroke="#63b8ff" d="M299.54,-120.99C262.78,-111.92 203.78,-97.36 158.93,-86.29"/>
<polygon fill="#63b8ff" stroke="#63b8ff" points="159.55,-82.84 149.01,-83.84 157.88,-89.63 159.55,-82.84"/>
</g>
<!-- Node17&#45;&gt;Node7 -->
<g id="edge20" class="edge">
<title>Node17&#45;&gt;Node7</title>
<path fill="none" stroke="#63b8ff" d="M317.03,-120.87C300.99,-112.71 276.4,-100.2 255.85,-89.75"/>
<polygon fill="#63b8ff" stroke="#63b8ff" points="257.25,-86.53 246.75,-85.11 254.07,-92.77 257.25,-86.53"/>
</g>
<!-- Node17&#45;&gt;Node10 -->
<g id="edge17" class="edge">
<title>Node17&#45;&gt;Node10</title>
<path fill="none" stroke="#63b8ff" d="M361.99,-120.94C390.32,-112.19 435.35,-98.08 474,-85 475.89,-84.36 477.83,-83.69 479.79,-83.02"/>
<polygon fill="#63b8ff" stroke="#63b8ff" points="481.27,-86.2 489.54,-79.58 478.94,-79.6 481.27,-86.2"/>
</g>
<!-- Node17&#45;&gt;Node14 -->
<g id="edge18" class="edge">
<title>Node17&#45;&gt;Node14</title>
<path fill="none" stroke="#63b8ff" d="M350.08,-120.87C367.95,-111.28 397.04,-95.67 417.91,-84.47"/>
<polygon fill="#63b8ff" stroke="#63b8ff" points="419.69,-87.48 426.85,-79.67 416.38,-81.31 419.69,-87.48"/>
</g>
<!-- Node18 -->
<g id="node18" class="node">
<title>Node18</title>
<g id="a_node18"><a xlink:title=" ">
<polygon fill="#e0e0e0" stroke="#999999" points="402.5,-85 289.5,-85 289.5,-55 402.5,-55 402.5,-85"/>
<text text-anchor="start" x="297.5" y="-73" font-family="Helvetica,sans-Serif" font-size="10.00">absl/container/node</text>
<text text-anchor="middle" x="346" y="-62" font-family="Helvetica,sans-Serif" font-size="10.00">_hash_set.h</text>
</a>
</g>
</g>
<!-- Node17&#45;&gt;Node18 -->
<g id="edge21" class="edge">
<title>Node17&#45;&gt;Node18</title>
<path fill="none" stroke="#63b8ff" d="M335.77,-120.87C337.17,-114.03 339.2,-104.14 341.08,-94.97"/>
<polygon fill="#63b8ff" stroke="#63b8ff" points="344.52,-95.61 343.1,-85.11 337.67,-94.21 344.52,-95.61"/>
</g>
<!-- Node19&#45;&gt;Node13 -->
<g id="edge23" class="edge">
<title>Node19&#45;&gt;Node13</title>
<path fill="none" stroke="#63b8ff" d="M585.08,-422.87C636.33,-417.48 718.38,-405.38 737,-382 762.05,-350.55 726.86,-331.38 706,-297 687.84,-267.07 683.36,-259.48 663,-231 644.96,-205.76 639.29,-200.3 620,-176 607.23,-159.91 598.11,-159.27 591,-140 585.04,-123.85 585.14,-104.11 586.37,-89.88"/>
<polygon fill="#63b8ff" stroke="#63b8ff" points="589.86,-90.16 587.51,-79.83 582.91,-89.38 589.86,-90.16"/>
</g>
<!-- Node19&#45;&gt;Node14 -->
<g id="edge24" class="edge">
<title>Node19&#45;&gt;Node14</title>
<path fill="none" stroke="#63b8ff" d="M519.21,-417.97C498.89,-410.14 469.34,-397.42 446,-382 429.46,-371.07 429.19,-363.43 413,-352 342.99,-302.58 287.04,-334.52 243,-261 193.43,-178.25 312.64,-211.28 391,-140 407.75,-124.76 422.82,-103.51 432.38,-88.63"/>
<polygon fill="#63b8ff" stroke="#63b8ff" points="435.5,-90.23 437.82,-79.9 429.56,-86.53 435.5,-90.23"/>
</g>
<!-- Node19&#45;&gt;Node17 -->
<g id="edge90" class="edge">
<title>Node19&#45;&gt;Node17</title>
<path fill="none" stroke="#63b8ff" d="M500.86,-424.28C411.48,-419.15 209.36,-405.08 189,-382 166.19,-356.15 146.92,-337.88 210,-231 233.32,-191.49 278.63,-161.34 307.54,-145.05"/>
<polygon fill="#63b8ff" stroke="#63b8ff" points="309.57,-147.94 316.67,-140.07 306.21,-141.79 309.57,-147.94"/>
</g>
<!-- Node20 -->
<g id="node20" class="node">
<title>Node20</title>
<g id="a_node20"><a xlink:title=" ">
<polygon fill="#e0e0e0" stroke="#999999" points="271.5,-376.5 198.5,-376.5 198.5,-357.5 271.5,-357.5 271.5,-376.5"/>
<text text-anchor="middle" x="235" y="-364.5" font-family="Helvetica,sans-Serif" font-size="10.00">string_view</text>
</a>
</g>
</g>
<!-- Node19&#45;&gt;Node20 -->
<g id="edge25" class="edge">
<title>Node19&#45;&gt;Node20</title>
<path fill="none" stroke="#63b8ff" d="M500.92,-421.04C448.89,-413.89 357.78,-400.13 281,-382 277.65,-381.21 274.18,-380.31 270.73,-379.36"/>
<polygon fill="#63b8ff" stroke="#63b8ff" points="271.69,-375.99 261.11,-376.58 269.75,-382.72 271.69,-375.99"/>
</g>
<!-- Node21 -->
<g id="node21" class="node">
<title>Node21</title>
<g id="a_node21"><a xlink:title=" ">
<polygon fill="#e0e0e0" stroke="#999999" points="1388.5,-19 1319.5,-19 1319.5,0 1388.5,0 1388.5,-19"/>
<text text-anchor="middle" x="1354" y="-7" font-family="Helvetica,sans-Serif" font-size="10.00">type_traits</text>
</a>
</g>
</g>
<!-- Node19&#45;&gt;Node21 -->
<g id="edge26" class="edge">
<title>Node19&#45;&gt;Node21</title>
<path fill="none" stroke="#63b8ff" d="M585.01,-425.2C758.24,-419.31 1408,-391.58 1408,-307.5 1408,-307.5 1408,-307.5 1408,-129.5 1408,-90.02 1383.05,-49.22 1367.07,-27.15"/>
<polygon fill="#63b8ff" stroke="#63b8ff" points="1369.86,-25.04 1361.06,-19.14 1364.26,-29.24 1369.86,-25.04"/>
</g>
<!-- Node22 -->
<g id="node22" class="node">
<title>Node22</title>
<g id="a_node22"><a xlink:title=" ">
<polygon fill="#e0e0e0" stroke="#999999" points="464,-261 350,-261 350,-231 464,-231 464,-261"/>
<text text-anchor="start" x="358" y="-249" font-family="Helvetica,sans-Serif" font-size="10.00">absl/container/btree</text>
<text text-anchor="middle" x="407" y="-238" font-family="Helvetica,sans-Serif" font-size="10.00">_map.h</text>
</a>
</g>
</g>
<!-- Node19&#45;&gt;Node22 -->
<g id="edge27" class="edge">
<title>Node19&#45;&gt;Node22</title>
<path fill="none" stroke="#63b8ff" d="M539.73,-417.99C529.23,-390.75 496.52,-306.91 488,-297 477.22,-284.45 462.49,-274.08 448.55,-266.09"/>
<polygon fill="#63b8ff" stroke="#63b8ff" points="450,-262.9 439.55,-261.19 446.65,-269.04 450,-262.9"/>
</g>
<!-- Node23 -->
<g id="node23" class="node">
<title>Node23</title>
<g id="a_node23"><a xlink:title=" ">
<polygon fill="#e0e0e0" stroke="#999999" points="404,-382 290,-382 290,-352 404,-352 404,-382"/>
<text text-anchor="start" x="298" y="-370" font-family="Helvetica,sans-Serif" font-size="10.00">absl/container/btree</text>
<text text-anchor="middle" x="347" y="-359" font-family="Helvetica,sans-Serif" font-size="10.00">_set.h</text>
</a>
</g>
</g>
<!-- Node19&#45;&gt;Node23 -->
<g id="edge28" class="edge">
<title>Node19&#45;&gt;Node23</title>
<path fill="none" stroke="#63b8ff" d="M514.5,-417.99C485.68,-409.39 440.33,-395.86 404.08,-385.04"/>
<polygon fill="#63b8ff" stroke="#63b8ff" points="404.7,-381.57 394.12,-382.06 402.7,-388.28 404.7,-381.57"/>
</g>
<!-- Node24 -->
<g id="node24" class="node">
<title>Node24</title>
<g id="a_node24"><a xlink:href="axiom_8h.html" target="_top" xlink:title=" ">
<polygon fill="white" stroke="#666666" points="728,-376.5 640,-376.5 640,-357.5 728,-357.5 728,-376.5"/>
<text text-anchor="middle" x="684" y="-364.5" font-family="Helvetica,sans-Serif" font-size="10.00">thorin/axiom.h</text>
</a>
</g>
</g>
<!-- Node19&#45;&gt;Node24 -->
<g id="edge29" class="edge">
<title>Node19&#45;&gt;Node24</title>
<path fill="none" stroke="#63b8ff" d="M563.5,-417.99C587.31,-408.12 626.79,-391.73 654.04,-380.43"/>
<polygon fill="#63b8ff" stroke="#63b8ff" points="655.58,-383.58 663.47,-376.52 652.89,-377.12 655.58,-383.58"/>
</g>
<!-- Node38 -->
<g id="node36" class="node">
<title>Node38</title>
<g id="a_node36"><a xlink:href="hash_8h.html" target="_top" xlink:title=" ">
<polygon fill="white" stroke="#666666" points="1379.5,-140 1280.5,-140 1280.5,-121 1379.5,-121 1379.5,-140"/>
<text text-anchor="middle" x="1330" y="-128" font-family="Helvetica,sans-Serif" font-size="10.00">thorin/util/hash.h</text>
</a>
</g>
</g>
<!-- Node19&#45;&gt;Node38 -->
<g id="edge84" class="edge">
<title>Node19&#45;&gt;Node38</title>
<path fill="none" stroke="#63b8ff" d="M585.15,-424.34C743.94,-415.64 1297,-380.14 1297,-307.5 1297,-307.5 1297,-307.5 1297,-245 1297,-210.08 1311.58,-171.44 1321.36,-149.45"/>
<polygon fill="#63b8ff" stroke="#63b8ff" points="1324.67,-150.63 1325.69,-140.08 1318.31,-147.69 1324.67,-150.63"/>
</g>
<!-- Node48 -->
<g id="node43" class="node">
<title>Node48</title>
<g id="a_node43"><a xlink:href="check_8h.html" target="_top" xlink:title=" ">
<polygon fill="white" stroke="#666666" points="622,-376.5 536,-376.5 536,-357.5 622,-357.5 622,-376.5"/>
<text text-anchor="middle" x="579" y="-364.5" font-family="Helvetica,sans-Serif" font-size="10.00">thorin/check.h</text>
</a>
</g>
</g>
<!-- Node19&#45;&gt;Node48 -->
<g id="edge72" class="edge">
<title>Node19&#45;&gt;Node48</title>
<path fill="none" stroke="#63b8ff" d="M548.31,-417.87C553.58,-409.31 561.79,-395.97 568.39,-385.24"/>
<polygon fill="#63b8ff" stroke="#63b8ff" points="571.41,-387.02 573.67,-376.67 565.44,-383.35 571.41,-387.02"/>
</g>
<!-- Node49 -->
<g id="node44" class="node">
<title>Node49</title>
<g id="a_node44"><a xlink:href="flags_8h.html" target="_top" xlink:title=" ">
<polygon fill="white" stroke="#666666" points="332,-255.5 252,-255.5 252,-236.5 332,-236.5 332,-255.5"/>
<text text-anchor="middle" x="292" y="-243.5" font-family="Helvetica,sans-Serif" font-size="10.00">thorin/flags.h</text>
</a>
</g>
</g>
<!-- Node19&#45;&gt;Node49 -->
<g id="edge75" class="edge">
<title>Node19&#45;&gt;Node49</title>
<path fill="none" stroke="#63b8ff" d="M532.1,-417.8C514.31,-403.69 477.82,-375.04 446,-352 399.68,-318.46 343.93,-281.19 313.83,-261.32"/>
<polygon fill="#63b8ff" stroke="#63b8ff" points="315.63,-258.32 305.36,-255.74 311.78,-264.16 315.63,-258.32"/>
</g>
<!-- Node50 -->
<g id="node45" class="node">
<title>Node50</title>
<g id="a_node45"><a xlink:href="lam_8h.html" target="_top" xlink:title=" ">
<polygon fill="white" stroke="#666666" points="886,-376.5 810,-376.5 810,-357.5 886,-357.5 886,-376.5"/>
<text text-anchor="middle" x="848" y="-364.5" font-family="Helvetica,sans-Serif" font-size="10.00">thorin/lam.h</text>
</a>
</g>
</g>
<!-- Node19&#45;&gt;Node50 -->
<g id="edge77" class="edge">
<title>Node19&#45;&gt;Node50</title>
<path fill="none" stroke="#63b8ff" d="M585.09,-418.43C641.32,-407.64 740.72,-388.58 799.86,-377.23"/>
<polygon fill="#63b8ff" stroke="#63b8ff" points="800.55,-380.67 809.71,-375.34 799.23,-373.79 800.55,-380.67"/>
</g>
<!-- Node52 -->
<g id="node47" class="node">
<title>Node52</title>
<g id="a_node47"><a xlink:href="lattice_8h.html" target="_top" xlink:title=" ">
<polygon fill="white" stroke="#666666" points="1118,-316 1030,-316 1030,-297 1118,-297 1118,-316"/>
<text text-anchor="middle" x="1074" y="-304" font-family="Helvetica,sans-Serif" font-size="10.00">thorin/lattice.h</text>
</a>
</g>
</g>
<!-- Node19&#45;&gt;Node52 -->
<g id="edge80" class="edge">
<title>Node19&#45;&gt;Node52</title>
<path fill="none" stroke="#63b8ff" d="M585,-426.49C656.84,-425.4 807.23,-418.49 928,-382 974.99,-367.8 1024.94,-338.91 1052.53,-321.58"/>
<polygon fill="#63b8ff" stroke="#63b8ff" points="1054.45,-324.51 1060.99,-316.18 1050.68,-318.6 1054.45,-324.51"/>
</g>
<!-- Node53 -->
<g id="node48" class="node">
<title>Node53</title>
<g id="a_node48"><a xlink:href="tuple_8h.html" target="_top" xlink:title=" ">
<polygon fill="white" stroke="#666666" points="1012,-316 930,-316 930,-297 1012,-297 1012,-316"/>
<text text-anchor="middle" x="971" y="-304" font-family="Helvetica,sans-Serif" font-size="10.00">thorin/tuple.h</text>
</a>
</g>
</g>
<!-- Node19&#45;&gt;Node53 -->
<g id="edge82" class="edge">
<title>Node19&#45;&gt;Node53</title>
<path fill="none" stroke="#63b8ff" d="M585.16,-424.53C666.35,-420.19 841.14,-408.05 895,-382 922.19,-368.84 945.65,-342.1 959.05,-324.5"/>
<polygon fill="#63b8ff" stroke="#63b8ff" points="962.02,-326.38 965.11,-316.24 956.37,-322.23 962.02,-326.38"/>
</g>
<!-- Node54 -->
<g id="node49" class="node">
<title>Node54</title>
<g id="a_node49"><a xlink:href="log_8h.html" target="_top" xlink:title=" ">
<polygon fill="white" stroke="#666666" points="157.5,-316 66.5,-316 66.5,-297 157.5,-297 157.5,-316"/>
<text text-anchor="middle" x="112" y="-304" font-family="Helvetica,sans-Serif" font-size="10.00">thorin/util/log.h</text>
</a>
</g>
</g>
<!-- Node19&#45;&gt;Node54 -->
<g id="edge85" class="edge">
<title>Node19&#45;&gt;Node54</title>
<path fill="none" stroke="#63b8ff" d="M500.72,-426.29C412.44,-425.13 212.08,-418.42 156,-382 135.97,-368.99 123.85,-343.4 117.54,-325.88"/>
<polygon fill="#63b8ff" stroke="#63b8ff" points="120.8,-324.59 114.34,-316.2 114.15,-326.79 120.8,-324.59"/>
</g>
<!-- Node24&#45;&gt;Node15 -->
<g id="edge71" class="edge">
<title>Node24&#45;&gt;Node15</title>
<path fill="none" stroke="#63b8ff" d="M685.21,-357.49C690.92,-317.36 715.23,-146.66 723.35,-89.63"/>
<polygon fill="#63b8ff" stroke="#63b8ff" points="726.84,-89.94 724.78,-79.55 719.91,-88.95 726.84,-89.94"/>
</g>
<!-- Node25 -->
<g id="node25" class="node">
<title>Node25</title>
<g id="a_node25"><a xlink:href="plugin_8h.html" target="_top" xlink:title=" ">
<polygon fill="white" stroke="#666666" points="637.5,-316 550.5,-316 550.5,-297 637.5,-297 637.5,-316"/>
<text text-anchor="middle" x="594" y="-304" font-family="Helvetica,sans-Serif" font-size="10.00">thorin/plugin.h</text>
</a>
</g>
</g>
<!-- Node24&#45;&gt;Node25 -->
<g id="edge30" class="edge">
<title>Node24&#45;&gt;Node25</title>
<path fill="none" stroke="#63b8ff" d="M670.72,-357.37C656.36,-348.04 633.24,-333.01 616.13,-321.88"/>
<polygon fill="#63b8ff" stroke="#63b8ff" points="617.63,-318.68 607.33,-316.17 613.81,-324.55 617.63,-318.68"/>
</g>
<!-- Node25&#45;&gt;Node6 -->
<g id="edge35" class="edge">
<title>Node25&#45;&gt;Node6</title>
<path fill="none" stroke="#63b8ff" d="M583.83,-296.92C564.01,-280.74 518.18,-246.03 473,-231 388.95,-203.04 135.74,-260.41 76,-195 50.97,-167.6 68.43,-121.93 83,-94.32"/>
<polygon fill="#63b8ff" stroke="#63b8ff" points="86.17,-95.81 87.95,-85.37 80.05,-92.42 86.17,-95.81"/>
</g>
<!-- Node25&#45;&gt;Node14 -->
<g id="edge32" class="edge">
<title>Node25&#45;&gt;Node14</title>
<path fill="none" stroke="#63b8ff" d="M587.48,-296.79C573.76,-278.35 541.09,-233.86 516,-195 491.94,-157.74 466.14,-112.52 452.59,-88.3"/>
<polygon fill="#63b8ff" stroke="#63b8ff" points="455.64,-86.6 447.72,-79.57 449.53,-90 455.64,-86.6"/>
</g>
<!-- Node25&#45;&gt;Node22 -->
<g id="edge34" class="edge">
<title>Node25&#45;&gt;Node22</title>
<path fill="none" stroke="#63b8ff" d="M566.81,-296.99C539.43,-288.43 496.41,-274.97 461.9,-264.18"/>
<polygon fill="#63b8ff" stroke="#63b8ff" points="462.55,-260.71 451.96,-261.06 460.46,-267.39 462.55,-260.71"/>
</g>
<!-- Node26 -->
<g id="node26" class="node">
<title>Node26</title>
<g id="a_node26"><a xlink:title=" ">
<polygon fill="#e0e0e0" stroke="#999999" points="654,-255.5 596,-255.5 596,-236.5 654,-236.5 654,-255.5"/>
<text text-anchor="middle" x="625" y="-243.5" font-family="Helvetica,sans-Serif" font-size="10.00">memory</text>
</a>
</g>
</g>
<!-- Node25&#45;&gt;Node26 -->
<g id="edge31" class="edge">
<title>Node25&#45;&gt;Node26</title>
<path fill="none" stroke="#63b8ff" d="M598.57,-296.87C603.06,-288.4 610.03,-275.24 615.69,-264.57"/>
<polygon fill="#63b8ff" stroke="#63b8ff" points="618.82,-266.14 620.41,-255.67 612.63,-262.86 618.82,-266.14"/>
</g>
<!-- Node27 -->
<g id="node27" class="node">
<title>Node27</title>
<g id="a_node27"><a xlink:title=" ">
<polygon fill="#e0e0e0" stroke="#999999" points="995.5,-79.5 948.5,-79.5 948.5,-60.5 995.5,-60.5 995.5,-79.5"/>
<text text-anchor="middle" x="972" y="-67.5" font-family="Helvetica,sans-Serif" font-size="10.00">vector</text>
</a>
</g>
</g>
<!-- Node25&#45;&gt;Node27 -->
<g id="edge33" class="edge">
<title>Node25&#45;&gt;Node27</title>
<path fill="none" stroke="#63b8ff" d="M607.6,-296.97C621.59,-288.14 643.98,-273.85 663,-261 752.31,-200.67 767.43,-174.49 861,-121 868.57,-116.67 912.56,-97.12 942.83,-83.79"/>
<polygon fill="#63b8ff" stroke="#63b8ff" points="944.37,-86.94 952.12,-79.71 941.55,-80.53 944.37,-86.94"/>
</g>
<!-- Node28 -->
<g id="node28" class="node">
<title>Node28</title>
<g id="a_node28"><a xlink:href="config_8h.html" target="_top" xlink:title=" ">
<polygon fill="white" stroke="#666666" points="611,-195 525,-195 525,-176 611,-176 611,-195"/>
<text text-anchor="middle" x="568" y="-183" font-family="Helvetica,sans-Serif" font-size="10.00">thorin/config.h</text>
</a>
</g>
</g>
<!-- Node25&#45;&gt;Node28 -->
<g id="edge36" class="edge">
<title>Node25&#45;&gt;Node28</title>
<path fill="none" stroke="#63b8ff" d="M592.13,-296.94C587.95,-277.82 577.78,-231.27 572.07,-205.12"/>
<polygon fill="#63b8ff" stroke="#63b8ff" points="575.48,-204.32 569.92,-195.3 568.64,-205.82 575.48,-204.32"/>
</g>
<!-- Node29 -->
<g id="node29" class="node">
<title>Node29</title>
<g id="a_node29"><a xlink:href="def_8h.html" target="_top" xlink:title=" ">
<polygon fill="white" stroke="#666666" points="958,-255.5 886,-255.5 886,-236.5 958,-236.5 958,-255.5"/>
<text text-anchor="middle" x="922" y="-243.5" font-family="Helvetica,sans-Serif" font-size="10.00">thorin/def.h</text>
</a>
</g>
</g>
<!-- Node25&#45;&gt;Node29 -->
<g id="edge37" class="edge">
<title>Node25&#45;&gt;Node29</title>
<path fill="none" stroke="#63b8ff" d="M637.56,-297.73C699.46,-286.69 812.38,-266.55 875.74,-255.25"/>
<polygon fill="#63b8ff" stroke="#63b8ff" points="876.61,-258.65 885.84,-253.45 875.38,-251.76 876.61,-258.65"/>
</g>
<!-- Node29&#45;&gt;Node4 -->
<g id="edge61" class="edge">
<title>Node29&#45;&gt;Node4</title>
<path fill="none" stroke="#63b8ff" d="M885.91,-242.33C759.67,-233.01 337.33,-201.81 185.2,-190.58"/>
<polygon fill="#63b8ff" stroke="#63b8ff" points="185.38,-187.08 175.15,-189.83 184.87,-194.06 185.38,-187.08"/>
</g>
<!-- Node29&#45;&gt;Node8 -->
<g id="edge62" class="edge">
<title>Node29&#45;&gt;Node8</title>
<path fill="none" stroke="#63b8ff" d="M903.87,-236.43C869.85,-220.38 797.59,-186.49 772,-176 742.82,-164.04 709.11,-151.96 684.36,-143.41"/>
<polygon fill="#63b8ff" stroke="#63b8ff" points="685.27,-140.02 674.68,-140.09 683,-146.64 685.27,-140.02"/>
</g>
<!-- Node29&#45;&gt;Node27 -->
<g id="edge39" class="edge">
<title>Node29&#45;&gt;Node27</title>
<path fill="none" stroke="#63b8ff" d="M925.44,-236.23C929.26,-226.31 935.49,-209.64 940,-195 951.37,-158.13 962.03,-114.28 967.71,-89.84"/>
<polygon fill="#63b8ff" stroke="#63b8ff" points="971.19,-90.33 970.03,-79.8 964.37,-88.76 971.19,-90.33"/>
</g>
<!-- Node29&#45;&gt;Node28 -->
<g id="edge40" class="edge">
<title>Node29&#45;&gt;Node28</title>
<path fill="none" stroke="#63b8ff" d="M885.78,-239.01C823,-228.64 693.74,-207.28 620.9,-195.24"/>
<polygon fill="#63b8ff" stroke="#63b8ff" points="621.45,-191.79 611.01,-193.61 620.31,-198.69 621.45,-191.79"/>
</g>
<!-- Node30 -->
<g id="node30" class="node">
<title>Node30</title>
<g id="a_node30"><a xlink:title=" ">
<polygon fill="#e0e0e0" stroke="#999999" points="926,-140 870,-140 870,-121 926,-121 926,-140"/>
<text text-anchor="middle" x="898" y="-128" font-family="Helvetica,sans-Serif" font-size="10.00">optional</text>
</a>
</g>
</g>
<!-- Node29&#45;&gt;Node30 -->
<g id="edge38" class="edge">
<title>Node29&#45;&gt;Node30</title>
<path fill="none" stroke="#63b8ff" d="M924.08,-236.31C926.88,-223.02 930.88,-197.02 925,-176 922.24,-166.12 916.61,-156.25 911.21,-148.32"/>
<polygon fill="#63b8ff" stroke="#63b8ff" points="913.87,-146.04 905.15,-140.03 908.22,-150.17 913.87,-146.04"/>
</g>
<!-- Node31 -->
<g id="node31" class="node">
<title>Node31</title>
<g id="a_node31"><a xlink:href="array_8h.html" target="_top" xlink:title=" ">
<polygon fill="#fff0f0" stroke="red" points="1110,-140 1010,-140 1010,-121 1110,-121 1110,-140"/>
<text text-anchor="middle" x="1060" y="-128" font-family="Helvetica,sans-Serif" font-size="10.00">thorin/util/array.h</text>
</a>
</g>
</g>
<!-- Node29&#45;&gt;Node31 -->
<g id="edge41" class="edge">
<title>Node29&#45;&gt;Node31</title>
<path fill="none" stroke="#63b8ff" d="M936.47,-236.35C951.81,-226.93 976.47,-211.05 996,-195 1014.03,-180.19 1032.76,-161.1 1045.26,-147.73"/>
<polygon fill="#63b8ff" stroke="#63b8ff" points="1047.97,-149.96 1052.18,-140.24 1042.83,-145.21 1047.97,-149.96"/>
</g>
<!-- Node37 -->
<g id="node35" class="node">
<title>Node37</title>
<g id="a_node35"><a xlink:href="cast_8h.html" target="_top" xlink:title=" ">
<polygon fill="white" stroke="#666666" points="1224,-140 1128,-140 1128,-121 1224,-121 1224,-140"/>
<text text-anchor="middle" x="1176" y="-128" font-family="Helvetica,sans-Serif" font-size="10.00">thorin/util/cast.h</text>
</a>
</g>
</g>
<!-- Node29&#45;&gt;Node37 -->
<g id="edge50" class="edge">
<title>Node29&#45;&gt;Node37</title>
<path fill="none" stroke="#63b8ff" d="M941.09,-236.47C985.31,-216.71 1094.98,-167.71 1147.31,-144.32"/>
<polygon fill="#63b8ff" stroke="#63b8ff" points="1148.99,-147.41 1156.69,-140.13 1146.13,-141.01 1148.99,-147.41"/>
</g>
<!-- Node29&#45;&gt;Node38 -->
<g id="edge53" class="edge">
<title>Node29&#45;&gt;Node38</title>
<path fill="none" stroke="#63b8ff" d="M952.67,-236.47C1025.34,-216.25 1208.04,-165.43 1289.6,-142.74"/>
<polygon fill="#63b8ff" stroke="#63b8ff" points="1290.56,-146.1 1299.26,-140.05 1288.68,-139.36 1290.56,-146.1"/>
</g>
<!-- Node44 -->
<g id="node42" class="node">
<title>Node44</title>
<g id="a_node42"><a xlink:href="util_8h.html" target="_top" xlink:title=" ">
<polygon fill="#fff0f0" stroke="red" points="916,-195 824,-195 824,-176 916,-176 916,-195"/>
<text text-anchor="middle" x="870" y="-183" font-family="Helvetica,sans-Serif" font-size="10.00">thorin/util/util.h</text>
</a>
</g>
</g>
<!-- Node29&#45;&gt;Node44 -->
<g id="edge63" class="edge">
<title>Node29&#45;&gt;Node44</title>
<path fill="none" stroke="#63b8ff" d="M914.33,-236.37C906.49,-227.55 894.14,-213.66 884.46,-202.77"/>
<polygon fill="#63b8ff" stroke="#63b8ff" points="886.96,-200.32 877.7,-195.17 881.73,-204.97 886.96,-200.32"/>
</g>
<!-- Node31&#45;&gt;Node9 -->
<g id="edge46" class="edge">
<title>Node31&#45;&gt;Node9</title>
<path fill="none" stroke="#63b8ff" d="M1036.44,-120.99C1008.73,-110.99 962.53,-94.3 931.19,-82.99"/>
<polygon fill="#63b8ff" stroke="#63b8ff" points="932.18,-79.62 921.58,-79.52 929.8,-86.21 932.18,-79.62"/>
</g>
<!-- Node31&#45;&gt;Node12 -->
<g id="edge47" class="edge">
<title>Node31&#45;&gt;Node12</title>
<path fill="none" stroke="#63b8ff" d="M1010.19,-120.95C968.72,-113.28 908.39,-100.79 857,-85 855.12,-84.42 853.21,-83.79 851.28,-83.12"/>
<polygon fill="#63b8ff" stroke="#63b8ff" points="852.38,-79.79 841.79,-79.57 849.93,-86.35 852.38,-79.79"/>
</g>
<!-- Node31&#45;&gt;Node16 -->
<g id="edge42" class="edge">
<title>Node31&#45;&gt;Node16</title>
<path fill="none" stroke="#63b8ff" d="M1056.59,-120.71C1053.2,-111.78 1047.93,-97.53 1044,-85 1038.13,-66.26 1032.42,-44.55 1028.62,-29.42"/>
<polygon fill="#63b8ff" stroke="#63b8ff" points="1031.91,-28.15 1026.11,-19.28 1025.11,-29.83 1031.91,-28.15"/>
</g>
<!-- Node31&#45;&gt;Node21 -->
<g id="edge48" class="edge">
<title>Node31&#45;&gt;Node21</title>
<path fill="none" stroke="#63b8ff" d="M1098.38,-120.93C1126.69,-113.69 1165.58,-101.81 1197,-85 1215.97,-74.85 1216.25,-65.56 1235,-55 1259.89,-40.98 1290.05,-29.76 1313.78,-22.09"/>
<polygon fill="#63b8ff" stroke="#63b8ff" points="1315.03,-25.36 1323.52,-19.02 1312.93,-18.69 1315.03,-25.36"/>
</g>
<!-- Node31&#45;&gt;Node27 -->
<g id="edge49" class="edge">
<title>Node31&#45;&gt;Node27</title>
<path fill="none" stroke="#63b8ff" d="M1047.02,-120.87C1032.98,-111.54 1010.37,-96.51 993.64,-85.38"/>
<polygon fill="#63b8ff" stroke="#63b8ff" points="995.3,-82.29 985.04,-79.67 991.43,-88.12 995.3,-82.29"/>
</g>
<!-- Node32 -->
<g id="node32" class="node">
<title>Node32</title>
<g id="a_node32"><a xlink:title=" ">
<polygon fill="#e0e0e0" stroke="#999999" points="1105.5,-79.5 1052.5,-79.5 1052.5,-60.5 1105.5,-60.5 1105.5,-79.5"/>
<text text-anchor="middle" x="1079" y="-67.5" font-family="Helvetica,sans-Serif" font-size="10.00">cstddef</text>
</a>
</g>
</g>
<!-- Node31&#45;&gt;Node32 -->
<g id="edge43" class="edge">
<title>Node31&#45;&gt;Node32</title>
<path fill="none" stroke="#63b8ff" d="M1062.8,-120.87C1065.5,-112.57 1069.65,-99.78 1073.08,-89.22"/>
<polygon fill="#63b8ff" stroke="#63b8ff" points="1076.42,-90.26 1076.18,-79.67 1069.77,-88.1 1076.42,-90.26"/>
</g>
<!-- Node33 -->
<g id="node33" class="node">
<title>Node33</title>
<g id="a_node33"><a xlink:title=" ">
<polygon fill="#e0e0e0" stroke="#999999" points="1294,-79.5 1244,-79.5 1244,-60.5 1294,-60.5 1294,-79.5"/>
<text text-anchor="middle" x="1269" y="-67.5" font-family="Helvetica,sans-Serif" font-size="10.00">cstring</text>
</a>
</g>
</g>
<!-- Node31&#45;&gt;Node33 -->
<g id="edge44" class="edge">
<title>Node31&#45;&gt;Node33</title>
<path fill="none" stroke="#63b8ff" d="M1096.41,-120.96C1131.01,-112.61 1184.39,-99.12 1230,-85 1232.12,-84.34 1234.3,-83.64 1236.49,-82.91"/>
<polygon fill="#63b8ff" stroke="#63b8ff" points="1237.7,-86.2 1246.02,-79.63 1235.42,-79.58 1237.7,-86.2"/>
</g>
<!-- Node34 -->
<g id="node34" class="node">
<title>Node34</title>
<g id="a_node34"><a xlink:title=" ">
<polygon fill="#e0e0e0" stroke="#999999" points="1188,-79.5 1124,-79.5 1124,-60.5 1188,-60.5 1188,-79.5"/>
<text text-anchor="middle" x="1156" y="-67.5" font-family="Helvetica,sans-Serif" font-size="10.00">algorithm</text>
</a>
</g>
</g>
<!-- Node31&#45;&gt;Node34 -->
<g id="edge45" class="edge">
<title>Node31&#45;&gt;Node34</title>
<path fill="none" stroke="#63b8ff" d="M1074.17,-120.87C1089.69,-111.41 1114.83,-96.09 1133.15,-84.92"/>
<polygon fill="#63b8ff" stroke="#63b8ff" points="1135.06,-87.86 1141.78,-79.67 1131.42,-81.88 1135.06,-87.86"/>
</g>
<!-- Node37&#45;&gt;Node16 -->
<g id="edge51" class="edge">
<title>Node37&#45;&gt;Node16</title>
<path fill="none" stroke="#63b8ff" d="M1219.75,-120.92C1266.71,-109.81 1331.04,-87.86 1303,-55 1272.25,-18.96 1129.06,-11.97 1060.62,-10.71"/>
<polygon fill="#63b8ff" stroke="#63b8ff" points="1060.35,-7.21 1050.3,-10.56 1060.25,-14.21 1060.35,-7.21"/>
</g>
<!-- Node37&#45;&gt;Node33 -->
<g id="edge52" class="edge">
<title>Node37&#45;&gt;Node33</title>
<path fill="none" stroke="#63b8ff" d="M1189.72,-120.87C1204.7,-111.45 1228.89,-96.23 1246.62,-85.08"/>
<polygon fill="#63b8ff" stroke="#63b8ff" points="1248.62,-87.95 1255.22,-79.67 1244.89,-82.03 1248.62,-87.95"/>
</g>
<!-- Node39 -->
<g id="node37" class="node">
<title>Node39</title>
<g id="a_node37"><a xlink:href="types_8h.html" target="_top" xlink:title=" ">
<polygon fill="white" stroke="#666666" points="1539.5,-79.5 1436.5,-79.5 1436.5,-60.5 1539.5,-60.5 1539.5,-79.5"/>
<text text-anchor="middle" x="1488" y="-67.5" font-family="Helvetica,sans-Serif" font-size="10.00">thorin/util/types.h</text>
</a>
</g>
</g>
<!-- Node38&#45;&gt;Node39 -->
<g id="edge54" class="edge">
<title>Node38&#45;&gt;Node39</title>
<path fill="none" stroke="#63b8ff" d="M1352.97,-120.99C1379.89,-111.03 1424.67,-94.45 1455.23,-83.13"/>
<polygon fill="#63b8ff" stroke="#63b8ff" points="1456.84,-86.27 1465,-79.52 1454.4,-79.71 1456.84,-86.27"/>
</g>
<!-- Node39&#45;&gt;Node11 -->
<g id="edge57" class="edge">
<title>Node39&#45;&gt;Node11</title>
<path fill="none" stroke="#63b8ff" d="M1436.17,-64.97C1399.09,-62.11 1347.98,-58.22 1303,-55 1067.78,-38.15 785.14,-19.61 683.63,-13"/>
<polygon fill="#63b8ff" stroke="#63b8ff" points="683.75,-9.5 673.54,-12.35 683.3,-16.49 683.75,-9.5"/>
</g>
<!-- Node39&#45;&gt;Node21 -->
<g id="edge58" class="edge">
<title>Node39&#45;&gt;Node21</title>
<path fill="none" stroke="#63b8ff" d="M1468.52,-60.49C1445.99,-50.66 1408.69,-34.38 1382.81,-23.08"/>
<polygon fill="#63b8ff" stroke="#63b8ff" points="1384.07,-19.81 1373.51,-19.02 1381.27,-26.23 1384.07,-19.81"/>
</g>
<!-- Node40 -->
<g id="node38" class="node">
<title>Node40</title>
<g id="a_node38"><a xlink:title=" ">
<polygon fill="#e0e0e0" stroke="#999999" points="1659,-19 1609,-19 1609,0 1659,0 1659,-19"/>
<text text-anchor="middle" x="1634" y="-7" font-family="Helvetica,sans-Serif" font-size="10.00">cstdint</text>
</a>
</g>
</g>
<!-- Node39&#45;&gt;Node40 -->
<g id="edge55" class="edge">
<title>Node39&#45;&gt;Node40</title>
<path fill="none" stroke="#63b8ff" d="M1509.23,-60.49C1533.99,-50.57 1575.12,-34.09 1603.35,-22.78"/>
<polygon fill="#63b8ff" stroke="#63b8ff" points="1604.76,-25.99 1612.74,-19.02 1602.16,-19.49 1604.76,-25.99"/>
</g>
<!-- Node41 -->
<g id="node39" class="node">
<title>Node41</title>
<g id="a_node39"><a xlink:title=" ">
<polygon fill="#e0e0e0" stroke="#999999" points="1451,-19 1407,-19 1407,0 1451,0 1451,-19"/>
<text text-anchor="middle" x="1429" y="-7" font-family="Helvetica,sans-Serif" font-size="10.00">limits</text>
</a>
</g>
</g>
<!-- Node39&#45;&gt;Node41 -->
<g id="edge56" class="edge">
<title>Node39&#45;&gt;Node41</title>
<path fill="none" stroke="#63b8ff" d="M1479.29,-60.37C1470.32,-51.47 1456.12,-37.39 1445.09,-26.45"/>
<polygon fill="#63b8ff" stroke="#63b8ff" points="1447.31,-23.72 1437.74,-19.17 1442.38,-28.69 1447.31,-23.72"/>
</g>
<!-- Node42 -->
<g id="node40" class="node">
<title>Node42</title>
<g id="a_node40"><a xlink:title=" ">
<polygon fill="#e0e0e0" stroke="#999999" points="1516.5,-19 1469.5,-19 1469.5,0 1516.5,0 1516.5,-19"/>
<text text-anchor="middle" x="1493" y="-7" font-family="Helvetica,sans-Serif" font-size="10.00">cmath</text>
</a>
</g>
</g>
<!-- Node39&#45;&gt;Node42 -->
<g id="edge59" class="edge">
<title>Node39&#45;&gt;Node42</title>
<path fill="none" stroke="#63b8ff" d="M1488.74,-60.37C1489.43,-52.25 1490.5,-39.81 1491.39,-29.39"/>
<polygon fill="#63b8ff" stroke="#63b8ff" points="1494.89,-29.43 1492.26,-19.17 1487.92,-28.83 1494.89,-29.43"/>
</g>
<!-- Node43 -->
<g id="node41" class="node">
<title>Node43</title>
<g id="a_node41"><a xlink:title=" ">
<polygon fill="#e0e0e0" stroke="#999999" points="1591,-19 1535,-19 1535,0 1591,0 1591,-19"/>
<text text-anchor="middle" x="1563" y="-7" font-family="Helvetica,sans-Serif" font-size="10.00">half.hpp</text>
</a>
</g>
</g>
<!-- Node39&#45;&gt;Node43 -->
<g id="edge60" class="edge">
<title>Node39&#45;&gt;Node43</title>
<path fill="none" stroke="#63b8ff" d="M1499.07,-60.37C1510.81,-51.21 1529.59,-36.56 1543.76,-25.51"/>
<polygon fill="#63b8ff" stroke="#63b8ff" points="1546.16,-28.08 1551.89,-19.17 1541.85,-22.56 1546.16,-28.08"/>
</g>
<!-- Node44&#45;&gt;Node6 -->
<g id="edge66" class="edge">
<title>Node44&#45;&gt;Node6</title>
<path fill="none" stroke="#63b8ff" d="M823.65,-182.78C702.78,-178.02 380.17,-163.44 276,-140 225.66,-128.67 170.69,-105.78 135.13,-89.47"/>
<polygon fill="#63b8ff" stroke="#63b8ff" points="136.18,-86.1 125.63,-85.06 133.23,-92.45 136.18,-86.1"/>
</g>
<!-- Node44&#45;&gt;Node7 -->
<g id="edge67" class="edge">
<title>Node44&#45;&gt;Node7</title>
<path fill="none" stroke="#63b8ff" d="M823.83,-180.33C755.57,-173.81 623.82,-159.85 513,-140 432.26,-125.54 340.4,-102.98 281.17,-87.63"/>
<polygon fill="#63b8ff" stroke="#63b8ff" points="281.79,-84.17 271.23,-85.04 280.02,-90.94 281.79,-84.17"/>
</g>
<!-- Node44&#45;&gt;Node15 -->
<g id="edge69" class="edge">
<title>Node44&#45;&gt;Node15</title>
<path fill="none" stroke="#63b8ff" d="M859.18,-175.97C834.89,-156.82 775.78,-110.23 745.13,-86.08"/>
<polygon fill="#63b8ff" stroke="#63b8ff" points="746.97,-83.07 736.95,-79.63 742.64,-88.57 746.97,-83.07"/>
</g>
<!-- Node44&#45;&gt;Node18 -->
<g id="edge68" class="edge">
<title>Node44&#45;&gt;Node18</title>
<path fill="none" stroke="#63b8ff" d="M823.78,-178.8C768.18,-171.57 672.2,-157.85 591,-140 524.38,-125.36 449.02,-103.29 399.68,-88.07"/>
<polygon fill="#63b8ff" stroke="#63b8ff" points="400.46,-84.64 389.87,-85.02 398.38,-91.33 400.46,-84.64"/>
</g>
<!-- Node44&#45;&gt;Node21 -->
<g id="edge65" class="edge">
<title>Node44&#45;&gt;Node21</title>
<path fill="none" stroke="#63b8ff" d="M916.18,-185.23C986.61,-184.95 1124.17,-178.85 1233,-140 1254.54,-132.31 1304.96,-102.23 1320,-85 1334.28,-68.64 1343.62,-45.28 1348.84,-29.1"/>
<polygon fill="#63b8ff" stroke="#63b8ff" points="1352.28,-29.8 1351.8,-19.21 1345.58,-27.79 1352.28,-29.8"/>
</g>
<!-- Node44&#45;&gt;Node30 -->
<g id="edge64" class="edge">
<title>Node44&#45;&gt;Node30</title>
<path fill="none" stroke="#63b8ff" d="M874.62,-175.75C878.46,-168.49 884.02,-157.95 888.76,-148.98"/>
<polygon fill="#63b8ff" stroke="#63b8ff" points="891.89,-150.57 893.46,-140.09 885.7,-147.3 891.89,-150.57"/>
</g>
<!-- Node44&#45;&gt;Node38 -->
<g id="edge70" class="edge">
<title>Node44&#45;&gt;Node38</title>
<path fill="none" stroke="#63b8ff" d="M916.07,-179.63C989.95,-171.74 1139.48,-155.51 1266,-140 1267.46,-139.82 1268.94,-139.64 1270.43,-139.45"/>
<polygon fill="#63b8ff" stroke="#63b8ff" points="1270.92,-142.92 1280.4,-138.19 1270.04,-135.97 1270.92,-142.92"/>
</g>
<!-- Node48&#45;&gt;Node3 -->
<g id="edge73" class="edge">
<title>Node48&#45;&gt;Node3</title>
<path fill="none" stroke="#63b8ff" d="M561.11,-357.49C540.62,-347.75 506.81,-331.66 483.08,-320.38"/>
<polygon fill="#63b8ff" stroke="#63b8ff" points="484.44,-317.15 473.91,-316.02 481.43,-323.47 484.44,-317.15"/>
</g>
<!-- Node48&#45;&gt;Node29 -->
<g id="edge74" class="edge">
<title>Node48&#45;&gt;Node29</title>
<path fill="none" stroke="#63b8ff" d="M603.67,-357.44C663.84,-336.57 818.28,-282.98 887.52,-258.96"/>
<polygon fill="#63b8ff" stroke="#63b8ff" points="888.79,-262.22 897.09,-255.64 886.5,-255.61 888.79,-262.22"/>
</g>
<!-- Node49&#45;&gt;Node28 -->
<g id="edge76" class="edge">
<title>Node49&#45;&gt;Node28</title>
<path fill="none" stroke="#63b8ff" d="M320.39,-236.45C327.12,-234.54 334.29,-232.61 341,-231 399.99,-216.82 468.41,-203.88 514.59,-195.65"/>
<polygon fill="#63b8ff" stroke="#63b8ff" points="515.43,-199.06 524.67,-193.87 514.21,-192.16 515.43,-199.06"/>
</g>
<!-- Node50&#45;&gt;Node29 -->
<g id="edge79" class="edge">
<title>Node50&#45;&gt;Node29</title>
<path fill="none" stroke="#63b8ff" d="M854.46,-357.32C861.69,-347.48 873.62,-330.88 883,-316 893.75,-298.95 904.96,-278.83 912.59,-264.73"/>
<polygon fill="#63b8ff" stroke="#63b8ff" points="915.82,-266.12 917.46,-255.65 909.65,-262.81 915.82,-266.12"/>
</g>
<!-- Node51 -->
<g id="node46" class="node">
<title>Node51</title>
<g id="a_node46"><a xlink:title=" ">
<polygon fill="#e0e0e0" stroke="#999999" points="873.5,-316 822.5,-316 822.5,-297 873.5,-297 873.5,-316"/>
<text text-anchor="middle" x="848" y="-304" font-family="Helvetica,sans-Serif" font-size="10.00">variant</text>
</a>
</g>
</g>
<!-- Node50&#45;&gt;Node51 -->
<g id="edge78" class="edge">
<title>Node50&#45;&gt;Node51</title>
<path fill="none" stroke="#63b8ff" d="M848,-357.37C848,-349.25 848,-336.81 848,-326.39"/>
<polygon fill="#63b8ff" stroke="#63b8ff" points="851.5,-326.17 848,-316.17 844.5,-326.17 851.5,-326.17"/>
</g>
<!-- Node52&#45;&gt;Node29 -->
<g id="edge81" class="edge">
<title>Node52&#45;&gt;Node29</title>
<path fill="none" stroke="#63b8ff" d="M1051.9,-296.99C1026.01,-287.03 982.92,-270.45 953.53,-259.13"/>
<polygon fill="#63b8ff" stroke="#63b8ff" points="954.72,-255.84 944.13,-255.52 952.2,-262.38 954.72,-255.84"/>
</g>
<!-- Node53&#45;&gt;Node29 -->
<g id="edge83" class="edge">
<title>Node53&#45;&gt;Node29</title>
<path fill="none" stroke="#63b8ff" d="M963.77,-296.87C956.46,-288.14 944.98,-274.43 935.9,-263.59"/>
<polygon fill="#63b8ff" stroke="#63b8ff" points="938.36,-261.09 929.26,-255.67 933,-265.58 938.36,-261.09"/>
</g>
<!-- Node54&#45;&gt;Node4 -->
<g id="edge89" class="edge">
<title>Node54&#45;&gt;Node4</title>
<path fill="none" stroke="#63b8ff" d="M81.73,-296.92C64.16,-290.21 43.48,-278.94 33,-261 26.27,-249.49 25.8,-242.22 33,-231 43.09,-215.28 60.27,-205.03 77.41,-198.4"/>
<polygon fill="#63b8ff" stroke="#63b8ff" points="78.6,-201.69 86.87,-195.07 76.28,-195.08 78.6,-201.69"/>
</g>
<!-- Node54&#45;&gt;Node11 -->
<g id="edge86" class="edge">
<title>Node54&#45;&gt;Node11</title>
<path fill="none" stroke="#63b8ff" d="M114.11,-296.63C117.1,-282.02 121.05,-252.38 110,-231 97.76,-207.31 76.61,-217.31 62,-195 27.33,-142.05 -7.09,-101.35 36,-55 74.79,-13.27 477.82,-10.25 606.05,-10.35"/>
<polygon fill="#63b8ff" stroke="#63b8ff" points="606.19,-13.85 616.2,-10.36 606.2,-6.85 606.19,-13.85"/>
</g>
<!-- Node54&#45;&gt;Node49 -->
<g id="edge88" class="edge">
<title>Node54&#45;&gt;Node49</title>
<path fill="none" stroke="#63b8ff" d="M138.17,-296.99C169.23,-286.9 221.19,-270.01 256.02,-258.69"/>
<polygon fill="#63b8ff" stroke="#63b8ff" points="257.37,-261.94 265.79,-255.52 255.2,-255.28 257.37,-261.94"/>
</g>
<!-- Node55 -->
<g id="node50" class="node">
<title>Node55</title>
<g id="a_node50"><a xlink:title=" ">
<polygon fill="#e0e0e0" stroke="#999999" points="101.5,-255.5 42.5,-255.5 42.5,-236.5 101.5,-236.5 101.5,-255.5"/>
<text text-anchor="middle" x="72" y="-243.5" font-family="Helvetica,sans-Serif" font-size="10.00">rang.hpp</text>
</a>
</g>
</g>
<!-- Node54&#45;&gt;Node55 -->
<g id="edge87" class="edge">
<title>Node54&#45;&gt;Node55</title>
<path fill="none" stroke="#63b8ff" d="M106.1,-296.87C100.25,-288.31 91.13,-274.97 83.79,-264.24"/>
<polygon fill="#63b8ff" stroke="#63b8ff" points="86.46,-261.95 77.93,-255.67 80.68,-265.9 86.46,-261.95"/>
</g>
</g>
</svg>
