<?xml version="1.0" encoding="UTF-8" standalone="no"?>
<!DOCTYPE svg PUBLIC "-//W3C//DTD SVG 1.1//EN"
 "http://www.w3.org/Graphics/SVG/1.1/DTD/svg11.dtd">
<!-- Generated by graphviz version 2.43.0 (0)
 -->
<!-- Title: /home/runner/work/thorin2/thorin2/thorin/pass/fp/ssa_constr.cpp Pages: 1 -->
<svg width="1619pt" height="632pt"
 viewBox="0.00 0.00 1619.00 632.00" xmlns="http://www.w3.org/2000/svg" xmlns:xlink="http://www.w3.org/1999/xlink">
<g id="graph0" class="graph" transform="scale(1 1) rotate(0) translate(4 628)">
<title>/home/runner/work/thorin2/thorin2/thorin/pass/fp/ssa_constr.cpp</title>
<!-- Node1 -->
<g id="node1" class="node">
<title>Node1</title>
<g id="a_node1"><a xlink:title=" ">
<polygon fill="#bfbfbf" stroke="black" points="1425,-582.5 1425,-623.5 1571,-623.5 1571,-582.5 1425,-582.5"/>
<text text-anchor="start" x="1433" y="-611.5" font-family="Helvetica,sans-Serif" font-size="10.00">/home/runner/work/thorin2</text>
<text text-anchor="start" x="1433" y="-600.5" font-family="Helvetica,sans-Serif" font-size="10.00">/thorin2/thorin/pass/fp</text>
<text text-anchor="middle" x="1498" y="-589.5" font-family="Helvetica,sans-Serif" font-size="10.00">/ssa_constr.cpp</text>
</a>
</g>
</g>
<!-- Node2 -->
<g id="node2" class="node">
<title>Node2</title>
<g id="a_node2"><a xlink:href="ssa__constr_8h.html" target="_top" xlink:title=" ">
<polygon fill="none" stroke="black" points="1507.5,-515.5 1507.5,-545.5 1610.5,-545.5 1610.5,-515.5 1507.5,-515.5"/>
<text text-anchor="start" x="1515.5" y="-533.5" font-family="Helvetica,sans-Serif" font-size="10.00">thorin/pass/fp/ssa</text>
<text text-anchor="middle" x="1559" y="-522.5" font-family="Helvetica,sans-Serif" font-size="10.00">_constr.h</text>
</a>
</g>
</g>
<!-- Node1&#45;&gt;Node2 -->
<g id="edge1" class="edge">
<title>Node1&#45;&gt;Node2</title>
<path fill="none" stroke="midnightblue" d="M1514.99,-582.36C1522.74,-573.41 1531.93,-562.78 1539.92,-553.56"/>
<polygon fill="midnightblue" stroke="midnightblue" points="1542.65,-555.74 1546.55,-545.89 1537.36,-551.16 1542.65,-555.74"/>
</g>
<!-- Node50 -->
<g id="node50" class="node">
<title>Node50</title>
<g id="a_node50"><a xlink:href="eta__exp_8h.html" target="_top" xlink:title=" ">
<polygon fill="none" stroke="black" points="1387,-515.5 1387,-545.5 1489,-545.5 1489,-515.5 1387,-515.5"/>
<text text-anchor="start" x="1395" y="-533.5" font-family="Helvetica,sans-Serif" font-size="10.00">thorin/pass/fp/eta</text>
<text text-anchor="middle" x="1438" y="-522.5" font-family="Helvetica,sans-Serif" font-size="10.00">_exp.h</text>
</a>
</g>
</g>
<!-- Node1&#45;&gt;Node50 -->
<g id="edge76" class="edge">
<title>Node1&#45;&gt;Node50</title>
<path fill="none" stroke="midnightblue" d="M1481.29,-582.36C1473.67,-573.41 1464.62,-562.78 1456.77,-553.56"/>
<polygon fill="midnightblue" stroke="midnightblue" points="1459.39,-551.24 1450.25,-545.89 1454.06,-555.78 1459.39,-551.24"/>
</g>
<!-- Node3 -->
<g id="node3" class="node">
<title>Node3</title>
<g id="a_node3"><a xlink:href="pass_8h.html" target="_top" xlink:title=" ">
<polygon fill="none" stroke="black" points="1399.5,-459.5 1399.5,-478.5 1504.5,-478.5 1504.5,-459.5 1399.5,-459.5"/>
<text text-anchor="middle" x="1452" y="-466.5" font-family="Helvetica,sans-Serif" font-size="10.00">thorin/pass/pass.h</text>
</a>
</g>
</g>
<!-- Node2&#45;&gt;Node3 -->
<g id="edge2" class="edge">
<title>Node2&#45;&gt;Node3</title>
<path fill="none" stroke="midnightblue" d="M1533.64,-515.4C1516.33,-505.77 1493.52,-493.09 1476.42,-483.58"/>
<polygon fill="midnightblue" stroke="midnightblue" points="1478.01,-480.46 1467.57,-478.66 1474.61,-486.58 1478.01,-480.46"/>
</g>
<!-- Node49 -->
<g id="node49" class="node">
<title>Node49</title>
<g id="a_node49"><a xlink:href="bitset_8h.html" target="_top" xlink:title=" ">
<polygon fill="none" stroke="black" points="1507,-118 1507,-137 1611,-137 1611,-118 1507,-118"/>
<text text-anchor="middle" x="1559" y="-125" font-family="Helvetica,sans-Serif" font-size="10.00">thorin/util/bitset.h</text>
</a>
</g>
</g>
<!-- Node2&#45;&gt;Node49 -->
<g id="edge72" class="edge">
<title>Node2&#45;&gt;Node49</title>
<path fill="none" stroke="midnightblue" d="M1559,-515.28C1559,-493.48 1559,-450.49 1559,-414 1559,-414 1559,-414 1559,-244 1559,-209.86 1559,-170.05 1559,-147.21"/>
<polygon fill="midnightblue" stroke="midnightblue" points="1562.5,-147.19 1559,-137.19 1555.5,-147.19 1562.5,-147.19"/>
</g>
<!-- Node4 -->
<g id="node4" class="node">
<title>Node4</title>
<g id="a_node4"><a xlink:title=" ">
<polygon fill="none" stroke="#bfbfbf" points="1445.5,-118 1445.5,-137 1488.5,-137 1488.5,-118 1445.5,-118"/>
<text text-anchor="middle" x="1467" y="-125" font-family="Helvetica,sans-Serif" font-size="10.00">stack</text>
</a>
</g>
</g>
<!-- Node3&#45;&gt;Node4 -->
<g id="edge3" class="edge">
<title>Node3&#45;&gt;Node4</title>
<path fill="none" stroke="midnightblue" d="M1452.92,-459.45C1454.81,-440.97 1459,-395.89 1459,-358 1459,-358 1459,-358 1459,-244 1459,-209.78 1462.54,-170 1464.91,-147.18"/>
<polygon fill="midnightblue" stroke="midnightblue" points="1468.39,-147.5 1465.99,-137.18 1461.43,-146.75 1468.39,-147.5"/>
</g>
<!-- Node5 -->
<g id="node5" class="node">
<title>Node5</title>
<g id="a_node5"><a xlink:href="world_8h.html" target="_top" xlink:title=" ">
<polygon fill="none" stroke="black" points="374,-403.5 374,-422.5 458,-422.5 458,-403.5 374,-403.5"/>
<text text-anchor="middle" x="416" y="-410.5" font-family="Helvetica,sans-Serif" font-size="10.00">thorin/world.h</text>
</a>
</g>
</g>
<!-- Node3&#45;&gt;Node5 -->
<g id="edge4" class="edge">
<title>Node3&#45;&gt;Node5</title>
<path fill="none" stroke="midnightblue" d="M1399.2,-465.25C1221.32,-455.98 645.17,-425.95 468.19,-416.72"/>
<polygon fill="midnightblue" stroke="midnightblue" points="468.27,-413.22 458.1,-416.19 467.9,-420.21 468.27,-413.22"/>
</g>
<!-- Node6 -->
<g id="node6" class="node">
<title>Node6</title>
<g id="a_node6"><a xlink:title=" ">
<polygon fill="none" stroke="#bfbfbf" points="186,-56.5 186,-75.5 242,-75.5 242,-56.5 186,-56.5"/>
<text text-anchor="middle" x="214" y="-63.5" font-family="Helvetica,sans-Serif" font-size="10.00">sstream</text>
</a>
</g>
</g>
<!-- Node5&#45;&gt;Node6 -->
<g id="edge5" class="edge">
<title>Node5&#45;&gt;Node6</title>
<path fill="none" stroke="midnightblue" d="M373.71,-408.06C317.5,-400.29 220.14,-377.47 176,-311 127.91,-238.59 179.83,-127.83 203.51,-84.88"/>
<polygon fill="midnightblue" stroke="midnightblue" points="206.7,-86.34 208.59,-75.92 200.62,-82.89 206.7,-86.34"/>
</g>
<!-- Node7 -->
<g id="node7" class="node">
<title>Node7</title>
<g id="a_node7"><a xlink:title=" ">
<polygon fill="none" stroke="#bfbfbf" points="0,-56.5 0,-75.5 44,-75.5 44,-56.5 0,-56.5"/>
<text text-anchor="middle" x="22" y="-63.5" font-family="Helvetica,sans-Serif" font-size="10.00">string</text>
</a>
</g>
</g>
<!-- Node5&#45;&gt;Node7 -->
<g id="edge6" class="edge">
<title>Node5&#45;&gt;Node7</title>
<path fill="none" stroke="midnightblue" d="M373.68,-412.1C288.99,-411.45 102.63,-405.56 54,-367 29.87,-347.87 30,-332.8 30,-302 30,-302 30,-302 30,-188 30,-151.82 26.39,-109.68 24.02,-85.89"/>
<polygon fill="midnightblue" stroke="midnightblue" points="27.49,-85.38 22.98,-75.79 20.53,-86.1 27.49,-85.38"/>
</g>
<!-- Node8 -->
<g id="node8" class="node">
<title>Node8</title>
<g id="a_node8"><a xlink:href="axiom_8h.html" target="_top" xlink:title=" ">
<polygon fill="none" stroke="black" points="63,-347.5 63,-366.5 151,-366.5 151,-347.5 63,-347.5"/>
<text text-anchor="middle" x="107" y="-354.5" font-family="Helvetica,sans-Serif" font-size="10.00">thorin/axiom.h</text>
</a>
</g>
</g>
<!-- Node5&#45;&gt;Node8 -->
<g id="edge7" class="edge">
<title>Node5&#45;&gt;Node8</title>
<path fill="none" stroke="midnightblue" d="M373.68,-404.6C318.45,-394.95 221.71,-378.05 161.18,-367.47"/>
<polygon fill="midnightblue" stroke="midnightblue" points="161.5,-363.97 151.05,-365.7 160.3,-370.87 161.5,-363.97"/>
</g>
<!-- Node14 -->
<g id="node14" class="node">
<title>Node14</title>
<g id="a_node14"><a xlink:href="debug_8h.html" target="_top" xlink:title=" ">
<polygon fill="none" stroke="black" points="670.5,-179.5 670.5,-198.5 757.5,-198.5 757.5,-179.5 670.5,-179.5"/>
<text text-anchor="middle" x="714" y="-186.5" font-family="Helvetica,sans-Serif" font-size="10.00">thorin/debug.h</text>
</a>
</g>
</g>
<!-- Node5&#45;&gt;Node14 -->
<g id="edge61" class="edge">
<title>Node5&#45;&gt;Node14</title>
<path fill="none" stroke="midnightblue" d="M435.76,-403.43C470.48,-387.87 543.9,-352.69 598,-311 639.68,-278.88 680.34,-231.78 700.64,-206.88"/>
<polygon fill="midnightblue" stroke="midnightblue" points="703.62,-208.76 707.16,-198.77 698.16,-204.37 703.62,-208.76"/>
</g>
<!-- Node43 -->
<g id="node43" class="node">
<title>Node43</title>
<g id="a_node43"><a xlink:href="hash_8h.html" target="_top" xlink:title=" ">
<polygon fill="none" stroke="black" points="1328.5,-118 1328.5,-137 1427.5,-137 1427.5,-118 1328.5,-118"/>
<text text-anchor="middle" x="1378" y="-125" font-family="Helvetica,sans-Serif" font-size="10.00">thorin/util/hash.h</text>
</a>
</g>
</g>
<!-- Node5&#45;&gt;Node43 -->
<g id="edge71" class="edge">
<title>Node5&#45;&gt;Node43</title>
<path fill="none" stroke="midnightblue" d="M458.12,-411.52C639.76,-408.88 1347,-392.79 1347,-302 1347,-302 1347,-302 1347,-244 1347,-208.51 1360.82,-168.92 1370.01,-146.53"/>
<polygon fill="midnightblue" stroke="midnightblue" points="1373.25,-147.84 1373.95,-137.27 1366.81,-145.1 1373.25,-147.84"/>
</g>
<!-- Node44 -->
<g id="node44" class="node">
<title>Node44</title>
<g id="a_node44"><a xlink:title=" ">
<polygon fill="none" stroke="#bfbfbf" points="337,-347.5 337,-366.5 423,-366.5 423,-347.5 337,-347.5"/>
<text text-anchor="middle" x="380" y="-354.5" font-family="Helvetica,sans-Serif" font-size="10.00">thorin/config.h</text>
</a>
</g>
</g>
<!-- Node5&#45;&gt;Node44 -->
<g id="edge60" class="edge">
<title>Node5&#45;&gt;Node44</title>
<path fill="none" stroke="midnightblue" d="M410.06,-403.08C405.02,-395.53 397.66,-384.49 391.49,-375.23"/>
<polygon fill="midnightblue" stroke="midnightblue" points="394.29,-373.13 385.83,-366.75 388.47,-377.01 394.29,-373.13"/>
</g>
<!-- Node45 -->
<g id="node45" class="node">
<title>Node45</title>
<g id="a_node45"><a xlink:href="error_8h.html" target="_top" xlink:title=" ">
<polygon fill="none" stroke="black" points="269,-235.5 269,-254.5 349,-254.5 349,-235.5 269,-235.5"/>
<text text-anchor="middle" x="309" y="-242.5" font-family="Helvetica,sans-Serif" font-size="10.00">thorin/error.h</text>
</a>
</g>
</g>
<!-- Node5&#45;&gt;Node45 -->
<g id="edge62" class="edge">
<title>Node5&#45;&gt;Node45</title>
<path fill="none" stroke="midnightblue" d="M383.41,-403.47C364.27,-396.73 341.29,-385.34 328,-367 305.93,-336.54 305.29,-290.39 307,-264.79"/>
<polygon fill="midnightblue" stroke="midnightblue" points="310.51,-264.87 307.88,-254.6 303.53,-264.26 310.51,-264.87"/>
</g>
<!-- Node47 -->
<g id="node47" class="node">
<title>Node47</title>
<g id="a_node47"><a xlink:href="lattice_8h.html" target="_top" xlink:title=" ">
<polygon fill="none" stroke="black" points="401,-291.5 401,-310.5 489,-310.5 489,-291.5 401,-291.5"/>
<text text-anchor="middle" x="445" y="-298.5" font-family="Helvetica,sans-Serif" font-size="10.00">thorin/lattice.h</text>
</a>
</g>
</g>
<!-- Node5&#45;&gt;Node47 -->
<g id="edge67" class="edge">
<title>Node5&#45;&gt;Node47</title>
<path fill="none" stroke="midnightblue" d="M419.44,-403.49C422.97,-394.53 428.42,-379.95 432,-367 436.27,-351.56 439.74,-333.69 442.02,-320.6"/>
<polygon fill="midnightblue" stroke="midnightblue" points="445.51,-320.95 443.7,-310.51 438.6,-319.79 445.51,-320.95"/>
</g>
<!-- Node48 -->
<g id="node48" class="node">
<title>Node48</title>
<g id="a_node48"><a xlink:href="tuple_8h.html" target="_top" xlink:title=" ">
<polygon fill="none" stroke="black" points="507,-291.5 507,-310.5 589,-310.5 589,-291.5 507,-291.5"/>
<text text-anchor="middle" x="548" y="-298.5" font-family="Helvetica,sans-Serif" font-size="10.00">thorin/tuple.h</text>
</a>
</g>
</g>
<!-- Node5&#45;&gt;Node48 -->
<g id="edge69" class="edge">
<title>Node5&#45;&gt;Node48</title>
<path fill="none" stroke="midnightblue" d="M426.36,-403.37C448.72,-384.73 501.76,-340.53 529.84,-317.13"/>
<polygon fill="midnightblue" stroke="midnightblue" points="532.25,-319.68 537.69,-310.59 527.77,-314.3 532.25,-319.68"/>
</g>
<!-- Node9 -->
<g id="node9" class="node">
<title>Node9</title>
<g id="a_node9"><a xlink:href="lam_8h.html" target="_top" xlink:title=" ">
<polygon fill="none" stroke="black" points="185,-291.5 185,-310.5 261,-310.5 261,-291.5 185,-291.5"/>
<text text-anchor="middle" x="223" y="-298.5" font-family="Helvetica,sans-Serif" font-size="10.00">thorin/lam.h</text>
</a>
</g>
</g>
<!-- Node8&#45;&gt;Node9 -->
<g id="edge8" class="edge">
<title>Node8&#45;&gt;Node9</title>
<path fill="none" stroke="midnightblue" d="M125.38,-347.44C144.22,-338.68 173.73,-324.94 195.38,-314.86"/>
<polygon fill="midnightblue" stroke="midnightblue" points="197.12,-317.91 204.71,-310.52 194.16,-311.56 197.12,-317.91"/>
</g>
<!-- Node23 -->
<g id="node23" class="node">
<title>Node23</title>
<g id="a_node23"><a xlink:href="assert_8h.html" target="_top" xlink:title=" ">
<polygon fill="none" stroke="black" points="62,-56.5 62,-75.5 168,-75.5 168,-56.5 62,-56.5"/>
<text text-anchor="middle" x="115" y="-63.5" font-family="Helvetica,sans-Serif" font-size="10.00">thorin/util/assert.h</text>
</a>
</g>
</g>
<!-- Node8&#45;&gt;Node23 -->
<g id="edge59" class="edge">
<title>Node8&#45;&gt;Node23</title>
<path fill="none" stroke="midnightblue" d="M107.65,-347.45C109.01,-328.95 112,-283.85 112,-246 112,-246 112,-246 112,-188 112,-151.7 113.37,-109.3 114.25,-85.56"/>
<polygon fill="midnightblue" stroke="midnightblue" points="117.75,-85.63 114.64,-75.51 110.76,-85.36 117.75,-85.63"/>
</g>
<!-- Node10 -->
<g id="node10" class="node">
<title>Node10</title>
<g id="a_node10"><a xlink:title=" ">
<polygon fill="none" stroke="#bfbfbf" points="197.5,-235.5 197.5,-254.5 248.5,-254.5 248.5,-235.5 197.5,-235.5"/>
<text text-anchor="middle" x="223" y="-242.5" font-family="Helvetica,sans-Serif" font-size="10.00">variant</text>
</a>
</g>
</g>
<!-- Node9&#45;&gt;Node10 -->
<g id="edge9" class="edge">
<title>Node9&#45;&gt;Node10</title>
<path fill="none" stroke="midnightblue" d="M223,-291.08C223,-284.01 223,-273.86 223,-264.99"/>
<polygon fill="midnightblue" stroke="midnightblue" points="226.5,-264.75 223,-254.75 219.5,-264.75 226.5,-264.75"/>
</g>
<!-- Node11 -->
<g id="node11" class="node">
<title>Node11</title>
<g id="a_node11"><a xlink:href="def_8h.html" target="_top" xlink:title=" ">
<polygon fill="none" stroke="black" points="501,-235.5 501,-254.5 573,-254.5 573,-235.5 501,-235.5"/>
<text text-anchor="middle" x="537" y="-242.5" font-family="Helvetica,sans-Serif" font-size="10.00">thorin/def.h</text>
</a>
</g>
</g>
<!-- Node9&#45;&gt;Node11 -->
<g id="edge10" class="edge">
<title>Node9&#45;&gt;Node11</title>
<path fill="none" stroke="midnightblue" d="M261.19,-293.43C318.94,-283.5 428.33,-264.69 490.59,-253.98"/>
<polygon fill="midnightblue" stroke="midnightblue" points="491.27,-257.42 500.53,-252.27 490.08,-250.52 491.27,-257.42"/>
</g>
<!-- Node12 -->
<g id="node12" class="node">
<title>Node12</title>
<g id="a_node12"><a xlink:title=" ">
<polygon fill="none" stroke="#bfbfbf" points="414,-179.5 414,-198.5 470,-198.5 470,-179.5 414,-179.5"/>
<text text-anchor="middle" x="442" y="-186.5" font-family="Helvetica,sans-Serif" font-size="10.00">optional</text>
</a>
</g>
</g>
<!-- Node11&#45;&gt;Node12 -->
<g id="edge11" class="edge">
<title>Node11&#45;&gt;Node12</title>
<path fill="none" stroke="midnightblue" d="M521.74,-235.32C506.78,-226.82 483.75,-213.73 466.27,-203.8"/>
<polygon fill="midnightblue" stroke="midnightblue" points="467.65,-200.55 457.23,-198.65 464.19,-206.64 467.65,-200.55"/>
</g>
<!-- Node13 -->
<g id="node13" class="node">
<title>Node13</title>
<g id="a_node13"><a xlink:title=" ">
<polygon fill="none" stroke="#bfbfbf" points="444.5,-56.5 444.5,-75.5 491.5,-75.5 491.5,-56.5 444.5,-56.5"/>
<text text-anchor="middle" x="468" y="-63.5" font-family="Helvetica,sans-Serif" font-size="10.00">vector</text>
</a>
</g>
</g>
<!-- Node11&#45;&gt;Node13 -->
<g id="edge12" class="edge">
<title>Node11&#45;&gt;Node13</title>
<path fill="none" stroke="midnightblue" d="M500.75,-240.41C471.3,-235.66 430.58,-224.61 405,-199 377.03,-170.99 365.84,-146.06 386,-112 396.54,-94.2 416.9,-82.97 434.69,-76.18"/>
<polygon fill="midnightblue" stroke="midnightblue" points="435.95,-79.45 444.24,-72.85 433.64,-72.84 435.95,-79.45"/>
</g>
<!-- Node11&#45;&gt;Node14 -->
<g id="edge13" class="edge">
<title>Node11&#45;&gt;Node14</title>
<path fill="none" stroke="midnightblue" d="M565.05,-235.44C595.08,-226.28 642.91,-211.69 676.24,-201.52"/>
<polygon fill="midnightblue" stroke="midnightblue" points="677.54,-204.78 686.09,-198.52 675.5,-198.09 677.54,-204.78"/>
</g>
<!-- Node17 -->
<g id="node17" class="node">
<title>Node17</title>
<g id="a_node17"><a xlink:href="tables_8h.html" target="_top" xlink:title=" ">
<polygon fill="none" stroke="black" points="488.5,-179.5 488.5,-198.5 575.5,-198.5 575.5,-179.5 488.5,-179.5"/>
<text text-anchor="middle" x="532" y="-186.5" font-family="Helvetica,sans-Serif" font-size="10.00">thorin/tables.h</text>
</a>
</g>
</g>
<!-- Node11&#45;&gt;Node17 -->
<g id="edge17" class="edge">
<title>Node11&#45;&gt;Node17</title>
<path fill="none" stroke="midnightblue" d="M536.17,-235.08C535.52,-228.01 534.58,-217.86 533.76,-208.99"/>
<polygon fill="midnightblue" stroke="midnightblue" points="537.22,-208.39 532.81,-198.75 530.25,-209.03 537.22,-208.39"/>
</g>
<!-- Node19 -->
<g id="node19" class="node">
<title>Node19</title>
<g id="a_node19"><a xlink:href="print_8h.html" target="_top" xlink:title=" ">
<polygon fill="none" stroke="black" points="241,-118 241,-137 339,-137 339,-118 241,-118"/>
<text text-anchor="middle" x="290" y="-125" font-family="Helvetica,sans-Serif" font-size="10.00">thorin/util/print.h</text>
</a>
</g>
</g>
<!-- Node11&#45;&gt;Node19 -->
<g id="edge58" class="edge">
<title>Node11&#45;&gt;Node19</title>
<path fill="none" stroke="midnightblue" d="M500.86,-238.88C466.24,-232.91 413.3,-220.93 372,-199 345.45,-184.9 320.04,-160.87 304.73,-144.83"/>
<polygon fill="midnightblue" stroke="midnightblue" points="307.06,-142.21 297.69,-137.28 301.94,-146.98 307.06,-142.21"/>
</g>
<!-- Node31 -->
<g id="node31" class="node">
<title>Node31</title>
<g id="a_node31"><a xlink:href="array_8h.html" target="_top" xlink:title=" ">
<polygon fill="none" stroke="black" points="601,-118 601,-137 701,-137 701,-118 601,-118"/>
<text text-anchor="middle" x="651" y="-125" font-family="Helvetica,sans-Serif" font-size="10.00">thorin/util/array.h</text>
</a>
</g>
</g>
<!-- Node11&#45;&gt;Node31 -->
<g id="edge34" class="edge">
<title>Node11&#45;&gt;Node31</title>
<path fill="none" stroke="midnightblue" d="M551.25,-235.46C564.47,-227.13 584.27,-213.61 599,-199 615.29,-182.83 630.45,-161.22 640.15,-146.21"/>
<polygon fill="midnightblue" stroke="midnightblue" points="643.32,-147.74 645.69,-137.42 637.39,-144.01 643.32,-147.74"/>
</g>
<!-- Node38 -->
<g id="node38" class="node">
<title>Node38</title>
<g id="a_node38"><a xlink:href="cast_8h.html" target="_top" xlink:title=" ">
<polygon fill="none" stroke="black" points="487,-118 487,-137 583,-137 583,-118 487,-118"/>
<text text-anchor="middle" x="535" y="-125" font-family="Helvetica,sans-Serif" font-size="10.00">thorin/util/cast.h</text>
</a>
</g>
</g>
<!-- Node11&#45;&gt;Node38 -->
<g id="edge45" class="edge">
<title>Node11&#45;&gt;Node38</title>
<path fill="none" stroke="midnightblue" d="M550.89,-235.38C567.83,-223.67 593.16,-201.58 584,-179 578.28,-164.89 566.51,-152.54 555.94,-143.59"/>
<polygon fill="midnightblue" stroke="midnightblue" points="557.86,-140.65 547.86,-137.17 553.51,-146.13 557.86,-140.65"/>
</g>
<!-- Node39 -->
<g id="node39" class="node">
<title>Node39</title>
<g id="a_node39"><a xlink:href="container_8h.html" target="_top" xlink:title=" ">
<polygon fill="none" stroke="black" points="1063.5,-179.5 1063.5,-198.5 1184.5,-198.5 1184.5,-179.5 1063.5,-179.5"/>
<text text-anchor="middle" x="1124" y="-186.5" font-family="Helvetica,sans-Serif" font-size="10.00">thorin/util/container.h</text>
</a>
</g>
</g>
<!-- Node11&#45;&gt;Node39 -->
<g id="edge48" class="edge">
<title>Node11&#45;&gt;Node39</title>
<path fill="none" stroke="midnightblue" d="M573.28,-240.66C668.46,-231.91 926.69,-208.15 1052.79,-196.55"/>
<polygon fill="midnightblue" stroke="midnightblue" points="1053.47,-200 1063.11,-195.6 1052.83,-193.03 1053.47,-200"/>
</g>
<!-- Node11&#45;&gt;Node43 -->
<g id="edge57" class="edge">
<title>Node11&#45;&gt;Node43</title>
<path fill="none" stroke="midnightblue" d="M573.28,-242.92C692.79,-239.14 1073.28,-225.31 1193,-199 1251.61,-186.12 1316.32,-158.02 1351.55,-141.45"/>
<polygon fill="midnightblue" stroke="midnightblue" points="1353.15,-144.56 1360.68,-137.1 1350.14,-138.24 1353.15,-144.56"/>
</g>
<!-- Node14&#45;&gt;Node7 -->
<g id="edge14" class="edge">
<title>Node14&#45;&gt;Node7</title>
<path fill="none" stroke="midnightblue" d="M670.45,-184.57C559.91,-175.77 274.19,-152.44 232,-143 164.68,-127.93 89.5,-97.1 49.9,-79.69"/>
<polygon fill="midnightblue" stroke="midnightblue" points="51.19,-76.43 40.63,-75.57 48.35,-82.83 51.19,-76.43"/>
</g>
<!-- Node15 -->
<g id="node15" class="node">
<title>Node15</title>
<g id="a_node15"><a xlink:title=" ">
<polygon fill="none" stroke="#bfbfbf" points="879,-112.5 879,-142.5 983,-142.5 983,-112.5 879,-112.5"/>
<text text-anchor="start" x="887" y="-130.5" font-family="Helvetica,sans-Serif" font-size="10.00">absl/container/flat</text>
<text text-anchor="middle" x="931" y="-119.5" font-family="Helvetica,sans-Serif" font-size="10.00">_hash_map.h</text>
</a>
</g>
</g>
<!-- Node14&#45;&gt;Node15 -->
<g id="edge15" class="edge">
<title>Node14&#45;&gt;Node15</title>
<path fill="none" stroke="midnightblue" d="M745.09,-179.48C777.57,-170.57 829.36,-156.37 870.04,-145.22"/>
<polygon fill="midnightblue" stroke="midnightblue" points="871.14,-148.54 879.86,-142.52 869.29,-141.79 871.14,-148.54"/>
</g>
<!-- Node16 -->
<g id="node16" class="node">
<title>Node16</title>
<g id="a_node16"><a xlink:title=" ">
<polygon fill="none" stroke="#bfbfbf" points="757,-112.5 757,-142.5 861,-142.5 861,-112.5 757,-112.5"/>
<text text-anchor="start" x="765" y="-130.5" font-family="Helvetica,sans-Serif" font-size="10.00">absl/container/flat</text>
<text text-anchor="middle" x="809" y="-119.5" font-family="Helvetica,sans-Serif" font-size="10.00">_hash_set.h</text>
</a>
</g>
</g>
<!-- Node14&#45;&gt;Node16 -->
<g id="edge16" class="edge">
<title>Node14&#45;&gt;Node16</title>
<path fill="none" stroke="midnightblue" d="M727.61,-179.48C740.72,-171.27 761.01,-158.56 778.05,-147.88"/>
<polygon fill="midnightblue" stroke="midnightblue" points="779.99,-150.8 786.61,-142.52 776.28,-144.86 779.99,-150.8"/>
</g>
<!-- Node18 -->
<g id="node18" class="node">
<title>Node18</title>
<g id="a_node18"><a xlink:title=" ">
<polygon fill="none" stroke="#bfbfbf" points="395.5,-118 395.5,-137 468.5,-137 468.5,-118 395.5,-118"/>
<text text-anchor="middle" x="432" y="-125" font-family="Helvetica,sans-Serif" font-size="10.00">string_view</text>
</a>
</g>
</g>
<!-- Node17&#45;&gt;Node18 -->
<g id="edge18" class="edge">
<title>Node17&#45;&gt;Node18</title>
<path fill="none" stroke="midnightblue" d="M517.67,-179.48C501.34,-169.75 474.4,-153.73 455.09,-142.24"/>
<polygon fill="midnightblue" stroke="midnightblue" points="456.68,-139.11 446.3,-137.01 453.11,-145.13 456.68,-139.11"/>
</g>
<!-- Node17&#45;&gt;Node19 -->
<g id="edge19" class="edge">
<title>Node17&#45;&gt;Node19</title>
<path fill="none" stroke="midnightblue" d="M497.33,-179.48C454.47,-168.94 381.46,-150.99 334.5,-139.44"/>
<polygon fill="midnightblue" stroke="midnightblue" points="335.15,-136 324.61,-137.01 333.48,-142.8 335.15,-136"/>
</g>
<!-- Node25 -->
<g id="node25" class="node">
<title>Node25</title>
<g id="a_node25"><a xlink:href="types_8h.html" target="_top" xlink:title=" ">
<polygon fill="none" stroke="black" points="1297.5,-56.5 1297.5,-75.5 1400.5,-75.5 1400.5,-56.5 1297.5,-56.5"/>
<text text-anchor="middle" x="1349" y="-63.5" font-family="Helvetica,sans-Serif" font-size="10.00">thorin/util/types.h</text>
</a>
</g>
</g>
<!-- Node17&#45;&gt;Node25 -->
<g id="edge27" class="edge">
<title>Node17&#45;&gt;Node25</title>
<path fill="none" stroke="midnightblue" d="M575.57,-182.41C612.8,-176.39 667,-164.62 710,-143 729.47,-133.21 727.74,-120.03 748,-112 854.04,-69.99 1146.36,-85.74 1260,-76 1268.77,-75.25 1278.02,-74.39 1287.1,-73.51"/>
<polygon fill="midnightblue" stroke="midnightblue" points="1287.65,-76.97 1297.26,-72.5 1286.96,-70 1287.65,-76.97"/>
</g>
<!-- Node19&#45;&gt;Node6 -->
<g id="edge23" class="edge">
<title>Node19&#45;&gt;Node6</title>
<path fill="none" stroke="midnightblue" d="M279.11,-117.98C267.03,-108.52 247.33,-93.1 232.76,-81.69"/>
<polygon fill="midnightblue" stroke="midnightblue" points="234.9,-78.92 224.87,-75.51 230.59,-84.43 234.9,-78.92"/>
</g>
<!-- Node19&#45;&gt;Node7 -->
<g id="edge24" class="edge">
<title>Node19&#45;&gt;Node7</title>
<path fill="none" stroke="midnightblue" d="M245.22,-117.97C199.46,-109.02 126.14,-94.07 54.01,-76.12"/>
<polygon fill="midnightblue" stroke="midnightblue" points="54.85,-72.72 44.3,-73.68 53.15,-79.51 54.85,-72.72"/>
</g>
<!-- Node20 -->
<g id="node20" class="node">
<title>Node20</title>
<g id="a_node20"><a xlink:title=" ">
<polygon fill="none" stroke="#bfbfbf" points="260,-56.5 260,-75.5 320,-75.5 320,-56.5 260,-56.5"/>
<text text-anchor="middle" x="290" y="-63.5" font-family="Helvetica,sans-Serif" font-size="10.00">iostream</text>
</a>
</g>
</g>
<!-- Node19&#45;&gt;Node20 -->
<g id="edge20" class="edge">
<title>Node19&#45;&gt;Node20</title>
<path fill="none" stroke="midnightblue" d="M290,-117.98C290,-109.58 290,-96.48 290,-85.66"/>
<polygon fill="midnightblue" stroke="midnightblue" points="293.5,-85.51 290,-75.51 286.5,-85.51 293.5,-85.51"/>
</g>
<!-- Node21 -->
<g id="node21" class="node">
<title>Node21</title>
<g id="a_node21"><a xlink:title=" ">
<polygon fill="none" stroke="#bfbfbf" points="829.5,-0.5 829.5,-19.5 886.5,-19.5 886.5,-0.5 829.5,-0.5"/>
<text text-anchor="middle" x="858" y="-7.5" font-family="Helvetica,sans-Serif" font-size="10.00">ostream</text>
</a>
</g>
</g>
<!-- Node19&#45;&gt;Node21 -->
<g id="edge21" class="edge">
<title>Node19&#45;&gt;Node21</title>
<path fill="none" stroke="midnightblue" d="M296.43,-117.64C308.35,-102.02 335.5,-69.93 367,-56 447.9,-20.22 718.22,-12.88 819.37,-11.38"/>
<polygon fill="midnightblue" stroke="midnightblue" points="819.5,-14.88 829.45,-11.24 819.41,-7.88 819.5,-14.88"/>
</g>
<!-- Node22 -->
<g id="node22" class="node">
<title>Node22</title>
<g id="a_node22"><a xlink:title=" ">
<polygon fill="none" stroke="#bfbfbf" points="376,-56.5 376,-75.5 426,-75.5 426,-56.5 376,-56.5"/>
<text text-anchor="middle" x="401" y="-63.5" font-family="Helvetica,sans-Serif" font-size="10.00">ranges</text>
</a>
</g>
</g>
<!-- Node19&#45;&gt;Node22 -->
<g id="edge22" class="edge">
<title>Node19&#45;&gt;Node22</title>
<path fill="none" stroke="midnightblue" d="M305.9,-117.98C324.28,-108.12 354.76,-91.79 376.24,-80.27"/>
<polygon fill="midnightblue" stroke="midnightblue" points="377.97,-83.32 385.13,-75.51 374.66,-77.15 377.97,-83.32"/>
</g>
<!-- Node19&#45;&gt;Node23 -->
<g id="edge25" class="edge">
<title>Node19&#45;&gt;Node23</title>
<path fill="none" stroke="midnightblue" d="M264.93,-117.98C234.65,-107.68 183.56,-90.31 149.56,-78.75"/>
<polygon fill="midnightblue" stroke="midnightblue" points="150.62,-75.41 140.03,-75.51 148.37,-82.04 150.62,-75.41"/>
</g>
<!-- Node24 -->
<g id="node24" class="node">
<title>Node24</title>
<g id="a_node24"><a xlink:title=" ">
<polygon fill="none" stroke="#bfbfbf" points="494,-0.5 494,-19.5 546,-19.5 546,-0.5 494,-0.5"/>
<text text-anchor="middle" x="520" y="-7.5" font-family="Helvetica,sans-Serif" font-size="10.00">cassert</text>
</a>
</g>
</g>
<!-- Node23&#45;&gt;Node24 -->
<g id="edge26" class="edge">
<title>Node23&#45;&gt;Node24</title>
<path fill="none" stroke="midnightblue" d="M168.09,-57.24C171.11,-56.82 174.09,-56.4 177,-56 288.64,-40.57 420.9,-23.59 483.57,-15.61"/>
<polygon fill="midnightblue" stroke="midnightblue" points="484.26,-19.05 493.73,-14.32 483.37,-12.11 484.26,-19.05"/>
</g>
<!-- Node25&#45;&gt;Node21 -->
<g id="edge30" class="edge">
<title>Node25&#45;&gt;Node21</title>
<path fill="none" stroke="midnightblue" d="M1297.38,-59.32C1198.48,-48.45 984.34,-24.89 896.64,-15.25"/>
<polygon fill="midnightblue" stroke="midnightblue" points="896.91,-11.76 886.59,-14.14 896.14,-18.72 896.91,-11.76"/>
</g>
<!-- Node26 -->
<g id="node26" class="node">
<title>Node26</title>
<g id="a_node26"><a xlink:title=" ">
<polygon fill="none" stroke="#bfbfbf" points="1495,-0.5 1495,-19.5 1545,-19.5 1545,-0.5 1495,-0.5"/>
<text text-anchor="middle" x="1520" y="-7.5" font-family="Helvetica,sans-Serif" font-size="10.00">cstdint</text>
</a>
</g>
</g>
<!-- Node25&#45;&gt;Node26 -->
<g id="edge28" class="edge">
<title>Node25&#45;&gt;Node26</title>
<path fill="none" stroke="midnightblue" d="M1376.1,-56.44C1405.58,-47.13 1452.82,-32.21 1485.08,-22.03"/>
<polygon fill="midnightblue" stroke="midnightblue" points="1486.5,-25.25 1494.98,-18.9 1484.39,-18.58 1486.5,-25.25"/>
</g>
<!-- Node27 -->
<g id="node27" class="node">
<title>Node27</title>
<g id="a_node27"><a xlink:title=" ">
<polygon fill="none" stroke="#bfbfbf" points="1395,-0.5 1395,-19.5 1439,-19.5 1439,-0.5 1395,-0.5"/>
<text text-anchor="middle" x="1417" y="-7.5" font-family="Helvetica,sans-Serif" font-size="10.00">limits</text>
</a>
</g>
</g>
<!-- Node25&#45;&gt;Node27 -->
<g id="edge29" class="edge">
<title>Node25&#45;&gt;Node27</title>
<path fill="none" stroke="midnightblue" d="M1359.93,-56.32C1370.17,-48.18 1385.72,-35.84 1398,-26.09"/>
<polygon fill="midnightblue" stroke="midnightblue" points="1400.22,-28.79 1405.88,-19.83 1395.87,-23.31 1400.22,-28.79"/>
</g>
<!-- Node28 -->
<g id="node28" class="node">
<title>Node28</title>
<g id="a_node28"><a xlink:title=" ">
<polygon fill="none" stroke="#bfbfbf" points="1118.5,-0.5 1118.5,-19.5 1187.5,-19.5 1187.5,-0.5 1118.5,-0.5"/>
<text text-anchor="middle" x="1153" y="-7.5" font-family="Helvetica,sans-Serif" font-size="10.00">type_traits</text>
</a>
</g>
</g>
<!-- Node25&#45;&gt;Node28 -->
<g id="edge31" class="edge">
<title>Node25&#45;&gt;Node28</title>
<path fill="none" stroke="midnightblue" d="M1317.94,-56.44C1284.4,-47.2 1230.8,-32.44 1193.86,-22.26"/>
<polygon fill="midnightblue" stroke="midnightblue" points="1194.48,-18.8 1183.91,-19.52 1192.62,-25.55 1194.48,-18.8"/>
</g>
<!-- Node29 -->
<g id="node29" class="node">
<title>Node29</title>
<g id="a_node29"><a xlink:title=" ">
<polygon fill="none" stroke="#bfbfbf" points="1255.5,-0.5 1255.5,-19.5 1302.5,-19.5 1302.5,-0.5 1255.5,-0.5"/>
<text text-anchor="middle" x="1279" y="-7.5" font-family="Helvetica,sans-Serif" font-size="10.00">cmath</text>
</a>
</g>
</g>
<!-- Node25&#45;&gt;Node29 -->
<g id="edge32" class="edge">
<title>Node25&#45;&gt;Node29</title>
<path fill="none" stroke="midnightblue" d="M1337.75,-56.32C1327.2,-48.18 1311.2,-35.84 1298.56,-26.09"/>
<polygon fill="midnightblue" stroke="midnightblue" points="1300.51,-23.17 1290.45,-19.83 1296.23,-28.71 1300.51,-23.17"/>
</g>
<!-- Node30 -->
<g id="node30" class="node">
<title>Node30</title>
<g id="a_node30"><a xlink:title=" ">
<polygon fill="none" stroke="#bfbfbf" points="1321,-0.5 1321,-19.5 1377,-19.5 1377,-0.5 1321,-0.5"/>
<text text-anchor="middle" x="1349" y="-7.5" font-family="Helvetica,sans-Serif" font-size="10.00">half.hpp</text>
</a>
</g>
</g>
<!-- Node25&#45;&gt;Node30 -->
<g id="edge33" class="edge">
<title>Node25&#45;&gt;Node30</title>
<path fill="none" stroke="midnightblue" d="M1349,-56.08C1349,-49.01 1349,-38.86 1349,-29.99"/>
<polygon fill="midnightblue" stroke="midnightblue" points="1352.5,-29.75 1349,-19.75 1345.5,-29.75 1352.5,-29.75"/>
</g>
<!-- Node31&#45;&gt;Node13 -->
<g id="edge44" class="edge">
<title>Node31&#45;&gt;Node13</title>
<path fill="none" stroke="midnightblue" d="M624.78,-117.98C592.31,-107.42 536.95,-89.42 501.45,-77.88"/>
<polygon fill="midnightblue" stroke="midnightblue" points="502.15,-74.42 491.56,-74.66 499.98,-81.08 502.15,-74.42"/>
</g>
<!-- Node31&#45;&gt;Node22 -->
<g id="edge42" class="edge">
<title>Node31&#45;&gt;Node22</title>
<path fill="none" stroke="midnightblue" d="M616.7,-117.98C608.61,-115.99 600,-113.9 592,-112 525.34,-96.17 506.13,-93.39 435.99,-76.18"/>
<polygon fill="midnightblue" stroke="midnightblue" points="436.77,-72.77 426.23,-73.78 435.1,-79.57 436.77,-72.77"/>
</g>
<!-- Node31&#45;&gt;Node24 -->
<g id="edge35" class="edge">
<title>Node31&#45;&gt;Node24</title>
<path fill="none" stroke="midnightblue" d="M647.35,-117.65C641.01,-103.17 626.72,-74.2 607,-56 591.85,-42.02 571.54,-31.19 554.36,-23.67"/>
<polygon fill="midnightblue" stroke="midnightblue" points="555.24,-20.24 544.66,-19.61 552.54,-26.7 555.24,-20.24"/>
</g>
<!-- Node31&#45;&gt;Node28 -->
<g id="edge43" class="edge">
<title>Node31&#45;&gt;Node28</title>
<path fill="none" stroke="midnightblue" d="M686.1,-118C695.46,-115.88 705.59,-113.73 715,-112 828.02,-91.29 859.43,-103.46 971,-76 1026.39,-62.36 1088.48,-38.17 1123.94,-23.46"/>
<polygon fill="midnightblue" stroke="midnightblue" points="1125.34,-26.67 1133.21,-19.58 1122.63,-20.21 1125.34,-26.67"/>
</g>
<!-- Node32 -->
<g id="node32" class="node">
<title>Node32</title>
<g id="a_node32"><a xlink:title=" ">
<polygon fill="none" stroke="#bfbfbf" points="654.5,-56.5 654.5,-75.5 707.5,-75.5 707.5,-56.5 654.5,-56.5"/>
<text text-anchor="middle" x="681" y="-63.5" font-family="Helvetica,sans-Serif" font-size="10.00">cstddef</text>
</a>
</g>
</g>
<!-- Node31&#45;&gt;Node32 -->
<g id="edge36" class="edge">
<title>Node31&#45;&gt;Node32</title>
<path fill="none" stroke="midnightblue" d="M655.3,-117.98C659.66,-109.32 666.56,-95.65 672.1,-84.65"/>
<polygon fill="midnightblue" stroke="midnightblue" points="675.33,-86.01 676.71,-75.51 669.08,-82.86 675.33,-86.01"/>
</g>
<!-- Node33 -->
<g id="node33" class="node">
<title>Node33</title>
<g id="a_node33"><a xlink:title=" ">
<polygon fill="none" stroke="#bfbfbf" points="548,-56.5 548,-75.5 598,-75.5 598,-56.5 548,-56.5"/>
<text text-anchor="middle" x="573" y="-63.5" font-family="Helvetica,sans-Serif" font-size="10.00">cstring</text>
</a>
</g>
</g>
<!-- Node31&#45;&gt;Node33 -->
<g id="edge37" class="edge">
<title>Node31&#45;&gt;Node33</title>
<path fill="none" stroke="midnightblue" d="M639.82,-117.98C627.43,-108.52 607.21,-93.1 592.25,-81.69"/>
<polygon fill="midnightblue" stroke="midnightblue" points="594.23,-78.79 584.15,-75.51 589.98,-84.36 594.23,-78.79"/>
</g>
<!-- Node34 -->
<g id="node34" class="node">
<title>Node34</title>
<g id="a_node34"><a xlink:title=" ">
<polygon fill="none" stroke="#bfbfbf" points="1187,-56.5 1187,-75.5 1251,-75.5 1251,-56.5 1187,-56.5"/>
<text text-anchor="middle" x="1219" y="-63.5" font-family="Helvetica,sans-Serif" font-size="10.00">algorithm</text>
</a>
</g>
</g>
<!-- Node31&#45;&gt;Node34 -->
<g id="edge38" class="edge">
<title>Node31&#45;&gt;Node34</title>
<path fill="none" stroke="midnightblue" d="M684.72,-117.97C694.44,-115.76 705.1,-113.56 715,-112 720.69,-111.11 1055.92,-81.42 1176.43,-70.76"/>
<polygon fill="midnightblue" stroke="midnightblue" points="1177.09,-74.22 1186.74,-69.85 1176.47,-67.25 1177.09,-74.22"/>
</g>
<!-- Node35 -->
<g id="node35" class="node">
<title>Node35</title>
<g id="a_node35"><a xlink:title=" ">
<polygon fill="none" stroke="#bfbfbf" points="725.5,-56.5 725.5,-75.5 790.5,-75.5 790.5,-56.5 725.5,-56.5"/>
<text text-anchor="middle" x="758" y="-63.5" font-family="Helvetica,sans-Serif" font-size="10.00">functional</text>
</a>
</g>
</g>
<!-- Node31&#45;&gt;Node35 -->
<g id="edge39" class="edge">
<title>Node31&#45;&gt;Node35</title>
<path fill="none" stroke="midnightblue" d="M666.33,-117.98C683.97,-108.17 713.16,-91.93 733.86,-80.42"/>
<polygon fill="midnightblue" stroke="midnightblue" points="735.66,-83.43 742.7,-75.51 732.26,-77.31 735.66,-83.43"/>
</g>
<!-- Node36 -->
<g id="node36" class="node">
<title>Node36</title>
<g id="a_node36"><a xlink:title=" ">
<polygon fill="none" stroke="#bfbfbf" points="808.5,-56.5 808.5,-75.5 891.5,-75.5 891.5,-56.5 808.5,-56.5"/>
<text text-anchor="middle" x="850" y="-63.5" font-family="Helvetica,sans-Serif" font-size="10.00">initializer_list</text>
</a>
</g>
</g>
<!-- Node31&#45;&gt;Node36 -->
<g id="edge40" class="edge">
<title>Node31&#45;&gt;Node36</title>
<path fill="none" stroke="midnightblue" d="M679.51,-117.98C714.24,-107.59 773.04,-90.01 811.69,-78.45"/>
<polygon fill="midnightblue" stroke="midnightblue" points="812.96,-81.73 821.54,-75.51 810.96,-75.02 812.96,-81.73"/>
</g>
<!-- Node37 -->
<g id="node37" class="node">
<title>Node37</title>
<g id="a_node37"><a xlink:title=" ">
<polygon fill="none" stroke="#bfbfbf" points="909.5,-56.5 909.5,-75.5 962.5,-75.5 962.5,-56.5 909.5,-56.5"/>
<text text-anchor="middle" x="936" y="-63.5" font-family="Helvetica,sans-Serif" font-size="10.00">iterator</text>
</a>
</g>
</g>
<!-- Node31&#45;&gt;Node37 -->
<g id="edge41" class="edge">
<title>Node31&#45;&gt;Node37</title>
<path fill="none" stroke="midnightblue" d="M687.85,-117.95C696.73,-115.94 706.19,-113.85 715,-112 793.93,-95.38 816.57,-94.23 899.44,-76.02"/>
<polygon fill="midnightblue" stroke="midnightblue" points="900.29,-79.42 909.3,-73.84 898.78,-72.59 900.29,-79.42"/>
</g>
<!-- Node38&#45;&gt;Node24 -->
<g id="edge46" class="edge">
<title>Node38&#45;&gt;Node24</title>
<path fill="none" stroke="midnightblue" d="M533.87,-117.82C531.46,-99.26 525.76,-55.34 522.46,-29.97"/>
<polygon fill="midnightblue" stroke="midnightblue" points="525.9,-29.25 521.14,-19.78 518.96,-30.15 525.9,-29.25"/>
</g>
<!-- Node38&#45;&gt;Node33 -->
<g id="edge47" class="edge">
<title>Node38&#45;&gt;Node33</title>
<path fill="none" stroke="midnightblue" d="M540.44,-117.98C546.09,-109.14 555.06,-95.09 562.16,-83.98"/>
<polygon fill="midnightblue" stroke="midnightblue" points="565.13,-85.82 567.57,-75.51 559.23,-82.05 565.13,-85.82"/>
</g>
<!-- Node39&#45;&gt;Node4 -->
<g id="edge50" class="edge">
<title>Node39&#45;&gt;Node4</title>
<path fill="none" stroke="midnightblue" d="M1184.65,-184.54C1248.36,-179.7 1350.92,-168.42 1436,-143 1437.88,-142.44 1439.79,-141.78 1441.69,-141.06"/>
<polygon fill="midnightblue" stroke="midnightblue" points="1443.13,-144.25 1450.94,-137.1 1440.37,-137.82 1443.13,-144.25"/>
</g>
<!-- Node39&#45;&gt;Node15 -->
<g id="edge51" class="edge">
<title>Node39&#45;&gt;Node15</title>
<path fill="none" stroke="midnightblue" d="M1096.35,-179.48C1067.77,-170.66 1022.37,-156.67 986.37,-145.57"/>
<polygon fill="midnightblue" stroke="midnightblue" points="987.07,-142.12 976.49,-142.52 985.01,-148.81 987.07,-142.12"/>
</g>
<!-- Node39&#45;&gt;Node16 -->
<g id="edge52" class="edge">
<title>Node39&#45;&gt;Node16</title>
<path fill="none" stroke="midnightblue" d="M1070.8,-179.5C1021.5,-171.41 945.91,-158.48 871.25,-143.19"/>
<polygon fill="midnightblue" stroke="midnightblue" points="871.7,-139.71 861.2,-141.12 870.29,-146.57 871.7,-139.71"/>
</g>
<!-- Node40 -->
<g id="node40" class="node">
<title>Node40</title>
<g id="a_node40"><a xlink:title=" ">
<polygon fill="none" stroke="#bfbfbf" points="1263.5,-118 1263.5,-137 1310.5,-137 1310.5,-118 1263.5,-118"/>
<text text-anchor="middle" x="1287" y="-125" font-family="Helvetica,sans-Serif" font-size="10.00">queue</text>
</a>
</g>
</g>
<!-- Node39&#45;&gt;Node40 -->
<g id="edge49" class="edge">
<title>Node39&#45;&gt;Node40</title>
<path fill="none" stroke="midnightblue" d="M1150.62,-179.48C1177.06,-170.86 1218.65,-156.86 1254,-143 1255.6,-142.37 1257.24,-141.71 1258.89,-141.03"/>
<polygon fill="midnightblue" stroke="midnightblue" points="1260.43,-144.18 1268.26,-137.05 1257.69,-137.74 1260.43,-144.18"/>
</g>
<!-- Node41 -->
<g id="node41" class="node">
<title>Node41</title>
<g id="a_node41"><a xlink:title=" ">
<polygon fill="none" stroke="#bfbfbf" points="1001.5,-112.5 1001.5,-142.5 1114.5,-142.5 1114.5,-112.5 1001.5,-112.5"/>
<text text-anchor="start" x="1009.5" y="-130.5" font-family="Helvetica,sans-Serif" font-size="10.00">absl/container/node</text>
<text text-anchor="middle" x="1058" y="-119.5" font-family="Helvetica,sans-Serif" font-size="10.00">_hash_map.h</text>
</a>
</g>
</g>
<!-- Node39&#45;&gt;Node41 -->
<g id="edge53" class="edge">
<title>Node39&#45;&gt;Node41</title>
<path fill="none" stroke="midnightblue" d="M1114.54,-179.48C1105.86,-171.64 1092.62,-159.71 1081.14,-149.37"/>
<polygon fill="midnightblue" stroke="midnightblue" points="1083.33,-146.62 1073.55,-142.52 1078.64,-151.82 1083.33,-146.62"/>
</g>
<!-- Node42 -->
<g id="node42" class="node">
<title>Node42</title>
<g id="a_node42"><a xlink:title=" ">
<polygon fill="none" stroke="#bfbfbf" points="1132.5,-112.5 1132.5,-142.5 1245.5,-142.5 1245.5,-112.5 1132.5,-112.5"/>
<text text-anchor="start" x="1140.5" y="-130.5" font-family="Helvetica,sans-Serif" font-size="10.00">absl/container/node</text>
<text text-anchor="middle" x="1189" y="-119.5" font-family="Helvetica,sans-Serif" font-size="10.00">_hash_set.h</text>
</a>
</g>
</g>
<!-- Node39&#45;&gt;Node42 -->
<g id="edge54" class="edge">
<title>Node39&#45;&gt;Node42</title>
<path fill="none" stroke="midnightblue" d="M1133.31,-179.48C1141.87,-171.64 1154.9,-159.71 1166.21,-149.37"/>
<polygon fill="midnightblue" stroke="midnightblue" points="1168.67,-151.86 1173.68,-142.52 1163.94,-146.69 1168.67,-151.86"/>
</g>
<!-- Node39&#45;&gt;Node43 -->
<g id="edge55" class="edge">
<title>Node39&#45;&gt;Node43</title>
<path fill="none" stroke="midnightblue" d="M1161.78,-179.45C1201.1,-170.51 1264.42,-156 1319,-143 1323.75,-141.87 1328.72,-140.67 1333.66,-139.47"/>
<polygon fill="midnightblue" stroke="midnightblue" points="1334.82,-142.79 1343.7,-137.02 1333.16,-135.99 1334.82,-142.79"/>
</g>
<!-- Node43&#45;&gt;Node25 -->
<g id="edge56" class="edge">
<title>Node43&#45;&gt;Node25</title>
<path fill="none" stroke="midnightblue" d="M1373.85,-117.98C1369.62,-109.32 1362.96,-95.65 1357.6,-84.65"/>
<polygon fill="midnightblue" stroke="midnightblue" points="1360.67,-82.96 1353.15,-75.51 1354.38,-86.03 1360.67,-82.96"/>
</g>
<!-- Node45&#45;&gt;Node6 -->
<g id="edge63" class="edge">
<title>Node45&#45;&gt;Node6</title>
<path fill="none" stroke="midnightblue" d="M268.92,-237.28C246.63,-231.27 220.69,-220 207,-199 184.21,-164.04 197.33,-112.13 206.84,-85"/>
<polygon fill="midnightblue" stroke="midnightblue" points="210.13,-86.2 210.35,-75.61 203.58,-83.75 210.13,-86.2"/>
</g>
<!-- Node45&#45;&gt;Node14 -->
<g id="edge65" class="edge">
<title>Node45&#45;&gt;Node14</title>
<path fill="none" stroke="midnightblue" d="M349.31,-238.62C422.7,-228.84 578.12,-208.12 660.36,-197.15"/>
<polygon fill="midnightblue" stroke="midnightblue" points="661.05,-200.59 670.5,-195.8 660.12,-193.65 661.05,-200.59"/>
</g>
<!-- Node45&#45;&gt;Node19 -->
<g id="edge66" class="edge">
<title>Node45&#45;&gt;Node19</title>
<path fill="none" stroke="midnightblue" d="M307.57,-235.32C304.52,-216.76 297.29,-172.84 293.12,-147.47"/>
<polygon fill="midnightblue" stroke="midnightblue" points="296.52,-146.58 291.44,-137.28 289.61,-147.72 296.52,-146.58"/>
</g>
<!-- Node46 -->
<g id="node46" class="node">
<title>Node46</title>
<g id="a_node46"><a xlink:title=" ">
<polygon fill="none" stroke="#bfbfbf" points="216.5,-179.5 216.5,-198.5 281.5,-198.5 281.5,-179.5 216.5,-179.5"/>
<text text-anchor="middle" x="249" y="-186.5" font-family="Helvetica,sans-Serif" font-size="10.00">stdexcept</text>
</a>
</g>
</g>
<!-- Node45&#45;&gt;Node46 -->
<g id="edge64" class="edge">
<title>Node45&#45;&gt;Node46</title>
<path fill="none" stroke="midnightblue" d="M299.36,-235.32C290.49,-227.34 277.13,-215.31 266.39,-205.65"/>
<polygon fill="midnightblue" stroke="midnightblue" points="268.59,-202.92 258.82,-198.83 263.91,-208.13 268.59,-202.92"/>
</g>
<!-- Node47&#45;&gt;Node11 -->
<g id="edge68" class="edge">
<title>Node47&#45;&gt;Node11</title>
<path fill="none" stroke="midnightblue" d="M459.78,-291.32C474.27,-282.82 496.57,-269.73 513.49,-259.8"/>
<polygon fill="midnightblue" stroke="midnightblue" points="515.4,-262.74 522.26,-254.65 511.86,-256.7 515.4,-262.74"/>
</g>
<!-- Node48&#45;&gt;Node11 -->
<g id="edge70" class="edge">
<title>Node48&#45;&gt;Node11</title>
<path fill="none" stroke="midnightblue" d="M546.18,-291.08C544.73,-283.93 542.63,-273.64 540.81,-264.69"/>
<polygon fill="midnightblue" stroke="midnightblue" points="544.21,-263.85 538.78,-254.75 537.35,-265.25 544.21,-263.85"/>
</g>
<!-- Node49&#45;&gt;Node25 -->
<g id="edge75" class="edge">
<title>Node49&#45;&gt;Node25</title>
<path fill="none" stroke="midnightblue" d="M1528.91,-117.98C1492.11,-107.55 1429.69,-89.86 1388.91,-78.31"/>
<polygon fill="midnightblue" stroke="midnightblue" points="1389.61,-74.87 1379.03,-75.51 1387.7,-81.6 1389.61,-74.87"/>
</g>
<!-- Node49&#45;&gt;Node26 -->
<g id="edge73" class="edge">
<title>Node49&#45;&gt;Node26</title>
<path fill="none" stroke="midnightblue" d="M1556.07,-117.82C1549.74,-99.09 1534.7,-54.55 1526.18,-29.29"/>
<polygon fill="midnightblue" stroke="midnightblue" points="1529.48,-28.14 1522.97,-19.78 1522.85,-30.38 1529.48,-28.14"/>
</g>
<!-- Node49&#45;&gt;Node34 -->
<g id="edge74" class="edge">
<title>Node49&#45;&gt;Node34</title>
<path fill="none" stroke="midnightblue" d="M1524.33,-117.95C1515.45,-115.88 1505.89,-113.76 1497,-112 1413.86,-95.57 1315.86,-80.76 1261.24,-72.91"/>
<polygon fill="midnightblue" stroke="midnightblue" points="1261.63,-69.43 1251.23,-71.48 1260.64,-76.36 1261.63,-69.43"/>
</g>
<!-- Node50&#45;&gt;Node3 -->
<g id="edge77" class="edge">
<title>Node50&#45;&gt;Node3</title>
<path fill="none" stroke="midnightblue" d="M1441.32,-515.4C1443.21,-507.38 1445.59,-497.23 1447.63,-488.57"/>
<polygon fill="midnightblue" stroke="midnightblue" points="1451.08,-489.19 1449.96,-478.66 1444.27,-487.59 1451.08,-489.19"/>
</g>
</g>
</svg>
