<?xml version="1.0" encoding="UTF-8" standalone="no"?>
<!DOCTYPE svg PUBLIC "-//W3C//DTD SVG 1.1//EN"
 "http://www.w3.org/Graphics/SVG/1.1/DTD/svg11.dtd">
<!-- Generated by graphviz version 2.43.0 (0)
 -->
<!-- Title: /home/runner/work/thorin2/thorin2/build/dialects/std.h Pages: 1 -->
<svg width="1498pt" height="442pt"
 viewBox="0.00 0.00 1497.50 442.00" xmlns="http://www.w3.org/2000/svg" xmlns:xlink="http://www.w3.org/1999/xlink">
<g id="graph0" class="graph" transform="scale(1 1) rotate(0) translate(4 438)">
<title>/home/runner/work/thorin2/thorin2/build/dialects/std.h</title>
<!-- Node1 -->
<g id="node1" class="node">
<title>Node1</title>
<g id="a_node1"><a xlink:title=" ">
<polygon fill="#bfbfbf" stroke="black" points="582.5,-403.5 582.5,-433.5 731.5,-433.5 731.5,-403.5 582.5,-403.5"/>
<text text-anchor="start" x="590.5" y="-421.5" font-family="Helvetica,sans-Serif" font-size="10.00">/home/runner/work/thorin2</text>
<text text-anchor="middle" x="657" y="-410.5" font-family="Helvetica,sans-Serif" font-size="10.00">/thorin2/build/dialects/std.h</text>
</a>
</g>
</g>
<!-- Node2 -->
<g id="node2" class="node">
<title>Node2</title>
<g id="a_node2"><a xlink:href="axiom_8h.html" target="_top" xlink:title=" ">
<polygon fill="none" stroke="black" points="541,-347.5 541,-366.5 629,-366.5 629,-347.5 541,-347.5"/>
<text text-anchor="middle" x="585" y="-354.5" font-family="Helvetica,sans-Serif" font-size="10.00">thorin/axiom.h</text>
</a>
</g>
</g>
<!-- Node1&#45;&gt;Node2 -->
<g id="edge1" class="edge">
<title>Node1&#45;&gt;Node2</title>
<path fill="none" stroke="midnightblue" d="M639.94,-403.4C628.94,-394.31 614.63,-382.49 603.38,-373.19"/>
<polygon fill="midnightblue" stroke="midnightblue" points="605.41,-370.33 595.48,-366.66 600.96,-375.73 605.41,-370.33"/>
</g>
<!-- Node12 -->
<g id="node12" class="node">
<title>Node12</title>
<g id="a_node12"><a xlink:href="tables_8h.html" target="_top" xlink:title=" ">
<polygon fill="none" stroke="black" points="1149.5,-179.5 1149.5,-198.5 1236.5,-198.5 1236.5,-179.5 1149.5,-179.5"/>
<text text-anchor="middle" x="1193" y="-186.5" font-family="Helvetica,sans-Serif" font-size="10.00">thorin/tables.h</text>
</a>
</g>
</g>
<!-- Node1&#45;&gt;Node12 -->
<g id="edge54" class="edge">
<title>Node1&#45;&gt;Node12</title>
<path fill="none" stroke="midnightblue" d="M690.12,-403.44C787.35,-362.17 1070.89,-241.83 1163.42,-202.56"/>
<polygon fill="midnightblue" stroke="midnightblue" points="1164.92,-205.72 1172.75,-198.59 1162.18,-199.28 1164.92,-205.72"/>
</g>
<!-- Node3 -->
<g id="node3" class="node">
<title>Node3</title>
<g id="a_node3"><a xlink:href="lam_8h.html" target="_top" xlink:title=" ">
<polygon fill="none" stroke="black" points="547,-291.5 547,-310.5 623,-310.5 623,-291.5 547,-291.5"/>
<text text-anchor="middle" x="585" y="-298.5" font-family="Helvetica,sans-Serif" font-size="10.00">thorin/lam.h</text>
</a>
</g>
</g>
<!-- Node2&#45;&gt;Node3 -->
<g id="edge2" class="edge">
<title>Node2&#45;&gt;Node3</title>
<path fill="none" stroke="midnightblue" d="M585,-347.08C585,-340.01 585,-329.86 585,-320.99"/>
<polygon fill="midnightblue" stroke="midnightblue" points="588.5,-320.75 585,-310.75 581.5,-320.75 588.5,-320.75"/>
</g>
<!-- Node19 -->
<g id="node19" class="node">
<title>Node19</title>
<g id="a_node19"><a xlink:href="assert_8h.html" target="_top" xlink:title=" ">
<polygon fill="none" stroke="black" points="711,-56.5 711,-75.5 817,-75.5 817,-56.5 711,-56.5"/>
<text text-anchor="middle" x="764" y="-63.5" font-family="Helvetica,sans-Serif" font-size="10.00">thorin/util/assert.h</text>
</a>
</g>
</g>
<!-- Node2&#45;&gt;Node19 -->
<g id="edge53" class="edge">
<title>Node2&#45;&gt;Node19</title>
<path fill="none" stroke="midnightblue" d="M541,-348.63C488.29,-336.99 407,-308.85 407,-246 407,-246 407,-246 407,-188 407,-137.65 445.65,-133.87 491,-112 500.41,-107.46 623.06,-88.32 700.73,-76.51"/>
<polygon fill="midnightblue" stroke="midnightblue" points="701.54,-79.93 710.91,-74.96 700.49,-73 701.54,-79.93"/>
</g>
<!-- Node4 -->
<g id="node4" class="node">
<title>Node4</title>
<g id="a_node4"><a xlink:title=" ">
<polygon fill="none" stroke="#bfbfbf" points="523.5,-235.5 523.5,-254.5 574.5,-254.5 574.5,-235.5 523.5,-235.5"/>
<text text-anchor="middle" x="549" y="-242.5" font-family="Helvetica,sans-Serif" font-size="10.00">variant</text>
</a>
</g>
</g>
<!-- Node3&#45;&gt;Node4 -->
<g id="edge3" class="edge">
<title>Node3&#45;&gt;Node4</title>
<path fill="none" stroke="midnightblue" d="M579.06,-291.08C574.02,-283.53 566.66,-272.49 560.49,-263.23"/>
<polygon fill="midnightblue" stroke="midnightblue" points="563.29,-261.13 554.83,-254.75 557.47,-265.01 563.29,-261.13"/>
</g>
<!-- Node5 -->
<g id="node5" class="node">
<title>Node5</title>
<g id="a_node5"><a xlink:href="def_8h.html" target="_top" xlink:title=" ">
<polygon fill="none" stroke="black" points="593,-235.5 593,-254.5 665,-254.5 665,-235.5 593,-235.5"/>
<text text-anchor="middle" x="629" y="-242.5" font-family="Helvetica,sans-Serif" font-size="10.00">thorin/def.h</text>
</a>
</g>
</g>
<!-- Node3&#45;&gt;Node5 -->
<g id="edge4" class="edge">
<title>Node3&#45;&gt;Node5</title>
<path fill="none" stroke="midnightblue" d="M592.27,-291.08C598.54,-283.38 607.79,-272.03 615.43,-262.65"/>
<polygon fill="midnightblue" stroke="midnightblue" points="618.27,-264.71 621.87,-254.75 612.84,-260.29 618.27,-264.71"/>
</g>
<!-- Node6 -->
<g id="node6" class="node">
<title>Node6</title>
<g id="a_node6"><a xlink:title=" ">
<polygon fill="none" stroke="#bfbfbf" points="473,-179.5 473,-198.5 529,-198.5 529,-179.5 473,-179.5"/>
<text text-anchor="middle" x="501" y="-186.5" font-family="Helvetica,sans-Serif" font-size="10.00">optional</text>
</a>
</g>
</g>
<!-- Node5&#45;&gt;Node6 -->
<g id="edge5" class="edge">
<title>Node5&#45;&gt;Node6</title>
<path fill="none" stroke="midnightblue" d="M608.72,-235.44C587.65,-226.56 554.48,-212.56 530.51,-202.45"/>
<polygon fill="midnightblue" stroke="midnightblue" points="531.76,-199.18 521.19,-198.52 529.04,-205.63 531.76,-199.18"/>
</g>
<!-- Node7 -->
<g id="node7" class="node">
<title>Node7</title>
<g id="a_node7"><a xlink:title=" ">
<polygon fill="none" stroke="#bfbfbf" points="577.5,-56.5 577.5,-75.5 624.5,-75.5 624.5,-56.5 577.5,-56.5"/>
<text text-anchor="middle" x="601" y="-63.5" font-family="Helvetica,sans-Serif" font-size="10.00">vector</text>
</a>
</g>
</g>
<!-- Node5&#45;&gt;Node7 -->
<g id="edge6" class="edge">
<title>Node5&#45;&gt;Node7</title>
<path fill="none" stroke="midnightblue" d="M616.93,-235.39C583.62,-211.59 492.75,-146.46 491,-143 484.77,-130.71 483.32,-123.44 491,-112 499.95,-98.67 538.68,-84.91 567.67,-76.18"/>
<polygon fill="midnightblue" stroke="midnightblue" points="568.84,-79.48 577.45,-73.31 566.87,-72.76 568.84,-79.48"/>
</g>
<!-- Node8 -->
<g id="node8" class="node">
<title>Node8</title>
<g id="a_node8"><a xlink:href="debug_8h.html" target="_top" xlink:title=" ">
<polygon fill="none" stroke="black" points="585.5,-179.5 585.5,-198.5 672.5,-198.5 672.5,-179.5 585.5,-179.5"/>
<text text-anchor="middle" x="629" y="-186.5" font-family="Helvetica,sans-Serif" font-size="10.00">thorin/debug.h</text>
</a>
</g>
</g>
<!-- Node5&#45;&gt;Node8 -->
<g id="edge7" class="edge">
<title>Node5&#45;&gt;Node8</title>
<path fill="none" stroke="midnightblue" d="M629,-235.08C629,-228.01 629,-217.86 629,-208.99"/>
<polygon fill="midnightblue" stroke="midnightblue" points="632.5,-208.75 629,-198.75 625.5,-208.75 632.5,-208.75"/>
</g>
<!-- Node5&#45;&gt;Node12 -->
<g id="edge11" class="edge">
<title>Node5&#45;&gt;Node12</title>
<path fill="none" stroke="midnightblue" d="M665.14,-240.54C761.45,-231.32 1024.71,-206.11 1138.93,-195.18"/>
<polygon fill="midnightblue" stroke="midnightblue" points="1139.56,-198.63 1149.18,-194.2 1138.9,-191.66 1139.56,-198.63"/>
</g>
<!-- Node14 -->
<g id="node14" class="node">
<title>Node14</title>
<g id="a_node14"><a xlink:href="print_8h.html" target="_top" xlink:title=" ">
<polygon fill="none" stroke="black" points="1144,-118 1144,-137 1242,-137 1242,-118 1144,-118"/>
<text text-anchor="middle" x="1193" y="-125" font-family="Helvetica,sans-Serif" font-size="10.00">thorin/util/print.h</text>
</a>
</g>
</g>
<!-- Node5&#45;&gt;Node14 -->
<g id="edge52" class="edge">
<title>Node5&#45;&gt;Node14</title>
<path fill="none" stroke="midnightblue" d="M665.07,-237.81C713.24,-229.46 801.19,-213.9 876,-199 991.5,-176 1020.3,-169.73 1135,-143 1139.74,-141.9 1144.69,-140.71 1149.62,-139.51"/>
<polygon fill="midnightblue" stroke="midnightblue" points="1150.74,-142.83 1159.61,-137.04 1149.07,-136.04 1150.74,-142.83"/>
</g>
<!-- Node27 -->
<g id="node27" class="node">
<title>Node27</title>
<g id="a_node27"><a xlink:href="array_8h.html" target="_top" xlink:title=" ">
<polygon fill="none" stroke="black" points="279,-118 279,-137 379,-137 379,-118 279,-118"/>
<text text-anchor="middle" x="329" y="-125" font-family="Helvetica,sans-Serif" font-size="10.00">thorin/util/array.h</text>
</a>
</g>
</g>
<!-- Node5&#45;&gt;Node27 -->
<g id="edge28" class="edge">
<title>Node5&#45;&gt;Node27</title>
<path fill="none" stroke="midnightblue" d="M592.88,-236.51C558.96,-228.92 507.12,-215.91 464,-199 423,-182.92 378.21,-157.92 351.91,-142.42"/>
<polygon fill="midnightblue" stroke="midnightblue" points="353.49,-139.28 343.1,-137.17 349.9,-145.29 353.49,-139.28"/>
</g>
<!-- Node34 -->
<g id="node34" class="node">
<title>Node34</title>
<g id="a_node34"><a xlink:href="cast_8h.html" target="_top" xlink:title=" ">
<polygon fill="none" stroke="black" points="0,-118 0,-137 96,-137 96,-118 0,-118"/>
<text text-anchor="middle" x="48" y="-125" font-family="Helvetica,sans-Serif" font-size="10.00">thorin/util/cast.h</text>
</a>
</g>
</g>
<!-- Node5&#45;&gt;Node34 -->
<g id="edge39" class="edge">
<title>Node5&#45;&gt;Node34</title>
<path fill="none" stroke="midnightblue" d="M592.66,-236.77C493.42,-217.05 217.52,-162.2 101.01,-139.04"/>
<polygon fill="midnightblue" stroke="midnightblue" points="101.39,-135.55 90.9,-137.03 100.03,-142.41 101.39,-135.55"/>
</g>
<!-- Node35 -->
<g id="node35" class="node">
<title>Node35</title>
<g id="a_node35"><a xlink:href="container_8h.html" target="_top" xlink:title=" ">
<polygon fill="none" stroke="black" points="745.5,-179.5 745.5,-198.5 866.5,-198.5 866.5,-179.5 745.5,-179.5"/>
<text text-anchor="middle" x="806" y="-186.5" font-family="Helvetica,sans-Serif" font-size="10.00">thorin/util/container.h</text>
</a>
</g>
</g>
<!-- Node5&#45;&gt;Node35 -->
<g id="edge42" class="edge">
<title>Node5&#45;&gt;Node35</title>
<path fill="none" stroke="midnightblue" d="M657.05,-235.44C687.08,-226.28 734.91,-211.69 768.24,-201.52"/>
<polygon fill="midnightblue" stroke="midnightblue" points="769.54,-204.78 778.09,-198.52 767.5,-198.09 769.54,-204.78"/>
</g>
<!-- Node40 -->
<g id="node40" class="node">
<title>Node40</title>
<g id="a_node40"><a xlink:href="hash_8h.html" target="_top" xlink:title=" ">
<polygon fill="none" stroke="black" points="1260.5,-118 1260.5,-137 1359.5,-137 1359.5,-118 1260.5,-118"/>
<text text-anchor="middle" x="1310" y="-125" font-family="Helvetica,sans-Serif" font-size="10.00">thorin/util/hash.h</text>
</a>
</g>
</g>
<!-- Node5&#45;&gt;Node40 -->
<g id="edge51" class="edge">
<title>Node5&#45;&gt;Node40</title>
<path fill="none" stroke="midnightblue" d="M665.33,-239.34C761.47,-226.73 1030.26,-189.76 1251,-143 1256.16,-141.91 1261.55,-140.69 1266.89,-139.44"/>
<polygon fill="midnightblue" stroke="midnightblue" points="1268.1,-142.74 1277.01,-137.01 1266.47,-135.94 1268.1,-142.74"/>
</g>
<!-- Node9 -->
<g id="node9" class="node">
<title>Node9</title>
<g id="a_node9"><a xlink:title=" ">
<polygon fill="none" stroke="#bfbfbf" points="963,-56.5 963,-75.5 1007,-75.5 1007,-56.5 963,-56.5"/>
<text text-anchor="middle" x="985" y="-63.5" font-family="Helvetica,sans-Serif" font-size="10.00">string</text>
</a>
</g>
</g>
<!-- Node8&#45;&gt;Node9 -->
<g id="edge8" class="edge">
<title>Node8&#45;&gt;Node9</title>
<path fill="none" stroke="midnightblue" d="M587.75,-179.47C540.19,-167.88 472.15,-144.76 502,-112 517.23,-95.28 847.16,-74.93 952.78,-68.82"/>
<polygon fill="midnightblue" stroke="midnightblue" points="953.07,-72.31 962.85,-68.24 952.67,-65.32 953.07,-72.31"/>
</g>
<!-- Node10 -->
<g id="node10" class="node">
<title>Node10</title>
<g id="a_node10"><a xlink:title=" ">
<polygon fill="none" stroke="#bfbfbf" points="511,-112.5 511,-142.5 615,-142.5 615,-112.5 511,-112.5"/>
<text text-anchor="start" x="519" y="-130.5" font-family="Helvetica,sans-Serif" font-size="10.00">absl/container/flat</text>
<text text-anchor="middle" x="563" y="-119.5" font-family="Helvetica,sans-Serif" font-size="10.00">_hash_map.h</text>
</a>
</g>
</g>
<!-- Node8&#45;&gt;Node10 -->
<g id="edge9" class="edge">
<title>Node8&#45;&gt;Node10</title>
<path fill="none" stroke="midnightblue" d="M619.54,-179.48C610.86,-171.64 597.62,-159.71 586.14,-149.37"/>
<polygon fill="midnightblue" stroke="midnightblue" points="588.33,-146.62 578.55,-142.52 583.64,-151.82 588.33,-146.62"/>
</g>
<!-- Node11 -->
<g id="node11" class="node">
<title>Node11</title>
<g id="a_node11"><a xlink:title=" ">
<polygon fill="none" stroke="#bfbfbf" points="633,-112.5 633,-142.5 737,-142.5 737,-112.5 633,-112.5"/>
<text text-anchor="start" x="641" y="-130.5" font-family="Helvetica,sans-Serif" font-size="10.00">absl/container/flat</text>
<text text-anchor="middle" x="685" y="-119.5" font-family="Helvetica,sans-Serif" font-size="10.00">_hash_set.h</text>
</a>
</g>
</g>
<!-- Node8&#45;&gt;Node11 -->
<g id="edge10" class="edge">
<title>Node8&#45;&gt;Node11</title>
<path fill="none" stroke="midnightblue" d="M637.02,-179.48C644.25,-171.79 655.19,-160.17 664.8,-149.96"/>
<polygon fill="midnightblue" stroke="midnightblue" points="667.5,-152.2 671.8,-142.52 662.4,-147.41 667.5,-152.2"/>
</g>
<!-- Node13 -->
<g id="node13" class="node">
<title>Node13</title>
<g id="a_node13"><a xlink:title=" ">
<polygon fill="none" stroke="#bfbfbf" points="1416.5,-118 1416.5,-137 1489.5,-137 1489.5,-118 1416.5,-118"/>
<text text-anchor="middle" x="1453" y="-125" font-family="Helvetica,sans-Serif" font-size="10.00">string_view</text>
</a>
</g>
</g>
<!-- Node12&#45;&gt;Node13 -->
<g id="edge12" class="edge">
<title>Node12&#45;&gt;Node13</title>
<path fill="none" stroke="midnightblue" d="M1236.82,-179.43C1279.24,-170.92 1345.28,-157.15 1402,-143 1406.07,-141.98 1410.31,-140.87 1414.52,-139.73"/>
<polygon fill="midnightblue" stroke="midnightblue" points="1415.53,-143.08 1424.23,-137.03 1413.66,-136.33 1415.53,-143.08"/>
</g>
<!-- Node12&#45;&gt;Node14 -->
<g id="edge13" class="edge">
<title>Node12&#45;&gt;Node14</title>
<path fill="none" stroke="midnightblue" d="M1193,-179.48C1193,-171.08 1193,-157.98 1193,-147.16"/>
<polygon fill="midnightblue" stroke="midnightblue" points="1196.5,-147.01 1193,-137.01 1189.5,-147.01 1196.5,-147.01"/>
</g>
<!-- Node21 -->
<g id="node21" class="node">
<title>Node21</title>
<g id="a_node21"><a xlink:href="types_8h.html" target="_top" xlink:title=" ">
<polygon fill="none" stroke="black" points="1287.5,-56.5 1287.5,-75.5 1390.5,-75.5 1390.5,-56.5 1287.5,-56.5"/>
<text text-anchor="middle" x="1339" y="-63.5" font-family="Helvetica,sans-Serif" font-size="10.00">thorin/util/types.h</text>
</a>
</g>
</g>
<!-- Node12&#45;&gt;Node21 -->
<g id="edge21" class="edge">
<title>Node12&#45;&gt;Node21</title>
<path fill="none" stroke="midnightblue" d="M1236.59,-182.95C1283.29,-176.54 1352.9,-163.74 1369,-143 1382.93,-125.06 1367.7,-99.84 1354.34,-83.46"/>
<polygon fill="midnightblue" stroke="midnightblue" points="1356.88,-81.04 1347.69,-75.78 1351.59,-85.63 1356.88,-81.04"/>
</g>
<!-- Node14&#45;&gt;Node9 -->
<g id="edge18" class="edge">
<title>Node14&#45;&gt;Node9</title>
<path fill="none" stroke="midnightblue" d="M1163.2,-117.98C1124.34,-106.86 1056.66,-87.5 1016.83,-76.11"/>
<polygon fill="midnightblue" stroke="midnightblue" points="1017.68,-72.71 1007.1,-73.32 1015.75,-79.44 1017.68,-72.71"/>
</g>
<!-- Node15 -->
<g id="node15" class="node">
<title>Node15</title>
<g id="a_node15"><a xlink:title=" ">
<polygon fill="none" stroke="#bfbfbf" points="1209,-56.5 1209,-75.5 1269,-75.5 1269,-56.5 1209,-56.5"/>
<text text-anchor="middle" x="1239" y="-63.5" font-family="Helvetica,sans-Serif" font-size="10.00">iostream</text>
</a>
</g>
</g>
<!-- Node14&#45;&gt;Node15 -->
<g id="edge14" class="edge">
<title>Node14&#45;&gt;Node15</title>
<path fill="none" stroke="midnightblue" d="M1199.59,-117.98C1206.49,-109.05 1217.5,-94.81 1226.13,-83.64"/>
<polygon fill="midnightblue" stroke="midnightblue" points="1229.07,-85.56 1232.42,-75.51 1223.54,-81.28 1229.07,-85.56"/>
</g>
<!-- Node16 -->
<g id="node16" class="node">
<title>Node16</title>
<g id="a_node16"><a xlink:title=" ">
<polygon fill="none" stroke="#bfbfbf" points="1104.5,-0.5 1104.5,-19.5 1161.5,-19.5 1161.5,-0.5 1104.5,-0.5"/>
<text text-anchor="middle" x="1133" y="-7.5" font-family="Helvetica,sans-Serif" font-size="10.00">ostream</text>
</a>
</g>
</g>
<!-- Node14&#45;&gt;Node16 -->
<g id="edge15" class="edge">
<title>Node14&#45;&gt;Node16</title>
<path fill="none" stroke="midnightblue" d="M1173.38,-117.92C1157.36,-109.72 1135.81,-95.68 1126,-76 1118.73,-61.41 1121.82,-42.74 1125.93,-29.15"/>
<polygon fill="midnightblue" stroke="midnightblue" points="1129.3,-30.11 1129.27,-19.52 1122.69,-27.82 1129.3,-30.11"/>
</g>
<!-- Node17 -->
<g id="node17" class="node">
<title>Node17</title>
<g id="a_node17"><a xlink:title=" ">
<polygon fill="none" stroke="#bfbfbf" points="643,-56.5 643,-75.5 693,-75.5 693,-56.5 643,-56.5"/>
<text text-anchor="middle" x="668" y="-63.5" font-family="Helvetica,sans-Serif" font-size="10.00">ranges</text>
</a>
</g>
</g>
<!-- Node14&#45;&gt;Node17 -->
<g id="edge16" class="edge">
<title>Node14&#45;&gt;Node17</title>
<path fill="none" stroke="midnightblue" d="M1162.79,-117.96C1153.9,-115.72 1144.11,-113.51 1135,-112 947.74,-81.02 894.12,-107.88 703.23,-75.9"/>
<polygon fill="midnightblue" stroke="midnightblue" points="703.59,-72.42 693.14,-74.18 702.41,-79.32 703.59,-72.42"/>
</g>
<!-- Node18 -->
<g id="node18" class="node">
<title>Node18</title>
<g id="a_node18"><a xlink:title=" ">
<polygon fill="none" stroke="#bfbfbf" points="1135,-56.5 1135,-75.5 1191,-75.5 1191,-56.5 1135,-56.5"/>
<text text-anchor="middle" x="1163" y="-63.5" font-family="Helvetica,sans-Serif" font-size="10.00">sstream</text>
</a>
</g>
</g>
<!-- Node14&#45;&gt;Node18 -->
<g id="edge17" class="edge">
<title>Node14&#45;&gt;Node18</title>
<path fill="none" stroke="midnightblue" d="M1188.7,-117.98C1184.34,-109.32 1177.44,-95.65 1171.9,-84.65"/>
<polygon fill="midnightblue" stroke="midnightblue" points="1174.92,-82.86 1167.29,-75.51 1168.67,-86.01 1174.92,-82.86"/>
</g>
<!-- Node14&#45;&gt;Node19 -->
<g id="edge19" class="edge">
<title>Node14&#45;&gt;Node19</title>
<path fill="none" stroke="midnightblue" d="M1161.85,-117.96C1153.2,-115.79 1143.78,-113.62 1135,-112 1027.76,-92.17 901.39,-78.98 827.26,-72.26"/>
<polygon fill="midnightblue" stroke="midnightblue" points="827.42,-68.76 817.15,-71.35 826.8,-75.73 827.42,-68.76"/>
</g>
<!-- Node20 -->
<g id="node20" class="node">
<title>Node20</title>
<g id="a_node20"><a xlink:title=" ">
<polygon fill="none" stroke="#bfbfbf" points="331,-0.5 331,-19.5 383,-19.5 383,-0.5 331,-0.5"/>
<text text-anchor="middle" x="357" y="-7.5" font-family="Helvetica,sans-Serif" font-size="10.00">cassert</text>
</a>
</g>
</g>
<!-- Node19&#45;&gt;Node20 -->
<g id="edge20" class="edge">
<title>Node19&#45;&gt;Node20</title>
<path fill="none" stroke="midnightblue" d="M710.91,-57.24C707.89,-56.82 704.91,-56.4 702,-56 589.72,-40.53 456.68,-23.56 393.64,-15.6"/>
<polygon fill="midnightblue" stroke="midnightblue" points="393.78,-12.09 383.42,-14.31 392.9,-19.04 393.78,-12.09"/>
</g>
<!-- Node21&#45;&gt;Node16 -->
<g id="edge24" class="edge">
<title>Node21&#45;&gt;Node16</title>
<path fill="none" stroke="midnightblue" d="M1306.36,-56.44C1269.7,-46.83 1210.26,-31.25 1171.4,-21.07"/>
<polygon fill="midnightblue" stroke="midnightblue" points="1172.07,-17.62 1161.51,-18.47 1170.29,-24.39 1172.07,-17.62"/>
</g>
<!-- Node22 -->
<g id="node22" class="node">
<title>Node22</title>
<g id="a_node22"><a xlink:title=" ">
<polygon fill="none" stroke="#bfbfbf" points="1281,-0.5 1281,-19.5 1331,-19.5 1331,-0.5 1281,-0.5"/>
<text text-anchor="middle" x="1306" y="-7.5" font-family="Helvetica,sans-Serif" font-size="10.00">cstdint</text>
</a>
</g>
</g>
<!-- Node21&#45;&gt;Node22 -->
<g id="edge22" class="edge">
<title>Node21&#45;&gt;Node22</title>
<path fill="none" stroke="midnightblue" d="M1333.55,-56.08C1328.99,-48.61 1322.33,-37.72 1316.71,-28.52"/>
<polygon fill="midnightblue" stroke="midnightblue" points="1319.55,-26.46 1311.35,-19.75 1313.58,-30.11 1319.55,-26.46"/>
</g>
<!-- Node23 -->
<g id="node23" class="node">
<title>Node23</title>
<g id="a_node23"><a xlink:title=" ">
<polygon fill="none" stroke="#bfbfbf" points="1349,-0.5 1349,-19.5 1393,-19.5 1393,-0.5 1349,-0.5"/>
<text text-anchor="middle" x="1371" y="-7.5" font-family="Helvetica,sans-Serif" font-size="10.00">limits</text>
</a>
</g>
</g>
<!-- Node21&#45;&gt;Node23 -->
<g id="edge23" class="edge">
<title>Node21&#45;&gt;Node23</title>
<path fill="none" stroke="midnightblue" d="M1344.28,-56.08C1348.71,-48.61 1355.16,-37.72 1360.62,-28.52"/>
<polygon fill="midnightblue" stroke="midnightblue" points="1363.73,-30.14 1365.81,-19.75 1357.71,-26.57 1363.73,-30.14"/>
</g>
<!-- Node24 -->
<g id="node24" class="node">
<title>Node24</title>
<g id="a_node24"><a xlink:title=" ">
<polygon fill="none" stroke="#bfbfbf" points="765.5,-0.5 765.5,-19.5 834.5,-19.5 834.5,-0.5 765.5,-0.5"/>
<text text-anchor="middle" x="800" y="-7.5" font-family="Helvetica,sans-Serif" font-size="10.00">type_traits</text>
</a>
</g>
</g>
<!-- Node21&#45;&gt;Node24 -->
<g id="edge25" class="edge">
<title>Node21&#45;&gt;Node24</title>
<path fill="none" stroke="midnightblue" d="M1287.44,-57.2C1284.25,-56.78 1281.08,-56.37 1278,-56 1118.92,-36.79 929.23,-21.06 844.59,-14.41"/>
<polygon fill="midnightblue" stroke="midnightblue" points="844.8,-10.92 834.56,-13.63 844.25,-17.89 844.8,-10.92"/>
</g>
<!-- Node25 -->
<g id="node25" class="node">
<title>Node25</title>
<g id="a_node25"><a xlink:title=" ">
<polygon fill="none" stroke="#bfbfbf" points="1411.5,-0.5 1411.5,-19.5 1458.5,-19.5 1458.5,-0.5 1411.5,-0.5"/>
<text text-anchor="middle" x="1435" y="-7.5" font-family="Helvetica,sans-Serif" font-size="10.00">cmath</text>
</a>
</g>
</g>
<!-- Node21&#45;&gt;Node25 -->
<g id="edge26" class="edge">
<title>Node21&#45;&gt;Node25</title>
<path fill="none" stroke="midnightblue" d="M1354.42,-56.32C1369.54,-47.82 1392.82,-34.73 1410.47,-24.8"/>
<polygon fill="midnightblue" stroke="midnightblue" points="1412.61,-27.61 1419.61,-19.65 1409.18,-21.51 1412.61,-27.61"/>
</g>
<!-- Node26 -->
<g id="node26" class="node">
<title>Node26</title>
<g id="a_node26"><a xlink:title=" ">
<polygon fill="none" stroke="#bfbfbf" points="1207,-0.5 1207,-19.5 1263,-19.5 1263,-0.5 1207,-0.5"/>
<text text-anchor="middle" x="1235" y="-7.5" font-family="Helvetica,sans-Serif" font-size="10.00">half.hpp</text>
</a>
</g>
</g>
<!-- Node21&#45;&gt;Node26 -->
<g id="edge27" class="edge">
<title>Node21&#45;&gt;Node26</title>
<path fill="none" stroke="midnightblue" d="M1322.29,-56.32C1305.69,-47.7 1280,-34.36 1260.78,-24.39"/>
<polygon fill="midnightblue" stroke="midnightblue" points="1262.16,-21.16 1251.67,-19.65 1258.93,-27.37 1262.16,-21.16"/>
</g>
<!-- Node27&#45;&gt;Node7 -->
<g id="edge38" class="edge">
<title>Node27&#45;&gt;Node7</title>
<path fill="none" stroke="midnightblue" d="M366.21,-117.98C374.99,-115.99 384.32,-113.9 393,-112 468.44,-95.47 487.64,-92.9 563,-76 564.45,-75.68 565.92,-75.34 567.42,-75"/>
<polygon fill="midnightblue" stroke="midnightblue" points="568.35,-78.38 577.3,-72.7 566.77,-71.56 568.35,-78.38"/>
</g>
<!-- Node27&#45;&gt;Node17 -->
<g id="edge36" class="edge">
<title>Node27&#45;&gt;Node17</title>
<path fill="none" stroke="midnightblue" d="M364.45,-117.98C373.71,-115.89 383.71,-113.75 393,-112 499,-92.07 527.3,-97.46 633,-76 633.1,-75.98 633.2,-75.96 633.3,-75.94"/>
<polygon fill="midnightblue" stroke="midnightblue" points="633.84,-79.4 642.84,-73.8 632.31,-72.57 633.84,-79.4"/>
</g>
<!-- Node27&#45;&gt;Node20 -->
<g id="edge29" class="edge">
<title>Node27&#45;&gt;Node20</title>
<path fill="none" stroke="midnightblue" d="M331.1,-117.82C335.62,-99.17 346.35,-54.94 352.48,-29.63"/>
<polygon fill="midnightblue" stroke="midnightblue" points="355.92,-30.33 354.87,-19.78 349.11,-28.68 355.92,-30.33"/>
</g>
<!-- Node27&#45;&gt;Node24 -->
<g id="edge37" class="edge">
<title>Node27&#45;&gt;Node24</title>
<path fill="none" stroke="midnightblue" d="M364.96,-117.96C418.52,-105.16 514.63,-81.88 530,-76 547.83,-69.18 549.99,-62.33 568,-56 631.11,-33.82 707.93,-21.64 755.4,-15.72"/>
<polygon fill="midnightblue" stroke="midnightblue" points="755.86,-19.19 765.36,-14.51 755.02,-12.24 755.86,-19.19"/>
</g>
<!-- Node28 -->
<g id="node28" class="node">
<title>Node28</title>
<g id="a_node28"><a xlink:title=" ">
<polygon fill="none" stroke="#bfbfbf" points="385.5,-56.5 385.5,-75.5 438.5,-75.5 438.5,-56.5 385.5,-56.5"/>
<text text-anchor="middle" x="412" y="-63.5" font-family="Helvetica,sans-Serif" font-size="10.00">cstddef</text>
</a>
</g>
</g>
<!-- Node27&#45;&gt;Node28 -->
<g id="edge30" class="edge">
<title>Node27&#45;&gt;Node28</title>
<path fill="none" stroke="midnightblue" d="M340.89,-117.98C354.2,-108.43 376,-92.81 391.96,-81.37"/>
<polygon fill="midnightblue" stroke="midnightblue" points="394.04,-84.18 400.13,-75.51 389.96,-78.49 394.04,-84.18"/>
</g>
<!-- Node29 -->
<g id="node29" class="node">
<title>Node29</title>
<g id="a_node29"><a xlink:title=" ">
<polygon fill="none" stroke="#bfbfbf" points="23,-56.5 23,-75.5 73,-75.5 73,-56.5 23,-56.5"/>
<text text-anchor="middle" x="48" y="-63.5" font-family="Helvetica,sans-Serif" font-size="10.00">cstring</text>
</a>
</g>
</g>
<!-- Node27&#45;&gt;Node29 -->
<g id="edge31" class="edge">
<title>Node27&#45;&gt;Node29</title>
<path fill="none" stroke="midnightblue" d="M283.31,-117.97C235.74,-108.91 158.85,-93.75 83.37,-76.22"/>
<polygon fill="midnightblue" stroke="midnightblue" points="83.75,-72.71 73.21,-73.84 82.15,-79.53 83.75,-72.71"/>
</g>
<!-- Node30 -->
<g id="node30" class="node">
<title>Node30</title>
<g id="a_node30"><a xlink:title=" ">
<polygon fill="none" stroke="#bfbfbf" points="457,-56.5 457,-75.5 521,-75.5 521,-56.5 457,-56.5"/>
<text text-anchor="middle" x="489" y="-63.5" font-family="Helvetica,sans-Serif" font-size="10.00">algorithm</text>
</a>
</g>
</g>
<!-- Node27&#45;&gt;Node30 -->
<g id="edge32" class="edge">
<title>Node27&#45;&gt;Node30</title>
<path fill="none" stroke="midnightblue" d="M351.92,-117.98C379.37,-107.77 425.52,-90.61 456.6,-79.05"/>
<polygon fill="midnightblue" stroke="midnightblue" points="457.97,-82.28 466.12,-75.51 455.53,-75.71 457.97,-82.28"/>
</g>
<!-- Node31 -->
<g id="node31" class="node">
<title>Node31</title>
<g id="a_node31"><a xlink:title=" ">
<polygon fill="none" stroke="#bfbfbf" points="91.5,-56.5 91.5,-75.5 156.5,-75.5 156.5,-56.5 91.5,-56.5"/>
<text text-anchor="middle" x="124" y="-63.5" font-family="Helvetica,sans-Serif" font-size="10.00">functional</text>
</a>
</g>
</g>
<!-- Node27&#45;&gt;Node31 -->
<g id="edge33" class="edge">
<title>Node27&#45;&gt;Node31</title>
<path fill="none" stroke="midnightblue" d="M299.63,-117.98C263.7,-107.55 202.77,-89.86 162.96,-78.31"/>
<polygon fill="midnightblue" stroke="midnightblue" points="163.9,-74.94 153.32,-75.51 161.95,-81.66 163.9,-74.94"/>
</g>
<!-- Node32 -->
<g id="node32" class="node">
<title>Node32</title>
<g id="a_node32"><a xlink:title=" ">
<polygon fill="none" stroke="#bfbfbf" points="174.5,-56.5 174.5,-75.5 257.5,-75.5 257.5,-56.5 174.5,-56.5"/>
<text text-anchor="middle" x="216" y="-63.5" font-family="Helvetica,sans-Serif" font-size="10.00">initializer_list</text>
</a>
</g>
</g>
<!-- Node27&#45;&gt;Node32 -->
<g id="edge34" class="edge">
<title>Node27&#45;&gt;Node32</title>
<path fill="none" stroke="midnightblue" d="M312.81,-117.98C294.1,-108.12 263.08,-91.79 241.2,-80.27"/>
<polygon fill="midnightblue" stroke="midnightblue" points="242.64,-77.07 232.16,-75.51 239.38,-83.27 242.64,-77.07"/>
</g>
<!-- Node33 -->
<g id="node33" class="node">
<title>Node33</title>
<g id="a_node33"><a xlink:title=" ">
<polygon fill="none" stroke="#bfbfbf" points="275.5,-56.5 275.5,-75.5 328.5,-75.5 328.5,-56.5 275.5,-56.5"/>
<text text-anchor="middle" x="302" y="-63.5" font-family="Helvetica,sans-Serif" font-size="10.00">iterator</text>
</a>
</g>
</g>
<!-- Node27&#45;&gt;Node33 -->
<g id="edge35" class="edge">
<title>Node27&#45;&gt;Node33</title>
<path fill="none" stroke="midnightblue" d="M325.13,-117.98C321.2,-109.32 315,-95.65 310.01,-84.65"/>
<polygon fill="midnightblue" stroke="midnightblue" points="313.18,-83.17 305.86,-75.51 306.81,-86.06 313.18,-83.17"/>
</g>
<!-- Node34&#45;&gt;Node20 -->
<g id="edge40" class="edge">
<title>Node34&#45;&gt;Node20</title>
<path fill="none" stroke="midnightblue" d="M38.02,-117.83C22.83,-103.61 -2.67,-75 14,-56 34.04,-33.16 236.69,-18.31 320.76,-13.09"/>
<polygon fill="midnightblue" stroke="midnightblue" points="321.1,-16.58 330.87,-12.48 320.67,-9.59 321.1,-16.58"/>
</g>
<!-- Node34&#45;&gt;Node29 -->
<g id="edge41" class="edge">
<title>Node34&#45;&gt;Node29</title>
<path fill="none" stroke="midnightblue" d="M48,-117.98C48,-109.58 48,-96.48 48,-85.66"/>
<polygon fill="midnightblue" stroke="midnightblue" points="51.5,-85.51 48,-75.51 44.5,-85.51 51.5,-85.51"/>
</g>
<!-- Node35&#45;&gt;Node10 -->
<g id="edge45" class="edge">
<title>Node35&#45;&gt;Node10</title>
<path fill="none" stroke="midnightblue" d="M771.18,-179.48C733.16,-170.16 671.5,-155.07 625.14,-143.71"/>
<polygon fill="midnightblue" stroke="midnightblue" points="625.74,-140.26 615.19,-141.28 624.07,-147.06 625.74,-140.26"/>
</g>
<!-- Node35&#45;&gt;Node11 -->
<g id="edge46" class="edge">
<title>Node35&#45;&gt;Node11</title>
<path fill="none" stroke="midnightblue" d="M788.66,-179.48C771.51,-171.04 744.7,-157.86 722.64,-147.01"/>
<polygon fill="midnightblue" stroke="midnightblue" points="724.04,-143.79 713.52,-142.52 720.95,-150.08 724.04,-143.79"/>
</g>
<!-- Node36 -->
<g id="node36" class="node">
<title>Node36</title>
<g id="a_node36"><a xlink:title=" ">
<polygon fill="none" stroke="#bfbfbf" points="755.5,-118 755.5,-137 802.5,-137 802.5,-118 755.5,-118"/>
<text text-anchor="middle" x="779" y="-125" font-family="Helvetica,sans-Serif" font-size="10.00">queue</text>
</a>
</g>
</g>
<!-- Node35&#45;&gt;Node36 -->
<g id="edge43" class="edge">
<title>Node35&#45;&gt;Node36</title>
<path fill="none" stroke="midnightblue" d="M802.13,-179.48C798.2,-170.82 792,-157.15 787.01,-146.15"/>
<polygon fill="midnightblue" stroke="midnightblue" points="790.18,-144.67 782.86,-137.01 783.81,-147.56 790.18,-144.67"/>
</g>
<!-- Node37 -->
<g id="node37" class="node">
<title>Node37</title>
<g id="a_node37"><a xlink:title=" ">
<polygon fill="none" stroke="#bfbfbf" points="820.5,-118 820.5,-137 863.5,-137 863.5,-118 820.5,-118"/>
<text text-anchor="middle" x="842" y="-125" font-family="Helvetica,sans-Serif" font-size="10.00">stack</text>
</a>
</g>
</g>
<!-- Node35&#45;&gt;Node37 -->
<g id="edge44" class="edge">
<title>Node35&#45;&gt;Node37</title>
<path fill="none" stroke="midnightblue" d="M811.16,-179.48C816.45,-170.73 824.84,-156.87 831.53,-145.81"/>
<polygon fill="midnightblue" stroke="midnightblue" points="834.67,-147.38 836.85,-137.01 828.68,-143.75 834.67,-147.38"/>
</g>
<!-- Node38 -->
<g id="node38" class="node">
<title>Node38</title>
<g id="a_node38"><a xlink:title=" ">
<polygon fill="none" stroke="#bfbfbf" points="881.5,-112.5 881.5,-142.5 994.5,-142.5 994.5,-112.5 881.5,-112.5"/>
<text text-anchor="start" x="889.5" y="-130.5" font-family="Helvetica,sans-Serif" font-size="10.00">absl/container/node</text>
<text text-anchor="middle" x="938" y="-119.5" font-family="Helvetica,sans-Serif" font-size="10.00">_hash_map.h</text>
</a>
</g>
</g>
<!-- Node35&#45;&gt;Node38 -->
<g id="edge47" class="edge">
<title>Node35&#45;&gt;Node38</title>
<path fill="none" stroke="midnightblue" d="M824.91,-179.48C843.79,-170.96 873.4,-157.62 897.58,-146.72"/>
<polygon fill="midnightblue" stroke="midnightblue" points="899.21,-149.82 906.89,-142.52 896.34,-143.44 899.21,-149.82"/>
</g>
<!-- Node39 -->
<g id="node39" class="node">
<title>Node39</title>
<g id="a_node39"><a xlink:title=" ">
<polygon fill="none" stroke="#bfbfbf" points="1012.5,-112.5 1012.5,-142.5 1125.5,-142.5 1125.5,-112.5 1012.5,-112.5"/>
<text text-anchor="start" x="1020.5" y="-130.5" font-family="Helvetica,sans-Serif" font-size="10.00">absl/container/node</text>
<text text-anchor="middle" x="1069" y="-119.5" font-family="Helvetica,sans-Serif" font-size="10.00">_hash_set.h</text>
</a>
</g>
</g>
<!-- Node35&#45;&gt;Node39 -->
<g id="edge48" class="edge">
<title>Node35&#45;&gt;Node39</title>
<path fill="none" stroke="midnightblue" d="M843.68,-179.48C884.96,-170.14 951.97,-154.98 1002.21,-143.61"/>
<polygon fill="midnightblue" stroke="midnightblue" points="1003.04,-147.01 1012.02,-141.39 1001.49,-140.18 1003.04,-147.01"/>
</g>
<!-- Node35&#45;&gt;Node40 -->
<g id="edge49" class="edge">
<title>Node35&#45;&gt;Node40</title>
<path fill="none" stroke="midnightblue" d="M866.83,-184.56C952.86,-179.08 1114.79,-166.5 1251,-143 1256.79,-142 1262.86,-140.75 1268.81,-139.4"/>
<polygon fill="midnightblue" stroke="midnightblue" points="1269.71,-142.79 1278.63,-137.07 1268.1,-135.97 1269.71,-142.79"/>
</g>
<!-- Node40&#45;&gt;Node21 -->
<g id="edge50" class="edge">
<title>Node40&#45;&gt;Node21</title>
<path fill="none" stroke="midnightblue" d="M1314.15,-117.98C1318.38,-109.32 1325.04,-95.65 1330.4,-84.65"/>
<polygon fill="midnightblue" stroke="midnightblue" points="1333.62,-86.03 1334.85,-75.51 1327.33,-82.96 1333.62,-86.03"/>
</g>
</g>
</svg>
