<?xml version="1.0" encoding="UTF-8" standalone="no"?>
<!DOCTYPE svg PUBLIC "-//W3C//DTD SVG 1.1//EN"
 "http://www.w3.org/Graphics/SVG/1.1/DTD/svg11.dtd">
<!-- Generated by graphviz version 2.50.0 (20220203.2022)
 -->
<!-- Title: thorin::SSAConstr::Info Pages: 1 -->
<svg width="844pt" height="143pt"
 viewBox="0.00 0.00 844.00 142.50" xmlns="http://www.w3.org/2000/svg" xmlns:xlink="http://www.w3.org/1999/xlink">
<g id="graph0" class="graph" transform="scale(1 1) rotate(0) translate(4 138.5)">
<title>thorin::SSAConstr::Info</title>
<!-- Node1 -->
<g id="node1" class="node">
<title>Node1</title>
<g id="a_node1"><a xlink:title=" ">
<polygon fill="#bfbfbf" stroke="black" points="721,-35.5 721,-54.5 836,-54.5 836,-35.5 721,-35.5"/>
<text text-anchor="middle" x="778.5" y="-42.5" font-family="Helvetica,sans-Serif" font-size="10.00">thorin::SSAConstr::Info</text>
</a>
</g>
</g>
<!-- Node2 -->
<g id="node2" class="node">
<title>Node2</title>
<g id="a_node2"><a xlink:href="classthorin_1_1_lam.html" target="_top" xlink:title=" ">
<polygon fill="none" stroke="black" points="557.5,-58.5 557.5,-77.5 622.5,-77.5 622.5,-58.5 557.5,-58.5"/>
<text text-anchor="middle" x="590" y="-65.5" font-family="Helvetica,sans-Serif" font-size="10.00">thorin::Lam</text>
</a>
</g>
</g>
<!-- Node2&#45;&gt;Node1 -->
<g id="edge1" class="edge">
<title>Node2&#45;&gt;Node1</title>
<path fill="none" stroke="#9a32cd" stroke-dasharray="5,2" d="M632.88,-62.83C658.82,-59.64 692.46,-55.49 720.77,-52"/>
<polygon fill="#9a32cd" stroke="#9a32cd" points="632.13,-59.4 622.64,-64.1 632.99,-66.35 632.13,-59.4"/>
<text text-anchor="middle" x="684.5" y="-61" font-family="Helvetica,sans-Serif" font-size="10.00"> pred</text>
</g>
<!-- Node3 -->
<g id="node3" class="node">
<title>Node3</title>
<g id="a_node3"><a xlink:href="classthorin_1_1_def.html" target="_top" xlink:title="Base class for all Defs.">
<polygon fill="none" stroke="black" points="390.5,-60.5 390.5,-79.5 450.5,-79.5 450.5,-60.5 390.5,-60.5"/>
<text text-anchor="middle" x="420.5" y="-67.5" font-family="Helvetica,sans-Serif" font-size="10.00">thorin::Def</text>
</a>
</g>
</g>
<!-- Node3&#45;&gt;Node2 -->
<g id="edge2" class="edge">
<title>Node3&#45;&gt;Node2</title>
<path fill="none" stroke="midnightblue" d="M461,-69.53C490.39,-69.18 529.98,-68.7 557.31,-68.38"/>
<polygon fill="midnightblue" stroke="midnightblue" points="460.63,-66.03 450.68,-69.65 460.72,-73.03 460.63,-66.03"/>
</g>
<!-- Node3&#45;&gt;Node3 -->
<g id="edge7" class="edge">
<title>Node3&#45;&gt;Node3</title>
<path fill="none" stroke="#9a32cd" stroke-dasharray="5,2" d="M403.46,-89.4C404.6,-94.31 410.28,-98 420.5,-98 436.85,-98 441.58,-88.57 434.68,-79.76"/>
<polygon fill="#9a32cd" stroke="#9a32cd" points="406.84,-90.34 406.32,-79.76 400.12,-88.35 406.84,-90.34"/>
<text text-anchor="middle" x="420.5" y="-112" font-family="Helvetica,sans-Serif" font-size="10.00"> dbg_</text>
<text text-anchor="middle" x="420.5" y="-101" font-family="Helvetica,sans-Serif" font-size="10.00">substitute_</text>
</g>
<!-- Node4 -->
<g id="node4" class="node">
<title>Node4</title>
<g id="a_node4"><a xlink:href="classthorin_1_1_runtime_cast.html" target="_top" xlink:title=" ">
<polygon fill="none" stroke="black" points="174,-104 174,-134 275,-134 275,-104 174,-104"/>
<text text-anchor="start" x="182" y="-122" font-family="Helvetica,sans-Serif" font-size="10.00">thorin::RuntimeCast</text>
<text text-anchor="middle" x="224.5" y="-111" font-family="Helvetica,sans-Serif" font-size="10.00">&lt; Def &gt;</text>
</a>
</g>
</g>
<!-- Node4&#45;&gt;Node3 -->
<g id="edge3" class="edge">
<title>Node4&#45;&gt;Node3</title>
<path fill="none" stroke="midnightblue" d="M285.31,-103.89C320.23,-95.07 362.73,-84.34 390.42,-77.35"/>
<polygon fill="midnightblue" stroke="midnightblue" points="284.05,-100.6 275.21,-106.44 285.76,-107.39 284.05,-100.6"/>
</g>
<!-- Node5 -->
<g id="node5" class="node">
<title>Node5</title>
<g id="a_node5"><a xlink:href="classthorin_1_1_streamable.html" target="_top" xlink:title=" ">
<polygon fill="none" stroke="black" points="177,-55 177,-85 272,-85 272,-55 177,-55"/>
<text text-anchor="start" x="185" y="-73" font-family="Helvetica,sans-Serif" font-size="10.00">thorin::Streamable</text>
<text text-anchor="middle" x="224.5" y="-62" font-family="Helvetica,sans-Serif" font-size="10.00">&lt; Def &gt;</text>
</a>
</g>
</g>
<!-- Node5&#45;&gt;Node3 -->
<g id="edge4" class="edge">
<title>Node5&#45;&gt;Node3</title>
<path fill="none" stroke="midnightblue" d="M282.67,-70C318.08,-70 362.05,-70 390.43,-70"/>
<polygon fill="midnightblue" stroke="midnightblue" points="282.46,-66.5 272.46,-70 282.46,-73.5 282.46,-66.5"/>
</g>
<!-- Node6 -->
<g id="node6" class="node">
<title>Node6</title>
<g id="a_node6"><a xlink:href="classthorin_1_1_hash_set.html" target="_top" xlink:title=" ">
<polygon fill="none" stroke="black" points="168,-6 168,-36 281,-36 281,-6 168,-6"/>
<text text-anchor="start" x="176" y="-24" font-family="Helvetica,sans-Serif" font-size="10.00">thorin::HashSet&lt; Use,</text>
<text text-anchor="middle" x="224.5" y="-13" font-family="Helvetica,sans-Serif" font-size="10.00"> UseHash &gt;</text>
</a>
</g>
</g>
<!-- Node6&#45;&gt;Node3 -->
<g id="edge5" class="edge">
<title>Node6&#45;&gt;Node3</title>
<path fill="none" stroke="#9a32cd" stroke-dasharray="5,2" d="M290.89,-37.52C324.61,-46.03 364.06,-56 390.28,-62.62"/>
<polygon fill="#9a32cd" stroke="#9a32cd" points="291.65,-34.1 281.09,-35.04 289.93,-40.88 291.65,-34.1"/>
<text text-anchor="middle" x="313.5" y="-48" font-family="Helvetica,sans-Serif" font-size="10.00"> uses_</text>
</g>
<!-- Node7 -->
<g id="node7" class="node">
<title>Node7</title>
<g id="a_node7"><a xlink:href="classthorin_1_1detail_1_1_hash_table.html" target="_top" xlink:title=" ">
<polygon fill="none" stroke="black" points="0,-6 0,-36 131,-36 131,-6 0,-6"/>
<text text-anchor="start" x="8" y="-24" font-family="Helvetica,sans-Serif" font-size="10.00">thorin::detail::HashTable</text>
<text text-anchor="middle" x="65.5" y="-13" font-family="Helvetica,sans-Serif" font-size="10.00">&lt; Use, void, UseHash, 4 &gt;</text>
</a>
</g>
</g>
<!-- Node7&#45;&gt;Node6 -->
<g id="edge6" class="edge">
<title>Node7&#45;&gt;Node6</title>
<path fill="none" stroke="midnightblue" d="M141.32,-21C150.27,-21 159.29,-21 167.9,-21"/>
<polygon fill="midnightblue" stroke="midnightblue" points="141.26,-17.5 131.26,-21 141.26,-24.5 141.26,-17.5"/>
</g>
<!-- Node8 -->
<g id="node8" class="node">
<title>Node8</title>
<g id="a_node8"><a xlink:href="classthorin_1_1_hash_set.html" target="_top" xlink:title=" ">
<polygon fill="none" stroke="black" points="532,-8 532,-38 648,-38 648,-8 532,-8"/>
<text text-anchor="start" x="540" y="-26" font-family="Helvetica,sans-Serif" font-size="10.00">thorin::HashSet&lt; const</text>
<text text-anchor="middle" x="590" y="-15" font-family="Helvetica,sans-Serif" font-size="10.00"> thorin::Proxy * &gt;</text>
</a>
</g>
</g>
<!-- Node8&#45;&gt;Node1 -->
<g id="edge8" class="edge">
<title>Node8&#45;&gt;Node1</title>
<path fill="none" stroke="#9a32cd" stroke-dasharray="5,2" d="M658.2,-26.54C672.99,-27.67 688.55,-29.13 703,-31 712.14,-32.18 721.85,-33.76 731.13,-35.44"/>
<polygon fill="#9a32cd" stroke="#9a32cd" points="658.33,-23.04 648.1,-25.81 657.82,-30.03 658.33,-23.04"/>
<text text-anchor="middle" x="684.5" y="-34" font-family="Helvetica,sans-Serif" font-size="10.00"> writable</text>
</g>
<!-- Node9 -->
<g id="node9" class="node">
<title>Node9</title>
<g id="a_node9"><a xlink:href="classthorin_1_1detail_1_1_hash_table.html" target="_top" xlink:title=" ">
<polygon fill="none" stroke="black" points="346,-0.5 346,-41.5 495,-41.5 495,-0.5 346,-0.5"/>
<text text-anchor="start" x="354" y="-29.5" font-family="Helvetica,sans-Serif" font-size="10.00">thorin::detail::HashTable</text>
<text text-anchor="start" x="354" y="-18.5" font-family="Helvetica,sans-Serif" font-size="10.00">&lt; const thorin::Proxy *,</text>
<text text-anchor="middle" x="420.5" y="-7.5" font-family="Helvetica,sans-Serif" font-size="10.00"> void, typename Key::Hash, 4 &gt;</text>
</a>
</g>
</g>
<!-- Node9&#45;&gt;Node8 -->
<g id="edge9" class="edge">
<title>Node9&#45;&gt;Node8</title>
<path fill="none" stroke="midnightblue" d="M505.49,-22C514.39,-22.11 523.3,-22.22 531.79,-22.32"/>
<polygon fill="midnightblue" stroke="midnightblue" points="505.5,-18.5 495.46,-21.88 505.41,-25.5 505.5,-18.5"/>
</g>
</g>
</svg>
