<?xml version="1.0" encoding="UTF-8" standalone="no"?>
<!DOCTYPE svg PUBLIC "-//W3C//DTD SVG 1.1//EN"
 "http://www.w3.org/Graphics/SVG/1.1/DTD/svg11.dtd">
<!-- Generated by graphviz version 2.43.0 (0)
 -->
<!-- Title: /home/runner/work/thorin2/thorin2/thorin/pass/fp/tail_rec_elim.cpp Pages: 1 -->
<svg width="1545pt" height="632pt"
 viewBox="0.00 0.00 1545.00 632.00" xmlns="http://www.w3.org/2000/svg" xmlns:xlink="http://www.w3.org/1999/xlink">
<g id="graph0" class="graph" transform="scale(1 1) rotate(0) translate(4 628)">
<title>/home/runner/work/thorin2/thorin2/thorin/pass/fp/tail_rec_elim.cpp</title>
<!-- Node1 -->
<g id="node1" class="node">
<title>Node1</title>
<g id="a_node1"><a xlink:title=" ">
<polygon fill="#bfbfbf" stroke="black" points="480,-582.5 480,-623.5 626,-623.5 626,-582.5 480,-582.5"/>
<text text-anchor="start" x="488" y="-611.5" font-family="Helvetica,sans-Serif" font-size="10.00">/home/runner/work/thorin2</text>
<text text-anchor="start" x="488" y="-600.5" font-family="Helvetica,sans-Serif" font-size="10.00">/thorin2/thorin/pass/fp</text>
<text text-anchor="middle" x="553" y="-589.5" font-family="Helvetica,sans-Serif" font-size="10.00">/tail_rec_elim.cpp</text>
</a>
</g>
</g>
<!-- Node2 -->
<g id="node2" class="node">
<title>Node2</title>
<g id="a_node2"><a xlink:href="tail__rec__elim_8h.html" target="_top" xlink:title=" ">
<polygon fill="none" stroke="black" points="379,-515.5 379,-545.5 481,-545.5 481,-515.5 379,-515.5"/>
<text text-anchor="start" x="387" y="-533.5" font-family="Helvetica,sans-Serif" font-size="10.00">thorin/pass/fp/tail</text>
<text text-anchor="middle" x="430" y="-522.5" font-family="Helvetica,sans-Serif" font-size="10.00">_rec_elim.h</text>
</a>
</g>
</g>
<!-- Node1&#45;&gt;Node2 -->
<g id="edge1" class="edge">
<title>Node1&#45;&gt;Node2</title>
<path fill="none" stroke="midnightblue" d="M518.74,-582.36C501.58,-572.53 480.89,-560.67 463.8,-550.87"/>
<polygon fill="midnightblue" stroke="midnightblue" points="465.14,-547.61 454.72,-545.67 461.66,-553.68 465.14,-547.61"/>
</g>
<!-- Node49 -->
<g id="node49" class="node">
<title>Node49</title>
<g id="a_node49"><a xlink:href="beta__red_8h.html" target="_top" xlink:title=" ">
<polygon fill="none" stroke="black" points="499,-515.5 499,-545.5 607,-545.5 607,-515.5 499,-515.5"/>
<text text-anchor="start" x="507" y="-533.5" font-family="Helvetica,sans-Serif" font-size="10.00">thorin/pass/fp/beta</text>
<text text-anchor="middle" x="553" y="-522.5" font-family="Helvetica,sans-Serif" font-size="10.00">_red.h</text>
</a>
</g>
</g>
<!-- Node1&#45;&gt;Node49 -->
<g id="edge73" class="edge">
<title>Node1&#45;&gt;Node49</title>
<path fill="none" stroke="midnightblue" d="M553,-582.36C553,-574.23 553,-564.7 553,-556.11"/>
<polygon fill="midnightblue" stroke="midnightblue" points="556.5,-555.89 553,-545.89 549.5,-555.89 556.5,-555.89"/>
</g>
<!-- Node50 -->
<g id="node50" class="node">
<title>Node50</title>
<g id="a_node50"><a xlink:href="eta__red_8h.html" target="_top" xlink:title=" ">
<polygon fill="none" stroke="black" points="625,-515.5 625,-545.5 727,-545.5 727,-515.5 625,-515.5"/>
<text text-anchor="start" x="633" y="-533.5" font-family="Helvetica,sans-Serif" font-size="10.00">thorin/pass/fp/eta</text>
<text text-anchor="middle" x="676" y="-522.5" font-family="Helvetica,sans-Serif" font-size="10.00">_red.h</text>
</a>
</g>
</g>
<!-- Node1&#45;&gt;Node50 -->
<g id="edge75" class="edge">
<title>Node1&#45;&gt;Node50</title>
<path fill="none" stroke="midnightblue" d="M587.26,-582.36C604.42,-572.53 625.11,-560.67 642.2,-550.87"/>
<polygon fill="midnightblue" stroke="midnightblue" points="644.34,-553.68 651.28,-545.67 640.86,-547.61 644.34,-553.68"/>
</g>
<!-- Node3 -->
<g id="node3" class="node">
<title>Node3</title>
<g id="a_node3"><a xlink:href="pass_8h.html" target="_top" xlink:title=" ">
<polygon fill="none" stroke="black" points="500.5,-459.5 500.5,-478.5 605.5,-478.5 605.5,-459.5 500.5,-459.5"/>
<text text-anchor="middle" x="553" y="-466.5" font-family="Helvetica,sans-Serif" font-size="10.00">thorin/pass/pass.h</text>
</a>
</g>
</g>
<!-- Node2&#45;&gt;Node3 -->
<g id="edge2" class="edge">
<title>Node2&#45;&gt;Node3</title>
<path fill="none" stroke="midnightblue" d="M459.15,-515.4C479.42,-505.59 506.24,-492.62 526.02,-483.05"/>
<polygon fill="midnightblue" stroke="midnightblue" points="527.62,-486.16 535.1,-478.66 524.58,-479.86 527.62,-486.16"/>
</g>
<!-- Node4 -->
<g id="node4" class="node">
<title>Node4</title>
<g id="a_node4"><a xlink:title=" ">
<polygon fill="none" stroke="#bfbfbf" points="632.5,-118 632.5,-137 675.5,-137 675.5,-118 632.5,-118"/>
<text text-anchor="middle" x="654" y="-125" font-family="Helvetica,sans-Serif" font-size="10.00">stack</text>
</a>
</g>
</g>
<!-- Node3&#45;&gt;Node4 -->
<g id="edge3" class="edge">
<title>Node3&#45;&gt;Node4</title>
<path fill="none" stroke="midnightblue" d="M563.18,-459.46C582.37,-442.35 622,-401.73 622,-358 622,-358 622,-358 622,-244 622,-208.43 636.27,-168.87 645.75,-146.5"/>
<polygon fill="midnightblue" stroke="midnightblue" points="648.99,-147.82 649.82,-137.26 642.59,-145 648.99,-147.82"/>
</g>
<!-- Node5 -->
<g id="node5" class="node">
<title>Node5</title>
<g id="a_node5"><a xlink:href="world_8h.html" target="_top" xlink:title=" ">
<polygon fill="none" stroke="black" points="442,-403.5 442,-422.5 526,-422.5 526,-403.5 442,-403.5"/>
<text text-anchor="middle" x="484" y="-410.5" font-family="Helvetica,sans-Serif" font-size="10.00">thorin/world.h</text>
</a>
</g>
</g>
<!-- Node3&#45;&gt;Node5 -->
<g id="edge4" class="edge">
<title>Node3&#45;&gt;Node5</title>
<path fill="none" stroke="midnightblue" d="M541.91,-459.32C531.51,-451.18 515.74,-438.84 503.28,-429.09"/>
<polygon fill="midnightblue" stroke="midnightblue" points="505.32,-426.24 495.29,-422.83 501.01,-431.75 505.32,-426.24"/>
</g>
<!-- Node6 -->
<g id="node6" class="node">
<title>Node6</title>
<g id="a_node6"><a xlink:title=" ">
<polygon fill="none" stroke="#bfbfbf" points="48,-56.5 48,-75.5 104,-75.5 104,-56.5 48,-56.5"/>
<text text-anchor="middle" x="76" y="-63.5" font-family="Helvetica,sans-Serif" font-size="10.00">sstream</text>
</a>
</g>
</g>
<!-- Node5&#45;&gt;Node6 -->
<g id="edge5" class="edge">
<title>Node5&#45;&gt;Node6</title>
<path fill="none" stroke="midnightblue" d="M441.86,-411.11C348.86,-408.56 129.07,-399.22 63,-367 26.84,-349.36 0,-342.23 0,-302 0,-302 0,-302 0,-188 0,-144.48 35.7,-103.77 58.16,-82.47"/>
<polygon fill="midnightblue" stroke="midnightblue" points="60.73,-84.86 65.75,-75.53 56.01,-79.7 60.73,-84.86"/>
</g>
<!-- Node7 -->
<g id="node7" class="node">
<title>Node7</title>
<g id="a_node7"><a xlink:title=" ">
<polygon fill="none" stroke="#bfbfbf" points="248,-56.5 248,-75.5 292,-75.5 292,-56.5 248,-56.5"/>
<text text-anchor="middle" x="270" y="-63.5" font-family="Helvetica,sans-Serif" font-size="10.00">string</text>
</a>
</g>
</g>
<!-- Node5&#45;&gt;Node7 -->
<g id="edge6" class="edge">
<title>Node5&#45;&gt;Node7</title>
<path fill="none" stroke="midnightblue" d="M441.92,-409.89C358,-405.2 172.9,-392.25 115,-367 73.95,-349.1 38,-346.79 38,-302 38,-302 38,-302 38,-188 38,-99.11 173.55,-75.41 237.43,-69.18"/>
<polygon fill="midnightblue" stroke="midnightblue" points="238.1,-72.64 247.75,-68.27 237.48,-65.66 238.1,-72.64"/>
</g>
<!-- Node8 -->
<g id="node8" class="node">
<title>Node8</title>
<g id="a_node8"><a xlink:title=" ">
<polygon fill="none" stroke="#bfbfbf" points="104.5,-118 104.5,-137 177.5,-137 177.5,-118 104.5,-118"/>
<text text-anchor="middle" x="141" y="-125" font-family="Helvetica,sans-Serif" font-size="10.00">string_view</text>
</a>
</g>
</g>
<!-- Node5&#45;&gt;Node8 -->
<g id="edge7" class="edge">
<title>Node5&#45;&gt;Node8</title>
<path fill="none" stroke="midnightblue" d="M441.87,-409.6C337.63,-402.5 76,-377.2 76,-302 76,-302 76,-302 76,-244 76,-204.19 105.69,-165.43 124.94,-144.49"/>
<polygon fill="midnightblue" stroke="midnightblue" points="127.59,-146.78 131.96,-137.13 122.53,-141.95 127.59,-146.78"/>
</g>
<!-- Node9 -->
<g id="node9" class="node">
<title>Node9</title>
<g id="a_node9"><a xlink:href="axiom_8h.html" target="_top" xlink:title=" ">
<polygon fill="none" stroke="black" points="752,-347.5 752,-366.5 840,-366.5 840,-347.5 752,-347.5"/>
<text text-anchor="middle" x="796" y="-354.5" font-family="Helvetica,sans-Serif" font-size="10.00">thorin/axiom.h</text>
</a>
</g>
</g>
<!-- Node5&#45;&gt;Node9 -->
<g id="edge8" class="edge">
<title>Node5&#45;&gt;Node9</title>
<path fill="none" stroke="midnightblue" d="M526.08,-404.72C581.93,-395.05 680.63,-377.97 741.95,-367.36"/>
<polygon fill="midnightblue" stroke="midnightblue" points="742.57,-370.8 751.83,-365.65 741.38,-363.9 742.57,-370.8"/>
</g>
<!-- Node15 -->
<g id="node15" class="node">
<title>Node15</title>
<g id="a_node15"><a xlink:href="debug_8h.html" target="_top" xlink:title=" ">
<polygon fill="none" stroke="black" points="440.5,-179.5 440.5,-198.5 527.5,-198.5 527.5,-179.5 440.5,-179.5"/>
<text text-anchor="middle" x="484" y="-186.5" font-family="Helvetica,sans-Serif" font-size="10.00">thorin/debug.h</text>
</a>
</g>
</g>
<!-- Node5&#45;&gt;Node15 -->
<g id="edge62" class="edge">
<title>Node5&#45;&gt;Node15</title>
<path fill="none" stroke="midnightblue" d="M484,-403.3C484,-370.63 484,-254.87 484,-208.96"/>
<polygon fill="midnightblue" stroke="midnightblue" points="487.5,-208.88 484,-198.88 480.5,-208.88 487.5,-208.88"/>
</g>
<!-- Node43 -->
<g id="node43" class="node">
<title>Node43</title>
<g id="a_node43"><a xlink:href="hash_8h.html" target="_top" xlink:title=" ">
<polygon fill="none" stroke="black" points="1020.5,-118 1020.5,-137 1119.5,-137 1119.5,-118 1020.5,-118"/>
<text text-anchor="middle" x="1070" y="-125" font-family="Helvetica,sans-Serif" font-size="10.00">thorin/util/hash.h</text>
</a>
</g>
</g>
<!-- Node5&#45;&gt;Node43 -->
<g id="edge72" class="edge">
<title>Node5&#45;&gt;Node43</title>
<path fill="none" stroke="midnightblue" d="M526.05,-409.08C666.4,-398.76 1110,-361.45 1110,-302 1110,-302 1110,-302 1110,-244 1110,-207.56 1092.01,-168.05 1080.16,-145.97"/>
<polygon fill="midnightblue" stroke="midnightblue" points="1083.15,-144.16 1075.23,-137.13 1077.04,-147.57 1083.15,-144.16"/>
</g>
<!-- Node44 -->
<g id="node44" class="node">
<title>Node44</title>
<g id="a_node44"><a xlink:title=" ">
<polygon fill="none" stroke="#bfbfbf" points="370,-347.5 370,-366.5 456,-366.5 456,-347.5 370,-347.5"/>
<text text-anchor="middle" x="413" y="-354.5" font-family="Helvetica,sans-Serif" font-size="10.00">thorin/config.h</text>
</a>
</g>
</g>
<!-- Node5&#45;&gt;Node44 -->
<g id="edge61" class="edge">
<title>Node5&#45;&gt;Node44</title>
<path fill="none" stroke="midnightblue" d="M472.59,-403.32C461.89,-395.18 445.66,-382.84 432.84,-373.09"/>
<polygon fill="midnightblue" stroke="midnightblue" points="434.69,-370.1 424.61,-366.83 430.46,-375.67 434.69,-370.1"/>
</g>
<!-- Node45 -->
<g id="node45" class="node">
<title>Node45</title>
<g id="a_node45"><a xlink:href="error_8h.html" target="_top" xlink:title=" ">
<polygon fill="none" stroke="black" points="206,-235.5 206,-254.5 286,-254.5 286,-235.5 206,-235.5"/>
<text text-anchor="middle" x="246" y="-242.5" font-family="Helvetica,sans-Serif" font-size="10.00">thorin/error.h</text>
</a>
</g>
</g>
<!-- Node5&#45;&gt;Node45 -->
<g id="edge63" class="edge">
<title>Node5&#45;&gt;Node45</title>
<path fill="none" stroke="midnightblue" d="M447.79,-403.49C422.15,-396.37 387.71,-384.53 361,-367 316.76,-337.97 277.13,-288.8 258.04,-262.99"/>
<polygon fill="midnightblue" stroke="midnightblue" points="260.67,-260.65 251.96,-254.61 255,-264.76 260.67,-260.65"/>
</g>
<!-- Node47 -->
<g id="node47" class="node">
<title>Node47</title>
<g id="a_node47"><a xlink:href="lattice_8h.html" target="_top" xlink:title=" ">
<polygon fill="none" stroke="black" points="652,-291.5 652,-310.5 740,-310.5 740,-291.5 652,-291.5"/>
<text text-anchor="middle" x="696" y="-298.5" font-family="Helvetica,sans-Serif" font-size="10.00">thorin/lattice.h</text>
</a>
</g>
</g>
<!-- Node5&#45;&gt;Node47 -->
<g id="edge68" class="edge">
<title>Node5&#45;&gt;Node47</title>
<path fill="none" stroke="midnightblue" d="M500.64,-403.37C537.56,-384.21 626.55,-338.04 670.53,-315.22"/>
<polygon fill="midnightblue" stroke="midnightblue" points="672.18,-318.3 679.44,-310.59 668.95,-312.09 672.18,-318.3"/>
</g>
<!-- Node48 -->
<g id="node48" class="node">
<title>Node48</title>
<g id="a_node48"><a xlink:href="tuple_8h.html" target="_top" xlink:title=" ">
<polygon fill="none" stroke="black" points="512,-291.5 512,-310.5 594,-310.5 594,-291.5 512,-291.5"/>
<text text-anchor="middle" x="553" y="-298.5" font-family="Helvetica,sans-Serif" font-size="10.00">thorin/tuple.h</text>
</a>
</g>
</g>
<!-- Node5&#45;&gt;Node48 -->
<g id="edge70" class="edge">
<title>Node5&#45;&gt;Node48</title>
<path fill="none" stroke="midnightblue" d="M489.41,-403.37C500.75,-385.3 527.17,-343.18 542.14,-319.31"/>
<polygon fill="midnightblue" stroke="midnightblue" points="545.26,-320.92 547.61,-310.59 539.33,-317.2 545.26,-320.92"/>
</g>
<!-- Node10 -->
<g id="node10" class="node">
<title>Node10</title>
<g id="a_node10"><a xlink:href="lam_8h.html" target="_top" xlink:title=" ">
<polygon fill="none" stroke="black" points="758,-291.5 758,-310.5 834,-310.5 834,-291.5 758,-291.5"/>
<text text-anchor="middle" x="796" y="-298.5" font-family="Helvetica,sans-Serif" font-size="10.00">thorin/lam.h</text>
</a>
</g>
</g>
<!-- Node9&#45;&gt;Node10 -->
<g id="edge9" class="edge">
<title>Node9&#45;&gt;Node10</title>
<path fill="none" stroke="midnightblue" d="M796,-347.08C796,-340.01 796,-329.86 796,-320.99"/>
<polygon fill="midnightblue" stroke="midnightblue" points="799.5,-320.75 796,-310.75 792.5,-320.75 799.5,-320.75"/>
</g>
<!-- Node23 -->
<g id="node23" class="node">
<title>Node23</title>
<g id="a_node23"><a xlink:href="assert_8h.html" target="_top" xlink:title=" ">
<polygon fill="none" stroke="black" points="721,-56.5 721,-75.5 827,-75.5 827,-56.5 721,-56.5"/>
<text text-anchor="middle" x="774" y="-63.5" font-family="Helvetica,sans-Serif" font-size="10.00">thorin/util/assert.h</text>
</a>
</g>
</g>
<!-- Node9&#45;&gt;Node23 -->
<g id="edge60" class="edge">
<title>Node9&#45;&gt;Node23</title>
<path fill="none" stroke="midnightblue" d="M829.23,-347.44C931.75,-319.54 1230.27,-226.47 1129,-112 1087.4,-64.98 916.62,-82.97 837.21,-75.9"/>
<polygon fill="midnightblue" stroke="midnightblue" points="837.41,-72.4 827.09,-74.78 836.65,-79.36 837.41,-72.4"/>
</g>
<!-- Node11 -->
<g id="node11" class="node">
<title>Node11</title>
<g id="a_node11"><a xlink:title=" ">
<polygon fill="none" stroke="#bfbfbf" points="771.5,-235.5 771.5,-254.5 822.5,-254.5 822.5,-235.5 771.5,-235.5"/>
<text text-anchor="middle" x="797" y="-242.5" font-family="Helvetica,sans-Serif" font-size="10.00">variant</text>
</a>
</g>
</g>
<!-- Node10&#45;&gt;Node11 -->
<g id="edge10" class="edge">
<title>Node10&#45;&gt;Node11</title>
<path fill="none" stroke="midnightblue" d="M796.17,-291.08C796.3,-284.01 796.48,-273.86 796.65,-264.99"/>
<polygon fill="midnightblue" stroke="midnightblue" points="800.15,-264.81 796.84,-254.75 793.15,-264.68 800.15,-264.81"/>
</g>
<!-- Node12 -->
<g id="node12" class="node">
<title>Node12</title>
<g id="a_node12"><a xlink:href="def_8h.html" target="_top" xlink:title=" ">
<polygon fill="none" stroke="black" points="681,-235.5 681,-254.5 753,-254.5 753,-235.5 681,-235.5"/>
<text text-anchor="middle" x="717" y="-242.5" font-family="Helvetica,sans-Serif" font-size="10.00">thorin/def.h</text>
</a>
</g>
</g>
<!-- Node10&#45;&gt;Node12 -->
<g id="edge11" class="edge">
<title>Node10&#45;&gt;Node12</title>
<path fill="none" stroke="midnightblue" d="M783.31,-291.32C771.1,-282.98 752.42,-270.21 738,-260.35"/>
<polygon fill="midnightblue" stroke="midnightblue" points="739.89,-257.41 729.66,-254.65 735.94,-263.19 739.89,-257.41"/>
</g>
<!-- Node13 -->
<g id="node13" class="node">
<title>Node13</title>
<g id="a_node13"><a xlink:title=" ">
<polygon fill="none" stroke="#bfbfbf" points="834,-179.5 834,-198.5 890,-198.5 890,-179.5 834,-179.5"/>
<text text-anchor="middle" x="862" y="-186.5" font-family="Helvetica,sans-Serif" font-size="10.00">optional</text>
</a>
</g>
</g>
<!-- Node12&#45;&gt;Node13 -->
<g id="edge12" class="edge">
<title>Node12&#45;&gt;Node13</title>
<path fill="none" stroke="midnightblue" d="M739.98,-235.44C764.16,-226.44 802.42,-212.19 829.65,-202.05"/>
<polygon fill="midnightblue" stroke="midnightblue" points="830.98,-205.29 839.13,-198.52 828.54,-198.73 830.98,-205.29"/>
</g>
<!-- Node14 -->
<g id="node14" class="node">
<title>Node14</title>
<g id="a_node14"><a xlink:title=" ">
<polygon fill="none" stroke="#bfbfbf" points="913.5,-56.5 913.5,-75.5 960.5,-75.5 960.5,-56.5 913.5,-56.5"/>
<text text-anchor="middle" x="937" y="-63.5" font-family="Helvetica,sans-Serif" font-size="10.00">vector</text>
</a>
</g>
</g>
<!-- Node12&#45;&gt;Node14 -->
<g id="edge13" class="edge">
<title>Node12&#45;&gt;Node14</title>
<path fill="none" stroke="midnightblue" d="M753.07,-236.42C851.31,-215.6 1117.15,-158.1 1129,-143 1137.5,-132.16 1137.63,-122.74 1129,-112 1084.54,-56.64 1041.57,-91.68 970.45,-76.84"/>
<polygon fill="midnightblue" stroke="midnightblue" points="971.23,-73.43 960.69,-74.53 969.61,-80.24 971.23,-73.43"/>
</g>
<!-- Node12&#45;&gt;Node15 -->
<g id="edge14" class="edge">
<title>Node12&#45;&gt;Node15</title>
<path fill="none" stroke="midnightblue" d="M680.85,-235.62C640.53,-226.28 575.18,-211.13 530.94,-200.88"/>
<polygon fill="midnightblue" stroke="midnightblue" points="531.54,-197.42 521.01,-198.58 529.96,-204.24 531.54,-197.42"/>
</g>
<!-- Node18 -->
<g id="node18" class="node">
<title>Node18</title>
<g id="a_node18"><a xlink:href="tables_8h.html" target="_top" xlink:title=" ">
<polygon fill="none" stroke="black" points="287.5,-179.5 287.5,-198.5 374.5,-198.5 374.5,-179.5 287.5,-179.5"/>
<text text-anchor="middle" x="331" y="-186.5" font-family="Helvetica,sans-Serif" font-size="10.00">thorin/tables.h</text>
</a>
</g>
</g>
<!-- Node12&#45;&gt;Node18 -->
<g id="edge18" class="edge">
<title>Node12&#45;&gt;Node18</title>
<path fill="none" stroke="midnightblue" d="M680.78,-238.95C621.18,-230.63 498.69,-213.54 395,-199 391.62,-198.53 388.14,-198.04 384.63,-197.55"/>
<polygon fill="midnightblue" stroke="midnightblue" points="385.11,-194.08 374.72,-196.15 384.14,-201.01 385.11,-194.08"/>
</g>
<!-- Node19 -->
<g id="node19" class="node">
<title>Node19</title>
<g id="a_node19"><a xlink:href="print_8h.html" target="_top" xlink:title=" ">
<polygon fill="none" stroke="black" points="196,-118 196,-137 294,-137 294,-118 196,-118"/>
<text text-anchor="middle" x="245" y="-125" font-family="Helvetica,sans-Serif" font-size="10.00">thorin/util/print.h</text>
</a>
</g>
</g>
<!-- Node12&#45;&gt;Node19 -->
<g id="edge59" class="edge">
<title>Node12&#45;&gt;Node19</title>
<path fill="none" stroke="midnightblue" d="M680.74,-241.09C625.86,-236.06 518.79,-223.81 431,-199 408.76,-192.71 404.52,-187.42 383,-179 347.87,-165.26 307.29,-150.55 279.27,-140.57"/>
<polygon fill="midnightblue" stroke="midnightblue" points="280.15,-137.17 269.55,-137.12 277.8,-143.76 280.15,-137.17"/>
</g>
<!-- Node31 -->
<g id="node31" class="node">
<title>Node31</title>
<g id="a_node31"><a xlink:href="array_8h.html" target="_top" xlink:title=" ">
<polygon fill="none" stroke="black" points="1214,-118 1214,-137 1314,-137 1314,-118 1214,-118"/>
<text text-anchor="middle" x="1264" y="-125" font-family="Helvetica,sans-Serif" font-size="10.00">thorin/util/array.h</text>
</a>
</g>
</g>
<!-- Node12&#45;&gt;Node31 -->
<g id="edge35" class="edge">
<title>Node12&#45;&gt;Node31</title>
<path fill="none" stroke="midnightblue" d="M753.11,-236.64C756.45,-236.05 759.78,-235.49 763,-235 905.78,-213.11 945.84,-233.9 1086,-199 1141.78,-185.11 1203.42,-157.82 1237.55,-141.57"/>
<polygon fill="midnightblue" stroke="midnightblue" points="1239.34,-144.59 1246.83,-137.1 1236.3,-138.29 1239.34,-144.59"/>
</g>
<!-- Node38 -->
<g id="node38" class="node">
<title>Node38</title>
<g id="a_node38"><a xlink:href="cast_8h.html" target="_top" xlink:title=" ">
<polygon fill="none" stroke="black" points="1441,-118 1441,-137 1537,-137 1537,-118 1441,-118"/>
<text text-anchor="middle" x="1489" y="-125" font-family="Helvetica,sans-Serif" font-size="10.00">thorin/util/cast.h</text>
</a>
</g>
</g>
<!-- Node12&#45;&gt;Node38 -->
<g id="edge46" class="edge">
<title>Node12&#45;&gt;Node38</title>
<path fill="none" stroke="midnightblue" d="M753.1,-236.6C756.44,-236.02 759.78,-235.47 763,-235 925.16,-211.24 967.85,-222.82 1130,-199 1242.52,-182.47 1373.27,-154.57 1441.7,-139.3"/>
<polygon fill="midnightblue" stroke="midnightblue" points="1442.74,-142.65 1451.73,-137.05 1441.21,-135.82 1442.74,-142.65"/>
</g>
<!-- Node39 -->
<g id="node39" class="node">
<title>Node39</title>
<g id="a_node39"><a xlink:href="container_8h.html" target="_top" xlink:title=" ">
<polygon fill="none" stroke="black" points="656.5,-179.5 656.5,-198.5 777.5,-198.5 777.5,-179.5 656.5,-179.5"/>
<text text-anchor="middle" x="717" y="-186.5" font-family="Helvetica,sans-Serif" font-size="10.00">thorin/util/container.h</text>
</a>
</g>
</g>
<!-- Node12&#45;&gt;Node39 -->
<g id="edge49" class="edge">
<title>Node12&#45;&gt;Node39</title>
<path fill="none" stroke="midnightblue" d="M717,-235.08C717,-228.01 717,-217.86 717,-208.99"/>
<polygon fill="midnightblue" stroke="midnightblue" points="720.5,-208.75 717,-198.75 713.5,-208.75 720.5,-208.75"/>
</g>
<!-- Node12&#45;&gt;Node43 -->
<g id="edge58" class="edge">
<title>Node12&#45;&gt;Node43</title>
<path fill="none" stroke="midnightblue" d="M730.2,-235.25C754.44,-219.32 805.38,-186.52 825,-179 904.03,-148.71 929.36,-161.27 1012,-143 1017,-141.89 1022.23,-140.68 1027.42,-139.43"/>
<polygon fill="midnightblue" stroke="midnightblue" points="1028.37,-142.8 1037.25,-137.02 1026.71,-136 1028.37,-142.8"/>
</g>
<!-- Node15&#45;&gt;Node7 -->
<g id="edge15" class="edge">
<title>Node15&#45;&gt;Node7</title>
<path fill="none" stroke="midnightblue" d="M460.41,-179.48C438.7,-171.27 405.88,-157.92 379,-143 345.65,-124.48 309.9,-98.17 288.77,-81.87"/>
<polygon fill="midnightblue" stroke="midnightblue" points="290.7,-78.93 280.66,-75.54 286.39,-84.45 290.7,-78.93"/>
</g>
<!-- Node16 -->
<g id="node16" class="node">
<title>Node16</title>
<g id="a_node16"><a xlink:title=" ">
<polygon fill="none" stroke="#bfbfbf" points="388,-112.5 388,-142.5 492,-142.5 492,-112.5 388,-112.5"/>
<text text-anchor="start" x="396" y="-130.5" font-family="Helvetica,sans-Serif" font-size="10.00">absl/container/flat</text>
<text text-anchor="middle" x="440" y="-119.5" font-family="Helvetica,sans-Serif" font-size="10.00">_hash_map.h</text>
</a>
</g>
</g>
<!-- Node15&#45;&gt;Node16 -->
<g id="edge16" class="edge">
<title>Node15&#45;&gt;Node16</title>
<path fill="none" stroke="midnightblue" d="M477.7,-179.48C472.13,-171.94 463.76,-160.63 456.32,-150.57"/>
<polygon fill="midnightblue" stroke="midnightblue" points="459.13,-148.48 450.37,-142.52 453.5,-152.64 459.13,-148.48"/>
</g>
<!-- Node17 -->
<g id="node17" class="node">
<title>Node17</title>
<g id="a_node17"><a xlink:title=" ">
<polygon fill="none" stroke="#bfbfbf" points="510,-112.5 510,-142.5 614,-142.5 614,-112.5 510,-112.5"/>
<text text-anchor="start" x="518" y="-130.5" font-family="Helvetica,sans-Serif" font-size="10.00">absl/container/flat</text>
<text text-anchor="middle" x="562" y="-119.5" font-family="Helvetica,sans-Serif" font-size="10.00">_hash_set.h</text>
</a>
</g>
</g>
<!-- Node15&#45;&gt;Node17 -->
<g id="edge17" class="edge">
<title>Node15&#45;&gt;Node17</title>
<path fill="none" stroke="midnightblue" d="M495.18,-179.48C505.64,-171.49 521.68,-159.25 535.43,-148.77"/>
<polygon fill="midnightblue" stroke="midnightblue" points="537.79,-151.37 543.62,-142.52 533.54,-145.81 537.79,-151.37"/>
</g>
<!-- Node18&#45;&gt;Node8 -->
<g id="edge19" class="edge">
<title>Node18&#45;&gt;Node8</title>
<path fill="none" stroke="midnightblue" d="M303.66,-179.48C274.69,-170.44 227.61,-155.75 187,-143 184.06,-142.08 181.01,-141.12 177.95,-140.16"/>
<polygon fill="midnightblue" stroke="midnightblue" points="178.83,-136.76 168.24,-137.1 176.73,-143.44 178.83,-136.76"/>
</g>
<!-- Node18&#45;&gt;Node19 -->
<g id="edge20" class="edge">
<title>Node18&#45;&gt;Node19</title>
<path fill="none" stroke="midnightblue" d="M318.68,-179.48C304.88,-169.93 282.3,-154.31 265.77,-142.87"/>
<polygon fill="midnightblue" stroke="midnightblue" points="267.51,-139.82 257.3,-137.01 263.53,-145.58 267.51,-139.82"/>
</g>
<!-- Node25 -->
<g id="node25" class="node">
<title>Node25</title>
<g id="a_node25"><a xlink:href="types_8h.html" target="_top" xlink:title=" ">
<polygon fill="none" stroke="black" points="463.5,-56.5 463.5,-75.5 566.5,-75.5 566.5,-56.5 463.5,-56.5"/>
<text text-anchor="middle" x="515" y="-63.5" font-family="Helvetica,sans-Serif" font-size="10.00">thorin/util/types.h</text>
</a>
</g>
</g>
<!-- Node18&#45;&gt;Node25 -->
<g id="edge28" class="edge">
<title>Node18&#45;&gt;Node25</title>
<path fill="none" stroke="midnightblue" d="M334.17,-179.34C340.36,-163.63 355.52,-130.36 379,-112 400.45,-95.23 428.42,-84.58 453.42,-77.87"/>
<polygon fill="midnightblue" stroke="midnightblue" points="454.35,-81.25 463.19,-75.41 452.64,-74.46 454.35,-81.25"/>
</g>
<!-- Node19&#45;&gt;Node6 -->
<g id="edge24" class="edge">
<title>Node19&#45;&gt;Node6</title>
<path fill="none" stroke="midnightblue" d="M220.79,-117.98C191.67,-107.72 142.63,-90.46 109.8,-78.9"/>
<polygon fill="midnightblue" stroke="midnightblue" points="110.76,-75.53 100.17,-75.51 108.44,-82.13 110.76,-75.53"/>
</g>
<!-- Node19&#45;&gt;Node7 -->
<g id="edge25" class="edge">
<title>Node19&#45;&gt;Node7</title>
<path fill="none" stroke="midnightblue" d="M248.58,-117.98C252.18,-109.4 257.85,-95.93 262.44,-84.98"/>
<polygon fill="midnightblue" stroke="midnightblue" points="265.78,-86.08 266.42,-75.51 259.32,-83.37 265.78,-86.08"/>
</g>
<!-- Node20 -->
<g id="node20" class="node">
<title>Node20</title>
<g id="a_node20"><a xlink:title=" ">
<polygon fill="none" stroke="#bfbfbf" points="310,-56.5 310,-75.5 370,-75.5 370,-56.5 310,-56.5"/>
<text text-anchor="middle" x="340" y="-63.5" font-family="Helvetica,sans-Serif" font-size="10.00">iostream</text>
</a>
</g>
</g>
<!-- Node19&#45;&gt;Node20 -->
<g id="edge21" class="edge">
<title>Node19&#45;&gt;Node20</title>
<path fill="none" stroke="midnightblue" d="M258.61,-117.98C274.06,-108.3 299.49,-92.37 317.82,-80.89"/>
<polygon fill="midnightblue" stroke="midnightblue" points="319.8,-83.78 326.41,-75.51 316.08,-77.85 319.8,-83.78"/>
</g>
<!-- Node21 -->
<g id="node21" class="node">
<title>Node21</title>
<g id="a_node21"><a xlink:title=" ">
<polygon fill="none" stroke="#bfbfbf" points="270.5,-0.5 270.5,-19.5 327.5,-19.5 327.5,-0.5 270.5,-0.5"/>
<text text-anchor="middle" x="299" y="-7.5" font-family="Helvetica,sans-Serif" font-size="10.00">ostream</text>
</a>
</g>
</g>
<!-- Node19&#45;&gt;Node21 -->
<g id="edge22" class="edge">
<title>Node19&#45;&gt;Node21</title>
<path fill="none" stroke="midnightblue" d="M241.44,-117.7C236.41,-103.79 228.89,-76.22 239,-56 245.73,-42.54 258.61,-32.07 270.71,-24.62"/>
<polygon fill="midnightblue" stroke="midnightblue" points="272.73,-27.5 279.7,-19.52 269.28,-21.41 272.73,-27.5"/>
</g>
<!-- Node22 -->
<g id="node22" class="node">
<title>Node22</title>
<g id="a_node22"><a xlink:title=" ">
<polygon fill="none" stroke="#bfbfbf" points="845,-56.5 845,-75.5 895,-75.5 895,-56.5 845,-56.5"/>
<text text-anchor="middle" x="870" y="-63.5" font-family="Helvetica,sans-Serif" font-size="10.00">ranges</text>
</a>
</g>
</g>
<!-- Node19&#45;&gt;Node22 -->
<g id="edge23" class="edge">
<title>Node19&#45;&gt;Node22</title>
<path fill="none" stroke="midnightblue" d="M294.29,-120.82C319.59,-117.99 350.93,-114.62 379,-112 578.59,-93.34 633.4,-109.66 834.84,-75.89"/>
<polygon fill="midnightblue" stroke="midnightblue" points="835.59,-79.32 844.86,-74.19 834.42,-72.42 835.59,-79.32"/>
</g>
<!-- Node19&#45;&gt;Node23 -->
<g id="edge26" class="edge">
<title>Node19&#45;&gt;Node23</title>
<path fill="none" stroke="midnightblue" d="M294.29,-120.96C390.7,-110.11 604.09,-86.11 710.75,-74.11"/>
<polygon fill="midnightblue" stroke="midnightblue" points="711.18,-77.59 720.73,-72.99 710.4,-70.63 711.18,-77.59"/>
</g>
<!-- Node24 -->
<g id="node24" class="node">
<title>Node24</title>
<g id="a_node24"><a xlink:title=" ">
<polygon fill="none" stroke="#bfbfbf" points="1410,-0.5 1410,-19.5 1462,-19.5 1462,-0.5 1410,-0.5"/>
<text text-anchor="middle" x="1436" y="-7.5" font-family="Helvetica,sans-Serif" font-size="10.00">cassert</text>
</a>
</g>
</g>
<!-- Node23&#45;&gt;Node24 -->
<g id="edge27" class="edge">
<title>Node23&#45;&gt;Node24</title>
<path fill="none" stroke="midnightblue" d="M827.07,-57.05C830.09,-56.67 833.08,-56.32 836,-56 1049.21,-32.56 1306.4,-17.77 1399.85,-12.84"/>
<polygon fill="midnightblue" stroke="midnightblue" points="1400.11,-16.33 1409.92,-12.31 1399.75,-9.34 1400.11,-16.33"/>
</g>
<!-- Node25&#45;&gt;Node21 -->
<g id="edge31" class="edge">
<title>Node25&#45;&gt;Node21</title>
<path fill="none" stroke="midnightblue" d="M480.77,-56.44C441.73,-46.68 378.06,-30.76 337.37,-20.59"/>
<polygon fill="midnightblue" stroke="midnightblue" points="338.1,-17.17 327.55,-18.14 336.4,-23.96 338.1,-17.17"/>
</g>
<!-- Node26 -->
<g id="node26" class="node">
<title>Node26</title>
<g id="a_node26"><a xlink:title=" ">
<polygon fill="none" stroke="#bfbfbf" points="393,-0.5 393,-19.5 443,-19.5 443,-0.5 393,-0.5"/>
<text text-anchor="middle" x="418" y="-7.5" font-family="Helvetica,sans-Serif" font-size="10.00">cstdint</text>
</a>
</g>
</g>
<!-- Node25&#45;&gt;Node26 -->
<g id="edge29" class="edge">
<title>Node25&#45;&gt;Node26</title>
<path fill="none" stroke="midnightblue" d="M499.42,-56.32C484,-47.74 460.19,-34.49 442.29,-24.52"/>
<polygon fill="midnightblue" stroke="midnightblue" points="443.99,-21.46 433.55,-19.65 440.58,-27.58 443.99,-21.46"/>
</g>
<!-- Node27 -->
<g id="node27" class="node">
<title>Node27</title>
<g id="a_node27"><a xlink:title=" ">
<polygon fill="none" stroke="#bfbfbf" points="461,-0.5 461,-19.5 505,-19.5 505,-0.5 461,-0.5"/>
<text text-anchor="middle" x="483" y="-7.5" font-family="Helvetica,sans-Serif" font-size="10.00">limits</text>
</a>
</g>
</g>
<!-- Node25&#45;&gt;Node27 -->
<g id="edge30" class="edge">
<title>Node25&#45;&gt;Node27</title>
<path fill="none" stroke="midnightblue" d="M509.72,-56.08C505.29,-48.61 498.84,-37.72 493.38,-28.52"/>
<polygon fill="midnightblue" stroke="midnightblue" points="496.29,-26.57 488.19,-19.75 490.27,-30.14 496.29,-26.57"/>
</g>
<!-- Node28 -->
<g id="node28" class="node">
<title>Node28</title>
<g id="a_node28"><a xlink:title=" ">
<polygon fill="none" stroke="#bfbfbf" points="823.5,-0.5 823.5,-19.5 892.5,-19.5 892.5,-0.5 823.5,-0.5"/>
<text text-anchor="middle" x="858" y="-7.5" font-family="Helvetica,sans-Serif" font-size="10.00">type_traits</text>
</a>
</g>
</g>
<!-- Node25&#45;&gt;Node28 -->
<g id="edge32" class="edge">
<title>Node25&#45;&gt;Node28</title>
<path fill="none" stroke="midnightblue" d="M566.72,-56.86C633.73,-46.31 749.48,-28.09 813.02,-18.08"/>
<polygon fill="midnightblue" stroke="midnightblue" points="813.79,-21.5 823.13,-16.49 812.7,-14.59 813.79,-21.5"/>
</g>
<!-- Node29 -->
<g id="node29" class="node">
<title>Node29</title>
<g id="a_node29"><a xlink:title=" ">
<polygon fill="none" stroke="#bfbfbf" points="523.5,-0.5 523.5,-19.5 570.5,-19.5 570.5,-0.5 523.5,-0.5"/>
<text text-anchor="middle" x="547" y="-7.5" font-family="Helvetica,sans-Serif" font-size="10.00">cmath</text>
</a>
</g>
</g>
<!-- Node25&#45;&gt;Node29 -->
<g id="edge33" class="edge">
<title>Node25&#45;&gt;Node29</title>
<path fill="none" stroke="midnightblue" d="M520.28,-56.08C524.71,-48.61 531.16,-37.72 536.62,-28.52"/>
<polygon fill="midnightblue" stroke="midnightblue" points="539.73,-30.14 541.81,-19.75 533.71,-26.57 539.73,-30.14"/>
</g>
<!-- Node30 -->
<g id="node30" class="node">
<title>Node30</title>
<g id="a_node30"><a xlink:title=" ">
<polygon fill="none" stroke="#bfbfbf" points="589,-0.5 589,-19.5 645,-19.5 645,-0.5 589,-0.5"/>
<text text-anchor="middle" x="617" y="-7.5" font-family="Helvetica,sans-Serif" font-size="10.00">half.hpp</text>
</a>
</g>
</g>
<!-- Node25&#45;&gt;Node30 -->
<g id="edge34" class="edge">
<title>Node25&#45;&gt;Node30</title>
<path fill="none" stroke="midnightblue" d="M531.39,-56.32C547.67,-47.7 572.87,-34.36 591.72,-24.39"/>
<polygon fill="midnightblue" stroke="midnightblue" points="593.45,-27.43 600.65,-19.65 590.18,-21.24 593.45,-27.43"/>
</g>
<!-- Node31&#45;&gt;Node14 -->
<g id="edge45" class="edge">
<title>Node31&#45;&gt;Node14</title>
<path fill="none" stroke="midnightblue" d="M1228.21,-117.96C1219.04,-115.9 1209.17,-113.77 1200,-112 1100.56,-92.8 1074.34,-95.68 975,-76 973.55,-75.71 972.06,-75.41 970.56,-75.09"/>
<polygon fill="midnightblue" stroke="midnightblue" points="971.18,-71.64 960.66,-72.89 969.66,-78.48 971.18,-71.64"/>
</g>
<!-- Node31&#45;&gt;Node22 -->
<g id="edge43" class="edge">
<title>Node31&#45;&gt;Node22</title>
<path fill="none" stroke="midnightblue" d="M1229.25,-117.95C1219.8,-115.81 1209.54,-113.66 1200,-112 1069.87,-89.38 1034.79,-100.5 905,-76 904.9,-75.98 904.8,-75.96 904.7,-75.94"/>
<polygon fill="midnightblue" stroke="midnightblue" points="905.66,-72.57 895.15,-73.88 904.19,-79.41 905.66,-72.57"/>
</g>
<!-- Node31&#45;&gt;Node24 -->
<g id="edge36" class="edge">
<title>Node31&#45;&gt;Node24</title>
<path fill="none" stroke="midnightblue" d="M1314.1,-121.96C1347.51,-116.36 1390.08,-103.86 1417,-76 1428.86,-63.72 1433.38,-44.47 1435.07,-30.09"/>
<polygon fill="midnightblue" stroke="midnightblue" points="1438.58,-30.09 1435.9,-19.84 1431.6,-29.52 1438.58,-30.09"/>
</g>
<!-- Node31&#45;&gt;Node28 -->
<g id="edge44" class="edge">
<title>Node31&#45;&gt;Node28</title>
<path fill="none" stroke="midnightblue" d="M1227.5,-117.99C1218.52,-115.96 1208.92,-113.85 1200,-112 1115.42,-94.45 1090.72,-104 1009,-76 990.57,-69.69 987.72,-64.08 970,-56 943.59,-43.95 912.98,-31.77 890.43,-23.12"/>
<polygon fill="midnightblue" stroke="midnightblue" points="891.59,-19.82 881,-19.53 889.1,-26.36 891.59,-19.82"/>
</g>
<!-- Node32 -->
<g id="node32" class="node">
<title>Node32</title>
<g id="a_node32"><a xlink:title=" ">
<polygon fill="none" stroke="#bfbfbf" points="1272.5,-56.5 1272.5,-75.5 1325.5,-75.5 1325.5,-56.5 1272.5,-56.5"/>
<text text-anchor="middle" x="1299" y="-63.5" font-family="Helvetica,sans-Serif" font-size="10.00">cstddef</text>
</a>
</g>
</g>
<!-- Node31&#45;&gt;Node32 -->
<g id="edge37" class="edge">
<title>Node31&#45;&gt;Node32</title>
<path fill="none" stroke="midnightblue" d="M1269.01,-117.98C1274.16,-109.23 1282.31,-95.37 1288.82,-84.31"/>
<polygon fill="midnightblue" stroke="midnightblue" points="1291.94,-85.9 1293.99,-75.51 1285.91,-82.35 1291.94,-85.9"/>
</g>
<!-- Node33 -->
<g id="node33" class="node">
<title>Node33</title>
<g id="a_node33"><a xlink:title=" ">
<polygon fill="none" stroke="#bfbfbf" points="1464,-56.5 1464,-75.5 1514,-75.5 1514,-56.5 1464,-56.5"/>
<text text-anchor="middle" x="1489" y="-63.5" font-family="Helvetica,sans-Serif" font-size="10.00">cstring</text>
</a>
</g>
</g>
<!-- Node31&#45;&gt;Node33 -->
<g id="edge38" class="edge">
<title>Node31&#45;&gt;Node33</title>
<path fill="none" stroke="midnightblue" d="M1296.24,-117.98C1338.08,-106.91 1410.85,-87.67 1454.01,-76.25"/>
<polygon fill="midnightblue" stroke="midnightblue" points="1455.01,-79.61 1463.78,-73.67 1453.22,-72.84 1455.01,-79.61"/>
</g>
<!-- Node34 -->
<g id="node34" class="node">
<title>Node34</title>
<g id="a_node34"><a xlink:title=" ">
<polygon fill="none" stroke="#bfbfbf" points="1344,-56.5 1344,-75.5 1408,-75.5 1408,-56.5 1344,-56.5"/>
<text text-anchor="middle" x="1376" y="-63.5" font-family="Helvetica,sans-Serif" font-size="10.00">algorithm</text>
</a>
</g>
</g>
<!-- Node31&#45;&gt;Node34 -->
<g id="edge39" class="edge">
<title>Node31&#45;&gt;Node34</title>
<path fill="none" stroke="midnightblue" d="M1280.05,-117.98C1298.59,-108.12 1329.34,-91.79 1351.02,-80.27"/>
<polygon fill="midnightblue" stroke="midnightblue" points="1352.79,-83.29 1359.98,-75.51 1349.51,-77.11 1352.79,-83.29"/>
</g>
<!-- Node35 -->
<g id="node35" class="node">
<title>Node35</title>
<g id="a_node35"><a xlink:title=" ">
<polygon fill="none" stroke="#bfbfbf" points="1017.5,-56.5 1017.5,-75.5 1082.5,-75.5 1082.5,-56.5 1017.5,-56.5"/>
<text text-anchor="middle" x="1050" y="-63.5" font-family="Helvetica,sans-Serif" font-size="10.00">functional</text>
</a>
</g>
</g>
<!-- Node31&#45;&gt;Node35 -->
<g id="edge40" class="edge">
<title>Node31&#45;&gt;Node35</title>
<path fill="none" stroke="midnightblue" d="M1233.34,-117.98C1195.76,-107.53 1131.96,-89.79 1090.4,-78.23"/>
<polygon fill="midnightblue" stroke="midnightblue" points="1091.18,-74.82 1080.6,-75.51 1089.3,-81.56 1091.18,-74.82"/>
</g>
<!-- Node36 -->
<g id="node36" class="node">
<title>Node36</title>
<g id="a_node36"><a xlink:title=" ">
<polygon fill="none" stroke="#bfbfbf" points="1100.5,-56.5 1100.5,-75.5 1183.5,-75.5 1183.5,-56.5 1100.5,-56.5"/>
<text text-anchor="middle" x="1142" y="-63.5" font-family="Helvetica,sans-Serif" font-size="10.00">initializer_list</text>
</a>
</g>
</g>
<!-- Node31&#45;&gt;Node36 -->
<g id="edge41" class="edge">
<title>Node31&#45;&gt;Node36</title>
<path fill="none" stroke="midnightblue" d="M1246.52,-117.98C1226.14,-108.03 1192.22,-91.49 1168.58,-79.96"/>
<polygon fill="midnightblue" stroke="midnightblue" points="1169.97,-76.75 1159.45,-75.51 1166.9,-83.04 1169.97,-76.75"/>
</g>
<!-- Node37 -->
<g id="node37" class="node">
<title>Node37</title>
<g id="a_node37"><a xlink:title=" ">
<polygon fill="none" stroke="#bfbfbf" points="1201.5,-56.5 1201.5,-75.5 1254.5,-75.5 1254.5,-56.5 1201.5,-56.5"/>
<text text-anchor="middle" x="1228" y="-63.5" font-family="Helvetica,sans-Serif" font-size="10.00">iterator</text>
</a>
</g>
</g>
<!-- Node31&#45;&gt;Node37 -->
<g id="edge42" class="edge">
<title>Node31&#45;&gt;Node37</title>
<path fill="none" stroke="midnightblue" d="M1258.84,-117.98C1253.55,-109.23 1245.16,-95.37 1238.47,-84.31"/>
<polygon fill="midnightblue" stroke="midnightblue" points="1241.32,-82.25 1233.15,-75.51 1235.33,-85.88 1241.32,-82.25"/>
</g>
<!-- Node38&#45;&gt;Node24 -->
<g id="edge47" class="edge">
<title>Node38&#45;&gt;Node24</title>
<path fill="none" stroke="midnightblue" d="M1498.64,-117.98C1512.75,-104.43 1536,-77.36 1523,-56 1511.91,-37.78 1490.8,-26.61 1472.15,-19.95"/>
<polygon fill="midnightblue" stroke="midnightblue" points="1472.99,-16.55 1462.4,-16.79 1470.83,-23.21 1472.99,-16.55"/>
</g>
<!-- Node38&#45;&gt;Node33 -->
<g id="edge48" class="edge">
<title>Node38&#45;&gt;Node33</title>
<path fill="none" stroke="midnightblue" d="M1489,-117.98C1489,-109.58 1489,-96.48 1489,-85.66"/>
<polygon fill="midnightblue" stroke="midnightblue" points="1492.5,-85.51 1489,-75.51 1485.5,-85.51 1492.5,-85.51"/>
</g>
<!-- Node39&#45;&gt;Node4 -->
<g id="edge51" class="edge">
<title>Node39&#45;&gt;Node4</title>
<path fill="none" stroke="midnightblue" d="M707.97,-179.48C698.24,-170.28 682.54,-155.46 670.58,-144.16"/>
<polygon fill="midnightblue" stroke="midnightblue" points="672.68,-141.33 663.01,-137.01 667.88,-146.42 672.68,-141.33"/>
</g>
<!-- Node39&#45;&gt;Node16 -->
<g id="edge52" class="edge">
<title>Node39&#45;&gt;Node16</title>
<path fill="none" stroke="midnightblue" d="M674.3,-179.47C632.8,-171.1 567.75,-157.76 502.3,-143.26"/>
<polygon fill="midnightblue" stroke="midnightblue" points="502.74,-139.77 492.22,-141.01 501.22,-146.6 502.74,-139.77"/>
</g>
<!-- Node39&#45;&gt;Node17 -->
<g id="edge53" class="edge">
<title>Node39&#45;&gt;Node17</title>
<path fill="none" stroke="midnightblue" d="M694.79,-179.48C672.23,-170.81 636.62,-157.15 607.96,-146.14"/>
<polygon fill="midnightblue" stroke="midnightblue" points="609.12,-142.84 598.53,-142.52 606.61,-149.37 609.12,-142.84"/>
</g>
<!-- Node40 -->
<g id="node40" class="node">
<title>Node40</title>
<g id="a_node40"><a xlink:title=" ">
<polygon fill="none" stroke="#bfbfbf" points="693.5,-118 693.5,-137 740.5,-137 740.5,-118 693.5,-118"/>
<text text-anchor="middle" x="717" y="-125" font-family="Helvetica,sans-Serif" font-size="10.00">queue</text>
</a>
</g>
</g>
<!-- Node39&#45;&gt;Node40 -->
<g id="edge50" class="edge">
<title>Node39&#45;&gt;Node40</title>
<path fill="none" stroke="midnightblue" d="M717,-179.48C717,-171.08 717,-157.98 717,-147.16"/>
<polygon fill="midnightblue" stroke="midnightblue" points="720.5,-147.01 717,-137.01 713.5,-147.01 720.5,-147.01"/>
</g>
<!-- Node41 -->
<g id="node41" class="node">
<title>Node41</title>
<g id="a_node41"><a xlink:title=" ">
<polygon fill="none" stroke="#bfbfbf" points="758.5,-112.5 758.5,-142.5 871.5,-142.5 871.5,-112.5 758.5,-112.5"/>
<text text-anchor="start" x="766.5" y="-130.5" font-family="Helvetica,sans-Serif" font-size="10.00">absl/container/node</text>
<text text-anchor="middle" x="815" y="-119.5" font-family="Helvetica,sans-Serif" font-size="10.00">_hash_map.h</text>
</a>
</g>
</g>
<!-- Node39&#45;&gt;Node41 -->
<g id="edge54" class="edge">
<title>Node39&#45;&gt;Node41</title>
<path fill="none" stroke="midnightblue" d="M731.04,-179.48C744.56,-171.27 765.49,-158.56 783.07,-147.88"/>
<polygon fill="midnightblue" stroke="midnightblue" points="785.17,-150.7 791.9,-142.52 781.54,-144.72 785.17,-150.7"/>
</g>
<!-- Node42 -->
<g id="node42" class="node">
<title>Node42</title>
<g id="a_node42"><a xlink:title=" ">
<polygon fill="none" stroke="#bfbfbf" points="889.5,-112.5 889.5,-142.5 1002.5,-142.5 1002.5,-112.5 889.5,-112.5"/>
<text text-anchor="start" x="897.5" y="-130.5" font-family="Helvetica,sans-Serif" font-size="10.00">absl/container/node</text>
<text text-anchor="middle" x="946" y="-119.5" font-family="Helvetica,sans-Serif" font-size="10.00">_hash_set.h</text>
</a>
</g>
</g>
<!-- Node39&#45;&gt;Node42 -->
<g id="edge55" class="edge">
<title>Node39&#45;&gt;Node42</title>
<path fill="none" stroke="midnightblue" d="M749.81,-179.48C784.23,-170.53 839.2,-156.25 882.21,-145.07"/>
<polygon fill="midnightblue" stroke="midnightblue" points="883.23,-148.43 892.03,-142.52 881.47,-141.65 883.23,-148.43"/>
</g>
<!-- Node39&#45;&gt;Node43 -->
<g id="edge56" class="edge">
<title>Node39&#45;&gt;Node43</title>
<path fill="none" stroke="midnightblue" d="M777.74,-180.43C837.59,-172.56 931.49,-159.17 1012,-143 1017.34,-141.93 1022.93,-140.68 1028.45,-139.39"/>
<polygon fill="midnightblue" stroke="midnightblue" points="1029.32,-142.78 1038.21,-137.02 1027.67,-135.97 1029.32,-142.78"/>
</g>
<!-- Node43&#45;&gt;Node25 -->
<g id="edge57" class="edge">
<title>Node43&#45;&gt;Node25</title>
<path fill="none" stroke="midnightblue" d="M1039.48,-117.93C1030.67,-115.71 1021.01,-113.52 1012,-112 856.8,-85.74 671.55,-74.09 577.09,-69.53"/>
<polygon fill="midnightblue" stroke="midnightblue" points="577.01,-66.03 566.85,-69.05 576.68,-73.02 577.01,-66.03"/>
</g>
<!-- Node45&#45;&gt;Node6 -->
<g id="edge64" class="edge">
<title>Node45&#45;&gt;Node6</title>
<path fill="none" stroke="midnightblue" d="M217.53,-235.45C195.77,-228.03 165.75,-215.83 143,-199 116.65,-179.5 110.04,-172.12 95,-143 85.66,-124.91 80.74,-102 78.28,-86.08"/>
<polygon fill="midnightblue" stroke="midnightblue" points="81.71,-85.33 76.88,-75.9 74.77,-86.28 81.71,-85.33"/>
</g>
<!-- Node45&#45;&gt;Node15 -->
<g id="edge66" class="edge">
<title>Node45&#45;&gt;Node15</title>
<path fill="none" stroke="midnightblue" d="M283.71,-235.44C325.14,-226.04 391.76,-210.93 436.67,-200.74"/>
<polygon fill="midnightblue" stroke="midnightblue" points="437.49,-204.14 446.46,-198.52 435.94,-197.32 437.49,-204.14"/>
</g>
<!-- Node45&#45;&gt;Node19 -->
<g id="edge67" class="edge">
<title>Node45&#45;&gt;Node19</title>
<path fill="none" stroke="midnightblue" d="M245.92,-235.32C245.76,-216.76 245.38,-172.84 245.16,-147.47"/>
<polygon fill="midnightblue" stroke="midnightblue" points="248.66,-147.25 245.08,-137.28 241.66,-147.31 248.66,-147.25"/>
</g>
<!-- Node46 -->
<g id="node46" class="node">
<title>Node46</title>
<g id="a_node46"><a xlink:title=" ">
<polygon fill="none" stroke="#bfbfbf" points="152.5,-179.5 152.5,-198.5 217.5,-198.5 217.5,-179.5 152.5,-179.5"/>
<text text-anchor="middle" x="185" y="-186.5" font-family="Helvetica,sans-Serif" font-size="10.00">stdexcept</text>
</a>
</g>
</g>
<!-- Node45&#45;&gt;Node46 -->
<g id="edge65" class="edge">
<title>Node45&#45;&gt;Node46</title>
<path fill="none" stroke="midnightblue" d="M236.2,-235.32C227.18,-227.34 213.59,-215.31 202.68,-205.65"/>
<polygon fill="midnightblue" stroke="midnightblue" points="204.79,-202.84 194.98,-198.83 200.15,-208.08 204.79,-202.84"/>
</g>
<!-- Node47&#45;&gt;Node12 -->
<g id="edge69" class="edge">
<title>Node47&#45;&gt;Node12</title>
<path fill="none" stroke="midnightblue" d="M699.47,-291.08C702.31,-283.77 706.43,-273.18 709.96,-264.1"/>
<polygon fill="midnightblue" stroke="midnightblue" points="713.23,-265.34 713.6,-254.75 706.71,-262.8 713.23,-265.34"/>
</g>
<!-- Node48&#45;&gt;Node12 -->
<g id="edge71" class="edge">
<title>Node48&#45;&gt;Node12</title>
<path fill="none" stroke="midnightblue" d="M578.99,-291.44C606.7,-282.32 650.75,-267.81 681.62,-257.65"/>
<polygon fill="midnightblue" stroke="midnightblue" points="682.73,-260.97 691.14,-254.52 680.54,-254.32 682.73,-260.97"/>
</g>
<!-- Node49&#45;&gt;Node3 -->
<g id="edge74" class="edge">
<title>Node49&#45;&gt;Node3</title>
<path fill="none" stroke="midnightblue" d="M553,-515.4C553,-507.47 553,-497.46 553,-488.86"/>
<polygon fill="midnightblue" stroke="midnightblue" points="556.5,-488.66 553,-478.66 549.5,-488.66 556.5,-488.66"/>
</g>
<!-- Node50&#45;&gt;Node3 -->
<g id="edge76" class="edge">
<title>Node50&#45;&gt;Node3</title>
<path fill="none" stroke="midnightblue" d="M646.85,-515.4C626.58,-505.59 599.76,-492.62 579.98,-483.05"/>
<polygon fill="midnightblue" stroke="midnightblue" points="581.42,-479.86 570.9,-478.66 578.38,-486.16 581.42,-479.86"/>
</g>
</g>
</svg>
