<?xml version="1.0" encoding="UTF-8" standalone="no"?>
<!DOCTYPE svg PUBLIC "-//W3C//DTD SVG 1.1//EN"
 "http://www.w3.org/Graphics/SVG/1.1/DTD/svg11.dtd">
<!-- Generated by graphviz version 2.43.0 (0)
 -->
<!-- Title: include/mim/ast/tok.h Pages: 1 -->
<svg width="1774pt" height="258pt"
 viewBox="0.00 0.00 1773.50 258.00" xmlns="http://www.w3.org/2000/svg" xmlns:xlink="http://www.w3.org/1999/xlink">
<g id="graph0" class="graph" transform="scale(1 1) rotate(0) translate(4 254)">
<title>include/mim/ast/tok.h</title>
<!-- Node1 -->
<g id="Node000001" class="node">
<title>Node1</title>
<g id="a_Node000001"><a xlink:title=" ">
<polygon fill="#999999" stroke="#666666" points="624,-250 501,-250 501,-231 624,-231 624,-250"/>
<text text-anchor="middle" x="562.5" y="-238" font-family="Helvetica,sans-Serif" font-size="10.00">include/mim/ast/tok.h</text>
</a>
</g>
</g>
<!-- Node2 -->
<g id="Node000002" class="node">
<title>Node2</title>
<g id="a_Node000002"><a xlink:href="ast_8h.html" target="_top" xlink:title=" ">
<polygon fill="white" stroke="#666666" points="472.5,-134.5 350.5,-134.5 350.5,-115.5 472.5,-115.5 472.5,-134.5"/>
<text text-anchor="middle" x="411.5" y="-122.5" font-family="Helvetica,sans-Serif" font-size="10.00">include/mim/ast/ast.h</text>
</a>
</g>
</g>
<!-- Node1&#45;&gt;Node2 -->
<g id="edge1_Node000001_Node000002" class="edge">
<title>Node1&#45;&gt;Node2</title>
<g id="a_edge1_Node000001_Node000002"><a xlink:title=" ">
<path fill="none" stroke="#63b8ff" d="M543.02,-224.85C511.11,-200.87 448.69,-153.95 422.98,-134.63"/>
<polygon fill="#63b8ff" stroke="#63b8ff" points="541.05,-227.76 551.15,-230.97 545.26,-222.16 541.05,-227.76"/>
</a>
</g>
</g>
<!-- Node11 -->
<g id="Node000011" class="node">
<title>Node11</title>
<g id="a_Node000011"><a xlink:href="lexer_8h.html" target="_top" xlink:title=" ">
<polygon fill="white" stroke="#666666" points="312,-134.5 181,-134.5 181,-115.5 312,-115.5 312,-134.5"/>
<text text-anchor="middle" x="246.5" y="-122.5" font-family="Helvetica,sans-Serif" font-size="10.00">include/mim/ast/lexer.h</text>
</a>
</g>
</g>
<!-- Node1&#45;&gt;Node11 -->
<g id="edge11_Node000001_Node000011" class="edge">
<title>Node1&#45;&gt;Node11</title>
<g id="a_edge11_Node000001_Node000011"><a xlink:title=" ">
<path fill="none" stroke="#63b8ff" d="M529.14,-227.52C465.11,-204.52 326.39,-154.69 270.53,-134.63"/>
<polygon fill="#63b8ff" stroke="#63b8ff" points="528.15,-230.88 538.75,-230.97 530.52,-224.29 528.15,-230.88"/>
</a>
</g>
</g>
<!-- Node12 -->
<g id="Node000012" class="node">
<title>Node12</title>
<g id="a_Node000012"><a xlink:href="driver_8h.html" target="_top" xlink:title=" ">
<polygon fill="white" stroke="#666666" points="907,-195 790,-195 790,-176 907,-176 907,-195"/>
<text text-anchor="middle" x="848.5" y="-183" font-family="Helvetica,sans-Serif" font-size="10.00">include/mim/driver.h</text>
</a>
</g>
</g>
<!-- Node1&#45;&gt;Node12 -->
<g id="edge14_Node000001_Node000012" class="edge">
<title>Node1&#45;&gt;Node12</title>
<g id="a_edge14_Node000001_Node000012"><a xlink:title=" ">
<path fill="none" stroke="#63b8ff" d="M618.47,-229.13C672.09,-219.19 752.05,-204.37 802.19,-195.08"/>
<polygon fill="#63b8ff" stroke="#63b8ff" points="617.65,-225.72 608.45,-230.98 618.92,-232.6 617.65,-225.72"/>
</a>
</g>
</g>
<!-- Node14 -->
<g id="Node000014" class="node">
<title>Node14</title>
<g id="a_Node000014"><a xlink:href="dump_8cpp.html" target="_top" xlink:title=" ">
<polygon fill="white" stroke="#666666" points="616,-134.5 509,-134.5 509,-115.5 616,-115.5 616,-134.5"/>
<text text-anchor="middle" x="562.5" y="-122.5" font-family="Helvetica,sans-Serif" font-size="10.00">src/mim/dump.cpp</text>
</a>
</g>
</g>
<!-- Node1&#45;&gt;Node14 -->
<g id="edge28_Node000001_Node000014" class="edge">
<title>Node1&#45;&gt;Node14</title>
<g id="a_edge28_Node000001_Node000014"><a xlink:title=" ">
<path fill="none" stroke="#63b8ff" d="M562.5,-220.65C562.5,-195.74 562.5,-152.88 562.5,-134.63"/>
<polygon fill="#63b8ff" stroke="#63b8ff" points="559,-220.97 562.5,-230.97 566,-220.97 559,-220.97"/>
</a>
</g>
</g>
<!-- Node22 -->
<g id="Node000022" class="node">
<title>Node22</title>
<g id="a_Node000022"><a xlink:href="tok_8cpp.html" target="_top" xlink:title=" ">
<polygon fill="white" stroke="#666666" points="1038,-195 925,-195 925,-176 1038,-176 1038,-195"/>
<text text-anchor="middle" x="981.5" y="-183" font-family="Helvetica,sans-Serif" font-size="10.00">src/mim/ast/tok.cpp</text>
</a>
</g>
</g>
<!-- Node1&#45;&gt;Node22 -->
<g id="edge27_Node000001_Node000022" class="edge">
<title>Node1&#45;&gt;Node22</title>
<g id="a_edge27_Node000001_Node000022"><a xlink:title=" ">
<path fill="none" stroke="#63b8ff" d="M634.47,-230.56C706.01,-221.65 818.85,-207.52 916.5,-195 919.21,-194.65 921.98,-194.3 924.78,-193.93"/>
<polygon fill="#63b8ff" stroke="#63b8ff" points="633.71,-227.13 624.22,-231.84 634.58,-234.07 633.71,-227.13"/>
</a>
</g>
</g>
<!-- Node3 -->
<g id="Node000003" class="node">
<title>Node3</title>
<g id="a_Node000003"><a xlink:href="parser_8h.html" target="_top" xlink:title=" ">
<polygon fill="white" stroke="#666666" points="315,-74 178,-74 178,-55 315,-55 315,-74"/>
<text text-anchor="middle" x="246.5" y="-62" font-family="Helvetica,sans-Serif" font-size="10.00">include/mim/ast/parser.h</text>
</a>
</g>
</g>
<!-- Node2&#45;&gt;Node3 -->
<g id="edge2_Node000002_Node000003" class="edge">
<title>Node2&#45;&gt;Node3</title>
<g id="a_edge2_Node000002_Node000003"><a xlink:title=" ">
<path fill="none" stroke="#63b8ff" d="M377.72,-112.02C345.82,-100.71 298.76,-84.03 270.52,-74.02"/>
<polygon fill="#63b8ff" stroke="#63b8ff" points="376.91,-115.45 387.51,-115.49 379.25,-108.85 376.91,-115.45"/>
</a>
</g>
</g>
<!-- Node4 -->
<g id="Node000004" class="node">
<title>Node4</title>
<g id="a_Node000004"><a xlink:href="ast_8cpp.html" target="_top" xlink:title=" ">
<polygon fill="white" stroke="#666666" points="254,-19 141,-19 141,0 254,0 254,-19"/>
<text text-anchor="middle" x="197.5" y="-7" font-family="Helvetica,sans-Serif" font-size="10.00">src/mim/ast/ast.cpp</text>
</a>
</g>
</g>
<!-- Node2&#45;&gt;Node4 -->
<g id="edge6_Node000002_Node000004" class="edge">
<title>Node2&#45;&gt;Node4</title>
<g id="a_edge6_Node000002_Node000004"><a xlink:title=" ">
<path fill="none" stroke="#63b8ff" d="M352.12,-113.71C282.08,-101.29 174.35,-81.18 168.5,-74 154.56,-56.9 175.1,-32.02 188.14,-19.06"/>
<polygon fill="#63b8ff" stroke="#63b8ff" points="351.71,-117.19 362.16,-115.48 352.92,-110.3 351.71,-117.19"/>
</a>
</g>
</g>
<!-- Node7 -->
<g id="Node000007" class="node">
<title>Node7</title>
<g id="a_Node000007"><a xlink:href="bind_8cpp.html" target="_top" xlink:title=" ">
<polygon fill="white" stroke="#666666" points="741,-74 622,-74 622,-55 741,-55 741,-74"/>
<text text-anchor="middle" x="681.5" y="-62" font-family="Helvetica,sans-Serif" font-size="10.00">src/mim/ast/bind.cpp</text>
</a>
</g>
</g>
<!-- Node2&#45;&gt;Node7 -->
<g id="edge7_Node000002_Node000007" class="edge">
<title>Node2&#45;&gt;Node7</title>
<g id="a_edge7_Node000002_Node000007"><a xlink:title=" ">
<path fill="none" stroke="#63b8ff" d="M460.78,-113.32C512.93,-102.02 594.18,-84.42 642.19,-74.02"/>
<polygon fill="#63b8ff" stroke="#63b8ff" points="459.79,-109.96 450.76,-115.49 461.27,-116.8 459.79,-109.96"/>
</a>
</g>
</g>
<!-- Node8 -->
<g id="Node000008" class="node">
<title>Node8</title>
<g id="a_Node000008"><a xlink:href="emit_8cpp.html" target="_top" xlink:title=" ">
<polygon fill="white" stroke="#666666" points="453.5,-74 333.5,-74 333.5,-55 453.5,-55 453.5,-74"/>
<text text-anchor="middle" x="393.5" y="-62" font-family="Helvetica,sans-Serif" font-size="10.00">src/mim/ast/emit.cpp</text>
</a>
</g>
</g>
<!-- Node2&#45;&gt;Node8 -->
<g id="edge8_Node000002_Node000008" class="edge">
<title>Node2&#45;&gt;Node8</title>
<g id="a_edge8_Node000002_Node000008"><a xlink:title=" ">
<path fill="none" stroke="#63b8ff" d="M405.81,-105.49C402.58,-95.01 398.7,-82.39 396.17,-74.17"/>
<polygon fill="#63b8ff" stroke="#63b8ff" points="402.56,-106.84 408.84,-115.37 409.25,-104.78 402.56,-106.84"/>
</a>
</g>
</g>
<!-- Node9 -->
<g id="Node000009" class="node">
<title>Node9</title>
<g id="a_Node000009"><a xlink:href="lexer_8cpp.html" target="_top" xlink:title=" ">
<polygon fill="white" stroke="#666666" points="121,-74 0,-74 0,-55 121,-55 121,-74"/>
<text text-anchor="middle" x="60.5" y="-62" font-family="Helvetica,sans-Serif" font-size="10.00">src/mim/ast/lexer.cpp</text>
</a>
</g>
</g>
<!-- Node2&#45;&gt;Node9 -->
<g id="edge9_Node000002_Node000009" class="edge">
<title>Node2&#45;&gt;Node9</title>
<g id="a_edge9_Node000002_Node000009"><a xlink:title=" ">
<path fill="none" stroke="#63b8ff" d="M350.37,-113.81C282.73,-102.54 174.93,-84.57 111.6,-74.02"/>
<polygon fill="#63b8ff" stroke="#63b8ff" points="350.02,-117.3 360.46,-115.49 351.17,-110.4 350.02,-117.3"/>
</a>
</g>
</g>
<!-- Node10 -->
<g id="Node000010" class="node">
<title>Node10</title>
<g id="a_Node000010"><a xlink:href="stream_8cpp.html" target="_top" xlink:title=" ">
<polygon fill="white" stroke="#666666" points="603.5,-74 471.5,-74 471.5,-55 603.5,-55 603.5,-74"/>
<text text-anchor="middle" x="537.5" y="-62" font-family="Helvetica,sans-Serif" font-size="10.00">src/mim/ast/stream.cpp</text>
</a>
</g>
</g>
<!-- Node2&#45;&gt;Node10 -->
<g id="edge10_Node000002_Node000010" class="edge">
<title>Node2&#45;&gt;Node10</title>
<g id="a_edge10_Node000002_Node000010"><a xlink:title=" ">
<path fill="none" stroke="#63b8ff" d="M439.21,-111.13C463.51,-99.85 498.15,-83.77 519.16,-74.02"/>
<polygon fill="#63b8ff" stroke="#63b8ff" points="437.42,-108.11 429.82,-115.49 440.37,-114.46 437.42,-108.11"/>
</a>
</g>
</g>
<!-- Node3&#45;&gt;Node4 -->
<g id="edge3_Node000003_Node000004" class="edge">
<title>Node3&#45;&gt;Node4</title>
<g id="a_edge3_Node000003_Node000004"><a xlink:title=" ">
<path fill="none" stroke="#63b8ff" d="M231.47,-47.24C222.88,-37.95 212.46,-26.68 205.44,-19.09"/>
<polygon fill="#63b8ff" stroke="#63b8ff" points="229.05,-49.78 238.41,-54.75 234.19,-45.03 229.05,-49.78"/>
</a>
</g>
</g>
<!-- Node5 -->
<g id="Node000005" class="node">
<title>Node5</title>
<g id="a_Node000005"><a xlink:href="parser_8cpp.html" target="_top" xlink:title=" ">
<polygon fill="white" stroke="#666666" points="564.5,-19 436.5,-19 436.5,0 564.5,0 564.5,-19"/>
<text text-anchor="middle" x="500.5" y="-7" font-family="Helvetica,sans-Serif" font-size="10.00">src/mim/ast/parser.cpp</text>
</a>
</g>
</g>
<!-- Node3&#45;&gt;Node5 -->
<g id="edge4_Node000003_Node000005" class="edge">
<title>Node3&#45;&gt;Node5</title>
<g id="a_edge4_Node000003_Node000005"><a xlink:title=" ">
<path fill="none" stroke="#63b8ff" d="M297.11,-52.94C344.72,-43.01 415.12,-28.31 459.37,-19.08"/>
<polygon fill="#63b8ff" stroke="#63b8ff" points="296.38,-49.52 287.31,-54.98 297.81,-56.37 296.38,-49.52"/>
</a>
</g>
</g>
<!-- Node6 -->
<g id="Node000006" class="node">
<title>Node6</title>
<g id="a_Node000006"><a xlink:href="main_8cpp.html" target="_top" xlink:title=" ">
<polygon fill="white" stroke="#666666" points="784,-19 665,-19 665,0 784,0 784,-19"/>
<text text-anchor="middle" x="724.5" y="-7" font-family="Helvetica,sans-Serif" font-size="10.00">src/mim/cli/main.cpp</text>
</a>
</g>
</g>
<!-- Node3&#45;&gt;Node6 -->
<g id="edge5_Node000003_Node000006" class="edge">
<title>Node3&#45;&gt;Node6</title>
<g id="a_edge5_Node000003_Node000006"><a xlink:title=" ">
<path fill="none" stroke="#63b8ff" d="M325.41,-54.75C420.78,-44.18 579.12,-26.62 664.89,-17.11"/>
<polygon fill="#63b8ff" stroke="#63b8ff" points="324.79,-51.3 315.24,-55.88 325.56,-58.25 324.79,-51.3"/>
</a>
</g>
</g>
<!-- Node11&#45;&gt;Node3 -->
<g id="edge12_Node000011_Node000003" class="edge">
<title>Node11&#45;&gt;Node3</title>
<g id="a_edge12_Node000011_Node000003"><a xlink:title=" ">
<path fill="none" stroke="#63b8ff" d="M246.5,-105.16C246.5,-94.74 246.5,-82.3 246.5,-74.17"/>
<polygon fill="#63b8ff" stroke="#63b8ff" points="243,-105.37 246.5,-115.37 250,-105.37 243,-105.37"/>
</a>
</g>
</g>
<!-- Node11&#45;&gt;Node9 -->
<g id="edge13_Node000011_Node000009" class="edge">
<title>Node11&#45;&gt;Node9</title>
<g id="a_edge13_Node000011_Node000009"><a xlink:title=" ">
<path fill="none" stroke="#63b8ff" d="M209.82,-112.46C173.84,-101.15 119.83,-84.16 87.58,-74.02"/>
<polygon fill="#63b8ff" stroke="#63b8ff" points="208.86,-115.83 219.45,-115.49 210.96,-109.15 208.86,-115.83"/>
</a>
</g>
</g>
<!-- Node12&#45;&gt;Node2 -->
<g id="edge15_Node000012_Node000002" class="edge">
<title>Node12&#45;&gt;Node2</title>
<g id="a_edge15_Node000012_Node000002"><a xlink:title=" ">
<path fill="none" stroke="#63b8ff" d="M779.88,-176.32C709.64,-167.8 597.34,-153.81 500.5,-140 488.73,-138.32 476.11,-136.41 464.17,-134.54"/>
<polygon fill="#63b8ff" stroke="#63b8ff" points="779.59,-179.81 789.94,-177.53 780.43,-172.86 779.59,-179.81"/>
</a>
</g>
</g>
<!-- Node12&#45;&gt;Node5 -->
<g id="edge16_Node000012_Node000005" class="edge">
<title>Node12&#45;&gt;Node5</title>
<g id="a_edge16_Node000012_Node000005"><a xlink:title=" ">
<path fill="none" stroke="#63b8ff" d="M833.14,-168.47C825.47,-160.2 816.2,-149.81 808.5,-140 780.26,-104.02 788.9,-79.84 750.5,-55 720.52,-35.61 628.37,-22.94 564.74,-16.25"/>
<polygon fill="#63b8ff" stroke="#63b8ff" points="830.77,-171.05 840.17,-175.94 835.87,-166.26 830.77,-171.05"/>
</a>
</g>
</g>
<!-- Node12&#45;&gt;Node6 -->
<g id="edge17_Node000012_Node000006" class="edge">
<title>Node12&#45;&gt;Node6</title>
<g id="a_edge17_Node000012_Node000006"><a xlink:title=" ">
<path fill="none" stroke="#63b8ff" d="M840.05,-166.54C824.28,-133.22 791.27,-64.32 783.5,-55 771.01,-40.02 752.55,-27.14 739.62,-19.15"/>
<polygon fill="#63b8ff" stroke="#63b8ff" points="836.91,-168.09 844.34,-175.64 843.24,-165.1 836.91,-168.09"/>
</a>
</g>
</g>
<!-- Node13 -->
<g id="Node000013" class="node">
<title>Node13</title>
<g id="a_Node000013"><a xlink:href="driver_8cpp.html" target="_top" xlink:title=" ">
<polygon fill="white" stroke="#666666" points="943,-134.5 836,-134.5 836,-115.5 943,-115.5 943,-134.5"/>
<text text-anchor="middle" x="889.5" y="-122.5" font-family="Helvetica,sans-Serif" font-size="10.00">src/mim/driver.cpp</text>
</a>
</g>
</g>
<!-- Node12&#45;&gt;Node13 -->
<g id="edge18_Node000012_Node000013" class="edge">
<title>Node12&#45;&gt;Node13</title>
<g id="a_edge18_Node000012_Node000013"><a xlink:title=" ">
<path fill="none" stroke="#63b8ff" d="M860.32,-167.63C867.88,-156.85 877.36,-143.32 883.43,-134.67"/>
<polygon fill="#63b8ff" stroke="#63b8ff" points="857.42,-165.67 854.55,-175.87 863.16,-169.69 857.42,-165.67"/>
</a>
</g>
</g>
<!-- Node12&#45;&gt;Node14 -->
<g id="edge19_Node000012_Node000014" class="edge">
<title>Node12&#45;&gt;Node14</title>
<g id="a_edge19_Node000012_Node000014"><a xlink:title=" ">
<path fill="none" stroke="#63b8ff" d="M794.13,-173.99C748.94,-165.18 682.96,-152.12 625.5,-140 617.39,-138.29 608.7,-136.4 600.45,-134.57"/>
<polygon fill="#63b8ff" stroke="#63b8ff" points="793.53,-177.44 804.02,-175.92 794.87,-170.57 793.53,-177.44"/>
</a>
</g>
</g>
<!-- Node15 -->
<g id="Node000015" class="node">
<title>Node15</title>
<g id="a_Node000015"><a xlink:href="pass_8cpp.html" target="_top" xlink:title=" ">
<polygon fill="white" stroke="#666666" points="1063.5,-134.5 961.5,-134.5 961.5,-115.5 1063.5,-115.5 1063.5,-134.5"/>
<text text-anchor="middle" x="1012.5" y="-122.5" font-family="Helvetica,sans-Serif" font-size="10.00">src/mim/pass.cpp</text>
</a>
</g>
</g>
<!-- Node12&#45;&gt;Node15 -->
<g id="edge20_Node000012_Node000015" class="edge">
<title>Node12&#45;&gt;Node15</title>
<g id="a_edge20_Node000012_Node000015"><a xlink:title=" ">
<path fill="none" stroke="#63b8ff" d="M882.07,-172.52C913.78,-161.21 960.55,-144.53 988.62,-134.52"/>
<polygon fill="#63b8ff" stroke="#63b8ff" points="880.59,-169.34 872.35,-175.99 882.94,-175.93 880.59,-169.34"/>
</a>
</g>
</g>
<!-- Node16 -->
<g id="Node000016" class="node">
<title>Node16</title>
<g id="a_Node000016"><a xlink:href="optimize_8cpp.html" target="_top" xlink:title=" ">
<polygon fill="white" stroke="#666666" points="1229.5,-134.5 1081.5,-134.5 1081.5,-115.5 1229.5,-115.5 1229.5,-134.5"/>
<text text-anchor="middle" x="1155.5" y="-122.5" font-family="Helvetica,sans-Serif" font-size="10.00">src/mim/pass/optimize.cpp</text>
</a>
</g>
</g>
<!-- Node12&#45;&gt;Node16 -->
<g id="edge21_Node000012_Node000016" class="edge">
<title>Node12&#45;&gt;Node16</title>
<g id="a_edge21_Node000012_Node000016"><a xlink:title=" ">
<path fill="none" stroke="#63b8ff" d="M903.06,-174.1C962.29,-162.82 1055.76,-145.01 1110.81,-134.52"/>
<polygon fill="#63b8ff" stroke="#63b8ff" points="902.31,-170.68 893.14,-175.99 903.62,-177.56 902.31,-170.68"/>
</a>
</g>
</g>
<!-- Node17 -->
<g id="Node000017" class="node">
<title>Node17</title>
<g id="a_Node000017"><a xlink:href="phase_8cpp.html" target="_top" xlink:title=" ">
<polygon fill="white" stroke="#666666" points="1357,-134.5 1248,-134.5 1248,-115.5 1357,-115.5 1357,-134.5"/>
<text text-anchor="middle" x="1302.5" y="-122.5" font-family="Helvetica,sans-Serif" font-size="10.00">src/mim/phase.cpp</text>
</a>
</g>
</g>
<!-- Node12&#45;&gt;Node17 -->
<g id="edge22_Node000012_Node000017" class="edge">
<title>Node12&#45;&gt;Node17</title>
<g id="a_edge22_Node000012_Node000017"><a xlink:title=" ">
<path fill="none" stroke="#63b8ff" d="M917.2,-175.94C1061.22,-159.25 1099.61,-162.89 1238.5,-140 1247.7,-138.48 1257.58,-136.5 1266.75,-134.51"/>
<polygon fill="#63b8ff" stroke="#63b8ff" points="916.62,-172.49 907.1,-177.13 917.44,-179.44 916.62,-172.49"/>
</a>
</g>
</g>
<!-- Node18 -->
<g id="Node000018" class="node">
<title>Node18</title>
<g id="a_Node000018"><a xlink:href="compile_8cpp.html" target="_top" xlink:title=" ">
<polygon fill="white" stroke="#666666" points="1497.5,-140 1375.5,-140 1375.5,-110 1497.5,-110 1497.5,-140"/>
<text text-anchor="start" x="1383.5" y="-128" font-family="Helvetica,sans-Serif" font-size="10.00">src/mim/plug/compile</text>
<text text-anchor="middle" x="1436.5" y="-117" font-family="Helvetica,sans-Serif" font-size="10.00">/compile.cpp</text>
</a>
</g>
</g>
<!-- Node12&#45;&gt;Node18 -->
<g id="edge23_Node000012_Node000018" class="edge">
<title>Node12&#45;&gt;Node18</title>
<g id="a_edge23_Node000012_Node000018"><a xlink:title=" ">
<path fill="none" stroke="#63b8ff" d="M917.07,-176C1117.8,-155.93 1170.99,-167.28 1366.5,-140 1369.45,-139.59 1372.45,-139.13 1375.49,-138.64"/>
<polygon fill="#63b8ff" stroke="#63b8ff" points="916.68,-172.52 907.09,-177.01 917.39,-179.48 916.68,-172.52"/>
</a>
</g>
</g>
<!-- Node19 -->
<g id="Node000019" class="node">
<title>Node19</title>
<g id="a_Node000019"><a xlink:href="compile_2normalizers_8cpp.html" target="_top" xlink:title=" ">
<polygon fill="white" stroke="#666666" points="1637.5,-140 1515.5,-140 1515.5,-110 1637.5,-110 1637.5,-140"/>
<text text-anchor="start" x="1523.5" y="-128" font-family="Helvetica,sans-Serif" font-size="10.00">src/mim/plug/compile</text>
<text text-anchor="middle" x="1576.5" y="-117" font-family="Helvetica,sans-Serif" font-size="10.00">/normalizers.cpp</text>
</a>
</g>
</g>
<!-- Node12&#45;&gt;Node19 -->
<g id="edge24_Node000012_Node000019" class="edge">
<title>Node12&#45;&gt;Node19</title>
<g id="a_edge24_Node000012_Node000019"><a xlink:title=" ">
<path fill="none" stroke="#63b8ff" d="M917.3,-176C1179.84,-152.25 1249.29,-173.41 1506.5,-140 1509.45,-139.62 1512.46,-139.18 1515.5,-138.71"/>
<polygon fill="#63b8ff" stroke="#63b8ff" points="916.72,-172.54 907.08,-176.94 917.36,-179.51 916.72,-172.54"/>
</a>
</g>
</g>
<!-- Node20 -->
<g id="Node000020" class="node">
<title>Node20</title>
<g id="a_Node000020"><a xlink:href="plugin_8cpp.html" target="_top" xlink:title=" ">
<polygon fill="white" stroke="#666666" points="1765.5,-134.5 1655.5,-134.5 1655.5,-115.5 1765.5,-115.5 1765.5,-134.5"/>
<text text-anchor="middle" x="1710.5" y="-122.5" font-family="Helvetica,sans-Serif" font-size="10.00">src/mim/plugin.cpp</text>
</a>
</g>
</g>
<!-- Node12&#45;&gt;Node20 -->
<g id="edge25_Node000012_Node000020" class="edge">
<title>Node12&#45;&gt;Node20</title>
<g id="a_edge25_Node000012_Node000020"><a xlink:title=" ">
<path fill="none" stroke="#63b8ff" d="M917.24,-176.02C1241.87,-148.54 1327.8,-182.42 1646.5,-140 1656.31,-138.69 1666.84,-136.66 1676.47,-134.54"/>
<polygon fill="#63b8ff" stroke="#63b8ff" points="916.74,-172.55 907.08,-176.89 917.34,-179.53 916.74,-172.55"/>
</a>
</g>
</g>
<!-- Node21 -->
<g id="Node000021" class="node">
<title>Node21</title>
<g id="a_Node000021"><a xlink:href="world_8cpp.html" target="_top" xlink:title=" ">
<polygon fill="white" stroke="#666666" points="741,-134.5 634,-134.5 634,-115.5 741,-115.5 741,-134.5"/>
<text text-anchor="middle" x="687.5" y="-122.5" font-family="Helvetica,sans-Serif" font-size="10.00">src/mim/world.cpp</text>
</a>
</g>
</g>
<!-- Node12&#45;&gt;Node21 -->
<g id="edge26_Node000012_Node000021" class="edge">
<title>Node12&#45;&gt;Node21</title>
<g id="a_edge26_Node000012_Node000021"><a xlink:title=" ">
<path fill="none" stroke="#63b8ff" d="M815.54,-172.52C784.41,-161.21 738.5,-144.53 710.94,-134.52"/>
<polygon fill="#63b8ff" stroke="#63b8ff" points="814.5,-175.87 825.09,-175.99 816.89,-169.29 814.5,-175.87"/>
</a>
</g>
</g>
</g>
</svg>
