<?xml version="1.0" encoding="UTF-8" standalone="no"?>
<!DOCTYPE svg PUBLIC "-//W3C//DTD SVG 1.1//EN"
 "http://www.w3.org/Graphics/SVG/1.1/DTD/svg11.dtd">
<!-- Generated by graphviz version 2.43.0 (0)
 -->
<!-- Title: thorin/fe/tok.cpp Pages: 1 -->
<svg width="1653pt" height="379pt"
 viewBox="0.00 0.00 1652.50 379.00" xmlns="http://www.w3.org/2000/svg" xmlns:xlink="http://www.w3.org/1999/xlink">
<g id="graph0" class="graph" transform="scale(1 1) rotate(0) translate(4 375)">
<title>thorin/fe/tok.cpp</title>
<!-- Node1 -->
<g id="node1" class="node">
<title>Node1</title>
<g id="a_node1"><a xlink:title=" ">
<polygon fill="#999999" stroke="#666666" points="1053,-371 956,-371 956,-352 1053,-352 1053,-371"/>
<text text-anchor="middle" x="1004.5" y="-359" font-family="Helvetica,sans-Serif" font-size="10.00">thorin/fe/tok.cpp</text>
</a>
</g>
</g>
<!-- Node2 -->
<g id="node2" class="node">
<title>Node2</title>
<g id="a_node2"><a xlink:href="tok_8h.html" target="_top" xlink:title=" ">
<polygon fill="white" stroke="#666666" points="545.5,-261 459.5,-261 459.5,-242 545.5,-242 545.5,-261"/>
<text text-anchor="middle" x="502.5" y="-249" font-family="Helvetica,sans-Serif" font-size="10.00">thorin/fe/tok.h</text>
</a>
</g>
</g>
<!-- Node1&#45;&gt;Node2 -->
<g id="edge1" class="edge">
<title>Node1&#45;&gt;Node2</title>
<path fill="none" stroke="#63b8ff" d="M964.69,-351.94C873.89,-332.4 651.66,-284.59 552.13,-263.18"/>
<polygon fill="#63b8ff" stroke="#63b8ff" points="552.83,-259.75 542.31,-261.07 551.35,-266.59 552.83,-259.75"/>
</g>
<!-- Node3 -->
<g id="node3" class="node">
<title>Node3</title>
<g id="a_node3"><a xlink:href="assert_8h.html" target="_top" xlink:title=" ">
<polygon fill="white" stroke="#666666" points="932.5,-79.5 826.5,-79.5 826.5,-60.5 932.5,-60.5 932.5,-79.5"/>
<text text-anchor="middle" x="879.5" y="-67.5" font-family="Helvetica,sans-Serif" font-size="10.00">thorin/util/assert.h</text>
</a>
</g>
</g>
<!-- Node1&#45;&gt;Node3 -->
<g id="edge62" class="edge">
<title>Node1&#45;&gt;Node3</title>
<path fill="none" stroke="#63b8ff" d="M1046.95,-351.9C1066.8,-345.52 1088.63,-334.58 1100.5,-316 1118.71,-287.49 1157.24,-306.67 1079.5,-187 1042.75,-130.43 968.07,-98.15 921.09,-82.64"/>
<polygon fill="#63b8ff" stroke="#63b8ff" points="922.1,-79.29 911.51,-79.58 919.97,-85.96 922.1,-79.29"/>
</g>
<!-- Node23 -->
<g id="node23" class="node">
<title>Node23</title>
<g id="a_node23"><a xlink:href="lam_8h.html" target="_top" xlink:title=" ">
<polygon fill="white" stroke="#666666" points="1091.5,-316 1015.5,-316 1015.5,-297 1091.5,-297 1091.5,-316"/>
<text text-anchor="middle" x="1053.5" y="-304" font-family="Helvetica,sans-Serif" font-size="10.00">thorin/lam.h</text>
</a>
</g>
</g>
<!-- Node1&#45;&gt;Node23 -->
<g id="edge29" class="edge">
<title>Node1&#45;&gt;Node23</title>
<path fill="none" stroke="#63b8ff" d="M1012.59,-351.75C1019.66,-344.11 1030.09,-332.82 1038.65,-323.56"/>
<polygon fill="#63b8ff" stroke="#63b8ff" points="1041.34,-325.81 1045.56,-316.09 1036.2,-321.06 1041.34,-325.81"/>
</g>
<!-- Node40 -->
<g id="node40" class="node">
<title>Node40</title>
<g id="a_node40"><a xlink:href="tuple_8h.html" target="_top" xlink:title=" ">
<polygon fill="white" stroke="#666666" points="997.5,-316 915.5,-316 915.5,-297 997.5,-297 997.5,-316"/>
<text text-anchor="middle" x="956.5" y="-304" font-family="Helvetica,sans-Serif" font-size="10.00">thorin/tuple.h</text>
</a>
</g>
</g>
<!-- Node1&#45;&gt;Node40 -->
<g id="edge60" class="edge">
<title>Node1&#45;&gt;Node40</title>
<path fill="none" stroke="#63b8ff" d="M996.57,-351.75C989.65,-344.11 979.43,-332.82 971.05,-323.56"/>
<polygon fill="#63b8ff" stroke="#63b8ff" points="973.59,-321.15 964.28,-316.09 968.4,-325.85 973.59,-321.15"/>
</g>
<!-- Node2&#45;&gt;Node3 -->
<g id="edge2" class="edge">
<title>Node2&#45;&gt;Node3</title>
<path fill="none" stroke="#63b8ff" d="M545.71,-247.96C650.71,-240.78 914.55,-216.48 967.5,-151 989.18,-124.19 945.12,-98.31 911.87,-83.56"/>
<polygon fill="#63b8ff" stroke="#63b8ff" points="912.98,-80.23 902.41,-79.53 910.23,-86.67 912.98,-80.23"/>
</g>
<!-- Node5 -->
<g id="node5" class="node">
<title>Node5</title>
<g id="a_node5"><a xlink:href="loc_8h.html" target="_top" xlink:title=" ">
<polygon fill="white" stroke="#666666" points="547.5,-206 457.5,-206 457.5,-187 547.5,-187 547.5,-206"/>
<text text-anchor="middle" x="502.5" y="-194" font-family="Helvetica,sans-Serif" font-size="10.00">thorin/util/loc.h</text>
</a>
</g>
</g>
<!-- Node2&#45;&gt;Node5 -->
<g id="edge4" class="edge">
<title>Node2&#45;&gt;Node5</title>
<path fill="none" stroke="#63b8ff" d="M502.5,-241.75C502.5,-234.8 502.5,-224.85 502.5,-216.13"/>
<polygon fill="#63b8ff" stroke="#63b8ff" points="506,-216.09 502.5,-206.09 499,-216.09 506,-216.09"/>
</g>
<!-- Node15 -->
<g id="node15" class="node">
<title>Node15</title>
<g id="a_node15"><a xlink:href="sym_8h.html" target="_top" xlink:title=" ">
<polygon fill="white" stroke="#666666" points="508,-145.5 411,-145.5 411,-126.5 508,-126.5 508,-145.5"/>
<text text-anchor="middle" x="459.5" y="-133.5" font-family="Helvetica,sans-Serif" font-size="10.00">thorin/util/sym.h</text>
</a>
</g>
</g>
<!-- Node2&#45;&gt;Node15 -->
<g id="edge21" class="edge">
<title>Node2&#45;&gt;Node15</title>
<path fill="none" stroke="#63b8ff" d="M485.61,-241.95C472.79,-234.43 456.12,-222.15 448.5,-206 440.84,-189.76 445.72,-169.22 451.2,-154.79"/>
<polygon fill="#63b8ff" stroke="#63b8ff" points="454.45,-156.09 455.12,-145.51 448,-153.36 454.45,-156.09"/>
</g>
<!-- Node17 -->
<g id="node17" class="node">
<title>Node17</title>
<g id="a_node17"><a xlink:href="types_8h.html" target="_top" xlink:title=" ">
<polygon fill="white" stroke="#666666" points="180,-79.5 77,-79.5 77,-60.5 180,-60.5 180,-79.5"/>
<text text-anchor="middle" x="128.5" y="-67.5" font-family="Helvetica,sans-Serif" font-size="10.00">thorin/util/types.h</text>
</a>
</g>
</g>
<!-- Node2&#45;&gt;Node17 -->
<g id="edge22" class="edge">
<title>Node2&#45;&gt;Node17</title>
<path fill="none" stroke="#63b8ff" d="M459.39,-248.23C390.64,-242.5 255.21,-222.28 169.5,-151 150.33,-135.06 139.12,-107.86 133.4,-89.66"/>
<polygon fill="#63b8ff" stroke="#63b8ff" points="136.72,-88.55 130.59,-79.91 130,-90.49 136.72,-88.55"/>
</g>
<!-- Node4 -->
<g id="node4" class="node">
<title>Node4</title>
<g id="a_node4"><a xlink:title=" ">
<polygon fill="#e0e0e0" stroke="#999999" points="1569.5,-19 1517.5,-19 1517.5,0 1569.5,0 1569.5,-19"/>
<text text-anchor="middle" x="1543.5" y="-7" font-family="Helvetica,sans-Serif" font-size="10.00">cassert</text>
</a>
</g>
</g>
<!-- Node3&#45;&gt;Node4 -->
<g id="edge3" class="edge">
<title>Node3&#45;&gt;Node4</title>
<path fill="none" stroke="#63b8ff" d="M913.12,-60.46C922.27,-58.39 932.22,-56.38 941.5,-55 1154.34,-23.28 1413.05,-13.82 1507.11,-11.31"/>
<polygon fill="#63b8ff" stroke="#63b8ff" points="1507.33,-14.81 1517.24,-11.05 1507.15,-7.81 1507.33,-14.81"/>
</g>
<!-- Node6 -->
<g id="node6" class="node">
<title>Node6</title>
<g id="a_node6"><a xlink:title=" ">
<polygon fill="#e0e0e0" stroke="#999999" points="424.5,-85 320.5,-85 320.5,-55 424.5,-55 424.5,-85"/>
<text text-anchor="start" x="328.5" y="-73" font-family="Helvetica,sans-Serif" font-size="10.00">absl/container/flat</text>
<text text-anchor="middle" x="372.5" y="-62" font-family="Helvetica,sans-Serif" font-size="10.00">_hash_map.h</text>
</a>
</g>
</g>
<!-- Node5&#45;&gt;Node6 -->
<g id="edge5" class="edge">
<title>Node5&#45;&gt;Node6</title>
<path fill="none" stroke="#63b8ff" d="M465.55,-187C444.29,-180.39 418.51,-169.2 401.5,-151 387.13,-135.63 379.77,-112.6 376.07,-95.19"/>
<polygon fill="#63b8ff" stroke="#63b8ff" points="379.48,-94.38 374.21,-85.19 372.6,-95.66 379.48,-94.38"/>
</g>
<!-- Node7 -->
<g id="node7" class="node">
<title>Node7</title>
<g id="a_node7"><a xlink:title=" ">
<polygon fill="#e0e0e0" stroke="#999999" points="302.5,-85 198.5,-85 198.5,-55 302.5,-55 302.5,-85"/>
<text text-anchor="start" x="206.5" y="-73" font-family="Helvetica,sans-Serif" font-size="10.00">absl/container/flat</text>
<text text-anchor="middle" x="250.5" y="-62" font-family="Helvetica,sans-Serif" font-size="10.00">_hash_set.h</text>
</a>
</g>
</g>
<!-- Node5&#45;&gt;Node7 -->
<g id="edge6" class="edge">
<title>Node5&#45;&gt;Node7</title>
<path fill="none" stroke="#63b8ff" d="M474.22,-186.98C449.06,-178.99 411.55,-166.03 380.5,-151 344.01,-133.34 304.71,-108.22 278.99,-90.86"/>
<polygon fill="#63b8ff" stroke="#63b8ff" points="280.72,-87.81 270.49,-85.07 276.78,-93.59 280.72,-87.81"/>
</g>
<!-- Node8 -->
<g id="node8" class="node">
<title>Node8</title>
<g id="a_node8"><a xlink:href="print_8h.html" target="_top" xlink:title=" ">
<polygon fill="white" stroke="#666666" points="766.5,-145.5 668.5,-145.5 668.5,-126.5 766.5,-126.5 766.5,-145.5"/>
<text text-anchor="middle" x="717.5" y="-133.5" font-family="Helvetica,sans-Serif" font-size="10.00">thorin/util/print.h</text>
</a>
</g>
</g>
<!-- Node5&#45;&gt;Node8 -->
<g id="edge7" class="edge">
<title>Node5&#45;&gt;Node8</title>
<path fill="none" stroke="#63b8ff" d="M533.76,-186.99C571.42,-176.75 634.79,-159.5 676.38,-148.19"/>
<polygon fill="#63b8ff" stroke="#63b8ff" points="677.47,-151.52 686.2,-145.52 675.63,-144.77 677.47,-151.52"/>
</g>
<!-- Node5&#45;&gt;Node15 -->
<g id="edge15" class="edge">
<title>Node5&#45;&gt;Node15</title>
<path fill="none" stroke="#63b8ff" d="M496.16,-186.87C489.8,-178.23 479.86,-164.7 471.93,-153.92"/>
<polygon fill="#63b8ff" stroke="#63b8ff" points="474.61,-151.65 465.87,-145.67 468.97,-155.8 474.61,-151.65"/>
</g>
<!-- Node8&#45;&gt;Node3 -->
<g id="edge14" class="edge">
<title>Node8&#45;&gt;Node3</title>
<path fill="none" stroke="#63b8ff" d="M739.35,-126.37C767.45,-115.27 816.43,-95.92 848.4,-83.28"/>
<polygon fill="#63b8ff" stroke="#63b8ff" points="849.73,-86.53 857.74,-79.6 847.15,-80.02 849.73,-86.53"/>
</g>
<!-- Node9 -->
<g id="node9" class="node">
<title>Node9</title>
<g id="a_node9"><a xlink:title=" ">
<polygon fill="#e0e0e0" stroke="#999999" points="1016,-79.5 951,-79.5 951,-60.5 1016,-60.5 1016,-79.5"/>
<text text-anchor="middle" x="983.5" y="-67.5" font-family="Helvetica,sans-Serif" font-size="10.00">functional</text>
</a>
</g>
</g>
<!-- Node8&#45;&gt;Node9 -->
<g id="edge8" class="edge">
<title>Node8&#45;&gt;Node9</title>
<path fill="none" stroke="#63b8ff" d="M752.43,-126.43C760.03,-124.6 768.03,-122.71 775.5,-121 849.09,-104.14 868.7,-104.97 941.5,-85 944.12,-84.28 946.82,-83.49 949.52,-82.67"/>
<polygon fill="#63b8ff" stroke="#63b8ff" points="950.74,-85.96 959.21,-79.59 948.62,-79.29 950.74,-85.96"/>
</g>
<!-- Node10 -->
<g id="node10" class="node">
<title>Node10</title>
<g id="a_node10"><a xlink:title=" ">
<polygon fill="#e0e0e0" stroke="#999999" points="696.5,-79.5 636.5,-79.5 636.5,-60.5 696.5,-60.5 696.5,-79.5"/>
<text text-anchor="middle" x="666.5" y="-67.5" font-family="Helvetica,sans-Serif" font-size="10.00">iostream</text>
</a>
</g>
</g>
<!-- Node8&#45;&gt;Node10 -->
<g id="edge9" class="edge">
<title>Node8&#45;&gt;Node10</title>
<path fill="none" stroke="#63b8ff" d="M710.62,-126.37C702.83,-116.59 689.95,-100.42 680.11,-88.08"/>
<polygon fill="#63b8ff" stroke="#63b8ff" points="682.57,-85.54 673.6,-79.91 677.09,-89.91 682.57,-85.54"/>
</g>
<!-- Node11 -->
<g id="node11" class="node">
<title>Node11</title>
<g id="a_node11"><a xlink:title=" ">
<polygon fill="#e0e0e0" stroke="#999999" points="540,-19 483,-19 483,0 540,0 540,-19"/>
<text text-anchor="middle" x="511.5" y="-7" font-family="Helvetica,sans-Serif" font-size="10.00">ostream</text>
</a>
</g>
</g>
<!-- Node8&#45;&gt;Node11 -->
<g id="edge10" class="edge">
<title>Node8&#45;&gt;Node11</title>
<path fill="none" stroke="#63b8ff" d="M719.06,-126.21C721.41,-109.89 723.82,-74.78 705.5,-55 684.84,-32.69 600.91,-20.03 550.46,-14.29"/>
<polygon fill="#63b8ff" stroke="#63b8ff" points="550.56,-10.78 540.23,-13.17 549.79,-17.74 550.56,-10.78"/>
</g>
<!-- Node12 -->
<g id="node12" class="node">
<title>Node12</title>
<g id="a_node12"><a xlink:title=" ">
<polygon fill="#e0e0e0" stroke="#999999" points="1084.5,-79.5 1034.5,-79.5 1034.5,-60.5 1084.5,-60.5 1084.5,-79.5"/>
<text text-anchor="middle" x="1059.5" y="-67.5" font-family="Helvetica,sans-Serif" font-size="10.00">ranges</text>
</a>
</g>
</g>
<!-- Node8&#45;&gt;Node12 -->
<g id="edge11" class="edge">
<title>Node8&#45;&gt;Node12</title>
<path fill="none" stroke="#63b8ff" d="M750.51,-126.47C758.65,-124.52 767.36,-122.57 775.5,-121 885.3,-99.86 916.5,-113.97 1024.5,-85 1026.66,-84.42 1028.86,-83.75 1031.06,-83.02"/>
<polygon fill="#63b8ff" stroke="#63b8ff" points="1032.34,-86.27 1040.52,-79.54 1029.93,-79.7 1032.34,-86.27"/>
</g>
<!-- Node13 -->
<g id="node13" class="node">
<title>Node13</title>
<g id="a_node13"><a xlink:title=" ">
<polygon fill="#e0e0e0" stroke="#999999" points="808.5,-79.5 752.5,-79.5 752.5,-60.5 808.5,-60.5 808.5,-79.5"/>
<text text-anchor="middle" x="780.5" y="-67.5" font-family="Helvetica,sans-Serif" font-size="10.00">sstream</text>
</a>
</g>
</g>
<!-- Node8&#45;&gt;Node13 -->
<g id="edge12" class="edge">
<title>Node8&#45;&gt;Node13</title>
<path fill="none" stroke="#63b8ff" d="M726,-126.37C735.8,-116.4 752.16,-99.79 764.39,-87.36"/>
<polygon fill="#63b8ff" stroke="#63b8ff" points="767.21,-89.49 771.73,-79.91 762.22,-84.58 767.21,-89.49"/>
</g>
<!-- Node14 -->
<g id="node14" class="node">
<title>Node14</title>
<g id="a_node14"><a xlink:title=" ">
<polygon fill="#e0e0e0" stroke="#999999" points="618.5,-79.5 574.5,-79.5 574.5,-60.5 618.5,-60.5 618.5,-79.5"/>
<text text-anchor="middle" x="596.5" y="-67.5" font-family="Helvetica,sans-Serif" font-size="10.00">string</text>
</a>
</g>
</g>
<!-- Node8&#45;&gt;Node14 -->
<g id="edge13" class="edge">
<title>Node8&#45;&gt;Node14</title>
<path fill="none" stroke="#63b8ff" d="M701.18,-126.37C680.79,-115.59 645.69,-97.02 621.8,-84.38"/>
<polygon fill="#63b8ff" stroke="#63b8ff" points="623.42,-81.28 612.95,-79.7 620.15,-87.47 623.42,-81.28"/>
</g>
<!-- Node15&#45;&gt;Node6 -->
<g id="edge18" class="edge">
<title>Node15&#45;&gt;Node6</title>
<path fill="none" stroke="#63b8ff" d="M447.77,-126.37C435.52,-117.36 415.9,-102.92 399.75,-91.05"/>
<polygon fill="#63b8ff" stroke="#63b8ff" points="401.82,-88.22 391.69,-85.12 397.67,-93.86 401.82,-88.22"/>
</g>
<!-- Node15&#45;&gt;Node7 -->
<g id="edge19" class="edge">
<title>Node15&#45;&gt;Node7</title>
<path fill="none" stroke="#63b8ff" d="M431.31,-126.37C399.4,-116.6 346.62,-100.43 306.3,-88.09"/>
<polygon fill="#63b8ff" stroke="#63b8ff" points="307.18,-84.7 296.6,-85.12 305.13,-91.39 307.18,-84.7"/>
</g>
<!-- Node15&#45;&gt;Node10 -->
<g id="edge16" class="edge">
<title>Node15&#45;&gt;Node10</title>
<path fill="none" stroke="#63b8ff" d="M490.01,-126.47C523.79,-116.9 579.79,-100.65 627.5,-85 629.61,-84.31 631.78,-83.58 633.96,-82.83"/>
<polygon fill="#63b8ff" stroke="#63b8ff" points="635.19,-86.11 643.48,-79.5 632.88,-79.5 635.19,-86.11"/>
</g>
<!-- Node15&#45;&gt;Node14 -->
<g id="edge17" class="edge">
<title>Node15&#45;&gt;Node14</title>
<path fill="none" stroke="#63b8ff" d="M477.98,-126.37C501.26,-115.49 541.51,-96.69 568.56,-84.05"/>
<polygon fill="#63b8ff" stroke="#63b8ff" points="570.3,-87.1 577.88,-79.7 567.34,-80.76 570.3,-87.1"/>
</g>
<!-- Node16 -->
<g id="node16" class="node">
<title>Node16</title>
<g id="a_node16"><a xlink:title=" ">
<polygon fill="#e0e0e0" stroke="#999999" points="556,-85 443,-85 443,-55 556,-55 556,-85"/>
<text text-anchor="start" x="451" y="-73" font-family="Helvetica,sans-Serif" font-size="10.00">absl/container/node</text>
<text text-anchor="middle" x="499.5" y="-62" font-family="Helvetica,sans-Serif" font-size="10.00">_hash_set.h</text>
</a>
</g>
</g>
<!-- Node15&#45;&gt;Node16 -->
<g id="edge20" class="edge">
<title>Node15&#45;&gt;Node16</title>
<path fill="none" stroke="#63b8ff" d="M464.89,-126.37C470.08,-118.08 478.14,-105.18 485.17,-93.92"/>
<polygon fill="#63b8ff" stroke="#63b8ff" points="488.19,-95.7 490.52,-85.36 482.26,-91.99 488.19,-95.7"/>
</g>
<!-- Node17&#45;&gt;Node11 -->
<g id="edge25" class="edge">
<title>Node17&#45;&gt;Node11</title>
<path fill="none" stroke="#63b8ff" d="M163.23,-60.47C171.79,-58.52 180.95,-56.57 189.5,-55 291.09,-36.36 411.99,-21.63 472.67,-14.74"/>
<polygon fill="#63b8ff" stroke="#63b8ff" points="473.39,-18.19 482.94,-13.59 472.61,-11.23 473.39,-18.19"/>
</g>
<!-- Node18 -->
<g id="node18" class="node">
<title>Node18</title>
<g id="a_node18"><a xlink:title=" ">
<polygon fill="#e0e0e0" stroke="#999999" points="189.5,-19 139.5,-19 139.5,0 189.5,0 189.5,-19"/>
<text text-anchor="middle" x="164.5" y="-7" font-family="Helvetica,sans-Serif" font-size="10.00">cstdint</text>
</a>
</g>
</g>
<!-- Node17&#45;&gt;Node18 -->
<g id="edge23" class="edge">
<title>Node17&#45;&gt;Node18</title>
<path fill="none" stroke="#63b8ff" d="M133.81,-60.37C139.08,-51.81 147.29,-38.47 153.89,-27.74"/>
<polygon fill="#63b8ff" stroke="#63b8ff" points="156.91,-29.52 159.17,-19.17 150.94,-25.85 156.91,-29.52"/>
</g>
<!-- Node19 -->
<g id="node19" class="node">
<title>Node19</title>
<g id="a_node19"><a xlink:title=" ">
<polygon fill="#e0e0e0" stroke="#999999" points="251.5,-19 207.5,-19 207.5,0 251.5,0 251.5,-19"/>
<text text-anchor="middle" x="229.5" y="-7" font-family="Helvetica,sans-Serif" font-size="10.00">limits</text>
</a>
</g>
</g>
<!-- Node17&#45;&gt;Node19 -->
<g id="edge24" class="edge">
<title>Node17&#45;&gt;Node19</title>
<path fill="none" stroke="#63b8ff" d="M143.4,-60.37C159.81,-50.86 186.43,-35.45 205.73,-24.27"/>
<polygon fill="#63b8ff" stroke="#63b8ff" points="207.64,-27.21 214.54,-19.17 204.13,-21.15 207.64,-27.21"/>
</g>
<!-- Node20 -->
<g id="node20" class="node">
<title>Node20</title>
<g id="a_node20"><a xlink:title=" ">
<polygon fill="#e0e0e0" stroke="#999999" points="1027,-19 958,-19 958,0 1027,0 1027,-19"/>
<text text-anchor="middle" x="992.5" y="-7" font-family="Helvetica,sans-Serif" font-size="10.00">type_traits</text>
</a>
</g>
</g>
<!-- Node17&#45;&gt;Node20 -->
<g id="edge26" class="edge">
<title>Node17&#45;&gt;Node20</title>
<path fill="none" stroke="#63b8ff" d="M160.92,-60.48C170.1,-58.36 180.14,-56.32 189.5,-55 476.3,-14.44 825.6,-10.4 947.76,-10.32"/>
<polygon fill="#63b8ff" stroke="#63b8ff" points="947.86,-13.82 957.86,-10.32 947.86,-6.82 947.86,-13.82"/>
</g>
<!-- Node21 -->
<g id="node21" class="node">
<title>Node21</title>
<g id="a_node21"><a xlink:title=" ">
<polygon fill="#e0e0e0" stroke="#999999" points="47,-19 0,-19 0,0 47,0 47,-19"/>
<text text-anchor="middle" x="23.5" y="-7" font-family="Helvetica,sans-Serif" font-size="10.00">cmath</text>
</a>
</g>
</g>
<!-- Node17&#45;&gt;Node21 -->
<g id="edge27" class="edge">
<title>Node17&#45;&gt;Node21</title>
<path fill="none" stroke="#63b8ff" d="M113.01,-60.37C95.87,-50.82 68.03,-35.31 47.94,-24.12"/>
<polygon fill="#63b8ff" stroke="#63b8ff" points="49.5,-20.98 39.06,-19.17 46.09,-27.09 49.5,-20.98"/>
</g>
<!-- Node22 -->
<g id="node22" class="node">
<title>Node22</title>
<g id="a_node22"><a xlink:title=" ">
<polygon fill="#e0e0e0" stroke="#999999" points="121.5,-19 65.5,-19 65.5,0 121.5,0 121.5,-19"/>
<text text-anchor="middle" x="93.5" y="-7" font-family="Helvetica,sans-Serif" font-size="10.00">half.hpp</text>
</a>
</g>
</g>
<!-- Node17&#45;&gt;Node22 -->
<g id="edge28" class="edge">
<title>Node17&#45;&gt;Node22</title>
<path fill="none" stroke="#63b8ff" d="M123.34,-60.37C118.27,-51.9 110.4,-38.74 104.01,-28.07"/>
<polygon fill="#63b8ff" stroke="#63b8ff" points="106.82,-25.95 98.69,-19.17 100.82,-29.55 106.82,-25.95"/>
</g>
<!-- Node24 -->
<g id="node24" class="node">
<title>Node24</title>
<g id="a_node24"><a xlink:title=" ">
<polygon fill="#e0e0e0" stroke="#999999" points="1079,-261 1028,-261 1028,-242 1079,-242 1079,-261"/>
<text text-anchor="middle" x="1053.5" y="-249" font-family="Helvetica,sans-Serif" font-size="10.00">variant</text>
</a>
</g>
</g>
<!-- Node23&#45;&gt;Node24 -->
<g id="edge30" class="edge">
<title>Node23&#45;&gt;Node24</title>
<path fill="none" stroke="#63b8ff" d="M1053.5,-296.75C1053.5,-289.8 1053.5,-279.85 1053.5,-271.13"/>
<polygon fill="#63b8ff" stroke="#63b8ff" points="1057,-271.09 1053.5,-261.09 1050,-271.09 1057,-271.09"/>
</g>
<!-- Node25 -->
<g id="node25" class="node">
<title>Node25</title>
<g id="a_node25"><a xlink:href="def_8h.html" target="_top" xlink:title=" ">
<polygon fill="white" stroke="#666666" points="1001.5,-261 929.5,-261 929.5,-242 1001.5,-242 1001.5,-261"/>
<text text-anchor="middle" x="965.5" y="-249" font-family="Helvetica,sans-Serif" font-size="10.00">thorin/def.h</text>
</a>
</g>
</g>
<!-- Node23&#45;&gt;Node25 -->
<g id="edge31" class="edge">
<title>Node23&#45;&gt;Node25</title>
<path fill="none" stroke="#63b8ff" d="M1039.36,-296.98C1025.71,-288.77 1004.81,-276.18 988.72,-266.49"/>
<polygon fill="#63b8ff" stroke="#63b8ff" points="990.27,-263.33 979.9,-261.17 986.66,-269.33 990.27,-263.33"/>
</g>
<!-- Node25&#45;&gt;Node5 -->
<g id="edge58" class="edge">
<title>Node25&#45;&gt;Node5</title>
<path fill="none" stroke="#63b8ff" d="M929.32,-247.15C859.59,-240.56 701.5,-225.02 557.87,-206.12"/>
<polygon fill="#63b8ff" stroke="#63b8ff" points="557.93,-202.6 547.56,-204.76 557.01,-209.54 557.93,-202.6"/>
</g>
<!-- Node25&#45;&gt;Node8 -->
<g id="edge59" class="edge">
<title>Node25&#45;&gt;Node8</title>
<path fill="none" stroke="#63b8ff" d="M946.86,-241.97C903.68,-222.21 796.61,-173.21 745.51,-149.82"/>
<polygon fill="#63b8ff" stroke="#63b8ff" points="746.91,-146.61 736.36,-145.63 743.99,-152.97 746.91,-146.61"/>
</g>
<!-- Node26 -->
<g id="node26" class="node">
<title>Node26</title>
<g id="a_node26"><a xlink:title=" ">
<polygon fill="#e0e0e0" stroke="#999999" points="1070.5,-206 1014.5,-206 1014.5,-187 1070.5,-187 1070.5,-206"/>
<text text-anchor="middle" x="1042.5" y="-194" font-family="Helvetica,sans-Serif" font-size="10.00">optional</text>
</a>
</g>
</g>
<!-- Node25&#45;&gt;Node26 -->
<g id="edge32" class="edge">
<title>Node25&#45;&gt;Node26</title>
<path fill="none" stroke="#63b8ff" d="M977.87,-241.98C989.59,-233.92 1007.42,-221.65 1021.39,-212.03"/>
<polygon fill="#63b8ff" stroke="#63b8ff" points="1023.65,-214.72 1029.9,-206.17 1019.68,-208.96 1023.65,-214.72"/>
</g>
<!-- Node27 -->
<g id="node27" class="node">
<title>Node27</title>
<g id="a_node27"><a xlink:title=" ">
<polygon fill="#e0e0e0" stroke="#999999" points="1150,-79.5 1103,-79.5 1103,-60.5 1150,-60.5 1150,-79.5"/>
<text text-anchor="middle" x="1126.5" y="-67.5" font-family="Helvetica,sans-Serif" font-size="10.00">vector</text>
</a>
</g>
</g>
<!-- Node25&#45;&gt;Node27 -->
<g id="edge33" class="edge">
<title>Node25&#45;&gt;Node27</title>
<path fill="none" stroke="#63b8ff" d="M970.06,-241.84C976.92,-229.18 990.67,-205.17 1005.5,-187 1037.92,-147.26 1083.04,-107.27 1108.02,-86.2"/>
<polygon fill="#63b8ff" stroke="#63b8ff" points="1110.52,-88.66 1115.96,-79.57 1106.04,-83.29 1110.52,-88.66"/>
</g>
<!-- Node28 -->
<g id="node28" class="node">
<title>Node28</title>
<g id="a_node28"><a xlink:href="array_8h.html" target="_top" xlink:title=" ">
<polygon fill="white" stroke="#666666" points="1283.5,-145.5 1183.5,-145.5 1183.5,-126.5 1283.5,-126.5 1283.5,-145.5"/>
<text text-anchor="middle" x="1233.5" y="-133.5" font-family="Helvetica,sans-Serif" font-size="10.00">thorin/util/array.h</text>
</a>
</g>
</g>
<!-- Node25&#45;&gt;Node28 -->
<g id="edge34" class="edge">
<title>Node25&#45;&gt;Node28</title>
<path fill="none" stroke="#63b8ff" d="M988.34,-241.96C1011.45,-233.23 1048.15,-219.13 1079.5,-206 1124.12,-187.31 1175.25,-164.02 1205.93,-149.84"/>
<polygon fill="#63b8ff" stroke="#63b8ff" points="1207.54,-152.96 1215.14,-145.58 1204.59,-146.61 1207.54,-152.96"/>
</g>
<!-- Node34 -->
<g id="node34" class="node">
<title>Node34</title>
<g id="a_node34"><a xlink:href="cast_8h.html" target="_top" xlink:title=" ">
<polygon fill="white" stroke="#666666" points="1644.5,-145.5 1548.5,-145.5 1548.5,-126.5 1644.5,-126.5 1644.5,-145.5"/>
<text text-anchor="middle" x="1596.5" y="-133.5" font-family="Helvetica,sans-Serif" font-size="10.00">thorin/util/cast.h</text>
</a>
</g>
</g>
<!-- Node25&#45;&gt;Node34 -->
<g id="edge45" class="edge">
<title>Node25&#45;&gt;Node34</title>
<path fill="none" stroke="#63b8ff" d="M1001.69,-243.99C1106.61,-225.12 1411.55,-170.27 1539.22,-147.3"/>
<polygon fill="#63b8ff" stroke="#63b8ff" points="1539.98,-150.72 1549.2,-145.51 1538.74,-143.83 1539.98,-150.72"/>
</g>
<!-- Node35 -->
<g id="node35" class="node">
<title>Node35</title>
<g id="a_node35"><a xlink:href="container_8h.html" target="_top" xlink:title=" ">
<polygon fill="white" stroke="#666666" points="687,-206 566,-206 566,-187 687,-187 687,-206"/>
<text text-anchor="middle" x="626.5" y="-194" font-family="Helvetica,sans-Serif" font-size="10.00">thorin/util/container.h</text>
</a>
</g>
</g>
<!-- Node25&#45;&gt;Node35 -->
<g id="edge48" class="edge">
<title>Node25&#45;&gt;Node35</title>
<path fill="none" stroke="#63b8ff" d="M929.22,-244.83C872.4,-235.95 761.64,-218.63 691,-207.58"/>
<polygon fill="#63b8ff" stroke="#63b8ff" points="691.3,-204.09 680.88,-206 690.22,-211.01 691.3,-204.09"/>
</g>
<!-- Node39 -->
<g id="node39" class="node">
<title>Node39</title>
<g id="a_node39"><a xlink:href="hash_8h.html" target="_top" xlink:title=" ">
<polygon fill="white" stroke="#666666" points="278,-145.5 179,-145.5 179,-126.5 278,-126.5 278,-145.5"/>
<text text-anchor="middle" x="228.5" y="-133.5" font-family="Helvetica,sans-Serif" font-size="10.00">thorin/util/hash.h</text>
</a>
</g>
</g>
<!-- Node25&#45;&gt;Node39 -->
<g id="edge57" class="edge">
<title>Node25&#45;&gt;Node39</title>
<path fill="none" stroke="#63b8ff" d="M929.4,-250.09C844.63,-248.54 626.59,-241.15 448.5,-206 379.6,-192.4 301.82,-165.04 259.68,-149.16"/>
<polygon fill="#63b8ff" stroke="#63b8ff" points="260.85,-145.86 250.26,-145.58 258.36,-152.4 260.85,-145.86"/>
</g>
<!-- Node28&#45;&gt;Node4 -->
<g id="edge35" class="edge">
<title>Node28&#45;&gt;Node4</title>
<path fill="none" stroke="#63b8ff" d="M1283.8,-132.81C1357.61,-128.57 1490.23,-116.65 1524.5,-85 1539.72,-70.95 1543.47,-46.55 1544.06,-29.52"/>
<polygon fill="#63b8ff" stroke="#63b8ff" points="1547.56,-29.13 1544.07,-19.12 1540.56,-29.12 1547.56,-29.13"/>
</g>
<!-- Node28&#45;&gt;Node9 -->
<g id="edge39" class="edge">
<title>Node28&#45;&gt;Node9</title>
<path fill="none" stroke="#63b8ff" d="M1193.36,-126.42C1151.27,-117.18 1083.34,-101.56 1025.5,-85 1023.04,-84.3 1020.52,-83.54 1017.98,-82.76"/>
<polygon fill="#63b8ff" stroke="#63b8ff" points="1018.85,-79.36 1008.26,-79.65 1016.72,-86.03 1018.85,-79.36"/>
</g>
<!-- Node28&#45;&gt;Node12 -->
<g id="edge42" class="edge">
<title>Node28&#45;&gt;Node12</title>
<path fill="none" stroke="#63b8ff" d="M1208.33,-126.42C1180.2,-116.73 1133.37,-100.32 1093.5,-85 1092.12,-84.47 1090.72,-83.92 1089.3,-83.36"/>
<polygon fill="#63b8ff" stroke="#63b8ff" points="1090.52,-80.08 1079.93,-79.6 1087.91,-86.58 1090.52,-80.08"/>
</g>
<!-- Node28&#45;&gt;Node20 -->
<g id="edge43" class="edge">
<title>Node28&#45;&gt;Node20</title>
<path fill="none" stroke="#63b8ff" d="M1227.94,-126.27C1216.95,-109.75 1190.77,-73.85 1159.5,-55 1121.73,-32.23 1072.27,-20.94 1037.01,-15.45"/>
<polygon fill="#63b8ff" stroke="#63b8ff" points="1037.4,-11.97 1027,-13.99 1036.39,-18.9 1037.4,-11.97"/>
</g>
<!-- Node28&#45;&gt;Node27 -->
<g id="edge44" class="edge">
<title>Node28&#45;&gt;Node27</title>
<path fill="none" stroke="#63b8ff" d="M1219.07,-126.37C1201.28,-115.73 1170.82,-97.51 1149.72,-84.89"/>
<polygon fill="#63b8ff" stroke="#63b8ff" points="1151.42,-81.83 1141.04,-79.7 1147.83,-87.84 1151.42,-81.83"/>
</g>
<!-- Node29 -->
<g id="node29" class="node">
<title>Node29</title>
<g id="a_node29"><a xlink:title=" ">
<polygon fill="#e0e0e0" stroke="#999999" points="1260,-79.5 1207,-79.5 1207,-60.5 1260,-60.5 1260,-79.5"/>
<text text-anchor="middle" x="1233.5" y="-67.5" font-family="Helvetica,sans-Serif" font-size="10.00">cstddef</text>
</a>
</g>
</g>
<!-- Node28&#45;&gt;Node29 -->
<g id="edge36" class="edge">
<title>Node28&#45;&gt;Node29</title>
<path fill="none" stroke="#63b8ff" d="M1233.5,-126.37C1233.5,-117.16 1233.5,-102.29 1233.5,-90.27"/>
<polygon fill="#63b8ff" stroke="#63b8ff" points="1237,-89.91 1233.5,-79.91 1230,-89.91 1237,-89.91"/>
</g>
<!-- Node30 -->
<g id="node30" class="node">
<title>Node30</title>
<g id="a_node30"><a xlink:title=" ">
<polygon fill="#e0e0e0" stroke="#999999" points="1621.5,-79.5 1571.5,-79.5 1571.5,-60.5 1621.5,-60.5 1621.5,-79.5"/>
<text text-anchor="middle" x="1596.5" y="-67.5" font-family="Helvetica,sans-Serif" font-size="10.00">cstring</text>
</a>
</g>
</g>
<!-- Node28&#45;&gt;Node30 -->
<g id="edge37" class="edge">
<title>Node28&#45;&gt;Node30</title>
<path fill="none" stroke="#63b8ff" d="M1283.77,-130.26C1347.99,-123.52 1462.21,-109.22 1557.5,-85 1560,-84.36 1562.57,-83.63 1565.13,-82.84"/>
<polygon fill="#63b8ff" stroke="#63b8ff" points="1566.48,-86.08 1574.86,-79.6 1564.27,-79.44 1566.48,-86.08"/>
</g>
<!-- Node31 -->
<g id="node31" class="node">
<title>Node31</title>
<g id="a_node31"><a xlink:title=" ">
<polygon fill="#e0e0e0" stroke="#999999" points="1342.5,-79.5 1278.5,-79.5 1278.5,-60.5 1342.5,-60.5 1342.5,-79.5"/>
<text text-anchor="middle" x="1310.5" y="-67.5" font-family="Helvetica,sans-Serif" font-size="10.00">algorithm</text>
</a>
</g>
</g>
<!-- Node28&#45;&gt;Node31 -->
<g id="edge38" class="edge">
<title>Node28&#45;&gt;Node31</title>
<path fill="none" stroke="#63b8ff" d="M1243.88,-126.37C1256.22,-116.12 1277.01,-98.84 1292.09,-86.31"/>
<polygon fill="#63b8ff" stroke="#63b8ff" points="1294.33,-88.99 1299.79,-79.91 1289.86,-83.61 1294.33,-88.99"/>
</g>
<!-- Node32 -->
<g id="node32" class="node">
<title>Node32</title>
<g id="a_node32"><a xlink:title=" ">
<polygon fill="#e0e0e0" stroke="#999999" points="1444,-79.5 1361,-79.5 1361,-60.5 1444,-60.5 1444,-79.5"/>
<text text-anchor="middle" x="1402.5" y="-67.5" font-family="Helvetica,sans-Serif" font-size="10.00">initializer_list</text>
</a>
</g>
</g>
<!-- Node28&#45;&gt;Node32 -->
<g id="edge40" class="edge">
<title>Node28&#45;&gt;Node32</title>
<path fill="none" stroke="#63b8ff" d="M1256.29,-126.37C1285.6,-115.27 1336.7,-95.92 1370.06,-83.28"/>
<polygon fill="#63b8ff" stroke="#63b8ff" points="1371.69,-86.41 1379.8,-79.6 1369.21,-79.86 1371.69,-86.41"/>
</g>
<!-- Node33 -->
<g id="node33" class="node">
<title>Node33</title>
<g id="a_node33"><a xlink:title=" ">
<polygon fill="#e0e0e0" stroke="#999999" points="1515,-79.5 1462,-79.5 1462,-60.5 1515,-60.5 1515,-79.5"/>
<text text-anchor="middle" x="1488.5" y="-67.5" font-family="Helvetica,sans-Serif" font-size="10.00">iterator</text>
</a>
</g>
</g>
<!-- Node28&#45;&gt;Node33 -->
<g id="edge41" class="edge">
<title>Node28&#45;&gt;Node33</title>
<path fill="none" stroke="#63b8ff" d="M1280.85,-126.47C1325.79,-117.86 1394.98,-103.23 1453.5,-85 1455.37,-84.42 1457.29,-83.78 1459.21,-83.1"/>
<polygon fill="#63b8ff" stroke="#63b8ff" points="1460.57,-86.33 1468.71,-79.54 1458.11,-79.78 1460.57,-86.33"/>
</g>
<!-- Node34&#45;&gt;Node4 -->
<g id="edge46" class="edge">
<title>Node34&#45;&gt;Node4</title>
<path fill="none" stroke="#63b8ff" d="M1605.56,-126.19C1620.03,-111 1645.31,-79.2 1630.5,-55 1619.39,-36.84 1598.28,-25.8 1579.63,-19.25"/>
<polygon fill="#63b8ff" stroke="#63b8ff" points="1580.48,-15.85 1569.89,-16.14 1578.35,-22.52 1580.48,-15.85"/>
</g>
<!-- Node34&#45;&gt;Node30 -->
<g id="edge47" class="edge">
<title>Node34&#45;&gt;Node30</title>
<path fill="none" stroke="#63b8ff" d="M1596.5,-126.37C1596.5,-117.16 1596.5,-102.29 1596.5,-90.27"/>
<polygon fill="#63b8ff" stroke="#63b8ff" points="1600,-89.91 1596.5,-79.91 1593,-89.91 1600,-89.91"/>
</g>
<!-- Node35&#45;&gt;Node6 -->
<g id="edge51" class="edge">
<title>Node35&#45;&gt;Node6</title>
<path fill="none" stroke="#63b8ff" d="M609.92,-187C594.13,-178.62 569.95,-165.07 550.5,-151 534.17,-139.19 533.9,-131.16 516.5,-121 491.17,-106.21 460.78,-94.85 434.46,-86.73"/>
<polygon fill="#63b8ff" stroke="#63b8ff" points="435.17,-83.29 424.59,-83.77 433.17,-89.99 435.17,-83.29"/>
</g>
<!-- Node35&#45;&gt;Node7 -->
<g id="edge52" class="edge">
<title>Node35&#45;&gt;Node7</title>
<path fill="none" stroke="#63b8ff" d="M565.98,-187.27C509.47,-178.91 429.73,-165.22 401.5,-151 383.8,-142.08 385.2,-131.68 368.5,-121 348.19,-108 323.92,-97.04 302.69,-88.73"/>
<polygon fill="#63b8ff" stroke="#63b8ff" points="303.76,-85.4 293.17,-85.1 301.27,-91.94 303.76,-85.4"/>
</g>
<!-- Node35&#45;&gt;Node16 -->
<g id="edge54" class="edge">
<title>Node35&#45;&gt;Node16</title>
<path fill="none" stroke="#63b8ff" d="M617.77,-186.94C598.1,-167.66 549.82,-120.33 521.39,-92.46"/>
<polygon fill="#63b8ff" stroke="#63b8ff" points="523.54,-89.66 513.94,-85.16 518.64,-94.66 523.54,-89.66"/>
</g>
<!-- Node36 -->
<g id="node36" class="node">
<title>Node36</title>
<g id="a_node36"><a xlink:title=" ">
<polygon fill="#e0e0e0" stroke="#999999" points="650,-145.5 603,-145.5 603,-126.5 650,-126.5 650,-145.5"/>
<text text-anchor="middle" x="626.5" y="-133.5" font-family="Helvetica,sans-Serif" font-size="10.00">queue</text>
</a>
</g>
</g>
<!-- Node35&#45;&gt;Node36 -->
<g id="edge49" class="edge">
<title>Node35&#45;&gt;Node36</title>
<path fill="none" stroke="#63b8ff" d="M626.5,-186.87C626.5,-178.75 626.5,-166.31 626.5,-155.89"/>
<polygon fill="#63b8ff" stroke="#63b8ff" points="630,-155.67 626.5,-145.67 623,-155.67 630,-155.67"/>
</g>
<!-- Node37 -->
<g id="node37" class="node">
<title>Node37</title>
<g id="a_node37"><a xlink:title=" ">
<polygon fill="#e0e0e0" stroke="#999999" points="828,-145.5 785,-145.5 785,-126.5 828,-126.5 828,-145.5"/>
<text text-anchor="middle" x="806.5" y="-133.5" font-family="Helvetica,sans-Serif" font-size="10.00">stack</text>
</a>
</g>
</g>
<!-- Node35&#45;&gt;Node37 -->
<g id="edge50" class="edge">
<title>Node35&#45;&gt;Node37</title>
<path fill="none" stroke="#63b8ff" d="M659.77,-186.94C690.24,-178.77 736.42,-165.58 775.5,-151 776.71,-150.55 777.95,-150.07 779.19,-149.57"/>
<polygon fill="#63b8ff" stroke="#63b8ff" points="780.8,-152.69 788.64,-145.56 778.07,-146.25 780.8,-152.69"/>
</g>
<!-- Node38 -->
<g id="node38" class="node">
<title>Node38</title>
<g id="a_node38"><a xlink:title=" ">
<polygon fill="#e0e0e0" stroke="#999999" points="959,-151 846,-151 846,-121 959,-121 959,-151"/>
<text text-anchor="start" x="854" y="-139" font-family="Helvetica,sans-Serif" font-size="10.00">absl/container/node</text>
<text text-anchor="middle" x="902.5" y="-128" font-family="Helvetica,sans-Serif" font-size="10.00">_hash_map.h</text>
</a>
</g>
</g>
<!-- Node35&#45;&gt;Node38 -->
<g id="edge53" class="edge">
<title>Node35&#45;&gt;Node38</title>
<path fill="none" stroke="#63b8ff" d="M666.76,-186.97C706.97,-178.45 770.82,-164.92 835.94,-151.12"/>
<polygon fill="#63b8ff" stroke="#63b8ff" points="836.92,-154.49 845.97,-148.99 835.47,-147.64 836.92,-154.49"/>
</g>
<!-- Node35&#45;&gt;Node39 -->
<g id="edge55" class="edge">
<title>Node35&#45;&gt;Node39</title>
<path fill="none" stroke="#63b8ff" d="M568.63,-186.99C493.88,-176.01 364.41,-156.98 288.6,-145.83"/>
<polygon fill="#63b8ff" stroke="#63b8ff" points="288.67,-142.31 278.27,-144.31 287.65,-149.23 288.67,-142.31"/>
</g>
<!-- Node39&#45;&gt;Node17 -->
<g id="edge56" class="edge">
<title>Node39&#45;&gt;Node17</title>
<path fill="none" stroke="#63b8ff" d="M215.01,-126.37C198.54,-115.82 170.43,-97.84 150.74,-85.23"/>
<polygon fill="#63b8ff" stroke="#63b8ff" points="152.4,-82.14 142.09,-79.7 148.63,-88.04 152.4,-82.14"/>
</g>
<!-- Node40&#45;&gt;Node25 -->
<g id="edge61" class="edge">
<title>Node40&#45;&gt;Node25</title>
<path fill="none" stroke="#63b8ff" d="M957.99,-296.75C959.17,-289.8 960.86,-279.85 962.34,-271.13"/>
<polygon fill="#63b8ff" stroke="#63b8ff" points="965.82,-271.53 964.04,-261.09 958.92,-270.36 965.82,-271.53"/>
</g>
</g>
</svg>
