<?xml version="1.0" encoding="UTF-8" standalone="no"?>
<!DOCTYPE svg PUBLIC "-//W3C//DTD SVG 1.1//EN"
 "http://www.w3.org/Graphics/SVG/1.1/DTD/svg11.dtd">
<!-- Generated by graphviz version 2.50.0 (20220203.2022)
 -->
<!-- Title: thorin/fe/tok.h Pages: 1 -->
<svg width="800pt" height="263pt"
 viewBox="0.00 0.00 800.18 263.00" xmlns="http://www.w3.org/2000/svg" xmlns:xlink="http://www.w3.org/1999/xlink">
<g id="graph0" class="graph" transform="scale(1 1) rotate(0) translate(4 259)">
<title>thorin/fe/tok.h</title>
<!-- Node1 -->
<g id="node1" class="node">
<title>Node1</title>
<g id="a_node1"><a xlink:title=" ">
<polygon fill="#bfbfbf" stroke="black" points="299.18,-235.5 299.18,-254.5 375.18,-254.5 375.18,-235.5 299.18,-235.5"/>
<text text-anchor="middle" x="337.18" y="-242.5" font-family="Helvetica,sans-Serif" font-size="10.00">thorin/fe/tok.h</text>
</a>
</g>
</g>
<!-- Node2 -->
<g id="node2" class="node">
<title>Node2</title>
<g id="a_node2"><a xlink:href="debug_8h.html" target="_top" xlink:title=" ">
<polygon fill="none" stroke="black" points="134.68,-179.5 134.68,-198.5 211.68,-198.5 211.68,-179.5 134.68,-179.5"/>
<text text-anchor="middle" x="173.18" y="-186.5" font-family="Helvetica,sans-Serif" font-size="10.00">thorin/debug.h</text>
</a>
</g>
</g>
<!-- Node1&#45;&gt;Node2 -->
<g id="edge1" class="edge">
<title>Node1&#45;&gt;Node2</title>
<path fill="none" stroke="midnightblue" d="M311.19,-235.44C283.48,-226.32 239.43,-211.81 208.56,-201.65"/>
<polygon fill="midnightblue" stroke="midnightblue" points="209.64,-198.32 199.04,-198.52 207.45,-204.97 209.64,-198.32"/>
</g>
<!-- Node16 -->
<g id="node16" class="node">
<title>Node16</title>
<g id="a_node16"><a xlink:href="types_8h.html" target="_top" xlink:title=" ">
<polygon fill="none" stroke="black" points="511.18,-179.5 511.18,-198.5 601.18,-198.5 601.18,-179.5 511.18,-179.5"/>
<text text-anchor="middle" x="556.18" y="-186.5" font-family="Helvetica,sans-Serif" font-size="10.00">thorin/util/types.h</text>
</a>
</g>
</g>
<!-- Node1&#45;&gt;Node16 -->
<g id="edge17" class="edge">
<title>Node1&#45;&gt;Node16</title>
<path fill="none" stroke="midnightblue" d="M371.88,-235.44C409.76,-226.1 470.53,-211.12 511.84,-200.93"/>
<polygon fill="midnightblue" stroke="midnightblue" points="512.77,-204.31 521.64,-198.52 511.09,-197.51 512.77,-204.31"/>
</g>
<!-- Node3 -->
<g id="node3" class="node">
<title>Node3</title>
<g id="a_node3"><a xlink:title=" ">
<polygon fill="none" stroke="#bfbfbf" points="24.68,-56.5 24.68,-75.5 65.68,-75.5 65.68,-56.5 24.68,-56.5"/>
<text text-anchor="middle" x="45.18" y="-63.5" font-family="Helvetica,sans-Serif" font-size="10.00">string</text>
</a>
</g>
</g>
<!-- Node2&#45;&gt;Node3 -->
<g id="edge2" class="edge">
<title>Node2&#45;&gt;Node3</title>
<path fill="none" stroke="midnightblue" d="M134.33,-183.07C89.76,-176.52 20.81,-163.36 5.18,-143 -9.49,-123.89 10.29,-98.63 26.88,-82.59"/>
<polygon fill="midnightblue" stroke="midnightblue" points="29.58,-84.86 34.6,-75.53 24.86,-79.7 29.58,-84.86"/>
</g>
<!-- Node4 -->
<g id="node4" class="node">
<title>Node4</title>
<g id="a_node4"><a xlink:title=" ">
<polygon fill="none" stroke="#bfbfbf" points="14.18,-118 14.18,-137 52.18,-137 52.18,-118 14.18,-118"/>
<text text-anchor="middle" x="33.18" y="-125" font-family="Helvetica,sans-Serif" font-size="10.00">tuple</text>
</a>
</g>
</g>
<!-- Node2&#45;&gt;Node4 -->
<g id="edge3" class="edge">
<title>Node2&#45;&gt;Node4</title>
<path fill="none" stroke="midnightblue" d="M150.17,-179.5C127.34,-170.88 91.47,-156.89 61.18,-143 60.18,-142.54 59.17,-142.07 58.16,-141.58"/>
<polygon fill="midnightblue" stroke="midnightblue" points="59.55,-138.37 49.04,-137.05 56.43,-144.64 59.55,-138.37"/>
</g>
<!-- Node5 -->
<g id="node5" class="node">
<title>Node5</title>
<g id="a_node5"><a xlink:title=" ">
<polygon fill="none" stroke="#bfbfbf" points="70.68,-112.5 70.68,-142.5 163.68,-142.5 163.68,-112.5 70.68,-112.5"/>
<text text-anchor="start" x="78.68" y="-130.5" font-family="Helvetica,sans-Serif" font-size="10.00">absl/container/flat</text>
<text text-anchor="middle" x="117.18" y="-119.5" font-family="Helvetica,sans-Serif" font-size="10.00">_hash_map.h</text>
</a>
</g>
</g>
<!-- Node2&#45;&gt;Node5 -->
<g id="edge4" class="edge">
<title>Node2&#45;&gt;Node5</title>
<path fill="none" stroke="midnightblue" d="M165.16,-179.48C157.93,-171.79 146.99,-160.17 137.38,-149.96"/>
<polygon fill="midnightblue" stroke="midnightblue" points="139.78,-147.41 130.38,-142.52 134.68,-152.2 139.78,-147.41"/>
</g>
<!-- Node6 -->
<g id="node6" class="node">
<title>Node6</title>
<g id="a_node6"><a xlink:title=" ">
<polygon fill="none" stroke="#bfbfbf" points="181.68,-112.5 181.68,-142.5 274.68,-142.5 274.68,-112.5 181.68,-112.5"/>
<text text-anchor="start" x="189.68" y="-130.5" font-family="Helvetica,sans-Serif" font-size="10.00">absl/container/flat</text>
<text text-anchor="middle" x="228.18" y="-119.5" font-family="Helvetica,sans-Serif" font-size="10.00">_hash_set.h</text>
</a>
</g>
</g>
<!-- Node2&#45;&gt;Node6 -->
<g id="edge5" class="edge">
<title>Node2&#45;&gt;Node6</title>
<path fill="none" stroke="midnightblue" d="M181.06,-179.48C188.16,-171.79 198.9,-160.17 208.34,-149.96"/>
<polygon fill="midnightblue" stroke="midnightblue" points="211,-152.24 215.22,-142.52 205.86,-147.49 211,-152.24"/>
</g>
<!-- Node7 -->
<g id="node7" class="node">
<title>Node7</title>
<g id="a_node7"><a xlink:href="stream_8h.html" target="_top" xlink:title=" ">
<polygon fill="none" stroke="black" points="292.68,-118 292.68,-137 389.68,-137 389.68,-118 292.68,-118"/>
<text text-anchor="middle" x="341.18" y="-125" font-family="Helvetica,sans-Serif" font-size="10.00">thorin/util/stream.h</text>
</a>
</g>
</g>
<!-- Node2&#45;&gt;Node7 -->
<g id="edge6" class="edge">
<title>Node2&#45;&gt;Node7</title>
<path fill="none" stroke="midnightblue" d="M197.25,-179.48C226.19,-169.22 274.94,-151.96 307.58,-140.4"/>
<polygon fill="midnightblue" stroke="midnightblue" points="308.9,-143.65 317.15,-137.01 306.56,-137.05 308.9,-143.65"/>
</g>
<!-- Node7&#45;&gt;Node3 -->
<g id="edge14" class="edge">
<title>Node7&#45;&gt;Node3</title>
<path fill="none" stroke="midnightblue" d="M308.44,-117.96C300.21,-115.91 291.39,-113.8 283.18,-112 209.22,-95.78 121.55,-80.11 76.06,-72.25"/>
<polygon fill="midnightblue" stroke="midnightblue" points="76.4,-68.76 65.96,-70.51 75.22,-75.65 76.4,-68.76"/>
</g>
<!-- Node8 -->
<g id="node8" class="node">
<title>Node8</title>
<g id="a_node8"><a xlink:title=" ">
<polygon fill="none" stroke="#bfbfbf" points="334.68,-0.5 334.68,-19.5 383.68,-19.5 383.68,-0.5 334.68,-0.5"/>
<text text-anchor="middle" x="359.18" y="-7.5" font-family="Helvetica,sans-Serif" font-size="10.00">cassert</text>
</a>
</g>
</g>
<!-- Node7&#45;&gt;Node8 -->
<g id="edge7" class="edge">
<title>Node7&#45;&gt;Node8</title>
<path fill="none" stroke="midnightblue" d="M307.14,-117.97C299.27,-116.01 290.94,-113.93 283.18,-112 215.73,-95.25 93.19,-109.8 137.18,-56 160.39,-27.61 267.59,-16.7 324.09,-12.87"/>
<polygon fill="midnightblue" stroke="midnightblue" points="324.59,-16.35 334.35,-12.22 324.15,-9.36 324.59,-16.35"/>
</g>
<!-- Node9 -->
<g id="node9" class="node">
<title>Node9</title>
<g id="a_node9"><a xlink:title=" ">
<polygon fill="none" stroke="#bfbfbf" points="146.18,-56.5 146.18,-75.5 192.18,-75.5 192.18,-56.5 146.18,-56.5"/>
<text text-anchor="middle" x="169.18" y="-63.5" font-family="Helvetica,sans-Serif" font-size="10.00">cstring</text>
</a>
</g>
</g>
<!-- Node7&#45;&gt;Node9 -->
<g id="edge8" class="edge">
<title>Node7&#45;&gt;Node9</title>
<path fill="none" stroke="midnightblue" d="M316.54,-117.98C286.48,-107.58 235.57,-89.97 202.16,-78.41"/>
<polygon fill="midnightblue" stroke="midnightblue" points="203,-74.99 192.4,-75.03 200.71,-81.61 203,-74.99"/>
</g>
<!-- Node10 -->
<g id="node10" class="node">
<title>Node10</title>
<g id="a_node10"><a xlink:title=" ">
<polygon fill="none" stroke="#bfbfbf" points="210.18,-56.5 210.18,-75.5 260.18,-75.5 260.18,-56.5 210.18,-56.5"/>
<text text-anchor="middle" x="235.18" y="-63.5" font-family="Helvetica,sans-Serif" font-size="10.00">fstream</text>
</a>
</g>
</g>
<!-- Node7&#45;&gt;Node10 -->
<g id="edge9" class="edge">
<title>Node7&#45;&gt;Node10</title>
<path fill="none" stroke="midnightblue" d="M325.99,-117.98C308.52,-108.17 279.6,-91.93 259.1,-80.42"/>
<polygon fill="midnightblue" stroke="midnightblue" points="260.77,-77.35 250.34,-75.51 257.35,-83.46 260.77,-77.35"/>
</g>
<!-- Node11 -->
<g id="node11" class="node">
<title>Node11</title>
<g id="a_node11"><a xlink:title=" ">
<polygon fill="none" stroke="#bfbfbf" points="278.18,-56.5 278.18,-75.5 332.18,-75.5 332.18,-56.5 278.18,-56.5"/>
<text text-anchor="middle" x="305.18" y="-63.5" font-family="Helvetica,sans-Serif" font-size="10.00">iostream</text>
</a>
</g>
</g>
<!-- Node7&#45;&gt;Node11 -->
<g id="edge10" class="edge">
<title>Node7&#45;&gt;Node11</title>
<path fill="none" stroke="midnightblue" d="M336.02,-117.98C330.73,-109.23 322.34,-95.37 315.65,-84.31"/>
<polygon fill="midnightblue" stroke="midnightblue" points="318.5,-82.25 310.33,-75.51 312.51,-85.88 318.5,-82.25"/>
</g>
<!-- Node12 -->
<g id="node12" class="node">
<title>Node12</title>
<g id="a_node12"><a xlink:title=" ">
<polygon fill="none" stroke="#bfbfbf" points="350.68,-56.5 350.68,-75.5 401.68,-75.5 401.68,-56.5 350.68,-56.5"/>
<text text-anchor="middle" x="376.18" y="-63.5" font-family="Helvetica,sans-Serif" font-size="10.00">memory</text>
</a>
</g>
</g>
<!-- Node7&#45;&gt;Node12 -->
<g id="edge11" class="edge">
<title>Node7&#45;&gt;Node12</title>
<path fill="none" stroke="midnightblue" d="M346.19,-117.98C351.34,-109.23 359.49,-95.37 366,-84.31"/>
<polygon fill="midnightblue" stroke="midnightblue" points="369.12,-85.9 371.17,-75.51 363.09,-82.35 369.12,-85.9"/>
</g>
<!-- Node13 -->
<g id="node13" class="node">
<title>Node13</title>
<g id="a_node13"><a xlink:title=" ">
<polygon fill="none" stroke="#bfbfbf" points="420.18,-56.5 420.18,-75.5 466.18,-75.5 466.18,-56.5 420.18,-56.5"/>
<text text-anchor="middle" x="443.18" y="-63.5" font-family="Helvetica,sans-Serif" font-size="10.00">ranges</text>
</a>
</g>
</g>
<!-- Node7&#45;&gt;Node13 -->
<g id="edge12" class="edge">
<title>Node7&#45;&gt;Node13</title>
<path fill="none" stroke="midnightblue" d="M355.79,-117.98C372.53,-108.21 400.18,-92.08 419.9,-80.58"/>
<polygon fill="midnightblue" stroke="midnightblue" points="421.72,-83.57 428.59,-75.51 418.19,-77.52 421.72,-83.57"/>
</g>
<!-- Node14 -->
<g id="node14" class="node">
<title>Node14</title>
<g id="a_node14"><a xlink:title=" ">
<polygon fill="none" stroke="#bfbfbf" points="484.18,-56.5 484.18,-75.5 536.18,-75.5 536.18,-56.5 484.18,-56.5"/>
<text text-anchor="middle" x="510.18" y="-63.5" font-family="Helvetica,sans-Serif" font-size="10.00">sstream</text>
</a>
</g>
</g>
<!-- Node7&#45;&gt;Node14 -->
<g id="edge13" class="edge">
<title>Node7&#45;&gt;Node14</title>
<path fill="none" stroke="midnightblue" d="M365.39,-117.98C394.51,-107.72 443.55,-90.46 476.38,-78.9"/>
<polygon fill="midnightblue" stroke="midnightblue" points="477.74,-82.13 486.01,-75.51 475.42,-75.53 477.74,-82.13"/>
</g>
<!-- Node15 -->
<g id="node15" class="node">
<title>Node15</title>
<g id="a_node15"><a xlink:href="assert_8h.html" target="_top" xlink:title=" ">
<polygon fill="none" stroke="black" points="554.18,-56.5 554.18,-75.5 648.18,-75.5 648.18,-56.5 554.18,-56.5"/>
<text text-anchor="middle" x="601.18" y="-63.5" font-family="Helvetica,sans-Serif" font-size="10.00">thorin/util/assert.h</text>
</a>
</g>
</g>
<!-- Node7&#45;&gt;Node15 -->
<g id="edge15" class="edge">
<title>Node7&#45;&gt;Node15</title>
<path fill="none" stroke="midnightblue" d="M374.57,-118C382.62,-115.99 391.2,-113.89 399.18,-112 450.92,-99.77 510.33,-86.65 551.26,-77.75"/>
<polygon fill="midnightblue" stroke="midnightblue" points="552.22,-81.12 561.25,-75.58 550.74,-74.28 552.22,-81.12"/>
</g>
<!-- Node15&#45;&gt;Node8 -->
<g id="edge16" class="edge">
<title>Node15&#45;&gt;Node8</title>
<path fill="none" stroke="midnightblue" d="M562.83,-56.44C516.22,-46.04 438.26,-28.65 393.53,-18.66"/>
<polygon fill="midnightblue" stroke="midnightblue" points="394.23,-15.24 383.71,-16.47 392.71,-22.07 394.23,-15.24"/>
</g>
<!-- Node17 -->
<g id="node17" class="node">
<title>Node17</title>
<g id="a_node17"><a xlink:title=" ">
<polygon fill="none" stroke="#bfbfbf" points="408.18,-118 408.18,-137 454.18,-137 454.18,-118 408.18,-118"/>
<text text-anchor="middle" x="431.18" y="-125" font-family="Helvetica,sans-Serif" font-size="10.00">cstdint</text>
</a>
</g>
</g>
<!-- Node16&#45;&gt;Node17 -->
<g id="edge18" class="edge">
<title>Node16&#45;&gt;Node17</title>
<path fill="none" stroke="midnightblue" d="M538.27,-179.48C517.29,-169.49 482.33,-152.85 458.09,-141.31"/>
<polygon fill="midnightblue" stroke="midnightblue" points="459.59,-138.15 449.06,-137.01 456.58,-144.47 459.59,-138.15"/>
</g>
<!-- Node18 -->
<g id="node18" class="node">
<title>Node18</title>
<g id="a_node18"><a xlink:title=" ">
<polygon fill="none" stroke="#bfbfbf" points="472.18,-118 472.18,-137 512.18,-137 512.18,-118 472.18,-118"/>
<text text-anchor="middle" x="492.18" y="-125" font-family="Helvetica,sans-Serif" font-size="10.00">limits</text>
</a>
</g>
</g>
<!-- Node16&#45;&gt;Node18 -->
<g id="edge19" class="edge">
<title>Node16&#45;&gt;Node18</title>
<path fill="none" stroke="midnightblue" d="M547.01,-179.48C537.03,-170.2 520.87,-155.17 508.67,-143.83"/>
<polygon fill="midnightblue" stroke="midnightblue" points="511.04,-141.25 501.33,-137.01 506.27,-146.38 511.04,-141.25"/>
</g>
<!-- Node19 -->
<g id="node19" class="node">
<title>Node19</title>
<g id="a_node19"><a xlink:title=" ">
<polygon fill="none" stroke="#bfbfbf" points="530.18,-118 530.18,-137 582.18,-137 582.18,-118 530.18,-118"/>
<text text-anchor="middle" x="556.18" y="-125" font-family="Helvetica,sans-Serif" font-size="10.00">ostream</text>
</a>
</g>
</g>
<!-- Node16&#45;&gt;Node19 -->
<g id="edge20" class="edge">
<title>Node16&#45;&gt;Node19</title>
<path fill="none" stroke="midnightblue" d="M556.18,-179.48C556.18,-171.08 556.18,-157.98 556.18,-147.16"/>
<polygon fill="midnightblue" stroke="midnightblue" points="559.68,-147.01 556.18,-137.01 552.68,-147.01 559.68,-147.01"/>
</g>
<!-- Node20 -->
<g id="node20" class="node">
<title>Node20</title>
<g id="a_node20"><a xlink:title=" ">
<polygon fill="none" stroke="#bfbfbf" points="600.18,-118 600.18,-137 662.18,-137 662.18,-118 600.18,-118"/>
<text text-anchor="middle" x="631.18" y="-125" font-family="Helvetica,sans-Serif" font-size="10.00">type_traits</text>
</a>
</g>
</g>
<!-- Node16&#45;&gt;Node20 -->
<g id="edge21" class="edge">
<title>Node16&#45;&gt;Node20</title>
<path fill="none" stroke="midnightblue" d="M566.93,-179.48C578.73,-170.11 597.92,-154.88 612.26,-143.51"/>
<polygon fill="midnightblue" stroke="midnightblue" points="614.8,-145.97 620.45,-137.01 610.44,-140.48 614.8,-145.97"/>
</g>
<!-- Node21 -->
<g id="node21" class="node">
<title>Node21</title>
<g id="a_node21"><a xlink:title=" ">
<polygon fill="none" stroke="#bfbfbf" points="680.18,-118 680.18,-137 724.18,-137 724.18,-118 680.18,-118"/>
<text text-anchor="middle" x="702.18" y="-125" font-family="Helvetica,sans-Serif" font-size="10.00">cmath</text>
</a>
</g>
</g>
<!-- Node16&#45;&gt;Node21 -->
<g id="edge22" class="edge">
<title>Node16&#45;&gt;Node21</title>
<path fill="none" stroke="midnightblue" d="M579.27,-179.47C602.61,-170.72 639.66,-156.52 671.18,-143 672.38,-142.49 673.6,-141.95 674.83,-141.41"/>
<polygon fill="midnightblue" stroke="midnightblue" points="676.58,-144.46 684.24,-137.13 673.69,-138.08 676.58,-144.46"/>
</g>
<!-- Node22 -->
<g id="node22" class="node">
<title>Node22</title>
<g id="a_node22"><a xlink:title=" ">
<polygon fill="none" stroke="#bfbfbf" points="742.18,-118 742.18,-137 792.18,-137 792.18,-118 742.18,-118"/>
<text text-anchor="middle" x="767.18" y="-125" font-family="Helvetica,sans-Serif" font-size="10.00">half.hpp</text>
</a>
</g>
</g>
<!-- Node16&#45;&gt;Node22 -->
<g id="edge23" class="edge">
<title>Node16&#45;&gt;Node22</title>
<path fill="none" stroke="midnightblue" d="M597.12,-179.48C633.33,-171.49 687.37,-158.49 733.18,-143 735.1,-142.35 737.05,-141.64 739.02,-140.9"/>
<polygon fill="midnightblue" stroke="midnightblue" points="740.71,-143.99 748.68,-137 738.09,-137.5 740.71,-143.99"/>
</g>
</g>
</svg>
