<?xml version="1.0" encoding="UTF-8" standalone="no"?>
<!DOCTYPE svg PUBLIC "-//W3C//DTD SVG 1.1//EN"
 "http://www.w3.org/Graphics/SVG/1.1/DTD/svg11.dtd">
<!-- Generated by graphviz version 2.50.0 (20220203.2022)
 -->
<!-- Title: thorin/fe/tok.cpp Pages: 1 -->
<svg width="632pt" height="319pt"
 viewBox="0.00 0.00 631.50 319.00" xmlns="http://www.w3.org/2000/svg" xmlns:xlink="http://www.w3.org/1999/xlink">
<g id="graph0" class="graph" transform="scale(1 1) rotate(0) translate(4 315)">
<title>thorin/fe/tok.cpp</title>
<!-- Node1 -->
<g id="node1" class="node">
<title>Node1</title>
<g id="a_node1"><a xlink:title=" ">
<polygon fill="#bfbfbf" stroke="black" points="364.5,-291.5 364.5,-310.5 450.5,-310.5 450.5,-291.5 364.5,-291.5"/>
<text text-anchor="middle" x="407.5" y="-298.5" font-family="Helvetica,sans-Serif" font-size="10.00">thorin/fe/tok.cpp</text>
</a>
</g>
</g>
<!-- Node2 -->
<g id="node2" class="node">
<title>Node2</title>
<g id="a_node2"><a xlink:href="tok_8h.html" target="_top" xlink:title=" ">
<polygon fill="none" stroke="black" points="336.5,-235.5 336.5,-254.5 412.5,-254.5 412.5,-235.5 336.5,-235.5"/>
<text text-anchor="middle" x="374.5" y="-242.5" font-family="Helvetica,sans-Serif" font-size="10.00">thorin/fe/tok.h</text>
</a>
</g>
</g>
<!-- Node1&#45;&gt;Node2 -->
<g id="edge1" class="edge">
<title>Node1&#45;&gt;Node2</title>
<path fill="none" stroke="midnightblue" d="M402.05,-291.08C397.49,-283.61 390.83,-272.72 385.21,-263.52"/>
<polygon fill="midnightblue" stroke="midnightblue" points="388.05,-261.46 379.85,-254.75 382.08,-265.11 388.05,-261.46"/>
</g>
<!-- Node16 -->
<g id="node16" class="node">
<title>Node16</title>
<g id="a_node16"><a xlink:href="assert_8h.html" target="_top" xlink:title=" ">
<polygon fill="none" stroke="black" points="529.5,-56.5 529.5,-75.5 623.5,-75.5 623.5,-56.5 529.5,-56.5"/>
<text text-anchor="middle" x="576.5" y="-63.5" font-family="Helvetica,sans-Serif" font-size="10.00">thorin/util/assert.h</text>
</a>
</g>
</g>
<!-- Node1&#45;&gt;Node16 -->
<g id="edge18" class="edge">
<title>Node1&#45;&gt;Node16</title>
<path fill="none" stroke="midnightblue" d="M413.72,-291.43C438.5,-257.26 530.58,-130.31 564.15,-84.03"/>
<polygon fill="midnightblue" stroke="midnightblue" points="567.01,-86.05 570.05,-75.9 561.34,-81.94 567.01,-86.05"/>
</g>
<!-- Node3 -->
<g id="node3" class="node">
<title>Node3</title>
<g id="a_node3"><a xlink:href="debug_8h.html" target="_top" xlink:title=" ">
<polygon fill="none" stroke="black" points="145,-179.5 145,-198.5 222,-198.5 222,-179.5 145,-179.5"/>
<text text-anchor="middle" x="183.5" y="-186.5" font-family="Helvetica,sans-Serif" font-size="10.00">thorin/debug.h</text>
</a>
</g>
</g>
<!-- Node2&#45;&gt;Node3 -->
<g id="edge2" class="edge">
<title>Node2&#45;&gt;Node3</title>
<path fill="none" stroke="midnightblue" d="M344.24,-235.44C311.54,-226.2 259.32,-211.44 223.32,-201.26"/>
<polygon fill="midnightblue" stroke="midnightblue" points="224.2,-197.87 213.62,-198.52 222.29,-204.61 224.2,-197.87"/>
</g>
<!-- Node4 -->
<g id="node4" class="node">
<title>Node4</title>
<g id="a_node4"><a xlink:title=" ">
<polygon fill="none" stroke="#bfbfbf" points="0,-56.5 0,-75.5 41,-75.5 41,-56.5 0,-56.5"/>
<text text-anchor="middle" x="20.5" y="-63.5" font-family="Helvetica,sans-Serif" font-size="10.00">string</text>
</a>
</g>
</g>
<!-- Node3&#45;&gt;Node4 -->
<g id="edge3" class="edge">
<title>Node3&#45;&gt;Node4</title>
<path fill="none" stroke="midnightblue" d="M144.65,-183.07C100.08,-176.52 31.13,-163.36 15.5,-143 2.95,-126.65 7.54,-102.04 13.04,-85.28"/>
<polygon fill="midnightblue" stroke="midnightblue" points="16.45,-86.17 16.62,-75.58 9.88,-83.75 16.45,-86.17"/>
</g>
<!-- Node5 -->
<g id="node5" class="node">
<title>Node5</title>
<g id="a_node5"><a xlink:title=" ">
<polygon fill="none" stroke="#bfbfbf" points="24.5,-118 24.5,-137 62.5,-137 62.5,-118 24.5,-118"/>
<text text-anchor="middle" x="43.5" y="-125" font-family="Helvetica,sans-Serif" font-size="10.00">tuple</text>
</a>
</g>
</g>
<!-- Node3&#45;&gt;Node5 -->
<g id="edge4" class="edge">
<title>Node3&#45;&gt;Node5</title>
<path fill="none" stroke="midnightblue" d="M160.49,-179.5C137.66,-170.88 101.79,-156.89 71.5,-143 70.5,-142.54 69.49,-142.07 68.48,-141.58"/>
<polygon fill="midnightblue" stroke="midnightblue" points="69.87,-138.37 59.36,-137.05 66.75,-144.64 69.87,-138.37"/>
</g>
<!-- Node6 -->
<g id="node6" class="node">
<title>Node6</title>
<g id="a_node6"><a xlink:title=" ">
<polygon fill="none" stroke="#bfbfbf" points="81,-112.5 81,-142.5 174,-142.5 174,-112.5 81,-112.5"/>
<text text-anchor="start" x="89" y="-130.5" font-family="Helvetica,sans-Serif" font-size="10.00">absl/container/flat</text>
<text text-anchor="middle" x="127.5" y="-119.5" font-family="Helvetica,sans-Serif" font-size="10.00">_hash_map.h</text>
</a>
</g>
</g>
<!-- Node3&#45;&gt;Node6 -->
<g id="edge5" class="edge">
<title>Node3&#45;&gt;Node6</title>
<path fill="none" stroke="midnightblue" d="M175.48,-179.48C168.25,-171.79 157.31,-160.17 147.7,-149.96"/>
<polygon fill="midnightblue" stroke="midnightblue" points="150.1,-147.41 140.7,-142.52 145,-152.2 150.1,-147.41"/>
</g>
<!-- Node7 -->
<g id="node7" class="node">
<title>Node7</title>
<g id="a_node7"><a xlink:title=" ">
<polygon fill="none" stroke="#bfbfbf" points="192,-112.5 192,-142.5 285,-142.5 285,-112.5 192,-112.5"/>
<text text-anchor="start" x="200" y="-130.5" font-family="Helvetica,sans-Serif" font-size="10.00">absl/container/flat</text>
<text text-anchor="middle" x="238.5" y="-119.5" font-family="Helvetica,sans-Serif" font-size="10.00">_hash_set.h</text>
</a>
</g>
</g>
<!-- Node3&#45;&gt;Node7 -->
<g id="edge6" class="edge">
<title>Node3&#45;&gt;Node7</title>
<path fill="none" stroke="midnightblue" d="M191.38,-179.48C198.48,-171.79 209.22,-160.17 218.66,-149.96"/>
<polygon fill="midnightblue" stroke="midnightblue" points="221.32,-152.24 225.54,-142.52 216.18,-147.49 221.32,-152.24"/>
</g>
<!-- Node8 -->
<g id="node8" class="node">
<title>Node8</title>
<g id="a_node8"><a xlink:href="stream_8h.html" target="_top" xlink:title=" ">
<polygon fill="none" stroke="black" points="303,-118 303,-137 400,-137 400,-118 303,-118"/>
<text text-anchor="middle" x="351.5" y="-125" font-family="Helvetica,sans-Serif" font-size="10.00">thorin/util/stream.h</text>
</a>
</g>
</g>
<!-- Node3&#45;&gt;Node8 -->
<g id="edge7" class="edge">
<title>Node3&#45;&gt;Node8</title>
<path fill="none" stroke="midnightblue" d="M207.57,-179.48C236.51,-169.22 285.26,-151.96 317.9,-140.4"/>
<polygon fill="midnightblue" stroke="midnightblue" points="319.22,-143.65 327.47,-137.01 316.88,-137.05 319.22,-143.65"/>
</g>
<!-- Node8&#45;&gt;Node4 -->
<g id="edge15" class="edge">
<title>Node8&#45;&gt;Node4</title>
<path fill="none" stroke="midnightblue" d="M319.39,-117.98C311,-115.89 301.94,-113.75 293.5,-112 247.57,-102.49 112.87,-81.31 51.54,-71.79"/>
<polygon fill="midnightblue" stroke="midnightblue" points="51.74,-68.28 41.33,-70.21 50.67,-75.2 51.74,-68.28"/>
</g>
<!-- Node9 -->
<g id="node9" class="node">
<title>Node9</title>
<g id="a_node9"><a xlink:title=" ">
<polygon fill="none" stroke="#bfbfbf" points="310,-0.5 310,-19.5 359,-19.5 359,-0.5 310,-0.5"/>
<text text-anchor="middle" x="334.5" y="-7.5" font-family="Helvetica,sans-Serif" font-size="10.00">cassert</text>
</a>
</g>
</g>
<!-- Node8&#45;&gt;Node9 -->
<g id="edge8" class="edge">
<title>Node8&#45;&gt;Node9</title>
<path fill="none" stroke="midnightblue" d="M318.44,-117.94C310.3,-115.91 301.6,-113.82 293.5,-112 213.47,-94.05 164.53,-139.4 112.5,-76 106.86,-69.13 106.87,-62.88 112.5,-56 135.71,-27.61 242.91,-16.7 299.41,-12.87"/>
<polygon fill="midnightblue" stroke="midnightblue" points="299.91,-16.35 309.67,-12.22 299.47,-9.36 299.91,-16.35"/>
</g>
<!-- Node10 -->
<g id="node10" class="node">
<title>Node10</title>
<g id="a_node10"><a xlink:title=" ">
<polygon fill="none" stroke="#bfbfbf" points="121.5,-56.5 121.5,-75.5 167.5,-75.5 167.5,-56.5 121.5,-56.5"/>
<text text-anchor="middle" x="144.5" y="-63.5" font-family="Helvetica,sans-Serif" font-size="10.00">cstring</text>
</a>
</g>
</g>
<!-- Node8&#45;&gt;Node10 -->
<g id="edge9" class="edge">
<title>Node8&#45;&gt;Node10</title>
<path fill="none" stroke="midnightblue" d="M321.84,-117.98C283.59,-106.98 217.24,-87.91 177.45,-76.47"/>
<polygon fill="midnightblue" stroke="midnightblue" points="178.28,-73.07 167.7,-73.67 176.34,-79.79 178.28,-73.07"/>
</g>
<!-- Node11 -->
<g id="node11" class="node">
<title>Node11</title>
<g id="a_node11"><a xlink:title=" ">
<polygon fill="none" stroke="#bfbfbf" points="185.5,-56.5 185.5,-75.5 235.5,-75.5 235.5,-56.5 185.5,-56.5"/>
<text text-anchor="middle" x="210.5" y="-63.5" font-family="Helvetica,sans-Serif" font-size="10.00">fstream</text>
</a>
</g>
</g>
<!-- Node8&#45;&gt;Node11 -->
<g id="edge10" class="edge">
<title>Node8&#45;&gt;Node11</title>
<path fill="none" stroke="midnightblue" d="M331.3,-117.98C307.43,-107.9 267.5,-91.05 240.13,-79.5"/>
<polygon fill="midnightblue" stroke="midnightblue" points="241.24,-76.17 230.66,-75.51 238.52,-82.62 241.24,-76.17"/>
</g>
<!-- Node12 -->
<g id="node12" class="node">
<title>Node12</title>
<g id="a_node12"><a xlink:title=" ">
<polygon fill="none" stroke="#bfbfbf" points="253.5,-56.5 253.5,-75.5 307.5,-75.5 307.5,-56.5 253.5,-56.5"/>
<text text-anchor="middle" x="280.5" y="-63.5" font-family="Helvetica,sans-Serif" font-size="10.00">iostream</text>
</a>
</g>
</g>
<!-- Node8&#45;&gt;Node12 -->
<g id="edge11" class="edge">
<title>Node8&#45;&gt;Node12</title>
<path fill="none" stroke="midnightblue" d="M341.33,-117.98C330.15,-108.61 311.98,-93.38 298.41,-82.01"/>
<polygon fill="midnightblue" stroke="midnightblue" points="300.57,-79.25 290.65,-75.51 296.07,-84.61 300.57,-79.25"/>
</g>
<!-- Node13 -->
<g id="node13" class="node">
<title>Node13</title>
<g id="a_node13"><a xlink:title=" ">
<polygon fill="none" stroke="#bfbfbf" points="326,-56.5 326,-75.5 377,-75.5 377,-56.5 326,-56.5"/>
<text text-anchor="middle" x="351.5" y="-63.5" font-family="Helvetica,sans-Serif" font-size="10.00">memory</text>
</a>
</g>
</g>
<!-- Node8&#45;&gt;Node13 -->
<g id="edge12" class="edge">
<title>Node8&#45;&gt;Node13</title>
<path fill="none" stroke="midnightblue" d="M351.5,-117.98C351.5,-109.58 351.5,-96.48 351.5,-85.66"/>
<polygon fill="midnightblue" stroke="midnightblue" points="355,-85.51 351.5,-75.51 348,-85.51 355,-85.51"/>
</g>
<!-- Node14 -->
<g id="node14" class="node">
<title>Node14</title>
<g id="a_node14"><a xlink:title=" ">
<polygon fill="none" stroke="#bfbfbf" points="395.5,-56.5 395.5,-75.5 441.5,-75.5 441.5,-56.5 395.5,-56.5"/>
<text text-anchor="middle" x="418.5" y="-63.5" font-family="Helvetica,sans-Serif" font-size="10.00">ranges</text>
</a>
</g>
</g>
<!-- Node8&#45;&gt;Node14 -->
<g id="edge13" class="edge">
<title>Node8&#45;&gt;Node14</title>
<path fill="none" stroke="midnightblue" d="M361.1,-117.98C371.55,-108.7 388.47,-93.67 401.24,-82.33"/>
<polygon fill="midnightblue" stroke="midnightblue" points="403.77,-84.77 408.92,-75.51 399.12,-79.53 403.77,-84.77"/>
</g>
<!-- Node15 -->
<g id="node15" class="node">
<title>Node15</title>
<g id="a_node15"><a xlink:title=" ">
<polygon fill="none" stroke="#bfbfbf" points="459.5,-56.5 459.5,-75.5 511.5,-75.5 511.5,-56.5 459.5,-56.5"/>
<text text-anchor="middle" x="485.5" y="-63.5" font-family="Helvetica,sans-Serif" font-size="10.00">sstream</text>
</a>
</g>
</g>
<!-- Node8&#45;&gt;Node15 -->
<g id="edge14" class="edge">
<title>Node8&#45;&gt;Node15</title>
<path fill="none" stroke="midnightblue" d="M370.7,-117.98C393.29,-107.95 431,-91.2 457,-79.65"/>
<polygon fill="midnightblue" stroke="midnightblue" points="458.62,-82.77 466.34,-75.51 455.78,-76.37 458.62,-82.77"/>
</g>
<!-- Node8&#45;&gt;Node16 -->
<g id="edge16" class="edge">
<title>Node8&#45;&gt;Node16</title>
<path fill="none" stroke="midnightblue" d="M383.74,-117.98C423.42,-107.48 490.9,-89.64 534.57,-78.09"/>
<polygon fill="midnightblue" stroke="midnightblue" points="535.55,-81.45 544.32,-75.51 533.76,-74.68 535.55,-81.45"/>
</g>
<!-- Node16&#45;&gt;Node9 -->
<g id="edge17" class="edge">
<title>Node16&#45;&gt;Node9</title>
<path fill="none" stroke="midnightblue" d="M538.15,-56.44C491.54,-46.04 413.58,-28.65 368.85,-18.66"/>
<polygon fill="midnightblue" stroke="midnightblue" points="369.55,-15.24 359.03,-16.47 368.03,-22.07 369.55,-15.24"/>
</g>
</g>
</svg>
