<?xml version="1.0" encoding="UTF-8" standalone="no"?>
<!DOCTYPE svg PUBLIC "-//W3C//DTD SVG 1.1//EN"
 "http://www.w3.org/Graphics/SVG/1.1/DTD/svg11.dtd">
<!-- Generated by graphviz version 2.43.0 (0)
 -->
<!-- Title: thorin/fe/tok.cpp Pages: 1 -->
<svg width="1846pt" height="375pt"
 viewBox="0.00 0.00 1846.08 375.00" xmlns="http://www.w3.org/2000/svg" xmlns:xlink="http://www.w3.org/1999/xlink">
<g id="graph0" class="graph" transform="scale(1 1) rotate(0) translate(4 371)">
<title>thorin/fe/tok.cpp</title>
<!-- Node1 -->
<g id="node1" class="node">
<title>Node1</title>
<g id="a_node1"><a xlink:title=" ">
<polygon fill="#bfbfbf" stroke="black" points="962.58,-347.5 962.58,-366.5 1059.58,-366.5 1059.58,-347.5 962.58,-347.5"/>
<text text-anchor="middle" x="1011.08" y="-354.5" font-family="Helvetica,sans-Serif" font-size="10.00">thorin/fe/tok.cpp</text>
</a>
</g>
</g>
<!-- Node2 -->
<g id="node2" class="node">
<title>Node2</title>
<g id="a_node2"><a xlink:href="tok_8h.html" target="_top" xlink:title=" ">
<polygon fill="none" stroke="black" points="481.08,-235.5 481.08,-254.5 567.08,-254.5 567.08,-235.5 481.08,-235.5"/>
<text text-anchor="middle" x="524.08" y="-242.5" font-family="Helvetica,sans-Serif" font-size="10.00">thorin/fe/tok.h</text>
</a>
</g>
</g>
<!-- Node1&#45;&gt;Node2 -->
<g id="edge1" class="edge">
<title>Node1&#45;&gt;Node2</title>
<path fill="none" stroke="midnightblue" d="M973.27,-347.46C885.53,-327.64 668.23,-278.56 571.65,-256.75"/>
<polygon fill="midnightblue" stroke="midnightblue" points="572.39,-253.32 561.87,-254.53 570.85,-260.15 572.39,-253.32"/>
</g>
<!-- Node7 -->
<g id="node7" class="node">
<title>Node7</title>
<g id="a_node7"><a xlink:href="assert_8h.html" target="_top" xlink:title=" ">
<polygon fill="none" stroke="black" points="1020.08,-118 1020.08,-137 1126.08,-137 1126.08,-118 1020.08,-118"/>
<text text-anchor="middle" x="1073.08" y="-125" font-family="Helvetica,sans-Serif" font-size="10.00">thorin/util/assert.h</text>
</a>
</g>
</g>
<!-- Node1&#45;&gt;Node7 -->
<g id="edge55" class="edge">
<title>Node1&#45;&gt;Node7</title>
<path fill="none" stroke="midnightblue" d="M1045.02,-347.5C1065.56,-340.74 1090.83,-329.31 1107.08,-311 1141.88,-271.79 1135.75,-250.76 1144.08,-199 1145.49,-190.22 1148.16,-186.9 1144.08,-179 1135.52,-162.41 1118.72,-150.08 1103.61,-141.76"/>
<polygon fill="midnightblue" stroke="midnightblue" points="1105,-138.54 1094.51,-137.09 1101.81,-144.77 1105,-138.54"/>
</g>
<!-- Node16 -->
<g id="node16" class="node">
<title>Node16</title>
<g id="a_node16"><a xlink:href="lam_8h.html" target="_top" xlink:title=" ">
<polygon fill="none" stroke="black" points="1022.08,-291.5 1022.08,-310.5 1098.08,-310.5 1098.08,-291.5 1022.08,-291.5"/>
<text text-anchor="middle" x="1060.08" y="-298.5" font-family="Helvetica,sans-Serif" font-size="10.00">thorin/lam.h</text>
</a>
</g>
</g>
<!-- Node1&#45;&gt;Node16 -->
<g id="edge15" class="edge">
<title>Node1&#45;&gt;Node16</title>
<path fill="none" stroke="midnightblue" d="M1019.17,-347.08C1026.24,-339.3 1036.67,-327.8 1045.23,-318.37"/>
<polygon fill="midnightblue" stroke="midnightblue" points="1048.01,-320.51 1052.14,-310.75 1042.83,-315.8 1048.01,-320.51"/>
</g>
<!-- Node39 -->
<g id="node39" class="node">
<title>Node39</title>
<g id="a_node39"><a xlink:href="tuple_8h.html" target="_top" xlink:title=" ">
<polygon fill="none" stroke="black" points="922.08,-291.5 922.08,-310.5 1004.08,-310.5 1004.08,-291.5 922.08,-291.5"/>
<text text-anchor="middle" x="963.08" y="-298.5" font-family="Helvetica,sans-Serif" font-size="10.00">thorin/tuple.h</text>
</a>
</g>
</g>
<!-- Node1&#45;&gt;Node39 -->
<g id="edge53" class="edge">
<title>Node1&#45;&gt;Node39</title>
<path fill="none" stroke="midnightblue" d="M1003.15,-347.08C996.23,-339.3 986.02,-327.8 977.63,-318.37"/>
<polygon fill="midnightblue" stroke="midnightblue" points="980.12,-315.9 970.86,-310.75 974.89,-320.55 980.12,-315.9"/>
</g>
<!-- Node3 -->
<g id="node3" class="node">
<title>Node3</title>
<g id="a_node3"><a xlink:href="debug_8h.html" target="_top" xlink:title=" ">
<polygon fill="none" stroke="black" points="371.58,-179.5 371.58,-198.5 458.58,-198.5 458.58,-179.5 371.58,-179.5"/>
<text text-anchor="middle" x="415.08" y="-186.5" font-family="Helvetica,sans-Serif" font-size="10.00">thorin/debug.h</text>
</a>
</g>
</g>
<!-- Node2&#45;&gt;Node3 -->
<g id="edge2" class="edge">
<title>Node2&#45;&gt;Node3</title>
<path fill="none" stroke="midnightblue" d="M506.57,-235.32C489.01,-226.62 461.75,-213.12 441.55,-203.11"/>
<polygon fill="midnightblue" stroke="midnightblue" points="443.06,-199.96 432.55,-198.65 439.96,-206.23 443.06,-199.96"/>
</g>
<!-- Node2&#45;&gt;Node7 -->
<g id="edge6" class="edge">
<title>Node2&#45;&gt;Node7</title>
<path fill="none" stroke="midnightblue" d="M567.12,-243.28C668.21,-241.05 918.03,-232.24 994.08,-199 1021.33,-187.09 1045.69,-162.07 1059.93,-145.27"/>
<polygon fill="midnightblue" stroke="midnightblue" points="1062.79,-147.31 1066.42,-137.35 1057.38,-142.87 1062.79,-147.31"/>
</g>
<!-- Node9 -->
<g id="node9" class="node">
<title>Node9</title>
<g id="a_node9"><a xlink:href="types_8h.html" target="_top" xlink:title=" ">
<polygon fill="none" stroke="black" points="732.58,-56.5 732.58,-75.5 835.58,-75.5 835.58,-56.5 732.58,-56.5"/>
<text text-anchor="middle" x="784.08" y="-63.5" font-family="Helvetica,sans-Serif" font-size="10.00">thorin/util/types.h</text>
</a>
</g>
</g>
<!-- Node2&#45;&gt;Node9 -->
<g id="edge8" class="edge">
<title>Node2&#45;&gt;Node9</title>
<path fill="none" stroke="midnightblue" d="M481.01,-240.27C345.43,-227.75 -59.75,-183.87 8.08,-112 32.48,-86.14 542.78,-72.36 722.29,-68.3"/>
<polygon fill="midnightblue" stroke="midnightblue" points="722.44,-71.79 732.36,-68.07 722.29,-64.79 722.44,-71.79"/>
</g>
<!-- Node4 -->
<g id="node4" class="node">
<title>Node4</title>
<g id="a_node4"><a xlink:title=" ">
<polygon fill="none" stroke="#bfbfbf" points="393.08,-118 393.08,-137 437.08,-137 437.08,-118 393.08,-118"/>
<text text-anchor="middle" x="415.08" y="-125" font-family="Helvetica,sans-Serif" font-size="10.00">string</text>
</a>
</g>
</g>
<!-- Node3&#45;&gt;Node4 -->
<g id="edge3" class="edge">
<title>Node3&#45;&gt;Node4</title>
<path fill="none" stroke="midnightblue" d="M415.08,-179.48C415.08,-171.08 415.08,-157.98 415.08,-147.16"/>
<polygon fill="midnightblue" stroke="midnightblue" points="418.58,-147.01 415.08,-137.01 411.58,-147.01 418.58,-147.01"/>
</g>
<!-- Node5 -->
<g id="node5" class="node">
<title>Node5</title>
<g id="a_node5"><a xlink:title=" ">
<polygon fill="none" stroke="#bfbfbf" points="17.08,-112.5 17.08,-142.5 121.08,-142.5 121.08,-112.5 17.08,-112.5"/>
<text text-anchor="start" x="25.08" y="-130.5" font-family="Helvetica,sans-Serif" font-size="10.00">absl/container/flat</text>
<text text-anchor="middle" x="69.08" y="-119.5" font-family="Helvetica,sans-Serif" font-size="10.00">_hash_map.h</text>
</a>
</g>
</g>
<!-- Node3&#45;&gt;Node5 -->
<g id="edge4" class="edge">
<title>Node3&#45;&gt;Node5</title>
<path fill="none" stroke="midnightblue" d="M371.44,-182.17C317.33,-174.71 222.09,-160.81 131.18,-143.13"/>
<polygon fill="midnightblue" stroke="midnightblue" points="131.75,-139.68 121.27,-141.18 130.41,-146.54 131.75,-139.68"/>
</g>
<!-- Node6 -->
<g id="node6" class="node">
<title>Node6</title>
<g id="a_node6"><a xlink:title=" ">
<polygon fill="none" stroke="#bfbfbf" points="139.08,-112.5 139.08,-142.5 243.08,-142.5 243.08,-112.5 139.08,-112.5"/>
<text text-anchor="start" x="147.08" y="-130.5" font-family="Helvetica,sans-Serif" font-size="10.00">absl/container/flat</text>
<text text-anchor="middle" x="191.08" y="-119.5" font-family="Helvetica,sans-Serif" font-size="10.00">_hash_set.h</text>
</a>
</g>
</g>
<!-- Node3&#45;&gt;Node6 -->
<g id="edge5" class="edge">
<title>Node3&#45;&gt;Node6</title>
<path fill="none" stroke="midnightblue" d="M382.99,-179.48C349.28,-170.52 295.42,-156.21 253.32,-145.03"/>
<polygon fill="midnightblue" stroke="midnightblue" points="254.01,-141.59 243.44,-142.41 252.21,-148.36 254.01,-141.59"/>
</g>
<!-- Node8 -->
<g id="node8" class="node">
<title>Node8</title>
<g id="a_node8"><a xlink:title=" ">
<polygon fill="none" stroke="#bfbfbf" points="1639.08,-56.5 1639.08,-75.5 1691.08,-75.5 1691.08,-56.5 1639.08,-56.5"/>
<text text-anchor="middle" x="1665.08" y="-63.5" font-family="Helvetica,sans-Serif" font-size="10.00">cassert</text>
</a>
</g>
</g>
<!-- Node7&#45;&gt;Node8 -->
<g id="edge7" class="edge">
<title>Node7&#45;&gt;Node8</title>
<path fill="none" stroke="midnightblue" d="M1106.26,-117.94C1115.83,-115.72 1126.32,-113.53 1136.08,-112 1320.09,-83.15 1543.2,-71.81 1629.04,-68.31"/>
<polygon fill="midnightblue" stroke="midnightblue" points="1629.2,-71.8 1639.05,-67.91 1628.92,-64.81 1629.2,-71.8"/>
</g>
<!-- Node10 -->
<g id="node10" class="node">
<title>Node10</title>
<g id="a_node10"><a xlink:title=" ">
<polygon fill="none" stroke="#bfbfbf" points="865.08,-0.5 865.08,-19.5 915.08,-19.5 915.08,-0.5 865.08,-0.5"/>
<text text-anchor="middle" x="890.08" y="-7.5" font-family="Helvetica,sans-Serif" font-size="10.00">cstdint</text>
</a>
</g>
</g>
<!-- Node9&#45;&gt;Node10 -->
<g id="edge9" class="edge">
<title>Node9&#45;&gt;Node10</title>
<path fill="none" stroke="midnightblue" d="M801.11,-56.32C818.11,-47.66 844.46,-34.24 864.07,-24.25"/>
<polygon fill="midnightblue" stroke="midnightblue" points="865.77,-27.31 873.09,-19.65 862.59,-21.08 865.77,-27.31"/>
</g>
<!-- Node11 -->
<g id="node11" class="node">
<title>Node11</title>
<g id="a_node11"><a xlink:title=" ">
<polygon fill="none" stroke="#bfbfbf" points="663.08,-0.5 663.08,-19.5 707.08,-19.5 707.08,-0.5 663.08,-0.5"/>
<text text-anchor="middle" x="685.08" y="-7.5" font-family="Helvetica,sans-Serif" font-size="10.00">limits</text>
</a>
</g>
</g>
<!-- Node9&#45;&gt;Node11 -->
<g id="edge10" class="edge">
<title>Node9&#45;&gt;Node11</title>
<path fill="none" stroke="midnightblue" d="M768.18,-56.32C752.44,-47.74 728.14,-34.49 709.87,-24.52"/>
<polygon fill="midnightblue" stroke="midnightblue" points="711.4,-21.37 700.95,-19.65 708.05,-27.52 711.4,-21.37"/>
</g>
<!-- Node12 -->
<g id="node12" class="node">
<title>Node12</title>
<g id="a_node12"><a xlink:title=" ">
<polygon fill="none" stroke="#bfbfbf" points="941.58,-0.5 941.58,-19.5 998.58,-19.5 998.58,-0.5 941.58,-0.5"/>
<text text-anchor="middle" x="970.08" y="-7.5" font-family="Helvetica,sans-Serif" font-size="10.00">ostream</text>
</a>
</g>
</g>
<!-- Node9&#45;&gt;Node12 -->
<g id="edge11" class="edge">
<title>Node9&#45;&gt;Node12</title>
<path fill="none" stroke="midnightblue" d="M813.55,-56.44C845.44,-47.19 896.41,-32.39 931.47,-22.21"/>
<polygon fill="midnightblue" stroke="midnightblue" points="932.73,-25.49 941.36,-19.34 930.78,-18.77 932.73,-25.49"/>
</g>
<!-- Node13 -->
<g id="node13" class="node">
<title>Node13</title>
<g id="a_node13"><a xlink:title=" ">
<polygon fill="none" stroke="#bfbfbf" points="1188.58,-0.5 1188.58,-19.5 1257.58,-19.5 1257.58,-0.5 1188.58,-0.5"/>
<text text-anchor="middle" x="1223.08" y="-7.5" font-family="Helvetica,sans-Serif" font-size="10.00">type_traits</text>
</a>
</g>
</g>
<!-- Node9&#45;&gt;Node13 -->
<g id="edge12" class="edge">
<title>Node9&#45;&gt;Node13</title>
<path fill="none" stroke="midnightblue" d="M835.73,-58.65C922.56,-47.97 1096.33,-26.59 1178.31,-16.51"/>
<polygon fill="midnightblue" stroke="midnightblue" points="1178.81,-19.97 1188.31,-15.28 1177.96,-13.02 1178.81,-19.97"/>
</g>
<!-- Node14 -->
<g id="node14" class="node">
<title>Node14</title>
<g id="a_node14"><a xlink:title=" ">
<polygon fill="none" stroke="#bfbfbf" points="725.58,-0.5 725.58,-19.5 772.58,-19.5 772.58,-0.5 725.58,-0.5"/>
<text text-anchor="middle" x="749.08" y="-7.5" font-family="Helvetica,sans-Serif" font-size="10.00">cmath</text>
</a>
</g>
</g>
<!-- Node9&#45;&gt;Node14 -->
<g id="edge13" class="edge">
<title>Node9&#45;&gt;Node14</title>
<path fill="none" stroke="midnightblue" d="M778.3,-56.08C773.41,-48.53 766.25,-37.49 760.25,-28.23"/>
<polygon fill="midnightblue" stroke="midnightblue" points="763.13,-26.24 754.75,-19.75 757.26,-30.05 763.13,-26.24"/>
</g>
<!-- Node15 -->
<g id="node15" class="node">
<title>Node15</title>
<g id="a_node15"><a xlink:title=" ">
<polygon fill="none" stroke="#bfbfbf" points="791.08,-0.5 791.08,-19.5 847.08,-19.5 847.08,-0.5 791.08,-0.5"/>
<text text-anchor="middle" x="819.08" y="-7.5" font-family="Helvetica,sans-Serif" font-size="10.00">half.hpp</text>
</a>
</g>
</g>
<!-- Node9&#45;&gt;Node15 -->
<g id="edge14" class="edge">
<title>Node9&#45;&gt;Node15</title>
<path fill="none" stroke="midnightblue" d="M789.86,-56.08C794.75,-48.53 801.91,-37.49 807.91,-28.23"/>
<polygon fill="midnightblue" stroke="midnightblue" points="810.91,-30.05 813.41,-19.75 805.03,-26.24 810.91,-30.05"/>
</g>
<!-- Node17 -->
<g id="node17" class="node">
<title>Node17</title>
<g id="a_node17"><a xlink:title=" ">
<polygon fill="none" stroke="#bfbfbf" points="1034.58,-235.5 1034.58,-254.5 1085.58,-254.5 1085.58,-235.5 1034.58,-235.5"/>
<text text-anchor="middle" x="1060.08" y="-242.5" font-family="Helvetica,sans-Serif" font-size="10.00">variant</text>
</a>
</g>
</g>
<!-- Node16&#45;&gt;Node17 -->
<g id="edge16" class="edge">
<title>Node16&#45;&gt;Node17</title>
<path fill="none" stroke="midnightblue" d="M1060.08,-291.08C1060.08,-284.01 1060.08,-273.86 1060.08,-264.99"/>
<polygon fill="midnightblue" stroke="midnightblue" points="1063.58,-264.75 1060.08,-254.75 1056.58,-264.75 1063.58,-264.75"/>
</g>
<!-- Node18 -->
<g id="node18" class="node">
<title>Node18</title>
<g id="a_node18"><a xlink:href="def_8h.html" target="_top" xlink:title=" ">
<polygon fill="none" stroke="black" points="936.08,-235.5 936.08,-254.5 1008.08,-254.5 1008.08,-235.5 936.08,-235.5"/>
<text text-anchor="middle" x="972.08" y="-242.5" font-family="Helvetica,sans-Serif" font-size="10.00">thorin/def.h</text>
</a>
</g>
</g>
<!-- Node16&#45;&gt;Node18 -->
<g id="edge17" class="edge">
<title>Node16&#45;&gt;Node18</title>
<path fill="none" stroke="midnightblue" d="M1045.94,-291.32C1032.21,-282.9 1011.14,-269.97 995.02,-260.07"/>
<polygon fill="midnightblue" stroke="midnightblue" points="996.54,-256.9 986.18,-254.65 992.88,-262.87 996.54,-256.9"/>
</g>
<!-- Node18&#45;&gt;Node3 -->
<g id="edge20" class="edge">
<title>Node18&#45;&gt;Node3</title>
<path fill="none" stroke="midnightblue" d="M936.07,-241.68C853.48,-236.15 644.14,-221.01 470.08,-199 469.74,-198.96 469.4,-198.91 469.05,-198.87"/>
<polygon fill="midnightblue" stroke="midnightblue" points="469.26,-195.36 458.87,-197.46 468.3,-202.3 469.26,-195.36"/>
</g>
<!-- Node19 -->
<g id="node19" class="node">
<title>Node19</title>
<g id="a_node19"><a xlink:title=" ">
<polygon fill="none" stroke="#bfbfbf" points="1079.08,-179.5 1079.08,-198.5 1135.08,-198.5 1135.08,-179.5 1079.08,-179.5"/>
<text text-anchor="middle" x="1107.08" y="-186.5" font-family="Helvetica,sans-Serif" font-size="10.00">optional</text>
</a>
</g>
</g>
<!-- Node18&#45;&gt;Node19 -->
<g id="edge18" class="edge">
<title>Node18&#45;&gt;Node19</title>
<path fill="none" stroke="midnightblue" d="M993.47,-235.44C1015.79,-226.52 1050.98,-212.44 1076.29,-202.32"/>
<polygon fill="midnightblue" stroke="midnightblue" points="1077.81,-205.48 1085.79,-198.52 1075.21,-198.98 1077.81,-205.48"/>
</g>
<!-- Node20 -->
<g id="node20" class="node">
<title>Node20</title>
<g id="a_node20"><a xlink:title=" ">
<polygon fill="none" stroke="#bfbfbf" points="1296.58,-118 1296.58,-137 1343.58,-137 1343.58,-118 1296.58,-118"/>
<text text-anchor="middle" x="1320.08" y="-125" font-family="Helvetica,sans-Serif" font-size="10.00">vector</text>
</a>
</g>
</g>
<!-- Node18&#45;&gt;Node20 -->
<g id="edge19" class="edge">
<title>Node18&#45;&gt;Node20</title>
<path fill="none" stroke="midnightblue" d="M981.86,-235.43C998.64,-221.22 1034.56,-192.98 1070.08,-179 1161.05,-143.19 1193.38,-170.88 1287.08,-143 1289.23,-142.36 1291.41,-141.62 1293.59,-140.81"/>
<polygon fill="midnightblue" stroke="midnightblue" points="1294.98,-144.03 1302.92,-137.01 1292.34,-137.55 1294.98,-144.03"/>
</g>
<!-- Node21 -->
<g id="node21" class="node">
<title>Node21</title>
<g id="a_node21"><a xlink:href="array_8h.html" target="_top" xlink:title=" ">
<polygon fill="none" stroke="black" points="1382.08,-179.5 1382.08,-198.5 1482.08,-198.5 1482.08,-179.5 1382.08,-179.5"/>
<text text-anchor="middle" x="1432.08" y="-186.5" font-family="Helvetica,sans-Serif" font-size="10.00">thorin/util/array.h</text>
</a>
</g>
</g>
<!-- Node18&#45;&gt;Node21 -->
<g id="edge21" class="edge">
<title>Node18&#45;&gt;Node21</title>
<path fill="none" stroke="midnightblue" d="M1008.35,-237.68C1014.27,-236.72 1020.34,-235.8 1026.08,-235 1148.43,-218.04 1292.24,-203.32 1371.67,-195.65"/>
<polygon fill="midnightblue" stroke="midnightblue" points="1372.35,-199.1 1381.97,-194.66 1371.68,-192.14 1372.35,-199.1"/>
</g>
<!-- Node29 -->
<g id="node29" class="node">
<title>Node29</title>
<g id="a_node29"><a xlink:href="cast_8h.html" target="_top" xlink:title=" ">
<polygon fill="none" stroke="black" points="1742.08,-179.5 1742.08,-198.5 1838.08,-198.5 1838.08,-179.5 1742.08,-179.5"/>
<text text-anchor="middle" x="1790.08" y="-186.5" font-family="Helvetica,sans-Serif" font-size="10.00">thorin/util/cast.h</text>
</a>
</g>
</g>
<!-- Node18&#45;&gt;Node29 -->
<g id="edge32" class="edge">
<title>Node18&#45;&gt;Node29</title>
<path fill="none" stroke="midnightblue" d="M1008.32,-237.42C1014.24,-236.5 1020.32,-235.65 1026.08,-235 1288.07,-205.54 1602.91,-194.71 1731.28,-191.33"/>
<polygon fill="midnightblue" stroke="midnightblue" points="1731.75,-194.82 1741.66,-191.07 1731.57,-187.83 1731.75,-194.82"/>
</g>
<!-- Node30 -->
<g id="node30" class="node">
<title>Node30</title>
<g id="a_node30"><a xlink:href="container_8h.html" target="_top" xlink:title=" ">
<polygon fill="none" stroke="black" points="479.58,-179.5 479.58,-198.5 600.58,-198.5 600.58,-179.5 479.58,-179.5"/>
<text text-anchor="middle" x="540.08" y="-186.5" font-family="Helvetica,sans-Serif" font-size="10.00">thorin/util/container.h</text>
</a>
</g>
</g>
<!-- Node18&#45;&gt;Node30 -->
<g id="edge35" class="edge">
<title>Node18&#45;&gt;Node30</title>
<path fill="none" stroke="midnightblue" d="M935.99,-239.49C864.65,-230.57 704.42,-210.54 611.14,-198.88"/>
<polygon fill="midnightblue" stroke="midnightblue" points="611.3,-195.38 600.94,-197.61 610.43,-202.32 611.3,-195.38"/>
</g>
<!-- Node35 -->
<g id="node35" class="node">
<title>Node35</title>
<g id="a_node35"><a xlink:href="hash_8h.html" target="_top" xlink:title=" ">
<polygon fill="none" stroke="black" points="712.58,-118 712.58,-137 811.58,-137 811.58,-118 712.58,-118"/>
<text text-anchor="middle" x="762.08" y="-125" font-family="Helvetica,sans-Serif" font-size="10.00">thorin/util/hash.h</text>
</a>
</g>
</g>
<!-- Node18&#45;&gt;Node35 -->
<g id="edge44" class="edge">
<title>Node18&#45;&gt;Node35</title>
<path fill="none" stroke="midnightblue" d="M952.72,-235.41C933.51,-226.74 903.38,-212.7 878.08,-199 844.57,-180.85 807.1,-157.5 784.06,-142.76"/>
<polygon fill="midnightblue" stroke="midnightblue" points="785.7,-139.66 775.4,-137.19 781.92,-145.55 785.7,-139.66"/>
</g>
<!-- Node36 -->
<g id="node36" class="node">
<title>Node36</title>
<g id="a_node36"><a xlink:href="print_8h.html" target="_top" xlink:title=" ">
<polygon fill="none" stroke="black" points="887.08,-179.5 887.08,-198.5 985.08,-198.5 985.08,-179.5 887.08,-179.5"/>
<text text-anchor="middle" x="936.08" y="-186.5" font-family="Helvetica,sans-Serif" font-size="10.00">thorin/util/print.h</text>
</a>
</g>
</g>
<!-- Node18&#45;&gt;Node36 -->
<g id="edge45" class="edge">
<title>Node18&#45;&gt;Node36</title>
<path fill="none" stroke="midnightblue" d="M966.14,-235.08C961.1,-227.53 953.74,-216.49 947.57,-207.23"/>
<polygon fill="midnightblue" stroke="midnightblue" points="950.37,-205.13 941.92,-198.75 944.55,-209.01 950.37,-205.13"/>
</g>
<!-- Node21&#45;&gt;Node8 -->
<g id="edge22" class="edge">
<title>Node21&#45;&gt;Node8</title>
<path fill="none" stroke="midnightblue" d="M1482.41,-183.55C1538.13,-177.59 1623.11,-165.12 1646.08,-143 1661.43,-128.22 1665.11,-103.06 1665.65,-85.77"/>
<polygon fill="midnightblue" stroke="midnightblue" points="1669.15,-85.72 1665.65,-75.73 1662.15,-85.73 1669.15,-85.72"/>
</g>
<!-- Node21&#45;&gt;Node13 -->
<g id="edge30" class="edge">
<title>Node21&#45;&gt;Node13</title>
<path fill="none" stroke="midnightblue" d="M1423.6,-179.26C1409.42,-164.79 1379.85,-135.16 1353.08,-112 1315.57,-79.55 1269.18,-44.68 1243.18,-25.59"/>
<polygon fill="midnightblue" stroke="midnightblue" points="1245.02,-22.6 1234.88,-19.52 1240.89,-28.25 1245.02,-22.6"/>
</g>
<!-- Node21&#45;&gt;Node20 -->
<g id="edge31" class="edge">
<title>Node21&#45;&gt;Node20</title>
<path fill="none" stroke="midnightblue" d="M1416.03,-179.48C1397.49,-169.62 1366.74,-153.29 1345.06,-141.77"/>
<polygon fill="midnightblue" stroke="midnightblue" points="1346.57,-138.61 1336.1,-137.01 1343.29,-144.79 1346.57,-138.61"/>
</g>
<!-- Node22 -->
<g id="node22" class="node">
<title>Node22</title>
<g id="a_node22"><a xlink:title=" ">
<polygon fill="none" stroke="#bfbfbf" points="1693.58,-118 1693.58,-137 1746.58,-137 1746.58,-118 1693.58,-118"/>
<text text-anchor="middle" x="1720.08" y="-125" font-family="Helvetica,sans-Serif" font-size="10.00">cstddef</text>
</a>
</g>
</g>
<!-- Node21&#45;&gt;Node22 -->
<g id="edge23" class="edge">
<title>Node21&#45;&gt;Node22</title>
<path fill="none" stroke="midnightblue" d="M1482.27,-181.26C1532.55,-173.95 1611.9,-160.88 1679.08,-143 1682.05,-142.21 1685.11,-141.3 1688.16,-140.34"/>
<polygon fill="midnightblue" stroke="midnightblue" points="1689.36,-143.63 1697.73,-137.13 1687.13,-136.99 1689.36,-143.63"/>
</g>
<!-- Node23 -->
<g id="node23" class="node">
<title>Node23</title>
<g id="a_node23"><a xlink:title=" ">
<polygon fill="none" stroke="#bfbfbf" points="1765.08,-118 1765.08,-137 1815.08,-137 1815.08,-118 1765.08,-118"/>
<text text-anchor="middle" x="1790.08" y="-125" font-family="Helvetica,sans-Serif" font-size="10.00">cstring</text>
</a>
</g>
</g>
<!-- Node21&#45;&gt;Node23 -->
<g id="edge24" class="edge">
<title>Node21&#45;&gt;Node23</title>
<path fill="none" stroke="midnightblue" d="M1482.32,-185.16C1546.73,-180.58 1661.41,-169.26 1756.08,-143 1758.38,-142.36 1760.72,-141.61 1763.05,-140.78"/>
<polygon fill="midnightblue" stroke="midnightblue" points="1764.39,-144.01 1772.4,-137.09 1761.82,-137.5 1764.39,-144.01"/>
</g>
<!-- Node24 -->
<g id="node24" class="node">
<title>Node24</title>
<g id="a_node24"><a xlink:title=" ">
<polygon fill="none" stroke="#bfbfbf" points="1400.08,-118 1400.08,-137 1464.08,-137 1464.08,-118 1400.08,-118"/>
<text text-anchor="middle" x="1432.08" y="-125" font-family="Helvetica,sans-Serif" font-size="10.00">algorithm</text>
</a>
</g>
</g>
<!-- Node21&#45;&gt;Node24 -->
<g id="edge25" class="edge">
<title>Node21&#45;&gt;Node24</title>
<path fill="none" stroke="midnightblue" d="M1432.08,-179.48C1432.08,-171.08 1432.08,-157.98 1432.08,-147.16"/>
<polygon fill="midnightblue" stroke="midnightblue" points="1435.58,-147.01 1432.08,-137.01 1428.58,-147.01 1435.58,-147.01"/>
</g>
<!-- Node25 -->
<g id="node25" class="node">
<title>Node25</title>
<g id="a_node25"><a xlink:title=" ">
<polygon fill="none" stroke="#bfbfbf" points="1144.58,-118 1144.58,-137 1209.58,-137 1209.58,-118 1144.58,-118"/>
<text text-anchor="middle" x="1177.08" y="-125" font-family="Helvetica,sans-Serif" font-size="10.00">functional</text>
</a>
</g>
</g>
<!-- Node21&#45;&gt;Node25 -->
<g id="edge26" class="edge">
<title>Node21&#45;&gt;Node25</title>
<path fill="none" stroke="midnightblue" d="M1383.02,-179.43C1339.58,-171.41 1274.63,-158.39 1219.08,-143 1216.13,-142.18 1213.08,-141.27 1210.04,-140.31"/>
<polygon fill="midnightblue" stroke="midnightblue" points="1211.06,-136.96 1200.47,-137.15 1208.86,-143.61 1211.06,-136.96"/>
</g>
<!-- Node26 -->
<g id="node26" class="node">
<title>Node26</title>
<g id="a_node26"><a xlink:title=" ">
<polygon fill="none" stroke="#bfbfbf" points="1482.58,-118 1482.58,-137 1565.58,-137 1565.58,-118 1482.58,-118"/>
<text text-anchor="middle" x="1524.08" y="-125" font-family="Helvetica,sans-Serif" font-size="10.00">initializer_list</text>
</a>
</g>
</g>
<!-- Node21&#45;&gt;Node26 -->
<g id="edge27" class="edge">
<title>Node21&#45;&gt;Node26</title>
<path fill="none" stroke="midnightblue" d="M1445.26,-179.48C1460.16,-169.84 1484.63,-154.02 1502.35,-142.55"/>
<polygon fill="midnightblue" stroke="midnightblue" points="1504.43,-145.38 1510.92,-137.01 1500.63,-139.5 1504.43,-145.38"/>
</g>
<!-- Node27 -->
<g id="node27" class="node">
<title>Node27</title>
<g id="a_node27"><a xlink:title=" ">
<polygon fill="none" stroke="#bfbfbf" points="1583.58,-118 1583.58,-137 1636.58,-137 1636.58,-118 1583.58,-118"/>
<text text-anchor="middle" x="1610.08" y="-125" font-family="Helvetica,sans-Serif" font-size="10.00">iterator</text>
</a>
</g>
</g>
<!-- Node21&#45;&gt;Node27 -->
<g id="edge28" class="edge">
<title>Node21&#45;&gt;Node27</title>
<path fill="none" stroke="midnightblue" d="M1461.91,-179.44C1491.02,-170.9 1536.44,-157.05 1575.08,-143 1576.94,-142.33 1578.84,-141.61 1580.75,-140.87"/>
<polygon fill="midnightblue" stroke="midnightblue" points="1582.23,-144.05 1590.21,-137.09 1579.63,-137.55 1582.23,-144.05"/>
</g>
<!-- Node28 -->
<g id="node28" class="node">
<title>Node28</title>
<g id="a_node28"><a xlink:title=" ">
<polygon fill="none" stroke="#bfbfbf" points="1228.08,-118 1228.08,-137 1278.08,-137 1278.08,-118 1228.08,-118"/>
<text text-anchor="middle" x="1253.08" y="-125" font-family="Helvetica,sans-Serif" font-size="10.00">ranges</text>
</a>
</g>
</g>
<!-- Node21&#45;&gt;Node28 -->
<g id="edge29" class="edge">
<title>Node21&#45;&gt;Node28</title>
<path fill="none" stroke="midnightblue" d="M1402.03,-179.47C1372.72,-170.94 1326.99,-157.11 1288.08,-143 1286.23,-142.33 1284.33,-141.61 1282.41,-140.88"/>
<polygon fill="midnightblue" stroke="midnightblue" points="1283.53,-137.56 1272.95,-137.09 1280.94,-144.06 1283.53,-137.56"/>
</g>
<!-- Node29&#45;&gt;Node8 -->
<g id="edge33" class="edge">
<title>Node29&#45;&gt;Node8</title>
<path fill="none" stroke="midnightblue" d="M1799.47,-179.35C1814.45,-164.5 1840.47,-133.67 1824.08,-112 1809.29,-92.45 1743.38,-78.94 1701.2,-72.13"/>
<polygon fill="midnightblue" stroke="midnightblue" points="1701.71,-68.67 1691.29,-70.58 1700.63,-75.58 1701.71,-68.67"/>
</g>
<!-- Node29&#45;&gt;Node23 -->
<g id="edge34" class="edge">
<title>Node29&#45;&gt;Node23</title>
<path fill="none" stroke="midnightblue" d="M1790.08,-179.48C1790.08,-171.08 1790.08,-157.98 1790.08,-147.16"/>
<polygon fill="midnightblue" stroke="midnightblue" points="1793.58,-147.01 1790.08,-137.01 1786.58,-147.01 1793.58,-147.01"/>
</g>
<!-- Node30&#45;&gt;Node5 -->
<g id="edge38" class="edge">
<title>Node30&#45;&gt;Node5</title>
<path fill="none" stroke="midnightblue" d="M479.54,-180.46C475.33,-179.96 471.14,-179.47 467.08,-179 320.65,-162.15 280.26,-168.19 131.21,-143.06"/>
<polygon fill="midnightblue" stroke="midnightblue" points="131.68,-139.59 121.23,-141.36 130.5,-146.49 131.68,-139.59"/>
</g>
<!-- Node30&#45;&gt;Node6 -->
<g id="edge39" class="edge">
<title>Node30&#45;&gt;Node6</title>
<path fill="none" stroke="midnightblue" d="M479.44,-179.93C423.21,-172.13 337.04,-159.37 253.21,-143.13"/>
<polygon fill="midnightblue" stroke="midnightblue" points="253.75,-139.67 243.27,-141.19 252.41,-146.54 253.75,-139.67"/>
</g>
<!-- Node31 -->
<g id="node31" class="node">
<title>Node31</title>
<g id="a_node31"><a xlink:title=" ">
<polygon fill="none" stroke="#bfbfbf" points="455.58,-118 455.58,-137 502.58,-137 502.58,-118 455.58,-118"/>
<text text-anchor="middle" x="479.08" y="-125" font-family="Helvetica,sans-Serif" font-size="10.00">queue</text>
</a>
</g>
</g>
<!-- Node30&#45;&gt;Node31 -->
<g id="edge36" class="edge">
<title>Node30&#45;&gt;Node31</title>
<path fill="none" stroke="midnightblue" d="M531.34,-179.48C521.92,-170.28 506.72,-155.46 495.13,-144.16"/>
<polygon fill="midnightblue" stroke="midnightblue" points="497.41,-141.49 487.8,-137.01 492.52,-146.5 497.41,-141.49"/>
</g>
<!-- Node32 -->
<g id="node32" class="node">
<title>Node32</title>
<g id="a_node32"><a xlink:title=" ">
<polygon fill="none" stroke="#bfbfbf" points="520.58,-118 520.58,-137 563.58,-137 563.58,-118 520.58,-118"/>
<text text-anchor="middle" x="542.08" y="-125" font-family="Helvetica,sans-Serif" font-size="10.00">stack</text>
</a>
</g>
</g>
<!-- Node30&#45;&gt;Node32 -->
<g id="edge37" class="edge">
<title>Node30&#45;&gt;Node32</title>
<path fill="none" stroke="midnightblue" d="M540.37,-179.48C540.65,-171.08 541.09,-157.98 541.45,-147.16"/>
<polygon fill="midnightblue" stroke="midnightblue" points="544.96,-147.12 541.8,-137.01 537.96,-146.89 544.96,-147.12"/>
</g>
<!-- Node33 -->
<g id="node33" class="node">
<title>Node33</title>
<g id="a_node33"><a xlink:title=" ">
<polygon fill="none" stroke="#bfbfbf" points="581.58,-112.5 581.58,-142.5 694.58,-142.5 694.58,-112.5 581.58,-112.5"/>
<text text-anchor="start" x="589.58" y="-130.5" font-family="Helvetica,sans-Serif" font-size="10.00">absl/container/node</text>
<text text-anchor="middle" x="638.08" y="-119.5" font-family="Helvetica,sans-Serif" font-size="10.00">_hash_map.h</text>
</a>
</g>
</g>
<!-- Node30&#45;&gt;Node33 -->
<g id="edge40" class="edge">
<title>Node30&#45;&gt;Node33</title>
<path fill="none" stroke="midnightblue" d="M554.12,-179.48C567.64,-171.27 588.57,-158.56 606.15,-147.88"/>
<polygon fill="midnightblue" stroke="midnightblue" points="608.25,-150.7 614.98,-142.52 604.62,-144.72 608.25,-150.7"/>
</g>
<!-- Node34 -->
<g id="node34" class="node">
<title>Node34</title>
<g id="a_node34"><a xlink:title=" ">
<polygon fill="none" stroke="#bfbfbf" points="261.58,-112.5 261.58,-142.5 374.58,-142.5 374.58,-112.5 261.58,-112.5"/>
<text text-anchor="start" x="269.58" y="-130.5" font-family="Helvetica,sans-Serif" font-size="10.00">absl/container/node</text>
<text text-anchor="middle" x="318.08" y="-119.5" font-family="Helvetica,sans-Serif" font-size="10.00">_hash_set.h</text>
</a>
</g>
</g>
<!-- Node30&#45;&gt;Node34 -->
<g id="edge41" class="edge">
<title>Node30&#45;&gt;Node34</title>
<path fill="none" stroke="midnightblue" d="M508.27,-179.48C474.98,-170.55 421.84,-156.31 380.18,-145.14"/>
<polygon fill="midnightblue" stroke="midnightblue" points="380.97,-141.73 370.4,-142.52 379.16,-148.49 380.97,-141.73"/>
</g>
<!-- Node30&#45;&gt;Node35 -->
<g id="edge42" class="edge">
<title>Node30&#45;&gt;Node35</title>
<path fill="none" stroke="midnightblue" d="M571.89,-179.48C610.96,-169 677.34,-151.21 720.44,-139.66"/>
<polygon fill="midnightblue" stroke="midnightblue" points="721.58,-142.98 730.33,-137.01 719.77,-136.22 721.58,-142.98"/>
</g>
<!-- Node35&#45;&gt;Node9 -->
<g id="edge43" class="edge">
<title>Node35&#45;&gt;Node9</title>
<path fill="none" stroke="midnightblue" d="M765.23,-117.98C768.4,-109.4 773.39,-95.93 777.43,-84.98"/>
<polygon fill="midnightblue" stroke="midnightblue" points="780.75,-86.1 780.93,-75.51 774.18,-83.67 780.75,-86.1"/>
</g>
<!-- Node36&#45;&gt;Node4 -->
<g id="edge51" class="edge">
<title>Node36&#45;&gt;Node4</title>
<path fill="none" stroke="midnightblue" d="M887.03,-185.65C779.97,-180.16 528.33,-165.28 446.08,-143 444.15,-142.48 442.18,-141.84 440.23,-141.12"/>
<polygon fill="midnightblue" stroke="midnightblue" points="441.34,-137.8 430.77,-137.12 438.61,-144.24 441.34,-137.8"/>
</g>
<!-- Node36&#45;&gt;Node7 -->
<g id="edge52" class="edge">
<title>Node36&#45;&gt;Node7</title>
<path fill="none" stroke="midnightblue" d="M955.71,-179.48C978.9,-169.4 1017.7,-152.55 1044.29,-141"/>
<polygon fill="midnightblue" stroke="midnightblue" points="1045.71,-144.2 1053.49,-137.01 1042.92,-137.78 1045.71,-144.2"/>
</g>
<!-- Node36&#45;&gt;Node12 -->
<g id="edge48" class="edge">
<title>Node36&#45;&gt;Node12</title>
<path fill="none" stroke="midnightblue" d="M946.52,-179.24C955.5,-170.97 967.83,-157.66 973.08,-143 986.82,-104.65 980.04,-55.94 974.61,-29.73"/>
<polygon fill="midnightblue" stroke="midnightblue" points="977.96,-28.67 972.35,-19.68 971.13,-30.2 977.96,-28.67"/>
</g>
<!-- Node36&#45;&gt;Node25 -->
<g id="edge46" class="edge">
<title>Node36&#45;&gt;Node25</title>
<path fill="none" stroke="midnightblue" d="M980.3,-179.46C1020.86,-171.27 1082.45,-157.99 1135.08,-143 1138.03,-142.16 1141.07,-141.23 1144.11,-140.26"/>
<polygon fill="midnightblue" stroke="midnightblue" points="1145.29,-143.56 1153.68,-137.09 1143.09,-136.92 1145.29,-143.56"/>
</g>
<!-- Node36&#45;&gt;Node28 -->
<g id="edge49" class="edge">
<title>Node36&#45;&gt;Node28</title>
<path fill="none" stroke="midnightblue" d="M985.2,-183.88C1042.27,-178.25 1138.89,-166.1 1219.08,-143 1221.37,-142.34 1223.71,-141.57 1226.04,-140.73"/>
<polygon fill="midnightblue" stroke="midnightblue" points="1227.38,-143.96 1235.38,-137.02 1224.8,-137.46 1227.38,-143.96"/>
</g>
<!-- Node37 -->
<g id="node37" class="node">
<title>Node37</title>
<g id="a_node37"><a xlink:title=" ">
<polygon fill="none" stroke="#bfbfbf" points="830.08,-118 830.08,-137 890.08,-137 890.08,-118 830.08,-118"/>
<text text-anchor="middle" x="860.08" y="-125" font-family="Helvetica,sans-Serif" font-size="10.00">iostream</text>
</a>
</g>
</g>
<!-- Node36&#45;&gt;Node37 -->
<g id="edge47" class="edge">
<title>Node36&#45;&gt;Node37</title>
<path fill="none" stroke="midnightblue" d="M925.19,-179.48C913.11,-170.02 893.41,-154.6 878.84,-143.19"/>
<polygon fill="midnightblue" stroke="midnightblue" points="880.98,-140.42 870.95,-137.01 876.67,-145.93 880.98,-140.42"/>
</g>
<!-- Node38 -->
<g id="node38" class="node">
<title>Node38</title>
<g id="a_node38"><a xlink:title=" ">
<polygon fill="none" stroke="#bfbfbf" points="908.08,-118 908.08,-137 964.08,-137 964.08,-118 908.08,-118"/>
<text text-anchor="middle" x="936.08" y="-125" font-family="Helvetica,sans-Serif" font-size="10.00">sstream</text>
</a>
</g>
</g>
<!-- Node36&#45;&gt;Node38 -->
<g id="edge50" class="edge">
<title>Node36&#45;&gt;Node38</title>
<path fill="none" stroke="midnightblue" d="M936.08,-179.48C936.08,-171.08 936.08,-157.98 936.08,-147.16"/>
<polygon fill="midnightblue" stroke="midnightblue" points="939.58,-147.01 936.08,-137.01 932.58,-147.01 939.58,-147.01"/>
</g>
<!-- Node39&#45;&gt;Node18 -->
<g id="edge54" class="edge">
<title>Node39&#45;&gt;Node18</title>
<path fill="none" stroke="midnightblue" d="M964.57,-291.08C965.76,-283.93 967.48,-273.64 968.97,-264.69"/>
<polygon fill="midnightblue" stroke="midnightblue" points="972.43,-265.19 970.62,-254.75 965.53,-264.04 972.43,-265.19"/>
</g>
</g>
</svg>
