<?xml version="1.0" encoding="UTF-8" standalone="no"?>
<!DOCTYPE svg PUBLIC "-//W3C//DTD SVG 1.1//EN"
 "http://www.w3.org/Graphics/SVG/1.1/DTD/svg11.dtd">
<!-- Generated by graphviz version 2.43.0 (0)
 -->
<!-- Title: thorin/util/types.h Pages: 1 -->
<svg width="3500pt" height="335pt"
 viewBox="0.00 0.00 3499.50 335.00" xmlns="http://www.w3.org/2000/svg" xmlns:xlink="http://www.w3.org/1999/xlink">
<g id="graph0" class="graph" transform="scale(1 1) rotate(0) translate(4 331)">
<title>thorin/util/types.h</title>
<!-- Node1 -->
<g id="node1" class="node">
<title>Node1</title>
<g id="a_node1"><a xlink:title=" ">
<polygon fill="#999999" stroke="#666666" points="891.5,-327 788.5,-327 788.5,-308 891.5,-308 891.5,-327"/>
<text text-anchor="middle" x="840" y="-315" font-family="Helvetica,sans-Serif" font-size="10.00">thorin/util/types.h</text>
</a>
</g>
</g>
<!-- Node2 -->
<g id="node2" class="node">
<title>Node2</title>
<g id="a_node2"><a xlink:href="bootstrapper_8h.html" target="_top" xlink:title=" ">
<polygon fill="white" stroke="#666666" points="340.5,-272 197.5,-272 197.5,-253 340.5,-253 340.5,-272"/>
<text text-anchor="middle" x="269" y="-260" font-family="Helvetica,sans-Serif" font-size="10.00">thorin/be/h/bootstrapper.h</text>
</a>
</g>
</g>
<!-- Node1&#45;&gt;Node2 -->
<g id="edge1" class="edge">
<title>Node1&#45;&gt;Node2</title>
<path fill="none" stroke="#63b8ff" d="M778.05,-310.75C671.46,-300.86 453.95,-280.67 340.87,-270.17"/>
<polygon fill="#63b8ff" stroke="#63b8ff" points="778.04,-314.26 788.32,-311.7 778.69,-307.29 778.04,-314.26"/>
</g>
<!-- Node6 -->
<g id="node6" class="node">
<title>Node6</title>
<g id="a_node6"><a xlink:href="error_8h.html" target="_top" xlink:title=" ">
<polygon fill="white" stroke="#666666" points="673,-272 593,-272 593,-253 673,-253 673,-272"/>
<text text-anchor="middle" x="633" y="-260" font-family="Helvetica,sans-Serif" font-size="10.00">thorin/error.h</text>
</a>
</g>
</g>
<!-- Node1&#45;&gt;Node6 -->
<g id="edge5" class="edge">
<title>Node1&#45;&gt;Node6</title>
<path fill="none" stroke="#63b8ff" d="M796.79,-305.44C758.04,-295.52 701.97,-281.16 666.52,-272.08"/>
<polygon fill="#63b8ff" stroke="#63b8ff" points="796.19,-308.89 806.74,-307.98 797.92,-302.11 796.19,-308.89"/>
</g>
<!-- Node131 -->
<g id="node39" class="node">
<title>Node131</title>
<g id="a_node39"><a xlink:href="tok_8h.html" target="_top" xlink:title=" ">
<polygon fill="white" stroke="#666666" points="938,-272 852,-272 852,-253 938,-253 938,-272"/>
<text text-anchor="middle" x="895" y="-260" font-family="Helvetica,sans-Serif" font-size="10.00">thorin/fe/tok.h</text>
</a>
</g>
</g>
<!-- Node1&#45;&gt;Node131 -->
<g id="edge53" class="edge">
<title>Node1&#45;&gt;Node131</title>
<path fill="none" stroke="#63b8ff" d="M856.29,-300.8C866.04,-291.41 878.05,-279.83 886.09,-272.09"/>
<polygon fill="#63b8ff" stroke="#63b8ff" points="853.85,-298.29 849.08,-307.75 858.71,-303.33 853.85,-298.29"/>
</g>
<!-- Node134 -->
<g id="node42" class="node">
<title>Node134</title>
<g id="a_node42"><a xlink:href="bitset_8h.html" target="_top" xlink:title=" ">
<polygon fill="white" stroke="#666666" points="3306,-272 3202,-272 3202,-253 3306,-253 3306,-272"/>
<text text-anchor="middle" x="3254" y="-260" font-family="Helvetica,sans-Serif" font-size="10.00">thorin/util/bitset.h</text>
</a>
</g>
</g>
<!-- Node1&#45;&gt;Node134 -->
<g id="edge59" class="edge">
<title>Node1&#45;&gt;Node134</title>
<path fill="none" stroke="#63b8ff" d="M901.85,-315.48C1158.41,-311.21 2164.21,-293.91 2991,-272 3064.07,-270.06 3148.54,-267.23 3201.61,-265.37"/>
<polygon fill="#63b8ff" stroke="#63b8ff" points="901.55,-311.99 891.61,-315.65 901.67,-318.99 901.55,-311.99"/>
</g>
<!-- Node136 -->
<g id="node45" class="node">
<title>Node136</title>
<g id="a_node45"><a xlink:href="hash_8h.html" target="_top" xlink:title=" ">
<polygon fill="white" stroke="#666666" points="2981.5,-272 2882.5,-272 2882.5,-253 2981.5,-253 2981.5,-272"/>
<text text-anchor="middle" x="2932" y="-260" font-family="Helvetica,sans-Serif" font-size="10.00">thorin/util/hash.h</text>
</a>
</g>
</g>
<!-- Node1&#45;&gt;Node136 -->
<g id="edge63" class="edge">
<title>Node1&#45;&gt;Node136</title>
<path fill="none" stroke="#63b8ff" d="M901.89,-314.93C1212.81,-307.05 2600.6,-271.9 2882.09,-264.76"/>
<polygon fill="#63b8ff" stroke="#63b8ff" points="901.62,-311.44 891.71,-315.19 901.8,-318.44 901.62,-311.44"/>
</g>
<!-- Node157 -->
<g id="node49" class="node">
<title>Node157</title>
<g id="a_node49"><a xlink:href="utf8_8h.html" target="_top" xlink:title=" ">
<polygon fill="white" stroke="#666666" points="833.5,-272 738.5,-272 738.5,-253 833.5,-253 833.5,-272"/>
<text text-anchor="middle" x="786" y="-260" font-family="Helvetica,sans-Serif" font-size="10.00">thorin/util/utf8.h</text>
</a>
</g>
</g>
<!-- Node1&#45;&gt;Node157 -->
<g id="edge76" class="edge">
<title>Node1&#45;&gt;Node157</title>
<path fill="none" stroke="#63b8ff" d="M823.72,-300.52C814.2,-291.18 802.56,-279.75 794.75,-272.09"/>
<polygon fill="#63b8ff" stroke="#63b8ff" points="821.49,-303.24 831.08,-307.75 826.4,-298.25 821.49,-303.24"/>
</g>
<!-- Node3 -->
<g id="node3" class="node">
<title>Node3</title>
<g id="a_node3"><a xlink:href="bootstrapper_8cpp.html" target="_top" xlink:title=" ">
<polygon fill="white" stroke="#666666" points="346,-211.5 192,-211.5 192,-192.5 346,-192.5 346,-211.5"/>
<text text-anchor="middle" x="269" y="-199.5" font-family="Helvetica,sans-Serif" font-size="10.00">thorin/be/h/bootstrapper.cpp</text>
</a>
</g>
</g>
<!-- Node2&#45;&gt;Node3 -->
<g id="edge2" class="edge">
<title>Node2&#45;&gt;Node3</title>
<path fill="none" stroke="#63b8ff" d="M269,-242.66C269,-232.24 269,-219.8 269,-211.67"/>
<polygon fill="#63b8ff" stroke="#63b8ff" points="265.5,-242.87 269,-252.87 272.5,-242.87 265.5,-242.87"/>
</g>
<!-- Node4 -->
<g id="node4" class="node">
<title>Node4</title>
<g id="a_node4"><a xlink:href="parser_8h.html" target="_top" xlink:title=" ">
<polygon fill="white" stroke="#666666" points="214,-151 114,-151 114,-132 214,-132 214,-151"/>
<text text-anchor="middle" x="164" y="-139" font-family="Helvetica,sans-Serif" font-size="10.00">thorin/fe/parser.h</text>
</a>
</g>
</g>
<!-- Node2&#45;&gt;Node4 -->
<g id="edge3" class="edge">
<title>Node2&#45;&gt;Node4</title>
<path fill="none" stroke="#63b8ff" d="M229.47,-249.25C212.91,-242.26 194.8,-231.85 183,-217 167.39,-197.35 164.46,-166.38 164,-151.32"/>
<polygon fill="#63b8ff" stroke="#63b8ff" points="228.4,-252.59 238.99,-252.98 230.96,-246.07 228.4,-252.59"/>
</g>
<!-- Node5 -->
<g id="node5" class="node">
<title>Node5</title>
<g id="a_node5"><a xlink:href="parser_8cpp.html" target="_top" xlink:title=" ">
<polygon fill="white" stroke="#666666" points="744.5,-96 633.5,-96 633.5,-77 744.5,-77 744.5,-96"/>
<text text-anchor="middle" x="689" y="-84" font-family="Helvetica,sans-Serif" font-size="10.00">thorin/fe/parser.cpp</text>
</a>
</g>
</g>
<!-- Node4&#45;&gt;Node5 -->
<g id="edge4" class="edge">
<title>Node4&#45;&gt;Node5</title>
<path fill="none" stroke="#63b8ff" d="M224.31,-131.9C378.35,-113.65 547.7,-98.98 633.32,-91.95"/>
<polygon fill="#63b8ff" stroke="#63b8ff" points="223.71,-128.44 214.19,-133.1 224.53,-135.39 223.71,-128.44"/>
</g>
<!-- Node6&#45;&gt;Node3 -->
<g id="edge6" class="edge">
<title>Node6&#45;&gt;Node3</title>
<path fill="none" stroke="#63b8ff" d="M582.99,-253.54C527.33,-244.66 434.72,-229.87 355,-217 344.1,-215.24 332.42,-213.35 321.3,-211.54"/>
<polygon fill="#63b8ff" stroke="#63b8ff" points="582.52,-257 592.94,-255.12 583.62,-250.09 582.52,-257"/>
</g>
<!-- Node7 -->
<g id="node7" class="node">
<title>Node7</title>
<g id="a_node7"><a xlink:href="check_8cpp.html" target="_top" xlink:title=" ">
<polygon fill="white" stroke="#666666" points="454.5,-151 357.5,-151 357.5,-132 454.5,-132 454.5,-151"/>
<text text-anchor="middle" x="406" y="-139" font-family="Helvetica,sans-Serif" font-size="10.00">thorin/check.cpp</text>
</a>
</g>
</g>
<!-- Node6&#45;&gt;Node7 -->
<g id="edge7" class="edge">
<title>Node6&#45;&gt;Node7</title>
<path fill="none" stroke="#63b8ff" d="M622.26,-244.47C610.66,-227.44 590.63,-201.74 567,-187 547.07,-174.57 487.89,-160.05 447.12,-151.06"/>
<polygon fill="#63b8ff" stroke="#63b8ff" points="619.39,-246.47 627.81,-252.91 625.24,-242.63 619.39,-246.47"/>
</g>
<!-- Node8 -->
<g id="node8" class="node">
<title>Node8</title>
<g id="a_node8"><a xlink:href="error_8cpp.html" target="_top" xlink:title=" ">
<polygon fill="white" stroke="#666666" points="558.5,-211.5 467.5,-211.5 467.5,-192.5 558.5,-192.5 558.5,-211.5"/>
<text text-anchor="middle" x="513" y="-199.5" font-family="Helvetica,sans-Serif" font-size="10.00">thorin/error.cpp</text>
</a>
</g>
</g>
<!-- Node6&#45;&gt;Node8 -->
<g id="edge8" class="edge">
<title>Node6&#45;&gt;Node8</title>
<path fill="none" stroke="#63b8ff" d="M606.3,-248.48C583.17,-237.21 550.39,-221.23 530.47,-211.52"/>
<polygon fill="#63b8ff" stroke="#63b8ff" points="605.03,-251.76 615.55,-252.99 608.1,-245.47 605.03,-251.76"/>
</g>
<!-- Node9 -->
<g id="node9" class="node">
<title>Node9</title>
<g id="a_node9"><a xlink:href="lexer_8h.html" target="_top" xlink:title=" ">
<polygon fill="white" stroke="#666666" points="833.5,-211.5 740.5,-211.5 740.5,-192.5 833.5,-192.5 833.5,-211.5"/>
<text text-anchor="middle" x="787" y="-199.5" font-family="Helvetica,sans-Serif" font-size="10.00">thorin/fe/lexer.h</text>
</a>
</g>
</g>
<!-- Node6&#45;&gt;Node9 -->
<g id="edge9" class="edge">
<title>Node6&#45;&gt;Node9</title>
<path fill="none" stroke="#63b8ff" d="M664.91,-249.38C694.68,-238.07 738.34,-221.49 764.58,-211.52"/>
<polygon fill="#63b8ff" stroke="#63b8ff" points="663.5,-246.17 655.39,-252.99 665.98,-252.71 663.5,-246.17"/>
</g>
<!-- Node11 -->
<g id="node11" class="node">
<title>Node11</title>
<g id="a_node11"><a xlink:href="dl_8h.html" target="_top" xlink:title=" ">
<polygon fill="white" stroke="#666666" points="449.5,-211.5 364.5,-211.5 364.5,-192.5 449.5,-192.5 449.5,-211.5"/>
<text text-anchor="middle" x="407" y="-199.5" font-family="Helvetica,sans-Serif" font-size="10.00">thorin/util/dl.h</text>
</a>
</g>
</g>
<!-- Node6&#45;&gt;Node11 -->
<g id="edge12" class="edge">
<title>Node6&#45;&gt;Node11</title>
<path fill="none" stroke="#63b8ff" d="M588.73,-250.49C553.32,-241.62 502.41,-228.74 458,-217 451.43,-215.26 444.4,-213.36 437.72,-211.53"/>
<polygon fill="#63b8ff" stroke="#63b8ff" points="588.2,-253.96 598.75,-252.99 589.89,-247.17 588.2,-253.96"/>
</g>
<!-- Node14 -->
<g id="node14" class="node">
<title>Node14</title>
<g id="a_node14"><a xlink:href="world_8cpp.html" target="_top" xlink:title=" ">
<polygon fill="white" stroke="#666666" points="2936.5,-96 2841.5,-96 2841.5,-77 2936.5,-77 2936.5,-96"/>
<text text-anchor="middle" x="2889" y="-84" font-family="Helvetica,sans-Serif" font-size="10.00">thorin/world.cpp</text>
</a>
</g>
</g>
<!-- Node6&#45;&gt;Node14 -->
<g id="edge15" class="edge">
<title>Node6&#45;&gt;Node14</title>
<path fill="none" stroke="#63b8ff" d="M683.11,-256.7C697.88,-255.39 714.08,-254.04 729,-253 1043.75,-231.08 1122.94,-234.03 1438,-217 1949.65,-189.34 2087.88,-257.92 2589,-151 2612.25,-146.04 2616.09,-138.33 2639,-132 2708.26,-112.86 2790.68,-100.05 2841.41,-93.27"/>
<polygon fill="#63b8ff" stroke="#63b8ff" points="682.79,-253.22 673.14,-257.61 683.42,-260.19 682.79,-253.22"/>
</g>
<!-- Node15 -->
<g id="node15" class="node">
<title>Node15</title>
<g id="a_node15"><a xlink:href="world_8h.html" target="_top" xlink:title=" ">
<polygon fill="#fff0f0" stroke="red" points="1429,-211.5 1345,-211.5 1345,-192.5 1429,-192.5 1429,-211.5"/>
<text text-anchor="middle" x="1387" y="-199.5" font-family="Helvetica,sans-Serif" font-size="10.00">thorin/world.h</text>
</a>
</g>
</g>
<!-- Node6&#45;&gt;Node15 -->
<g id="edge16" class="edge">
<title>Node6&#45;&gt;Node15</title>
<path fill="none" stroke="#63b8ff" d="M683.13,-256.94C697.9,-255.63 714.1,-254.23 729,-253 961.36,-233.89 1240.09,-213.57 1344.65,-206.03"/>
<polygon fill="#63b8ff" stroke="#63b8ff" points="682.81,-253.46 673.16,-257.83 683.43,-260.43 682.81,-253.46"/>
</g>
<!-- Node9&#45;&gt;Node4 -->
<g id="edge11" class="edge">
<title>Node9&#45;&gt;Node4</title>
<path fill="none" stroke="#63b8ff" d="M746.92,-190.09C741.6,-188.9 736.19,-187.83 731,-187 507.47,-151.42 448.05,-175.15 223,-151 220.12,-150.69 217.16,-150.35 214.18,-149.98"/>
<polygon fill="#63b8ff" stroke="#63b8ff" points="746.44,-193.57 756.97,-192.47 748.05,-186.76 746.44,-193.57"/>
</g>
<!-- Node10 -->
<g id="node10" class="node">
<title>Node10</title>
<g id="a_node10"><a xlink:href="lexer_8cpp.html" target="_top" xlink:title=" ">
<polygon fill="white" stroke="#666666" points="577,-151 473,-151 473,-132 577,-132 577,-151"/>
<text text-anchor="middle" x="525" y="-139" font-family="Helvetica,sans-Serif" font-size="10.00">thorin/fe/lexer.cpp</text>
</a>
</g>
</g>
<!-- Node9&#45;&gt;Node10 -->
<g id="edge10" class="edge">
<title>Node9&#45;&gt;Node10</title>
<path fill="none" stroke="#63b8ff" d="M743.68,-190.02C739.4,-188.98 735.12,-187.96 731,-187 674.16,-173.76 608.18,-159.74 566.52,-151.06"/>
<polygon fill="#63b8ff" stroke="#63b8ff" points="743.03,-193.47 753.58,-192.46 744.71,-186.67 743.03,-193.47"/>
</g>
<!-- Node12 -->
<g id="node12" class="node">
<title>Node12</title>
<g id="a_node12"><a xlink:href="dialects_8cpp.html" target="_top" xlink:title=" ">
<polygon fill="white" stroke="#666666" points="339.5,-151 232.5,-151 232.5,-132 339.5,-132 339.5,-151"/>
<text text-anchor="middle" x="286" y="-139" font-family="Helvetica,sans-Serif" font-size="10.00">thorin/dialects.cpp</text>
</a>
</g>
</g>
<!-- Node11&#45;&gt;Node12 -->
<g id="edge13" class="edge">
<title>Node11&#45;&gt;Node12</title>
<path fill="none" stroke="#63b8ff" d="M380.39,-188.13C357.05,-176.85 323.79,-160.77 303.62,-151.02"/>
<polygon fill="#63b8ff" stroke="#63b8ff" points="378.88,-191.29 389.41,-192.49 381.93,-184.99 378.88,-191.29"/>
</g>
<!-- Node13 -->
<g id="node13" class="node">
<title>Node13</title>
<g id="a_node13"><a xlink:href="dl_8cpp.html" target="_top" xlink:title=" ">
<polygon fill="white" stroke="#666666" points="96,-151 0,-151 0,-132 96,-132 96,-151"/>
<text text-anchor="middle" x="48" y="-139" font-family="Helvetica,sans-Serif" font-size="10.00">thorin/util/dl.cpp</text>
</a>
</g>
</g>
<!-- Node11&#45;&gt;Node13 -->
<g id="edge14" class="edge">
<title>Node11&#45;&gt;Node13</title>
<path fill="none" stroke="#63b8ff" d="M367.81,-189.91C363.51,-188.86 359.17,-187.86 355,-187 245.05,-164.37 216.07,-167.28 105,-151 102.13,-150.58 99.18,-150.14 96.2,-149.71"/>
<polygon fill="#63b8ff" stroke="#63b8ff" points="367.17,-193.36 377.72,-192.46 368.91,-186.58 367.17,-193.36"/>
</g>
<!-- Node15&#45;&gt;Node4 -->
<g id="edge51" class="edge">
<title>Node15&#45;&gt;Node4</title>
<path fill="none" stroke="#63b8ff" d="M1334.79,-199.45C1138.32,-193.53 443.49,-171.57 223,-151 220.11,-150.73 217.16,-150.42 214.17,-150.08"/>
<polygon fill="#63b8ff" stroke="#63b8ff" points="1334.75,-202.95 1344.85,-199.76 1334.96,-195.96 1334.75,-202.95"/>
</g>
<!-- Node15&#45;&gt;Node7 -->
<g id="edge46" class="edge">
<title>Node15&#45;&gt;Node7</title>
<path fill="none" stroke="#63b8ff" d="M1334.47,-199.84C1193.33,-196.34 794.26,-184.08 464,-151 460.96,-150.7 457.84,-150.35 454.69,-149.97"/>
<polygon fill="#63b8ff" stroke="#63b8ff" points="1334.49,-203.34 1344.57,-200.08 1334.66,-196.34 1334.49,-203.34"/>
</g>
<!-- Node15&#45;&gt;Node10 -->
<g id="edge50" class="edge">
<title>Node15&#45;&gt;Node10</title>
<path fill="none" stroke="#63b8ff" d="M1334.37,-198.89C1206.72,-193.5 870.53,-177.75 591,-151 586.51,-150.57 581.86,-150.08 577.2,-149.54"/>
<polygon fill="#63b8ff" stroke="#63b8ff" points="1334.5,-202.39 1344.64,-199.32 1334.79,-195.4 1334.5,-202.39"/>
</g>
<!-- Node15&#45;&gt;Node12 -->
<g id="edge48" class="edge">
<title>Node15&#45;&gt;Node12</title>
<path fill="none" stroke="#63b8ff" d="M1334.76,-199.1C1152.13,-192.35 542.81,-169.01 348,-151 345.3,-150.75 342.53,-150.47 339.74,-150.16"/>
<polygon fill="#63b8ff" stroke="#63b8ff" points="1334.78,-202.6 1344.9,-199.47 1335.04,-195.61 1334.78,-202.6"/>
</g>
<!-- Node15&#45;&gt;Node14 -->
<g id="edge52" class="edge">
<title>Node15&#45;&gt;Node14</title>
<path fill="none" stroke="#63b8ff" d="M1439.09,-200.54C1635.07,-198.52 2327.97,-188.83 2545,-151 2572.97,-146.12 2578.35,-138.44 2606,-132 2687.74,-112.95 2784.68,-99.68 2841.27,-92.85"/>
<polygon fill="#63b8ff" stroke="#63b8ff" points="1439.02,-197.04 1429.05,-200.64 1439.09,-204.04 1439.02,-197.04"/>
</g>
<!-- Node16 -->
<g id="node16" class="node">
<title>Node16</title>
<g id="a_node16"><a xlink:href="affine_8h.html" target="_top" xlink:title=" ">
<polygon fill="#fff0f0" stroke="red" points="2515.5,-151 2390.5,-151 2390.5,-132 2515.5,-132 2515.5,-151"/>
<text text-anchor="middle" x="2453" y="-139" font-family="Helvetica,sans-Serif" font-size="10.00">dialects/affine/affine.h</text>
</a>
</g>
</g>
<!-- Node15&#45;&gt;Node16 -->
<g id="edge17" class="edge">
<title>Node15&#45;&gt;Node16</title>
<path fill="none" stroke="#63b8ff" d="M1439.43,-199.64C1587.64,-195.52 2022.25,-181.54 2382,-151 2384.72,-150.77 2387.5,-150.51 2390.3,-150.24"/>
<polygon fill="#63b8ff" stroke="#63b8ff" points="1439.16,-196.15 1429.26,-199.92 1439.35,-203.14 1439.16,-196.15"/>
</g>
<!-- Node23 -->
<g id="node17" class="node">
<title>Node23</title>
<g id="a_node17"><a xlink:href="autodiff_8h.html" target="_top" xlink:title=" ">
<polygon fill="#fff0f0" stroke="red" points="1784.5,-151 1639.5,-151 1639.5,-132 1784.5,-132 1784.5,-151"/>
<text text-anchor="middle" x="1712" y="-139" font-family="Helvetica,sans-Serif" font-size="10.00">dialects/autodiff/autodiff.h</text>
</a>
</g>
</g>
<!-- Node15&#45;&gt;Node23 -->
<g id="edge18" class="edge">
<title>Node15&#45;&gt;Node23</title>
<path fill="none" stroke="#63b8ff" d="M1439.16,-191.61C1501.41,-180.41 1604.6,-161.83 1664.65,-151.02"/>
<polygon fill="#63b8ff" stroke="#63b8ff" points="1438.38,-188.2 1429.15,-193.41 1439.62,-195.09 1438.38,-188.2"/>
</g>
<!-- Node28 -->
<g id="node18" class="node">
<title>Node28</title>
<g id="a_node18"><a xlink:href="autodiff_2normalizers_8cpp.html" target="_top" xlink:title=" ">
<polygon fill="white" stroke="#666666" points="1699,-96 1523,-96 1523,-77 1699,-77 1699,-96"/>
<text text-anchor="middle" x="1611" y="-84" font-family="Helvetica,sans-Serif" font-size="10.00">dialects/autodiff/normalizers.cpp</text>
</a>
</g>
</g>
<!-- Node15&#45;&gt;Node28 -->
<g id="edge20" class="edge">
<title>Node15&#45;&gt;Node28</title>
<path fill="none" stroke="#63b8ff" d="M1439.02,-194.27C1492.28,-186.38 1570.23,-171.68 1592,-151 1607.35,-136.42 1610.45,-109.99 1610.98,-96.28"/>
<polygon fill="#63b8ff" stroke="#63b8ff" points="1438.45,-190.82 1429.06,-195.72 1439.45,-197.75 1438.45,-190.82"/>
</g>
<!-- Node29 -->
<g id="node19" class="node">
<title>Node29</title>
<g id="a_node19"><a xlink:href="clos_8h.html" target="_top" xlink:title=" ">
<polygon fill="#fff0f0" stroke="red" points="1144.5,-151 1035.5,-151 1035.5,-132 1144.5,-132 1144.5,-151"/>
<text text-anchor="middle" x="1090" y="-139" font-family="Helvetica,sans-Serif" font-size="10.00">dialects/clos/clos.h</text>
</a>
</g>
</g>
<!-- Node15&#45;&gt;Node29 -->
<g id="edge21" class="edge">
<title>Node15&#45;&gt;Node29</title>
<path fill="none" stroke="#63b8ff" d="M1334.85,-190.73C1277.69,-179.47 1187.03,-161.61 1133.54,-151.08"/>
<polygon fill="#63b8ff" stroke="#63b8ff" points="1334.27,-194.18 1344.76,-192.68 1335.63,-187.31 1334.27,-194.18"/>
</g>
<!-- Node44 -->
<g id="node20" class="node">
<title>Node44</title>
<g id="a_node20"><a xlink:href="core_8h.html" target="_top" xlink:title=" ">
<polygon fill="#fff0f0" stroke="red" points="1443,-151 1331,-151 1331,-132 1443,-132 1443,-151"/>
<text text-anchor="middle" x="1387" y="-139" font-family="Helvetica,sans-Serif" font-size="10.00">dialects/core/core.h</text>
</a>
</g>
</g>
<!-- Node15&#45;&gt;Node44 -->
<g id="edge22" class="edge">
<title>Node15&#45;&gt;Node44</title>
<path fill="none" stroke="#63b8ff" d="M1387,-182.16C1387,-171.74 1387,-159.3 1387,-151.17"/>
<polygon fill="#63b8ff" stroke="#63b8ff" points="1383.5,-182.37 1387,-192.37 1390.5,-182.37 1383.5,-182.37"/>
</g>
<!-- Node47 -->
<g id="node21" class="node">
<title>Node47</title>
<g id="a_node21"><a xlink:href="mem_8h.html" target="_top" xlink:title=" ">
<polygon fill="#fff0f0" stroke="red" points="1441.5,-96 1320.5,-96 1320.5,-77 1441.5,-77 1441.5,-96"/>
<text text-anchor="middle" x="1381" y="-84" font-family="Helvetica,sans-Serif" font-size="10.00">dialects/mem/mem.h</text>
</a>
</g>
</g>
<!-- Node15&#45;&gt;Node47 -->
<g id="edge34" class="edge">
<title>Node15&#45;&gt;Node47</title>
<path fill="none" stroke="#63b8ff" d="M1359.15,-187.43C1345.26,-179.04 1329.79,-166.82 1322,-151 1310.57,-127.78 1341.13,-107.1 1362.42,-96.02"/>
<polygon fill="#63b8ff" stroke="#63b8ff" points="1357.53,-190.54 1367.96,-192.4 1360.97,-184.44 1357.53,-190.54"/>
</g>
<!-- Node49 -->
<g id="node23" class="node">
<title>Node49</title>
<g id="a_node23"><a xlink:href="mem_2normalizers_8cpp.html" target="_top" xlink:title=" ">
<polygon fill="white" stroke="#666666" points="1231,-30 1067,-30 1067,-11 1231,-11 1231,-30"/>
<text text-anchor="middle" x="1149" y="-18" font-family="Helvetica,sans-Serif" font-size="10.00">dialects/mem/normalizers.cpp</text>
</a>
</g>
</g>
<!-- Node15&#45;&gt;Node49 -->
<g id="edge35" class="edge">
<title>Node15&#45;&gt;Node49</title>
<path fill="none" stroke="#63b8ff" d="M1334.49,-198.8C1171.37,-191.78 682.61,-169.33 654,-151 630.55,-135.98 630.88,-122.98 624,-96 621.91,-87.82 618.35,-83.28 624,-77 653.03,-44.74 926.4,-29.84 1066.73,-24.27"/>
<polygon fill="#63b8ff" stroke="#63b8ff" points="1334.62,-202.31 1344.76,-199.24 1334.92,-195.31 1334.62,-202.31"/>
</g>
<!-- Node54 -->
<g id="node24" class="node">
<title>Node54</title>
<g id="a_node24"><a xlink:href="demo_8h.html" target="_top" xlink:title=" ">
<polygon fill="#fff0f0" stroke="red" points="796.5,-151 671.5,-151 671.5,-132 796.5,-132 796.5,-151"/>
<text text-anchor="middle" x="734" y="-139" font-family="Helvetica,sans-Serif" font-size="10.00">dialects/demo/demo.h</text>
</a>
</g>
</g>
<!-- Node15&#45;&gt;Node54 -->
<g id="edge27" class="edge">
<title>Node15&#45;&gt;Node54</title>
<path fill="none" stroke="#63b8ff" d="M1334.42,-196.85C1233.09,-188.76 1003.71,-170 811,-151 806.32,-150.54 801.47,-150.04 796.6,-149.53"/>
<polygon fill="#63b8ff" stroke="#63b8ff" points="1334.45,-200.36 1344.69,-197.67 1335,-193.38 1334.45,-200.36"/>
</g>
<!-- Node56 -->
<g id="node25" class="node">
<title>Node56</title>
<g id="a_node25"><a xlink:href="demo_2normalizers_8cpp.html" target="_top" xlink:title=" ">
<polygon fill="white" stroke="#666666" points="929.5,-96 762.5,-96 762.5,-77 929.5,-77 929.5,-96"/>
<text text-anchor="middle" x="846" y="-84" font-family="Helvetica,sans-Serif" font-size="10.00">dialects/demo/normalizers.cpp</text>
</a>
</g>
</g>
<!-- Node15&#45;&gt;Node56 -->
<g id="edge29" class="edge">
<title>Node15&#45;&gt;Node56</title>
<path fill="none" stroke="#63b8ff" d="M1334.61,-199.33C1171.93,-193.88 684.93,-175.56 662,-151 656.24,-144.83 656.78,-138.64 662,-132 675.87,-114.37 727.26,-102.89 772.22,-96.01"/>
<polygon fill="#63b8ff" stroke="#63b8ff" points="1334.74,-202.83 1344.85,-199.67 1334.97,-195.84 1334.74,-202.83"/>
</g>
<!-- Node57 -->
<g id="node26" class="node">
<title>Node57</title>
<g id="a_node26"><a xlink:href="direct_8h.html" target="_top" xlink:title=" ">
<polygon fill="#fff0f0" stroke="red" points="978.5,-151 853.5,-151 853.5,-132 978.5,-132 978.5,-151"/>
<text text-anchor="middle" x="916" y="-139" font-family="Helvetica,sans-Serif" font-size="10.00">dialects/direct/direct.h</text>
</a>
</g>
</g>
<!-- Node15&#45;&gt;Node57 -->
<g id="edge30" class="edge">
<title>Node15&#45;&gt;Node57</title>
<path fill="none" stroke="#63b8ff" d="M1334.85,-194.52C1247.58,-183.68 1072.32,-161.92 978.56,-150.27"/>
<polygon fill="#63b8ff" stroke="#63b8ff" points="1334.43,-198 1344.79,-195.76 1335.3,-191.05 1334.43,-198"/>
</g>
<!-- Node59 -->
<g id="node27" class="node">
<title>Node59</title>
<g id="a_node27"><a xlink:href="direct_2normalizers_8cpp.html" target="_top" xlink:title=" ">
<polygon fill="white" stroke="#666666" points="1114.5,-96 947.5,-96 947.5,-77 1114.5,-77 1114.5,-96"/>
<text text-anchor="middle" x="1031" y="-84" font-family="Helvetica,sans-Serif" font-size="10.00">dialects/direct/normalizers.cpp</text>
</a>
</g>
</g>
<!-- Node15&#45;&gt;Node59 -->
<g id="edge32" class="edge">
<title>Node15&#45;&gt;Node59</title>
<path fill="none" stroke="#63b8ff" d="M1334.73,-200.1C1205.07,-197.34 876.69,-186.84 844,-151 838.31,-144.76 838.77,-138.63 844,-132 858.02,-114.26 909.58,-102.83 955.02,-96"/>
<polygon fill="#63b8ff" stroke="#63b8ff" points="1334.75,-203.6 1344.82,-200.31 1334.89,-196.61 1334.75,-203.6"/>
</g>
<!-- Node62 -->
<g id="node28" class="node">
<title>Node62</title>
<g id="a_node28"><a xlink:href="math_8h.html" target="_top" xlink:title=" ">
<polygon fill="#fff0f0" stroke="red" points="1582.5,-151 1461.5,-151 1461.5,-132 1582.5,-132 1582.5,-151"/>
<text text-anchor="middle" x="1522" y="-139" font-family="Helvetica,sans-Serif" font-size="10.00">dialects/math/math.h</text>
</a>
</g>
</g>
<!-- Node15&#45;&gt;Node62 -->
<g id="edge33" class="edge">
<title>Node15&#45;&gt;Node62</title>
<path fill="none" stroke="#63b8ff" d="M1416,-188.43C1442.07,-177.14 1479.64,-160.86 1502.35,-151.02"/>
<polygon fill="#63b8ff" stroke="#63b8ff" points="1414.41,-185.31 1406.63,-192.49 1417.2,-191.73 1414.41,-185.31"/>
</g>
<!-- Node65 -->
<g id="node29" class="node">
<title>Node65</title>
<g id="a_node29"><a xlink:href="refly_2normalizers_8cpp.html" target="_top" xlink:title=" ">
<polygon fill="white" stroke="#666666" points="1296.5,-96 1135.5,-96 1135.5,-77 1296.5,-77 1296.5,-96"/>
<text text-anchor="middle" x="1216" y="-84" font-family="Helvetica,sans-Serif" font-size="10.00">dialects/refly/normalizers.cpp</text>
</a>
</g>
</g>
<!-- Node15&#45;&gt;Node65 -->
<g id="edge36" class="edge">
<title>Node15&#45;&gt;Node65</title>
<path fill="none" stroke="#63b8ff" d="M1334.82,-201.78C1244.62,-201.89 1065.42,-196.25 1026,-151 1020.45,-144.63 1020.75,-138.62 1026,-132 1040.13,-114.18 1091.69,-102.81 1137.54,-96.03"/>
<polygon fill="#63b8ff" stroke="#63b8ff" points="1334.85,-205.28 1344.84,-201.75 1334.82,-198.28 1334.85,-205.28"/>
</g>
<!-- Node66 -->
<g id="node30" class="node">
<title>Node66</title>
<g id="a_node30"><a xlink:href="refly_8h.html" target="_top" xlink:title=" ">
<polygon fill="#fff0f0" stroke="red" points="1275,-151 1163,-151 1163,-132 1275,-132 1275,-151"/>
<text text-anchor="middle" x="1219" y="-139" font-family="Helvetica,sans-Serif" font-size="10.00">dialects/refly/refly.h</text>
</a>
</g>
</g>
<!-- Node15&#45;&gt;Node66 -->
<g id="edge37" class="edge">
<title>Node15&#45;&gt;Node66</title>
<path fill="none" stroke="#63b8ff" d="M1353.03,-189.17C1320.54,-177.86 1272.34,-161.07 1243.46,-151.02"/>
<polygon fill="#63b8ff" stroke="#63b8ff" points="1351.98,-192.51 1362.57,-192.49 1354.28,-185.9 1351.98,-192.51"/>
</g>
<!-- Node69 -->
<g id="node31" class="node">
<title>Node69</title>
<g id="a_node31"><a xlink:href="cfg_8cpp.html" target="_top" xlink:title=" ">
<polygon fill="white" stroke="#666666" points="2778,-151 2648,-151 2648,-132 2778,-132 2778,-151"/>
<text text-anchor="middle" x="2713" y="-139" font-family="Helvetica,sans-Serif" font-size="10.00">thorin/analyses/cfg.cpp</text>
</a>
</g>
</g>
<!-- Node15&#45;&gt;Node69 -->
<g id="edge39" class="edge">
<title>Node15&#45;&gt;Node69</title>
<path fill="none" stroke="#63b8ff" d="M1439.1,-199.43C1606.9,-194.23 2148.41,-176.51 2596,-151 2612.77,-150.04 2630.89,-148.82 2647.74,-147.6"/>
<polygon fill="#63b8ff" stroke="#63b8ff" points="1438.94,-195.93 1429.05,-199.74 1439.15,-202.93 1438.94,-195.93"/>
</g>
<!-- Node70 -->
<g id="node32" class="node">
<title>Node70</title>
<g id="a_node32"><a xlink:href="deptree_8cpp.html" target="_top" xlink:title=" ">
<polygon fill="white" stroke="#666666" points="1955,-151 1803,-151 1803,-132 1955,-132 1955,-151"/>
<text text-anchor="middle" x="1879" y="-139" font-family="Helvetica,sans-Serif" font-size="10.00">thorin/analyses/deptree.cpp</text>
</a>
</g>
</g>
<!-- Node15&#45;&gt;Node70 -->
<g id="edge40" class="edge">
<title>Node15&#45;&gt;Node70</title>
<path fill="none" stroke="#63b8ff" d="M1439.45,-194.76C1527.94,-184.24 1707.02,-162.95 1807.13,-151.05"/>
<polygon fill="#63b8ff" stroke="#63b8ff" points="1438.89,-191.31 1429.37,-195.96 1439.72,-198.26 1438.89,-191.31"/>
</g>
<!-- Node71 -->
<g id="node33" class="node">
<title>Node71</title>
<g id="a_node33"><a xlink:href="schedule_8cpp.html" target="_top" xlink:title=" ">
<polygon fill="white" stroke="#666666" points="2131,-151 1973,-151 1973,-132 2131,-132 2131,-151"/>
<text text-anchor="middle" x="2052" y="-139" font-family="Helvetica,sans-Serif" font-size="10.00">thorin/analyses/schedule.cpp</text>
</a>
</g>
</g>
<!-- Node15&#45;&gt;Node71 -->
<g id="edge41" class="edge">
<title>Node15&#45;&gt;Node71</title>
<path fill="none" stroke="#63b8ff" d="M1439.26,-196.64C1540.54,-188.17 1770.59,-168.72 1964,-151 1966.9,-150.73 1969.86,-150.46 1972.85,-150.18"/>
<polygon fill="#63b8ff" stroke="#63b8ff" points="1438.68,-193.18 1429,-197.5 1439.26,-200.16 1438.68,-193.18"/>
</g>
<!-- Node72 -->
<g id="node34" class="node">
<title>Node72</title>
<g id="a_node34"><a xlink:href="scope_8cpp.html" target="_top" xlink:title=" ">
<polygon fill="white" stroke="#666666" points="2939.5,-151 2796.5,-151 2796.5,-132 2939.5,-132 2939.5,-151"/>
<text text-anchor="middle" x="2868" y="-139" font-family="Helvetica,sans-Serif" font-size="10.00">thorin/analyses/scope.cpp</text>
</a>
</g>
</g>
<!-- Node15&#45;&gt;Node72 -->
<g id="edge42" class="edge">
<title>Node15&#45;&gt;Node72</title>
<path fill="none" stroke="#63b8ff" d="M1439.39,-200.43C1624.06,-198.14 2261.93,-187.88 2787,-151 2790.1,-150.78 2793.27,-150.54 2796.47,-150.28"/>
<polygon fill="#63b8ff" stroke="#63b8ff" points="1439.1,-196.93 1429.15,-200.55 1439.19,-203.93 1439.1,-196.93"/>
</g>
<!-- Node73 -->
<g id="node35" class="node">
<title>Node73</title>
<g id="a_node35"><a xlink:href="dot_8cpp.html" target="_top" xlink:title=" ">
<polygon fill="white" stroke="#666666" points="2603,-96 2485,-96 2485,-77 2603,-77 2603,-96"/>
<text text-anchor="middle" x="2544" y="-84" font-family="Helvetica,sans-Serif" font-size="10.00">thorin/be/dot/dot.cpp</text>
</a>
</g>
</g>
<!-- Node15&#45;&gt;Node73 -->
<g id="edge43" class="edge">
<title>Node15&#45;&gt;Node73</title>
<path fill="none" stroke="#63b8ff" d="M1439.27,-200.38C1656.88,-197.57 2481.69,-184.75 2525,-151 2541.88,-137.84 2544.26,-110.28 2544.3,-96.2"/>
<polygon fill="#63b8ff" stroke="#63b8ff" points="1439.02,-196.88 1429.07,-200.51 1439.11,-203.88 1439.02,-196.88"/>
</g>
<!-- Node74 -->
<g id="node36" class="node">
<title>Node74</title>
<g id="a_node36"><a xlink:href="emitter_8h.html" target="_top" xlink:title=" ">
<polygon fill="#fff0f0" stroke="red" points="2372.5,-151 2265.5,-151 2265.5,-132 2372.5,-132 2372.5,-151"/>
<text text-anchor="middle" x="2319" y="-139" font-family="Helvetica,sans-Serif" font-size="10.00">thorin/be/emitter.h</text>
</a>
</g>
</g>
<!-- Node15&#45;&gt;Node74 -->
<g id="edge44" class="edge">
<title>Node15&#45;&gt;Node74</title>
<path fill="none" stroke="#63b8ff" d="M1439.22,-199.39C1574.44,-194.92 1947.03,-180.69 2256,-151 2259.08,-150.7 2262.23,-150.37 2265.42,-150.01"/>
<polygon fill="#63b8ff" stroke="#63b8ff" points="1439.02,-195.9 1429.14,-199.72 1439.25,-202.89 1439.02,-195.9"/>
</g>
<!-- Node85 -->
<g id="node37" class="node">
<title>Node85</title>
<g id="a_node37"><a xlink:href="debug_8cpp.html" target="_top" xlink:title=" ">
<polygon fill="white" stroke="#666666" points="2247,-151 2149,-151 2149,-132 2247,-132 2247,-151"/>
<text text-anchor="middle" x="2198" y="-139" font-family="Helvetica,sans-Serif" font-size="10.00">thorin/debug.cpp</text>
</a>
</g>
</g>
<!-- Node15&#45;&gt;Node85 -->
<g id="edge47" class="edge">
<title>Node15&#45;&gt;Node85</title>
<path fill="none" stroke="#63b8ff" d="M1439.38,-198.95C1562.08,-193.84 1877.64,-178.89 2140,-151 2142.93,-150.69 2145.95,-150.34 2148.99,-149.96"/>
<polygon fill="#63b8ff" stroke="#63b8ff" points="1438.99,-195.46 1429.14,-199.37 1439.28,-202.46 1438.99,-195.46"/>
</g>
<!-- Node87 -->
<g id="node38" class="node">
<title>Node87</title>
<g id="a_node38"><a xlink:href="dump_8cpp.html" target="_top" xlink:title=" ">
<polygon fill="white" stroke="#666666" points="3054,-151 2958,-151 2958,-132 3054,-132 3054,-151"/>
<text text-anchor="middle" x="3006" y="-139" font-family="Helvetica,sans-Serif" font-size="10.00">thorin/dump.cpp</text>
</a>
</g>
</g>
<!-- Node15&#45;&gt;Node87 -->
<g id="edge49" class="edge">
<title>Node15&#45;&gt;Node87</title>
<path fill="none" stroke="#63b8ff" d="M1439.4,-200.14C1675.98,-196.14 2646.13,-178.34 2949,-151 2951.89,-150.74 2954.86,-150.43 2957.85,-150.08"/>
<polygon fill="#63b8ff" stroke="#63b8ff" points="1439.28,-196.64 1429.34,-200.31 1439.4,-203.64 1439.28,-196.64"/>
</g>
<!-- Node23&#45;&gt;Node28 -->
<g id="edge19" class="edge">
<title>Node23&#45;&gt;Node28</title>
<path fill="none" stroke="#63b8ff" d="M1686.72,-127.23C1668.2,-117.51 1643.58,-104.6 1627.52,-96.17"/>
<polygon fill="#63b8ff" stroke="#63b8ff" points="1685.29,-130.44 1695.77,-131.98 1688.54,-124.24 1685.29,-130.44"/>
</g>
<!-- Node44&#45;&gt;Node28 -->
<g id="edge23" class="edge">
<title>Node44&#45;&gt;Node28</title>
<path fill="none" stroke="#63b8ff" d="M1432.95,-129.63C1474.91,-119.7 1536.12,-105.22 1574.73,-96.08"/>
<polygon fill="#63b8ff" stroke="#63b8ff" points="1431.91,-126.28 1422.99,-131.98 1433.53,-133.09 1431.91,-126.28"/>
</g>
<!-- Node44&#45;&gt;Node47 -->
<g id="edge24" class="edge">
<title>Node44&#45;&gt;Node47</title>
<path fill="none" stroke="#63b8ff" d="M1384.87,-121.66C1383.88,-112.93 1382.75,-102.99 1381.97,-96.09"/>
<polygon fill="#63b8ff" stroke="#63b8ff" points="1381.41,-122.21 1386.01,-131.75 1388.36,-121.42 1381.41,-122.21"/>
</g>
<!-- Node33 -->
<g id="node22" class="node">
<title>Node33</title>
<g id="a_node22"><a xlink:href="lower__typed__clos__prep_8cpp.html" target="_top" xlink:title=" ">
<polygon fill="white" stroke="#666666" points="1670.5,-41 1553.5,-41 1553.5,0 1670.5,0 1670.5,-41"/>
<text text-anchor="start" x="1561.5" y="-29" font-family="Helvetica,sans-Serif" font-size="10.00">dialects/clos/pass</text>
<text text-anchor="start" x="1561.5" y="-18" font-family="Helvetica,sans-Serif" font-size="10.00">/fp/lower_typed_clos</text>
<text text-anchor="middle" x="1612" y="-7" font-family="Helvetica,sans-Serif" font-size="10.00">_prep.cpp</text>
</a>
</g>
</g>
<!-- Node47&#45;&gt;Node33 -->
<g id="edge25" class="edge">
<title>Node47&#45;&gt;Node33</title>
<path fill="none" stroke="#63b8ff" d="M1421.97,-74.15C1458.48,-64.03 1512.33,-49.11 1553.39,-37.74"/>
<polygon fill="#63b8ff" stroke="#63b8ff" points="1420.86,-70.83 1412.15,-76.87 1422.73,-77.57 1420.86,-70.83"/>
</g>
<!-- Node47&#45;&gt;Node49 -->
<g id="edge26" class="edge">
<title>Node47&#45;&gt;Node49</title>
<path fill="none" stroke="#63b8ff" d="M1339.83,-74.14C1294.12,-61.53 1221.38,-41.47 1180.16,-30.1"/>
<polygon fill="#63b8ff" stroke="#63b8ff" points="1339.14,-77.58 1349.71,-76.87 1341,-70.84 1339.14,-77.58"/>
</g>
<!-- Node54&#45;&gt;Node56 -->
<g id="edge28" class="edge">
<title>Node54&#45;&gt;Node56</title>
<path fill="none" stroke="#63b8ff" d="M761.19,-127.63C781.82,-117.87 809.62,-104.71 827.68,-96.17"/>
<polygon fill="#63b8ff" stroke="#63b8ff" points="759.54,-124.54 751.99,-131.98 762.53,-130.87 759.54,-124.54"/>
</g>
<!-- Node57&#45;&gt;Node59 -->
<g id="edge31" class="edge">
<title>Node57&#45;&gt;Node59</title>
<path fill="none" stroke="#63b8ff" d="M943.63,-127.77C964.84,-117.99 993.56,-104.75 1012.19,-96.17"/>
<polygon fill="#63b8ff" stroke="#63b8ff" points="942.09,-124.62 934.48,-131.98 945.02,-130.98 942.09,-124.62"/>
</g>
<!-- Node66&#45;&gt;Node65 -->
<g id="edge38" class="edge">
<title>Node66&#45;&gt;Node65</title>
<path fill="none" stroke="#63b8ff" d="M1217.93,-121.66C1217.44,-112.93 1216.88,-102.99 1216.49,-96.09"/>
<polygon fill="#63b8ff" stroke="#63b8ff" points="1214.44,-121.96 1218.5,-131.75 1221.43,-121.57 1214.44,-121.96"/>
</g>
<!-- Node74&#45;&gt;Node73 -->
<g id="edge45" class="edge">
<title>Node74&#45;&gt;Node73</title>
<path fill="none" stroke="#63b8ff" d="M2364.89,-129.69C2407.05,-119.76 2468.7,-105.24 2507.57,-96.08"/>
<polygon fill="#63b8ff" stroke="#63b8ff" points="2364.08,-126.28 2355.15,-131.98 2365.69,-133.1 2364.08,-126.28"/>
</g>
<!-- Node131&#45;&gt;Node9 -->
<g id="edge57" class="edge">
<title>Node131&#45;&gt;Node9</title>
<path fill="none" stroke="#63b8ff" d="M870.22,-248.08C849.56,-236.88 820.74,-221.27 803,-211.67"/>
<polygon fill="#63b8ff" stroke="#63b8ff" points="868.6,-251.18 879.06,-252.87 871.94,-245.03 868.6,-251.18"/>
</g>
<!-- Node131&#45;&gt;Node87 -->
<g id="edge54" class="edge">
<title>Node131&#45;&gt;Node87</title>
<path fill="none" stroke="#63b8ff" d="M948.28,-261.07C1233.39,-258.63 2572.69,-245.72 2755,-217 2777.45,-213.46 2918.02,-169.98 2978.45,-151.13"/>
<polygon fill="#63b8ff" stroke="#63b8ff" points="948.17,-257.57 938.2,-261.15 948.23,-264.57 948.17,-257.57"/>
</g>
<!-- Node132 -->
<g id="node40" class="node">
<title>Node132</title>
<g id="a_node40"><a xlink:href="ast_8h.html" target="_top" xlink:title=" ">
<polygon fill="#fff0f0" stroke="red" points="937.5,-211.5 852.5,-211.5 852.5,-192.5 937.5,-192.5 937.5,-211.5"/>
<text text-anchor="middle" x="895" y="-199.5" font-family="Helvetica,sans-Serif" font-size="10.00">thorin/fe/ast.h</text>
</a>
</g>
</g>
<!-- Node131&#45;&gt;Node132 -->
<g id="edge55" class="edge">
<title>Node131&#45;&gt;Node132</title>
<path fill="none" stroke="#63b8ff" d="M895,-242.66C895,-232.24 895,-219.8 895,-211.67"/>
<polygon fill="#63b8ff" stroke="#63b8ff" points="891.5,-242.87 895,-252.87 898.5,-242.87 891.5,-242.87"/>
</g>
<!-- Node133 -->
<g id="node41" class="node">
<title>Node133</title>
<g id="a_node41"><a xlink:href="tok_8cpp.html" target="_top" xlink:title=" ">
<polygon fill="white" stroke="#666666" points="2745.5,-211.5 2648.5,-211.5 2648.5,-192.5 2745.5,-192.5 2745.5,-211.5"/>
<text text-anchor="middle" x="2697" y="-199.5" font-family="Helvetica,sans-Serif" font-size="10.00">thorin/fe/tok.cpp</text>
</a>
</g>
</g>
<!-- Node131&#45;&gt;Node133 -->
<g id="edge58" class="edge">
<title>Node131&#45;&gt;Node133</title>
<path fill="none" stroke="#63b8ff" d="M948.36,-261.52C1202.97,-261.42 2295.84,-258.51 2634,-217 2643.9,-215.79 2654.53,-213.72 2664.18,-211.55"/>
<polygon fill="#63b8ff" stroke="#63b8ff" points="948.26,-258.02 938.26,-261.53 948.26,-265.02 948.26,-258.02"/>
</g>
<!-- Node132&#45;&gt;Node4 -->
<g id="edge56" class="edge">
<title>Node132&#45;&gt;Node4</title>
<path fill="none" stroke="#63b8ff" d="M856.88,-189.96C851.91,-188.81 846.85,-187.77 842,-187 569.86,-143.59 497.18,-178.67 223,-151 220.12,-150.71 217.16,-150.38 214.18,-150.02"/>
<polygon fill="#63b8ff" stroke="#63b8ff" points="856.34,-193.43 866.89,-192.46 858.04,-186.64 856.34,-193.43"/>
</g>
<!-- Node134&#45;&gt;Node33 -->
<g id="edge60" class="edge">
<title>Node134&#45;&gt;Node33</title>
<path fill="none" stroke="#63b8ff" d="M3243.57,-244.12C3223.32,-210.58 3179.69,-139.56 3169,-132 3085.67,-73.03 3047.06,-91.42 2946,-77 2694.3,-41.09 1894.38,-25.97 1670.64,-22.38"/>
<polygon fill="#63b8ff" stroke="#63b8ff" points="3240.68,-246.1 3248.84,-252.86 3246.68,-242.49 3240.68,-246.1"/>
</g>
<!-- Node103 -->
<g id="node43" class="node">
<title>Node103</title>
<g id="a_node43"><a xlink:href="ssa__constr_8h.html" target="_top" xlink:title=" ">
<polygon fill="#fff0f0" stroke="red" points="3358,-217 3238,-217 3238,-187 3358,-187 3358,-217"/>
<text text-anchor="start" x="3246" y="-205" font-family="Helvetica,sans-Serif" font-size="10.00">dialects/mem/passes</text>
<text text-anchor="middle" x="3298" y="-194" font-family="Helvetica,sans-Serif" font-size="10.00">/fp/ssa_constr.h</text>
</a>
</g>
</g>
<!-- Node134&#45;&gt;Node103 -->
<g id="edge61" class="edge">
<title>Node134&#45;&gt;Node103</title>
<path fill="none" stroke="#63b8ff" d="M3266.71,-244.61C3273.26,-235.89 3281.16,-225.39 3287.38,-217.11"/>
<polygon fill="#63b8ff" stroke="#63b8ff" points="3263.71,-242.77 3260.49,-252.87 3269.3,-246.98 3263.71,-242.77"/>
</g>
<!-- Node135 -->
<g id="node44" class="node">
<title>Node135</title>
<g id="a_node44"><a xlink:href="bitset_8cpp.html" target="_top" xlink:title=" ">
<polygon fill="white" stroke="#666666" points="3491.5,-211.5 3376.5,-211.5 3376.5,-192.5 3491.5,-192.5 3491.5,-211.5"/>
<text text-anchor="middle" x="3434" y="-199.5" font-family="Helvetica,sans-Serif" font-size="10.00">thorin/util/bitset.cpp</text>
</a>
</g>
</g>
<!-- Node134&#45;&gt;Node135 -->
<g id="edge62" class="edge">
<title>Node134&#45;&gt;Node135</title>
<path fill="none" stroke="#63b8ff" d="M3289.95,-249.82C3324.76,-238.5 3376.72,-221.62 3407.79,-211.52"/>
<polygon fill="#63b8ff" stroke="#63b8ff" points="3288.6,-246.57 3280.17,-252.99 3290.77,-253.23 3288.6,-246.57"/>
</g>
<!-- Node136&#45;&gt;Node15 -->
<g id="edge75" class="edge">
<title>Node136&#45;&gt;Node15</title>
<path fill="none" stroke="#63b8ff" d="M2872.27,-259.24C2619.87,-249.68 1643.91,-212.73 1429.01,-204.59"/>
<polygon fill="#63b8ff" stroke="#63b8ff" points="2872.22,-262.74 2882.34,-259.62 2872.48,-255.74 2872.22,-262.74"/>
</g>
<!-- Node137 -->
<g id="node46" class="node">
<title>Node137</title>
<g id="a_node46"><a xlink:href="def_8h.html" target="_top" xlink:title=" ">
<polygon fill="#fff0f0" stroke="red" points="3144,-151 3072,-151 3072,-132 3144,-132 3144,-151"/>
<text text-anchor="middle" x="3108" y="-139" font-family="Helvetica,sans-Serif" font-size="10.00">thorin/def.h</text>
</a>
</g>
</g>
<!-- Node136&#45;&gt;Node137 -->
<g id="edge64" class="edge">
<title>Node136&#45;&gt;Node137</title>
<path fill="none" stroke="#63b8ff" d="M2955.35,-247.49C2969.14,-239 2986.83,-227.77 3002,-217 3019.55,-204.55 3022.54,-199.57 3040,-187 3058.32,-173.81 3080.3,-159.73 3094.21,-151.02"/>
<polygon fill="#63b8ff" stroke="#63b8ff" points="2953.21,-244.69 2946.49,-252.88 2956.85,-250.67 2953.21,-244.69"/>
</g>
<!-- Node155 -->
<g id="node47" class="node">
<title>Node155</title>
<g id="a_node47"><a xlink:href="container_8h.html" target="_top" xlink:title=" ">
<polygon fill="#fff0f0" stroke="red" points="2992.5,-211.5 2871.5,-211.5 2871.5,-192.5 2992.5,-192.5 2992.5,-211.5"/>
<text text-anchor="middle" x="2932" y="-199.5" font-family="Helvetica,sans-Serif" font-size="10.00">thorin/util/container.h</text>
</a>
</g>
</g>
<!-- Node136&#45;&gt;Node155 -->
<g id="edge68" class="edge">
<title>Node136&#45;&gt;Node155</title>
<path fill="none" stroke="#63b8ff" d="M2932,-242.66C2932,-232.24 2932,-219.8 2932,-211.67"/>
<polygon fill="#63b8ff" stroke="#63b8ff" points="2928.5,-242.87 2932,-252.87 2935.5,-242.87 2928.5,-242.87"/>
</g>
<!-- Node156 -->
<g id="node48" class="node">
<title>Node156</title>
<g id="a_node48"><a xlink:href="hash_8cpp.html" target="_top" xlink:title=" ">
<polygon fill="white" stroke="#666666" points="3159,-211.5 3049,-211.5 3049,-192.5 3159,-192.5 3159,-211.5"/>
<text text-anchor="middle" x="3104" y="-199.5" font-family="Helvetica,sans-Serif" font-size="10.00">thorin/util/hash.cpp</text>
</a>
</g>
</g>
<!-- Node136&#45;&gt;Node156 -->
<g id="edge74" class="edge">
<title>Node136&#45;&gt;Node156</title>
<path fill="none" stroke="#63b8ff" d="M2966.78,-249.67C3000.04,-238.36 3049.39,-221.57 3078.96,-211.52"/>
<polygon fill="#63b8ff" stroke="#63b8ff" points="2965.35,-246.46 2957.01,-252.99 2967.6,-253.09 2965.35,-246.46"/>
</g>
<!-- Node137&#45;&gt;Node5 -->
<g id="edge66" class="edge">
<title>Node137&#45;&gt;Node5</title>
<path fill="none" stroke="#63b8ff" d="M3061.74,-132.1C2535.92,-80.84 1261.75,-133.62 753,-96 750.32,-95.8 747.58,-95.57 744.81,-95.3"/>
<polygon fill="#63b8ff" stroke="#63b8ff" points="3061.43,-135.59 3071.73,-133.1 3062.12,-128.62 3061.43,-135.59"/>
</g>
<!-- Node137&#45;&gt;Node14 -->
<g id="edge67" class="edge">
<title>Node137&#45;&gt;Node14</title>
<path fill="none" stroke="#63b8ff" d="M3063.07,-129.63C3022.05,-119.7 2962.21,-105.22 2924.46,-96.08"/>
<polygon fill="#63b8ff" stroke="#63b8ff" points="3062.27,-133.03 3072.81,-131.98 3063.92,-126.23 3062.27,-133.03"/>
</g>
<!-- Node137&#45;&gt;Node73 -->
<g id="edge65" class="edge">
<title>Node137&#45;&gt;Node73</title>
<path fill="none" stroke="#63b8ff" d="M3061.71,-131.96C2889.77,-108.8 2698.18,-96.06 2603.37,-90.63"/>
<polygon fill="#63b8ff" stroke="#63b8ff" points="3061.32,-135.44 3071.7,-133.32 3062.27,-128.5 3061.32,-135.44"/>
</g>
<!-- Node155&#45;&gt;Node14 -->
<g id="edge73" class="edge">
<title>Node155&#45;&gt;Node14</title>
<path fill="none" stroke="#63b8ff" d="M2995.51,-190.76C3057.22,-180.16 3143.06,-163.45 3153,-151 3158.27,-144.4 3158.45,-138.45 3153,-132 3125.84,-99.88 3005.11,-90.93 2936.71,-88.45"/>
<polygon fill="#63b8ff" stroke="#63b8ff" points="2994.71,-187.34 2985.44,-192.47 2995.89,-194.24 2994.71,-187.34"/>
</g>
<!-- Node155&#45;&gt;Node69 -->
<g id="edge69" class="edge">
<title>Node155&#45;&gt;Node69</title>
<path fill="none" stroke="#63b8ff" d="M2890.43,-189.9C2848.08,-178.58 2783.34,-161.29 2744.88,-151.02"/>
<polygon fill="#63b8ff" stroke="#63b8ff" points="2889.59,-193.29 2900.16,-192.49 2891.4,-186.53 2889.59,-193.29"/>
</g>
<!-- Node155&#45;&gt;Node72 -->
<g id="edge70" class="edge">
<title>Node155&#45;&gt;Node72</title>
<path fill="none" stroke="#63b8ff" d="M2914.94,-185.41C2902.94,-174.44 2887.33,-160.17 2877.48,-151.17"/>
<polygon fill="#63b8ff" stroke="#63b8ff" points="2912.81,-188.2 2922.56,-192.37 2917.54,-183.04 2912.81,-188.2"/>
</g>
<!-- Node155&#45;&gt;Node87 -->
<g id="edge72" class="edge">
<title>Node155&#45;&gt;Node87</title>
<path fill="none" stroke="#63b8ff" d="M2950.93,-186.04C2964.9,-174.99 2983.43,-160.34 2995.04,-151.17"/>
<polygon fill="#63b8ff" stroke="#63b8ff" points="2948.59,-183.42 2942.92,-192.37 2952.93,-188.91 2948.59,-183.42"/>
</g>
<!-- Node155&#45;&gt;Node137 -->
<g id="edge71" class="edge">
<title>Node155&#45;&gt;Node137</title>
<path fill="none" stroke="#63b8ff" d="M2967.15,-189.32C3001.19,-178 3051.99,-161.12 3082.38,-151.02"/>
<polygon fill="#63b8ff" stroke="#63b8ff" points="2965.98,-186.02 2957.59,-192.49 2968.19,-192.66 2965.98,-186.02"/>
</g>
<!-- Node157&#45;&gt;Node9 -->
<g id="edge77" class="edge">
<title>Node157&#45;&gt;Node9</title>
<path fill="none" stroke="#63b8ff" d="M786.32,-242.66C786.5,-232.24 786.71,-219.8 786.85,-211.67"/>
<polygon fill="#63b8ff" stroke="#63b8ff" points="782.82,-242.81 786.15,-252.87 789.82,-242.93 782.82,-242.81"/>
</g>
<!-- Node158 -->
<g id="node50" class="node">
<title>Node158</title>
<g id="a_node50"><a xlink:href="utf8_8cpp.html" target="_top" xlink:title=" ">
<polygon fill="white" stroke="#666666" points="722.5,-211.5 615.5,-211.5 615.5,-192.5 722.5,-192.5 722.5,-211.5"/>
<text text-anchor="middle" x="669" y="-199.5" font-family="Helvetica,sans-Serif" font-size="10.00">thorin/util/utf8.cpp</text>
</a>
</g>
</g>
<!-- Node157&#45;&gt;Node158 -->
<g id="edge78" class="edge">
<title>Node157&#45;&gt;Node158</title>
<path fill="none" stroke="#63b8ff" d="M759.96,-248.48C737.42,-237.21 705.45,-221.23 686.03,-211.52"/>
<polygon fill="#63b8ff" stroke="#63b8ff" points="758.48,-251.65 768.99,-252.99 761.61,-245.39 758.48,-251.65"/>
</g>
</g>
</svg>
