<?xml version="1.0" encoding="UTF-8" standalone="no"?>
<!DOCTYPE svg PUBLIC "-//W3C//DTD SVG 1.1//EN"
 "http://www.w3.org/Graphics/SVG/1.1/DTD/svg11.dtd">
<!-- Generated by graphviz version 2.43.0 (0)
 -->
<!-- Title: thorin/util/utf8.h Pages: 1 -->
<svg width="803pt" height="148pt"
 viewBox="0.00 0.00 803.00 148.00" xmlns="http://www.w3.org/2000/svg" xmlns:xlink="http://www.w3.org/1999/xlink">
<g id="graph0" class="graph" transform="scale(1 1) rotate(0) translate(4 144)">
<title>thorin/util/utf8.h</title>
<!-- Node1 -->
<g id="node1" class="node">
<title>Node1</title>
<g id="a_node1"><a xlink:title=" ">
<polygon fill="#999999" stroke="#666666" points="207.5,-140 112.5,-140 112.5,-121 207.5,-121 207.5,-140"/>
<text text-anchor="middle" x="160" y="-128" font-family="Helvetica,sans-Serif" font-size="10.00">thorin/util/utf8.h</text>
</a>
</g>
</g>
<!-- Node2 -->
<g id="node2" class="node">
<title>Node2</title>
<g id="a_node2"><a xlink:title=" ">
<polygon fill="#e0e0e0" stroke="#999999" points="42,-85 0,-85 0,-66 42,-66 42,-85"/>
<text text-anchor="middle" x="21" y="-73" font-family="Helvetica,sans-Serif" font-size="10.00">array</text>
</a>
</g>
</g>
<!-- Node1&#45;&gt;Node2 -->
<g id="edge1" class="edge">
<title>Node1&#45;&gt;Node2</title>
<path fill="none" stroke="#63b8ff" d="M137.67,-120.98C114.39,-112.11 77.76,-98.14 51.76,-88.23"/>
<polygon fill="#63b8ff" stroke="#63b8ff" points="52.96,-84.94 42.36,-84.65 50.46,-91.48 52.96,-84.94"/>
</g>
<!-- Node3 -->
<g id="node3" class="node">
<title>Node3</title>
<g id="a_node3"><a xlink:title=" ">
<polygon fill="#e0e0e0" stroke="#999999" points="114,-85 60,-85 60,-66 114,-66 114,-85"/>
<text text-anchor="middle" x="87" y="-73" font-family="Helvetica,sans-Serif" font-size="10.00">istream</text>
</a>
</g>
</g>
<!-- Node1&#45;&gt;Node3 -->
<g id="edge2" class="edge">
<title>Node1&#45;&gt;Node3</title>
<path fill="none" stroke="#63b8ff" d="M148.27,-120.98C137.27,-113 120.58,-100.88 107.4,-91.31"/>
<polygon fill="#63b8ff" stroke="#63b8ff" points="109.09,-88.21 98.94,-85.17 104.98,-93.88 109.09,-88.21"/>
</g>
<!-- Node4 -->
<g id="node4" class="node">
<title>Node4</title>
<g id="a_node4"><a xlink:title=" ">
<polygon fill="#e0e0e0" stroke="#999999" points="188,-85 132,-85 132,-66 188,-66 188,-85"/>
<text text-anchor="middle" x="160" y="-73" font-family="Helvetica,sans-Serif" font-size="10.00">optional</text>
</a>
</g>
</g>
<!-- Node1&#45;&gt;Node4 -->
<g id="edge3" class="edge">
<title>Node1&#45;&gt;Node4</title>
<path fill="none" stroke="#63b8ff" d="M160,-120.75C160,-113.8 160,-103.85 160,-95.13"/>
<polygon fill="#63b8ff" stroke="#63b8ff" points="163.5,-95.09 160,-85.09 156.5,-95.09 163.5,-95.09"/>
</g>
<!-- Node5 -->
<g id="node5" class="node">
<title>Node5</title>
<g id="a_node5"><a xlink:href="debug_8h.html" target="_top" xlink:title=" ">
<polygon fill="white" stroke="#666666" points="293.5,-85 206.5,-85 206.5,-66 293.5,-66 293.5,-85"/>
<text text-anchor="middle" x="250" y="-73" font-family="Helvetica,sans-Serif" font-size="10.00">thorin/debug.h</text>
</a>
</g>
</g>
<!-- Node1&#45;&gt;Node5 -->
<g id="edge4" class="edge">
<title>Node1&#45;&gt;Node5</title>
<path fill="none" stroke="#63b8ff" d="M174.46,-120.98C188.42,-112.77 209.79,-100.18 226.25,-90.49"/>
<polygon fill="#63b8ff" stroke="#63b8ff" points="228.44,-93.26 235.28,-85.17 224.88,-87.23 228.44,-93.26"/>
</g>
<!-- Node9 -->
<g id="node9" class="node">
<title>Node9</title>
<g id="a_node9"><a xlink:href="types_8h.html" target="_top" xlink:title=" ">
<polygon fill="white" stroke="#666666" points="591.5,-85 488.5,-85 488.5,-66 591.5,-66 591.5,-85"/>
<text text-anchor="middle" x="540" y="-73" font-family="Helvetica,sans-Serif" font-size="10.00">thorin/util/types.h</text>
</a>
</g>
</g>
<!-- Node1&#45;&gt;Node9 -->
<g id="edge8" class="edge">
<title>Node1&#45;&gt;Node9</title>
<path fill="none" stroke="#63b8ff" d="M207.74,-122.84C276.18,-113.3 402.25,-95.71 477.88,-85.16"/>
<polygon fill="#63b8ff" stroke="#63b8ff" points="478.78,-88.57 488.2,-83.72 477.81,-81.64 478.78,-88.57"/>
</g>
<!-- Node6 -->
<g id="node6" class="node">
<title>Node6</title>
<g id="a_node6"><a xlink:title=" ">
<polygon fill="#e0e0e0" stroke="#999999" points="119,-24.5 75,-24.5 75,-5.5 119,-5.5 119,-24.5"/>
<text text-anchor="middle" x="97" y="-12.5" font-family="Helvetica,sans-Serif" font-size="10.00">string</text>
</a>
</g>
</g>
<!-- Node5&#45;&gt;Node6 -->
<g id="edge5" class="edge">
<title>Node5&#45;&gt;Node6</title>
<path fill="none" stroke="#63b8ff" d="M224.56,-65.84C199.73,-57.24 160.99,-43.44 128,-30 126.83,-29.52 125.64,-29.03 124.44,-28.52"/>
<polygon fill="#63b8ff" stroke="#63b8ff" points="125.83,-25.31 115.26,-24.52 123.03,-31.72 125.83,-25.31"/>
</g>
<!-- Node7 -->
<g id="node7" class="node">
<title>Node7</title>
<g id="a_node7"><a xlink:title=" ">
<polygon fill="#e0e0e0" stroke="#999999" points="241,-30 137,-30 137,0 241,0 241,-30"/>
<text text-anchor="start" x="145" y="-18" font-family="Helvetica,sans-Serif" font-size="10.00">absl/container/flat</text>
<text text-anchor="middle" x="189" y="-7" font-family="Helvetica,sans-Serif" font-size="10.00">_hash_map.h</text>
</a>
</g>
</g>
<!-- Node5&#45;&gt;Node7 -->
<g id="edge6" class="edge">
<title>Node5&#45;&gt;Node7</title>
<path fill="none" stroke="#63b8ff" d="M241,-65.87C233.11,-58.3 221.3,-46.98 210.94,-37.04"/>
<polygon fill="#63b8ff" stroke="#63b8ff" points="213.36,-34.51 203.72,-30.11 208.51,-39.56 213.36,-34.51"/>
</g>
<!-- Node8 -->
<g id="node8" class="node">
<title>Node8</title>
<g id="a_node8"><a xlink:title=" ">
<polygon fill="#e0e0e0" stroke="#999999" points="363,-30 259,-30 259,0 363,0 363,-30"/>
<text text-anchor="start" x="267" y="-18" font-family="Helvetica,sans-Serif" font-size="10.00">absl/container/flat</text>
<text text-anchor="middle" x="311" y="-7" font-family="Helvetica,sans-Serif" font-size="10.00">_hash_set.h</text>
</a>
</g>
</g>
<!-- Node5&#45;&gt;Node8 -->
<g id="edge7" class="edge">
<title>Node5&#45;&gt;Node8</title>
<path fill="none" stroke="#63b8ff" d="M259,-65.87C266.89,-58.3 278.7,-46.98 289.06,-37.04"/>
<polygon fill="#63b8ff" stroke="#63b8ff" points="291.49,-39.56 296.28,-30.11 286.64,-34.51 291.49,-39.56"/>
</g>
<!-- Node10 -->
<g id="node10" class="node">
<title>Node10</title>
<g id="a_node10"><a xlink:title=" ">
<polygon fill="#e0e0e0" stroke="#999999" points="431,-24.5 381,-24.5 381,-5.5 431,-5.5 431,-24.5"/>
<text text-anchor="middle" x="406" y="-12.5" font-family="Helvetica,sans-Serif" font-size="10.00">cstdint</text>
</a>
</g>
</g>
<!-- Node9&#45;&gt;Node10 -->
<g id="edge9" class="edge">
<title>Node9&#45;&gt;Node10</title>
<path fill="none" stroke="#63b8ff" d="M520.52,-65.99C497.99,-56.16 460.69,-39.88 434.81,-28.58"/>
<polygon fill="#63b8ff" stroke="#63b8ff" points="436.07,-25.31 425.51,-24.52 433.27,-31.73 436.07,-25.31"/>
</g>
<!-- Node11 -->
<g id="node11" class="node">
<title>Node11</title>
<g id="a_node11"><a xlink:title=" ">
<polygon fill="#e0e0e0" stroke="#999999" points="493,-24.5 449,-24.5 449,-5.5 493,-5.5 493,-24.5"/>
<text text-anchor="middle" x="471" y="-12.5" font-family="Helvetica,sans-Serif" font-size="10.00">limits</text>
</a>
</g>
</g>
<!-- Node9&#45;&gt;Node11 -->
<g id="edge10" class="edge">
<title>Node9&#45;&gt;Node11</title>
<path fill="none" stroke="#63b8ff" d="M529.82,-65.87C519.12,-56.8 502.06,-42.34 489.07,-31.32"/>
<polygon fill="#63b8ff" stroke="#63b8ff" points="491.11,-28.46 481.22,-24.67 486.59,-33.8 491.11,-28.46"/>
</g>
<!-- Node12 -->
<g id="node12" class="node">
<title>Node12</title>
<g id="a_node12"><a xlink:title=" ">
<polygon fill="#e0e0e0" stroke="#999999" points="568.5,-24.5 511.5,-24.5 511.5,-5.5 568.5,-5.5 568.5,-24.5"/>
<text text-anchor="middle" x="540" y="-12.5" font-family="Helvetica,sans-Serif" font-size="10.00">ostream</text>
</a>
</g>
</g>
<!-- Node9&#45;&gt;Node12 -->
<g id="edge11" class="edge">
<title>Node9&#45;&gt;Node12</title>
<path fill="none" stroke="#63b8ff" d="M540,-65.87C540,-57.75 540,-45.31 540,-34.89"/>
<polygon fill="#63b8ff" stroke="#63b8ff" points="543.5,-34.67 540,-24.67 536.5,-34.67 543.5,-34.67"/>
</g>
<!-- Node13 -->
<g id="node13" class="node">
<title>Node13</title>
<g id="a_node13"><a xlink:title=" ">
<polygon fill="#e0e0e0" stroke="#999999" points="655.5,-24.5 586.5,-24.5 586.5,-5.5 655.5,-5.5 655.5,-24.5"/>
<text text-anchor="middle" x="621" y="-12.5" font-family="Helvetica,sans-Serif" font-size="10.00">type_traits</text>
</a>
</g>
</g>
<!-- Node9&#45;&gt;Node13 -->
<g id="edge12" class="edge">
<title>Node9&#45;&gt;Node13</title>
<path fill="none" stroke="#63b8ff" d="M551.95,-65.87C564.75,-56.62 585.3,-41.78 600.65,-30.69"/>
<polygon fill="#63b8ff" stroke="#63b8ff" points="602.94,-33.36 609,-24.67 598.84,-27.68 602.94,-33.36"/>
</g>
<!-- Node14 -->
<g id="node14" class="node">
<title>Node14</title>
<g id="a_node14"><a xlink:title=" ">
<polygon fill="#e0e0e0" stroke="#999999" points="720.5,-24.5 673.5,-24.5 673.5,-5.5 720.5,-5.5 720.5,-24.5"/>
<text text-anchor="middle" x="697" y="-12.5" font-family="Helvetica,sans-Serif" font-size="10.00">cmath</text>
</a>
</g>
</g>
<!-- Node9&#45;&gt;Node14 -->
<g id="edge13" class="edge">
<title>Node9&#45;&gt;Node14</title>
<path fill="none" stroke="#63b8ff" d="M565.57,-65.99C590.98,-57.39 630.95,-43.49 665,-30 666.21,-29.52 667.43,-29.03 668.67,-28.52"/>
<polygon fill="#63b8ff" stroke="#63b8ff" points="670.29,-31.63 678.14,-24.51 667.57,-25.19 670.29,-31.63"/>
</g>
<!-- Node15 -->
<g id="node15" class="node">
<title>Node15</title>
<g id="a_node15"><a xlink:title=" ">
<polygon fill="#e0e0e0" stroke="#999999" points="795,-24.5 739,-24.5 739,-5.5 795,-5.5 795,-24.5"/>
<text text-anchor="middle" x="767" y="-12.5" font-family="Helvetica,sans-Serif" font-size="10.00">half.hpp</text>
</a>
</g>
</g>
<!-- Node9&#45;&gt;Node15 -->
<g id="edge14" class="edge">
<title>Node9&#45;&gt;Node15</title>
<path fill="none" stroke="#63b8ff" d="M583.82,-65.95C622.62,-57.97 680.58,-45.07 730,-30 731.92,-29.41 733.89,-28.78 735.86,-28.11"/>
<polygon fill="#63b8ff" stroke="#63b8ff" points="737.4,-31.28 745.64,-24.63 735.05,-24.69 737.4,-31.28"/>
</g>
</g>
</svg>
