<?xml version="1.0" encoding="UTF-8" standalone="no"?>
<!DOCTYPE svg PUBLIC "-//W3C//DTD SVG 1.1//EN"
 "http://www.w3.org/Graphics/SVG/1.1/DTD/svg11.dtd">
<!-- Generated by graphviz version 2.43.0 (0)
 -->
<!-- Title: thorin/util/utf8.h Pages: 1 -->
<svg width="292pt" height="192pt"
 viewBox="0.00 0.00 291.50 192.00" xmlns="http://www.w3.org/2000/svg" xmlns:xlink="http://www.w3.org/1999/xlink">
<g id="graph0" class="graph" transform="scale(1 1) rotate(0) translate(4 188)">
<title>thorin/util/utf8.h</title>
<!-- Node1 -->
<g id="node1" class="node">
<title>Node1</title>
<g id="a_node1"><a xlink:title=" ">
<polygon fill="#999999" stroke="#666666" points="218.5,-184 123.5,-184 123.5,-165 218.5,-165 218.5,-184"/>
<text text-anchor="middle" x="171" y="-172" font-family="Helvetica,sans-Serif" font-size="10.00">thorin/util/utf8.h</text>
</a>
</g>
</g>
<!-- Node2 -->
<g id="node2" class="node">
<title>Node2</title>
<g id="a_node2"><a xlink:href="lexer_8h.html" target="_top" xlink:title=" ">
<polygon fill="white" stroke="#666666" points="158.5,-129 65.5,-129 65.5,-110 158.5,-110 158.5,-129"/>
<text text-anchor="middle" x="112" y="-117" font-family="Helvetica,sans-Serif" font-size="10.00">thorin/fe/lexer.h</text>
</a>
</g>
</g>
<!-- Node1&#45;&gt;Node2 -->
<g id="edge1" class="edge">
<title>Node1&#45;&gt;Node2</title>
<path fill="none" stroke="#63b8ff" d="M153.8,-158.04C143.33,-148.64 130.35,-136.98 121.65,-129.17"/>
<polygon fill="#63b8ff" stroke="#63b8ff" points="151.74,-160.91 161.52,-164.98 156.42,-155.7 151.74,-160.91"/>
</g>
<!-- Node7 -->
<g id="node7" class="node">
<title>Node7</title>
<g id="a_node7"><a xlink:href="utf8_8cpp.html" target="_top" xlink:title=" ">
<polygon fill="white" stroke="#666666" points="283.5,-129 176.5,-129 176.5,-110 283.5,-110 283.5,-129"/>
<text text-anchor="middle" x="230" y="-117" font-family="Helvetica,sans-Serif" font-size="10.00">thorin/util/utf8.cpp</text>
</a>
</g>
</g>
<!-- Node1&#45;&gt;Node7 -->
<g id="edge6" class="edge">
<title>Node1&#45;&gt;Node7</title>
<path fill="none" stroke="#63b8ff" d="M188.2,-158.04C198.67,-148.64 211.65,-136.98 220.35,-129.17"/>
<polygon fill="#63b8ff" stroke="#63b8ff" points="185.58,-155.7 180.48,-164.98 190.26,-160.91 185.58,-155.7"/>
</g>
<!-- Node3 -->
<g id="node3" class="node">
<title>Node3</title>
<g id="a_node3"><a xlink:href="lexer_8cpp.html" target="_top" xlink:title=" ">
<polygon fill="white" stroke="#666666" points="104,-74 0,-74 0,-55 104,-55 104,-74"/>
<text text-anchor="middle" x="52" y="-62" font-family="Helvetica,sans-Serif" font-size="10.00">thorin/fe/lexer.cpp</text>
</a>
</g>
</g>
<!-- Node2&#45;&gt;Node3 -->
<g id="edge2" class="edge">
<title>Node2&#45;&gt;Node3</title>
<path fill="none" stroke="#63b8ff" d="M94.82,-103.32C84.12,-93.87 70.74,-82.06 61.82,-74.17"/>
<polygon fill="#63b8ff" stroke="#63b8ff" points="92.55,-105.99 102.36,-109.98 97.18,-100.74 92.55,-105.99"/>
</g>
<!-- Node4 -->
<g id="node4" class="node">
<title>Node4</title>
<g id="a_node4"><a xlink:href="parser_8h.html" target="_top" xlink:title=" ">
<polygon fill="white" stroke="#666666" points="222,-74 122,-74 122,-55 222,-55 222,-74"/>
<text text-anchor="middle" x="172" y="-62" font-family="Helvetica,sans-Serif" font-size="10.00">thorin/fe/parser.h</text>
</a>
</g>
</g>
<!-- Node2&#45;&gt;Node4 -->
<g id="edge3" class="edge">
<title>Node2&#45;&gt;Node4</title>
<path fill="none" stroke="#63b8ff" d="M129.18,-103.32C139.88,-93.87 153.26,-82.06 162.18,-74.17"/>
<polygon fill="#63b8ff" stroke="#63b8ff" points="126.82,-100.74 121.64,-109.98 131.45,-105.99 126.82,-100.74"/>
</g>
<!-- Node5 -->
<g id="node5" class="node">
<title>Node5</title>
<g id="a_node5"><a xlink:href="main_8cpp.html" target="_top" xlink:title=" ">
<polygon fill="white" stroke="#666666" points="154,-19 78,-19 78,0 154,0 154,-19"/>
<text text-anchor="middle" x="116" y="-7" font-family="Helvetica,sans-Serif" font-size="10.00">cli/main.cpp</text>
</a>
</g>
</g>
<!-- Node4&#45;&gt;Node5 -->
<g id="edge4" class="edge">
<title>Node4&#45;&gt;Node5</title>
<path fill="none" stroke="#63b8ff" d="M155.67,-48.04C145.74,-38.64 133.41,-26.98 125.16,-19.17"/>
<polygon fill="#63b8ff" stroke="#63b8ff" points="153.33,-50.65 163,-54.98 158.15,-45.57 153.33,-50.65"/>
</g>
<!-- Node6 -->
<g id="node6" class="node">
<title>Node6</title>
<g id="a_node6"><a xlink:href="parser_8cpp.html" target="_top" xlink:title=" ">
<polygon fill="white" stroke="#666666" points="283.5,-19 172.5,-19 172.5,0 283.5,0 283.5,-19"/>
<text text-anchor="middle" x="228" y="-7" font-family="Helvetica,sans-Serif" font-size="10.00">thorin/fe/parser.cpp</text>
</a>
</g>
</g>
<!-- Node4&#45;&gt;Node6 -->
<g id="edge5" class="edge">
<title>Node4&#45;&gt;Node6</title>
<path fill="none" stroke="#63b8ff" d="M188.33,-48.04C198.26,-38.64 210.59,-26.98 218.84,-19.17"/>
<polygon fill="#63b8ff" stroke="#63b8ff" points="185.85,-45.57 181,-54.98 190.67,-50.65 185.85,-45.57"/>
</g>
</g>
</svg>
