<?xml version="1.0" encoding="UTF-8" standalone="no"?>
<!DOCTYPE svg PUBLIC "-//W3C//DTD SVG 1.1//EN"
 "http://www.w3.org/Graphics/SVG/1.1/DTD/svg11.dtd">
<!-- Generated by graphviz version 2.43.0 (0)
 -->
<!-- Title: thorin/world.h Pages: 1 -->
<svg width="1555pt" height="442pt"
 viewBox="0.00 0.00 1554.50 442.00" xmlns="http://www.w3.org/2000/svg" xmlns:xlink="http://www.w3.org/1999/xlink">
<g id="graph0" class="graph" transform="scale(1 1) rotate(0) translate(4 438)">
<title>thorin/world.h</title>
<!-- Node1 -->
<g id="node1" class="node">
<title>Node1</title>
<g id="a_node1"><a xlink:title=" ">
<polygon fill="#bfbfbf" stroke="black" points="528,-414.5 528,-433.5 612,-433.5 612,-414.5 528,-414.5"/>
<text text-anchor="middle" x="570" y="-421.5" font-family="Helvetica,sans-Serif" font-size="10.00">thorin/world.h</text>
</a>
</g>
</g>
<!-- Node2 -->
<g id="node2" class="node">
<title>Node2</title>
<g id="a_node2"><a xlink:title=" ">
<polygon fill="none" stroke="#bfbfbf" points="0,-56.5 0,-75.5 56,-75.5 56,-56.5 0,-56.5"/>
<text text-anchor="middle" x="28" y="-63.5" font-family="Helvetica,sans-Serif" font-size="10.00">sstream</text>
</a>
</g>
</g>
<!-- Node1&#45;&gt;Node2 -->
<g id="edge1" class="edge">
<title>Node1&#45;&gt;Node2</title>
<path fill="none" stroke="midnightblue" d="M527.77,-422.1C404.54,-418.33 54,-399.07 54,-302 54,-302 54,-302 54,-188 54,-150.9 42.17,-108.81 34.47,-85.33"/>
<polygon fill="midnightblue" stroke="midnightblue" points="37.72,-84.01 31.19,-75.67 31.09,-86.26 37.72,-84.01"/>
</g>
<!-- Node3 -->
<g id="node3" class="node">
<title>Node3</title>
<g id="a_node3"><a xlink:title=" ">
<polygon fill="none" stroke="#bfbfbf" points="276,-56.5 276,-75.5 320,-75.5 320,-56.5 276,-56.5"/>
<text text-anchor="middle" x="298" y="-63.5" font-family="Helvetica,sans-Serif" font-size="10.00">string</text>
</a>
</g>
</g>
<!-- Node1&#45;&gt;Node3 -->
<g id="edge2" class="edge">
<title>Node1&#45;&gt;Node3</title>
<path fill="none" stroke="midnightblue" d="M527.96,-423.05C440.76,-422.37 243.92,-416.48 191,-378 160.92,-356.13 156,-339.19 156,-302 156,-302 156,-302 156,-188 156,-130.43 224.46,-94.47 266.31,-77.87"/>
<polygon fill="midnightblue" stroke="midnightblue" points="267.71,-81.08 275.81,-74.25 265.22,-74.54 267.71,-81.08"/>
</g>
<!-- Node4 -->
<g id="node4" class="node">
<title>Node4</title>
<g id="a_node4"><a xlink:title=" ">
<polygon fill="none" stroke="#bfbfbf" points="260.5,-118 260.5,-137 333.5,-137 333.5,-118 260.5,-118"/>
<text text-anchor="middle" x="297" y="-125" font-family="Helvetica,sans-Serif" font-size="10.00">string_view</text>
</a>
</g>
</g>
<!-- Node1&#45;&gt;Node4 -->
<g id="edge3" class="edge">
<title>Node1&#45;&gt;Node4</title>
<path fill="none" stroke="midnightblue" d="M527.91,-423.44C443.74,-423.42 258.8,-418.62 213,-378 186.95,-354.9 194,-336.82 194,-302 194,-302 194,-302 194,-244 194,-197.49 241.09,-161.07 271.59,-142.36"/>
<polygon fill="midnightblue" stroke="midnightblue" points="273.62,-145.23 280.45,-137.13 270.06,-139.2 273.62,-145.23"/>
</g>
<!-- Node5 -->
<g id="node5" class="node">
<title>Node5</title>
<g id="a_node5"><a xlink:title=" ">
<polygon fill="none" stroke="#bfbfbf" points="222,-347.5 222,-377.5 336,-377.5 336,-347.5 222,-347.5"/>
<text text-anchor="start" x="230" y="-365.5" font-family="Helvetica,sans-Serif" font-size="10.00">absl/container/btree</text>
<text text-anchor="middle" x="279" y="-354.5" font-family="Helvetica,sans-Serif" font-size="10.00">_map.h</text>
</a>
</g>
</g>
<!-- Node1&#45;&gt;Node5 -->
<g id="edge4" class="edge">
<title>Node1&#45;&gt;Node5</title>
<path fill="none" stroke="midnightblue" d="M527.65,-414.78C484.51,-406.35 415.41,-392.69 346.4,-378.27"/>
<polygon fill="midnightblue" stroke="midnightblue" points="346.73,-374.77 336.22,-376.14 345.29,-381.62 346.73,-374.77"/>
</g>
<!-- Node6 -->
<g id="node6" class="node">
<title>Node6</title>
<g id="a_node6"><a xlink:title=" ">
<polygon fill="none" stroke="#bfbfbf" points="354,-347.5 354,-377.5 468,-377.5 468,-347.5 354,-347.5"/>
<text text-anchor="start" x="362" y="-365.5" font-family="Helvetica,sans-Serif" font-size="10.00">absl/container/btree</text>
<text text-anchor="middle" x="411" y="-354.5" font-family="Helvetica,sans-Serif" font-size="10.00">_set.h</text>
</a>
</g>
</g>
<!-- Node1&#45;&gt;Node6 -->
<g id="edge5" class="edge">
<title>Node1&#45;&gt;Node6</title>
<path fill="none" stroke="midnightblue" d="M547.22,-414.48C524.07,-405.81 487.55,-392.15 458.14,-381.14"/>
<polygon fill="midnightblue" stroke="midnightblue" points="459.07,-377.75 448.47,-377.52 456.61,-384.31 459.07,-377.75"/>
</g>
<!-- Node7 -->
<g id="node7" class="node">
<title>Node7</title>
<g id="a_node7"><a xlink:href="axiom_8h.html" target="_top" xlink:title=" ">
<polygon fill="none" stroke="black" points="562,-353 562,-372 650,-372 650,-353 562,-353"/>
<text text-anchor="middle" x="606" y="-360" font-family="Helvetica,sans-Serif" font-size="10.00">thorin/axiom.h</text>
</a>
</g>
</g>
<!-- Node1&#45;&gt;Node7 -->
<g id="edge6" class="edge">
<title>Node1&#45;&gt;Node7</title>
<path fill="none" stroke="midnightblue" d="M575.16,-414.48C580.45,-405.73 588.84,-391.87 595.53,-380.81"/>
<polygon fill="midnightblue" stroke="midnightblue" points="598.67,-382.38 600.85,-372.01 592.68,-378.75 598.67,-382.38"/>
</g>
<!-- Node13 -->
<g id="node13" class="node">
<title>Node13</title>
<g id="a_node13"><a xlink:href="debug_8h.html" target="_top" xlink:title=" ">
<polygon fill="none" stroke="black" points="700.5,-179.5 700.5,-198.5 787.5,-198.5 787.5,-179.5 700.5,-179.5"/>
<text text-anchor="middle" x="744" y="-186.5" font-family="Helvetica,sans-Serif" font-size="10.00">thorin/debug.h</text>
</a>
</g>
</g>
<!-- Node1&#45;&gt;Node13 -->
<g id="edge61" class="edge">
<title>Node1&#45;&gt;Node13</title>
<path fill="none" stroke="midnightblue" d="M612.32,-419.18C663.34,-413.6 744.55,-401.24 763,-378 802.91,-327.72 770.7,-244.46 753.31,-208.02"/>
<polygon fill="midnightblue" stroke="midnightblue" points="756.26,-206.08 748.68,-198.67 749.99,-209.18 756.26,-206.08"/>
</g>
<!-- Node42 -->
<g id="node42" class="node">
<title>Node42</title>
<g id="a_node42"><a xlink:href="hash_8h.html" target="_top" xlink:title=" ">
<polygon fill="none" stroke="black" points="1447.5,-118 1447.5,-137 1546.5,-137 1546.5,-118 1447.5,-118"/>
<text text-anchor="middle" x="1497" y="-125" font-family="Helvetica,sans-Serif" font-size="10.00">thorin/util/hash.h</text>
</a>
</g>
</g>
<!-- Node1&#45;&gt;Node42 -->
<g id="edge72" class="edge">
<title>Node1&#45;&gt;Node42</title>
<path fill="none" stroke="midnightblue" d="M612.19,-421.99C793.35,-417.12 1496,-392.39 1496,-302 1496,-302 1496,-302 1496,-244 1496,-209.86 1496.44,-170.05 1496.74,-147.21"/>
<polygon fill="midnightblue" stroke="midnightblue" points="1500.24,-147.24 1496.87,-137.19 1493.24,-147.15 1500.24,-147.24"/>
</g>
<!-- Node43 -->
<g id="node43" class="node">
<title>Node43</title>
<g id="a_node43"><a xlink:title=" ">
<polygon fill="none" stroke="#bfbfbf" points="668,-353 668,-372 754,-372 754,-353 668,-353"/>
<text text-anchor="middle" x="711" y="-360" font-family="Helvetica,sans-Serif" font-size="10.00">thorin/config.h</text>
</a>
</g>
</g>
<!-- Node1&#45;&gt;Node43 -->
<g id="edge60" class="edge">
<title>Node1&#45;&gt;Node43</title>
<path fill="none" stroke="midnightblue" d="M590.2,-414.48C614.07,-404.4 654,-387.55 681.37,-376"/>
<polygon fill="midnightblue" stroke="midnightblue" points="682.98,-379.12 690.84,-372.01 680.26,-372.67 682.98,-379.12"/>
</g>
<!-- Node44 -->
<g id="node44" class="node">
<title>Node44</title>
<g id="a_node44"><a xlink:href="error_8h.html" target="_top" xlink:title=" ">
<polygon fill="none" stroke="black" points="367,-235.5 367,-254.5 447,-254.5 447,-235.5 367,-235.5"/>
<text text-anchor="middle" x="407" y="-242.5" font-family="Helvetica,sans-Serif" font-size="10.00">thorin/error.h</text>
</a>
</g>
</g>
<!-- Node1&#45;&gt;Node44 -->
<g id="edge62" class="edge">
<title>Node1&#45;&gt;Node44</title>
<path fill="none" stroke="midnightblue" d="M562.14,-414.46C536.6,-386.73 455.67,-298.85 421.96,-262.24"/>
<polygon fill="midnightblue" stroke="midnightblue" points="424.52,-259.85 415.17,-254.87 419.37,-264.6 424.52,-259.85"/>
</g>
<!-- Node46 -->
<g id="node46" class="node">
<title>Node46</title>
<g id="a_node46"><a xlink:href="flags_8h.html" target="_top" xlink:title=" ">
<polygon fill="none" stroke="black" points="810,-353 810,-372 890,-372 890,-353 810,-353"/>
<text text-anchor="middle" x="850" y="-360" font-family="Helvetica,sans-Serif" font-size="10.00">thorin/flags.h</text>
</a>
</g>
</g>
<!-- Node1&#45;&gt;Node46 -->
<g id="edge67" class="edge">
<title>Node1&#45;&gt;Node46</title>
<path fill="none" stroke="midnightblue" d="M612.25,-415.45C657.78,-407.11 732.3,-392.88 796,-378 800.43,-376.97 805.04,-375.83 809.63,-374.65"/>
<polygon fill="midnightblue" stroke="midnightblue" points="810.74,-377.98 819.53,-372.06 808.97,-371.2 810.74,-377.98"/>
</g>
<!-- Node47 -->
<g id="node47" class="node">
<title>Node47</title>
<g id="a_node47"><a xlink:href="lattice_8h.html" target="_top" xlink:title=" ">
<polygon fill="none" stroke="black" points="810,-291.5 810,-310.5 898,-310.5 898,-291.5 810,-291.5"/>
<text text-anchor="middle" x="854" y="-298.5" font-family="Helvetica,sans-Serif" font-size="10.00">thorin/lattice.h</text>
</a>
</g>
</g>
<!-- Node1&#45;&gt;Node47 -->
<g id="edge68" class="edge">
<title>Node1&#45;&gt;Node47</title>
<path fill="none" stroke="midnightblue" d="M612.08,-423.77C692.25,-424.25 862.24,-420.14 899,-378 915.51,-359.08 892.48,-333.26 873.74,-317.12"/>
<polygon fill="midnightblue" stroke="midnightblue" points="875.8,-314.28 865.85,-310.64 871.36,-319.69 875.8,-314.28"/>
</g>
<!-- Node48 -->
<g id="node48" class="node">
<title>Node48</title>
<g id="a_node48"><a xlink:href="tuple_8h.html" target="_top" xlink:title=" ">
<polygon fill="none" stroke="black" points="916,-291.5 916,-310.5 998,-310.5 998,-291.5 916,-291.5"/>
<text text-anchor="middle" x="957" y="-298.5" font-family="Helvetica,sans-Serif" font-size="10.00">thorin/tuple.h</text>
</a>
</g>
</g>
<!-- Node1&#45;&gt;Node48 -->
<g id="edge70" class="edge">
<title>Node1&#45;&gt;Node48</title>
<path fill="none" stroke="midnightblue" d="M612.07,-422.17C692.97,-419.84 866.51,-411.02 915,-378 934.81,-364.51 946.22,-338.46 952.01,-320.65"/>
<polygon fill="midnightblue" stroke="midnightblue" points="955.44,-321.4 954.92,-310.82 948.73,-319.42 955.44,-321.4"/>
</g>
<!-- Node49 -->
<g id="node49" class="node">
<title>Node49</title>
<g id="a_node49"><a xlink:href="log_8h.html" target="_top" xlink:title=" ">
<polygon fill="none" stroke="black" points="488.5,-235.5 488.5,-254.5 579.5,-254.5 579.5,-235.5 488.5,-235.5"/>
<text text-anchor="middle" x="534" y="-242.5" font-family="Helvetica,sans-Serif" font-size="10.00">thorin/util/log.h</text>
</a>
</g>
</g>
<!-- Node1&#45;&gt;Node49 -->
<g id="edge73" class="edge">
<title>Node1&#45;&gt;Node49</title>
<path fill="none" stroke="midnightblue" d="M566.03,-414.22C562.14,-405.28 556.33,-390.94 553,-378 542.83,-338.53 537.66,-290.93 535.43,-265.04"/>
<polygon fill="midnightblue" stroke="midnightblue" points="538.89,-264.46 534.6,-254.78 531.92,-265.03 538.89,-264.46"/>
</g>
<!-- Node8 -->
<g id="node8" class="node">
<title>Node8</title>
<g id="a_node8"><a xlink:href="lam_8h.html" target="_top" xlink:title=" ">
<polygon fill="none" stroke="black" points="631,-291.5 631,-310.5 707,-310.5 707,-291.5 631,-291.5"/>
<text text-anchor="middle" x="669" y="-298.5" font-family="Helvetica,sans-Serif" font-size="10.00">thorin/lam.h</text>
</a>
</g>
</g>
<!-- Node7&#45;&gt;Node8 -->
<g id="edge7" class="edge">
<title>Node7&#45;&gt;Node8</title>
<path fill="none" stroke="midnightblue" d="M615.03,-352.98C624.76,-343.78 640.46,-328.96 652.42,-317.66"/>
<polygon fill="midnightblue" stroke="midnightblue" points="655.12,-319.92 659.99,-310.51 650.32,-314.83 655.12,-319.92"/>
</g>
<!-- Node22 -->
<g id="node22" class="node">
<title>Node22</title>
<g id="a_node22"><a xlink:href="assert_8h.html" target="_top" xlink:title=" ">
<polygon fill="none" stroke="black" points="74,-56.5 74,-75.5 180,-75.5 180,-56.5 74,-56.5"/>
<text text-anchor="middle" x="127" y="-63.5" font-family="Helvetica,sans-Serif" font-size="10.00">thorin/util/assert.h</text>
</a>
</g>
</g>
<!-- Node7&#45;&gt;Node22 -->
<g id="edge59" class="edge">
<title>Node7&#45;&gt;Node22</title>
<path fill="none" stroke="midnightblue" d="M561.83,-355.73C441.71,-339.46 118,-291.38 118,-246 118,-246 118,-246 118,-188 118,-151.79 122.06,-109.66 124.72,-85.88"/>
<polygon fill="midnightblue" stroke="midnightblue" points="128.22,-86.13 125.9,-75.79 121.27,-85.32 128.22,-86.13"/>
</g>
<!-- Node9 -->
<g id="node9" class="node">
<title>Node9</title>
<g id="a_node9"><a xlink:title=" ">
<polygon fill="none" stroke="#bfbfbf" points="643.5,-235.5 643.5,-254.5 694.5,-254.5 694.5,-235.5 643.5,-235.5"/>
<text text-anchor="middle" x="669" y="-242.5" font-family="Helvetica,sans-Serif" font-size="10.00">variant</text>
</a>
</g>
</g>
<!-- Node8&#45;&gt;Node9 -->
<g id="edge8" class="edge">
<title>Node8&#45;&gt;Node9</title>
<path fill="none" stroke="midnightblue" d="M669,-291.08C669,-284.01 669,-273.86 669,-264.99"/>
<polygon fill="midnightblue" stroke="midnightblue" points="672.5,-264.75 669,-254.75 665.5,-264.75 672.5,-264.75"/>
</g>
<!-- Node10 -->
<g id="node10" class="node">
<title>Node10</title>
<g id="a_node10"><a xlink:href="def_8h.html" target="_top" xlink:title=" ">
<polygon fill="none" stroke="black" points="818,-235.5 818,-254.5 890,-254.5 890,-235.5 818,-235.5"/>
<text text-anchor="middle" x="854" y="-242.5" font-family="Helvetica,sans-Serif" font-size="10.00">thorin/def.h</text>
</a>
</g>
</g>
<!-- Node8&#45;&gt;Node10 -->
<g id="edge9" class="edge">
<title>Node8&#45;&gt;Node10</title>
<path fill="none" stroke="midnightblue" d="M698.31,-291.44C729.84,-282.24 780.13,-267.56 814.99,-257.39"/>
<polygon fill="midnightblue" stroke="midnightblue" points="816.2,-260.68 824.82,-254.52 814.24,-253.96 816.2,-260.68"/>
</g>
<!-- Node11 -->
<g id="node11" class="node">
<title>Node11</title>
<g id="a_node11"><a xlink:title=" ">
<polygon fill="none" stroke="#bfbfbf" points="1156,-179.5 1156,-198.5 1212,-198.5 1212,-179.5 1156,-179.5"/>
<text text-anchor="middle" x="1184" y="-186.5" font-family="Helvetica,sans-Serif" font-size="10.00">optional</text>
</a>
</g>
</g>
<!-- Node10&#45;&gt;Node11 -->
<g id="edge10" class="edge">
<title>Node10&#45;&gt;Node11</title>
<path fill="none" stroke="midnightblue" d="M890.26,-239.45C943.95,-232.5 1047.92,-218.19 1145.72,-199.11"/>
<polygon fill="midnightblue" stroke="midnightblue" points="1146.64,-202.5 1155.77,-197.13 1145.29,-195.63 1146.64,-202.5"/>
</g>
<!-- Node12 -->
<g id="node12" class="node">
<title>Node12</title>
<g id="a_node12"><a xlink:title=" ">
<polygon fill="none" stroke="#bfbfbf" points="999.5,-56.5 999.5,-75.5 1046.5,-75.5 1046.5,-56.5 999.5,-56.5"/>
<text text-anchor="middle" x="1023" y="-63.5" font-family="Helvetica,sans-Serif" font-size="10.00">vector</text>
</a>
</g>
</g>
<!-- Node10&#45;&gt;Node12 -->
<g id="edge11" class="edge">
<title>Node10&#45;&gt;Node12</title>
<path fill="none" stroke="midnightblue" d="M890.29,-243.4C1002.38,-240.68 1339.27,-225.63 1400,-143 1460.04,-61.31 1479.64,-122.74 1095,-76 1082.52,-74.48 1068.84,-72.78 1056.78,-71.27"/>
<polygon fill="midnightblue" stroke="midnightblue" points="1057.03,-67.77 1046.67,-70 1056.15,-74.72 1057.03,-67.77"/>
</g>
<!-- Node10&#45;&gt;Node13 -->
<g id="edge12" class="edge">
<title>Node10&#45;&gt;Node13</title>
<path fill="none" stroke="midnightblue" d="M836.33,-235.32C818.61,-226.62 791.1,-213.12 770.71,-203.11"/>
<polygon fill="midnightblue" stroke="midnightblue" points="772.15,-199.92 761.63,-198.65 769.06,-206.2 772.15,-199.92"/>
</g>
<!-- Node16 -->
<g id="node16" class="node">
<title>Node16</title>
<g id="a_node16"><a xlink:href="tables_8h.html" target="_top" xlink:title=" ">
<polygon fill="none" stroke="black" points="573.5,-179.5 573.5,-198.5 660.5,-198.5 660.5,-179.5 573.5,-179.5"/>
<text text-anchor="middle" x="617" y="-186.5" font-family="Helvetica,sans-Serif" font-size="10.00">thorin/tables.h</text>
</a>
</g>
</g>
<!-- Node10&#45;&gt;Node16 -->
<g id="edge16" class="edge">
<title>Node10&#45;&gt;Node16</title>
<path fill="none" stroke="midnightblue" d="M817.75,-235.74C776.64,-226.37 709.47,-211.07 664.28,-200.77"/>
<polygon fill="midnightblue" stroke="midnightblue" points="664.95,-197.34 654.42,-198.53 663.4,-204.16 664.95,-197.34"/>
</g>
<!-- Node17 -->
<g id="node17" class="node">
<title>Node17</title>
<g id="a_node17"><a xlink:href="print_8h.html" target="_top" xlink:title=" ">
<polygon fill="none" stroke="black" points="352,-118 352,-137 450,-137 450,-118 352,-118"/>
<text text-anchor="middle" x="401" y="-125" font-family="Helvetica,sans-Serif" font-size="10.00">thorin/util/print.h</text>
</a>
</g>
</g>
<!-- Node10&#45;&gt;Node17 -->
<g id="edge58" class="edge">
<title>Node10&#45;&gt;Node17</title>
<path fill="none" stroke="midnightblue" d="M817.78,-241.3C762.41,-236.52 653.81,-224.56 565,-199 513.99,-184.32 457.82,-157.72 426.23,-141.73"/>
<polygon fill="midnightblue" stroke="midnightblue" points="427.75,-138.57 417.25,-137.13 424.56,-144.8 427.75,-138.57"/>
</g>
<!-- Node30 -->
<g id="node30" class="node">
<title>Node30</title>
<g id="a_node30"><a xlink:href="array_8h.html" target="_top" xlink:title=" ">
<polygon fill="none" stroke="black" points="506,-118 506,-137 606,-137 606,-118 506,-118"/>
<text text-anchor="middle" x="556" y="-125" font-family="Helvetica,sans-Serif" font-size="10.00">thorin/util/array.h</text>
</a>
</g>
</g>
<!-- Node10&#45;&gt;Node30 -->
<g id="edge34" class="edge">
<title>Node10&#45;&gt;Node30</title>
<path fill="none" stroke="midnightblue" d="M848.97,-235.21C840.32,-220.94 821.18,-192.95 797,-179 725.57,-137.81 695.5,-160.84 615,-143 609.98,-141.89 604.73,-140.67 599.53,-139.43"/>
<polygon fill="midnightblue" stroke="midnightblue" points="600.18,-135.99 589.63,-137.05 598.53,-142.8 600.18,-135.99"/>
</g>
<!-- Node36 -->
<g id="node36" class="node">
<title>Node36</title>
<g id="a_node36"><a xlink:href="cast_8h.html" target="_top" xlink:title=" ">
<polygon fill="none" stroke="black" points="624,-118 624,-137 720,-137 720,-118 624,-118"/>
<text text-anchor="middle" x="672" y="-125" font-family="Helvetica,sans-Serif" font-size="10.00">thorin/util/cast.h</text>
</a>
</g>
</g>
<!-- Node10&#45;&gt;Node36 -->
<g id="edge45" class="edge">
<title>Node10&#45;&gt;Node36</title>
<path fill="none" stroke="midnightblue" d="M853.17,-235.1C851.4,-221.19 845.99,-194.3 830,-179 803.13,-153.29 763.16,-140.67 730.15,-134.47"/>
<polygon fill="midnightblue" stroke="midnightblue" points="730.6,-131 720.15,-132.75 729.41,-137.9 730.6,-131"/>
</g>
<!-- Node37 -->
<g id="node37" class="node">
<title>Node37</title>
<g id="a_node37"><a xlink:href="container_8h.html" target="_top" xlink:title=" ">
<polygon fill="none" stroke="black" points="1016.5,-179.5 1016.5,-198.5 1137.5,-198.5 1137.5,-179.5 1016.5,-179.5"/>
<text text-anchor="middle" x="1077" y="-186.5" font-family="Helvetica,sans-Serif" font-size="10.00">thorin/util/container.h</text>
</a>
</g>
</g>
<!-- Node10&#45;&gt;Node37 -->
<g id="edge48" class="edge">
<title>Node10&#45;&gt;Node37</title>
<path fill="none" stroke="midnightblue" d="M889.34,-235.44C927.91,-226.1 989.78,-211.12 1031.85,-200.93"/>
<polygon fill="midnightblue" stroke="midnightblue" points="1032.93,-204.27 1041.83,-198.52 1031.29,-197.47 1032.93,-204.27"/>
</g>
<!-- Node10&#45;&gt;Node42 -->
<g id="edge57" class="edge">
<title>Node10&#45;&gt;Node42</title>
<path fill="none" stroke="midnightblue" d="M890.05,-242.74C1009.02,-238.38 1384.34,-222.85 1433,-199 1456.58,-187.45 1475.53,-163.09 1486.53,-146.27"/>
<polygon fill="midnightblue" stroke="midnightblue" points="1489.74,-147.73 1492.06,-137.39 1483.8,-144.03 1489.74,-147.73"/>
</g>
<!-- Node13&#45;&gt;Node3 -->
<g id="edge13" class="edge">
<title>Node13&#45;&gt;Node3</title>
<path fill="none" stroke="midnightblue" d="M700.27,-182.7C639.37,-174.88 532.47,-159.37 497,-143 477.21,-133.87 478.35,-122.03 459,-112 417.27,-90.36 363.9,-78.09 330.32,-71.99"/>
<polygon fill="midnightblue" stroke="midnightblue" points="330.6,-68.49 320.15,-70.23 329.4,-75.39 330.6,-68.49"/>
</g>
<!-- Node14 -->
<g id="node14" class="node">
<title>Node14</title>
<g id="a_node14"><a xlink:title=" ">
<polygon fill="none" stroke="#bfbfbf" points="898,-112.5 898,-142.5 1002,-142.5 1002,-112.5 898,-112.5"/>
<text text-anchor="start" x="906" y="-130.5" font-family="Helvetica,sans-Serif" font-size="10.00">absl/container/flat</text>
<text text-anchor="middle" x="950" y="-119.5" font-family="Helvetica,sans-Serif" font-size="10.00">_hash_map.h</text>
</a>
</g>
</g>
<!-- Node13&#45;&gt;Node14 -->
<g id="edge14" class="edge">
<title>Node13&#45;&gt;Node14</title>
<path fill="none" stroke="midnightblue" d="M773.51,-179.48C804.15,-170.63 852.89,-156.55 891.39,-145.43"/>
<polygon fill="midnightblue" stroke="midnightblue" points="892.81,-148.66 901.45,-142.52 890.87,-141.94 892.81,-148.66"/>
</g>
<!-- Node15 -->
<g id="node15" class="node">
<title>Node15</title>
<g id="a_node15"><a xlink:title=" ">
<polygon fill="none" stroke="#bfbfbf" points="776,-112.5 776,-142.5 880,-142.5 880,-112.5 776,-112.5"/>
<text text-anchor="start" x="784" y="-130.5" font-family="Helvetica,sans-Serif" font-size="10.00">absl/container/flat</text>
<text text-anchor="middle" x="828" y="-119.5" font-family="Helvetica,sans-Serif" font-size="10.00">_hash_set.h</text>
</a>
</g>
</g>
<!-- Node13&#45;&gt;Node15 -->
<g id="edge15" class="edge">
<title>Node13&#45;&gt;Node15</title>
<path fill="none" stroke="midnightblue" d="M756.04,-179.48C767.41,-171.42 784.91,-159.02 799.8,-148.47"/>
<polygon fill="midnightblue" stroke="midnightblue" points="802.07,-151.16 808.2,-142.52 798.02,-145.45 802.07,-151.16"/>
</g>
<!-- Node16&#45;&gt;Node4 -->
<g id="edge17" class="edge">
<title>Node16&#45;&gt;Node4</title>
<path fill="none" stroke="midnightblue" d="M573.43,-182.8C519.06,-175.85 423.42,-162.18 343,-143 339.37,-142.13 335.6,-141.13 331.86,-140.06"/>
<polygon fill="midnightblue" stroke="midnightblue" points="332.71,-136.66 322.13,-137.13 330.69,-143.36 332.71,-136.66"/>
</g>
<!-- Node16&#45;&gt;Node17 -->
<g id="edge18" class="edge">
<title>Node16&#45;&gt;Node17</title>
<path fill="none" stroke="midnightblue" d="M586.05,-179.48C548.12,-169.03 483.72,-151.29 441.78,-139.73"/>
<polygon fill="midnightblue" stroke="midnightblue" points="442.46,-136.29 431.89,-137.01 440.6,-143.04 442.46,-136.29"/>
</g>
<!-- Node24 -->
<g id="node24" class="node">
<title>Node24</title>
<g id="a_node24"><a xlink:href="types_8h.html" target="_top" xlink:title=" ">
<polygon fill="none" stroke="black" points="1103.5,-56.5 1103.5,-75.5 1206.5,-75.5 1206.5,-56.5 1103.5,-56.5"/>
<text text-anchor="middle" x="1155" y="-63.5" font-family="Helvetica,sans-Serif" font-size="10.00">thorin/util/types.h</text>
</a>
</g>
</g>
<!-- Node16&#45;&gt;Node24 -->
<g id="edge27" class="edge">
<title>Node16&#45;&gt;Node24</title>
<path fill="none" stroke="midnightblue" d="M644.78,-179.46C668.13,-171.68 701.93,-158.98 729,-143 747.77,-131.92 746.92,-120.49 767,-112 774.43,-108.86 985.35,-85.51 1093.02,-73.74"/>
<polygon fill="midnightblue" stroke="midnightblue" points="1093.55,-77.2 1103.11,-72.64 1092.79,-70.24 1093.55,-77.2"/>
</g>
<!-- Node17&#45;&gt;Node2 -->
<g id="edge23" class="edge">
<title>Node17&#45;&gt;Node2</title>
<path fill="none" stroke="midnightblue" d="M368.99,-117.94C360.28,-115.8 350.81,-113.65 342,-112 223.19,-89.75 188.85,-98.22 66.36,-76.07"/>
<polygon fill="midnightblue" stroke="midnightblue" points="66.68,-72.57 56.21,-74.2 65.41,-79.45 66.68,-72.57"/>
</g>
<!-- Node17&#45;&gt;Node3 -->
<g id="edge24" class="edge">
<title>Node17&#45;&gt;Node3</title>
<path fill="none" stroke="midnightblue" d="M386.24,-117.98C369.34,-108.21 341.42,-92.08 321.51,-80.58"/>
<polygon fill="midnightblue" stroke="midnightblue" points="323.14,-77.48 312.73,-75.51 319.64,-83.54 323.14,-77.48"/>
</g>
<!-- Node18 -->
<g id="node18" class="node">
<title>Node18</title>
<g id="a_node18"><a xlink:title=" ">
<polygon fill="none" stroke="#bfbfbf" points="444.5,-56.5 444.5,-75.5 509.5,-75.5 509.5,-56.5 444.5,-56.5"/>
<text text-anchor="middle" x="477" y="-63.5" font-family="Helvetica,sans-Serif" font-size="10.00">functional</text>
</a>
</g>
</g>
<!-- Node17&#45;&gt;Node18 -->
<g id="edge19" class="edge">
<title>Node17&#45;&gt;Node18</title>
<path fill="none" stroke="midnightblue" d="M411.89,-117.98C423.97,-108.52 443.67,-93.1 458.24,-81.69"/>
<polygon fill="midnightblue" stroke="midnightblue" points="460.41,-84.43 466.13,-75.51 456.1,-78.92 460.41,-84.43"/>
</g>
<!-- Node19 -->
<g id="node19" class="node">
<title>Node19</title>
<g id="a_node19"><a xlink:title=" ">
<polygon fill="none" stroke="#bfbfbf" points="198,-56.5 198,-75.5 258,-75.5 258,-56.5 198,-56.5"/>
<text text-anchor="middle" x="228" y="-63.5" font-family="Helvetica,sans-Serif" font-size="10.00">iostream</text>
</a>
</g>
</g>
<!-- Node17&#45;&gt;Node19 -->
<g id="edge20" class="edge">
<title>Node17&#45;&gt;Node19</title>
<path fill="none" stroke="midnightblue" d="M376.21,-117.98C346.41,-107.72 296.21,-90.46 262.6,-78.9"/>
<polygon fill="midnightblue" stroke="midnightblue" points="263.34,-75.45 252.74,-75.51 261.06,-82.07 263.34,-75.45"/>
</g>
<!-- Node20 -->
<g id="node20" class="node">
<title>Node20</title>
<g id="a_node20"><a xlink:title=" ">
<polygon fill="none" stroke="#bfbfbf" points="721.5,-0.5 721.5,-19.5 778.5,-19.5 778.5,-0.5 721.5,-0.5"/>
<text text-anchor="middle" x="750" y="-7.5" font-family="Helvetica,sans-Serif" font-size="10.00">ostream</text>
</a>
</g>
</g>
<!-- Node17&#45;&gt;Node20 -->
<g id="edge21" class="edge">
<title>Node17&#45;&gt;Node20</title>
<path fill="none" stroke="midnightblue" d="M391,-117.81C375.76,-103.54 350.2,-74.89 367,-56 389.65,-30.53 618.64,-17.11 711.35,-12.68"/>
<polygon fill="midnightblue" stroke="midnightblue" points="711.61,-16.17 721.44,-12.21 711.28,-9.18 711.61,-16.17"/>
</g>
<!-- Node21 -->
<g id="node21" class="node">
<title>Node21</title>
<g id="a_node21"><a xlink:title=" ">
<polygon fill="none" stroke="#bfbfbf" points="376,-56.5 376,-75.5 426,-75.5 426,-56.5 376,-56.5"/>
<text text-anchor="middle" x="401" y="-63.5" font-family="Helvetica,sans-Serif" font-size="10.00">ranges</text>
</a>
</g>
</g>
<!-- Node17&#45;&gt;Node21 -->
<g id="edge22" class="edge">
<title>Node17&#45;&gt;Node21</title>
<path fill="none" stroke="midnightblue" d="M401,-117.98C401,-109.58 401,-96.48 401,-85.66"/>
<polygon fill="midnightblue" stroke="midnightblue" points="404.5,-85.51 401,-75.51 397.5,-85.51 404.5,-85.51"/>
</g>
<!-- Node17&#45;&gt;Node22 -->
<g id="edge25" class="edge">
<title>Node17&#45;&gt;Node22</title>
<path fill="none" stroke="midnightblue" d="M367.04,-117.94C358.85,-115.94 350.13,-113.85 342,-112 286.8,-99.44 223.33,-86.32 179.74,-77.51"/>
<polygon fill="midnightblue" stroke="midnightblue" points="180.42,-74.07 169.93,-75.53 179.04,-80.94 180.42,-74.07"/>
</g>
<!-- Node23 -->
<g id="node23" class="node">
<title>Node23</title>
<g id="a_node23"><a xlink:title=" ">
<polygon fill="none" stroke="#bfbfbf" points="512,-0.5 512,-19.5 564,-19.5 564,-0.5 512,-0.5"/>
<text text-anchor="middle" x="538" y="-7.5" font-family="Helvetica,sans-Serif" font-size="10.00">cassert</text>
</a>
</g>
</g>
<!-- Node22&#45;&gt;Node23 -->
<g id="edge26" class="edge">
<title>Node22&#45;&gt;Node23</title>
<path fill="none" stroke="midnightblue" d="M180.09,-57.24C183.11,-56.81 186.09,-56.4 189,-56 302.86,-40.4 437.84,-23.43 501.41,-15.52"/>
<polygon fill="midnightblue" stroke="midnightblue" points="502.22,-18.95 511.71,-14.24 501.36,-12 502.22,-18.95"/>
</g>
<!-- Node24&#45;&gt;Node20 -->
<g id="edge30" class="edge">
<title>Node24&#45;&gt;Node20</title>
<path fill="none" stroke="midnightblue" d="M1103.48,-57.96C1098.59,-57.29 1093.7,-56.63 1089,-56 980.26,-41.37 851.85,-24.41 788.84,-16.11"/>
<polygon fill="midnightblue" stroke="midnightblue" points="788.95,-12.59 778.58,-14.76 788.03,-19.53 788.95,-12.59"/>
</g>
<!-- Node25 -->
<g id="node25" class="node">
<title>Node25</title>
<g id="a_node25"><a xlink:title=" ">
<polygon fill="none" stroke="#bfbfbf" points="1097,-0.5 1097,-19.5 1147,-19.5 1147,-0.5 1097,-0.5"/>
<text text-anchor="middle" x="1122" y="-7.5" font-family="Helvetica,sans-Serif" font-size="10.00">cstdint</text>
</a>
</g>
</g>
<!-- Node24&#45;&gt;Node25 -->
<g id="edge28" class="edge">
<title>Node24&#45;&gt;Node25</title>
<path fill="none" stroke="midnightblue" d="M1149.55,-56.08C1144.99,-48.61 1138.33,-37.72 1132.71,-28.52"/>
<polygon fill="midnightblue" stroke="midnightblue" points="1135.55,-26.46 1127.35,-19.75 1129.58,-30.11 1135.55,-26.46"/>
</g>
<!-- Node26 -->
<g id="node26" class="node">
<title>Node26</title>
<g id="a_node26"><a xlink:title=" ">
<polygon fill="none" stroke="#bfbfbf" points="1165,-0.5 1165,-19.5 1209,-19.5 1209,-0.5 1165,-0.5"/>
<text text-anchor="middle" x="1187" y="-7.5" font-family="Helvetica,sans-Serif" font-size="10.00">limits</text>
</a>
</g>
</g>
<!-- Node24&#45;&gt;Node26 -->
<g id="edge29" class="edge">
<title>Node24&#45;&gt;Node26</title>
<path fill="none" stroke="midnightblue" d="M1160.28,-56.08C1164.71,-48.61 1171.16,-37.72 1176.62,-28.52"/>
<polygon fill="midnightblue" stroke="midnightblue" points="1179.73,-30.14 1181.81,-19.75 1173.71,-26.57 1179.73,-30.14"/>
</g>
<!-- Node27 -->
<g id="node27" class="node">
<title>Node27</title>
<g id="a_node27"><a xlink:title=" ">
<polygon fill="none" stroke="#bfbfbf" points="901.5,-0.5 901.5,-19.5 970.5,-19.5 970.5,-0.5 901.5,-0.5"/>
<text text-anchor="middle" x="936" y="-7.5" font-family="Helvetica,sans-Serif" font-size="10.00">type_traits</text>
</a>
</g>
</g>
<!-- Node24&#45;&gt;Node27 -->
<g id="edge31" class="edge">
<title>Node24&#45;&gt;Node27</title>
<path fill="none" stroke="midnightblue" d="M1120.3,-56.44C1082.42,-47.1 1021.65,-32.12 980.34,-21.93"/>
<polygon fill="midnightblue" stroke="midnightblue" points="981.09,-18.51 970.54,-19.52 979.41,-25.31 981.09,-18.51"/>
</g>
<!-- Node28 -->
<g id="node28" class="node">
<title>Node28</title>
<g id="a_node28"><a xlink:title=" ">
<polygon fill="none" stroke="#bfbfbf" points="1227.5,-0.5 1227.5,-19.5 1274.5,-19.5 1274.5,-0.5 1227.5,-0.5"/>
<text text-anchor="middle" x="1251" y="-7.5" font-family="Helvetica,sans-Serif" font-size="10.00">cmath</text>
</a>
</g>
</g>
<!-- Node24&#45;&gt;Node28 -->
<g id="edge32" class="edge">
<title>Node24&#45;&gt;Node28</title>
<path fill="none" stroke="midnightblue" d="M1170.42,-56.32C1185.54,-47.82 1208.82,-34.73 1226.47,-24.8"/>
<polygon fill="midnightblue" stroke="midnightblue" points="1228.61,-27.61 1235.61,-19.65 1225.18,-21.51 1228.61,-27.61"/>
</g>
<!-- Node29 -->
<g id="node29" class="node">
<title>Node29</title>
<g id="a_node29"><a xlink:title=" ">
<polygon fill="none" stroke="#bfbfbf" points="1023,-0.5 1023,-19.5 1079,-19.5 1079,-0.5 1023,-0.5"/>
<text text-anchor="middle" x="1051" y="-7.5" font-family="Helvetica,sans-Serif" font-size="10.00">half.hpp</text>
</a>
</g>
</g>
<!-- Node24&#45;&gt;Node29 -->
<g id="edge33" class="edge">
<title>Node24&#45;&gt;Node29</title>
<path fill="none" stroke="midnightblue" d="M1138.29,-56.32C1121.69,-47.7 1096,-34.36 1076.78,-24.39"/>
<polygon fill="midnightblue" stroke="midnightblue" points="1078.16,-21.16 1067.67,-19.65 1074.93,-27.37 1078.16,-21.16"/>
</g>
<!-- Node30&#45;&gt;Node12 -->
<g id="edge44" class="edge">
<title>Node30&#45;&gt;Node12</title>
<path fill="none" stroke="midnightblue" d="M587.06,-117.97C596.02,-115.75 605.85,-113.56 615,-112 776.84,-84.49 823.49,-105.29 989.27,-75.8"/>
<polygon fill="midnightblue" stroke="midnightblue" points="990.1,-79.21 999.32,-73.98 988.85,-72.32 990.1,-79.21"/>
</g>
<!-- Node30&#45;&gt;Node18 -->
<g id="edge39" class="edge">
<title>Node30&#45;&gt;Node18</title>
<path fill="none" stroke="midnightblue" d="M544.68,-117.98C532.13,-108.52 511.65,-93.1 496.5,-81.69"/>
<polygon fill="midnightblue" stroke="midnightblue" points="498.39,-78.73 488.3,-75.51 494.18,-84.32 498.39,-78.73"/>
</g>
<!-- Node30&#45;&gt;Node21 -->
<g id="edge42" class="edge">
<title>Node30&#45;&gt;Node21</title>
<path fill="none" stroke="midnightblue" d="M533.79,-117.98C507.32,-107.81 462.89,-90.76 432.78,-79.2"/>
<polygon fill="midnightblue" stroke="midnightblue" points="433.76,-75.83 423.17,-75.51 431.25,-82.36 433.76,-75.83"/>
</g>
<!-- Node30&#45;&gt;Node23 -->
<g id="edge35" class="edge">
<title>Node30&#45;&gt;Node23</title>
<path fill="none" stroke="midnightblue" d="M554.65,-117.82C551.75,-99.26 544.91,-55.34 540.96,-29.97"/>
<polygon fill="midnightblue" stroke="midnightblue" points="544.37,-29.12 539.37,-19.78 537.45,-30.2 544.37,-29.12"/>
</g>
<!-- Node30&#45;&gt;Node27 -->
<g id="edge43" class="edge">
<title>Node30&#45;&gt;Node27</title>
<path fill="none" stroke="midnightblue" d="M588.01,-117.97C596.73,-115.83 606.19,-113.67 615,-112 733.52,-89.57 779,-135.36 884,-76 903.19,-65.15 917.98,-44.14 926.79,-28.94"/>
<polygon fill="midnightblue" stroke="midnightblue" points="929.98,-30.41 931.71,-19.95 923.84,-27.05 929.98,-30.41"/>
</g>
<!-- Node31 -->
<g id="node31" class="node">
<title>Node31</title>
<g id="a_node31"><a xlink:title=" ">
<polygon fill="none" stroke="#bfbfbf" points="566.5,-56.5 566.5,-75.5 619.5,-75.5 619.5,-56.5 566.5,-56.5"/>
<text text-anchor="middle" x="593" y="-63.5" font-family="Helvetica,sans-Serif" font-size="10.00">cstddef</text>
</a>
</g>
</g>
<!-- Node30&#45;&gt;Node31 -->
<g id="edge36" class="edge">
<title>Node30&#45;&gt;Node31</title>
<path fill="none" stroke="midnightblue" d="M561.3,-117.98C566.74,-109.23 575.36,-95.37 582.24,-84.31"/>
<polygon fill="midnightblue" stroke="midnightblue" points="585.4,-85.85 587.71,-75.51 579.46,-82.15 585.4,-85.85"/>
</g>
<!-- Node32 -->
<g id="node32" class="node">
<title>Node32</title>
<g id="a_node32"><a xlink:title=" ">
<polygon fill="none" stroke="#bfbfbf" points="931,-56.5 931,-75.5 981,-75.5 981,-56.5 931,-56.5"/>
<text text-anchor="middle" x="956" y="-63.5" font-family="Helvetica,sans-Serif" font-size="10.00">cstring</text>
</a>
</g>
</g>
<!-- Node30&#45;&gt;Node32 -->
<g id="edge37" class="edge">
<title>Node30&#45;&gt;Node32</title>
<path fill="none" stroke="midnightblue" d="M587.69,-117.96C596.49,-115.79 606.08,-113.62 615,-112 747.99,-87.82 783.84,-99.23 917,-76 918.27,-75.78 919.56,-75.54 920.86,-75.29"/>
<polygon fill="midnightblue" stroke="midnightblue" points="921.82,-78.67 930.91,-73.21 920.4,-71.81 921.82,-78.67"/>
</g>
<!-- Node33 -->
<g id="node33" class="node">
<title>Node33</title>
<g id="a_node33"><a xlink:title=" ">
<polygon fill="none" stroke="#bfbfbf" points="638,-56.5 638,-75.5 702,-75.5 702,-56.5 638,-56.5"/>
<text text-anchor="middle" x="670" y="-63.5" font-family="Helvetica,sans-Serif" font-size="10.00">algorithm</text>
</a>
</g>
</g>
<!-- Node30&#45;&gt;Node33 -->
<g id="edge38" class="edge">
<title>Node30&#45;&gt;Node33</title>
<path fill="none" stroke="midnightblue" d="M572.33,-117.98C591.21,-108.12 622.51,-91.79 644.58,-80.27"/>
<polygon fill="midnightblue" stroke="midnightblue" points="646.45,-83.24 653.7,-75.51 643.21,-77.03 646.45,-83.24"/>
</g>
<!-- Node34 -->
<g id="node34" class="node">
<title>Node34</title>
<g id="a_node34"><a xlink:title=" ">
<polygon fill="none" stroke="#bfbfbf" points="720.5,-56.5 720.5,-75.5 803.5,-75.5 803.5,-56.5 720.5,-56.5"/>
<text text-anchor="middle" x="762" y="-63.5" font-family="Helvetica,sans-Serif" font-size="10.00">initializer_list</text>
</a>
</g>
</g>
<!-- Node30&#45;&gt;Node34 -->
<g id="edge40" class="edge">
<title>Node30&#45;&gt;Node34</title>
<path fill="none" stroke="midnightblue" d="M585.51,-117.98C621.62,-107.55 682.85,-89.86 722.85,-78.31"/>
<polygon fill="midnightblue" stroke="midnightblue" points="723.9,-81.65 732.54,-75.51 721.96,-74.92 723.9,-81.65"/>
</g>
<!-- Node35 -->
<g id="node35" class="node">
<title>Node35</title>
<g id="a_node35"><a xlink:title=" ">
<polygon fill="none" stroke="#bfbfbf" points="821.5,-56.5 821.5,-75.5 874.5,-75.5 874.5,-56.5 821.5,-56.5"/>
<text text-anchor="middle" x="848" y="-63.5" font-family="Helvetica,sans-Serif" font-size="10.00">iterator</text>
</a>
</g>
</g>
<!-- Node30&#45;&gt;Node35 -->
<g id="edge41" class="edge">
<title>Node30&#45;&gt;Node35</title>
<path fill="none" stroke="midnightblue" d="M589.3,-117.94C597.67,-115.89 606.64,-113.78 615,-112 699.39,-93.97 723.92,-95.05 811.47,-76.22"/>
<polygon fill="midnightblue" stroke="midnightblue" points="812.27,-79.63 821.29,-74.08 810.78,-72.79 812.27,-79.63"/>
</g>
<!-- Node36&#45;&gt;Node23 -->
<g id="edge46" class="edge">
<title>Node36&#45;&gt;Node23</title>
<path fill="none" stroke="midnightblue" d="M705.32,-117.94C714.56,-115.78 724.63,-113.61 734,-112 805.58,-99.67 1105.08,-109.53 1056,-56 1039.69,-38.22 689.25,-18.75 574.22,-12.81"/>
<polygon fill="midnightblue" stroke="midnightblue" points="574.32,-9.31 564.15,-12.3 573.96,-16.31 574.32,-9.31"/>
</g>
<!-- Node36&#45;&gt;Node32 -->
<g id="edge47" class="edge">
<title>Node36&#45;&gt;Node32</title>
<path fill="none" stroke="midnightblue" d="M707.69,-117.93C716.29,-115.92 725.46,-113.84 734,-112 815.04,-94.56 835.94,-93.32 917,-76 918.26,-75.73 919.54,-75.45 920.84,-75.17"/>
<polygon fill="midnightblue" stroke="midnightblue" points="921.86,-78.53 930.85,-72.93 920.33,-71.7 921.86,-78.53"/>
</g>
<!-- Node37&#45;&gt;Node14 -->
<g id="edge51" class="edge">
<title>Node37&#45;&gt;Node14</title>
<path fill="none" stroke="midnightblue" d="M1058.8,-179.48C1040.72,-171 1012.41,-157.74 989.19,-146.86"/>
<polygon fill="midnightblue" stroke="midnightblue" points="990.47,-143.6 979.93,-142.52 987.5,-149.93 990.47,-143.6"/>
</g>
<!-- Node37&#45;&gt;Node15 -->
<g id="edge52" class="edge">
<title>Node37&#45;&gt;Node15</title>
<path fill="none" stroke="midnightblue" d="M1041.32,-179.48C1001.9,-170.06 937.69,-154.71 890,-143.32"/>
<polygon fill="midnightblue" stroke="midnightblue" points="890.63,-139.87 880.09,-140.95 889,-146.68 890.63,-139.87"/>
</g>
<!-- Node38 -->
<g id="node38" class="node">
<title>Node38</title>
<g id="a_node38"><a xlink:title=" ">
<polygon fill="none" stroke="#bfbfbf" points="1282.5,-118 1282.5,-137 1329.5,-137 1329.5,-118 1282.5,-118"/>
<text text-anchor="middle" x="1306" y="-125" font-family="Helvetica,sans-Serif" font-size="10.00">queue</text>
</a>
</g>
</g>
<!-- Node37&#45;&gt;Node38 -->
<g id="edge49" class="edge">
<title>Node37&#45;&gt;Node38</title>
<path fill="none" stroke="midnightblue" d="M1127.15,-179.43C1167.43,-171.86 1225.13,-159.47 1274,-143 1275.67,-142.44 1277.37,-141.82 1279.07,-141.16"/>
<polygon fill="midnightblue" stroke="midnightblue" points="1280.79,-144.23 1288.65,-137.13 1278.08,-137.78 1280.79,-144.23"/>
</g>
<!-- Node39 -->
<g id="node39" class="node">
<title>Node39</title>
<g id="a_node39"><a xlink:title=" ">
<polygon fill="none" stroke="#bfbfbf" points="1347.5,-118 1347.5,-137 1390.5,-137 1390.5,-118 1347.5,-118"/>
<text text-anchor="middle" x="1369" y="-125" font-family="Helvetica,sans-Serif" font-size="10.00">stack</text>
</a>
</g>
</g>
<!-- Node37&#45;&gt;Node39 -->
<g id="edge50" class="edge">
<title>Node37&#45;&gt;Node39</title>
<path fill="none" stroke="midnightblue" d="M1137.56,-179.6C1202.89,-170.19 1302.47,-154.71 1339,-143 1340.67,-142.47 1342.36,-141.86 1344.05,-141.19"/>
<polygon fill="midnightblue" stroke="midnightblue" points="1345.73,-144.28 1353.46,-137.03 1342.9,-137.87 1345.73,-144.28"/>
</g>
<!-- Node40 -->
<g id="node40" class="node">
<title>Node40</title>
<g id="a_node40"><a xlink:title=" ">
<polygon fill="none" stroke="#bfbfbf" points="1020.5,-112.5 1020.5,-142.5 1133.5,-142.5 1133.5,-112.5 1020.5,-112.5"/>
<text text-anchor="start" x="1028.5" y="-130.5" font-family="Helvetica,sans-Serif" font-size="10.00">absl/container/node</text>
<text text-anchor="middle" x="1077" y="-119.5" font-family="Helvetica,sans-Serif" font-size="10.00">_hash_map.h</text>
</a>
</g>
</g>
<!-- Node37&#45;&gt;Node40 -->
<g id="edge53" class="edge">
<title>Node37&#45;&gt;Node40</title>
<path fill="none" stroke="midnightblue" d="M1077,-179.48C1077,-172.47 1077,-162.19 1077,-152.7"/>
<polygon fill="midnightblue" stroke="midnightblue" points="1080.5,-152.52 1077,-142.52 1073.5,-152.52 1080.5,-152.52"/>
</g>
<!-- Node41 -->
<g id="node41" class="node">
<title>Node41</title>
<g id="a_node41"><a xlink:title=" ">
<polygon fill="none" stroke="#bfbfbf" points="1151.5,-112.5 1151.5,-142.5 1264.5,-142.5 1264.5,-112.5 1151.5,-112.5"/>
<text text-anchor="start" x="1159.5" y="-130.5" font-family="Helvetica,sans-Serif" font-size="10.00">absl/container/node</text>
<text text-anchor="middle" x="1208" y="-119.5" font-family="Helvetica,sans-Serif" font-size="10.00">_hash_set.h</text>
</a>
</g>
</g>
<!-- Node37&#45;&gt;Node41 -->
<g id="edge54" class="edge">
<title>Node37&#45;&gt;Node41</title>
<path fill="none" stroke="midnightblue" d="M1095.77,-179.48C1114.51,-170.96 1143.89,-157.62 1167.89,-146.72"/>
<polygon fill="midnightblue" stroke="midnightblue" points="1169.47,-149.85 1177.13,-142.52 1166.57,-143.47 1169.47,-149.85"/>
</g>
<!-- Node37&#45;&gt;Node42 -->
<g id="edge55" class="edge">
<title>Node37&#45;&gt;Node42</title>
<path fill="none" stroke="midnightblue" d="M1137.75,-179.72C1202.69,-170.83 1308.66,-156.19 1400,-143 1411.98,-141.27 1424.79,-139.38 1437.04,-137.56"/>
<polygon fill="midnightblue" stroke="midnightblue" points="1437.8,-140.98 1447.17,-136.05 1436.76,-134.06 1437.8,-140.98"/>
</g>
<!-- Node42&#45;&gt;Node24 -->
<g id="edge56" class="edge">
<title>Node42&#45;&gt;Node24</title>
<path fill="none" stroke="midnightblue" d="M1461.2,-117.98C1452.03,-115.91 1442.17,-113.78 1433,-112 1359.01,-97.64 1273.32,-84.26 1216.86,-75.88"/>
<polygon fill="midnightblue" stroke="midnightblue" points="1217.07,-72.38 1206.66,-74.38 1216.04,-79.3 1217.07,-72.38"/>
</g>
<!-- Node44&#45;&gt;Node2 -->
<g id="edge63" class="edge">
<title>Node44&#45;&gt;Node2</title>
<path fill="none" stroke="midnightblue" d="M386.78,-235.41C365.94,-226.5 332.57,-212.07 304,-199 211.82,-156.83 103.68,-104.17 54.62,-80.1"/>
<polygon fill="midnightblue" stroke="midnightblue" points="55.86,-76.81 45.34,-75.55 52.77,-83.1 55.86,-76.81"/>
</g>
<!-- Node44&#45;&gt;Node13 -->
<g id="edge65" class="edge">
<title>Node44&#45;&gt;Node13</title>
<path fill="none" stroke="midnightblue" d="M447.32,-237.54C507.97,-227.82 622.78,-209.42 690.41,-198.59"/>
<polygon fill="midnightblue" stroke="midnightblue" points="691.12,-202.02 700.44,-196.98 690.02,-195.11 691.12,-202.02"/>
</g>
<!-- Node44&#45;&gt;Node17 -->
<g id="edge66" class="edge">
<title>Node44&#45;&gt;Node17</title>
<path fill="none" stroke="midnightblue" d="M406.55,-235.32C405.58,-216.76 403.3,-172.84 401.99,-147.47"/>
<polygon fill="midnightblue" stroke="midnightblue" points="405.47,-147.09 401.46,-137.28 398.48,-147.45 405.47,-147.09"/>
</g>
<!-- Node45 -->
<g id="node45" class="node">
<title>Node45</title>
<g id="a_node45"><a xlink:title=" ">
<polygon fill="none" stroke="#bfbfbf" points="313.5,-179.5 313.5,-198.5 378.5,-198.5 378.5,-179.5 313.5,-179.5"/>
<text text-anchor="middle" x="346" y="-186.5" font-family="Helvetica,sans-Serif" font-size="10.00">stdexcept</text>
</a>
</g>
</g>
<!-- Node44&#45;&gt;Node45 -->
<g id="edge64" class="edge">
<title>Node44&#45;&gt;Node45</title>
<path fill="none" stroke="midnightblue" d="M397.2,-235.32C388.18,-227.34 374.59,-215.31 363.68,-205.65"/>
<polygon fill="midnightblue" stroke="midnightblue" points="365.79,-202.84 355.98,-198.83 361.15,-208.08 365.79,-202.84"/>
</g>
<!-- Node47&#45;&gt;Node10 -->
<g id="edge69" class="edge">
<title>Node47&#45;&gt;Node10</title>
<path fill="none" stroke="midnightblue" d="M854,-291.08C854,-284.01 854,-273.86 854,-264.99"/>
<polygon fill="midnightblue" stroke="midnightblue" points="857.5,-264.75 854,-254.75 850.5,-264.75 857.5,-264.75"/>
</g>
<!-- Node48&#45;&gt;Node10 -->
<g id="edge71" class="edge">
<title>Node48&#45;&gt;Node10</title>
<path fill="none" stroke="midnightblue" d="M940.45,-291.32C924.01,-282.7 898.57,-269.36 879.53,-259.39"/>
<polygon fill="midnightblue" stroke="midnightblue" points="880.99,-256.2 870.51,-254.65 877.74,-262.4 880.99,-256.2"/>
</g>
<!-- Node49&#45;&gt;Node13 -->
<g id="edge74" class="edge">
<title>Node49&#45;&gt;Node13</title>
<path fill="none" stroke="midnightblue" d="M567.28,-235.44C603.45,-226.14 661.38,-211.25 700.98,-201.06"/>
<polygon fill="midnightblue" stroke="midnightblue" points="702.07,-204.4 710.88,-198.52 700.32,-197.62 702.07,-204.4"/>
</g>
<!-- Node49&#45;&gt;Node17 -->
<g id="edge75" class="edge">
<title>Node49&#45;&gt;Node17</title>
<path fill="none" stroke="midnightblue" d="M524,-235.32C501.57,-215.84 446.97,-168.42 418.67,-143.84"/>
<polygon fill="midnightblue" stroke="midnightblue" points="420.96,-141.2 411.11,-137.28 416.37,-146.48 420.96,-141.2"/>
</g>
</g>
</svg>
