<?xml version="1.0" encoding="UTF-8" standalone="no"?>
<!DOCTYPE svg PUBLIC "-//W3C//DTD SVG 1.1//EN"
 "http://www.w3.org/Graphics/SVG/1.1/DTD/svg11.dtd">
<!-- Generated by graphviz version 2.43.0 (0)
 -->
<!-- Title: /home/runner/work/thorin2/thorin2/thorin/world.cpp Pages: 1 -->
<svg width="1936pt" height="554pt"
 viewBox="0.00 0.00 1935.73 554.00" xmlns="http://www.w3.org/2000/svg" xmlns:xlink="http://www.w3.org/1999/xlink">
<g id="graph0" class="graph" transform="scale(1 1) rotate(0) translate(4 550)">
<title>/home/runner/work/thorin2/thorin2/thorin/world.cpp</title>
<!-- Node1 -->
<g id="node1" class="node">
<title>Node1</title>
<g id="a_node1"><a xlink:title=" ">
<polygon fill="#bfbfbf" stroke="black" points="1072.23,-515.5 1072.23,-545.5 1218.23,-545.5 1218.23,-515.5 1072.23,-515.5"/>
<text text-anchor="start" x="1080.23" y="-533.5" font-family="Helvetica,sans-Serif" font-size="10.00">/home/runner/work/thorin2</text>
<text text-anchor="middle" x="1145.23" y="-522.5" font-family="Helvetica,sans-Serif" font-size="10.00">/thorin2/thorin/world.cpp</text>
</a>
</g>
</g>
<!-- Node2 -->
<g id="node2" class="node">
<title>Node2</title>
<g id="a_node2"><a xlink:href="world_8h.html" target="_top" xlink:title=" ">
<polygon fill="none" stroke="black" points="1426.23,-403.5 1426.23,-422.5 1510.23,-422.5 1510.23,-403.5 1426.23,-403.5"/>
<text text-anchor="middle" x="1468.23" y="-410.5" font-family="Helvetica,sans-Serif" font-size="10.00">thorin/world.h</text>
</a>
</g>
</g>
<!-- Node1&#45;&gt;Node2 -->
<g id="edge1" class="edge">
<title>Node1&#45;&gt;Node2</title>
<path fill="none" stroke="midnightblue" d="M1218.26,-524.35C1292.94,-517.79 1402.62,-504.16 1436.23,-479 1451.3,-467.72 1459.69,-447.41 1464.05,-432.49"/>
<polygon fill="midnightblue" stroke="midnightblue" points="1467.45,-433.33 1466.56,-422.78 1460.67,-431.58 1467.45,-433.33"/>
</g>
<!-- Node8 -->
<g id="node7" class="node">
<title>Node8</title>
<g id="a_node7"><a xlink:href="def_8h.html" target="_top" xlink:title=" ">
<polygon fill="none" stroke="black" points="1086.23,-235.5 1086.23,-254.5 1158.23,-254.5 1158.23,-235.5 1086.23,-235.5"/>
<text text-anchor="middle" x="1122.23" y="-242.5" font-family="Helvetica,sans-Serif" font-size="10.00">thorin/def.h</text>
</a>
</g>
</g>
<!-- Node1&#45;&gt;Node8 -->
<g id="edge71" class="edge">
<title>Node1&#45;&gt;Node8</title>
<path fill="none" stroke="midnightblue" d="M1125.11,-515.45C1113.39,-506.31 1099.19,-493.42 1090.23,-479 1074.34,-453.44 1071.23,-444.1 1071.23,-414 1071.23,-414 1071.23,-414 1071.23,-356 1071.23,-325.9 1077.1,-318.08 1090.23,-291 1095.08,-280.99 1102.11,-270.81 1108.34,-262.67"/>
<polygon fill="midnightblue" stroke="midnightblue" points="1111.16,-264.75 1114.65,-254.74 1105.69,-260.38 1111.16,-264.75"/>
</g>
<!-- Node14 -->
<g id="node13" class="node">
<title>Node14</title>
<g id="a_node13"><a xlink:href="tables_8h.html" target="_top" xlink:title=" ">
<polygon fill="none" stroke="black" points="847.73,-179.5 847.73,-198.5 934.73,-198.5 934.73,-179.5 847.73,-179.5"/>
<text text-anchor="middle" x="891.23" y="-186.5" font-family="Helvetica,sans-Serif" font-size="10.00">thorin/tables.h</text>
</a>
</g>
</g>
<!-- Node1&#45;&gt;Node14 -->
<g id="edge79" class="edge">
<title>Node1&#45;&gt;Node14</title>
<path fill="none" stroke="midnightblue" d="M1072.1,-526.43C997.06,-518.88 891.23,-494.05 891.23,-414 891.23,-414 891.23,-414 891.23,-300 891.23,-267.95 891.23,-230.64 891.23,-208.75"/>
<polygon fill="midnightblue" stroke="midnightblue" points="894.73,-208.56 891.23,-198.56 887.73,-208.56 894.73,-208.56"/>
</g>
<!-- Node28 -->
<g id="node26" class="node">
<title>Node28</title>
<g id="a_node26"><a xlink:href="array_8h.html" target="_top" xlink:title=" ">
<polygon fill="none" stroke="black" points="354.23,-179.5 354.23,-198.5 454.23,-198.5 454.23,-179.5 354.23,-179.5"/>
<text text-anchor="middle" x="404.23" y="-186.5" font-family="Helvetica,sans-Serif" font-size="10.00">thorin/util/array.h</text>
</a>
</g>
</g>
<!-- Node1&#45;&gt;Node28 -->
<g id="edge81" class="edge">
<title>Node1&#45;&gt;Node28</title>
<path fill="none" stroke="midnightblue" d="M1072.13,-527.66C933.53,-522.17 646.23,-500.37 646.23,-414 646.23,-414 646.23,-414 646.23,-300 646.23,-220.38 536.33,-198.12 464.65,-192.06"/>
<polygon fill="midnightblue" stroke="midnightblue" points="464.61,-188.55 454.37,-191.28 464.08,-195.53 464.61,-188.55"/>
</g>
<!-- Node36 -->
<g id="node34" class="node">
<title>Node36</title>
<g id="a_node34"><a xlink:href="container_8h.html" target="_top" xlink:title=" ">
<polygon fill="none" stroke="black" points="1061.73,-179.5 1061.73,-198.5 1182.73,-198.5 1182.73,-179.5 1061.73,-179.5"/>
<text text-anchor="middle" x="1122.23" y="-186.5" font-family="Helvetica,sans-Serif" font-size="10.00">thorin/util/container.h</text>
</a>
</g>
</g>
<!-- Node1&#45;&gt;Node36 -->
<g id="edge82" class="edge">
<title>Node1&#45;&gt;Node36</title>
<path fill="none" stroke="midnightblue" d="M1072.05,-527.92C1030.73,-523.24 980.97,-510.66 948.23,-479 926.59,-458.08 929.23,-444.1 929.23,-414 929.23,-414 929.23,-414 929.23,-300 929.23,-241.42 997.16,-213.63 1052.42,-200.72"/>
<polygon fill="midnightblue" stroke="midnightblue" points="1053.21,-204.13 1062.22,-198.55 1051.7,-197.29 1053.21,-204.13"/>
</g>
<!-- Node43 -->
<g id="node41" class="node">
<title>Node43</title>
<g id="a_node41"><a xlink:href="error_8h.html" target="_top" xlink:title=" ">
<polygon fill="none" stroke="black" points="1824.23,-235.5 1824.23,-254.5 1904.23,-254.5 1904.23,-235.5 1824.23,-235.5"/>
<text text-anchor="middle" x="1864.23" y="-242.5" font-family="Helvetica,sans-Serif" font-size="10.00">thorin/error.h</text>
</a>
</g>
</g>
<!-- Node1&#45;&gt;Node43 -->
<g id="edge72" class="edge">
<title>Node1&#45;&gt;Node43</title>
<path fill="none" stroke="midnightblue" d="M1218.26,-525.49C1402.62,-514.41 1872.23,-479.74 1872.23,-414 1872.23,-414 1872.23,-414 1872.23,-356 1872.23,-323.86 1868.79,-286.58 1866.42,-264.72"/>
<polygon fill="midnightblue" stroke="midnightblue" points="1869.87,-264.09 1865.27,-254.54 1862.92,-264.87 1869.87,-264.09"/>
</g>
<!-- Node47 -->
<g id="node45" class="node">
<title>Node47</title>
<g id="a_node45"><a xlink:title=" ">
<polygon fill="none" stroke="#bfbfbf" points="1209.23,-459.5 1209.23,-478.5 1265.23,-478.5 1265.23,-459.5 1209.23,-459.5"/>
<text text-anchor="middle" x="1237.23" y="-466.5" font-family="Helvetica,sans-Serif" font-size="10.00">unistd.h</text>
</a>
</g>
</g>
<!-- Node1&#45;&gt;Node47 -->
<g id="edge67" class="edge">
<title>Node1&#45;&gt;Node47</title>
<path fill="none" stroke="midnightblue" d="M1167.03,-515.4C1181.64,-505.95 1200.8,-493.56 1215.41,-484.11"/>
<polygon fill="midnightblue" stroke="midnightblue" points="1217.34,-487.03 1223.84,-478.66 1213.54,-481.15 1217.34,-487.03"/>
</g>
<!-- Node48 -->
<g id="node46" class="node">
<title>Node48</title>
<g id="a_node46"><a xlink:href="check_8h.html" target="_top" xlink:title=" ">
<polygon fill="none" stroke="black" points="957.23,-459.5 957.23,-478.5 1043.23,-478.5 1043.23,-459.5 957.23,-459.5"/>
<text text-anchor="middle" x="1000.23" y="-466.5" font-family="Helvetica,sans-Serif" font-size="10.00">thorin/check.h</text>
</a>
</g>
</g>
<!-- Node1&#45;&gt;Node48 -->
<g id="edge68" class="edge">
<title>Node1&#45;&gt;Node48</title>
<path fill="none" stroke="midnightblue" d="M1110.86,-515.4C1086.54,-505.42 1054.2,-492.15 1030.77,-482.53"/>
<polygon fill="midnightblue" stroke="midnightblue" points="1031.91,-479.22 1021.33,-478.66 1029.25,-485.69 1031.91,-479.22"/>
</g>
<!-- Node50 -->
<g id="node48" class="node">
<title>Node50</title>
<g id="a_node48"><a xlink:href="normalize_8h.html" target="_top" xlink:title=" ">
<polygon fill="none" stroke="black" points="1321.23,-459.5 1321.23,-478.5 1427.23,-478.5 1427.23,-459.5 1321.23,-459.5"/>
<text text-anchor="middle" x="1374.23" y="-466.5" font-family="Helvetica,sans-Serif" font-size="10.00">thorin/normalize.h</text>
</a>
</g>
</g>
<!-- Node1&#45;&gt;Node50 -->
<g id="edge73" class="edge">
<title>Node1&#45;&gt;Node50</title>
<path fill="none" stroke="midnightblue" d="M1199.21,-515.47C1239.58,-504.99 1294.03,-490.84 1331.42,-481.12"/>
<polygon fill="midnightblue" stroke="midnightblue" points="1332.69,-484.41 1341.49,-478.51 1330.93,-477.63 1332.69,-484.41"/>
</g>
<!-- Node51 -->
<g id="node49" class="node">
<title>Node51</title>
<g id="a_node49"><a xlink:href="rewrite_8h.html" target="_top" xlink:title=" ">
<polygon fill="none" stroke="black" points="1099.23,-459.5 1099.23,-478.5 1191.23,-478.5 1191.23,-459.5 1099.23,-459.5"/>
<text text-anchor="middle" x="1145.23" y="-466.5" font-family="Helvetica,sans-Serif" font-size="10.00">thorin/rewrite.h</text>
</a>
</g>
</g>
<!-- Node1&#45;&gt;Node51 -->
<g id="edge74" class="edge">
<title>Node1&#45;&gt;Node51</title>
<path fill="none" stroke="midnightblue" d="M1145.23,-515.4C1145.23,-507.47 1145.23,-497.46 1145.23,-488.86"/>
<polygon fill="midnightblue" stroke="midnightblue" points="1148.73,-488.66 1145.23,-478.66 1141.73,-488.66 1148.73,-488.66"/>
</g>
<!-- Node52 -->
<g id="node50" class="node">
<title>Node52</title>
<g id="a_node50"><a xlink:href="scope_8h.html" target="_top" xlink:title=" ">
<polygon fill="none" stroke="black" points="1099.23,-291.5 1099.23,-310.5 1231.23,-310.5 1231.23,-291.5 1099.23,-291.5"/>
<text text-anchor="middle" x="1165.23" y="-298.5" font-family="Helvetica,sans-Serif" font-size="10.00">thorin/analyses/scope.h</text>
</a>
</g>
</g>
<!-- Node1&#45;&gt;Node52 -->
<g id="edge80" class="edge">
<title>Node1&#45;&gt;Node52</title>
<path fill="none" stroke="midnightblue" d="M1218.5,-517.21C1240.04,-509.82 1261.28,-497.97 1274.23,-479 1314.3,-420.28 1228.16,-347.13 1186.32,-316.52"/>
<polygon fill="midnightblue" stroke="midnightblue" points="1188.3,-313.63 1178.13,-310.65 1184.22,-319.32 1188.3,-313.63"/>
</g>
<!-- Node3 -->
<g id="node3" class="node">
<title>Node3</title>
<g id="a_node3"><a xlink:title=" ">
<polygon fill="none" stroke="#bfbfbf" points="1768.23,-56.5 1768.23,-75.5 1824.23,-75.5 1824.23,-56.5 1768.23,-56.5"/>
<text text-anchor="middle" x="1796.23" y="-63.5" font-family="Helvetica,sans-Serif" font-size="10.00">sstream</text>
</a>
</g>
</g>
<!-- Node2&#45;&gt;Node3 -->
<g id="edge2" class="edge">
<title>Node2&#45;&gt;Node3</title>
<path fill="none" stroke="midnightblue" d="M1510.29,-409.38C1558.74,-405.15 1639.93,-394.32 1704.23,-367 1750.31,-347.42 1796.23,-352.06 1796.23,-302 1796.23,-302 1796.23,-302 1796.23,-188 1796.23,-151.71 1796.23,-109.31 1796.23,-85.56"/>
<polygon fill="midnightblue" stroke="midnightblue" points="1799.73,-85.51 1796.23,-75.51 1792.73,-85.51 1799.73,-85.51"/>
</g>
<!-- Node4 -->
<g id="node4" class="node">
<title>Node4</title>
<g id="a_node4"><a xlink:title=" ">
<polygon fill="none" stroke="#bfbfbf" points="1660.23,-56.5 1660.23,-75.5 1704.23,-75.5 1704.23,-56.5 1660.23,-56.5"/>
<text text-anchor="middle" x="1682.23" y="-63.5" font-family="Helvetica,sans-Serif" font-size="10.00">string</text>
</a>
</g>
</g>
<!-- Node2&#45;&gt;Node4 -->
<g id="edge3" class="edge">
<title>Node2&#45;&gt;Node4</title>
<path fill="none" stroke="midnightblue" d="M1510.4,-405.07C1590.83,-390.66 1758.23,-354.37 1758.23,-302 1758.23,-302 1758.23,-302 1758.23,-188 1758.23,-144.48 1722.53,-103.77 1700.06,-82.47"/>
<polygon fill="midnightblue" stroke="midnightblue" points="1702.22,-79.7 1692.48,-75.53 1697.49,-84.86 1702.22,-79.7"/>
</g>
<!-- Node5 -->
<g id="node5" class="node">
<title>Node5</title>
<g id="a_node5"><a xlink:href="axiom_8h.html" target="_top" xlink:title=" ">
<polygon fill="none" stroke="black" points="1424.23,-347.5 1424.23,-366.5 1512.23,-366.5 1512.23,-347.5 1424.23,-347.5"/>
<text text-anchor="middle" x="1468.23" y="-354.5" font-family="Helvetica,sans-Serif" font-size="10.00">thorin/axiom.h</text>
</a>
</g>
</g>
<!-- Node2&#45;&gt;Node5 -->
<g id="edge4" class="edge">
<title>Node2&#45;&gt;Node5</title>
<path fill="none" stroke="midnightblue" d="M1468.23,-403.08C1468.23,-396.01 1468.23,-385.86 1468.23,-376.99"/>
<polygon fill="midnightblue" stroke="midnightblue" points="1471.73,-376.75 1468.23,-366.75 1464.73,-376.75 1471.73,-376.75"/>
</g>
<!-- Node11 -->
<g id="node10" class="node">
<title>Node11</title>
<g id="a_node10"><a xlink:href="debug_8h.html" target="_top" xlink:title=" ">
<polygon fill="none" stroke="black" points="1562.73,-179.5 1562.73,-198.5 1649.73,-198.5 1649.73,-179.5 1562.73,-179.5"/>
<text text-anchor="middle" x="1606.23" y="-186.5" font-family="Helvetica,sans-Serif" font-size="10.00">thorin/debug.h</text>
</a>
</g>
</g>
<!-- Node2&#45;&gt;Node11 -->
<g id="edge56" class="edge">
<title>Node2&#45;&gt;Node11</title>
<path fill="none" stroke="midnightblue" d="M1510.59,-405.67C1552.21,-398.49 1611.4,-385.34 1625.23,-367 1661.13,-319.36 1632.09,-242.93 1615.63,-208.21"/>
<polygon fill="midnightblue" stroke="midnightblue" points="1618.57,-206.27 1611.01,-198.85 1612.3,-209.37 1618.57,-206.27"/>
</g>
<!-- Node41 -->
<g id="node39" class="node">
<title>Node41</title>
<g id="a_node39"><a xlink:href="hash_8h.html" target="_top" xlink:title=" ">
<polygon fill="none" stroke="black" points="806.73,-118 806.73,-137 905.73,-137 905.73,-118 806.73,-118"/>
<text text-anchor="middle" x="856.23" y="-125" font-family="Helvetica,sans-Serif" font-size="10.00">thorin/util/hash.h</text>
</a>
</g>
</g>
<!-- Node2&#45;&gt;Node41 -->
<g id="edge66" class="edge">
<title>Node2&#45;&gt;Node41</title>
<path fill="none" stroke="midnightblue" d="M1435.94,-403.5C1401.74,-394.48 1346.16,-379.8 1298.23,-367 1205.73,-342.31 1174.37,-356.67 1090.23,-311 1013.06,-269.11 1014.24,-230.65 943.23,-179 923.8,-164.87 900.14,-151.35 882.4,-141.86"/>
<polygon fill="midnightblue" stroke="midnightblue" points="883.69,-138.59 873.22,-137.02 880.43,-144.78 883.69,-138.59"/>
</g>
<!-- Node42 -->
<g id="node40" class="node">
<title>Node42</title>
<g id="a_node40"><a xlink:title=" ">
<polygon fill="none" stroke="#bfbfbf" points="1530.23,-347.5 1530.23,-366.5 1616.23,-366.5 1616.23,-347.5 1530.23,-347.5"/>
<text text-anchor="middle" x="1573.23" y="-354.5" font-family="Helvetica,sans-Serif" font-size="10.00">thorin/config.h</text>
</a>
</g>
</g>
<!-- Node2&#45;&gt;Node42 -->
<g id="edge55" class="edge">
<title>Node2&#45;&gt;Node42</title>
<path fill="none" stroke="midnightblue" d="M1485.1,-403.32C1501.94,-394.66 1528.03,-381.24 1547.47,-371.25"/>
<polygon fill="midnightblue" stroke="midnightblue" points="1549.11,-374.34 1556.4,-366.65 1545.91,-368.12 1549.11,-374.34"/>
</g>
<!-- Node2&#45;&gt;Node43 -->
<g id="edge57" class="edge">
<title>Node2&#45;&gt;Node43</title>
<path fill="none" stroke="midnightblue" d="M1510.5,-411.47C1591.27,-409.67 1763.67,-401.73 1810.23,-367 1843.46,-342.21 1856.67,-292.34 1861.57,-265"/>
<polygon fill="midnightblue" stroke="midnightblue" points="1865.08,-265.23 1863.2,-254.8 1858.17,-264.12 1865.08,-265.23"/>
</g>
<!-- Node45 -->
<g id="node43" class="node">
<title>Node45</title>
<g id="a_node43"><a xlink:href="lattice_8h.html" target="_top" xlink:title=" ">
<polygon fill="none" stroke="black" points="1249.23,-291.5 1249.23,-310.5 1337.23,-310.5 1337.23,-291.5 1249.23,-291.5"/>
<text text-anchor="middle" x="1293.23" y="-298.5" font-family="Helvetica,sans-Serif" font-size="10.00">thorin/lattice.h</text>
</a>
</g>
</g>
<!-- Node2&#45;&gt;Node45 -->
<g id="edge62" class="edge">
<title>Node2&#45;&gt;Node45</title>
<path fill="none" stroke="midnightblue" d="M1425.98,-409.96C1391.93,-406.13 1344.98,-395.58 1315.23,-367 1302.75,-355.02 1297.35,-335.72 1295.01,-321.26"/>
<polygon fill="midnightblue" stroke="midnightblue" points="1298.44,-320.42 1293.72,-310.93 1291.49,-321.29 1298.44,-320.42"/>
</g>
<!-- Node46 -->
<g id="node44" class="node">
<title>Node46</title>
<g id="a_node44"><a xlink:href="tuple_8h.html" target="_top" xlink:title=" ">
<polygon fill="none" stroke="black" points="1324.23,-347.5 1324.23,-366.5 1406.23,-366.5 1406.23,-347.5 1324.23,-347.5"/>
<text text-anchor="middle" x="1365.23" y="-354.5" font-family="Helvetica,sans-Serif" font-size="10.00">thorin/tuple.h</text>
</a>
</g>
</g>
<!-- Node2&#45;&gt;Node46 -->
<g id="edge64" class="edge">
<title>Node2&#45;&gt;Node46</title>
<path fill="none" stroke="midnightblue" d="M1451.68,-403.32C1435.24,-394.7 1409.79,-381.36 1390.76,-371.39"/>
<polygon fill="midnightblue" stroke="midnightblue" points="1392.22,-368.2 1381.74,-366.65 1388.97,-374.4 1392.22,-368.2"/>
</g>
<!-- Node6 -->
<g id="node6" class="node">
<title>Node6</title>
<g id="a_node6"><a xlink:href="lam_8h.html" target="_top" xlink:title=" ">
<polygon fill="none" stroke="red" points="1412.23,-291.5 1412.23,-310.5 1488.23,-310.5 1488.23,-291.5 1412.23,-291.5"/>
<text text-anchor="middle" x="1450.23" y="-298.5" font-family="Helvetica,sans-Serif" font-size="10.00">thorin/lam.h</text>
</a>
</g>
</g>
<!-- Node5&#45;&gt;Node6 -->
<g id="edge5" class="edge">
<title>Node5&#45;&gt;Node6</title>
<path fill="none" stroke="midnightblue" d="M1465.26,-347.08C1462.84,-339.85 1459.36,-329.41 1456.36,-320.4"/>
<polygon fill="midnightblue" stroke="midnightblue" points="1459.63,-319.13 1453.14,-310.75 1452.99,-321.34 1459.63,-319.13"/>
</g>
<!-- Node20 -->
<g id="node19" class="node">
<title>Node20</title>
<g id="a_node19"><a xlink:href="assert_8h.html" target="_top" xlink:title=" ">
<polygon fill="none" stroke="black" points="1358.23,-56.5 1358.23,-75.5 1464.23,-75.5 1464.23,-56.5 1358.23,-56.5"/>
<text text-anchor="middle" x="1411.23" y="-63.5" font-family="Helvetica,sans-Serif" font-size="10.00">thorin/util/assert.h</text>
</a>
</g>
</g>
<!-- Node5&#45;&gt;Node20 -->
<g id="edge54" class="edge">
<title>Node5&#45;&gt;Node20</title>
<path fill="none" stroke="midnightblue" d="M1484.86,-347.46C1544.35,-315.85 1739.12,-202.64 1663.23,-112 1639.58,-83.76 1540.93,-73.23 1474.3,-69.31"/>
<polygon fill="midnightblue" stroke="midnightblue" points="1474.48,-65.81 1464.3,-68.75 1474.1,-72.8 1474.48,-65.81"/>
</g>
<!-- Node6&#45;&gt;Node8 -->
<g id="edge6" class="edge">
<title>Node6&#45;&gt;Node8</title>
<path fill="none" stroke="midnightblue" d="M1411.96,-293.7C1351.33,-283.72 1233.39,-264.3 1168.24,-253.57"/>
<polygon fill="midnightblue" stroke="midnightblue" points="1168.69,-250.1 1158.25,-251.93 1167.55,-257.01 1168.69,-250.1"/>
</g>
<!-- Node9 -->
<g id="node8" class="node">
<title>Node9</title>
<g id="a_node8"><a xlink:title=" ">
<polygon fill="none" stroke="#bfbfbf" points="1201.23,-179.5 1201.23,-198.5 1257.23,-198.5 1257.23,-179.5 1201.23,-179.5"/>
<text text-anchor="middle" x="1229.23" y="-186.5" font-family="Helvetica,sans-Serif" font-size="10.00">optional</text>
</a>
</g>
</g>
<!-- Node8&#45;&gt;Node9 -->
<g id="edge7" class="edge">
<title>Node8&#45;&gt;Node9</title>
<path fill="none" stroke="midnightblue" d="M1139.42,-235.32C1156.58,-226.66 1183.17,-213.24 1202.98,-203.25"/>
<polygon fill="midnightblue" stroke="midnightblue" points="1204.73,-206.28 1212.08,-198.65 1201.57,-200.04 1204.73,-206.28"/>
</g>
<!-- Node10 -->
<g id="node9" class="node">
<title>Node10</title>
<g id="a_node9"><a xlink:title=" ">
<polygon fill="none" stroke="#bfbfbf" points="505.73,-118 505.73,-137 552.73,-137 552.73,-118 505.73,-118"/>
<text text-anchor="middle" x="529.23" y="-125" font-family="Helvetica,sans-Serif" font-size="10.00">vector</text>
</a>
</g>
</g>
<!-- Node8&#45;&gt;Node10 -->
<g id="edge8" class="edge">
<title>Node8&#45;&gt;Node10</title>
<path fill="none" stroke="midnightblue" d="M1086.02,-243.09C987.1,-240.21 714.12,-229.65 630.23,-199 596.81,-186.79 564.17,-160.67 545.41,-143.88"/>
<polygon fill="midnightblue" stroke="midnightblue" points="547.77,-141.3 538.04,-137.12 543.04,-146.46 547.77,-141.3"/>
</g>
<!-- Node8&#45;&gt;Node11 -->
<g id="edge9" class="edge">
<title>Node8&#45;&gt;Node11</title>
<path fill="none" stroke="midnightblue" d="M1158.61,-239.94C1243.11,-230.51 1453.04,-207.09 1552.42,-196"/>
<polygon fill="midnightblue" stroke="midnightblue" points="1553,-199.46 1562.55,-194.87 1552.22,-192.5 1553,-199.46"/>
</g>
<!-- Node8&#45;&gt;Node14 -->
<g id="edge13" class="edge">
<title>Node8&#45;&gt;Node14</title>
<path fill="none" stroke="midnightblue" d="M1086.13,-235.56C1046.11,-226.21 981.42,-211.08 937.66,-200.85"/>
<polygon fill="midnightblue" stroke="midnightblue" points="938.36,-197.42 927.83,-198.56 936.77,-204.24 938.36,-197.42"/>
</g>
<!-- Node16 -->
<g id="node15" class="node">
<title>Node16</title>
<g id="a_node15"><a xlink:href="print_8h.html" target="_top" xlink:title=" ">
<polygon fill="none" stroke="black" points="1312.23,-118 1312.23,-137 1410.23,-137 1410.23,-118 1312.23,-118"/>
<text text-anchor="middle" x="1361.23" y="-125" font-family="Helvetica,sans-Serif" font-size="10.00">thorin/util/print.h</text>
</a>
</g>
</g>
<!-- Node8&#45;&gt;Node16 -->
<g id="edge53" class="edge">
<title>Node8&#45;&gt;Node16</title>
<path fill="none" stroke="midnightblue" d="M1158.44,-236.26C1188.37,-229.04 1231.44,-216.7 1266.23,-199 1295.8,-183.95 1325.89,-159.82 1344.06,-144.06"/>
<polygon fill="midnightblue" stroke="midnightblue" points="1346.79,-146.32 1351.96,-137.07 1342.15,-141.07 1346.79,-146.32"/>
</g>
<!-- Node8&#45;&gt;Node28 -->
<g id="edge29" class="edge">
<title>Node8&#45;&gt;Node28</title>
<path fill="none" stroke="midnightblue" d="M1086.13,-241.29C970.6,-232.6 609.1,-205.41 464.7,-194.55"/>
<polygon fill="midnightblue" stroke="midnightblue" points="464.91,-191.05 454.68,-193.79 464.39,-198.03 464.91,-191.05"/>
</g>
<!-- Node35 -->
<g id="node33" class="node">
<title>Node35</title>
<g id="a_node33"><a xlink:href="cast_8h.html" target="_top" xlink:title=" ">
<polygon fill="none" stroke="black" points="639.23,-179.5 639.23,-198.5 735.23,-198.5 735.23,-179.5 639.23,-179.5"/>
<text text-anchor="middle" x="687.23" y="-186.5" font-family="Helvetica,sans-Serif" font-size="10.00">thorin/util/cast.h</text>
</a>
</g>
</g>
<!-- Node8&#45;&gt;Node35 -->
<g id="edge40" class="edge">
<title>Node8&#45;&gt;Node35</title>
<path fill="none" stroke="midnightblue" d="M1085.89,-239.49C1010.58,-230.14 836.93,-208.58 745.68,-197.26"/>
<polygon fill="midnightblue" stroke="midnightblue" points="745.86,-193.75 735.5,-195.99 745,-200.7 745.86,-193.75"/>
</g>
<!-- Node8&#45;&gt;Node36 -->
<g id="edge43" class="edge">
<title>Node8&#45;&gt;Node36</title>
<path fill="none" stroke="midnightblue" d="M1122.23,-235.08C1122.23,-228.01 1122.23,-217.86 1122.23,-208.99"/>
<polygon fill="midnightblue" stroke="midnightblue" points="1125.73,-208.75 1122.23,-198.75 1118.73,-208.75 1125.73,-208.75"/>
</g>
<!-- Node8&#45;&gt;Node41 -->
<g id="edge52" class="edge">
<title>Node8&#45;&gt;Node41</title>
<path fill="none" stroke="midnightblue" d="M1109.13,-235.28C1088.53,-221.86 1047.04,-195.9 1009.23,-179 972.71,-162.67 929.24,-148.83 897.98,-139.79"/>
<polygon fill="midnightblue" stroke="midnightblue" points="898.87,-136.4 888.29,-137.02 896.95,-143.13 898.87,-136.4"/>
</g>
<!-- Node11&#45;&gt;Node4 -->
<g id="edge10" class="edge">
<title>Node11&#45;&gt;Node4</title>
<path fill="none" stroke="midnightblue" d="M1622.17,-179.41C1635.16,-171.6 1652.96,-158.88 1663.23,-143 1674.4,-125.72 1679,-102.32 1680.9,-86.07"/>
<polygon fill="midnightblue" stroke="midnightblue" points="1684.42,-85.97 1681.86,-75.69 1677.45,-85.33 1684.42,-85.97"/>
</g>
<!-- Node12 -->
<g id="node11" class="node">
<title>Node12</title>
<g id="a_node11"><a xlink:title=" ">
<polygon fill="none" stroke="#bfbfbf" points="1428.23,-112.5 1428.23,-142.5 1532.23,-142.5 1532.23,-112.5 1428.23,-112.5"/>
<text text-anchor="start" x="1436.23" y="-130.5" font-family="Helvetica,sans-Serif" font-size="10.00">absl/container/flat</text>
<text text-anchor="middle" x="1480.23" y="-119.5" font-family="Helvetica,sans-Serif" font-size="10.00">_hash_map.h</text>
</a>
</g>
</g>
<!-- Node11&#45;&gt;Node12 -->
<g id="edge11" class="edge">
<title>Node11&#45;&gt;Node12</title>
<path fill="none" stroke="midnightblue" d="M1588.18,-179.48C1570.23,-171 1542.14,-157.74 1519.11,-146.86"/>
<polygon fill="midnightblue" stroke="midnightblue" points="1520.46,-143.63 1509.92,-142.52 1517.47,-149.96 1520.46,-143.63"/>
</g>
<!-- Node13 -->
<g id="node12" class="node">
<title>Node13</title>
<g id="a_node12"><a xlink:title=" ">
<polygon fill="none" stroke="#bfbfbf" points="1550.23,-112.5 1550.23,-142.5 1654.23,-142.5 1654.23,-112.5 1550.23,-112.5"/>
<text text-anchor="start" x="1558.23" y="-130.5" font-family="Helvetica,sans-Serif" font-size="10.00">absl/container/flat</text>
<text text-anchor="middle" x="1602.23" y="-119.5" font-family="Helvetica,sans-Serif" font-size="10.00">_hash_set.h</text>
</a>
</g>
</g>
<!-- Node11&#45;&gt;Node13 -->
<g id="edge12" class="edge">
<title>Node11&#45;&gt;Node13</title>
<path fill="none" stroke="midnightblue" d="M1605.65,-179.48C1605.18,-172.47 1604.49,-162.19 1603.85,-152.7"/>
<polygon fill="midnightblue" stroke="midnightblue" points="1607.33,-152.27 1603.17,-142.52 1600.35,-152.74 1607.33,-152.27"/>
</g>
<!-- Node15 -->
<g id="node14" class="node">
<title>Node15</title>
<g id="a_node14"><a xlink:title=" ">
<polygon fill="none" stroke="#bfbfbf" points="715.73,-118 715.73,-137 788.73,-137 788.73,-118 715.73,-118"/>
<text text-anchor="middle" x="752.23" y="-125" font-family="Helvetica,sans-Serif" font-size="10.00">string_view</text>
</a>
</g>
</g>
<!-- Node14&#45;&gt;Node15 -->
<g id="edge14" class="edge">
<title>Node14&#45;&gt;Node15</title>
<path fill="none" stroke="midnightblue" d="M871.31,-179.48C847.78,-169.4 808.42,-152.55 781.43,-141"/>
<polygon fill="midnightblue" stroke="midnightblue" points="782.68,-137.73 772.11,-137.01 779.92,-144.16 782.68,-137.73"/>
</g>
<!-- Node14&#45;&gt;Node16 -->
<g id="edge15" class="edge">
<title>Node14&#45;&gt;Node16</title>
<path fill="none" stroke="midnightblue" d="M934.99,-185.11C1010.4,-179.72 1169.52,-166.47 1302.23,-143 1308.02,-141.98 1314.08,-140.71 1320.03,-139.36"/>
<polygon fill="midnightblue" stroke="midnightblue" points="1320.93,-142.74 1329.85,-137.03 1319.32,-135.93 1320.93,-142.74"/>
</g>
<!-- Node22 -->
<g id="node21" class="node">
<title>Node22</title>
<g id="a_node21"><a xlink:href="types_8h.html" target="_top" xlink:title=" ">
<polygon fill="none" stroke="red" points="307.73,-56.5 307.73,-75.5 410.73,-75.5 410.73,-56.5 307.73,-56.5"/>
<text text-anchor="middle" x="359.23" y="-63.5" font-family="Helvetica,sans-Serif" font-size="10.00">thorin/util/types.h</text>
</a>
</g>
</g>
<!-- Node14&#45;&gt;Node22 -->
<g id="edge23" class="edge">
<title>Node14&#45;&gt;Node22</title>
<path fill="none" stroke="midnightblue" d="M848.48,-179.49C810.66,-171.52 754.19,-158.52 706.23,-143 671.52,-131.77 665.33,-121.94 630.23,-112 559.81,-92.06 476.44,-79.86 420.95,-73.28"/>
<polygon fill="midnightblue" stroke="midnightblue" points="421.26,-69.79 410.92,-72.12 420.45,-76.75 421.26,-69.79"/>
</g>
<!-- Node16&#45;&gt;Node3 -->
<g id="edge19" class="edge">
<title>Node16&#45;&gt;Node3</title>
<path fill="none" stroke="midnightblue" d="M1392.37,-117.95C1401.02,-115.78 1410.45,-113.61 1419.23,-112 1452.04,-105.96 1668.8,-81.32 1757.99,-71.29"/>
<polygon fill="midnightblue" stroke="midnightblue" points="1758.42,-74.76 1767.97,-70.16 1757.64,-67.8 1758.42,-74.76"/>
</g>
<!-- Node16&#45;&gt;Node4 -->
<g id="edge20" class="edge">
<title>Node16&#45;&gt;Node4</title>
<path fill="none" stroke="midnightblue" d="M1393.64,-117.94C1401.95,-115.87 1410.9,-113.75 1419.23,-112 1501.79,-94.64 1600,-79.2 1649.8,-71.74"/>
<polygon fill="midnightblue" stroke="midnightblue" points="1650.58,-75.16 1659.95,-70.23 1649.55,-68.24 1650.58,-75.16"/>
</g>
<!-- Node17 -->
<g id="node16" class="node">
<title>Node17</title>
<g id="a_node16"><a xlink:title=" ">
<polygon fill="none" stroke="#bfbfbf" points="1280.23,-56.5 1280.23,-75.5 1340.23,-75.5 1340.23,-56.5 1280.23,-56.5"/>
<text text-anchor="middle" x="1310.23" y="-63.5" font-family="Helvetica,sans-Serif" font-size="10.00">iostream</text>
</a>
</g>
</g>
<!-- Node16&#45;&gt;Node17 -->
<g id="edge16" class="edge">
<title>Node16&#45;&gt;Node17</title>
<path fill="none" stroke="midnightblue" d="M1353.92,-117.98C1346.19,-108.96 1333.82,-94.52 1324.21,-83.31"/>
<polygon fill="midnightblue" stroke="midnightblue" points="1326.69,-80.82 1317.52,-75.51 1321.37,-85.38 1326.69,-80.82"/>
</g>
<!-- Node18 -->
<g id="node17" class="node">
<title>Node18</title>
<g id="a_node17"><a xlink:title=" ">
<polygon fill="none" stroke="#bfbfbf" points="525.73,-0.5 525.73,-19.5 582.73,-19.5 582.73,-0.5 525.73,-0.5"/>
<text text-anchor="middle" x="554.23" y="-7.5" font-family="Helvetica,sans-Serif" font-size="10.00">ostream</text>
</a>
</g>
</g>
<!-- Node16&#45;&gt;Node18 -->
<g id="edge17" class="edge">
<title>Node16&#45;&gt;Node18</title>
<path fill="none" stroke="midnightblue" d="M1329.21,-117.97C1320.5,-115.83 1311.04,-113.67 1302.23,-112 1032.84,-60.86 704.09,-25.84 593,-14.76"/>
<polygon fill="midnightblue" stroke="midnightblue" points="593.24,-11.26 582.94,-13.76 592.54,-18.23 593.24,-11.26"/>
</g>
<!-- Node19 -->
<g id="node18" class="node">
<title>Node19</title>
<g id="a_node18"><a xlink:title=" ">
<polygon fill="none" stroke="#bfbfbf" points="538.23,-56.5 538.23,-75.5 588.23,-75.5 588.23,-56.5 538.23,-56.5"/>
<text text-anchor="middle" x="563.23" y="-63.5" font-family="Helvetica,sans-Serif" font-size="10.00">ranges</text>
</a>
</g>
</g>
<!-- Node16&#45;&gt;Node19 -->
<g id="edge18" class="edge">
<title>Node16&#45;&gt;Node19</title>
<path fill="none" stroke="midnightblue" d="M1331.12,-117.99C1321.92,-115.69 1311.72,-113.44 1302.23,-112 1033.79,-71.18 705.17,-67.09 598.48,-66.9"/>
<polygon fill="midnightblue" stroke="midnightblue" points="598.28,-63.4 588.28,-66.9 598.28,-70.4 598.28,-63.4"/>
</g>
<!-- Node16&#45;&gt;Node20 -->
<g id="edge21" class="edge">
<title>Node16&#45;&gt;Node20</title>
<path fill="none" stroke="midnightblue" d="M1368.39,-117.98C1375.97,-108.96 1388.1,-94.52 1397.52,-83.31"/>
<polygon fill="midnightblue" stroke="midnightblue" points="1400.32,-85.42 1404.08,-75.51 1394.96,-80.91 1400.32,-85.42"/>
</g>
<!-- Node21 -->
<g id="node20" class="node">
<title>Node21</title>
<g id="a_node20"><a xlink:title=" ">
<polygon fill="none" stroke="#bfbfbf" points="661.23,-0.5 661.23,-19.5 713.23,-19.5 713.23,-0.5 661.23,-0.5"/>
<text text-anchor="middle" x="687.23" y="-7.5" font-family="Helvetica,sans-Serif" font-size="10.00">cassert</text>
</a>
</g>
</g>
<!-- Node20&#45;&gt;Node21 -->
<g id="edge22" class="edge">
<title>Node20&#45;&gt;Node21</title>
<path fill="none" stroke="midnightblue" d="M1358.16,-57.03C1355.14,-56.66 1352.15,-56.31 1349.23,-56 1111.33,-30.68 823.74,-16.83 723.65,-12.5"/>
<polygon fill="midnightblue" stroke="midnightblue" points="723.61,-8.99 713.47,-12.06 723.31,-15.99 723.61,-8.99"/>
</g>
<!-- Node22&#45;&gt;Node18 -->
<g id="edge26" class="edge">
<title>Node22&#45;&gt;Node18</title>
<path fill="none" stroke="midnightblue" d="M390.13,-56.44C424.19,-47.01 479.03,-31.83 515.83,-21.63"/>
<polygon fill="midnightblue" stroke="midnightblue" points="516.99,-24.94 525.69,-18.9 515.12,-18.2 516.99,-24.94"/>
</g>
<!-- Node23 -->
<g id="node22" class="node">
<title>Node23</title>
<g id="a_node22"><a xlink:title=" ">
<polygon fill="none" stroke="#bfbfbf" points="269.23,-0.5 269.23,-19.5 319.23,-19.5 319.23,-0.5 269.23,-0.5"/>
<text text-anchor="middle" x="294.23" y="-7.5" font-family="Helvetica,sans-Serif" font-size="10.00">cstdint</text>
</a>
</g>
</g>
<!-- Node22&#45;&gt;Node23 -->
<g id="edge24" class="edge">
<title>Node22&#45;&gt;Node23</title>
<path fill="none" stroke="midnightblue" d="M348.78,-56.32C339.08,-48.26 324.41,-36.08 312.73,-26.37"/>
<polygon fill="midnightblue" stroke="midnightblue" points="314.79,-23.53 304.86,-19.83 310.32,-28.92 314.79,-23.53"/>
</g>
<!-- Node24 -->
<g id="node23" class="node">
<title>Node24</title>
<g id="a_node23"><a xlink:title=" ">
<polygon fill="none" stroke="#bfbfbf" points="337.23,-0.5 337.23,-19.5 381.23,-19.5 381.23,-0.5 337.23,-0.5"/>
<text text-anchor="middle" x="359.23" y="-7.5" font-family="Helvetica,sans-Serif" font-size="10.00">limits</text>
</a>
</g>
</g>
<!-- Node22&#45;&gt;Node24 -->
<g id="edge25" class="edge">
<title>Node22&#45;&gt;Node24</title>
<path fill="none" stroke="midnightblue" d="M359.23,-56.08C359.23,-49.01 359.23,-38.86 359.23,-29.99"/>
<polygon fill="midnightblue" stroke="midnightblue" points="362.73,-29.75 359.23,-19.75 355.73,-29.75 362.73,-29.75"/>
</g>
<!-- Node25 -->
<g id="node24" class="node">
<title>Node25</title>
<g id="a_node24"><a xlink:title=" ">
<polygon fill="none" stroke="#bfbfbf" points="69.73,-0.5 69.73,-19.5 138.73,-19.5 138.73,-0.5 69.73,-0.5"/>
<text text-anchor="middle" x="104.23" y="-7.5" font-family="Helvetica,sans-Serif" font-size="10.00">type_traits</text>
</a>
</g>
</g>
<!-- Node22&#45;&gt;Node25 -->
<g id="edge27" class="edge">
<title>Node22&#45;&gt;Node25</title>
<path fill="none" stroke="midnightblue" d="M318.82,-56.44C272.54,-46.64 196.93,-30.63 148.92,-20.46"/>
<polygon fill="midnightblue" stroke="midnightblue" points="149.63,-17.04 139.12,-18.39 148.18,-23.88 149.63,-17.04"/>
</g>
<!-- Node26 -->
<g id="node25" class="node">
<title>Node26</title>
<g id="a_node25"><a xlink:title=" ">
<polygon fill="none" stroke="#bfbfbf" points="399.73,-0.5 399.73,-19.5 446.73,-19.5 446.73,-0.5 399.73,-0.5"/>
<text text-anchor="middle" x="423.23" y="-7.5" font-family="Helvetica,sans-Serif" font-size="10.00">cmath</text>
</a>
</g>
</g>
<!-- Node22&#45;&gt;Node26 -->
<g id="edge28" class="edge">
<title>Node22&#45;&gt;Node26</title>
<path fill="none" stroke="midnightblue" d="M369.51,-56.32C379.06,-48.26 393.51,-36.08 405.01,-26.37"/>
<polygon fill="midnightblue" stroke="midnightblue" points="407.37,-28.96 412.76,-19.83 402.86,-23.61 407.37,-28.96"/>
</g>
<!-- Node28&#45;&gt;Node10 -->
<g id="edge39" class="edge">
<title>Node28&#45;&gt;Node10</title>
<path fill="none" stroke="midnightblue" d="M422.14,-179.48C443.12,-169.49 478.08,-152.85 502.32,-141.31"/>
<polygon fill="midnightblue" stroke="midnightblue" points="503.83,-144.47 511.35,-137.01 500.82,-138.15 503.83,-144.47"/>
</g>
<!-- Node28&#45;&gt;Node19 -->
<g id="edge37" class="edge">
<title>Node28&#45;&gt;Node19</title>
<path fill="none" stroke="midnightblue" d="M413.91,-179.46C430.4,-165.04 465.18,-135.17 496.23,-112 510.83,-101.11 527.88,-89.67 541.12,-81.06"/>
<polygon fill="midnightblue" stroke="midnightblue" points="543.1,-83.94 549.61,-75.58 539.31,-78.06 543.1,-83.94"/>
</g>
<!-- Node28&#45;&gt;Node21 -->
<g id="edge30" class="edge">
<title>Node28&#45;&gt;Node21</title>
<path fill="none" stroke="midnightblue" d="M408.63,-179.34C416.44,-164.47 433.87,-133.61 454.23,-112 482.76,-81.72 491.94,-74.45 529.23,-56 568.67,-36.49 617.97,-24.15 650.91,-17.42"/>
<polygon fill="midnightblue" stroke="midnightblue" points="651.86,-20.8 661,-15.44 650.51,-13.94 651.86,-20.8"/>
</g>
<!-- Node28&#45;&gt;Node25 -->
<g id="edge38" class="edge">
<title>Node28&#45;&gt;Node25</title>
<path fill="none" stroke="midnightblue" d="M353.92,-185.93C252.83,-181.24 32.75,-168.24 10.23,-143 -25.32,-103.16 43.5,-49.84 81.48,-24.93"/>
<polygon fill="midnightblue" stroke="midnightblue" points="83.42,-27.85 89.95,-19.51 79.64,-21.95 83.42,-27.85"/>
</g>
<!-- Node29 -->
<g id="node27" class="node">
<title>Node29</title>
<g id="a_node27"><a xlink:title=" ">
<polygon fill="none" stroke="#bfbfbf" points="90.73,-118 90.73,-137 143.73,-137 143.73,-118 90.73,-118"/>
<text text-anchor="middle" x="117.23" y="-125" font-family="Helvetica,sans-Serif" font-size="10.00">cstddef</text>
</a>
</g>
</g>
<!-- Node28&#45;&gt;Node29 -->
<g id="edge31" class="edge">
<title>Node28&#45;&gt;Node29</title>
<path fill="none" stroke="midnightblue" d="M354.01,-182.09C302.84,-175.35 221.51,-162.65 153.23,-143 150.79,-142.3 148.29,-141.49 145.81,-140.62"/>
<polygon fill="midnightblue" stroke="midnightblue" points="146.99,-137.33 136.4,-137.07 144.52,-143.88 146.99,-137.33"/>
</g>
<!-- Node30 -->
<g id="node28" class="node">
<title>Node30</title>
<g id="a_node28"><a xlink:title=" ">
<polygon fill="none" stroke="#bfbfbf" points="571.23,-118 571.23,-137 621.23,-137 621.23,-118 571.23,-118"/>
<text text-anchor="middle" x="596.23" y="-125" font-family="Helvetica,sans-Serif" font-size="10.00">cstring</text>
</a>
</g>
</g>
<!-- Node28&#45;&gt;Node30 -->
<g id="edge32" class="edge">
<title>Node28&#45;&gt;Node30</title>
<path fill="none" stroke="midnightblue" d="M438.26,-179.44C470.3,-171.1 519.47,-157.58 561.23,-143 563.14,-142.33 565.09,-141.62 567.06,-140.87"/>
<polygon fill="midnightblue" stroke="midnightblue" points="568.75,-143.97 576.76,-137.03 566.17,-137.46 568.75,-143.97"/>
</g>
<!-- Node31 -->
<g id="node29" class="node">
<title>Node31</title>
<g id="a_node29"><a xlink:title=" ">
<polygon fill="none" stroke="#bfbfbf" points="162.23,-118 162.23,-137 226.23,-137 226.23,-118 162.23,-118"/>
<text text-anchor="middle" x="194.23" y="-125" font-family="Helvetica,sans-Serif" font-size="10.00">algorithm</text>
</a>
</g>
</g>
<!-- Node28&#45;&gt;Node31 -->
<g id="edge33" class="edge">
<title>Node28&#45;&gt;Node31</title>
<path fill="none" stroke="midnightblue" d="M369.04,-179.5C334.69,-171 281.06,-157.18 235.23,-143 232.61,-142.19 229.92,-141.32 227.21,-140.42"/>
<polygon fill="midnightblue" stroke="midnightblue" points="228.13,-137.04 217.54,-137.11 225.86,-143.66 228.13,-137.04"/>
</g>
<!-- Node32 -->
<g id="node30" class="node">
<title>Node32</title>
<g id="a_node30"><a xlink:title=" ">
<polygon fill="none" stroke="#bfbfbf" points="244.73,-118 244.73,-137 309.73,-137 309.73,-118 244.73,-118"/>
<text text-anchor="middle" x="277.23" y="-125" font-family="Helvetica,sans-Serif" font-size="10.00">functional</text>
</a>
</g>
</g>
<!-- Node28&#45;&gt;Node32 -->
<g id="edge34" class="edge">
<title>Node28&#45;&gt;Node32</title>
<path fill="none" stroke="midnightblue" d="M386.03,-179.48C364.72,-169.49 329.2,-152.85 304.56,-141.31"/>
<polygon fill="midnightblue" stroke="midnightblue" points="305.93,-138.08 295.39,-137.01 302.96,-144.42 305.93,-138.08"/>
</g>
<!-- Node33 -->
<g id="node31" class="node">
<title>Node33</title>
<g id="a_node31"><a xlink:title=" ">
<polygon fill="none" stroke="#bfbfbf" points="327.73,-118 327.73,-137 410.73,-137 410.73,-118 327.73,-118"/>
<text text-anchor="middle" x="369.23" y="-125" font-family="Helvetica,sans-Serif" font-size="10.00">initializer_list</text>
</a>
</g>
</g>
<!-- Node28&#45;&gt;Node33 -->
<g id="edge35" class="edge">
<title>Node28&#45;&gt;Node33</title>
<path fill="none" stroke="midnightblue" d="M399.21,-179.48C394.07,-170.73 385.92,-156.87 379.41,-145.81"/>
<polygon fill="midnightblue" stroke="midnightblue" points="382.32,-143.85 374.23,-137.01 376.29,-147.4 382.32,-143.85"/>
</g>
<!-- Node34 -->
<g id="node32" class="node">
<title>Node34</title>
<g id="a_node32"><a xlink:title=" ">
<polygon fill="none" stroke="#bfbfbf" points="19.73,-118 19.73,-137 72.73,-137 72.73,-118 19.73,-118"/>
<text text-anchor="middle" x="46.23" y="-125" font-family="Helvetica,sans-Serif" font-size="10.00">iterator</text>
</a>
</g>
</g>
<!-- Node28&#45;&gt;Node34 -->
<g id="edge36" class="edge">
<title>Node28&#45;&gt;Node34</title>
<path fill="none" stroke="midnightblue" d="M354.19,-184.98C290.02,-180.22 175.74,-168.71 81.23,-143 78.78,-142.34 76.28,-141.54 73.8,-140.68"/>
<polygon fill="midnightblue" stroke="midnightblue" points="75.04,-137.4 64.45,-137.07 72.52,-143.93 75.04,-137.4"/>
</g>
<!-- Node35&#45;&gt;Node21 -->
<g id="edge41" class="edge">
<title>Node35&#45;&gt;Node21</title>
<path fill="none" stroke="midnightblue" d="M687.23,-179.46C687.23,-152.43 687.23,-68.24 687.23,-30.11"/>
<polygon fill="midnightblue" stroke="midnightblue" points="690.73,-29.87 687.23,-19.87 683.73,-29.87 690.73,-29.87"/>
</g>
<!-- Node35&#45;&gt;Node30 -->
<g id="edge42" class="edge">
<title>Node35&#45;&gt;Node30</title>
<path fill="none" stroke="midnightblue" d="M674.19,-179.48C659.46,-169.84 635.25,-154.02 617.72,-142.55"/>
<polygon fill="midnightblue" stroke="midnightblue" points="619.53,-139.55 609.24,-137.01 615.7,-145.41 619.53,-139.55"/>
</g>
<!-- Node36&#45;&gt;Node12 -->
<g id="edge46" class="edge">
<title>Node36&#45;&gt;Node12</title>
<path fill="none" stroke="midnightblue" d="M1182.31,-179.5C1251.28,-169.64 1361.23,-153.6 1418.07,-143.1"/>
<polygon fill="midnightblue" stroke="midnightblue" points="1418.87,-146.51 1428.05,-141.2 1417.57,-139.63 1418.87,-146.51"/>
</g>
<!-- Node36&#45;&gt;Node13 -->
<g id="edge47" class="edge">
<title>Node36&#45;&gt;Node13</title>
<path fill="none" stroke="midnightblue" d="M1182.92,-180.1C1186.07,-179.72 1189.18,-179.35 1192.23,-179 1343.8,-161.44 1385.7,-168.75 1539.76,-143.11"/>
<polygon fill="midnightblue" stroke="midnightblue" points="1540.8,-146.48 1550.08,-141.37 1539.63,-139.58 1540.8,-146.48"/>
</g>
<!-- Node37 -->
<g id="node35" class="node">
<title>Node37</title>
<g id="a_node35"><a xlink:title=" ">
<polygon fill="none" stroke="#bfbfbf" points="1054.73,-118 1054.73,-137 1101.73,-137 1101.73,-118 1054.73,-118"/>
<text text-anchor="middle" x="1078.23" y="-125" font-family="Helvetica,sans-Serif" font-size="10.00">queue</text>
</a>
</g>
</g>
<!-- Node36&#45;&gt;Node37 -->
<g id="edge44" class="edge">
<title>Node36&#45;&gt;Node37</title>
<path fill="none" stroke="midnightblue" d="M1115.92,-179.48C1109.32,-170.55 1098.79,-156.31 1090.53,-145.14"/>
<polygon fill="midnightblue" stroke="midnightblue" points="1093.28,-142.97 1084.52,-137.01 1087.65,-147.13 1093.28,-142.97"/>
</g>
<!-- Node38 -->
<g id="node36" class="node">
<title>Node38</title>
<g id="a_node36"><a xlink:title=" ">
<polygon fill="none" stroke="#bfbfbf" points="1119.73,-118 1119.73,-137 1162.73,-137 1162.73,-118 1119.73,-118"/>
<text text-anchor="middle" x="1141.23" y="-125" font-family="Helvetica,sans-Serif" font-size="10.00">stack</text>
</a>
</g>
</g>
<!-- Node36&#45;&gt;Node38 -->
<g id="edge45" class="edge">
<title>Node36&#45;&gt;Node38</title>
<path fill="none" stroke="midnightblue" d="M1124.95,-179.48C1127.66,-170.99 1131.9,-157.7 1135.38,-146.82"/>
<polygon fill="midnightblue" stroke="midnightblue" points="1138.8,-147.6 1138.51,-137.01 1132.13,-145.47 1138.8,-147.6"/>
</g>
<!-- Node39 -->
<g id="node37" class="node">
<title>Node39</title>
<g id="a_node37"><a xlink:title=" ">
<polygon fill="none" stroke="#bfbfbf" points="1180.73,-112.5 1180.73,-142.5 1293.73,-142.5 1293.73,-112.5 1180.73,-112.5"/>
<text text-anchor="start" x="1188.73" y="-130.5" font-family="Helvetica,sans-Serif" font-size="10.00">absl/container/node</text>
<text text-anchor="middle" x="1237.23" y="-119.5" font-family="Helvetica,sans-Serif" font-size="10.00">_hash_map.h</text>
</a>
</g>
</g>
<!-- Node36&#45;&gt;Node39 -->
<g id="edge48" class="edge">
<title>Node36&#45;&gt;Node39</title>
<path fill="none" stroke="midnightblue" d="M1138.7,-179.48C1154.93,-171.08 1180.26,-157.97 1201.18,-147.15"/>
<polygon fill="midnightblue" stroke="midnightblue" points="1202.85,-150.23 1210.12,-142.52 1199.63,-144.01 1202.85,-150.23"/>
</g>
<!-- Node40 -->
<g id="node38" class="node">
<title>Node40</title>
<g id="a_node38"><a xlink:title=" ">
<polygon fill="none" stroke="#bfbfbf" points="923.73,-112.5 923.73,-142.5 1036.73,-142.5 1036.73,-112.5 923.73,-112.5"/>
<text text-anchor="start" x="931.73" y="-130.5" font-family="Helvetica,sans-Serif" font-size="10.00">absl/container/node</text>
<text text-anchor="middle" x="980.23" y="-119.5" font-family="Helvetica,sans-Serif" font-size="10.00">_hash_set.h</text>
</a>
</g>
</g>
<!-- Node36&#45;&gt;Node40 -->
<g id="edge49" class="edge">
<title>Node36&#45;&gt;Node40</title>
<path fill="none" stroke="midnightblue" d="M1101.88,-179.48C1081.39,-170.89 1049.16,-157.38 1023.02,-146.43"/>
<polygon fill="midnightblue" stroke="midnightblue" points="1024.27,-143.16 1013.69,-142.52 1021.56,-149.62 1024.27,-143.16"/>
</g>
<!-- Node36&#45;&gt;Node41 -->
<g id="edge50" class="edge">
<title>Node36&#45;&gt;Node41</title>
<path fill="none" stroke="midnightblue" d="M1080.7,-179.42C1038.66,-170.64 971.8,-156.42 914.23,-143 909.49,-141.89 904.54,-140.71 899.61,-139.51"/>
<polygon fill="midnightblue" stroke="midnightblue" points="900.16,-136.04 889.61,-137.04 898.49,-142.83 900.16,-136.04"/>
</g>
<!-- Node41&#45;&gt;Node22 -->
<g id="edge51" class="edge">
<title>Node41&#45;&gt;Node22</title>
<path fill="none" stroke="midnightblue" d="M824.86,-117.94C815.98,-115.74 806.27,-113.57 797.23,-112 664.06,-88.91 505.9,-76.25 420.8,-70.63"/>
<polygon fill="midnightblue" stroke="midnightblue" points="421,-67.13 410.79,-69.97 420.54,-74.12 421,-67.13"/>
</g>
<!-- Node43&#45;&gt;Node3 -->
<g id="edge58" class="edge">
<title>Node43&#45;&gt;Node3</title>
<path fill="none" stroke="midnightblue" d="M1860.95,-235.46C1850.52,-208.31 1817.94,-123.51 1803.38,-85.62"/>
<polygon fill="midnightblue" stroke="midnightblue" points="1806.49,-83.95 1799.63,-75.87 1799.95,-86.46 1806.49,-83.95"/>
</g>
<!-- Node43&#45;&gt;Node11 -->
<g id="edge60" class="edge">
<title>Node43&#45;&gt;Node11</title>
<path fill="none" stroke="midnightblue" d="M1824.2,-235.62C1779.27,-226.22 1706.27,-210.94 1657.28,-200.68"/>
<polygon fill="midnightblue" stroke="midnightblue" points="1657.71,-197.2 1647.2,-198.58 1656.28,-204.05 1657.71,-197.2"/>
</g>
<!-- Node43&#45;&gt;Node16 -->
<g id="edge61" class="edge">
<title>Node43&#45;&gt;Node16</title>
<path fill="none" stroke="midnightblue" d="M1841.5,-235.49C1804.02,-221.75 1726.7,-194.65 1659.23,-179 1554.16,-154.62 1525,-164.1 1419.23,-143 1413.88,-141.93 1408.29,-140.7 1402.78,-139.4"/>
<polygon fill="midnightblue" stroke="midnightblue" points="1403.56,-135.99 1393.01,-137.03 1401.91,-142.79 1403.56,-135.99"/>
</g>
<!-- Node44 -->
<g id="node42" class="node">
<title>Node44</title>
<g id="a_node42"><a xlink:title=" ">
<polygon fill="none" stroke="#bfbfbf" points="1862.73,-179.5 1862.73,-198.5 1927.73,-198.5 1927.73,-179.5 1862.73,-179.5"/>
<text text-anchor="middle" x="1895.23" y="-186.5" font-family="Helvetica,sans-Serif" font-size="10.00">stdexcept</text>
</a>
</g>
</g>
<!-- Node43&#45;&gt;Node44 -->
<g id="edge59" class="edge">
<title>Node43&#45;&gt;Node44</title>
<path fill="none" stroke="midnightblue" d="M1869.35,-235.08C1873.64,-227.61 1879.89,-216.72 1885.17,-207.52"/>
<polygon fill="midnightblue" stroke="midnightblue" points="1888.26,-209.17 1890.2,-198.75 1882.19,-205.68 1888.26,-209.17"/>
</g>
<!-- Node45&#45;&gt;Node8 -->
<g id="edge63" class="edge">
<title>Node45&#45;&gt;Node8</title>
<path fill="none" stroke="midnightblue" d="M1266.13,-291.44C1237.24,-282.32 1191.3,-267.81 1159.12,-257.65"/>
<polygon fill="midnightblue" stroke="midnightblue" points="1159.79,-254.19 1149.2,-254.52 1157.68,-260.87 1159.79,-254.19"/>
</g>
<!-- Node46&#45;&gt;Node8 -->
<g id="edge65" class="edge">
<title>Node46&#45;&gt;Node8</title>
<path fill="none" stroke="midnightblue" d="M1365.36,-347.39C1365.07,-333.4 1362.34,-305.78 1346.23,-291 1320.79,-267.66 1226.4,-255.26 1168.58,-249.71"/>
<polygon fill="midnightblue" stroke="midnightblue" points="1168.86,-246.22 1158.58,-248.78 1168.21,-253.19 1168.86,-246.22"/>
</g>
<!-- Node48&#45;&gt;Node8 -->
<g id="edge70" class="edge">
<title>Node48&#45;&gt;Node8</title>
<path fill="none" stroke="midnightblue" d="M1002.83,-459.38C1013.3,-424.87 1051.91,-298.16 1057.23,-291 1066.97,-277.87 1081.71,-267.22 1094.7,-259.58"/>
<polygon fill="midnightblue" stroke="midnightblue" points="1096.7,-262.47 1103.75,-254.56 1093.3,-256.35 1096.7,-262.47"/>
</g>
<!-- Node49 -->
<g id="node47" class="node">
<title>Node49</title>
<g id="a_node47"><a xlink:title=" ">
<polygon fill="none" stroke="#bfbfbf" points="957.73,-403.5 957.73,-422.5 1004.73,-422.5 1004.73,-403.5 957.73,-403.5"/>
<text text-anchor="middle" x="981.23" y="-410.5" font-family="Helvetica,sans-Serif" font-size="10.00">deque</text>
</a>
</g>
</g>
<!-- Node48&#45;&gt;Node49 -->
<g id="edge69" class="edge">
<title>Node48&#45;&gt;Node49</title>
<path fill="none" stroke="midnightblue" d="M997.09,-459.08C994.54,-451.85 990.87,-441.41 987.7,-432.4"/>
<polygon fill="midnightblue" stroke="midnightblue" points="990.93,-431.02 984.31,-422.75 984.32,-433.35 990.93,-431.02"/>
</g>
<!-- Node51&#45;&gt;Node2 -->
<g id="edge75" class="edge">
<title>Node51&#45;&gt;Node2</title>
<path fill="none" stroke="midnightblue" d="M1191.51,-460.26C1250.99,-450.32 1354,-433.1 1416.16,-422.71"/>
<polygon fill="midnightblue" stroke="midnightblue" points="1416.86,-426.14 1426.15,-421.04 1415.71,-419.23 1416.86,-426.14"/>
</g>
<!-- Node51&#45;&gt;Node52 -->
<g id="edge76" class="edge">
<title>Node51&#45;&gt;Node52</title>
<path fill="none" stroke="midnightblue" d="M1146.3,-459.08C1149.45,-432.95 1158.7,-356.21 1162.99,-320.58"/>
<polygon fill="midnightblue" stroke="midnightblue" points="1166.47,-320.92 1164.2,-310.57 1159.52,-320.08 1166.47,-320.92"/>
</g>
<!-- Node52&#45;&gt;Node8 -->
<g id="edge77" class="edge">
<title>Node52&#45;&gt;Node8</title>
<path fill="none" stroke="midnightblue" d="M1158.13,-291.08C1151.99,-283.38 1142.96,-272.03 1135.49,-262.65"/>
<polygon fill="midnightblue" stroke="midnightblue" points="1138.16,-260.39 1129.2,-254.75 1132.69,-264.75 1138.16,-260.39"/>
</g>
<!-- Node52&#45;&gt;Node16 -->
<g id="edge78" class="edge">
<title>Node52&#45;&gt;Node16</title>
<path fill="none" stroke="midnightblue" d="M1177.7,-291.46C1201.65,-274.83 1255.35,-236.43 1296.23,-199 1315.11,-181.71 1334.77,-159.74 1347.45,-144.97"/>
<polygon fill="midnightblue" stroke="midnightblue" points="1350.25,-147.07 1354.06,-137.18 1344.92,-142.54 1350.25,-147.07"/>
</g>
</g>
</svg>
